# .PCD v0.7 - Point Cloud Data file format
VERSION 0.7
FIELDS x y z rgb
SIZE 4 4 4 4
TYPE F F F U
COUNT 1 1 1 1
WIDTH 580
HEIGHT 1
VIEWPOINT 0 0 0 1 0 0 0
POINTS 580
DATA ascii
0.47833335 -0.11630213 0.029092863 15658216
0.48050004 -0.11176667 0.029224642 15592934
0.48100004 -0.10906907 0.029255053 13685192
0.46858332 -0.12252495 0.038554531 16579575
0.47137502 -0.12095491 0.035286829 16053487
0.46876922 -0.11591781 0.03914731 16119279
0.47383553 -0.11501981 0.0341831 15987694
0.48050004 -0.1106424 0.030349504 16251119
0.46877781 -0.10519995 0.039485857 16053486
0.47377959 -0.10536212 0.035607908 15921643
0.48040003 -0.10724608 0.031017398 15790568
0.46899995 -0.094888285 0.03902423 15790314
0.47063041 -0.094960406 0.035472099 15329763
0.46900001 -0.089512967 0.038772613 15724521
0.47048005 -0.086196803 0.037513897 15000541
0.70749998 0.014306884 0.039718539 14606040
0.71100003 0.011048151 0.039915029 14606040
0.5154286 0.038434241 0.038759369 14276818
0.51727098 0.045429278 0.037134014 14277075
0.51555824 0.055394925 0.037384387 14408661
0.5213334 0.055088758 0.033538077 14408661
0.50735718 0.064640164 0.038492024 14474454
0.51166672 0.064527348 0.036706846 14474454
0.52000004 0.064686894 0.035279073 14737626
0.49850002 0.078933217 0.039655402 14540247
0.50100005 0.077570386 0.039854281 14540247
0.51375002 0.072033912 0.038156465 14540247
0.53050005 0.072824165 0.035991438 14737626
0.49710003 0.083480664 0.038961358 14408661
0.5 0.082097583 0.03743371 14737626
0.45591187 -0.12328027 0.047402725 16184816
0.46376002 -0.12274443 0.042312719 16316145
0.44900003 -0.11127297 0.049382228 15987692
0.45470181 -0.11497868 0.046803985 16251120
0.46341041 -0.11517461 0.041948367 16185072
0.4488 -0.10429025 0.048939798 16316142
0.45402086 -0.1051389 0.045871552 16250863
0.46331432 -0.10511647 0.041715831 16119023
0.44814295 -0.094238997 0.04857371 16053741
0.45443916 -0.095359601 0.04545616 16119022
0.46490332 -0.095199011 0.041541751 15856107
0.44677275 -0.084907345 0.048132814 15921899
0.45540747 -0.085373782 0.044909816 15724778
0.46549997 -0.084729515 0.042085372 15527141
0.47000003 -0.081818506 0.040689085 15197663
0.43900001 -0.070769578 0.049310111 15592935
0.44323337 -0.075992346 0.048327398 15592935
0.45500004 -0.079202592 0.045244209 15527399
0.46700001 -0.07965637 0.042974051 15395042
0.43900007 -0.066915669 0.049053188 15461606
0.44257146 -0.064515896 0.048601959 15198177
0.44628575 -0.057763193 0.049381349 14540504
0.71739995 -0.0048068957 0.048671551 14671833
0.71421045 0.005593386 0.046079889 14671576
0.55800009 0.01781388 0.049613751 14078926
0.56 0.018635819 0.046362884 14144976
0.70699996 0.015240955 0.044656102 14605270
0.71033335 0.010946231 0.044680852 14671063
0.50633335 0.029400202 0.048181817 14407891
0.51200002 0.027733674 0.049119532 14276305
0.55774999 0.023357915 0.049591526 14210512
0.56026673 0.025277765 0.04491752 14210512
0.49725002 0.039158329 0.048866194 14145489
0.50472224 0.034559935 0.047627069 14210769
0.51194739 0.037634443 0.042867292 14342099
0.56062502 0.030531432 0.045087565 14210512
0.46560001 0.04636142 0.049098056 14342868
0.47266671 0.044600457 0.048294932 14211282
0.49650002 0.044607393 0.047342815 14211282
0.50594449 0.046283629 0.045312401 14079696
0.51193756 0.044658411 0.042593583 14276819
0.4657144 0.053574719 0.049583133 14474455
0.47377282 0.054647252 0.04791766 14540247
0.48364708 0.056223899 0.046395462 14540249
0.49585715 0.055217355 0.044801753 14277076
0.50438464 0.05520324 0.04243537 14211283
0.51120007 0.05293892 0.041143719 14277075
0.46625006 0.065188415 0.049549028 14737626
0.47395244 0.065087453 0.047894564 14606040
0.48396671 0.065452442 0.044987891 14671833
0.49504763 0.063844621 0.043017268 14342868
0.50292861 0.062981449 0.040846277 14408661
0.46809098 0.075655408 0.049389031 14935005
0.47392866 0.075316489 0.047641307 14737369
0.48470277 0.074953094 0.044560708 14737627
0.49171424 0.075472504 0.041087192 14671834
0.45900002 0.088797182 0.049407531 14803419
0.46458334 0.085305154 0.048372287 14737626
0.47363162 0.083599873 0.046191912 14737626
0.48455557 0.082582906 0.044339105 14803419
0.49285001 0.084328011 0.041396797 14606039
0.45900002 0.092558026 0.049407531 14671066
0.46285716 0.09163022 0.047185395 14869214
0.47500002 0.090780519 0.044457894 14737885
0.48600003 0.090038471 0.043211978 15066075
0.43900001 -0.12112722 0.059587177 15921129
0.44444454 -0.12320147 0.056053773 16250095
0.45100001 -0.1240545 0.051424574 16447732
0.43890917 -0.11447076 0.058780693 16316399
0.44434178 -0.11492079 0.053883016 16381935
0.45000002 -0.11994846 0.05054567 15657958
0.4384706 -0.10470982 0.058246069 16381681
0.44351473 -0.10508701 0.053225294 16316399
0.43707266 -0.094460562 0.057179637 16184557
0.44282982 -0.095296577 0.05224767 16184813
0.42900002 -0.080204777 0.059234139 15658982
0.43488142 -0.084585316 0.05613305 15921640
0.44137502 -0.085790731 0.051641081 15987434
0.4269354 -0.074211769 0.058624048 15658982
0.43449312 -0.075040318 0.054039836 15724775
0.44016671 -0.07662604 0.050471589 15724775
0.42634001 -0.065034717 0.057863146 15658982
0.43401694 -0.065438241 0.053163894 15593191
0.44166669 -0.060514271 0.050986934 15000798
0.42542869 -0.055850398 0.058413438 15461604
0.43421432 -0.054998688 0.055078268 14935005
0.44252172 -0.05561899 0.05136821 14737626
0.41900003 -0.047927719 0.059815161 15263970
0.42000002 -0.049025331 0.059957918 15724521
0.43530765 -0.046145067 0.057279471 14540247
0.71682608 -0.0067722346 0.053301521 14802906
0.71500003 0.0035792578 0.050182555 14802649
0.52657145 0.018661264 0.056678694 14210513
0.5316 0.017344501 0.054233771 14079697
0.54100001 0.017906109 0.053168181 14079698
0.55449998 0.017703302 0.050600648 14078926
0.45614007 0.027137119 0.056403752 14145491
0.46000001 0.022763237 0.059206985 14276307
0.509 0.028762748 0.050023299 14407891
0.51388896 0.027296254 0.05344981 14144976
0.52450001 0.022959121 0.055915389 14144976
0.5334 0.022401679 0.053416211 14079697
0.5423333 0.021336913 0.052873153 14079698
0.55239999 0.022424223 0.050924975 14210512
0.43900001 0.037653498 0.059587177 14277075
0.44484213 0.035987664 0.058784567 14145489
0.45455742 0.034862544 0.054470237 14211027
0.46000001 0.039993126 0.051668908 14408661
0.49800003 0.036300387 0.050108071 14079696
0.50260007 0.033340178 0.051040996 14211282
0.43860003 0.045660667 0.059190318 14540247
0.44515795 0.044872791 0.057288077 14342868
0.45459524 0.044719003 0.054070048 14408661
0.4610588 0.045735572 0.051278736 14408148
0.43779999 0.054924559 0.059012614 14737368
0.44523081 0.055086296 0.056870233 14606040
0.45523408 0.055130806 0.05330272 14606042
0.46166664 0.054309513 0.050894998 14539992
0.43841183 0.064561188 0.059023708 15066334
0.44434139 0.065698422 0.056318086 14803419
0.45502505 0.064646296 0.05296541 14606041
0.46266666 0.065953158 0.050613184 14540249
0.43900007 0.074650943 0.059587173 15198177
0.44408634 0.074976921 0.056609098 15000798
0.45455879 0.075007491 0.052645966 14671833
0.46370584 0.074796028 0.050487079 14671833
0.43900004 0.082358748 0.059587173 14935005
0.44490582 0.084759198 0.057232719 15066591
0.45491832 0.085364908 0.05258733 14803162
0.46100003 0.080010816 0.050702024 14540247
0.44680563 0.094373308 0.058112953 14935006
0.45531261 0.09380918 0.053395525 14671320
0.44900003 0.10000157 0.056740053 3814454
0.43613225 -0.12359457 0.065117419 15723495
0.42899999 -0.11153884 0.069076248 16315631
0.43370101 -0.11501663 0.064660989 16315886
0.42757574 -0.10453807 0.06880217 16315630
0.43306103 -0.10513219 0.063689508 16381935
0.4268572 -0.094550416 0.067703187 16052971
0.43223214 -0.095754199 0.062870681 16118763
0.41900003 -0.081277855 0.069624029 15921130
0.42450005 -0.084623106 0.065670565 15855335
0.43031251 -0.087376937 0.061303683 15920871
0.41762853 -0.073696218 0.067997016 15724006
0.42253515 -0.075529344 0.063640922 15724261
0.40900001 -0.060906634 0.069637932 15460835
0.41507506 -0.064765625 0.066300198 15526629
0.4214724 -0.065613508 0.061590772 15658726
0.40783781 -0.05403449 0.068386264 15461349
0.41389877 -0.055010717 0.063895427 15658215
0.42083338 -0.057167709 0.060569081 15395556
0.40606686 -0.044928882 0.067847028 15395556
0.41232154 -0.045425151 0.063215695 15198177
0.42366669 -0.046475559 0.060481358 14671833
0.4355714 -0.043120753 0.060797308 14540247
0.40567133 -0.035127573 0.067544498 14803419
0.41076925 -0.03766682 0.063373163 14540248
0.40561229 -0.025771022 0.067919865 13948112
0.41000003 -0.020023359 0.068128526 13948112
0.40825 -0.019220371 0.069510393 14013905
0.41372216 -0.014545277 0.068233632 14079698
0.41766667 -0.0089903874 0.068749726 14211284
0.42219362 -0.0048615439 0.068144284 14145490
0.42650002 0.0031384854 0.068826579 14079698
0.43308333 0.0069877617 0.068496384 14079185
0.454 0.0092863934 0.06778381 13882062
0.46322224 0.0088253394 0.066125847 13882062
0.42780003 0.018364334 0.069482699 13816526
0.43213645 0.015355743 0.067595325 13881806
0.44799998 0.014472927 0.0669282 13816269
0.45500001 0.012529906 0.067483306 13882062
0.46431825 0.015867464 0.065536685 13881805
0.47206253 0.01562265 0.06414073 13947342
0.41666666 0.027986318 0.0694509 14342868
0.42510173 0.025213454 0.067592196 14145234
0.43067658 0.025169116 0.063881412 14079441
0.44250003 0.028628841 0.06213405 14079696
0.45616665 0.025101746 0.062093928 14079697
0.46340004 0.021194451 0.062680438 14078927
0.41502506 0.035085011 0.068594396 14474454
0.42473912 0.034828521 0.065596104 14408404
0.43289804 0.035175469 0.061935984 14277075
0.44200003 0.031187413 0.060510576 14013904
0.45100003 0.030764263 0.06016019 14211284
0.41651848 0.04434175 0.068884306 14540758
0.42445588 0.045328397 0.06522774 14606040
0.43286487 0.044890352 0.061241545 14539990
0.41815004 0.054955304 0.068992592 15132895
0.42419446 0.054864287 0.065398186 14935004
0.43236125 0.055190191 0.061183479 14803162
0.41900003 0.061441131 0.069624029 15395810
0.42434722 0.064848013 0.066967942 15198174
0.43268639 0.065284394 0.0619005 15132383
0.42673334 0.074398018 0.067818962 15132382
0.43323877 0.075371556 0.062971041 15264225
0.42825001 0.081345409 0.069154814 15066845
0.43415779 0.085139446 0.064805239 15132639
0.44000003 0.089241669 0.060752962 15395556
0.4361428 0.094384938 0.066291973 15067103
0.44190317 0.096319877 0.061546035 14737627
0.43839997 0.10071963 0.067713812 14408919
0.44125006 0.1015451 0.064622611 14211026
0.42788461 -0.12276233 0.077763073 15131358
0.43222225 -0.12449927 0.072780892 15197408
0.42547816 -0.11461782 0.075118549 15789287
0.43012506 -0.11855292 0.071094856 15657702
0.42290759 -0.10494462 0.07523872 16052972
0.41768962 -0.09289474 0.077900864 15592164
0.42193419 -0.095715299 0.073846519 15921130
0.41583151 -0.084662288 0.07534764 15657956
0.42070001 -0.088207431 0.071284667 15723751
0.40864283 -0.072299734 0.078493938 15395040
0.41330978 -0.075454794 0.074403249 15526371
0.40639347 -0.064459413 0.075856522 15263199
0.41140911 -0.067374244 0.071819179 15394786
0.39784211 -0.052028641 0.078508399 15131870
0.40275761 -0.055463843 0.074377477 15460579
0.396375 -0.04451891 0.07662005 15263713
0.40074995 -0.045458272 0.071919888 15526629
0.39456847 -0.03493198 0.076207206 15132384
0.4009999 -0.035073165 0.07132519 15066335
0.38900003 -0.021729739 0.079209507 14737626
0.39430425 -0.02525604 0.076440483 14671833
0.40206 -0.024505096 0.071943343 14408662
0.38900003 -0.01763179 0.079209507 14474711
0.39415008 -0.014760706 0.076748483 14540247
0.40482467 -0.015479597 0.072796233 14277077
0.41152942 -0.013068387 0.070988357 14145491
0.39491436 -0.0054529011 0.077709779 14145491
0.40333325 -0.0052650347 0.073998526 14211282
0.41504002 -0.0063502742 0.071603306 14211283
0.42176926 -0.0022922771 0.071146101 14145490
0.3964572 0.0042948979 0.078630745 13948110
0.40390483 0.0057412488 0.076338917 13882317
0.41533324 0.0061167572 0.074312329 13948111
0.42321736 0.0047952565 0.071868494 14079441
0.39755002 0.014137777 0.079320446 14145489
0.4045971 0.015467552 0.076886795 14079696
0.41402274 0.015288689 0.073415108 13882318
0.42486498 0.013763675 0.071236089 13816269
0.39833334 0.020955503 0.079554774 14408661
0.40459827 0.025098568 0.07605134 14474454
0.41284621 0.024784049 0.071272023 14342612
0.421 0.02083331 0.070447981 13816525
0.40455234 0.034947269 0.076314643 14540247
0.41109675 0.035089768 0.071165375 14540245
0.4066073 0.04475956 0.076665655 14671832
0.41239133 0.045678698 0.071731344 14737880
0.40800008 0.053974528 0.078174718 15066847
0.41314122 0.055364888 0.073326237 15066846
0.40900001 0.06093223 0.079452068 15263970
0.41461763 0.064684309 0.075209297 15198175
0.42050001 0.068306364 0.071225807 15460579
0.417 0.073650934 0.077373534 15132383
0.42226148 0.075889923 0.073230699 15132383
0.41900003 0.080568418 0.07943289 14671833
0.42440584 0.08498323 0.075284973 15132383
0.43000004 0.088555627 0.070780776 15001052
0.42649996 0.094085984 0.077132024 15001054
0.43146002 0.09609884 0.072638646 15066847
0.428 0.1003342 0.079133607 13750988
0.43334788 0.10216203 0.07472863 12763839
0.44300002 0.10903595 0.079834461 3486253
0.42676193 -0.12331945 0.085135587 14868186
0.41900003 -0.11070445 0.088751316 15262945
0.42279071 -0.11501808 0.084716104 14999771
0.41750619 -0.10454486 0.086071983 15394785
0.42026094 -0.10629024 0.081681855 15855591
0.41493523 -0.095048174 0.084981546 15394785
0.40876189 -0.081844367 0.088336572 14868699
0.41174188 -0.085573286 0.084322073 15197662
0.40667006 -0.074570745 0.085056759 14802904
0.41083336 -0.079213388 0.081089534 15197661
0.3987 -0.061099946 0.088091135 14539731
0.40213016 -0.065463811 0.084851287 14802903
0.39629906 -0.054841466 0.085223325 14736855
0.40000004 -0.05909818 0.08144936 14802904
0.38884613 -0.041537862 0.087930351 14934491
0.39239812 -0.045484234 0.084463291 14934235
0.38754389 -0.034823183 0.085423335 14408405
0.39038461 -0.037625525 0.081178062 14934748
0.38600019 -0.025178239 0.084907375 12237752
0.38611192 -0.015239557 0.084934525 12303801
0.38700908 -0.0056219669 0.085630462 13882317
0.39096013 -0.0038235006 0.081108257 14079696
0.38776296 0.0046664998 0.08714702 13750987
0.39226985 0.0048669558 0.082056895 14013903
0.3882122 0.014530286 0.087666482 13816524
0.39247933 0.01478867 0.082817346 14211281
0.38892856 0.021587765 0.088559709 14211282
0.39393744 0.02534011 0.084409736 14408661
0.39554176 0.034731422 0.08546491 14408660
0.40009096 0.037424564 0.080956884 14474709
0.39707145 0.044509474 0.087261595 14606295
0.40150821 0.045665309 0.08256752 14606296
0.3985 0.05155598 0.088956498 14935260
0.40313572 0.055207245 0.08469481 15066846
0.40604818 0.064517148 0.085601933 15000797
0.41121057 0.067520514 0.08114662 15066589
0.40828007 0.07307978 0.088409968 14869468
0.41328564 0.075625144 0.084196396 15001054
0.41603059 0.084541224 0.08567512 14935261
0.42040005 0.087727547 0.0815349 15132641
0.41780648 0.092897877 0.087723084 14869469
0.42189479 0.09583801 0.083781801 14737884
0.42307693 0.10131027 0.086124606 12895939
0.43150002 0.10418515 0.081292264 12632253
0.44150001 0.10866675 0.082147457 2959651
0.44546673 0.11291286 0.08528237 2894112
0.45188892 0.1165137 0.081670202 2894108
0.42540821 -0.12260187 0.094710879 14737113
0.4186843 -0.11108565 0.094796889 13881547
0.42168668 -0.11603145 0.095042445 14013133
0.41626889 -0.10514881 0.09493465 14210767
0.41196093 -0.094900325 0.094922557 14276305
0.40854254 -0.084402397 0.095184058 14407891
0.4100714 -0.088460147 0.093030922 14539477
0.40452573 -0.074995436 0.094776951 14013133
0.39812198 -0.061749104 0.095138229 13618631
0.40062124 -0.06688714 0.09474764 13815754
0.39472905 -0.054824628 0.09484046 13750217
0.38815385 -0.042374466 0.095250644 13947598
0.39113566 -0.047164485 0.094821908 13684426
0.38436618 -0.034832321 0.094880842 12039858
0.37845001 -0.02323734 0.097303525 2501930
0.38117495 -0.025823325 0.093351081 2567466
0.37853196 -0.016921196 0.097627446 2567466
0.38129351 -0.014166544 0.093799464 3421745
0.38340127 -0.0052571353 0.094748914 12500920
0.38453749 0.0046275435 0.094949424 13027265
0.3855235 0.014632334 0.094914012 13421766
0.38769123 0.024626369 0.094948202 13948622
0.39000002 0.028611835 0.090734296 14277330
0.38855413 0.033954896 0.097124651 14014159
0.39137098 0.03592059 0.092471227 14343124
0.38900003 0.040801972 0.098636843 13817036
0.39243332 0.045123935 0.094873041 14474453
0.39579991 0.054785762 0.095117673 14803674
0.40014288 0.058207925 0.0909793 15198431
0.39802864 0.062934093 0.097631879 15000797
0.4013615 0.065713674 0.09385705 14869467
0.40501693 0.074968308 0.095170021 14935260
0.41000003 0.079317741 0.090204328 14737626
0.40747711 0.08404924 0.096746929 15000797
0.41165954 0.086274795 0.092595607 14935005
0.40900001 0.091475725 0.099176079 14869213
0.41439205 0.094915271 0.094961122 14672091
0.42033339 0.099193215 0.090837501 14540504
0.41761541 0.101284 0.097290784 14474713
0.42277777 0.10461572 0.093676075 6447198
0.44300002 0.1152579 0.09186215 2894366
0.42500013 -0.12230326 0.1048018 14407892
0.41900003 -0.11070445 0.10052195 13749704
0.42228109 -0.11527695 0.10518178 13947339
0.41719997 -0.10417811 0.10450113 13158079
0.42035717 -0.1084625 0.10724496 13092028
0.41296667 -0.094776049 0.10465328 13290179
0.40845188 -0.082749702 0.10426871 13026752
0.4107368 -0.087823868 0.10595646 12960958
0.40581316 -0.074938178 0.10510292 12500407
0.39883336 -0.061182465 0.10144171 12105393
0.4018507 -0.065522507 0.10502518 11974320
0.39588094 -0.054339845 0.10437586 12237493
0.40023535 -0.058788955 0.10784295 11776941
0.38738024 -0.043103136 0.10494599 13421254
0.39127511 -0.048101991 0.10477082 13026753
0.37888888 -0.030527435 0.10681447 3355438
0.38272017 -0.035269137 0.10476885 11644841
0.37691841 -0.024699271 0.1053763 2370598
0.38000003 -0.029233279 0.10095096 2634026
0.37736267 -0.015097934 0.10535258 3027500
0.38016668 -0.010853109 0.10158808 3749935
0.37900001 -0.00945949 0.10804943 11119259
0.38195118 -0.0051112506 0.10480788 11974318
0.38436344 0.0046250629 0.10526241 11974318
0.38486567 0.015055611 0.10501701 12237746
0.38517806 0.025276268 0.10499232 13158849
0.38681391 0.035221834 0.10500513 13619399
0.38829252 0.044282679 0.10550863 14211537
0.39047825 0.048059132 0.10184515 14474708
0.38895649 0.052502919 0.10833817 14606294
0.39171952 0.055460081 0.10422499 14803417
0.39474607 0.064894252 0.10501479 14935004
0.40000001 0.068955496 0.1001775 15066591
0.39738238 0.073896989 0.10671283 15066591
0.40085447 0.076416217 0.10284489 14935005
0.39823082 0.082456298 0.1094149 15066848
0.4030171 0.085312426 0.10465211 14935262
0.40480399 0.094058879 0.1055968 14540762
0.4121429 0.097859964 0.10128895 14212311
0.40850002 0.10054444 0.10660908 14343387
0.41711107 0.10244955 0.1013163 12171705
0.42080003 0.10534539 0.10184057 4209727
0.42490482 -0.12088531 0.11470483 12961217
0.4241704 -0.11510894 0.11496821 13487302
0.41828576 -0.10163359 0.11231252 12500662
0.4212206 -0.10585653 0.11541256 12763577
0.4158183 -0.095115177 0.11490581 12500406
0.40899998 -0.081359394 0.11083601 12698042
0.41222608 -0.085274033 0.11535287 12105391
0.40811911 -0.074415289 0.11251719 11711148
0.4115532 -0.075590856 0.11758696 11316388
0.40585011 -0.064484119 0.11480711 11842477
0.41020003 -0.068623766 0.11867297 11447719
0.39705268 -0.05246507 0.11462945 12631994
0.40141663 -0.05705978 0.11547253 12171442
0.38680002 -0.042666025 0.11484208 13091775
0.39210418 -0.047762226 0.11512405 12960702
0.37806064 -0.031686649 0.11546478 6514273
0.38198796 -0.036437996 0.11481946 12236722
0.37332204 -0.025057783 0.11496255 2173219
0.37410003 -0.015122919 0.11516487 3224620
0.37840748 -0.0090307221 0.11514211 12303536
0.38231581 -0.0042771026 0.11494943 12238259
0.38541567 0.0045433617 0.11515473 11711404
0.38600886 0.01472721 0.11511823 11447975
0.38602534 0.025177993 0.11520333 12369334
0.38589627 0.035457369 0.11488552 13092544
0.38581377 0.045181911 0.1152286 14013902
0.38727203 0.05498293 0.11516459 14671831
0.39000002 0.059471134 0.11045504 14934489
0.38822991 0.064143769 0.1163223 14868954
0.39097828 0.066566862 0.11216221 15000284
0.38889998 0.072504982 0.11870109 14868954
0.39263037 0.075421013 0.11427616 14869469
0.38900003 0.081174389 0.11927838 14671833
0.39401513 0.084940463 0.11503756 14803677
0.40000001 0.088620052 0.11047798 14737885
0.39619443 0.093214475 0.11597136 14277333
0.40032145 0.096123204 0.11173762 14144977
0.42499998 -0.12074665 0.12136259 10921376
0.42499965 -0.11402181 0.12426165 13290179
0.42265898 -0.10472946 0.12487524 12763577
0.41785714 -0.093734637 0.12345819 12566456
0.4204689 -0.096698172 0.12723622 12434100
0.41647065 -0.085147254 0.12493259 12105904
0.41546988 -0.075052798 0.12514041 11119009
0.40777779 -0.062318094 0.12442614 12565431
0.41230613 -0.067140341 0.12563859 12039599
0.39641505 -0.052667864 0.12567925 13552582
0.40258002 -0.057440009 0.12425139 13289410
0.3856988 -0.043148503 0.12534009 13355460
0.39197302 -0.048310731 0.12427627 13355203
0.37663466 -0.032319788 0.12521216 6711395
0.38130769 -0.037054118 0.12475941 12303029
0.36878139 -0.023703184 0.1283211 1646104
0.37102932 -0.025554959 0.12409436 1975840
0.36884007 -0.017218294 0.12846589 1975068
0.37121555 -0.014820013 0.12420996 3487793
0.37764287 -0.0086528128 0.12248942 12698039
0.38377035 -0.003560357 0.12492291 12895932
0.38618699 0.0046281079 0.12507367 12237489
0.38776898 0.01465126 0.12525637 11974574
0.38734147 0.024820833 0.12518078 12632248
0.38534299 0.034966052 0.12498701 13092800
0.38457224 0.045224998 0.12525028 13816779
0.38369894 0.054950252 0.12523516 14342867
0.38413095 0.06495209 0.12509581 14474454
0.38528275 0.074906752 0.12477025 14408917
0.3862617 0.084595539 0.12509678 14079953
0.39033335 0.088255614 0.12100624 14474713
0.38812909 0.091955788 0.12636505 13817038
0.39180288 0.095324971 0.12412544 12698302
0.39281824 0.10111578 0.12814023 2499359
0.42587721 -0.11297682 0.13459218 12829371
0.42479974 -0.10516826 0.1350649 12829626
0.42202282 -0.094979547 0.13465284 12040112
0.41900009 -0.084220529 0.130439 11974574
0.42099997 -0.085170567 0.13544531 11842987
0.41797724 -0.073165447 0.13390048 11776937
0.42078727 -0.076847278 0.13659252 11710887
0.40687883 -0.062592521 0.13653286 12237492
0.41350007 -0.066955879 0.13439575 12565943
0.39608112 -0.053033244 0.13349786 12434102
0.40147617 -0.057786062 0.13572557 12303028
0.38396299 -0.043165468 0.13332514 12171186
0.3908 -0.048850324 0.134344 11776685
0.36800003 -0.030721838 0.13420285 2369569
0.37531427 -0.033176132 0.13272046 6974051
0.3807058 -0.037676681 0.13348486 11052959
0.36739665 -0.025061026 0.13187075 1711897
0.37066671 -0.029383004 0.13101082 2435363
0.36776602 -0.016053123 0.13176203 2106655
0.37112501 -0.011280836 0.13182557 6448222
0.37742317 -0.0077919187 0.13394484 10264473
0.38224241 -0.0034633328 0.13371755 11777453
0.38544443 0.0046310541 0.13438959 10987938
0.38740367 0.014735248 0.13484372 10987682
0.38630971 0.024925265 0.13452528 11053475
0.38502678 0.035176739 0.134804 11514028
0.38423771 0.044457685 0.13359718 12566715
0.39000002 0.047602173 0.13967092 9541008
0.38257143 0.054916251 0.13242525 13487817
0.39033332 0.053581242 0.13887654 11975092
0.38222411 0.06454806 0.13272285 13487560
0.3846364 0.075442523 0.13278109 12434873
0.39154547 0.077789679 0.13889216 9606029
0.38606411 0.084961161 0.13371246 11382440
0.39075002 0.082109608 0.13879623 8685440
0.38794875 0.092811458 0.13372064 12830143
0.391 0.097570084 0.13457674 12105654
0.39213052 0.10086612 0.13412656 5525328
0.42600003 -0.11105802 0.141095 12040114
0.42668423 -0.10423585 0.14366563 11974061
0.42499992 -0.095591769 0.1430407 11908524
0.42282161 -0.0851686 0.14294232 10790044
0.41820002 -0.071921073 0.14115433 10790304
0.42135721 -0.077017702 0.14209333 10790303
0.40675002 -0.06414558 0.14043102 10329750
0.41400003 -0.068874896 0.14070365 11184805
0.36470002 -0.030958647 0.1460668 1120274
0.36436993 -0.024809388 0.14637387 857101
0.3634212 -0.015801296 0.14685479 1709842
0.38800001 0.018140594 0.14107406 8158581
0.38860005 0.025056779 0.14098899 7632753
0.39261538 0.028409736 0.14450087 9014145
0.38866669 0.035306714 0.14162028 8487804
0.39271429 0.033320587 0.14494839 9211267
0.38880002 0.042904772 0.14160796 9539979
0.3933 0.04763953 0.14283586 9408396
0.39535415 0.054833367 0.14338517 9474958
0.39767399 0.064768948 0.1448117 10593181
0.39589587 0.07472425 0.1434073 9803922
0.39287508 0.081922136 0.14167939 9474957
0.36505565 -0.032239087 0.15667297 2369828
0.37014288 -0.030826688 0.15508878 923411
0.36612508 -0.024827419 0.15643014 659722
0.37059376 -0.02712721 0.15557601 791565
0.36403197 -0.015204198 0.15538417 2169362
0.36210728 -0.032412775 0.16375633 1646360
0.36284122 -0.024885861 0.16518658 1120529
0.36424085 -0.016134327 0.16508432 1185036
0.34872729 -0.033282939 0.17936431 1778202
0.35560784 -0.0323181 0.17855771 922893
0.36190176 -0.032758955 0.17398815 1186322
0.3475484 -0.024558507 0.17963289 1317651
0.35560018 -0.025098201 0.17802893 857614
0.36080897 -0.024758337 0.17317501 1515287
0.34900001 -0.019086812 0.1797276 1251858
0.35586208 -0.018785058 0.17922567 726028
0.36177897 -0.016191678 0.17503658 1054224
0.34382901 -0.03344202 0.18454339 1515285
0.34335279 -0.02506269 0.18478993 1449492
0.34341922 -0.016804386 0.18488772 1317907
0.35431817 -0.015829053 0.18075763 1120530
0.36106256 -0.012191316 0.18274194 1053967
0.36100003 -0.0085031623 0.1842735 6054233
0.34000006 -0.03266089 0.19131362 1383446
0.34000006 -0.02496217 0.19140971 1383445
0.34000003 -0.017523136 0.1912566 1514516
