# .PCD v0.7 - Point Cloud Data file format
VERSION 0.7
FIELDS x y z rgb
SIZE 4 4 4 4
TYPE F F F U
COUNT 1 1 1 1
WIDTH 677
HEIGHT 1
VIEWPOINT 0 0 0 1 0 0 0
POINTS 677
DATA ascii
0.80781823 0.19229688 -0.21510644 13026748
0.81518179 0.19786833 -0.21515808 11973546
0.82376927 0.20602414 -0.21527706 4998973
0.80781823 0.1921245 -0.20479213 12960953
0.81333333 0.1972263 -0.20525089 11315103
0.81900007 0.20349842 -0.20135282 4932407
0.82140005 0.20640394 -0.2048291 5261629
0.82685715 0.21208782 -0.20467174 5064249
0.80735719 0.19318165 -0.19390151 11907496
0.81100005 0.19676502 -0.19748901 9406079
0.81536365 0.20433129 -0.19491102 4932409
0.82025003 0.20860986 -0.1968593 5129787
0.80766672 0.20162897 -0.18596363 4998459
0.81100005 0.20404285 -0.18862747 4866873
0.80759263 0.1854683 -0.16528462 12565939
0.81000006 0.18704051 -0.16121566 12697525
0.80775005 0.19432034 -0.16785762 9735813
0.8132 0.19558686 -0.16387723 11512224
0.82000005 0.19990763 -0.16128634 6379603
0.81466675 0.20263162 -0.16764823 5063995
0.82246667 0.2060319 -0.16356412 5327168
0.82775003 0.21197048 -0.16329354 5327424
0.83000004 0.2140038 -0.16325325 5656389
0.80722731 0.17360397 -0.15525264 12435124
0.81000012 0.17850749 -0.15363076 12435124
0.8111937 0.18465281 -0.15495643 12500403
0.8156001 0.19387585 -0.15497756 12697012
0.82000005 0.19942772 -0.15696716 7563875
0.82336855 0.20540099 -0.15545648 5327170
0.83100003 0.21280318 -0.15810129 5525061
0.81000006 0.17850749 -0.14983831 12435125
0.8083334 0.18465889 -0.14175054 12369332
0.81057149 0.18554644 -0.145879 12369332
0.81395459 0.19480172 -0.1449427 11249568
0.81800008 0.2026124 -0.14302085 5459011
0.82022232 0.20444226 -0.14660947 5524291
0.80719995 0.18514925 -0.13427977 12303539
0.81000006 0.18988484 -0.13846098 12303539
0.80900002 0.19154428 -0.13071449 12894906
0.81231254 0.19482848 -0.13564849 11249824
0.81793344 0.2028518 -0.13534933 5327168
0.81999999 0.20630641 -0.1363311 5327424
0.80762506 0.19192865 -0.12411188 13026492
0.811625 0.1957303 -0.12662895 9998732
0.81599998 0.2017988 -0.12420678 5063998
0.48087499 -0.064012565 -0.11147028 16579833
0.47820002 -0.054813374 -0.11107387 16711675
0.48019999 -0.057177387 -0.11243735 16777210
0.4758333 -0.045239966 -0.11067262 16580090
0.47500002 -0.038024243 -0.11047848 15000805
0.47788891 -0.071819529 -0.10307202 16514296
0.48040003 -0.076207466 -0.10168719 16579576
0.46900001 -0.06023464 -0.10103142 16711673
0.47522646 -0.064899281 -0.1046488 16645881
0.48000002 -0.067265838 -0.10901948 16711675
0.46812502 -0.054164369 -0.10132328 16645880
0.4734666 -0.055241883 -0.1062129 16645882
0.46783331 -0.044752177 -0.10132894 16580087
0.47240013 -0.045192502 -0.10619332 16645882
0.46858335 -0.03577172 -0.10121614 16645880
0.47175995 -0.035076886 -0.10560747 16448502
0.46900004 -0.026061339 -0.10116866 16053743
0.4705835 -0.025341254 -0.10412978 15066592
0.47058341 -0.016047318 -0.10132647 15855851
0.47412503 -0.0070526609 -0.10116275 13092289
0.48200002 0.0046696118 -0.10044675 11644587
0.47525001 -0.080505833 -0.092924759 15789035
0.46900001 -0.070665047 -0.090601012 16580087
0.47477791 -0.074811451 -0.094628982 16447989
0.48025003 -0.07910604 -0.098395944 16578807
0.46615908 -0.063717194 -0.094299793 16645881
0.47158831 -0.067777932 -0.097174786 16580088
0.45900005 -0.052503154 -0.090639189 16711673
0.46316126 -0.055393983 -0.095339395 16645880
0.45888242 -0.045221798 -0.090763532 16711673
0.46296546 -0.045014199 -0.095963627 16645880
0.45900002 -0.037459772 -0.09028101 16711415
0.46340281 -0.034711294 -0.095104359 16514037
0.46589339 -0.024842804 -0.095151037 15987693
0.46761221 -0.015707638 -0.093431503 15592935
0.47017404 -0.01410786 -0.097982548 15790058
0.46876922 -0.0071071135 -0.091442958 15526885
0.47221431 -0.0050122878 -0.095747054 15592936
0.47505882 0.0045456998 -0.09275724 15132382
0.48086664 0.0072855665 -0.097660109 13750218
0.47721744 0.013563523 -0.091680735 15066588
0.48079994 0.014516669 -0.095335521 14474195
0.47900003 0.020900089 -0.090850785 15197661
0.48145828 0.025146516 -0.092350505 15460833
0.48696306 0.034277555 -0.092488021 15000284
0.49066672 0.038320914 -0.094340198 13553094
0.49597508 0.045248892 -0.094390705 14079436
0.49861544 0.051162567 -0.093404457 14474452
0.46579999 -0.080542132 -0.082899623 15460325
0.47050002 -0.080253378 -0.08868847 16250097
0.4652414 -0.075041391 -0.084287517 16448246
0.47000003 -0.077234007 -0.088960402 16316147
0.45751426 -0.06369023 -0.08338204 16645881
0.46203229 -0.066253312 -0.087076381 16645881
0.45481431 -0.054841448 -0.084602036 16645880
0.46000001 -0.059078749 -0.089400835 16711673
0.45407701 -0.044902477 -0.084458552 16645623
0.45658576 -0.035227668 -0.084898248 16447986
0.46000001 -0.03081096 -0.089131616 16184556
0.45817384 -0.025802078 -0.082846127 15921898
0.46145722 -0.02413892 -0.087464079 15921898
0.45900005 -0.017446704 -0.081013218 15658727
0.46281254 -0.014693971 -0.08550287 15658982
0.46497309 -0.0052883616 -0.084874563 15526627
0.46724072 0.0041664112 -0.083763495 14935002
0.47088248 0.005472973 -0.088533767 14803673
0.46882758 0.013928833 -0.081957832 14605523
0.47158337 0.01533172 -0.085677393 14671574
0.4737193 0.0243946 -0.084376171 15066074
0.48000002 0.026000321 -0.089542203 15592419
0.47568962 0.034487534 -0.082699217 15395553
0.48275003 0.035475019 -0.08751598 14934489
0.47672731 0.04236085 -0.082204029 15789798
0.48400006 0.043224096 -0.085949697 15263454
0.49200001 0.046616871 -0.088900916 15329247
0.49850002 0.052093446 -0.089881316 15526372
0.45700002 -0.080445416 -0.073132969 16118511
0.46300003 -0.080057986 -0.079144977 15986925
0.4558773 -0.074894525 -0.073854633 16382197
0.46066666 -0.076240741 -0.078476891 16382197
0.44843483 -0.063117392 -0.072411552 16645881
0.45286369 -0.066070482 -0.075899221 16580089
0.44760287 -0.054682415 -0.074546926 16645880
0.45025003 -0.056773376 -0.078810222 16711673
0.44780299 -0.045391012 -0.074392602 16645623
0.45050007 -0.042248972 -0.078590751 16645623
0.44869459 -0.036646478 -0.072323769 16513267
0.45171699 -0.034089878 -0.076582946 16316144
0.45382929 -0.024918873 -0.075044259 15855337
0.45639476 -0.014763217 -0.074764691 15789543
0.46000001 -0.011158114 -0.079709023 15724521
0.45834082 -0.0060191066 -0.073156573 15592165
0.46093553 -0.0044072219 -0.077540204 15526883
0.45900005 0.0018372218 -0.071246527 15197407
0.46329334 0.0054190457 -0.075486153 15000283
0.46605271 0.01522743 -0.075025678 14868440
0.46749207 0.025081787 -0.074482299 15000026
0.47000006 0.027170191 -0.078996763 15197659
0.4683333 0.034772236 -0.07281553 15526885
0.47055265 0.035693321 -0.07739415 15460835
0.46866667 0.043428648 -0.072129451 15592165
0.4708572 0.043258693 -0.077184811 15263455
0.48699999 0.054314476 -0.072038718 14277329
0.49116671 0.057843734 -0.073614024 14803673
0.49486667 0.062645346 -0.072619647 14408915
0.45315391 -0.081375033 -0.065307848 15657447
0.44741035 -0.073471807 -0.063324675 16447732
0.45170009 -0.076274186 -0.067029849 16381939
0.43900001 -0.060492504 -0.060654528 16711673
0.44414476 -0.064859271 -0.065123573 16580088
0.43900007 -0.054424144 -0.061290722 16645880
0.44214076 -0.055006739 -0.066222355 16645880
0.43900007 -0.047866393 -0.06109497 16645623
0.44271973 -0.044709474 -0.065587349 16579574
0.44569319 -0.034801096 -0.064813487 16381681
0.44752541 -0.025493743 -0.063685164 15724008
0.45059097 -0.024162112 -0.068681769 15658215
0.44875008 -0.016497817 -0.062494703 15395556
0.45168 -0.014421237 -0.066618331 15526886
0.44900003 -0.0093146143 -0.060985066 15592935
0.45324987 -0.0049601751 -0.065022133 15329507
0.45512798 0.0047595017 -0.064841457 15000285
0.46000001 0.0098408163 -0.068940334 14868442
0.45660371 0.014791058 -0.063618712 14868442
0.46110526 0.016172519 -0.068368688 14868442
0.45739025 0.024516612 -0.062990263 14935005
0.46241382 0.025497843 -0.067961648 15000541
0.45858836 0.033177696 -0.061403584 15329763
0.46335486 0.035475031 -0.066093169 15461092
0.46490911 0.042797774 -0.065753192 15329505
0.47100002 0.047565203 -0.063973196 13224641
0.48539591 0.055276841 -0.064464234 14343122
0.49025002 0.058978047 -0.066587225 14540758
0.48820001 0.06164638 -0.061052389 14606552
0.49268571 0.063301526 -0.06606745 14211793
0.44660002 -0.081055418 -0.055929765 15525860
0.4386 -0.071732566 -0.051359028 16381938
0.44367164 -0.07562124 -0.05551064 16184303
0.43710136 -0.064489618 -0.054600503 16645880
0.44030774 -0.067412861 -0.058377683 16580087
0.43559775 -0.05504195 -0.055060409 16645880
0.43644047 -0.045394771 -0.054934509 16579830
0.44016668 -0.041246232 -0.059441935 16382451
0.43755102 -0.03564455 -0.053141806 16185072
0.44121215 -0.034533944 -0.057550438 16184815
0.43865225 -0.026600176 -0.051365059 15658728
0.4426716 -0.024693973 -0.056018613 15592678
0.44508895 -0.014958099 -0.05525507 15461092
0.44692096 -0.0052230945 -0.055206325 15329507
0.44742244 0.0047918824 -0.054138865 14803418
0.45046151 0.0062321997 -0.058750179 14671833
0.44766662 0.014513056 -0.052642677 14737111
0.45187885 0.015407114 -0.057788704 14737110
0.44830561 0.024459094 -0.051796786 15000542
0.45283017 0.025210107 -0.056990013 15066590
0.44900003 0.031854142 -0.050824266 15263972
0.45439139 0.035331909 -0.055315197 15395557
0.45613328 0.042255718 -0.054774575 15132383
0.46000001 0.043223735 -0.059248526 15789798
0.48206252 0.055915318 -0.056802213 14408915
0.48423809 0.062181573 -0.055743545 14605782
0.4390001 -0.081046633 -0.042867295 15525860
0.44025004 -0.081405878 -0.047043614 15722469
0.43618298 -0.074623138 -0.044754237 16381681
0.44020003 -0.077971086 -0.049278639 16052203
0.42846662 -0.062585823 -0.041212212 16645880
0.43201298 -0.065377027 -0.045630027 16580087
0.4280858 -0.055437572 -0.04193987 16645878
0.43091536 -0.054882478 -0.046974216 16645623
0.42835715 -0.045700725 -0.041241985 16645622
0.43131509 -0.044410501 -0.046251044 16579573
0.42900002 -0.037522163 -0.040191237 16447728
0.43214872 -0.034716781 -0.045145962 16316145
0.43494448 -0.02479808 -0.044831656 15592422
0.43722567 -0.015226629 -0.043741804 15592421
0.44092861 -0.013641588 -0.048388187 15461349
0.43754289 -0.0049491166 -0.042516198 15460834
0.44197571 -0.0052059474 -0.04772066 15263969
0.43802783 0.0044156741 -0.042406131 14606040
0.4424201 0.0048042284 -0.047253471 14737626
0.43878266 0.014434554 -0.041063353 14605526
0.4424924 0.015506932 -0.045813236 14671062
0.43900001 0.020696336 -0.040100388 14935005
0.44370002 0.025129059 -0.044745844 15132128
0.44643742 0.03474132 -0.044550609 15461093
0.45050004 0.03793776 -0.04923673 15395557
0.44777781 0.041492887 -0.044054765 14671320
0.45228577 0.043793947 -0.04614567 14737626
0.46100003 0.049792953 -0.042650752 14606297
0.46500003 0.051313575 -0.040298212 14672090
0.47661537 0.057746667 -0.043755524 14408918
0.47756255 0.061922163 -0.043417893 13619403
0.48028573 0.062316623 -0.048369732 14013390
0.43760005 -0.082019083 -0.038334262 15328995
0.42746672 -0.073647842 -0.032611731 16316144
0.43221742 -0.075555742 -0.037131678 16118766
0.42539275 -0.064918317 -0.034727354 16514292
0.43000001 -0.068815395 -0.039278284 16316915
0.42358756 -0.054831751 -0.035003319 16645877
0.42394552 -0.045103692 -0.034874413 16579828
0.42614943 -0.035394505 -0.034808766 16250864
0.43000001 -0.031267811 -0.039076958 16184302
0.42663509 -0.025654025 -0.033681318 15658728
0.43057141 -0.023905039 -0.038323343 15658215
0.42771432 -0.015851077 -0.032291386 15526885
0.43169081 -0.014686087 -0.037049808 15592165
0.42853844 -0.0072678095 -0.03057918 15395556
0.43242186 -0.0049201963 -0.035534203 15329250
0.42899999 0.0053613042 -0.030148271 14540247
0.43273669 0.0046626739 -0.035222642 14802905
0.43463042 0.014812297 -0.034736853 14539733
0.43632498 0.024900913 -0.034286283 15132384
0.44025004 0.026939945 -0.038926426 15132384
0.43763417 0.034228187 -0.032782417 15460580
0.44217652 0.036195118 -0.037349418 15395043
0.44628578 0.042635482 -0.037433747 13882317
0.45370588 0.047637548 -0.035438571 13685194
0.45880002 0.05127411 -0.031598236 14672088
0.4641667 0.056176834 -0.033140641 14343123
0.47157145 0.057718378 -0.038187239 14343129
0.46650001 0.060487337 -0.033062778 13948107
0.47175002 0.061445929 -0.037019338 12961473
0.42427272 -0.080674931 -0.024041194 15263456
0.42386946 -0.074902304 -0.025342066 15921641
0.41778377 -0.063703731 -0.02222475 16447726
0.42146558 -0.065870449 -0.026730815 16382191
0.41690809 -0.054855812 -0.023756243 16513778
0.42050007 -0.055520691 -0.028832147 16645620
0.41662869 -0.044950638 -0.023516238 16448241
0.42052007 -0.044202767 -0.028765472 16382705
0.41740814 -0.035817914 -0.022376193 16250863
0.42140359 -0.034353711 -0.027194625 16119534
0.41840011 -0.025654843 -0.020914823 15592935
0.4224591 -0.024936179 -0.025974834 15658728
0.41900003 -0.01801068 -0.020617537 15461349
0.42319974 -0.015139734 -0.025435673 15461092
0.42396665 -0.0053199474 -0.02484503 15263457
0.42491117 0.004615874 -0.024900492 14671576
0.42621213 0.013763562 -0.024426835 14473941
0.43033332 0.016707039 -0.02839556 14474198
0.42729729 0.024202747 -0.022353303 15066591
0.43149018 0.025277479 -0.027099093 15132384
0.42869997 0.032054193 -0.020593394 15198177
0.43224993 0.035180308 -0.025124703 15132383
0.44690004 0.046288572 -0.02303426 13685194
0.45111117 0.049076781 -0.02407849 14014161
0.456375 0.054042526 -0.023028571 14211539
0.46188 0.058237012 -0.026147641 14343124
0.46337038 0.062344167 -0.024129502 11843245
0.42225003 -0.081538707 -0.014106872 15329504
0.41745654 -0.07305599 -0.014001596 16118763
0.4209789 -0.077091627 -0.016543955 15855591
0.41466671 -0.064958058 -0.015069956 16381934
0.40900001 -0.05133187 -0.010790076 16250349
0.41268033 -0.055114981 -0.015175466 16447985
0.40899995 -0.045473624 -0.010953855 16381935
0.41195342 -0.04477714 -0.015702689 16316655
0.40900001 -0.039124049 -0.010550707 16316912
0.41301996 -0.035005663 -0.015135288 16053483
0.41461119 -0.025007658 -0.015002577 15526883
0.41591904 -0.014999673 -0.015077862 15460834
0.42000002 -0.010679457 -0.019683514 15789544
0.416706 -0.0053492007 -0.014429463 15065820
0.42000005 -0.0045834468 -0.01935577 15065821
0.41701239 0.0047272881 -0.013908605 14671317
0.42064294 0.0057290299 -0.018764779 14671063
0.41778049 0.014425985 -0.012496948 14474196
0.42136678 0.015936878 -0.017236121 14408660
0.41900003 0.021061301 -0.011135633 14803419
0.42251605 0.025315803 -0.015333243 15000798
0.42562166 0.034409035 -0.014960949 15132382
0.42999998 0.039062608 -0.018138895 14342609
0.42900002 0.04031083 -0.012070931 13553609
0.43558332 0.042807709 -0.013184187 14013903
0.44467643 0.047540911 -0.01488981 13816780
0.45000002 0.049658295 -0.018455835 14540504
0.44579417 0.053338803 -0.012827629 14211539
0.45353848 0.054550365 -0.017787276 14277332
0.46000001 0.060453627 -0.019404398 11711407
0.41807151 -0.081727624 -0.0019781415 15329504
0.42151177 -0.083854727 -0.0053920494 15066076
0.4086 -0.071608379 -0.00097569113 15987178
0.41419998 -0.075106926 -0.005137186 16052970
0.42025 -0.079306901 -0.0091196829 15526626
0.40722689 -0.064289749 -0.0033422264 16316141
0.41114712 -0.06622538 -0.0080600297 16316141
0.40585434 -0.054871563 -0.00468738 16250605
0.41000003 -0.05889596 -0.009616686 16710898
0.40575653 -0.045121666 -0.0047079311 16185069
0.40636274 -0.035225522 -0.0044670701 15922154
0.41028574 -0.03211128 -0.0093491543 15922154
0.40674394 -0.025274884 -0.0034761908 15395810
0.41090629 -0.024243772 -0.0086470321 15395297
0.40757364 -0.015371235 -0.002520571 15198175
0.411551 -0.014554093 -0.0077488604 15395296
0.40762016 -0.0051161051 -0.0019302209 14869466
0.41204986 -0.0051702228 -0.0072576222 15066075
0.40764993 0.0051435214 -0.0014526893 14540246
0.41241577 0.0049621062 -0.0067838631 14671574
0.40851855 0.014088697 -0.00097548799 14342867
0.41345793 0.015424974 -0.006128951 14342866
0.40900001 0.020239487 -1.8466952e-05 14671833
0.41540244 0.024154488 -0.0041832277 14868699
0.4204092 0.027604835 -0.008474634 15066591
0.41776195 0.032270141 -0.001604289 15263456
0.42150852 0.034425907 -0.0067461273 15066591
0.43785369 0.046496663 -0.0062978095 14014160
0.44000003 0.049584828 -0.0092902975 14145746
0.43896163 0.051760279 -0.0041701747 14211539
0.44013497 0.054668296 -0.0045326585 13685195
0.4086667 -0.080868408 0.0092293499 15460579
0.41330954 -0.083215341 0.0054757078 15197407
0.40605345 -0.074158907 0.0056895679 15987178
0.41139999 -0.078328289 0.002805941 15723751
0.39850003 -0.062026113 0.0089609819 16513520
0.40245152 -0.065224595 0.0048050545 16316141
0.39788896 -0.054289896 0.0077836071 16184554
0.40093443 -0.055341735 0.0033330065 16316140
0.39781657 -0.045028422 0.0075248922 16119274
0.40066096 -0.044667777 0.0029842842 16053483
0.39796874 -0.035127919 0.0083944798 15921896
0.40161642 -0.034912035 0.0036593149 15790310
0.39866677 -0.025613284 0.0086921463 15264224
0.40169874 -0.024930367 0.0042230524 15330017
0.39890909 -0.0148118 0.0093205217 15132382
0.40208247 -0.014880943 0.0047360463 15198175
0.39870596 -0.0040995567 0.0088762129 14671833
0.40225303 -0.0052356268 0.0043737832 14869212
0.39857149 0.0029963504 0.0089124842 14408661
0.40235424 0.0051075048 0.004592956 14539990
0.40448079 0.015011207 0.0052849101 14342868
0.40629134 0.024355393 0.0060635605 14671834
0.41141179 0.026255585 0.0016237171 14868955
0.40700004 0.03212034 0.0082815345 14672091
0.41428575 0.034577303 0.004189298 14737626
0.42050001 0.039512131 0.0039168503 13619401
0.41800004 0.041430958 0.0093742283 13553352
0.42426798 0.044479527 0.005717007 13882572
0.43185714 0.047875587 0.002722502 14145488
0.42800003 0.050236426 0.0079963217 14145743
0.43608889 0.053866941 0.0042087086 13816778
0.40501443 -0.0835969 0.015417232 14802649
0.41000003 -0.085290946 0.01053948 15263200
0.39702183 -0.073178753 0.016931092 15790055
0.40133893 -0.076167837 0.013385834 15592419
0.39525685 -0.064798497 0.014934583 16119019
0.40000001 -0.06846226 0.010516521 15987176
0.39388901 -0.055041134 0.014834674 15987946
0.39393413 -0.045059778 0.014726387 15790567
0.39414862 -0.034934957 0.014732789 15527396
0.3941443 -0.024879972 0.014825011 15132382
0.39431897 -0.014839636 0.014616585 14935004
0.39415902 -0.005153703 0.014918971 14671576
0.39494133 0.0047140801 0.014799327 14276818
0.40000001 0.0094936397 0.010282419 14211282
0.39554065 0.014906116 0.015512988 14474454
0.40005007 0.015535939 0.010705088 14342869
0.39597553 0.024829911 0.016398657 14803420
0.4009999 0.025388418 0.011486867 14737371
0.39603224 0.032756791 0.017413946 14737884
0.40212005 0.032253329 0.012064026 14672092
0.41400003 0.038901363 0.010642304 12961215
0.41709679 0.044645261 0.013304505 14013645
0.42083335 0.048492972 0.016317599 14079696
0.42254844 0.052373819 0.016695414 13619144
0.43033338 0.054204423 0.010390297 13553352
0.39687502 -0.081670336 0.026764207 14868697
0.40117392 -0.083294153 0.022192447 14802649
0.38877779 -0.071572937 0.028499424 15657955
0.39369148 -0.075209461 0.024563333 15395041
0.40000001 -0.079465047 0.020582898 15394273
0.38819718 -0.064884834 0.027421443 15789798
0.39105183 -0.065378755 0.022156022 15855590
0.38737908 -0.055128906 0.026417073 15789797
0.39028567 -0.05492837 0.021100365 15790055
0.38710999 -0.044950549 0.026136328 15592932
0.3904286 -0.045148823 0.020840423 15724261
0.38699055 -0.035130359 0.02590617 15330017
0.39043996 -0.035044797 0.020711806 15395809
0.38677275 -0.025227413 0.025776749 15066332
0.39042854 -0.024768587 0.020525137 15132638
0.38673928 -0.01514806 0.025557073 14803673
0.39012498 -0.015971204 0.02041713 14869466
0.38659659 -0.0053736456 0.025387328 14408659
0.39007694 -0.0047197347 0.02021274 14540247
0.38667884 0.0046191914 0.025807628 14211280
0.39082611 0.0048618647 0.020626975 14276305
0.38656196 0.014834123 0.026215008 14474198
0.39087102 0.014679058 0.020967608 14473940
0.38630989 0.024993533 0.02619781 14868700
0.39157575 0.024879631 0.021064533 14934493
0.38620004 0.032127593 0.027248481 14539992
0.39247498 0.033942487 0.022352757 14342611
0.40429631 0.045883551 0.028268099 14145489
0.41600007 0.048268586 0.024039689 14014415
0.42060003 0.048974089 0.021445336 14146000
0.40625 0.050536636 0.02803232 11119010
0.41575003 0.050986852 0.024669899 14014159
0.42075002 0.051848207 0.021650052 13750731
0.38900003 -0.080011725 0.039140645 14539477
0.39249998 -0.082969017 0.034923103 14473940
0.38688236 -0.073943868 0.035669945 15329503
0.39140001 -0.078033097 0.032568205 14934489
0.38387373 -0.064988859 0.035012528 15592676
0.38290077 -0.055043649 0.034932133 15395554
0.37900004 -0.041577786 0.039908949 15131868
0.38258722 -0.044949844 0.034973219 15526626
0.37900004 -0.033869844 0.03963168 14803673
0.38199985 -0.034927756 0.03474291 15198174
0.37851223 -0.024429129 0.038624596 14606294
0.38176924 -0.025018848 0.033623576 14869210
0.37834781 -0.014800266 0.038414337 14474708
0.38163957 -0.015138322 0.033407956 14606294
0.37822011 -0.0049957498 0.038231451 14145488
0.38173172 -0.0053573861 0.033259377 14342610
0.37820837 0.0049929977 0.038496364 14013903
0.381758 0.0049869376 0.033523541 13947852
0.37835419 0.015309859 0.03832664 14211282
0.38142353 0.015164979 0.033278309 14277075
0.37853858 0.024594836 0.038700517 14671575
0.38138708 0.025267376 0.03367516 14802906
0.37900004 0.030584872 0.039613198 14605524
0.38183019 0.03252342 0.03515536 14408403
0.40129304 0.0464474 0.034256384 13816524
0.40090004 0.050527059 0.03488718 11119266
0.38649139 -0.082351997 0.045480762 14539988
0.39060003 -0.084823169 0.041221272 14145232
0.37900001 -0.070856899 0.049668655 15395040
0.38317537 -0.074834898 0.045015492 15066331
0.37818316 -0.064034089 0.04692851 15395553
0.38077042 -0.065825962 0.042373247 15526626
0.3776201 -0.054837871 0.045972876 15329760
0.38054538 -0.055111147 0.040961768 15526626
0.37667748 -0.044645932 0.045519534 15263709
0.38021436 -0.047497325 0.040545154 15263711
0.37626493 -0.035112355 0.045333441 14935002
0.37561277 -0.025008159 0.045193575 14540501
0.37501496 -0.014882461 0.045249403 14539989
0.37446231 -0.0051393276 0.045117743 14013901
0.3744863 0.0049438002 0.045120161 13750473
0.37493947 0.015043951 0.0451761 14210769
0.37553614 0.024968049 0.045361467 14473939
0.37633342 0.0315434 0.044924438 14474195
0.38000003 0.0330378 0.040014252 14013643
0.39000002 0.0393852 0.048371229 13422022
0.39257815 0.044983931 0.0469894 13816781
0.40040007 0.048057985 0.041161831 13553351
0.39700001 0.050315343 0.044590175 10856091
0.40000001 0.050695557 0.041183855 11053472
0.37900001 -0.080616601 0.05898473 14211025
0.38247055 -0.083002165 0.054788277 14342353
0.3770805 -0.074013226 0.056169115 14934746
0.38126314 -0.077388428 0.052475069 14868953
0.37497038 -0.064955629 0.054926049 15197917
0.37421986 -0.055072706 0.054732293 14935002
0.37278134 -0.04512104 0.055017389 14869209
0.37186435 -0.035000205 0.055353329 14606038
0.37128782 -0.025087947 0.055171281 14277072
0.36891666 -0.011827886 0.058998644 13487558
0.37081793 -0.015360666 0.054721635 14079694
0.36840394 -0.0045916508 0.05781522 13684681
0.37072524 -0.00539114 0.053084005 13750472
0.36843666 0.0047972589 0.057369515 13553349
0.37071261 0.0049582277 0.052527614 13619142
0.36877155 0.014376785 0.05821858 13948110
0.37090448 0.015223143 0.053684223 14013902
0.37165049 0.024953727 0.055190772 14276818
0.37485465 0.032897677 0.054899994 13816522
0.38900003 0.039284214 0.051889829 13553863
0.38879165 0.041994065 0.057966921 14080207
0.39098802 0.045046441 0.054027669 13751244
0.37808335 -0.08206404 0.065052696 14276561
0.38128573 -0.086334467 0.065550908 13947597
0.37385607 -0.074896179 0.065130562 14868952
0.36900005 -0.062076643 0.069954023 14868696
0.371526 -0.064995527 0.064684436 15000538
0.37133086 -0.054997914 0.064826906 14868952
0.36899999 -0.042012088 0.068501204 14343122
0.37055549 -0.045535717 0.064422272 14606037
0.36885402 -0.034411233 0.066822089 14211535
0.37014583 -0.035859633 0.06210136 14540500
0.36869079 -0.024912678 0.0660097 13816265
0.36999992 -0.024999272 0.06104875 14146000
0.36805671 -0.014879283 0.065133996 13355714
0.37 -0.018936036 0.060615662 13882571
0.36629131 -0.0049729454 0.064801611 13158335
0.36581179 0.0047755232 0.064991236 13224128
0.36712694 0.015199427 0.064932093 13816523
0.36793816 0.024300039 0.065805689 14145488
0.37043327 0.027611427 0.062420718 14014158
0.36900005 0.030929664 0.06937813 14343122
0.37346056 0.033494491 0.064917982 13750728
0.38100004 0.039145648 0.065611482 14080207
0.38404819 0.043425951 0.064650632 13882829
0.38483334 -0.09026555 0.072503068 13552582
0.37582284 -0.083567515 0.075406387 14144975
0.38182354 -0.087948583 0.073328227 13683912
0.36835718 -0.07315968 0.077837989 15066074
0.37117204 -0.075620249 0.07371629 14802903
0.36824989 -0.064617231 0.075822234 15066074
0.37015781 -0.067152202 0.071131006 15066075
0.36849993 -0.055307031 0.075662866 14802904
0.36999992 -0.054086059 0.070953891 15000024
0.36831191 -0.044944819 0.07521525 14539732
0.36999997 -0.04803957 0.070749924 14802903
0.3682954 -0.034798417 0.074995346 13355970
0.36824363 -0.024945199 0.074912719 12960956
0.37 -0.021101478 0.079671547 12368310
0.36798462 -0.014788405 0.074878871 12171955
0.37 -0.018502949 0.079671547 12039601
0.36483213 -0.0050383708 0.074827999 12303283
0.36339012 0.0048558488 0.075191572 12697784
0.36416847 0.014983803 0.074934006 13619400
0.36532116 0.024998046 0.074947491 14210767
0.36792859 0.031497769 0.073745362 13816265
0.37476084 0.036943071 0.076256402 13684935
0.37815386 0.042104237 0.076929219 13750985
0.38071421 0.042458467 0.072078221 13816778
0.37400001 -0.090059549 0.089288265 13486791
0.3689 -0.081059054 0.087120011 14539476
0.37195957 -0.084348783 0.084995404 14144720
0.3670373 -0.075104892 0.084961198 14539733
0.37 -0.079568401 0.080537722 13421768
0.36598653 -0.064922258 0.085184716 15000538
0.36662436 -0.055016775 0.085066915 14737111
0.36716023 -0.045107733 0.084866375 14473939
0.36833692 -0.036412273 0.08419504 13618629
0.37052175 -0.032104906 0.086253323 11579561
0.36899999 -0.027029594 0.080443457 12237750
0.37070164 -0.024917293 0.085290879 8159354
0.36841822 -0.012129253 0.084114589 10461082
0.37057719 -0.017042419 0.085592225 7303275
0.36518916 -0.0049605742 0.084937319 11447718
0.36159435 0.0048024217 0.085021079 12566198
0.359 0.017645162 0.089789256 14276818
0.36148262 0.014954335 0.084915198 13816523
0.35848489 0.02521609 0.089016683 14539475
0.3616201 0.024828944 0.083993711 14408145
0.35900006 0.030371601 0.08906889 12894646
0.36204764 0.031523924 0.08598496 13487298
0.37335709 0.037814714 0.084987462 13290176
0.37454841 0.041249532 0.083942577 13553605
0.37399998 -0.090059549 0.091914885 13487047
0.36788636 -0.082012326 0.095303647 13882316
0.37104291 -0.086732082 0.094721168 13619145
0.36485901 -0.075108983 0.095017135 14277073
0.36365253 -0.065007612 0.094902083 14277074
0.36457622 -0.054928523 0.095144242 14277329
0.3665145 -0.044873133 0.095075898 14079694
0.36826867 -0.037503839 0.095164545 13684937
0.37072992 -0.032506302 0.094922468 10461081
0.36900002 -0.021908283 0.099324435 2305063
0.37077311 -0.025147637 0.094876342 2304548
0.36870128 -0.013266848 0.096307181 4343363
0.37035847 -0.017040225 0.093295798 2238243
0.36583078 -0.0050247163 0.095083915 11184804
0.35894126 0.0089639397 0.096814632 11711403
0.36122057 0.0043121469 0.094740614 11776940
0.35724521 0.014952559 0.095276274 13027007
0.36000004 0.011746788 0.090581149 13355973
0.35511491 0.024228331 0.095119208 13684937
0.35789999 0.030362118 0.095151141 12565941
0.36508894 0.034999683 0.094975129 12961211
0.37 0.038327858 0.090835601 13290434
0.37 0.040830154 0.090065666 12566711
0.36816671 -0.082096368 0.10216478 13027010
0.37067741 -0.08632157 0.10274321 12302775
0.36531863 -0.0742139 0.10457753 12106676
0.37 -0.079568401 0.10825538 12698300
0.36515331 -0.065191083 0.10486066 10724512
0.36468196 -0.054947793 0.10428146 12238004
0.36711639 -0.044950835 0.10486895 12500663
0.36882994 -0.037595376 0.10499304 11776940
0.37056062 -0.033473171 0.10532983 8619391
0.36805552 -0.024397222 0.10538396 2041890
0.37007138 -0.028531516 0.10196406 2304804
0.36826047 -0.015197151 0.10488509 2699306
0.37 -0.01027427 0.10955463 6579810
0.36695585 -0.0048914528 0.10490508 9737615
0.37 -0.008397554 0.109699 7106152
0.35866669 0.0093522752 0.10158087 9342858
0.36346751 0.0034786728 0.10480704 9935251
0.35574993 0.014704521 0.10130865 9934993
0.35355559 0.023333909 0.10086877 11579562
0.35700002 0.031038145 0.1002731 11842988
0.36800003 -0.06225301 0.11025469 8355962
0.36800003 -0.058893181 0.1102547 7763826
0.36800003 -0.045023121 0.110427 10066582
0.36833334 -0.030635813 0.1109289 2435876
0.37100002 -0.035489053 0.110285 10329752
0.36628464 -0.025589107 0.1140858 1975842
0.36736175 -0.015311053 0.11343616 2173478
0.36812499 -0.0031151664 0.11083028 7237739
0.37021044 -0.0075430959 0.11205791 7303531
0.36550006 0.0022557417 0.11036133 7632497
0.36195242 -0.031112829 0.14520659 1054224
0.36168367 -0.024776604 0.14527644 1054736
0.36119533 -0.015899735 0.14569478 1841427
0.36625004 -0.032059662 0.15669085 2106141
0.36707538 -0.026083145 0.15652445 528392
0.3706601 -0.025650186 0.15702364 528392
0.36390004 -0.015444091 0.15595554 1707785
0.36336553 -0.032727685 0.16353884 1515030
0.36424845 -0.024941051 0.16501436 791820
0.36477575 -0.016209194 0.16512795 1118988
0.35099998 -0.034397591 0.17993587 2501667
0.36352509 -0.032455757 0.17526025 988943
0.35790908 -0.022961183 0.17989448 528137
0.36180118 -0.02496464 0.17511626 1186579
0.35900003 -0.018373074 0.17983486 462604
0.36215386 -0.016688218 0.1755347 988944
0.34637064 -0.033469472 0.18509407 1712152
0.35393947 -0.032920167 0.18060151 1383700
0.36112505 -0.033805687 0.18084475 659464
0.34625784 -0.025022298 0.185148 1514773
0.35418022 -0.025141327 0.1804807 988945
0.36000001 -0.027694684 0.18033578 593930
0.3465834 -0.016859433 0.18586719 1514260
0.35535935 -0.016411347 0.18132596 988690
0.36060715 -0.012000971 0.18368743 1712154
0.79338688 0.10504489 0.2653822 10198418
0.79233336 0.089290254 0.27262884 9803660
0.79140002 0.094742946 0.27508551 10001039
0.7917428 0.10484699 0.27507353 10198161
0.79356003 0.11543935 0.27491078 10263954
0.79100001 0.089139991 0.28235543 9934989
0.79156005 0.094762184 0.28533775 9935246
0.79216135 0.10518451 0.2853739 10132625
0.79339987 0.11541478 0.28506804 10198161
0.79396302 0.11508118 0.29570431 10132369
0.82825005 0.014809519 0.30049956 1843995
0.83443755 0.014673696 0.30689806 1843995
