# .PCD v0.7 - Point Cloud Data file format
VERSION 0.7
FIELDS x y z rgb
SIZE 4 4 4 4
TYPE F F F U
COUNT 1 1 1 1
WIDTH 680
HEIGHT 1
VIEWPOINT 0 0 0 1 0 0 0
POINTS 680
DATA ascii
0.80716658 0.19394429 -0.2263644 10723995
0.81150001 0.19617388 -0.22206612 11776172
0.80766672 0.20131214 -0.2281874 5129532
0.81466675 0.20420447 -0.2238013 4998202
0.8203333 0.2089511 -0.2228052 5130045
0.82050002 0.21155436 -0.22381029 5195838
0.80826926 0.18533126 -0.21545212 12698298
0.81000006 0.18846267 -0.21099155 12698295
0.81313646 0.19538492 -0.21513633 12434356
0.81766683 0.2028497 -0.21633585 4866875
0.82050008 0.20699289 -0.21444678 5195837
0.80760711 0.16454494 -0.20550501 12632504
0.81000006 0.16807824 -0.20103639 12698297
0.80799997 0.17386369 -0.20757902 12632504
0.81076938 0.17590469 -0.20312443 12698297
0.80900002 0.18018098 -0.20836371 12764090
0.81251729 0.1849 -0.20434541 12632504
0.81333333 0.19431853 -0.20551294 12565426
0.81675005 0.20389782 -0.20319296 5260860
0.82050008 0.20803346 -0.20620269 5327422
0.8222 0.21122248 -0.20522079 4997944
0.80772728 0.16425633 -0.1945428 12566711
0.81000012 0.16902636 -0.19724393 12566711
0.80875003 0.17207922 -0.19173311 12632504
0.81133336 0.17545745 -0.19630392 12632247
0.80850005 0.18858625 -0.19120052 12698293
0.81199998 0.18474425 -0.19497767 12632246
0.80850005 0.19237284 -0.19120052 12960695
0.81154555 0.19473687 -0.19624195 10985879
0.81435716 0.20384707 -0.19599304 5195068
0.82000005 0.2095058 -0.19967903 5195325
0.82100004 0.21168327 -0.19992255 5195325
0.80757147 0.20146906 -0.18396123 4800822
0.81033343 0.20260994 -0.18910499 4932409
0.81199998 0.19768608 -0.16323805 7432543
0.80700004 0.20051676 -0.16911882 5064253
0.81491679 0.20295925 -0.16584291 5195582
0.820889 0.20653093 -0.16359541 5524290
0.82475007 0.21120341 -0.16173545 5195325
0.80733341 0.19146532 -0.15564626 12894646
0.81326669 0.19649349 -0.15488586 10524558
0.81800008 0.201335 -0.15227684 5523006
0.82141185 0.20523173 -0.1563613 5392703
0.82700008 0.21194039 -0.15814658 5721925
0.81000006 0.16618203 -0.1403572 12369332
0.8075 0.19367254 -0.14465007 10656659
0.81125003 0.19777505 -0.14674647 7233625
0.81575 0.2017381 -0.14803892 5589569
0.81380004 0.16600719 -0.13529721 12303539
0.80752629 0.17766245 -0.1356483 12434611
0.81057149 0.17293957 -0.13408515 12369075
0.80689663 0.19469504 -0.13493195 8419954
0.80800003 0.20076524 -0.13339023 5129789
0.81386667 0.16741699 -0.12680443 12369075
0.81128007 0.17498982 -0.12538475 12369076
0.80842865 0.18491903 -0.12845907 12369332
0.8106522 0.18525045 -0.12421427 12369075
0.80795634 0.19540755 -0.12511829 7893611
0.81000006 0.19178106 -0.12234306 12237746
0.80699998 0.20051676 -0.12283453 5459011
0.47875005 -0.061207104 -0.11125743 16711675
0.48025003 -0.064490773 -0.11188722 16448245
0.47805893 -0.054815277 -0.11134455 16645882
0.4774119 -0.044816725 -0.11125942 16185075
0.47600004 -0.038290013 -0.11071106 15263973
0.80825001 0.17504689 -0.11214549 12237746
0.8106668 0.1748587 -0.11706812 12369075
0.80808336 0.1854948 -0.11291101 12303539
0.81062514 0.18469295 -0.11769428 12369076
0.80863643 0.19472712 -0.11688821 9341314
0.8106668 0.19446975 -0.11485067 10196882
0.80850005 0.20088947 -0.11833048 5261631
0.8152222 0.2023475 -0.11369038 5459268
0.82050002 0.20579194 -0.11240357 5261890
0.47770005 -0.072201572 -0.10324255 16514296
0.48000002 -0.076929554 -0.10115365 16447990
0.47467804 -0.064527325 -0.1051093 16645882
0.46888891 -0.054733023 -0.10100749 16711675
0.47326916 -0.055072214 -0.10575212 16645882
0.46823525 -0.044532858 -0.10138337 16645882
0.47345656 -0.045387797 -0.10635924 16645882
0.46872729 -0.035658512 -0.1011723 16645881
0.47268629 -0.035105694 -0.10575972 16448502
0.46899995 -0.024734667 -0.10161699 16119280
0.4706088 -0.026196532 -0.10425458 15329509
0.47060007 -0.015652595 -0.10115544 15987694
0.47233334 -0.0094303498 -0.10101285 14342870
0.80720013 0.19225259 -0.10415862 12039600
0.81183332 0.1960181 -0.10615032 7104354
0.81700003 0.20108886 -0.10714314 5064254
0.82040006 0.20461507 -0.10797343 5064767
0.47600001 -0.080077186 -0.094739072 15921132
0.46900001 -0.071214013 -0.090418018 16580089
0.474069 -0.074991986 -0.094727561 16513782
0.48000002 -0.079626411 -0.098906279 16512756
0.46682614 -0.063806579 -0.09436848 16645882
0.47117648 -0.06784761 -0.097220063 16580089
0.45900002 -0.050354101 -0.09028101 16711675
0.46435392 -0.055374425 -0.095407024 16711674
0.45866671 -0.044795293 -0.090982974 16645882
0.46292466 -0.045038983 -0.096130058 16645882
0.45900005 -0.037862722 -0.090683959 16711416
0.46356523 -0.034541149 -0.095262446 16448245
0.46589476 -0.02478737 -0.095205605 15987693
0.46777543 -0.01622748 -0.093776949 15658728
0.4701668 -0.013284463 -0.097430907 15658728
0.46890002 -0.0069826008 -0.090910964 15461603
0.47228578 -0.0052108751 -0.095683202 15592935
0.47525933 0.0043676044 -0.092575416 15198176
0.48139995 0.0068626003 -0.09756273 14013903
0.47704181 0.013604059 -0.091691792 14935003
0.48065001 0.014162588 -0.095272101 14540246
0.47850001 0.020878857 -0.090755954 15262939
0.48149994 0.025054449 -0.092358328 15460833
0.48729172 0.033909276 -0.092613459 15000541
0.49106258 0.037881646 -0.094648324 13290179
0.49436009 0.045000412 -0.094160192 14013644
0.49664706 0.051318727 -0.09419813 13421507
0.46733332 -0.080807269 -0.083720692 15855084
0.47000003 -0.080534846 -0.088410258 16578806
0.46610337 -0.075180642 -0.084443174 16448246
0.47000003 -0.077234007 -0.088960387 16447989
0.45753124 -0.063819677 -0.082965635 16580089
0.46264717 -0.0660825 -0.087114692 16645882
0.45513049 -0.054843422 -0.084606044 16711673
0.4605 -0.058604535 -0.089498013 16711675
0.45383346 -0.044878695 -0.084412217 16645624
0.45678574 -0.035242476 -0.084934182 16447987
0.46025002 -0.030827265 -0.089180201 15987947
0.45829168 -0.025776818 -0.082812421 15986923
0.46131435 -0.024193548 -0.087468021 15921899
0.45900002 -0.018333191 -0.081040084 15789799
0.46297014 -0.014760052 -0.08535926 15724263
0.46538672 -0.0054233414 -0.084660277 15461604
0.46741509 0.0042010569 -0.083723754 14869211
0.47110534 0.0054966519 -0.088600099 14803419
0.46881473 0.01352618 -0.082049564 14605780
0.47148648 0.015546121 -0.085463509 14737111
0.47370183 0.024198035 -0.084352545 15066074
0.48000002 0.025438476 -0.089916766 15855591
0.47580773 0.034086909 -0.082621977 15263968
0.48321745 0.036306936 -0.087180473 15000539
0.47630006 0.042190306 -0.081532009 15592677
0.484 0.043213561 -0.085667998 15263712
0.49200001 0.046618432 -0.089284837 15592419
0.45800003 -0.080265619 -0.074003093 16447476
0.46400002 -0.080230892 -0.079315916 15986925
0.45552838 -0.074600801 -0.073732145 16447989
0.46100003 -0.076559708 -0.078388557 16382453
0.44850001 -0.063430205 -0.071784869 16645881
0.45298082 -0.065603323 -0.076174214 16580088
0.44770473 -0.054613348 -0.074216381 16645880
0.4507333 -0.056343079 -0.078526087 16711673
0.44802973 -0.045360487 -0.074367762 16645624
0.4507001 -0.042267174 -0.078625649 16711416
0.44873545 -0.036651731 -0.07219632 16447987
0.45198184 -0.03421025 -0.076574147 16381681
0.45447546 -0.024849266 -0.075035341 15790056
0.45633337 -0.015047015 -0.074497759 15724007
0.46016669 -0.011879873 -0.079378948 15922154
0.45826304 -0.0060596322 -0.07277561 15592421
0.46135297 -0.0042954641 -0.077119023 15461090
0.45900005 0.0018372217 -0.071246527 15132382
0.46300006 0.0054728026 -0.075488083 15000282
0.46530679 0.015274696 -0.074843645 14868695
0.46751854 0.024799673 -0.074024826 15000281
0.47011122 0.027054867 -0.078343101 15000024
0.4685556 0.035090771 -0.072092168 15526885
0.47095737 0.035645228 -0.076919764 15526627
0.46868747 0.043148708 -0.071271643 15526885
0.47096878 0.043426719 -0.076446079 15263455
0.48715383 0.054726031 -0.072397448 14409172
0.491 0.058206923 -0.075023696 14934746
0.49376923 0.062137678 -0.072312385 14672088
0.45294118 -0.081249788 -0.064957939 15591653
0.44746161 -0.073507026 -0.063385971 16447989
0.45190328 -0.076572858 -0.066978425 16381683
0.44402644 -0.06495183 -0.064997204 16580088
0.43892318 -0.054238148 -0.06155302 16645880
0.44186676 -0.055147283 -0.066418856 16645880
0.4390001 -0.04759945 -0.061401948 16645623
0.44279233 -0.044615168 -0.065709978 16514037
0.44543678 -0.034739897 -0.06482549 16316401
0.44769484 -0.025520083 -0.063708216 15658728
0.45082608 -0.024080653 -0.068621844 15527142
0.44887108 -0.01646352 -0.062425464 15461349
0.45153081 -0.014304033 -0.066444851 15592935
0.45335892 -0.00503289 -0.06493488 15329763
0.4554137 0.0048198928 -0.064920723 14935004
0.45685181 0.014766645 -0.063722573 14868698
0.46088886 0.01633691 -0.06835486 14802905
0.45828563 0.024212608 -0.062401045 15000284
0.46272734 0.025460387 -0.067187726 15000540
0.4587858 0.033980999 -0.060933508 15330019
0.46367738 0.03509552 -0.06589473 15395556
0.46493468 0.043170981 -0.064955704 15197921
0.47000003 0.047464211 -0.063837372 13158851
0.47700003 0.050404459 -0.061996475 13948366
0.48495561 0.055417854 -0.064734384 14277331
0.49025002 0.05926482 -0.066587806 14606039
0.48833337 0.061510414 -0.061374277 14672090
0.49216118 0.06323158 -0.065922484 14277331
0.44769233 -0.081200674 -0.05670058 15460323
0.45000002 -0.083077423 -0.05901397 15854824
0.43883336 -0.071427844 -0.051043469 16250866
0.44374657 -0.075361408 -0.055421799 16184559
0.4373174 -0.064390026 -0.054302037 16645880
0.44026318 -0.067014053 -0.058062956 16580088
0.43585059 -0.055074688 -0.055092499 16645880
0.43619767 -0.045284446 -0.054993082 16514038
0.44000003 -0.041059393 -0.059762646 16316658
0.43759254 -0.035824828 -0.053483602 16185072
0.44106659 -0.034272049 -0.057706181 16119279
0.43855006 -0.027063036 -0.051353298 15724521
0.44272864 -0.024654392 -0.055847924 15592935
0.44508892 -0.014958592 -0.055255529 15461350
0.4468309 -0.0053649624 -0.054939564 15263971
0.45000002 -0.0024878816 -0.05901397 15198177
0.44701573 0.0045964471 -0.054145254 14803420
0.45050004 0.0056849201 -0.058684342 14803418
0.44723397 0.014915746 -0.052841887 14671576
0.45190325 0.015300924 -0.057935603 14802904
0.44774416 0.024814136 -0.05218849 15000798
0.45304781 0.025123015 -0.057399455 15066334
0.44876924 0.03214816 -0.051498886 15329763
0.45380649 0.035566792 -0.055531222 15461348
0.45553854 0.04202513 -0.054335434 15263968
0.46180001 0.044262793 -0.059047747 14606039
0.47700003 0.050404459 -0.059204817 14146000
0.48197141 0.056059819 -0.056599215 14343378
0.48455179 0.062155183 -0.055340454 14277586
0.43900007 -0.080899827 -0.04347714 15460838
0.44000003 -0.081231266 -0.046372026 15132128
0.43626744 -0.074650437 -0.044561852 16316145
0.44037503 -0.077564523 -0.049118053 16052716
0.42866665 -0.06196757 -0.04094113 16645879
0.43218288 -0.065171376 -0.045296624 16580087
0.42802861 -0.055229381 -0.04190582 16580086
0.43093216 -0.054935601 -0.04695921 16645624
0.42823079 -0.045549218 -0.041199364 16645621
0.43131086 -0.044449411 -0.046213005 16514038
0.42900002 -0.03802431 -0.040191237 16381681
0.43212625 -0.034731403 -0.045094755 16250865
0.43495542 -0.024799276 -0.044832569 15527142
0.43708202 -0.015338804 -0.043722637 15527142
0.4409309 -0.013451061 -0.048251405 15461349
0.43814281 -0.004927251 -0.042544708 15394786
0.44197777 -0.0050300169 -0.047619715 15263714
0.4384445 0.0044198404 -0.042445932 14737113
0.44212976 0.0050314763 -0.047406752 14737626
0.43882152 0.014268096 -0.041148484 14539990
0.44207692 0.015236604 -0.046120282 14540247
0.43900001 0.020696336 -0.040100388 15132384
0.44325009 0.025103459 -0.04469857 15132384
0.44651246 0.034696303 -0.044609766 15526629
0.45020002 0.038298335 -0.04913348 15460579
0.44783333 0.041556109 -0.043182541 14474455
0.45113334 0.042601116 -0.047408659 14539990
0.46000001 0.049684942 -0.04201863 14606297
0.46500003 0.051313575 -0.040298212 14672344
0.4762308 0.057529096 -0.043550119 14408918
0.48000002 0.05858729 -0.047216594 14540504
0.4774211 0.061920311 -0.043379921 13553609
0.48036364 0.062618427 -0.047968928 13685194
0.43500003 -0.080817349 -0.037698328 15263202
0.42721212 -0.073718674 -0.032753818 16316399
0.43158546 -0.075049356 -0.037307274 16118765
0.42535001 -0.064839914 -0.034654822 16514292
0.43000001 -0.068563737 -0.039026625 16382708
0.42336079 -0.054853391 -0.034903258 16645877
0.42363435 -0.045095529 -0.034901138 16579827
0.42608413 -0.035539549 -0.034640025 16316143
0.43000004 -0.031849425 -0.038830891 16184301
0.42688534 -0.025646769 -0.033592496 15658727
0.43058622 -0.024224063 -0.038290158 15592934
0.4277778 -0.015770603 -0.032150507 15592420
0.43175444 -0.01473395 -0.036997188 15592677
0.42879996 -0.0069871619 -0.030335074 15460579
0.4325 -0.00513922 -0.035364959 15395040
0.42900002 0.0076711867 -0.030148271 14606040
0.43306118 0.0046421029 -0.035103217 14802905
0.43424445 0.014886888 -0.034596447 14539734
0.43592197 0.024808912 -0.034144484 15132384
0.44044447 0.026952267 -0.038857896 15198177
0.43782353 0.03408844 -0.032428887 15329763
0.44212005 0.035648402 -0.037077524 15395299
0.44668972 0.04324146 -0.037379265 13882574
0.45420003 0.048214309 -0.03745807 13948367
0.45850003 0.054353617 -0.031148048 14474965
0.46600002 0.055245169 -0.035914231 14343125
0.47150001 0.057549804 -0.038379744 14408918
0.47400004 0.062293522 -0.038858894 11579819
0.42375001 -0.080463395 -0.023830213 15460322
0.42325532 -0.074863695 -0.025399996 15921385
0.4178333 -0.063419729 -0.022355301 16513520
0.42127118 -0.065991476 -0.026566925 16382192
0.41724092 -0.054811753 -0.024137301 16514033
0.42027783 -0.056274466 -0.029043568 16580085
0.41713402 -0.045427449 -0.024056116 16448241
0.42033342 -0.043767739 -0.028883511 16448241
0.41749012 -0.03600578 -0.022558078 16250606
0.42116371 -0.034100585 -0.027180402 16250349
0.4185001 -0.025684362 -0.020873021 15724005
0.4225117 -0.024946688 -0.025929729 15724263
0.41900003 -0.01801068 -0.020617537 15592419
0.42315063 -0.015199723 -0.025339577 15526628
0.42402226 -0.0053219055 -0.024848849 15263456
0.42487764 0.0046157078 -0.024898736 14737113
0.4261972 0.013970369 -0.024619682 14473941
0.43007693 0.016636103 -0.028752536 14605526
0.42753851 0.023904506 -0.022503404 15066591
0.43096226 0.02557493 -0.026938686 15132384
0.42871428 0.03182555 -0.020378856 15132384
0.43277273 0.035072908 -0.025244223 15263456
0.43700001 0.040039521 -0.029687451 14343127
0.4475238 0.046794984 -0.023168305 13750987
0.44999999 0.049658295 -0.023196395 14211795
0.45691311 0.055404887 -0.021834338 14211539
0.46150002 0.058274396 -0.024978898 14474453
0.45850003 0.060256496 -0.020951744 11447977
0.46000001 0.060453627 -0.022635004 11777193
0.42225 -0.081290416 -0.015098879 15394786
0.41749993 -0.072826974 -0.013852337 16052970
0.4209623 -0.07688155 -0.016383253 15921127
0.41451025 -0.064985111 -0.015049943 16316656
0.40899998 -0.05312714 -0.010670392 16316912
0.41274738 -0.05510563 -0.015376627 16447984
0.40895453 -0.044864025 -0.011028272 16251119
0.41215846 -0.04486217 -0.015877094 16382191
0.40900001 -0.038166571 -0.010550707 16316912
0.41304031 -0.034945533 -0.015227541 16053483
0.41458333 -0.025006857 -0.015002336 15527140
0.41588664 -0.015058014 -0.014985418 15395553
0.41999999 -0.011662684 -0.019683514 15460833
0.41667438 -0.0051843696 -0.014477593 15066076
0.42000005 -0.0055526281 -0.01940259 15131869
0.41691574 0.004722116 -0.01399431 14605526
0.42053854 0.0058927839 -0.018914156 14736857
0.4175227 0.014553573 -0.012594906 14408404
0.42134556 0.015938397 -0.017310847 14408404
0.41811112 0.023519212 -0.011493637 14934749
0.42289749 0.025433997 -0.016046694 15066590
0.42527145 0.034161501 -0.015135356 15197919
0.43000001 0.038391519 -0.019145532 15460833
0.43744442 0.043614142 -0.011621056 13750987
0.44505 0.047238003 -0.015381796 13882572
0.45000002 0.049658295 -0.018982563 14606297
0.44564521 0.053283423 -0.012682308 14342868
0.45337504 0.055145558 -0.017470125 14277075
0.41839999 -0.08135765 -0.0019790255 15526370
0.42160794 -0.083779104 -0.0051902076 15066077
0.40849999 -0.071710594 -0.00061657443 15986921
0.4142791 -0.075002156 -0.0050904676 16052971
0.42000002 -0.079259574 -0.0091138193 15592165
0.40730691 -0.064213865 -0.0033933267 16316399
0.41120589 -0.066433452 -0.0079478007 16316398
0.40603563 -0.054957937 -0.0047755344 16250862
0.40560737 -0.045112859 -0.0046015875 16185069
0.40635416 -0.035174403 -0.0048135188 15922154
0.41 -0.031541169 -0.009616686 15790568
0.40648872 -0.025247229 -0.0037593788 15395810
0.41064003 -0.024128452 -0.0089402571 15395810
0.40722707 -0.015413228 -0.0028335997 15198174
0.41132557 -0.014421309 -0.0080154901 15329760
0.40762001 -0.0051161037 -0.0019302203 15000539
0.41179997 -0.00516843 -0.0072528902 15066332
0.40794292 0.0056440337 -0.0015760654 14605524
0.41235074 0.0049619949 -0.0067822468 14736854
0.40853572 0.014035389 -0.0010437282 14277075
0.4130123 0.015439643 -0.006159767 14408404
0.41471303 0.024827443 -0.0048572416 14868956
0.42000002 0.029632874 -0.0098512396 15065821
0.41749996 0.032512452 -0.0031260841 15197664
0.42114639 0.03512818 -0.007305691 15000285
0.4370217 0.046340588 -0.0059660706 13948367
0.43893343 0.05210223 -0.004781527 14211538
0.44006652 0.054606095 -0.0044848155 13816779
0.40850002 -0.080914892 0.0088270921 15723749
0.41410422 -0.083923966 0.0054630884 15066076
0.40539479 -0.0741238 0.0057418635 15987178
0.41071433 -0.078435197 0.0035525111 15658212
0.3987143 -0.062009156 0.0090490952 16447726
0.40246817 -0.065203384 0.0048432769 16250862
0.39781398 -0.054256145 0.0077552511 16119276
0.40101606 -0.055426493 0.0034001565 16316141
0.39754093 -0.04504374 0.007042062 16053482
0.40072331 -0.044659 0.0024748927 16119018
0.39790243 -0.035357464 0.0080001336 15921897
0.4008573 -0.034858193 0.0033300389 15724775
0.3982667 -0.025417272 0.0084656309 15330017
0.40129113 -0.025030093 0.0039123311 15330017
0.39866671 -0.01567289 0.0090657733 15132638
0.40208435 -0.014790716 0.0045203408 15132639
0.39873341 -0.0042282576 0.0090050586 14671833
0.40231767 -0.0051880889 0.004459403 14869212
0.39864293 0.0029963735 0.0089139864 14408661
0.40233341 0.0051064254 0.0045924219 14539989
0.40419227 0.015000666 0.0052818144 14342868
0.40592328 0.024289899 0.0060627363 14671835
0.41140002 0.026669288 0.0020024255 14868700
0.40645456 0.031530879 0.0083688758 14869213
0.41432616 0.034381315 0.0038954234 14934491
0.42100003 0.039395243 0.002609174 13619399
0.41700003 0.041135665 0.0097432174 13685449
0.42596972 0.043658711 0.0042084325 13751242
0.43200004 0.047801886 0.002696807 14145745
0.43740001 0.052163314 0.001822632 14211538
0.44000003 0.055765111 0.0015252052 13619400
0.40525377 -0.083457001 0.015277077 14737113
0.41000003 -0.085290946 0.01053948 14802649
0.3971 -0.073147252 0.01665616 15789798
0.40133336 -0.076480418 0.013409611 15526370
0.39534822 -0.064899467 0.014825757 16119019
0.40000001 -0.068696365 0.010282419 15724003
0.39393163 -0.055048149 0.014835841 16119018
0.39371073 -0.045033794 0.01471766 15921640
0.39420655 -0.034938999 0.01473602 15527396
0.39405778 -0.024781168 0.014728655 15198174
0.3942672 -0.014837067 0.014615275 15000795
0.39427003 -0.0053167162 0.014726471 14606296
0.39483607 0.0048619988 0.01466968 14211282
0.40000001 0.0094936397 0.010282419 14079696
0.39531955 0.014686553 0.015730329 14474454
0.40008697 0.015971059 0.010895356 14408405
0.39505255 0.025112718 0.016557429 14803419
0.40118173 0.02520665 0.011420811 14671835
0.39597151 0.032783326 0.017191814 14737625
0.40204003 0.032659236 0.011912238 14671834
0.39714286 -0.081598863 0.02627415 14736855
0.40055004 -0.083138168 0.022531416 14934234
0.38870001 -0.071578763 0.028645173 15657697
0.39386314 -0.075332358 0.024470272 15460834
0.38799992 -0.064764418 0.027290002 15855589
0.39114553 -0.065605156 0.022105938 15790054
0.38736001 -0.055146657 0.026226314 15790054
0.39032257 -0.054964814 0.020939091 15790312
0.38710925 -0.045187145 0.025800111 15658468
0.39021739 -0.044435386 0.020595551 15790055
0.3868888 -0.035197522 0.026238862 15329761
0.39081252 -0.034782227 0.020995261 15461603
0.38697255 -0.025207581 0.025827317 15066588
0.3904545 -0.0249686 0.020589713 15198430
0.38666067 -0.015246526 0.025679519 14803417
0.38999996 -0.015250463 0.020500794 15000537
0.38654998 -0.005298031 0.025306771 14408659
0.39000005 -0.0053516538 0.020068323 14606039
0.38656765 0.0044798893 0.025701115 14211280
0.39061904 0.0056154365 0.020622114 14144974
0.38629249 0.014905126 0.026195738 14474197
0.39106452 0.014568338 0.020978026 14408405
0.38610309 0.024959462 0.026258321 14803420
0.3911429 0.02508623 0.021145809 14868955
0.38656673 0.032008469 0.027093643 14671578
0.39265633 0.033712093 0.022071091 14342868
0.40458068 0.045388825 0.028149622 14079953
0.41526666 0.047960415 0.024276339 14079953
0.42000002 0.048314199 0.021612043 14079953
0.40600002 0.050505538 0.028492145 11185058
0.41454545 0.0510378 0.024939938 13882574
0.42050004 0.051448397 0.021760091 14408404
0.38900003 -0.080011725 0.038685314 14671065
0.39224085 -0.082839198 0.034800153 14474197
0.38688096 -0.074071452 0.0357503 15263967
0.39124143 -0.077947922 0.032384202 14935003
0.38346976 -0.065049976 0.035067685 15592931
0.38271889 -0.055099569 0.034915727 15395809
0.37899998 -0.042169284 0.039761074 15330017
0.38229048 -0.045026962 0.034911864 15461346
0.37870005 -0.034748275 0.039078832 14869466
0.38212627 -0.034920622 0.034140624 15198431
0.3784146 -0.025005855 0.038722701 14606294
0.38177425 -0.02487337 0.033707138 14869210
0.3783572 -0.014492252 0.038532671 14474710
0.38163328 -0.015272656 0.033588368 14606040
0.37826678 -0.005289231 0.038453273 14145489
0.38142505 -0.0051824334 0.033426452 14211282
0.37829173 0.0049930732 0.038505036 14013903
0.38159999 0.0049848915 0.033510078 13947852
0.37833348 0.015382379 0.038324542 14211282
0.38137656 0.015120543 0.033274803 14277075
0.37843192 0.024928857 0.038519148 14671575
0.3813372 0.025018038 0.033392925 14671835
0.37885714 0.0310382 0.039260156 14605524
0.38174281 0.032421809 0.034930013 14408661
0.40067092 0.046610873 0.034171272 13750987
0.40000001 0.050695557 0.036970023 11119010
0.38639659 -0.082375467 0.045322813 14605268
0.39075002 -0.08517544 0.041145064 13947341
0.37900001 -0.071300521 0.049668655 15460831
0.3829478 -0.074863441 0.045016464 15131867
0.37825811 -0.064263709 0.047327455 15395808
0.38073921 -0.065524712 0.042570632 15592417
0.3775818 -0.054780312 0.046094764 15329759
0.38058332 -0.055413678 0.041114308 15461346
0.3767418 -0.044676017 0.045379158 15198173
0.38010007 -0.048105597 0.040469579 15198174
0.37594673 -0.03508319 0.045296267 14935002
0.37540141 -0.024993531 0.045169029 14605781
0.37519428 -0.014888729 0.04526962 14605782
0.37462875 -0.0051422883 0.045136925 14013645
0.37479195 0.0049489727 0.045156408 13684937
0.37568957 0.015073013 0.045265924 14145489
0.3753984 0.02495808 0.045345519 14474197
0.37611371 0.03177771 0.045294922 14276817
0.38033333 0.033957928 0.040049352 13881801
0.39711544 0.046619542 0.046816293 14014160
0.40000004 0.048541822 0.042167079 13619657
0.39700001 0.050315343 0.049239434 10856350
0.40000001 0.050695557 0.042120259 11053729
0.37900004 -0.080912352 0.059132606 14145234
0.382254 -0.082930334 0.054578181 14342354
0.37747827 -0.073985822 0.05612034 15000281
0.38094115 -0.077673003 0.052569371 14934489
0.37536824 -0.064948305 0.054932259 15197916
0.37428054 -0.0550805 0.054741159 15000537
0.37332872 -0.045110371 0.054979458 14869209
0.37197867 -0.034939565 0.055384342 14606294
0.37134078 -0.025091713 0.055178307 14277073
0.36877158 -0.013916557 0.058539294 13750728
0.37088072 -0.01542051 0.053905886 14145486
0.36843097 -0.0046994821 0.057605952 13750473
0.37074339 -0.0053687412 0.052841846 13684937
0.3682344 0.0046455278 0.05757701 13618628
0.37090021 0.0050689369 0.052815806 13619143
0.3686592 0.014223942 0.058178939 13816780
0.37110129 0.01523072 0.053509492 14013903
0.36900002 0.02085158 0.059587996 14014160
0.37162822 0.025030602 0.055133652 14342609
0.37455001 0.032903768 0.055222966 13882314
0.38533333 0.038621295 0.055308659 14146000
0.38884613 0.041929699 0.058310706 14080207
0.39145043 0.045096684 0.054448348 13948366
0.3955 0.050125234 0.050441615 10921888
0.38500002 -0.090004481 0.068480805 13487559
0.3778781 -0.081910685 0.065699607 14342097
0.38117772 -0.085743561 0.064570546 14079183
0.37397599 -0.074919693 0.065149568 14868952
0.36899999 -0.063588351 0.069738068 15000282
0.37161055 -0.065087326 0.064609148 15131867
0.37123948 -0.054999366 0.064785734 14934488
0.36889762 -0.042817235 0.067941219 14408145
0.37059793 -0.045824502 0.063935496 14737110
0.3686341 -0.034904242 0.067346558 14276559
0.3701615 -0.034878906 0.062472396 14671574
0.36853328 -0.024523739 0.066092111 13816265
0.36999992 -0.026474977 0.06157808 14211280
0.3678681 -0.014954426 0.065000549 13421507
0.3659336 -0.0049499269 0.064777896 13158335
0.36564952 0.004774271 0.064963087 13158592
0.36720845 0.015165713 0.064879894 13816779
0.36803123 0.024333946 0.066023923 14145744
0.37035292 0.027228067 0.062330581 14079951
0.36900002 0.030353773 0.069090188 14737878
0.37342465 0.033411644 0.065078817 13685190
0.38100004 0.039012086 0.065804727 14145742
0.3842442 0.043484423 0.064790495 13948621
0.39000002 0.047602173 0.06024019 14474711
0.38525 -0.0906277 0.072687015 13684425
0.3758029 -0.083201639 0.075265169 14144720
0.38165385 -0.087952241 0.074341603 13684169
0.36845955 -0.072477639 0.077473275 15000282
0.37129796 -0.075922243 0.074047491 14802647
0.36794686 -0.064979248 0.075290456 15066075
0.37 -0.068885557 0.070432328 14671317
0.36838225 -0.054948002 0.07584475 14802903
0.36999992 -0.054395154 0.071009777 14934489
0.36804378 -0.045162003 0.075266413 14539732
0.37 -0.048602585 0.070360146 14868696
0.36809847 -0.034780085 0.074954465 13355714
0.36815831 -0.024910312 0.074931338 12960957
0.37 -0.020668389 0.079671547 11842736
0.36786473 -0.014854833 0.074952751 12171955
0.37 -0.019802213 0.079671547 11184806
0.36492252 -0.0050933179 0.074842796 12303284
0.36350656 0.0048575699 0.075215802 12566456
0.3641499 0.014963238 0.074896179 13619399
0.36530787 0.02496784 0.074877262 14145486
0.36733332 0.031182239 0.075286724 13882313
0.3740938 0.036302269 0.075548574 13750470
0.38050002 0.039316572 0.070797443 14474706
0.37821871 0.042179849 0.076734446 13816521
0.38086203 0.042551987 0.072201014 13882571
0.38200003 -0.090197422 0.080466956 13552584
0.36866668 -0.081418909 0.086616077 14473939
0.37203085 -0.084914409 0.085006878 14079182
0.38100001 -0.089069366 0.080256306 13486791
0.36708534 -0.074996844 0.085065439 14605524
0.37 -0.079568401 0.080537722 13881547
0.3659507 -0.064952098 0.085208841 15000282
0.36632439 -0.055096194 0.085178658 14802647
0.36697209 -0.04498009 0.085030489 14474195
0.36841297 -0.03634515 0.084044434 13618629
0.37057778 -0.032189541 0.086525507 11710634
0.36899999 -0.027139289 0.080512017 12435125
0.3707588 -0.02487272 0.085378654 8093304
0.36841536 -0.012647099 0.083895437 10526618
0.37055898 -0.017255936 0.085942656 6777189
0.36538291 -0.0049290792 0.08494664 11447717
0.36206284 0.0048059467 0.085130632 12566199
0.359 0.016504584 0.089909315 14144976
0.36142859 0.015003957 0.08489807 13816522
0.35864526 0.025168767 0.089115791 14539731
0.36175552 0.024969364 0.084027775 14342866
0.3626667 0.031662028 0.086536407 13684676
0.37332258 0.037534248 0.084734261 13355712
0.37478784 0.041360494 0.083957247 13619142
0.36765519 -0.082673416 0.094910391 13882060
0.3708728 -0.087398477 0.094379775 13618888
0.36460152 -0.075010203 0.09496665 14277074
0.36360374 -0.06499844 0.094889581 14277330
0.36454192 -0.054923411 0.095135532 14408402
0.36663863 -0.044891864 0.095072336 14145486
0.36826155 -0.037573338 0.095000342 13750472
0.37079749 -0.032512326 0.09492828 10395544
0.37095425 -0.0250651 0.095071957 2304548
0.36860538 -0.011212857 0.095448337 6711396
0.37052381 -0.016461303 0.094850183 2107171
0.3656185 -0.005020692 0.095067643 11185060
0.35900006 0.009014911 0.096385539 11776939
0.36130962 0.0042721196 0.094777413 11842476
0.35729542 0.014901566 0.095228948 13158079
0.36000001 0.011213037 0.090440683 13224387
0.35518831 0.024405863 0.095121704 13684679
0.35900003 0.030371603 0.09369123 12631732
0.3652586 0.03519379 0.094185673 13027003
0.3700833 0.038384598 0.091096483 13290432
0.37050003 0.040885329 0.090620458 12369589
0.36804765 -0.082597308 0.102022 12895423
0.37040901 -0.086397327 0.10258083 12040116
0.36509475 -0.074178606 0.1048006 12105907
0.36500746 -0.065081149 0.1051188 10658718
0.36491382 -0.055107906 0.10460663 12105906
0.36704782 -0.044794939 0.10480215 12500664
0.36871436 -0.03674959 0.10516722 10724767
0.37042332 -0.033532385 0.10512093 8750978
0.367836 -0.024578173 0.10541023 2172962
0.37015378 -0.027143419 0.10116787 2304805
0.36808905 -0.015018212 0.10517775 2764844
0.37 -0.018502949 0.10045978 2238499
0.3668929 -0.0050426619 0.10489758 9672080
0.37 -0.0072426512 0.10998773 7171691
0.36342868 0.0040934645 0.10420843 10000786
0.35627267 0.014763792 0.10130571 10132373
0.35330772 0.023620784 0.10127155 11184803
0.36800003 -0.076553822 0.1102547 8816256
0.36800003 -0.061046921 0.1102547 8224630
0.36800003 -0.043940093 0.11050085 9738386
0.36825001 -0.030700807 0.11054498 2896428
0.37100002 -0.035054792 0.110285 9671562
0.36650825 -0.02523013 0.11232419 2041889
0.3671166 -0.015002147 0.11236648 2568234
0.36857146 -0.0037658662 0.11128891 7500909
0.37045828 -0.0065286867 0.11232863 7303788
0.36750001 0.0001190402 0.11139597 8883076
0.39300001 0.030487962 0.11958486 8553341
0.36100003 -0.031152043 0.13942644 1448721
0.36250004 -0.031139851 0.14553253 1186322
0.36333334 -0.016045477 0.14968388 1117963
0.36607412 -0.031965032 0.15676558 1909019
0.36725318 -0.025412155 0.15600188 528393
0.37047926 -0.025013356 0.15696435 462856
0.36496553 -0.016092766 0.15551551 1380105
0.36283341 -0.032675624 0.16344912 1449237
0.36423871 -0.024927739 0.16486828 791820
0.36465141 -0.016053656 0.16510412 1119244
0.3634187 -0.032697584 0.17531864 988943
0.35804766 -0.023832861 0.17967393 593930
0.36196858 -0.025010407 0.17495629 1186579
0.35900003 -0.018373074 0.17983486 593930
0.36240473 -0.016876929 0.17580301 1054482
0.34605196 -0.033371594 0.1851759 1712151
0.35412505 -0.032651495 0.18064491 1383445
0.36106673 -0.033921134 0.18092519 725259
0.3462297 -0.025050161 0.18519491 1449494
0.35398498 -0.02508199 0.18053992 1054481
0.36000001 -0.029380215 0.18033578 528137
0.34652105 -0.016763104 0.18598609 1383189
0.35526145 -0.016560825 0.1815455 988688
0.36128211 -0.011698635 0.18355271 2172706
0.36281553 -0.0069366503 0.18620723 8356986
