# .PCD v0.7 - Point Cloud Data file format
VERSION 0.7
FIELDS x y z rgb
SIZE 4 4 4 4
TYPE F F F U
COUNT 1 1 1 1
WIDTH 866
HEIGHT 1
VIEWPOINT 0 0 0 1 0 0 0
POINTS 866
DATA ascii
0.79866672 0.20031585 -0.22626813 5262146
0.80150008 0.20321691 -0.22269274 4999740
0.80000001 0.19877745 -0.21634617 4867647
0.80157149 0.20238613 -0.21543142 5262656
0.79791301 0.19395766 -0.20518218 10460823
0.80000001 0.19877745 -0.20417289 4999236
0.80200005 0.20209184 -0.2046833 4933438
0.79823083 0.19424251 -0.19466551 10131345
0.80000001 0.19877745 -0.19855444 4933188
0.79900002 0.20039946 -0.19175959 5064252
0.80175006 0.2024985 -0.19687895 5327425
0.80000001 0.17817651 -0.18357192 11974573
0.79872721 0.18622154 -0.18752904 11974573
0.80068183 0.18463326 -0.18287539 11974572
0.79879987 0.19473915 -0.18703611 9999759
0.80073339 0.19521062 -0.18186504 10065806
0.79900002 0.20039946 -0.18801865 5262147
0.80071437 0.20163305 -0.1823961 5327939
0.80064702 0.18581878 -0.17633353 11974573
0.80104005 0.19528538 -0.1744346 10328978
0.80175006 0.20249732 -0.17787397 5327681
0.80128574 0.19735686 -0.16537391 9209725
0.80412507 0.20262684 -0.16474828 5392960
0.81450003 0.20715129 -0.16211131 5327424
0.82100004 0.20976129 -0.16148303 6051147
0.80110008 0.19680269 -0.15532058 10920599
0.80533338 0.20010264 -0.15274487 5985868
0.80500007 0.20001982 -0.14891338 6182733
0.40633333 -0.12384921 -0.10053153 16513782
0.40536368 -0.1146903 -0.10060845 16118764
0.40720004 -0.10815797 -0.10049208 14144717
0.40606186 -0.12391991 -0.094667174 16579829
0.40474516 -0.11463638 -0.0952029 16382448
0.40757009 -0.1059126 -0.094281688 15921641
0.41011116 -0.10099524 -0.095066704 15856104
0.40900001 -0.09944506 -0.090021245 16645877
0.41243553 -0.095783412 -0.093094982 15790311
0.41689998 -0.087259389 -0.091856614 16052712
0.42066669 -0.080944113 -0.090948038 16052455
0.42130771 -0.077321514 -0.091211759 16381677
0.40410763 -0.12368289 -0.084449686 16580087
0.40388203 -0.1152892 -0.085034885 16447985
0.40687919 -0.10504995 -0.084946193 16119019
0.40877426 -0.098124057 -0.083582677 16119020
0.41197568 -0.093787037 -0.085656159 16250349
0.41627106 -0.085382424 -0.08470244 16185069
0.42025006 -0.080905236 -0.087947898 16250350
0.41880003 -0.078885868 -0.081197925 16514034
0.42245299 -0.074789584 -0.085310794 16316142
0.42662874 -0.065816045 -0.08431647 16250605
0.43000001 -0.060258977 -0.086590253 16316140
0.42811111 -0.057375986 -0.081923217 16053226
0.43040004 -0.054534744 -0.083176136 15987690
0.43380004 -0.047180351 -0.080449477 15395810
0.43900001 -0.037882954 -0.080180958 15856104
0.40368414 -0.13098006 -0.074230216 16514037
0.40282008 -0.12482259 -0.074992448 16579829
0.40281987 -0.1148673 -0.074943013 16447214
0.40527478 -0.10510181 -0.074854814 16184042
0.40812969 -0.096060067 -0.074330695 16119019
0.4106667 -0.091908939 -0.077214718 16119020
0.40900001 -0.089870296 -0.071350455 16382191
0.41341841 -0.085091583 -0.075217672 16316398
0.41692755 -0.076246403 -0.073818162 16447984
0.42117661 -0.072823465 -0.077275351 16513521
0.41866669 -0.069124967 -0.070913516 16645364
0.42279574 -0.064873427 -0.075271681 16382192
0.4255476 -0.055632647 -0.074718572 16316143
0.43030772 -0.051235337 -0.077664144 15855850
0.42812502 -0.048844784 -0.071429454 15724008
0.43331757 -0.044770729 -0.075172246 15329763
0.43813318 -0.036778152 -0.07431452 15132383
0.44 -0.033025019 -0.075007357 15395554
0.44027278 -0.028153485 -0.070856102 14671833
0.40034363 -0.13128453 -0.064483792 16513781
0.40019608 -0.12473461 -0.065059721 16579059
0.40100893 -0.11502836 -0.065068834 16052456
0.40364936 -0.10509294 -0.06466455 15855334
0.40650898 -0.094948828 -0.065116391 16052711
0.40852338 -0.087145276 -0.064125337 15920870
0.41130775 -0.082615666 -0.066108391 15986921
0.41397083 -0.075174868 -0.065049246 16250093
0.41694507 -0.065644749 -0.06423033 16447471
0.42043754 -0.062670544 -0.068855606 16513521
0.41822225 -0.057337824 -0.062354304 16381422
0.42124322 -0.054230541 -0.06607978 16315886
0.42486253 -0.045631357 -0.064304426 15921385
0.43081248 -0.042154163 -0.068159461 15329249
0.4276 -0.038497888 -0.061681956 15263454
0.43521118 -0.034516651 -0.065780297 14935003
0.43836674 -0.027462585 -0.063169442 14737625
0.44135556 -0.024003858 -0.065295048 14540503
0.44627908 -0.016734075 -0.063146353 14540503
0.45272416 -0.013227103 -0.066501625 14474710
0.45365801 -0.0057184724 -0.062625714 14211282
0.45822224 0.0030122725 -0.060687646 13553352
0.46059999 0.0068356125 -0.061051138 13290436
0.46400002 0.011012622 -0.061936192 12960697
0.40039992 -0.13210547 -0.054876003 16381682
0.39900011 -0.12359206 -0.052410632 16513778
0.39999974 -0.12530036 -0.056433536 16513778
0.39900002 -0.11943122 -0.050457589 16250349
0.4005048 -0.11527102 -0.055172216 15921128
0.40335366 -0.10507625 -0.054857772 15855334
0.4052771 -0.094809614 -0.054966748 15723490
0.40811059 -0.084938094 -0.054914348 15723491
0.41000003 -0.080491848 -0.059527189 15986664
0.40899995 -0.078989886 -0.05311488 16118506
0.41155869 -0.074445516 -0.055383075 16249835
0.41337004 -0.064961649 -0.054837227 16381677
0.41483015 -0.055121176 -0.054759823 16447470
0.42000002 -0.050500177 -0.059995845 16249836
0.41733333 -0.046122473 -0.053362526 16315628
0.4210977 -0.043475848 -0.057245307 15921127
0.41875002 -0.038585383 -0.050504126 15460320
0.42386904 -0.035317797 -0.054781217 15328990
0.43000001 -0.031267811 -0.05780042 15263710
0.4277778 -0.027954558 -0.052039206 14934487
0.43361759 -0.024378125 -0.055353407 14868953
0.44025004 -0.020985082 -0.05928158 14408661
0.43711427 -0.016255766 -0.052707691 14802902
0.44284001 -0.013513961 -0.056484781 14671831
0.44627091 -0.0061840452 -0.053764954 14540246
0.45217863 -0.0030256102 -0.057184909 14211282
0.44900003 0.0001454396 -0.050473895 14277075
0.45639062 0.0039475253 -0.054714441 13948110
0.46088892 0.0086622722 -0.056907289 13619402
0.45900002 0.011431215 -0.050523505 13750731
0.46332017 0.015239 -0.055459429 13421766
0.46615389 0.022982044 -0.053916141 13684938
0.39803708 -0.13225712 -0.043539841 16513780
0.40013638 -0.13280095 -0.048302412 16513267
0.39729497 -0.12483844 -0.045073982 16579058
0.39808342 -0.11674633 -0.043509532 16250093
0.40032238 -0.11326569 -0.046454277 16315628
0.40192267 -0.10512406 -0.044903371 16184042
0.40418157 -0.095051415 -0.044966269 16250092
0.40661061 -0.085009389 -0.0452272 16447728
0.40777132 -0.075510412 -0.044476688 16579827
0.41031575 -0.072969072 -0.048653055 16448241
0.40792209 -0.064953044 -0.043472316 16645877
0.41075003 -0.064802036 -0.048008092 16514290
0.40809819 -0.054978799 -0.042431336 16645364
0.41144007 -0.054515634 -0.047390494 16645106
0.40850002 -0.04657783 -0.041250706 16447470
0.41289872 -0.044435143 -0.045861792 16315884
0.41607407 -0.035764247 -0.044205237 15263197
0.42113638 -0.032216452 -0.047701832 14934233
0.41849998 -0.028602386 -0.040840786 14473937
0.42411759 -0.025189953 -0.045046516 14802903
0.42999998 -0.021335652 -0.049009115 14802903
0.42740625 -0.016805695 -0.042389378 14802903
0.43253967 -0.014363502 -0.046458684 14605524
0.42900002 -0.0099040056 -0.040191237 15066075
0.43554711 -0.0058149984 -0.043430392 14868953
0.44160867 -0.0042596976 -0.047937222 14474452
0.43875 0.0012977045 -0.041361894 14079950
0.44448981 0.0044608163 -0.044178262 13948364
0.45293337 0.007362043 -0.04794858 13882571
0.44766667 0.011149353 -0.041941989 13948364
0.45589659 0.015459183 -0.045205008 13750985
0.46033335 0.017571356 -0.04923366 13685192
0.45830178 0.024100073 -0.04419452 13750985
0.46033335 0.026440928 -0.045212887 13750985
0.45900002 0.030772706 -0.047299925 13619399
0.46218759 0.033189893 -0.043060124 13750985
0.47000003 0.039762266 -0.042932082 14276046
0.47430006 0.044627827 -0.041825086 12631991
0.39756602 -0.13292961 -0.034978319 16316145
0.40000004 -0.1373142 -0.032896355 15987181
0.39580166 -0.12496158 -0.035230033 16250608
0.39624563 -0.1149161 -0.035129394 16381936
0.39761648 -0.10568949 -0.033518195 16381935
0.4002682 -0.10355997 -0.03777435 16448241
0.39851427 -0.095269196 -0.031845067 16580341
0.40116671 -0.0949158 -0.03676657 16580085
0.39809683 -0.084979527 -0.031735826 16645876
0.40193495 -0.08508952 -0.036721937 16645878
0.39821434 -0.07567928 -0.031548314 16580083
0.40224996 -0.074777566 -0.036481474 16645877
0.39864713 -0.066019781 -0.031144595 16579569
0.40266648 -0.064857952 -0.036110908 16580083
0.40288144 -0.055260167 -0.035132539 16513519
0.4044486 -0.045086797 -0.034629147 16052712
0.41000003 -0.040179525 -0.039371025 15723490
0.40734792 -0.037075583 -0.032879718 15526368
0.41273442 -0.033857558 -0.036634278 15131611
0.41540003 -0.025482008 -0.034110978 15000025
0.42094117 -0.022410957 -0.038335692 15197148
0.41782612 -0.016958769 -0.031533346 15197661
0.42261639 -0.014740694 -0.03592895 14868696
0.42576197 -0.0060593928 -0.034136027 14802903
0.431375 -0.0029708974 -0.037807796 14671831
0.42839998 0.00094126782 -0.030908605 14145743
0.43426758 0.0043458939 -0.034391589 13816521
0.44135717 0.0079678167 -0.03810361 13882571
0.43840009 0.011432502 -0.0318361 13356227
0.4448806 0.01508899 -0.035080258 13553350
0.45120001 0.018315261 -0.038680412 13750985
0.4482353 0.022182571 -0.031994827 13487044
0.45457381 0.025415655 -0.0357567 13816521
0.46000001 0.029224444 -0.039326459 13816778
0.45821741 0.03265753 -0.032529082 14013385
0.46373591 0.035882313 -0.035931006 14079436
0.4671905 0.042443827 -0.032471057 14144971
0.47306681 0.045763187 -0.036274996 13947849
0.47721434 0.052903146 -0.032941364 13816007
0.48115152 0.056579284 -0.035350449 13684422
0.48566672 0.064879924 -0.033997621 13749957
0.48650002 0.071054146 -0.031627465 14407888
0.39740965 -0.13417104 -0.024734551 16249837
0.40000007 -0.13869281 -0.026783697 16315375
0.39395475 -0.12484176 -0.024922842 16315631
0.39361158 -0.11503655 -0.025041329 16381934
0.39462927 -0.10506552 -0.024926767 16447470
0.39543346 -0.095012762 -0.024998082 16514034
0.39459637 -0.0849801 -0.025018051 16514033
0.39410838 -0.075063802 -0.024940111 16513776
0.39520156 -0.0650087 -0.024986289 16447469
0.39657128 -0.05529771 -0.024528563 16315883
0.40000007 -0.052871082 -0.029421249 16184041
0.39742109 -0.045896046 -0.022561947 15987432
0.4006491 -0.044080764 -0.027054917 16052712
0.39857146 -0.03825891 -0.020812254 15789794
0.40359232 -0.034652326 -0.025337717 15592417
0.40710312 -0.025946109 -0.023921134 15263452
0.41154054 -0.023350962 -0.02788182 15131868
0.40846667 -0.018162278 -0.020992247 15131868
0.4136292 -0.014515795 -0.025174409 15131867
0.41615391 -0.0060502063 -0.023452172 14671318
0.42165723 -0.0037227529 -0.027858227 14539732
0.41820002 0.00091970398 -0.020970058 14013387
0.42489368 0.0032152226 -0.024532337 13948107
0.43156254 0.0073412755 -0.02676452 13553350
0.43534204 0.014002644 -0.024379024 13356227
0.44150004 0.018347546 -0.02735392 13487300
0.43875 0.021455333 -0.020819169 13421506
0.44453231 0.024706822 -0.024802582 13553349
0.45200002 0.028982194 -0.028591365 14079178
0.44900003 0.031153396 -0.022093732 14276815
0.45508578 0.03546425 -0.024819994 14408144
0.46033335 0.03894446 -0.028758341 14605522
0.45782611 0.043021906 -0.022064611 14473681
0.46339583 0.04574002 -0.025996029 14210764
0.46634373 0.053717721 -0.022609985 14210251
0.47275761 0.055427056 -0.026855232 13947336
0.47638094 0.064945772 -0.022381907 15131353
0.48258978 0.066264316 -0.026793132 15131353
0.47883341 0.072644331 -0.020385746 14407887
0.48283872 0.072821133 -0.025047131 14473423
0.39605319 -0.13454181 -0.014805123 16183531
0.39268702 -0.12466056 -0.014607722 16117994
0.38899997 -0.11147075 -0.010697076 16513519
0.39121205 -0.11511298 -0.015109526 16184556
0.38899997 -0.10642075 -0.010641884 16447983
0.39128533 -0.10479406 -0.015438008 16381677
0.39185935 -0.095109843 -0.014701854 16381934
0.38900003 -0.080922388 -0.010490108 16249834
0.39145511 -0.085230596 -0.014873249 16381676
0.38868189 -0.074508473 -0.011640546 16513005
0.39108452 -0.075322077 -0.016694171 16513263
0.38856623 -0.065368272 -0.01227335 16447470
0.39129037 -0.064703092 -0.017115066 16513263
0.38881823 -0.055976603 -0.011478809 16250089
0.39177495 -0.054534346 -0.016348336 16250346
0.38900003 -0.048897643 -0.010338332 16513775
0.39318809 -0.044836648 -0.014906805 16052967
0.3955349 -0.035280786 -0.014593076 15789538
0.40014288 -0.031719264 -0.019154551 15460829
0.39739215 -0.026044773 -0.012242967 15395038
0.40191436 -0.024488663 -0.017040592 15328733
0.39880005 -0.0183555 -0.010474397 15329245
0.40383494 -0.014898704 -0.014803287 15131866
0.41000003 -0.010905094 -0.019214859 15263454
0.40647465 -0.0061031017 -0.013217329 14474707
0.41207314 -0.0036980258 -0.017245302 14277329
0.40900001 0.00013248283 -0.010550707 13882571
0.41512865 0.0033210621 -0.014560578 13619143
0.42147058 0.0074502765 -0.016101686 13553607
0.42630559 0.012896571 -0.013383208 13093056
0.43184617 0.016592423 -0.016102565 13224386
0.43636757 0.023945337 -0.013846791 13619143
0.44141665 0.027444033 -0.017503532 13750472
0.43900001 0.030973408 -0.010296891 14342352
0.44555002 0.034122486 -0.013967394 14474194
0.45170596 0.03771814 -0.017502293 14474193
0.4489091 0.041895129 -0.011675984 14736852
0.45363769 0.04534037 -0.015435847 14605009
0.45662752 0.054125495 -0.01348248 14473681
0.46203703 0.056198057 -0.017930778 14210251
0.45871431 0.06135885 -0.011373311 14473684
0.46468294 0.06430725 -0.014675697 14276304
0.47169229 0.067514144 -0.017351674 14671061
0.46546161 0.072231799 -0.012010809 14276048
0.47474998 0.072326489 -0.017394571 14342096
0.3985 -0.14073816 -0.0043371711 16250099
0.40000007 -0.14220433 -0.0065729111 14276563
0.39562246 -0.13506268 -0.0046424484 16315374
0.39219818 -0.12494104 -0.0047290465 16249838
0.38868189 -0.11322842 -0.0040024235 16184043
0.39051285 -0.11773573 -0.0053168568 16118250
0.38723585 -0.10486144 -0.0046083932 16052712
0.38831693 -0.09503413 -0.0042934045 16118248
0.39000005 -0.091695085 -0.0088867238 16579312
0.38825721 -0.084692203 -0.0042196382 16118249
0.39000005 -0.088092007 -0.0086910818 16315627
0.38594151 -0.074830502 -0.0045034038 16184554
0.38542825 -0.064984299 -0.0048288456 16118504
0.38565555 -0.054989778 -0.0045041097 16052711
0.38684359 -0.045309335 -0.004327259 15855588
0.39012504 -0.04188437 -0.008922263 16052967
0.38749349 -0.035698779 -0.0028272651 15921125
0.39118752 -0.033982906 -0.0075177015 15592417
0.38858333 -0.0263792 -0.0012564642 15526624
0.39285219 -0.024313379 -0.0059317886 15395038
0.38900003 -0.019908428 -1.7563922e-05 15263454
0.39493948 -0.014897718 -0.0044733733 15132381
0.40000001 -0.0112946 -0.0091948509 15395039
0.3968679 -0.0063709961 -0.0025475875 14474451
0.40205172 -0.0038387612 -0.0066127595 14211023
0.40584788 0.0025145165 -0.0030202218 13487556
0.41357362 0.0067194197 -0.0060474495 13290434
0.42000002 0.0099683218 -0.0098512396 13027262
0.41662225 0.013469285 -0.0026241562 13552838
0.42285454 0.016393254 -0.0062902118 13356228
0.4258889 0.023338016 -0.0028841675 13882317
0.43244451 0.026289145 -0.0068621133 13947850
0.42900002 0.030267864 -1.936998e-05 14737880
0.43612498 0.03407295 -0.0038415284 14473938
0.44231999 0.03729973 -0.0076444801 14671317
0.43816671 0.042884629 -0.00019067817 14408145
0.44505483 0.045162514 -0.0049155471 14605523
0.45066667 0.048501659 -0.009164365 14671317
0.44744194 0.054105677 -0.0021921773 14802645
0.45247829 0.055830322 -0.0070941215 14671316
0.44900003 0.061986163 -0.0003706454 15131868
0.45484829 0.065102242 -0.0048874239 15000282
0.46025002 0.068298459 -0.0094486456 14670550
0.45517391 0.07383281 -0.002902955 14013388
0.46147367 0.073611356 -0.0086654769 13223616
0.39677781 -0.14136858 0.0074132564 15722984
0.39403036 -0.13497654 0.0050961273 16184045
0.38899997 -0.12071802 0.0067212903 16249835
0.39098805 -0.12553982 0.0047784438 16381678
0.38779452 -0.11475933 0.0053165969 16249834
0.38540336 -0.10477664 0.0053553693 16184298
0.385984 -0.094963104 0.005462728 16184554
0.38500848 -0.084923439 0.0053107324 16447983
0.38284606 -0.074956037 0.0054509514 16053225
0.38188323 -0.065103866 0.0053757424 15921382
0.37895006 -0.053681917 0.0092089567 15658467
0.3813234 -0.055406116 0.0045191734 15855589
0.37889481 -0.046607438 0.0091795186 15724003
0.38175455 -0.044713099 0.0046305358 15789796
0.38277203 -0.03490774 0.0054126261 15724003
0.38424781 -0.025041683 0.0054426845 15263452
0.38635585 -0.015612074 0.005963271 15000794
0.39066666 -0.012919794 0.0015667618 14869464
0.38819355 -0.0079631554 0.0079832403 14539732
0.39321172 -0.0046171867 0.0043835803 14145230
0.39704353 0.0018286981 0.0075767422 13618629
0.40347561 0.005659265 0.004627733 13421507
0.41033337 0.0094189532 0.0012620097 13356227
0.40712824 0.013748856 0.0077740862 14210766
0.41266665 0.01545286 0.0036600602 13881802
0.42000002 0.019800596 0.00096426392 13290180
0.40900001 0.020239487 0.0095562972 14013387
0.41519997 0.024676323 0.0075766384 14276560
0.42202505 0.025828263 0.0028424887 14079438
0.41833332 0.031148143 0.0091208359 14342353
0.42466676 0.035101138 0.0065226262 14539988
0.43108335 0.036892742 0.00224908 14473938
0.42727277 0.041513339 0.0087991105 14079180
0.43404344 0.045032538 0.0049770852 14408145
0.44040003 0.048805863 0.0014231189 14605009
0.43737507 0.054105878 0.00734931 14736854
0.44276747 0.055828732 0.0031561162 14736853
0.43900001 0.061290763 0.0092295399 15066075
0.44475645 0.065101229 0.0051851706 15263454
0.45000002 0.069147266 0.0010331399 15460833
0.4465687 0.074268401 0.0066543547 14934489
0.45137504 0.076099172 0.0024432486 14013644
0.44800001 0.080638096 0.0081054457 13487300
0.45300001 0.080743305 0.0036912302 11184288
0.39536843 -0.14094783 0.014201616 15130847
0.39292294 -0.13487515 0.014563589 16117995
0.38884377 -0.12317636 0.015954077 16315885
0.39047831 -0.12723508 0.013295176 16381423
0.38639998 -0.11501944 0.015459687 16315885
0.38433039 -0.10514755 0.01527435 15987175
0.38258982 -0.094969854 0.015094998 16118505
0.38142622 -0.084991582 0.015172059 16184297
0.37864703 -0.073277615 0.016806467 15986918
0.38054684 -0.076437242 0.013761866 15855075
0.3783187 -0.064812243 0.015639829 15723746
0.38000008 -0.066095538 0.011047076 15526624
0.37791771 -0.054774079 0.015056118 15723747
0.37771884 -0.044974238 0.01501058 15658210
0.37759334 -0.035251532 0.015152332 15526881
0.38000005 -0.032156207 0.010784968 15329245
0.3777326 -0.025415512 0.016646853 15197915
0.38064277 -0.02410529 0.012053711 14868694
0.37862796 -0.015934179 0.017956801 14737366
0.38139746 -0.01450314 0.013542822 14737365
0.37900001 -0.0096369386 0.019502295 14408145
0.38415042 -0.0054450957 0.015464473 14408144
0.39090911 -0.0018685628 0.010963215 13684679
0.38718003 0.0038648166 0.018142452 14539731
0.39368743 0.0051444126 0.013267182 14211023
0.40000001 0.0090254359 0.010282419 13947594
0.38860002 0.010860847 0.019449893 14408145
0.39441335 0.014460751 0.016296066 14408146
0.40252632 0.015784279 0.011831628 14408145
0.39707696 0.022369914 0.018643407 14078926
0.40443057 0.025217289 0.01515417 14013645
0.41199997 0.02635541 0.010940979 14210766
0.40668967 0.032735333 0.018132681 14342867
0.41426924 0.035175227 0.014627649 14342609
0.42127275 0.038062867 0.011545608 14276559
0.41688892 0.043078329 0.017870458 14145230
0.42373085 0.045043923 0.014239333 14342609
0.43075001 0.048123762 0.010987822 14539731
0.42624331 0.054319348 0.017828232 14868696
0.4325833 0.055621084 0.013120444 14802903
0.42800003 0.060255982 0.019517642 15526626
0.43524995 0.064927369 0.015042119 15197661
0.44000003 0.067537092 0.010574912 15263454
0.43563381 0.07480333 0.016085118 15131868
0.44140911 0.074970432 0.01115726 14868696
0.43557146 0.081348494 0.017307714 14803418
0.44150001 0.081016406 0.012120585 13487556
0.39300001 -0.14032832 0.025124008 15920106
0.38899997 -0.13096708 0.026308674 15986665
0.39144191 -0.13577807 0.024371268 15986410
0.38818973 -0.12487974 0.025056086 16118250
0.38542697 -0.11492107 0.02524535 15855335
0.38263392 -0.1050458 0.024990257 15789541
0.37893754 -0.091248639 0.027538136 15855590
0.38076705 -0.09572354 0.024594124 15658211
0.37824085 -0.084353767 0.025507759 15724005
0.38013342 -0.088392474 0.02151802 15855589
0.3774088 -0.074980415 0.025157927 15591904
0.37612873 -0.065038234 0.025070904 15592416
0.37541485 -0.055130381 0.024934616 15460832
0.37451798 -0.044929802 0.025049703 15329502
0.37419719 -0.034918912 0.024946146 15000537
0.3746599 -0.02487327 0.024973942 14803159
0.37583318 -0.0148324 0.025046917 14605780
0.37748623 -0.0056555942 0.025952406 14539730
0.38069567 -0.0029363965 0.021603741 14342352
0.37824005 0.0037545625 0.028015304 14211280
0.38221684 0.0053774747 0.023531243 14408145
0.37900001 0.010769716 0.029261999 14079696
0.38458827 0.014918942 0.025076225 14342352
0.39020002 0.017483169 0.020626882 14473938
0.38658068 0.023934999 0.027184419 14210766
0.39400002 0.025733391 0.023014726 14079180
0.40000001 0.028455885 0.020817 13947594
0.38860005 0.030510416 0.029274676 14868696
0.39506665 0.034596454 0.026948223 14539731
0.40328261 0.035625499 0.022284722 14408402
0.39774996 0.043523233 0.028986553 14342352
0.40395924 0.045556821 0.026156489 14342609
0.41291177 0.045741595 0.022011712 14342610
0.40673912 0.053790424 0.028295642 14605524
0.41433334 0.055347782 0.024920242 14802903
0.4215 0.056667108 0.02147603 14802903
0.40900001 0.060453493 0.0296633 14868696
0.41502085 0.064685903 0.028028652 15197661
0.42398256 0.065451987 0.02323316 15329246
0.43000004 0.066577375 0.02011334 15329247
0.41761908 0.074065968 0.028657723 15066075
0.42431355 0.07491374 0.024608003 15132125
0.43029413 0.076104589 0.020719238 14869211
0.41900003 0.081549309 0.029407678 14802903
0.42413959 0.083143905 0.026407575 14868955
0.43108335 0.082050294 0.021171428 14935261
0.39253852 -0.14075369 0.033557877 15327970
0.38881823 -0.13187844 0.034838557 16052458
0.39111477 -0.13694689 0.034549043 15591652
0.38654563 -0.12503824 0.035245933 15986920
0.38441142 -0.11499316 0.035145588 15789542
0.38189098 -0.10492709 0.034847632 15592161
0.37843552 -0.092186533 0.035576843 15460576
0.38062108 -0.097379662 0.034314115 15592161
0.37726644 -0.084998623 0.034978408 15329247
0.37526444 -0.075034142 0.035119683 15395039
0.3741262 -0.064940475 0.035117663 15328989
0.37325644 -0.054930221 0.034931026 15131866
0.37306073 -0.044856321 0.034914199 14802902
0.3730745 -0.034814306 0.034917213 14277073
0.37254119 -0.025128206 0.034829739 13882314
0.37274075 -0.015111088 0.034915309 14079693
0.3742151 -0.0051319133 0.035020363 14211280
0.37592065 0.0050781919 0.034910049 14013644
0.37762743 0.014588919 0.035928216 14078925
0.3807666 0.017209882 0.031655613 13881802
0.37816337 0.024207225 0.038157236 14342096
0.38196385 0.025584718 0.033384129 14408145
0.37875 0.031267002 0.039328095 14539731
0.38375932 0.034939814 0.03513778 14539731
0.39130768 0.037335072 0.030775001 14737110
0.38638461 0.044208415 0.037741907 14342352
0.393803 0.045723602 0.033217434 14342352
0.38840002 0.051226027 0.039443601 14737108
0.39575765 0.054802109 0.03628635 14671317
0.40185291 0.056690119 0.032487992 14802903
0.39637843 0.064706586 0.038650718 15131868
0.404282 0.064983144 0.034098957 15065819
0.41114289 0.067371562 0.030918324 15131611
0.39725006 0.073595971 0.039077554 15065818
0.40460569 0.075142078 0.035479836 15131612
0.41318756 0.075281911 0.031142119 15131869
0.40653339 0.084751464 0.037874404 14934233
0.41379994 0.084368162 0.032981712 14934234
0.40600002 0.090424582 0.039424311 12761530
0.39272231 -0.14094526 0.045900296 15130848
0.38865861 -0.13215929 0.044986859 15657187
0.39120695 -0.13710731 0.044905983 15591651
0.38589984 -0.12500213 0.045152504 15789285
0.38402566 -0.11514806 0.044815991 15855335
0.38168034 -0.10499222 0.045074765 15789798
0.37836847 -0.092884928 0.045413435 15000795
0.38046929 -0.098198593 0.04457099 15329247
0.3771635 -0.085086733 0.045013543 15000281
0.37467211 -0.075216375 0.044884257 14934231
0.37320623 -0.065255433 0.044874139 14803159
0.37204337 -0.055048909 0.04493662 14737365
0.37270173 -0.044807836 0.044918876 14013899
0.37373504 -0.034875579 0.045044281 9672077
0.37375203 -0.024917588 0.045130063 8158841
0.37268186 -0.014831659 0.044830386 13223617
0.37215936 -0.0051038577 0.04484779 13684680
0.37306967 0.0049252626 0.044953812 13684679
0.3736062 0.014990577 0.045017328 13881802
0.37446779 0.024934642 0.045229614 14211279
0.37634963 0.034807287 0.045549642 14539988
0.38046673 0.037295017 0.040716063 14802903
0.37761301 0.044494729 0.047273155 14605524
0.38200009 0.045538276 0.042691678 14539731
0.37826675 0.054200515 0.048686408 14605524
0.38400003 0.055118307 0.04429562 14934488
0.39100006 0.057702582 0.040622652 15000280
0.37900001 0.060455479 0.049668655 15197661
0.38481188 0.064853847 0.046096444 15065817
0.39161304 0.065219089 0.041235216 15131867
0.38668004 0.074572593 0.046925731 15000540
0.39269388 0.075455584 0.04217105 14934746
0.3881579 0.081955887 0.048427995 14737882
0.39416662 0.08529117 0.045171339 14671831
0.40113336 0.085146494 0.041173507 14540245
0.3944706 0.09089607 0.047013517 14275793
0.40100002 0.090249717 0.041755021 14407889
0.39304769 -0.14109135 0.054976661 15328481
0.38854179 -0.13240923 0.054784026 15657701
0.39152947 -0.13750625 0.05515831 15394529
0.38562715 -0.12491219 0.055050645 15460321
0.38338587 -0.1151192 0.054918107 15460321
0.38093615 -0.10520995 0.055100441 15460576
0.37836498 -0.094440885 0.055076987 15131867
0.38000003 -0.099214107 0.051727142 15657697
0.37684721 -0.084955081 0.055037387 14868696
0.37450799 -0.075376846 0.05492888 14934231
0.37301672 -0.065374903 0.054995839 14737365
0.37200046 -0.055179033 0.054847278 14606036
0.37318221 -0.044864416 0.055022422 13421763
0.37381837 -0.034884851 0.055113807 2896171
0.37365949 -0.024808027 0.055088852 2698282
0.37333086 -0.014741999 0.055044204 11579306
0.3711741 -0.0050945817 0.055158969 13552839
0.37088144 0.0048945267 0.055115357 13355459
0.37068152 0.014872712 0.055083692 13421252
0.37118018 0.02488598 0.055158753 13684679
0.37218028 0.035002034 0.055180687 13948107
0.37390938 0.04476567 0.05468468 14145486
0.37518692 0.054845251 0.054979496 14605524
0.37723288 0.06449721 0.055980552 14737110
0.38082147 0.067497611 0.05162508 14934489
0.37840003 0.072712258 0.057764184 14868953
0.3819139 0.075736612 0.05386892 14868954
0.38483629 0.084800981 0.055188049 14671831
0.39033332 0.088611066 0.050544459 15000282
0.38677782 0.091374263 0.056010984 14868953
0.39100003 0.091202781 0.051010687 15656932
0.39282358 -0.14100638 0.065102637 14933466
0.38865003 -0.13223349 0.0646042 15394272
0.39121062 -0.13715425 0.065149501 15394786
0.38585445 -0.12498707 0.065020628 15197149
0.38318908 -0.11514977 0.064974383 15131100
0.38087618 -0.10509446 0.065072678 15263197
0.37839043 -0.094566196 0.064938456 15000026
0.37640172 -0.084979013 0.065091506 15197148
0.37379381 -0.075034022 0.064943321 14934488
0.37228823 -0.065246716 0.064908773 14868439
0.37163228 -0.055124108 0.064794831 14540245
0.37335545 -0.044998035 0.064888947 13158849
0.37286726 -0.034706544 0.064860553 3159344
0.37197074 -0.024975758 0.06476409 2501159
0.37349287 -0.015039752 0.064998068 9474188
0.37102449 -0.0050915619 0.065126643 13289667
0.37024984 0.0048845937 0.064990386 12895422
0.36899975 0.015298351 0.065717109 12895163
0.36999995 0.013805443 0.061828308 13026494
0.3690002 0.022988437 0.06779442 13092542
0.37041324 0.025862509 0.063990138 13421251
0.37101606 0.034898207 0.065082073 13553092
0.37175024 0.044941988 0.064813875 13881800
0.37271994 0.055095181 0.064982802 14013642
0.37442634 0.064952523 0.064887062 14474451
0.37676138 0.075097315 0.064877734 14605525
0.37814757 0.083366603 0.066896901 14079696
0.38133869 0.086604811 0.063290291 14474454
0.38332003 0.092321269 0.065285057 14606039
0.39200002 -0.14050734 0.071331844 13025725
0.38888231 -0.13182592 0.074767977 15196892
0.39083645 -0.1362876 0.074507505 14999515
0.38656083 -0.12511006 0.074978232 15065563
0.38386589 -0.11526865 0.075099885 14999771
0.3813026 -0.10513646 0.074898332 15131100
0.37824991 -0.094563715 0.074649073 14999770
0.38020006 -0.098910652 0.07718087 14802134
0.37540936 -0.085028455 0.074932165 14736855
0.37330726 -0.075143866 0.07489197 14736854
0.37162906 -0.065047838 0.074928589 14407889
0.37115765 -0.055075873 0.074885294 14276561
0.37318876 -0.044750828 0.074888356 12960957
0.36900002 -0.030114722 0.079456218 2502440
0.37188545 -0.034745667 0.074929461 3488565
0.36899999 -0.027739177 0.079132274 1449495
0.37054816 -0.02485403 0.074728541 2172961
0.37291509 -0.015233759 0.074947156 7763569
0.37132004 -0.005003422 0.075025894 12960958
0.37024277 0.0048845336 0.074957192 12632247
0.36900002 0.015895145 0.07272964 12435125
0.37015176 0.014312881 0.077407524 12040367
0.36900005 0.022435278 0.072401546 12500662
0.37049538 0.025768189 0.075938299 12171697
0.37099957 0.034800746 0.075036503 12698041
0.37135604 0.044893131 0.07475049 12895419
0.37270251 0.055093326 0.075023629 13224128
0.37445056 0.065025479 0.074970774 13487813
0.37549984 0.074808188 0.074746192 13750985
0.37709731 0.084926173 0.074932806 13947854
0.38000003 0.089971364 0.070260204 14277334
0.3785218 0.091047235 0.075803302 14210513
0.38047373 0.092990451 0.073299438 13355719
0.389 -0.13073528 0.081395075 14407378
0.39130145 -0.13435757 0.085078806 14341586
0.388221 -0.12438815 0.084400661 14341842
0.39021426 -0.12828596 0.088200465 14209999
0.38510567 -0.11493233 0.08499147 14276563
0.38213512 -0.10486895 0.085004121 14078927
0.37838897 -0.092659362 0.083923325 14012876
0.38057888 -0.097163036 0.085607551 13552840
0.3768678 -0.085128106 0.084859669 13486532
0.38000003 -0.089725181 0.089831114 12894652
0.37464419 -0.075024389 0.084934637 13289923
0.37337214 -0.065154761 0.084902726 13618630
0.37267512 -0.054949027 0.084614687 13881546
0.37400022 -0.044965439 0.084912933 12236722
0.36900005 -0.030402666 0.080608003 2305061
0.37191519 -0.034820084 0.08508721 3554099
0.36896235 -0.024147209 0.086211041 1712667
0.37000033 -0.02547677 0.084457703 1581081
0.36883333 -0.018732224 0.08805415 2107168
0.37239322 -0.014667125 0.084477283 6974823
0.37208971 -0.0051446324 0.085109822 12237235
0.37131032 0.004900082 0.085171968 11908783
0.37148711 0.014839926 0.085140832 11250595
0.37225005 0.02495933 0.084955938 11382437
0.37332156 0.035151064 0.085114777 11316646
0.37407768 0.044716623 0.084671453 11514023
0.37545213 0.054931927 0.084750794 11974061
0.37689897 0.065019563 0.085130349 12237490
0.37747109 0.07494919 0.084821522 12500150
0.38000003 0.078406729 0.089831114 11973550
0.37811697 0.084273197 0.08351405 12631993
0.38014293 0.085937671 0.087958105 11842219
0.37900004 0.090917587 0.081018008 13027010
0.38088894 0.091766685 0.08380191 12236981
0.39700001 -0.14020841 0.096638024 14077643
0.39513576 -0.13499673 0.094844587 13157824
0.38899997 -0.12190189 0.090799682 12894911
0.39224702 -0.12511463 0.0954879 12894909
0.38742861 -0.1140434 0.093194738 12829372
0.39103347 -0.11640709 0.097506426 12434358
0.38566676 -0.10480492 0.09442807 12500664
0.39039999 -0.10771815 0.099418506 11382183
0.38364366 -0.09499763 0.094856627 12040114
0.3784349 -0.083117299 0.09123344 12763066
0.38200006 -0.085437246 0.095711887 11842734
0.37762681 -0.074468777 0.093481921 12171443
0.3806923 -0.076659389 0.097844914 11711148
0.3762069 -0.064855598 0.094926096 12500407
0.37486795 -0.055087704 0.094766937 12960443
0.37529758 -0.045082662 0.094841145 11710890
0.36790001 -0.031597175 0.095407896 2304548
0.37295136 -0.036208022 0.094235323 4803654
0.36750376 -0.025090186 0.095154345 2041119
0.37 -0.029330157 0.090065666 2699306
0.36804351 -0.018460069 0.095056728 2172451
0.37388059 -0.012818716 0.094660617 7698546
0.37410736 -0.0052065598 0.094923548 11250340
0.37361678 0.0049315603 0.094885834 11316646
0.37445468 0.015154421 0.094972625 10987679
0.3760339 0.024721442 0.094819352 10922143
0.38000003 0.029479455 0.099616572 10461338
0.37725982 0.034532394 0.093592882 10856095
0.38078573 0.035622794 0.098390602 10658716
0.37796006 0.045035042 0.09223552 10658714
0.38167262 0.045238409 0.097329669 10395799
0.37825647 0.054593761 0.091486171 11250338
0.381845 0.055092014 0.096744269 10790301
0.37887502 0.064039834 0.090729371 11908525
0.38204715 0.065097377 0.095477596 11513766
0.3821919 0.074981779 0.094831839 11645098
0.38219732 0.083918393 0.093937024 11250599
0.39645454 -0.13284566 0.10063949 12171444
0.39578184 -0.12424658 0.10338504 10658462
0.39491424 -0.11478759 0.10354546 10592411
0.38900003 -0.10095682 0.1001546 11119012
0.39319989 -0.10519592 0.10375712 10856096
0.38844451 -0.093790881 0.10236237 10855840
0.39082146 -0.094961286 0.10572203 10198168
0.38714817 -0.086013138 0.1018626 10724511
0.39197722 -0.085503012 0.10713882 9210759
0.38560006 -0.074405283 0.10415904 10395290
0.3916429 -0.077936716 0.10764723 9605004
0.37854171 -0.062464491 0.10207792 11908271
0.3817544 -0.066077009 0.10544086 10789792
0.3778317 -0.054784808 0.10421074 12039600
0.38009098 -0.054315556 0.10910472 10329240
0.37787673 -0.045253005 0.10368262 10855839
0.38048384 -0.044267587 0.1087373 9934480
0.36775005 -0.031304557 0.10214561 1910047
0.37580708 -0.036158826 0.10455467 5263948
0.38057145 -0.038695153 0.1088037 8487291
0.3671588 -0.02506667 0.10243141 1646619
0.37575001 -0.028464461 0.10817845 660236
0.36805886 -0.018480718 0.10201142 1646364
0.37625465 -0.012985144 0.10462677 7171689
0.37698257 -0.005062093 0.10482007 10000787
0.3765797 0.0049760924 0.10486568 10263958
0.3777675 0.014560797 0.10460053 10067094
0.38020006 0.018636862 0.10797649 9342857
0.37855557 0.023066591 0.10206118 10856351
0.38143906 0.025794128 0.10630187 10461336
0.38450956 0.035123676 0.10504 10856094
0.38663644 0.044752758 0.10463688 10132117
0.39000005 0.047602177 0.1092377 9671566
0.38696596 0.054775085 0.10468363 10329751
0.39000002 0.051710665 0.10954203 9473673
0.38631076 0.06426885 0.10326945 10592923
0.3862142 0.074940287 0.10225032 10724252
0.38500002 0.081541412 0.10062687 10920867
0.39500001 -0.084482297 0.11002172 10790300
0.39500001 -0.078471735 0.11002172 8420728
0.38100001 -0.051430017 0.11093862 9802896
0.38172606 -0.043563075 0.11369691 9803151
0.37645447 -0.033177588 0.11740744 2436389
0.38107592 -0.035483655 0.1139917 5461584
0.37563545 -0.02498568 0.11772657 659978
0.38137841 -0.024729475 0.11325973 725773
0.37709403 -0.014835002 0.11549634 3750965
0.38087502 -0.017266685 0.11362783 1975326
0.37880006 -0.0046233619 0.1110073 9342600
0.38053998 -0.007163527 0.11460079 8750719
0.37855554 0.0051498273 0.1110538 8355962
0.38000003 0.0099085448 0.11296038 9671817
0.37892595 0.014743094 0.11158963 8421753
0.38000005 0.018677328 0.11105411 8158326
0.3827143 0.025155304 0.11095066 9342856
0.38742861 0.036409263 0.11154103 10132116
0.389 0.041105527 0.11108247 10198165
0.39040002 0.044728469 0.11154281 9737358
0.39100003 0.051385585 0.11073826 8223861
0.38300002 -0.041119993 0.12012843 9079685
0.3712565 -0.032728154 0.12481011 1448980
0.37163153 -0.025069065 0.12478599 1383442
0.37199989 -0.017190905 0.12484549 1054221
0.35833332 -0.032320295 0.13979411 2239007
0.3653903 -0.031968947 0.13805899 1054734
0.37083727 -0.032303795 0.13315006 1843993
0.35800001 -0.024607528 0.13994394 2370593
0.36499208 -0.024979288 0.13768542 1252115
0.37077966 -0.024987936 0.13245437 1778458
0.35800001 -0.01748381 0.13994394 1975582
0.36459187 -0.017282642 0.13870725 1186323
0.37272465 -0.016015735 0.13580015 1186324
0.35458419 -0.032650523 0.14479749 2501409
0.35457769 -0.02519777 0.14522511 2370080
0.35481545 -0.016309468 0.14551398 1975324
0.36225003 -0.013447689 0.14032358 1646618
0.37233338 -0.011354283 0.14118676 1119763
0.37500003 -0.0095352298 0.14176098 921610
0.34720001 -0.032410458 0.15563951 2238238
0.35064286 -0.03178262 0.15108049 2369565
0.34612507 -0.029463133 0.15742809 2172190
0.35100004 -0.024948074 0.15035476 2304031
0.35100004 -0.015909402 0.15035476 2040604
0.33871433 -0.031664919 0.16910587 2040858
0.34158981 -0.032244746 0.16438538 2041117
0.3377209 -0.024511684 0.16800392 1975065
0.34105369 -0.025405897 0.16374791 1975323
0.33758882 -0.015704121 0.16748033 1711895
0.34097171 -0.015886948 0.16345844 1646360
0.33426496 -0.031975489 0.17494546 2106651
0.33354875 -0.024956459 0.17505063 1975065
0.33388576 -0.015153588 0.17508878 1777429
0.83080006 -0.20122322 0.33798862 10395542
0.83236355 -0.19440955 0.33574134 10395542
0.83117378 -0.18475282 0.33573988 10461335
0.81760007 -0.22865114 0.34869519 2828330
0.83080006 -0.20083463 0.34265614 10329749
0.83178949 -0.19465789 0.34349257 10263956
0.83128577 -0.18683091 0.34191099 10329749
0.80777782 -0.22708061 0.35715607 2699562
0.81442302 -0.22529221 0.35494906 2566183
0.8305555 -0.18401201 0.35880286 10263956
0.8064999 -0.22588693 0.36553192 2107169
0.81270009 -0.22156858 0.36220187 2501928
0.80800003 -0.2191572 0.36881429 2305061
0.81462502 -0.21820843 0.36658537 2501929
0.80612898 -0.22510111 0.37532637 1186580
0.80783337 -0.21784998 0.3756721 2041889
0.81440008 -0.21394557 0.37516251 2501671
0.80587095 -0.22533318 0.38500264 857616
0.80757898 -0.21665357 0.38533691 1318166
0.81321067 -0.21204755 0.38441226 1778461
0.81780005 -0.20917802 0.38783509 2304292
0.80429435 -0.22474115 0.39447886 857617
0.80580646 -0.21496946 0.39525536 1120276
0.81100005 -0.21085732 0.39182499 1383703
0.80800003 -0.20969947 0.39718589 1251349
0.81562513 -0.20809445 0.39544061 1908507
0.80555999 -0.22520813 0.40466496 857615
0.80620015 -0.21489349 0.40479726 988434
0.80783343 -0.20934059 0.40435648 1119505
0.81450003 -0.20651665 0.40485972 1974044
0.80828577 -0.22518189 0.41138473 791822
0.811077 -0.22481033 0.4163745 857615
0.8082 -0.21542649 0.41052985 923151
0.81177783 -0.21490042 0.41583386 923151
0.81578577 -0.20735027 0.41424608 1645077
0.8216666 -0.20202303 0.41544595 7763822
0.81407428 -0.22503674 0.42530093 791564
0.81654167 -0.21517743 0.42512238 922639
0.82000005 -0.21089421 0.42900133 987665
0.81900007 -0.20871973 0.42176765 1051912
0.82173067 -0.20452727 0.42502388 5987411
0.80672002 -0.22613537 0.4362151 791566
0.81195009 -0.22393231 0.43229476 528393
0.80900002 -0.21942843 0.43934444 791309
0.81500018 -0.21679339 0.43496278 988432
0.82033342 -0.2120464 0.43547058 1053454
0.80661541 -0.22575061 0.44451365 857102
0.81150007 -0.22105464 0.44830111 922893
0.81444448 -0.21708255 0.44409713 790795
0.82091665 -0.21257026 0.44549569 4474429
0.80850005 -0.22757301 0.45374176 922127
0.81347066 -0.22376917 0.45543537 725003
0.82000005 -0.22049239 0.4587557 5856852
0.81725001 -0.21831556 0.45147642 922891
0.82313049 -0.21437263 0.45573002 7566955
0.81700009 -0.22382425 0.46153772 4145721
0.82025003 -0.22103953 0.46321648 8093043
