# .PCD v0.7 - Point Cloud Data file format
VERSION 0.7
FIELDS x y z rgb
SIZE 4 4 4 4
TYPE F F F U
COUNT 1 1 1 1
WIDTH 797
HEIGHT 1
VIEWPOINT 0 0 0 1 0 0 0
POINTS 797
DATA ascii
0.45485717 -0.023282574 -0.070299231 14144969
0.45400003 -0.014895963 -0.07049378 13356224
0.45400006 -0.0051670521 -0.070166759 14539983
0.45555556 0.0034671267 -0.070644408 11908268
0.45800003 -0.032286566 -0.062689148 13353143
0.45481837 -0.024881177 -0.06497205 14078406
0.45274997 -0.014852511 -0.064734049 14210248
0.45257905 -0.0050102021 -0.064935878 14211018
0.45464772 0.0048460909 -0.064852566 13685190
0.45823076 0.012858357 -0.062857755 12829882
0.46283337 0.01785348 -0.061239686 12171696
0.47560003 0.024282459 -0.062221695 10790555
0.48033333 0.027705858 -0.06205437 10790555
0.47576472 -0.044374052 -0.053510237 13221812
0.48000002 -0.049286824 -0.051711351 13156532
0.45641941 -0.03246231 -0.055312365 13090485
0.46293753 -0.03704121 -0.056504402 13156021
0.44842309 -0.022870285 -0.05242943 14210504
0.45236373 -0.026314678 -0.056131385 14078661
0.44749978 -0.014659841 -0.054266073 14276042
0.45025 -0.018168816 -0.058651712 14210249
0.44759542 -0.0053045414 -0.054726753 14276299
0.45000002 -0.0014344237 -0.05901397 14211020
0.4485153 0.0025646186 -0.052680038 13882055
0.45212284 0.006262504 -0.056192499 13618884
0.45723635 0.013505315 -0.054884017 13026747
0.46196002 0.018450219 -0.055178147 12829368
0.46608695 0.02211939 -0.053294979 12632503
0.47372225 0.027021959 -0.054067686 11974573
0.48000002 0.029371386 -0.059577171 10856348
0.47579995 0.031417165 -0.052224148 10921885
0.48019999 0.03140673 -0.058253568 10922141
0.49663639 -0.061143372 -0.042721316 13156532
0.4859412 -0.052042205 -0.043779701 13024689
0.49250001 -0.056737825 -0.043345485 13090739
0.46636364 -0.040940188 -0.044984777 12958896
0.47495452 -0.045088455 -0.046108853 12959153
0.48116669 -0.048844252 -0.045078523 12958896
0.44845459 -0.030873228 -0.042969842 13288118
0.45410004 -0.034014098 -0.045703717 13090483
0.46158338 -0.038842287 -0.044415906 12958896
0.4451139 -0.024767425 -0.044742946 13946820
0.45050001 -0.029383674 -0.049061157 13419707
0.44265595 -0.014883321 -0.044589154 14341834
0.43900001 -0.0085933078 -0.040100388 14342348
0.44250005 -0.0049026692 -0.044679362 14276299
0.44560501 0.0043919878 -0.044585302 13750213
0.45087504 0.0089866091 -0.048047222 13355968
0.44900003 0.010656611 -0.041539401 13092283
0.45552501 0.013514998 -0.046091165 12697782
0.4626897 0.018528482 -0.045027368 12171694
0.46703708 0.022021245 -0.044848714 11974573
0.47320005 0.026620362 -0.046293397 12435125
0.47766677 0.031391714 -0.046760775 12369588
0.4822647 0.035390668 -0.043777533 12040623
0.49000001 0.03916008 -0.040170584 13027262
0.49209097 0.044145424 -0.040760614 11514277
0.51490009 -0.072705008 -0.03250476 13024689
0.49793342 -0.061387196 -0.03709016 12893360
0.50466663 -0.06547685 -0.034999803 12761774
0.51062506 -0.068718761 -0.033044871 12761774
0.48594993 -0.052233644 -0.035913728 12629931
0.49360606 -0.05716604 -0.034752209 12695981
0.46658826 -0.041552171 -0.034460057 12564138
0.47424239 -0.045809716 -0.03473537 12564138
0.48075002 -0.049223371 -0.036457311 12761517
0.44747829 -0.031602718 -0.03559136 13024946
0.4542059 -0.035638232 -0.035580575 12695724
0.46075001 -0.038952194 -0.035350572 12629675
0.43824142 -0.022323828 -0.033099744 13881283
0.44210005 -0.026428288 -0.035760172 13551804
0.43710104 -0.014645891 -0.034773812 14342091
0.44000003 -0.019428387 -0.03916169 14079176
0.4372932 -0.0052078906 -0.034534041 14276556
0.44000003 -0.0020892462 -0.038818341 14276555
0.43828002 0.0021544932 -0.032649174 14013385
0.44253033 0.0058800438 -0.036031608 13487297
0.44684213 0.011157013 -0.035317432 12829368
0.456 0.014946618 -0.036311388 12236974
0.46380955 0.018765345 -0.035693817 11776937
0.46714288 0.022526162 -0.034889884 11842988
0.47333336 0.026569366 -0.035944682 12369332
0.48033336 0.029017219 -0.036006257 12500918
0.48707703 0.033227358 -0.0365941 12566711
0.49212497 0.037144627 -0.033974819 12698296
0.49550009 0.04382721 -0.035632137 12237745
0.50141662 0.047313839 -0.031518891 12698040
0.50450003 0.051539395 -0.030729912 11908011
0.52850002 -0.080867842 -0.024150394 12959152
0.53075004 -0.082299218 -0.022544265 12761773
0.51653576 -0.072821371 -0.025458816 12498600
0.52345002 -0.077340849 -0.024037916 12630186
0.50554281 -0.063140653 -0.025246629 12367016
0.51140743 -0.068032965 -0.024852362 12367015
0.48716667 -0.051163558 -0.026442334 12367016
0.49567643 -0.055342223 -0.025446042 12367016
0.50099999 -0.059202872 -0.023839237 12301223
0.46635717 -0.040948015 -0.027002294 12235430
0.4742963 -0.044512901 -0.025020368 12169637
0.48247063 -0.048347272 -0.025864834 12235430
0.43900001 -0.030689005 -0.020573959 12630701
0.44552633 -0.031970013 -0.024843657 12695981
0.45499995 -0.03554314 -0.027083248 12301223
0.4623 -0.038703427 -0.024685137 12235430
0.43507588 -0.023952764 -0.024585959 13552060
0.44166669 -0.028671745 -0.027249414 13156532
0.42899999 -0.012582131 -0.020272687 14342090
0.43211365 -0.01507915 -0.025181925 14276041
0.42888886 -0.007892848 -0.02043486 14276556
0.43201125 -0.0050079096 -0.025117433 14276556
0.43502402 0.0039532459 -0.024602478 13487555
0.44020003 0.0079746991 -0.029080804 12895162
0.44680005 0.011443883 -0.026179176 12500662
0.45852947 0.016504392 -0.022874549 11514023
0.46220005 0.01807077 -0.026339438 11447974
0.45900002 0.020564696 -0.020974007 11711402
0.46627775 0.022410994 -0.027555458 11777195
0.47800002 0.02701099 -0.027996747 12369330
0.48466671 0.028527012 -0.026118772 12500916
0.48850003 0.03103509 -0.029182948 12500916
0.49477276 0.035428766 -0.025024842 12500916
0.49881822 0.041563541 -0.026667565 12566709
0.50361109 0.045931283 -0.024733309 12566453
0.51000005 0.049115889 -0.020319656 12698295
0.50700003 0.051943153 -0.026872173 12434867
0.51215154 0.054706026 -0.022654243 12500917
0.51700002 0.060682781 -0.020598551 11909036
0.53118181 -0.081900403 -0.016247131 12630186
0.51771438 -0.071339697 -0.015172771 12367016
0.52513796 -0.076228455 -0.014606477 12564393
0.50615001 -0.062520429 -0.015483873 12367016
0.51281244 -0.067217156 -0.015029666 12301223
0.49687502 -0.055025339 -0.014784236 12235430
0.50117648 -0.059054404 -0.014997156 12301223
0.47550005 -0.043825511 -0.018942162 12235430
0.48600003 -0.048765171 -0.012537026 12367016
0.43790007 -0.03177559 -0.014273762 12564908
0.44058335 -0.034151834 -0.01626656 12433322
0.42816666 -0.022303738 -0.012271699 13354938
0.4324857 -0.025962492 -0.015425834 13091509
0.42641157 -0.015121266 -0.014787934 14013638
0.43000001 -0.01918816 -0.018742878 13947331
0.42629385 -0.0055407574 -0.014913129 14276811
0.42999998 -0.0012028984 -0.018809987 14145226
0.42812499 0.0013922928 -0.012235934 13750982
0.43255264 0.0051987437 -0.015237965 13158846
0.43500003 0.010324334 -0.011221413 11251108
0.45800003 0.016231148 -0.019320032 11119522
0.49809301 0.034385558 -0.015746726 12500916
0.50077778 0.038068235 -0.013763476 12566709
0.5049783 0.043243092 -0.015106134 12566709
0.51066673 0.048317175 -0.01423551 12369330
0.5150938 0.055041883 -0.015094108 12566709
0.51706678 0.061578475 -0.013741557 12500916
0.52900004 -0.08073736 -0.00043668461 12630186
0.53056258 -0.081727043 -0.0049147815 12630187
0.51825005 -0.070351496 -0.0056327716 12630186
0.52525008 -0.075509354 -0.0045888806 12695979
0.50833338 -0.060923427 -0.0029983856 12367016
0.51386362 -0.065896064 -0.0042338413 12498600
0.49850005 -0.055854987 -0.0081914905 12235430
0.50416672 -0.057476062 -0.002771314 12367016
0.428 -0.03092199 -0.0010228412 12433322
0.43320003 -0.03164072 -0.006788691 12498858
0.42589155 -0.024482951 -0.0040235273 13025716
0.43053848 -0.028082592 -0.0076187435 12762287
0.41900003 -0.011634917 -1.8918467e-05 14078917
0.42224309 -0.015286071 -0.0051090736 13881795
0.41888893 -0.0077090655 -0.00034587563 14211016
0.42199031 -0.0050741374 -0.005378454 14276554
0.4255273 0.0023539288 -0.0048426897 13552833
0.43214285 0.0075736479 -0.004556539 12303281
0.43623084 0.012059006 -0.0043682274 11777452
0.49900001 0.034038506 -0.0093678748 12698295
0.50305402 0.037118327 -0.0047894055 12500916
0.50613892 0.04232946 -0.0053517241 12500916
0.51183331 0.047398437 -0.0042123622 12566709
0.51694638 0.05445778 -0.005703277 12632502
0.52118182 0.057736158 -0.0016860805 12764088
0.51871431 0.062098648 -0.0090436982 12764088
0.52322584 0.062916093 -0.003731647 12566710
0.528 -0.081286326 0.0030634943 12564393
0.5237931 -0.074807599 0.0055356617 12630186
0.50730765 -0.060862057 0.0060050357 12367016
0.51423252 -0.06580244 0.0051847845 12498600
0.49847999 -0.052679058 0.0059046689 12235430
0.50293106 -0.057126235 0.0049690688 12301223
0.49644443 -0.049169127 0.0073348847 12235430
0.42600006 -0.031239035 0.006658609 12367529
0.41850004 -0.021092011 0.0091247307 13157815
0.42296812 -0.025365192 0.0051813489 12762543
0.41690689 -0.014429578 0.0057861093 13750210
0.42050001 -0.018638087 0.0026521154 13552574
0.41672635 -0.0054273983 0.0055402126 14079689
0.42020005 -0.0014375215 0.0015546597 13882567
0.41772729 0.0010242582 0.00851415 13290432
0.4230001 0.0027509986 0.0044458909 13158590
0.43155563 0.0077760592 0.0027866149 12105646
0.43400002 0.010300599 0.0026897425 11908266
0.49900001 0.029365834 0.0081546446 11909036
0.49900001 0.030534003 0.0087387292 11974829
0.50325006 0.036029167 0.0054495041 12435123
0.50758332 0.040961917 0.0045354334 12632245
0.51385719 0.046110786 0.0058457302 12763831
0.51842856 0.052182231 0.0054678405 12698039
0.52180004 0.056711495 0.0054554259 12631990
0.52361548 0.060705271 0.0048777293 11974317
0.52398187 -0.074596815 0.015274935 12498601
0.50671428 -0.060843471 0.014467186 12301223
0.51494867 -0.066206828 0.014970009 12432809
0.49659461 -0.052944817 0.015056452 12235430
0.50212497 -0.057487946 0.014964526 12235430
0.48610526 -0.045785017 0.016627496 11840672
0.49223077 -0.048416141 0.01282564 12235430
0.42880002 -0.031381506 0.011424473 12301223
0.43000001 -0.032677107 0.011657582 12169894
0.41617459 -0.023299009 0.015624931 12762287
0.42241669 -0.027392564 0.012627984 12433066
0.40900001 -0.011357233 0.019131061 13947587
0.41290712 -0.014959374 0.014821448 13552574
0.40900001 -0.0084848041 0.019131061 14079176
0.41227365 -0.0051558763 0.014715259 14013384
0.41452381 0.0011069095 0.013557849 13158334
0.49900001 0.029365834 0.011075065 12106158
0.49900001 0.030534003 0.010490981 12106158
0.50482005 0.035034526 0.014330035 12435123
0.51033336 0.039192419 0.017698856 12566710
0.509 0.040678531 0.01070122 12961467
0.51479363 0.045439921 0.015110508 12698295
0.51875007 0.051679209 0.01404434 12698295
0.52132362 0.05530617 0.015411687 12171951
0.51900005 -0.070301212 0.024883829 12301223
0.52223337 -0.074208103 0.02503546 12367016
0.50593758 -0.060760234 0.024624709 12367016
0.51470268 -0.066178747 0.024659887 12301223
0.49602443 -0.053205177 0.025070233 12169637
0.50170588 -0.058011509 0.024916351 12301223
0.48746154 -0.046016708 0.0253458 11774879
0.49150005 -0.048742183 0.025293967 11840672
0.41400003 -0.030879706 0.029056752 11775392
0.40883335 -0.021242624 0.028534157 12565165
0.41280892 -0.024739649 0.024907859 12301992
0.40743831 -0.01463251 0.025319237 13421500
0.41054553 -0.017866466 0.02103743 13158071
0.40735331 -0.0053267335 0.025113227 13882310
0.4101429 -0.0026101512 0.02055602 13882569
0.40786669 0.00095958757 0.027414884 12698295
0.41150004 0.0010977921 0.021654565 12763832
0.50566667 0.029758163 0.026416628 11711659
0.50750005 0.033502758 0.024089362 12106415
0.51093334 0.038003761 0.02565353 12435123
0.51644075 0.04515586 0.024711402 12632502
0.52100009 0.052495737 0.024245806 11777193
0.51800001 -0.071258061 0.034716964 12235430
0.52130765 -0.074464962 0.032455023 12169893
0.50678569 -0.060936417 0.034383897 12301223
0.51397622 -0.066161454 0.034982204 12367016
0.49745002 -0.052770458 0.033867992 12103844
0.5025 -0.057063162 0.035393234 12103844
0.48699999 -0.045448404 0.031140083 11774879
0.49272731 -0.048289683 0.033746298 11906465
0.41325003 -0.030823763 0.032863282 11841185
0.40772101 -0.0224673 0.035982143 12301993
0.41154543 -0.02696819 0.034414772 11972771
0.40360317 -0.014993981 0.034931768 13289402
0.40319997 -0.0050569004 0.034897439 13816261
0.40528002 0.001387 0.036985334 12698295
0.42600003 0.0091134524 0.039871711 11119263
0.43133333 0.014108571 0.039024804 11250851
0.51307893 0.037026085 0.034279212 12172209
0.5170449 0.044866953 0.035061087 12040366
0.52000004 0.051296271 0.030409757 10592919
0.51700002 -0.070030294 0.042337377 12432807
0.50787503 -0.060918499 0.044712458 12038051
0.51356757 -0.066260457 0.044685259 12103843
0.49770591 -0.051997352 0.044520218 12037794
0.50442308 -0.057475712 0.044492222 12038051
0.49446669 -0.048921775 0.046426121 11840415
0.41131032 -0.031874869 0.045573004 11709599
0.40618491 -0.024324488 0.044953264 12104614
0.41023523 -0.029186856 0.045120161 11775649
0.39804354 -0.012695265 0.046874452 13487039
0.40086657 -0.016179057 0.043685924 13092025
0.39794248 -0.0060314429 0.04684576 13881797
0.40044633 -0.0040526837 0.042802151 13816004
0.39900002 0.00012924365 0.04948749 13355455
0.4057326 0.0038388048 0.045701165 12435123
0.41121057 0.0070754266 0.043246154 11908779
0.4334828 0.016207224 0.042884674 11184544
0.51700002 0.038413148 0.042095315 12106417
0.51714295 0.043117277 0.042694874 11777194
0.5118627 -0.063960738 0.054341704 11972256
0.49744448 -0.051985562 0.052122414 11971999
0.50574368 -0.05682585 0.055227358 12037792
0.48775002 -0.046371497 0.055075593 11774621
0.49230003 -0.048361409 0.054607533 11840414
0.40760002 -0.030593833 0.05531624 11906465
0.41146153 -0.031653967 0.051920511 11709599
0.39795244 -0.021387726 0.05729584 12432811
0.40316057 -0.025596127 0.054640181 11972515
0.4106667 -0.029669696 0.050933715 11841185
0.39575988 -0.014686965 0.054918382 13289403
0.40000001 -0.019534983 0.050547928 12631217
0.39497554 -0.0051121027 0.055049751 13750212
0.39728951 0.0015496879 0.05605074 13289663
0.403851 0.0060572261 0.054691061 12303539
0.41710007 0.014103492 0.057625931 11053472
0.509 -0.060605612 0.06134329 12038049
0.51106894 -0.06320598 0.064706072 12169635
0.49900004 -0.05065367 0.065784261 11906464
0.50450903 -0.055720627 0.065126561 11972256
0.4954783 -0.04770254 0.064937524 11709086
0.40050006 -0.031435777 0.066396393 11709086
0.39616212 -0.022826022 0.065559782 12169894
0.40020913 -0.028108595 0.064212553 11774878
0.38899997 -0.012623179 0.068476781 13421246
0.39214128 -0.015446428 0.064439222 13223867
0.38899997 -0.0069108843 0.068405822 13552833
0.39159992 -0.0049773697 0.064175569 13618626
0.39475271 0.0034258594 0.065049753 12894904
0.4012 0.0093348389 0.066475227 11777193
0.40400001 0.011167202 0.068383962 11382437
0.41798311 0.015728911 0.064177267 11053472
0.50618744 -0.061085556 0.075732924 12367014
0.51046169 -0.063170351 0.072228156 12235428
0.49861112 -0.051976085 0.076366194 12103585
0.50322008 -0.056153838 0.074611135 12038049
0.49622229 -0.048311472 0.075225979 11906206
0.40000001 -0.03077187 0.072085291 11511707
0.38866669 -0.021306902 0.078635193 12763059
0.3940424 -0.024840411 0.074545011 11972514
0.40000004 -0.02925021 0.071265936 11774879
0.38715523 -0.014913782 0.075239338 13092537
0.39016667 -0.019206915 0.071530528 12762800
0.3871251 -0.0053899027 0.074990921 13092539
0.39000002 -0.00078666862 0.07028316 13421248
0.38839397 0.0014491926 0.076851405 13093053
0.39310291 0.0054887119 0.075279884 12632761
0.40000004 0.0093598673 0.072486617 12435380
0.39771432 0.010769757 0.078853615 11909808
0.40131032 0.012379891 0.074785076 11842987
0.50200003 -0.060947329 0.084121011 12301478
0.49809086 -0.053611573 0.085522033 12038307
0.50039136 -0.058104422 0.083912268 12301479
0.49504003 -0.048099179 0.085729524 11840672
0.38775003 -0.031077534 0.088144653 11116181
0.38657624 -0.024738321 0.085325874 11183001
0.39100003 -0.027333489 0.080532096 11906463
0.37863338 -0.01299665 0.088118479 2172960
0.38199037 -0.01569706 0.083999723 2896171
0.37849998 -0.0060186866 0.087944955 2238240
0.38175002 -0.0047005196 0.083456807 3158829
0.38575301 0.0029186681 0.085423708 12632503
0.39190477 0.0078190276 0.084142454 12501431
0.39425001 0.011849065 0.085898831 12303539
0.40600002 0.015338765 0.080770195 11053475
0.4157778 0.018634183 0.083152138 11053729
0.41866675 0.021885343 0.084829614 11250850
0.42011768 0.024376638 0.083867542 11908779
0.49682698 -0.054601245 0.094899401 12103844
0.5 -0.05894874 0.090106614 12367016
0.48693335 -0.044834454 0.098086171 11643293
0.49249998 -0.047473084 0.093866035 11774879
0.38475001 -0.031398937 0.097483106 11774625
0.37866667 -0.020413922 0.098527275 4473399
0.38346329 -0.02505045 0.094928689 10525070
0.37679711 -0.01457946 0.095323659 2107167
0.3804445 -0.019173779 0.091716133 1908759
0.37675694 -0.0052419682 0.095114052 2106654
0.37845457 0.00036435193 0.097356483 10460816
0.38387173 0.0049717124 0.094830811 12040108
0.39000002 0.0089519667 0.090673424 12369330
0.38697374 0.01519291 0.097137302 11908523
0.39145461 0.01349875 0.093097419 12171952
0.38230437 0.021835759 0.096715428 11777193
0.49673584 -0.054172188 0.10436963 12103845
0.48706669 -0.044770416 0.10168712 11774622
0.49199995 -0.047640793 0.10623217 11840415
0.3842693 -0.032399796 0.10584109 11774880
0.37772974 -0.021341046 0.10530439 7565673
0.38198906 -0.026344391 0.10480227 10985879
0.36900002 -0.011974173 0.10969047 1909275
0.37220445 -0.014763768 0.10493401 2106910
0.36900002 -0.0076549947 0.10969047 1581080
0.37211859 -0.0051003154 0.10485718 2106398
0.37715796 0.0020788489 0.10568496 10856090
0.38163751 0.0071954252 0.1046292 12501172
0.38377997 0.013950323 0.10472063 12303279
0.38154545 0.021559864 0.10115816 11777193
0.79244447 -0.17488164 0.11504718 12565684
0.79234624 -0.16504136 0.1151061 12894391
0.79327273 -0.10812878 0.11543489 13158847
0.49271789 -0.052841168 0.11389332 12235173
0.49193752 -0.04821033 0.11290674 12037537
0.38363215 -0.034152836 0.11557613 11775136
0.3769286 -0.02337002 0.115701 8618360
0.3809807 -0.027406972 0.11386672 11117207
0.3681047 -0.013569945 0.11513355 1646873
0.37117144 -0.018649986 0.11455319 2040861
0.36821482 -0.0053944439 0.11535334 1975325
0.37086663 -0.0013263063 0.11192153 1778204
0.36900002 0.00011952608 0.11919266 9209981
0.37704617 0.0053141862 0.11506075 11053213
0.38042861 0.0089023802 0.11168753 12500402
0.37869233 0.011648037 0.11836764 12829365
0.38144049 0.014700802 0.1150014 12697779
0.38200003 0.020691922 0.11936765 11316640
0.78900003 -0.1813723 0.12864311 13880264
0.79296154 -0.18559486 0.12497833 12104368
0.78819048 -0.17459723 0.12604895 15855336
0.79033333 -0.17654027 0.12125402 14276048
0.78782123 -0.1651392 0.12537359 16118763
0.79000002 -0.16460527 0.12043981 16250091
0.78785717 -0.15493567 0.12643433 16053482
0.79049999 -0.15519127 0.12117636 16052455
0.78828567 -0.14526668 0.12623979 16250347
0.79124993 -0.14515193 0.12129103 15921126
0.7879566 -0.1351236 0.12643951 16118505
0.79070002 -0.13487072 0.12120678 15328989
0.78769559 -0.12489659 0.12567425 15526626
0.79028571 -0.12634258 0.12074746 15526368
0.78753561 -0.11497181 0.1253272 15395295
0.79028571 -0.11603407 0.12048326 15592930
0.78496552 -0.10493526 0.12617965 15132122
0.79000002 -0.10608485 0.1201756 15527394
0.78100002 -0.09847711 0.12794819 15197659
0.38500002 -0.040733859 0.12946822 11774879
0.3788667 -0.03103826 0.12693192 11445660
0.38194984 -0.034925181 0.12470641 11775136
0.37675005 -0.025426475 0.12499113 9472898
0.38000003 -0.029233279 0.12052186 11380380
0.3654573 -0.014467524 0.12538359 1778201
0.37060001 -0.019487619 0.12300588 1908764
0.36600706 -0.005364324 0.12519008 1843736
0.36899999 0.00011952608 0.12293594 8355186
0.37391898 0.0054178769 0.12488573 10263439
0.37715241 0.014486792 0.12556003 12763573
0.38052636 0.017846368 0.12211803 12368815
0.37828571 0.020996723 0.12839045 12698294
0.38120002 0.021243829 0.12324988 11579557
0.78860009 -0.18158853 0.1347312 13617348
0.79119998 -0.1868193 0.13517554 13682884
0.78543347 -0.17442814 0.13510729 14473684
0.7827 -0.16465525 0.13463648 14671320
0.78341675 -0.15471604 0.1347595 14539990
0.78519988 -0.14496024 0.13506807 14737111
0.7851944 -0.13485019 0.13506784 14079179
0.78430009 -0.12459945 0.13491453 14079178
0.78316689 -0.115252 0.13472027 13881799
0.77900004 -0.10065647 0.13187574 13881797
0.78142852 -0.10552369 0.13546796 13684420
0.77900004 -0.09822493 0.13491516 13618625
0.78100002 -0.098477118 0.13800521 13684420
0.38466668 -0.040798996 0.13215677 11775392
0.3782728 -0.032080088 0.13253222 11183514
0.3817021 -0.036745403 0.13302718 11709857
0.36625004 -0.020458914 0.13223577 1382672
0.37591815 -0.02656208 0.13264836 9341825
0.3640165 -0.015295584 0.13294354 1712408
0.3708823 -0.014486303 0.1390557 1185551
0.36263275 -0.0046950961 0.13208969 1974551
0.37150002 -0.0074908994 0.13913333 987659
0.37368754 0.0063441279 0.13284557 9539718
0.37542632 0.014784092 0.13253124 12105903
0.37800002 0.021183174 0.13041791 12566709
0.78850001 -0.18156563 0.14486697 14341585
0.79088235 -0.18663484 0.14503165 13223104
0.78571999 -0.17449152 0.14527731 14605525
0.78263998 -0.16464303 0.14470802 14539732
0.78316689 -0.154667 0.14480539 14605524
0.78503996 -0.14493011 0.14515093 14342352
0.78599995 -0.13498773 0.14532942 14144972
0.78599983 -0.12486757 0.14533065 13947593
0.78651726 -0.11498102 0.14555369 14013386
0.78583997 -0.10497496 0.14500912 13947592
0.78440011 -0.097804606 0.14393672 13881799
0.36100003 -0.021433309 0.14956774 2698280
0.37400004 -0.02001629 0.14488511 4474176
0.36100003 -0.018897984 0.14956774 1186065
0.37388095 -0.014468461 0.14515708 791307
0.36814821 -0.0025636433 0.14684714 1511434
0.37296483 -0.0067459736 0.14480379 593415
0.78880006 -0.18163434 0.15507907 14210767
0.79074997 -0.18682836 0.1551141 13223359
0.78680009 -0.17472957 0.15468629 14539733
0.78446442 -0.16482997 0.15481882 14671318
0.78484845 -0.1552508 0.15480383 14737110
0.78607994 -0.14512222 0.15454474 14539731
0.78733349 -0.13521609 0.15479112 14276557
0.78808004 -0.1251983 0.15493721 14079178
0.78853321 -0.11511744 0.15502736 14013385
0.7886399 -0.10497911 0.15504825 14013385
0.78871435 -0.098658554 0.15638117 13881799
0.36100003 -0.021912206 0.1547792 2698790
0.359 -0.012303334 0.1592911 988686
0.36156031 -0.014796245 0.15492387 1186064
0.37364292 -0.013001547 0.15086944 593928
0.35900003 -0.0092964787 0.15932846 857101
0.36283085 -0.0054184604 0.15516581 1118731
0.37100002 -0.0085650031 0.15023682 527878
0.36611116 0.00050017628 0.15330377 4995121
0.78900003 -0.18168014 0.16527654 14277075
0.79046667 -0.18664521 0.16465804 13289410
0.78773344 -0.17493559 0.16501166 14474452
0.78611106 -0.1655778 0.16518323 14539731
0.7863031 -0.15503673 0.16513106 14671317
0.78758067 -0.14522097 0.16513011 14737110
0.78825712 -0.13524359 0.16499031 14605524
0.7888748 -0.12594008 0.16440441 14473938
0.79000002 -0.12242126 0.16764365 14539731
0.78900003 -0.11663715 0.16118659 14144972
0.79004353 -0.11489569 0.16553545 14276558
0.78900009 -0.10385163 0.162338 14013386
0.79000002 -0.10629824 0.16612618 14144973
0.78900003 -0.097177006 0.16419907 13881801
0.79000002 -0.099611931 0.16733542 14144973
0.34425813 -0.02177527 0.16752963 1383443
0.35900003 -0.02089435 0.16806889 724746
0.36155939 -0.022192823 0.16448785 1054221
0.34537509 -0.015165403 0.16797641 988685
0.35569099 -0.014140227 0.16484219 1120528
0.36064103 -0.017613934 0.16297019 1186577
0.34731516 -0.0056872899 0.16813913 856844
0.35562602 -0.0061322697 0.1648107 988430
0.36046878 -0.003705242 0.16208427 857358
0.3486923 0.0010552977 0.16832849 3224626
0.35433337 0.0005279649 0.16670077 7303268
0.7887333 -0.18254258 0.17537576 14144974
0.79007691 -0.18726358 0.17439395 12499381
0.78744006 -0.1748704 0.17508833 14474708
0.78700012 -0.16463718 0.17499205 14540501
0.78816003 -0.1547316 0.17524992 14802903
0.78893304 -0.14472634 0.17542087 14868696
0.78899986 -0.13493186 0.17481965 14605524
0.79000002 -0.13290121 0.17889418 14671317
0.78900003 -0.12903886 0.17266479 14473938
0.7900002 -0.12500565 0.17523095 14539731
0.79008371 -0.1153435 0.17475118 14539731
0.79016691 -0.10518257 0.17476937 14473938
0.79000002 -0.097234122 0.17495319 14210766
0.33791119 -0.022323018 0.17745775 1317651
0.34107673 -0.023082059 0.17258236 1580311
0.33697501 -0.015016543 0.17758237 1252115
0.34104463 -0.014914034 0.17257401 1252371
0.33752626 -0.0064472016 0.17797384 1120529
0.34250444 -0.0056672264 0.17293938 1186066
0.34800002 0.0013347352 0.17025121 3685685
0.788625 -0.18240231 0.18492883 14145230
0.79039997 -0.187554 0.18499884 12104877
0.78786212 -0.17509012 0.18516821 14540501
0.78843325 -0.16493699 0.18453935 14803417
0.78892314 -0.15559269 0.18280602 14737367
0.79000002 -0.15432344 0.18690826 14737367
0.78900003 -0.14658594 0.18097657 14934489
0.79007709 -0.14465193 0.18549217 15000282
0.78900003 -0.13458005 0.18097657 14802903
0.79000002 -0.13475062 0.18582948 15000282
0.78900003 -0.12349766 0.18282361 14934489
0.79000002 -0.12575577 0.18515697 14868696
0.78899986 -0.11385189 0.18477331 14671317
0.79000002 -0.11733539 0.18475063 14737110
0.78900003 -0.10748978 0.18590207 14737110
0.79000002 -0.10377307 0.18421124 14671317
0.78900003 -0.099485844 0.1846707 14802903
0.79000014 -0.095759034 0.18490477 14605524
0.33319512 -0.022199119 0.18365857 1317649
0.3333554 -0.014614977 0.1842263 1317395
0.33429235 -0.005482465 0.18407176 1185810
0.33400002 0.00010818892 0.18294953 2105629
0.78882354 -0.1826719 0.19505781 14342609
0.79049999 -0.18757786 0.19519995 12105134
0.78834617 -0.17492707 0.1953782 14408659
0.78899974 -0.16617802 0.19436777 14474708
0.79000002 -0.1613358 0.1966947 14671574
0.79037958 -0.15529527 0.19501166 14803160
0.79170012 -0.14523369 0.1945716 14934746
0.79136008 -0.13498352 0.19448806 14934489
0.790483 -0.12487821 0.19484626 14737110
0.79030329 -0.11495585 0.19490038 14802903
0.79000026 -0.10516017 0.1950765 14868696
0.79000032 -0.095734164 0.19510624 14868696
0.78900009 -0.18193202 0.20465259 14210766
0.79057139 -0.18680212 0.20566167 12828858
0.7889598 -0.17520647 0.20497817 14473938
0.7889998 -0.16622102 0.20538993 14868439
0.79000002 -0.16143487 0.2039272 14868696
0.79110718 -0.15477893 0.20527028 14868696
0.79312509 -0.1454362 0.20484179 14869210
0.79282749 -0.13516963 0.20489524 15066075
0.79161763 -0.12505332 0.20501494 15197661
0.79112017 -0.11456963 0.20553975 15197660
0.79012007 -0.10517658 0.20527983 15066075
0.78900003 -0.092559345 0.20498838 14934489
0.79000002 -0.096529588 0.20524816 14868696
0.78900003 -0.087479934 0.20683545 14408145
0.79000002 -0.088515505 0.20524818 14802903
0.78900009 -0.18159617 0.21472745 14935259
0.79100007 -0.18677159 0.21476674 13025724
0.78846663 -0.17509794 0.21500094 14934746
0.78855538 -0.16496205 0.21502551 14737110
0.78900003 -0.15689872 0.21714823 14934489
0.79017651 -0.15393133 0.21378089 14539989
0.79171878 -0.14500327 0.21461092 14079694
0.79280764 -0.13530101 0.21504234 14079180
0.79233325 -0.124947 0.21512897 13947594
0.79211998 -0.11471455 0.21507166 13881801
0.7912401 -0.10532614 0.21483359 13816008
0.78900003 -0.092097588 0.21052958 14934489
0.79051858 -0.095427141 0.21477509 13816008
0.78900003 -0.087787777 0.21114527 14473938
0.79100001 -0.086981297 0.21620929 13684679
0.78900003 -0.18075661 0.22438255 14737110
0.79072005 -0.18559539 0.22505665 13289409
0.78879988 -0.17517158 0.22524972 15000539
0.78883308 -0.16502108 0.22525911 14935003
0.78899986 -0.15560137 0.22530611 14869209
0.79000002 -0.15139525 0.22448201 15132124
0.79050028 -0.1450123 0.2248092 14605781
0.79180008 -0.13505624 0.22517757 14671317
0.79271859 -0.12523855 0.22485927 14210766
0.79282135 -0.11461736 0.22513695 14079180
0.79238451 -0.10526318 0.22456175 14210766
0.78900003 -0.18075661 0.23269433 14737110
0.79070848 -0.18500696 0.23512667 13157823
0.7889998 -0.17521544 0.23454142 14803159
0.78899974 -0.1650566 0.2345414 14935002
0.78899992 -0.1563102 0.23421547 14803416
0.79000002 -0.15208876 0.23553219 14869209
0.7905336 -0.14501847 0.23499738 14672087
0.79164004 -0.13502912 0.23532638 14606294
0.7924999 -0.12475421 0.23492578 14408915
0.7921111 -0.1149196 0.23505233 14277072
0.79285699 -0.10474298 0.23462543 14145486
0.78900003 -0.18144926 0.24631645 14210767
0.79109526 -0.18591321 0.24451172 12565943
0.7887665 -0.175164 0.24462676 14606037
0.78888863 -0.1650327 0.24466552 14803673
0.78900003 -0.15785305 0.24156025 14803416
0.79000014 -0.15450227 0.24563915 14737880
0.79094309 -0.14517345 0.24517109 14672087
0.79166675 -0.13503453 0.24501228 14474708
0.79127282 -0.12520134 0.2451506 14408915
0.78900003 -0.11241528 0.24931793 14606294
0.79033363 -0.11519572 0.24492727 14408915
0.78900003 -0.10733585 0.24885616 14606294
0.79038483 -0.10485506 0.24448769 14408657
0.79148656 -0.095090449 0.24529214 14342351
0.79210007 -0.0855987 0.24510042 14145228
0.78900003 -0.18168016 0.25485912 14276560
0.79106247 -0.18690214 0.25517765 11644072
0.7880401 -0.17500244 0.25454879 14408659
0.7888146 -0.16552983 0.25500453 14803416
0.79000002 -0.16064227 0.2533327 14803160
0.79008019 -0.15510942 0.25520772 14868696
0.79080671 -0.14497977 0.25526181 14868953
0.7911787 -0.13495156 0.25496584 14540244
0.79040015 -0.12556824 0.25531071 14342865
0.78899986 -0.1132902 0.25534514 14342866
0.79000002 -0.11861036 0.25434142 14408658
0.78899997 -0.10661022 0.25380364 14474451
0.79000002 -0.10314261 0.2565271 14474451
0.79093355 -0.095098846 0.25548586 14540500
0.79137504 -0.087049283 0.25447038 14474706
0.78900003 -0.18102048 0.26435828 14276304
0.79090482 -0.18578026 0.26543698 11973294
0.78856659 -0.17512029 0.26487303 14277329
0.78872204 -0.16499789 0.26492375 14737880
0.78895813 -0.15519719 0.26600417 14934489
0.79000002 -0.15386112 0.26134679 14934489
0.78899986 -0.14492358 0.26741913 14934489
0.79000002 -0.14469117 0.26234853 14868696
0.78900003 -0.13619621 0.26848119 14802903
0.79000002 -0.13416217 0.26409289 14737110
0.79000026 -0.12550355 0.26535383 14473938
0.78900003 -0.11518587 0.2617856 14276559
0.79000032 -0.11533184 0.26575845 14276559
0.79159272 -0.10495691 0.26517057 14210765
0.78900003 -0.18157753 0.27558726 13947595
0.79122227 -0.1867217 0.27512753 10854553
0.78807998 -0.17501216 0.27485517 14211536
0.78783339 -0.16481203 0.27476919 14737880
0.78808004 -0.15471701 0.27485549 14737623
0.78856659 -0.14465833 0.27502459 14868952
0.7889998 -0.13458005 0.27517673 14737366
0.79000014 -0.12550358 0.27552551 14408915
0.79000026 -0.11533184 0.27552554 14343122
0.7915625 -0.10501763 0.27490908 14014156
0.78900009 -0.18159617 0.28491589 13619145
0.79100007 -0.1867716 0.28513303 10065553
0.78780001 -0.1749499 0.28490171 14145230
0.78713918 -0.16466661 0.28466141 14803160
0.78783339 -0.15466812 0.28491303 14803416
0.78820008 -0.14472286 0.28491452 14803417
0.78896135 -0.13549675 0.28567669 14606294
0.79000002 -0.13105181 0.28477257 14606294
0.78900003 -0.12811533 0.28995332 14145743
0.79000014 -0.12550358 0.28477257 14408915
0.78899997 -0.112943 0.28757849 14474708
0.79000002 -0.11660882 0.28397995 14408915
0.78899997 -0.1060825 0.28784233 14540501
0.79000002 -0.10423543 0.28350115 14474708
0.79040033 -0.095035516 0.2849158 14211536
0.79100001 -0.088164613 0.28744772 14408915
0.78900003 -0.18075661 0.2954945 13684938
0.79100001 -0.18567799 0.29489732 10724254
0.78788 -0.17496859 0.29507533 13881802
0.78596658 -0.16534247 0.29527792 14473938
0.78583324 -0.15519418 0.29522654 14802904
0.78769237 -0.14556165 0.29521629 15066075
0.78820002 -0.13536555 0.29519412 14803160
0.78851992 -0.12526819 0.29531333 14343122
0.79000002 -0.12365419 0.29032081 13816778
0.78836662 -0.11509408 0.29525617 14145743
0.79000002 -0.11995538 0.29032081 14277329
0.78840005 -0.10494679 0.29526845 14343122
0.78885698 -0.095421992 0.29667181 14343122
0.79000002 -0.094187014 0.29192364 14540501
0.78900003 -0.087787777 0.29857293 14408915
0.79042327 -0.084647737 0.29481649 14408915
0.79121065 -0.075002506 0.29797912 14079950
0.79153329 -0.064597927 0.29829547 14014157
0.79235303 -0.05571695 0.29718554 13750984
0.79175001 -0.049324542 0.29837734 13750983
0.78900003 -0.18075661 0.30103567 13750215
0.79195833 -0.18530045 0.30525437 10986913
0.78810722 -0.17482111 0.30497858 13684422
0.78612 -0.1653751 0.30545831 14013900
0.78563321 -0.15515555 0.30526945 14211025
0.7869311 -0.1451522 0.3050099 14737367
0.78777784 -0.13529378 0.30518031 14803160
0.78800005 -0.12518588 0.30526593 14539988
0.7877779 -0.1150083 0.30518019 14408145
0.7877667 -0.10486224 0.30517572 14145230
0.78811431 -0.094892785 0.3051784 14211023
0.78899986 -0.085681476 0.3052159 14014157
0.79000002 -0.081734359 0.30357483 14277329
0.78900003 -0.079168148 0.30842394 13948364
0.79000026 -0.074485533 0.30498853 14079949
0.78900003 -0.060697515 0.30842394 13422020
0.79008347 -0.064633884 0.30499369 13816777
0.78900003 -0.055464167 0.30811611 13422020
0.79054546 -0.054927465 0.30364233 13948363
0.78900003 -0.048691601 0.30842394 13290434
0.79050004 -0.04878388 0.30345678 14014155
0.78849989 -0.17451829 0.31510851 13552838
0.79000002 -0.17913631 0.31621248 13684938
0.78692603 -0.1651354 0.31518757 13882316
0.78625 -0.15494929 0.31451532 13882316
0.78716004 -0.14532132 0.31507665 14408916
0.7881667 -0.13535962 0.31547913 14606037
0.78843993 -0.12525624 0.31558931 14539731
0.78800005 -0.1150399 0.3154119 14408145
0.78831995 -0.10493568 0.31554085 14408145
0.78887069 -0.09470357 0.31558239 14145230
0.78876656 -0.084684685 0.31479442 14014157
0.78866649 -0.075442128 0.3147541 13948364
0.78866649 -0.065287568 0.31475404 13619399
0.78887498 -0.056532294 0.31356829 13224641
0.78869992 -0.17422634 0.32492456 13618888
0.79000002 -0.17913631 0.32545945 13421768
0.78803331 -0.16485487 0.32465044 13816010
0.78788012 -0.15467805 0.32458732 13750216
0.78818524 -0.14510125 0.32491755 13882060
0.78867847 -0.13511749 0.32471815 14145489
0.7889998 -0.12534474 0.32504749 14277074
0.78813338 -0.11506007 0.32469067 14277073
0.78847992 -0.10495639 0.3248333 14079951
0.78889978 -0.09485659 0.32500616 14277329
0.78800005 -0.084601969 0.32463554 14145743
0.78753579 -0.07513722 0.32503557 14079950
0.78669441 -0.065124996 0.3250162 13948108
0.78600001 -0.058626685 0.32749164 13816779
0.78900003 -0.1738961 0.33138031 13224131
0.79084218 -0.17582004 0.33633184 12895422
0.78899992 -0.16459483 0.33220491 13750217
0.7903077 -0.16554354 0.33711448 13224385
0.78899992 -0.15489772 0.33243576 13618374
0.79009998 -0.15511368 0.33752343 13421509
0.78899986 -0.14473888 0.33243579 13487560
0.79008335 -0.14493811 0.33751631 12829887
0.78899992 -0.13469549 0.33266664 13750731
0.79000002 -0.13454512 0.33758336 13158851
0.78899997 -0.12534472 0.33230382 14211281
0.79000002 -0.12550358 0.33722845 13553352
0.78877777 -0.11515435 0.33234254 14013901
0.79025006 -0.11536807 0.33758771 13685195
0.78855544 -0.10476238 0.3328647 13882316
0.79000002 -0.10568853 0.33787689 13685195
0.7889998 -0.095036097 0.33310741 13816779
0.79000002 -0.09452606 0.33794296 13158594
0.78850001 -0.084656343 0.33314896 13816780
0.79000002 -0.084816694 0.33840528 12961215
0.7882728 -0.075656541 0.33447912 13553352
0.78762972 -0.065646872 0.33554903 13421766
0.79234505 -0.075026438 0.34510815 10000787
0.78900003 -0.062913999 0.34204048 10330524
0.79153341 -0.065092035 0.34635314 9079942
