# .PCD v0.7 - Point Cloud Data file format
VERSION 0.7
FIELDS x y z rgb
SIZE 4 4 4 4
TYPE F F F U
COUNT 1 1 1 1
WIDTH 533
HEIGHT 1
VIEWPOINT 0 0 0 1 0 0 0
POINTS 533
DATA ascii
0.81200004 0.19732523 -0.15464321 8417641
0.8164444 0.20201546 -0.15442854 6114886
0.81044441 0.19673532 -0.14549473 9206644
0.81466669 0.20178652 -0.14657202 6246727
0.82000005 0.20566653 -0.14976853 6182474
0.81000006 0.18893673 -0.13087608 12895163
0.81071436 0.19642451 -0.13383684 9405822
0.81287503 0.20173863 -0.13467011 5786691
0.80812001 0.15539148 -0.12489693 12764090
0.80850005 0.18101539 -0.12495381 12894906
0.81063169 0.18583889 -0.12518433 12829626
0.81254166 0.19444507 -0.12542091 11183005
0.81325001 0.20016587 -0.1247363 5719875
0.80818743 0.15516737 -0.1171023 12764089
0.81068766 0.15541109 -0.11177046 12764090
0.81020004 0.1629983 -0.11080326 12829883
0.81 0.18704049 -0.11807655 12894906
0.81271428 0.1945112 -0.11536784 11512228
0.81720006 0.20152156 -0.11520094 5655108
0.82000005 0.2037469 -0.11233565 5721669
0.81000006 0.14816789 -0.10717326 12894906
0.80900002 0.15177274 -0.10041235 12764090
0.81160867 0.15482475 -0.1047859 12763833
0.8084166 0.16774918 -0.10507076 12698297
0.81136847 0.16281106 -0.104706 12698297
0.80820006 0.19135487 -0.10409802 13289665
0.81281829 0.19556421 -0.10486961 10262673
0.81900007 0.20158114 -0.10836408 5392705
0.82000005 0.2037469 -0.10849639 5655876
0.81000006 0.15859714 -0.098640248 12829883
0.81000006 0.16144146 -0.098640248 12698297
0.81100005 0.19581495 -0.098762028 7104609
0.80832148 0.17496179 -0.085391685 12829111
0.80807132 0.19308138 -0.085432969 10986141
0.43000001 -0.041132864 -1.9415131e-05 14803421
0.41808698 -0.031142816 -0.0040591694 14868444
0.42165002 -0.034666397 -0.0019404289 14803164
0.41609019 -0.024706373 -0.0044029998 14935520
0.4172031 -0.016693927 -0.0040477659 14474969
0.42079324 -0.011853745 -0.0042656059 13553867
0.42494455 -0.0068524606 -0.0034787778 13027779
0.43000004 -0.0017621418 -0.0034867227 11842991
0.43412501 0.0025732317 -0.0010294579 12961729
0.43900001 -0.050215434 0.0051187128 14671835
0.44400004 -0.053399164 0.0088147596 14869214
0.45100003 -0.057922866 0.0094818287 14606042
0.42899999 -0.041037206 0.0060064103 14408663
0.43525001 -0.045676257 0.0063927146 14737371
0.41757146 -0.031321503 0.0058081904 14474454
0.42313039 -0.036437705 0.0051636719 14342870
0.41352943 -0.024663514 0.0053743445 14869727
0.41519096 -0.015385092 0.0055883597 14409433
0.42055559 -0.011021586 0.0029335553 14014932
0.41866669 -0.0093384851 0.0094551966 13685967
0.42445353 -0.0056720199 0.0054308614 13620174
0.43000001 -0.00086735265 0.0034031533 13422796
0.43512318 0.0041070152 0.005419116 13357002
0.44023082 0.0090217208 0.0040221605 13225416
0.44469854 0.014801932 0.00565721 13027522
0.44826087 0.021817431 0.0052301553 12303540
0.45232147 0.025868367 0.00799865 13027264
0.45770007 0.032187898 0.0084442217 12303283
0.46400008 0.036726363 0.0095752729 11711403
0.46600002 0.041060239 0.0097971885 11908781
0.47800002 -0.070790187 0.016762113 15132386
0.48361111 -0.074825376 0.01765467 15066079
0.45833337 -0.061010633 0.015542393 14671579
0.46566665 -0.064172536 0.016152157 14935007
0.47330773 -0.068291023 0.017878953 14737628
0.44484907 -0.053250939 0.014858323 14211284
0.45292854 -0.058326907 0.016258487 14342870
0.42723531 -0.041222166 0.015861074 14277077
0.43403509 -0.045470491 0.014276097 14211283
0.44 -0.049299777 0.017284939 14013905
0.41532004 -0.033085451 0.015572239 14277076
0.42251441 -0.037849635 0.014389755 14277077
0.40821689 -0.023728166 0.016527334 14935005
0.41112763 -0.026778271 0.013064689 14803419
0.40833339 -0.018376673 0.016751694 14803933
0.4125455 -0.013905635 0.014340421 14212054
0.41718423 -0.0081381472 0.015811374 13620430
0.42258734 -0.0034522684 0.014798452 13291466
0.42657697 0.0011000646 0.016029861 13094087
0.43566066 0.0063137147 0.013714829 13159623
0.43900001 0.010419269 0.018992756 12963014
0.44371602 0.014794565 0.014942952 13028294
0.44861111 0.020683067 0.016372463 13028037
0.453677 0.025336746 0.014651827 13093830
0.45866674 0.030714929 0.014583341 13225160
0.46457911 0.035844728 0.015853016 13488331
0.46849996 0.041937985 0.013800567 12566970
0.47245723 0.045508463 0.017297789 13422538
0.47766671 0.050848689 0.017312499 13290438
0.48291671 0.055562865 0.018632207 13487560
0.48700002 0.060581762 0.018219223 11908009
0.49100003 0.063378237 0.019518308 11776425
0.48783335 -0.081624672 0.025989937 14342356
0.4902727 -0.084357053 0.026376033 14211027
0.47650003 -0.071726315 0.025002945 14145491
0.48386675 -0.076802097 0.024519254 14539479
0.45842856 -0.061023306 0.023591476 14277077
0.46472728 -0.064043269 0.025449609 14079698
0.47208005 -0.068457544 0.02526046 14211284
0.44581822 -0.053153343 0.023860382 14013905
0.45342308 -0.058074705 0.024804313 14013905
0.42500004 -0.041764386 0.026176713 14079698
0.43432355 -0.046070188 0.024436869 14013905
0.44028571 -0.04903749 0.022508407 14145491
0.4085294 -0.031034606 0.026702628 14474456
0.41396928 -0.034898777 0.024846701 14277077
0.42063639 -0.038984284 0.023434179 14342870
0.40621901 -0.025188087 0.024926767 14737884
0.40707004 -0.016295142 0.025507925 14541276
0.4116061 -0.011894823 0.023338109 14080725
0.41561848 -0.0065646581 0.025476459 13620174
0.42089295 -0.0019740092 0.023979025 13225674
0.4251864 0.0026249583 0.025636695 13028296
0.43205005 0.0074515915 0.024071733 13028295
0.43724385 0.012454015 0.026339263 12962246
0.44240391 0.016939161 0.024196008 12830661
0.44757584 0.022628047 0.025472559 12962245
0.45291841 0.027351683 0.024927635 12962245
0.45796546 0.031869378 0.025117092 13093831
0.46362793 0.036833987 0.024360714 13291209
0.46872729 0.040951516 0.025913483 13225416
0.47354102 0.045724232 0.025018649 13356747
0.47835723 0.05094818 0.025413057 13422539
0.48286211 0.055847012 0.024650311 13685967
0.48773915 0.062115263 0.026685635 14080468
0.49124992 0.065675661 0.025132421 13948369
0.4863449 -0.082722731 0.035895642 13881806
0.49000001 -0.085491322 0.031331912 13749963
0.47558829 -0.072710544 0.035374586 13882062
0.4817037 -0.07732255 0.034348555 14144978
0.45900002 -0.060293477 0.033826884 13816526
0.46582499 -0.06482289 0.034982454 13684940
0.4705455 -0.068845466 0.03392522 13684940
0.44600001 -0.052060232 0.030258588 13816526
0.45312506 -0.056278337 0.032664981 13947599
0.41624999 -0.040790264 0.037483729 13816526
0.42533335 -0.043018114 0.030513132 13816783
0.43150002 -0.046833925 0.030284995 13882319
0.40613735 -0.03206791 0.035264067 14343127
0.41312823 -0.037442043 0.033900358 14079698
0.4031544 -0.024884168 0.034894541 14606556
0.40436122 -0.015059415 0.035079937 14541019
0.40836003 -0.0084324768 0.036803715 14014932
0.41325012 -0.0042343931 0.034559812 13620174
0.42000002 -0.0008471816 0.030952703 13488333
0.41683331 0.00054196717 0.037463807 13488588
0.42491141 0.005088239 0.034758147 13290954
0.43014291 0.0089144688 0.031771604 13027784
0.42900002 0.010181929 0.038646057 13357002
0.43464279 0.014304086 0.035054985 13027783
0.44099998 0.019520354 0.033964463 12961991
0.44605264 0.023014754 0.035920333 13027784
0.45302391 0.027876105 0.034747403 13027785
0.45739129 0.033345774 0.035334166 12961991
0.46229035 0.037821405 0.034467451 13027526
0.46733335 0.041622967 0.035767041 13093062
0.47316334 0.046411868 0.034789719 13553869
0.4776296 0.051591475 0.034640417 13816527
0.48202223 0.056582101 0.034957726 14014163
0.48650005 0.063368902 0.035282224 14211543
0.48403031 -0.082116522 0.045404535 13882062
0.47439545 -0.07304959 0.045276247 13948112
0.48122227 -0.078140505 0.045917373 14408663
0.45700002 -0.060833145 0.046517629 13816528
0.46502128 -0.065778255 0.045395344 13750734
0.47000003 -0.069165297 0.041789364 13684940
0.44711769 -0.055395406 0.045603912 13816527
0.45300001 -0.058770187 0.0458159 13816271
0.41462234 -0.043009046 0.045835886 13750734
0.40501305 -0.033988476 0.045424122 14079699
0.41159093 -0.03858456 0.043688651 13948112
0.39861768 -0.02380476 0.048066862 14606299
0.40040699 -0.025627652 0.043719653 14540506
0.39889997 -0.018173572 0.048821248 14738142
0.40150467 -0.014595772 0.044729318 14672350
0.40648502 -0.0068834419 0.04543478 13883091
0.41177142 -0.0021229596 0.044294264 13422539
0.41568753 0.0022503927 0.045268521 13357003
0.42236587 0.0073507442 0.044613525 13357003
0.42664286 0.011627078 0.046631876 13356747
0.43317655 0.016345389 0.044487398 13027782
0.44000003 0.019713435 0.040152002 12961991
0.43769997 0.021353276 0.047211211 13028040
0.44478568 0.024886424 0.044490937 12962248
0.45084617 0.029130541 0.043330435 12896199
0.45519653 0.033551097 0.044994887 12698820
0.46173328 0.038560051 0.044007298 12764613
0.46651512 0.042020578 0.045351263 13159370
0.47229275 0.046999261 0.044794042 13685457
0.47665963 0.052699931 0.045179896 13882323
0.48090628 0.057925221 0.044657644 14211288
0.48442861 0.063527793 0.045150265 14145494
0.47808337 -0.08154726 0.05761525 14210770
0.48146152 -0.081950031 0.05303546 13882062
0.46900001 -0.070665047 0.055973634 13882320
0.47400007 -0.074679002 0.055097632 14145235
0.4806667 -0.078862503 0.051864102 14277077
0.45739996 -0.06247323 0.056726187 13816526
0.46431577 -0.067247756 0.054979958 13816527
0.44800001 -0.055965573 0.050321028 14079445
0.45400003 -0.059370983 0.056840487 13882319
0.40799999 -0.041416809 0.056808185 13290184
0.41234288 -0.043254666 0.052738696 13027014
0.39833334 -0.031265974 0.057951476 13882576
0.40307692 -0.035449542 0.054987084 13619149
0.3966862 -0.024830956 0.054862574 14474970
0.40000001 -0.029835463 0.051484335 13948369
0.39716336 -0.015316421 0.055333737 14672350
0.40029415 -0.011335403 0.052183054 14541023
0.39860004 -0.0088285571 0.05895552 14474460
0.40469322 -0.0048496691 0.055139948 13685714
0.41057149 -0.001239848 0.051196583 13027784
0.4086 0.00080235273 0.057947259 13093577
0.41348955 0.0048957863 0.055051733 13356749
0.42071432 0.0090007102 0.051477045 13356749
0.41820002 0.011100791 0.058525302 13488335
0.42551619 0.014446927 0.055325132 13290956
0.43037501 0.018191483 0.053335484 13093578
0.43504003 0.02269817 0.055315956 13225164
0.44342113 0.027519988 0.055703729 12896200
0.44833335 0.031282909 0.057878792 12435649
0.4541865 0.034975719 0.054762278 12567235
0.46000001 0.039634168 0.055437949 13422798
0.46589187 0.043311883 0.055568784 13422285
0.47117648 0.047942165 0.054772038 13882835
0.47612914 0.054346599 0.055114958 14079700
0.48035717 0.059032869 0.053151358 14277081
0.479 0.061081719 0.059036016 14211541
0.48158538 0.063402258 0.054747976 14014164
0.47699997 -0.08180432 0.064985134 14079697
0.48016667 -0.085837089 0.069296636 13881805
0.46647832 -0.071640603 0.065543316 13948112
0.47340009 -0.076443195 0.064424202 14276820
0.45626205 -0.063946389 0.064347923 13684940
0.46180001 -0.068338647 0.064568654 13816526
0.42162502 -0.051559836 0.067468122 13421515
0.40737501 -0.04189159 0.06482935 13421771
0.41362506 -0.046207868 0.066261388 13487308
0.39652237 -0.032905206 0.06556455 14079444
0.40206519 -0.037749112 0.064168088 13618893
0.39384127 -0.024769109 0.064974554 14540251
0.39453867 -0.014709033 0.065011673 14672352
0.39716363 -0.0071884394 0.065670528 14211802
0.40168419 -0.0028847074 0.064284079 13751507
0.40681824 0.0027073212 0.065460302 13422542
0.41241518 0.0077350074 0.064116828 13357006
0.41672733 0.012643843 0.066005066 13159885
0.42219454 0.016341416 0.064250007 13159627
0.42660001 0.020578392 0.064624049 13027785
0.43416667 0.02358567 0.065314703 13027785
0.44314295 0.028229153 0.065109953 12567235
0.44647372 0.03205565 0.064887345 12172476
0.45443246 0.037305042 0.065303698 12896198
0.46000001 0.039993126 0.060822286 13422542
0.45900002 0.040980715 0.069286287 13159370
0.46522236 0.045328893 0.065137893 13619921
0.47025001 0.049416117 0.061351482 13882836
0.46887505 0.051055264 0.067346305 13619921
0.47340587 0.055461418 0.064508557 14080213
0.47791117 0.062859967 0.065165997 14014165
0.48000002 0.065891266 0.064028576 12500666
0.47761539 -0.081770651 0.07527934 13947344
0.48048142 -0.085622899 0.075007498 13750220
0.46646163 -0.07217557 0.074740343 13618635
0.47234219 -0.076935314 0.07522615 14210515
0.45739999 -0.065174669 0.07183104 13487308
0.46222225 -0.068743572 0.073203571 13421769
0.42471433 -0.053131621 0.071426019 13421513
0.39900002 -0.040035602 0.079377607 13948112
0.40547624 -0.04304466 0.075323954 13684686
0.41233337 -0.047491454 0.073171489 13553099
0.39404649 -0.033651829 0.075210907 14145494
0.40123078 -0.03895963 0.07317093 13816273
0.38899997 -0.023385476 0.078257464 14474458
0.39112884 -0.025147028 0.074055731 14539996
0.389 -0.017003004 0.078472316 14606046
0.3914794 -0.014701728 0.074284106 14541023
0.39504504 -0.0058748084 0.075476907 13948886
0.40046674 -0.0014947916 0.072418004 13554128
0.39860004 0.00050274056 0.078551248 13554130
0.40490189 0.0046987114 0.075140409 13422543
0.41088891 0.0092183249 0.071588509 13422542
0.40849999 0.011010446 0.077799916 13422287
0.41417393 0.014153936 0.074110046 13028042
0.42190003 0.019200273 0.073466912 12698821
0.42600003 0.021080738 0.073446594 12698821
0.43567798 0.026308632 0.075880684 12238526
0.44080004 0.028624076 0.070975214 11975098
0.44373173 0.032760963 0.074772455 12501441
0.45404172 0.038150769 0.075175829 12961992
0.45880002 0.041177765 0.078170225 13159371
0.46367651 0.045445688 0.074828058 13488335
0.4682059 0.052055888 0.075768344 13619664
0.47140422 0.056931004 0.074570626 13882835
0.47515628 0.062206469 0.073691718 13685456
0.47411904 -0.082830206 0.084660225 14013393
0.48000002 -0.086368546 0.080883913 14276307
0.46623537 -0.074482337 0.085515343 14013392
0.47141188 -0.078398235 0.082678348 14276822
0.42900002 -0.060118839 0.088358738 13619147
0.45750001 -0.068042152 0.084236085 13684429
0.4605 -0.069923356 0.086221524 13684684
0.41678575 -0.05109065 0.08487235 13750477
0.42275625 -0.055436496 0.08625406 13487561
0.39703336 -0.041884005 0.086880751 14210773
0.40368295 -0.044799998 0.084429607 13947601
0.41311115 -0.048973724 0.085197002 13816527
0.38859999 -0.031805847 0.087814413 13355722
0.39268255 -0.035770036 0.084460013 14408407
0.3875694 -0.02503765 0.085105531 12040632
0.39000002 -0.029089577 0.080782622 14277334
0.38727215 -0.015378254 0.084912747 12369598
0.38822228 -0.0079316692 0.08680319 14343387
0.39260972 -0.0038891286 0.083984852 13949143
0.39668337 0.0023000995 0.086044557 13423055
0.40098387 0.006810206 0.084552422 13291213
0.40457901 0.011921279 0.085429497 13094091
0.41381824 0.015905907 0.083295166 12238526
0.42300001 0.018624038 0.082494766 12238525
0.42711112 0.020915402 0.082967199 11844280
0.43411863 0.026403591 0.084177576 11975866
0.43900007 0.031267036 0.087041631 12568003
0.44515094 0.03485959 0.084644891 12699332
0.45150003 0.038952466 0.084153756 12896455
0.45616278 0.04291958 0.086124502 13028298
0.46239471 0.047126006 0.083865009 13488592
0.46693099 0.053323198 0.08500839 13554385
0.47000021 0.058509331 0.084530957 13751762
0.47085005 0.061549574 0.08524131 13290182
0.46761909 -0.08284118 0.098186597 14473689
0.47143593 -0.084406182 0.09401188 14539224
0.44900003 -0.070279412 0.097733617 14078675
0.45631257 -0.073496237 0.097048245 14013138
0.46481252 -0.076794513 0.093981564 14342102
0.42500001 -0.060553223 0.099474072 13618124
0.43463641 -0.06272193 0.09506423 13881552
0.44433343 -0.067386247 0.096232742 14012882
0.41653338 -0.051548984 0.093330227 14013395
0.42221829 -0.056101341 0.094971873 13684430
0.39344284 -0.042827193 0.095119968 14144468
0.40279999 -0.047019031 0.091630802 14144468
0.41250002 -0.049115553 0.091228403 13947087
0.38703036 -0.03416653 0.095413007 11908273
0.39055559 -0.038122475 0.092274129 14407896
0.38227323 -0.024983767 0.094909661 2633258
0.38267624 -0.015085464 0.094973065 3094068
0.38681379 -0.0055975984 0.095244244 13290698
0.39040002 -0.001243974 0.09210588 13883093
0.38900003 0.00049026683 0.098515421 13620177
0.3946667 0.0046005598 0.095031694 13422799
0.40000004 0.0091424864 0.09233509 13423056
0.39880005 0.010585571 0.098756097 13159627
0.40325934 0.013944131 0.094845921 13094347
0.41116667 0.019064216 0.097038485 12699589
0.41570833 0.022484161 0.097786337 12501954
0.42340004 0.026508402 0.097440265 12699333
0.43361536 0.028641267 0.09280666 12436417
0.43463638 0.03150085 0.096441172 12567747
0.44559523 0.037406545 0.094825894 12633796
0.44876468 0.041426603 0.096569188 12633796
0.45513797 0.045498848 0.094527945 12962248
0.46057144 0.049438983 0.09239658 12896711
0.46522394 0.054552119 0.095278636 13159370
0.47000012 0.059108827 0.093044005 13355978
0.46900001 0.060538478 0.099891134 13750990
0.47091672 0.061751258 0.094554879 12434873
0.46900001 -0.09119647 0.10845504 14473431
0.47000003 -0.092271149 0.10890635 13223106
0.46568927 -0.084759615 0.10504693 14408153
0.44863641 -0.070890754 0.10634091 13882066
0.45518002 -0.074942969 0.10536125 14013395
0.461 -0.078882173 0.10416167 14210774
0.42581818 -0.061215259 0.10365 13816016
0.43585721 -0.064800322 0.10521343 13881809
0.44395003 -0.068192497 0.10582896 13816016
0.41900003 -0.053322598 0.10297417 13618637
0.42102239 -0.056790262 0.10373369 13487308
0.39271152 -0.042862382 0.10410531 12960963
0.40100002 -0.048685018 0.10042796 13749710
0.38593456 -0.034747425 0.10454596 10592670
0.39000002 -0.039132543 0.10954203 10197658
0.37752834 -0.024125515 0.10554052 2436390
0.38055557 -0.026969073 0.10203844 2567977
0.3775579 -0.015831202 0.10559542 2371114
0.38079485 -0.01258298 0.10288609 4674128
0.38472995 -0.0054903845 0.10488342 11778228
0.38850003 0.0011575292 0.10369393 12831174
0.39386246 0.0062243496 0.10484973 12435904
0.39793342 0.011930698 0.10564154 12370625
0.40307692 0.016184632 0.10409889 12699590
0.41200003 0.019423442 0.10028934 12436417
0.40900001 0.020239487 0.10658056 12436417
0.41432437 0.023775265 0.10458107 12436161
0.421 0.028859323 0.10416833 12436418
0.42620006 0.031768017 0.10713781 12567746
0.43475765 0.035552692 0.10510565 13093320
0.44235715 0.038166434 0.10212952 12633027
0.44786665 0.042225499 0.10293946 12435647
0.45445243 0.047166992 0.10464417 12896455
0.45880005 0.051059198 0.10588038 12830406
0.46425399 0.055795982 0.10482658 13290956
0.46861109 0.061158981 0.10577868 12040373
0.47000003 0.062684737 0.10322157 11316647
0.46745455 -0.092004113 0.11570457 14539482
0.47000003 -0.093371429 0.11055677 11775916
0.45885721 -0.080722831 0.11752615 13816526
0.46445847 -0.085559323 0.11478978 14407895
0.44846156 -0.072134383 0.11384975 13881809
0.45418611 -0.076687045 0.11458091 14013651
0.44400004 -0.06890551 0.1126866 13882066
0.39183334 -0.040845577 0.11143311 11118754
0.37900001 -0.030043593 0.11000136 2633513
0.38692859 -0.034626406 0.11106936 10724767
0.39078575 -0.038167119 0.11244302 9605515
0.37900001 -0.010524184 0.11000136 10267048
0.38469234 -0.0054698838 0.11074808 10198684
0.38900003 0.00012600447 0.11017182 9211273
0.39453846 0.0052205939 0.11124076 9869719
0.39840001 0.011882364 0.11134143 10660006
0.40433335 0.016555553 0.11071423 10923179
0.41609529 0.023353163 0.11395632 10660005
0.42141178 0.027414456 0.11743754 10264220
0.42615002 0.032963794 0.11495341 12765382
0.4331429 0.037907947 0.11426972 12699590
0.4383601 0.042382192 0.11536598 12567747
0.44300005 0.04638562 0.11768502 12502210
0.45500001 0.047975082 0.1117118 12962247
0.45750004 0.053823862 0.11599325 13094346
0.46248278 0.056938395 0.11283508 13094088
0.46588892 0.060742956 0.11207055 11448492
0.46500003 -0.090563826 0.12117351 11908531
0.45837504 -0.081271544 0.12136957 11973807
0.46276924 -0.086023875 0.12106304 12565945
0.45400003 -0.077177934 0.12060922 11184804
0.37075001 -0.030691801 0.12713507 2172962
0.37100002 -0.029409427 0.12765534 2304548
0.42300004 0.027372422 0.12029518 9672082
0.43500003 0.039856277 0.12116317 13028554
0.44570836 0.047365632 0.12341122 11844283
0.44900003 0.050599065 0.1245371 11515574
0.45387506 0.055062376 0.12391144 12830660
0.36533332 -0.03109855 0.13725124 2041889
0.36456251 -0.025862237 0.13786708 2107681
0.36455166 -0.015800755 0.1390612 3225393
0.36716002 -0.031098919 0.14566131 1186581
0.36513928 -0.024922775 0.14472023 1186323
0.36403811 -0.015903922 0.14502342 2105884
0.36574194 -0.031957626 0.1559319 2105884
0.36619186 -0.025113022 0.1554791 659979
0.36496505 -0.015802925 0.15533914 2037520
0.36249205 -0.032549068 0.16449915 1712666
0.36228734 -0.024872368 0.16496558 1186322
0.36364594 -0.016630998 0.1644562 1579024
0.34592462 -0.033302892 0.17810734 1712410
0.35538882 -0.032361045 0.17605181 988944
0.36137846 -0.032856625 0.1722209 1581338
0.34634617 -0.025382163 0.17832367 1515031
0.35563397 -0.024907466 0.17550658 1054738
0.36021051 -0.024981868 0.17125393 1976096
0.34724995 -0.01700899 0.17902631 1383700
0.35567647 -0.016568562 0.17689583 988688
0.36133337 -0.016739223 0.17277049 1317910
0.35800001 -0.0099410499 0.17933391 9540755
0.33900008 -0.033251002 0.18889208 1646616
0.3420991 -0.033605941 0.18401025 1646616
0.33900005 -0.025342243 0.18908946 1580825
0.34214294 -0.024812575 0.18414015 1580823
0.33900002 -0.017926671 0.18929558 1449496
0.34255266 -0.016760912 0.18472703 1383703
0.35733333 -0.010759063 0.18067221 987917
0.33883786 -0.025014997 0.1911521 1515032
0.33900008 -0.017944708 0.1911443 1449239
0.82400006 0.0099119032 0.2468731 2239268
0.83480006 0.0073023578 0.24776094 2502183
0.84150004 0.0042125108 0.24916103 2173218
0.81353343 0.016382365 0.2462783 2173475
0.82125008 0.011801385 0.24701113 2305061
0.8083334 0.0217079 0.24470444 2305061
0.81000006 0.022068959 0.24836886 1581338
0.83866674 -0.013472457 0.25912216 10066577
0.84420002 -0.013960874 0.25766721 10000785
0.85284621 -0.014004137 0.25443664 10000787
0.82800007 -0.0016701581 0.25970325 5395274
0.83550012 -0.0053207204 0.25827938 9211269
0.84381831 -0.0054749344 0.25586092 9934993
0.85350001 -0.0057190126 0.25271204 9803408
0.82359999 0.0065070908 0.25577334 2436134
0.83578587 0.0032048582 0.25431389 3093806
0.84500003 0.0012631817 0.25217143 5329486
0.85200006 0.00027597893 0.2512745 10790305
0.8156364 0.016054897 0.25539199 2173222
0.81999999 0.011783422 0.25399467 2041891
0.81164998 0.024108287 0.25486231 1712413
0.83900005 -0.021333488 0.26118931 10198163
0.83421743 -0.014336408 0.26444983 9934991
0.82655555 -0.0040349239 0.26483652 8026480
0.83088887 -0.0083764987 0.26341805 9803404
0.81690007 0.0084869666 0.26692697 2370342
0.82188237 0.0036573946 0.26377967 3158829
0.80825007 0.018236728 0.2676993 1712154
0.8132143 0.014877471 0.26450703 2172706
0.80799997 0.023716619 0.26685876 1382676
0.81087506 0.022567585 0.26216036 1316886
0.83233333 -0.013587397 0.27232009 9737869
0.82416677 -0.0026284859 0.27425402 6447451
0.83100003 -0.009457753 0.27134383 9671817
0.81537509 0.0075373668 0.27435479 2304548
0.82057148 0.0016373007 0.27383932 3290416
0.8083334 0.017291961 0.27056566 2041376
0.81180006 0.014832829 0.27590978 2041376
0.81100005 0.02399477 0.27810442 988688
0.82580006 -0.0032145381 0.28723887 5923167
0.83100003 -0.0084862299 0.28885114 9147529
0.81750005 0.0098337149 0.28224772 2370341
0.82164717 0.004786653 0.28667688 2698794
0.81615007 0.016024802 0.28474283 1909535
0.81999999 0.01306318 0.28854808 2107169
0.81400007 0.02371617 0.28594899 726030
0.8332001 -0.012799079 0.29566506 9540746
0.82787508 -0.0033659732 0.29237044 5922395
0.83146155 -0.0072176093 0.29522747 8751232
0.82371426 0.0063200206 0.29375753 2435878
0.83200002 0.00026950054 0.29796463 5197647
0.81525004 0.016007714 0.29458296 2238755
0.82055563 0.012644577 0.29429263 2238755
0.8127144 0.024723882 0.29241496 1251861
0.83650005 -0.012457157 0.30447364 9672076
0.83533335 -0.005596986 0.30405036 8487289
0.83399999 0.0014387846 0.30258664 4473922
