# .PCD v0.7 - Point Cloud Data file format
VERSION 0.7
FIELDS x y z rgb
SIZE 4 4 4 4
TYPE F F F U
COUNT 1 1 1 1
WIDTH 936
HEIGHT 1
VIEWPOINT 0 0 0 1 0 0 0
POINTS 936
DATA ascii
0.523 0.086628601 -0.021497231 12697010
0.51793343 0.098540455 -0.023143124 13157818
0.5226087 0.093784042 -0.022684649 12960439
0.50800008 0.10838357 -0.020239968 13552319
0.51448286 0.10471567 -0.024078324 13223355
0.50633335 0.11178062 -0.020570366 13683650
0.51323086 0.11125477 -0.024615029 13354941
0.5302 0.048826527 -0.011691106 11117980
0.52574193 0.055388112 -0.013242484 11381409
0.53000003 0.051041998 -0.011190586 11052187
0.51818752 0.06703838 -0.014051652 12565424
0.52156526 0.062807359 -0.014993545 11710117
0.51775444 0.074443571 -0.014593583 13025975
0.52025002 0.077658847 -0.01890146 12170666
0.50800002 0.088761553 -0.010726071 13618112
0.51584089 0.08482746 -0.013395987 13486526
0.5213334 0.084990986 -0.018332252 13486526
0.49866667 0.098026998 -0.010918394 13486526
0.5047667 0.0953997 -0.012670221 13552319
0.51426309 0.094759412 -0.016692743 13486526
0.52116674 0.091876246 -0.019138334 13420733
0.49621624 0.10570735 -0.012240179 13420734
0.50408113 0.10448144 -0.016644685 13486526
0.51075 0.10149816 -0.018855382 13552319
0.48833337 0.11219072 -0.010310822 13289660
0.49526319 0.11219626 -0.013822787 13223355
0.50271428 0.11129163 -0.018182645 13420734
0.53033334 0.029553903 -0.00085110497 12631217
0.52802706 0.035849288 -0.0023641635 12565425
0.52717018 0.045410588 -0.0030758923 12828597
0.53006679 0.046994559 -0.0086276419 11710115
0.5165264 0.057249337 -0.0013632467 12894389
0.52438718 0.054589964 -0.0058709355 12828596
0.50675005 0.067781225 -0.00046884443 13091768
0.51511675 0.065036871 -0.0055409209 13091768
0.52100003 0.060744945 -0.0093751103 12762803
0.49825004 0.077580318 -0.00060658064 13289147
0.50513893 0.075219519 -0.002886263 13289148
0.51255256 0.074239537 -0.007448853 13354940
0.48800004 0.088885784 -0.00040361984 13420733
0.49474999 0.085309677 -0.0024510387 13420733
0.50409669 0.084443025 -0.0070327502 13486526
0.51085716 0.082170665 -0.0092490176 13486526
0.47866669 0.098764181 -2.1612504e-05 13289147
0.48477423 0.095332786 -0.0015634865 13486526
0.49426526 0.094940498 -0.0060759028 13486526
0.50140005 0.091482244 -0.008944259 13552319
0.47669235 0.10573684 -0.0011827581 13289404
0.48426539 0.1051441 -0.0052358862 13355197
0.4921765 0.10310582 -0.0084956046 13354940
0.47428128 0.11322449 -0.002284155 12367791
0.48283339 0.11199268 -0.0071867472 13486783
0.55300003 -0.01147212 0.0090371119 10330004
0.55260885 -0.0046606986 0.0074547022 10263698
0.53828579 0.008454877 0.0071763331 11710115
0.54470003 0.0043766932 0.0070526549 10657685
0.55033332 0.00060744997 0.0068460391 10197391
0.5266667 0.018456681 0.0094276899 12104616
0.53304011 0.01461562 0.006012761 11841444
0.51800001 0.027815213 0.0094347922 12500146
0.52546883 0.025964059 0.0069275601 12565425
0.53154546 0.023660889 0.0033297567 12630961
0.51538461 0.035382338 0.0083710793 12697525
0.52541381 0.034819197 0.0031100118 12763060
0.50619996 0.047441766 0.0089825718 12565940
0.5148235 0.045183707 0.0063837762 12697269
0.52288008 0.043987609 0.0027156633 12894389
0.49680004 0.058072329 0.0086983284 12697525
0.50463891 0.05535822 0.0065006567 12697267
0.51279312 0.054137554 0.0028299822 12762803
0.48479995 0.066035748 0.0080891522 12894903
0.4950667 0.064592518 0.0056137261 12828854
0.50444007 0.064397559 0.00247818 12894389
0.51000005 0.061055079 0.0011708919 12762803
0.47900003 0.079770833 0.0089491541 13420733
0.48478389 0.075149134 0.0072715227 13158075
0.49402857 0.075160421 0.0028474478 13157819
0.50100005 0.071118534 0.001150229 13289148
0.47413051 0.086045988 0.0076455292 13289660
0.48519361 0.08373107 0.0041837692 13355453
0.49100003 0.082198553 0.0017016978 13420990
0.46639395 0.0960913 0.0084120678 13092024
0.47294337 0.094405226 0.004167302 13289404
0.48080006 0.091550492 0.0013285903 13420990
0.45772734 0.10598335 0.0088910572 13289662
0.46452165 0.10479794 0.0057635801 13158075
0.47216007 0.10391754 0.0020541344 13354940
0.456875 0.11502249 0.0077623776 10459794
0.46387506 0.11317032 0.0039065038 12828855
0.47000003 0.11128037 0.0010790572 13420735
0.45866668 0.1207664 0.0071373433 5591368
0.46099997 0.12188508 0.005807383 5854540
0.54500002 -0.031081907 0.019113215 10854808
0.54492313 -0.023080422 0.018227233 11973030
0.54511422 -0.014077953 0.016594538 12433324
0.55109096 -0.011901995 0.011467388 10329490
0.53700006 -0.0025716443 0.018371684 12893619
0.54488581 -0.0050702579 0.014763271 12959668
0.55090916 -0.0063883183 0.010995361 10197648
0.51400006 0.0085801128 0.019229325 12235946
0.52588892 0.0055008437 0.018715583 12367275
0.53550005 0.0047936426 0.014976941 12433068
0.54299998 0.0022203769 0.011977103 12893619
0.5045653 0.015927142 0.018563068 12170667
0.514 0.015912084 0.015110304 12170411
0.5248 0.014249966 0.01267102 12169896
0.53166676 0.010958456 0.012006876 12301482
0.49835724 0.026409592 0.019143581 12697525
0.50418913 0.02501468 0.016335132 12565939
0.51350003 0.02440572 0.012394257 12631732
0.52050006 0.021491762 0.010942997 12697266
0.48633337 0.038866263 0.019332798 12500146
0.49571052 0.035304736 0.017501062 12829111
0.50422585 0.034928426 0.013335232 12631732
0.51077783 0.032980278 0.011003912 12631732
0.4846552 0.045690671 0.017930979 12499890
0.49454167 0.045886811 0.01405548 12763318
0.5035789 0.043960486 0.011392188 12697525
0.46860003 0.058072787 0.019505274 12565939
0.47447622 0.056005303 0.017028598 12697525
0.48383343 0.054408412 0.01405688 12500146
0.49388242 0.052863732 0.011806176 12763318
0.5 0.050493844 0.010512005 12894904
0.46612906 0.065722071 0.018386077 12697525
0.47508577 0.063582025 0.014331464 12894904
0.48100001 0.065164521 0.010645067 12829109
0.45781821 0.076823443 0.018880494 13354940
0.46457151 0.07508146 0.016171461 13092026
0.47403124 0.074812345 0.01200682 13289404
0.48050001 0.072895758 0.010289319 13092024
0.44712001 0.086347759 0.018859934 12960439
0.45440006 0.085928746 0.016567562 13223354
0.46524402 0.084833719 0.013600005 13157561
0.47050002 0.082759619 0.011268315 13157561
0.44622734 0.09534394 0.018017612 13026488
0.45478579 0.095481381 0.013634233 13092281
0.46220002 0.093270093 0.011446998 13092281
0.44508329 0.10515562 0.016594633 13684418
0.45284387 0.10423223 0.01177009 13355454
0.43900004 0.11267611 0.019506609 13618370
0.44484213 0.11274614 0.015448933 13420991
0.45206249 0.11444211 0.011023779 11513252
0.54750007 -0.052373439 0.028813502 12894132
0.54572499 -0.044508524 0.026548255 12959925
0.54449999 -0.034756035 0.024972387 13354682
0.53720003 -0.023136444 0.028142562 13025718
0.5434131 -0.025214454 0.023505185 13617342
0.52820003 -0.011947888 0.029157877 12565424
0.53457409 -0.015240969 0.025525343 12959669
0.54122227 -0.017001258 0.020950822 12893619
0.48900002 -0.00098636141 0.029741624 12433840
0.4914 -0.0040421346 0.02856328 12499632
0.514 -0.0052549131 0.027252384 12433581
0.52608341 -0.0053240587 0.025528556 12630704
0.53252 -0.0067138458 0.022260761 12893619
0.48603028 0.005080312 0.027972162 12433327
0.49183333 0.0044827838 0.025593994 12433070
0.50529999 0.0078529846 0.021856809 12301483
0.51442862 0.004979766 0.022171292 12367276
0.52400005 0.00248396 0.022191299 12367532
0.53000003 0.00017167703 0.021068642 12762033
0.46783331 0.018585885 0.029183855 12631218
0.47395244 0.015782157 0.028190766 12302254
0.48435715 0.013770078 0.026211914 12302254
0.49586663 0.015137128 0.023226108 12170411
0.50187504 0.012348442 0.020976564 12301739
0.46583718 0.025711328 0.027238654 12499633
0.47237501 0.024194386 0.024722062 12894391
0.48550001 0.024981806 0.023271209 12500146
0.4944118 0.024255285 0.021420987 12697268
0.45683336 0.038647186 0.029387241 12697525
0.46488088 0.03442771 0.026969498 12565683
0.47322226 0.036531795 0.023483751 12697525
0.48275003 0.036317494 0.021260982 12631475
0.49266669 0.033026699 0.020737903 12697525
0.45665377 0.045501359 0.028839456 12829111
0.46471426 0.045404214 0.025801711 12565939
0.47420007 0.044999614 0.022396313 12565939
0.480625 0.042910282 0.020511953 12565939
0.43708336 0.057611238 0.028969681 12500146
0.44322228 0.056409154 0.027755387 12697525
0.45615381 0.054468028 0.026781119 12829111
0.46405128 0.054266971 0.022785546 12500147
0.47233334 0.051012397 0.020616308 12631733
0.43610352 0.064808905 0.028597636 12631732
0.44542861 0.065840937 0.026005909 12763318
0.45496666 0.065040864 0.023404462 13158076
0.46253332 0.06331034 0.021127872 12960697
0.435027 0.075442173 0.028159512 13289661
0.44468892 0.075646251 0.024400333 12828853
0.45382762 0.074069172 0.02140644 13289403
0.42900002 0.08851707 0.029105237 14145225
0.4342739 0.085157529 0.026036201 13618625
0.44228563 0.084041424 0.021683946 12829109
0.42899993 0.095455855 0.029013937 14408395
0.43384004 0.095264949 0.025084771 14079175
0.44143748 0.094311029 0.021034596 13223867
0.42899993 0.10381329 0.028796218 14605520
0.43403739 0.10540221 0.024362044 14408142
0.44000003 0.10160225 0.020581093 13750211
0.43395293 0.11439558 0.024512595 10657431
0.54900002 -0.080790952 0.039816998 13683905
0.55050004 -0.083107196 0.039120771 12631219
0.54713041 -0.074562617 0.038289618 14078918
0.55000001 -0.079650551 0.037314404 12104873
0.5455898 -0.064404279 0.036586367 14144197
0.53900003 -0.050297756 0.039091732 14078147
0.54505086 -0.055189908 0.035262667 14078147
0.52700001 -0.040541939 0.039455131 14078147
0.53623998 -0.043816276 0.037830707 14143940
0.54341477 -0.045561358 0.033263024 14143941
0.50650001 -0.031258252 0.039106078 13025975
0.51250005 -0.033735443 0.039270848 13289402
0.52366668 -0.037836019 0.039205573 13880768
0.53641176 -0.034687106 0.03523792 13880513
0.54138893 -0.036441278 0.03172965 14209478
0.49875003 -0.020854933 0.037923627 12565424
0.50450003 -0.024721017 0.038432974 12762803
0.51000005 -0.02769292 0.037784416 12960182
0.52577782 -0.02636227 0.035667427 13156791
0.53367752 -0.025708595 0.032333605 13157047
0.486 -0.012359062 0.037803285 12565425
0.49271426 -0.01514815 0.035216205 12565167
0.51500005 -0.015506298 0.032528605 12565424
0.52828574 -0.016967472 0.033014264 12828596
0.53050005 -0.017681642 0.031489369 12894389
0.4675 -0.0017652764 0.039103739 12499633
0.47427776 -0.0039826911 0.038218208 12499633
0.4850001 -0.0053611938 0.034301076 12565426
0.49025002 -0.0081623476 0.031252112 12499375
0.45750004 0.0076422938 0.038763653 12105131
0.46450001 0.005102884 0.037064917 12236461
0.47457147 0.004599567 0.03409465 12302254
0.48280951 0.003432479 0.031623632 12368047
0.43800002 0.019112315 0.039455637 12040365
0.44550005 0.01525031 0.039610982 12105644
0.45541945 0.014763928 0.037081402 12170667
0.46392688 0.015643131 0.033083785 12236460
0.47320002 0.011449158 0.030992206 12104875
0.43605125 0.025765186 0.037927311 12171695
0.44315383 0.025319306 0.034928508 12565939
0.45433336 0.023950864 0.033351813 12368304
0.46252939 0.024031097 0.031123606 12368560
0.42567864 0.036824726 0.038594615 12434353
0.4345417 0.032690365 0.037441839 12368562
0.44535723 0.034105744 0.034042038 12631733
0.45488003 0.035023924 0.031112285 12697525
0.46000001 0.030839749 0.030131543 12565939
0.42397165 0.045625273 0.036502242 12500146
0.44900003 0.040788636 0.033965845 12565939
0.45200002 0.043437049 0.03176913 12829111
0.4242501 0.054719038 0.036439512 13092282
0.4315863 0.05626893 0.031682011 12434352
0.44300002 0.053034116 0.030055057 12500146
0.42411965 0.065350197 0.035720557 13947590
0.43120837 0.063731678 0.031146111 12960696
0.42340755 0.075128905 0.035224959 14408141
0.43000001 0.075133793 0.030179713 13816003
0.41900003 0.081549309 0.039216544 14737106
0.42348629 0.08510042 0.034614027 14474190
0.42360014 0.095018134 0.034671344 14605519
0.42434236 0.10502955 0.034741662 14737107
0.42491013 0.11411459 0.034801256 10525844
0.55716676 -0.12199336 0.04867192 11645096
0.55425811 -0.11480365 0.046941161 11710889
0.55260861 -0.105423 0.04604182 12631220
0.55229259 -0.09464848 0.046204068 13946820
0.54773331 -0.08291436 0.046773694 14538699
0.55071998 -0.086717948 0.043963332 14144456
0.53900003 -0.071117595 0.049186204 14472905
0.54498154 -0.075218767 0.045094091 14407113
0.53717864 -0.063423768 0.047308367 14275526
0.54272974 -0.06623812 0.043271735 14341319
0.52642858 -0.051592402 0.048566736 14012100
0.53450006 -0.055138152 0.045077533 14012355
0.54066664 -0.057837244 0.040899701 14275526
0.51499999 -0.043117475 0.04670056 13551549
0.52387506 -0.045666561 0.044274356 14012355
0.53210008 -0.04778621 0.041949488 14143940
0.46900001 -0.031688266 0.04938601 12960182
0.47000003 -0.031535774 0.04795092 12894389
0.50675863 -0.033467721 0.043832615 13025462
0.51258337 -0.038033333 0.043863531 13419962
0.52200001 -0.038935281 0.040302806 13946561
0.45900002 -0.020267339 0.049407531 12894391
0.46721956 -0.023756679 0.046791725 12697011
0.47000012 -0.026175853 0.044854421 12828596
0.49900001 -0.020865386 0.040863346 12631217
0.50316668 -0.026541106 0.041891556 12828340
0.44900003 -0.010365731 0.049382232 12631219
0.45580649 -0.013833291 0.048197441 12697012
0.46474421 -0.015691077 0.044729967 12697012
0.47371435 -0.014334447 0.041719463 12631475
0.48066673 -0.014098763 0.040862616 12500146
0.49200001 -0.018269125 0.040290114 12631217
0.43487501 -0.0024093823 0.049353898 12499633
0.44643477 -0.0051272623 0.048004813 12499633
0.45429736 -0.0052832467 0.045127224 12499633
0.46399999 -0.0056650243 0.041632671 12499633
0.47325006 -0.0085737277 0.0406904 12631219
0.42741668 0.0073060603 0.049007665 12039082
0.43399999 0.005109001 0.046886757 12104875
0.4443846 0.0046603084 0.043907877 12170925
0.45467854 0.0037144891 0.041639142 12236717
0.41788891 0.017960913 0.04943826 12434353
0.42415524 0.015300447 0.046966366 12170924
0.43406817 0.014570105 0.043160535 12105388
0.44306672 0.012861487 0.041190188 11973545
0.45100003 0.010704079 0.040100005 12039595
0.41651353 0.025641825 0.04828272 12566196
0.42372724 0.025113186 0.044126641 12237230
0.43043759 0.023442503 0.04097911 12105902
0.41528988 0.035186786 0.04691894 13158588
0.42235431 0.034570597 0.042140614 12566195
0.41482776 0.045194391 0.045845587 13553346
0.42088893 0.044364315 0.041289996 12961209
0.4156599 0.055051807 0.045087866 14144969
0.42020005 0.054729354 0.040312551 13750211
0.41563722 0.064953506 0.045347948 14408141
0.42000002 0.065520674 0.040293366 14408141
0.41629919 0.075176239 0.045055047 14737106
0.42000002 0.072894886 0.040293366 14737106
0.41698155 0.084998734 0.044966605 14671313
0.42000002 0.089118138 0.040293366 14671313
0.41719353 0.095079564 0.045773137 14605520
0.42000005 0.095250383 0.040759098 14605521
0.41701049 0.10488236 0.045659449 14539730
0.42011768 0.10548754 0.040709503 14671315
0.41694638 0.11362012 0.046617713 11052189
0.4205001 0.11378955 0.041459057 10722966
0.56122231 -0.13251491 0.057782464 13486014
0.55822223 -0.1217152 0.055072349 13288635
0.56029421 -0.12651041 0.055334616 13157306
0.54800004 -0.11143287 0.058987644 14472651
0.55494243 -0.11507321 0.055055361 14077893
0.54538238 -0.10417987 0.057384912 14670029
0.55177426 -0.10582703 0.052767016 14341063
0.53854555 -0.09369421 0.058771849 14670030
0.54474467 -0.094949581 0.054610178 14735822
0.55062503 -0.09649954 0.050568923 14538698
0.53679311 -0.084370382 0.057949465 14538444
0.54405272 -0.085695289 0.053057957 14604491
0.52900004 -0.070417367 0.059419248 14012100
0.53420347 -0.074692242 0.055515382 14341320
0.54128569 -0.078028038 0.051566582 14472905
0.49900001 -0.062335353 0.059554037 13222584
0.50300002 -0.062246267 0.058853891 13157561
0.52731818 -0.062901221 0.057431903 13880769
0.53204662 -0.065959409 0.053469166 14012354
0.47850004 -0.051186651 0.058226828 13419963
0.48216665 -0.053844605 0.057484429 13222840
0.52597374 -0.055503037 0.053925075 13748927
0.53049999 -0.058818888 0.05151473 14012354
0.46644443 -0.041829869 0.059063632 13222584
0.47540921 -0.045275804 0.056425586 13354426
0.48064709 -0.046972722 0.052861623 13157048
0.49200001 -0.048215427 0.051807925 13156791
0.5145334 -0.045214739 0.051451221 13222584
0.52200001 -0.049933381 0.051300909 13748928
0.4375 -0.030584145 0.058869723 13025975
0.44800001 -0.031318165 0.058711231 13091768
0.45822224 -0.032988943 0.058024857 12894389
0.46490744 -0.034393556 0.054969002 12959925
0.47185722 -0.037567142 0.052291088 13157561
0.51000005 -0.039234139 0.050121579 13025975
0.42733335 -0.021203078 0.059669644 12565425
0.4346177 -0.0249108 0.058448609 12762804
0.44450006 -0.02506559 0.056212675 12894390
0.45569998 -0.02531432 0.053527482 12894388
0.46376926 -0.027664673 0.051587522 12762803
0.41711113 -0.012346158 0.05943523 12631218
0.42466667 -0.01482677 0.057889566 12631218
0.43321437 -0.014489783 0.054953221 12565426
0.44517249 -0.014267915 0.051937111 12631219
0.45280004 -0.017770778 0.050963182 12697012
0.4086667 -0.0017817975 0.059296701 12433840
0.4145 -0.004581382 0.057964172 12499633
0.42413342 -0.0056873281 0.054777421 12499633
0.432125 -0.0051082964 0.051630948 12565426
0.44320002 -0.007954957 0.050610125 12631219
0.40620413 0.0056183501 0.058061268 12499633
0.4150435 0.0049515944 0.055207964 12236461
0.42384011 0.004177887 0.052144356 12236461
0.43000001 0.00013928513 0.050312471 12302254
0.40427163 0.01563034 0.056894336 12566195
0.41418368 0.014852474 0.052272491 12236717
0.42080003 0.011365232 0.050417762 12039082
0.40425727 0.025025958 0.055539984 13093052
0.41183338 0.02451198 0.050796714 12697781
0.40525004 0.035041265 0.05543242 13685189
0.4107779 0.034697149 0.050359894 13290432
0.40676239 0.044992052 0.05572933 13816518
0.41056526 0.045265373 0.050628677 13685189
0.40719545 0.054793503 0.056657284 14079946
0.41119048 0.055529878 0.051456008 14145483
0.40755081 0.064801715 0.057457235 14277068
0.41147289 0.065373152 0.052257333 14342605
0.40818194 0.074754767 0.057364855 14474704
0.41152459 0.075056344 0.052521572 14605777
0.40884995 0.083546638 0.058605194 14605777
0.41225836 0.085355625 0.054073762 14605776
0.40883338 0.095640995 0.058642667 14473935
0.41264892 0.094863437 0.054017387 14408141
0.40899998 0.10258245 0.058866329 14473936
0.41223741 0.10531294 0.054501522 14342863
0.40900001 0.11311469 0.059345067 11973549
0.41270247 0.11417551 0.054237593 9867915
0.41550002 0.12074852 0.052991837 3814185
0.54655552 -0.13431303 0.068141207 14341065
0.55436677 -0.13448241 0.064031929 14406858
0.56 -0.13353755 0.060770955 14341065
0.53866673 -0.12235596 0.068911634 14538444
0.54426473 -0.12506287 0.066447809 14275272
0.55429173 -0.12574159 0.062199038 14209479
0.56 -0.12894915 0.06027934 14341065
0.53677773 -0.114425 0.067233078 14867408
0.54403573 -0.11494591 0.062465739 14472651
0.55100006 -0.11849163 0.061029654 14341065
0.53475416 -0.10471546 0.06571348 14867408
0.54157144 -0.10686796 0.061192837 14735822
0.52647382 -0.093244225 0.068148769 14538700
0.53359193 -0.095501423 0.06359379 14736078
0.51610005 -0.083018214 0.068295673 13880514
0.52423525 -0.085484661 0.065301552 14341064
0.53187507 -0.086678907 0.06152954 14604235
0.51567996 -0.076177776 0.066801824 13551804
0.52485722 -0.075873606 0.062324964 14012099
0.53000003 -0.079235651 0.060772307 14275272
0.47900003 -0.06824705 0.069501929 13222584
0.49422228 -0.062965982 0.062966421 13222839
0.50475001 -0.067779861 0.063191719 13354424
0.51600003 -0.067478918 0.06158293 13485756
0.44900003 -0.050658554 0.069003083 13090998
0.45386118 -0.053575382 0.066885993 13156791
0.46599999 -0.051118907 0.062886007 13288377
0.47687504 -0.053153433 0.061935563 13354426
0.48488891 -0.057110216 0.061400183 13354424
0.49100003 -0.059611831 0.06089814 13288631
0.43342859 -0.041755468 0.069410339 13156791
0.44629732 -0.044786781 0.066813447 13091254
0.45351431 -0.045286175 0.063519962 13156791
0.46375003 -0.045788895 0.061586615 13222584
0.47250003 -0.047968917 0.060537878 13354170
0.41557145 -0.030995909 0.06877239 12827826
0.42491674 -0.034273863 0.067994222 12959412
0.43456522 -0.034778673 0.064637259 13091255
0.44413641 -0.037193775 0.062923424 13091511
0.45633343 -0.038190261 0.060629711 13025718
0.40590909 -0.023920067 0.068711117 12696497
0.41453341 -0.024730669 0.066199578 12696496
0.42424402 -0.025081282 0.063245364 12631217
0.43114284 -0.027402757 0.061475236 12697010
0.39725 -0.013391539 0.06873174 13158075
0.40452573 -0.014790556 0.065504685 12828596
0.41365626 -0.015396685 0.061558656 12631217
0.42140001 -0.018805144 0.060551535 12499631
0.39649993 -0.0046083038 0.067643039 12894904
0.40388405 -0.0050649121 0.062795863 12697268
0.41060001 -0.0075581796 0.060538448 12631219
0.39597732 0.0049537667 0.067157917 12763062
0.40157136 0.0044392217 0.062006067 12631219
0.39530256 0.015102422 0.066155396 12960952
0.40033329 0.014061541 0.061148282 12894646
0.39549023 0.02483025 0.066303812 13553088
0.4002414 0.025687262 0.061207548 13487039
0.39713839 0.034771886 0.067202374 13816261
0.40082255 0.035137903 0.062242143 13881797
0.39759609 0.044735707 0.067961991 13881797
0.40167993 0.045127597 0.063153297 13947590
0.39845008 0.052972753 0.068866812 14079176
0.40168697 0.055163994 0.064087272 14079433
0.39900002 0.064112775 0.069102883 14408141
0.40217397 0.064938948 0.064965792 14408141
0.40382347 0.075071365 0.064823993 14605777
0.40548411 0.085090168 0.064990737 14605777
0.4061054 0.095084593 0.065127976 14408143
0.4064807 0.10508819 0.06519226 14276814
0.40585905 0.11320242 0.065377861 11051933
0.52695233 -0.1332359 0.078277126 14406858
0.53389996 -0.13280764 0.074334122 14341066
0.54293752 -0.13471404 0.071070589 14341065
0.52528578 -0.12462879 0.077548847 14867409
0.53436112 -0.124919 0.072833881 14604237
0.54000002 -0.12813628 0.070768006 14472651
0.52447075 -0.1148327 0.076452069 14933202
0.53172725 -0.11548298 0.071661063 14933202
0.51753342 -0.10370474 0.078644834 14604236
0.52501893 -0.10515587 0.074335136 14867409
0.53025001 -0.10720372 0.070731573 14933202
0.49900001 -0.090955466 0.079412885 13617596
0.5054 -0.093309395 0.078220092 13551803
0.51451612 -0.094947927 0.075657204 14077893
0.52408004 -0.09655942 0.072258741 14538444
0.49621868 -0.084355645 0.078021079 13419961
0.50450003 -0.084954239 0.074586637 13420218
0.51309091 -0.086160228 0.071713179 13617342
0.47557145 -0.071576074 0.078063183 13156534
0.48428571 -0.075163387 0.076911673 13222583
0.4943077 -0.077994056 0.075543217 13288376
0.50380003 -0.078620493 0.072862506 13288377
0.51060003 -0.07896477 0.070978619 13354170
0.44300002 -0.061043695 0.079314761 12959412
0.45700005 -0.06144616 0.07700555 13025205
0.46569231 -0.064346358 0.076041892 13090741
0.47365624 -0.067556269 0.074086472 13090998
0.43485713 -0.053164456 0.078582391 13090998
0.44548151 -0.054158993 0.074860044 13090998
0.45300004 -0.05643139 0.072409727 13090998
0.40777779 -0.041340869 0.078787535 12893619
0.41319513 -0.043134853 0.076272383 12959412
0.42383334 -0.042776108 0.072573297 13156791
0.43474999 -0.045223571 0.0719238 13156791
0.44341668 -0.048388008 0.07168965 13156791
0.38850003 -0.030796666 0.079561852 12762287
0.3948065 -0.032492086 0.077850096 12696496
0.40487933 -0.034924544 0.075389281 12762033
0.41310003 -0.03694237 0.073055528 12959412
0.42333332 -0.038734436 0.070999831 13025205
0.38699999 -0.024675753 0.077963643 13223609
0.39447141 -0.024433549 0.074070729 12828339
0.40187997 -0.026669329 0.071141221 12630704
0.38653758 -0.014952702 0.077421673 13158331
0.39336923 -0.015275398 0.072340831 13223611
0.38686445 -0.0054209977 0.076840237 12829367
0.39191675 -0.0055328519 0.071771622 13092282
0.38778484 0.0045638843 0.07704974 12369073
0.39147165 0.004862993 0.072309025 12763319
0.38794261 0.014708836 0.076755144 12895160
0.39082229 0.014663432 0.07185249 13026745
0.38829026 0.024142206 0.077772252 13487296
0.3914305 0.025443306 0.072980262 13553346
0.38885713 0.031662483 0.078789793 13685188
0.39296663 0.035379685 0.074501164 13816261
0.3943598 0.04510735 0.07534083 13947590
0.39488488 0.055173084 0.075050145 14144969
0.39546019 0.064927854 0.074675992 14473934
0.40000001 0.069423698 0.070212476 14671313
0.39733335 0.074436598 0.076239444 14671057
0.40022212 0.076516204 0.071682274 14671313
0.39820838 0.084572643 0.078460507 14473678
0.40081331 0.085254863 0.073428854 14605520
0.39783725 0.095016271 0.078711092 14211019
0.40143031 0.094936073 0.073811606 14276812
0.39795557 0.1049058 0.078463502 14211021
0.40127718 0.10496745 0.073577173 14211276
0.39885715 0.11177737 0.07908231 13881801
0.40057296 0.11527363 0.074869528 7367780
0.51745838 -0.13343817 0.087748624 14604239
0.52254176 -0.1334735 0.083052695 14538445
0.51588672 -0.12465831 0.086714424 14801616
0.52204353 -0.12581736 0.081909105 14867409
0.50715387 -0.11335672 0.089110099 14538444
0.51481664 -0.11514819 0.084787622 14735823
0.52028573 -0.1165864 0.080538295 14933202
0.49900001 -0.10030081 0.089926407 14011587
0.50591666 -0.10442363 0.087548979 14209479
0.51272088 -0.10590921 0.082955822 14472651
0.49581084 -0.093608171 0.086520053 13617086
0.50365222 -0.097136185 0.083683722 13748671
0.51050007 -0.099027082 0.08064492 14012099
0.47750005 -0.08163581 0.089032322 13222584
0.48444119 -0.083799563 0.086391568 13222584
0.49254546 -0.086672708 0.082957841 13354170
0.44700003 -0.072897784 0.08767201 13090485
0.47535297 -0.074933082 0.083439544 13156534
0.48166668 -0.078213073 0.083229728 13222328
0.4370001 -0.063548781 0.087369598 12827826
0.44248992 -0.065522708 0.083502255 12827570
0.45300001 -0.067724057 0.081636593 13025205
0.46900001 -0.067920201 0.08012826 13025205
0.47000003 -0.069165297 0.080299109 13025205
0.41800001 -0.051588394 0.085672751 13025205
0.42387882 -0.054655291 0.085283004 13025205
0.4342353 -0.057415888 0.082877837 12959412
0.38510001 -0.042367462 0.088143088 12761777
0.39422229 -0.042834666 0.084106229 12827826
0.40157145 -0.042175464 0.08136569 12893619
0.4147647 -0.047961861 0.082341455 12959412
0.37899998 -0.034036197 0.089594714 13684418
0.38389987 -0.034388296 0.085677803 13157304
0.39360613 -0.037209537 0.081787899 12761776
0.40000001 -0.039199535 0.080512956 12696494
0.37900001 -0.027825478 0.089594714 13750211
0.38299227 -0.024987698 0.084784493 12104874
0.37871432 -0.013252631 0.087930381 2041889
0.38163641 -0.015734481 0.083902299 2699307
0.3786 -0.0064131366 0.087948091 2107171
0.3817158 -0.0046054823 0.083720066 2830636
0.38411841 0.0047440841 0.085041791 11184543
0.38410679 0.015030896 0.084896833 12697780
0.38452294 0.025186399 0.08509513 13487296
0.38709921 0.034812968 0.085028827 13750211
0.39000002 0.038654804 0.080691323 13881797
0.38807058 0.044671871 0.086838782 13816004
0.39076599 0.045322821 0.08201956 13816004
0.38831827 0.054574247 0.087538637 14079176
0.39096892 0.055285301 0.082753524 14144969
0.38888887 0.062505342 0.088324055 14473934
0.39143866 0.065612368 0.084198579 14539727
0.39346039 0.075045504 0.085159041 14605520
0.39452341 0.084980786 0.085357301 14276555
0.39394742 0.094887815 0.085296132 14145225
0.39360628 0.10502174 0.085249878 14079434
0.39483693 0.11381207 0.084460981 9209729
0.40000001 0.11788277 0.080512956 3156001
0.49750003 -0.13144384 0.099165685 14669774
0.50512004 -0.13312739 0.096033752 14341065
0.5122382 -0.13339718 0.091851108 14604238
0.4969697 -0.12442892 0.098228179 14604237
0.50411636 -0.12503886 0.093939617 14670030
0.51090008 -0.12721305 0.091232628 14670030
0.496234 -0.11427958 0.096980706 14406601
0.50294608 -0.11560643 0.092158549 14538188
0.48760003 -0.10234867 0.098600149 13814208
0.49464998 -0.10517525 0.095322795 14011844
0.50171429 -0.10638541 0.091169022 14208966
0.47566667 -0.09320572 0.099452674 13353657
0.48488235 -0.095390834 0.095848858 13551036
0.49223813 -0.097242847 0.092544749 13682879
0.45400003 -0.08275307 0.099884786 13222071
0.46900001 -0.088781014 0.098793194 13287864
0.47546154 -0.084779568 0.091927767 13287864
0.48100004 -0.087862968 0.091561258 13353657
0.42873329 -0.071523584 0.096466161 12761776
0.43126667 -0.074845761 0.098047331 12827313
0.384 -0.060105328 0.099316731 12761520
0.41700003 -0.06234201 0.095158771 12630447
0.42665523 -0.067543298 0.096071534 12827569
0.4318572 -0.066583589 0.091397688 12827313
0.37850001 -0.050383687 0.099665791 13024692
0.38263997 -0.054075167 0.097780034 12761777
0.39100003 -0.05479363 0.095177501 12893106
0.42800003 -0.059978705 0.090156697 13025205
0.37624145 -0.043953389 0.096694835 13222840
0.38090003 -0.04610334 0.092807442 12827568
0.37402537 -0.035034698 0.095073171 13947077
0.37681055 -0.025538335 0.095517218 11710373
0.38036367 -0.022056872 0.091373086 7893867
0.37706816 -0.014572863 0.095446557 2107168
0.38011116 -0.018959291 0.091537707 2040604
0.37696332 -0.0053439308 0.095260538 2106911
0.38000003 -0.00076649763 0.09161029 2171415
0.37837502 0.00095347787 0.098026499 8421750
0.38151556 0.0054766405 0.094732359 10197647
0.37868577 0.016028678 0.098967232 12960952
0.38101894 0.015084648 0.093947187 12500658
0.37866673 0.023256371 0.099181958 13421246
0.38142237 0.025319416 0.094449617 13355967
0.38260987 0.035116088 0.09498962 13487296
0.38287401 0.04493909 0.094977207 13552832
0.38392514 0.054840278 0.094960138 14211018
0.38627884 0.064837717 0.095144264 14473934
0.39000002 0.069209777 0.090673424 14671312
0.38760877 0.074719071 0.096376494 14276555
0.39066669 0.075567536 0.091741629 14473933
0.38755307 0.085156322 0.096357748 14078919
0.39082056 0.084532365 0.091824315 14079176
0.38681808 0.095030166 0.09585388 13882310
0.39004543 0.095088549 0.090836138 14013639
0.38624218 0.1048611 0.095450535 13817031
0.39000002 0.10486013 0.090564743 13948616
0.38726005 0.11205241 0.094761133 10921117
0.39000002 0.1122728 0.090521269 11250083
0.48700002 -0.1314389 0.10828387 14406861
0.49218756 -0.13155371 0.10316501 14407116
0.48689759 -0.12411415 0.10720436 14406858
0.49147713 -0.12585248 0.10273945 14538701
0.47630006 -0.1122422 0.10880095 13945794
0.48509687 -0.11516208 0.10526695 14077637
0.49127775 -0.11612937 0.10092875 14340808
0.46677274 -0.10296502 0.10790635 13682622
0.4737587 -0.10616685 0.10636682 13814208
0.48472732 -0.10599468 0.10223591 13945794
0.49000001 -0.10996276 0.10092257 14011587
0.44500002 -0.090488374 0.10936397 13090485
0.45747831 -0.092514597 0.10739665 13222071
0.46346 -0.095609166 0.10486443 13419450
0.47371429 -0.095697865 0.10125986 13485243
0.48100004 -0.098934807 0.10019493 13616829
0.43770003 -0.081833646 0.10511558 12958899
0.44400007 -0.08578559 0.1071385 13024692
0.45561904 -0.08751896 0.10465203 13090485
0.46180001 -0.088714987 0.10246377 13222327
0.40720004 -0.070983075 0.10922241 12695983
0.41433334 -0.075963438 0.1089367 12761520
0.428 -0.072503328 0.10217748 12761776
0.43233335 -0.076953322 0.1020906 12761777
0.38374192 -0.061979137 0.10696796 12564140
0.39333335 -0.066170223 0.10801164 12629934
0.40160003 -0.068313785 0.10828532 12695727
0.42800003 -0.069998264 0.10067722 12761777
0.36636668 -0.052259333 0.10844578 13157302
0.37442863 -0.05372275 0.10527799 12762032
0.38195243 -0.05740251 0.10329656 12498605
0.36572286 -0.044611827 0.10597085 13947075
0.37181821 -0.046045225 0.10137037 13354427
0.36753452 -0.035737146 0.10511804 13947333
0.37021869 -0.032109234 0.1037413 13684162
0.37344688 -0.024843067 0.10471927 10131341
0.36900002 -0.013701844 0.10969047 1975581
0.37195769 -0.014847045 0.10502259 2041375
0.37214911 -0.0051194164 0.10507429 1909533
0.37730634 0.0049456879 0.10512059 9671818
0.38000003 0.0063501969 0.10065442 9934475
0.37697545 0.015058152 0.10490952 12302765
0.37657213 0.025093241 0.10503177 13158075
0.37736154 0.03490876 0.10493704 13289917
0.38000005 0.036596153 0.10050617 13223867
0.37766096 0.045034736 0.10543127 13684418
0.38005009 0.045231599 0.10096419 13618625
0.37782684 0.054584071 0.10701599 13881798
0.38111106 0.055652775 0.10241184 14211018
0.37806571 0.064486191 0.10766808 13750211
0.38175306 0.065226041 0.10282465 14079176
0.37804237 0.074960053 0.10754035 13816003
0.38262063 0.074992523 0.10254919 14079176
0.37766668 0.084999144 0.10740098 13684673
0.38256332 0.084853448 0.10250333 13816004
0.37787327 0.095074214 0.10737894 13750980
0.38196343 0.09457507 0.10245851 13750468
0.37807807 0.10485098 0.10715722 13882310
0.38115728 0.10495536 0.10226261 13750983
0.37844449 0.11150535 0.10767286 10854811
0.38129166 0.11151286 0.10288838 11710890
0.4762857 -0.13157313 0.11744358 14275273
0.48205554 -0.13174993 0.11288333 14143944
0.46900001 -0.12193872 0.11943442 14077893
0.47445005 -0.12494829 0.11640445 14077893
0.48202947 -0.12583265 0.11168914 14209736
0.46699995 -0.11401354 0.11722966 13946050
0.47260001 -0.1162119 0.11303841 13946051
0.48033336 -0.11791444 0.11017627 14012100
0.44700003 -0.10073061 0.11822276 13353657
0.45620003 -0.1032338 0.11649092 13551036
0.4642857 -0.10601938 0.11384107 13748415
0.47000003 -0.10932547 0.11000662 14077380
0.43875 -0.092554584 0.11758415 13090485
0.44310006 -0.095070027 0.1153412 13156278
0.45406252 -0.097310081 0.11264654 13287864
0.46100003 -0.098418713 0.11125585 13419450
0.41512123 -0.082293354 0.11605637 12827312
0.42225003 -0.086606726 0.11711846 12893106
0.43840009 -0.087569557 0.11313971 13024692
0.44016668 -0.08899051 0.11126705 13024692
0.36800003 -0.070810527 0.11944398 12498604
0.4079091 -0.072877415 0.11257498 12695727
0.41260791 -0.077502355 0.11398822 12761776
0.36729884 -0.064238206 0.11674395 12433323
0.375 -0.062334556 0.11285056 12630446
0.38256752 -0.065308414 0.11219772 12630445
0.36553609 -0.055061117 0.1146759 11841956
0.37366667 -0.058924899 0.11063681 12564908
0.36552247 -0.046092149 0.11376148 10592661
0.37 -0.046220601 0.11951567 9079681
0.3676191 -0.036799561 0.11161484 10460821
0.372125 -0.031963993 0.11349446 9934732
0.37337095 -0.025071731 0.11268576 7566444
0.36823189 -0.014098066 0.11309607 1843739
0.37073332 -0.018916447 0.11176703 1909532
0.36846426 -0.0057798461 0.11364239 1843740
0.37049994 -0.0030141613 0.11150335 1843739
0.36900002 0.00011952608 0.11487348 9474695
0.37574551 0.0050154594 0.11218814 8027764
0.37665954 0.015034041 0.11178079 9408646
0.37660018 0.024575226 0.11234345 10066578
0.38050002 0.028626315 0.1166732 9474438
0.37729546 0.034767579 0.111637 11974314
0.38252389 0.035114381 0.11691491 9540232
0.377244 0.045811124 0.11353657 11316385
0.38058338 0.044962551 0.11855322 9804173
0.37769654 0.054773241 0.11319706 11974058
0.38046664 0.055673875 0.11838432 10592661
0.37800005 0.064606957 0.1121363 13027003
0.38180399 0.06540706 0.11728543 10395799
0.3778668 0.075103156 0.11235737 13224639
0.38143179 0.074582823 0.11736616 10395800
0.37742618 0.084602199 0.11219797 12895416
0.38206813 0.085357018 0.11754287 10987679
0.37779644 0.095148332 0.11215997 12895671
0.38189778 0.094724305 0.11741465 11316899
0.3781001 0.10543714 0.11220199 13026744
0.38202086 0.10492527 0.11743957 10065807
0.3780801 0.11157291 0.11338138 7038048
0.38000003 0.11043186 0.11740831 2301468
0.45575002 -0.13081594 0.1288074 13683394
0.46662501 -0.13106963 0.12327392 13683136
0.47025001 -0.13167568 0.12107319 13354170
0.45632142 -0.12495381 0.12766419 14077636
0.46461827 -0.12499066 0.1229156 14077893
0.47049999 -0.12871714 0.12058684 13946307
0.44655567 -0.11360361 0.12783182 13748413
0.45486009 -0.11534017 0.12470169 13880258
0.46232149 -0.11581331 0.12150322 13945794
0.42700002 -0.10171106 0.12915106 13024948
0.43563896 -0.10308595 0.12702101 13222326
0.44349065 -0.10563625 0.12408431 13419450
0.4550834 -0.10825264 0.12133431 13814208
0.39853853 -0.093171634 0.12923644 12827568
0.40349999 -0.091968454 0.12891568 12893106
0.41563636 -0.092037633 0.12690803 12893360
0.42451727 -0.095642813 0.12666526 12959154
0.43550009 -0.096635267 0.12320028 13024947
0.44025001 -0.099056274 0.12082171 13222071
0.37180001 -0.082043454 0.12880054 12564653
0.38100001 -0.080150098 0.12931234 12433068
0.39489743 -0.084432893 0.12830995 12761775
0.40495837 -0.086844862 0.12660591 12893361
0.41143474 -0.085294753 0.12292802 12893360
0.36853844 -0.071357131 0.12249549 12630701
0.37139633 -0.074721739 0.12735039 12170150
0.38100001 -0.077474311 0.12663655 12630701
0.41100001 -0.079726011 0.12025125 12959153
0.36808571 -0.065246336 0.1227523 11511962
0.37093472 -0.064555511 0.12791792 11183252
0.36851862 -0.055827491 0.1215937 11446684
0.37104371 -0.054592479 0.12643652 10986389
0.36900002 -0.049551021 0.1200565 11052697
0.37115911 -0.04776727 0.12581863 9737611
0.38000003 -0.026564516 0.12007707 8487798
0.36350003 -0.014371694 0.1294293 1778202
0.36145458 -0.0049567553 0.12944792 2171934
0.38500002 0.039781552 0.12075573 9212293
0.38266668 0.043708246 0.12032118 9146243
0.38129413 0.054575589 0.12080107 9211010
0.38465631 0.065778226 0.12168976 10066576
0.38433337 0.07490506 0.12159765 10527639
0.38542423 0.084937721 0.12179167 10790295
0.38500014 0.094760351 0.12165702 10790555
0.38500011 0.10418296 0.12149315 11381666
0.43900001 -0.13037658 0.13974831 10657429
0.44542861 -0.13064437 0.13582851 12499634
0.45350003 -0.13043626 0.13109292 13880516
0.43726674 -0.12395987 0.13868102 13814721
0.44458234 -0.125062 0.13459189 13880770
0.45168751 -0.12674329 0.1309641 14012100
0.42769226 -0.11130635 0.1387631 13156533
0.43458068 -0.11478857 0.13599616 13551035
0.44300005 -0.11671887 0.13206173 13814207
0.40610003 -0.10150024 0.13858935 12893106
0.41275004 -0.10543217 0.13887572 13024691
0.42593879 -0.104951 0.13404053 13024948
0.43123075 -0.10818858 0.13222319 13287862
0.37800002 -0.09080153 0.13913423 12762032
0.39823532 -0.092772223 0.13261239 12827824
0.4007037 -0.096978135 0.13516884 12958898
0.42213333 -0.098424025 0.13187531 13024947
0.37402207 -0.084015168 0.13545772 12367272
0.38750002 -0.081513971 0.13106313 12893619
0.39379171 -0.085959375 0.13153854 12696239
0.3743982 -0.075251892 0.13491367 11512218
0.37602997 -0.065158412 0.13557652 10788494
0.37412012 -0.055864818 0.13411903 10855060
0.37206116 -0.045563251 0.13265996 9277318
0.36558208 -0.014907111 0.13342518 1646616
0.37094116 -0.015102658 0.13902649 1054224
0.3632223 -0.0046723285 0.13279314 1842454
0.37164289 -0.0057233009 0.13893737 1053711
0.41800001 -0.12022571 0.14969859 13287864
0.4251475 -0.12404081 0.14716893 13617086
0.43181491 -0.12487315 0.14222582 13814721
0.40750003 -0.11172146 0.14871858 12958899
0.41501996 -0.11427873 0.14679527 13090741
0.42410716 -0.11570521 0.143558 13222327
0.43091667 -0.11856075 0.14120772 13551291
0.38176307 -0.10265233 0.14732397 12696494
0.39625001 -0.10237355 0.14561349 12893360
0.40442425 -0.10537541 0.14475016 12827569
0.41319048 -0.10774194 0.14193431 12958899
0.421 -0.10926174 0.14042334 13156532
0.37866667 -0.090986639 0.14171931 12368041
0.38159615 -0.095473155 0.14607497 12301992
0.39453846 -0.098411769 0.14277869 12695981
0.40000001 -0.099129595 0.14231583 12893106
0.37794459 -0.084899358 0.14312194 11972770
0.38074979 -0.085352451 0.14816941 11644576
0.37817404 -0.075223923 0.14232707 11051667
0.38079306 -0.074435174 0.14737956 11314840
0.37859997 -0.06514743 0.14237793 10986389
0.38047373 -0.068132833 0.14680837 11578785
0.37739998 -0.05871924 0.14116696 10789528
0.36016667 -0.021383246 0.14964385 1645594
0.37183335 -0.021206036 0.14353697 4079931
0.36100003 -0.019320538 0.14956774 1186067
0.37306431 -0.014673704 0.14458083 725259
0.36696491 -0.0028385776 0.14665546 1642506
0.3726353 -0.0067399931 0.14429578 527880
0.36566666 0.00011844635 0.14379066 4138012
0.39757141 -0.12152924 0.1594 12959412
0.40524238 -0.12238812 0.15735984 13091253
0.41439348 -0.12416193 0.15357594 13288120
0.42075002 -0.1253259 0.15080576 13617086
0.38742316 -0.1118869 0.15695633 12696494
0.39400008 -0.11621686 0.15730019 12761776
0.40564144 -0.11637811 0.15403697 12959154
0.41193333 -0.11809532 0.15137988 13156277
0.38387755 -0.10485828 0.15508185 12236199
0.40400001 -0.1095786 0.15035939 12695981
0.38328984 -0.095068865 0.15506899 11842212
0.3831065 -0.084721364 0.15511064 11249819
0.38232812 -0.076599985 0.15348497 11250077
0.36018184 -0.021821475 0.15470354 1778203
0.3586452 -0.013534833 0.15823305 1054222
0.3615455 -0.014905954 0.15411615 1120016
0.37117648 -0.013220817 0.15148319 527878
0.35883331 -0.0089138532 0.15868004 1054223
0.36254966 -0.0050583053 0.15449177 1184525
0.3705 -0.0085534593 0.15061179 527879
0.36387503 0.0002243823 0.1532035 4532775
0.38894114 -0.12199033 0.16692831 12564909
0.39280003 -0.12206553 0.1627045 12696238
0.38857144 -0.11429745 0.16347769 12564906
0.39112499 -0.11856189 0.16175851 12564651
0.38713217 -0.10500683 0.16304725 11973027
0.38653567 -0.094985567 0.16283236 11315357
0.38507417 -0.086684734 0.16181299 11381922
0.34557137 -0.022075173 0.16814981 1120529
0.35485721 -0.021004381 0.16670392 528650
0.36162806 -0.021895504 0.16406104 923406
0.34603104 -0.014927868 0.16809236 857357
0.35535687 -0.014569573 0.16443376 988944
0.36045462 -0.01840985 0.16268925 988943
0.34522867 -0.0064636581 0.16816664 857358
0.35603943 -0.0075488873 0.16433591 988432
0.36068749 -0.0034351246 0.16305356 922639
0.36200002 0.00011725865 0.16227004 2502439
0.33794868 -0.02200349 0.17774373 1251860
0.340884 -0.023135453 0.17287 1514517
0.33729437 -0.014859158 0.17739464 1251860
0.34116963 -0.015207767 0.17235135 1317394
0.33792126 -0.0053826994 0.1777516 1054481
0.34088874 -0.0051606297 0.17278028 1054736
0.33866668 0.00010970054 0.17836951 1514519
0.34050003 0.00011029439 0.17554341 1317657
0.33333731 -0.022212647 0.18367648 1317396
0.33315331 -0.01487022 0.18378262 1186323
0.3340683 -0.0053110262 0.18286984 1054736
