# .PCD v0.7 - Point Cloud Data file format
VERSION 0.7
FIELDS x y z rgb
SIZE 4 4 4 4
TYPE F F F U
COUNT 1 1 1 1
WIDTH 386
HEIGHT 1
VIEWPOINT 0 0 0 1 0 0 0
POINTS 386
DATA ascii
0.38821435 -0.10300399 -0.0023142337 13420993
0.39000002 -0.1031945 -0.0053434246 14473679
0.38590208 -0.095569536 -0.0019341663 14144455
0.38541666 -0.085806899 -0.00084436667 14144197
0.38900003 -0.078418076 -0.00024522792 13288632
0.39000002 -0.076565415 -1.7609073e-05 15394777
0.41443989 -0.063955754 -0.0035895617 13880513
0.40900001 -0.053486187 -1.8466952e-05 13222582
0.41507855 -0.055174768 -0.0037003374 13552059
0.40800002 -0.043804068 -1.8421801e-05 11249046
0.414 -0.044501141 -0.003376598 14407112
0.41379625 -0.035349511 -0.002732791 13946563
0.40900001 -0.022846948 -1.8466952e-05 11973032
0.41358939 -0.025125738 -0.0028755111 13618111
0.40879998 -0.015755136 -1.845792e-05 13815232
0.41284448 -0.015245249 -0.0030917728 13881284
0.41341919 -0.0049376376 -0.0028164471 13288890
0.40900001 0.0034836503 -1.8466952e-05 14276299
0.41359022 0.0050583966 -0.0030409282 12762804
0.40900001 0.010664723 -1.8466952e-05 12829363
0.41567141 0.015289788 -0.0039040882 12960439
0.41628119 0.022427917 -0.0035574643 11973545
0.3847912 -0.10415466 0.0057406812 13223615
0.38249132 -0.094985731 0.0052305264 13289403
0.38304511 -0.084974259 0.0053596883 13420731
0.3864274 -0.075325079 0.0058002211 13486523
0.39000002 -0.074130766 0.0011997203 14605261
0.3880274 -0.066009708 0.0071827425 13552573
0.39021429 -0.062969059 0.0043538981 13946818
0.38878569 -0.057668112 0.0094737681 13289144
0.39358327 -0.054774974 0.0063341274 13157816
0.40218747 -0.052769996 0.0025676407 12169895
0.39492187 -0.045159042 0.0068928879 12959923
0.40230772 -0.045072757 0.0025510117 13749182
0.39629826 -0.035268556 0.0073013189 12829109
0.40319449 -0.035291925 0.003224951 13355197
0.39726087 -0.025161745 0.0077830465 12763573
0.40267938 -0.025073487 0.0036198033 12433839
0.3974286 -0.014601786 0.0079540005 12368559
0.40249163 -0.015009665 0.0037428525 11842471
0.39696369 -0.0047569508 0.0071424409 11315359
0.40244442 -0.0067241406 0.0033791664 10064778
0.41000003 -0.0008270106 0.00094130525 13881286
0.39678785 0.0047750222 0.0069443434 11381921
0.40341458 0.0049178274 0.0024403676 11973287
0.39711109 0.015195944 0.0066790381 11513251
0.40207702 0.014467715 0.0026219732 10986651
0.39687493 0.025282588 0.0063423319 12697268
0.40190914 0.023565052 0.0023750118 11842216
0.39556828 0.035314456 0.0059995921 12696754
0.39421684 0.045222025 0.0061721909 11249565
0.39236009 0.053675011 0.0067597199 14078918
0.4036667 0.051161051 0.0028167467 13618367
0.38795 -0.11131135 0.01674347 12630451
0.38442993 -0.10479429 0.015316264 12697526
0.37900001 -0.090598121 0.01883686 13815232
0.38057941 -0.094952911 0.015027922 12432811
0.37899998 -0.086531572 0.018319298 13485497
0.3803699 -0.084431931 0.014059437 12434092
0.38179043 -0.074992523 0.015201507 12697007
0.38416755 -0.065034091 0.015301781 13026485
0.38640505 -0.055048391 0.015354978 12697264
0.39000002 -0.051458001 0.010025358 12763316
0.38831154 -0.045651 0.015990995 12763313
0.39056674 -0.043363515 0.0111054 12105384
0.38899997 -0.036136322 0.017339543 11842470
0.39133784 -0.034188632 0.012779024 12697264
0.38899997 -0.028104331 0.018475758 9472641
0.39187023 -0.02447946 0.014174336 12104872
0.38900003 -0.011712524 0.019106213 12960949
0.39220533 -0.015151889 0.014561892 11710884
0.3889032 -0.0045443578 0.018513715 11381665
0.39235169 -0.0054342179 0.013579488 11512993
0.38850009 0.0049380474 0.018436218 10723478
0.39231306 0.0045095463 0.013153807 11381665
0.38819146 0.014201188 0.018426465 10855064
0.39324048 0.015127467 0.013117788 11380895
0.38769045 0.025016567 0.018714936 11381150
0.39342704 0.024963057 0.013394848 11381152
0.38726664 0.03491614 0.018574364 12105389
0.39355811 0.035211198 0.013259041 11183001
0.38672736 0.045118287 0.018660882 11710116
0.39226142 0.045119595 0.013292731 10064521
0.3876667 0.054267857 0.017526085 10525842
0.3913334 0.053438112 0.013079135 13552573
0.3864167 -0.11084026 0.024471747 13485503
0.38365701 -0.10522557 0.025255263 12499891
0.37855843 -0.09342511 0.025888074 12499886
0.38036358 -0.097401522 0.02299232 12564912
0.37838829 -0.085089892 0.02494394 12301738
0.38000003 -0.081185147 0.021155009 13749438
0.37899998 -0.079581477 0.027783254 13881796
0.38093665 -0.075001359 0.024809971 11841186
0.38361335 -0.064975895 0.025126915 11908005
0.38555378 -0.05492942 0.025253726 12105127
0.38777146 -0.045351103 0.025284855 12171177
0.38899997 -0.03728094 0.023561424 11842468
0.38999987 -0.032783065 0.025698474 11644318
0.38900003 -0.027649006 0.020016866 11052186
0.39016488 -0.024701856 0.024971997 11446942
0.38899997 -0.012167852 0.02457015 12960954
0.39012313 -0.017076362 0.024466995 11118749
0.38803121 -0.0054117749 0.025076326 11052958
0.38704142 0.004653113 0.025348503 10986651
0.38612813 0.014760278 0.025388626 11052187
0.38520288 0.025076516 0.025131688 11183514
0.38366923 0.035147347 0.025127523 11249565
0.3781952 0.047844164 0.026715459 12367530
0.38160437 0.043864742 0.024216471 12038053
0.37729576 0.054841287 0.025425281 12104358
0.38050002 0.050450459 0.020470239 13289147
0.37742108 0.06090099 0.027463799 13223866
0.38500002 -0.11118485 0.033330418 10590611
0.37875003 -0.10095662 0.036112707 14144200
0.38215855 -0.10548379 0.034291897 12301998
0.3774381 -0.095015205 0.034908194 12630960
0.37751737 -0.085055217 0.034973778 12105128
0.37865382 -0.07796821 0.03598398 12895157
0.3806437 -0.073435836 0.034305308 11184543
0.3826665 -0.064816572 0.03491807 12170921
0.38523942 -0.054885328 0.03515454 11447712
0.38782951 -0.04521298 0.035219647 12170920
0.38899997 -0.038676836 0.034653999 12172205
0.39029655 -0.033356998 0.034672949 11446426
0.39095676 -0.024782404 0.034642577 11447456
0.38859728 -0.013306659 0.03571178 11908010
0.39012501 -0.017607039 0.033792295 10658713
0.38627279 -0.0053056129 0.035243873 11314843
0.38497505 0.004629381 0.035127036 10658200
0.38466623 0.0149832 0.035099722 10920859
0.3841072 0.025299357 0.035048556 10986649
0.38210741 0.035005633 0.034866083 10986392
0.37807217 0.046434868 0.035311934 11052443
0.3805227 0.041605845 0.034237131 11710372
0.3754769 0.054980338 0.035199154 11577757
0.37533334 0.061114836 0.034864604 13290175
0.37840003 -0.10166137 0.04542543 13289403
0.38125917 -0.10581125 0.044743352 11841705
0.37594199 -0.094932675 0.044864282 12565423
0.37612861 -0.08484292 0.044887472 12236971
0.37815994 -0.075893447 0.045503139 11579041
0.38033333 -0.071427032 0.043485899 13355964
0.37900001 -0.069969654 0.049668655 14540751
0.38154978 -0.065076672 0.044906426 11973799
0.38437653 -0.055132642 0.045034152 12170920
0.38689354 -0.045118351 0.045219008 12171434
0.38855779 -0.036187626 0.045731261 12960436
0.39002788 -0.031830706 0.042667858 10130567
0.3887037 -0.024814215 0.048158746 12039593
0.39037129 -0.025358243 0.042997763 11973286
0.387104 -0.015325218 0.045105215 11644067
0.39000002 -0.019959606 0.04061076 10064782
0.38427255 -0.00527666 0.04495687 11446943
0.38319513 0.0049035866 0.044929009 10986907
0.38298383 0.015192066 0.04470586 10855066
0.38252822 0.025261646 0.044841539 10854294
0.37875003 0.038303662 0.048527129 11907753
0.38105953 0.034510467 0.044591323 10723222
0.37719813 0.04507089 0.045195468 11775652
0.38012505 0.0405013 0.041472994 11514024
0.37349328 0.05476398 0.045005981 11709601
0.37361759 0.061398197 0.044482991 12369076
0.37762266 -0.10254371 0.055525068 12170927
0.38123399 -0.10714623 0.054172236 11907244
0.37434343 -0.094677329 0.054804046 12894133
0.37477046 -0.084937543 0.054784469 11908264
0.3772276 -0.075441435 0.055063579 11973541
0.37878376 -0.068730809 0.055774856 13026487
0.38080624 -0.063878119 0.054779567 12105384
0.38237587 -0.055026945 0.054941971 12500143
0.38399217 -0.044939838 0.055348679 12368043
0.3846513 -0.03499325 0.055349693 12499888
0.38439408 -0.025074579 0.055309072 12368304
0.37900001 -0.010967808 0.059428353 8616562
0.38286918 -0.015179521 0.05501695 12236461
0.37899998 -0.0074188244 0.059428353 10919829
0.38123021 -0.0051266733 0.054629385 11644580
0.38109732 0.005029975 0.054845072 11249822
0.38105315 0.015288441 0.054839078 10789014
0.37893754 0.027677985 0.058531303 12170923
0.38090378 0.024636604 0.054341488 10854808
0.37778676 0.035711512 0.055587105 11052187
0.38033339 0.031582315 0.052266341 12169385
0.37424311 0.045212027 0.055016737 11908008
0.36882147 0.056426972 0.058602847 12630700
0.37089273 0.054616559 0.054254144 11708829
0.36900005 0.060588017 0.058724161 13158849
0.37066659 0.061068024 0.054772228 10723223
0.38174999 -0.11069311 0.064775705 13354946
0.37695897 -0.10384583 0.065245815 11973290
0.38056004 -0.10856692 0.064127274 11643814
0.37336186 -0.095093183 0.065023266 12828341
0.37382767 -0.085311301 0.065005206 12565167
0.37651071 -0.075118512 0.065011069 12302764
0.37824354 -0.065631673 0.065736867 12368044
0.38024002 -0.062079743 0.062185742 13618366
0.37865904 -0.054977357 0.068661503 11644065
0.38068196 -0.055058826 0.063710585 12170923
0.3784681 -0.044837505 0.068505339 12433325
0.38100004 -0.045186065 0.06357415 12434096
0.37812006 -0.034848634 0.067313194 12171437
0.38081351 -0.035083216 0.062596537 12565166
0.37777451 -0.024667202 0.066436976 11578788
0.38060001 -0.02551247 0.061638609 12369076
0.37725198 -0.014698233 0.065220475 11907495
0.38011116 -0.017674334 0.060788963 13552575
0.3772245 -0.0052567604 0.064994387 11512481
0.38000003 -0.0016560844 0.060474742 11249306
0.37803084 0.0051252241 0.065562196 11052443
0.38000008 0.003859354 0.060711972 10000783
0.37826851 0.015153597 0.065583184 11118494
0.38000008 0.015451357 0.060611609 12894133
0.37751898 0.025080122 0.0651723 11184032
0.38000003 0.021917967 0.060474746 11776169
0.37467375 0.03486019 0.064954013 11315873
0.36809623 0.047478285 0.067145929 13222585
0.37141591 0.043624867 0.064045638 11118237
0.36717197 0.054604765 0.064941332 11775649
0.37 0.050358094 0.060615662 13880255
0.36770004 0.06063325 0.064876653 11578535
0.37577143 -0.10452947 0.075011641 11643812
0.37160137 -0.094731227 0.075107023 12565425
0.37203503 -0.084867053 0.074951053 12696754
0.3744863 -0.074962586 0.075031787 12499889
0.37668127 -0.064991735 0.075186104 12302508
0.37698469 -0.054820608 0.075336292 12433838
0.37608948 -0.04486138 0.075315543 12564653
0.37508342 -0.035002761 0.075051188 11907495
0.37468073 -0.024878271 0.074972399 11446944
0.37415174 -0.014769545 0.074870452 10789529
0.37390172 -0.0051307646 0.074817359 11578019
0.37435418 0.0049428474 0.074905373 11249822
0.37496233 0.015044365 0.075026453 11184287
0.37364891 0.025138592 0.074917719 11381667
0.36843342 0.038011063 0.077723123 12828342
0.37119988 0.034347489 0.074325934 10920859
0.36678281 0.045371313 0.075290404 11907238
0.37041664 0.041164275 0.071161725 10066834
0.36483124 0.055140469 0.07477098 11315614
0.36540002 0.0605096 0.075425148 7367269
0.37833333 -0.11088385 0.087567948 10591640
0.38000003 -0.11285444 0.088645004 14013133
0.37487394 -0.10486157 0.084781155 11249567
0.37103137 -0.094832428 0.085132457 12302255
0.37101585 -0.084976241 0.085051723 12564912
0.37233341 -0.075273365 0.084961273 12697011
0.37342677 -0.06504374 0.085047103 12631477
0.37381312 -0.055211324 0.085218839 12301998
0.37362963 -0.044957273 0.085226461 12104361
0.37400031 -0.034900486 0.084910534 10723737
0.37396383 -0.024781542 0.085093521 8157809
0.37400031 -0.014763047 0.084910519 7895152
0.37207669 -0.0050778422 0.084870681 9802380
0.37156945 0.0049061631 0.08478871 10855321
0.37219706 0.014932979 0.084927946 11052444
0.36876002 0.027639801 0.088347524 11579303
0.37115583 0.024288703 0.084309511 11052702
0.36757267 0.035319094 0.085255019 11250080
0.37020001 0.031318661 0.081447676 9934221
0.36476386 0.044943735 0.084944651 11775909
0.36385274 0.054783955 0.08463376 10920599
0.36500001 0.060785707 0.080303848 2827294
0.37823531 -0.11139366 0.092381231 10920346
0.3739585 -0.1049988 0.095161095 11644067
0.37100726 -0.094844259 0.095061235 12235946
0.37067848 -0.08510939 0.09489502 11776164
0.37091616 -0.074990585 0.095063716 12302767
0.3709693 -0.065012544 0.095076628 12368304
0.37108302 -0.055042788 0.095103025 12170926
0.3715184 -0.044912841 0.095071614 11907238
0.3732557 -0.035156187 0.094974041 9999756
0.37202168 -0.025132684 0.095019229 2239011
0.37250361 -0.015196403 0.094924353 2698794
0.37169528 -0.0050379038 0.095031343 8880762
0.36899999 0.0087098917 0.097404808 8288621
0.37026969 0.0043359445 0.094490804 10197392
0.36889735 0.015928954 0.097004384 10526355
0.37021241 0.014419663 0.092401035 11184544
0.36808595 0.025146049 0.095130652 11380894
0.37 0.021232905 0.090498753 10262930
0.3663905 0.034804218 0.095006846 10395029
0.36394414 0.044844992 0.094981261 11381666
0.36334389 0.054333679 0.094693199 10723477
0.37788892 -0.11075316 0.10732044 10987165
0.37505612 -0.10490264 0.1049154 10657686
0.3722972 -0.094923019 0.10496853 11184802
0.37113884 -0.084913224 0.10488804 11446942
0.37087083 -0.074981935 0.10503881 11644322
0.37082618 -0.064988911 0.10502622 11775910
0.37061334 -0.05497307 0.10496745 11511965
0.37099966 -0.045042738 0.10507379 11577757
0.37186438 -0.035073485 0.10488255 8684153
0.36840326 -0.024224086 0.10716074 2107425
0.37057763 -0.025686648 0.10320509 2239009
0.36856765 -0.017136514 0.10792842 2239011
0.37092644 -0.014288859 0.10412677 2698536
0.37152398 -0.0052045784 0.10501486 8289653
0.36899999 0.0091898004 0.10177197 6184274
0.37018779 0.0048029507 0.10524198 9145219
0.36883175 0.015797717 0.1045038 9868684
0.36999992 0.011655751 0.10797977 10856604
0.36785126 0.025090443 0.10504512 10263184
0.36697742 0.034909353 0.10493976 10000011
0.36456066 0.044919275 0.10496076 10657941
0.36406192 0.053767931 0.10463179 10461076
0.37666667 -0.10285103 0.1127789 8618874
0.37559354 -0.094619773 0.1140328 9277317
0.37493345 -0.085185871 0.11478919 9736840
0.37366992 -0.074923679 0.11466342 10000525
0.3730894 -0.065034613 0.11486114 10526870
0.37213814 -0.05489178 0.11477495 10592147
0.37236699 -0.044920012 0.1151536 10197133
0.36866668 -0.030087518 0.11908421 2567720
0.372547 -0.03492786 0.11497827 6776670
0.36714104 -0.024573443 0.11516222 1910047
0.37 -0.029330159 0.11258626 2370598
0.36736107 -0.015634917 0.1152321 2239269
0.3702631 -0.010646407 0.11380493 5462098
0.37173948 -0.0050917929 0.11480016 7105634
0.37123999 0.0047767977 0.11494981 8289910
0.36899999 0.018260075 0.11123302 7696743
0.3707878 0.014542624 0.11536364 9342339
0.36896983 0.025168337 0.11140905 9276290
0.37078601 0.024859456 0.11630002 9342082
0.36840358 0.035387181 0.11219237 9341826
0.37068355 0.034699991 0.1170334 8618617
0.36755449 0.045673266 0.11399847 9671303
0.37049991 0.042752106 0.11864361 7631976
0.3665536 0.053244025 0.11341067 9079167
0.37699997 -0.082897708 0.12042353 9342597
0.3775 -0.074995428 0.12149742 8883331
0.37620002 -0.06514097 0.12143137 8751228
0.37483335 -0.056577906 0.12117484 7632491
0.37449995 -0.044180978 0.12175907 8749945
0.36760002 -0.030688727 0.12226368 1712413
0.37380645 -0.036215298 0.12198775 6118484
0.36560792 -0.025193006 0.12271067 1712413
0.36598599 -0.014975361 0.122619 2633769
0.37338179 -0.0047025313 0.12307172 6053717
0.3740834 0.0049369726 0.12302528 7040612
0.37345445 0.014981183 0.12281886 7764076
0.37321869 0.024543747 0.12253723 7960684
0.37257141 0.035153568 0.12167649 8157809
0.37169999 0.042796224 0.12171988 7828327
0.36100003 -0.030729491 0.13942644 2041374
0.36133337 -0.024833528 0.1395552 1909788
0.36200002 -0.015560539 0.13981268 2699049
0.36160004 -0.030822467 0.14406537 1186065
0.36156145 -0.024854297 0.14410296 1383444
0.3612414 -0.015453981 0.14501096 2236441
0.36481637 -0.032015737 0.15679722 1909275
0.37 -0.030196331 0.155462 988688
0.36580005 -0.026258569 0.15708339 593929
0.37151226 -0.026434625 0.15663777 593929
0.36275017 -0.014517597 0.15544246 2692880
0.36288682 -0.032594383 0.16360952 1711895
0.36380622 -0.024853669 0.1652073 989198
0.36407161 -0.016188955 0.16505322 1184781
0.35520005 -0.031633832 0.17990807 1120272
0.36241472 -0.032640815 0.17563732 1120015
0.35719997 -0.02502154 0.17882475 791308
0.36140001 -0.024908021 0.17399645 1317908
0.3576 -0.019221209 0.1794662 659721
0.36236849 -0.016559292 0.1753591 988945
0.34599331 -0.033422146 0.18515864 1778458
0.35379416 -0.032840185 0.18033288 1252115
0.36033335 -0.033907246 0.18064322 988174
0.34560978 -0.025088754 0.18541618 1646359
0.35213792 -0.024615077 0.18079852 1252114
0.34558904 -0.016469467 0.18646094 1645847
0.35408819 -0.016503915 0.18175964 1185808
0.36221212 -0.012237787 0.18215303 2172451
0.37 -0.01027427 0.18188038 7699834
0.36200002 -0.0089928126 0.18366812 9343110
0.34156093 -0.033220772 0.19161394 1777944
0.34221426 -0.025007002 0.19191077 1711382
0.34297931 -0.016983015 0.19188134 1711127
0.79000002 0.088102594 0.32176065 10066575
0.79050022 0.094992921 0.32516715 10132624
0.79200006 0.089252688 0.33462682 10000782
0.79318184 0.094706051 0.33554962 10132368
0.79250002 0.088690996 0.34535217 10000782
0.79429638 0.095161542 0.34506661 10198161
0.7924 0.088926949 0.35686883 9935246
0.79322588 0.095083207 0.35535622 10066832
0.79508352 0.10464778 0.35556692 10132625
