# .PCD v0.7 - Point Cloud Data file format
VERSION 0.7
FIELDS x y z rgb
SIZE 4 4 4 4
TYPE F F F U
COUNT 1 1 1 1
WIDTH 433
HEIGHT 1
VIEWPOINT 0 0 0 1 0 0 0
POINTS 433
DATA ascii
0.47012502 -0.045384906 -0.11007833 16249576
0.47000003 -0.037807364 -0.11004907 14605007
0.46900001 -0.050902173 -0.10158038 15855077
0.47080004 -0.05172243 -0.10582934 16117992
0.46830904 -0.044000197 -0.10397578 16315626
0.47000015 -0.04722086 -0.10766514 16447469
0.46868747 -0.038387194 -0.10329691 14473166
0.47041991 -0.034491315 -0.10503726 13749955
0.47312504 -0.029058846 -0.10205756 12697523
0.46737036 -0.051922474 -0.094926327 15985892
0.47220001 -0.056228589 -0.092874512 15788001
0.45900002 -0.040683355 -0.09028101 16446443
0.46389204 -0.045127735 -0.094903417 16447213
0.45900002 -0.039608829 -0.09028101 15985379
0.46496224 -0.036335208 -0.094643071 14209994
0.47050008 -0.03158839 -0.095396765 13092282
0.47402239 -0.027512448 -0.094564781 12500403
0.49725002 -0.071430773 -0.080925696 15459037
0.50200003 -0.074463189 -0.08052209 15459037
0.48403129 -0.063450873 -0.083371177 15459294
0.49150002 -0.068303078 -0.084202863 15525087
0.46673915 -0.05210859 -0.085105069 15854051
0.47390008 -0.056627177 -0.085105814 15656672
0.48000002 -0.059400018 -0.081489101 15459550
0.45726532 -0.043394715 -0.084462173 16644336
0.46233332 -0.04828766 -0.08615727 16315370
0.45664296 -0.038030744 -0.084864639 15459548
0.463 -0.034852695 -0.088791132 13552321
0.47075003 -0.031254612 -0.088734716 13026489
0.47640002 -0.026652964 -0.087586254 12434351
0.48159465 -0.023667216 -0.083082467 12170923
0.48566672 -0.018259784 -0.083245277 12499887
0.51499999 -0.082420781 -0.070549935 15261658
0.49646157 -0.072214812 -0.074585542 15261915
0.50321424 -0.076499328 -0.074478462 15327707
0.51100004 -0.079983912 -0.071798682 15130328
0.48448005 -0.063706934 -0.074988186 15327452
0.4916667 -0.068613991 -0.075125366 15261658
0.45666668 -0.0504524 -0.072010048 15920357
0.46281824 -0.051661279 -0.075674511 15657185
0.47566667 -0.056687996 -0.074997447 15393244
0.48050004 -0.059349526 -0.075162992 15393244
0.44900003 -0.041636463 -0.070707902 16710385
0.45374629 -0.044727903 -0.075395957 16513007
0.4605 -0.049440619 -0.079257227 16118248
0.44900003 -0.037928358 -0.070912287 16117735
0.45221671 -0.035721939 -0.075384423 14736338
0.46600002 -0.030394657 -0.079657793 12565426
0.45400003 -0.029611962 -0.070166759 12500146
0.46400002 -0.029177975 -0.07279852 12500146
0.48196435 -0.023452546 -0.077751756 12105130
0.48590001 -0.018269932 -0.077940397 12236972
0.52850002 -0.090765655 -0.060648035 14998999
0.51706254 -0.081842341 -0.066819027 14998999
0.52268577 -0.08573354 -0.063055106 14933206
0.49716666 -0.071224011 -0.068494104 15064536
0.50523531 -0.074493468 -0.06729871 15130329
0.51404005 -0.077526629 -0.064128622 15064792
0.48413637 -0.06301108 -0.067405291 15130586
0.49300003 -0.068281844 -0.067412905 15130585
0.505 -0.069587044 -0.062680148 14998999
0.44833335 -0.050233483 -0.061944067 15722722
0.45266667 -0.051067039 -0.063622773 15591135
0.47375003 -0.055858325 -0.068778254 15064281
0.480625 -0.059055977 -0.067671269 15195867
0.44666186 -0.044424515 -0.064386211 16513006
0.45066667 -0.046275631 -0.069651581 16447214
0.44713935 -0.035452686 -0.064554945 15394268
0.45000002 -0.033038169 -0.069548547 13618116
0.44850004 -0.029253226 -0.062756024 12302511
0.45100003 -0.029416287 -0.067591503 11776425
0.5036 -0.010800329 -0.065925911 11250849
0.50529176 -0.0072277007 -0.067051239 11579814
0.51371425 -0.0039531211 -0.064099535 11842988
0.53850007 0.0064776214 -0.062426493 11448229
0.54566669 0.0082680909 -0.063043281 11448229
0.52900004 -0.090231746 -0.059467018 14933206
0.53555179 -0.093647651 -0.054060288 15196378
0.54200006 -0.09879332 -0.053315409 15262171
0.52489996 -0.083983704 -0.055289842 14933206
0.53075004 -0.088822171 -0.052984226 14998999
0.51850003 -0.076910064 -0.059500486 15064792
0.52333343 -0.078187473 -0.054382663 15064792
0.44828576 -0.050528467 -0.056991924 15788513
0.44433343 -0.044468101 -0.055433363 16446955
0.44231722 -0.034985323 -0.054934699 15591646
0.44333336 -0.029779678 -0.05469254 12566196
0.54339999 0.0088274833 -0.0559875 11447971
0.54583335 0.01104069 -0.054322612 11382178
0.5349167 -0.093928181 -0.045423254 15327964
0.52513045 -0.083965436 -0.04452372 15064792
0.53050005 -0.088624924 -0.046182197 15262171
0.51900005 -0.07880614 -0.040118054 14933206
0.52385718 -0.079016924 -0.046633322 15064792
0.48719996 -0.064171024 -0.041080177 14604241
0.49050003 -0.068737268 -0.040785126 14735827
0.43900001 -0.05072929 -0.041128095 15525341
0.44250003 -0.050615788 -0.046118136 15656927
0.43738458 -0.044029415 -0.043718465 16446698
0.44096148 -0.046473496 -0.047784511 16249320
0.43657285 -0.035063788 -0.044953629 15854818
0.43781817 -0.028229833 -0.044283945 13158076
0.44000003 -0.028698817 -0.049462166 13025977
0.53809094 0.004527315 -0.042167086 11711399
0.54200006 0.0082135797 -0.042742327 11579813
0.54631579 0.011622814 -0.044587061 11447970
0.52850002 -0.090146452 -0.031573761 15327962
0.53277504 -0.093815446 -0.035540286 15262426
0.51855558 -0.08130154 -0.033340525 14867927
0.52390248 -0.085511968 -0.035441712 15065049
0.49300003 -0.070434876 -0.037145343 14735827
0.50533336 -0.07377658 -0.031962495 14867670
0.51444453 -0.078119352 -0.034076069 14867926
0.4862175 -0.063563645 -0.035536826 14735827
0.49122223 -0.068455599 -0.035540882 14735826
0.43600002 -0.050892964 -0.034741662 15393756
0.4826667 -0.059730019 -0.032792144 14538447
0.42900002 -0.040032905 -0.030148271 16512234
0.43272713 -0.0444628 -0.034953319 16314855
0.42878255 -0.0352115 -0.030962626 16052453
0.43121332 -0.034570903 -0.035909399 15855074
0.43237144 -0.0274758 -0.034911931 13158076
0.53793752 0.0049768472 -0.03678076 11842986
0.54150003 0.0084167216 -0.036785923 11514021
0.54650003 0.011534178 -0.035606977 11448228
0.52588892 -0.091820873 -0.024448758 15065560
0.53100008 -0.094303124 -0.028970663 15262169
0.51816666 -0.08262343 -0.024083503 14868181
0.52310008 -0.087270387 -0.025619142 15131096
0.49555561 -0.071512863 -0.022451926 14605011
0.50500005 -0.07431858 -0.026378985 14802390
0.51318187 -0.078471765 -0.025363626 14802389
0.47800004 -0.060271524 -0.027438413 14539218
0.48557141 -0.064563498 -0.023483271 14670804
0.49183333 -0.06873294 -0.023245886 14605011
0.43400002 -0.050659508 -0.027959647 15130583
0.4266977 -0.043257065 -0.023766063 16183269
0.43111542 -0.046290398 -0.027620425 15920098
0.42556655 -0.035228845 -0.024933372 16052452
0.42722821 -0.026668815 -0.024114929 13618625
0.43000001 -0.026536614 -0.029211909 13223867
0.54500002 0.010383374 -0.029369269 11315872
0.52466667 -0.091891818 -0.015347102 14999510
0.5173226 -0.082852416 -0.015181901 14868181
0.52270836 -0.087937139 -0.015319425 15131097
0.49600008 -0.0713166 -0.017048098 14736597
0.50492311 -0.0748531 -0.014469759 14736595
0.51163638 -0.078342229 -0.014831956 14802388
0.48700002 -0.064448789 -0.015836248 14539218
0.49123079 -0.068044633 -0.015944703 14605011
0.42900002 -0.050578024 -0.012573079 15064790
0.43000001 -0.05094758 -0.015118981 15130583
0.42475268 -0.044595994 -0.015293189 15788511
0.41881827 -0.034358598 -0.011160665 15986660
0.42134845 -0.034918953 -0.015817113 16052451
0.42337215 -0.025719954 -0.01507875 13618370
0.52307695 -0.090823412 -0.00501899 14867668
0.51604348 -0.084037475 -0.0045162733 14933718
0.52141666 -0.088226579 -0.0072490945 15064790
0.49816671 -0.070977874 -0.0039093629 14670803
0.50445163 -0.075041711 -0.0039495705 14736596
0.51078582 -0.078754783 -0.0059182481 14802389
0.48814291 -0.064816497 -0.0080202958 14473425
0.49339136 -0.067891836 -0.0044844612 14605011
0.42600003 -0.050722972 -0.0060028769 14933202
0.41766667 -0.04174643 -0.0024118989 15920608
0.42287499 -0.045632534 -0.0058522667 15525852
0.41606259 -0.034895282 -0.0048556239 15986658
0.42000002 -0.039193057 -0.0098512396 16249832
0.41647306 -0.026200512 -0.0036754422 14342347
0.42056254 -0.025091609 -0.0091264267 13684419
0.43000004 -0.0057567358 -0.00016322054 10987677
0.51404881 -0.084757008 0.0058779824 14802388
0.49846676 -0.071643643 0.0055001113 14605010
0.50363892 -0.076285928 0.0048865699 14670802
0.48850003 -0.065026239 0.0062682591 14341839
0.49387503 -0.068346985 0.0064810491 14341839
0.41453734 -0.043979827 0.005869607 15459803
0.42025 -0.047333278 0.0012106447 15196374
0.40880951 -0.0338654 0.0088223396 15789536
0.41187343 -0.035310961 0.0043209377 15920608
0.40900001 -0.029230125 0.0092371376 15526622
0.41319987 -0.024971122 0.0052159484 14211017
0.41433334 -0.017485721 0.0074112928 11579299
0.42616668 -0.011498377 0.0033038333 10987675
0.42773157 -0.0046148342 0.0054005631 11119005
0.43000001 -0.0059005404 0.0016918689 11119261
0.4269 0.00093773863 0.006276425 11184799
0.50768423 -0.081717946 0.01586261 14802388
0.51127583 -0.085476644 0.014254784 14802388
0.49696299 -0.072059244 0.015700445 14539216
0.50317645 -0.076824091 0.014804048 14670802
0.48515153 -0.06414146 0.015771452 14276045
0.49223083 -0.068537362 0.014421315 14407630
0.40775615 -0.042870481 0.016972985 15591131
0.41227028 -0.044920996 0.012680525 15327960
0.4063985 -0.034950361 0.015290531 15789280
0.40689799 -0.025736155 0.016025908 14671569
0.4112857 -0.022250418 0.012290337 13684931
0.40815386 -0.0189768 0.018354964 13092537
0.41248283 -0.016546868 0.013897923 12039593
0.42600003 -0.0038511052 0.010950776 11119258
0.5077647 -0.08136671 0.023821995 14802388
0.51107407 -0.084561281 0.025634309 14670802
0.49546877 -0.072339229 0.024917519 14539217
0.5028801 -0.077586368 0.025076188 14736595
0.48556256 -0.064465784 0.023391619 14341581
0.4914546 -0.068662263 0.025814561 14407631
0.40583107 -0.043657489 0.02501319 15328217
0.40192738 -0.034996189 0.02521483 15723230
0.40205154 -0.025267487 0.025376284 14802642
0.40690914 -0.01775438 0.025367711 13092538
0.41209683 -0.012777115 0.024798226 11447200
0.41464102 -0.0079774959 0.024795529 10724247
0.50700003 -0.08178822 0.03558208 14539217
0.51100004 -0.084770255 0.03253971 14472910
0.49743479 -0.072749779 0.035868801 14539217
0.50254846 -0.077071264 0.034927577 14736339
0.48900002 -0.066237554 0.038899686 14144460
0.49274999 -0.068332136 0.037029922 14407375
0.3987143 -0.041607521 0.037983578 15657438
0.40169856 -0.044274982 0.034495272 15196374
0.39716649 -0.034620445 0.035890769 15526108
0.40021434 -0.037882645 0.031434678 15789278
0.3970924 -0.025339417 0.035764735 14934228
0.40020004 -0.021917606 0.031460352 14539470
0.39776003 -0.017748671 0.03815712 13816004
0.40343401 -0.016303884 0.033547562 12960696
0.41200009 -0.011438567 0.033181343 11184799
0.41382697 -0.0073350179 0.034462657 11316127
0.50533336 -0.082056448 0.044216659 14407630
0.49556404 -0.07299497 0.044777572 14670289
0.50205004 -0.078290865 0.045399867 14670545
0.48779997 -0.066760927 0.04280081 14341324
0.49016669 -0.068690561 0.043007731 14472910
0.39632851 -0.043070495 0.045143761 15262425
0.40000001 -0.047158994 0.040247448 13748932
0.39373574 -0.034902759 0.04513754 13091513
0.38900003 -0.024917036 0.049157862 2830641
0.39283779 -0.024685683 0.044876702 11842473
0.39471078 -0.016022122 0.045730714 13750467
0.40799999 -0.010692708 0.041688371 10986905
0.41100001 -0.010450613 0.040872004 10986905
0.40829167 -0.00535997 0.044904828 11250592
0.41095832 -0.0058408682 0.044231076 11447713
0.50300002 -0.08163707 0.054610882 14473423
0.49553195 -0.073745377 0.055211753 14539216
0.50111765 -0.078714162 0.053594675 14407630
0.4856061 -0.065302737 0.056574378 14275531
0.49066666 -0.069717713 0.056643356 14538959
0.39265937 -0.043932926 0.055050489 14801616
0.38782421 -0.034419212 0.056118175 2961963
0.39058071 -0.036331814 0.051627647 4473917
0.38640749 -0.025202863 0.054776117 2632998
0.39000002 -0.020872602 0.050197229 2697764
0.38813159 -0.017949212 0.05679103 9145216
0.39185539 -0.014080795 0.05427812 13487039
0.3957347 -0.0065338728 0.057568897 11710884
0.40362501 -0.0064820484 0.053129032 11645092
0.41100001 -0.0051587401 0.050975837 11447199
0.39900002 0.00012924365 0.058828153 11448228
0.40000001 0.0010659747 0.059911996 11645607
0.49875003 -0.080401652 0.06594415 14341838
0.5 -0.08060316 0.060843889 14605009
0.48850003 -0.070744172 0.068020225 14604239
0.49534476 -0.075505964 0.064893536 14538703
0.479 -0.061518963 0.06725923 14077895
0.48370594 -0.065908492 0.065004058 14275274
0.49000001 -0.069814302 0.06077411 14538446
0.39175001 -0.050542686 0.067731664 15064275
0.38887501 -0.042234756 0.066864893 13156793
0.39105344 -0.04600326 0.064330369 14867410
0.38539839 -0.035032421 0.065061174 4145980
0.38313618 -0.024989313 0.065001123 2435877
0.38619363 -0.015402821 0.065170355 10000012
0.39016667 -0.011442929 0.0608746 13816004
0.38835138 -0.0080308197 0.067354679 13355198
0.39328885 -0.0043541742 0.06419421 11776421
0.39692861 0.0019853343 0.064948335 11119006
0.40000001 0.002002382 0.061784811 11579814
0.48825005 -0.070707969 0.072559461 14604239
0.49398151 -0.075273469 0.075036325 14472910
0.48518184 -0.067379937 0.073140554 14275275
0.49000001 -0.069814302 0.078554139 14406860
0.39141682 -0.052640352 0.076004982 14866898
0.38810205 -0.044221718 0.075287648 13419707
0.39005879 -0.048592165 0.072979033 15130068
0.37866673 -0.031731106 0.078404665 2304546
0.38287613 -0.035288021 0.074531324 4343101
0.37834257 -0.024713434 0.077316731 2172190
0.38067722 -0.025045058 0.072525576 2304291
0.3788 -0.019208957 0.078728184 2500641
0.38356078 -0.014881701 0.074950986 8618103
0.38644955 -0.0059592146 0.07544598 13354683
0.39100003 -0.0016263801 0.072293662 11776936
0.38810816 0.0049337866 0.078462087 10921625
0.39418745 0.0039643212 0.074030146 10724505
0.49335906 -0.074353293 0.083340667 14472653
0.49100003 -0.069956787 0.080438621 14406860
0.38884208 -0.051473171 0.086027555 14340296
0.3910968 -0.054840259 0.08495497 14472138
0.38700002 -0.045281991 0.084967338 12432555
0.37768427 -0.032516167 0.085092098 2239010
0.38241509 -0.037431132 0.084828101 6184278
0.37658992 -0.025005274 0.085051134 1843738
0.37681401 -0.018053552 0.085745238 2566433
0.38292193 -0.013343005 0.083969943 8289394
0.38530427 -0.0052393186 0.084881544 12302765
0.38865119 0.0037847387 0.082101263 11382175
0.39304075 0.004454996 0.087209165 10066059
0.40000001 0.0094936397 0.089877032 8290421
0.38750002 0.010104108 0.081172526 10986905
0.38900003 -0.051052861 0.091230169 14604496
0.39275005 -0.054817341 0.093074121 11775399
0.3873696 -0.045359846 0.092125811 11841191
0.37331492 -0.032815751 0.094574824 2304290
0.38320002 -0.038453743 0.091303244 9012860
0.37252927 -0.024962017 0.094577663 2238239
0.37244466 -0.016655944 0.095256679 3749677
0.38433334 -0.011868543 0.090404846 7236450
0.38634211 -0.0058905333 0.091592647 8946811
0.39100003 -0.002624044 0.094266847 8288621
0.40200001 -0.001751963 0.098796211 6643538
0.39621058 0.0032634565 0.091659449 9539715
0.40395558 0.0069225589 0.095755778 9144699
0.4081111 0.011172435 0.096796975 7894376
0.41224998 0.014890476 0.097867712 9013115
0.37772724 -0.032512721 0.10288218 1712666
0.38217142 -0.032976601 0.10737062 2041117
0.37478951 -0.025799338 0.10157821 1909530
0.38378382 -0.02655899 0.10794594 726027
0.37104163 -0.015912665 0.10157514 3946800
0.40700001 -0.00082095928 0.10002502 6643538
0.41000003 -0.0008270106 0.10172213 7037781
0.40849996 0.0041710972 0.10076603 8223084
0.41142854 0.0058450187 0.1041656 7565154
0.41234791 0.013566531 0.10337626 8486770
0.37362513 -0.032829277 0.11669076 1711897
0.38207892 -0.032801118 0.1123277 2961963
0.37163058 -0.025123537 0.11682256 726283
0.3842501 -0.027061244 0.11266717 726027
0.37092605 -0.017809317 0.11598837 1579278
0.44500002 0.01993745 0.1197815 9408643
0.44450003 0.021475337 0.11964691 9802885
0.36848214 -0.032691594 0.12634136 1514772
0.37051848 -0.032744572 0.12209103 1843738
0.36849153 -0.025977757 0.12705438 1383443
0.37060294 -0.024160484 0.12338062 1712666
0.37155819 -0.016857741 0.12531126 1251600
0.41242862 -0.002441192 0.12646368 8221541
0.41300002 0.00013377852 0.12502605 9011315
0.44770592 0.01697639 0.12223808 7105114
0.35560945 -0.032415159 0.13627881 1449235
0.36866668 -0.030951092 0.13116723 2435617
0.37046662 -0.033646062 0.13227154 2369312
0.35578293 -0.025407001 0.13664995 1251857
0.36520463 -0.024538476 0.13232969 1515029
0.37 -0.020668389 0.13120905 1844249
0.35533804 -0.016921379 0.13735951 1448980
0.36456004 -0.017907936 0.13474591 791050
0.37181133 -0.016363334 0.13264446 1186065
0.34701672 -0.032637428 0.14697608 1580308
0.35143474 -0.032723475 0.14229167 1580821
0.34822109 -0.025363989 0.14681992 1646100
0.35122088 -0.024591763 0.14234793 1580821
0.3485184 -0.015782313 0.14737141 1580053
0.35106358 -0.01696286 0.14305937 1514773
0.34343523 -0.032606777 0.1550988 1711896
0.34177276 -0.02763908 0.15887478 1843225
0.33751512 -0.03180613 0.16798927 2040861
0.34036955 -0.032091316 0.16280922 1843995
0.33726189 -0.02481135 0.16688514 1909274
0.3400639 -0.025755111 0.16259103 1778202
0.33702669 -0.015983503 0.16629651 1645846
0.34000003 -0.01642786 0.1622692 1580053
0.33295339 -0.032021854 0.17499544 2435875
0.32900003 -0.020688694 0.17944056 2238753
0.33282715 -0.024859913 0.17491247 2172703
0.32900003 -0.018549263 0.17909826 1712408
0.33253863 -0.015332673 0.17492208 1909018
0.33199996 -0.0094476696 0.1768707 2304031
0.33083338 -0.031195564 0.18114983 2304803
0.32900003 -0.020688696 0.18213625 1120783
0.33046564 -0.025497818 0.182623 1120785
0.32900017 -0.017646426 0.18217477 1054733
0.33088639 -0.012548098 0.18265152 857099
0.33226916 -0.0088065183 0.18250918 857099
0.8175 -0.22938906 0.34922776 1973533
0.80744451 -0.22824627 0.35700807 2568231
0.81464005 -0.22575746 0.35505754 2435366
0.80674982 -0.22657225 0.36561203 1975839
0.81268764 -0.2220884 0.36321867 2501927
0.81585711 -0.21855521 0.36679885 2632744
0.80596876 -0.224971 0.37507921 1383190
0.80787504 -0.21817696 0.37679455 2040606
0.81433338 -0.21495654 0.37513202 2501157
0.80586654 -0.22517997 0.38481957 922895
0.80761892 -0.21635158 0.38529593 1382933
0.81256253 -0.21183038 0.38420588 1843230
0.81718183 -0.20860177 0.38604593 2764076
0.80552781 -0.22508556 0.39502829 857615
0.80675846 -0.21517108 0.39546865 1120274
0.81050014 -0.21066435 0.39398757 1382678
0.80900002 -0.20995902 0.39957291 1316883
0.81641179 -0.20816875 0.39502203 2105631
0.8052668 -0.22501297 0.40527028 857615
0.80652171 -0.2150605 0.40516314 989201
0.81000006 -0.21021855 0.40954792 923408
0.80875003 -0.20989414 0.40418294 988945
0.81531256 -0.20765632 0.40483421 1250833
0.80691302 -0.22559506 0.41455948 791823
0.81000006 -0.22159591 0.41902906 791822
0.80814296 -0.21676297 0.41239303 791822
0.81177783 -0.21415792 0.41646469 857360
0.81660002 -0.20829657 0.41422433 987661
0.80900002 -0.22700396 0.42040563 857102
0.81168181 -0.22499038 0.42525595 659723
0.81471431 -0.21463528 0.42480394 922640
0.82000005 -0.21089421 0.42996114 856079
0.80654544 -0.2249403 0.43723586 791565
0.81172734 -0.22491746 0.43227151 593930
0.80850005 -0.21929282 0.43812597 1053198
0.81403232 -0.21555892 0.43475693 922383
0.82000005 -0.21089421 0.4366799 528137
0.80354315 -0.22466446 0.44470963 857102
0.80737507 -0.21827748 0.44342196 1118991
0.81472725 -0.21612087 0.44487393 1053198
0.82136369 -0.21246585 0.44605988 5264460
0.80318755 -0.2248991 0.45275742 1251346
0.80800003 -0.2191572 0.45015064 593160
0.81750005 -0.21742705 0.45305252 4013881
0.81900007 -0.22022352 0.46394813 8290939
0.81700003 -0.21968572 0.46090251 8291963
