# .PCD v0.7 - Point Cloud Data file format
VERSION 0.7
FIELDS x y z rgb
SIZE 4 4 4 4
TYPE F F F U
COUNT 1 1 1 1
WIDTH 488
HEIGHT 1
VIEWPOINT 0 0 0 1 0 0 0
POINTS 488
DATA ascii
0.4768182 -0.11674172 0.028694676 15197144
0.48211765 -0.11349887 0.027728934 14802898
0.49490911 -0.11158606 0.025883997 12434351
0.50133336 -0.11054903 0.024035616 11840929
0.48500001 -0.10997609 0.029498339 14539981
0.49750003 -0.1087313 0.028123206 13881284
0.50516665 -0.10619994 0.026812473 12630960
0.51436841 -0.10414416 0.02405316 14407625
0.52200007 -0.10247636 0.021361338 13420214
0.50740004 -0.098187894 0.029434588 14276296
0.51288241 -0.096586637 0.027870074 13420215
0.52250004 -0.098908484 0.023213353 13814716
0.45900002 -0.12191762 0.03952188 15066071
0.46442857 -0.12068254 0.035841085 13159102
0.45900002 -0.11751206 0.039736785 16052964
0.46512282 -0.11501925 0.03679698 12501429
0.47325009 -0.11450465 0.032073755 14671313
0.48033336 -0.11116606 0.030338975 14342347
0.46517241 -0.10633399 0.038612656 10001037
0.47391111 -0.10550973 0.035276208 12237485
0.48257899 -0.10454584 0.033333648 12960951
0.49692315 -0.10337055 0.032280914 13947588
0.50236362 -0.10214849 0.031195004 10525841
0.46900004 -0.096466586 0.039504569 9867655
0.47225004 -0.096443146 0.038185548 9999497
0.49857146 -0.094046414 0.038159158 10195591
0.50417644 -0.094672747 0.034291103 8287849
0.5114001 -0.09225446 0.031580187 8748139
0.49900001 -0.089787297 0.039695177 12630447
0.5054211 -0.08763703 0.037960198 11578270
0.5142051 -0.084676243 0.035838529 11709337
0.52214283 -0.08120399 0.035421778 13420985
0.53100002 -0.083114401 0.033539202 11710117
0.51800001 -0.079866931 0.039993972 13880503
0.52600002 -0.078480504 0.037841924 13420982
0.53080004 -0.076621413 0.038248401 13881537
0.45454726 -0.1232475 0.045644421 15854302
0.44900006 -0.11337521 0.049382236 15130325
0.45388648 -0.11503806 0.044650927 15722973
0.44870585 -0.10391015 0.048731584 9076600
0.45446372 -0.10546803 0.044556305 10196876
0.46218184 -0.10263417 0.040797126 7763303
0.44740543 -0.095025316 0.048665129 15065300
0.45476094 -0.095061749 0.044892561 13947334
0.46333334 -0.095227912 0.041589595 10460819
0.48366669 -0.091932736 0.041115314 14013896
0.49575001 -0.092097767 0.040597204 14144455
0.4484286 -0.086307205 0.049168557 14802641
0.45478722 -0.085544102 0.046271101 13553089
0.46083334 -0.087595195 0.042951304 12237999
0.49808338 -0.087873034 0.043021228 13947846
0.50356674 -0.083726257 0.042491864 11578785
0.51100004 -0.081178419 0.040948253 14013379
0.44900003 -0.077111669 0.049382236 14012871
0.45050001 -0.07737045 0.048492577 12697525
0.50542861 -0.075897954 0.045953434 12631471
0.51380002 -0.075608574 0.045195438 14078914
0.52500004 -0.073030502 0.044369895 13288624
0.53025001 -0.073996961 0.042181101 12828072
0.51800001 -0.068953104 0.049695149 13486778
0.52475005 -0.069082603 0.047113873 13551542
0.44845724 -0.12325736 0.057569258 15196372
0.45118749 -0.12472169 0.05305263 15591129
0.44666681 -0.11474904 0.054931767 14275529
0.45000002 -0.11959731 0.050896823 15788766
0.43900007 -0.10160077 0.058999918 14075059
0.44384453 -0.10526273 0.054642141 9405563
0.43669236 -0.094130404 0.057438549 14931394
0.44217032 -0.095462456 0.052810293 14867922
0.435 -0.084913179 0.056964457 14800066
0.44347727 -0.084651582 0.051880825 14736848
0.43394035 -0.074968569 0.056991968 14535086
0.44441307 -0.075283788 0.052239694 14472902
0.51000005 -0.071469955 0.050121579 12565678
0.43555722 -0.065750554 0.057016466 13218191
0.44022226 -0.067760974 0.052882444 12428933
0.4305 -0.056802806 0.058719873 12894899
0.44484621 0.066558056 0.058615033 8616817
0.44658002 0.076080583 0.057618976 11315100
0.43887511 0.08670143 0.057771705 13289915
0.44179997 0.083317421 0.056065425 12303022
0.43892601 0.094028711 0.058473274 14013893
0.44 0.094288908 0.056426764 12763058
0.44000003 0.10211727 0.059722915 13947076
0.44548523 -0.12386942 0.065276533 14007714
0.43900001 -0.11110707 0.069093466 7102538
0.4424459 -0.11515895 0.064516954 12955029
0.43736356 -0.10476595 0.06554357 10193009
0.44011113 -0.1079256 0.061569445 8020559
0.42849997 -0.09159217 0.067021817 14338742
0.43214086 -0.095845096 0.064363495 14073508
0.42606887 -0.084623888 0.065687247 14469553
0.43011108 -0.086063072 0.060953692 14663839
0.41900003 -0.071469001 0.069624029 13610886
0.42400974 -0.075013444 0.065322474 13938823
0.43000001 -0.074855223 0.060378842 14003845
0.41795999 -0.064443938 0.068667352 14866117
0.42425299 -0.065145656 0.064294726 13940887
0.43000001 -0.065594159 0.060479511 13744019
0.41690001 -0.055332575 0.06907703 14933198
0.42503417 -0.05550275 0.064708717 13681582
0.43000004 -0.053715836 0.061385483 13552831
0.41414288 -0.046686877 0.069090664 14011322
0.42409095 -0.04896101 0.065950319 13287599
0.41591668 0.026677771 0.069108367 12760999
0.42100003 0.029374907 0.067328177 11313299
0.41850001 0.030997202 0.069540948 13156277
0.42288154 0.035779137 0.067593984 10853006
0.42351803 0.045231879 0.066735685 13286053
0.42407694 0.054694004 0.067464635 13877414
0.43452635 0.057801623 0.064000078 13286823
0.44057146 0.058047123 0.061420798 13092024
0.42640427 0.065025017 0.067854315 13745056
0.43430015 0.064837329 0.06396126 13022874
0.44155002 0.066251263 0.061016493 11643550
0.42818758 0.07362844 0.06839209 7298374
0.43334249 0.075731613 0.064098179 9140833
0.44194448 0.073254317 0.060846381 8221796
0.43309522 0.085015759 0.064754449 13548445
0.4355213 0.094846606 0.064841405 13286304
0.43850005 0.1018166 0.064602844 13286826
0.44058335 0.10440346 0.062640376 13748669
0.4435735 -0.12430186 0.075047441 14143168
0.4385556 -0.1123077 0.075980313 11051670
0.44077995 -0.11693586 0.074314386 14011841
0.43485889 -0.10499808 0.074804977 9406847
0.42700002 -0.092942595 0.075645722 14012097
0.43066671 -0.097864062 0.074482389 13946560
0.41900003 -0.080296971 0.078942448 13748153
0.42255914 -0.08492367 0.074848361 13946047
0.41675898 -0.074194498 0.075428024 13084809
0.42043754 -0.078358591 0.072384462 14139819
0.40854996 -0.061796725 0.077929251 14275270
0.41332278 -0.065464027 0.074121691 14471874
0.40700024 -0.054430913 0.076473854 14538442
0.41195449 -0.055580605 0.071780652 14802127
0.40494797 -0.044804245 0.075751312 13618626
0.41088238 -0.046322484 0.07082051 14407624
0.39833334 -0.031473152 0.079036362 13683645
0.40166071 -0.03589214 0.077028617 10330773
0.39637259 -0.024984766 0.078016385 12235943
0.39441863 -0.014559516 0.077950269 12498344
0.39712822 -0.0049682991 0.078551032 11968398
0.39860004 0.0006895538 0.079297088 10584683
0.40410861 0.006009026 0.076250523 12629929
0.41000003 0.0097309807 0.071967795 12169637
0.40583682 0.014821821 0.076253697 13420731
0.41016671 0.016056271 0.071516745 13486267
0.40735409 0.024152562 0.077190943 13618366
0.41196668 0.025663616 0.072628736 13683905
0.4088333 0.032514367 0.078781374 11645864
0.4136422 0.035304476 0.074525766 10922400
0.42000002 0.036515463 0.070773423 10856096
0.41482338 0.045008015 0.075258568 13486521
0.42040005 0.04491844 0.070840821 13552316
0.41734242 0.054329529 0.076170735 14144192
0.42068982 0.05651008 0.072008803 14472902
0.41900003 0.060950689 0.07943289 13617594
0.42225263 0.064953089 0.07479313 13486521
0.42568073 0.074987881 0.074981093 8156771
0.42826322 0.081717722 0.075144663 13683125
0.43015888 0.087062679 0.074802279 13419181
0.43246764 0.093988366 0.074501798 13155752
0.43500003 0.10095685 0.070246011 11443345
0.44249156 -0.12395357 0.084816702 14209479
0.43839994 -0.11270789 0.08447817 12563886
0.44042856 -0.11766861 0.085336983 13814979
0.43382496 -0.10498184 0.085035145 8682355
0.42634282 -0.093687259 0.085028768 13354169
0.42999998 -0.099014521 0.085041471 13222840
0.41847378 -0.080660731 0.084953524 13090736
0.4217124 -0.085718021 0.084895633 13288375
0.4144949 -0.074582569 0.084937014 12362374
0.40758595 -0.063528836 0.085172258 12959154
0.41079313 -0.068246216 0.084175117 13023402
0.40289566 -0.055035193 0.084908836 12433068
0.39738363 -0.043828025 0.086328045 9343624
0.40031093 -0.046832815 0.0828024 12894391
0.39461181 -0.034851644 0.084989488 9080198
0.40000001 -0.039199535 0.080512956 9672592
0.38850006 -0.024106115 0.088981286 7496804
0.39266682 -0.024915827 0.084032141 11643809
0.38860005 -0.016066279 0.088848144 8087655
0.39210895 -0.014776464 0.08378838 11775138
0.38900003 -0.009891212 0.08922673 7893351
0.39310929 -0.0052460865 0.085152999 9535855
0.39616647 0.0045332825 0.085150577 9733748
0.40000004 0.0076208254 0.080825083 13025457
0.39865392 0.011616056 0.08691752 10131592
0.40094864 0.016110603 0.084415674 11776417
0.40459064 0.025238175 0.084842049 12303019
0.40811688 0.034734845 0.085123129 9803918
0.41016671 0.039181434 0.082718521 9673099
0.41255644 0.044998392 0.084880181 12500139
0.41700977 0.05529714 0.084913544 12960177
0.41900009 0.060950693 0.083846882 12960177
0.4216544 0.065669984 0.085042574 10986646
0.42597684 0.074832745 0.085090153 8683632
0.42876917 0.081559405 0.083795197 13026225
0.43015084 0.086506918 0.085492529 13157555
0.43100002 0.091919653 0.084585615 13222836
0.43900007 -0.12125567 0.098896958 11906725
0.44141379 -0.1235765 0.094116405 13946307
0.43835273 -0.11399505 0.095762491 11906981
0.44034776 -0.11786972 0.092532374 13683135
0.43384612 -0.10497394 0.09507098 7103323
0.42614287 -0.093644343 0.094966538 10393998
0.42999998 -0.099014521 0.095107853 11380637
0.4184401 -0.081405014 0.09445101 9735296
0.42140335 -0.086250857 0.095003083 9735813
0.41442856 -0.074929059 0.095076837 9008474
0.40638378 -0.064005084 0.095246606 9143414
0.41038468 -0.06881725 0.093539357 8416600
0.39828572 -0.051509045 0.097571358 12104616
0.40132231 -0.055547435 0.094473384 9735811
0.39528695 -0.044871707 0.095037505 9343365
0.38807893 -0.032151822 0.09644708 8553333
0.39153758 -0.036460139 0.094353959 6844514
0.3843812 -0.025026707 0.094949625 2304289
0.38444433 -0.015202047 0.094881721 2566947
0.38805264 -0.0078561883 0.09590634 9472121
0.39116183 -0.0033850977 0.094407491 7757127
0.39470345 0.0047118631 0.094863907 8418914
0.39820009 0.011423324 0.094826959 8487023
0.40097535 0.016729491 0.095161408 8421487
0.40470698 0.025232216 0.094850861 7960426
0.40825832 0.03346207 0.094277382 5988184
0.41088232 0.037874501 0.096369214 6382682
0.41404179 0.0452157 0.094973207 8487281
0.41760287 0.054181352 0.094206765 10131592
0.42044449 0.058044527 0.097479075 8486511
0.42307138 0.065020449 0.095063046 7631202
0.42721927 0.074578524 0.094596259 9539199
0.42999998 0.079044193 0.097469576 10657679
0.42900002 0.080482699 0.090869486 12960435
0.43137801 0.084961876 0.095181696 12499627
0.43322727 0.091279462 0.094580658 12894131
0.4390001 -0.12119574 0.1024083 8287855
0.43999988 -0.12280107 0.10644293 8750202
0.43794307 -0.11478364 0.10497375 9473666
0.43344703 -0.10506348 0.10524426 5984839
0.42619735 -0.093945719 0.10513496 10986650
0.42999995 -0.099182293 0.10433535 10130826
0.41821745 -0.081765145 0.10533334 12104359
0.42169499 -0.086289406 0.10504129 11512481
0.41374993 -0.075347908 0.10496793 11968905
0.40548432 -0.064851135 0.10478355 12695465
0.41000006 -0.069933861 0.10316186 12098170
0.39712122 -0.05335981 0.10565116 13157563
0.40058133 -0.057947412 0.1044426 13091513
0.38900003 -0.041157067 0.10895761 8620160
0.39243436 -0.045087162 0.10462536 11580072
0.3868596 -0.03448477 0.10557082 8224884
0.39016667 -0.038312349 0.10174858 8159870
0.37836367 -0.023455238 0.10748003 2107682
0.38119501 -0.025814155 0.10338713 2173218
0.37834558 -0.016270662 0.10732995 2173218
0.38140479 -0.014147387 0.10332938 2896427
0.38660637 -0.0055777659 0.10526767 9996146
0.39014289 -0.0013086693 0.10136183 8940629
0.389 0.00063192454 0.10794577 9270877
0.39371422 0.0049668481 0.1046154 11445650
0.39820004 0.011423057 0.10550395 12170918
0.40156621 0.016582578 0.10499787 12105639
0.40663835 0.024952937 0.10472662 10790810
0.41025004 0.029545438 0.10790738 9277831
0.40900001 0.031011095 0.10123466 8686721
0.41226137 0.035311613 0.10501672 10066828
0.41662499 0.044872724 0.10491071 10658191
0.42000002 0.049297426 0.10911929 11974052
0.41862509 0.051280264 0.10276014 9144697
0.42151949 0.055645756 0.1054536 10460558
0.42548802 0.065065987 0.10489331 5197888
0.42825717 0.072410166 0.104105 7565661
0.43015262 0.077013031 0.10595481 9605246
0.43225956 0.084844954 0.10447054 8091754
0.43400002 0.090564735 0.10191926 8419695
0.43999985 -0.12187855 0.11484369 13486011
0.43793571 -0.11424106 0.11509264 12960438
0.44000003 -0.11934303 0.11637555 13749440
0.43324992 -0.10484202 0.11509728 8025708
0.42630136 -0.094527192 0.11493777 12828340
0.43000001 -0.099517837 0.11524061 12038568
0.41740808 -0.082806766 0.11506631 12893875
0.42125726 -0.087861091 0.11561535 12959670
0.40876466 -0.071018025 0.11565551 12032119
0.41316062 -0.076070294 0.11488517 12627865
0.39900002 -0.060585063 0.11954245 12565939
0.40421879 -0.065198272 0.11503497 12432034
0.39570087 -0.054658711 0.1152581 12762805
0.40000004 -0.059488349 0.11235079 12762805
0.38821882 -0.04293197 0.11562712 9803919
0.39130917 -0.047494154 0.11407104 12697525
0.37899998 -0.030487215 0.11754295 2040606
0.38442403 -0.035354797 0.11487129 7765365
0.37604907 -0.024582984 0.11526562 2041375
0.38000003 -0.029233279 0.1111812 2239011
0.3760592 -0.015136491 0.11519033 2501669
0.38033333 -0.010709473 0.11187139 7369832
0.37900001 -0.0096369386 0.11976107 9804428
0.38421708 -0.0051900535 0.11509246 9535594
0.38806248 0.0021441705 0.11555205 9601645
0.39214087 0.0070489156 0.11431135 12039845
0.39630333 0.013499266 0.11577658 12171177
0.40086666 0.01815002 0.11371668 12434348
0.40614855 0.024921972 0.11520955 10922141
0.41020003 0.029613778 0.11271813 9343367
0.41364217 0.03502671 0.1150981 11447967
0.41805771 0.042485021 0.11446727 12236967
0.42046818 0.047300845 0.11569259 12236969
0.4236404 0.054972988 0.11487103 11710371
0.42800015 0.063757971 0.11447614 6118222
0.4300001 0.068136029 0.11665314 9407869
0.43125609 0.074914098 0.11502755 12696749
0.43304682 0.083191328 0.11504765 12762542
0.43900007 -0.12039313 0.12785628 14210503
0.43999985 -0.12217568 0.12422965 13552061
0.4377341 -0.11510242 0.12506166 13684160
0.44000003 -0.11934303 0.12049574 13947331
0.43325257 -0.105262 0.12497433 9275005
0.42564869 -0.094575495 0.12515014 12433584
0.43000004 -0.099517837 0.12480365 6577238
0.41641897 -0.083588526 0.12542599 13091512
0.42080957 -0.088666201 0.12391673 12960184
0.40767363 -0.072246335 0.12591462 11835768
0.4118728 -0.076935746 0.12435859 13024169
0.3983334 -0.060950603 0.12617864 10856605
0.40290797 -0.065752581 0.12480468 11774617
0.38900003 -0.050870731 0.1292956 10661790
0.39379469 -0.054844432 0.12489836 11186083
0.38693759 -0.044487353 0.12532951 8621698
0.39030004 -0.048848137 0.12250868 11843500
0.37720692 -0.031761754 0.12579574 3949113
0.38306987 -0.036452644 0.12479742 6189156
0.3718411 -0.025178092 0.12507707 1777690
0.37246877 -0.015352414 0.12487897 2567458
0.37853849 -0.009147455 0.12499867 7894885
0.38256878 -0.0044217771 0.12484331 7431502
0.38632789 0.0042410712 0.12543398 8486763
0.39064285 0.0085538672 0.12206711 11054493
0.38877779 0.010643345 0.12841199 9015934
0.39359015 0.015086891 0.12477798 10199442
0.40000001 0.01979412 0.12077846 12303792
0.39756 0.021498526 0.12688741 10002321
0.40404263 0.025994616 0.12430324 10133652
0.40829998 0.031531978 0.12720093 8753026
0.41295242 0.035738584 0.12481193 11317152
0.41730887 0.042922679 0.12511241 12105898
0.42064884 0.048017155 0.12440448 12303022
0.4251591 0.05481131 0.12501532 10592148
0.4287619 0.061319608 0.12320248 6512721
0.4306812 0.06582392 0.12552857 9670270
0.43349993 0.075060964 0.12491657 12696749
0.43487236 0.082841203 0.12461603 12564653
0.43864009 -0.12110992 0.13474211 13618624
0.44000003 -0.12243319 0.13079622 14473675
0.43658438 -0.11519527 0.13528654 12435122
0.42839998 -0.10122044 0.13677306 5790543
0.43220001 -0.10591571 0.13463195 9276543
0.41883335 -0.090560056 0.13724943 10001809
0.42381603 -0.095179021 0.13491812 10133138
0.41471735 -0.085017376 0.13502982 10461846
0.40583923 -0.074115969 0.13538495 10851960
0.41078949 -0.07917951 0.13349771 10527121
0.39594933 -0.063389182 0.13566732 12236457
0.40123802 -0.067748629 0.13335842 10524543
0.38798121 -0.052676339 0.13657774 13091509
0.39190537 -0.056771748 0.13396178 11645093
0.38452178 -0.044960249 0.13494511 10264210
0.36800003 -0.030401988 0.13695869 2106398
0.37502006 -0.032703757 0.13519053 5460811
0.38178331 -0.037267625 0.13462491 6977130
0.3663587 -0.024731301 0.1349356 1975066
0.37083337 -0.029107099 0.13121408 2237983
0.36600891 -0.016349446 0.13544005 2303002
0.3718529 -0.012827446 0.13253103 4539188
0.37802085 -0.0078947591 0.13565524 10194813
0.38080755 -0.0034178586 0.13447902 7955791
0.38315904 0.0047268039 0.13487414 10195326
0.38764554 0.012823874 0.13582437 11776159
0.39167246 0.017314136 0.13356076 10922391
0.39573902 0.023670351 0.13568573 11382431
0.40119436 0.027864711 0.13318712 8291960
0.40579799 0.033724807 0.13575536 9673098
0.41172731 0.038338996 0.13319384 9673612
0.41584614 0.044476762 0.13538736 9870219
0.42054549 0.049003705 0.1323511 10396565
0.42495707 0.054880261 0.13518301 7961198
0.43167806 0.064754181 0.13518709 8817017
0.43461007 0.074924581 0.13479076 10922139
0.4352273 0.081419528 0.13391744 11447970
0.43380004 -0.12080935 0.14611284 12435380
0.42899999 -0.11113711 0.14921913 14144962
0.43262112 -0.11506291 0.14481658 12566706
0.42667651 -0.10388 0.1458535 8353901
0.43053576 -0.10777754 0.14324267 11315355
0.41715002 -0.092347033 0.14572862 13288376
0.42209268 -0.097050816 0.14446026 11710116
0.40803573 -0.082017586 0.14742298 13485753
0.41288236 -0.085930981 0.14435567 13486010
0.39840004 -0.070753232 0.14640848 11901311
0.40360677 -0.075416841 0.14438583 12824214
0.41000003 -0.079532035 0.14011483 13618877
0.39398795 -0.064974472 0.14377019 12827051
0.40000001 -0.069164567 0.14044301 11377541
0.38724092 -0.054787114 0.1437729 12564910
0.39033332 -0.059269097 0.14070331 13288375
0.38367993 -0.044312067 0.14515358 8817022
0.36760002 -0.031033322 0.14094312 1513748
0.37542108 -0.033285335 0.14433946 4869960
0.38109258 -0.037347969 0.14538658 8225399
0.36616912 -0.024020784 0.14305878 1383188
0.37121049 -0.027780749 0.14767078 923150
0.36470005 -0.015892023 0.14536366 1579280
0.37150002 -0.010750181 0.14478455 7888719
0.37834615 -0.0070457351 0.14520396 8087897
0.38058928 -0.0027550433 0.14501967 8415578
0.38232759 0.004527742 0.14470419 9998207
0.38659367 0.013577986 0.14500114 11578779
0.39042312 0.018653011 0.14442751 12104869
0.39429903 0.024993088 0.14489947 11447454
0.39864287 0.031059163 0.14563179 9277059
0.40365899 0.035528541 0.14455391 10986903
0.40854996 0.040780723 0.14612183 12762283
0.41327655 0.045739576 0.14475732 12762541
0.41789478 0.051161427 0.14594916 12763056
0.42353252 0.055864941 0.14481035 9276286
0.42819047 0.061142627 0.14580379 6776150
0.43204349 0.065874912 0.14469886 11513756
0.43542504 0.074237488 0.14499666 11382429
0.43800002 0.080120414 0.14865828 12565937
0.43266666 -0.1208434 0.15168625 13683905
0.42854545 -0.11158586 0.1529732 12762803
0.43046436 -0.11661406 0.15275757 13026233
0.42558974 -0.10534903 0.15239039 9670534
0.41688892 -0.093449503 0.15136077 12762806
0.42092863 -0.097772047 0.15180238 11446431
0.40816668 -0.084116347 0.15063544 11315357
0.4118 -0.088365987 0.15075561 12301997
0.38900003 -0.050870731 0.15024069 8618357
0.38439998 -0.043263443 0.15044034 8422522
0.36253715 -0.032429133 0.15712501 2500640
0.37580001 -0.032611787 0.15059428 4080963
0.38128573 -0.037750151 0.15057611 11119264
0.36381263 -0.025046956 0.15683803 593928
0.37250003 -0.027787788 0.15018934 988688
0.36409894 -0.015583215 0.15533328 1643274
0.37814289 -0.0078414883 0.15148507 6705993
0.38060004 -0.0037955809 0.15185204 8222313
0.38389653 0.0052138055 0.15118253 9342336
0.38752779 0.013790504 0.15216641 10592915
0.39117649 0.018658208 0.15339902 10461587
0.39597434 0.025084892 0.15406421 9014402
0.39899999 0.030299583 0.15391609 10264208
0.40319988 0.035430379 0.15383306 10789782
0.40818751 0.041581556 0.154066 11052440
0.41346946 0.047017843 0.15418191 11578527
0.41785723 0.051748894 0.15393373 10987160
0.42289233 0.056727726 0.1550103 7894890
0.42740005 0.061974384 0.15526605 6643535
0.43230191 0.066749088 0.15468647 12367784
0.43686852 0.074535035 0.15464284 12893872
0.36116365 -0.032349952 0.16428755 1580564
0.36185059 -0.024776628 0.16497649 1120528
0.36328682 -0.01627513 0.16489092 1381903
0.41800004 0.049062677 0.16144347 9078396
0.42000002 0.049297426 0.16418004 10855573
0.41900003 0.050160937 0.16084647 10262671
0.42379311 0.055483263 0.16349062 8289648
0.42764285 0.061350796 0.16366367 11184796
0.43262869 0.066500582 0.16295138 11776675
0.43842104 0.073691264 0.16289847 11052954
0.34900001 -0.033384576 0.17564254 659978
0.35499999 -0.032219421 0.17517067 725514
0.36106062 -0.03256749 0.17210533 1581077
0.35524631 -0.024988981 0.17477402 725773
0.36029997 -0.024935871 0.17137611 1778459
0.35564059 -0.017239461 0.17552327 593929
0.3607308 -0.017226763 0.17212589 1448980
0.33847913 -0.03335293 0.18815815 1449238
0.341131 -0.033219796 0.18353949 1515030
0.33830252 -0.02510697 0.18811779 1383445
0.34124154 -0.025053792 0.18331383 1383187
0.3386364 -0.016987989 0.1884786 1317394
0.34089783 -0.016786536 0.18381795 1317393
0.33718184 -0.032470305 0.1905764 1449236
0.33723068 -0.025150891 0.1906402 1383444
0.338 -0.017480927 0.19104457 1317908
