# .PCD v0.7 - Point Cloud Data file format
VERSION 0.7
FIELDS x y z rgb
SIZE 4 4 4 4
TYPE F F F U
COUNT 1 1 1 1
WIDTH 239
HEIGHT 1
VIEWPOINT 0 0 0 1 0 0 0
POINTS 239
DATA ascii
0.79595006 0.19516549 -0.26500481 8486260
0.79885715 0.20143247 -0.26399288 4933433
0.8017 0.20483211 -0.26541379 4999226
0.79880005 0.20221929 -0.25435773 4867897
0.80200005 0.2056593 -0.25387421 5131069
0.79733342 0.20247151 -0.24517961 5065020
0.80050004 0.20452365 -0.24833973 5131069
0.80100006 0.19715078 -0.2306803 11710632
0.79800004 0.20014864 -0.2354207 4999231
0.80366665 0.20282511 -0.23363476 5130561
0.81366664 0.20788766 -0.23242103 5195840
0.80266666 0.19693595 -0.22426936 12302256
0.80700004 0.20240948 -0.22343862 5130818
0.81325001 0.20707014 -0.22540332 4933436
0.80013347 0.13587339 -0.2151958 12171694
0.79879993 0.146773 -0.21461913 12105902
0.80000007 0.14221847 -0.21634617 12105901
0.80205888 0.197082 -0.2141979 10197649
0.80471432 0.20237176 -0.21533673 4999742
0.80000001 0.16881242 -0.20136365 11974574
0.8011905 0.17513835 -0.20384997 11974574
0.79900002 0.18543568 -0.20952909 12040365
0.80196536 0.18502285 -0.20480095 11974573
0.80203712 0.19518068 -0.20476067 10460822
0.80000001 0.16881242 -0.19480881 12105901
0.80107993 0.17466779 -0.19507343 12040110
0.80199993 0.18503004 -0.19516927 11974573
0.8016538 0.19521748 -0.1953582 9868685
0.8003751 0.19769984 -0.18553108 7498598
0.80100006 0.20090109 -0.18942687 5196610
0.41497734 -0.053545389 -0.072879367 16051684
0.41338342 -0.0448642 -0.07308659 15591647
0.41510001 -0.038102441 -0.072415307 13881800
0.41304559 -0.053729735 -0.065456048 15656670
0.40900001 -0.046696816 -0.061383985 16183269
0.41103473 -0.044506747 -0.065722123 15722975
0.41382101 -0.036673464 -0.064840205 13684165
0.42150003 -0.02946564 -0.060704067 11381922
0.4090001 -0.051954232 -0.05545634 15590877
0.41045454 -0.055184498 -0.054283634 15064791
0.4083209 -0.045100205 -0.054886673 15920097
0.41020003 -0.040583052 -0.05878837 15196888
0.40871426 -0.039232831 -0.051686388 15197144
0.41305098 -0.034822315 -0.055257499 13683650
0.42000002 -0.030344009 -0.059012614 11644837
0.41850001 -0.029255919 -0.056353152 11249823
0.42075002 -0.028921012 -0.057641402 11381409
0.40882769 -0.051450856 -0.044638503 15262168
0.41058335 -0.054095611 -0.045355666 14933205
0.40684468 -0.045209393 -0.045109503 15789024
0.40795738 -0.036851589 -0.044088587 14868179
0.41107687 -0.032929823 -0.046460092 13552321
0.40900001 -0.050805259 -0.034104623 15064790
0.41133332 -0.05296858 -0.03548605 14998997
0.40567288 -0.044895153 -0.035024434 15722974
0.40629733 -0.035238922 -0.034811232 14802386
0.41000003 -0.030581351 -0.038891114 12960695
0.4084 -0.0290279 -0.032526284 12894903
0.41000003 -0.029621534 -0.038891114 12171179
0.40628001 -0.051076297 -0.025132416 14801874
0.41000003 -0.053616967 -0.02977285 14867411
0.40424979 -0.044825867 -0.025099719 15459803
0.40453616 -0.03490122 -0.025118401 14868179
0.4072392 -0.027412508 -0.024745846 12829110
0.40658832 -0.051100105 -0.015527876 14670289
0.40302885 -0.044467155 -0.015197467 15262679
0.40211138 -0.034805905 -0.015003515 14934484
0.40521148 -0.027138315 -0.014890739 13486783
0.40633342 -0.050706845 -0.0056191017 14472653
0.40272477 -0.044642188 -0.0046991017 14999508
0.39899999 -0.036922053 -0.00032937081 15197144
0.400363 -0.034785241 -0.0051384126 15000021
0.40325546 -0.026548687 -0.0044486104 13684418
0.40500003 -0.050118767 0.00092982594 14276042
0.39868012 -0.041534424 0.0057299472 15065558
0.40066037 -0.045142017 0.0044379705 14736336
0.39783144 -0.035362203 0.0054088905 14999765
0.40000001 -0.031396139 0.001542618 14539471
0.39866671 -0.02887998 0.0079921819 14670800
0.40117663 -0.02535443 0.0048862076 13750210
0.39772558 -0.042720847 0.015716439 14539471
0.40072 -0.045989752 0.012288358 14407630
0.3961817 -0.035115719 0.014819887 14868435
0.39765519 -0.025996542 0.015869316 14013125
0.40037042 -0.02298899 0.012477065 13289404
0.39900002 -0.01855208 0.017729243 12697523
0.40300003 -0.019681497 0.010359537 12697525
0.39768183 -0.042634986 0.023807598 14473165
0.40067855 -0.045164399 0.027017411 13946821
0.39528942 -0.03503966 0.024966374 14408140
0.39621368 -0.025068821 0.025038458 13947587
0.39860004 -0.019279797 0.024424572 12499888
0.40000001 -0.018598577 0.023079982 12105129
0.39768428 -0.04211048 0.035994906 14275529
0.40034783 -0.044776034 0.033760879 14143687
0.39425635 -0.034951396 0.035051402 14605006
0.39448768 -0.024800908 0.035070237 14078918
0.39686117 -0.018012648 0.035310771 12368300
0.39589092 -0.042540178 0.045083411 14077892
0.40000001 -0.045754384 0.040247448 13683139
0.39288414 -0.03482873 0.045046512 12499631
0.39252877 -0.024679715 0.045005482 11119007
0.39508167 -0.017366122 0.045767464 13026231
0.4005 -0.01205761 0.048971228 11250078
0.40820003 -0.0078946594 0.04890791 10855321
0.39216223 -0.041384783 0.054889549 14275269
0.38808194 -0.033416249 0.056618169 2632742
0.39086205 -0.036287118 0.053145472 4473917
0.38794252 -0.025529107 0.056029983 2632743
0.39040002 -0.023633005 0.051223211 2764071
0.38883337 -0.019748123 0.058390453 2566947
0.39389178 -0.015219519 0.055212844 11644834
0.40157145 -0.010612519 0.051415373 11250079
0.40594122 -0.0078595039 0.052242555 10855321
0.38600001 -0.040538449 0.066851407 14077895
0.39118183 -0.041417629 0.061255082 13946564
0.38552502 -0.034801487 0.065114908 3685687
0.39000002 -0.039132543 0.06024019 6512468
0.38416779 -0.025090788 0.065141216 2501413
0.38709998 -0.018312234 0.065881535 6710619
0.39317781 -0.013261888 0.064593367 12631473
0.3963103 -0.0074840523 0.067069627 11973545
0.39200002 -0.041168582 0.07982038 13485760
0.37872726 -0.031553213 0.078970976 2304548
0.3832655 -0.034870241 0.074487634 4342845
0.3784517 -0.025254799 0.078918584 1975069
0.38144672 -0.024714215 0.074190155 2369571
0.37900001 -0.019396642 0.079835013 2237215
0.38597441 -0.016880425 0.074984878 7961199
0.39170209 -0.012024697 0.074174657 12631730
0.39563707 -0.0054805321 0.07516367 11973802
0.3942273 0.00088150555 0.075832672 10790041
0.38900003 -0.041081179 0.088543735 13419966
0.39206675 -0.041943204 0.083529718 13551552
0.37806833 -0.03218326 0.084949598 2304547
0.38413206 -0.037079293 0.085495442 7960433
0.37709838 -0.024975399 0.085100397 1843740
0.37769452 -0.018297827 0.086137205 2763557
0.38668418 -0.013979299 0.084311552 11052957
0.39025 -0.011064827 0.08334545 12565682
0.39432731 -0.0059755947 0.085294135 12368560
0.40000004 -0.0011189752 0.084570721 11973802
0.39866671 0.00075184647 0.083980061 11250593
0.40063161 0.00092054333 0.086661674 11513507
0.389 -0.041113701 0.09156841 13354172
0.37775001 -0.032156181 0.090183534 2370339
0.38425004 -0.037721019 0.091228351 10262671
0.377 -0.029443769 0.090004481 1975582
0.377 -0.016646594 0.090004481 8684924
0.38753846 -0.011942778 0.091470562 12171695
0.389 -0.0095009301 0.09156841 12434610
0.39352944 -0.0042476156 0.091644503 12237231
0.39820001 0.00050261099 0.091149688 11250079
0.38270003 -0.034367893 0.10910179 2302235
0.37365755 -0.032808039 0.11590692 1580054
0.38168183 -0.032365229 0.11146791 2040347
0.37206522 -0.025339777 0.11633963 791820
0.38350001 -0.027703993 0.11179269 791819
0.37152728 -0.017464235 0.11593145 1644557
0.36866677 -0.03269463 0.12664868 1515028
0.37041172 -0.032958664 0.1227073 1843739
0.36849093 -0.026025388 0.1272143 1448979
0.3705976 -0.024227822 0.12349261 1647129
0.37222683 -0.016645772 0.12515913 1317135
0.35498574 -0.032766517 0.13659437 1580565
0.36660001 -0.031176448 0.13156253 2172702
0.37049994 -0.034032222 0.13252555 2369826
0.3556141 -0.025443316 0.13664484 1317649
0.36468416 -0.024567857 0.13220607 1514773
0.37 -0.020668389 0.13077596 2105881
0.35545108 -0.016455192 0.13734226 1579796
0.3641201 -0.016528284 0.13437635 922124
0.3718974 -0.016349498 0.13175599 1317392
0.34842849 -0.032631207 0.14709522 1646100
0.35149059 -0.033064734 0.14222391 1711893
0.34801036 -0.02459491 0.1462011 1711892
0.35107034 -0.025226351 0.14174683 1711893
0.34790933 -0.016261326 0.14591551 1645844
0.35091117 -0.016443575 0.14149708 1580053
0.34443018 -0.032460436 0.15476227 1777943
0.34300002 -0.029598756 0.15736647 2040859
0.33721054 -0.032062195 0.1661019 2106910
0.34065226 -0.031892799 0.16100235 1975583
0.33605629 -0.025434755 0.16788237 2106397
0.34 -0.029339872 0.16235764 2172962
0.33615398 -0.015797837 0.16852504 1842455
0.33307141 -0.031991892 0.17478622 2699049
0.33270252 -0.02482227 0.17503902 2304033
0.33276954 -0.015523433 0.17517462 1909275
0.33199996 -0.0094476687 0.17709927 2435617
0.33104348 -0.03153244 0.18186894 1646617
0.33066645 -0.024973473 0.18328379 1121042
0.33062792 -0.01520534 0.18275733 923148
0.33204341 -0.0090172244 0.18251979 857356
0.8175 -0.22938906 0.34922776 1973792
0.80825007 -0.22726583 0.3589949 2632999
0.81444842 -0.22596207 0.35570768 2632231
0.80629402 -0.22529823 0.36547914 2107170
0.81328583 -0.22140121 0.36142984 2566951
0.8083334 -0.21861632 0.36833596 2501670
0.81470591 -0.21794227 0.36558464 2566438
0.80586207 -0.22534089 0.37525561 1186068
0.80799997 -0.21821074 0.37449035 2106913
0.81439131 -0.21441814 0.37479234 2435364
0.80759996 -0.22509655 0.38511837 791312
0.81000006 -0.22159591 0.38679326 1054228
0.80900002 -0.21942843 0.38063407 857102
0.81411767 -0.21491726 0.38527843 1580571
0.80638874 -0.22506386 0.3953968 857360
0.80779999 -0.21664348 0.39585793 923155
0.81282616 -0.21268372 0.39326447 1251863
0.8167274 -0.20848531 0.39695337 1514265
0.80607134 -0.22550699 0.40540609 857359
0.80756527 -0.2152568 0.40453687 857361
0.81 -0.21053459 0.40480742 988691
0.81518757 -0.2076252 0.40477264 1118994
0.83287984 -0.18495962 0.40552115 9606283
0.80824995 -0.22537409 0.41323647 791822
0.81033337 -0.2242149 0.41751519 791568
0.80866671 -0.21744414 0.41076687 857615
0.81218201 -0.21440902 0.41549313 857105
0.81654549 -0.20809165 0.41424906 987404
0.83436358 -0.18502474 0.41547364 9606283
0.81210011 -0.22501796 0.42486817 726029
0.81559259 -0.21484607 0.42503399 857104
0.82000005 -0.21089421 0.42996114 658700
0.81900007 -0.20871973 0.42176765 789769
0.80760002 -0.22793265 0.43707019 791311
0.81162065 -0.22386998 0.43427876 594189
0.81600004 -0.21592295 0.43458894 857105
0.82000011 -0.21153408 0.43604001 658955
0.80664998 -0.22756894 0.44448557 857101
0.81213343 -0.22268316 0.44548169 857104
0.81716663 -0.21797459 0.44441828 791312
0.82125002 -0.21325573 0.44587785 3159344
0.80635303 -0.2270339 0.45367336 922123
0.81518191 -0.22318314 0.45432374 791051
0.82040006 -0.22098386 0.45667544 1777946
0.82333332 -0.2210633 0.46447933 7040614
