# .PCD v0.7 - Point Cloud Data file format
VERSION 0.7
FIELDS x y z rgb
SIZE 4 4 4 4
TYPE F F F U
COUNT 1 1 1 1
WIDTH 408
HEIGHT 1
VIEWPOINT 0 0 0 1 0 0 0
POINTS 408
DATA ascii
0.47611764 -0.10494606 0.028039873 15789541
0.47640005 -0.11025652 0.032319654 16117481
0.46900001 -0.1012243 0.039138593 15525343
0.47365764 -0.10520616 0.034586277 15920100
0.46736005 -0.094316885 0.036648549 16249836
0.47080007 -0.09830682 0.033480581 16315115
0.45866668 -0.082173325 0.039707925 15526368
0.46326321 -0.086844392 0.038160227 15921129
0.45700002 -0.07848677 0.039563641 14277325
0.50349998 0.058803838 0.038871523 14276559
0.49866667 0.06864801 0.039279271 15526370
0.50400001 0.065253653 0.037830371 14934232
0.51000005 0.06284596 0.036391508 14210253
0.49766672 0.072624139 0.038499914 14671318
0.50100005 0.071002424 0.036099754 13947850
0.46810526 -0.10326402 0.045743614 14538448
0.47011125 -0.10604982 0.043266155 14670034
0.45838895 -0.09190008 0.046835817 15591134
0.46330655 -0.095999911 0.044303656 15393757
0.44900003 -0.080790579 0.049382232 16447215
0.45523688 -0.084874727 0.045651902 16249835
0.46111113 -0.088248521 0.041117109 16578543
0.44900009 -0.074483871 0.048550099 16184556
0.45254761 -0.076741144 0.044466823 15658468
0.44900006 -0.068177171 0.048631437 15263712
0.49400005 0.055473454 0.04201632 14473684
0.49507692 0.065236792 0.041741505 14736856
0.48800004 0.074415162 0.042247389 15131356
0.49240005 0.073009171 0.041242581 14999515
0.46502015 -0.10329235 0.054774381 14210253
0.45679173 -0.093069673 0.055181358 14143946
0.46173078 -0.098133482 0.054313727 14012617
0.44754541 -0.083055817 0.05562292 15196634
0.45164284 -0.087197326 0.054353435 14867411
0.43805003 -0.07282389 0.058174886 15855076
0.4438501 -0.075523548 0.053995602 15986920
0.43614998 -0.064712413 0.05725193 16184299
0.44372725 -0.066969275 0.052601084 15921642
0.42750001 -0.051401377 0.059526831 15330020
0.43376672 -0.057306282 0.057887204 15592933
0.4481765 0.025451712 0.059289057 14276818
0.45300001 0.029840209 0.05724553 14211282
0.44854546 0.034605395 0.059116092 14540247
0.45500004 0.036611903 0.056865782 14474197
0.46566668 0.037759293 0.055025667 14276818
0.47329414 0.036781013 0.053678837 14210769
0.4486154 0.044336166 0.059518687 15000797
0.45479068 0.045111086 0.057164453 14803417
0.46496883 0.045762498 0.053581074 14605527
0.47100002 0.043621927 0.052275069 14342355
0.44900003 0.050599061 0.059893403 15264222
0.45606515 0.054923229 0.057649016 15263967
0.46419168 0.054920278 0.053242654 14934490
0.45744112 0.06424655 0.05818139 15395551
0.4645184 0.065315217 0.053836744 15395040
0.45900002 0.071067475 0.059078276 15789796
0.46549276 0.07479123 0.055795137 15395039
0.47000003 0.077538498 0.051875245 15328734
0.4675 0.080316082 0.056057394 13684422
0.46348566 -0.10233988 0.064954959 13947080
0.45586282 -0.094107695 0.064780079 13683909
0.46100003 -0.099030234 0.064622656 14012617
0.44581822 -0.083756112 0.064952448 13815238
0.45126319 -0.089149736 0.065086052 13618116
0.43657342 -0.074084014 0.065025762 14407374
0.44092306 -0.079020314 0.064215288 14078153
0.42695242 -0.063191094 0.066943109 15328734
0.43130359 -0.06626945 0.063497037 15591648
0.41837502 -0.051897116 0.06890741 16052714
0.42387363 -0.055017702 0.06504035 15855591
0.43012503 -0.057633772 0.060773887 16053483
0.41618422 -0.045433789 0.068226993 15658727
0.42117396 -0.047277637 0.064580262 15263712
0.41250002 -0.038332433 0.0690258 14145231
0.42100003 -0.031894609 0.069956362 14078926
0.42764512 0.0048537855 0.068765089 14145234
0.43028569 0.0066164723 0.066606775 14145234
0.42670834 0.015119079 0.069154881 14474453
0.4335227 0.014951568 0.066768818 14211283
0.44433334 0.016191218 0.063151084 14079696
0.42703333 0.023867819 0.068790577 14935259
0.43401855 0.025614677 0.065729409 14737626
0.44369993 0.02471072 0.062088586 14408661
0.43426314 0.034990322 0.066702783 15066844
0.44347501 0.034973316 0.061798014 14803419
0.43776742 0.044428416 0.067592092 15000794
0.44308484 0.045483138 0.063068159 15132382
0.44549358 0.054423377 0.065265022 15066586
0.45114285 0.056652125 0.060782056 15330015
0.449 0.060786821 0.06725122 14868951
0.45300007 0.065513499 0.064606957 15066586
0.45736665 0.073960967 0.065859072 15000537
0.46095654 0.077376544 0.062564567 14737623
0.46260005 0.080288514 0.06278722 11316645
0.46185711 -0.10125376 0.074891388 13947081
0.45621312 -0.094651826 0.074914075 13749702
0.46000001 -0.099730536 0.075090788 13815495
0.44550008 -0.083360523 0.074959725 13552323
0.45159999 -0.088660993 0.075041354 13618116
0.43575704 -0.074265368 0.075115532 13486530
0.44040003 -0.079243146 0.074723668 13552323
0.42477053 -0.063871942 0.074899636 13946568
0.43026668 -0.06895905 0.074516401 13683909
0.41579497 -0.053821791 0.075025909 14736084
0.42082614 -0.058845423 0.073953398 14407375
0.40751806 -0.043329887 0.076466694 15328735
0.41184217 -0.046452407 0.073180884 15526370
0.39900002 -0.031629007 0.079377607 15460833
0.40393427 -0.036197387 0.07664746 15592164
0.41389477 -0.03631657 0.071833931 14605527
0.42100015 -0.031912249 0.073607139 14079182
0.39790002 -0.028283114 0.079157606 15131869
0.40000001 -0.029835463 0.077703737 14868442
0.42192855 -0.028860515 0.073568001 14210512
0.3955 -0.013987644 0.079607189 14737626
0.40250003 -0.010705024 0.079128526 14671833
0.41100001 -0.010931691 0.076473035 14211284
0.40567937 -0.0051172432 0.078136601 14540505
0.41345453 -0.0035532841 0.074544482 14277077
0.42166671 -0.00085054344 0.072038271 14145491
0.40688345 0.0047571016 0.077686407 14606295
0.41432008 0.0051969867 0.074250616 14540503
0.42280561 0.0044817543 0.071708187 14277076
0.40880004 0.011042498 0.078647241 14277329
0.41475001 0.015076145 0.075900249 14540245
0.42194605 0.015643327 0.071391493 14672089
0.41793755 0.021906553 0.078068271 14408915
0.42271733 0.025742197 0.074513473 14672087
0.42664519 0.03343989 0.075576469 14474707
0.4304595 0.037562501 0.073651008 14606293
0.4358131 0.044922315 0.075037658 14211535
0.43900001 0.050499838 0.078599751 13882569
0.44325593 0.055227123 0.074868664 14211021
0.44874203 0.062261708 0.075716816 14474193
0.45131111 0.066663705 0.074663669 14539729
0.45445728 0.073605642 0.074659757 14671315
0.46133336 -0.10028961 0.083676815 14012875
0.45706454 -0.094452307 0.084872298 13749703
0.45999998 -0.099162184 0.084812522 13815495
0.44510415 -0.083507471 0.085491091 13552323
0.45136365 -0.088709474 0.085375912 13618116
0.43436229 -0.074073531 0.084962681 13420737
0.44 -0.079171173 0.08495909 13486530
0.42527026 -0.064908922 0.084913231 13354944
0.43000001 -0.069318719 0.085041471 13354944
0.41504705 -0.054163534 0.084943697 13354944
0.42066669 -0.059608079 0.08598455 13289408
0.40507159 -0.043819398 0.08478938 13815495
0.4105294 -0.048824728 0.085120708 13552323
0.39642692 -0.033751629 0.085410982 14342096
0.40021738 -0.038162183 0.083366252 14473681
0.38877779 -0.023032976 0.089377604 6647149
0.39327255 -0.024886776 0.0848305 14408403
0.38866669 -0.018070837 0.089453042 6645093
0.39296716 -0.01462339 0.084794238 14474453
0.40000001 -0.010170911 0.080512956 14935005
0.39576456 -0.0055673188 0.086117201 14474453
0.40089995 -0.0038723452 0.081255004 14737627
0.39857146 0.00026254286 0.087555476 13619399
0.40370288 0.0052065584 0.084436655 13685193
0.40836367 0.0116049 0.085064016 13422019
0.41216436 0.016476505 0.084902331 13553604
0.41704479 0.023338074 0.085122205 13685191
0.42084226 0.028397156 0.084473215 13816777
0.42543754 0.034421913 0.084995136 13750985
0.43000001 0.03939816 0.085041463 13882314
0.43427786 0.044886325 0.084979221 13881800
0.43881488 0.051392049 0.085128814 14013643
0.44211125 0.056384489 0.084698029 14342608
0.44730765 0.063882664 0.085616194 14539730
0.4506923 0.068564855 0.083369598 14737108
0.45272735 0.073013328 0.084881701 14342608
0.45663083 -0.095098242 0.094851188 13683909
0.44566664 -0.08346086 0.094745904 13486530
0.45166671 -0.088805549 0.095540255 13552067
0.43534276 -0.074499995 0.094933324 13354944
0.44000003 -0.079171173 0.09525957 13354944
0.425796 -0.063825876 0.094959646 13289151
0.43032146 -0.068435803 0.095466934 13289151
0.41494453 -0.054111544 0.094797157 13354944
0.42060003 -0.059401624 0.094506942 13289151
0.39866671 -0.040624086 0.097197451 13881032
0.40452883 -0.04467715 0.094818577 13683911
0.41081819 -0.049702302 0.095192783 13552323
0.38853329 -0.031345394 0.097546406 9539209
0.39423227 -0.035450123 0.094634637 13420482
0.38531825 -0.024941795 0.094860546 2764588
0.39000002 -0.028785244 0.090673424 3421234
0.38501501 -0.015298543 0.094760805 3684662
0.39000002 -0.011133969 0.090673424 11052448
0.38813889 -0.0084543666 0.096698828 13026491
0.39250535 -0.0042323396 0.094253451 14014158
0.3966924 0.0014162363 0.096152008 13751242
0.40353093 0.0064613172 0.094399586 13422276
0.40802631 0.012048874 0.095173895 13290433
0.41240984 0.016948231 0.094864704 13290432
0.4170807 0.023258245 0.09458068 13487811
0.42102796 0.028255913 0.095698908 13553604
0.42573333 0.03473758 0.09488944 13487811
0.43000004 0.03939816 0.095163777 13487812
0.43326384 0.044823773 0.094973668 13619141
0.43779066 0.052103795 0.095076293 14079692
0.44172344 0.057131782 0.094696738 14408144
0.44624713 0.064924724 0.095042177 14474194
0.44892856 0.071009539 0.095540419 14276816
0.45058337 0.07284198 0.092012681 12763834
0.45434624 -0.093721896 0.10478326 13486530
0.44689995 -0.083871886 0.10572848 13420737
0.45107409 -0.088478662 0.10397077 13486530
0.43618867 -0.073733374 0.10486969 13289151
0.44145453 -0.078729942 0.10558159 13354944
0.42548281 -0.06318891 0.10520054 13354944
0.43100002 -0.068436831 0.10509559 13223359
0.40900001 -0.050613765 0.10817636 13618116
0.41562966 -0.054290324 0.10457582 13552323
0.42100003 -0.058634885 0.10512695 13420737
0.39690626 -0.041714787 0.10595859 13946825
0.40349996 -0.046019036 0.10388198 13881288
0.41000003 -0.049777698 0.10124222 13618116
0.38694444 -0.032489985 0.1055228 9605517
0.39244261 -0.037349928 0.10440698 13815238
0.37849998 -0.023033807 0.10858514 2370600
0.38186741 -0.025355931 0.10407113 2567721
0.37843749 -0.016903566 0.10817577 2567467
0.3816635 -0.014665049 0.10389617 3488051
0.38717136 -0.005867003 0.10557551 12829369
0.39095655 -0.0019412951 0.10212819 13882828
0.38900003 0.00042955644 0.10895761 13882828
0.39390239 0.0032420312 0.10549218 13882828
0.40237838 0.0081791999 0.10428037 13619655
0.40667224 0.012544113 0.10558587 13553862
0.41257408 0.017452614 0.10459462 13553604
0.41730773 0.022702051 0.1049811 13553604
0.42138007 0.027760696 0.10503794 13619397
0.42658335 0.034210257 0.10503038 13685190
0.42999995 0.03895076 0.10517422 13816776
0.43295556 0.044680096 0.10511757 13882569
0.43823531 0.051680759 0.1047767 14145741
0.44167933 0.056782577 0.10534664 14211277
0.44524133 0.064846046 0.10501075 14013899
0.44800001 0.070413113 0.10223544 13749959
0.45297727 -0.092956059 0.11453088 13486530
0.44701606 -0.084424816 0.1147537 13289151
0.45046151 -0.089165717 0.11573779 13420737
0.43712828 -0.073095895 0.114985 13223358
0.44208574 -0.078042254 0.11521202 13223358
0.42547062 -0.063048787 0.11467661 13486530
0.43205261 -0.06874796 0.1147569 13354944
0.40762499 -0.051579148 0.11538704 13683398
0.41425005 -0.055237986 0.1152229 13683653
0.42122224 -0.058809876 0.11370686 13552323
0.38900003 -0.040853515 0.11882305 13946311
0.39457452 -0.042626552 0.11453228 13815239
0.40190324 -0.047493149 0.11555407 13683654
0.37899998 -0.030043593 0.11754295 2567466
0.38556474 -0.03500082 0.11525603 11512484
0.391 -0.038684379 0.11137734 13880775
0.37634072 -0.024349881 0.11515299 2304806
0.38050002 -0.029049344 0.1111045 2567976
0.37667206 -0.015520078 0.11536597 2765102
0.38064709 -0.011093621 0.11320478 8423040
0.38458765 -0.0052532782 0.11505207 12632247
0.38747433 0.0027574142 0.11598944 13685450
0.39251614 0.0070230654 0.11364909 13817036
0.40000001 0.0094936397 0.11047798 13422277
0.39528888 0.012119932 0.11673544 13487814
0.40532151 0.015474993 0.11421182 13619399
0.41186669 0.018967528 0.11304353 13750984
0.40900001 0.020239487 0.11918734 13816776
0.41596979 0.023367008 0.11444003 13750983
0.42081833 0.028527476 0.1144357 13750983
0.42591462 0.034523562 0.11489576 13750983
0.43000001 0.03939816 0.1152406 13685191
0.43242848 0.044904284 0.11511575 13882571
0.43743092 0.053131029 0.11588632 14211536
0.44089177 0.057330273 0.11384682 14408658
0.44356182 0.063901074 0.11438289 14144972
0.4533104 -0.092472248 0.12446705 13420737
0.44699997 -0.083812945 0.12509583 13289151
0.4510417 -0.088814229 0.12496999 13420737
0.43628955 -0.072972193 0.12568535 13420737
0.44238237 -0.078353867 0.12480089 13223358
0.41766667 -0.060486149 0.12773751 13881033
0.42536592 -0.064354576 0.12549075 13749703
0.4313449 -0.068562374 0.12438877 13618116
0.40589744 -0.052500665 0.1261335 13881288
0.41388896 -0.056876913 0.12489333 13881288
0.42000002 -0.059840832 0.12288448 13683909
0.38863158 -0.041581571 0.1258681 13749702
0.39369497 -0.045244429 0.12456676 13749702
0.40106672 -0.049194552 0.12328439 13881288
0.37760007 -0.031454466 0.12585247 3815735
0.38377085 -0.036188293 0.12470593 12236206
0.37348282 -0.025257984 0.12496934 1844513
0.37416089 -0.015004508 0.12526752 3423800
0.37849998 -0.0091811875 0.12713414 11645865
0.38285461 -0.0047187903 0.1249425 12040109
0.38541508 0.0045878873 0.12514566 13487813
0.39000002 0.0092562987 0.1209545 13948366
0.38776669 0.011778022 0.12791367 13882573
0.39226589 0.014960649 0.1242892 13487815
0.40400001 0.019046288 0.12009471 13882826
0.39300001 0.020367742 0.12648502 13553352
0.40799999 0.020509161 0.12128454 13816777
0.41613334 0.024498392 0.12266321 13817033
0.42080578 0.028322173 0.12500834 13882312
0.42574683 0.03462879 0.12492859 13816261
0.43000001 0.03939816 0.12530698 13618626
0.43254429 0.044815615 0.12481022 13684419
0.43709087 0.054999337 0.12490845 13816264
0.44000003 0.059885304 0.12633269 13355970
0.43900004 0.060948193 0.124504 13685192
0.44042414 0.063037381 0.12376434 12960956
0.45260876 -0.091852456 0.13468185 13355200
0.44715095 -0.083940774 0.1347959 13354944
0.45063639 -0.088710032 0.13549246 13354944
0.42900002 -0.070161812 0.13957788 13947081
0.43543395 -0.073434725 0.13541166 13749702
0.44192308 -0.078644276 0.13474995 13486530
0.41529033 -0.062215623 0.13652316 13881288
0.42427781 -0.066305414 0.13601835 13947082
0.43042859 -0.06895639 0.13349198 13881032
0.39708337 -0.0515396 0.13840726 13354689
0.40547547 -0.054825164 0.13457988 13815495
0.41157144 -0.058846794 0.13314421 13947081
0.38655323 -0.042045236 0.13507918 13157823
0.39316067 -0.046803039 0.13512926 13486531
0.36849999 -0.030649416 0.13614048 1976099
0.37486109 -0.03274893 0.13436146 6251101
0.38240683 -0.037433285 0.134488 12368305
0.36769131 -0.024717068 0.13372874 2041635
0.37041935 -0.025307769 0.13089548 1712928
0.36776796 -0.01596049 0.13410501 2830895
0.37163049 -0.014415612 0.13170704 4147267
0.37752944 -0.0081147905 0.13488553 10790557
0.38096547 -0.0036683199 0.13460724 11579817
0.38216788 0.0048821759 0.13493191 12961471
0.38565293 0.014458257 0.13490181 13685450
0.39000002 0.01792977 0.13054097 13422023
0.38866672 0.020143161 0.13494448 13290948
0.39000002 0.021125259 0.13419294 13356484
0.42100003 0.029210646 0.13056883 13882571
0.42563334 0.035390627 0.1337346 13882055
0.42999998 0.039398156 0.13185012 13816004
0.43276665 0.044649567 0.13491255 13684161
0.43823144 0.054382488 0.13496363 13552833
0.44000003 0.059370283 0.13427263 13684165
0.44000003 0.061172865 0.13182627 13026492
0.4515295 -0.091194771 0.14466815 13420738
0.44628572 -0.083912149 0.14562556 13618116
0.45045838 -0.088479079 0.14370206 13420993
0.42652181 -0.071755104 0.14540917 13486787
0.43431711 -0.075627722 0.1435077 13815495
0.44066671 -0.078947775 0.14148176 13749702
0.41499999 -0.063171461 0.14275634 13420994
0.42211547 -0.068088457 0.14429003 13420994
0.39750004 -0.052452847 0.14049229 12960188
0.40900001 -0.059231047 0.14168803 13157821
0.39360002 -0.048341881 0.14059079 12236209
0.37100002 -0.032188684 0.14902088 2172449
0.38100001 -0.037337556 0.14001547 10131600
0.36809999 -0.022287119 0.14949274 791307
0.37 -0.025432359 0.14983185 725514
0.36586955 -0.016716257 0.14905229 1250830
0.38106671 0.0060171811 0.14051536 10658463
0.38467354 0.015825614 0.14248729 11579819
0.38775003 0.02092964 0.14317496 11513770
0.3946819 0.02424139 0.1426037 12896191
0.40127274 0.028654218 0.14618696 12961470
0.40300003 0.030320309 0.14762864 12961726
0.42883334 0.039123882 0.14337073 13816520
0.43000001 0.039398156 0.14090987 13685190
0.42900002 0.04031083 0.14660795 13816778
0.43308532 0.04517014 0.14486994 13750471
0.43834186 0.053681493 0.14550301 13553091
0.44000003 0.058054108 0.1420123 12302767
0.45100003 -0.090652645 0.15095891 13354690
0.44808337 -0.08657378 0.15129283 13486786
0.45000002 -0.089398175 0.15062419 13355457
0.36478129 -0.03219473 0.15574549 2368798
0.37020001 -0.031946413 0.15060577 3290157
0.36573312 -0.025163032 0.15502031 791051
0.37050003 -0.027851056 0.15046743 857100
0.36455849 -0.015961187 0.15508349 2037776
0.42843747 0.044960637 0.15744779 13487813
0.43173468 0.047520384 0.15382594 13882057
0.4338845 0.0527086 0.15427539 13750215
0.36194834 -0.032505162 0.16376571 1909531
0.36205485 -0.024801347 0.16496229 1449237
0.36359611 -0.016514214 0.16442531 1710611
0.34498757 -0.033079039 0.17716278 1646873
0.3545135 -0.032315161 0.17452501 923408
0.36126482 -0.032319851 0.17206192 1646618
0.34501603 -0.024980778 0.17734699 1515288
0.354633 -0.024888981 0.17437084 988945
0.36071107 -0.025123391 0.17177786 2041117
0.34582272 -0.016498955 0.17762929 1449241
0.35395652 -0.017973272 0.17435679 857105
0.36082357 -0.017870128 0.17210197 1777944
0.33849055 -0.033514928 0.18817344 1712153
0.34146163 -0.033516653 0.18336576 1777946
0.33863229 -0.025164768 0.18845843 1646617
0.34114268 -0.025008323 0.1834697 1580824
0.33850008 -0.01744278 0.18814656 1449241
0.34093186 -0.016714621 0.18335661 1448983
0.33800003 -0.032793917 0.19100909 1646360
0.33803704 -0.025184337 0.19105186 1646105
0.33800003 -0.018265428 0.19103104 1580311
