# .PCD v0.7 - Point Cloud Data file format
VERSION 0.7
FIELDS x y z rgb
SIZE 4 4 4 4
TYPE F F F U
COUNT 1 1 1 1
WIDTH 412
HEIGHT 1
VIEWPOINT 0 0 0 1 0 0 0
POINTS 412
DATA ascii
0.4777143 -0.1047038 0.02809551 15723747
0.47660002 -0.11030281 0.032333218 16117479
0.46900001 -0.10085832 0.038955603 16051685
0.47402647 -0.10524315 0.03469054 15920356
0.46759519 -0.094304301 0.037167124 16315886
0.47162968 -0.09750098 0.033340205 15921385
0.45900002 -0.081515387 0.039736785 15132125
0.46395242 -0.086953305 0.037881918 15724006
0.45750004 -0.07857205 0.039606929 14408913
0.50333339 0.059078664 0.038858462 14407632
0.49900001 0.069083549 0.039695177 15526626
0.505 0.065495521 0.037485138 14933975
0.49784619 0.072776578 0.038795199 14671317
0.50233334 0.071503676 0.036232274 13816522
0.46808571 -0.10313724 0.046031713 14473168
0.4705601 -0.10604214 0.043159395 14604754
0.45853853 -0.091590211 0.047209509 15590878
0.46332356 -0.095623434 0.044395868 15394013
0.45546672 -0.084715255 0.045801044 16249835
0.46100006 -0.08785592 0.041281559 16381679
0.44882613 -0.074136138 0.04849479 16184299
0.45233339 -0.076830566 0.044622239 15724005
0.4484286 -0.068090744 0.048568584 15460321
0.48166668 0.038307201 0.04921532 14276305
0.47825006 0.04773552 0.049240448 14144460
0.48135293 0.044630714 0.048498478 14342097
0.47532147 0.054873347 0.048973627 14802647
0.48456672 0.056041043 0.045989435 14473683
0.49290907 0.05570871 0.042826142 14407891
0.47530302 0.065295689 0.048527569 15197406
0.48416662 0.065140635 0.045119066 15000027
0.49507138 0.065060906 0.042026091 14737110
0.47383329 0.074191101 0.047978267 15066075
0.48416004 0.07355459 0.044128612 15131868
0.49273336 0.073059686 0.041270655 15000283
0.46486008 -0.10325674 0.054775976 14210252
0.45689136 -0.092772298 0.055153348 14209481
0.46151727 -0.097985014 0.054631192 14077896
0.44758973 -0.082661681 0.055616714 15262682
0.45194289 -0.087006696 0.054177973 14933461
0.43828577 -0.072903812 0.058120739 15724003
0.44407916 -0.075541556 0.05394258 16052455
0.43648419 -0.064600833 0.057113767 16053482
0.44300005 -0.06713853 0.052343961 16052713
0.42700002 -0.050842036 0.059957601 15593189
0.43428579 -0.057341184 0.057741996 15461860
0.44866669 0.01694916 0.059848938 14079698
0.44828573 0.025933862 0.059422899 14277077
0.45050001 0.029148798 0.057984233 14277075
0.449 0.034163412 0.059702292 14540249
0.45360717 0.035913337 0.057922643 14474454
0.46544445 0.037677024 0.055422619 14407891
0.47516006 0.036108106 0.053585995 14210770
0.48040003 0.038168591 0.050811179 14276305
0.449 0.044993103 0.059718221 15001053
0.45406988 0.045089845 0.057446476 14869210
0.46399999 0.045639839 0.054284211 14671063
0.47400013 0.04553229 0.051942721 14407891
0.48042864 0.042090274 0.051071029 14210512
0.45576105 0.055095237 0.057587609 15263967
0.46449012 0.05488025 0.052951075 14934489
0.47000003 0.054340959 0.050591592 14802648
0.45732349 0.06429293 0.058103036 15461345
0.46498147 0.065318696 0.053830132 15460831
0.4701111 0.065084316 0.05060355 15000282
0.45900002 0.071067475 0.059078276 15264222
0.46532398 0.074748471 0.055582609 15460830
0.47000012 0.075796388 0.05086666 14802388
0.46800002 0.080130138 0.05475869 11579044
0.46311426 -0.10225803 0.06490314 13947081
0.45649129 -0.093489118 0.064958736 13683907
0.46081248 -0.098761082 0.064568467 13947079
0.44640428 -0.083398253 0.064994551 13815493
0.4513 -0.088072971 0.064956091 13683908
0.43634921 -0.073771171 0.064800672 14538959
0.44137502 -0.078967921 0.064817056 14078666
0.42683721 -0.063259289 0.066925123 15328733
0.43134549 -0.066252306 0.063427441 15591904
0.41811112 -0.052177213 0.068931907 15921384
0.42389372 -0.054993346 0.064985529 15855848
0.43033335 -0.057284217 0.060761198 15987691
0.41600007 -0.044927228 0.067807674 15527141
0.42147058 -0.04815441 0.064399719 15395553
0.41316667 -0.038553834 0.069137752 14474196
0.42100003 -0.03386575 0.069956362 14210766
0.42742854 0.0061396514 0.069522649 14145490
0.43150008 0.0056986087 0.06761802 14210770
0.44740003 0.0091522224 0.064283818 14013905
0.426375 0.015111554 0.069100581 14474455
0.43418422 0.015070049 0.067190155 14277076
0.44569495 0.015155217 0.063633032 14079698
0.45000002 0.011733803 0.061431404 13947855
0.42665514 0.024456536 0.068930671 15001052
0.43412247 0.025548028 0.066132359 14803418
0.44398004 0.024588488 0.062479652 14408663
0.42833337 0.030555593 0.069502652 15066845
0.43448526 0.035024494 0.066665344 15066846
0.44440007 0.035149544 0.062054783 14803421
0.4379231 0.044070926 0.067745388 14935259
0.44331762 0.045558941 0.063406743 15132383
0.44595939 0.054353952 0.06554421 15132380
0.45100006 0.056272496 0.060992606 15461088
0.44899997 0.06124163 0.067513995 14868694
0.45307893 0.065593541 0.064434335 15197659
0.45770359 0.073708899 0.066030771 15066330
0.46089292 0.07725741 0.063095376 14803416
0.46240002 0.080253802 0.064059332 11119265
0.4616923 -0.10144865 0.074558049 14012874
0.45656452 -0.094262943 0.074624144 13749702
0.46000001 -0.099337064 0.075194336 13881287
0.44530362 -0.083540596 0.075196199 13552323
0.45137507 -0.088549837 0.074804269 13618116
0.43595645 -0.074356794 0.07527972 13552323
0.44063637 -0.079004742 0.073029444 13486530
0.42467746 -0.063707188 0.074763514 13881288
0.43047062 -0.068920873 0.075026855 13618116
0.41583148 -0.053837247 0.075085215 14670803
0.42076197 -0.059058696 0.074184701 14276046
0.40728006 -0.043406695 0.076824114 15328735
0.4118689 -0.046070982 0.073237941 15657956
0.39900002 -0.031161975 0.079377607 15460579
0.40328172 -0.036126323 0.076864697 15657957
0.41378573 -0.037284132 0.071380027 14802649
0.42106912 -0.032358065 0.073604964 14210512
0.39766666 -0.028730869 0.079577036 15526628
0.40000001 -0.029835463 0.078640141 14934235
0.42180005 -0.029091448 0.073249675 14079182
0.4036667 -0.011209135 0.079357103 14606040
0.41157147 -0.011429642 0.077473126 14211282
0.4064399 -0.0050438684 0.078148544 14606040
0.41317397 -0.0037694571 0.074914493 14277075
0.40694338 0.0045778067 0.077916145 14672087
0.41425464 0.0054943925 0.074343294 14606039
0.42241949 0.0046967557 0.071558163 14277075
0.40900001 0.010664723 0.078973331 14277329
0.4150342 0.015047196 0.075942628 14540501
0.42174295 0.015479108 0.07123325 14671833
0.41785717 0.022076819 0.07763081 14474707
0.42211369 0.025911607 0.074344516 14737880
0.42647836 0.033871729 0.075549662 14540500
0.43053341 0.037969995 0.073284395 14672086
0.43522817 0.044908546 0.074983872 14211536
0.43900004 0.050671119 0.077400766 14014156
0.44364637 0.055481043 0.074803233 14211278
0.4487381 0.062801152 0.075439155 14474449
0.45111111 0.067296095 0.074782521 14539986
0.4546912 0.073677637 0.074500024 14671572
0.46200004 -0.10075971 0.083039157 13946826
0.45644823 -0.094649881 0.085333809 13749702
0.46016669 -0.0991382 0.08436317 13946826
0.44494337 -0.08376646 0.085078165 13552322
0.45088235 -0.089139678 0.085412621 13618116
0.43533769 -0.074517302 0.084769912 13420736
0.44 -0.079171166 0.087534204 13486530
0.42512128 -0.064456642 0.084978625 13289408
0.42999998 -0.069086418 0.085312486 13289151
0.41491145 -0.05393767 0.085134052 13354945
0.42050004 -0.059420466 0.085131451 13354689
0.40496477 -0.043928545 0.085075088 13815240
0.41064289 -0.049169324 0.084235862 13617605
0.39636078 -0.033751097 0.085338213 14407633
0.4000909 -0.038314596 0.083468266 14538962
0.389 -0.023551051 0.08922673 6712945
0.39285845 -0.024823664 0.084782988 14342867
0.38900003 -0.01763179 0.08922673 6382949
0.39296612 -0.01458507 0.084906697 14474709
0.40000001 -0.010639114 0.080512956 14935260
0.39572272 -0.0054766093 0.086081281 14474709
0.40112123 -0.0043935543 0.081105977 14869211
0.39850006 0.0001290817 0.087206006 13619144
0.40393391 0.0052042035 0.084432065 13750984
0.40858072 0.011549343 0.085387185 13422019
0.41243067 0.016232254 0.084757447 13553605
0.41709858 0.023505129 0.084971324 13685191
0.42078802 0.028614864 0.084785588 13816777
0.425531 0.034498736 0.084985122 13816777
0.43000004 0.03939816 0.085432939 13816777
0.43413639 0.044963036 0.085095435 13816521
0.43885723 0.051437695 0.085031033 13948107
0.44216403 0.056452829 0.084653921 14342865
0.4471643 0.064237997 0.08531329 14539987
0.45023525 0.069028653 0.083307095 14737621
0.45133337 0.072251238 0.08543168 14474194
0.45663235 -0.095017247 0.095038503 13683909
0.45999998 -0.099999748 0.0925899 13683657
0.44562969 -0.083651535 0.094718553 13486530
0.45100006 -0.0888438 0.095454946 13552323
0.4356029 -0.074340045 0.095026061 13289153
0.44011113 -0.079191171 0.094769508 13420738
0.42552832 -0.063793778 0.095177971 13289152
0.43077782 -0.068548881 0.095410593 13288896
0.41509098 -0.053763904 0.094919361 13420482
0.42063639 -0.059305385 0.09536504 13354688
0.39875004 -0.040476967 0.097529292 14077897
0.40413937 -0.044133499 0.094920889 13814983
0.41009092 -0.048916172 0.094325788 13617861
0.3886154 -0.031295989 0.097814508 9605261
0.39408073 -0.035297036 0.094672896 13354177
0.38614923 -0.02493459 0.094982825 2830382
0.39000002 -0.028785244 0.090673424 3552566
0.38624057 -0.015513945 0.094965428 3487541
0.39016667 -0.01144293 0.091016382 9013637
0.38841379 -0.008620956 0.097116701 12960441
0.39255437 -0.0044876165 0.094329946 14014158
0.39650005 0.0015934432 0.096323766 13816778
0.40420508 0.0064135613 0.09428668 13487811
0.4084118 0.011831463 0.095226072 13290432
0.41253632 0.016753972 0.094917029 13290432
0.41704288 0.023654962 0.09497387 13487812
0.42063347 0.028693629 0.095005274 13553605
0.42524704 0.034463737 0.094993681 13487811
0.43000001 0.03939816 0.095107839 13487811
0.43278009 0.044705737 0.094988465 13619398
0.43725529 0.05215437 0.095107675 14079949
0.44154349 0.057222653 0.094557092 14408400
0.44644445 0.064954393 0.095141284 14473938
0.449 0.070920661 0.096857689 14210766
0.45023525 0.072376989 0.093103729 13223871
0.45510915 -0.094098881 0.10500748 13552323
0.44684002 -0.083798029 0.10527465 13486274
0.45100001 -0.088704817 0.10454408 13486531
0.43594003 -0.073570378 0.10472877 13289151
0.44141665 -0.078609943 0.1055988 13289151
0.42526153 -0.063799426 0.10520043 13354688
0.43029413 -0.068833202 0.10450578 13223359
0.41477972 -0.053593617 0.10471027 13552068
0.42088464 -0.05860332 0.10476514 13420738
0.39721218 -0.041830469 0.10584454 13881034
0.40395167 -0.046355464 0.10399792 13881033
0.4106667 -0.049858633 0.10092536 13946311
0.38684314 -0.032410581 0.10541452 9540493
0.39246964 -0.037270166 0.1044511 13815240
0.37854844 -0.0233189 0.10864004 2305320
0.38197327 -0.025301954 0.10403847 2436906
0.37860879 -0.017063892 0.10873084 2501930
0.38217938 -0.01474343 0.10427096 3422260
0.38738397 -0.0059065265 0.10558035 12829625
0.39082614 -0.00194093 0.1020942 13882571
0.38900003 0.00035366844 0.10857817 13817035
0.39406323 0.0031629964 0.10532797 13882828
0.40248883 0.0081955455 0.10430891 13619656
0.40679258 0.012317871 0.10601934 13619398
0.41220972 0.017009614 0.10455761 13619397
0.41664797 0.02345355 0.10488179 13619397
0.42075869 0.028566502 0.10507237 13619397
0.42601296 0.034613945 0.10499558 13750983
0.43000001 0.03939816 0.10517423 13816776
0.43257305 0.044662859 0.10507995 13948106
0.43779486 0.052019656 0.10478333 14211277
0.44146675 0.057125885 0.10546363 14276814
0.44485873 0.064742908 0.10495173 14144971
0.44825 0.070452407 0.10229161 13882056
0.45419163 -0.093559451 0.11467505 13486530
0.44698301 -0.084106177 0.11499357 13289152
0.45083338 -0.08903686 0.11502078 13420738
0.43688577 -0.073268458 0.11540157 13223358
0.44140002 -0.077807784 0.11471272 13157309
0.4251346 -0.063105628 0.11433328 13486530
0.43147367 -0.068655118 0.11577035 13420737
0.40700006 -0.051451005 0.11613485 13683909
0.41373336 -0.055143822 0.11545438 13618117
0.42092311 -0.058381543 0.11292089 13552324
0.39481825 -0.042445362 0.11528796 13880775
0.40186837 -0.047185555 0.11539848 13749446
0.37900001 -0.030221041 0.11798658 2566949
0.38531318 -0.03468702 0.11544175 11183776
0.39129415 -0.038455572 0.11222011 13815241
0.37668633 -0.024377055 0.11526991 2239269
0.3804 -0.029086133 0.11147568 2437159
0.37648708 -0.015677502 0.1153329 2633773
0.38080004 -0.01124206 0.11333034 7830647
0.38480759 -0.005216043 0.11506857 12566712
0.38742852 0.0029912633 0.11596173 13750986
0.39293551 0.0071347761 0.11339524 13817036
0.40000001 0.0094936397 0.11047798 13619656
0.39460418 0.012311697 0.11692513 13553863
0.40483341 0.014921729 0.11351024 13553863
0.41141179 0.01877355 0.11300384 13750984
0.41560352 0.023326041 0.11397775 13816520
0.42115003 0.028680224 0.11518563 13816263
0.42672235 0.034862045 0.11492804 13816519
0.43000001 0.03939816 0.11524061 13816264
0.4325504 0.044728585 0.11507342 13948107
0.43783009 0.052767247 0.11591548 14211536
0.44078046 0.057275038 0.11411254 14474194
0.44341111 0.063864924 0.11444245 14145230
0.4525001 -0.09223339 0.12440941 13420737
0.44715509 -0.084201463 0.12508881 13289151
0.45038885 -0.089007221 0.12480235 13420737
0.43711436 -0.072545357 0.12502615 13420739
0.44238463 -0.077984579 0.12539615 13289152
0.41800001 -0.060534421 0.12719049 13947081
0.42491186 -0.063824423 0.12548453 13815495
0.43186668 -0.068341754 0.12514092 13618117
0.40602088 -0.052785676 0.12583587 13946825
0.41356522 -0.057203528 0.12490935 13881288
0.38844001 -0.041413669 0.1259416 13749190
0.39421874 -0.045390703 0.12473454 13749447
0.40129411 -0.049163863 0.12287693 13881288
0.37771437 -0.031585317 0.12620227 4145211
0.38373962 -0.036306694 0.12466729 12433329
0.37371242 -0.0252019 0.12496917 2041376
0.37429518 -0.014979872 0.12520848 3489592
0.37825 -0.0093966424 0.12594257 11514793
0.38287058 -0.0046612835 0.1249644 12040366
0.38485384 0.004683 0.12511155 13487815
0.39000002 0.0092562987 0.12049799 14014414
0.38784096 0.011973041 0.12706918 13751245
0.39144063 0.015500011 0.12382045 13422278
0.39200002 0.020315915 0.12616318 13488070
0.4175455 0.024665503 0.1234126 13882569
0.42079321 0.028399097 0.12372706 13948106
0.42606252 0.035084538 0.12453105 13816263
0.43000001 0.039398156 0.12530699 13750213
0.43237206 0.04465083 0.12487872 13684420
0.43748826 0.054347955 0.12497573 13881800
0.44000003 0.059713628 0.12444425 13816521
0.44019499 0.062727712 0.12439331 12960956
0.45270008 -0.091895886 0.13505162 13552067
0.44757447 -0.0838385 0.13458419 13354944
0.45088464 -0.088438518 0.13586016 13420737
0.42900002 -0.070161812 0.13807143 14013130
0.43439475 -0.072603583 0.13446786 13749702
0.44236368 -0.078281738 0.13473037 13486530
0.41578123 -0.062407736 0.1365176 13816008
0.42477506 -0.06674096 0.13575524 13947338
0.43040004 -0.06908121 0.13267624 13881288
0.39775002 -0.051162284 0.13794388 13552324
0.40486577 -0.054782216 0.13449055 13815752
0.41133341 -0.059168253 0.13334297 13881289
0.38616675 -0.041852154 0.1349545 13223615
0.39394641 -0.046995796 0.13539803 13486787
0.36849999 -0.030649416 0.13614048 2107425
0.3753404 -0.032996643 0.13424158 6579809
0.38196364 -0.037532233 0.13444641 12434356
0.3674736 -0.024782926 0.13427098 2107426
0.3706944 -0.025408659 0.13109264 1778205
0.36778852 -0.016072698 0.13512525 2765616
0.3720001 -0.014364886 0.13242273 3949888
0.37726673 -0.0085003916 0.13483565 10724507
0.38109306 -0.0038480118 0.134446 11711402
0.3818723 0.0049536559 0.13494015 13027264
0.38560003 0.0144635 0.13478829 13619915
0.39000002 0.018386267 0.13054097 13356484
0.38833335 0.020429438 0.13937682 13028036
0.39000002 0.022038257 0.13967092 13093828
0.42100003 0.029374907 0.13040458 13882569
0.42497617 0.034995914 0.13301018 13882312
0.43000004 0.03939816 0.13436672 13881798
0.4326703 0.044751164 0.134914 13684163
0.43814754 0.054580603 0.13501313 13618370
0.44000003 0.059885304 0.1325988 13684678
0.44050002 0.062360704 0.1307724 11711402
0.45240009 -0.091358408 0.14407985 13289408
0.44717389 -0.083586082 0.14548549 13618117
0.45081252 -0.0882416 0.14429851 13420737
0.4264167 -0.072154261 0.14577657 13355458
0.4337188 -0.075538546 0.14367349 13749959
0.44209096 -0.078984268 0.14223391 13749702
0.41496974 -0.063312419 0.14287011 13355201
0.42173082 -0.06814 0.14465342 13223615
0.39725 -0.052183714 0.14087038 12499636
0.40533337 -0.057233267 0.1410452 13354944
0.39480001 -0.049043328 0.14101961 12105135
0.37366673 -0.031369556 0.14942046 1514264
0.36700004 -0.021730512 0.14947583 725516
0.37400001 -0.029647239 0.14970058 1317653
0.36654285 -0.016283916 0.14882271 1512975
0.38100001 -0.0021064065 0.14001547 9474440
0.38105264 0.0052458239 0.14045718 10329753
0.38445106 0.015536734 0.14244835 11513771
0.38762504 0.020941598 0.14273149 11645614
0.39307696 0.02391693 0.14254323 12961985
0.42883334 0.038789507 0.14320491 13816777
0.43000001 0.039398156 0.14141318 13750983
0.43219271 0.044899404 0.14485542 13750727
0.43774986 0.053872384 0.14512363 13552834
0.44000003 0.058855258 0.14161173 12171183
0.45100003 -0.090652645 0.15095891 13157824
0.44783333 -0.085215665 0.15112041 13552581
0.45050001 -0.08897078 0.15131888 13355457
0.42500001 -0.070502549 0.15021564 10591897
0.36425394 -0.032282591 0.15578647 2763556
0.37233338 -0.030677827 0.15048411 1251604
0.36528778 -0.025198061 0.15496705 791308
0.37250003 -0.028656306 0.15040646 1383446
0.36504266 -0.015706684 0.1552673 2300179
0.43212497 0.047104266 0.15530208 13750728
0.43483642 0.053003743 0.15475513 13684165
0.36201733 -0.032467321 0.16379768 1843740
0.36220354 -0.024773994 0.16503316 1383702
0.36378568 -0.016468966 0.16442157 1710612
0.43333337 0.053906526 0.16026214 12565428
0.3475883 -0.0321947 0.17579129 1910044
0.35446662 -0.032464925 0.17494918 923150
0.36151445 -0.032405861 0.1721452 1646618
0.34816131 -0.025362032 0.17619197 1712668
0.35413983 -0.02504302 0.17464191 857616
0.36089361 -0.025535375 0.17192027 1975839
0.34770003 -0.016468022 0.17541973 1252120
0.3526471 -0.017880833 0.17397371 791312
0.36214286 -0.017867064 0.17165802 1515030
0.33800003 -0.033519238 0.18988813 1778202
0.34163746 -0.033440433 0.18319665 1712153
0.33812502 -0.023734912 0.18936315 1449239
0.34136441 -0.025104068 0.1830329 1580823
0.3385385 -0.017508483 0.18762667 1514774
0.34113339 -0.016511632 0.18264483 1383703
0.338 -0.03294101 0.19104458 1515287
0.33818761 -0.025448155 0.19095786 1646105
0.3378889 -0.01825922 0.19096836 1711384
0.79459089 -0.18482828 0.40454876 10132627
