# .PCD v0.7 - Point Cloud Data file format
VERSION 0.7
FIELDS x y z rgb
SIZE 4 4 4 4
TYPE F F F U
COUNT 1 1 1 1
WIDTH 414
HEIGHT 1
VIEWPOINT 0 0 0 1 0 0 0
POINTS 414
DATA ascii
0.47210008 -0.013169929 -0.052296251 13222073
0.46873328 -0.0045311409 -0.051009938 14210510
0.47066665 -0.0056671337 -0.054324035 14012617
0.46872729 0.0028461283 -0.050896164 14408659
0.47113955 0.0050006411 -0.054120392 14145230
0.4709 0.010845602 -0.052276056 13356484
0.47900003 -0.021150449 -0.042072166 12695729
0.48066673 -0.022349291 -0.042029712 12366764
0.46694741 -0.01187431 -0.043350738 13419708
0.47262493 -0.016153222 -0.045516979 12893108
0.46452776 -0.0052923318 -0.045040738 14078666
0.47000003 -0.0097502647 -0.049533755 13748932
0.4646945 0.0045687077 -0.044754509 14211281
0.47000003 0.00895447 -0.049533755 13750988
0.46849999 0.012148596 -0.043207966 13027009
0.47006676 0.0124771 -0.047560275 13158851
0.47900003 -0.021150449 -0.039268795 12432557
0.48380002 -0.023404075 -0.035196424 12169381
0.45864713 -0.012168081 -0.032232426 13353915
0.46314636 -0.014718467 -0.035061836 13091000
0.47300005 -0.019500803 -0.035745289 12629935
0.4566251 -0.0048584547 -0.034845535 14079435
0.46037501 -0.0077998023 -0.039224058 13683650
0.45701611 0.0037760471 -0.034349732 14145744
0.46157146 0.0074093426 -0.037686594 13882317
0.45850003 0.010882085 -0.030611955 12961215
0.46448269 0.012714052 -0.035686944 12369078
0.50600004 -0.031107884 -0.022763027 12103585
0.51100004 -0.032133505 -0.020957042 11906206
0.48533335 -0.022191318 -0.028804729 12300964
0.49391663 -0.026627598 -0.02776424 11773850
0.50382608 -0.026864059 -0.022323795 11708057
0.51000005 -0.029682783 -0.020319656 11905949
0.45453343 -0.013334849 -0.024505503 13156793
0.46400002 -0.018322675 -0.029349223 12498350
0.44859385 -0.0041221492 -0.022632804 14145743
0.45208168 -0.0057962602 -0.027131082 14013900
0.44872731 0.0022949381 -0.02255852 14211795
0.45222864 0.0058205449 -0.025994992 13882573
0.45355558 0.010882563 -0.025038157 12435128
0.51728576 -0.032789294 -0.0168021 11643034
0.52277786 -0.034191865 -0.012802095 11840412
0.50699997 -0.025950609 -0.019013232 11774877
0.51325005 -0.029120469 -0.017287303 11774620
0.52174997 -0.028076842 -0.012084191 11774365
0.44688237 -0.013440586 -0.013626863 13091000
0.45120001 -0.015963329 -0.017451826 12696499
0.44371131 -0.0050537488 -0.015096059 14211022
0.44580469 0.0043414198 -0.01508477 13948368
0.45025003 0.0093688704 -0.018203016 13027266
0.44840002 0.01064237 -0.012619136 12237750
0.45033336 0.010688256 -0.01688893 12500921
0.52825004 -0.041256718 -0.0092977937 11577241
0.53540009 -0.041858777 -0.0026848188 11906204
0.54266673 -0.046831083 -2.45022e-05 12037790
0.52632433 -0.03420053 -0.0074131563 11840411
0.53238106 -0.037515931 -0.0031622283 11643033
0.45366669 -0.020976057 -0.0023799697 12366762
0.52460003 -0.029304426 -0.0073899338 11840414
0.43800002 -0.011380201 -0.0017709958 13420222
0.44427693 -0.014815089 -0.0059431586 12893364
0.45060006 -0.019264359 -0.0033960931 12432555
0.43663844 -0.0048591755 -0.0042675356 14277073
0.44000003 -0.0063320627 -0.0089959977 14145230
0.4379259 0.0037349688 -0.0026236784 13948367
0.44118419 0.0053370106 -0.0070898556 13816781
0.54816669 -0.051367357 0.0053248652 12104356
0.55000001 -0.051968019 0.0089880852 11774877
0.53866673 -0.04059903 0.0016573096 11906203
0.54469395 -0.045113862 0.005498393 11840412
0.53841382 -0.035553169 0.0048448453 12169120
0.54057139 -0.038513232 0.0072076661 11971742
0.45400003 -0.020046564 0.0010423234 12300969
0.42900002 -0.010908303 0.0090193003 13618114
0.43299997 -0.01287965 0.0050806431 13156792
0.44299999 -0.016454322 0.0010170689 12761520
0.42882347 -0.0055886023 0.0086020567 14342866
0.43141434 -0.0051708897 0.004273748 14277074
0.43433329 0.0043583084 0.0048669316 13816781
0.44300002 0.011551277 0.0051653525 11251108
0.55150002 -0.05068934 0.013147305 11708570
0.54713792 -0.043597389 0.014591889 11971742
0.55079997 -0.04727402 0.01570642 11840156
0.53885716 -0.034066185 0.01132827 12234915
0.5418486 -0.036730204 0.01504488 12103586
0.43900004 -0.020411938 0.016937343 12235432
0.4427273 -0.02199943 0.016754042 12169640
0.42644995 -0.012317719 0.015794497 13288891
0.43254766 -0.016408658 0.014212077 12630447
0.42497259 -0.0053331526 0.014889201 14277073
0.42640331 0.0029573471 0.01621737 13948367
0.43100002 0.006196674 0.012086014 13290437
0.43000001 0.010205663 0.016086789 11119268
0.54524004 -0.042048424 0.02468361 12235172
0.54319519 -0.036611497 0.024663335 12169636
0.43481255 -0.021044489 0.025799749 12235432
0.44100001 -0.021537319 0.021658694 12235689
0.41780001 -0.012483106 0.027952675 13289663
0.42295665 -0.014033026 0.024083773 13025464
0.4321 -0.017767651 0.021322144 12433070
0.41707698 -0.0050774817 0.02654874 14211537
0.42068586 -0.0055758161 0.021956008 14146001
0.41753334 0.0013738015 0.027868919 14014160
0.42266202 0.0047837305 0.024335749 13356231
0.54400003 -0.040576231 0.03053977 12235430
0.54186666 -0.036612798 0.031687744 12103844
0.43472221 -0.023161419 0.032660984 12300969
0.41619232 -0.013285433 0.031720378 13157563
0.42320004 -0.018394651 0.032275468 12564398
0.41354999 -0.0051910994 0.03144408 14145745
0.41643333 0.0033921048 0.031826224 13619403
0.42033336 0.0075169937 0.030813009 12172215
0.417 -0.020854492 0.046838988 12301482
0.42166671 -0.023556078 0.047363166 12169895
0.40700004 -0.012734011 0.045715749 13421247
0.41250002 -0.017735958 0.046333533 12630447
0.40550002 -0.0050891209 0.045547266 14014415
0.40760002 0.0020418321 0.045783143 13685967
0.41000003 0.0068515288 0.046052724 12501691
0.39840001 -0.011996957 0.058739692 13553604
0.40033332 -0.017209854 0.059024736 13025719
0.39770004 -0.0049888766 0.058636479 14079952
0.40050003 0.0024754296 0.059049312 13422025
0.39400002 -0.021087267 0.069389299 12893878
0.3925001 -0.015037741 0.069355175 13618884
0.39113635 -0.0053657573 0.069114074 14014158
0.39275002 0.0024276597 0.069399305 13487816
0.38875005 -0.021033367 0.079158016 13748931
0.39286786 -0.022593381 0.074913055 12499119
0.40100002 -0.028034115 0.07977549 12432298
0.38754994 -0.014676049 0.076923087 13684163
0.39110646 -0.015830688 0.072389238 13750470
0.38768485 -0.0055463705 0.075727962 13421507
0.39013633 -0.0043975385 0.071137846 13948364
0.38847062 0.0022390147 0.077949442 13488329
0.39102447 0.0027844012 0.073165998 13487815
0.39700001 -0.040764306 0.089202955 13090485
0.39625928 -0.03416669 0.087983228 12893363
0.40190318 -0.032827422 0.083802752 12827314
0.38681331 -0.023219677 0.085653313 10986139
0.39364105 -0.02751823 0.084771194 12630449
0.40110001 -0.028698076 0.08204861 12695729
0.37881815 -0.01189012 0.08890646 2172962
0.38246089 -0.015319312 0.084539816 2961963
0.37862861 -0.0059042736 0.088341154 2172963
0.3821508 -0.0050056493 0.083652794 3158830
0.38541225 0.0041791978 0.085279688 12501177
0.38883337 0.010594203 0.087672301 12633021
0.39060003 0.012380347 0.088862859 12962243
0.39622217 -0.043183293 0.097044416 13156535
0.40000001 -0.048563607 0.098304689 12696240
0.38840747 -0.031901568 0.097103581 12499119
0.39342704 -0.036079038 0.094290882 12959156
0.3848449 -0.025060104 0.094905503 10788758
0.3772389 -0.014066678 0.095695645 2172961
0.38070369 -0.018428473 0.092900947 1975325
0.37684143 -0.0052561439 0.095097274 2238240
0.37871429 0.00024942213 0.097378276 9407871
0.38412815 0.0049596285 0.09462215 12566968
0.38861766 0.011070414 0.095611922 13093312
0.39296201 0.015974291 0.095263951 13159363
0.40024999 0.019572388 0.092509493 12633022
0.39699998 0.021300761 0.098390669 13356998
0.40270597 0.024593575 0.096289158 12764607
0.40679997 0.031179756 0.099023536 12764350
0.3980667 -0.051000915 0.10801627 13156278
0.40089789 -0.053482041 0.10538034 13090741
0.3940174 -0.04443489 0.10508419 13287862
0.40000001 -0.049312733 0.1022376 13090742
0.38744459 -0.034137499 0.10555893 12564397
0.39082614 -0.038301215 0.10249095 13156534
0.37826091 -0.020745309 0.10574207 5987154
0.38324541 -0.02584639 0.10478522 11183001
0.37358525 -0.014710847 0.10505626 2106913
0.37283731 -0.0050537479 0.10494471 2172706
0.37700003 0.0012532189 0.10544798 12237743
0.38382286 0.0065350411 0.10506324 12895675
0.38798553 0.01254244 0.10565724 13027519
0.39128822 0.017332116 0.10414158 13158848
0.39539656 0.022830902 0.10554756 13290691
0.4016757 0.028012076 0.10470489 13356742
0.40602133 0.032353044 0.10572711 13356998
0.41392311 0.03758166 0.10559263 13028035
0.41757694 0.041156374 0.10570555 12501949
0.42238471 0.045554098 0.10685046 12238777
0.4271667 0.050639197 0.10898047 11843762
0.45842856 -0.083149262 0.11813045 13288379
0.41480002 -0.071335986 0.11863741 13024692
0.42327783 -0.075228587 0.11811541 13222071
0.45845461 -0.078296244 0.11735284 13091000
0.40610188 -0.063523881 0.11651173 12827569
0.41211113 -0.066969976 0.11510278 13156278
0.39662746 -0.052581932 0.11583853 12827570
0.40149051 -0.057172112 0.11473478 12827569
0.38848719 -0.042153366 0.1162735 13354169
0.3921358 -0.04665193 0.1142728 12958899
0.38527396 -0.035141587 0.11507926 12564654
0.37707698 -0.021723036 0.11514318 7895153
0.38158327 -0.026604366 0.11475617 11183258
0.3683418 -0.013273801 0.11625993 1712154
0.37127435 -0.016259616 0.11302853 2041376
0.36826259 -0.0052536316 0.11631342 2304804
0.37052277 -0.0046291077 0.11140342 1976355
0.36800003 0.00033457583 0.11908501 12895673
0.37540001 0.0013571884 0.11208503 12436152
0.38365397 0.0063700788 0.11516306 12829881
0.38711953 0.013243904 0.11510267 13027518
0.39100009 0.018490378 0.11500862 13159105
0.39574993 0.02349731 0.11521815 13356484
0.40027583 0.028371053 0.11478643 13356484
0.4058587 0.034685314 0.11537155 13422278
0.41122225 0.039069016 0.11154318 13553609
0.40900001 0.040346488 0.11918734 13553863
0.41428789 0.043656312 0.11598995 13553865
0.4225001 0.047615051 0.11347146 13225158
0.4244858 0.051727861 0.11534839 13159621
0.43604004 0.057763342 0.11443662 12370104
0.43900001 0.060776908 0.1145695 11975345
0.44155997 0.063784644 0.11769757 12238518
0.43783334 -0.091081411 0.12827115 13222071
0.44390002 -0.094634674 0.12873152 13287864
0.45150003 -0.098679826 0.1294578 13287864
0.42638466 -0.081830293 0.12636063 13024692
0.43212503 -0.086357951 0.12646051 13156278
0.4456667 -0.088535748 0.12413421 13287864
0.4566251 -0.083894141 0.12130412 13353657
0.40850002 -0.070634313 0.12956041 12696240
0.41518918 -0.073847197 0.12431324 12761520
0.42217866 -0.078119628 0.12429128 13024692
0.45800003 -0.078657337 0.12006418 13287866
0.40497059 -0.065055028 0.12486362 12761776
0.41000003 -0.069933861 0.12091848 12827313
0.39457139 -0.054147691 0.12496405 12630705
0.4003334 -0.059147622 0.12251823 12893362
0.38731822 -0.043950006 0.12523045 12499376
0.3907693 -0.048499163 0.12358208 12762291
0.38288701 -0.034792438 0.12501988 12038825
0.37708065 -0.023490451 0.12528792 9605256
0.38051918 -0.027646853 0.12433428 10986137
0.36715046 -0.014190939 0.12557976 1843994
0.37074992 -0.019278754 0.12457386 2106141
0.36639866 -0.0051830607 0.12507983 2171933
0.36752629 0.00043693429 0.12472873 11908520
0.3748 0.0035007109 0.12475718 12501172
0.38241932 0.0075481087 0.12477804 12764346
0.38678506 0.01429315 0.12492603 13027262
0.39008334 0.019227309 0.12470832 13158848
0.39459267 0.023485392 0.12465497 13224641
0.40000007 0.028714625 0.12477051 13290434
0.40445951 0.034727298 0.12500177 13224898
0.40856248 0.04060255 0.12587315 13290691
0.41394365 0.045323476 0.12460168 13422277
0.41900006 0.050160937 0.1261231 13488070
0.42355838 0.054710381 0.12514678 13685193
0.43290913 0.05882721 0.12185704 13488329
0.42816672 0.060446825 0.12827937 13751242
0.43495584 0.064234555 0.12576252 13685451
0.44189289 0.06639035 0.12230542 12896449
0.43900001 0.070026264 0.12895739 13750988
0.44576928 0.073278338 0.12650371 12961472
0.45141673 0.077556081 0.12626348 12040368
0.45100006 0.081090689 0.12913907 12500921
0.44875005 -0.10109986 0.13733634 12630190
0.45266667 -0.10319407 0.13506638 13222327
0.43654841 -0.092235394 0.13448158 12564397
0.44353575 -0.096796967 0.13424991 12893363
0.45000002 -0.099932753 0.13166195 13287864
0.4267917 -0.083169952 0.1350926 12104103
0.43087506 -0.087869838 0.1349186 12169640
0.40843749 -0.071102239 0.13432145 12038310
0.41451293 -0.074990675 0.13486061 12038310
0.42090002 -0.078592099 0.13447998 12104103
0.39873341 -0.061042741 0.1354547 11512738
0.4028194 -0.065485328 0.13371015 12367275
0.39521664 -0.055769749 0.13330619 11907495
0.38772729 -0.04452166 0.13202819 10591892
0.38299996 -0.035133924 0.13119677 9999500
0.36650002 -0.020472879 0.13168094 2302234
0.37657899 -0.024664963 0.13100815 9210756
0.38000003 -0.028788485 0.1311969 10855067
0.36556008 -0.015289012 0.13290828 1712666
0.37072217 -0.014442608 0.13869792 857615
0.36454451 -0.0047996254 0.13345721 2105883
0.37083337 -0.0075486652 0.13917316 330758
0.36400002 0.00011790649 0.13398109 9933964
0.37800002 0.0045469655 0.13094884 11580073
0.38188893 0.0083705867 0.1310046 12698300
0.38722727 0.015215739 0.13138224 12237746
0.39000002 0.019299267 0.13099746 12040624
0.39425004 0.023217048 0.1319138 12303541
0.40095004 0.028242925 0.13402039 11777197
0.40377465 0.034619067 0.13340653 12040369
0.40728572 0.040314164 0.13250831 12500919
0.41676742 0.047017101 0.13441943 12435126
0.41900006 0.050160937 0.13495107 12632506
0.42309198 0.055375807 0.13437484 12895933
0.42804763 0.062029488 0.13444716 13290434
0.43290743 0.066660278 0.13414221 13422020
0.43833339 0.071402699 0.13537128 13487813
0.44438982 0.076345347 0.13480929 13619401
0.44900003 0.081239134 0.13520595 13684938
0.45194876 0.085634135 0.13627566 13488071
0.45400003 0.090486944 0.13814639 14014414
0.44900003 -0.1007618 0.14293164 11183001
0.45050001 -0.10373558 0.14024527 11906724
0.44533333 -0.097857781 0.14176442 11643039
0.4272778 -0.083277911 0.14162803 10789014
0.43000001 -0.087438196 0.14166485 10919829
0.417 -0.076498151 0.14055462 10393487
0.42100003 -0.078709118 0.1409173 10854808
0.36100003 -0.021517819 0.14855361 2764329
0.37400001 -0.02001629 0.14488511 2370086
0.36120003 -0.016285343 0.14956608 791306
0.3731429 -0.013792471 0.14549389 726028
0.36813045 -0.0035907603 0.14877379 1118987
0.37114814 -0.0070913285 0.14771821 396549
0.36650002 0.00011871629 0.14841336 5644829
0.43900001 0.073109388 0.14077602 12960699
0.44400004 0.076780386 0.14103766 13421506
0.44900003 0.081782199 0.14258128 13224384
0.45160875 0.085970446 0.14210525 13224386
0.45400003 0.090486944 0.14080343 13619402
0.36076927 -0.022101568 0.15469529 2107167
0.35880011 -0.013197732 0.15877727 923151
0.36097005 -0.014772104 0.15425047 1251857
0.37375003 -0.013441623 0.15047547 528649
0.359 -0.0090233395 0.15913936 923151
0.3625772 -0.0054056598 0.15428084 1118987
0.36366668 0.00011779852 0.15322584 6636353
1.8180001 0.055916503 0.15738884 12169637
1.816 0.064355224 0.15721568 11906979
1.8130001 0.074861914 0.15695597 11840931
1.8130001 0.081228308 0.15695597 12104103
0.34459466 -0.022125393 0.16783907 1383958
0.36133346 -0.021751838 0.16490039 922894
0.3450844 -0.014777888 0.16781247 1120786
0.35591069 -0.014081045 0.16452685 1120787
0.36046666 -0.01816784 0.16312999 1120786
0.34517649 -0.0056998366 0.16824383 1251859
0.35625473 -0.0062418585 0.16540535 923152
0.36049995 -0.0039458792 0.16237411 923153
1.7680001 0.046100806 0.16961589 11840672
1.7880001 0.04662231 0.16734888 11840672
1.8030001 0.047013436 0.16453196 11840672
1.7540001 0.056001119 0.16827276 12038051
1.7640001 0.050126065 0.16923213 11840672
1.7823334 0.05481638 0.1668185 11972004
1.8047501 0.05656594 0.16363351 11972004
1.8100001 0.055670448 0.16093349 12037797
1.7555001 0.064270079 0.16841668 11774879
1.7810001 0.065201871 0.16669372 12037797
1.8055 0.066098809 0.16264381 11906211
1.7490001 0.076313682 0.1677931 11972004
1.7540001 0.070372626 0.16827276 11840672
1.7740002 0.075322561 0.16603854 12037797
1.8040001 0.074488536 0.1625087 11774882
1.7470001 0.08236105 0.16760121 12037797
1.7680001 0.083351083 0.16547696 12695727
1.7980001 0.080556266 0.16407569 11906211
1.8030001 0.082890704 0.1603111 12038310
0.33777073 -0.02246015 0.17731734 1317908
0.34133333 -0.022943003 0.17253694 1712410
0.3376767 -0.015118347 0.17748791 1252371
0.34108377 -0.014878957 0.17253132 1383702
0.33806744 -0.0055251652 0.17797647 1186323
0.34136778 -0.0056261332 0.17293218 1251860
1.7170001 0.048790507 0.17276217 11906465
1.7350001 0.049301997 0.17051165 11906465
1.7450001 0.045501079 0.17149442 11906465
1.715 0.052748516 0.17256093 11972258
1.7320001 0.055297539 0.1702168 11972258
1.7170001 0.064865492 0.1754403 11774879
1.7330002 0.065473102 0.17031509 11708831
1.714 0.074785367 0.17647281 11972516
1.7220001 0.077151217 0.17326526 11972517
1.7320001 0.075570755 0.1702168 11972004
0.33371425 -0.022194922 0.18383159 1317909
0.33379775 -0.01496616 0.18385567 1252372
0.33432215 -0.0052326317 0.18319355 1186322
0.33500001 0.00010851284 0.18271303 2368799
1.4736667 0.034973811 0.18967688 11709599
1.4827501 0.036062006 0.18650341 11775135
1.4910001 0.035387542 0.18492694 11840672
1.473 0.043582298 0.18959108 11840931
1.4810001 0.043818988 0.18715371 11840930
1.4945002 0.044220168 0.18536106 11775136
1.4940001 0.05469723 0.18879652 11840931
1.4446667 0.036543041 0.19834308 11840673
1.4530001 0.036185227 0.19381985 11841185
1.4645001 0.036472216 0.19192545 11906978
1.439 0.044259541 0.19868979 11709345
1.4445001 0.044428706 0.19662829 11840674
1.452 0.044659384 0.19368646 12104103
1.4650002 0.045061573 0.19199097 11906724
1.4770001 0.048885997 0.19010592 11775138
1.4385 0.055188425 0.19777858 12038310
1.4430001 0.052827794 0.19586401 12104103
1.452 0.054856855 0.19368644 12038310
1.4680002 0.053744212 0.19238412 11906724
1.4770001 0.052343681 0.19010592 11775138
1.4375 0.061039474 0.19679832 12169896
1.4325001 0.035672925 0.20114581 11972258
1.3446668 0.044505227 0.20140417 11709086
1.3835001 0.047410131 0.20074302 12037797
1.414 0.046800811 0.20185831 11774625
1.4280001 0.047264189 0.20051394 11972004
1.4300001 0.042308904 0.20079477 12103590
1.3455001 0.052409947 0.201529 12169637
1.353 0.057451412 0.20265234 12235430
1.381 0.052174468 0.20038028 12498348
1.4080001 0.056490686 0.20100179 12235689
1.4115001 0.051672831 0.20150143 12169639
1.4260001 0.053872231 0.20023312 11972517
1.4250001 0.060508694 0.2000927 12169896
