# .PCD v0.7 - Point Cloud Data file format
VERSION 0.7
FIELDS x y z rgb
SIZE 4 4 4 4
TYPE F F F U
COUNT 1 1 1 1
WIDTH 459
HEIGHT 1
VIEWPOINT 0 0 0 1 0 0 0
POINTS 459
DATA ascii
0.47285715 -0.013373737 -0.051652502 13090742
0.46874997 -0.0036894812 -0.051322818 14276559
0.4706316 -0.0060514365 -0.054269891 14012615
0.46874997 0.0021641369 -0.051231325 14408915
0.47107157 0.0052466444 -0.054087408 14079691
0.47100002 0.010878045 -0.052447721 13290434
0.47540003 -0.020991489 -0.042313833 12892592
0.46713045 -0.012498224 -0.042674445 13353916
0.47242862 -0.01596985 -0.045794398 12958899
0.46469858 -0.005340091 -0.044991586 14079179
0.47000003 -0.0097502647 -0.049533755 13683135
0.46483347 0.0048594358 -0.044785388 14211281
0.47000003 0.00895447 -0.049533755 13882571
0.46831572 0.011692668 -0.044455517 13027265
0.47000009 0.012255304 -0.048433475 13487814
0.45861545 -0.012157638 -0.031734481 13354172
0.46296293 -0.015068219 -0.034927741 13024950
0.45664707 -0.0047283205 -0.034662142 14144973
0.46045455 -0.0074957637 -0.038826358 13749957
0.45722219 0.0038563497 -0.034312021 14145489
0.46134788 0.0076196282 -0.037399765 13882319
0.45900002 0.011252128 -0.030465662 12961474
0.4639667 0.012824714 -0.035616826 12303543
0.49850002 -0.030180462 -0.027446363 11642777
0.50599998 -0.031376339 -0.022821143 12103329
0.51100004 -0.031535372 -0.020359498 11971744
0.48400003 -0.022504278 -0.029481225 12235430
0.49733338 -0.027782077 -0.027381541 11642779
0.50346434 -0.026948001 -0.02266188 11642522
0.45458344 -0.01346066 -0.024578979 13091000
0.46180001 -0.017799936 -0.028993759 12630192
0.44861302 -0.0043273894 -0.022516079 14211279
0.45206004 -0.0056345253 -0.027117135 14013643
0.44886664 0.0021073257 -0.022017408 14343125
0.45248002 0.0054603033 -0.025959348 13948111
0.45428577 0.010935232 -0.025406849 12566716
0.51694125 -0.032792296 -0.016819593 11642779
0.52308691 -0.034014918 -0.012690866 11774620
0.50633335 -0.02591571 -0.018988229 11709086
0.51324999 -0.029120469 -0.017287305 11840158
0.52200001 -0.028089926 -0.01208976 11840158
0.44692445 -0.013383404 -0.013805991 13090998
0.45236361 -0.01665879 -0.017111877 12761776
0.44356674 -0.0050510899 -0.015092229 14145486
0.44576097 0.0046007214 -0.015231481 13817295
0.45000002 0.0096268859 -0.018982563 12699072
0.44750002 0.010621009 -0.012858934 11974835
0.45000002 0.010680345 -0.018982563 12172728
0.53423542 -0.041540042 -0.0044197268 11577241
0.54225004 -0.046163049 -2.4483385e-05 12103585
0.52676666 -0.033705305 -0.0077084876 11709084
0.53238463 -0.037747003 -0.0041378369 11577498
0.45050001 -0.020946648 -0.0037109556 12235176
0.52388895 -0.028311649 -0.0084716082 11906464
0.43821055 -0.011521622 -0.0018573615 13288893
0.44403079 -0.015062631 -0.0056969444 12827826
0.4365595 -0.0047256788 -0.0043508732 14277329
0.44000003 -0.0084412089 -0.0086035989 14013386
0.43754384 0.0036332551 -0.0028630658 13948881
0.4410882 0.0055514546 -0.0071299318 13685709
0.54900002 -0.052002054 0.0079435688 12038305
0.53900003 -0.040834192 0.0012374721 12037535
0.54528016 -0.045249801 0.0053681945 11905949
0.53866673 -0.038076971 0.0016573096 11906463
0.5422917 -0.036958542 0.006169165 12037792
0.43364149 -0.013269681 0.0052159973 13025719
0.44133338 -0.016733443 0.0017007213 12630447
0.42899996 -0.004982952 0.0089188712 14277586
0.4314805 -0.0052920342 0.0046307226 14211537
0.43368289 0.0042845658 0.0050229155 13685710
0.54900002 -0.051873535 0.010256963 11643034
0.55071431 -0.050654139 0.014710505 11642777
0.54772735 -0.04403457 0.013935768 11840413
0.55030775 -0.047686554 0.016525429 11840155
0.54500008 -0.036824245 0.014166147 12038049
0.43900001 -0.020411938 0.018992756 12169896
0.44125003 -0.021034507 0.017024444 12169896
0.42636114 -0.012228971 0.016024917 13223611
0.43232507 -0.016138522 0.014156279 12630704
0.42468181 -0.0053310329 0.014877679 14211537
0.42565218 0.003243627 0.016072262 13816781
0.43058336 0.0058538993 0.011403751 13290952
0.54826927 -0.042376976 0.024707828 12235171
0.550125 -0.04538006 0.024926316 12169635
0.54613888 -0.036937658 0.025582757 12169636
0.43460003 -0.020411022 0.024992751 12301226
0.41776475 -0.012637686 0.028284594 13289662
0.42293626 -0.01373219 0.023736514 12960183
0.43142861 -0.0178988 0.021188136 12498861
0.41715729 -0.0049146186 0.026273798 14211538
0.42063344 -0.0060353754 0.021807956 14145744
0.41789481 0.0014755351 0.027578041 14014160
0.42193156 0.0049989978 0.024683887 13290693
0.54700005 -0.041441433 0.03294532 12366500
0.54587996 -0.036782425 0.032893904 12300708
0.41800001 -0.020904111 0.038144011 12367275
0.42166671 -0.021413267 0.036169589 12169640
0.43266669 -0.021805337 0.032391075 12366762
0.40900001 -0.010399757 0.039238062 13816006
0.4147872 -0.014428764 0.035322353 13091512
0.42080003 -0.018581539 0.033474416 12498604
0.40881822 -0.0048706504 0.038567796 14211537
0.41259089 -0.0052440981 0.033701465 14211281
0.40900001 0.00013248283 0.039238062 14079955
0.41516677 0.0034197695 0.034847144 13619403
0.42050004 0.0080118934 0.032113828 12171955
0.4176923 -0.021076484 0.045337651 12235690
0.42209098 -0.023716765 0.046152201 12104103
0.40668014 -0.013068566 0.04674001 13421247
0.41310003 -0.017216176 0.044333417 12762290
0.40480894 -0.0051285131 0.045936037 14079952
0.40704179 0.0029354615 0.046450492 13488331
0.41166672 0.0055941609 0.041417431 13093060
0.40642861 -0.021614065 0.055015635 12301482
0.41133335 -0.020891055 0.051015619 12498862
0.39826322 -0.01209074 0.058571294 13684679
0.40266368 -0.015149645 0.054343488 13158077
0.41100001 -0.019110037 0.050013676 12433840
0.39788455 -0.005351712 0.057550445 14079953
0.40069482 -0.0046383846 0.052906375 14079952
0.39866671 0.00044049104 0.059400935 14079954
0.40271801 0.0030229564 0.054748744 13422281
0.396375 -0.020982029 0.068412401 12630963
0.40131041 -0.021997551 0.063247733 12367020
0.39515501 -0.014566028 0.06535393 13487299
0.40025005 -0.019000757 0.061978515 12696243
0.39374608 -0.0051806048 0.065084226 14014159
0.3958309 0.0026236437 0.06572298 13487816
0.40020004 0.0042519309 0.061159283 12961989
0.40400001 -0.030133817 0.079426542 13221811
0.38866672 -0.020801244 0.079140849 13815748
0.39335477 -0.022990966 0.075077042 12498863
0.40160003 -0.02826412 0.079141989 12827054
0.38746339 -0.014711236 0.076832682 13618627
0.39108697 -0.015897436 0.072347589 13750471
0.38733941 -0.0056961919 0.07589186 13290177
0.39020827 -0.0044393693 0.071081631 13882316
0.38825005 0.0021432803 0.077719405 13553865
0.39122862 0.0025872029 0.07293497 13553609
0.39700001 -0.040764306 0.088738263 12761522
0.39625493 -0.034476303 0.088047162 12959157
0.40188232 -0.032877833 0.083900318 12696241
0.38660258 -0.023517612 0.085888065 11051674
0.39334291 -0.027158825 0.084059097 12696242
0.40108338 -0.028587153 0.081824653 12695984
0.37875006 -0.013133447 0.088781461 2041888
0.38248339 -0.015379027 0.08422184 3093035
0.37881818 -0.0062994878 0.088395618 2041893
0.38202834 -0.0048353029 0.083803646 3027244
0.3850196 0.0037929986 0.085551798 12632762
0.38900003 0.010598548 0.088771403 13159618
0.39039999 0.012373727 0.088816985 13225412
0.39627588 -0.043653358 0.096764751 13090998
0.38836664 -0.031999286 0.097049803 12564655
0.39347374 -0.03615446 0.094209448 12959157
0.37900001 -0.020283887 0.099354416 3354406
0.38469768 -0.025064725 0.094870411 10657429
0.37696037 -0.014411967 0.095426768 2107425
0.38050005 -0.019028282 0.092429288 1843483
0.37702206 -0.005391683 0.09525609 2172706
0.38000003 -0.00076649763 0.092055082 2370337
0.37833333 0.00027042362 0.098292015 10395023
0.38386664 0.00485864 0.094634332 12500917
0.38858828 0.011096365 0.095684983 13093312
0.39307037 0.016144007 0.095478818 13159363
0.40019998 0.019429455 0.092544839 12633277
0.39687502 0.021151481 0.098462567 13356999
0.40279588 0.024677007 0.09656848 12830657
0.40800002 0.031014867 0.098997273 12698814
0.41000003 0.032766599 0.099802494 12633277
0.3980625 -0.051299859 0.10796148 13156021
0.40198106 -0.054082647 0.10560717 13090486
0.39430422 -0.044513341 0.10510422 13222071
0.40000001 -0.049500015 0.10251852 13222073
0.38724497 -0.034127392 0.10556412 12498860
0.39104354 -0.03832262 0.10254813 13090998
0.37827274 -0.020688163 0.10564189 5789518
0.38334534 -0.025853215 0.10489463 11183000
0.37289989 -0.014643094 0.10520088 2041632
0.37215579 -0.0051823384 0.10503273 2106914
0.37634376 0.0011990658 0.10488022 12435380
0.38386488 0.0066040559 0.10507109 12895674
0.38808337 0.012136343 0.10518748 13027262
0.39135945 0.017208187 0.10456765 13158848
0.39518744 0.022815725 0.10541645 13356484
0.40261295 0.028256839 0.10489613 13356742
0.40717787 0.032438774 0.10580572 13356743
0.4130218 0.037258819 0.10546982 13027779
0.41747621 0.041091114 0.10548414 12567485
0.42318189 0.045762025 0.10737955 12304057
0.4265455 0.052792348 0.10846034 12040371
0.41500002 -0.072212026 0.11872454 12893619
0.42150003 -0.076336339 0.11888362 13222071
0.40606678 -0.06364689 0.11652376 12893106
0.4121429 -0.066849388 0.11478893 13156279
0.39662713 -0.052848089 0.11555291 12827313
0.40113321 -0.057468731 0.11456515 12827313
0.38837504 -0.041896861 0.11649829 13485756
0.39225006 -0.046430074 0.11433236 12959156
0.38525918 -0.035140146 0.11507442 12564654
0.37694746 -0.021616345 0.11509052 7697518
0.38158143 -0.026533227 0.11480656 11183000
0.36821976 -0.013389017 0.11571668 1646874
0.3714667 -0.017276714 0.11372539 2041377
0.36810917 -0.0053179255 0.11580605 2304549
0.37039128 -0.0037229573 0.11146092 2042404
0.3682 0.00046433299 0.11910655 12829881
0.37739998 0.001359709 0.111127 12239545
0.38350612 0.0062638391 0.11502675 12830138
0.387631 0.012856494 0.11530874 13093053
0.39113343 0.017953493 0.1147223 13224641
0.39574385 0.023593264 0.11510687 13422020
0.40037036 0.028526235 0.11498712 13356484
0.40599006 0.034629866 0.11534072 13487814
0.41050005 0.039053276 0.11181512 13553609
0.40900001 0.040346488 0.11966608 13422277
0.41407815 0.043630566 0.11608795 13553609
0.42300007 0.047903918 0.11382309 13356231
0.42505774 0.052458994 0.11518344 13159109
0.43353847 0.058150854 0.1152995 12633021
0.43855557 0.061172135 0.1167936 12369849
0.44346666 0.065005451 0.1183289 12369592
0.45100003 -0.10015483 0.12984294 13551036
0.43825001 -0.090654425 0.12796542 13222071
0.44311771 -0.093342692 0.12781279 13287864
0.45033336 -0.098601393 0.12894791 13354170
0.42658338 -0.081669278 0.12721898 12958899
0.43382508 -0.086011223 0.12658757 13156278
0.44422224 -0.087901533 0.12372928 13222584
0.40900001 -0.070720769 0.1287621 12498348
0.41476598 -0.073895119 0.12459419 12827313
0.42173687 -0.078172043 0.12478939 12959155
0.39900002 -0.060585063 0.12981719 12696240
0.40486661 -0.06501887 0.12497351 12761776
0.41000003 -0.069933861 0.1218783 12827313
0.39474028 -0.054326657 0.1252583 12630704
0.40030771 -0.059197843 0.12281658 12827570
0.38732955 -0.043962002 0.12539001 12499119
0.39110717 -0.048236996 0.12302756 12893619
0.38291919 -0.034795184 0.12503076 12104104
0.37705001 -0.023451643 0.12512973 9605256
0.38051918 -0.027612638 0.12440288 10985879
0.36600697 -0.014432725 0.12538821 1843739
0.37064284 -0.019341158 0.12368868 2040093
0.36575201 -0.0050789351 0.12493385 2434847
0.36733338 0.00040630714 0.12380376 12303022
0.37469569 0.0034883653 0.12458518 12501173
0.38250878 0.0075881355 0.12479366 12830139
0.38664153 0.014097277 0.12504184 13027262
0.39031249 0.019086484 0.12401844 13224639
0.39494568 0.024021173 0.12464095 13290433
0.40000007 0.02907306 0.12460921 13356226
0.40404469 0.034654748 0.12486314 13356226
0.40862498 0.040668555 0.12559339 13290690
0.41368496 0.045264047 0.12454867 13422277
0.41849998 0.050223693 0.12354735 13619656
0.42323998 0.054907635 0.12517661 13685449
0.43100005 0.058861703 0.12185861 13685195
0.42822224 0.060622029 0.12796204 13751242
0.43441665 0.064180307 0.12585072 13685450
0.44364288 0.066916473 0.12275006 13093058
0.43900001 0.070026264 0.12895739 13685449
0.44715559 0.074144572 0.12691392 13027519
0.45038891 0.075122714 0.123867 11711405
0.44900003 0.080030344 0.12926714 12632759
0.44877782 -0.10117909 0.13725729 12564141
0.45223999 -0.10343776 0.13532013 13222072
0.43631038 -0.091930263 0.13462475 12629934
0.44381091 -0.09676718 0.13402319 13024692
0.45000002 -0.099932753 0.13060848 13419450
0.42667568 -0.083527811 0.13550062 12038053
0.43118522 -0.087681279 0.13374084 12498348
0.40847057 -0.071079798 0.1340781 12103846
0.41395006 -0.075000241 0.13446085 12103590
0.42072728 -0.079195924 0.13500665 11972260
0.39860007 -0.061318051 0.135425 11644580
0.40265667 -0.065764651 0.13378449 12367532
0.39542863 -0.056072976 0.13336906 11973288
0.3880626 -0.044829745 0.13222025 10723479
0.38285181 -0.03471138 0.13133262 9933194
0.3646667 -0.020370467 0.13187726 1251343
0.37740004 -0.025091918 0.13097432 9802892
0.38020003 -0.02889283 0.13099837 10854808
0.36478493 -0.015091347 0.13327678 1581336
0.3705 -0.013756957 0.13886738 528393
0.36432865 -0.0047062221 0.13305642 2040346
0.3705 -0.0081209568 0.13875881 265478
0.38190001 0.0081721246 0.13095872 12764348
0.38710001 0.015360268 0.13128904 12171953
0.39000002 0.019299267 0.13099746 12106160
0.39548391 0.023764456 0.13243432 11974574
0.4001905 0.028190741 0.13435446 11382438
0.40277934 0.034253113 0.13340046 11777453
0.40766668 0.04053412 0.13167869 12501174
0.41655999 0.04664094 0.13342242 12632504
0.42000005 0.049156964 0.13636874 12303796
0.42331183 0.055101242 0.13468863 12895676
0.42808339 0.061813954 0.1350618 13158848
0.43281034 0.066601604 0.1344863 13356484
0.4381364 0.07161469 0.13615905 13356484
0.44440678 0.0764715 0.13439333 13619657
0.449 0.081524037 0.13524191 13554121
0.45194289 0.085970782 0.13679598 13554120
0.45400003 0.090486944 0.13814639 13751755
0.44900003 -0.1007618 0.14293164 11116695
0.45125002 -0.10364404 0.14127061 11774625
0.44333336 -0.096379697 0.14112775 11379867
0.42653337 -0.083479725 0.14116864 11051416
0.417 -0.076498151 0.14055462 10590353
0.42100003 -0.078709118 0.1409173 10854036
0.36122227 -0.021774374 0.1484841 3224878
0.37269238 -0.021288428 0.14421166 5132620
0.3624 -0.018378995 0.14946231 923406
0.37304312 -0.014740186 0.14534779 791564
0.36851862 -0.0027246203 0.14852773 1380618
0.37146878 -0.0061249244 0.14507757 527880
0.36766669 0.00011909419 0.14888619 3935493
0.43300003 0.067549869 0.14037129 12369332
0.43650001 0.071674705 0.14048351 12698297
0.4434 0.07676328 0.14114478 13224897
0.44900006 0.081682093 0.14218085 13027519
0.45161536 0.085991062 0.14233871 13093312
0.45400003 0.090486944 0.14133485 13553863
0.36053133 -0.022077024 0.15455791 2040604
0.35878953 -0.013102277 0.15881903 923408
0.36160848 -0.014687023 0.15421776 1186064
0.37141666 -0.013649949 0.15025944 594184
0.3589091 -0.0086674541 0.15901297 923408
0.36298615 -0.0055618128 0.15425242 987915
0.37066671 -0.0091355387 0.15039055 528135
0.34488639 -0.022254478 0.16780481 1318166
0.35900003 -0.020053925 0.16806889 330758
0.36156613 -0.021939555 0.16459115 988174
0.34553137 -0.01485147 0.16781972 989715
0.35580534 -0.014194282 0.16456999 1120530
0.36050007 -0.018269921 0.16307484 1186321
0.3456915 -0.005621755 0.16819395 1120531
0.35593691 -0.0062529505 0.16512938 1054225
0.36031038 -0.0039249351 0.16207911 922895
0.35250002 0.00093939027 0.1679135 5790551
0.33749026 -0.022432255 0.17737287 1383445
0.34134993 -0.023090754 0.1727583 1778202
0.33745635 -0.015220062 0.1775974 1252372
0.3410908 -0.014862452 0.17265196 1383446
0.33798036 -0.0063283653 0.17837816 1186065
0.34132752 -0.0055228518 0.17327677 1251860
0.33343208 -0.022182968 0.18373483 1318165
0.33352667 -0.014875763 0.18382435 1252373
0.33408135 -0.005338571 0.18337734 1186323
0.7924 0.1267695 0.27933007 9934989
0.79213041 0.13490024 0.27723482 10066575
0.78840005 0.11653189 0.28751704 9737611
0.79025 0.11819296 0.28301209 9803403
0.78863621 0.12504299 0.28730118 9869196
0.7903077 0.12521054 0.28260589 9934989
0.78900003 0.1323206 0.28810623 9935246
0.79023808 0.13583203 0.284329 10066575
0.79314816 0.14515871 0.28514937 10000782
0.78713328 0.11634462 0.2947965 9671817
0.78786671 0.12475443 0.29507068 9803403
0.78890914 0.13272524 0.29462105 9934989
0.79031253 0.13705088 0.2952933 10000782
0.78850007 0.11716234 0.30238414 9606283
0.79000002 0.11861777 0.30789012 9672076
0.78880006 0.12410097 0.30256012 9672076
0.79053336 0.12597717 0.30742016 9803662
0.78900003 0.13139705 0.30103567 9869455
0.79183996 0.13587654 0.3057541 9869453
0.79100001 0.11876791 0.31105748 9803662
0.79109102 0.12576875 0.31471244 9737868
0.79199994 0.13500938 0.31515735 9803662
0.78825009 0.11835501 0.32566029 9737867
0.7885555 0.12455498 0.32520521 9737868
0.79039997 0.12829986 0.32155275 9803660
0.78900003 0.13139705 0.3278181 9737868
0.79042876 0.13560101 0.32444587 9803661
0.7926538 0.14485516 0.32491174 9869454
0.78833336 0.12531121 0.33294645 9803660
0.79000002 0.12786478 0.33840528 9803662
0.78900003 0.13139705 0.3305887 9869453
0.79141665 0.13566114 0.33546343 9869454
0.79311532 0.14543676 0.33474112 9803661
0.79161906 0.12512721 0.34448528 9672076
0.77600002 0.11651567 0.35965768 9540490
0.7847501 0.11874482 0.35911244 9606540
0.78800005 0.12329869 0.35912997 9606796
0.79171425 0.12496441 0.35449222 9606540
0.79282337 0.1350933 0.3551684 9672333
0.77499998 0.11890507 0.36209473 9606283
0.77645457 0.12335968 0.36399686 9606283
0.78418744 0.12646852 0.36206976 9672076
0.78745461 0.13374044 0.36588496 9672332
0.79040003 0.13718192 0.36263034 9672333
0.78723806 0.13540955 0.37416959 9672076
0.79111123 0.14464681 0.37482238 9737869
0.79279989 0.19513252 0.37486693 9869455
0.78900003 0.13509119 0.38353786 9672076
0.7906 0.13684605 0.38715464 9606283
0.79140747 0.14497446 0.38491401 9672076
0.79233313 0.15513954 0.38484865 9672076
0.79249978 0.1848536 0.38492826 9803662
0.79140627 0.19513547 0.38462773 9803662
0.79115635 0.20491467 0.38427457 9803662
0.79273093 0.21424529 0.38475329 9540235
0.78871429 0.13609791 0.39522415 9475467
0.7902 0.13751686 0.39102715 9606283
0.78899997 0.14446858 0.39679882 9409674
0.79070592 0.14551009 0.39314914 9606539
0.78900003 0.15479319 0.39862218 9475467
0.79107136 0.15515514 0.39415434 9606540
0.78900003 0.16187359 0.39893001 9606283
0.79100007 0.16526011 0.39497831 9540747
0.79164284 0.17426424 0.39530092 9606540
0.79209989 0.18476115 0.3949357 9737869
0.79090029 0.19552666 0.39439961 9737869
0.79041976 0.20517129 0.39511275 9803662
0.79160011 0.21429594 0.39468616 9475217
0.78800005 0.13722587 0.40257505 9409417
0.78703344 0.14599143 0.40431845 9541003
0.7866562 0.15477598 0.40458861 9541003
0.78855997 0.16403653 0.4049094 9606283
0.79000002 0.16855168 0.40220976 9606283
0.78900003 0.17018539 0.40816534 9672076
0.79085195 0.1748382 0.40500781 9672333
0.79248554 0.18498468 0.40519667 9672333
0.79249996 0.19470133 0.40498167 9737869
0.79204333 0.20494255 0.40474302 9737870
0.79244429 0.21503849 0.40493265 8223350
0.79170001 0.22247548 0.40733719 2760986
0.78900003 0.13804649 0.41333714 9474954
0.79000002 0.13748169 0.41903934 9343881
0.78813785 0.14493085 0.41522902 9409674
0.78773916 0.15540154 0.41521305 9540490
0.7888124 0.16379771 0.41326213 9606283
0.79000002 0.16614744 0.41718993 9672076
0.79043353 0.17512135 0.41445854 9672076
0.79092008 0.1854129 0.41471255 9672076
0.79232138 0.19521503 0.41485104 9672076
0.79185718 0.22323428 0.4142786 2629909
0.78900003 0.13601473 0.42848301 9409674
0.79000002 0.13849886 0.42394024 9540746
0.78900003 0.14548092 0.42155659 9540490
0.79000002 0.14462501 0.42671436 9540490
0.78900003 0.15448534 0.42109478 9606283
0.790591 0.1546296 0.42598298 9606283
0.79168171 0.1654575 0.42488635 9540234
0.79178566 0.1750879 0.4242382 9606284
0.79148144 0.18513177 0.42447928 9671821
0.79203987 0.19494563 0.42457131 9606285
0.78892314 0.13706717 0.4334138 9343881
0.78900003 0.14124806 0.4331007 9409417
0.79010534 0.14550252 0.43492448 9409417
0.79212892 0.1550703 0.43502837 9474954
0.79199988 0.18473814 0.43474758 9540492
0.79209989 0.19496068 0.43480271 9671821
0.79000002 0.13822146 0.44160205 9343881
0.7914167 0.14492531 0.44446507 9343881
0.79226655 0.18479916 0.44509503 9409420
0.79259992 0.19508366 0.44528243 9540492
