# .PCD v0.7 - Point Cloud Data file format
VERSION 0.7
FIELDS x y z rgb
SIZE 4 4 4 4
TYPE F F F U
COUNT 1 1 1 1
WIDTH 1156
HEIGHT 1
VIEWPOINT 0 0 0 1 0 0 0
POINTS 1156
DATA ascii
0.48700002 -0.1104296 -0.060446005 15854824
0.48733333 -0.10289767 -0.060487378 16183789
0.48899999 -0.09600126 -0.060694244 16249582
0.49000001 -0.092182726 -0.060818363 16184046
0.48900002 -0.08386682 -0.06069424 16052971
0.49000001 -0.087403148 -0.060818363 16118509
0.48846668 -0.075314015 -0.061085951 16315885
0.48847052 -0.064954989 -0.06116724 15986664
0.48799998 -0.054677937 -0.061141331 16118249
0.48774996 -0.044945527 -0.061110307 16052456
0.48805881 -0.035527285 -0.061115447 15591906
0.49000001 -0.030812947 -0.061965462 14868183
0.48900002 -0.02731579 -0.06069424 15526113
0.48999992 -0.024195071 -0.061612509 15197148
0.48875001 -0.011856373 -0.060663216 15000025
0.49014282 -0.015578057 -0.061573856 15065562
0.48857141 -0.0054782447 -0.061131656 14802646
0.48868746 0.0043759313 -0.06115628 14474451
0.49000001 0.0076148622 -0.061965462 14408660
0.48850003 0.015023699 -0.061041027 14342866
0.49000001 0.011056159 -0.061965462 14540247
0.48799995 0.02477196 -0.060777843 14408659
0.4872857 0.034867115 -0.060481466 14474708
0.48833334 0.043982819 -0.060738429 14145485
0.49000001 0.054072361 -0.060818363 11711145
0.48552382 -0.15320417 -0.054393072 16249325
0.48503238 -0.14476101 -0.054639369 16446702
0.48534837 -0.13487729 -0.054894388 16315629
0.48517394 -0.1249951 -0.055125684 16381422
0.48420301 -0.1149705 -0.054983094 16447216
0.48406956 -0.10494532 -0.054993466 16447472
0.48546499 -0.095079772 -0.055210039 16447216
0.47900003 -0.081142545 -0.050482273 16249836
0.48481548 -0.085278481 -0.055159923 16315373
0.47857141 -0.076026388 -0.050437111 16118249
0.48435384 -0.074903034 -0.055454794 16249834
0.4848474 -0.06496191 -0.055083696 16315370
0.48462328 -0.054939833 -0.055032764 16249834
0.48411423 -0.045047041 -0.054902457 16052456
0.48470843 -0.035016853 -0.055066712 15920871
0.48547891 -0.024845045 -0.055211917 15460320
0.48558572 -0.014750308 -0.05526495 15197148
0.48531815 -0.0051086675 -0.055032458 14999769
0.48534721 0.0047023315 -0.055138741 14539474
0.48559734 0.014935749 -0.055165548 14276559
0.48561108 0.025167443 -0.055165015 14342351
0.48611945 0.035097256 -0.055092316 14605779
0.48720783 0.04487909 -0.054920871 14539986
0.48780885 0.054887921 -0.054034885 14736853
0.48999992 0.05566065 -0.059318304 14474451
0.48806259 0.063892759 -0.052224625 15065560
0.49082848 0.065722078 -0.05672041 14802903
0.48820001 0.075703964 -0.050537936 15197146
0.49117637 0.07449238 -0.054722901 15262941
0.488484 0.085297197 -0.051814906 15197404
0.49022219 0.083169073 -0.055108234 15065819
0.48863161 0.093537413 -0.051377345 15000538
0.49000001 0.096228242 -0.052501898 14408145
0.48833328 0.10464437 -0.050780166 15066078
0.4888334 0.11306993 -0.050565045 14669523
0.49000001 0.11830989 -0.050494473 15196127
0.49000001 0.12117764 -0.050494473 12302014
0.47668576 -0.15339543 -0.04278269 15855080
0.48122221 -0.15305609 -0.048277523 16183789
0.47700003 -0.14491273 -0.042411052 16446959
0.48100001 -0.14510204 -0.047879748 16512753
0.47688898 -0.13480614 -0.042697813 16446701
0.4807187 -0.13524161 -0.048062194 16512495
0.47648281 -0.12500635 -0.043318965 16381166
0.48042852 -0.12516676 -0.048705492 16578801
0.47637513 -0.11510924 -0.044157948 16447216
0.4802857 -0.11557399 -0.049011838 16447215
0.47575822 -0.10509556 -0.044580139 16446959
0.48000002 -0.10547125 -0.049463972 16447215
0.4753226 -0.095146857 -0.044522908 16447214
0.48000002 -0.095358051 -0.049463972 16513008
0.46900001 -0.082193382 -0.040644862 16052455
0.47368747 -0.085024692 -0.044996656 16249835
0.48000002 -0.089177758 -0.049463972 16249836
0.46900004 -0.076703705 -0.040644858 16118248
0.47340298 -0.074824221 -0.045305423 16118248
0.47483593 -0.065192938 -0.044679504 16249834
0.48042864 -0.063949816 -0.049508136 16381420
0.47506568 -0.055143695 -0.044463005 16249834
0.48022223 -0.054932497 -0.049486868 16184041
0.47484389 -0.045174971 -0.044531513 16118249
0.48000002 -0.044792064 -0.049463972 15986664
0.47567761 -0.035245165 -0.044537339 15855077
0.48011112 -0.034686636 -0.049475424 15986664
0.47547621 -0.025286455 -0.044554524 15460319
0.48011112 -0.024570316 -0.049475424 15394527
0.47579631 -0.015438662 -0.044025533 15131610
0.48049998 -0.015029957 -0.04895366 15328734
0.47590747 -0.0054161227 -0.04403545 14934232
0.48050001 -0.0054686526 -0.048953652 15065562
0.47557408 0.0046072262 -0.044004913 14408145
0.48050001 0.0046550799 -0.048953641 14539217
0.47624496 0.014513446 -0.043530803 14210765
0.48067993 0.015369041 -0.048454572 14144973
0.47738886 0.024185246 -0.042026833 14079178
0.48102227 0.02538044 -0.047244262 14144971
0.47880006 0.031315915 -0.040821817 14408143
0.48193431 0.03537219 -0.045423824 14342350
0.48456258 0.044967607 -0.044835027 14408143
0.48534742 0.054695576 -0.044905558 14408143
0.48600018 0.065009743 -0.044964898 14605264
0.4861944 0.075277589 -0.044982627 15065559
0.48600006 0.084997378 -0.044904828 15131353
0.48676065 0.094803207 -0.045093246 15065560
0.48705557 0.10505618 -0.045063779 15657698
0.48727283 0.11495615 -0.044980869 15723233
0.48822227 0.12274972 -0.043412466 15262682
0.49039996 0.12613808 -0.045446552 14539731
0.49251065 0.13464379 -0.043100566 14671576
0.49400002 0.14009203 -0.043967895 8814973
0.47433358 -0.15429428 -0.0348568 15723238
0.47322872 -0.1451003 -0.035020519 16315885
0.47345951 -0.13521573 -0.034851328 16315114
0.47302783 -0.12498244 -0.034907594 16249322
0.47157323 -0.11489639 -0.03544382 16184043
0.47058749 -0.10517941 -0.035264708 16118249
0.46873912 -0.092644595 -0.032989513 15920613
0.47028056 -0.09628582 -0.036083601 15986663
0.46615782 -0.084773287 -0.034677766 16052455
0.47000003 -0.087870032 -0.039631248 16184041
0.46479258 -0.07484591 -0.034999494 15986662
0.46482432 -0.065122388 -0.034312982 16052455
0.47000006 -0.063786164 -0.039508995 16118248
0.46477467 -0.054907363 -0.034224737 15921125
0.47000009 -0.055561863 -0.039431199 16118248
0.46559429 -0.045261059 -0.033947229 15855076
0.47018763 -0.04380675 -0.039028157 16052199
0.46579999 -0.034841891 -0.033238631 15723490
0.47033346 -0.035081532 -0.038559083 15855076
0.4658688 -0.024808569 -0.033732228 15263196
0.4704501 -0.025563341 -0.038954012 15328732
0.46593121 -0.015306576 -0.033560477 15065561
0.47073925 -0.01479563 -0.038784441 15065560
0.46675929 -0.0053116162 -0.033355698 14868439
0.47100011 -0.0053605321 -0.038614508 14999769
0.46705362 0.0047393902 -0.033239052 14408144
0.47053578 0.0047143074 -0.038497385 14407631
0.46779999 0.014514812 -0.032408502 14079178
0.4713479 0.015122473 -0.037158079 14078922
0.4688572 0.022417961 -0.031224595 13947592
0.47269368 0.02524869 -0.035298295 13947592
0.47613561 0.034296867 -0.034296546 14079178
0.4804 0.038018618 -0.037884694 14473936
0.47838467 0.042368375 -0.031207563 14342350
0.48119137 0.045713387 -0.035625611 14473679
0.48227033 0.055052008 -0.034920253 14473165
0.48408884 0.064869337 -0.035258222 14736594
0.48395076 0.074928634 -0.035149273 15131095
0.48312321 0.084981218 -0.035089348 15065558
0.48332039 0.095026307 -0.034972973 14802130
0.4839873 0.1050243 -0.035138596 15526110
0.4844937 0.1149495 -0.035336155 15526109
0.48659703 0.1247009 -0.035015114 14934229
0.49000001 0.12978087 -0.039023485 15264222
0.48829409 0.13175064 -0.033038665 14803673
0.4909786 0.136205 -0.035753328 14474710
0.49190003 0.14162704 -0.034800719 10197913
0.46900001 -0.15081447 -0.020881986 15657699
0.47129998 -0.1538302 -0.02602189 15196894
0.46899995 -0.14460246 -0.021575419 15855078
0.47019359 -0.1451979 -0.026475487 15986664
0.46899998 -0.13559309 -0.02108161 15986663
0.47061637 -0.13502495 -0.026133675 16051942
0.46899998 -0.12428099 -0.021156467 15789283
0.47085071 -0.12535918 -0.026035391 15920612
0.46892494 -0.11409805 -0.02310198 15921126
0.47000009 -0.11628474 -0.02739065 15855591
0.46880323 -0.10520634 -0.024058899 15855334
0.47000018 -0.10547449 -0.029013563 15855848
0.46701312 -0.09474095 -0.024913689 15657440
0.47000003 -0.099092878 -0.029288629 16118248
0.45900002 -0.080440864 -0.022227621 15197147
0.46271646 -0.085156381 -0.025149232 15657697
0.45781249 -0.074726969 -0.023921771 15657697
0.46033335 -0.076509394 -0.028542811 15789796
0.45591551 -0.064868808 -0.02447948 15986662
0.46000001 -0.069308996 -0.029096212 16052968
0.4549036 -0.054868381 -0.024570178 15855332
0.45482898 -0.044974413 -0.023837376 15723745
0.46030003 -0.04467601 -0.029007504 15789539
0.45623806 -0.035095431 -0.023526873 15657953
0.46085715 -0.034680832 -0.028534742 15723490
0.45675758 -0.024784816 -0.023358235 15262939
0.46104759 -0.025137667 -0.028392842 15328732
0.4566851 -0.014818286 -0.023013495 14999767
0.46129626 -0.01496731 -0.028100384 15000024
0.45739132 -0.0054609715 -0.02260481 14736852
0.46217135 -0.0049206708 -0.027630027 14802901
0.45778263 0.0046923026 -0.022343038 14276557
0.46238616 0.0053168279 -0.027381681 14342350
0.45883343 0.013814707 -0.021265063 14013385
0.46287295 0.015717072 -0.025949344 13881799
0.46570674 0.024942357 -0.024815153 13816006
0.47016668 0.029136829 -0.029005764 13882056
0.46840906 0.033049945 -0.022501731 13881799
0.47157151 0.035797421 -0.026092831 14013385
0.47549284 0.044878751 -0.025194848 14276557
0.47707024 0.054255947 -0.023283377 14473934
0.48041663 0.056764945 -0.027904481 14408141
0.47885722 0.061811175 -0.02084063 14737106
0.48077795 0.065638632 -0.025051964 14868179
0.48090801 0.075021446 -0.024792802 15130838
0.48068058 0.084394954 -0.024545576 15065301
0.48095077 0.09473335 -0.024793964 14933202
0.48119769 0.10491981 -0.024806606 15328731
0.48133346 0.11491793 -0.024683852 15394526
0.48460001 0.12501885 -0.024966456 14408145
0.48790008 0.13352221 -0.024967032 14079696
0.48999989 0.13819295 -0.0264054 10723997
0.49033335 0.14058323 -0.027572019 7565932
0.46895826 -0.15301974 -0.015345576 15459808
0.47000003 -0.15572055 -0.019459473 14604759
0.46804947 -0.14484803 -0.015365844 15855078
0.46783933 -0.13492477 -0.01535993 15986663
0.46774381 -0.12498523 -0.01533006 15920612
0.46663722 -0.11485305 -0.015348382 15920612
0.46603793 -0.10506909 -0.015316482 15985890
0.46407527 -0.095036477 -0.015221363 15854305
0.45840621 -0.082383513 -0.013973531 15525340
0.46125004 -0.086702891 -0.015877021 15722976
0.45439199 -0.07498394 -0.014818439 15460061
0.44827273 -0.06370452 -0.013092698 15526111
0.45121622 -0.066803023 -0.016752895 15591903
0.44683143 -0.054866876 -0.014650064 15657953
0.45000002 -0.058847889 -0.018982563 15855587
0.44666666 -0.045313537 -0.014187679 15592416
0.45028573 -0.042620864 -0.018693628 15592415
0.44710007 -0.035196662 -0.013145301 15461087
0.45140001 -0.034688838 -0.01791637 15526624
0.44722214 -0.024982426 -0.012588758 15066073
0.45202628 -0.02497104 -0.017540405 15131609
0.44763833 -0.015283007 -0.012465765 14868694
0.45219514 -0.014697633 -0.01724603 14933974
0.44822237 -0.005101034 -0.012089295 14605522
0.45262235 -0.0051512667 -0.016978562 14605522
0.44866678 0.0039279494 -0.011749696 14144971
0.4526501 0.0053922585 -0.016362926 14144971
0.44900003 0.010656611 -0.010531444 13881799
0.45529994 0.015131134 -0.015006672 13816006
0.45805258 0.022979397 -0.013484742 13684420
0.46199998 0.026664617 -0.016549211 13816263
0.46579465 0.034649916 -0.01495021 13882055
0.47000003 0.039074592 -0.01858842 14210763
0.46872729 0.041849617 -0.012291505 14079177
0.4711791 0.045726132 -0.015830485 14276043
0.47451484 0.055096455 -0.014972826 14407885
0.47719005 0.064865567 -0.014437685 14736593
0.48000002 0.068700492 -0.019124379 14868179
0.47795835 0.075122543 -0.014012799 14999251
0.48000002 0.07544262 -0.019124379 14999765
0.47857171 0.085206054 -0.01391581 14867921
0.48000002 0.085306108 -0.018999524 15065301
0.47882363 0.094929755 -0.012858247 14605007
0.47999981 0.095377684 -0.017834218 14736593
0.47900003 0.10331915 -0.010487538 15000280
0.48001441 0.10507498 -0.015324251 15197401
0.479 0.11116859 -0.010113756 15460831
0.48033312 0.11498218 -0.01481467 15394525
0.48281968 0.12506241 -0.014718288 14276558
0.48730916 0.13429815 -0.015081898 11842476
0.46653071 -0.15308718 -0.0054480694 15262686
0.46479329 -0.14505355 -0.00494111 15723491
0.46443191 -0.1350563 -0.0048312475 15986662
0.46414465 -0.12491473 -0.0049160528 16117734
0.46323892 -0.11501214 -0.0049827578 15986147
0.45900005 -0.10311339 -0.00045053544 15986148
0.46189737 -0.105348 -0.0054914239 15985890
0.45865905 -0.094267935 -0.0024622316 15855074
0.46093467 -0.095935188 -0.0071786284 15920097
0.45559525 -0.084892057 -0.0046127005 15854561
0.46000001 -0.089231059 -0.0097125834 15854304
0.44851619 -0.072473772 -0.0030705975 15591646
0.4518728 -0.076368816 -0.0059668873 15460060
0.44503343 -0.064873867 -0.0047165398 15328475
0.43832359 -0.053429395 -0.0020742407 15394525
0.44161403 -0.05572037 -0.0061924653 15394782
0.4372279 -0.045163434 -0.0025038079 15526624
0.44137487 -0.044803701 -0.0077725016 15526624
0.43736371 -0.035414554 -0.0023522528 15329245
0.44195127 -0.034780946 -0.0074683898 15329502
0.43759999 -0.024955794 -0.0020731583 14934487
0.44226006 -0.025222046 -0.0072724912 15065817
0.43794996 -0.01472255 -0.0015602808 14802644
0.44228342 -0.01486914 -0.0067563639 14802901
0.43850008 -0.0053737909 -0.00091874972 14605266
0.44290918 -0.0048979865 -0.006061316 14605523
0.43900007 0.0021976139 -0.00027674821 14079178
0.44403264 0.00505035 -0.0050956798 14013385
0.44636479 0.014437545 -0.0037442711 13750213
0.45150006 0.016943444 -0.0084189186 13816006
0.44840744 0.022929681 -0.0018488413 13618883
0.45370775 0.025625849 -0.005993756 13684677
0.45740429 0.033483412 -0.0033514225 13816263
0.46202493 0.03668423 -0.0067857588 13882312
0.46564642 0.044690553 -0.0047392338 14211020
0.47000003 0.048931256 -0.0091902083 14144971
0.467875 0.054097556 -0.002132724 14408398
0.47089118 0.055679794 -0.0070455358 14276555
0.46900004 0.062263809 -0.00033487237 14933972
0.47256529 0.065234087 -0.0047925003 14868179
0.47506407 0.074840225 -0.004604056 15065557
0.47616068 0.084872119 -0.0044855885 15065299
0.47713602 0.095100559 -0.0044940142 14999766
0.47759497 0.10513806 -0.0044005727 15263451
0.47764948 0.11484825 -0.0043990258 15395038
0.48000002 0.11926647 -0.009011182 15526626
0.47858834 0.12181554 -0.0025935611 14868695
0.48192009 0.12579763 -0.0055053132 13816520
0.48702642 0.13325596 -0.0049420702 12369078
0.49025002 0.13673319 -0.0017427837 5920083
0.46283668 -0.15291272 0.0054596169 15262429
0.46248165 -0.14492884 0.0053868997 15920613
0.4621729 -0.13509677 0.0053824913 16051941
0.45896289 -0.12341217 0.0081369448 15920356
0.46107548 -0.1256927 0.0038656252 16183270
0.45869482 -0.11451314 0.00671174 16117991
0.46023813 -0.116316 0.0020309552 16183269
0.457421 -0.10496569 0.0052417405 15855076
0.46000001 -0.10969155 0.0010560985 15130583
0.44900003 -0.091301747 0.0094397804 15855076
0.45438173 -0.095226869 0.0051336987 15920612
0.447943 -0.083898582 0.0074974536 15854819
0.45197687 -0.085979536 0.0034211066 15855075
0.44519484 -0.074929036 0.0052898126 15657183
0.45000002 -0.079390317 0.0015598689 15855074
0.43823537 -0.063165568 0.0069183707 15394268
0.44136164 -0.066316612 0.0038228272 15656926
0.43474388 -0.054900479 0.0051964466 15262938
0.44000003 -0.059600256 0.0010101813 14539216
0.42833331 -0.042700715 0.0087252716 15394780
0.43180004 -0.045228038 0.0043396684 15394780
0.42760611 -0.035502777 0.0087751886 15263452
0.43190902 -0.034558449 0.0038342052 15263196
0.42796674 -0.025409374 0.0089959363 14868694
0.43230879 -0.024787987 0.0039457856 14934487
0.42808694 -0.016287036 0.0091294711 14671572
0.43244594 -0.014769199 0.0042802617 14737108
0.42899999 -0.0073932637 0.0090193003 14737108
0.432825 -0.0050508026 0.0048567127 14408399
0.43524134 0.0045868726 0.0051914812 13750726
0.44000003 0.0090696067 0.0013535306 13750726
0.4382858 0.012456477 0.0071603642 13421505
0.44195169 0.016317477 0.0042136619 13421505
0.44534624 0.025027663 0.0053305295 13618883
0.45033336 0.029313395 0.0013850579 13750726
0.44847369 0.032472264 0.007990961 13947592
0.45317751 0.035880551 0.0044203359 13882056
0.456541 0.044339541 0.0062613348 14144971
0.46129411 0.047285542 0.0025180748 14211277
0.45827991 0.054306775 0.0086036175 14539729
0.46335718 0.055200972 0.0039231507 14605521
0.45900002 0.062113088 0.0094709331 14737107
0.46494448 0.065124229 0.0051955748 14868436
0.47000003 0.068919644 0.0010790572 14868179
0.46635994 0.074631482 0.0070898323 14933716
0.47092602 0.075733609 0.0024271819 15131351
0.468375 0.082525417 0.0084068086 15064788
0.47224998 0.085593671 0.0046874788 15196888
0.47424677 0.094884619 0.0054354062 14934230
0.47521242 0.10478324 0.0054818955 15328989
0.47527161 0.1147535 0.0055387164 15526368
0.47613159 0.12241443 0.0055190758 14408658
0.48100001 0.12707745 0.002068477 13750731
0.48743752 0.13267003 0.0055409819 13158594
0.49068186 0.13622805 0.0050940337 10657949
0.45900005 -0.15171784 0.018604416 15262944
0.46078792 -0.15302795 0.014293313 14867927
0.45880842 -0.14432709 0.016935175 15854820
0.46026477 -0.14604184 0.012401418 15657698
0.458388 -0.13485429 0.015800111 15986149
0.46000001 -0.13653634 0.011209428 16052456
0.45703802 -0.12514649 0.014855765 15985892
0.45516697 -0.11499667 0.014926818 16051685
0.44886667 -0.10213337 0.018543694 15788513
0.45303082 -0.10553684 0.01433132 15920099
0.44670665 -0.094520979 0.015727455 15591391
0.45083332 -0.097920187 0.011675954 15854563
0.43890005 -0.081439264 0.01847446 15460318
0.44307607 -0.085321926 0.014609697 15722976
0.43701681 -0.074180566 0.016307835 15723232
0.44119993 -0.0764293 0.011855597 15723232
0.42900002 -0.060118839 0.019062268 15656412
0.43446156 -0.06511613 0.014753727 15591645
0.42691526 -0.053882953 0.016795738 15130838
0.43116286 -0.056342024 0.012301747 15131095
0.42448044 -0.045035142 0.015234635 15197146
0.43000001 -0.049185961 0.010046963 15262937
0.41869238 -0.033417467 0.019282609 14868181
0.42259786 -0.035170853 0.014683936 15197146
0.41833341 -0.025654709 0.019240668 14868694
0.42272955 -0.024953306 0.014580763 14802644
0.41858339 -0.016031483 0.019334102 14539729
0.42314437 -0.014995039 0.0146392 14605521
0.42397267 -0.0053203236 0.014849273 14276813
0.4256534 0.0039294837 0.016432239 13750213
0.43079999 0.006193819 0.011821483 13553091
0.42750004 0.011836248 0.018805847 13487041
0.43378645 0.015243283 0.014217566 13355712
0.43676549 0.024206785 0.016252438 13750469
0.44168961 0.026568322 0.012100962 14013385
0.43888891 0.032450031 0.018930726 14144971
0.444305 0.035094492 0.014731349 14079178
0.45000002 0.03859698 0.010514263 13750213
0.44646305 0.044565901 0.017120084 14342350
0.45207906 0.045629282 0.012342442 14276557
0.44800007 0.054444157 0.018435825 14473936
0.45338604 0.05532109 0.013360336 14473936
0.44900003 0.061530679 0.019530505 14539729
0.45533344 0.06496273 0.015103728 14473935
0.46025002 0.068298459 0.011022971 14802642
0.45846424 0.0731325 0.01715008 14342348
0.46176082 0.076057136 0.013628304 14605264
0.46540278 0.084926933 0.015408242 14736850
0.47000003 0.089274801 0.010981563 14868181
0.46765956 0.094282731 0.016955595 14802386
0.47037941 0.095993325 0.012508458 14934229
0.46892306 0.10300362 0.019062806 15263452
0.47149226 0.10523303 0.014729324 15329245
0.47228909 0.11500797 0.015357107 15460575
0.4755677 0.12325419 0.015564455 14145229
0.4808 0.12854575 0.01618625 13751242
0.48495916 0.13398516 0.015055119 10197654
0.45765218 -0.15263911 0.024822108 14802138
0.45562932 -0.14476252 0.025079301 15789027
0.45418176 -0.13488741 0.024959333 15920355
0.44899997 -0.12269511 0.028429963 15723490
0.45236626 -0.12544255 0.023941189 15854819
0.44861364 -0.11480644 0.027283954 15920870
0.45153201 -0.11554468 0.022353565 16183528
0.44639179 -0.10478548 0.025418486 15722720
0.45075002 -0.10867329 0.020951072 15985892
0.43848002 -0.092489339 0.027570784 15262425
0.44219682 -0.095996603 0.024359778 15459548
0.43511394 -0.084564798 0.025084481 15328218
0.44016668 -0.088818841 0.021275587 15394268
0.42700002 -0.073812932 0.02768705 15197144
0.43178183 -0.075618759 0.023057703 15394524
0.42494333 -0.064661667 0.025628798 15460059
0.43033335 -0.06709028 0.020867288 15723488
0.41837502 -0.052142344 0.028873663 15196888
0.42266312 -0.055276565 0.024771558 15394267
0.41650772 -0.044121675 0.026629826 15131352
0.42102957 -0.046219908 0.022359464 15065302
0.41470507 -0.035033811 0.0251639 14934230
0.41403431 -0.024900636 0.025282627 14736851
0.40899998 -0.015187138 0.029663298 14473936
0.41423297 -0.014862748 0.024848385 14473679
0.41493505 -0.0052239043 0.025172768 14079178
0.41609883 0.0040952354 0.02651385 13618627
0.42118198 0.006473423 0.022358064 13552834
0.41822228 0.01232073 0.028808674 13487041
0.42353925 0.015290547 0.024799217 13487041
0.43000001 0.018510424 0.020365 13356225
0.42549229 0.024259312 0.026789438 13816006
0.43176749 0.026025914 0.022190344 13816263
0.42723814 0.033097699 0.028745022 13947592
0.43431172 0.035356496 0.024327075 14144971
0.44000003 0.038769323 0.020581093 14342350
0.43549275 0.044601683 0.026193222 14276557
0.44124004 0.045926031 0.021670451 14342350
0.4374243 0.053984318 0.028153474 14210506
0.44293228 0.055506531 0.023610068 14276557
0.4456338 0.064317293 0.025814202 14144970
0.45160002 0.067878798 0.021685064 14342350
0.44866666 0.072006777 0.028425844 14144969
0.45439437 0.075378053 0.024509694 14276300
0.46000001 0.079478301 0.020798683 14539470
0.45760003 0.083678633 0.027430452 14671315
0.46188644 0.086040489 0.023271741 14605007
0.45900002 0.090408966 0.028991513 14737108
0.46361548 0.094980054 0.024836481 14736850
0.46608874 0.10501334 0.024968771 15131609
0.46794111 0.11395297 0.026394691 15394525
0.47022742 0.11698923 0.022644931 15394782
0.4745819 0.12433395 0.02536355 14013899
0.48042855 0.12917414 0.021989565 13685448
0.47900003 0.13023148 0.029133411 13619147
0.48241073 0.13439165 0.024213234 7565163
0.45435143 -0.15244333 0.035135001 14210512
0.44900003 -0.14122981 0.039922178 15722720
0.45283118 -0.14519876 0.034888018 15591392
0.44884622 -0.13397503 0.037806388 15722978
0.45109612 -0.13596056 0.033403281 15788769
0.44727156 -0.12470574 0.035327319 15723234
0.4501667 -0.12877522 0.031243579 15657183
0.44462639 -0.1149269 0.034833662 15789026
0.43858832 -0.1017477 0.038089219 15327961
0.44211435 -0.10575505 0.034231674 15656927
0.43581474 -0.094724968 0.035253301 15262169
0.44 -0.099360101 0.03170561 15525341
0.42738646 -0.08256536 0.036130272 14998996
0.43106532 -0.086758301 0.034046467 14998997
0.41900003 -0.070978552 0.039216544 14933204
0.42368889 -0.075108342 0.034996029 14999252
0.41715515 -0.063800342 0.036783542 15130838
0.42086059 -0.066380434 0.032813344 15065303
0.41479227 -0.054778919 0.035098583 15196631
0.42000002 -0.059103414 0.030706896 15130840
0.40831584 -0.043261282 0.037434712 14999509
0.41217917 -0.045956343 0.033429928 15131094
0.4069041 -0.034895007 0.035913341 14868179
0.41015384 -0.035690304 0.03092866 14868179
0.40600967 -0.024960613 0.035458382 14473679
0.41000006 -0.02674208 0.030695645 14605522
0.4051902 -0.015046943 0.035061676 14342349
0.405577 -0.0052714925 0.035351556 14013384
0.41033337 -0.0019478602 0.03104054 13816006
0.40691561 0.0046282788 0.036990583 13618370
0.41202039 0.005944584 0.032260355 13553347
0.40832004 0.013211249 0.038483251 13552834
0.41410846 0.015471469 0.034001797 13552834
0.41999999 0.018817369 0.03046109 13487041
0.41546917 0.024563272 0.0363173 13750213
0.42106909 0.026344981 0.031692978 13816006
0.41737503 0.033113994 0.038237046 13881801
0.42310813 0.035812579 0.033927955 13947592
0.42519102 0.044696614 0.035622057 14013385
0.43041179 0.04643181 0.030800894 14144971
0.42721623 0.052822236 0.037305523 13947591
0.43261024 0.05598183 0.033751514 14079177
0.43623802 0.064061947 0.03631521 13881797
0.44227582 0.06712535 0.032252256 13947590
0.43900001 0.070368834 0.038690474 13816004
0.4462153 0.074799336 0.035084788 14210762
0.4507778 0.078589112 0.031988382 14144969
0.44869232 0.08159171 0.038358752 14408141
0.45360565 0.085463688 0.034474485 14539727
0.45693159 0.094517007 0.035548933 14539472
0.46039999 0.097008899 0.031019395 14802644
0.45865783 0.10404707 0.03758695 14868694
0.46175995 0.10578558 0.033095758 15000280
0.4642401 0.11480567 0.034980156 15197659
0.46794447 0.12150566 0.035943411 13553348
0.47325003 0.12648173 0.034525577 13487813
0.47675866 0.13235624 0.03518755 9079429
0.48025003 0.13422625 0.030896142 6052696
0.44899997 -0.15095264 0.046820138 14538708
0.45142862 -0.15127817 0.041343067 14669779
0.44871995 -0.14458092 0.045456082 15525344
0.45050004 -0.14715171 0.040758241 15262171
0.44696295 -0.13496979 0.04509582 15525600
0.43900001 -0.12087029 0.049053181 15591136
0.44303629 -0.12514427 0.04493295 15591135
0.43807685 -0.11391304 0.046875481 15525341
0.44078037 -0.11595786 0.042385697 15591134
0.43574721 -0.10510108 0.045199733 15328219
0.44000003 -0.10801252 0.040152002 15591134
0.42773914 -0.092203908 0.047824781 14933718
0.43166196 -0.095736556 0.044181082 15130840
0.42475584 -0.084853768 0.045249548 14867924
0.43000001 -0.089048818 0.041051403 15130583
0.41744447 -0.073765308 0.045751687 14736338
0.42084858 -0.077606827 0.043328423 14801875
0.40887496 -0.060768552 0.048677929 14998997
0.41364279 -0.065365911 0.044811931 14801618
0.40733355 -0.054109998 0.046051998 14867668
0.41109088 -0.05682395 0.042061873 15065045
0.39900002 -0.040346961 0.049176138 14802388
0.40425652 -0.045148455 0.045035414 14933973
0.39766672 -0.03398262 0.047949567 14605265
0.40215781 -0.035422739 0.043479115 14736851
0.39648271 -0.024625044 0.046778489 14407887
0.40097603 -0.025530349 0.041863542 14473680
0.39600947 -0.01476665 0.045939367 14276044
0.40023994 -0.01478807 0.040908348 14342350
0.3963069 -0.0052042822 0.046518769 13816006
0.40039384 -0.0045567392 0.041422337 13816006
0.39717549 0.0038664779 0.047707085 13618627
0.40137139 0.0053827544 0.04301165 13618627
0.39866671 0.011484634 0.049134791 13487041
0.40390521 0.015264201 0.044902012 13421248
0.40661129 0.024418971 0.046011075 13552834
0.4112857 0.026509557 0.041759498 13684420
0.4084667 0.033059821 0.047951285 13487041
0.41303658 0.035806764 0.043895278 13618627
0.41649351 0.044142332 0.045736816 13618626
0.42088473 0.047242299 0.04204414 13750213
0.41839999 0.050480999 0.049150445 13223867
0.42345265 0.055147752 0.04495481 13750212
0.43000001 0.05953091 0.040246092 14276555
0.42705882 0.06265378 0.0469644 13684675
0.43196613 0.066234872 0.043954305 13618626
0.43640348 0.073559955 0.046071611 13881797
0.44181818 0.077342011 0.043228868 14210506
0.44576314 0.084663875 0.04559793 14144456
0.45045453 0.088151164 0.041392908 14605007
0.44868425 0.092358276 0.047909375 14012871
0.45257574 0.095566921 0.044085938 14473679
0.45606995 0.1048846 0.045159549 14671315
0.4585937 0.11274083 0.046644706 14934487
0.46159089 0.11670945 0.043713368 14605781
0.46562505 0.12251195 0.045585297 13619913
0.47159097 0.12816867 0.04553875 13159107
0.47330925 0.13331473 0.045096699 5723470
0.44828582 -0.15153661 0.055145346 14275793
0.44637924 -0.14484781 0.054827597 15394527
0.43900001 -0.13071914 0.059244607 15591135
0.44302362 -0.13516261 0.054986507 15590879
0.43799987 -0.12394678 0.055740464 15591135
0.44072723 -0.12774834 0.052831985 15525600
0.43457133 -0.11502487 0.055052605 15525085
0.42781487 -0.1024261 0.057546064 15130582
0.43159091 -0.1059825 0.054121275 15130839
0.4251571 -0.094879791 0.05517073 14867924
0.43000001 -0.099115193 0.051117778 14868181
0.41766667 -0.082976595 0.056548614 14736338
0.42137501 -0.086620435 0.053878523 14867668
0.40900001 -0.071039923 0.05902591 14012358
0.41386995 -0.075098053 0.054966722 14670545
0.40672857 -0.064020507 0.055903401 14670802
0.41122225 -0.067611866 0.052284461 14604496
0.39816672 -0.051708311 0.058289759 14736338
0.40224138 -0.054965168 0.054543365 14736595
0.39608783 -0.044160195 0.056014065 14736338
0.40061536 -0.047413427 0.052103147 14670802
0.38875002 -0.032068342 0.059250295 14473423
0.39348382 -0.035058279 0.054464053 14605265
0.38808933 -0.024682892 0.057963263 14342093
0.39218056 -0.02525067 0.053035423 14342350
0.38710129 -0.015246204 0.056975365 14079179
0.39153075 -0.015136948 0.052186824 14276558
0.38735133 -0.0054620337 0.0572148 13816006
0.39156902 -0.0051824306 0.052371502 13816006
0.38813338 0.0038836813 0.058394976 13552834
0.39232618 0.0052609607 0.05351248 13487041
0.38900003 0.01014322 0.059175078 13224639
0.39451206 0.014716123 0.055169828 13158333
0.40012503 0.018746847 0.051148977 13223870
0.39718002 0.023378195 0.0572914 13289918
0.40152246 0.026102006 0.053314526 13355455
0.40512964 0.034539554 0.055232555 13289918
0.41066667 0.039229196 0.051093299 13421248
0.40843749 0.041307591 0.057529341 13487296
0.41303194 0.045667678 0.054562964 13421247
0.41673133 0.053606875 0.055844985 13421247
0.42084861 0.057608597 0.053121045 13684418
0.42476338 0.06478247 0.055197757 13421246
0.42999998 0.069261737 0.050648015 13618625
0.42821428 0.070955671 0.057190124 13552832
0.43317112 0.07568448 0.054826707 13684418
0.43786117 0.082802139 0.056637611 13881541
0.44190395 0.086647287 0.053967092 13881541
0.44609872 0.094707988 0.055177558 14013384
0.45000002 0.098819673 0.050896823 14539986
0.44890916 0.10155778 0.056919131 14211533
0.45224205 0.10598897 0.054346163 14342864
0.45686114 0.1146234 0.055099033 14343121
0.46028572 0.11960187 0.052931376 13488073
0.4651731 0.12535197 0.055865407 12303288
0.47000003 0.12943497 0.051141731 11053992
0.46841171 0.13251261 0.054288261 2959907
0.47000003 0.13181891 0.051325109 2565926
0.44500002 -0.15120836 0.062183429 14407379
0.43885192 -0.14384128 0.068622746 15262428
0.44228801 -0.14541143 0.063539468 15196892
0.43753326 -0.13446374 0.065622397 15656929
0.44050002 -0.13778381 0.061787382 15788515
0.43430853 -0.12496374 0.065007038 15591135
0.4283182 -0.11221023 0.067888923 15393499
0.4310959 -0.11581139 0.064371482 15459549
0.4257386 -0.10485857 0.065277785 15262169
0.43000001 -0.10877891 0.060781501 15262169
0.41809681 -0.092596754 0.067008629 14933204
0.42136773 -0.096043393 0.063965224 14998997
0.40900001 -0.080614686 0.069558144 14933204
0.41496998 -0.085041076 0.064980552 14801875
0.4072434 -0.073628843 0.065937482 14670289
0.41133332 -0.077662051 0.063298941 14736082
0.39788896 -0.061555777 0.068080552 14670802
0.40286028 -0.065601088 0.064448729 14670545
0.39542446 -0.054556578 0.065527618 14538960
0.40030771 -0.058621235 0.061471097 14605009
0.38755772 -0.043165382 0.066959567 14538702
0.39209858 -0.046394136 0.06336306 14670289
0.38564903 -0.034961753 0.065164663 14407630
0.39000002 -0.038219545 0.06024019 14539216
0.38328031 -0.025002375 0.065020338 14144971
0.38228804 -0.015091274 0.064853199 14013386
0.38234058 -0.0052454197 0.064862274 13552834
0.38339251 0.0047358908 0.065130003 13158847
0.38643742 0.01408732 0.065510064 13027261
0.39095452 0.017434744 0.061675843 13092540
0.38830432 0.021785591 0.068355359 13027003
0.39396328 0.025479032 0.064556338 13158588
0.39764872 0.032838013 0.067305617 13093051
0.40164989 0.036089778 0.063844904 13093051
0.40658259 0.044309743 0.065648757 13224124
0.41100001 0.047975082 0.062306881 13355453
0.40900001 0.05087873 0.069877304 12960695
0.4142381 0.05505136 0.064909369 13289660
0.41789654 0.06214102 0.066537566 13421246
0.4220286 0.06642127 0.064349115 13487039
0.42652461 0.073787212 0.06608972 13552832
0.43064526 0.077605307 0.063393749 13750211
0.43449441 0.08480259 0.06488537 13618369
0.44000003 0.08975669 0.060752962 13552832
0.43854174 0.091941178 0.067095153 13421760
0.44242197 0.096195333 0.064287491 13947591
0.44710138 0.10448401 0.065565184 14276557
0.45085716 0.10833168 0.062099565 14277327
0.44900003 0.11051273 0.068827897 14473936
0.45437506 0.11500641 0.064871542 14014156
0.45881826 0.12093644 0.066377573 13487559
0.46285185 0.12552704 0.064384848 10394779
0.46744442 0.13171065 0.061865788 2696736
0.43570349 -0.14484492 0.074889824 14867670
0.43272331 -0.13491862 0.074901573 15394013
0.42757148 -0.12361474 0.077090673 15130584
0.43046942 -0.12638453 0.073172785 15393755
0.42458323 -0.11488765 0.074927725 15196377
0.43000001 -0.11914729 0.070445225 15393757
0.41755557 -0.10365745 0.077397212 15130583
0.42172879 -0.10590498 0.073183797 15196377
0.40900001 -0.090827771 0.079452068 14735827
0.41476047 -0.094975762 0.074992657 14998997
0.42000002 -0.099169932 0.070773423 15262169
0.40735638 -0.083830349 0.07614813 14801618
0.41159999 -0.087167859 0.072631434 14867411
0.39757898 -0.071882285 0.078308806 14670032
0.4032135 -0.075391017 0.074266687 14670032
0.38900003 -0.060887951 0.079209507 14539216
0.39511874 -0.064636089 0.075460725 14604239
0.40046671 -0.067996092 0.071543559 14538703
0.38728374 -0.053873673 0.076893106 14538959
0.39187276 -0.056589164 0.072818398 14670032
0.37900001 -0.040690541 0.079835013 14276559
0.38407815 -0.045038547 0.074763581 14538960
0.37846777 -0.034203716 0.077334881 14078667
0.38119996 -0.035689119 0.072976857 14210253
0.37780684 -0.024643295 0.0758086 13420993
0.38032004 -0.025947414 0.071066901 13816008
0.37762845 -0.014906747 0.074678414 12829111
0.37751901 -0.0052633975 0.074768461 12697269
0.38000003 -0.0016560844 0.070260204 12763579
0.37756065 0.0045182928 0.076015569 12960697
0.38055259 0.0062914812 0.071581036 13092797
0.37830234 0.01402666 0.078080587 12895674
0.38186467 0.015976045 0.073614426 13092797
0.38506836 0.024797041 0.075382508 13027516
0.39090002 0.028495779 0.071359523 12961467
0.38817647 0.031504467 0.078132115 13093052
0.39426196 0.035307117 0.074712336 12961467
0.40000001 0.039084107 0.070961602 12960952
0.39750001 0.041623622 0.07725735 13027003
0.402913 0.045743138 0.074447855 13026744
0.40748894 0.052431531 0.076269656 13158331
0.41221049 0.056699783 0.074043818 13289660
0.416475 0.063759059 0.075390831 13421246
0.42042109 0.068513252 0.074002646 13552832
0.42385712 0.074862152 0.075040199 13750211
0.4281905 0.081476703 0.076350801 13618883
0.43183336 0.086145282 0.07448905 13355968
0.43642104 0.094612546 0.075619236 13684933
0.44081819 0.098274224 0.071465634 13882313
0.43900001 0.10085747 0.078599751 13947592
0.44390148 0.10480325 0.074442297 14079178
0.44862074 0.11150657 0.075739525 14079435
0.45306006 0.11673663 0.074687943 13487812
0.45836839 0.12346651 0.075995184 12040372
0.46081251 0.12677054 0.073197596 6578272
0.43242034 -0.14457688 0.084925197 14670805
0.42722955 -0.13367163 0.086381882 15197147
0.43045723 -0.13691027 0.082812309 15065305
0.42412356 -0.12479777 0.0851226 15065305
0.41794738 -0.11251307 0.086774424 14933463
0.42125434 -0.11650101 0.083800845 15064792
0.41537258 -0.1050633 0.085036524 14932949
0.40753239 -0.093536511 0.086009853 14670034
0.4116098 -0.097448923 0.083386339 14735827
0.39833334 -0.081413835 0.088154383 14538961
0.40340763 -0.085467644 0.084626213 14604241
0.39517134 -0.074548662 0.085573889 14341325
0.40046155 -0.078619964 0.081975169 14341325
0.38735214 -0.063316189 0.086160354 14275275
0.39175999 -0.067228824 0.083343655 14406861
0.3788 -0.050778519 0.088837638 14604239
0.38315961 -0.055248667 0.084792115 14407117
0.37775269 -0.04408741 0.086138092 14341581
0.38081387 -0.047085989 0.082185201 14407374
0.37600744 -0.035091411 0.084917657 13881544
0.3748571 -0.02503011 0.084637336 9408392
0.3735072 -0.014920345 0.084905647 4080444
0.37408474 -0.0051616803 0.084883831 6250586
0.37442589 0.0050597247 0.084788576 12369074
0.375319 0.014967205 0.085007548 12764088
0.37732542 0.023592621 0.086340338 13093052
0.38170686 0.026905002 0.082912534 12961465
0.37900001 0.030289123 0.089594714 13027260
0.38581923 0.034140889 0.08536379 12764087
0.39142311 0.038508318 0.082870841 12698294
0.39499995 0.044551037 0.085684262 12763830
0.40050003 0.048181463 0.081842639 12763574
0.39833334 0.050795685 0.088413976 12829111
0.40431184 0.054764662 0.084962763 13223867
0.4111 0.059224673 0.08149451 13289660
0.40849996 0.061473183 0.088507153 13158074
0.41393551 0.065484397 0.084578864 13421246
0.41756672 0.071691528 0.086487703 13684418
0.42210141 0.07644482 0.084513083 13684418
0.4266558 0.08360064 0.085953683 13223868
0.43038714 0.087991402 0.084125288 13026488
0.43417037 0.094836526 0.084890813 13553089
0.4384445 0.1021282 0.085625559 13750470
0.44231921 0.10695606 0.084311031 13947849
0.44700003 0.11271844 0.085728675 13224897
0.45209685 0.11745688 0.084405996 13356229
0.45700002 0.12314142 0.084928617 10329241
0.4608334 0.12799031 0.087365098 2828578
0.46333337 0.13067277 0.088198781 2434585
0.42822221 -0.14240888 0.096354127 14538962
0.43025011 -0.14548877 0.093958735 14473425
0.42482781 -0.13488972 0.095149532 15196634
0.4185001 -0.12169242 0.097363353 14867412
0.42131591 -0.12593298 0.094403617 14933462
0.41594845 -0.11489454 0.095068999 14801876
0.41999999 -0.11948997 0.090765715 14341839
0.40807897 -0.10246564 0.096566737 14604497
0.41192311 -0.10647877 0.093989626 14735826
0.40437132 -0.095001072 0.095005028 14406862
0.3966296 -0.083879992 0.095764764 14209738
0.40090317 -0.08788041 0.092952944 14275532
0.38850001 -0.071724154 0.096840538 13880517
0.39214998 -0.076075241 0.094478026 14077895
0.37900001 -0.060209952 0.099354416 14077895
0.38445958 -0.065133549 0.094928868 14077896
0.37747374 -0.053943977 0.095925495 14275788
0.380878 -0.057552222 0.092516065 14209482
0.37433347 -0.045006067 0.094894528 14144460
0.37292391 -0.035106793 0.095080122 13684678
0.37304461 -0.025151564 0.0949343 7698288
0.36900011 -0.013463546 0.098371267 2106912
0.37072161 -0.015457379 0.094049715 2107425
0.36899999 -0.0084228478 0.098652571 2303006
0.37118554 -0.0048093465 0.094786674 4540224
0.37207457 0.0048832144 0.094989784 11842732
0.36900002 0.016100485 0.099324435 12302769
0.37136072 0.014959658 0.094813816 12895161
0.37330008 0.024802959 0.095079236 13027260
0.37762266 0.032249697 0.096104048 12698295
0.38270727 0.036611442 0.09425161 12500915
0.3874211 0.042014312 0.09627948 12566708
0.39260805 0.046374466 0.094471864 12698293
0.39675474 0.052442983 0.096013106 12829879
0.40209672 0.056993734 0.094184346 12961208
0.40689665 0.062956005 0.095263653 13092282
0.41172093 0.067986459 0.094457939 13289661
0.41632143 0.074631564 0.095395938 13487040
0.42046672 0.079078905 0.092637099 13421246
0.4236629 0.085030548 0.094963178 13157817
0.42818749 0.091106705 0.096710205 13421246
0.43236363 0.095962085 0.094738826 13421247
0.43723637 0.10354655 0.09502095 13684676
0.44085181 0.10847029 0.094773293 13027261
0.44566008 0.11370458 0.095042951 13159107
0.45105273 0.11891063 0.094287425 13290437
0.45529091 0.12419831 0.094697073 5328201
0.46000001 0.12829632 0.090436161 3025956
0.42555064 -0.14366825 0.10476349 14209741
0.41870004 -0.13120954 0.10878108 15262426
0.42156985 -0.13527976 0.10465556 14999511
0.41679266 -0.12428568 0.10544837 14801618
0.42035297 -0.12854381 0.10203233 14998998
0.40880004 -0.11107202 0.10869701 14538446
0.41260412 -0.11532983 0.1047659 14735825
0.40643144 -0.104827 0.10525215 14341324
0.4104 -0.10920103 0.10124407 14341581
0.39807698 -0.091377482 0.10650276 14143688
0.40150005 -0.095953651 0.10461826 14275274
0.39449993 -0.084914856 0.10506741 14143688
0.38669881 -0.073557124 0.10557473 13683394
0.39113519 -0.078274302 0.10344704 13749187
0.37750882 -0.062409811 0.10577983 14012615
0.3821364 -0.067177437 0.10434576 13880774
0.37356484 -0.054827914 0.10507515 14210508
0.37117809 -0.045091633 0.1051562 14013129
0.37113103 -0.034954976 0.10491962 13289406
0.36869234 -0.021060485 0.10747372 2041890
0.37141174 -0.025522251 0.10471931 7171945
0.3679401 -0.014777604 0.10511611 1975840
0.37 -0.019585669 0.10110942 2107682
0.36820689 -0.006764804 0.10549887 2237984
0.37046945 -0.0022686007 0.10440873 6250840
0.36860481 0.0075034057 0.10718371 11711145
0.37072116 0.0036816497 0.10428368 10855837
0.36796603 0.015435261 0.10522263 12500660
0.37000003 0.011380145 0.10095476 12171183
0.36795831 0.024329213 0.10651457 12961211
0.37085417 0.026910299 0.10238961 13027004
0.36869997 0.031192696 0.10873769 13224639
0.37403157 0.034995433 0.1051378 12895418
0.38062501 0.038884405 0.10133836 12303536
0.37795004 0.041619547 0.10779091 12698039
0.38396555 0.044706173 0.1047564 12500915
0.39125004 0.048728757 0.10176189 12764087
0.38860002 0.05034259 0.10878408 12565937
0.39483017 0.054936498 0.10509282 12829366
0.40000001 0.058889117 0.1008798 12895415
0.39900002 0.060843546 0.10880069 12698295
0.40435719 0.064784147 0.10503636 12960952
0.41085717 0.068972722 0.10124653 13289660
0.40871429 0.070799366 0.10782623 12895415
0.41402179 0.075059794 0.10470347 13223868
0.41835302 0.080963016 0.10644221 13027003
0.42294869 0.085970148 0.10476629 13092796
0.42737779 0.09289898 0.10545272 13224125
0.43061545 0.097536877 0.10450796 13355453
0.43567851 0.10369188 0.10555621 13290175
0.44065005 0.10881958 0.10411549 12698553
0.44594526 0.11526352 0.10532998 12238009
0.45000002 0.11918652 0.10058493 13158598
0.44900003 0.1210239 0.10719367 2763051
0.45171431 0.12175701 0.1024754 6446687
0.4183 -0.14146379 0.11807704 13881035
0.42207322 -0.14325731 0.11350638 14012362
0.41698879 -0.13442628 0.11572375 14933719
0.42038891 -0.13797204 0.11157086 15065304
0.40900001 -0.12098828 0.11966608 14604241
0.41364411 -0.12507853 0.114953 14736082
0.40744621 -0.11389446 0.11561051 14735826
0.41096428 -0.11792801 0.11305644 14867412
0.39900002 -0.10106125 0.1192311 14407632
0.40299076 -0.10503206 0.11502358 14275788
0.3965888 -0.094195068 0.11579251 14144202
0.4004091 -0.098166659 0.11263456 14077896
0.38888234 -0.080951475 0.11709944 13683138
0.39222449 -0.085451201 0.11445399 14012102
0.37850001 -0.071280785 0.11775661 13814724
0.38434371 -0.075281225 0.11471047 13683394
0.3750782 -0.064777374 0.11516186 13947079
0.38033333 -0.068732388 0.1109818 13748930
0.36899999 -0.051825788 0.11781052 14078921
0.37094238 -0.055537984 0.11447039 14013128
0.36887479 -0.045270368 0.1165336 13618628
0.37002558 -0.044747066 0.11212746 13684421
0.36899999 -0.038553733 0.11812949 13224640
0.37075537 -0.03466193 0.11461754 12566197
0.36789197 -0.021459579 0.11594281 1975839
0.3710959 -0.026230901 0.11478729 6513500
0.36597297 -0.014935788 0.11513049 1515288
0.36690634 -0.0052551227 0.11525501 3290927
0.37000003 -0.00087006617 0.11271 7303529
0.36824206 0.0065137325 0.11499076 10526873
0.36999992 0.0014809849 0.11499917 8750462
0.36606926 0.015083317 0.11513299 11973804
0.36531869 0.0250162 0.11495451 12829368
0.36710086 0.034037393 0.11568467 12961210
0.37109378 0.037992753 0.11253485 12961212
0.36849999 0.041419607 0.11913826 12698039
0.3744576 0.044405155 0.11528533 12697782
0.38188893 0.048153982 0.11197589 12368817
0.37900001 0.050695777 0.11887382 12565939
0.38647276 0.053708527 0.11624131 12434610
0.39230913 0.057087943 0.11378952 12697781
0.39618525 0.061513897 0.1154882 12829367
0.40260291 0.066417843 0.11418661 12960953
0.40722454 0.072431758 0.11571661 13158332
0.41265461 0.077368669 0.11437104 13092538
0.41719511 0.082534634 0.1153669 12960952
0.42168757 0.087237827 0.11442676 12961466
0.42624137 0.09323591 0.11543013 13158589
0.43012002 0.09801203 0.11476846 13421504
0.43490899 0.10442622 0.11497047 13158847
0.44000003 0.10932761 0.11019526 13290691
0.44503921 0.11492735 0.11468039 9539470
0.41615629 -0.14137234 0.12507533 13749446
0.40900001 -0.13040347 0.12892167 14933719
0.41353464 -0.1348874 0.12491402 14604498
0.40752459 -0.1239279 0.12595224 14473425
0.41110715 -0.12745567 0.12265203 14736083
0.40484956 -0.11515711 0.12514149 14736341
0.39779246 -0.10273132 0.12560883 14078924
0.4009811 -0.1074337 0.1243827 14210253
0.39440358 -0.095029309 0.12505931 14144459
0.38719445 -0.08322075 0.12571777 13683394
0.39106673 -0.087823048 0.12397771 13880773
0.37637293 -0.072549619 0.12575991 13552065
0.3825424 -0.07719963 0.1243493 13617345
0.36862513 -0.061906535 0.1272417 13881799
0.37173077 -0.065947801 0.12431753 13815494
0.36820313 -0.054704271 0.12511988 13815750
0.36999997 -0.058433689 0.12098817 14210764
0.36795777 -0.045199957 0.12488367 13552835
0.36892325 -0.038611926 0.1244821 13027005
0.37084699 -0.033690725 0.12521109 11381923
0.36578333 -0.022108823 0.12508397 1778716
0.37158465 -0.027384292 0.1247922 7105378
0.36294207 -0.01475189 0.12487543 1318165
0.3646802 -0.0054254029 0.12499154 2962733
0.36819997 0.006186794 0.12436402 9605514
0.37 0.0021048384 0.12586765 7303017
0.36489356 0.015123187 0.12495409 11316388
0.36364549 0.025229877 0.1246969 12435123
0.36459836 0.035210732 0.1248163 12764089
0.3672092 0.04397342 0.12578197 12698040
0.37112123 0.047906138 0.12266493 12632245
0.36900002 0.050221995 0.12912676 12698297
0.37434003 0.053164698 0.12718029 12566453
0.3845 0.057072833 0.12423532 12303280
0.38689288 0.061262012 0.12625161 12303279
0.39405411 0.064809904 0.12498409 12566451
0.40140736 0.068381019 0.12342644 12961210
0.39900002 0.070184208 0.12981719 12895672
0.40514418 0.074539199 0.12520279 12829624
0.41050005 0.079093553 0.12266602 13092540
0.40849999 0.080820777 0.12848413 12566709
0.41520989 0.084779777 0.12500016 12895674
0.42053849 0.089118853 0.12220755 12895675
0.41900003 0.090377286 0.1294581 12764347
0.4239608 0.093675919 0.12526387 13027262
0.42999998 0.098645978 0.12480366 13224641
0.43485326 0.10449239 0.12488002 13027776
0.43900001 0.11010683 0.12810098 12829884
0.44309387 0.11417343 0.12465557 9670797
0.41304764 -0.14117943 0.13442834 13420482
0.40721896 -0.13339436 0.13598336 14210253
0.41145945 -0.13750617 0.13350338 14210253
0.40324351 -0.12495092 0.13507546 14342096
0.39835721 -0.11364339 0.13793233 14671317
0.40084329 -0.11565573 0.13353235 14539988
0.39616656 -0.10476481 0.13532001 14144716
0.40000001 -0.1090555 0.13089167 14342096
0.38846666 -0.092058778 0.13714904 13815493
0.39213333 -0.095940247 0.13413563 14078409
0.38464031 -0.0849398 0.13493605 13617345
0.39000002 -0.089347377 0.13099746 14012102
0.37492633 -0.074510068 0.13527004 13223100
0.38050005 -0.079079822 0.1329257 13354429
0.36799136 -0.063955501 0.1351431 13553092
0.3703157 -0.068503417 0.13243732 13288894
0.36716065 -0.055114649 0.1349269 13618885
0.36788535 -0.045514669 0.13456103 12895418
0.37015378 -0.04127362 0.13789643 12698039
0.36899999 -0.039123293 0.13128635 11513766
0.37146217 -0.034927964 0.13509518 10000270
0.36442623 -0.022296553 0.13445944 1712408
0.37242591 -0.027717533 0.13468586 7040357
0.36081573 -0.014584815 0.13461003 1449750
0.3626546 -0.0056258752 0.13458082 2566949
0.37033334 -0.00074699899 0.13652901 6646369
0.368489 0.0083613545 0.13474689 8619135
0.37083527 0.0033055001 0.13544159 6514015
0.36541742 0.015150101 0.13511792 10526617
0.36307758 0.025243087 0.13505819 12040367
0.36256614 0.035020065 0.13492686 12566712
0.36500689 0.044860967 0.13503315 12698554
0.3682445 0.051997699 0.13576704 12566969
0.37233758 0.056217443 0.13407366 12303796
0.38000003 0.059725408 0.1307521 12698295
0.377875 0.061493061 0.13488147 11777193
0.38381818 0.064595625 0.13480507 11974572
0.39305264 0.06797865 0.13228354 12368817
0.38850003 0.070156232 0.13958789 11974572
0.39641181 0.072077453 0.13573244 12566196
0.4022173 0.076596759 0.13422824 12632245
0.40702221 0.082418196 0.13580771 12435380
0.41307849 0.087094814 0.13410579 12830138
0.41753849 0.091189869 0.13494156 12764346
0.42389295 0.095198855 0.13496946 12895933
0.43000001 0.099091783 0.13446739 12895677
0.43483743 0.10453366 0.13500625 12830397
0.43900007 0.11010683 0.1352521 12896705
0.4406333 0.11258127 0.13479902 8158329
0.40900001 -0.14061654 0.14551795 12433588
0.40467036 -0.13469402 0.14500166 13486275
0.39693594 -0.12351059 0.14579321 14078925
0.40052941 -0.12700592 0.14244737 14078925
0.39452621 -0.11494637 0.14487357 14473684
0.389 -0.10168535 0.1488747 14276305
0.39253792 -0.10546193 0.14494562 14342097
0.38723302 -0.094132528 0.145575 14012875
0.39077273 -0.098548815 0.14239913 13947081
0.3828727 -0.085025609 0.1450592 13157309
0.37625998 -0.07491795 0.14306536 12762293
0.38120833 -0.076996185 0.14793952 11183773
0.36774999 -0.062915213 0.141572 13355455
0.3729375 -0.067161746 0.14532791 11381410
0.36693165 -0.05480938 0.14281236 11974830
0.36799994 -0.047189724 0.14274529 11579816
0.37062958 -0.042072281 0.14295305 11711404
0.37304449 -0.035152599 0.14335977 8816510
0.36677784 -0.022741795 0.14612606 1515287
0.37344003 -0.027786965 0.1415727 6645343
0.36580744 -0.014990481 0.14552779 528391
0.36284542 -0.0056428928 0.14513685 2037519
0.36785719 0.0084832786 0.14072138 7237993
0.37112498 0.0029970333 0.14105606 5790548
0.36521432 0.014701002 0.14044109 7566189
0.3620435 0.023882575 0.14126582 8619133
0.36140004 0.036297031 0.14113797 8882051
0.36364448 0.044999007 0.14163658 10922146
0.36803126 0.052677102 0.14278863 12303799
0.37140432 0.05761924 0.144293 11843504
0.37602088 0.06242488 0.14479892 11778223
0.38239998 0.067469865 0.14450812 11777965
0.38740003 0.071107335 0.14568637 11909294
0.39521953 0.075574808 0.14527911 12238001
0.40050006 0.078839555 0.14356931 12237744
0.40463892 0.082998365 0.14361054 12369330
0.41176927 0.088373728 0.14375918 12632759
0.41679168 0.092181005 0.14580563 12895932
0.42259192 0.097232468 0.144429 12566969
0.42582354 0.10099655 0.14433827 12961473
0.43426666 0.10560992 0.14162026 12895679
0.43900001 0.11010683 0.14385915 12895681
0.44066668 0.11155777 0.14165384 10461082
0.398875 -0.13094938 0.15685536 12828343
0.40086663 -0.13272423 0.15266129 12499635
0.395625 -0.12497909 0.15448962 13354944
0.39093605 -0.11469392 0.1539357 13750473
0.38868338 -0.10401557 0.15328723 13815752
0.39013636 -0.10880747 0.15333535 14276560
0.38561112 -0.095319748 0.15234029 12828857
0.38279411 -0.085139595 0.15171818 10328208
0.38319519 -0.075542942 0.15246218 9473668
0.3784 -0.066493906 0.1507529 10328721
0.38042858 -0.068452545 0.15265568 9079681
0.36311659 -0.024000157 0.15516116 1778201
0.36468157 -0.014969982 0.15478799 659977
0.36446482 -0.0068405373 0.154816 1250060
0.38500002 0.069524191 0.15049838 11383464
0.38700002 0.070791326 0.15128018 12370359
0.39700004 0.077031128 0.1563306 11579815
0.40000001 0.079724178 0.15167989 11843243
0.39900002 0.080458932 0.15877323 10986909
0.40430865 0.085700192 0.15557852 12040622
0.40692315 0.091363437 0.15774624 12172466
0.41533336 0.092504859 0.15068817 13093311
0.421 0.096723653 0.15044369 11843505
0.36187059 -0.023723567 0.16464354 1054992
0.36147529 -0.014593763 0.16476971 988687
0.36382723 -0.0059499629 0.16536926 1185810
0.36400002 0.00011790649 0.16913149 8948352
0.39875007 0.077329144 0.16170795 8619644
0.40000001 0.079724178 0.1638532 8619386
0.40302852 0.085009038 0.16242336 10724509
0.40793332 0.091236591 0.16392337 11580075
0.34603819 -0.024354037 0.17710231 1514773
0.35434613 -0.023299273 0.17345271 856843
0.36111629 -0.024147192 0.17178974 791051
0.3461059 -0.015014793 0.17691079 1251859
0.35553834 -0.015576394 0.17280386 791308
0.36012506 -0.013652142 0.1710192 1186323
0.34630305 -0.0086823925 0.17650785 1186066
0.35699999 -0.0096331397 0.1749254 593929
0.36220917 -0.0046944642 0.17441078 2501156
0.36339396 0.00083945325 0.17530368 8291193
0.34149459 -0.024791213 0.18284872 1383444
0.34122387 -0.014924929 0.18309674 1186578
0.34165308 -0.0078549562 0.18362381 1186066
0.36214286 -0.0020621829 0.18092494 988177
0.36275002 0.00096729107 0.18043923 8423292
