# .PCD v0.7 - Point Cloud Data file format
VERSION 0.7
FIELDS x y z rgb
SIZE 4 4 4 4
TYPE F F F U
COUNT 1 1 1 1
WIDTH 619
HEIGHT 1
VIEWPOINT 0 0 0 1 0 0 0
POINTS 619
DATA ascii
0.43100002 -0.021553434 -0.040378612 14868437
0.42778262 -0.013493079 -0.041296039 13223617
0.43000001 -0.018986832 -0.04068758 14276559
0.4247708 -0.0047362619 -0.042840395 12236978
0.4214243 0.0050655208 -0.042935159 12038571
0.41900009 0.017511427 -0.040375393 11250083
0.42030191 0.015097635 -0.043127138 11380383
0.41900009 0.023431778 -0.040357877 9935763
0.42028844 0.025492065 -0.043179061 12236976
0.42148939 0.034655195 -0.042384487 11906984
0.42449999 0.042456478 -0.041591354 12499890
0.43796295 -0.042730674 -0.033056658 14143944
0.4358311 -0.035029225 -0.033748064 12629677
0.43244171 -0.025011733 -0.034760308 12565171
0.42710391 -0.014684672 -0.034470335 12631221
0.42999995 -0.019282902 -0.036554437 12301999
0.42321 -0.005320577 -0.035195999 12630963
0.41828203 0.00781703 -0.033163268 11710634
0.42067605 0.0035185746 -0.03587532 11447204
0.41736352 0.01532239 -0.034665704 12170411
0.42000002 0.010951549 -0.039348066 9864833
0.41711986 0.025036344 -0.034689728 12434610
0.41782609 0.033074539 -0.033022847 12565682
0.42085195 0.036646836 -0.036473636 13091254
0.42352936 0.043679513 -0.035105165 12170664
0.45125008 -0.061739817 -0.023000002 14867924
0.44730777 -0.052821718 -0.023500791 13090999
0.4507778 -0.05726919 -0.024098596 14275786
0.43728116 -0.043593735 -0.025199296 14078147
0.44166672 -0.048397679 -0.023856059 12498863
0.43394998 -0.034914188 -0.02491373 13222326
0.42861292 -0.022389691 -0.023163715 12433584
0.43061021 -0.026414292 -0.025479918 12170412
0.42558745 -0.015235463 -0.025186218 12170926
0.41823539 -0.0020537907 -0.022251669 12499120
0.42146999 -0.0059548644 -0.025745662 11973034
0.41637862 0.0052766562 -0.024630947 11775912
0.42014289 0.00097885879 -0.028823525 9407359
0.41391987 0.015150676 -0.024736326 11776168
0.41357982 0.024824472 -0.02471634 12170668
0.41555566 0.034632359 -0.024789235 12236974
0.42000002 0.039465148 -0.02951579 10261903
0.41793334 0.040967569 -0.022784492 12303280
0.42216665 0.045138925 -0.025481958 11513508
0.44818935 -0.06258297 -0.014033004 13748928
0.45000002 -0.063764028 -0.018631412 12629675
0.43849999 -0.051441997 -0.011440455 12697015
0.44537982 -0.055467527 -0.015551431 11840934
0.42900002 -0.040032905 -0.010062338 16117730
0.43401214 -0.044363666 -0.014376837 14275786
0.44062501 -0.048983533 -0.017943608 15064786
0.42837501 -0.033875648 -0.011469163 13092028
0.43100008 -0.035449285 -0.016061861 13157562
0.42654884 -0.025002651 -0.01467506 11973287
0.43000001 -0.028247898 -0.018742878 14013127
0.41778573 -0.012021412 -0.011896351 14342352
0.42268237 -0.015655482 -0.015857887 12104363
0.41602278 -0.0047517461 -0.014712852 12170413
0.42050004 -0.0088057006 -0.018313261 10261389
0.40877774 0.0076810238 -0.011555513 10130315
0.41231516 0.004408536 -0.015636289 12038827
0.40829647 0.015247773 -0.012676276 11249054
0.41104358 0.014692089 -0.017487898 12105134
0.40826249 0.024684804 -0.012742862 12170409
0.41093624 0.025329035 -0.017500529 12631476
0.40859997 0.032527827 -0.011433722 10592667
0.41228566 0.035539214 -0.015569668 12303024
0.4165085 0.043487344 -0.01463279 11448227
0.42044449 0.046179071 -0.018502621 9737353
0.43769237 -0.063150525 -0.0016383964 15854563
0.4434 -0.063178882 -0.0070172446 14078152
0.42875001 -0.051050406 -0.0007725812 14540243
0.43486762 -0.054767162 -0.0041456101 12631219
0.44091669 -0.058004361 -0.0080211172 12498605
0.4260135 -0.044352613 -0.003600328 14079176
0.4307895 -0.047049709 -0.0079824859 15328470
0.41875002 -0.030989366 -0.00026412882 14211538
0.42399976 -0.035128042 -0.0047397702 13683905
0.41697827 -0.023784943 -0.002059279 13420734
0.42218754 -0.025781466 -0.0070355707 12367019
0.40900001 -0.010399757 -1.8466952e-05 7237478
0.4145785 -0.01472569 -0.004636975 12236462
0.4204286 -0.018564871 -0.0092991125 11774885
0.40817028 -0.0039968933 -0.002175404 12104619
0.41187298 -0.0060221637 -0.0068186224 11644327
0.40643486 0.0050992724 -0.0045711417 11512997
0.41033337 0.00077318313 -0.0089846263 11447717
0.40432474 0.015109861 -0.0046495711 11775654
0.40418425 0.02502346 -0.0048772772 12301739
0.40608647 0.034626707 -0.0045430064 12171438
0.41033337 0.038877547 -0.008984237 11183510
0.40846154 0.041103184 -0.0016375266 11315870
0.41295597 0.044383645 -0.0057293512 11447200
0.42709669 -0.063756488 0.0082986532 13683652
0.43196672 -0.062959477 0.0036474662 13552065
0.41757149 -0.05167548 0.0091970647 15328986
0.42458728 -0.054644771 0.0060933013 13287865
0.43123811 -0.057262409 0.002285986 11511200
0.41550854 -0.044365849 0.0071115023 14013128
0.42180568 -0.045840248 0.002501776 13882570
0.40861538 -0.033275049 0.0091790492 10131861
0.41439024 -0.035084676 0.0049477294 13025977
0.42033339 -0.037585057 0.0011289004 14078922
0.40802637 -0.024604445 0.0080989935 12500403
0.41260329 -0.025275571 0.0035172363 12171182
0.40675887 -0.014593245 0.0060917456 12960441
0.41084218 -0.01662405 0.0018028852 11906212
0.40415004 -0.0050791637 0.0051734042 12236204
0.3986471 0.006935433 0.008655197 9407365
0.40161297 0.0044324277 0.0044937884 11973292
0.3979108 0.015464403 0.0073319534 11380124
0.40044439 0.014676364 0.0028100852 12433069
0.39778593 0.024707327 0.0072629829 11643297
0.40039119 0.025316095 0.0026500218 12762546
0.39888889 0.031463735 0.0083859842 9934993
0.40213552 0.035224508 0.0048695225 12434609
0.40676284 0.043326549 0.0054137483 11710371
0.4106364 0.046975717 0.0030396802 10328977
0.42685717 -0.07095243 0.015533447 12828343
0.41647369 -0.062882476 0.018143797 13947337
0.42444819 -0.065654524 0.014022462 13947337
0.40763161 -0.052002922 0.018461835 13420218
0.41388068 -0.055125803 0.014896463 13486270
0.42070001 -0.05826674 0.011798697 15065304
0.40609542 -0.044564933 0.016302213 13814979
0.4112083 -0.046476465 0.011691987 12170412
0.40408689 -0.035038117 0.015018054 13025975
0.39878574 -0.023811415 0.019319976 10393484
0.40261385 -0.025215767 0.014572823 12762804
0.39776745 -0.014057288 0.018062158 12105389
0.40155134 -0.015311196 0.013244488 12170154
0.39700004 -0.0045194663 0.016123734 12499117
0.40046659 -0.0062781149 0.011543428 11050899
0.39585137 0.0047572856 0.014798107 11578532
0.39428914 0.014894652 0.014739305 11512996
0.39438009 0.025058214 0.01474344 11710376
0.39639777 0.034581732 0.015285837 12040108
0.40025005 0.038156558 0.011147413 9671815
0.39827272 0.040899109 0.018119162 13092536
0.40158069 0.043771595 0.014973408 11316384
0.40500003 -0.070029125 0.029373195 9737358
0.41580003 -0.070723712 0.023521567 13618369
0.40495554 -0.063615583 0.02731606 14210251
0.41346669 -0.065243676 0.022283377 13486273
0.39792597 -0.053316023 0.02878982 12960438
0.40367863 -0.055425309 0.024435963 13749444
0.41050005 -0.058727831 0.020402163 15328477
0.39740008 -0.044544496 0.02758326 12302254
0.40133333 -0.045424845 0.022808481 14276044
0.39633679 -0.034647971 0.0258763 12697527
0.40011117 -0.036817253 0.021368951 12104876
0.39510721 -0.02484878 0.024941687 12302252
0.39383343 -0.014909158 0.024749586 12302252
0.38892305 -0.0023256065 0.028627137 9736332
0.39237136 -0.005542716 0.024441052 12170668
0.38855565 0.0050269105 0.028179022 11183260
0.39151284 0.0044609425 0.022961697 11447201
0.38815185 0.014687398 0.027135644 11775653
0.39071697 0.0147259 0.021880422 10658714
0.38856262 0.024118697 0.027639173 11907239
0.39098504 0.025319848 0.022533966 11316904
0.38900003 0.031240083 0.028819876 8948094
0.39262289 0.035205979 0.024605578 12040106
0.39642191 0.043401722 0.02574273 11908520
0.40018186 0.046971906 0.023019463 10000266
0.39740005 -0.071412787 0.038867772 12762033
0.40231583 -0.071297958 0.034175482 13486529
0.39679414 -0.064023048 0.036804646 13618370
0.40167335 -0.066636249 0.032754578 12960697
0.38900003 -0.051781386 0.039140645 13882319
0.39389083 -0.055026717 0.034959134 13355198
0.38857695 -0.044029236 0.038992282 12697270
0.39286011 -0.045178462 0.034073874 13223612
0.38777423 -0.034753226 0.03772483 11446431
0.39185071 -0.0351859 0.032659706 13487040
0.38735175 -0.025076201 0.036555771 12105646
0.39094597 -0.025204256 0.031370029 11776423
0.3870748 -0.015279392 0.035735119 12105900
0.39023808 -0.015622516 0.030651387 11119266
0.38629478 -0.0052758707 0.034901232 11578531
0.39000002 -0.00946014 0.030111292 8288368
0.38496706 0.0047173002 0.035185799 11315618
0.38460758 0.014925472 0.034982279 11513511
0.38522682 0.025128726 0.035145387 11711143
0.38763127 0.034215026 0.0354978 12039336
0.39073914 0.037870497 0.031837303 10459019
0.38883331 0.041594088 0.038263552 13684416
0.39252004 0.043449089 0.033510193 10790040
0.38754547 -0.071795009 0.04888935 14408143
0.39448002 -0.071719095 0.043342244 13947078
0.3867667 -0.064479329 0.047541961 12762549
0.39261901 -0.065558292 0.042927839 13683650
0.38566086 -0.054689929 0.045261465 13487039
0.39045456 -0.057543863 0.04069927 14736592
0.38389188 -0.045020532 0.045266945 13025720
0.37900001 -0.031374462 0.049668655 12565168
0.38257051 -0.034904603 0.045043547 12564912
0.37899998 -0.026938232 0.049668655 10722453
0.38214302 -0.02481938 0.044913683 12301483
0.37899998 -0.012150802 0.049372908 8288109
0.38186505 -0.015208764 0.044896163 12105388
0.3789131 -0.0050453148 0.049155775 8813168
0.38149545 -0.005268821 0.044147044 11776680
0.37870732 0.0055052997 0.048505306 10854292
0.38121367 0.0048283823 0.043543331 11250080
0.37860468 0.015108202 0.04831725 11248025
0.38092107 0.015235986 0.04369856 11710117
0.37877786 0.022931881 0.048949454 10590091
0.38162288 0.025461355 0.044426028 11841958
0.38365588 0.035015978 0.045131881 12171177
0.38654545 0.042789072 0.045166537 11776933
0.39000002 0.046232678 0.04061076 12303538
0.38481364 -0.07249397 0.05546302 13157306
0.37838465 -0.061952949 0.057968136 13354942
0.38264349 -0.065644912 0.054368764 13289404
0.37781626 -0.05468823 0.056693349 12829110
0.38090897 -0.055528834 0.051416751 14079434
0.37751362 -0.044910613 0.056132399 11973287
0.38030443 -0.045476891 0.051232696 14474192
0.37703949 -0.035002742 0.05536335 12499375
0.38000005 -0.038002063 0.050816376 14342093
0.37716782 -0.025006715 0.055192672 12038824
0.37736335 -0.01489598 0.055187523 11841959
0.37693161 -0.0051735356 0.05512467 11381408
0.3765623 0.0049696062 0.055069946 10987166
0.37670413 0.015115627 0.05509169 11183517
0.37772074 0.024787696 0.055281926 11512993
0.38000003 0.029034663 0.050689295 9734523
0.37851286 0.032227695 0.056919601 13026487
0.38122723 0.036180686 0.054054793 11316125
0.38333341 0.042513181 0.054906294 11118746
0.39693025 -0.082789734 0.066623524 12368306
0.40000001 -0.081806064 0.062253013 14803415
0.37684381 -0.071942292 0.067134716 12368303
0.38233334 -0.07310874 0.062166762 12499377
0.39400002 -0.079093724 0.066698879 12433586
0.37604758 -0.064720429 0.065192431 13091768
0.38050005 -0.068762369 0.061147764 15460316
0.37471664 -0.0551636 0.065035418 12894645
0.37445393 -0.04495053 0.064908855 11644579
0.37390858 -0.034859497 0.065154336 11776167
0.37402847 -0.024893651 0.065143414 11973031
0.37403128 -0.014691101 0.065100022 11907752
0.37393957 -0.0051310011 0.065196104 11249823
0.37374327 0.0049323104 0.065161958 11052444
0.37371984 0.014994357 0.065157078 11512995
0.37470552 0.024782421 0.065133139 11776679
0.37725171 0.034770545 0.064968973 11118749
0.38000003 0.038968381 0.060771275 11776936
0.37800002 0.041565485 0.068563052 11908777
0.38120002 0.042067505 0.061557807 10066575
0.38763636 -0.081300579 0.078273162 13551806
0.39358148 -0.08345633 0.073889859 13354172
0.37410975 -0.073065534 0.07515946 12105133
0.39400002 -0.079195432 0.071004018 14012102
0.37200683 -0.065212272 0.075051822 12893620
0.37182671 -0.055044014 0.075044297 12499374
0.37288606 -0.045040436 0.074544303 11841958
0.3728978 -0.0350371 0.075118549 11579301
0.37299198 -0.02512287 0.074991189 11380638
0.37280765 -0.015216029 0.074922994 10197136
0.37204003 -0.0050029745 0.075088829 9736586
0.3713679 0.0049009114 0.075181253 10065292
0.37135729 0.014975349 0.075144649 10789013
0.37258929 0.024986099 0.074989893 11184026
0.37528795 0.035045907 0.074923694 11250077
0.37772232 0.041583993 0.074011788 11513504
0.38706455 -0.082887016 0.084928595 11512225
0.39000002 -0.08501064 0.080554374 13881029
0.36794731 -0.072394669 0.087160259 12104105
0.37090001 -0.072672799 0.082528256 12235948
0.38461539 -0.079386473 0.085918888 12498861
0.36776346 -0.064529881 0.085952483 12565169
0.37009993 -0.066897497 0.081382349 13683392
0.36830926 -0.05589604 0.086042397 11644836
0.37045452 -0.052701894 0.082705073 13552834
0.36899999 -0.048786864 0.088891953 10855577
0.37093616 -0.044847678 0.084515266 12105388
0.3723357 -0.035207488 0.084934048 10657940
0.37367654 -0.024913993 0.085189126 7038815
0.37358117 -0.014901256 0.085304275 6974050
0.37174803 -0.0052089184 0.085023478 9670534
0.37064365 0.0048899702 0.085014507 9736327
0.36899999 0.018173691 0.089476705 12763318
0.37026262 0.014767542 0.084816277 9999241
0.36899999 0.021962227 0.089452028 12565681
0.37087187 0.025085831 0.084739007 11183769
0.37362805 0.03506235 0.084935591 11117977
0.37652627 0.041365277 0.083206318 11776935
0.37775001 -0.081346534 0.096040763 10328977
0.38417396 -0.082694367 0.091828525 12434098
0.36554259 -0.073458135 0.095305532 12499119
0.3733077 -0.078602284 0.094904035 11118236
0.384 -0.079882242 0.091226175 13222073
0.36457041 -0.065105647 0.095200539 12302511
0.366541 -0.055290733 0.095016636 12104616
0.36818546 -0.045740601 0.095592767 12236458
0.37011993 -0.042058889 0.091931283 11446944
0.37125534 -0.035041664 0.095108256 10197390
0.37128574 -0.025120987 0.095111869 2239010
0.37138185 -0.015091913 0.095179997 2698279
0.37180319 -0.0050039985 0.095100984 9407104
0.3690002 0.0078729773 0.09654332 9606026
0.37020397 0.0036859917 0.094094291 10000271
0.36858982 0.015332894 0.095430888 10132116
0.36999997 0.012592794 0.090412132 12632502
0.36856654 0.023800161 0.095878869 10855576
0.37019998 0.027949477 0.093329512 11841698
0.37194505 0.034744408 0.094865486 11381661
0.37460002 0.040811744 0.092411622 12501173
0.36600003 -0.080850236 0.10622824 13683907
0.36405638 -0.074651398 0.1050027 11841187
0.36332613 -0.064946853 0.10502572 11644836
0.3654328 -0.055006474 0.10502504 11775909
0.36769575 -0.045104507 0.10507283 11973545
0.36899999 -0.039362844 0.10506641 11775908
0.37052479 -0.034394562 0.10507616 8355445
0.36851579 -0.024672857 0.10618453 2107681
0.37010804 -0.025592901 0.10168314 2173218
0.36855561 -0.016806923 0.10674915 2107427
0.37043774 -0.013665946 0.10375465 2830379
0.37089667 -0.0051948619 0.10483724 8683896
0.36885434 0.0060528526 0.10471704 9737097
0.36999992 0.0010369783 0.10580971 9408391
0.36784971 0.015151555 0.10500314 10196877
0.36776572 0.025136594 0.10497539 10855064
0.36886215 0.031414777 0.10682013 10196620
0.37055722 0.035062805 0.10398046 11710886
0.36700001 -0.08064156 0.11081424 12631217
0.36444077 -0.074170709 0.11283202 10000268
0.36488628 -0.065003373 0.11493324 10460306
0.36693293 -0.055248793 0.11482728 11117978
0.37 -0.050638098 0.11899596 9012862
0.36827776 -0.045716029 0.11298546 9868169
0.37058014 -0.044262625 0.11765712 10790298
0.36866668 -0.030087518 0.11908421 2107169
0.37113941 -0.035011813 0.11492916 6907999
0.36737514 -0.024609555 0.11527272 1975581
0.37 -0.029330159 0.11258626 2370596
0.36753643 -0.015421069 0.11533023 2304804
0.37023073 -0.010680452 0.11265539 3421999
0.36900002 -0.0093826661 0.11832882 7895406
0.37161708 -0.0049832063 0.11459538 7303270
0.36899999 0.0083739553 0.1110342 9474437
0.37143242 0.0046146261 0.11547947 7368807
0.36849061 0.01554813 0.11193276 10526613
0.37078691 0.014549602 0.11688313 7040098
0.3683112 0.025526421 0.11192013 11908010
0.37126881 0.024740711 0.11699672 8026223
0.36892858 0.031458545 0.11170525 11841956
0.37047616 0.032911032 0.11523227 10263183
0.36760002 -0.063214362 0.12046156 10460820
0.36849999 -0.056381688 0.12032457 8552566
0.37055555 -0.051734556 0.12104458 6907741
0.37241384 -0.043434091 0.12158947 7171686
0.36866668 -0.030663408 0.12052315 1975583
0.37324998 -0.036364198 0.12172078 7171687
0.36700001 -0.028662767 0.12026494 2172960
0.36700001 -0.012768425 0.12026493 3094835
0.37400001 -0.0025054764 0.12080774 7434853
0.37368 0.0057176668 0.12143964 8619644
0.37233341 0.013436186 0.12094867 8750973
0.37308338 0.025008405 0.12051164 9342338
0.37200001 0.03103598 0.1201617 8487029
0.36100003 -0.030729491 0.13942644 1909019
0.36100003 -0.024813736 0.13942645 1974813
0.36140004 -0.015532173 0.13958094 2633002
0.36131823 -0.03087187 0.14497346 1054224
0.36127728 -0.024821583 0.1450021 1185809
0.36133695 -0.015890839 0.14506686 1972757
0.36325508 -0.032179158 0.15606648 2106655
0.36419448 -0.025316998 0.15567321 528135
0.36384964 -0.015425147 0.15531121 2036747
0.36312976 -0.032671504 0.16375606 1514773
0.36391285 -0.024866264 0.16518866 988685
0.36431611 -0.015931653 0.16506791 1184781
0.34900001 -0.03665264 0.1797276 3159085
0.35900003 -0.030139031 0.17983486 528135
0.36286435 -0.032572169 0.17558327 988943
0.35867858 -0.024654547 0.17901349 791307
0.36162493 -0.024953071 0.17452185 1317907
0.35900003 -0.018793287 0.17983486 594443
0.36271596 -0.016582297 0.17553456 1120530
0.79320002 0.19746101 0.17859557 8287853
0.34564885 -0.033568155 0.18528539 1777945
0.35428894 -0.032725349 0.18072353 1251858
0.36071429 -0.033542648 0.18057252 1185552
0.34573743 -0.025088524 0.18559381 1580567
0.35426486 -0.025015291 0.18085903 988686
0.34512505 -0.016787566 0.18598543 1514519
0.35456362 -0.01710053 0.18158312 988687
0.3617675 -0.012997201 0.18216434 1317399
0.36309999 -0.0083391946 0.18660863 8355959
0.79192865 0.19650756 0.18389951 8551281
0.79425007 0.20261823 0.18341781 3155743
0.34108099 -0.03327743 0.19150916 1581079
0.34159973 -0.024787303 0.1917116 1580311
0.34226832 -0.017476972 0.19163993 1514263
0.36400002 -0.01010766 0.19000868 2369051
0.78800005 0.19533755 0.19873266 7893868
0.792 0.19794878 0.19440597 5919821
0.79500002 0.20218787 0.19165836 2958362
0.78875005 0.19529007 0.2040008 9012607
0.7906 0.19792275 0.20688593 3617324
0.79545462 0.20340781 0.20598878 3024158
0.79500002 0.19939621 0.21213056 2696737
0.79749995 0.20282507 0.21217608 2761500
0.77560008 0.18327343 0.22656381 11053215
0.78162503 0.18780939 0.22594348 10987678
0.78579998 0.1940278 0.22647394 8750206
0.79100001 0.19654121 0.22217371 11382183
0.80000001 0.20065026 0.22095597 4933188
0.77725005 0.18220915 0.23195803 11052702
0.78436369 0.18704815 0.23517071 10987422
0.78740001 0.19405092 0.2336981 8421241
0.79066676 0.19800073 0.23658073 5196870
0.79280007 0.20311444 0.23548698 2893338
0.78866673 0.18734573 0.24244313 11052700
0.79150003 0.18717028 0.24779201 11052700
0.78900003 0.19050308 0.24008258 10856093
0.79436362 0.19535135 0.24535452 9868684
0.79738891 0.20528558 0.24409029 2696473
0.79900002 0.2116223 0.24780165 2499349
0.79500002 0.17799345 0.25772834 10790298
0.79450005 0.18522786 0.25543091 11052700
0.79756522 0.19444068 0.25576082 10920859
0.79900002 0.20039946 0.25247779 3222822
0.79000002 0.012585257 0.26874438 2106397
0.79750001 0.089872494 0.26787245 10263954
0.79866672 0.094834477 0.26764122 10395540
0.79714286 0.12715174 0.26788348 10527126
0.79146159 0.13465548 0.2679109 10658712
0.79436374 0.1456522 0.2684238 10724505
0.79766673 0.15586962 0.26616505 10724505
0.79633331 0.16457567 0.26557401 10724505
0.79805881 0.17499815 0.26580834 10855835
0.79883337 0.1847735 0.26208735 10921627
0.78645444 0.0045277439 0.27578953 1712666
0.78871429 0.013048641 0.27520806 2106654
0.79050004 0.017143575 0.27616405 1448467
0.79420006 0.089500614 0.27400795 10263954
0.79496866 0.094998062 0.27486598 10395540
0.79762501 0.10365967 0.27701572 10461333
0.79900002 0.11996911 0.27866444 10592919
0.79537928 0.12577468 0.27566272 10658712
0.79063654 0.13469686 0.27473664 10658712
0.792207 0.14478897 0.27520558 10658712
0.79678589 0.15488017 0.27476057 10658969
0.79810524 0.1641847 0.27363408 10724505
0.79880005 0.1719256 0.27186286 10790042
0.78647071 -0.0053804903 0.2845878 5528147
0.78547066 0.0055577988 0.28357613 1712667
0.78812504 0.013171418 0.28455761 1909787
0.79066664 0.018149292 0.28192821 1119502
0.796 0.021688689 0.28507429 856330
0.79300004 0.089365378 0.28492752 10198161
0.79339135 0.095225893 0.28446236 10329747
0.79688901 0.10493849 0.28497618 10526869
0.79832262 0.11534298 0.2856012 10527126
0.79346663 0.12476921 0.2851539 10592919
0.79229629 0.13462596 0.28546542 10593176
0.79423815 0.14546472 0.28515345 10592919
0.79775 0.15421721 0.28406495 10658712
0.78900003 -0.0015914912 0.29180035 5199440
0.79284209 -0.0055081248 0.29615512 5066052
0.78900003 0.0048732301 0.29180035 1777690
0.79124999 0.0056552738 0.29741833 2172191
0.78900003 0.012261483 0.29180035 1975065
0.79170591 0.01519531 0.29607353 2106396
0.79600006 0.020755794 0.29625267 922125
0.79724997 0.095912471 0.29420224 10263955
0.79866666 0.10496268 0.29412973 10395283
0.79671884 0.11519044 0.29500413 10526869
0.79332 0.12468741 0.29525784 10527126
0.79512507 0.13443661 0.29499838 10527383
0.79810524 0.14412516 0.29418582 10592919
0.79900002 0.15176715 0.29175776 10658712
0.79900002 0.17920077 0.29799271 10592921
0.79900002 0.18403283 0.29807061 10658714
0.79400003 0.0054598702 0.30182856 2303778
0.7934286 0.014321843 0.30139932 2106397
0.79900002 0.090041533 0.30204538 10198161
0.79822218 0.11642481 0.30414015 10395797
0.79714996 0.12528987 0.30508178 10395797
0.79811758 0.1342354 0.30407643 10461590
0.79900002 0.14054431 0.30111015 10593176
0.79899991 0.17752212 0.30585825 10658968
0.80000013 0.17354953 0.30446145 10592919
0.79847997 0.18531403 0.30502486 10593177
0.80000001 0.18941338 0.301487 10922143
0.79900002 0.19167058 0.30796853 10527380
0.79400003 0.089478076 0.31687713 10132368
0.79577279 0.094930656 0.3166528 10198161
0.79850006 0.10244799 0.31836814 10198161
0.79900002 0.12620401 0.3104625 10461333
0.79899985 0.17540312 0.31528044 10658968
0.80000001 0.17349446 0.31085107 10593174
0.79810351 0.18509728 0.31494594 10593175
0.79899997 0.19213821 0.31482694 10593173
0.79100001 0.089139991 0.32476038 10066576
0.79193342 0.09480986 0.32495627 10198161
0.79669243 0.10434883 0.32505745 10198161
0.79799998 0.12574652 0.32501748 10461333
0.79790479 0.13430493 0.32560143 10527126
0.79900002 0.14054431 0.32916722 10461333
0.79900002 0.17832789 0.32243353 10592920
0.79899997 0.1847555 0.3230457 10593175
0.79166669 0.089215122 0.33356011 10000782
0.79279166 0.094834708 0.33534917 10066832
0.7966522 0.10421504 0.33460465 10198161
0.79875004 0.12787816 0.33140177 10395540
0.7986666 0.13562527 0.33301944 10395541
0.79893321 0.14377397 0.33599722 10395541
0.79820001 0.1553524 0.33911404 10395540
0.79850006 0.1610187 0.33924183 10527126
0.79425001 0.089506239 0.34673563 10066575
0.79454553 0.095375687 0.34458143 10066576
0.79787499 0.10462717 0.34551477 10132367
0.79883337 0.13739794 0.3484225 10198418
0.79766685 0.14539963 0.34508124 10330004
0.79523343 0.15477395 0.34529924 10330004
0.79711539 0.16425975 0.34489635 10461590
0.79900002 0.17047189 0.34974244 10527383
0.79633337 0.089741029 0.35541019 10001039
0.79703838 0.095276304 0.3546977 10001040
0.79869229 0.10367119 0.35363558 10066833
0.79792863 0.1268781 0.35727653 10263954
0.79627281 0.13497755 0.35532138 10329747
0.79528141 0.14483435 0.35451123 10264211
0.79577279 0.15462802 0.35527441 10264211
0.79790902 0.16421284 0.35444614 10395797
0.80000001 0.16818814 0.35891998 10395797
0.79900002 0.17047189 0.35348338 10461590
0.79414284 0.089228295 0.36461118 9934989
0.79583347 0.095277272 0.36456156 10000782
0.79839993 0.10318319 0.36630017 10066575
0.79762501 0.11649225 0.36656484 10198161
0.79371423 0.12490433 0.3647272 10263954
0.79252928 0.13504136 0.36431539 10263954
0.79437035 0.14510538 0.36486629 10263954
0.79769236 0.15525676 0.36504328 10264211
0.79900002 0.16111952 0.36096528 10461590
0.79862499 0.17740192 0.36640376 10330006
0.79706895 0.18511525 0.36491421 10395799
0.80000001 0.18098572 0.36141703 10395799
0.79754543 0.19434957 0.36641619 9145479
0.79575008 0.089675285 0.37533343 9803660
0.79645848 0.095505528 0.37489143 9935246
0.79825014 0.10510818 0.37497547 10066575
0.79616141 0.11472719 0.37471282 10066575
0.79193103 0.12523371 0.37433106 10132625
0.79184616 0.1353661 0.37456036 10132625
0.79476929 0.14538553 0.37486824 10132625
0.79814285 0.15463182 0.37508073 10198418
0.80000001 0.15944836 0.37405854 10264211
0.79873329 0.17751983 0.3741836 10395541
0.79759997 0.18510896 0.37527406 10329748
0.79768181 0.19429727 0.37480223 9079171
0.79900002 0.20039946 0.37686431 2038295
0.79700005 0.089816153 0.38058546 9606281
0.79890901 0.096152298 0.38498294 9869452
0.79899991 0.10477152 0.3837617 9935245
0.79824996 0.11518305 0.38429841 10066574
0.79570007 0.12505952 0.38462481 10132366
0.7946924 0.13449194 0.3847118 10132624
0.79727286 0.14533338 0.38487437 10198417
0.80000001 0.14821146 0.38950926 10132625
0.79883337 0.15298249 0.38270786 10264211
0.79900002 0.17795378 0.38154048 10198420
0.79757696 0.096059099 0.39486253 9803660
0.79885715 0.1027156 0.39576468 9935246
0.79877782 0.12596048 0.39161548 10132367
0.79866672 0.1354997 0.39228812 10132624
0.79900002 0.14241479 0.39089286 10132623
0.79700005 0.098212212 0.40110919 9737867
0.79776931 0.10527622 0.40451124 9869453
0.79892856 0.11234372 0.40608761 9935246
0.79775006 0.14919455 0.40895507 9935246
0.79426473 0.15562086 0.40606573 10066832
0.79477507 0.16491784 0.4046267 10066832
0.79726094 0.17415895 0.40659195 10198161
0.79900002 0.18262997 0.40959761 10198162
0.7985 0.10657598 0.41284695 9672844
0.79900002 0.11124023 0.41209158 9803917
0.79621744 0.14629042 0.41538215 10001039
0.79173344 0.15501897 0.41483301 10001039
0.79230011 0.16533493 0.41451177 10066832
0.79476929 0.17529672 0.41465706 10132625
0.79714304 0.18473969 0.41517469 10132369
0.79855561 0.19447264 0.41622359 9078910
0.79799998 0.14525814 0.42394179 10001039
0.79642111 0.15510401 0.42545033 10001039
0.79629177 0.16453546 0.4248341 10001039
0.79794997 0.17473128 0.42465925 10066832
0.80000001 0.1772401 0.42883834 9869453
0.79835713 0.18515371 0.42368689 10066832
0.79893327 0.1946474 0.42278048 9276289
0.8003 0.19529155 0.42787546 7828585
0.79800004 0.10814314 0.43523765 9803660
0.79645842 0.11531543 0.43742189 9869453
0.79875004 0.12320431 0.43892005 9869453
0.79775006 0.14919455 0.4388358 9935244
0.79467511 0.15517245 0.43532032 10000782
0.79444438 0.16505753 0.43494308 10001039
0.79781818 0.17353188 0.4357301 10066576
0.79230005 0.11710925 0.44214386 9803662
0.79439402 0.12469023 0.44475907 9869455
0.79762506 0.13213435 0.44763628 9803662
0.7955218 0.14656664 0.44554245 9804431
0.78900003 0.15633242 0.4447988 9869455
0.79027772 0.15350109 0.44294935 9804176
0.79108012 0.16508104 0.4444274 9869455
0.79436362 0.1752333 0.44474575 9935248
0.79567742 0.18436505 0.44550052 10000784
0.7978096 0.19396561 0.44642758 9210497
0.79757148 0.1349622 0.45127481 9869455
0.79800004 0.14223187 0.45111674 9935248
0.79500002 0.18822955 0.45035255 10000784
0.79550004 0.19114193 0.45063579 9934991
