# .PCD v0.7 - Point Cloud Data file format
VERSION 0.7
FIELDS x y z rgb
SIZE 4 4 4 4
TYPE F F F U
COUNT 1 1 1 1
WIDTH 427
HEIGHT 1
VIEWPOINT 0 0 0 1 0 0 0
POINTS 427
DATA ascii
0.43160003 -0.021282386 -0.040636621 14999767
0.42812502 -0.013185423 -0.041654527 12960956
0.43000004 -0.017980194 -0.040788244 13750472
0.4248409 -0.0045923055 -0.042717163 12105392
0.421303 0.005064311 -0.042922605 11973034
0.41900009 0.016810793 -0.040235262 11446432
0.42058492 0.015202499 -0.043175567 11314845
0.41900009 0.023677001 -0.040235262 10395798
0.42045286 0.025431331 -0.043161739 12105133
0.42158005 0.034861304 -0.042496476 12038826
0.42505565 0.043536644 -0.041645616 12566196
0.43799996 -0.042484384 -0.03352911 13881287
0.43632102 -0.035148818 -0.034310475 12695727
0.43267769 -0.024898073 -0.034945548 12630450
0.42725685 -0.014533239 -0.034366358 12829113
0.42999995 -0.018874982 -0.036090598 11709862
0.42340997 -0.0053230166 -0.035212446 12631220
0.41834992 0.0077977227 -0.033172451 11644840
0.4206714 0.0034682343 -0.035908774 11447205
0.41731292 0.015320553 -0.034661509 12170412
0.42000002 0.010951549 -0.039348066 9996417
0.41702992 0.025030928 -0.034682058 12500147
0.41771153 0.033366553 -0.033118337 12762802
0.42081258 0.036732126 -0.036757331 12959922
0.42416215 0.044116937 -0.035180096 12105128
0.45086366 -0.061742701 -0.022571487 14737108
0.44722229 -0.05282804 -0.02367384 12959414
0.4508462 -0.057173077 -0.024297254 14341837
0.43677777 -0.043490972 -0.025130294 13946816
0.44171429 -0.048411187 -0.024343567 12696498
0.43379989 -0.034901198 -0.024905194 13156789
0.42842427 -0.022565341 -0.023332264 12302253
0.43066078 -0.026543839 -0.025550917 12236461
0.42555767 -0.015180201 -0.02519042 12105133
0.41805559 -0.0020949235 -0.022312131 12564914
0.42139035 -0.0059915194 -0.02576627 11907497
0.41640767 0.0052773468 -0.024632892 11775912
0.42014289 0.00097885856 -0.028823525 9342850
0.41381031 0.015146893 -0.024729932 11841703
0.41357014 0.024824118 -0.024715841 12105130
0.4156 0.034679964 -0.024836006 12105644
0.41788888 0.04106117 -0.023065282 12303535
0.42233336 0.045380976 -0.025438551 11448227
0.44725007 -0.062416341 -0.013736146 13617858
0.45000002 -0.063588455 -0.018982563 12564655
0.43842858 -0.051616885 -0.01116371 12499633
0.44553947 -0.055745453 -0.01566354 11840679
0.43410581 -0.044392545 -0.014424274 14407115
0.4407143 -0.049085505 -0.018002596 14932432
0.42835999 -0.033797771 -0.011411952 13223870
0.43097067 -0.035369366 -0.016061662 13157819
0.42649996 -0.024865657 -0.014745235 12039336
0.43000001 -0.028650552 -0.018340221 12960694
0.41800007 -0.011934423 -0.012088693 14342352
0.4228 -0.015765419 -0.01591978 12104362
0.41596594 -0.0047736573 -0.014688508 12170670
0.42050004 -0.0086418297 -0.018477129 10261388
0.40881246 0.0076685981 -0.011383661 9735301
0.41220197 0.0044811633 -0.015577214 12038828
0.40822446 0.015388723 -0.012905532 11380381
0.41090465 0.014423397 -0.017610075 12104877
0.40820348 0.02451583 -0.012906429 12236715
0.41072714 0.025592094 -0.017567717 12368560
0.4085882 0.032823421 -0.011440826 10659227
0.41217074 0.03553281 -0.015661834 12171695
0.41648391 0.043700051 -0.014679621 11382435
0.42062503 0.04604888 -0.018975094 9474439
0.43760714 -0.063081287 -0.0017788664 15854818
0.44284004 -0.062849052 -0.0072838934 14209225
0.42900002 -0.052084468 -1.936998e-05 11183003
0.43533844 -0.054947127 -0.0042450484 12696241
0.44100001 -0.058015451 -0.0080224872 12629678
0.42588735 -0.044196688 -0.0036244637 13882310
0.43074998 -0.046905335 -0.0079866368 15394263
0.41859999 -0.03141946 -0.00021507773 14474965
0.42396832 -0.035178404 -0.0047346922 13618625
0.41691488 -0.023770737 -0.0021199128 13354942
0.42230156 -0.025823018 -0.0070706592 12367020
0.40900001 -0.010399757 -1.8466952e-05 7499113
0.41456425 -0.01469882 -0.0045962883 12302255
0.42050004 -0.018444745 -0.009248157 11511970
0.40816686 -0.0040902519 -0.0021701662 12170413
0.4119356 -0.0059827403 -0.0068980958 11578534
0.40648717 0.0051004291 -0.00457153 11512997
0.41016671 0.000772739 -0.0089807175 11513509
0.40431622 0.015109301 -0.0046490086 11841446
0.40409634 0.025018549 -0.0048755482 12236203
0.40611535 0.034629263 -0.0045430982 12105645
0.41050005 0.038893204 -0.0089881457 10986132
0.40849996 0.041185919 -0.0016586619 11513248
0.41234854 0.044220578 -0.0055697756 11315615
0.42706671 -0.063649252 0.0083089648 13618118
0.43238473 -0.063758932 0.0034769387 13552321
0.41757149 -0.05167548 0.0091970656 15066074
0.42455006 -0.054578349 0.0062004095 13156537
0.43116665 -0.05718689 0.0025016132 11774883
0.41549155 -0.044364359 0.0071113054 14012871
0.42158347 -0.045815807 0.0025012004 13948107
0.40857142 -0.033071987 0.0090677114 10460824
0.41437346 -0.035244007 0.0048058182 12960186
0.41999999 -0.038209826 0.00096426392 15395038
0.40810269 -0.024635598 0.0080637876 12368818
0.41250798 -0.025330635 0.0034548878 11974061
0.40682238 -0.01458074 0.0059519541 12894390
0.41081253 -0.017059365 0.0017838888 11906469
0.40431011 -0.0050812433 0.0051758559 12235948
0.39858833 0.0069341748 0.0086539593 9472901
0.40176338 0.0044342643 0.0044950647 11907754
0.39785725 0.015462545 0.0073309089 11314588
0.40044427 0.014676363 0.0028100864 12498606
0.39782465 0.02471978 0.0072176713 11774882
0.40035546 0.025310969 0.0026050075 12697011
0.39879999 0.031591523 0.0083839055 9606540
0.40213692 0.035246909 0.0048315958 12434865
0.40656903 0.04316267 0.0050754161 11578785
0.41083336 0.047260892 0.0014239075 11184029
0.42675003 -0.071041979 0.015789822 13025467
0.41642109 -0.062720217 0.018090326 13947338
0.42450005 -0.065640889 0.013870912 13947081
0.40771431 -0.052046884 0.018295374 13355451
0.41392541 -0.055160481 0.014724519 13420735
0.42066669 -0.058404274 0.011797685 15065304
0.40603587 -0.044592552 0.016311333 13749186
0.41112506 -0.046347257 0.011649854 12367788
0.40411296 -0.035040416 0.015018912 13091769
0.39883336 -0.023447203 0.019355673 10788500
0.40263095 -0.025237061 0.014664761 12631475
0.3978537 -0.014048959 0.018153764 12170667
0.40162498 -0.01529253 0.013326341 12038568
0.39702639 -0.0044955532 0.01630263 12499118
0.40044105 -0.0061304467 0.011698782 11182228
0.39580822 0.0047954973 0.014835251 11578532
0.40000001 0.00012956756 0.010282419 11709347
0.3941983 0.014891269 0.014736182 11447204
0.39444619 0.025062351 0.014745504 11710375
0.39644435 0.034603424 0.015245868 11974571
0.40018186 0.038284604 0.011138371 9803144
0.39850003 0.040897209 0.018265825 12895414
0.40151522 0.043826252 0.01518767 11382176
0.40600002 -0.07020203 0.029445721 9999762
0.4154546 -0.071039394 0.024464035 13552064
0.40584785 -0.063608915 0.027194938 14275275
0.41351029 -0.065641589 0.022618068 13552066
0.39796159 -0.05337029 0.028861646 12829366
0.40381178 -0.055369299 0.024378261 13881028
0.41033337 -0.059104204 0.020473963 15722977
0.39740393 -0.044563551 0.027727323 12236204
0.40130162 -0.04538434 0.022927273 14276557
0.39647958 -0.034622632 0.025866797 12631990
0.40022227 -0.037035972 0.021478845 11973034
0.39518186 -0.024853986 0.024947073 12236716
0.39382467 -0.014908484 0.02474831 12367532
0.38889998 -0.0024236306 0.028933575 8814713
0.39237046 -0.005444766 0.024534611 12236205
0.38864002 0.005019879 0.028294683 10985880
0.39155555 0.0045492179 0.023074877 11447457
0.38823283 0.014841689 0.027394606 11709603
0.39083067 0.014547704 0.022124369 10921372
0.38855001 0.02398875 0.027768854 11578530
0.39102826 0.025372934 0.022722503 11448747
0.38900003 0.030860644 0.028895766 8223858
0.3926121 0.035154667 0.024679232 12105642
0.39616388 0.043234449 0.025698382 11776678
0.40043473 0.046676069 0.022438796 10066061
0.39771429 -0.071429074 0.039351277 12762292
0.40289286 -0.071618095 0.0345002 14012616
0.39688709 -0.063818358 0.03691661 13749699
0.40170902 -0.0665396 0.032993883 13026233
0.39392918 -0.05496376 0.035085894 13355198
0.38865381 -0.04403786 0.038930152 12499889
0.39285868 -0.045162085 0.034028262 13354684
0.38783333 -0.03478609 0.037824135 11643295
0.39182609 -0.03515688 0.032733615 13487040
0.38717589 -0.025064789 0.036538791 12039852
0.39100009 -0.025207274 0.031374257 11841702
0.38688877 -0.01524765 0.035730343 12171438
0.39028567 -0.015624282 0.030655066 11053986
0.38628459 -0.0053033526 0.03486082 11578531
0.39000002 -0.009916639 0.030111292 8289396
0.38499969 0.0046804245 0.035144042 11184544
0.38467443 0.014953074 0.035023969 11513511
0.3852267 0.025128685 0.035144914 11645607
0.38739187 0.033971351 0.035510674 12039594
0.39063635 0.037539296 0.031448305 9867398
0.38876468 0.042152435 0.038581155 13421502
0.39246351 0.043356586 0.03318328 10723733
0.38854548 -0.07222756 0.049347714 15131096
0.39379415 -0.071750164 0.04427442 13684164
0.38707146 -0.064393118 0.047696184 12828341
0.39268175 -0.065576851 0.043126378 13618114
0.38565528 -0.05464555 0.045379564 13618368
0.39075002 -0.057656974 0.040840734 14933458
0.38405696 -0.045044839 0.04524463 13091512
0.37900001 -0.031374462 0.049668655 12235943
0.38262498 -0.034909375 0.045049381 12565167
0.37899998 -0.026050985 0.049668655 10656656
0.38218558 -0.024841689 0.044836022 12301996
0.37899998 -0.013895718 0.049579937 10065036
0.38192618 -0.015164685 0.044728845 12171182
0.37900004 -0.0048679924 0.049114123 9142134
0.38154638 -0.0053111929 0.044115901 11842217
0.37865114 0.0053577134 0.048447076 11051159
0.38119817 0.0048769489 0.043458764 11184544
0.37861359 0.015190816 0.048287462 11313561
0.38096198 0.015227765 0.043510307 11512738
0.37882358 0.02292023 0.049019236 10326920
0.38146952 0.025432851 0.044441398 11907495
0.38373002 0.03506 0.045103338 12105130
0.38681358 0.043026444 0.045018043 11776677
0.38496831 -0.072587989 0.055421446 13222585
0.37838101 -0.061588231 0.057853993 13487295
0.3827019 -0.065584064 0.054529861 13289404
0.37784865 -0.054513864 0.056625947 13026230
0.38085368 -0.056091104 0.051518992 13947077
0.37756377 -0.044957109 0.056103218 11973545
0.38045457 -0.045300495 0.051194713 14408400
0.3769998 -0.03500028 0.055317249 12433838
0.38000003 -0.038425673 0.050837558 14342349
0.37711859 -0.025003698 0.055185802 12104360
0.37731817 -0.014894435 0.055181548 11841959
0.37688604 -0.0051726452 0.055118367 11250080
0.37655523 0.0049695061 0.055068806 10921373
0.37666634 0.015113575 0.055085719 11183516
0.37763825 0.024810463 0.055231582 11578530
0.38000003 0.029479455 0.050689295 11774877
0.37849998 0.031881962 0.056573573 12960181
0.38122472 0.03628663 0.054238029 11316127
0.3833333 0.042477671 0.0549444 11118746
0.39707318 -0.082649194 0.066521227 12499890
0.40066671 -0.08303567 0.062303185 14802390
0.37703228 -0.071998075 0.067286342 12631220
0.38219348 -0.072872303 0.062233284 12301743
0.39350006 -0.078865707 0.06538891 12433585
0.37608936 -0.064605385 0.06528797 13026232
0.3804445 -0.068356484 0.061237641 15592415
0.37468797 -0.055181079 0.064977437 12894645
0.37446585 -0.044989347 0.064883657 11710116
0.3738943 -0.03489124 0.065187991 11776166
0.37398612 -0.024863182 0.065170147 11907237
0.37401539 -0.014784575 0.065208994 11973544
0.37396246 -0.0051313667 0.065199643 11249567
0.37371552 0.0049319924 0.065158144 11118492
0.37367457 0.014992728 0.065148979 11578531
0.37450022 0.024810579 0.065186612 11842215
0.37733835 0.034779482 0.06498421 11184286
0.38000003 0.038968381 0.060771275 11776935
0.37836364 0.041350231 0.067620248 10987418
0.38084614 0.042337146 0.062494017 10066062
0.38812503 -0.081536599 0.078575134 13617343
0.39288902 -0.083668947 0.074571036 12828083
0.37412345 -0.073030978 0.075269394 12104876
0.38250002 -0.078229979 0.07340876 11840161
0.39350003 -0.079094931 0.070452727 13946308
0.37204325 -0.065180086 0.075026035 12828084
0.36900002 -0.059485134 0.079456218 15131351
0.37202644 -0.055022422 0.075008281 12434094
0.37294322 -0.044979136 0.074525006 11907494
0.37276021 -0.034950923 0.075127214 11644836
0.37300009 -0.025201971 0.075078346 11315358
0.37287992 -0.015173052 0.075014129 10000014
0.37201613 -0.0050027771 0.075083815 9671048
0.37134704 0.0049006771 0.075177014 10065548
0.37123835 0.014914765 0.075149119 10854805
0.37243164 0.024998944 0.075101398 11249563
0.37524003 0.035034575 0.074934788 11249822
0.37777784 0.041589994 0.074022464 11579042
0.38709843 -0.082933359 0.08491791 11512226
0.39000002 -0.08501064 0.080554374 14078409
0.36791435 -0.072574057 0.087611705 12170155
0.37110808 -0.07271868 0.082984805 12367533
0.38369229 -0.079333648 0.085576586 12236202
0.36773503 -0.064452916 0.085822977 12565169
0.37011757 -0.067209035 0.081327602 13683648
0.36818558 -0.055948175 0.085951425 11775908
0.37048894 -0.0524964 0.082955949 13354942
0.36899999 -0.04849086 0.089272521 10723987
0.37106156 -0.044955194 0.084569938 12039852
0.37234053 -0.035174448 0.084968261 10592403
0.37362877 -0.024944708 0.085263297 6907229
0.3736169 -0.014978087 0.085153759 6974307
0.37188894 -0.0051779668 0.0850197 9670277
0.37062091 0.0048890924 0.085010067 9736325
0.36899999 0.017882146 0.089174367 12566195
0.370307 0.014675565 0.084685624 9999240
0.36899999 0.021715418 0.089390337 12368046
0.37076128 0.025092861 0.084760353 11052440
0.37355918 0.034972671 0.084970243 11183771
0.37664995 0.041520566 0.082733884 11579300
0.37666669 -0.081297033 0.096390791 10789271
0.38485721 -0.082313456 0.09110707 13223100
0.36548394 -0.073354155 0.095193341 12564912
0.37253851 -0.078441016 0.09457273 11446946
0.384 -0.079882242 0.090776697 13288379
0.36460447 -0.065162681 0.095096789 12302511
0.36651379 -0.055286851 0.095009655 12170153
0.36816263 -0.045766894 0.095607512 12301737
0.37011993 -0.041920301 0.092069872 11644577
0.37124285 -0.035073414 0.095144384 10131854
0.37129545 -0.025088651 0.095155664 2304291
0.37151697 -0.015022733 0.095097825 2501670
0.37192184 -0.0050409236 0.095088482 9407104
0.36900017 0.0073605021 0.097622171 10131597
0.37020001 0.0041126925 0.093934625 9934220
0.3685998 0.015451622 0.095615879 10132114
0.36999995 0.011936976 0.090931848 12237747
0.36848995 0.024179729 0.095881119 10987163
0.37021619 0.027854469 0.092576958 11907750
0.37185714 0.034727678 0.094884366 11447454
0.37437505 0.040874876 0.092444234 12830140
0.36600003 -0.080850236 0.10622824 13749698
0.36426601 -0.074722826 0.10498057 11841444
0.36345109 -0.064969525 0.10506235 11579045
0.36543587 -0.054979213 0.10498837 11710117
0.36773923 -0.045109477 0.10508534 12039081
0.36899999 -0.038861059 0.10564124 11184284
0.37047949 -0.034500737 0.10507373 8355702
0.36855653 -0.02483131 0.10611428 2172704
0.37005708 -0.025201716 0.10161372 2238753
0.36856377 -0.016885217 0.10711189 2237985
0.37045482 -0.013910979 0.10385471 2895913
0.37099978 -0.0051956451 0.10486642 8749688
0.36885703 0.0067418572 0.10467525 9933961
0.37000006 0.0016993487 0.10543603 9407876
0.36786473 0.015223536 0.10508528 10196875
0.36766931 0.02506307 0.10510746 10789527
0.36881259 0.031364013 0.106342 10393485
0.37052408 0.03541711 0.1044835 11513507
0.36481968 -0.074218787 0.11296953 10065292
0.36497575 -0.064976059 0.11496479 10460305
0.36700007 -0.055321202 0.11470865 11118233
0.37000003 -0.050984569 0.11902071 8947324
0.36832395 -0.045748003 0.11296408 9802632
0.37062761 -0.044265423 0.11764444 10855578
0.36891666 -0.030107917 0.11527828 2370597
0.37105086 -0.035370003 0.11499932 7105635
0.36735988 -0.024737464 0.11507039 1910048
0.36747813 -0.015432008 0.11515567 2304293
0.37016663 -0.010495442 0.11306909 3816758
0.37169456 -0.0050747558 0.11473577 7237735
0.36899999 0.0086139096 0.11084224 9211522
0.37163466 0.0046037752 0.11533679 7434600
0.36856008 0.01575209 0.11195915 10789784
0.37072739 0.014466303 0.11680695 7236962
0.368341 0.025694137 0.11212169 12040109
0.37110609 0.024800498 0.11711103 7829101
0.36891666 0.031282742 0.11160912 11842214
0.37054551 0.033509202 0.11472528 10131600
0.36766669 -0.06314107 0.12048341 10329490
0.36885715 -0.055389736 0.12050331 7630694
0.37044448 -0.051719245 0.12100843 7039326
0.37230012 -0.043682273 0.12153806 7105379
0.36657146 -0.030528532 0.12438816 2041632
0.37296966 -0.035843324 0.12177137 6711392
0.36572734 -0.026460074 0.12318254 1778203
0.36666673 -0.014661768 0.12067996 2502953
0.36900002 -0.0093826661 0.1200565 8093042
0.37400001 -0.0025054764 0.12080774 7369062
0.37389997 0.0063351113 0.12188445 9079681
0.37261119 0.013104762 0.12133075 8948351
0.37281826 0.024556523 0.12042598 9540230
0.36200005 -0.030702615 0.13570049 1975325
0.36140952 -0.02516339 0.13637818 1843996
0.3612318 -0.01558206 0.13696541 2568233
0.36156002 -0.030962989 0.14448947 1119760
0.36119995 -0.024907937 0.14482069 1185553
0.36097237 -0.015742123 0.14490297 2104341
0.3650001 -0.032131039 0.15668721 1777435
0.36576962 -0.025124395 0.15576515 528392
0.36399084 -0.015443687 0.15540303 2299408
0.36310929 -0.032628722 0.16367394 1580823
0.36417064 -0.024940979 0.16523661 988685
0.36460799 -0.015763458 0.16523412 1381646
0.35100001 -0.036040988 0.17993587 3289901
0.36293846 -0.032600045 0.17551516 1054223
0.35776195 -0.024491504 0.17931092 659722
0.36145499 -0.024956545 0.17447515 1252115
0.35900003 -0.0192135 0.17983486 593930
0.36218476 -0.016595623 0.17548501 1054737
0.34573591 -0.033432182 0.18550581 1778200
0.35382503 -0.032558683 0.18062495 1251858
0.36072731 -0.033663619 0.18077585 856844
0.34571669 -0.025053417 0.18557 1580566
0.35302949 -0.02523987 0.18060124 1120527
0.34535101 -0.016627336 0.18594757 1514516
0.35471424 -0.016742105 0.18155512 1054478
0.36185721 -0.012987249 0.18190448 1646876
0.36300004 -0.0088063776 0.18311208 9080453
0.34111103 -0.033186905 0.19159013 1711896
0.34158447 -0.024737282 0.19169037 1645846
0.3424885 -0.017283915 0.1917185 1580056
0.77571434 0.18781598 0.19816191 11053728
0.7772857 0.1926149 0.19830397 8880766
0.78531575 0.19609553 0.1942472 6511702
0.79000002 0.19999155 0.19045296 2826781
0.78483337 0.20235936 0.19839315 3222817
0.7742666 0.18694837 0.20478724 11119264
0.77710003 0.19290695 0.20408085 7696236
0.78133339 0.19749284 0.20543744 2892834
0.78479177 0.20364779 0.20481537 2893594
0.77900004 0.18991224 0.21789137 11382694
0.77900004 0.19173589 0.2188032 11316390
0.78278577 0.19685844 0.21580634 2959652
0.78692311 0.20233156 0.21549787 2893853
0.77672726 0.18853158 0.22494465 11053729
0.77752393 0.19458243 0.22506237 5460043
0.78150004 0.19875509 0.2213349 2893600
0.77900004 0.20085417 0.22245049 2762521
0.78100002 0.20136984 0.22119328 2696728
0.78399998 0.19724633 0.23305936 3025445
0.79000002 0.19721743 0.23853748 6512732
0.78900003 0.18311483 0.24931791 10987677
0.79166669 0.18713367 0.24768843 11053213
0.78900003 0.17783751 0.25723389 10856091
0.78900003 0.18265305 0.25439733 10921628
0.79141182 0.18694705 0.25519967 10987164
0.79600006 0.15566739 0.26718193 10724505
0.79354167 0.16465932 0.26654437 10790298
0.79092008 0.17519046 0.26496127 10790299
0.79247832 0.18473168 0.26493749 10921886
0.79529041 0.11551242 0.27478459 10527126
0.79535717 0.15459868 0.27493256 10658713
0.79460007 0.16488105 0.27527088 10724505
0.79416001 0.17501771 0.27512103 10790299
0.79630452 0.1847325 0.27513382 10790299
0.79121739 0.10543323 0.28577775 10461333
0.79399997 0.11565884 0.28451109 10527126
0.79620004 0.15496239 0.2851454 10658712
