# .PCD v0.7 - Point Cloud Data file format
VERSION 0.7
FIELDS x y z rgb
SIZE 4 4 4 4
TYPE F F F U
COUNT 1 1 1 1
WIDTH 429
HEIGHT 1
VIEWPOINT 0 0 0 1 0 0 0
POINTS 429
DATA ascii
0.43100002 -0.021048944 -0.040378612 15262939
0.4280417 -0.013392336 -0.041437197 13026752
0.43000001 -0.018735172 -0.040536582 14276046
0.42516661 -0.0048858128 -0.042859916 12105393
0.42147711 0.0051415497 -0.042902406 11973036
0.41900003 0.018282123 -0.040235266 10592411
0.42046434 0.015180745 -0.043013666 11446432
0.41900012 0.024739625 -0.04039875 11184543
0.4200834 0.025316156 -0.043371841 12236718
0.42134693 0.034785133 -0.042433448 12038570
0.42443752 0.042554095 -0.041937139 12631733
0.43749997 -0.042618316 -0.033198502 13881029
0.43605074 -0.035076164 -0.034199405 12695726
0.43230116 -0.024888074 -0.034625236 12499122
0.42711851 -0.014642993 -0.034451656 12631734
0.42999995 -0.019210527 -0.03653799 12432815
0.42328003 -0.00532156 -0.035202283 12565684
0.41844437 0.007862201 -0.032945834 11776427
0.42064863 0.0036736927 -0.035883132 11447461
0.41750988 0.015363084 -0.034632221 12104876
0.42000002 0.011443162 -0.039348066 10918032
0.41705999 0.025032172 -0.034684211 12565682
0.41786543 0.033114806 -0.033394668 12697268
0.42087504 0.03702458 -0.036475528 12828594
0.42388725 0.043917116 -0.035188809 12170409
0.4508 -0.061413698 -0.023170061 15196888
0.44740006 -0.052897952 -0.02356663 12893364
0.45092851 -0.057159808 -0.024340276 14473165
0.43665674 -0.043682631 -0.025088735 13946817
0.44193754 -0.048613664 -0.024201352 12564398
0.43393967 -0.034911595 -0.024912478 13222069
0.42862964 -0.022048721 -0.023397364 12170926
0.43082547 -0.026326586 -0.025252689 12302256
0.42549989 -0.015185456 -0.025235707 12105391
0.41833338 -0.0021508883 -0.021891333 11973032
0.42143542 -0.0058455896 -0.025730733 11973291
0.41642001 0.005392882 -0.024543209 11775655
0.42020002 0.0011193382 -0.028546384 10197904
0.41391015 0.015150252 -0.0247363 11841448
0.41354993 0.024823081 -0.024714231 12170924
0.41543457 0.034621645 -0.024781773 12302253
0.42000002 0.039465148 -0.02951579 10327694
0.41789478 0.04112203 -0.023087997 12369074
0.42243284 0.045384698 -0.0254049 11382435
0.42650005 0.050727159 -0.02331551 11842986
0.44820461 -0.062812075 -0.014428139 13486270
0.45000002 -0.067275554 -0.011608358 13814723
0.43849999 -0.051441997 -0.011440455 12500146
0.44525018 -0.055499513 -0.01560113 11841190
0.43395177 -0.044310465 -0.01432519 14275787
0.44062501 -0.048983533 -0.01794361 15064273
0.4283478 -0.033957265 -0.011355668 13421248
0.43107253 -0.035330623 -0.016038472 12960183
0.42642862 -0.024772607 -0.014532653 12038824
0.43000004 -0.028270267 -0.018027047 12434096
0.41800007 -0.012015849 -0.01168085 14277071
0.42270452 -0.015624776 -0.015847715 12170153
0.41589782 -0.0047508553 -0.014708718 12170926
0.42050001 -0.0088057006 -0.018313261 10196365
0.40874997 0.0075474591 -0.011645121 10327952
0.41234446 0.0043648775 -0.015705235 11907499
0.40827623 0.015391083 -0.01290703 11315100
0.41092849 0.014424409 -0.017611137 12039084
0.40824261 0.024633974 -0.012965857 12302251
0.41076189 0.025456181 -0.017695071 12433583
0.40873331 0.032538485 -0.011437316 10461849
0.41227707 0.035488464 -0.015557782 12237487
0.41675475 0.043121688 -0.014620233 11645609
0.42100009 0.046988089 -0.01712901 10001041
0.42500001 0.050879229 -0.019917842 12238001
0.43738461 -0.062789567 -0.001795681 15789538
0.44377783 -0.063272081 -0.0073388396 13947080
0.42833337 -0.051000793 -0.0010236365 13421505
0.43529689 -0.055101793 -0.0042471671 12630963
0.44099998 -0.057952926 -0.0081866588 12564398
0.42598674 -0.044287674 -0.0037395167 13947848
0.43082353 -0.047265649 -0.0080298651 15460571
0.41900003 -0.030762207 -1.8918467e-05 14475478
0.42399988 -0.03505842 -0.0046552578 13618626
0.41691488 -0.023770986 -0.0021196145 13420476
0.42214283 -0.025813444 -0.0070679043 12432811
0.40900001 -0.010399757 -1.8466952e-05 7303269
0.41453478 -0.014697534 -0.0045957551 12302255
0.42050004 -0.018444745 -0.009248157 12169385
0.40816286 -0.0040031681 -0.0019533078 11907498
0.41192538 -0.0059007355 -0.006687392 11644841
0.40653926 0.0051009757 -0.0045718178 11447718
0.41033337 0.00077318313 -0.0089846263 11513510
0.40449101 0.015074122 -0.004642278 11709860
0.4043391 0.024989629 -0.0048860437 12236203
0.40620196 0.034636144 -0.0045446083 12105645
0.4106667 0.038909256 -0.0089920545 10985362
0.40849999 0.041493427 -0.0015134771 11644834
0.41219297 0.043880194 -0.0056308112 11512736
0.42778569 -0.06356404 0.0082758302 13486789
0.43181086 -0.063759729 0.0040155333 13684421
0.41757149 -0.05167548 0.0091970656 15197148
0.42477193 -0.054610647 0.006042989 13156537
0.43121743 -0.057359692 0.0025676598 11774884
0.41546679 -0.044365562 0.0070562647 13947079
0.42157155 -0.045829799 0.0024603715 14013900
0.40864283 -0.033624444 0.0092059961 10197139
0.41448793 -0.035045102 0.0048424094 13025979
0.42039999 -0.038050041 0.0011618278 14539216
0.40805885 -0.024397694 0.0082403412 11974315
0.41264182 -0.02536086 0.0037232579 12237488
0.40675598 -0.014553857 0.0061185574 12960440
0.41085005 -0.016700475 0.0019042445 11906724
0.40420991 -0.0050799404 0.0051737302 12170411
0.3985883 0.0069341753 0.0086539602 9341573
0.40162385 0.0044327835 0.0044937376 11907756
0.39789465 0.015472539 0.007284326 11249051
0.40041506 0.014649359 0.0027748442 12433069
0.39785194 0.024656542 0.0073446226 11577760
0.40041658 0.025361633 0.002753638 12697267
0.398875 0.031644277 0.0086191762 9080711
0.40204126 0.035165492 0.0048860135 12303538
0.40650007 0.042887241 0.0048884642 11579042
0.41050005 0.047221962 0.0014229472 11842729
0.42738459 -0.070974126 0.015904667 13420480
0.43000001 -0.071331993 0.012815215 14341324
0.41626665 -0.062429331 0.018299671 14144717
0.42532256 -0.065775685 0.013942287 13618116
0.40780002 -0.052137338 0.018451985 13157816
0.41391054 -0.055086836 0.014782313 13486272
0.42109999 -0.058322795 0.011810151 15065049
0.40619063 -0.04457552 0.016306389 13749443
0.41112503 -0.046467911 0.011690136 12235948
0.40411299 -0.035040312 0.015018689 13025977
0.39870593 -0.02403016 0.019198313 10590606
0.40257159 -0.025210259 0.014441456 12828597
0.39800003 -0.01405371 0.018160431 12104876
0.40149999 -0.015287748 0.013322513 12104617
0.39697501 -0.0045202058 0.016123071 12433581
0.40036663 -0.006276587 0.011540779 11050644
0.39580986 0.0047571776 0.014796346 11578532
0.39425606 0.01489384 0.0147383 11447460
0.39452076 0.025066702 0.01474832 11644839
0.39634728 0.034463879 0.015357173 12040365
0.40020004 0.038229696 0.011536258 9934732
0.39833337 0.040952481 0.01852756 12829622
0.4015429 0.043883827 0.015151801 11316385
0.40700001 -0.070374951 0.028082034 12829114
0.41700003 -0.070151649 0.022433875 13025977
0.40541312 -0.063433893 0.026915872 14078153
0.41365004 -0.06543377 0.02210488 13683651
0.39796311 -0.053320952 0.028792512 12895158
0.40365896 -0.055435594 0.02437973 13749699
0.41033337 -0.059104204 0.020473963 15591903
0.39747074 -0.044517078 0.027765542 12104617
0.40134376 -0.045427192 0.022981862 14342350
0.3964445 -0.034653489 0.025837505 12697271
0.4001177 -0.036952529 0.02136011 11907754
0.39513198 -0.024849989 0.024943398 12236460
0.3938596 -0.014910545 0.024749726 12367532
0.38899997 -0.003351046 0.028875066 8552313
0.39233002 -0.0054191872 0.024441341 12302253
0.38854906 0.005190352 0.028267886 10854551
0.39149377 0.0043791411 0.023105145 11578530
0.38820478 0.01479781 0.026968852 11710630
0.39091831 0.014543712 0.021738099 10395800
0.38846979 0.024185147 0.027621087 11776165
0.39095452 0.02533884 0.02249971 11251623
0.389 0.031202139 0.028554268 10066319
0.39256245 0.03526834 0.024541119 12105641
0.39601666 0.043116469 0.025560586 11908265
0.40025005 0.04658949 0.022313287 9408131
0.39775002 -0.071452186 0.039204918 12762805
0.40303847 -0.07154008 0.034229543 13815237
0.39691529 -0.063878186 0.037113599 13881029
0.40189645 -0.066414624 0.033036586 13026234
0.38900003 -0.050870731 0.039140645 14079698
0.39389277 -0.054989222 0.035041817 13354942
0.38864285 -0.044228952 0.03894151 12500146
0.39300999 -0.045153487 0.033994168 13354685
0.3878032 -0.034747072 0.037766263 11643296
0.39195585 -0.035202231 0.032713801 13420992
0.38735637 -0.025119392 0.036727164 12040109
0.39092693 -0.025119994 0.031542521 11973545
0.3870959 -0.015123046 0.03554206 12105645
0.39006251 -0.016253607 0.030515552 11119008
0.38637388 -0.005270374 0.034831181 11578274
0.39000002 -0.009916639 0.030111292 8486775
0.38497552 0.0047168271 0.035186827 11250081
0.38451552 0.014976152 0.035081688 11447975
0.38516256 0.025050683 0.035178881 11645351
0.38772014 0.034301598 0.035464801 12039081
0.39056522 0.037893031 0.031862959 10459278
0.38886952 0.042081788 0.038177066 13618626
0.39241034 0.042977642 0.032997355 10526869
0.38836363 -0.07211227 0.049159169 14868693
0.39381251 -0.071665086 0.044164535 13486785
0.38692594 -0.064408869 0.047784474 12499633
0.39286759 -0.065568283 0.043215532 13618114
0.38571188 -0.054658487 0.04534293 13552577
0.39066669 -0.0576449 0.040832151 14867921
0.38393512 -0.045025848 0.045271862 13025463
0.37900004 -0.030930839 0.049668655 12236206
0.38258898 -0.034891035 0.045085009 12499631
0.37899998 -0.024720116 0.049668659 10590094
0.38227248 -0.024934493 0.044716213 12367789
0.37899998 -0.012890174 0.049520779 10064519
0.38183731 -0.015232633 0.044883948 12039595
0.37895244 -0.0047781151 0.049197666 9207926
0.38156772 -0.0053172861 0.044243947 11776425
0.37856817 0.0053186212 0.048402563 10985879
0.38116005 0.0048883492 0.043416195 11119006
0.37855813 0.015106281 0.04831126 11313304
0.3809607 0.015296157 0.043643955 11578530
0.37878951 0.022805436 0.04884721 10721936
0.38165489 0.025505913 0.04440384 11841959
0.38391921 0.035046134 0.045121998 12171435
0.38707805 0.043099672 0.044968612 11710884
0.39000002 0.046689175 0.04015426 13487813
0.38503331 -0.072556272 0.055439882 13223099
0.37845838 -0.061970472 0.057939883 13486527
0.38266665 -0.065627649 0.054400522 13289404
0.37782297 -0.054615021 0.056761291 12960182
0.38086662 -0.055732891 0.051555905 14013385
0.37751791 -0.044951655 0.056096394 11973543
0.38027278 -0.045279909 0.051170465 14408913
0.37721431 -0.035018642 0.055389684 12433581
0.38000005 -0.038002063 0.050816376 14211020
0.37705576 -0.024999848 0.05517628 12038823
0.37740123 -0.014897671 0.055193543 11776423
0.37686351 -0.0051726708 0.055114262 11315872
0.37646514 0.0049683228 0.055055827 10987165
0.3766816 0.015114589 0.055088352 11249053
0.37762552 0.024844235 0.055266276 11512737
0.38000003 0.029479455 0.050689295 12300709
0.37845245 0.032313645 0.057041708 13025974
0.3813448 0.036185663 0.0539224 11184285
0.38347459 0.042700712 0.054987252 11053210
0.39684448 -0.082741044 0.066516243 12565683
0.40000001 -0.082274266 0.062253013 14737110
0.37696663 -0.071947239 0.067341328 12565427
0.38212493 -0.073121846 0.062484264 12235950
0.39410001 -0.079123765 0.066317298 12170413
0.37618884 -0.064712763 0.065174781 13026489
0.38049999 -0.068762369 0.061147768 15329502
0.37465632 -0.055154417 0.065023631 12960180
0.37448475 -0.044954479 0.064914152 11644322
0.37412623 -0.034809824 0.065039523 11841959
0.37399331 -0.024891727 0.065137461 11907238
0.37409326 -0.014686128 0.065111049 11973545
0.3738791 -0.0051307376 0.065185748 11315103
0.37368083 0.004931266 0.065151095 11052700
0.37370476 0.014993926 0.065154165 11578274
0.37451938 0.024736213 0.065182865 11842216
0.3773728 0.034819454 0.065030277 11184541
0.38000003 0.038968381 0.060771275 11711144
0.37849998 0.041059054 0.068031862 11514021
0.38104993 0.042631004 0.063651048 9868940
0.38788891 -0.081499934 0.078679971 14011846
0.39302039 -0.083294772 0.074025795 13091000
0.37443742 -0.072989091 0.07503666 12039340
0.38600001 -0.079394668 0.07950227 13881286
0.39300001 -0.078994423 0.071283802 13683394
0.37209517 -0.065195702 0.075096354 12828082
0.37191352 -0.055057343 0.075060993 12433837
0.37310311 -0.044919759 0.074734397 11710373
0.37307158 -0.034918319 0.074883863 11645092
0.37301636 -0.025124768 0.074996144 11249822
0.3730076 -0.015228711 0.074963152 10000272
0.37206325 -0.0050051687 0.075133085 9736842
0.37131906 0.0049006362 0.075171754 10065549
0.37131017 0.014897421 0.075169943 10854549
0.37253863 0.024924891 0.075065643 11249563
0.37527999 0.03503789 0.074942805 11184541
0.37772226 0.041535091 0.073865093 11118748
0.38693452 -0.082824536 0.084671713 11775397
0.39000002 -0.085238889 0.080326125 14209481
0.36800006 -0.072443604 0.08748468 12301228
0.37147224 -0.073005587 0.082935125 12170411
0.38366666 -0.079362251 0.085513137 12301738
0.36769715 -0.064446829 0.085697316 12565170
0.37012494 -0.067194477 0.081268698 13946564
0.36823159 -0.055893127 0.085975647 11710372
0.37046665 -0.052666742 0.082796752 13420991
0.36885715 -0.048482895 0.088985331 10855320
0.37107989 -0.044842217 0.084577531 12039596
0.37245879 -0.035187159 0.08499524 10526612
0.37346789 -0.024969589 0.085159749 6973278
0.37356317 -0.01499736 0.085244343 6842721
0.37198374 -0.0051319706 0.085006215 9539204
0.37081775 0.0048930417 0.085054979 9670534
0.36899999 0.015545162 0.089452028 12237744
0.37040702 0.014814827 0.084652133 9999240
0.36900002 0.021283498 0.089822248 12368558
0.37084532 0.025012452 0.084836118 11118232
0.37366682 0.034974385 0.084975541 11184027
0.37649995 0.041415993 0.083358593 11842214
0.37754548 -0.08119148 0.096562713 10657429
0.38376191 -0.082741037 0.091655716 13025721
0.36566302 -0.073360607 0.095287777 12499118
0.37357143 -0.078652576 0.093994394 11512998
0.38200003 -0.079466194 0.090751044 12564142
0.36470336 -0.065122187 0.095100127 12368304
0.36646655 -0.055279892 0.094997153 12104617
0.36817497 -0.045881435 0.095574275 12236457
0.37011105 -0.041853871 0.092370547 11907751
0.36900002 -0.039616913 0.098892525 11840675
0.37123951 -0.035005782 0.095082134 10263183
0.37128019 -0.025087379 0.095155165 2173217
0.37141064 -0.015032925 0.095110558 2567205
0.37183452 -0.0051404377 0.095096357 9341571
0.3690002 0.0079879407 0.096019328 9803405
0.37028581 0.0034177452 0.094220392 9934477
0.36856925 0.015217328 0.095322937 10132629
0.3685216 0.023976456 0.096070826 10921369
0.3701956 0.027532782 0.092806652 11973541
0.37200797 0.034735389 0.094839685 11381661
0.37480003 0.040833585 0.092461482 12566710
0.36700001 -0.081071138 0.10694806 13289405
0.36424389 -0.074824952 0.10510708 11907238
0.36337477 -0.064955227 0.10504109 11644837
0.36558294 -0.054967288 0.1049923 11710115
0.36768365 -0.045081131 0.10503132 11907751
0.36899999 -0.039298654 0.10541675 12039080
0.37050408 -0.03433989 0.10504932 8289909
0.36844558 -0.024604784 0.10627057 2107426
0.37012494 -0.025680229 0.10181477 2107682
0.36833331 -0.016528767 0.10645592 2107171
0.37040925 -0.013410291 0.10350049 3027499
0.37084523 -0.0051401043 0.10494554 8684151
0.36878335 0.0065263626 0.10495234 9736840
0.36999997 0.0014756049 0.10496015 9473927
0.36788642 0.015189365 0.1050529 10262413
0.36775011 0.025128821 0.10505203 10855320
0.36881593 0.031747863 0.10659017 10196363
0.37060019 0.035252392 0.10338432 12105645
0.36432734 -0.073731959 0.11282887 10197390
0.36494321 -0.065013848 0.11495106 10394770
0.36688247 -0.055392474 0.11470319 11118234
0.37014288 -0.050756436 0.11881937 9407617
0.36829171 -0.045586184 0.11291789 9737096
0.37076005 -0.044405174 0.11780113 10921369
0.36875001 -0.031282093 0.1165201 3224878
0.37101635 -0.035057705 0.11486325 6973279
0.36717045 -0.024756476 0.11508559 1975582
0.36727557 -0.015197502 0.11531829 2370085
0.37012503 -0.010386012 0.11251514 4079931
0.37165213 -0.004983379 0.11460639 7303015
0.36899999 0.0080380188 0.1111302 9541003
0.37137392 0.0044485093 0.11543897 7171686
0.36846161 0.015728001 0.11190367 10592661
0.37066191 0.014527135 0.11697494 7237478
0.36830613 0.025651446 0.11223041 11974315
0.37101588 0.024728516 0.11725403 7434599
0.3687858 0.032372169 0.1120938 11776677
0.37057686 0.03211797 0.11703452 9210495
0.36800003 -0.061046917 0.12059263 10394514
0.36850002 -0.055735573 0.12032457 7762279
0.37066665 -0.051509526 0.12088826 6511698
0.37261289 -0.043711089 0.12159882 7237479
0.36833334 -0.030635426 0.12113222 1712153
0.37324136 -0.036281034 0.12176808 6974308
0.36559999 -0.025219915 0.12100393 1646616
0.36629626 -0.014836553 0.12108181 2437417
0.37400001 -0.0020677061 0.12080774 7435113
0.37351725 0.0061786557 0.1214965 8751487
0.37215388 0.012852805 0.12115049 9013888
0.37270004 0.024113584 0.12038781 9671560
0.36125004 -0.030856261 0.14449517 1185807
0.36089122 -0.024620172 0.14508621 1185551
0.36105379 -0.015795901 0.14590202 2037778
0.36461371 -0.03169037 0.15655421 1317654
0.36563101 -0.025424631 0.15621226 528135
0.36329243 -0.015469927 0.15535639 2168077
0.36268532 -0.032631584 0.16355647 1515287
0.36381036 -0.024828155 0.16527916 923406
0.36394283 -0.015744092 0.16503467 1315854
0.35100001 -0.035219289 0.17993587 2633765
0.36293533 -0.032467734 0.17538638 923407
0.35856006 -0.024460988 0.17917682 791309
0.36147615 -0.024960943 0.17462637 1252115
0.36258164 -0.016472464 0.17549269 1120273
0.34572983 -0.033515338 0.18552262 1778201
0.35372972 -0.032376405 0.18073884 1317906
0.36114287 -0.033823766 0.18084608 791050
0.3458229 -0.025032738 0.18560953 1515031
0.35411116 -0.025040083 0.18078159 1054478
0.34577787 -0.016822021 0.1861538 1514518
0.35490197 -0.017410776 0.18167835 988942
0.3614167 -0.012975757 0.18249021 1382933
0.36213803 -0.0079213474 0.18576272 8488058
0.8175 -0.0016489784 0.27841899 2567982
0.82000005 -0.0054932907 0.27831003 9541778
0.80720007 0.0073149549 0.27472273 1975583
0.81262499 0.0021629608 0.27699617 1975843
0.80666661 0.014650082 0.27576655 1975581
0.80800003 0.021068694 0.27802026 1449237
0.81000006 0.024913294 0.27870846 791307
0.8186667 -0.0016513318 0.28360781 1844511
0.82130772 -0.0053578089 0.28570667 7107180
0.80900002 0.0078375852 0.28025824 2041636
0.8144092 0.0046749189 0.28490642 2568234
0.82000005 0.00026561352 0.28982782 4673096
0.80900002 0.019200886 0.28025824 988688
0.81242108 0.015378865 0.2860527 1909790
0.81339997 0.024511116 0.28495911 725515
0.82683343 -0.012312024 0.29675612 9408646
0.83200002 -0.011416861 0.29601693 9474438
0.82400006 -0.0026283448 0.29269421 3554357
0.81725001 0.0083939079 0.29124719 1910303
0.82211113 0.003897476 0.29463878 2765612
0.81756264 0.01605499 0.29459101 1778203
0.82000005 0.015142784 0.29894611 2041117
0.81780016 0.025153432 0.29383865 528136
0.81999999 0.023301231 0.29942602 462344
0.8173334 0.030879023 0.2939887 2107167
0.82550001 -0.013417806 0.30497789 9408645
0.83627278 -0.003998281 0.30679348 6579034
0.82412499 0.0079773851 0.30430478 2238751
0.83430004 0.0026086888 0.30699152 3225392
0.82059991 0.016305529 0.30540988 2040859
0.82043743 0.023793865 0.30534923 1317138
0.82000005 0.030979771 0.30134565 2304548
0.82833338 -0.014598712 0.31216547 9408902
0.83166671 -0.012061139 0.3150467 9342852
0.83585721 -0.0051305355 0.3155582 6644826
0.82712507 0.0089800199 0.3136462 2041371
0.834158 0.003449918 0.31548682 3422512
0.82268757 0.015670383 0.31449139 1909529
0.82100004 0.022849154 0.31180352 1975065
0.83500004 -0.011946715 0.32249722 9343109
0.83686674 -0.0053442451 0.32347998 7171938
0.83525008 0.003362648 0.32308245 3619119
0.82900006 0.011912753 0.32211941 1909272
