# .PCD v0.7 - Point Cloud Data file format
VERSION 0.7
FIELDS x y z rgb
SIZE 4 4 4 4
TYPE F F F U
COUNT 1 1 1 1
WIDTH 495
HEIGHT 1
VIEWPOINT 0 0 0 1 0 0 0
POINTS 495
DATA ascii
0.51900005 -0.13105063 0.029136289 15855337
0.52228576 -0.13170405 0.027571669 16118509
0.51855564 -0.12487022 0.029111335 15986923
0.52337158 -0.12476337 0.026227074 15855338
0.53219998 -0.12067612 0.024392787 15197662
0.54200006 -0.12036346 0.024083333 15197661
0.51900005 -0.11829326 0.029136289 15921130
0.52428573 -0.11800677 0.028378228 15723751
0.53400004 -0.11908456 0.026473871 15263200
0.54570007 -0.11837356 0.025394604 15065820
0.55434376 -0.11527251 0.02588287 15197661
0.56140006 -0.11251161 0.022972694 15329246
0.56577784 -0.10798125 0.025725653 15197918
0.50511104 -0.13148482 0.038203936 15591652
0.51405883 -0.13192129 0.033378705 15460324
0.4986667 -0.12319296 0.039279271 15986923
0.5045715 -0.12487288 0.036552753 16052459
0.51403123 -0.1253572 0.032008722 15986667
0.49747616 -0.1142474 0.038407128 16118763
0.50379413 -0.11534374 0.0348306 16052715
0.51340008 -0.11617292 0.03122098 15920873
0.52400005 -0.11023268 0.031870373 15394786
0.54699999 -0.11378825 0.030708186 15460579
0.55000001 -0.11183956 0.030876605 15066845
0.49468088 -0.10441757 0.036415704 15658213
0.50322223 -0.10860979 0.033089679 15657958
0.55900002 -0.10974377 0.030073227 14737880
0.48900002 -0.094856501 0.032031141 14671063
0.49097782 -0.095522434 0.036248632 15000028
0.48770005 0.056215294 0.03970927 14407892
0.4931739 0.056678843 0.037067197 14341842
0.50100005 0.055286236 0.035748132 14407891
0.48675001 0.064537272 0.039289422 14736856
0.49249995 0.063039571 0.035712425 13618118
0.48900002 -0.13034399 0.049202505 16117480
0.4926818 -0.13236873 0.046152208 15789030
0.48645458 -0.12380217 0.047320303 16051943
0.49300009 -0.12600216 0.042952836 15920872
0.4781667 -0.11197323 0.048858479 16184043
0.48409626 -0.11519635 0.045341391 16118507
0.49233329 -0.11554507 0.04108423 16052716
0.4843438 -0.10514699 0.043660149 15986923
0.49082348 -0.10528143 0.040801059 15921130
0.48517653 -0.09521433 0.043599233 15592165
0.49035287 -0.095389813 0.040695041 15394786
0.4774 -0.084785454 0.044234455 14869211
0.4838334 -0.088377066 0.043007627 14803162
0.49000001 -0.089314982 0.040126331 14737626
0.47450003 0.038144678 0.048073851 14078926
0.47529736 0.044360857 0.047938477 14210512
0.48443487 0.046557628 0.043459792 14144720
0.49399999 0.046418533 0.041994289 14013134
0.50100005 0.045903437 0.042199984 14078928
0.47421938 0.055359092 0.047814716 14868441
0.48297828 0.054621562 0.043082949 14539477
0.47544014 0.064843312 0.047295079 15131868
0.48257902 0.065200515 0.042487036 15131613
0.47658616 0.072905459 0.047371496 14539732
0.48250002 0.07188157 0.042898152 14210769
0.48647368 -0.13275822 0.055293504 15394272
0.4904286 -0.13564561 0.051970191 15920360
0.4777858 -0.12192363 0.057659779 15262941
0.48232204 -0.12566021 0.054302651 15591650
0.47489074 -0.1146204 0.055242535 15591906
0.48050007 -0.11832991 0.051346485 15855078
0.46568751 -0.10451505 0.056414586 15657699
0.47066668 -0.10868511 0.053841151 15855078
0.45668295 -0.094197668 0.057288416 15723492
0.46258828 -0.0958158 0.053579122 15986664
0.44839999 -0.083063744 0.059042707 15789796
0.45456353 -0.085348427 0.055864211 15855334
0.46193752 -0.085283764 0.052425992 15855335
0.44709685 -0.074641705 0.058353018 15658211
0.45499998 -0.075353764 0.054591704 15263455
0.46066666 -0.07696002 0.051743791 14934747
0.4477241 -0.06610062 0.058419339 15197405
0.45164001 -0.064901136 0.056351971 14671062
0.44900003 -0.059242673 0.059893403 14868696
0.45300001 -0.059240207 0.058306009 14539731
0.44475001 0.019144936 0.059066046 14013133
0.44681245 0.026105491 0.055981271 14079183
0.44848731 0.034174196 0.057911847 14342867
0.45279995 0.035676498 0.054609757 14211538
0.46533334 0.038458366 0.052079517 14210769
0.47000003 0.038111851 0.050591592 14078926
0.44869238 0.045272332 0.058882091 14342354
0.45441523 0.045089658 0.055345803 14408660
0.46472001 0.044929896 0.051756155 14342355
0.47000003 0.041962821 0.050591592 14342098
0.44900003 0.05211734 0.059309449 14671318
0.45422643 0.055060256 0.056447752 14868697
0.4652667 0.054467246 0.05160078 14737110
0.47000003 0.059017144 0.050591592 15000282
0.45750007 0.063653864 0.058302004 15000283
0.46490744 0.065288298 0.054425314 15066075
0.47033343 0.065942563 0.050902545 15131868
0.46613157 0.073639117 0.057375606 14934489
0.47229737 0.074979253 0.052685305 14868696
0.48203331 -0.13213821 0.064519241 14341840
0.47709525 -0.12353183 0.064917073 14276046
0.4804 -0.12822089 0.064249553 14539218
0.46844998 -0.11132332 0.065830044 14275533
0.47236374 -0.1165673 0.064695776 14341839
0.45900005 -0.10085689 0.065256804 14341582
0.46428072 -0.10583971 0.064921416 14473168
0.44885713 -0.091122881 0.066479191 14801875
0.45376274 -0.095485695 0.064270809 14867926
0.43900004 -0.080361508 0.068665259 14933974
0.44434673 -0.084787719 0.065117382 15197146
0.45033336 -0.089113243 0.060422409 15658210
0.43577412 -0.074188285 0.066378802 15460318
0.44197294 -0.075639702 0.061664671 15658210
0.42750007 -0.063162066 0.068882711 15526111
0.43346253 -0.065423332 0.064792752 15526112
0.44273341 -0.065565996 0.060644679 15329247
0.42668417 -0.055299997 0.068478972 15263198
0.43172345 -0.055601973 0.064612724 14934232
0.44216666 -0.057132509 0.061738431 14868696
0.42356253 -0.046904679 0.068886697 14539988
0.43000001 -0.049185961 0.065915354 14671317
0.42900002 0.008675484 0.0692771 14013133
0.42999998 0.0078568412 0.068767488 13881547
0.42659265 0.014967144 0.068886191 14145232
0.43371874 0.015883032 0.066571757 14013390
0.44247073 0.017144073 0.062886342 13947340
0.42692313 0.024014421 0.068940006 14408660
0.43430901 0.025262995 0.065794781 14342867
0.44277781 0.024675602 0.061881337 14210768
0.43499991 0.034803361 0.067112453 14408658
0.44330621 0.035175689 0.062219065 14539731
0.43836844 0.042488907 0.068250328 14276816
0.44374025 0.045380652 0.064279824 14343122
0.44678944 0.054140083 0.065591134 14539987
0.45085716 0.058046777 0.061647408 15197661
0.449 0.060823563 0.067729004 14934489
0.45364639 0.06548015 0.064517036 14868696
0.4579761 0.073439874 0.066678882 14737110
0.46187106 0.07664109 0.063799672 13947339
0.48000002 -0.1301924 0.071332559 13157824
0.47606063 -0.12386319 0.073827766 13289151
0.48000002 -0.12906872 0.0718944 13420996
0.46778783 -0.1118832 0.074974515 13420737
0.4713333 -0.11703738 0.075037561 13223358
0.45885724 -0.10128601 0.076246135 13420737
0.46269229 -0.10561144 0.074632578 13486530
0.44881248 -0.091920577 0.075103447 13683909
0.45451072 -0.096707538 0.075090945 13618116
0.43812001 -0.081705973 0.075463913 13881288
0.44276088 -0.086570598 0.074160397 14012874
0.42889994 -0.071149513 0.075987868 14275789
0.43227693 -0.075207621 0.074833065 14210252
0.41866669 -0.060630966 0.07838881 14275276
0.42427263 -0.065111034 0.07480216 14735827
0.41579452 -0.054328684 0.076563857 14999512
0.42163047 -0.055611011 0.071966812 15459807
0.40804172 -0.043014351 0.078467607 15197148
0.41410586 -0.045429856 0.074577615 15197149
0.42066669 -0.04811953 0.07088498 15131355
0.40656739 -0.035301428 0.077282332 14539476
0.41033337 -0.038931653 0.07426744 14736857
0.40339994 -0.027681326 0.07883276 13684168
0.40033332 -0.010803659 0.079329945 14079181
0.40369236 -0.0044353022 0.078631237 14144974
0.40791181 0.0027189548 0.078086331 14079950
0.41226664 0.0063801194 0.075510405 14145486
0.42461538 0.0075497446 0.071850263 14013387
0.43000001 0.0071857497 0.070445225 13947594
0.41546065 0.014820427 0.076552212 14013899
0.42193201 0.015825961 0.071947835 14145487
0.41800004 0.022014385 0.078403063 14013898
0.42336366 0.025416406 0.074280933 14145486
0.42703927 0.032797866 0.075679369 13882313
0.43125007 0.037284039 0.073946446 14013642
0.43658096 0.044374928 0.075401776 13881800
0.44027781 0.048757628 0.072700337 14079180
0.44360021 0.055193767 0.074915722 14342351
0.44819999 0.063311838 0.075836837 14473938
0.45140627 0.067581952 0.074080519 14342608
0.45581689 0.074069194 0.07486286 13816521
0.47300002 -0.12054265 0.080811657 12894393
0.46767855 -0.11203326 0.084280364 12631221
0.47068757 -0.11685614 0.08227475 12762807
0.45848146 -0.1018173 0.084770985 12697014
0.46294999 -0.10679667 0.084918536 12697014
0.4485625 -0.091738351 0.084512748 12697014
0.45300004 -0.096297741 0.084928416 12697014
0.43811771 -0.081608772 0.08402469 12828600
0.44393033 -0.08708851 0.08555799 12631221
0.42899996 -0.070412889 0.084592618 13091259
0.43290919 -0.075365745 0.085149303 12828087
0.41800004 -0.060534425 0.084625319 13223101
0.42400002 -0.065634355 0.084598407 13091258
0.40900001 -0.050613768 0.086345896 13486273
0.41359347 -0.055291034 0.084778629 13552066
0.40507025 -0.044811346 0.084949523 14144204
0.41000003 -0.049777698 0.080606148 14736597
0.39720589 -0.033897996 0.086878859 14406863
0.40151718 -0.035929486 0.082416855 14868184
0.39476761 -0.024812493 0.086204156 13749702
0.40078261 -0.026382206 0.081320986 14210512
0.39488983 -0.014712039 0.085707985 13684422
0.40000001 -0.010732756 0.081262074 14079180
0.39713722 -0.0063921972 0.087314494 14014156
0.40101486 -0.004014405 0.083220549 14079693
0.40416953 0.0045777624 0.085110001 13487812
0.41000003 0.0097309807 0.080606148 13750983
0.40850005 0.011608577 0.086844355 13158846
0.4122439 0.01569902 0.084423579 13421761
0.41721308 0.023147583 0.084857106 13289919
0.4210977 0.028269678 0.085119076 13289919
0.42608473 0.033534776 0.085017294 13158333
0.43033341 0.038422063 0.085694991 13092539
0.43539998 0.044933293 0.084871776 13289918
0.4390001 0.050885234 0.085151374 13223868
0.44249302 0.055899817 0.084718943 13487041
0.44751501 0.064422615 0.084316358 13684420
0.45056242 0.068574637 0.086671792 13223870
0.45230439 0.072658516 0.084457047 13289663
0.46799999 -0.11269625 0.090912908 12170415
0.45900005 -0.1013174 0.091621093 12170670
0.46183017 -0.10501425 0.094667263 12039341
0.44871432 -0.090493515 0.091969706 12236463
0.45498306 -0.095400907 0.095478907 12039340
0.46000001 -0.099999748 0.097974241 11908011
0.43900001 -0.080361508 0.091446094 12302256
0.44532266 -0.0849308 0.095138997 12104877
0.45000002 -0.089398175 0.099004745 11973804
0.43438333 -0.07417284 0.09465342 12104877
0.44077781 -0.0787386 0.097665057 11973291
0.41866669 -0.060630966 0.091131754 12499378
0.42479107 -0.064765804 0.095088474 12236463
0.43000004 -0.069318719 0.09661781 12039084
0.41453522 -0.054698575 0.094772242 12696757
0.42033339 -0.059560582 0.098218329 12170670
0.39866671 -0.040779766 0.09626358 13683398
0.40326318 -0.044787072 0.094969369 13354688
0.41000003 -0.049777698 0.096443132 12960186
0.38900003 -0.031063966 0.098560952 10986394
0.39421916 -0.035011213 0.094730921 12827831
0.3869085 -0.024708683 0.095801398 2436136
0.39072725 -0.02648613 0.091243438 4998981
0.3868655 -0.01575359 0.096104309 2764072
0.39105713 -0.014125045 0.091684543 5065544
0.38900003 -0.0096635483 0.098560952 13223355
0.39392617 -0.0053627007 0.094754212 13421505
0.39815393 0.0013489103 0.096736379 13027261
0.40224221 0.0058691623 0.094540715 12961468
0.40720415 0.012646171 0.095755011 12698553
0.41207853 0.017482806 0.094575517 12698553
0.41655776 0.022813406 0.094417267 12764089
0.42141944 0.027921675 0.094469599 12632503
0.42675 0.033270497 0.09425474 12500660
0.43042111 0.037687987 0.095784947 12500404
0.43574995 0.044271715 0.09425886 12434866
0.44093752 0.048788447 0.096948415 11908264
0.44499996 0.055035323 0.095033817 12434609
0.4488889 0.061153505 0.094090611 12434610
0.45209259 0.065593757 0.095290661 12303025
0.4537895 0.071211301 0.093186162 11710631
0.46268424 -0.10234963 0.1027111 11908011
0.45694286 -0.093410522 0.10453834 11776168
0.46195459 -0.098066382 0.10625985 11775912
0.44755268 -0.083457209 0.10417277 11775911
0.45212507 -0.087881483 0.10569333 11776168
0.43656093 -0.073273383 0.1045764 11973291
0.44193107 -0.078131057 0.10514689 11841705
0.42503181 -0.063567631 0.10502233 12236463
0.43118751 -0.069006547 0.10445884 12104877
0.41521275 -0.053604227 0.10476974 12697014
0.42080012 -0.058182668 0.10489513 12302256
0.39728135 -0.041724768 0.10603119 13420223
0.40328792 -0.046313424 0.1043855 13223102
0.38771799 -0.0317607 0.10547423 9670794
0.39292404 -0.036709763 0.10462877 13156796
0.38278991 -0.025033023 0.10493555 2435880
0.38287494 -0.015065186 0.10496169 3093296
0.38789997 -0.0087943915 0.10551902 12763832
0.3926321 -0.0039533223 0.10460503 12829883
0.39720371 0.0019576037 0.10497022 12632504
0.40173838 0.0071826447 0.10492235 12435382
0.40680653 0.012840515 0.10518128 12303796
0.4122093 0.017776081 0.10460469 12369332
0.4169319 0.0224996 0.10446112 12369332
0.42225724 0.027056746 0.10504141 12369332
0.42772725 0.031363901 0.10448256 12171953
0.43205175 0.036367968 0.10463139 12303026
0.43733338 0.042393915 0.10290873 11842731
0.44274998 0.046553835 0.10570394 11645351
0.44637495 0.053857625 0.10391643 11776681
0.44900003 0.060059115 0.10246364 11316386
0.45042863 0.061757151 0.1018106 11645607
0.46600002 -0.10021318 0.11125223 11579046
0.45883337 -0.090973943 0.1120481 11644326
0.46171433 -0.093684457 0.11336825 11710375
0.44809094 -0.081009015 0.11336888 11841961
0.45478389 -0.085697047 0.11504208 11710632
0.46100006 -0.08942505 0.11761378 11644839
0.4377647 -0.071476273 0.11463958 12104877
0.44229999 -0.07578595 0.11470465 11973291
0.42558536 -0.062537022 0.11448123 12499635
0.43205884 -0.06733425 0.11492902 12302256
0.40771431 -0.050727554 0.11723884 12894393
0.41443405 -0.054367527 0.11526025 12762807
0.42107147 -0.058515638 0.11376149 12697014
0.39543635 -0.042461749 0.11466308 13091772
0.40266663 -0.047416817 0.11516779 13025979
0.38606852 -0.033251088 0.11526377 10000273
0.39138103 -0.037920561 0.11400641 12894136
0.37790284 -0.023996964 0.11599992 2173476
0.38062161 -0.02644328 0.11222914 2435879
0.37780729 -0.016159374 0.11644806 2107941
0.38086274 -0.013701537 0.11288471 3489595
0.38705263 -0.0078804772 0.11505206 12566710
0.39181688 -0.0033173137 0.1146997 12566711
0.39695552 0.001929865 0.11539534 12303796
0.40174133 0.0067692981 0.11462191 12237746
0.40722927 0.012628702 0.11481849 12237746
0.41292012 0.017520441 0.11562947 12171954
0.41763636 0.021245942 0.11521647 12237748
0.42330766 0.02603339 0.11519094 12040368
0.42774996 0.030781899 0.11498554 11909038
0.43308827 0.035010781 0.11368101 11974575
0.44100004 0.039116114 0.11689872 11711402
0.44591779 0.045072056 0.11495743 11711402
0.45000002 0.049658295 0.11849371 11777195
0.4488 0.052415621 0.11213697 11645609
0.45057893 0.052942682 0.11651025 11645609
0.45640627 -0.08329615 0.12576243 11644839
0.46000001 -0.086538889 0.12920342 11513253
0.43900001 -0.070769578 0.12073573 12433842
0.445079 -0.074005798 0.12432677 12170670
0.45144448 -0.078177467 0.12657094 11908011
0.42560005 -0.062636063 0.12271146 12631222
0.43469235 -0.067107998 0.12217306 12499636
0.44175005 -0.068885341 0.12744088 12499636
0.4075909 -0.050917491 0.12545356 12763064
0.41277084 -0.055256933 0.12529458 12697014
0.39449209 -0.042788122 0.12557337 12828857
0.4026579 -0.047675133 0.12445486 12828857
0.37836364 -0.031040013 0.12664369 3089953
0.38590005 -0.035040807 0.12496106 11907496
0.39035717 -0.03890752 0.12328228 12828599
0.37435755 -0.02487137 0.12506717 1910046
0.37452355 -0.01514964 0.12504128 3028785
0.38782984 -0.0066110296 0.12401995 12566968
0.39152947 -0.0024941519 0.12513837 12303796
0.39583927 0.0022199613 0.12509617 12040625
0.4022778 0.0074436883 0.12516129 11909038
0.40723741 0.012804078 0.12502849 11974575
0.41196668 0.017400557 0.12368609 12106161
0.41700006 0.021418205 0.12317444 11974575
0.42382357 0.025711391 0.1254714 11908783
0.43000001 0.029331779 0.12983686 11842734
0.42800003 0.030197309 0.12272376 11842734
0.43469235 0.032400575 0.12733409 11776941
0.44387504 0.038119089 0.12687913 11645355
0.44827029 0.043343503 0.12466099 11842732
0.45122862 0.04789364 0.12550597 11908782
0.45262507 0.05147139 0.12568274 11513767
0.45828003 -0.082075968 0.13399793 11710633
0.46010002 -0.085588627 0.13213952 11579047
0.44753572 -0.072410114 0.13643731 12105135
0.45327285 -0.077350937 0.13477077 11973549
0.42362502 -0.061722714 0.13510647 12368051
0.43450001 -0.064968824 0.13728809 12368308
0.44480956 -0.068881288 0.13430375 12302770
0.40750003 -0.051621474 0.13210106 12499893
0.41454542 -0.056294683 0.13213888 12499637
0.42066669 -0.058952589 0.13555171 12368052
0.38900003 -0.040853515 0.13703616 13026235
0.39274511 -0.043329787 0.1344651 12828599
0.40090913 -0.04893085 0.13752033 12499379
0.36800003 -0.030033112 0.13523805 2173222
0.37435716 -0.031055583 0.13380589 3750195
0.38637969 -0.036958613 0.13519545 12630963
0.3681708 -0.024582651 0.13408002 1975840
0.37106124 -0.025481751 0.1316456 1843740
0.36815161 -0.016280716 0.1342741 3093291
0.37235817 -0.014741495 0.13202082 3948857
0.37800002 -0.0096115116 0.13271865 12500663
0.38651851 -0.0055110175 0.13489698 11842990
0.39123335 -0.0020080463 0.1334255 11842989
0.39613789 0.0024212631 0.13473427 11447976
0.4015294 0.0074608903 0.13354294 11513769
0.40688887 0.011670155 0.1339737 11579562
0.41442856 0.015734451 0.13532826 11250595
0.421 0.019355251 0.13685183 11053472
0.42571431 0.024120286 0.13463596 11316646
0.43057147 0.028219646 0.13634586 11185061
0.43900001 0.033542674 0.13306822 11382184
0.44491428 0.037675247 0.13452002 11382183
0.44835001 0.042077549 0.13417043 11974575
0.45254549 0.046861671 0.1336588 11711147
0.45420003 0.050547373 0.13321033 11579562
0.44553134 -0.072739623 0.14293055 11710635
0.42900002 -0.060118839 0.14409721 11512740
0.43389657 -0.064701371 0.14399871 11710378
0.44285718 -0.068651043 0.1424522 11908014
0.42650002 -0.058770053 0.14176333 12039340
0.38900003 -0.040853515 0.14204478 12303027
0.39431253 -0.045230959 0.14233255 12368564
0.40024999 -0.049296852 0.14170131 12104623
0.36600003 -0.030726699 0.1443564 1514519
0.38600004 -0.037772458 0.14106871 12171697
0.36548829 -0.023625089 0.14631501 988430
0.36487162 -0.015947286 0.14668067 2039578
0.3636924 -0.032310691 0.15590604 2566178
0.36454877 -0.025719654 0.15551269 791307
0.36416408 -0.015941082 0.15488772 1643789
0.36118466 -0.032519933 0.16457628 1711895
0.36217865 -0.024796627 0.16508947 1383186
0.3634952 -0.016526427 0.16480984 1513744
0.34444457 -0.0332142 0.1779225 1581081
0.35558006 -0.032099053 0.1754749 1054481
0.36078575 -0.032763068 0.17198098 1515030
0.34472927 -0.025014332 0.17804001 1449495
0.35519245 -0.02514316 0.17525899 988944
0.36041856 -0.024428498 0.17155784 1516057
0.34592077 -0.016683972 0.17840099 1317911
0.35409525 -0.0170897 0.17591403 857102
0.36113161 -0.016878815 0.17233527 1055251
0.33798417 -0.03337422 0.18703686 1712154
0.34071431 -0.033207107 0.18229321 1712410
0.33812055 -0.025293425 0.18780763 1646103
0.34111288 -0.024970157 0.1830893 1580824
0.33851716 -0.016859498 0.18740299 1579798
0.34106952 -0.016923418 0.18280022 1448726
0.33699998 -0.032451842 0.19047384 1515031
0.33719993 -0.02499108 0.19063862 1711896
0.33800003 -0.017873792 0.19103907 1646362
0.79400003 0.1682903 0.22487089 10921886
0.79553348 0.17519668 0.22437388 10921886
0.79300004 0.15990961 0.23851511 10790300
0.79491317 0.16555563 0.23492457 10790557
0.79642308 0.17530093 0.23503041 10856093
0.78600001 0.14561777 0.24775659 10658713
0.78900003 0.15356182 0.24100612 10724507
0.79116672 0.15768972 0.24166775 10724507
0.79415393 0.1649375 0.24529243 10855580
0.792 0.13560298 0.25953633 10724507
0.78808337 0.14477353 0.25256532 10724505
0.79100007 0.14284059 0.25920862 10658714
0.78872734 0.15468435 0.25426766 10724249
0.79009092 0.15663292 0.25706127 10724250
0.79280764 0.16544324 0.25515968 10855323
0.79500002 0.12309072 0.26982495 10592919
0.79448158 0.13527171 0.26600021 10592920
0.79450005 0.14533143 0.26500767 10658713
0.79333329 0.15515995 0.26520419 10658713
0.79478264 0.16512513 0.26506072 10724250
0.7922858 0.10783311 0.27817717 10395540
0.79350013 0.11558495 0.27504504 10527126
0.79508001 0.12496554 0.27543738 10527126
0.79506898 0.1350392 0.27549651 10592919
0.7956562 0.14519468 0.2745285 10592919
0.79658347 0.15464944 0.27541414 10658712
0.7943334 0.10509957 0.28518778 10329747
0.7959286 0.14499393 0.28524899 10592663
0.79425007 0.088809505 0.29629958 10132368
0.79625005 0.089033134 0.3054356 10066576
0.79444122 0.16462784 0.30431142 10527128
0.79453844 0.1752456 0.30479285 10527127
0.79541665 0.088706575 0.31558147 10000782
0.79568768 0.095432334 0.31528056 10066576
0.79603457 0.16501796 0.31477565 10527126
0.79596174 0.17519905 0.31501743 10527126
0.79250008 0.088381402 0.32185066 10000783
0.79232132 0.094855182 0.32515511 10132112
0.79637045 0.1044571 0.32476974 10263443
0.79000002 0.0890273 0.33840528 9934989
0.79210007 0.095848769 0.33587328 10132368
0.79071426 0.088843592 0.34479389 9934990
0.79185188 0.094593629 0.34517133 10000782
0.7949667 0.10447859 0.34518236 10066576
0.79075003 0.088185951 0.35260999 9737869
0.79088014 0.095274076 0.3544066 9869453
0.79177785 0.1049851 0.35491925 10001040
0.79410726 0.11558548 0.35483417 10066833
0.79566664 0.1250574 0.35479882 10132626
0.79623359 0.13446651 0.35505146 10198163
0.79141665 0.096598029 0.36402786 9869453
0.79159266 0.10526866 0.36462343 9935246
0.79210335 0.11535306 0.3644985 10066832
0.7924 0.1245435 0.36447278 10132626
0.79396772 0.13426603 0.3652848 10132627
0.79408705 0.11478146 0.3746717 10001039
0.79207134 0.12508559 0.37432829 10066832
0.79257143 0.13543889 0.37475929 10066833
0.79433334 0.14530367 0.37465802 10066833
0.79559392 0.15467051 0.37484372 10066834
0.79627603 0.16417091 0.37541604 10066833
0.79519999 0.13518274 0.38464385 10066832
0.79466659 0.14494888 0.38526309 10066832
0.79476005 0.15468289 0.38509944 10000783
0.79526931 0.16423501 0.38512972 10000783
