# .PCD v0.7 - Point Cloud Data file format
VERSION 0.7
FIELDS x y z rgb
SIZE 4 4 4 4
TYPE F F F U
COUNT 1 1 1 1
WIDTH 478
HEIGHT 1
VIEWPOINT 0 0 0 1 0 0 0
POINTS 478
DATA ascii
0.5231111 -0.1316793 0.027867526 16118509
0.52408516 -0.1249177 0.026650449 15855593
0.53266668 -0.12036726 0.024082974 15000541
0.52550006 -0.1186979 0.028419936 15789798
0.53492314 -0.11791598 0.026559727 15197407
0.5444501 -0.11618464 0.025850574 15131870
0.55300003 -0.11466385 0.025122913 15198175
0.56160003 -0.11301287 0.024033051 15395810
0.50583333 -0.13147666 0.038656238 15657702
0.51447064 -0.1319582 0.034397729 15526373
0.52000004 -0.13130315 0.030409759 15986923
0.49833336 -0.12252743 0.039252758 16118509
0.50446427 -0.12501492 0.037423484 15986923
0.51500005 -0.12499681 0.032827232 15987178
0.52000004 -0.12825981 0.030409757 15921384
0.49752003 -0.11481822 0.038363773 16118509
0.50430775 -0.11471435 0.034889106 15986922
0.51523536 -0.1168252 0.03175592 15921385
0.523 -0.11491971 0.030585196 15658212
0.537 -0.1154817 0.030146793 15789798
0.54300004 -0.11422966 0.030483631 15394786
0.49419156 -0.10421649 0.036504138 15658214
0.50237501 -0.10832942 0.033198413 15658212
0.49156594 -0.095180675 0.035762388 14737370
0.49200004 -0.088642932 0.037756197 14342868
0.48800001 0.056329045 0.039580967 14407891
0.49133337 0.055917412 0.037385385 14276305
0.50100005 0.05528624 0.035162881 14868442
0.48653847 0.063761264 0.039316136 14671063
0.49213341 0.063755974 0.037226498 14736599
0.48900002 -0.13034399 0.049202505 15920617
0.49252173 -0.13217951 0.045984972 15723240
0.50300002 -0.13172066 0.040013377 15525861
0.48665795 -0.12393634 0.047133025 16051945
0.4934864 -0.1257915 0.042744838 15986666
0.47783336 -0.11189493 0.04882415 16184043
0.48407844 -0.11501084 0.045719426 16118507
0.49222726 -0.11538672 0.041302063 15987180
0.47538888 -0.10464647 0.047827188 16118506
0.48382354 -0.10527378 0.043776825 15921899
0.49106246 -0.10502858 0.040786892 15790314
0.46850002 -0.093623579 0.049333364 15987177
0.47415805 -0.095508903 0.047437489 15921129
0.48441941 -0.095102049 0.044199351 15527142
0.49083993 -0.094890364 0.041251201 15263970
0.46779999 -0.084831402 0.049149852 15592419
0.47399998 -0.085590534 0.047008995 15198176
0.48357144 -0.087899409 0.04476719 15066590
0.49133334 -0.087640919 0.041576147 14540245
0.46714285 -0.078588828 0.048563726 14868696
0.47507137 0.037570041 0.04748299 14013388
0.47519526 0.044404924 0.047890276 14276303
0.48182604 0.046944473 0.043866731 14342098
0.4975 0.048492637 0.041905172 14013133
0.47455817 0.055362046 0.04771373 14868696
0.48278564 0.055052035 0.043241959 14605525
0.47512081 0.065184906 0.046855416 15197660
0.48196876 0.064638287 0.042039312 15000284
0.47633335 0.072702572 0.046806581 14342353
0.48000002 0.071509704 0.042116653 12763066
0.48662868 -0.13260947 0.05556228 15394273
0.49055561 -0.13535276 0.052293099 15723238
0.47770596 -0.12233585 0.057340264 15394014
0.48271701 -0.12586032 0.054063804 15657442
0.46900001 -0.11073976 0.059267446 14868183
0.4745737 -0.11483879 0.055125844 15591906
0.48025003 -0.11817471 0.050851565 15855078
0.46645999 -0.10409542 0.056363016 15657699
0.47128576 -0.10702693 0.052498795 15920871
0.45663893 -0.093719289 0.057521999 15788772
0.46425009 -0.095488891 0.053047258 15986664
0.44887504 -0.082870319 0.059613947 15789285
0.45488688 -0.08504089 0.05666934 15855333
0.46323243 -0.085014157 0.05192535 15724005
0.44713807 -0.074357018 0.058414362 15658211
0.45507899 -0.075684629 0.055339109 15461089
0.46283996 -0.076219417 0.051724497 14935002
0.4473044 -0.066868894 0.058343321 15197661
0.45382863 -0.063887931 0.056864917 14474195
0.45900002 -0.05895032 0.05692922 12500148
0.46000001 -0.059078749 0.058130119 13158078
0.44433334 0.01956111 0.058923651 14013389
0.4452244 0.025245851 0.056899372 14144976
0.44691306 0.0348101 0.057631813 14408403
0.45000002 0.03912371 0.055812959 14539477
0.47474998 0.037385624 0.050546892 14144718
0.44846681 0.044381067 0.058526196 14474195
0.45152944 0.046038333 0.056623574 14539731
0.46900001 0.049010135 0.050483946 14539731
0.472 0.043359499 0.05068332 14276560
0.44900003 0.051124617 0.059893403 14605524
0.45411435 0.055039488 0.057929259 14868696
0.46822226 0.054959323 0.050400224 14868696
0.45800003 0.063460745 0.058538999 15000282
0.46236363 0.065963022 0.056242939 15066074
0.47028571 0.066210844 0.050622344 15263452
0.46510011 0.074035302 0.058717836 14737108
0.47429997 0.074438818 0.050609656 14605523
0.48162505 -0.13180922 0.064099617 14407890
0.47683725 -0.12367968 0.065007225 14210253
0.48035297 -0.12830406 0.063743651 14604754
0.46799999 -0.11192525 0.065387599 14276046
0.47208694 -0.117024 0.064435259 14341839
0.45900008 -0.10121507 0.066420875 14276046
0.46358937 -0.1058457 0.064683609 14407632
0.44883335 -0.090655088 0.066612512 14867926
0.45362499 -0.095372327 0.064388998 14867926
0.43900004 -0.080430016 0.069042079 14999769
0.44498649 -0.084607646 0.065048106 15197147
0.45025003 -0.088657752 0.060323507 15723492
0.43614271 -0.074014559 0.066848345 15394527
0.44245464 -0.075683437 0.062217329 15657956
0.42860001 -0.061467864 0.069211572 15526626
0.4336895 -0.065071493 0.065442301 15526114
0.44235715 -0.066941932 0.060853686 15460833
0.4546667 -0.060515523 0.060291115 14540245
0.42705721 -0.054877199 0.06864585 15197661
0.43178582 -0.0557294 0.064464875 14934489
0.45566669 -0.059230763 0.060775664 14474451
0.42609093 -0.047923084 0.068895645 14605268
0.43071431 -0.048258688 0.06681595 14671316
0.42290908 0.0082341442 0.068560809 13947595
0.42448997 0.014361858 0.067873664 14145230
0.43416667 0.01719014 0.06524694 14078925
0.44310012 0.017727267 0.062110849 13947596
0.42720008 0.022794632 0.068834737 14408915
0.43414056 0.025724117 0.065789372 14342867
0.44274294 0.024898477 0.061602298 14145489
0.43591541 0.034741018 0.066429593 14408657
0.44227779 0.035403095 0.061466284 14408659
0.43842861 0.042468842 0.068061583 14342350
0.44322374 0.045459479 0.064177737 14408402
0.44677451 0.054080486 0.065746874 14539987
0.45142859 0.057266507 0.061725073 15000282
0.44900003 0.060876653 0.068185546 14868952
0.45387062 0.065405309 0.064530358 14868952
0.4578214 0.072802044 0.067230679 14802903
0.46270007 0.075896338 0.063798301 14539731
0.47535297 -0.12347193 0.073841996 13289151
0.46774194 -0.11192894 0.074825145 13420737
0.47132501 -0.11708486 0.075284243 13223358
0.45882362 -0.10163968 0.076619536 13354944
0.46247724 -0.10571251 0.074164584 13486530
0.44846156 -0.091596536 0.076213926 13618116
0.4544706 -0.096469998 0.074824907 13618116
0.43840009 -0.08175768 0.075718507 13881288
0.44258827 -0.086409278 0.074476071 13947081
0.42888886 -0.071036085 0.076064497 14341326
0.43260869 -0.075224727 0.074759498 14275790
0.41850001 -0.06060683 0.07786794 14472655
0.42485872 -0.065005958 0.074738659 14736084
0.43000001 -0.068563737 0.070696883 14933976
0.41574335 -0.054493144 0.076532148 15065049
0.42220458 -0.055483427 0.071948975 15394782
0.40777779 -0.043216974 0.078398593 15262684
0.41414872 -0.045641765 0.074934125 15197148
0.42111766 -0.046663299 0.070960239 14934490
0.40626168 -0.035325427 0.077436194 14605269
0.41033337 -0.038931653 0.07426744 14736598
0.40347621 -0.027086204 0.078734078 13618375
0.398 -0.013379925 0.079643354 14013133
0.40000001 -0.011419454 0.07926441 14013132
0.40276006 -0.0046866979 0.078839853 14210766
0.40743995 0.0028077608 0.07842125 14144973
0.41353846 0.006691684 0.075643741 14211022
0.42127782 0.0059961579 0.071753338 14079180
0.41572008 0.014906386 0.076557525 14079436
0.4214879 0.016167706 0.072032541 14211279
0.41790906 0.021571005 0.078423969 14079178
0.42399988 0.025438946 0.074748896 14145486
0.43000001 0.029331779 0.070445225 14540501
0.42733338 0.032486551 0.076493755 13882314
0.4316819 0.036572389 0.073916495 13948363
0.43662491 0.044677548 0.075398251 13750983
0.44030774 0.048747744 0.071815699 14013899
0.43900001 0.050499838 0.078085899 13947849
0.44346601 0.055341586 0.07481347 14277071
0.4480612 0.063211255 0.075755082 14474194
0.45143756 0.067521021 0.074119955 14211535
0.45618188 0.073762052 0.074988306 14013643
0.46000001 0.078760386 0.071052529 11250081
0.46100003 0.080010816 0.071206994 11644839
0.47300002 -0.12054265 0.080811657 12894906
0.46693754 -0.11216817 0.083866946 12631221
0.47111118 -0.11663298 0.082264602 12697014
0.45839387 -0.10218854 0.084463172 12762807
0.46247497 -0.10736295 0.085127197 12631221
0.44866666 -0.091164514 0.084566191 12697014
0.45370007 -0.096194446 0.084971815 12697014
0.43816671 -0.08179155 0.084734432 12762807
0.4432821 -0.086660989 0.08536201 12697014
0.42900002 -0.070161812 0.084090479 13025979
0.43271953 -0.075043581 0.08502233 12697014
0.41764706 -0.060944207 0.085789651 12959930
0.42427123 -0.066047817 0.085090965 12894394
0.40899998 -0.050613765 0.086154394 13486530
0.41308054 -0.055331048 0.084711559 13486274
0.40531832 -0.045014787 0.084929995 14144460
0.39701477 -0.033894796 0.086932041 14276046
0.40153441 -0.035865996 0.082388118 14867927
0.39480838 -0.024615137 0.085861571 13815495
0.40062505 -0.027831787 0.081223726 14473939
0.39489153 -0.014606638 0.085412361 13684166
0.40000001 -0.010170911 0.080512956 13618629
0.39717185 -0.0060561718 0.086955473 14079693
0.40087494 -0.0037884694 0.082847372 14145229
0.39900002 0.00012924365 0.089652337 13356225
0.40413904 0.0045283171 0.085147724 13553348
0.40859091 0.011524171 0.086980276 13158846
0.4124606 0.015795723 0.084430553 13421505
0.41706556 0.023011835 0.084843501 13355712
0.42112201 0.028151207 0.084882803 13289919
0.42645451 0.033743318 0.084873095 13224126
0.43035722 0.038496144 0.085255906 13224126
0.43535623 0.044809844 0.085003927 13289919
0.43900007 0.050602604 0.084663227 13158333
0.44223294 0.055588905 0.084901199 13355968
0.44737697 0.064072162 0.084368221 13553349
0.4506667 0.068672709 0.086040258 13224385
0.45274079 0.072495379 0.084768109 13224129
0.46500003 -0.11142815 0.090330593 12236463
0.45900008 -0.101443 0.09229093 12039341
0.46167931 -0.10540666 0.094965026 11973804
0.44900003 -0.090250634 0.092478029 12105390
0.45541385 -0.09541177 0.095157169 11973804
0.43883333 -0.080844589 0.092096902 12302256
0.44435298 -0.084838822 0.095031738 11973804
0.45050001 -0.089497507 0.09858802 11908011
0.42900002 -0.070161812 0.090869486 12302256
0.43378791 -0.074668132 0.095126458 12039340
0.44000003 -0.079171166 0.098864734 11710632
0.41875002 -0.060888257 0.091639563 12565428
0.42442426 -0.065029904 0.095243298 12170670
0.42999998 -0.069318719 0.098631084 12039084
0.41420007 -0.054894984 0.0948603 12631221
0.42033336 -0.059560582 0.099038072 12104877
0.39850003 -0.040985048 0.096200861 13748677
0.40339509 -0.045340747 0.09486822 13420224
0.38900003 -0.030836301 0.098333292 10591382
0.39404297 -0.03504264 0.094750069 12827576
0.38699058 -0.024810307 0.095595971 2501672
0.39071423 -0.026576206 0.091230452 5064775
0.3867963 -0.015773881 0.095482253 2764330
0.39080778 -0.013769511 0.091399565 5591632
0.38900003 -0.0095876604 0.098181508 13026487
0.3937622 -0.0052175727 0.094707817 13421762
0.39780647 0.0013319139 0.096470252 13092798
0.40257442 0.0059758001 0.094472103 12961468
0.40755785 0.012630755 0.095372118 12698296
0.41225001 0.017508883 0.09451925 12829625
0.4169434 0.022626193 0.094859652 12764088
0.42152396 0.027582141 0.094999082 12698039
0.42720512 0.033582706 0.094043583 12500660
0.43033341 0.037722811 0.095629506 12435124
0.43561533 0.044179525 0.093603052 12435124
0.44146669 0.048304446 0.097129971 11711401
0.44547218 0.054876007 0.095234394 12369075
0.44893748 0.061233118 0.093253776 12434868
0.45185998 0.065249316 0.095034093 12302768
0.45354548 0.070898861 0.092160508 12039597
0.46482605 -0.10199162 0.10416956 11776425
0.45704547 -0.092551701 0.1036208 11776168
0.4631936 -0.097024955 0.10617891 11776168
0.44670603 -0.082997315 0.10455387 11776168
0.45256004 -0.087705918 0.10563166 11776168
0.43606824 -0.073644117 0.10441162 11973291
0.44166669 -0.078242242 0.10613374 11841705
0.42515793 -0.063850038 0.10460816 12236463
0.43107694 -0.068562038 0.10625663 12170670
0.40900001 -0.050613765 0.1062614 13025725
0.41512239 -0.054060008 0.10457427 12631222
0.42080009 -0.05865518 0.10523019 12368051
0.39703038 -0.041754622 0.10599048 13354688
0.40322226 -0.046374071 0.10435257 13288383
0.38810816 -0.031724721 0.10566574 9868174
0.39282924 -0.036620826 0.10461175 13156796
0.38364062 -0.024997808 0.1050103 2435880
0.38343254 -0.015186479 0.10491648 3158830
0.38797563 -0.0087556923 0.10551266 12829624
0.39212787 -0.0039122738 0.10457729 12895674
0.39679635 0.0019560414 0.1048622 12632504
0.40204599 0.0071883621 0.10500257 12500918
0.40723351 0.012768334 0.10518033 12369332
0.41204259 0.017684573 0.10471316 12435125
0.41685718 0.022328217 0.10451432 12369333
0.4222858 0.026880406 0.1050505 12369333
0.42739287 0.0312647 0.10457154 12171440
0.43213564 0.036378141 0.10488366 12303282
0.43808332 0.041335624 0.10595908 11777194
0.44332609 0.046603251 0.10561337 11579815
0.44766149 0.053920653 0.10461705 11645351
0.45000002 0.059139419 0.10163839 11842988
0.45064288 0.061335001 0.10200925 11645608
0.46900001 -0.10085832 0.1108705 11710632
0.47000003 -0.10107338 0.11220718 11579046
0.45900002 -0.090469785 0.11173011 11579046
0.46369997 -0.093939833 0.1137342 11644839
0.44850004 -0.08122617 0.11232481 11775912
0.45506829 -0.085305445 0.1153966 11644840
0.46000001 -0.089231059 0.1178963 11644585
0.43815389 -0.071265057 0.11399715 12170670
0.44362494 -0.075830504 0.11514973 11907755
0.45000002 -0.079917051 0.11902044 11973804
0.42650005 -0.06206248 0.11465585 12565429
0.43260002 -0.066773735 0.11529291 12302257
0.40730006 -0.050976239 0.11582901 12894393
0.41422859 -0.054065742 0.11434472 12697015
0.4215 -0.058302429 0.11449616 12696759
0.39556056 -0.042840514 0.1150568 13091772
0.402069 -0.047975022 0.11604452 13025979
0.38600004 -0.032850664 0.11523507 9868430
0.39154723 -0.037560999 0.11440122 12762806
0.37774086 -0.023991909 0.1156468 2238756
0.38075861 -0.027143395 0.11232392 2370343
0.37778351 -0.016051002 0.11577763 2173479
0.38087174 -0.012881527 0.11296827 4608076
0.38760528 -0.0075589009 0.11505092 12566967
0.39176807 -0.0032441989 0.11474198 12566968
0.39650986 0.0017708221 0.11517193 12303796
0.40218034 0.006913085 0.11527716 12171953
0.40759999 0.012539777 0.11484363 12237746
0.41341862 0.017337836 0.11618451 12237746
0.41768181 0.02138163 0.1154062 12303539
0.42312694 0.025791679 0.11502116 12106161
0.428 0.030728722 0.11408479 11974575
0.43434215 0.035742644 0.1135372 11974574
0.44120002 0.039185476 0.11752071 11842988
0.43900001 0.040222771 0.11097252 11316644
0.44538569 0.044975962 0.11484084 11711402
0.45000002 0.049658295 0.11796699 11579816
0.44881248 0.051957373 0.11227134 11580073
0.45100001 0.053012125 0.11596889 11645866
0.45624 -0.08383172 0.12462583 11644840
0.46000001 -0.08707732 0.12848552 11447460
0.43900001 -0.070769578 0.12073573 12236722
0.44473815 -0.073859423 0.12451831 12105390
0.45181817 -0.078510359 0.12700495 11908011
0.42563638 -0.061643507 0.12361973 12631221
0.43545455 -0.067195036 0.12286346 12434099
0.44166669 -0.068958715 0.12802009 12303025
0.40677273 -0.05103353 0.12576985 12828600
0.41463888 -0.055553313 0.12502752 12762807
0.42076924 -0.059268657 0.12553285 12631221
0.39494109 -0.042887483 0.12524091 12894393
0.40206459 -0.047967419 0.12510338 12828856
0.37849998 -0.03096397 0.12632141 2958881
0.38551807 -0.034802888 0.12491179 11578532
0.39070588 -0.038827293 0.12361895 12894137
0.37437534 -0.024889972 0.12507682 1909791
0.37452814 -0.015117832 0.12497929 2962992
0.38787046 -0.0063595893 0.12439741 12632761
0.39162791 -0.0022373546 0.12470972 12303540
0.39612699 0.0024462927 0.12493528 12040625
0.40214822 0.0076841647 0.12480665 11974576
0.40674517 0.012496044 0.12486418 11974576
0.41241029 0.017194686 0.12326034 12040368
0.41707143 0.021407427 0.12328376 11974575
0.42403853 0.026489021 0.12617327 11842989
0.428 0.030197307 0.12622787 11776939
0.43400002 0.031646002 0.1284906 11776938
0.44425008 0.037676077 0.12698904 11645355
0.44833341 0.042673204 0.12487818 11777196
0.45182052 0.047068637 0.12552619 11908782
0.45417395 0.051598828 0.12632068 11250851
0.45807999 -0.08281251 0.13372515 11644839
0.46000001 -0.086808108 0.13054952 11250081
0.44756672 -0.072397567 0.1358365 12105135
0.45315629 -0.07782989 0.1350355 11842220
0.42900002 -0.063131727 0.13304994 12434099
0.43500003 -0.065033033 0.13134581 12433842
0.44450006 -0.068981767 0.13413849 12236976
0.40387502 -0.051162638 0.13515157 12368050
0.41500002 -0.055530969 0.13321695 12500148
0.42060003 -0.057367116 0.13664731 12236721
0.38875005 -0.040827259 0.13876736 12763320
0.39404815 -0.044141136 0.13490301 12762808
0.40099999 -0.049623765 0.13655218 12499636
0.36800003 -0.03060744 0.13538046 2107426
0.37422222 -0.030931868 0.13332385 2763299
0.38592684 -0.036739938 0.13515431 12630963
0.36777201 -0.025029607 0.13519722 2107426
0.3711552 -0.025139844 0.13191542 1712923
0.368 -0.016183589 0.13562439 2830635
0.37216684 -0.015300425 0.13244034 3093807
0.37825 -0.0093960566 0.13302824 12435125
0.38732255 -0.0047790473 0.13510954 11711403
0.39083338 -0.0016261414 0.13348514 11645610
0.39531815 0.0020484307 0.13428971 11513768
0.40268183 0.0072719771 0.13410135 11645611
0.40753335 0.011264018 0.1346304 11513769
0.41471875 0.015740732 0.13644399 10856095
0.42075002 0.019590147 0.13640121 11119524
0.4255676 0.023759294 0.13526025 11250853
0.43046665 0.028155493 0.13777085 10790302
0.43471432 0.031108469 0.1367851 11053218
0.44558135 0.037461143 0.13567849 11316389
0.44865003 0.041790172 0.13504854 11908782
0.45285016 0.046426736 0.13405797 11711403
0.45537502 0.050651751 0.13376686 11579561
0.44607702 -0.07325507 0.14311922 11644585
0.42900002 -0.061123136 0.14409721 11644840
0.43368179 -0.06465964 0.14450933 11710377
0.44315794 -0.068273567 0.14254145 11973549
0.40100002 -0.050562512 0.14079413 12039343
0.42699999 -0.059239734 0.14252812 11710632
0.38850003 -0.041256331 0.14186162 12368819
0.39454171 -0.045641154 0.14163621 12434099
0.40000001 -0.049500015 0.14184763 12170929
0.36800003 -0.030463859 0.14385299 1646618
0.38490915 -0.037153695 0.14132777 12105647
0.366 -0.023534855 0.14349841 1449239
0.36507306 -0.015473096 0.14668946 2565919
0.42900002 0.025246378 0.14058217 10921889
0.42999998 0.026647411 0.14124541 10395801
0.44700003 0.037816454 0.14020211 11184804
0.36274999 -0.03251503 0.15805508 2500128
0.3636471 -0.024817562 0.15865095 659464
0.36429879 -0.014734425 0.15538351 2432020
0.36189398 -0.032551151 0.16440091 1974810
0.36240202 -0.02482548 0.16512062 1251857
0.36337379 -0.016321231 0.16454507 1644816
0.34447476 -0.033209164 0.1780992 1646617
0.35519633 -0.032311134 0.17584872 1186065
0.36079171 -0.032401633 0.1718632 1580564
0.34459788 -0.025053991 0.1781009 1449495
0.35533568 -0.025179073 0.17527771 988944
0.36052376 -0.024317313 0.17157477 1647130
0.34573221 -0.016968956 0.17861283 1317910
0.354 -0.016845318 0.17636308 922896
0.36145958 -0.017147988 0.17246602 1186324
0.33798409 -0.033374257 0.18703704 1712155
0.34080553 -0.033309884 0.18231817 1712411
0.33819056 -0.025250787 0.18781555 1646360
0.3410438 -0.024996635 0.18301982 1580568
0.33842635 -0.016643697 0.18685138 1514774
0.34121674 -0.017235637 0.18235666 1514519
0.33699998 -0.032451842 0.19047384 1711893
0.33745828 -0.02483785 0.19076885 1777432
0.33800003 -0.018010464 0.19099589 1711641
0.79383343 0.16875035 0.20531942 11053470
0.79347837 0.17510848 0.20462067 11053471
0.79488009 0.18448333 0.20465693 11053471
0.79624999 0.16755584 0.22737171 10921886
0.79250002 0.15980878 0.23279953 11052959
0.79386365 0.16507043 0.23514156 10921629
0.79100001 0.14839584 0.249024 10790298
0.78900003 0.15294613 0.24131398 10921884
0.79066664 0.1575893 0.24382968 10790298
0.79313046 0.16478394 0.24521299 10790298
0.79210007 0.15611243 0.25530642 10790298
0.79418188 0.16513728 0.2547591 10724506
0.7952801 0.15478146 0.26508066 10658711
0.79525006 0.16388948 0.26492363 10592919
0.79580641 0.16510376 0.27520829 10593176
0.79146677 0.095740572 0.32285181 10132111
0.79550004 0.10433639 0.32492909 10263697
0.79353344 0.096114248 0.33645126 10132111
0.79600006 0.10482121 0.33496973 10263440
0.79521894 0.15494524 0.33452716 10330004
0.79565638 0.16451991 0.33453873 10395798
0.79503578 0.10428532 0.34488249 10132369
0.7951715 0.11460757 0.34514037 10132370
0.796 0.1251107 0.34470096 10132627
0.79591191 0.14493017 0.34537247 10264211
0.79442865 0.15441871 0.345283 10330004
0.79472232 0.16490898 0.34508011 10329748
0.79503334 0.17520931 0.34521249 10395540
0.79406071 0.13516325 0.35489956 10198163
0.79123366 0.144734 0.35467365 10198163
0.79151452 0.15484643 0.35493264 10198420
0.7933104 0.1651604 0.35512561 10198420
0.79424012 0.17503513 0.35509637 10264213
0.79565215 0.18458064 0.35499913 10329748
0.79371434 0.14492075 0.36521852 10066834
0.79203576 0.15534355 0.3649742 10066834
0.79244447 0.16557072 0.36501291 10132627
0.7945385 0.17495988 0.36474472 10132884
0.79463995 0.16492824 0.37499538 10001039
