# .PCD v0.7 - Point Cloud Data file format
VERSION 0.7
FIELDS x y z rgb
SIZE 4 4 4 4
TYPE F F F U
COUNT 1 1 1 1
WIDTH 415
HEIGHT 1
VIEWPOINT 0 0 0 1 0 0 0
POINTS 415
DATA ascii
0.48562503 -0.013486736 -0.050611615 15591134
0.48386672 -0.0046788733 -0.051523626 15788255
0.48533341 0.0031909728 -0.051148579 13552065
0.48837498 -0.021136437 -0.044181552 15130072
0.49168 -0.025075505 -0.042976417 14998485
0.48561651 -0.014486532 -0.045138072 15393755
0.48306859 -0.0050040567 -0.045201093 15328732
0.4850972 0.0043928791 -0.044944435 14276301
0.48855558 0.010833295 -0.043102253 13750214
0.49114281 0.01428858 -0.042562596 12763577
0.49800003 0.021730281 -0.040826432 11381412
0.49724999 -0.032326266 -0.034510765 14670547
0.47900003 -0.0200291 -0.030298015 14999767
0.48451361 -0.02231702 -0.034672868 14801620
0.49268177 -0.027733641 -0.035935801 14801620
0.47692591 -0.014237574 -0.031823833 15328732
0.48218185 -0.015599177 -0.036866993 15393756
0.47632092 -0.0050210827 -0.034069281 15328990
0.48042113 -0.0065935366 -0.038497675 15328990
0.47726923 0.0023479506 -0.032555398 14539730
0.4823705 0.0058726673 -0.036139827 13947593
0.48724008 0.011657656 -0.034699593 13355456
0.4931801 0.016976593 -0.034956671 12763833
0.49821439 0.021655774 -0.034263734 12631990
0.50312495 0.025294289 -0.034473624 12105902
0.48525006 -0.031709343 -0.023486519 14736082
0.49280006 -0.032374434 -0.02840288 14736339
0.47618756 -0.023085037 -0.023714727 14867924
0.48258331 -0.027055286 -0.025887437 14802132
0.46799999 -0.013363212 -0.022143416 15394524
0.47251934 -0.015997218 -0.026044365 15197146
0.46741462 -0.0056651114 -0.022817142 15263452
0.47144994 -0.0050087655 -0.027865473 15197660
0.46883336 0.00088382233 -0.021606522 14474195
0.47422954 0.0045155045 -0.025102969 13947851
0.48060003 0.0089316843 -0.027924296 13356227
0.48392862 0.012180977 -0.024100643 12764089
0.49330765 0.017932532 -0.026045475 12566711
0.49833342 0.021860939 -0.025453603 12435126
0.5043714 0.026282981 -0.024921771 12632248
0.51220691 0.032465588 -0.023834106 12303283
0.46500003 -0.030329432 -0.01090673 14539216
0.48280001 -0.031946462 -0.017277913 14539216
0.46700007 -0.02360169 -0.012946269 14868181
0.47290626 -0.025213499 -0.016941717 14867668
0.48050004 -0.029090695 -0.018582458 14933461
0.45900002 -0.011133857 -0.010765998 15460831
0.46435905 -0.015118907 -0.01530547 15197402
0.47000003 -0.019652771 -0.019826233 14933974
0.45900008 -0.0064417552 -0.011482349 15197659
0.4624697 -0.004982702 -0.016006242 15131610
0.46612504 0.0027026962 -0.014622512 14079692
0.47219235 0.0069603627 -0.016262226 13224641
0.47730002 0.010658988 -0.013770116 12764089
0.4835 0.01301867 -0.015868684 12500917
0.49400008 0.018368984 -0.015285364 12369332
0.49705711 0.023102585 -0.014058717 12434612
0.50306672 0.02631353 -0.017611252 12829369
0.51637036 0.033933148 -0.016492723 12894905
0.52095652 0.037817709 -0.014285919 13487042
0.52466673 0.04193319 -0.014008022 12631990
0.53320003 0.047858313 -0.012253085 11842473
0.53841674 0.052273955 -0.011472863 11777193
0.54000002 0.055797502 -0.010137579 11908779
0.46570006 -0.031304002 -0.0049193734 14407631
0.47000003 -0.033956394 -0.0033220567 13815495
0.458 -0.022101853 -0.0016307144 14868181
0.46317402 -0.025437227 -0.0059194644 14802388
0.45610523 -0.014353418 -0.0041346862 15197146
0.46121427 -0.017436998 -0.0087369364 15065560
0.45586669 -0.0051855906 -0.0048370203 15066073
0.45774353 0.0023218174 -0.0033495952 13882570
0.46268752 0.0040884893 -0.0072622453 13422019
0.47100002 0.0078709023 -0.0099448413 12895674
0.47575003 0.011575346 -0.00058215461 12435380
0.48518184 0.015672276 -0.0048575131 12435123
0.49066666 0.018921025 -0.0084463079 12303537
0.48715395 0.023011178 -0.002129632 12566709
0.49228573 0.023377845 -0.0074343914 12435123
0.51804173 0.034732934 -0.004976789 12763833
0.52109998 0.038109437 -0.0058183679 13224384
0.52552009 0.042298533 -0.0060256296 12434868
0.53288895 0.047121301 -0.0043198285 12303537
0.53806257 0.051267739 -0.0047490541 12632245
0.54204762 0.055107009 -0.0043057501 12171695
0.55166668 0.059585929 -0.0013155896 12039855
0.55562502 0.062619023 -0.0013255228 11579816
0.56 0.065729894 -0.0013362548 11645607
0.45583335 -0.031333186 0.0085163312 14276046
0.46400002 -0.031359803 0.0021421504 14210253
0.44900003 -0.021665242 0.0091770012 14933974
0.45442477 -0.025010984 0.0052469028 14736595
0.461 -0.028630367 0.0014173506 14539218
0.44812 -0.01441757 0.0071734809 15131609
0.45132437 -0.015675925 0.0028612257 15131353
0.44822732 -0.0058147237 0.0071554617 14934487
0.45108104 -0.0042741708 0.0029457661 14868695
0.44900003 0.0001454396 0.0094397804 14211534
0.45516989 0.0028701746 0.005221562 13685191
0.46395999 0.0083661359 0.0062741423 12501173
0.46872729 0.011125032 0.0065624174 12566966
0.47352001 0.015060234 0.0057844385 12369587
0.48133337 0.018748667 0.0022303264 12303794
0.47787502 0.020991901 0.007668375 12435380
0.48331583 0.022787174 0.0033056266 12435380
0.49100003 0.027745601 0.0011272704 12764088
0.51733339 0.036301967 0.007243942 12698295
0.52187502 0.038196247 0.0048618484 12698295
0.51900005 0.040262733 0.0096964743 12829881
0.52517855 0.042809088 0.0061594173 12566709
0.53231585 0.047266807 0.0043651275 12632502
0.53724998 0.051867913 0.0058828327 12960953
0.54323816 0.056258731 0.0053040748 13224126
0.55050004 0.05945991 0.0031963848 13093054
0.54683334 0.06205453 0.0085094916 13026490
0.55417651 0.063446216 0.0039392854 11842987
0.56033331 0.067299657 0.0025978105 11645607
0.45500004 -0.031453755 0.012168096 14144717
0.44531882 -0.023986524 0.015755674 14737108
0.45200005 -0.027932538 0.011900054 14539217
0.43880004 -0.013366824 0.018726941 15066073
0.4429751 -0.015245047 0.014035004 15000280
0.43881825 -0.0071416171 0.018937962 14868695
0.44334188 -0.0047400529 0.014446465 14737108
0.4455758 0.0015679531 0.015868228 13684934
0.4535 0.0038737978 0.011792594 13421505
0.46441665 0.0084887492 0.013754166 12698296
0.46860713 0.012376672 0.016981736 12435382
0.47118187 0.016025098 0.014664301 12435380
0.47570005 0.020645719 0.014559085 12500916
0.48586211 0.02628541 0.015827967 12566709
0.49000001 0.028836189 0.013743061 12764088
0.49342856 0.031190692 0.018133653 12829881
0.50674999 0.036645986 0.018661955 12829881
0.51328003 0.03784747 0.014337846 12764088
0.51586366 0.042272113 0.015281963 12764089
0.52400005 0.046716612 0.014117879 12829881
0.53060001 0.049609493 0.012645632 12829624
0.52700001 0.050753079 0.019097639 12895674
0.53565794 0.054433692 0.014985376 13158332
0.54121429 0.058819652 0.013457822 13487040
0.5440976 0.063866258 0.014197232 12566196
0.44685 -0.031502776 0.025245612 14012874
0.45250005 -0.034553751 0.028582126 13881288
0.43695125 -0.022615273 0.026719378 14736595
0.44230008 -0.026349798 0.023940299 14473680
0.43449467 -0.014853408 0.024752408 15000280
0.43523064 -0.0053692367 0.025003331 14540243
0.44000003 -0.00088752358 0.020581093 14343120
0.43853852 0.00061619713 0.027065597 13619654
0.44354758 0.0038147799 0.025890691 13224639
0.45389476 0.0083153294 0.024693757 12632503
0.46233335 0.0095302174 0.020903146 12566711
0.45657149 0.011602159 0.028380616 12566709
0.46516138 0.016243968 0.024699247 12500916
0.46614289 0.021743538 0.026398009 12764088
0.47000003 0.02380823 0.024735045 12895674
0.4849 0.027180377 0.022903226 12764088
0.49000001 0.02998329 0.029228896 12895674
0.49393547 0.034035735 0.026532616 12895674
0.50450009 0.037566449 0.02162637 12829881
0.50568748 0.041525785 0.026014118 13026747
0.51335287 0.045419127 0.024117395 13092797
0.52100003 0.048955578 0.021319536 12895674
0.52546436 0.053775925 0.026644651 13158591
0.53300005 0.057671513 0.024022494 13421249
0.53557146 0.063148938 0.025611235 13553091
0.5402 0.064164832 0.020715153 13223869
0.45750004 -0.040550403 0.039070837 13815495
0.44650003 -0.031736229 0.034587696 13684166
0.45635182 -0.03606673 0.035367258 13749959
0.46000001 -0.039695121 0.032823712 13815753
0.42800003 -0.021529241 0.038804706 14671315
0.43281332 -0.024725128 0.034910794 14539729
0.44212502 -0.02883976 0.031287346 14210508
0.42700005 -0.015022087 0.036740892 14803414
0.43008834 -0.015793102 0.031725537 14868951
0.42728889 -0.007194805 0.037231188 14409170
0.43116137 -0.0042342674 0.033416275 14211534
0.43493184 0.0019957672 0.035630494 13422019
0.44521222 0.0070082187 0.033902813 12895932
0.45050001 0.0096375821 0.034252554 12632761
0.44900003 0.011182169 0.039922178 12698295
0.45557904 0.014583561 0.036083508 12500918
0.46145451 0.017680721 0.03204079 12501173
0.45900002 0.020833328 0.038930889 12830139
0.46297503 0.023619492 0.03636653 12895675
0.48533335 0.029697737 0.032540087 12895674
0.48400003 0.033015307 0.038501937 13224641
0.49381572 0.036581699 0.033379037 13027260
0.49747622 0.042421311 0.036518604 13093054
0.5037201 0.046299286 0.035538815 13224639
0.51142865 0.048398655 0.032130122 13224639
0.50849998 0.050161831 0.037474297 13422018
0.51539999 0.054539632 0.0369616 13224639
0.52336365 0.056810346 0.032718699 13224640
0.51800001 0.060800154 0.039993972 13618627
0.52532434 0.063787259 0.036296424 13421505
0.53164715 0.066649549 0.032698467 12763833
0.53300005 0.070047364 0.033665527 11448228
0.45333335 -0.040710945 0.04189663 13881288
0.42600003 -0.030777497 0.049345814 14012874
0.43900001 -0.030689005 0.041088454 13552836
0.44637936 -0.034458805 0.044527646 13552580
0.45111111 -0.038928069 0.043274939 13815495
0.41900003 -0.020462897 0.049025409 14802901
0.42420721 -0.024438826 0.045541629 14408144
0.43192309 -0.027632128 0.041436501 14210764
0.41845846 -0.014885207 0.049206275 14868694
0.42218602 -0.015230505 0.0442634 14803158
0.41850001 -0.0096616 0.049456179 14737110
0.42404002 -0.0052514356 0.045028154 14145741
0.43000001 -0.00086735259 0.040749412 13816778
0.42789999 0.00064005097 0.048160937 13422019
0.43389013 0.0046897731 0.045055658 13224640
0.44137502 0.0089270547 0.04298779 12829882
0.43900001 0.010419269 0.048796259 12830139
0.44598281 0.013779599 0.046054285 12698296
0.45246875 0.017163496 0.042807985 12632503
0.44900003 0.020116664 0.049382232 13027260
0.45654169 0.021971339 0.044503886 12961468
0.46425715 0.026988609 0.044295713 13093054
0.46900001 0.030894168 0.04938601 13290434
0.47463638 0.033546984 0.047147527 13224640
0.48341939 0.037613101 0.044979874 13290434
0.49066666 0.038830992 0.040563289 13224641
0.48617649 0.041935291 0.047172002 13224641
0.49393868 0.045475032 0.044572279 13158848
0.50271428 0.049087439 0.041500602 13224641
0.49760002 0.051184136 0.048436135 13224641
0.50502861 0.054518074 0.045979809 13290177
0.51208693 0.057189919 0.043129578 13224641
0.50766665 0.061172154 0.049495071 13421249
0.5166316 0.064366937 0.0447505 13552836
0.52109092 0.066930793 0.041340344 13355457
0.44380003 -0.040790819 0.058369167 14012874
0.41600001 -0.030055018 0.057439163 13223358
0.42728573 -0.031300463 0.052137587 13881543
0.43472224 -0.034581032 0.054380558 13552322
0.44158337 -0.037762728 0.057957914 13683909
0.41516101 -0.023819631 0.055914614 14539729
0.42175007 -0.026897753 0.051609378 14276301
0.41396341 -0.014885607 0.055203725 14802901
0.41667166 -0.0067754393 0.0556763 14014156
0.4214049 -0.0027260068 0.053648699 13619399
0.42613637 0.001979776 0.055545464 13290434
0.43222418 0.006845084 0.05459886 13224641
0.4366087 0.012589383 0.056367978 13027262
0.44303715 0.017203372 0.054269627 12829883
0.44761541 0.022475302 0.055431414 13093055
0.4527632 0.026955875 0.055009749 13158848
0.46225002 0.029098174 0.050836571 13224896
0.45766667 0.031577196 0.05819343 13158848
0.46266666 0.032645538 0.056482699 13159105
0.47447225 0.03708858 0.053933129 13290433
0.48000002 0.039484583 0.050544318 13224639
0.47676 0.041944221 0.056807533 13158848
0.48334047 0.045951862 0.054306477 13158847
0.49125004 0.049322844 0.051439833 13158847
0.48749998 0.051420156 0.057608977 12895676
0.49481252 0.055065736 0.055256367 13027261
0.50175005 0.0580124 0.052342411 13289920
0.4975 0.060723282 0.058792103 12632247
0.50535715 0.062742949 0.054562606 13223869
0.51133341 0.06620536 0.051248718 13552834
0.44465223 -0.041813627 0.063248985 13552323
0.41600001 -0.030763496 0.065488011 13815494
0.4249 -0.034532495 0.067268811 13486530
0.43562505 -0.036508553 0.065239713 13552323
0.44255555 -0.037846692 0.062139895 13683654
0.40691063 -0.023885749 0.066712275 14539473
0.41217393 -0.026575368 0.063033491 14276301
0.4066208 -0.015203412 0.065343618 14737108
0.41020003 -0.013309722 0.060479473 14737364
0.40812907 -0.0078186505 0.067136995 14014155
0.41377342 -0.0041055861 0.063919008 13619398
0.41732508 0.0019694255 0.066386349 13356225
0.42334697 0.0056869667 0.06459292 13290433
0.4303 0.0081985705 0.061427843 13224898
0.42781818 0.010791914 0.067809135 13027519
0.43392938 0.014924279 0.06485562 12961726
0.44050002 0.019220812 0.060821999 12764347
0.43875 0.020941477 0.06905368 12764347
0.4449566 0.02361157 0.06530007 12895933
0.4526667 0.028408848 0.064874582 12961469
0.45817238 0.032106053 0.06544362 12829883
0.46378943 0.03647396 0.065921903 12632504
0.47050002 0.039437804 0.06294395 12961469
0.46900001 0.040775601 0.069148883 11974574
0.47534007 0.043715771 0.06478139 12500918
0.48099995 0.04857602 0.064385884 12369332
0.48610002 0.053685606 0.062600918 12237746
0.49050003 0.0569988 0.060836125 12435125
0.40693885 -0.032125738 0.075270861 13749703
0.41170591 -0.035979461 0.07503996 13486530
0.39800006 -0.022678701 0.078852966 14736853
0.40259415 -0.025387665 0.074454583 14473682
0.39800003 -0.015868798 0.078449294 14671317
0.40201223 -0.014784551 0.073519722 14605523
0.40551499 -0.0056873518 0.075643145 13947850
0.41116667 -0.0017372885 0.072491221 13487812
0.40860003 0.00051534374 0.078608856 13487043
0.41536006 0.003528957 0.074808851 13093055
0.42114297 0.0084116636 0.074695162 12698555
0.42541176 0.012424746 0.075328611 12369332
0.43121621 0.01697723 0.072769441 12435382
0.43527272 0.021730073 0.073709853 11974831
0.44211116 0.024870861 0.07116311 12369589
0.45640007 0.031776864 0.071350016 12106163
0.46378571 0.035902422 0.073112622 11711403
0.47350001 0.036466077 0.078400388 11316901
0.48000002 0.039484583 0.079760224 10922143
0.47500005 0.04397257 0.070916072 11514280
0.48433337 0.047271952 0.073686637 11185315
0.49181825 0.04820317 0.078376144 10724507
0.48624998 0.052240476 0.07112392 10987936
0.49288467 0.053594299 0.077421151 10592920
0.39602789 -0.031703711 0.086320549 13551810
0.40207145 -0.032682139 0.081395261 13815495
0.39433542 -0.024808111 0.085260585 13618887
0.40000001 -0.029523328 0.08082509 14144459
0.3943105 -0.014658128 0.08512307 13684679
0.39643481 -0.0078775128 0.085755169 13684422
0.40190381 -0.0036446627 0.083117567 12960700
0.40762499 0.00060960511 0.081927754 12434868
0.41482601 0.0053620674 0.083172806 11579818
0.42000002 0.0099683218 0.080605693 11908784
0.42125002 0.011724783 0.081336908 11119523
0.47551721 0.036627982 0.084004544 10461592
0.48000002 0.039484583 0.083880417 10593178
0.48358345 0.043703083 0.085516624 10395799
0.49183342 0.048199475 0.082620941 10395541
0.49350002 0.052943226 0.082219295 10658969
0.38876468 -0.03146033 0.097469606 7894643
0.39101458 -0.034432262 0.095231108 12762294
0.38684753 -0.02509813 0.095163144 2436134
0.39018184 -0.025699938 0.09057723 4276543
0.38730192 -0.015736312 0.095604591 2829609
0.39052007 -0.013657604 0.091549225 6381146
0.38900003 -0.009891212 0.098333292 13158328
0.3917577 -0.0075274869 0.094523318 12500660
0.48300004 0.039084908 0.09269955 10132626
0.48440009 0.043307371 0.092343703 10724763
0.38900003 -0.04158204 0.1088969 14406860
0.3907392 -0.041274432 0.105889 14209482
0.38719147 -0.034046676 0.10609443 10197137
0.39043757 -0.037520908 0.10266549 13946566
0.38270646 -0.024966089 0.10479187 2304805
0.38338852 -0.015234268 0.10478342 2895657
0.3882333 -0.0091132289 0.10592032 13026487
0.39144781 -0.0056016399 0.10474776 12434609
0.38679978 -0.043855943 0.11575829 14406859
0.37900004 -0.030043593 0.11887383 2304548
0.38382292 -0.035068691 0.11485434 10065036
0.37738919 -0.024253137 0.11502843 2107170
0.38040003 -0.028819025 0.11200967 2239014
0.37756193 -0.016130477 0.11517362 2369830
0.38099995 -0.011778163 0.11414779 5197897
0.38693675 -0.0069987387 0.11556649 12895416
0.39075005 -0.0030734052 0.1144025 11513765
0.39270002 0.00058768119 0.11673562 10461335
0.38351521 -0.051431019 0.12624073 13946823
0.38263679 -0.044787865 0.12502262 14341067
0.37761119 -0.031875238 0.12614378 4211003
0.38142708 -0.036217932 0.1242253 10130829
0.37394857 -0.024970556 0.12491961 1778204
0.37484139 -0.015234933 0.12515758 2567979
0.37866667 -0.0096284626 0.12851961 12107187
0.38499993 -0.0056606252 0.12499865 12500916
0.39000002 -0.00078666862 0.121411 10592151
0.39200005 0.00089248904 0.1209622 9869198
0.37900001 -0.053999227 0.133957 13485760
0.38088888 -0.052137837 0.13351206 14012616
0.37899998 -0.044683147 0.13506606 12104617
0.38061681 -0.045137994 0.133937 12959670
0.36770001 -0.030782565 0.13744916 1909790
0.37549999 -0.032994594 0.13379841 5526864
0.38063261 -0.037937921 0.13422373 9802632
0.36721843 -0.024844076 0.13625795 2041376
0.37073919 -0.025239039 0.13146974 1580825
0.36699995 -0.016204603 0.1366035 2305062
0.37291673 -0.014780177 0.13224944 3225908
0.37811112 -0.009515753 0.13374063 11646125
0.38282362 -0.005307544 0.13435504 12040624
0.38557145 -0.05158519 0.14117976 8026227
0.38300002 -0.048294436 0.14075047 6973280
0.36688891 -0.031373311 0.14475279 1383189
0.37400001 -0.03052278 0.14882503 1317651
0.36645821 -0.02435367 0.14389174 1515031
0.37225005 -0.027259091 0.14809266 922893
0.36513799 -0.015619566 0.14509994 1974556
0.36352253 -0.032459576 0.15565917 2631971
0.36460239 -0.025244037 0.15485355 791050
0.36419797 -0.016242357 0.15509237 1709324
0.36215061 -0.032993928 0.16420318 1580568
0.36201844 -0.024802653 0.1650885 1251859
0.36346087 -0.016539166 0.16474636 1513488
0.34534496 -0.0331438 0.17706914 1449237
0.35255995 -0.03183667 0.17369269 791564
0.36235011 -0.03294792 0.17230612 1383701
0.34521598 -0.025152558 0.17738397 1317908
0.3545391 -0.024723034 0.1741105 791567
0.36070007 -0.024962135 0.1715661 1975324
0.34508944 -0.017127227 0.17822246 1252118
0.35426155 -0.017240474 0.17562129 725519
0.36171061 -0.016725354 0.17229895 1317141
0.3379322 -0.033318974 0.1868833 1711898
0.34000003 -0.033275381 0.18437885 1909020
0.33803216 -0.02521874 0.18744425 1711640
0.34000006 -0.024757154 0.18459593 1645847
0.33843061 -0.016681846 0.18696947 1448468
0.33999994 -0.017201694 0.18404716 1382933
0.33688891 -0.032401633 0.19049057 1514775
0.33727992 -0.02518573 0.19065225 1580311
0.33800003 -0.01762802 0.19100909 1645847
