# .PCD v0.7 - Point Cloud Data file format
VERSION 0.7
FIELDS x y z rgb
SIZE 4 4 4 4
TYPE F F F U
COUNT 1 1 1 1
WIDTH 652
HEIGHT 1
VIEWPOINT 0 0 0 1 0 0 0
POINTS 652
DATA ascii
0.46305549 -0.0028605564 -0.062233586 13288633
0.46468428 0.0047959625 -0.062458385 13749955
0.46861538 0.011375895 -0.062468536 13158076
0.47030011 0.015016516 -0.062942639 12631732
0.48771432 0.026746595 -0.061349671 10790298
0.49087501 0.027738538 -0.063226432 10790555
0.49159998 0.031002153 -0.06193791 10856091
0.48000002 -0.020520389 -0.051486611 12630188
0.46850002 -0.010953154 -0.053353641 12497834
0.47411543 -0.014886837 -0.053332869 12563627
0.45860004 -0.0023750681 -0.052574337 13420733
0.46277782 -0.0059802262 -0.055449132 12827825
0.45823669 0.0031985934 -0.052700549 13750213
0.46174467 0.0059512081 -0.056900099 13618626
0.46696976 0.012776583 -0.054583326 12829624
0.47143245 0.017188042 -0.055319734 12435123
0.47665519 0.021667304 -0.053888343 12435123
0.48287883 0.026744209 -0.054908741 11777194
0.48660001 0.032734759 -0.052429408 10855835
0.49033335 0.03191708 -0.059329491 10922141
0.47900003 -0.0200291 -0.043193512 12366762
0.48281813 -0.022972083 -0.044952817 12629933
0.49000001 -0.027371651 -0.040170584 12695981
0.4653334 -0.011784 -0.04453402 12432555
0.47467494 -0.016857248 -0.045162 12498090
0.45534328 -0.0044600824 -0.044383615 13091768
0.46169233 -0.0087472182 -0.047248721 12498348
0.45393983 0.0045984448 -0.044508684 13684418
0.4605 0.0093130786 -0.049610578 13289662
0.45900002 0.011323762 -0.043001812 12894903
0.46480772 0.013761869 -0.045138352 12105902
0.47209093 0.018038616 -0.046290901 11842987
0.47609097 0.022009745 -0.044978268 12171951
0.48282057 0.02734774 -0.045693621 12500916
0.48756108 0.033344314 -0.04481066 12500659
0.49025002 0.036024369 -0.040477853 12764086
0.49400002 0.040636215 -0.040498506 12764086
0.51800001 -0.04158226 -0.031897686 12827823
0.52100003 -0.044350378 -0.030515283 12959923
0.4981429 -0.030158838 -0.033843845 12564395
0.50400001 -0.033103723 -0.033449814 12630188
0.51481825 -0.038513456 -0.032123711 12827567
0.477 -0.021654276 -0.034770228 12038051
0.48325002 -0.024454586 -0.033396248 12235430
0.49337503 -0.028427526 -0.032653727 12432809
0.45680004 -0.011081664 -0.033069715 12367019
0.46493331 -0.013643146 -0.035212267 12169639
0.47285298 -0.018019058 -0.035474896 12103844
0.4474898 -0.003727572 -0.033505645 13420733
0.45253572 -0.007009991 -0.036533538 12828339
0.44757807 0.0035700717 -0.033965152 13684675
0.45192006 0.0081060342 -0.03662597 13290174
0.45638889 0.011546639 -0.035699539 12632246
0.46422225 0.016533021 -0.035091277 11645352
0.47000003 0.019957254 -0.039081108 12040365
0.47600001 0.022748413 -0.034965016 12106158
0.48462227 0.027367828 -0.03516404 12369586
0.48818186 0.031535007 -0.037111431 12501172
0.49372551 0.035726916 -0.034690708 12632501
0.5 0.039178923 -0.032016486 12434864
0.49800003 0.040965255 -0.038494777 12698295
0.50532436 0.04371883 -0.034040652 12500915
0.5102728 0.048490927 -0.033796057 12829367
0.51241672 0.05225246 -0.031807918 12566196
0.51900005 -0.041141491 -0.020678237 12367016
0.52430302 -0.044394702 -0.025124352 12695980
0.49812502 -0.030157758 -0.025091868 12169636
0.50434625 -0.032900635 -0.024720153 12367014
0.51344836 -0.03735052 -0.024806488 12432808
0.47700003 -0.021062139 -0.02460691 12169636
0.48494446 -0.023595275 -0.02546655 12235428
0.49271429 -0.027745891 -0.024627013 12235428
0.44900003 -0.010365731 -0.024195967 12564141
0.45455816 -0.012854937 -0.024098055 12300967
0.4637 -0.016891941 -0.024998661 12103843
0.47311115 -0.01867998 -0.028446522 11972258
0.44393599 -0.0049188915 -0.025022266 13354683
0.45000002 -0.0093353596 -0.029517144 12695727
0.44275904 0.0044579711 -0.024703795 13553090
0.44450003 0.011071853 -0.020831719 12631734
0.45560002 0.011885909 -0.028178338 12434611
0.46738714 0.017345188 -0.026098985 11447974
0.47000003 0.019957254 -0.026978046 11119266
0.46799999 0.020967927 -0.02138643 11119266
0.47345451 0.022022726 -0.027428741 11645609
0.48600006 0.02721517 -0.027832717 12369587
0.49087504 0.028887682 -0.024724586 12435123
0.4949483 0.033713691 -0.025112938 12566709
0.50012499 0.038798455 -0.025195548 12369330
0.50529271 0.042813137 -0.025701327 12500915
0.51204163 0.047816992 -0.024340244 12698294
0.51650006 0.053206131 -0.025979035 12632244
0.52189475 0.056950934 -0.022784419 12764086
0.52400005 0.06073831 -0.023021236 13026745
0.51704353 -0.042830504 -0.013707511 12367272
0.52900004 -0.048126191 -0.019838262 12761774
0.50477785 -0.032011703 -0.01675899 12301479
0.51258975 -0.037038319 -0.014730742 12301479
0.47562504 -0.021559466 -0.016447229 12367016
0.48525006 -0.024414729 -0.01833979 12235429
0.495 -0.028298637 -0.016363697 12169637
0.43800002 -0.010522397 -0.011095132 12630188
0.44900003 -0.010365731 -0.016838148 12432809
0.45423818 -0.013381273 -0.017387409 12367014
0.46362504 -0.017897023 -0.015618843 12169637
0.43588737 -0.0042435024 -0.014087815 13552318
0.44371432 -0.007506385 -0.018570259 12959155
0.43666148 0.0033383365 -0.014120822 13553346
0.44058615 0.0074349856 -0.017129263 13027004
0.44463634 0.011219169 -0.014400951 12237746
0.45850006 0.016788138 -0.012212557 11053215
0.46033335 0.017750446 -0.014989255 11118495
0.46000001 0.0206095 -0.011327887 11447973
0.48500001 0.025708143 -0.018178836 11777195
0.49160004 0.028700462 -0.017516155 12172208
0.49446669 0.03269415 -0.016958265 12566708
0.50345838 0.037389558 -0.013424963 12566195
0.50683331 0.041297939 -0.015245742 12500401
0.51300001 0.046541996 -0.014878856 12698293
0.51818186 0.051448282 -0.016014464 12829878
0.52413636 0.056258127 -0.015245974 13027000
0.52791667 0.061862484 -0.018044798 13027257
0.53161907 0.065483823 -0.0142162 13092539
0.53433329 0.0708488 -0.013053648 12895161
0.55333334 -0.061135143 -0.00045651148 12761772
0.52700001 -0.050411671 -0.0061923768 12695979
0.53625 -0.050982811 -0.0015903534 12564393
0.546 -0.056063756 -2.4652702e-05 12695979
0.551 -0.058513183 -0.00066982891 12695979
0.51741666 -0.04248077 -0.0064311191 12367014
0.52347058 -0.044672631 -0.0023278857 12432807
0.53157151 -0.048716631 -0.0016225821 12564393
0.51495117 -0.03700342 -0.0057775872 12301222
0.43453851 -0.01240608 -0.0038640522 12367274
0.44142863 -0.014622482 -0.0073988191 12235432
0.428 -0.0035257826 -0.0016104901 13553089
0.43115154 -0.0058888178 -0.0056669619 13289404
0.42833331 0.001476715 -0.0013574657 13619397
0.43160874 0.0044793072 -0.0049288063 13290175
0.44000003 0.0094129555 -0.0092902975 11974572
0.43733335 0.01072228 -0.00070488412 12040365
0.44400004 0.01105706 -0.0044463268 12369330
0.45556831 0.016414665 -0.0062811966 11119264
0.45650002 0.020452689 -0.0069816285 11448229
0.50531584 0.037118811 -0.0049737599 12434865
0.50818175 0.040829793 -0.0055398731 12500402
0.51357377 0.045983303 -0.0046923305 12632501
0.51887506 0.051185291 -0.0042738393 12829880
0.52488238 0.055954635 -0.004842754 12895673
0.53000003 0.059727177 -0.0093294773 13355453
0.52900004 0.060852885 -0.00064308441 12961465
0.53193229 0.064951919 -0.0049843178 13158076
0.53523082 0.070919476 -0.0052287895 12236973
0.55383873 -0.063146494 0.0056216037 12564394
0.53780001 -0.050942387 0.005262048 12432808
0.54469234 -0.055397078 0.0048785787 12498600
0.55071431 -0.059126288 0.0051290528 12498600
0.52493346 -0.042313512 0.0063696182 12367014
0.53218752 -0.047795802 0.0064373272 12432807
0.51750004 -0.036782999 0.0096684489 12301221
0.52264291 -0.038284272 0.0046955599 12432807
0.42729032 -0.014097399 0.0080121355 12498604
0.43149996 -0.013133908 0.0027328092 12499117
0.42508417 -0.0051253354 0.0056389249 13421246
0.43000001 -0.0095244367 0.0017925327 12631217
0.42620513 0.0036998237 0.005986637 13355967
0.43036842 0.007828909 0.002789913 12764088
0.42750001 0.010146327 0.0094875721 11710891
0.43050003 0.01021753 0.0040082838 12040367
0.50512004 0.037063867 0.003624686 12435121
0.51050007 0.039603323 0.0089407079 12500914
0.50866669 0.040651891 0.0023586284 12632500
0.51413554 0.045448966 0.005567851 12829621
0.51900005 0.051197629 0.0024065431 13093051
0.52418005 0.055767521 0.0057179122 13027258
0.52900004 0.060852885 0.0055489084 13092795
0.53115559 0.06524808 0.0053908434 12698294
0.53300005 0.070047364 0.0024714596 11185054
0.55362076 -0.062706873 0.014093039 12498601
0.53776199 -0.051503234 0.014543317 12432808
0.54496157 -0.055961628 0.014647905 12432808
0.55000001 -0.059049599 0.010275646 12498600
0.51833338 -0.041291144 0.017368799 12367016
0.52417243 -0.043842878 0.01495691 12367015
0.5316667 -0.048038859 0.015245987 12432808
0.50750005 -0.034289543 0.012452371 12301221
0.51460004 -0.037906691 0.015059381 12301222
0.43000001 -0.021000106 0.019106701 12366502
0.42468914 -0.014167892 0.01576153 12498603
0.43033338 -0.01833046 0.01173404 12103590
0.4176591 -0.0047319541 0.017756062 13552830
0.42091081 -0.0056898268 0.013175474 13355708
0.41853338 0.0026841594 0.018204836 13487039
0.4214108 0.0038560047 0.013997986 13289661
0.50592858 0.036843028 0.016342375 12369072
0.51000005 0.039564535 0.011916165 12763316
0.50866669 0.040651891 0.017838219 12632244
0.51432776 0.045540143 0.014877014 12894903
0.51900005 0.051197629 0.018201392 13092281
0.52384919 0.055571962 0.015131831 13092539
0.5283637 0.062073741 0.016278991 12829624
0.53046161 0.064651564 0.013253585 12303280
0.54900002 -0.060227454 0.021823931 12498602
0.55100006 -0.061307579 0.021043502 12564395
0.53781825 -0.051676143 0.024813492 12301222
0.54369998 -0.056278475 0.02427873 12367015
0.51824999 -0.041385785 0.021511041 12235430
0.52472728 -0.044728842 0.022536483 12367016
0.53325003 -0.048981331 0.024327779 12301223
0.5165714 -0.038534045 0.021227434 12235430
0.43388572 -0.023318125 0.025964502 12103844
0.44000003 -0.028698817 0.029851524 12301221
0.41624391 -0.012297918 0.02640125 12828337
0.42381403 -0.016235527 0.023119375 12235430
0.42999998 -0.019993469 0.028166443 11906465
0.41359994 -0.005193525 0.025142338 13487038
0.41535804 0.0032713909 0.025251085 13289661
0.50608349 0.037419543 0.024663184 12435123
0.50829411 0.041182864 0.025246548 12632502
0.51343751 0.046451945 0.024467764 12895159
0.51830775 0.051596459 0.025550958 13026488
0.52302331 0.056240287 0.024861081 13158074
0.52600002 0.061193176 0.022685947 12698038
0.53883988 -0.052150119 0.034841858 12301223
0.54038465 -0.055195622 0.032963242 12301479
0.53806674 -0.048111394 0.033817463 12301223
0.41500005 -0.020429466 0.036893267 12038050
0.42500004 -0.020755919 0.033802275 11972258
0.43625003 -0.024195747 0.032698285 12038051
0.44000003 -0.027668769 0.031911615 12169635
0.40795836 -0.011887032 0.037862472 12894646
0.41316223 -0.015244411 0.034598388 12433066
0.42388892 -0.018942513 0.03151099 12103844
0.40715632 -0.0050312555 0.03588539 13487040
0.41021428 -0.0056979307 0.03105448 13355198
0.40834212 0.00242351 0.036933843 13224125
0.41125003 0.0029835962 0.032110538 13224126
0.50666666 0.037813496 0.034461621 12698294
0.508421 0.041510023 0.03555781 12764087
0.51239568 0.046654295 0.034836136 12829623
0.51745945 0.053109933 0.035170805 13026746
0.52116674 0.056903776 0.030884149 13158075
0.48800004 -0.040968932 0.046817057 11511193
0.49700001 -0.044051476 0.048843969 11971744
0.40860003 -0.021869002 0.049339104 11709343
0.41020003 -0.021760797 0.044728633 11775392
0.40515888 -0.014435472 0.045034338 12696752
0.41033337 -0.018759102 0.040646516 12038564
0.40242743 -0.0050503188 0.045190748 13487040
0.40549338 0.0030497846 0.044745263 13026489
0.50634789 0.038199555 0.045433704 12698295
0.5084666 0.04119198 0.044733096 12829881
0.51271743 0.046488773 0.044909336 12698039
0.51764512 0.053060491 0.044419952 12500917
0.5044418 -0.045293186 0.055947974 11840415
0.49850002 -0.038349442 0.057744451 12301223
0.50024998 -0.039655164 0.057945698 12038051
0.40740001 -0.022323214 0.056243822 11906722
0.41052002 -0.024624605 0.054145794 11774878
0.3975333 -0.012261147 0.056664232 13157559
0.40263283 -0.016465144 0.054107949 12499372
0.39667326 -0.0052215708 0.055744566 13487040
0.40000007 -0.0038657694 0.050984923 13487297
0.39790326 0.0022034836 0.057250891 13158333
0.40025926 0.002593356 0.053355575 12961211
0.50763637 0.038087007 0.052376296 12500916
0.51075006 0.039622717 0.05796805 12303537
0.509 0.041075721 0.051214874 12632502
0.51145446 0.045341149 0.055289101 12632245
0.51350003 0.051056754 0.053866073 11908779
0.49200001 -0.05051899 0.067932852 12630701
0.48800001 -0.042207718 0.068046577 12169637
0.49213329 -0.045151386 0.066291489 12433066
0.50333333 -0.044683971 0.0617042 12038051
0.48718184 -0.0387231 0.067681737 11972258
0.49900001 -0.03897199 0.061306287 12367016
0.5 -0.039635345 0.060843889 12367016
0.3949286 -0.021270987 0.067723207 12103846
0.40229627 -0.022685943 0.062169861 11841186
0.39398316 -0.014877654 0.065061755 12894645
0.4005 -0.019325301 0.061157983 12367275
0.38900003 -0.0080698999 0.069192298 13487041
0.39200002 -0.0052786279 0.064993963 13421246
0.39434776 0.0023655801 0.064995781 12960697
0.40500003 0.0088580344 0.067952469 10461335
0.51100004 0.03964211 0.06218246 12303537
0.51146668 0.044629637 0.062877625 12368817
0.80580002 -0.095000379 0.075419389 11777192
0.49616671 -0.051140741 0.073160551 12564394
0.50200003 -0.052489232 0.077893429 12367014
0.48800001 -0.041426368 0.071722209 11906463
0.49430546 -0.046613749 0.074016549 12169636
0.50100005 -0.048706472 0.079341009 12169636
0.48716667 -0.039188467 0.071827747 11906463
0.38785717 -0.021017436 0.078455426 12696754
0.39282358 -0.02113457 0.073007844 12300711
0.40400004 -0.025091263 0.076905273 11642780
0.41150004 -0.028290179 0.078974389 11906207
0.38721427 -0.014602276 0.076514572 13092280
0.39074296 -0.016314469 0.071957476 13157303
0.38732556 -0.0056081982 0.075279526 12960953
0.39025003 -0.0018145872 0.070898838 13289662
0.38851616 0.0020633044 0.077935711 12763575
0.390881 0.0030459748 0.073902167 12829111
0.40300003 0.0084364703 0.070925415 10395542
0.50429529 -0.052991059 0.084896319 11906465
0.49900001 -0.042476494 0.080581054 11774879
0.5013963 -0.045641985 0.084978528 11709086
0.41525817 -0.033894081 0.085542649 12103845
0.38523525 -0.023826305 0.085918389 10920087
0.41281825 -0.028947895 0.083752245 12037795
0.37874281 -0.012848162 0.087709025 2041888
0.38195992 -0.015877672 0.083902165 2830120
0.37865952 -0.0064589437 0.087589316 2041635
0.38176659 -0.0044210861 0.083448462 3093293
0.38613632 0.0040885909 0.085094355 12237744
0.38900003 -0.040853515 0.099243939 12169637
0.39125001 -0.040860981 0.097754955 12169381
0.38764155 -0.033130143 0.096686915 12301480
0.39186668 -0.036264498 0.094835207 12038052
0.41400003 -0.032818068 0.09011519 12235176
0.37849998 -0.020589555 0.098668516 4802365
0.38334632 -0.025205031 0.09481325 10525584
0.37651125 -0.014516821 0.095318951 2041631
0.38036367 -0.018980989 0.091696881 1844507
0.37641716 -0.0052818796 0.095127046 2172446
0.38000003 -0.00076649763 0.091610283 2105880
0.37833336 0.00031971507 0.097307615 10526610
0.38357756 0.004934737 0.094559066 11974314
0.38500005 0.010747077 0.097257771 11579043
0.78880006 -0.16187592 0.10817466 11578279
0.79292005 -0.16539416 0.10405513 11645097
0.78800011 -0.15427643 0.10724084 15526626
0.79272228 -0.15562707 0.10233666 12237489
0.78649992 -0.14474145 0.10739359 16053482
0.79205877 -0.14502688 0.10205204 12171953
0.78618181 -0.13501766 0.10762621 16184811
0.79213333 -0.13511434 0.10195255 12369331
0.78614283 -0.12515335 0.10775179 16053224
0.79182357 -0.12513959 0.1018046 12566196
0.78707999 -0.11501425 0.10638638 15790050
0.79109997 -0.11549328 0.10126622 12434350
0.78757143 -0.10466097 0.1057556 15592672
0.79000002 -0.10608484 0.10168156 12303019
0.78795451 -0.095076874 0.10627942 15855587
0.79108334 -0.093882523 0.10151082 13026745
0.78866673 -0.088366114 0.10704801 16052967
0.79199994 -0.086653456 0.10193694 13290431
0.38613033 -0.043917954 0.10622487 12301480
0.38497868 -0.035027076 0.10500617 12564653
0.37747177 -0.021822788 0.10575204 7237220
0.38127854 -0.026769411 0.10448946 11183258
0.37200701 -0.014649283 0.1050416 1975838
0.37179962 -0.0051767067 0.10503623 2040860
0.37689358 0.001797953 0.10572633 10592917
0.38176143 0.0068905326 0.10464144 12434607
0.38302779 0.011356208 0.10485668 12565681
0.78799999 -0.16349234 0.11498663 13946827
0.79016668 -0.16776711 0.11403432 10854812
0.78336662 -0.15532374 0.11457729 14604756
0.7790001 -0.1443965 0.11601548 14605524
0.78133345 -0.14628005 0.11174262 15789797
0.77900004 -0.13788939 0.11439905 15066075
0.78095245 -0.13442414 0.11522957 15066074
0.7815333 -0.12507357 0.11522879 14934488
0.78164291 -0.11482985 0.11465359 14605779
0.78277797 -0.10511325 0.11449286 14671571
0.78416669 -0.095203809 0.11469742 14539729
0.78509086 -0.088967845 0.11474934 14408143
0.3881667 -0.051519651 0.11485896 12300968
0.39050001 -0.053124063 0.11951007 12169382
0.38531667 -0.044551551 0.11514008 12695981
0.37863645 -0.032836013 0.11855781 12762035
0.38159469 -0.035211466 0.1143937 13025205
0.3770462 -0.024422381 0.1154143 8487030
0.38040006 -0.028062522 0.11214348 11183514
0.36805004 -0.013460346 0.11537462 1646618
0.37130004 -0.018222602 0.11406626 2041376
0.36799166 -0.0054477607 0.11530741 1843996
0.37093332 -0.001499676 0.11165278 2305315
0.36800003 0.00011920217 0.1184389 9013887
0.37756562 0.0056196251 0.11491178 11184285
0.38035721 0.0089005176 0.11166645 12829108
0.37866667 0.011573357 0.11839939 12895160
0.38131419 0.013936793 0.11524988 12368816
0.78806257 -0.16370904 0.12506916 14078925
0.79042858 -0.16786684 0.12552881 10723484
0.78295833 -0.15539618 0.12445179 13947594
0.77900004 -0.14563991 0.12032592 14276559
0.78142411 -0.1450951 0.12569171 14211022
0.78200001 -0.13514693 0.1247915 14342351
0.7827934 -0.12511657 0.12445278 14473936
0.78239989 -0.11513873 0.12451612 14210764
0.78270018 -0.10510335 0.12456308 13947592
0.78364021 -0.095140114 0.12471139 13881799
0.78500003 -0.089792974 0.12217154 13881799
0.39146677 -0.053548586 0.12559551 12103846
0.37891665 -0.04105128 0.12505685 13552832
0.38421118 -0.045695245 0.12443063 12762289
0.37787774 -0.035092603 0.12488459 12499890
0.38000003 -0.039241131 0.12029947 13420734
0.36633337 -0.020463569 0.12818618 1975067
0.3762154 -0.025808793 0.12447048 8684409
0.36610252 -0.014871824 0.12486495 1843225
0.37050003 -0.019504156 0.12249635 1712156
0.3654542 -0.0050139464 0.1240266 2040857
0.36827275 0.00035466923 0.12366021 8290163
0.37453571 0.0059016896 0.1243639 9868940
0.3767013 0.013238439 0.1243061 12435122
0.38040003 0.015975188 0.12038138 11908009
0.78830773 -0.1618607 0.13425654 14473684
0.79175001 -0.16702409 0.13573393 11380901
0.78464288 -0.15430829 0.13523838 14342866
0.78299999 -0.14476541 0.13546926 14342866
0.78405732 -0.13452184 0.1350069 14013643
0.78460002 -0.12464564 0.1349683 14408657
0.78441197 -0.11478499 0.13515355 14671315
0.78487515 -0.10482098 0.13478784 14408143
0.78503335 -0.095310591 0.13504373 14276557
0.7851429 -0.089021735 0.13729303 14210764
0.39467743 -0.052602984 0.13547994 10525328
0.40128574 -0.057310902 0.13713779 12037795
0.3861053 -0.044988941 0.13213389 9604995
0.39194122 -0.048287779 0.1357809 9275776
0.37799999 -0.035869151 0.13055529 8948095
0.36400002 -0.020333227 0.13163772 1316880
0.37425005 -0.027477035 0.13096364 12304564
0.36349997 -0.01759352 0.13097861 2041115
0.78866673 -0.16098684 0.14397523 14671063
0.79226321 -0.16598777 0.1455079 11907501
0.78636003 -0.15438256 0.14539574 14407892
0.78543991 -0.1450047 0.14522544 14934489
0.78616673 -0.13501616 0.14535974 14210766
0.78652006 -0.12495037 0.14542505 14079180
0.78703338 -0.1148981 0.14552115 14539730
0.7876001 -0.10483974 0.14562529 14737108
0.78779322 -0.094882414 0.1457884 14605522
0.78737509 -0.087990209 0.14581513 14408143
0.41800001 -0.061512966 0.1477415 9473153
0.420625 -0.063869528 0.14928499 10328203
0.40600002 -0.058796592 0.14064877 11709599
0.36216673 -0.022348268 0.14962621 4080184
0.37314293 -0.020718876 0.14548913 3816760
0.37312904 -0.01796788 0.14580266 1120017
0.36850002 -0.0013180209 0.1495112 2100743
0.37083328 -0.0046586785 0.14951774 725001
0.36800003 0.00011920217 0.14859121 4658705
0.78900003 -0.16043893 0.15511769 14802650
0.79200017 -0.16585666 0.15519969 11776172
0.78732008 -0.15456976 0.15478806 14473940
0.78684008 -0.145263 0.15469351 15000282
0.78700012 -0.1351601 0.15472451 14737110
0.78768003 -0.1251339 0.15485863 14079180
0.78836668 -0.11509261 0.15499428 14276559
0.78891981 -0.1050161 0.15510234 14539731
0.78899974 -0.094868183 0.15511768 14671316
0.78850007 -0.086348407 0.15609664 14539730
0.42244443 -0.065794028 0.15140058 10327433
0.43000001 -0.050695919 0.15902935 7171685
0.36123082 -0.021972984 0.15444805 2435875
0.35879999 -0.013197732 0.1587773 988686
0.36258039 -0.014954335 0.15463753 1120271
0.3716222 -0.014223303 0.15116258 659978
0.35900003 -0.0092964787 0.15932846 857101
0.36342314 -0.0050979331 0.15468128 1184524
0.37093744 -0.007642223 0.15080717 396551
0.36486664 0.00040285502 0.15338326 4073505
0.78900003 -0.16043893 0.16250594 14868444
0.79136366 -0.1651334 0.16509755 11973553
0.78810006 -0.15472284 0.16508883 14473683
0.78710014 -0.14531204 0.1648791 15000282
0.78705573 -0.13516873 0.1648702 15000282
0.78820002 -0.12521617 0.16511005 14605524
0.7889998 -0.11578819 0.1634696 14210766
0.79000002 -0.11335035 0.1674675 14276559
0.7889998 -0.10445869 0.16513444 14276559
0.79000002 -0.10885895 0.16517778 14276559
0.78872204 -0.094835967 0.16521761 14408145
0.78734481 -0.084660307 0.1650863 14539730
0.78400004 -0.078666449 0.16881755 14408143
0.43506253 -0.053577103 0.16319875 7368549
0.3437632 -0.022165036 0.16804466 1317652
0.35675004 -0.020763397 0.16783488 462344
0.36191949 -0.022391917 0.16465111 922636
0.34548551 -0.015130639 0.16805916 922893
0.35568604 -0.01439165 0.1647294 988944
0.36056671 -0.018172801 0.163175 1252112
0.34686115 -0.0061106235 0.16862611 857102
0.35492867 -0.0058388915 0.16515626 856846
0.36053851 -0.0040691351 0.16167954 857102
0.34900001 0.0001130477 0.16992341 1252373
0.35231254 0.0016604363 0.16776872 6514269
0.79222226 -0.16460255 0.1747098 12368309
0.78859085 -0.15431494 0.17509316 14473682
0.79000002 -0.15879287 0.17750712 14473938
0.78796005 -0.1454706 0.17520434 14737110
0.7881667 -0.13535978 0.17525074 15000025
0.7888332 -0.12654898 0.17509109 14868440
0.79000002 -0.12233318 0.17645034 14737110
0.79000038 -0.11533184 0.174733 14539731
0.78900003 -0.1033852 0.17317787 14342352
0.79000002 -0.10624801 0.17652805 14408145
0.78870356 -0.094457678 0.17502788 14473937
0.79000002 -0.098378994 0.17874007 14408145
0.78626084 -0.084579326 0.17450631 14408144
0.78300005 -0.078566112 0.17135176 14473680
0.33789584 -0.022501275 0.17754853 1317395
0.34079996 -0.023133261 0.17272094 1448981
0.33717856 -0.014916946 0.17743905 1251858
0.34098205 -0.014911654 0.17254257 1317651
0.33767653 -0.0063063861 0.17751847 1120272
0.34223184 -0.0058216271 0.17259403 1054737
0.35100001 0.0017588461 0.17028034 2962478
0.78899997 -0.15305068 0.18401103 14802903
0.79009092 -0.15746611 0.18576688 14539732
0.78867853 -0.14500953 0.18459661 14605524
0.78867728 -0.13476288 0.18530899 14802903
0.78878254 -0.12571172 0.18670623 14868696
0.79000002 -0.12418259 0.18199857 14868696
0.78900003 -0.11764862 0.18774913 14671317
0.79000014 -0.11471539 0.18413419 14737110
0.79000014 -0.10516015 0.18490478 14539731
0.78900003 -0.092405431 0.18159227 14605524
0.79000002 -0.096353464 0.18552125 14539731
0.78800005 -0.087369055 0.1807472 14408143
0.3337059 -0.022253202 0.18389614 1317650
0.33366084 -0.014711508 0.18416078 1252113
0.33441108 -0.0055328016 0.18387413 1185808
0.33400002 0.00010818892 0.18294953 2566175
0.78900003 -0.15243497 0.19082756 14934489
0.79007429 -0.15538295 0.19554001 14539731
0.78899974 -0.14473888 0.19482958 14868696
0.78823084 -0.13459173 0.19534935 14802903
0.78772002 -0.12514138 0.19543506 14737110
0.78852767 -0.11511561 0.19471204 14671317
0.7889998 -0.10502702 0.19583003 14671317
0.79000002 -0.10516014 0.19106942 14671317
0.78900003 -0.098049238 0.19718966 14671317
0.79000002 -0.09591312 0.19243447 14539731
0.78900003 -0.15194242 0.20720486 15000282
0.79004997 -0.15584388 0.20470634 14407632
0.78899974 -0.14473887 0.20498838 14671317
0.78875983 -0.13453987 0.20492677 14671317
0.78816003 -0.12521102 0.20477083 14671317
0.78873318 -0.11514609 0.20491998 14737110
0.7889998 -0.10502703 0.20498839 14671317
0.78900003 -0.098254465 0.20314133 14605524
0.78899986 -0.15324509 0.21539025 14671318
0.79000002 -0.15786816 0.21449521 14276560
0.78883308 -0.14470792 0.21510118 14802903
0.78899974 -0.13458005 0.21514729 14868696
0.78899974 -0.12534474 0.21514721 14802903
0.78899974 -0.11531781 0.21527918 14737110
0.78874987 -0.10545532 0.21430854 14605524
0.78899986 -0.15397419 0.22530608 14606294
0.79000002 -0.15879287 0.22466694 13948108
0.78849995 -0.14464587 0.22516364 14737109
0.7889998 -0.13458005 0.22530609 14737110
0.7889998 -0.12526442 0.22522582 14671317
0.79000002 -0.12642831 0.22651635 14605524
0.78899974 -0.11518587 0.22530608 14671317
0.78850007 -0.10754518 0.22479482 14737110
0.78894436 -0.15365571 0.23421706 14868953
0.79000002 -0.15826447 0.23563126 14079180
0.78815633 -0.14516024 0.23498179 14737110
0.78847057 -0.13514048 0.23552261 15000025
0.78853321 -0.12527061 0.23532392 14934232
0.78811771 -0.1163055 0.23601271 14605268
0.78899986 -0.15305066 0.2447003 14737110
0.79033333 -0.15793516 0.24511455 14144972
0.78776008 -0.14543407 0.24523824 14342352
0.78706676 -0.13517232 0.24502136 14342352
0.78634608 -0.12478177 0.24500814 14342352
0.78614289 -0.11752864 0.24407469 14473938
0.78900003 -0.1525889 0.25455123 14474195
0.79038459 -0.15730527 0.25559086 14211280
0.78812003 -0.14550053 0.25457501 14408145
0.78742439 -0.13498357 0.25485244 14342352
0.78565383 -0.12538013 0.25455588 14210766
0.78500003 -0.11919617 0.25356704 14210766
0.78899986 -0.15315329 0.26553103 14408402
0.79025 -0.15776429 0.26466635 14211536
0.78803337 -0.14548407 0.2646932 14408402
0.78770006 -0.135958 0.26464313 14737110
0.78581816 -0.12651286 0.26319778 14473938
0.78879988 -0.15393586 0.27510679 14079694
0.79000002 -0.15879287 0.27552557 13750985
0.78800005 -0.14547782 0.27482799 14408145
0.78800005 -0.13755634 0.2742855 14737110
0.78859997 -0.15334317 0.28482109 14145229
0.79012501 -0.15812446 0.28551176 13816523
0.78763336 -0.14541081 0.28483972 14211022
0.78783339 -0.13899168 0.28214642 14539730
0.78300005 -0.11339343 0.28958136 14473938
0.78812498 -0.15311313 0.29539737 14408145
0.79045451 -0.15804358 0.29469383 14079438
0.77900004 -0.14016895 0.29813212 14934489
0.78416008 -0.14550695 0.29470447 14671317
0.77850008 -0.1364352 0.29794094 15000282
0.7856667 -0.12175 0.29915053 14802904
0.78386968 -0.11503734 0.29564813 14671317
0.78155553 -0.10688405 0.29514667 14737108
0.78767997 -0.15390342 0.30525163 14276304
0.79000002 -0.15879287 0.30419132 14473685
0.77900004 -0.14016895 0.30086759 15066075
0.78230774 -0.14464346 0.30517232 15065563
0.77900016 -0.13481195 0.30405897 15197405
0.78000003 -0.13608824 0.30764475 15263198
0.78303587 -0.12445942 0.30602333 15066075
0.78336692 -0.11528064 0.3053036 14868696
0.78248292 -0.1061186 0.30511811 14802903
0.78500003 -0.071415983 0.308698 14539729
0.78625005 -0.066006079 0.30918956 14407886
0.78900003 -0.16043893 0.3158122 13552582
0.79136002 -0.16462746 0.31505188 10065552
0.78703696 -0.1545172 0.31502527 14144719
0.78192317 -0.14450024 0.31459844 14737367
0.78084016 -0.13501662 0.31437585 15066331
0.78233331 -0.12519877 0.31497568 14934745
0.78344017 -0.11529159 0.31542197 14868952
0.78272432 -0.10526657 0.31525987 14803160
0.78359997 -0.094953045 0.31787136 14671830
0.78381497 -0.08489915 0.31591344 14474708
0.78504348 -0.074855134 0.31486818 14408915
0.7864334 -0.065100551 0.31478548 14276814
0.7872501 -0.057184216 0.31587937 13552833
0.78799999 -0.15442657 0.32417586 13158081
0.79000002 -0.15740582 0.32869592 11447976
0.78604996 -0.14511968 0.32475737 13882060
0.78586954 -0.1351652 0.32480243 13422022
0.78614289 -0.12515147 0.32466346 13422022
0.78725004 -0.11493097 0.32525161 13093057
0.78670013 -0.10472133 0.32502425 13093057
0.7873044 -0.094864205 0.3253929 12961470
0.78714287 -0.084772594 0.32507446 13158849
0.78733331 -0.07516057 0.32451651 13093312
0.78756672 -0.065196089 0.32445815 12698298
0.78757149 -0.058480363 0.32472253 12632248
0.78900003 -0.14381535 0.3305887 10132375
0.78900003 -0.13458005 0.3305887 10066582
0.78900003 -0.12534472 0.3305887 10790046
0.78900003 -0.11518588 0.3305887 10461081
0.78900003 -0.10502703 0.3305887 10724764
0.78900003 -0.093944654 0.33120441 11185313
0.78899997 -0.084283084 0.33215162 10658972
0.79033333 -0.085315801 0.33716083 8882561
0.78874993 -0.075065494 0.33410105 9803405
0.79000002 -0.078343779 0.33840528 9079939
0.78806257 -0.065699264 0.33457789 9803661
0.78700006 -0.058701277 0.3315931 8883078
0.78900003 -0.065828241 0.34249195 9408902
0.79074997 -0.06546063 0.34705764 9474695
