# .PCD v0.7 - Point Cloud Data file format
VERSION 0.7
FIELDS x y z rgb
SIZE 4 4 4 4
TYPE F F F U
COUNT 1 1 1 1
WIDTH 1309
HEIGHT 1
VIEWPOINT 0 0 0 1 0 0 0
POINTS 1309
DATA ascii
0.81100005 0.20151065 -0.17090753 5919048
0.82100004 0.20783933 -0.17109291 4734774
0.81025004 0.19847938 -0.16505963 12565939
0.81611121 0.20214595 -0.16497561 11841703
0.82277781 0.20743516 -0.16418621 4998203
0.81050003 0.1985409 -0.15657111 12499890
0.81542867 0.20234115 -0.15656932 9735301
0.8210001 0.20687892 -0.15763909 4800055
0.80794275 0.17508152 -0.14486262 11908781
0.81000006 0.20126218 -0.14983831 6116429
0.80799991 0.18527809 -0.12653175 11843245
0.81050003 0.18525939 -0.12241799 11843243
0.81086671 0.19565603 -0.12316854 12171693
0.80800003 0.20076524 -0.12771562 5722439
0.78850007 -0.1317265 0.018423326 15262941
0.77700001 -0.12161937 0.019973597 15855591
0.78670007 -0.12498261 0.017458204 14539476
0.79400003 -0.12520966 0.013902103 12895676
0.77683336 -0.1152265 0.019969314 16185068
0.78572732 -0.11512406 0.017352328 14408402
0.79481256 -0.11498252 0.013098248 13224384
0.77759999 -0.1053285 0.019989023 16251117
0.78554541 -0.10506709 0.01751578 14474450
0.77700001 -0.095245071 0.019973598 16316910
0.78590912 -0.094913125 0.017356576 14342350
0.77600002 -0.08603856 0.019947892 16185324
0.78563637 -0.084846847 0.017517479 14342607
0.77700001 -0.077964067 0.019973597 15724775
0.78730011 -0.075310692 0.017471755 13224383
0.78754544 -0.065446205 0.017393533 13092796
0.78744447 -0.055457518 0.017577745 12895418
0.78766674 -0.047686566 0.018403856 12894904
0.79440004 -0.035074495 0.017628048 12828854
0.79423076 -0.014187715 0.016978117 11974572
0.78900003 -0.0052856174 0.018435009 11645607
0.78900003 0.00025557203 0.018435009 11448228
0.79421431 0.004636135 0.016957419 11711142
0.79354548 0.024912007 0.017693549 11513250
0.79456246 0.065010518 0.016581984 11513508
0.79461539 0.07423608 0.016986562 11381922
0.78900003 -0.14135261 0.027670324 11973292
0.79387516 -0.14517391 0.024585426 12170929
0.77637506 -0.13174681 0.026997559 14998999
0.78581244 -0.13564801 0.024451569 14078411
0.79033333 -0.13789137 0.020932814 12696760
0.7665 -0.12266842 0.027477814 15525341
0.77364707 -0.12514272 0.024036657 15525854
0.78100008 -0.1277297 0.020685086 16052970
0.76347071 -0.11477064 0.026875805 15723234
0.77272725 -0.11502909 0.022493364 16250347
0.76331264 -0.10484572 0.026652992 15789540
0.77254546 -0.10513855 0.022652563 16053739
0.76223528 -0.09495569 0.026832484 15526624
0.77263641 -0.095119603 0.022490604 16053738
0.76229423 -0.084990785 0.026413856 15921126
0.77160013 -0.08518903 0.022542644 15856359
0.76211762 -0.07531403 0.026829187 15460831
0.77350008 -0.07463409 0.022207255 16250348
0.78000003 -0.07096111 0.020050716 15856361
0.76316673 -0.06496238 0.026759926 15855589
0.77359998 -0.064945363 0.022601075 16381933
0.78000003 -0.064570136 0.020050718 15527396
0.76407158 -0.055457864 0.026919143 15263195
0.77371436 -0.054477867 0.022990983 15921381
0.78120005 -0.054609179 0.020081565 15132638
0.76527274 -0.04583995 0.027813345 15263452
0.77368754 -0.044802137 0.023732543 15855588
0.78440011 -0.0438109 0.020163823 13815749
0.76800007 -0.034806024 0.028731754 15197659
0.77418756 -0.035542075 0.025561882 15461343
0.78515393 -0.034665558 0.021592315 15000022
0.76900005 -0.024954308 0.028769165 15000280
0.77440012 -0.025130007 0.026250219 15395551
0.78571427 -0.02510106 0.022030625 14408657
0.79000002 -0.029334571 0.020307776 12500146
0.76749998 -0.015026145 0.028713048 14539729
0.77455562 -0.015164579 0.025345828 15198173
0.78554553 -0.014960462 0.02119395 13750726
0.76700002 -0.0051382361 0.028694341 14144971
0.77280021 -0.0051775598 0.025288839 14803416
0.78310001 -0.0052470285 0.021043867 13553604
0.76666671 0.0047345087 0.028681872 14342350
0.7727778 0.0047725136 0.025288161 14869208
0.78418183 0.004927109 0.020989273 13553347
0.76683331 0.015506367 0.028688105 14013385
0.77266663 0.014720893 0.025284784 14803414
0.78433341 0.014941867 0.021178633 13618884
0.76620001 0.025360757 0.02866441 13881799
0.77327794 0.024690969 0.025304008 14342863
0.78572732 0.025503879 0.021031134 12895417
0.76825005 0.033522911 0.028741106 13947592
0.77452946 0.035232715 0.025769658 14145485
0.78711104 0.035674043 0.021050267 12698038
0.77400005 0.044909757 0.027034111 14211022
0.78523535 0.045021087 0.022125721 13619399
0.77412498 0.05495654 0.027258104 14474195
0.78618759 0.055122126 0.021929981 13224642
0.76900005 0.067758203 0.028769165 14408145
0.77444446 0.064916402 0.026247511 14540244
0.78507143 0.064580962 0.021751571 13224898
0.76900005 0.070458569 0.028769165 14276559
0.77400005 0.075041562 0.026735766 14277073
0.78614289 0.075708337 0.021649688 12961726
0.77507693 0.084691398 0.027457375 14408916
0.78515393 0.085650533 0.023571372 13882571
0.79040003 0.085373104 0.020318057 11053472
0.77580011 0.094694287 0.028113842 14408661
0.78620011 0.094856143 0.024009567 14079696
0.7918334 0.095413409 0.020663137 11382436
0.77700007 0.10120575 0.029068453 14342868
0.78593755 0.10513087 0.026638366 12829371
0.79230773 0.10526679 0.021790978 11316386
0.78833342 0.11221649 0.02826146 11185056
0.79280007 0.11569625 0.024010206 11185056
0.7948333 0.12492807 0.025081206 11119263
0.78900003 -0.14196829 0.032287978 12039084
0.79411763 -0.14584818 0.035395723 11775914
0.77547061 -0.13217002 0.035096914 14603728
0.78639996 -0.13874087 0.034943517 12959161
0.76464999 -0.12362953 0.035229396 14999510
0.77000004 -0.12773404 0.033313036 14801617
0.76077765 -0.11462849 0.034693737 15591904
0.7604 -0.10478042 0.034676187 15460574
0.76000017 -0.094939619 0.034659572 15000280
0.76000017 -0.085154161 0.034659572 15000281
0.76000017 -0.075368695 0.034659576 14671315
0.75900006 -0.066385373 0.035502385 13881798
0.7600314 -0.064473748 0.03454962 14539728
0.76040006 -0.054936562 0.034676332 14276556
0.76124984 -0.045195952 0.034715176 14276556
0.76247197 -0.034558568 0.034769747 14210506
0.76306659 -0.024760833 0.034796078 14144713
0.76408356 -0.014955397 0.034842178 13881798
0.76483333 -0.0051245019 0.034877617 13618883
0.76386124 0.004716042 0.034833219 13750214
0.76316696 0.015433196 0.034803014 13289662
0.76356679 0.025274066 0.034822036 13092283
0.76491666 0.035167828 0.034884091 12894904
0.76579994 0.045066841 0.03492127 13355455
0.76611137 0.054949105 0.034932345 13816006
0.76537508 0.065084688 0.035121534 13750214
0.76535302 0.074867368 0.034685422 13947337
0.76537943 0.08489348 0.035794888 13882058
0.77000004 0.085872151 0.030609159 14408660
0.76700002 0.094157912 0.03632278 14013902
0.77146149 0.096663818 0.032470923 14145489
0.7748571 0.10425539 0.035896182 13619145
0.78133339 0.10756224 0.031669125 12237492
0.78657895 0.11336058 0.035142962 10987677
0.79016668 0.11833456 0.034493167 11119263
0.79280007 0.12460925 0.035225462 10987677
0.78900003 -0.14086005 0.045032717 11643813
0.79456258 -0.14518392 0.044954538 11446948
0.77574998 -0.13277727 0.044759572 14341068
0.78470004 -0.13789114 0.045524057 13157052
0.76378268 -0.12391095 0.045362845 14999511
0.77166671 -0.12981701 0.046932999 14735825
0.75900012 -0.11245611 0.047432546 15197659
0.76012015 -0.11577473 0.044451766 15131353
0.75900012 -0.10529801 0.046104152 15197659
0.76000005 -0.10472507 0.040886678 14869207
0.75900006 -0.095224746 0.046573408 15131866
0.76000011 -0.093872108 0.041954182 15066330
0.75900006 -0.086424097 0.048335064 15131866
0.76000017 -0.084561095 0.044021416 14802901
0.76000017 -0.075368695 0.045334615 14473936
0.76038897 -0.064725921 0.045359112 14276555
0.76079983 -0.054965615 0.045383353 13947590
0.761222 -0.045194272 0.045408029 13947333
0.7621997 -0.034674149 0.045339126 13815747
0.76296175 -0.024757816 0.044825859 13683646
0.76308602 -0.015013652 0.045390926 13223353
0.76350009 -0.0050512478 0.045223262 13026488
0.76300031 0.0045850566 0.045385975 12763316
0.76370019 0.015446361 0.044663507 12697523
0.76543993 0.025335416 0.04476513 12565938
0.76590025 0.035211194 0.044790544 12829110
0.76476008 0.045003485 0.044724055 12829111
0.76334304 0.054876924 0.045405839 12894647
0.76291686 0.065435685 0.045508694 12894647
0.76206648 0.075175025 0.045457888 13158077
0.76242846 0.084901854 0.045352161 13223613
0.76536012 0.095214777 0.044758763 13487300
0.77399993 0.10444357 0.045263749 12632247
0.78586942 0.11328512 0.045078173 10329747
0.79028571 0.11839647 0.045159008 10921884
0.79144132 0.1250461 0.045573849 10856091
0.78900003 0.13755395 0.04737233 10987677
0.79079312 0.13475886 0.0448387 10922140
0.78900003 0.14340296 0.04798802 10987677
0.79088473 0.14481467 0.044894557 10987933
0.79332155 0.15420793 0.04512677 10922140
0.78785717 -0.14229038 0.056085985 11184032
0.79280007 -0.14673822 0.054524906 11315618
0.77464718 -0.13384245 0.055540107 14209482
0.7833333 -0.13881014 0.054364819 13091515
0.76352 -0.12480865 0.055302605 15065560
0.77050006 -0.12962073 0.051371627 15327705
0.75899994 -0.11380459 0.055380706 14802902
0.76000011 -0.11797003 0.054527011 15131611
0.75900012 -0.10547569 0.055047527 14605523
0.75900012 -0.094814688 0.055047553 14671572
0.759 -0.085042112 0.055047534 14605780
0.75899994 -0.077697881 0.055758283 14737621
0.76000017 -0.072937168 0.054408394 14737365
0.76079994 -0.064760827 0.055177771 14737108
0.76099992 -0.054980461 0.055192593 14671057
0.76129985 -0.045198798 0.055213951 14539471
0.76319361 -0.034444489 0.055179127 13947590
0.76520681 -0.024831463 0.054758921 13750467
0.76438707 -0.014877414 0.055266455 13355965
0.764 -0.0051846416 0.055014294 13224123
0.76470977 0.0048696282 0.055290606 13158075
0.76627803 0.015498059 0.054680064 13092283
0.76690018 0.02538291 0.054723416 13158076
0.76669449 0.035247669 0.05471009 12763576
0.76586688 0.045069441 0.05465081 12566196
0.764 0.054653566 0.055237934 12566195
0.76453847 0.064887032 0.055314258 12369074
0.76437938 0.074662104 0.055564586 12303281
0.76406455 0.085355349 0.055244491 12500917
0.76610726 0.095050201 0.054475598 12763834
0.77000004 0.099391535 0.057647914 12303540
0.77469575 0.10441933 0.055083074 11710888
0.78630006 0.11346681 0.055187356 9869452
0.79000002 0.11861776 0.055446457 9935246
0.79085732 0.12489675 0.05530804 10330004
0.79174066 0.13514894 0.055777773 10790298
0.79236007 0.14494114 0.055618092 10921884
0.79320681 0.1549582 0.054971486 10922141
0.78612506 -0.14306571 0.065294124 11512485
0.79049999 -0.14748168 0.064116001 11249313
0.76900005 -0.13116863 0.068374507 14012874
0.77431577 -0.13494495 0.065031171 14012361
0.78000003 -0.13852289 0.060222585 12433072
0.76253325 -0.1247168 0.06512218 14473937
0.75900006 -0.11366887 0.061760027 14802903
0.76000017 -0.11532599 0.066388175 14210765
0.75899994 -0.1061272 0.061917964 14210765
0.76000017 -0.10432971 0.066882387 14342350
0.75899994 -0.094312556 0.063004658 14342350
0.76000017 -0.095829204 0.068121724 13618627
0.75900012 -0.084851734 0.064502843 14276557
0.76000005 -0.087822914 0.069353461 13487041
0.75899994 -0.07765422 0.064305767 14276814
0.76000017 -0.072699934 0.065481126 14013642
0.76047218 -0.064732403 0.064945109 14342607
0.76099986 -0.054980453 0.064990923 14671570
0.76133317 -0.045200806 0.065020174 14539728
0.76302785 -0.034582056 0.065164134 14144969
0.76526672 -0.024831753 0.065353602 13881797
0.76508319 -0.014976922 0.065339245 13355453
0.76499993 -0.0051248381 0.065332539 13026488
0.7655279 0.0047296528 0.06537798 12960952
0.76687515 0.015003918 0.065100029 13092281
0.76781493 0.025014339 0.064875774 13026490
0.7681998 0.035316583 0.064707406 12369074
0.76744002 0.045162514 0.064644016 12303025
0.76636666 0.054966338 0.064554557 12302767
0.76655573 0.065050974 0.064968355 12171181
0.76683348 0.074747957 0.065490045 12039596
0.7665627 0.084927827 0.065243356 12171184
0.76738101 0.093323648 0.064894825 12566198
0.77100003 0.098844357 0.065621078 12763576
0.77537501 0.10394655 0.0650848 12039853
0.78166676 0.10821705 0.067062192 9671305
0.78676468 0.11271846 0.0645376 9934988
0.79055554 0.11787897 0.065151766 9934988
0.79236007 0.12453907 0.064889915 9869196
0.78637499 -0.14345686 0.075096391 11446179
0.79066664 -0.14782107 0.074929945 11248801
0.76900005 -0.13116863 0.070174754 14736597
0.77399999 -0.13474643 0.075159192 14144203
0.76332003 -0.12484579 0.075017244 14277071
0.76053333 -0.11459196 0.074744329 14342863
0.76000017 -0.10472509 0.074690998 14276557
0.76000017 -0.094939619 0.074690975 13947592
0.76000017 -0.085154153 0.074690975 14013385
0.76000017 -0.075368695 0.074690983 14013385
0.76000017 -0.064693667 0.074690968 14013384
0.76079994 -0.054965161 0.074769229 13947848
0.76113313 -0.045189414 0.074801899 14276556
0.7622332 -0.034547649 0.074909672 14342349
0.76316017 -0.024764234 0.075001068 13882054
0.76440006 -0.014959808 0.075124018 13684675
0.76567996 -0.0051285513 0.075251527 13224125
0.76693338 0.0047392771 0.075375088 13027003
0.76850003 0.014462422 0.07435818 12961211
0.77000004 0.015871812 0.078678057 13356225
0.76894122 0.024709687 0.071863726 12631732
0.77000022 0.024441993 0.077286609 12894904
0.76895654 0.035782062 0.072832011 12500146
0.7700001 0.034637172 0.078030981 12434610
0.76892859 0.044608355 0.071968473 12302767
0.77018762 0.045888796 0.077157661 12500403
0.76875001 0.055137694 0.07105206 12236974
0.7705 0.055264089 0.076625943 12565939
0.76863158 0.065500163 0.073646255 12500146
0.77011114 0.063549019 0.077888347 13092283
0.76760006 0.074821286 0.075439028 12829111
0.76740003 0.084684789 0.075419441 13026490
0.76876926 0.091895729 0.073753633 13355456
0.7718637 0.097007178 0.075693354 13487041
0.77638465 0.10329391 0.074484229 12631733
0.78325003 0.10775004 0.075831175 9605768
0.78800011 0.11216938 0.074676648 9737867
0.79247057 0.1172455 0.075374328 9803403
0.7860626 -0.14317004 0.084955312 11775401
0.79140007 -0.14795816 0.085186221 11117726
0.76866674 -0.13111179 0.088138171 14276555
0.77410543 -0.13519329 0.084564507 14341838
0.76270002 -0.1247432 0.084776193 14473935
0.76105535 -0.11466958 0.084594071 14210507
0.76086658 -0.10484464 0.084573559 14210507
0.76091647 -0.095053822 0.08457882 13947335
0.76089984 -0.085255235 0.084577054 13684163
0.76080549 -0.075448759 0.084567048 13552578
0.76066661 -0.064750403 0.084552109 13618627
0.76096648 -0.054977894 0.084584109 13816004
0.76099986 -0.04518212 0.084587589 14144970
0.76163858 -0.034520403 0.084658705 14079433
0.7628001 -0.024751788 0.084788516 14013640
0.76525009 -0.014975503 0.085060924 13750468
0.76770008 -0.0051405858 0.085333683 13421503
0.76886958 0.0038492326 0.084015049 13158589
0.77000004 0.0077172644 0.08648926 13289919
0.76900005 0.015469329 0.087195225 13026747
0.77000022 0.014369658 0.084286101 13027004
0.76900005 0.021401946 0.088627242 12631988
0.77000022 0.024884732 0.084286101 12763318
0.76900005 0.030853223 0.089977421 12631732
0.77026689 0.035412919 0.084715746 12565939
0.77095991 0.045370698 0.08479245 12763318
0.77106661 0.055304963 0.084804058 13026490
0.77076006 0.065205991 0.084771015 12960953
0.76880008 0.075719081 0.082515366 13421248
0.77000016 0.074275523 0.086729608 12631477
0.7689091 0.084032603 0.082275912 13223870
0.77007157 0.085622855 0.086497441 12500405
0.77196008 0.094226934 0.08490327 12895419
0.77700001 0.10145453 0.084961534 12895418
0.78473341 0.10680875 0.085083373 10527126
0.78866673 0.11103243 0.083047904 9737867
0.79404545 0.11602236 0.085727341 9803403
0.77900004 -0.14016895 0.096618436 14209484
0.78600007 -0.14400907 0.094789013 11315107
0.79049999 -0.14809893 0.094960868 11051934
0.76719999 -0.13086161 0.095153958 14408144
0.7728889 -0.13545443 0.09495464 14276046
0.76292855 -0.12458826 0.095199443 14539730
0.7618053 -0.11478189 0.095378295 14671316
0.76166648 -0.10495505 0.095361643 14276557
0.76161081 -0.095140614 0.095354639 14276300
0.76146847 -0.08498475 0.095503971 14078920
0.7613821 -0.075243004 0.095168501 13881284
0.76191634 -0.064856522 0.095391922 13815748
0.76189983 -0.055045791 0.09539023 14013126
0.76155531 -0.045215353 0.09534765 13947590
0.76230544 -0.034550488 0.095441014 14013383
0.76315409 -0.024901368 0.09485963 14210762
0.76496667 -0.014970704 0.094878048 13684675
0.76736009 -0.0051381201 0.095173329 13355710
0.76900005 0.0035795434 0.095738187 13158074
0.77000016 0.0062204767 0.093023643 13158332
0.76900005 0.01519111 0.094658054 13026490
0.77000004 0.012266643 0.097004332 12763575
0.76900029 0.024275413 0.09579359 12829111
0.77000004 0.025886165 0.091296144 12894904
0.76900005 0.034566224 0.097290933 12631732
0.77000022 0.036301095 0.09246625 12631732
0.76900005 0.043814968 0.098618589 13223869
0.77028024 0.045619372 0.093804739 12697525
0.77050018 0.055264611 0.094660677 12829111
0.77090001 0.06521818 0.094710968 12763318
0.77011138 0.075066894 0.094614416 12697269
0.77040011 0.085016415 0.094650008 12697525
0.77283329 0.094333813 0.094949193 13027004
0.77671432 0.10051874 0.094775155 13158846
0.78580958 0.10634568 0.095271043 11053470
0.77900004 -0.14016895 0.10026575 14209229
0.78612506 -0.14502178 0.10520599 10986140
0.79150009 -0.14982979 0.10465146 10789276
0.76850003 -0.13108335 0.10521356 14144716
0.77394998 -0.13654916 0.1050509 14012618
0.76433337 -0.12520775 0.1051392 14408144
0.76303357 -0.11496784 0.1053568 14408143
0.76211989 -0.10501777 0.10522994 14408143
0.76226652 -0.095221773 0.1052506 14408142
0.76263344 -0.084557049 0.10530175 14013384
0.76240003 -0.074714303 0.10526972 13815747
0.7626667 -0.064919792 0.10530618 13683905
0.76260018 -0.055096708 0.10529706 13486527
0.76203316 -0.045243662 0.10521784 13552577
0.76250005 -0.034559347 0.10528191 13684419
0.76355189 -0.024653595 0.10468634 13816005
0.76452774 -0.014962341 0.10466583 13618627
0.76676679 -0.0051344875 0.10497355 13552834
0.76882619 0.0028319948 0.10521645 13421248
0.7700001 0.0081530549 0.10548571 13223869
0.76900005 0.017801462 0.10437936 13158076
0.77000022 0.013522991 0.10574412 13158076
0.7686668 0.024540432 0.10523313 13158076
0.76855564 0.035334632 0.10521767 12960697
0.76900017 0.044707272 0.10422286 13158076
0.77000004 0.047116596 0.1088928 13158076
0.7700609 0.054987054 0.10501522 13092027
0.77060014 0.065193102 0.10459766 13092283
0.77016681 0.075072691 0.10453843 12960441
0.77076006 0.085055292 0.10461909 13025977
0.77248019 0.094289742 0.10485142 13486785
0.77690005 0.10119331 0.10545026 13289151
0.7860589 0.10666601 0.1049622 10723991
0.78531587 -0.14547299 0.11530058 11183521
0.79000002 -0.14954583 0.11277799 10854556
0.76860011 -0.1311004 0.1151195 14079178
0.7732501 -0.1364246 0.11491121 13947337
0.76506895 -0.12500496 0.11533188 14210764
0.76311129 -0.11498104 0.11519092 14342350
0.76206648 -0.10500986 0.11503438 14408143
0.76275021 -0.095282272 0.1151384 14473936
0.76405716 -0.084840216 0.11520894 14342350
0.76468003 -0.074937649 0.11453553 14013384
0.76386112 -0.065022767 0.11530713 14079177
0.76306695 -0.055129763 0.11518545 13947336
0.76177752 -0.045229524 0.11498991 13750213
0.76144421 -0.034512855 0.11493868 13816006
0.76169991 -0.024716875 0.11497687 13618627
0.76269448 -0.014927104 0.11512733 13487298
0.76585722 -0.005319701 0.11528421 13421761
0.76847821 0.0036138841 0.1154929 13289919
0.77000004 0.0084898015 0.11404304 13026490
0.76900005 0.014651038 0.11878131 13092283
0.77000022 0.01467009 0.1150171 13026490
0.76882792 0.024701377 0.11515564 12894904
0.77000004 0.020077839 0.1153306 12960697
0.76880002 0.035345331 0.11515156 12894904
0.76900005 0.043094873 0.11608095 13026489
0.77000016 0.046756085 0.11472974 13223869
0.77054554 0.055515077 0.11492003 13355455
0.7712 0.065244421 0.11460796 13355455
0.77116656 0.075169839 0.11460313 13289406
0.77099997 0.08508122 0.11457792 13355199
0.77226669 0.094263554 0.11476552 13684165
0.77663636 0.10107645 0.11500256 12894649
0.78628576 0.10675681 0.11553521 10328979
0.77900004 -0.1419926 0.1294442 13420483
0.78462499 -0.14509144 0.12452208 11578279
0.79000002 -0.14954583 0.12572381 10722970
0.76790911 -0.13180085 0.12515019 14276301
0.77335298 -0.13702679 0.12509649 13881032
0.76400006 -0.12509118 0.12495569 14210251
0.76219976 -0.11484288 0.12486779 14144715
0.76232004 -0.10504364 0.12488829 14145484
0.76406676 -0.095445439 0.12517537 14474193
0.76567733 -0.084748156 0.1252647 14408400
0.76573318 -0.075041369 0.12454956 14276557
0.76463324 -0.065089673 0.12526675 14210764
0.76304024 -0.055128027 0.12500595 14144971
0.76159978 -0.045219842 0.12477019 14013385
0.76099986 -0.034493033 0.12467169 13684420
0.76099992 -0.024694704 0.12467166 13618627
0.76206642 -0.014916629 0.12484634 13552834
0.76392603 -0.0049163154 0.12475114 13487042
0.76683342 0.0047396338 0.12472669 13355456
0.76863354 0.014644673 0.12502089 13158077
0.76900047 0.024552375 0.12508217 12894905
0.76900047 0.035225239 0.12495357 12829111
0.77000004 0.039906263 0.12975128 12697525
0.76900005 0.042854842 0.12568223 13223869
0.77000022 0.045914873 0.12509459 13026490
0.76900005 0.059057027 0.12898268 13092284
0.77012146 0.05488215 0.12490875 13092284
0.76811767 0.065299496 0.12721136 13157820
0.77038473 0.064758986 0.12232392 13026235
0.76711547 0.075051032 0.12622251 13355455
0.77030003 0.074363805 0.12150643 13158076
0.76763165 0.084237732 0.12670103 13158847
0.77018183 0.085810915 0.12207783 12895161
0.76900005 0.09086132 0.12898268 13619398
0.77184004 0.094356969 0.12471155 13422019
0.77754551 0.10136022 0.12506422 12105646
0.78750008 0.107645 0.12532498 9934475
0.79000002 0.10937075 0.1201756 9540229
0.7786001 -0.14191969 0.13484541 13815238
0.78620017 -0.14674503 0.13493355 11249312
0.79000002 -0.14954583 0.13127203 10459798
0.76775002 -0.1316305 0.13408899 13947336
0.77289468 -0.13697951 0.13538007 13749701
0.76410353 -0.12484729 0.13486545 14013385
0.7619164 -0.1148009 0.13463186 14079178
0.76189983 -0.1049858 0.13462694 13882057
0.76291662 -0.095302694 0.13480453 14408399
0.76311094 -0.08460924 0.13483821 14737366
0.76360005 -0.074831121 0.13492647 14474194
0.76358342 -0.064999372 0.13492493 14276558
0.76270002 -0.05510382 0.13476925 14144715
0.76147199 -0.045212004 0.13455302 13881799
0.76099986 -0.034493033 0.13447 13947336
0.76099986 -0.024694705 0.13447003 13750213
0.76130527 -0.014901672 0.13452274 13552834
0.76233345 -0.0051054135 0.13470404 13552835
0.76486129 0.0047283312 0.13515088 13552834
0.76726925 0.014481472 0.13488623 13355455
0.76886696 0.024548661 0.13496064 13158075
0.76900005 0.03328884 0.134454 12829111
0.7700001 0.038103681 0.13585232 12829111
0.77000022 0.04531401 0.135159 12894904
0.76875001 0.057612441 0.13516435 13224127
0.7700001 0.05239559 0.13490152 13026491
0.76639307 0.065027647 0.13510175 13290176
0.7636112 0.07443238 0.13493204 13421763
0.76458079 0.084549695 0.13524711 13487556
0.76778573 0.091788843 0.13502602 13356227
0.77221429 0.096967459 0.13477349 13487813
0.77609098 0.10116992 0.13490656 12764089
0.78517658 0.10676143 0.13479261 10461333
0.78900003 0.11107937 0.13849412 9606279
0.77900004 -0.1419926 0.14129794 13486017
0.78636843 -0.14644246 0.14490815 11709350
0.79000002 -0.14954583 0.14976607 11248544
0.76850009 -0.13108335 0.14479236 13947079
0.77357149 -0.13635229 0.14510027 13749445
0.76557702 -0.12534988 0.14492927 13815749
0.76218736 -0.11461905 0.14482863 13947592
0.76106656 -0.10487227 0.14517218 13947593
0.76099986 -0.095064528 0.14515911 14210765
0.76136088 -0.084413946 0.14522833 14211021
0.76274097 -0.07494504 0.14499475 14276815
0.76287121 -0.064795122 0.14479551 14211022
0.76196641 -0.055050451 0.14534348 14210766
0.76102757 -0.045183931 0.14516419 14079180
0.76099986 -0.034493037 0.14515911 13881799
0.76089984 -0.02469185 0.14513947 13750213
0.76077771 -0.014891567 0.1451156 13552835
0.76143318 -0.005099541 0.14524154 13421248
0.76409692 0.0045796731 0.14502782 13421248
0.76681828 0.015372217 0.14482675 13552834
0.76775026 0.025074013 0.14442137 13224126
0.76806086 0.034956787 0.14505859 12829369
0.77000004 0.039305404 0.14116764 13158847
0.76855564 0.045329675 0.14689888 12960956
0.77000004 0.045163799 0.14191873 12961468
0.76813895 0.055092305 0.14472073 12961212
0.76625931 0.06462577 0.14486583 13093055
0.76523328 0.074590571 0.14507236 13092798
0.76546663 0.085368611 0.14511548 13224641
0.76800007 0.092841871 0.14469643 13356484
0.7725001 0.097795337 0.144978 13224898
0.77733338 0.10296838 0.14595026 12895676
0.78438467 0.1073263 0.14418103 9935246
0.78900003 0.11107936 0.14495884 9606281
0.79168189 0.11592423 0.14502811 9540488
0.79440004 0.12485996 0.14502035 9540487
0.79226673 -0.15554218 0.15482715 10393749
0.78542852 -0.1456231 0.15511338 12235182
0.79000002 -0.14954583 0.15161547 10590614
0.76880008 -0.13113451 0.15474591 14210252
0.77443463 -0.13675182 0.15516852 13881031
0.76566678 -0.12522539 0.15501115 14276301
0.76323557 -0.11520965 0.15478186 14276557
0.76264018 -0.10508905 0.15529266 14276557
0.76219994 -0.095215611 0.15520254 14276557
0.7614826 -0.084581822 0.15493231 14408143
0.76213777 -0.074687488 0.15475675 14342350
0.76251441 -0.065034762 0.15449913 14276557
0.76231992 -0.055077039 0.15522622 14013385
0.76099986 -0.045182515 0.15495725 14013385
0.76062953 -0.034971025 0.15474899 14144971
0.76003587 -0.025235455 0.15488799 13881799
0.76010019 -0.01487817 0.15477392 13552834
0.76107985 -0.0050982032 0.15497345 13487042
0.76299995 0.0048432378 0.15459652 13618627
0.76511115 0.0154744 0.15489472 13618627
0.76510018 0.025322633 0.15489222 13355712
0.76438916 0.035141841 0.15474786 13158076
0.76566672 0.045059934 0.15500762 13092284
0.7653057 0.054890253 0.15493445 12960442
0.76469988 0.064693898 0.1548129 12697527
0.76472211 0.074542262 0.15481825 12763320
0.76536107 0.085356407 0.15494941 13158334
0.76692319 0.092919059 0.15547273 13422019
0.77250004 0.098134637 0.154586 13355970
0.77675009 0.10253713 0.15452509 13224127
0.78469241 0.10708654 0.15511553 10131855
0.78900003 0.11107937 0.15234709 9606024
0.79400009 0.11595076 0.15512894 9540487
0.79421425 -0.16542313 0.16484003 10328981
0.78891677 -0.15226509 0.16572055 10328213
0.79046667 -0.15691382 0.16428924 10262676
0.77749997 -0.14171918 0.16468516 13419712
0.78472227 -0.14671429 0.16498788 11314338
0.76900005 -0.13116862 0.1646875 13881545
0.77357149 -0.13635105 0.16501911 13683653
0.76522225 -0.12495455 0.16517134 14210766
0.76275009 -0.11492589 0.1651338 14473681
0.76246649 -0.10506544 0.16507123 14605267
0.76149982 -0.09512867 0.1648619 14539730
0.76063329 -0.085225508 0.16467485 14473937
0.76077771 -0.075445384 0.1647066 14408144
0.76127762 -0.064802177 0.16481453 14276301
0.76116651 -0.054993279 0.16479009 14276044
0.75900012 -0.042398129 0.16774951 14078922
0.76034486 -0.045788616 0.16378449 14144715
0.75899994 -0.035401851 0.1667659 14013385
0.76000017 -0.035210215 0.1617434 14013385
0.75899994 -0.02551822 0.16698802 13881799
0.76000017 -0.025551841 0.16187048 13750213
0.75899994 -0.016760973 0.16673419 13487041
0.76000017 -0.013663727 0.16300268 13552834
0.76043338 -0.0050934656 0.1646318 13158076
0.76108313 0.004701226 0.1647734 13289663
0.76186109 0.01540741 0.16493946 13487043
0.76200002 0.025221042 0.16497016 13421506
0.76302797 0.03508053 0.16519392 13289663
0.76433337 0.044981394 0.16547704 13355199
0.76473331 0.054850474 0.16467123 13289149
0.76418519 0.064716049 0.16494884 13026234
0.76399994 0.074599542 0.1652773 13026236
0.76457149 0.085140675 0.16539852 13224127
0.76718748 0.093754768 0.16485877 13816523
0.77233338 0.098789871 0.16539864 13027264
0.77600002 0.10319556 0.1662865 11711402
0.78485709 0.10748055 0.16427124 9869195
0.78866673 0.11164812 0.16920674 9606024
0.78900003 -0.1512036 0.17266479 10262932
0.79204768 -0.15576471 0.17478968 10131344
0.77866673 -0.14193185 0.17313854 13287868
0.7856251 -0.14653935 0.17548835 11249313
0.76900005 -0.13116863 0.17566898 14078667
0.77386957 -0.13633655 0.1748271 13617090
0.76500016 -0.12531017 0.17489472 14013131
0.76235467 -0.11472304 0.17503685 14407888
0.76116651 -0.10488677 0.17548245 14407888
0.75900006 -0.091557175 0.1782413 14342350
0.76023346 -0.095622182 0.17461489 14408144
0.75899994 -0.084728554 0.17723089 14276300
0.76000017 -0.085564733 0.17227182 14605265
0.75899988 -0.075431064 0.17700289 14342350
0.76000017 -0.075114541 0.17203721 14539986
0.75891668 -0.064601831 0.17674088 14210764
0.76000017 -0.064693667 0.17165595 14473936
0.75877267 -0.054577243 0.17630303 14276557
0.76000011 -0.055575397 0.17143355 14276557
0.75865752 -0.044916432 0.17503005 14210764
0.76000005 -0.049570683 0.17076637 14408143
0.75830001 -0.035258405 0.17482093 14013385
0.75858343 -0.025503136 0.17488657 13816006
0.75900024 -0.014857224 0.17498378 13487041
0.75899994 -0.0055076992 0.17646444 13355455
0.76000011 -0.0041029127 0.17175481 13421248
0.75900006 0.00083813205 0.17883356 13355455
0.76027274 0.0050471271 0.17492568 13092541
0.76091653 0.015388113 0.17542523 13223871
0.76103318 0.025188964 0.17545229 13158078
0.76158315 0.035013538 0.17557706 13223869
0.76216668 0.044853576 0.17571051 13618371
0.76365 0.054862432 0.17488733 13618627
0.76281583 0.065190688 0.17548221 13684421
0.76206237 0.07483878 0.17535117 13750214
0.76199985 0.084981672 0.17537449 13750472
0.7657308 0.09477745 0.17522267 13685192
0.77075005 0.099037699 0.17272998 12895935
0.77428579 0.10512883 0.1748804 10593176
0.77900004 0.11149517 0.17868282 9540231
0.78407145 0.11327165 0.1751224 9540230
0.79133338 0.11696777 0.17039663 9540231
0.78850007 0.12116197 0.17809305 9474437
0.78511769 -0.14505872 0.18494961 12301488
0.79000002 -0.14954583 0.18490475 10262675
0.76840001 -0.13106628 0.18524423 13552322
0.77365226 -0.13645682 0.18493378 13289151
0.76362073 -0.12476899 0.18483225 13881543
0.76154262 -0.11487181 0.18461066 13815750
0.76083994 -0.10484147 0.18520463 14013129
0.75899994 -0.092149451 0.18475632 13947592
0.76000017 -0.097608373 0.18499976 14078922
0.75881493 -0.084824547 0.18510519 14144972
0.75830555 -0.075200826 0.18547347 14079178
0.75802767 -0.064525932 0.18540679 14210764
0.75799996 -0.054763712 0.18540011 14144714
0.75799984 -0.045003999 0.18540014 14210764
0.75799996 -0.035244297 0.18540014 13947592
0.75825 -0.025491992 0.18546048 13881799
0.75855565 -0.014849175 0.18553454 13618627
0.75823319 -0.0050795851 0.18545566 13487041
0.75861764 0.0044772583 0.18581103 13421248
0.76000005 0.0082524605 0.1814414 13289662
0.75899994 0.014571568 0.18664423 13223869
0.76007158 0.016260603 0.18285641 13223870
0.759 0.02512151 0.18742159 13158076
0.76020014 0.025160918 0.18326832 13158077
0.759 0.034894094 0.1874216 13092283
0.76000017 0.034940064 0.18322057 13223870
0.75900006 0.041113008 0.18831 13289662
0.76029164 0.044891249 0.18492134 13421248
0.75900006 0.058881335 0.18831 13816006
0.76051611 0.054289427 0.184664 13552834
0.75891662 0.066425242 0.18754877 13487299
0.7602632 0.064599611 0.18356432 13487042
0.75876188 0.074849352 0.18715042 13355713
0.76000011 0.074971475 0.18223217 13618628
0.75886655 0.083387375 0.18744738 13355970
0.76044452 0.08569777 0.18312901 13816007
0.75900006 0.090864323 0.18831 13487813
0.76210344 0.094931193 0.18446194 13553605
0.76824999 0.10096413 0.18610667 13422019
0.77405274 0.105263 0.18393396 11908779
0.78100002 0.10995308 0.18736908 9474695
0.78652638 0.1151932 0.18486856 9474438
0.79000002 0.11861777 0.18860355 9474695
0.78875005 0.12073833 0.18230453 9408645
0.79176193 0.1250636 0.18575962 9474438
0.79391676 -0.15517199 0.19503172 10196880
0.78533334 -0.1457822 0.19510455 11840936
0.79000002 -0.14954583 0.19045296 10328212
0.76880008 -0.13113451 0.1943419 13881543
0.77366674 -0.13654077 0.19488046 13420479
0.76507699 -0.12526856 0.19498642 13881543
0.76236635 -0.11486842 0.19450147 13947080
0.76124132 -0.10477382 0.19495068 13683908
0.75900006 -0.090964891 0.19215982 14210508
0.76040006 -0.095762268 0.19536279 13749957
0.75889301 -0.085220896 0.19481905 13816007
0.75803334 -0.07517425 0.1951685 13816007
0.75756663 -0.064485863 0.1950471 13881799
0.75796008 -0.054760724 0.19514936 13881799
0.75799996 -0.045003999 0.19515982 13816006
0.75768006 -0.035230163 0.19507669 14079178
0.7571817 -0.025215786 0.19543055 13684420
0.7562778 -0.014805172 0.19559771 13552834
0.75646669 -0.0050671254 0.19564836 13421248
0.75753117 0.0044588451 0.19537035 13289662
0.75841683 0.015337557 0.19437782 13355455
0.7585001 0.025104964 0.19439895 13157820
0.75838923 0.034866259 0.19437061 13289405
0.75882882 0.045417879 0.19461092 13486785
0.75881493 0.055314165 0.19497395 13487042
0.76000005 0.054066185 0.19033727 13487041
0.75813907 0.065024287 0.19460154 13421249
0.75700003 0.075300857 0.19578657 13223871
0.75776684 0.085336313 0.19426973 13224384
0.75847369 0.092857949 0.19500028 13618885
0.7608183 0.09723568 0.19394217 13224640
0.76560003 0.10115524 0.19585854 13422018
0.774158 0.10641974 0.19502766 11119519
0.78033334 0.10985923 0.19177528 9474438
0.78699994 0.11469141 0.19545834 9408901
0.79000002 0.11861776 0.19415176 9408901
0.7923103 0.12440465 0.19548516 9408645
0.79303861 -0.15562485 0.20475133 10130832
0.78543478 -0.14581166 0.20525655 11644069
0.77313805 -0.13543952 0.20485891 13486015
0.76681489 -0.12521441 0.20500912 13947079
0.76391667 -0.11510328 0.20473176 13815493
0.7623077 -0.10518225 0.2049858 13420735
0.76048487 -0.094759129 0.20518623 13618114
0.75899988 -0.083911411 0.20502843 13815749
0.76000011 -0.088267714 0.20590502 13618371
0.75836104 -0.075208083 0.20501786 13947592
0.75713891 -0.064450726 0.2046873 13816006
0.75749999 -0.054726802 0.20478304 13816006
0.75780547 -0.044992618 0.20486601 13947592
0.75709999 -0.035203155 0.2046755 13750213
0.75563633 -0.025649235 0.20468061 13749956
0.75348389 -0.014608407 0.2047504 13487041
0.75370359 -0.0049831807 0.20503093 13552834
0.75550002 0.0048764949 0.20450006 13487042
0.75683337 0.01530583 0.20460117 13487042
0.75703323 0.025055952 0.20465569 13420992
0.75641662 0.034775235 0.20448866 13421248
0.75674999 0.045420662 0.20457795 13618884
0.75700003 0.055181876 0.2046463 13552835
0.75611448 0.064724244 0.20453319 13355456
0.7557742 0.075583287 0.20502968 13092284
0.75646687 0.085248478 0.20450333 13158335
0.75761539 0.093702443 0.20508784 13487297
0.76000005 0.098100737 0.20368108 13355453
0.76421434 0.10197198 0.20531891 13421246
0.77273339 0.10734454 0.20474099 10066317
0.77700007 0.11230171 0.20623437 9277314
0.78394741 0.11655226 0.20444328 9277314
0.7876296 0.12447786 0.20578977 9343108
0.7906 0.1279619 0.2020714 9342852
0.78900003 0.13232058 0.20868251 9408645
0.79335707 0.13530996 0.2046541 9474438
0.79366672 -0.15493466 0.21478246 9999760
0.77900004 -0.1419926 0.21606772 13289149
0.78605551 -0.14676052 0.21516024 11446690
0.77285731 -0.13551709 0.21507289 13420735
0.76707143 -0.12564813 0.21487507 13683907
0.76422852 -0.11502198 0.21542032 13815493
0.76239997 -0.1050578 0.21503307 13815236
0.76057571 -0.095256031 0.21492289 13683907
0.759 -0.084894039 0.21511059 13684420
0.76000005 -0.088712506 0.21168737 13815493
0.75846684 -0.075218357 0.21481146 13947592
0.7573548 -0.064555421 0.21466802 13816006
0.75700003 -0.054691449 0.21528211 13749956
0.75700003 -0.044944633 0.21528211 13816006
0.75630021 -0.035166275 0.21508232 13816006
0.75516647 -0.025390314 0.21476017 13684421
0.75431412 -0.01489282 0.21464507 13552578
0.75392848 -0.0051137926 0.21472408 13487041
0.75338894 0.004652109 0.21425365 13618370
0.75274366 0.015425749 0.21454175 13420991
0.75297135 0.024921708 0.21501139 13289662
0.75275612 0.034499831 0.21482228 13026747
0.75316221 0.045323811 0.21435429 13421504
0.75305712 0.054894324 0.21503648 13553091
0.75283325 0.064570725 0.21497259 13684420
0.7525714 0.075119667 0.21489725 13684421
0.75356233 0.084757194 0.21468596 13487556
0.7565518 0.093995556 0.21499968 13290433
0.76000005 0.099879913 0.21702488 12895416
0.76433337 0.1026011 0.21432547 13355453
0.77250004 0.10785349 0.21517046 9145214
0.77658337 0.11221171 0.21464057 9277314
0.78291672 0.11770892 0.21455894 9211522
0.78703701 0.12547781 0.21546756 9277315
0.78900003 0.13221796 0.21381325 9343108
0.79081249 0.13702282 0.21494742 9343108
0.77900004 -0.1419926 0.22245049 13618114
0.78599995 -0.14652213 0.22552781 11117982
0.77288461 -0.13538733 0.22487855 13617857
0.76710731 -0.12526897 0.22501941 13947079
0.76377434 -0.11522702 0.22508173 14078408
0.76165515 -0.10483189 0.2253658 14275786
0.75900006 -0.090964891 0.22710419 13815491
0.7604 -0.095762111 0.2246743 13815492
0.75893342 -0.085034959 0.22471502 13683906
0.75808322 -0.075179368 0.22446316 13749699
0.75782847 -0.064432435 0.22451499 14012871
0.75768 -0.054741718 0.22523156 13683906
0.75700003 -0.044944637 0.22502893 13684162
0.7558521 -0.034948386 0.22508018 13618370
0.75413871 -0.025356762 0.22505978 13684419
0.75308353 -0.014741502 0.2247439 13552833
0.75330007 -0.005046302 0.22480908 13421247
0.75233364 0.0046447436 0.22452052 13289404
0.75109088 0.014947795 0.22454968 12697011
0.75000006 0.024944715 0.22543034 12500145
0.74900001 0.037064485 0.22791108 11974059
0.75009376 0.03421085 0.22500566 12434609
0.74900001 0.043201465 0.22791108 12500146
0.75043243 0.045111477 0.22459349 12960697
0.75000006 0.055549499 0.22558171 13092283
0.74900001 0.066521987 0.22510561 13026490
0.75000006 0.064925268 0.22561686 13158076
0.75000006 0.074707955 0.22532348 13158077
0.75160724 0.084892578 0.22462001 13158077
0.75578791 0.094615877 0.22509576 12895675
0.76000005 0.099879913 0.22147281 13290432
0.76433343 0.1031365 0.22541569 12895674
0.77290916 0.10782823 0.22482286 9474438
0.77680004 0.11118028 0.2254602 8948093
0.78540003 0.11609313 0.22489128 9145729
0.78871435 0.12211783 0.2225872 9145730
0.79071426 0.12568919 0.22641408 9145730
0.79217237 0.13506162 0.22506246 9211523
0.77900004 -0.14016895 0.23795155 13157563
0.78556257 -0.14514732 0.23501298 11841449
0.79000002 -0.14954583 0.23483868 9670539
0.77399999 -0.13543406 0.23464698 13486271
0.76805007 -0.12480559 0.23469606 14012872
0.77000004 -0.12893577 0.23640417 14144456
0.76382858 -0.11496527 0.23497677 14144458
0.76073074 -0.10496415 0.23483631 14276043
0.75899994 -0.091912538 0.23616603 14144201
0.76000017 -0.096859239 0.23462933 14144458
0.7589668 -0.085038535 0.23538594 13815236
0.75875032 -0.075244457 0.23531975 13947079
0.75880581 -0.064591892 0.23533684 13552321
0.75803334 -0.054767128 0.23509601 13683905
0.75638896 -0.044910178 0.23458491 13749699
0.75460714 -0.035277337 0.23434703 13881284
0.75294298 -0.025189796 0.23515421 13421248
0.75147218 -0.014710615 0.23482293 13421247
0.75133336 -0.0050328146 0.23477633 13421247
0.75105542 0.0046389974 0.23469009 13092025
0.75155556 0.015199102 0.23484871 12828853
0.75065392 0.024708141 0.2352418 12105386
0.74899983 0.0363262 0.23510936 11908007
0.75000006 0.031208223 0.23491922 11973800
0.74899983 0.043785937 0.23589891 11842215
0.75000006 0.046770677 0.23377527 12171180
0.75000006 0.055549499 0.23523848 12302766
0.75000006 0.065206192 0.23523849 12500146
0.75128138 0.075157464 0.23531164 12500147
0.75300014 0.084670544 0.23498389 12500147
0.75639397 0.095225282 0.23499013 12763319
0.75900006 0.10152532 0.23894973 13618627
0.76283342 0.10353007 0.23509526 12500659
0.77260005 0.10804876 0.23418653 9474439
0.77766675 0.11130434 0.23572063 8882301
0.78669238 0.11585753 0.23456165 9145728
0.79000002 0.11861777 0.23668808 9079935
0.79203993 0.12448784 0.23544565 9145728
0.79178792 0.13489346 0.23486198 9211523
0.79213333 0.1449009 0.23454203 9474695
0.77900004 -0.14108077 0.24524614 12894134
0.78540003 -0.14546402 0.24532735 11710118
0.79000002 -0.14954583 0.24223627 9670537
0.77411115 -0.13546933 0.24501456 13157563
0.76704758 -0.12416886 0.24545822 13552577
0.77044445 -0.12901053 0.24405485 13223356
0.76244438 -0.11488371 0.24508816 13881286
0.76059997 -0.10480914 0.24479519 13684164
0.759 -0.091261029 0.24516866 13815491
0.76000017 -0.096880533 0.24500646 13618369
0.759 -0.085042112 0.24516869 13815492
0.75873345 -0.075243391 0.24508142 13618113
0.75830317 -0.064308517 0.24542543 13618113
0.75663346 -0.05466684 0.24528752 13618112
0.75449985 -0.044798084 0.24459635 13815493
0.75386655 -0.035051804 0.2443922 13420992
0.75393534 -0.025490595 0.24512722 12960697
0.75333333 -0.01474786 0.24510247 12500146
0.75203842 -0.0049039382 0.244885 12763318
0.75147229 0.0046417336 0.24537733 13026234
0.7525003 0.01521872 0.24571043 12894648
0.75176686 0.024879137 0.24547277 12697268
0.74899989 0.036548771 0.24317621 12171180
0.75015789 0.032592412 0.24619502 12368303
0.74900007 0.044571333 0.24451384 12039594
0.75000006 0.048087496 0.2453341 12434351
0.74899995 0.055138227 0.24787313 11776935
0.75000006 0.055740334 0.24302481 12302765
0.74900001 0.063365825 0.24807547 12040108
0.75000006 0.065645136 0.24401726 11908522
0.75086111 0.074950606 0.24517553 12040109
0.75296444 0.084918849 0.24479184 12171696
0.75670594 0.094814941 0.24505262 12237746
0.75900006 0.10152532 0.24428022 13027262
0.7630589 0.10522626 0.24521609 10592920
0.77150005 0.10861563 0.24197844 8882301
0.7748 0.1116221 0.24736615 9079936
0.78662509 0.11604185 0.24465676 9079935
0.79020005 0.11864779 0.24414699 9079935
0.79247999 0.12455529 0.24485186 9145728
0.7912333 0.13454546 0.24446806 9145729
0.79164016 0.1448113 0.24459453 9277316
0.79388887 0.15472288 0.24487451 9803660
0.78900003 -0.1512036 0.25485912 9802123
0.79217404 -0.15632994 0.25515473 9670794
0.77880007 -0.14195614 0.25520977 12762549
0.7853334 -0.14682811 0.25520313 11117468
0.7735517 -0.13563536 0.25492501 13223356
0.76677781 -0.12521018 0.25525984 13420735
0.77000004 -0.12953663 0.2505244 13420735
0.7623226 -0.1150072 0.25499338 13486527
0.76072001 -0.1048253 0.25462896 13684163
0.75899994 -0.091794088 0.25547427 13881285
0.76000017 -0.097100034 0.25489587 13684419
0.75839996 -0.08497598 0.25473884 13749443
0.75738883 -0.075110212 0.25439855 13815235
0.75712115 -0.064690754 0.25471228 13881285
0.75565392 -0.054459956 0.25490636 13354940
0.75349998 -0.044738643 0.25485718 13420733
0.7525335 -0.034989726 0.25452846 13092282
0.75311124 -0.02532036 0.25472564 12697525
0.7527225 -0.014734988 0.25459358 12171181
0.75237954 -0.0051625879 0.25462833 12368560
0.75139415 0.0048793163 0.25550246 12697525
0.75100017 0.015187542 0.2557672 12829111
0.75086659 0.024851611 0.25572214 12434609
0.75047058 0.034294371 0.25533172 12368559
0.75000006 0.045014918 0.25542974 12368814
0.74899995 0.056824207 0.25475192 11842984
0.75000006 0.052037966 0.2563076 12105899
0.74899989 0.063256234 0.25454122 11842984
0.75000006 0.067232065 0.25576738 11908777
0.75106674 0.074972168 0.25491473 11711399
0.75378573 0.084948637 0.2549555 11579816
0.75742859 0.094732843 0.25479367 11908780
0.76000005 0.099879913 0.2570563 12369332
0.76318759 0.1041015 0.25455973 10790556
0.77150005 0.10861563 0.25643423 8816765
0.77350008 0.11070797 0.25438046 9079937
0.7865715 0.11757959 0.2553826 9014144
0.7924332 0.12455062 0.2550399 9079937
0.79346663 0.13492922 0.25444701 9145730
0.79335719 -0.16524129 0.2649557 10066064
0.78854555 -0.15195607 0.26444602 9670794
0.79056251 -0.15682507 0.26496503 9605000
0.77833343 -0.14187108 0.26508087 13091257
0.78466672 -0.14670324 0.26509109 10722712
0.77321428 -0.13551289 0.26514515 13157562
0.76756519 -0.125067 0.2648885 13354941
0.77000004 -0.12953663 0.26674765 13420733
0.76416141 -0.11499793 0.26489934 13289147
0.76116651 -0.10488693 0.26457837 13486270
0.75877267 -0.092929833 0.26544097 13289148
0.76000011 -0.098320037 0.26435089 13223097
0.75759995 -0.084886499 0.26511165 13289148
0.75700003 -0.075071208 0.26490226 13420734
0.75697064 -0.064696491 0.26468343 13618112
0.75541937 -0.055036105 0.26471832 13420733
0.75302786 -0.04471045 0.26527479 13223611
0.75255185 -0.035111826 0.26495731 13223868
0.75356662 -0.025335349 0.26458433 12565938
0.75242871 -0.014605619 0.26493835 12105388
0.74900001 -0.00287458 0.26804501 12105387
0.75037509 -0.0056128004 0.26353416 12039594
0.74878234 0.0046623866 0.26739916 12302765
0.75018752 0.0040841717 0.26218852 12369073
0.74890465 0.014769495 0.26770446 12236973
0.75000006 0.015693659 0.26297954 12368815
0.75000006 0.02482363 0.26508641 12105643
0.75015628 0.034707747 0.26481238 11908521
0.75073338 0.04505885 0.26534665 11908521
0.74900001 0.058105558 0.26122612 11908007
0.75034618 0.055101566 0.26548007 11579042
0.75144458 0.065268822 0.2655344 11250077
0.75356674 0.075222291 0.26458567 11316129
0.75630772 0.085369177 0.26534355 11513765
0.75820851 0.093877532 0.26443836 11909037
0.76000005 0.098100737 0.26773131 11316901
0.76281244 0.10203894 0.26515082 12435382
0.77227283 0.10790443 0.26523462 8816765
0.77900004 0.11331882 0.26074719 9079937
0.78580004 0.11639822 0.26522776 9014144
0.79200011 0.12448387 0.26509854 9079937
0.78900003 -0.1512036 0.27332973 9802379
0.79228574 -0.15590008 0.27517477 9473670
0.77900004 -0.14016895 0.27716008 10590866
0.78524995 -0.14580479 0.27524534 10590611
0.77409083 -0.13525482 0.27475354 12499375
0.76695651 -0.12449996 0.27490175 12828339
0.77000004 -0.12953663 0.27485928 12697011
0.76363891 -0.11506307 0.27466977 13288890
0.76066667 -0.1048185 0.27508819 13157561
0.75856262 -0.094706133 0.27482721 12960182
0.76000005 -0.099387549 0.27128968 13289147
0.75728577 -0.084661245 0.27532253 13025975
0.75683337 -0.075055458 0.27547398 13289404
0.75553358 -0.06519983 0.27499923 13355197
0.75380552 -0.055344924 0.27437106 13223867
0.7530002 -0.044707153 0.27496073 12960696
0.75330776 -0.034889355 0.27486894 12960695
0.75402761 -0.025350945 0.27445304 12763316
0.75217658 -0.014624574 0.27496958 12434607
0.74900001 -0.002606696 0.27371925 11908007
0.75005269 -0.0063186716 0.27573302 11974056
0.74855167 0.0047734696 0.27496892 11842215
0.75000006 0.0002429392 0.27913254 12039593
0.74876916 0.014536076 0.27483222 11710628
0.75000006 0.019117396 0.27781573 11973800
0.75055182 0.024722014 0.2747955 11447457
0.75180018 0.034564715 0.27452534 11381663
0.75263339 0.045173157 0.27482823 11315870
0.75268012 0.054867342 0.27484515 11250076
0.75320017 0.064604394 0.27503431 11250077
0.75569439 0.075435542 0.27506071 11250079
0.75792301 0.085278109 0.27518922 11579557
0.75899994 0.092954695 0.27391154 11842987
0.76025009 0.096946895 0.27612543 12172210
0.76442856 0.10212905 0.27478579 12895677
0.77336365 0.10772813 0.2756474 9672074
0.77900004 0.11149517 0.27624825 9079935
0.78593343 0.11580519 0.27496079 9079935
0.79000002 0.11861777 0.27922437 9079935
0.79307997 0.12465446 0.27474481 9014143
0.78643751 -0.14392841 0.28498387 10261903
0.79057151 -0.14886107 0.28524408 9604999
0.77484214 -0.13446093 0.28446215 13091256
0.78050005 -0.13861169 0.28774375 12695731
0.76665002 -0.12439977 0.28452164 13881028
0.77083331 -0.12937637 0.28568411 13749699
0.76223522 -0.11485016 0.28457889 13749698
0.76055992 -0.10480335 0.28484383 13683905
0.75887495 -0.093837261 0.28369439 13092023
0.76000011 -0.096540868 0.28801391 13684162
0.75803709 -0.085132591 0.2852799 13092024
0.75690001 -0.075062655 0.28524449 12829109
0.75511992 -0.06516467 0.28457418 12828852
0.7540831 -0.055363819 0.28506672 12828853
0.75358325 -0.044742584 0.28487778 12236972
0.75303352 -0.03501353 0.28466886 12039336
0.75336111 -0.025327303 0.28479272 11973800
0.75324255 -0.014985681 0.28514993 11842215
0.75184005 -0.0050378013 0.28510091 11250079
0.74900001 0.0072563053 0.28051376 11447456
0.75133359 0.0043479563 0.28529981 10921370
0.74900001 0.012516573 0.28051376 11908007
0.75155574 0.015491533 0.28538409 11119006
0.75273091 0.02505096 0.28523305 11185055
0.75377768 0.034654718 0.28495085 11119005
0.7538529 0.04503854 0.28472021 11381406
0.75383997 0.054951716 0.28409377 11512734
0.7542333 0.064692125 0.28424165 11512991
0.75614822 0.074987568 0.28476545 11710372
0.75848395 0.084961675 0.28521162 12171180
0.76000005 0.089204863 0.28997099 11514021
0.75900006 0.091308534 0.28203791 11579814
0.76043487 0.09490741 0.2856479 12237745
0.7644546 0.10128085 0.28500125 12303540
0.77356255 0.10709888 0.28518432 10658713
0.78593332 0.11457834 0.28550988 9014143
0.79120004 0.11879794 0.28520748 9014142
0.78727269 -0.14283226 0.29451349 11314591
0.79111111 -0.14708221 0.29566708 9209986
0.77533334 -0.1333622 0.2952143 12697013
0.78216672 -0.13860334 0.29568055 12236207
0.76792312 -0.1228274 0.29451603 13354942
0.77108335 -0.12746349 0.29555383 13223357
0.76446438 -0.11486784 0.29487208 13552578
0.76235992 -0.10505141 0.29444352 13618371
0.76113319 -0.095082909 0.29515627 13683907
0.75892848 -0.08363837 0.29375029 13552578
0.7602728 -0.086964957 0.29687127 13487041
0.75806463 -0.075035617 0.29472983 13421248
0.75699997 -0.064993262 0.295252 13157819
0.75589311 -0.055181094 0.29529318 12763574
0.75476652 -0.044813327 0.29504338 12632502
0.75444001 -0.035078589 0.29491591 12500917
0.75503331 -0.025384117 0.29514867 12303537
0.75560004 -0.014791136 0.29537085 11974315
0.75459999 -0.0050567593 0.29497975 11974315
0.75390011 0.0046567875 0.29470572 12040364
0.7543667 0.01525574 0.29488853 12040365
0.75420004 0.024962265 0.29482204 11842986
0.75429994 0.034678441 0.29486066 11776937
0.75593758 0.045595434 0.29516944 12105645
0.7572 0.05519677 0.29510957 12500146
0.75730556 0.064955063 0.29515061 12105388
0.75807703 0.074646525 0.2947675 12039338
0.75894439 0.08266528 0.29440507 12500146
0.76000017 0.08772222 0.29604986 11842731
0.76111531 0.09468285 0.29485151 12171953
0.76540005 0.10148735 0.29471833 12040367
0.77352947 0.10709449 0.29513097 10724506
0.77900004 0.11149517 0.29630846 8948094
0.7858572 0.11497848 0.29484317 9013886
0.79040003 0.11867782 0.29416707 9079935
0.78790915 -0.14261159 0.30481097 10788760
0.79145455 -0.14712773 0.30517086 9078657
0.7753126 -0.1321346 0.30522904 12236719
0.78260005 -0.13807045 0.30500564 12038827
0.76887506 -0.12147276 0.30258226 13750213
0.7714119 -0.12552808 0.30590335 12434098
0.76733345 -0.11456921 0.30519655 12763063
0.76589286 -0.10496245 0.30496469 13223870
0.76253569 -0.094877414 0.30470991 13289663
0.76060712 -0.085032307 0.30502054 13026491
0.75899994 -0.074973397 0.30202726 13684420
0.76050013 -0.076419659 0.30696473 13158334
0.75811106 -0.064534307 0.30344951 13618627
0.76083344 -0.064765573 0.30810019 13816006
0.75711113 -0.05440478 0.30364087 13355968
0.76025009 -0.05492568 0.30875415 13619397
0.75672418 -0.044776127 0.30454543 13092797
0.76000005 -0.049570683 0.30954191 13487811
0.7568 -0.035187282 0.30469915 12764090
0.75756681 -0.025468973 0.30500689 12501174
0.75793344 -0.014836656 0.30515417 12106160
0.75740016 -0.0050746738 0.30493936 11974574
0.7566669 0.0046727434 0.3046439 11974573
0.75663358 0.015301737 0.30463079 11908780
0.75672019 0.025045764 0.30466664 11777451
0.7566002 0.034783915 0.30461827 11843244
0.7574231 0.045189563 0.30440214 12171951
0.76033336 0.04652587 0.30967769 12435125
0.75812513 0.055042062 0.30367583 12171951
0.76033336 0.054533329 0.30849156 12303539
0.75800014 0.065014474 0.30340391 12434353
0.7601667 0.06520129 0.30783024 12500918
0.75889468 0.075049974 0.30301389 12171438
0.76140004 0.075110987 0.30832967 12435125
0.75900006 0.08158531 0.30222476 11842473
0.76152945 0.086134352 0.30481943 11711401
0.76499999 0.094690084 0.30394056 11579818
0.77166671 0.099005036 0.30827254 11711405
0.76800001 0.10183139 0.30111271 11974320
0.77426666 0.10502166 0.30532295 11316646
0.78649998 0.11533552 0.30415806 8882558
0.79033333 0.11866781 0.30709574 8882558
0.79171419 0.12443676 0.30485255 8882558
0.79283327 0.13482188 0.30435535 8948351
0.78860009 -0.14281985 0.31472901 8617851
0.79100001 -0.14670628 0.31526577 9012865
0.77714288 -0.13203919 0.31340581 12237231
0.78385723 -0.1369846 0.31571811 10657433
0.7736364 -0.12447119 0.31460622 12040367
0.76900005 -0.11226608 0.3114073 12302769
0.7721501 -0.11561751 0.31557965 12171953
0.76781827 -0.10384402 0.31190959 11250338
0.77166677 -0.10603128 0.31655371 12369847
0.76529998 -0.094710581 0.31259763 11448231
0.77080005 -0.095388874 0.31754956 12106162
0.7646364 -0.085180961 0.31338689 10724508
0.77000004 -0.086274602 0.31721997 10987936
0.76433337 -0.07450451 0.3123028 10395543
0.77150005 -0.074698173 0.31783795 10395542
0.76570004 -0.065897435 0.3125833 11776424
0.7725715 -0.064085945 0.31776431 9934478
0.76350003 -0.055606451 0.31141517 12764089
0.77250004 -0.056414898 0.3179495 9408647
0.76300001 -0.044587322 0.31326678 10593178
0.77100009 -0.043070018 0.31943688 9080453
0.7636472 -0.034876447 0.3147139 10592921
0.76256251 -0.025079295 0.3140493 10856091
0.76322228 -0.01493792 0.31443283 10856092
0.76392859 -0.0053740023 0.31459713 10987934
0.77000004 -0.0015531663 0.31902257 7895408
0.76327282 0.0043080538 0.31347677 12369587
0.77100009 0.0020562268 0.31943688 8553338
0.76312506 0.015882557 0.31305125 12501173
0.76545453 0.024844171 0.31453675 12303795
0.76525003 0.035182111 0.31437135 12238003
0.76420003 0.044977836 0.31304151 12435125
0.77100003 0.045375668 0.31763196 12303796
0.76544452 0.055198137 0.31275794 12566711
0.77260005 0.055592865 0.31793061 12435382
0.76380002 0.064620256 0.31108961 12303539
0.77020001 0.065160289 0.31549934 12500918
0.76716667 0.074784562 0.31246081 12500918
0.77322227 0.075272031 0.3173424 12632504
0.76775002 0.085171461 0.31135118 11908782
0.77266669 0.084663488 0.31560692 12566712
0.77430779 0.094371267 0.31397837 9540235
0.78000003 0.096117347 0.31860071 9277062
0.77700007 0.10166107 0.31328326 9737616
0.78455561 0.10576408 0.31729844 9211269
0.78825009 0.11258908 0.31482053 8685179
0.79149997 0.11686015 0.31601927 8750971
0.78900003 -0.14104477 0.32227689 8420469
0.79225004 -0.14496772 0.32555291 9013376
0.78725004 -0.13485932 0.32467374 9934481
0.79033333 -0.13789137 0.32868072 9079682
0.77833337 -0.12486437 0.32126096 12171955
0.78372741 -0.12500657 0.3260476 10263187
0.777125 -0.11436158 0.32243049 11645354
0.78350002 -0.11598741 0.32759857 9144962
0.77650005 -0.10518254 0.3226265 11184806
0.78316671 -0.1051682 0.32814455 7895408
0.7753334 -0.095040776 0.32214159 11382440
0.78300005 -0.095063262 0.32807472 8882303
0.77540004 -0.08506465 0.32216936 10922401
0.78466672 -0.085159816 0.32877305 7632235
0.77562511 -0.076011524 0.32180873 10856350
0.78333336 -0.075241365 0.32699472 9737355
0.77740002 -0.065261573 0.32208851 9737868
0.78533334 -0.065008901 0.32721388 9803404
0.77700007 -0.056141097 0.32192278 10067345
0.78400004 -0.054812878 0.32665834 9869710
0.77600002 -0.044560801 0.32362866 9080196
0.78275001 -0.046479028 0.32796997 7632492
0.77428579 -0.034577355 0.3239091 8619387
0.78133339 -0.036330782 0.32920551 7040867
0.77326673 -0.025093857 0.32400131 7961713
0.77394444 -0.01514735 0.32428503 7962226
0.77516669 -0.0056478847 0.32434231 7237992
0.78166676 -0.0034058148 0.32934594 7106147
0.77510011 0.0044232318 0.32295224 7500907
0.78219998 0.0053816037 0.32810614 6975076
0.77766675 0.015120097 0.32371756 7368806
0.78640008 0.014984883 0.3294993 7106662
0.77590919 0.025183173 0.32246387 7763050
0.7856667 0.025082158 0.32919204 7171683
0.77520001 0.034731958 0.32208651 7500394
0.78460008 0.035152636 0.32874513 7237476
0.77720004 0.043190233 0.32309937 7434603
0.78385723 0.045337897 0.32764992 7040100
0.77600002 0.054752134 0.32150847 9079682
0.78280008 0.055232376 0.3261584 7040099
0.77750009 0.064869396 0.32212994 8750719
0.78440005 0.064525791 0.32682502 7171686
0.77900004 0.072286628 0.3227514 7763825
0.78477788 0.075576462 0.32637298 7303274
0.77800006 0.084033929 0.32051575 10856350
0.78619999 0.084917113 0.32629022 7698286
0.79000002 0.0890273 0.32915828 8158835
0.78640002 0.095618896 0.32434806 8224629
0.79100007 0.094696164 0.32957494 8356214
0.78822231 0.10502473 0.32267737 8553592
0.79100001 0.10593796 0.32772455 8619385
0.79265213 0.11555006 0.32502025 8750971
0.78900003 -0.13088591 0.3305887 9145475
0.78866673 -0.12529138 0.33137256 8881789
0.79241675 -0.12557752 0.33619681 8816509
0.78825003 -0.11415285 0.33258152 8026735
0.79144448 -0.11585008 0.33634934 8487800
0.78800005 -0.10489392 0.33293799 8027249
0.79200006 -0.10542637 0.33740795 8290421
0.78800005 -0.095406778 0.33227831 7763821
0.79218179 -0.09482725 0.33664435 8290421
0.78880006 -0.08468692 0.33235151 7632234
0.78833342 -0.073563963 0.33030936 7697257
0.78900003 -0.069009297 0.3305887 7763821
0.78866673 -0.053287517 0.33044901 7435112
0.78728575 -0.043190934 0.33224121 7500905
0.79240006 -0.045933489 0.33646733 7961456
0.78750008 -0.034081794 0.33433998 7895918
0.7918334 -0.035271581 0.33857378 8093040
0.78583336 -0.024579363 0.33417097 7764334
0.79039997 -0.025650149 0.33857661 7895662
0.78585714 -0.015250008 0.33440119 7435625
0.79000002 -0.011765231 0.33840528 7566698
0.78737509 -0.0059647462 0.33428669 7435882
0.79099995 -0.0045040729 0.33830526 7501162
0.78775007 0.0044060848 0.33260149 7238247
0.79260004 0.0052686236 0.33729392 7435882
0.78900003 0.011337951 0.33243576 7172710
0.78900003 0.027037989 0.33243576 7237476
0.78900003 0.035349775 0.33243576 7237476
0.78866673 0.043949004 0.33168042 7369320
0.78800005 0.054674555 0.33016971 7566700
0.78900003 0.064902782 0.3305887 7698286
0.78900003 0.072291039 0.3305887 7698286
