# .PCD v0.7 - Point Cloud Data file format
VERSION 0.7
FIELDS x y z rgb
SIZE 4 4 4 4
TYPE F F F U
COUNT 1 1 1 1
WIDTH 791
HEIGHT 1
VIEWPOINT 0 0 0 1 0 0 0
POINTS 791
DATA ascii
0.49300003 0.067675829 -0.031183546 14078670
0.49263161 0.074877597 -0.031646188 15724521
0.49233335 0.083144404 -0.031525828 15724006
0.49614289 0.037160166 -0.021261454 14473686
0.49472731 0.045850597 -0.023269927 14144975
0.48825002 0.055878088 -0.020882271 15460579
0.49210417 0.054900508 -0.024866818 14868186
0.48729169 0.065846138 -0.021603065 15986921
0.49184075 0.064846486 -0.026115241 16052459
0.48700011 0.075270593 -0.022206815 16184557
0.49149999 0.075052448 -0.027586449 16315887
0.48719367 0.084740974 -0.022209335 16118253
0.49113628 0.085136808 -0.027331172 15855336
0.48775002 0.090647705 -0.021432973 15591140
0.48750001 0.018418437 -0.010863851 14736858
0.48699999 0.027038878 -0.010853489 15000030
0.49330553 0.025797386 -0.014212484 14868443
0.47745454 0.036529392 -0.01048825 15263200
0.48388889 0.035608858 -0.012993085 15263200
0.49357891 0.034211289 -0.017389189 15328994
0.47737503 0.045505807 -0.011105884 15131614
0.48350012 0.045329168 -0.015518147 15328993
0.49144447 0.042469703 -0.019069754 15394786
0.47573328 0.05490692 -0.012238863 15460066
0.48355564 0.054942593 -0.017060544 15591908
0.47597149 0.064908735 -0.012888189 15789287
0.48263884 0.065118805 -0.017540017 16184300
0.47563162 0.074988455 -0.01286023 15789543
0.48208821 0.074938804 -0.017585391 16250349
0.47585711 0.084946491 -0.01288484 15789798
0.48270595 0.084910244 -0.017541559 16052714
0.47559997 0.092117511 -0.012496293 15197149
0.48342857 0.090853639 -0.017488163 15591907
0.47700003 0.0046211719 -2.1537251e-05 14539479
0.48364285 0.0075183264 -0.003182044 14473686
0.46875003 0.019080725 -0.00029564911 14539479
0.47461295 0.016243778 -0.0023226507 14473686
0.48281077 0.014298671 -0.0060749128 14539479
0.46666673 0.025892997 -0.0014083578 14605272
0.47303715 0.02541515 -0.0049903858 14868188
0.48376927 0.024191393 -0.0086479541 14933980
0.45871428 0.037579123 -0.0001742155 14802392
0.46460003 0.034918588 -0.0022780313 14802649
0.47317946 0.03457566 -0.0070145866 15000029
0.45830005 0.045637947 -0.00055795652 14802393
0.46510261 0.045571573 -0.0040494106 14934235
0.47251853 0.043904606 -0.0076859142 15000028
0.4580909 0.055521552 -0.00075310288 15131614
0.46441656 0.054889452 -0.0054139709 15131614
0.47075006 0.054424498 -0.0096644936 15197407
0.45786202 0.065162897 -0.0011315264 15394787
0.46437255 0.06475582 -0.0058079185 15394787
0.47046164 0.065981463 -0.0095949247 15657958
0.4585883 0.074604489 -0.00058957323 15592165
0.46455547 0.075327501 -0.0048860009 15526372
0.47066674 0.075076349 -0.0093876636 15789544
0.45900002 0.083424546 -2.0724525e-05 15460580
0.46456057 0.085174441 -0.0041869944 15657959
0.47055566 0.084974527 -0.0093853176 15789288
0.46588001 0.093857452 -0.0034991323 15328737
0.47077784 0.092483543 -0.0094511369 15197408
0.48783338 -0.032391887 0.008542588 15460579
0.49079999 -0.034771349 0.0080215773 15460579
0.47800004 -0.021666966 0.0089304708 14802649
0.48413336 -0.026071636 0.0081359642 15065821
0.505 -0.028209558 0.0058882688 15986923
0.47334999 -0.013760631 0.008676446 14802649
0.46758822 -0.004296198 0.00918556 14605270
0.47288385 -0.0052481508 0.0054021343 14671064
0.45721433 0.0073315143 0.0089225471 14342100
0.46464863 0.0055288388 0.0064697778 14407892
0.47312912 0.0036501328 0.0028318847 14473686
0.44880003 0.016954821 0.0094355764 14276307
0.45513797 0.015172969 0.0077631725 14342100
0.46444187 0.015296553 0.0036115272 14407893
0.4702 0.012260051 0.0012995722 14407893
0.44696304 0.025526881 0.008386068 14868186
0.45441934 0.025228031 0.0051191491 14605272
0.46290475 0.02398641 0.0019895877 14473685
0.44635713 0.03529625 0.0076867002 14868443
0.45411128 0.034821525 0.002996132 14802649
0.4456315 0.045090739 0.0067966743 14934236
0.45268962 0.044691853 0.0022049809 14868442
0.44573081 0.054764111 0.0069546676 15197663
0.4532426 0.055317868 0.0023228948 15263199
0.44659999 0.064804256 0.0073854127 15461089
0.45253852 0.065150723 0.0028001338 15395042
0.44793764 0.074567087 0.0080389483 15526626
0.45365304 0.07518059 0.0034178037 15592421
0.44900003 0.081957392 0.0090894084 15592419
0.45455992 0.085205145 0.0049726833 15460837
0.45574144 0.094384171 0.0062974282 15066337
0.46109092 0.094651349 0.0014506172 14868958
0.45500001 0.10027272 0.0095659243 13157060
0.49787879 -0.10512751 0.018025067 15131870
0.49596432 -0.095217608 0.018222081 15657701
0.48800001 -0.081715912 0.018637439 15592165
0.49195239 -0.08649388 0.017910101 15592164
0.48782149 -0.075418167 0.018126214 15723751
0.49000001 -0.074402705 0.016037257 16250094
0.48648897 -0.064611413 0.016678594 15789544
0.49000001 -0.067520104 0.013743061 16381168
0.47570005 -0.052913278 0.018293945 15592165
0.48190317 -0.056181103 0.015732767 15460579
0.46612504 -0.043162744 0.017266273 15526372
0.47275007 -0.047920402 0.016711667 15460579
0.48100004 -0.047699288 0.013771561 15394786
0.45676476 -0.033194616 0.01821935 15197407
0.46350002 -0.036698826 0.016364027 15328993
0.47150004 -0.032408491 0.014327981 15263200
0.48410526 -0.032774284 0.011543632 15328993
0.44883338 -0.023496946 0.019943548 14934235
0.45355564 -0.025453482 0.017876215 14934235
0.465 -0.023797523 0.015215755 14934235
0.47580004 -0.024045762 0.012299138 15000028
0.48153335 -0.027351765 0.011399617 15000028
0.44677278 -0.015171072 0.019136697 14802649
0.45476475 -0.015494275 0.016630026 14671063
0.46592313 -0.013359995 0.012895258 14736856
0.47299999 -0.017573558 0.011603553 14868442
0.43900001 -0.00088550645 0.019506609 14407891
0.44533339 -0.0045970194 0.017854556 14605270
0.45516002 -0.0058167297 0.014548353 14605270
0.46335006 -0.0060891933 0.011744918 14605270
0.43737036 0.0057497108 0.018369989 14342098
0.44474477 0.0050449078 0.014921391 14407891
0.4537895 0.0044968491 0.011384579 14473685
0.4605 0.00068759877 0.010759596 14407891
0.4348627 0.015408108 0.017138742 14539478
0.4441137 0.014622573 0.012402082 14407892
0.45000002 0.010680345 0.010514263 14276307
0.4337236 0.025175158 0.015890986 14868442
0.44200006 0.024406303 0.011100813 14671063
0.43322784 0.035072353 0.015731364 14934235
0.44085002 0.034714133 0.010815496 14868442
0.43426242 0.045037124 0.015607536 15000028
0.44041181 0.045020524 0.01071437 14934235
0.43585911 0.054752808 0.015906822 15197406
0.44086361 0.055500861 0.011143984 15263199
0.43692306 0.064680867 0.017185766 15329248
0.44211352 0.065230869 0.012137053 15329247
0.43820691 0.07403972 0.018160721 15460577
0.44290483 0.075390719 0.013500314 15592419
0.43900007 0.082358748 0.019249681 15263454
0.44446996 0.08517658 0.014730995 15460834
0.45000002 0.089689702 0.010514263 14737628
0.44645616 0.09419293 0.016400319 15132129
0.45159093 0.096160345 0.011942744 14737628
0.44900003 0.10000157 0.0167976 14606050
0.45355558 0.10101592 0.012482118 9802644
0.43727773 -0.12480186 0.029210594 15723752
0.44355822 -0.12372692 0.025735855 15526373
0.43595663 -0.11434229 0.028686184 15723751
0.44434372 -0.11678457 0.025748549 15592165
0.45000002 -0.11889499 0.02315576 15329247
0.43473324 -0.10495737 0.026775746 15394786
0.49725926 -0.10538477 0.022353604 15789284
0.43637496 -0.094982237 0.026751311 15329250
0.49531823 -0.095615506 0.022061734 15657958
0.4390001 -0.088607647 0.026994187 15328993
0.44178718 -0.083995208 0.027331309 15394786
0.4868519 -0.083046146 0.023657586 15986923
0.49111772 -0.087965094 0.022497864 15986923
0.44604999 -0.076556981 0.028380156 15263200
0.47728571 -0.071832038 0.028069997 15855337
0.48372424 -0.074955314 0.023708571 15921130
0.44282359 -0.064734571 0.029005602 15526372
0.47633335 -0.064463526 0.025250368 15789544
0.48192006 -0.06645485 0.021907024 15921130
0.44611114 -0.05612421 0.029106285 15592165
0.45833334 -0.0520656 0.027160084 15855594
0.46548387 -0.053565089 0.024614342 15658215
0.4727917 -0.056989934 0.022155313 15789544
0.44694746 -0.043530732 0.028612934 15591909
0.45536843 -0.044511788 0.025218016 15526372
0.46288469 -0.046408679 0.022148538 15526372
0.43799999 -0.032232732 0.029422538 15197407
0.44523728 -0.034763448 0.026360791 15328994
0.45357579 -0.036025494 0.021886555 15329250
0.42700002 -0.020853594 0.029969161 14934237
0.43500006 -0.024214527 0.027491638 14868700
0.44454005 -0.025625138 0.023260033 14934749
0.42496672 -0.0146607 0.028694727 14803164
0.43439624 -0.014900682 0.024759438 14671834
0.44214284 -0.015782727 0.021369696 14737113
0.41811112 -0.0047627557 0.029345291 14540249
0.42393029 -0.005352967 0.026559245 14605785
0.43372497 -0.0054948078 0.022817109 14605528
0.44000003 -0.0080978591 0.020581093 14736856
0.41748276 0.0059986738 0.028119862 14408662
0.42355338 0.0042304918 0.025096465 14342613
0.43235713 0.0041492092 0.021376716 14408148
0.41721222 0.014962228 0.028125657 14408148
0.42381263 0.015296214 0.023734299 14473684
0.4300909 0.014325884 0.020209102 14539478
0.41777274 0.024720697 0.028698085 14671320
0.42424423 0.025265398 0.023882303 14802649
0.43000001 0.021781996 0.02011334 14802650
0.41828579 0.034056846 0.029077293 14934235
0.42421031 0.035153344 0.024120893 14934235
0.41888893 0.044264916 0.029399879 14934489
0.42446819 0.044862133 0.024657333 14934490
0.43000004 0.046947937 0.02011334 14868442
0.42509297 0.054814324 0.025980156 15197406
0.43045461 0.055931415 0.020912565 15263454
0.42655358 0.064565293 0.027346784 15329248
0.4316383 0.065607227 0.022378178 15329246
0.428 0.071817547 0.028727295 15526371
0.43283525 0.07537324 0.024310574 15460833
0.43516663 0.0849372 0.02507388 15328991
0.44000003 0.089241669 0.020581093 15132384
0.43701681 0.094577201 0.026746664 15131871
0.44153851 0.095241025 0.021962222 15000797
0.43814284 0.10110033 0.028405529 13421003
0.41800001 -0.13001116 0.039122947 16644342
0.42200002 -0.13026737 0.036533602 16052203
0.41696295 -0.12408706 0.038842421 16118252
0.42335719 -0.12539148 0.03504841 15921130
0.43249997 -0.12456369 0.031279791 15920873
0.41472337 -0.11498961 0.037797328 16381424
0.42428854 -0.11469544 0.033455901 16118252
0.4312143 -0.11602699 0.030624788 16052716
0.40900001 -0.10231747 0.039238062 16118763
0.41364092 -0.10538609 0.037639782 16052457
0.42417553 -0.10521857 0.033523332 15855337
0.43050009 -0.1044186 0.030592294 15526372
0.40900001 -0.098008841 0.039238062 16052970
0.41389799 -0.094737597 0.037683636 15986921
0.42427677 -0.09523201 0.033826075 15658214
0.43173915 -0.094775103 0.030959297 15329506
0.41574523 -0.084973313 0.037701216 15724006
0.42212126 -0.085748553 0.03417293 15461092
0.4365834 -0.086048625 0.032083452 15263714
0.44145459 -0.083183199 0.031358644 15197921
0.41602176 -0.075319469 0.038191069 15526372
0.42235908 -0.075102262 0.034836765 15328993
0.4341 -0.072307102 0.03351197 15263200
0.44330302 -0.075020447 0.031456675 15329506
0.41658819 -0.065835983 0.038672164 15394786
0.42154172 -0.064671129 0.03645023 15460579
0.43300003 -0.064407855 0.034545057 15329506
0.44220591 -0.064186692 0.031643063 15329506
0.41785717 -0.057296507 0.039248701 15328993
0.42365012 -0.054999303 0.03778597 15394786
0.43481824 -0.053755675 0.035601616 15329507
0.44266671 -0.054803435 0.032077022 15395043
0.41669568 -0.044316474 0.039168917 15328993
0.42300007 -0.045128319 0.03723469 15197407
0.43514293 -0.043878712 0.034205444 15328994
0.44226664 -0.04603621 0.031312685 15460579
0.41559452 -0.034760404 0.038499281 15065821
0.42397225 -0.034876175 0.035649836 15065821
0.43416664 -0.035439771 0.032376964 15197407
0.40780002 -0.023035711 0.039248575 14934235
0.41409263 -0.024655692 0.036576133 14868442
0.42419517 -0.025246257 0.032695603 14934235
0.43109998 -0.027313242 0.030760473 14934235
0.4063113 -0.014646089 0.038404364 14868442
0.41446975 -0.014727592 0.03388558 14737113
0.42133334 -0.017373947 0.031049989 14802650
0.40618193 -0.0048819957 0.037750743 14736856
0.41386166 -0.0053837937 0.032689121 14605785
0.40619126 0.0048449375 0.037435874 14408148
0.4124532 0.0050044181 0.032245867 14408406
0.40661547 0.015098668 0.037405301 14276819
0.41248226 0.014946778 0.032151934 14407892
0.40725023 0.024608325 0.037590064 14539734
0.4131476 0.025217723 0.032476775 14671576
0.4081071 0.034084808 0.038843811 14671062
0.41370329 0.035148095 0.03379117 14737113
0.40900001 0.040825225 0.039238062 14736856
0.41400895 0.045088004 0.0347072 14934489
0.41587058 0.054554939 0.036061849 15066075
0.42084998 0.057033949 0.031654969 15131870
0.41766673 0.064100422 0.038111642 15329247
0.42206067 0.065365419 0.033463415 15263455
0.41900003 0.071249999 0.039216544 15592419
0.42360631 0.075200424 0.035084736 15460578
0.42999998 0.078657031 0.030179717 16118509
0.42483953 0.084906191 0.036004681 15329249
0.43048003 0.085599519 0.03109953 15526372
0.42543182 0.093643695 0.037434533 15132385
0.43234032 0.095584393 0.032578815 15000798
0.43437502 0.10157438 0.034294445 14342615
0.40562502 -0.13126352 0.047693681 16315375
0.40592331 -0.12475514 0.046790697 16249580
0.41271791 -0.12522508 0.041844539 16183788
0.40508747 -0.11474167 0.04568645 16447215
0.41116667 -0.11745948 0.041049138 16250093
0.39900002 -0.10121693 0.04948749 16513008
0.4036667 -0.1049988 0.044767067 16315629
0.39786217 -0.093912646 0.048317276 15986664
0.40395662 -0.095324486 0.04352678 16118250
0.3969591 -0.084589936 0.048054546 15921128
0.40357691 -0.085358225 0.043100249 15855591
0.41000006 -0.082891397 0.040293816 15855591
0.39650795 -0.075132392 0.047817569 15921127
0.40324596 -0.074780658 0.043023437 15789798
0.41090909 -0.074893124 0.040383164 15592165
0.39659363 -0.064887933 0.047862943 15790055
0.40353575 -0.065268047 0.043342412 15658213
0.41186669 -0.064209782 0.040861662 15526372
0.39633936 -0.055162106 0.048058219 15592164
0.40378189 -0.055053126 0.044088967 15460579
0.41364703 -0.05457636 0.041045811 15328993
0.39573598 -0.045073919 0.0481674 15592164
0.40359992 -0.04522153 0.044474654 15328993
0.4122963 -0.045088761 0.041374918 15263200
0.3953428 -0.034778558 0.047438778 15197663
0.40467396 -0.035001092 0.043283019 15197407
0.41165003 -0.035814628 0.041033149 15065821
0.39485058 -0.024607891 0.046665236 14934235
0.40331918 -0.025688745 0.041858613 14934235
0.394629 -0.014793046 0.046026431 14868442
0.40103564 -0.014558563 0.041188065 14868442
0.39487484 -0.0051019541 0.046494152 14539734
0.40108567 -0.0051011853 0.041561447 14539477
0.39549476 0.0046737376 0.046340421 14211026
0.40077132 0.0050618742 0.041368823 14342354
0.3966296 0.01482625 0.047145769 14210769
0.40141174 0.015425503 0.042117592 14342609
0.3971667 0.024304831 0.048035994 14473940
0.40195659 0.025374686 0.043259695 14605782
0.39854544 0.032615189 0.04892163 14671833
0.40314716 0.035304166 0.044661671 14671319
0.4054957 0.044879742 0.045220774 14802904
0.41040006 0.047979131 0.04052509 14802903
0.40729252 0.054336473 0.046769876 15066075
0.41151163 0.055830851 0.042343989 15131612
0.40854546 0.063300021 0.048844989 15263454
0.41345754 0.065448232 0.044162497 15263454
0.41539997 0.074885525 0.044986054 15395040
0.42000002 0.077811025 0.040293366 15526626
0.41681585 0.084630981 0.04633623 15394784
0.42050013 0.086272001 0.041632622 15263455
0.41788885 0.093544416 0.048495002 15328993
0.42145944 0.095536582 0.044042282 15131614
0.42300001 0.10100094 0.044535995 14539735
0.39518183 -0.13182433 0.057453502 16446963
0.40147367 -0.13134857 0.052409589 16381426
0.39533332 -0.12455602 0.056973647 16315630
0.40115547 -0.12558793 0.051984377 16184045
0.39565939 -0.11483078 0.05658998 16447215
0.40032342 -0.11552832 0.051718283 16447215
0.39552927 -0.10491511 0.055235017 16184044
0.40000001 -0.10849366 0.050547928 16381422
0.38900003 -0.090028942 0.059175078 15658212
0.39365324 -0.095024653 0.054798938 15920872
0.38871053 -0.083401315 0.058196038 15526626
0.39235219 -0.085565932 0.053580031 15855591
0.38787314 -0.075025462 0.057702545 15658212
0.39185941 -0.075096369 0.052725315 15724005
0.38708439 -0.064957075 0.056801934 15855334
0.39164582 -0.065236211 0.051972259 15855590
0.38666672 -0.055041008 0.056457762 15724005
0.39139473 -0.054583121 0.051772594 15724005
0.38578844 -0.044910483 0.056648731 15592419
0.39115795 -0.04508001 0.051500987 15592420
0.38521826 -0.034979705 0.055953614 15197664
0.39095655 -0.034853671 0.050836798 15197407
0.38478148 -0.024999222 0.055515319 15000028
0.39038467 -0.025745396 0.050457425 15000285
0.38478467 -0.015193091 0.055424348 14737369
0.39009094 -0.015397145 0.050208937 14737627
0.38614425 -0.0055108205 0.055386651 14342612
0.39037499 -0.0042696893 0.050587874 14342870
0.38698882 0.0045135254 0.056539692 14079441
0.3911396 0.005004508 0.051704839 14145490
0.38740006 0.014456999 0.057384457 14013904
0.39183873 0.015012248 0.052574854 14276819
0.38853064 0.023775719 0.058136817 14211283
0.39236778 0.025510719 0.05323796 14474454
0.38900003 0.030177653 0.059175078 14671833
0.39396036 0.035069507 0.054916959 14474454
0.39622214 0.044479381 0.056141116 14737112
0.40041375 0.04645054 0.051763136 14737625
0.39771795 0.053894632 0.058112051 15000284
0.40224093 0.055440553 0.053329181 15066333
0.39900002 0.060843546 0.059762217 15328993
0.40459818 0.064858809 0.055087794 15131869
0.40699002 0.074766181 0.055896778 15328992
0.41073912 0.075928695 0.050816961 15328991
0.40789104 0.084041879 0.057288852 15263455
0.41194737 0.085608847 0.052628182 15328993
0.40879998 0.092101179 0.058741558 15197405
0.41376677 0.095032409 0.054622438 14934749
0.41781819 0.10177107 0.056796368 13816274
0.42325726 0.10613801 0.055355657 5393484
0.42500001 0.11057518 0.056691971 2696990
0.38619521 -0.13200037 0.06636332 16381682
0.39135304 -0.13228589 0.061471652 16183790
0.38598192 -0.12501657 0.066415183 16315887
0.391206 -0.12461211 0.061394542 16446959
0.3871704 -0.11513474 0.066810422 16447215
0.39121288 -0.11478125 0.062081516 16447215
0.3877058 -0.10470914 0.066767067 16184043
0.39091319 -0.10545269 0.061871078 16184043
0.38705191 -0.094476283 0.065311104 15855078
0.39023077 -0.097482525 0.060837861 15855078
0.38505551 -0.08506313 0.065203056 15657699
0.37858334 -0.072552122 0.069185153 15657699
0.38287035 -0.075332299 0.064617313 15592162
0.37818375 -0.064309098 0.068242684 15526369
0.38208792 -0.065153152 0.063236631 15658212
0.37796834 -0.054484267 0.067817651 15395041
0.38167897 -0.055418473 0.062722147 15526625
0.3768867 -0.044732798 0.066211276 15394785
0.38075674 -0.045432504 0.061581958 15592164
0.37667623 -0.035018362 0.065979615 15065821
0.38061282 -0.035143998 0.061405096 15328993
0.37710068 -0.024996405 0.065777317 14539990
0.38050005 -0.024817951 0.060999107 15000285
0.37768355 -0.015141555 0.066299498 14408404
0.380647 -0.014343023 0.061599031 14539991
0.37819698 -0.0056041577 0.067644447 14079440
0.38134685 -0.0047560604 0.062601373 14210769
0.3785882 0.004188912 0.069085978 13816524
0.38175622 0.0051492332 0.064057894 13882317
0.37900001 0.010769716 0.069188058 14079696
0.38289458 0.01524278 0.064865485 14079440
0.38452658 0.025203364 0.065213673 14342612
0.38693759 0.034548249 0.065481946 14474453
0.39061111 0.037213586 0.061146803 14408661
0.38805091 0.044086125 0.067572854 14671318
0.39180553 0.045774236 0.063023046 14671576
0.38900003 0.05089508 0.06896463 14802903
0.3934148 0.055164568 0.064796746 15000284
0.396052 0.064415731 0.065829866 15263199
0.40083334 0.067497507 0.061481416 15394786
0.39809093 0.073301516 0.068237603 15329506
0.40181828 0.075650811 0.063959189 15394785
0.40312713 0.085179515 0.064786389 15328993
0.40495056 0.094389103 0.065187953 15066079
0.41060004 0.098562501 0.061498266 14408663
0.40808335 0.10195497 0.068445429 13421770
0.41501883 0.10457386 0.064296126 9670286
0.42050004 0.10645121 0.06052091 2629923
0.37668425 -0.13297176 0.076601975 16315634
0.3806667 -0.13212253 0.071333304 16513012
0.37674302 -0.12532297 0.076779872 16184302
0.38124529 -0.12423404 0.071969785 16315631
0.37761411 -0.11598834 0.078143783 16315888
0.38259217 -0.11469813 0.0734521 16446959
0.37880003 -0.10575686 0.079615436 16183019
0.38287008 -0.10507131 0.074739195 16314860
0.37843338 -0.093549967 0.078622542 16051433
0.38220757 -0.095531546 0.073992781 15920616
0.37682909 -0.084497996 0.077117965 15920102
0.38086781 -0.085844077 0.072370775 15723492
0.376149 -0.075043805 0.075159632 15526114
0.38000003 -0.079050146 0.070704997 15723492
0.37479141 -0.064971149 0.075186282 15591907
0.37396547 -0.055100255 0.075312912 15328993
0.37281296 -0.044850562 0.075078636 15197407
0.37316811 -0.03513056 0.075013176 14539733
0.37409747 -0.024837298 0.07485877 13882317
0.37451527 -0.014782284 0.074940562 13619145
0.37521234 -0.0051474199 0.075075693 13619145
0.37552777 0.0049567539 0.07513573 13618632
0.37633586 0.014923562 0.07519111 13816268
0.38011116 0.017920585 0.070577279 14277075
0.37751657 0.024278814 0.076535173 14211282
0.38073328 0.026012326 0.071978979 14408404
0.37860003 0.033360798 0.078686677 14276818
0.38202712 0.035440419 0.074033938 14342611
0.37900001 0.040048826 0.079835013 14408661
0.38369995 0.044972409 0.075041853 14539733
0.38684031 0.054525379 0.075423494 14934490
0.39038464 0.058194861 0.071265645 14868953
0.38842228 0.063354068 0.077736005 15066076
0.39185187 0.065872014 0.073611423 15197663
0.38900003 0.070246518 0.079209507 15329247
0.39381105 0.075124137 0.075033188 15263200
0.39538494 0.084931992 0.07493706 15263201
0.40000001 0.089088254 0.070212476 15198177
0.39561278 0.094393902 0.075668775 15263203
0.40043753 0.095750198 0.070874676 15132129
0.39738888 0.10220426 0.078435034 13816530
0.40315381 0.10570343 0.0753562 7893615
0.41000003 0.10571273 0.070048161 3617590
0.40150002 0.11056992 0.078464501 2630938
0.37845457 -0.14090735 0.086483106 15328225
0.38033333 -0.14203902 0.086348444 13420485
0.36861536 -0.13164407 0.088400006 16250095
0.37390599 -0.13478924 0.084402233 15986669
0.36810017 -0.1253833 0.087894924 15986921
0.37172046 -0.12492479 0.083113678 16052459
0.36835551 -0.11575649 0.088341914 16118250
0.37261969 -0.11447721 0.083618656 16184045
0.36899999 -0.1048365 0.08982224 15855337
0.37352657 -0.10504969 0.084820814 16052203
0.36877778 -0.09369529 0.089336231 15723495
0.37314925 -0.095283821 0.084494881 15854824
0.36842868 -0.084810488 0.088150531 15394530
0.37151143 -0.08499445 0.083468668 15657445
0.36812675 -0.075087376 0.087458938 15460065
0.3711625 -0.075029813 0.08251407 15526116
0.3681072 -0.064942256 0.087016828 15328993
0.37077788 -0.065145589 0.08211001 15460835
0.3682051 -0.054991443 0.086996391 15329248
0.37061039 -0.055038948 0.082374938 15328735
0.3684054 -0.045682281 0.08732184 15065563
0.37049252 -0.044448089 0.082911395 14933978
0.36900002 -0.039616913 0.08939033 14473171
0.37138686 -0.03493673 0.084925003 13355202
0.37334073 -0.024888296 0.085109845 8948358
0.37381518 -0.014872253 0.085391521 9145739
0.37250015 -0.0051152571 0.084999129 12829372
0.37180403 0.0048874826 0.084843285 13158593
0.3725985 0.014951273 0.085019261 13487303
0.37404811 0.024985472 0.085093103 14013646
0.37641764 0.03515131 0.08497151 14144976
0.37819055 0.044275045 0.086196333 14605270
0.38059989 0.046515707 0.082269534 14671576
0.37870592 0.052795716 0.088794783 14868442
0.38177949 0.055372052 0.084463991 14934492
0.3842954 0.065012857 0.084908649 15131870
0.38597631 0.074697964 0.085340112 15197663
0.3901819 0.077352956 0.080695577 15460322
0.38675418 0.084676668 0.085991852 15066333
0.39043996 0.085569233 0.081037588 14934490
0.38737497 0.094510958 0.08633285 14803419
0.39142504 0.095749304 0.081670567 14737628
0.38847619 0.10154933 0.087979533 11908793
0.39474079 0.10491093 0.083441153 7631216
0.40000001 0.1087528 0.080512956 2762017
0.37239999 -0.14106514 0.095300302 15130845
0.3670353 -0.1333801 0.095566399 15855338
0.37089658 -0.13835552 0.09381295 15196895
0.36536705 -0.12486308 0.094967864 15592165
0.36545169 -0.11483904 0.094854288 15723493
0.36631829 -0.10503533 0.095207408 15591907
0.36603305 -0.094961733 0.095075406 15526115
0.36568269 -0.084996656 0.095026091 15197151
0.36515453 -0.075107895 0.094861083 15000027
0.36512414 -0.065131076 0.094758838 14934233
0.36604017 -0.055050578 0.095115922 14802648
0.36705574 -0.044990253 0.094931066 14671062
0.3683078 -0.037432283 0.096031882 14145233
0.37069067 -0.033102263 0.094188415 10197142
0.36899999 -0.022772118 0.099324435 2304808
0.37076178 -0.025154954 0.094794556 2501674
0.36900002 -0.018021023 0.099324435 2370088
0.37131622 -0.014979625 0.094989672 3028018
0.37102994 -0.005093812 0.095091805 11908271
0.36900005 0.0032869235 0.099036492 12631480
0.37033305 0.0049214028 0.094816774 12566457
0.3704316 0.014863322 0.094937123 13290179
0.3712464 0.02495137 0.095068596 13816522
0.37269911 0.035023678 0.095073998 14145231
0.37452766 0.044834387 0.094860472 14539733
0.37595236 0.054900851 0.095105223 14934491
0.37704095 0.064357743 0.09648104 15131613
0.38093734 0.066246867 0.091853261 15066077
0.37765399 0.074794523 0.097251832 15131614
0.38117647 0.075277939 0.09244179 15131614
0.37816018 0.084844969 0.098424539 15131614
0.38177425 0.085260153 0.093481682 15197407
0.37868187 0.092923597 0.099109031 14934750
0.38284492 0.094910912 0.094160363 14935008
0.38682228 0.10269862 0.094758861 9605268
0.39000002 0.10694697 0.091586433 2762782
0.36900002 -0.14068569 0.10450745 10855841
0.37060004 -0.14146988 0.10253157 13289669
0.36597207 -0.1345678 0.1051117 14342099
0.36399952 -0.1247192 0.10522167 14934233
0.36399963 -0.11491972 0.1052217 15000027
0.3636663 -0.10502589 0.10512322 14737367
0.36347386 -0.09506958 0.10498127 14802904
0.36312744 -0.085216604 0.10504869 14539732
0.36324972 -0.075140342 0.10500234 14342353
0.36390802 -0.06510067 0.10526095 14277075
0.36453691 -0.055022284 0.10510071 14210768
0.3663545 -0.044902816 0.10504375 14079183
0.36801407 -0.037129976 0.10479866 13355716
0.37008977 -0.032220501 0.10552648 6580067
0.36847654 -0.024075069 0.10517901 2108198
0.37003994 -0.028536441 0.10355425 2305321
0.36844337 -0.01623496 0.1052592 2370345
0.37034208 -0.011515143 0.10397353 4146754
0.36899999 -0.0012842069 0.10871866 12697273
0.37068009 -0.0053019947 0.1050891 11053218
0.36878046 0.005177306 0.10571575 12631736
0.36999992 0.003700047 0.10201892 12499637
0.36846319 0.015227322 0.10660474 13289923
0.36999997 0.014939 0.10187202 13092288
0.36814573 0.025147488 0.1068114 13816523
0.37016332 0.024915161 0.10184762 13882058
0.36797938 0.034967374 0.10718982 14079695
0.37050018 0.035061754 0.10234433 14079181
0.3680658 0.044484071 0.10745978 14277075
0.37090802 0.045477975 0.10244004 14539477
0.36854008 0.054457121 0.10813775 14736856
0.37125254 0.055199087 0.10340983 14934235
0.36899999 0.063947387 0.10930654 14868442
0.37186641 0.065232098 0.10435358 14934491
0.36900002 0.070954047 0.10969047 14605270
0.37234399 0.074941948 0.10494595 14868954
0.3743715 0.084843315 0.1050809 15000285
0.37644774 0.094723538 0.10522354 14803421
0.38033333 0.099250488 0.1014839 14343897
0.3782858 0.10201515 0.10698441 11710899
0.38208696 0.10461491 0.10453405 5000015
0.36630556 -0.13314342 0.11471865 12829373
0.36531481 -0.12503731 0.11486673 13224130
0.36486721 -0.11497402 0.11493099 13618631
0.36425215 -0.10504287 0.11457195 13618631
0.36388078 -0.095011786 0.11505717 13355717
0.36370391 -0.085161619 0.11488605 13487046
0.36383963 -0.075226106 0.11494192 13684681
0.36396176 -0.065062881 0.11500965 13816523
0.3648715 -0.054874975 0.11500446 14144717
0.36654434 -0.045027338 0.11511941 13750475
0.36838087 -0.035494275 0.11530672 9145479
0.37000003 -0.033903554 0.11438789 7697776
0.3663702 -0.024862589 0.11497422 1976096
0.36700687 -0.015000584 0.11496942 2897199
0.36855128 -0.004583044 0.11596576 11447976
0.370074 -0.0071318187 0.11203083 10592668
0.36744609 0.0049402229 0.11496719 12369079
0.36636814 0.015096221 0.11493742 13092802
0.36592576 0.024901889 0.115112 13618631
0.36576432 0.034797706 0.11514524 13684168
0.36587784 0.045148823 0.11506616 14013390
0.3667641 0.055035617 0.11499357 14342868
0.36744544 0.064952195 0.1149623 14408406
0.36793754 0.074889742 0.11511046 14342869
0.37 0.078768685 0.11102714 14408918
0.36870223 0.082541041 0.11709356 14145746
0.37078905 0.086210519 0.11372983 14474711
0.37264514 0.094929613 0.11502571 14408920
0.37601322 0.10317244 0.11507805 10921383
0.38000003 0.10687351 0.11029161 1250069
0.36815387 -0.13181028 0.12170443 11645356
0.373 -0.13064025 0.12856416 12171698
0.36816281 -0.12525396 0.12178934 12171699
0.37167215 -0.12504509 0.1268353 12105649
0.36797968 -0.11498025 0.1219944 12040113
0.37135854 -0.11484756 0.12699454 11776941
0.36795658 -0.10497059 0.12187237 11842991
0.37146544 -0.10501123 0.12696397 11184804
0.36771742 -0.094179742 0.12282246 11711405
0.37097883 -0.095541202 0.12735395 11119011
0.36680472 -0.084767565 0.12377814 11908527
0.37057889 -0.085809857 0.12888081 10790046
0.36642548 -0.074966915 0.12410834 11974063
0.37036368 -0.07531444 0.12940666 11316389
0.36630529 -0.06505318 0.12476254 12369078
0.36631066 -0.055028122 0.12467237 13158593
0.36738601 -0.044958618 0.12479529 13421252
0.37 -0.04059045 0.12990978 11644585
0.3683292 -0.034596659 0.12428478 7040360
0.37002265 -0.036438957 0.12596089 10000274
0.36439985 -0.02508243 0.12491848 1712154
0.36554581 -0.014883308 0.12503396 2961707
0.36791739 -0.0050500836 0.12487273 10066582
0.36675766 0.0048384299 0.12490869 11250855
0.36540192 0.015086459 0.12487716 11514029
0.3652482 0.024915336 0.12482373 12369079
0.36537921 0.034760606 0.12486964 12237492
0.36567512 0.044966988 0.12465911 12566201
0.36596522 0.054935869 0.12480699 13158596
0.36715648 0.065068848 0.12468389 13158853
0.36800006 0.074707858 0.12422798 13027267
0.36999995 0.076751016 0.1291455 12369079
0.36877421 0.084112391 0.12255945 13290438
0.37036383 0.086003482 0.12712255 13027264
0.37114042 0.094830029 0.12486149 13290442
0.37409991 0.10246536 0.12474509 7763319
0.37450004 -0.13072756 0.13127148 11645355
0.37552789 -0.12425631 0.13350472 11513770
0.37642565 -0.11509088 0.13448185 11185061
0.38000003 -0.11685757 0.13964799 9408393
0.37656012 -0.10512271 0.13485911 11119267
0.37502605 -0.09544231 0.13406552 10921889
0.37449998 -0.08464627 0.13455743 10658975
0.37407422 -0.075592645 0.13468248 10461337
0.36899999 -0.062508561 0.13042252 10921632
0.37277019 -0.064996749 0.13525434 10658203
0.36866665 -0.054158255 0.13068862 11711149
0.37116674 -0.055375423 0.13469343 11119525
0.36868182 -0.046800327 0.13101672 11974320
0.37121248 -0.043989547 0.1355212 11119268
0.36595562 -0.031813566 0.13492605 2961451
0.37150744 -0.037031651 0.13462335 8684415
0.36153555 -0.024851982 0.13496855 1712155
0.36327025 -0.015071695 0.13480185 2961450
0.36862269 -0.005726207 0.13245514 8356477
0.37098187 -0.0049299607 0.13666832 8553859
0.36820745 0.0048359339 0.13224182 10461340
0.37163413 0.0056100092 0.13734034 9211273
0.36788151 0.015416329 0.13259853 10461339
0.37091318 0.014711552 0.13751839 8882308
0.36810443 0.0250718 0.133183 10461342
0.37038463 0.024373224 0.13807145 8948101
0.36804995 0.035099998 0.13270256 10855841
0.37046152 0.035411026 0.13723341 9211274
0.36832008 0.044766542 0.13197681 11118755
0.37049028 0.045340154 0.13673274 9868948
0.36834052 0.054737255 0.1317316 11579564
0.37044454 0.054908656 0.13590629 10461339
0.36873913 0.063773654 0.13096878 11974323
0.3707709 0.06590841 0.13428685 11448492
0.37201142 0.074997373 0.13435565 11251113
0.37287289 0.084888652 0.13471988 11579564
0.3742457 0.094975479 0.13513382 10724258
0.37536672 0.1021139 0.1333784 5591635
0.37900001 -0.10324137 0.14016773 9473928
0.38000003 -0.10217941 0.14053756 9408393
0.37900001 -0.098805144 0.14016773 9342858
0.37800002 -0.080846347 0.1406828 9277834
0.37788892 -0.074975371 0.14064145 9211270
0.37500003 -0.063086018 0.14044414 9079682
0.37327278 -0.041978896 0.14083005 9408650
0.3618966 -0.031171368 0.14515485 1054740
0.37366673 -0.036730286 0.14162154 8092533
0.36143345 -0.024843872 0.14510295 1120531
0.36156568 -0.015689461 0.14470941 2236955
0.37533334 -0.0048462301 0.14285395 7961462
0.38093337 -0.0026711598 0.14783995 9211782
0.376425 0.0041679726 0.14243498 8356219
0.3806667 0.0019048197 0.1464283 9277832
0.37338707 0.015006423 0.14153279 8619390
0.37150002 0.021860491 0.14109072 9342854
0.37500003 0.087031767 0.14044414 9737358
0.37562501 0.094213329 0.14078824 6314839
0.36392871 -0.032285653 0.15618961 2171676
0.36468884 -0.025178976 0.15558189 593929
0.36406603 -0.015505521 0.15515569 1905935
0.36305901 -0.033348437 0.16475385 1120785
0.3636663 -0.024814079 0.16524875 1120272
0.3641749 -0.016343052 0.16465436 1250831
0.34900001 -0.035427116 0.1797276 2107167
0.35526088 -0.032957092 0.1797539 1054737
0.36260816 -0.033084858 0.17525887 1054736
0.35699993 -0.025032116 0.1791869 594443
0.36159864 -0.024941351 0.17432006 1252114
0.35824999 -0.018647216 0.1794574 462601
0.36137494 -0.016670128 0.17672406 1120274
0.34551015 -0.033815335 0.18486066 1712409
0.35399997 -0.032334533 0.18025784 1251859
0.36000001 -0.035700966 0.18033578 1251602
0.34534186 -0.024982773 0.18500514 1514774
0.35202277 -0.024834625 0.18051265 1383957
0.34455287 -0.016694684 0.18591937 1448981
0.35547829 -0.017062835 0.18111677 988944
0.36149999 -0.011702705 0.18430331 1646620
0.36279416 -0.0077750874 0.18583472 8554109
0.34183332 -0.032907773 0.19164006 1515030
0.34201482 -0.025321368 0.19189139 1514774
0.3419269 -0.01726388 0.19162349 1383447
0.36400002 -0.010533726 0.19043475 2106397
0.36400005 -0.0079773339 0.19043475 7237732
0.79670829 0.12506808 0.31501389 9803405
0.79687506 0.11522181 0.32479706 9737610
0.79703355 0.11501012 0.40671939 9540490
0.79617876 0.11481981 0.41534257 9474697
0.79725009 0.12546211 0.41445544 9540489
0.7960304 0.15554753 0.415465 9672076
0.79500002 0.16496444 0.41474026 9672076
0.79554838 0.17514242 0.41419348 9672077
0.79569995 0.18466999 0.41442278 9737614
0.7959429 0.19484122 0.41441628 7565161
0.79618931 0.11506436 0.42538047 9474697
0.79706466 0.12527622 0.4246735 9540489
0.79694444 0.13484365 0.4254314 9540746
0.79571056 0.14466745 0.42471769 9475210
0.79318166 0.15504953 0.42467585 9540746
0.79407692 0.16584849 0.42545015 9606027
0.79572016 0.17536138 0.42468357 9737614
0.79604012 0.18474878 0.42485484 9606284
0.79646176 0.19438431 0.42522246 8157555
0.79320675 0.11551534 0.43524811 9474697
0.79524142 0.12498985 0.43482399 9474697
0.79464006 0.13449238 0.43437347 9540490
0.79252636 0.14565401 0.43332732 9409673
0.79287088 0.15461531 0.43483663 9540489
0.79495835 0.16457129 0.43551835 9606283
0.79750019 0.1751541 0.43516663 9540491
0.79731262 0.19548246 0.43521354 7170404
0.79403996 0.12480123 0.44423044 9474697
0.79425001 0.13320233 0.44496801 9474697
0.79514295 0.1451833 0.44458362 9540490
0.79440004 0.15572949 0.44455871 9540490
0.79535717 0.16470861 0.44516802 9474697
0.79700023 0.17513441 0.44469908 9606026
0.79730022 0.18504106 0.44512007 9606026
0.79500002 0.15566014 0.45035255 9540490
0.79550004 0.16507119 0.45063582 9540233
0.79640007 0.17551175 0.45114565 9606026
0.79660004 0.18487868 0.45125896 9540233
