# .PCD v0.7 - Point Cloud Data file format
VERSION 0.7
FIELDS x y z rgb
SIZE 4 4 4 4
TYPE F F F U
COUNT 1 1 1 1
WIDTH 429
HEIGHT 1
VIEWPOINT 0 0 0 1 0 0 0
POINTS 429
DATA ascii
0.8075 0.20158677 -0.22121 5721668
0.81200004 0.20366003 -0.22054183 5787462
0.81100005 0.19771352 -0.2117255 5196612
0.81520003 0.20293769 -0.21835032 5392960
0.82375014 0.20757364 -0.21505003 5721925
0.83333331 0.21161391 -0.21333557 5787460
0.81219995 0.19800606 -0.20538935 8484977
0.82600003 0.20846367 -0.20372069 6180936
0.83100003 0.21037087 -0.20819381 6115913
0.81900007 0.20541573 -0.19751823 5917764
0.82100004 0.20591734 -0.19992255 5917764
0.81144452 0.11635029 -0.18197484 12960697
0.81233341 0.12463096 -0.18221565 13026490
0.81050009 0.13339545 -0.18092121 12895674
0.80788004 0.15534502 -0.18538031 12961468
0.8084166 0.16475378 -0.1856599 13158077
0.81000006 0.16902636 -0.18207414 13158078
0.80814999 0.17620648 -0.18657616 13158078
0.81000012 0.17376693 -0.18302225 13092285
0.81050009 0.10841407 -0.17364708 12764088
0.80900002 0.1101073 -0.17995547 12960697
0.81552005 0.11481953 -0.17567594 12829625
0.81743336 0.12496762 -0.17545247 12895418
0.80900002 0.13851555 -0.17995547 13027262
0.81393105 0.13475391 -0.17520092 12961467
0.80777788 0.14600891 -0.17583035 12895676
0.81022221 0.14209642 -0.17285079 12895674
0.80864286 0.17455849 -0.17507575 13026492
0.81000006 0.17850749 -0.17259301 13026492
0.80825001 0.18527462 -0.17505771 13092026
0.81000012 0.1810358 -0.17385717 13092283
0.81000006 0.10834718 -0.16880056 12829881
0.80740005 0.11556111 -0.16164419 12829881
0.81200004 0.11495325 -0.16731879 12829881
0.80800003 0.12447301 -0.16113324 12829881
0.81237507 0.12530336 -0.16597083 12829881
0.80828577 0.13542049 -0.16141558 12895674
0.81221056 0.13465957 -0.1668634 12895674
0.80791664 0.14581664 -0.16395476 12895674
0.81016666 0.14187609 -0.16757114 12895674
0.80746418 0.15546712 -0.16509689 12895674
0.80784208 0.16379951 -0.16625838 12895674
0.81024998 0.16694528 -0.16245086 12895674
0.80900002 0.17165852 -0.16859217 12895161
0.81065238 0.17510293 -0.16480914 12960953
0.80833328 0.18642963 -0.16484852 12960696
0.81022221 0.18129598 -0.16463123 13026490
0.8080833 0.19400656 -0.16666625 11511965
0.81161553 0.19654897 -0.16299528 9931906
0.80800003 0.201711 -0.16838378 5918789
0.81455553 0.20239358 -0.16359901 5984325
0.82000005 0.20566653 -0.16128634 6050374
0.80841666 0.16364968 -0.15348925 12960698
0.81038475 0.16648091 -0.15720659 12960697
0.80900002 0.17165852 -0.15154721 12960699
0.81078279 0.17513086 -0.15600897 12960698
0.80900002 0.18680957 -0.1581758 12960695
0.81020838 0.18447958 -0.15532997 12960696
0.81366664 0.19495706 -0.15472224 11775138
0.81825 0.20211551 -0.1551961 5917764
0.82014292 0.2051539 -0.15555488 5853252
0.80804986 0.18517113 -0.14446631 12894905
0.81 0.18632941 -0.14912723 12894904
0.80850005 0.19363427 -0.14072856 10854293
0.81164294 0.19529395 -0.14580165 10985109
0.81633335 0.2015631 -0.14846286 6444106
0.80818743 0.19395411 -0.13543145 10393999
0.81 0.19774064 -0.13304318 7498080
0.81040001 0.20136157 -0.13473456 5524032
0.80783999 0.18559782 -0.12485328 12829370
0.80900002 0.19192307 -0.12616917 13289920
0.81008339 0.19527799 -0.12520067 10656917
0.81000006 0.20126218 -0.12897985 5589569
0.81000006 0.13773867 -0.1100176 12894904
0.81016666 0.14282459 -0.11067232 12763318
0.8085556 0.19270165 -0.11423865 11578022
0.81059998 0.1966693 -0.11674032 8945785
0.80824995 0.131923 -0.1056804 12763318
0.81050009 0.13663869 -0.10427481 12829111
0.80833334 0.14865078 -0.10490357 12763318
0.81090009 0.14367977 -0.10453977 12829111
0.81000006 0.13773867 -0.098640248 12763318
0.81000012 0.14247923 -0.098640241 12829111
0.59435719 -0.042441588 -0.012552955 16315627
0.60049999 -0.040573142 -0.017599965 14867925
0.58724999 -0.031429321 -0.011712877 16447213
0.5943948 -0.034670949 -0.015230582 16579056
0.60000002 -0.037730139 -0.018755235 15854564
0.57775003 -0.021114949 -0.011185134 16447213
0.58403027 -0.024384206 -0.014198966 16447213
0.59125006 -0.027492486 -0.017675338 16513519
0.57728571 -0.013907204 -0.013852786 16250091
0.58122224 -0.01735012 -0.016808482 16381677
0.57686484 -0.0058364556 -0.013937006 16118250
0.58136362 -0.0030271797 -0.017843736 16119275
0.57679993 0.0047245719 -0.012289324 15855591
0.58219999 0.0048223971 -0.016656226 15921383
0.57706672 0.015227495 -0.011645463 15395040
0.58237034 0.015084713 -0.015783951 15460832
0.57725 0.022654025 -0.011344301 14672087
0.58218187 0.024720956 -0.013967155 14737366
0.58366674 0.030249292 -0.012324502 12236976
0.5776667 -0.051201347 -0.0013791908 15327964
0.57667738 -0.045195345 -0.0021183039 15986663
0.58360004 -0.044621166 -0.0067711356 16118248
0.59033334 -0.044031393 -0.0097005209 16381420
0.56745452 -0.032425936 -0.00099331315 16381420
0.57421434 -0.03514548 -0.0038268201 16381420
0.58394116 -0.036079008 -0.0082320469 16447213
0.59100002 -0.039931271 -0.0097114751 16447213
0.55800003 -0.02202771 -2.5194522e-05 16249834
0.56475008 -0.025080999 -0.0026310526 16315883
0.57469565 -0.025202187 -0.0076931897 16381676
0.58100003 -0.0290558 -0.0095471535 16447726
0.55692858 -0.014255153 -0.00058565271 15986662
0.56470597 -0.015254648 -0.0044670287 16184041
0.57280004 -0.014927602 -0.0086988658 16118249
0.55607146 -0.0050286427 -0.00067791698 15920870
0.56471437 -0.0051057055 -0.0053250273 15986663
0.57200003 -0.0051709674 -0.0093992623 15920871
0.55593753 0.0047370167 -0.00067751377 15789285
0.56459993 0.004808268 -0.005324035 15789542
0.57200003 0.0048719998 -0.0093992623 15789798
0.55631584 0.015124518 -0.000987523 15329247
0.56430316 0.014872393 -0.0053600208 15329504
0.57249999 0.015429274 -0.0092406804 15329504
0.55840003 0.022666356 -0.00028693836 14210765
0.56444448 0.022938309 -0.0039257514 14539987
0.57460004 0.024316557 -0.0083691766 14606293
0.58200002 0.030617854 -0.0091102077 13947594
0.5726667 -0.051202968 0.0044306614 15459550
0.55733335 -0.040701445 0.0086717168 16052455
0.56457698 -0.044297092 0.0065738382 15986662
0.57300007 -0.045928348 0.0024860406 15986662
0.54700005 -0.031581536 0.0084259091 16381420
0.55440915 -0.034510579 0.0065772771 16315627
0.56359094 -0.036465332 0.0030278794 16315884
0.54581487 -0.024196407 0.0073072501 16118248
0.55292594 -0.025327763 0.003182489 16184298
0.56 -0.029315431 0.0012856852 16250347
0.53900003 -0.011181686 0.0088083241 15920869
0.54524994 -0.014714211 0.0062429365 15921126
0.55194128 -0.014945982 0.0020258108 15921125
0.53862506 -0.0055019129 0.008802196 15855076
0.54444826 -0.0050993292 0.0057705673 15855333
0.55164284 -0.004988608 0.0019109471 15855333
0.53837502 0.0045877942 0.0087981103 15723490
0.54431254 0.0046384395 0.0057031633 15723746
0.55156255 0.0047001913 0.0019106792 15723746
0.53900003 0.012477227 0.0088083241 15329245
0.54470587 0.014876381 0.0061937696 15131867
0.55200011 0.015470851 0.002127382 15197660
0.54359996 0.021046257 0.0076062381 13816006
0.55436367 0.023071747 0.0024475104 14079178
0.53436369 -0.042356398 0.018734237 15920868
0.54457897 -0.043235436 0.014931186 15855076
0.55280006 -0.044856824 0.011618327 15789284
0.52720004 -0.032167584 0.019475939 16118248
0.53481257 -0.034959227 0.017142683 16184041
0.54436672 -0.035255603 0.012332016 16249834
0.55150002 -0.03919962 0.010303671 15986662
0.51900005 -0.021094183 0.019416381 15986662
0.52461541 -0.024583541 0.017826935 16052455
0.53438711 -0.025288571 0.01372807 16118248
0.54140007 -0.025937516 0.010494686 16118248
0.51812506 -0.014994944 0.019383643 15855076
0.52412498 -0.015166966 0.0165345 15855333
0.53422582 -0.015319887 0.011910312 15920869
0.51800007 -0.0052891225 0.019378968 15723490
0.52437502 -0.0053551667 0.016542025 15723747
0.53371871 -0.0054500238 0.011839376 15855076
0.51800007 0.0050183791 0.019378968 15526367
0.52370012 0.004541487 0.016600935 15460575
0.53390628 0.0045492561 0.011843463 15657697
0.51850003 0.011699807 0.019397674 15066075
0.5250625 0.012768998 0.017178679 15065818
0.53528577 0.015123351 0.012795635 14802645
0.53710002 0.020669824 0.013420684 12763319
0.54000002 0.021665461 0.010088816 11710630
0.52576005 -0.044338718 0.02554369 15657184
0.53050005 -0.042674057 0.021088516 15789283
0.50849998 -0.031381674 0.02973723 15723488
0.51544118 -0.034048527 0.027011974 16051940
0.52392858 -0.0356232 0.022969987 16117991
0.53000003 -0.038911618 0.021068642 16118248
0.50657892 -0.024367437 0.028623795 15591645
0.51449996 -0.025033593 0.024169793 15986148
0.52099997 -0.027885219 0.020710872 15986664
0.49899998 -0.011520044 0.029181669 15789281
0.50451344 -0.015032252 0.027230907 15722717
0.51348579 -0.015118578 0.022465568 15854819
0.49838468 -0.0048641888 0.028696386 15526111
0.50381482 -0.00525366 0.026182087 15526110
0.51303232 -0.0053721387 0.022131022 15657697
0.49900001 0.0019138874 0.029181669 15526111
0.50465792 0.0049227583 0.027081273 15197403
0.51325637 0.0052491436 0.022429708 15328989
0.5064286 0.011850738 0.028767642 14144714
0.51406062 0.013625098 0.023633488 13882057
0.50800002 -0.041458748 0.036843415 15525341
0.51608336 -0.042223793 0.033497933 15262168
0.52255559 -0.046047114 0.032188036 15393754
0.48800001 -0.031067988 0.039580967 15788511
0.49485192 -0.033562247 0.037083134 15854304
0.50432009 -0.034640834 0.033453319 15920098
0.51307696 -0.03827152 0.03184817 15722718
0.48661536 -0.0242058 0.038664076 15722719
0.49400002 -0.025308646 0.034770682 15788768
0.50246149 -0.026169373 0.031101687 15855074
0.48534104 -0.014510969 0.037388757 15656927
0.49420464 -0.014987423 0.032442071 15723232
0.5 -0.019736692 0.030410657 15855074
0.48452383 -0.0051631844 0.037373763 15459804
0.49305123 -0.0049314057 0.032230474 15591647
0.48437503 0.0033469012 0.037602905 14736337
0.49456519 0.0048205559 0.032966185 14868438
0.50050002 0.0086576762 0.030733695 14737107
0.49850002 0.011247365 0.035569157 12368561
0.50400007 0.012726494 0.032084476 12763318
0.51000005 0.015686149 0.031018874 10855321
0.48754996 -0.042245872 0.046769552 15196376
0.49033335 -0.044097856 0.045764532 15130583
0.46825001 -0.031364277 0.04903255 15459548
0.47510535 -0.03321325 0.047681224 15525341
0.48498118 -0.035556722 0.044204708 15591134
0.49112499 -0.036634989 0.040505528 15722718
0.46575767 -0.024631435 0.048511244 15525341
0.47415391 -0.025148131 0.044910952 15525341
0.48191306 -0.025354583 0.041571103 15656927
0.45900005 -0.013820176 0.049407534 15459548
0.46454287 -0.015354555 0.047417343 15393755
0.47430772 -0.015019701 0.043501902 15525341
0.48072729 -0.015803216 0.040798843 15525341
0.45900002 -0.0084475391 0.049407531 15393755
0.4644652 -0.0050064875 0.047585417 15262169
0.47388387 -0.0054201367 0.043131735 15327962
0.48000002 -0.0054629617 0.040431116 15328475
0.46757144 0.001873943 0.047826458 13749187
0.4745279 0.0030557904 0.043262053 14012872
0.48000002 0.0040883915 0.04043112 14341836
0.46621427 -0.042573232 0.058911562 15064790
0.4742223 -0.043629669 0.055724077 15064790
0.48294118 -0.043141518 0.051912721 15064790
0.45705003 -0.032327611 0.057752531 15327962
0.46354172 -0.034532469 0.054524016 15327962
0.47358337 -0.037912522 0.051897328 15327962
0.48000002 -0.039173622 0.050544318 15393755
0.44754171 -0.023607003 0.058430616 15196889
0.45498466 -0.02526862 0.054648861 15262426
0.46090907 -0.026631309 0.051181722 15459548
0.44511771 -0.014831932 0.05727905 15196890
0.45378739 -0.014951183 0.052137427 15393755
0.44488463 -0.0057031242 0.05749137 14341836
0.45499998 -0.0055328258 0.052545212 14868438
0.46050003 -0.0017365253 0.050916247 14802130
0.44450003 0.0006648585 0.058251381 13092280
0.46357146 0.00092804647 0.051757038 13749441
0.45900002 -0.050354101 0.067674495 13485760
0.46400002 -0.050590258 0.063276835 13618116
0.45659611 -0.043805208 0.06601686 14538961
0.46165222 -0.04604027 0.062564634 14407374
0.43741181 -0.03263009 0.068825863 15327962
0.44515219 -0.034157928 0.065737218 15262426
0.45454839 -0.036790553 0.062957235 15327962
0.46100003 -0.038973179 0.060684122 15393755
0.42700005 -0.022604676 0.069202282 15064792
0.43493739 -0.024631148 0.066389561 15196377
0.4425455 -0.025923783 0.062204871 15065560
0.42450956 -0.014808699 0.06816785 15196378
0.43498451 -0.01475262 0.063602313 15131097
0.44050002 -0.017519124 0.06082112 15065560
0.42483339 -0.0090600532 0.068346739 14341067
0.43605718 -0.007202059 0.06407591 14276043
0.44080004 -0.0044961777 0.060862016 13486270
0.42700002 -0.040343739 0.073947519 14472912
0.43200004 -0.040817346 0.07228557 14210253
0.44500002 -0.041528318 0.07116168 14473423
0.45262504 -0.044095118 0.07097064 14210253
0.40900001 -0.030506762 0.079452068 14999769
0.41628262 -0.033662695 0.077323057 14736341
0.4237273 -0.035233084 0.07414294 14933719
0.43317646 -0.035475451 0.071436919 15130841
0.44150001 -0.038617224 0.070262104 15131353
0.40664864 -0.024545711 0.078707799 15196635
0.41410142 -0.024803167 0.075107396 15131098
0.42345729 -0.025926594 0.071661055 15196378
0.43000001 -0.028549889 0.070445225 15393757
0.40558341 -0.016405085 0.078363873 14999511
0.41491553 -0.014979281 0.073899209 15065048
0.42058337 -0.01537457 0.070789002 15196378
0.41720003 -0.0092401691 0.077718414 12104615
0.42359376 -0.005307341 0.075406365 12170664
0.49900001 0.018852323 0.079412885 12500916
0.50100005 0.01608675 0.078187108 12368560
0.50088888 0.021400483 0.078801274 12764088
0.53850007 0.024755701 0.078134082 12565939
0.54173911 0.026977183 0.07584478 12500145
0.53642863 0.031929005 0.07962624 12895417
0.54608339 0.032140952 0.076248646 12829111
0.55378574 0.035649315 0.075630188 13026490
0.56133336 0.038511313 0.075973071 13092283
0.55800003 0.040675677 0.079658374 13421248
0.56640005 0.042349886 0.078199543 13158076
0.57514292 0.045294702 0.077870905 13158076
0.58400005 0.047184229 0.076702252 13289662
0.59311116 0.047251001 0.075407587 13289662
0.6047501 0.04656034 0.073410437 13026489
0.61000001 0.046608269 0.071373507 14144971
0.57746166 0.054156877 0.079211988 13158076
0.58393341 0.055597298 0.077433243 13289662
0.59420002 0.053466551 0.075363554 13355455
0.60283333 0.052875195 0.073822141 13421247
0.61133331 0.053152625 0.072960652 13881797
0.58340007 0.061101794 0.078091554 12894905
0.39611113 -0.030575186 0.087036774 13486786
0.40491673 -0.031310271 0.08086291 14736341
0.41620001 -0.035916865 0.080653623 13748932
0.3955799 -0.024554037 0.086547434 14276044
0.40130448 -0.025542324 0.081588484 15262683
0.39505288 -0.014930313 0.085962489 13881542
0.40016672 -0.015795544 0.081014723 14998995
0.39596149 -0.0079285335 0.087115444 12895419
0.417 -0.0080598937 0.081004739 11841955
0.42254546 -0.0042595612 0.081547521 12236714
0.43545842 0.0039691054 0.087904088 13027005
0.445375 0.0074431202 0.087292552 12961468
0.45222223 0.0090876119 0.085726909 12895676
0.44800004 0.011333622 0.088775367 12895676
0.45520005 0.012725972 0.087462351 12961469
0.46240002 0.01400533 0.085491821 13027262
0.47633338 0.016510205 0.086582899 13027262
0.48400003 0.017961891 0.08673393 12961468
0.49669999 0.01736667 0.083688401 12697525
0.50042856 0.014052026 0.081313729 12368301
0.47800002 0.021415958 0.088379934 13027262
0.48457146 0.021384308 0.087642558 13027519
0.49618179 0.023566006 0.084903128 12961469
0.50318182 0.026670653 0.083875105 13027262
0.51540005 0.028158033 0.082259759 13027261
0.52100003 0.028832186 0.081694394 13027261
0.5355556 0.026495364 0.080631167 12632245
0.50600004 0.031258475 0.087333411 13027262
0.51316661 0.035689697 0.085414745 12895676
0.52355552 0.033258576 0.081685171 13093055
0.53062499 0.034334648 0.080719218 13158846
0.546 0.038522735 0.080501683 13289662
0.55200005 0.038946062 0.080094077 13355455
0.5117501 0.041644216 0.088023178 11974573
0.54300004 0.040853418 0.081330538 13421248
0.55500001 0.042503037 0.082386456 13289662
0.56450003 0.047100753 0.083003007 13355455
0.57200003 0.048660271 0.080851659 13355455
0.56840003 0.052345503 0.085400186 13158076
0.57274193 0.055895481 0.083012775 12960696
0.57433337 0.060689643 0.081988513 13026490
0.39262706 -0.032294426 0.095647223 11380897
0.3884728 -0.024561513 0.096429028 2632487
0.39143869 -0.025919285 0.092547685 4078905
0.38835198 -0.016102353 0.095255204 2829607
0.39126089 -0.01406757 0.092091605 4933956
0.39355549 -0.007045595 0.094216473 13355711
0.43533334 0.0072779967 0.090340517 12961469
0.44500002 0.012127815 0.090605393 12698297
0.50800002 0.034257576 0.092340358 12171953
0.51064295 0.037650961 0.092366718 12171953
0.51050007 0.041992914 0.091700964 11382436
0.39383337 -0.041208565 0.10823693 14078665
0.3881667 -0.031906802 0.10618313 10855068
0.39199999 -0.035832066 0.10465109 13420222
0.38329041 -0.026006326 0.10592802 2370597
0.38110414 -0.015633704 0.10795207 2632999
0.38866672 -0.009275632 0.10856121 13290175
0.3915 -0.0065922979 0.10919901 11974058
0.39336586 -0.043395769 0.11581828 14077895
0.3864024 -0.033387568 0.11569548 9802379
0.39079493 -0.037853189 0.1135389 13485758
0.37813067 -0.023404421 0.11559534 2173219
0.38090479 -0.027437871 0.11331331 2436134
0.37790245 -0.015526972 0.11509978 2568492
0.3804445 -0.011454661 0.11239929 7700343
0.38500005 -0.0085448129 0.11402692 12961724
0.39128572 -0.0066108727 0.11121029 11974057
0.39569569 -0.051867671 0.12700811 14012872
0.38846877 -0.042020533 0.12675788 13814723
0.39238635 -0.046154264 0.12428964 14012102
0.37866667 -0.030903634 0.12694308 2959137
0.38501683 -0.035598163 0.12481222 11511967
0.37496734 -0.024792517 0.12504008 1975325
0.38000003 -0.029233279 0.12052186 2239012
0.37419075 -0.015589068 0.12512267 2502698
0.39523083 -0.052363548 0.13250414 13815493
0.38732067 -0.043059833 0.13354073 12631220
0.39172733 -0.048103724 0.13211736 13618114
0.36757144 -0.030489078 0.13679852 2238752
0.37605268 -0.031620916 0.13336796 5065027
0.38370782 -0.036656592 0.13383554 11973033
0.36720401 -0.024854967 0.13660683 2173216
0.37120011 -0.02540466 0.13192095 1843740
0.36733332 -0.015901187 0.13696349 2830635
0.37106258 -0.015283925 0.13230239 3422514
0.36783335 -0.030879831 0.14249794 1843480
0.37187499 -0.031110771 0.14787117 1251348
0.36677051 -0.023986585 0.14438114 1515029
0.37207687 -0.02762018 0.14705811 1317394
0.36545536 -0.015533041 0.14513533 2303260
0.36441267 -0.032161403 0.15559892 2566178
0.36483291 -0.025274107 0.15472963 856844
0.36426646 -0.015609359 0.15492669 2038033
0.36178336 -0.032420311 0.16380706 2106140
0.36201176 -0.024830654 0.16487341 1317650
0.36293742 -0.016311241 0.16456915 1710609
0.34506941 -0.033072453 0.17764723 1777946
0.35513166 -0.032087211 0.17508379 1054481
0.36127278 -0.032561321 0.17228316 1581080
0.34490079 -0.02506924 0.17767122 1580566
0.35495847 -0.024880014 0.17472884 1054479
0.36025575 -0.025225803 0.17148094 1975580
0.34578693 -0.016804535 0.17843354 1580568
0.35414627 -0.01693823 0.17555207 1120530
0.36065006 -0.017359344 0.17183772 1448980
0.33858532 -0.033084422 0.18808903 1777946
0.34115726 -0.03337137 0.18330021 1778202
0.33849284 -0.024847984 0.18821111 1712410
0.34098363 -0.025114601 0.18329608 1711895
0.33781028 -0.016865864 0.18699649 1645590
0.34140837 -0.01695461 0.18277988 1580054
0.33750004 -0.032364346 0.1907129 1580823
0.3378275 -0.025365211 0.19085439 1646617
0.33700001 -0.018036069 0.1903782 1712155
