# .PCD v0.7 - Point Cloud Data file format
VERSION 0.7
FIELDS x y z rgb
SIZE 4 4 4 4
TYPE F F F U
COUNT 1 1 1 1
WIDTH 408
HEIGHT 1
VIEWPOINT 0 0 0 1 0 0 0
POINTS 408
DATA ascii
0.81000006 0.15954524 -0.18112603 13093053
0.81000006 0.16295844 -0.1809364 12961467
0.81000006 0.16238958 -0.17828169 13026490
0.81066674 0.19700019 -0.16198042 8156010
0.81520003 0.20179152 -0.16224501 5984841
0.82050002 0.20579194 -0.16234452 6050634
0.81100005 0.19613217 -0.1563534 11905697
0.81688899 0.20212616 -0.15451571 5983814
0.82100004 0.20591734 -0.15667808 5853255
0.81000006 0.16599241 -0.14073645 12829625
0.81200004 0.19985822 -0.14830738 6705997
0.81225002 0.20182124 -0.14550638 5984584
0.81000012 0.15954524 -0.13277231 12566709
0.81054181 0.16550234 -0.13460037 12764088
0.81033331 0.19723535 -0.13219447 7958631
0.8120001 0.20137846 -0.13423693 5589825
0.81000012 0.16523392 -0.12897985 12698295
0.81105268 0.19503035 -0.12514889 10328206
0.81363654 0.20112738 -0.1247085 5524032
0.81108332 0.14472695 -0.11158768 12698295
0.81000006 0.15101224 -0.11096571 12698295
0.81113338 0.19470939 -0.11574315 10854553
0.81544447 0.20176727 -0.11499692 5590083
0.81175995 0.14468889 -0.10455946 12698295
0.81077778 0.15168358 -0.10611698 12566709
0.81059998 0.19534054 -0.10744298 8683899
0.58850002 -0.045961373 -0.011048084 16052455
0.592875 -0.041876487 -0.013739281 16315627
0.58780003 -0.032837149 -0.011310248 16578799
0.59342498 -0.034713063 -0.015591991 16513263
0.57900006 -0.020144194 -0.010869739 16447213
0.58531243 -0.023833929 -0.013820512 16381677
0.59182358 -0.026542312 -0.017712975 16447982
0.57775003 -0.013677143 -0.011523607 16118248
0.58254296 -0.014972673 -0.015965357 16381676
0.57761919 -0.0052219876 -0.01219837 16052455
0.58100015 -0.0052517438 -0.017029719 16250090
0.57705271 0.0050919666 -0.011830451 15855076
0.5821352 0.0048685763 -0.016604109 15986918
0.57659996 0.015169522 -0.0121099 15394784
0.58282608 0.014901169 -0.016401432 15526625
0.57700008 0.022380088 -0.011412096 14934489
0.58206254 0.023522345 -0.014166174 15000282
0.5776667 -0.051201347 -0.0013791908 15328732
0.57674283 -0.044872489 -0.0025365485 16052456
0.5835883 -0.04481291 -0.007906355 16118249
0.5675 -0.032766469 -0.00069094077 16315627
0.57443339 -0.035225179 -0.0038435909 16447213
0.58352947 -0.035812944 -0.0085468255 16447213
0.55866671 -0.022053247 -2.5224619e-05 16118248
0.56485188 -0.024796041 -0.0025305662 16315627
0.57472003 -0.0251061 -0.0074047446 16447213
0.58133334 -0.028393185 -0.0095526306 16513006
0.55662507 -0.014807189 -2.5132442e-05 15986662
0.56368756 -0.014993938 -0.0033326503 16184041
0.5735001 -0.014827181 -0.0080247289 16184041
0.55663639 -0.0043193442 -0.00050099805 15920869
0.564125 -0.0054275184 -0.0036643883 16052455
0.57271433 -0.005178317 -0.0080743926 15986662
0.55605882 0.0054650358 -0.00087035197 15789283
0.56487507 0.0048097763 -0.0049929991 15855076
0.57271433 0.0042995177 -0.0088377846 15855076
0.55575007 0.015142438 -0.0013296254 15328990
0.56366688 0.015046095 -0.0058837682 15394527
0.57085717 0.014882491 -0.0093804821 15460576
0.55714291 0.022727817 -0.00058499357 14276559
0.56388235 0.022775678 -0.0046170228 14605267
0.57462502 0.024240971 -0.0089381998 14737109
0.58100003 0.028750958 -0.0095471526 13947592
0.56800002 -0.051674243 0.0066228448 15196378
0.55700004 -0.042294677 0.0087292548 16118248
0.56436366 -0.043898985 0.005611157 15986662
0.57250005 -0.045608968 0.0022057265 15986406
0.54780006 -0.03214078 0.0086955586 16315627
0.55424005 -0.034594238 0.0063527506 16315627
0.56324995 -0.036083896 0.0026078627 16315627
0.54649997 -0.024230612 0.0074023837 16118248
0.55342859 -0.025318179 0.0032552797 16249834
0.56 -0.028659945 0.0012856852 16249834
0.53866673 -0.01243658 0.0088028768 15920869
0.54492599 -0.015037503 0.0066791181 15920869
0.55191678 -0.01468113 0.0025570279 15986662
0.53800005 -0.0054933368 0.0087919822 15855076
0.54430765 -0.0048219413 0.0059972424 15920869
0.55176479 -0.0054437094 0.0022527594 15920869
0.53833342 0.0045852447 0.0083768265 15723490
0.54425007 0.004590366 0.0053386162 15723490
0.55140007 0.0046532308 0.0018669585 15789283
0.53850007 0.014673819 0.0088001527 14999767
0.54422218 0.014686109 0.0053461771 15131867
0.5516364 0.015323796 0.001617849 15197404
0.53900003 0.020994436 0.0088083241 13289151
0.54275 0.021140793 0.0069616772 13815495
0.55257142 0.022541063 0.0021909913 13947851
0.52900004 -0.048126191 0.019790491 15459037
0.53492314 -0.042787291 0.018658074 15920356
0.54481256 -0.042788666 0.015035318 16051685
0.55284214 -0.04518985 0.011959448 15854562
0.52628571 -0.032571673 0.019336456 16184041
0.53463334 -0.034994923 0.016989132 16249578
0.54451728 -0.035122778 0.012365856 16249834
0.551 -0.039378483 0.010723515 16184041
0.51762503 -0.022402672 0.018909903 15920869
0.52425009 -0.025541937 0.017521091 16118248
0.53451997 -0.025251627 0.013883386 16052455
0.54242861 -0.025588704 0.010767936 16118248
0.51712507 -0.014964688 0.018739911 15855076
0.52456522 -0.014298187 0.015560269 15855076
0.53421432 -0.015642541 0.011716837 15920869
0.51743758 -0.005282721 0.018751455 15723490
0.52443749 -0.0053555858 0.015317452 15789283
0.53286952 -0.0055758143 0.011144427 15855076
0.51800007 0.0044890163 0.018847706 15460573
0.52432263 0.0046418626 0.015808174 15526111
0.53300005 0.0048966561 0.011557286 15657697
0.51800001 0.011081615 0.019378968 15000280
0.52473336 0.012782128 0.017412055 14934487
0.53455818 0.015047326 0.012829687 14802645
0.53645462 0.020837722 0.013778207 12434353
0.51900005 -0.041141491 0.029136289 15854304
0.52517551 -0.044824995 0.025226183 15591390
0.53000003 -0.041393101 0.021068642 15855076
0.509 -0.030816156 0.02976647 15855074
0.51551354 -0.033726025 0.026518047 15920869
0.52373081 -0.036475573 0.022936966 15986662
0.50666672 -0.024054885 0.028144449 15723230
0.51321566 -0.025395837 0.023643328 15986404
0.49857146 -0.012177675 0.028822845 15920864
0.50445229 -0.015189829 0.026372643 15657438
0.5115 -0.015078937 0.021712266 15789282
0.49800009 -0.0050843237 0.02853954 15657440
0.504125 -0.0051455488 0.025343774 15525853
0.51241672 -0.005230065 0.021566315 15723490
0.49850002 0.0021072498 0.028957734 15394524
0.5044167 0.005054167 0.026967013 15197144
0.51294863 0.0052477834 0.022416698 15394524
0.50585717 0.011667953 0.028565003 14144971
0.51422584 0.013333813 0.023925396 14079178
0.52100003 0.017244147 0.023147872 12763318
0.53200001 0.02134449 0.021148145 11185056
0.51657903 -0.042543188 0.033575587 15393755
0.52200007 -0.04565829 0.031136552 15393755
0.48757145 -0.032454789 0.039600722 15657695
0.4945769 -0.033948697 0.037286751 15657697
0.50481814 -0.033787198 0.033438332 15855076
0.51311111 -0.037742153 0.032004692 15657440
0.48593751 -0.024411501 0.038261533 15657695
0.49417648 -0.025291819 0.034504469 15657696
0.50228578 -0.026047172 0.031136436 15855074
0.48521739 -0.014584418 0.037157983 15526109
0.49397558 -0.015017326 0.032236807 15657695
0.5 -0.019736692 0.030410657 15855074
0.48471999 -0.0051523726 0.036936611 15394524
0.49262509 -0.00503032 0.031688381 15591903
0.48443756 0.0029204905 0.037393302 14868179
0.49446666 0.0050558606 0.032691896 14933973
0.50150001 0.0089681856 0.030501891 14736593
0.49833336 0.011049884 0.035168853 13026234
0.50274998 0.012523229 0.031947803 12828855
0.48672727 -0.042055156 0.046531618 15262168
0.49122226 -0.044817045 0.045975443 14998997
0.46900001 -0.031139297 0.04938601 15525341
0.47544447 -0.03330135 0.047833234 15459291
0.48420003 -0.035686605 0.044061646 15525340
0.49000001 -0.038269091 0.040126331 15526109
0.46632358 -0.023996897 0.048296317 15459805
0.47427911 -0.02530467 0.044458266 15525596
0.48131248 -0.025832318 0.041174628 15591389
0.45900002 -0.012745649 0.049407531 15197146
0.46483719 -0.015109658 0.047141213 15262939
0.47392303 -0.015634853 0.042899061 15394523
0.48012501 -0.015019251 0.040441647 15525596
0.45900002 -0.0073730117 0.049407531 15197146
0.46454546 -0.0053339968 0.047178045 15131096
0.4748697 -0.0051405448 0.042332612 15393754
0.46809092 0.0016471084 0.04799442 14012357
0.4743095 0.0029832039 0.043322641 14078150
0.46585724 -0.042538069 0.058789015 15065046
0.47411114 -0.042699408 0.054539014 15065303
0.48100004 -0.042916875 0.051775649 15196376
0.49000001 -0.046872333 0.050450221 14867411
0.45677784 -0.032766495 0.058432117 15262426
0.46460003 -0.034419537 0.054807033 15262426
0.47277778 -0.037725702 0.051930659 15196633
0.44662973 -0.023523973 0.058488898 15196633
0.45512956 -0.025167992 0.055096906 15196889
0.46204764 -0.02622647 0.051484317 15262683
0.43900007 -0.013217988 0.059587177 15131353
0.44498518 -0.014999593 0.056685477 15262426
0.45426196 -0.015021093 0.051928356 15328219
0.43900001 -0.0091071613 0.059587177 14999767
0.44470593 -0.0056934408 0.05736969 14341837
0.45423254 -0.0054392428 0.052421466 14802388
0.4605 -0.0014673083 0.050647032 14605009
0.44400004 0.00066352601 0.058706734 12894643
0.46514288 0.0015562826 0.051308163 13289148
0.44775003 -0.040997185 0.069158033 14801618
0.45537513 -0.043809291 0.065662302 14604496
0.46108332 -0.044106618 0.061054196 14801619
0.43735299 -0.03262556 0.068816505 15197146
0.44533968 -0.034279972 0.065511115 15262426
0.45376471 -0.036631174 0.062457766 15393755
0.4605 -0.039199837 0.060349382 15393755
0.42621055 -0.022762027 0.068822704 14999767
0.43483865 -0.024602463 0.065725394 15065561
0.4430857 -0.026739795 0.062388726 15196378
0.42441291 -0.015129157 0.067846872 15065562
0.43386143 -0.01496789 0.062767625 15131098
0.42454547 -0.0092584761 0.06818448 14472910
0.43518755 -0.0074297413 0.063387036 14473167
0.44076926 -0.002950612 0.061492149 12696752
0.44300002 0.00014349609 0.060130116 12763057
0.42700002 -0.04084589 0.073952205 14012874
0.43187502 -0.040806852 0.072264701 14341838
0.44480005 -0.041928228 0.071198836 14473167
0.45200005 -0.044722009 0.070873573 14012361
0.40900001 -0.030506762 0.079452068 15064792
0.41638893 -0.032957889 0.077414803 14868183
0.42368001 -0.035329603 0.074575707 14867669
0.43300012 -0.035536483 0.071389362 15065560
0.44033337 -0.038685489 0.070419788 14999254
0.40606987 -0.024101704 0.078522712 15196378
0.41427705 -0.025064817 0.07503476 15130841
0.42297307 -0.025908966 0.071563095 15130840
0.43000001 -0.029053207 0.070445225 15262939
0.4050352 -0.016353594 0.077704296 15130841
0.41478452 -0.014997123 0.073168889 15065303
0.42000005 -0.014448497 0.070773423 15065303
0.41800007 -0.0093234852 0.073207781 12697011
0.42365387 -0.0059558097 0.075864881 12104871
0.5054546 0.016622359 0.078502573 12303022
0.50666672 0.0207245 0.079050459 12566195
0.51050007 0.022273935 0.079449832 12632502
0.536125 0.025039371 0.079040021 12369329
0.54322726 0.027232705 0.07621488 12500401
0.5165 0.034627091 0.07977964 13158848
0.53550005 0.030260224 0.079577461 12829883
0.54624999 0.031507954 0.077336617 12697782
0.55483335 0.036039513 0.076173447 12960697
0.56 0.039510496 0.073389038 13289662
0.55900002 0.041010298 0.078230783 13026491
0.56235713 0.04485831 0.077929161 13223870
0.58400005 0.045305271 0.076534286 13158076
0.59000003 0.049914334 0.077320598 13289662
0.60600001 0.047175936 0.074077755 13289660
0.5675 0.052660085 0.079353027 13223869
0.5735001 0.054562151 0.078960828 13355455
0.58399999 0.054197624 0.078586191 13223869
0.59750003 0.053344011 0.077602938 13289661
0.60386205 0.054352634 0.07440313 13289661
0.59400004 0.062767819 0.079235367 13750213
0.39550003 -0.030540982 0.087354504 13486017
0.40441668 -0.031111643 0.081155948 14802390
0.41525003 -0.034867808 0.080421552 14078154
0.39553863 -0.024528522 0.086280555 14473166
0.40123677 -0.025925808 0.081500255 15262682
0.39539671 -0.014783354 0.085413456 13947079
0.40000004 -0.017076913 0.080629997 15262170
0.39597291 -0.0075872252 0.086291097 12960697
0.42638466 -0.0031616411 0.081447825 12170922
0.4456667 0.0091877123 0.087962359 13224127
0.44820005 0.01105807 0.088744141 12895419
0.45500001 0.013466214 0.088917851 13026492
0.46533334 0.016007487 0.088818021 12960699
0.47453848 0.016641682 0.087990411 12961212
0.48413333 0.016932398 0.086636856 12961468
0.49547067 0.017830221 0.084506966 12698039
0.50243479 0.015655911 0.08159335 12368559
0.4765 0.021163424 0.089029253 12961468
0.48519999 0.022951502 0.08804033 13093054
0.49540618 0.024407199 0.085755378 13027261
0.50339288 0.024877684 0.082804576 12961212
0.51436371 0.027096618 0.081525497 12961468
0.52587497 0.026937833 0.080454022 12698296
0.53500003 0.025222188 0.080132298 12369330
0.50709087 0.033191767 0.087495416 12829883
0.51297671 0.034400176 0.083525769 13027262
0.52499998 0.030895917 0.080474533 13158848
0.5546667 0.037408877 0.080481 12961212
0.55866671 0.042032901 0.081497602 13289664
0.56130004 0.047094177 0.081837244 13289663
0.56645954 0.054380778 0.084236264 12894905
0.57066673 0.057185519 0.083244242 12697526
0.56900001 0.060126074 0.08589083 13026490
0.57190001 0.062442053 0.087535277 11776936
0.58500004 0.061823811 0.080773823 12829111
0.59300005 0.064050376 0.080490202 12171181
0.39266661 -0.032323655 0.095624819 11446948
0.38886952 -0.02544233 0.096438892 2567463
0.39153847 -0.025680549 0.092710115 3881782
0.38899997 -0.016933618 0.094265699 2764329
0.39134616 -0.014475245 0.092263766 4276795
0.39387998 -0.0071336911 0.093015328 13355712
0.44400004 0.0094985282 0.090408795 12895674
0.44766667 0.011675301 0.090805031 12829881
0.45360002 0.015015672 0.090447687 12763577
0.47250003 0.021725532 0.090125419 12829112
0.50514287 0.034466229 0.090692304 12500917
0.57250005 0.058151975 0.092115447 12303026
0.57535303 0.063412994 0.093388349 11447715
0.39416671 -0.041242991 0.10832802 14143690
0.38803846 -0.031809393 0.10629621 10131346
0.39218065 -0.035849251 0.10469941 13419967
0.38338462 -0.025209274 0.10532898 2435878
0.38295671 -0.015278544 0.10573129 2961708
0.38874999 -0.0094295265 0.1060054 13553603
0.39159378 -0.0067174872 0.10600775 12434353
0.39341664 -0.043439895 0.11593579 14077895
0.38634884 -0.033487272 0.11562912 9933709
0.39088902 -0.037926693 0.11339767 13617088
0.37780416 -0.023686307 0.11598605 2238755
0.38083339 -0.026775667 0.11271916 2370341
0.37800968 -0.015821656 0.11569602 2173990
0.38023338 -0.013109285 0.11270246 5398102
0.38300002 -0.0087333862 0.11672638 12764858
0.39181823 -0.0069593443 0.11138668 12500659
0.39458334 -0.051677842 0.12729748 14077895
0.38851514 -0.041988425 0.12654138 13748930
0.39214459 -0.046255823 0.12453093 14012102
0.37862498 -0.031011138 0.12739719 3155744
0.38537076 -0.035735536 0.1247564 11643554
0.37462661 -0.024826618 0.12509666 1975582
0.38000003 -0.029233279 0.12007707 2305061
0.37427357 -0.01553884 0.12520567 2436647
0.38174999 -0.0081424788 0.12130076 12368817
0.39274085 -0.05211018 0.13230759 13552834
0.38786003 -0.043007199 0.13365363 12696756
0.39120838 -0.047956038 0.13239363 13486785
0.36800003 -0.030678939 0.13749829 2107424
0.37474999 -0.031421721 0.13366656 4210746
0.38400006 -0.036686473 0.13381521 11973288
0.36830556 -0.025027333 0.13494129 2107426
0.37096617 -0.025479823 0.13201267 1843740
0.36864287 -0.01618344 0.13470332 3027757
0.37084222 -0.015368873 0.13218313 3422513
0.3682 -0.030739099 0.14082839 1843740
0.37300003 -0.030878743 0.14726852 1449241
0.36701816 -0.023242777 0.14391465 1580567
0.37224245 -0.027503083 0.14688897 1317651
0.3656823 -0.015832998 0.14511836 2106140
0.36416963 -0.032332752 0.15627392 3027242
0.37200001 -0.031228075 0.15063708 1186071
0.36508793 -0.025185855 0.15512392 856588
0.37160006 -0.027891785 0.15082392 1120272
0.36416364 -0.015507877 0.1549788 2103570
0.3619667 -0.032450214 0.16380699 1974811
0.36203605 -0.024814015 0.16491921 1252115
0.36288279 -0.016318999 0.16451065 1645073
0.34522057 -0.033221286 0.17806803 1777946
0.35440823 -0.03244102 0.17548747 923407
0.3615883 -0.032574229 0.17236513 1711895
0.34518766 -0.024981143 0.17778112 1646359
0.35514262 -0.024851477 0.17476927 1054736
0.36032492 -0.025381004 0.17145149 2106652
0.34595165 -0.016747423 0.17832965 1580567
0.35369861 -0.01723446 0.17526515 1185808
0.36063164 -0.017434167 0.17194223 1646101
0.79556006 0.12503929 0.17503487 10987677
0.79684013 0.13457103 0.17531469 11053470
0.79637039 0.15506411 0.17479056 11119006
0.79544008 0.16412635 0.17500389 11119006
0.33869052 -0.033040114 0.18789603 1843481
0.3414419 -0.033452339 0.18336526 1843482
0.33845955 -0.024819203 0.18801378 1712153
0.34106782 -0.025141563 0.18318687 1711639
0.33760002 -0.016713869 0.18671291 1645846
0.34149215 -0.016943326 0.18236502 1580053
0.79612017 0.15494739 0.18447663 11053470
0.79720002 0.16411731 0.1838868 11053470
0.33800003 -0.032445382 0.19113155 1646616
0.33782762 -0.025365207 0.19085439 1646618
0.33699998 -0.017575866 0.19044395 1974557
0.79450005 0.10565514 0.19470958 10856091
0.79700017 0.11385886 0.19522379 10856091
0.79190916 0.10845581 0.20574293 10921884
0.79535711 0.11563864 0.20497394 10856091
0.79657155 0.10574581 0.21615052 10724506
0.79576939 0.11532961 0.2147022 10790299
0.79672003 0.12522028 0.22490139 10790298
0.7950716 0.13486733 0.22498131 10856091
0.79680669 0.14527525 0.22482733 10856091
0.79590011 0.16514924 0.23472899 10921884
0.79532003 0.1752726 0.2345572 10921628
0.79700011 0.18517308 0.23445199 11052701
0.79697239 0.14485133 0.24530339 10724505
0.79653341 0.15502694 0.24516927 10790298
0.79578149 0.16454513 0.24470663 10790298
0.79624021 0.15496999 0.25533652 10790041
0.79581481 0.16461788 0.25513035 10790041
0.79703134 0.17524108 0.2549431 10855579
0.79561764 0.18454078 0.25496134 10790299
0.79375863 0.095155671 0.26491755 10066573
0.79688478 0.10458669 0.26508224 10198159
0.79474193 0.1749012 0.26505575 10724506
0.79328001 0.18410982 0.2651566 10724506
0.79723078 0.19220534 0.26455307 10855578
0.79680002 0.095390745 0.27510247 9934987
0.79692018 0.15510355 0.27606827 10263953
0.7964288 0.16512725 0.27509922 10461332
0.79544449 0.17495519 0.27514875 10592917
0.79676193 0.18474145 0.27495438 10723733
0.7961334 0.14469628 0.28512242 10197902
0.79519999 0.15476879 0.2847887 10198159
0.79560721 0.16475904 0.28473389 10329745
0.79691207 0.14505966 0.30471253 10066575
0.79583341 0.15489054 0.30457088 10132368
0.79629999 0.16430499 0.304748 10132624
0.79704171 0.15528117 0.31514844 10066575
