# .PCD v0.7 - Point Cloud Data file format
VERSION 0.7
FIELDS x y z rgb
SIZE 4 4 4 4
TYPE F F F U
COUNT 1 1 1 1
WIDTH 415
HEIGHT 1
VIEWPOINT 0 0 0 1 0 0 0
POINTS 415
DATA ascii
0.81150001 0.19783543 -0.14489475 7562846
0.81566668 0.20139511 -0.14643706 6312266
0.81000006 0.18988484 -0.13087608 12960697
0.81 0.19662696 -0.13192955 8484463
0.81000012 0.20126218 -0.13593267 5655619
0.81005573 0.18705341 -0.12540667 12763831
0.811261 0.19521847 -0.12579395 10130571
0.81333333 0.20018639 -0.12189373 5392190
0.81000006 0.18988484 -0.11949872 12764088
0.81107146 0.19434147 -0.11586133 11315106
0.81674999 0.20150666 -0.11571068 5458753
0.81000012 0.19557351 -0.10622516 5590860
0.81000006 0.18988484 -0.093899697 12632503
0.81000012 0.1938353 -0.094057709 9670794
0.59337491 -0.042518206 -0.013315728 16118248
0.58800006 -0.032158893 -0.011382828 16578799
0.59309757 -0.034961302 -0.015271831 16513005
0.57900006 -0.020144194 -0.010869739 16381420
0.58564711 -0.023966571 -0.013943726 16447213
0.59126675 -0.026571153 -0.017929398 16579312
0.57764292 -0.013336618 -0.011908085 16184041
0.58294111 -0.015509975 -0.016165577 16381677
0.57745957 -0.00544082 -0.013804226 16052455
0.5806666 -0.0045698355 -0.018378044 16250605
0.57710725 0.0045281025 -0.012573748 15855076
0.58136368 0.0050759348 -0.016854769 15855590
0.57628578 0.015025824 -0.012170551 15395038
0.58161902 0.015165787 -0.016367575 15526624
0.57669234 0.023138143 -0.011762642 14868951
0.5814445 0.023025751 -0.014848799 15263453
0.57850003 -0.051275212 -0.00070384482 15459548
0.58150005 -0.050179813 -0.0034300957 15657697
0.57757145 -0.044370737 -0.0012505421 16052455
0.583606 -0.044809297 -0.006369587 16117992
0.56711113 -0.032272436 -0.00076484733 16381420
0.57504171 -0.0350958 -0.0032842702 16446956
0.58373916 -0.035878066 -0.0079330942 16512749
0.55733341 -0.022872254 -0.00024326926 16184041
0.56428003 -0.024863772 -0.0028862956 16315627
0.57505 -0.025189314 -0.0072329054 16446956
0.58200002 -0.027518205 -0.0093368962 16447213
0.55650002 -0.014803424 -0.00067856349 16052455
0.56465644 -0.015020327 -0.0046605645 16118248
0.57413328 -0.014958697 -0.0087192152 16118248
0.5560714 -0.0050274725 -0.00067825132 15920869
0.56474996 -0.0051050084 -0.0046606315 15986662
0.57264286 -0.0051791198 -0.0087414654 15986662
0.55593753 0.0047330665 -0.00067795266 15789283
0.56461769 0.0050409157 -0.0048551518 15789540
0.57199997 0.0042966111 -0.0088268844 15855332
0.55641174 0.01504859 -0.00079338974 15263454
0.56370258 0.015159477 -0.0052781901 15329245
0.57057148 0.014875711 -0.0093757873 15395038
0.55900002 0.02177345 -2.5239671e-05 14539731
0.56400001 0.023184724 -0.0040003341 14539729
0.57371432 0.02475014 -0.0088535482 14539729
0.565 -0.050078638 0.0079105403 15262939
0.55700004 -0.041222237 0.0087759076 16118248
0.56459999 -0.044556901 0.0068394253 15986406
0.57427794 -0.045601439 0.002584436 15986149
0.54654545 -0.032509748 0.007999694 16315627
0.55420005 -0.034851242 0.0058090286 16249834
0.56391662 -0.036236748 0.0027211376 16315627
0.57100004 -0.039249487 0.0013109398 16249834
0.54551858 -0.025177648 0.0071607353 16118505
0.55287993 -0.025245862 0.0026635551 16184041
0.53757149 -0.01313322 0.0091428189 15789796
0.54591674 -0.014466919 0.0060421959 15921126
0.55200016 -0.015033874 0.0024405932 15921126
0.53700006 -0.00631809 0.0091931224 15855076
0.5441379 -0.0050961189 0.0057663023 15855076
0.55150002 -0.004987651 0.0019106193 15855076
0.53833336 0.0044800942 0.0083768265 15723490
0.54479992 0.0048049311 0.0048498013 15723490
0.55177784 0.0041990397 0.0014098705 15723490
0.53840005 0.014922811 0.0085461568 14999767
0.54422575 0.014354397 0.0054343804 15197403
0.55192864 0.015594216 0.0018199692 15197404
0.53900003 0.020363532 0.0088083241 14210764
0.5424 0.021253284 0.0073366067 13552578
0.55514282 0.023201058 0.0023821699 13750728
0.56 0.026400793 0.0012856852 12171183
0.53550011 -0.042239547 0.018355934 15920613
0.54533333 -0.042806011 0.014863861 15986149
0.55411768 -0.045608621 0.012028607 15788769
0.56033331 -0.048354041 0.010468704 15591391
0.52566665 -0.032375339 0.018980648 16184041
0.53456676 -0.035156395 0.016694089 16249577
0.54374069 -0.035374142 0.012135045 16184041
0.551 -0.03916467 0.010294329 16118248
0.51844448 -0.022892132 0.018990599 15920869
0.52420694 -0.024838006 0.016557759 15986919
0.53504163 -0.025343783 0.01259822 16052968
0.54150003 -0.027504014 0.010538612 16184298
0.51800013 -0.014990303 0.018771473 15855076
0.52489293 -0.015057213 0.015155964 15855333
0.53327268 -0.015779704 0.011320599 15855589
0.51770008 -0.0052857087 0.019124746 15657697
0.52466679 -0.005562033 0.015935222 15723746
0.53227276 -0.0046371017 0.011639557 15789539
0.51800007 0.0047330512 0.01880721 15394525
0.52428001 0.0051253843 0.015976904 15460575
0.53265637 0.0045361216 0.011815867 15526624
0.51850003 0.011699807 0.019397674 15131867
0.52494448 0.013211591 0.017106827 14802902
0.53425646 0.015025613 0.012507347 14802388
0.53750008 0.020810883 0.012679733 12565683
0.52524078 -0.04457574 0.025378939 15591904
0.53000003 -0.042633839 0.021068642 15723492
0.51572502 -0.033702679 0.026468202 15986405
0.52352184 -0.036494635 0.022938799 15986406
0.53000003 -0.039531991 0.021068642 15723492
0.50715005 -0.024059061 0.028469164 15789025
0.51367277 -0.025349641 0.023907332 15920612
0.49866673 -0.012291518 0.028967483 15789026
0.50465852 -0.015081182 0.026566152 15722975
0.51232141 -0.015168554 0.02190393 15789283
0.49670595 -0.0048289187 0.028839292 15526111
0.50459385 -0.0051508094 0.02536658 15525854
0.513125 -0.0052380287 0.021595353 15657440
0.49850005 0.0019131403 0.029152429 15526111
0.50469047 0.0045813145 0.026693078 15197146
0.51279414 0.0055693793 0.022145113 15328732
0.50700003 0.011558898 0.028935501 14078409
0.51375675 0.013591776 0.024636015 13749957
0.50566667 -0.041269105 0.037069038 15394268
0.51581824 -0.042757828 0.033504881 15197146
0.52116674 -0.045585603 0.030884149 15526111
0.48730001 -0.032469861 0.039220013 15657697
0.49438459 -0.034112189 0.036871489 15657697
0.50547367 -0.034277696 0.0334801 15789283
0.51288897 -0.037459616 0.031790886 15722977
0.48544738 -0.024338983 0.037833691 15591903
0.49395457 -0.026064187 0.034396514 15657697
0.5029375 -0.026036886 0.031323086 15789283
0.48480439 -0.014571065 0.037126247 15526110
0.49397498 -0.014934937 0.032291938 15591904
0.50050002 -0.019171175 0.030441068 15723490
0.4846603 -0.0051722708 0.036701176 15394525
0.49200004 -0.0048891278 0.031648159 15591904
0.48440006 0.0028035052 0.037390247 14868181
0.49455318 0.0051167277 0.032978803 14802645
0.50099999 0.009154913 0.030861648 14473679
0.49800003 0.010653754 0.035535239 13618629
0.50493336 0.012620739 0.03267904 13092027
0.51200008 0.016348915 0.033738654 10987677
0.48709098 -0.042450354 0.046828378 15262168
0.49093747 -0.044377085 0.043433275 15130583
0.46900001 -0.030590329 0.04938601 15459546
0.47550005 -0.032477718 0.047908388 15525339
0.48404697 -0.035703845 0.044339214 15525340
0.49000001 -0.038269091 0.040126331 15591391
0.46562165 -0.023949705 0.048051395 15525339
0.47421429 -0.025193544 0.044110849 15525340
0.4809286 -0.026305079 0.04115228 15591646
0.46457401 -0.015075929 0.047276869 15393754
0.47423822 -0.015282165 0.042261768 15394267
0.46470013 -0.0054163681 0.047399387 15196631
0.47465217 -0.0053064213 0.042266052 15197145
0.46621057 0.0018744967 0.047879387 13486527
0.4743714 0.0028843556 0.042643432 14210249
0.4647648 -0.043049913 0.058793377 14933717
0.47466671 -0.042712238 0.055340912 15130582
0.48152941 -0.043146249 0.052227717 15064788
0.44900003 -0.030336956 0.059893403 15262169
0.45666671 -0.033309516 0.058239128 15262169
0.46435711 -0.034272749 0.054789893 15327961
0.47408342 -0.036845442 0.052136082 15327960
0.48000002 -0.039173622 0.050544318 15196374
0.44758633 -0.023922054 0.058257025 15262169
0.45496494 -0.025209798 0.054493427 15327962
0.46157143 -0.026406994 0.051149629 15393753
0.44498548 -0.014897037 0.057216242 15262426
0.45419577 -0.014854223 0.052116342 15393755
0.44547063 -0.0055574598 0.057592478 14276044
0.45482004 -0.0051738094 0.052674603 14802132
0.46000001 -0.0014662996 0.050592039 14802130
0.44400004 0.00014382001 0.059226438 12697264
0.45900002 0.00014867878 0.051556583 13881284
0.46133336 0.0012309849 0.050738681 13618114
0.458 -0.050244398 0.065917596 13617859
0.46200001 -0.050683212 0.062709056 13683907
0.45676661 -0.04417887 0.065358587 14538703
0.46138459 -0.045468707 0.061045881 14538960
0.43736848 -0.032841913 0.068739526 15196889
0.44503915 -0.034158457 0.065156959 15327962
0.45375866 -0.037037022 0.06246144 15327962
0.46000001 -0.039695121 0.060283855 15393755
0.42678574 -0.022486357 0.068917029 15065303
0.43496776 -0.024857404 0.066287659 15196376
0.44269764 -0.025840431 0.062132571 15196376
0.42457145 -0.01500217 0.068143986 15131096
0.43480295 -0.014677803 0.063198745 15131096
0.44100004 -0.018700005 0.060631767 15196376
0.42540002 -0.0088222167 0.068589941 14276043
0.4352144 -0.0072779898 0.064201169 14210251
0.44125003 -0.0039837006 0.06066541 13289404
0.44300002 0.00014349609 0.060130116 12631471
0.43225005 -0.040336184 0.07232672 14539218
0.44675004 -0.041692793 0.071098201 14539216
0.45366669 -0.044107392 0.071017705 14406861
0.40900001 -0.030506762 0.079452068 15196378
0.41671428 -0.032758735 0.077433027 14802134
0.42350006 -0.035569154 0.074731871 14802133
0.43306062 -0.03550278 0.071248837 15065561
0.44150001 -0.038617224 0.070262104 14868181
0.40615383 -0.024034232 0.078576647 15196634
0.41433334 -0.024833422 0.075156361 15130841
0.42343599 -0.02581957 0.071676537 15130841
0.43000001 -0.028549889 0.070445225 15262169
0.40432659 -0.016500961 0.077876337 15065304
0.41557887 -0.015186327 0.073518828 14999511
0.42030776 -0.01477632 0.070976183 14999767
0.41850001 -0.0096616 0.076888226 13222842
0.42306665 -0.0060607274 0.074310884 12236713
0.50033337 0.018512527 0.079234131 12500146
0.50150007 0.021296376 0.079223163 12763832
0.5381667 0.025792083 0.077876389 12500402
0.54218179 0.028217399 0.076591291 12631731
0.54549998 0.031466745 0.078029886 12698038
0.55509096 0.035213884 0.076170273 12829367
0.56055558 0.038967036 0.076084569 13026746
0.56462502 0.043977048 0.078453921 13027260
0.57388896 0.046610363 0.077445664 13223869
0.58375007 0.048359629 0.076841556 13289662
0.59300005 0.048085801 0.076325536 13355455
0.60344446 0.047909312 0.07499744 13355199
0.61000001 0.045894261 0.074229546 13158076
0.56850004 0.051423177 0.079826452 13158846
0.57676929 0.05461387 0.079013027 13158331
0.58525002 0.054477196 0.077722006 13289661
0.59491676 0.053923562 0.07621932 13289660
0.60290009 0.053544514 0.073928103 13552834
0.57800001 0.061077099 0.079807296 12829111
0.58483332 0.061114039 0.078006744 13025976
0.3962 -0.030572008 0.086602591 13749188
0.40436366 -0.031107353 0.080867745 14867415
0.41657147 -0.034698073 0.080503859 14275535
0.42000002 -0.037226599 0.080605693 13618116
0.39549023 -0.024664182 0.086205311 14473167
0.40165791 -0.025632674 0.081337474 15327964
0.39512616 -0.014997565 0.085691467 14012616
0.40000004 -0.016621716 0.080616988 15327707
0.39561903 -0.0083393138 0.086729348 13092028
0.43425927 0.0039872173 0.088117972 13026492
0.44400004 0.0078393705 0.08700683 13027006
0.45100003 0.0096482793 0.085499369 13027262
0.44650003 0.010946476 0.088650584 12961213
0.45433336 0.013034992 0.08778327 12961469
0.46833333 0.0144046 0.08732301 12961469
0.4765 0.016703004 0.087916486 12961726
0.48436365 0.017575346 0.086663254 12829883
0.49620003 0.017861446 0.083277948 12698039
0.47566667 0.020569315 0.089431942 12895676
0.4848125 0.023002744 0.088287018 12961726
0.49582851 0.024368407 0.085331596 12961468
0.50286955 0.026221573 0.083149493 12961468
0.51388896 0.027435936 0.081377119 12961467
0.53600001 0.026524117 0.080282077 12434867
0.49800003 0.030472813 0.088580362 13158848
0.50677782 0.033652153 0.087239228 12829882
0.51193166 0.035406012 0.084024064 12961467
0.5253334 0.03214613 0.081144057 12961467
0.53359997 0.031150598 0.080668457 12895674
0.54400003 0.032014057 0.080206804 12895674
0.55516666 0.038304478 0.081851646 12961467
0.51050007 0.041396543 0.087817803 12039852
0.55850005 0.041693594 0.082997814 13093054
0.56150007 0.045535199 0.082273655 13093053
0.56611997 0.053305939 0.083410844 13026745
0.57260001 0.056487899 0.080669507 13092540
0.58100003 0.062754244 0.080221526 11973291
0.39272121 -0.032293778 0.095606454 11380642
0.38819674 -0.024159051 0.097351953 2501673
0.39156711 -0.025610169 0.092766955 3881782
0.38822857 -0.016167566 0.097173668 2633000
0.39121309 -0.014135605 0.092942931 4144698
0.39263377 -0.0074697835 0.095116548 13224381
0.43128577 0.0049046762 0.090558872 13092285
0.44480005 0.012229351 0.091192529 12566711
0.48100004 0.022676399 0.090060659 12961726
0.50725001 0.036093961 0.091263339 12434612
0.51000005 0.039564535 0.091908753 12171183
0.39490908 -0.041391741 0.10831597 14143945
0.38814813 -0.031846683 0.10612416 10328468
0.39218745 -0.0359254 0.10468155 13420223
0.38343742 -0.025042556 0.10486501 2435878
0.38324469 -0.015235428 0.1047688 2961706
0.38871428 -0.0094938334 0.10534464 13750723
0.39169648 -0.0067309667 0.10410573 12500401
0.39354649 -0.043381918 0.11575828 14077895
0.38638642 -0.033816598 0.11564472 10328466
0.39118186 -0.037809771 0.11278438 13486015
0.37831527 -0.023415454 0.11527759 2173475
0.38089737 -0.027750283 0.1136145 2370597
0.37822947 -0.015692161 0.11496538 2304806
0.38046673 -0.011810957 0.1130991 7239022
0.38387501 -0.0085202549 0.11550643 12829880
0.39140001 -0.006377737 0.11121626 11973546
0.3945218 -0.051552419 0.12683046 14077895
0.38874999 -0.04162389 0.12674622 13748930
0.39231914 -0.046153437 0.12458123 14012102
0.37850001 -0.030594284 0.12683721 2433050
0.38526893 -0.035573836 0.12483123 11380638
0.37517431 -0.024713445 0.12516245 1909790
0.38050002 -0.029049344 0.12090284 2305061
0.37456813 -0.01562097 0.12491923 2436390
0.38200003 -0.0079246834 0.12115619 12368558
0.39344001 -0.05218935 0.13198617 13815749
0.38781396 -0.042674232 0.13373318 12631475
0.39153132 -0.047452249 0.13256995 13486528
0.37486666 -0.031357463 0.13348182 3684146
0.38398418 -0.036625106 0.13347518 12039081
0.36899999 -0.023635954 0.13387786 2106913
0.37105003 -0.025377749 0.13205621 1843741
0.36899999 -0.016869241 0.13378188 2369569
0.37101856 -0.015609123 0.13192137 3027242
0.37142858 -0.031057701 0.14891912 1121047
0.36586359 -0.021763839 0.14792262 725516
0.37135291 -0.027445197 0.14869213 988945
0.36450005 -0.016066447 0.14764392 1710611
0.36425012 -0.032213997 0.15566409 2369313
0.37 -0.031928685 0.15069802 1252122
0.36502546 -0.025218686 0.15491164 856587
0.3705 -0.028357692 0.15046744 1317651
0.36399981 -0.015422268 0.15523587 2168849
0.36186448 -0.032462176 0.16365087 2040602
0.36198175 -0.024796331 0.16492821 1317394
0.3631283 -0.016335439 0.16448613 1775890
0.34511593 -0.03313854 0.17786957 1778202
0.35491112 -0.032213144 0.17537034 922895
0.3617568 -0.032638595 0.17251512 1711896
0.34509641 -0.024887888 0.17772701 1580824
0.35522497 -0.024802893 0.17453218 1054736
0.36025712 -0.025812954 0.17135613 1975838
0.34595722 -0.016650327 0.17807917 1580824
0.3548806 -0.017421475 0.17493851 988945
0.36042112 -0.017201612 0.17179768 1515029
0.33861366 -0.033183746 0.18810558 1778202
0.34140453 -0.033413474 0.18341441 1777946
0.33851463 -0.024773855 0.18813631 1711897
0.34114736 -0.025137659 0.18334806 1646360
0.33796993 -0.016764687 0.18675011 1645844
0.34146771 -0.017049814 0.18246937 1449239
0.33775005 -0.032506537 0.19093339 1712411
0.3379032 -0.025462471 0.19082837 1646362
0.33700004 -0.018599587 0.19045334 1645338
0.79587507 0.095047668 0.27408513 9934987
0.79725826 0.13535659 0.27522367 10263952
0.79522228 0.14499864 0.27485538 10263952
0.79675013 0.15487187 0.27540913 10395281
0.79699999 0.13666409 0.28398097 10132366
0.79429168 0.14482675 0.28516096 10198159
0.79424012 0.15458317 0.2844426 10198159
0.79520011 0.16500805 0.28478518 10329489
0.79722244 0.1756244 0.28509295 10461075
0.79668015 0.15505674 0.29464218 10132366
0.79728007 0.16450642 0.29486477 10263952
0.79640037 0.15500127 0.30478927 10132367
0.79737943 0.16439965 0.30500278 10263953
0.79500002 0.089590766 0.3157323 10066575
0.79714811 0.095779881 0.31485417 10000782
0.79747629 0.15538833 0.31476256 10132368
0.79500002 0.089590766 0.32100546 10066575
0.79511541 0.09576153 0.32448784 10066575
0.79657143 0.097361103 0.33549517 10066575
0.79702789 0.17471141 0.33488303 10132368
0.79610008 0.1847636 0.33449203 10066576
0.79400003 0.089478076 0.34662324 10000782
0.79653865 0.09543363 0.34579247 10001039
0.7972002 0.17475015 0.34522507 10066832
0.79679173 0.18476875 0.34489378 10066575
0.78883338 0.087356992 0.35637188 9803660
0.79033333 0.089064859 0.35334876 9737867
0.78900003 0.091377355 0.35767892 10001039
0.79231048 0.095367521 0.35429126 10000782
0.79642862 0.10400571 0.35586691 10066575
0.78900003 0.092403501 0.36280972 9935247
0.79021436 0.096451081 0.36505726 9935247
0.7929033 0.10486764 0.36503479 10001040
0.79721206 0.11495294 0.36496112 10066576
0.79459995 0.096242242 0.37473193 9869453
0.79519999 0.10450709 0.37507528 9935246
0.79579329 0.11499204 0.37455016 10001039
0.79740012 0.12557854 0.37461272 10132624
0.79725921 0.13484509 0.37655634 10067088
0.79720008 0.14470771 0.3773188 10001039
0.79752952 0.15555196 0.37666202 9869453
0.79640764 0.12523997 0.38479125 10066832
0.79490322 0.13502079 0.38498664 10066832
0.79507148 0.14563695 0.38464943 10066832
0.79533333 0.15479493 0.38444287 9935246
0.79683357 0.16441591 0.38516781 9869453
0.79592013 -0.19538754 0.39497617 9936018
0.79716027 0.13499457 0.39529502 10066575
0.79651761 0.14492929 0.39540309 10001039
0.79623991 0.15497074 0.39513698 10001039
0.79684013 0.16441554 0.3954334 9869453
0.79710025 0.14487466 0.40489116 10001039
0.79700011 0.15511885 0.40484074 10001039
0.79736006 0.13465463 0.41435683 9935246
0.79700029 0.14509021 0.41451949 10001039
0.79666674 0.1550532 0.41492876 10001039
0.79723358 0.16449696 0.41522315 10001039
0.79650009 0.20163706 0.41297638 2827289
0.79668427 0.10676195 0.42509174 9737867
0.79671812 0.11474953 0.42477956 9803660
0.79700011 0.16444778 0.42536452 10001040
0.79662526 0.17462564 0.42481333 9935248
0.79558641 0.18451561 0.42537796 9934991
0.79721743 0.19394968 0.42507401 9407876
0.79428577 0.1075729 0.43268126 9672075
0.79564011 0.11566738 0.43439797 9869453
0.79758632 0.1749976 0.43514431 10000783
0.79638112 0.18500507 0.43506685 9935248
