# .PCD v0.7 - Point Cloud Data file format
VERSION 0.7
FIELDS x y z rgb
SIZE 4 4 4 4
TYPE F F F U
COUNT 1 1 1 1
WIDTH 368
HEIGHT 1
VIEWPOINT 0 0 0 1 0 0 0
POINTS 368
DATA ascii
0.81350005 0.19784895 -0.16190934 7957346
0.81250006 0.20188336 -0.16646552 5853509
0.82460004 0.20682308 -0.16257691 6379340
0.83333343 0.21096157 -0.16195647 5918788
0.8140834 0.19592737 -0.15519826 13024178
0.82408333 0.20572971 -0.15485574 6181191
0.83200002 0.21062402 -0.15683076 6510925
0.81130767 0.16594025 -0.1421892 12894904
0.81050014 0.17400871 -0.14247583 12894904
0.80883336 0.19150482 -0.14488818 13092025
0.81346685 0.19641362 -0.14477095 10787729
0.8168751 0.20225465 -0.14394219 6313291
0.82040006 0.20423067 -0.14830542 5918021
0.80837506 0.16466568 -0.13132371 12764088
0.81152946 0.1656584 -0.13637753 12764088
0.81050003 0.17316166 -0.137361 12698295
0.80816656 0.19292404 -0.13357519 12367792
0.81049997 0.19759242 -0.13522668 7431774
0.81362504 0.20264016 -0.13694035 5589826
0.80846667 0.19331156 -0.12495009 10854553
0.81029999 0.19849169 -0.12523331 5391680
0.81328583 0.20262337 -0.12297226 5852741
0.81025004 0.19563445 -0.11479504 8617080
0.81425005 0.20160446 -0.11583463 5524292
0.81000006 0.19509946 -0.10669921 7696748
0.59437501 -0.042590745 -0.013598889 16249834
0.58679998 -0.033054955 -0.012116916 16447213
0.59330302 -0.034997221 -0.016319636 16579055
0.5778001 -0.022810066 -0.01084721 16249834
0.58425003 -0.024713172 -0.015108761 16447469
0.59100002 -0.028401757 -0.018935869 16645361
0.57744455 -0.013929814 -0.011141745 16118249
0.58287495 -0.014991999 -0.015894383 16315884
0.57757145 -0.0052233404 -0.011520142 16052457
0.58257133 -0.0052667349 -0.01639544 16184298
0.57666671 0.0053941095 -0.011985072 15789541
0.58179307 0.0043197046 -0.016279312 15986920
0.57683998 0.015149513 -0.012615103 15395040
0.58149993 0.014737639 -0.016618807 15526369
0.57763642 0.02256277 -0.011828431 14868953
0.58173335 0.024794875 -0.01382641 15066075
0.57700002 -0.051142257 -0.0013768197 15196892
0.5762434 -0.044916026 -0.0026548547 16052456
0.58416671 -0.04482387 -0.0077811931 16118249
0.56809092 -0.033307865 -0.00063090964 16315627
0.57448488 -0.034983311 -0.0043947753 16447213
0.58323079 -0.036155205 -0.0088501703 16447213
0.55850005 -0.021392742 -2.5217096e-05 16052455
0.56485188 -0.024649942 -0.0023834293 16315627
0.57414281 -0.025688378 -0.007472869 16381420
0.55700004 -0.014257973 -0.00058565597 15986662
0.56466669 -0.015118698 -0.0044008577 16184041
0.5735625 -0.015255129 -0.0085880244 16118248
0.55611765 -0.0045670341 -0.0010237601 15855076
0.56431997 -0.0054170149 -0.0048945169 15986662
0.57264286 -0.0051786187 -0.0087418007 15920869
0.55550003 0.0047314614 -0.0006770551 15789283
0.56402695 0.0050728959 -0.0051035136 15789283
0.57163638 0.0039567566 -0.0090293651 15855076
0.55558825 0.015254194 -0.00079211302 15328988
0.56400007 0.014925382 -0.0052809208 15394526
0.57157147 0.014903792 -0.0093922196 15460575
0.55825001 0.022071688 -0.00035236304 14342608
0.56477773 0.023321953 -0.0036323592 14539730
0.57475007 0.024668979 -0.0080993902 14539731
0.58100003 0.028750958 -0.0095471526 14539731
0.58200002 0.030162916 -0.0082026729 14145743
0.56100005 -0.051037416 0.0091678482 15262171
0.57600003 -0.052402049 0.0013224191 15920101
0.55783337 -0.042481631 0.0088979928 15986662
0.56425929 -0.044185933 0.0059318929 15986662
0.57258338 -0.046286076 0.0022057223 15789284
0.54766673 -0.03187738 0.0089499541 16315627
0.55452174 -0.03442093 0.006855316 16315627
0.56354171 -0.035991352 0.0029375039 16381420
0.54536003 -0.024033314 0.0074267425 16118248
0.55361545 -0.02519344 0.0035591917 16249834
0.56024998 -0.028017256 0.0016140017 16381420
0.53775007 -0.014618706 0.0091010071 15920869
0.54552948 -0.015142227 0.0064312075 15986662
0.55246156 -0.014496889 0.0027587956 15986662
0.53900003 -0.0042417385 0.0088083232 15855076
0.54537505 -0.0046116025 0.0060350033 15855076
0.55183345 -0.0054196655 0.0023418525 15855076
0.53781259 0.0057588527 0.0086294366 15657697
0.5444445 0.0042845826 0.0053516966 15657697
0.55175006 0.0046990816 0.0019111097 15789283
0.53862506 0.012784658 0.0084867431 15262938
0.54440004 0.015215117 0.0058313985 15066073
0.55194122 0.01530479 0.0020258108 15197659
0.54471433 0.021490743 0.0076215044 13421248
0.55409092 0.022939069 0.0027997391 13684934
0.5353846 -0.042824414 0.018674798 15854820
0.54474998 -0.042784445 0.015034004 15855076
0.55289996 -0.045449108 0.011815084 15723490
0.52824998 -0.031673171 0.019452833 16184041
0.53479415 -0.034991272 0.017125944 16184041
0.54453844 -0.035176404 0.012326262 16249834
0.55150002 -0.038876563 0.01062556 16118248
0.52564287 -0.024179665 0.01790211 15920869
0.53380001 -0.025497023 0.013498821 16052455
0.54183334 -0.027521074 0.010544841 16118248
0.51850009 -0.013792709 0.019397674 15920870
0.52492315 -0.015142264 0.016321644 15855076
0.53280777 -0.015851952 0.011531838 15920869
0.51800007 -0.0052891229 0.019378968 15723490
0.52445936 -0.0056065475 0.016128963 15789283
0.53336 -0.0048689442 0.011607124 15789283
0.51830775 0.0055821245 0.019016637 15460318
0.5244211 0.0047589429 0.015830621 15526111
0.53290915 0.0039120759 0.011483317 15657697
0.51800001 0.011081615 0.019378968 14999767
0.52461123 0.012929781 0.017232087 14999767
0.53431714 0.015157362 0.012719577 14736851
0.53670007 0.020779723 0.014414464 12302511
0.54050004 0.021053448 0.010098157 13486528
0.52592498 -0.044095017 0.025822733 15526112
0.53050005 -0.043667234 0.021584813 15723490
0.51572412 -0.033725962 0.02761348 15986148
0.52426475 -0.035389002 0.023506038 15986662
0.53066671 -0.038340192 0.021095142 15986662
0.50706249 -0.02343102 0.028612731 15722975
0.51418364 -0.025036659 0.024899261 15920612
0.52177781 -0.026706913 0.021148346 15986662
0.49899998 -0.011520044 0.029181669 15723488
0.50450003 -0.014818974 0.027072782 15657437
0.51339394 -0.015204401 0.02233134 15789027
0.49846676 -0.0048171012 0.028605334 15526110
0.5047273 -0.0052785245 0.025462601 15525854
0.51386946 -0.005428581 0.021573506 15657697
0.49875003 0.0019138064 0.029167049 15394524
0.50463414 0.0048041013 0.026766341 15131352
0.51309091 0.0058063501 0.022173868 15328732
0.50612503 0.011865229 0.028559221 14144457
0.5139643 0.013103284 0.023900326 14210252
0.52075005 0.016626038 0.02313735 12500404
0.49300003 -0.040234573 0.039217882 15394525
0.50849998 -0.040903766 0.036283888 15460061
0.51639998 -0.042872343 0.033215161 15262682
0.52160007 -0.045256156 0.030991193 15394525
0.48757148 -0.032454789 0.039600719 15723490
0.49462965 -0.034016479 0.037366923 15723233
0.50491661 -0.034262486 0.034003612 15723490
0.51284218 -0.037183467 0.031756412 15657697
0.4856334 -0.024212688 0.038325123 15591904
0.49420592 -0.024950091 0.034813002 15657696
0.50315785 -0.026064428 0.031591989 15789282
0.48531732 -0.014472446 0.037574593 15526110
0.49440911 -0.014781876 0.032744378 15591902
0.50033337 -0.018579341 0.03043093 15723488
0.48441869 -0.0049055116 0.037286445 15328732
0.49302638 -0.0052165701 0.032166988 15591902
0.48487878 0.0032206026 0.037463203 14802388
0.49448979 0.005172533 0.032996159 14868180
0.50150001 0.0089681856 0.030501891 14473421
0.49622223 0.011132048 0.035077259 12762805
0.5025 0.012320845 0.031147966 13157562
0.486375 -0.041545939 0.04865044 15196376
0.49138236 -0.043759771 0.044806242 15130583
0.46875 -0.031397473 0.0490852 15394268
0.47452387 -0.03327759 0.047579832 15525084
0.48498055 -0.03578116 0.043648373 15459805
0.49000001 -0.038269091 0.040126331 15328732
0.46606669 -0.024329998 0.048636712 15328732
0.47450006 -0.024969989 0.044983141 15460061
0.48130438 -0.025319969 0.041519631 15526110
0.45900002 -0.011133857 0.049407531 15131353
0.4645001 -0.015210187 0.047761425 15328475
0.47456756 -0.015099152 0.043839131 15328732
0.48050001 -0.015512122 0.040954817 15394525
0.45900002 -0.006835748 0.049407531 15131353
0.46530956 -0.0052670068 0.046991814 15131352
0.47460002 -0.0052520935 0.042559352 15262937
0.48000002 -0.0088340277 0.04043112 15394525
0.46623087 0.0021651967 0.048418753 13157305
0.47471055 0.0030826889 0.043367375 14012871
0.48040003 0.0046555153 0.040464811 14144458
0.46700001 -0.050138477 0.059014708 14143690
0.46584216 -0.043587327 0.058750097 14998741
0.47364712 -0.043151412 0.054888025 15064533
0.48225003 -0.042746454 0.051626936 15064790
0.45745459 -0.032078061 0.058681656 15393242
0.46406251 -0.034463633 0.054813884 15327962
0.47258338 -0.038109105 0.051602598 15261913
0.44660872 -0.023090143 0.058569614 15196633
0.45510912 -0.025095394 0.055429745 15196633
0.46200004 -0.02612769 0.051665504 15262682
0.43900007 -0.013731843 0.059587177 15262426
0.44498295 -0.014906793 0.057046879 15262426
0.45479175 -0.014957176 0.052449483 15197146
0.46000001 -0.019234626 0.050592039 15262939
0.43900001 -0.0091071613 0.059587177 15065562
0.44493473 -0.0060821208 0.0574371 14539216
0.45458007 -0.0049809404 0.052562166 14736595
0.46000001 -0.00092786551 0.050592039 14539214
0.45833334 0.0008632536 0.052194934 12894388
0.46133336 0.0012317653 0.050738681 13157561
0.45833337 -0.05028097 0.066502459 13617090
0.46400002 -0.05090262 0.061892733 13748932
0.44775003 -0.040997185 0.069158033 14801618
0.4561356 -0.04414396 0.065719567 14603983
0.46194738 -0.045502931 0.061334264 14604239
0.43738893 -0.032685772 0.068751812 15327962
0.4452548 -0.034540981 0.065780863 15327962
0.45450005 -0.036121067 0.062392786 15393755
0.46075001 -0.038951609 0.060651358 15459548
0.42661119 -0.022889888 0.068777934 15064790
0.43455383 -0.024634777 0.065559708 15130840
0.44293937 -0.02672524 0.062221281 15196376
0.45000002 -0.029351063 0.060026795 15196376
0.4244844 -0.015141557 0.067822151 15131096
0.43390623 -0.014951187 0.062708162 15065560
0.42469233 -0.0091926511 0.06811256 14407373
0.43500003 -0.007310349 0.063342623 14276044
0.44100001 -0.0036386764 0.060545344 12960439
0.43400002 -0.04075408 0.073129617 14538448
0.44550002 -0.04253304 0.071416244 14472654
0.45180002 -0.045758206 0.070841745 14012103
0.40850002 -0.030948207 0.079354942 15064791
0.4166176 -0.033117425 0.077398792 14933205
0.42338297 -0.03543672 0.074833833 14867413
0.43351436 -0.035559833 0.071682401 15130584
0.44066671 -0.038715038 0.070472836 14998997
0.40638462 -0.024485312 0.078670651 15262170
0.41454557 -0.024815222 0.075151026 15196377
0.42318431 -0.025810765 0.071643144 15196377
0.43000001 -0.029053207 0.070445225 15459548
0.40485367 -0.016580418 0.078429267 15131096
0.41527283 -0.014912182 0.073853441 14999511
0.42000005 -0.014448497 0.070773423 14999510
0.41825002 -0.0096558277 0.075128376 13683649
0.42494544 -0.0047336705 0.075953133 12105128
0.42900002 0.0011432579 0.077311479 12433840
0.43400002 0.0021725844 0.078212544 12433840
0.50200003 0.017454036 0.079386339 12434352
0.50160009 0.021064492 0.079356588 12763318
0.53860009 0.024257686 0.078653559 12434352
0.54268003 0.027011342 0.076196335 12434353
0.546 0.031973884 0.077378772 12763575
0.55371428 0.035926033 0.075775608 12894904
0.56 0.039510496 0.07601098 13158076
0.56542861 0.042926632 0.078163467 13092540
0.57440007 0.047387071 0.077962741 13158333
0.58399999 0.04838429 0.076190151 13157819
0.59275007 0.048065234 0.07559631 13289662
0.57584625 0.054004733 0.07878311 13092796
0.58359993 0.054014891 0.076751783 13223356
0.59485716 0.052311104 0.074374713 13420735
0.39644444 -0.030498343 0.086284518 13618115
0.40380001 -0.031158309 0.080703571 14867671
0.41600001 -0.035250518 0.080160297 14275022
0.39551827 -0.024677791 0.086293541 14341323
0.4013589 -0.025554081 0.081289336 15327962
0.39523515 -0.014947502 0.085721977 13947079
0.40000004 -0.016819401 0.080700234 15327961
0.39579993 -0.0080995336 0.086819485 13026491
0.41700003 -0.0096269706 0.081006147 11512220
0.42453578 -0.004577545 0.082079411 12039335
0.4375 0.0021901052 0.086011484 12763318
0.44828579 0.0074963397 0.087530829 12961469
0.45139998 0.0089180116 0.08610215 12895419
0.44900003 0.010656611 0.089324676 12895676
0.45576477 0.012452848 0.087964803 12961469
0.46440005 0.015374536 0.087381169 12961469
0.47270003 0.017969668 0.087396011 12961469
0.48516667 0.018328136 0.086104147 12961469
0.49606666 0.017811961 0.084356479 12632246
0.50072724 0.016465468 0.081818528 12500145
0.47575003 0.021594318 0.089073569 12961469
0.48390001 0.023042303 0.087767027 13027262
0.49591178 0.024471899 0.085504018 12961469
0.50227284 0.024915664 0.082498848 13027003
0.51459998 0.028114697 0.082374506 13027260
0.52100003 0.027612515 0.081694394 13026490
0.53669232 0.025588658 0.080964006 12565939
0.50753844 0.035404645 0.087122925 12698297
0.51359373 0.035553992 0.083380051 12961467
0.52300006 0.032613967 0.081597537 13158846
0.53436369 0.034286194 0.08117047 13092796
0.55300003 0.038585871 0.080670707 13158846
0.50872725 0.042172648 0.087781385 11842729
0.51200002 0.041217938 0.083876625 12698038
0.53400004 0.042047933 0.083104268 13093053
0.54200006 0.040778182 0.082449593 13224639
0.55616671 0.041845981 0.082432561 13224639
0.56363636 0.045294199 0.081542 13093053
0.57050002 0.048932984 0.080107287 13224639
0.56848389 0.054836035 0.084803097 12829625
0.57133341 0.054463327 0.081002705 12961467
0.56900001 0.060126074 0.08589083 12960440
0.39263326 -0.032352224 0.095632248 11512997
0.38769108 -0.024875458 0.096436299 2501672
0.3913126 -0.026022317 0.092235208 4210234
0.38863334 -0.016613409 0.093539283 2698283
0.39128211 -0.013914623 0.09174417 5262920
0.39370212 -0.0072212778 0.09304557 13355711
0.45666671 0.015119513 0.090134323 12764090
0.50806242 0.036816865 0.091783576 12171696
0.51000005 0.038370613 0.094296597 11514021
0.509 0.04187011 0.0915583 11381922
0.51000005 0.040758453 0.094296589 11382435
0.39333341 -0.04115586 0.10809962 14209483
0.38788575 -0.031943422 0.10663458 9670538
0.39179012 -0.036043141 0.10448168 13420224
0.38376412 -0.025070246 0.10503683 2370341
0.38393798 -0.015244665 0.10547249 2830122
0.38886663 -0.0094021382 0.10539974 13619138
0.39132443 -0.0065805768 0.10558113 12368559
0.39334208 -0.0434261 0.11589369 14077896
0.3865979 -0.033979565 0.11568027 10262931
0.39060003 -0.038096685 0.1126347 13683139
0.37789688 -0.023527667 0.11580533 2173219
0.38104758 -0.027236445 0.11299439 2305061
0.37797084 -0.015777377 0.11567706 2371111
0.38057697 -0.013512612 0.11176042 4344902
0.38800001 -0.0081388149 0.1127032 12764089
0.39138463 -0.0064970437 0.11119816 11973804
0.39521739 -0.051723894 0.12681292 14012616
0.38862503 -0.041923556 0.12658192 13814210
0.39243177 -0.046368066 0.12445904 13946309
0.37863636 -0.03098182 0.12673604 3090463
0.38528952 -0.035794258 0.1247913 11840932
0.37481689 -0.024855081 0.12516789 1909790
0.38000003 -0.029233279 0.12007707 2370854
0.37418908 -0.015507612 0.12513565 2436647
0.39307693 -0.052008145 0.13192031 13683907
0.38770682 -0.043413766 0.13354087 12696756
0.39100003 -0.048279684 0.13178883 13683907
0.37573686 -0.031594403 0.13320927 4933440
0.3837969 -0.03670707 0.13365518 12104362
0.36899999 -0.024067871 0.13387786 2172703
0.37130007 -0.025394367 0.1320582 1843739
0.36900002 -0.019316776 0.13387786 2303776
0.37090191 -0.015594461 0.13238776 3422257
0.37399998 -0.031398319 0.14882503 1054743
0.36618182 -0.02123509 0.1488305 856330
0.37400001 -0.029647239 0.14882503 1646616
0.36515778 -0.015875185 0.14829798 1841425
0.36433876 -0.032261819 0.15584569 2501154
0.37300003 -0.031314369 0.15017352 660755
0.36490041 -0.025197402 0.15505163 791307
0.37200001 -0.027313892 0.15063706 988686
0.36427015 -0.015533403 0.15496741 2037776
0.36149999 -0.032408889 0.16360866 1975065
0.36166021 -0.024784835 0.16496204 1252114
0.36296573 -0.016220313 0.16477363 1710865
0.34536996 -0.033144951 0.17774712 1712665
0.35537842 -0.031879574 0.17508274 923151
0.36125007 -0.032496735 0.17221259 1646360
0.34509096 -0.025041224 0.17779121 1580824
0.3550086 -0.024926074 0.17483181 1054479
0.36027268 -0.025110798 0.17152053 1909531
0.34589559 -0.016575046 0.17837164 1514778
0.35416919 -0.017567275 0.17525285 1119759
0.36069572 -0.017394591 0.17216608 1580051
0.33861548 -0.033184215 0.18803741 1909018
0.34138891 -0.033403583 0.18347232 1777945
0.33835605 -0.024902798 0.18818745 1777689
0.34118018 -0.025140163 0.18336588 1646360
0.33800006 -0.016830502 0.18705641 1711126
0.34140274 -0.016839523 0.18269102 1448982
0.33755556 -0.0326428 0.19086745 1711897
0.33761534 -0.025185881 0.19085759 1646362
0.33700001 -0.018331915 0.19041108 1842971
0.79555541 0.13476557 0.3670589 10066832
0.79299992 0.12449164 0.3747493 10066832
0.79306662 0.1348616 0.37499553 10066832
0.79488891 0.1451975 0.37440839 9935245
