# .PCD v0.7 - Point Cloud Data file format
VERSION 0.7
FIELDS x y z rgb
SIZE 4 4 4 4
TYPE F F F U
COUNT 1 1 1 1
WIDTH 365
HEIGHT 1
VIEWPOINT 0 0 0 1 0 0 0
POINTS 365
DATA ascii
0.41600001 -0.050993085 0.03990962 11645609
0.4145 -0.047901083 0.039765716 11711400
0.40450001 -0.034438085 0.039753288 12302253
0.40229997 -0.024829622 0.03953708 14933972
0.40381822 -0.014986851 0.039686281 14933713
0.405 -0.0065055983 0.039802432 14012613
0.44414288 -0.10204893 0.049442317 16053738
0.43900001 -0.090296008 0.049310111 16118761
0.44194117 -0.095290244 0.04909268 15856102
0.43586367 -0.084559299 0.04872489 15592160
0.42722225 -0.072096325 0.046652023 14407630
0.4308801 -0.077372193 0.047267884 14539473
0.41820002 -0.060955275 0.049126573 14605011
0.42370173 -0.06580583 0.046508826 14802389
0.40875003 -0.051300935 0.049500514 14933460
0.41551083 -0.054599181 0.045013055 14144457
0.42020002 -0.059279393 0.043854047 13619398
0.4064475 -0.044044983 0.046197709 15130839
0.41207412 -0.047494266 0.042708874 13947334
0.40263054 -0.035175048 0.045172334 14999509
0.39879316 -0.02346893 0.048270255 14538701
0.40078032 -0.025667092 0.043950655 14867922
0.39884621 -0.016389297 0.048462577 14472651
0.40130535 -0.014463865 0.044059839 14802385
0.40265146 -0.0050538327 0.045174781 14276554
0.40636793 0.0046389741 0.045363031 13947590
0.41000003 0.0095390175 0.042405415 14013127
0.40887499 0.011259886 0.048677932 13684419
0.41179699 0.014598538 0.045923114 13750212
0.41706249 0.022166416 0.048124939 13881797
0.42265856 0.026762787 0.046749383 14013382
0.42709091 0.031816997 0.047062848 14013381
0.4322778 0.036999673 0.046979543 14144710
0.43733335 0.042761549 0.047457755 13947331
0.44144997 0.047581267 0.047518648 14013125
0.44629043 0.054181073 0.048072819 14012867
0.45309088 0.06409061 0.048722625 14539467
0.45900002 0.071067475 0.048870265 14211019
0.46125001 0.073306799 0.049379922 14013897
0.45200005 -0.12138122 0.056112755 15065563
0.44890481 -0.11235037 0.055352386 15657698
0.45079497 -0.11713105 0.054882105 15657699
0.44574073 -0.10502528 0.055139888 15526112
0.43853337 -0.092048563 0.056065675 15131355
0.44144648 -0.096449986 0.054417897 15328733
0.43395358 -0.084957182 0.055183738 14868182
0.42565337 -0.074153528 0.055418395 14868181
0.43035293 -0.078443475 0.052426808 14999767
0.41621062 -0.063460335 0.055942908 14605009
0.42113173 -0.067423403 0.053682145 14736596
0.40808943 -0.052652955 0.055287976 14670802
0.41170001 -0.057658177 0.054527979 14407630
0.40365142 -0.044788301 0.055018097 14868181
0.39833337 -0.033004079 0.056606647 14407629
0.40011841 -0.036592241 0.053848583 14670802
0.39719805 -0.024980055 0.054838128 14342093
0.39746195 -0.014825461 0.054952942 14539472
0.40000001 -0.010639114 0.050547928 14210249
0.39868295 -0.0072912015 0.056776874 14144971
0.40039703 -0.0036452985 0.054304551 13816005
0.40436184 0.0050447569 0.054832388 13487040
0.40797681 0.012661824 0.055975679 13092283
0.41173685 0.017317466 0.054415081 13223869
0.41621432 0.022917526 0.055031747 13224125
0.42129278 0.028090738 0.054535318 13552834
0.42642859 0.033752985 0.055469256 13355711
0.43055174 0.038302738 0.0539537 13816004
0.43571785 0.044432741 0.05546191 13750211
0.44085717 0.048724275 0.052318573 14276295
0.44476196 0.055042583 0.055154484 14144710
0.44894442 0.061102673 0.056031898 14342089
0.45332816 0.065920919 0.054696292 14539210
0.45834786 0.072227493 0.056752048 14342089
0.46144453 0.075289056 0.054288447 13947076
0.44900003 -0.12115347 0.068512559 15657184
0.4502857 -0.12160548 0.064580567 15394013
0.44778198 -0.11471351 0.065518938 15722977
0.45010003 -0.11892142 0.061514974 15525855
0.43900004 -0.10098416 0.069042079 15459805
0.44346851 -0.10524341 0.064616442 15591391
0.4362078 -0.094358101 0.065381616 15328219
0.44027278 -0.098616198 0.062476791 15525856
0.42828 -0.081514195 0.06598857 14736596
0.43137318 -0.086214848 0.064576045 14999511
0.41842863 -0.070532098 0.067429177 14539217
0.42324996 -0.075213827 0.065029584 14736339
0.40885711 -0.060441066 0.068348296 14144458
0.41429076 -0.065139696 0.064875737 14473424
0.42000002 -0.069673114 0.060941145 14933204
0.40690339 -0.054530278 0.06517107 14341580
0.41072732 -0.058782719 0.062042274 14341837
0.39855009 -0.041623425 0.06734363 14276043
0.40165225 -0.045868449 0.064519592 14473423
0.39701733 -0.034924723 0.065233946 14078921
0.40000001 -0.039199535 0.061316609 14802388
0.39584297 -0.024892563 0.064847514 13947333
0.39612487 -0.014669281 0.06493298 13947590
0.39738765 -0.005115733 0.065269046 13684419
0.40000001 -0.0010409415 0.061550707 13881799
0.39900002 0.00012924365 0.067234755 13355455
0.40238595 0.0050596427 0.064854048 13356225
0.40776208 0.013000138 0.065104626 13027003
0.41145 0.017787185 0.064829037 13026747
0.41624087 0.023022402 0.064618222 13092283
0.42132267 0.028201813 0.063711345 12960954
0.42652273 0.033366092 0.063930921 12895417
0.43121058 0.037678514 0.065917701 12829624
0.43642095 0.044850059 0.064830221 12698295
0.44028574 0.049322728 0.067419156 12369330
0.44423753 0.055104911 0.064824969 12697781
0.44880778 0.061973467 0.064555995 12894904
0.45201963 0.06638097 0.065296568 13158331
0.45671618 0.07474792 0.065023661 13553090
0.45823082 0.081510514 0.067807607 13289661
0.44890922 -0.12198257 0.075644061 14670291
0.45000002 -0.12310884 0.070561372 14999769
0.44616666 -0.11499453 0.074817762 15262170
0.43815389 -0.10168263 0.076120384 14998998
0.44208518 -0.10692052 0.074911036 15196377
0.43404812 -0.094965823 0.075071223 14867924
0.42620313 -0.083554409 0.0754629 14473424
0.43034488 -0.088273339 0.073766068 14736339
0.41764101 -0.072041415 0.075663924 14473166
0.42155367 -0.076842181 0.074572615 14407631
0.40856522 -0.061040185 0.074501552 14012615
0.41337103 -0.066412903 0.075223431 14275788
0.40510315 -0.054805111 0.075042494 14209738
0.39775866 -0.042867988 0.075516671 14210507
0.4006792 -0.047727905 0.074559361 14276300
0.39546293 -0.035056051 0.074966863 14341837
0.39400852 -0.024777632 0.074689619 14210507
0.39451256 -0.014646278 0.074784324 14144714
0.39628175 -0.0049694171 0.075123943 13618626
0.39865011 0.00064274966 0.076179333 13355453
0.40207925 0.0055921851 0.07487987 13092281
0.40714306 0.013605653 0.075152896 12829367
0.41132003 0.018506385 0.075008057 12895160
0.41631049 0.022892654 0.075237833 12960697
0.42184219 0.02774008 0.077375256 12960697
0.42740002 0.032158419 0.078522086 12697524
0.432717 0.037130147 0.074958377 12697268
0.43740478 0.04312823 0.074196592 12500403
0.44124997 0.047690693 0.075446427 12434609
0.44666174 0.054450832 0.075004637 12894902
0.45012504 0.059024166 0.076245651 13092281
0.4537375 0.064938352 0.074987523 13026232
0.45804685 0.074608818 0.074222609 12697782
0.46027276 0.076946817 0.078931332 12565426
0.45800003 0.081098422 0.070743613 11776425
0.44697669 -0.12264799 0.085069075 14933207
0.43900001 -0.11085015 0.089390673 15525343
0.44345358 -0.1150953 0.084810145 15327964
0.43664616 -0.1039865 0.085506879 15130585
0.4407059 -0.10818662 0.082575068 15064792
0.42815 -0.091572806 0.08697816 14933206
0.43189475 -0.095970839 0.084451735 14933206
0.41900003 -0.080296971 0.088751316 14538448
0.42408988 -0.085063621 0.085073918 14801620
0.41621432 -0.074330464 0.085476004 14604754
0.42060003 -0.078897454 0.082688548 14670289
0.40792173 -0.062597156 0.085511915 14341068
0.41188684 -0.067329794 0.084230579 14472911
0.39900002 -0.050310332 0.089185305 14407374
0.40281481 -0.05505557 0.085019439 14341068
0.397048 -0.044663433 0.08530505 14538960
0.40000004 -0.049148861 0.08203461 14407374
0.39372823 -0.034801386 0.084954374 14012873
0.39219856 -0.024698373 0.084866032 12894649
0.39231712 -0.014984575 0.084896281 12894647
0.39420021 -0.0054385033 0.085206851 13684420
0.3975333 0.0021947168 0.085302211 13355455
0.40119672 0.0072938562 0.08466275 12960954
0.40644711 0.013819342 0.085098729 12763574
0.41123074 0.018943463 0.085517004 12631732
0.4161962 0.023029283 0.084784888 12763318
0.42170742 0.027927114 0.085143603 12763318
0.42663643 0.032192379 0.084102876 12763318
0.43311366 0.036902577 0.084505282 12894903
0.43864006 0.041710228 0.084552929 12697524
0.44214562 0.046238717 0.085306026 12631731
0.44738299 0.052627899 0.084436014 12763317
0.45161769 0.057706755 0.085618459 13026232
0.45638964 0.065248273 0.084761247 13026232
0.46000001 0.069068573 0.089359291 13289662
0.45900002 0.072028898 0.083509631 12763319
0.46026668 0.073346943 0.086395077 12763576
0.44266668 -0.12246228 0.095010951 15196634
0.43820357 -0.11338708 0.095779143 15262171
0.4408333 -0.1175632 0.093486868 15262428
0.43362504 -0.10501532 0.09502323 15130841
0.42641097 -0.09403038 0.095519751 14736340
0.43023819 -0.098470226 0.093121201 14998999
0.4178378 -0.082296319 0.09568119 14473168
0.42191306 -0.087407529 0.09528812 14670291
0.4086667 -0.070982285 0.098361254 14407632
0.41417912 -0.075322054 0.094578482 14538961
0.40568992 -0.064364485 0.095384948 14341583
0.41080004 -0.068724237 0.092109889 14538704
0.39866674 -0.050838854 0.096626759 14275276
0.40112925 -0.055501692 0.09475223 14275532
0.39555857 -0.044805791 0.09502954 14406862
0.38884613 -0.031384513 0.097733453 7763572
0.39188769 -0.035425227 0.09449739 12959673
0.38726461 -0.024954969 0.095090628 2698796
0.39014289 -0.028187234 0.090923913 5328460
0.38738981 -0.015557732 0.095274024 3093038
0.39007142 -0.013114112 0.090907358 6775901
0.38879165 -0.0087477909 0.097407319 12434608
0.39147064 -0.0045852521 0.094380446 13289918
0.39578742 0.0029735058 0.09514115 13092538
0.40057492 0.0081254411 0.094060868 12763830
0.40525007 0.013996642 0.095128395 12566709
0.41105884 0.018927116 0.094059102 12764088
0.41548893 0.022730663 0.094823845 12763832
0.42169774 0.027920077 0.094543703 12698039
0.42621431 0.031569235 0.095053509 12829111
0.43338606 0.03629902 0.094883732 12829111
0.43865007 0.040704552 0.094966069 12697525
0.44285083 0.045767937 0.095064551 12960697
0.44838718 0.051750336 0.094858356 13158075
0.45313212 0.05701495 0.095131055 13487040
0.45809299 0.063348353 0.094725601 13421248
0.46133342 0.067902878 0.095632382 12960955
0.46348718 0.072597869 0.095242947 12303026
0.4390001 -0.12046655 0.10656808 14802389
0.44088888 -0.12389868 0.10500498 14868183
0.43594056 -0.11462895 0.10496942 14736596
0.42804548 -0.10157111 0.10637771 14473424
0.43183827 -0.10619298 0.10457818 14670803
0.42371729 -0.094936952 0.10502136 14407631
0.41683549 -0.084075935 0.10547684 14144459
0.42047372 -0.088454574 0.10271364 14341839
0.40833339 -0.071721703 0.10537102 14144460
0.41262075 -0.076965071 0.10519597 14078411
0.40397027 -0.065039799 0.10488457 14078411
0.39733329 -0.053322364 0.10575268 14275532
0.40025985 -0.057760015 0.10406467 14275276
0.39285812 -0.044976875 0.10482722 14275276
0.38792855 -0.033968635 0.1058749 10526103
0.39052948 -0.037546609 0.10267036 13683139
0.38272005 -0.024967918 0.10479645 2436135
0.38314286 -0.015207151 0.10481 3159341
0.38780281 -0.007593249 0.10530111 12500401
0.39094648 -0.0026325469 0.10465902 12763831
0.394927 0.0038097855 0.10482028 12369330
0.4001818 0.0090297498 0.10490573 12303536
0.40476844 0.014288724 0.10488599 12171951
0.41050002 0.019352727 0.10364701 12303537
0.41568521 0.023392186 0.10417642 12303537
0.42157701 0.028190959 0.10386985 12237745
0.42705557 0.032132763 0.10384388 12435124
0.43375513 0.036601044 0.10473624 12500660
0.43862498 0.040573798 0.10253552 12697525
0.44430304 0.045636844 0.1050657 12697525
0.44877779 0.051216364 0.10422319 12763318
0.45316958 0.056111421 0.10507497 13027260
0.45822218 0.062397387 0.10510455 12961212
0.4608236 0.067322373 0.10497081 12829369
0.46350002 0.071493827 0.1011608 12237233
0.4390001 -0.12089364 0.11541033 14144459
0.44024998 -0.12508027 0.11471626 14407887
0.43540794 -0.11451187 0.11504023 14078666
0.42758334 -0.10243723 0.11478697 13684165
0.43064108 -0.10713881 0.11516613 13750215
0.41900003 -0.090105839 0.11327348 13618116
0.42294124 -0.09511061 0.11485637 13486786
0.41596478 -0.084375516 0.11473908 13157565
0.41999999 -0.089009918 0.11895157 12697527
0.40827999 -0.071820624 0.11330125 13289151
0.41191941 -0.076283969 0.11563806 12762807
0.40421253 -0.065114766 0.114612 12960186
0.41000003 -0.069453955 0.11947875 11579046
0.39677316 -0.054623902 0.11486185 12894649
0.40000004 -0.059706844 0.11572187 12697014
0.38900003 -0.040853515 0.11624286 12959671
0.39178482 -0.045397568 0.11493671 13157308
0.38658336 -0.035419863 0.11473575 10921116
0.37811908 -0.023989223 0.11354719 2239012
0.3806667 -0.02863173 0.112563 2436134
0.37819058 -0.016501548 0.11381137 2239013
0.38103026 -0.012442879 0.11318494 3620407
0.3869223 -0.0063060173 0.11475142 12106416
0.39066663 -0.0014982522 0.11318268 12040622
0.39607546 0.0039012653 0.1136063 11777194
0.40031585 0.0087618651 0.11377203 11514278
0.40437502 0.012799869 0.11360551 11514022
0.41350001 0.017915355 0.11755002 11119520
0.41772223 0.021433108 0.11602281 11513765
0.42290002 0.026132781 0.11521976 11645609
0.42746669 0.030694684 0.11612983 11514022
0.43486667 0.035672266 0.11448965 11842731
0.44025004 0.03930667 0.11695787 11776937
0.4454411 0.044615716 0.11446945 11974573
0.45075005 0.049214035 0.11776914 11908780
0.44900003 0.050599061 0.11034702 12369332
0.45339444 0.054987967 0.11487993 12105903
0.45814291 0.061590426 0.11190421 12171953
0.46162501 0.066477589 0.11142361 11908780
0.43900001 -0.12035643 0.12099267 13289664
0.43999982 -0.12312917 0.12350236 12171440
0.43779987 -0.11450817 0.12401505 12105391
0.44 -0.11831299 0.12667602 10000787
0.42841664 -0.10165941 0.12292274 12236975
0.4325898 -0.1066671 0.12397364 11579302
0.42434615 -0.095467761 0.1230102 11645352
0.41660869 -0.083278373 0.12180582 11381925
0.42062503 -0.088855803 0.12195946 11645354
0.41332608 -0.074734487 0.12261537 10658203
0.40678573 -0.064969607 0.12173883 10789275
0.41099998 -0.06859348 0.12286315 10460311
0.39693329 -0.054018855 0.1210291 10328723
0.40000001 -0.059332285 0.12077846 10657177
0.39106247 -0.043595497 0.12110953 10723737
0.38794738 -0.037879284 0.12144079 10987166
0.41342109 0.016897447 0.12167189 10264212
0.41680002 0.021407371 0.12077631 10921371
0.42469236 0.027139409 0.12188465 10592663
0.42800003 0.031199265 0.12021536 10987679
0.43200001 0.032364715 0.12205791 10790301
0.44850004 0.038993299 0.12649891 10000784
0.44833338 0.043001849 0.12172947 10789785
0.45376092 0.045876678 0.1256554 10132113
0.45641935 0.052571174 0.12417433 10526869
0.46200004 0.055159222 0.12852712 9342339
0.47000003 0.059567284 0.12871136 10066575
0.45866668 0.047394216 0.13097641 8684156
0.46000001 0.049684942 0.13135715 10000784
0.4635714 0.054425325 0.1308209 10527126
0.47000003 0.058467001 0.13201219 11053470
0.47400004 0.06007424 0.13202608 10856091
0.36800003 -0.031181769 0.14959629 1251858
0.36539388 -0.024566753 0.14876966 857101
0.36400011 -0.016025234 0.14872773 1710612
0.36391681 -0.03233733 0.15608831 3026213
0.36487716 -0.025298536 0.15514739 791307
0.3639999 -0.015693853 0.15516606 2038033
0.36185485 -0.032592628 0.16374654 2040858
0.36209989 -0.024822803 0.16505715 1252114
0.36374304 -0.016231652 0.16474001 1645074
0.35846156 -0.031901632 0.1746587 1054736
0.36100006 -0.032969728 0.17267926 1383699
0.35773575 -0.024898082 0.17347884 1317651
0.36071423 -0.024753354 0.17156462 1778202
0.35763639 -0.018683804 0.17427988 923407
0.36192313 -0.016954791 0.17219213 1120273
0.34054169 -0.033008557 0.18330973 1778204
0.34033325 -0.024986645 0.18323091 1646361
0.34034616 -0.016652163 0.18326838 1383191
0.33800003 -0.033123609 0.19147064 1646361
0.338 -0.025210969 0.19147064 1580825
0.33800003 -0.018089589 0.19147065 1514775
0.79387891 -0.13535944 0.41552541 10132627
0.78900003 -0.12626825 0.41924775 10132627
0.78900003 -0.14012124 0.42848301 10066834
0.79271883 -0.14443837 0.42440775 10132627
0.78785175 -0.13404459 0.42553404 10066834
0.79083329 -0.13736136 0.42145523 10066834
0.7871666 -0.12505214 0.42471817 10066834
0.78900003 -0.14012124 0.43125361 10132627
0.792 -0.14475165 0.4352887 10132627
0.78823084 -0.1340244 0.4333182 10066834
0.79014289 -0.13556825 0.43782398 10067091
0.78789473 -0.12497383 0.43419516 10001297
0.79000002 -0.1292024 0.4382731 9870225
0.79376191 -0.13512707 0.44514248 9935248
