# .PCD v0.7 - Point Cloud Data file format
VERSION 0.7
FIELDS x y z rgb
SIZE 4 4 4 4
TYPE F F F U
COUNT 1 1 1 1
WIDTH 425
HEIGHT 1
VIEWPOINT 0 0 0 1 0 0 0
POINTS 425
DATA ascii
0.46600005 -0.021849163 -0.021112053 12764089
0.46335292 -0.014918218 -0.02114117 13619910
0.46040004 -0.0042416221 -0.022737328 11712172
0.45846334 0.0066382065 -0.022744339 7765363
0.46030444 0.00220991 -0.024571855 8158324
0.45734924 0.015137831 -0.023582632 11711400
0.45747998 0.022252455 -0.022773573 11316129
0.47500002 -0.05099738 -0.010029299 15526111
0.47357136 -0.044872236 -0.01189862 14670802
0.46853575 -0.032441303 -0.013576733 11902589
0.47029424 -0.037540533 -0.01303881 14207668
0.46567604 -0.024559727 -0.014764257 11711138
0.4587619 -0.01238164 -0.01255118 13158588
0.46248335 -0.015898069 -0.016065558 11251876
0.45733762 -0.0051557571 -0.01496468 12632502
0.46000001 -0.0095428117 -0.019404398 11055269
0.44900003 0.0087646004 -0.010951891 10329751
0.45401177 0.0046911985 -0.015136009 9410959
0.44839022 0.015172694 -0.012439061 14406858
0.45197496 0.014615357 -0.017192123 14407114
0.44882613 0.022256505 -0.012172489 14012357
0.45207417 0.023782482 -0.016371384 12697267
0.47600001 -0.080077186 -2.14921e-05 12632759
0.47699991 -0.0746601 -0.0011400235 12567479
0.48000002 -0.071198747 -0.0033927385 15330526
0.47739395 -0.064160436 -0.0019196949 9608592
0.48027274 -0.067610525 -0.0042129578 10464158
0.46900001 -0.050902173 -2.117604e-05 14605262
0.47320351 -0.054754749 -0.0036493086 12304308
0.46763158 -0.043670587 -0.0021272909 13881283
0.47138304 -0.045633938 -0.006810186 12172208
0.46469057 -0.034408662 -0.0046300008 13284500
0.47000003 -0.038724262 -0.0091902083 12171688
0.45845702 -0.023189109 -0.0020766484 14471617
0.46210912 -0.02559977 -0.0066754408 13418410
0.45596555 -0.014667717 -0.0046798335 14538700
0.46033335 -0.018889608 -0.0093606664 14407369
0.44890004 -0.0019565928 -0.0010713856 14275532
0.45282492 -0.0055552502 -0.0052611949 14407373
0.44667462 0.0054427763 -0.004035973 9936276
0.45082352 0.0019446206 -0.0082159843 10923428
0.44353548 0.015148532 -0.0046588341 14078149
0.44313571 0.023420049 -0.0042927228 14340807
0.47100002 -0.090262227 0.0099023087 14604239
0.47173077 -0.083773769 0.0065968055 14013386
0.46893328 -0.074131727 0.0093464879 12630958
0.47265685 -0.075235918 0.0045596114 11842727
0.46754548 -0.064528048 0.0081352796 11512221
0.47281829 -0.065505691 0.0034182458 9539718
0.46582815 -0.054578699 0.0062222052 15657180
0.47073337 -0.057300162 0.0021081357 14277324
0.45900002 -0.041757882 0.0096500209 15656666
0.46321061 -0.045283407 0.0052917488 15525080
0.45819992 -0.033991463 0.0072708786 14664870
0.46117505 -0.036641419 0.0035395143 15193791
0.45520926 -0.025126774 0.0051737041 14271658
0.44857585 -0.013380744 0.007647573 14735820
0.45175007 -0.015820941 0.0039203018 14801614
0.4460263 -0.004864132 0.0054376982 14405827
0.45020002 -0.0084967418 0.0014549823 14735822
0.43787503 0.0063657844 0.0070245853 9471599
0.44184002 0.0034895123 0.0035959398 11183256
0.43648839 0.015134976 0.0052567269 12430227
0.44000003 0.01121554 0.0012676934 11908259
0.4366315 0.024537366 0.005335886 12891293
0.43450004 0.030909915 0.0083711753 11711400
0.47050002 -0.090166405 0.011543386 15064789
0.46550018 -0.084650286 0.015900353 15920609
0.47000009 -0.086659722 0.011421675 15920866
0.46449393 -0.075121224 0.015187467 13947077
0.45890915 -0.062650219 0.018730834 11774880
0.46307051 -0.065367855 0.014612532 10525328
0.45728257 -0.054099828 0.016682772 15525336
0.46133339 -0.055981088 0.012511418 15591130
0.45547 -0.044728879 0.015188605 15524822
0.46000001 -0.048848502 0.010747913 16051424
0.44859093 -0.033079591 0.018786529 13872519
0.45340011 -0.035488818 0.014343849 15193274
0.44693929 -0.024429459 0.016379114 13742735
0.45137501 -0.026714146 0.011865456 13874578
0.43870002 -0.011566497 0.018774118 13746095
0.44448906 -0.015309523 0.014616286 13876902
0.43669483 -0.0042463681 0.016294997 13680815
0.44167739 -0.0064317184 0.012085158 13283477
0.42793748 0.0074000158 0.01876281 9016716
0.43337491 0.0043300022 0.014148775 10789781
0.42663503 0.01510094 0.017239466 12763830
0.43114898 0.014182328 0.012046241 12565937
0.42657378 0.024042038 0.01700132 14407112
0.43107504 0.025117302 0.012111808 14012611
0.43290913 0.031557754 0.013707119 11514022
0.44872731 -0.083129764 0.028915362 14928561
0.45540005 -0.083527699 0.024723217 15721170
0.46038458 -0.085079044 0.020870997 16117731
0.44868749 -0.075743742 0.028996373 14140068
0.45527619 -0.074807726 0.02425294 14273979
0.46000001 -0.076308645 0.020439727 15395036
0.449 -0.064354926 0.029219896 10454636
0.45456794 -0.065201379 0.024374783 9864560
0.44831914 -0.053939283 0.026974335 14533029
0.45233336 -0.055884864 0.022540746 15260357
0.44687983 -0.044620261 0.025746729 14468267
0.45081246 -0.046621077 0.020756034 15391941
0.43900001 -0.031716716 0.029783679 14467234
0.44435969 -0.035217673 0.025199015 14468004
0.43734884 -0.023912242 0.027691642 14139560
0.44207278 -0.025863726 0.023401329 13544324
0.42742106 -0.012660388 0.028574266 14604493
0.43437493 -0.015058779 0.024414398 14670285
0.44042858 -0.018416928 0.021189738 13747119
0.42552185 -0.0048911804 0.026824972 14275786
0.43163159 -0.0058994582 0.021967536 14472909
0.418625 0.0079747913 0.029136138 8753798
0.42348513 0.0046464619 0.024857929 11120549
0.42999998 0.000474831 0.020448886 13947592
0.41800004 0.015563174 0.028161678 12434865
0.42188901 0.014935274 0.023527302 12237744
0.41820008 0.022523245 0.028436817 14341318
0.4223451 0.025763934 0.024608405 14341319
0.42394739 0.03168809 0.025883608 11710629
0.43200001 0.033513486 0.020206889 11776423
0.43567294 -0.08415471 0.037158359 15591644
0.44314283 -0.083706707 0.032132335 15129546
0.43573591 -0.075168125 0.037445061 14539214
0.44359264 -0.07479468 0.032394998 14340289
0.43595913 -0.065172412 0.03773516 9538176
0.44424132 -0.065031782 0.03274665 9866108
0.43528301 -0.054845661 0.037425239 15525593
0.44319153 -0.055067666 0.032247044 15656150
0.43434417 -0.04454672 0.036856413 15590873
0.44211429 -0.045696467 0.031559099 15525079
0.42900002 -0.030994238 0.039148204 13347721
0.43465942 -0.034923121 0.035164773 15194308
0.44000003 -0.037969247 0.030881574 15262163
0.42681584 -0.024081612 0.038130075 13876130
0.43268254 -0.02565359 0.033462711 13742997
0.41850001 -0.011376396 0.038924523 11315100
0.42423156 -0.015311331 0.035063185 14538699
0.43000001 -0.01918816 0.030985028 14604491
0.4163135 -0.0044220272 0.036878098 11117465
0.42146519 -0.0065676114 0.032629788 14276041
0.41458821 0.0050572166 0.034987487 8619901
0.42000002 0.00062765973 0.03046109 13947592
0.41360012 0.015141387 0.034824803 8225141
0.41491589 0.024795191 0.035064124 9671046
0.42000002 0.02914126 0.03046109 14143684
0.41708109 0.032067407 0.0361306 10263182
0.42050004 0.031145332 0.030497354 12368816
0.42500001 -0.090401202 0.04475278 14144458
0.41752172 -0.084094286 0.048978556 10064266
0.42383835 -0.084767312 0.044733565 14275786
0.4301666 -0.084954448 0.04076501 15460314
0.41722867 -0.074764855 0.04859262 9604998
0.42359087 -0.075253054 0.044412285 13157306
0.43045005 -0.074933037 0.040791538 14604750
0.41731244 -0.065072998 0.048795417 5525573
0.42402795 -0.065041207 0.044596188 8288367
0.43060008 -0.064878307 0.040805575 9603970
0.41784996 -0.055131413 0.049378961 9604228
0.42380497 -0.054936823 0.045168705 13092025
0.43031573 -0.055002425 0.040752482 15394265
0.41829419 -0.045542035 0.049518157 10064262
0.42379764 -0.045022227 0.044943687 13288631
0.43000001 -0.044656094 0.040246096 15591386
0.41803855 -0.034344543 0.049137816 9471344
0.42404538 -0.035125189 0.044241115 13154728
0.43000004 -0.036602989 0.040246096 15524564
0.41664705 -0.024138507 0.047597587 9797218
0.42241675 -0.025678124 0.042990703 11704185
0.40866667 -0.012305453 0.049410582 14472651
0.41464207 -0.014663784 0.045168947 10788500
0.42057148 -0.017868372 0.041261852 10986393
0.40758514 -0.0043719164 0.047343876 14209735
0.41201761 -0.0058771656 0.04294109 10722708
0.4064326 0.0051443782 0.045567349 11515048
0.41052637 0.0035698384 0.040901594 8487540
0.40676785 0.014849314 0.045246303 11251362
0.41009092 0.015406915 0.040390007 8882043
0.40776649 0.024359159 0.046616308 13947073
0.41132435 0.025537329 0.041931842 13618110
0.40833333 0.030880759 0.047935367 11184799
0.41338465 0.031251255 0.042409401 11250335
0.40573344 -0.083942264 0.056994904 15327960
0.41300002 -0.083956107 0.052027944 12762548
0.40605834 -0.074852347 0.056599688 14407116
0.41247618 -0.07495293 0.051683884 13158331
0.4068906 -0.064900868 0.057048947 8946040
0.41278854 -0.065091327 0.052158706 8486513
0.40608343 -0.054939602 0.057025474 15393750
0.41328314 -0.055011764 0.052220259 14341320
0.40655005 -0.045484532 0.057682194 15459543
0.41395453 -0.044764791 0.053079646 14341319
0.40745834 -0.03500206 0.058442634 14997444
0.41371426 -0.035223968 0.053502373 14208697
0.4066914 -0.024610141 0.057084206 13611409
0.41214815 -0.025688574 0.052293345 13677200
0.39860001 -0.012095448 0.059328683 14341835
0.40461218 -0.015052964 0.055039678 14472907
0.41100001 -0.018629543 0.050494172 14538699
0.39787889 -0.004529248 0.058463793 14078149
0.40252879 -0.0052354694 0.053564638 14209734
0.39786673 0.0046822606 0.058141559 12105901
0.40142354 0.0048727933 0.053108972 11843243
0.39818758 0.013938937 0.058532484 9803406
0.40166014 0.015533558 0.0536827 11119776
0.40293792 0.024920015 0.054952651 13749439
0.40640002 0.03057611 0.052304804 11249566
0.39650705 -0.084298633 0.066805311 15328471
0.40125003 -0.083822504 0.061856814 15262936
0.39720005 -0.075677171 0.067739457 14539982
0.40138894 -0.074505426 0.062894538 14407370
0.39857152 -0.064917527 0.069205679 8095088
0.40186295 -0.065124005 0.064220689 8420462
0.39771679 -0.054277603 0.067449689 14670798
0.40101519 -0.055600591 0.062776662 15262420
0.39680821 -0.044995192 0.066986337 14868690
0.40156135 -0.04484129 0.062120635 15393750
0.39621314 -0.035375036 0.067778096 14341061
0.40223944 -0.034856446 0.062905207 14931909
0.39645326 -0.024524532 0.067206793 12823950
0.40162075 -0.02532218 0.062386908 13545102
0.3952834 -0.014657965 0.06533879 13093053
0.40050003 -0.018739752 0.061040636 14538441
0.39396805 -0.0051474683 0.065119602 12041133
0.39426529 0.0047434513 0.065039985 10658972
0.39492431 0.014923424 0.065148242 8752772
0.3969886 0.024274409 0.066139534 11185825
0.40038458 0.027240483 0.06209543 12828594
0.39857146 0.031187056 0.068361469 11185056
0.40055558 0.030761186 0.063535862 11119262
0.38796231 -0.083823867 0.077091143 11514532
0.39147836 -0.0834077 0.072238542 12567734
0.38858333 -0.077802435 0.078479126 12172208
0.39288136 -0.074537165 0.074298419 11451561
0.39474252 -0.065092571 0.075103439 6319962
0.39442968 -0.054971837 0.075108856 10727842
0.39246476 -0.044939376 0.07485044 10988450
0.38899997 -0.034478929 0.078778125 13879736
0.39156073 -0.034798659 0.073983356 10986390
0.38880855 -0.024895305 0.078414418 11901813
0.39179313 -0.02504931 0.073214509 10128491
0.38860008 -0.015005799 0.077943824 13354680
0.39103034 -0.015366301 0.073044986 10264982
0.38814613 -0.005235204 0.076703429 12763314
0.39048839 -0.0055505368 0.071730547 9477262
0.38844603 0.0043419017 0.077349454 12040363
0.39086211 0.0051287175 0.072455324 9343369
0.3886604 0.013997137 0.078057446 8754051
0.39123696 0.015143746 0.073274016 8359296
0.38900003 0.020160437 0.078754179 13749951
0.39344826 0.024712505 0.074822366 11645862
0.39833334 0.030901708 0.073182918 11119006
0.37889999 -0.0845863 0.089216173 15459287
0.38297647 -0.082883395 0.084697507 15065044
0.38508502 -0.07506191 0.085056841 14473420
0.39000002 -0.070859186 0.080554381 12962489
0.38666978 -0.065522559 0.086375192 9010553
0.39086851 -0.064236417 0.081707463 7306085
0.38813519 -0.055347733 0.087318137 14472391
0.39129698 -0.05503729 0.08229275 14276040
0.38828292 -0.044847701 0.086212382 14670026
0.39039293 -0.04645253 0.081581466 14604746
0.38724819 -0.035198104 0.084779374 14077118
0.38593301 -0.025235254 0.085259981 10718316
0.38577294 -0.015228945 0.085315682 11972771
0.38486317 -0.0052811 0.085118331 13223094
0.38583624 0.004606246 0.084926285 11842983
0.3859055 0.014659422 0.085045122 9409674
0.38804349 0.022983493 0.086067215 13486009
0.39080957 0.026267571 0.083169445 12828080
0.37627986 -0.083321206 0.094900809 15130578
0.37750927 -0.075655401 0.096273176 14342091
0.38082597 -0.073968247 0.091594689 14276554
0.37853062 -0.066337407 0.098307893 9605763
0.3816697 -0.064405732 0.093547426 8878453
0.38290456 -0.055031996 0.094971821 13748925
0.38410556 -0.0451179 0.095181555 14867149
0.38371608 -0.034867484 0.094911732 11840672
0.37853128 -0.023485018 0.097360343 2370341
0.38106474 -0.025760325 0.093149498 2632485
0.37865856 -0.017238392 0.09772829 2435877
0.38116494 -0.014207205 0.093946919 3026729
0.38201541 -0.005302628 0.095145926 12170405
0.38324443 0.0049523632 0.094817407 11513763
0.3828181 0.015172414 0.094880529 9410182
0.38576791 0.024734689 0.094967417 13288885
0.38787502 0.030317457 0.096797332 11052699
0.36862078 -0.083407246 0.107583 13743247
0.3710486 -0.082650505 0.10335869 14469294
0.37324688 -0.075155012 0.1047902 13680035
0.37633777 -0.064969368 0.10509881 8812897
0.37824991 -0.055570692 0.10594381 11706242
0.38017863 -0.053085603 0.1018244 14012095
0.37899998 -0.049267247 0.10807899 12954249
0.38101536 -0.044587094 0.10483355 13417125
0.37841675 -0.031732436 0.1071355 6576456
0.38126487 -0.035650238 0.10434555 11444108
0.37623924 -0.024897382 0.10519474 2370340
0.37689295 -0.01494578 0.10520445 2960932
0.38000003 -0.010848481 0.10080269 3551015
0.37857899 -0.0089261457 0.10712563 9008993
0.38076431 -0.0045504156 0.10470126 10916729
0.37865394 0.0079974765 0.10816117 8421227
0.38087612 0.0044555319 0.10410935 10522227
0.37847367 0.014823602 0.10711862 8815465
0.38058618 0.015884828 0.10253349 9406055
0.37862498 0.021063343 0.10878377 12760994
0.38256913 0.02542058 0.10482128 12167052
0.38363639 0.031068694 0.10758799 10526092
0.36797675 -0.083399847 0.11517547 13813684
0.36843285 -0.077736624 0.11598303 13486009
0.37080252 -0.07299573 0.11437209 13484463
0.37338951 -0.065054506 0.11503755 8747368
0.37681913 -0.055066023 0.11503017 12826271
0.37794629 -0.04532617 0.11529218 14010544
0.38023818 -0.043280978 0.11108087 13216647
0.37777227 -0.035041068 0.11519159 9142900
0.38000005 -0.037906751 0.11062521 13413777
0.37297252 -0.025054304 0.11498528 2172960
0.37328002 -0.015144274 0.11513534 2961703
0.37827554 -0.005730541 0.11588817 10722960
0.38003039 -0.0034893046 0.1119987 11314065
0.37719977 0.0051934291 0.11504104 10265240
0.38000005 0.0011238744 0.1108476 11050634
0.37565029 0.015071932 0.11517441 9739149
0.37708333 0.023822222 0.11570564 13618108
0.38070965 0.027839616 0.11262377 13487035
0.37900001 0.030289123 0.11887382 12565424
0.38162956 0.031327222 0.11439811 11184541
0.3678551 -0.083775729 0.12380165 11775650
0.36812329 -0.077060431 0.12383014 11513249
0.37043405 -0.071855724 0.12469638 11710628
0.37229103 -0.06481313 0.12497717 7039581
0.37469307 -0.055046067 0.12447415 13486266
0.37665725 -0.045245443 0.12373304 13814975
0.36900002 -0.030114722 0.12955868 2370341
0.37647319 -0.035023611 0.12441145 7894637
0.38000003 -0.039018732 0.12926947 10065037
0.36870003 -0.023962 0.12713572 1515290
0.37073341 -0.025954766 0.12321049 1910047
0.3687444 -0.016362032 0.12794219 2040604
0.37106603 -0.014946521 0.12343479 2829861
0.3773481 -0.0047022728 0.12445011 9144959
0.37684661 0.0048620617 0.1246698 8882559
0.37426525 0.014833964 0.12380838 8817535
0.37502369 0.025030484 0.12319126 12039592
0.37737501 0.030491093 0.12333295 12039594
0.37300006 -0.064283065 0.13065438 7829356
0.37400001 -0.058540083 0.13065755 8553080
0.37850001 -0.047281839 0.13023597 10723474
0.38304761 -0.042703398 0.13231674 9078140
0.36541176 -0.030826727 0.13532379 2040863
0.37833333 -0.035600603 0.1304736 7303012
0.38111112 -0.038242195 0.13163097 7763051
0.36533946 -0.025850946 0.13423111 1909533
0.36668256 -0.015792826 0.133114 2566947
0.37800002 -0.00076246343 0.13006394 8817537
0.37800008 0.0041340096 0.13029988 10066830
0.36394116 -0.030904735 0.14387286 1317139
0.36344355 -0.025039747 0.14452049 1251858
0.36301857 -0.01580747 0.14500728 1907476
0.36333346 -0.032330792 0.15708426 2303519
0.37066671 -0.030395105 0.15501875 1120529
0.36507252 -0.024835778 0.15741101 659207
0.37172008 -0.026438534 0.15587184 725769
0.36406758 -0.015175969 0.15522456 2366226
0.36104885 -0.032166261 0.16335957 1777945
0.36216027 -0.024794605 0.16508108 1251856
0.36391151 -0.016298294 0.16499929 1316366
0.34733328 -0.033062052 0.17919204 1712409
0.35645458 -0.032085452 0.17812614 988686
0.36163837 -0.032666821 0.17408706 1317650
0.34735891 -0.025802612 0.17940071 1449237
0.3559576 -0.024949102 0.17723709 988687
0.3604311 -0.024425391 0.17220007 1580822
0.34900001 -0.017861288 0.1797276 1317652
0.35537228 -0.016780768 0.17785947 856846
0.36077774 -0.017126165 0.17237179 1317139
0.35700002 -0.0099132825 0.17966872 9605772
0.34271425 -0.033338476 0.18491785 1515287
0.3429358 -0.024887692 0.18468186 1449238
0.34361765 -0.016774863 0.18516049 1383190
0.35390002 -0.012713209 0.18075159 987660
0.36100003 -0.010024356 0.18844269 2107943
0.35825005 -0.0088465419 0.18307719 6645855
0.36044008 -0.0073760967 0.1874091 7699571
0.33900011 -0.032678612 0.19124348 1515030
0.33999997 -0.032444064 0.19037497 1580566
0.34000006 -0.024962172 0.19140963 1449237
0.34014821 -0.017436704 0.19136 1449237
0.79168016 0.094778985 0.28538087 10329747
0.79495835 0.10463434 0.28485641 10461333
0.79671431 0.096713364 0.29532361 10263955
0.79633337 0.089119874 0.30880442 10132110
0.7948001 0.08882378 0.31459573 10066575
0.79572427 0.09526442 0.31477338 10263953
0.79300004 0.089365378 0.3211261 10132368
0.79403847 0.09556175 0.32447618 10066575
0.79488569 0.13503294 0.32480985 10461333
0.79529041 0.14529794 0.32469228 10461333
0.79275006 0.0893372 0.33494458 10066575
0.79362971 0.094943702 0.33514273 10066575
0.79514295 0.12477263 0.33442214 10329749
0.79413342 0.13504086 0.33459991 10329748
0.79467994 0.14536636 0.33483106 10461333
0.79575008 0.15507714 0.33467966 10461333
0.7930001 0.088834964 0.34525964 9803660
0.79388887 0.095250368 0.34523368 10066575
0.79610717 0.10442782 0.34534639 10132368
0.79643345 0.11492059 0.34489095 10263954
0.79492015 0.12493834 0.34423625 10263955
0.79503125 0.13461202 0.34544611 10329748
0.79627287 0.14486721 0.34538347 10330004
0.79706687 0.17472333 0.3451654 10461334
0.79300004 0.089365378 0.35454181 10000782
0.79314804 0.094747171 0.3550193 10001039
0.79518533 0.10471456 0.35510316 10132368
0.79478568 0.1354132 0.3550739 10329747
0.79361546 0.1453144 0.35459942 10330004
0.79606909 0.15481202 0.35481843 10330005
0.79300004 0.088901266 0.36150342 9869454
0.79282612 0.095157102 0.36406785 9935247
0.79456007 0.10442554 0.36454132 10001040
0.79564303 0.14494216 0.36524147 10198162
0.79690915 0.15510382 0.36468688 10264211
