# .PCD v0.7 - Point Cloud Data file format
VERSION 0.7
FIELDS x y z rgb
SIZE 4 4 4 4
TYPE F F F U
COUNT 1 1 1 1
WIDTH 640
HEIGHT 1
VIEWPOINT 0 0 0 1 0 0 0
POINTS 640
DATA ascii
0.44825006 -0.13411757 0.038857985 12959673
0.45125005 -0.13322046 0.036951907 14473682
0.44870001 -0.1242244 0.039159719 12367280
0.45071429 -0.12624441 0.03751152 13946571
0.44831249 -0.11582544 0.039401185 14605267
0.45354548 -0.11605484 0.038009569 12236974
0.463 -0.11229847 0.038999185 13618624
0.47584617 -0.11445804 0.03712111 13289920
0.48050004 -0.1164919 0.03417309 13027009
0.44900003 -0.10917074 0.039922178 14606292
0.45700002 -0.10897618 0.039563641 11184286
0.46400002 -0.10846357 0.039621852 13552833
0.47440004 -0.10801599 0.037510835 13289922
0.48450002 -0.10475343 0.03683706 14013383
0.49800003 -0.10359729 0.03611815 14540758
0.509 -0.104694 0.033341207 12764090
0.49633336 -0.093572028 0.038315661 13421249
0.50312501 -0.091559283 0.037517261 12894646
0.51348573 -0.094420761 0.033183623 14013641
0.49900001 -0.088619128 0.039695177 15196628
0.50580007 -0.084944524 0.038053542 13552320
0.51413333 -0.084855124 0.033776399 13289147
0.50669229 -0.076022498 0.038480382 13815493
0.51486951 -0.075060926 0.034763612 13092539
0.50749999 -0.068146512 0.039183281 14671056
0.51410347 -0.064780608 0.035657696 12960438
0.51550752 -0.054982748 0.035705835 12894134
0.51731706 -0.046440732 0.03651233 12434352
0.52240002 -0.042304341 0.035930548 12303279
0.51800007 -0.036666371 0.039842099 12630704
0.52392858 -0.034784246 0.036590714 11513765
0.52412498 -0.027667562 0.037319377 10790041
0.523 -0.019420229 0.039155662 10592401
0.44800001 0.075656995 0.039833263 12829113
0.4537369 0.086076505 0.038497757 12434611
0.44486967 0.095990971 0.038513981 7303018
0.45220003 0.091395609 0.038088076 12630963
0.44400004 0.10096679 0.039477609 2369322
0.43491498 -0.14273547 0.046146929 13025209
0.42737502 -0.13317639 0.049252991 13683654
0.4347856 -0.13550353 0.045447052 13223872
0.44243994 -0.13416407 0.041366413 14209994
0.42673329 -0.12490093 0.048928309 11906985
0.43392733 -0.12507781 0.045423269 13486271
0.44352946 -0.12478974 0.041873313 14143945
0.42681482 -0.11528546 0.049086008 11643299
0.43444231 -0.11493443 0.046166953 13815492
0.44325 -0.11472502 0.042282023 13420479
0.42750001 -0.10544299 0.049573604 11249311
0.43469757 -0.10512003 0.047374438 13224384
0.44481486 -0.10542911 0.043550894 13552065
0.45199999 -0.10418807 0.041244715 14144458
0.46525002 -0.10631119 0.040550008 11578274
0.47300005 -0.10540719 0.040578142 13682881
0.43468425 -0.095317788 0.048524093 13158333
0.44510001 -0.094826989 0.04468818 13552321
0.4515 -0.097618178 0.041728158 13353914
0.43690482 -0.085720554 0.049413431 11842473
0.44579998 -0.08522176 0.046267807 13421504
0.45043743 -0.083156876 0.043015473 12697522
0.49833336 -0.083835475 0.041779887 12105900
0.50199997 -0.082688361 0.040519666 13750471
0.44576797 -0.075341009 0.047637366 13091770
0.45179173 -0.074497804 0.044046823 12960698
0.49600005 -0.073216423 0.043431692 13421249
0.50159997 -0.075696185 0.040604938 12368560
0.44678578 -0.067837276 0.049060613 12368304
0.45383787 -0.064537078 0.047469713 13223097
0.49590251 -0.065076247 0.044877708 13553090
0.50376928 -0.063833408 0.041431013 13552834
0.45800003 -0.055906486 0.048838709 13552575
0.4615556 -0.055674408 0.048121411 13288889
0.47500002 -0.054889321 0.048349835 12762546
0.49672228 -0.05661555 0.046808857 13816262
0.50413167 -0.054837693 0.043418769 13223613
0.51077789 -0.053906605 0.040764757 11709603
0.49808002 -0.04512734 0.048202008 13814980
0.50444746 -0.044647194 0.044440739 13025720
0.51164711 -0.045064118 0.041334145 13289406
0.49863642 -0.036236417 0.048686195 12959157
0.50417942 -0.034820378 0.046122067 12433327
0.51348287 -0.034521908 0.0420014 13486013
0.50448489 -0.025495635 0.04771122 12368561
0.51454538 -0.024879081 0.043413941 12697013
0.52075005 -0.023754181 0.040358461 12499890
0.50505883 -0.015618305 0.048868395 13552836
0.51530778 -0.014925566 0.045653362 12170155
0.5222857 -0.01514253 0.041604288 12631216
0.50687498 -0.0051752366 0.049218964 13222327
0.51583731 -0.0053636474 0.045350052 12301736
0.52118748 -0.0051689916 0.041077867 11579300
0.50731254 0.0044701919 0.049261808 11579819
0.51531249 0.0050679874 0.04675401 12631735
0.52229631 0.0050626029 0.042768665 11053217
0.50600004 0.013983713 0.049728468 11515571
0.51545966 0.015203387 0.047158945 12039857
0.52200001 0.014669665 0.042989049 11579304
0.4975 0.024038363 0.049473681 12172475
0.5 0.023572138 0.049138799 11711924
0.51466674 0.021052493 0.046954751 11579563
0.43400002 0.036981769 0.049381152 11380642
0.51675004 0.037442539 0.046696804 12762807
0.43842861 0.044570021 0.048951458 11380383
0.44099998 0.046558209 0.047108952 11710631
0.51734298 0.043248262 0.046515752 12235951
0.43708578 0.055743162 0.048623741 12564914
0.44157141 0.053228799 0.046864804 11775399
0.43632299 0.065150209 0.047255795 12302254
0.44025004 0.068422496 0.042750519 13684676
0.43517229 0.074958801 0.047375903 12629677
0.44250003 0.075102977 0.043150567 12432811
0.43440902 0.08517538 0.04704015 11908269
0.44484204 0.084462643 0.042915288 12171955
0.45144448 0.084814347 0.040139519 12961467
0.43503568 0.094688423 0.04719802 12565683
0.44300002 0.095501736 0.042381424 12171439
0.45000002 0.090743154 0.040011089 12895931
0.43578571 0.10501875 0.04826488 9340543
0.4431667 0.10189921 0.042771071 11314328
0.43383336 0.11151875 0.049068049 3024669
0.41800001 -0.14371127 0.058300413 14211023
0.42294648 -0.14370339 0.053344421 13026238
0.41627696 -0.13433433 0.057124145 13947083
0.42286062 -0.13564165 0.052323841 14078927
0.41540852 -0.12507935 0.056605991 13487043
0.42202505 -0.12511262 0.051895302 14670546
0.41419756 -0.11493915 0.056661788 13157306
0.4218049 -0.11500827 0.051782206 14934232
0.40899998 -0.1037537 0.059345067 14670546
0.41440541 -0.10511944 0.056354485 13025977
0.42245001 -0.10480907 0.051822297 13749698
0.40900001 -0.098966315 0.059345067 14407630
0.4142192 -0.095010512 0.057061203 12960184
0.42391387 -0.095075637 0.052225322 13157562
0.43000001 -0.091968067 0.050312471 14737363
0.41461769 -0.085206166 0.057510052 12893618
0.42412004 -0.085187338 0.053229224 12894133
0.43184996 -0.083714202 0.050981332 14277327
0.41539279 -0.075259559 0.058146458 12367533
0.42393753 -0.075037211 0.054494951 12630962
0.43433338 -0.074926347 0.051489182 13092028
0.44000003 -0.070930786 0.050452482 14473938
0.41638896 -0.065549225 0.058788676 13026231
0.42377269 -0.06562826 0.055866238 12500146
0.43442503 -0.064919911 0.05326236 12566196
0.44368005 -0.06407921 0.05124395 13289147
0.4506667 -0.061044332 0.050620556 14867406
0.41788894 -0.057582438 0.059329849 14473676
0.42430004 -0.055257834 0.05810656 12565682
0.43437213 -0.05477092 0.055473361 12828083
0.44462505 -0.054433525 0.05302586 12959411
0.45373335 -0.054943107 0.051317099 13485754
0.4269 -0.047730617 0.059542544 13420221
0.43412516 -0.044936512 0.057709515 12959156
0.4445 -0.046762723 0.054522138 12828596
0.45344442 -0.046735648 0.051696129 12894646
0.48000002 -0.044230219 0.051668007 12302766
0.49400005 -0.040702451 0.051245991 12104620
0.43339998 -0.036242977 0.05806784 11972775
0.44500002 -0.030582886 0.057792522 13486011
0.46477783 -0.031887583 0.054501578 13026491
0.47600001 -0.036060192 0.052351765 9737867
0.48500004 -0.034280058 0.052206215 12632505
0.49653852 -0.034659915 0.05107642 13354686
0.44559097 -0.025593454 0.059056636 11776938
0.4556061 -0.024706231 0.056402486 12040366
0.46188232 -0.025931528 0.053722311 11973547
0.49739406 -0.024645872 0.051948421 12894135
0.44566676 -0.014940088 0.059053525 11185834
0.45393336 -0.01607934 0.057283096 11581106
0.46316671 -0.015928084 0.056001205 10658975
0.47150004 -0.013635868 0.055996932 11973549
0.48483336 -0.013021193 0.054830767 11906210
0.49417868 -0.015959593 0.052112821 12237490
0.50100005 -0.010393367 0.050409932 8879733
0.4354445 -0.0036644062 0.058703348 12104618
0.44410005 -0.0082805352 0.057673864 12039856
0.48628575 -0.0059612351 0.055810314 12301736
0.49442425 -0.0045746621 0.05279154 11841445
0.50212508 -0.0051233713 0.050523128 11973291
0.42436847 0.0056607854 0.05916559 11906985
0.43133339 0.0011475253 0.058208276 12368048
0.48700002 0.00015774851 0.056981798 10723735
0.49586213 0.004771295 0.053928141 12563626
0.50255561 0.004869794 0.051153012 11776172
0.42393759 0.015957044 0.058527291 11775911
0.43190911 0.013648216 0.057335857 11050906
0.49487099 0.014361667 0.053785205 12301226
0.50218183 0.013521153 0.051168155 11382440
0.41800004 0.025083393 0.059672408 13157306
0.42434373 0.025047017 0.056652565 11512482
0.43000001 0.027043967 0.05278331 12564915
0.49700001 0.022267221 0.050007451 12633796
0.41740003 0.035261713 0.059048086 12960441
0.42441368 0.035148818 0.056226008 11710118
0.43072224 0.034564387 0.052327469 11578020
0.49900001 0.030534003 0.050208692 9867661
0.505 0.03366901 0.050812405 11117207
0.51240003 0.038313329 0.050597169 12630959
0.41715628 0.044903368 0.058603905 13158080
0.4239473 0.045055769 0.055217914 12038827
0.43289194 0.045117442 0.051685501 11578019
0.51550007 0.043613933 0.050662108 13289150
0.41688094 0.05524822 0.058091998 12894646
0.42406568 0.054980163 0.054180756 12039338
0.43225005 0.054481085 0.051120993 10854038
0.41652387 0.064795837 0.058111396 13223095
0.42374632 0.065222077 0.053773198 12498344
0.43046674 0.064296588 0.05070262 10590867
0.41721958 0.07498388 0.058129091 13419961
0.42400023 0.075224154 0.053282782 12367529
0.43000001 0.072113879 0.050312471 11181975
0.41727501 0.08490032 0.058149952 13289661
0.42440739 0.085148156 0.053174991 12433583
0.41777274 0.093804263 0.058749735 13948105
0.42395294 0.095002241 0.05422353 12368561
0.43016672 0.097989202 0.050667513 10854551
0.42595652 0.10421658 0.057376534 12169640
0.43178439 0.10611625 0.053032327 9670024
0.42812005 0.11303053 0.058388792 2696217
0.43103334 0.11204215 0.053658046 2827290
0.41650003 -0.15050726 0.062869132 12960186
0.40840742 -0.14321162 0.068394251 15065305
0.41397309 -0.14510445 0.063474178 12960187
0.4070974 -0.13443087 0.066857956 13946824
0.41180485 -0.13551702 0.062006328 11840163
0.40610701 -0.12485202 0.065705098 13288380
0.41030774 -0.12643765 0.060938518 10853010
0.40510663 -0.11501406 0.064932942 13091256
0.40424427 -0.10495511 0.064809933 12959927
0.3985334 -0.093417361 0.06945686 11840935
0.40426084 -0.095094025 0.064387798 13354684
0.39850008 -0.08512716 0.069482148 12828343
0.40423211 -0.085108139 0.064851575 13223097
0.41020006 -0.084850535 0.06047947 14539728
0.39847627 -0.07520856 0.069500208 14276815
0.40420026 -0.075026132 0.065187819 12828856
0.41100004 -0.074540153 0.060970698 14013128
0.39800003 -0.066955298 0.069861419 14078664
0.40416521 -0.065058015 0.065825626 12763062
0.41196764 -0.064229369 0.061141774 12105130
0.40439552 -0.055114113 0.066674538 12893876
0.41328308 -0.054824837 0.061894912 12170922
0.42100003 -0.051113199 0.060100675 14276045
0.40421927 -0.045223463 0.067270942 12434094
0.41436732 -0.045160133 0.063421302 12236972
0.4233126 -0.043954425 0.061168224 12367018
0.43000001 -0.040126223 0.060378846 14537933
0.40507558 -0.035274122 0.068232074 12696753
0.4144375 -0.035055697 0.065239988 12170924
0.42415226 -0.034854475 0.062355336 12301997
0.43010005 -0.034596708 0.060392886 11775140
0.40520516 -0.025087874 0.068859264 12565940
0.41420767 -0.024909953 0.065854825 11907496
0.42277792 -0.025270559 0.062951609 11841960
0.43426663 -0.025070222 0.061243121 12236461
0.44175002 -0.023125457 0.06047548 12697269
0.4061065 -0.014836971 0.068750799 12960443
0.41406533 -0.015037812 0.065803394 12235690
0.4235715 -0.014954085 0.063368186 11842219
0.43382147 -0.015239045 0.061671589 12104876
0.4419167 -0.014338978 0.060499076 12434615
0.4053078 -0.0050149905 0.068180852 12302000
0.41426668 -0.0051894942 0.06482096 11776168
0.42353338 -0.0046559665 0.062272787 11249308
0.43318751 -0.0065820618 0.060886417 11249055
0.40485972 0.0053854957 0.067895941 11710119
0.41461194 0.0050901314 0.063827462 11380899
0.42225006 0.0033831818 0.061058674 11183516
0.40453964 0.015182518 0.06718421 11578277
0.41401792 0.014946272 0.062487204 11315104
0.42100003 0.014919899 0.060100675 8419183
0.40537223 0.025124289 0.066684365 12103846
0.41352004 0.024836138 0.061910473 11840933
0.40526879 0.0351221 0.066564061 12170154
0.41284442 0.034882762 0.061423302 11908011
0.40581614 0.044901066 0.066668861 12301996
0.41228265 0.045263384 0.061579179 11052703
0.40590486 0.054940399 0.066996552 12828597
0.41196078 0.05485791 0.061755825 10854296
0.40685567 0.064955905 0.067103699 13157819
0.4123674 0.065187402 0.061820235 11052444
0.40731844 0.074725643 0.067200586 13947334
0.41237691 0.075162403 0.062186934 11248281
0.40783879 0.084966868 0.067350119 14276297
0.41259676 0.085131295 0.062338021 11775651
0.40833342 0.094105221 0.068248719 14473935
0.41332915 0.095364459 0.063599713 12434610
0.41563085 0.10439703 0.066644385 11906466
0.42213169 0.10642549 0.062416125 12629932
0.41800004 0.11071104 0.067010321 2498327
0.42399999 0.11240953 0.063129723 2695704
0.40486601 -0.14441454 0.075107798 13157307
0.39853847 -0.13214058 0.078782648 13288380
0.4023107 -0.13530919 0.074538127 13354172
0.39764711 -0.1246121 0.078156367 13618373
0.40114105 -0.12517838 0.073251717 12828085
0.39702356 -0.11464061 0.076473922 13552068
0.40024316 -0.11565139 0.071672626 11643042
0.39613533 -0.10485285 0.074926913 12762807
0.40000001 -0.10830639 0.070399761 11906727
0.39477581 -0.095130987 0.075105928 12696241
0.39421117 -0.085048161 0.075170718 12630962
0.38900003 -0.072271146 0.079209507 11644068
0.39378375 -0.075175077 0.074907988 12893879
0.38891664 -0.065578595 0.079268232 14341837
0.39377612 -0.064913794 0.074426338 12696240
0.38899997 -0.055044573 0.079133622 14341580
0.39409354 -0.055050716 0.07415621 12893877
0.38873342 -0.045012347 0.07906349 14143943
0.39413536 -0.044879813 0.073815763 12236461
0.38836375 -0.035126638 0.078603216 13683648
0.39388871 -0.034986876 0.073650159 12498604
0.40000004 -0.034517497 0.070212476 11379869
0.3881591 -0.025316237 0.07858222 12763832
0.39409766 -0.02492141 0.074054934 11710374
0.40050003 -0.02445356 0.070664406 10131601
0.38865712 -0.015575448 0.07903488 12368304
0.39421269 -0.014784218 0.074580029 12169898
0.40099999 -0.01489008 0.070856214 9801868
0.38871998 -0.0063527119 0.079151846 11250335
0.39377528 -0.0050361142 0.074916564 11710376
0.40040007 -0.0050266287 0.070750877 10129291
0.39408854 0.0047651143 0.075480513 11315102
0.40000007 0.0046637491 0.070606753 9866371
0.3949008 0.014921181 0.075772174 11379867
0.40000001 0.015112084 0.070680678 10129029
0.39585173 0.024885926 0.075822026 11972260
0.40030435 0.025391895 0.070917293 10852750
0.39668116 0.03500779 0.076346487 12039338
0.40035132 0.035136759 0.071413144 10854039
0.39715782 0.044708442 0.076901868 11514023
0.40070006 0.045418195 0.072190382 11184800
0.39764819 0.054691307 0.078174956 11512738
0.40099993 0.055112474 0.073160574 12171181
0.39856008 0.064286381 0.078766614 11051415
0.40151072 0.06507609 0.074109748 12565424
0.39900002 0.071305096 0.079190791 10392969
0.40210095 0.07526274 0.0747291 12301738
0.40286389 0.085048541 0.07492651 12235432
0.40472952 0.094841689 0.075094387 12433582
0.40810645 0.10335624 0.076735169 12499632
0.41158491 0.10635988 0.073441759 9801609
0.41100001 0.11078134 0.076631054 2366744
0.39722219 -0.14367999 0.087181725 13881543
0.40093613 -0.14541529 0.082455195 11644068
0.39597383 -0.1349737 0.085101105 13551034
0.40000001 -0.13908297 0.08082509 10262159
0.39395806 -0.12472089 0.085213199 12959670
0.38900003 -0.11006338 0.08922673 8879737
0.39269406 -0.11504568 0.084921554 13156279
0.38887095 -0.1035082 0.088433132 12827570
0.39159372 -0.10552765 0.08383771 12828341
0.38810977 -0.09443339 0.086702771 13091514
0.39068177 -0.09594851 0.082044505 11907496
0.38730273 -0.08475367 0.085642509 13223357
0.39023805 -0.085270368 0.080853388 11052445
0.38656604 -0.074819826 0.084846318 12762548
0.39000002 -0.079304412 0.080326125 14077380
0.38554552 -0.065023206 0.084870942 12630704
0.3852514 -0.055028863 0.084741913 12499633
0.38455486 -0.045046452 0.084978409 12301483
0.38394716 -0.034898121 0.08495231 11380637
0.37856254 -0.023418212 0.089103118 2238758
0.38365352 -0.025184389 0.084661901 10262928
0.37887499 -0.017615754 0.089343354 2698023
0.38389394 -0.015071284 0.084906548 10131343
0.38527185 -0.0051898649 0.085028298 11051928
0.38638628 0.004436871 0.085194431 10986906
0.39000005 0.0068596816 0.080440253 12498603
0.38744015 0.014404261 0.08606755 10921885
0.39046881 0.015495703 0.081392951 11710887
0.38825688 0.024521131 0.087345958 11183769
0.39153033 0.02520987 0.082262255 11514279
0.38895649 0.03239153 0.088266417 9736840
0.39190015 0.035440952 0.084037051 11579300
0.39307737 0.045111813 0.085187696 11315871
0.39418688 0.054934904 0.085206456 11644321
0.3955715 0.065018438 0.084785514 11973286
0.3967022 0.074846588 0.085198522 12433581
0.40000001 0.078600489 0.080700234 9933193
0.39732665 0.08487013 0.085987248 12631473
0.40000004 0.085075058 0.081048071 9999242
0.39766037 0.093083933 0.087099418 13749955
0.4010908 0.096191414 0.083387911 11249306
0.40426049 0.10523976 0.08486481 9867657
0.40469563 0.1110995 0.084584787 2631192
0.39382291 -0.14420868 0.09465158 12696756
0.389 -0.13248828 0.099130109 15327962
0.39166361 -0.13508348 0.094651707 12894133
0.3888889 -0.12387048 0.098001182 14209478
0.39086846 -0.1252929 0.093492344 12367018
0.38818008 -0.11431269 0.095876493 13090999
0.39031997 -0.11697991 0.091685303 11183001
0.38705784 -0.10507588 0.09478572 12696241
0.38515493 -0.094894662 0.095019527 12828341
0.38333827 -0.084787354 0.094995201 12367791
0.38220286 -0.075095892 0.095010422 12038825
0.37899998 -0.062378779 0.099157251 13881798
0.38113031 -0.065177068 0.094655909 11907238
0.37856108 -0.054132577 0.098611496 13290174
0.38097975 -0.055400718 0.093617238 11183773
0.37858975 -0.045462452 0.098655075 12565680
0.38082361 -0.044793472 0.093431264 11314844
0.37843859 -0.033482846 0.096967831 7631470
0.38048673 -0.036220804 0.093354441 10394257
0.37600651 -0.024827309 0.09499836 2304291
0.37640575 -0.015063553 0.095054984 2567205
0.38057145 -0.011331326 0.090601943 4802880
0.37860003 -0.0090947328 0.097711816 6514780
0.3814539 -0.0048037525 0.094755873 9802889
0.38250723 0.0048631397 0.095140673 10461075
0.38415408 0.015184052 0.094774999 10790041
0.38551638 0.025022209 0.094995968 10921113
0.38777792 0.034847751 0.094833769 10986905
0.39000002 0.0393852 0.090369098 12631984
0.38858709 0.044157978 0.09633828 11972773
0.39037842 0.046167638 0.091839068 10722703
0.38899997 0.052078933 0.098060057 12696752
0.39100939 0.055674877 0.094364852 11908008
0.39217493 0.064930715 0.09492401 11907236
0.39352146 0.074908078 0.094753563 11776164
0.39465839 0.084970027 0.095247604 11776422
0.39657396 0.094821483 0.095042937 11973287
0.39877784 0.10152282 0.097640403 13289659
0.40142351 0.10542098 0.094394125 9736071
0.40466666 0.11213604 0.095415063 2499351
0.38860005 -0.14344652 0.10754576 13026749
0.39094239 -0.14472385 0.10278158 11841703
0.38798282 -0.13504407 0.10529009 12696753
0.39000002 -0.13956222 0.10041206 14538444
0.38723472 -0.12503353 0.1049977 12235433
0.38565299 -0.11498702 0.1051564 12235948
0.38413313 -0.10492711 0.10502306 12170412
0.38217324 -0.09502504 0.10488553 11973804
0.37878576 -0.081711598 0.10848173 13551294
0.38081095 -0.08559715 0.1045963 11644324
0.37830314 -0.074681699 0.10612897 12104875
0.38016135 -0.076758854 0.10186891 10591637
0.37801388 -0.065023698 0.1047587 11578017
0.37760594 -0.05489416 0.10513156 11512734
0.37789479 -0.044908077 0.10512707 11118494
0.37739813 -0.035266232 0.10499077 8355445
0.37297833 -0.025070304 0.10489226 2172961
0.37356675 -0.01501238 0.10511205 2435878
0.37811479 -0.0075947074 0.10579535 7500649
0.3803435 -0.0030620834 0.10439306 9474184
0.38093448 0.0051441919 0.10501417 10066060
0.3819924 0.015329094 0.10505318 10394767
0.38354778 0.025269389 0.1050293 10657941
0.38537857 0.035313036 0.10508189 10592147
0.38713178 0.044990662 0.10510661 11183768
0.38862196 0.054316554 0.10527697 11578528
0.39000005 0.058558136 0.10132506 10196363
0.38899997 0.06169647 0.10794577 12829107
0.39063868 0.065701455 0.10434975 11249817
0.39186245 0.075174198 0.10484792 11184027
0.3925536 0.085042611 0.10466861 11512733
0.39492851 0.094901368 0.10491144 11644834
0.3972435 0.1035217 0.10553894 11183258
0.40036845 0.10747299 0.10155204 6577752
0.40230003 0.11154498 0.10188095 2565142
0.38612619 -0.14432237 0.11514235 12301999
0.38429976 -0.13499652 0.11512089 12630962
0.38434011 -0.12517753 0.11529037 12696755
0.38357019 -0.11503171 0.1152759 12432812
0.37900001 -0.10084581 0.11940618 13947592
0.38169748 -0.10522994 0.11501383 12104359
0.37855771 -0.093492076 0.11752354 12828854
0.38054982 -0.095992506 0.11353451 11314587
0.37810653 -0.084853835 0.11491949 11644066
0.38000003 -0.088835597 0.11051401 11248538
0.37703073 -0.074829027 0.11505055 11578016
0.37645438 -0.065093979 0.11498664 11578271
0.37649983 -0.054963715 0.11500173 11381150
0.37705681 -0.044958971 0.11481857 11052700
0.37652445 -0.035145279 0.11481949 7499879
0.36857152 -0.023318315 0.1176615 1711897
0.37103239 -0.025886361 0.11365392 2107168
0.36850923 -0.016867274 0.11735393 2040863
0.37106466 -0.01433353 0.11371277 2765099
0.37752387 -0.0051372186 0.11498228 8553077
0.38000003 -0.0012112911 0.11029161 8223087
0.37846339 0.004732741 0.11544672 9934475
0.38004771 0.0065632439 0.11089849 8684149
0.37887496 0.013122694 0.11814125 10065545
0.38062251 0.015872085 0.11418898 10657167
0.38147208 0.025231373 0.11500887 11249306
0.38346082 0.035041343 0.11517622 11118234
0.38538453 0.045299798 0.11508477 11052186
0.38745254 0.055025142 0.11512376 11447456
0.3888889 0.063338511 0.11519705 10986649
0.3900001 0.068413138 0.11416072 11381151
0.39145422 0.07526847 0.11494833 10854291
0.39197308 0.085042946 0.11483017 11183513
0.39333341 0.094976626 0.11496685 11052698
0.39515218 0.10381481 0.11518645 10920343
0.3782059 -0.14299907 0.12799776 14802390
0.38210964 -0.14455648 0.12361251 12564914
0.37706664 -0.13501084 0.12745987 14210251
0.38102928 -0.13488211 0.12261698 11906725
0.37718531 -0.12532651 0.12802213 14210765
0.38089472 -0.12472283 0.12314931 11908266
0.37709096 -0.11423432 0.12822048 14671059
0.38092396 -0.1153981 0.12317708 12301739
0.37703326 -0.10473561 0.12599835 13420733
0.38044003 -0.10728604 0.12149786 12828339
0.37606725 -0.095060766 0.12499008 13025720
0.37520564 -0.085038178 0.12489069 12894904
0.37429747 -0.075148128 0.12502638 12499375
0.37398675 -0.06510786 0.12508631 12433323
0.37497056 -0.055023901 0.12496328 11907750
0.37573153 -0.044964973 0.12506895 11249564
0.36850002 -0.030073917 0.12895122 2172960
0.37490073 -0.035294592 0.12457594 6710621
0.36738193 -0.024764802 0.12517808 1580568
0.37 -0.029330159 0.1221142 2040863
0.36742169 -0.01573788 0.12509903 2040861
0.37100002 -0.010822212 0.12339914 5987667
0.37699115 -0.0045720576 0.12502155 8158319
0.37743011 0.004982146 0.12500404 10198161
0.37780273 0.015159236 0.1251277 10723733
0.38000003 0.019249208 0.12007707 9669246
0.37837085 0.024357699 0.12611872 11578785
0.38034087 0.026107596 0.12178263 9670017
0.3789286 0.031297408 0.12822887 12631732
0.3813391 0.035352293 0.12461134 10657425
0.38361347 0.045030873 0.1252538 10986647
0.38575181 0.055100381 0.12525661 11578014
0.38828939 0.064840749 0.12503651 11446941
0.39000002 0.069514103 0.1209545 13816516
0.38899997 0.071222223 0.12786457 11644577
0.3909997 0.075755708 0.12470049 11183512
0.39129242 0.085069358 0.125245 11513249
0.39243084 0.094953187 0.12483632 11250077
0.39337039 0.10459035 0.12524551 9209983
0.39675003 0.11205082 0.1288525 2565656
0.3755689 -0.14483882 0.13455258 12105389
0.37343922 -0.13514298 0.13457537 12434355
0.37372893 -0.1252321 0.13477726 11973547
0.37401611 -0.1151317 0.13484147 11973032
0.37305564 -0.10485501 0.13461123 11381407
0.37197047 -0.094912574 0.13454512 11381152
0.37137255 -0.084953293 0.13465838 11381153
0.3711029 -0.075054981 0.13503519 11315359
0.37125152 -0.064860702 0.1348609 11578785
0.37268117 -0.05517615 0.13485506 11973542
0.37364766 -0.045032978 0.13494946 11315871
0.36767858 -0.031391338 0.13569966 2040861
0.37375793 -0.03622923 0.13449946 7302498
0.36347282 -0.024911625 0.1348718 1712665
0.36427745 -0.01562885 0.13485457 2172189
0.37100002 -0.010302038 0.13286646 6908513
0.37444806 -0.0049235849 0.13473397 8421750
0.3745265 0.0050294306 0.13486108 10132112
0.37474999 0.014962271 0.13496493 10855062
0.37611097 0.024882024 0.13478911 11710627
0.37756565 0.034506496 0.13580656 11973286
0.38042864 0.037698347 0.13153476 11184289
0.37835905 0.043502286 0.13815787 13551804
0.38122457 0.04531322 0.13396573 11315354
0.38305208 0.054782581 0.1350182 12039078
0.38558003 0.064873584 0.13526045 11907749
0.38777423 0.07449203 0.13539454 11776163
0.39000005 0.07814607 0.13120498 12959667
0.3882564 0.084491953 0.13700333 12566192
0.39034605 0.085532822 0.132413 12170410
0.38873681 0.091561414 0.13840339 13487035
0.39140728 0.095549963 0.13468979 11447199
0.39180309 0.10462808 0.13485654 9604741
0.39650008 0.11224664 0.13237453 2565400
0.37443754 -0.14193535 0.14253719 10395028
0.37430778 -0.13527654 0.14317189 10921629
0.37492481 -0.12490496 0.14345872 10263442
0.37612912 -0.11505563 0.14399633 9671047
0.37542692 -0.10515234 0.14381418 9210754
0.37415943 -0.094999738 0.14330569 9407876
0.37345728 -0.08518257 0.14362918 9342339
0.37180635 -0.075118266 0.14290054 9013631
0.37144238 -0.065294519 0.14249024 9802633
0.37201479 -0.055551842 0.1422639 10066317
0.3733561 -0.044676486 0.14255813 9538946
0.36426926 -0.031174302 0.14386152 1317652
0.3731702 -0.037021615 0.14299242 6973792
0.36182603 -0.024839671 0.14418548 1054479
0.36277673 -0.015471872 0.14491661 1579537
0.36900002 -0.0093826661 0.14467582 6777180
0.37354556 -0.0045145 0.14416467 6579804
0.372419 0.0047822357 0.14431313 8026222
0.37232232 0.015050184 0.14432822 9077881
0.37322789 0.024996782 0.14462152 9867653
0.37437111 0.035038996 0.14469294 10130827
0.37658766 0.04516992 0.14472039 10525585
0.37846386 0.054362006 0.14599659 10657938
0.38051152 0.057009391 0.14192666 12631988
0.37900001 0.06067729 0.14881837 11907744
0.38148493 0.065300077 0.14480658 11447711
0.38338366 0.075081348 0.14483508 11645350
0.38447767 0.084838614 0.14467405 11841701
0.38748533 0.093337044 0.14450014 11381921
0.39011434 0.098472193 0.14464453 10723991
0.39061719 0.10520162 0.14454505 9276547
0.39122224 0.11094532 0.1442793 2696987
0.36411363 -0.03228749 0.15713935 1712152
0.37 -0.030412875 0.15502891 857613
0.36523649 -0.025968252 0.15771365 462599
0.37139472 -0.026442243 0.1566195 659721
0.3636086 -0.01605672 0.15583475 1118217
0.37300003 0.023697216 0.15017352 8553334
0.37609097 0.04654932 0.15045683 11053469
0.37805882 0.054114193 0.1508567 11710371
0.37900001 0.061786346 0.15170193 11579044
0.38040006 0.065704219 0.15119366 11974058
0.38172719 0.075191148 0.15124957 11382181
0.38262504 0.082870439 0.1505769 11184292
0.39133334 0.098914988 0.15083714 4012851
0.39163169 0.10362944 0.15091984 2368028
0.36226997 -0.032688972 0.16423175 1251858
0.36290288 -0.024855385 0.16518256 1054992
0.36415058 -0.016655188 0.16474174 857100
0.34770837 -0.034139682 0.17943279 1580821
0.35560787 -0.03234959 0.17862432 857101
0.36207819 -0.032783456 0.17399125 1120015
0.34900001 -0.025541227 0.17972758 1382931
0.35574198 -0.025130654 0.17849664 791308
0.36096039 -0.024639225 0.17332602 1383186
0.35577419 -0.018473949 0.17941564 659722
0.36233339 -0.016358513 0.17609701 1119503
0.3433708 -0.033339389 0.18489738 1383700
0.34407952 -0.024984265 0.18471158 1317907
0.35000002 -0.021189893 0.18024258 1448467
0.34536526 -0.016964704 0.1853545 1252114
0.35396564 -0.015620294 0.18061504 1119759
0.36289999 -0.011658006 0.18206257 1974299
0.3643333 -0.0084468937 0.18526977 6777184
0.33900008 -0.031981595 0.19139229 1383443
0.33999997 -0.033380829 0.1905219 1317651
0.33900002 -0.028459975 0.19164032 1383698
0.34004769 -0.024453428 0.19132267 1317906
0.34166676 -0.016790699 0.19132091 1186323
