# .PCD v0.7 - Point Cloud Data file format
VERSION 0.7
FIELDS x y z rgb
SIZE 4 4 4 4
TYPE F F F U
COUNT 1 1 1 1
WIDTH 391
HEIGHT 1
VIEWPOINT 0 0 0 1 0 0 0
POINTS 391
DATA ascii
0.5673334 -0.072419398 0.048447113 15001058
0.5721429 -0.072522677 0.045702279 15658984
0.56596559 -0.064328343 0.048076317 15395559
0.57249999 -0.067498364 0.0448699 15855848
0.55850005 -0.051464289 0.049658209 15132643
0.56272417 -0.055651892 0.047574915 15395816
0.5571177 -0.045162302 0.048612386 15198182
0.56046152 -0.045235462 0.046400674 15330279
0.55850005 -0.036862187 0.049440101 14869218
0.56120008 -0.0342368 0.04742644 15132387
0.56404549 -0.025079221 0.048584819 14672091
0.55549997 -0.012990629 0.048902489 14342870
0.56159997 -0.017700655 0.048222788 14672092
0.55725002 -0.0053601004 0.048648555 14014161
0.56 -0.0017850604 0.047169637 15132125
0.55900002 0.00083538517 0.049702663 13882576
0.56059998 0.0047758366 0.049319364 14408919
0.54700005 0.019385237 0.049916241 14079445
0.55575001 0.016759107 0.049413696 13948369
0.56033331 0.011986476 0.049821217 14211541
0.53800005 0.026623091 0.049094949 13948112
0.54575002 0.021893233 0.048842937 13816783
0.52700007 -0.080635391 0.054874249 14737630
0.48210001 -0.074217513 0.059455074 14408667
0.51866668 -0.073088683 0.059472781 14474460
0.52480549 -0.075079359 0.056722052 14408666
0.53415793 -0.075641707 0.052820414 14869218
0.54100001 -0.076447442 0.051268443 14671839
0.55316669 -0.073839121 0.050693959 14671838
0.56300002 -0.070989266 0.05005832 14474713
0.48411116 -0.066703178 0.05928731 14342617
0.51900005 -0.069086224 0.059510998 14342617
0.52528572 -0.065656602 0.057416588 14408664
0.53414285 -0.064581208 0.054811385 14606301
0.54350001 -0.067466103 0.053200454 14803425
0.55531579 -0.064202428 0.051764287 14935010
0.56300002 -0.06835328 0.05005832 15658730
0.48780003 -0.05693708 0.059359301 14408410
0.49125001 -0.053313822 0.05949235 14342874
0.5 -0.051340435 0.05967338 14277081
0.51800001 -0.054401338 0.05939633 14276824
0.52586663 -0.053920757 0.058816187 14342873
0.53391314 -0.055416863 0.056378245 14606301
0.54461539 -0.055332363 0.054110184 14606046
0.55408704 -0.054754235 0.051911283 14935011
0.51866668 -0.044756908 0.059472781 14277081
0.52377278 -0.044753835 0.058716428 14342874
0.53395998 -0.044825241 0.056120057 14540253
0.54409099 -0.045042433 0.05346705 14737632
0.55253333 -0.044750776 0.051023301 14671839
0.5234167 -0.034750935 0.058788594 14474460
0.53373909 -0.034808233 0.056196783 14671839
0.54430431 -0.035056215 0.053543314 14671839
0.55387509 -0.034907181 0.051351119 14737375
0.51880008 -0.022908304 0.059488069 14671582
0.52461123 -0.025684275 0.058580961 14737632
0.53430444 -0.025276745 0.056311656 14605789
0.54382354 -0.024386358 0.053966742 14342874
0.55500001 -0.025496921 0.051940035 14211288
0.56 -0.024727037 0.051102545 14277081
0.51857144 -0.01526736 0.059461858 14474203
0.52646673 -0.015111165 0.058474675 14474203
0.53562492 -0.015497276 0.056396503 14276824
0.54526091 -0.014694849 0.053526875 14145495
0.55356252 -0.014730051 0.051161956 14145495
0.51900005 -0.0089442991 0.059510998 14276824
0.52500004 -0.0049419864 0.05870565 14013652
0.53595829 -0.0054736105 0.056431014 14145238
0.54512501 -0.0055676969 0.053969208 14079702
0.55273682 -0.0046552829 0.051595107 13882323
0.51463646 0.0078311935 0.059224959 13948116
0.52488893 0.0046033897 0.058271032 14013909
0.53485191 0.0047640717 0.05589601 14079702
0.54350001 0.003781413 0.05383623 13947859
0.55368179 0.004597594 0.051817592 13816273
0.49426669 0.017595224 0.059061695 14145238
0.5057143 0.016905433 0.058154471 14276824
0.51300007 0.013373474 0.058635369 14145238
0.52447057 0.014978202 0.056885637 13947859
0.53420836 0.014659065 0.054839399 13882067
0.54433334 0.015040028 0.052537128 13948116
0.55341667 0.013882021 0.051040221 13750737
0.46350002 0.026188109 0.059657477 13750480
0.49613336 0.02222839 0.058353536 14145238
0.50229996 0.024741519 0.056654535 14013653
0.51699996 0.026189636 0.055650163 13816528
0.52360004 0.025902543 0.055871915 13684688
0.5343076 0.023969101 0.053559616 13948115
0.542 0.020899037 0.051150959 13948116
0.514 0.030248573 0.055327822 14145491
0.46400002 -0.080230892 0.065152988 14474713
0.47000003 -0.080168091 0.063794933 14474713
0.43900004 -0.076421961 0.069864243 15000547
0.44548005 -0.07393264 0.068594001 14868961
0.45442113 -0.075272635 0.066825897 14803168
0.46460003 -0.078267753 0.065559834 14540506
0.47622728 -0.076712005 0.064129516 14474460
0.4807857 -0.073445275 0.06276565 14342874
0.44800004 -0.065756276 0.068756528 14671839
0.45333341 -0.064362153 0.066702448 14408667
0.46133336 -0.064653061 0.066576444 14342874
0.47600001 -0.067257769 0.066837981 14277081
0.4829424 -0.065144949 0.062937133 14277081
0.44764289 -0.056892239 0.069366045 14277081
0.45362169 -0.054413848 0.067361601 14145495
0.48689491 -0.055363465 0.063476279 14211288
0.49079999 -0.05154404 0.062020671 14211031
0.45420012 -0.045358147 0.068141304 14013909
0.4630909 -0.044092897 0.06640207 14079702
0.47400001 -0.04309677 0.066183366 14079702
0.48577279 -0.04496843 0.065053262 14474460
0.49365515 -0.045900997 0.062576458 14474460
0.50362498 -0.04537347 0.061431617 14211288
0.51436371 -0.043727264 0.060728326 14211288
0.45396164 -0.035907425 0.068803445 13947859
0.46496153 -0.03438697 0.067249238 13882323
0.47426319 -0.034912121 0.065479413 14079702
0.48233333 -0.036235407 0.064210556 14474460
0.49414286 -0.034699365 0.063929953 14606046
0.50166672 -0.033500563 0.063395537 14606046
0.5151481 -0.034942251 0.061609499 14342874
0.44805884 -0.024473287 0.069206417 13750738
0.45450008 -0.024675177 0.06771566 13750737
0.46564284 -0.026236458 0.066856511 13684944
0.47556528 -0.025837971 0.065464742 13816530
0.48100004 -0.026870314 0.064161971 14277081
0.49385715 -0.026258418 0.064221255 14606046
0.50693333 -0.024283512 0.06350407 14540253
0.51300001 -0.025054481 0.061353639 14474460
0.43900001 -0.010134868 0.069864243 13816532
0.44740751 -0.014642073 0.068987906 13487565
0.45397446 -0.014627472 0.066246353 13487565
0.46425003 -0.017647211 0.064507738 13684944
0.47000003 -0.019652771 0.063794933 13816530
0.48700002 -0.010862984 0.06648165 14145495
0.49562499 -0.012166965 0.06479983 14277081
0.50462961 -0.015590984 0.062890686 14277081
0.51343751 -0.014857464 0.060673419 14342874
0.4377619 -0.0037141917 0.068689235 13948116
0.44433331 -0.0062177451 0.067316189 13487565
0.45309094 -0.0083402758 0.065159231 13421772
0.46800002 -0.0064219846 0.065714657 13684687
0.48650002 -0.0083847884 0.066034541 14079702
0.49355555 -0.007416443 0.06480518 14342618
0.5055384 -0.005476119 0.062243026 14408667
0.51480013 -0.0056180586 0.061034098 14211288
0.43712199 0.0039343843 0.067763753 13618896
0.44270006 0.0078167878 0.066821687 13487310
0.45574999 0.0092155598 0.065592296 13355724
0.46670586 0.0074731908 0.064370826 13421774
0.4702 0.0076379464 0.062060691 13618895
0.49850002 0.0063835098 0.062801443 14079445
0.50396299 0.0042230021 0.062020633 14211031
0.51300007 0.0028310295 0.0605551 14211031
0.42800003 0.019175794 0.069615424 13618896
0.43440005 0.015417794 0.068545058 13487567
0.4447692 0.014197291 0.066811666 13618896
0.45429036 0.015930977 0.064056471 13618896
0.46400002 0.013102815 0.063595556 13750482
0.47430772 0.014250348 0.062497817 13816273
0.48447061 0.014769563 0.061820801 13816273
0.49325001 0.013717194 0.06088575 13947859
0.50440007 0.01220839 0.060433544 14079445
0.42800003 0.022181662 0.069615416 13618896
0.43355113 0.025643444 0.067474656 13684945
0.44527775 0.025501357 0.065474294 13882068
0.45505261 0.024063794 0.063131675 13750482
0.46066666 0.02818954 0.060910042 13816273
0.47900003 0.021460762 0.062773839 14079445
0.48660001 0.021119094 0.062397998 13947859
0.49350002 0.023271553 0.060628813 13684430
0.42699999 0.036122568 0.069452301 13158342
0.43397453 0.033219278 0.067229137 13553101
0.44575003 0.033539008 0.064153619 12961218
0.45550001 0.031065371 0.063423365 13947860
0.39700001 -0.080727823 0.079909109 14671582
0.40099999 -0.080600701 0.079069093 14934753
0.40468591 -0.075045727 0.077789038 15066339
0.41315791 -0.074133985 0.074424922 15000547
0.42455551 -0.072960764 0.072916038 15000546
0.43396777 -0.075399175 0.071515486 14869217
0.44033337 -0.071327083 0.070076436 14935011
0.40453973 -0.064971104 0.078092642 15197925
0.41437212 -0.065242298 0.074983716 14803169
0.42346883 -0.064888269 0.072838627 14671582
0.43433335 -0.064340703 0.071528636 14803168
0.44311771 -0.064653367 0.070577249 14408667
0.40406156 -0.055035774 0.077869706 15066339
0.41321743 -0.055336267 0.075472057 14868961
0.42479312 -0.053903025 0.074077018 14539996
0.43420509 -0.055371247 0.072037302 14737632
0.44420004 -0.053509124 0.070549615 14211288
0.40348282 -0.045289688 0.078207299 15000547
0.41497311 -0.044762764 0.07611572 14605789
0.42415631 -0.044919454 0.074227929 14474203
0.4337084 -0.045045257 0.072654776 14474460
0.44481829 -0.044887599 0.071256392 14342617
0.39900002 -0.031161975 0.079377607 14408410
0.4036459 -0.035164002 0.07838317 14737376
0.4152571 -0.034663454 0.076467656 14408411
0.42394298 -0.035446692 0.074691683 14408667
0.43465528 -0.035539865 0.072778203 14145239
0.44465521 -0.034930471 0.070902035 14013653
0.39900002 -0.028826809 0.079377607 14539996
0.40391824 -0.024877017 0.078398801 14342618
0.41459391 -0.024522768 0.076192454 14079705
0.42492861 -0.02519552 0.074688651 14079704
0.43485191 -0.025196936 0.073307045 13750739
0.44299999 -0.025158495 0.071235962 13684946
0.40461409 -0.01490965 0.078457758 14013911
0.41405404 -0.015087558 0.075843371 13816532
0.42400002 -0.015471645 0.073816508 13619153
0.43428129 -0.014794437 0.071903057 13487567
0.44311771 -0.016584143 0.070638806 13487566
0.40483615 -0.0050101257 0.078104921 13553360
0.41425642 -0.0053134826 0.075094722 13619153
0.42459473 -0.0055620223 0.073072143 13553360
0.43243995 -0.0052034385 0.07092315 13750738
0.40556946 0.0049709389 0.077759363 13816530
0.41430777 0.0051080254 0.07423389 13750737
0.42460719 0.0045049586 0.072537586 13750738
0.43263996 0.0041929106 0.070672743 13684945
0.40568659 0.014719654 0.077791922 14145237
0.41421741 0.015521683 0.073942959 14079445
0.42453843 0.014583399 0.071582079 13882067
0.43142861 0.0118231 0.07038898 13553360
0.40721333 0.024776295 0.077786498 14671581
0.41377792 0.025120106 0.073805422 14211032
0.4239707 0.025537033 0.071173847 13684688
0.40772724 0.034150574 0.078507617 14606045
0.41354159 0.034874991 0.074769348 14277079
0.42300004 0.034114469 0.070990495 13553100
0.40842858 0.04097303 0.078520708 13948368
0.41050002 0.040494461 0.076379418 14014162
0.3882122 -0.082273267 0.087390609 14934238
0.39168754 -0.081591785 0.083073825 15460583
0.3874 -0.075027063 0.087101415 15789546
0.39419472 -0.075108089 0.082159691 15526889
0.38818756 -0.065317862 0.08774519 15921132
0.39393324 -0.065018222 0.082595833 15790060
0.38833866 -0.055534489 0.087855563 15855596
0.39379099 -0.054818813 0.082752131 15724266
0.40000001 -0.050436419 0.080512956 15198179
0.38871115 -0.045473792 0.088653959 15592937
0.39382407 -0.044874549 0.083468385 15724267
0.40000001 -0.049500015 0.080512956 15263972
0.3885909 -0.035353851 0.088676907 14473429
0.39416507 -0.034894928 0.083511606 15395559
0.38752279 -0.025276057 0.088431269 11511974
0.39399025 -0.024906201 0.083635949 14803424
0.40000001 -0.022344206 0.080512956 14474460
0.3882333 -0.015989266 0.089049444 10722974
0.39419267 -0.014729124 0.084440224 14408668
0.40000007 -0.014852947 0.080512948 14211290
0.38900003 -0.0094358837 0.08922673 13619151
0.39421839 -0.0052211368 0.085597992 13750737
0.40000007 -0.0042403322 0.08082509 13750739
0.39540353 0.0044364962 0.086206265 14079701
0.40041927 0.0056332848 0.08144293 14145495
0.39655927 0.015032182 0.086549625 14408665
0.4007208 0.015339284 0.08168108 14474201
0.39696115 0.0247743 0.087233111 14672349
0.40168419 0.025388509 0.082166076 14803421
0.39816001 0.033276949 0.088641718 14803678
0.40255961 0.035425179 0.084075637 14803421
0.40367314 0.042074777 0.084594041 13816268
0.3857027 -0.081335232 0.094445534 14013137
0.38457233 -0.07475467 0.094747171 15197409
0.38424626 -0.065016665 0.094886854 15657704
0.38471314 -0.054968439 0.095095746 15657960
0.38621321 -0.045116574 0.094952784 15263204
0.38613608 -0.035034038 0.095063172 12039089
0.37899998 -0.022058379 0.099058658 2567467
0.38196278 -0.02509656 0.094414808 2698540
0.3789286 -0.016921874 0.099018641 2633261
0.38269612 -0.015071557 0.094252296 3159606
0.38745463 -0.0058876136 0.095586479 12632255
0.39056522 -0.0027741117 0.091810837 13289929
0.38877276 0.0038918837 0.098192289 13421771
0.39127901 0.0051022489 0.093472682 13750990
0.38875008 0.014527398 0.098792531 14145748
0.39164725 0.01490509 0.093629435 14211541
0.38881817 0.023420459 0.099031538 14737628
0.39218438 0.025054568 0.094264776 14672092
0.39458269 0.034997389 0.095004067 14606299
0.39702439 0.041771773 0.095118657 13487817
0.38428578 -0.081252657 0.10443261 13420741
0.37900001 -0.070856899 0.10911413 15394786
0.38197657 -0.074968234 0.10499122 14933980
0.37874997 -0.065240949 0.1088475 15723751
0.3811101 -0.064899445 0.10389765 15526373
0.37900001 -0.059322707 0.10911413 15460579
0.3814851 -0.055061139 0.10478994 15526118
0.3825694 -0.044840638 0.1049185 15328740
0.37871429 -0.030780772 0.10789078 2698286
0.38239989 -0.035165831 0.10459565 11513260
0.37724963 -0.024458833 0.10536721 2436394
0.38033336 -0.028566761 0.10158301 2699309
0.37752613 -0.015720593 0.10534197 2502445
0.38068187 -0.011258932 0.10331749 6778735
0.38407284 -0.0052884868 0.10507786 12172215
0.38541865 0.0049100602 0.10522199 13487564
0.38522288 0.014869443 0.10543177 14211541
0.38610202 0.025052894 0.10497098 14737628
0.38810933 0.033305403 0.10683455 14408920
0.39152113 0.036353912 0.10317496 14277334
0.39351231 0.042013597 0.1039057 12632508
0.38113639 -0.080706269 0.11508322 13683913
0.37831944 -0.073117495 0.11531252 14934235
0.38056806 -0.077488892 0.11387794 14210515
0.37779218 -0.064917475 0.11476464 15131614
0.37829652 -0.055136558 0.1152432 14868699
0.38000008 -0.052599762 0.11094399 15526372
0.37873581 -0.046583019 0.1172844 14408407
0.38046977 -0.044056013 0.11342004 14868444
0.37827504 -0.03202403 0.1157222 5723989
0.38068745 -0.036672302 0.11482313 12105395
0.37425184 -0.025023768 0.11500699 2239014
0.37455094 -0.015042195 0.11524189 3160118
0.37866667 -0.0069036866 0.11693303 11316906
0.38086826 -0.0042941035 0.11402699 12435132
0.37827787 0.0054221405 0.11725584 13290185
0.38118416 0.0044557108 0.11275706 13684944
0.37672004 0.015270097 0.11682702 13882322
0.38105991 0.015325299 0.11211367 14211541
0.37725002 0.023819886 0.11765742 14408665
0.38182962 0.025681822 0.11318386 14606042
0.3843165 0.034642715 0.11498096 14211540
0.38880005 0.040538467 0.11157081 11053217
0.38122225 -0.080494672 0.12224739 13749706
0.37767997 -0.073928908 0.12513275 14013648
0.38046673 -0.078553692 0.12224232 13947599
0.37682423 -0.065129414 0.12473194 14013904
0.37768182 -0.055021998 0.12456845 14013390
0.37823516 -0.045078196 0.12483159 13684684
0.38000003 -0.041094437 0.1203736 13947342
0.37725559 -0.034293145 0.12527856 7763570
0.38000008 -0.037684347 0.1240135 11118500
0.36899999 -0.024067871 0.12955868 1646362
0.37121776 -0.025236281 0.12479731 1844256
0.36899999 -0.016786972 0.12955868 2172962
0.37143922 -0.015240435 0.12475394 3028786
0.37835565 -0.0051701483 0.1238373 10987940
0.38000003 -0.0050365147 0.1204329 11908785
0.37746933 0.0052188067 0.12398855 12106423
0.38000003 0.001012676 0.12897293 11646901
0.37449393 0.01451299 0.12342461 12368827
0.37492734 0.024512723 0.12193377 14145494
0.37833333 0.030235844 0.121321 14079702
0.38286006 0.035569366 0.12261561 13619149
0.37800002 -0.061820902 0.13006394 10591898
0.37799999 -0.054741666 0.13006392 9605516
0.37800002 -0.047219966 0.13006394 9539722
0.37459999 -0.033045735 0.13063343 5593171
0.38000003 -0.037239559 0.1307521 8487291
0.36900002 -0.027955133 0.13042252 2238499
0.38125002 0.0045848894 0.13095923 7633016
0.38600001 0.017303422 0.13326609 9277322
0.39000002 0.019299267 0.13327996 9079179
0.39309454 0.025418576 0.13494779 10066583
0.39528579 0.033575252 0.13522202 10790818
0.36626324 -0.031515785 0.14638014 1186326
0.36492059 -0.025001064 0.14740828 791565
0.36295843 -0.016453179 0.14740595 1381133
0.36466163 -0.032410968 0.15595645 2566178
0.36481842 -0.025239957 0.15539382 659979
0.36399034 -0.015851241 0.15520686 2037264
0.36162126 -0.032630976 0.16417526 1581082
0.3618634 -0.024802893 0.164913 1186322
0.36414862 -0.01642194 0.1647013 1579026
0.3463659 -0.033269182 0.17834729 1646873
0.35631573 -0.031998236 0.17720304 857102
0.3611511 -0.03292172 0.17342748 1318165
0.34674609 -0.025048386 0.17861426 1383957
0.35579994 -0.025016429 0.17696232 857615
0.36062035 -0.024447966 0.17283353 1778458
0.34744442 -0.016966309 0.17916447 1448980
0.35489798 -0.017550845 0.17835778 857358
0.3628751 -0.016283866 0.17568646 1120531
0.33861363 -0.033220828 0.18819593 1515031
0.34221503 -0.033403106 0.18307105 1646615
0.33877778 -0.027176736 0.18906158 1580825
0.34219554 -0.024839679 0.18414687 1515031
0.34189352 -0.017019097 0.18481983 1383704
0.35800001 -0.012455304 0.180172 592909
0.36550003 -0.011857086 0.18052046 4410186
0.33836368 -0.033160947 0.1910999 1646104
0.33866671 -0.024927292 0.19112128 1515031
0.34 -0.020982439 0.19021577 1580055
0.33900008 -0.017895108 0.19124351 1580311
0.33999994 -0.016604736 0.19043285 1449241
