# .PCD v0.7 - Point Cloud Data file format
VERSION 0.7
FIELDS x y z rgb
SIZE 4 4 4 4
TYPE F F F U
COUNT 1 1 1 1
WIDTH 385
HEIGHT 1
VIEWPOINT 0 0 0 1 0 0 0
POINTS 385
DATA ascii
0.55900002 -0.073756471 0.049702663 14737632
0.56359094 -0.073755093 0.047765795 15132389
0.57340002 -0.071495771 0.043998826 13883604
0.5643571 -0.064691313 0.048425067 15198695
0.57185715 -0.065414265 0.044819724 15593966
0.56530571 -0.055254214 0.047533169 15330024
0.57066673 -0.058597337 0.044060286 15790829
0.55641669 -0.044546083 0.04871136 15198183
0.56247061 -0.045907762 0.04621302 15330023
0.55500001 -0.035033811 0.04831795 14869218
0.56037498 -0.034581725 0.045561045 15396072
0.55700004 -0.025748953 0.049379691 14606046
0.56273681 -0.02470508 0.047257613 14672606
0.55558825 -0.013747164 0.048478737 14343130
0.56190908 -0.01751885 0.047088467 14606813
0.55504763 -0.0050180503 0.048048638 14014422
0.54700005 0.0091409422 0.049916241 13750737
0.55376923 0.0026698594 0.048238322 14277337
0.54430771 0.015063385 0.048885949 13882323
0.53833336 0.022858061 0.04891507 13816785
0.54000002 0.021665461 0.048013307 13882066
0.53100002 -0.080628239 0.052185405 15000804
0.4839091 -0.073672578 0.059294224 14474203
0.505 -0.071951471 0.059087899 14474460
0.51700002 -0.073313408 0.058413148 14408667
0.5236786 -0.07474494 0.055533059 14408667
0.53409094 -0.074384801 0.052827131 14803425
0.54299998 -0.073542766 0.052093565 14869218
0.55214292 -0.073128119 0.051122297 14672352
0.48800001 -0.069148548 0.059002053 14342874
0.49223083 -0.063658148 0.059098918 14342874
0.51312506 -0.066953123 0.059134357 14342874
0.52447617 -0.066474885 0.057035729 14277081
0.53443485 -0.064117245 0.05512974 14606046
0.54521435 -0.064277805 0.052850116 14737632
0.55300009 -0.065192625 0.051109008 14541023
0.49199998 -0.055227205 0.058979202 14277081
0.528 -0.050507329 0.058687724 14474460
0.53479999 -0.055368591 0.056932278 14540253
0.5440526 -0.054990843 0.053664338 14606046
0.5544737 -0.055293772 0.051549811 14935266
0.49600002 -0.048894782 0.059484527 14211288
0.51685721 -0.044930957 0.059607416 14342617
0.52529997 -0.04404055 0.058199275 14408667
0.5353334 -0.045198839 0.055580467 14606046
0.54450005 -0.045073945 0.05255127 14737632
0.55250007 -0.045577694 0.050579377 14803678
0.52419245 -0.035277627 0.058399495 14474460
0.53573078 -0.034652893 0.055441365 14671839
0.54504001 -0.034783933 0.052387413 14671839
0.55200005 -0.035357852 0.050372515 14672094
0.51900005 -0.021094183 0.059510998 14737632
0.52442116 -0.025673246 0.058833461 14671839
0.53535473 -0.025133219 0.055920273 14540253
0.54461116 -0.024689103 0.052882291 14342874
0.55242854 -0.024482679 0.051056914 14079702
0.509 -0.013538273 0.059555925 14277081
0.51514292 -0.014488912 0.059581067 14342874
0.52600014 -0.015957827 0.058586914 14408667
0.5356667 -0.015431627 0.056679342 14342874
0.54411107 -0.014255 0.053042229 14145495
0.55200005 -0.015545229 0.050802473 14145495
0.51437509 -0.0052521094 0.059579678 14145495
0.52433336 -0.0045771184 0.057908881 14079702
0.53539282 -0.0054668402 0.055743389 14079702
0.54412502 -0.0054723318 0.053074118 14079702
0.55100012 -0.0049811243 0.050925035 13882323
0.50443751 0.0065063848 0.059017844 14145497
0.51476932 0.0051682387 0.058003392 13882325
0.52520007 0.0047170818 0.057268959 14013911
0.5348888 0.0041616615 0.0553893 14079703
0.54470831 0.005220165 0.052039746 13750737
0.551 0.0023271437 0.050495852 13684944
0.49537501 0.017552763 0.059554201 14079447
0.50521427 0.015875725 0.058687575 14145497
0.51355565 0.014193079 0.057478979 14079704
0.52368754 0.0148762 0.055755351 13882325
0.53506255 0.014890492 0.053124994 13882323
0.54116672 0.012629121 0.050861493 13882323
0.46260005 0.02570346 0.059107613 13882068
0.49611118 0.02235719 0.059075043 14013654
0.50485712 0.023548797 0.056789536 14211033
0.51444447 0.026260667 0.05497041 13553102
0.52540004 0.024280332 0.054584272 13882067
0.5348621 0.02335676 0.052428532 14079445
0.51200002 0.030130876 0.05391394 14276826
0.43584004 -0.074745558 0.068337671 15000804
0.44428572 -0.071022697 0.068620928 14606045
0.45250002 -0.072422646 0.067067288 15264229
0.46600002 -0.076633185 0.065931737 14540507
0.475577 -0.075670362 0.063906506 14474460
0.48148003 -0.072789125 0.06196861 14408667
0.43900001 -0.068714164 0.069864243 14540253
0.44799998 -0.067132138 0.069035657 14803424
0.45434219 -0.064476453 0.0674842 14540253
0.46450001 -0.064658277 0.065981224 14211288
0.47518188 -0.063763112 0.065204419 14277081
0.48456252 -0.065321118 0.062549867 14277081
0.45479491 -0.055074722 0.06863071 14211288
0.46352381 -0.055809326 0.066372901 14211288
0.47405562 -0.055030607 0.065388978 14145495
0.48516226 -0.055190332 0.063142821 14211288
0.49055555 -0.052665904 0.061225388 14211288
0.4555667 -0.045353245 0.068940669 14079702
0.46483997 -0.044679273 0.067225412 14079702
0.47453851 -0.044876937 0.065559395 14145495
0.48396668 -0.045049928 0.063191742 14606046
0.49364281 -0.046719491 0.061139319 14342874
0.51599997 -0.043916181 0.060374964 14276824
0.44600001 -0.030134257 0.06993416 13882323
0.45518526 -0.035020977 0.06923794 14013652
0.46479997 -0.034536492 0.06761083 13948116
0.47475773 -0.035137061 0.065376334 14145495
0.48350006 -0.036497094 0.062855966 14606301
0.49166667 -0.033600561 0.062899686 14737630
0.50633335 -0.031445589 0.062402725 14671839
0.51566672 -0.034765169 0.060816493 14408410
0.44675007 -0.024652714 0.069134086 13684945
0.45469233 -0.024739357 0.067936346 13684946
0.46400008 -0.0248229 0.067138366 13684945
0.47341034 -0.025339495 0.065047704 13816530
0.48433337 -0.027069936 0.063472785 14671836
0.49175 -0.027183805 0.063293554 14606043
0.50682354 -0.025866847 0.062927917 14605789
0.51336378 -0.024580825 0.061099723 14408667
0.43900001 -0.010134868 0.069864243 13816532
0.44656268 -0.014755564 0.06884221 13487566
0.45396876 -0.014266379 0.066295579 13487567
0.46441674 -0.017339898 0.064936429 13619152
0.47155556 -0.018246094 0.062900856 13948116
0.48350003 -0.013425971 0.06505847 14277081
0.4962942 -0.01220849 0.063871816 14277081
0.50432003 -0.015327532 0.061932087 14277081
0.51240003 -0.017586432 0.060671501 14408667
0.43775004 -0.0037039116 0.068741336 13882066
0.44454548 -0.0065274788 0.067854121 13553359
0.45417655 -0.00704573 0.065519869 13421772
0.46515384 -0.0032810797 0.0651443 13553358
0.47000003 -0.002048315 0.063794933 13619151
0.48562503 -0.0056677344 0.064776577 13882324
0.49571437 -0.0072980789 0.06379544 14408667
0.50477779 -0.0052238256 0.061288457 14474460
0.51000005 -0.003416559 0.060866855 14540253
0.43499997 0.0046544895 0.068070538 13684687
0.44450003 0.0095092244 0.067095742 13487308
0.45624998 0.007440059 0.065840423 13290186
0.46362504 0.0044886102 0.063656732 13421772
0.47850001 0.0063153841 0.061588138 13816530
0.49860007 0.0056073382 0.062307563 14013909
0.50193751 0.0025106282 0.061149746 14211288
0.42820007 0.017580692 0.069347367 13553358
0.43478379 0.014693426 0.068443067 13553101
0.44556007 0.016160073 0.066228263 13750480
0.45332509 0.015212871 0.063410878 13553359
0.46250004 0.012597591 0.062776923 13619152
0.47500002 0.013497665 0.063361615 13816532
0.48476186 0.015346107 0.062389988 13750739
0.49400002 0.013371048 0.061101843 13947861
0.50333333 0.011946944 0.0600712 14079447
0.42712504 0.023700554 0.069535442 13553358
0.43392155 0.025737658 0.067192823 13750737
0.44500002 0.024863577 0.065187864 13947860
0.45528206 0.024038643 0.063154705 13750481
0.46062499 0.026702784 0.060634974 13947860
0.47050002 0.021630073 0.061659902 14013911
0.48350003 0.021662377 0.061285138 13816532
0.49000001 0.020806499 0.06077411 13816275
0.42693752 0.034743514 0.06937933 13487307
0.43292692 0.03311187 0.066689424 13355465
0.45900002 0.030235443 0.063376382 13750480
0.398 -0.080619812 0.079488464 14736605
0.40200001 -0.080331743 0.078561634 15328742
0.39766669 -0.078536026 0.079731941 15000034
0.40486559 -0.074784577 0.077674687 15132133
0.41323686 -0.074067853 0.074209355 15000546
0.42471433 -0.073288359 0.072412699 15000801
0.43200004 -0.075488798 0.071033552 14803167
0.40424189 -0.064995617 0.07801234 15197925
0.41460788 -0.065271877 0.074804462 14868961
0.42381093 -0.06469772 0.072321169 14671839
0.43441668 -0.065092929 0.070741549 14606046
0.44383338 -0.064269342 0.070544682 14474460
0.40364406 -0.055363432 0.078095563 15066340
0.41478387 -0.054871649 0.075660489 14934754
0.42425582 -0.055182524 0.073376328 14539996
0.43312505 -0.054399669 0.071755685 14737632
0.44474071 -0.05448506 0.070887707 14342874
0.39900002 -0.047041096 0.079377607 15329512
0.4029434 -0.04493279 0.078141503 14934754
0.41502714 -0.044686891 0.076098442 14671582
0.4238838 -0.044977214 0.073729083 14474460
0.43455005 -0.044868242 0.072150931 14474460
0.44644439 -0.04497071 0.071220018 14277081
0.45000002 -0.045943029 0.070561372 14013909
0.40341294 -0.035013705 0.078480355 14802911
0.41536832 -0.034869343 0.076384112 14474204
0.42477155 -0.035686273 0.074496627 14539997
0.43469703 -0.035103995 0.072625771 14145239
0.44492859 -0.035236772 0.070950374 14013909
0.40405783 -0.025134096 0.078536883 14342617
0.41441181 -0.024431031 0.076272249 14145497
0.42482761 -0.02523935 0.074804589 14079960
0.43525657 -0.025097109 0.073100671 13684946
0.44208696 -0.025146717 0.071073301 13684945
0.40456909 -0.014663177 0.078271754 14013911
0.41430557 -0.014925959 0.075761408 13882325
0.42417151 -0.015009926 0.073909193 13619666
0.43425715 -0.015078095 0.071890242 13487823
0.44169235 -0.016166981 0.070610017 13421774
0.40495011 -0.0050813798 0.078180984 13553360
0.41399997 -0.0050124582 0.074968904 13553360
0.42485729 -0.0057473653 0.073005199 13619152
0.43299997 -0.0051894607 0.070933573 13750738
0.40557754 0.0050409823 0.077988096 13882324
0.41387758 0.0046820403 0.074341133 13750739
0.42371881 0.0050643622 0.072230458 13750737
0.43126667 0.0034310105 0.070583768 13816530
0.40533853 0.01483199 0.07807412 14145496
0.4134717 0.015437872 0.073974259 14013911
0.42355564 0.014480678 0.07147707 13816530
0.43000001 0.011715619 0.070445225 13619151
0.40700009 0.02474387 0.077830546 14671583
0.41374999 0.025142279 0.07389766 14211289
0.42264292 0.025474995 0.071250193 13619151
0.4075 0.034573913 0.078521028 14606043
0.41353735 0.034607574 0.074614421 14277336
0.42180005 0.03493277 0.071113355 13684943
0.40814286 0.04121707 0.078602657 13290181
0.41166672 0.04060955 0.075469099 13224130
0.38848391 -0.082194261 0.087228276 15328994
0.39152941 -0.081660502 0.083061181 15263718
0.38767093 -0.075069651 0.087113939 15789545
0.3934862 -0.074851111 0.082069337 15592682
0.3881194 -0.065359421 0.087611228 15986924
0.39380458 -0.064922057 0.082483284 15790059
0.38832155 -0.055407722 0.088111237 15855338
0.39366326 -0.054909624 0.082926206 15724268
0.38870451 -0.045537088 0.088620298 15723753
0.39371794 -0.044858474 0.083454378 15724267
0.38861763 -0.035087988 0.089004345 14078930
0.39377773 -0.034955464 0.083773173 15395303
0.38757148 -0.02549707 0.088442288 11446438
0.39436466 -0.02488588 0.083720103 14868960
0.40000001 -0.021876 0.080512956 14342617
0.38796884 -0.015453513 0.089016899 10921121
0.39431456 -0.014827477 0.084410921 14408923
0.40000007 -0.014852947 0.080512948 14277081
0.38900003 -0.0094358837 0.08922673 13750992
0.39447516 -0.0051533286 0.085459828 13750737
0.40000007 -0.0046375962 0.080598079 13750737
0.39512289 0.0045614243 0.086113028 14079956
0.40046427 0.0054203351 0.081275024 14079702
0.39625245 0.014970883 0.0862424 14408665
0.40039393 0.01518457 0.081500076 14408665
0.39667901 0.02481351 0.087026671 14737630
0.40164813 0.02541418 0.082023576 14803424
0.39796433 0.033504806 0.088619061 14803678
0.40247625 0.035425074 0.08397866 14803167
0.40377358 0.042132404 0.084533036 13750475
0.38647369 -0.081540495 0.094621956 13947089
0.38474974 -0.074731454 0.094754592 15197409
0.38427609 -0.064947598 0.094907708 15657960
0.38497025 -0.054966807 0.095143721 15592424
0.38623384 -0.045125227 0.094957076 15328996
0.38609532 -0.035038695 0.095008247 11973552
0.37890008 -0.022185996 0.098662518 2502187
0.38179979 -0.025249392 0.094065338 2698795
0.37871435 -0.017260307 0.098486915 2567724
0.3822135 -0.01474596 0.093967997 3488570
0.38741973 -0.0058754352 0.095603898 12632510
0.39045456 -0.0028225689 0.091678217 13290183
0.38873535 0.0045555374 0.097716317 13487562
0.39104545 0.0049548391 0.092730023 13816783
0.38867316 0.014439831 0.098284416 14211284
0.39163321 0.014888487 0.09312582 14277078
0.38899997 0.023029005 0.098560929 14737628
0.39200881 0.025209146 0.094176754 14737374
0.39452007 0.034973744 0.095032386 14606301
0.39712209 0.041872866 0.095348231 13356231
0.38466668 -0.081297174 0.1045303 13486279
0.37900004 -0.07115265 0.10881837 15526372
0.38202414 -0.075041622 0.10486281 14933980
0.37860969 -0.065660253 0.10859004 15723751
0.38111112 -0.064888403 0.10366144 15526372
0.37900001 -0.059322707 0.10911413 15066591
0.38159278 -0.055067837 0.10479932 15460582
0.382875 -0.044863261 0.10501467 15328995
0.37900001 -0.030398492 0.10787197 2369576
0.38231581 -0.035068985 0.10465579 11381674
0.3777819 -0.024343906 0.10546306 2501674
0.38033339 -0.028443269 0.10185516 2699053
0.3775779 -0.015687922 0.10556109 2567980
0.38069567 -0.011268079 0.10343891 6845298
0.38409433 -0.0052295094 0.10520042 12237754
0.38547131 0.0048301229 0.10533469 13487562
0.38512993 0.014866222 0.10537521 14211541
0.38659716 0.024854764 0.10497225 14672091
0.39000002 0.029342232 0.10041206 14869471
0.38816664 0.032857895 0.10703719 14540248
0.39148146 0.036234651 0.10357232 14277334
0.39379495 0.041947089 0.10387745 12632765
0.38179168 -0.080875553 0.11561688 13552328
0.37826163 -0.072750114 0.11508416 15000028
0.38072541 -0.077489577 0.11446942 14210513
0.37773645 -0.064841978 0.11482471 15131871
0.37831274 -0.055201896 0.115344 14934236
0.38000008 -0.052659065 0.11113179 15263715
0.37873766 -0.046038974 0.1173372 14473942
0.38049984 -0.044191409 0.11308359 14868701
0.37818184 -0.032072607 0.11539545 5790295
0.38052571 -0.036822949 0.1148046 12171188
0.37417459 -0.025035853 0.11486932 2239013
0.37447637 -0.015091734 0.11523597 3160372
0.37872499 -0.0066357269 0.11765727 11251370
0.380851 -0.0045225341 0.11409143 12369083
0.37835392 0.0054359115 0.11753894 13290440
0.381253 0.0045339726 0.11287701 13684944
0.37754774 0.015219131 0.11701373 13816530
0.38115519 0.015509199 0.11236288 14211286
0.37752739 0.02387549 0.11792621 14342874
0.38211825 0.025653834 0.11348674 14540507
0.38479206 0.034810264 0.115041 14277077
0.38870001 0.040710028 0.11245152 11052704
0.39000002 0.041819859 0.11075937 11118494
0.38150001 -0.080590636 0.12200131 13749963
0.37760425 -0.073822081 0.12510158 14079440
0.3804445 -0.078252368 0.12204739 14144720
0.37716898 -0.065106019 0.12474696 14079696
0.37791237 -0.055000912 0.12460871 14079439
0.3786633 -0.045455676 0.12440461 13948111
0.38000008 -0.04257708 0.128692 12237493
0.37753612 -0.034666654 0.12427795 8290169
0.38000008 -0.037970293 0.12538281 10724255
0.37153134 -0.025279559 0.12358641 1975583
0.37192851 -0.015125214 0.1235184 3225907
0.37826887 -0.0051324037 0.12377547 10987941
0.37752274 0.0051040794 0.12376177 12172216
0.38025001 0.0030166684 0.12905778 11777457
0.37508431 0.014304567 0.12310353 12500925
0.37489289 0.024309833 0.12182932 14014166
0.37833333 0.030235844 0.121321 14014423
0.38289133 0.035301276 0.12257237 13553611
0.37800002 -0.075094469 0.13006394 12434871
0.37840003 -0.062681332 0.13037901 10395545
0.37900001 -0.057370763 0.13058546 9737615
0.37900004 -0.048675757 0.13040802 9342600
0.3804445 -0.0434158 0.13100412 9276295
0.38100001 -0.038824104 0.13079888 9079429
0.382 0.0049796775 0.1315687 8488066
0.3882857 0.018178033 0.13321449 9210762
0.39000002 0.019299267 0.13601895 9803925
0.38900003 0.020160437 0.13248289 9802387
0.39330977 0.025501328 0.13517678 10066328
0.39408115 0.032640025 0.13432854 10790307
0.36753336 -0.031600963 0.14826083 1974555
0.36582002 -0.024690915 0.14784801 791564
0.36352098 -0.016335897 0.14763507 1316107
0.36529225 -0.032217003 0.15572268 2369056
0.36549339 -0.025191586 0.15536028 659979
0.36459449 -0.01589144 0.15532419 1972241
0.36187726 -0.032358162 0.16392894 1647131
0.36211792 -0.024847437 0.16496043 1120787
0.36390102 -0.016354205 0.16459309 1448466
0.34682217 -0.033029139 0.17831312 1777689
0.35617495 -0.032069061 0.17652953 923150
0.36189583 -0.032963309 0.17289744 1449752
0.34680963 -0.024899658 0.17863397 1515030
0.35538888 -0.025126556 0.17624225 1054480
0.3607904 -0.024416206 0.17224312 1647130
0.34757566 -0.016579082 0.17928696 1448467
0.3550806 -0.017111627 0.17782821 922383
0.3627657 -0.016134061 0.17498586 1120532
0.33900005 -0.03336332 0.18886268 1581081
0.34233329 -0.03360033 0.1837261 1580823
0.33900005 -0.027666369 0.18910691 1646620
0.34223285 -0.024898808 0.18432054 1514774
0.34214386 -0.017109344 0.18486638 1514518
0.35800001 -0.010779135 0.18059103 723730
0.36100003 -0.010869463 0.18083672 2368550
0.36000001 -0.0095752031 0.18117855 5921622
0.33872736 -0.033087831 0.1909811 1515032
0.33886111 -0.025383728 0.19123113 1514778
0.33999997 -0.022176357 0.19041476 1448984
0.33900002 -0.018063748 0.19164033 1383448
0.34 -0.017151946 0.19066349 1449242
