# .PCD v0.7 - Point Cloud Data file format
VERSION 0.7
FIELDS x y z rgb
SIZE 4 4 4 4
TYPE F F F U
COUNT 1 1 1 1
WIDTH 868
HEIGHT 1
VIEWPOINT 0 0 0 1 0 0 0
POINTS 868
DATA ascii
0.52100003 -0.012027942 -0.090279132 14078924
0.52224988 -0.0053313472 -0.091719218 14540245
0.52275002 0.0015464325 -0.09134759 11316647
0.5253334 -0.023150863 -0.082827561 13288636
0.53000003 -0.028365333 -0.080671996 13947079
0.51825005 -0.012632583 -0.083191812 13683652
0.5214287 -0.016227923 -0.085224085 13485759
0.51755267 -0.0054756259 -0.083499096 14474454
0.52077776 -0.0049101487 -0.08820954 14540504
0.51837504 0.0025200495 -0.081861012 14277845
0.52152169 0.0055059427 -0.085328542 13882831
0.52394122 0.013380356 -0.082923792 12633020
0.53100002 0.021927666 -0.081444584 10461849
0.53716666 -0.040905405 -0.071283281 14143432
0.53402376 -0.034511488 -0.073841467 13748673
0.51840001 -0.020706 -0.071867839 13090487
0.52481389 -0.024381841 -0.075167865 13353659
0.53046161 -0.029154647 -0.075870946 13616831
0.509 -0.010559328 -0.07032609 14210764
0.51501858 -0.014555145 -0.074780889 13486015
0.52100003 -0.018858563 -0.078327298 13222586
0.50837505 -0.0059348494 -0.07038869 14474454
0.51214272 -0.0051220483 -0.075542405 14474454
0.5155645 0.0046535246 -0.074860789 14211796
0.52033335 0.0095076477 -0.078794844 14014160
0.51800007 0.012194186 -0.072076216 13751503
0.52412009 0.016179712 -0.075727224 13751502
0.52850002 0.021204069 -0.072402872 13685965
0.53151119 0.024922708 -0.075205423 13027521
0.53512502 0.031650957 -0.070959635 13948368
0.54650003 -0.05099763 -0.062072188 13814721
0.55133337 -0.05417569 -0.061689906 14077893
0.53790909 -0.043405369 -0.064818494 13880002
0.542 -0.04756657 -0.063784733 13880258
0.5284 -0.030753691 -0.063111946 13419965
0.53303581 -0.035756785 -0.065113075 13682624
0.51716667 -0.021879112 -0.06429375 12893621
0.52397442 -0.026823176 -0.06531921 13156793
0.49900001 -0.010351876 -0.060767263 13749961
0.50524145 -0.012768932 -0.064020589 13486787
0.51243335 -0.016953411 -0.066243045 13025464
0.49815005 -0.0050856797 -0.061597712 14409174
0.50375009 -0.0051418329 -0.066331364 14409174
0.49900001 0.00074571953 -0.060767263 14541276
0.50511354 0.0044416673 -0.063747652 14014931
0.51133341 0.006895388 -0.06808494 13948881
0.50800002 0.011264878 -0.061070442 13554381
0.51473683 0.014318123 -0.064716227 13685966
0.523 0.018630497 -0.067176796 13685965
0.52673078 0.0237923 -0.063530102 13422794
0.53115386 0.026620422 -0.067027971 13422792
0.53556907 0.034663651 -0.064593889 13948622
0.53900003 0.041057192 -0.06374567 13553352
0.542 0.044883963 -0.062000044 13684937
0.54800004 0.053491071 -0.062031023 11316643
0.55019999 0.058397461 -0.061077185 11448485
0.55200005 0.060914177 -0.060760297 11448485
0.56675005 -0.072458796 -0.050774179 13880768
0.55827278 -0.061720572 -0.055151928 13945793
0.56185716 -0.066216744 -0.05250999 14012098
0.54722226 -0.05135037 -0.054397713 13814465
0.553262 -0.056385301 -0.055161636 13945794
0.53734481 -0.043032091 -0.0548103 13683135
0.54322219 -0.047869701 -0.055273421 13748928
0.51700002 -0.030090192 -0.050856207 13288377
0.52600002 -0.031760272 -0.05587877 13485757
0.53263164 -0.037141323 -0.055739354 13551550
0.50722224 -0.02200228 -0.052402399 12828085
0.51426667 -0.024761986 -0.055364728 13025207
0.52287501 -0.028443724 -0.057403713 13222586
0.49572223 -0.012674968 -0.054055873 13618373
0.50325 -0.017218212 -0.055439297 12959928
0.51050007 -0.018956076 -0.059180576 13025207
0.48900002 -0.0061377715 -0.050391424 14540504
0.49323341 -0.0049580103 -0.055148538 14409175
0.49619231 0.0038081224 -0.05424422 14014675
0.50176477 0.0075586331 -0.057512552 13685967
0.49866667 0.011057406 -0.050609577 13554381
0.50477421 0.013013355 -0.054690551 13554381
0.51281822 0.017796211 -0.056069151 13620174
0.51692593 0.02298422 -0.053362656 13225160
0.52344823 0.02666907 -0.056268126 13422281
0.53000003 0.029949427 -0.059579428 13685965
0.52766669 0.031052848 -0.054791164 13685194
0.53477281 0.036004897 -0.055250201 13948621
0.53861547 0.041105725 -0.053759679 14080207
0.543262 0.046087667 -0.055497907 14145744
0.54741168 0.052910607 -0.054978263 13619401
0.55165219 0.058350749 -0.054824788 12698296
0.55562502 0.062456176 -0.054973755 11974572
0.56220001 0.067307211 -0.053546049 11448485
0.56733334 0.07249561 -0.052634146 11580071
0.56700003 -0.080785125 -0.041173674 14472905
0.5646857 -0.074188024 -0.044145327 14209733
0.55638093 -0.062342014 -0.04388142 13880768
0.56137514 -0.067009404 -0.045654275 14012097
0.54568756 -0.053082719 -0.044499956 13880255
0.55245 -0.058021098 -0.045940269 13814718
0.5359 -0.044309381 -0.044152915 13748927
0.5418182 -0.048601732 -0.046959106 13880257
0.51495004 -0.032569058 -0.043662868 13353914
0.52561116 -0.036952183 -0.044594765 13617085
0.53122228 -0.03893229 -0.047282379 13682878
0.49728578 -0.021459559 -0.041934036 12959412
0.50464439 -0.025492379 -0.044890996 12959413
0.5110001 -0.028346127 -0.048272625 13156791
0.4859601 -0.01226787 -0.043894868 13684422
0.4939706 -0.016580405 -0.045600198 13091513
0.50050002 -0.019463802 -0.048355252 12762805
0.47900003 -0.007694276 -0.040390145 14474711
0.4836365 -0.005124677 -0.044688642 14343639
0.48638475 0.0031994318 -0.043497961 14080211
0.49191171 0.0066316351 -0.046833761 13751247
0.49512124 0.012702275 -0.044181123 13553868
0.50318754 0.016658096 -0.047217347 13619661
0.51000005 0.019267907 -0.048973713 13685967
0.50700003 0.020341462 -0.042752713 13553357
0.5144999 0.025147839 -0.045100652 12961987
0.52033335 0.02940318 -0.047530551 13554379
0.52533334 0.032490261 -0.045188978 13554376
0.5328182 0.037143014 -0.044875193 13685706
0.53759998 0.042211484 -0.044452742 13948621
0.54288244 0.047652658 -0.045366932 14014414
0.5467838 0.053838301 -0.04510276 13948621
0.551 0.058869701 -0.044526313 14014414
0.55537045 0.062928461 -0.04437349 14080207
0.56111765 0.067408092 -0.045384623 14014415
0.56706893 0.072973199 -0.044750594 13027520
0.57130778 0.078478247 -0.044161193 10725277
0.574 0.080810584 -0.045443069 10791068
0.56477273 -0.081670858 -0.034708638 14275527
0.5584445 -0.071432151 -0.032128114 14209220
0.56167406 -0.075428717 -0.035473719 14406855
0.54766673 -0.060508806 -0.032077167 14011841
0.55416667 -0.064787544 -0.035086676 14012097
0.56033331 -0.068904281 -0.038940821 14077890
0.53816676 -0.05106042 -0.032572642 13683133
0.54413962 -0.055377346 -0.035368327 13814718
0.55000001 -0.059049599 -0.03865163 14011841
0.52706671 -0.041288391 -0.034083895 13617085
0.53368425 -0.045897249 -0.035469145 13683133
0.505 -0.030573986 -0.030760366 13090998
0.51544446 -0.033224277 -0.035950616 13353913
0.52308697 -0.037847579 -0.035112835 13485756
0.48613331 -0.0215433 -0.032801352 12762292
0.49440911 -0.023626829 -0.036745235 12893365
0.50459999 -0.028429275 -0.037229989 13090998
0.51100004 -0.029740984 -0.034714617 13156791
0.47610348 -0.013185549 -0.033231664 13487044
0.4830834 -0.016404206 -0.036090337 13091771
0.49100003 -0.019381434 -0.039103124 13025207
0.47437155 -0.0055086622 -0.034905333 14343383
0.48000002 -0.0015300519 -0.039350774 14541274
0.47623816 0.0020143688 -0.032781821 14080725
0.48337746 0.0057596029 -0.036022261 13685711
0.48763639 0.010848107 -0.034064677 13225416
0.49397364 0.014839423 -0.035191353 13422795
0.5 0.018890103 -0.032796826 13488588
0.50587505 0.023520421 -0.033519004 13028037
0.51179165 0.026278079 -0.037016269 13028035
0.51200002 0.030130876 -0.03118675 13225414
0.52514297 0.034071393 -0.034532491 13488585
0.53143477 0.037442569 -0.036211245 13554377
0.53655821 0.043326005 -0.034347963 13817292
0.54205 0.048587948 -0.035621889 14014414
0.54626477 0.053439643 -0.035194468 14014414
0.55140007 0.058332652 -0.035071224 14014414
0.55586851 0.064396642 -0.03447466 14146000
0.56049997 0.068741389 -0.036438279 14146001
0.55900002 0.070847042 -0.030123707 11974320
0.56421053 0.07290414 -0.037155125 13027262
0.55866671 -0.081341863 -0.021387013 14143940
0.56079996 -0.081871256 -0.025890758 14341319
0.55616212 -0.074390195 -0.024098877 14407112
0.56038457 -0.078228354 -0.027272595 14604491
0.5463571 -0.063229911 -0.023734663 14143427
0.55246156 -0.067523912 -0.026441624 14143683
0.53644121 -0.053684179 -0.024367498 13683133
0.54220003 -0.058404714 -0.025478721 13814719
0.51800007 -0.041467216 -0.022255257 13420217
0.52548277 -0.043782886 -0.025390189 13551547
0.53133333 -0.048103027 -0.02620605 13617083
0.49700004 -0.030817995 -0.022854973 13090998
0.50414294 -0.033843439 -0.023963241 13288120
0.51392871 -0.037219085 -0.025292989 13419705
0.47720003 -0.021518573 -0.02102563 12696755
0.48406973 -0.023490855 -0.025563996 12827827
0.49250004 -0.028172305 -0.025637152 12959412
0.46807143 -0.011824696 -0.022721147 13684678
0.47371155 -0.015446197 -0.025400955 13157564
0.48050004 -0.018686041 -0.02842468 12828341
0.46675357 -0.0054226015 -0.024671685 14277588
0.47000006 -0.0052268971 -0.029484235 14277846
0.46799999 0.0013092273 -0.023153119 14146517
0.47285423 0.0052601956 -0.025250891 13620174
0.48100004 0.0087894797 -0.028923146 13422795
0.47738469 0.0111603 -0.022030724 13291209
0.48310527 0.014034657 -0.023172755 13225416
0.49523532 0.017826838 -0.026420092 13225673
0.49829414 0.022326576 -0.023491479 13093830
0.50269759 0.025839554 -0.02594446 12764864
0.505 0.030901145 -0.022484867 13224644
0.51487505 0.033173379 -0.024873154 13225157
0.52400005 0.036049932 -0.02549101 13619657
0.53088892 0.038699135 -0.0270916 13816779
0.53520006 0.044369392 -0.025391333 13882572
0.54016668 0.049492031 -0.025948433 13817035
0.54537147 0.05365935 -0.025376445 13882828
0.55136847 0.058603752 -0.024685793 13882828
0.55483329 0.065010369 -0.025184015 14277586
0.55841666 0.071318373 -0.024317959 11053729
0.55528575 -0.080788918 -0.01748706 14077634
0.54773909 -0.07235688 -0.012848216 14341319
0.5520556 -0.076395802 -0.015861001 14275783
0.53875005 -0.060364217 -0.012006826 13880512
0.54413468 -0.065090656 -0.0148727 14143940
0.53440005 -0.054860305 -0.014812576 13485754
0.54000002 -0.059240121 -0.018354554 13683132
0.51470006 -0.042251125 -0.014481601 13354424
0.52543342 -0.046906259 -0.015974406 13354424
0.53000003 -0.049457904 -0.019875765 13486010
0.48455557 -0.030976763 -0.012378291 13025204
0.495 -0.033174105 -0.016051989 13156790
0.50430769 -0.036985181 -0.016733136 13222839
0.51066667 -0.039285425 -0.017956037 13288631
0.46900001 -0.020708894 -0.011549519 12696242
0.47487238 -0.024264488 -0.014120594 12696499
0.48269236 -0.027576067 -0.016623573 12893621
0.491 -0.02972639 -0.018989097 12959414
0.45773336 -0.011998182 -0.012167118 13684677
0.46507555 -0.015079048 -0.015472823 13223612
0.47115391 -0.018769113 -0.018010736 12762805
0.4567551 -0.0052837832 -0.013142029 14212308
0.46181259 -0.0051216516 -0.018031254 14277588
0.45860004 0.0012228425 -0.011830908 14014930
0.46473223 0.0043358994 -0.015159388 13685966
0.4711667 0.0079673296 -0.018131195 13422795
0.46880001 0.01046825 -0.011874209 13357001
0.47406459 0.01276062 -0.015137357 13290954
0.48300001 0.016366832 -0.018489318 13225161
0.491 0.019412747 -0.017840829 13290954
0.4959074 0.024890151 -0.014734562 12633024
0.50059998 0.028289486 -0.019007321 12699071
0.49875003 0.031394832 -0.010822806 12830658
0.50513333 0.033435415 -0.0142164 12961986
0.51342863 0.036054622 -0.016256638 13028035
0.52250004 0.039006732 -0.018373076 13620170
0.51750004 0.040146362 -0.011532981 13620172
0.52627277 0.042172372 -0.01559515 13817294
0.53396559 0.046903886 -0.015630223 13882829
0.53768754 0.052099116 -0.012062817 14014159
0.54381257 0.055598807 -0.0150683 13948622
0.55133337 0.05869038 -0.018524788 13948621
0.54619998 0.062067591 -0.01140599 13750988
0.55351293 0.065372504 -0.016343027 13882828
0.55775005 0.071015775 -0.018632764 11119265
0.54625005 -0.073994651 -0.0047960314 14078148
0.55000001 -0.078362994 -0.0090377517 14407112
0.53773916 -0.062058724 -0.0039117946 13946048
0.54313892 -0.067111619 -0.0048659439 14077891
0.51900005 -0.0508614 -2.3433615e-05 13222071
0.52617651 -0.052799501 -0.0040848735 13354168
0.53229028 -0.056830611 -0.0052904929 13485754
0.49842861 -0.040844493 -0.0066903932 13222838
0.50442106 -0.043097634 -0.0028161027 13222583
0.51509094 -0.047960225 -0.0024404647 13288376
0.52200001 -0.049933381 -0.0036896032 13354424
0.48550001 -0.032078888 -0.0070043416 12959410
0.49508336 -0.037225496 -0.006444741 13091252
0.50100005 -0.03971462 -2.2620887e-05 13025205
0.45687503 -0.020574994 -0.0018972472 12696499
0.46433339 -0.023796182 -0.0045982799 12696242
0.47293341 -0.025835855 -0.008137038 12696242
0.48000002 -0.029060423 -0.0078874929 12893619
0.44784209 -0.012216866 -0.0014573593 13553347
0.45396727 -0.014929452 -0.0053595533 13223356
0.46187499 -0.018367842 -0.0084025757 12828085
0.44720411 -0.0053242384 -0.0025260369 14212050
0.45228958 -0.0049503217 -0.0078259297 14212307
0.44869229 0.0016814079 -0.0010711962 13817552
0.45490915 0.0031524762 -0.0054273331 13751759
0.4631364 0.0075471033 -0.0073177577 13488587
0.46794116 0.013751648 -0.0032152405 13093830
0.47093761 0.015521036 -0.006432361 13093830
0.49477425 0.027326798 -0.0056612473 12370107
0.4971143 0.032149766 -0.0043121935 12633278
0.50320005 0.035743661 -0.007095404 12962244
0.51100004 0.039243355 -0.0036118531 13159621
0.51675004 0.040997669 -0.0033452366 13093828
0.52542853 0.044574287 -0.0034206521 13225414
0.53104758 0.04830201 -0.0048211692 13751502
0.53662002 0.054501072 -0.0045234789 14014417
0.54022223 0.059474017 -0.0049441713 14079953
0.54187512 0.06297034 -0.0044699125 13750988
0.53863645 -0.07238856 0.007884915 14143940
0.54195446 -0.073469155 0.0036614621 14143940
0.528 -0.060395785 0.0092454208 13551803
0.53538305 -0.064688578 0.0056218156 13946049
0.54079998 -0.068949938 0.0022533925 14078148
0.51579171 -0.052060843 0.0065125413 13156534
0.52450001 -0.056316976 0.0051233168 13419705
0.53133339 -0.059118852 0.0026705209 13551291
0.49866667 -0.041865211 0.008538587 12959412
0.50493938 -0.04454641 0.0057433411 13156791
0.51140004 -0.048441373 0.0036848481 13288120
0.46561539 -0.031755362 0.0056452304 12827826
0.47290909 -0.034876537 0.0081273057 12893619
0.48400003 -0.03780517 0.0067951912 13025205
0.49600002 -0.039318264 0.0057692835 12959412
0.50050002 -0.039674982 0.0017343357 13090998
0.44900003 -0.020876903 0.0094397804 12499633
0.45611626 -0.022903118 0.0052169161 12499376
0.46154842 -0.027597673 0.0047563477 12630705
0.43850002 -0.011590643 0.0080448408 13619398
0.44458067 -0.014739467 0.0048099379 13158333
0.45100001 -0.018990565 0.0038054453 12697012
0.4384 -0.006220038 0.007943036 14146258
0.44210726 -0.0044760397 0.0038731103 14212051
0.44620827 0.0039128596 0.005574333 13423307
0.45119998 0.0085271532 0.0038468337 13226185
0.45553854 0.011718309 0.0067019346 13160135
0.46660009 0.017464476 0.0052185464 12896193
0.46899992 0.02347477 0.0066662617 12501178
0.47000012 0.026401743 0.0081522772 12566714
0.49800003 0.033389136 0.0011433414 12896450
0.50100005 0.036520638 0.0017366542 12896449
0.52360004 0.045034274 0.0026718068 13028035
0.53133339 0.048959445 0.0044002733 13290951
0.53634 0.054774456 0.0056236298 13882831
0.54000002 0.059589956 0.0031359924 14145746
0.53883338 0.062194739 0.008384998 13224387
0.54077274 0.062956378 0.0041173762 12961471
0.53497225 -0.072533719 0.014570203 13814976
0.52600008 -0.062802047 0.016092988 13682876
0.53254843 -0.067352504 0.014607844 13814719
0.509 -0.051072985 0.017453497 12893618
0.51476747 -0.054828942 0.015334708 13090997
0.52200007 -0.059031103 0.013415436 13551290
0.48606253 -0.042229906 0.017541248 12959156
0.49427781 -0.043941811 0.014114441 13156535
0.50412506 -0.047932766 0.012957303 13156791
0.51000005 -0.049979411 0.010722246 13288377
0.46900001 -0.030590329 0.010958198 12565424
0.47458822 -0.033314843 0.012659452 12827826
0.48275 -0.037787769 0.01555408 12827826
0.44527778 -0.023509542 0.016171977 12499118
0.45183337 -0.025767932 0.012665186 12564910
0.46750003 -0.029398067 0.011470949 12696753
0.43530548 -0.014065655 0.015102799 13289919
0.44168422 -0.018470243 0.012873276 12631219
0.42899999 -0.0078954129 0.019062268 14079951
0.43292311 -0.0050899624 0.014544264 14146258
0.4352001 0.0018306493 0.015687376 13620172
0.44469565 0.0054064505 0.012197898 13291207
0.45125005 0.0092141023 0.013714574 13093829
0.45606983 0.013216109 0.014951198 12962499
0.46320003 0.01824124 0.01506629 12567484
0.46787491 0.022991754 0.015142818 12303799
0.47000018 0.027816389 0.012972545 12566714
0.51650006 0.045514774 0.018919416 12829886
0.52350003 0.048581824 0.016508631 13290437
0.53149998 0.049942203 0.011795802 13422023
0.5270589 0.052867733 0.018192075 13948110
0.53242558 0.056183174 0.014261053 14079696
0.53499997 0.061771449 0.01379551 12369077
0.52687502 -0.071290225 0.025639182 13617598
0.53050005 -0.072169714 0.021398703 14012101
0.51715386 -0.061389379 0.026417546 13420218
0.52447367 -0.066008724 0.02436831 13551548
0.53000003 -0.069309741 0.021068642 14012100
0.49825004 -0.051452789 0.028263438 13090998
0.50489998 -0.054567583 0.02787371 13090998
0.51396668 -0.057229042 0.024232861 13090998
0.47900003 -0.041334704 0.026890716 12367275
0.48514819 -0.043807779 0.023791883 12959412
0.49271432 -0.048123393 0.027084565 13090998
0.45885721 -0.031309631 0.025758907 12630447
0.46490002 -0.034792226 0.026534032 12762033
0.47400007 -0.03768504 0.023933768 12827826
0.48066673 -0.038852688 0.020607347 12762033
0.43663332 -0.021736391 0.026177054 12433068
0.44414285 -0.024918068 0.02419254 12498861
0.4544546 -0.028969098 0.02454591 12564654
0.42537293 -0.013503169 0.026197342 13487555
0.43227029 -0.01690474 0.02297643 12894391
0.42464781 -0.0055033644 0.025032125 14014929
0.43000001 -0.0016726628 0.020515995 14080723
0.42616001 0.0017364883 0.027710117 13488587
0.4337576 0.0050022295 0.024059493 13225416
0.44100004 0.0089193247 0.021660257 12963014
0.43900001 0.010676196 0.028242119 12764865
0.44400001 0.012323802 0.026181463 12830658
0.4571 0.016260119 0.023682872 12633279
0.46055555 0.018718399 0.021661453 12041140
0.46116671 0.020661769 0.023724124 12041141
0.51672971 0.046500813 0.025315529 12764092
0.51900005 0.051197626 0.028528795 14146515
0.5242281 0.055121884 0.024902223 13554122
0.53000003 0.059727177 0.021068642 13882574
0.53000003 0.060967915 0.021068642 10395545
0.51450002 -0.070289791 0.036085799 13354683
0.52200001 -0.071441248 0.031502452 13485755
0.50669235 -0.062433705 0.036655921 13222325
0.51248276 -0.065737121 0.034097124 13354425
0.52149999 -0.068809167 0.030497476 13683389
0.49765521 -0.052829839 0.035612665 13025460
0.50309676 -0.056980986 0.034240805 13025204
0.46192858 -0.041251104 0.036272444 12761776
0.47150004 -0.041787781 0.031985112 12762033
0.48425001 -0.044344135 0.031154059 12893619
0.49294117 -0.048513394 0.033511173 12959667
0.43500003 -0.030409379 0.039695732 12696240
0.44733337 -0.030224347 0.034008447 12564654
0.45756251 -0.035674479 0.03666763 12696240
0.46211115 -0.037952982 0.03362333 12761777
0.42605892 -0.021807106 0.037818223 12433840
0.43427667 -0.024544967 0.035056856 12433069
0.44294447 -0.027914405 0.032868702 12433068
0.41562507 -0.013521372 0.036306147 13553605
0.42269057 -0.017022967 0.033314943 12894904
0.43000001 -0.019993469 0.030683035 12368047
0.41506857 -0.0054469979 0.035288185 14014673
0.42037505 -0.0022001686 0.030980192 14014930
0.41607696 0.0008115095 0.036914196 13488844
0.42455563 0.0039907726 0.034554154 13028294
0.43107411 0.0079525644 0.034586761 12830915
0.42900002 0.010181929 0.039148204 12897221
0.43393338 0.011045801 0.035595875 12633792
0.44652176 0.016829582 0.036565572 12435903
0.45187503 0.018660018 0.033959474 12106938
0.44882351 0.022087196 0.038546354 11843248
0.4524667 0.023023304 0.034714188 12106420
0.51533341 0.047876518 0.034695521 13356229
0.51697367 0.053355638 0.03595921 13685449
0.52135712 0.056053489 0.031447101 13159108
0.509 -0.070138231 0.046448566 13551290
0.51075006 -0.070379376 0.043020066 12959928
0.49816671 -0.060871318 0.048373763 13025205
0.50520754 -0.064958274 0.044779234 13156534
0.51020002 -0.068870418 0.042018838 13091511
0.48446152 -0.052716587 0.048305385 12893619
0.49586844 -0.055167682 0.044207823 12959155
0.50160003 -0.058786225 0.042131595 13090485
0.46550006 -0.042508084 0.046295188 12893619
0.47321433 -0.047010541 0.047531229 12827826
0.48180002 -0.047668122 0.044865392 12827826
0.49350002 -0.048940659 0.040412951 13024692
0.42445001 -0.032456506 0.047772598 12893618
0.43050003 -0.030094799 0.040796213 12565424
0.45900002 -0.03767468 0.041241124 12762033
0.46066669 -0.039573174 0.043298569 12827826
0.41541177 -0.022925017 0.046748132 12630961
0.42331257 -0.025981868 0.043449108 12630961
0.43033335 -0.028404638 0.040612835 12433839
0.40716687 -0.01373616 0.04650845 13619398
0.41215217 -0.016338458 0.042787623 13223869
0.4068276 -0.0053610564 0.04600412 14014672
0.41068 -0.0045169834 0.041167736 14014159
0.40825 0.0016626803 0.048100721 13554380
0.41301695 0.0040584411 0.044714119 13159622
0.42275003 0.007808648 0.041872453 12436670
0.42762503 0.011276201 0.042901799 12765378
0.43216667 0.013213987 0.043058533 12567999
0.44400007 0.01788749 0.041901343 12041399
0.44745457 0.022239253 0.041592885 11909299
0.49860007 0.039614212 0.046432178 12698555
0.4988572 0.041703284 0.04785832 12961469
0.50407696 0.045253746 0.045417301 13290434
0.51050001 0.048367705 0.041406337 13751242
0.50849998 0.050161831 0.048187964 13948621
0.51202434 0.053289156 0.044967432 12895676
0.50344443 -0.070681319 0.055359252 13024947
0.48650002 -0.061058864 0.058057223 13091252
0.49613798 -0.064085051 0.055163067 13025459
0.50254542 -0.067541055 0.052970622 12828080
0.46714291 -0.052027624 0.058718059 13091511
0.47459999 -0.052821163 0.055566516 12959669
0.48362961 -0.056457311 0.054109696 13025204
0.49150002 -0.058906242 0.05194607 12959668
0.42899999 -0.040233765 0.057627261 12630960
0.45900002 -0.043906942 0.055854693 13354170
0.46558067 -0.046542235 0.053977806 13156791
0.47200006 -0.049019605 0.05163208 12959412
0.41714284 -0.031114792 0.056827605 12762547
0.42352459 -0.034704793 0.055097576 12959668
0.40678734 -0.022707209 0.056200683 12565426
0.41347465 -0.026811225 0.054262199 12433583
0.42000002 -0.029360779 0.051108867 12696242
0.39773536 -0.013018184 0.058037091 13817035
0.40255117 -0.015568732 0.053840555 13487557
0.39770597 -0.005328685 0.057593573 14079953
0.40150738 -0.0046804915 0.052696142 14014416
0.39857149 0.0018626286 0.058831017 13619660
0.40354168 0.0024213521 0.053536337 13422794
0.41100001 0.0071897395 0.050333619 12173498
0.48900002 0.039080162 0.059505325 12764090
0.49300003 0.039054066 0.055137277 12698554
0.4950527 0.043979071 0.056142166 13159105
0.50258827 0.047989376 0.052781999 13487813
0.498 0.050875369 0.05885119 11843244
0.50576919 0.052441634 0.053974904 11711403
0.51083338 0.054179776 0.051000204 11908781
0.47550002 -0.071087837 0.06843809 13354425
0.46661904 -0.062479887 0.067493223 13090741
0.47275001 -0.066750124 0.066875823 13288377
0.48440003 -0.064936504 0.062346362 13091252
0.4935455 -0.067067988 0.061419431 13091252
0.4436667 -0.051096488 0.069221817 13025205
0.45650002 -0.054890636 0.068900712 13025205
0.46338469 -0.055346582 0.064777568 13025205
0.47600001 -0.058905017 0.060152035 13091252
0.42550001 -0.04136686 0.066756241 12696240
0.43337041 -0.045414016 0.066832013 12958899
0.46071431 -0.049001776 0.062997393 13091255
0.40900001 -0.030506762 0.069398567 12498861
0.41484317 -0.033732582 0.066453233 12696240
0.4230001 -0.037358224 0.063596316 13090998
0.39625719 -0.021846646 0.067348048 12762035
0.40449339 -0.025512083 0.06422963 12433069
0.41122228 -0.029175825 0.062019188 12433068
0.389 -0.01262318 0.068888746 13882573
0.39354053 -0.014938494 0.064549074 13750730
0.389 -0.0079398062 0.069062196 13817295
0.3932561 -0.005089025 0.064708717 13882831
0.38850003 0.009220697 0.069102183 12897221
0.3948589 0.0027120854 0.065291278 13422540
0.38700002 0.01009107 0.069742523 12238521
0.4825128 0.037061483 0.066152252 12369589
0.48696166 0.044005949 0.065261453 13027261
0.4905 0.046760943 0.063037463 12698040
0.49600002 0.051251039 0.060357139 10198418
0.46700001 -0.071275532 0.079421364 13288377
0.47596002 -0.073513724 0.076001674 13288377
0.48090914 -0.073740155 0.075101331 13288121
0.45572418 -0.063205332 0.077083848 13156534
0.46400002 -0.065023772 0.073958606 13024948
0.47237504 -0.067583762 0.071442634 13025205
0.43611112 -0.052043669 0.078706145 12893621
0.44326922 -0.053301856 0.073807053 13090998
0.45430771 -0.057855703 0.072696552 13025205
0.46300003 -0.059464049 0.07043203 13156791
0.41800004 -0.041453522 0.07483869 12564656
0.42320004 -0.044323068 0.075485587 12630449
0.43426669 -0.048253171 0.074583642 13090741
0.39400005 -0.030824538 0.076123297 12631219
0.40581819 -0.031133058 0.073296189 12762035
0.41463801 -0.036511261 0.073148474 12696242
0.38783675 -0.023984656 0.077857904 13224127
0.39275759 -0.025174787 0.073907018 12828599
0.40310001 -0.028276512 0.071223661 12630449
0.38614601 -0.015074091 0.075206749 13224898
0.39025 -0.01905882 0.071012959 13552579
0.38568097 -0.0054154098 0.075095147 13159107
0.39019999 -0.0018826684 0.070501804 13620429
0.38695505 0.0042006592 0.075851902 13028293
0.39104348 0.0031120754 0.071583889 13357772
0.38642859 0.010076171 0.073385172 12238521
0.47606668 0.037083142 0.075763196 12501691
0.4808 0.03808913 0.071337916 12435896
0.47900003 0.040523671 0.077912033 12896450
0.4845511 0.044126578 0.075461134 12304054
0.49143755 0.04876779 0.073176034 10790300
0.49150002 0.050786063 0.076492809 10461590
0.46420002 -0.080481783 0.08799617 13814719
0.45787507 -0.071937926 0.087804809 13682623
0.46455744 -0.075729042 0.085025899 13748671
0.47025001 -0.07608293 0.080616891 13420220
0.44688237 -0.062010646 0.086679421 13156279
0.45398158 -0.066125914 0.084916674 13090485
0.4605 -0.069923356 0.082448587 13353657
0.42900002 -0.050578024 0.088860884 12894391
0.43467206 -0.054001421 0.085814327 12959157
0.44290912 -0.057969645 0.083108388 12893106
0.39545453 -0.041784 0.089188345 12828598
0.40525004 -0.042148687 0.086603031 12828342
0.4156 -0.042864028 0.083834633 12828342
0.42562965 -0.047289163 0.085227571 12893877
0.43028575 -0.048931032 0.082147293 13025207
0.38797778 -0.032190051 0.086119771 12894391
0.39302704 -0.036955304 0.087238066 12762805
0.403 -0.039493531 0.085361071 12959414
0.37900001 -0.020283887 0.089594714 3026983
0.38394803 -0.025040923 0.084951878 11579301
0.37840009 -0.014347388 0.086687855 2173219
0.38096473 -0.015821723 0.082358882 2567723
0.37830889 -0.0056076171 0.087059341 2172964
0.38101557 -0.0047816718 0.082486935 3026991
0.3788 0.00047759883 0.088837638 9013892
0.38273141 0.0042300969 0.084920608 12632764
0.38475001 0.010257725 0.08892668 12830402
0.46500003 0.039339263 0.085976303 12237749
0.47800002 0.041558076 0.083903916 12632507
0.48137498 0.044317912 0.082172289 12171957
0.45669699 -0.081816643 0.096157335 13880515
0.46000001 -0.081154555 0.090436161 14077893
0.44826669 -0.071984679 0.098411299 13288378
0.45481014 -0.075534195 0.094577923 13748673
0.46000001 -0.079539247 0.090436161 14012100
0.43533337 -0.062468342 0.09695451 13353915
0.44448072 -0.066034488 0.094698548 13222586
0.45170006 -0.069010638 0.091656215 13353659
0.39742857 -0.051708426 0.098603792 12959414
0.42517313 -0.054438327 0.0947823 13091000
0.43260714 -0.057445403 0.09227787 13156537
0.38741669 -0.041444156 0.097774237 12893621
0.39246666 -0.044606544 0.095193774 12762548
0.41800001 -0.04781333 0.091962852 12893621
0.42166671 -0.048892129 0.091448434 12959928
0.3783612 -0.033142462 0.098250784 13816776
0.38400942 -0.035350718 0.094275676 13289405
0.39033332 -0.038556937 0.091054998 12762805
0.37844706 -0.024694026 0.09722697 10065806
0.38053328 -0.025430676 0.092375398 11776424
0.37655994 -0.014813336 0.095101081 2107425
0.37544739 -0.0051498502 0.094896808 2172449
0.37800002 0.0041917935 0.096220478 10395544
0.38108155 0.0069343224 0.092432886 13027521
0.37833333 0.010898255 0.098587759 13423563
0.38128573 0.010960412 0.094460592 13423050
0.44750005 -0.082669012 0.1063845 13814722
0.45112503 -0.082359836 0.10149466 13946309
0.43736848 -0.071532778 0.10753919 12958900
0.4445467 -0.075664721 0.10453627 13617086
0.45060006 -0.078546897 0.100613 13748929
0.42780954 -0.06291084 0.10394663 13091000
0.43287808 -0.066673346 0.10397994 13024950
0.44066671 -0.069318391 0.10107619 12958899
0.38499999 -0.050797891 0.10813609 12959412
0.39664289 -0.051873226 0.10257302 12959414
0.40000004 -0.054767299 0.10298673 13025206
0.42650002 -0.059768498 0.10132224 13222586
0.3777408 -0.042326022 0.10835577 13684419
0.3837907 -0.044532634 0.10461921 13091512
0.39265221 -0.047835801 0.10185076 12827828
0.37611637 -0.034991905 0.1052788 13947849
0.38033333 -0.039349485 0.10178044 13552834
0.37668353 -0.025102308 0.10509547 9868683
0.36843917 -0.013365837 0.10790263 1909787
0.37176394 -0.015321218 0.10383181 2107168
0.36858344 -0.0063990448 0.10817555 1909277
0.37137732 -0.0046751029 0.10383017 2041121
0.374524 0.0048683109 0.10486405 9540492
0.37494063 0.01362926 0.10571154 12961729
0.43791181 -0.083291352 0.11814106 13880257
0.4421086 -0.083644018 0.11341521 13683135
0.42773336 -0.072826296 0.11679983 12958899
0.43476599 -0.07636489 0.11531819 13353657
0.44114286 -0.077977382 0.11136471 13354170
0.40000001 -0.063546121 0.11984205 12762033
0.37796295 -0.051788349 0.11733341 13156793
0.38199997 -0.054044452 0.11635671 12827827
0.39100003 -0.058913823 0.11897629 12696240
0.37415862 -0.044836368 0.11511624 13947335
0.37294525 -0.035140581 0.1151666 13881798
0.37439111 -0.025311677 0.11487437 8947325
0.3672066 -0.013972181 0.11515173 1647130
0.37068176 -0.019247597 0.11413331 2040605
0.36707997 -0.0051914584 0.11515396 1777948
0.37033334 -0.00074699899 0.110953 2106146
0.36809093 0.0010605338 0.11842761 5132362
0.37161079 0.0057274061 0.11439542 9014148
0.37160182 0.01420847 0.11548997 13027521
0.37100002 0.02009608 0.11940444 11514026
0.42820001 -0.090680622 0.12909156 13091256
0.42999998 -0.090793647 0.12748803 12499633
0.41800001 -0.080105335 0.12914912 13222584
0.42615697 -0.084118687 0.1276895 13551549
0.43256924 -0.085467748 0.12321563 13748928
0.40669239 -0.071934074 0.12798968 12827826
0.41419145 -0.075170629 0.12637767 13024949
0.42486212 -0.076920211 0.12343433 13156534
0.43055558 -0.078704454 0.12126766 13616829
0.37809095 -0.060950648 0.12816304 12827826
0.38286483 -0.063618921 0.12727955 12827569
0.39450002 -0.067980334 0.12892254 12762033
0.40385363 -0.067252822 0.12486764 12761776
0.36850002 -0.05135338 0.12880762 13882569
0.37430999 -0.05473388 0.12498635 13354685
0.38028574 -0.058633696 0.12131143 12761521
0.36856002 -0.0445843 0.12699808 13948363
0.37050009 -0.045662362 0.12250757 14211277
0.36899999 -0.038952425 0.12796392 13619654
0.37121874 -0.034860421 0.1244416 13027004
0.36300004 -0.020277366 0.12957534 1317651
0.37377211 -0.025656193 0.12490021 8158324
0.36345467 -0.014822126 0.12512824 1778202
0.37 -0.019802213 0.12124803 1973784
0.36340141 -0.0053401403 0.12508331 1843226
0.36829484 0.0049076993 0.12520914 7237481
0.37004936 0.0052182209 0.12443057 7434861
0.36798421 0.014724585 0.1254781 12303797
0.36999995 0.016100811 0.12094486 13158852
0.36899999 0.020974984 0.12560973 11711661
0.37014288 0.020668346 0.12166572 11645612
0.41483334 -0.091231264 0.13795872 13288120
0.42316666 -0.090668678 0.13222383 13748928
0.39650002 -0.080626152 0.13967767 12827828
0.40558332 -0.083002716 0.13846307 13025205
0.41441977 -0.085204363 0.13528743 13354170
0.42246884 -0.087020576 0.13176033 13551549
0.38669568 -0.071590498 0.13691297 12762292
0.39468753 -0.076044045 0.13709465 12827828
0.404425 -0.07660833 0.13362893 12893619
0.41249999 -0.078810774 0.13130927 13025205
0.37812001 -0.062444411 0.13240682 12696756
0.38222387 -0.066296741 0.13521433 12039082
0.39400002 -0.069971822 0.13003513 12762033
0.36818182 -0.051753867 0.13099441 12238004
0.37258828 -0.057145987 0.13127792 12895419
0.36754543 -0.045794331 0.13076806 11711401
0.36900002 -0.038969036 0.13063848 12500404
0.37083331 -0.034021284 0.13097256 10922399
0.36200002 -0.020221507 0.13218704 922636
0.37419051 -0.026533399 0.13142298 8026995
0.36373535 -0.015093495 0.13397205 1515031
0.37042856 -0.012885704 0.13959925 593930
0.36320418 -0.0052130399 0.13338491 1448212
0.37060001 -0.0076895924 0.13966385 330758
0.368 0.007611162 0.13067141 7960948
0.37100002 0.0031599859 0.13069516 4803911
0.36729994 0.015042263 0.13164839 9738129
0.37100002 0.019227562 0.13460349 6710880
0.37392157 0.023918213 0.13579363 10198164
0.40361539 -0.091958381 0.14623538 12959926
0.39718425 -0.08235883 0.14449398 12696755
0.40203333 -0.087180369 0.14387399 13025207
0.38824999 -0.071848981 0.14239728 10986394
0.39294446 -0.077148624 0.14358564 11972775
0.38465393 -0.066551916 0.14191332 9737354
0.36157581 -0.021528782 0.14741108 2567463
0.37 -0.020668389 0.14376861 3816764
0.36248279 -0.016933836 0.14777622 791308
0.3723332 -0.014619865 0.14391857 659721
0.36620969 -0.0036870423 0.14782049 1249031
0.37203446 -0.0070157615 0.14451244 396549
0.36400005 0.0004587587 0.14782821 4927265
0.39263633 0.015538846 0.14635618 5328709
0.37883332 0.02628476 0.14099295 9211268
0.38454682 0.023874149 0.14537469 7763821
0.39000002 0.020212263 0.1478879 5197123
0.40333334 -0.093346983 0.15105508 12631217
0.36089835 -0.021949379 0.15469547 2172189
0.35888243 -0.01278276 0.15882131 922895
0.36101499 -0.014828515 0.15440051 988943
0.359 -0.008876265 0.15899229 922895
0.3619999 -0.0053152977 0.15469962 1053452
0.36300001 0.00011758257 0.15379551 5389878
0.39600003 0.0093987035 0.15016311 7167831
0.39702439 0.014657474 0.15261744 5327936
0.40148491 0.015542461 0.15768568 5459780
0.38900003 0.027749239 0.15024069 9868681
0.3946 0.027509067 0.15518019 8092269
0.40155557 0.023521651 0.15832806 5986381
0.38900003 0.030177653 0.15024069 9606281
0.39150003 0.030599847 0.15258393 10000781
0.34567866 -0.022142082 0.1685942 1449493
0.36135191 -0.021706132 0.16504918 857359
0.34603447 -0.014820724 0.16836026 1054480
0.35581762 -0.013995162 0.16498478 1054994
0.36043242 -0.017945847 0.16326639 989457
0.34575874 -0.0062979511 0.1687852 1120275
0.35583171 -0.0072079301 0.16506745 988689
0.36015388 -0.0040333341 0.16192859 857103
0.40695244 0.017098626 0.16343953 5657930
0.41153336 0.017024685 0.16838582 5723467
0.40625006 0.024117427 0.16339871 6381139
0.41115794 0.024601132 0.16817176 6841433
0.41240007 0.031607635 0.16873974 7302752
0.33820006 -0.022138705 0.17859669 1317652
0.34189528 -0.022969728 0.1734215 1712408
0.36066672 -0.02042873 0.17081951 527624
0.33790696 -0.015104799 0.17810477 1252116
0.34144759 -0.01492076 0.17322333 1317909
0.33791897 -0.0067966715 0.1788719 1121044
0.34166065 -0.0060931728 0.17367436 1186324
0.41366661 0.016993053 0.17235889 7237475
0.41442597 0.025127295 0.17310801 7368035
0.33391002 -0.022332339 0.18407077 1317651
0.33393806 -0.014844808 0.18397796 1252115
0.3343904 -0.0054594264 0.18397194 1251602
0.33600003 0.00010883676 0.18365175 1447698
0.35168752 0.0027907263 0.18414836 3620668
0.78899997 0.15427223 0.23283646 10198162
0.79018188 0.15732378 0.23657463 10132368
0.79226667 0.16458781 0.23638037 10132368
0.78900003 0.1498677 0.24192967 10001039
0.78900003 0.15602458 0.24747086 10066832
0.7904706 0.1567882 0.24346873 10066832
0.78900003 0.16095006 0.24931791 10132625
0.78591311 0.15584433 0.25465956 10001039
0.78844452 0.16165765 0.25509012 10001039
0.79138899 0.16689469 0.25480545 10001039
0.78808337 0.15722795 0.26486602 10001039
0.79000002 0.15930465 0.26997736 9935246
0.78871435 0.1616834 0.26268047 10001039
0.79063642 0.16574468 0.26607105 10001039
0.79226667 0.18479909 0.26518729 10066832
0.78900003 0.15725595 0.27148265 9935246
0.79000002 0.15930465 0.27275145 10132625
0.78900003 0.16626038 0.27702382 9935502
0.79008335 0.16548711 0.27293405 9869709
0.78900003 0.17110893 0.2779474 10001039
0.79051638 0.17546774 0.27445027 10001295
0.79183859 0.18544899 0.2750895 10067088
0.78900003 0.1679689 0.28293449 9935246
0.79000002 0.16855168 0.28847137 9803660
0.78900003 0.17124084 0.2828289 9935246
0.79013056 0.17613979 0.28530231 10001039
0.79200006 0.18566704 0.2854943 10066832
0.79136366 0.16698959 0.29604411 9935246
0.79148155 0.17483851 0.29436767 9935246
0.78872734 0.15552351 0.32694906 9541260
0.79213339 0.15701474 0.32274896 9737868
0.79124999 0.12852944 0.33847782 9409418
0.7906667 0.13496348 0.33786842 9409674
0.78845459 0.14741372 0.33606669 9541260
0.79000002 0.14081062 0.33840528 9541260
0.7885651 0.15532374 0.33409962 9475467
0.79000002 0.15930465 0.33840528 9475467
0.78900003 0.16095006 0.33151221 9672846
0.79069585 0.1653216 0.33524349 9607053
0.79229987 0.17460717 0.33475202 9672846
0.79211998 0.12487019 0.34487724 9409673
0.79150003 0.11884299 0.35479468 9409160
0.79210711 0.12476277 0.35493666 9474952
0.79000002 0.11861777 0.36059815 9408904
0.78900003 0.12544543 0.36670899 9343881
0.79041189 0.12597269 0.36274454 9540490
0.78900003 0.13355197 0.36876133 9409674
0.79144847 0.13583048 0.36393765 9540490
0.79218751 0.14473663 0.36477894 9540747
0.792 0.1845039 0.36487073 9607053
0.78800005 0.12754108 0.37075359 9475467
0.78859997 0.13502376 0.37509722 9475210
0.79000002 0.13834475 0.37231103 9409417
0.78900003 0.14063238 0.37584174 9475210
0.79052186 0.14533015 0.37459481 9409674
0.79170007 0.15501553 0.37434891 9409674
0.78900003 0.13786179 0.3804594 9409674
0.78900003 0.14063238 0.3804594 9409674
0.79119998 0.14596592 0.38349703 9343881
0.78900003 0.13693826 0.41924775 9278088
0.79014289 0.13845792 0.41536221 9212295
0.79050022 0.14460142 0.41541615 9278088
0.79077178 0.15470053 0.41542625 9343881
0.78747988 0.14566684 0.42698562 9278088
0.79000002 0.14520296 0.42232201 9278088
0.78709102 0.15444885 0.42794254 9278088
0.79018754 0.15552805 0.42311564 9278088
0.78860009 0.16234566 0.42900366 9343881
0.79118532 0.16530696 0.42452309 9277832
0.79203439 0.17442119 0.42533308 9278088
0.79140002 0.19478768 0.42515314 9409674
0.79162502 0.20451567 0.42521623 9474954
0.77676475 0.14668655 0.43188852 9278088
0.78200006 0.14365627 0.43017361 9278088
0.77650005 0.1541598 0.43433988 9277831
0.78209096 0.15704387 0.43171823 9278088
0.77900004 0.16073379 0.43764159 9211525
0.7865333 0.16517714 0.43437955 9278088
0.78900009 0.17303993 0.43637505 9343881
0.79040003 0.17659405 0.43349785 9343881
0.79075885 0.18499054 0.43422309 9343881
0.79072016 0.194621 0.43497139 9343881
0.78581816 0.16682988 0.44331181 9343111
0.78887504 0.17339051 0.44388193 9277318
0.79000002 0.17742883 0.44394463 9343624
0.79044008 0.1853009 0.44406891 9343626
