# .PCD v0.7 - Point Cloud Data file format
VERSION 0.7
FIELDS x y z rgb
SIZE 4 4 4 4
TYPE F F F U
COUNT 1 1 1 1
WIDTH 786
HEIGHT 1
VIEWPOINT 0 0 0 1 0 0 0
POINTS 786
DATA ascii
0.52579165 -0.023479627 -0.082643919 13420222
0.53000003 -0.028365333 -0.080671996 14012872
0.51842862 -0.012316053 -0.082465708 13617859
0.52208334 -0.016997084 -0.083388381 13222587
0.51768756 -0.0052849078 -0.083041281 14474453
0.51837504 0.002975231 -0.081557557 14211539
0.52118528 0.0065888464 -0.083759576 14145746
0.52307689 0.012887105 -0.082350202 13487817
0.53300011 0.023884352 -0.081127226 10658971
0.53719997 -0.041578513 -0.070952415 13748927
0.53389132 -0.034939438 -0.073926732 13682879
0.51800001 -0.020967588 -0.071916714 13090743
0.5248974 -0.02463492 -0.075168766 13353915
0.53053856 -0.029158941 -0.075881392 13551293
0.509 -0.010559328 -0.07032609 14079180
0.51494116 -0.014447165 -0.074700527 13420480
0.52116668 -0.01853982 -0.078515135 13222588
0.50840002 -0.0057854848 -0.070600666 14343381
0.51279622 -0.0051242062 -0.075772204 14343124
0.51584375 0.0047988328 -0.074882098 14145746
0.52050006 0.0099165989 -0.078617327 13882574
0.51828575 0.011781673 -0.071609735 13882830
0.52398187 0.015881406 -0.075518377 13816781
0.52809089 0.022312408 -0.072066337 13685195
0.53140539 0.025324723 -0.075575978 12961215
0.53557146 0.031700972 -0.07220713 13882571
0.54466671 0.035027161 -0.073993742 12632245
0.55178577 -0.053246308 -0.062303688 13946306
0.53788 -0.04279067 -0.065250196 13880000
0.54410529 -0.047160119 -0.063641734 13880001
0.52745461 -0.0313733 -0.062887378 13485243
0.53279597 -0.036133643 -0.065468937 13682621
0.51656669 -0.022410156 -0.064400457 12959157
0.5238387 -0.02732799 -0.065455861 13156280
0.49900001 -0.010351876 -0.060767263 14012874
0.50515151 -0.0131723 -0.064064391 13420737
0.51169229 -0.017206587 -0.066599488 13025208
0.49842867 -0.0052283532 -0.061698515 14408916
0.50377154 -0.0050584259 -0.066408671 14408917
0.49900001 0.00074571953 -0.060767263 14212311
0.5051316 0.0039961152 -0.063853055 14014931
0.51158339 0.0069056 -0.067590825 13883344
0.509 0.010889078 -0.060793463 13554381
0.51568294 0.014189621 -0.064363085 13685966
0.52216673 0.018437924 -0.066648558 13685452
0.52573919 0.024443958 -0.064241268 13291209
0.53027278 0.028385075 -0.066833407 13685707
0.53452832 0.03468037 -0.064690918 13948879
0.54200006 0.036971688 -0.069810227 14277327
0.53840005 0.041138001 -0.063044049 13948366
0.54210001 0.045106046 -0.061825942 14014415
0.54771429 0.053853277 -0.060836352 11448229
0.56300002 -0.071429379 -0.050547708 14274758
0.55700004 -0.062598214 -0.05435472 13880255
0.56066668 -0.067342713 -0.051796407 14077634
0.54820001 -0.051669888 -0.051872682 13945794
0.55259192 -0.055795413 -0.055281479 13946049
0.53761113 -0.042198416 -0.054351371 13748415
0.54411113 -0.046996698 -0.055398554 13748671
0.52540004 -0.031935476 -0.055685174 13485244
0.5324412 -0.037593175 -0.055706672 13682622
0.50811112 -0.021511158 -0.05315521 12959157
0.51417655 -0.024555078 -0.055249482 13090743
0.52179998 -0.028294247 -0.057193559 13287865
0.49578384 -0.012706402 -0.054139007 13552836
0.50331038 -0.017272223 -0.055604063 13025465
0.51000005 -0.01893751 -0.059718989 12893623
0.48842862 -0.0055582202 -0.050332543 14408917
0.49321055 -0.0049647694 -0.05537235 14408917
0.49576786 0.0039595175 -0.054454744 13948882
0.50199997 0.007705953 -0.057901606 13685967
0.49840003 0.01112911 -0.051127397 13488588
0.50529414 0.012760278 -0.054860059 13488331
0.51452386 0.017611708 -0.055892855 13554381
0.51809096 0.022717465 -0.053225473 13159623
0.522973 0.026580766 -0.056078143 13290950
0.52733332 0.031446029 -0.054549631 13685449
0.53416669 0.036061265 -0.055429157 13882828
0.53870004 0.040782262 -0.054882802 13948621
0.54359096 0.045647576 -0.055438146 14014671
0.54745716 0.052653119 -0.055170413 13487813
0.55140001 0.058009993 -0.054084152 13027005
0.55522221 0.062790371 -0.053458288 12040367
0.5607143 0.067502275 -0.052343726 11382693
0.56622225 0.07191325 -0.051866371 11514278
0.56800002 -0.080927603 -0.041911136 14670028
0.56442863 -0.074158214 -0.044120502 14275012
0.5562259 -0.062956937 -0.044553082 13880254
0.56066674 -0.06785246 -0.045636054 14011841
0.54643995 -0.052632619 -0.044388741 13880255
0.55176932 -0.057503052 -0.045633521 13814462
0.53631252 -0.043539669 -0.044204708 13748413
0.54242861 -0.048141021 -0.045923386 13814207
0.51682359 -0.032217681 -0.0439367 13353657
0.52504772 -0.036240671 -0.044274632 13551036
0.53141671 -0.038808938 -0.046885323 13682365
0.49600002 -0.021614313 -0.040952753 12958901
0.50572008 -0.024324547 -0.04519923 12958901
0.51157141 -0.028178224 -0.045876734 13156280
0.48577785 -0.012312467 -0.044041745 13684165
0.49367642 -0.016536435 -0.045641363 13156793
0.50150001 -0.01950269 -0.048452452 12958901
0.47900003 -0.0071336022 -0.040390145 14343125
0.4834615 -0.0050996682 -0.044731755 14408918
0.48644453 0.0028198264 -0.043583695 14080211
0.4921025 0.0068098735 -0.046460696 13619916
0.49556762 0.013240614 -0.043547917 13488073
0.50325 0.016561646 -0.046856154 13554123
0.51100004 0.019305687 -0.04906974 13488588
0.50740004 0.021546278 -0.041834425 13356230
0.51557493 0.02518798 -0.045500599 12698814
0.52071428 0.029250801 -0.045999102 13488327
0.52570838 0.032532331 -0.044073507 13553863
0.53216666 0.03703073 -0.045395885 13751242
0.53717244 0.042369399 -0.044084799 14014157
0.54315633 0.047426388 -0.04560136 14079949
0.54709679 0.053146295 -0.044892281 14014156
0.55139136 0.058211114 -0.045315955 14014157
0.55558628 0.063063912 -0.044561498 14014414
0.56077784 0.067645758 -0.044732388 14145743
0.56634784 0.073167644 -0.044356212 12895677
0.56527275 -0.081742525 -0.034741435 14406856
0.5583334 -0.071127586 -0.031976987 14209220
0.56195748 -0.075425543 -0.035410151 14406599
0.54850006 -0.060172603 -0.031484537 13880255
0.55433339 -0.064715184 -0.035066109 14077633
0.56 -0.069300018 -0.038698897 14011839
0.53777778 -0.051163547 -0.032198451 13748669
0.54470742 -0.054942828 -0.035390355 13814462
0.55024999 -0.058754552 -0.038025416 13946048
0.52623528 -0.041717798 -0.033360962 13617084
0.53375757 -0.046067532 -0.035506196 13682876
0.54000002 -0.049126919 -0.03921302 13814462
0.50566667 -0.031010762 -0.031195046 13156791
0.51491183 -0.03380489 -0.034769125 13353657
0.52270591 -0.037982121 -0.036233641 13551035
0.48646668 -0.021406166 -0.032898288 12827572
0.49439132 -0.024102272 -0.035041511 12893106
0.50457144 -0.028105523 -0.035210289 13090741
0.51100004 -0.029740984 -0.038303401 13156278
0.47631034 -0.013190889 -0.033246607 13552579
0.48289192 -0.016407674 -0.036171734 13222588
0.49000001 -0.019341959 -0.039023485 13025209
0.47454947 -0.0054617925 -0.034973945 14343125
0.48000002 -0.00096820755 -0.039350774 14672090
0.4763 0.0018281102 -0.032919008 14146004
0.48323086 0.005647386 -0.03574688 13685197
0.49000001 0.0093355104 -0.039023485 13290437
0.48742861 0.012221935 -0.032898482 13225159
0.49286488 0.015386263 -0.036193896 13488074
0.49900001 0.020020491 -0.035067566 13488075
0.5046429 0.02312116 -0.034115698 12830145
0.51333344 0.026608728 -0.036480371 12632764
0.52100003 0.02944085 -0.039052974 13817035
0.51800001 0.031091467 -0.030944727 13422277
0.52566665 0.033263166 -0.036055773 13553863
0.53068006 0.037343241 -0.035554808 13553863
0.53580427 0.043484475 -0.034461427 13816778
0.54181254 0.048772696 -0.03609677 14014157
0.54611427 0.05351156 -0.034983344 14014157
0.55110532 0.058372397 -0.035400994 14014157
0.55569053 0.064705528 -0.034466486 14079950
0.56022227 0.068962134 -0.037476119 14145743
0.55866671 0.070804797 -0.031414375 13224386
0.56379998 0.073486142 -0.037778426 12632503
0.55866671 -0.081341863 -0.021387016 14275526
0.56090909 -0.08194676 -0.025931882 14406856
0.55648577 -0.074229665 -0.024074402 14406856
0.56040001 -0.078270987 -0.026876468 14538185
0.54656523 -0.062687844 -0.023783874 14077634
0.55243748 -0.06711413 -0.026014557 14143427
0.53628123 -0.053541884 -0.024231289 13617596
0.54280955 -0.058219638 -0.025442503 13814462
0.51850003 -0.041101854 -0.022479627 13354424
0.52512509 -0.043824427 -0.025723038 13551547
0.53100002 -0.048439853 -0.025999419 13617339
0.49875003 -0.030195598 -0.025126426 13090741
0.50477785 -0.033191748 -0.02483758 13222583
0.51410532 -0.037656318 -0.025045369 13419961
0.47760004 -0.021311495 -0.021938642 12762803
0.48467857 -0.022826448 -0.025755027 12762290
0.49395454 -0.027125524 -0.026146786 12893362
0.5 -0.029100765 -0.029285299 13025205
0.46782354 -0.012154506 -0.022700492 13422020
0.47322455 -0.015477497 -0.02566302 13092284
0.48033336 -0.018960383 -0.028134191 12762804
0.46666667 -0.0053269546 -0.024524136 14212052
0.47000009 -0.0053491509 -0.029528689 14211797
0.46805 0.0016873179 -0.022924015 14014931
0.47270462 0.0050416957 -0.025346799 13554380
0.48100004 0.0088825347 -0.028455138 13225416
0.47704998 0.011995512 -0.022304051 13159622
0.48305553 0.012665571 -0.027223527 13225415
0.49866667 0.021174505 -0.023761218 13357000
0.50331241 0.025451101 -0.024844101 12698558
0.51100004 0.028477795 -0.029530823 13224644
0.50700009 0.031499691 -0.021150112 12961985
0.51587498 0.033679947 -0.024032481 13225157
0.52399999 0.034928396 -0.027561573 13488072
0.53077787 0.038829159 -0.027223215 13685451
0.53573471 0.045104556 -0.025488639 13685708
0.54000002 0.049476758 -0.024675302 13882830
0.54504007 0.054643799 -0.024548784 13817037
0.5508334 0.059066731 -0.028179904 13948110
0.54900002 0.060583122 -0.021230901 14079696
0.55326939 0.064970143 -0.025260795 14079695
0.55675 0.071105786 -0.024248628 11119265
0.55512506 -0.080881156 -0.017411513 14143683
0.54766667 -0.072619803 -0.012775604 14275526
0.55224323 -0.076099262 -0.016102159 14275526
0.53875005 -0.060364217 -0.012006826 14011841
0.54407704 -0.065108269 -0.014700004 14143427
0.55000001 -0.069350079 -0.019338232 14275013
0.53460002 -0.054880943 -0.014817358 13485754
0.54000002 -0.059240121 -0.018354554 13748669
0.51742858 -0.041537635 -0.015769385 13354169
0.52574193 -0.046248004 -0.015311795 13288376
0.53040004 -0.049247082 -0.018401407 13419704
0.47850001 -0.030089788 -0.010663873 12959413
0.48385718 -0.032046646 -0.011998495 13025205
0.49562505 -0.032620732 -0.016553475 13156790
0.50466675 -0.035482038 -0.017447375 13222839
0.51120001 -0.038609166 -0.017495036 13419962
0.46883336 -0.020884523 -0.012826537 12630962
0.47408894 -0.024518941 -0.014101797 12696498
0.48319998 -0.028239328 -0.016201999 12893875
0.49200001 -0.029786933 -0.018450709 13091252
0.45776477 -0.012146197 -0.012315007 13684421
0.46463802 -0.015517405 -0.015685216 13092027
0.47033337 -0.01893319 -0.019106776 12762805
0.45648083 -0.0052549816 -0.013303323 14277332
0.46168968 -0.0051426846 -0.018211203 14146258
0.45850006 0.00122281 -0.011828563 14014417
0.46474198 0.004721113 -0.015117757 13620173
0.47100002 0.007872073 -0.018766969 13291209
0.46825001 0.011524926 -0.01235421 13159623
0.47347063 0.012351998 -0.016849302 13159622
0.48400006 0.016778005 -0.018529942 13225414
0.49703994 0.02496797 -0.014667942 12633278
0.50111109 0.027667979 -0.018661812 12435898
0.49787498 0.031631868 -0.011387245 12830399
0.50475001 0.033839744 -0.014742876 13027265
0.51400006 0.03746945 -0.016513105 13553609
0.52166671 0.0388426 -0.019156694 13817037
0.51700002 0.040107574 -0.014547018 14014160
0.528 0.04343304 -0.011766385 13619402
0.53674996 0.047428019 -0.015916001 13882574
0.54000002 0.049476758 -0.018986627 13816781
0.53830004 0.051842041 -0.011366537 13948367
0.54311121 0.055419158 -0.015314127 13882574
0.54693556 0.062588103 -0.013616873 13882574
0.55164713 0.066346467 -0.017347202 13422023
0.55400002 0.070213348 -0.018830411 10987425
0.54548937 -0.074489832 -0.0047296779 14078147
0.53788006 -0.062283009 -0.0038035321 13880768
0.54275012 -0.067310341 -0.0051807272 14012354
0.51850003 -0.050812401 -0.00063090521 13157046
0.52605885 -0.052860271 -0.0040826644 13288376
0.53259373 -0.056679033 -0.0055190022 13419962
0.50636846 -0.042264227 -0.0028915957 13222584
0.5137223 -0.046941251 -0.0027018401 13222584
0.52100003 -0.049837723 -0.0042935405 13288377
0.47771433 -0.031637955 -0.0065747476 12959412
0.48257142 -0.033739287 -0.00744014 13025205
0.49540004 -0.037883412 -0.0053570801 13090998
0.50200003 -0.03979389 -0.0051120394 13156791
0.45793334 -0.021651229 -0.0014521308 12630706
0.46387509 -0.023567619 -0.004579931 12696241
0.47354174 -0.0272453 -0.007457918 12761777
0.44812497 -0.011920303 -0.0013989467 13487812
0.45433336 -0.014959953 -0.0052007968 13092283
0.46175003 -0.018633589 -0.0085354242 12696755
0.44744894 -0.0052835499 -0.0023981996 14211794
0.45207316 -0.0049110199 -0.0076130177 14211795
0.44887507 0.0010651266 -0.00093999482 13883344
0.45500004 0.0040552602 -0.004287011 13685708
0.46251851 0.0080941059 -0.0072822017 13291207
0.45900002 0.010893951 -2.0724525e-05 13685965
0.4658182 0.014035293 -0.0047281813 13028036
0.48366669 0.022424432 -0.0019110398 12764863
0.49287179 0.026964607 -0.0048457105 12370106
0.49476928 0.032268707 -0.0045079701 12830399
0.50650001 0.038107283 -0.0059620319 13224901
0.51233339 0.039745547 -0.0044273674 13224901
0.51800001 0.041397799 -2.338846e-05 13225414
0.52715385 0.04412625 -0.0029675418 13159108
0.5313462 0.047537386 -0.0045709689 13685195
0.53658336 0.05419543 -0.004004105 14014160
0.54100001 0.058540527 -0.0065687429 13948367
0.53900003 0.060741413 -2.4336643e-05 14145746
0.54354292 0.063437 -0.0050138533 13487559
0.53875005 -0.072503552 0.0080156084 14012356
0.54208344 -0.073482096 0.0039364295 14078148
0.52900004 -0.060510173 0.0098833032 13551290
0.53544676 -0.064590015 0.0057827933 13880512
0.54066664 -0.068595782 0.0020844552 14012354
0.51644999 -0.051702529 0.0063193189 13156789
0.52424139 -0.056036245 0.005435423 13288119
0.53085715 -0.059125025 0.0031705175 13485754
0.49900001 -0.043060578 0.0093228137 13090998
0.50575 -0.043498937 0.0054498059 13156791
0.51164299 -0.048173953 0.0039940854 13222839
0.46745455 -0.031486377 0.0055547729 12827826
0.47133335 -0.033245847 0.0087345941 12762033
0.44600001 -0.020737413 0.0093767084 12565424
0.4553684 -0.022076521 0.003116034 12564912
0.46322218 -0.027748905 0.0040274849 12696240
0.47000003 -0.029555276 0.009881285 12696240
0.43877777 -0.011271374 0.0084255412 13553606
0.44416928 -0.014581451 0.0052363221 13223869
0.45155558 -0.018646903 0.002678545 12631218
0.43833342 -0.005964282 0.008286139 14146257
0.44245008 -0.0046887388 0.0040296335 14211794
0.44632787 0.0033733367 0.0058326223 13554123
0.45234486 0.008073614 0.0039190245 13291207
0.4567143 0.011759164 0.0053193523 13159364
0.46468094 0.01724055 0.0053009 12830142
0.46731436 0.023843072 0.0075704209 12435383
0.47900003 0.023703458 0.0022210677 12566714
0.48300004 0.025607999 0.0028084826 12566714
0.49280006 0.02853932 0.0020537642 12369848
0.49535713 0.03263472 0.0020477625 12567484
0.52900004 0.047230501 0.002452912 13224644
0.53100008 0.048596382 0.0056269229 13356231
0.5344727 0.055167727 0.0055233994 13948367
0.53840917 0.062222123 0.0057032038 13224644
0.54016668 0.064034425 0.0025043006 11842734
0.53420591 -0.072582006 0.014634576 13814976
0.52635711 -0.063248776 0.016696451 13682877
0.53203231 -0.06696678 0.013911984 13814720
0.50800002 -0.050972648 0.018409068 13024692
0.51525718 -0.054018375 0.015416351 13090485
0.52241176 -0.058318641 0.014360728 13353657
0.48707694 -0.0416818 0.017080585 12893619
0.49468181 -0.044480529 0.014656911 13156791
0.50421429 -0.048151273 0.013974848 13090742
0.51000005 -0.049979411 0.011916165 13090485
0.45300001 -0.030607216 0.019068206 12630447
0.47500005 -0.033275597 0.012474493 12827826
0.4834348 -0.038030911 0.015727419 12827826
0.43900001 -0.020411938 0.019506609 12302252
0.4450635 -0.02389694 0.015444818 12498862
0.45050004 -0.028856946 0.018962974 12564654
0.47050002 -0.029586717 0.011544555 12762033
0.43531993 -0.014135677 0.015176112 13224126
0.4410556 -0.018271584 0.012538998 12697012
0.42899999 -0.0068911165 0.019062268 14146000
0.43276137 -0.0052436828 0.014608872 14080720
0.43434617 0.0016266094 0.01619878 13554378
0.44460005 0.0051889089 0.011915528 13422024
0.4508 0.0096439999 0.013702224 13093316
0.45695657 0.012758573 0.014729409 13027523
0.46286848 0.017605677 0.015372096 12632765
0.46544632 0.024085876 0.014393969 12369335
0.5145455 0.044741996 0.018152218 12764094
0.52500004 0.049331438 0.015935015 13290696
0.53100002 0.049273685 0.01178529 13356231
0.5267334 0.052786563 0.018142048 13750989
0.53162229 0.056095425 0.014629209 13948624
0.53514284 0.0618002 0.013446055 12435127
0.52670592 -0.071417034 0.024772553 13552060
0.53000003 -0.073031954 0.021068642 14143173
0.51693338 -0.061874054 0.026917096 13485497
0.52379483 -0.066083364 0.024151746 13551547
0.49899998 -0.050848365 0.028013499 13090998
0.5047648 -0.053084742 0.026385548 13090485
0.51370269 -0.05697621 0.024376983 13024948
0.46700001 -0.040299177 0.029496811 12762033
0.48629999 -0.042423494 0.023773437 12893362
0.49408698 -0.047269385 0.026277907 13090485
0.45781821 -0.031323072 0.024734104 12630191
0.46399999 -0.034911692 0.026443759 12761776
0.47700003 -0.038928788 0.024545105 12893106
0.48125002 -0.038431406 0.021382492 12762033
0.43605718 -0.022058493 0.025903001 12367532
0.44266665 -0.025150845 0.024303662 12498605
0.45533335 -0.029346734 0.023202078 12564398
0.42485249 -0.013593872 0.026137395 13421505
0.43217865 -0.01652413 0.022054447 12960184
0.42448092 -0.0054662819 0.024983583 14146000
0.43000001 -0.0016223309 0.020364998 14080207
0.42648152 0.0015818595 0.027301643 13619402
0.43346155 0.0052435002 0.024179526 13224901
0.44000003 0.0094129555 0.021611139 12961474
0.43900001 0.010419269 0.028242119 12830144
0.44300008 0.012632046 0.026671851 12830145
0.45664293 0.016191747 0.022885239 12501436
0.46100003 0.018497054 0.0215622 11975604
0.46183336 0.020871898 0.022680389 11778482
0.48700002 0.035500098 0.029619981 12369589
0.49400002 0.037166826 0.028884586 12501175
0.509 0.041274317 0.027383314 12435127
0.51436722 0.045617089 0.024849378 12763835
0.51900005 0.051197626 0.028528795 13817036
0.52434552 0.055302832 0.024944395 13553865
0.53000003 0.059727177 0.021068642 13882574
0.53000003 0.060967915 0.021068642 10395545
0.51566672 -0.070651881 0.037386965 13222325
0.52266669 -0.071410835 0.031787712 13419961
0.50629419 -0.061679631 0.036159229 13156533
0.51356095 -0.065931372 0.034479532 13419704
0.52100003 -0.06874378 0.030468237 13814462
0.4970606 -0.053368635 0.036045834 13024948
0.5028621 -0.057238389 0.03402821 13090484
0.47600001 -0.043304473 0.032847572 12762033
0.48466671 -0.045227543 0.033631034 12893363
0.49366671 -0.04850895 0.033169188 13024692
0.44680005 -0.031550787 0.034810424 12564654
0.45466667 -0.034744039 0.034267586 12696240
0.46337503 -0.037276637 0.030894561 12762033
0.42614287 -0.02195337 0.037503377 12499120
0.43378258 -0.024767414 0.034429722 12367276
0.44242862 -0.029154195 0.033563767 12498861
0.41587502 -0.013406544 0.036205146 13553348
0.42228577 -0.01721718 0.03351897 12828854
0.41524762 -0.0054760328 0.035345942 14079952
0.42033336 -0.0022683316 0.031031765 14079953
0.41580001 0.00091471267 0.037095103 13488331
0.42424136 0.0040857489 0.034088992 13093316
0.43208334 0.0074786614 0.031756293 12961474
0.43300003 0.010276865 0.036472239 12829888
0.44350004 0.013901236 0.031646051 12829887
0.48500001 0.029677337 0.035743002 12303542
0.4863334 0.034357771 0.035314448 12303542
0.49187502 0.038879178 0.033799358 12500920
0.49300003 0.040553957 0.033447277 12895933
0.50600004 0.044388849 0.035117786 12895933
0.51386362 0.048288729 0.035123352 13422020
0.51639479 0.053296059 0.035916727 13750729
0.52135712 0.056053489 0.031447101 13027265
0.50750005 -0.070524991 0.048686646 13090740
0.51133341 -0.070459761 0.043666165 12959668
0.49828577 -0.060829811 0.047135632 13024949
0.50499994 -0.064805254 0.044807572 13090997
0.51054549 -0.068287261 0.042460255 13157046
0.47800004 -0.050200462 0.048654035 12827826
0.48492306 -0.052413188 0.047210302 12893362
0.49441865 -0.055836562 0.043930724 12959155
0.5 -0.059533998 0.04153049 13156532
0.46842858 -0.042616326 0.047759693 12827826
0.47347832 -0.046069622 0.047059141 12827826
0.48384622 -0.048200604 0.043623738 12827569
0.49000001 -0.04916653 0.041273434 13156532
0.42556754 -0.032686323 0.046478786 12827826
0.43000001 -0.030059844 0.040246092 12630447
0.41600004 -0.022547599 0.046697292 12696242
0.42348436 -0.02645006 0.043963231 12630704
0.42999998 -0.028046571 0.040246092 12564654
0.40720013 -0.013759952 0.046583295 13684677
0.41239583 -0.016326798 0.042737041 13223613
0.40682948 -0.0054184902 0.046001196 14079951
0.41096428 -0.0042278632 0.041452747 13948622
0.40794736 0.0020437678 0.048484769 13554122
0.41386211 0.0036826779 0.044690277 13224902
0.42186671 0.0073824143 0.041917477 12764351
0.42700002 0.011277546 0.04296248 12698559
0.43360004 0.014160809 0.043116719 12500923
0.44150001 0.016164938 0.041322444 12566716
0.48733339 0.034767468 0.040667232 12172212
0.49292305 0.038508423 0.042946048 12566970
0.49821433 0.041566968 0.045465831 12895934
0.50393558 0.045912761 0.045483541 13356484
0.51060003 0.048695635 0.041573558 13751242
0.50825 0.050732374 0.048759181 13750985
0.51124996 0.052927926 0.044656809 13027262
0.50542861 -0.070829317 0.054402169 13156018
0.48450002 -0.061091118 0.059521917 13090998
0.49720001 -0.062460829 0.054039262 12958899
0.50292003 -0.067186028 0.053379841 12958897
0.46526322 -0.053043749 0.058274534 13090998
0.47416675 -0.053267267 0.054501593 12959412
0.48426664 -0.055774581 0.052425675 13024949
0.49214292 -0.058928885 0.052151714 13024949
0.42900002 -0.041037206 0.057727695 12762033
0.43000001 -0.041132864 0.059372209 12893619
0.46640003 -0.046398111 0.053692512 13090998
0.47175002 -0.048993353 0.051604874 12959412
0.41741669 -0.030972434 0.057633013 12762291
0.42408213 -0.034907158 0.055386361 12893363
0.4066745 -0.022565693 0.056343388 12565426
0.41389659 -0.026317777 0.054268219 12433583
0.42060003 -0.029008964 0.051575173 12367020
0.39784855 -0.013025593 0.058120295 13816779
0.40259591 -0.015544223 0.05387336 13487555
0.3976078 -0.0052730837 0.057597429 14014159
0.40165204 -0.0048294277 0.052616809 13948623
0.39806679 0.0018065148 0.058689296 13553611
0.40348893 0.002341347 0.053323455 13422794
0.48200002 0.035135619 0.059781883 12237494
0.49366665 0.039261933 0.057555825 12698044
0.49695554 0.043830518 0.056561209 13093055
0.50185716 0.047118954 0.052884847 13356227
0.49866667 0.050748587 0.059124861 12369075
0.50383335 0.051733628 0.05415231 12303539
0.51000005 0.054488525 0.050718538 11382437
0.46572 -0.062783204 0.067355536 13090742
0.4710834 -0.067666695 0.067428716 13222328
0.49700001 -0.064994223 0.060478825 13222838
0.44340006 -0.051973522 0.068073168 13024949
0.45000002 -0.054634057 0.069507912 12893619
0.46254548 -0.05648955 0.063934088 13090742
0.42591667 -0.041408282 0.0677706 12630447
0.43467447 -0.045473505 0.066334791 12827570
0.4086667 -0.030481899 0.068862885 12433068
0.41487506 -0.033604905 0.066160925 12696240
0.42282066 -0.037632186 0.063750193 13091254
0.39640006 -0.021744041 0.067533277 12696755
0.40407056 -0.02544402 0.064510211 12433069
0.41166669 -0.029207932 0.061550446 12301483
0.389 -0.012714246 0.068828031 13817035
0.3938452 -0.014962039 0.064557709 13750728
0.40000001 -0.019534983 0.060848404 12565428
0.38885713 -0.0078062466 0.06897141 13817035
0.39307752 -0.0050035408 0.064486451 13882574
0.38533333 0.0088443281 0.067787848 12633023
0.39418656 0.0026373803 0.065327369 13422280
0.38466668 0.010030228 0.068422288 12106165
0.48369566 0.038166359 0.06731806 12500664
0.49100003 0.039239999 0.06089814 12566457
0.48736587 0.043711308 0.06564869 12895422
0.49163997 0.046059962 0.06377916 12764091
0.49480003 0.051127981 0.061819863 10395540
0.46700004 -0.071869269 0.078828491 13287864
0.4723334 -0.073192857 0.075624965 13222071
0.45700002 -0.063042484 0.07673461 13156278
0.46378055 -0.065503158 0.07327348 13024692
0.47000003 -0.068798535 0.070763357 13287864
0.43685713 -0.051869389 0.077918611 13024692
0.44425008 -0.054016046 0.07492847 12959156
0.4541364 -0.058037624 0.073473528 13024949
0.46200001 -0.059335615 0.070279904 13090998
0.41824999 -0.040865406 0.07586199 12564656
0.42271438 -0.043185759 0.074675761 12630448
0.43365002 -0.047981031 0.073923819 13024949
0.396 -0.03158908 0.078142181 12631219
0.40452176 -0.032182854 0.075021841 12696755
0.41526988 -0.036662132 0.073984779 12696242
0.38765001 -0.023017913 0.077546433 13290176
0.39321128 -0.025456658 0.074367218 12697269
0.40210003 -0.028112728 0.07133022 12564656
0.3859784 -0.015094731 0.075140715 13224641
0.39000002 -0.019274857 0.070967905 13487811
0.38566905 -0.0052902028 0.075059339 13158851
0.39000002 -0.0012431671 0.07028316 13750988
0.38712874 0.0041829152 0.075374261 13159109
0.39038461 0.0025169926 0.070914313 13619403
0.38600001 0.010245487 0.073180124 12040883
0.47608331 0.037584554 0.075671218 12566714
0.48060003 0.03863452 0.071309112 12632507
0.47862503 0.041192789 0.077711307 12698300
0.48300004 0.04460359 0.075284347 12106162
0.49122226 0.048841625 0.071785167 10592667
0.48650002 0.050269417 0.076853551 10461333
0.49200001 0.051068079 0.072996475 10395798
0.46485716 -0.080688782 0.087808326 13814721
0.45808339 -0.071613185 0.088269643 13551292
0.46492544 -0.075666785 0.085105777 13683134
0.47050002 -0.077500336 0.080384538 13420217
0.44669232 -0.062037967 0.087251715 13090742
0.45454007 -0.066046312 0.084634341 13090485
0.4605 -0.069923356 0.082448587 13485243
0.42866668 -0.051709235 0.088289298 13025207
0.43452305 -0.05392297 0.085108362 12893620
0.44230774 -0.058400545 0.083678991 12893106
0.39570001 -0.041927747 0.088908747 12893878
0.40358332 -0.042152543 0.08650893 12893877
0.41510001 -0.043984365 0.085587144 12959414
0.42386052 -0.046230923 0.084204383 12893621
0.43066671 -0.04909445 0.081474118 13090485
0.38682857 -0.032323819 0.087455131 13025720
0.39391461 -0.035370111 0.084517628 12762292
0.40000004 -0.038263123 0.081583135 12827828
0.41200003 -0.039411023 0.080034852 12762805
0.37900001 -0.020283887 0.089594714 2961190
0.38364175 -0.024951987 0.084905744 11447716
0.39100003 -0.029164167 0.080532096 12762805
0.37813005 -0.014410741 0.086570755 2107682
0.38098168 -0.015769552 0.082260855 2567723
0.37786749 -0.0057267342 0.086850725 2172706
0.38103619 -0.004643824 0.082159482 3158576
0.37877777 0.00081277336 0.088556617 9474440
0.38298228 0.0044962275 0.084743366 12698557
0.38572729 0.010386052 0.086991623 11909042
0.45900002 0.033459023 0.088090509 12172726
0.46209526 0.0375004 0.086979158 12632762
0.46650001 0.041379362 0.088436633 12763834
0.47671431 0.042403437 0.082550533 12500921
0.48022223 0.04524954 0.081671 11382440
0.45572418 -0.08181271 0.096497342 13748929
0.46040002 -0.081548177 0.091160923 14011844
0.44873333 -0.072689801 0.099005893 13354172
0.45498759 -0.075373858 0.094934061 13682879
0.46020001 -0.078281589 0.090690859 13880514
0.426 -0.061195508 0.099708125 13353659
0.43607694 -0.06220996 0.096792214 13288379
0.44567505 -0.06600748 0.09527804 13222585
0.45206252 -0.068643659 0.092046857 13222327
0.39900002 -0.050310332 0.097591899 12959158
0.40040007 -0.053019017 0.097841144 13090486
0.41900003 -0.051851265 0.095127076 13091000
0.42410421 -0.054660004 0.094125979 13091000
0.43295237 -0.057683468 0.091676012 13091000
0.38750002 -0.041207202 0.097436883 12959414
0.39384925 -0.044734892 0.095166154 12827828
0.41725004 -0.048462037 0.092044622 12893621
0.42100003 -0.049142059 0.090653308 13156793
0.37841383 -0.032318361 0.098099485 13881799
0.38373208 -0.035450347 0.094430126 13354685
0.39050001 -0.038497381 0.09071321 12893621
0.37847731 -0.02443447 0.097010307 9737097
0.38048211 -0.025788108 0.092345081 11974060
0.37580112 -0.014784724 0.094910808 2107169
0.37497824 -0.0050453008 0.095010974 2237985
0.37795177 0.0041234042 0.096141689 10264213
0.38108692 0.0074371877 0.092510015 13159106
0.37844443 0.011147741 0.098518446 13488073
0.38140005 0.011193749 0.094349213 13159109
0.46227589 0.037468635 0.095883846 12830142
0.46423808 0.041813143 0.09721791 12566970
0.44641998 -0.082645826 0.10568626 13814721
0.45033336 -0.082084723 0.10048348 13814980
0.43778953 -0.07181751 0.10759018 13090485
0.44423172 -0.075711116 0.10441723 13551293
0.45000002 -0.079390317 0.10005821 13748930
0.41375005 -0.063544601 0.10555538 12827827
0.42546162 -0.063187353 0.10371327 13090743
0.43328002 -0.06721393 0.10388231 13024693
0.44300005 -0.068822511 0.10091805 12959414
0.38400003 -0.050815385 0.10785209 13024949
0.39766666 -0.051796012 0.10331172 12893620
0.40114817 -0.054481156 0.10282817 12959413
0.42400002 -0.059418157 0.10023261 13419452
0.37772003 -0.042146977 0.10835373 13749956
0.38343683 -0.044676684 0.10498061 13091256
0.39300004 -0.047275972 0.10180466 12827828
0.37619999 -0.035001665 0.10525772 13947592
0.38100001 -0.039120946 0.10130394 13420991
0.37651792 -0.025106765 0.10507938 9803147
0.36847737 -0.013329848 0.10773003 1844253
0.37158644 -0.015426069 0.1037465 2041634
0.36858079 -0.0067828377 0.1082288 1712411
0.37142351 -0.0046470352 0.10406006 1909794
0.37461227 0.0048686741 0.10488921 9474955
0.37607512 0.013350675 0.10574336 12961984
0.45900002 0.035608079 0.10528295 12764093
0.46173331 0.037984155 0.10295866 12764861
0.46357629 0.043488208 0.10552633 11645867
0.43785095 -0.083410047 0.11739397 13748928
0.44083863 -0.08368317 0.11253232 13748670
0.42636004 -0.072248787 0.11588041 12827826
0.43496072 -0.076306336 0.11454491 13287864
0.44014287 -0.07787253 0.11067248 13485244
0.42275003 -0.069139645 0.11230413 12827826
0.37773082 -0.051370319 0.11724588 13222584
0.38177553 -0.054417122 0.11576862 12827570
0.37418383 -0.04486547 0.11503932 13881541
0.38033333 -0.048847001 0.11068489 13156792
0.37289661 -0.035135977 0.11515141 13816005
0.37420315 -0.025253637 0.1149026 8815740
0.36712614 -0.013986896 0.11516543 1646617
0.37065211 -0.019271713 0.11406618 1909275
0.36706695 -0.0052774423 0.11524544 1777947
0.37033334 -0.0010357247 0.11138648 2040861
0.36810005 0.001154667 0.11890148 5066311
0.37149212 0.0055693542 0.11441123 8948099
0.37232834 0.014464295 0.11526611 13027520
0.42820001 -0.090680629 0.12909155 13222584
0.43000004 -0.091129206 0.12715249 11841447
0.41800001 -0.080105335 0.12914912 13222584
0.42619571 -0.08430618 0.12785587 13551549
0.43236768 -0.085269332 0.12336701 13748928
0.39700001 -0.070737533 0.12916471 12696241
0.40438098 -0.072718479 0.128041 12827826
0.41485298 -0.075763553 0.12691452 13024949
0.42513803 -0.076869033 0.12365156 13222071
0.43039998 -0.078653403 0.12139207 13551293
0.3784 -0.060469061 0.12860641 12696754
0.38402942 -0.062599391 0.12718636 12696497
0.39411911 -0.066281877 0.12610975 12761777
0.40230006 -0.067399628 0.12372899 12761520
0.36880001 -0.051164754 0.12879738 13948362
0.37429821 -0.054415599 0.12530935 13355196
0.38135004 -0.058085889 0.12237658 12762033
0.36852497 -0.04442843 0.12669386 14013898
0.3704657 -0.045862731 0.1223711 14276557
0.36899999 -0.039400954 0.12750706 13750470
0.37117732 -0.034966387 0.12461637 13092283
0.36500001 -0.020389087 0.12943479 1711379
0.37361035 -0.025484787 0.12488919 7960945
0.36414483 -0.014804668 0.12521857 1777946
0.37 -0.019802213 0.12168112 1645078
0.36378255 -0.0051411772 0.12498503 1908762
0.36829579 0.0048822155 0.12502386 7303273
0.37025782 0.0052155149 0.12473322 7369067
0.36795428 0.01471206 0.12543258 12435125
0.37029406 0.016948285 0.12114003 13422277
0.36899999 0.021427469 0.12775902 11974833
0.37018177 0.020917937 0.1233547 11579819
0.41400003 -0.09106376 0.13769683 13156534
0.42300001 -0.090852894 0.13277514 13682879
0.398 -0.080931172 0.13927376 12828084
0.40546671 -0.083419435 0.13811056 13090742
0.41410005 -0.085478269 0.13510537 13353657
0.42267647 -0.086852632 0.13175213 13551292
0.38691673 -0.071622968 0.1370537 12696754
0.39493024 -0.075190879 0.13581407 12827827
0.40340468 -0.077086195 0.13362364 12893362
0.412 -0.079092614 0.13114898 13090485
0.37837505 -0.061661441 0.13268499 12697012
0.38287804 -0.065872476 0.13503475 12104618
0.39300004 -0.069488324 0.13031764 12696754
0.36825001 -0.051498409 0.13091154 12238261
0.37333333 -0.056916904 0.13155158 12829624
0.36766666 -0.046165776 0.13071564 11777452
0.37200001 -0.041826639 0.1327993 10987421
0.37121046 -0.035047889 0.13106583 11514024
0.36333334 -0.020295987 0.13224721 1118986
0.37425005 -0.026293766 0.13153401 7961458
0.36393243 -0.015126541 0.13366432 1580823
0.37066665 -0.013089258 0.13949651 462343
0.36252391 -0.0055799964 0.13240534 1645846
0.37057143 -0.0068180738 0.13928188 527109
0.36750004 0.0085051516 0.1308589 7631725
0.3705 0.0035899859 0.13051844 5526864
0.36720455 0.015129391 0.13160405 9737615
0.36900002 0.021067539 0.13128635 12895679
0.3715556 0.021284977 0.13432671 9671309
0.38000003 0.023252347 0.13964799 7236708
0.40459463 -0.092255183 0.14529671 13025205
0.39734483 -0.082244053 0.14342269 12827826
0.4017708 -0.0871493 0.14344878 13025205
0.38757142 -0.071553074 0.14178362 11052442
0.39361909 -0.077806778 0.14258878 12630705
0.384 -0.066197202 0.14084101 9605254
0.36300004 -0.022185881 0.14954248 3750710
0.37125 -0.020738216 0.14685519 3355952
0.37343121 -0.014992895 0.14536013 725258
0.36714286 -0.0028560413 0.1475175 1315081
0.37266669 -0.0069627259 0.14523587 462085
0.36400005 0.00025992826 0.14768618 5519918
0.39270315 0.015520565 0.14628749 5262659
0.38657507 0.023854591 0.14575389 7631722
0.39037502 0.020574072 0.1471177 5526090
0.36072591 -0.021892386 0.15420748 2106911
0.35900006 -0.012546123 0.15893626 857359
0.36209425 -0.014996165 0.15479642 989200
0.37222922 -0.014510498 0.15147524 659721
0.359 -0.0090233395 0.15913936 791567
0.36259878 -0.0052777156 0.15461203 987916
0.37085718 -0.0086861132 0.15079834 396549
0.36300001 0.00011758257 0.1542204 5255216
0.39800003 0.009446172 0.15278496 5520180
0.39704177 0.014803037 0.15274943 5327681
0.40103716 0.015744753 0.15770788 5393730
0.38900003 0.025169045 0.15024067 8026479
0.39482144 0.025708109 0.15467198 7500134
0.40092859 0.024327969 0.15873618 6513239
0.39600003 0.030253662 0.15619943 9078908
0.34534487 -0.022105768 0.16864353 1383444
0.35900003 -0.020053925 0.16932952 330756
0.36167273 -0.021852149 0.16463676 857100
0.3465344 -0.014733236 0.16841766 1120272
0.35588813 -0.013927988 0.16511029 1054738
0.36060524 -0.017923141 0.16339964 1120273
0.3461698 -0.0067253644 0.16875291 1054737
0.35652313 -0.007451395 0.16487063 988691
0.36017239 -0.0041564987 0.16210446 856849
0.4066 0.017452661 0.1633257 5854795
0.41136849 0.016807334 0.16856198 5986382
0.40611628 0.024450207 0.16366717 6381396
0.41131827 0.0243815 0.16879687 6776412
0.40575004 0.031005947 0.16408001 7499877
0.41125005 0.03190434 0.16822162 7565669
0.3382414 -0.021980366 0.1785257 1317652
0.34154317 -0.022927471 0.17336804 1580823
0.33790478 -0.015108807 0.17816342 1252117
0.3419314 -0.014976941 0.1732084 1317909
0.33811358 -0.0061683436 0.17897615 1186067
0.34144631 -0.0059411186 0.1740427 1251603
0.41284004 0.017105734 0.17247716 7632491
0.41392305 0.024994748 0.17349133 7500392
0.41366673 0.031186976 0.1721006 7565927
0.33374715 -0.022271136 0.18408088 1317652
0.33384153 -0.014862672 0.18389603 1252116
0.33454719 -0.0053759101 0.18404166 1251603
0.33600003 0.00010883676 0.18286514 1447440
