# .PCD v0.7 - Point Cloud Data file format
VERSION 0.7
FIELDS x y z rgb
SIZE 4 4 4 4
TYPE F F F U
COUNT 1 1 1 1
WIDTH 852
HEIGHT 1
VIEWPOINT 0 0 0 1 0 0 0
POINTS 852
DATA ascii
0.81199998 0.18512781 -0.15315211 11843245
0.81353855 0.19510807 -0.15451673 11908781
0.81000012 0.17850749 -0.1479421 11908781
0.80900002 0.18018098 -0.14018391 11777195
0.81092316 0.18499079 -0.14424403 11842988
0.81125921 0.195103 -0.14444779 11908781
0.81245834 0.2051238 -0.14451241 11250339
0.80687875 0.17473136 -0.1346653 11777452
0.80878574 0.18446164 -0.13554886 11777195
0.81000006 0.18781623 -0.13328946 11777452
0.80852938 0.19621941 -0.1354264 11842988
0.81 0.19344026 -0.13253528 11974574
0.80833328 0.20362355 -0.13300446 11119009
0.81000006 0.20657162 -0.13675436 10065553
0.8083334 0.21094018 -0.13123807 6116942
0.80815786 0.18507232 -0.12400793 11843243
0.81 0.18798862 -0.12803175 11842986
0.80761898 0.19544779 -0.124191 11908780
0.81000006 0.19320323 -0.1285058 11908780
0.80723059 0.20457156 -0.12461523 9868429
0.80800003 0.21085346 -0.12803088 5853768
0.52149999 -0.012038315 -0.090365767 14144460
0.52241665 -0.0053319763 -0.091748297 14671319
0.52358341 0.0020088584 -0.091953091 11184803
0.52531999 -0.023299949 -0.08280924 13354173
0.53000003 -0.028365333 -0.081292368 13881286
0.5185715 -0.012145779 -0.082401678 13749446
0.5218668 -0.015881337 -0.085269392 13485760
0.51759458 -0.0055313921 -0.083436698 14540503
0.5207895 -0.0048351702 -0.08812613 14671832
0.51830006 0.0030204179 -0.082107112 14277846
0.52211368 0.0058098584 -0.08594802 13816524
0.52437931 0.014779826 -0.083457001 11974577
0.52860004 0.022694157 -0.080706112 10658973
0.53740001 -0.041845791 -0.071481965 13946051
0.53372324 -0.035032447 -0.073820151 13814465
0.51833338 -0.020865366 -0.071818523 13090489
0.52502376 -0.024478236 -0.075230971 13419451
0.5305385 -0.029158942 -0.075881399 13617087
0.509 -0.010559328 -0.07032609 14473684
0.51529163 -0.014466841 -0.074393399 13551553
0.5214445 -0.018007798 -0.078421369 13353915
0.50809997 -0.0057823053 -0.070559219 14606040
0.51225924 -0.0051199584 -0.075692207 14540247
0.51521528 0.0047592088 -0.074977688 14146517
0.52000004 0.0099070733 -0.079149887 13883344
0.51807147 0.012210344 -0.072447464 13883345
0.52349997 0.01631318 -0.075648226 13817552
0.52822232 0.02208706 -0.075320609 13356231
0.53056252 0.025984727 -0.074507028 12961729
0.5353334 0.032066397 -0.070899278 14014417
0.55200005 0.040238306 -0.071098231 10526874
0.56600004 0.050533958 -0.07025142 11185056
0.54900002 -0.051230922 -0.064928338 14012100
0.55193758 -0.054011546 -0.062125839 13946051
0.53800005 -0.042094685 -0.065264627 13880001
0.54287499 -0.046640601 -0.064200006 14077123
0.52816671 -0.03094651 -0.062671438 13419450
0.53296149 -0.035491154 -0.065333515 13682622
0.51641661 -0.022101073 -0.064000413 13024949
0.52411431 -0.027039951 -0.065508969 13287864
0.49866667 -0.01073435 -0.061116058 13750215
0.50517249 -0.013257987 -0.064376757 13552066
0.51170838 -0.017107351 -0.066658616 13091000
0.49823806 -0.005225963 -0.061675202 14474967
0.5036177 -0.0050715916 -0.066397965 14474712
0.49900001 0.00016163554 -0.060767263 14212311
0.50519568 0.0042312127 -0.063867152 14146261
0.5113501 0.0073509226 -0.067898676 13949139
0.50849998 0.010878381 -0.061329536 13817296
0.51459998 0.014791547 -0.06438458 13817040
0.52190006 0.018374916 -0.067956395 13816782
0.51850003 0.020802855 -0.061321795 13816783
0.52534288 0.024244593 -0.064189881 13487818
0.53075004 0.027585093 -0.067120031 13685196
0.53546298 0.034773082 -0.064768799 14079952
0.53875005 0.041006841 -0.062613197 14343123
0.5432353 0.045516249 -0.062485367 13685193
0.54766667 0.053858034 -0.061223935 11316900
0.55000001 0.059405908 -0.060540147 11777450
0.56520003 -0.072327144 -0.050833572 13880514
0.55694449 -0.062260136 -0.05420294 14011842
0.56116664 -0.067038603 -0.052352358 14011841
0.54822224 -0.051729288 -0.053501662 14011585
0.55240482 -0.056141596 -0.055230826 14011586
0.53786957 -0.042583756 -0.054607771 13814208
0.54383874 -0.047386911 -0.055263665 13814464
0.52553338 -0.031820722 -0.055964697 13551036
0.53329414 -0.037470695 -0.055869613 13682622
0.50733334 -0.02174213 -0.052943181 13024950
0.51393753 -0.025144901 -0.055182125 13222071
0.52257144 -0.028144673 -0.058219966 13353657
0.48900002 -0.010144424 -0.050391424 14145746
0.49515003 -0.012944455 -0.054421533 13618630
0.50326926 -0.017830225 -0.055581652 13091257
0.48833337 -0.0061294041 -0.050322726 14540504
0.49315521 -0.0049145757 -0.055288289 14540248
0.49601969 0.0037183284 -0.054264668 14211541
0.50229412 0.0075673433 -0.057572618 13948369
0.5057742 0.013078849 -0.05433891 13750990
0.51175863 0.017313404 -0.056125529 13816782
0.51683331 0.022675831 -0.054150093 13422025
0.52326661 0.027450161 -0.055803452 13422279
0.52682352 0.032021023 -0.05363971 13817035
0.53297293 0.036262028 -0.055392299 14080207
0.53850007 0.041145753 -0.054772031 14211536
0.54353845 0.045923624 -0.055261705 14211536
0.54738885 0.05286257 -0.054841734 13816522
0.55138898 0.058338463 -0.05423845 12961469
0.55630773 0.062895708 -0.053620204 12040366
0.56140006 0.067210041 -0.053472195 11514021
0.56484616 0.071692951 -0.052103065 11645607
0.56400001 -0.080357686 -0.040955823 14340806
0.56329405 -0.074092045 -0.043973438 14340806
0.55589998 -0.062897258 -0.044320442 13946048
0.56083339 -0.067708544 -0.045705508 14077634
0.54622579 -0.052997023 -0.044658136 13946048
0.55180955 -0.057953529 -0.045671202 13880255
0.53675669 -0.043913327 -0.044413101 13814463
0.54200006 -0.048414879 -0.046079453 13880255
0.509 -0.030816156 -0.043515585 13287866
0.51466668 -0.032371622 -0.043386437 13419450
0.52527279 -0.036275249 -0.043289989 13616829
0.5316667 -0.03882743 -0.045663398 13748414
0.49576929 -0.022791471 -0.041985676 12959158
0.5042001 -0.02564018 -0.046059079 13156279
0.51033336 -0.028507484 -0.048607748 13353657
0.48587099 -0.012651457 -0.044167195 13684421
0.49362504 -0.017106503 -0.046070255 13157050
0.5 -0.019736692 -0.04918395 13091000
0.48358211 -0.0051626056 -0.044625044 14540503
0.48660007 0.0029525608 -0.043911725 14211541
0.49178782 0.0070347986 -0.046425935 13882576
0.49579999 0.012655643 -0.04310948 13619405
0.50360006 0.016791064 -0.045886397 13750990
0.51000005 0.019267907 -0.048973713 13685197
0.50716668 0.020943157 -0.041974723 13685197
0.5135116 0.025027294 -0.04534965 13027266
0.52050006 0.028803932 -0.049372159 13882575
0.52663636 0.032900147 -0.046422545 13685450
0.53533334 0.037409645 -0.045289993 13817035
0.53863645 0.04086924 -0.045647785 14079950
0.54395002 0.045928635 -0.045418769 14145742
0.54718417 0.052598983 -0.045262039 14145743
0.55108333 0.058234278 -0.044532508 14145487
0.55516678 0.063218296 -0.044387437 14211279
0.56095243 0.068157062 -0.045048457 14211279
0.56638885 0.073702224 -0.044075601 12895676
0.56468177 -0.081657909 -0.034696933 14472648
0.55866671 -0.070660979 -0.032286402 14275013
0.5614801 -0.075192407 -0.03514849 14472392
0.54866672 -0.060190886 -0.032136519 14143427
0.55427271 -0.064797118 -0.035090972 14077634
0.56 -0.069300018 -0.038698897 14077634
0.53850007 -0.05056655 -0.031225404 13748669
0.54454005 -0.054775786 -0.035211261 13880255
0.55000001 -0.059049599 -0.03865163 14011841
0.52680004 -0.041143879 -0.033078961 13748415
0.53412193 -0.045461927 -0.035432469 13748670
0.54000002 -0.049126919 -0.03921302 13880255
0.51623082 -0.032093816 -0.037296638 13353657
0.52378792 -0.037067071 -0.035253562 13551036
0.48581257 -0.022448381 -0.033612765 12893365
0.49276924 -0.024602409 -0.038093146 13024951
0.50200003 -0.02843605 -0.038804751 13222072
0.51333338 -0.029876789 -0.036072515 13222071
0.47600001 -0.013182513 -0.033223826 13683908
0.48252633 -0.016465174 -0.036204867 13288636
0.47479427 -0.0056145764 -0.034832973 14474710
0.48025003 -0.0018114783 -0.03909035 14541275
0.47642106 0.0023880228 -0.032190304 14146261
0.48321062 0.0054834457 -0.035987653 13817040
0.4867 0.01086898 -0.033638529 13357002
0.49381486 0.013998926 -0.036453653 13619404
0.50124997 0.018351879 -0.034053233 13619660
0.50590694 0.023497015 -0.034070071 13290438
0.5110001 0.027399961 -0.037108384 13356485
0.51557153 0.031725597 -0.033129621 13685451
0.52499998 0.035327468 -0.033692457 13750987
0.53112507 0.037162174 -0.035773374 13750986
0.53730011 0.042942449 -0.033421569 13882829
0.54320693 0.047363203 -0.035326194 14079950
0.54717243 0.05261023 -0.035362128 14145743
0.5514074 0.057695862 -0.035259906 14145743
0.55594444 0.0641772 -0.034620013 14342352
0.56046665 0.068846568 -0.036064968 14342865
0.56339133 0.073187135 -0.036104701 12697784
0.55900002 -0.081390135 -0.021399515 14143944
0.5613333 -0.081839249 -0.026202023 14275528
0.55712909 -0.074080989 -0.023757637 14472649
0.5604738 -0.077438965 -0.026820229 14604491
0.54650003 -0.062726907 -0.023857802 14209220
0.55266666 -0.067053892 -0.026191203 14209220
0.5371725 -0.053252868 -0.024049394 13748669
0.54265392 -0.057580471 -0.025825759 13880255
0.51824999 -0.041385785 -0.022772243 13551290
0.52537042 -0.043884221 -0.025578015 13682876
0.53183341 -0.048246872 -0.025479853 13682876
0.49766669 -0.030649194 -0.023454759 13156534
0.50538468 -0.034059815 -0.022499653 13353912
0.51413047 -0.037515607 -0.024466699 13485498
0.52000004 -0.037568774 -0.029239384 13682622
0.47733334 -0.021262966 -0.021628758 12827827
0.48428577 -0.024077544 -0.025752908 12893363
0.4915455 -0.02829585 -0.024602456 13024948
0.46823075 -0.011906735 -0.022451516 13815751
0.47349998 -0.015395318 -0.025477957 13354430
0.48033336 -0.018960383 -0.028134191 13090487
0.46709836 -0.0054408135 -0.023977457 14409173
0.47005016 -0.0049641537 -0.029016722 14409174
0.46838459 0.0015021258 -0.022205533 14212309
0.47306672 0.0049801413 -0.025607286 13685967
0.48000002 0.0091449898 -0.029237578 13422795
0.47710529 0.011207969 -0.023008488 13291209
0.48253843 0.014155952 -0.02338893 13422795
0.49420005 0.018439218 -0.023637567 13422795
0.50120002 0.018466299 -0.028418239 13422795
0.49830002 0.022560034 -0.022421125 13291209
0.50342858 0.025230167 -0.025979359 12961731
0.509 0.031145906 -0.022662966 12698302
0.51550001 0.032908749 -0.025966145 13619402
0.52520007 0.03742953 -0.026153689 13750988
0.53033334 0.039900422 -0.028579682 13882574
0.52900004 0.041038506 -0.023553457 13882574
0.53437215 0.045248687 -0.024548735 13948367
0.54000002 0.04884468 -0.027203601 13948367
0.53900003 0.050646942 -0.020844182 14145746
0.54532617 0.054718442 -0.024560319 14014160
0.55087507 0.058695108 -0.028235894 14080207
0.54850006 0.060527947 -0.021212149 14145746
0.55347067 0.064969622 -0.025181154 14211281
0.55735302 0.071791589 -0.024513317 11316643
0.56 0.073158726 -0.028429637 11185313
0.55616671 -0.080978654 -0.018039245 14143685
0.54792309 -0.071852222 -0.011965012 14407112
0.5524773 -0.075660601 -0.015669487 14407112
0.53866673 -0.060354877 -0.011374357 13946048
0.54445094 -0.064910367 -0.014722411 14209220
0.55050004 -0.069413126 -0.018712031 14340806
0.53462005 -0.054858133 -0.014668566 13551547
0.54000002 -0.059240121 -0.018354554 13880255
0.49500003 -0.040397797 -0.010451585 13486010
0.51566672 -0.041281473 -0.016924651 13617339
0.52675998 -0.046892911 -0.015754204 13354424
0.5302 -0.049228419 -0.018394377 13419961
0.48650002 -0.031163478 -0.010842151 13090998
0.49500006 -0.03402086 -0.013444409 13222838
0.50431585 -0.035571918 -0.017173314 13354424
0.51125002 -0.039031819 -0.018274831 13419961
0.46875 -0.020972339 -0.01181814 12893621
0.47474289 -0.023924055 -0.014215831 12762035
0.48321432 -0.026913004 -0.016268482 12893619
0.49250001 -0.029242484 -0.018472385 13025205
0.45773342 -0.011997714 -0.012167118 13816263
0.46462724 -0.015380052 -0.015605294 13288893
0.47099999 -0.01906552 -0.01876747 12893620
0.45667353 -0.0053927861 -0.01313964 14343381
0.46218747 -0.0049559758 -0.018046342 14408917
0.45841673 0.0014906735 -0.011915997 14014930
0.46444637 0.0043709641 -0.015403675 13817295
0.47050005 0.00758777 -0.018608633 13488588
0.46900001 0.010033354 -0.01100055 13554379
0.47500002 0.013371036 -0.014143106 13422282
0.48293334 0.017268181 -0.015477363 13356488
0.49133337 0.019330529 -0.018809635 13488331
0.49560785 0.024985241 -0.015293665 12829888
0.50080001 0.028534889 -0.019014824 12961473
0.49625 0.031238344 -0.011059135 13093058
0.50450003 0.032051008 -0.017152008 13158851
0.514 0.035270844 -0.017058795 13290437
0.5248 0.038993903 -0.017716173 13685195
0.52875006 0.041019112 -0.017352087 13816781
0.5339697 0.046168085 -0.015819242 14014160
0.53811997 0.052430514 -0.013076128 14079953
0.54278129 0.056604672 -0.015516124 14014160
0.54659373 0.063360102 -0.013944521 13685193
0.55193752 0.066642344 -0.017711751 13356229
0.55316669 0.070539266 -0.016861968 11053474
0.54586667 -0.074227393 -0.0049149287 14209476
0.53757697 -0.062606394 -0.0036083704 14011841
0.54284853 -0.067296766 -0.0053036469 14143427
0.52633333 -0.053637806 -0.0015668856 13419704
0.53193027 -0.055638004 -0.0057592946 13617083
0.49675006 -0.040832367 -0.0042263116 13288120
0.50216669 -0.043140709 -0.0011947432 13288377
0.51433337 -0.048001397 -2.3222907e-05 13222582
0.52900004 -0.048538994 -0.0086926743 13485497
0.47900003 -0.03012123 -0.0045070178 12958901
0.48473331 -0.031848293 -0.0069836061 12959414
0.49365517 -0.037225831 -0.0060716406 13156790
0.45875001 -0.020524932 -0.00082660862 12827827
0.46521428 -0.023424193 -0.0036315236 12762034
0.47358337 -0.026646085 -0.0065358505 12762034
0.48050004 -0.029090695 -0.0084587242 12893621
0.44783333 -0.012029532 -0.0015371998 13619141
0.45463338 -0.014814454 -0.0052225818 13289150
0.46191669 -0.018595295 -0.0077731381 12893878
0.44704086 -0.005278904 -0.0023971302 14212308
0.45226833 -0.0049135839 -0.0076168543 14277845
0.4486154 0.0016810228 -0.0010711926 13949137
0.45462009 0.0036883303 -0.0051359325 13751758
0.4633334 0.0080365045 -0.0070371074 13488587
0.45900002 0.010893951 -2.0724525e-05 13620172
0.46682853 0.01367387 -0.002931766 13290694
0.47194123 0.015105573 -0.0069465903 13356487
0.48000002 0.019258188 -0.009011182 13356230
0.48300004 0.021640757 -0.0060592941 13027265
0.4927105 0.026994439 -0.0049412786 12501179
0.49470973 0.031806357 -0.0044326643 12961473
0.505 0.037994429 -0.0012050155 13290437
0.51833338 0.041019443 -0.0020483842 13290437
0.52642113 0.044994105 -0.0033318733 13553609
0.53120005 0.047862113 -0.005373328 13882574
0.5364728 0.055099424 -0.0044584507 14145745
0.54000002 0.059589956 -0.0082413545 14014414
0.54173684 0.063590519 -0.0048010605 13422020
0.5383572 -0.072473422 0.0075368462 14275013
0.54168415 -0.073441654 0.0033090287 14143940
0.52766669 -0.060770456 0.0094463732 13682876
0.53479594 -0.06486173 0.0055143195 13946048
0.54033333 -0.068974748 0.0016619164 14209220
0.51677275 -0.052131161 0.0067925407 13287861
0.52406895 -0.056101285 0.0049239583 13419704
0.53060007 -0.059202898 0.0027084786 13682876
0.49550003 -0.041022684 0.0080974475 12959153
0.50448 -0.043967403 0.004752805 13288119
0.51182359 -0.048186149 0.004835329 13353911
0.46900001 -0.030590329 0.0087623233 12761520
0.47455561 -0.033055704 0.0091103651 12893361
0.48420006 -0.036798939 0.007231079 13024946
0.49530774 -0.038284298 0.0033600468 13090996
0.44900003 -0.021227276 0.0090894075 12696240
0.45541674 -0.022807075 0.0055385097 12630447
0.4617143 -0.025950786 0.0039215945 12696240
0.43881825 -0.011251593 0.0081045832 13750985
0.44430012 -0.014619675 0.0053337691 13355198
0.45200005 -0.018323794 0.0028626614 12893621
0.43851852 -0.0058638812 0.008001742 14211795
0.44211116 -0.0045895064 0.0036928058 14278101
0.44524622 0.0034888543 0.0053268531 13620172
0.45210528 0.0086155087 0.0035408915 13422793
0.45680001 0.011700579 0.0046092845 13356487
0.46586046 0.017231131 0.0056074802 13093058
0.46899992 0.024873216 0.0083727324 12632507
0.47093755 0.023854624 0.0049370127 12632507
0.486 0.026327666 0.0016858289 12698300
0.49100003 0.028511891 0.0015096368 12566715
0.46900001 0.030894168 0.0093112923 12698300
0.49375001 0.031082442 0.0014215292 12500922
0.5 0.036447737 0.0011479332 13356230
0.51700002 0.04131788 0.0011869629 13422023
0.5266667 0.046862047 0.003758837 13553609
0.53000003 0.04980126 0.0039464361 13750988
0.528 0.050849386 0.0098646199 13685195
0.53470004 0.055362076 0.0052284934 14079953
0.53857148 0.061413817 0.0075398465 13948110
0.54061902 0.06321539 0.0041935472 12895422
0.53457582 -0.072563544 0.014485207 14011841
0.52629167 -0.062719516 0.01614516 13748669
0.53193945 -0.067414872 0.01480101 13946048
0.50750005 -0.051814988 0.018688843 13024946
0.51475614 -0.054334223 0.014877223 13156532
0.52216667 -0.058914844 0.013828618 13551290
0.48600003 -0.041275859 0.016377084 13025203
0.495 -0.044770457 0.016108705 13222325
0.50549996 -0.048356436 0.014644122 13222325
0.51050007 -0.049430281 0.012523636 13222325
0.47482356 -0.033526696 0.012338172 12959153
0.48194999 -0.038094133 0.01583009 12893617
0.44678569 -0.024294803 0.015797585 12564653
0.45060006 -0.026014451 0.012424506 12630447
0.46900001 -0.029492391 0.010958198 12630447
0.43508106 -0.014044848 0.015125158 13421248
0.44200003 -0.018426433 0.01285187 12762546
0.42899999 -0.0073932637 0.019062268 14080466
0.43296677 -0.0050926572 0.014493641 14277331
0.43545455 0.0024860071 0.015979441 13685709
0.44252381 0.0055293553 0.012613155 13488073
0.45727998 0.013428155 0.015396454 13159109
0.46261299 0.017656738 0.014889661 12830145
0.46750826 0.024685346 0.014289224 12500922
0.46900001 0.030894168 0.012056136 12764093
0.51433337 0.044423938 0.018339528 12764095
0.52390915 0.048671771 0.013906679 13422023
0.5262121 0.052809656 0.01613735 13948367
0.53134483 0.057692535 0.014769549 14211539
0.53460872 0.062043432 0.014161718 11974575
0.52650005 -0.071212947 0.026778152 13617083
0.53050005 -0.072014332 0.022174455 13880256
0.51575005 -0.061106741 0.025923386 13419704
0.52527279 -0.06612514 0.024454536 13617083
0.53000003 -0.06889616 0.021482222 14077634
0.49885717 -0.051223088 0.026670098 13222325
0.50416654 -0.054398481 0.025418835 13156532
0.51154548 -0.057860687 0.024033206 13288118
0.48488235 -0.042448226 0.024550535 13024692
0.49532145 -0.047799822 0.025978481 13222070
0.5 -0.048999418 0.021046584 13090485
0.45833337 -0.031325743 0.027877219 12761520
0.46511543 -0.034363691 0.026529657 12827569
0.4739286 -0.037805758 0.024456957 12893106
0.48066673 -0.038103562 0.020232784 12893619
0.43570977 -0.02167723 0.025570525 12564398
0.44361541 -0.025507919 0.024305131 12564654
0.45214289 -0.029189842 0.023571027 12630447
0.42540914 -0.0137034 0.025968578 13553092
0.43196556 -0.017160038 0.022744715 12959928
0.42460376 -0.0054671471 0.024991266 14146259
0.43000001 -0.0016223309 0.020364998 14146516
0.42662501 0.0013462546 0.027232626 13620173
0.43389708 0.0052200058 0.024240073 13225414
0.44100001 0.0090910001 0.020971216 13093830
0.43883339 0.011357379 0.028316647 12961727
0.44360003 0.012609845 0.025522117 12961986
0.45658338 0.01591992 0.023308605 12830400
0.46046668 0.018762119 0.023117365 12238263
0.46217397 0.022406172 0.025055606 12369335
0.47200003 0.027776903 0.028707663 12369335
0.51509994 0.045446061 0.024653554 12829886
0.52440357 0.054905325 0.025169745 13817036
0.53000003 0.059313595 0.021482222 14211540
0.53050005 0.061025433 0.021708887 10395545
0.51725 -0.07036557 0.036296956 13090740
0.52283335 -0.071432628 0.031797457 13354424
0.50709093 -0.060918223 0.036555722 13222070
0.51395828 -0.065512724 0.035086941 13485241
0.52139997 -0.068429962 0.030979028 13814462
0.49706677 -0.052981194 0.03585241 13156278
0.50319362 -0.056954518 0.034096483 13156534
0.46859998 -0.040876422 0.038593002 12893106
0.47450003 -0.042169563 0.035519678 12827313
0.48388889 -0.044279419 0.032578129 12893106
0.49270591 -0.048423409 0.032882411 13090485
0.43900001 -0.030689005 0.038005333 12630447
0.44300002 -0.030968633 0.03627748 12433070
0.45800003 -0.033089422 0.034289282 12827826
0.4660556 -0.036831662 0.034596499 12827313
0.47100002 -0.03932168 0.032170072 12958899
0.42600003 -0.021803824 0.03781341 12564913
0.43440974 -0.025142705 0.035019021 12498606
0.44177783 -0.028701881 0.032958236 12630191
0.415705 -0.013397045 0.036377303 13684935
0.42236373 -0.016949268 0.03348276 13025976
0.43000001 -0.019993469 0.030179717 12498348
0.41517997 -0.0054336493 0.035393108 14211539
0.42060003 -0.0030121945 0.030996922 14146260
0.41499999 0.0012904503 0.037928138 13816782
0.42336369 0.0015830334 0.031874061 13619917
0.43600008 0.0076961904 0.034318011 13028035
0.43865901 0.012185884 0.035359792 12896192
0.44133338 0.015297146 0.031320062 12763835
0.47750002 0.02838091 0.030999856 12435128
0.48206246 0.02858079 0.036587365 12303543
0.48409089 0.034140337 0.03568935 12435128
0.49000001 0.03916008 0.032096643 12895422
0.51456672 0.047952946 0.035260279 13487558
0.51697057 0.052991912 0.035992116 14014157
0.52186662 0.056207236 0.031658061 13158594
0.50800002 -0.070593886 0.048733443 13353913
0.51140004 -0.070468947 0.043789998 13090742
0.49725005 -0.061098106 0.047118038 13090485
0.50521213 -0.064962693 0.044881314 13222071
0.51085728 -0.067831896 0.042346183 13222326
0.48647061 -0.051895101 0.047134954 12959156
0.49340004 -0.055681456 0.0444411 13024692
0.50150001 -0.059419975 0.041066904 13222071
0.46587506 -0.041293163 0.044549018 12893619
0.4737857 -0.044695586 0.044192251 12958899
0.48300004 -0.048465665 0.045265596 12959156
0.42466673 -0.032482523 0.047889762 12959412
0.4655 -0.037993763 0.040842623 12893619
0.41578573 -0.022559373 0.046903919 12762548
0.42207411 -0.025828466 0.044199176 12762035
0.43000001 -0.02754325 0.040749412 12696241
0.40726578 -0.013695705 0.046604022 13685192
0.41259181 -0.016373731 0.042830788 13224128
0.40673569 -0.005262387 0.045906115 14211282
0.41079175 -0.004673827 0.041091971 14079951
0.40766668 0.0010871863 0.047218524 13817038
0.41441306 0.004552959 0.044813264 13093573
0.42322224 0.0071843341 0.042250317 12896451
0.43533337 0.011353709 0.04074527 13291209
0.48450002 0.029221557 0.042940781 12106421
0.486 0.033569362 0.043420255 12303542
0.49330774 0.038892474 0.046353474 12829885
0.49743751 0.041721366 0.045685921 13158593
0.50490326 0.046266418 0.045800749 13487815
0.51071435 0.048502099 0.041821968 13816778
0.50799996 0.050112512 0.048734222 13750731
0.51197219 0.052969977 0.044650987 13290434
0.50422221 -0.070921935 0.054923009 13024692
0.48650002 -0.061154455 0.058629509 13157047
0.49511763 -0.063972354 0.055095673 13090740
0.50266671 -0.068025827 0.053059503 12959155
0.46633339 -0.052613668 0.058928385 13156791
0.4756 -0.052616704 0.056640524 13156791
0.4841916 -0.055269554 0.054163191 13025461
0.49125001 -0.058924366 0.051871456 12959412
0.42833337 -0.040973436 0.058138568 12959412
0.45900002 -0.046485804 0.058433555 13156791
0.46400002 -0.046793882 0.055727404 13222584
0.47378567 -0.047700785 0.052500855 13090998
0.48050004 -0.049338162 0.051158816 13025205
0.41750002 -0.031059803 0.057399888 13025205
0.42434725 -0.035041966 0.055445235 12959412
0.40593487 -0.022451956 0.056099389 12696755
0.41349095 -0.02664037 0.054375097 12564655
0.42050004 -0.0290676 0.051332802 12564654
0.39761117 -0.013292197 0.058078248 13882572
0.40259385 -0.015513666 0.053722069 13553606
0.39763844 -0.0051974114 0.057812616 14080209
0.40156949 -0.0048690052 0.052815538 14080210
0.39838895 0.0022020175 0.058685258 13422795
0.40309519 0.0020210538 0.053552978 13620173
0.41150004 0.0068765953 0.050555602 12106165
0.49657139 0.039191637 0.054288529 12829629
0.49849999 0.042222839 0.05492498 13027007
0.50256521 0.047074504 0.055115353 13422020
0.50570589 0.051558517 0.054282445 13421764
0.51033336 0.05432554 0.050552309 11645611
0.46699998 -0.06277521 0.06690871 13222326
0.47180012 -0.067515709 0.066982999 13419705
0.48400003 -0.06306757 0.061611999 13090998
0.49355561 -0.066859566 0.061211202 13222071
0.43900001 -0.050215434 0.069350392 13288121
0.44400001 -0.052091021 0.068710774 13156278
0.45616671 -0.053952385 0.067957886 13222326
0.46231654 -0.055290319 0.064429931 13156533
0.42572734 -0.041722801 0.066423871 12761778
0.43372002 -0.046128236 0.067116126 12958899
0.45900005 -0.047990143 0.06176459 13090998
0.46000001 -0.049027979 0.064232372 13287864
0.40900001 -0.030506762 0.06891983 12630192
0.41527593 -0.033815973 0.066015624 12761778
0.42257151 -0.037514381 0.063285731 13288378
0.39644122 -0.021547141 0.066767633 12827829
0.40409213 -0.025709972 0.06459067 12433326
0.41112503 -0.029342586 0.062178187 12498862
0.38899997 -0.013037114 0.068861149 13948621
0.39347753 -0.015003788 0.064373195 13882315
0.38892305 -0.0077176918 0.068898231 13948367
0.39307722 -0.0050032982 0.064485401 14014160
0.38560003 0.0086092204 0.067863688 12633024
0.39434209 0.002606719 0.064976871 13488074
0.48308337 0.038139887 0.067922331 12566714
0.48746666 0.042002346 0.067002125 13027265
0.49273333 0.046174701 0.064717405 12961214
0.49850002 0.050342366 0.061244272 13289662
0.46775001 -0.071023628 0.079091243 13353657
0.47573084 -0.073645234 0.075912781 13419450
0.48100004 -0.075102068 0.074859641 13222327
0.45492318 -0.062978461 0.077267364 13090742
0.46614289 -0.065117702 0.073764384 13090485
0.47256252 -0.068232886 0.072299443 13024949
0.43715388 -0.051183049 0.076487251 13156534
0.44478577 -0.054938406 0.074426718 13090742
0.45250002 -0.058289725 0.073853709 13024692
0.46250004 -0.058860227 0.070355967 13287864
0.4175455 -0.041497625 0.075287648 12695984
0.42368755 -0.044442616 0.074682616 12695984
0.43364704 -0.048052561 0.074074462 13156278
0.39380771 -0.031927008 0.077839702 12827828
0.4057143 -0.031890363 0.073965214 12828085
0.41416678 -0.036669262 0.073455915 12762035
0.38764107 -0.023192655 0.077789232 13355969
0.39342102 -0.025422771 0.074331582 12894135
0.40214285 -0.028047737 0.071659304 12696499
0.38602161 -0.015089472 0.075142406 13355971
0.39000002 -0.019503107 0.071196154 13618114
0.38582978 -0.0052921362 0.075011745 13290436
0.39000002 -0.00078666862 0.07028316 13882574
0.38707703 0.0037715815 0.07533288 13225415
0.39010006 0.0024097899 0.070666388 13685710
0.47670588 0.037704758 0.076257244 12698300
0.48133337 0.038844358 0.071154185 12698300
0.47837511 0.042151943 0.078019746 12764093
0.48396674 0.043702826 0.074101418 12566714
0.49164709 0.047689222 0.071674503 11908783
0.46620002 -0.080829009 0.088159479 13880001
0.45788893 -0.071194991 0.088350929 13616829
0.46551523 -0.075463839 0.085088521 13814207
0.47000003 -0.076867253 0.080299109 13682876
0.44705561 -0.062011942 0.086428016 13287863
0.45382613 -0.066261262 0.084922589 13156277
0.46000001 -0.069847435 0.082898088 12761774
0.42666665 -0.051968563 0.08920747 13156535
0.43476355 -0.054050975 0.08553955 12959412
0.44267997 -0.058057684 0.083456129 12958899
0.39533332 -0.041517485 0.089132793 13025207
0.40457144 -0.041817654 0.086578004 12959414
0.41616669 -0.043216169 0.084397532 13156793
0.42461908 -0.046965245 0.085202083 13025205
0.43014288 -0.048914693 0.082120217 12959412
0.38723263 -0.032132167 0.086430982 13025721
0.3931579 -0.036390103 0.085527122 12959414
0.41466668 -0.039343052 0.080876715 13091000
0.37900001 -0.020283887 0.089594714 2894370
0.38362494 -0.025084941 0.084748633 11644582
0.37817147 -0.014449508 0.087006718 2173219
0.38098419 -0.015507089 0.082472712 2567466
0.37784222 -0.0057067764 0.087210797 2238242
0.38111109 -0.0047897161 0.082472138 2961711
0.37883332 0.00071420847 0.088963814 9145478
0.38288575 0.0041342536 0.085052326 12829886
0.38450003 0.010025882 0.088644013 12895679
0.47650003 0.038639512 0.080294132 12764093
0.47728571 0.041816026 0.080905102 12764093
0.44900003 -0.0818417 0.09983585 14012100
0.45565003 -0.08177036 0.097357363 13945794
0.46258825 -0.08170522 0.092532359 13946050
0.44840002 -0.073337093 0.098703757 13551036
0.45458069 -0.075171836 0.095400877 13748415
0.46157894 -0.077538535 0.091766648 14011587
0.42700002 -0.061170608 0.09960743 13287864
0.43570003 -0.062843837 0.09737885 13419706
0.44554362 -0.066360958 0.095062472 13287864
0.45181826 -0.068894953 0.091709405 13288121
0.39800003 -0.051582996 0.098744899 12958899
0.41900006 -0.051524308 0.094963588 13156536
0.42301604 -0.054684926 0.09457802 13222328
0.4330909 -0.058204476 0.091866463 13222071
0.44000003 -0.059600256 0.090624347 13156791
0.38705882 -0.041557688 0.098157234 12959670
0.39264381 -0.044266287 0.095175892 12893619
0.41783333 -0.048122007 0.092253529 13025207
0.42033339 -0.048736498 0.091165237 13091000
0.3784667 -0.032275066 0.098002106 13947593
0.38355055 -0.035380006 0.094494976 13420734
0.39066669 -0.038590383 0.091132633 13090999
0.37841377 -0.024519414 0.097080573 9934220
0.38046548 -0.025569195 0.092258275 11907753
0.37539285 -0.014800857 0.094844684 2172962
0.37429127 -0.0051058345 0.094886698 2238241
0.37782675 0.0041322117 0.096134812 10395544
0.38110852 0.0073403982 0.092476323 13290692
0.37842861 0.011133057 0.098950453 13422793
0.38060004 0.011616512 0.096205443 13422794
0.44602129 -0.082542419 0.10511856 13945794
0.4379091 -0.071153864 0.10771196 13090486
0.44393179 -0.075499929 0.10466142 13616829
0.40871429 -0.060967173 0.10837401 12893108
0.41332147 -0.062760815 0.10637508 12959414
0.42429164 -0.063020982 0.10282157 13222072
0.43382353 -0.06713111 0.10332754 13090485
0.44175005 -0.068885922 0.1010658 13024949
0.38433337 -0.051160965 0.1088509 13025206
0.39646161 -0.051634185 0.10335262 13025207
0.40451717 -0.056012474 0.10441269 13090743
0.41322222 -0.058872025 0.1041249 13091000
0.42183337 -0.059442658 0.10185581 13287864
0.37775618 -0.042672765 0.10763077 13684163
0.38369691 -0.044465858 0.10360692 13157050
0.39311117 -0.048036642 0.10182368 12959414
0.37635332 -0.035109673 0.10520889 14013385
0.38033333 -0.03905296 0.10089085 13552321
0.37664464 -0.025079502 0.10513879 9933964
0.36814013 -0.013446813 0.10819191 1844253
0.37178844 -0.015276535 0.10372726 2041889
0.36846524 -0.0060384502 0.1079456 1778718
0.37111023 -0.0046646432 0.10354601 2107171
0.37443846 0.0049007167 0.10487413 9672077
0.37492147 0.013766711 0.10556478 13027778
0.43738097 -0.083724722 0.11772537 13880515
0.44169235 -0.08334507 0.11286654 13748672
0.42632145 -0.07250762 0.11646403 12958899
0.43479484 -0.076638192 0.11534323 13419451
0.44066668 -0.077366814 0.11132423 13485243
0.39300001 -0.061516389 0.11820835 12761777
0.40900001 -0.061624743 0.11009131 12827828
0.41800004 -0.067874692 0.11104488 12893108
0.421 -0.068853438 0.11430882 12827314
0.37768424 -0.051485769 0.11794635 13288634
0.3832899 -0.054683417 0.11564917 12893362
0.37420142 -0.04481338 0.11515038 14012871
0.38033333 -0.049737364 0.11216831 13156534
0.37286213 -0.035132542 0.11514065 13881799
0.37428921 -0.025381016 0.11481965 8947583
0.36727852 -0.014231163 0.11511433 1712411
0.37052625 -0.019374376 0.11384127 1975069
0.3672429 -0.0050821835 0.11506204 1909276
0.37 -0.00074632664 0.111287 2237726
0.36787504 0.00087413995 0.11872128 5132105
0.37166935 0.0056098243 0.11446629 9079684
0.37198299 0.014247974 0.11552504 13224643
0.37100002 0.020530339 0.11983869 11777970
0.42840004 -0.091124415 0.12875023 12564911
0.43000001 -0.090961426 0.12732026 12104361
0.41800001 -0.0807577 0.12947452 13551036
0.42616004 -0.084407322 0.12775226 13682622
0.4322122 -0.085298136 0.12319828 13814465
0.39766669 -0.070623003 0.12938105 13024693
0.40439999 -0.073086053 0.12879124 13024692
0.4152222 -0.075630404 0.1270134 13090485
0.42490253 -0.076597556 0.12355247 13287864
0.43028572 -0.079006083 0.12114431 13682622
0.37833333 -0.060694758 0.12825938 12893621
0.38463888 -0.06290973 0.12706044 12827828
0.39400008 -0.066308379 0.12593733 12893106
0.40300006 -0.067565851 0.12321563 12761777
0.36883333 -0.051399704 0.12892427 14013642
0.37364811 -0.054233126 0.12522544 13486528
0.38152635 -0.058074623 0.12229554 12827828
0.3684943 -0.044708621 0.1264616 14210764
0.37048009 -0.045658793 0.12197625 14342350
0.36899999 -0.039472941 0.12783101 13947593
0.37139094 -0.034885377 0.1249112 13158077
0.37355956 -0.025519388 0.12482739 8092018
0.36486751 -0.014781077 0.12502758 1778203
0.37 -0.019802213 0.12081493 1645078
0.36376277 -0.0052318852 0.12476769 1843481
0.36833805 0.0047008814 0.12513568 7171688
0.37026888 0.0053077033 0.12450512 7632240
0.3680262 0.014430019 0.12586406 12303798
0.37024134 0.016499225 0.12162541 13422022
0.36900002 0.02085158 0.12826294 12633279
0.37049994 0.020665223 0.1242284 12041141
0.41490909 -0.091343641 0.13799088 13353912
0.42287505 -0.090689257 0.13262591 13748671
0.39825001 -0.080981418 0.13912803 12828339
0.40532613 -0.083596431 0.13805155 13156534
0.41439438 -0.085480966 0.13506038 13485243
0.42209384 -0.086943224 0.13164373 13617086
0.38730004 -0.07150396 0.13725021 12696755
0.39510718 -0.074943736 0.13562724 12959156
0.40334147 -0.077022448 0.13326837 12959156
0.41216671 -0.078827076 0.130721 13222071
0.37821051 -0.061529804 0.13284037 12631219
0.38289335 -0.066058844 0.13482304 12301997
0.39200005 -0.06931074 0.13090296 12893363
0.36825001 -0.051498409 0.13091154 12435126
0.37347826 -0.057098798 0.13166162 12829112
0.36768568 -0.045720041 0.13086724 11645352
0.36900002 -0.039616913 0.13042252 13947592
0.37156668 -0.034260925 0.13135897 10987679
0.36480004 -0.020377915 0.13201039 1251086
0.37437493 -0.026675429 0.1326084 8224630
0.3638941 -0.015295959 0.1331975 1581080
0.37033328 -0.014791546 0.13921688 791052
0.36352274 -0.0056641363 0.13294648 1646359
0.37060004 -0.0058652363 0.13914368 462086
0.3681111 0.0077756676 0.13068189 7895409
0.37100002 0.0035942446 0.13078201 5461070
0.36717939 0.014735351 0.13160762 9737615
0.37444842 0.024267558 0.1358202 10395801
0.38000003 0.021473173 0.13964799 7302499
0.40437931 -0.092414066 0.14530851 13091255
0.41300002 -0.093649745 0.14017321 12432555
0.39730003 -0.082186416 0.14228377 12894390
0.40181577 -0.087231778 0.14270945 13091255
0.3865 -0.070902467 0.14022708 13025205
0.39406672 -0.077860102 0.14155746 12696755
0.36300001 -0.022214726 0.14953889 3882810
0.37178573 -0.021265272 0.14483522 4015168
0.37258428 -0.014954701 0.14525448 659723
0.36833334 -0.0021809742 0.14875428 1249804
0.37216672 -0.0061187185 0.14510906 462343
0.36728573 0.0006099157 0.1484869 5059623
0.39334992 0.015636656 0.14652136 5460038
0.37866667 0.026567578 0.1410788 9277059
0.38454095 0.024201741 0.14549915 8092528
0.39060003 0.020608556 0.14866416 5460295
0.36060333 -0.021844022 0.15423837 1843993
0.35867742 -0.013644245 0.1583015 922894
0.36239848 -0.015068702 0.1543178 989199
0.37168089 -0.014357308 0.15139829 659721
0.35887501 -0.0092299748 0.15887366 857100
0.36346936 -0.0053381594 0.15462299 922123
0.37084615 -0.0078942617 0.15090851 396292
0.36625001 0.00054762687 0.15131097 4338214
0.39850003 0.009458039 0.15251103 5323057
0.40000001 0.0094936397 0.15448913 3939863
0.39715907 0.015022045 0.15248564 5328195
0.40057132 0.015109929 0.15720315 5525316
0.38900003 0.024106612 0.15084778 6645082
0.39536363 0.026035791 0.15543638 7631978
0.40108335 0.023834871 0.15874153 6118226
0.38900003 0.030177653 0.15024069 9672074
0.39360002 0.03053451 0.15479048 9474695
0.34561551 -0.021920357 0.16849211 1515286
0.36150917 -0.02174975 0.16513352 857357
0.34614646 -0.014788911 0.16839932 989456
0.356231 -0.013893925 0.16501394 1120529
0.36040628 -0.018234938 0.16355929 1054991
0.3461403 -0.0062299022 0.16902253 1120785
0.35593125 -0.0071070455 0.16550718 923151
0.36053127 -0.0043656076 0.16200648 857102
0.35542855 0.0030318708 0.16948536 7632752
0.40633333 0.017948795 0.16334429 6052174
0.41088244 0.017108088 0.16825575 6183504
0.40604448 0.024419172 0.16371581 6447190
0.41123816 0.024932617 0.168916 6907996
0.40625 0.031281177 0.16475831 7237475
0.4111667 0.031415429 0.16890968 7762792
0.3383182 -0.021887895 0.17879666 1252373
0.34194449 -0.022942543 0.17389148 1712152
0.36000001 -0.020109786 0.17022257 462344
0.33787647 -0.01491917 0.17824396 1252373
0.34175357 -0.015124296 0.17342755 1383445
0.33791175 -0.0070568817 0.17887737 1120787
0.34196311 -0.0060690683 0.17353733 1251860
0.35288239 0.00347167 0.17519085 5396560
0.41207147 0.01777472 0.17162418 6973534
0.41323262 0.025039775 0.17282943 7303012
0.41315392 0.031083889 0.17251579 7631720
0.33394271 -0.022266096 0.1841514 1317652
0.33403888 -0.014822771 0.18405356 1252372
0.33455387 -0.00540348 0.18407293 1120787
0.34875 -0.0013156396 0.18245664 1186581
0.35000002 -0.00070598465 0.18352002 1186581
0.3355 0.0001086748 0.18337786 2040861
0.35135788 0.0038730244 0.18431498 5659733
0.78890896 0.12466628 0.36421326 9475210
0.79000002 0.12897442 0.36207765 9475467
0.79125011 0.13561189 0.3646729 9475210
0.79081255 0.13621254 0.37311831 9475467
0.79137045 0.14469135 0.37460366 9475467
0.79073548 0.15482454 0.37508994 9541003
0.79144835 0.16502851 0.37499478 9672075
0.78900003 0.13693826 0.38969472 9343881
0.79148 0.14522551 0.3847664 9475467
0.79116684 0.15490882 0.38520852 9409675
0.78633338 0.13831468 0.39512524 9409674
0.79000002 0.13896121 0.3901886 9278088
0.78757691 0.14562765 0.39643434 9409417
0.79012501 0.14522611 0.39094391 9409674
0.78823519 0.15471625 0.39745638 9474954
0.79072225 0.15533713 0.39249814 9409674
0.78900003 0.16233537 0.39846826 9541260
0.79107702 0.1654346 0.39470655 9409674
0.78594732 0.14667255 0.40465212 9409674
0.78640735 0.15510407 0.40457398 9409418
0.78811115 0.16411866 0.40476665 9540747
0.79000002 0.16855168 0.40128505 9475467
0.78900003 0.17064716 0.40631831 9540490
0.79117864 0.17548607 0.40445995 9540747
0.79000002 0.13896121 0.41238147 9212295
0.78900003 0.14678927 0.41216731 9343881
0.79100001 0.14469124 0.41648522 9343881
0.78850007 0.15531039 0.41252193 9278088
0.79066664 0.1548107 0.41735753 9409674
0.78891677 0.16508897 0.4122777 9474697
0.7902 0.1648939 0.41711077 9409417
0.78900003 0.17018539 0.41001242 9606283
0.7900306 0.17539574 0.41503119 9606283
0.79037058 0.18507843 0.41483533 9606283
0.79093772 0.17500018 0.42548513 9409417
0.79088908 0.1854737 0.4250519 9474954
0.79033333 0.13840337 0.43383181 9409674
0.79117256 0.14485183 0.43413201 9278088
0.79103595 0.16487043 0.43454757 9278088
0.78900003 0.15725595 0.44325957 9409674
0.79018754 0.15425439 0.44184566 9212295
