# .PCD v0.7 - Point Cloud Data file format
VERSION 0.7
FIELDS x y z rgb
SIZE 4 4 4 4
TYPE F F F U
COUNT 1 1 1 1
WIDTH 463
HEIGHT 1
VIEWPOINT 0 0 0 1 0 0 0
POINTS 463
DATA ascii
0.52542114 -0.053206433 -0.063405253 16382196
0.52364022 -0.044675015 -0.064064257 16645882
0.52433342 -0.034673873 -0.064949043 16711417
0.52408344 -0.02536694 -0.064259939 15921388
0.52457893 -0.016694404 -0.061489947 15921901
0.53133333 -0.011436999 -0.06180267 16053488
0.54500002 -0.010030303 -0.066369057 11974322
0.53617388 -0.0049540689 -0.062623337 14802649
0.54380006 -0.006701062 -0.066990778 12237491
0.53757578 0.0041433624 -0.062682033 12368563
0.54428571 0.014022089 -0.061002411 12040367
0.551 0.018883213 -0.061940122 12040367
0.55266672 0.022174446 -0.060833678 11974574
0.53600001 -0.070094377 -0.052725196 16184043
0.52706665 -0.061442371 -0.054316692 16250095
0.53250003 -0.066238225 -0.053865656 16052203
0.51800007 -0.052669823 -0.052254844 16645880
0.522946 -0.05561744 -0.055579141 16514294
0.51595557 -0.044608489 -0.053686779 16711673
0.52114284 -0.046280835 -0.0583224 16645881
0.5146066 -0.035222009 -0.054525886 16645881
0.52057141 -0.03395205 -0.059738189 16711675
0.51526922 -0.025253264 -0.053665306 16513780
0.52135712 -0.024328873 -0.058957495 16514038
0.51725 -0.016075997 -0.05239661 16119022
0.52287501 -0.014285614 -0.056716908 16053230
0.51900005 -0.0095517933 -0.051052947 15790314
0.52497435 -0.0058125718 -0.053694364 15790057
0.53100002 -0.0041450826 -0.05825372 15724521
0.52775002 0.0010991618 -0.050987199 15658215
0.53426927 0.0048251129 -0.055327557 15263456
0.53783345 0.011856805 -0.05269862 14803163
0.54333335 0.015577075 -0.055665553 13815754
0.55000001 0.019491553 -0.057965029 11842988
0.54718184 0.022071507 -0.052779544 13289667
0.55175006 0.024183325 -0.056643993 11908525
0.53357148 -0.071204133 -0.045354895 15262686
0.51824999 -0.061100665 -0.041273307 16052457
0.52481484 -0.063539594 -0.044987198 15920615
0.53147066 -0.067893349 -0.047304571 15789030
0.50733334 -0.051302165 -0.040800322 16580087
0.51431996 -0.054623958 -0.045180988 16448244
0.5212 -0.058887102 -0.048341207 16250095
0.50578046 -0.044571023 -0.043201894 16645880
0.51109529 -0.046100434 -0.047712967 16645880
0.49877781 -0.032922223 -0.04127958 16711416
0.50399995 -0.03520925 -0.045291629 16645880
0.49900001 -0.02845848 -0.040908411 16645623
0.50478721 -0.025277825 -0.044534106 16579317
0.51072735 -0.022767393 -0.048500434 16381681
0.50588238 -0.015577004 -0.042138647 16118765
0.51233339 -0.014331331 -0.047239408 15986923
0.50750005 -0.0084476313 -0.040714491 16119279
0.51472914 -0.0056025623 -0.0447676 15724264
0.52200001 -0.0022729305 -0.0482064 15789544
0.51780003 0.0021088973 -0.04160127 15132641
0.52434093 0.0048043686 -0.045000698 15066848
0.53100008 0.0074762702 -0.048970561 15198177
0.52724999 0.012002292 -0.042093653 14737883
0.53347623 0.015224714 -0.045675118 14606040
0.54100001 0.0191726 -0.049417563 14869212
0.53682351 0.021911344 -0.042976964 13948110
0.54373914 0.025915418 -0.04474248 14079696
0.54533333 0.031241952 -0.04130223 13553609
0.51900005 -0.070301212 -0.032828122 14802903
0.52366668 -0.070933335 -0.03721774 14605011
0.51669055 -0.064290673 -0.033894461 15394526
0.52207142 -0.067925081 -0.037390232 15197147
0.49900001 -0.050069589 -0.030978981 16711157
0.50485367 -0.053575177 -0.034387857 16381936
0.51168424 -0.058216047 -0.036464997 16052970
0.49739537 -0.044036057 -0.033036586 16580087
0.50165224 -0.045947827 -0.037655532 16514037
0.49573517 -0.034930237 -0.035292368 16645880
0.50050002 -0.039089728 -0.039859705 16711673
0.49523807 -0.025306698 -0.034943923 16513524
0.50059998 -0.02233737 -0.039633565 16447474
0.49582002 -0.015111635 -0.033667918 15987693
0.50164706 -0.014202682 -0.038225032 15987693
0.49781826 -0.0076771136 -0.031383816 15527141
0.50424445 -0.0049993908 -0.034996431 15527141
0.51112503 -0.002375612 -0.038761951 15198177
0.50683337 0.0018469747 -0.031961784 15066591
0.51397914 0.0050358046 -0.035499383 15066591
0.52183342 0.0091284979 -0.038302328 15000798
0.51687503 0.011815454 -0.031789493 14606040
0.52558827 0.014796929 -0.035453107 14474711
0.53054553 0.018125121 -0.037397668 14343125
0.53500003 0.023926431 -0.034412239 13948367
0.54183334 0.028188718 -0.037340876 13750990
0.53880006 0.03145615 -0.030801225 13553352
0.54341179 0.032054629 -0.036175221 13422023
0.50630003 -0.061232936 -0.022902098 15525341
0.51378137 -0.064942487 -0.026599679 15130841
0.49706668 -0.053020451 -0.02395951 16249834
0.5033704 -0.057146195 -0.026081642 15986405
0.51000005 -0.059530761 -0.029871007 15986662
0.4876667 -0.04170217 -0.021333085 16579312
0.49324593 -0.045523807 -0.025318347 16381935
0.48630196 -0.034665432 -0.023398031 16645107
0.49109086 -0.035533365 -0.028451066 16579828
0.48486122 -0.024815923 -0.024439648 16381937
0.49077776 -0.025119079 -0.029894074 16447474
0.4852905 -0.015013394 -0.023907887 16052972
0.49112502 -0.01385103 -0.028837768 16052972
0.48704764 -0.0065174811 -0.022013068 15329506
0.49390244 -0.0044034594 -0.026002403 15395810
0.50050002 -0.0015948126 -0.029314585 15330018
0.49671426 0.0021029366 -0.022894952 14935005
0.50374466 0.0058133444 -0.025846062 14540504
0.51080006 0.0087761907 -0.029439827 14540247
0.50604773 0.012802405 -0.022139225 14408918
0.51327276 0.015683236 -0.025443651 14145746
0.52271432 0.01852758 -0.028693046 14145489
0.51623529 0.023560183 -0.021636413 13948367
0.52459097 0.024341041 -0.025595587 13948110
0.53162503 0.026309669 -0.028649095 13684938
0.52450001 0.030866493 -0.022131085 13421766
0.537 0.031603668 -0.028938159 13684938
0.49849996 -0.062983222 -0.012943338 15131097
0.50207692 -0.063489467 -0.017565537 14933977
0.48800001 -0.051365398 -0.012132589 16052455
0.49405265 -0.055222582 -0.015469001 15920612
0.5 -0.05894874 -0.019335974 15920612
0.47866669 -0.040559154 -0.010480501 16710386
0.48492065 -0.044680666 -0.014373634 16447213
0.4905 -0.047925923 -0.018825499 16249834
0.47668582 -0.034058031 -0.012588171 16447471
0.48158973 -0.035867054 -0.016965073 16513264
0.47516671 -0.025059704 -0.01438192 16250607
0.48019999 -0.025027018 -0.019019978 16381937
0.47562274 -0.015473024 -0.013642003 15790314
0.48063159 -0.014589153 -0.018321192 15856107
0.4771539 -0.0075330734 -0.012010978 15592935
0.48285466 -0.0044819592 -0.015936809 15263970
0.48640007 0.0023251809 -0.012893815 14803419
0.49395826 0.0060446872 -0.016025113 14606040
0.50050002 0.0089503033 -0.019354725 14145746
0.49695653 0.0128612 -0.012418739 14277075
0.50357497 0.015877437 -0.015913334 14277075
0.51000005 0.019267907 -0.019125735 14145746
0.50657141 0.021426719 -0.012732093 14211282
0.51253664 0.025251741 -0.015506921 13816524
0.5176667 0.030464353 -0.012142823 13224643
0.52427274 0.0343174 -0.012075659 13290179
0.49702561 -0.063091934 -0.0049216524 14802389
0.50050002 -0.066917405 -0.0044155186 14276302
0.48508894 -0.053374249 -0.0039138193 15723492
0.49179164 -0.058126494 -0.0054452703 15526112
0.46900001 -0.040471766 -2.117604e-05 16184043
0.47526523 -0.044039268 -0.0035026004 16052713
0.48131821 -0.047631823 -0.0069381637 15789284
0.466925 -0.033765599 -0.0022660601 16184043
0.472 -0.036032878 -0.0067068781 16381422
0.46543431 -0.024709523 -0.0041219848 16052970
0.47021437 -0.02626775 -0.0094567034 16250349
0.46598333 -0.015591042 -0.0032301852 15724775
0.47064298 -0.014522808 -0.0083250925 15790313
0.46741179 -0.0069892523 -0.0010530802 15329762
0.47313344 -0.0048998301 -0.0054942337 15329763
0.48000002 -0.00096820755 -0.009011182 14869212
0.47572219 0.0027560077 -0.002626122 14606039
0.48312205 0.0059010643 -0.0063444469 14540246
0.49000001 0.0093355104 -0.0091989143 14211282
0.48700002 0.013296358 -0.0024518636 14145744
0.49314284 0.0160456 -0.0057298108 14145745
0.5 0.018890103 -0.0093866475 14277075
0.49618188 0.02138567 -0.0030946704 14014159
0.50375003 0.023755074 -0.0062133712 13816781
0.51171434 0.028232718 -0.0063578994 13619402
0.5159772 0.033198573 -0.00368034 13290181
0.52318746 0.037832648 -0.0067663398 12763577
0.52400005 0.040650617 -0.0049304334 11776423
0.48711115 -0.061167523 0.0051693437 14539218
0.49199998 -0.062233448 0.0015119325 14671061
0.47614288 -0.051916916 0.0065505193 15394527
0.48316276 -0.056482837 0.0046804184 15131355
0.45900002 -0.040683355 0.0096500209 15986664
0.46561366 -0.043503735 0.0063137184 15986407
0.47262073 -0.047388382 0.0038655577 15789285
0.45733336 -0.034294929 0.0077677201 16117993
0.46265909 -0.035570927 0.0033959323 16184043
0.455654 -0.024674429 0.0057791481 15921641
0.46037501 -0.026392166 0.0013261766 15921641
0.45640987 -0.015262504 0.0065390388 15658982
0.46109521 -0.013880474 0.0019823122 15658982
0.45796153 -0.006776568 0.0081003131 15330018
0.46337038 -0.0045844838 0.0041303528 15132383
0.47000003 -0.00094803656 0.0010790572 15000028
0.46676472 0.0028241544 0.0075271237 14737370
0.47208509 0.0058249566 0.0039708177 14408661
0.47576472 0.012344961 0.0068531246 14079953
0.48318425 0.016830226 0.0041974364 14013903
0.48662502 0.020948794 0.0056655309 13948366
0.4949334 0.02481311 0.0052377642 13685193
0.50506675 0.028621482 0.0039929776 13355973
0.51362503 0.034594119 0.0021561505 12961472
0.46746427 -0.052613705 0.016859971 14670804
0.47326317 -0.054257751 0.012453054 14802390
0.48175004 -0.058772061 0.010410409 14605011
0.45624387 -0.04273618 0.015758032 15460577
0.46320593 -0.047344044 0.014392873 15131355
0.44767445 -0.034150518 0.017719422 15789797
0.45279172 -0.035610043 0.013091062 15986664
0.44597435 -0.024859475 0.015975052 15855591
0.45071429 -0.026235271 0.010982767 15987433
0.44598645 -0.015387813 0.016391287 15592676
0.45169228 -0.014043769 0.011609421 15592933
0.44777423 -0.0065807034 0.018033637 15066588
0.45357633 -0.0043666009 0.013845333 15066846
0.45652947 0.0025421204 0.016697146 14474453
0.46442854 0.0059058852 0.013876988 14145489
0.47000003 0.00895447 0.011531703 13948110
0.46849999 0.011302806 0.017709715 13882574
0.47416672 0.015104832 0.01488265 13816525
0.48033336 0.018896999 0.010473096 13816524
0.47811112 0.020924123 0.017387524 13487816
0.48127034 0.023970248 0.014684606 13422023
0.46400008 -0.052274279 0.024593901 14210510
0.44777775 -0.04143703 0.026006702 14867925
0.45520008 -0.045494292 0.024464317 14605011
0.46063641 -0.049259257 0.024091046 14276559
0.43753129 -0.032958001 0.027567897 15460575
0.44320697 -0.036104996 0.023997378 15591904
0.43584332 -0.024605926 0.025795687 15789540
0.44052947 -0.026369747 0.021151315 15789541
0.43646049 -0.015047697 0.026160361 15395553
0.44079161 -0.013612845 0.021563018 15395553
0.43795651 -0.0069885729 0.028105723 14869468
0.4435001 -0.0045208959 0.023935422 14803673
0.44719458 0.0022428622 0.02664043 14080208
0.45329517 0.0062424201 0.023980843 13751499
0.46066669 0.0094961226 0.020828307 13356484
0.45723075 0.011595144 0.027312182 13489098
0.46517238 0.01510607 0.025929749 13488842
0.47138897 0.017871078 0.023943719 13554123
0.47436002 0.021874368 0.024707878 13159109
0.48150003 0.025520897 0.020267861 13224644
0.46228573 -0.051334921 0.031361811 14012874
0.43100002 -0.040219542 0.038826223 14801618
0.4453637 -0.0421375 0.032299772 14605010
0.45618182 -0.046849228 0.032017086 14012874
0.42750001 -0.032333005 0.038341399 15328475
0.43267566 -0.035110202 0.034353245 15262939
0.44050002 -0.039043613 0.03143169 14999768
0.42590541 -0.025059238 0.036633328 15526881
0.43068749 -0.025226155 0.031455319 15724004
0.42630306 -0.015872562 0.036853269 15460833
0.43120936 -0.014505025 0.031975158 15329504
0.42811763 -0.00746619 0.038181681 14869210
0.43322498 -0.0048473845 0.034362998 14606296
0.44000003 -0.00088752358 0.030881573 14343125
0.43627274 0.0014434551 0.037344761 13948366
0.44500002 0.0054391315 0.034385055 13619914
0.45100001 0.0092971269 0.031300116 13488839
0.44900003 0.011077058 0.039081287 13619914
0.45461908 0.013813622 0.035982322 13488840
0.46416673 0.017722892 0.033079393 13488326
0.45900002 0.021639224 0.039736785 12699072
0.46500006 0.022494651 0.036230411 12895679
0.47087502 0.023027785 0.031667639 12961215
0.42799997 -0.041192036 0.048322111 14802645
0.43102777 -0.042775076 0.045021337 14802389
0.41778573 -0.031302705 0.048462451 15592161
0.42444587 -0.035138492 0.04495969 15065817
0.43000004 -0.038544361 0.041252729 15130840
0.41639435 -0.024347126 0.046640463 15461088
0.4210771 -0.025697099 0.041962165 15395552
0.4161765 -0.015379292 0.046753027 15263967
0.42146361 -0.014566045 0.04218787 15264223
0.41773331 -0.0079475977 0.048810411 14803674
0.42410582 -0.0050747492 0.04474036 14606294
0.43000001 -0.0012700077 0.041051403 14013903
0.42740002 0.0010734455 0.048070516 14014157
0.43335003 0.0045352806 0.045651861 13684938
0.44226667 0.008633662 0.043182265 13553609
0.43866667 0.010753927 0.048930097 13750731
0.44515511 0.013769243 0.045711242 13553609
0.45194998 0.016550373 0.041451551 13356488
0.45700002 0.02047509 0.041167237 12567486
0.42899996 -0.05186129 0.058787782 14341839
0.43000001 -0.050695919 0.056352299 14539217
0.41800001 -0.041383561 0.058552735 14868182
0.42473435 -0.043992076 0.055172473 14736596
0.43000004 -0.046501596 0.052157972 14670802
0.40857145 -0.031431936 0.058736086 15131868
0.41468969 -0.034831606 0.05533981 15065817
0.42113334 -0.037986126 0.051574051 15000281
0.40703192 -0.024583803 0.057359248 15395038
0.4121168 -0.025580833 0.052525353 15394781
0.40667519 -0.015443942 0.056905352 15263711
0.41170838 -0.014301113 0.052024633 15198174
0.40808332 -0.0082256394 0.058494151 14869466
0.41433331 -0.00504319 0.054954596 14474709
0.42110005 -0.0018337984 0.051242024 14277074
0.41775 0.00074690802 0.057556719 14211282
0.42440474 0.0045350753 0.055101711 13816524
0.43130767 0.0082185613 0.052015774 13619145
0.42733335 0.010698753 0.058445811 13684938
0.4360694 0.014556817 0.055014428 13355974
0.44000003 0.018225588 0.053084824 12895422
0.42807692 -0.05235922 0.064931974 14276046
0.43000001 -0.054823138 0.064405397 14341839
0.4086667 -0.040686395 0.068862885 14671061
0.41512504 -0.04277283 0.065492339 14605010
0.42365223 -0.047775675 0.064457692 14473425
0.39850003 -0.030656476 0.069482148 15263454
0.40492555 -0.034203503 0.06539686 15000024
0.41190913 -0.038220532 0.062392939 14867924
0.3974584 -0.024337284 0.068077274 15263454
0.40186068 -0.025377857 0.063457437 15329246
0.39712504 -0.015276098 0.06771189 15263454
0.401842 -0.014523871 0.063027918 15198174
0.39812499 -0.0083753727 0.069066644 14803419
0.40426373 -0.004997733 0.06480138 14474454
0.41100004 -0.0015494759 0.060837962 14145489
0.40737846 0.0027916073 0.068024568 13750988
0.41354939 0.0051567247 0.064795941 13619145
0.42152941 0.0077420962 0.061683584 13553609
0.41900003 0.010925475 0.066681363 13290180
0.42641822 0.014031724 0.065138265 12895679
0.43035713 0.017913578 0.064814225 12303541
0.43000001 0.020473367 0.066016018 13027262
0.41745004 -0.051955007 0.076254331 14210254
0.42371431 -0.052157748 0.071603306 14473425
0.39800003 -0.041021883 0.079021432 14999769
0.40457386 -0.043225028 0.075678028 14671061
0.41399997 -0.047145098 0.073381416 14670804
0.421 -0.048896253 0.070941344 14802390
0.3951782 -0.034025393 0.075928919 15065819
0.40159994 -0.037573956 0.072180972 15000026
0.38876668 -0.02393201 0.078736544 14869209
0.39276701 -0.02499608 0.073751993 15197405
0.38876319 -0.015895566 0.078633629 14606039
0.3924287 -0.0148495 0.073532254 15000539
0.38900003 -0.0094358837 0.079209507 14277075
0.39452165 -0.0056140958 0.075419784 14408661
0.40040004 -0.0020568136 0.071531542 14145746
0.39750007 0.0013397663 0.078098901 13816524
0.40377226 0.0050269011 0.074440263 13290437
0.40760002 0.010819244 0.076316103 12500921
0.41533336 0.011805289 0.07161016 12303542
0.42512506 0.016377348 0.071634687 12237751
0.41733333 -0.05213663 0.081068948 13815496
0.38900003 -0.043357819 0.08922673 14604757
0.39354923 -0.042890746 0.084388949 14473171
0.40166667 -0.045632888 0.080533169 14539218
0.41233337 -0.049095709 0.081065662 13947082
0.38803896 -0.034066156 0.08652506 14342098
0.39151075 -0.036714178 0.082485877 15065820
0.38631037 -0.025250826 0.084967941 12105650
0.38622513 -0.015241463 0.084964402 12237236
0.38750914 -0.0057203965 0.085524037 14013901
0.39104548 -0.0029078245 0.08128877 14276562
0.38877419 0.0020642187 0.087911554 13816522
0.39206529 0.0029596796 0.083749868 13618888
0.40000001 0.0052798069 0.080512956 13224387
0.39200002 -0.050345372 0.098632798 13946827
0.38826743 -0.043718148 0.094783142 14802137
0.39021736 -0.047892872 0.095782645 14276049
0.38513824 -0.035010636 0.09485206 12763067
0.37900001 -0.022058379 0.099354416 2502440
0.38221791 -0.025135711 0.094818488 2502185
0.37899998 -0.017178528 0.099354416 2370597
0.38227826 -0.014891016 0.094752476 3224882
0.38446179 -0.0052727014 0.09493053 12895420
0.38735002 0.0044640186 0.095182613 13553351
0.39000002 0.0074303048 0.090369098 13290436
0.38900003 0.01014322 0.098333292 13225157
0.39133337 0.012448058 0.097803071 12237750
0.38881248 -0.05152921 0.10738719 14078926
0.3911429 -0.051020693 0.10201227 14276306
0.38646725 -0.044802081 0.10532476 14210769
0.39014289 -0.048541386 0.1012314 14605013
0.37900001 -0.030265404 0.10844869 2500899
0.38250002 -0.035028894 0.10488473 11710378
0.37773946 -0.02405265 0.10554235 2436134
0.3804211 -0.028188182 0.10239778 2633513
0.37788767 -0.015547118 0.10531206 2830121
0.38050005 -0.01130781 0.10291346 4145211
0.37900001 -0.0096369386 0.10911413 11183771
0.38206854 -0.0052048974 0.10503606 11974062
0.38428035 0.0046050833 0.10506478 13224898
0.38782001 0.011803838 0.1060378 12830399
0.39195746 0.015535196 0.10438523 12172212
0.38895234 -0.051861893 0.1127601 13552326
0.39111772 -0.053869929 0.11696709 13552069
0.38553491 -0.04490358 0.11483622 13881547
0.37857151 -0.031318247 0.11498206 4737092
0.38184521 -0.035924148 0.11488494 11381410
0.3741259 -0.025083501 0.1150466 2173219
0.37400666 -0.01509442 0.11506631 3159085
0.37760469 -0.0083663287 0.11639272 10197905
0.38123378 -0.0042426316 0.11400104 11119267
0.38414675 0.0042779287 0.1144781 12040370
0.38746428 0.012732767 0.11425585 12698814
0.39126197 0.01744475 0.11434323 12632509
0.39200002 0.020315915 0.11560986 10395290
0.39497784 -0.0533599 0.1240593 11315362
0.40042859 -0.053304695 0.12934455 9341313
0.38681823 -0.043142453 0.12181795 10658713
0.39307696 -0.047618546 0.12492301 10132113
0.36900002 -0.030114722 0.12955868 2370341
0.37321427 -0.030838236 0.12433134 2436134
0.38330001 -0.036433026 0.12168752 8948097
0.36899999 -0.024121864 0.12928875 1580569
0.37079152 -0.02528609 0.12461349 1909536
0.3686924 -0.015087558 0.12878615 2500896
0.37097254 -0.015556883 0.12396059 2632484
0.36433336 -0.0085542863 0.12905675 7171426
0.37472734 -0.0078480821 0.12103713 6579035
0.38800001 -0.00078263442 0.12260657 11185314
0.38866666 0.0022505654 0.12114751 10987678
0.39258149 0.0048605944 0.12437417 9737355
0.40100002 0.0095173735 0.12765165 8948094
0.40700001 0.012047382 0.12717709 8421752
0.41226673 0.016481495 0.12872973 8092784
0.41500002 0.02102216 0.12919375 7632493
0.40547061 -0.053971786 0.13315739 8881017
0.41285715 -0.052816756 0.13812467 8420723
0.40200001 -0.049747515 0.13126497 8355187
0.41541669 -0.046170395 0.1376297 7171173
0.421 -0.041649867 0.13835435 7434600
0.36552629 -0.030775029 0.13539131 2107167
0.42400002 -0.039566323 0.13943999 7434600
0.36566052 -0.025047464 0.13487743 1975581
0.36586866 -0.015068959 0.13480093 3092517
0.36419997 -0.008408796 0.13395485 5392182
0.41537508 0.017446665 0.13413131 7500648
0.41613331 0.022280823 0.13419208 8619129
0.41659999 -0.052333079 0.14264566 8223601
0.42050004 -0.050068095 0.14714912 8157551
0.41733333 -0.047781557 0.14201729 7828845
0.42354554 -0.04387816 0.14555986 8486776
0.36455879 -0.031787023 0.14612733 2764844
0.42626092 -0.0387787 0.1446805 9737612
0.43000001 -0.038112946 0.14996959 10724507
0.36388609 -0.025014069 0.14480485 1251859
0.36394718 -0.015785798 0.14544544 1973010
0.43760005 -0.051283866 0.15835901 8749431
0.42809093 -0.045593325 0.15112573 8684152
0.43285426 -0.044176873 0.15549065 9078910
0.3651095 -0.032599904 0.15562658 3488051
0.43042856 -0.038726818 0.15242329 10527126
0.36578771 -0.025117639 0.15536836 725258
0.36411852 -0.015320456 0.15521526 2300177
0.43839997 -0.044813503 0.16069858 8749689
0.36309853 -0.03258675 0.16405049 1909530
0.36341631 -0.024978612 0.16502653 1120529
0.36438075 -0.015974585 0.16491692 1513232
0.34732258 -0.033117186 0.17925453 1646360
0.3559272 -0.032410342 0.17768739 988430
0.36219516 -0.032229893 0.17305428 1514774
0.3475 -0.025104882 0.179359 1449238
0.35553148 -0.02505438 0.17733769 988687
0.36099994 -0.024868693 0.17242248 1515031
0.34894118 -0.016416211 0.1793128 1383447
0.35522214 -0.016794549 0.17774051 856846
0.36164448 -0.017246239 0.17291306 1317653
0.34197268 -0.03318527 0.18650822 1515031
0.34199077 -0.024964651 0.18644042 1449495
0.34317338 -0.016550869 0.1855332 1383191
0.34000003 -0.0252683 0.19076684 1383446
