# .PCD v0.7 - Point Cloud Data file format
VERSION 0.7
FIELDS x y z rgb
SIZE 4 4 4 4
TYPE F F F U
COUNT 1 1 1 1
WIDTH 642
HEIGHT 1
VIEWPOINT 0 0 0 1 0 0 0
POINTS 642
DATA ascii
0.42300001 -0.060763393 -0.060424384 16776693
0.42300001 -0.059278015 -0.060424384 16250349
0.42553338 -0.072386585 -0.051686887 16249322
0.41900003 -0.061006203 -0.050371096 16578799
0.4217627 -0.06468752 -0.054695658 16579569
0.41841671 -0.054256521 -0.052451778 16709870
0.42053071 -0.055920556 -0.056436092 16710640
0.41843247 -0.045929305 -0.052360121 16512491
0.42040429 -0.044129591 -0.056159843 16578283
0.41881827 -0.036942445 -0.050824534 16315625
0.4207164 -0.03437924 -0.054249108 16249576
0.42130026 -0.025010481 -0.053773213 15657953
0.42272982 -0.015146375 -0.053677347 15460574
0.42444277 -0.0053226724 -0.053677354 15197403
0.42713055 0.0045491038 -0.053989302 14671315
0.42999998 0.0085279318 -0.057733312 14868692
0.42839643 0.014009959 -0.052758042 14473935
0.43004 0.016488872 -0.056114618 14671315
0.42900002 0.020978119 -0.050485276 14276556
0.43122378 0.02507657 -0.054205198 14802900
0.43363732 0.035166044 -0.054333646 15000278
0.4354445 0.044999026 -0.054559838 15065558
0.43803638 0.055031531 -0.054473639 15131351
0.44000003 0.058855254 -0.058732599 15724257
0.43896884 0.063470326 -0.052268721 15262680
0.44020408 0.065992177 -0.056089692 15526108
0.44218192 0.074465521 -0.054914635 15526622
0.4440001 0.081069469 -0.053846743 13816263
0.44387501 -0.092209384 -0.041454598 16578545
0.43505266 -0.083677933 -0.043327738 16380907
0.44080001 -0.089222305 -0.04191523 16578030
0.42615947 -0.073651046 -0.044925883 15788513
0.42999995 -0.078852154 -0.044074617 16117735
0.41803229 -0.061834816 -0.044406019 16249062
0.42153576 -0.066637151 -0.045183994 15985635
0.41626012 -0.054925337 -0.045337275 16643820
0.4158619 -0.045071986 -0.045118272 16446697
0.41679609 -0.035120998 -0.045096986 16117733
0.41772217 -0.025017019 -0.043593243 15394524
0.42020836 -0.023799917 -0.048303347 15394525
0.41848651 -0.016040942 -0.041749179 14999767
0.42058733 -0.014538638 -0.04650021 15197145
0.41900003 -0.0096731428 -0.040725708 14737108
0.42154098 -0.0051969392 -0.045005873 14737108
0.42423987 0.0046116207 -0.045213547 14144970
0.42567381 0.014503133 -0.044974137 13947334
0.4279092 0.024002763 -0.044267531 14144456
0.42999995 0.028219182 -0.047119468 14473677
0.43092996 0.034948986 -0.044915851 14473677
0.43343845 0.045203593 -0.045094471 14539214
0.43477017 0.054871269 -0.045145001 14736337
0.43792835 0.064880878 -0.044949789 15131094
0.4390001 0.071696289 -0.042498369 15328217
0.44076014 0.075964935 -0.045684386 15263195
0.44125003 0.080714919 -0.043412451 11841960
0.46828571 -0.11104165 -0.032126199 16644081
0.47000003 -0.11354319 -0.031195777 16644338
0.45562503 -0.10218561 -0.033081602 16051943
0.4624615 -0.10695124 -0.032166116 16315372
0.44550005 -0.094176784 -0.034796786 15460063
0.45137498 -0.099181429 -0.034362823 15920358
0.43579096 -0.084392734 -0.03508383 14999254
0.44044447 -0.089562021 -0.03507949 15130841
0.42627421 -0.073327787 -0.035379872 15064790
0.43075004 -0.078408144 -0.03415776 15196376
0.41708893 -0.062054724 -0.034540419 15525340
0.42150012 -0.067136496 -0.035305295 15262168
0.41290629 -0.054758396 -0.035374057 16314855
0.40900001 -0.045985956 -0.030817287 16315366
0.41162619 -0.04484386 -0.035329115 16380648
0.41312715 -0.035058219 -0.035403218 15920353
0.4148367 -0.025072945 -0.03504255 15065815
0.41673991 -0.01498441 -0.034656022 14802644
0.41803384 -0.0069948561 -0.033941422 14539729
0.4204635 -0.0027439417 -0.036151849 14342093
0.42184028 0.0045855357 -0.035079651 13749955
0.42420983 0.014540826 -0.035276204 13486783
0.42603168 0.024451444 -0.035141472 13749955
0.42856011 0.033048052 -0.033067979 14078663
0.43000016 0.036579572 -0.036318768 14276042
0.43095002 0.045038749 -0.034829475 14341835
0.43315533 0.054900832 -0.035008591 14604751
0.43509305 0.064713918 -0.035021111 15065045
0.43793413 0.074757583 -0.034705717 15065559
0.44000003 0.078683682 -0.038904175 15130583
0.43900007 0.080560267 -0.033291832 13487297
0.44000003 0.080486268 -0.038131643 13420991
0.48700002 -0.13095097 -0.020543352 16446445
0.4916667 -0.13335836 -0.021123355 16709874
0.47625002 -0.12234844 -0.023086969 16183273
0.48220006 -0.12740681 -0.020792689 16249066
0.46710712 -0.11236519 -0.024824094 15328221
0.4718065 -0.1171426 -0.025283003 16051687
0.45631579 -0.10294323 -0.0245854 14078668
0.46228009 -0.10790031 -0.025044203 14867927
0.44618517 -0.093773454 -0.02529824 13683910
0.45166671 -0.09842395 -0.023277499 13486531
0.4373529 -0.083015777 -0.025834104 13684165
0.44160607 -0.087763324 -0.024575869 13289151
0.42677149 -0.07199762 -0.025391759 14144459
0.43208513 -0.076870129 -0.024574246 14078666
0.41694009 -0.062337607 -0.024908813 14933460
0.42195004 -0.067531332 -0.025206998 14472653
0.40888888 -0.050919171 -0.022141343 15854816
0.41198871 -0.055162292 -0.025321776 15722973
0.40807799 -0.04504741 -0.025093185 16118500
0.41000003 -0.049537741 -0.029052988 16381159
0.40821457 -0.035804201 -0.023786787 15789535
0.41058064 -0.033010308 -0.028048603 15657694
0.40892303 -0.027923383 -0.020931859 15131351
0.41160351 -0.024607699 -0.025476122 15000022
0.4140301 -0.014883519 -0.024741435 14671314
0.416798 -0.0052712783 -0.024859307 14276557
0.42000002 -0.0008471816 -0.02951579 14079178
0.41837043 0.0019505009 -0.022619165 13750212
0.42067495 0.0059240228 -0.025809461 13618627
0.42356989 0.014858682 -0.02541632 13487040
0.42573503 0.024638396 -0.02532444 13684419
0.42842379 0.03403011 -0.024525831 14013383
0.42999995 0.03892839 -0.025051143 14144712
0.42900002 0.04031083 -0.020105304 14210762
0.43000022 0.044980414 -0.024727792 14210506
0.43147302 0.05485383 -0.024652803 14473421
0.43409258 0.064813495 -0.025028573 14933715
0.43520421 0.07493411 -0.024901574 14933715
0.43800002 0.080633104 -0.029242706 12434867
0.49756253 -0.14209269 -0.012542962 16249323
0.48688239 -0.13152386 -0.014101969 15328477
0.4927941 -0.13631381 -0.015019019 16051687
0.47657141 -0.1225316 -0.014720437 14276046
0.48226929 -0.12746653 -0.014526993 14867927
0.46736667 -0.11250799 -0.015845524 13420993
0.47194877 -0.11741756 -0.014408064 13552580
0.45850006 -0.1021566 -0.017394714 13025979
0.46279252 -0.1059678 -0.014489491 12960186
0.44853336 -0.091627464 -0.018009882 12630967
0.45492598 -0.095806628 -0.014784039 12828600
0.46000001 -0.099640787 -0.011866321 12828600
0.43863639 -0.081259795 -0.01728843 13881544
0.44441378 -0.085354418 -0.015063692 13289408
0.45200002 -0.089267597 -0.01060181 13025979
0.42699993 -0.07183598 -0.015013581 14539217
0.43270591 -0.076674886 -0.016197763 14407887
0.4166429 -0.06266398 -0.015324278 14736082
0.42245013 -0.06761165 -0.015347418 14670546
0.40805131 -0.05199239 -0.014202292 15459802
0.41210169 -0.057068687 -0.015257879 15065045
0.40496203 -0.044795781 -0.01501252 15789535
0.40539801 -0.03507961 -0.014873537 15526363
0.40791333 -0.025501966 -0.01456367 14802386
0.41023079 -0.020920794 -0.01767502 14605520
0.40891662 -0.019092763 -0.011904982 14341835
0.4117741 -0.014518745 -0.015216688 14342092
0.4145501 -0.0051961471 -0.015065001 14079176
0.41753006 0.0038143378 -0.014740393 13487039
0.4204075 0.0088122506 -0.016605094 13487040
0.42251623 0.015140822 -0.015243017 13486782
0.42539975 0.024597544 -0.015473938 13683906
0.42740616 0.03478644 -0.014718424 14078663
0.42873931 0.042229112 -0.014246127 14144456
0.43000016 0.047134355 -0.014895282 14210249
0.43050006 0.055067658 -0.014634056 14407628
0.43194598 0.065022759 -0.014571673 14868178
0.43402073 0.074918441 -0.01482905 14868178
0.4347778 0.080888271 -0.012234282 13157818
0.49720004 -0.14273711 -0.0061554476 14736597
0.48746157 -0.13133834 -0.0058117071 13683909
0.49221745 -0.13589063 -0.0038802733 13815495
0.47736362 -0.12155426 -0.0070301355 12828600
0.48329416 -0.12554651 -0.0038982264 13223358
0.46900001 -0.11073976 -0.0099026123 12631734
0.47439715 -0.11476332 -0.005024693 12697271
0.48033336 -0.11866356 -0.00039625063 12960442
0.46641818 -0.10400076 -0.0058715604 12763320
0.47104767 -0.10791583 -0.0026954915 12763320
0.45755261 -0.092790812 -0.0061339196 13092029
0.46240002 -0.097249001 -0.003857221 12960442
0.44602442 -0.082960859 -0.0049101254 13881288
0.45283341 -0.088019967 -0.0044334601 13552323
0.42757145 -0.071286462 -0.0070923567 14670802
0.4337143 -0.074632205 -0.0037263695 14210252
0.44000003 -0.079171173 -0.0041400585 14144459
0.41648492 -0.061942086 -0.0049497685 14933460
0.42395356 -0.067105412 -0.0040808083 14473424
0.40754566 -0.052345652 -0.0047903755 15130837
0.4119412 -0.057580438 -0.0051071928 14933202
0.403927 -0.044788901 -0.004748649 15526107
0.40290824 -0.03480548 -0.0047802306 15394778
0.40502673 -0.025037007 -0.0047235242 14671313
0.40792802 -0.016478345 -0.0039223894 14342348
0.41081581 -0.012317142 -0.0067523648 14210762
0.40900001 -0.0089635421 -1.8466952e-05 14276555
0.41268507 -0.0051019019 -0.0049427045 14013383
0.41688421 0.005022211 -0.0049012802 13552832
0.41892865 0.011414054 -0.0028214485 13487040
0.42076039 0.015981058 -0.005253002 13487039
0.42337272 0.025419969 -0.0049760719 13684162
0.42727956 0.035057712 -0.0046972497 13947077
0.42899993 0.041538306 -0.0042039398 14012870
0.43000022 0.045658946 -0.0046229404 14078663
0.43004021 0.055006523 -0.0045500831 14341835
0.43066996 0.065171078 -0.0045587276 14802386
0.43249962 0.075069606 -0.0045790253 14868435
0.43400002 0.081065491 -0.0042361198 13224125
0.49260381 -0.13459341 0.0049617863 13618115
0.48684007 -0.12411975 0.0049497318 13157564
0.49045458 -0.12906192 0.0066597597 13420735
0.47775 -0.1119683 0.0020762736 12960186
0.48287752 -0.11540559 0.0058205668 12960185
0.46900001 -0.1012243 0.0014427406 13026492
0.47414014 -0.10481142 0.0050227363 12960442
0.48040003 -0.10893302 0.0076264143 13157563
0.45900002 -0.090111606 0.0048146481 13486530
0.46542004 -0.095303319 0.0053627188 13223614
0.47014287 -0.099217243 0.007526549 13092028
0.4463847 -0.082333602 0.0052071582 13815495
0.45468003 -0.087309875 0.0041135214 13749702
0.42900002 -0.070161812 0.0070107067 13947079
0.43414003 -0.074167222 0.0041883308 13947080
0.44062501 -0.079283625 0.0046226368 13815494
0.41722226 -0.06132846 0.0051535983 14210251
0.42429277 -0.066298895 0.0048713433 13947080
0.40700012 -0.052276544 0.0052219913 14998995
0.41202503 -0.057260744 0.0052893031 14539215
0.39900002 -0.040346961 0.009011291 15328984
0.40178362 -0.044677332 0.0050307838 15328727
0.39864007 -0.035334207 0.0085669803 15328984
0.40041342 -0.034864709 0.0039792573 15329241
0.39900002 -0.028639996 0.009135833 14934485
0.40129557 -0.025061755 0.0049492302 14737106
0.40410909 -0.014996209 0.005176154 14408141
0.40791693 -0.0065965792 0.0062816897 14276556
0.4113 -0.0029220937 0.0036859731 14276555
0.4141852 0.0049215429 0.0053610443 14013383
0.4177655 0.01399755 0.0063806758 14013127
0.42050016 0.017719727 0.0035622509 13881540
0.41875002 0.021457635 0.0095388843 14210762
0.42241666 0.02551586 0.0052401223 14078663
0.42602199 0.035048764 0.0054627 14144712
0.42852563 0.04288676 0.0050282441 14012870
0.4300001 0.048091847 0.0052578067 14144456
0.43000022 0.055001035 0.0050137728 14210249
0.43000022 0.065067433 0.0050137741 14670544
0.43032196 0.075035624 0.0051197507 14736849
0.43176925 0.080923706 0.0045600762 13487038
0.49478123 -0.13228209 0.014683057 13749700
0.4881818 -0.12191871 0.011719441 13091770
0.49256143 -0.12563321 0.0156204 13354942
0.48646158 -0.11462113 0.014436844 13025977
0.49066666 -0.11853653 0.018739935 13157563
0.47700003 -0.10213237 0.013158238 13223356
0.48215562 -0.10627461 0.015383742 13157563
0.4662424 -0.092397995 0.014764178 13618115
0.47268972 -0.09734343 0.015856005 13420735
0.45900002 -0.08473897 0.013589953 13815493
0.46242106 -0.086683184 0.015848761 13683907
0.42900002 -0.070161812 0.010023598 13881286
0.43199998 -0.072793074 0.014366571 13815493
0.44450003 -0.078425266 0.019750997 13749700
0.41721049 -0.060883485 0.014891107 13815238
0.42424086 -0.065734625 0.015187793 13881030
0.43000001 -0.069318719 0.017596744 14012872
0.40742502 -0.052639496 0.014598687 14538703
0.41285723 -0.057262789 0.01514787 13881030
0.39813644 -0.042301144 0.015484407 15262937
0.40159011 -0.047160249 0.014732162 14999252
0.39673322 -0.035127271 0.014876711 15197400
0.39749494 -0.025561599 0.015426002 14737106
0.40000007 -0.021876 0.011739052 14539727
0.39866674 -0.017975986 0.018522706 14539727
0.40108502 -0.014435523 0.014486434 14408141
0.40472722 -0.0050721974 0.015131092 14276555
0.40784836 0.0036650617 0.016221106 13947590
0.41118917 0.0072381818 0.012648747 14079177
0.4140723 0.015152986 0.014863348 13881797
0.41740844 0.023976695 0.015888471 13881797
0.4205001 0.027964978 0.013344627 14210762
0.42334488 0.03540165 0.01571627 14079176
0.42702138 0.044596247 0.015289105 14078920
0.43000004 0.048681591 0.011165448 14012870
0.42888567 0.053812321 0.017450511 14078663
0.43000019 0.055520084 0.013019688 14210249
0.42877665 0.065343648 0.015590888 14604494
0.43000004 0.063599408 0.011221371 14604750
0.42899996 0.072765477 0.016498672 14867665
0.43000019 0.076481394 0.013375362 14736592
0.42999995 0.081144035 0.015435435 13947333
0.49776933 -0.13151653 0.022925444 13157565
0.49584219 -0.12469891 0.024949329 13289406
0.48792309 -0.11160648 0.022472093 13025977
0.49196082 -0.11587132 0.025498644 13025978
0.48378134 -0.10498548 0.024950635 13223357
0.49000001 -0.10996276 0.029802443 13091772
0.46825001 -0.091105886 0.021629177 13881287
0.47461998 -0.095100872 0.02508861 13552323
0.48000002 -0.099290967 0.027508698 13683908
0.45555556 -0.081379943 0.027471568 13420737
0.46439028 -0.086722597 0.024774237 13815495
0.43633339 -0.072433129 0.023187593 13486529
0.44375002 -0.075630024 0.026928885 13289150
0.45133337 -0.079097264 0.028509609 13354944
0.41800001 -0.060534421 0.020530581 13618114
0.42510813 -0.064019732 0.024965856 13749443
0.43156525 -0.068299465 0.025414865 13618114
0.40761292 -0.052384097 0.025067035 13814980
0.41377279 -0.056803528 0.024397127 13749187
0.42100003 -0.059983313 0.029055264 13946309
0.39749995 -0.042729463 0.025172492 15065558
0.40165299 -0.047752317 0.024946673 14539215
0.39502507 -0.035017271 0.024946252 15065558
0.39491758 -0.024830297 0.024937548 14671057
0.39696336 -0.014980004 0.025414258 14408141
0.40000004 -0.010899227 0.021623351 14276555
0.39872724 -0.0086109294 0.028238507 13881797
0.40168539 -0.0046901493 0.024702957 13750211
0.40648156 0.0051217205 0.024711121 13223867
0.40888885 0.01140653 0.02704891 12829109
0.41169557 0.015779139 0.024608534 12894902
0.4152666 0.024818387 0.025018942 13092281
0.41836849 0.031271055 0.026526282 13289660
0.42106181 0.035990495 0.024743872 13618369
0.42458415 0.044905718 0.025350202 13947077
0.42777359 0.054664139 0.024822243 14144456
0.42843169 0.064905688 0.024660075 14473421
0.42795315 0.074637376 0.024928363 14605007
0.43000001 0.079663664 0.02011334 14342348
0.42899993 0.08095137 0.025824534 14407884
0.42999998 0.082683578 0.024475435 13355197
0.49821872 -0.12274089 0.034023665 12894647
0.49595308 -0.11531512 0.035014488 12894391
0.48628211 -0.10341194 0.03419238 13289150
0.49178946 -0.10788127 0.036700852 13091770
0.47511536 -0.092898414 0.034542784 13552323
0.48166662 -0.097863294 0.035522528 13486530
0.45881823 -0.081092782 0.036889691 13618114
0.46508572 -0.085807726 0.03509374 13618114
0.47000003 -0.088970311 0.037388247 13618114
0.43883333 -0.070913993 0.033368565 13618114
0.44386369 -0.073592544 0.034358654 13552321
0.45357147 -0.078126021 0.036237873 13618114
0.4249706 -0.062631167 0.034593448 13947079
0.43357691 -0.067558557 0.03562738 13749700
0.40706891 -0.051363517 0.034945935 14012872
0.41375005 -0.055675525 0.035928689 14012872
0.42054549 -0.059561014 0.034349497 14078410
0.39663938 -0.042862628 0.035309393 14736336
0.40159997 -0.047508072 0.035207167 14407371
0.39322335 -0.034857403 0.034959 14868178
0.39275211 -0.024697352 0.034918021 14473933
0.39390838 -0.014659351 0.034978952 14276555
0.39682353 -0.0058232099 0.036152046 13947590
0.40063331 -0.0024011796 0.032524478 13881797
0.39900002 0.00044059905 0.038901407 14013383
0.4040255 0.0049850112 0.034857709 13552832
0.40809399 0.013121692 0.035774384 13355453
0.41089997 0.017689444 0.03412731 13092281
0.41387624 0.024965998 0.035091009 13223867
0.41786358 0.032152399 0.034975257 13355453
0.42075005 0.037250284 0.034736894 13486782
0.4235858 0.045219712 0.035227094 13815491
0.42648929 0.055098955 0.035199102 14144456
0.42803821 0.06481988 0.035002396 14407628
0.42673495 0.074710973 0.035236105 14539214
0.42818192 0.081947118 0.035492364 14276299
0.43000004 0.084249452 0.031969294 12762805
0.49900001 -0.12074375 0.040863346 12170668
0.49823919 -0.11379179 0.044275213 13091770
0.48778573 -0.10131008 0.045247074 13354944
0.49302328 -0.10627201 0.045126293 13486528
0.47687501 -0.091808029 0.04456652 13683908
0.48289734 -0.096635967 0.044994108 13486530
0.45883334 -0.080769829 0.04276529 13486529
0.46327776 -0.083726652 0.043481179 13486528
0.47322226 -0.088965625 0.045772068 13683908
0.44486368 -0.072668582 0.045944635 13354942
0.45391667 -0.077782519 0.043367345 13552321
0.41700003 -0.060389604 0.049767602 14275274
0.42462504 -0.062429529 0.043593846 13749443
0.43584999 -0.06720452 0.044158138 13354429
0.40724245 -0.051641334 0.045076501 14275530
0.41383994 -0.056278404 0.044893645 14275530
0.42000002 -0.059840832 0.042751435 13946566
0.39558202 -0.043018151 0.04523262 14670031
0.40185297 -0.048072226 0.045219619 14407116
0.3917914 -0.034768112 0.044883225 12433840
0.38899997 -0.024832716 0.04838213 3027245
0.39080659 -0.024887156 0.043549515 13421247
0.38900003 -0.019604877 0.04885431 9737093
0.39116645 -0.015164332 0.044848278 14210505
0.39348757 -0.0053914636 0.045112979 14013383
0.3971875 0.0026022349 0.045859113 13618625
0.40111858 0.0070725558 0.043873187 13487039
0.40533042 0.01477537 0.045055885 13421246
0.41000003 0.019329155 0.040293816 13289660
0.40823084 0.021746762 0.047469929 13421247
0.41247502 0.025596654 0.044347469 13618625
0.41693106 0.034010109 0.045614421 13815748
0.42052177 0.038059693 0.042440053 13750211
0.41900003 0.040352073 0.049025409 14012870
0.42279801 0.045226667 0.044968493 13881541
0.42538747 0.05531773 0.045371138 14078663
0.42632049 0.065290846 0.045105763 14341835
0.42599991 0.075245172 0.045481399 14473420
0.42736369 0.08296068 0.044981066 13881541
0.49765223 -0.11152877 0.054024816 13749443
0.48783335 -0.10062652 0.053938631 13617857
0.49385107 -0.10571942 0.055300348 13617857
0.47888893 -0.090777554 0.054289736 13420735
0.48264009 -0.095461458 0.055069111 13420735
0.47602326 -0.086744539 0.054768518 13486529
0.44579315 -0.072299056 0.055829212 13749700
0.41837507 -0.060588732 0.055569164 14209994
0.42100003 -0.061954446 0.054624513 14209738
0.43900001 -0.06597361 0.057874333 13683907
0.44376934 -0.068303302 0.055557523 13683907
0.40516666 -0.051881891 0.051750585 14275274
0.41600004 -0.057254553 0.055572785 14407373
0.39364362 -0.043639965 0.054808807 14275015
0.40042859 -0.049017958 0.051538825 14275274
0.38795507 -0.034114048 0.055847544 2764329
0.3903794 -0.037060618 0.052072693 4539711
0.38712868 -0.025249993 0.054801371 2764329
0.38865981 -0.016221099 0.055697598 11249565
0.39010346 -0.012910444 0.051942181 14013383
0.38899997 -0.0086770039 0.057960872 13881284
0.39109421 -0.0048874477 0.054437008 13881540
0.39533055 0.0046556606 0.055032529 13223867
0.40000001 0.0094936397 0.05101613 13158074
0.39876926 0.010829062 0.057285253 12763316
0.40216351 0.01551046 0.054871976 12894902
0.40668836 0.02434043 0.055370845 13092281
0.41071433 0.028565705 0.052929264 13421247
0.41438779 0.034820877 0.054964252 13552832
0.41824999 0.041535288 0.056247845 13749954
0.42106673 0.04620548 0.054363899 13881540
0.42429975 0.055271193 0.05510531 14012868
0.42561972 0.065399505 0.055279545 14144711
0.42520964 0.075292155 0.055224959 14276041
0.42607948 0.083609357 0.055313922 13881026
0.49900001 -0.1113984 0.061306283 13617602
0.50100005 -0.11008562 0.065656982 14143688
0.48800004 -0.10037461 0.061668474 13617344
0.49649999 -0.10549357 0.064979278 13814723
0.50042856 -0.10912298 0.065918528 13814724
0.47900003 -0.090673998 0.060531147 13552321
0.48350984 -0.094621368 0.064699456 13551808
0.49000001 -0.099065334 0.067656703 13683137
0.46500003 -0.081492379 0.066381983 13815493
0.47628573 -0.086376086 0.063721269 13486271
0.48037502 -0.089107126 0.067874566 13486014
0.44744742 -0.072795823 0.065121338 13815494
0.45411116 -0.076869003 0.064234972 13881286
0.4605 -0.079625703 0.065199971 13749700
0.41900003 -0.060679242 0.060796048 14209481
0.42080003 -0.061728369 0.061648093 14143688
0.43900001 -0.06665875 0.060614884 13947079
0.44475865 -0.068467624 0.065471508 13946823
0.39781252 -0.051034674 0.067443006 14012102
0.40425003 -0.052745044 0.064673148 14209481
0.41584998 -0.056727331 0.061990231 14012102
0.39352074 -0.044211369 0.064957537 14012102
0.40000001 -0.049500015 0.060848404 14143688
0.38539302 -0.034556445 0.065079108 3488308
0.38382524 -0.02503385 0.065117955 2501926
0.3868126 -0.01518895 0.064962402 10328976
0.38867298 -0.0060799653 0.065195143 13552832
0.39010525 -0.0018440356 0.062803343 13618368
0.38900003 0.00012600447 0.066004999 13421246
0.39247492 0.0048234267 0.064889751 13027003
0.39700001 0.012686823 0.065594934 12895417
0.400931 0.01769126 0.064179078 13092796
0.40555224 0.025368966 0.064863831 13290175
0.4082801 0.033509828 0.067095451 13618882
0.41217738 0.03657119 0.063488945 13816004
0.41610527 0.043874204 0.065469451 13881797
0.42056528 0.04837973 0.063033879 14078920
0.4225336 0.054925904 0.065025337 14012870
0.42509961 0.065321542 0.065164015 13947077
0.42499959 0.075255103 0.065148912 13881284
0.42515364 0.08351323 0.065270729 14078918
0.4966667 -0.10320681 0.075314105 14143945
0.5 -0.10723224 0.072256356 14077895
0.4866471 -0.092760734 0.074769624 13486016
0.49151996 -0.097602643 0.07569176 13617602
0.47000003 -0.082368642 0.076998278 13486530
0.48446667 -0.0888367 0.076042175 13617859
0.44817644 -0.073053084 0.072250701 13552323
0.45350003 -0.074967012 0.076421961 14012873
0.46300003 -0.07843449 0.079103164 14143688
0.417 -0.060780548 0.077006519 14077895
0.42000002 -0.063282132 0.07962247 14933204
0.44590002 -0.068856142 0.071796447 13880774
0.3987143 -0.050808061 0.071720488 13880516
0.40305558 -0.053029139 0.074158505 13880516
0.41370001 -0.058269478 0.076876506 14077895
0.39403412 -0.044455756 0.074588381 13288379
0.37864289 -0.031724561 0.078619204 2304548
0.38363558 -0.03511351 0.074596077 4474687
0.37840682 -0.024771294 0.077861793 2172705
0.38082659 -0.024910221 0.073038056 2304804
0.37883332 -0.018796615 0.079208411 2698281
0.38505411 -0.015481932 0.074598223 8553079
0.39033332 -0.011143223 0.078415453 9737353
0.38884613 -0.0072957026 0.071896091 12237228
0.39256248 -0.0046224459 0.076000944 10132367
0.39535087 0.0037376236 0.073543504 10526869
0.40176669 0.0069372738 0.077579647 9013887
0.3974286 0.012226281 0.071423411 10921883
0.4043617 0.014920635 0.075917095 9803146
0.40754306 0.02450298 0.073557854 10921626
0.41018182 0.02518665 0.077848643 8684923
0.40773913 0.033959176 0.071446039 12434866
0.41000003 0.03948532 0.070048161 13618625
0.41407695 0.044215139 0.070891462 13552832
0.42000002 0.049297426 0.070773423 14013383
0.43366671 0.045576125 0.07823772 10263696
0.42439997 0.056310665 0.072115086 13421503
0.43514287 0.054513879 0.078081071 10987161
0.42668423 0.065541267 0.072375856 13881798
0.43343338 0.064632781 0.077845648 10329747
0.4256666 0.074847236 0.072482623 13157820
0.4250001 0.083293088 0.071615957 13749955
0.49534488 -0.10236838 0.084269136 13485757
0.48580003 -0.091963455 0.084761553 13551551
0.49188569 -0.097195454 0.085289374 13551294
0.46900001 -0.08109545 0.08012826 14143688
0.47443753 -0.084022135 0.08522208 13946566
0.48118183 -0.088424638 0.083025254 13814980
0.46620002 -0.078866772 0.081616335 14078665
0.47200003 -0.079404272 0.089480489 14078667
0.42066669 -0.062070433 0.081061773 13946309
0.4136667 -0.056793578 0.080679335 12104875
0.38875002 -0.040827259 0.083253048 11250852
0.39233339 -0.043299317 0.081622034 12170927
0.40100002 -0.047746271 0.082591735 12040113
0.37819999 -0.032637231 0.080994561 2370339
0.38405558 -0.037746768 0.08184728 7303530
0.37800014 -0.025097348 0.080951743 2041119
0.37825 -0.018029438 0.081004977 4278339
0.38000003 -0.016779061 0.080045663 9672594
0.39133334 -0.011170992 0.080906637 9211267
0.39400002 -0.0064319083 0.080859698 9079680
0.39833334 0.00075095816 0.080799423 9277317
0.40224999 0.0050819889 0.081200384 9474696
0.40700001 0.010612573 0.08096914 7830642
0.43484211 0.044912327 0.082357466 9474437
0.438889 0.053627275 0.081319623 8750714
0.44105878 0.055899449 0.083739311 9934989
0.43833339 0.065697767 0.081787854 9869451
0.44076923 0.062131669 0.083719932 10658452
0.43500003 0.070406556 0.080429442 9540231
0.49657148 -0.101641 0.091813035 13617858
0.48446161 -0.092409097 0.09332028 13551551
0.49240005 -0.097287096 0.092656024 13814723
0.47520387 -0.084441774 0.094310366 11972518
0.48060003 -0.089851782 0.092234544 13748930
0.47371429 -0.079375625 0.095509872 10065036
0.38341376 -0.033082899 0.10843334 2106140
0.38490924 -0.025106438 0.10856294 791564
0.37399998 -0.032881051 0.11694743 1777946
0.38174352 -0.032550298 0.11244401 2041117
0.37288043 -0.025282139 0.11705957 857357
0.38347176 -0.026294749 0.11263122 791820
0.37182343 -0.017561866 0.11621447 1579020
0.37066686 -0.032799568 0.12544744 1580565
0.36900023 -0.02548142 0.12796845 1317650
0.37064475 -0.02468564 0.12368368 1712664
0.37126032 -0.016744241 0.12518303 1317391
0.35457557 -0.032556567 0.13632984 1580564
0.36328572 -0.03085834 0.13240026 1909018
0.37089282 -0.033247732 0.13196042 2369055
0.35561019 -0.025341192 0.13635904 1383186
0.36560494 -0.024565469 0.13214388 1581080
0.35523078 -0.016655806 0.13740203 1580309
0.3650566 -0.016108761 0.13475373 988686
0.37115157 -0.016201638 0.13186575 1317650
0.34791929 -0.032557577 0.14732158 1515284
0.35124087 -0.033249073 0.14217132 1580821
0.34841195 -0.024826894 0.14601928 1646356
0.3511804 -0.024960732 0.14179736 1711893
0.34849167 -0.015982643 0.14642997 1580566
0.35129997 -0.01627872 0.14236498 1580310
0.34409884 -0.03246884 0.1547249 1712408
0.34300002 -0.029598756 0.15736647 1909788
0.33742866 -0.031788297 0.16689651 2106909
0.34070277 -0.031922609 0.16195709 1909787
0.33714291 -0.02504576 0.16657692 1975323
0.33999997 -0.025298916 0.16309239 1843994
0.33686632 -0.015664021 0.16630194 1646104
0.34 -0.0185946 0.1631536 1580823
0.33378676 -0.032467835 0.17417003 2567205
0.33362249 -0.024899982 0.17314374 2304031
0.33312926 -0.01610188 0.17340867 1777689
0.33039993 -0.031389691 0.18184228 1580823
0.32900003 -0.020881243 0.1827139 1383953
0.33022338 -0.025449624 0.18276207 1186321
0.32900003 -0.018378111 0.18233651 1186319
0.33093649 -0.013698126 0.18267265 988428
0.80699998 -0.22927541 0.34852067 2699049
0.81570005 -0.22792463 0.34768909 4736584
0.80644006 -0.22658415 0.35541457 2634024
0.81337517 -0.22299197 0.35483921 2369319
0.81700009 -0.21904738 0.35889578 1579546
0.83081251 -0.20273361 0.35540161 10329749
0.83080953 -0.19533764 0.35634926 10395542
0.80620575 -0.22527395 0.36516348 2107425
0.80850005 -0.21929282 0.36620229 2502183
0.81395251 -0.21722651 0.36517534 2369829
0.80651718 -0.22545899 0.37523481 1186067
0.8085556 -0.21846616 0.37432608 2304548
0.81444007 -0.21433721 0.37525651 2435623
0.80830771 -0.22608167 0.38380277 1054224
0.81040001 -0.2228426 0.38698494 1448469
0.80900002 -0.21942843 0.38063407 1449239
0.8142122 -0.21459271 0.38510418 1777692
0.80800009 -0.22513506 0.39589843 857359
0.81014287 -0.22353122 0.39173815 790539
0.80743742 -0.21605131 0.39808974 1119761
0.8125 -0.21415766 0.39355996 1316885
0.81666672 -0.2089728 0.39698103 1513494
0.80603021 -0.22531344 0.40513858 857616
0.80526936 -0.21450067 0.40505201 923153
0.81000006 -0.21021855 0.40006682 1185044
0.8071112 -0.2088383 0.40556732 1185041
0.81462502 -0.20700386 0.40437248 1447701
0.80668169 -0.22497964 0.41431016 791821
0.80619991 -0.21489362 0.41423425 988432
0.81000006 -0.21021855 0.41902906 1053458
0.80799997 -0.20894241 0.4130764 1185042
0.81531262 -0.20646156 0.41461381 2039835
0.80900002 -0.22558355 0.42040563 528648
0.81211758 -0.22496848 0.42560729 857357
0.80900002 -0.2165876 0.42040563 857101
0.81284213 -0.21435569 0.42550889 856845
0.81700003 -0.2082074 0.42408681 921614
0.81690478 -0.22512171 0.43517181 659723
0.8173126 -0.21594131 0.43393481 1053966
0.82014292 -0.21285059 0.43716747 987147
0.81880009 -0.2293704 0.44313365 725516
0.82040888 -0.22453041 0.44536665 857102
0.821913 -0.2147291 0.44502124 2632741
0.8226667 -0.2247359 0.4552736 988688
