# .PCD v0.7 - Point Cloud Data file format
VERSION 0.7
FIELDS x y z rgb
SIZE 4 4 4 4
TYPE F F F U
COUNT 1 1 1 1
WIDTH 686
HEIGHT 1
VIEWPOINT 0 0 0 1 0 0 0
POINTS 686
DATA ascii
0.80264002 0.19567619 -0.20484786 10526872
0.80062509 0.19448103 -0.19800699 10526870
0.42300001 -0.062578849 -0.060424384 16118509
0.42200002 -0.059137881 -0.060281537 14802649
0.42553335 -0.072253935 -0.051819541 16315116
0.41900003 -0.060679242 -0.050044131 16643822
0.42187664 -0.064685285 -0.054572035 16579569
0.4184117 -0.054200117 -0.052250799 16644333
0.42053711 -0.056109209 -0.056226835 16710640
0.41858062 -0.046392526 -0.052207433 16512747
0.42059264 -0.044042237 -0.055796687 16512491
0.41900009 -0.03547046 -0.050240301 16249832
0.42082858 -0.034724616 -0.054289326 16249833
0.42112508 -0.025000826 -0.053750735 15723490
0.42263773 -0.014957274 -0.053451721 15460318
0.42491406 -0.0053303116 -0.053736508 15197659
0.4272899 0.0045796912 -0.053994738 14671315
0.43000001 0.0086957049 -0.057901084 14802643
0.42851287 0.013567302 -0.051979017 14408142
0.4300245 0.015804645 -0.055510491 14605522
0.42900002 0.020727044 -0.050234206 14276043
0.43126819 0.025127292 -0.054346688 14802899
0.43375883 0.035047136 -0.054514609 15065815
0.43547225 0.045002446 -0.054564383 15000021
0.43838 0.054492794 -0.05386509 15065557
0.44000003 0.058067571 -0.057399601 15394523
0.43900007 0.062112927 -0.051199626 15131094
0.44015506 0.065451339 -0.055096932 15460315
0.44228956 0.074439719 -0.054941051 15591902
0.44411114 0.081007563 -0.053851765 14079179
0.44333336 -0.092342742 -0.041302569 16644338
0.43485367 -0.083916768 -0.043167505 16315371
0.44000003 -0.089471646 -0.041736808 16512752
0.42617387 -0.073669761 -0.044928215 15788514
0.43038887 -0.078953557 -0.044351812 16183271
0.41784608 -0.062144022 -0.043964345 16183269
0.42116013 -0.066812046 -0.045412902 15920098
0.41634697 -0.054856934 -0.045256551 16643819
0.41595885 -0.045149662 -0.045220431 16446697
0.41685146 -0.035080358 -0.045010336 16117733
0.41785902 -0.025096538 -0.04392942 15459805
0.42005563 -0.023027143 -0.048367485 15525341
0.41860604 -0.016344463 -0.041683134 14999767
0.42064178 -0.014486476 -0.046273705 15196889
0.41900003 -0.0096731428 -0.040235266 14671315
0.42180818 -0.0052455813 -0.044999875 14737108
0.42430997 0.0046122749 -0.045221377 14144971
0.4261888 0.014609026 -0.04492018 13881797
0.42830285 0.023888918 -0.04396718 14144456
0.43000001 0.027712407 -0.047243856 14407628
0.43099999 0.034954261 -0.044922754 14473421
0.43337464 0.045101035 -0.045042813 14539213
0.43532553 0.054892574 -0.045089573 14670800
0.43815932 0.064306237 -0.044338111 15065557
0.44000003 0.06778235 -0.048088767 15328473
0.4390001 0.071944661 -0.04105958 15131351
0.44093981 0.075364351 -0.045491267 15262937
0.44250003 0.080683716 -0.045481671 12894647
0.46800002 -0.11128754 -0.031637583 16578801
0.47000003 -0.11372658 -0.031379156 16710644
0.45605558 -0.10282701 -0.032696523 15986408
0.46344444 -0.10774142 -0.032328535 16381165
0.44505087 -0.094145291 -0.034808133 15460064
0.45000002 -0.098879293 -0.033730976 15854822
0.4361285 -0.084420152 -0.034992497 14933718
0.44000003 -0.089471646 -0.035041496 15065305
0.426 -0.073053934 -0.035341088 15064790
0.43074197 -0.0782222 -0.034529749 15065303
0.41690001 -0.061939754 -0.034837194 15590876
0.4213405 -0.067064933 -0.035106998 15261912
0.41294903 -0.05466871 -0.035357367 16314855
0.41191244 -0.044860043 -0.035123494 16315368
0.41296017 -0.03509666 -0.035354752 15854817
0.41471443 -0.025112342 -0.035069123 15065558
0.41657001 -0.014977929 -0.034642592 14802644
0.41799995 -0.00695313 -0.034062352 14539729
0.42043602 -0.0025886982 -0.036059014 14342094
0.42181033 0.0045855963 -0.03507543 13684419
0.42496967 0.014566192 -0.035338771 13486782
0.42656517 0.024607921 -0.034973074 13749698
0.42826045 0.034036212 -0.033545386 14144457
0.43000007 0.036751065 -0.037637834 14341835
0.43094999 0.045038376 -0.034830019 14341835
0.43323305 0.054910745 -0.035015203 14604750
0.43504176 0.064688884 -0.034969058 15065044
0.43772355 0.074694842 -0.034784567 15065814
0.44000003 0.079112865 -0.038818341 14868179
0.43900004 0.080645911 -0.033420298 13158589
0.44000003 0.080743775 -0.037359104 12960439
0.48800004 -0.13121986 -0.021156745 16578288
0.49150002 -0.1338875 -0.020733178 16775926
0.47678572 -0.12230688 -0.022585262 16183016
0.48290911 -0.12718453 -0.02252516 16446445
0.46687102 -0.11274377 -0.024669282 15328477
0.47140002 -0.11731294 -0.025092743 15854565
0.45653495 -0.10325379 -0.024598524 14078667
0.46195239 -0.10825378 -0.025206868 14933719
0.44613999 -0.093672283 -0.02531152 13683908
0.45186374 -0.098184466 -0.023096776 13289407
0.43740734 -0.08318463 -0.025824709 13684164
0.44119355 -0.087849781 -0.02447057 13223614
0.42640004 -0.071992598 -0.025457691 14209994
0.43232557 -0.076972172 -0.024919186 14078665
0.41686276 -0.062383197 -0.024856886 14867410
0.42164114 -0.067518607 -0.025252987 14472910
0.40852177 -0.051636335 -0.022681335 15920351
0.41185328 -0.055626176 -0.025703814 15722717
0.40794638 -0.04502036 -0.024864294 16183780
0.41 -0.045698468 -0.029612882 16380902
0.40808469 -0.035397418 -0.023639945 15723487
0.41056666 -0.03382574 -0.02859753 15723487
0.40869999 -0.027852494 -0.021546457 15131351
0.41173726 -0.024378464 -0.025667164 15000021
0.41411027 -0.014887519 -0.024745483 14671056
0.4166429 -0.0053135953 -0.024814755 14276555
0.42000002 -0.0008471816 -0.029024176 14144969
0.41850007 0.0012792774 -0.022499043 13816004
0.42112061 0.005353664 -0.0256528 13684418
0.42402014 0.014581927 -0.025378216 13421247
0.42581153 0.024599245 -0.025284685 13684162
0.42837331 0.033160005 -0.024909882 14013126
0.4300001 0.038086474 -0.024026193 14078663
0.43000022 0.04493466 -0.024682045 14276042
0.43155089 0.055113301 -0.024687005 14538957
0.43391269 0.065041862 -0.024995381 14999252
0.43501058 0.074904718 -0.024881693 14867923
0.43700001 0.080704175 -0.025349546 12105388
0.49764705 -0.1421081 -0.012700321 16249325
0.5 -0.14498115 -0.012898174 16644340
0.48712501 -0.13148454 -0.014348586 15525343
0.49297148 -0.13632061 -0.014893542 15986151
0.47680005 -0.12254065 -0.014843731 14341582
0.48237935 -0.12729755 -0.014432361 14801877
0.46734482 -0.11265258 -0.016277289 13618115
0.47205001 -0.1172385 -0.014134316 13552322
0.45831579 -0.10240206 -0.017355809 13025979
0.46314004 -0.10610814 -0.014327155 12960186
0.44858336 -0.091567397 -0.018309265 12565687
0.4544577 -0.095431246 -0.014655927 12828600
0.46000001 -0.099461317 -0.011327887 12828600
0.4387778 -0.081234001 -0.017709583 13881543
0.44491383 -0.085395254 -0.015204052 13354944
0.45085716 -0.088966146 -0.011629465 12960186
0.42657584 -0.071947314 -0.014966021 14604752
0.43293339 -0.076657638 -0.016034374 14538959
0.41690198 -0.06238883 -0.015232004 14801617
0.42187181 -0.067556038 -0.015213034 14801618
0.40773809 -0.05200557 -0.014632829 15525337
0.41212499 -0.056873988 -0.015132611 15064788
0.40475211 -0.044839397 -0.015139053 15855072
0.40531567 -0.035088349 -0.014914543 15526364
0.40793517 -0.025493186 -0.014543168 14737106
0.41058335 -0.02109243 -0.018041646 14605520
0.40894732 -0.018661721 -0.012262727 14276555
0.4115631 -0.014293385 -0.015393319 14276555
0.41434011 -0.0051924693 -0.015057429 14078920
0.41749364 0.0035918222 -0.014779298 13552575
0.42045176 0.0087413974 -0.016276827 13486783
0.42274213 0.015149103 -0.015250452 13486782
0.42527351 0.024589026 -0.01546836 13684161
0.42763212 0.034480315 -0.014474019 14013126
0.43000004 0.038643181 -0.018138895 14078920
0.42899996 0.040868774 -0.011512989 14078663
0.43009907 0.04533872 -0.014923472 14210249
0.43183967 0.0552397 -0.014680301 14407628
0.43266284 0.065075584 -0.014620944 14933458
0.43394876 0.074904203 -0.01483645 14933459
0.435 0.080589995 -0.014790529 13552578
0.49707696 -0.14283845 -0.0063799289 14802135
0.48759997 -0.13156958 -0.0052697975 13552323
0.4923023 -0.13648146 -0.0042302893 13815495
0.47766671 -0.1212359 -0.0073505142 12763063
0.48282465 -0.1255141 -0.0039055899 13223614
0.47502866 -0.11469402 -0.0051109553 12697270
0.48033336 -0.11866357 -0.00039625063 12894906
0.46684092 -0.10340302 -0.0059022475 12828600
0.47141939 -0.10761093 -0.0035061545 12763320
0.45748574 -0.092877589 -0.0063513042 13157565
0.46241468 -0.09699031 -0.0037396713 13025979
0.44565797 -0.08280468 -0.0052667125 13947081
0.45303854 -0.088046513 -0.0042986665 13552323
0.42700005 -0.071466655 -0.006538522 14670802
0.43450001 -0.075672552 -0.0042807171 14276045
0.44000003 -0.079171173 -0.0025949865 14012874
0.41658825 -0.062369011 -0.005064874 14867923
0.42304659 -0.067421257 -0.0041181147 14407631
0.4072502 -0.052711152 -0.0046514454 15065044
0.41234788 -0.058165897 -0.0050333324 14933459
0.40370893 -0.044765376 -0.0047461479 15526107
0.40257987 -0.034815546 -0.0048083882 15394778
0.4050999 -0.025054513 -0.0046906015 14671313
0.40780255 -0.016208412 -0.0040719481 14342348
0.41056669 -0.011976159 -0.0070357393 14144969
0.40900001 -0.0091231214 -0.00033762571 14079176
0.41278487 -0.0050611855 -0.0049812901 13947590
0.4168916 0.0049817055 -0.0048607322 13552832
0.42000002 0.0099683218 -0.0098512396 13486526
0.4188751 0.01178049 -0.0021031504 13552832
0.42086178 0.016018089 -0.0054300423 13486782
0.42333987 0.025030542 -0.0050685494 13684162
0.42719781 0.034701597 -0.0047601974 13947077
0.42900026 0.043006577 -0.003596076 14013127
0.43000013 0.047357619 -0.0058017294 14078663
0.43019018 0.055026308 -0.0045528505 14276299
0.43075988 0.065182507 -0.0045619393 14736594
0.43111098 0.074826322 -0.0045654383 14868180
0.43249997 0.080506653 -0.0036914148 13420991
0.48850003 -0.13021073 0.0016939098 13354942
0.49298036 -0.13482665 0.0050952071 13618114
0.48588005 -0.12414715 0.0047154864 13157563
0.49079999 -0.12852702 0.0080213426 13420735
0.47746667 -0.11221873 0.0032589883 12960697
0.48211905 -0.11623229 0.0056801154 12960440
0.46883336 -0.10118846 0.002357306 13026492
0.4731133 -0.10565869 0.0051461468 12960441
0.45900002 -0.090648867 0.0032028572 13421250
0.46519309 -0.095463768 0.0053517148 13223614
0.47000003 -0.099239588 0.0087810066 13025979
0.44687501 -0.081979029 0.0057349233 13881288
0.45486206 -0.086662613 0.0046426896 13815495
0.42900002 -0.070915028 0.0039978167 13881286
0.4345834 -0.074505962 0.0056878449 13881287
0.44145459 -0.078870825 0.003739743 13815495
0.41670966 -0.061672874 0.00473247 14276044
0.42348725 -0.066902436 0.0046589533 14012872
0.43000001 -0.069318719 0.009040324 13947079
0.40705895 -0.052433688 0.0049888748 14933460
0.41164106 -0.057343323 0.0054659983 14604496
0.39899999 -0.040619396 0.0082718218 15460058
0.4018555 -0.045003664 0.0050385324 15328471
0.39884621 -0.035315529 0.008528688 15263193
0.40021601 -0.034851275 0.0039311941 15329241
0.39900002 -0.029293843 0.009322647 14934739
0.40139845 -0.025160255 0.0050643766 14737106
0.40420002 -0.014998795 0.0051786369 14408141
0.40800023 -0.0063684774 0.0063468432 14276556
0.41113511 -0.0030124579 0.003360854 14210762
0.40900001 0.00013248283 0.0095562972 14408141
0.41391659 0.004989434 0.0052851667 14013383
0.41758668 0.014254882 0.0059728702 13947590
0.4202401 0.018514052 0.0035226119 13816004
0.41900003 0.021061301 0.0094629852 14276555
0.42229179 0.025436684 0.0053018969 14013383
0.42664367 0.035215713 0.0055319094 14079176
0.42887548 0.044612873 0.0051595522 14013126
0.42999998 0.049464535 0.0019938604 14342348
0.42899993 0.053108443 0.006809847 14078663
0.43000016 0.05612665 0.0038607141 14276298
0.42899996 0.068029419 0.0083162924 14736593
0.43000022 0.064677365 0.0045985375 14670800
0.42899996 0.071318492 0.0080150031 14802386
0.43023089 0.07551115 0.0048346459 14736850
0.43164292 0.081051074 0.0041624042 13486783
0.49415633 -0.13218923 0.014332737 13683907
0.48842862 -0.12153459 0.01141315 13025977
0.49199995 -0.12527736 0.015511499 13289405
0.48585007 -0.11466747 0.014371692 13026234
0.49033335 -0.11845586 0.018726684 13091770
0.47690627 -0.10336445 0.013797348 13157821
0.48158619 -0.10737665 0.015998974 13092027
0.46660003 -0.092732295 0.014803395 13552579
0.47234485 -0.097462781 0.016034506 13289664
0.45820829 -0.084371887 0.015081803 13684165
0.46145457 -0.087698512 0.015841689 13684165
0.43408507 -0.073010184 0.014447689 13815749
0.44533336 -0.078396119 0.019091183 13816006
0.417 -0.0610121 0.014758316 13815237
0.42395833 -0.065459453 0.015319404 13815493
0.43010002 -0.069334842 0.014581275 13881543
0.4071351 -0.052575957 0.014587482 14473423
0.41272733 -0.057140049 0.015225383 13881030
0.39806527 -0.042576883 0.015801096 15262680
0.40154678 -0.047274295 0.014362375 14999508
0.39673546 -0.035166156 0.014837917 15197400
0.39740351 -0.02533629 0.015288542 14737106
0.40000007 -0.021954035 0.011062757 14539982
0.39875004 -0.018540066 0.018339867 14539727
0.40122038 -0.014478183 0.014625806 14473934
0.40490904 -0.00507465 0.015138811 14276555
0.40801474 0.0029867124 0.01599418 13947590
0.41110867 0.0075414698 0.013640464 14013383
0.4142001 0.015171762 0.015002952 13881798
0.41728005 0.024274249 0.01605 13881797
0.42079175 0.027514709 0.01245775 14276556
0.41900003 0.030543206 0.01910837 13618625
0.42311108 0.035373665 0.015512722 14144969
0.4272427 0.044958226 0.014879399 14144456
0.42898136 0.053326569 0.015574811 14078663
0.43000016 0.056746595 0.013409562 14210249
0.42897964 0.065090798 0.014667615 14539214
0.43000001 0.060789205 0.011556919 14473421
0.4289833 0.073058188 0.015163482 14736593
0.43000013 0.077871345 0.013680679 14670800
0.42999995 0.08108481 0.015198578 14012872
0.49654543 -0.13140394 0.023333065 13289151
0.49516401 -0.12497824 0.024840446 13354942
0.48777777 -0.11193956 0.022754133 13091770
0.49195746 -0.11616358 0.025685357 13091770
0.47860003 -0.10090625 0.021490941 13158077
0.48371676 -0.10527826 0.025292208 13223357
0.46833336 -0.091213547 0.022090549 13750215
0.47415701 -0.095209099 0.025291556 13487043
0.48000002 -0.099290967 0.028070543 13683908
0.45611116 -0.081715316 0.026088517 13552579
0.46423075 -0.086909644 0.024896234 13815751
0.43686369 -0.072612971 0.022902139 13420992
0.4445715 -0.075913496 0.027183728 13223871
0.45100006 -0.079038851 0.028487774 13420994
0.41825002 -0.060815848 0.022257658 13617858
0.42385367 -0.063858606 0.025563449 13749700
0.43157148 -0.068707041 0.024232458 13552065
0.4076001 -0.052274562 0.024368919 13881030
0.4143922 -0.056862678 0.024859564 13683650
0.42000002 -0.059840832 0.029477863 14078665
0.39739397 -0.043134451 0.025097877 15065558
0.40168291 -0.048267361 0.025027389 14538701
0.39491749 -0.035007104 0.024938103 15065558
0.39475214 -0.024820365 0.024926148 14671313
0.3968499 -0.015381143 0.025710989 14408141
0.40004766 -0.011732802 0.022146026 14210762
0.39862502 -0.0086192619 0.028793497 13947590
0.40203407 -0.0048339567 0.024663175 13816004
0.40659651 0.0049438938 0.025010804 13223867
0.41000003 0.0097309807 0.020617561 13421246
0.40899995 0.011012896 0.027313132 12763316
0.41168669 0.015519751 0.024765132 12960695
0.41513595 0.02482691 0.024915505 13092281
0.41824323 0.031971425 0.025754079 13421246
0.42084134 0.036840878 0.024624899 13684418
0.42415479 0.044769719 0.025236499 13881540
0.42725891 0.054652661 0.024887951 14144456
0.42817035 0.064791456 0.02453672 14473421
0.42792463 0.074716248 0.024833256 14605262
0.42899996 0.081235923 0.02584127 14342346
0.43000001 0.082866609 0.024048377 12960695
0.49803582 -0.12305047 0.033290539 12894391
0.4957777 -0.11570738 0.035261333 12894391
0.48643595 -0.10353169 0.034115423 13289149
0.49116665 -0.10792557 0.036456212 13091771
0.47520837 -0.093116499 0.035619181 13618372
0.48203999 -0.09811268 0.035282284 13486529
0.45885715 -0.081643529 0.036041997 13683909
0.46531588 -0.086113274 0.035406839 13552578
0.43900001 -0.070769578 0.031839091 13552323
0.44481251 -0.073762737 0.034669265 13486530
0.45320004 -0.078472301 0.035946 13618372
0.42397064 -0.06263005 0.034979418 13947079
0.43384209 -0.067698099 0.0348325 13749957
0.44000003 -0.069900736 0.038091909 13618114
0.40665621 -0.051248349 0.03505579 14078408
0.41427085 -0.056267228 0.03527521 14078664
0.42075002 -0.059947692 0.033961173 14078665
0.39627692 -0.042978752 0.035161484 14736336
0.40208331 -0.047956806 0.035984654 14407372
0.39299214 -0.034835365 0.034939613 14868179
0.39253756 -0.024684148 0.034898683 14473934
0.39410019 -0.014665314 0.034995865 14276555
0.39700004 -0.0060987524 0.036234964 13947590
0.4009729 -0.002582598 0.032883324 13881797
0.39900002 0.00012924365 0.039212763 13947590
0.40441665 0.0049154148 0.034962166 13552832
0.40812263 0.012496261 0.03591381 13421246
0.41112971 0.017103208 0.034432072 13158074
0.41441506 0.024938378 0.034996241 13223867
0.41815001 0.032000624 0.034487609 13355453
0.42063338 0.037031587 0.035102759 13487038
0.42318279 0.045132935 0.034931205 13750210
0.42641741 0.05509102 0.035356749 14078919
0.42829028 0.064807348 0.034572169 14407627
0.42728117 0.074760251 0.035231899 14539214
0.42824447 0.082079455 0.035132397 14276042
0.43000001 0.084193535 0.031689674 12960437
0.49800003 -0.1210847 0.040781457 11841703
0.49746656 -0.11402135 0.044233389 13091770
0.4876 -0.10120628 0.045180075 13420736
0.49266666 -0.10636324 0.044831298 13420992
0.47590914 -0.09221869 0.044344634 13618115
0.48296669 -0.097158663 0.044827178 13486530
0.45875004 -0.080799997 0.04333904 13486785
0.46432 -0.084424675 0.043891665 13486786
0.47209996 -0.088815592 0.04673326 13618116
0.44661769 -0.072524868 0.045248095 13420480
0.4530476 -0.077280626 0.044722527 13486530
0.42318183 -0.061917353 0.043126918 13881030
0.43520004 -0.065474018 0.045828249 13288637
0.44289479 -0.068778455 0.045277964 13288894
0.40674195 -0.051749967 0.045038078 14209994
0.41354167 -0.056388225 0.044408981 14144202
0.39565668 -0.043025769 0.045241106 14604750
0.40167648 -0.048050664 0.045086946 14407372
0.39174345 -0.034726467 0.044916455 12302767
0.38899997 -0.023209555 0.048474871 3026987
0.39055082 -0.025090653 0.044013437 12434353
0.38900003 -0.019908428 0.049157862 5132102
0.39123252 -0.015242242 0.044927098 14144456
0.39374593 -0.0053558135 0.045096885 14013383
0.39757696 0.0024774091 0.045638032 13618625
0.40109673 0.0070087025 0.044003177 13487039
0.40517583 0.014649198 0.045120351 13421246
0.41033337 0.019024931 0.040646516 13223867
0.40786207 0.022095384 0.047621619 13421246
0.41254431 0.02558103 0.044084433 13618625
0.41659546 0.034109663 0.045603577 13816004
0.42047623 0.037870068 0.041978873 13684418
0.41866669 0.040319968 0.048985627 14079176
0.42270422 0.045261938 0.044921651 13881540
0.42548424 0.055283636 0.045408145 14078663
0.42679429 0.065081656 0.044936541 14341834
0.42662212 0.074736759 0.045287561 14473420
0.4278616 0.082952477 0.045191474 13815748
0.49842855 -0.11206336 0.054028086 13815493
0.48758337 -0.10076511 0.053150501 13420735
0.49446154 -0.1061664 0.05471037 13617857
0.47800002 -0.091106892 0.051952142 13354942
0.48310423 -0.0954419 0.055161249 13420735
0.46400002 -0.081317127 0.051031969 13486528
0.47495654 -0.087110549 0.053113155 13486529
0.48000002 -0.089739606 0.058410134 13552321
0.44700003 -0.073135741 0.055964153 13683907
0.44420692 -0.068239182 0.055738319 13683650
0.39900002 -0.050310332 0.053690791 14143687
0.40176922 -0.051673882 0.052073117 14341067
0.41466668 -0.058114111 0.050459873 14538446
0.39429992 -0.044182602 0.054857988 14275015
0.40000001 -0.049031809 0.050547928 14209481
0.38775948 -0.034108091 0.056326203 2764584
0.39046347 -0.036037393 0.05203918 3948087
0.38745746 -0.025171913 0.054957181 2764072
0.39000002 -0.029089577 0.050197229 2961708
0.38872048 -0.016115336 0.056048486 11052700
0.39011773 -0.013679582 0.051716201 13947334
0.38899997 -0.0077663492 0.057444837 13816005
0.39125276 -0.0045592901 0.053998303 13816005
0.39555636 0.0045975861 0.055063218 13158332
0.40000001 0.0091815041 0.050860062 13223867
0.39864293 0.010994963 0.057574224 12632500
0.40199047 0.015657984 0.05475051 12894902
0.40661713 0.02460636 0.055320587 13092537
0.4106667 0.028733633 0.052614179 13486526
0.41403124 0.034926198 0.055011395 13618368
0.41783333 0.042279813 0.056018423 13815747
0.42083055 0.0468417 0.05402999 13881540
0.42414981 0.05525215 0.055087045 14012869
0.4252595 0.065346226 0.05523314 14209992
0.42523968 0.075297326 0.055228636 14276042
0.42579979 0.083406501 0.05516601 13946820
0.49900001 -0.11081432 0.060722202 13420735
0.5 -0.11103639 0.062014397 13683907
0.49667397 -0.1043417 0.064811155 13683650
0.5 -0.10880179 0.06605798 13749700
0.48572221 -0.094384208 0.064728163 13420735
0.49091673 -0.098484851 0.065678112 13552321
0.45900002 -0.080440864 0.064988174 13881286
0.46700001 -0.082936138 0.065574236 13881286
0.47590008 -0.086415753 0.066151127 13420735
0.48062503 -0.089435071 0.06664288 13420735
0.44833338 -0.072725587 0.065055706 13749444
0.45184612 -0.076668732 0.064825803 13749701
0.44572726 -0.06829752 0.063781671 13881286
0.39900002 -0.050310332 0.067234755 14012100
0.40324003 -0.052209772 0.065862909 14077895
0.41223082 -0.055766191 0.063301608 14143688
0.39370203 -0.044215836 0.06483946 14012102
0.38504198 -0.03460262 0.065085277 3554101
0.38374972 -0.025027504 0.065104753 2567206
0.38692924 -0.015193827 0.065024473 10197391
0.38859105 -0.0059916107 0.06501621 13618626
0.39013335 -0.0013347358 0.062999941 13487042
0.39257506 0.0047247265 0.064853452 13026747
0.39684376 0.012688911 0.065487824 12829882
0.4011071 0.017789818 0.064169556 13027260
0.40539995 0.02535817 0.064837992 13290175
0.40801543 0.034086328 0.066666894 13618882
0.41189584 0.036839608 0.062653825 13750467
0.40900001 0.040346488 0.069877304 14013383
0.41592965 0.043987565 0.06514369 13882053
0.42050007 0.048730005 0.064009771 14078919
0.42250934 0.054965835 0.065163814 14013125
0.42517975 0.065334804 0.065173723 13947076
0.42500958 0.075256772 0.065150522 13881283
0.42504522 0.083540313 0.065260962 14144198
0.49662793 -0.10334485 0.075028814 14143945
0.5 -0.10752486 0.070793211 13683137
0.48692122 -0.093016386 0.075063087 13486015
0.49160871 -0.0978662 0.075283773 13617601
0.48494449 -0.088395283 0.076857001 13552065
0.44853336 -0.072727636 0.071871787 13683137
0.45300004 -0.074795492 0.075629547 14012615
0.46550003 -0.078858569 0.079530284 14012872
0.41715625 -0.062093679 0.07631027 14209739
0.44700003 -0.068397097 0.071136616 13880516
0.4040435 -0.052435968 0.073559135 13946052
0.41335484 -0.057805236 0.074962474 14143431
0.39405951 -0.044571608 0.074652396 13419450
0.40000001 -0.048563607 0.077703737 11642525
0.37847379 -0.032100409 0.078277513 2435619
0.38350996 -0.03524413 0.074267328 4737602
0.37836367 -0.02519385 0.078056991 2172705
0.38091242 -0.024687374 0.073246524 2304804
0.3788 -0.019031508 0.079083085 2500898
0.38538536 -0.015559817 0.074642673 8487028
0.39012504 -0.011175481 0.077954963 10132110
0.3888846 -0.0070865303 0.071658008 12369071
0.3921358 -0.0049003595 0.075920552 10132368
0.39498183 0.0038340716 0.073186576 10724248
0.40165526 0.0066830167 0.077605657 9079681
0.39743754 0.012517259 0.071391888 10922142
0.4034 0.015085208 0.075275175 9869452
0.40717921 0.024431562 0.073427379 10921626
0.41025004 0.025464168 0.077534132 8816506
0.40678266 0.033631627 0.071319573 12368816
0.40900001 0.040346488 0.070834786 13618625
0.41250002 0.043117438 0.070792876 13487039
0.42150006 0.048651401 0.072181083 13355966
0.43252 0.04562458 0.078190319 10395538
0.42260003 0.054984514 0.072045967 13290429
0.43576926 0.053975932 0.078611881 10723990
0.42586839 0.06544324 0.072184727 13947846
0.43393335 0.065616339 0.077191398 10658711
0.42562509 0.075011387 0.072395362 13092026
0.4250001 0.083264276 0.071715444 13552833
0.49606672 -0.10265587 0.084174424 13354172
0.48616004 -0.092397206 0.084196836 13617344
0.49220687 -0.09742777 0.085287459 13485758
0.47513518 -0.08384566 0.085262112 13946823
0.48153844 -0.088120386 0.08244098 13814980
0.45900002 -0.075068228 0.08164335 14407632
0.46599999 -0.078397818 0.081251495 14012873
0.47150004 -0.078768849 0.089385703 14209998
0.41816673 -0.061212096 0.0809066 12959927
0.42080003 -0.06310676 0.081942379 11841446
0.40850002 -0.051986933 0.080311239 10196364
0.41345006 -0.055530448 0.081475094 11710118
0.38880002 -0.040832512 0.082808599 11250854
0.39228576 -0.043234266 0.081386507 12433586
0.40500003 -0.049170654 0.083415598 10526358
0.37780002 -0.032603417 0.080908664 2304291
0.3847059 -0.038080662 0.081616282 8225148
0.37750009 -0.025061026 0.080844462 1975327
0.37828571 -0.01822068 0.081076123 3554613
0.38442856 -0.014768365 0.080710985 8356216
0.39100003 -0.011314684 0.081447825 9474696
0.39400002 -0.0059924852 0.080822788 9145475
0.39800003 0.00075085019 0.080731541 9342854
0.4021818 0.0045015928 0.08103618 9277319
0.43383998 0.045078333 0.081800118 9014141
0.4387778 0.051844556 0.081812806 8619386
0.44174194 0.055589572 0.083144188 9474437
0.43900001 0.068484709 0.080141313 9211524
0.44281584 0.064714752 0.082477473 10000523
0.44100001 0.070688643 0.081884503 9474439
0.49828577 -0.10199092 0.092130341 13551552
0.48533338 -0.092506267 0.094020933 13551551
0.49458817 -0.098056093 0.093487844 13749187
0.47580865 -0.084411688 0.094184324 12104104
0.48075002 -0.089598909 0.094795667 12235690
0.4736 -0.07923051 0.093783677 11314847
0.38407403 -0.033041567 0.10834353 2369055
0.38481411 -0.025206089 0.10850488 791564
0.3735666 -0.032949697 0.11716796 2041631
0.38250002 -0.032849293 0.11280348 2304032
0.37234449 -0.025231086 0.11712619 792076
0.38405284 -0.025930593 0.11272467 791820
0.37106907 -0.017538024 0.11616148 1775887
0.36900002 -0.030546639 0.12761506 1382928
0.37040287 -0.032943193 0.12520586 1646614
0.36900017 -0.026338525 0.1282012 1580309
0.37061867 -0.024530994 0.12412271 1646872
0.37169793 -0.016334737 0.12548737 1514000
0.35476568 -0.032596968 0.13654153 1515284
0.36500001 -0.030466234 0.13206562 1778199
0.37092 -0.033398736 0.13193528 2435360
0.35549611 -0.025331525 0.13634509 1252369
0.36503851 -0.024750089 0.13209537 1580822
0.37 -0.023050375 0.1309925 2698533
0.35524997 -0.016944695 0.13716216 1448980
0.36496434 -0.015906217 0.13502581 922894
0.37175521 -0.016286537 0.13240573 1317394
0.34819284 -0.032677621 0.14724681 1580564
0.35146943 -0.032764748 0.14237386 1646613
0.34843069 -0.024765853 0.14639707 1580821
0.35114262 -0.024958231 0.14219202 1646613
0.34848219 -0.016057696 0.14647734 1645845
0.35123214 -0.016712466 0.14228727 1646100
0.34386808 -0.032735184 0.15483688 1712408
0.34400004 -0.02968505 0.15559135 1843994
0.33739537 -0.03186962 0.16705914 2106652
0.34048569 -0.031886537 0.1621546 1909788
0.33717164 -0.025047904 0.16659141 1975067
0.3405 -0.02938302 0.1621961 1909788
0.33668309 -0.015605193 0.16638345 1646103
0.81270832 0.2041509 0.31491822 10001296
0.81171435 0.2148542 0.31676227 10001039
0.81538475 0.20472772 0.32439333 9935246
0.81500006 0.21522498 0.32486913 9935246
0.81674069 0.19550064 0.33498788 9935246
0.81593335 0.20464626 0.33518693 10001039
0.81618524 0.21405323 0.33476049 9935246
0.81650001 -0.22795784 0.3480311 4670531
0.81744462 0.19439119 0.34484661 9869453
0.81647831 0.20453407 0.34559429 9935246
0.80774999 -0.22724245 0.35628918 2633768
0.81417865 -0.22361705 0.3544738 3355953
0.81766671 -0.21922588 0.35855088 1645848
0.80709994 -0.22608964 0.36519113 2173475
0.81100005 -0.22110865 0.36220878 2502440
0.8149001 -0.21816078 0.36546892 2501158
0.81855011 0.16573194 0.3664425 9803660
0.81840008 0.17327031 0.36819607 9803660
0.80716121 -0.22557072 0.37489194 1317654
0.80900002 -0.21942843 0.37874016 1646618
0.81419361 -0.21627757 0.37501717 2435368
0.81765395 0.16473249 0.37491542 9737867
0.81819242 0.17471625 0.37516201 9803660
0.81900018 0.18136242 0.37522972 9737867
0.80778563 -0.2245684 0.38512784 923151
0.80883336 -0.21938324 0.38528839 1251860
0.81340629 -0.21412688 0.38496289 1711900
0.82000005 -0.21089421 0.38101047 3092785
0.81900007 -0.20871973 0.38917366 3619385
0.81900007 0.16706985 0.38150451 9803660
0.81999987 0.16509245 0.38633311 9737868
0.81900007 0.17425969 0.38150451 9803660
0.81999987 0.17504379 0.38654086 9737867
0.81900007 0.18049091 0.38150451 9803660
0.80561763 -0.22511061 0.39506894 857615
0.80653572 -0.21572383 0.39592287 988945
0.8123126 -0.21200313 0.39312136 1317142
0.81666678 -0.2087601 0.39618531 1710874
0.82090467 -0.20426182 0.39465356 6250329
0.82015991 0.16538592 0.39548543 9606283
0.81999987 0.17495237 0.39540771 9737869
0.82003993 0.18455976 0.39542684 9737869
0.81833345 0.19854265 0.39779568 9737612
0.82027566 0.19454518 0.39428139 9737869
0.81755018 0.2050525 0.39671165 9803405
0.82000011 0.20523995 0.39242163 9803405
0.81875008 0.21206181 0.39576274 9672076
0.80328012 -0.22539884 0.40426919 857615
0.80400002 -0.21524595 0.40463203 922896
0.81000006 -0.21021855 0.40006682 1120534
0.80720007 -0.20949188 0.40435195 1185043
0.81450009 -0.20756704 0.40514052 1250323
0.82152385 -0.20258313 0.40502486 6908516
0.82063979 0.17508818 0.4053233 9672076
0.82003993 0.18455939 0.40502593 9737869
0.81845838 0.19537844 0.40448424 9737869
0.82000005 0.19107732 0.40462199 9737869
0.8177619 0.20528923 0.40463108 9672076
0.81900007 0.21116762 0.40355337 9737869
0.80561554 -0.22540006 0.41458848 791566
0.8062222 -0.21573678 0.41372219 922897
0.8106001 -0.21189173 0.41782156 988690
0.80800003 -0.20969948 0.41137403 1054224
0.81550008 -0.20782368 0.41519108 922126
0.82157153 -0.20250307 0.4151234 7369321
0.82071984 0.1847114 0.41496894 9606283
0.81900007 0.1987052 0.4102639 9803662
0.82018507 0.19469026 0.41484085 9672076
0.81900007 0.20253977 0.4102639 9606283
0.82037491 0.2057606 0.4152751 9606283
0.82091993 0.21550724 0.41507044 9671819
0.80900002 -0.22605702 0.42135257 659723
0.81147373 -0.22509585 0.42589211 857102
0.81382608 -0.21509673 0.42498645 857103
0.82000005 -0.21089421 0.42996114 1185046
0.8173334 -0.20893174 0.42218518 725004
0.82199997 -0.20442748 0.42499647 6185049
0.82215005 0.18503384 0.42435366 9606283
0.82216674 0.19482227 0.42516491 9606283
0.8221153 0.20449437 0.42515087 9606283
0.80770004 -0.22701541 0.43806934 791309
0.81206447 -0.22424254 0.43432081 659723
0.81591678 -0.21604656 0.43482029 988431
0.82016677 -0.21157695 0.43612897 855819
0.80599999 -0.22537133 0.44499671 857101
0.81200004 -0.22024214 0.44097364 922895
0.814762 -0.21753068 0.44473684 922381
0.82066673 -0.21250577 0.44536018 4737857
0.80506253 -0.22577783 0.45357832 1053195
0.81128579 -0.22113195 0.45442221 2303259
0.81650001 -0.21891333 0.45361421 2632482
0.82259083 -0.21435399 0.45547774 7501162
0.81900007 -0.22022352 0.4620308 8487800
0.82000005 -0.22049239 0.46451458 8093042
0.82510525 -0.21545064 0.46415138 8158835
