# .PCD v0.7 - Point Cloud Data file format
VERSION 0.7
FIELDS x y z rgb
SIZE 4 4 4 4
TYPE F F F U
COUNT 1 1 1 1
WIDTH 1052
HEIGHT 1
VIEWPOINT 0 0 0 1 0 0 0
POINTS 1052
DATA ascii
0.80283338 0.20230198 -0.24624111 5130045
0.81200004 0.20556094 -0.2433527 5130045
0.80600005 0.20215516 -0.23117681 5130045
0.81299996 0.20676863 -0.23318572 5524803
0.81666666 0.21120274 -0.23200758 5327937
0.8008334 0.19773559 -0.22344458 6512218
0.8055625 0.20428725 -0.22386271 5130816
0.81033343 0.20830095 -0.22767718 5262401
0.81133336 0.21109021 -0.22606115 5131328
0.80100006 0.19832334 -0.21638338 5986129
0.80281824 0.20255423 -0.21463394 5196610
0.78900003 0.028885052 -0.13117711 16250347
0.78866673 0.035744514 -0.13194261 16052968
0.78852934 0.044884037 -0.13338012 15855589
0.78859246 0.055023734 -0.1343926 15724259
0.78895223 0.064459309 -0.13424762 15855588
0.78900003 0.073111951 -0.13220325 15789794
0.78900003 0.018110514 -0.12286533 16250348
0.78823334 0.025164383 -0.12489939 15987176
0.78552002 0.035190295 -0.12508592 15789796
0.78413337 0.045229714 -0.12486506 15789796
0.78692007 0.05552353 -0.12530604 15855589
0.78851843 0.065069623 -0.12514913 15789796
0.78899974 0.074929699 -0.12458042 15789796
0.78899992 0.0849896 -0.12217268 15855589
0.78899992 0.094702072 -0.12169553 16052968
0.78900009 0.10587399 -0.12127013 16250090
0.78899992 0.11477349 -0.12194179 16381418
0.78899992 0.12548645 -0.12341944 16381673
0.78895813 0.13546887 -0.12509073 16513259
0.78900009 0.14180778 -0.12378886 14276553
0.78900003 -0.091174051 -0.11085942 16316658
0.78866673 -0.084263869 -0.1116335 15724265
0.78846157 -0.07499662 -0.1123463 16579829
0.78847623 -0.064875737 -0.11316007 16316915
0.79014289 -0.06527818 -0.11789054 13815495
0.78899992 -0.055156317 -0.11270647 16711673
0.79000002 -0.055226229 -0.11747284 15724263
0.78899986 -0.044997476 -0.11270646 16711673
0.79041672 -0.045077782 -0.11753529 16645880
0.78886658 -0.034833055 -0.11268774 16711673
0.79049999 -0.03490486 -0.11754777 16711672
0.78874987 -0.02467167 -0.11304075 16711414
0.7902 -0.024717314 -0.11768775 16711671
0.78900003 -0.016737409 -0.11159824 16710898
0.78900003 0.018726204 -0.11824767 16250349
0.78864276 0.026167765 -0.11581911 15987176
0.79000002 0.021832278 -0.11223286 16118506
0.78743339 0.035277709 -0.11524265 15724004
0.78614724 0.045073029 -0.11526912 15789796
0.78765631 0.055228531 -0.11504705 15855589
0.78873903 0.064159378 -0.11587948 15855589
0.79000002 0.067204319 -0.11173968 15855589
0.78900003 0.075061627 -0.11732412 15789796
0.79000002 0.075156778 -0.11284932 15855589
0.78900003 0.085220471 -0.11732413 15855589
0.79000002 0.085328482 -0.11284934 15921382
0.78900003 0.095533244 -0.11717021 16118761
0.79000002 0.094806693 -0.11308051 16118761
0.7889998 0.10585939 -0.11479444 16381419
0.79000002 0.10104842 -0.11192462 16381933
0.78851992 0.11470244 -0.11448403 16447211
0.78775007 0.1247336 -0.1152951 16513004
0.78772426 0.13474633 -0.11513253 16579308
0.78890002 0.14153808 -0.11453949 16579566
0.79046667 0.14644638 -0.11476602 11513507
0.78900003 -0.12472904 -0.10193195 16711417
0.78866673 -0.11513799 -0.1025047 16711673
0.79118764 -0.11492619 -0.10734885 14935004
0.78859991 -0.1049741 -0.1034195 16711673
0.79069996 -0.10525496 -0.1083223 15263713
0.78753859 -0.095048741 -0.10519733 16645880
0.79000002 -0.099611931 -0.10915051 15658728
0.7845 -0.084818646 -0.10452785 16711673
0.77900004 -0.075429268 -0.10033609 16711673
0.7840476 -0.074826054 -0.10536148 16711673
0.78620017 -0.065078706 -0.10494796 16711673
0.78863996 -0.055130877 -0.10527138 16711673
0.78836662 -0.044962648 -0.10523439 16711673
0.78796005 -0.034792893 -0.10517958 16711673
0.78760022 -0.024636144 -0.10513269 16711414
0.78824997 -0.014659978 -0.10506567 16644849
0.79000002 -0.01084053 -0.10915051 16644594
0.78881818 -0.0061233356 -0.10294399 16447214
0.79049999 -0.0046336604 -0.10736986 16447215
0.78900003 0.0048732297 -0.10162411 16315629
0.78900003 0.015823675 -0.10215183 16249836
0.79027778 0.014747277 -0.10672289 16315628
0.7889998 0.026037497 -0.10493344 16052713
0.79000002 0.021832278 -0.10699288 16249835
0.7889998 0.035349771 -0.10531824 15789798
0.78899997 0.043590508 -0.10659696 15855589
0.79000002 0.045720417 -0.10406465 15855589
0.78900003 0.053820409 -0.10901235 15855589
0.79031056 0.055250231 -0.10408854 15987175
0.79036701 0.06501504 -0.10457393 15987175
0.79020631 0.074958205 -0.10482526 16052967
0.78900003 0.087683231 -0.10285548 16118760
0.79000002 0.084549785 -0.10623041 16052967
0.78883314 0.095358789 -0.10437322 16316139
0.79000002 0.094575509 -0.10915051 16118761
0.78839129 0.10569716 -0.10491787 16447468
0.79000002 0.10197314 -0.10915051 16381932
0.78759247 0.11497689 -0.10492869 16578797
0.78621429 0.1248173 -0.10514661 16513004
0.78604007 0.1345869 -0.10492488 16513004
0.78860003 0.14240798 -0.10526516 16710897
0.79072726 0.14750403 -0.10504439 12697267
0.79132128 -0.19485191 -0.094317771 14145489
0.78900003 -0.1835272 -0.09054172 16645880
0.79076195 -0.18503979 -0.095153391 14737111
0.78852636 -0.17433377 -0.093403034 15790056
0.79025 -0.17664976 -0.097622767 14537417
0.78788233 -0.16504021 -0.094756663 16118506
0.79000002 -0.16156697 -0.099903494 15129558
0.78820002 -0.15474066 -0.094142646 16514551
0.79000002 -0.15509406 -0.099903494 15263720
0.78822237 -0.14510845 -0.094486825 16646137
0.79000002 -0.14584704 -0.099903494 16448510
0.78820592 -0.13509579 -0.094848186 16646137
0.78740007 -0.12509196 -0.094969675 16711673
0.78619355 -0.11516257 -0.095507875 16711673
0.78546149 -0.10476787 -0.095515065 16711673
0.78380007 -0.095163658 -0.095452026 16711673
0.77880013 -0.082702875 -0.094840541 16711673
0.78120005 -0.087530755 -0.095133349 16711673
0.77888894 -0.075924695 -0.094716243 16711673
0.78000003 -0.07096111 -0.096204244 16711673
0.78303343 -0.064815424 -0.095358729 16711673
0.78656 -0.054984722 -0.095789425 16711673
0.78691661 -0.044878043 -0.094911955 16711673
0.78686684 -0.03474506 -0.094904333 16711672
0.78641939 -0.025341732 -0.094700918 16711671
0.78674281 -0.015267047 -0.095018722 16645363
0.78750014 -0.0052751009 -0.094980083 16447728
0.78802788 0.0048673227 -0.09504392 16381935
0.78813332 0.015016035 -0.095056638 16250349
0.78838885 0.025172001 -0.095087186 16184556
0.78896642 0.035348434 -0.095155574 15855591
0.78899992 0.042846672 -0.094235837 15921384
0.79000002 0.046917789 -0.096489199 15921383
0.78900003 0.051973343 -0.09054172 16052970
0.79006922 0.054850157 -0.09512914 16052970
0.7908802 0.065058738 -0.094461128 16052969
0.79159379 0.075539023 -0.0948916 16118506
0.78899986 0.086873114 -0.095305197 16184298
0.79018188 0.082489103 -0.095049292 16184297
0.78716671 0.095154464 -0.09494023 16316140
0.7848078 0.10483415 -0.095363311 16513519
0.78350002 0.11489017 -0.095416643 16645104
0.78336006 0.12495575 -0.095397584 16579311
0.78503454 0.13454147 -0.094839722 16579311
0.78800005 0.14372012 -0.094400562 16645104
0.79000002 0.14774588 -0.09712939 16118246
0.78900003 -0.20169 -0.081922092 16711673
0.79095459 -0.20569792 -0.085634194 16448501
0.78886342 -0.19508009 -0.084566586 16711673
0.79000002 -0.19886328 -0.088190593 16711673
0.78816676 -0.18517937 -0.084912464 16711673
0.78568006 -0.17448144 -0.084646337 16711673
0.78328019 -0.16477811 -0.084389836 16711673
0.78355175 -0.15490109 -0.084545724 16711673
0.78457695 -0.14505582 -0.084387511 16711673
0.78513801 -0.13499889 -0.084715396 16711673
0.78419244 -0.12479416 -0.084345102 16711673
0.78300017 -0.11503073 -0.084945329 16711673
0.7825557 -0.10508564 -0.085224062 16711673
0.77900004 -0.090930313 -0.080275908 16711673
0.78213811 -0.095085494 -0.085337088 16711673
0.77843755 -0.084259041 -0.082953125 16711673
0.78071439 -0.086954221 -0.087111078 16711673
0.77763331 -0.075298302 -0.085599467 16711673
0.7776112 -0.065788239 -0.084484361 16711673
0.78122228 -0.063348502 -0.088836588 16711673
0.77828586 -0.055708431 -0.082155548 16711673
0.78211105 -0.054368984 -0.087313026 16711673
0.77900004 -0.046797913 -0.080640636 16711673
0.78233337 -0.044309914 -0.085124798 16711673
0.78307694 -0.034787063 -0.084225848 16711672
0.78464013 -0.025460709 -0.084534198 16711671
0.7852999 -0.015372784 -0.084605433 16711157
0.78455997 -0.0052555921 -0.084525749 16513521
0.78513342 0.0048503624 -0.084587894 16447728
0.78560007 0.014967301 -0.084637515 16381935
0.78623337 0.025104504 -0.084706061 16250349
0.78771996 0.035293922 -0.08486516 15921384
0.78838456 0.044763166 -0.084794402 15987177
0.78793091 0.054827504 -0.085016221 16118763
0.78740907 0.064520046 -0.084330708 16118763
0.79000002 0.066834442 -0.088807069 16052970
0.78763151 0.074689031 -0.083206013 16118761
0.79045451 0.075619802 -0.088017516 16118763
0.78783327 0.085247517 -0.084724039 16118761
0.79000002 0.081629679 -0.088807069 15921382
0.78646666 0.095070362 -0.084729329 16381676
0.7844829 0.10505857 -0.085272528 16579312
0.78288919 0.11480052 -0.085257322 16645105
0.78343362 0.12496962 -0.085317574 16579312
0.78434485 0.13473725 -0.084501512 16513519
0.7860741 0.14522564 -0.084893674 16645361
0.78900003 0.15171476 -0.086847596 13618112
0.79133338 0.15494572 -0.088340096 11579043
0.78795648 -0.22526857 -0.075026222 16711673
0.79000002 -0.22352201 -0.079560049 16711673
0.78810519 -0.21453732 -0.074321762 16711673
0.79000002 -0.21593945 -0.078820281 16711673
0.7874999 -0.20437856 -0.075164467 16711673
0.79000002 -0.20780207 -0.079560049 16711673
0.78699994 -0.19503805 -0.075577281 16711673
0.78619236 -0.18542409 -0.07564003 16711673
0.78329164 -0.17563201 -0.075066462 16711673
0.77795017 -0.16438606 -0.074340902 16711673
0.78066677 -0.16879635 -0.076793715 16711673
0.77650005 -0.15516952 -0.07430838 16711673
0.78000003 -0.15130484 -0.078552961 16711673
0.77740008 -0.14524819 -0.073652856 16711673
0.78112507 -0.14420798 -0.078209475 16711673
0.77854544 -0.13693787 -0.072441988 16711673
0.78106248 -0.13414046 -0.076262318 16711673
0.78173327 -0.12510626 -0.075068966 16711673
0.77866673 -0.11307021 -0.071735077 16711673
0.78110522 -0.11542914 -0.075971492 16711673
0.77826679 -0.1043268 -0.073035583 16711673
0.78084624 -0.1057707 -0.07737349 16711673
0.77711987 -0.094568394 -0.074118197 16711673
0.78000003 -0.097438022 -0.078552961 16711673
0.77536005 -0.085061714 -0.074458219 16711673
0.77416676 -0.074962825 -0.07524997 16711673
0.77410007 -0.064986639 -0.075243451 16711673
0.77578127 -0.055364706 -0.074837521 16711673
0.7780835 -0.045434877 -0.074565433 16711673
0.78000003 -0.041745204 -0.078552961 16711673
0.77900016 -0.036220729 -0.072590515 16711672
0.780375 -0.034570597 -0.076878421 16711672
0.77862513 -0.024583651 -0.071807258 16646134
0.78135294 -0.025677398 -0.076431498 16646135
0.77792877 -0.014707453 -0.072361879 16645363
0.78162503 -0.015758501 -0.077116959 16645621
0.77766675 -0.0052104741 -0.072858252 16447728
0.78110015 -0.0052331621 -0.077750519 16579314
0.77733344 0.0048011709 -0.072827481 16381935
0.78133327 0.0048272428 -0.077773653 16513521
0.77700007 0.014802987 -0.072796263 16316142
0.78120005 0.01488277 -0.077760346 16381935
0.77740002 0.024274874 -0.072469316 16184556
0.78199995 0.025516637 -0.077291712 16184556
0.77800006 0.034856938 -0.071978122 15921384
0.78320009 0.035091318 -0.077044554 15987177
0.7778334 0.04486376 -0.0719629 15921384
0.78394461 0.045216694 -0.077118099 15987177
0.77669233 0.055218153 -0.072487958 16052970
0.78266668 0.054761589 -0.077449493 16184556
0.77583337 0.064728662 -0.072687089 16118763
0.7816667 0.06521409 -0.077807426 16052970
0.77706683 0.074836701 -0.072802983 16052969
0.78250003 0.075360581 -0.077890098 16118761
0.77735716 0.084353201 -0.072309352 16118761
0.78250009 0.085302822 -0.077105999 16184041
0.77710003 0.094849452 -0.071894981 16316140
0.78217649 0.094821535 -0.07705123 16315883
0.77733344 0.10488749 -0.072827481 16513262
0.78209096 0.10511158 -0.077765621 16578799
0.77746665 0.11491597 -0.072839983 16578799
0.78154546 0.11501943 -0.077877529 16710385
0.77760005 0.12476702 -0.072487749 16578799
0.78153843 0.12508813 -0.077161387 16578799
0.77823091 0.13464993 -0.072910674 16578799
0.78184617 0.13499127 -0.077613398 16381676
0.78188896 0.14323121 -0.077321678 16381933
0.78532344 -0.22522767 -0.065519512 16711673
0.77900004 -0.21129142 -0.060215726 16711673
0.78314298 -0.21510111 -0.065320998 16711673
0.7782144 -0.20470238 -0.062238 16711673
0.78225005 -0.20564851 -0.067452103 16711673
0.77731258 -0.19479744 -0.063613206 16711673
0.78209096 -0.19515187 -0.068778016 16711673
0.77737504 -0.18503068 -0.063845992 16711673
0.78200001 -0.18514362 -0.068603508 16711673
0.77721059 -0.17470351 -0.064006127 16711673
0.78100008 -0.17595398 -0.068826959 16711673
0.77664018 -0.16519961 -0.065489657 16711673
0.77516651 -0.15490486 -0.06536337 16711673
0.77569234 -0.14488007 -0.065198079 16711673
0.77794296 -0.13555281 -0.064556658 16711673
0.78000003 -0.13121891 -0.06942299 16711673
0.77832013 -0.12503438 -0.064172857 16711673
0.78033334 -0.12640451 -0.069148324 16711673
0.77635723 -0.11483497 -0.065271959 16711673
0.77512002 -0.10499416 -0.065362051 16711673
0.77460009 -0.094950952 -0.065317459 16711673
0.77352023 -0.0848592 -0.065225445 16711673
0.77206677 -0.074759707 -0.065104395 16711673
0.77231997 -0.064836785 -0.065126322 16711673
0.77440006 -0.055039782 -0.06530121 16711673
0.77604002 -0.04516568 -0.065440938 16711673
0.77633351 -0.035188891 -0.065467365 16711672
0.77512026 -0.025153466 -0.065364473 16645878
0.77470005 -0.015164667 -0.065327391 16579571
0.77476001 -0.0051904093 -0.065331489 16316142
0.77410007 0.0047803032 -0.065276243 16250349
0.77348006 0.014735829 -0.065223947 16250349
0.77356666 0.024698913 -0.065231733 15987177
0.77424014 0.034688573 -0.065288976 15724261
0.77373338 0.044626255 -0.065246813 15790055
0.76690006 0.056978535 -0.0623345 15790312
0.77220005 0.054391094 -0.066291764 15921641
0.76499993 0.065053612 -0.062608197 15855591
0.77199996 0.065311641 -0.067808501 16052970
0.76538467 0.074397504 -0.062337156 15855591
0.7723127 0.075734101 -0.067159474 15987177
0.76563644 0.084979877 -0.061791692 15921383
0.77253336 0.085251205 -0.066952877 16052970
0.76750004 0.094576187 -0.062023409 16184554
0.77263153 0.095447041 -0.06677065 16316140
0.76825005 0.10366333 -0.061183251 16250347
0.7723335 0.10528931 -0.065817364 16447726
0.5814445 0.11845812 -0.062337384 12499634
0.77362078 0.11509869 -0.065361202 16447726
0.57770836 0.1262417 -0.062632225 15131610
0.58025002 0.12142284 -0.062851518 13420992
0.77482361 0.12498261 -0.066403121 16513262
0.57694435 0.13506176 -0.063545272 15197915
0.77575004 0.13236898 -0.068591148 16644592
0.57613647 0.14302979 -0.062867038 15197917
0.77900004 -0.22496884 -0.051097456 16711673
0.78204763 -0.22519575 -0.055746295 16711673
0.77811122 -0.21378423 -0.053874251 16711673
0.78085721 -0.21780252 -0.056964803 16711673
0.77623105 -0.2049503 -0.054761127 16711673
0.77480561 -0.19473754 -0.055359356 16711673
0.77383339 -0.18452844 -0.055289898 16711673
0.77397072 -0.17486137 -0.055512931 16711673
0.7740624 -0.1649891 -0.055080988 16711673
0.77419996 -0.15483977 -0.055446249 16711673
0.77473342 -0.14514288 -0.055052493 16711673
0.77620012 -0.13512035 -0.054551817 16711673
0.77619231 -0.12498936 -0.054760221 16711673
0.77406073 -0.11523156 -0.055554241 16711673
0.76780003 -0.10418223 -0.051082909 16711673
0.77247834 -0.10526445 -0.056491371 16711673
0.76900005 -0.097864144 -0.050441522 16711673
0.77245462 -0.094604 -0.055604041 16711673
0.76875007 -0.082085758 -0.050875183 16711673
0.77200013 -0.085227966 -0.055594668 16711673
0.76700002 -0.074410938 -0.053148877 16711673
0.77045459 -0.076816112 -0.057916235 16711673
0.76596558 -0.065727428 -0.054886889 16711672
0.77000004 -0.062841021 -0.059520036 16711673
0.76642108 -0.054993976 -0.053676199 16711671
0.77141666 -0.054076374 -0.058577251 16711672
0.76538897 -0.044944134 -0.052099835 16711671
0.7717858 -0.045176625 -0.057982568 16711671
0.76584214 -0.034948394 -0.05363613 16711671
0.77191669 -0.034988333 -0.058765922 16711671
0.76593745 -0.024630046 -0.053607024 16645878
0.77149999 -0.025034497 -0.05873422 16711670
0.76638889 -0.014998802 -0.0520675 16513521
0.7715556 -0.015101954 -0.057836134 16579570
0.76781821 -0.0054699699 -0.051509179 16250349
0.77163172 -0.0049796416 -0.057081994 16250349
0.76746666 0.0052775722 -0.051779885 16184556
0.77133334 0.0043763956 -0.05730382 16184556
0.76595002 0.01512984 -0.052935623 16184556
0.77063638 0.014353619 -0.058421906 16250349
0.76638883 0.024666626 -0.054361694 15987177
0.7705 0.025141621 -0.058837652 15921897
0.76561111 0.035197183 -0.053807884 15526883
0.77081817 0.03502721 -0.058600053 15461603
0.76476187 0.045174751 -0.054859951 15461603
0.77079999 0.043554295 -0.059581876 15593189
0.75880003 0.057444353 -0.052259564 15329763
0.76200002 0.054043703 -0.055908512 15593190
0.75817388 0.065221258 -0.054054238 15593189
0.76042861 0.06458585 -0.058526013 15790054
0.7578572 0.075013578 -0.054021217 15527396
0.76080006 0.07505133 -0.058808886 15789798
0.75806659 0.084364265 -0.053156447 15593189
0.76085722 0.085362367 -0.05754197 15790311
0.75860006 0.094546385 -0.052245975 15789797
0.76170588 0.095279388 -0.056679182 15921383
0.58242863 0.10614764 -0.051351108 16513006
0.75900006 0.10152532 -0.051562417 15855589
0.76337504 0.10356708 -0.05666896 16052968
0.57769239 0.11648981 -0.053031053 16578541
0.58103335 0.11399128 -0.056249373 16052454
0.76900005 0.11006391 -0.05944274 16447726
0.77000004 0.11200961 -0.059520036 16447726
0.56850004 0.12661609 -0.050931692 16380905
0.5754081 0.12457655 -0.055811618 15920097
0.5687778 0.13392894 -0.05091941 15525596
0.57329547 0.13518392 -0.055882845 15197144
0.56900001 0.14004843 -0.05064318 12235689
0.57199991 0.14421214 -0.055026896 14737364
0.77371442 -0.2249274 -0.045129471 16711673
0.77429634 -0.21505071 -0.045557961 16711673
0.76900005 -0.20227823 -0.041440308 16711673
0.77308327 -0.20531261 -0.045585647 16711673
0.76850009 -0.19494866 -0.041413367 16711673
0.77219045 -0.19524024 -0.046005547 16711673
0.77190018 -0.18497036 -0.045213997 16711673
0.76825005 -0.17195702 -0.041849952 16711673
0.77166677 -0.17540921 -0.045802187 16711673
0.76664704 -0.16455232 -0.043534312 16711673
0.77111107 -0.16582777 -0.048173688 16711673
0.7658695 -0.15503214 -0.044082973 16711673
0.77060002 -0.154892 -0.048742481 16711673
0.7668125 -0.14549068 -0.0430081 16711673
0.77146161 -0.14478534 -0.047686975 16711673
0.76774997 -0.13544743 -0.042272676 16711673
0.77223539 -0.13469578 -0.047146756 16711673
0.76771432 -0.12401692 -0.041628201 16711673
0.77214307 -0.12516212 -0.04608915 16711673
0.76537496 -0.11353245 -0.043600313 16711673
0.77111113 -0.11688799 -0.047372021 16711673
0.76207674 -0.10480572 -0.044776574 16711673
0.764 -0.095280185 -0.044631209 16711673
0.76450008 -0.084833331 -0.04471527 16711673
0.77000004 -0.088978484 -0.048704531 16711673
0.76188892 -0.075061686 -0.04443042 16711673
0.75900006 -0.062831707 -0.040901423 16711672
0.76093322 -0.064773113 -0.045757957 16711672
0.75900006 -0.054835957 -0.040901423 16711670
0.76086956 -0.055203103 -0.04603811 16711670
0.75900006 -0.045063376 -0.040901423 16711669
0.76085699 -0.045173638 -0.044820536 16711670
0.75900012 -0.034529302 -0.041409086 16711669
0.76091671 -0.035008673 -0.046721667 16711413
0.75858331 -0.025504699 -0.041767389 16579570
0.76061904 -0.025359901 -0.046925493 16645876
0.75877774 -0.015542825 -0.041481726 16447728
0.76138085 -0.014605795 -0.045869846 16447728
0.75900006 -0.0050846436 -0.040901423 16184556
0.76240015 -0.0051070699 -0.045552135 16184556
0.75874996 0.0055736382 -0.041332159 16052970
0.7620455 0.0043807593 -0.045772906 16118763
0.75787503 0.015768487 -0.042394798 15987177
0.76093751 0.01538804 -0.047241867 15987177
0.75726312 0.0252502 -0.043330837 15789798
0.7610001 0.024862945 -0.048783936 15921384
0.75628012 0.034944668 -0.043593839 15329247
0.76054555 0.034560785 -0.049078241 15460833
0.74849999 0.046675958 -0.040335588 15329247
0.7559644 0.045373686 -0.045170724 15395041
0.76025009 0.043849472 -0.049867578 15460833
0.74766666 0.05537511 -0.040290684 15395040
0.75542301 0.055268161 -0.045886729 15526371
0.74644446 0.066059247 -0.040808514 15395040
0.75473088 0.064595997 -0.046521839 15460578
0.74612498 0.074693374 -0.042830717 15263454
0.75381267 0.074800909 -0.047904197 15395040
0.74527782 0.084860094 -0.043654747 15263455
0.7529 0.084848039 -0.048506413 15460834
0.58290005 0.098575249 -0.044511981 16052455
0.74545461 0.093366526 -0.042237319 15329247
0.7543751 0.095168978 -0.047940657 15658212
0.55300003 0.10762952 -0.040157039 14868694
0.57857144 0.10931665 -0.046464566 16381420
0.58251727 0.10448443 -0.046673425 16381420
0.75625002 0.10160109 -0.048281357 15724003
0.55569232 0.11596297 -0.041256182 14868694
0.56433338 0.11658315 -0.044873267 15592160
0.57495838 0.11430686 -0.047415871 16512749
0.55850005 0.12112102 -0.041864287 14802901
0.56293029 0.12540644 -0.045207497 14802901
0.57000005 0.12027886 -0.049397808 16578027
0.56802285 0.13494581 -0.045388568 13947077
0.56900007 0.14060344 -0.045648035 13157561
0.57023519 0.14482956 -0.045139164 13355454
0.75729412 -0.22490224 -0.032052435 16711673
0.76364702 -0.22500016 -0.037581652 16711673
0.75784624 -0.2155157 -0.03128735 16711673
0.76440912 -0.21489452 -0.036971629 16711673
0.75784624 -0.20432582 -0.03128735 16711673
0.76299989 -0.20516303 -0.036658268 16711673
0.75799996 -0.19494854 -0.031976636 16711673
0.76310521 -0.19456667 -0.03736642 16711673
0.75816661 -0.18522821 -0.031095445 16711673
0.76422733 -0.18491687 -0.036717836 16711673
0.75849992 -0.17465703 -0.031108921 16711673
0.76413631 -0.17506059 -0.036713041 16711673
0.75791669 -0.16432045 -0.031529307 16711673
0.76147372 -0.16506876 -0.036909111 16711673
0.75788885 -0.15499951 -0.031972211 16711673
0.76093751 -0.15506616 -0.037333354 16711673
0.75781262 -0.14489341 -0.03208027 16711673
0.7613889 -0.14502068 -0.037467774 16711673
0.75794113 -0.13523126 -0.031869728 16711673
0.76212502 -0.13501218 -0.037616823 16711673
0.75800008 -0.12485614 -0.03197664 16711673
0.76194131 -0.12524277 -0.037390988 16711673
0.75806248 -0.11488381 -0.032201279 16711673
0.76100016 -0.11510818 -0.037670325 16711673
0.75825 -0.10537147 -0.032875206 16711673
0.76010013 -0.10473932 -0.038291704 16711673
0.75822222 -0.095210969 -0.032281891 16711673
0.76041186 -0.094728522 -0.037522569 16711673
0.75793749 -0.085363463 -0.033195626 16711673
0.76036376 -0.08535707 -0.038062684 16711673
0.75858337 -0.074710555 -0.033480968 16711673
0.76000011 -0.075902455 -0.038464468 16711673
0.75784868 -0.064646326 -0.034713492 16711671
0.76000005 -0.069141597 -0.039176136 16711673
0.75634384 -0.054975152 -0.03434667 16711669
0.75672722 -0.045170207 -0.034988828 16645876
0.75588 -0.03514732 -0.035433415 16645618
0.74849999 -0.02341412 -0.031574331 16381933
0.75484627 -0.025651295 -0.035927381 16579313
0.7475 -0.014631528 -0.031532146 16052968
0.75429171 -0.014764033 -0.036240246 16381933
0.74860001 -0.0050135674 -0.031578548 15855591
0.75525004 -0.0050590532 -0.036285467 16052969
0.74787503 0.0054931543 -0.031986028 15789798
0.75459099 0.0043384414 -0.036494687 15921383
0.74693751 0.015541961 -0.033040766 15789798
0.75307149 0.014724801 -0.037562527 15855590
0.74585712 0.025682779 -0.033712123 15658212
0.75171429 0.024126226 -0.03824738 15855590
0.73766667 0.038228203 -0.031117344 15197661
0.74536365 0.034902547 -0.035018358 15197661
0.75033337 0.031860057 -0.038677845 15395040
0.73420006 0.045779984 -0.031660773 15263454
0.74470001 0.044345651 -0.036300205 15263454
0.72820008 0.056489605 -0.030718008 15197661
0.73407704 0.054169439 -0.033348534 15263454
0.74366671 0.055077869 -0.037465479 15329247
0.72675008 0.066162273 -0.031083489 15066075
0.73387504 0.064771824 -0.034721021 15263454
0.74250007 0.063972771 -0.037985329 15329247
0.72800004 0.074758925 -0.031640444 14934489
0.73360002 0.075286694 -0.036447309 15065820
0.74050003 0.075647563 -0.039904483 15263454
0.52412504 0.088666983 -0.031773139 14802645
0.72866672 0.08097852 -0.031306561 14868696
0.73303705 0.084895678 -0.035569321 15000282
0.74050003 0.087783396 -0.039904483 15263454
0.52726668 0.093571946 -0.0322011 14934230
0.53116667 0.09711165 -0.034998205 15000280
0.73540002 0.092171855 -0.036535297 15066075
0.74200004 0.090566188 -0.039985318 15460833
0.53500003 0.10373022 -0.034650736 14606035
0.54250008 0.10918444 -0.035587288 14342864
0.54600006 0.11137989 -0.03486193 14342865
0.55480003 0.11647118 -0.034568489 13684934
0.56 0.11947968 -0.031488564 12566710
0.55900002 0.12057494 -0.038629796 14342350
0.56363052 0.12502383 -0.034811597 12894902
0.56845468 0.13326208 -0.03655966 13355196
0.56999999 0.13667266 -0.033766493 12236716
0.56900001 0.14004843 -0.039986867 13091770
0.57010013 0.14138691 -0.036994163 13486784
0.73450005 -0.22586638 -0.022066677 16711673
0.74461108 -0.22491206 -0.025699891 16711673
0.75166672 -0.22469597 -0.028774617 16711673
0.74519056 -0.21565844 -0.022966145 16711673
0.7522223 -0.214204 -0.027429078 16711673
0.7452352 -0.20500709 -0.022819057 16711673
0.75245458 -0.20537172 -0.027419843 16711673
0.73900002 -0.191792 -0.020793514 16711673
0.74511772 -0.19573808 -0.023639228 16711673
0.75255561 -0.19413616 -0.027636662 16711673
0.73900002 -0.18573694 -0.020793514 16711673
0.74442858 -0.18448777 -0.022941643 16711673
0.75300002 -0.1848432 -0.027360117 16711673
0.74561125 -0.17517824 -0.022728274 16711673
0.75409102 -0.17500392 -0.027318614 16711673
0.7464118 -0.16514109 -0.022855597 16711673
0.75390911 -0.16517767 -0.027472047 16711673
0.74600023 -0.15518625 -0.022740178 16711673
0.75309086 -0.15538055 -0.027281962 16711673
0.74541175 -0.14521137 -0.022618832 16711673
0.75200003 -0.14499412 -0.027323008 16711673
0.74500006 -0.13492319 -0.022709517 16711673
0.75225002 -0.13447373 -0.027332187 16711673
0.74576479 -0.12484234 -0.022835324 16645879
0.75399995 -0.12459736 -0.027475882 16711673
0.74518752 -0.11522275 -0.022606766 16711670
0.75327277 -0.1148598 -0.027288996 16711673
0.73766667 -0.10337684 -0.020755999 16711669
0.74473345 -0.1054097 -0.023399794 16646134
0.75260007 -0.10529071 -0.027520809 16711673
0.72900003 -0.090213776 -0.020512139 16645875
0.73439997 -0.094492577 -0.021698577 16645877
0.74523079 -0.095173292 -0.025669595 16711672
0.75166672 -0.096540451 -0.028188584 16711673
0.71900004 -0.081401914 -0.020230766 16514289
0.72466677 -0.084589325 -0.021240002 16448497
0.73360002 -0.084258616 -0.024422316 16645879
0.74511111 -0.084836692 -0.027946902 16711673
0.75050008 -0.08496879 -0.029901765 16711673
0.71525002 -0.075958505 -0.020125251 16448496
0.72233337 -0.076144852 -0.022299988 16514549
0.73425007 -0.077111155 -0.025389303 16711672
0.74400002 -0.077266604 -0.027466811 16711673
0.75366664 -0.07345736 -0.027868735 16711673
0.754875 -0.064926349 -0.026322398 16711671
0.75165403 -0.05478153 -0.025145859 16579826
0.74800003 -0.042440616 -0.025645388 16447726
0.75127274 -0.045645282 -0.027854366 16579569
0.74528128 -0.03503729 -0.025121098 16184554
0.75000006 -0.03838386 -0.029881844 16447726
0.73900002 -0.023115791 -0.020793514 15921384
0.74394119 -0.025115006 -0.025551096 16118762
0.73866671 -0.010712794 -0.021360805 15526626
0.74374998 -0.014938981 -0.025721718 15921382
0.73500001 -0.0049291709 -0.022404579 15526626
0.74446666 -0.0049882201 -0.027922787 15789797
0.72900003 0.0062092445 -0.020512139 15263454
0.73345464 0.0043729879 -0.023454046 15460833
0.74441671 0.0045956192 -0.028789317 15658212
0.72900003 0.019008759 -0.020512139 15263454
0.7325418 0.014815682 -0.02347642 15395040
0.74245459 0.014619241 -0.028792929 15658212
0.72811115 0.02580107 -0.021055736 15131868
0.73350006 0.024979282 -0.025484031 15328991
0.74160004 0.024542326 -0.029547166 15395040
0.71720004 0.037503198 -0.020852929 15000028
0.7251876 0.034607042 -0.023059582 15000027
0.73286682 0.03489054 -0.027829248 15131868
0.71512496 0.04480302 -0.022952028 14934235
0.72441673 0.045173809 -0.027170181 15066076
0.73133332 0.043037724 -0.029138118 15197661
0.71639997 0.055178557 -0.023651345 14868696
0.72225004 0.054338977 -0.028354835 14934489
0.49422222 0.06649518 -0.021233497 14802901
0.71862501 0.062689669 -0.024006225 14802903
0.72133344 0.065754846 -0.027390016 14868696
0.50516671 0.077625185 -0.021113431 14605522
0.51075006 0.07848186 -0.02393773 14737622
0.7252 0.074936792 -0.0280456 14802903
0.509 0.080596395 -0.020875599 14539729
0.51607502 0.08574149 -0.024010014 14474450
0.52149999 0.087868132 -0.028916782 14868951
0.72833341 0.08207947 -0.02901859 14868696
0.51860005 0.09195064 -0.022362581 13816264
0.52389741 0.095178172 -0.02637901 14145485
0.52840006 0.10036767 -0.027237725 13684678
0.53233337 0.10250015 -0.026742594 13158590
0.54560006 0.10746957 -0.022374801 11973803
0.54760003 0.11068139 -0.026945496 12698297
0.55383343 0.11413651 -0.026535084 11579558
0.56050003 0.11893087 -0.026268119 12566191
0.56753129 0.12515895 -0.025680332 13553087
0.57028586 0.12806402 -0.021862935 12960696
0.56900001 0.13072415 -0.029330553 14079176
0.57111114 0.13388392 -0.025351636 12828855
0.72540009 -0.22545052 -0.012264923 16645880
0.73158824 -0.22421788 -0.017463014 16711673
0.72493762 -0.2152954 -0.011705486 16711673
0.73364717 -0.21545674 -0.016506042 16711673
0.74066669 -0.21303074 -0.019106498 16711673
0.72315395 -0.20434263 -0.011367501 16711673
0.73378944 -0.20507956 -0.016223365 16711673
0.74066669 -0.20783055 -0.019106498 16711673
0.72362506 -0.19542378 -0.011896514 16711673
0.7329334 -0.19479404 -0.017194627 16711673
0.71900004 -0.1857598 -0.010131616 16711673
0.72433341 -0.18487459 -0.013604887 16711673
0.73283339 -0.18504228 -0.018048391 16711673
0.71900004 -0.17650226 -0.010131616 16711673
0.72338462 -0.17484124 -0.012281229 16711673
0.73364997 -0.17494282 -0.016784512 16711673
0.74000001 -0.17126328 -0.019089298 16711673
0.72600007 -0.16614988 -0.010911958 16711673
0.73404759 -0.16472642 -0.015014212 16711673
0.74183339 -0.16560717 -0.019136593 16711673
0.72542864 -0.15455079 -0.010466003 16645879
0.73472726 -0.1552636 -0.014895339 16711673
0.7421667 -0.15526171 -0.019145191 16711673
0.72427279 -0.14511897 -0.011134234 16711671
0.73400003 -0.14470722 -0.015401236 16711672
0.74066669 -0.14454268 -0.019106496 16711673
0.72333336 -0.13522968 -0.011042272 16645878
0.73439997 -0.13454786 -0.01611455 16711672
0.74000001 -0.13748237 -0.019089298 16711673
0.71900004 -0.12179852 -0.010131616 16711670
0.72255558 -0.12606257 -0.011124108 16711414
0.73264712 -0.12496693 -0.01547361 16645878
0.74000001 -0.12535591 -0.019089298 16645878
0.71783334 -0.11488313 -0.010115176 16711412
0.72450012 -0.11509967 -0.012756537 16645877
0.7346471 -0.11498915 -0.017237311 16645877
0.71608335 -0.10454147 -0.011211668 16710899
0.72466677 -0.10437703 -0.014739775 16710900
0.7325455 -0.10561907 -0.017807787 16645876
0.71483332 -0.094871916 -0.012683528 16710899
0.72390008 -0.09551198 -0.016983293 16711155
0.73100001 -0.098162055 -0.018857131 16645875
0.70749998 -0.083000459 -0.013420616 16579312
0.71385717 -0.08654613 -0.015797149 16645105
0.72100002 -0.089223772 -0.018599167 16710898
0.70476919 -0.074843019 -0.015138954 16447726
0.71150005 -0.078887746 -0.018354103 16513519
0.69800001 -0.068403192 -0.016371822 16316140
0.70450002 -0.069040179 -0.018999906 16447985
0.73900002 -0.030900843 -0.019063503 15921382
0.741 -0.034455422 -0.019115096 16052968
0.73800004 -0.027058622 -0.018347107 15855589
0.72750002 -0.0027462207 -0.017490406 15263454
0.73179996 -0.005932475 -0.018535512 15526625
0.72400004 0.0044709793 -0.017831841 15066075
0.72583336 0.014679387 -0.017875817 15000282
0.71100003 0.021868335 -0.015012276 15066075
0.72463638 0.024444044 -0.017922992 15066075
0.47100002 0.039846864 -0.011047461 15395810
0.70600003 0.039894894 -0.015734255 14868441
0.71560001 0.036075126 -0.017787997 14868441
0.7216 0.031991053 -0.017939497 14934233
0.47375005 0.045962028 -0.011722736 14606294
0.69700003 0.042649701 -0.013084987 14868442
0.70563644 0.04460533 -0.01753352 14802904
0.47683328 0.052251082 -0.01168136 14408914
0.48270002 0.056661855 -0.013247845 14408913
0.49100003 0.05916284 -0.017265327 14474708
0.71000004 0.05175579 -0.01997753 14802903
0.486 0.061823584 -0.011177363 13948362
0.49275804 0.065617651 -0.015841 14408657
0.49662504 0.074014373 -0.01431707 13619140
0.50199997 0.077727549 -0.018155521 14144970
0.505 0.080554128 -0.017756011 13947590
0.51524997 0.086872354 -0.018718049 13487297
0.51800001 0.091722667 -0.019425746 12894905
0.52400005 0.091559567 -0.01842406 13289663
0.54693329 0.1025224 -0.017520683 12039854
0.55257899 0.10509812 -0.015137331 10987165
0.56300002 0.10826014 -0.011229532 12829881
0.55700004 0.11167023 -0.018280406 13749700
0.56650001 0.11525849 -0.014863581 13487041
0.57087505 0.11762442 -0.011551779 12566196
0.56875002 0.12068052 -0.017999429 13618883
0.57072425 0.12361029 -0.015272656 12829625
0.57200003 0.13141339 -0.018772699 12039340
0.71666658 -0.22355907 -0.0043265657 16514039
0.72057146 -0.22556713 -0.0082260985 16645880
0.71541381 -0.21506241 -0.0037957707 16580088
0.72000003 -0.21635775 -0.0084601734 16645880
0.70842868 -0.2030495 -0.00050620997 16645880
0.7145555 -0.20539454 -0.0050604232 16645881
0.70812505 -0.19600441 -0.0006540984 16579831
0.71500009 -0.19488522 -0.0053615272 16645880
0.71590906 -0.18533945 -0.004659879 16645880
0.71638703 -0.17515601 -0.0049052122 16645880
0.71793342 -0.16738728 -0.004853196 16645880
0.72174996 -0.16365649 -0.0080587687 16711673
0.70750004 -0.15131781 -0.0025181058 16711157
0.717875 -0.15416816 -0.0059165619 16711414
0.72114289 -0.15701191 -0.0075101065 16645880
0.70561111 -0.14394015 -0.0027897088 16645621
0.7147001 -0.14566216 -0.0068959007 16711670
0.70591307 -0.13499108 -0.0021915133 16711156
0.71526682 -0.13472691 -0.0071809841 16645877
0.70647377 -0.12450787 -0.00212329 16579313
0.71420014 -0.12549773 -0.0069480827 16645619
0.69720006 -0.1127222 -0.0003582857 16513519
0.70477271 -0.11518858 -0.0039379164 16579312
0.71200007 -0.11561504 -0.0080891512 16645618
0.69623083 -0.10496525 -0.0010362727 16447726
0.70473927 -0.10485573 -0.0059213121 16645105
0.69708329 -0.095238775 -0.00084848964 16513519
0.70495844 -0.09486828 -0.0062282118 16579312
0.69650006 -0.086191311 -0.0016634301 16513262
0.70447057 -0.086592726 -0.0074130385 16513519
0.70300001 -0.077121854 -0.0099061551 16447726
0.4476667 0.023787208 -0.00036954472 14605524
0.45280004 0.028556798 -0.00044463709 14605523
0.45806676 0.033894464 -0.0010227942 14408400
0.46391666 0.037138745 -0.0046183802 14605524
0.47000003 0.039212126 -0.0099237273 15263967
0.4666512 0.043599848 -0.0027959934 13882314
0.47105128 0.046695501 -0.0065550492 14211534
0.47570181 0.054299764 -0.0050621415 13290431
0.4806 0.058586083 -0.0026456688 12303537
0.48257139 0.06221804 -0.0058383825 12829880
0.49200001 0.068346664 -0.0087752808 13026747
0.49512506 0.072751544 -0.0088605769 12697781
0.56850004 0.10864936 -0.0086757299 12566708
0.57324004 0.10711271 -0.0032425353 12632501
0.56900001 0.11074356 -0.0093499655 12829879
0.57400012 0.11473461 -0.0051772548 12895416
0.57457149 0.12182005 -0.0077101672 11711401
0.71000004 -0.21917021 0.0016300653 14868444
0.70739996 -0.2024707 0.0019551157 16711673
0.55297148 -0.19522166 0.006407347 15657956
0.70662498 -0.19662234 0.0024486959 16711160
0.54556257 -0.18501858 0.0073188473 15263457
0.55033332 -0.18877779 0.0046977652 15197661
0.53590006 -0.17421609 0.0083805257 16645110
0.54000002 -0.17933434 0.0081925914 16579317
0.52600002 -0.16688858 0.007777303 16447474
0.70222229 -0.13475198 0.0023423461 16316142
0.70358342 -0.12577875 0.0024385911 16184556
0.69545454 -0.11418943 0.0024843423 16513520
0.70000005 -0.11939928 0.0016071065 16447728
0.69336373 -0.10483859 0.002328865 16381934
0.69418192 -0.095212273 0.0023322334 16447726
0.43900004 -0.0015706443 0.008373118 13947338
0.43896309 0.0048231841 0.0083152456 14473938
0.44000003 0.004262716 0.0071904683 13683909
0.43860722 0.013710195 0.0078267017 14539987
0.44394448 0.018852435 0.0041318806 14539987
0.44637102 0.02438912 0.0054341531 13882314
0.45113337 0.029084079 0.0037783231 13947850
0.45521742 0.035046954 0.0049006399 12895162
0.46000001 0.039993126 0.0010560985 13356227
0.45900002 0.040980715 0.0042773844 12369332
0.46340004 0.043876462 0.0026342594 12303539
0.47100002 0.049220301 0.0016338334 12369330
0.47575003 0.052503951 0.0016494207 12040365
0.48162505 0.057096586 0.0016699322 11579814
0.48300001 0.060084172 0.0011089034 11514021
0.54200006 0.075042494 0.0088573499 9277060
0.54500002 0.080555387 0.0089063756 10000012
0.57066673 0.098376907 0.0066535487 11974824
0.57327586 0.10477834 0.0044598295 11250848
0.57514286 0.11155488 0.0024742389 11184798
0.54866672 -0.19163203 0.015816506 14472909
0.55148649 -0.19620159 0.014351668 14934231
0.5453462 -0.18509151 0.014928585 13946825
0.53800005 -0.17457893 0.011469815 15526372
0.54295021 -0.17592695 0.015807904 12565429
0.53250003 -0.16874251 0.012441878 14736856
0.56754541 -0.1526093 0.018696776 10000013
0.56709093 -0.14633125 0.019043904 9671048
0.43727276 -0.082498856 0.017564815 15460576
0.42800003 -0.071502373 0.019517642 16315883
0.43247834 -0.076503523 0.017759284 16250348
0.44300002 -0.079710968 0.012424849 14868696
0.42600003 -0.069671169 0.019926239 15986662
0.43668425 -0.013854574 0.017436638 15591904
0.44000003 -0.013076424 0.013542431 14341839
0.42599997 -0.0038546855 0.018160423 15460318
0.43399993 -0.0049277795 0.014137207 14933975
0.42513061 0.0045345975 0.018062772 14276558
0.4345254 0.0047255359 0.012659136 14802902
0.42825001 0.010415202 0.01902777 12434867
0.43470535 0.014995874 0.014497711 12960954
0.43783337 0.021553682 0.0151815 11118750
0.44188893 0.023824096 0.011129017 12697525
0.45000002 0.029642591 0.010514263 11777193
0.45300001 0.031697221 0.010849478 11185056
0.54317647 0.07557793 0.011795275 9013889
0.546 0.081342682 0.012332411 9737099
0.55314291 0.085462458 0.012557663 10329490
0.56133336 0.088666059 0.011364487 10592918
0.54866672 -0.19034679 0.022668274 11446945
0.55200005 -0.19535221 0.023086689 11841960
0.54758328 -0.18459626 0.022874137 11841959
0.5503 -0.18481669 0.027286639 10855066
0.54649991 -0.17597681 0.023287911 11380634
0.56361544 -0.16129294 0.026048632 11248533
0.56480002 -0.15480429 0.025497418 11117460
0.56640005 -0.1450475 0.02524795 10789009
0.5677709 -0.13472505 0.025891827 10789268
0.43275002 -0.081159867 0.02099929 14999512
0.42598552 -0.073532797 0.025076855 15065561
0.43046156 -0.077998519 0.021141747 15657442
0.41785002 -0.061980985 0.027613338 16381674
0.42167857 -0.066219352 0.025149167 15921125
0.41567105 -0.054630537 0.026720097 16118503
0.41473764 -0.045012683 0.026673853 15723746
0.41721213 -0.036916584 0.027653627 15789795
0.42100003 -0.036328629 0.025491845 15131610
0.41820002 -0.025124121 0.029351529 15327962
0.42000002 -0.02395303 0.029477863 15591134
0.43900007 -0.021054253 0.023745898 15920099
0.44000003 -0.02251853 0.024186261 15920099
0.40819997 -0.012355548 0.028776718 15658210
0.41286671 -0.014912456 0.027426679 15920612
0.42436364 -0.01187473 0.023005391 15789026
0.43517658 -0.016563579 0.022666397 15789025
0.40847367 -0.0068626497 0.02871854 14539986
0.41423726 -0.004400373 0.025675798 14605780
0.42248285 -0.0062848856 0.021565352 15591903
0.41725007 0.00096656772 0.026106104 12829626
0.42343658 0.0055947644 0.024501294 11711402
0.42821428 0.011274679 0.024829149 9934990
0.43230563 0.0156682 0.02299854 9803403
0.43700001 0.021625075 0.020440767 8684922
0.56 -0.16172341 0.030127024 10985361
0.55490917 -0.15376179 0.032975215 11183512
0.56 -0.15516855 0.030127022 11249046
0.55448985 -0.14503977 0.034857899 11118233
0.56050003 -0.14349659 0.030903218 10855060
0.55733335 -0.13699767 0.037499912 11315357
0.56236953 -0.13427095 0.033595197 10920341
0.42333335 -0.071975149 0.032635517 13355971
0.41606262 -0.063471161 0.034950323 14473681
0.42065227 -0.068497501 0.033890653 13816266
0.40793347 -0.052691933 0.036076274 15789026
0.41169089 -0.056925718 0.034009133 15591903
0.40516478 -0.044931181 0.036245782 15986661
0.41133335 -0.044440817 0.031476513 15592415
0.39780003 -0.031347066 0.039652459 15526367
0.40419683 -0.035621565 0.037011739 15460574
0.41408068 -0.034584608 0.032338589 15592158
0.39725006 -0.024134642 0.038383 15394782
0.40136844 -0.025788873 0.036427218 15525854
0.41667846 -0.025499474 0.032549009 15328475
0.39800006 -0.016963666 0.03866766 15000280
0.40376544 -0.014280524 0.034321763 15131609
0.41240001 -0.018213207 0.031452619 15920869
0.40500012 -0.0060704262 0.033895668 11448485
0.41075003 -0.0017889261 0.030991748 11316644
0.41483334 0.00078439497 0.03105321 9606282
0.42508698 0.0062494813 0.031868018 9079680
0.42899993 0.011604683 0.031030133 9342852
0.55333334 -0.14144689 0.040562805 8683896
0.55727273 -0.13441961 0.041544821 10986649
0.41719696 -0.063470326 0.044998575 12960699
0.40757704 -0.052404564 0.04510377 13157822
0.41220456 -0.057417627 0.044744153 13157822
0.39800006 -0.041259661 0.04538792 14670804
0.40225622 -0.045659889 0.044667467 13947082
0.39495081 -0.034914255 0.045138776 13618629
0.40000001 -0.037794922 0.040247448 15921382
0.39371923 -0.024756845 0.045136217 12368562
0.39576563 -0.016730612 0.044210877 13487554
0.41659993 -0.061438035 0.053489845 12894906
0.4086 -0.051808406 0.052592061 12631477
0.41217241 -0.055038355 0.056080423 12829113
0.39649999 -0.041085541 0.054458521 14013128
0.40509683 -0.046271797 0.054408275 12697271
0.41050002 -0.048877999 0.059082218 12565941
0.3883774 -0.033344571 0.056985144 2633256
0.39175764 -0.036034953 0.053282 5132618
0.3882584 -0.0256701 0.056669019 2633257
0.39089137 -0.023802811 0.051941697 2764586
0.38900003 -0.019908428 0.058719747 2238759
0.39339763 -0.015978429 0.055814721 10724763
0.41540006 -0.053561915 0.06466648 12763320
0.42000002 -0.056399539 0.06929858 12565941
0.39200002 -0.040250905 0.061006784 14145488
0.40800002 -0.044281635 0.060632672 13223871
0.41320008 -0.046755124 0.065624364 12829113
0.38583037 -0.034618635 0.065095425 3685687
0.39000002 -0.039132543 0.06024019 11711405
0.38436356 -0.025068184 0.065207496 2501670
0.38750005 -0.018511716 0.065570846 5198668
0.39361292 -0.013485669 0.064659819 12106415
0.39600003 -0.0088331448 0.063948102 10921884
0.41820002 -0.051752966 0.071450055 12829113
0.42095757 -0.053247914 0.075715914 12828600
0.38900003 -0.041308843 0.079209507 14079693
0.4175238 -0.046944361 0.074644923 13025980
0.42000002 -0.048632041 0.07883589 12960187
0.37900004 -0.030930839 0.079835013 2238753
0.38344344 -0.0345909 0.075101636 4343616
0.37899998 -0.025607362 0.079835005 1975839
0.38148776 -0.024881192 0.074995667 2238498
0.3854 -0.017200973 0.075197026 7434857
0.3924723 -0.012245736 0.073860005 12106158
0.39366665 -0.009394574 0.074470289 11644835
0.42265388 -0.051923376 0.083288386 12763064
0.38900003 -0.040853515 0.080120161 13816524
0.39055556 -0.041830514 0.087144956 13749704
0.41900003 -0.04498506 0.080413781 13223104
0.42131579 -0.047934614 0.082938775 13025725
0.3781178 -0.031822499 0.085324742 2370084
0.38405406 -0.03661726 0.084627643 7237225
0.37800717 -0.025097763 0.084934212 1843997
0.38000003 -0.020782202 0.080045663 2370854
0.37790924 -0.018214928 0.085822828 2961705
0.38037503 -0.018242368 0.080903329 3028530
0.39125001 -0.012465604 0.080813006 12171952
0.38900003 -0.040853515 0.094690658 13881288
0.39000005 -0.041364312 0.091992192 14012876
0.37588373 -0.032662783 0.093086421 2435362
0.38464001 -0.03766983 0.092289247 9933965
0.37488544 -0.024891159 0.092564531 2237984
0.37554768 -0.01729252 0.092625558 4804167
0.38100001 -0.012363577 0.09631101 11974572
0.389 -0.040853519 0.10652919 13683910
0.38570005 -0.035820231 0.10727796 8355447
0.38443196 -0.025077598 0.10842981 726027
0.37900001 -0.015625848 0.10600877 2305574
0.38161543 -0.018022699 0.1076705 2041374
0.37444907 -0.032923277 0.11782453 2435106
0.3826333 -0.033345677 0.11342315 3816758
0.37413189 -0.024997881 0.11727864 725772
0.38380292 -0.025551334 0.11304701 791820
0.37325919 -0.01706429 0.11637484 1710352
0.38500002 -0.019703714 0.11084153 922893
0.36900002 -0.030460257 0.12886761 1580050
0.3704308 -0.032736357 0.12515573 1580567
0.36871752 -0.025363311 0.12786357 1580052
0.37067392 -0.02467625 0.12341827 1843995
0.37185237 -0.016849432 0.12534036 1317135
0.35582763 -0.03258533 0.13621488 1383442
0.36540002 -0.031313784 0.13238105 2173215
0.37056243 -0.033876084 0.13184255 1515543
0.3559598 -0.025224144 0.1367338 1251856
0.36458969 -0.024678441 0.13206469 1515030
0.35521421 -0.01704069 0.13728625 1448722
0.3643696 -0.017039297 0.13409269 988429
0.37242854 -0.015602073 0.13220102 1317653
0.34865302 -0.032651912 0.14766528 1646100
0.35200018 -0.033058204 0.14241251 1712406
0.34846944 -0.024634028 0.14609581 1646100
0.35120779 -0.025215721 0.14184435 1580820
0.34819111 -0.016165787 0.14579165 1580307
0.35102335 -0.016723443 0.14166656 1580308
0.34403375 -0.032413065 0.15482955 1843480
0.34437501 -0.029717408 0.15475179 1777687
0.33766672 -0.032086402 0.16713287 2172960
0.3401072 -0.031822734 0.16206694 2172188
0.33733857 -0.025062392 0.16662367 2041115
0.34000003 -0.02532698 0.16268928 2040858
0.3365722 -0.015998896 0.16638184 1711895
0.34000003 -0.015499256 0.16275561 1645847
0.8175 -0.22938906 0.34922776 2105377
0.8084445 -0.22726816 0.35745099 2633512
0.81433344 -0.22510491 0.35496557 2434854
0.81700003 -0.21968572 0.35953411 1052692
0.80819988 -0.22583243 0.36512133 2501413
0.81118184 -0.22139953 0.36370286 2632746
0.81575012 -0.21772096 0.36527926 2369061
0.80780947 -0.2258577 0.37467062 1185814
0.81000006 -0.22159591 0.37541592 1580316
0.81462085 -0.21706435 0.37485591 2369574
0.8083182 -0.22586571 0.38538799 857359
0.81 -0.22191195 0.38458097 725773
0.81416225 -0.21556327 0.38542604 1515033
0.80699986 -0.22478187 0.39577627 857358
0.80743998 -0.21598025 0.39562404 1054481
0.81193763 -0.2122606 0.39258268 1317141
0.81626678 -0.20814769 0.39602247 1908251
0.80530006 -0.22502139 0.40528527 791825
0.80695826 -0.21525115 0.40486106 923408
0.81033331 -0.2106211 0.40497473 1054482
0.81526667 -0.20763689 0.40457365 1316371
0.80617231 -0.22542696 0.41503373 857359
0.80790907 -0.21706887 0.41364968 857615
0.81206256 -0.21300633 0.41605604 923151
0.8174001 -0.20850113 0.41424599 1053200
0.80821043 -0.22628272 0.42517433 528651
0.81 -0.22240856 0.42607215 660237
0.81311435 -0.21482366 0.42498896 857102
0.81900007 -0.20871973 0.42368495 856332
0.80649996 -0.22559132 0.43515238 791568
0.81000006 -0.22159591 0.43135452 199433
0.80875003 -0.21936062 0.436369 857362
0.81362081 -0.21489006 0.43429634 856849
0.82000005 -0.21089421 0.43859953 855560
0.80545193 -0.22545516 0.44465315 856846
0.81150007 -0.22105464 0.44924921 988433
0.80900002 -0.21942843 0.44123831 856849
0.81500006 -0.21699312 0.44426879 856593
0.82070005 -0.21299481 0.44627517 4212289
0.80552936 -0.22591488 0.4533205 856842
0.81400001 -0.22192235 0.45577532 1383443
0.81700009 -0.21904661 0.45197701 725261
0.82307684 -0.21434665 0.45551103 7435884
0.82066673 -0.22131152 0.46425161 8094071
