# .PCD v0.7 - Point Cloud Data file format
VERSION 0.7
FIELDS x y z rgb
SIZE 4 4 4 4
TYPE F F F U
COUNT 1 1 1 1
WIDTH 646
HEIGHT 1
VIEWPOINT 0 0 0 1 0 0 0
POINTS 646
DATA ascii
0.43425 -0.052087747 -0.061141245 15789031
0.43059999 -0.04472379 -0.061005998 15854307
0.43009996 -0.034596704 -0.060935162 14933460
0.43175 -0.027654469 -0.061168928 13617344
0.43850002 -0.060423605 -0.051347788 15065048
0.43482354 -0.053984016 -0.054750055 15459806
0.42762274 -0.04377877 -0.053892452 15854561
0.43048492 -0.047014192 -0.057127297 15920099
0.4271031 -0.035780102 -0.054238096 15394010
0.43000001 -0.032554556 -0.058054276 14735824
0.42845452 -0.028947938 -0.051356379 14670800
0.43209296 -0.024610994 -0.055125874 13617856
0.43482772 -0.016777204 -0.052742258 13289149
0.44700003 -0.071012795 -0.040831149 14933722
0.43723345 -0.063085519 -0.043383736 14933977
0.442 -0.067776352 -0.041407455 14999771
0.42835712 -0.051290404 -0.043428171 15393756
0.43249297 -0.055811509 -0.045082431 15262428
0.42501044 -0.044917893 -0.045039643 15591646
0.42405987 -0.035101153 -0.045194793 15197143
0.42675385 -0.026260056 -0.043978158 14210249
0.43080649 -0.022175565 -0.047097016 13486526
0.43341863 -0.015518568 -0.044868924 13157818
0.4474 -0.072021052 -0.034009442 14802135
0.45100003 -0.07428658 -0.035395484 14736600
0.43657151 -0.062534906 -0.035134152 14933720
0.44325718 -0.067842789 -0.034649156 14867928
0.42763895 -0.052449986 -0.034253515 15130840
0.43176925 -0.057323933 -0.035282243 15065048
0.42304003 -0.044934675 -0.035179619 15459547
0.41900003 -0.035176191 -0.030426404 15065814
0.42122704 -0.034852557 -0.035166945 15197143
0.42432287 -0.025307568 -0.035102911 14144710
0.42799997 -0.018005878 -0.033643298 13552831
0.43098152 -0.013756811 -0.035146564 13224123
0.43482354 -0.0084768534 -0.032114577 12303278
0.44240004 -0.005860005 -0.034607112 11973800
0.49900001 -0.090955466 -0.02338589 14803419
0.50120008 -0.092061587 -0.021375524 14539734
0.49700004 -0.086599275 -0.022533262 14342868
0.43900001 -0.070769578 -0.021601666 14407891
0.44471434 -0.071619689 -0.027096961 14605268
0.43618748 -0.064181656 -0.024192529 14407889
0.4415625 -0.068083018 -0.027221981 14868183
0.42682225 -0.052601397 -0.025131838 14276302
0.43120003 -0.057626598 -0.024561141 14341839
0.41844451 -0.041660346 -0.023150103 15262423
0.42184213 -0.045817845 -0.025798852 14868180
0.41734937 -0.034980696 -0.024706133 14999764
0.41999999 -0.030671751 -0.029188046 14868435
0.41782349 -0.026819693 -0.022604529 14407884
0.4214243 -0.023970196 -0.026405318 14012870
0.42586586 -0.015937826 -0.024801098 13289659
0.4301818 -0.011670454 -0.027668338 13026744
0.42833334 -0.0091080163 -0.021188905 13158328
0.43342426 -0.0076290187 -0.025949821 12697523
0.44503713 -0.0022816588 -0.02514156 11842215
0.44866678 0.0015853175 -0.024218492 11908008
0.45112503 0.0063533378 -0.021932296 12039337
0.50150001 -0.091705546 -0.01851259 14473684
0.49719357 -0.086312465 -0.017330952 14407891
0.43650001 -0.070366561 -0.018923428 14013133
0.44100001 -0.070059597 -0.011892384 14144973
0.43653414 -0.064456426 -0.015079415 14342096
0.44000003 -0.068870686 -0.011693743 14210767
0.42594999 -0.0528422 -0.014979157 14736596
0.4315854 -0.057848297 -0.015052304 14670803
0.41652304 -0.043718755 -0.014424569 14999508
0.42100009 -0.047729716 -0.017418778 14933716
0.41381368 -0.035122417 -0.015119287 14999763
0.41501892 -0.025117861 -0.01493981 14342090
0.42000002 -0.020511733 -0.0191919 13618367
0.41781485 -0.017613567 -0.012808627 13421500
0.42197222 -0.01425131 -0.016215846 13223865
0.42471057 -0.007653398 -0.014181964 12960694
0.4337647 -0.0030162891 -0.014654804 12237228
0.44200003 -0.0014065817 -0.018300576 12236972
0.43833336 0.0004845534 -0.011479073 11579041
0.44523886 0.0041201082 -0.014932285 11908006
0.45100001 0.0085930666 -0.01704688 11908007
0.45050001 0.010692212 -0.013731683 11710116
0.50386214 -0.094081484 -0.0028331017 14736342
0.498 -0.087444268 -0.00035591325 14868441
0.50033337 -0.08885514 -0.0027568999 14342097
0.43463761 -0.065032482 -0.0046798778 13881802
0.42445716 -0.054043856 -0.0049264734 14276046
0.43000004 -0.059108537 -0.0039021608 14079180
0.40900001 -0.040081523 -1.8466952e-05 14933972
0.41406187 -0.044497076 -0.0049307072 14670801
0.40840355 -0.034010287 -0.0029350063 14868689
0.41065213 -0.035898458 -0.007522726 14934226
0.40848792 -0.026782315 -0.0021656714 14473931
0.41142496 -0.023846034 -0.0061988356 14144967
0.41532677 -0.015200691 -0.004551521 13289914
0.42025003 -0.011300331 -0.0087506799 13092536
0.41844448 -0.0085714841 -0.0019796258 13026486
0.42273974 -0.0056812991 -0.005224518 12697522
0.43200001 -0.00087138679 -0.0060967878 12236971
0.43518424 0.0020238205 -0.0040551936 11710883
0.44207895 0.0069016553 -0.0059866598 11908261
0.44600004 0.011214206 -0.0035782508 11908262
0.45676476 0.015629519 -0.0036056861 11842214
0.46184999 0.018153902 -0.0057557621 11447457
0.46596301 0.022537913 -0.0035418437 11447457
0.47227275 0.02689372 -0.0050137229 11315872
0.47562969 0.032656062 -0.0025361618 10723993
0.49787995 -0.092198446 0.0060348571 14933977
0.50119996 -0.095190443 0.0038857774 14933721
0.47800004 -0.08041364 0.008369796 14539477
0.48519996 -0.083597906 0.0071692318 14670807
0.49369234 -0.087012663 0.0038382276 14933977
0.45400003 -0.071062028 0.0095449006 13750731
0.46650001 -0.074659631 0.0098077003 13750474
0.4741112 -0.077790625 0.0081144106 14407891
0.48100004 -0.079792306 0.0056084306 14539477
0.4360294 -0.064700387 0.0045160018 13750216
0.44033337 -0.066517852 0.0089142239 13881547
0.41900003 -0.050870378 0.0019428547 14276046
0.42432213 -0.054272171 0.0053666113 13816008
0.43093339 -0.05897798 0.0056337886 13750215
0.40866664 -0.041271523 0.0056141675 14473422
0.41421923 -0.04622465 0.0050722733 14210252
0.40586117 -0.034941476 0.0052716383 14736848
0.40577987 -0.025037223 0.0051980047 14276552
0.41000003 -0.020023359 0.00094130525 13816258
0.40811905 -0.017677208 0.0068719676 13487293
0.41204479 -0.013625183 0.0043118591 13158328
0.4156667 -0.0072361981 0.0057453094 12895157
0.42311546 -0.0026369612 0.0043629212 12434606
0.42809996 0.00074089662 0.0061415276 12040104
0.43196616 0.0052407226 0.005346586 11842469
0.43833336 0.010403447 0.0064773136 11908005
0.44518924 0.014552412 0.0071640401 12039848
0.45419049 0.017870635 0.0035166596 11908007
0.44900003 0.020116664 0.0094397804 11842984
0.45559257 0.022547474 0.006408473 11710884
0.46380946 0.025336135 0.0035426449 11644835
0.47083339 0.029178405 0.0025495691 11381665
0.46540004 0.033057041 0.0084712636 11250079
0.47415152 0.033930793 0.0035364423 10987163
0.48800004 -0.090092853 0.019399051 15459550
0.4946326 -0.094084635 0.015349319 15262172
0.47623077 -0.081317313 0.014979379 14407891
0.48432258 -0.085726544 0.015047189 14999514
0.49130002 -0.089092642 0.012742217 15196635
0.44900003 -0.070279412 0.019950952 13815754
0.45552385 -0.07211677 0.015465267 13750217
0.46521053 -0.076201372 0.015107024 14210512
0.47133341 -0.078925163 0.014409143 14342098
0.43747368 -0.062170651 0.014106688 13684167
0.44352508 -0.066288926 0.015660465 13618375
0.45000002 -0.069382474 0.013674636 13684168
0.42458144 -0.053036246 0.015260817 13618118
0.43196157 -0.058087409 0.015035581 13683910
0.40756005 -0.04158305 0.015435124 13881287
0.41436842 -0.04621679 0.014499957 13683910
0.42050004 -0.049083695 0.019177362 13421250
0.40287384 -0.035112664 0.014971389 14407884
0.40183219 -0.025185252 0.015095621 14210760
0.40599999 -0.015384192 0.015343293 13158328
0.41042861 -0.010710316 0.012059784 13026742
0.40885714 -0.0088918535 0.018166902 12960950
0.41375312 -0.005318007 0.01513198 12697779
0.42150003 -0.001341821 0.012313452 12171434
0.41900003 0.00013572203 0.018617926 11974824
0.42581582 0.002401016 0.0150849 11974054
0.43116674 0.0068307798 0.014214505 11908261
0.43637145 0.012054523 0.015940892 11974311
0.44412762 0.017005166 0.014420489 12040104
0.44848841 0.022243993 0.015531897 11974055
0.45266676 0.027053028 0.014515543 11710885
0.45754287 0.033507712 0.014426433 11315871
0.46217647 0.037003115 0.017676676 11447713
0.46354553 0.041584469 0.01833031 10461076
0.48700002 -0.10016892 0.027909867 14999769
0.48552728 -0.094641119 0.025864836 15196635
0.49063632 -0.096428275 0.021278344 15327964
0.47532356 -0.083277293 0.026092041 14539476
0.48231038 -0.087798074 0.023837071 15196891
0.44800001 -0.070122883 0.02200407 13881547
0.45516673 -0.072495528 0.024844572 14078925
0.46527272 -0.076594457 0.025378184 14342097
0.47028571 -0.079115875 0.024199944 14342098
0.43745717 -0.062741049 0.025550451 13749960
0.44212499 -0.066620566 0.023436455 13684168
0.42595354 -0.0532283 0.024816411 13618630
0.43194741 -0.058087725 0.024539808 13684167
0.40610257 -0.042338006 0.025991453 14013385
0.41441378 -0.046706222 0.025234658 13947594
0.42057148 -0.048811112 0.022203961 13421250
0.39856002 -0.031893596 0.0274119 14276811
0.4010247 -0.035909753 0.024493851 14276299
0.39796895 -0.025342833 0.026054034 14144967
0.40004167 -0.023867996 0.021521447 14079174
0.39846674 -0.018215457 0.028587369 13815745
0.40273088 -0.014508835 0.024739953 13355451
0.40701535 -0.0067795203 0.025586119 12960694
0.41236588 -0.0026173519 0.023851145 12828852
0.41624138 0.0012122619 0.026282383 11973800
0.4244386 0.0058646812 0.024923149 11908006
0.43040004 0.0084022712 0.020535175 12237226
0.42780003 0.01075509 0.028319877 11973800
0.43489856 0.01467079 0.02474552 12039848
0.4407143 0.019155836 0.023413358 12105641
0.43900007 0.022311304 0.029196417 11973800
0.44395787 0.024825752 0.025333242 12105386
0.45280004 0.028769126 0.021178877 11908007
0.44412503 0.031732973 0.029220141 11973802
0.45670596 0.034998946 0.025953114 11973544
0.46200004 0.037232798 0.023305377 11842214
0.46289659 0.042786252 0.025606308 11250334
0.48454168 -0.10212114 0.03655399 15197149
0.47800007 -0.091954283 0.036763709 15197148
0.48209617 -0.096235596 0.034223232 15065562
0.45900002 -0.080440864 0.039736785 14737110
0.4652001 -0.082510889 0.03699962 14671317
0.47442868 -0.086586438 0.033580773 14802647
0.44850004 -0.070201144 0.035152376 14408145
0.45525005 -0.074575886 0.035349205 14473938
0.46299997 -0.078251243 0.033086814 14473938
0.42900002 -0.060118839 0.038143907 14473425
0.43392855 -0.063016325 0.035965424 14539475
0.44385719 -0.067771338 0.033075936 14210766
0.41738459 -0.0517288 0.035833668 14342352
0.42368433 -0.055755425 0.036131173 14473682
0.43114287 -0.058546323 0.031411711 14276559
0.40370971 -0.042880937 0.035466965 14078922
0.41292307 -0.048646942 0.035513148 14144973
0.39668238 -0.033777352 0.035755482 12960183
0.40038458 -0.038156305 0.032965966 14079176
0.39490065 -0.024833601 0.0351022 11053470
0.39639205 -0.015349151 0.035738491 12368557
0.400381 -0.011340405 0.032205813 13289401
0.39900002 -0.0089000622 0.038901407 13157815
0.40311214 -0.0049393913 0.034764186 13223609
0.40631822 0.0014303471 0.037462097 12763060
0.41509682 0.0045024198 0.034870584 12171434
0.42173538 0.0075719575 0.033863753 11908005
0.42479751 0.013889775 0.035595313 12039848
0.43100002 0.01765056 0.032681528 12039593
0.42800003 0.020428825 0.039055191 12105386
0.43572336 0.02514378 0.035161577 12039593
0.44000003 0.028983869 0.030881573 11776421
0.43900001 0.03097341 0.038005333 12105386
0.44366077 0.034282897 0.035554666 12105386
0.45300001 0.038642902 0.033483025 11842214
0.44900003 0.04008789 0.039922178 12236972
0.45656455 0.044285901 0.036052063 11842471
0.46066669 0.045444954 0.031253327 11578786
0.45859998 0.051466942 0.039057907 11250590
0.47488236 -0.1037557 0.047412816 15328734
0.48099998 -0.10389969 0.042816784 15262685
0.46564516 -0.093599834 0.047865476 15197149
0.47379595 -0.095575526 0.043565888 15197148
0.48000002 -0.098729111 0.040805683 15065562
0.44700003 -0.081128336 0.049509514 14802903
0.45673326 -0.083608694 0.046160404 14802903
0.46324998 -0.086766012 0.04439906 14737111
0.47000003 -0.088970311 0.04178936 14605011
0.43550003 -0.074546479 0.048660927 14802903
0.44512501 -0.075883396 0.0458262 14802646
0.45404762 -0.07734888 0.042292401 14737110
0.42454845 -0.064277299 0.046285301 14605524
0.43223813 -0.066552021 0.042233739 14671317
0.44000003 -0.068870693 0.040152002 14539731
0.40900001 -0.050613765 0.049770303 14013387
0.4151516 -0.053680107 0.045682251 14276559
0.42132273 -0.057898339 0.043693218 14539475
0.39857143 -0.040925328 0.046365261 13816007
0.40437976 -0.045012642 0.044882055 14078923
0.41100001 -0.049297467 0.043756723 14210509
0.38900003 -0.030836301 0.048702531 2239266
0.39372468 -0.034963019 0.044853646 7500652
0.38891023 -0.024969973 0.046939716 2304547
0.39082983 -0.024946654 0.041775312 2501413
0.38894996 -0.018995211 0.047239047 2370340
0.39298177 -0.014195886 0.044722084 9211007
0.39752007 -0.0060095428 0.045913167 13158073
0.40052772 -0.0029939597 0.042486865 13355196
0.39900002 0.00012924365 0.04948749 13025975
0.40459591 0.0039145392 0.045457225 12565937
0.41212499 0.0086578252 0.043069679 12105386
0.41569868 0.014073521 0.045952149 12105385
0.42122591 0.017570309 0.043016363 12171179
0.42557147 0.023698689 0.046086602 12105641
0.43194872 0.027368059 0.043352783 12105641
0.43599993 0.033400036 0.046151344 12303019
0.44258979 0.037367709 0.043383751 12303021
0.44592312 0.043937188 0.046889547 12434351
0.45252785 0.046673473 0.042791657 12105642
0.45511115 0.05342634 0.046069719 11842214
0.46000001 0.059376758 0.047361434 10263952
0.45900002 0.060322206 0.049407531 10132366
0.46657145 -0.11214338 0.05755214 15328479
0.45900002 -0.10121506 0.058720101 15460321
0.46471024 -0.10517158 0.055118084 15394271
0.47000003 -0.10547449 0.050591595 15394527
0.44809094 -0.091594458 0.05814917 14407889
0.45562005 -0.094655477 0.055285655 14934233
0.4622632 -0.097304508 0.052032281 15394528
0.43785006 -0.081809722 0.056866031 14210766
0.44402391 -0.085740432 0.055534534 14473938
0.454 -0.087683469 0.051377404 14868696
0.42710707 -0.071818538 0.055720862 14210766
0.43277553 -0.076740183 0.055117697 14276303
0.44000003 -0.079171166 0.050452482 14868696
0.41776922 -0.061593536 0.056515552 13947338
0.42224637 -0.066042185 0.054374527 14144717
0.40738463 -0.05181019 0.055829048 13749959
0.41326323 -0.05661422 0.054440681 13947338
0.39720005 -0.042065553 0.055237703 13355458
0.40262705 -0.046780851 0.05472206 13618372
0.38778049 -0.032025702 0.055884462 2567461
0.39308104 -0.03677696 0.054471854 10395288
0.38585603 -0.025269985 0.054898165 2238753
0.38688233 -0.01680178 0.055401888 3751220
0.39167449 -0.012216285 0.053629238 11776933
0.39552057 -0.0053497492 0.054972932 12894388
0.39810345 0.0011582746 0.056283429 13025462
0.40286025 0.0060139508 0.054696646 12368301
0.40768424 0.012039092 0.056011032 12105386
0.41336492 0.016658321 0.054426324 12171178
0.41748482 0.022349436 0.056841582 12236972
0.42232859 0.026230186 0.054238938 12105386
0.42681083 0.032626834 0.056495313 12236971
0.43253449 0.036580712 0.054057501 12368556
0.43736115 0.042691808 0.056172028 12566192
0.44303849 0.046701446 0.054103434 12631985
0.44758931 0.053682026 0.056370351 12566193
0.45190322 0.05672954 0.052972391 12236973
0.44900003 0.060059115 0.059893403 12565937
0.45254552 0.061206516 0.056309998 11842986
0.45900002 -0.11052763 0.068390839 14802136
0.46190697 -0.11326683 0.065181941 14933978
0.45724291 -0.10474321 0.065422013 15131100
0.46072724 -0.1077089 0.061358776 15196893
0.44685411 -0.092963159 0.06555412 13947340
0.4522903 -0.098018721 0.064324416 14276048
0.43670735 -0.082323872 0.064985089 13816009
0.44208109 -0.08740928 0.064787515 13947339
0.42637736 -0.072958007 0.065460168 13750215
0.43108699 -0.077788673 0.065048315 13750216
0.41682613 -0.062553376 0.065844648 13815751
0.42140552 -0.067243062 0.064153962 13749958
0.40734097 -0.052363206 0.064500801 13947081
0.41197678 -0.057018906 0.065631911 13947081
0.39655739 -0.04280835 0.065419301 13683654
0.40183333 -0.04756223 0.063791379 13881032
0.38578334 -0.032575898 0.065241724 4803910
0.39241999 -0.037799064 0.064818233 12960188
0.38143185 -0.024879783 0.064713411 2041632
0.38349172 -0.015482676 0.064745352 4935493
0.39000002 -0.010829636 0.06024019 12302506
0.389 -0.009891212 0.066460326 12171436
0.39285821 -0.0049989121 0.064889416 12697266
0.39659795 0.0038110795 0.065514341 12829109
0.40074068 0.0083656823 0.063076846 12236972
0.40486145 0.014350024 0.065433331 12171436
0.41120002 0.018359739 0.06222941 12368301
0.40853846 0.021541664 0.068768047 12434351
0.41429037 0.024795078 0.064888693 12434351
0.42060003 0.028986011 0.061421026 12236972
0.41762504 0.031667035 0.068232358 12565937
0.42382759 0.035442203 0.064793013 12500144
0.42999998 0.039062612 0.060714394 12631730
0.42717239 0.042313024 0.067357466 12763316
0.43305799 0.045840781 0.06433934 12697523
0.44000003 0.049241479 0.061096311 12697777
0.43635902 0.053159218 0.067341954 12631730
0.44459575 0.055758424 0.063177504 12763315
0.44765797 0.063743621 0.067403391 12500145
0.45139998 0.064397931 0.063229911 12237485
0.45882359 -0.11124364 0.07649339 14210512
0.46166658 -0.11534813 0.074653901 14276048
0.45496154 -0.10477264 0.075061001 14407634
0.43833336 -0.090158887 0.078992687 13749961
0.44605169 -0.094366342 0.074598707 13881546
0.45022222 -0.098928124 0.074810319 13815753
0.42900002 -0.080204777 0.078315772 13881802
0.43352464 -0.084020302 0.075223297 14013131
0.44142863 -0.087992333 0.071135975 13684168
0.42498717 -0.074363075 0.075346038 14078668
0.43044448 -0.079131596 0.072755784 14276046
0.40900001 -0.060188524 0.077537119 14012620
0.41534433 -0.064032592 0.074927367 14144460
0.42065001 -0.068895102 0.074821472 14144461
0.40488166 -0.05421697 0.075861998 14078413
0.41146153 -0.058699556 0.072369665 14276046
0.39542544 -0.044178013 0.075374775 13355203
0.4005 -0.04918709 0.073392257 13749704
0.37900001 -0.030487215 0.078504145 2107425
0.38480559 -0.033218246 0.074821137 6776930
0.39147231 -0.038212501 0.074824423 12763066
0.3776997 -0.024466807 0.075431436 1646873
0.38025007 -0.026954411 0.071493126 1975838
0.37791678 -0.016506119 0.075756922 2238495
0.38157147 -0.013426968 0.073707774 6645854
0.38844445 -0.008629757 0.075928383 11776932
0.39110988 -0.0042156181 0.074616797 12171435
0.39453593 0.0047278223 0.074957736 12368815
0.39778572 0.012125674 0.076782212 12303022
0.40174699 0.016408216 0.074378029 12368814
0.40651038 0.024561612 0.075513817 12566193
0.41105887 0.027983969 0.071868867 12631729
0.4088333 0.031078346 0.078302637 12829622
0.41421694 0.034559913 0.075093508 12631986
0.4209412 0.038337354 0.071973771 12763316
0.41744447 0.041451715 0.07821238 12631987
0.42362499 0.045388624 0.074797146 12763572
0.43000001 0.049212877 0.071200207 12631730
0.42706668 0.05249466 0.077358775 12631730
0.43287143 0.055954244 0.074092984 12565938
0.44000003 0.059885304 0.070023388 12565937
0.43702501 0.062705681 0.076577917 12565938
0.44300011 0.066715546 0.073799118 12500658
0.44503576 0.072366476 0.076176204 12040108
0.45825484 -0.11365363 0.085064076 14013134
0.46016669 -0.11673368 0.081850477 14342101
0.44900003 -0.1007618 0.087748006 14342099
0.45308346 -0.10547136 0.084903561 14342098
0.43853852 -0.091543928 0.084716216 13618375
0.44496 -0.096302852 0.085036308 13815753
0.45000002 -0.099669389 0.080832593 14078926
0.4285 -0.080236837 0.084246181 13684167
0.43337688 -0.085840464 0.084922798 13486789
0.41775 -0.070522457 0.087138414 13749703
0.42326155 -0.075071685 0.084312387 13749959
0.40796003 -0.061641045 0.085819118 13683655
0.41433331 -0.066247396 0.084637091 13749448
0.42000002 -0.069673114 0.081097305 13617861
0.39864713 -0.050595496 0.085564524 13486533
0.40271279 -0.055723496 0.084923215 13618118
0.39428431 -0.044502657 0.084887408 13288897
0.37809095 -0.030856647 0.084953159 2042144
0.38476473 -0.034398369 0.085442923 10131346
0.39127594 -0.038472291 0.084727429 12631223
0.37442127 -0.025052764 0.084732309 1911069
0.37460181 -0.015472267 0.084948458 2896938
0.38125005 -0.010921136 0.082425833 11974315
0.38808334 -0.0064856014 0.084732719 11776934
0.39036366 -0.0023231634 0.0843051 11908520
0.39295003 0.0047496827 0.08490435 11579813
0.39693314 0.014649973 0.085170418 11645606
0.40016666 0.019802367 0.082887523 12040364
0.39900002 0.020678699 0.088718273 11316640
0.40259644 0.025000542 0.084917612 11974828
0.40770185 0.032770131 0.085458815 12171951
0.41179997 0.037628155 0.084233552 12369329
0.4158608 0.044111907 0.085129343 12237743
0.42056254 0.048748642 0.083297402 12434866
0.4253293 0.054732904 0.084881343 12303280
0.43016669 0.05921844 0.081717223 12565938
0.43301031 0.0649428 0.084889717 12303280
0.43774995 0.072951645 0.08531221 12369073
0.44029415 0.0761742 0.084983729 12105388
0.45753339 -0.11355744 0.095019147 13684170
0.44900006 -0.10076179 0.09352915 13881548
0.45279109 -0.10574885 0.095047049 13750219
0.43866673 -0.090707049 0.09480001 13157826
0.44447172 -0.095930025 0.094920404 13486789
0.42900002 -0.080204777 0.090869486 13289410
0.43329868 -0.084721476 0.094971284 13092032
0.41731578 -0.071645483 0.095462039 13223618
0.42439216 -0.076216623 0.095043518 13092032
0.40763271 -0.063008316 0.096223168 12763324
0.41285419 -0.06758637 0.09408959 13158081
0.39866671 -0.05042398 0.092844725 13026239
0.40276006 -0.055119675 0.0958554 12566202
0.39434695 -0.044526666 0.094937854 11842737
0.37866667 -0.030607887 0.091585375 1646101
0.38423339 -0.033546213 0.094912373 8684413
0.39107698 -0.038467351 0.095161647 11447979
0.37725866 -0.023679165 0.093736507 1449749
0.38110703 -0.026037097 0.097199105 1186065
0.37373838 -0.014751165 0.095335931 1908758
0.37350005 -0.0094970893 0.096599877 5320231
0.38900003 -0.0055200625 0.090501651 11448483
0.39104757 -0.0022242714 0.092448652 10724762
0.39525005 0.0045168526 0.092302471 9934733
0.40092856 0.0077717872 0.096121654 8487800
0.39823407 0.01500746 0.092119552 9737610
0.40016666 0.011058663 0.095223516 8553336
0.40033337 0.023404466 0.091200858 10856348
0.4120909 0.038636208 0.091717795 10790555
0.41586363 0.043418963 0.092378974 10527383
0.42084616 0.048336986 0.09334854 10658713
0.4265455 0.054616205 0.09241917 10593177
0.43000004 0.058668077 0.093885504 10790554
0.43184221 0.064557925 0.092374198 10725018
0.43731251 0.072641514 0.091988698 11448228
0.44071433 0.077227458 0.091656037 12171182
0.45638463 -0.11203611 0.10196944 12566460
0.44900003 -0.1007618 0.1029892 11908276
0.45222452 -0.10490825 0.1031846 12368826
0.44586274 -0.09542755 0.10394562 12368826
0.45000002 -0.099932753 0.10795914 11382187
0.43429273 -0.084854141 0.10276261 12303287
0.44000003 -0.089471646 0.10556005 12040372
0.41600001 -0.071608871 0.10158139 11974322
0.42525002 -0.076942027 0.1014376 12500666
0.4058001 -0.063216597 0.10174207 10987684
0.41200003 -0.069310509 0.10221834 11513771
0.40352178 -0.05581972 0.10114105 10658720
0.39300001 -0.04173537 0.10026444 9211787
0.40000001 -0.049500015 0.10158212 9474187
0.37440005 -0.030835975 0.10432348 4145208
0.37308088 -0.025240341 0.10474112 923406
0.38000003 -0.02700931 0.10050616 1515030
0.3711383 -0.015165089 0.10492141 1316876
0.40787879 0.0027656225 0.10530791 8947323
0.41000003 0.0025323501 0.10940067 6509386
0.37003565 -0.030879891 0.11485512 2172958
0.36850011 -0.024007715 0.1175915 1449234
0.37022817 -0.025507133 0.11305998 1383698
0.36851072 -0.016802905 0.11776669 1449237
0.37068501 -0.014791809 0.11319834 1514512
0.37100002 -0.0088545093 0.11209441 3742227
0.35408339 -0.030900478 0.12797898 1778456
0.36900002 -0.030114722 0.1200565 789767
0.35485139 -0.025012536 0.12634277 1186576
0.36504102 -0.024469854 0.12195282 1317651
0.35431343 -0.015171223 0.12614615 1186320
0.36471736 -0.016900603 0.12180792 988943
0.3524 -0.009456167 0.12792847 1252113
0.3486667 -0.03017853 0.135749 1449491
0.35157147 -0.030691577 0.13119753 1449491
0.34860715 -0.026568249 0.1358024 1317905
0.35102949 -0.024793869 0.13175395 1383698
0.34900001 -0.014987648 0.1341438 1251856
0.35081032 -0.015688643 0.13156661 1252113
0.35100001 -0.0097466717 0.13063402 1383444
0.34437695 -0.02767566 0.1455861 1515282
0.34 -0.030135818 0.15559211 1712410
0.33710763 -0.02404717 0.15707979 1843735
0.34051514 -0.026269676 0.15273257 1712662
0.33737013 -0.015573785 0.15611351 1580308
0.34000003 -0.012713443 0.15224619 1383186
0.33664283 -0.0081104366 0.15779424 1514260
0.34008336 -0.0078841252 0.15267755 1448467
0.33309147 -0.024378175 0.16508701 2172700
0.33339977 -0.014809281 0.1648421 1712406
0.33348447 -0.0081613697 0.16495387 1711635
0.33103129 -0.022826776 0.17146681 1383955
0.33127272 -0.014861376 0.17078568 988685
0.33142859 -0.0089808106 0.17045629 659718
0.35619998 -0.021064747 0.18943878 595212
0.35612518 -0.015070787 0.18851765 1779225
0.35600024 -0.0060005756 0.18789686 989197
0.35516667 -0.021225544 0.19338755 726541
0.35624358 -0.015268948 0.19468746 1515542
0.35675365 -0.0070705349 0.19445348 726027
0.38717389 -0.03298004 0.2086204 1449235
0.3754667 -0.025962003 0.20923212 1317905
0.3846207 -0.028751712 0.20839225 1515540
0.35816661 -0.013580111 0.20149742 1317907
0.36000001 -0.017160103 0.20266908 528136
0.35730004 -0.0090858694 0.20123275 528904
0.37306845 0.0065649929 0.20686536 660232
0.38517648 0.0088223359 0.20550074 1121295
0.37651858 0.012367221 0.20851912 594696
0.38599014 0.014510331 0.20721145 1186576
0.37826473 -0.033607755 0.2128464 1120271
0.38322222 -0.036202844 0.21142967 1449235
0.37533328 -0.027610814 0.21121633 528135
0.37220001 0.0086615328 0.21066967 331268
0.37506673 0.012832596 0.21064691 463110
0.81900007 -0.22980997 0.33932403 2107934
0.81715393 -0.22840667 0.3463524 2107679
0.80812508 -0.22699432 0.3577562 1120785
0.81396967 -0.22463822 0.35478523 1581337
0.82000005 -0.22193211 0.35173604 2370852
0.81708336 -0.21731479 0.35813305 2436388
0.80684364 -0.22557016 0.36515626 923407
0.81000006 -0.22159591 0.36024612 1120785
0.80857146 -0.21850052 0.36664113 988943
0.81334287 -0.21434194 0.36433613 1712665
0.82000005 -0.21089421 0.36085433 2436132
0.81750005 -0.20833541 0.36692849 2107424
0.80680633 -0.22541071 0.37503198 726285
0.80860007 -0.21894117 0.37325335 857615
0.81200004 -0.21453385 0.3755157 660236
0.81730014 -0.20742206 0.37487701 1647130
0.82050008 -0.2028587 0.37403968 1778204
0.71900004 -0.22783962 0.38878489 8027767
0.72377789 -0.22869033 0.38741019 7764850
0.73439997 -0.22841892 0.38816708 7896435
0.74550003 -0.22925319 0.38914829 7567728
0.80611771 -0.22524664 0.38493624 595470
0.80814284 -0.21838497 0.38725653 661006
0.81207144 -0.2146889 0.38452107 594957
0.81727278 -0.2074936 0.38504648 989201
0.82033342 -0.20233768 0.38500538 1252117
0.69650006 -0.22967757 0.39210778 8027767
0.70537496 -0.22836855 0.39389986 7567984
0.71580005 -0.22821704 0.39263165 7830643
0.72350001 -0.22672501 0.39206326 7567473
0.73049998 -0.2272085 0.39243692 7106920
0.74466676 -0.22812824 0.39220157 6515042
0.75550002 -0.22967836 0.39702362 7304557
0.80479419 -0.22465608 0.39494586 595215
0.80752373 -0.21641479 0.39524189 661006
0.81099993 -0.21179102 0.39398697 661263
0.81590623 -0.20565605 0.39522052 792338
0.81999999 -0.20129605 0.39348808 988435
0.82220578 -0.19520754 0.39488363 4145724
0.73200005 -0.22767505 0.40438253 6910569
0.75400001 -0.22922233 0.40241501 7041126
0.80486673 -0.22489832 0.40506858 660751
0.80771428 -0.21628641 0.40533021 726286
0.81045455 -0.21137081 0.40460309 792079
0.8150937 -0.20473631 0.4050841 857615
0.81900007 -0.19913328 0.40642929 987916
0.82176661 -0.19479842 0.40497962 4277054
0.80493766 -0.22515421 0.41487867 594699
0.80757689 -0.21533148 0.41559297 528649
0.81012499 -0.21072505 0.41387764 462857
0.81352943 -0.20457315 0.414857 791565
0.81900007 -0.19913328 0.41505715 790026
0.8223601 -0.19416866 0.41502586 5987414
0.80530006 -0.2250206 0.4247672 529422
0.80756509 -0.21558453 0.4250859 529165
0.81020004 -0.2106497 0.42634052 529165
0.80900002 -0.20995902 0.42040563 265478
0.81374085 -0.20468882 0.42470208 659981
0.82000005 -0.20129605 0.42996114 330758
0.82322222 -0.19536772 0.42508194 6580836
0.80682135 -0.225513 0.43472219 463372
0.81000006 -0.22159591 0.43988752 661006
0.80850005 -0.21803063 0.43276426 660753
0.81205004 -0.21435681 0.43624854 726290
0.81621438 -0.20691352 0.43425471 725519
0.82110006 -0.20271716 0.43649721 3027759
0.80618179 -0.22609471 0.4452436 595212
0.81085712 -0.22101572 0.44550595 726799
0.81513059 -0.21593866 0.44507697 857617
0.82025003 -0.21143842 0.4478547 593419
0.81900007 -0.20871973 0.44094059 527884
0.82331806 -0.20499401 0.44492877 5396049
0.79900002 -0.22980942 0.45261848 660236
0.80457151 -0.2244079 0.45299059 659979
0.81200004 -0.22024214 0.45237911 857100
0.8154667 -0.21812084 0.45455858 1185553
0.82143748 -0.21342424 0.45607498 4935496
0.8259334 -0.20725888 0.45421323 7961973
0.81900007 -0.2183062 0.46394813 7830388
0.82444447 -0.21342249 0.46435106 7962228
