# .PCD v0.7 - Point Cloud Data file format
VERSION 0.7
FIELDS x y z rgb
SIZE 4 4 4 4
TYPE F F F U
COUNT 1 1 1 1
WIDTH 1279
HEIGHT 1
VIEWPOINT 0 0 0 1 0 0 0
POINTS 1279
DATA ascii
0.78850007 -0.092963338 -0.40059429 16316665
0.78900003 -0.081015207 -0.40269542 16448254
0.78840005 -0.075418025 -0.40238914 16184827
0.78716677 -0.065162428 -0.40175974 15987449
0.79139996 -0.064586103 -0.40577301 15855862
0.78866673 -0.056978524 -0.40252528 15921910
0.78866673 -0.044976905 -0.40067899 15592944
0.78900003 -0.036685694 -0.4008483 15000808
0.78900003 -0.021909187 -0.4008483 14540255
0.78833342 0.0057910834 -0.40050963 13553362
0.78850007 0.017791975 -0.40059429 13158602
0.77900004 -0.10004859 -0.39029694 16580603
0.78677779 -0.10432258 -0.39480999 16119032
0.77633339 -0.094256215 -0.3907783 16711675
0.78480005 -0.095290229 -0.39687729 16250872
0.77675003 -0.085671946 -0.39280638 16711422
0.78500003 -0.084284566 -0.39881614 16514299
0.77550012 -0.075083546 -0.39278173 16645886
0.78166676 -0.076603211 -0.39712265 16514813
0.77800006 -0.065313816 -0.39525983 16120058
0.78000003 -0.060005147 -0.39627591 15988471
0.78440005 -0.054829132 -0.39851132 15987701
0.78300005 -0.040989257 -0.39596704 16119289
0.78480005 -0.034652241 -0.39687729 15198187
0.78359997 -0.025430422 -0.39627045 14474463
0.77800006 -0.014318488 -0.39161724 14013911
0.78485721 -0.014706547 -0.39638352 14079447
0.79000002 -0.012689933 -0.39950696 14145240
0.77750003 -0.0056639053 -0.39136556 13684948
0.78600007 -0.0043513528 -0.39702648 13816276
0.77750003 0.0052604554 -0.39227676 13421774
0.78450006 0.0039263912 -0.39672717 13619153
0.77649999 0.014336843 -0.39222637 13948119
0.78479999 0.014945036 -0.39798275 13092810
0.77900004 0.020312516 -0.3921206 16711165
0.78725004 0.022371188 -0.3971957 14079446
0.79233336 0.028080432 -0.3963584 12960964
0.78842866 -0.19750011 -0.38289204 15790323
0.78687501 -0.1160308 -0.38341907 15592690
0.77433342 -0.10337746 -0.38403329 16579834
0.76800007 -0.095642447 -0.38238767 16711675
0.77314293 -0.095161438 -0.38710421 16580603
0.76516676 -0.0848388 -0.38366616 16580603
0.77149999 -0.085542552 -0.38834536 16711675
0.76354545 -0.07531435 -0.38337043 16580603
0.75900006 -0.066385373 -0.38027647 16580603
0.76412511 -0.064153306 -0.38418829 16580605
0.76350003 -0.055756081 -0.38283071 16580603
0.77160007 -0.053936671 -0.3883957 16580606
0.76775002 -0.047376979 -0.38466042 16580603
0.77000004 -0.042111304 -0.38578773 16580603
0.76300001 -0.032797486 -0.38049436 16711675
0.77116662 -0.034952093 -0.38637224 16580603
0.76900005 -0.024954308 -0.38528672 16580603
0.77050006 -0.027709199 -0.38603824 16580603
0.76900005 -0.016853213 -0.38528672 16580603
0.76200002 0.0091661047 -0.38177952 16711422
0.77400005 0.0056865574 -0.38960379 16513786
0.76400006 0.014920974 -0.38242295 16711166
0.77100003 0.018298991 -0.38628873 16578809
0.77533334 0.02687476 -0.38301459 12763844
0.78700006 0.029733025 -0.38877797 12829637
0.77700001 0.031174192 -0.3802 13027788
0.78700006 0.034526963 -0.38546121 12501444
0.79150003 0.037315279 -0.38822216 12172223
0.78800005 0.042683858 -0.38004833 12698819
0.78612494 -0.19650038 -0.37484887 15461612
0.78825009 -0.12199673 -0.37371066 15066347
0.77512509 -0.11202735 -0.37383941 16448506
0.78375006 -0.11740423 -0.37616324 15461104
0.76537508 -0.10390223 -0.37361422 16711675
0.77183336 -0.10756128 -0.37586656 16711419
0.75733334 -0.094904326 -0.37294066 16711675
0.76157153 -0.095773175 -0.37723592 16711675
0.74900001 -0.087428503 -0.37000597 16711675
0.75433332 -0.084518194 -0.37480268 16711675
0.76000005 -0.087822914 -0.37899831 16711675
0.74780005 -0.075036488 -0.37116376 16711675
0.75600004 -0.074973978 -0.37700355 16711675
0.74700004 -0.065335788 -0.37076667 16711675
0.75400001 -0.06506408 -0.37600622 16711675
0.74880004 -0.05585105 -0.37095875 16711675
0.75490004 -0.054190226 -0.37557644 16711675
0.75300002 -0.045047581 -0.37307072 16711675
0.76060003 -0.044266678 -0.37929755 16711675
0.74900001 -0.034825832 -0.37000597 16711675
0.75760001 -0.035224296 -0.37602788 16711675
0.76175004 -0.035417497 -0.37987101 16711675
0.75550002 -0.025405422 -0.37498561 16711419
0.76060003 -0.024683129 -0.37929755 16711420
0.75350004 -0.013870802 -0.3744342 16711422
0.76025003 -0.016660573 -0.37912297 16711422
0.74614292 -0.0062486152 -0.37133786 16645629
0.75500005 -0.0021081644 -0.3753297 16645629
0.75500005 0.0055454043 -0.37532943 16711422
0.76066667 0.0020263484 -0.37933078 16711422
0.74900001 0.014269996 -0.3711749 16645373
0.75637496 0.015296287 -0.37630743 16645372
0.76100004 0.018061649 -0.37949699 16776702
0.76466674 0.02591305 -0.37475657 15724270
0.76800001 0.0308131 -0.37220034 16185078
0.77266669 0.034015562 -0.37386033 15856370
0.77900004 0.042196352 -0.37206039 14869218
0.78700006 0.045792073 -0.37456331 12435647
0.79033333 0.047744334 -0.37747335 12633026
0.78516674 -0.19598229 -0.36464605 15002343
0.79062498 -0.19107677 -0.36604363 12500672
0.78650004 -0.12288015 -0.36597148 14737636
0.7665 -0.11100391 -0.361606 16711422
0.77433342 -0.11516371 -0.36544934 16514044
0.78200006 -0.11874065 -0.36983189 14803175
0.75799996 -0.10188709 -0.36380577 16711421
0.76290911 -0.10626728 -0.36518452 16711421
0.74833339 -0.090854406 -0.36266994 16711675
0.75352633 -0.095575631 -0.36537084 16711419
0.74608004 -0.085064076 -0.36472201 16711675
0.74479318 -0.075454123 -0.36432055 16711675
0.74526691 -0.065183185 -0.36467329 16711675
0.7464816 -0.055095695 -0.36488134 16711675
0.74700004 -0.044975571 -0.36477441 16711675
0.7463913 -0.035388108 -0.36423776 16711675
0.74546665 -0.025065161 -0.36477336 16711675
0.74381483 -0.014852647 -0.36435127 16711420
0.74309993 -0.0049775429 -0.3644858 16645629
0.74331999 0.004765308 -0.36441875 16316664
0.74458647 0.014910324 -0.36422002 16513785
0.74800003 0.02125527 -0.3633849 16053745
0.75533336 0.025594382 -0.36488464 16119538
0.76200002 0.028788518 -0.36929253 16448503
0.75780004 0.032178827 -0.36193544 15330026
0.76360005 0.035468433 -0.36452395 15790577
0.77000004 0.039906263 -0.36415669 14738402
0.77542859 0.043821197 -0.36309144 13817300
0.78500003 0.047668319 -0.36537191 12435391
0.78833342 0.050083924 -0.36360037 12304314
0.78569698 -0.19559577 -0.35485423 14344411
0.79000002 -0.19023272 -0.35512125 11645620
0.78666669 -0.12436277 -0.354848 14474207
0.76427287 -0.11231326 -0.35396346 16711422
0.77409101 -0.11787255 -0.35504863 16514043
0.75622225 -0.10381667 -0.35459095 16711422
0.76033336 -0.10773785 -0.3578051 16711422
0.74821424 -0.092467807 -0.3542285 16711422
0.75125003 -0.096485965 -0.35616967 16711422
0.7458967 -0.085201263 -0.35522497 16711421
0.7450003 -0.075625233 -0.35494959 16711421
0.74444467 -0.06511306 -0.35468614 16711421
0.74425018 -0.054641753 -0.35459343 16711421
0.74413353 -0.045051884 -0.35453764 16645629
0.74358058 -0.035585705 -0.35497719 16579578
0.74260008 -0.024967462 -0.35467735 16316405
0.742091 -0.014289824 -0.35490626 15855853
0.74106658 -0.004965208 -0.35481083 15329255
0.74142861 0.0044568712 -0.35486019 15461355
0.7447716 0.015190317 -0.35496435 15921906
0.74833339 0.022141451 -0.35478505 14737374
0.75258827 0.026777152 -0.35529926 14540253
0.75677276 0.033104189 -0.35475919 14606303
0.76190007 0.038596414 -0.35408387 14803682
0.76850003 0.041627593 -0.35175392 14408667
0.77399999 0.044401251 -0.35517061 13685201
0.78480005 0.049493775 -0.35425252 11515312
0.78880006 0.051591225 -0.35494986 11383725
0.78600007 -0.1966217 -0.34519807 14673374
0.79045451 -0.19118284 -0.34472716 11842483
0.77900004 -0.12010878 -0.34379375 16316409
0.78729999 -0.1241551 -0.34469146 14211035
0.76316673 -0.11261034 -0.34484184 16711422
0.77409101 -0.11770849 -0.345171 16448250
0.75504005 -0.10553563 -0.34505925 16711422
0.74753326 -0.09484338 -0.34484059 16711422
0.75000006 -0.099835582 -0.34943083 16711422
0.74596691 -0.085328966 -0.34493324 16711422
0.74494147 -0.07582479 -0.34471461 16711422
0.74406666 -0.065079622 -0.34492487 16711422
0.74400002 -0.054623093 -0.34489372 16711422
0.74400008 -0.045043655 -0.3448936 16711422
0.74368572 -0.03532552 -0.34549281 16579323
0.74300015 -0.024980612 -0.3452968 16250099
0.74252784 -0.014535208 -0.34507817 15986926
0.7421 -0.0049717408 -0.34488052 16184308
0.74177784 0.0045820838 -0.34473202 15986929
0.74458838 0.015165796 -0.34485862 14803167
0.74790013 0.02212867 -0.34495187 14737886
0.75223529 0.026661918 -0.34518787 14671837
0.75670838 0.033316184 -0.34473002 14869472
0.76075011 0.038759682 -0.34508866 15132389
0.76575005 0.041478634 -0.34511876 14013908
0.77358335 0.04537994 -0.34592971 12633024
0.78600007 0.04993568 -0.34688127 11119525
0.79275 0.052453883 -0.34544888 11120038
0.78650004 -0.19668187 -0.33493635 14935776
0.79109091 -0.19133607 -0.33473447 11842742
0.77900004 -0.12010878 -0.33832282 16579837
0.78718185 -0.12422058 -0.33492351 14079195
0.76180005 -0.11139498 -0.33566493 16711422
0.77210009 -0.11633589 -0.33532369 16645629
0.75553852 -0.10534319 -0.33486155 16711422
0.7470572 -0.094950385 -0.33506805 16711422
0.75000006 -0.099835582 -0.33099529 16711422
0.74523091 -0.085379191 -0.33479506 16711422
0.74428135 -0.07533583 -0.33489636 16711422
0.7439999 -0.065073408 -0.33531424 16711422
0.7439999 -0.054623097 -0.33531424 16711422
0.74416661 -0.04505327 -0.33538845 16711422
0.74490011 -0.035331827 -0.33510715 16447992
0.74476349 -0.025223797 -0.33533511 16381943
0.74397212 -0.014564133 -0.33530098 16513272
0.74273336 -0.0049774647 -0.3347432 16644859
0.74177778 0.0045813033 -0.33431169 16316147
0.74434286 0.01503313 -0.33474424 14869215
0.74775004 0.022124097 -0.33525252 14934754
0.75188887 0.026649067 -0.33476034 14606045
0.75703335 0.034217834 -0.33486563 15066850
0.76000005 0.039388001 -0.33629814 14409433
0.76530004 0.042353913 -0.33505362 13159366
0.77400005 0.045549411 -0.33886921 10922661
0.78300005 0.047912076 -0.33181146 10922659
0.78866673 0.050105099 -0.33667326 11054245
0.78666675 -0.19685915 -0.32490602 14474970
0.7912727 -0.19154841 -0.32470596 11908534
0.78625005 -0.12422047 -0.32536095 14079194
0.7650001 -0.11337715 -0.32397655 16645629
0.77345467 -0.11761101 -0.32529089 16448251
0.75574082 -0.10578475 -0.32490936 16711422
0.74744445 -0.093859531 -0.3249096 16711422
0.75025004 -0.099210449 -0.32429913 16711422
0.74581271 -0.085366435 -0.32494384 16711422
0.7446391 -0.07558991 -0.32514223 16711422
0.7439999 -0.065073408 -0.32486388 16711422
0.7439999 -0.054623101 -0.32486382 16711422
0.74476683 -0.045089059 -0.32519853 16645629
0.74581265 -0.035768248 -0.3251093 16579836
0.74482381 -0.024838274 -0.32496792 16711422
0.74352938 -0.014760745 -0.32491523 16645372
0.74239993 -0.0049748425 -0.32503524 16579322
0.74302858 0.0047157714 -0.324563 16184562
0.74583793 0.015111038 -0.32493177 14803166
0.74879998 0.021628685 -0.32748508 14869218
0.75224006 0.025324957 -0.32462093 14606046
0.75711769 0.034602232 -0.32501355 14935266
0.76328576 0.041859508 -0.32651922 12830144
0.77100003 0.043567937 -0.32311636 10856868
0.78900003 0.050126277 -0.32234818 10922659
0.78774995 -0.19637139 -0.31530359 14540251
0.79180002 -0.19159205 -0.31515151 11974070
0.78616667 -0.12505262 -0.31474265 14013399
0.76344454 -0.11314615 -0.31517971 16645629
0.77380002 -0.11840338 -0.31523407 16316409
0.75473082 -0.10591222 -0.31500429 16711422
0.74762952 -0.094725899 -0.31455314 16711422
0.75000006 -0.099396639 -0.318266 16711422
0.74633336 -0.084259562 -0.31500283 16711422
0.74526691 -0.074780665 -0.31494781 16711422
0.74463922 -0.065129451 -0.31468201 16645629
0.74466681 -0.054671723 -0.31469357 16645629
0.74510014 -0.045109864 -0.31487799 16645629
0.74561143 -0.035541788 -0.31509462 16645629
0.74466687 -0.025037818 -0.31469497 16645629
0.74339467 -0.014370727 -0.31447649 16513274
0.74179995 -0.0049707452 -0.31521988 16250102
0.74357152 0.0046713338 -0.31465378 15789036
0.74699998 0.015008352 -0.31511417 14737372
0.75217861 0.024963958 -0.31503943 14606043
0.75676471 0.035003528 -0.31475303 14935267
0.76342863 0.04135289 -0.31457597 13488331
0.77600002 0.045667108 -0.31067875 10791073
0.78383332 0.048883472 -0.31289569 10922659
0.78850007 0.051018044 -0.31568152 10922659
0.78785717 -0.19621338 -0.30506119 14540253
0.79108334 -0.19141851 -0.30467942 12105655
0.77760005 -0.1217133 -0.30585775 13882070
0.78699994 -0.12586635 -0.30452836 13947863
0.75900006 -0.1116946 -0.30209586 16711422
0.76370007 -0.11400038 -0.30592313 16579580
0.7725001 -0.11843032 -0.30475438 15460845
0.74880004 -0.10142878 -0.30504876 16711422
0.75418186 -0.1064992 -0.30506986 16711422
0.74671435 -0.09490554 -0.30494782 16711422
0.74553353 -0.08527948 -0.30459088 16711422
0.74502808 -0.075628027 -0.30438331 16645629
0.74588913 -0.065238036 -0.30473474 16645629
0.74600023 -0.054769948 -0.30478036 16645629
0.74600023 -0.045164742 -0.30478045 16579836
0.7459169 -0.035556063 -0.30474606 16579836
0.74482381 -0.025247674 -0.30455625 16579836
0.7440908 -0.014327558 -0.30439565 16316666
0.74400008 -0.0049842903 -0.30483103 16184823
0.74476331 0.0044187889 -0.30459395 15921650
0.74722856 0.014989451 -0.3051568 15000803
0.75196546 0.024832742 -0.3049401 14869217
0.75725001 0.03326603 -0.30553409 15461609
0.76116675 0.038558684 -0.3042908 14146005
0.7676 0.041578844 -0.30551505 14277334
0.77438456 0.044459343 -0.30445033 11448490
0.78400004 0.048308875 -0.30486745 11053986
0.78850007 0.051325109 -0.30614516 10922913
0.78800005 -0.19712833 -0.29488212 14804453
0.7924211 -0.19227543 -0.29449853 11316911
0.78516674 -0.12290039 -0.29504064 13750227
0.75900006 -0.1116946 -0.29765373 16711420
0.76336366 -0.11347619 -0.29456559 16448250
0.77361542 -0.11802737 -0.29495281 14802660
0.74816674 -0.10134301 -0.29515573 16711422
0.7545417 -0.10663056 -0.29501745 16711421
0.74612504 -0.095174424 -0.29489729 16711422
0.7447201 -0.085186549 -0.29466859 16711422
0.74460012 -0.075583063 -0.29462105 16711422
0.74523354 -0.065180466 -0.29487261 16645629
0.74560028 -0.054740567 -0.29501832 16645629
0.74552017 -0.04513596 -0.29498667 16711422
0.74536687 -0.03552971 -0.29492572 16711422
0.74459386 -0.024817657 -0.29494533 16579836
0.74451536 -0.01480967 -0.29506272 16250617
0.74532014 -0.0049921568 -0.29490551 16316665
0.74600017 0.0047497642 -0.29500514 16250358
0.7477777 0.015125111 -0.29500329 15460841
0.75214815 0.024963832 -0.29513001 15264233
0.75688893 0.032436769 -0.29535019 15856368
0.76314294 0.03789746 -0.29582796 14606299
0.77000004 0.039906263 -0.29205334 14079953
0.77477783 0.042977665 -0.29647863 12106163
0.78660005 0.046661966 -0.29521447 10856352
0.79000002 0.048340406 -0.29409096 10988708
0.78845459 -0.19824995 -0.28478977 15527914
0.79339302 -0.19283226 -0.28473687 12171962
0.78718185 -0.12220985 -0.28449389 13683921
0.76391673 -0.11167622 -0.28511742 16250104
0.77500004 -0.11677315 -0.28487369 14933988
0.74900001 -0.10145589 -0.28759512 16711422
0.75534785 -0.10555235 -0.28487799 16645882
0.74644452 -0.094997279 -0.28515539 16711421
0.74521893 -0.08491452 -0.28505203 16711422
0.74508852 -0.075377956 -0.28542572 16711422
0.7450003 -0.065160863 -0.28518721 16711422
0.74419451 -0.054638192 -0.28488013 16711422
0.74379998 -0.045031548 -0.28472954 16711422
0.74444455 -0.035485137 -0.28497624 16711422
0.74425 -0.025023125 -0.28490105 16645629
0.74452788 -0.014572407 -0.28500688 16514043
0.74483359 -0.0049899733 -0.28512457 16579836
0.74517149 0.0044788853 -0.28513011 16447993
0.7472257 0.015254913 -0.28499576 15592169
0.74900001 0.022257809 -0.28311414 15198183
0.75066674 0.02582385 -0.28579471 15724784
0.75637501 0.033008132 -0.28467003 15592939
0.7667501 0.039292451 -0.28453973 13553352
0.77400005 0.041925516 -0.28994662 12698043
0.78680003 0.047778465 -0.28406328 10922658
0.78900003 0.050126277 -0.28171277 10922659
0.78850007 -0.19817747 -0.27507359 15789027
0.793926 -0.193096 -0.27476037 12697016
0.7638182 -0.11143191 -0.27507302 16052725
0.7751112 -0.11668902 -0.27503908 15526126
0.74900001 -0.10145588 -0.27093759 16645882
0.75478947 -0.10503848 -0.27530479 16514041
0.74676472 -0.094832651 -0.27511722 16711419
0.74537522 -0.084932983 -0.27508089 16711421
0.74502969 -0.075371772 -0.27452865 16711422
0.7450003 -0.065160871 -0.27472281 16711422
0.74427271 -0.054882649 -0.27484941 16711422
0.74307996 -0.044988517 -0.27488372 16711422
0.74363339 -0.035445213 -0.27508965 16514043
0.74400002 -0.025013905 -0.27522495 16316664
0.74400002 -0.014563604 -0.27522495 16448250
0.74340004 -0.0049816356 -0.2750043 16645372
0.74380642 0.0047373492 -0.2749857 16447733
0.74659997 0.014976607 -0.27518809 15526376
0.74881244 0.022812599 -0.27481386 15132132
0.75140005 0.027217228 -0.27444246 15592940
0.75685006 0.032762013 -0.27510449 15066596
0.76291674 0.038055342 -0.27477965 13159109
0.77530009 0.043450408 -0.27554733 10724767
0.7840001 0.047242165 -0.27478379 10922146
0.78866673 0.050926015 -0.27554142 11119268
0.78850001 -0.19817746 -0.26492119 14867158
0.79291308 -0.19310585 -0.26507142 12499379
0.78541678 -0.12202048 -0.26480186 13684176
0.76408333 -0.11155191 -0.26476225 16185079
0.7743637 -0.11659405 -0.26519716 15460333
0.74759996 -0.10126625 -0.26430517 16711675
0.75466675 -0.10576282 -0.26473859 16579834
0.74588251 -0.095130458 -0.26482794 16645882
0.74484003 -0.085199803 -0.26507315 16645883
0.74490029 -0.075614564 -0.26509461 16645629
0.74500018 -0.065160871 -0.26513052 16579579
0.74463642 -0.054433413 -0.26547557 16382200
0.74393338 -0.045039851 -0.2656213 16382200
0.74397212 -0.035462726 -0.26563543 16514043
0.7439999 -0.025013905 -0.26564553 16645629
0.74380547 -0.014560352 -0.26557708 16645372
0.74313337 -0.004979521 -0.26533553 16579322
0.74388576 0.0044723158 -0.26547894 16315890
0.74668562 0.015228125 -0.26498109 15328993
0.74900001 0.021283684 -0.26480061 14935007
0.75186366 0.025769152 -0.26493078 15329765
0.75750005 0.03194524 -0.26558861 15329510
0.76286674 0.036325779 -0.26469946 13816529
0.77033335 0.039322678 -0.26573098 11645618
0.77500004 0.041843001 -0.26464117 10527135
0.78585714 0.046119276 -0.26508135 10921888
0.79033333 0.048360806 -0.26276112 10987937
0.78850007 -0.19817746 -0.25476879 13816524
0.79318535 -0.19291727 -0.25483429 12566199
0.76430005 -0.11158378 -0.25499758 16119030
0.77463645 -0.11679998 -0.25523421 16118005
0.74900001 -0.10145588 -0.25866362 16711675
0.75476199 -0.10510534 -0.25463486 16514296
0.74652785 -0.095008627 -0.254895 16711419
0.7450335 -0.085221514 -0.25554946 16580090
0.7450003 -0.075625233 -0.25553817 16514041
0.7450003 -0.065160863 -0.25553814 16513784
0.74483365 -0.054685131 -0.25548145 16514042
0.74400002 -0.045043655 -0.2551952 16645629
0.74322224 -0.035428178 -0.25492889 16645629
0.74288893 -0.024977136 -0.25481451 16645629
0.74212128 -0.014764403 -0.25494701 16579836
0.7428965 -0.0048559196 -0.25496814 16645373
0.74416673 0.0045982697 -0.2552529 16316406
0.74655885 0.01520396 -0.25488988 15197665
0.74900001 0.021283684 -0.25515679 14934752
0.75234789 0.025825532 -0.25518531 15526888
0.75816673 0.031306986 -0.25472897 15198180
0.76345462 0.035182733 -0.25512329 13487565
0.77099997 0.038153168 -0.25542974 13750993
0.77583343 0.040816467 -0.25642762 10790050
0.78638464 0.044866245 -0.2545099 10790557
0.79079998 0.048389357 -0.25551289 10988193
0.78900003 -0.19876549 -0.24569502 14540248
0.79400009 -0.19379775 -0.24480847 12303286
0.76349998 -0.11146665 -0.24490143 16184823
0.7741819 -0.11656687 -0.24519871 16118262
0.74900001 -0.10145588 -0.24375954 16711675
0.75417662 -0.10548681 -0.24492191 16580089
0.74709368 -0.094860122 -0.24521543 16645882
0.74590349 -0.085152455 -0.24522933 16645882
0.7450003 -0.075500667 -0.24519838 16645882
0.74566692 -0.065218203 -0.24529211 16711420
0.74513918 -0.054707468 -0.24511907 16711422
0.74416661 -0.045054447 -0.24479921 16645629
0.7438333 -0.035456654 -0.24468923 16711422
0.74316669 -0.024987519 -0.24446991 16645629
0.74180001 -0.014497563 -0.24503629 16514043
0.74188459 -0.0051030633 -0.24511732 16579836
0.7436111 0.0045962036 -0.24461715 16316405
0.74624246 0.014856984 -0.24508494 15132130
0.74900001 0.021985054 -0.24393487 14935009
0.75247371 0.026301492 -0.24534953 15527402
0.75849998 0.031320363 -0.24507563 14672092
0.76333332 0.035096042 -0.24484836 13553611
0.77100009 0.038153168 -0.24460369 14080211
0.77587509 0.040894613 -0.24410079 10658974
0.78647065 0.045856401 -0.24490242 10790558
0.79000002 0.048340406 -0.24785581 11053729
0.78900003 -0.19922726 -0.23461266 15262943
0.79406679 -0.19398804 -0.23518704 12237236
0.76400006 -0.11153965 -0.23522368 16184054
0.77463645 -0.11679998 -0.23528643 15789039
0.74900001 -0.10145588 -0.23586914 16711675
0.75384992 -0.10529697 -0.23421602 16514296
0.74752766 -0.095133871 -0.23540521 16711675
0.74683326 -0.084553666 -0.23518626 16711675
0.74606687 -0.074860528 -0.23494509 16711675
0.74605578 -0.065253526 -0.23494217 16711675
0.74533361 -0.054722294 -0.23471519 16711420
0.74442303 -0.045204777 -0.23509794 16645629
0.74383336 -0.035456769 -0.23511347 16645629
0.74353331 -0.024998374 -0.23501852 16514043
0.74255896 -0.014332446 -0.23532329 16579836
0.74186677 -0.0049700211 -0.23536031 16645629
0.74279994 0.0045913891 -0.2347876 16382455
0.74611437 0.015217308 -0.23508595 15066594
0.74880004 0.022154713 -0.23493037 15066852
0.75223535 0.026558498 -0.23486851 15724781
0.75788885 0.030999711 -0.23561448 14606300
0.76292312 0.03432316 -0.23468567 13750989
0.77160007 0.038182855 -0.23485532 14079954
0.77483338 0.040156756 -0.2349339 11185317
0.78571439 0.04493206 -0.23520744 10790557
0.79000002 0.048340406 -0.23213589 10987936
0.78877783 -0.19835022 -0.22490416 13748420
0.79244006 -0.19355965 -0.22539651 11973808
0.76391673 -0.11152739 -0.22536218 15986931
0.7745834 -0.11670968 -0.22488354 15920368
0.75440907 -0.10492725 -0.2247224 16382712
0.74761099 -0.095144831 -0.22493093 16711675
0.74657148 -0.084649764 -0.22474329 16645882
0.74536014 -0.074790351 -0.22512744 16580089
0.74463326 -0.065129705 -0.22490819 16645882
0.74433333 -0.054647889 -0.22481707 16711675
0.74375862 -0.044909492 -0.22536376 16711420
0.74261117 -0.035399113 -0.22516626 16711422
0.74202782 -0.024948286 -0.22498934 16579836
0.7415278 -0.014517128 -0.22483706 16579836
0.73860008 -0.0041415785 -0.22343062 16711422
0.74040002 -0.006174325 -0.22744107 16711422
0.73869991 0.0016230544 -0.22363384 16711421
0.74199998 0.0062103518 -0.22569656 16185074
0.7457059 0.015187225 -0.22492136 14934750
0.74860001 0.022675056 -0.22470221 15066340
0.75238472 0.027208457 -0.22548461 15526890
0.75799996 0.030411886 -0.22450741 13882322
0.76333338 0.033848044 -0.22519045 13750731
0.77233338 0.037618026 -0.22423366 13553352
0.77700001 0.040269047 -0.22467369 10461081
0.78638458 0.043874368 -0.2254777 10724764
0.79159999 0.047698081 -0.22445019 10856350
0.78850001 -0.19817746 -0.21508206 13024436
0.79150003 -0.19337042 -0.21497396 11973807
0.76450008 -0.11161322 -0.21479446 15855343
0.77545458 -0.11675928 -0.21473831 15920368
0.74900001 -0.10145589 -0.21219794 16711675
0.75489473 -0.10523879 -0.21544398 16316917
0.74723327 -0.09509632 -0.21519686 16645882
0.74588013 -0.085319608 -0.21480712 16645882
0.74441677 -0.07556767 -0.21525648 16645882
0.74308336 -0.064995222 -0.21487157 16711675
0.74250013 -0.054511603 -0.21470271 16711675
0.74300003 -0.044983122 -0.21484654 16579832
0.7426945 -0.03540279 -0.21475711 16382198
0.7418856 -0.025069242 -0.214647 16316664
0.73877776 -0.011098767 -0.21353005 16711422
0.74080962 -0.015947063 -0.21549317 16514043
0.7373572 -0.0051266858 -0.21525112 16711422
0.73788899 0.002255413 -0.21509783 16711165
0.74193341 0.0074211648 -0.21529183 15724011
0.74551529 0.014842698 -0.21517684 14803164
0.74825001 0.022796033 -0.21505044 14737885
0.75339997 0.027173707 -0.2144995 14540763
0.75880009 0.030443987 -0.21497345 13488075
0.76458335 0.033364289 -0.21481569 13817039
0.77400011 0.03747971 -0.21515919 13027266
0.78528583 0.04201629 -0.21551462 10330008
0.78850007 -0.19817747 -0.20492968 13089973
0.79143482 -0.19323397 -0.20496681 11973807
0.76490009 -0.11167209 -0.20505925 15328487
0.77609098 -0.1170202 -0.20484389 15788525
0.74820006 -0.10134753 -0.20496602 16580089
0.75464702 -0.10576124 -0.20496169 16119026
0.7460835 -0.094950512 -0.20525897 16645882
0.74493355 -0.085210375 -0.20494288 16711675
0.74419427 -0.075544253 -0.20473959 16711675
0.7438333 -0.065059684 -0.20463939 16645882
0.74327773 -0.054570261 -0.20448604 16580090
0.74373341 -0.045027278 -0.20461075 16514041
0.7433055 -0.035432439 -0.20449409 16448248
0.73900002 -0.021212777 -0.2020988 16645629
0.74176919 -0.025476348 -0.20554096 16514043
0.73717248 -0.014284891 -0.20474356 16645372
0.741 -0.018263383 -0.20935325 16579836
0.73455554 -0.0047312644 -0.20505084 16579835
0.73585194 0.0038164726 -0.20477277 16250611
0.74050003 0.0084743928 -0.20718953 14868957
0.7447353 0.015272085 -0.20514518 14803678
0.74850005 0.022146188 -0.20504728 14672092
0.75464714 0.026749589 -0.20495975 14080212
0.76249999 0.03148729 -0.20530796 13422794
0.77300012 0.036340624 -0.20515834 13159365
0.78592312 0.042292953 -0.20453943 10593179
0.78900003 -0.19876549 -0.19582433 13090743
0.78590912 -0.12218025 -0.19455472 13486026
0.76508331 -0.11169868 -0.19525595 15459817
0.77445465 -0.11660786 -0.1945212 15591404
0.74880004 -0.10142878 -0.19636375 16514040
0.75516677 -0.10573587 -0.19488703 16052977
0.74622238 -0.094969325 -0.19481471 16645882
0.74442303 -0.085287064 -0.19501568 16580089
0.74400002 -0.075523704 -0.19510593 16514039
0.74350005 -0.065031424 -0.19497482 16448246
0.74300003 -0.054549679 -0.19484372 16514296
0.74356002 -0.04501636 -0.19499147 16580089
0.74280012 -0.035409346 -0.19479242 16645629
0.73825002 -0.022337202 -0.19403055 16513529
0.74089473 -0.027238632 -0.19575328 16645372
0.73485303 -0.014185531 -0.19503529 16579323
0.73309988 -0.0049115266 -0.19482231 16447480
0.73408568 0.0044150306 -0.19496255 15921646
0.73871428 0.011109634 -0.19421445 14672090
0.74361539 0.016248845 -0.19500372 14737883
0.74783331 0.022126853 -0.19523583 14803676
0.75533342 0.026773602 -0.19483112 14145747
0.76341671 0.031525623 -0.19483213 13291209
0.77358836 0.036581114 -0.19497962 11909555
0.78572237 0.04277052 -0.19500728 10659229
0.78900003 -0.19922726 -0.18474194 11447721
0.78550005 -0.12203334 -0.18483894 13683403
0.76470006 -0.11164196 -0.18531486 15591401
0.77450007 -0.11669701 -0.18497303 15525610
0.74900001 -0.10145587 -0.1850199 16513526
0.75488234 -0.1056897 -0.1850647 16184049
0.74628139 -0.095195435 -0.18489414 16579832
0.74417251 -0.085003562 -0.18541911 16645882
0.74383324 -0.075507052 -0.18548578 16645882
0.74374992 -0.06505242 -0.18546389 16580089
0.74319446 -0.054564886 -0.1853258 16448503
0.74260002 -0.044959448 -0.18517908 16645882
0.73880005 -0.031930488 -0.1826735 16711420
0.74118513 -0.036199253 -0.18575798 16711419
0.73676676 -0.024487179 -0.18464471 16579322
0.74000001 -0.029210305 -0.18885991 16711422
0.73422211 -0.014374352 -0.18480872 16447480
0.73306888 -0.0049112509 -0.18466505 16513273
0.73352766 0.0045333067 -0.18463212 15790060
0.73790002 0.011295648 -0.18573177 14540504
0.74391997 0.016408509 -0.18463409 15066591
0.74816674 0.021260006 -0.18481152 15066591
0.7547369 0.025172738 -0.18536212 14343125
0.76050007 0.028731849 -0.1842988 14080210
0.76558334 0.031615678 -0.18462931 14080467
0.77464288 0.036004957 -0.18539362 12106419
0.78150004 0.03867276 -0.18389764 10461335
0.7870909 0.041798659 -0.18613453 10856093
0.784091 -0.12173156 -0.17491497 13354693
0.76333338 -0.11144194 -0.17515744 15394536
0.7736364 -0.11664942 -0.17521799 15329000
0.74871433 -0.10191816 -0.17405772 16315637
0.75480008 -0.10601713 -0.1753161 15657452
0.74597079 -0.094731145 -0.17528285 16514297
0.74420011 -0.085126981 -0.17512326 16711675
0.74333328 -0.075457603 -0.17491931 16645882
0.74305558 -0.064990923 -0.17485422 16645883
0.74220002 -0.05461679 -0.17477819 16711419
0.73874998 -0.043212924 -0.17232788 16645625
0.74082357 -0.04556632 -0.17631887 16645882
0.7373032 -0.034808133 -0.17488934 16447989
0.74000001 -0.039604425 -0.1784658 16711675
0.73448563 -0.024818739 -0.17468069 16447476
0.73276669 -0.01434617 -0.17500727 16579322
0.73169237 -0.0049020653 -0.17494851 16579321
0.73325008 0.0047492404 -0.1747992 15724523
0.73799998 0.010605081 -0.17539196 14540504
0.74403459 0.015803691 -0.17493324 14738139
0.74900001 0.021283684 -0.17449935 14672346
0.75552934 0.025012698 -0.17513344 14080723
0.76083344 0.028744442 -0.17547452 13949651
0.76500005 0.030692736 -0.1746425 13949394
0.77425009 0.034694191 -0.1749409 13422280
0.78479999 0.038836062 -0.17640726 10790557
0.78880006 0.040880598 -0.1754612 10658971
0.77900004 -0.12010878 -0.16781126 14407380
0.78545469 -0.1227799 -0.16418275 13354692
0.76233333 -0.11139439 -0.1650122 15459814
0.77281815 -0.11636174 -0.16516201 15394277
0.7484445 -0.10196511 -0.16590115 16184305
0.75493342 -0.10662448 -0.16427523 15526120
0.74605572 -0.094947264 -0.16508064 16316660
0.74436677 -0.08514642 -0.16470715 16579833
0.74327779 -0.075451761 -0.16446634 16645882
0.74287885 -0.06521295 -0.16477337 16645882
0.74123991 -0.055290438 -0.16488281 16316150
0.73800021 -0.04529319 -0.16482233 16118255
0.74000001 -0.049998544 -0.16893786 16645370
0.73530555 -0.035052598 -0.16442268 16184305
0.7334193 -0.024521563 -0.16502668 16381427
0.73166686 -0.014324456 -0.16532364 16447221
0.72880006 -0.0031764298 -0.16245744 16513269
0.73049992 -0.0057492433 -0.16617137 16579319
0.72900003 0.00066278741 -0.16173346 16710648
0.73186678 0.0048104003 -0.16548215 16118254
0.73742861 0.010844013 -0.16428314 14934747
0.74451858 0.016257282 -0.16515855 14868954
0.74900001 0.021283684 -0.16836238 14803419
0.75509524 0.024242477 -0.16510096 14145746
0.76183337 0.028782221 -0.165004 14079953
0.7665 0.03105296 -0.16421841 14079953
0.77340007 0.034655523 -0.16539757 13158851
0.78200006 0.038697504 -0.16296549 10526874
0.78800005 0.041146979 -0.16483271 10724765
0.77900004 -0.12010878 -0.15595749 13814990
0.78640002 -0.12401353 -0.15467963 13420488
0.76300007 -0.11147452 -0.15494622 15459301
0.77372724 -0.11699438 -0.15399241 14933471
0.74900001 -0.10145589 -0.15784185 16052465
0.75440907 -0.10516507 -0.15472321 15789037
0.74619448 -0.094965875 -0.15462965 16316405
0.74411547 -0.085251957 -0.15486953 16382454
0.74250001 -0.075372651 -0.15473461 16580089
0.74193943 -0.064656809 -0.15509166 16645882
0.74143738 -0.05497903 -0.15516236 16645625
0.73876202 -0.044974346 -0.15675439 16184046
0.74030775 -0.046020158 -0.15254337 16381682
0.73714721 -0.035344698 -0.15473272 15921131
0.73308337 -0.024650484 -0.15534543 15855338
0.72900003 -0.010686117 -0.15157919 15789289
0.73093569 -0.014889004 -0.15536062 15986668
0.72767997 -0.0048096525 -0.1544394 16118511
0.73000002 -0.0083082551 -0.1581102 16118511
0.72781259 0.0020479928 -0.15476218 16513268
0.73138893 0.0070875096 -0.15498787 15855337
0.73620003 0.011442816 -0.15514559 14803417
0.74465227 0.016846556 -0.15495253 14869210
0.75521052 0.023420211 -0.15551651 14014159
0.76172733 0.027969288 -0.1546848 13750988
0.76683336 0.030766293 -0.15531434 13553609
0.77326316 0.034840126 -0.15466361 13553609
0.78000003 0.038598534 -0.15570121 11777712
0.78633338 0.041572638 -0.15425552 10527643
0.79339999 0.046695773 -0.15481721 10791071
0.77900004 -0.12010878 -0.14592741 13091267
0.78658324 -0.12296859 -0.14504443 13486025
0.76274997 -0.1113561 -0.1446643 15262946
0.77369237 -0.11692599 -0.14576727 14407127
0.78000003 -0.11843696 -0.14063676 13222853
0.75626081 -0.10498481 -0.14497429 15657959
0.76000005 -0.10828342 -0.14058904 15197409
0.7468847 -0.094313331 -0.14522304 15921389
0.75042862 -0.099390984 -0.1433353 15460581
0.74465525 -0.08505927 -0.1454428 16316404
0.74341661 -0.075465769 -0.14535004 16250611
0.74272233 -0.064961717 -0.14521438 16316661
0.74227786 -0.054497372 -0.1451291 16382453
0.73900002 -0.041280918 -0.14535439 16447990
0.74087995 -0.045549765 -0.1446829 16579833
0.7373237 -0.035049606 -0.14502273 15723496
0.74000001 -0.039604425 -0.14035402 15986925
0.73330557 -0.024658153 -0.14509201 14868186
0.72900003 -0.010430127 -0.14722735 15592167
0.73087519 -0.014789444 -0.14423667 14736856
0.72796303 -0.0045628524 -0.14557987 15263457
0.73033333 -0.0054634199 -0.14051513 13816268
0.72817659 0.0018413952 -0.14552978 15592422
0.73095238 0.0063500595 -0.14401621 14540247
0.73556256 0.011972615 -0.14499943 14869210
0.74500006 0.016764088 -0.14540493 14869210
0.75340003 0.019293841 -0.14183322 13816780
0.75675005 0.022391548 -0.14588778 13487559
0.76342112 0.026778782 -0.14451049 13619402
0.76900005 0.030853223 -0.14585438 13619402
0.77435011 0.034790676 -0.14487539 13487816
0.78033334 0.038615029 -0.14495829 11316647
0.78691667 0.041705742 -0.14464469 10593179
0.76350003 -0.11056945 -0.13855368 14211284
0.77390003 -0.11298178 -0.13645309 14276820
0.78583336 -0.11533672 -0.13478662 12171444
0.75642854 -0.10271882 -0.13676198 14803421
0.76361537 -0.10536048 -0.1341024 13882575
0.773875 -0.10595927 -0.13137718 12632250
0.78400004 -0.10803217 -0.13034582 10658717
0.74792856 -0.093057834 -0.13747911 15197412
0.75500005 -0.095382087 -0.13360862 13487307
0.76133341 -0.095106564 -0.13043845 11908786
0.77200001 -0.099149555 -0.13015801 11908784
0.74680775 -0.084617741 -0.13646494 14934237
0.75415391 -0.08558248 -0.13203417 12895422
0.76100004 -0.086156964 -0.13008493 11710632
0.74574095 -0.075215958 -0.13639635 14802649
0.75436366 -0.075210273 -0.13151607 12961216
0.74525827 -0.065042719 -0.13594423 14408404
0.75290006 -0.065848909 -0.13134077 12829627
0.74511123 -0.054706112 -0.13521188 14276561
0.75333333 -0.055311069 -0.13053797 12237233
0.74376667 -0.045030076 -0.13496722 14671320
0.75100005 -0.048983663 -0.13013364 13027262
0.73828566 -0.032352842 -0.1387935 15789033
0.74325001 -0.035809021 -0.13438386 13947856
0.73588014 -0.024295503 -0.13674293 14342102
0.74335295 -0.025656655 -0.13228539 12303546
0.73434627 -0.014640201 -0.13636646 12632251
0.74343747 -0.014117675 -0.13208307 11053221
0.73459995 -0.0049213013 -0.13674335 11316134
0.74466664 -0.0049875309 -0.13251932 9736592
0.75250006 -0.00239809 -0.13039356 10658460
0.73461908 0.0041697524 -0.13711639 10790048
0.74522221 0.0046017985 -0.13348909 10723741
0.75488889 0.0055492688 -0.13139483 12171955
0.73650002 0.010583525 -0.13882636 11711405
0.74559999 0.012810908 -0.13739805 12106162
0.7564376 0.015190375 -0.13516898 12698555
0.76146668 0.01652937 -0.13182682 13027778
0.75900006 0.021567848 -0.13862722 13553609
0.76444447 0.025175298 -0.13497792 13356230
0.77100003 0.02912854 -0.1308907 12106163
0.77415007 0.03323992 -0.13522932 13158851
0.7856667 0.037859563 -0.13348104 12237749
0.78866673 0.040873688 -0.13665976 10263959
0.77750003 -0.10258673 -0.12926516 12040370
0.78600001 -0.10493631 -0.12914301 9671822
0.76850003 -0.092403881 -0.12956792 11974576
0.77362508 -0.095283724 -0.12907185 11777197
0.78527278 -0.094838426 -0.12771268 8684926
0.76433331 -0.084845036 -0.12945849 10395542
0.77560008 -0.085088238 -0.12803861 9342854
0.78649998 -0.083826028 -0.1267712 8750974
0.76260006 -0.075446755 -0.12946276 11119526
0.77433342 -0.074978955 -0.12782998 9145735
0.78733331 -0.074853607 -0.12582858 8224375
0.75900006 -0.062831707 -0.12974305 12172468
0.76288891 -0.065232977 -0.12881723 9804181
0.77333331 -0.065326616 -0.12756422 9079945
0.78594112 -0.065334827 -0.12503593 6974312
0.75799996 -0.05417338 -0.12927598 11382437
0.76388896 -0.055587664 -0.12779373 9540746
0.77516675 -0.055100333 -0.12615287 9475212
0.78560007 -0.054919105 -0.12417217 7369324
0.74900001 -0.041839521 -0.12978707 12829885
0.7557143 -0.045121301 -0.12867121 10790302
0.76250005 -0.045272544 -0.1267713 8750719
0.77340007 -0.045014463 -0.12586488 9672847
0.78583336 -0.044818055 -0.12420874 8093044
0.7482 -0.034790982 -0.12964845 12106164
0.75520009 -0.035114814 -0.12820694 10264729
0.76420009 -0.033917978 -0.1263338 9145735
0.77488893 -0.03461352 -0.12499801 9541264
0.78511119 -0.034867719 -0.12358268 7303532
0.74700004 -0.025114769 -0.12944053 11448488
0.75383335 -0.02534627 -0.1279742 9672590
0.76420009 -0.024799246 -0.12615496 9672334
0.77600014 -0.025181461 -0.12447186 9409675
0.78727269 -0.025043942 -0.12251038 6250842
0.7475 -0.014629577 -0.12952717 10329752
0.75464296 -0.014263849 -0.12773195 9935250
0.76360005 -0.015660811 -0.12587824 10067606
0.77450007 -0.01552665 -0.1244128 9541263
0.78600001 -0.014968615 -0.12247925 6909030
0.74900001 -0.008524497 -0.12978707 9605774
0.75500011 -0.0054641035 -0.12837428 10461338
0.76333338 -0.0047157002 -0.12591413 10791073
0.77440006 -0.0051866393 -0.12421544 10330782
0.7859 -0.0052636797 -0.12237966 7040875
0.75819999 0.0023763902 -0.12925093 11777195
0.76342869 0.0052256309 -0.12794201 11579818
0.77442855 0.0045222067 -0.12538327 11184545
0.78613341 0.0054047271 -0.12296564 8421496
0.76666665 0.015505533 -0.12925881 12370359
0.7731334 0.014730721 -0.12672503 11316900
0.78546673 0.014964447 -0.12322842 8618874
0.79200006 0.015089234 -0.12055136 7171685
0.76800007 0.023623055 -0.12948363 12501433
0.7743333 0.024623681 -0.12722327 11777453
0.78600001 0.024912076 -0.12404998 8948611
0.77766675 0.031808827 -0.12868498 12040627
0.78650004 0.033858322 -0.1273073 10527644
0.78900003 -0.041303352 -0.011118004 16447724
0.79342306 -0.045179006 -0.014973857 14539728
0.78900003 -0.034838628 -0.011118004 16184809
0.79299998 -0.035014197 -0.015821408 13947592
0.78900003 -0.024679782 -0.011118003 16053738
0.79337507 -0.024816973 -0.015829794 13158847
0.78900003 -0.015444465 -0.011118004 15922409
0.79352391 -0.014426829 -0.015611844 12698297
0.79495239 -0.0057671657 -0.014310864 13093055
0.78899997 -0.093944654 -0.0014868884 14407628
0.78855562 -0.084354162 -0.0024979655 14144713
0.79091662 -0.085378438 -0.0079060188 15263452
0.78855002 -0.075431213 -0.0028057313 14078663
0.79049999 -0.074692212 -0.0083638644 15065815
0.78850001 -0.065273784 -0.002805612 14013127
0.79089993 -0.064546235 -0.0083685648 14802386
0.7881819 -0.054847896 -0.0032239468 14144456
0.79049999 -0.055955295 -0.0085950401 14802386
0.78744453 -0.044909734 -0.0046476191 14342092
0.78683335 -0.034742799 -0.0046435869 14013126
0.78675008 -0.025185442 -0.0048730168 13552831
0.78670579 -0.015128138 -0.0044268589 12960437
0.78725904 -0.0054788385 -0.0041352753 12499887
0.79000002 -0.0034429124 -0.0092826905 15658208
0.78674185 0.0050072586 -0.00390228 12105385
0.79000002 0.0039547039 -0.0092826905 15723744
0.78673333 0.014989204 -0.0046454547 12302765
0.78899992 -0.093136564 0.0041202675 14341835
0.79000002 -0.096969925 0.0070977467 14999765
0.78871995 -0.084679462 0.0055046408 14605007
0.7887646 -0.075777471 0.0040925648 14144970
0.79000002 -0.073905215 0.0084715905 14934229
0.78869563 -0.065089464 0.0044607716 13881541
0.79000002 -0.064473256 0.0092113512 14276299
0.78841662 -0.055038776 0.0053490358 13683905
0.79000002 -0.057075638 0.0092113512 13354940
0.78776658 -0.044927802 0.0054996135 13420733
0.78783989 -0.034786567 0.0055003739 13025974
0.78803331 -0.024650207 0.0055010831 12434093
0.78680015 -0.014482037 0.005492649 11973797
0.78571993 -0.0052642059 0.0054844557 11644576
0.78566664 0.0048531881 0.005485035 11512989
0.78696007 0.014994804 0.005493952 11579038
0.78845459 0.023748575 0.0052506309 11710881
0.78900003 -0.090250522 0.011046755 15591902
0.79041409 -0.095199235 0.014895241 16052453
0.78900003 -0.086556397 0.011046755 15328730
0.79000002 -0.0845645 0.015263946 15789281
0.79136688 -0.074771799 0.014787124 15262937
0.79195994 -0.064634338 0.014798897 14802386
0.79052019 -0.055263981 0.0147704 14210249
0.7889998 -0.043993641 0.014098425 13749698
0.79000002 -0.04835701 0.01687317 14341835
0.78899986 -0.035713557 0.014157598 13683648
0.79000002 -0.032108676 0.016608968 14144199
0.78900003 -0.023756249 0.01150852 12894388
0.79000002 -0.025047315 0.015936457 13420733
0.78873676 -0.014030761 0.013862026 12499887
0.79000002 -0.016080508 0.017533671 13552319
0.78850001 -0.0051984172 0.014229393 12631473
0.79000002 -0.0059087849 0.018458372 13091770
0.78849989 0.0048701419 0.013809766 12828851
0.79000002 0.0048794062 0.018458372 13157820
0.78870821 0.015180734 0.01458268 13223609
0.79000002 0.011352321 0.018458372 13355455
0.78899986 0.023563752 0.01456497 13618625
0.79000002 0.029024405 0.015170543 13421247
0.79075027 -0.095078826 0.024955442 16117733
0.79036689 -0.084854744 0.02494305 15657438
0.79230547 -0.07485947 0.025003625 15328730
0.79323316 -0.064738147 0.025033213 15197144
0.79153335 -0.055335052 0.024980772 15131352
0.79027814 -0.045070935 0.024941232 14999766
0.79023361 -0.034892853 0.024939865 14736594
0.79091686 -0.024739441 0.024961552 14407628
0.79080021 -0.014554062 0.024958489 13947078
0.7912336 -0.0053003449 0.024972746 13749700
0.7918613 0.0048909988 0.024993952 13618114
0.79123348 0.015073457 0.024973372 13486785
0.7909168 0.025252799 0.024963243 13355455
0.79040021 -0.095035188 0.035120547 15657696
0.79036009 -0.084854133 0.035118721 15328731
0.79229999 -0.074859291 0.03520529 15131352
0.79328001 -0.064741872 0.03524923 15262938
0.79267997 -0.055414047 0.035223223 15262939
0.79229993 -0.045185097 0.035206925 15328732
0.79267997 -0.035000462 0.035223965 15262939
0.79296672 -0.024803663 0.035237245 14670802
0.79284006 -0.014592072 0.035231076 14276044
0.79299998 -0.0053124144 0.035237063 14341837
0.79299992 0.0048979362 0.035236314 14210251
0.79288 0.015105437 0.035231266 14078665
0.79289997 0.025316808 0.0352332 13420735
0.79013932 -0.095004395 0.045282796 15263452
0.79096454 -0.085118048 0.045000285 14671058
0.79263324 -0.074891485 0.044498261 14671058
0.79363996 -0.064771257 0.044553727 14999766
0.79280001 -0.055422351 0.044506658 15262938
0.79229993 -0.045185018 0.044478133 15262938
0.79291993 -0.035010502 0.044512644 14802388
0.79386652 -0.024831304 0.044565789 14670802
0.79387993 -0.014612338 0.044566721 14473423
0.79264289 -0.0051128748 0.045092095 14276044
0.79208571 0.0047601559 0.045259193 14276044
0.79267997 0.015103033 0.044500113 14407630
0.79003358 -0.094992258 0.055448625 15328987
0.79096311 -0.084712945 0.055101506 15197657
0.79224986 -0.074856043 0.054675639 14934485
0.79296654 -0.064715281 0.054726295 14802900
0.79286659 -0.055427019 0.054720152 15000278
0.79219425 -0.045180473 0.054673959 14802644
0.79209989 -0.034975119 0.054666877 14539728
0.79286087 -0.024799872 0.054719314 14605521
0.79216659 -0.014580386 0.054670081 14276299
0.79077798 -0.0055046636 0.055088941 14144713
0.79096788 0.0050366437 0.055335712 14210250
0.79096007 -0.10528989 0.064773411 15395038
0.79000026 -0.094988436 0.064693473 15460830
0.78900003 -0.088403463 0.06645865 15460831
0.79000014 -0.084662579 0.064616404 15395038
0.79126674 -0.074762076 0.064797051 15066073
0.79288 -0.064708017 0.064929605 14737107
0.79320002 -0.055449747 0.064956352 14671314
0.79303324 -0.045227695 0.064942032 14605522
0.79372007 -0.035046007 0.064999789 14671314
0.79209995 -0.10544169 0.075064644 15197144
0.79072243 -0.095076174 0.074934617 15263450
0.79086691 -0.08490897 0.074949279 15197658
0.79180551 -0.074814692 0.075037189 15131610
0.79259992 -0.064684264 0.075111128 14802901
0.79319984 -0.055449545 0.075168036 14473935
0.7942425 -0.045548294 0.074845999 14408141
0.78900003 -0.10225643 0.088623412 14999765
0.79056543 -0.10547785 0.084774382 15065559
0.78900003 -0.097638778 0.088623412 14999765
0.79025942 -0.094711155 0.084652722 15197144
0.79076022 -0.084897548 0.085117981 15197144
0.79183322 -0.074817307 0.085234508 15131352
0.79235995 -0.064664818 0.085291617 14999766
0.79383993 -0.055492606 0.085450821 14671057
0.78899997 -0.10265223 0.095088132 15197145
0.79006249 -0.10724933 0.09521655 15065559
0.78899974 -0.095000111 0.095220059 15065558
0.79000002 -0.090364903 0.090585135 15131351
0.78900003 -0.088403463 0.096011661 14868179
0.79034501 -0.084724896 0.095218159 14867923
0.79209673 -0.074990921 0.094713546 15131095
0.79300004 -0.064718097 0.094641984 15131351
0.79364008 -0.055478722 0.094717532 14868179
0.78900003 -0.1013329 0.10155285 15262939
0.7902084 -0.10534296 0.10556228 14933973
0.78900003 -0.096583322 0.10208059 15065558
0.79000008 -0.094465762 0.10634526 14473165
0.79060006 -0.084879905 0.10546096 14802130
0.79202855 -0.074702501 0.10485542 14999765
0.79289985 -0.064709857 0.10483854 14802387
0.79296666 -0.055433147 0.10484698 14933972
0.79392314 -0.11512511 0.11498061 13025721
0.79008019 -0.10517117 0.1146387 14473423
0.79043359 -0.095039472 0.11469126 14736595
0.7909202 -0.084915377 0.11476126 15197144
0.79156673 -0.074791946 0.11485472 14868179
0.79195994 -0.064633019 0.11491159 14802386
0.79207993 -0.055371352 0.1149288 15131351
0.79296654 -0.045221701 0.11505745 15131608
0.7935999 0.015118686 0.11514896 13946821
0.79317862 -0.11467427 0.12496903 13354687
0.79003364 -0.10516445 0.12480419 14999767
0.79061145 -0.095061123 0.12489416 15394525
0.79103357 -0.084927484 0.12496198 14933974
0.79150009 -0.074787609 0.12503529 14736595
0.7917999 -0.064619295 0.12508322 14933974
0.79209989 -0.055372719 0.12513135 14999767
0.79285288 -0.045432955 0.12497711 14802388
0.79382366 0.0050652414 0.12512791 14012100
0.79196668 0.015086884 0.12510726 13748928
0.79038918 0.025234228 0.12485898 13091768
0.79351854 -0.11513019 0.13515808 13486274
0.78889453 -0.10394404 0.13497594 15722976
0.79000002 -0.10855072 0.13435437 15657697
0.78895634 -0.095705912 0.13559543 15196633
0.79000002 -0.092214309 0.13232882 15065560
0.78900003 -0.088403463 0.13849412 14933974
0.79008347 -0.084671237 0.13483061 14868181
0.79056704 -0.074698851 0.13506612 15065560
0.79068017 -0.064528011 0.13508546 15328732
0.79180002 -0.055350844 0.13527736 15197146
0.79340631 -0.045014333 0.13520393 14868181
0.7944001 -0.014621564 0.13479072 14407630
0.79333323 -0.0053146482 0.13460861 14144457
0.79212517 0.0047163698 0.13498363 13880772
0.78900003 0.018726204 0.13849412 13683137
0.79020852 0.014900397 0.13485156 14012100
0.78900003 0.029808585 0.13479999 13289660
0.79000026 0.025063418 0.13497089 13486526
0.79124016 0.035453785 0.13518289 11777194
0.79311126 -0.11466022 0.14519748 13025724
0.78859252 -0.10456382 0.14457636 15394525
0.79000002 -0.10885895 0.14791667 14736597
0.7884444 -0.09480074 0.14485532 15328219
0.7886551 -0.084672317 0.1450531 15459805
0.79000002 -0.084816694 0.14051905 14933974
0.78858322 -0.075511128 0.14595778 15591134
0.79000002 -0.074512877 0.14078324 15197146
0.7886799 -0.065768547 0.14648683 15656927
0.79000002 -0.063733496 0.14162868 15394525
0.78890002 -0.055887692 0.14844932 15591904
0.79035008 -0.054879643 0.14344837 15262939
0.78900003 -0.049615134 0.1495765 15855076
0.79139996 -0.045001008 0.14526369 15328732
0.79226667 -0.034982637 0.14555441 15328732
0.79188907 -0.024770923 0.1454836 14933974
0.78900003 -0.014520933 0.1495765 14539216
0.7912401 -0.014562908 0.14444101 14276044
0.78900003 -0.0052856179 0.1495765 14473424
0.79080009 -0.0052976762 0.14436154 14144458
0.78899997 0.0060606278 0.1479933 14473425
0.79036373 0.0041239075 0.14327408 14012872
0.7889998 0.015327608 0.1458085 14341325
0.79000002 0.013571607 0.14088893 13946309
0.78899997 0.022420334 0.14687695 14275788
0.79000008 0.026790826 0.14405702 13618627
0.79230773 0.035359845 0.14485441 12171952
0.79296303 -0.11491256 0.15513712 12893626
0.7885713 -0.1042679 0.15520909 15197403
0.79000002 -0.10885895 0.15438958 14539218
0.7875002 -0.095018491 0.15462415 15657697
0.78557581 -0.084843814 0.15561149 15855332
0.78520012 -0.075110443 0.15528576 15657696
0.78591657 -0.065058917 0.15542795 15591646
0.78765386 -0.055202045 0.15506308 15525597
0.78884596 -0.045272239 0.15565515 15327960
0.79000002 -0.043205105 0.15161547 15591904
0.78899992 -0.034838632 0.15696475 15327960
0.79000002 -0.034882784 0.15254019 15460061
0.78888869 -0.024232207 0.15543745 15130839
0.79000002 -0.028718105 0.15223193 15197146
0.78860003 -0.014513573 0.15503763 15065046
0.78879982 -0.0052837157 0.15507764 14802131
0.78869987 0.0048711034 0.15505756 14736082
0.78827995 0.015018361 0.154975 14605010
0.78895223 0.023562511 0.15528409 14210252
0.79000002 0.029024405 0.15490331 14078665
0.79325002 0.035546206 0.15502293 12960441
0.78900003 -0.11056822 0.16989419 14407632
0.79200017 -0.1148458 0.16476288 12762553
0.7883333 -0.10493955 0.16513655 14934231
0.78700012 -0.095372267 0.16500679 15263196
0.78558612 -0.085105024 0.16535568 14934231
0.78555989 -0.075144388 0.16547781 14933975
0.78546673 -0.065023057 0.16545734 14671059
0.78620678 -0.054832228 0.16485004 14605780
0.78786111 -0.044931252 0.16503733 14671060
0.78836662 -0.034810271 0.16514243 14605267
0.78811115 -0.024652563 0.16508985 14342352
0.78796673 -0.014501994 0.16505985 14210252
0.78786671 -0.0052781818 0.16503832 14078408
0.78783339 0.004866024 0.16503114 13815493
0.78800005 0.015013026 0.16506703 13815237
0.78882337 0.024914697 0.16545691 13420735
0.79000002 0.029846365 0.16178718 13881286
0.79219234 0.035641547 0.16480169 12499633
0.78900003 -0.11056822 0.17635892 14538703
0.79191309 -0.11525328 0.17463169 12630453
0.78820008 -0.10492148 0.1752575 14802131
0.78688014 -0.095535547 0.17496307 14933974
0.78599989 -0.085307255 0.17476836 14670802
0.78680009 -0.075262912 0.17494558 14539216
0.78619993 -0.065084465 0.17481264 14407630
0.78636014 -0.054970555 0.17484885 14341838
0.7876001 -0.044916309 0.17512362 14407631
0.78800005 -0.034794472 0.17521299 14276045
0.78800005 -0.024648501 0.17521305 14012874
0.78723997 -0.014489479 0.1750436 13749957
0.78700006 -0.0052722199 0.1749907 13618115
0.78700012 0.0048608771 0.17499071 13420992
0.78728014 0.014999961 0.17505199 13486528
0.78820002 0.0251664 0.17525657 13223869
0.78900003 0.032183379 0.17622697 13289662
0.79121745 0.0364183 0.17447843 12368560
0.78900003 -0.11056821 0.18467069 14473426
0.79213643 -0.11581671 0.18489879 12038573
0.78766686 -0.1048508 0.18527958 14736596
0.78580004 -0.095404856 0.18484001 14736852
0.78497213 -0.085195869 0.18464547 14802388
0.78586662 -0.075173751 0.1848568 14539217
0.78616655 -0.065081336 0.18492803 14341837
0.78626674 -0.054964386 0.18495038 14407630
0.78675008 -0.044868875 0.18506365 14407630
0.78716683 -0.034757685 0.18516204 14341837
0.78700024 -0.024617223 0.18512374 14012872
0.78700012 -0.014484128 0.18512376 13683907
0.78680009 -0.0052717384 0.18507665 13618114
0.78616661 0.0048552104 0.1849272 13420735
0.78609997 0.014977293 0.18491112 13420735
0.78738904 0.025141237 0.18521468 13223869
0.78843749 0.033248819 0.18546124 13223869
0.79081821 0.037956767 0.18475892 12236974
0.78870004 -0.111265 0.19549322 14209997
0.79227787 -0.11608064 0.19471131 11841193
0.78660005 -0.10471009 0.19515574 14539730
0.78426677 -0.095218301 0.19549322 14342351
0.78341204 -0.085240692 0.1950127 14539730
0.78564 -0.075151302 0.19491924 14736853
0.78629994 -0.065092482 0.19508244 14670803
0.78600001 -0.054946605 0.19500871 14539217
0.78599989 -0.044826377 0.19500878 14539217
0.78656 -0.034729492 0.19514751 14407888
0.78703344 -0.024618067 0.19526531 14144459
0.78700006 -0.014484126 0.1952569 13881543
0.78696007 -0.0052721393 0.19524713 13815493
0.78589994 0.0048527177 0.1949842 13683907
0.78543997 0.014965657 0.19487001 13552321
0.78730011 0.025139337 0.19533148 13223613
0.78837502 0.033592343 0.19525169 13027004
0.79049999 0.038193423 0.19519992 12632504
0.78850007 -0.11142168 0.2048585 13881290
0.79224998 -0.11659119 0.20490338 11249314
0.78510004 -0.10451226 0.20489359 14737108
0.78300017 -0.095062971 0.20526278 14671315
0.78446883 -0.084909119 0.2053052 14144715
0.78583324 -0.075170487 0.20508617 14210765
0.78599977 -0.065066822 0.20512898 14408144
0.78623337 -0.054962527 0.20519096 14407887
0.78647226 -0.044853091 0.20525385 14407887
0.78700012 -0.034954164 0.20487903 14210509
0.78773344 -0.024639226 0.20465998 14078922
0.78726685 -0.014490051 0.20545927 13881543
0.78666687 -0.0052705333 0.20530181 13947079
0.78586096 0.0048528356 0.205092 13947079
0.78579992 0.01497189 0.20507726 13947078
0.78694463 0.02512731 0.2053747 13420220
0.78837502 0.033707783 0.20505689 12960953
0.79033333 0.038287923 0.20492409 12961725
0.78850001 -0.11142168 0.2150109 14078667
0.79212493 -0.11668839 0.21472366 11249314
0.78560007 -0.10457856 0.21514088 14736595
0.78348303 -0.095120668 0.21531859 14933974
0.78546655 -0.085247658 0.21510296 14605265
0.78600001 -0.07518705 0.2152492 14144714
0.78656656 -0.065112837 0.21540527 14079178
0.78708005 -0.055021826 0.21554533 14342093
0.78746682 -0.044909876 0.215652 14342094
0.78757155 -0.034577571 0.21508603 14408144
0.7875002 -0.024633059 0.21473652 14276045
0.78652006 -0.01447576 0.2153904 13947079
0.78603995 -0.0052659749 0.21525997 13815493
0.78526658 0.0048489231 0.21504802 13683907
0.78519988 0.014960054 0.2150293 13552321
0.78629982 0.025106477 0.21533117 13288892
0.78849989 0.0344056 0.21501088 12961211
0.79079998 0.039132971 0.21471289 12632506
0.78850007 -0.11142168 0.22516331 13947080
0.79144442 -0.11647134 0.22507627 11249314
0.78551728 -0.10444031 0.22507063 14605009
0.78250021 -0.095003366 0.22506815 14802388
0.78313899 -0.084994882 0.22454497 14605009
0.78486669 -0.075077467 0.22504075 14341837
0.78613877 -0.065076992 0.22540815 14013128
0.78707695 -0.055162802 0.22496866 14210507
0.78745168 -0.044761505 0.22504079 14276301
0.78673339 -0.034738544 0.22557704 14144715
0.7870335 -0.024618225 0.22474463 14013128
0.78696001 -0.014483579 0.22472377 13815493
0.78630775 -0.0051268497 0.22475025 13486528
0.78533316 0.0048490884 0.22517851 13355197
0.78433341 0.014943874 0.22489052 13420734
0.78614712 0.024885526 0.2251402 13157818
0.78844994 0.03440335 0.22514883 13027260
0.79000002 0.039093386 0.22466694 12896190
0.78817648 -0.11219081 0.23494659 13881288
0.79079998 -0.11730064 0.23507531 9999247
0.78418517 -0.10439097 0.23494348 14605009
0.77900004 -0.092753977 0.23703972 14605009
0.78065526 -0.09484341 0.2347063 14802388
0.78138232 -0.085018471 0.23475285 14736595
0.78388005 -0.07498163 0.23485525 14802388
0.78536648 -0.06501279 0.23529974 14736595
0.78658628 -0.054859553 0.23490225 14276044
0.78668576 -0.044998065 0.2349057 14012872
0.78635985 -0.034721494 0.23559885 13749700
0.78752798 -0.024632666 0.2350267 13552321
0.78700012 -0.014484127 0.23486808 13486784
0.78624135 -0.005395086 0.2347988 13420990
0.78437489 0.0050715962 0.23534404 13355454
0.7832225 0.014854108 0.23506381 13289405
0.78578126 0.025321711 0.23507887 13223867
0.78817391 0.034270804 0.23501739 13289918
0.79000002 0.039093386 0.23483868 13619142
0.78841668 -0.11187158 0.24467337 13815752
0.78392601 -0.10428943 0.24479172 14605265
0.77900016 -0.095435828 0.24508521 14868181
0.78000009 -0.093278803 0.24383643 14868181
0.78290641 -0.084738448 0.24521685 15131353
0.78486657 -0.075078085 0.24525642 15460318
0.78502846 -0.065117493 0.24517487 15460318
0.78636003 -0.054970466 0.24480204 15197146
0.7875002 -0.044910885 0.24515787 14802644
0.78812009 -0.034799118 0.24535055 14210251
0.78813338 -0.024653299 0.24535447 14012872
0.78676003 -0.01448177 0.24492691 13947079
0.78486216 -0.0051335804 0.24509433 13947077
0.78200001 0.004610972 0.24462669 13683906
0.78164285 0.014958797 0.24457267 13552319
0.78469449 0.025058042 0.24519931 13223612
0.78799999 0.035512537 0.24490134 13553091
0.78900003 0.040890962 0.24931791 12435125
0.78900003 -0.11056822 0.25393558 13750215
0.78663641 -0.10496884 0.2545993 14342607
0.78303993 -0.094773896 0.25506744 14539986
0.78423083 -0.085253634 0.25459296 15000280
0.78510004 -0.07510072 0.2545194 15394782
0.78571993 -0.064858377 0.25453678 15526368
0.78732008 -0.05503729 0.25431764 15789283
0.78800005 -0.044940438 0.25453606 15591904
0.78812003 -0.034799304 0.25457469 14999767
0.78859991 -0.02466766 0.25473073 13684164
0.78788 -0.014501352 0.25449887 13749957
0.78609532 -0.0054446333 0.25462413 13947335
0.7833001 0.0048340065 0.25485688 13947336
0.78168005 0.014892523 0.25432855 13684164
0.78326672 0.025012087 0.25484139 13223869
0.78719229 0.03512967 0.2544882 12764089
0.78866673 -0.10344461 0.26090598 13750986
0.78840005 -0.094611332 0.26278675 14277330
0.78844452 -0.084444456 0.26165304 14408915
0.79178572 -0.084743209 0.2670154 9737358
0.78850007 -0.075426191 0.26115879 15066074
0.79188895 -0.074825011 0.2669183 9539978
0.78853858 -0.064921752 0.26138464 14934487
0.79114294 -0.064831562 0.26679784 9276549
0.78863645 -0.055466522 0.26145568 15000024
0.79107147 -0.055036929 0.26677343 8618875
0.78866673 -0.044978857 0.26121381 15723490
0.79083335 -0.045102097 0.26656094 8684154
0.78887504 -0.035525467 0.26105168 15788768
0.79147053 -0.034619421 0.26634085 9670277
0.78900003 -0.029297439 0.2604003 15328730
0.79217249 -0.024619058 0.26528981 10920857
0.78900003 -0.013597401 0.2604003 14079948
0.79219055 -0.014756788 0.26587364 9803919
0.78858346 -0.0048218411 0.26164791 13158849
0.79169238 -0.0057322402 0.26713637 7830902
0.78809518 0.0057012672 0.26449621 10198424
0.79033333 0.0033387344 0.26854929 7962232
0.78751999 0.01500304 0.2654469 9803407
0.78736001 0.024660058 0.2647289 10461078
