# .PCD v0.7 - Point Cloud Data file format
VERSION 0.7
FIELDS x y z rgb
SIZE 4 4 4 4
TYPE F F F U
COUNT 1 1 1 1
WIDTH 964
HEIGHT 1
VIEWPOINT 0 0 0 1 0 0 0
POINTS 964
DATA ascii
0.79378563 -0.10540012 0.085042782 12040106
0.78838468 -0.13234638 0.096361585 10657173
0.79168755 -0.13654664 0.094019778 10657944
0.78693336 -0.12501751 0.094833843 14012612
0.78748155 -0.11526965 0.096233614 14736334
0.79033333 -0.11445466 0.091239825 15394777
0.7876001 -0.10484149 0.096760377 14934226
0.79049999 -0.1052267 0.091567166 15526876
0.7870453 -0.095051527 0.096523054 15131862
0.79049999 -0.095048539 0.091567166 15658462
0.78640914 -0.084932573 0.096778661 15461083
0.79049999 -0.084870376 0.091567166 15132375
0.78629178 -0.075061016 0.09582869 15198169
0.79057139 -0.075359471 0.09091486 12435123
0.78681475 -0.06544026 0.096149452 15066583
0.79074997 -0.063840345 0.091364652 11776422
0.78818184 -0.055936575 0.098259501 15198425
0.79245007 -0.054652005 0.093458861 12961465
0.78900003 -0.047768071 0.099705793 15132375
0.79336119 -0.024817076 0.095604122 12632243
0.78900003 -0.013597401 0.099705793 14211786
0.79373085 -0.014750171 0.094935104 11382689
0.79304004 0.065231651 0.094646014 10066575
0.7912001 0.074963331 0.094488733 10001039
0.7883572 -0.1324939 0.1048982 11051931
0.7914167 -0.13761829 0.10541561 10328979
0.78507704 -0.12458435 0.10493506 12433580
0.78393769 -0.11501895 0.10525604 12038821
0.78255898 -0.10481904 0.10551456 11973030
0.77842122 -0.094315864 0.10671244 12368044
0.78154546 -0.09521994 0.10175643 11577759
0.77894139 -0.085774451 0.10615768 11973285
0.78100002 -0.084065795 0.10374838 11841699
0.77900016 -0.075168744 0.10443411 11578528
0.7809999 -0.074810326 0.10539833 12434093
0.78122228 -0.064669669 0.10512359 11973543
0.78356677 -0.05477377 0.10543457 12565938
0.78558326 -0.044801421 0.10570305 12631730
0.78624153 -0.034842595 0.1056328 13158074
0.78755182 -0.02479258 0.10492308 13749954
0.78674078 -0.014549239 0.10528141 13289403
0.78553331 -0.0052633299 0.10569434 13092536
0.77900004 0.0084587717 0.10938401 13223865
0.78502953 0.0046328846 0.10535441 13553342
0.77900004 0.014841558 0.10938402 12960436
0.78531992 0.014962245 0.10474624 13750978
0.77900004 0.020312516 0.10938401 13223608
0.78512502 0.024952201 0.10592569 13356220
0.79116672 0.028038695 0.10090429 11777193
0.78600007 0.035216302 0.10667869 13092792
0.79180014 0.03547569 0.10098503 10855832
0.78725004 0.0442116 0.1069443 13224635
0.79207695 0.04518719 0.10166093 10461844
0.78850001 0.054709252 0.10764089 13488068
0.79195654 0.055149436 0.10273536 10856348
0.78887504 0.064200439 0.1082312 13488067
0.79095465 0.065315433 0.1031487 11119263
0.79153359 0.074686877 0.10496453 11250591
0.78845459 -0.13163501 0.11490626 12630448
0.79266673 -0.13706455 0.11501431 10196365
0.78486204 -0.12481991 0.11495738 13684159
0.78215986 -0.11510276 0.11532013 13684158
0.78189987 -0.10499819 0.11528369 13618365
0.77900004 -0.094577625 0.11189153 13420986
0.78217649 -0.094962873 0.11672544 13552572
0.77900004 -0.089106664 0.11120766 13355194
0.78293109 -0.084814392 0.11556491 13552572
0.78396004 -0.07499171 0.11559077 13223864
0.78473336 -0.064961269 0.11570428 12960693
0.78480011 -0.054863278 0.11571405 12895157
0.7840668 -0.044717059 0.11560513 12500142
0.78376925 -0.034465935 0.11534882 12434348
0.78489995 -0.025469724 0.11480678 12565423
0.78391433 -0.015480122 0.11479107 12236459
0.77816677 -0.0035440924 0.11609731 12434094
0.78107703 -0.0067810332 0.1138947 12236715
0.77748567 0.004931604 0.115408 12632242
0.77712512 0.014654157 0.11472949 12434607
0.77793348 0.02483994 0.11469708 12171435
0.77900016 0.033936277 0.11528406 11974056
0.78025007 0.037012868 0.11412509 11513762
0.78247052 0.045350961 0.11471715 11908522
0.78533334 0.055410717 0.11486725 12171951
0.78696668 0.064737163 0.1151062 12040108
0.78796881 0.074732974 0.11582856 11710629
0.79000002 0.077006176 0.11092858 13618882
0.78784007 0.085094623 0.11615533 11184285
0.79000002 0.085328497 0.11092858 13750981
0.78743327 0.095190153 0.11609486 12237228
0.79000002 0.094575509 0.11092858 14210761
0.78818184 0.1051774 0.11671035 12500401
0.79055554 0.10574625 0.11162306 13422018
0.78859997 0.11471565 0.11719239 12828851
0.79079998 0.11503462 0.11196562 12698038
0.78873682 0.12425908 0.11765033 12762798
0.79073334 0.12539229 0.11275813 13289399
0.78900003 0.13324411 0.11817642 12828848
0.79213041 0.13554797 0.1142059 12631728
0.78854555 -0.131818 0.12498859 13157049
0.79223537 -0.13688034 0.12487737 10064780
0.78532004 -0.12476563 0.12498042 13881282
0.78284633 -0.11499213 0.12472887 13815745
0.78424162 -0.10515015 0.12468403 13947331
0.7858519 -0.094999559 0.1252716 13881538
0.78625 -0.085005008 0.12493163 13750208
0.78664017 -0.075247891 0.12519 13684159
0.78733349 -0.065176181 0.12530002 13487036
0.78720009 -0.055031147 0.12527934 13420988
0.78629982 -0.044844549 0.12513608 13289403
0.78571999 -0.03469323 0.12504363 13552319
0.78587997 -0.025502538 0.12506862 12894645
0.78315639 -0.015106397 0.12497822 12236972
0.77804011 -0.0045585837 0.1244041 12236972
0.78039998 -0.008516199 0.12675524 12039593
0.7763229 0.0046470668 0.12518899 12565937
0.77700025 0.01480345 0.12456441 12171693
0.77867633 0.024594754 0.12461907 12040107
0.78000003 0.029468562 0.12869737 12500401
0.77900004 0.032622177 0.12078184 12237229
0.78112006 0.03521762 0.12570193 12171693
0.78313339 0.04517312 0.12463312 12171694
0.78539991 0.055414781 0.1249927 12039851
0.78692001 0.064732999 0.12523448 12369072
0.78746682 0.074915454 0.12532188 11973800
0.78723997 0.085030191 0.1252856 11644579
0.78696686 0.095134273 0.12524311 11578785
0.78780001 0.10537841 0.12537424 11907749
0.78800005 0.11462802 0.12540554 12039335
0.78738731 0.12482604 0.12512824 12039078
0.78789997 0.1349037 0.12446524 12566192
0.78869236 0.14214043 0.12594159 11514021
0.79058826 0.14625093 0.1238558 10658968
0.79339397 0.1549255 0.12558313 10461589
0.78885716 -0.13138995 0.13477626 14209737
0.79157901 -0.13638891 0.1349465 10854039
0.78678572 -0.12479807 0.13501506 14341834
0.78583312 -0.11472278 0.13518107 14144711
0.7870335 -0.10476455 0.13538598 14078662
0.78763336 -0.094704606 0.13456596 13947076
0.78700012 -0.084494606 0.13537951 13947332
0.78712004 -0.075293705 0.13447927 13881282
0.78800005 -0.065232389 0.13462918 13749953
0.78796005 -0.055083808 0.13462251 13815746
0.78734392 -0.044674229 0.13486353 13618368
0.78629982 -0.034719881 0.13526036 13420734
0.78603327 -0.025507206 0.13521269 12959927
0.78355891 -0.01555894 0.13505554 12039080
0.77823538 -0.0038216994 0.13510399 12171436
0.78075004 -0.0082008084 0.1345332 12105387
0.77648509 0.0047123618 0.134975 12763573
0.77708018 0.01480535 0.13458292 12895160
0.77875012 0.022471588 0.13430226 12763574
0.78092867 0.027676482 0.13590282 12698038
0.78311545 0.035229918 0.13541828 12632244
0.78530544 0.045297444 0.13508946 12697781
0.78619993 0.055470776 0.13524224 12763316
0.78753859 0.064642183 0.13476306 12697522
0.78836662 0.075001977 0.13469295 12566192
0.78843993 0.085159533 0.1347056 12368556
0.7882334 0.095286846 0.13467003 12302508
0.78887987 0.10552257 0.13477995 12499629
0.78879982 0.11474384 0.13476656 12499885
0.7882334 0.12481027 0.13467051 12631471
0.7881251 0.13478853 0.13449775 12631731
0.79000002 0.13896121 0.13866964 13355453
0.78900003 0.14186375 0.13233726 11579813
0.7917369 0.14561024 0.13605098 10593175
0.78900003 -0.13180946 0.14495884 14736080
0.79094124 -0.13665533 0.14504282 11117468
0.78762972 -0.1253332 0.14521934 14342092
0.7871002 -0.11490776 0.14553176 14342091
0.78792006 -0.10488289 0.14568299 14276298
0.78797227 -0.094744764 0.14477003 14078920
0.78792006 -0.084593385 0.14568296 14012870
0.78800005 -0.075378366 0.14477512 14012870
0.78797227 -0.065229997 0.1447698 13881284
0.78800005 -0.055086419 0.14477512 13552319
0.78800005 -0.045157466 0.14504641 13420733
0.78688014 -0.034745589 0.1454901 13618627
0.78540003 -0.025488276 0.14521617 12828854
0.77900004 -0.011054317 0.14658652 12039080
0.78171438 -0.015763365 0.14466403 12104873
0.77766681 -0.0052119573 0.14469644 12170666
0.77651548 0.0048794374 0.14489652 12894904
0.77783334 0.014821282 0.14472885 13355455
0.77899998 0.020573039 0.14429393 13355455
0.7812143 0.025859019 0.14535649 13092283
0.78388005 0.035122633 0.14493437 12960697
0.78556657 0.045312271 0.14524733 12895160
0.78668004 0.055505008 0.14545371 12829366
0.78782773 0.064934365 0.14490227 12697523
0.78891641 0.075054139 0.14494307 12565937
0.78899974 0.085220486 0.14495884 12565937
0.78877759 0.095351741 0.14491719 12894900
0.78856653 0.10548037 0.14487757 13092022
0.78863317 0.11472031 0.14488988 13157814
0.78894418 0.1249238 0.1449483 13092278
0.78899992 0.13287471 0.14477414 13158329
0.79049999 0.13746379 0.1451029 12960695
0.78863645 -0.132001 0.15538162 14407628
0.79113334 -0.13704443 0.15491968 11512740
0.78724009 -0.12506634 0.15477121 14473421
0.78766674 -0.11498975 0.15485568 14342348
0.78859985 -0.10497312 0.15504017 14210762
0.7886399 -0.094640419 0.15430953 14210762
0.79000002 -0.095913127 0.15901309 14210762
0.78859991 -0.084666386 0.15504047 14013383
0.78836006 -0.075413555 0.15499292 14210249
0.78796673 -0.06522952 0.15491469 14144456
0.78800005 -0.055086412 0.1549211 14144456
0.78800005 -0.044940446 0.1549211 14078407
0.78736001 -0.034767907 0.154796 13552320
0.78523076 -0.025342163 0.15458934 12828854
0.77900004 -0.010689585 0.15497532 12039080
0.78189296 -0.016420212 0.15496315 12170666
0.7776401 -0.0052117626 0.15470514 12104873
0.77700025 0.0047991127 0.15457748 12499889
0.77823997 0.014828483 0.15482339 13092283
0.77900016 0.024051007 0.15625192 13026489
0.78036368 0.026826305 0.15242271 12894904
0.77900004 0.033442818 0.1582579 12763316
0.78136003 0.035300668 0.15368561 12763317
0.78375006 0.045210782 0.15499991 12829110
0.78661543 0.055359043 0.15486065 12894902
0.78792006 0.064814322 0.1549051 12829109
0.7881667 0.074982554 0.15495306 12500144
0.78808004 0.08512082 0.15493645 12566192
0.78800005 0.095258452 0.15492108 12895156
0.78800005 0.10540444 0.15492108 13223608
0.78800005 0.11462801 0.15492108 13289145
0.7882666 0.12481637 0.15497336 13157815
0.7888124 0.13344377 0.15531127 13092794
0.79049999 0.13830939 0.15448578 11645865
0.78864706 -0.1325658 0.16493098 14341835
0.79100001 -0.13769974 0.16476914 11511968
0.78693336 -0.12501845 0.16484369 14210249
0.78733343 -0.11494061 0.1649271 14144456
0.78880757 -0.10556886 0.165236 14341835
0.79000002 -0.10146134 0.16548601 14210249
0.78900003 -0.090250522 0.16989419 14407630
0.79000026 -0.094988436 0.16456129 14276299
0.7889998 -0.084212035 0.16513444 14210506
0.79000002 -0.088053152 0.16641071 14210250
0.78896642 -0.075470977 0.16526978 13947334
0.78800005 -0.065232389 0.16506702 13947590
0.78800005 -0.055086419 0.16506706 13815748
0.78800005 -0.044940446 0.16506703 13815491
0.78793341 -0.034791842 0.16505341 13947078
0.78651708 -0.025651019 0.1649161 13025975
0.78310007 -0.015334945 0.1649588 12302252
0.77796149 -0.0046533365 0.16450606 12236461
0.78049999 -0.0088830041 0.1671515 12236460
0.77700025 0.0047991122 0.16458179 12302511
0.77760011 0.014817068 0.16470924 12763575
0.7790001 0.023563374 0.16377644 12960953
0.78030771 0.027232448 0.16746101 12894904
0.7790001 0.034749769 0.16181403 12697523
0.78066671 0.035077855 0.16749136 12763318
0.78187513 0.04487285 0.16504186 12894903
0.78600001 0.055585451 0.16480538 12960695
0.78803337 0.064823739 0.16507389 12894902
0.78874987 0.075036854 0.1652247 12697523
0.78800005 0.085112475 0.16506705 12631730
0.78800005 0.095258459 0.16506702 12894902
0.78859985 0.10548498 0.16519429 13223867
0.78893083 0.11469994 0.16510327 13421246
0.78880537 0.12490118 0.1652368 13355453
0.78886342 0.13389307 0.16491261 13487552
0.79000002 0.13865298 0.16517776 10790040
0.78900003 -0.13180944 0.17543536 14210251
0.79044443 -0.13667791 0.17483082 13025464
0.78787994 -0.12516773 0.17518738 14341836
0.78780007 -0.11501007 0.17516932 14539216
0.78879982 -0.10499947 0.1753909 14802388
0.78872406 -0.094739802 0.17550033 14868181
0.79000002 -0.096221358 0.17041774 14539216
0.78859991 -0.084666394 0.17534502 14670802
0.78830439 -0.075167373 0.17495875 14144458
0.78800005 -0.065232389 0.17521304 13881542
0.78800005 -0.055086419 0.17521304 13157819
0.78800005 -0.044940438 0.17521301 13881797
0.78788012 -0.034789734 0.17518634 13552577
0.78679991 -0.025532857 0.17494622 12960183
0.78414708 -0.015137918 0.17500451 12236461
0.77883339 -0.0027867528 0.17256732 12499633
0.78126317 -0.0060060774 0.17631473 12368047
0.7778334 0.0048018801 0.17477451 12434096
0.77772009 0.014819325 0.17474754 12697525
0.7790001 0.021224342 0.17503551 12763575
0.78070009 0.026754495 0.17541724 12895160
0.78191984 0.03503285 0.17569202 12829111
0.78245449 0.045215819 0.17503558 12894904
0.78567994 0.055436131 0.17469747 12763318
0.78792006 0.064814322 0.17519496 12763318
0.78899974 0.075061634 0.17543535 12697524
0.788818 0.084948763 0.17489204 12763316
0.79000002 0.087177895 0.17935653 12631730
0.78883988 0.095545061 0.17466173 13092281
0.79000002 0.094575509 0.17935653 13026488
0.7889998 0.10553817 0.17543536 13158074
0.7889998 0.11469319 0.17575662 13289660
0.79000002 0.11615189 0.17134245 13355453
0.78899974 0.12493234 0.17543539 13224382
0.78900003 0.13208972 0.17474273 13224640
0.79042107 0.13689362 0.17545997 11908781
0.78900003 -0.13227122 0.18513246 14539216
0.79038465 -0.13695194 0.18456799 14078151
0.78826672 -0.12522924 0.18542114 14670802
0.78800005 -0.11503989 0.18535905 14736595
0.78800005 -0.10489393 0.18535905 14868181
0.78763652 -0.095124118 0.1850207 14934230
0.78606063 -0.084895939 0.18515131 14868438
0.78736681 -0.075316057 0.18520898 14539473
0.78800005 -0.065232389 0.18535899 14342093
0.78800005 -0.055086415 0.18535897 14078921
0.78800005 -0.044940442 0.18535902 14078665
0.78770006 -0.034782164 0.18528794 13749957
0.78610003 -0.025510613 0.18491046 13091770
0.78403145 -0.01557966 0.18499751 12302252
0.78215986 -0.0052414811 0.18490137 12236460
0.77872235 0.0070372936 0.18378496 12500146
0.78042859 0.0024705757 0.18566683 12236974
0.77875859 0.014837202 0.1848523 12697525
0.78000003 0.01486061 0.18986815 12829111
0.7790001 0.022799319 0.18539719 12698295
0.78007144 0.02816698 0.18479802 12764088
0.78149992 0.034875266 0.18495519 12763831
0.78406465 0.045375131 0.18517408 12960696
0.78623331 0.055474062 0.18494509 13026489
0.78783339 0.06480775 0.18532036 12763317
0.78899986 0.07343445 0.18449479 12763317
0.79000002 0.078958318 0.18531574 12829109
0.79028016 0.085359566 0.18497103 12763317
0.78900003 0.099996991 0.18467069 13026488
0.79020017 0.094598703 0.18495192 13026488
0.78867847 0.10569216 0.18518777 13026488
0.7883001 0.11467181 0.18542811 13158074
0.7886284 0.12474248 0.18537357 13158075
0.78900003 0.1320897 0.18536334 13422018
0.79082358 0.13682082 0.18477087 11382692
0.78868413 -0.13287477 0.19499362 14473423
0.79054546 -0.13770437 0.19479084 14341067
0.78723997 -0.12506644 0.19531453 14539216
0.78673333 -0.11485472 0.19518821 14605009
0.78644007 -0.10468718 0.19511551 14605009
0.78507137 -0.095119946 0.19536504 14868438
0.78420019 -0.085242227 0.19534682 15131353
0.78620005 -0.075204112 0.19505802 14934230
0.7877667 -0.065212257 0.19544636 14605266
0.78751999 -0.055053994 0.19538534 13947079
0.78700012 -0.044883423 0.19525622 13815749
0.78671998 -0.03473936 0.19518694 13816006
0.78499997 -0.02533422 0.19497158 13025977
0.78291696 -0.015326979 0.19515949 12368302
0.78233331 -0.0052414248 0.19501509 12236972
0.78161758 0.0046104346 0.19510593 12236973
0.78048015 0.014869659 0.19546644 12697525
0.77900004 0.023047997 0.19144839 12698295
0.78042871 0.025049025 0.19571532 12632502
0.78203458 0.035166133 0.19509919 12697782
0.78496772 0.045132343 0.19493045 12894903
0.7876001 0.05557001 0.19540611 12960695
0.78832 0.064848073 0.19558448 12763317
0.78899974 0.074790008 0.1950468 12763317
0.79000002 0.079780273 0.19137767 12697524
0.78900003 0.084481649 0.19833894 12763062
0.79009998 0.085709512 0.19334367 12829109
0.78900003 0.099205382 0.19258668 13223867
0.7900002 0.094164528 0.19538471 13092282
0.78875983 0.10550532 0.19495547 13223611
0.79000002 0.10151078 0.19923763 13223354
0.78816003 0.11465111 0.19554541 13092281
0.7880646 0.12493335 0.19534205 13026488
0.78899992 0.1328747 0.19538365 12829367
0.79040009 0.13755204 0.19462045 10395540
0.78773081 -0.13386989 0.20550761 14407628
0.79000002 -0.13844942 0.20247409 14735825
0.78530002 -0.12475792 0.20494418 14144456
0.78437507 -0.11508436 0.20447278 14276043
0.78332365 -0.10491948 0.20464295 14276300
0.78196567 -0.094939597 0.20498751 14341837
0.78172243 -0.084840827 0.20553337 14671315
0.78420007 -0.075012915 0.20465586 15000280
0.78586107 -0.065053806 0.20508964 14934231
0.78673351 -0.054997329 0.20531923 14671058
0.78694463 -0.044880256 0.20537585 14144971
0.78653336 -0.034731116 0.20526789 13816006
0.7842415 -0.025578137 0.20482725 13092027
0.78266692 -0.015321895 0.20517507 12500402
0.78223985 -0.0052405186 0.20506257 12303280
0.77887511 0.0075454419 0.20828354 12303537
0.78107411 0.0041794116 0.20455271 12237231
0.77887517 0.013927787 0.20691578 12500916
0.78000003 0.015904034 0.20330223 12632245
0.78203332 0.024971811 0.20501108 12566452
0.78467995 0.035158373 0.20570707 12500658
0.78610009 0.045097698 0.20460466 12698036
0.78784621 0.055373929 0.20483072 12894902
0.78816009 0.064834066 0.20476952 12763316
0.78782356 0.075166047 0.20533217 12763316
0.78825921 0.084936723 0.20520401 12697523
0.78900003 0.091289401 0.20578 12894389
0.79000002 0.095808461 0.20493992 13091768
0.78900003 0.1092323 0.20129426 13091768
0.79020715 0.10461473 0.20542991 13223354
0.78900009 0.11611681 0.20297341 13223354
0.79000002 0.11386215 0.20683336 13223354
0.78869981 0.12488456 0.20491153 12960695
0.78900003 0.13250528 0.20424955 13289661
0.79033339 0.13704714 0.20582797 10329490
0.78900003 -0.14012124 0.2169943 14538961
0.79275012 -0.14520003 0.21454357 9867916
0.78651851 -0.13436592 0.21497984 14407628
0.78334504 -0.12432054 0.21527983 14210249
0.7831431 -0.11518266 0.21505575 14078664
0.78230554 -0.10505261 0.21515425 14078664
0.77900004 -0.091295049 0.2166148 14144457
0.78100008 -0.095775887 0.21467543 14078664
0.77850002 -0.085557066 0.21516778 14078665
0.78033334 -0.080733977 0.21126114 14473679
0.77826327 -0.076746702 0.21696402 14341837
0.78135288 -0.073988572 0.21279091 14868438
0.77900004 -0.067222826 0.21880321 14605009
0.78206068 -0.064489521 0.21466587 14934230
0.78400004 -0.054804452 0.21561427 14999767
0.78575003 -0.045040529 0.21552199 14802645
0.78580004 -0.034698263 0.21519293 14342351
0.78428018 -0.025452208 0.21477883 13354941
0.7824167 -0.015317385 0.21518378 12762805
0.77900004 -0.0021792045 0.21819532 12500146
0.78118515 -0.0055734059 0.21440321 12565939
0.77824128 0.0049615707 0.21507156 12565938
0.78050005 0.00025281872 0.21100166 12237231
0.77808005 0.014825905 0.21490178 12566708
0.78314722 0.02479491 0.21511425 12435123
0.78780001 0.035298161 0.21574356 12434864
0.78862953 0.044632569 0.21521866 12632500
0.7885713 0.054450333 0.21384498 12829109
0.79000002 0.058512129 0.21819402 12631730
0.78848147 0.065065183 0.21449468 12763316
0.78781259 0.074716687 0.21540087 12763316
0.78778571 0.085287727 0.2151458 12829109
0.7888748 0.094056614 0.21626715 13026488
0.79000002 0.097118452 0.21287698 13091768
0.78900003 0.10530729 0.21907227 13289660
0.7900002 0.1048895 0.21392618 13157818
0.78900003 0.11523525 0.2183796 13289404
0.79000002 0.11461071 0.21326226 13289147
0.78899974 0.12522094 0.21537811 12960440
0.79000002 0.12277892 0.21357051 13420734
0.78900003 0.13139705 0.21052958 13618627
0.79133344 0.13564853 0.21501289 11250080
0.78900003 -0.14091283 0.2258338 14407630
0.79140007 -0.14545973 0.2244164 9407876
0.78611541 -0.13451704 0.2248362 14341835
0.78282785 -0.12505999 0.22531177 14210249
0.78366697 -0.11539192 0.22520915 14013127
0.78363365 -0.10523151 0.22560929 14078920
0.77858335 -0.091945492 0.22582372 14078921
0.78156257 -0.096490867 0.22478306 14078920
0.77630019 -0.085164562 0.22440392 14144714
0.77602947 -0.074926294 0.22459184 14276300
0.77713329 -0.065241523 0.22464249 14539214
0.78000003 -0.060005147 0.22091007 14736593
0.7778334 -0.055892583 0.22651525 14539214
0.78090918 -0.053758588 0.22249618 14605007
0.77887511 -0.045787044 0.22902438 14408143
0.78203356 -0.04429321 0.22392304 14605007
0.77900004 -0.03895621 0.2297451 14473936
0.78312916 -0.034754664 0.2246889 14473679
0.78413355 -0.025445316 0.22483261 13552320
0.78263342 -0.015323156 0.22532092 12828598
0.7790001 -0.0023007812 0.22445652 12500146
0.78050005 -0.0068284678 0.22493497 12565939
0.77797216 0.0048032645 0.2248897 12566196
0.77839988 0.014831376 0.22501315 12566709
0.78303123 0.025235448 0.22508959 12435122
0.78757143 0.035090789 0.22548816 12368816
0.78889453 0.043801799 0.22605321 12566452
0.79000002 0.047283601 0.22268544 12632501
0.78900003 0.050741967 0.22838454 12631989
0.790061 0.055182081 0.22431988 12698294
0.78900003 0.068596907 0.22161196 12566707
0.7900002 0.064642556 0.22511221 12698037
0.78882128 0.075373776 0.22518982 12829110
0.79000002 0.070533261 0.22651635 12894903
0.78800005 0.085112467 0.22502054 12960696
0.78826672 0.095291309 0.22509573 13223867
0.78839993 0.10545792 0.22513336 13421247
0.78812009 0.11464576 0.22505352 13552833
0.78853321 0.12485962 0.22517188 13552321
0.78900003 0.13139705 0.22807668 13289149
0.79151869 0.13566358 0.2246516 10855578
0.78900003 -0.14127566 0.23384874 14407371
0.79220003 -0.14625584 0.23487402 9407361
0.78546149 -0.13546763 0.23532544 14276042
0.78147227 -0.12506436 0.23504493 14210249
0.78176659 -0.11504464 0.23513298 14012870
0.77900004 -0.10187224 0.2382555 14013127
0.78206253 -0.10541999 0.23470625 14013126
0.77714819 -0.094085902 0.2359353 13947334
0.78120005 -0.097771466 0.23185661 14078663
0.77516657 -0.085039906 0.23496479 14079178
0.77447218 -0.074990824 0.23475374 14210764
0.77463329 -0.065032192 0.23480204 14210508
0.77502781 -0.055085804 0.23492081 14276300
0.77606684 -0.045167167 0.23523495 14408143
0.77721447 -0.036200572 0.23597313 14408143
0.78090006 -0.032651931 0.23213263 14342350
0.77900004 -0.028926115 0.23886338 13881799
0.78285205 -0.025468923 0.23495184 13750213
0.78376681 -0.015345026 0.23482218 12829111
0.78204173 -0.0053930222 0.23445801 12566196
0.77887511 0.0067477399 0.23415312 12500916
0.78085721 0.0026019788 0.23695287 12500659
0.77877784 0.013824961 0.23444059 12500916
0.78057152 0.0174824 0.23751888 12500916
0.78316134 0.024861781 0.23481783 12435122
0.78618509 0.035429664 0.23513581 12303535
0.7874195 0.04467475 0.23514013 12632243
0.78830302 0.054612081 0.235395 12829110
0.79000002 0.058512129 0.23113987 12829111
0.78830761 0.064987466 0.23596628 12697525
0.79000002 0.064060345 0.23113987 12763318
0.78775007 0.074941255 0.23508917 12763318
0.78670019 0.084971204 0.2347748 12960697
0.78611112 0.095029794 0.23459822 13223869
0.78603321 0.10514119 0.23457624 13552577
0.78634363 0.11473283 0.23490073 13684420
0.78744131 0.12495847 0.23478201 13684677
0.78890914 0.1323894 0.23568915 10329491
0.7906875 0.13723245 0.23423144 10001039
0.78875005 -0.14238507 0.24554509 13552320
0.79200006 -0.14645095 0.24446866 9604741
0.78474081 -0.13562916 0.24504437 14078663
0.77900016 -0.12205399 0.24555007 14078406
0.78094125 -0.12707762 0.24451326 14078663
0.77810347 -0.11450694 0.24543221 13947077
0.78000003 -0.11752396 0.24099599 14143686
0.77683347 -0.10522706 0.24456078 13947077
0.77581269 -0.09532734 0.24480905 13749698
0.77455992 -0.084973678 0.24475479 13684163
0.77375782 -0.074675627 0.24499448 14144714
0.77313346 -0.064907044 0.2452077 14539729
0.77322245 -0.054957822 0.24523599 14605779
0.77392864 -0.045237292 0.24513654 14474449
0.77531248 -0.034911979 0.24465051 14211021
0.7779001 -0.026151663 0.24626431 13881798
0.78141671 -0.023374001 0.24265122 13552834
0.77900004 -0.017984197 0.24980529 13092281
0.78261125 -0.015318819 0.24454658 12894904
0.7828669 -0.0052448413 0.24462877 12435123
0.78186661 0.004827532 0.24523416 12435122
0.78176004 0.014895733 0.24520174 12500914
0.78506052 0.024985449 0.24517739 12500915
0.78599989 0.035411667 0.24528015 12500658
0.78566641 0.045316681 0.24550363 12894903
0.78646433 0.055291753 0.24542367 12960695
0.78696007 0.064735167 0.24498785 12829109
0.78609985 0.074784294 0.24472074 12763317
0.78460002 0.084743828 0.24517247 12960696
0.7838614 0.094758615 0.24494213 13223867
0.78436673 0.1049192 0.24509826 13421247
0.78499991 0.11511111 0.24529587 13618371
0.78673077 0.12535532 0.24512886 13816263
0.78876179 0.13399607 0.244846 9935247
0.79000002 0.13849886 0.24501038 10066832
0.79116684 0.14472391 0.24537078 9935247
0.7926206 0.15503564 0.2450228 9935246
0.78864288 -0.14361916 0.25500762 12368047
0.7911818 -0.14842345 0.25505841 9539205
0.78485185 -0.13591959 0.25494766 14078663
0.77900004 -0.12274294 0.25487101 14012870
0.78105557 -0.12743628 0.25503623 14012870
0.77642435 -0.11492319 0.25492665 14012870
0.77486664 -0.10496029 0.25482702 13947077
0.77469426 -0.094961777 0.25477034 13815491
0.7742334 -0.084937528 0.25461909 13420990
0.77324259 -0.075120099 0.2547048 13355198
0.77153337 -0.0647742 0.25553605 13750213
0.7711944 -0.054812565 0.25542313 14144971
0.77296442 -0.044921834 0.25491229 14211022
0.77441669 -0.03509846 0.25467956 14145485
0.7763105 -0.025315449 0.25514579 13618370
0.77806669 -0.015471888 0.25527176 12763317
0.78025001 -0.012076234 0.25066262 12763318
0.77894759 -0.0054099914 0.25631452 12434352
0.78072739 -0.0048971344 0.25152162 12435123
0.77900004 0.0011641593 0.25892356 12960695
0.78100002 0.0050402242 0.25474712 12500659
0.78228557 0.014709018 0.25510976 12764087
0.78375006 0.025025351 0.25529948 12829880
0.78411132 0.034925941 0.25470445 12764087
0.78356677 0.045194961 0.25493675 12961466
0.78462958 0.055564959 0.2548742 13027259
0.78583336 0.06464339 0.25475499 12960696
0.78611094 0.074786276 0.25484556 12894902
0.78507996 0.084796689 0.25543088 12894902
0.78489989 0.094884053 0.25537264 13223867
0.78424001 0.10489988 0.25515717 13289660
0.783167 0.11484153 0.25480753 13355454
0.78607142 0.12539281 0.25483203 13355968
0.78866667 0.13318861 0.25475144 10066575
0.79009998 0.1380541 0.25521487 9935246
0.7916401 0.1448112 0.25571328 9935246
0.78833336 -0.14369461 0.26479402 12762804
0.79045451 -0.14862312 0.26508567 9341570
0.78523076 -0.13556711 0.26481336 14012870
0.77900004 -0.12041271 0.26530635 13815491
0.7822175 -0.12610084 0.26516837 13947077
0.77627587 -0.11449193 0.26490989 13881284
0.77383345 -0.1048203 0.26535767 13881540
0.773278 -0.094788536 0.26516595 13947333
0.77256674 -0.084754467 0.26492137 13684161
0.77142864 -0.074826963 0.26440173 13486526
0.76863635 -0.06395749 0.26619264 13750212
0.77014291 -0.066458851 0.26241842 13881285
0.76857156 -0.055333592 0.26560926 14079178
0.77000004 -0.052386027 0.26170042 14408143
0.76900005 -0.048357464 0.26640123 14079178
0.77103579 -0.044615943 0.26446119 14276557
0.77319449 -0.035043642 0.26513752 14342350
0.77483875 -0.025025139 0.26549515 14079178
0.77634311 -0.015117448 0.26452875 13355454
0.77760023 -0.0052079996 0.26482603 13289918
0.77839285 0.0042223362 0.2660735 13684419
0.78037506 0.006876104 0.26234901 13487039
0.77827281 0.014497192 0.26845324 13552833
0.78123802 0.015320631 0.26367077 13487040
0.77885717 0.023435054 0.26929495 13289661
0.78166658 0.025384806 0.26468733 13223868
0.78273356 0.035069868 0.26474455 12960953
0.78313935 0.045170985 0.26488227 13158589
0.7839002 0.055308498 0.26513848 13092796
0.78486669 0.064563416 0.26546517 12895674
0.78529024 0.074619375 0.26486763 12566452
0.78453338 0.084737487 0.26535207 12697524
0.78391677 0.094764404 0.26514226 13026232
0.78296679 0.10473014 0.26482147 13289660
0.78263897 0.11476547 0.26471284 13487296
0.78596157 0.12551813 0.26470473 13224382
0.78864706 0.1330767 0.26462775 10000526
0.79018188 0.1378163 0.26499498 10000527
0.79295653 0.14481178 0.26509681 9934990
0.78837502 -0.14393306 0.2751897 13222841
0.7902 -0.14884393 0.27466944 9275261
0.78567648 -0.13520604 0.27472016 13815491
0.77857155 -0.12212586 0.27596483 13816004
0.78221065 -0.12619548 0.27473474 13815748
0.77526486 -0.11499927 0.27518901 13816004
0.77308339 -0.10456797 0.27490351 13881797
0.77190316 -0.095058076 0.27515802 13947590
0.7709412 -0.085212104 0.27540684 13947334
0.76900005 -0.072060667 0.27600253 13750211
0.77008349 -0.076293848 0.2745131 13750211
0.76863641 -0.065675512 0.27478105 13618625
0.76863641 -0.054385785 0.27478114 14013384
0.76900005 -0.04630005 0.27617395 14079435
0.77018768 -0.043473419 0.27346063 14276557
0.77159989 -0.035099972 0.27529922 14276557
0.77328002 -0.025092261 0.27512431 14145226
0.77438885 -0.015157674 0.2746112 13750469
0.77490008 -0.0051910039 0.27479118 13421761
0.7749722 0.0047869454 0.27481657 13421761
0.77513337 0.01476859 0.27487364 13487554
0.77650005 0.024794042 0.27535754 13290175
0.78100002 0.029506342 0.27055833 13092281
0.77757907 0.034359396 0.27732205 13224639
0.78126657 0.035491783 0.27260044 13026746
0.77785724 0.044346876 0.27805242 13487811
0.7817083 0.045088287 0.27354625 13290175
0.77792865 0.054107271 0.27768752 13422018
0.78150004 0.055443693 0.2731685 13355968
0.77875006 0.061781228 0.27843827 13422018
0.78225827 0.065531015 0.27489007 13355711
0.78376681 0.075420372 0.2742658 13158074
0.78265548 0.085292123 0.2751736 12960695
0.78196543 0.095253415 0.27474168 13158074
0.78082359 0.10508908 0.27527964 13421246
0.78230006 0.11508252 0.27503577 13618625
0.78651851 0.12526037 0.27471957 13027260
0.78900003 0.13176647 0.27369913 9671819
0.79205561 0.13633902 0.27531555 9869453
0.78780758 -0.14487776 0.28518704 12301997
0.79000002 -0.14954583 0.28384787 9012092
0.77900004 -0.13105069 0.28901383 13881284
0.78303462 -0.13552509 0.2848497 13881541
0.77792597 -0.12507226 0.28541157 13815747
0.78120005 -0.12886065 0.28123337 13947333
0.77493548 -0.11480355 0.28496069 13684418
0.77286214 -0.10456517 0.28508413 13750211
0.77088463 -0.095537193 0.28489229 13881797
0.76900005 -0.083216719 0.2881678 13552832
0.77000022 -0.086039484 0.28391141 13816004
0.76824135 -0.075163975 0.28517497 13618625
0.77000004 -0.079064272 0.28116831 14210762
0.76669461 -0.065264657 0.28444666 13552832
0.76658833 -0.054908898 0.28435248 13750211
0.76661128 -0.045363039 0.28515986 13816004
0.76840001 -0.036356546 0.28669858 14144969
0.77052951 -0.032854743 0.28358865 14210762
0.76900005 -0.028554793 0.2898044 14210762
0.77176678 -0.025043072 0.28451985 14013383
0.7723335 -0.015117894 0.28472945 13816004
0.77276671 -0.0051765563 0.28488937 13618625
0.7727223 0.0047727562 0.2848736 13421247
0.77256685 0.01471899 0.2848148 13553091
0.77338892 0.024693929 0.28511855 13421505
0.77451617 0.034760356 0.28532916 13355968
0.77507514 0.044887714 0.28510416 13421761
0.77570015 0.054730579 0.28488109 13421762
0.77688599 0.06468749 0.28471795 13487041
0.78100002 0.069729716 0.28061301 13487039
0.77714282 0.074670233 0.28628582 13487039
0.78100002 0.075475909 0.28139621 13421246
0.77813047 0.084761068 0.28698674 13355197
0.781111 0.085282572 0.28187191 13092283
0.77899998 0.094300732 0.28940463 13223354
0.78107685 0.095335335 0.28429672 13026233
0.7790001 0.10685313 0.28843355 13157817
0.78033334 0.10460636 0.28425604 13092025
0.7790001 0.11365039 0.28810197 13355453
0.78094995 0.11634649 0.28370303 13487039
0.78610015 0.12540023 0.28501943 12895160
0.78900003 0.13139705 0.28902978 9671817
0.79280955 0.13512985 0.28507608 9803660
0.78670365 -0.14503977 0.29504156 11973289
0.7790001 -0.13196252 0.2953966 13618112
0.78111118 -0.13658847 0.29477379 13683905
0.77734625 -0.12517501 0.29497832 13552319
0.7756573 -0.11518496 0.29516676 13420734
0.77384013 -0.10482226 0.29525262 13355197
0.7720741 -0.095144309 0.29491398 13421246
0.76900005 -0.081790552 0.29340485 13618369
0.77039146 -0.086397536 0.29558331 13420989
0.76765382 -0.075092956 0.29489663 13486782
0.7658056 -0.065190941 0.29487553 13486782
0.76368982 -0.055175986 0.29421297 13552576
0.76260519 -0.044947308 0.2948142 13552576
0.76462173 -0.034774963 0.29458278 14013383
0.76686209 -0.025008036 0.29543152 13947334
0.77000004 -0.02354469 0.29054177 13750211
0.76825005 -0.016497476 0.2973887 13552832
0.77031839 -0.014340236 0.29292351 13487039
0.77070016 -0.0051628668 0.29495388 13421246
0.76845455 0.0069531668 0.29810181 13421503
0.7705186 0.004124057 0.2937158 13355453
0.76804763 0.014633003 0.2973204 13355712
0.77028579 0.014675531 0.29196271 13421246
0.76900005 0.022452092 0.29820552 13290175
0.77080017 0.025031773 0.29420981 13289661
0.77196783 0.034761943 0.29558277 13224125
0.77291429 0.044710577 0.29567087 13355968
0.77348483 0.054902676 0.2952776 13487810
0.77420604 0.064858675 0.2942695 13553089
0.77463329 0.074602589 0.29464582 13618625
0.77616692 0.08474461 0.29522932 13618625
0.77784628 0.094802529 0.29516631 13551806
0.77856654 0.10505398 0.29523116 13025975
0.78000003 0.10250833 0.29029784 13157561
0.77852184 0.11475553 0.29545224 13223867
0.78066665 0.11904392 0.29237273 13421246
0.78482145 0.12513088 0.29523823 12763573
0.78866673 0.13216248 0.29577935 9737867
0.79119056 0.13705604 0.2947236 9672331
0.78742105 -0.14459789 0.30441165 11973289
0.7902 -0.14921382 0.30667374 8618104
0.77900004 -0.13196251 0.30086759 12697010
0.78326327 -0.13591997 0.30531654 12631217
0.77783328 -0.12524085 0.30208692 13223611
0.78155559 -0.12558593 0.30714116 12828853
0.77700001 -0.11474822 0.30383623 12960184
0.78200006 -0.11599638 0.30934894 12236974
0.77618182 -0.10489167 0.30473825 12500146
0.77417254 -0.095056355 0.30456737 12697524
0.77208 -0.084702455 0.30542663 12565682
0.76846159 -0.07378722 0.30344009 13025975
0.77018183 -0.077607878 0.30565789 12697268
0.76683336 -0.065277584 0.30424944 13223612
0.76559103 -0.054904375 0.30416626 12894904
0.76416683 -0.045371596 0.30468276 12960697
0.76311785 -0.034326758 0.30456021 13749956
0.76293343 -0.024756113 0.30448374 13881286
0.76599991 -0.014811471 0.30507642 13552577
0.76663637 -0.0050825248 0.3053852 13223613
0.77000004 -0.0060596261 0.30099675 13355453
0.76567501 0.0045485836 0.30494562 13223869
0.7663334 0.014668037 0.30507705 13158589
0.76865518 0.024015237 0.30450436 12961467
0.77000004 0.028489897 0.30580363 12764088
0.76900005 0.034453709 0.30473581 12961467
0.7700001 0.036578417 0.30390862 12961467
0.76900005 0.04210474 0.30600658 12829881
0.77038109 0.045937743 0.30440792 13093053
0.77136374 0.055574778 0.3046464 13224639
0.77280021 0.065380104 0.30480444 13224639
0.77385306 0.075166546 0.30543318 13290175
0.77506894 0.084968306 0.30497891 13618626
0.77637941 0.094888754 0.3045544 13881542
0.7773335 0.10488827 0.30477226 13355197
0.77780002 0.11496612 0.3049556 13092539
0.78389299 0.12511386 0.30511284 12040366
0.78838468 0.13243085 0.30562735 9672333
0.79021436 0.13728158 0.30493408 9541260
0.79253328 0.14497572 0.30516455 9541260
0.78900003 -0.14381535 0.31088671 12171951
0.79163152 -0.14507522 0.31530771 9474440
0.7881667 -0.13459261 0.31286564 11119264
0.79122227 -0.13537163 0.31773171 8355960
0.78733331 -0.12507948 0.31404245 10461078
0.79000002 -0.127353 0.31806183 7764080
0.78666669 -0.11471603 0.31567138 10329492
0.79000002 -0.11903067 0.31991127 8223603
0.77900004 -0.10004859 0.31180951 11710630
0.78335297 -0.10513972 0.31485039 10395285
0.77700007 -0.093509912 0.3123329 11447972
0.78211111 -0.095974997 0.31753185 8750717
0.77572227 -0.084798552 0.31473878 9934992
0.78100002 -0.087507099 0.31992337 7369069
0.77445847 -0.074990727 0.31452891 10395542
0.77464992 -0.065034561 0.3146084 11579302
0.77372736 -0.055325139 0.31447929 12236974
0.76749998 -0.043173764 0.31139955 12368562
0.77285719 -0.045628931 0.31659082 11776168
0.7665385 -0.034401111 0.31303474 13025978
0.77114284 -0.035598554 0.3176915 11447204
0.76493341 -0.024822338 0.31334522 13618627
0.77079999 -0.025012717 0.319354 11250082
0.7666111 -0.015005491 0.31403196 13552834
0.77099997 -0.015092121 0.31943688 12369075
0.76633334 -0.0051340829 0.31391901 13092283
0.77149999 -0.0060708448 0.31964403 12895163
0.76550007 0.0047302288 0.31267938 12895417
0.77060002 0.0038589935 0.31746715 12500916
0.76733333 0.014470238 0.31238064 12697525
0.77200001 0.016213859 0.31744269 12500146
0.76900005 0.020951886 0.3114073 12105388
0.7713201 0.025240023 0.3147338 12236974
0.77100021 0.035122383 0.31383252 12171694
0.77103722 0.044973426 0.3142412 12106158
0.77148294 0.055180993 0.31409639 12237744
0.77364004 0.065089397 0.31509981 12171951
0.77485722 0.074882858 0.31455883 12632502
0.77531034 0.085369095 0.31496561 12829881
0.77575856 0.094562247 0.31489602 13158589
0.77683359 0.10482123 0.31457964 13356224
0.7778697 0.11474006 0.31468311 13224637
0.78050005 0.11810552 0.31971854 12698036
0.78318524 0.12513822 0.31490913 11382692
0.78795999 0.13476752 0.31532052 9409674
0.79000002 0.13834475 0.3112807 9409674
0.78888893 0.14204918 0.31740904 9409674
0.79057151 0.14558414 0.31441253 9475467
0.79261279 0.15468721 0.31521967 9475467
0.78900003 -0.11241528 0.32135338 8093046
0.79223537 -0.11506041 0.32594675 8750974
0.78815389 -0.10448995 0.32257113 8355960
0.79079998 -0.10526687 0.32782644 8816767
0.78733325 -0.09477105 0.32487604 8487802
0.79025006 -0.096869349 0.32926244 8816766
0.78552943 -0.084985875 0.32513699 8356216
0.78513336 -0.07510367 0.32529721 8093044
0.78616661 -0.0650803 0.3257252 7961201
0.77750003 -0.051622771 0.32030979 9013119
0.7846154 -0.055274978 0.3253648 8092530
0.7766667 -0.043689329 0.32239178 7434602
0.78287506 -0.046251904 0.32687905 7961459
0.77499998 -0.03512891 0.32291105 7631981
0.78119999 -0.03486035 0.32878414 8224628
0.77579999 -0.025175596 0.32506245 8092532
0.7762779 -0.015195627 0.32526195 7829362
0.77527279 -0.0055258689 0.32384998 9079686
0.78150004 -0.0043176953 0.32927573 7500652
0.77500004 0.0047045047 0.32208633 9013891
0.78140002 0.0057432661 0.32740432 6974309
0.77560008 0.014777249 0.32225227 9539977
0.78220004 0.014901588 0.32773954 6908516
0.77624995 0.02478414 0.32252207 10921373
0.78200006 0.024967432 0.32765576 6842723
0.77609098 0.035102125 0.32270429 10395285
0.78133339 0.035313342 0.3279874 6974048
0.77594447 0.044754483 0.32330531 9868941
0.78200006 0.04510292 0.3294864 7368293
0.77526659 0.054698993 0.32302237 10132113
0.78079998 0.055090327 0.32898077 7236965
0.77680004 0.06353683 0.32256848 11316643
0.78211117 0.066167042 0.32689017 9342599
0.77880007 0.075003788 0.32084534 12040365
0.78435713 0.075275667 0.32667956 10790300
0.77788895 0.085638523 0.32208923 12237744
0.78233337 0.084192753 0.3265765 11579816
0.77718186 0.09519238 0.32266062 12435123
0.78200001 0.094948761 0.32865551 9934733
0.77842861 0.10451625 0.3219946 12435124
0.78175002 0.10525462 0.32686594 12106160
0.77900004 0.11331882 0.32092774 12764089
0.78257895 0.11538389 0.32578006 12237747
0.78468001 0.12516984 0.32510856 11250851
0.78724009 0.13479209 0.32432285 9343881
0.78835714 0.14486873 0.32504535 9409674
0.79000002 0.14820823 0.32176065 9343881
0.7887333 0.15486458 0.32666051 9409674
0.79074997 0.15586989 0.32218057 9343881
0.78900003 0.16242771 0.32800281 9475467
0.79103994 0.16551468 0.32418114 9475210
0.79183346 0.17450486 0.32528481 9541260
0.79205 -0.085037962 0.33465144 8750972
0.78900003 -0.079168148 0.3305887 8685179
0.79160702 -0.074466355 0.33539033 8685179
0.79152 -0.064597107 0.33535305 8488313
0.78883338 -0.053606238 0.33113453 8356214
0.79136848 -0.055809069 0.33626336 8488057
0.78781819 -0.04468108 0.33244157 8356214
0.79114282 -0.045649592 0.33757305 8619387
0.78710002 -0.0347545 0.33403292 8487800
0.79066664 -0.035529468 0.33838263 8553593
0.78625005 -0.024746029 0.33434793 8224628
0.79000002 -0.025265882 0.33840528 8356214
0.78613341 -0.015080273 0.33466783 8027249
0.79000002 -0.01084053 0.33840528 8027249
0.787 -0.0056792963 0.33425561 7961456
0.79083329 -0.0046790899 0.33845404 7961456
0.78733331 0.0048658624 0.33265671 7632491
0.79144448 0.0045802239 0.33778986 8027249
0.78700006 0.014992334 0.33251569 7895407
0.79130012 0.015075194 0.33803749 8027249
0.78733325 0.025137713 0.33357978 7632491
0.79066664 0.025242575 0.33869088 7829870
0.78692317 0.034832455 0.33368954 7566441
0.79000002 0.035394575 0.33840528 7895663
0.78706253 0.045395479 0.33507696 7895406
0.79000002 0.040942788 0.33840528 7764077
0.78687501 0.055171952 0.33534339 7961200
0.78753334 0.064414285 0.33415565 7435116
0.79025006 0.067318536 0.33805004 8027250
0.78850007 0.07501442 0.33222562 7237481
0.79137498 0.075288028 0.33737516 7829616
0.78740007 0.08578337 0.33385324 7435115
0.7906 0.083171673 0.33792254 8158836
0.78731585 0.095418148 0.33560923 8092786
0.78714997 0.10529153 0.33442432 8816508
0.78794742 0.11442669 0.33461589 9474696
0.79000002 0.11861777 0.33840528 9145732
0.7881667 0.12480096 0.33393085 9671820
0.79000002 0.12509067 0.33840528 9343111
0.78849995 0.13500556 0.33314919 9408904
0.79000002 0.1352624 0.33840528 9474697
0.78848147 0.14546207 0.3336542 9474697
0.79000002 0.14266002 0.33840528 9540490
0.78854162 0.15516536 0.33393589 9540490
0.79000002 0.15930465 0.33840528 9606283
0.78900003 0.16261242 0.33280522 9540490
0.79013336 0.16623738 0.33574995 9540490
0.79104012 0.17432983 0.33514822 9606283
0.79232019 0.044771768 0.3449674 7896434
0.79196656 0.054949507 0.34481379 8027764
0.79259092 0.09513852 0.34458101 8488058
0.79193109 0.10516238 0.34492594 8751486
0.79200011 0.11521073 0.34482783 9014916
0.79177773 0.12485596 0.34452537 9212038
0.79132158 0.13489248 0.34472975 9343624
0.79160005 0.14480276 0.3446534 9409161
0.79242867 0.15482606 0.34481743 9409161
0.79171878 -0.1147116 0.35471734 9737869
