# .PCD v0.7 - Point Cloud Data file format
VERSION 0.7
FIELDS x y z rgb
SIZE 4 4 4 4
TYPE F F F U
COUNT 1 1 1 1
WIDTH 757
HEIGHT 1
VIEWPOINT 0 0 0 1 0 0 0
POINTS 757
DATA ascii
0.44700003 -0.091941498 -0.030366799 15724775
0.44600001 -0.082338959 -0.030298863 14869466
0.44500002 -0.06256938 -0.03023093 14803162
0.44411114 -0.054959808 -0.030170543 15264227
0.44400007 -0.0450706 -0.030162994 13948368
0.44400004 -0.035196189 -0.030162994 13026752
0.44410005 -0.025326421 -0.030169789 11842224
0.44430003 -0.014940199 -0.030183375 11512484
0.44466665 -0.0050584869 -0.030208282 11445149
0.44440007 0.0048227082 -0.030190166 11709347
0.44400007 0.015215295 -0.030162994 11513767
0.44355562 0.025061991 -0.0301328 11908527
0.44240004 0.03483953 -0.030054301 12236461
0.44383335 0.043264147 -0.030151673 12499889
0.44648156 -0.13251877 -0.023019359 14408404
0.44673973 -0.1247961 -0.024595793 14211025
0.44628239 -0.11502385 -0.024979889 14078411
0.44592959 -0.10504798 -0.025205694 14077896
0.44490689 -0.094939619 -0.024901062 13749702
0.44441682 -0.084982432 -0.02510561 13749958
0.44373581 -0.075008109 -0.024847852 13750213
0.44348258 -0.064944975 -0.025173547 13946309
0.44271094 -0.054910351 -0.024814272 14078408
0.43900001 -0.042507634 -0.020573959 14867408
0.4423179 -0.04505283 -0.025123674 13749442
0.4390001 -0.034893263 -0.020667387 14076866
0.44209868 -0.035103165 -0.025435105 14077638
0.43900007 -0.025036618 -0.021087816 12368307
0.44234294 -0.025226425 -0.025914468 13354944
0.4390001 -0.01438584 -0.021227958 11775653
0.44238248 -0.014996616 -0.02600795 13421252
0.43872005 -0.0052809049 -0.021506332 11446432
0.44244662 -0.0049047112 -0.02630852 13618631
0.43876922 0.0052376213 -0.021432741 10723994
0.44243768 0.00460866 -0.026210913 13092031
0.43866676 0.01503253 -0.021586047 10657178
0.44226691 0.015155701 -0.026427122 12895421
0.43888009 0.024801226 -0.021390505 11117980
0.44156906 0.025129002 -0.026134724 13224129
0.4390001 0.035371996 -0.021519456 11379866
0.44086897 0.034403984 -0.026078856 14209738
0.43900007 0.044847447 -0.021087816 10985624
0.44068521 0.044692401 -0.025030732 13749958
0.4390001 0.053436149 -0.021087812 10788758
0.44002265 0.055346716 -0.023876172 14408143
0.4405098 0.064908653 -0.023053033 14276557
0.4403061 0.074882932 -0.022655752 14605523
0.44046149 0.084986508 -0.02236262 14473936
0.43900004 0.097774349 -0.020745242 15460316
0.44000003 0.093168728 -0.021586495 15197917
0.43900001 0.10239904 -0.020573959 15855328
0.44 0.10726751 -0.020620825 14341324
0.44288889 0.11523518 -0.020756213 5524551
0.44400004 0.12123532 -0.020808287 4076330
0.44395605 -0.13385189 -0.014956155 14144459
0.4430629 -0.12503597 -0.01519417 13815493
0.44270852 -0.11500346 -0.015009427 13419707
0.44195721 -0.10502271 -0.015078395 13550264
0.43900001 -0.090809859 -0.010296891 13420476
0.44134048 -0.095206179 -0.015019448 13354169
0.43900007 -0.083542518 -0.011079906 14144199
0.44121116 -0.085049614 -0.016390631 13092282
0.43879154 -0.074225418 -0.012689496 13157305
0.44057134 -0.075861894 -0.017530702 14341323
0.43796238 -0.064849265 -0.013878691 12960183
0.44000003 -0.067523703 -0.018956902 15527138
0.43733692 -0.054799605 -0.014753436 13683908
0.44 -0.05754016 -0.019590776 15132381
0.4365727 -0.045146748 -0.014722752 13552064
0.43617997 -0.03508845 -0.014837204 13158076
0.43537 -0.024830217 -0.014808983 13157306
0.43542862 -0.014732495 -0.014894601 12828598
0.43497831 -0.0050608697 -0.01470713 12565170
0.43496001 0.0047222171 -0.014792814 11645097
0.43497986 0.014906071 -0.014794599 12039085
0.43515006 0.025100209 -0.014799901 12171954
0.43559387 0.035131436 -0.014686876 12368306
0.43678725 0.044916417 -0.014985607 12565682
0.43753991 0.054942407 -0.014879436 12762549
0.43785709 0.064840853 -0.014217632 13420478
0.44 0.066065595 -0.019384768 11642016
0.43812647 0.074846119 -0.01395572 13618113
0.44000003 0.074956521 -0.019102864 10854294
0.43828195 0.084907167 -0.013954039 13617856
0.44 0.085121475 -0.019075753 12499632
0.43833315 0.095220715 -0.014721905 13288890
0.44000003 0.091559276 -0.019333266 15132380
0.43822062 0.10471007 -0.014446612 12960183
0.44000003 0.10829755 -0.019002179 15460831
0.43876928 0.11394791 -0.012267537 11710117
0.44126412 0.1156875 -0.016921634 12433327
0.43900004 0.12192547 -0.010810743 3353377
0.44261768 0.12256381 -0.015965829 3813414
0.44129634 -0.13335583 -0.0044804756 14143432
0.4403331 -0.12505601 -0.0046145921 13354942
0.44048053 -0.11483312 -0.0046638129 12959670
0.4390001 -0.10325134 -0.0019506651 12695467
0.4401404 -0.10578805 -0.0062209843 13945792
0.43873584 -0.094553925 -0.0042429529 13024947
0.44000003 -0.098284274 -0.0087180492 15262935
0.43792292 -0.084894069 -0.0046895118 13091514
0.43638167 -0.074994847 -0.0046611931 12829112
0.43433696 -0.065047249 -0.0045129429 13288377
0.43263984 -0.055062018 -0.0045870463 13552062
0.42899996 -0.043146227 -0.00032065896 14605780
0.43161783 -0.045034271 -0.0051032081 13288891
0.42851996 -0.034812313 -0.00086267671 13487298
0.43115285 -0.03489387 -0.0059549552 13092026
0.42819521 -0.025362469 -0.0015858737 11906982
0.43076801 -0.024837291 -0.0067032618 13749187
0.42817506 -0.015398468 -0.0015248408 11447716
0.4305791 -0.015245575 -0.0064944481 13487558
0.42812499 -0.0053729573 -0.0015246046 10920087
0.43063325 -0.0054047038 -0.0065749544 13551808
0.42824998 0.0046501523 -0.0015251955 11050902
0.43101659 0.0046807602 -0.006581645 12960442
0.42857575 0.014429107 -0.0012060336 10920859
0.43081534 0.014833256 -0.0062140008 12499632
0.42871425 0.024274761 -0.0006410646 11446174
0.43101281 0.024925651 -0.0056388327 12697012
0.42900002 0.030267864 -1.936998e-05 11644324
0.43134332 0.035025172 -0.0046172608 12631220
0.43309271 0.045120023 -0.0044793608 12303281
0.43411669 0.054911714 -0.0046629831 12499892
0.4344646 0.064772077 -0.0046473374 12960183
0.43453997 0.074910969 -0.0046014623 13156793
0.43472016 0.085117944 -0.0046039047 12696499
0.43470398 0.095197149 -0.0045205969 12565426
0.43469065 0.10511217 -0.0045566163 13025206
0.43655291 0.11485019 -0.0047750897 12367534
0.43900007 0.12130342 -0.0063483329 3419173
0.44228005 0.12538925 -0.0035138922 3353377
0.44490233 0.1345519 -0.0018990691 3288095
0.4390001 -0.13093714 0.0072675543 13223612
0.44051212 -0.13397157 0.0044045206 14077895
0.43899968 -0.12481759 0.0063332734 13223614
0.43999994 -0.12475079 0.0017827173 14736338
0.43891272 -0.11464076 0.0057424805 13354429
0.44000003 -0.1169396 0.0015252052 13815751
0.43830311 -0.10508502 0.0050614816 13222840
0.43647581 -0.094951443 0.0051343297 13091509
0.43472421 -0.084974103 0.0050179204 12828855
0.43275893 -0.074954823 0.0051244958 12829112
0.42833334 -0.062843442 0.0084306207 12892077
0.43084511 -0.065437153 0.0041815522 13551805
0.42715499 -0.054481141 0.0066218516 13353140
0.4300417 -0.056573715 0.0022036729 15459287
0.42583653 -0.045131702 0.0055363202 13486269
0.42479974 -0.035167523 0.0054391385 13353914
0.42429274 -0.025196843 0.0054572895 12631990
0.42431977 -0.015258164 0.0054341494 12960697
0.42437994 -0.0053269858 0.0054342612 12039595
0.42450991 0.0046099978 0.0054379785 11776169
0.42480156 0.014711089 0.0055540889 11645353
0.42572525 0.024859555 0.0054944726 12368048
0.42687371 0.034506328 0.0057384996 12565683
0.43000004 0.037944123 0.0015464657 11775913
0.42788017 0.043894432 0.0075903926 12236717
0.43021283 0.045611195 0.0029797179 13092026
0.42899996 0.052563258 0.0086175818 13880772
0.43069991 0.055381637 0.0045642657 13091771
0.43121564 0.06514889 0.0051022815 12893361
0.43140897 0.075045973 0.0050581903 12564912
0.43170443 0.08497525 0.0050157756 12434609
0.43194297 0.094903186 0.0049722958 12696754
0.4320786 0.10488276 0.0049877199 13223356
0.43435618 0.11460434 0.005117448 12432812
0.43866673 0.12132003 0.0066890824 3353376
0.44320518 0.12640974 0.0041552843 3156510
0.44537842 0.13309775 0.0035832867 3156767
0.4387286 -0.13313423 0.015436898 13486271
0.44 -0.13551478 0.011104651 14143432
0.43810847 -0.12498417 0.014847333 13551807
0.43726543 -0.11501998 0.014818847 13288634
0.43575832 -0.10499031 0.01481657 13354427
0.43407211 -0.095015645 0.014599184 13091513
0.42900002 -0.080958001 0.018811192 9671819
0.4316853 -0.085070491 0.014552795 13158078
0.42749128 -0.073937796 0.016848225 11841445
0.43031827 -0.076262817 0.012274161 14408402
0.42534304 -0.065039448 0.015268886 13157305
0.43000001 -0.069318719 0.010046963 13355453
0.42284015 -0.054804783 0.015313801 13355200
0.41855565 -0.043196533 0.01865202 13289662
0.4214431 -0.045212172 0.01433772 13092285
0.41777784 -0.034657974 0.017564651 12367274
0.42075524 -0.035082746 0.012764341 14276044
0.41739678 -0.024619132 0.016913854 11381666
0.42062181 -0.025252854 0.012168787 14473936
0.41727859 -0.015078004 0.017016135 12104875
0.42058992 -0.01501111 0.012249684 14013898
0.41751722 -0.0053741829 0.017166683 11709345
0.42061928 -0.0050919717 0.012405566 13618371
0.41785711 0.0051063378 0.017826041 10591380
0.42080331 0.0049973726 0.013076302 13487558
0.41834289 0.01446334 0.018167747 10130572
0.42078471 0.015868083 0.013618002 13224385
0.41900003 0.021715226 0.019598814 9672074
0.42150533 0.025407489 0.015132209 12565427
0.42292014 0.03528779 0.015317779 12500149
0.42491812 0.045249093 0.015350235 12434097
0.42660889 0.055021834 0.014950758 12630704
0.42721289 0.064826541 0.015559217 12433838
0.42999998 0.066345073 0.010356696 14341833
0.427625 0.074843869 0.016405124 12104615
0.43000007 0.075290009 0.011018884 15066070
0.42821422 0.084646702 0.016718443 11710885
0.43000013 0.085485838 0.011434486 14540500
0.42885479 0.094712541 0.016755218 11578784
0.43000013 0.09563566 0.011858914 14341579
0.42899993 0.10365877 0.017903468 11512481
0.43002799 0.10573141 0.013472977 13487043
0.43132898 0.11440422 0.014627748 10656657
0.43799999 0.12216198 0.010576452 2564375
0.43777272 -0.1339284 0.024899023 13617602
0.43541282 -0.12486723 0.024838524 13684421
0.43459168 -0.11498944 0.025016656 13289148
0.43280411 -0.10512681 0.024708331 13419705
0.42847997 -0.09218552 0.027543712 11315619
0.43059468 -0.095815822 0.02385694 13618113
0.42680693 -0.084429294 0.025644355 12894392
0.42999995 -0.087572418 0.021052867 13289664
0.42424726 -0.074979991 0.025180312 13354171
0.41837507 -0.062671214 0.028506272 12434096
0.42150652 -0.065568715 0.024528731 13157049
0.41734782 -0.054438319 0.026228884 12237232
0.42048398 -0.056894392 0.022080828 14474195
0.41560191 -0.045039434 0.025175735 12829369
0.41380358 -0.035131164 0.025077853 12828597
0.4127979 -0.024911581 0.025168609 12631733
0.41284505 -0.014845722 0.02509726 12631991
0.41293645 -0.0051826071 0.025103943 12302510
0.41352066 0.0049764295 0.025139311 11842216
0.41518337 0.015163025 0.0251964 11841963
0.41713324 0.024724364 0.025299348 12565171
0.42000002 0.02805971 0.021218751 11578014
0.41794121 0.034285232 0.027201386 12171440
0.42048988 0.035695169 0.022700788 12565944
0.41875008 0.042125702 0.028736209 12038312
0.42094323 0.045332976 0.024590904 12894135
0.42227006 0.055004667 0.025181066 12368561
0.42384994 0.065131344 0.025275778 12697010
0.42491964 0.075242691 0.025343671 12565423
0.42581785 0.085294202 0.025390795 12368045
0.42682844 0.094969593 0.024907 12763061
0.42805609 0.10490113 0.024896519 12631475
0.42892852 0.11181267 0.025800643 13353912
0.43005469 0.11586279 0.024381183 7367527
0.43137509 0.1217022 0.027752021 2960162
0.43477577 -0.13292515 0.034412403 13880771
0.4333643 -0.12505876 0.035040122 13946564
0.42900002 -0.11033368 0.039148204 8353904
0.43175808 -0.11513419 0.034794599 13223354
0.42804271 -0.10358653 0.03718124 12893104
0.43020386 -0.10611227 0.032897454 13223098
0.42606232 -0.094963498 0.035162512 12894392
0.42999998 -0.0991823 0.030515263 12366758
0.41900003 -0.080623932 0.038889583 13552835
0.42267379 -0.085135214 0.034991365 13025978
0.41763455 -0.073682517 0.036866948 12367018
0.42087242 -0.076255284 0.032933716 14078149
0.41566977 -0.064956188 0.035084415 13091512
0.42000002 -0.069181502 0.03046109 14076866
0.40879998 -0.051929247 0.038548641 13289663
0.41295996 -0.055204805 0.0343871 12697527
0.40805787 -0.044361655 0.037748899 12236205
0.41149116 -0.045330063 0.032932922 13487045
0.40748936 -0.034719352 0.036421698 12630448
0.41056529 -0.035974465 0.031531364 14473933
0.40698057 -0.025079476 0.035498008 12237233
0.41000006 -0.025096681 0.030695645 13290946
0.40698251 -0.015010787 0.03555961 12104875
0.41000006 -0.016184088 0.030695645 13158591
0.40726915 -0.0052188155 0.036049493 12170153
0.41017646 -0.0045541297 0.031104073 13683648
0.40767071 0.0046534599 0.036556479 11512480
0.41056672 0.0057091396 0.031666361 13223612
0.40850011 0.013597855 0.037729297 10461081
0.41156927 0.015818205 0.033551421 12960957
0.40900001 0.020239487 0.039238062 7499367
0.41281632 0.02482049 0.034718093 12170927
0.41451776 0.034773409 0.035024125 12368049
0.41678381 0.04494023 0.035151802 12434099
0.42000002 0.049297426 0.03046109 7500402
0.41767842 0.054695148 0.036049835 12829111
0.42021742 0.055782516 0.03128919 10789788
0.41863641 0.063215286 0.037979219 13947333
0.42074329 0.065491006 0.033933334 12170923
0.42183879 0.074852422 0.034997765 12499631
0.42350015 0.08499743 0.03508909 12828083
0.42472962 0.095095627 0.035274997 12763062
0.42569447 0.10503039 0.03542367 12960183
0.42801791 0.11284768 0.03510141 11577247
0.43002641 0.11789668 0.033996187 4011309
0.43100002 0.12208749 0.033553164 2828314
0.43269846 -0.13342781 0.044802893 13683651
0.4289166 -0.12219447 0.048512086 12368564
0.43071246 -0.12534596 0.044367287 13815749
0.4276166 -0.11405314 0.046023957 12961216
0.4300715 -0.11740548 0.042050343 12038568
0.42521629 -0.10505524 0.045056377 13156791
0.41866669 -0.091014266 0.048168611 11840422
0.42186058 -0.095215164 0.044737764 13354169
0.41725579 -0.084485397 0.045748629 12698041
0.42052633 -0.087688923 0.041690558 13421248
0.41434622 -0.075084254 0.04487028 12565940
0.40847507 -0.063387834 0.047721185 12103591
0.41158566 -0.065774642 0.043652471 13288891
0.40718117 -0.054685529 0.044974849 12893876
0.41020003 -0.058828942 0.040889364 13289919
0.4045487 -0.044979878 0.045346882 12631219
0.40285215 -0.035012022 0.045114875 12499631
0.39900002 -0.022755377 0.04948749 13222070
0.40180013 -0.025180725 0.044992901 12367791
0.39899999 -0.016683947 0.049487494 10855066
0.40179843 -0.014803901 0.044832397 12630705
0.40225452 -0.0050477586 0.045170788 12367278
0.40339658 0.0048558107 0.045301195 11579561
0.40563375 0.014821115 0.044889919 11973548
0.40773821 0.02454491 0.045533758 12105649
0.41033337 0.027457668 0.041126683 10459796
0.40855578 0.034033921 0.047738642 12763834
0.41129237 0.035982344 0.043276485 12235691
0.40900001 0.040346488 0.049770303 13618629
0.41270843 0.044994589 0.045054588 12367792
0.41486549 0.055124309 0.044928692 12499376
0.41689909 0.064999945 0.044915233 12697012
0.42000002 0.069945201 0.040293366 13683905
0.418111 0.074230894 0.047054313 11775905
0.42040431 0.076484039 0.042487882 13947592
0.41888896 0.081527948 0.048576202 11183512
0.42098868 0.085487917 0.044607431 13091769
0.42212287 0.095005631 0.044939216 12763062
0.42406228 0.10506076 0.045021608 12433582
0.42603329 0.11334084 0.044655193 9669507
0.42794999 -0.13165274 0.057432182 15920355
0.43041179 -0.13360627 0.052967448 12696756
0.42694882 -0.12471908 0.055230621 13420994
0.43000001 -0.12931433 0.051117778 11976630
0.42467359 -0.11501272 0.054967169 13091771
0.41870004 -0.101804 0.058791678 11185062
0.42160678 -0.10521957 0.054680955 12960699
0.41731703 -0.094393298 0.055757802 12960443
0.4204286 -0.097631514 0.051816504 12828856
0.41363725 -0.084944114 0.0550538 12828599
0.40826803 -0.073412664 0.056590937 11908266
0.41124997 -0.076739565 0.053077325 12894905
0.4057999 -0.064949185 0.05507062 12631732
0.39862502 -0.051313583 0.059122551 12961210
0.40266061 -0.055161081 0.054635346 12828340
0.39751726 -0.04439719 0.057161693 11840675
0.40087932 -0.045777671 0.052630015 13749443
0.39664215 -0.034706 0.0557197 12301740
0.40000007 -0.036657859 0.051016144 13816262
0.39602256 -0.024904102 0.055130631 12368305
0.39607576 -0.01470652 0.055140436 12500148
0.39658549 -0.005163969 0.055075958 12564912
0.40000001 -0.0017432468 0.050547928 13158595
0.39744592 0.0042682309 0.056759514 11511711
0.40025523 0.0056331335 0.052273978 12763319
0.39840004 0.012394579 0.058552183 10198165
0.40155137 0.015754219 0.054451879 11908011
0.40413389 0.025122857 0.054853376 12236975
0.40615293 0.034886587 0.055161975 12368304
0.40815508 0.044144817 0.055954758 12697525
0.41064289 0.047066834 0.051788192 10591125
0.40900001 0.051261723 0.058579087 14013899
0.41154689 0.055124968 0.054711033 12565683
0.41387022 0.064918093 0.055172712 12434096
0.41634351 0.074842267 0.055011798 12500402
0.41802251 0.084186099 0.055457745 12763574
0.42020005 0.088324949 0.052067149 12367277
0.4189232 0.092020668 0.058974203 12895418
0.42072165 0.095551826 0.054585923 12697011
0.42161083 0.10492785 0.054938477 12302253
0.42354909 0.11266723 0.055073332 9208699
0.42495567 -0.13230716 0.064860001 13617858
0.42318639 -0.12483807 0.065306745 13354944
0.41857904 -0.11255413 0.068367168 13682107
0.42116851 -0.11550853 0.064170651 13156536
0.41714945 -0.10455131 0.065450251 13157049
0.42025003 -0.10841142 0.061632518 11708835
0.40900001 -0.090827771 0.069877304 15392726
0.4135941 -0.094950102 0.064861372 12959671
0.40803003 -0.083885022 0.066414759 12828600
0.41141462 -0.086856849 0.062746748 12500150
0.40528944 -0.074987315 0.065045364 12499634
0.39817652 -0.061831854 0.06846533 11118495
0.40167713 -0.065472089 0.064387925 12959412
0.39682981 -0.054477956 0.065696724 12367274
0.40021738 -0.057837319 0.061736159 13946819
0.39403117 -0.044939302 0.065068483 12631475
0.38900003 -0.031746957 0.069192298 10789788
0.3922151 -0.035025179 0.064754196 12631733
0.38895831 -0.024990693 0.06872946 10592153
0.391552 -0.024755867 0.064035773 12565170
0.38888568 -0.015531898 0.068521224 11117723
0.39166647 -0.015077431 0.063798867 12697271
0.38899997 -0.0080698989 0.068561837 12104360
0.39231852 -0.0049010962 0.06447348 12039341
0.39396957 0.0047431248 0.064991936 11841960
0.39649135 0.014741502 0.065215908 12039852
0.40000001 0.019232275 0.061410248 9933960
0.3980732 0.023496641 0.067894779 11578532
0.4005394 0.025658106 0.063370422 12236718
0.4024629 0.034997858 0.064984493 12302511
0.40543944 0.045221113 0.064989492 11973289
0.40810931 0.054809716 0.065322287 11973287
0.41011116 0.058271244 0.060999598 14210509
0.40883884 0.062344301 0.067656979 11710372
0.41122368 0.065966204 0.06418699 13158075
0.41360921 0.075179361 0.064848572 12697523
0.41605785 0.085166894 0.065130822 12894903
0.41771409 0.0949267 0.065269284 12105645
0.42000002 0.098655447 0.061334431 10722708
0.41869575 0.10224432 0.067441501 11973288
0.42061734 0.10587478 0.064068615 12368045
0.42132515 0.1122584 0.064262584 8089450
0.42115563 -0.13239498 0.074863441 13814468
0.41819513 -0.12333955 0.076913945 14341067
0.4205614 -0.1266465 0.07359536 12827573
0.41649529 -0.11502414 0.07515119 13091771
0.42000002 -0.11981771 0.070773423 9143938
0.40900001 -0.10040253 0.079452068 10657177
0.41337141 -0.1050105 0.074797727 13091513
0.40764636 -0.093760185 0.076204114 13617860
0.41097435 -0.096967079 0.072803311 12169642
0.40468457 -0.085078135 0.075120717 12894136
0.39800003 -0.07221172 0.078021362 11182747
0.40140915 -0.075669713 0.074351482 13157306
0.39616659 -0.064823084 0.075233459 12432812
0.40000004 -0.068228163 0.071044832 13092285
0.38900003 -0.051599257 0.078845248 12171439
0.39275831 -0.05520612 0.074755326 12564398
0.3884795 -0.044563044 0.077170171 11840676
0.39082703 -0.045727611 0.072418168 14209481
0.38722426 -0.035056572 0.075023457 12236204
0.39000002 -0.03803695 0.070465758 13947335
0.38615096 -0.02514323 0.074923091 12039083
0.38592771 -0.015179869 0.075076379 12237232
0.38706207 -0.0053712064 0.074772872 11907240
0.39000002 -0.0012431671 0.07028316 11645607
0.38839999 0.003622388 0.077032618 11643555
0.39083052 0.0057739657 0.072772384 12106417
0.38900003 0.010826213 0.078981847 11118494
0.39255199 0.015049385 0.074835904 11907496
0.3954241 0.025054719 0.075034574 12104619
0.39778262 0.033682052 0.076404892 12763061
0.40035993 0.036777616 0.072898604 11380122
0.40227684 0.044936027 0.075211331 11973290
0.40521213 0.054735642 0.075041704 12367790
0.40761945 0.064606011 0.075316697 12368047
0.41000006 0.068599783 0.070688032 12763573
0.40886956 0.071753949 0.076929063 11842728
0.41129756 0.075731806 0.074347124 12961210
0.41346157 0.084943838 0.074784808 12565682
0.41564563 0.09500894 0.074899405 12236459
0.41748232 0.10440438 0.075475276 11842217
0.42016673 0.1084983 0.072358482 14211279
0.41900003 0.1109759 0.078452006 7564653
0.42047831 0.11153864 0.074318312 7893875
0.41780648 -0.13231713 0.087185651 13880515
0.4204075 -0.13356741 0.083125398 12894392
0.41584605 -0.12485325 0.085003816 13091256
0.40900001 -0.11165288 0.08974494 13091001
0.41262743 -0.11511447 0.084940881 13024951
0.4081693 -0.10410341 0.086326361 13946308
0.41095001 -0.10716015 0.082618497 11840420
0.40482557 -0.095107041 0.085049137 12893107
0.39765629 -0.082637377 0.087834165 11708832
0.40116674 -0.085972346 0.084129788 12695983
0.3957167 -0.074840918 0.085394293 12367276
0.40000004 -0.078796186 0.081315584 11380638
0.38863999 -0.06232423 0.088014565 10262671
0.39234343 -0.06571956 0.084242634 12828084
0.38767901 -0.054805528 0.085535668 12300970
0.39056247 -0.057705414 0.081469841 13683908
0.38508397 -0.044920918 0.085089274 12433585
0.38309681 -0.034795959 0.084809534 11906727
0.37850004 -0.024177343 0.08879438 7698032
0.38211927 -0.02514625 0.08423458 11908011
0.37866676 -0.015635382 0.089170881 7829361
0.38206947 -0.014933319 0.084626436 11908270
0.38320878 -0.00531526 0.08483474 11710632
0.38535327 0.0047027646 0.085102499 11644840
0.3877233 0.014189027 0.085538462 11974062
0.39034998 0.017353175 0.081494279 10921370
0.38870373 0.022033067 0.088180408 11776167
0.39184877 0.025564328 0.084162459 11776682
0.39498374 0.035002869 0.085244894 11776422
0.39776477 0.044017207 0.085985333 11513509
0.40025702 0.047222041 0.082545228 12499377
0.39900002 0.050802335 0.088951789 12500400
0.40221247 0.055214152 0.084807009 12368817
0.40480843 0.065154135 0.085016638 12828341
0.4075484 0.074765541 0.085228458 13091511
0.41028574 0.07889311 0.081210785 10789525
0.40866673 0.082377076 0.087773405 14342351
0.41145781 0.085932367 0.084080905 11644580
0.41333324 0.094872758 0.085063949 11973543
0.41670477 0.10518935 0.084904172 12301997
0.41855007 0.11144467 0.086006954 3748400
0.42000005 0.11345302 0.083248124 2696478
0.41560328 -0.13319097 0.095122032 13223100
0.40876919 -0.12184075 0.098545589 14801874
0.41228077 -0.1252431 0.09458226 12959670
0.4076193 -0.11436903 0.095775589 13025207
0.41064996 -0.11748804 0.091836333 10853785
0.40429708 -0.10497542 0.09521433 12696499
0.39787883 -0.092593081 0.097357512 13420480
0.40124369 -0.095839821 0.094004922 12498606
0.39494592 -0.084907033 0.095160797 12302000
0.40000001 -0.089453377 0.09112557 7894125
0.38825002 -0.072865486 0.097711831 11248541
0.3916904 -0.076114453 0.093899637 12762549
0.38640168 -0.064946488 0.095114544 12170414
0.39000002 -0.068957113 0.090673424 12894648
0.38290444 -0.055079948 0.095044993 12696757
0.37867576 -0.043818884 0.098693371 10920859
0.38124308 -0.045353077 0.093898997 13025979
0.3782787 -0.033923119 0.097232804 8092533
0.38061017 -0.036188904 0.093536936 11183774
0.37542483 -0.024835026 0.094919495 2500900
0.3758226 -0.014886313 0.09491653 3158319
0.37837505 -0.0073572001 0.096642658 9079941
0.38062012 -0.0037443084 0.09370818 10921885
0.37900001 0.001453634 0.099354416 7829101
0.38155088 0.0050721318 0.095027119 11250082
0.38396218 0.015092452 0.094909631 11776168
0.38711882 0.024815334 0.094924502 12171181
0.39000002 0.028657485 0.090597346 10525073
0.3887105 0.031999856 0.097276822 13026490
0.3916021 0.036091588 0.094106257 11315613
0.39469823 0.045043372 0.094857059 11711143
0.39731911 0.05413973 0.095988192 11776937
0.40024999 0.057286769 0.092007019 13619396
0.39883336 0.061440844 0.099262618 12237228
0.40147722 0.065036938 0.094789892 12631476
0.40466937 0.074934989 0.09499763 12894132
0.40778288 0.084506348 0.095388919 12235946
0.41027272 0.088757031 0.091747902 12960955
0.40899995 0.091651261 0.098521799 13420476
0.41164193 0.095398098 0.094639495 12433838
0.41509497 0.10498646 0.095003873 11841959
0.41711909 0.11231697 0.095817648 2828062
0.42000002 0.11812335 0.099287018 2367763
0.40577507 -0.13261768 0.10690819 14406346
0.41233334 -0.13443317 0.10252645 13814981
0.40479529 -0.12484539 0.10533316 13617600
0.41060001 -0.1284788 0.1005249 11249828
0.39795241 -0.11286369 0.10880169 12893111
0.40317586 -0.11554321 0.10438287 13682623
0.39606485 -0.10424872 0.10672008 13814723
0.40102035 -0.10603398 0.10236511 12104104
0.38850001 -0.092187516 0.10829243 11643301
0.39409158 -0.095372841 0.10439426 13025723
0.40000001 -0.098661393 0.1001775 8748412
0.38631168 -0.084362492 0.10654021 12631221
0.39167395 -0.085926719 0.10197616 12566200
0.37871429 -0.071310483 0.10865128 11184287
0.38362312 -0.075199611 0.10471309 12959930
0.39000002 -0.079304412 0.10041206 14406608
0.37800017 -0.064477563 0.1067918 11708318
0.38168746 -0.065777965 0.10214853 14538961
0.3767325 -0.054639734 0.10521262 12828341
0.38030005 -0.05792423 0.10103031 15262166
0.37612131 -0.045047689 0.10517903 13091513
0.37572372 -0.035008274 0.10516757 9342083
0.36899999 -0.022772118 0.10969048 2172962
0.37165427 -0.025184974 0.10489863 2369828
0.36900005 -0.018884858 0.10969047 2369571
0.37185895 -0.015104746 0.10491738 2961451
0.37633309 -0.0050633173 0.10500369 9869457
0.37706947 0.0047098645 0.10544934 12039596
0.38023084 0.0079979878 0.10111463 10526099
0.3776449 0.0147231 0.10711461 12696755
0.38122377 0.015790766 0.10241178 11645352
0.37840921 0.022310209 0.10846004 11381154
0.38283855 0.025582351 0.10430086 12434353
0.38518247 0.034915071 0.10541106 12763574
0.39000002 0.038776536 0.10102072 13882826
0.38780394 0.04359933 0.10787048 13487809
0.39176401 0.045719191 0.10338695 12237231
0.3941139 0.055042215 0.10500704 12763315
0.39715371 0.064080417 0.10587483 12829110
0.40010709 0.067569397 0.10207723 11776422
0.39862502 0.070701748 0.10893093 13684418
0.40154567 0.075217903 0.10482161 12763060
0.40515509 0.085124344 0.1049594 12368304
0.40779573 0.094201878 0.10573783 11973288
0.41057143 0.098399892 0.10273131 13750211
0.40900001 0.1006675 0.10913384 10723483
0.41279399 0.10505595 0.10498604 11644581
0.41751724 0.1127776 0.10247358 2762525
0.42147064 0.1174923 0.10452203 2565656
0.40219763 -0.13364647 0.11496509 12499376
0.39857581 -0.12136915 0.1152302 12763061
0.40053421 -0.12634103 0.11469822 11973287
0.39612612 -0.11483111 0.11486903 12367534
0.40000001 -0.11973055 0.11047798 8617078
0.38900003 -0.10004616 0.11563575 12630192
0.39207202 -0.10511 0.11472568 12104105
0.38754299 -0.094486281 0.11495166 11906983
0.39042857 -0.098977856 0.11096703 11381410
0.38379431 -0.084876463 0.11498764 11972262
0.37873527 -0.072007589 0.11357604 12301741
0.38095996 -0.076565273 0.11544627 11578017
0.37745434 -0.065270983 0.11485647 11512224
0.37503251 -0.055257689 0.11491105 11512482
0.37423518 -0.044997573 0.11475319 11578530
0.37388626 -0.034876335 0.114921 7237222
0.36812732 -0.02412156 0.11528814 2041376
0.37047821 -0.028802864 0.11382373 2239011
0.36822826 -0.016745446 0.11552052 2238497
0.37119231 -0.011992464 0.11411727 4079160
0.3741602 -0.0051828208 0.1148956 8422009
0.37416816 0.0048284405 0.11492262 10131857
0.37515381 0.015115558 0.1146666 10921627
0.37745577 0.024910938 0.11468276 11645094
0.38000003 0.029034663 0.11029161 8487549
0.37856004 0.032222472 0.11620068 11908521
0.38096148 0.036428411 0.11400946 11118751
0.38386557 0.045037933 0.11493638 12105131
0.38690746 0.054540243 0.11585981 12105388
0.39121881 0.056854345 0.11137071 14671826
0.38845715 0.062640496 0.11770725 11645094
0.39284992 0.065822765 0.11399059 13355455
0.39586094 0.074567683 0.1158511 13092542
0.40013638 0.077665612 0.11175008 11513251
0.39764711 0.082980052 0.1180117 14672085
0.40183151 0.085789561 0.1140311 12631476
0.40425828 0.094956532 0.11525918 12763575
0.40751794 0.10301203 0.11592083 12368048
0.41124135 0.10626875 0.11208747 9209985
0.41600001 0.11115519 0.11002778 2696476
0.42642859 0.11765154 0.1120717 2696731
0.403579 -0.13442923 0.12223148 10526099
0.39841673 -0.12139473 0.12360286 10986139
0.40091431 -0.12655063 0.12218001 10460308
0.39619723 -0.11497127 0.12408631 10393489
0.39257535 -0.10517583 0.12374093 9998469
0.38836959 -0.094215028 0.12236659 10262410
0.39192861 -0.095992908 0.12686624 8419953
0.38635069 -0.084520176 0.12424075 10130827
0.39054549 -0.087728284 0.128729 10197136
0.38312778 -0.074802838 0.12472024 10527125
0.37819517 -0.063755482 0.12207724 9803404
0.38157898 -0.065652244 0.12680137 10592664
0.37679225 -0.054739561 0.12350266 10395284
0.38077277 -0.055874135 0.12870897 8223601
0.3766444 -0.044972531 0.12381503 10262928
0.38000008 -0.044629972 0.12910977 8025709
0.3674286 -0.03035368 0.12764749 2304548
0.37528571 -0.035288084 0.12437246 6710878
0.38000003 -0.039463528 0.12986253 5920333
0.36683017 -0.024984708 0.12538624 1712154
0.3671234 -0.015382331 0.12517549 2632996
0.37062502 -0.010833571 0.12188621 5723721
0.36750001 -0.0093445256 0.12860069 7698542
0.37541661 -0.0045625218 0.12401845 7171941
0.37646955 0.0051045078 0.12487067 8553337
0.3768065 0.014806053 0.12417676 9275774
0.38040006 0.016955607 0.1291087 8223602
0.37798727 0.024430344 0.12309717 9209213
0.38088462 0.026597319 0.12780012 9407360
0.37887499 0.031277284 0.12116306 9670276
0.38123158 0.035311848 0.12536138 9473924
0.38334191 0.045143228 0.12492234 10394512
0.38595459 0.055113863 0.12488611 11052186
0.38844091 0.064535938 0.12458394 12105644
0.3901875 0.068463199 0.12723646 10855320
0.39172977 0.074909009 0.12474027 12236975
0.39485487 0.084789351 0.12470768 11842473
0.39737976 0.093548201 0.12582426 11974058
0.40062159 0.097237788 0.12271208 14211276
0.40401119 0.10397217 0.12486741 10789786
0.41300002 -0.12104356 0.13759498 11645092
0.40702945 -0.11298057 0.13622083 10592404
0.41115382 -0.11788853 0.13850993 11777191
0.39812499 -0.10320884 0.13081449 7630692
0.40377414 -0.10488484 0.136059 10526869
0.39680859 -0.093420513 0.13414738 10263185
0.40117854 -0.097344942 0.1371673 9342341
0.38900003 -0.080467053 0.13020624 10921884
0.39339319 -0.085091598 0.13532583 9538691
0.38785106 -0.073520012 0.13339685 8947322
0.39123538 -0.077779941 0.13655981 8684663
0.38500005 -0.065875135 0.13353363 9143932
0.3821961 -0.055070657 0.13231568 8749944
0.38163039 -0.045597129 0.13193598 7828585
0.36249998 -0.030779971 0.1351338 2172961
0.37800002 -0.035273749 0.13006394 4539965
0.38033333 -0.03816298 0.13131237 7039841
0.3624014 -0.024880581 0.13482749 1778460
0.36283574 -0.015546671 0.13445267 3224619
0.37800002 -0.00076246343 0.1305064 4999491
0.37866667 0.0018967586 0.1304412 6579292
0.38125536 0.0064870296 0.13319948 7697772
0.38448688 0.015505188 0.13456881 8552565
0.38740435 0.023222024 0.13498603 8619128
0.39010721 0.026611054 0.13788304 8553335
0.38631046 0.03404624 0.13327195 8488059
0.39153856 0.034047995 0.13800189 7631977
0.38512504 0.046561617 0.13144511 9274744
0.39500001 0.043563198 0.13683808 9539718
0.38837841 0.05674446 0.13290057 9671305
0.39183336 0.052866157 0.13670999 9474697
0.38899997 0.061560255 0.13251795 9670533
0.39100012 0.066592745 0.13441397 9474698
0.3933292 0.07545875 0.13417462 9802631
0.39543566 0.084855497 0.13477489 9933964
0.39700001 0.093709193 0.13409145 11447201
0.40016672 0.09885776 0.13561051 10855320
0.40179425 0.10351747 0.13488054 9999501
0.40883335 -0.11152788 0.14131153 8025965
0.41092303 -0.11627042 0.14153919 8947581
0.40671426 -0.1054 0.14187503 8223859
0.39812499 -0.09167669 0.14094935 8421752
0.4016 -0.096522279 0.14175627 7829613
0.39537504 -0.085493192 0.14067031 10131853
0.36176002 -0.031048229 0.144333 1186323
0.36162403 -0.024737902 0.14451563 1251859
0.3615149 -0.015854413 0.14451538 2368541
0.38887501 0.017651411 0.14074726 10000781
0.38900003 0.021071091 0.14022346 10066573
0.39100003 0.026827717 0.14063911 10132623
0.39220005 0.031528518 0.14064236 10132368
0.40360004 0.10330782 0.14114001 5196612
0.36704347 -0.032006692 0.15591283 2171676
0.37053844 -0.031240614 0.15745634 1251345
0.36696428 -0.023738028 0.15441959 593928
0.37096879 -0.02691084 0.1577691 659721
0.36450478 -0.015845489 0.1552891 1577740
0.36410922 -0.032396208 0.16381094 1777945
0.36478457 -0.025064155 0.16505308 988942
0.37066671 -0.027213663 0.16051467 659721
0.36464068 -0.016281717 0.16478822 1316366
0.34900001 -0.030116517 0.1797276 1910042
0.35128576 -0.031958155 0.1798469 1975835
0.36313963 -0.032741904 0.17570935 1054992
0.34900001 -0.02807398 0.1797276 1778456
0.35646668 -0.024965107 0.17972197 922894
0.36109152 -0.024857564 0.17486116 1383444
0.35825002 -0.01875139 0.17987585 659722
0.36153671 -0.016745185 0.17598353 1251860
0.34539846 -0.033488926 0.18515834 1777945
0.35395834 -0.032675598 0.18033381 1317906
0.36066672 -0.033587787 0.18095064 593671
0.34536579 -0.024958562 0.18492183 1646359
0.3538298 -0.024683891 0.18029986 1383443
0.34510022 -0.01690603 0.18533763 1580312
0.35498357 -0.01628116 0.18109378 1186066
0.36089477 -0.01237588 0.18153813 2041122
0.36114287 -0.0088203577 0.18465157 7895923
0.34066671 -0.032639552 0.19162442 1646361
0.34158435 -0.025172744 0.1917153 1646360
0.34148276 -0.017860977 0.19159497 1515031
