# .PCD v0.7 - Point Cloud Data file format
VERSION 0.7
FIELDS x y z rgb
SIZE 4 4 4 4
TYPE F F F U
COUNT 1 1 1 1
WIDTH 895
HEIGHT 1
VIEWPOINT 0 0 0 1 0 0 0
POINTS 895
DATA ascii
0.45800009 -0.052981984 -0.12187394 16514294
0.45540386 -0.044405524 -0.12309746 16579830
0.45430183 -0.035018653 -0.12386356 16580085
0.4543862 -0.024632903 -0.12348887 16250093
0.45765221 -0.015613832 -0.12334616 15263198
0.4605 -0.011528808 -0.12552316 14802647
0.45900002 -0.0095220665 -0.12036778 15065821
0.46374613 -0.0052898261 -0.12442281 14210768
0.46746153 0.0020067664 -0.12182823 13684423
0.47000003 0.0056536342 -0.12105186 11382437
0.46900001 -0.07121402 -0.11201078 16513523
0.47085714 -0.073387221 -0.11119386 16382195
0.45900002 -0.060383022 -0.1110552 16645880
0.46332693 -0.064356804 -0.11417607 16514037
0.45677784 -0.054394759 -0.11488292 16645880
0.46016669 -0.058741201 -0.11762182 16711673
0.44872731 -0.042638239 -0.11127586 16645880
0.45304921 -0.045723278 -0.11557747 16711673
0.44789755 -0.034861419 -0.11270021 16711415
0.45148489 -0.03473223 -0.11750299 16645879
0.44836125 -0.025043665 -0.11262278 16250349
0.45171049 -0.024953647 -0.11770769 16447728
0.44900006 -0.018774668 -0.11098821 15527396
0.45340583 -0.014813359 -0.1151849 15526884
0.45713043 -0.0062207677 -0.1136931 14737626
0.46158335 -0.0033130453 -0.11744405 14408660
0.46572733 0.0028840492 -0.11507318 13487814
0.47127274 0.0078276815 -0.11540911 12829885
0.47582608 0.012751553 -0.11334801 12763834
0.48085716 0.018004347 -0.11243471 12829369
0.47738463 -0.080999456 -0.10318121 16514294
0.4807778 -0.084259562 -0.10244047 16645367
0.46799996 -0.071501039 -0.10454541 16448501
0.47279552 -0.076048248 -0.10504237 16448244
0.45816001 -0.061975002 -0.10423504 16645880
0.46327275 -0.066728659 -0.10588659 16580087
0.44854549 -0.051307943 -0.10244873 16645880
0.45380011 -0.055635728 -0.10551406 16645880
0.44526082 -0.044458445 -0.1044601 16645880
0.45040002 -0.048567414 -0.10883413 16711673
0.4430823 -0.035052653 -0.1053591 16645623
0.44363427 -0.025182774 -0.1050234 16118507
0.44678384 -0.015339503 -0.10453428 15395553
0.45055553 -0.011573192 -0.10854369 15263969
0.44900003 -0.0090518352 -0.10171585 14211793
0.45346576 -0.0049049025 -0.10511924 14013902
0.45812503 0.0014460998 -0.10405309 13224644
0.46426821 0.0058617266 -0.10432713 12698555
0.47050002 0.0089639956 -0.10851455 12829886
0.46900001 0.010033354 -0.10212936 12501175
0.47465223 0.014146791 -0.1049059 12566711
0.48000002 0.019258188 -0.10452472 12566455
0.48372152 0.023873968 -0.10465857 12303539
0.49028572 0.029016873 -0.1025002 12237746
0.49195454 0.032198634 -0.10251953 11908779
0.5 -0.10050181 -0.090151764 16710133
0.48825002 -0.090425201 -0.092034586 16709879
0.4938572 -0.094927043 -0.092343561 16512498
0.47688892 -0.081840597 -0.095415145 16381425
0.48326671 -0.086586528 -0.09387973 16512754
0.46633327 -0.072693773 -0.094424501 16316146
0.4723334 -0.077731974 -0.095485166 16381939
0.4554902 -0.063589521 -0.094754487 16514038
0.46128574 -0.068347104 -0.095283203 16382451
0.44698143 -0.054041073 -0.09419895 16580087
0.45155558 -0.058170967 -0.096808627 16580087
0.43900007 -0.041685469 -0.091896817 16645880
0.4417946 -0.045583643 -0.095484845 16645880
0.43827116 -0.035213564 -0.094019189 16580085
0.44 -0.035239622 -0.099265002 16645621
0.43813843 -0.025229529 -0.093786687 15987178
0.44020829 -0.024459854 -0.098564945 15986921
0.43891677 -0.018438486 -0.091896772 15000798
0.44305131 -0.014314134 -0.095377363 14540246
0.44820595 -0.0077841906 -0.094610043 13685193
0.45264602 -0.0031592383 -0.095366538 13159105
0.45771432 0.001260413 -0.095193826 12764090
0.46447271 0.0061321789 -0.095072314 12238003
0.46900001 0.010033354 -0.090601012 12435895
0.47436771 0.014049698 -0.095195688 11974833
0.48036367 0.019068472 -0.093970157 12106419
0.48469394 0.023137877 -0.094913632 11974575
0.49145457 0.028086364 -0.094307214 12566711
0.49487752 0.033004452 -0.095271304 12171952
0.50211108 0.036867205 -0.091054454 12237745
0.50683337 0.041497577 -0.091184855 12171951
0.51300001 0.045801975 -0.090093829 12895674
0.51700002 -0.11239102 -0.081113867 16315890
0.50468969 -0.10303836 -0.084147759 16447221
0.51100004 -0.1080972 -0.080172509 16315890
0.48842862 -0.090171978 -0.08577656 15920618
0.49454761 -0.094343029 -0.084944822 16052205
0.50111115 -0.099161357 -0.083311886 15789033
0.47683334 -0.081893422 -0.084855475 15591652
0.48362863 -0.086413339 -0.085093088 16051947
0.46521741 -0.072824597 -0.085416056 15920618
0.47226667 -0.078089394 -0.083894841 15657445
0.44900003 -0.060819346 -0.082007408 16447217
0.45506123 -0.064564407 -0.085178271 16315888
0.46022224 -0.068803787 -0.085136294 15920874
0.43888891 -0.051002055 -0.082101628 16580087
0.44437683 -0.055532962 -0.085264556 16514038
0.43688565 -0.044425685 -0.08441963 16645881
0.44020003 -0.047879882 -0.088644505 16580088
0.43464527 -0.03488351 -0.084938467 16514035
0.4346354 -0.024912788 -0.084794112 15921385
0.43726778 -0.016505631 -0.084383123 14540247
0.44152936 -0.011831838 -0.085721925 13816778
0.44644645 -0.0064734449 -0.084696487 13290434
0.45169568 -0.0020123096 -0.085950002 13092798
0.45702776 0.0018764264 -0.084960066 12698297
0.46379071 0.0068485378 -0.085037895 12369589
0.46877781 0.01039458 -0.084766537 12172467
0.47390324 0.01358385 -0.086412892 11909294
0.48259258 0.018276235 -0.084786668 11843245
0.48630777 0.02183382 -0.086014383 11711660
0.4943637 0.02673425 -0.084525719 11843502
0.4984546 0.031243794 -0.08785665 11712172
0.50377965 0.035253096 -0.084853515 12172210
0.5108 0.039387811 -0.081814028 11974574
0.50800002 0.040896505 -0.088025898 12171953
0.51364863 0.043687232 -0.084999554 12369587
0.52210003 0.047839038 -0.082157262 11909038
0.5254091 0.052393939 -0.082982592 12369588
0.5323 -0.122575 -0.073106632 16315889
0.51760006 -0.11143124 -0.075389162 15657705
0.52468961 -0.11593225 -0.074607953 15986926
0.53000003 -0.11893932 -0.07819052 16250097
0.50590008 -0.10299387 -0.075106703 15526118
0.51282614 -0.10804246 -0.074504979 15394789
0.49554762 -0.093649089 -0.07525818 15196639
0.50163162 -0.098729871 -0.075057074 15394532
0.47763643 -0.080963045 -0.07666415 14868188
0.48412248 -0.085269511 -0.075002804 15065053
0.49150005 -0.08920487 -0.071549647 15064795
0.46617395 -0.071689956 -0.075418212 15591654
0.47334889 -0.076673694 -0.074776463 15065567
0.44773084 -0.061616786 -0.074723631 16052204
0.45468971 -0.065743417 -0.074932463 15789032
0.46033335 -0.068820402 -0.074918926 15328482
0.43768573 -0.052526921 -0.074586399 16448245
0.44268423 -0.057213902 -0.075291723 16381683
0.43262634 -0.044988848 -0.074916214 16514037
0.42873678 -0.034145456 -0.070964158 16514035
0.43074659 -0.034869965 -0.075879134 16579571
0.42883328 -0.027718818 -0.07079497 15987177
0.43100005 -0.024405403 -0.075199507 15657957
0.43532178 -0.015096379 -0.07469786 14277075
0.4401429 -0.010455552 -0.077740669 13290434
0.43900001 -0.0091071613 -0.07144545 13816524
0.44479454 -0.005148611 -0.075051256 13422278
0.45050001 -0.00090870314 -0.07753671 12895677
0.44900003 0.00040821885 -0.071233459 13159107
0.4556579 0.0028519037 -0.075671785 12566712
0.46224999 0.0080672 -0.075772472 12303796
0.46800002 0.011107558 -0.078356281 12369332
0.47600004 0.013905325 -0.079132296 12303539
0.48456666 0.017742764 -0.076021232 11777452
0.48684216 0.021333313 -0.075244188 11711659
0.49464998 0.025819892 -0.077197626 11711660
0.50299996 0.028967354 -0.073745683 11777196
0.50597435 0.032999199 -0.075549722 11842989
0.51196432 0.037623461 -0.074160054 11711660
0.5173704 0.042246427 -0.07542824 12171955
0.52388573 0.047059681 -0.074867062 12303541
0.53000003 0.04980126 -0.071366459 12172210
0.52755558 0.051631663 -0.078102231 12566712
0.53351432 0.0545251 -0.07509692 12303795
0.54211116 0.05827238 -0.073061377 12172209
0.54713339 0.061830439 -0.073971696 12237745
0.55179173 0.066221878 -0.073923536 12171952
0.55300003 0.070895724 -0.072845258 12171950
0.56274998 -0.14243487 -0.062049713 16052461
0.54487503 -0.13136618 -0.064429514 15723239
0.55338466 -0.13595022 -0.062702686 16052205
0.53394878 -0.12355255 -0.065404959 15657703
0.542 -0.12906468 -0.063643984 15723241
0.51842862 -0.11096789 -0.065559879 15065311
0.52487504 -0.11540151 -0.06450066 15065309
0.50619042 -0.10169162 -0.066548228 14736601
0.51355267 -0.10649142 -0.064434022 14736344
0.4976956 -0.092340253 -0.066886537 14736344
0.50290245 -0.096323058 -0.063849762 14538964
0.48640004 -0.082341559 -0.065380491 14867419
0.49372229 -0.087172732 -0.064674117 14538709
0.46581253 -0.071209639 -0.065926835 15327968
0.47459096 -0.075907335 -0.066880055 15196896
0.48174998 -0.079070829 -0.064298302 14933724
0.44574082 -0.061540913 -0.064988486 16249582
0.45453846 -0.066286705 -0.06615743 15657189
0.4356111 -0.053443417 -0.064685129 16381938
0.44157895 -0.058020297 -0.066182524 16249839
0.42748901 -0.043274879 -0.063938394 16644854
0.43031439 -0.046949327 -0.066161416 16514037
0.42580876 -0.035200343 -0.064774223 16447474
0.4266206 -0.025468834 -0.064816236 15723750
0.42999998 -0.021335652 -0.069141872 15329762
0.42829996 -0.018459482 -0.062787183 14868698
0.43232095 -0.014179653 -0.065605789 14473940
0.43709528 -0.0067988662 -0.063660875 13750731
0.44226322 -0.0030952946 -0.06631396 13487559
0.44574082 0.0013841697 -0.064530693 13027265
0.45415002 0.0062125688 -0.0649793 12435127
0.50660002 0.02910189 -0.069044985 11908781
0.509 0.031145906 -0.069134511 11777195
0.51547062 0.035875689 -0.066843852 11843245
0.52200001 0.036772802 -0.061703376 11908781
0.51824999 0.040508293 -0.068267003 12040368
0.5247255 0.044158977 -0.065028161 12106160
0.53100008 0.049274269 -0.064560384 11645609
0.53621435 0.0528109 -0.06502784 12106160
0.54321742 0.0574053 -0.064547256 12040367
0.54768747 0.061080456 -0.064772598 12106160
0.55195004 0.066080496 -0.065275826 12632504
0.55531585 0.072950423 -0.064743444 12303539
0.56049997 0.077073932 -0.061301686 12435125
0.56200004 0.080436826 -0.061202031 12106158
0.57418758 -0.15364537 -0.052611768 16447219
0.56505126 -0.14516585 -0.055241603 15855339
0.54775006 -0.13147207 -0.053667009 15525861
0.55403572 -0.13642965 -0.054637868 15131360
0.53541386 -0.12279506 -0.055382062 14736601
0.5431053 -0.12803966 -0.054896142 14933980
0.52564293 -0.11357268 -0.055423576 14473685
0.53107697 -0.11813005 -0.053099904 14539221
0.51561534 -0.10358486 -0.056036215 14276049
0.5222106 -0.10754121 -0.053038027 14144464
0.50544739 -0.093943603 -0.056035746 14341840
0.51152635 -0.097778179 -0.053151269 14012876
0.48850003 -0.081036463 -0.058916219 15131358
0.49602491 -0.084729679 -0.055895291 14670806
0.50133336 -0.088173889 -0.053067446 14539477
0.46466669 -0.070739023 -0.057856608 15262688
0.47620004 -0.074765347 -0.057533287 15131102
0.48490006 -0.078171059 -0.056211941 15197151
0.43850002 -0.060680531 -0.051090863 16314859
0.44555557 -0.062556714 -0.055596273 15919588
0.4547143 -0.066465534 -0.057347048 16051432
0.42863634 -0.051310565 -0.053021062 16250351
0.43326789 -0.054769661 -0.055442918 16184300
0.44062501 -0.059298649 -0.057527293 16446446
0.42488047 -0.044803258 -0.054946981 16513779
0.42221034 -0.034951799 -0.054882001 16381936
0.42331025 -0.025129352 -0.055027291 15526883
0.42622662 -0.016192224 -0.054475531 14606041
0.43074998 -0.012211213 -0.05780245 14211282
0.42866668 -0.0095615452 -0.050529938 14211282
0.43392864 -0.0055052261 -0.055014372 13750731
0.44000003 -0.00088752358 -0.059762646 13093312
0.43900001 0.0001422004 -0.053974435 12895678
0.44467267 0.0043973275 -0.054167483 12632504
0.45675004 0.011377813 -0.054008596 12238003
0.47200006 0.01749317 -0.05187216 11514281
0.47300002 0.020638291 -0.052064527 11250851
0.52422225 0.038078174 -0.057974532 11777195
0.5267778 0.042237945 -0.058119528 11579816
0.53460002 0.046232175 -0.054770194 11974574
0.54000002 0.049476758 -0.05059037 11908781
0.53800005 0.05125346 -0.057398744 11974831
0.54430449 0.055474918 -0.054812033 12106160
0.55050004 0.05945991 -0.050929122 11777195
0.54840004 0.060773958 -0.057539362 12172210
0.55362493 0.065125458 -0.054996639 11909038
0.56 0.069662802 -0.052464087 12435125
0.55866671 0.071241014 -0.058442209 12566968
0.56410885 0.075205639 -0.05505323 12632504
0.57066673 0.078560568 -0.051236317 13158848
0.5670833 0.08227051 -0.057659134 12303538
0.57481253 0.083624326 -0.052080836 12500917
0.58100003 0.087917849 -0.050351098 12698297
0.58249998 0.090189114 -0.051162325 12829883
0.59200001 -0.1702718 -0.040217325 16776445
0.58425009 -0.16266075 -0.043532882 16118254
0.59000003 -0.16831537 -0.040772058 16052977
0.57599998 -0.15429696 -0.045322441 15591655
0.58116674 -0.15876649 -0.043334682 15788777
0.56405568 -0.14416179 -0.045175835 15197410
0.57066673 -0.14944054 -0.043441121 14934237
0.54900002 -0.13091449 -0.048863105 14802651
0.55404359 -0.13471952 -0.044769406 14933980
0.56 -0.13878143 -0.040665355 14013135
0.5381667 -0.12119225 -0.047687817 15065566
0.54452777 -0.12539285 -0.045276009 14539479
0.55049998 -0.12901661 -0.042229313 14342098
0.52842861 -0.11169471 -0.048091315 14670550
0.53383678 -0.11544737 -0.044547401 14407891
0.54000002 -0.11991931 -0.040477172 14078926
0.51818186 -0.1011795 -0.047442421 14144207
0.52421427 -0.10537545 -0.044784613 14210256
0.53033334 -0.10866839 -0.041407682 13420996
0.50763631 -0.091341063 -0.046906058 14604758
0.51365906 -0.095549062 -0.044538449 14341842
0.52000004 -0.099043906 -0.040804014 14078668
0.49900001 -0.083946459 -0.049085584 14867929
0.50430304 -0.086630806 -0.044765871 14999516
0.43817654 -0.062795296 -0.044761665 15789029
0.44033337 -0.065142505 -0.045035709 15591394
0.42611766 -0.052442614 -0.044793963 16184045
0.43227914 -0.057359945 -0.044945501 15986408
0.41813794 -0.04320633 -0.041942965 16579057
0.42142424 -0.045489043 -0.046286583 16448242
0.41750818 -0.034747276 -0.043267746 16447214
0.4204244 -0.035117567 -0.048067678 16513778
0.41788465 -0.02541046 -0.042688649 15395040
0.42057788 -0.024039771 -0.047258239 15329247
0.41900003 -0.019482009 -0.040235266 14737880
0.42296934 -0.015201245 -0.045078717 14605782
0.42718184 -0.0077222344 -0.044091932 13816266
0.43159997 -0.0033799952 -0.045579605 13487814
0.43721879 0.0016482151 -0.044259351 12698299
0.44400001 0.0061576022 -0.045642633 12106162
0.44900003 0.010866834 -0.042275183 11843247
0.45566669 0.013072359 -0.044470005 11777196
0.46633336 0.016348166 -0.047059327 11645867
0.47000003 0.019132044 -0.049258687 11448231
0.53800005 0.03921777 -0.047884066 11908781
0.5443334 0.038402803 -0.041931659 11908781
0.53880006 0.043186523 -0.048459522 12040367
0.54316014 0.045495801 -0.044521194 11908781
0.54654843 0.053008828 -0.046163496 11908781
0.55190319 0.057238441 -0.043617543 11908781
0.5557037 0.063060775 -0.045937996 12040367
0.56164002 0.067291796 -0.044461254 12303539
0.56715792 0.072442196 -0.046074539 12566711
0.57352942 0.076919176 -0.044013001 12763833
0.5773685 0.082352929 -0.045764383 12632504
0.58244002 0.086964399 -0.044583831 12829883
0.58592004 0.092587426 -0.045286857 13027004
0.59100002 0.096348353 -0.041532151 12960697
0.59460717 -0.17331371 -0.034127202 15526118
0.58626926 -0.16334803 -0.035339013 15197409
0.59123081 -0.1680283 -0.03430802 15328995
0.57619238 -0.15291388 -0.035094377 14670296
0.58227777 -0.15838936 -0.03432858 14802651
0.56703335 -0.14318226 -0.03568602 14736602
0.57160008 -0.14754526 -0.034010835 14868189
0.55650008 -0.13270506 -0.035846207 14342099
0.56143481 -0.13685329 -0.034023747 14407635
0.54575008 -0.12263664 -0.035898302 14078926
0.55235004 -0.12757841 -0.033900756 14144719
0.5370357 -0.11311223 -0.03661285 14078927
0.54233336 -0.11653811 -0.033124834 13815755
0.52657902 -0.10227817 -0.036741909 14144719
0.53331429 -0.10680944 -0.034509014 14144720
0.51586211 -0.092825323 -0.034745924 14604757
0.52295005 -0.097893618 -0.033991553 14473428
0.5086 -0.084609136 -0.03693239 14999515
0.51156682 -0.087698482 -0.034747414 14999771
0.43525928 -0.062285203 -0.035812523 15723235
0.41900003 -0.050870381 -0.030426402 15328734
0.42436212 -0.053433783 -0.03511405 16118249
0.43124998 -0.05858494 -0.035694435 15722979
0.41604933 -0.04466401 -0.034497567 16447470
0.4204286 -0.048794437 -0.037842143 16315886
0.4137426 -0.035070498 -0.035415113 16249834
0.41476473 -0.025094939 -0.035038341 15460834
0.41738331 -0.016602576 -0.033748511 14540246
0.42080012 -0.012717758 -0.036445003 14408659
0.42503706 -0.0061149499 -0.034798592 13553093
0.43033329 -0.0013377892 -0.036220774 13092800
0.43445453 0.002831537 -0.034214485 12566712
0.44239131 0.0075764391 -0.036497824 12172212
0.44750002 0.011320584 -0.038607989 11908784
0.54503131 0.037696924 -0.034833275 11579817
0.54676312 0.044104028 -0.036232229 12040367
0.55133337 0.048021033 -0.033408903 11974575
0.54900002 0.050301369 -0.03986657 11908781
0.55460876 0.054181337 -0.035270583 11842731
0.56055558 0.058505177 -0.03210194 12369589
0.55866671 0.060778212 -0.038824476 12171953
0.56508172 0.064905517 -0.035035141 12303282
0.57000005 0.069572411 -0.032718055 12763320
0.56900001 0.070782386 -0.039320849 12369075
0.57456249 0.075602293 -0.034913301 12566198
0.57830006 0.081822596 -0.036038462 12500405
0.58277768 0.086446621 -0.034664273 13027005
0.58691663 0.091790825 -0.036093395 13355969
0.59120005 0.095966756 -0.03601376 13289920
0.59299999 -0.17160273 -0.026752815 14341844
0.587125 -0.16251524 -0.024937086 14736345
0.59100002 -0.16754375 -0.024443086 14473430
0.57800007 -0.15166187 -0.027387135 14868444
0.58317649 -0.15561195 -0.024156582 14473172
0.56850004 -0.14138715 -0.027141096 14473171
0.57424998 -0.14594144 -0.024631783 14408147
0.55850005 -0.13056494 -0.02813499 14078923
0.56417078 -0.13541177 -0.024823252 14144461
0.57000005 -0.1399253 -0.02004144 14078667
0.54850006 -0.12052288 -0.028915269 13486789
0.55437213 -0.12477685 -0.025583444 13618116
0.56050003 -0.12884599 -0.021893926 13880776
0.54538101 -0.11415827 -0.025494624 13684169
0.55090004 -0.11834262 -0.022722214 13683909
0.52900004 -0.10013893 -0.027887853 14473172
0.5347442 -0.10426319 -0.02525983 14341841
0.54114288 -0.10859076 -0.022642683 13947084
0.51820004 -0.091787338 -0.028652644 14867929
0.52450007 -0.094965778 -0.024842149 14933721
0.53033334 -0.099149801 -0.022370523 14867929
0.51750004 -0.089179665 -0.028188154 15262687
0.42900002 -0.060118839 -0.027135381 14605011
0.42999998 -0.060594518 -0.028540818 14933976
0.41703564 -0.051714785 -0.023907414 16118248
0.42384213 -0.056089472 -0.026471412 15723236
0.40888885 -0.041240625 -0.021396641 16381420
0.41252121 -0.045046624 -0.02530659 16315883
0.40840945 -0.034634348 -0.022662429 16184555
0.41063032 -0.03537311 -0.028023075 16184554
0.40866676 -0.026596235 -0.02161739 15395040
0.4114711 -0.024255415 -0.026263079 15197661
0.41476774 -0.014949418 -0.024741577 14474452
0.42000002 -0.010679457 -0.02951579 14606294
0.41799998 -0.0086709261 -0.023017151 13619143
0.42260808 -0.0046255006 -0.025502997 13355971
0.42738464 0.00060105912 -0.024190668 12698555
0.43193024 0.0043089371 -0.025201339 12369334
0.54614294 0.038899016 -0.02833325 12105904
0.54820001 0.04201531 -0.028771048 12171953
0.5534423 0.04567929 -0.024784502 11974574
0.55744445 0.052164301 -0.026410526 12040624
0.56221211 0.05682198 -0.024470933 12106160
0.56788236 0.063803114 -0.025438491 12303539
0.57104999 0.068298072 -0.023818955 12369076
0.57553339 0.074594945 -0.025172994 12303539
0.58075005 0.078702353 -0.021438342 12698297
0.57850003 0.080428705 -0.028804254 12895677
0.583875 0.085082687 -0.024596661 12829883
0.58733332 0.091167271 -0.023395339 12435382
0.59000003 0.09273155 -0.020744648 11053470
0.58819997 -0.16119222 -0.017651144 14670296
0.59104168 -0.16469423 -0.015881328 14275283
0.58541858 -0.15525462 -0.015002796 14670550
0.57610005 -0.14381027 -0.015487265 13881290
0.58136368 -0.14853059 -0.01363416 14473428
0.56709379 -0.13361456 -0.016242493 13618374
0.57178575 -0.13787951 -0.013216952 13749960
0.55746156 -0.12219201 -0.017388679 13552325
0.56194597 -0.12579283 -0.014172587 13881034
0.5480001 -0.11191483 -0.017342716 14078670
0.5534001 -0.11574288 -0.014401063 14012876
0.5365001 -0.1025667 -0.017729344 14341586
0.54423529 -0.1066611 -0.014146557 14736343
0.52556258 -0.094648309 -0.018248701 14867928
0.53133333 -0.099336766 -0.018681124 14538964
0.42400002 -0.060410745 -0.015900612 14144460
0.41528332 -0.05361956 -0.014718002 15723491
0.42162502 -0.057913214 -0.016988344 15262941
0.40761921 -0.043858003 -0.013790467 16249834
0.41106454 -0.047487155 -0.016659122 16249834
0.40519962 -0.034968995 -0.014728797 16052968
0.40595001 -0.025048332 -0.014757425 15329246
0.4080427 -0.017710319 -0.013618043 14737365
0.41209531 -0.013367053 -0.0158861 14408401
0.41633824 -0.0066811531 -0.014671266 13355971
0.42100012 -0.0021413679 -0.016282868 13290179
0.42520005 0.0017852804 -0.014955009 12435385
0.43199998 0.0065494278 -0.016601929 12171956
0.55633336 0.039251801 -0.017387668 11579819
0.55795336 0.044015203 -0.016060513 11909038
0.56 0.047993243 -0.013366333 12238003
0.56378841 0.054788671 -0.015098595 12238003
0.56850004 0.060849871 -0.016438743 12303796
0.57336843 0.065574624 -0.014363021 12303539
0.57725 0.072486393 -0.015959032 12303539
0.58192009 0.077078953 -0.013975932 12435383
0.58574355 0.084439799 -0.015603642 12566712
0.59000003 0.089969151 -0.016601048 11645609
0.59100002 0.091966875 -0.016935598 11316641
0.59072733 -0.16148382 -0.0078211986 12894143
0.58665121 -0.15395021 -0.0051989947 14736344
0.57754558 -0.14140983 -0.0073994324 14473684
0.58305407 -0.14590025 -0.0040072589 15131101
0.56850004 -0.13107321 -0.007844083 14144719
0.57415384 -0.13533275 -0.0041902345 14473684
0.58000004 -0.13966455 -2.6187854e-05 14538964
0.56593347 -0.12480144 -0.0048767654 14407891
0.57066673 -0.12940143 -0.0013601467 14671062
0.55550003 -0.11353231 -0.0049803588 14473427
0.56076473 -0.11835375 -0.0035755413 14473684
0.54744005 -0.10481059 -0.005916873 15196893
0.55152947 -0.10812621 -0.002909312 14933720
0.42438897 -0.063341714 -0.0032452149 15656927
0.4082 -0.050961271 -0.0029511021 15460576
0.41384208 -0.054691523 -0.0053050732 15657185
0.42072728 -0.059496894 -0.00583898 15393757
0.40417263 -0.044823233 -0.0047597899 16052712
0.39899999 -0.034431204 -1.8015437e-05 15789796
0.40137517 -0.034998056 -0.0052393344 16052712
0.40197495 -0.025153819 -0.0046370397 15329246
0.40563786 -0.015239425 -0.0046027154 14408401
0.4104 -0.010819282 -0.0088577466 14079693
0.40838459 -0.0086186212 -0.0016375232 13684934
0.41387779 -0.0049248771 -0.0051252274 13553350
0.42020002 -0.0010442305 -0.0086760577 13027262
0.41772729 0.00066948752 -0.0020657619 13552838
0.4227258 0.0040070848 -0.0055728499 12500919
0.55900002 0.04238436 -0.0078770136 11711659
0.56083888 0.046475068 -0.0048928275 12237746
0.56633341 0.053941756 -0.0049940399 12369331
0.57112503 0.058679722 -0.0026968888 12566711
0.57558697 0.064139687 -0.0052365344 12303539
0.58129996 0.068910748 -0.0024728444 12369589
0.57900006 0.070670925 -0.009514289 12830140
0.58407396 0.07539621 -0.0047306898 12303539
0.58500004 0.081788413 -0.0065280064 11843244
0.58711767 -0.15245616 0.0041768574 14275793
0.58418757 -0.14486693 0.0055292975 15130845
0.5765937 -0.13357511 0.0052477666 14933980
0.58066672 -0.13831511 0.0061660348 15131101
0.56766671 -0.12290949 0.0047921836 14604757
0.57177776 -0.12742458 0.0059991833 14605014
0.5579167 -0.11170843 0.0036788846 14539476
0.56171882 -0.11607614 0.0056058094 14539734
0.55654997 -0.10776418 0.0061704922 14671061
0.41700003 -0.060389604 0.0048621944 15658212
0.42242861 -0.061742961 0.0023784635 15854308
0.40690392 -0.053033479 0.0059524383 15460319
0.41387504 -0.056493551 0.0022207892 15657699
0.39775762 -0.042197619 0.0062987446 15789283
0.40180936 -0.046431344 0.0045812144 15855333
0.39672187 -0.035077501 0.0051508183 15724003
0.39751151 -0.025719643 0.0058740675 15132123
0.40004167 -0.022541421 0.0023230531 14803671
0.39869234 -0.017890934 0.0085252728 14737622
0.40186614 -0.014495975 0.00469056 14211279
0.40675822 -0.0066661835 0.0059673535 13619399
0.4119412 -0.0023881851 0.0040622083 13158849
0.41606665 0.0022834095 0.0062540499 12632762
0.42178577 0.0064170184 0.0040216642 12040369
0.56414288 0.047920439 0.0026225538 12435125
0.57000005 0.049556702 0.007980546 12105906
0.56792307 0.052343462 0.0033510057 12369332
0.57333338 0.056165788 0.006639251 11974575
0.57711112 0.062110379 0.0049296175 11974574
0.58263326 0.06729909 0.0056573739 12171953
0.58657902 0.074491397 0.0051782145 11974317
0.59000003 0.078919552 0.0061887633 11250079
0.58900005 0.080164649 0.0020416952 11184285
0.58377492 -0.14392434 0.014528277 14999515
0.57753855 -0.13283414 0.014586559 15262943
0.58125001 -0.13767017 0.015367266 15328479
0.5686 -0.1213458 0.013818638 14736856
0.57342428 -0.12612806 0.015147311 14933978
0.56409621 -0.11502043 0.015369693 14671063
0.55887502 -0.10710284 0.011422928 14802903
0.56064999 -0.10796746 0.015989821 14473684
0.41200003 -0.060630009 0.019271387 15525859
0.39900002 -0.050310332 0.019597374 15460831
0.40464938 -0.054058935 0.015157215 15526112
0.41000003 -0.059375871 0.017738109 14604756
0.39541569 -0.044032753 0.015328309 15855333
0.40099999 -0.048738208 0.012599591 15592161
0.39215666 -0.03475979 0.014662652 15723747
0.39334705 -0.024729835 0.014705664 15066330
0.39664754 -0.015279206 0.01528517 14408914
0.40018755 -0.011170759 0.011984623 13948364
0.39875004 -0.0089721298 0.018884545 13948364
0.40390491 -0.0049433131 0.014995602 13422020
0.41000003 -0.0008270106 0.01053948 12764347
0.40818179 0.00039313489 0.016571727 12435127
0.41329408 0.0034407 0.013209813 12171699
0.57340002 0.049852304 0.013400316 12106160
0.57614285 0.055812381 0.014300798 11974574
0.57833338 0.061563749 0.012385185 12237746
0.5824523 0.066065922 0.015231899 12105903
0.58475006 0.071715124 0.013832426 11645352
0.58378583 -0.14165118 0.023205234 14604756
0.57790911 -0.13227506 0.024940861 15197405
0.58150011 -0.13709541 0.025209468 15065564
0.57442015 -0.12533778 0.025148392 15065819
0.56657511 -0.11442167 0.024875885 14539734
0.57000011 -0.1192424 0.025994679 14671062
0.55388898 -0.10355812 0.028501077 14276820
0.5618462 -0.10817797 0.024151947 14342612
0.40900001 -0.060188524 0.023918442 14868183
0.41100001 -0.060482845 0.020186769 14736856
0.39725715 -0.052271061 0.0265767 15460318
0.40254757 -0.055318452 0.023757648 15131611
0.41000003 -0.059375871 0.020137653 14802649
0.38869232 -0.04159157 0.028259607 15789796
0.39274743 -0.04538982 0.024421981 15723490
0.38789177 -0.035025265 0.025355976 15658210
0.39014289 -0.037320882 0.020597387 15987175
0.3881864 -0.025763435 0.026099712 15066073
0.3906365 -0.023286697 0.021319605 14934487
0.38878259 -0.018393148 0.028037818 14803160
0.39313206 -0.014301345 0.0242588 14474451
0.39641994 -0.0073296088 0.026236659 13684679
0.40172333 -0.0032861661 0.023870757 13158848
0.40659258 0.0010864049 0.024646953 12040367
0.41163638 0.0042088367 0.022756113 11777198
0.57792866 0.054402675 0.021912256 11842988
0.58149999 0.057590768 0.025917944 12040367
0.58309674 0.063070819 0.024370557 12171696
0.57850003 -0.13168596 0.033323146 15262941
0.58095241 -0.13484329 0.035141543 14867930
0.57569396 -0.12515762 0.035016939 15131612
0.56690913 -0.11355366 0.034846134 14736855
0.57091671 -0.11820972 0.035282239 15000026
0.55475003 -0.104369 0.032117423 13947340
0.56166667 -0.10798807 0.035132516 14342099
0.3930417 -0.052130502 0.035263296 15328990
0.40066668 -0.056461204 0.037499845 14736856
0.3871702 -0.044071488 0.035615571 15657954
0.39121747 -0.048136011 0.03239312 15526369
0.38470238 -0.035000704 0.035100508 15460575
0.38466918 -0.025087906 0.035096608 14869207
0.38673049 -0.01559084 0.035408575 14408658
0.39057145 -0.011889598 0.031460527 14145486
0.38858822 -0.0088635013 0.038188145 14013901
0.3935101 -0.0052388422 0.034568455 13027007
0.40000001 -0.00080683961 0.031351581 12369078
0.39683333 0.00043755618 0.036350187 11448232
0.40122226 0.0014365118 0.032069962 11777198
0.58330774 0.057438549 0.034114171 12237745
0.58406669 0.062174361 0.031968474 11645351
0.58147371 -0.13206893 0.04374807 14012620
0.5765779 -0.12444754 0.045206431 15526114
0.58000004 -0.12880222 0.042744212 15196636
0.56832004 -0.11247908 0.045528956 14868442
0.5718261 -0.11767719 0.045023307 15394785
0.56690907 -0.10864263 0.044134304 14671063
0.3877407 -0.051985379 0.046976615 15394527
0.39143339 -0.053635005 0.043105442 15065817
0.3851532 -0.044998951 0.045013152 15262941
0.37883332 -0.032395788 0.049129251 2896431
0.38176468 -0.034981143 0.044624981 12369078
0.37867862 -0.025489833 0.048929416 2633259
0.38154292 -0.024723759 0.044007737 12565941
0.38294467 -0.015214901 0.045052201 14210765
0.38687137 -0.0060088937 0.045665752 13289665
0.39074999 -0.0024794501 0.041693561 12369590
0.39140001 0.00031031767 0.041761074 10987937
0.57500005 -0.12334265 0.054487772 14999515
0.56829631 -0.11245669 0.054618124 15131101
0.57166672 -0.11758576 0.05484385 15196894
0.55800003 -0.10170972 0.059409745 14342095
0.5637188 -0.10634806 0.056013104 14736599
0.55350006 -0.097650684 0.05957967 13881801
0.38666666 -0.053237747 0.055665247 15197405
0.39000002 -0.058001149 0.055675209 15197148
0.38268027 -0.044905636 0.054904833 14473939
0.37770635 -0.034471884 0.055287778 2699050
0.38007149 -0.039343778 0.054511335 8291198
0.37700656 -0.025028555 0.055137344 2632743
0.37851518 -0.018323904 0.056208763 8816254
0.3812553 -0.013754009 0.054634769 13092797
0.3852376 -0.0053130542 0.055036422 13355714
0.38803139 0.0011763687 0.056160681 11710892
0.57390904 -0.12134316 0.063363746 14473428
0.56799996 -0.11217617 0.065131567 15196894
0.57159376 -0.1169024 0.064873137 14867929
0.55645001 -0.10260286 0.065171286 14802135
0.56238467 -0.1074248 0.064588144 15130844
0.54900002 -0.095570982 0.067449205 14342098
0.55205268 -0.098110542 0.065681405 14210255
0.389 -0.06101805 0.065809861 15460321
0.39000002 -0.061044473 0.066631176 14999769
0.38634446 -0.055013929 0.064939208 15131356
0.39000002 -0.059218481 0.060696691 15131355
0.38131315 -0.045149721 0.065146245 13749961
0.37623733 -0.034933802 0.065052532 3422515
0.38000005 -0.03990832 0.063143507 11446949
0.37448505 -0.024861623 0.06485422 2435621
0.37767658 -0.017167145 0.065199494 8619132
0.38078943 -0.012464762 0.064790547 12763578
0.38348013 -0.0053159771 0.064947389 13092799
0.38786373 0.0035051338 0.065840818 11908782
0.39066669 0.0077473386 0.062780946 10395285
0.38900003 0.010598549 0.06873697 9869196
0.39000002 0.011995289 0.066631176 10132368
0.56828004 -0.11310959 0.075855911 15197150
0.57072735 -0.11642018 0.072485775 14933979
0.55561113 -0.10214436 0.075199366 14934235
0.56275004 -0.10733356 0.074735932 15328480
0.5383637 -0.091142125 0.075938322 14210768
0.54568422 -0.095502622 0.075875722 14276305
0.55163646 -0.098906808 0.074639738 14605270
0.52900004 -0.086516552 0.073041633 13552836
0.53357148 -0.087623373 0.07635162 13684424
0.38874999 -0.061076488 0.07688196 14999514
0.39097628 -0.063466422 0.075190343 15197149
0.38496578 -0.055318195 0.074997559 15065307
0.37899998 -0.040690541 0.075842403 11447460
0.38084841 -0.045707975 0.074802108 13749704
0.37513733 -0.034899868 0.074960001 3882808
0.37312776 -0.024938084 0.074867688 2172705
0.37685266 -0.016278118 0.075347714 7829874
0.3805714 -0.011610712 0.074234076 11974319
0.38219193 -0.0051376275 0.074964121 12698297
0.38684794 0.00463688 0.074985452 12040624
0.38899997 0.013395565 0.073927715 10198161
0.39000005 0.012269189 0.07649155 10790556
0.56473684 -0.11198682 0.084227979 14735829
0.55547833 -0.10249794 0.084951721 15130844
0.56079173 -0.10747104 0.084649391 15196380
0.53900003 -0.090675637 0.080731422 13947340
0.54518181 -0.094002217 0.084871329 14144719
0.55140007 -0.098829128 0.08594618 14407635
0.53791672 -0.087765716 0.08256527 13815754
0.54100007 -0.089323439 0.08567556 14539221
0.39442858 -0.07097096 0.087700136 14604758
0.38794282 -0.061788443 0.08579123 14867929
0.39215869 -0.066414312 0.085214891 14802135
0.38290182 -0.055045735 0.084864207 14604757
0.38080019 -0.045378912 0.084709458 12631224
0.37423137 -0.034789544 0.084862582 4014395
0.38000003 -0.03990832 0.088941522 9801866
0.37111169 -0.024976064 0.084955752 1712155
0.3745172 -0.017016748 0.084348328 5593426
0.38079405 -0.01156949 0.085248932 10460823
0.38201657 -0.0052378839 0.08494401 11842990
0.38627258 0.0047186054 0.084974408 11777197
0.38899997 0.010663594 0.086689897 11250854
0.39019367 0.012060975 0.084019035 11382437
0.56100005 -0.11013641 0.091249794 14407891
0.55679488 -0.10436972 0.094958909 14473942
0.56 -0.10810473 0.091480419 14473684
0.54800004 -0.093472578 0.091059588 14078926
0.55265635 -0.097260512 0.094868787 14605013
0.3962791 -0.072797276 0.096400529 14012877
0.38777772 -0.062482312 0.095031127 13815756
0.39208001 -0.06761536 0.094576776 14013134
0.3833147 -0.055037294 0.094837092 13683912
0.38173994 -0.045228057 0.094618335 11315363
0.36876482 -0.031746477 0.09753339 2239009
0.37334675 -0.03477557 0.093225375 4079673
0.38000003 -0.03990832 0.094501436 9407107
0.36847666 -0.024986591 0.097095013 2107167
0.37047386 -0.024893895 0.092005394 1843740
0.36892858 -0.018942734 0.098194405 2172960
0.37211123 -0.016473267 0.094268307 5198152
0.38121742 -0.011244807 0.093569867 8881791
0.38279343 -0.0053351847 0.093832046 10790044
0.38602677 0.0043305703 0.093132652 11974319
0.38899997 0.010557154 0.092207052 12369078
0.39057145 0.012666677 0.091415837 11448233
0.55668426 -0.1035985 0.1022431 14473428
0.55480003 -0.099049017 0.10180034 14539477
0.39654541 -0.072790638 0.10154781 14736857
0.38790911 -0.06270238 0.10102891 13092287
0.39175007 -0.067205459 0.10116696 14145233
0.38414285 -0.055959504 0.10044511 12302003
0.38200003 -0.048613917 0.10014087 9013379
0.36872005 -0.032337371 0.10173504 1712922
0.37226477 -0.033252969 0.10666844 1383701
0.36813343 -0.024600541 0.10278327 1383445
0.37182352 -0.026099786 0.10720405 660235
0.36839142 -0.01755907 0.10313343 2039833
0.37 -0.014605152 0.10089287 8949121
0.37501428 -0.033138096 0.1159972 1712152
0.37419453 -0.024844514 0.11780078 528905
0.37379992 -0.01700614 0.11774349 1184778
0.37091908 -0.032665525 0.12498639 1252113
0.37121773 -0.025039613 0.12464826 1252115
0.37294513 -0.016808972 0.12480769 1185293
0.35828573 -0.032715384 0.13981551 2239007
0.36404449 -0.032228082 0.13789529 988941
0.37095246 -0.032259516 0.13301383 2040603
0.35836366 -0.022610098 0.13978049 2304288
0.3645547 -0.024914952 0.13717747 1186321
0.37068278 -0.02530743 0.13224185 1843738
0.35836366 -0.017654374 0.13978049 2172188
0.36516458 -0.016088638 0.13804449 1054478
0.37152177 -0.015264371 0.13539779 1383446
0.37200004 -0.0094589479 0.13975486 7040873
0.35431916 -0.032577518 0.14507318 2304287
0.35424736 -0.025183994 0.1450021 2238238
0.35414785 -0.016233189 0.14510041 1909274
0.36060005 -0.01322138 0.14045322 1843479
0.36700001 -0.0093318112 0.14002547 7698286
0.37 -0.0094080931 0.14030391 3289901
0.3468903 -0.03231094 0.15548894 2041116
0.35045454 -0.032330431 0.15056802 2172445
0.34540573 -0.025227772 0.15825661 2040860
0.34485984 -0.015862906 0.15851346 1777945
0.33884615 -0.031742312 0.16906762 1778712
0.34143057 -0.032238469 0.16452901 1910042
0.33801436 -0.024748573 0.16827953 1778456
0.34164697 -0.025195312 0.16328067 1975321
0.33757153 -0.016069189 0.167944 1645846
0.34154558 -0.016210163 0.16307938 1711895
0.33425865 -0.032283302 0.17465697 1975834
0.33373332 -0.024937768 0.17492382 1975579
0.81800002 -0.22905004 0.34848332 2960430
0.80800003 -0.22861493 0.35935661 2634026
0.81539297 -0.22633572 0.35575175 2369573
0.80664515 -0.22579186 0.36575666 2041634
0.81360012 -0.22257312 0.36196873 2436647
0.80900002 -0.21942843 0.36927074 2436134
0.81533343 -0.21808748 0.36681071 2370086
0.80648142 -0.22545542 0.37490499 1252117
0.80850005 -0.21929282 0.37377548 2436134
0.81461549 -0.21566065 0.37498313 2435623
0.82025009 -0.21167837 0.37368512 1974302
0.80837506 -0.22635482 0.38199601 725259
0.81094742 -0.22395054 0.38644633 1120018
0.8152594 -0.215535 0.38485023 1777691
0.82000011 -0.21089421 0.38484976 2303525
0.80800003 -0.22436069 0.39813185 923151
0.81052399 -0.22508009 0.39318606 791566
0.80710524 -0.21533537 0.39783844 1054481
0.81365526 -0.21424609 0.39332685 1251604
0.80766672 -0.20961297 0.39891198 1317140
0.81550008 -0.20878015 0.39800608 1250835
0.81900007 0.19966385 0.39876014 9211523
0.82045436 0.19477962 0.39475232 9079937
0.81900007 0.20349842 0.39876017 9145730
0.82041365 0.20557123 0.39388373 9145730
0.80618167 -0.22512674 0.40515724 792079
0.80512017 -0.21460661 0.40519589 923150
0.80690002 -0.20846848 0.40514603 1119503
0.81446677 -0.20641513 0.40417403 1645334
0.82080752 0.18458332 0.40518254 9079938
0.81900012 0.19798622 0.40283439 9145730
0.81999987 0.19397421 0.40561667 9079937
0.81900007 0.20206045 0.40259472 9079937
0.81999987 0.20630641 0.40537152 9145730
0.82051986 0.21540242 0.40526319 9145730
0.80692315 -0.22540277 0.41504174 791569
0.8073529 -0.21553533 0.41432676 857617
0.81025004 -0.21312836 0.4186843 922897
0.80866671 -0.20924121 0.41266 1119502
0.81543761 -0.2066128 0.41444162 2040091
0.82231247 -0.20210029 0.41541016 7829872
0.82142842 0.13508229 0.41470569 9079937
0.82172018 0.1753186 0.41547459 9079937
0.82091987 0.18475723 0.41506958 9079937
0.82061523 0.19451584 0.41476887 9079937
0.82096529 0.20511357 0.41522506 9145473
0.82099986 0.21552725 0.41510966 9079937
0.82164001 0.2253141 0.41543335 8882045
0.80885714 -0.22777522 0.42465991 659982
0.81078959 -0.22360797 0.42613149 791568
0.81343997 -0.21468288 0.4249998 857105
0.81750005 -0.20881444 0.42291009 855819
0.82247996 -0.20420823 0.42548347 6382427
0.81900007 0.12872396 0.42560226 9211523
0.82000005 0.12888114 0.42996114 9408902
0.81900007 0.13064127 0.42464361 9211523
0.82026917 0.13498065 0.4250057 9145730
0.82116008 0.14444272 0.42480171 9079937
0.82183349 0.15514296 0.42514998 9014144
0.82212019 0.16578217 0.42529938 9079937
0.82216024 0.17541267 0.42532012 9014144
0.82119995 0.18481989 0.42482352 9079937
0.8206799 0.19430885 0.42455396 9079937
0.8210355 0.20462222 0.42453223 9145473
0.82148141 0.21522616 0.42518398 9145473
0.82250005 0.22487633 0.42482299 9211266
0.80717856 -0.22568132 0.43625984 725775
0.81033337 -0.22337212 0.43163702 462857
0.80900002 -0.21942843 0.43934444 856849
0.8137576 -0.21580166 0.4347637 791568
0.82000005 -0.21089421 0.4366799 725262
0.82040006 0.1373951 0.43247494 9211523
0.82099986 0.14457427 0.43416932 9079937
0.82193136 0.15499547 0.43468985 9079937
0.82246166 0.16562915 0.43525159 9014144
0.82264 0.17551489 0.4351981 9014144
0.82172012 0.18493661 0.4347108 9014144
0.82127988 0.19445208 0.43447867 9014144
0.82216012 0.2042852 0.43494457 9014144
0.8057 -0.2251322 0.44478208 857359
0.8083334 -0.21924762 0.44276783 922641
0.81442112 -0.21647456 0.44509116 988175
0.82044452 -0.21228854 0.44598675 5593168
0.82100004 0.14633609 0.44009534 8882558
0.82311767 0.15544306 0.44406483 9079937
0.82319999 0.16503514 0.44512907 9014144
0.82256019 0.17549792 0.44478175 9014144
0.82204032 0.18500949 0.44450164 9014144
0.82232016 0.19469903 0.4446536 9014144
0.82352006 0.20462294 0.44530192 9014145
0.80664998 -0.22624671 0.45374161 1053196
0.81183332 -0.22177871 0.4557685 2106395
0.81700003 -0.21848886 0.45444834 3817271
0.82250011 -0.21384192 0.45572463 8027507
0.81800002 0.14963128 0.45189193 9145730
0.81840008 0.15391968 0.45747709 8949122
0.82080001 0.15725395 0.45410857 9014401
0.82203859 0.16539663 0.45441675 8948608
0.82186389 0.17561187 0.45350102 8948607
0.82176685 0.1849481 0.45493355 8948351
0.82196701 0.1946145 0.45504513 8948351
0.82240009 0.20434375 0.45528376 9014144
0.82343996 0.21424121 0.45489606 9014145
0.81633335 -0.22141282 0.4617984 8421752
0.82000005 -0.22049239 0.46451458 8158837
0.82509094 -0.21456309 0.46432391 8158581
0.81900007 0.15748338 0.46011356 8883330
0.82000005 0.1595953 0.46067536 9014916
0.82100004 0.18861957 0.46123713 8817535
0.82100004 0.19525909 0.46263492 8883071
0.82186687 0.20421119 0.46364787 8948351
