# .PCD v0.7 - Point Cloud Data file format
VERSION 0.7
FIELDS x y z rgb
SIZE 4 4 4 4
TYPE F F F U
COUNT 1 1 1 1
WIDTH 463
HEIGHT 1
VIEWPOINT 0 0 0 1 0 0 0
POINTS 463
DATA ascii
0.58600003 -0.01318559 0.018036056 11117723
0.5853501 -0.0052931751 0.017855316 12565683
0.58456677 0.0049748616 0.017212784 14473421
0.57825005 0.015585352 0.018756172 13814722
0.58239996 0.015390637 0.016195672 14210249
0.57794118 0.025413329 0.018118862 11508871
0.58216667 0.024111308 0.015038944 13615789
0.56900001 0.036149368 0.019954897 13354940
0.57553852 0.032828502 0.017897747 12696234
0.58033335 0.031434327 0.014918077 13420729
0.583 -0.061227761 0.029999571 15658208
0.57800001 -0.051907446 0.029742286 13882831
0.58328569 -0.054919701 0.027376954 14606035
0.57708704 -0.044924688 0.028224938 11842728
0.58199996 -0.046436753 0.024042767 12303537
0.5771668 -0.035394046 0.028571686 9735813
0.58185714 -0.034156933 0.02555972 14933970
0.57750005 -0.024824373 0.029039273 8156012
0.58397365 -0.024559159 0.024612779 14144458
0.57589483 -0.014007295 0.028353298 7102296
0.58394587 -0.015181469 0.023466885 11643555
0.57442427 -0.0048262659 0.026981886 9208443
0.58313036 -0.0058070705 0.022109622 11577762
0.56746155 0.0066183698 0.028074695 14276557
0.57439023 0.0046486077 0.024528204 10130058
0.5814445 0.0029086038 0.020844443 14144454
0.546 0.017429577 0.029373851 14405051
0.55433339 0.017191997 0.0282334 13946047
0.56429636 0.0148575 0.026241435 14144199
0.57428002 0.014650327 0.021909311 9010549
0.54400003 0.025007101 0.028627155 13744540
0.55404758 0.025623318 0.02609673 13613985
0.56599998 0.02430238 0.023201711 13350558
0.57412499 0.024460718 0.020887855 7955537
0.53733337 0.034558147 0.029324301 13683644
0.54371434 0.03236144 0.028520819 14471875
0.55471432 0.031898469 0.026126802 14144193
0.56466663 0.034236692 0.023005774 12038051
0.57200003 0.031652074 0.020060107 7694940
0.54733336 -0.061323594 0.039696123 15721427
0.55500001 -0.060885675 0.037653625 15327699
0.56500006 -0.061102498 0.036124494 15196372
0.57500005 -0.061058875 0.03362266 14142398
0.54900002 -0.058942236 0.039816998 15458255
0.55476922 -0.056163557 0.038833328 14670026
0.56477273 -0.05438235 0.036566745 14078920
0.57459998 -0.055177916 0.033004321 11776167
0.58000004 -0.058876015 0.031202992 8224375
0.55550003 -0.044031356 0.038769875 14144196
0.56506252 -0.045037676 0.035887755 13552832
0.57405555 -0.045654569 0.031851072 8881789
0.55585712 -0.034955949 0.038359739 14932944
0.56484365 -0.034859587 0.035008568 14998995
0.57279998 -0.035038196 0.031528719 13551292
0.54750001 -0.022574423 0.039708205 13285794
0.55452383 -0.024978628 0.038358297 14734791
0.56426924 -0.025169726 0.034820046 14669774
0.57200003 -0.025256902 0.031439804 13617857
0.53675002 -0.012392135 0.039239906 10390910
0.54418182 -0.013833445 0.038190421 10522495
0.55454546 -0.01498836 0.036202218 12103331
0.56433338 -0.014986564 0.032750335 12235433
0.57160008 -0.017214699 0.030751085 14209222
0.51700002 -0.0022531466 0.039916765 14145743
0.52540004 -0.0036489493 0.038842328 14210507
0.53422725 -0.0044863243 0.036748808 12891556
0.54371434 -0.0058289259 0.03506865 13418415
0.55457145 -0.0072360397 0.033725418 11314073
0.56453854 -0.0062172981 0.03117956 11906468
0.50522226 0.0046290127 0.038744185 13684935
0.51283342 0.0083717741 0.037991855 13683908
0.52466673 0.0063131712 0.036409575 13814977
0.5328235 0.0039498927 0.034602631 13549487
0.546 0.0086989459 0.031501837 14603462
0.55000001 0.0079035144 0.030876605 14209479
0.56774998 0.0025073653 0.030543962 14472653
0.49780002 0.018338785 0.039366089 9800565
0.50419998 0.015273654 0.038766339 12301735
0.5145238 0.014966466 0.036621947 13551288
0.52514297 0.014744835 0.034102872 13747635
0.53376931 0.014780492 0.031980313 12495765
0.54285711 0.014152388 0.030838134 14405822
0.48800004 0.028718492 0.039962552 13224639
0.4966667 0.024344843 0.038965199 9801339
0.50508338 0.024695523 0.037515026 13089961
0.51373339 0.02542334 0.035731487 13615790
0.52456248 0.025497243 0.033667073 13746343
0.53475004 0.024647156 0.031203514 12888199
0.49833336 0.031660598 0.039642144 10000525
0.50600004 0.035313509 0.039262556 12434352
0.51476669 0.034511268 0.03660417 13618111
0.52394456 0.033896506 0.03308874 13353137
0.5328334 0.032599207 0.03074199 12168345
0.49900001 -0.065255769 0.049040522 11579814
0.50553334 -0.063426413 0.048101321 12040365
0.51382357 -0.063724622 0.045539204 15000280
0.52166671 -0.063335814 0.043532643 14867924
0.53580004 -0.061790846 0.042115532 15589839
0.54300004 -0.061793786 0.040969048 13943985
0.50621051 -0.056029584 0.048873004 10923682
0.51422727 -0.054880027 0.046920802 13291202
0.52426666 -0.053987917 0.045219779 13224896
0.53428572 -0.054679822 0.043124348 14012094
0.54350001 -0.055170596 0.041323394 12891296
0.55200005 -0.052803118 0.040034577 14077630
0.50800002 -0.049188793 0.049925022 9936529
0.5132333 -0.044808533 0.047670003 14079691
0.52368754 -0.04519242 0.045180239 13750469
0.53466672 -0.044882827 0.042861901 13088930
0.54407144 -0.045581806 0.041275002 12956573
0.55233335 -0.044859543 0.040058751 14340286
0.51488233 -0.035068501 0.047512155 14408657
0.52278268 -0.034523427 0.044084631 14867664
0.53568757 -0.034937512 0.041983183 13350045
0.54657143 -0.034740243 0.040920395 14930110
0.55250001 -0.035390463 0.040070839 15589582
0.50569999 -0.024348058 0.049342208 10790042
0.51463336 -0.025210092 0.047276419 13881542
0.52386957 -0.025157379 0.044069011 14341836
0.53460008 -0.025190827 0.041939545 14075572
0.54300004 -0.024621055 0.040653013 12955803
0.55200005 -0.029542761 0.040034577 15654349
0.48650002 -0.01009256 0.049518656 14276301
0.49433339 -0.014113973 0.048899882 9408130
0.50355005 -0.015576375 0.047480147 8487285
0.51456517 -0.014710797 0.044594537 10723476
0.52468425 -0.015408535 0.042315844 11183772
0.53377783 -0.016771389 0.040792588 11642776
0.47446162 -0.0033499165 0.049188036 14012358
0.484 -0.0047802632 0.04812954 14209737
0.49469569 -0.005078753 0.046095308 11843246
0.50433338 -0.0042458666 0.043578684 12435127
0.5141539 -0.0062251557 0.0420998 13684165
0.52325004 -0.0076436573 0.040857572 13091770
0.46545455 0.0077712089 0.049306367 12626848
0.47392863 0.0045535415 0.047996987 13814723
0.48466668 0.0049337423 0.045735557 13814980
0.49521422 0.0047539049 0.043115076 11250594
0.50315797 0.0038773154 0.040829767 13224129
0.45775005 0.016752139 0.049271032 11043947
0.46440002 0.015401928 0.047519565 12361352
0.47336844 0.013386861 0.045934409 13615795
0.48464 0.014589642 0.043402974 13550001
0.4941 0.01484338 0.041210622 11512215
0.50300002 0.010760719 0.040013377 13289662
0.43900001 0.028917994 0.049310111 14603464
0.44300002 0.026581783 0.049759403 14209476
0.4547857 0.024960376 0.048211187 12033676
0.46337503 0.023065444 0.046079867 12493709
0.47271433 0.022441285 0.044712503 13613218
0.48446876 0.026200978 0.042607691 13813686
0.49144447 0.024571843 0.040372074 12893352
0.45725003 0.03065392 0.048679553 11311756
0.46435717 0.033076163 0.047417592 12301476
0.47383335 0.034628686 0.045267355 13092025
0.48326322 0.032902699 0.042664923 13355199
0.49150002 0.033912394 0.040632319 10526357
0.50700003 0.036958009 0.040331576 11776421
0.44900003 -0.074483879 0.059893403 14012872
0.45122227 -0.071799055 0.058309991 15130578
0.47600001 -0.070048258 0.054580409 15326667
0.45584008 -0.066004448 0.058883358 14802383
0.46448147 -0.064284332 0.057321142 13219751
0.47445837 -0.064774059 0.055278108 13945531
0.48334217 -0.064838655 0.052587617 14736849
0.49340004 -0.062320314 0.0510283 14803412
0.46518919 -0.054971244 0.058221184 10918280
0.47500008 -0.054844771 0.05601988 12434092
0.48476192 -0.055285972 0.054770082 12698294
0.49443334 -0.055360209 0.052596971 12895931
0.50216669 -0.053715285 0.050918069 9608850
0.46596304 -0.045501783 0.058960993 12493975
0.47371429 -0.043847065 0.056489285 14536898
0.48299998 -0.044474509 0.054249182 14276042
0.49415386 -0.047092848 0.052920166 13751239
0.50564998 -0.045167331 0.051288534 10528412
0.51020008 -0.04187661 0.050380014 12698295
0.44800001 -0.031842552 0.059760008 14341835
0.46621433 -0.035553023 0.059615053 12758177
0.47365573 -0.034949061 0.055990316 13878712
0.48199999 -0.034223523 0.052316014 14473421
0.49700001 -0.031253133 0.051945042 13685189
0.50470006 -0.035163883 0.052080076 11448743
0.5110001 -0.035403907 0.050777793 10791070
0.45711115 -0.023393728 0.059190206 13286575
0.46540004 -0.024801809 0.058482312 10979964
0.47305137 -0.02574503 0.055881854 13483954
0.48229414 -0.026013741 0.053173035 14275271
0.49480006 -0.024780151 0.05101794 13881542
0.50240004 -0.026890535 0.050550796 10658971
0.44793332 -0.014190052 0.059400748 12169897
0.45496005 -0.013786185 0.057316132 11707029
0.46531251 -0.015068235 0.055085611 10126452
0.47436848 -0.015682098 0.053102199 10787215
0.48412502 -0.0157068 0.051397722 10393741
0.49075001 -0.017650332 0.050527442 10591630
0.42800003 -0.00086331833 0.059595868 14013132
0.43500006 -0.002921147 0.058956262 13815238
0.44540006 -0.0057776594 0.058155488 13947079
0.45512128 -0.0049552871 0.05556934 13089455
0.46500003 -0.005354783 0.052596394 12627875
0.47222221 -0.0073458385 0.050705418 14012614
0.48000002 -0.0099577168 0.050544318 14275274
0.42485723 0.0054713273 0.058658089 12171185
0.43362501 0.0049653701 0.056407955 13354943
0.44493335 0.0054874951 0.054206941 13486014
0.45503339 0.0049400041 0.052384391 12364190
0.4644118 0.0025118303 0.051136196 11902610
0.41880006 0.015330268 0.05978661 10653306
0.42390406 0.015308639 0.057491083 11443338
0.43474358 0.015014691 0.054147445 13285026
0.44454172 0.014885093 0.052182972 13351590
0.4538421 0.013845166 0.050805479 13416353
0.41860002 0.02512526 0.05975806 10526616
0.42413229 0.025134742 0.056695618 11907754
0.43259996 0.024723098 0.052279927 13879741
0.44420004 0.021874618 0.050721277 13285798
0.41900006 0.032897331 0.059815161 10790303
0.4238486 0.033116914 0.057609972 11514023
0.43235713 0.032926343 0.053220656 12696755
0.44000003 0.031043964 0.050452482 14143686
0.45700002 0.03224339 0.050262094 14734280
0.42565629 -0.073164515 0.068139076 13551807
0.43216667 -0.07320489 0.065738313 12236208
0.44572732 -0.072894849 0.062862702 14802386
0.45000002 -0.071790382 0.060478274 14933713
0.42424461 -0.065298565 0.068389535 13290177
0.43343598 -0.064508796 0.065275803 11908271
0.44496557 -0.065198921 0.062654287 14473935
0.45180002 -0.064838193 0.060687225 14473678
0.41900003 -0.054303482 0.069624029 13159359
0.42407402 -0.054864462 0.068139724 11449771
0.43298241 -0.055024322 0.063935161 11581100
0.44340006 -0.057987131 0.061842788 11910065
0.45725003 -0.057648402 0.060857236 11844014
0.46250004 -0.052900877 0.06088246 12434865
0.41900009 -0.044494618 0.069624022 14670030
0.42460537 -0.044984721 0.067985497 12764090
0.43260318 -0.045073852 0.064080343 13553091
0.44575003 -0.041340794 0.062322356 14539216
0.45625001 -0.042308036 0.061391909 14341835
0.46215376 -0.04621074 0.060982093 14997966
0.41790003 -0.034599025 0.069441244 14406858
0.4240258 -0.035116281 0.068009146 12894908
0.43453994 -0.034954522 0.065074548 13355458
0.4442904 -0.034684923 0.062043797 14341836
0.45450002 -0.035954956 0.06069947 14538701
0.46000001 -0.03727217 0.060283855 15194831
0.41700006 -0.023501446 0.069238096 10788502
0.423915 -0.025009403 0.067074612 10723739
0.43421215 -0.025458666 0.064350657 12433583
0.44421226 -0.025691373 0.061674148 13091512
0.4526667 -0.026468664 0.060143728 13814978
0.40874997 -0.011949006 0.069475539 14275529
0.41452497 -0.014499197 0.067976788 12499890
0.4236111 -0.015833793 0.065506615 9342088
0.43480477 -0.015048427 0.062955648 11314846
0.44286358 -0.015223629 0.060768805 11709089
0.40772986 -0.0046951701 0.068445191 14012872
0.41456419 -0.0051651797 0.065893732 14012615
0.424077 -0.0046235435 0.062976032 11315623
0.43368751 -0.0071586687 0.061460815 13486788
0.44150001 -0.0091590248 0.060441539 13947079
0.407381 0.0043828008 0.068461634 13354684
0.41423997 0.0056410045 0.06424357 13158075
0.42212006 0.0031752808 0.061325721 10790048
0.40812498 0.01517902 0.068651818 13217939
0.41414765 0.01507405 0.063867182 12888979
0.40834206 0.024484837 0.068531007 14208958
0.41384876 0.025096627 0.063741714 13683388
0.40866664 0.031863313 0.069501199 13617851
0.41480011 0.033123452 0.064262562 12828596
0.40800002 -0.08009921 0.079257809 14143688
0.40745458 -0.074401349 0.07812871 14867151
0.41362745 -0.073792517 0.073844396 14932687
0.42130771 -0.074367873 0.07068909 14669518
0.40586588 -0.064578407 0.077712223 13553089
0.41388732 -0.06528683 0.072719961 13816262
0.39900002 -0.050310332 0.079377607 12697523
0.4044944 -0.054854728 0.076741882 12764344
0.41377351 -0.055369157 0.071781263 12435894
0.39734215 -0.044251751 0.078555681 11446945
0.40426043 -0.045553565 0.075042002 14933458
0.41361359 -0.044781491 0.071340986 14801616
0.39679602 -0.035360917 0.07823395 11644321
0.4037911 -0.034846779 0.074391864 14538444
0.41407314 -0.035117835 0.071187869 14406858
0.39663464 -0.024727819 0.078081734 9013116
0.40366688 -0.025143558 0.074070655 11643810
0.412871 -0.025621464 0.070908777 12170155
0.39616981 -0.01479977 0.077882603 11315356
0.40413934 -0.015090303 0.073188864 12564912
0.41100001 -0.017599413 0.070493579 10459795
0.39651674 -0.0049751755 0.077486664 13354683
0.40276557 -0.0050742775 0.072500668 14012871
0.39705002 0.0045447471 0.077823631 13158074
0.40235004 0.0051605618 0.072888061 13223353
0.39764711 0.014769304 0.078320637 12823952
0.40274456 0.015256451 0.073290773 13020818
0.39835715 0.022645447 0.079181984 13880508
0.40307188 0.025235064 0.074415833 14078144
0.40511671 0.032505199 0.075315997 12763058
0.41000003 0.03468623 0.070048161 10921882
0.40450001 -0.080359027 0.081891611 14209736
0.3946625 -0.074130543 0.086676881 10460047
0.40207496 -0.074609041 0.081795871 11116955
0.39518502 -0.065056346 0.08604344 9276032
0.40079167 -0.065552026 0.080905244 10922142
0.38900003 -0.051781386 0.08922673 14341322
0.39443976 -0.0549285 0.085195042 8355955
0.40000004 -0.057511494 0.080721043 8357748
0.38875008 -0.044382464 0.088912681 14275271
0.39259985 -0.04504196 0.08395797 9538690
0.38866043 -0.035204135 0.088306382 12763057
0.39177516 -0.034776676 0.083024219 7960682
0.38823411 -0.025362296 0.088449754 7566188
0.39167002 -0.024785565 0.083247952 5131583
0.38845846 -0.015370292 0.08845672 7565927
0.39167404 -0.015130416 0.08334256 5985355
0.38895234 -0.0067243883 0.088738695 12105898
0.39187464 -0.0051561361 0.08402966 7367009
0.38899997 0.0049069487 0.089150846 12565931
0.39225832 0.0046967855 0.084415525 7302497
0.389 0.013785844 0.08922673 13020563
0.39273161 0.01490591 0.084642388 7692104
0.39424247 0.024933942 0.084978797 9143669
0.40000001 0.02915819 0.080512956 13881536
0.39562505 0.031876817 0.086424507 8683639
0.40000001 0.031265106 0.080747053 13552571
0.37791672 -0.073823817 0.098995514 14867149
0.38480908 -0.073388048 0.094257087 14801357
0.39000002 -0.071087435 0.090369098 15064529
0.37850001 -0.069434308 0.099665791 14538184
0.38574815 -0.065306939 0.096044689 13684162
0.39089659 -0.064623922 0.091364481 13487295
0.38593194 -0.054913137 0.095143117 12698037
0.39028576 -0.057826813 0.090696156 11187367
0.38531408 -0.045133337 0.095069401 14867148
0.38609684 -0.03509609 0.095011212 11577757
0.3837463 -0.024936786 0.095001541 2435619
0.38387665 -0.015244957 0.095032603 3158313
0.38649634 -0.005329797 0.094647691 12302251
0.38653782 0.0046497206 0.094532065 12237229
0.38618359 0.014865225 0.094950847 12428938
0.38664246 0.024484063 0.09528847 14012092
0.39092866 0.02784529 0.091171183 11644835
0.38806894 0.031641297 0.09633968 13486266
0.39231253 0.031871863 0.09141688 10131340
0.36810532 -0.073490955 0.10790381 13281928
0.37400001 -0.073707022 0.10327061 14405310
0.36866668 -0.068828501 0.10891978 13084030
0.37476113 -0.06527546 0.10576605 13353389
0.38102937 -0.063049853 0.10164233 12500145
0.37751189 -0.055202298 0.1073645 12565932
0.38108692 -0.055034284 0.10226491 12696752
0.37865007 -0.047744025 0.1086579 14867147
0.38126376 -0.044584323 0.10437159 14670282
0.38259974 -0.034833323 0.10488176 10262668
0.37839293 -0.023747662 0.10767219 2304547
0.38099986 -0.025621766 0.10333236 2435877
0.37832689 -0.01632995 0.10753867 2501153
0.38107234 -0.014093788 0.10358169 3618608
0.38344646 -0.0052021253 0.10507749 11512735
0.38316536 0.0048921164 0.10504021 12170922
0.37850001 0.017230045 0.10862847 12561036
0.38180676 0.014706666 0.10412354 12165253
0.37839216 0.024630871 0.10817375 14012354
0.38188538 0.025447441 0.1032413 14143682
0.37871429 0.0311532 0.10915793 13814717
0.38192496 0.031728618 0.10471419 13683902
0.3746154 -0.08089859 0.11723027 10658199
0.36824244 -0.072660133 0.11218298 11967353
0.37198582 -0.075648107 0.11683696 11641742
0.36850005 -0.066917852 0.11295969 11770487
0.37076953 -0.063752599 0.1156803 10916463
0.37339202 -0.055113211 0.11454224 10916464
0.3773796 -0.045051817 0.11467952 13350290
0.38000003 -0.0412427 0.11029161 14538435
0.37850001 -0.035128552 0.11620934 7826002
0.38042644 -0.035356134 0.11353054 9734516
0.37527913 -0.02485309 0.11504934 2172706
0.37569559 -0.014956151 0.11497933 2895909
0.38000003 -0.010551953 0.11029161 8355955
0.37877423 -0.0061682272 0.11762985 9008989
0.38090715 -0.0048950831 0.11434773 11182479
0.37813407 0.0056962562 0.11615516 11507840
0.38070208 0.003554153 0.11220065 12171179
0.37699974 0.015058176 0.1145852 11900532
0.38000003 0.010798132 0.11029161 11640199
0.37576678 0.024865201 0.1148043 13154467
0.37678134 0.032124307 0.11497345 12958635
0.37350002 -0.080758065 0.1219568 10457212
0.37270367 -0.075303935 0.12227862 10520679
0.37253693 -0.064557187 0.12227401 10455145
0.37553576 -0.054310568 0.12238663 9666143
0.37854284 -0.04626051 0.12184526 8218444
0.38064519 -0.042791191 0.12445012 7366227
0.37614816 -0.032107215 0.1226657 3552812
0.38078043 -0.037121221 0.12308716 7233867
0.37271914 -0.025339318 0.12213733 1975325
0.37326652 -0.015208157 0.12209651 2633510
0.37871426 -0.004205334 0.12250823 6970182
0.38000008 -0.0055109607 0.12151028 7626309
0.37866154 0.0053987699 0.1225873 6903870
0.38000008 0.0044227592 0.12548874 10130816
0.37845165 0.014854199 0.12264754 6707264
0.38000005 0.015641438 0.12531577 5921351
0.37659657 0.024817508 0.12245183 7167559
0.37599999 0.031105634 0.12162981 8679514
0.36614817 -0.031533428 0.14567249 1251602
0.36454588 -0.02495007 0.14503233 1120273
0.36399984 -0.015859542 0.1454924 2105113
0.36398441 -0.0322714 0.15595081 2039833
0.36471146 -0.02525028 0.15512581 725257
0.36409441 -0.015771987 0.15507089 2102800
0.81042856 0.19649066 0.15824667 11512734
0.81353855 0.2040488 0.15540382 9275518
0.82000005 0.2095058 0.15929267 4076846
0.36148989 -0.032073766 0.16383076 1646615
0.36218613 -0.02482488 0.16506048 1186064
0.36380947 -0.016322527 0.16466473 1710098
0.81000012 0.18988484 0.16303875 11512992
0.81127787 0.19546115 0.16466597 11447454
0.81545836 0.20453191 0.16532782 8946549
0.81999999 0.2095058 0.16313192 2958363
0.81900007 0.21116762 0.16868487 3550754
0.34544995 -0.03304258 0.1780396 1580823
0.35528001 -0.031289585 0.17629214 857101
0.36231917 -0.032604594 0.17335376 1449752
0.34635299 -0.025625888 0.17877528 1449237
0.35518712 -0.024936439 0.17623411 922895
0.36072221 -0.024372287 0.17206395 1646873
0.34736001 -0.017224032 0.1793679 1382933
0.35499996 -0.016290614 0.17760916 856589
0.36214054 -0.016551688 0.1729681 1186066
0.35500002 -0.0098577449 0.17949323 9211523
0.81199998 0.20675135 0.173659 4603187
0.8173334 0.21105744 0.17471696 3485218
0.33848935 -0.033526205 0.18798652 1515288
0.34198982 -0.033702035 0.18342663 1712408
0.33854702 -0.025051966 0.18857187 1645847
0.34201977 -0.024909955 0.18351713 1580310
0.33837715 -0.016967006 0.18703294 1448727
0.34214276 -0.017269092 0.18224908 1383446
0.35566667 -0.010985901 0.18177532 1645076
0.35600001 -0.0098855132 0.18124893 1579537
0.33750001 -0.032550219 0.19079216 1515543
0.33776921 -0.02519132 0.19094449 1580311
0.33800003 -0.01787379 0.19103907 1580056
0.81000006 0.021120844 0.27870846 1053709
0.80850005 0.015404764 0.28103077 1975324
0.8118 0.016798038 0.28446141 1448725
0.81527275 0.023170732 0.28590679 987918
0.81766671 0.0076019983 0.29219434 2172960
0.82200009 0.0026704869 0.29607064 2501155
0.81762505 0.014860799 0.29210019 2041374
0.82054543 0.016681435 0.29735589 2107167
0.81860006 0.023645844 0.2916328 856332
0.82025009 0.024268152 0.29519722 1054224
0.82499999 0.0056726434 0.30202714 2896425
0.82300001 0.018249115 0.30373374 2107422
0.82300001 0.022836003 0.30465135 2107422
0.82700002 0.013430489 0.31243753 2238753
