# .PCD v0.7 - Point Cloud Data file format
VERSION 0.7
FIELDS x y z rgb
SIZE 4 4 4 4
TYPE F F F U
COUNT 1 1 1 1
WIDTH 416
HEIGHT 1
VIEWPOINT 0 0 0 1 0 0 0
POINTS 416
DATA ascii
0.56677777 -0.073378228 0.019284947 16118252
0.5741818 -0.072277248 0.016344601 16381935
0.56836361 -0.064286262 0.019448202 16118763
0.57256258 -0.065580539 0.015636289 15263456
0.56835711 -0.055698007 0.019266499 15658214
0.57071435 -0.058982354 0.015432977 13552838
0.54539287 -0.074193053 0.027148079 15921899
0.55438465 -0.073094286 0.023030933 16119021
0.54624003 -0.065702684 0.027951814 15790312
0.55414289 -0.065115944 0.024742169 15856105
0.56236851 -0.06446591 0.022005558 16052716
0.54637504 -0.05546112 0.028753757 15658982
0.55350006 -0.054888476 0.025885105 15658727
0.56204993 -0.054949619 0.022338834 15855336
0.54766667 -0.048328493 0.029035499 15658982
0.55388904 -0.044121232 0.026657335 15461348
0.56170005 -0.048076969 0.022063313 15329506
0.55650002 -0.03803198 0.028197989 15330018
0.56259096 -0.033871595 0.026495354 13882059
0.56737506 -0.026876045 0.028697209 12105648
0.57200009 -0.021809921 0.028090803 11250596
0.57542115 -0.015833195 0.028545283 11316901
0.5028612 -0.074422799 0.037840795 15592935
0.51100004 -0.077591397 0.035864733 15527142
0.53866673 -0.072546117 0.032341812 15724521
0.54091662 -0.074112698 0.031104289 15658728
0.50473535 -0.066139922 0.03753981 15592935
0.51442868 -0.063058414 0.035497878 15527142
0.52300006 -0.062881231 0.034258254 15592935
0.53616673 -0.06258668 0.032186244 15592935
0.5430001 -0.066555761 0.030862877 15658728
0.50800002 -0.058701515 0.039221887 15592935
0.51425809 -0.055322576 0.037796147 15329764
0.52418756 -0.053893242 0.035252839 15395556
0.53516674 -0.055681188 0.032753993 15461349
0.54285711 -0.05456268 0.031017559 15592935
0.51725006 -0.04546855 0.038875002 15066591
0.52350003 -0.04492756 0.036799874 15198177
0.53389472 -0.045542583 0.034507144 15329763
0.54463166 -0.044444252 0.03184763 15395812
0.55000001 -0.041023761 0.030876605 15329763
0.51800001 -0.039445356 0.039588977 15132384
0.52420002 -0.03762266 0.038999699 15132384
0.5353334 -0.03407985 0.038821641 15132384
0.54520005 -0.035117522 0.035960924 15198176
0.55376923 -0.034768242 0.033078339 15198176
0.56087506 -0.031657923 0.030994043 15132383
0.54589999 -0.026911091 0.038951896 14869212
0.55449998 -0.025651297 0.036964569 14869212
0.56420588 -0.024633413 0.033026535 14737625
0.55775005 -0.017770261 0.038818743 14671833
0.56440556 -0.015032783 0.036316413 14606039
0.57210004 -0.014811131 0.031913731 11382182
0.56557149 -0.0059265234 0.037612129 13289921
0.574 -0.0092202798 0.0308802 11251108
0.55800003 0.0093247639 0.037205186 10856093
0.56400001 0.0050735786 0.038736105 10724508
0.55837506 0.014070714 0.038046766 10987679
0.56 0.013291095 0.039303817 11053472
0.5 -0.08060316 0.04153049 15394786
0.45900002 -0.071844652 0.048870265 15789544
0.46092305 -0.076298982 0.048867926 15723751
0.49881822 -0.074362606 0.044139504 15592678
0.5005601 -0.075582437 0.042161513 15592935
0.45875001 -0.069120958 0.048843358 15789544
0.46366668 -0.063890703 0.04990986 15592935
0.47225004 -0.061199259 0.049449656 15723751
0.48488235 -0.063075624 0.046513274 15592935
0.49459457 -0.064462014 0.042870302 15592934
0.50150001 -0.069104761 0.040479306 15658728
0.47687504 -0.057052113 0.049235828 15526886
0.48357153 -0.054599978 0.047257841 15264227
0.49369228 -0.055622581 0.043979663 15395811
0.50404543 -0.054701898 0.041541483 15461349
0.51033336 -0.052400693 0.040596742 15263970
0.48447824 -0.046388716 0.048595574 15132384
0.49444446 -0.045109835 0.046571907 15198433
0.50473911 -0.044168767 0.044103362 15132383
0.51187503 -0.043271344 0.041765817 15000798
0.49600005 -0.038155947 0.049128447 15132641
0.5055334 -0.035057411 0.047429539 14935005
0.51365721 -0.035320707 0.043224711 14935005
0.52410001 -0.033076905 0.041445125 14935005
0.53375006 -0.031060386 0.040581442 15000798
0.50816667 -0.028782861 0.049147401 14606297
0.51337504 -0.025412938 0.047797486 14671833
0.5242222 -0.023414131 0.046473108 14671833
0.53549999 -0.024834935 0.043283246 14803419
0.54371434 -0.023093099 0.04152317 14737626
0.55200005 -0.020497069 0.040034577 14803419
0.51750004 -0.018609677 0.049647182 14606040
0.52545458 -0.016938595 0.048617519 14606040
0.53492308 -0.015241701 0.046879947 14606040
0.54533333 -0.014969898 0.044229671 14671833
0.55386364 -0.014314369 0.042052448 14671833
0.56 -0.010743356 0.041051775 14671833
0.53525001 -0.0089097731 0.048525039 14408661
0.54399997 -0.0051316563 0.04815359 14474455
0.55412501 -0.0071218507 0.045532066 14540247
0.56494993 -0.0045629479 0.042496156 14540503
0.54575002 0.002095243 0.049802169 14342870
0.55540001 0.0012193166 0.048859127 14342868
0.56497437 0.0048524365 0.043922845 13618888
0.55900002 0.019156191 0.04054226 11053472
0.56155187 0.014981288 0.045173571 13027007
0.56148851 0.024791801 0.045127943 11776940
0.56314284 0.031258088 0.047435373 11053472
0.43300003 -0.080952607 0.059786439 15657958
0.44675002 -0.08169084 0.055669721 15526629
0.45490915 -0.081075341 0.053410646 15329248
0.46000001 -0.080616117 0.050592039 15263200
0.43602866 -0.075392775 0.058887679 15461349
0.44448581 -0.074209504 0.056131799 15592677
0.454907 -0.075189114 0.052621979 15658214
0.46000001 -0.078462385 0.050592039 15657958
0.43584621 -0.065474398 0.059194282 15395556
0.44471753 -0.065550864 0.056007542 15461605
0.45441031 -0.064601168 0.052122775 15527142
0.46439999 -0.060944993 0.050420482 15527397
0.43625 -0.057553861 0.059466932 15263970
0.4457778 -0.054582834 0.057506483 15132384
0.45450008 -0.054914046 0.054147657 15198177
0.46434787 -0.055142704 0.051822495 15395555
0.47400004 -0.053597406 0.050709892 15395811
0.44853857 -0.045567945 0.058861658 14869213
0.45296878 -0.045587331 0.056073844 14935006
0.465 -0.048209459 0.053470261 15132384
0.47557145 -0.045249999 0.052817147 15000798
0.48121428 -0.04377383 0.051072828 14935005
0.44900003 -0.037928358 0.059426241 14737628
0.45327279 -0.035873249 0.058098074 14737628
0.46360001 -0.032636255 0.058575213 14606042
0.47547501 -0.034632459 0.054957621 14803419
0.48438889 -0.03631993 0.051631656 15000798
0.495 -0.035179667 0.050382107 15132384
0.5025 -0.031792514 0.050952196 15066591
0.46650004 -0.028241538 0.059495807 14540249
0.47504264 -0.025891993 0.056805082 14737627
0.48156253 -0.022890165 0.054791875 14737626
0.50625002 -0.024472795 0.052416828 14671833
0.51066673 -0.022281829 0.050717991 14540247
0.47775003 -0.019416742 0.058694668 14671835
0.48499992 -0.016328795 0.058040921 14671834
0.4955385 -0.013314745 0.056320615 14606040
0.5054546 -0.016081661 0.054083213 14540247
0.51361543 -0.017032189 0.051673871 14408662
0.52375007 -0.012854308 0.050705913 14540248
0.49557891 -0.0067320457 0.058038443 14540248
0.50380003 -0.0050287191 0.056702226 14408663
0.51457149 -0.0032702696 0.055386316 14277077
0.52525002 -0.0059793256 0.052845448 14474456
0.53400004 -0.0026321523 0.052794524 14342870
0.49900001 0.00016163554 0.059554037 14408663
0.50379169 0.0047419271 0.058795422 14211284
0.51321435 0.0048895776 0.057214554 14079698
0.52477777 0.0058919536 0.055529967 14277077
0.53563643 0.0038772067 0.053888932 14277077
0.54321432 0.0059940559 0.052020986 14277077
0.55199999 0.0076127062 0.050694987 14342870
0.50700003 0.012036309 0.05932191 14145491
0.51437145 0.015686026 0.057698507 14211284
0.52300006 0.013502548 0.054933086 14342870
0.53462499 0.012685038 0.054103997 14211284
0.54400003 0.011001078 0.053463016 14342870
0.55583334 0.012982682 0.052024316 14277077
0.56187505 0.017858004 0.051847056 14474455
0.51557148 0.022584761 0.058510035 14277077
0.52200001 0.024815714 0.057003632 14211284
0.55779999 0.02630176 0.05664758 14277077
0.56165725 0.025426472 0.052678451 14408662
0.54500002 0.032072905 0.057388861 14211284
0.5618462 0.031344719 0.052583613 13684938
0.41300002 -0.080596812 0.06862586 15197407
0.42550004 -0.080546528 0.064721636 15000029
0.43066666 -0.080852307 0.06231913 15263199
0.41530192 -0.075108044 0.06801264 15526885
0.42400008 -0.07479424 0.064197637 15395555
0.43078262 -0.075321339 0.061276857 15395554
0.41582605 -0.065295383 0.068392597 15592935
0.42395952 -0.065053813 0.064092711 15395812
0.43057138 -0.064012118 0.060818613 15329763
0.41600001 -0.055340428 0.069059603 15263970
0.42443427 -0.055228602 0.065322414 15198177
0.43291673 -0.053872518 0.061373379 15198177
0.41850001 -0.048360381 0.069295719 15328993
0.42451471 -0.045195211 0.067312598 15132127
0.4332433 -0.04470307 0.063678332 15066591
0.44461912 -0.043568477 0.061337333 14935006
0.42591679 -0.035834447 0.068774194 14935005
0.43372226 -0.035825212 0.066164762 14869212
0.44506389 -0.035186175 0.06306272 14737627
0.45228574 -0.03199216 0.061235834 14606042
0.46000001 -0.030003307 0.060283855 14671835
0.42714286 -0.028574226 0.0695474 14803419
0.43427777 -0.025100578 0.068343639 14606040
0.4445 -0.024708716 0.066250987 14474455
0.45507503 -0.024883401 0.063146919 14540249
0.46445003 -0.02436189 0.061026581 14606042
0.43389475 -0.014609222 0.069476984 14605528
0.44617397 -0.014847355 0.067820005 14474456
0.45500007 -0.015454155 0.065213569 14474456
0.46450004 -0.015891658 0.062769525 14474456
0.47512507 -0.014163178 0.061708558 14540249
0.4827778 -0.012773583 0.060879271 14606042
0.4379546 -0.0045172963 0.068904385 14277077
0.44350004 -0.0074447528 0.067772113 14474456
0.45566669 -0.0090963012 0.066470578 14342870
0.46527272 -0.0080634961 0.065327443 14540249
0.47403455 -0.0045934701 0.064373225 14474456
0.48388889 -0.0057612224 0.061897952 14342870
0.49425003 -0.0015745974 0.06072066 14342870
0.43872738 0.004810953 0.068606302 14079698
0.47577778 0.002390566 0.065566815 14145491
0.4835 0.0055960873 0.065057427 14145491
0.49482137 0.0047122245 0.062193897 14211284
0.50128573 0.0068730712 0.060663573 14408663
0.4390001 0.012381255 0.069303684 14013907
0.44060001 0.016131872 0.068571463 14145238
0.46900001 0.014425104 0.069148883 14211031
0.47647366 0.015652863 0.066843271 14211285
0.48295835 0.014760005 0.064842843 14211284
0.49490917 0.01395891 0.063064888 14277077
0.50485718 0.014579074 0.061488345 14408663
0.51050007 0.018689837 0.060926527 14277077
0.47775006 0.02084584 0.06652303 14145492
0.48393336 0.023880163 0.064245649 14211028
0.49450001 0.024936344 0.062136382 14277077
0.5049091 0.023154261 0.06186967 14145491
0.51200008 0.023740286 0.060704838 14079698
0.39853847 -0.083625145 0.078998022 15986921
0.40315223 -0.082155168 0.07509692 15789543
0.41100001 -0.080688171 0.07021901 15197407
0.39790905 -0.074561499 0.07945586 15921384
0.40364802 -0.075147614 0.074918732 15855591
0.41100013 -0.074711673 0.070623145 15657958
0.39806893 -0.065680712 0.079190917 15855593
0.40394011 -0.064894788 0.074621156 15789543
0.41105276 -0.064896636 0.070682652 15592935
0.39899999 -0.055214178 0.079377599 15855335
0.40436471 -0.055131927 0.075541317 15657958
0.41176918 -0.054288354 0.070941642 15329506
0.39900002 -0.047508132 0.079377607 15986664
0.40407458 -0.045003012 0.076283336 15789541
0.41431117 -0.04488837 0.071704507 15395042
0.41999999 -0.041159511 0.070773423 15198179
0.40406504 -0.035147525 0.077398822 15526371
0.41482148 -0.035014853 0.073498301 15131871
0.42141679 -0.03401934 0.07101018 15000542
0.40477204 -0.025302978 0.078338191 15066078
0.41429621 -0.024540391 0.074868172 14737627
0.42304647 -0.024940336 0.07160157 14737370
0.40546167 -0.016104523 0.078854129 14803163
0.41506976 -0.01563601 0.075944908 14606042
0.42428073 -0.015318792 0.07251215 14606041
0.43062502 -0.012206748 0.070672274 14539992
0.40711123 -0.0049459701 0.079082444 14474198
0.41373533 -0.0051680445 0.077090532 14474455
0.42421761 -0.0057327934 0.074519426 14474455
0.43279999 -0.0054729674 0.071622424 14408663
0.40869999 0.0035785984 0.079298034 14342870
0.41375473 0.0050156638 0.077644736 14277077
0.42442498 0.0050773779 0.075186312 14211284
0.43422735 0.0044858498 0.072053924 14145491
0.41591179 0.014628789 0.07869979 14145490
0.42375517 0.015318766 0.07601174 14145491
0.43465388 0.014797997 0.072488315 14079956
0.44000003 0.018168364 0.070023388 14079702
0.41726673 0.024236256 0.079428904 14474198
0.42455551 0.025095722 0.075920723 14342870
0.4314 0.02215982 0.072483256 14211541
0.44000003 0.021773532 0.070023388 14079702
0.42520007 0.033012472 0.077489331 14342613
0.4314 0.034879509 0.075718537 13421510
0.39598596 -0.082939282 0.084410109 14473683
0.39425603 -0.074940026 0.084973834 15526113
0.39347762 -0.064968452 0.085082777 15658212
0.39376581 -0.054970026 0.084814511 15658213
0.3943449 -0.045000613 0.084926955 15855334
0.39454758 -0.035039749 0.085181653 15394783
0.40000001 -0.032644685 0.080512956 15526626
0.38864285 -0.024114853 0.089469202 8813428
0.39428061 -0.024869403 0.084889576 15131611
0.40000007 -0.025153426 0.080512948 15263455
0.38900003 -0.018997772 0.08922673 9141623
0.39423141 -0.014849459 0.085412644 14605525
0.40061542 -0.013068533 0.080635741 14737626
0.39528725 -0.0054120538 0.086767122 14671319
0.40202072 -0.0045713708 0.081718169 14539990
0.39517424 0.0046593989 0.087318949 14473684
0.40318462 0.0041929861 0.08236143 14408148
0.39626676 0.014739316 0.087873049 14539734
0.40363634 0.014730519 0.083301201 14408149
0.41192859 0.016252343 0.080364592 14408149
0.39661545 0.024984678 0.08829096 14868955
0.40350002 0.024923692 0.084451936 14737113
0.41385716 0.025194122 0.081082612 14671063
0.39678568 0.034827489 0.088621438 14473941
0.40482351 0.032355249 0.085037649 14671577
0.41419235 0.032684851 0.081869118 14473684
0.42000002 0.034549009 0.080605693 14803419
0.39650002 0.040505141 0.089554131 11118498
0.39299998 -0.081952572 0.094562449 13815241
0.38853663 -0.073239841 0.097704202 15131099
0.39141664 -0.075952441 0.093703993 14867926
0.38769004 -0.064850301 0.096061766 15460064
0.39021435 -0.065972999 0.091364488 15459807
0.38739684 -0.055195455 0.095197313 15394527
0.39000005 -0.054653488 0.090369098 15592163
0.38767269 -0.045467652 0.095564649 15460320
0.39031819 -0.043233369 0.09114854 15657699
0.38814434 -0.034985036 0.096304409 12434099
0.39045161 -0.035965223 0.091652155 14210254
0.38507199 -0.025096364 0.094868131 2896429
0.38521665 -0.015434315 0.094943427 3882298
0.39000002 -0.011286134 0.090369098 10724254
0.38813961 -0.0057452768 0.096738935 13026492
0.39106119 -0.0045056767 0.092088096 14144974
0.38813257 0.0048308591 0.096938491 13881545
0.39101967 0.0045976816 0.092110403 14210767
0.38760257 0.014585001 0.097021028 14473682
0.39180019 0.014872948 0.092122696 14605269
0.38780883 0.024332708 0.097454026 14934233
0.39191997 0.025181336 0.092594236 15000539
0.38859999 0.032330979 0.098595038 14999769
0.39307147 0.03550766 0.094469689 14671319
0.39332008 0.041303195 0.096281499 12698044
0.38866666 -0.081383668 0.10708031 13946826
0.39063159 -0.081840016 0.10273864 13881033
0.386325 -0.074818656 0.10514802 15065047
0.39000002 -0.079304412 0.10086856 14867926
0.38372514 -0.06500341 0.1050748 15525854
0.38349268 -0.055019803 0.10502998 15328475
0.38385978 -0.044998944 0.10507491 15196891
0.38416049 -0.034856595 0.10495839 11118239
0.37805209 -0.023969509 0.1068041 2567720
0.38125005 -0.025832145 0.10238126 2699051
0.37820911 -0.01640805 0.10657148 2567211
0.38142031 -0.013498969 0.10333679 4277314
0.38493311 -0.005357387 0.10508659 12631735
0.38474435 0.0049046357 0.10521593 13487044
0.38339713 0.015094629 0.10486346 14210510
0.38313344 0.025206082 0.10494537 14737367
0.38523012 0.035012744 0.10519394 14539733
0.39000002 0.0393852 0.10041206 14671063
0.38796151 0.04110023 0.10480606 13223873
0.39000002 0.041211192 0.10071639 12565687
0.38548285 -0.080875643 0.11514486 13946826
0.38292366 -0.074705467 0.11490243 14736597
0.38115725 -0.065014645 0.11508729 15197147
0.38130593 -0.055219937 0.11513126 15131097
0.38163444 -0.044870939 0.11514406 14539217
0.37873337 -0.030849928 0.11583301 2500387
0.38179633 -0.03555711 0.11475024 10789017
0.37566441 -0.024733128 0.11511038 2370341
0.37624016 -0.015239254 0.11518749 2765613
0.38022226 -0.010755809 0.11253092 9344912
0.37900001 -0.0096369386 0.11976107 9410444
0.38203099 -0.0051565734 0.11501448 11711147
0.3786 0.0070542335 0.1176445 12895420
0.38128847 0.0040691802 0.11382747 13158337
0.37781364 0.015606776 0.11607809 13684422
0.3804571 0.014321779 0.11156867 14078924
0.37673438 0.02512587 0.11530022 14408659
0.38000005 0.023252347 0.11029161 14605524
0.37734631 0.033115514 0.1163545 14474451
0.38153118 0.036831003 0.11346747 14145487
0.38246667 0.040713858 0.11512055 12500665
0.38500002 -0.080691136 0.1213566 13815755
0.38263628 -0.074667118 0.1216149 13816265
0.38146552 -0.065022394 0.12248141 13355457
0.38079447 -0.055158544 0.12285486 13552836
0.3810001 -0.044490743 0.12354257 13158079
0.37543902 -0.031674147 0.12474344 4540225
0.38113788 -0.036829144 0.12381951 10394515
0.37208125 -0.025125071 0.12509419 2041120
0.37301999 -0.015244239 0.12519069 3028785
0.37871432 -0.0060808021 0.12486394 10264214
0.38073033 -0.0046538757 0.12423281 10328980
0.3776688 0.0052663409 0.12507097 11842476
0.38000003 0.00041961813 0.12111491 11710889
0.37503609 0.014946521 0.12483878 12894908
0.37219253 0.024808245 0.12438468 13553095
0.3744382 0.035152219 0.12382278 13619400
0.37100002 -0.031146463 0.1302609 2305061
0.37100002 -0.028540909 0.1302609 2436392
0.37100002 -0.01377611 0.1302609 1910050
0.37800002 -0.00076246343 0.13006394 9013641
0.38100001 -0.0056741177 0.13020426 9012866
0.3777222 0.0035583158 0.13080344 9605515
0.36600003 -0.031338539 0.14668486 1383189
0.36535126 -0.025001004 0.14675008 857358
0.36444458 -0.016093055 0.14673121 1711125
0.36498296 -0.032174058 0.15586704 2237470
0.36612278 -0.025249558 0.15521531 791307
0.36565804 -0.015916115 0.15539975 2037777
0.36283338 -0.032584891 0.16429907 1909789
0.36260197 -0.024866816 0.16507643 1317907
0.36379793 -0.016696863 0.16479918 1513232
0.34565628 -0.033125926 0.17799678 1778203
0.35419056 -0.032101247 0.17525849 989200
0.36179417 -0.032393422 0.17221439 1581080
0.34587377 -0.025150664 0.17797457 1581337
0.35495898 -0.024900781 0.17491756 989201
0.36068076 -0.025125172 0.17172919 2041630
0.34710002 -0.016969856 0.17843953 1449752
0.35426173 -0.0167323 0.17596376 923153
0.36076474 -0.017867118 0.17197362 1646618
0.33853662 -0.033253849 0.18860328 1646873
0.34162948 -0.033679899 0.18380053 1712410
0.33841786 -0.024981555 0.18843055 1581080
0.34164241 -0.024996785 0.18349445 1581081
0.33833849 -0.016523883 0.18727379 1514520
0.34214869 -0.017444532 0.18250945 1449496
0.33758333 -0.03275523 0.19077344 1515543
0.33749995 -0.02516989 0.19079234 1581337
0.33800003 -0.017873792 0.19103907 1515288
