# .PCD v0.7 - Point Cloud Data file format
VERSION 0.7
FIELDS x y z rgb
SIZE 4 4 4 4
TYPE F F F U
COUNT 1 1 1 1
WIDTH 650
HEIGHT 1
VIEWPOINT 0 0 0 1 0 0 0
POINTS 650
DATA ascii
0.54800004 -0.098602533 -0.010287766 14935259
0.5533182 -0.095372178 -0.012096232 15001052
0.56342858 -0.091576695 -0.013409709 15066845
0.57500005 -0.091344438 -0.01685437 15198688
0.56660002 -0.088151038 -0.011169765 15066845
0.57565516 -0.085172608 -0.013551103 15198430
0.58176482 -0.083768301 -0.017171474 12895160
0.57800001 -0.079195134 -0.011302781 15395808
0.58345705 -0.075555161 -0.013960352 13093053
0.58400005 -0.069535717 -0.010963605 12829111
0.50700003 -0.10190885 -2.2891796e-05 14869723
0.51459998 -0.10126494 -0.00050688925 14803930
0.523 -0.10083849 -0.0012479667 14803930
0.53633338 -0.10131758 -0.0042134677 14935516
0.54366666 -0.10121612 -0.0072395653 14869723
0.51900005 -0.09946093 -2.3433615e-05 14869723
0.52574998 -0.098598413 -0.00033216749 14935516
0.53587502 -0.095211692 -0.0014914285 14869723
0.54466671 -0.094763793 -0.0060141771 14869723
0.55180001 -0.091794707 -0.0088093495 14935516
0.53833336 -0.088042207 -2.4306542e-05 14803673
0.54487997 -0.08640521 -0.002377138 14869466
0.55410528 -0.084543556 -0.0046038032 14869722
0.5636 -0.083550811 -0.0071530659 15001308
0.57250005 -0.081789196 -0.0089619039 15132893
0.55587506 -0.07822004 -0.00067824253 14737880
0.56471431 -0.076234818 -0.0027999384 15132636
0.57507408 -0.074602999 -0.0059147533 15396065
0.58172727 -0.072729379 -0.0085694911 14803672
0.57600003 -0.065403238 -0.002074549 15461858
0.58150005 -0.067538463 -0.0073454482 13289663
0.5776667 -0.058864281 -0.00047711856 15659237
0.58360004 -0.056643389 -0.0016692769 12632760
0.59300005 -0.053944543 -0.001413828 11842986
0.60000002 -0.054585468 -0.0028363124 11909036
0.59500003 -0.049255423 -2.6865126e-05 11974574
0.48400003 -0.11031352 0.0079048341 14802646
0.48659089 -0.10707155 0.0074832272 15001051
0.49390909 -0.1031939 0.0060322806 14935515
0.50325 -0.10183924 0.002526256 14803930
0.51000005 -0.10012402 0.0011708919 14803673
0.49705887 -0.097030632 0.008326591 14738137
0.50451612 -0.095195137 0.0061825048 14474965
0.51312506 -0.094653942 0.0038023479 14672087
0.52409995 -0.093808763 0.0020603102 14869723
0.5316667 -0.091929674 0.0012206356 14869723
0.5071429 -0.088196114 0.0091354987 14277586
0.5135715 -0.087599076 0.0072717583 14606551
0.52622229 -0.086054958 0.0053153224 14869723
0.53489292 -0.084567167 0.0036845228 14803930
0.54288894 -0.081863828 0.0019507868 14935259
0.52640003 -0.076724909 0.0090940297 14672344
0.53622222 -0.07779105 0.0072256615 14869723
0.54560864 -0.076289155 0.0055262232 15066845
0.55404556 -0.073862463 0.0038057414 14803673
0.56199998 -0.071423344 0.0020397371 14803671
0.55666667 -0.068159461 0.0080836322 14869723
0.56408834 -0.06537459 0.0057148444 14803673
0.57294118 -0.062927298 0.0026550093 15527395
0.56741667 -0.056709573 0.0083854618 15264222
0.57527596 -0.055401128 0.0050752652 15658980
0.58300006 -0.051867701 0.0042610839 15790053
0.57709098 -0.047708597 0.0084471516 15461858
0.58355552 -0.0441835 0.00588845 14014156
0.59219998 -0.046945982 0.0016358523 11842730
0.58404338 -0.03601202 0.0078206183 12106158
0.47714704 -0.1128943 0.016235104 14538956
0.48040003 -0.11196838 0.01133646 14737365
0.47503927 -0.1051916 0.017110305 14605005
0.48239478 -0.10485965 0.011801653 14803671
0.46849996 -0.093388304 0.019015169 15066071
0.47337151 -0.095999427 0.016496984 14540242
0.48484209 -0.095721185 0.012877241 15066843
0.49250001 -0.094735824 0.011435436 15132893
0.50150001 -0.090823561 0.010543541 14738137
0.46784997 -0.085659638 0.018980104 14211278
0.47356522 -0.084724076 0.016892575 14606549
0.4822 -0.084734738 0.015328752 14803928
0.49500003 -0.086893626 0.013879492 14672343
0.50444007 -0.084996842 0.012162876 14409172
0.51100004 -0.080580875 0.011340229 14540758
0.46850002 -0.079363257 0.019720651 14211536
0.4718889 -0.077664934 0.019003106 14606550
0.48750001 -0.074593142 0.019379174 14474965
0.49433336 -0.076204665 0.018110426 14606295
0.50451344 -0.074753776 0.015261856 14343380
0.5116924 -0.074934654 0.011953546 14540758
0.53800005 -0.073504597 0.010681184 14606551
0.54449999 -0.071838021 0.010811987 14803930
0.49616671 -0.067592628 0.019529 14145746
0.5041765 -0.067317903 0.017329825 14343381
0.51289999 -0.064420678 0.016189797 14474966
0.52366668 -0.063575514 0.015913226 14606297
0.537 -0.063939512 0.015061272 14540758
0.54666668 -0.065948099 0.012770542 14540758
0.5541876 -0.064278081 0.01124288 14869722
0.56 -0.060123228 0.010462476 14606292
0.51450002 -0.058244668 0.019248031 14738137
0.52600002 -0.05606243 0.019265458 14540502
0.53400004 -0.056430168 0.018190684 14474711
0.54489481 -0.05454221 0.016485984 14343124
0.55394995 -0.055066366 0.013391947 14408915
0.56150001 -0.05436267 0.011310148 14803671
0.54476476 -0.0461841 0.018127102 14080208
0.55440009 -0.046287052 0.015934156 14474708
0.56850004 -0.047062278 0.012616999 15461601
0.57500011 -0.045188032 0.011993325 15527394
0.58222228 -0.041305948 0.013301647 15527651
0.57600003 -0.037569359 0.018851964 15132893
0.58395725 -0.035207685 0.014836106 15001307
0.58348483 -0.026471218 0.016362553 13422276
0.58133334 -0.018411085 0.01857236 10527128
0.47435713 -0.1115293 0.02401064 13157046
0.46900001 -0.10085832 0.023584478 12958639
0.47150001 -0.10537589 0.025412867 13025202
0.46634251 -0.094973579 0.024829691 13353911
0.47000003 -0.099973097 0.020884071 13748669
0.45736361 -0.083920866 0.027910966 14736849
0.46304005 -0.0851807 0.023212759 14934743
0.45530775 -0.075722881 0.027985994 15001306
0.46392593 -0.076072156 0.024026338 14474708
0.47382763 -0.072972909 0.022847043 14146000
0.48466668 -0.071511321 0.020777671 14672345
0.45500004 -0.069087058 0.029535979 14738137
0.46700001 -0.067630559 0.029496811 14474965
0.47561377 -0.065484568 0.027176844 14014414
0.48334616 -0.064773284 0.023778588 14409171
0.49300003 -0.063461378 0.022137346 14146001
0.50600004 -0.062020559 0.020114589 14277586
0.47485715 -0.058763254 0.029196138 14014414
0.48677778 -0.056687441 0.027709721 14869721
0.49395835 -0.054814611 0.027098777 14606807
0.50428569 -0.055205852 0.023865983 14146000
0.51338887 -0.055045962 0.021876523 14474965
0.52483338 -0.051842343 0.02188511 14474965
0.53400004 -0.051076595 0.020598501 14343379
0.50728571 -0.047503151 0.02763154 14146770
0.51428574 -0.045575906 0.026203703 14080464
0.52400005 -0.045835249 0.024137987 14146000
0.53535002 -0.045440037 0.022028802 14146000
0.54185712 -0.043309562 0.020452755 13882828
0.52500004 -0.039159048 0.027015053 14211793
0.53800005 -0.036350295 0.027683998 14606551
0.54533333 -0.038972981 0.020826824 14014413
0.56100005 -0.035277683 0.022300959 14343377
0.57866669 -0.032324616 0.021648578 14803928
0.58324999 -0.033263639 0.020454647 14935514
0.55416667 -0.026631003 0.028730093 13554120
0.5636 -0.023554893 0.027940353 14211537
0.57605559 -0.023111608 0.024318106 14738137
0.58131248 -0.024991399 0.021066617 15067100
0.5686667 -0.018453423 0.028818006 14672344
0.57623249 -0.014964198 0.025848549 14474964
0.58025002 -0.016790865 0.020349437 10921884
0.57741672 -0.0072453055 0.028360918 14474708
0.58100003 -0.0025320661 0.029896658 15067102
0.47114286 -0.10400101 0.034528624 12499113
0.45900005 -0.090111606 0.036513206 12169380
0.46508008 -0.09508384 0.035210524 12169380
0.47000006 -0.09997309 0.035187688 12235685
0.45470592 -0.084912598 0.034806792 13156789
0.44641423 -0.074300803 0.035503652 14473934
0.45066664 -0.077047721 0.031453274 14868692
0.43863639 -0.062403109 0.039280143 14869464
0.44397363 -0.065223783 0.034934334 14869465
0.45300001 -0.066663571 0.0307335 14869723
0.46766672 -0.062618226 0.031728551 14277586
0.47100002 -0.062700018 0.031072605 14277586
0.43750009 -0.056305036 0.039182547 14803929
0.44305557 -0.056092288 0.037255634 14540758
0.45648393 -0.053587187 0.036033716 14146000
0.46272412 -0.05472834 0.032509323 13948365
0.47000003 -0.057795759 0.030786579 13882574
0.48700002 -0.053425811 0.030760057 14080207
0.45696878 -0.045210812 0.03828647 13817292
0.46344182 -0.045135953 0.033757955 14080721
0.45733336 -0.038215291 0.039235104 13751242
0.46225002 -0.039347339 0.036229208 13883598
0.49700004 -0.031688269 0.037933651 13883598
0.50333333 -0.030866375 0.035718378 14146513
0.49833336 -0.027253462 0.038863759 13620428
0.50345004 -0.026238104 0.037215725 14146258
0.51566672 -0.021556051 0.037798207 14146257
0.52650005 -0.023259535 0.035095014 14146000
0.55425 -0.022361839 0.031436794 13751242
0.56099999 -0.021486744 0.030180823 13553863
0.51800001 -0.018628243 0.039387647 14146515
0.52422225 -0.017554563 0.038291253 14080464
0.53275001 -0.018850544 0.036139406 13948621
0.54633337 -0.013031836 0.037068762 13816778
0.55510008 -0.014767593 0.034927741 13487814
0.56438464 -0.013634955 0.033097222 13751242
0.57125008 -0.01151537 0.031065851 14409171
0.54700005 -0.008786574 0.039671946 13619399
0.55700004 -0.0068951366 0.038719706 13619399
0.56540006 -0.0055869971 0.036234319 13882828
0.57431823 -0.00427084 0.03260424 14474964
0.56700003 0.0011815209 0.039462689 13882828
0.5762223 0.003638437 0.036641784 14409172
0.58121425 0.0062152175 0.034766804 14737879
0.57900006 0.011031145 0.039281894 14343125
0.58271438 0.013441422 0.037875775 13487814
0.44550002 0.078884453 0.035439283 13092281
0.47126672 -0.1028927 0.044587206 12235943
0.45900002 -0.090111606 0.040811311 11840672
0.46526229 -0.094710357 0.044975016 12103844
0.47000006 -0.09997309 0.045090199 12432809
0.44900003 -0.080790579 0.046228878 12235430
0.45457381 -0.084895059 0.044710346 12038051
0.46000001 -0.089231059 0.048976738 11906465
0.43900004 -0.070769578 0.046740841 12959153
0.44441667 -0.075514622 0.044931311 12630445
0.42900002 -0.060118839 0.049191169 13750211
0.4350549 -0.065030672 0.044681009 14210248
0.44000003 -0.069900736 0.040152002 14737360
0.42707327 -0.054388367 0.048137184 14605778
0.43261179 -0.054997753 0.043186519 14869207
0.42597884 -0.045289528 0.047969248 14606551
0.43278128 -0.046401374 0.043981213 14540758
0.44400001 -0.043496974 0.043430649 13949391
0.45318186 -0.042866323 0.041497711 13751755
0.42646158 -0.036951061 0.048552372 14080464
0.43400002 -0.033652954 0.047795851 13751756
0.44800001 -0.036562048 0.046125919 13686219
0.45355558 -0.037897751 0.042563811 13685962
0.49200001 -0.030938715 0.041441899 14211793
0.43721431 -0.027195113 0.049034622 13488842
0.49543479 -0.025754387 0.042583752 13948365
0.50483334 -0.021298928 0.042328168 13488072
0.49349999 -0.012259247 0.049364418 13685448
0.50712502 -0.014087558 0.047016643 13488071
0.51462865 -0.014286613 0.044062681 13685708
0.5231111 -0.013296089 0.040796194 14014930
0.50349998 -0.0036668123 0.048892252 13356230
0.51662511 -0.0075388481 0.045172509 13619659
0.52346158 -0.004914592 0.044565018 13619659
0.53371429 -0.0021443933 0.04405861 13554122
0.54540002 -0.0049365861 0.042103864 13422535
0.55363637 -0.0041717677 0.04074128 13422020
0.50457144 0.0026964215 0.049419183 13027265
0.52000004 0.00016843785 0.047452368 13356230
0.53800005 0.0016875025 0.045568906 13422023
0.54580003 0.0050383089 0.046398994 13158851
0.55292314 0.0058576912 0.044580247 13290437
0.56353337 0.0051138154 0.042363212 13619401
0.57424998 0.0074147815 0.040807281 14014414
0.55495006 0.014413382 0.048042603 13224644
0.56341183 0.015779875 0.045900792 13422023
0.5758 0.015191345 0.041935813 14080208
0.58100003 0.017871467 0.040777709 14409172
0.56557143 0.022883382 0.048389558 13422022
0.57536 0.025617972 0.04560196 13816779
0.58100003 0.025010597 0.042477287 9935248
0.57738471 0.034085687 0.048944429 13158849
0.58234608 0.035319388 0.045588452 10066576
0.41723526 0.045353293 0.049047943 12961726
0.57760006 0.045615017 0.049462106 10066832
0.58149999 0.041481186 0.046936516 10132368
0.41839999 0.05126477 0.049346618 13553862
0.42390493 0.056988664 0.046450503 13685191
0.57650006 0.052147388 0.049909055 10132625
0.42612651 0.065298744 0.046266004 14408656
0.43000001 0.069093965 0.042259369 14277325
0.42721057 0.073489867 0.047613416 15000278
0.4308334 0.076194108 0.04457175 14868691
0.43225005 0.081724301 0.045887168 14342348
0.47000003 -0.10107338 0.053892426 11643806
0.46564913 -0.094351992 0.054534644 12038051
0.47000003 -0.09997309 0.053342283 11643550
0.45518187 -0.084018946 0.055002999 11709086
0.46105555 -0.088896997 0.055026788 11840672
0.43900001 -0.070769578 0.050337818 12169637
0.44424644 -0.075171821 0.055069316 11511707
0.45000002 -0.079917051 0.058446608 11643293
0.42899999 -0.060955752 0.05337574 13091509
0.43465072 -0.065673508 0.055051308 11972515
0.44 -0.069900736 0.057662822 11314328
0.41900003 -0.050870381 0.058343835 13288888
0.42361373 -0.055093873 0.054554604 13486268
0.41584527 -0.044791322 0.05632925 14145227
0.42096785 -0.044847209 0.051289015 14672087
0.40866664 -0.033608094 0.058849871 14474966
0.41391066 -0.036049623 0.056308638 14409430
0.42302513 -0.035380255 0.05211537 14343124
0.43130001 -0.030755177 0.05207894 13882830
0.40900001 -0.028591806 0.058866326 14080466
0.41133335 -0.025798686 0.058142457 13817295
0.4376955 -0.024745151 0.054832913 13554379
0.42700002 -0.012856678 0.059957601 13554379
0.43257144 -0.018091395 0.059146021 13422793
0.48725003 -0.011819403 0.051163189 13685963
0.49000001 -0.010165169 0.050450221 13619656
0.4876875 -0.006047043 0.054493703 13488073
0.49337497 -0.0031087359 0.052330095 13422023
0.49675003 0.00073679717 0.053448178 13224644
0.50392681 0.0066125654 0.054556232 12961728
0.40200001 0.017073166 0.059270471 12500918
0.50685191 0.012824059 0.056228492 12764606
0.51064295 0.017500311 0.057699092 12699070
0.54900002 0.010459582 0.051383968 12895679
0.55359101 0.016092706 0.051990937 12698300
0.4056316 0.026774086 0.057503946 13093055
0.51300001 0.020582188 0.058222532 12633277
0.53100002 0.025033612 0.059643891 12304312
0.55750006 0.024483569 0.055680521 12500921
0.56246161 0.02662201 0.053143714 12895679
0.57000005 0.029541001 0.050680716 13619656
0.4084444 0.033813439 0.058679983 13882570
0.41323075 0.037157733 0.055576511 13553606
0.55600005 0.03141981 0.059196021 12237749
0.56486213 0.034064688 0.056189194 12895679
0.57370836 0.036508974 0.052627888 13158850
0.41407338 0.045172099 0.055293646 14014157
0.56800002 0.041937444 0.059278429 12698300
0.5754903 0.044620447 0.054622978 11842990
0.41618076 0.054781701 0.055651762 14540499
0.42053336 0.05717076 0.05104189 14408913
0.57738459 0.052175898 0.054717563 10658714
0.58166677 0.056983855 0.055522192 10263955
0.41791177 0.063010357 0.057442456 14672085
0.42136768 0.065879986 0.053692643 14737878
0.58421874 0.063019082 0.055367522 10461333
0.42425501 0.074981228 0.055054501 14737364
0.42783335 0.081349082 0.055145416 14342349
0.42999998 0.082348034 0.050983563 14407885
0.46200001 -0.091483004 0.063786313 11972257
0.45630509 -0.083997123 0.065017954 11445913
0.46030772 -0.08887656 0.063473031 11775135
0.44618607 -0.073756769 0.064184949 11314584
0.45210004 -0.077751748 0.067030199 11182998
0.42900002 -0.060118839 0.060740583 11841185
0.43465379 -0.063955687 0.064243428 11116949
0.44175002 -0.068456352 0.067118309 10985619
0.41900003 -0.050870381 0.062267378 12235689
0.4246316 -0.054774597 0.064540766 11577759
0.4308182 -0.058632348 0.067555085 10919828
0.40899995 -0.04077787 0.065351054 12894130
0.41322222 -0.045439534 0.064614132 12499373
0.40521201 -0.034944855 0.064755097 13684419
0.39738098 -0.02499263 0.068421401 14014158
0.40475881 -0.025437733 0.063962549 14146002
0.41091672 -0.021588812 0.061385956 13817038
0.39724997 -0.01792662 0.068875886 14079696
0.40435559 -0.016153768 0.067285173 13750988
0.41450003 -0.016270908 0.063859373 13488586
0.42403713 -0.014051988 0.062143993 13357000
0.39518753 -0.0041025039 0.069248199 12566712
0.42536363 -0.009093063 0.064064249 12962242
0.39639476 0.0050902488 0.068451665 13093055
0.40139142 0.0065047117 0.064650826 12434870
0.48850003 0.004731413 0.061159283 13093058
0.4946 0.0050243773 0.060647957 12896192
0.50200003 0.0091731856 0.060694754 12699070
0.397111 0.015176481 0.067842118 13619655
0.40070784 0.015457377 0.063190371 12961469
0.50650001 0.01304301 0.061549414 12435898
0.51099998 0.018110985 0.061584327 12304312
0.3979643 0.023155494 0.068422616 14014412
0.40201128 0.02548955 0.064031944 13948363
0.51300001 0.020582188 0.061224889 12501691
0.52900004 0.027416121 0.063134439 12567484
0.53500003 0.02710554 0.060714729 12370105
0.551 0.029846199 0.060600463 12106933
0.40454021 0.034871746 0.064932384 14145741
0.53755009 0.034846939 0.065160207 12304056
0.5438236 0.036197402 0.062652215 12106163
0.55237496 0.035581265 0.061074167 12171956
0.40791577 0.043511018 0.06564106 13948361
0.41093937 0.047506023 0.063296892 14145740
0.546 0.041504409 0.063457511 12171956
0.5546 0.042506188 0.062812567 12171956
0.56514287 0.044226307 0.061587732 12435128
0.57400006 0.047488537 0.060980547 12500921
0.413349 0.054924197 0.064993694 13948361
0.57725 0.050863292 0.062810957 12435128
0.58282357 0.056375016 0.062414836 12040112
0.41724363 0.064031333 0.064936265 13882568
0.42000005 0.069180466 0.065037929 13948362
0.58571428 0.063558742 0.061382972 10329234
0.42214787 0.074476361 0.06475278 14145484
0.42566669 0.081186265 0.061098516 11250338
0.4585295 -0.082253516 0.072783716 10985876
0.46178573 -0.084213011 0.076426938 10985876
0.44887507 -0.071048185 0.074851051 10985876
0.45443144 -0.076102339 0.075346127 10985876
0.43778953 -0.061675858 0.074042648 10985620
0.44330001 -0.066048861 0.075011656 10920084
0.4256905 -0.053064961 0.075104989 11183256
0.43200001 -0.057846949 0.073520847 11051670
0.40899998 -0.040628653 0.073296867 11446428
0.41360009 -0.044027667 0.075031735 11249049
0.42066669 -0.048611145 0.07827168 11051415
0.39820004 -0.030944752 0.073933527 11643808
0.40385187 -0.035566889 0.073370203 11643807
0.41000003 -0.039219707 0.077726699 11380380
0.38859999 -0.02164731 0.078095667 13092284
0.39321771 -0.025045225 0.074355848 12894647
0.38741982 -0.015228319 0.076888472 13355968
0.39298043 -0.01528652 0.072002441 13685194
0.40000001 -0.011575522 0.070212476 13158594
0.38740259 -0.0053149485 0.077064186 13422018
0.3922033 -0.0054345825 0.072260454 13224642
0.38827661 0.0030483569 0.077686876 13487812
0.39167863 0.0054771299 0.073133774 13619398
0.3928661 0.01474019 0.074733272 13422275
0.39694846 0.024248853 0.074992113 13290689
0.40000007 0.029002121 0.074972548 13290689
0.40251309 0.034933746 0.075029507 13290431
0.40738377 0.044099346 0.074656636 13093051
0.41033337 0.048589904 0.075923711 12961465
0.41334337 0.054771211 0.07493227 13224381
0.41743863 0.06305898 0.074457757 13224638
0.42048499 0.067849368 0.075777203 13224382
0.42148587 0.073225364 0.074785911 13487297
0.46338099 -0.083200529 0.08456558 11117462
0.45659259 -0.074147433 0.084702238 10985876
0.46076468 -0.079037748 0.086209901 11183255
0.4467895 -0.064653546 0.084753506 11117463
0.45265219 -0.06790331 0.086553767 11051670
0.4265385 -0.051865671 0.084012039 10919829
0.43366671 -0.056276854 0.085339166 11117208
0.44066668 -0.059690561 0.087668397 11248794
0.41702628 -0.042849407 0.083763987 10722192
0.42197683 -0.047147356 0.085972913 10788242
0.40695834 -0.032185156 0.085995406 11116694
0.41369498 -0.036936853 0.085586317 10787728
0.38655555 -0.022317562 0.085373916 10788501
0.39328131 -0.026492976 0.083363824 11380124
0.40060002 -0.029130623 0.087197468 11445660
0.37876478 -0.012708843 0.08880841 2107680
0.38247165 -0.015327963 0.084260739 2961964
0.37868968 -0.0067246528 0.088389501 2238755
0.38214156 -0.0048862244 0.083826713 3553846
0.3861551 0.0046172235 0.084956035 13093053
0.389 0.010257052 0.086836256 13027516
0.39247322 0.015150661 0.084871359 12895931
0.39721736 0.023326863 0.084615722 12698295
0.40036356 0.027935799 0.085842028 12632758
0.40424997 0.034684326 0.085062943 12566708
0.40814289 0.042288259 0.083609924 12632245
0.41167858 0.046672039 0.085980497 12698294
0.41547966 0.05503824 0.084903657 13027259
0.41830775 0.062018774 0.083182149 13487811
0.42103341 0.066177331 0.085701115 13158846
0.42242858 0.072303958 0.084374346 13289920
0.46300003 -0.081866033 0.091386475 10920083
0.45848569 -0.072501764 0.094033845 11117206
0.46070004 -0.077235356 0.093377635 11182998
0.44594446 -0.061336014 0.094926096 11117207
0.45397732 -0.066814259 0.09500248 11182743
0.42900002 -0.051080175 0.09036734 10919316
0.43493187 -0.053832516 0.094141386 11050902
0.44158825 -0.058235478 0.096063159 10985622
0.41900003 -0.040734552 0.091530502 10853523
0.42422816 -0.044214688 0.094590694 10853522
0.43016669 -0.04752652 0.0974949 10853523
0.39466667 -0.03036158 0.098535128 11906722
0.40766668 -0.031362835 0.091440879 11445660
0.41498086 -0.035968177 0.09431155 11314330
0.42083335 -0.038942687 0.09833575 11446170
0.38560468 -0.023841783 0.094939657 10656914
0.39100006 -0.028582532 0.097175024 11775137
0.40400001 -0.02871516 0.091248691 11709345
0.37734196 -0.014147057 0.095534012 2173220
0.38062504 -0.018626606 0.092910796 2172448
0.37700742 -0.0054266178 0.095265768 2173219
0.38016668 -0.00076683378 0.092094481 3094831
0.37900001 0.00012276527 0.098023549 12764086
0.38464406 0.0048131384 0.094726689 12632759
0.38899997 0.010598548 0.094690658 12961466
0.39252579 0.015729792 0.094939075 12961466
0.39752176 0.022183141 0.09504474 13093052
0.40149155 0.027072869 0.094992109 13158844
0.40623409 0.034581028 0.09488903 12895672
0.41000006 0.03948532 0.097402953 13093051
0.40900001 0.040346488 0.090941787 12435123
0.41302076 0.045154154 0.095009945 12764087
0.41726986 0.053865913 0.094207548 12764087
0.42062509 0.057987589 0.096892036 12764087
0.42334041 0.065134056 0.095114984 12961466
0.42540008 0.071342669 0.095089436 12763576
0.45900002 -0.070770122 0.10098484 11249048
0.46276665 -0.073050156 0.10474222 11051669
0.44857147 -0.060911458 0.10304273 11117207
0.45518753 -0.06542062 0.10487056 11182999
0.46037501 -0.06936565 0.10681157 11117462
0.43900001 -0.051243141 0.10172316 10853778
0.44515866 -0.055297352 0.10538723 10788242
0.45000002 -0.059901346 0.10901259 10985621
0.40500003 -0.040637642 0.10948868 12037797
0.42730772 -0.041723311 0.10263254 11380121
0.4341087 -0.045556057 0.10542911 11182742
0.44075003 -0.049383808 0.10780562 10919570
0.39391664 -0.031154258 0.10532882 11840674
0.40326473 -0.035637449 0.10644116 11972260
0.41833338 -0.035774149 0.10052472 11775392
0.42275003 -0.038710795 0.10191966 11643550
0.37825 -0.020520721 0.10618364 3947832
0.38535109 -0.025110481 0.10498821 11183515
0.39080003 -0.028784048 0.10153057 11774881
0.37310332 -0.014670813 0.10511275 2041634
0.3723428 -0.0051346486 0.10514313 2304034
0.37714818 0.0009088341 0.10462014 12764344
0.38534182 0.0061554308 0.10478318 12698296
0.38899997 0.0104278 0.10385414 12237746
0.39340422 0.015533426 0.10508009 12172208
0.39778385 0.021825593 0.1045831 12369587
0.40212491 0.026775397 0.1052846 12566966
0.40739769 0.034069374 0.10453781 12829880
0.41076192 0.038734991 0.10667602 12632502
0.41438955 0.045067061 0.10470065 12764344
0.41839999 0.051617891 0.10447301 13093052
0.42111951 0.056391347 0.10542337 13356225
0.42447659 0.064711213 0.10468803 13422018
0.42600006 0.071371831 0.10198761 11053471
0.46551993 -0.071996681 0.1144528 11117207
0.45521423 -0.06250672 0.11389088 10985621
0.46266669 -0.067887574 0.11571539 11182744
0.44800004 -0.054063868 0.11413347 10919571
0.45154545 -0.057514187 0.1166933 10853778
0.40419999 -0.04055737 0.11428102 12037795
0.43800002 -0.045746174 0.11123183 11445914
0.44371435 -0.048456471 0.11528748 11380121
0.38873333 -0.031240137 0.11622275 11708832
0.39335722 -0.03380179 0.11491156 11906210
0.40332261 -0.037975084 0.11315921 12103588
0.37689656 -0.021269577 0.11586618 6711911
0.38495836 -0.026379436 0.11496107 11380636
0.36833334 -0.013195419 0.11539574 1712410
0.37154761 -0.017899694 0.11423432 2041889
0.36806628 -0.0053286147 0.11531926 2304806
0.37029997 -0.002219666 0.11111679 3686716
0.36900002 0.00011952608 0.11919266 13423047
0.37566671 0.0015918448 0.11396252 12765116
0.38604054 0.0064960951 0.11472008 12764345
0.38899997 0.01014322 0.11472509 12895931
0.39428693 0.015264224 0.11492959 12764088
0.39883336 0.020981416 0.11186782 12369330
0.40294564 0.02526545 0.11531962 12435123
0.40815628 0.031993605 0.11401614 12238001
0.41217744 0.036836553 0.11555507 12238001
0.41642681 0.044807043 0.1147087 12500916
0.42000002 0.048805811 0.11895157 12500916
0.41871431 0.050406989 0.11228675 12895674
0.42216474 0.055291295 0.11506821 12763833
0.42508325 0.064035065 0.11492147 12566453
0.46500003 -0.070606649 0.12135494 10787984
0.45866668 -0.061591875 0.12149218 10854033
0.46347627 -0.065034069 0.12506221 10788241
0.44900003 -0.051359296 0.12085818 11248535
0.45526674 -0.055442661 0.12546721 11116949
0.39900002 -0.040035602 0.12888312 12169382
0.40099999 -0.041235313 0.12565491 12103332
0.38837036 -0.031393148 0.12534398 11708832
0.39394206 -0.035702486 0.12498259 11906211
0.40000001 -0.039199535 0.12358768 12366248
0.37652776 -0.022236254 0.12468305 8948355
0.38385901 -0.027038556 0.12499817 11445917
0.3662166 -0.013594941 0.12527579 1843739
0.37111109 -0.019090876 0.12479851 2106400
0.36612064 -0.0051611168 0.12517159 2369569
0.36875004 0.0001194451 0.12385832 13027771
0.37428126 0.0023790023 0.12445787 12830138
0.38553333 0.0073955366 0.12520944 12764346
0.38838464 0.010792294 0.12590484 12895932
0.39409983 0.015872903 0.12471014 12961725
0.39899999 0.020678699 0.12701498 13159103
0.40368977 0.025088433 0.12516093 12895931
0.40900001 0.030771727 0.12158103 12566709
0.41364294 0.035143346 0.1253022 12369330
0.41760871 0.042430848 0.12401449 12106157
0.42093492 0.04724557 0.12583698 11842728
0.4246136 0.055076566 0.12471197 12171694
0.42740917 0.062697314 0.12503506 11908522
0.46375003 -0.061460696 0.13351366 11050897
0.45900002 -0.05545811 0.13134024 11248533
0.46153334 -0.057333257 0.1343901 11445398
0.39842111 -0.041450631 0.13640013 12038564
0.40025923 -0.043147188 0.13321055 12104100
0.38727275 -0.031994458 0.13410591 11775138
0.39409456 -0.037121989 0.13490978 11906980
0.37582219 -0.022857899 0.13555662 8816254
0.38189656 -0.027349079 0.13420479 11183514
0.36546293 -0.014479516 0.13302687 1843995
0.37070593 -0.016370468 0.13745746 1054225
0.36423081 -0.0044227652 0.13309908 3026984
0.37066668 -0.0070150965 0.13901424 527880
0.36300001 0.00011758257 0.13382547 11909036
0.38466671 0.0081723956 0.13224001 12830397
0.38773334 0.011565369 0.13435318 12830653
0.39312676 0.017101273 0.13469161 13027776
0.39715385 0.021478372 0.13668554 13159105
0.40376753 0.026049949 0.13507712 13356484
0.41000003 0.029887147 0.13147648 13290432
0.4084 0.03091808 0.13842048 13422020
0.41440445 0.035073142 0.134987 12961468
0.41880003 0.04052899 0.1315538 12500916
0.42278567 0.045180146 0.13515417 12434610
0.42701396 0.054208621 0.13472681 12369073
0.42999995 0.058713015 0.13757537 12368561
0.42900002 0.06073153 0.13087396 12895416
0.4300001 0.06211042 0.13477567 11776937
0.39766669 -0.041765269 0.14024335 11578529
0.38900003 -0.033568267 0.14022346 9143420
0.39200002 -0.035926372 0.14078014 9736841
0.36181822 -0.021824736 0.14905481 3028269
0.37348002 -0.021002123 0.14431533 4277054
0.37379056 -0.014894685 0.14525631 659980
0.36900002 -0.00074430957 0.14856307 2820355
0.37248516 -0.005921768 0.14573035 724489
0.36866668 0.00011941811 0.14929114 4591113
0.3926667 0.018054122 0.14154537 12172723
0.3960588 0.022221306 0.14167552 12238260
0.40320003 0.027950326 0.14238015 12566969
0.40715387 0.031367365 0.14265908 12829886
0.41415384 0.035754543 0.14235194 13159106
0.42140001 0.039596699 0.14598981 12632506
0.42526579 0.045397196 0.14513226 12632247
0.42804354 0.052335359 0.14462578 12237488
0.43025011 0.057451349 0.14499632 11448228
0.43100008 0.061750524 0.14300473 10197904
0.36071879 -0.022155238 0.15430643 2304289
0.35875002 -0.013146832 0.15846811 989201
0.36196843 -0.01498814 0.15463059 1251858
0.37237778 -0.013846621 0.15158537 594187
0.35888889 -0.0090319263 0.15896155 922895
0.363188 -0.0049848803 0.15476304 1185038
0.37108696 -0.0072850487 0.1510258 527880
0.36514288 0.000362077 0.15274397 5452847
0.42566669 0.043321077 0.15045126 11053729
0.34386361 -0.021549203 0.16782205 1646616
0.35900003 -0.020726265 0.16840506 593416
0.36118647 -0.022198144 0.16453248 1120016
0.34538835 -0.014913876 0.16823198 1186066
0.3560001 -0.014451123 0.16503938 1120530
0.36034793 -0.018332738 0.16253769 1120786
0.34492153 -0.0067640268 0.16834238 1317652
0.35690412 -0.0071587814 0.16517174 1054482
0.36039394 -0.0040747481 0.1622014 922895
0.3374902 -0.022447767 0.17763616 1252115
0.3410157 -0.023002893 0.17277187 1646359
0.35800001 -0.020836148 0.17011498 528137
0.33675176 -0.015020998 0.17742234 1317908
0.34121922 -0.015001995 0.17243503 1317908
0.35800001 -0.019998064 0.17011498 133379
0.33745283 -0.007015117 0.17766665 1186324
0.34119761 -0.0060852556 0.17320345 1251604
0.33319041 -0.022355448 0.18362069 1317908
0.33329889 -0.014642217 0.18425782 1317652
0.33388072 -0.0060694804 0.18364288 1251603
