# .PCD v0.7 - Point Cloud Data file format
VERSION 0.7
FIELDS x y z rgb
SIZE 4 4 4 4
TYPE F F F U
COUNT 1 1 1 1
WIDTH 488
HEIGHT 1
VIEWPOINT 0 0 0 1 0 0 0
POINTS 488
DATA ascii
0.51900005 -0.0046918392 -0.040118057 15526892
0.5222857 -0.0033805857 -0.043403756 15592685
0.51900005 0.0032055846 -0.040118054 15000804
0.52345717 0.0038464265 -0.044039197 14934754
0.51514286 -0.011203459 -0.031725656 15262949
0.51564151 -0.005370188 -0.034673877 15526635
0.51565576 0.0048410078 -0.034842119 14342874
0.51900005 -0.020486688 -0.022804467 14802655
0.52240002 -0.023314472 -0.021547373 14737631
0.50725007 -0.011265712 -0.021548564 15197926
0.51408166 -0.015170923 -0.02475683 15000290
0.5055117 -0.0048749968 -0.023422008 15592683
0.51087505 -0.0059650592 -0.028378548 15526891
0.50450015 0.0037028408 -0.023816176 14408662
0.51114291 0.005012257 -0.028855724 14145494
0.79473919 0.086245462 -0.025681425 11711402
0.79576677 0.095266648 -0.02518845 11974572
0.528 -0.031225299 -0.012136267 14802651
0.51816666 -0.02045379 -0.016401548 14802908
0.52434087 -0.025306387 -0.015251623 14802651
0.49687499 -0.011981473 -0.012094625 15263458
0.50430775 -0.013689167 -0.015601884 15000545
0.51318192 -0.017204337 -0.01793728 14868703
0.49503705 -0.0047771153 -0.013855253 15461608
0.50121427 -0.0055401996 -0.018796425 15527401
0.49527875 0.0040555005 -0.014272562 13882319
0.50028569 0.0036755856 -0.019932613 14276819
0.49200001 0.010525395 -0.010388242 11777970
0.52833337 -0.030956211 -0.007857291 14736858
0.5303334 -0.032728489 -0.0080930442 14802651
0.50749999 -0.021617612 -0.001411138 14671322
0.51332003 -0.024347274 -0.0034462137 14539735
0.52440006 -0.02769972 -0.0072705322 14736858
0.48647055 -0.011634131 -0.002168403 15198179
0.49438101 -0.01445634 -0.0058355154 15000543
0.50353849 -0.019242672 -0.0044694091 14671579
0.48493761 -0.0049687987 -0.0038838072 15395558
0.49033335 -0.0054551936 -0.0090777166 15527144
0.48637509 0.0027790763 -0.0034160852 13816783
0.49076664 0.0061726542 -0.0074147028 12698558
0.49172732 0.011147805 -0.0063020899 11843762
0.78900003 0.079679288 -3.5624511e-05 11382435
0.79531574 0.085711911 -0.0036691697 11514022
0.51070011 -0.031516977 0.0048797354 14605785
0.47466668 -0.020959109 0.0088674137 14671578
0.50794119 -0.024672017 0.003056468 14605528
0.51040918 -0.027806111 0.0050295093 14474200
0.47444454 -0.014334669 0.0073007597 15066338
0.48228571 -0.014121147 0.0024767593 14935009
0.49150002 -0.016526401 0.0011284184 14802909
0.5 -0.019736692 0.0011479332 14671065
0.47430143 -0.0054412037 0.0059873667 15066850
0.48025 -0.005044424 0.001243051 15132643
0.47642308 0.0019149482 0.006964176 13685196
0.48100001 0.0030713363 0.0023615763 13487816
0.7947858 0.087709181 0.0048834295 11579814
0.56846154 -0.051307455 0.016865317 15263202
0.57312495 -0.054995954 0.016411582 15328995
0.55699998 -0.043285262 0.019098626 15066339
0.56457692 -0.046794336 0.015323212 15197666
0.47410432 -0.023805134 0.016070262 14539992
0.4662728 -0.013448367 0.016419012 15132643
0.47102779 -0.017309535 0.013851863 14803165
0.46510515 -0.0055216001 0.015466074 14803421
0.4702 -0.0018286627 0.011426347 14079955
0.46433339 0.00099655427 0.017730974 13356487
0.47175005 0.0015375209 0.011846784 13553354
0.79671431 0.087920174 0.014752405 11448228
0.57500005 -0.062943578 0.02615227 15329252
0.5575 -0.050719 0.029339388 14803164
0.56640005 -0.053972431 0.025055155 15066080
0.57188237 -0.05785631 0.023674922 15328995
0.54754549 -0.042589635 0.027941292 14737628
0.55313343 -0.045448676 0.025350414 14803421
0.56150001 -0.048236612 0.022100778 14737372
0.54699999 -0.039519463 0.025156854 14671835
0.458 -0.020491816 0.028926596 14540249
0.46471423 -0.022022925 0.025246957 14474199
0.47136366 -0.024027906 0.021645904 14408663
0.44900006 -0.012017488 0.029110685 15263972
0.45518181 -0.014326857 0.025949463 15066593
0.46273082 -0.016439555 0.022141162 14869214
0.44900003 -0.0080883121 0.029060632 15066593
0.45515496 -0.0051488718 0.025252093 14277334
0.46018183 -0.0045506386 0.020643599 14211798
0.45666668 0.0007409809 0.025863759 12699072
0.46066669 0.00050817471 0.021187261 12896450
0.78875005 0.08657936 0.029046267 11448228
0.79180002 0.088116765 0.024795895 11514021
0.79539287 0.095426716 0.025293816 11579814
0.56742311 -0.063325137 0.036960758 15000800
0.57092863 -0.064828977 0.033385899 15197923
0.55549997 -0.052384201 0.035951685 14869214
0.56316668 -0.056864683 0.033981919 14869214
0.57000005 -0.05986248 0.03066501 14869214
0.54795241 -0.043499101 0.034794111 14671835
0.55108696 -0.047501009 0.03525538 14869214
0.44850004 -0.021510309 0.038695507 14606042
0.45341673 -0.023161573 0.035433855 14540249
0.46000001 -0.024080534 0.030669976 14473686
0.44481829 -0.014477062 0.035206702 15000800
0.45033336 -0.018128896 0.031959534 14803421
0.44596297 -0.0054032942 0.035375152 14146005
0.45057148 -0.0024151248 0.031321876 13750732
0.44854549 0.00062286004 0.037493493 12435643
0.45150003 0.0012919826 0.032919291 12237751
0.79075003 0.078930147 0.037913952 10987935
0.78878564 0.086385064 0.033730395 11316643
0.79040003 0.085371219 0.038821466 11382692
0.79236007 0.094864324 0.035206843 11514021
0.55900002 -0.060670178 0.048394036 14934754
0.56494123 -0.064243406 0.045676049 15000289
0.57055563 -0.068677537 0.043011773 15329254
0.55440819 -0.054894783 0.044868138 14934495
0.56 -0.058812257 0.041270271 14934237
0.55166668 -0.048466876 0.040871117 15000800
0.45055559 -0.031849526 0.047737073 14342870
0.43700004 -0.021123754 0.047107305 14540249
0.44605085 -0.025051849 0.044983946 14408663
0.45055559 -0.027161252 0.041700497 14408663
0.42900002 -0.013419045 0.049191169 15132386
0.43442097 -0.01449326 0.044858225 14935264
0.44144449 -0.018346108 0.041086528 14672092
0.43545452 -0.0063554514 0.04600944 13816786
0.4413158 -0.003986482 0.041574303 13422282
0.43900001 0.0001422004 0.047254696 11646384
0.44425002 0.00066536269 0.041832659 11777972
0.79462504 0.077689193 0.043912638 11053471
0.79456002 0.084481671 0.045202702 11119264
0.7939167 0.095200472 0.044724416 11514021
0.79516006 0.10450245 0.044638399 11579814
0.79510355 0.13503923 0.044760536 11842986
0.56700003 -0.070166275 0.051741332 15066593
0.54825002 -0.060787201 0.057730503 15132389
0.55397147 -0.064220026 0.055768207 15132387
0.56241667 -0.067405939 0.051976804 15066340
0.54690325 -0.055782162 0.05646845 14935008
0.55147624 -0.055767901 0.051675599 15066593
0.46200001 -0.040949259 0.059464406 14540249
0.4546001 -0.033917319 0.055332385 14342870
0.46000001 -0.039695121 0.059206985 14606042
0.42451072 -0.022973321 0.056152862 14540249
0.43133339 -0.022076542 0.050971795 14540249
0.44840002 -0.027988175 0.050785936 14342870
0.45000002 -0.029351063 0.05159913 14277077
0.41863641 -0.01394115 0.059495736 14803678
0.42392439 -0.015263998 0.054656677 14869471
0.42999998 -0.01898683 0.050312471 14737628
0.41900003 -0.0096731428 0.059815161 14079955
0.42496729 -0.0068873167 0.055890881 13619150
0.43182608 -0.0044226656 0.051712729 13093062
0.79414284 0.086569898 0.052547246 11185056
0.79381478 0.09524177 0.054477278 11448229
0.79656005 0.10416467 0.054270495 11514022
0.79595464 0.13559857 0.052903846 11777193
0.5516001 -0.07084313 0.06712158 15394790
0.54662502 -0.063940257 0.06513913 15066594
0.55071431 -0.068427652 0.063789614 15066338
0.53718185 -0.056072783 0.065479346 14869214
0.54346669 -0.057416122 0.062398557 14869216
0.46700004 -0.041393954 0.065131366 14474456
0.47100005 -0.044414565 0.067791589 14540249
0.41600001 -0.030055018 0.069125526 14342617
0.45866668 -0.034092721 0.06082521 14342870
0.46341667 -0.037641335 0.063996166 14540249
0.41505724 -0.023395231 0.066236921 14605530
0.42058337 -0.023494003 0.061189264 14474199
0.4087368 -0.014975178 0.069429196 14803423
0.41401953 -0.014889355 0.064522631 14803421
0.41569233 -0.0075532091 0.065655999 13355977
0.42114294 -0.0043688174 0.062606342 12369083
0.78900003 0.081526354 0.062764525 11184286
0.79306263 0.086475842 0.065644078 11184543
0.79674995 0.094640903 0.06468977 11316642
0.54850006 -0.071087211 0.073165216 15263459
0.55000001 -0.070637636 0.070790961 15395558
0.54785711 -0.06788931 0.073169708 15132386
0.49300003 -0.050621673 0.074995659 14934237
0.47387502 -0.044226646 0.071394287 14605272
0.48400003 -0.048002645 0.073626578 14671065
0.40633336 -0.031568106 0.078923896 14341847
0.41512498 -0.031145487 0.074255325 14342360
0.39781821 -0.022053136 0.079480015 14935009
0.40474659 -0.023983723 0.076313049 14671582
0.41255319 -0.026872249 0.073172592 14210774
0.39807698 -0.015820138 0.079192519 14803423
0.40400022 -0.014999713 0.074300714 14671839
0.40496767 -0.0083401371 0.075379781 12895683
0.41500005 -0.0058702854 0.071387239 12500923
0.42100003 -0.0025739437 0.071681112 10527132
0.79300004 0.078226812 0.07979057 10987679
0.79657143 0.08462128 0.075798638 10987678
0.46450001 -0.054765143 0.089688003 14605532
0.47000003 -0.057062238 0.089101337 14736605
0.39609089 -0.041935749 0.088998482 14342871
0.39650002 -0.033857185 0.086180948 14407894
0.40000001 -0.03217648 0.080512956 14276054
0.39430395 -0.024875995 0.085133657 14342614
0.40000001 -0.029367261 0.080512956 14210773
0.39379519 -0.01471457 0.085031077 14145495
0.39598212 -0.0072998679 0.086634144 11382185
0.40200001 -0.0064574089 0.080915518 10395290
0.79300004 0.078226812 0.081646994 10921886
0.79386669 0.085376948 0.08470355 10987677
0.79659998 0.094769418 0.085592367 11250849
0.48546159 -0.081668898 0.098325141 14737376
0.47625005 -0.071476206 0.099201962 14671582
0.48520005 -0.07534191 0.097124495 14868962
0.4938572 -0.073941708 0.093782954 14803168
0.4565883 -0.063674994 0.099256456 14671581
0.46611762 -0.062685244 0.09618447 14671582
0.4727222 -0.065452471 0.095950641 14671582
0.48227274 -0.06830366 0.09532512 14737376
0.491 -0.069380894 0.093656003 14605789
0.39609373 -0.052030314 0.095577367 14342358
0.45821428 -0.053713303 0.094947897 14539739
0.46335891 -0.056733344 0.09362141 14605788
0.47000003 -0.059262797 0.091301888 14605789
0.38900003 -0.041157067 0.098940395 15460581
0.39452547 -0.045166582 0.095321707 14605274
0.38836515 -0.03413675 0.097319312 12368054
0.39217395 -0.035908319 0.092888921 14210773
0.38603634 -0.024989586 0.094893366 2896431
0.39000002 -0.028633079 0.090369098 7630184
0.38607439 -0.015459242 0.095057048 2896689
0.39028573 -0.012272614 0.090696156 7566967
0.38831708 -0.0077876011 0.097315818 12501693
0.39353013 -0.0046352022 0.093803994 12303541
0.39581826 0.0020971159 0.096496344 10395542
0.79100001 0.079881258 0.090699799 10856091
0.79256529 0.085928321 0.094674774 10987678
0.79512 0.09519276 0.094897889 11185058
0.47450003 -0.090932965 0.10939308 14671582
0.45900002 -0.080709495 0.10877516 14671582
0.4646 -0.084473796 0.10906227 14737375
0.47443756 -0.085566796 0.10624455 14803168
0.48184618 -0.08253444 0.10193067 14868961
0.40566668 -0.070144393 0.1091933 14473433
0.43400005 -0.071919911 0.10798867 14539483
0.44500002 -0.073801592 0.10830349 14539996
0.45833328 -0.074424617 0.10609014 14737375
0.46183333 -0.074628502 0.1025048 14868961
0.47350001 -0.075965613 0.101404 14868961
0.48150003 -0.076495208 0.10067482 14803168
0.39753848 -0.061294325 0.1079345 14736605
0.40249997 -0.065618463 0.10815936 14539226
0.42769569 -0.065205589 0.10659014 14473946
0.43066671 -0.068283774 0.10637716 14473947
0.44700003 -0.066827044 0.1051442 14605789
0.45462972 -0.066593602 0.10214955 14671581
0.38858822 -0.052315544 0.10876998 15328995
0.39272144 -0.054222908 0.10511971 15065569
0.38694331 -0.044315059 0.10607666 15197411
0.39131254 -0.047453996 0.10203514 15131363
0.38540161 -0.035049383 0.10512463 11907759
0.37853131 -0.023388302 0.1085904 2436135
0.38170278 -0.025277831 0.10392761 2502183
0.37861115 -0.017357221 0.10890295 2567207
0.3819752 -0.014754928 0.10447302 2699565
0.38702419 -0.0056435629 0.10534623 12632764
0.39000005 -0.001091001 0.10223805 13422025
0.3888889 0.00093544048 0.10872377 13225415
0.39214513 0.0048243254 0.1046806 12237492
0.39379171 0.011382489 0.10691846 10527127
0.45488903 -0.09315899 0.11635317 14868704
0.46490911 -0.092062116 0.11217506 14803168
0.47200003 -0.091558829 0.11069293 14803168
0.4036667 -0.080665968 0.11857736 14145239
0.44647372 -0.082869597 0.11566224 14670812
0.45442551 -0.085520819 0.11329855 14802655
0.4636364 -0.0874722 0.1111753 14737375
0.47000003 -0.088970311 0.11000662 14737375
0.39425004 -0.072877027 0.11776476 14868447
0.40384611 -0.074936084 0.11506548 14408153
0.43600008 -0.073813349 0.1120295 14473433
0.44321433 -0.078119673 0.11306972 14670812
0.45475 -0.07849656 0.11109062 14671326
0.38738459 -0.064407006 0.11727767 15461351
0.3936539 -0.064876437 0.11311121 15000288
0.40189999 -0.06751962 0.111706 14605019
0.43000001 -0.068312079 0.11121405 14670812
0.38533801 -0.05478093 0.11513689 15526630
0.39133334 -0.058811098 0.11067855 15131616
0.38333049 -0.044885185 0.11526785 15131873
0.37899998 -0.03033934 0.11754295 2435881
0.38239014 -0.035092641 0.11496142 10855586
0.37632397 -0.024533067 0.11523197 2173479
0.38000003 -0.029233279 0.11073641 2501674
0.37657803 -0.015368538 0.11538978 2567209
0.38046673 -0.011098977 0.1127417 5856600
0.38390741 -0.0052162628 0.11496416 12698557
0.38710627 0.0039731958 0.11561877 13488588
0.39103854 0.0078382492 0.11204897 13356230
0.38900003 0.01014322 0.11927838 13554381
0.3933287 0.013725805 0.11655681 13027266
0.39766669 0.020609597 0.1191422 12237494
0.41872737 -0.10163226 0.12705773 14342617
0.42028573 -0.10359538 0.12887146 14408410
0.45299998 -0.10136938 0.12462918 14803168
0.39222226 -0.092308827 0.12914145 14671324
0.41643396 -0.095520265 0.12671433 14342617
0.45302284 -0.095956258 0.1229031 14737375
0.38863632 -0.083701923 0.12892583 15132387
0.39292866 -0.084458232 0.12653081 14868704
0.40337041 -0.084370561 0.1237534 14474203
0.41177782 -0.088447876 0.12508358 14342617
0.45050001 -0.089497507 0.12073405 14474203
0.38609782 -0.073985361 0.12637269 15395044
0.393383 -0.077269658 0.12303927 15066337
0.4005 -0.079564378 0.12046006 14605789
0.3830902 -0.065131836 0.12491083 15658472
0.38117069 -0.055293005 0.12489609 15198177
0.38115171 -0.044936545 0.12490068 14145747
0.37763894 -0.031853124 0.1257115 5461586
0.38111401 -0.036299791 0.12447065 10658463
0.37278852 -0.025299553 0.12503862 1975841
0.37296283 -0.015451045 0.12499189 2698534
0.37825 -0.0093960566 0.12505883 11513254
0.3824324 -0.0045249634 0.1247305 12040370
0.38470513 0.0046545928 0.12507737 13159366
0.38741466 0.013070267 0.12633988 13751245
0.39266151 0.016862193 0.12340506 13553868
0.39603636 0.022570599 0.12604538 12961474
0.40028572 0.027439643 0.12809347 12369080
0.40200001 0.030245071 0.12985216 11907759
0.40799999 -0.11161985 0.13919255 14605789
0.42500001 -0.11029985 0.13479418 14540251
0.40234488 -0.10416938 0.13740243 14605788
0.41900003 -0.10089559 0.130439 14342617
0.42212254 -0.10556597 0.13389418 14408153
0.39514118 -0.094824366 0.13533299 13947859
0.41791666 -0.098598242 0.1318136 14473946
0.38817245 -0.084264748 0.13146405 15000544
0.39164287 -0.088117912 0.13564831 12566461
0.38256401 -0.074196689 0.13167611 13684682
0.38086271 -0.065017499 0.13180028 13619145
0.38067845 -0.05472945 0.13225861 12698558
0.38105208 -0.045196623 0.13271292 11316649
0.36900002 -0.030114722 0.13128635 2896685
0.37133336 -0.030305147 0.13037559 2304804
0.38143992 -0.037202567 0.1318918 9474959
0.36899999 -0.025363628 0.13128637 1909534
0.37039992 -0.024809757 0.13061324 1712411
0.37141669 -0.015136368 0.13113032 2895656
0.37737501 -0.00926378 0.13238859 10724507
0.38173679 -0.0044209627 0.1330426 10396316
0.38385737 0.0050876625 0.1332808 11514283
0.38553748 0.014809337 0.1341791 12698302
0.38873681 0.020769879 0.13629609 13357004
0.39443561 0.02536477 0.13475884 13290952
0.40000001 0.028783629 0.13089167 13027010
0.39883336 0.030629141 0.13520895 12369340
0.40081817 0.031735703 0.13394612 12171959
0.41275004 0.039509036 0.13936207 11514281
0.41319999 0.04134091 0.13927238 11316901
0.41685718 -0.12184805 0.14873147 14210771
0.40825003 -0.11168824 0.14142996 14605788
0.41384375 -0.11582966 0.1462158 14671838
0.40425929 -0.10461383 0.14246599 13487050
0.39675 -0.095081866 0.14077131 11447466
0.40000001 -0.099129595 0.14184763 12170933
0.39400002 -0.088419043 0.14018109 9671822
0.36740002 -0.030499633 0.14654472 1383191
0.36521959 -0.023811126 0.14703947 857102
0.3640002 -0.015941478 0.14741531 1579281
0.38900003 0.021981748 0.14022346 6447457
0.39350003 0.025932506 0.14092439 13224393
0.40730774 0.034611076 0.14422072 12633022
0.41124141 0.03867662 0.1450213 11909299
0.41335726 0.043217145 0.14555052 11843248
0.41700003 -0.12270399 0.15064205 14737115
0.41700003 -0.11993808 0.15031667 15066593
0.36388347 -0.032304648 0.15616976 2633000
0.36454087 -0.025626646 0.15602262 791307
0.3639999 -0.015323978 0.15531021 2169105
0.41483334 0.043840397 0.15066673 12238265
0.36134487 -0.032449942 0.1633461 1908760
0.36191368 -0.024782842 0.16493244 1251857
0.36299139 -0.016260024 0.16480663 1513488
0.34618604 -0.033076096 0.17857474 1712410
0.35544446 -0.032412395 0.17703494 923150
0.36173341 -0.032534976 0.17312646 1449238
0.34664708 -0.025135836 0.17872496 1514775
0.35603601 -0.024861634 0.17615324 1054480
0.36025527 -0.025257895 0.17168888 1646873
0.34716663 -0.016796717 0.17893799 1448727
0.35497531 -0.016429627 0.17720722 856846
0.36136368 -0.016238097 0.17361958 1382418
0.35500002 -0.0098577449 0.17907771 6777700
0.33900005 -0.032654744 0.18869264 1515030
0.34186846 -0.033503164 0.18373625 1646361
0.33897671 -0.024453633 0.18866511 1645846
0.34203732 -0.024982298 0.18360299 1580567
0.33863425 -0.016847506 0.18863821 1580053
0.34224319 -0.016605781 0.18365207 1514261
0.35420004 -0.010995272 0.18091241 1317657
0.36700001 -0.011909273 0.18040568 722947
0.35675001 -0.0096974047 0.18204898 2765359
0.33885008 -0.032572724 0.19107953 1712410
0.3388055 -0.02514028 0.19115567 1646104
0.338 -0.017480927 0.19104458 1580055
0.79580003 0.12575561 0.19569269 10987677
0.79378951 0.13498031 0.19507103 11053470
0.79625005 0.14492238 0.1950828 10987934
0.79266673 0.11901816 0.20408303 10987677
0.78845459 0.12660907 0.20786576 10987677
0.79114294 0.12469543 0.20289707 10987677
0.78900003 0.13185883 0.20729721 10921884
0.79071438 0.13600397 0.20499443 10987677
0.79467994 0.14537123 0.20460731 11053470
0.78607696 0.12709151 0.21427716 10921884
0.78883332 0.13229284 0.2151016 10921884
0.79233336 0.1375199 0.21513014 10921884
0.78800005 0.1293858 0.22133109 10921884
0.78900003 0.13201274 0.22222765 10987677
0.79199994 0.1369981 0.22514267 10921884
0.7963078 0.14530623 0.22523722 10856348
0.78771436 0.1380311 0.23573637 10856092
0.79050004 0.13812447 0.23128615 10921886
0.78814286 0.14417005 0.23797555 10856092
0.79111773 0.14569585 0.23277125 10856349
0.79271877 0.15463534 0.23494577 10856349
0.79576665 0.16469249 0.23486969 10921886
0.77700001 0.1494073 0.24734496 10921884
0.78460008 0.14628053 0.24333096 10856093
0.77900004 0.15161553 0.24798162 10921884
0.78779995 0.15462109 0.24487844 10856092
0.79028571 0.15777707 0.24179515 10856093
0.79206675 0.16528882 0.24490501 10856092
0.78800005 0.15798017 0.25084662 10856091
0.78900003 0.16095006 0.25116497 10921884
0.79294741 0.16654624 0.2549628 10856091
0.79488891 0.1681475 0.26296446 10724507
0.79534489 0.1754068 0.2651228 10790299
0.79661554 0.18438196 0.26599264 10856092
0.7922858 0.17645703 0.27181727 10790298
0.7939474 0.18495254 0.27367362 10790042
0.79699999 0.1876386 0.2867628 10790041
0.79185003 0.15495308 0.29637575 10264213
0.79442865 0.16578068 0.29859072 10593178
0.79650003 0.1764648 0.2969985 10658971
0.79630768 0.1359095 0.30740961 10592919
0.79350007 0.14505389 0.30581963 10527127
0.79276913 0.15486726 0.30425969 10592919
0.79517859 0.16533706 0.30545411 10592920
0.79592013 0.1549079 0.3148599 10527126
0.79619229 0.16449696 0.31489414 10527383
0.79473078 0.095643014 0.32411319 10132369
0.79673088 0.10427988 0.32543129 10263954
0.79489475 0.096141748 0.335215 10066576
0.79500002 0.089590766 0.34799156 10000783
0.79584622 0.095134296 0.34485146 10066575
0.79614294 0.12532978 0.34536114 10264211
0.7967335 0.13455263 0.34482923 10263955
0.79500002 0.089590766 0.35357487 9869453
0.79517245 0.095323883 0.35474101 10001039
0.79603326 0.10461605 0.35496399 10066833
0.79642445 0.11466757 0.35471702 10067089
0.79640919 0.12491865 0.35471156 10198419
0.79361916 0.095717207 0.36402074 10000782
0.79536009 0.10452985 0.36490902 10066832
0.79603142 0.15521772 0.36457008 10264467
0.79484218 0.16468854 0.36471331 10264468
0.79700023 0.17529441 0.36449248 10395540
0.79507148 0.16544528 0.3753441 10133139
0.79661548 0.17541759 0.37502161 10330003
0.79593945 0.16490418 0.38516137 10067347
0.79633355 0.17542897 0.38475573 10198419
0.79514295 0.098116457 0.39512196 9803917
0.79615402 0.12527427 0.39530551 9870225
0.79416215 0.13501838 0.3957549 10001553
0.79552633 0.14498371 0.39486894 10001554
0.79415387 -0.18515642 0.40496999 10263959
0.79544449 0.10629734 0.40466976 9869455
0.79600024 0.11485978 0.40526167 9935248
0.79348481 0.12510365 0.40473875 9935248
0.79093564 0.13452463 0.40486512 9935248
0.79207695 0.14503604 0.40469211 10066833
0.79480004 0.10724409 0.41488776 9869455
0.79479998 0.11468621 0.41488746 9869455
0.79426104 0.12459353 0.41493309 9935248
0.79430008 0.1344181 0.41509494 10001041
0.79514998 0.14563748 0.41479436 10001041
0.796893 0.15529974 0.41537899 10001041
0.79294735 0.10704251 0.42485785 9869455
0.79474998 0.1149726 0.42468512 9803919
0.79658341 0.15519001 0.42498779 9935248
0.79509097 0.16523826 0.4248521 10066834
