# .PCD v0.7 - Point Cloud Data file format
VERSION 0.7
FIELDS x y z rgb
SIZE 4 4 4 4
TYPE F F F U
COUNT 1 1 1 1
WIDTH 523
HEIGHT 1
VIEWPOINT 0 0 0 1 0 0 0
POINTS 523
DATA ascii
0.80584002 0.19456965 -0.27546224 11381157
0.80548006 0.1850553 -0.2149992 13092540
0.80719244 0.19504216 -0.21523592 9868429
0.81000006 0.19652162 -0.2105175 9802124
0.80735719 0.20276591 -0.21509291 5260862
0.8111667 0.20503511 -0.21145318 5063995
0.8056429 0.18529484 -0.20500657 13026748
0.8079167 0.19223416 -0.20524679 13158336
0.81118184 0.19706745 -0.20547095 9144451
0.81544006 0.20490982 -0.20513387 5327426
0.81800008 0.21090978 -0.20206562 5195838
0.80674994 0.19422403 -0.19381054 10657690
0.81059998 0.19799666 -0.19852872 6710111
0.80779999 0.20222878 -0.19179206 5065023
0.81216669 0.20512907 -0.19650622 5195838
0.80629998 0.004983556 -0.18501598 12303538
0.80816001 0.015396927 -0.1854437 12106159
0.80651993 0.02480448 -0.18506853 11974573
0.80580002 0.1049558 -0.18490194 12500916
0.80540007 0.20087349 -0.18707433 4867645
0.80543333 0.0049761743 -0.17539345 12171953
0.80584008 0.015351791 -0.17548329 12106160
0.80543345 0.10490816 -0.17539243 12500915
0.80532002 0.1454272 -0.17536493 12764088
0.80560005 0.15490673 -0.17542593 12764089
0.8056944 0.13512176 -0.16507363 12829111
0.80596656 0.14554314 -0.16513006 12829111
0.8057 0.15492554 -0.16507657 12894904
0.80600005 0.2002683 -0.15664582 5721669
0.80555999 0.12472686 -0.14524461 12500916
0.8058666 0.13514857 -0.14530024 12500916
0.80580002 0.11533133 -0.1349124 12435123
0.80589992 0.12477839 -0.13493076 12435123
0.8062284 0.13507497 -0.13495883 12500916
0.80609661 0.14538375 -0.13499366 12500916
0.80603325 0.15499003 -0.13495249 12500916
0.80526483 0.16498625 -0.13510072 12631989
0.80536008 0.14543423 -0.1244715 12500916
0.80599993 0.15498364 -0.12456919 12500916
0.80607992 0.075744413 -0.11514483 11579815
0.8066799 0.08524175 -0.11523025 11777193
0.80659997 0.094674543 -0.11521919 11974572
0.80629998 0.10502043 -0.11517611 12303537
0.8056801 0.1153133 -0.11508721 12369330
0.80536008 0.12469488 -0.11504217 12435123
0.80558634 0.13493997 -0.11520389 12500916
0.80580765 0.14529707 -0.11496139 12435123
0.80587995 0.15496001 -0.11511746 12500916
0.80720007 0.20056646 -0.11530255 5589570
0.80556673 0.035149917 -0.10564421 11315872
0.80599988 0.075939082 -0.10509492 11579814
0.80679983 0.085254803 -0.10486281 11711400
0.80786204 0.094693422 -0.105033 11908779
0.81000006 0.098866053 -0.10432893 12040365
0.80822223 0.10390414 -0.10830442 12237744
0.81081825 0.10509396 -0.10426044 12171951
0.80788893 0.11604922 -0.10888965 12369330
0.81191665 0.11454242 -0.10417636 12303537
0.80760002 0.12504205 -0.10874562 12369330
0.81181818 0.12517574 -0.10343707 12303537
0.80830002 0.13461192 -0.10883975 12435123
0.81215 0.13525225 -0.10365258 12369330
0.80744815 0.14580853 -0.10549858 12435123
0.81042856 0.14147004 -0.10302868 12435123
0.80599988 0.1549836 -0.10475712 12435125
0.80596286 0.16475955 -0.10562564 12435125
0.80575866 0.17490545 -0.10553782 12631990
0.80579299 0.1852569 -0.1048908 12631734
0.80758333 0.19420402 -0.10559247 9012862
0.81050003 0.19853975 -0.10344288 4473403
0.80540007 0.094534427 -0.094311692 11974573
0.8072499 0.10372933 -0.093582593 12171951
0.81033343 0.10712761 -0.097416312 12171951
0.80900002 0.11200118 -0.090942934 12237744
0.81241673 0.11485296 -0.095292814 12237744
0.81334478 0.12514167 -0.095374696 12369330
0.80775005 0.13593535 -0.091275588 12303537
0.8122223 0.13494577 -0.096378148 12369330
0.80661529 0.14536685 -0.094235025 12369330
0.81033343 0.14127292 -0.098048769 12303537
0.80620003 0.19276884 -0.094404712 10263186
0.80600005 0.11535984 -0.084949881 12237744
0.80546176 0.12492622 -0.084748253 12303537
0.80599999 0.19272135 -0.08494401 10394259
0.80540746 0.17519079 -0.075665392 12369331
0.80568004 0.18510078 -0.075481012 12435125
0.80699998 0.19296122 -0.075605899 10196882
0.82550001 0.20318097 -0.076370843 5326908
0.84700006 0.21243848 -0.075386249 5261372
0.80578959 0.19376552 -0.054243892 8552314
0.80900002 0.2010137 -0.051171385 4339506
0.81100005 0.20214349 -0.053197235 4602932
0.80738461 0.20264864 -0.044237576 11118239
0.81059998 0.20558718 -0.047478735 8683130
0.80538905 0.094847634 -0.025803169 11579814
0.43900001 -0.050215434 -0.010296891 15527142
0.43707702 -0.044730604 -0.011353863 15000540
0.43200001 -0.0347609 -0.011144491 15593190
0.42899993 -0.02446631 -0.011066631 14935005
0.43000004 -0.026662443 -0.0109666 15263970
0.42999998 -0.015463598 -0.010589112 13158335
0.43099999 -0.0050124517 -0.011006291 12171182
0.43376926 0.0027975617 -0.010799253 12631735
0.47600001 -0.08119151 -2.14921e-05 15986923
0.46577781 -0.072852604 -0.0014757131 15263457
0.47175002 -0.078122929 -0.00098638481 15526372
0.45548281 -0.064353883 -0.0031412237 15197663
0.46040002 -0.068830363 -0.0023936436 14868698
0.43900007 -0.050215431 -0.0038370185 14934749
0.44401541 -0.054593634 -0.0042532207 15000541
0.45000002 -0.059901346 -0.0033562686 15131871
0.43629208 -0.044788212 -0.0045797378 15132384
0.42858335 -0.032804664 -0.0018595863 15395556
0.43075007 -0.035781216 -0.0056268401 15461348
0.42812663 -0.025382582 -0.0043188697 15132384
0.42999998 -0.023684472 -0.0087436093 15001054
0.42801711 -0.015688144 -0.0025192557 15000541
0.43000013 -0.015033937 -0.0074587143 14869467
0.42844442 -0.0077728191 -0.0010790457 14671833
0.43062967 -0.0048480653 -0.0052735261 14606295
0.43316126 0.0046825456 -0.0045509404 13882572
0.43526477 0.012073435 -0.003100639 12764090
0.44050002 0.017158376 -1.9889223e-05 12764090
0.48855558 -0.090576999 0.005696008 14671832
0.49066672 -0.09301123 0.0063618021 14539990
0.4774 -0.081654586 0.0043367175 14802905
0.48331586 -0.08596082 0.0052453452 14539990
0.46441939 -0.072840028 0.0046028434 14606040
0.47305262 -0.0787111 0.0043547424 14802906
0.44833338 -0.060729045 0.0067991428 14802649
0.45586666 -0.065794498 0.0046095871 14737369
0.45999998 -0.069416687 0.0032098349 14606040
0.43876481 -0.050974272 0.0056590852 14868954
0.44409683 -0.05602476 0.004905941 14737112
0.42883334 -0.040853877 0.0076767341 15329504
0.43332434 -0.04501418 0.0048708534 15000796
0.42672083 -0.034724999 0.0058755507 15263968
0.43000004 -0.038544361 0.0019938604 15264225
0.42473981 -0.025220115 0.005443119 15001052
0.42454001 -0.015266638 0.0054395236 14869466
0.42599994 -0.0054705315 0.0055873119 14474709
0.42999998 -0.0012028984 0.0013227685 14211538
0.42787993 0.00158207 0.0075096744 14145743
0.43150002 0.0056114392 0.0041888524 13685450
0.43683338 0.012214127 0.0050581787 13027263
0.44268006 0.017352076 0.0053094798 12764348
0.44807151 0.022925168 0.0064994199 12895677
0.45083338 0.027471568 0.0080125881 12500407
0.45187503 0.031881798 0.0083106942 11579558
0.79336005 -0.16504201 0.014821402 12763832
0.79183334 -0.15761729 0.015564987 12829624
0.48900002 -0.090277471 0.017149288 13684938
0.49147061 -0.092427097 0.016085526 13618632
0.47777781 -0.081494749 0.014520313 13947597
0.48419994 -0.085999019 0.014719476 13881804
0.46472222 -0.073292151 0.015210266 14276305
0.47266671 -0.07841371 0.0154703 14078926
0.44730008 -0.061673898 0.01540563 14605269
0.45473915 -0.066859677 0.014832668 14473684
0.4382858 -0.052297343 0.015112719 14605526
0.44222459 -0.056737572 0.014788695 14605526
0.42675006 -0.042459257 0.015732218 14934489
0.4322392 -0.047117151 0.013924704 14802647
0.41900003 -0.030762207 0.019598814 14869466
0.42268386 -0.035078377 0.015219459 15132638
0.41842866 -0.024564208 0.018661767 14935259
0.42102778 -0.025107762 0.01388609 15001052
0.41856667 -0.015508582 0.018532658 14803674
0.42091438 -0.01493968 0.013801564 14803673
0.41900003 -0.0096731428 0.019598814 14606294
0.42210206 -0.0052728648 0.015269458 14408915
0.42541328 0.0033842297 0.015524931 13817035
0.43055001 0.008506028 0.013585152 13422277
0.43464404 0.013030551 0.015221513 13027264
0.44284213 0.018373078 0.0131815 12764092
0.44848004 0.022656688 0.013796156 12764349
0.45233336 0.026929015 0.014713632 12632507
0.45565385 0.032269873 0.014393885 12040113
0.46220002 0.035537478 0.018914456 12435130
0.79266673 -0.1566786 0.0255026 12698295
0.48850003 -0.090185165 0.021133725 13684938
0.49125001 -0.092418775 0.021252992 13552839
0.47760001 -0.082304731 0.025525963 13618888
0.48200002 -0.08555413 0.023323072 13618888
0.46508572 -0.073395848 0.025080467 13881803
0.47276929 -0.078387655 0.025261287 13684681
0.44583341 -0.061176796 0.024505936 14342353
0.45529789 -0.066919714 0.025244353 14144976
0.43700004 -0.053859398 0.024925532 14408146
0.44104168 -0.057807196 0.024371935 14407890
0.42448044 -0.043994196 0.025618788 14671062
0.4316667 -0.04859262 0.021537906 14671061
0.4173921 -0.032534033 0.025382988 15000796
0.42076758 -0.037273392 0.023941262 14869210
0.41567892 -0.02465919 0.025219278 14738137
0.4160001 -0.015034869 0.025125246 14606551
0.41780302 -0.0063383281 0.026074613 14146000
0.42038247 -0.0031336821 0.022817509 13948621
0.41900003 0.00013572203 0.029407678 13619656
0.42354548 0.0046992954 0.025115885 13422277
0.43000001 0.0091990242 0.02011334 13290691
0.42899999 0.010181929 0.026694924 13224898
0.43340242 0.014615673 0.024974849 12895678
0.43700001 0.020602049 0.026578914 12632507
0.45809096 0.027642364 0.021721201 12632508
0.46107143 0.028522316 0.026041735 12566714
0.45900002 0.030235443 0.020395294 12500923
0.46312073 0.033895947 0.024393898 12500922
0.49300003 0.048632812 0.02998491 12303285
0.47679996 -0.082312219 0.034753263 13421766
0.48000002 -0.085057579 0.032565299 13290180
0.45900002 -0.070770122 0.033289619 13815754
0.46510714 -0.073467419 0.034633592 13553095
0.47250003 -0.078513257 0.035370179 13487302
0.44672731 -0.06232132 0.035865504 13947597
0.45451516 -0.066670537 0.03409173 13881803
0.46000001 -0.069847435 0.039823357 13750731
0.42874998 -0.050673794 0.034355856 14211025
0.43383726 -0.054594815 0.035246816 14079183
0.44125003 -0.058865651 0.033803694 14079183
0.41875005 -0.041037016 0.037231669 14408916
0.42302409 -0.045213409 0.034782697 14342610
0.41522229 -0.03493714 0.035234142 14672087
0.41999999 -0.039193057 0.031444315 14671831
0.41205281 -0.025052181 0.035043202 14737880
0.41199976 -0.014702947 0.034975618 14409172
0.41468194 -0.0051956009 0.034921493 14014414
0.4179 0.0012778605 0.035881422 13685193
0.42291048 0.0059696529 0.034630377 13290692
0.42789999 0.010707249 0.036086671 13027521
0.43178082 0.015280413 0.03446712 12698556
0.43500003 0.02050776 0.031548988 12500921
0.46400002 0.029116495 0.036548872 12500921
0.46510914 0.033491347 0.034606997 12303542
0.47500002 0.039073285 0.038897976 12698043
0.48466671 0.042518493 0.039313462 12698043
0.49317864 0.048280708 0.034408335 12566713
0.49585715 0.053422406 0.035108935 12632507
0.47200003 -0.081285045 0.042292826 13355973
0.46662304 -0.074444525 0.045356732 13224387
0.47014287 -0.078463115 0.041801728 13290180
0.43900001 -0.060492504 0.048282403 13750733
0.44469568 -0.062232684 0.044701308 13750475
0.45565003 -0.067059517 0.044674959 13553095
0.4605 -0.069654144 0.043907829 13553096
0.42654172 -0.051580489 0.045913074 14079181
0.43484002 -0.056446727 0.045152787 13882060
0.44 -0.059600256 0.042212099 13947597
0.41690567 -0.042903561 0.045663487 14342610
0.42172098 -0.0473933 0.044061404 14276304
0.40859997 -0.031752937 0.048445616 14606294
0.41290316 -0.035587545 0.044616032 14540502
0.40795958 -0.024817083 0.045341011 14672088
0.41041669 -0.028291114 0.041214991 14803673
0.40800041 -0.015461029 0.045421366 14408916
0.41021428 -0.012830345 0.040863506 14343122
0.408577 -0.0078867208 0.047510609 13948621
0.41181949 -0.0044808476 0.044391364 13882828
0.4162159 0.0039301431 0.045518544 13290691
0.42085004 0.0080681583 0.042540822 12961984
0.42554548 0.011870491 0.042677969 12699069
0.43131039 0.016647117 0.042700551 12500921
0.46400002 0.02947857 0.040169649 12961472
0.46520004 0.031955756 0.040708497 12040370
0.47550005 0.038559593 0.041165233 12435128
0.48500001 0.039895881 0.046529245 12369078
0.48680001 0.042440452 0.044194937 12303285
0.49251282 0.04717071 0.04503005 12369335
0.49779993 0.054236479 0.044292934 12303539
0.46677583 -0.074163072 0.055274457 13026751
0.43700004 -0.0612415 0.052950222 13487559
0.46350008 -0.068829641 0.056405131 13027008
0.42684609 -0.051518466 0.054011606 13750730
0.43328261 -0.056072928 0.05462224 13553352
0.40900001 -0.040081523 0.059345067 14342868
0.41400009 -0.043448012 0.055058282 14145745
0.42137501 -0.048816539 0.05287715 13948110
0.40684387 -0.034112625 0.055424433 14474709
0.41092858 -0.038621943 0.052064415 14474708
0.40415439 -0.024946332 0.05484888 14671831
0.40378508 -0.015065647 0.054890376 14474708
0.40721133 -0.0058466946 0.055541832 13816778
0.41084215 -0.0016886021 0.052523382 13553864
0.40900001 0.00013248283 0.059345067 13422020
0.41500002 0.0037022745 0.055125218 13224643
0.42063645 0.0088646319 0.05449928 12830142
0.42400008 0.012504514 0.0559083 12500920
0.48900002 0.041598625 0.052407831 12040371
0.49073797 0.045568623 0.053888362 12369334
0.49725002 0.052254569 0.050322894 12105906
0.45900002 -0.070770122 0.068211757 13027010
0.46529636 -0.073766068 0.062261429 12698043
0.44500002 -0.061669365 0.065607034 12566457
0.45506898 -0.066897973 0.065027952 12500664
0.46150002 -0.068814948 0.061738729 12698043
0.42430001 -0.051217936 0.064038821 13289410
0.4357895 -0.056301154 0.064605415 12894909
0.44150001 -0.059803437 0.067677036 12303285
0.4084 -0.041361433 0.065947816 13947854
0.41439393 -0.045677315 0.064948186 13618888
0.40398246 -0.035194676 0.064978115 14342610
0.39827788 -0.023155399 0.068173081 14474454
0.40082237 -0.025687093 0.063794956 14540245
0.39831927 -0.016336849 0.067792393 14474711
0.40062034 -0.013840629 0.063445002 14408915
0.40411606 -0.0050259866 0.064961724 13685193
0.40837502 0.0015673976 0.066751562 13224642
0.41250771 0.005088618 0.064020783 12961470
0.42066669 0.009984144 0.061364841 12698554
0.42433333 0.012503226 0.06168019 12369334
0.43175006 0.014038476 0.067449227 12237749
0.4438 -0.061778042 0.073339194 12040113
0.45100003 -0.06320186 0.079164572 12237492
0.42500004 -0.0506039 0.076619498 12631480
0.43813336 -0.054836418 0.075738832 12237235
0.44068182 -0.05777042 0.073462844 12040113
0.40734786 -0.041580211 0.075273834 13552582
0.41371426 -0.045358572 0.075658567 13026238
0.42200002 -0.048601743 0.078519762 12565687
0.39765862 -0.032069094 0.076245576 14211282
0.40179986 -0.036521599 0.074250974 13948110
0.39574996 -0.02498064 0.074881949 14343124
0.39578697 -0.014654214 0.07492508 14343124
0.39766666 -0.0073581277 0.076356106 13882317
0.40158564 -0.0035307694 0.07403107 13487816
0.40648973 0.0027388949 0.073754624 12566715
0.41275001 0.0076290518 0.071732402 11908784
0.42050004 0.0099801887 0.07430248 10921889
0.42433333 0.010735239 0.074486084 11053475
0.43400002 0.014364606 0.070084527 12040372
0.79200006 -0.13879994 0.086179256 12171181
0.44900003 -0.06081935 0.080915742 12303285
0.45432729 -0.06506703 0.085473895 12434872
0.43561903 -0.052601479 0.085887775 12302772
0.44461772 -0.057601053 0.085268654 12303029
0.40653849 -0.04170996 0.084640145 12697530
0.41440001 -0.045463182 0.083218992 12565687
0.42050004 -0.047114901 0.081194438 12828860
0.43150002 -0.049357541 0.085846715 12302515
0.39603999 -0.032921087 0.084051497 13816524
0.4018333 -0.037893496 0.083804682 13224130
0.39261353 -0.024692349 0.083159231 14211282
0.39242679 -0.014905709 0.083052002 14145233
0.39455223 -0.006067229 0.083490357 13487559
0.40000001 -0.0012750432 0.080512956 12895164
0.40300003 0.0020174 0.080173373 11842734
0.45583332 -0.063114315 0.092940852 12369079
0.46125001 -0.066097878 0.09770216 12105652
0.43866667 -0.053258091 0.09137588 12237493
0.44255558 -0.055805683 0.091840789 12303287
0.45650002 -0.058629241 0.098834723 12368567
0.40450001 -0.04058747 0.097043857 12632252
0.38833332 -0.031769119 0.096912317 11841963
0.39234385 -0.035096895 0.096445687 13223619
0.40100002 -0.039297536 0.09667296 12895424
0.38408765 -0.02490209 0.095915139 2370342
0.38367233 -0.015329672 0.09584111 2502445
0.38807812 -0.006967213 0.096067071 12501435
0.39000002 -0.002840912 0.09736874 12500921
0.46171671 -0.063805617 0.10472025 12434103
0.46124998 -0.057686325 0.10748854 12500409
0.38732257 -0.04202177 0.10588519 13420998
0.39000002 -0.040654209 0.10193372 13552584
0.38682148 -0.034636229 0.10574699 11578793
0.39017648 -0.037216287 0.10158544 13486790
0.37765777 -0.023858007 0.10672586 2238758
0.38127694 -0.025958396 0.10278999 2370086
0.37812281 -0.01649308 0.10702647 2304296
0.38152561 -0.013863912 0.10347177 2831666
0.38690808 -0.0068720845 0.10522347 12435385
0.39017153 -0.0019869534 0.10457941 12303542
0.39100003 0.0001266523 0.10547505 12171957
0.4665741 -0.064174533 0.11519977 12960447
0.4638387 -0.057261489 0.1133307 12697532
0.38714287 -0.041175168 0.1115909 13420998
0.39040002 -0.041366678 0.11824546 13092033
0.37900001 -0.030753389 0.11727677 1909794
0.38645661 -0.035929095 0.11487604 12302774
0.3755067 -0.024713006 0.11498086 2107425
0.37553123 -0.015312141 0.11501601 2304293
0.38060004 -0.010924448 0.11117883 7305076
0.38633007 -0.0055057569 0.11536979 12238006
0.39039996 -0.001518029 0.1126395 12171957
0.39222229 0.0010457677 0.1130735 11974835
0.78577775 0.12759133 0.11748726 11119263
0.78785002 0.13434216 0.11689512 11119263
0.79139996 0.13661572 0.11242044 11250849
0.78866673 0.14118867 0.11874139 11185056
0.46900001 -0.064077422 0.12075194 13223619
0.38873532 -0.04219142 0.12661004 13355461
0.39047834 -0.043354467 0.12227336 13223878
0.37750003 -0.031472586 0.12568967 5262408
0.38462889 -0.036388077 0.12476023 12763067
0.36900002 -0.027523216 0.12955868 1910301
0.37221351 -0.025192879 0.12504305 1778717
0.37191406 -0.015520573 0.12496842 3159342
0.38530767 -0.0046008062 0.12483894 12501433
0.38857141 0.00051592378 0.12564208 12238006
0.39000002 0.0024088211 0.12597598 11317932
0.78788894 0.1275218 0.12436534 11119263
0.79087502 0.12545997 0.12864126 11053470
0.78764999 0.13486062 0.12443038 11119263
0.79083329 0.13447687 0.12955916 11053470
0.78864288 0.1426793 0.12366178 11119263
0.79080003 0.14638422 0.12610005 11119263
0.38785106 -0.042126801 0.134936 12961216
0.39064288 -0.045273159 0.13519806 13158596
0.36875004 -0.030094318 0.13767034 2238755
0.3750909 -0.032236736 0.13507469 6776158
0.38323197 -0.037275732 0.13496467 12697274
0.36717302 -0.024519088 0.13500938 1909789
0.37090001 -0.029141415 0.13169898 2172960
0.36689827 -0.016286226 0.13570531 2304033
0.37072721 -0.013393831 0.13266613 4145465
0.37799996 -0.0089024175 0.13633974 11514537
0.383549 -0.0042870641 0.13516974 12040627
0.3879149 0.0020220268 0.13492134 11777712
0.39033332 0.0043909908 0.13308954 11712177
0.38700002 -0.042003602 0.1413168 11645104
0.39000002 -0.044610523 0.14058393 13619147
0.36866668 -0.030087518 0.14152521 2238755
0.37267396 -0.032395206 0.14483099 5001035
0.38140002 -0.036961611 0.1418274 11513769
0.36636043 -0.023744805 0.14398651 1252117
0.37104344 -0.027940476 0.14772591 988945
0.364034 -0.015935846 0.14489385 1908247
0.38218182 -0.0044239508 0.14097737 10724767
0.38514286 0.00089795981 0.14102225 11974834
0.36375478 -0.032414548 0.15659443 2830120
0.37123078 -0.031165838 0.15206568 1251862
0.36492398 -0.025208518 0.15611592 659978
0.37124994 -0.028125295 0.15185601 988945
0.36397982 -0.015365951 0.15520073 1905934
0.79200006 0.10964764 0.15756157 11185056
0.81400001 0.20987841 0.1581271 3484707
0.81900007 0.21308489 0.15718111 3155996
0.82133341 0.21497487 0.15891023 3155996
0.36162511 -0.032234684 0.16397347 1777687
0.36187005 -0.024776738 0.1649486 1120528
0.36317545 -0.016294461 0.16477942 1381903
0.80536371 0.20302516 0.1653621 5656390
0.81700003 0.21065193 0.16444771 3879467
0.82316667 0.21577568 0.16568895 2827286
0.83375001 0.22082613 0.16684242 2958615
0.34580377 -0.033105697 0.1778436 1449492
0.35519996 -0.032327283 0.17558637 791565
0.36092862 -0.032263465 0.17225979 1843992
0.34596705 -0.024984574 0.17814894 1317651
0.35538879 -0.024881419 0.17492983 857358
0.36012903 -0.025312012 0.17104499 1778970
0.34646347 -0.017038014 0.17855372 1317139
0.3551603 -0.016211744 0.17626935 856846
0.36050007 -0.017225722 0.17163959 1317907
0.35575002 -0.0096696354 0.17904021 6251360
0.80619061 0.20373428 0.17593214 6709079
0.80900002 0.21048312 0.17988241 3222048
0.81520003 0.2132438 0.1778225 3222046
0.82285726 0.21711738 0.17442754 2827545
0.82900006 0.22150879 0.17462593 2893083
0.8326667 0.22183926 0.17214894 3090716
0.79300004 -0.11855447 0.18746178 11513251
0.33802384 -0.033239316 0.18816586 1449237
0.34110209 -0.033806559 0.18480784 1449237
0.33861116 -0.025958117 0.18851289 1383444
0.34022227 -0.024579773 0.18571202 1317651
0.3388648 -0.016592007 0.18857245 1382931
0.34037507 -0.01677346 0.18544011 1448465
0.35519999 -0.011193466 0.18109122 1317146
0.35753849 -0.009026221 0.18296719 5396051
0.81533337 0.21531548 0.18065155 3090718
0.78900003 -0.12349766 0.19760013 11119263
0.79145837 -0.12635349 0.19496793 11381922
0.79100001 -0.11825547 0.19069403 11315872
0.33699995 -0.032843549 0.19047935 1317651
0.33803043 -0.024706077 0.19083971 1383445
0.33823532 -0.017263275 0.19090466 1252116
0.79105264 0.10737296 0.1951872 10592919
0.79265219 -0.13544574 0.20440625 11250849
0.79191309 -0.12508242 0.20494202 11316385
0.79242855 -0.11740889 0.20641024 11184542
0.79000002 0.1089084 0.20339879 10592919
0.79312003 0.1154526 0.20472117 10658712
0.79250002 0.10971685 0.21332225 10592919
0.79253328 0.11714313 0.27442843 10329747
0.7933225 0.16530779 0.27524263 10527124
0.79250002 -0.099000119 0.28752902 10724503
0.79319996 0.11662114 0.28592783 10263954
0.79327273 0.12493575 0.284603 10395540
0.79297048 0.15525958 0.28491378 10395540
0.79236001 0.16534628 0.28525326 10395540
0.80633342 -0.096002564 0.30639318 10592919
0.81000006 -0.090756409 0.30525559 11185056
0.8070001 -0.08630114 0.30790102 10527126
0.80578578 0.20277663 0.3055546 4274996
0.80608004 -0.10541087 0.31510037 10592919
0.80689186 -0.094800793 0.31495389 10592919
0.8064 0.2030127 0.31497201 3484967
0.81144452 0.20837675 0.31487584 2564630
0.81349999 0.2116539 0.31704772 2630165
0.79300004 0.089365378 0.33783397 9672074
0.79200006 0.088943668 0.34605882 9606281
0.79100001 0.089139991 0.35179588 9606281
0.79237926 0.094733775 0.35503095 9672074
0.79306668 0.15515497 0.36447391 10066576
0.79334611 0.16533917 0.36455518 10066576
0.79315001 -0.086177215 0.38459367 10066577
0.79319233 -0.14443681 0.41426155 10001039
0.79303843 -0.13512653 0.42489147 9935246
0.79333323 -0.12510298 0.42433253 9869453
0.79216653 -0.13512097 0.43483815 9869453
0.792 -0.1250257 0.43461648 9803661
0.79321873 0.14468773 0.43512353 9672074
0.79214299 0.15496892 0.43495527 9672074
0.79261118 0.18487866 0.43507779 9737867
0.79173082 0.19429938 0.43430993 6644313
0.79133344 -0.14516781 0.4445692 9737867
0.79192001 -0.13507727 0.44489968 9803660
0.79083359 0.15484451 0.44428915 9606281
0.79239988 0.16535529 0.44516972 9671818
0.79203331 0.17547192 0.44496289 9671819
0.78900003 0.18465404 0.44541442 9606026
0.79010534 0.18531786 0.44319877 9606025
0.79026669 0.19302927 0.44310701 7828331
