# .PCD v0.7 - Point Cloud Data file format
VERSION 0.7
FIELDS x y z rgb
SIZE 4 4 4 4
TYPE F F F U
COUNT 1 1 1 1
WIDTH 445
HEIGHT 1
VIEWPOINT 0 0 0 1 0 0 0
POINTS 445
DATA ascii
0.79440916 0.13441311 -0.21441373 12895418
0.81200004 0.19795731 -0.21198657 5657163
0.81260002 0.20342986 -0.21841855 4866361
0.8235001 0.20703031 -0.2141818 5326911
0.82800007 0.21154976 -0.21907239 5195325
0.83599991 0.21594474 -0.21440338 5524290
0.79479992 0.13422844 -0.20488609 12960697
0.8131668 0.19697602 -0.20435882 11315875
0.81900007 0.20158114 -0.20582651 4735806
0.82273334 0.20571567 -0.20548224 5195326
0.82625002 0.21207064 -0.20217073 5326654
0.83428574 0.21567066 -0.20818125 5261118
0.81000006 0.18893673 -0.19819205 13026492
0.81091666 0.19626987 -0.19620319 10065294
0.81561542 0.2051564 -0.19464943 5195582
0.82066673 0.20775573 -0.1992007 5326654
0.8210001 0.21232469 -0.19736069 5063995
0.81050009 0.20328324 -0.18882799 5064252
0.81000006 0.19841786 -0.155527 5194042
0.81227279 0.20355669 -0.15475582 5458497
0.81000006 0.20505464 -0.14983831 5787462
0.81033343 0.20134501 -0.11575311 5852993
0.81300002 0.19661741 -0.073621146 4340278
0.82275009 0.20371208 -0.073948935 5129532
0.83200002 0.20867628 -0.072103463 5129786
0.81200004 0.1960564 -0.065620869 4274740
0.82500005 0.20498925 -0.06956549 5721923
0.83200002 0.20867628 -0.067234144 4932407
0.81000006 0.20505464 -0.055027086 4931893
0.44000003 -0.050329823 -0.010320346 15657958
0.4376452 -0.045144174 -0.011654091 14868442
0.44000003 -0.049299777 -0.010320346 15526372
0.43243331 -0.03479502 -0.01115559 15592679
0.43000007 -0.025026657 -0.011092428 14935005
0.43071434 -0.016087305 -0.010726708 13224129
0.43117395 -0.0054730778 -0.010815632 12368305
0.43475002 0.0028154368 -0.010324206 14210768
0.47600001 -0.08119151 -2.14921e-05 15856109
0.46626666 -0.072625138 -0.0014033456 15132127
0.47150001 -0.077668332 -0.0010138805 15395557
0.45519441 -0.064095102 -0.0027400348 15132128
0.46100003 -0.068920068 -0.0016396288 15197920
0.43900001 -0.050215434 -0.0010475283 14869213
0.44444451 -0.054451328 -0.0045532547 15000542
0.45000002 -0.059901349 -0.0031806922 15066335
0.43635717 -0.044524644 -0.0044745756 15132127
0.44000003 -0.049299777 -0.006715178 15000286
0.42839998 -0.032907397 -0.0013745582 15395810
0.43100005 -0.035395168 -0.0055784089 15461603
0.42803395 -0.025472684 -0.0025191372 15132638
0.43000013 -0.02480296 -0.007513273 15132383
0.42828584 -0.015590904 -0.0016444498 14935004
0.43010542 -0.015405205 -0.0066088908 14869467
0.42884204 -0.0073107025 -0.00091794407 14606296
0.4305501 -0.0049223462 -0.0053636041 14606039
0.43377006 0.0047171493 -0.0045953169 13882572
0.43697366 0.012610423 -0.0029253645 12895676
0.44025004 0.017148346 -0.00053490192 12632504
0.48900005 -0.090277471 0.0051293313 14869213
0.49100006 -0.093023933 0.006339313 14474455
0.47715384 -0.08181943 0.0043588607 14605784
0.48375759 -0.086228557 0.0055024633 14474454
0.46584997 -0.072677717 0.0055656293 14671320
0.47219241 -0.078038029 0.0047404012 14671321
0.44780001 -0.060656805 0.0073141903 14802649
0.45554835 -0.06440004 0.0038692213 14868443
0.46085715 -0.068514116 0.0049869632 14736857
0.43842861 -0.051568061 0.0059412164 14868442
0.4441112 -0.05618117 0.0047894837 14802649
0.45000002 -0.059901346 0.0015598689 14868442
0.42862499 -0.040875793 0.0075043859 15263454
0.43309337 -0.045212351 0.0048576915 15131614
0.42605481 -0.034874931 0.0057303789 15263967
0.42999998 -0.038784038 0.0013227685 15263970
0.42453986 -0.025206573 0.0054395702 15001052
0.42490795 -0.015236616 0.0054943645 14935003
0.42654529 -0.005396164 0.0055101784 14474710
0.43000001 -0.00086735259 0.00098722253 14277586
0.42790011 0.0018429441 0.0072899619 14079952
0.43135941 0.0058261682 0.0042544175 13685194
0.43670005 0.012287065 0.0050385199 13093056
0.44262502 0.017569911 0.0051633213 12764092
0.44725004 0.022397712 0.0066160075 12895422
0.45170596 0.027704641 0.0080654817 12303284
0.45299998 0.031254184 0.0091703823 11579815
0.48900002 -0.090277471 0.013715014 14013133
0.49199995 -0.092768095 0.01593818 13553095
0.47709998 -0.0812677 0.014836432 13948110
0.48466665 -0.086082377 0.014920668 13816268
0.46508819 -0.073252589 0.014995875 14145489
0.47253853 -0.078179829 0.01542344 14013903
0.44633335 -0.061215717 0.015652312 14605270
0.45522228 -0.066479743 0.014991874 14408148
0.4605 -0.069654137 0.011567832 14539477
0.43699992 -0.053039789 0.015074583 14605526
0.44141379 -0.057549629 0.01448098 14605270
0.42685714 -0.04242935 0.015702501 14934490
0.43194121 -0.047252532 0.014136635 14737112
0.41900003 -0.030271763 0.019598814 14803419
0.42270711 -0.035045009 0.015266907 15197918
0.41834483 -0.023877278 0.018452711 14935004
0.42087331 -0.025384096 0.013896897 15001052
0.41808337 -0.01544184 0.018222271 14803675
0.42103124 -0.014909053 0.013515368 14803673
0.41875002 -0.0089317067 0.019341897 14409173
0.4223021 -0.0051411805 0.01512171 14408916
0.42584619 0.0035061543 0.01551682 13882316
0.43037507 0.0083261412 0.01353906 13422023
0.4349016 0.013101554 0.015267516 13027265
0.44300008 0.018641245 0.013502889 12764093
0.44800007 0.02252152 0.013884813 12764093
0.45254168 0.027187591 0.01492599 12698300
0.45525652 0.032667331 0.015157044 12171955
0.48800004 -0.090092853 0.022255095 13684681
0.49137503 -0.092443891 0.021545611 13355716
0.47728574 -0.082264289 0.025570901 13553352
0.48292005 -0.085814171 0.022989374 13618888
0.46566674 -0.073475823 0.025776992 13816524
0.47253338 -0.078134008 0.024904966 13684681
0.44568422 -0.061693382 0.025899753 14211025
0.45530769 -0.067366652 0.024521291 14079440
0.43679234 -0.054099638 0.024923474 14342355
0.44052944 -0.058155954 0.02436498 14342611
0.42507792 -0.044031307 0.025616596 14605782
0.43126673 -0.048390236 0.022055235 14671063
0.41757447 -0.032209098 0.025351055 15000796
0.42091125 -0.037155807 0.023935281 14935003
0.41595247 -0.024582954 0.025059056 14803674
0.41554725 -0.015052089 0.0250827 14606296
0.41743657 -0.0064540594 0.025551071 14080209
0.42044836 -0.0022729589 0.023466675 13882573
0.42366329 0.0045954152 0.025075084 13422022
0.43000001 0.0091990242 0.02011334 13224644
0.42899999 0.010181929 0.026594495 13159107
0.43369132 0.014579329 0.024999801 12829886
0.43833336 0.020664908 0.028711522 12566714
0.45775998 0.027626116 0.023388481 12566715
0.46033335 0.028886667 0.028357817 12632507
0.45890912 0.031010926 0.022051888 12435128
0.46264106 0.034203086 0.024918756 12435129
0.47590005 -0.082441248 0.034170724 13487303
0.48000002 -0.086368546 0.030317921 13618375
0.46483728 -0.073679045 0.034953609 13552839
0.47131255 -0.078738034 0.035556339 13487302
0.44565523 -0.062529698 0.035231166 13882317
0.45428571 -0.06726636 0.034162141 13816267
0.42860001 -0.050831687 0.035698496 14145488
0.43327084 -0.054305062 0.034786109 14079695
0.44000003 -0.059342742 0.036289323 14079696
0.41866669 -0.041028846 0.037550922 14408916
0.42311111 -0.044778865 0.034908034 14277331
0.41545269 -0.034937989 0.035192709 14672087
0.42000002 -0.038947247 0.031198511 14671831
0.4121207 -0.025079433 0.034913819 14672344
0.41201907 -0.014703169 0.03497643 14474708
0.41479999 -0.0051972647 0.03493074 13948622
0.4177857 0.0012891999 0.036549091 13553864
0.4231644 0.0057810089 0.034515202 13290437
0.42815 0.010813846 0.03635915 12961472
0.43183076 0.014922001 0.033971291 12698300
0.43700001 0.020602049 0.03169404 12500921
0.45400003 0.024591969 0.032926988 12500921
0.46414295 0.029022122 0.035682242 12434871
0.46568975 0.033744171 0.034699943 12237749
0.47150004 0.03823524 0.03861136 12566714
0.48450002 0.042693235 0.039675936 12632507
0.49500003 0.048251294 0.037637606 12369336
0.49725008 0.052895654 0.037984438 12829629
0.47050005 -0.080694422 0.043043654 13290180
0.46716073 -0.074301183 0.044995941 13224387
0.47000003 -0.079067819 0.044304285 13290180
0.44365522 -0.06242872 0.043990783 13816011
0.45563638 -0.067249887 0.044581354 13618632
0.46216667 -0.069094487 0.046507254 13421766
0.42734998 -0.051535804 0.045749247 14079439
0.43409804 -0.056101512 0.044728275 13882060
0.44000003 -0.059600256 0.041182049 13816524
0.41688642 -0.042431969 0.04555675 14342867
0.42226535 -0.047116611 0.044626012 14145488
0.40838888 -0.031842899 0.048154641 14606294
0.41266665 -0.035661902 0.04450063 14540502
0.40749526 -0.024806317 0.045243084 14672087
0.41027278 -0.028419435 0.041193392 14606551
0.4078863 -0.015378677 0.045114651 14343379
0.4101429 -0.011388635 0.040856324 14211793
0.40861297 -0.0077353497 0.047253732 13882828
0.41185138 -0.0042258864 0.044147335 13817035
0.41637221 0.0037359016 0.045325357 13356227
0.42116669 0.0080256546 0.04270469 13027519
0.42662504 0.012377911 0.045247246 12764091
0.42999995 0.015574398 0.043668665 12500921
0.46433333 0.029137671 0.040560585 12369078
0.46500003 0.031174965 0.040256221 12171699
0.48650002 0.042013232 0.043827642 12566714
0.4927142 0.046498984 0.045256589 12238006
0.49731255 0.052771516 0.044035867 12501177
0.46707147 -0.073974051 0.055741102 13026752
0.47000003 -0.078847751 0.051911928 13092802
0.43900004 -0.060663793 0.053763505 13487559
0.44233334 -0.062507823 0.053826172 13421766
0.45825002 -0.066363394 0.057374049 13158594
0.46400005 -0.068934545 0.057112057 13092544
0.42610529 -0.051630389 0.05567259 13684938
0.43295452 -0.056095961 0.054502118 13553352
0.40900001 -0.040081523 0.058866329 14277330
0.41446057 -0.043781549 0.055218045 14145744
0.42150003 -0.048510991 0.052470811 13948110
0.40645459 -0.034188349 0.055374831 14474708
0.41108334 -0.038682286 0.051786605 14474708
0.40378159 -0.024920531 0.054800898 14606294
0.40404937 -0.014998578 0.054834321 14474708
0.40722236 -0.0058470019 0.055543862 13816778
0.41094741 -0.0016889377 0.052536685 13619399
0.40900001 0.00013248283 0.058866329 13422020
0.41473171 0.0035332975 0.05510382 13290179
0.42071432 0.0084379725 0.054572433 12961215
0.42480329 0.012762094 0.055048235 12566457
0.4916316 0.046199929 0.051768392 12370104
0.49600002 0.051832784 0.050486237 12369335
0.46534613 -0.07397607 0.062029839 12829372
0.44543752 -0.062229212 0.067036733 12434615
0.45575008 -0.066485822 0.06479039 12565944
0.46112502 -0.068938166 0.062586777 12697530
0.42379999 -0.051457237 0.063574262 13355203
0.4355 -0.056885462 0.064583153 12894908
0.44144446 -0.059795909 0.065085329 12763323
0.4083333 -0.041397262 0.066255905 13947853
0.41452777 -0.045783423 0.064808637 13684425
0.40397367 -0.035219964 0.064986512 14277074
0.39844835 -0.022676488 0.06826596 14474454
0.4006528 -0.025630414 0.063965462 14474453
0.3984091 -0.016192151 0.068044767 14474454
0.40060726 -0.014136344 0.063405164 14474453
0.40425894 -0.0050281137 0.064984344 13685193
0.40843496 0.002066795 0.066328198 13224641
0.4119302 0.0052751251 0.063821658 12961469
0.42100003 0.009745664 0.06083985 12632250
0.42560872 0.013442274 0.062363714 12171699
0.43123999 0.016052149 0.067460269 11908527
0.43400002 0.021476619 0.068052523 11382183
0.79428017 -0.16523239 0.074345306 12237745
0.79459375 -0.15483314 0.074719697 12237745
0.79329425 -0.14580286 0.076318674 12237746
0.44370002 -0.061139919 0.073424727 11974320
0.45350003 -0.064082444 0.078542918 12237492
0.4242 -0.050708104 0.07725551 12434359
0.43725002 -0.055265579 0.074302316 12171700
0.44035718 -0.058323614 0.072658196 11974320
0.40690008 -0.041306086 0.075088397 13487046
0.41457146 -0.045453947 0.075920559 12960446
0.42087501 -0.048635267 0.077817805 12565946
0.39776477 -0.031998251 0.076718368 14211025
0.40165377 -0.03619913 0.074239239 14013646
0.39583734 -0.024904229 0.074934073 14342868
0.40000001 -0.029523328 0.070524611 14145489
0.3957316 -0.014622589 0.074921697 14342868
0.39754006 -0.00692289 0.076644875 13816524
0.40160602 -0.0036102918 0.073666349 13487816
0.4066073 0.0028583242 0.074134454 12500921
0.41400003 0.008386191 0.072199374 11645867
0.43294123 0.017132172 0.072238863 11448230
0.43300003 0.020413473 0.073470861 11053472
0.79347622 -0.14472345 0.085679434 12106160
0.45669052 -0.064695373 0.086011186 12500408
0.43545455 -0.0533344 0.085153371 12302772
0.4452858 -0.057493407 0.086747713 12434357
0.45000002 -0.059901346 0.086363241 12434871
0.40567997 -0.041696787 0.084043808 12828859
0.4156 -0.045986243 0.080732778 12697275
0.42300004 -0.048880968 0.08118204 12434102
0.39623919 -0.033009168 0.083483323 13947597
0.40164509 -0.037938628 0.08329802 13355203
0.39272714 -0.024699403 0.082724176 14277075
0.39257532 -0.014826683 0.082616739 14145489
0.39490318 -0.0059034531 0.083089717 13422023
0.40000001 -0.00080683961 0.080512956 12500666
0.45754275 -0.063877821 0.093781665 12434102
0.46090475 -0.066337734 0.097603209 12302516
0.44675004 -0.057249151 0.091622479 12499895
0.45450002 -0.059425831 0.095243692 12434101
0.40400001 -0.040537301 0.096923307 12763068
0.38821054 -0.031396061 0.097078167 11183775
0.39340478 -0.035031706 0.096788108 13289411
0.40075001 -0.039038934 0.096378595 13092033
0.38434252 -0.025001278 0.09572392 2370342
0.38425922 -0.015236968 0.095769174 2502186
0.38825491 -0.007695212 0.096271016 12435641
0.39039287 -0.0032666826 0.096728265 12500921
0.39200002 0.00049404782 0.098357499 10790817
0.46113637 -0.064428881 0.10160148 12302515
0.38770834 -0.041549116 0.1056777 13420998
0.38699147 -0.034849819 0.10554221 11775658
0.39050004 -0.036821015 0.10107297 13552074
0.37841463 -0.023515368 0.10820974 2173476
0.38155875 -0.025364313 0.10365419 2304805
0.37845236 -0.016562628 0.10790034 2239270
0.38149494 -0.014422566 0.10369446 2569263
0.38720241 -0.0067833122 0.10545171 12369847
0.3906751 -0.0022957041 0.10369273 12435128
0.3915 0.00024152413 0.10388432 11842991
0.38900003 -0.040853515 0.11768473 13354692
0.39030004 -0.042818379 0.11876377 12960191
0.37899998 -0.030487215 0.11665571 1843487
0.38581562 -0.035309561 0.11521824 11841710
0.37553433 -0.024620341 0.11512183 2041889
0.38050002 -0.029271742 0.11088152 2304550
0.37569052 -0.015389502 0.11509626 2173219
0.38083336 -0.011020277 0.11142424 6449763
0.38628829 -0.0054389182 0.11502822 12303541
0.39000002 -0.00078666862 0.11091153 12106678
0.39000002 0.0010393254 0.11395485 11711661
0.38836366 -0.04235718 0.12631124 13289926
0.39006248 -0.043533489 0.12205798 13092548
0.37758338 -0.031553712 0.12556988 5525838
0.38488179 -0.036519084 0.12470073 12763323
0.36900002 -0.027091298 0.12955868 2041888
0.37220424 -0.02514315 0.12508848 1843997
0.37189612 -0.015484591 0.12511757 3027756
0.37800002 -0.0096115116 0.12475451 12961467
0.3855328 -0.0045366553 0.1247652 12501176
0.38850001 0.00053505244 0.12603328 12172469
0.39108333 0.0020357796 0.12342656 11777969
0.79536003 0.15480125 0.12471176 11119261
0.38746297 -0.042609908 0.13447846 13026495
0.39000002 -0.04506702 0.13875794 13224388
0.36857143 -0.030326223 0.13778873 2173475
0.37512198 -0.032248776 0.13516754 6578780
0.38335624 -0.037058271 0.13476558 12631480
0.36725879 -0.024659745 0.1343814 1909789
0.37120005 -0.02907834 0.13163249 2172961
0.36749065 -0.01583435 0.13443211 2764326
0.3705 -0.011914284 0.1326865 5657674
0.37799999 -0.0088146282 0.13439623 11119779
0.38352382 -0.0042200517 0.13509358 12106163
0.38740548 0.0017207336 0.13467236 11842991
0.38600001 -0.04126323 0.14112863 11908530
0.36800003 -0.030894605 0.14040701 2107167
0.37327278 -0.032378163 0.14580324 5330514
0.38204998 -0.037040837 0.14169651 11316647
0.36656001 -0.023262789 0.1479221 791307
0.3705 -0.027780632 0.14945571 857614
0.36395568 -0.016051989 0.14827408 1513488
0.37900001 -0.0078624468 0.14016773 8948099
0.38193333 -0.0041033826 0.14071523 10987682
0.38550001 0.0010285036 0.14031491 12040370
0.36484486 -0.032126114 0.15625158 2238241
0.37024999 -0.030974936 0.15090755 1186582
0.36582536 -0.025088055 0.15533154 659978
0.37024999 -0.028591778 0.15090755 1054993
0.36410505 -0.015465192 0.15518321 1906190
0.36173224 -0.032244101 0.16393128 1711637
0.36203003 -0.024813475 0.16491666 1185807
0.36294901 -0.016203836 0.16480972 1382159
0.35608697 -0.032429688 0.17555556 791564
0.36096883 -0.032550082 0.17218423 1712407
0.35640165 -0.024939768 0.17460106 857358
0.36016124 -0.025069745 0.17103297 1910041
0.35655001 -0.017315531 0.17563561 659722
0.36072415 -0.016712977 0.17190282 1186320
0.79400003 -0.11870398 0.18955851 11579044
0.33823824 -0.033128604 0.18822873 1448980
0.34157833 -0.033407234 0.18407735 1449237
0.33868524 -0.025978945 0.18848093 1448467
0.34117192 -0.024825873 0.18417336 1383443
0.33886114 -0.016285038 0.18858634 1448465
0.34121692 -0.017098272 0.18438278 1252114
0.79392594 -0.12461561 0.19435532 11381665
0.79266667 -0.11850464 0.19295071 11447458
0.33699998 -0.032451842 0.19047384 1317907
0.33820599 -0.024757015 0.19091152 1514260
0.33823526 -0.017730098 0.19090466 1448467
0.79152387 0.10693602 0.19558227 10658710
0.7952069 0.11580991 0.19465734 10724503
0.79500002 -0.12443934 0.20468962 11381665
0.79362506 -0.11795116 0.20503119 11315873
0.7918334 0.10838928 0.20387393 10527125
0.79392004 0.11549267 0.2044093 10658710
0.7955333 0.20238039 0.23561065 3156002
0.79583335 0.2049987 0.24477151 2959390
0.79250002 0.2108274 0.24671413 2433556
0.79300004 0.10978608 0.25986403 10263952
0.79586375 0.1161963 0.25588754 10395538
0.79215002 0.11551368 0.2659789 10395538
0.7952143 0.12478988 0.26490918 10461331
0.79166657 0.11686137 0.27317315 10395538
0.79488879 0.12514533 0.27495456 10329746
0.79525006 -0.098412223 0.28572807 10724505
0.79300004 0.10978608 0.28956684 10198159
0.79275006 0.11659514 0.28657597 10263952
0.79372406 0.12462554 0.28502509 10329746
0.79525006 -0.098412216 0.29504651 10724505
0.79500002 0.094243534 0.29960272 10000782
0.7944783 0.11484133 0.29488045 10198159
0.79538101 0.12519118 0.29487213 10263953
0.79350007 0.089421719 0.30925363 9869196
0.79488897 0.095370263 0.30507171 10000782
0.79340005 0.089038707 0.31385818 9803403
0.79382151 0.095035084 0.31495348 9934732
0.79588473 0.18456894 0.3146238 10461330
0.7945556 0.096569195 0.32423854 9934475
0.79525936 0.18436091 0.32431754 10526355
0.79473084 0.12476457 0.33463416 10066575
0.79578578 0.13459171 0.33469459 10066831
0.79449999 0.089534417 0.34684154 9737867
0.79384619 -0.13555323 0.35470596 10395540
0.79229993 -0.12494076 0.35422841 10329747
0.79380006 0.089084245 0.35452956 9672073
0.79378587 0.14539923 0.36478239 10066575
0.79369223 0.15433396 0.36435682 10000782
0.7946111 0.13512282 0.37479237 9934989
0.79554552 0.14527141 0.37481299 9935246
0.79532355 0.1950389 0.37485462 8091502
0.79166669 0.20164721 0.3777273 2497809
0.79526925 0.13451868 0.38520491 9869453
0.79505575 0.1846752 0.38538969 10066575
0.79340541 0.19427203 0.3848893 7828844
0.79139996 0.20071633 0.38235691 2629139
0.79292595 -0.094484508 0.39458805 10001039
0.79050004 -0.086374633 0.3935582 9935246
0.79438716 0.17452198 0.39457396 9935246
0.7924332 0.18484007 0.39510146 9935246
0.79331249 0.19433029 0.3946121 8158581
0.79425001 -0.088991694 0.4043785 9935246
0.79431999 0.18434933 0.40534151 9934991
0.79485726 0.19484118 0.40481463 7368295
0.79255557 0.20249128 0.40752894 2367251
0.7944001 0.18492423 0.41542014 9869196
0.79354817 0.19477557 0.41459161 6974048
0.79300004 0.20075102 0.41301924 2301715
0.79451734 0.18490732 0.42500263 9869196
0.7944445 0.19450398 0.42606887 7367523
0.79584384 0.13474889 0.43522388 9606283
0.79557699 0.18449701 0.43556383 9803405
0.79510009 0.19476731 0.43551841 7368037
0.79346865 -0.12454617 0.44507167 9737868
0.79425931 -0.11522833 0.44476694 9803661
0.79293752 0.11720198 0.44349518 9540489
0.7931667 0.12466501 0.44466871 9540490
0.79485184 0.13430257 0.44503027 9606282
0.79455173 0.18427479 0.4452858 9737611
0.79524004 0.19394593 0.44460642 8486519
0.79500002 -0.11327014 0.45035255 9672076
0.79525 0.13523133 0.45049417 9606282
0.79500002 0.18822955 0.45035255 9869196
0.79566669 0.19211352 0.4507302 9803147
