# .PCD v0.7 - Point Cloud Data file format
VERSION 0.7
FIELDS x y z rgb
SIZE 4 4 4 4
TYPE F F F U
COUNT 1 1 1 1
WIDTH 500
HEIGHT 1
VIEWPOINT 0 0 0 1 0 0 0
POINTS 500
DATA ascii
0.4336364 -0.12297134 0.0077777137 15986149
0.43145654 -0.11481203 0.0069604181 16315625
0.43225333 -0.10491799 0.0060913502 15921124
0.43432304 -0.095119528 0.0063151862 15855588
0.43486959 -0.0850868 0.0072609796 16447468
0.43492693 -0.074681886 0.0075297458 16184553
0.43556255 -0.065242954 0.0078500304 16250347
0.43493116 -0.055191662 0.008160688 16184297
0.43796429 -0.045402225 0.0082553048 15987176
0.43892011 -0.035821859 0.0084056929 15856104
0.43855006 -0.025010427 0.0087062269 15395809
0.43900007 -0.018062891 0.0087890951 15329502
0.44000003 -0.0132481 0.0091034155 15460831
0.44100004 -0.0052232333 0.0089618722 15264222
0.44275004 0.0037743342 0.0093083801 14935260
0.4270345 -0.12310086 0.017971359 15788772
0.43145654 -0.12466868 0.013216025 15657186
0.42598835 -0.11470308 0.016121609 16578797
0.43008697 -0.11529801 0.010749261 16513004
0.42660263 -0.10502863 0.01660575 16578797
0.43057147 -0.10468737 0.011268611 16578797
0.42720371 -0.095273674 0.017867388 16447211
0.43157378 -0.094611816 0.012579335 16578797
0.42803341 -0.084866047 0.019017754 16447211
0.43195 -0.084924683 0.013623424 16513004
0.42869559 -0.075215042 0.018742481 16381418
0.43231636 -0.074942574 0.013653384 16447211
0.42885712 -0.067556299 0.018768977 16315625
0.43244943 -0.064924933 0.014403142 16447211
0.42900002 -0.055599507 0.019062268 16315625
0.4323051 -0.054935567 0.014457566 16315625
0.43411988 -0.045078706 0.01470217 16184297
0.43541005 -0.035024684 0.01474773 15987175
0.43556991 -0.024840031 0.014755713 15592417
0.43685564 -0.014816226 0.014930036 15395038
0.44000003 -0.010501304 0.010623962 15263452
0.4375737 -0.0052653989 0.016430771 15131867
0.44013786 -0.0044044144 0.011527078 15066330
0.43753079 0.0046775672 0.017429905 14737110
0.44121581 0.0048643388 0.012432642 14802903
0.43753681 0.015222221 0.017159931 14737109
0.4407391 0.014831838 0.012180008 14737110
0.43786141 0.025184644 0.016595874 15000024
0.43999991 0.024824057 0.011706831 14935002
0.43830559 0.034517679 0.017849393 15131609
0.44099993 0.034992062 0.012981735 15131868
0.4390001 0.044691056 0.018791681 15131352
0.44083574 0.045086626 0.014286373 15131609
0.4390001 0.054489758 0.019083435 15460316
0.44083351 0.055029843 0.014612626 15394523
0.44310856 0.065123513 0.01563531 15525853
0.44431242 0.074971393 0.016536755 15722974
0.44511405 0.085068725 0.01664835 15657438
0.44478577 0.092702918 0.017529611 15525852
0.41822228 -0.12181311 0.027937554 15524828
0.42204663 -0.12377977 0.024053955 15525343
0.41726562 -0.11499194 0.02676365 16381161
0.42117509 -0.11418508 0.02223745 16513003
0.41811773 -0.10764889 0.028250707 16513004
0.42221987 -0.10446911 0.024606885 16315625
0.42275783 -0.095090516 0.025420822 16315626
0.42326245 -0.08502645 0.025250845 16315625
0.42435524 -0.074931957 0.025072139 16184039
0.42510709 -0.065034688 0.024763364 16184039
0.42513621 -0.055015747 0.024926296 16118247
0.42561063 -0.04538944 0.025600562 15921381
0.43011108 -0.043156639 0.020789631 16118247
0.4267121 -0.03532185 0.026687983 15789795
0.43053851 -0.034515418 0.021610122 15789540
0.42659667 -0.025569402 0.027308837 15460830
0.43097925 -0.024430351 0.02211096 15526624
0.42691302 -0.015611571 0.02813396 15329244
0.43185484 -0.014859319 0.022949355 15329245
0.42761284 -0.0055121025 0.028944155 15066074
0.43218181 -0.0052455356 0.023780335 15000282
0.42785192 0.0042563528 0.02913703 14737110
0.4322893 0.0048213578 0.023916982 14736853
0.42796773 0.015069566 0.02893636 14605267
0.43191031 0.014578851 0.023746209 14671061
0.42770278 0.024332905 0.028554529 14933974
0.43188727 0.025090864 0.023369117 14934232
0.42900002 0.030267864 0.029105235 14933974
0.43383154 0.035041049 0.024932211 14999767
0.43605143 0.04500252 0.024963222 14999766
0.4354845 0.054824181 0.024837857 15328730
0.43589425 0.064634845 0.025662938 15526109
0.44040003 0.068394102 0.02101182 15723488
0.43670401 0.074813776 0.026423922 15657439
0.4407779 0.075355962 0.021533333 15854304
0.43764278 0.084704094 0.027015772 15591902
0.44135123 0.085451752 0.022288639 15657182
0.43883345 0.093200646 0.028445013 14933203
0.44160786 0.094421044 0.023711137 14933201
0.40850002 -0.12084095 0.039190095 15524828
0.41482148 -0.12338873 0.03427108 15064792
0.40808833 -0.1156023 0.038390111 16184039
0.41262075 -0.11442357 0.03362564 16315368
0.41533881 -0.10522056 0.035029363 16447211
0.42000002 -0.10064477 0.03046109 16447211
0.41673544 -0.095134877 0.035734292 16381418
0.42000005 -0.094178163 0.030687992 16184041
0.41725001 -0.085309431 0.036477365 16315369
0.42050016 -0.084357455 0.031579368 16315625
0.41727769 -0.075013757 0.037111226 16118247
0.42050022 -0.075170241 0.031972781 16184041
0.41717491 -0.065199628 0.036012314 16184040
0.42047828 -0.065773636 0.031180063 16249833
0.41687816 -0.054992396 0.036214173 16052453
0.4204829 -0.054307807 0.031378016 16052709
0.41761011 -0.04567774 0.037227497 16052454
0.42080453 -0.044021867 0.032573365 16052454
0.41842428 -0.035099126 0.038152475 15723747
0.42131889 -0.034812041 0.033467889 15855331
0.41812813 -0.024712242 0.037702434 15263452
0.42145905 -0.025095282 0.033085912 15395036
0.41841671 -0.01631129 0.038222317 15131866
0.42190781 -0.014768323 0.033932 15197659
0.41900003 -0.0096731428 0.039216544 15328732
0.42261612 -0.0052583502 0.035045687 14934231
0.42262501 0.0047979984 0.035204895 14671316
0.4228836 0.015032674 0.035097517 14605523
0.42307851 0.025181832 0.035052419 14934488
0.42542255 0.0348325 0.035217855 15065816
0.43012503 0.037396334 0.030440148 14933974
0.42664388 0.044428494 0.036478538 15131352
0.43120593 0.045804407 0.031598043 15131094
0.42794451 0.053571973 0.038298327 15394780
0.43134302 0.055562384 0.033485316 15394523
0.42900002 0.061903208 0.039148204 15000019
0.43202153 0.065197825 0.034753233 15657437
0.43303052 0.074999444 0.034897871 15723232
0.43376294 0.084979251 0.034968305 15657439
0.43537039 0.093003578 0.034980826 15394269
0.40536839 -0.12236166 0.045178983 14998998
0.40525585 -0.11497295 0.045041535 16184039
0.41000003 -0.1102462 0.040293816 16381418
0.40814537 -0.10635402 0.046997823 16315625
0.41150001 -0.10399344 0.043177512 16315625
0.40899995 -0.095727801 0.049376041 16249832
0.41200989 -0.094816528 0.044643946 16184039
0.41312867 -0.085166276 0.045037601 16118246
0.41352886 -0.075012617 0.045135558 16052454
0.40854996 -0.062849239 0.048902165 15920868
0.41262645 -0.065480039 0.044544928 15986917
0.40846163 -0.054959815 0.048306197 15920868
0.41202652 -0.054921359 0.043368727 15921125
0.40884206 -0.046765056 0.049045585 15855333
0.41299024 -0.0445753 0.044527616 15986661
0.40900001 -0.030985501 0.049770303 15460831
0.41395897 -0.035124909 0.044811301 15658210
0.40899995 -0.025081061 0.049610719 15263452
0.41370401 -0.024886431 0.044549201 15328989
0.40900001 -0.019017046 0.049770307 15197659
0.41391286 -0.014903527 0.044790227 15197660
0.41548634 -0.0052171987 0.044752222 14868696
0.42000002 -0.0047800918 0.040293366 15131353
0.41601744 0.0048776777 0.04502172 14605523
0.42000005 0.0075102528 0.040293366 14671315
0.41595054 0.015222223 0.045195367 14539730
0.42000005 0.015430697 0.040293366 14605523
0.41602299 0.024663379 0.045812346 14868694
0.42031825 0.02625755 0.041083865 14868695
0.41742 0.034046404 0.047665209 14868694
0.42133334 0.035811912 0.043048147 15000023
0.41850001 0.040793777 0.049456179 15000280
0.4229072 0.045222744 0.044971563 15065815
0.42442721 0.055260036 0.045019913 15328987
0.4260658 0.065122612 0.044958442 15526108
0.43000001 0.069597282 0.040246092 14934226
0.42694861 0.07474187 0.046283238 15657696
0.43000007 0.076104477 0.041324638 15328987
0.42768419 0.084574714 0.047473092 15526367
0.43020007 0.085522629 0.042419259 15526109
0.42856246 0.092252903 0.048575509 15262940
0.43079069 0.093272321 0.043810617 15000282
0.39700004 -0.12038077 0.058531716 15788769
0.40406981 -0.12308384 0.053716168 15065049
0.39694446 -0.11510975 0.058038615 16052196
0.40172356 -0.11468973 0.053023394 16249832
0.39866671 -0.10922021 0.059089974 16052453
0.40364119 -0.10493959 0.054875314 16315369
0.40635911 -0.094993815 0.055146772 16249832
0.40734002 -0.085303426 0.055730991 16118246
0.41052634 -0.083376549 0.050764676 15986660
0.40695754 -0.074918658 0.056151435 15986661
0.41050011 -0.075820193 0.050947342 15986661
0.40506244 -0.064921983 0.055043723 15855332
0.4044739 -0.054989342 0.054766532 15855589
0.40582743 -0.045171555 0.055152722 15855589
0.40624183 -0.035017293 0.055168051 15592418
0.40581805 -0.025044503 0.055070847 15263453
0.40588984 -0.01516759 0.055197839 15131868
0.41050005 -0.011398886 0.050432745 15066075
0.40666282 -0.00502649 0.055950381 14802903
0.41093108 -0.0050079292 0.050932728 14868696
0.40654549 0.0048903632 0.056124669 14539731
0.41109091 0.0049460796 0.050985549 14539731
0.40712345 0.014768624 0.057003427 14539730
0.4115532 0.015282187 0.051881846 14539731
0.40773872 0.024320841 0.057366215 14737108
0.41167924 0.02493613 0.052455612 14802902
0.40900001 0.031346213 0.058770578 14868694
0.41348076 0.035235651 0.054948822 14868694
0.41622648 0.044749275 0.055107288 14999767
0.42016673 0.048169885 0.050473273 15000024
0.41804656 0.053826228 0.057446808 15328988
0.42100006 0.055776034 0.053276241 15394780
0.41885719 0.062471304 0.059514519 15591902
0.42165011 0.064970396 0.054786336 15526109
0.42327014 0.074950881 0.054966725 15591902
0.42432314 0.085025817 0.055150181 15460574
0.42603332 0.093126245 0.054594938 14605010
0.38764286 -0.1207621 0.06712959 15525343
0.39100003 -0.12023912 0.062221821 15656928
0.38831589 -0.11737996 0.067896426 16051684
0.39320847 -0.11409333 0.064225323 16183269
0.39649495 -0.10597681 0.066109166 16249319
0.40072498 -0.10252038 0.062504254 16249832
0.39784619 -0.095869616 0.069045044 16380650
0.40198958 -0.094896518 0.063915916 16249833
0.39900002 -0.088607043 0.069102883 16117735
0.40220186 -0.084971249 0.06481912 16118247
0.3987143 -0.071475908 0.069052733 15920869
0.40192536 -0.075152181 0.06471885 15920612
0.39737883 -0.064316131 0.067155108 15789283
0.40092596 -0.065798655 0.062411219 15789538
0.39650509 -0.05485785 0.066172548 15789795
0.40028125 -0.054571297 0.061124649 15855332
0.39601076 -0.045208547 0.066898234 15855333
0.40089574 -0.044642687 0.061647188 15855332
0.396377 -0.035142798 0.067393936 15526625
0.40112722 -0.035212159 0.062295992 15592161
0.39726654 -0.025019251 0.067012109 15197661
0.40101784 -0.025083203 0.062072847 15263454
0.39723319 -0.014635738 0.066362992 15065818
0.40054756 -0.015120481 0.061354477 15131868
0.39771438 -0.0055139815 0.067889094 14671317
0.40105641 -0.0046680556 0.063001297 14737110
0.39762005 0.005062399 0.068116665 14408145
0.40188605 0.0046201618 0.063247539 14473938
0.39833343 0.012356556 0.068831101 14342863
0.40196279 0.015468378 0.064443529 14473937
0.40370435 0.025235739 0.064941682 14737108
0.40676546 0.034367889 0.065676689 14737108
0.41064712 0.037569612 0.061505884 14868694
0.40836668 0.04286686 0.068238541 14802901
0.41252941 0.045744084 0.064019591 14934231
0.41471833 0.054989953 0.065017477 15328988
0.41575962 0.064675346 0.065442383 15526110
0.42016673 0.068661593 0.061128806 15591902
0.41747454 0.074446984 0.067014895 15591904
0.42081138 0.075638555 0.062191393 15657696
0.41813159 0.084601283 0.068087123 15460318
0.42094299 0.085221566 0.063200623 15526366
0.41900006 0.091162004 0.069231674 15197146
0.42160788 0.092797272 0.064747058 14737107
0.38511109 -0.12078337 0.071903624 15196377
0.37900004 -0.11876818 0.079835013 16051683
0.3849324 -0.11493208 0.075151168 15920611
0.39019999 -0.1111333 0.070684411 16183269
0.3880682 -0.10777304 0.077302746 15986660
0.39200982 -0.10406801 0.074027374 16183782
0.39425176 -0.094966039 0.075082302 16249320
0.39624023 -0.085014626 0.074701637 16052198
0.3952913 -0.075107589 0.074921288 15920356
0.39290482 -0.065036148 0.075021394 15657441
0.38865119 -0.054592032 0.07848148 15591904
0.39182204 -0.055266634 0.073408 15723490
0.38828853 -0.04542882 0.078258321 15789283
0.39140016 -0.044736259 0.073417306 15789284
0.38796365 -0.035295431 0.078087352 15460318
0.39225885 -0.034635376 0.073092416 15526113
0.38835564 -0.025512043 0.078450128 15131355
0.39243147 -0.024610005 0.073371522 15131868
0.38834292 -0.01472884 0.078866489 14868696
0.39283687 -0.014675747 0.073374093 15000282
0.38884613 -0.0070854607 0.079177819 14605524
0.393094 -0.0051091677 0.07463333 14605524
0.39364779 0.0045973742 0.074913338 14408144
0.39548084 0.014912475 0.074960686 14342351
0.40000001 0.01979412 0.070212476 14408915
0.39746484 0.023708269 0.076537974 14539729
0.40046796 0.026461588 0.072706588 14605522
0.39900002 0.030486394 0.079377607 14605522
0.40275615 0.035130128 0.075132415 14671315
0.40587595 0.04507127 0.075101227 14868694
0.41000003 0.049083494 0.070048161 15131353
0.40760025 0.05398161 0.076840542 15263196
0.41111311 0.056318 0.072523884 15394524
0.40900001 0.060772654 0.079132907 15394782
0.41207591 0.065284587 0.075093046 15460318
0.41441298 0.075193688 0.074716739 15591904
0.41476592 0.084959164 0.074699223 15394525
0.41611764 0.092487358 0.075438984 14539218
0.42000002 0.094525896 0.070773423 14868183
0.37557146 -0.12045398 0.084999621 15196376
0.37655199 -0.1157852 0.086022101 15854304
0.38130233 -0.11261422 0.082206465 16051683
0.37849998 -0.10886395 0.088590212 15920097
0.38457432 -0.10514028 0.084835127 16117476
0.39016667 -0.10095487 0.080969118 16183527
0.38715467 -0.09487313 0.086873427 16051684
0.39089581 -0.094621211 0.081995569 16183270
0.38808572 -0.085168786 0.087494999 15985892
0.39152789 -0.084846601 0.082431234 16051941
0.38754433 -0.074786983 0.086900212 15854563
0.3912501 -0.076049015 0.08199244 15789283
0.38694823 -0.064684659 0.085691608 15788769
0.39037502 -0.066530958 0.081031196 15657441
0.3849847 -0.054985922 0.084982932 15460061
0.38399187 -0.04478037 0.084906682 15525855
0.38438627 -0.034969267 0.085011184 14605010
0.38450754 -0.025078939 0.085035019 12368564
0.38499245 -0.015195449 0.085143171 12434613
0.38596418 -0.0052362755 0.084978662 14144972
0.38706091 0.0044300985 0.08505521 14144971
0.39000002 0.008160702 0.080508724 14276557
0.38832501 0.013957957 0.08679603 14144971
0.39120755 0.015871566 0.082264595 14210765
0.38900003 0.020843428 0.088999063 14408143
0.39375192 0.025168069 0.084866047 14539730
0.39679989 0.034574483 0.085899107 14671315
0.40013638 0.037514076 0.081859998 14737108
0.39765999 0.043884732 0.087895937 14868694
0.40126252 0.045619581 0.083308719 14934487
0.39900002 0.050568819 0.089652337 15262939
0.40283623 0.055057101 0.08502572 15263196
0.40564245 0.064653262 0.08544077 15395038
0.41044447 0.067608111 0.080799654 15460574
0.40749484 0.074887425 0.085966848 15395038
0.41094112 0.075283304 0.080931 15460831
0.40824223 0.084127486 0.087056227 15263452
0.41120362 0.085665375 0.082372867 15263196
0.40900001 0.090454422 0.089665152 14934233
0.41265118 0.092627622 0.084059514 13288894
0.36730003 -0.12069019 0.096109122 15393242
0.37050003 -0.12044124 0.092355154 14998483
0.36712998 -0.11552593 0.097129866 15656925
0.37224433 -0.11387493 0.092520326 15723232
0.36840004 -0.10906434 0.099334762 15460316
0.37510198 -0.10564799 0.095727749 15657439
0.38099998 -0.10241892 0.091768667 15985890
0.37733331 -0.097131468 0.098121852 15789281
0.38236186 -0.094353348 0.093890101 15920611
0.38292623 -0.084979028 0.095091581 15854818
0.37900001 -0.070856899 0.099354416 15526111
0.38266888 -0.074979067 0.094895102 15591647
0.37840912 -0.064002864 0.098695278 15460317
0.38198102 -0.065470919 0.093731053 15723233
0.37834555 -0.054790664 0.098295964 15328731
0.38137493 -0.055231187 0.093276665 15460061
0.37872216 -0.045806866 0.098812856 15065560
0.38093716 -0.044834957 0.093752906 15065560
0.37900001 -0.034923445 0.099354416 8355708
0.38129568 -0.034877121 0.095082343 11973548
0.37841105 -0.024099873 0.097353742 2633260
0.38098538 -0.02540594 0.092582092 2699050
0.37833339 -0.016067192 0.097701661 2633258
0.38114277 -0.014364375 0.093305044 3159086
0.38167423 -0.0052376543 0.095135912 12368304
0.38217813 0.0049436148 0.095084138 13881799
0.38448885 0.014918718 0.095010586 14079178
0.38749024 0.02404266 0.095657766 14473936
0.39110002 0.027504811 0.092117146 14605522
0.38848391 0.032632377 0.098377466 14736851
0.39229909 0.035499591 0.094112106 14736851
0.39482206 0.045109954 0.095055729 14933974
0.39713246 0.054357134 0.095970474 15197402
0.40004349 0.057012547 0.09188173 15328731
0.39830443 0.063009173 0.098576009 15328732
0.40116346 0.065336846 0.09421616 15394525
0.40354452 0.075110629 0.094834723 15394782
0.40533891 0.084928103 0.095201179 15263196
0.40816677 0.091958657 0.095496573 13684166
0.41025004 0.094492882 0.09326081 7235944
0.36289468 -0.12078569 0.10604256 14275788
0.36311898 -0.11470399 0.10471543 15328731
0.36653209 -0.105578 0.10559019 15328987
0.37109092 -0.10257144 0.10156981 15526110
0.36845252 -0.096916132 0.10792535 15460317
0.37281466 -0.094206005 0.10395656 15723232
0.37575465 -0.08531557 0.10524847 15788769
0.38000003 -0.082608484 0.10050616 15723489
0.37652889 -0.075070173 0.1051513 15525854
0.38000005 -0.07727097 0.10050617 15657697
0.37570286 -0.065109774 0.10509997 15328731
0.37616184 -0.054912861 0.10520691 15065302
0.3777436 -0.044864409 0.10520516 14802132
0.37869233 -0.035503693 0.10598441 11315618
0.38014293 -0.034520078 0.10253503 11578533
0.3762373 -0.024812497 0.10521797 2501671
0.37589371 -0.014831262 0.10497127 3158828
0.37855124 -0.005160159 0.10686995 10855580
0.38038877 -0.0052697095 0.10278454 11315874
0.3781459 0.0047314484 0.10535049 13487042
0.38014293 0.0074339681 0.10105228 13816006
0.37815952 0.014377968 0.10718883 14079178
0.38088563 0.016251149 0.10277588 14210764
0.37849998 0.020945374 0.10941263 14408143
0.3827768 0.025336215 0.10481277 14539729
0.3855184 0.035167247 0.10517465 14671315
0.39000002 0.0393852 0.10041206 14736595
0.38728091 0.044207536 0.1064787 14868437
0.39136547 0.046167944 0.10194145 14934230
0.38885713 0.05201479 0.10896051 15197146
0.39271426 0.055391528 0.10466001 15262939
0.39512777 0.064778998 0.10518819 15328732
0.40000001 0.069111563 0.10048964 15394525
0.397425 0.074304812 0.10649276 15328732
0.40028253 0.075972021 0.10204005 15328732
0.39820004 0.082116112 0.1087209 15197146
0.40173015 0.0855949 0.10454468 15066074
0.40502131 0.092630506 0.10507444 12500150
0.36634785 -0.1214394 0.1143126 14012611
0.36625445 -0.11463504 0.11522313 12894645
0.36727828 -0.10511723 0.11474604 13487297
0.36797658 -0.095037259 0.11442688 14079179
0.36788997 -0.085329406 0.11543909 13947594
0.37129173 -0.083301425 0.11167222 15526112
0.37178779 -0.075050458 0.11488531 14868438
0.37249339 -0.064909704 0.11466075 15065816
0.37404606 -0.055141449 0.11508603 14539728
0.37600693 -0.04525407 0.11478142 14079178
0.3777419 -0.035156347 0.11489772 9802635
0.37254828 -0.025142211 0.11490235 2239012
0.37253246 -0.015132553 0.11495093 2961705
0.37722197 -0.005210463 0.11499663 10131856
0.37507802 0.0050041284 0.11493427 12631990
0.37479037 0.015039727 0.11491205 13816264
0.37610021 0.024719054 0.11557869 14342609
0.38035721 0.027472815 0.11096733 14605266
0.37770322 0.0336973 0.11726145 14408402
0.38150001 0.036061529 0.11321305 14605523
0.37889999 0.041901242 0.11919712 14408915
0.38293096 0.045148391 0.11480295 14802902
0.38579583 0.054879207 0.11515405 15066074
0.39000002 0.059471134 0.11045504 15131353
0.38798887 0.064162463 0.11649967 15131867
0.39091119 0.066302881 0.11203252 15197402
0.38885713 0.071391396 0.11864883 15197659
0.39294061 0.075459167 0.11447918 15197404
0.39535591 0.084834665 0.11501934 14934489
0.40000001 0.088620052 0.11047798 14802903
0.39654997 0.091058739 0.11676192 13487557
0.40000001 0.090961061 0.1114144 14276817
0.36800003 -0.1127366 0.12059265 12303025
0.36800003 -0.10842913 0.12059263 11579816
0.36900002 -0.095334306 0.1200565 9606283
0.36900002 -0.081512943 0.1200565 9803405
0.37 -0.080434576 0.12038185 10066577
0.37100002 -0.077756912 0.12070721 10461336
0.37209091 -0.064337701 0.12019107 12631734
0.37415391 -0.05444847 0.12072238 13223871
0.37588888 -0.044553321 0.12053739 13487812
0.37630007 -0.035400603 0.12105554 8619133
0.3706522 -0.025214434 0.12179995 2041378
0.37057787 -0.015398313 0.12182163 3027243
0.37658334 -0.0028928586 0.12068626 11250851
0.37416658 0.0056082332 0.12147428 10790044
0.3738704 0.015130366 0.12253305 11118751
0.37384772 0.024874005 0.12201388 12566714
0.37583873 0.035832878 0.12202397 13685194
0.37832561 0.043563455 0.12296665 13619402
0.38033336 0.047934163 0.12369002 13355973
0.38128707 0.054997891 0.1245568 13290179
0.38305521 0.064905837 0.12445414 14013901
0.38597578 0.074709572 0.12518144 14540501
0.39063641 0.078524254 0.12094274 15000794
0.38848943 0.083101325 0.12653147 14540502
0.39147365 0.086201236 0.12353852 14540244
0.39252946 0.091152951 0.12602377 13421765
0.36400002 -0.03098486 0.13973297 1844250
0.36400005 -0.025019944 0.13973297 2106911
0.36400005 -0.016072575 0.13973297 2237983
0.38466671 0.075769916 0.13055682 10592922
0.38794115 0.08400365 0.13097289 13224899
0.39011115 0.088712566 0.13149141 13948367
0.39150003 0.091320001 0.13104245 13750733
0.36377266 -0.030965777 0.14475587 1186322
0.36328346 -0.024928004 0.14488651 1251858
0.36292163 -0.015729304 0.14495251 1842453
0.36411315 -0.032094281 0.15612265 2041119
0.36477312 -0.025465019 0.15578593 659979
0.36394075 -0.015158762 0.15517223 2432278
0.36190572 -0.032586791 0.16326162 1712152
0.36315352 -0.024876814 0.16511977 1186322
0.36465776 -0.016099863 0.16503872 1316623
0.34738234 -0.033467315 0.17934617 1581079
0.35546815 -0.032441892 0.17833206 1054735
0.36297065 -0.032834522 0.17423871 1251600
0.34751341 -0.026070332 0.17933297 1580310
0.35542375 -0.024929482 0.17774911 1054479
0.36111715 -0.024887191 0.17299595 1515029
0.34900001 -0.017452782 0.1797276 1514260
0.35645589 -0.016986296 0.17847066 923151
0.36111772 -0.016825022 0.17392635 1186065
0.34357047 -0.033462062 0.18520783 1515030
0.34375972 -0.024894524 0.18502204 1449238
0.34358865 -0.016676389 0.1851656 1448725
0.35443747 -0.013410422 0.18049623 1513748
