# .PCD v0.7 - Point Cloud Data file format
VERSION 0.7
FIELDS x y z rgb
SIZE 4 4 4 4
TYPE F F F U
COUNT 1 1 1 1
WIDTH 194
HEIGHT 1
VIEWPOINT 0 0 0 1 0 0 0
POINTS 194
DATA ascii
0.48310003 -0.031848621 -0.083773948 15459295
0.48311636 -0.025751501 -0.084274128 15394525
0.4781667 -0.030814439 -0.072598614 15524832
0.4806875 -0.031563919 -0.077949964 15393503
0.47798008 -0.024886435 -0.073295109 15262684
0.48016664 -0.025839323 -0.078567147 15591392
0.47750002 -0.019966379 -0.071004733 12368563
0.47500002 -0.032361563 -0.065410212 14669781
0.47359428 -0.025443787 -0.06505771 15460063
0.47300002 -0.019778214 -0.064819559 11973549
0.46533337 -0.030714033 -0.052492592 15064538
0.47100002 -0.030720778 -0.05956272 15064538
0.46680957 -0.02487836 -0.054685917 15525341
0.47000006 -0.025887683 -0.059314013 15656929
0.4668889 -0.01940199 -0.054802462 13025723
0.46400002 -0.030535763 -0.049172968 15064538
0.45900002 -0.02510271 -0.041390032 15328476
0.46236527 -0.024746442 -0.046571255 15394270
0.45900005 -0.016936306 -0.041497473 12368563
0.46187502 -0.018908326 -0.046521373 13157565
0.45653328 -0.032129295 -0.034012508 14143436
0.45688912 -0.024985462 -0.03532517 15328219
0.4585357 -0.017639032 -0.036213677 12894906
0.44866669 -0.030839602 -0.022078112 14077642
0.45380005 -0.032573726 -0.027998932 14077641
0.44834295 -0.02501463 -0.022573013 15328476
0.45222935 -0.024863685 -0.027506853 15262170
0.44888893 -0.01865297 -0.021854945 13881543
0.4527778 -0.018163608 -0.02664393 13552322
0.44628572 -0.030602036 -0.018529577 14078154
0.44420648 -0.024935922 -0.015006267 15131095
0.44654542 -0.017624479 -0.014951069 13420991
0.44075003 -0.031585637 -0.0080179889 13814724
0.43764412 -0.024656644 -0.0029949946 15064789
0.44049987 -0.025063317 -0.0078984536 14998995
0.43875003 -0.018730875 -0.0011756879 14013128
0.44305459 -0.016277747 -0.0053647603 13289405
0.43400002 -0.030339472 0.0091244206 13617346
0.43370768 -0.024683144 0.0050979895 14736337
0.43670207 -0.016950913 0.00538918 13815491
0.44100001 -0.013405062 0.002494927 12499887
0.43300003 -0.030269567 0.010623888 13551553
0.42624193 -0.024421055 0.016583027 14736081
0.4306539 -0.024329811 0.010991891 14736338
0.42686671 -0.018915275 0.018030131 14209994
0.43239537 -0.016451169 0.013158667 13683905
0.41900012 -0.024386443 0.028998977 14670290
0.42146474 -0.024180721 0.02472329 14538702
0.42458665 -0.016326567 0.025419706 13618113
0.42999998 -0.012947005 0.022126613 12499376
0.41676128 -0.023847355 0.034974005 14341838
0.41742501 -0.017696967 0.036426298 13947590
0.42190254 -0.014620377 0.034360167 13355454
0.43000001 -0.01093373 0.034206267 13026490
0.43414286 -0.00856796 0.038457036 12105391
0.4084 -0.023234444 0.048166465 14539216
0.41187716 -0.023616787 0.043501381 14341581
0.40883335 -0.019328063 0.049111705 14539731
0.4148027 -0.015955208 0.045078974 13750214
0.42100003 -0.011899976 0.044470869 13158076
0.42550001 -0.0075397082 0.047683213 11776423
0.43240917 -0.0060273465 0.044466097 11184544
0.40485534 -0.023960613 0.055354688 14407630
0.40718594 -0.01703432 0.055931278 14210507
0.41243404 -0.012796994 0.053659376 13552834
0.41492316 -0.0092775719 0.054953769 13158076
0.42238891 -0.0063944901 0.051615462 10855835
0.39874998 -0.022741415 0.069136836 14539730
0.40097007 -0.024826623 0.064413026 14276044
0.39900002 -0.019486146 0.069102883 14737110
0.40412185 -0.014953339 0.065045401 14276301
0.41 -0.010425185 0.061409801 13552578
0.407069 -0.007984451 0.067108206 13289408
0.41045457 -0.0079910168 0.06208824 12565685
0.39642859 -0.030629558 0.076871499 13552322
0.39642158 -0.02495981 0.074838594 14210508
0.39679992 -0.015419173 0.075866692 14605523
0.4005937 -0.012704141 0.071956508 14342096
0.39758828 -0.0080288341 0.078218319 13684422
0.40203336 -0.0077115591 0.073007889 13092030
0.39216673 -0.030525999 0.08545623 13683652
0.389 -0.024006378 0.089044593 7629413
0.39197493 -0.024764191 0.084372535 14078922
0.38900003 -0.017631788 0.08922673 5324860
0.39254159 -0.014770562 0.084669121 14144716
0.39400002 -0.0078100166 0.085882597 13487300
0.38863158 -0.031430054 0.097041421 11775654
0.39061293 -0.033296715 0.095557272 12762551
0.38597101 -0.02503637 0.094796881 2764073
0.38609564 -0.015428471 0.094907664 3092781
0.39000002 -0.011514383 0.090597346 8748665
0.38854548 -0.008472845 0.096948631 12435125
0.3907682 -0.005056133 0.094906576 12303025
0.39200002 0.00012697621 0.099091642 10198161
0.38711318 -0.032624215 0.10574738 10394259
0.39073476 -0.036761954 0.10485503 13486531
0.37836963 -0.023389252 0.10791079 2173221
0.38184702 -0.02554919 0.10354268 2304292
0.37852943 -0.017156579 0.10793483 2173477
0.38194406 -0.01438613 0.10397195 2699822
0.38730282 -0.0060292101 0.10546049 12434868
0.39009994 -0.0018825841 0.10272042 13224126
0.38900003 0.00042955644 0.10895761 13224639
0.39100003 0.001257433 0.10483663 11579815
0.389 -0.041308843 0.11802623 13946311
0.39019996 -0.041710056 0.11489487 13683652
0.37900001 -0.030043593 0.11931744 2304548
0.38574997 -0.035073604 0.1152311 11381154
0.39000002 -0.038676046 0.11091153 13683908
0.37703818 -0.02434486 0.1152839 2041889
0.38040003 -0.029264051 0.11218735 2304804
0.37721166 -0.01564898 0.11557283 2239268
0.38070005 -0.011239165 0.11334591 5726552
0.38506868 -0.0052561797 0.11502989 12434608
0.38854906 0.0017852727 0.11592714 13289919
0.39119357 0.0050982828 0.11481608 12369075
0.39700001 0.010351821 0.11987263 10065040
0.38668916 -0.04282514 0.12538424 13683910
0.39000002 -0.043697529 0.12049799 13814725
0.37800005 -0.031336863 0.12590125 4341817
0.38371003 -0.036095079 0.12464821 11907241
0.37360984 -0.025111435 0.12486953 1778461
0.37372875 -0.015082511 0.12510109 2961963
0.38374537 -0.0045882724 0.12473815 12105387
0.38684767 0.0037900701 0.12554875 13092283
0.3915385 0.0081664221 0.12290657 12894905
0.39300001 0.011817773 0.12594295 11316130
0.38900003 -0.050870731 0.13840215 13683909
0.39053848 -0.052409545 0.1380356 13552324
0.38533321 -0.044638094 0.13546881 13486530
0.36900002 -0.030114722 0.13862896 2173475
0.37574515 -0.032327637 0.13515697 6117970
0.3819117 -0.037035167 0.13440327 11841191
0.36708927 -0.024511924 0.13596962 1910046
0.37109303 -0.025925528 0.13154434 1712412
0.36748886 -0.016357699 0.13623914 2303519
0.37111548 -0.014527133 0.13249157 3882293
0.3778182 -0.0089626824 0.13699017 11118493
0.38211113 -0.00416438 0.13509738 11776679
0.38498473 0.0046994919 0.13502844 12698039
0.38810906 0.012452454 0.13669384 13290175
0.39083344 0.014678979 0.13373518 12565939
0.38818523 -0.051505759 0.14561227 13552323
0.39192688 -0.055017557 0.14531082 13223359
0.38290149 -0.044761121 0.14490341 13025979
0.36845455 -0.030618852 0.14665516 1251859
0.37438458 -0.033553969 0.14328407 6645345
0.3804 -0.038035717 0.1442223 11118238
0.36610427 -0.024633735 0.14501914 1186066
0.36534321 -0.015210352 0.14472547 2763298
0.37 -0.011140446 0.14030391 11052952
0.36633337 -0.0093148602 0.1467649 7627867
0.37578264 -0.0077513242 0.14500657 10000271
0.38120592 -0.0040602298 0.14333151 11316386
0.38299051 0.0049053798 0.14420448 12040624
0.38663441 0.013458388 0.14464086 12829883
0.39040741 0.018609321 0.14445423 13158847
0.39192316 0.021265171 0.14600639 11842732
0.3876 -0.051779032 0.15096879 13420993
0.39166671 -0.055295948 0.15137154 13223615
0.38226664 -0.045285527 0.15074009 11250340
0.36460024 -0.03235627 0.15604104 2763814
0.36535835 -0.025185168 0.15528025 725258
0.3644284 -0.015282138 0.15517898 1971983
0.36400002 -0.0092555294 0.15592346 6116425
0.39066669 0.019027924 0.15057927 8816510
0.39100003 0.020264091 0.15009779 13290434
0.36198217 -0.032251041 0.16364969 1777944
0.3620117 -0.024882706 0.16480395 1120271
0.3634584 -0.016539613 0.16429304 1447694
0.43400002 0.017920613 0.16965272 5591887
0.43400002 0.021476619 0.16965272 6117973
0.34604168 -0.033066284 0.17799659 1580824
0.35593337 -0.032214686 0.17657898 922893
0.36150005 -0.03258732 0.17296346 1580052
0.346277 -0.025101954 0.17819181 1448981
0.3556 -0.024993556 0.17601502 1054480
0.36021674 -0.024902673 0.17202535 1646871
0.3467333 -0.016121397 0.17855644 1317396
0.35549992 -0.016703701 0.17687286 1054478
0.36027282 -0.017555859 0.17261271 1252113
0.43383339 0.01600582 0.17478649 6447448
0.43428132 0.021998903 0.17417705 7237478
0.33880007 -0.032964706 0.18898855 1515030
0.34234163 -0.033490822 0.18389097 1515030
0.33884621 -0.02838547 0.18908152 1646617
0.34183496 -0.024774011 0.18433271 1383445
0.33900002 -0.015422176 0.18931618 1711125
0.34185255 -0.016776934 0.18467191 1382933
0.33821437 -0.032975886 0.19091283 1514774
0.33861116 -0.027544891 0.19115598 1449495
0.34000003 -0.022913348 0.19130656 1449237
0.33900011 -0.017057125 0.19115995 1711641
0.34 -0.018992573 0.19074641 1317395
