# .PCD v0.7 - Point Cloud Data file format
VERSION 0.7
FIELDS x y z rgb
SIZE 4 4 4 4
TYPE F F F U
COUNT 1 1 1 1
WIDTH 329
HEIGHT 1
VIEWPOINT 0 0 0 1 0 0 0
POINTS 329
DATA ascii
0.56583333 -0.08421652 0.0079921782 15855333
0.57100004 -0.080685511 0.0059882938 15986917
0.56850004 -0.079001948 0.0092904121 16052453
0.57421219 -0.075613402 0.0068560271 15855331
0.57620001 -0.068876661 0.0088764075 14999767
0.57600003 0.029851958 0.0094129769 14408145
0.57322222 0.034921184 0.0082490975 13355201
0.56900001 0.041477524 0.0092985826 10920349
0.57050002 0.040251322 0.008654736 11051935
0.54850006 -0.091632374 0.019235961 15327967
0.55236363 -0.091512375 0.015841629 15789029
0.54668421 -0.084696397 0.018227249 15855077
0.55430311 -0.0853834 0.014123233 15789284
0.56136364 -0.083321638 0.011084486 16315627
0.54657143 -0.077507623 0.018618856 15197146
0.55425006 -0.075851336 0.017097885 15394525
0.56444454 -0.074397638 0.014244578 15920869
0.57175004 -0.072258487 0.011517159 16513262
0.56727272 -0.066027798 0.018564519 15855331
0.57255554 -0.065792136 0.014116065 15920868
0.56900001 -0.058691822 0.019422082 15657698
0.57066673 -0.058597337 0.017786259 13355198
0.56827265 0.025581567 0.019323919 15065562
0.57445014 0.027758118 0.015029031 14605268
0.56635708 0.036404103 0.017583147 14934233
0.57253331 0.03404453 0.013331373 14868184
0.55760002 0.048999269 0.018770857 14013132
0.56348658 0.043416634 0.016219135 14868185
0.53900003 0.056955982 0.017640986 11514021
0.54263633 0.054447804 0.017874284 11514022
0.55200005 0.050898131 0.01774399 12828859
0.54500002 -0.090728119 0.021663753 14604756
0.52900004 -0.08032456 0.029697681 15526113
0.53574997 -0.084425345 0.026649956 15262685
0.54259098 -0.086026907 0.021911904 15526113
0.52672225 -0.073881775 0.028540019 15855591
0.53451431 -0.07557945 0.025028842 15855334
0.5433889 -0.075150274 0.021245828 15592162
0.55200005 -0.071539447 0.020650946 15065817
0.52695 -0.065761276 0.028532419 15329246
0.53318757 -0.064342089 0.02657355 15066075
0.54300004 -0.063395865 0.024883445 15000025
0.55585712 -0.066921555 0.022469074 15000282
0.56457144 -0.063066237 0.022436911 15197404
0.53405267 -0.056212526 0.028925037 14868181
0.54222226 -0.056101918 0.027052773 14933973
0.5575 -0.057246931 0.025424035 15197146
0.56575006 -0.058089558 0.023144877 15328733
0.55600005 0.019704189 0.028610229 14342352
0.56682348 0.01797686 0.025181798 14605269
0.53900003 0.029196193 0.028997263 14408145
0.54538465 0.026493844 0.028158892 14276559
0.55445844 0.02548668 0.025659934 14407889
0.56268424 0.024237087 0.02278153 14802390
0.53646153 0.035429142 0.029341506 14540244
0.54441184 0.03585856 0.027110711 14473938
0.5546844 0.03496806 0.023958683 14407633
0.56121427 0.034431048 0.021557841 14736597
0.53784621 0.043566965 0.028546035 14605524
0.54440004 0.046103932 0.026069997 14408402
0.55390906 0.044500425 0.022426842 14473939
0.56 0.04147695 0.020950235 14670550
0.53900003 0.058848701 0.020795507 11513764
0.54328847 0.054418221 0.02491856 12960443
0.55150002 0.050530426 0.021277191 14605269
0.51824999 -0.080814965 0.038191378 14209998
0.52463156 -0.08231128 0.034354534 14341840
0.53144449 -0.085813969 0.03162995 14078411
0.50557148 -0.071527906 0.038523369 15460320
0.51505554 -0.075228699 0.03610944 15262685
0.52309525 -0.075754896 0.031871304 15657955
0.49771431 -0.064005919 0.039092761 15724004
0.50484002 -0.065402113 0.036987204 15723748
0.51630777 -0.065190203 0.034002848 15723492
0.52425009 -0.064460814 0.031780232 15460576
0.49833336 -0.058168162 0.039642144 15329247
0.50460005 -0.057125002 0.038956571 15263453
0.51471996 -0.055643234 0.037374243 15000281
0.52489656 -0.055125866 0.034461353 14933974
0.53150004 -0.053635992 0.031546384 14736595
0.51750004 -0.048896596 0.038743891 14736595
0.5255 -0.048829239 0.036877349 14736595
0.53340006 -0.04902605 0.032437876 13947078
0.52149999 0.0081046829 0.038431771 14342352
0.51686674 0.016053259 0.039259877 14211023
0.52463335 0.015770404 0.036200061 14276559
0.53223079 0.015315546 0.033231035 14342352
0.54633337 0.012116939 0.032801088 14408145
0.55375004 0.012496636 0.031733833 14342352
0.51366669 0.025417091 0.038098816 14408401
0.52412009 0.02514834 0.034426007 14342352
0.53257895 0.025370125 0.031535216 14276816
0.51545835 0.034111436 0.038435843 14408915
0.52460009 0.035498153 0.034888931 14539987
0.53168428 0.034821879 0.031483267 14474452
0.51750004 0.040752687 0.03995537 14210766
0.52517653 0.044541974 0.037215207 13948364
0.53299999 0.045522381 0.032375414 14211023
0.52720004 0.051761657 0.038975682 13882572
0.53466672 0.054942098 0.034983966 13882316
0.54000002 0.057061654 0.030315211 13026494
0.53333336 0.060518742 0.037015509 11053471
0.51600003 -0.080766536 0.041047521 14012620
0.49900001 -0.071096607 0.043199684 14868183
0.50486672 -0.073515311 0.041894689 14736597
0.51166672 -0.07789316 0.041500706 14144204
0.47900003 -0.060958289 0.048756994 15395040
0.48300007 -0.06429258 0.047421258 15197405
0.49402937 -0.065426424 0.04245761 15526369
0.47850001 -0.058654889 0.048146009 15658212
0.48369771 -0.054877505 0.045288559 15460577
0.49442106 -0.055877537 0.041641511 15329246
0.50279999 -0.052101295 0.040466137 14868181
0.48499995 -0.046891369 0.046069566 14736851
0.49362504 -0.048230115 0.04258512 14670800
0.48775002 0.0075790184 0.049076736 14276559
0.49266666 0.0066367905 0.047706433 14276816
0.50414288 0.0084254229 0.044821441 14211279
0.51636845 0.0071632094 0.041832853 14276816
0.48524001 0.015239516 0.04891089 14276816
0.49476466 0.015150284 0.046095308 14211536
0.50468427 0.015275734 0.043065254 14145743
0.5119167 0.014743146 0.041320238 14145743
0.48580003 0.024101645 0.048933782 14211536
0.49481821 0.024904842 0.046058275 14277329
0.50410521 0.025161294 0.042019878 14343122
0.49573171 0.034782574 0.047636747 14144973
0.50417244 0.034553755 0.043355811 14145743
0.51133341 0.036978338 0.041274033 14211536
0.49866667 0.041409485 0.048618376 13816265
0.50488889 0.044291813 0.047163107 13816521
0.51450002 0.045807514 0.043358304 13882571
0.52080005 0.047474585 0.04045362 13816778
0.50800002 0.050112512 0.049925022 13290434
0.51633334 0.054275062 0.04737011 13224385
0.52387995 0.056439523 0.043334898 13553095
0.53000003 0.059106808 0.040920474 14407891
0.52460003 0.060592543 0.044675242 13420996
0.46866667 -0.060557812 0.058128167 14473425
0.47404167 -0.062641136 0.054801822 14473425
0.48050001 -0.065930709 0.051299855 14736597
0.45714289 -0.052141238 0.059143908 15197405
0.46414286 -0.058217589 0.059273355 14539218
0.45484212 -0.044855535 0.059102487 15000538
0.45400003 -0.038823087 0.059143275 14802899
0.46670592 -0.0033172499 0.058974519 14539218
0.47025001 -0.0012236105 0.056122232 14539218
0.45725 0.0092464788 0.059386197 14211279
0.4656857 0.0052536619 0.058002241 14210766
0.47326845 0.004373413 0.054555293 14276816
0.4843334 0.0063253376 0.050870433 14276559
0.45762509 0.014481117 0.059099846 14210766
0.46475616 0.015617479 0.056361128 14145486
0.47361532 0.014708304 0.052792396 14145743
0.48044443 0.013899742 0.050715972 14145743
0.46547368 0.02398604 0.057553247 13882315
0.4739444 0.024772769 0.053963844 14014158
0.48244444 0.026642419 0.051112428 14145486
0.47516671 0.031116219 0.057821587 13487302
0.48514909 0.035029601 0.055741239 13552837
0.4914737 0.036978733 0.051992889 13816008
0.48822224 0.041431591 0.058140025 12566711
0.49479491 0.044300463 0.054199535 12961212
0.50245452 0.047750972 0.051410329 13289662
0.49900001 0.050392859 0.054881364 11908781
0.50400007 0.051370215 0.053306103 12763318
0.51363641 0.055377796 0.051135074 12500406
0.43900001 -0.050215434 0.06883654 14341585
0.44462973 -0.052209035 0.065659612 14276046
0.45461905 -0.053781658 0.061800633 14736853
0.46200001 -0.058255237 0.061086733 14407632
0.43567348 -0.044181135 0.067453578 14934233
0.44454157 -0.045297638 0.063602664 15131610
0.45200002 -0.045075774 0.060793329 15066074
0.42800003 -0.034930982 0.069615424 14605007
0.43335 -0.038207136 0.067431472 15000024
0.44547063 -0.038132314 0.063278936 14737107
0.45083341 -0.038376976 0.060840651 14407629
0.43631577 -0.0030359235 0.068735383 14210510
0.44370008 -0.0050512301 0.06749142 14210509
0.45555559 -0.0047101793 0.065205269 14276302
0.46265525 -0.0048929318 0.06242092 14407888
0.43505985 0.0046452763 0.068108559 14210766
0.44447991 0.0052850856 0.064316414 14276559
0.45424145 0.0042828284 0.061651267 14276559
0.46180001 0.0014441687 0.060735591 14277072
0.43790001 0.011419699 0.068662658 13750472
0.44560319 0.014589091 0.065889135 13487556
0.45353335 0.015973518 0.061448801 13947850
0.44900006 0.020567145 0.068002023 12764090
0.45706257 0.022083538 0.063232206 13421763
0.46441382 0.026667221 0.062623307 13158591
0.47000003 0.029859759 0.060494095 13224641
0.47476926 0.033119734 0.063498765 12698298
0.48293751 0.037751716 0.063009664 12237748
0.48900002 0.040224917 0.065229118 12237746
0.49500003 0.042112317 0.066725232 11842989
0.43800002 -0.051126417 0.07073047 13092285
0.41628572 -0.041491803 0.078498945 13485763
0.42592594 -0.042554829 0.074460685 14407375
0.43255556 -0.04605468 0.071928151 14144717
0.40758327 -0.033147011 0.07877665 14802388
0.41448894 -0.0360687 0.076389939 14801875
0.42408168 -0.036010772 0.072404057 14933717
0.40600002 -0.029332543 0.078869291 13354424
0.39710003 -0.015393024 0.079556778 13881288
0.40350002 -0.010729281 0.079797618 14210766
0.41650003 -0.010590462 0.077495813 14342352
0.44300002 -0.010227214 0.070500821 14144458
0.4086667 -0.0051278924 0.079387315 14276559
0.41424629 -0.0047298777 0.076715656 14210512
0.42405555 -0.0027828002 0.072991475 14276304
0.43438098 -0.0048114406 0.07130529 14276559
0.4402 -0.008926047 0.071291745 14341839
0.41604549 0.0028179975 0.07711748 13289921
0.42481822 0.00450153 0.073337637 13750472
0.43063158 0.0062449877 0.071131252 13947592
0.43488374 0.012673753 0.075150244 12368818
0.44375005 0.017710665 0.073991388 11908781
0.44814998 0.021548742 0.072785534 11579817
0.39618364 -0.032866068 0.086890958 13288896
0.40294868 -0.033589866 0.081991449 14341325
0.41133335 -0.039027311 0.081189789 13157566
0.38861534 -0.023038315 0.089417808 8817028
0.3931382 -0.024984529 0.085838653 14078922
0.40060002 -0.029505188 0.082320668 15065046
0.38875005 -0.019212643 0.089396462 9408910
0.39421308 -0.014585243 0.085377187 13947594
0.40099999 -0.01043044 0.080712482 14276559
0.39592686 -0.0076682558 0.086713403 13421250
0.40368253 -0.0050069569 0.081948318 13750215
0.40825 0.000371609 0.081216641 12566197
0.41500002 0.0034490742 0.081100345 12303281
0.42246154 0.0075956872 0.083058789 10922142
0.42783341 0.010990764 0.082276046 10922142
0.43200001 0.013000147 0.081172012 10000014
0.38870001 -0.031085718 0.097619288 12170668
0.39184132 -0.033451818 0.094446458 12893880
0.38534132 -0.02498127 0.094997101 2435879
0.39033332 -0.028810108 0.090750672 5854804
0.38545242 -0.015574215 0.095014952 3027502
0.39077783 -0.012171309 0.09105707 7369067
0.38864705 -0.00923956 0.097439714 13158847
0.39123642 -0.0072001047 0.094113253 12368816
0.39200002 -0.040250901 0.10918611 12959932
0.38818523 -0.032152738 0.10478986 11512225
0.39158344 -0.035916802 0.10526467 13091516
0.37899998 -0.022945626 0.10911412 2238502
0.38188288 -0.025096158 0.10461477 2304037
0.37899998 -0.017178528 0.10911412 2238502
0.3821485 -0.014923378 0.10468832 2370858
0.38745099 -0.0082118735 0.10577972 12370358
0.39094645 -0.004186105 0.10482083 12369331
0.39107147 -0.040417414 0.11481129 13157565
0.37900001 -0.030043593 0.1184302 2501157
0.38600004 -0.033689845 0.11520412 10657432
0.39040631 -0.038117215 0.11376741 13222845
0.37630755 -0.024252411 0.11504699 2107170
0.38075003 -0.028957088 0.11195663 2239014
0.37641737 -0.015645677 0.11510915 2173219
0.38100004 -0.01140677 0.112299 5266516
0.38689482 -0.0061094007 0.11515531 12566709
0.39028567 -0.001656766 0.11371138 12369072
0.39399999 0.0020987613 0.11786261 12105646
0.3888 -0.042046562 0.12850028 13223356
0.39108825 -0.041908294 0.12376615 13092028
0.37820005 -0.031397428 0.12517308 4275254
0.38519996 -0.035878737 0.12500086 12301484
0.39016667 -0.038844932 0.12161466 13223102
0.37423524 -0.025179066 0.12312543 1909788
0.37419489 -0.015209359 0.12338197 2567461
0.37800002 -0.0096115116 0.12475451 12500914
0.38611582 -0.0051628714 0.12509069 12500657
0.39070591 -0.0011640324 0.12372718 12566708
0.38900003 0.00012600447 0.1292956 11842986
0.39341423 0.0025925257 0.12524147 12171437
0.38794369 -0.043125737 0.13528712 13025465
0.39000002 -0.047349516 0.13967092 13157565
0.36800003 -0.030463859 0.13609953 2238754
0.37505001 -0.032021161 0.13589451 5723212
0.38378465 -0.037394747 0.13515732 12433071
0.36790904 -0.024576399 0.13427825 1843997
0.37031811 -0.025732864 0.13234654 1712410
0.36797512 -0.01652679 0.13458095 2303777
0.37100002 -0.01455735 0.13351919 3882292
0.37791669 -0.0088711912 0.13711041 11710884
0.3828125 -0.0043468564 0.13721728 12105643
0.387375 0.0030387773 0.13755508 12237489
0.39384618 0.0059611201 0.13150528 11908778
0.39785719 0.011705208 0.13303766 11185056
0.38799998 -0.043226462 0.14167795 12762291
0.39000002 -0.046436522 0.14104043 12302256
0.36650002 -0.031025955 0.14618565 1186066
0.37900001 -0.034479819 0.14016773 10723220
0.38341668 -0.037803024 0.14112736 12170668
0.36470896 -0.024410725 0.146328 922637
0.36347219 -0.015601596 0.14649826 1973270
0.38210005 -0.0039840145 0.14059716 11250849
0.38600001 0.003287748 0.14004567 11448228
0.40000001 0.011366454 0.14231583 11514021
0.3641786 -0.032275908 0.15629272 2697764
0.36519811 -0.025481652 0.1555067 790794
0.36383939 -0.014999096 0.15488693 2300692
0.36194834 -0.032533418 0.16357604 1909273
0.36242566 -0.024825614 0.16506647 1120015
0.36370894 -0.016236201 0.16491406 1381903
0.34617075 -0.032933958 0.17840387 1515030
0.35588884 -0.032156013 0.17687394 857101
0.36193189 -0.032698408 0.17311533 1186322
0.3461014 -0.025446618 0.17886221 1383444
0.35554329 -0.024981393 0.17638792 923151
0.36074546 -0.024374023 0.17203234 1383700
0.34725928 -0.016988566 0.17930984 1251859
0.35500011 -0.01621208 0.17759982 922381
0.361902 -0.016423212 0.17228036 1251088
0.35600001 -0.0098855132 0.17999883 1381647
0.33868974 -0.032699987 0.18866163 1514518
0.34215119 -0.033612657 0.18377122 1514773
0.33855551 -0.027078399 0.18883425 1515032
0.34167254 -0.024634494 0.18408005 1448981
0.33900002 -0.015762294 0.18965632 1449237
0.3422713 -0.016900638 0.18467398 1317396
0.35433337 -0.010944194 0.18053813 1185040
0.35650003 -0.0098993983 0.1815041 724745
0.33837506 -0.033211421 0.19093981 1449239
0.3384828 -0.024286753 0.19108789 1383446
0.34 -0.021380411 0.19021577 1317653
0.33900011 -0.017702216 0.19115533 1514775
0.34 -0.0185946 0.19021577 1317653
