# .PCD v0.7 - Point Cloud Data file format
VERSION 0.7
FIELDS x y z rgb
SIZE 4 4 4 4
TYPE F F F U
COUNT 1 1 1 1
WIDTH 463
HEIGHT 1
VIEWPOINT 0 0 0 1 0 0 0
POINTS 463
DATA ascii
0.47700003 0.079437762 0.039061759 14408145
0.47866669 0.083825566 0.038731016 14671316
0.48037502 0.087169781 0.03680706 14539730
0.48207158 0.095219396 0.036468741 15526623
0.48454762 0.10386974 0.036542695 14933975
0.47360712 -0.14345782 0.048361938 15723751
0.48249999 -0.14253344 0.046477076 15592421
0.49300003 -0.14294967 0.045276441 15526372
0.47589999 -0.13525501 0.048827484 15789543
0.4806667 -0.13687579 0.04773818 15789800
0.47513336 -0.12731937 0.048840743 15724006
0.48100004 -0.12746088 0.047646087 15657958
0.49333334 -0.12110415 0.049638521 15460833
0.49300003 -0.11525249 0.049604982 15263454
0.45800003 0.059118602 0.048763797 14407888
0.45900005 0.062624767 0.049254026 14736853
0.46388894 0.067000546 0.047511078 14933975
0.47133335 0.069299318 0.043745611 14276049
0.4658725 0.074870944 0.047609907 15394523
0.47184625 0.076586895 0.043137796 15131352
0.46815786 0.083562613 0.048200134 15394523
0.47371641 0.085377485 0.043678541 15329244
0.47513899 0.094502479 0.0454324 15131864
0.48037502 0.097572096 0.041024845 15329245
0.4772858 0.10207216 0.047461815 14540501
0.4814333 0.10354637 0.042727828 14672087
0.45500001 -0.15004063 0.058563434 16644340
0.45633918 -0.1450122 0.056899201 16447473
0.4648124 -0.14381625 0.052370988 16184045
0.47000003 -0.14178367 0.050591592 15920617
0.44900003 -0.13019308 0.059893403 16644594
0.45561218 -0.13524413 0.05730645 16381936
0.46474358 -0.1349775 0.05344924 15986922
0.47205001 -0.13421652 0.050920177 15658213
0.44900003 -0.1249375 0.059893403 16578801
0.45425007 -0.12479689 0.057394698 15987177
0.46476927 -0.12463255 0.0536181 15724005
0.47168756 -0.12600702 0.051047284 15592419
0.48500001 -0.12019464 0.051070821 15460833
0.44900003 -0.11968191 0.059893403 16447215
0.45683783 -0.11572387 0.058478318 15592164
0.46466008 -0.11525872 0.054967239 15461090
0.47395656 -0.11378403 0.052798275 15461090
0.48085716 -0.11353845 0.051760264 15329762
0.49185714 -0.11811091 0.05113405 15526626
0.458 -0.10867855 0.059484489 15263200
0.4654516 -0.1059576 0.058287542 15395040
0.47484314 -0.10522636 0.055201489 15395040
0.48105261 -0.10291341 0.052847713 15263454
0.46640006 -0.096807346 0.059592027 15328992
0.4739286 -0.097398214 0.058218781 15395040
0.48604271 -0.094731145 0.056263093 15066332
0.45600003 -0.084036633 0.059606474 15131870
0.46400002 -0.08892075 0.059721831 15263454
0.45500001 -0.078674689 0.059628595 14868697
0.45437503 -0.062613457 0.059280988 14737109
0.45400003 -0.058839574 0.059497546 14934489
0.43400002 0.034684643 0.059924509 14144973
0.44529414 0.04650401 0.056994773 14408145
0.44716665 0.054194275 0.057064675 14868695
0.45304167 0.057817724 0.0531784 14868438
0.44868746 0.062643938 0.058669362 15000280
0.454557 0.065302305 0.054073371 15197402
0.4569827 0.073989183 0.056248873 14934228
0.46136007 0.077094205 0.052551974 15197400
0.45900002 0.080738224 0.059078276 14342348
0.46474999 0.085008971 0.054793119 14605264
0.46899995 0.091427103 0.055680852 14342348
0.4715094 0.095710598 0.054626115 14276812
0.47466674 0.10167543 0.054579958 14013130
0.44900003 -0.15016431 0.069353454 10724253
0.45333335 -0.15055229 0.061531916 14802908
0.44836539 -0.1443029 0.066609018 16118250
0.45181823 -0.14588283 0.061996568 16447216
0.44575298 -0.13482642 0.065353572 16315629
0.45058331 -0.13645419 0.060455758 16644850
0.43890914 -0.12184956 0.068728633 16314859
0.44343907 -0.12518705 0.064454533 16447215
0.43743134 -0.11473413 0.067201145 16512752
0.4441022 -0.11525004 0.062688187 16447215
0.45207697 -0.11406589 0.060547121 16118252
0.43498394 -0.10502123 0.067080848 16447215
0.44430304 -0.10525453 0.063010998 16118251
0.45395651 -0.10514694 0.060781028 15328993
0.46033335 -0.10222673 0.060327541 15263200
0.42747626 -0.093692765 0.069076955 16250349
0.43382257 -0.09523724 0.065833427 16184300
0.44461542 -0.094609499 0.062826 15328992
0.45542109 -0.093730994 0.06119287 15131614
0.46187502 -0.096883245 0.060255967 15263200
0.48500001 -0.093511716 0.060153969 15460833
0.42723322 -0.08504118 0.068989687 16118763
0.43382058 -0.085425489 0.066558525 15789798
0.44516671 -0.085132219 0.064516999 15197661
0.45332503 -0.085127197 0.061871015 15131869
0.42693108 -0.075166292 0.068975128 15724005
0.43365222 -0.075912893 0.067153886 15460834
0.44642311 -0.076294944 0.065535009 14934489
0.4522334 -0.074735887 0.063566536 14934489
0.46100003 -0.075395323 0.060414907 14737110
0.42561117 -0.066732667 0.069004536 15329247
0.43200001 -0.069641136 0.067738913 15328993
0.44833338 -0.066496931 0.068550907 14868441
0.45330125 -0.064714417 0.065021284 14671318
0.44900012 -0.055418782 0.067649931 14539732
0.45176929 -0.057900473 0.063796833 14605524
0.42225003 0.019165447 0.068552569 14013388
0.42504627 0.024943145 0.067268044 14342352
0.43000001 0.029080121 0.064405397 14210766
0.4273428 0.034439761 0.068549253 14671316
0.43210143 0.035400096 0.064052992 14539731
0.42900002 0.040645596 0.068942338 14473936
0.4342607 0.044766448 0.064873084 14671315
0.44033337 0.04859234 0.060798988 14934487
0.43779311 0.05191882 0.066807345 14210763
0.44262132 0.056039754 0.063936599 14539728
0.44671863 0.063912451 0.065549903 14210763
0.45076475 0.068861917 0.063417375 14342349
0.45488748 0.075113498 0.064839862 14144970
0.45880002 0.081347756 0.065818064 14079177
0.46291232 0.086243965 0.0647875 14079177
0.46771058 0.092963248 0.066275641 14013386
0.47100005 0.096884988 0.063661516 14013385
0.47442856 0.10154048 0.063046277 11907753
0.44900003 -0.15016431 0.071455687 10789276
0.44651937 -0.14469825 0.074666232 15196892
0.44269156 -0.1349459 0.074950963 15328734
0.43766168 -0.12395744 0.075825341 15262941
0.44025004 -0.12862246 0.072961062 15657699
0.43349421 -0.11475775 0.074737675 15657699
0.4275088 -0.10352739 0.076248653 15526113
0.43055272 -0.10707386 0.073132575 15986664
0.42466986 -0.095040411 0.074956149 15789285
0.41850007 -0.081834801 0.078112967 15460320
0.42229795 -0.085524946 0.074589387 15920870
0.41640356 -0.074912041 0.077344365 15723492
0.4221606 -0.075235084 0.072384663 16052456
0.41490689 -0.064739883 0.076351002 15855078
0.42169464 -0.065486513 0.071577288 15723749
0.44830772 -0.062583625 0.071182005 14868442
0.40869999 -0.052873887 0.079106554 15723235
0.4148117 -0.055614084 0.076052628 15591907
0.42117864 -0.053841345 0.07216803 14934233
0.43300003 -0.051556446 0.071950369 14276559
0.44831577 -0.05713604 0.071455844 14605270
0.40786666 -0.044713207 0.0788799 15460833
0.41243142 -0.044665828 0.075777575 14868442
0.42275003 -0.049346332 0.072716929 14539477
0.4086667 -0.039091382 0.079387315 15197661
0.41334888 -0.03714693 0.076717131 14210767
0.42415386 -0.031861983 0.077888675 13947340
0.42637503 -0.0283076 0.079209283 13749961
0.40360865 -0.0042215213 0.077827327 13881803
0.40671846 0.0048318491 0.077180214 14079692
0.41137502 0.0092828283 0.074373417 14014155
0.4086 0.011611067 0.078417115 13816776
0.41375756 0.015451584 0.074854665 14079435
0.42000002 0.019308982 0.070773423 14539731
0.41672841 0.0245427 0.076057978 14013898
0.42100006 0.02658418 0.071596861 14605522
0.42328712 0.034724619 0.075020827 13881799
0.42803338 0.041156646 0.074965119 13618627
0.43198436 0.046270464 0.075050712 13618625
0.43692589 0.052842777 0.075139992 13618626
0.44127271 0.057775542 0.074355833 13750212
0.44615388 0.064631246 0.075044468 13816004
0.45000002 0.069673993 0.073721744 13947590
0.45444012 0.075181678 0.075042792 13881541
0.45891666 0.081663772 0.074869812 13947078
0.46216667 0.086507171 0.075058974 13947334
0.46556145 0.093560986 0.074506395 13816005
0.4445439 -0.14281487 0.084604584 14210510
0.43900007 -0.13050504 0.083224431 14144460
0.44166675 -0.13521619 0.084890716 14012874
0.43730855 -0.12473865 0.084623858 13815238
0.44000003 -0.12930016 0.089250952 12631221
0.43286839 -0.11492316 0.08497294 13947080
0.42710954 -0.10393226 0.084266886 14210252
0.43018186 -0.10825766 0.087000675 13683908
0.42276093 -0.094850458 0.084932022 14210253
0.41764781 -0.083924904 0.085083038 14407631
0.42019048 -0.088535309 0.083826385 14473424
0.41386664 -0.074893579 0.084907122 14605011
0.40806687 -0.063110113 0.08571633 14868183
0.4110212 -0.067140795 0.083464846 15131355
0.40544894 -0.055012643 0.084831141 15131355
0.39878577 -0.041748293 0.088070162 14276303
0.40225232 -0.045608632 0.084473245 15065818
0.39637497 -0.034601431 0.086504862 14473938
0.40351278 -0.03639314 0.081789806 15131868
0.41314286 -0.034129985 0.08053042 14407889
0.42320004 -0.031167949 0.081019908 14078926
0.3931123 -0.024734031 0.086058132 14013130
0.40440002 -0.028460329 0.081963256 14210512
0.41000003 -0.027701898 0.082525782 14210512
0.42488891 -0.028597586 0.081763759 13947340
0.39326754 -0.014802459 0.085547037 13881801
0.39644188 -0.0057669217 0.086049512 13816264
0.40096423 -0.0028182976 0.082345605 14013642
0.39900002 0.00012924365 0.085916072 12764087
0.4030965 0.0049023051 0.084649824 12829881
0.40803525 0.012686763 0.084745228 12434867
0.41137996 0.017624777 0.085057952 12369330
0.41597703 0.024513867 0.084400095 12632501
0.42054549 0.02895586 0.088049904 12303537
0.42327586 0.034898456 0.08497218 12763574
0.42814285 0.041233916 0.084674768 12960696
0.43201542 0.046373751 0.084855281 13026488
0.43713203 0.053400241 0.084529363 13289660
0.44087502 0.057984587 0.085601576 13487039
0.44614452 0.064798735 0.084867686 13618625
0.45000002 0.069673993 0.089523621 13618625
0.45377636 0.075051554 0.084961899 13750211
0.45870003 0.081383899 0.085186496 13749955
0.46237034 0.086307682 0.084787451 13749955
0.46515217 0.092805766 0.084727556 13617857
0.44635487 -0.14196451 0.094634987 13420737
0.44443426 -0.13506107 0.094855241 12828856
0.43858069 -0.1225688 0.093115941 12434098
0.44147921 -0.12648666 0.096186645 12368306
0.43565795 -0.11495192 0.094753787 12434098
0.42841664 -0.10174292 0.092585087 12697014
0.43165386 -0.10550303 0.095497958 12236976
0.42541173 -0.094624214 0.094626263 12039597
0.43011114 -0.098425075 0.098880529 11447460
0.41822857 -0.082667679 0.093554929 12565685
0.42130619 -0.086659752 0.095894203 12039340
0.41525277 -0.075016506 0.094834439 12302256
0.40800017 -0.063002855 0.094448172 13025979
0.41129732 -0.067659125 0.095825627 12368049
0.40411994 -0.055135891 0.094891697 13289151
0.39854553 -0.041969929 0.094357096 13025722
0.40054935 -0.046823487 0.095310532 13420737
0.38900003 -0.030836301 0.098788619 11775910
0.39455253 -0.035221308 0.094733916 12565429
0.38683325 -0.024797287 0.09525954 2698795
0.39042857 -0.028208211 0.090990461 5459535
0.38702706 -0.015844088 0.095727414 2699051
0.39068004 -0.013370545 0.091696411 5001551
0.38872728 -0.0093877688 0.098263271 13158847
0.39391771 -0.0063686734 0.094262391 12434611
0.40083337 -0.0013551483 0.094603501 11250593
0.40602484 0.0047421693 0.094229236 10592919
0.41081822 0.0085277492 0.098253556 10527124
0.40857142 0.011337459 0.092076533 10592662
0.41363648 0.01552295 0.095324025 10790040
0.41725001 0.022482147 0.093113579 11513764
0.42184749 0.026655462 0.095842496 11645092
0.4261972 0.034432579 0.094601594 12039851
0.43024996 0.038498115 0.098269381 11908007
0.42883334 0.040629935 0.091503918 12631732
0.43321341 0.045072056 0.09517806 12434351
0.43832141 0.051449064 0.095229052 12763316
0.44225466 0.056677468 0.095286407 13092281
0.44695765 0.064319037 0.094843455 13355453
0.45033333 0.069462247 0.095653176 13421247
0.45472607 0.075185068 0.095057748 13487040
0.45887998 0.081576735 0.094513796 13552576
0.46211761 0.086510107 0.095179439 13552833
0.46445459 0.091714874 0.094572239 13683908
0.44860005 -0.14099889 0.10163798 13223615
0.44791549 -0.13490297 0.10470857 12763062
0.44455722 -0.12497065 0.10512774 12105132
0.43808571 -0.11308257 0.10294957 11579045
0.44121617 -0.11649267 0.10639894 11644837
0.43560258 -0.10495276 0.10506143 11184288
0.42780954 -0.091858417 0.10371074 11381410
0.43161112 -0.096247151 0.1057959 11250081
0.42431641 -0.084919922 0.10499263 11513253
0.41739216 -0.073689267 0.10386437 11513253
0.42110354 -0.077336118 0.10679009 11513509
0.40861538 -0.060868088 0.10218895 11973291
0.41274363 -0.065492511 0.10520358 11841962
0.40598848 -0.054762293 0.10494457 12631220
0.41033337 -0.059424143 0.1085298 12433842
0.39860013 -0.041601125 0.10561203 12696758
0.40087992 -0.046360731 0.10440195 12697014
0.38804352 -0.031393159 0.10480268 10789274
0.3947179 -0.036492299 0.10478655 12894394
0.37900001 -0.021348583 0.10893668 2304548
0.38244259 -0.02515007 0.10472918 2436133
0.37900001 -0.016939655 0.10870464 2305062
0.38211915 -0.014775203 0.10429198 3291703
0.38469231 -0.0095021976 0.10332128 12896445
0.39500004 -0.0042602904 0.10054234 12040365
0.40400001 -0.00081490801 0.1007064 11776680
0.40799999 0.0015674371 0.10141601 11316385
0.41418189 0.0069968035 0.10435691 10921884
0.42000002 0.0099683218 0.10911929 10921884
0.4172121 0.01354655 0.10265452 10527126
0.42161232 0.016415671 0.10627763 10724505
0.42523998 0.024567921 0.10492587 11184542
0.43000004 0.028660687 0.10903301 11184286
0.42821425 0.031645801 0.10216075 11381663
0.43209726 0.03562199 0.10571922 11250078
0.43641087 0.044752121 0.10458419 11447456
0.44057146 0.049060289 0.1082766 11381663
0.43900007 0.050940283 0.10201678 12171179
0.4433001 0.055554651 0.10522883 12105387
0.4481464 0.063069277 0.10445827 12697523
0.45108822 0.06770128 0.10523904 12829110
0.45570132 0.075056851 0.10510653 13223868
0.45900008 0.081006862 0.10555157 13355454
0.46205172 0.085570559 0.10489924 13289919
0.46450007 0.091039896 0.10364438 12763063
0.44900003 -0.13203253 0.1122916 12434353
0.45150006 -0.13091682 0.11783543 12302766
0.44828296 -0.12448198 0.11381692 12368303
0.45070004 -0.12704667 0.11788794 12368559
0.44534248 -0.11508611 0.11502713 11908008
0.43839136 -0.10297861 0.11247068 11315872
0.44209754 -0.10592998 0.11635422 11776166
0.43526155 -0.094676405 0.11498632 11776424
0.44020003 -0.099405453 0.11869596 11973802
0.42705131 -0.082919784 0.11372286 11776425
0.43085301 -0.0870502 0.11627219 11842217
0.41866669 -0.070758998 0.11187708 12039854
0.42297292 -0.075367041 0.11519325 12105646
0.4151867 -0.064673565 0.11447848 12499634
0.42050004 -0.069141246 0.11810908 12434097
0.40674376 -0.054676801 0.11475679 12762807
0.41083336 -0.059336577 0.11571261 12697270
0.39873919 -0.041633278 0.11406694 12697014
0.40154046 -0.046585266 0.1150704 12499635
0.37900001 -0.030043593 0.11976107 2698536
0.38457578 -0.031582817 0.11594391 7303276
0.3950676 -0.036975335 0.11481187 12762808
0.37775216 -0.024018604 0.11537516 2238755
0.38071436 -0.028271221 0.11249193 2370598
0.37788484 -0.01502395 0.11505415 3291956
0.38000003 -0.01144154 0.11029161 5464665
0.42304349 0.0084044905 0.11439925 11250592
0.42544731 0.01448107 0.11465601 10855834
0.43000004 0.018090991 0.11909939 10790039
0.42782354 0.021880027 0.11221334 10987677
0.4315758 0.025648838 0.1157276 11250848
0.43608564 0.034625113 0.1147039 11381920
0.44016668 0.03861253 0.11882425 11644835
0.43860006 0.041983899 0.11266907 11447456
0.44214553 0.045842353 0.11577951 11644835
0.44699991 0.054580852 0.11499394 11842214
0.45000002 0.059139419 0.11849371 12565937
0.44899997 0.061250385 0.11237919 11842214
0.45288333 0.065550916 0.11550949 12302765
0.45766664 0.074400447 0.11407717 12565681
0.4605 0.07769154 0.1177172 13157304
0.45900002 0.080738224 0.11119284 12829109
0.46218178 0.08409363 0.11488856 12960695
0.45375001 -0.13050815 0.12266875 12434353
0.45345461 -0.12508956 0.12535793 12433840
0.44870004 -0.11351061 0.12182844 12105388
0.45232001 -0.11580277 0.12650123 12105132
0.44616362 -0.10440519 0.12437144 11908010
0.4506 -0.10829468 0.12814595 11841703
0.43775004 -0.092974268 0.12389571 11841962
0.44171879 -0.097418554 0.12604147 11907755
0.42850003 -0.080111295 0.12085795 12236976
0.43274322 -0.084897287 0.12488976 12039341
0.42555261 -0.074392512 0.12500836 12236719
0.43000001 -0.079183772 0.12862888 12499635
0.41602004 -0.063312486 0.12510625 12697271
0.42086214 -0.068050593 0.12503941 12565684
0.40716195 -0.053167537 0.12514095 12894393
0.41139394 -0.058383178 0.12535803 12697271
0.39869234 -0.041081779 0.12569448 13025723
0.40208331 -0.04570986 0.12492475 12696757
0.37787503 -0.031171303 0.12603711 3617583
0.38446873 -0.033322833 0.12462561 12038314
0.39441076 -0.037735287 0.12490422 13025723
0.3743951 -0.025043827 0.12383839 1975582
0.37409613 -0.015286679 0.12389847 2962734
0.42839998 0.0087640136 0.12213358 11448228
0.43000001 0.0091990242 0.12480366 11382435
0.42857143 0.011461993 0.12109288 11250078
0.43269849 0.015855676 0.12499987 10921112
0.43597254 0.024713349 0.12451638 11250334
0.44016671 0.028136471 0.12878488 11250077
0.4386667 0.032405611 0.12184245 11645605
0.44272318 0.035625864 0.12591738 11842471
0.44612858 0.044837218 0.12471751 12171179
0.45033336 0.049343929 0.12929985 12565937
0.44852385 0.052296475 0.12248121 12302508
0.45218524 0.056215771 0.1260915 12763060
0.45672154 0.065554671 0.12517431 13092024
0.45893759 0.071729377 0.12326489 13355453
0.46142581 0.07606893 0.12534352 13487040
0.46406135 0.083026372 0.12455828 12631731
0.45778936 -0.12297982 0.13479306 11710116
0.45559728 -0.11473867 0.13499132 12236460
0.4480513 -0.10262243 0.13499174 12368305
0.45170969 -0.10744436 0.1353699 12236718
0.4390001 -0.090707101 0.13577454 12565684
0.44256908 -0.095610678 0.13471925 12434098
0.43442488 -0.084700622 0.1351359 12631478
0.42565277 -0.073691703 0.13490003 12565941
0.42999995 -0.078982435 0.13426608 12828856
0.41674075 -0.063175254 0.13316646 12697527
0.42136371 -0.067659177 0.13485284 12368818
0.40700006 -0.053205729 0.13259892 12433842
0.41138101 -0.058568999 0.13343193 11776168
0.39778575 -0.041578058 0.13261358 12630965
0.4017714 -0.045990381 0.13238251 11841448
0.38628572 -0.035404839 0.13123341 11973803
0.39364704 -0.038527243 0.13186553 12236207
0.43400002 0.0092845969 0.13206063 11710630
0.43641981 0.015272026 0.13514555 11513507
0.43892318 0.021878349 0.13363828 11776935
0.44131038 0.025975399 0.13572934 11974314
0.44563854 0.034895312 0.13492624 12105899
0.4488124 0.043135982 0.1342269 12368302
0.45097223 0.047773644 0.13599502 12631217
0.4544858 0.055023134 0.13487677 13025975
0.45842022 0.064261809 0.1351224 13420990
0.46000001 0.068760902 0.1382799 13552320
0.46187949 0.074739307 0.1350316 13486528
0.46400008 0.081032827 0.13316785 12499890
0.45900005 -0.12073563 0.14289141 11973288
0.46000001 -0.12261397 0.14212584 11973289
0.45767394 -0.11522261 0.14334136 12170925
0.44825006 -0.10208198 0.14173113 12302768
0.45247626 -0.10704409 0.14282659 12105389
0.43885723 -0.09114752 0.14146362 11447459
0.44258827 -0.096160188 0.14174312 11316387
0.43536365 -0.086404718 0.14099859 10855322
0.36700001 -0.030810649 0.14518039 1252373
0.36505714 -0.024675036 0.1460719 988686
0.36374414 -0.015999572 0.14648822 1776404
0.43833336 0.016448997 0.141019 11513507
0.44000003 0.019370086 0.14195508 11250080
0.44378573 0.02588634 0.14396869 11908265
0.44809991 0.033874884 0.14446513 12368815
0.45055559 0.038000595 0.14723682 12368816
0.44900003 0.04008789 0.14082941 12565937
0.45268425 0.044717107 0.14521025 12368558
0.45639262 0.054632772 0.1448137 12894389
0.45897543 0.062284593 0.14466608 13223611
0.46030003 0.067201875 0.14582914 13289404
0.46219298 0.073633246 0.14478013 13355198
0.36345634 -0.032331239 0.15620066 2697508
0.36442688 -0.025263537 0.15532134 725514
0.36399987 -0.01511974 0.15512563 2497556
0.44900003 0.033255626 0.15028948 9145474
0.45266667 0.039002843 0.15116328 12368817
0.45446944 0.045269378 0.15322839 11316127
0.45775002 0.054867491 0.15303236 12302508
0.4589999 0.062317759 0.15294591 12697011
0.46034622 0.067297891 0.15371385 12763062
0.4619334 0.072244167 0.15335454 12500403
0.36143112 -0.032268856 0.16386525 1843481
0.36219716 -0.024797805 0.16509794 1251601
0.3633129 -0.016321659 0.16501367 1513232
0.34525004 -0.033258256 0.17828028 1515544
0.35638237 -0.031783752 0.17696404 923408
0.36119577 -0.032787636 0.17352398 1383443
0.34615982 -0.02506246 0.17863695 1383701
0.35575911 -0.024962697 0.17571642 988944
0.36043897 -0.025218597 0.17149952 1581078
0.347186 -0.016292574 0.17873301 1317910
0.35542852 -0.017283441 0.17611353 922638
0.36068007 -0.016971851 0.17165722 1185808
0.34188667 -0.033489645 0.18359603 1646360
0.34175453 -0.024812976 0.18397902 1580310
0.34198442 -0.016764071 0.18448937 1448470
