# .PCD v0.7 - Point Cloud Data file format
VERSION 0.7
FIELDS x y z rgb
SIZE 4 4 4 4
TYPE F F F U
COUNT 1 1 1 1
WIDTH 843
HEIGHT 1
VIEWPOINT 0 0 0 1 0 0 0
POINTS 843
DATA ascii
0.58200002 -0.020248566 0.0095110284 15526372
0.58063638 -0.014022753 0.0089943642 15000540
0.58287495 -0.0048105377 0.0077613699 14869210
0.5853436 0.0050739911 0.0074211545 14736856
0.59000003 0.0084783165 0.0041169627 14802905
0.58521432 0.015257942 0.0075042956 14539477
0.59090912 0.016668981 0.003366519 14474194
0.5776667 0.02655478 0.0094402134 14539477
0.58488011 0.024836907 0.0068146084 14407891
0.59163165 0.024757173 0.0025954738 14539731
0.57720006 0.036130723 0.0090261865 14605014
0.58399993 0.034897424 0.0052844267 14605013
0.59100002 0.031090533 0.0018172573 14736856
0.57714289 0.044772305 0.0087552667 14605270
0.58316672 0.045377493 0.0045189122 14473684
0.57596296 0.055264041 0.0076598166 14407893
0.58334613 0.054548211 0.0032265957 14342099
0.56900001 0.064788215 0.0092985826 14934236
0.57569999 0.065381147 0.0051886821 14473685
0.58180004 0.061205216 0.0018802559 14671063
0.56763643 0.076406784 0.0086714635 14144462
0.57448286 0.073177174 0.0050697313 13749961
0.5625 0.082483031 0.0087530296 11579046
0.44100001 -0.12219524 0.019595478 14869214
0.44181824 -0.11465785 0.019631831 15132384
0.59100002 -0.080053978 0.019342899 11907757
0.588 -0.070700243 0.019244712 15592422
0.59075004 -0.073448874 0.018297059 12433843
0.58679998 -0.063550927 0.018792482 15592935
0.59075004 -0.064806424 0.017259989 14013903
0.58792859 -0.054860938 0.018553447 15592421
0.59100002 -0.05468905 0.016575815 15395041
0.58557153 -0.044790529 0.017728508 15395042
0.57750005 -0.031921756 0.018562194 14934235
0.58405894 -0.035682093 0.017102856 15263199
0.56800002 -0.023085732 0.019919828 14934235
0.57500005 -0.024565592 0.01739043 14933978
0.58322728 -0.025010331 0.013562318 15065564
0.56725001 -0.015200841 0.019449707 14736856
0.57653129 -0.014658744 0.014517689 14933722
0.58028573 -0.015532975 0.011229749 14802649
0.56526315 -0.004765566 0.018635225 14539477
0.57519239 -0.0056676688 0.014675532 14933722
0.58099997 -0.0047573098 0.011348561 14802649
0.55675006 0.0058777947 0.019361708 14276305
0.56413043 0.0046038963 0.017251344 14407891
0.57529175 0.0048996946 0.013604797 14671063
0.58188885 0.0044265073 0.011022292 14671063
0.54566669 0.018059008 0.019136595 14144721
0.55433339 0.014452745 0.018463356 14276305
0.56400007 0.014704337 0.016078552 14276306
0.57512504 0.015221775 0.012758426 14407891
0.58100003 0.011749314 0.010854819 14407891
0.54500002 0.024417777 0.019113215 14078928
0.55340004 0.025574151 0.017333193 14342098
0.56453329 0.026087634 0.014770683 14342100
0.57343477 0.024229731 0.01211015 14342098
0.53900003 0.039290663 0.018902795 14276307
0.54369235 0.0354205 0.018478137 14144721
0.55376929 0.035270516 0.016027717 14407893
0.56555557 0.034901924 0.013209149 14407892
0.57311106 0.034327567 0.01100396 14473684
0.53875005 0.044947941 0.018894028 14276306
0.54562503 0.044879936 0.017216524 14342100
0.55399996 0.04536305 0.015319969 14473430
0.56564283 0.045106687 0.012456101 14407892
0.57362497 0.045169055 0.010717032 14736856
0.53633338 0.056950435 0.019364357 14342098
0.54450005 0.055315148 0.017709408 14210512
0.55512506 0.055406336 0.014916921 14473686
0.56495005 0.055329897 0.012137717 14473685
0.57033336 0.052255228 0.010655534 14407891
0.5349167 0.064347014 0.019382887 14342098
0.54456246 0.064555414 0.017182479 14342098
0.55368757 0.065312035 0.014797447 14407891
0.56360006 0.064764574 0.011776676 14605271
0.53720009 0.072112098 0.01908922 14473171
0.54536843 0.075365849 0.017508371 14538964
0.55427772 0.075365759 0.014388099 14736599
0.56294125 0.074519716 0.011444606 14736599
0.53511119 0.083679266 0.019319152 14342098
0.54700005 0.081491277 0.017260209 14604757
0.55400002 0.083769321 0.014944094 14801880
0.5606364 0.08322496 0.011308831 12762552
0.42783335 -0.13223369 0.029275207 16381169
0.43104172 -0.13238385 0.025961256 15591910
0.42665625 -0.12468407 0.028631145 15723495
0.43446371 -0.12502141 0.024084419 15328994
0.44000003 -0.12294821 0.020581095 14934493
0.42596561 -0.11539417 0.029034747 15592420
0.43551552 -0.11522134 0.025217019 15263198
0.44083336 -0.11320052 0.021608273 15197662
0.42650002 -0.1091909 0.029934069 15329245
0.43502504 -0.10574422 0.027697772 15131613
0.44258824 -0.10779134 0.023928219 15066076
0.45300001 -0.10802234 0.02224965 15263454
0.42754552 -0.093125753 0.029368984 15066076
0.43197057 -0.095456868 0.027012508 14999772
0.43412131 -0.085215516 0.028435327 14934491
0.58875 -0.083367541 0.024781916 15789544
0.59000003 -0.082680926 0.02138197 15000799
0.43600002 -0.073706456 0.028677898 14737627
0.57618189 -0.072038025 0.027682489 15394786
0.58508343 -0.075434729 0.023598259 15723751
0.43522587 -0.065397099 0.028245196 14868956
0.55900002 -0.060015865 0.028764598 15197407
0.5654667 -0.063449919 0.027681822 15394530
0.57463646 -0.065664999 0.025158834 15591652
0.58314288 -0.066316426 0.021521907 15657957
0.4363704 -0.056000251 0.028659239 14803419
0.55408341 -0.054252025 0.028346265 15328993
0.56230003 -0.055506699 0.025642002 15525859
0.57520002 -0.055423398 0.023267392 15591908
0.58553845 -0.054734573 0.021271421 15460579
0.54718179 -0.043960951 0.028970294 15066078
0.55440003 -0.046195362 0.027052272 15065821
0.56049997 -0.045524478 0.025342353 15328737
0.5762223 -0.043884829 0.022904515 15131614
0.58314282 -0.045352101 0.021229113 15328993
0.54585713 -0.035142459 0.028634096 14803419
0.55518752 -0.034585159 0.026453018 14802906
0.56283337 -0.033743918 0.023576535 14934492
0.57477784 -0.035547897 0.021201881 15065821
0.58150005 -0.03860933 0.020393275 15263200
0.53483337 -0.022364909 0.029395813 14408661
0.54563642 -0.024098761 0.027494241 14408661
0.55430782 -0.02567465 0.024874041 14606040
0.56292856 -0.024860362 0.021715952 14802906
0.57200003 -0.029274089 0.020060109 14868442
0.5262 -0.013383579 0.02954049 14277075
0.5341053 -0.015490252 0.028334357 14277075
0.54400003 -0.01422447 0.025834322 14342611
0.55414999 -0.014740862 0.023321599 14606040
0.56099999 -0.015710983 0.02124984 14671320
0.51520002 -0.0020069862 0.029402399 14277075
0.52453339 -0.005483652 0.028462915 14277075
0.53446156 -0.0061816606 0.026825007 14276818
0.54435718 -0.0043737753 0.024730684 14145232
0.55379999 -0.0052028489 0.021944394 14474197
0.5057084 0.0061286255 0.028191507 13948110
0.51300001 0.0013714045 0.028193908 14145490
0.52200007 0.0019950797 0.026860682 14211282
0.53800005 0.00017426838 0.026424531 14079696
0.54607141 0.0051038899 0.023528997 14013903
0.55259997 0.0044023502 0.021276124 14342611
0.50600004 0.013434197 0.029116038 13816524
0.51460004 0.015672186 0.02768193 13882060
0.52515388 0.017663814 0.025600169 13947340
0.53520006 0.016204499 0.022775946 13882061
0.54385716 0.013812594 0.02143589 13947854
0.55050004 0.01113194 0.02059483 14277075
0.49900001 0.028781749 0.029181669 14013903
0.50350004 0.02681997 0.02811718 14013646
0.51675004 0.025569478 0.026891643 13947596
0.52600002 0.024188723 0.025480805 13947597
0.53350002 0.024526868 0.022065492 14013391
0.54000002 0.024825837 0.020202013 14013905
0.49900001 0.030534003 0.029181669 13882317
0.50330001 0.034570023 0.028310966 13947853
0.51381254 0.036331069 0.026434256 14145232
0.52540004 0.038054414 0.024328018 14079440
0.5350858 0.034604348 0.022370894 14144977
0.54000002 0.030514508 0.020202013 13948112
0.50406671 0.04547368 0.028768014 14144975
0.51411122 0.045635175 0.026180144 14144719
0.52452946 0.045095969 0.023520624 14144720
0.53430438 0.044488538 0.021127174 14078927
0.49883339 0.056603137 0.029171923 14276305
0.5054667 0.055467624 0.028136032 14144719
0.51365525 0.054732691 0.025595777 14210512
0.52446669 0.054925978 0.022400308 14210512
0.53283334 0.05420953 0.020554269 14210512
0.48840007 0.066472217 0.029705131 14868442
0.49588892 0.063752815 0.029124323 14144719
0.50408334 0.064575411 0.027411433 14407891
0.51339144 0.064699106 0.025107039 14407891
0.52390915 0.064667411 0.022270279 14276305
0.53250003 0.0612555 0.0205418 14342098
0.49458337 0.074934468 0.029402316 14407893
0.50478262 0.074869558 0.027151439 14473686
0.51270598 0.074157119 0.02433184 14605271
0.52354544 0.075377554 0.022592299 14539477
0.53414291 0.075825863 0.020605603 14407892
0.50600004 0.0814211 0.027692467 14473685
0.51284623 0.083283968 0.025183124 14078927
0.5235334 0.083344236 0.022115055 14342097
0.53466672 0.081112318 0.020416846 14539477
0.41400003 -0.14039721 0.039717749 14210514
0.41626838 -0.13420008 0.038123813 15986412
0.422575 -0.13400087 0.033311337 15525346
0.40837499 -0.12176013 0.039057832 16446961
0.41447461 -0.1248823 0.036215879 15985897
0.4221819 -0.12568274 0.031963918 15723239
0.40710005 -0.11494832 0.038576268 16249836
0.41453344 -0.11501985 0.034436513 15855335
0.42154551 -0.11442287 0.031110225 15526371
0.40689746 -0.10538021 0.03869126 15987176
0.41444016 -0.10503472 0.035443455 15658212
0.42344442 -0.10489065 0.031848181 15263454
0.40753841 -0.095930405 0.039206348 15789797
0.41449991 -0.09462525 0.03613383 15526626
0.42250007 -0.094813652 0.032120995 15394784
0.40900001 -0.089870296 0.039238062 15526626
0.4146212 -0.085335672 0.037207928 15526626
0.42377788 -0.085314192 0.033208042 15394785
0.43200001 -0.083491884 0.031076709 15263455
0.41621223 -0.076270051 0.03853891 15460833
0.42418659 -0.074505836 0.035296731 15197661
0.43243334 -0.07504008 0.031460855 14671577
0.56850004 -0.070351899 0.03124916 15328993
0.57200003 -0.072124086 0.030772606 15328993
0.42303395 -0.065556727 0.037082419 14935003
0.43328571 -0.064582385 0.032265145 14540247
0.55700004 -0.061105087 0.031920385 15592165
0.56381822 -0.06546355 0.030931951 15263200
0.42466676 -0.056106966 0.038193256 14671832
0.43365213 -0.055062421 0.033839215 14474454
0.54866672 -0.05376948 0.033370629 14934235
0.55200005 -0.056088466 0.031783745 15197920
0.42750001 -0.048649512 0.039260641 14342868
0.43260974 -0.046373047 0.036582507 14342868
0.523 -0.04084757 0.034258254 14803419
0.53133339 -0.0421215 0.033560257 14869212
0.54490912 -0.046223532 0.031055177 14935005
0.50585711 -0.034012329 0.038041107 14605270
0.51535714 -0.034041356 0.035129953 14671577
0.5255 -0.034647744 0.032699026 14606040
0.53337502 -0.035733473 0.031187832 14671833
0.48686668 -0.022636166 0.038728423 14342098
0.49360004 -0.023894075 0.037420891 14407891
0.50333339 -0.025560066 0.037092943 14407891
0.51699996 -0.025618574 0.035025563 14539990
0.5239501 -0.023810502 0.032106929 14474454
0.53000003 -0.027124593 0.030994559 14671833
0.486 -0.01514477 0.039038721 14210512
0.495 -0.014376022 0.037126962 14276305
0.50446159 -0.014822711 0.034948073 14276305
0.51400012 -0.014558922 0.033099025 14276561
0.52262503 -0.016044896 0.031326436 14408661
0.47375003 -0.0023426537 0.039626092 13882317
0.48377779 -0.0050603841 0.03873162 14013390
0.49436361 -0.0050301156 0.03591685 14144975
0.50372231 -0.0045504747 0.032597136 14144976
0.51441669 -0.0064594266 0.030882701 14276818
0.52000004 -0.0095701981 0.030409757 14211282
0.45480004 0.0080267172 0.038945712 13619145
0.47350001 0.0023691491 0.039883614 13750731
0.48616013 0.0043062279 0.038305286 13881804
0.4942106 0.0053689107 0.034615751 13947340
0.5026316 0.0038751736 0.031373564 13882060
0.45473337 0.015059113 0.038869083 13684426
0.46100003 0.017416677 0.037751511 13618377
0.47285718 0.017864306 0.037137959 13815755
0.48604351 0.015932338 0.035249356 13815754
0.49366668 0.014023494 0.032870028 13815754
0.50125003 0.014827088 0.030486684 13816524
0.45538461 0.024911698 0.03909371 13816010
0.46476188 0.025790265 0.03696632 14078926
0.4734616 0.025725024 0.035360228 13881547
0.48505557 0.023564437 0.034102466 13749963
0.49442106 0.025021518 0.03122337 13947597
0.44791672 0.035791378 0.039650667 13881547
0.45392317 0.034963913 0.038639434 13947853
0.46523076 0.033833083 0.036668509 13947340
0.47328573 0.035057049 0.034878191 14013133
0.48528576 0.033599306 0.033407159 13881547
0.49676475 0.03367988 0.031851083 13947597
0.50049996 0.036484774 0.03088001 14079439
0.44809094 0.044397198 0.039650235 14079696
0.45294741 0.045688387 0.038315818 13947853
0.4665556 0.044195037 0.03638332 14013133
0.47604549 0.04508834 0.034674738 14013133
0.48406249 0.045343418 0.032624811 14013134
0.49446669 0.045069788 0.031227613 14013391
0.50150001 0.041840173 0.030501891 13882317
0.45654544 0.053686116 0.038647469 14079183
0.46423087 0.054986112 0.036881488 14144719
0.47573686 0.053784113 0.034380399 14144719
0.48406252 0.054833319 0.032272048 14144719
0.49280006 0.057029508 0.030432051 14144719
0.45683336 0.06716606 0.038654752 14605270
0.46455559 0.0641279 0.037010029 14342098
0.47435004 0.064834692 0.034176875 14473684
0.48384613 0.065281518 0.031732719 14473685
0.49200001 0.06062552 0.030497637 14276305
0.45750001 0.074918553 0.039136823 14671319
0.46551913 0.075786918 0.035281595 14671062
0.47447065 0.07345964 0.032382403 14605270
0.48200002 0.072561473 0.031194935 14539477
0.45716673 0.084695518 0.039041191 14605011
0.46493751 0.08296743 0.035545059 14473683
0.47050002 0.083863698 0.032058604 14078928
0.45700002 0.090015031 0.039563641 15328482
0.42900002 -0.15050554 0.049191169 16118258
0.41660005 -0.14147511 0.042895798 15394532
0.4252308 -0.14704224 0.047766563 15328739
0.40744743 -0.13335577 0.047418449 16118254
0.41260004 -0.13565919 0.043127518 15986412
0.39900002 -0.12036529 0.04948749 15855078
0.40453127 -0.12469078 0.045274526 16117740
0.41066667 -0.12853168 0.040999603 15656677
0.39816132 -0.11401002 0.048239548 16249836
0.40203744 -0.11523304 0.043737706 16184044
0.39789742 -0.10534273 0.048130896 16184042
0.4022561 -0.10478476 0.043520883 16184041
0.39800015 -0.094907038 0.048430171 15855334
0.40270582 -0.094892718 0.043669309 15789797
0.39843488 -0.08531718 0.048808418 15460833
0.40420777 -0.085167497 0.043876503 15658211
0.41000003 -0.080971763 0.040293816 15658212
0.39836362 -0.076086 0.049323652 15460575
0.40371439 -0.075041078 0.045396641 15526625
0.41315007 -0.074083231 0.040841945 15460833
0.40378055 -0.065227196 0.046838794 15395040
0.41465449 -0.064691029 0.041923475 15395040
0.40432897 -0.055164408 0.047400486 15263197
0.4146229 -0.054888953 0.042424046 15000540
0.42000002 -0.051975016 0.040293366 14540247
0.40598276 -0.045613203 0.047724675 15000025
0.41314709 -0.046066444 0.043835428 14802904
0.42363641 -0.043673228 0.041988526 14342867
0.43025005 -0.043170638 0.04026949 14211282
0.40799999 -0.036271498 0.049254779 14605269
0.4147369 -0.034560349 0.047599804 14474196
0.42320845 -0.034932729 0.044144344 14277073
0.43000001 -0.030059844 0.042259369 14079696
0.41399992 -0.025548469 0.048333306 14210768
0.42340001 -0.026624668 0.045865774 14211024
0.4316667 -0.026816996 0.044437218 14079696
0.44460002 -0.020879732 0.044521537 14013390
0.46500003 -0.020532273 0.042433366 14078926
0.48460001 -0.021628074 0.041044258 14145489
0.41690001 -0.017820332 0.049169011 14144719
0.42347065 -0.014256785 0.048671711 14276305
0.43476474 -0.013148305 0.047512393 14013133
0.44636846 -0.014600623 0.045182195 14013133
0.45520839 -0.014321796 0.043488923 14144719
0.46441674 -0.012806321 0.041469481 14079182
0.47050002 -0.015821533 0.041283678 14145232
0.48200002 -0.018123006 0.041049529 14079696
0.42441669 -0.004297094 0.048702594 13947340
0.43405262 -0.0068696425 0.047463387 13947340
0.44510531 -0.0051197857 0.045493972 14013133
0.45530009 -0.0045440369 0.043781646 14013133
0.46542859 -0.0060771271 0.041689686 14013133
0.47340003 -0.0061716191 0.040315304 13882317
0.42463413 0.0047435863 0.048222866 13881547
0.43409523 0.004926879 0.045607287 13881547
0.4447858 0.0053120391 0.043519504 13816011
0.45185721 0.0049781152 0.04123291 13750475
0.46800002 0.0034383836 0.040515937 13750731
0.47500002 0.00015386149 0.040009964 13816524
0.41792315 0.016541949 0.049575958 13881547
0.42382863 0.014393483 0.047967587 13749962
0.43400002 0.015743315 0.045331653 13749961
0.44512191 0.014929882 0.042339649 13750218
0.4508889 0.014925159 0.040090125 13618890
0.41790915 0.023081386 0.04951942 14144719
0.42437148 0.026366828 0.04774322 14144719
0.43550006 0.025511587 0.044237293 13947597
0.44366673 0.024891688 0.041390631 13948110
0.45077786 0.02488225 0.040080246 13881547
0.42435986 0.035002992 0.047656938 14276305
0.43494123 0.035351858 0.044204678 14144719
0.44289657 0.034537379 0.041485842 13882317
0.42504552 0.04468843 0.047962151 14342098
0.43394881 0.045854524 0.044565327 14210512
0.44381818 0.045904912 0.04144131 14013903
0.42656755 0.054737169 0.048476446 14670550
0.4341864 0.055108778 0.0442256 14342611
0.44315386 0.055125955 0.041075118 14277075
0.45000002 0.05316982 0.040011089 14013903
0.42752632 0.063456118 0.049178548 14802647
0.43346304 0.065273374 0.046103351 14605783
0.44466674 0.065834828 0.042074684 14473941
0.45200002 0.066632301 0.040628251 14408404
0.43498072 0.074632406 0.047457688 14737368
0.44397572 0.07522849 0.043295007 14737113
0.4519375 0.075462058 0.040710095 14539477
0.43553191 0.084939979 0.048024751 14802647
0.44494873 0.083953418 0.043985993 14736855
0.45223078 0.08451318 0.041021049 14605013
0.43556252 0.092035562 0.04834519 14605266
0.44540006 0.091269806 0.04439228 14408146
0.45375004 0.090967357 0.041404996 14736602
0.41800004 -0.15114868 0.05908481 15657447
0.4231036 -0.1518098 0.054508772 15460070
0.40743753 -0.14150999 0.056013871 15657444
0.414 -0.14632772 0.056561824 15460067
0.42442861 -0.14847001 0.05213454 15393766
0.3987143 -0.1317471 0.059052568 15788261
0.40289596 -0.13491617 0.054745153 16051947
0.39672369 -0.12401956 0.056138828 15986153
0.40073332 -0.12701932 0.052295934 15788517
0.3943195 -0.11487537 0.054886442 16052457
0.39373425 -0.10511521 0.054893162 15920870
0.39343178 -0.095036976 0.05472124 15855077
0.39319515 -0.085022934 0.05478467 15526368
0.39337599 -0.075036071 0.05474823 15526368
0.38900003 -0.065441228 0.059175078 15526111
0.39416635 -0.065062217 0.054865636 15591904
0.40000001 -0.061985444 0.050547928 15526624
0.39449158 -0.054983422 0.05541297 15460575
0.40000007 -0.054470174 0.050691999 15263454
0.39443144 -0.045061883 0.056138143 15328990
0.40148577 -0.044201873 0.051242888 15066075
0.39467403 -0.035166584 0.056725524 14934489
0.40288678 -0.034514576 0.051814016 14671317
0.39580321 -0.02538643 0.057894699 14671317
0.4041644 -0.024998248 0.053329259 14408145
0.41100004 -0.023180166 0.050309185 14144719
0.39735129 -0.015106638 0.058381591 14408145
0.40380949 -0.015268896 0.054872047 14276304
0.41364512 -0.014540041 0.051486667 14078926
0.42033339 -0.012655169 0.050165426 13618375
0.39796564 -0.0051400778 0.058706235 14144717
0.40427473 -0.0051589217 0.055623755 14013133
0.41444457 -0.0048487405 0.05223535 13947340
0.42033336 -0.0036379574 0.050165426 13881547
0.3979584 0.0045172418 0.059023008 14013132
0.40460289 0.0050884997 0.055786766 13881546
0.41463047 0.0051800655 0.05184073 13815754
0.42000005 0.0034134712 0.05012564 13815754
0.39879999 0.014601821 0.059732266 13881801
0.40384418 0.015021509 0.056716491 13947338
0.41330606 0.015197036 0.052084081 13815754
0.40509081 0.024844199 0.056586135 14210767
0.41358534 0.024909765 0.051595695 14144719
0.40633333 0.03483814 0.057379246 14407888
0.41415253 0.035529111 0.052407641 14210512
0.42000005 0.033729654 0.05012564 14276305
0.40757146 0.044206031 0.058248401 14408147
0.41408452 0.045174789 0.053857636 14407890
0.42066669 0.04576708 0.050533261 14473683
0.40883335 0.053251687 0.059320886 14737110
0.41424999 0.055021435 0.056104641 14737110
0.42172736 0.055425785 0.051525638 14802646
0.41520557 0.064700998 0.05705316 14868696
0.42272335 0.065516293 0.052127931 14934232
0.41714281 0.074656285 0.057966296 15000282
0.42407563 0.07514973 0.053412206 15000282
0.43000004 0.076140434 0.050312467 14868698
0.41785723 0.083471358 0.058859177 15131355
0.42401478 0.085134253 0.055276494 14868696
0.43070844 0.086056232 0.051318582 14868441
0.42632502 0.093806967 0.057486869 14342610
0.43114287 0.094868995 0.053013843 14013389
0.43100002 0.10002851 0.055474374 8289663
0.40900001 -0.15019131 0.06891983 15394788
0.41280001 -0.15219012 0.064880006 15591910
0.40482256 -0.14420348 0.065672696 15460066
0.41176933 -0.14853856 0.062486406 15459811
0.39721337 -0.13395189 0.065889031 15723493
0.40045834 -0.13811012 0.063181698 16052202
0.39358813 -0.12498309 0.064924762 15525601
0.38899997 -0.11256119 0.067396998 15525600
0.39074084 -0.11574023 0.063896954 15657186
0.38877386 -0.10449531 0.066734284 15328219
0.39034092 -0.10525125 0.06170404 15788513
0.38846406 -0.094855666 0.066356204 15459805
0.39018193 -0.09487056 0.061181262 15657440
0.38790673 -0.084615074 0.065867633 15394526
0.39000002 -0.085771471 0.060924932 15394782
0.38714531 -0.074867085 0.065296017 15328733
0.39000005 -0.075652421 0.06024019 15131353
0.38695461 -0.065097228 0.064740233 15263196
0.38698462 -0.055200376 0.064797901 15328989
0.39000002 -0.051001504 0.06024019 15394525
0.38666129 -0.04513482 0.06514471 15328733
0.39000005 -0.044610526 0.060240194 15394526
0.38656393 -0.035275463 0.065282397 14934232
0.39031249 -0.033737127 0.060573768 14999769
0.3866989 -0.025407439 0.066282138 14539731
0.39174423 -0.024182398 0.06167984 14605268
0.38673338 -0.015469214 0.067031719 14408145
0.39279997 -0.01459694 0.062136393 14407889
0.38785705 -0.0054931813 0.06773144 14079180
0.392961 -0.0050695906 0.062743068 14079180
0.38856524 0.0043386272 0.068540193 13750215
0.39303124 0.0048729437 0.063427724 13816009
0.38862172 0.01502621 0.0689274 13816008
0.39387721 0.014761025 0.063893951 13947594
0.38885716 0.021063687 0.069036461 14276559
0.39463034 0.025015714 0.065407701 14276303
0.40056255 0.027031999 0.060874425 14408145
0.39644444 0.034780368 0.06689918 14342094
0.40113994 0.03515948 0.06176988 14341838
0.39753073 0.04421128 0.067876779 14341838
0.40246755 0.045542128 0.06323237 14407888
0.39833334 0.05141722 0.069452897 14802388
0.40439519 0.055032607 0.06469471 14868182
0.40560386 0.064642683 0.065916806 14999768
0.41115004 0.066116184 0.061244465 15262941
0.40701604 0.074259602 0.067323998 15065818
0.41272143 0.07554505 0.06242824 15065562
0.40835494 0.083888985 0.068594322 15000282
0.41329065 0.085263826 0.063892312 15000026
0.40900001 0.090135261 0.069877304 15000282
0.41436511 0.094090328 0.066517606 14671318
0.42194295 0.095981963 0.061897073 14407890
0.41791674 0.10164014 0.06781096 14144718
0.42145726 0.10514435 0.06673222 7433320
0.4228 0.11059648 0.068077371 2564889
0.40842432 -0.15270405 0.076701671 14868442
0.41069999 -0.15379699 0.072281934 15065564
0.39800003 -0.1411445 0.076788783 15722725
0.40356809 -0.14610012 0.075728595 15065308
0.39529008 -0.13472331 0.075061843 15854566
0.389 -0.12038413 0.077388197 14999769
0.39189094 -0.12542118 0.074935682 15196378
0.38846973 -0.11467609 0.075026296 15131099
0.39000002 -0.11924803 0.070967913 14867929
0.38744286 -0.10511826 0.075215183 14999768
0.38625625 -0.094824284 0.075028159 14868183
0.38459173 -0.084761068 0.075029857 15065562
0.38339823 -0.075054161 0.075003244 14933976
0.38233593 -0.065061577 0.074657813 14999769
0.37900001 -0.050893866 0.079835013 14605011
0.38207579 -0.055108659 0.074660152 14999768
0.37900004 -0.045777418 0.079539262 14933976
0.3817462 -0.044913024 0.074435391 14999769
0.38155246 -0.034792341 0.074624859 14736597
0.37900004 -0.025075018 0.079598412 14144462
0.38157815 -0.024846105 0.074409567 14342096
0.37899998 -0.015108287 0.079761066 14013387
0.38174823 -0.015054367 0.074557602 14144973
0.37900001 -0.0083060693 0.079835013 13815751
0.38252303 -0.0052259495 0.07470832 13750215
0.38386777 0.0047784075 0.075110704 13487044
0.38497025 0.014958829 0.075234264 13618629
0.38712499 0.024532499 0.075347327 14144972
0.39068747 0.027737396 0.071377702 14144973
0.38827282 0.034378864 0.077488974 14276558
0.39191425 0.03559671 0.072627626 14276559
0.38900003 0.040559132 0.078480981 14408143
0.39265838 0.045194842 0.074755691 14473425
0.39559987 0.054834809 0.074991122 14802389
0.40000001 0.057999533 0.070399761 14670802
0.39708638 0.064444326 0.076684557 14933975
0.40060461 0.065866359 0.071909182 15065303
0.39861912 0.073007353 0.078545891 15131355
0.40206015 0.075552903 0.074185871 15131354
0.40390852 0.085085198 0.075191103 15000026
0.40711269 0.094381049 0.076098636 14605269
0.41124141 0.096541099 0.071652748 14671318
0.40900001 0.1006675 0.079452068 14408661
0.41361368 0.10295042 0.075249419 13355460
0.4211579 0.10807201 0.071952991 6314838
0.42199999 0.11127651 0.071604393 2433303
0.4072713 -0.15311438 0.084785692 14736601
0.396 -0.14246826 0.085459478 15328479
0.4024483 -0.14739908 0.08405707 14538965
0.39244789 -0.13474491 0.085090041 15789028
0.38899997 -0.12127144 0.085023694 15065562
0.39115503 -0.12647533 0.084948003 14933462
0.38786384 -0.11473944 0.085152008 14802389
0.3857207 -0.10503054 0.084819339 14736340
0.38436896 -0.095121227 0.08493524 14671060
0.38219002 -0.084877476 0.084976032 14736597
0.37899998 -0.071546979 0.088608891 14933976
0.38100883 -0.075094305 0.084606975 14736854
0.3785263 -0.06427449 0.086950839 14802390
0.38041651 -0.065616123 0.082284309 14933976
0.37825418 -0.054553244 0.085399292 14868183
0.38020009 -0.056707639 0.08075498 14868183
0.37797448 -0.045072123 0.08498463 14802391
0.38000003 -0.040797908 0.080045663 14407632
0.37787569 -0.034992307 0.085192524 13881032
0.38000008 -0.034926634 0.080223575 14473682
0.3768723 -0.025126409 0.085244536 11183519
0.37725753 -0.014890659 0.085198089 11512742
0.37784722 -0.0054607368 0.085486025 13157822
0.38006258 -0.0032129877 0.080670416 13486787
0.37830496 0.0044647278 0.086749971 13223871
0.38070956 0.0057307361 0.082177304 13355714
0.37863886 0.014256936 0.088326745 13487043
0.38125005 0.015651152 0.083819278 13618629
0.37900004 0.021416664 0.089594714 14144458
0.38271648 0.025227541 0.084804393 14013386
0.38481513 0.035193518 0.085173555 14079179
0.38722229 0.044848893 0.085129224 14342350
0.39000002 0.047906507 0.080478288 14605524
0.38864413 0.053683415 0.08732412 14736595
0.39135623 0.056003369 0.082897738 14868182
0.38900003 0.060229301 0.08922673 14802388
0.39275578 0.065068923 0.085038118 14868181
0.39520609 0.074949801 0.085033946 14999768
0.3966856 0.084504284 0.085575476 14934232
0.40006673 0.086918145 0.081213079 14737112
0.39753845 0.092192367 0.088282906 14605525
0.4022955 0.095298499 0.084067687 14408147
0.40747619 0.1038423 0.087418839 7368042
0.41235003 0.10665788 0.084877513 4670529
0.4058696 -0.15315627 0.094865642 14210513
0.38900003 -0.14011502 0.099243939 16710387
0.39358926 -0.14300801 0.095109992 15460066
0.40200001 -0.14931569 0.094087496 14341842
0.38899997 -0.13439611 0.098588265 16315115
0.39093605 -0.13496116 0.094086498 16183786
0.38894638 -0.12250315 0.095603816 15459548
0.39045894 -0.12694551 0.094369426 15392984
0.38759497 -0.11489477 0.095268898 15262170
0.38521424 -0.10487289 0.094766714 14736082
0.38290074 -0.095046356 0.094908014 14604498
0.38101611 -0.084982775 0.094982423 14341839
0.37848237 -0.073618121 0.095819488 14078924
0.38011912 -0.078163862 0.093904875 14276304
0.37736815 -0.06521333 0.094912276 14144717
0.3766759 -0.055097405 0.094707124 14210510
0.37574983 -0.044895381 0.094641492 14276047
0.37526518 -0.035021469 0.094736181 11578533
0.37224635 -0.025064573 0.094851583 2436135
0.3718816 -0.015161198 0.09485767 2961454
0.37500742 -0.0050519877 0.094947055 11842476
0.37586558 0.0048606293 0.094756238 12895419
0.3767724 0.015118606 0.09479358 13289663
0.37804347 0.024473624 0.095675878 13684420
0.38045457 0.027936231 0.091475867 13881799
0.37874076 0.031976566 0.098234624 13684422
0.38119268 0.035493195 0.09427508 14079179
0.38321012 0.044926625 0.094947122 14276302
0.38596019 0.055030361 0.095037125 14736597
0.38793585 0.064540081 0.095474713 14802390
0.39022219 0.067220114 0.091181554 14802388
0.38875002 0.073160008 0.097950652 14934232
0.39113787 0.075886294 0.093785934 14933975
0.39231947 0.085001267 0.094956771 14868439
0.39431569 0.093366817 0.09527228 14605269
0.40061539 0.098892815 0.093620822 13947853
0.39900002 0.10054135 0.099460028 13355209
0.40476397 0.10402909 0.094222389 7038820
0.40481824 -0.15279397 0.10138207 13946825
0.38394594 -0.14122471 0.10511982 15789287
0.39400002 -0.14560543 0.10051957 15590369
0.38519999 -0.13499045 0.10511505 16381422
0.38660881 -0.12518136 0.10517927 15722206
0.38456407 -0.11493555 0.10530319 15919842
0.38333803 -0.10504629 0.10509885 15196633
0.37873691 -0.092180692 0.10871102 15262941
0.38131499 -0.095443055 0.1044521 14999512
0.37832561 -0.084068373 0.10646645 14868441
0.38045639 -0.086949401 0.1026397 14934232
0.37699977 -0.074894011 0.10504181 14736854
0.37519696 -0.064878494 0.10493764 14605525
0.37458348 -0.055124678 0.10476865 14605012
0.37430578 -0.045006178 0.10469268 14473425
0.37358037 -0.034880262 0.10476555 10263188
0.3685323 -0.023606349 0.10684996 2107684
0.37054184 -0.026267311 0.10344876 2370342
0.36862963 -0.017187221 0.10682994 2239012
0.37060696 -0.013747965 0.10388996 3225137
0.37382281 -0.0051556239 0.10495453 11184288
0.37423044 0.0050516059 0.10484605 12631990
0.37451538 0.015026361 0.10475078 13224126
0.37591767 0.02484566 0.10520492 13816007
0.37769139 0.034894127 0.10518171 13947592
0.38000003 0.038968381 0.10080269 13815752
0.3784909 0.043104883 0.10680713 14341838
0.38073963 0.046290971 0.10358104 13947337
0.38217402 0.05498071 0.10490995 14539218
0.38406539 0.064884447 0.10495138 14670804
0.38656828 0.075097084 0.10525692 14736854
0.38800985 0.084469825 0.10570545 14671317
0.39016667 0.086594723 0.10129198 14802647
0.38870367 0.091897808 0.10803092 14408661
0.39208791 0.095411509 0.10406223 14276563
0.39487505 0.10142774 0.10566029 6578274
0.4012 0.10419663 0.10085307 2433567
0.37746009 -0.1417013 0.11477826 15526114
0.38000003 -0.14043163 0.11029161 15987177
0.37790161 -0.13570343 0.11576088 15986406
0.38079995 -0.13281307 0.11214932 16051942
0.37835094 -0.12450235 0.11758142 15394011
0.38154879 -0.12566619 0.11295719 15590877
0.37753853 -0.11497916 0.11685663 15723235
0.38092306 -0.11506578 0.11222099 16117991
0.37706897 -0.10473882 0.11595281 15657442
0.38041377 -0.1057016 0.11124063 15722978
0.37673953 -0.095105223 0.11524611 15460320
0.38000003 -0.09906584 0.11029161 15656929
0.37558067 -0.084824607 0.1150491 15131612
0.37404406 -0.075212836 0.11490764 14934233
0.37304765 -0.065077409 0.11505692 14868439
0.37249026 -0.055027034 0.11520264 14802390
0.37227851 -0.04486005 0.11484431 14473169
0.36900005 -0.03011472 0.11832882 2370339
0.37292984 -0.034938093 0.11490715 9144964
0.3672891 -0.02460284 0.11515855 2041376
0.37 -0.029330157 0.11215317 2239268
0.3673121 -0.01590585 0.11536118 2239012
0.37049994 -0.011031176 0.11378985 5133388
0.37290245 -0.0051389495 0.11489677 10460823
0.37273502 0.0049983351 0.11483827 12565941
0.37247565 0.014944484 0.11507468 13355457
0.37303248 0.025010685 0.11524713 14013387
0.37362263 0.035178144 0.11509968 14276559
0.37550339 0.044989251 0.11504145 14736852
0.37738243 0.054111797 0.11640907 15065560
0.38038096 0.056712702 0.11207658 15131355
0.37860003 0.061574038 0.11845231 15197146
0.38133347 0.065567218 0.11476852 15065818
0.38264883 0.075035453 0.11509079 15065818
0.38376272 0.084918097 0.11492395 15000025
0.38672096 0.093525641 0.1153797 14276560
0.39081815 0.098355621 0.11388735 12763836
0.39240915 0.10109448 0.11497843 9868178
0.37457687 -0.14215393 0.12431244 15065821
0.37556759 -0.13505408 0.12499242 15394527
0.37736267 -0.12545925 0.12511575 15328475
0.37631682 -0.11535227 0.12499499 14604753
0.37519997 -0.10531156 0.12482864 14144458
0.37459707 -0.095040292 0.12530892 13486529
0.37402508 -0.084812224 0.12519383 13027004
0.3733474 -0.075046718 0.12496984 12828601
0.37212062 -0.065101907 0.12500504 13420993
0.37214682 -0.055035152 0.1249174 13683908
0.37227982 -0.044916682 0.12497536 13354944
0.36847618 -0.030482987 0.12481325 2041375
0.37206486 -0.035813503 0.12459404 9012864
0.36547467 -0.024829097 0.12517506 1712154
0.36554578 -0.015252498 0.12514058 2436136
0.37 -0.01027427 0.12081493 8816767
0.36900002 -0.0093826661 0.12783101 8749943
0.37205896 -0.0046936977 0.12496453 9736842
0.37126735 0.0048486548 0.12484405 11842218
0.37027332 0.014760987 0.12508753 12763063
0.36894834 0.026343478 0.12665148 13025977
0.37039307 0.02382176 0.12387271 13684422
0.36900011 0.034113999 0.12678082 13355200
0.3703261 0.035585877 0.12427446 13947337
0.36900005 0.040719803 0.12696718 13815751
0.37097791 0.045105714 0.12484631 14407888
0.37309161 0.055114813 0.12488659 14934488
0.37600008 0.064717196 0.12541895 15197661
0.38009098 0.067748107 0.12059101 15328732
0.37663198 0.075000435 0.12570278 15131868
0.38042313 0.074589565 0.12086083 15197148
0.37658647 0.084746994 0.12626724 15000282
0.38048646 0.085562356 0.12140966 15065819
0.37816006 0.09229935 0.12795757 14540502
0.38187 0.095421053 0.12446039 11579049
0.38163635 0.10067333 0.12676358 2696477
0.37419432 -0.13487764 0.131504 13026241
0.37612677 -0.1247964 0.13268036 13158081
0.37658346 -0.1153997 0.13341787 12697273
0.3756929 -0.10554334 0.13383293 12828603
0.37391827 -0.094802789 0.13416305 13091775
0.37233138 -0.08496207 0.13505854 13816268
0.3717396 -0.07505621 0.13484752 12960444
0.37302798 -0.064979881 0.13490613 12960444
0.37336713 -0.054995205 0.13416798 13553094
0.37289733 -0.044783264 0.1345707 12960444
0.36683333 -0.031399857 0.13576987 2566948
0.37274718 -0.036213607 0.13464279 9342085
0.36253768 -0.024976904 0.13484141 1712409
0.36394593 -0.014968126 0.13499798 2830635
0.3687 -0.0091158869 0.13730653 8289913
0.37121114 -0.0047883196 0.1349888 9736842
0.36866674 0.0079146186 0.13778403 11645358
0.3707881 0.004201015 0.13431837 11645355
0.36793691 0.015240978 0.13653588 12697530
0.37016326 0.015011828 0.13200022 13092283
0.36768746 0.025464078 0.13539137 13355714
0.37022215 0.021401593 0.13167228 13223611
0.36772886 0.034580722 0.13582538 13684164
0.36999992 0.036896262 0.13156994 13354426
0.36793357 0.044755459 0.13652062 14078664
0.37020835 0.045946211 0.13204056 13551547
0.36826563 0.054460127 0.13757004 14211023
0.37059054 0.055236183 0.13302083 13946820
0.36857152 0.063815899 0.13892955 14474195
0.37107003 0.06531325 0.13410889 14407630
0.36900002 0.07052213 0.13992471 14474454
0.37191525 0.075017728 0.13490345 14342607
0.37407637 0.084561914 0.1349688 13815751
0.37818891 0.094513938 0.13436057 11710893
0.38000008 0.095901936 0.13861011 8750208
0.38050002 0.10033287 0.13047817 2696991
0.37100002 -0.084560297 0.14068313 12697530
0.37100002 -0.077177897 0.14068311 13816009
0.37300006 -0.065073989 0.14071347 9868688
0.37200001 -0.057356179 0.14019145 9211016
0.37270835 -0.043754239 0.14078547 9605002
0.36195657 -0.03090328 0.14407137 1186323
0.37368569 -0.036773138 0.1422772 8420984
0.36176863 -0.024827909 0.14442612 1186323
0.36235991 -0.0150495 0.14451525 2302236
0.36800003 -0.0088869072 0.14259799 6973283
0.37088537 -0.004433603 0.1431874 7763053
0.36880001 0.0089254342 0.14105777 11119270
0.37207702 0.0043868478 0.1442817 8421500
0.36788887 0.015008355 0.14162923 11184806
0.37252378 0.017477533 0.14683144 8420985
0.3672162 0.025440669 0.14182869 11579564
0.3732903 0.024784448 0.14739095 9342859
0.36669612 0.035302352 0.1429868 11316134
0.37116671 0.031399742 0.14813261 8026742
0.36657152 0.045189682 0.14347939 11842477
0.3673473 0.054666162 0.14446755 12106162
0.37 0.059452947 0.14896567 11053219
0.36784813 0.064576358 0.14295487 13487301
0.37078944 0.066319168 0.14782225 11711404
0.36884922 0.075063705 0.14421977 13487816
0.37047175 0.074950226 0.14513172 13159107
0.36899999 0.081054285 0.14583866 13355973
0.37199998 0.08541014 0.14454348 13618890
0.37553126 0.091439992 0.14524169 5657170
0.38072225 0.095045507 0.14169568 6446940
0.36535305 -0.032077264 0.15640752 1909534
0.36648911 -0.025939213 0.15660015 594185
0.37036353 -0.024551058 0.15644233 593930
0.36381578 -0.016088529 0.15598215 1249288
0.377 0.0057705254 0.15037183 8750712
0.37771434 0.018439142 0.15194644 9342854
0.37800008 0.024967007 0.15218844 8355962
0.37550002 0.030448349 0.15118003 7566444
0.37100002 0.058745116 0.15110531 9145478
0.37594557 0.066257417 0.15383008 10066579
0.37388885 0.07495112 0.1535996 9540235
0.3711001 0.084692448 0.15218875 10790562
0.3725 0.0908117 0.15040764 6710111
0.36358553 -0.033149716 0.16504873 1186065
0.36366403 -0.024967542 0.16510785 923405
0.36381552 -0.016435789 0.1647889 1053707
0.34900001 -0.0346101 0.1797276 1778202
0.35111114 -0.034134846 0.17971817 1712408
0.36293343 -0.032831151 0.17523491 1054479
0.3582581 -0.023747612 0.1791627 659724
0.36132392 -0.025022555 0.17452969 1317394
0.35799998 -0.018412152 0.17961092 528137
0.36175609 -0.016702723 0.17597646 1186066
0.3453218 -0.033490539 0.18497004 1580823
0.35457891 -0.031514019 0.18044715 1186064
0.36092314 -0.033747897 0.18073174 593672
0.34533483 -0.02496855 0.18569364 1448981
0.35396099 -0.025229605 0.18072164 1054736
0.34462315 -0.016774783 0.18598169 1317653
0.3549073 -0.016494306 0.18108104 988689
0.36161545 -0.011535194 0.18241262 1777950
0.36358818 -0.0085937055 0.18553902 7106147
0.34168416 -0.03298004 0.19180933 1449237
0.34096149 -0.02528177 0.19179636 1449237
0.34069234 -0.017557934 0.19164515 1251860
