# .PCD v0.7 - Point Cloud Data file format
VERSION 0.7
FIELDS x y z rgb
SIZE 4 4 4 4
TYPE F F F U
COUNT 1 1 1 1
WIDTH 760
HEIGHT 1
VIEWPOINT 0 0 0 1 0 0 0
POINTS 760
DATA ascii
0.49300003 0.067593388 -0.030524055 15525856
0.49258339 0.074054562 -0.031253371 16118509
0.49250001 0.082596719 -0.031151924 16446961
0.49653339 0.037047636 -0.021798724 13223619
0.49666676 0.043791883 -0.023779187 13618377
0.49525002 0.056098461 -0.029007088 12893109
0.49285719 0.065924533 -0.028866937 16446960
0.49205887 0.07530456 -0.029362194 16381167
0.49200007 0.083973572 -0.029348325 16118507
0.48633337 0.017046807 -0.01064784 14802651
0.48693749 0.026369961 -0.01099536 14934237
0.49287501 0.025838787 -0.014707608 14934237
0.47800004 0.036572989 -0.010500404 15131616
0.48417646 0.035294417 -0.013230715 15197409
0.49311426 0.034258533 -0.017902162 15131617
0.47723073 0.045657039 -0.011281843 15131616
0.48340541 0.045025289 -0.015200098 15328739
0.49199998 0.041752491 -0.018708741 15394533
0.47593099 0.054782465 -0.01216556 15328994
0.48300013 0.054992914 -0.016423179 15657702
0.47567654 0.065002479 -0.01283228 15789287
0.48227584 0.064932182 -0.016882274 16184299
0.47595471 0.074931704 -0.013246108 15789287
0.48121056 0.074860476 -0.017335406 16513263
0.47594282 0.084959485 -0.012886651 15855335
0.48142305 0.084856398 -0.016972149 16118250
0.47515386 0.091621265 -0.012516907 15262944
0.48100004 0.0905191 -0.016632996 15394786
0.4774 0.0057445215 -0.00046962616 14473685
0.48227274 0.0071388353 -0.0037742143 14605015
0.46800002 0.018592963 -0.00038711002 14473685
0.47465521 0.015897984 -0.0023266883 14407893
0.48225006 0.014326392 -0.0063208686 14539479
0.46596879 0.025579151 -0.0014575463 14605271
0.47350001 0.025694467 -0.0052009798 14868187
0.48357144 0.024404734 -0.0085948091 14933980
0.45900002 0.038294394 -2.0724525e-05 14867930
0.46396875 0.035076298 -0.0018274834 14868187
0.47370464 0.034653552 -0.0067579355 14934237
0.45810002 0.046153136 -0.00045049479 14867930
0.46510255 0.045459323 -0.0039099106 14933979
0.47258624 0.044096246 -0.0076544285 14934236
0.45770833 0.055463105 -0.00087084598 15065821
0.46455172 0.054862298 -0.0055260835 15131614
0.47091672 0.054443479 -0.0096678175 15197407
0.45781478 0.064851955 -0.0010547074 15460579
0.46444231 0.06486091 -0.005739897 15460578
0.4703078 0.065959439 -0.0095916754 15657958
0.45876929 0.074502751 -0.00035133798 15460579
0.46434474 0.075323261 -0.0045500277 15592164
0.47050011 0.075050928 -0.009384145 15855080
0.46484283 0.085029535 -0.0038438367 15657958
0.47088897 0.085035123 -0.0093923565 15723495
0.46607989 0.093591064 -0.0035663757 15263458
0.47066668 0.092461139 -0.0092042843 15394787
0.48757145 -0.03310626 0.0087828888 15460579
0.49033335 -0.036190938 0.0083953813 15460579
0.48850003 -0.029575035 0.008554263 15263200
0.49349999 -0.026984639 0.0088345688 15197407
0.50680006 -0.027119 0.0063844835 15395299
0.51400006 -0.022865333 0.0050690649 14605783
0.523 -0.022479355 0.0012007381 11513253
0.46900001 -0.011925393 0.0091283023 14671063
0.47000003 -0.010850542 0.0076807276 14539477
0.51360005 -0.018830061 0.0050212359 15066077
0.46719235 -0.0046912432 0.0086843427 14605270
0.47166669 -0.0047176089 0.0052166339 14671063
0.45742857 0.0067740311 0.0085947383 14342100
0.46416676 0.0050121266 0.0060684849 14407892
0.47372723 0.0043816473 0.0019421924 14407892
0.44900003 0.017488873 0.0094397804 14407892
0.45549995 0.015186984 0.0073522218 14407893
0.46391666 0.015200155 0.0030801869 14407891
0.47080001 0.011392666 0.0013009496 14342098
0.44807139 0.025694508 0.0091199381 14802651
0.45483634 0.025256831 0.0055432548 14605271
0.46135294 0.023588952 0.0018203111 14473684
0.44662508 0.035560988 0.0081769815 14868442
0.45454556 0.034715522 0.0035296944 14802649
0.44618523 0.045132086 0.0069155553 15000028
0.45272729 0.044658266 0.0023844941 14868442
0.44580698 0.054854047 0.0067822924 15263199
0.45271444 0.055067096 0.0020589691 15197407
0.44706532 0.06444224 0.0071864869 15460834
0.45269457 0.065410785 0.0027128288 15460579
0.44828579 0.07405775 0.0082239043 15592419
0.45403722 0.07529822 0.0036907494 15592165
0.44900003 0.081081457 0.0094397804 15658212
0.45520553 0.084989361 0.0053652329 15460836
0.46000001 0.087913767 0.0010560985 15461350
0.45611331 0.094130382 0.0065783388 14935007
0.46144444 0.095514335 0.0017782375 14803166
0.45500001 0.10027272 0.0095659243 13090497
0.49900001 -0.11081432 0.019836325 15197661
0.49900004 -0.10460843 0.019325253 16315888
0.50085717 -0.10536583 0.017145241 14079438
0.49747625 -0.095341794 0.018055325 15197662
0.50100005 -0.099529967 0.015809685 12697014
0.48820004 -0.081902042 0.018949566 15460579
0.49257895 -0.08693593 0.017940762 15328992
0.48744011 -0.074561037 0.018279975 15657958
0.49000001 -0.073829152 0.016037259 16381680
0.486366 -0.064885579 0.016719176 15723751
0.49000001 -0.066946551 0.013743061 16118508
0.46900001 -0.050353203 0.019741697 15723751
0.47500005 -0.053913288 0.018613279 15657958
0.48324323 -0.055087123 0.015043519 15460579
0.49000001 -0.051460724 0.010301765 16448244
0.4664 -0.043482877 0.018056467 15526372
0.47289476 -0.046462286 0.016406558 15394786
0.48414287 -0.047444601 0.0138174 15131615
0.49200001 -0.047636613 0.011495595 15526373
0.45740002 -0.033192616 0.018395044 15263201
0.4643847 -0.036725562 0.016779797 15394786
0.47220001 -0.034992747 0.014349252 15394786
0.48427278 -0.033438656 0.011773565 15328993
0.44850004 -0.0229555 0.019140592 14868444
0.45333335 -0.027300926 0.017863015 15000029
0.47500002 -0.028481469 0.014710579 15131614
0.48566672 -0.029023474 0.011532946 15197407
0.49200001 -0.02633159 0.010343812 15065821
0.44750005 -0.015691672 0.018954827 14736858
0.45400006 -0.013238063 0.016498778 14671064
0.46424997 -0.012804423 0.012471684 14802650
0.43900001 -0.0013993599 0.019506609 14407893
0.44562966 -0.0042651766 0.017941901 14539478
0.45490327 -0.0061348085 0.015084539 14605271
0.46261901 -0.0061960914 0.011786537 14605270
0.4355264 0.0054976949 0.017766653 14407891
0.4443334 0.0051399716 0.014569552 14407892
0.45382616 0.0048027788 0.011479099 14407892
0.46000001 0.00014900271 0.010747913 14473684
0.43346146 0.015092397 0.017066078 14473685
0.4456667 0.016652729 0.011668481 14473686
0.45100003 0.012286022 0.010537628 14210514
0.43406761 0.025200091 0.016006183 14868186
0.44308338 0.024646955 0.011257458 14736857
0.43387178 0.035064168 0.015788008 15000029
0.44170004 0.034779608 0.010835709 14934236
0.43445215 0.045121305 0.015425419 15065820
0.44064286 0.044129286 0.01058993 14934235
0.43571422 0.054653261 0.015573059 15197663
0.4407059 0.056159876 0.010963881 15263199
0.43722212 0.064467698 0.017284699 15394785
0.44219142 0.06553679 0.012397046 15329246
0.43844002 0.074084945 0.018454205 15395040
0.44320598 0.075336747 0.013748516 15592418
0.43900004 0.081536584 0.019301068 15329247
0.44448772 0.084999047 0.014950084 15460578
0.45000002 0.088636242 0.010514263 15460579
0.44644833 0.094209261 0.016639052 15132386
0.45174077 0.096187197 0.012079803 14737373
0.44900003 0.10000157 0.016272042 14211031
0.45325005 0.10041672 0.01217741 12631229
0.43680954 -0.12451369 0.028755177 15723753
0.44364864 -0.12344182 0.025460433 15657958
0.43589476 -0.1148479 0.028656188 15657958
0.44519359 -0.11701944 0.025656113 15526373
0.45000002 -0.11731482 0.02315576 15263200
0.49842861 -0.11135495 0.022813123 16118763
0.4352932 -0.10483366 0.026748639 15460579
0.49787503 -0.10513627 0.022521377 15789030
0.43639067 -0.094859891 0.027048983 15394786
0.49631587 -0.095182732 0.022113884 15723495
0.43880004 -0.089021638 0.027920237 15131871
0.44294006 -0.084250987 0.027002046 15394786
0.48679319 -0.083075516 0.023593403 16052716
0.49138466 -0.087887958 0.022010395 15986666
0.444875 -0.075936928 0.028223909 15328994
0.47816667 -0.071114279 0.027775267 15986923
0.48333353 -0.074940808 0.023630176 15921387
0.442 -0.064222507 0.029114626 15526372
0.4760294 -0.064159557 0.025310455 15789544
0.48188454 -0.066621453 0.022102933 15921130
0.44640002 -0.057325523 0.029240698 15592165
0.45576924 -0.052784584 0.028038144 15657958
0.46500009 -0.054139685 0.024179589 15723751
0.472 -0.057563826 0.021820568 15789544
0.44483334 -0.043313786 0.029018551 15592165
0.45607892 -0.044693172 0.02508929 15526372
0.46184003 -0.046430662 0.021946041 15395043
0.43863642 -0.034120202 0.029572152 15328993
0.44524077 -0.034464482 0.026103973 15328993
0.45379415 -0.036134385 0.022002153 15329507
0.42733335 -0.021203078 0.02965779 14803419
0.43537205 -0.024347877 0.027136151 14934492
0.44376752 -0.025903948 0.023310332 14934750
0.45100003 -0.029416287 0.020039821 15198179
0.42500001 -0.01429266 0.02808122 14737371
0.43426323 -0.015374862 0.024476252 14737115
0.44223812 -0.016028281 0.021472253 14737371
0.41860002 -0.002413308 0.029183427 14474456
0.42394838 -0.0056619835 0.026459103 14540249
0.43219998 -0.0048753056 0.022518586 14540248
0.44033337 -0.0081047742 0.020596685 14540249
0.4174546 0.0054648686 0.028631805 14408662
0.42371431 0.004974253 0.025352146 14342869
0.43175757 0.0040542497 0.021448845 14342612
0.41749999 0.015283572 0.028322997 14342869
0.42418665 0.0149366 0.023734685 14342612
0.43000004 0.012722257 0.02011334 14407892
0.41769561 0.024623977 0.028634693 14540247
0.42392501 0.025030062 0.023982465 14737113
0.43000004 0.026311865 0.02011334 14736858
0.41856259 0.034187444 0.029009141 14935005
0.42397618 0.035157014 0.024495607 14868698
0.43000001 0.034868285 0.020113338 15000028
0.42406133 0.044920482 0.025337802 14868698
0.43000001 0.045346465 0.020204851 14934235
0.42478657 0.054955266 0.025866935 15197406
0.43033329 0.055261225 0.020704154 15197406
0.42620641 0.064613238 0.027008368 15394784
0.43161538 0.065844901 0.022101812 15329247
0.42793331 0.072269283 0.028563414 15592164
0.43267903 0.07533291 0.024203038 15460832
0.43516853 0.084812894 0.025114091 15198175
0.44000003 0.088984162 0.020838603 15263970
0.43688527 0.094621629 0.026648493 15066593
0.44145453 0.094753645 0.021727167 15000798
0.43850002 0.10074261 0.027182832 13356752
0.44000003 0.10005718 0.023671236 14143438
0.41693938 -0.12468361 0.038814127 16118253
0.42355731 -0.12495466 0.034592174 15986667
0.43163165 -0.12488522 0.030771425 15855338
0.41566655 -0.1149739 0.03790519 16315887
0.42353702 -0.11457954 0.033333577 16052716
0.43091664 -0.11637757 0.030579599 16052716
0.41434544 -0.10479882 0.037537474 16052458
0.42388892 -0.1055029 0.032938067 15855336
0.43000004 -0.10541387 0.030323522 15592419
0.40900001 -0.09944506 0.039238062 15987177
0.41442862 -0.095130429 0.037461609 15921129
0.42428887 -0.094703227 0.033478677 15657957
0.43176198 -0.095107466 0.030783284 15395042
0.4153834 -0.084981397 0.037474826 15724005
0.42184007 -0.085585535 0.033830486 15592163
0.43366665 -0.085136048 0.032127276 15329250
0.44255555 -0.083254755 0.031232089 15263714
0.41543481 -0.075465702 0.038093984 15460579
0.4230001 -0.0752903 0.034966066 15328993
0.43540916 -0.073337451 0.033101592 15197664
0.44233343 -0.075631179 0.031044165 15263714
0.41677499 -0.065107949 0.038566086 15460579
0.42266673 -0.065359868 0.036116753 15460579
0.43744448 -0.068010539 0.032973778 15329250
0.4414137 -0.063883379 0.031620782 15395043
0.41783333 -0.056192085 0.039269075 15263200
0.42315805 -0.055435132 0.037280828 15394786
0.43390003 -0.053228576 0.035169296 15394786
0.4434146 -0.055017721 0.03182302 15460579
0.41693744 -0.044275079 0.039510429 15328993
0.4235751 -0.044384222 0.037083313 15328993
0.43464279 -0.043793093 0.033220738 15328993
0.44300005 -0.047078557 0.03115038 15460579
0.41604 -0.034229416 0.03854546 15065821
0.42368901 -0.035128746 0.035745636 15065821
0.43378946 -0.0354596 0.032068815 15197407
0.40668422 -0.023422234 0.0391136 14868442
0.41449061 -0.024872582 0.036367685 14802906
0.42385375 -0.025300553 0.032476135 14803162
0.43100002 -0.027537914 0.030537847 15000028
0.40567997 -0.014780879 0.038153898 14802906
0.41457629 -0.01463702 0.033823557 14671577
0.42093334 -0.017011765 0.031119343 14671576
0.40613338 -0.0050973436 0.037529092 14671577
0.41433349 -0.0052040517 0.032465763 14605528
0.40623295 0.005070142 0.037218351 14342869
0.413068 0.0047388612 0.032082684 14473942
0.40660572 0.014959549 0.037136748 14342356
0.41286007 0.015112596 0.031871069 14408148
0.40708706 0.024552792 0.03733642 14605270
0.41298249 0.025373191 0.032302108 14671576
0.40810341 0.033934712 0.03875513 14605526
0.41369316 0.035207372 0.033754177 14737369
0.40900001 0.040825225 0.039238062 14869212
0.41479093 0.045084242 0.034788679 14934234
0.41598839 0.054604918 0.036058974 15131613
0.4206191 0.056498818 0.031443287 15131614
0.41778567 0.063501842 0.03822777 15328992
0.42175001 0.065440126 0.033804581 15263200
0.42400995 0.075077735 0.035107836 15329507
0.42999998 0.078657031 0.030179717 15658728
0.42553848 0.084788479 0.036203213 15263714
0.43037033 0.085853525 0.031249892 15395556
0.42657149 0.093816906 0.037732389 15132386
0.43200001 0.095719956 0.033053551 14935006
0.42900002 0.10056864 0.038143907 14671839
0.43277779 0.10122821 0.034759145 14671066
0.40666667 -0.1307659 0.046941679 16249582
0.41600001 -0.13036296 0.040883482 15920617
0.40584949 -0.12453987 0.046811406 16184045
0.41232434 -0.12540177 0.04200564 16183789
0.40419194 -0.11477984 0.045849778 16447215
0.41136852 -0.11624122 0.041035365 16446960
0.39900002 -0.10168397 0.04948749 16315629
0.40362221 -0.10492083 0.044917904 16249837
0.41000003 -0.10784665 0.040293816 16513008
0.39765388 -0.094397709 0.048495676 15921129
0.40420014 -0.095232956 0.043460645 16118251
0.39695749 -0.084794395 0.048162561 15986664
0.40390134 -0.085069142 0.043193288 15855336
0.41000003 -0.084523089 0.040293816 15921384
0.39657143 -0.075152442 0.048121337 15855336
0.40318063 -0.074876189 0.043360524 15789544
0.41027272 -0.074780315 0.04032062 15657957
0.39656675 -0.06479492 0.048020039 15855337
0.4032999 -0.065483265 0.043510873 15723751
0.41222224 -0.064142376 0.040886384 15526372
0.39617854 -0.055139013 0.048038043 15526372
0.40424156 -0.054783408 0.044007104 15460579
0.41348147 -0.055399355 0.040990327 15263970
0.39549085 -0.044883147 0.048069026 15526372
0.40394735 -0.045394193 0.044067688 15329249
0.41235298 -0.044838764 0.040921662 15263200
0.39542094 -0.034550034 0.047073118 15197407
0.40391111 -0.035084888 0.042502563 15065821
0.41212502 -0.037493397 0.040743195 15131614
0.39440221 -0.024650777 0.046405386 15000028
0.40255877 -0.025541825 0.041386168 14934235
0.39481246 -0.014803295 0.046095312 14934235
0.40090922 -0.014887625 0.041275963 14934492
0.39516479 -0.0052071032 0.046396513 14539734
0.40106249 -0.0047993204 0.041408554 14473941
0.39574468 0.0046735494 0.046490882 14276818
0.40086836 0.0050438307 0.041518334 14277075
0.39662817 0.014926686 0.047282275 14276561
0.40149999 0.015258277 0.042239334 14342355
0.39733344 0.024294978 0.047975115 14539477
0.40202892 0.025325043 0.043254096 14671062
0.39863637 0.03228322 0.048932899 14736856
0.40321836 0.035299107 0.044709295 14671319
0.40505305 0.044800192 0.045344077 14671833
0.4103334 0.047202986 0.040646512 14803417
0.40682673 0.054218795 0.046551127 15000540
0.41144446 0.056001611 0.042119812 15066332
0.40833336 0.063366018 0.048555359 15132125
0.41364035 0.065557547 0.043924261 15263455
0.41550496 0.074866779 0.045280967 15394785
0.4202728 0.077057727 0.040587682 15526372
0.41684377 0.084668152 0.046937946 15460322
0.42083344 0.0858716 0.042248257 15197920
0.4176667 0.094030976 0.04833395 15328736
0.42197073 0.095203094 0.043497905 15066337
0.4241111 0.10141086 0.043553438 13618639
0.39460871 -0.13201024 0.057769697 16446962
0.40105885 -0.13136753 0.052665129 16447219
0.39521962 -0.12442113 0.056791138 16315630
0.40110239 -0.12596154 0.051936034 16118252
0.39568359 -0.1147766 0.05560115 16447216
0.40000007 -0.11743209 0.050888442 16447215
0.39532244 -0.10506769 0.055053882 16184044
0.38900003 -0.090484269 0.059175078 15460320
0.39342269 -0.09506882 0.054704498 15920872
0.38860533 -0.083881989 0.058419622 15591906
0.39228874 -0.08539325 0.053554293 15855335
0.38776663 -0.074933127 0.0578034 15789285
0.3917942 -0.075110324 0.052891124 15724005
0.38710257 -0.064960875 0.05700865 15789798
0.39176911 -0.065201819 0.052149966 15855336
0.38637102 -0.054855544 0.056292515 15723751
0.39124143 -0.054606602 0.051555037 15723751
0.38570285 -0.045070697 0.056437522 15592165
0.39099997 -0.044724911 0.05123971 15657958
0.38523719 -0.034957677 0.055995088 15263200
0.39100003 -0.035001203 0.050897047 15263200
0.38492385 -0.025009938 0.055410821 15000028
0.39020005 -0.025817472 0.05031427 15000028
0.38482025 -0.015286909 0.055521291 14737112
0.39026669 -0.014550832 0.05047502 14868442
0.38602701 -0.0055407323 0.05583401 14277076
0.39076 -0.0049215965 0.050916087 14539477
0.38694316 0.0045531602 0.056579139 14079696
0.39129555 0.0049158321 0.051756497 14145233
0.38738087 0.014421334 0.057599358 14079183
0.39196914 0.015106311 0.052733224 14211282
0.38856104 0.023622427 0.058397014 14276562
0.39260411 0.025404142 0.053460807 14474454
0.38900003 0.030177653 0.059175078 14868442
0.39399984 0.035018865 0.055004984 14539990
0.40000001 0.038990468 0.050547928 14868442
0.39622912 0.044674426 0.056070458 14737112
0.40023074 0.046149377 0.051369533 14868442
0.39760464 0.053771429 0.057840746 15000283
0.40193337 0.055761114 0.053318616 15131612
0.40446019 0.064809412 0.05511817 15131869
0.40676931 0.074627958 0.056207124 15329250
0.41093329 0.076003708 0.051254574 15329249
0.40783355 0.084292985 0.05754609 15263457
0.41211474 0.085397251 0.052721884 15263457
0.40876919 0.092808448 0.058648705 15000542
0.41327724 0.094763778 0.0542433 14934750
0.41762507 0.10230315 0.05815164 13618638
0.42468187 0.10656407 0.056060232 4208698
0.42500001 0.11057518 0.05818437 2893853
0.3861219 -0.13208586 0.066351049 16381425
0.39138901 -0.13247459 0.061522365 16249069
0.38590083 -0.12505126 0.066469975 16381167
0.39097065 -0.1245918 0.061411291 16381423
0.38729224 -0.11510754 0.066824049 16512751
0.39104179 -0.1148355 0.062038973 16512495
0.38752624 -0.10477472 0.067037933 16315115
0.39101848 -0.10522717 0.062191684 16183786
0.38677892 -0.094427623 0.065571316 15920614
0.39049998 -0.097576484 0.061116587 15920870
0.38469219 -0.084997237 0.065105394 15592164
0.37858331 -0.072182633 0.069185153 15657699
0.382678 -0.075189359 0.064585239 15657956
0.37826422 -0.064755693 0.068334021 15657699
0.3820754 -0.065209948 0.063249588 15723748
0.37781438 -0.054437142 0.067464575 15395040
0.38147813 -0.055622101 0.062440179 15460834
0.37685868 -0.044750329 0.066124558 15329249
0.38074273 -0.045384981 0.061508909 15657957
0.37665692 -0.034998629 0.065984815 15066078
0.38059375 -0.035042688 0.06143162 15328993
0.37702546 -0.024950514 0.065789737 14539991
0.38040915 -0.024811177 0.060984649 15000028
0.37753931 -0.015066233 0.066125289 14342869
0.38056663 -0.01445729 0.061395753 14671319
0.37804481 -0.0056221583 0.067571722 14079441
0.38136095 -0.0046485695 0.062646158 14145489
0.37872005 0.0031026967 0.068888053 13750475
0.38204163 0.0051562362 0.064203627 13947853
0.38284424 0.015168086 0.064877301 14079696
0.38437122 0.025207449 0.065141827 14342612
0.38691151 0.034562368 0.065443076 14539734
0.39047062 0.037229687 0.061065037 14408405
0.38796777 0.044161838 0.067466915 14671318
0.3918677 0.045742374 0.062938809 14737113
0.38883337 0.050797682 0.069010489 14802903
0.39365825 0.055147845 0.064769484 15065820
0.39628869 0.064497799 0.06596569 15197664
0.40069231 0.067200318 0.061457139 15263713
0.39760795 0.074194521 0.067691237 15328993
0.40173519 0.075672686 0.063097224 15329506
0.39857146 0.081705891 0.069427967 15328995
0.4030886 0.08526025 0.064651027 15263457
0.40463462 0.094375543 0.064958602 15000543
0.41000003 0.098994002 0.061889708 14342872
0.40741667 0.10194772 0.068410926 13684430
0.41571736 0.10569114 0.064879678 8025206
0.42060003 0.10785514 0.061421491 2893606
0.41733336 0.11086026 0.068042345 2828062
0.42000005 0.11081938 0.064171746 2893853
0.37672588 -0.13303411 0.076347522 16315633
0.38050005 -0.13170825 0.070797443 16578548
0.37671977 -0.12541066 0.076674469 16315375
0.3810384 -0.12418986 0.071976967 16315375
0.37747467 -0.11587431 0.07813178 16381167
0.38250008 -0.11476574 0.073328324 16512496
0.37848282 -0.10497902 0.078961529 16183789
0.38237923 -0.10511069 0.074038289 16249324
0.37829792 -0.094787464 0.078272812 16051945
0.38171595 -0.095188744 0.073272191 15920616
0.37687346 -0.084410228 0.076966517 15789286
0.38077992 -0.086095698 0.072292849 15723749
0.37619695 -0.075024307 0.075180151 15460321
0.38000003 -0.078872219 0.070438124 15591906
0.37509623 -0.065048598 0.075118408 15657699
0.37376925 -0.05507366 0.075274482 15394527
0.37266421 -0.045034878 0.074876137 15197407
0.37313905 -0.035161477 0.075008482 14539735
0.3740975 -0.024837656 0.074859671 13947854
0.3744694 -0.014726844 0.074945182 13618890
0.37487134 -0.005142529 0.07500881 13618890
0.37591395 0.005059809 0.074945681 13553353
0.37665674 0.014962646 0.075261928 13816268
0.38011116 0.017525213 0.070478439 14211282
0.37770003 0.024352375 0.076549925 14277075
0.38068891 0.025910195 0.071931183 14408660
0.37858623 0.033466313 0.078769319 14277075
0.38205346 0.035399552 0.074063905 14342611
0.37900001 0.040048826 0.079835013 14342868
0.38366383 0.04500287 0.075004257 14539989
0.38670087 0.05461536 0.075579301 14934747
0.39035717 0.057829529 0.071130253 15000028
0.38844892 0.06357865 0.077721968 15131614
0.39193675 0.065854669 0.073435873 15197407
0.38900003 0.070246518 0.079209507 15065821
0.39373603 0.075056359 0.075064339 15263200
0.39518204 0.084993437 0.075074375 15263458
0.40000001 0.089088254 0.070212476 15263202
0.39565772 0.094404645 0.075677469 15197922
0.40025008 0.095704488 0.070841759 15198179
0.39735293 0.10157631 0.077897608 14277079
0.40359157 0.10607092 0.075300045 7104870
0.41100001 0.10645163 0.07021901 3156014
0.40349987 0.11179434 0.077535279 2565401
0.37842855 -0.14124279 0.087306902 15131615
0.38100001 -0.14258504 0.086945757 12762813
0.36849999 -0.13158028 0.08862114 16184559
0.3738707 -0.13469531 0.084186293 16052460
0.36838186 -0.12497383 0.08805538 15986410
0.3715747 -0.12502654 0.083122641 16183789
0.36845249 -0.11581147 0.088496789 16052202
0.3723225 -0.11461667 0.083703667 16249582
0.36899999 -0.107476 0.089630276 16052457
0.37351614 -0.10507987 0.084775046 16052203
0.36880001 -0.09260717 0.089140244 15723238
0.37288532 -0.095356233 0.084453546 15854824
0.36823225 -0.085007392 0.087863311 15525859
0.37137818 -0.084760606 0.083259471 15591908
0.36773133 -0.074738532 0.087891355 15525859
0.37118909 -0.0750935 0.082887329 15591907
0.36797577 -0.064814001 0.087048322 15329248
0.37107471 -0.065097027 0.082117602 15460322
0.36821795 -0.05499322 0.086999312 15328993
0.37059337 -0.055198893 0.082297556 15328736
0.36846429 -0.045729831 0.086927809 15000027
0.37023216 -0.044191603 0.082614578 14868441
0.36900002 -0.039400954 0.089174367 14605524
0.37143373 -0.034903981 0.084907904 13420995
0.37332174 -0.024922719 0.085088581 9144967
0.37375754 -0.014907273 0.085393302 9211530
0.37219733 -0.0051110638 0.084932201 12829374
0.37188873 0.0049101841 0.08485952 13224130
0.37270451 0.014955561 0.085043237 13487559
0.37407437 0.025000563 0.085095026 14013902
0.37651831 0.035194963 0.084964767 14145232
0.37819549 0.04436085 0.08598236 14605270
0.38044995 0.046749234 0.082165428 14802647
0.37864709 0.05247429 0.088624306 14934235
0.38162401 0.055393986 0.084495388 15000284
0.38397726 0.065052487 0.084891997 15131614
0.38579533 0.074772641 0.085280553 15262943
0.39027274 0.077371068 0.080714293 15394530
0.38655066 0.084819153 0.085823029 15131871
0.3904545 0.085134059 0.080876239 14934493
0.38731796 0.094373465 0.08622662 14868957
0.39139479 0.096048445 0.081695564 14737628
0.38858333 0.10117649 0.088523865 13290186
0.39430761 0.10502731 0.085175775 7894646
0.40016672 0.10840812 0.081404887 3486514
0.39630768 0.11088787 0.086327307 2434328
0.40053847 0.11185662 0.081918441 2368537
0.3725 -0.14097041 0.095014222 15065308
0.36718392 -0.13351581 0.095610477 15920873
0.37092856 -0.13838217 0.093481936 15131357
0.36545038 -0.12485693 0.094965212 15657444
0.36550334 -0.11486006 0.09491083 15723492
0.36635977 -0.1050391 0.095160827 15591906
0.37 -0.10208899 0.090065666 15789288
0.36616927 -0.095031261 0.09509781 15526114
0.37 -0.098335564 0.090065666 15657958
0.36544898 -0.084974661 0.094948977 15262942
0.36474508 -0.075176187 0.094951265 15000027
0.36517453 -0.065229081 0.094701104 14868697
0.36587039 -0.05506254 0.09510988 14868440
0.3672002 -0.045040362 0.095007122 14671062
0.36839065 -0.037475292 0.095992215 14210768
0.37074724 -0.033037018 0.094250865 10131605
0.37081027 -0.025055151 0.095034711 2436393
0.37115961 -0.015083076 0.095122233 3028018
0.3711361 -0.0050940253 0.095119782 11908527
0.37041631 0.0048880051 0.094933495 12697785
0.37044668 0.01486432 0.0949414 13355972
0.37126172 0.024925606 0.095111556 13882058
0.37270606 0.035023544 0.095075667 14144975
0.3739737 0.044756226 0.094827756 14539734
0.37601376 0.054913629 0.095128722 14934491
0.38000003 0.059725408 0.090720698 15065821
0.37722027 0.06470073 0.096140243 15065821
0.38063151 0.065640949 0.091128625 15197407
0.37755069 0.074892893 0.096784294 15131614
0.3809123 0.075170226 0.091921963 15131614
0.37816328 0.084406599 0.09835656 15000285
0.38160437 0.085444137 0.093522094 15131872
0.37875 0.092409901 0.099362224 14868957
0.3827723 0.094788842 0.094436236 15000800
0.38674361 0.10245802 0.09452828 10329246
0.39200008 0.10743783 0.091258734 2630942
0.39400002 0.11081096 0.090834782 2499608
0.36900002 -0.14068569 0.10450745 11052450
0.37033334 -0.14090531 0.10170519 14012877
0.36627093 -0.13496491 0.10583773 14276306
0.36399952 -0.1247192 0.10522166 14868697
0.36399963 -0.11491974 0.1052217 15000026
0.3637149 -0.10503957 0.10513727 14736856
0.36345559 -0.095028333 0.10496097 14802649
0.36306411 -0.085167676 0.10504611 14539477
0.36318725 -0.075127296 0.10498467 14408146
0.36389467 -0.065070949 0.105224 14342610
0.36454809 -0.055008966 0.10506726 14211024
0.36627311 -0.044858977 0.10505281 14144718
0.36831579 -0.036579877 0.10534678 12171955
0.37003192 -0.032563742 0.10488175 7566191
0.36809525 -0.024455458 0.10530072 2304805
0.3700833 -0.028326226 0.10149295 2567722
0.36808944 -0.015907589 0.10538805 2567722
0.37029624 -0.011277342 0.10330013 4541255
0.36899999 -0.0013202 0.10911458 12435130
0.37074578 -0.0052670548 0.10523398 11053476
0.36867046 0.0056424313 0.10674763 12566457
0.37001711 0.0037607339 0.10247576 12500406
0.36851403 0.01512269 0.10626168 13289924
0.36999992 0.015265569 0.10144972 13026237
0.36813709 0.02511136 0.10671796 13882060
0.37017772 0.024790086 0.10172074 13947595
0.36794677 0.034848988 0.10727534 14144975
0.37051734 0.035174422 0.1024681 13947853
0.3681111 0.044813607 0.10752921 14408147
0.37083355 0.045287773 0.10243204 14539477
0.36850011 0.054450788 0.10812593 14736856
0.37134701 0.055163886 0.10340919 14868442
0.368875 0.063104868 0.1091674 14802649
0.37202901 0.06526389 0.10448211 14934235
0.37232444 0.074774198 0.10489114 14868955
0.37420711 0.084806077 0.10503543 14935005
0.37654257 0.094745278 0.10515626 14737629
0.38025001 0.098932281 0.10123947 14343644
0.3783637 0.1026699 0.10707717 9803416
0.3808572 0.10430986 0.10422884 3684152
0.36617798 -0.13318653 0.11462196 12829375
0.36523473 -0.12484998 0.11493535 13224130
0.36477661 -0.11499063 0.11478375 13619144
0.36416671 -0.10486416 0.11474524 13487302
0.36382547 -0.094997391 0.11503956 13355717
0.36374044 -0.085194819 0.11487704 13552582
0.363931 -0.075244889 0.11497065 13684681
0.36428016 -0.065119624 0.11511228 13882314
0.36492246 -0.054900683 0.114986 14079181
0.36615971 -0.044988941 0.11507097 13815753
0.36847609 -0.035155792 0.11534253 8750722
0.36999992 -0.034065258 0.11356793 7960949
0.36678612 -0.024986979 0.11533139 1975842
0.36708918 -0.014903263 0.11520415 2962739
0.36852199 -0.0048066052 0.11575367 11316391
0.36999995 -0.0065816217 0.1120392 11119011
0.36731777 0.0049384097 0.1149268 12500407
0.36637697 0.015071197 0.11497485 13158594
0.36587155 0.024956247 0.11517837 13553096
0.36561155 0.034782443 0.11509728 13553095
0.36581278 0.045079894 0.11516026 14013389
0.36672944 0.055029884 0.11498332 14408148
0.36746833 0.06496793 0.11490503 14408405
0.36801708 0.074764661 0.11555742 14408661
0.37009993 0.076841019 0.1111868 14605783
0.36857793 0.082819752 0.11754033 14211539
0.37089264 0.085893378 0.11367615 14540247
0.3728804 0.095039994 0.11508287 14474456
0.37567103 0.10343347 0.11479198 9671573
0.36809093 -0.13140789 0.12187742 11645358
0.37260002 -0.13054369 0.12803499 12171186
0.36806521 -0.12513857 0.12185171 12105651
0.37160337 -0.12501486 0.12693697 12105906
0.36799988 -0.11481065 0.12223791 12105906
0.3711555 -0.11501686 0.12720892 11711148
0.36781153 -0.10526972 0.12240144 11711149
0.37119567 -0.10502567 0.12729037 11184803
0.36761108 -0.094561405 0.12303353 11645357
0.37088379 -0.095306121 0.12779854 11119012
0.36670828 -0.084870286 0.12329814 12105908
0.37073335 -0.085337676 0.12851894 10855841
0.36642525 -0.074825607 0.12387941 11974322
0.37037498 -0.076128013 0.12901199 11316392
0.36633074 -0.065057456 0.12477005 12369335
0.36615533 -0.055005297 0.12462004 13158593
0.36721441 -0.044885587 0.12484059 13289924
0.36823475 -0.034951333 0.12441564 7764084
0.36999995 -0.036940131 0.12885799 9342601
0.3645792 -0.025094487 0.12497725 1646619
0.36554909 -0.014850378 0.1250641 2961966
0.36789262 -0.0050494131 0.12486371 10132375
0.36680174 0.0048014531 0.12492372 11316391
0.3655003 0.015090584 0.1249114 11514027
0.36528134 0.024917612 0.1248354 12303800
0.36540189 0.034762841 0.12487748 12237236
0.36577076 0.045002356 0.12465424 12631738
0.36604372 0.054925818 0.12487326 13158597
0.36726737 0.064997785 0.1246212 13158854
0.36790738 0.074852422 0.12438614 13027266
0.36999995 0.076652743 0.12966229 12237751
0.3685818 0.083363272 0.12279178 13290693
0.3703936 0.086503737 0.12651005 13027521
0.3712627 0.094786793 0.12488195 13094344
0.37515014 0.10407732 0.12449119 5723990
0.37450004 -0.13072756 0.13127147 11908527
0.37514287 -0.12424252 0.13336404 11513770
0.3761721 -0.11511321 0.13424602 11316390
0.38000005 -0.1150784 0.13964798 9605770
0.37664357 -0.10509018 0.13492444 11053474
0.37511846 -0.095324591 0.13416477 10921890
0.37493971 -0.08499787 0.13461289 10724254
0.37356251 -0.07571537 0.13440506 10461083
0.36899999 -0.063804314 0.13042252 10592669
0.37226194 -0.06498085 0.13518238 10592667
0.36860871 -0.054133281 0.13088493 11645612
0.37103137 -0.055527214 0.13499764 11119269
0.36863336 -0.046710391 0.13124283 12105649
0.37105495 -0.043963812 0.13580529 11053219
0.36601922 -0.032168038 0.13505813 3356722
0.37130773 -0.037338573 0.13527998 8750720
0.36157578 -0.024831073 0.1348855 1712411
0.36326024 -0.015008023 0.13473099 3027243
0.36845315 -0.0056218505 0.1326696 8488063
0.37089133 -0.0048219031 0.13711394 8554116
0.36827582 0.0047273445 0.13242732 10395547
0.37160978 0.0055680908 0.13745815 9079689
0.36796656 0.01519289 0.13264376 10461339
0.37093332 0.014978176 0.13766825 8882310
0.36803046 0.025327578 0.13312434 10461342
0.37037498 0.023658503 0.13795415 8948358
0.36806247 0.034879614 0.13285378 10855841
0.37036106 0.035837136 0.13726266 9211786
0.36838707 0.044546898 0.13248885 11052963
0.37024242 0.046135675 0.13666722 9737104
0.36849993 0.054578349 0.1324597 11382700
0.37019038 0.055749968 0.13596095 10461339
0.36875007 0.063388973 0.13116199 11974577
0.37077558 0.066090219 0.13445307 11316905
0.3723262 0.075053036 0.13483576 11185320
0.37285486 0.084884368 0.13478492 11579820
0.37439099 0.094981067 0.13523386 10658463
0.37600008 0.10273162 0.13352711 5328460
0.38100001 -0.11671913 0.14090739 9737612
0.37900004 -0.102502 0.14016773 9606028
0.38000003 -0.10529296 0.14053756 9473928
0.37900001 -0.098805144 0.14016773 9605772
0.37281826 -0.042166959 0.14081751 9408393
0.36220008 -0.031285636 0.1438996 1383704
0.37285715 -0.036792729 0.14201038 8027253
0.3613911 -0.024848063 0.14451577 1186323
0.36154255 -0.015990786 0.14461856 1973527
0.37537497 -0.0047230879 0.14300592 7961462
0.38057145 -0.0030585038 0.14781325 9277061
0.37637836 0.0047553601 0.14272504 8487547
0.38088891 0.0030951696 0.14651361 9540232
0.37312502 0.014829845 0.14151683 8816769
0.37120003 0.021149136 0.14093313 9408648
0.37400001 0.074542105 0.14006963 10132124
0.37500003 0.085714951 0.14044414 10198172
0.37588888 0.095451921 0.14087486 5196613
0.3656736 -0.031968832 0.15691994 1711640
0.37 -0.030196331 0.1558951 922895
0.36675003 -0.025763579 0.15632115 659465
0.37072507 -0.024851669 0.15656963 659723
0.36517859 -0.017350303 0.15541165 856074
0.37075001 -0.019408679 0.15664536 593929
0.36304632 -0.033350587 0.1648365 1120786
0.36357376 -0.024960529 0.16513221 989455
0.3643297 -0.016618492 0.16457234 1053709
0.34900001 -0.035427116 0.1797276 1909789
0.35522217 -0.032766357 0.17981878 1054736
0.36259386 -0.033050116 0.17527495 1120529
0.3575384 -0.024929214 0.17917919 528650
0.36128685 -0.024836298 0.17435873 1252115
0.35787499 -0.018732199 0.17958295 593930
0.36132202 -0.017042782 0.17678055 1054225
0.34580958 -0.033601899 0.18507481 1712409
0.3544783 -0.032106746 0.18029998 1252115
0.36000001 -0.035700966 0.18033578 1119759
0.34517533 -0.024914827 0.1850128 1514774
0.35267267 -0.025148965 0.18050148 1317909
0.34487277 -0.016879376 0.18580724 1579798
0.3553488 -0.016841324 0.18105048 1054481
0.36139479 -0.011702863 0.18444388 1580059
0.36237934 -0.0081607001 0.18618156 8619646
0.34149992 -0.032986805 0.19163306 1580822
0.3416613 -0.025300719 0.19175853 1580055
0.34207699 -0.017463759 0.191642 1448727
