# .PCD v0.7 - Point Cloud Data file format
VERSION 0.7
FIELDS x y z rgb
SIZE 4 4 4 4
TYPE F F F U
COUNT 1 1 1 1
WIDTH 392
HEIGHT 1
VIEWPOINT 0 0 0 1 0 0 0
POINTS 392
DATA ascii
0.39480001 -0.090816453 -0.010925096 15592162
0.39574999 -0.085334629 -0.011290456 14144973
0.39709523 -0.076360241 -0.011040892 14078407
0.39900002 -0.069458686 -0.010292743 15263967
0.40000007 -0.063906267 -0.010606665 13947335
0.40038463 -0.055168029 -0.010472705 14078922
0.40052381 -0.045102745 -0.010778741 13355455
0.40000004 -0.036296673 -0.010505821 11842475
0.38781485 -0.092074074 -0.0020385026 14736336
0.39191312 -0.091779172 -0.0071620774 15394782
0.38796303 -0.084925622 -0.00171922 13618111
0.39258561 -0.084815115 -0.0067856745 13618369
0.38881817 -0.077987663 -0.00059706409 13684164
0.39350009 -0.074700862 -0.0050089411 13881286
0.39565548 -0.065162398 -0.0044854907 13486270
0.40000001 -0.062141512 -0.0093821324 14012612
0.3963086 -0.055298675 -0.0036311792 13222840
0.39999995 -0.05396596 -0.0085537713 13748928
0.39697313 -0.04512962 -0.0027370485 13025719
0.40013316 -0.044875309 -0.0079286285 13421507
0.39687094 -0.034807898 -0.0035922998 13092026
0.40000007 -0.037118632 -0.0084457258 14737107
0.39675239 -0.025033498 -0.0036640379 13091769
0.40000001 -0.020939592 -0.0075093182 13421249
0.39719564 -0.014899657 -0.0034710094 13091769
0.40000001 -0.014852947 -0.0070411144 12500147
0.39794123 -0.0058427602 -0.0013351345 12301224
0.4002682 -0.0046003438 -0.0045211068 13289405
0.39866665 0.0025409695 -0.00040719463 10657427
0.40126231 0.0059563858 -0.0032727458 12960698
0.40254003 0.015327716 -0.0038491332 11908013
0.39900002 0.027217165 -0.007490545 12040365
0.40082163 0.024735771 -0.0035699783 12368561
0.40034136 0.034099109 -0.0015725691 12763065
0.40019226 0.044808947 -0.0008112241 12828856
0.39900002 0.056795925 -1.8015437e-05 12434355
0.40007147 0.052711196 -0.00082103291 12697271
0.38375676 -0.091944955 0.0047284858 14538700
0.38344532 -0.084681898 0.0052602668 13749440
0.38579842 -0.075179547 0.005609123 13420988
0.39000002 -0.071543939 0.0008953879 15527135
0.38812655 -0.066015206 0.006948899 12039336
0.39104092 -0.063615233 0.0028759856 13223609
0.38899997 -0.056453452 0.0093661519 13486783
0.39147976 -0.054622408 0.0046315412 12829366
0.38899997 -0.045215078 0.0096162176 11841959
0.39186299 -0.044787895 0.0046962439 12960953
0.38900003 -0.036983229 0.0099996524 12369073
0.39186338 -0.03473302 0.0050197272 12565424
0.38899997 -0.025372364 0.0099996533 11118748
0.39174971 -0.024718974 0.0049498626 12171437
0.38900003 -0.018542444 0.0099996524 11711401
0.39237732 -0.014929407 0.0049914429 12500403
0.39397156 -0.0052288556 0.0051494339 12301994
0.39561814 0.0047628749 0.0050657406 12170154
0.39648417 0.014843253 0.0057003661 11578530
0.40000007 0.015986061 0.0011680553 11973548
0.39639077 0.025128696 0.0060434272 11907496
0.40000004 0.024944358 0.00138655 11447203
0.39616656 0.035029542 0.0057115462 12368048
0.40000007 0.034718107 0.0012109737 12894906
0.39594558 0.045011397 0.0056411289 12564913
0.40000007 0.044876453 0.0011190053 13486529
0.39622539 0.055217691 0.0053086602 12697014
0.40000004 0.052167054 0.0011858915 14078925
0.39704591 0.06496913 0.0059371637 13289404
0.3957333 0.071770526 0.0080096386 14407371
0.37812915 -0.092196174 0.017371329 13420990
0.38056004 -0.092530288 0.012596505 14144197
0.37819529 -0.08504381 0.016651263 13553088
0.38061354 -0.084725909 0.011909501 13288374
0.37885717 -0.078685321 0.018227618 12040108
0.38194868 -0.074641407 0.014811102 13026232
0.38536432 -0.065158673 0.015397112 12171434
0.38752908 -0.055210877 0.015398667 12565935
0.38773566 -0.045259982 0.01540672 12171178
0.38778538 -0.035278503 0.015407755 11775908
0.39000005 -0.034567557 0.010025359 10853522
0.38762826 -0.025283324 0.01540085 11645093
0.38809413 -0.015449282 0.015570329 12434607
0.39018184 -0.012826893 0.010445031 11514277
0.38883606 -0.0065583074 0.017052919 11382177
0.3908751 -0.0043903827 0.012561079 11841701
0.38900003 0.00012600447 0.019106213 7498082
0.39154977 0.0047499896 0.014604063 11578787
0.39205745 0.014811676 0.014659083 11382179
0.38899997 0.026180886 0.018600293 11382440
0.39159194 0.024619771 0.01393094 11644582
0.38855559 0.035094351 0.017869875 11974059
0.39139995 0.034656402 0.012557033 11775908
0.38771909 0.045128223 0.016865576 11907496
0.39102194 0.044523053 0.011561682 12105389
0.38702023 0.05489606 0.016318629 12368044
0.39126468 0.055218942 0.011026017 12170925
0.38768852 0.06412112 0.017371273 12500658
0.39186889 0.065711841 0.012564739 12499370
0.38900003 0.070246518 0.019106213 13750465
0.39232701 0.072294958 0.014596861 13881540
0.37434277 -0.092556275 0.025298165 13618113
0.37529379 -0.084908165 0.024997622 13223353
0.37791929 -0.076334357 0.025832966 11709857
0.3806341 -0.072095856 0.023235913 13948104
0.37900001 -0.069969654 0.029261999 11185054
0.38273838 -0.064903058 0.025002237 12368299
0.38511378 -0.054955512 0.025287859 12302764
0.38531363 -0.044977292 0.02523672 12170666
0.38505772 -0.035031904 0.025219902 11775652
0.38465253 -0.025088193 0.025192611 11447200
0.38584286 -0.0152266 0.025270209 11513251
0.38753921 -0.0052153161 0.025082584 11250080
0.38850418 0.0045479499 0.025348993 10855579
0.39000005 0.006415864 0.020169768 11842218
0.38840854 0.014764493 0.025468981 10790301
0.39000002 0.013821282 0.020220488 10264214
0.38736978 0.024842272 0.025030531 11250338
0.38560307 0.03511142 0.025143381 11644838
0.38372713 0.04503658 0.025125904 11579046
0.3823629 0.054854363 0.025123633 12301993
0.38410518 0.06483376 0.025143959 12105644
0.38717243 0.071417168 0.023910468 12894643
0.39000002 0.073166087 0.020068325 14077632
0.36900005 -0.091447055 0.039719779 10525588
0.37080023 -0.09319979 0.03512026 13749699
0.36900002 -0.08928746 0.039719779 8419695
0.37211263 -0.084934197 0.035172481 12894387
0.37639108 -0.075089373 0.034994483 12302507
0.37872219 -0.068858929 0.036060777 9997953
0.38102981 -0.064220496 0.034495849 12894643
0.38286018 -0.055109587 0.034850169 12302763
0.38341931 -0.044884339 0.035068247 11907493
0.38301629 -0.034846872 0.034945879 11512735
0.38238841 -0.024940491 0.034891509 11184798
0.38415688 -0.015158776 0.035051405 11184283
0.3858183 -0.0052913683 0.035203606 11052700
0.38704991 0.004657099 0.03531605 10921372
0.38653198 0.014815263 0.03537482 10526615
0.38477141 0.025085943 0.035001013 11184031
0.38248757 0.035039287 0.034898005 11644325
0.37836072 0.046165355 0.037604112 12763061
0.38080242 0.044023801 0.033305664 11118237
0.37766054 0.055063676 0.035680901 12235430
0.38018188 0.054170445 0.030728595 12827825
0.37835714 0.063075043 0.037182324 11908778
0.38117546 0.065689884 0.033042204 11776936
0.38433337 0.07030353 0.031472459 13356224
0.36765724 -0.093647324 0.045455657 12894133
0.37 -0.096891932 0.040693596 13354690
0.36809459 -0.087156832 0.045768112 11907236
0.37090015 -0.082699098 0.044275839 13223864
0.37438273 -0.07524009 0.045064807 11907747
0.37823924 -0.066226266 0.04597811 12170920
0.38040426 -0.06249743 0.042954385 12631728
0.37900001 -0.05865727 0.049446844 12895928
0.38105503 -0.055064667 0.044880949 12499629
0.38110015 -0.045071214 0.044931334 12433838
0.37900007 -0.033753891 0.049144376 11447715
0.38076326 -0.034968007 0.044274103 11382178
0.37900007 -0.026171971 0.04894273 9868682
0.38089108 -0.024550769 0.044173509 11315615
0.3823888 -0.015194621 0.044951584 11183771
0.38473523 -0.0052776723 0.045014407 10724249
0.38513207 0.0046326439 0.045060538 10658200
0.38440117 0.014969106 0.044973526 10854809
0.3821249 0.025264246 0.044999443 11381411
0.37818527 0.036451206 0.046390556 11578018
0.38067198 0.033343073 0.042859133 11512739
0.3759236 0.045078389 0.045184359 11908010
0.37413308 0.054893773 0.045047726 12236974
0.37537631 0.06378483 0.044947438 11381662
0.36485034 -0.093826279 0.055304226 12762803
0.3669509 -0.085346065 0.055333246 12631215
0.37030765 -0.081034675 0.052129451 11446943
0.373027 -0.075058989 0.055041946 11841699
0.37755674 -0.064938888 0.055084169 11907493
0.3783572 -0.05499832 0.055228479 12105128
0.38000005 -0.052461378 0.050985821 11315354
0.37834853 -0.044749971 0.055682667 12105129
0.38000008 -0.046524618 0.051078483 11315355
0.37769651 -0.035246871 0.055239175 12039081
0.37792033 -0.025262009 0.055197354 11249821
0.38000003 -0.020337408 0.051134087 11842211
0.37870836 -0.018051529 0.057423685 12235173
0.38100967 -0.014179107 0.05438862 11447199
0.38252252 -0.0052462998 0.055049382 11052186
0.38270211 0.004945084 0.055158928 10723223
0.38197789 0.01520204 0.054880694 10658200
0.37836769 0.026485011 0.056591839 10460051
0.38083324 0.023271848 0.053235039 12170411
0.37614566 0.034895603 0.055010002 11709861
0.36900002 0.048926242 0.059587996 13223869
0.3722868 0.044914547 0.05506425 11710375
0.36900008 0.054640844 0.058989957 12105390
0.37081656 0.054928478 0.054215565 12434096
0.37214589 0.063622922 0.055080995 11446425
0.36295879 -0.094338186 0.064950481 12433069
0.36512491 -0.085137509 0.065090537 12499372
0.36836374 -0.079084978 0.066225521 11117204
0.37231702 -0.074253187 0.064683065 11644063
0.37586349 -0.065064348 0.064997248 11907747
0.3772392 -0.055005118 0.064950988 12039079
0.3762264 -0.044896655 0.06486316 12302252
0.37504131 -0.034997076 0.064949118 12236717
0.37605134 -0.024860749 0.064967893 11512736
0.37776595 -0.015129616 0.065257587 11512736
0.38012505 -0.01155621 0.061050635 12499887
0.37832841 -0.0054559591 0.067636192 10920859
0.38066146 -0.0049487446 0.062826671 10591636
0.37821504 0.0050356784 0.066890277 11250337
0.38054001 0.004844395 0.061984874 10527129
0.37807545 0.015709605 0.065800726 10461078
0.38034788 0.01328471 0.061497357 11512738
0.37609988 0.025106372 0.06489443 10921117
0.36900002 0.039640006 0.06930615 12171181
0.37258098 0.035077423 0.064969547 10919831
0.36783811 0.045984644 0.06605614 11052700
0.37061906 0.04238395 0.062533662 11973290
0.36703673 0.054921445 0.06473919 12566453
0.36787319 0.062818147 0.065782003 12039593
0.37037498 0.064824395 0.061597556 11447456
0.35859999 -0.093800433 0.078202195 12630446
0.36067921 -0.093669847 0.073252603 12235690
0.35900003 -0.089809239 0.079403996 12038050
0.36292347 -0.084818296 0.074873492 12433579
0.36768493 -0.077652343 0.075656697 12960180
0.3712354 -0.072939254 0.074586853 10854803
0.37400711 -0.065136515 0.074877746 11907493
0.37535334 -0.055196658 0.075071454 12039081
0.37428698 -0.04497328 0.074930474 12170667
0.37398514 -0.034898706 0.074838459 11512994
0.37438211 -0.024856862 0.074915022 11118492
0.37533331 -0.014812307 0.075102575 11644580
0.37600753 -0.0051606749 0.075236097 10591893
0.37534717 0.0049542715 0.075102814 10789272
0.37496966 0.015041301 0.075029016 10591637
0.37277517 0.025045574 0.074920468 10986652
0.36782953 0.036585268 0.076245256 10394002
0.37068865 0.033051714 0.073259443 11184547
0.36536512 0.045108899 0.074967153 11183774
0.36401901 0.055053171 0.075002484 12105386
0.3660804 0.063659467 0.075298518 12960181
0.36900002 0.07052213 0.079456218 10919320
0.35834482 -0.094040714 0.081501387 11446173
0.36226565 -0.093396261 0.08650744 10788501
0.36359566 -0.084863856 0.084800676 11709601
0.36731505 -0.075388692 0.085166365 12105130
0.37044993 -0.07099241 0.082802631 12434351
0.36899999 -0.069480948 0.088711604 14999251
0.37171856 -0.064810701 0.08467643 12301481
0.37295687 -0.055109721 0.085216455 12499116
0.37313232 -0.04486594 0.085146777 12104873
0.37373418 -0.034957908 0.084976651 11315614
0.37395683 -0.024752958 0.085128501 8355188
0.37409043 -0.014809741 0.084973827 8289398
0.37396798 -0.0050478512 0.085029028 10131600
0.37288228 0.0049189921 0.08508689 10328465
0.36890909 0.018883394 0.089014821 10854809
0.37160453 0.014811712 0.084688984 10394257
0.36790809 0.026023561 0.086503729 11249310
0.37075007 0.02314678 0.082680792 10066325
0.3649874 0.034867525 0.085041128 10723480
0.36202574 0.044952925 0.084857039 11118494
0.36147052 0.054972105 0.08492288 11710114
0.3648043 0.06493631 0.085041471 12039338
0.36795002 0.070966944 0.084994517 12038056
0.36190253 -0.093922548 0.094841592 12433067
0.36419135 -0.085064203 0.095210314 11645091
0.36791542 -0.075809546 0.095253654 11710370
0.37011993 -0.071033292 0.095501803 9537661
0.36866665 -0.069212556 0.098082148 12762544
0.37084457 -0.06489639 0.095008515 11644064
0.37099254 -0.055029411 0.095083915 11973287
0.37135798 -0.044986375 0.095183156 12301737
0.37373358 -0.035080317 0.094967157 9934476
0.37203738 -0.025160877 0.095027395 2173218
0.37260959 -0.015200027 0.094951756 2435879
0.37316191 -0.0051733023 0.094917528 9539463
0.36900002 0.009621718 0.096301012 9474184
0.37089971 0.0047564264 0.095008828 10263442
0.36834913 0.015706411 0.095418371 11184030
0.37009996 0.012119357 0.091605835 9474438
0.36602154 0.025287027 0.095018819 11643810
0.36244947 0.035221361 0.094858229 11118237
0.35818815 0.046208292 0.095830068 12763062
0.36030185 0.043037418 0.093003064 10328209
0.35774276 0.05460443 0.095970511 12039339
0.36010349 0.05607577 0.091086611 12302510
0.35849997 0.061615448 0.098362371 12039853
0.36198393 0.065564618 0.094691105 12302253
0.36450002 0.070697919 0.09413711 12235690
0.36217082 -0.092599161 0.10291234 10789272
0.36395666 -0.084960878 0.10378756 10920856
0.36662844 -0.075304121 0.10398288 12039337
0.37080002 -0.072620228 0.10909741 11183770
0.36845738 -0.065203972 0.10341813 12302510
0.37083331 -0.064035565 0.107432 10723220
0.36900017 -0.057630423 0.10402469 11052443
0.37035254 -0.053950094 0.10462718 12368045
0.37109742 -0.044840693 0.10486794 12302253
0.37270609 -0.035108518 0.10496844 8947840
0.36857152 -0.023815015 0.10793909 1976097
0.37076101 -0.025618333 0.10376772 2107682
0.36866677 -0.017245261 0.10804753 2107170
0.37088275 -0.014387535 0.10417029 2698793
0.37227514 -0.0051424867 0.10503388 9342340
0.37109059 0.0048958613 0.10510091 10000267
0.36848381 0.016664565 0.10471388 9605768
0.37011901 0.011899107 0.10600074 10131084
0.36688733 0.025144227 0.10493621 9736325
0.3632623 0.035082012 0.10509308 9736585
0.35756046 0.045903165 0.10490369 10855321
0.36038467 0.041131463 0.10534611 10262416
0.35564166 0.054738373 0.10515431 11776166
0.35766661 0.063623197 0.10527662 11908010
0.36055008 0.067684188 0.1016072 13683907
0.36200002 0.070455484 0.10083003 11247769
0.377 -0.0946064 0.11236355 13025975
0.3766 -0.080984451 0.1142509 10855830
0.38150001 -0.083317161 0.11755472 10789786
0.37570006 -0.076177612 0.11344908 9210753
0.3813611 -0.074027374 0.11812838 10065805
0.37653127 -0.064552836 0.11389229 9999239
0.38051856 -0.065732263 0.11859168 10592147
0.37753087 -0.054551836 0.11551938 9999497
0.38000003 -0.057255264 0.11918747 11315611
0.37570018 -0.044860616 0.11514144 10262927
0.36850002 -0.030073917 0.1194619 2238755
0.37382719 -0.034885712 0.11464576 7434342
0.36712125 -0.02446869 0.11527156 1909534
0.37009996 -0.029164851 0.11270259 2239012
0.36733618 -0.015991209 0.11539953 2106913
0.37060714 -0.011096105 0.11363792 4079673
0.37347668 -0.0050678784 0.1148499 8750457
0.37404576 0.0048898151 0.1147434 8947838
0.36900002 0.018691991 0.1105543 9407874
0.37359267 0.014891969 0.11519044 9013116
0.36849999 0.025806706 0.11102785 11776164
0.37371421 0.02512634 0.11629821 8618358
0.3668378 0.034791004 0.11211333 9671047
0.37257898 0.034709353 0.11736877 7565929
0.35763642 0.046920668 0.11072613 11381666
0.36309093 0.045103464 0.11288729 8486005
0.37289473 0.04467997 0.11806139 8025965
0.35634091 0.055839684 0.11237667 11841960
0.36033335 0.056633573 0.11667413 8287853
0.37099999 0.051921047 0.11872202 7696487
0.35716674 0.062018063 0.11230467 9736071
0.38225001 -0.08130908 0.12078746 7565162
0.38243476 -0.073601194 0.1217423 9474438
0.3812778 -0.065088861 0.12223377 9473925
0.37900001 -0.052161362 0.12147217 9737353
0.38000008 -0.057255268 0.12185625 9341824
0.37808838 -0.044238377 0.12145135 8947324
0.36742857 -0.030723561 0.12150734 1646362
0.37728581 -0.037136015 0.12158547 7763821
0.36537987 -0.025255095 0.12178607 1712411
0.36599997 -0.014877193 0.12191203 2436903
0.36880001 -0.0092048133 0.12275336 7369319
0.37308338 -0.0045128064 0.12266114 8026478
0.37624183 0.0050147795 0.12274874 8619127
0.37712374 0.015289243 0.1232132 9211009
0.37676078 0.0241725 0.12274147 9013629
0.37541533 0.035069183 0.12236025 8552821
0.37357494 0.045433633 0.12191435 9144445
0.37116668 0.051530156 0.12177566 10065804
0.36185718 -0.030620353 0.14617488 1053710
0.36175865 -0.024590248 0.14649743 791309
0.36136514 -0.01595623 0.14718288 1578255
0.36585718 -0.032177705 0.15756233 1974814
0.37066668 -0.030636229 0.15665799 857104
0.36634621 -0.024925997 0.15580361 659208
0.37130961 -0.02709439 0.15729558 659722
0.36296624 -0.015006516 0.15506876 2365199
0.36326012 -0.032296684 0.16363579 1646616
0.36436322 -0.02508967 0.16501109 922892
0.36440518 -0.01578713 0.16504952 1316109
0.35483333 -0.032470278 0.17980617 1448467
0.36174363 -0.032618847 0.17533933 1120528
0.35693321 -0.024665434 0.17880279 725770
0.36105701 -0.024806211 0.17379744 1252115
0.35668424 -0.018734217 0.17941354 594185
0.36251545 -0.016415322 0.17522672 1054225
0.34438476 -0.033427708 0.18739155 1712664
0.35370383 -0.032697141 0.18029574 1317137
0.36000001 -0.034015432 0.18033578 922120
0.34434965 -0.024923038 0.18737648 1515030
0.35226309 -0.025583372 0.18045045 1251858
0.34537917 -0.016642265 0.1878408 1383445
0.35457152 -0.016474521 0.18059821 988686
0.36062503 -0.013178706 0.18085927 1054227
0.34227672 -0.03318454 0.19165871 1711896
0.34252769 -0.025148014 0.19202916 1514774
0.34276751 -0.017447203 0.19181751 1383447
