# .PCD v0.7 - Point Cloud Data file format
VERSION 0.7
FIELDS x y z rgb
SIZE 4 4 4 4
TYPE F F F U
COUNT 1 1 1 1
WIDTH 593
HEIGHT 1
VIEWPOINT 0 0 0 1 0 0 0
POINTS 593
DATA ascii
0.49200007 -0.014279562 -0.081107594 13618117
0.49031252 -0.0050059035 -0.080944404 12302768
0.49187508 0.0042625475 -0.081130147 12434098
0.49271435 0.012353962 -0.081093036 11974572
0.49820009 -0.031095896 -0.072448671 14998742
0.49479637 -0.024690019 -0.07456331 13288383
0.48804167 -0.013077444 -0.072287306 14013129
0.49108329 -0.015603486 -0.076618113 12959929
0.48781091 -0.0054281638 -0.072987184 12039343
0.49007395 -0.0043873396 -0.077696845 12895420
0.48866668 0.001493449 -0.071330249 13093572
0.49143288 0.0051237154 -0.07562796 12828600
0.49305016 0.015110093 -0.07499218 12368305
0.49631914 0.024814179 -0.073791228 12236463
0.49880955 0.032302301 -0.073144548 14079695
0.50099999 0.036913663 -0.071175255 10329494
0.50349998 0.041123882 -0.071039274 12895674
0.49719998 -0.033442851 -0.064405613 13552069
0.48682764 -0.022441206 -0.063335709 13420483
0.49238458 -0.026593599 -0.065963618 11973038
0.48498595 -0.014669525 -0.065369233 13420740
0.48470771 -0.005025648 -0.065214179 12301742
0.48637506 0.0046194275 -0.064897746 12105131
0.49000001 0.0081884116 -0.069421604 13816520
0.48745251 0.014071511 -0.062868536 12303024
0.4911333 0.016410902 -0.067284144 11841958
0.48900002 0.020764036 -0.060694244 14143173
0.49309528 0.025048535 -0.065313272 11644582
0.49694231 0.033702489 -0.06427981 12566456
0.50053334 0.037971444 -0.066657968 11447461
0.50330001 0.043083198 -0.064619362 11842989
0.49860001 -0.040925231 -0.05161481 14933206
0.50308335 -0.043025311 -0.053407874 13485246
0.4873637 -0.031996652 -0.051883642 12696755
0.49434045 -0.035626467 -0.055747762 13419710
0.47875005 -0.021139409 -0.051296934 11972004
0.48351574 -0.024844607 -0.055137672 12959157
0.49033335 -0.029303662 -0.059329491 12368053
0.47755554 -0.014969327 -0.052134451 13354941
0.48078957 -0.015276625 -0.057514586 13222844
0.47754288 -0.0055608088 -0.05196033 12697783
0.48069575 -0.0053723529 -0.057341196 12828085
0.47877777 0.0017745495 -0.051081821 9603970
0.48137334 0.0048832805 -0.055429868 12301483
0.48341671 0.014874863 -0.054917295 11775654
0.4867143 0.024637686 -0.054128028 12039341
0.49073333 0.027118901 -0.058459576 12435129
0.48833334 0.031787287 -0.051085506 12699585
0.49356452 0.035392269 -0.055451632 11975091
0.498 0.041798826 -0.054154012 11909039
0.50270373 0.045455113 -0.05703463 11250596
0.48900002 -0.041052885 -0.040088601 14866384
0.49330002 -0.042109869 -0.043564271 14275020
0.50414282 -0.045532029 -0.047736052 13025982
0.51275003 -0.04904855 -0.047442228 11182493
0.47850001 -0.030089788 -0.040908657 10526108
0.48488006 -0.034245323 -0.044520341 12762037
0.49100006 -0.037982311 -0.047150265 10722711
0.4763138 -0.024270555 -0.044126101 13157308
0.48094115 -0.027727667 -0.047641601 13157305
0.47383341 -0.01537836 -0.044953275 12829115
0.47412506 -0.0053932685 -0.044979885 12763062
0.47609469 0.0046902876 -0.044910748 12236206
0.48000002 0.0091449898 -0.049463972 14340806
0.47698247 0.014162906 -0.043320868 11709345
0.48037502 0.015994539 -0.048284795 12762291
0.4782728 0.02173485 -0.041347373 11381152
0.48214933 0.025347458 -0.045546506 12105648
0.48627087 0.033958789 -0.044303823 11119266
0.49105886 0.038096085 -0.047089435 12829884
0.49385113 0.043460228 -0.044275861 10791070
0.5 0.048152827 -0.042160898 9081477
0.52372736 0.057018079 -0.041597363 10329491
0.528 0.061047446 -0.041740779 9144703
0.53087503 0.063400216 -0.042588361 11710630
0.56816667 -0.081173353 -0.033055853 13617088
0.57272732 -0.084775142 -0.032324456 13156794
0.55641669 -0.072658986 -0.034217838 13418679
0.56227279 -0.077005066 -0.034187861 13024692
0.546 -0.068207785 -0.030701354 14142661
0.48660716 -0.042481177 -0.034160953 13288636
0.49071428 -0.044480246 -0.038424551 12827831
0.47635484 -0.033087853 -0.033695839 12169900
0.4826842 -0.037227243 -0.036156084 12893879
0.46846664 -0.022148479 -0.032191731 10722452
0.47196725 -0.02580809 -0.035744943 13025982
0.46776918 -0.0150321 -0.033319183 12762804
0.470276 -0.015527082 -0.038402393 12829630
0.46808687 -0.005826015 -0.033064816 12171439
0.47054291 -0.0046930211 -0.037947413 12303027
0.4688333 0.0036892721 -0.031423453 12498605
0.47155002 0.0046608425 -0.036254093 12499375
0.46900001 0.010582323 -0.030763423 11249060
0.47239453 0.014719622 -0.034919716 12170154
0.4757354 0.024546724 -0.034666449 11776423
0.48016667 0.028632456 -0.038615316 13487559
0.47811115 0.030997522 -0.031860214 12172211
0.48295537 0.035416503 -0.035227224 11711658
0.48716667 0.04083338 -0.03462185 10264213
0.4937143 0.044912826 -0.036016442 10855322
0.51623082 0.054508999 -0.03237699 10855063
0.52192861 0.056986906 -0.037204947 10591893
0.52516669 0.060822766 -0.036911521 11710373
0.53200001 0.064936586 -0.038838487 10855063
0.55428571 0.077299036 -0.031536467 11776165
0.55900002 0.081316069 -0.030778021 12961724
0.56 0.082772508 -0.03083308 11382692
0.57900006 -0.090627573 -0.026457407 15065564
0.58309996 -0.094505064 -0.023458745 13946823
0.56853855 -0.081721574 -0.024903486 12365990
0.5746364 -0.086485371 -0.025054974 12433070
0.55412501 -0.072307207 -0.028401082 12893104
0.56268752 -0.077623382 -0.025712226 12695468
0.54375005 -0.067927599 -0.027394857 14011588
0.4775556 -0.041458465 -0.022011526 10985368
0.48284853 -0.043350209 -0.026368964 12893621
0.49050003 -0.04806843 -0.028155331 14143175
0.46792859 -0.031774227 -0.022400925 12171186
0.47346303 -0.035427291 -0.025495211 13223101
0.48050004 -0.039214429 -0.028706189 11907498
0.46516672 -0.024748515 -0.024923487 12630191
0.47000003 -0.029188516 -0.02936198 15196375
0.46307406 -0.015026937 -0.024964074 13222586
0.46391362 -0.0052772202 -0.025007427 12762803
0.465345 0.0048857518 -0.024973091 11841960
0.46699998 0.014912404 -0.024790134 11908011
0.47000009 0.017976753 -0.029178601 12038826
0.46834993 0.022903711 -0.022499014 10658715
0.47176468 0.02579711 -0.026097259 12237232
0.47625545 0.03329841 -0.024315201 11053471
0.4806799 0.037831016 -0.026355162 10723734
0.48166668 0.04074927 -0.024274305 12368300
0.54900002 0.072150089 -0.024443947 12960951
0.55345005 0.07604827 -0.024648283 10986647
0.55900002 0.080661759 -0.026852135 12829365
0.56336856 0.08532729 -0.024901891 11447970
0.56800002 0.090983711 -0.023768248 11711400
0.57200009 0.09392406 -0.021003688 12171694
0.58533329 -0.10221636 -0.015101492 12829112
0.57761544 -0.091243699 -0.013758492 13945281
0.5830555 -0.096536659 -0.015459359 13945537
0.56790477 -0.082308397 -0.014272742 12433585
0.57371438 -0.087054096 -0.015185779 12169384
0.55340004 -0.073155716 -0.014918779 13816009
0.56145459 -0.078203723 -0.015679311 13816007
0.46900001 -0.040837746 -0.011366528 13685448
0.47397146 -0.043187007 -0.015533186 12565427
0.46496895 -0.033959661 -0.014738243 12828854
0.47120005 -0.038309518 -0.01774684 14670802
0.45826522 -0.023696598 -0.013378588 12369073
0.46106067 -0.026086014 -0.017488714 12237488
0.45730367 -0.014840431 -0.014908834 11841960
0.46000001 -0.014927153 -0.019404398 10986908
0.45758727 -0.005445289 -0.013986615 12763060
0.46022218 -0.004399003 -0.018755686 13092538
0.45823079 0.0045648497 -0.01306106 12237232
0.46110535 0.0055762096 -0.017862706 11710887
0.45886675 0.012896414 -0.011765762 11711400
0.46216661 0.015824415 -0.015928723 12303281
0.4657084 0.024765709 -0.01494125 11776680
0.4701111 0.029255552 -0.018241629 11382179
0.46900001 0.031168651 -0.011824003 10131086
0.47256535 0.034286648 -0.015251084 11447200
0.47800002 0.040439069 -0.01792725 12959666
0.55481255 0.075272992 -0.015519957 11972257
0.56 0.0788396 -0.014882945 11051412
0.56700003 0.084912293 -0.015590302 11973030
0.57083344 0.088717721 -0.013610899 10919830
0.57578051 0.094941549 -0.014915954 12105130
0.58000004 0.099306583 -0.011567407 13289402
0.57900006 0.10049082 -0.015613811 12236974
0.58123076 0.10244879 -0.013317462 11776423
0.58244449 -0.10116571 -0.0059376294 13221814
0.57694995 -0.093383484 -0.0041122963 13420224
0.58133334 -0.097979471 -0.0068336171 14670031
0.56627274 -0.082795136 -0.0058714096 12894393
0.57199997 -0.087748371 -0.0049363459 12367538
0.55740005 -0.075766757 -0.0068080327 13025721
0.56050003 -0.078219131 -0.0059311101 11710375
0.46550006 -0.043063503 -0.0044734548 12828343
0.47000003 -0.043858897 -0.0099237273 9013887
0.45733336 -0.033647377 -0.0032381343 12303026
0.46216673 -0.036910038 -0.0066969963 12499120
0.44900003 -0.020876903 -2.027301e-05 15263450
0.45418951 -0.025086736 -0.0050015291 12762549
0.449 -0.014846808 -0.00051817059 12105130
0.45257339 -0.014897439 -0.0057067354 11973285
0.44900003 -0.0072123804 -2.027301e-05 12631733
0.45249423 -0.005024821 -0.0050771949 12236716
0.45358974 0.0049290638 -0.0048089866 11842732
0.45591012 0.015045964 -0.0047814008 12236716
0.46000001 0.019532632 -0.0097125834 9473407
0.45787495 0.022526471 -0.0027371324 11644834
0.46260348 0.026334776 -0.0060745985 11710373
0.46674362 0.032541092 -0.0045132474 11512736
0.47000009 0.035471179 -0.0077231699 12434095
0.54799998 0.065349571 -0.0018221764 9933957
0.55123085 0.068870865 -0.0027053545 11842469
0.55559385 0.074161485 -0.0044979672 10986649
0.5607273 0.078465268 -0.0032476226 11973800
0.56625003 0.082707226 -0.0044994471 10526353
0.5721429 0.087439977 -0.0042329766 12039849
0.57647061 0.092870757 -0.005183911 11316126
0.58190912 0.098335028 -0.0041100737 10986647
0.58494592 0.10415436 -0.0043502082 11315870
0.59000003 0.10930596 -2.6639367e-05 12368560
0.57414812 -0.093555748 0.0059426315 12762549
0.56551725 -0.084692135 0.0064100055 12696243
0.57162505 -0.088971928 0.0034839616 14144201
0.55690008 -0.076218724 0.0053217402 12959157
0.56033331 -0.079179779 0.0058767963 11380638
0.46400002 -0.051988851 0.0097551402 10985624
0.47400004 -0.050890021 0.0010882408 12169898
0.45768958 -0.042454239 0.0067372085 13551550
0.46206981 -0.046392754 0.0048560221 12828343
0.4487333 -0.031720269 0.0080328407 14013897
0.45350003 -0.035538454 0.0046377243 12236719
0.44724271 -0.024537284 0.0057155672 12237487
0.45045459 -0.028039306 0.0019920857 12698042
0.44606668 -0.014997397 0.0051907557 12171440
0.44669145 -0.0050822515 0.0051975274 12105389
0.44767529 0.0046384586 0.0058668102 11578789
0.45023075 0.0062278034 0.0013578108 10131855
0.44865635 0.013308067 0.0074620754 12894903
0.45157149 0.01596267 0.0037939895 11841958
0.45523694 0.024402253 0.0054983646 11579042
0.46033335 0.028886667 0.0014158199 8749175
0.45825002 0.030722719 0.0077550011 12960183
0.463 0.032128047 0.0019275241 12367275
0.54781818 0.06371928 0.0045223734 10065801
0.55115002 0.067466646 0.0055236788 10658710
0.55531043 0.072626643 0.0050858539 11316896
0.56178576 0.077684224 0.0053335601 9737353
0.56766671 0.082135111 0.0039642439 11512991
0.57426667 0.086634494 0.0057576341 10789266
0.57761538 0.091617897 0.0042405152 11447456
0.58289999 0.096304543 0.0057968847 11052186
0.58713341 0.10318927 0.0048758159 10591891
0.59083343 0.10800151 0.0067365244 12171180
0.59175003 0.11101547 0.0048227003 12039594
0.56887501 -0.090874016 0.017785951 12104106
0.57176667 -0.093915828 0.014426692 13485501
0.55900002 -0.080953926 0.019604197 11971492
0.56404263 -0.085066803 0.015058307 12367279
0.54700005 -0.072813421 0.019183356 14011589
0.5572353 -0.077631354 0.015396365 12235436
0.56 -0.079350792 0.01199194 13749702
0.45875004 -0.051401202 0.018370325 12432043
0.461 -0.051984962 0.014003864 12300715
0.44885722 -0.041435767 0.018893486 14079949
0.45522225 -0.044959098 0.014790582 12696500
0.46025002 -0.049144559 0.011561405 14537417
0.44574404 -0.034718003 0.015418602 12960183
0.45055559 -0.038763076 0.012049685 13090488
0.43870375 -0.023518303 0.018237529 13223612
0.44231436 -0.025612302 0.013833201 12237230
0.4381001 -0.01472936 0.017412616 11842215
0.44124001 -0.014834859 0.01237174 12171695
0.43859378 -0.0054398701 0.01810779 12106159
0.44172418 -0.0047770501 0.013167616 11843244
0.4390001 0.0024912448 0.018845936 12762037
0.44241878 0.0051783477 0.014337976 11710118
0.44507694 0.014796119 0.015117181 11710373
0.44851854 0.021807158 0.016894905 12434354
0.45292068 0.026022058 0.014384541 11447714
0.45714819 0.032018263 0.014998291 11316385
0.54850006 0.062454604 0.010247622 10526866
0.55297059 0.066583544 0.014564189 10329488
0.55641174 0.071440004 0.013924727 9868937
0.56395453 0.076106451 0.015396952 10856090
0.57000005 0.07891307 0.019989969 13487813
0.56900001 0.080106661 0.013294701 8751224
0.57565123 0.085094422 0.014799186 11578784
0.58066672 0.089905262 0.017646128 13157301
0.58365852 0.095072873 0.014904714 10920855
0.5873 0.1015205 0.013033086 11513505
0.59060001 0.10637613 0.011587123 11908521
0.56784999 -0.092007235 0.02463137 14012103
0.57000005 -0.094556369 0.02132435 14406862
0.55766672 -0.081197046 0.025864726 11380126
0.56285286 -0.086130805 0.0250095 12433327
0.54646665 -0.073085457 0.025902571 12301229
0.55270845 -0.077456824 0.025202638 13157051
0.54250002 -0.069674402 0.025376722 9406851
0.45582357 -0.052455436 0.025768898 12761009
0.44585961 -0.043372426 0.025809512 12697272
0.45234784 -0.047555182 0.022858752 11907502
0.43699992 -0.033728942 0.02646691 13025979
0.44175753 -0.036809098 0.022917064 11511198
0.43429595 -0.024866555 0.024792813 12829111
0.43305171 -0.014907768 0.024757391 11512993
0.43348408 -0.0051963921 0.02496268 12236461
0.43573743 0.0046898369 0.025006097 11709860
0.44000003 0.0094129555 0.020581093 14013383
0.43784788 0.013091167 0.026827181 12236198
0.4413963 0.016719326 0.02386022 11184285
0.44538769 0.023514034 0.025291266 11645347
0.45169231 0.02829255 0.021370389 11447970
0.45400003 0.030968904 0.020173123 9736840
0.55709094 0.066458508 0.02214833 10855063
0.56076926 0.068546928 0.026030032 11052697
0.56541175 0.07404235 0.025050489 10921626
0.57100004 0.078754991 0.026116887 12171950
0.57620001 0.084303588 0.024764527 11250848
0.58100003 0.089956872 0.022415938 10986647
0.58300006 0.093149632 0.021658786 10328718
0.565 -0.09152364 0.034136374 13749956
0.55700004 -0.081680678 0.035324223 12893366
0.56145954 -0.086784184 0.034536175 12631220
0.54680002 -0.072788194 0.031978898 11380643
0.5522778 -0.076966099 0.035458002 11906217
0.44800001 -0.051095087 0.034884349 12367278
0.45133337 -0.051862113 0.031793278 10721939
0.43736669 -0.042283658 0.036766384 13288378
0.44344449 -0.046069872 0.033975568 12498865
0.42752627 -0.032258373 0.038167629 11973285
0.43273753 -0.035516169 0.034163244 12236719
0.42593259 -0.024826178 0.035787698 12763318
0.43018743 -0.026737882 0.031010915 11842733
0.42533013 -0.015294522 0.035314258 11907751
0.43000001 -0.0154636 0.030179713 12894133
0.42618939 -0.0055214711 0.035614587 12039851
0.42999995 -0.0042899204 0.030582368 11512482
0.42717865 0.0036593035 0.037298549 11117981
0.43096232 0.0056438157 0.032718617 10921628
0.42900002 0.010181929 0.039148204 12697777
0.43443871 0.014900267 0.035058312 11578784
0.44000003 0.019713435 0.030881573 11908777
0.43873692 0.021873906 0.037224799 10789528
0.44109669 0.023662033 0.033652756 11381663
0.5642941 0.067867674 0.035103705 10921886
0.56772423 0.072779603 0.034578003 11053473
0.57257146 0.077804714 0.035464089 10066577
0.57713801 0.083444998 0.034730632 11119005
0.58099997 0.08801432 0.03582412 11119004
0.58271426 0.090417266 0.036612295 11711398
0.56100005 -0.090436757 0.042000625 14538703
0.55571741 -0.083851561 0.04527982 12828600
0.56022221 -0.088271551 0.042524789 14209481
0.54900002 -0.075650081 0.048813529 9474443
0.55177283 -0.077618726 0.044653952 11052189
0.42799997 -0.041860398 0.048573185 12301740
0.43343401 -0.04367052 0.043695636 12498862
0.44050002 -0.047809556 0.040197629 11972261
0.41820002 -0.030605849 0.049126573 10787214
0.42431107 -0.034881197 0.045211215 12236459
0.43014288 -0.038557354 0.041266106 10921119
0.41729313 -0.024238706 0.047339749 12566452
0.42113459 -0.025612891 0.042598762 12434612
0.41697267 -0.015268512 0.046643112 12367531
0.42072991 -0.014583912 0.041773111 12697268
0.4176304 -0.0057721268 0.047991186 11578789
0.42132822 -0.0049013584 0.043144822 11842475
0.41855559 0.0012246716 0.049081616 11578793
0.42304206 0.0048556621 0.044713859 11448230
0.42688003 0.012133138 0.045843378 11446942
0.4315455 0.016859632 0.044151828 11512734
0.43621427 0.022137335 0.043981079 10131855
0.44000003 0.024863675 0.040667027 12632242
0.56495833 0.06621141 0.046646584 10855833
0.56887501 0.071099848 0.044755064 9934473
0.57379556 0.07636296 0.045309078 11053211
0.57756525 0.082606986 0.045061827 10987676
0.58089995 0.087087214 0.042402148 11645607
0.583 0.090721466 0.041373018 11645093
0.55387503 -0.08475513 0.055078458 12893622
0.54759085 -0.076040737 0.054978773 11643296
0.55100006 -0.079299614 0.054049753 13420223
0.41900003 -0.040080629 0.059815161 12299172
0.42544234 -0.042829148 0.055498753 12301740
0.43060002 -0.047340345 0.056128241 10985367
0.40900001 -0.030506762 0.059345067 8024941
0.41540003 -0.033802785 0.055775631 12170410
0.42151624 -0.037523042 0.052754685 11907499
0.40814289 -0.024602056 0.05804538 13091255
0.41273761 -0.025087381 0.05350206 12499888
0.40835902 -0.015530457 0.05800103 12498860
0.41226664 -0.014664126 0.053313967 12630702
0.40888888 -0.0075247628 0.059009783 11249308
0.41320801 -0.0049686474 0.054704141 12170924
0.41613263 0.0041187275 0.055649426 10658201
0.42059097 0.0082824491 0.0526122 12698296
0.41900003 0.010925475 0.059324719 10131091
0.42478415 0.014660472 0.05483532 10592664
0.43000004 0.018929856 0.05148688 11316128
0.42899999 0.020224895 0.057225544 9999497
0.43112504 0.021589082 0.052585546 9934218
0.56573534 0.066412926 0.05551957 10461077
0.56900007 0.071048789 0.055253934 11974316
0.5736829 0.076155119 0.055133965 10724249
0.57607156 0.081776604 0.055265825 11448227
0.5478667 -0.082078576 0.06717965 12235948
0.55140001 -0.084398538 0.063688427 12893365
0.54633331 -0.077368736 0.064583175 12762551
0.55000001 -0.079650551 0.060490482 14012874
0.41514817 -0.04187388 0.065982006 11971489
0.42128572 -0.043259662 0.06140795 12828082
0.4068552 -0.033140514 0.066122338 11117984
0.4128125 -0.03742006 0.063554831 12236463
0.40369168 -0.024972511 0.064786889 12630705
0.39900002 -0.01855208 0.069102883 11183771
0.40355742 -0.014953392 0.064638056 12301482
0.4057866 -0.0051890733 0.065083131 12105133
0.41000003 -0.0013069194 0.060449984 13422278
0.40802452 0.0022772814 0.066981629 10262157
0.41295126 0.0063201305 0.064016178 11513507
0.41752374 0.012518669 0.06583856 10328463
0.42070386 0.015529942 0.063923649 10789271
0.42900002 0.020224895 0.060238432 11841703
0.56200004 0.059386387 0.06970419 11777195
0.56497782 0.064998209 0.065190986 10396053
0.56871432 0.071317725 0.064070053 9540231
0.57355559 0.076055445 0.062036056 11052699
0.54528946 -0.082799695 0.074780509 12828600
0.53825003 -0.075744271 0.078413263 13682112
0.54311115 -0.077710614 0.074651614 12498865
0.40852174 -0.041656777 0.076030739 11314331
0.41068754 -0.043373328 0.074854091 11905441
0.39724004 -0.03197455 0.077722125 10196366
0.40384799 -0.035909574 0.074506737 11907242
0.39522812 -0.024455633 0.0752666 12301998
0.40023082 -0.028267808 0.07104551 13420736
0.39551142 -0.014951349 0.07505466 12697011
0.40000004 -0.011642409 0.070480026 10789016
0.39696774 -0.0060879891 0.077094711 11381923
0.40105078 -0.0039394954 0.073002994 12105903
0.40507996 0.0037668382 0.075334102 10987676
0.41126925 0.008873499 0.073743314 9802118
0.41543645 0.013103168 0.074700363 10592148
0.42000002 0.016850915 0.070773423 9606281
0.56200004 0.059386387 0.071019843 9869198
0.56228584 0.063271232 0.0742511 10658454
0.53806251 -0.081543483 0.086571559 13683138
0.5419091 -0.083210684 0.081971176 13419709
0.53729171 -0.077391982 0.085083634 12037544
0.54000002 -0.079045124 0.081302583 11905699
0.396 -0.041217852 0.08916273 11117727
0.40680012 -0.042875651 0.084054001 11643810
0.41042858 -0.045711879 0.082199022 10195337
0.38824999 -0.031762417 0.088750176 11446688
0.39397934 -0.034499228 0.085119426 11709089
0.40184215 -0.038392272 0.082365237 12432813
0.38679519 -0.024662474 0.087183058 9473157
0.39109445 -0.025720403 0.082276389 12564656
0.38735428 -0.015656115 0.086638875 10986394
0.39097622 -0.01460204 0.081767313 12301739
0.38845456 -0.0086363908 0.087860025 11709857
0.393318 -0.0048265951 0.084341362 11709858
0.39758337 0.0014751957 0.086641014 10526097
0.40171874 0.0050281561 0.084420174 10000780
0.41000003 0.0097309807 0.080606148 11052698
0.41240001 0.011333014 0.080884621 10856089
0.56100005 0.05928072 0.08730986 12039337
0.56155002 0.062889226 0.086212255 10460305
0.53580004 -0.081357554 0.091038123 13486787
0.53386664 -0.077732094 0.09212587 12565687
0.38900003 -0.040853515 0.098788619 12762807
0.39182985 -0.042263329 0.095371947 12038829
0.38603842 -0.034133203 0.095629841 9210244
0.39136001 -0.038097277 0.092366382 12959161
0.37829864 -0.023723282 0.097330734 2304548
0.38142294 -0.025785636 0.092966937 2435621
0.37831119 -0.016743138 0.097853407 2566180
0.38196015 -0.014259137 0.09373834 3223594
0.38653538 -0.0063736723 0.095500112 11775905
0.39132357 -0.0020806852 0.093339279 9472637
0.39450678 0.0025509987 0.094686858 11052442
0.40000001 0.0066844183 0.090813436 11908007
0.56100005 0.05928072 0.095187977 10395024
0.5613063 0.064275399 0.095520921 11118492
0.56400001 0.070160396 0.096358925 11315870
0.39200002 -0.051180687 0.10843485 13091772
0.38736987 -0.043182496 0.10627332 12302511
0.39095247 -0.046769641 0.10409929 11578535
0.37864289 -0.030964902 0.10666662 5131334
0.38343212 -0.035631794 0.1046987 9407365
0.37553227 -0.024765842 0.10502134 2304291
0.37592062 -0.015026721 0.10511228 3026985
0.38033333 -0.010857738 0.10163257 3683109
0.37866667 -0.0094805881 0.10827839 10920339
0.38401523 -0.0050774231 0.10486092 9802375
0.38846001 0.00214655 0.10646987 11316641
0.39078799 0.0038980346 0.10266323 10658712
0.39400002 -0.060748212 0.11712208 9867145
0.38770366 -0.051744789 0.11746372 12499378
0.39221323 -0.055041142 0.11475084 12169899
0.38378093 -0.04486151 0.11503465 11841960
0.37791309 -0.032248367 0.11514646 6118742
0.38104343 -0.036891282 0.11471516 8551539
0.37273231 -0.02510565 0.11490752 2107168
0.37267566 -0.015308129 0.11485209 2632740
0.37817249 -0.0088822702 0.11534619 9276801
0.38240424 -0.0040408527 0.11496654 8882300
0.38716844 0.0032911084 0.11517154 10460561
0.39007694 0.0081344359 0.11602628 10921626
0.39085719 0.010583933 0.11867096 9408900
0.38870001 -0.061660349 0.12883115 12433070
0.39145839 -0.061653141 0.12453081 12828341
0.38534853 -0.054574806 0.12560375 12038826
0.39100003 -0.058238052 0.12206867 10460052
0.37876666 -0.042882744 0.12787372 12038567
0.38093072 -0.045951698 0.12428824 12235947
0.37767282 -0.035037611 0.12531355 6842719
0.38000008 -0.0378014 0.12106027 8222574
0.36876762 -0.024072738 0.12789005 1580566
0.3708024 -0.025526755 0.12367445 1909533
0.36893749 -0.018071664 0.1286729 1646614
0.37090904 -0.014921266 0.12444098 2829603
0.37786481 -0.0078112497 0.12437819 9078395
0.38118744 -0.0033984999 0.12465385 9671046
0.38571537 0.0043239468 0.1251777 10460048
0.39000005 0.0092562987 0.12369349 12171180
0.39239585 0.012534209 0.12646222 9539975
0.38732079 -0.06239067 0.13506606 11775653
0.39039999 -0.06659162 0.13908283 9078654
0.37899998 -0.05074599 0.13499214 11512736
0.38235584 -0.055399947 0.13470791 11841959
0.37809974 -0.04498338 0.13456103 11051930
0.38000003 -0.049693774 0.1307521 10393487
0.36640006 -0.030873429 0.13767043 1975324
0.37654042 -0.035588942 0.1345115 7104864
0.36559498 -0.024843115 0.13496266 1909531
0.37033334 -0.029356578 0.13089301 2238753
0.36582792 -0.016044149 0.13504863 2303774
0.37162498 -0.011440451 0.13301477 5196863
0.37777019 -0.0062755262 0.13509735 9144701
0.38027781 -0.0019041424 0.13391218 11711399
0.38325384 0.004769227 0.13480945 10921371
0.38825533 0.01176934 0.13596822 9606283
0.39137042 0.014177646 0.13255362 9934990
0.38806671 -0.06250152 0.14140072 11446689
0.39049998 -0.065846525 0.14167835 10460308
0.38240001 -0.055268988 0.14076704 9736841
0.37900001 -0.045058522 0.14115731 8026996
0.38027278 -0.041312419 0.14306714 9080195
0.3643077 -0.031208055 0.14530025 1054481
0.37875003 -0.036896419 0.14096193 7236705
0.38036847 -0.038447034 0.14259665 8356214
0.36381817 -0.025008731 0.14477842 1120273
0.36383018 -0.015759835 0.14514472 1776403
0.37857902 -0.0064531676 0.14206409 6316375
0.38082495 -0.002750068 0.14400928 6974050
0.38307509 0.0044943858 0.14341301 9473925
0.38625807 0.011678115 0.14270461 9605513
0.3654792 -0.031944733 0.1565074 1514006
0.36615524 -0.025103444 0.15558103 593929
0.36487609 -0.015697166 0.15538545 1905935
0.36217245 -0.032422107 0.16373402 1515030
0.36271995 -0.02492998 0.16512787 1054736
0.36415064 -0.016272485 0.16513065 1250574
0.34866667 -0.033260226 0.1790569 1778202
0.35552269 -0.032172106 0.1781316 922895
0.36163163 -0.032679044 0.17398804 1251859
0.34799996 -0.024811653 0.1795145 1449237
0.35554844 -0.024983188 0.17720303 988944
0.36052248 -0.024850424 0.17243321 1515287
0.34900001 -0.018269796 0.1797276 1580825
0.35619774 -0.016812883 0.17800285 725773
0.36100006 -0.016803361 0.17313281 1514518
0.34410515 -0.033467382 0.18481679 1580566
0.34389162 -0.025076738 0.18492025 1514773
0.34382126 -0.016620101 0.18519782 1383189
0.35493749 -0.013112366 0.1809053 1250834
0.35900003 -0.0099688191 0.18109548 5790033
0.36075005 -0.0090316487 0.18493526 5000260
0.34000006 -0.03278897 0.19127703 1514517
0.34029165 -0.024982804 0.19157304 1448981
0.34024006 -0.017571874 0.19133702 1448980
0.78766674 0.12933107 0.28762016 10527125
0.78866673 0.13395803 0.28613821 10527125
0.79000002 0.13834475 0.28631374 10461333
0.79256004 0.14498232 0.28495392 10461333
0.79250002 0.12919529 0.29773468 10395538
0.78900003 0.13139705 0.29180035 10461331
0.79222739 0.13598172 0.29544279 10461331
0.79528016 0.14547949 0.295241 10395539
0.79600018 0.14517115 0.30494753 10395538
0.79580021 0.15488528 0.30455735 10395538
0.79548013 0.15482283 0.31468374 10329745
0.79380006 0.1046229 0.32509336 10263441
0.79525715 0.13509806 0.32469925 10329747
0.79503232 0.14524931 0.32489115 10395540
0.79391682 0.15513663 0.32520828 10263954
0.79399997 0.095675074 0.33498725 10066319
0.7944231 0.1247154 0.33450425 10198418
0.79460728 0.13479123 0.3349964 10263954
0.79514819 0.14503653 0.33481956 10263954
0.79358321 0.15468495 0.33475652 10329748
0.79448152 0.16537637 0.3349531 10329748
0.79582149 0.095076121 0.34522384 10000782
0.79507697 0.13448527 0.34416178 10263441
0.79340631 0.095160186 0.35523927 10000782
0.79464006 0.10443586 0.36457843 10000782
