# .PCD v0.7 - Point Cloud Data file format
VERSION 0.7
FIELDS x y z rgb
SIZE 4 4 4 4
TYPE F F F U
COUNT 1 1 1 1
WIDTH 580
HEIGHT 1
VIEWPOINT 0 0 0 1 0 0 0
POINTS 580
DATA ascii
0.44440392 -0.013628392 -0.063280463 12432811
0.43878576 -0.0035638679 -0.062203009 13420990
0.44088879 -0.0066652149 -0.064662792 13025716
0.43878573 0.0038850282 -0.062729053 13224638
0.4400667 0.0072169462 -0.06478554 13224381
0.44149998 0.011772603 -0.063754924 12500916
0.45400003 0.016625486 -0.060065269 11514020
0.46350002 0.019681249 -0.06186828 11316641
0.46475011 0.02327146 -0.061900083 10527383
0.46100003 -0.030068533 -0.050743651 11577500
0.44847831 -0.021766251 -0.054343883 12169381
0.4532778 -0.025918458 -0.052481122 12103844
0.43842864 -0.010782178 -0.052659761 12301225
0.44393593 -0.015659032 -0.055422056 12300969
0.43592501 -0.0049146926 -0.055083744 13486270
0.44000003 -0.0091279075 -0.059762646 12958899
0.43634444 0.0047433395 -0.055187702 13290176
0.43812507 0.010847977 -0.05438422 12632504
0.44025001 0.012124229 -0.057606582 12040366
0.45233336 0.016030326 -0.056138527 11185313
0.46300003 0.019660018 -0.057467148 11119264
0.46433342 0.022859059 -0.058478653 10658712
0.46550003 -0.030771427 -0.047963895 11511195
0.47400004 -0.031135574 -0.045067269 11248535
0.48504001 -0.033502694 -0.042529538 11116694
0.49140006 -0.037000276 -0.040974788 11314073
0.44638458 -0.021803711 -0.044594664 12169638
0.45378575 -0.025428966 -0.043729465 11840672
0.4637273 -0.028668784 -0.0460013 11248279
0.48000002 -0.029060423 -0.042721841 10985109
0.43701959 -0.012702916 -0.044435095 12366762
0.44223812 -0.017632654 -0.045699243 12300967
0.42899996 -0.002156574 -0.040621649 13487041
0.43197596 -0.0051645115 -0.045338828 13354684
0.42900002 0.0006411096 -0.040191237 13487811
0.43256098 0.0047867252 -0.045181163 13158846
0.43411112 0.010529014 -0.04349412 12369332
0.49900001 -0.040724244 -0.038572077 11774879
0.50631249 -0.042063568 -0.034983478 11116947
0.51211119 -0.044262093 -0.031788789 10854288
0.48825002 -0.030989092 -0.038882945 11050902
0.49508333 -0.034645692 -0.036586978 11116693
0.50308001 -0.036960535 -0.033040803 11116947
0.43868759 -0.021617368 -0.032563176 11972258
0.44228575 -0.022044403 -0.037224602 11906466
0.48700002 -0.029484222 -0.038214527 10787984
0.49250001 -0.029817205 -0.035186667 11511705
0.42900002 -0.010908303 -0.030148271 12631219
0.4348228 -0.014831032 -0.03473847 12366761
0.44020003 -0.019025197 -0.038355447 12432554
0.42686766 -0.004317306 -0.034441952 13289661
0.43047619 -0.0086435033 -0.037163809 12828083
0.42740819 0.0028370179 -0.033838172 13290175
0.43064451 0.006929487 -0.036180951 12698040
0.43172732 0.010430321 -0.034941103 11974575
0.52585721 -0.050654504 -0.024638543 11182996
0.53066665 -0.051590357 -0.021556644 11314326
0.5162918 -0.042995479 -0.027312266 10853775
0.52360612 -0.04607841 -0.023715526 11117204
0.53000003 -0.049457904 -0.021116503 11248533
0.50733334 -0.03533642 -0.029053608 11379862
0.5142414 -0.037321359 -0.02450268 11511705
0.4385218 -0.021372521 -0.026620889 11906466
0.44181255 -0.023521798 -0.022963826 11906465
0.42711115 -0.012501457 -0.024102248 12499118
0.43255556 -0.01676734 -0.025470559 12103589
0.42342424 -0.0052753258 -0.025258129 13223868
0.42495459 0.0041383975 -0.024890916 13027004
0.43000001 0.0091990242 -0.029211909 11448233
0.43175998 0.011584811 -0.023549158 11514023
0.53246671 -0.052098241 -0.017471962 11116947
0.52658826 -0.041889671 -0.016913395 11643291
0.53146344 -0.046532471 -0.01504334 11511705
0.51900005 -0.03749653 -0.019463249 11774877
0.52410001 -0.038724609 -0.016334472 11709341
0.43700001 -0.020318944 -0.018434178 11774879
0.44374624 -0.024594987 -0.014795141 11906465
0.42433932 -0.013154392 -0.015249321 12367786
0.43305883 -0.018113054 -0.016234407 11906722
0.44000003 -0.019428387 -0.01083537 11841185
0.41808331 -0.0043783826 -0.012363587 13421504
0.42095318 -0.0057791057 -0.016897233 13289661
0.41850004 0.00078909419 -0.011449307 13422018
0.42304716 0.0045770351 -0.015492487 12829883
0.43366671 0.013266742 -0.015117465 10921628
0.523 -0.041808389 -0.00054833665 11709084
0.523 -0.039009869 -0.00063579041 11577498
0.42900002 -0.020951269 -1.936998e-05 11840931
0.43557143 -0.021277552 -0.005121748 11906978
0.44329995 -0.025236493 -0.006820146 11841185
0.41751614 -0.012036014 -0.003018602 12565423
0.42218032 -0.015684847 -0.0052503166 12104358
0.43125004 -0.019293685 -0.0063331975 11906978
0.41545463 -0.00521727 -0.0048913551 13290174
0.41709724 0.0032730142 -0.0043608695 13027260
0.4223077 0.0069102589 -0.0085387528 12369331
0.433 0.012642854 -0.0088046109 10856350
0.52364004 -0.04224579 0.0061565507 11840413
0.52287489 -0.037573207 0.0055881045 11643034
0.42560005 -0.020985145 0.0033673004 11775135
0.41481167 -0.013538094 0.0056488407 12433323
0.42162502 -0.018496761 0.002572177 11841185
0.41198978 -0.005171997 0.0052820728 13355967
0.41541249 0.0038794284 0.0048873136 12829882
0.42100003 0.0090064872 0.0054016188 11777196
0.41760001 -0.0205907 0.014638258 11775136
0.42287505 -0.02337884 0.017802492 11775135
0.40859997 -0.01141027 0.017517181 12763314
0.41291565 -0.015353831 0.014499871 12104615
0.40805894 -0.0051724585 0.01635268 13355967
0.41029167 -0.0051496061 0.011267035 13355968
0.40871435 0.0019786174 0.017101161 13093054
0.41167569 0.003524346 0.012973748 12764603
0.42033336 0.0083367405 0.011461373 11843245
0.42600003 -0.03177477 0.028901704 11577500
0.41613334 -0.020844631 0.026345445 11709599
0.42471707 -0.025740173 0.025642928 11709342
0.40701285 -0.013454686 0.02535239 12368557
0.41173333 -0.017830044 0.023274697 11841185
0.40476212 -0.0050363978 0.025033085 13224638
0.40724075 0.0031158507 0.02492955 12698553
0.41080004 0.0068653659 0.021136763 11908781
0.42600003 -0.030777497 0.031394884 11445914
0.40815386 -0.021698145 0.03775876 11775136
0.41429415 -0.021890789 0.033178855 11709086
0.42403123 -0.02658047 0.03267704 11511707
0.4041304 -0.014788828 0.035168376 12302251
0.41050002 -0.019086789 0.031212986 11775392
0.39900002 -0.0054751537 0.039212763 13290430
0.40117458 -0.0050299987 0.034680173 13224638
0.40374991 0.0031156901 0.034833979 12764089
0.40574995 -0.021835662 0.045060173 11643806
0.39780852 -0.012276794 0.046324786 12697522
0.40181935 -0.016457256 0.044046912 12104872
0.39743233 -0.0052111945 0.044839807 13224382
0.40000001 -0.0011189753 0.041339923 13224639
0.39825007 0.0015870159 0.048228204 12895675
0.40189379 0.0036574218 0.043868396 12632503
0.39840004 -0.020762663 0.058925569 11710113
0.40130436 -0.022214722 0.054999061 11643549
0.39575893 -0.014454484 0.055034377 12499888
0.40000004 -0.019118801 0.052212648 11776163
0.39385608 -0.0052174353 0.054954965 13158845
0.39623326 0.0023734611 0.05561956 12764090
0.40000001 0.007620825 0.058975589 11842736
0.39712247 -0.021997036 0.065889843 11643552
0.40095654 -0.026359148 0.066908032 11511452
0.389 -0.011985721 0.068463773 12829879
0.39272112 -0.015438873 0.064665668 12500144
0.38888234 -0.0068623172 0.068260469 13027259
0.39127451 -0.0048948457 0.0638851 13093053
0.39365381 0.0028860713 0.064715341 12698296
0.40000001 -0.031240074 0.078640141 11379864
0.38866672 -0.020801244 0.079140849 12564909
0.39518887 -0.024032079 0.075295463 11577502
0.40000001 -0.029211193 0.075518787 11445658
0.38706151 -0.014496068 0.075664923 12697267
0.39064705 -0.018057114 0.072119735 12236716
0.38670683 -0.005369884 0.075110734 12566195
0.39000002 -0.00078666862 0.07028316 12961467
0.3880589 0.0017027884 0.076849192 12632503
0.39052376 0.0025218055 0.072074354 12764089
0.38600001 -0.030598486 0.088538595 11511707
0.39900002 -0.030694941 0.084047943 11379353
0.40000001 -0.030771872 0.082385771 11314074
0.38646343 -0.024085453 0.086287975 10788500
0.39427784 -0.026726494 0.082559258 11314074
0.37864998 -0.013085254 0.087493978 1976094
0.38214907 -0.015899504 0.083754912 2764327
0.37889659 -0.0072787609 0.088162884 1975838
0.38187718 -0.0046118055 0.084025353 2830120
0.38524091 0.0031279745 0.085536942 11975087
0.3865 -0.030638125 0.091366529 11511450
0.37866667 -0.020266049 0.099266253 2630939
0.38407955 -0.024496429 0.094734319 10327949
0.37689513 -0.014325944 0.095490992 1975581
0.38058829 -0.01884957 0.092536747 1843738
0.37688962 -0.0056408765 0.095372207 2106654
0.38046157 -0.0012466169 0.092131771 2172703
0.3784 0.00030002007 0.098842226 10592402
0.3844018 0.0044515324 0.094827585 12040365
0.38700002 0.010317564 0.098960191 12171953
0.78900003 -0.14289182 0.10894111 16052710
0.79296547 -0.14524087 0.10448662 12105645
0.78900003 -0.13735063 0.10894111 16249832
0.79364532 -0.13465111 0.10435863 12500146
0.78900003 -0.11241528 0.10894111 15789281
0.78900003 -0.082862273 0.10894111 15592415
0.79300004 -0.085658208 0.10428738 12105642
0.78862506 -0.075439021 0.10819668 14210505
0.78800005 -0.069844194 0.10880303 15658208
0.38830769 -0.031481747 0.10731815 11577502
0.3915 -0.033785753 0.10790032 11577501
0.37800005 -0.020984957 0.10561184 6381400
0.38291001 -0.025898233 0.10501012 10919830
0.36899999 -0.012406091 0.10969048 1777948
0.37276456 -0.014767182 0.10499626 1975583
0.36899999 -0.006791159 0.10969048 1646365
0.3724446 -0.005067003 0.10485791 2040606
0.37707892 0.001193898 0.10528129 11646119
0.38377011 0.0063279276 0.10482144 12369328
0.38650003 0.011436027 0.10572114 12369329
0.41239285 0.023371281 0.10869324 10922142
0.78820008 -0.15277329 0.11633237 14539988
0.79100001 -0.15714356 0.11377449 12237235
0.78612912 -0.14495507 0.11483002 15263453
0.78645724 -0.13493252 0.11515883 15329245
0.78719985 -0.12505931 0.11513675 15263451
0.7863822 -0.1150745 0.1147994 15000535
0.7861613 -0.10512242 0.11536937 14934742
0.79000002 -0.10146134 0.11092858 15395806
0.78716654 -0.094646446 0.11574738 14868694
0.79000002 -0.095913127 0.11092858 15461599
0.78777426 -0.084755808 0.11537232 14803158
0.78753346 -0.075334109 0.11518949 14803157
0.787 -0.06828212 0.11529629 14605778
0.38548723 -0.033390537 0.11558304 11578013
0.3917143 -0.036227454 0.11198664 11511707
0.3768689 -0.022403736 0.11557133 7236966
0.38127276 -0.027143123 0.11445558 10854036
0.36828122 -0.01325387 0.11516839 1580824
0.37137839 -0.01813901 0.11478784 1909790
0.36802444 -0.0053234841 0.11522481 1910303
0.37059999 -0.0015277981 0.11129282 2503468
0.36800003 0.00011920217 0.11886964 11776934
0.3777 0.0024259058 0.11394112 11842985
0.38198856 0.0066951611 0.1152427 12237743
0.38537806 0.013475659 0.11554886 12500915
0.39200002 0.016645199 0.11193915 10987677
0.41137043 0.024298234 0.11331367 10724763
0.78727269 -0.15397657 0.12495396 14144460
0.79000002 -0.15879287 0.12498405 13486273
0.78332019 -0.14461511 0.12466092 14539730
0.78325027 -0.1348422 0.12445219 14342351
0.78385198 -0.12493411 0.12494723 14079179
0.78344017 -0.11529139 0.12467954 14144972
0.78403354 -0.10528156 0.12477466 13881799
0.78527993 -0.09533903 0.12497304 13947592
0.78659999 -0.085370898 0.12518272 14079177
0.78692007 -0.075275041 0.12523395 14079178
0.78680009 -0.068816878 0.1252155 14013385
0.38500002 -0.040433429 0.12841672 11511710
0.37875003 -0.031132102 0.12721765 11183001
0.38229474 -0.034864035 0.12509756 11643552
0.37694553 -0.025021516 0.12517911 8881275
0.38011116 -0.028549923 0.12110061 10722963
0.36553061 -0.014251722 0.12545873 1712664
0.3707222 -0.019166522 0.12336414 1711898
0.36560169 -0.0052477284 0.12501718 2040602
0.36825004 0.00047901957 0.12325982 11381662
0.37565309 0.0044618803 0.12503965 11645350
0.38084307 0.0082358597 0.1241521 12237744
0.38388032 0.01484245 0.12530632 12566453
0.38766667 0.020596214 0.12774149 11447974
0.39133334 0.022725387 0.1270169 10527385
0.78785002 -0.15375206 0.13460447 14276046
0.79000002 -0.15879287 0.13497084 13288641
0.78500015 -0.14492565 0.13503896 14473937
0.78472221 -0.13476709 0.13499117 14473937
0.78569984 -0.12482017 0.13515972 14342350
0.78602779 -0.11475134 0.13521558 14276557
0.78624147 -0.10472312 0.13509323 14144971
0.78667742 -0.094736293 0.13458337 14013385
0.78732008 -0.084528491 0.13451439 14013385
0.78776002 -0.075355217 0.13458917 13947592
0.78790009 -0.068912968 0.13461253 14013384
0.42165694 -0.054126434 0.13586366 12038053
0.38564709 -0.041246381 0.13476574 11379866
0.42155555 -0.048768356 0.13737637 11972517
0.37770173 -0.033189144 0.13522469 11051928
0.38217774 -0.037377913 0.13342576 11577758
0.36900002 -0.02061253 0.13215019 3619638
0.37582222 -0.026084892 0.13431717 8618618
0.36475438 -0.014853931 0.13294299 1515544
0.37086666 -0.014814471 0.13866515 988431
0.36435294 -0.004476985 0.13290299 1842709
0.37053332 -0.0064145382 0.13865609 922384
0.37835562 0.0077997465 0.13398531 11711400
0.38000003 0.009315487 0.13490351 10789785
0.37900001 0.01179346 0.135868 11119263
0.38128734 0.015549201 0.13328326 12435380
0.38533333 0.020872479 0.13078231 11316389
0.79207426 -0.16457109 0.14500643 9933454
0.78858328 -0.15389393 0.14488269 14472912
0.79000002 -0.15879287 0.14514257 12235439
0.7868799 -0.14527291 0.14549135 14737108
0.78660005 -0.13509022 0.14543948 14605523
0.7876001 -0.12512147 0.14562435 14473938
0.78763348 -0.11498711 0.14563078 14276558
0.78692305 -0.10468006 0.14528504 14276557
0.78734297 -0.094535656 0.14478426 14079178
0.78803337 -0.084605075 0.14478089 14013385
0.78810006 -0.075387925 0.1447933 14013385
0.78822231 -0.069248721 0.14389229 14144971
0.41900003 -0.049889494 0.14613317 11051669
0.421 -0.048693862 0.14306636 11380122
0.377 -0.031826694 0.14084014 12369330
0.36207145 -0.02131273 0.14879397 2435365
0.37591675 -0.024755547 0.14268221 8948356
0.36325002 -0.019229094 0.14942658 923150
0.37366152 -0.014929025 0.14512438 725772
0.36900005 -0.00074430957 0.14280416 2754567
0.37253672 -0.0057798927 0.1440185 724488
0.7930001 -0.16496931 0.15497658 9867915
0.78881252 -0.15324561 0.15485038 14276301
0.79011112 -0.15799324 0.15574762 12762551
0.78756005 -0.14539798 0.15483476 14671315
0.78700012 -0.1351601 0.15472449 14802901
0.78784007 -0.1251597 0.15488943 14539730
0.78790009 -0.11502588 0.15490131 14473936
0.78632009 -0.10467178 0.15459089 14342351
0.78561538 -0.095167585 0.15431054 14342350
0.78662062 -0.085214309 0.15477559 14276557
0.78583336 -0.075171895 0.15541132 14079177
0.78466672 -0.069548748 0.15517835 14013385
0.36100003 -0.021970455 0.15443781 2567461
0.35900003 -0.012748688 0.1590828 988942
0.36158395 -0.014811612 0.15485381 1120271
0.37195653 -0.013662007 0.15111394 593927
0.35900003 -0.0092964787 0.15932846 791564
0.36315122 -0.0051043015 0.15505861 1053452
0.36500001 0.0001182304 0.15292867 5125683
0.78900003 -0.15212713 0.16527653 13881544
0.79033339 -0.15701047 0.16463073 13420736
0.78763354 -0.14541142 0.16499044 14736852
0.7864722 -0.13507079 0.16474576 14802901
0.78646678 -0.12494133 0.16474332 14671315
0.78727794 -0.11493412 0.16491419 14408143
0.78710008 -0.1047745 0.16488022 14342350
0.78661311 -0.095323391 0.16492666 14276557
0.78617132 -0.085194707 0.16455336 14079178
0.78500003 -0.075705394 0.16491982 13947592
0.78300005 -0.069401018 0.16218665 13750213
0.34436673 -0.022028707 0.16814664 1449493
0.35633335 -0.020459004 0.16791606 528135
0.36232209 -0.022182772 0.16456018 857356
0.34531051 -0.014911938 0.16812649 988943
0.35575199 -0.014303224 0.16520907 857616
0.36059999 -0.017925356 0.1631255 1120785
0.34520847 -0.006028119 0.16811316 857614
0.35577476 -0.0061381031 0.16545118 726030
0.36051279 -0.0039720214 0.16241379 857100
0.34900001 0.0001130477 0.16992341 1383957
0.35335898 0.0022995893 0.16809484 6514013
0.78900003 -0.15212713 0.17543538 14012873
0.79076475 -0.15698785 0.1746304 13354688
0.78820008 -0.14551586 0.17525816 14473681
0.7864334 -0.13506538 0.17486557 14605524
0.78556001 -0.12479758 0.17467164 14539731
0.78700024 -0.11489225 0.17499132 14342352
0.78796005 -0.1048884 0.17520429 14276559
0.78725016 -0.094988301 0.17484871 14144973
0.78509688 -0.084529661 0.17545336 14079180
0.78490907 -0.076586261 0.17285427 14079180
0.33762503 -0.022729902 0.17763668 1251858
0.34120896 -0.022994589 0.17276374 1580310
0.33759055 -0.014920456 0.17743693 1120786
0.34115371 -0.015064534 0.17248629 1186578
0.33800003 -0.0063946969 0.17814976 989201
0.34130138 -0.0063959244 0.1730393 1054992
0.35256252 0.0033673388 0.17083171 6317405
0.78900003 -0.15212713 0.1846707 13881544
0.79131263 -0.15732215 0.18486343 13025980
0.78813338 -0.14550351 0.18538944 14408146
0.78727794 -0.13520925 0.1851884 14408145
0.78679997 -0.1249953 0.18507561 14342352
0.78741682 -0.11495295 0.18522127 14342352
0.78800005 -0.10489392 0.18535905 14276559
0.78616661 -0.095450073 0.18492651 14210510
0.78290004 -0.085524112 0.1845241 14144460
0.78200006 -0.078465775 0.18120164 14144460
0.33331585 -0.022487197 0.18377788 1186322
0.3337014 -0.014966202 0.18379767 1120785
0.33388492 -0.0053738547 0.18350998 1054482
0.33433333 0.0001082969 0.18156596 2303002
0.78899992 -0.15268126 0.19538364 13947594
0.7906 -0.15743379 0.19466881 12697014
0.78751999 -0.1453906 0.1953858 14474195
0.78586668 -0.13496755 0.19497497 14605524
0.78519994 -0.12474105 0.19480936 14473938
0.78603333 -0.11475023 0.19501641 14342352
0.78760004 -0.10483926 0.19540577 14276559
0.78695655 -0.095786273 0.1949276 14144973
0.78299999 -0.086512297 0.19161755 14078923
0.78900009 -0.15237902 0.20465256 14013130
0.79035717 -0.15714733 0.20560518 12894392
0.78800005 -0.14547855 0.20472901 14277073
0.7871334 -0.13518415 0.20450602 14342352
0.78656006 -0.12495702 0.20435774 14408145
0.78720003 -0.11492162 0.20452303 14473938
0.78812003 -0.10490952 0.20476022 14342352
0.78846157 -0.097287811 0.20499149 14276559
0.78899997 -0.15234026 0.21536034 14078922
0.79057139 -0.15719043 0.21438667 12893878
0.78800005 -0.14547782 0.21487458 14473937
0.78800005 -0.13533182 0.21487457 14408145
0.78800005 -0.12518588 0.21487457 14144973
0.78797227 -0.11503586 0.21486682 14276559
0.7881 -0.10490653 0.21490094 14408145
0.78828579 -0.097287185 0.21297479 14342352
0.78900003 -0.15212713 0.22530608 14079178
0.79083335 -0.1571106 0.22490451 13025978
0.78800005 -0.1454778 0.22502053 14408143
0.78786671 -0.13530949 0.22498196 14737109
0.78772008 -0.12514175 0.22493954 14474194
0.78652948 -0.11461058 0.22524889 14276816
0.78549993 -0.10482383 0.22496016 14276816
0.78633338 -0.099149592 0.22270298 14342352
0.78900003 -0.15212713 0.23454139 14079178
0.7905333 -0.15705067 0.23499674 13289406
0.78770006 -0.14542335 0.23507625 14473936
0.78644443 -0.13506526 0.23470071 14473936
0.78683347 -0.12499981 0.23481785 14342607
0.78650004 -0.11505319 0.23529473 14276814
0.78480005 -0.10777535 0.2343988 14474194
0.78900003 -0.15212715 0.24470025 14144972
0.79033339 -0.15701048 0.24511375 13157564
0.78772008 -0.14542715 0.24522582 14408144
0.78660005 -0.13509202 0.24487813 14473937
0.78724015 -0.12506466 0.24507774 14342351
0.78731823 -0.11561143 0.2440958 14408145
0.78600001 -0.10830776 0.24192978 14342352
0.79106671 0.14680396 0.24601884 9935246
0.79224998 0.15446158 0.24517667 10000782
0.78899992 -0.15305068 0.25485909 14013131
0.79049999 -0.15796866 0.25534359 13355200
0.787889 -0.14525273 0.25490949 14342351
0.78744465 -0.13523588 0.25527695 14276559
0.78800005 -0.12518588 0.25453612 14013385
0.78820002 -0.11875923 0.25460142 14013385
0.7906 0.14758104 0.25315523 9869453
0.79233336 0.15529467 0.2535409 9934989
0.78860003 -0.15260458 0.26432949 14013387
0.79042864 -0.15729381 0.26576179 13223871
0.787 -0.14549284 0.26467359 14276558
0.78596658 -0.13498212 0.26491824 14473937
0.78753346 -0.12511072 0.26452437 14079179
0.78850007 -0.11880408 0.26023528 13881799
0.78856254 -0.15319741 0.27525464 14078924
0.79059994 -0.15817371 0.27480823 12236464
0.78589636 -0.14496538 0.27485386 14144973
0.78563881 -0.13492456 0.2749235 14473937
0.78750008 -0.12518193 0.27450028 14210764
0.78900003 0.1474929 0.2780793 9737867
0.79057151 0.14752249 0.27334371 9803660
0.78900003 0.15171476 0.27794737 9737867
0.79150015 0.15516046 0.2748712 9737867
0.78812504 -0.15380514 0.28501859 13815752
0.79000002 -0.15879287 0.28477257 10723482
0.78434497 -0.14474332 0.28494814 13882057
0.7841472 -0.13488279 0.28514445 14276558
0.78717256 -0.12517999 0.28483269 14276557
0.7876001 -0.11774764 0.28759414 14079178
0.77700001 0.1184848 0.28918129 13027262
0.77900004 0.12061343 0.28901383 13093055
0.78233337 0.12479479 0.28933477 13027262
0.78899992 0.14728181 0.28330389 9737867
0.79000002 0.14728352 0.28847137 9606281
0.78899997 0.15384597 0.28355965 9672074
0.79000002 0.15674393 0.28591067 9737867
0.79100007 0.16506368 0.28513327 9737867
0.78821057 -0.15367623 0.29500493 13947336
0.79028571 -0.1585861 0.2957128 11710633
0.78484607 -0.14496885 0.29521197 13947592
0.78465629 -0.13452674 0.29536086 14277070
0.78546655 -0.12478302 0.29508704 14277070
0.78542864 -0.11479623 0.29520488 14145484
0.78489995 -0.10448162 0.29671538 13948362
0.78425002 -0.095789306 0.29704288 13816776
0.78314292 -0.085128263 0.29853874 13685191
0.78280002 -0.074881874 0.29867014 13816778
0.78266668 -0.064789325 0.29861927 13816778
0.78300005 -0.057486415 0.29874644 13816778
0.7764616 0.11630656 0.29583177 12961214
0.77880007 0.12058248 0.2953217 13027262
0.78361911 0.12605043 0.29505226 12171954
0.78830779 0.1328443 0.29495212 9672075
0.79036367 0.13751182 0.29600561 9672074
0.79195011 0.14542261 0.29548901 9672074
0.7923103 0.15497413 0.29475474 9672074
0.78850007 -0.1532623 0.30474195 13947337
0.79012501 -0.15812446 0.30539486 12237235
0.78669232 -0.14538008 0.30546907 13816008
0.78407151 -0.13538118 0.3052496 14211279
0.78250015 -0.12522814 0.30496517 14277071
0.78280002 -0.11519609 0.30508202 14342350
0.78358358 -0.10522316 0.30538702 14210764
0.78300011 -0.095064282 0.30516005 13947849
0.7820555 -0.084880143 0.30479282 13553604
0.78186643 -0.07479158 0.30471963 13487812
0.78205532 -0.06473957 0.30479282 13619141
0.77900004 -0.05080995 0.30998585 12764090
0.7816537 -0.055135932 0.30456573 13619398
0.77714294 0.11668929 0.30222946 12763836
0.77900004 0.12061343 0.30451488 13092800
0.78360003 0.12522119 0.30513728 12369334
0.78843749 0.13291912 0.30531934 9606026
0.79054546 0.13788004 0.30465224 9672074
0.79208338 0.18475577 0.30499148 9738124
0.78876179 -0.15379663 0.31536508 13750217
0.79000002 -0.15833052 0.31436303 10329497
0.78644454 -0.14499032 0.31519571 13947851
0.78213799 -0.13524416 0.31489271 14343121
0.7809698 -0.1252314 0.31492394 14211535
0.7813704 -0.11478296 0.3149927 14277072
0.78162855 -0.10482976 0.31547356 14277072
0.77900004 -0.092753977 0.31819227 14145741
0.78092879 -0.09494371 0.3150599 14211278
0.78022248 -0.084680438 0.31503734 13948106
0.77900016 -0.073345087 0.31675944 13816776
0.78018749 -0.075658299 0.31308323 13619397
0.77891684 -0.06584809 0.31770226 13750985
0.78033328 -0.064467244 0.31286424 13487812
0.77900004 -0.059472308 0.31591272 13619399
0.78000003 -0.056048825 0.31129679 13487812
0.77606678 0.1159231 0.31596413 12961729
0.77900004 0.12061343 0.31363317 13224644
0.78436369 0.12562376 0.31537229 11842989
0.78864288 0.13305254 0.31487828 9606281
0.79025006 0.13761814 0.31523368 9540488
0.79192007 0.14486241 0.31512889 9540488
0.79146671 0.18461207 0.31494692 9607051
0.78847623 -0.15409291 0.3248316 13224132
0.79000002 -0.15879287 0.32545948 8487550
0.78595829 -0.14518027 0.32433245 14013644
0.78416675 -0.13520773 0.32527965 14540757
0.78371996 -0.12472551 0.32493246 14343121
0.78404158 -0.11537857 0.32530501 14343122
0.78283334 -0.10512365 0.3249529 14408660
0.78166664 -0.094814867 0.32499164 14342866
0.78166664 -0.084837265 0.32568845 13750729
0.77900004 -0.072329059 0.32165721 14014156
0.78119993 -0.075276509 0.32622623 13422020
0.77885729 -0.065257259 0.3226926 13948364
0.78100008 -0.06526275 0.32784712 12698554
0.77900004 -0.05992822 0.32366323 13750985
0.77833337 0.11747391 0.32126021 12830144
0.78150004 0.119171 0.32470256 12830401
0.78639132 0.12560615 0.32501382 11251625
0.78900003 0.13139705 0.32227689 9474696
0.79159093 0.1358749 0.32535735 9474695
0.79250002 -0.16506231 0.33516899 9343111
0.78900003 -0.1535784 0.33138031 12434362
0.79061103 -0.15572804 0.33609802 9079428
0.78846663 -0.14544083 0.33245799 11250599
0.79099995 -0.14510578 0.33790898 9737618
0.78830779 -0.13502975 0.3329964 11053475
0.7907778 -0.13529503 0.33791652 10856610
0.78850007 -0.12526529 0.33314866 11250597
0.7906363 -0.12509924 0.33783725 11119011
0.78850001 -0.11511288 0.33314863 11579562
0.79081815 -0.11503046 0.33774704 10790048
0.7875334 -0.10483336 0.33366349 11250598
0.79020005 -0.1051877 0.33849096 11251112
0.78714299 -0.095126688 0.33472881 11053733
0.78723538 -0.084628515 0.33548942 10790820
0.78675002 -0.075260304 0.3360962 10527904
0.7846666 -0.065528765 0.33498821 10067093
0.7860769 0.11619028 0.33601806 10790812
0.78827268 0.12372828 0.33506539 9409160
0.79014289 0.12920924 0.33556029 9211780
0.79239142 -0.085074455 0.34499949 8685438
0.78900003 -0.074550487 0.34167105 8225146
0.79094738 -0.07498017 0.3463161 8948351
0.7885384 -0.065348729 0.34289166 8619388
0.79039997 -0.06580095 0.34819913 8948352
0.78730774 0.11580515 0.34377447 8949121
0.78881818 0.12163028 0.34461462 9014914
0.79050004 0.12671277 0.34499389 9146500
0.79231584 -0.064856671 0.35531062 9277318
0.79000002 0.11861777 0.35504994 9145730
0.78900003 0.12031468 0.35090637 9212293
0.79083347 0.12507008 0.35519254 9146500
0.78900003 0.12216175 0.36522114 9146500
0.79031831 0.12640367 0.36393893 9146500
0.79170018 -0.084999152 0.37527138 9540490
0.792 -0.057894349 0.3743203 9474697
0.7909357 -0.095251247 0.38491803 9541004
0.79111999 -0.084936388 0.38518724 9474954
0.79129428 -0.074549124 0.38461697 9343881
