# .PCD v0.7 - Point Cloud Data file format
VERSION 0.7
FIELDS x y z rgb
SIZE 4 4 4 4
TYPE F F F U
COUNT 1 1 1 1
WIDTH 289
HEIGHT 1
VIEWPOINT 0 0 0 1 0 0 0
POINTS 289
DATA ascii
0.43900001 -0.070769578 0.018992756 16578029
0.43882155 -0.0648349 0.018544454 16249832
0.43818185 -0.055438623 0.018723786 15790052
0.43900001 -0.048673876 0.018992756 15526366
0.44025004 -0.080504298 0.02909478 15657184
0.43714538 -0.073638313 0.025949216 15722719
0.44000003 -0.078656144 0.027276406 15722720
0.43428576 -0.064924404 0.024869651 16183525
0.43493873 -0.055045966 0.024952954 16183527
0.4360722 -0.045238145 0.02511004 15855076
0.43491301 -0.034922555 0.025312483 15591904
0.42900002 -0.020951269 0.029105235 15263454
0.43309894 -0.02475122 0.024895392 15262939
0.42766669 -0.014213939 0.028678767 15000282
0.43167603 -0.015463288 0.023730002 15065818
0.42659017 -0.0049384888 0.027248381 14737110
0.43015927 -0.006292345 0.022317136 14934231
0.42640787 0.0044728238 0.026607944 14539475
0.43000004 0.0051724738 0.021874955 14605781
0.42716905 0.014749999 0.026609562 14473681
0.42999995 0.01362823 0.022193722 14671058
0.42761111 0.023107864 0.028117457 14670804
0.43071437 0.025618536 0.02467232 14407888
0.43646148 0.034985673 0.026242776 12236976
0.4401429 0.03826705 0.023678923 11448229
0.43900001 0.040222771 0.027728265 11448228
0.44060001 0.040781856 0.02597196 11382435
0.43434492 -0.081656568 0.035623677 15459548
0.42653492 -0.07317555 0.037129972 15459033
0.43253335 -0.076369673 0.033747733 15327704
0.42511326 -0.064812414 0.034958273 16051681
0.43000001 -0.068815395 0.030179717 15986144
0.42571563 -0.055313569 0.035553705 15986146
0.43017644 -0.05329274 0.030784234 15986147
0.4263373 -0.04514752 0.036401223 15788769
0.43039992 -0.044697952 0.031214429 15789283
0.42549416 -0.035009116 0.035851542 15526111
0.43026313 -0.035433628 0.030833956 15723490
0.42434293 -0.02507765 0.034967043 15196890
0.43000001 -0.02754325 0.030179717 15393755
0.41900006 -0.012615805 0.039216544 14998997
0.42284527 -0.015418951 0.034767054 14999767
0.41800004 -0.0043681739 0.03814292 14605010
0.42153522 -0.0056060739 0.033625092 14736596
0.41757441 0.0044627571 0.038185809 14276559
0.42126468 0.0050678444 0.03333376 14408144
0.41807145 0.015026553 0.038219482 14210766
0.42204118 0.015214241 0.033661105 14342096
0.41880003 0.021901507 0.039001651 14473938
0.42344794 0.025397994 0.034850195 14539475
0.42659578 0.032905705 0.036159426 14078924
0.43155998 0.036978617 0.033618361 12368818
0.43319997 0.041517459 0.03521616 11448228
0.4247317 -0.082289904 0.045679945 15262425
0.43000004 -0.082628705 0.040917184 15130841
0.4171429 -0.073581465 0.047939863 15722463
0.42281547 -0.075657554 0.043675944 15459291
0.41669241 -0.06502524 0.047248721 16051683
0.42062235 -0.06535653 0.042364772 16051683
0.41678801 -0.054904561 0.046986833 15919842
0.42084792 -0.0553995 0.04212926 15854561
0.41638571 -0.045191471 0.04676291 15525597
0.42125016 -0.04473355 0.041890122 15788769
0.41638887 -0.034848511 0.04592796 15459804
0.42065218 -0.035573229 0.041168667 15657183
0.41584265 -0.024725892 0.045082141 14999767
0.42000002 -0.027394325 0.040293366 15197146
0.41509113 -0.01492925 0.044665627 14868437
0.40900001 -0.00082499348 0.049770303 14341837
0.41374314 -0.0051665013 0.044769097 14539216
0.40899998 0.0044411267 0.049770299 14210252
0.41299102 0.0051137367 0.044832435 14210509
0.41398224 0.015068649 0.044702031 14210509
0.41601992 0.024660816 0.045090646 14408144
0.4204286 0.02867955 0.040896662 14473682
0.41769567 0.031979967 0.047850791 14145228
0.42292735 0.034923799 0.044058271 13487299
0.43000001 0.039398156 0.041252732 10921627
0.43114287 0.041234553 0.041216899 11382435
0.41493741 -0.082369156 0.05571739 15393754
0.42044449 -0.083089866 0.050725177 14670288
0.40706682 -0.073417768 0.057471555 15657440
0.41315386 -0.075729221 0.053347945 15459291
0.40650654 -0.065257207 0.056935497 15855074
0.41189796 -0.064588852 0.052047994 15985890
0.40687522 -0.054961819 0.057661723 15854305
0.41198444 -0.054991957 0.052479856 15854562
0.40707704 -0.044878285 0.057373576 15394012
0.41187739 -0.045098994 0.052383412 15328219
0.40682521 -0.034879588 0.056962788 15131096
0.41173926 -0.035300385 0.051860608 15130840
0.40698856 -0.025001176 0.05631819 14868181
0.41111121 -0.025211345 0.051148407 14802645
0.40640962 -0.014956174 0.055831227 14736852
0.41074994 -0.015253584 0.050703514 14802901
0.40584469 -0.0049065249 0.0552288 14342350
0.41050005 -0.0075549348 0.050432749 14605009
0.40580997 0.0048835026 0.055068959 14079178
0.40671289 0.014627898 0.055670302 14013385
0.41070002 0.016719382 0.050889708 14013130
0.40782994 0.02321096 0.057485964 14210508
0.41201437 0.025654603 0.053355198 14210509
0.4153913 0.034187283 0.055348087 13487042
0.421 0.038771596 0.050835859 11776683
0.41625002 0.040330697 0.058203492 11381922
0.40514293 -0.08151345 0.065188207 15327706
0.41025001 -0.082702287 0.060726799 15986662
0.39786661 -0.072771117 0.067972608 15854819
0.40257639 -0.075557187 0.063934222 15460061
0.39749992 -0.065053895 0.067399189 15854306
0.40154099 -0.064898655 0.062387645 15789282
0.39733931 -0.054950394 0.067748547 15788513
0.40174988 -0.055070091 0.062988795 15788770
0.39754716 -0.044910025 0.06789998 15328218
0.40177909 -0.045018785 0.062993087 15328475
0.39824396 -0.035659917 0.068561122 15196632
0.40180004 -0.034738705 0.063503936 15065303
0.39848283 -0.024576258 0.06910897 14802388
0.40173015 -0.025261208 0.064205281 14802389
0.39791796 -0.014349303 0.067660265 14605011
0.40104228 -0.015264565 0.062681943 14671316
0.39739698 -0.0049067372 0.067042112 14276045
0.40044224 -0.0051347436 0.06195955 14276044
0.39745218 0.0046025561 0.067122534 14013130
0.40081346 0.0050456901 0.062098328 14012873
0.39809528 0.014331736 0.068434171 14013385
0.40165162 0.015462982 0.06362842 14013385
0.39850003 0.021119233 0.069482148 14342350
0.40400001 0.025287686 0.064738236 14210764
0.40702182 0.032717537 0.066591628 13816006
0.41320455 0.03621861 0.062832177 13158078
0.41606659 0.040654201 0.0632274 11185057
0.39552638 -0.081159055 0.076241426 14604240
0.40063161 -0.082799554 0.072888233 14867411
0.39378053 -0.074934997 0.075166531 15526111
0.40000001 -0.079152904 0.070524611 14867412
0.38900003 -0.062253937 0.079209507 15526109
0.39244789 -0.065139852 0.074718691 15789026
0.38900003 -0.059977297 0.079209507 15723488
0.3924731 -0.055034008 0.074852437 15525854
0.3933278 -0.044859629 0.075011201 15065303
0.39406821 -0.034927242 0.075153507 14933717
0.3941935 -0.02460875 0.075408898 14670803
0.39415076 -0.014855624 0.075038724 14407631
0.39318264 -0.0051769605 0.075117238 13947336
0.3933309 0.0046976493 0.074962392 13881542
0.39483607 0.014762579 0.07491713 13881799
0.39704332 0.024127375 0.075698473 14145226
0.40031996 0.027645433 0.072254479 14145227
0.39900002 0.030766612 0.078630351 13882567
0.40292937 0.034004029 0.074903555 13158590
0.389 -0.081182577 0.088836446 14537933
0.39198086 -0.082707487 0.084888496 14406861
0.38804606 -0.074263215 0.086100362 15394269
0.39051622 -0.07708209 0.08228977 15262683
0.38735956 -0.0650374 0.084901795 15394269
0.39000002 -0.069261447 0.080326125 15723488
0.38813767 -0.05533348 0.084972046 15065046
0.39000002 -0.050545007 0.080326125 14868179
0.38858193 -0.045754045 0.085836269 14802387
0.39011118 -0.042525508 0.081667863 14802130
0.38896871 -0.036467779 0.088251904 14209995
0.39072034 -0.034394052 0.08392334 14473422
0.38845006 -0.024951214 0.08871267 10525843
0.39109191 -0.024845362 0.08376728 14144458
0.38871431 -0.015524599 0.088796407 9933451
0.39070794 -0.015217398 0.084034331 13684165
0.38888171 -0.0045637977 0.085938916 13026235
0.39015633 -0.0072097126 0.081842005 13552579
0.38857508 0.0046358365 0.085525326 13354945
0.39000002 0.005071729 0.080402218 13750215
0.38846615 0.014429845 0.086161129 13158337
0.39072415 0.015710233 0.081357025 13816265
0.38899997 0.021708552 0.08781521 13289924
0.3924813 0.025451394 0.084334761 13816264
0.39556003 0.032188788 0.085124761 13290177
0.40055558 0.035139151 0.081352569 12369332
0.38470307 -0.082346655 0.094761245 14538190
0.38344291 -0.075020611 0.095054746 15394011
0.38383156 -0.0649831 0.094788685 15327962
0.38479966 -0.054943409 0.095103152 14670802
0.38565853 -0.045080211 0.094862796 14473424
0.38720024 -0.035198133 0.094765566 12499120
0.38443586 -0.025113653 0.094874538 2567210
0.38486543 -0.015138811 0.094855718 2961967
0.38726595 -0.0054133134 0.094870172 12105133
0.38596883 0.0047466182 0.095104285 12829114
0.38541281 0.014796815 0.095279783 12764093
0.38735351 0.024370026 0.095132463 13158851
0.39053851 0.028258337 0.09161827 12961215
0.38850001 0.030821271 0.097465515 12566714
0.39133337 0.032330163 0.093145043 11974319
0.37895837 -0.083047673 0.10814086 14538446
0.38127652 -0.082392715 0.10311918 14473424
0.3788124 -0.075587668 0.1081356 14934231
0.38061193 -0.074575283 0.10350629 15196889
0.37900001 -0.069969654 0.1086705 14473936
0.38131079 -0.065037511 0.10486623 14802132
0.38275689 -0.055081639 0.10512459 13750214
0.38346788 -0.044703633 0.10508244 13750473
0.38333073 -0.034908235 0.10500535 10263188
0.37830311 -0.023937199 0.1071677 2370341
0.38105342 -0.025402755 0.10272018 2370343
0.37835428 -0.016521402 0.10759819 2370088
0.38145167 -0.014296153 0.1034971 2830895
0.38344732 -0.0052617891 0.10499682 10461340
0.37869999 0.0088106543 0.10902705 12172215
0.38206345 0.0047429339 0.10463916 12106422
0.37846148 0.014979891 0.10868542 11975093
0.38159621 0.015388103 0.10381688 12040886
0.37866667 0.021102471 0.10916525 13224896
0.38303816 0.025243824 0.10481586 12501691
0.38499999 0.030768633 0.1043013 10790301
0.37822634 -0.083214745 0.11445473 13683393
0.37811974 -0.075018018 0.11488599 14210764
0.378887 -0.067473218 0.1164057 13816008
0.38044289 -0.063594341 0.11390242 14144972
0.38166401 -0.055140775 0.11506775 13618631
0.38146231 -0.044976387 0.1151799 12895423
0.37889999 -0.030833954 0.11715647 2172451
0.38112855 -0.035116982 0.11480827 8816770
0.37634936 -0.024639992 0.11519468 2107682
0.38000003 -0.029233279 0.11029161 2370341
0.37641296 -0.014985677 0.11514083 2567978
0.38000003 -0.010551953 0.11073641 7304045
0.37870589 -0.0048319572 0.11763338 9211271
0.38066319 -0.0053268089 0.11420563 9342602
0.37698555 0.0053924671 0.11537541 11974320
0.38026673 0.0020215851 0.11108085 11909556
0.37576222 0.015076846 0.11520679 12961213
0.3771143 0.023650192 0.11543133 13552835
0.38061541 0.026718514 0.11108664 13158077
0.384 0.030688714 0.11055362 10724507
0.3783201 -0.081675902 0.12273645 12368560
0.37841254 -0.075210705 0.12325362 12763062
0.38000003 -0.079494938 0.12719376 10263186
0.37880817 -0.065041557 0.12402728 12040367
0.38000003 -0.060961876 0.12067013 13947340
0.37899998 -0.05894246 0.12597181 11645097
0.38066986 -0.054755583 0.12429027 13026750
0.38085991 -0.045058977 0.12421334 12040370
0.37728575 -0.032200024 0.12555595 4738119
0.38043416 -0.036930367 0.12450054 9079941
0.3731375 -0.025297875 0.12449168 1909791
0.3727954 -0.015209979 0.12438668 2632741
0.37791249 -0.0048263622 0.12441435 9013378
0.38000005 -0.006104019 0.1207125 7369067
0.37521774 0.0049360148 0.12455837 10066321
0.371539 0.014905082 0.12416907 12171441
0.37569323 0.024569558 0.1244145 12566711
0.36500001 -0.030642746 0.13798067 2304801
0.36434293 -0.024909604 0.13840055 2107167
0.36499992 -0.016113171 0.13840522 2895912
0.37800002 -0.0065143448 0.13006394 9343111
0.37800002 0.002777156 0.13006394 6185563
0.37600002 0.023007587 0.130256 10724507
0.36590001 -0.031103749 0.14436541 1185810
0.36480322 -0.025032172 0.14477654 1317137
0.36362496 -0.015957402 0.14490588 1973527
0.36428344 -0.032223713 0.15646607 2566692
0.3660695 -0.025738716 0.15581161 791051
0.37 -0.025865449 0.1558951 660236
0.36390829 -0.015315272 0.154975 2234899
0.36116675 -0.032293323 0.16331998 1711894
0.36210456 -0.02479123 0.16505559 1251600
0.36439151 -0.016092723 0.16507585 1447696
0.34542304 -0.033209313 0.17836048 1515288
0.35560873 -0.032099102 0.17629306 857614
0.3619251 -0.032675683 0.17271866 1581078
0.34638673 -0.025077121 0.17875387 1383444
0.35521266 -0.025030183 0.17582326 923151
0.36044678 -0.024838846 0.17168956 1581334
0.34680557 -0.016825514 0.17870577 1382931
0.35543686 -0.016891932 0.17665611 791052
0.36226323 -0.016093899 0.17206518 1186067
0.33843189 -0.033238288 0.18829252 1515031
0.34178784 -0.033471365 0.18343927 1515030
0.33833811 -0.025409261 0.18836422 1449494
0.3417986 -0.02482634 0.18336487 1449237
0.33880004 -0.017048204 0.18906781 1579795
0.34218305 -0.016676696 0.18384525 1448467
0.33723074 -0.032867245 0.19060953 1514519
0.337423 -0.025164245 0.19074884 1449495
0.3381429 -0.017304804 0.1909292 1514261
0.79533339 0.089628331 0.35464939 9737612
0.79250008 0.088844925 0.3612746 9540490
0.79263991 0.094892576 0.36365879 9672075
0.79533345 0.10473377 0.36448008 9869454
0.79550004 0.089647114 0.3714895 9606025
