# .PCD v0.7 - Point Cloud Data file format
VERSION 0.7
FIELDS x y z rgb
SIZE 4 4 4 4
TYPE F F F U
COUNT 1 1 1 1
WIDTH 315
HEIGHT 1
VIEWPOINT 0 0 0 1 0 0 0
POINTS 315
DATA ascii
0.44900003 -0.050308179 0.02835989 12105390
0.45133337 -0.051980469 0.029211914 11973804
0.44809094 -0.046105281 0.028684692 11710632
0.45133337 -0.042114645 0.029563846 11118753
0.45660001 -0.033417381 0.029587876 13026496
0.45408341 -0.024973594 0.028812736 14474456
0.4456217 -0.013991038 0.027499434 14606042
0.45050001 -0.019892018 0.027926734 14935007
0.4445942 -0.0046791621 0.025500419 14079441
0.44732842 0.0042005782 0.025943983 14211284
0.45055553 0.0074133743 0.02248048 13355973
0.44672406 0.015541051 0.026622549 14277079
0.45122227 0.012233617 0.022982471 14605785
0.44696933 0.02495504 0.026085418 14474201
0.45000002 0.029642591 0.02315576 14869214
0.44820842 0.033678219 0.028220637 14079698
0.45241177 0.0352888 0.025177741 13158338
0.44690639 -0.07380484 0.038031977 15263459
0.45199999 -0.071049638 0.034591876 15921388
0.4468751 -0.064945579 0.038519785 15592680
0.45306531 -0.064755686 0.034443852 15461092
0.44621876 -0.054594971 0.038332082 15395558
0.45289811 -0.054879788 0.033361938 14935005
0.44579422 -0.044733878 0.038126484 15132386
0.45172715 -0.044980157 0.033819314 15527143
0.44494003 -0.034874737 0.037176348 14934750
0.4528538 -0.035251159 0.032709952 15263972
0.43858337 -0.022275524 0.039166305 14737628
0.44421533 -0.024986684 0.035642076 14671835
0.45176193 -0.026497796 0.031654917 14737628
0.43794292 -0.014357205 0.038643617 14737628
0.44325343 -0.015080059 0.033452298 14671835
0.43697786 -0.0046571256 0.037779287 14606042
0.44222236 -0.005301096 0.032622788 14671835
0.43594992 0.004731949 0.037222248 14342870
0.44236016 0.0048017283 0.032078143 14342870
0.43556055 0.015094797 0.036815159 14211284
0.44148827 0.014780194 0.031703368 14277078
0.43494856 0.024983833 0.036023013 14474457
0.44200012 0.025056282 0.031018702 14408408
0.43709803 0.034414507 0.037233897 14474456
0.44253346 0.035435542 0.032319207 13882062
0.43700004 0.042403825 0.038799033 11908782
0.44120002 0.040630352 0.034887467 11644838
0.43705404 -0.07330364 0.047342226 16052973
0.44236845 -0.074364908 0.042407095 15921645
0.43597174 -0.065090895 0.04673053 16053486
0.44165713 -0.064935707 0.041717406 15527144
0.43502733 -0.054851651 0.04657495 15724266
0.44108811 -0.055343941 0.041615572 15329765
0.42900002 -0.040032905 0.049191169 14803421
0.43461794 -0.044912238 0.04563228 15526887
0.44075 -0.045516595 0.040606711 15329765
0.42724138 -0.034250602 0.048711099 14474456
0.4348551 -0.035207495 0.044073295 15132386
0.44000003 -0.034879107 0.040152002 15000800
0.42552513 -0.025266195 0.048289575 14408663
0.43402734 -0.024986908 0.043309666 14671835
0.44000003 -0.029728865 0.040152002 14935007
0.41800001 -0.011117876 0.049886946 14277077
0.42444447 -0.015046663 0.047445543 14211284
0.43252185 -0.015379018 0.042698596 14342871
0.41784215 -0.005015139 0.049404096 14277077
0.42405885 -0.0052367556 0.045823704 14211284
0.4315334 -0.0053509199 0.04163269 14277077
0.41793755 0.0036226166 0.049450792 14079698
0.42422378 0.0048560794 0.045402188 14013905
0.4305501 0.0046746004 0.040800896 13882319
0.42464876 0.014934006 0.045557965 14079698
0.42999995 0.014113786 0.04066059 14013905
0.42611217 0.024595769 0.045790635 14342870
0.43005878 0.025546096 0.041080736 14342614
0.42720515 0.033656716 0.047981914 14605272
0.43216416 0.035765287 0.04359708 14277077
0.42900002 0.04031083 0.049191169 13815754
0.43306544 0.043485075 0.045009717 12697529
0.41900012 -0.0752142 0.059725996 15065823
0.42329583 -0.074275799 0.055906195 15197409
0.43122232 -0.073163182 0.05135091 15723753
0.41766673 -0.064074308 0.059298482 15395045
0.42420477 -0.065138645 0.055349682 15197665
0.43031582 -0.065447181 0.050932206 15921131
0.41544747 -0.054616909 0.058739688 15395045
0.42448178 -0.054887254 0.053950101 15000544
0.43000004 -0.056735743 0.050312471 15263972
0.41501999 -0.044731691 0.058228157 15066337
0.4244557 -0.045218166 0.053196646 14671835
0.41443259 -0.034647621 0.056921482 14474201
0.42289367 -0.035782255 0.052191734 14539993
0.4086923 -0.024008555 0.059005812 14277077
0.41431922 -0.02493849 0.055013739 14277077
0.42087501 -0.026035225 0.050660525 14342870
0.40777799 -0.014422907 0.05827399 14277077
0.41421056 -0.014933545 0.053364325 14276822
0.42040005 -0.017580179 0.050173379 14342870
0.40755552 -0.0052992762 0.058522779 14211284
0.41346765 -0.0050591473 0.053558357 14211285
0.40875 0.0016880083 0.058949735 14079698
0.4135564 0.0052818172 0.054738387 14079698
0.41553116 0.014962287 0.056054294 14145491
0.42058337 0.016424062 0.051056266 14145491
0.41639063 0.024583446 0.057379168 14342870
0.42144248 0.025582479 0.052400507 14408663
0.41767746 0.033729054 0.058331463 14408663
0.4228076 0.035657842 0.053990986 14474199
0.41900003 0.040842514 0.059815161 14013647
0.42474297 0.041728646 0.054251641 13618889
0.40800002 -0.08009921 0.066841058 14737375
0.40664518 -0.074769445 0.06758038 15395045
0.41443333 -0.074795969 0.062790245 15328995
0.40518829 -0.064760625 0.06658905 15592424
0.41332617 -0.065348312 0.061754536 15592168
0.40479106 -0.054809786 0.065570995 15263715
0.41162503 -0.056904837 0.060928941 15329252
0.40452483 -0.045114789 0.065100342 15132386
0.41040006 -0.042138826 0.060508959 14935007
0.39833334 -0.030954229 0.069608569 14408663
0.40422904 -0.034961443 0.06494198 14671579
0.41050002 -0.036866818 0.060523704 14934753
0.39810354 -0.024585335 0.069074996 14211284
0.40360957 -0.025281813 0.064050049 14211285
0.39827284 -0.014956724 0.068947494 14013905
0.40229177 -0.014733839 0.063939936 14211285
0.39866671 -0.0088923676 0.069355726 14145491
0.40269092 -0.0049131778 0.064827211 14211284
0.404944 0.0046836068 0.065163113 14013905
0.4103334 0.0086187143 0.060819071 13948112
0.40586957 0.014848429 0.066551439 14013905
0.41103345 0.015561854 0.061627392 14079698
0.4067466 0.024556654 0.067325488 14342870
0.41183338 0.025435079 0.062501319 14342870
0.40820011 0.034089003 0.068592764 14342870
0.4132643 0.034986451 0.06379991 14342870
0.40900001 0.040346488 0.069877304 13948112
0.4154762 0.041077983 0.064069174 13421254
0.39620003 -0.08167854 0.078911863 15064797
0.40486366 -0.08167956 0.074287646 14867934
0.39562503 -0.074300773 0.076895803 15657960
0.40257403 -0.075933561 0.072473273 15394789
0.39486146 -0.064884439 0.075575642 15789545
0.40020004 -0.066014893 0.070622139 15658473
0.3950651 -0.054998774 0.075016834 15526373
0.40000001 -0.05605486 0.070212476 15460581
0.39476305 -0.044977017 0.075106286 15328995
0.40000001 -0.045754384 0.070212476 15328995
0.39400697 -0.03495096 0.074791208 14671580
0.39340907 -0.024737988 0.07502684 14145237
0.39462402 -0.014657932 0.075071409 13816527
0.3959997 -0.005440508 0.075483605 14145491
0.40000007 -0.0027967044 0.071031831 13948112
0.3963176 0.0048782178 0.076553874 13948112
0.40029529 0.0048156362 0.071669057 14013905
0.39720553 0.014817749 0.07723248 13948112
0.40081036 0.015336961 0.072374128 14013905
0.39766672 0.02479885 0.078411303 14408663
0.40160251 0.025373198 0.073415533 14277077
0.39822584 0.034053132 0.07877101 14342869
0.40283003 0.034994122 0.073938824 14145490
0.39900002 0.040294088 0.079377607 11776943
0.40260002 0.041028932 0.075852968 11908012
0.41000003 0.041404955 0.070048161 13487559
0.38880005 -0.080880776 0.088998258 14867931
0.39330235 -0.082009181 0.084526256 14933210
0.38656944 -0.074123792 0.087040417 15592167
0.39203778 -0.076464213 0.082611814 15526116
0.38626033 -0.06507495 0.085994445 15723752
0.3905454 -0.064787477 0.080894955 15855337
0.38814858 -0.055379927 0.086210929 15328994
0.39071879 -0.05461017 0.081359066 15460580
0.3884328 -0.045229189 0.08614704 15065822
0.39022228 -0.045076489 0.081082009 15131872
0.38841388 -0.035358187 0.085647255 13882062
0.38999999 -0.034324095 0.080569595 14408663
0.38860202 -0.02562953 0.08619114 11974323
0.39003456 -0.024085598 0.08124622 13816272
0.38864473 -0.015591921 0.087335482 11316395
0.39049104 -0.01497972 0.082370222 13553357
0.38873014 -0.0053345999 0.087906815 13619146
0.39133343 -0.005263255 0.082639702 14145491
0.38871735 0.0038655365 0.088310219 13882318
0.39180833 0.0049978499 0.083278708 13948112
0.38900003 0.011053876 0.08922673 13882317
0.39258146 0.01491924 0.084865063 14013905
0.39319685 0.024980437 0.085113212 14408663
0.3940388 0.035062756 0.085204564 14211283
0.39639133 0.040998198 0.08452978 11842477
0.40000001 0.042267889 0.080512956 11118495
0.38495836 -0.081752323 0.094772123 14538966
0.37842867 -0.073433347 0.098393381 15592167
0.38206008 -0.075386673 0.093895443 15328995
0.37847066 -0.067187242 0.098537028 15395301
0.38150442 -0.064456485 0.094125614 15592166
0.38450336 -0.055219553 0.095183402 15263201
0.38609391 -0.044931538 0.094772868 14868444
0.38612181 -0.035060562 0.094975583 11908015
0.38412413 -0.024961531 0.095054001 2567208
0.38395688 -0.015242355 0.095090955 3093296
0.38574991 -0.0052520903 0.09508983 12631995
0.38534591 0.0047563035 0.095048241 13816525
0.38600001 0.014746523 0.095171653 14013905
0.39000002 0.017016774 0.090369098 14211284
0.3854323 0.02513619 0.095378205 14342613
0.39000005 0.022951255 0.090369098 14342870
0.38570213 0.034752071 0.095090471 14211283
0.39000002 0.038472202 0.090369098 13882317
0.38630772 0.040679131 0.096106932 11381668
0.39000002 0.040298197 0.090369098 13355457
0.37729999 -0.08118239 0.10579006 14801368
0.38088894 -0.081811219 0.10182879 14538708
0.37492785 -0.074844189 0.10524052 15197152
0.38000003 -0.079494938 0.10139575 14538966
0.37542367 -0.065027997 0.10506117 15394787
0.38000003 -0.06066535 0.10080269 15394787
0.37791312 -0.056520343 0.10710568 15131872
0.38124353 -0.053812411 0.10321123 15131873
0.38283536 -0.045002282 0.1049358 15197408
0.38302127 -0.034906354 0.1049584 11118499
0.37819186 -0.023940658 0.10695079 2304551
0.38093752 -0.025823908 0.10267428 2435879
0.37821752 -0.016134638 0.10675631 2304549
0.38086143 -0.013674229 0.10314539 3356981
0.38211775 -0.0052848198 0.10491218 11381927
0.3784681 0.0064363685 0.108074 13290181
0.38108501 0.0044995975 0.103516 13553096
0.37772053 0.015495266 0.10627008 13816525
0.38107997 0.014646649 0.10159257 13948111
0.37707326 0.024731934 0.10573296 14079697
0.38056526 0.024874348 0.10104222 14277077
0.37625244 0.034468293 0.10630345 14145490
0.38120002 0.036000833 0.101833 14211027
0.37400001 0.040396016 0.10811239 10461081
0.38350001 0.040974203 0.10127775 11776685
0.37333336 -0.080285236 0.11097783 14341841
0.37139443 -0.073844157 0.11323224 13618890
0.37271184 -0.064872913 0.11392076 13553097
0.37627631 -0.054602984 0.11429184 14211026
0.3784667 -0.04627838 0.1164255 13947597
0.38049224 -0.043233726 0.11313296 14671320
0.37861121 -0.031194588 0.11638638 3224113
0.38103938 -0.035627868 0.11482362 10986913
0.37547705 -0.024835346 0.11513477 2172965
0.37573403 -0.014824644 0.11504131 3027503
0.37825683 -0.0053209127 0.11587348 9277064
0.38039124 -0.0058397134 0.11226268 10526875
0.37730208 0.0048473398 0.11329624 11053475
0.37598744 0.015028922 0.11294301 10921633
0.37685901 0.024603181 0.11343204 10394775
0.38000003 0.029034663 0.11740831 11513253
0.37664708 0.033963896 0.11274572 10921635
0.38075003 0.031320319 0.11741763 9473415
0.37800002 -0.051025055 0.12068395 11447719
0.37833342 -0.045339365 0.12078048 10526875
0.37418753 -0.031532723 0.12432963 3290416
0.38063163 -0.036690816 0.12093335 8288885
0.37213629 -0.026209882 0.12327245 2106912
0.37345651 -0.015194581 0.12184697 3092781
0.37500003 -0.0095352298 0.12025287 9408645
0.36693335 -0.03068894 0.13448851 2106911
0.36516377 -0.026296183 0.13704424 2172705
0.36413336 -0.015651304 0.13893138 2961706
0.79537946 0.18446921 0.13480021 11381406
0.36565217 -0.031181475 0.1446889 1251859
0.36462969 -0.025026973 0.14499746 1186322
0.36328319 -0.015830979 0.14503336 1908760
0.79533339 0.17837866 0.14208886 11315870
0.81000006 0.20505464 0.14976518 2826777
0.36344445 -0.032358021 0.15620902 2501156
0.36473644 -0.025314664 0.15515751 725514
0.36387369 -0.015280703 0.15498303 2300945
0.79100001 0.17987551 0.15921436 11315359
0.7963751 0.18459731 0.15586224 11315615
0.81349999 0.20499109 0.15612644 8551025
0.82100004 0.20976129 0.15948692 2563091
0.81900007 0.21116762 0.15142924 2629398
0.82483333 0.21460493 0.15572864 3089948
0.83250004 0.21854618 0.15879814 3221789
0.36132702 -0.032236639 0.16370872 1777945
0.36199388 -0.024784645 0.16500467 1186321
0.36336413 -0.016179122 0.16487065 1447696
0.79050004 0.1797618 0.1646672 11249822
0.79327279 0.1852075 0.16473323 11184029
0.81566668 0.20649385 0.16449694 6445648
0.82066673 0.20967613 0.16390365 2629143
0.82566673 0.21353303 0.16393583 3287327
0.83366662 0.21820438 0.16487497 3221533
0.34566006 -0.033270441 0.17845425 1515288
0.3554081 -0.032197904 0.17650892 922638
0.36197627 -0.032914627 0.17295016 1449494
0.34668976 -0.025269462 0.17899457 1318165
0.35573116 -0.024859227 0.17546497 1054736
0.360174 -0.026059881 0.17096476 1120529
0.34725925 -0.017049085 0.17927958 1252117
0.35503936 -0.016766991 0.1768261 791566
0.36029172 -0.0167515 0.17162491 1317393
0.79179317 0.18517074 0.17522205 11118495
0.79665005 0.19431171 0.17517553 11381151
0.81000006 0.20695086 0.17062365 3286044
0.81200004 0.21316457 0.17674765 2959646
0.82600003 0.21490613 0.17012662 3484447
0.83500004 0.21920247 0.17100292 2892824
0.33890006 -0.032498144 0.18900493 1514773
0.34190741 -0.033486858 0.18422203 1515031
0.33894235 -0.024776943 0.18847927 1514517
0.34193453 -0.025106149 0.18332703 1448982
0.33897671 -0.017034618 0.18772393 1382930
0.3418687 -0.016663598 0.18288763 1317397
0.78900003 0.1821913 0.18190011 10987678
0.79100007 0.18666707 0.18544887 10921886
0.7948572 0.19457972 0.18444693 11250338
0.33810005 -0.032421738 0.19097295 1514771
0.33847222 -0.024914155 0.19101152 1514772
0.33888894 -0.01769588 0.19109267 1646102
0.79345459 0.18651457 0.19415969 10987422
0.79400003 0.210298 0.19885235 3157279
0.79400003 0.210298 0.20349927 2499608
