# .PCD v0.7 - Point Cloud Data file format
VERSION 0.7
FIELDS x y z rgb
SIZE 4 4 4 4
TYPE F F F U
COUNT 1 1 1 1
WIDTH 354
HEIGHT 1
VIEWPOINT 0 0 0 1 0 0 0
POINTS 354
DATA ascii
0.45420003 -0.052805297 0.029326495 11711402
0.44900003 -0.045052599 0.027308771 11645609
0.4518182 -0.044849716 0.028634725 11514023
0.45650002 -0.033918627 0.029768549 13158595
0.45412007 -0.024477506 0.028682809 14408663
0.44633335 -0.013476833 0.027264737 14540249
0.45083335 -0.0188525 0.027948959 14935007
0.44485071 -0.0047944025 0.025687829 14211284
0.44757575 0.004225798 0.026168529 14211284
0.45071426 0.0070818742 0.022589091 13553353
0.44710907 0.01553847 0.026730243 14276822
0.45144448 0.012473512 0.023228006 14540248
0.44705969 0.024953494 0.026045406 14474201
0.44833338 0.033231612 0.028216336 14342870
0.45214295 0.035191912 0.025455212 13355461
0.44659388 -0.073556364 0.037939437 15395300
0.45120001 -0.071467467 0.034412723 15526886
0.44691899 -0.064751111 0.038177125 15527401
0.45266676 -0.064873338 0.033858407 15395555
0.44628578 -0.054626234 0.038153484 15395558
0.45325547 -0.054600827 0.033072222 14606297
0.44616666 -0.04497743 0.038586669 15132386
0.45315892 -0.044727854 0.033771459 15263971
0.44506988 -0.034798466 0.03760203 14935007
0.45339599 -0.035080247 0.033077281 15329508
0.4384546 -0.022720145 0.039450407 14606299
0.44431669 -0.024922842 0.03611172 14671835
0.45229644 -0.025975091 0.03186034 14672092
0.43793753 -0.014467854 0.038808271 14672092
0.44354549 -0.014964803 0.033667952 14671835
0.45000002 -0.01986994 0.030529967 14671835
0.43686056 -0.0044988259 0.037766583 14606042
0.44241834 -0.0053367163 0.032702386 14606042
0.43610594 0.0049209828 0.036909658 14277077
0.44209096 0.0045177662 0.031776648 14342870
0.43555701 0.014924479 0.036676545 14211284
0.44177508 0.015138784 0.031519413 14277077
0.43539697 0.024996618 0.036573764 14408663
0.44202855 0.025068067 0.031581704 14408663
0.43731105 0.03472447 0.037581593 14342870
0.4427222 0.03517089 0.032562118 14013648
0.43829998 0.041184701 0.038969636 12566203
0.44150001 0.040451832 0.034601383 11645097
0.43762508 -0.073278315 0.047528848 15987437
0.4423025 -0.074167773 0.042787991 15987437
0.43655723 -0.065145247 0.046730459 16053486
0.44158983 -0.065117285 0.041910205 15527144
0.43559995 -0.054865994 0.046772853 15658730
0.44143245 -0.05524132 0.041788045 15395558
0.428 -0.041442528 0.049576312 14671835
0.43459031 -0.044868629 0.045695871 15395815
0.44110525 -0.045784194 0.040849458 15329765
0.42671797 -0.034596961 0.048336871 14408920
0.4339523 -0.035205796 0.043778669 15066850
0.44000003 -0.035394132 0.040152002 15000800
0.42580009 -0.025283424 0.047819816 14277334
0.43392187 -0.025021544 0.042823818 14671835
0.41785717 -0.013560273 0.049869895 14145491
0.42432091 -0.015064241 0.047482647 14277077
0.43256602 -0.015220231 0.04288701 14342870
0.41799995 -0.0048116934 0.049451005 14211284
0.42395329 -0.0053226599 0.045994263 14145748
0.43127272 -0.0056454549 0.041739393 14277077
0.41833341 0.0041074334 0.049490783 14079698
0.42413247 0.004993136 0.045459677 13948369
0.4304547 0.0043080407 0.040929232 13816526
0.42458886 0.014881576 0.045688741 14014162
0.4303 0.014744525 0.040777486 14013905
0.42603669 0.024684288 0.04615372 14277334
0.43024004 0.025118774 0.041275386 14277077
0.42719445 0.033560432 0.048064575 14343127
0.43205801 0.03569214 0.043656182 14277077
0.43314588 0.042769756 0.045510694 13027008
0.41900009 -0.077774696 0.059534911 14737372
0.4238736 -0.073902145 0.055971555 15132130
0.4309167 -0.073250555 0.050923038 15724523
0.41800007 -0.063698404 0.059370957 15198179
0.42425308 -0.065079369 0.055275548 15132130
0.43035716 -0.066139005 0.050857581 15790316
0.41549999 -0.054427382 0.058738656 15263972
0.42405954 -0.054969799 0.054152403 14935264
0.43000004 -0.05572911 0.050312467 15527144
0.41505778 -0.044577245 0.058027871 15000800
0.42371827 -0.045284141 0.052904654 14671835
0.41457495 -0.034793261 0.05670768 14474457
0.42230776 -0.035508268 0.05191822 14540249
0.40875 -0.023432285 0.059189104 14342616
0.41428009 -0.024904564 0.055206738 14211542
0.42068753 -0.026024755 0.050638147 14343127
0.40806454 -0.014414982 0.058622107 14277077
0.4141266 -0.015145386 0.053824201 14211541
0.40815395 -0.0051936973 0.058558978 14211284
0.41353074 -0.0051373867 0.053752232 14211541
0.40874997 0.0016880083 0.058949735 14079698
0.41364911 0.0052506723 0.054797914 14014162
0.41582468 0.014869614 0.056007337 14079698
0.42043492 0.016911719 0.051161066 14079955
0.41696006 0.024891607 0.057488609 14342871
0.42133331 0.025472861 0.05261758 14408920
0.41776463 0.034366582 0.058400147 14342870
0.42295998 0.035415832 0.053742569 14408919
0.41839999 0.041077591 0.05933715 13421509
0.42462504 0.041700345 0.054138161 13487559
0.43000004 0.043999929 0.050456274 12566457
0.40800002 -0.08009921 0.06827376 14933982
0.40701836 -0.07467901 0.067524575 15460838
0.41459018 -0.074785873 0.062785685 15198179
0.40458918 -0.064361274 0.066930525 15592680
0.41369563 -0.065155216 0.06185158 15461095
0.40462071 -0.054769754 0.065574318 15198179
0.41188896 -0.057241287 0.061047509 15198179
0.39855555 -0.042064112 0.069440007 15066595
0.40421015 -0.045217283 0.064799629 15132386
0.41050005 -0.041668836 0.060523704 15132386
0.39847627 -0.035096448 0.069500208 14605789
0.40445867 -0.034908786 0.064564541 14671836
0.41016671 -0.036836106 0.06047456 15000800
0.39803454 -0.024580592 0.069062881 14145238
0.40367302 -0.025199695 0.064037062 14211286
0.3981334 -0.01515523 0.069044791 13948372
0.40258715 -0.014967807 0.063882366 14211285
0.40337595 -0.0049739797 0.064785369 14211284
0.40567741 0.0046470617 0.065321833 14013905
0.41037503 0.008659794 0.061105452 14079698
0.40675637 0.014707386 0.067251079 14013905
0.41125587 0.015516097 0.062289488 14079698
0.40715647 0.024558617 0.067694761 14342870
0.4121792 0.025135901 0.062637404 14342870
0.40766668 0.033248793 0.068024382 14342873
0.41345009 0.035125848 0.063236728 14342870
0.41489473 0.041132152 0.064790256 13289924
0.39590001 -0.081338719 0.078574076 14933724
0.40600002 -0.081286237 0.072729059 14868190
0.39515054 -0.074639693 0.077095002 15592424
0.40341306 -0.075774647 0.072180092 15460582
0.39460304 -0.064746283 0.075630039 15789546
0.40029415 -0.06613037 0.070759982 15657960
0.39502883 -0.054952156 0.075010955 15460838
0.40000001 -0.055118453 0.070212476 15592424
0.39470303 -0.045105409 0.075076908 15263459
0.40000001 -0.049031809 0.070212476 15461351
0.39359835 -0.034887943 0.075062096 14606043
0.39360598 -0.024750181 0.07506495 14079698
0.39448395 -0.014675929 0.075024493 13750991
0.39563438 -0.0055952747 0.075630456 14145491
0.40020007 -0.003008151 0.07127773 14079699
0.39658669 0.0046362635 0.077096194 13948112
0.40124556 0.0050110347 0.072421551 13948112
0.39714298 0.014713785 0.077103958 14013905
0.40158913 0.015489751 0.072517581 14013905
0.39759195 0.024785159 0.078353904 14408663
0.40197465 0.025420614 0.073337719 14277077
0.39811775 0.034340043 0.078734338 14211541
0.40264997 0.034989327 0.073719047 14079955
0.39800003 0.040193103 0.079178669 11908786
0.40549999 0.040474109 0.072596557 12105907
0.41100001 0.041026033 0.07021901 13750732
0.38880005 -0.080880776 0.088998258 14605019
0.39314637 -0.08203125 0.084688731 14802137
0.38667572 -0.074254163 0.087083712 15592424
0.39178845 -0.076267794 0.082456067 15460838
0.38660005 -0.065140568 0.086032443 15658217
0.39043996 -0.064330652 0.08103767 15789546
0.38829264 -0.055807516 0.08687748 15328995
0.39071161 -0.054085925 0.082299545 15394788
0.38871959 -0.044720829 0.086708449 14935006
0.39033344 -0.045627646 0.081894808 15066335
0.38845468 -0.035264645 0.085907415 13750734
0.39009091 -0.034949858 0.080842845 14474713
0.3885859 -0.025695203 0.086326063 11843250
0.39018196 -0.023787608 0.081497967 13750735
0.38866201 -0.015456149 0.087558329 11119530
0.39047453 -0.015117991 0.08257553 13553356
0.38869238 -0.0052784625 0.087824851 13619147
0.39137334 -0.0052711149 0.082595795 14211283
0.38866666 0.0038470752 0.088401064 13882318
0.39205205 0.0050234268 0.083418936 13947854
0.38900003 0.011964533 0.08922673 13816524
0.39218104 0.014924332 0.084696777 14079441
0.39261353 0.024944551 0.084986627 14408663
0.39341161 0.034754913 0.085290238 14211540
0.3947143 0.040585835 0.084708296 11645611
0.38457772 -0.081700996 0.094768375 14605018
0.37825581 -0.07362204 0.098127916 15460581
0.38211468 -0.075477116 0.093778163 15263203
0.37832358 -0.067082442 0.098576821 15395301
0.38201657 -0.064458646 0.094100691 15526631
0.38429448 -0.055131711 0.095140211 15263202
0.38649181 -0.04518104 0.094793551 14803164
0.38633603 -0.035110161 0.094984718 11842479
0.38405028 -0.024963226 0.09511552 2501674
0.38434038 -0.015264255 0.095146798 2962225
0.3858045 -0.0052532265 0.095103607 12566459
0.3852061 0.0047732973 0.095086157 13816526
0.38597953 0.014897991 0.094943218 14013905
0.38541669 0.024996977 0.095135584 14277077
0.38562933 0.034545589 0.094945624 14211284
0.39000002 0.038015705 0.090369098 13948110
0.38623077 0.040670816 0.096294925 11184804
0.39000002 0.040298197 0.090369098 13289410
0.37734792 -0.081186935 0.10582709 14605015
0.38040006 -0.081894584 0.10168014 14341843
0.37521914 -0.074893557 0.10517002 15131871
0.38000003 -0.07993973 0.10095096 14473173
0.37562409 -0.065000296 0.1050493 15329506
0.38000003 -0.060813613 0.10050616 15263972
0.377821 -0.056639399 0.10709471 15066078
0.38113919 -0.053735822 0.10333364 15197922
0.3827748 -0.04496789 0.10495608 15197408
0.38330957 -0.034905601 0.1049995 11249828
0.37828991 -0.023429802 0.10677724 2304807
0.38093841 -0.026248362 0.10316696 2370344
0.37817118 -0.015974963 0.10651985 2239015
0.38086444 -0.013580833 0.10286325 3423544
0.38214692 -0.0052856356 0.10492074 11316649
0.37843397 0.0065062298 0.10769615 13290438
0.38105059 0.0043582362 0.10331164 13487817
0.37772071 0.015343701 0.1063076 13750733
0.38095906 0.01482934 0.10152231 13948112
0.37697157 0.025061855 0.10614989 14013904
0.38045457 0.025060466 0.10151627 14277076
0.37629372 0.034773897 0.10620751 14079698
0.38099992 0.0356327 0.10155489 14145491
0.37524998 0.040309217 0.10736029 11382183
0.382 0.040664319 0.10147954 11776941
0.37399998 -0.0804286 0.11117679 14606038
0.3718718 -0.074349806 0.11324473 13421768
0.37323344 -0.065135449 0.11427598 13290182
0.37643179 -0.054589998 0.11444218 14079696
0.37854412 -0.046673577 0.11639755 13882318
0.38056329 -0.043228742 0.11349021 14605528
0.37864709 -0.031267095 0.1168322 3158577
0.38097125 -0.035517599 0.11474792 10789534
0.3757416 -0.024788229 0.11519774 2107684
0.38000003 -0.029233279 0.11029161 2370854
0.37557337 -0.014818165 0.11499257 2896686
0.37871733 -0.0055989772 0.11585387 9343113
0.38029474 -0.0051280186 0.11415325 9934994
0.37800846 0.0048148842 0.11419991 10790046
0.38000003 0.00056788261 0.11918747 10001039
0.37615654 0.01484676 0.11302687 10790305
0.3769874 0.024462784 0.11344839 10394776
0.38050002 0.028628072 0.11778577 10066318
0.37636736 0.034150802 0.11260426 11184807
0.38088894 0.031629317 0.11758514 9934733
0.37783337 -0.051620349 0.12057189 11382440
0.37854546 -0.046923541 0.12082581 10921889
0.38000003 -0.041390967 0.12111492 9869200
0.37733331 -0.031679332 0.12055904 4211006
0.38063639 -0.036896389 0.12108814 8552313
0.37500003 -0.029287569 0.12025287 2239015
0.37500003 -0.011290994 0.12025287 7105892
0.377 -0.0091448016 0.12001164 9737610
0.366 -0.031107767 0.14726108 1120529
0.36499998 -0.024951926 0.14762214 725772
0.36314765 -0.015466872 0.14768414 1776661
0.36373025 -0.032179981 0.15645009 2435107
0.36506292 -0.025576891 0.15552586 725514
0.3638123 -0.015191369 0.15492459 2300947
0.3612223 -0.032454748 0.1638961 1712153
0.36184451 -0.02477718 0.16497247 1186321
0.36297306 -0.016376819 0.1646895 1447438
0.34535843 -0.032986593 0.17853032 1580823
0.35589579 -0.032205008 0.17637457 857357
0.36150002 -0.032513574 0.17240998 1317395
0.34669235 -0.025182471 0.17877102 1317908
0.35585603 -0.024803832 0.17523822 1054480
0.36023816 -0.02634941 0.1709777 1186063
0.34736669 -0.016855258 0.17920835 1186324
0.35505372 -0.017352566 0.17613311 857358
0.36010009 -0.016532091 0.17115477 1185806
0.33881828 -0.032807734 0.18897711 1449238
0.34171152 -0.033451833 0.18432355 1514774
0.33890387 -0.024926284 0.18857986 1514517
0.34189641 -0.025098292 0.18337318 1514517
0.33864146 -0.016882785 0.18764418 1448724
0.34173045 -0.016914766 0.18272229 1317653
0.33815387 -0.032956991 0.19094843 1449237
0.33840007 -0.024831994 0.1909952 1514774
0.33808339 -0.018028503 0.19098997 1580055
0.80737507 0.0090031773 0.26717085 1976100
0.81350005 0.0062123276 0.26657918 2107430
0.82180005 0.0033422944 0.26699114 2237473
0.83200002 0.00026950054 0.26874876 3485224
0.81500006 -0.014178081 0.27824467 9343114
0.82000005 -0.011252196 0.2763904 9211525
0.81400007 -0.004892353 0.27749866 6909285
0.82280004 -0.0053191488 0.27405369 7500135
0.83200002 -0.0055736802 0.27264422 10000010
0.80704349 0.0062550339 0.27596676 2173475
0.81333345 0.0020071222 0.27413723 2896428
0.82050002 0.0012255929 0.27175748 3683376
0.80728579 0.023750935 0.27804539 988175
0.79124999 0.088705227 0.27410915 10263954
0.79254854 0.095003463 0.27527276 10132368
0.81300002 -0.020672377 0.28164396 9606283
0.81160003 -0.014939209 0.28115898 9211784
0.81000006 -0.0073225237 0.28060469 7633782
0.80735987 0.015383094 0.28536117 1909535
0.80850005 0.022738589 0.2836346 857106
0.81 0.024913294 0.28683513 725776
0.79100001 0.089139991 0.28513303 10000782
0.79104018 0.094700202 0.28514728 10066575
0.79259378 0.10480464 0.28518358 10132368
0.80704165 0.014906924 0.29485041 2041378
0.81000006 0.019224621 0.29956692 1910303
0.81081825 0.023214191 0.29296756 857362
0.79266673 0.089327812 0.29563168 10000525
0.79286957 0.09524069 0.29533249 10066318
0.79313803 0.10500465 0.29506165 10132368
0.78900003 -0.010826807 0.30842394 8817283
0.78710002 -0.0034302738 0.30804545 4278080
0.79323095 -0.005457032 0.30285555 5395016
0.78822231 0.0025112811 0.3083238 1252371
0.79406905 0.004874751 0.30443394 1909789
0.81040001 0.022649191 0.30312899 1976096
0.79400003 0.089478068 0.30108461 9934989
0.79484999 0.095156007 0.30419844 10000781
0.787 0.0054785158 0.31101903 1318166
0.79000002 0.0095029166 0.31066424 1647129
0.78900003 0.01195364 0.3133494 725516
0.79300004 0.089365385 0.31741169 10000012
0.7943334 0.095440574 0.31560117 10000269
0.79200006 0.089252688 0.32072118 9934989
0.79190475 0.095510527 0.32412517 9934989
0.79291999 0.094927147 0.33520183 9869196
0.79425001 0.089506246 0.34673446 9672074
0.79462969 0.095338278 0.34555632 9803660
0.79491168 0.1149753 0.34493685 10000782
0.79500002 0.089590766 0.35357487 9606281
0.79467994 0.095135868 0.35529155 9737867
0.79305863 0.10515206 0.3552219 9803660
0.79303992 0.11536165 0.35455972 9934989
0.79300004 0.08843717 0.36011109 9540488
0.79296649 0.094930664 0.36473772 9737610
0.79278117 0.1051162 0.36523277 9803660
0.79279995 0.11532581 0.36465916 9869453
0.793387 0.12481971 0.3647165 9935246
0.79404163 0.11496191 0.37483796 9803660
0.79271996 0.12459245 0.37483293 9869453
0.7938149 0.13426721 0.37493423 9935246
0.79456007 0.13418381 0.38500205 9869453
0.7929334 0.096659817 0.39361584 9540488
0.7930975 0.13497689 0.39528927 9803660
0.79285008 0.10688903 0.4044953 9540490
0.79294276 0.11518613 0.40404794 9672074
0.78900003 0.12647155 0.40570259 9803660
0.7906453 0.12462308 0.40441608 9737867
0.79052025 0.13535324 0.40525085 9737867
0.79348147 0.14535663 0.40449756 9803660
0.79446155 0.10698382 0.41342589 9606283
0.79469579 0.11487325 0.41524133 9606283
0.79257149 0.12483155 0.41452339 9672075
0.79256529 0.13497762 0.4147709 9737867
