# .PCD v0.7 - Point Cloud Data file format
VERSION 0.7
FIELDS x y z rgb
SIZE 4 4 4 4
TYPE F F F U
COUNT 1 1 1 1
WIDTH 391
HEIGHT 1
VIEWPOINT 0 0 0 1 0 0 0
POINTS 391
DATA ascii
0.45600003 -0.053227503 0.028802026 11776941
0.45228577 -0.044623125 0.028567424 11579562
0.45666674 -0.03299439 0.029556844 13224130
0.45436001 -0.024789348 0.028782902 14540251
0.44542867 -0.013301321 0.027153959 14342615
0.45100003 -0.019070392 0.028275052 14869215
0.44397122 -0.0048869695 0.025557173 14145236
0.44622657 0.0046483167 0.025754275 14277078
0.45040002 0.008370826 0.022121947 13816524
0.44612506 0.015640873 0.026699612 14277080
0.45075002 0.011489409 0.022665869 14539991
0.44658726 0.025092702 0.026112439 14539995
0.45000002 0.029642591 0.02315576 15065821
0.44852182 0.033701129 0.028283065 14079445
0.4523685 0.035683423 0.025141696 13026752
0.44900003 0.04061345 0.029411007 11514024
0.45337504 0.04114189 0.026379481 11447973
0.44609389 -0.073278084 0.037797611 15592167
0.45100006 -0.070944391 0.034116361 15789801
0.44706368 -0.064965025 0.037717354 15592681
0.45229638 -0.064360939 0.033820298 15724778
0.44679484 -0.055155523 0.03800419 15461351
0.45365319 -0.054774296 0.033200525 14671835
0.44480652 -0.044806179 0.038402136 15132386
0.45378453 -0.04553169 0.033430424 15263973
0.43900001 -0.038910661 0.03903304 15066593
0.44410214 -0.034565989 0.037013467 14869215
0.45359471 -0.035069831 0.032319032 15263973
0.43870595 -0.023056831 0.039066661 14737372
0.44417235 -0.025113408 0.035642695 14606043
0.4522084 -0.026013421 0.031692378 14737373
0.43812129 -0.014403895 0.038766567 14672093
0.44338968 -0.015053568 0.033561788 14671581
0.43687233 -0.0046923431 0.037662897 14540252
0.44217315 -0.0052923439 0.03250172 14606045
0.43572462 0.0047954903 0.036735702 14277080
0.44182926 0.0046824086 0.031586356 14342872
0.43526846 0.014833048 0.036757573 14145493
0.44200012 0.015197258 0.031658471 14276823
0.43571198 0.024885913 0.036689822 14474201
0.44238898 0.025201686 0.031678062 14408409
0.43728209 0.034766026 0.037931349 14342872
0.44326672 0.03508148 0.032848589 14013651
0.43842858 0.041050307 0.039274864 12500668
0.44266668 0.040558722 0.034689896 11974575
0.43762967 -0.073128805 0.047064785 16053488
0.4419269 -0.074319951 0.042618651 15986925
0.43581411 -0.065111063 0.046768993 15987695
0.44138876 -0.064839393 0.041739285 15592424
0.43504101 -0.054852922 0.04657593 15658987
0.44147062 -0.055392355 0.041651215 15395558
0.42833337 -0.040638667 0.049447935 14671838
0.43471575 -0.044828359 0.045187201 15395815
0.44062501 -0.047694806 0.040595304 15329765
0.42709377 -0.034576245 0.048719842 14474714
0.43479991 -0.035173666 0.043503124 15066850
0.4251906 -0.025058094 0.048132032 14277335
0.43412679 -0.025154412 0.043225002 14606044
0.4181819 -0.013391584 0.049641132 14145748
0.42426923 -0.015219154 0.047244404 14211285
0.43300006 -0.01516158 0.0427811 14277336
0.41785008 -0.0052459482 0.049378961 14211541
0.42404553 -0.0050076344 0.045783009 14145748
0.4316251 -0.0057989121 0.041752908 14276823
0.41786373 0.0038705545 0.049202632 14145491
0.42374089 0.0049848408 0.045156997 13948369
0.43044436 0.0046729404 0.040735085 13816527
0.42443317 0.014875905 0.045673285 14079700
0.42999998 0.014735532 0.040749405 13948112
0.42630872 0.024622131 0.046150599 14277080
0.43027991 0.025160739 0.04127904 14277335
0.42737842 0.033346664 0.048028592 14474201
0.43210292 0.035832167 0.043752611 14211542
0.43329552 0.042580511 0.045726106 13224388
0.41900003 -0.080296971 0.059324719 14540249
0.41900012 -0.075303368 0.059725989 14935007
0.42321801 -0.074211836 0.055715602 15066593
0.43050006 -0.073346473 0.050958175 15790316
0.41786668 -0.064103581 0.059326727 15264229
0.42425001 -0.065024719 0.05509733 15066850
0.43019998 -0.065659486 0.050671417 15856109
0.41554061 -0.054292802 0.058763698 15263972
0.42418608 -0.054984346 0.053877421 15000801
0.43000001 -0.057742383 0.050312471 15395558
0.4151071 -0.044740509 0.057948865 15000803
0.42401424 -0.045258794 0.052843589 14606299
0.4144232 -0.034804467 0.056785792 14408921
0.42253661 -0.035476871 0.052040298 14408921
0.40864283 -0.024058711 0.058951456 14145750
0.41435724 -0.024906363 0.054672513 14211542
0.42063639 -0.026632225 0.05046995 14277080
0.40775013 -0.014783229 0.058325201 14211542
0.41426319 -0.015078458 0.053410348 14145749
0.40809378 -0.0053884424 0.058435541 14211284
0.41335005 -0.0051888521 0.053674728 14211284
0.40877774 0.0018343311 0.058887277 14013905
0.41307953 0.0052629951 0.054686628 14013905
0.41548374 0.015011071 0.05614255 14145491
0.42056528 0.016575163 0.051048785 14079701
0.41689277 0.024518246 0.057417758 14342870
0.42158931 0.025676861 0.052637696 14408665
0.41782144 0.033917822 0.058597554 14342870
0.4228659 0.035572391 0.054042038 14342873
0.41900003 0.040842514 0.059815161 14342870
0.42407697 0.041984688 0.055073224 13027267
0.43000004 0.043568511 0.050600085 13092800
0.40820003 -0.080138467 0.067828491 14934237
0.41800001 -0.080105335 0.060650948 14671835
0.40694553 -0.074457772 0.067684636 15460581
0.41438109 -0.074958935 0.062916249 15197923
0.40519553 -0.064686932 0.06646505 15592424
0.41358146 -0.06545607 0.061669875 15461351
0.40446365 -0.054843653 0.065484218 15132388
0.41153336 -0.056712385 0.060803097 15263718
0.39833334 -0.042765442 0.069608569 15132133
0.40424383 -0.045174032 0.065066122 15132133
0.41000006 -0.04305898 0.060449984 15066340
0.39835304 -0.034923304 0.069593698 14540252
0.40448672 -0.034860224 0.064624041 14606045
0.41020003 -0.037319202 0.060479473 14803425
0.3982223 -0.024525311 0.069174364 14145750
0.40352347 -0.025198735 0.064102188 14145750
0.39812121 -0.014951453 0.068921112 14013906
0.40225816 -0.014632136 0.064065628 14145749
0.39866671 -0.0088923676 0.069355726 14145491
0.40321615 -0.0049003637 0.064603858 14145491
0.40501595 0.0047094431 0.065122873 14013905
0.41025001 0.0090170512 0.060726799 14145491
0.40629539 0.014723226 0.066766858 14013906
0.41135287 0.015769593 0.061922375 14079698
0.40703079 0.024616303 0.067555763 14342614
0.41215631 0.025206469 0.062586173 14342870
0.40812904 0.033603322 0.068309024 14342870
0.41366675 0.034974702 0.0635003 14342870
0.40900001 0.040346488 0.069877304 13816783
0.41569564 0.041091271 0.0649174 13618890
0.39691666 -0.081407331 0.078417487 14999517
0.40476924 -0.081356481 0.074097447 14868446
0.39552706 -0.074260309 0.076850332 15592680
0.40289792 -0.075658999 0.07217785 15395045
0.39518189 -0.064866446 0.075711824 15724266
0.40017653 -0.065889694 0.070684113 15723753
0.39502972 -0.054883234 0.075096145 15395558
0.40000001 -0.057927676 0.070212476 15329765
0.3945519 -0.045077413 0.075048737 15197926
0.39355299 -0.034883559 0.075050555 14605789
0.39365149 -0.024753077 0.075073451 14079701
0.39452434 -0.014617617 0.075025789 13816528
0.39600921 -0.0053039934 0.075267516 14145491
0.40000007 -0.0026796537 0.070860751 14079698
0.39652792 0.0047092633 0.076436259 13948112
0.40034139 0.0050917789 0.071574479 13948112
0.39711118 0.014758987 0.077176541 13948112
0.40108603 0.015347786 0.072423071 14013905
0.39771739 0.024621526 0.07839103 14342870
0.40194988 0.025410419 0.073380932 14277079
0.39815164 0.034446377 0.078896455 14211286
0.40267652 0.034907266 0.073893182 14079701
0.39850003 0.040243596 0.078811109 11381930
0.40200001 0.040592954 0.075482607 11776944
0.41100001 0.04150594 0.07021901 13487561
0.38883337 -0.080735929 0.088732779 14867931
0.39332509 -0.082074277 0.084658615 14736346
0.38646758 -0.074208297 0.086828925 15592424
0.39202005 -0.076412924 0.082335338 15460582
0.38616183 -0.065203734 0.086153746 15658473
0.39110008 -0.064939797 0.081375241 15789802
0.38813257 -0.055625457 0.086779408 15263459
0.39069998 -0.054093536 0.082205795 15263972
0.38861182 -0.044870555 0.086877383 14934750
0.39039537 -0.045656238 0.081957959 15066338
0.38849199 -0.035282642 0.085416384 13882320
0.39000005 -0.034669001 0.080326132 14605789
0.38849518 -0.025596198 0.08617577 11974580
0.39017245 -0.024187995 0.08124315 13684687
0.38867125 -0.01551595 0.087479338 11119786
0.39072418 -0.015121135 0.082523234 13487821
0.38872731 -0.0053348276 0.087797821 13553611
0.39138967 -0.0053708134 0.082440212 14145491
0.38873804 0.0038535453 0.088494048 13882319
0.39193869 0.0049604657 0.083462074 13948112
0.38900003 0.011053876 0.08922673 13750990
0.39231026 0.014906631 0.084805913 14079698
0.38900003 0.026079699 0.08922673 14342870
0.39298406 0.024903474 0.084826045 14408663
0.3941308 0.035093006 0.085333407 14211540
0.39647061 0.040802233 0.083669499 11842736
0.38455555 -0.081577964 0.094723433 14539224
0.37840918 -0.073646203 0.098090887 15461094
0.38209674 -0.075383343 0.093626738 15263459
0.37845469 -0.067103229 0.098673433 15329765
0.38172877 -0.064448573 0.094139829 15461094
0.38442227 -0.055193596 0.095106483 15197922
0.38607451 -0.045066711 0.094875835 14868445
0.38617203 -0.035094373 0.094944216 11842224
0.38431138 -0.024972811 0.095140986 2501674
0.38447461 -0.015263127 0.09521886 3027761
0.38592935 -0.0052618948 0.095093742 12566716
0.38538972 0.0047566253 0.095058016 13750990
0.38596717 0.014929221 0.095091499 14013905
0.3852565 0.0249872 0.095097117 14277077
0.38582072 0.03459033 0.095123582 14211285
0.39014289 0.037964918 0.090663053 14145489
0.38590002 0.040775143 0.097264752 11382185
0.39033332 0.040332641 0.09135934 13092545
0.37725005 -0.081200667 0.10595256 14736344
0.38091671 -0.082213931 0.10156465 14012879
0.3751168 -0.074866325 0.10522321 15131617
0.38000003 -0.079643197 0.10080269 14472919
0.3754212 -0.065056317 0.10517153 15263972
0.38000003 -0.06066535 0.10080269 15461351
0.37781829 -0.056601025 0.1071758 15066593
0.38133731 -0.053855348 0.10324266 15066594
0.38272852 -0.044987246 0.10490739 15131873
0.38297871 -0.034875203 0.10490856 11118755
0.37813935 -0.023835992 0.10662262 2304806
0.38101748 -0.026168473 0.10265072 2304808
0.37810671 -0.015985852 0.10655265 2239015
0.3808305 -0.013594772 0.1029145 3423033
0.38231379 -0.0052802567 0.10492496 11382185
0.37847379 0.0070695649 0.1081223 13290180
0.38107979 0.0044651781 0.10379573 13487560
0.37778223 0.015593326 0.1059228 13816525
0.38102624 0.013783508 0.10155053 13882319
0.37704474 0.024653807 0.10561927 14079442
0.38038895 0.025750861 0.10095496 14277077
0.37599084 0.034606915 0.10588788 14145747
0.3811579 0.035888303 0.10139772 14211285
0.37524998 0.040309217 0.10736029 11316391
0.38249999 0.040643409 0.10116445 11842736
0.37366667 -0.080356918 0.11107691 14342100
0.37122238 -0.074196905 0.11279973 13684941
0.37244132 -0.064811297 0.113661 13684940
0.37626177 -0.054661464 0.11443928 14013905
0.37873012 -0.046922725 0.11632597 14013649
0.38047928 -0.043276168 0.11354056 14605528
0.37865007 -0.031212578 0.11614715 3092783
0.38096008 -0.035702176 0.11480492 10987170
0.3754378 -0.02483353 0.11512347 2107683
0.37552771 -0.014791765 0.11501646 3027757
0.3783381 -0.005153148 0.11606904 9145991
0.38043994 -0.0058798408 0.11235982 10461338
0.37740591 0.0048755351 0.11342752 11053219
0.3758249 0.014945062 0.11290421 10856097
0.37646055 0.024512701 0.11324339 10329496
0.38000003 0.029479455 0.11740831 11053470
0.37666047 0.033969108 0.11282022 10790308
0.3806667 0.03131425 0.11761428 9277062
0.37800002 -0.051025055 0.12068395 11250855
0.37887499 -0.045997668 0.12083033 10988452
0.38000005 -0.042675924 0.12086782 10527133
0.37683335 -0.031343561 0.12054502 3619123
0.38055006 -0.036980465 0.12096345 8355190
0.37350002 -0.025604265 0.12057307 2041376
0.37375006 -0.015186462 0.12065384 3093806
0.377 -0.0087035196 0.12001164 9408902
0.36544445 -0.03086994 0.13724285 2041372
0.36487508 -0.027352925 0.13803557 2107168
0.36400005 -0.015646508 0.13973297 3158570
0.36547831 -0.031129619 0.14543664 1317907
0.36439851 -0.024976546 0.14515342 1186065
0.36338931 -0.01582131 0.14515769 1908247
0.36333871 -0.032393001 0.15635449 2632740
0.36443341 -0.025541894 0.15525021 725514
0.36377943 -0.015234564 0.15492859 2300691
0.36115691 -0.032143112 0.16369005 1712151
0.36218995 -0.024800649 0.16505878 1186065
0.36369658 -0.016034296 0.16505468 1512975
0.34515688 -0.033330422 0.17834467 1580823
0.35590696 -0.032087814 0.17633401 791308
0.36180013 -0.032727934 0.17282888 1580565
0.34644434 -0.02541469 0.17884406 1448981
0.35577467 -0.024958972 0.17573084 988687
0.36019999 -0.02522986 0.17123246 1580567
0.34714818 -0.01704305 0.1792222 1382930
0.35467005 -0.016503796 0.17701678 856843
0.36064515 -0.016740171 0.17183354 1316881
0.35500002 -0.0098577449 0.17949323 7633009
0.33892009 -0.032738071 0.18907173 1514775
0.34181032 -0.033490278 0.18420877 1515031
0.3389231 -0.024623614 0.18846864 1580053
0.34190696 -0.025093237 0.18337733 1514517
0.33859187 -0.01711821 0.18788943 1383187
0.34165263 -0.016771371 0.18297841 1448468
0.35333335 -0.011457981 0.18057407 725516
0.35600001 -0.0098855132 0.18124893 462344
0.33821437 -0.033032577 0.19091283 1449750
0.33841664 -0.025131498 0.19098002 1514260
0.33800003 -0.017873792 0.19103907 1645846
0.79700005 0.099145107 0.24998005 10658967
0.79700005 0.10287669 0.24998005 10856346
0.79700005 0.11966881 0.24998005 10394770
0.79700005 0.1215346 0.24998005 10000784
0.79611111 0.15535758 0.24866602 10592920
0.79518187 0.16390367 0.2483944 10592921
0.79700011 0.17377675 0.24998005 10592921
0.79720008 0.088345587 0.25862733 10066575
0.79702872 0.11487249 0.25478411 10461077
0.79529172 0.12484259 0.25518376 10527128
0.79757696 0.15508474 0.25554758 10592920
0.79596299 0.16464671 0.25503922 10592921
0.79443759 0.08789964 0.26451424 10000782
0.79548305 0.095105149 0.26516864 10198161
0.79700011 0.10474247 0.26490644 10263954
0.79683357 0.11497954 0.26485178 10329747
0.79691994 0.125255 0.26488346 10395541
0.79631031 0.15511087 0.26544529 10527128
0.7958889 0.16401346 0.26495025 10527128
0.79300004 0.088746957 0.27316961 10000782
0.79519987 0.095200926 0.27510703 10066575
0.79484624 0.15455586 0.27513927 10461334
0.79625016 0.16449536 0.27524179 10461335
0.79659998 0.089771077 0.28528872 9934989
0.79752398 0.14677173 0.28535089 10329747
0.79404014 0.15454219 0.28436959 10395540
0.79568017 0.16417825 0.28495654 10461334
0.79700005 0.089816153 0.29102746 9869198
0.79675013 0.096082769 0.29489613 10066576
0.79603046 0.10512076 0.2955794 10066577
0.79396963 0.1149873 0.29430687 10198162
0.79524142 0.12486465 0.29519325 10263955
0.7966001 0.1550395 0.2946144 10329748
0.79700011 0.16444996 0.29476127 10461334
0.79500002 0.089590766 0.30146381 9606024
0.79554999 0.095798969 0.30484065 9935246
0.79492325 0.105041 0.3048031 10066575
0.79478556 0.11501591 0.30530909 10066832
0.79512519 0.12481784 0.30508333 10132626
0.81000006 0.20884709 0.30809993 2499349
0.79542863 0.088840112 0.31625333 9803661
0.79637039 0.095271885 0.31578842 9935246
0.79764289 0.16517822 0.31467167 10329748
0.7948966 0.17498361 0.31502622 10395542
0.79462504 0.18459682 0.31486073 10395542
0.79772216 0.19333723 0.31618878 10395285
0.81100005 0.20910493 0.31512526 2236436
0.792 0.089252688 0.32257366 9803662
0.79254168 0.095808297 0.32418385 9934989
0.7959286 0.1043394 0.32510263 10000782
0.79730433 0.17513885 0.32441354 10264213
0.79655558 0.18455815 0.32505572 10329749
0.79455554 0.095845424 0.33539894 9869197
0.79682618 0.10464115 0.33500525 9869453
0.79566669 0.089665897 0.34828258 9737869
0.79684633 0.095326051 0.34528497 9803661
0.79700005 0.17531088 0.34540483 10132627
0.79658067 0.1845146 0.3449479 10198419
0.79476929 0.095720738 0.35475433 9672589
0.79703581 0.10448281 0.3554092 9869453
0.7973333 0.1744712 0.35503027 10066834
0.79718757 0.18513252 0.35396704 10132626
0.79347372 0.09606836 0.36423874 9672074
0.7963751 0.10458554 0.36483034 9737868
0.79646677 0.13481425 0.36441961 10001039
0.79622865 0.14485097 0.36429071 10001039
0.7960335 0.15493011 0.36428019 10001039
0.797207 0.1643644 0.36465779 10001039
0.79704016 0.15512589 0.37500885 10001041
0.79725015 0.1649666 0.37530351 9935248
0.79710007 0.15513583 0.38529497 9869455
0.79500008 0.16474435 0.38455427 9935248
0.79540002 0.17529215 0.38447422 9935248
0.79500002 0.098099031 0.39584762 9540490
0.796143 0.1048308 0.39448401 9540746
0.79663652 0.16488065 0.39423311 9869455
0.79731828 0.17520425 0.39490902 9869455
0.79607147 0.10661767 0.4041045 9541003
0.79703355 0.11501098 0.40485829 9606796
0.79396009 0.10701763 0.41547683 9475210
0.79570287 0.11499553 0.41474828 9540747
0.78857881 0.10616222 0.42436701 9409674
0.79000002 0.10937075 0.42162848 9278088
0.78900003 0.11223379 0.42617422 9409418
0.79100013 0.11614598 0.42362401 9475211
0.79406071 0.124864 0.42451942 9541003
0.79616231 0.13475698 0.42516056 9737869
0.78900003 0.11107937 0.4303301 9540490
0.7912941 0.11576283 0.43441704 9540747
0.79323816 0.1245875 0.4341476 9606539
0.79439127 0.13488416 0.43408105 9540747
0.79596007 0.14552669 0.43442428 9672076
0.7969631 0.15531999 0.4342573 9737869
0.79691422 0.16506857 0.43448308 9737612
0.79730773 0.17513607 0.434569 9803406
0.79766655 0.1847527 0.43586174 9868942
0.79772222 0.19354337 0.43664062 9473670
0.79630005 0.11732803 0.44344836 9540489
0.79752636 0.16514447 0.44382623 9606540
0.79561549 0.17490451 0.44482693 9672076
0.79421878 0.18467477 0.44549176 9671821
0.79675007 0.17417933 0.45087686 9606796
