# .PCD v0.7 - Point Cloud Data file format
VERSION 0.7
FIELDS x y z rgb
SIZE 4 4 4 4
TYPE F F F U
COUNT 1 1 1 1
WIDTH 394
HEIGHT 1
VIEWPOINT 0 0 0 1 0 0 0
POINTS 394
DATA ascii
0.42400002 -0.060410745 0.039684523 11513769
0.42122224 -0.055091035 0.039424531 11447976
0.41670004 -0.045235123 0.039390121 13092801
0.40816668 -0.031401299 0.038998146 15329760
0.41235715 -0.036553863 0.039077051 15000538
0.40465516 -0.024831846 0.038853683 15132126
0.40215161 -0.014933902 0.038580615 15066334
0.40341383 -0.0052048299 0.03873419 14540249
0.40700006 0.0016830522 0.039402906 14277331
0.41600001 0.0098733855 0.03990962 10724255
0.44900009 -0.11320002 0.047936942 16250353
0.44878954 -0.10500108 0.04764415 16119024
0.44586372 -0.094917946 0.047823049 15921387
0.43679175 -0.082602672 0.048163887 15855594
0.44155002 -0.087256536 0.047216542 15855337
0.42874998 -0.070622489 0.047404401 15592166
0.43176779 -0.074900307 0.04582718 15723751
0.42558613 -0.064768113 0.045461442 15592165
0.41676596 -0.053093124 0.046806082 15658215
0.42137048 -0.056531835 0.043765739 15526373
0.40849999 -0.042603545 0.048632886 15527142
0.41393614 -0.045458402 0.044255506 15592422
0.40553606 -0.034365278 0.04560966 15263714
0.41116676 -0.037621584 0.041637123 15460578
0.39853334 -0.0221393 0.04855844 14869470
0.40186614 -0.025371337 0.044722743 14869212
0.39794564 -0.014708851 0.047473941 14803677
0.40045449 -0.014927782 0.042649128 14869212
0.39841181 -0.0074409731 0.04837127 14935521
0.40143019 -0.0045828922 0.044417996 14408919
0.40614823 0.003238841 0.045471214 13816783
0.41227275 0.008413014 0.044517692 13619147
0.41707402 0.013139669 0.045722101 12895424
0.42112008 0.018002681 0.045804437 13290181
0.42400002 0.020981766 0.045640074 12434616
0.43550006 0.026860509 0.04911948 13619402
0.43900001 0.030973408 0.049310111 11579562
0.44000003 0.032074012 0.049422435 11316644
0.44897074 -0.12214721 0.055870499 15658218
0.4478555 -0.11518752 0.055017274 15921903
0.44429561 -0.10493594 0.054595925 15461095
0.43756887 -0.094068699 0.056051824 14803164
0.44154844 -0.097189248 0.052824624 15658472
0.43310335 -0.085024394 0.055363659 14869213
0.42558673 -0.073782526 0.055435639 14540248
0.43054995 -0.078429073 0.052894361 15066335
0.41725639 -0.062308189 0.05618228 14474199
0.4214465 -0.066427775 0.054010876 14802907
0.40891662 -0.05124177 0.057577595 14671835
0.41272941 -0.055231262 0.054558419 14737371
0.40680426 -0.044763502 0.055232592 14540249
0.41075003 -0.049027454 0.0511842 14934750
0.39863634 -0.031346075 0.05826484 14211541
0.40183669 -0.035471272 0.054643013 14408663
0.39687142 -0.02454423 0.055160288 14343127
0.40008339 -0.028983308 0.051885039 14277077
0.39534104 -0.014679801 0.055044059 14343127
0.39662129 -0.0052212309 0.055012222 14079956
0.40000004 -0.0013419294 0.051484339 14146519
0.39900002 0.00012924365 0.057894088 13290699
0.40411723 0.00488804 0.054974131 13159625
0.41100001 0.0097547146 0.051455162 13487819
0.40887499 0.011020517 0.057771031 12369854
0.4143948 0.014697763 0.054672919 12830147
0.42025006 0.019812383 0.058270618 12633025
0.42588466 0.022727966 0.055424549 13356747
0.4329575 0.027212774 0.05479271 13225416
0.43806067 0.032120917 0.055725243 13422796
0.44231257 0.036801089 0.05542079 13620173
0.44751859 0.042519812 0.056669369 13883089
0.45215002 0.047253244 0.057138462 14277333
0.45742854 0.051934667 0.057500161 14408662
0.46222225 0.056900937 0.05865154 13619145
0.46400002 0.06097931 0.059721831 13487561
0.44889131 -0.12294316 0.065247364 14868701
0.44573557 -0.11453785 0.065033302 15658474
0.43900004 -0.10057308 0.067808829 14934752
0.44219458 -0.10525178 0.064763755 15197666
0.43651721 -0.094763413 0.064991064 14934494
0.44000003 -0.099772125 0.061783012 15131616
0.42881814 -0.080353387 0.065869868 14803164
0.4316836 -0.085293658 0.065001637 14868701
0.42465067 -0.07482741 0.064990275 14671578
0.41710529 -0.063509934 0.065145373 14277077
0.42069465 -0.068475969 0.064953633 14539992
0.408535 -0.051958535 0.065126754 14408663
0.41201633 -0.057206396 0.065016732 14342870
0.4052636 -0.044978742 0.065031655 14474712
0.39751667 -0.032755237 0.065648861 14211284
0.40085998 -0.037503049 0.064204454 14342870
0.39482543 -0.024725484 0.064898551 14079955
0.39307827 -0.014834794 0.065192871 14080213
0.39524373 -0.0052899369 0.065050036 13750992
0.3985264 0.00052238128 0.065484554 12961989
0.40372217 0.0058798459 0.064711899 12435903
0.40841672 0.011247645 0.065354973 12106682
0.41388679 0.015394589 0.064600691 12304061
0.42044449 0.019712303 0.065054037 12567233
0.4246389 0.02420067 0.064997584 12303805
0.4305625 0.028929599 0.064865969 12698304
0.43595156 0.033649106 0.065145366 13159110
0.44112501 0.038568459 0.064044662 13554125
0.44583923 0.043616656 0.065709256 13685197
0.45191678 0.048108086 0.063806087 14146003
0.45672917 0.053146977 0.06564264 14409175
0.46178386 0.057886042 0.064312659 14474712
0.46489808 0.063765951 0.065876596 14079695
0.44812766 -0.12259746 0.07533104 15131361
0.44506982 -0.11471555 0.074992977 15329252
0.43860719 -0.1016938 0.07614363 15000288
0.44157898 -0.10628211 0.074570052 15131873
0.43498844 -0.094852358 0.074862942 14868702
0.42770219 -0.082648873 0.075455099 14737114
0.43063644 -0.087454744 0.0746492 14737115
0.42360237 -0.075359359 0.074842267 14605529
0.41635534 -0.064382419 0.075132035 14605529
0.42017651 -0.069181852 0.074100271 14539736
0.40790755 -0.05290363 0.075593844 14802651
0.41160974 -0.05784997 0.07488016 14605529
0.39863634 -0.041017249 0.077776581 14802908
0.40254655 -0.045161806 0.07461635 14737115
0.39604422 -0.034636606 0.075376585 14540249
0.40000004 -0.038664442 0.07114888 14277077
0.39266941 -0.024805143 0.075094394 14211285
0.39194515 -0.01501241 0.075220853 13948116
0.39390153 -0.005401873 0.075048722 13554128
0.39800009 0.00062004069 0.075449921 12896198
0.40400004 0.0056947391 0.074967004 12435903
0.40862498 0.01113339 0.073880605 12238523
0.41352382 0.014551108 0.075698435 12106680
0.4215 0.019308465 0.075252727 12501438
0.4260923 0.023869568 0.074959897 12303803
0.43066669 0.028514422 0.076124273 12829889
0.43645242 0.032697078 0.074638315 13093060
0.44195125 0.037620343 0.075281285 13224646
0.44675407 0.044061165 0.07458166 12895682
0.45099998 0.048819486 0.076263465 12764352
0.45564857 0.054977592 0.075049169 13290696
0.46000001 0.059376758 0.071052529 14080723
0.45900002 0.060322206 0.077345245 14013905
0.46238354 0.06498412 0.074947745 14408661
0.46400011 0.072352797 0.077676617 14935261
0.44541931 -0.12354097 0.085075408 15460325
0.44183353 -0.11472109 0.084732123 15657704
0.43753514 -0.10438388 0.085410066 15394534
0.44008335 -0.10846236 0.082485028 15394789
0.43292469 -0.095103897 0.084998511 15263204
0.4261342 -0.084263146 0.085412115 15000031
0.42999998 -0.088832006 0.082679749 15065823
0.41742498 -0.072813548 0.086777061 14934237
0.4216722 -0.076378323 0.083898932 14934237
0.40811536 -0.061933234 0.087178469 15000030
0.41360003 -0.065885104 0.08431194 15000030
0.40407354 -0.054822814 0.08518067 14868701
0.41033337 -0.059104204 0.080991618 14934237
0.397012 -0.043861408 0.08575172 14737628
0.40046865 -0.048006658 0.083036624 14934494
0.39298421 -0.034839343 0.085074984 14473943
0.389 -0.02304513 0.089024357 7169120
0.391047 -0.024972664 0.084614962 13750477
0.38899997 -0.017246513 0.088876478 8682105
0.39057267 -0.014954008 0.084613383 13618893
0.3930324 -0.0053752987 0.085128486 13356749
0.39741385 0.0010607778 0.084545277 12501696
0.40359733 0.0064029596 0.084886491 12435646
0.40853849 0.011425857 0.085431144 12172988
0.41344658 0.015336747 0.084040798 12370111
0.421 0.019683871 0.083265044 12435901
0.42651224 0.023596641 0.084683746 11909557
0.43119448 0.027986076 0.085447177 12041143
0.43670461 0.032629739 0.084599368 12304059
0.44258144 0.03771257 0.085058764 12369852
0.44746801 0.043031652 0.085052401 12829888
0.45151615 0.047884744 0.084403455 13027523
0.45669571 0.054482482 0.084811635 13356232
0.46000001 0.059069078 0.08766707 14606299
0.46228054 0.064995632 0.084840029 13882575
0.46400002 0.07213407 0.08341004 13158339
0.43900001 -0.12044207 0.09932518 15526121
0.44354948 -0.12396317 0.095192879 15657706
0.43747985 -0.11353996 0.096919373 15591913
0.44111624 -0.11655065 0.093133718 15723497
0.42900002 -0.10029071 0.099406004 15460328
0.43468034 -0.10512983 0.095031433 15460328
0.42663637 -0.093293734 0.096436813 15328741
0.43123686 -0.096857928 0.093251258 15394535
0.41835302 -0.08144071 0.09618827 15065823
0.42268494 -0.085985065 0.0948039 15065825
0.40900001 -0.070960134 0.098840967 14736858
0.41465008 -0.075163811 0.09473341 14868444
0.42000002 -0.079505384 0.090437971 14934237
0.40606385 -0.064305454 0.09561155 14605786
0.41126668 -0.06822513 0.092149965 14802908
0.3985295 -0.051019672 0.097557411 14539226
0.40130863 -0.05546578 0.094625369 14605531
0.39525673 -0.044705387 0.095053285 14473689
0.38848484 -0.032091822 0.09676744 10197912
0.39121687 -0.036168519 0.094355598 13684429
0.3856115 -0.025040619 0.094751328 2830382
0.39000002 -0.029089577 0.090369098 6644066
0.38576245 -0.015330596 0.094711438 3488054
0.39000002 -0.010829636 0.090369098 13158343
0.38867995 -0.0090090334 0.096758433 13027522
0.39210412 -0.0045485147 0.094575822 12830662
0.39725006 0.001370912 0.095458269 11975609
0.40261531 0.0064957035 0.094790407 11843766
0.40782762 0.012019148 0.096212842 11778230
0.41460976 0.016454853 0.095165372 11975096
0.42037502 0.019695371 0.095068783 11777717
0.42490745 0.02324578 0.094450042 11909304
0.43150002 0.028271778 0.09481445 12304060
0.43710354 0.032007527 0.094646603 12238268
0.44342315 0.037182275 0.094903164 12238266
0.44856012 0.042149618 0.094530925 12369594
0.45293617 0.046625983 0.095389172 12566715
0.45810521 0.053416476 0.094637312 13093316
0.46064007 0.058381937 0.095611662 13224645
0.46305773 0.063630618 0.094667315 12698558
0.43861535 -0.12265453 0.10595129 15394789
0.44022208 -0.1265602 0.10443772 15394789
0.43439287 -0.11504723 0.10463353 15394789
0.42724007 -0.1029231 0.10603529 15262948
0.43059582 -0.10735629 0.10391196 15394533
0.41900003 -0.090105839 0.10984038 14868444
0.4233838 -0.095009938 0.10492209 15197409
0.41606066 -0.083577164 0.10563915 14868700
0.42109388 -0.087723702 0.10302478 15065823
0.40820003 -0.071969368 0.10578883 14539736
0.41201645 -0.076859742 0.10480953 14671322
0.40376192 -0.065027706 0.10492985 14474199
0.39730006 -0.053541232 0.10565044 14342357
0.40027264 -0.057882581 0.10377956 14342614
0.39278558 -0.044830978 0.10484531 14276566
0.3871628 -0.033745605 0.1055361 10592414
0.39008334 -0.038265951 0.10343888 14144467
0.37847373 -0.023240702 0.10821527 2436134
0.38150007 -0.025395129 0.10373235 2501674
0.37842867 -0.016684124 0.10813836 2501930
0.38200989 -0.014725383 0.10370648 3290932
0.38763937 -0.0079632308 0.10545273 13028037
0.39214927 -0.0031014842 0.10464922 12370110
0.39709762 0.0014693456 0.10489209 11580853
0.40269333 0.0067501846 0.1050234 11383472
0.40751168 0.012026332 0.1048088 11646901
0.41349062 0.017056363 0.10521584 11777974
0.4179 0.021071557 0.10749589 11909816
0.4246071 0.024661371 0.1050899 12172730
0.43027773 0.028623709 0.10361874 12370108
0.43560719 0.031867586 0.10443121 12567231
0.4449788 0.037609048 0.10518809 12764353
0.44900003 0.041822236 0.10545932 12238010
0.45344645 0.046424888 0.10489539 12961989
0.45844114 0.05210644 0.10502669 13422540
0.46223405 0.05736775 0.10508297 13422284
0.46529999 0.063139856 0.10485133 12566717
0.44 -0.13067357 0.11637554 14802650
0.43806645 -0.12433399 0.11550657 14803164
0.44000003 -0.12890777 0.1124761 15197409
0.43303797 -0.1149623 0.11496608 14737628
0.42626661 -0.10428929 0.11491084 14342614
0.43000001 -0.10949271 0.1148288 14605786
0.41856259 -0.091420606 0.11603267 13750477
0.42133808 -0.095878668 0.11449615 14210771
0.41506335 -0.085567169 0.11487142 13816014
0.40808013 -0.072627574 0.114259 13553097
0.41112241 -0.07774853 0.11555436 13355718
0.40364712 -0.065181606 0.11401678 13619147
0.3972564 -0.05459236 0.11406034 12961217
0.40000007 -0.05963023 0.1148195 12961217
0.38900003 -0.040853515 0.11654641 11908529
0.39196432 -0.044910911 0.11361911 12829632
0.38678485 -0.035672855 0.11353094 11579565
0.39000002 -0.039132543 0.11045504 13487561
0.37751225 -0.024281912 0.11178865 2304806
0.3806667 -0.028987644 0.11152413 2502185
0.37731576 -0.015587491 0.11169636 2370858
0.38100001 -0.011343228 0.11172695 8620680
0.38724002 -0.0065924926 0.11331599 12501697
0.39147374 -0.0022822251 0.11188311 11909304
0.39700001 0.0013991302 0.11133727 11580338
0.40315214 0.0068288012 0.11321714 11382959
0.4079375 0.01147364 0.1133265 11580594
0.4146291 0.016598009 0.11471106 11515057
0.42000002 0.019800596 0.1199348 11711924
0.41787502 0.021045916 0.11272573 11844279
0.42418751 0.02366961 0.11696927 11844279
0.43099999 0.028140759 0.11727349 11975865
0.43540001 0.031674389 0.11685145 12304571
0.4454419 0.037741259 0.11466116 12567486
0.44900012 0.042115051 0.11481428 12501693
0.45244446 0.046544235 0.11493453 12961989
0.45790911 0.051832754 0.11532922 13028039
0.46160412 0.056886584 0.114813 12633279
0.46480003 0.061956011 0.11216084 12698047
0.43773532 -0.12437145 0.1220739 13027010
0.43307689 -0.11497974 0.12175607 12632253
0.42688891 -0.10441341 0.1212344 12303544
0.43000001 -0.10933256 0.12203541 11777200
0.41850001 -0.091468476 0.12048618 11842993
0.42273328 -0.096784957 0.12144135 11185062
0.41462502 -0.08408089 0.12058057 11119272
0.41174999 -0.07638222 0.12095235 10197913
0.40850002 -0.067287832 0.12047609 11579564
0.41000003 -0.068974048 0.12091848 11579564
0.41785717 0.016906071 0.1208606 10922662
0.42025006 0.019074962 0.121728 11251626
0.42449999 0.023256617 0.12163027 11317421
0.43099999 0.028280728 0.12116984 11449521
0.43583333 0.033024415 0.12201668 11646384
0.44509095 0.038229559 0.12122419 11843508
0.44900003 0.041139007 0.12243486 11975349
0.45447281 0.046117488 0.12500492 11975094
0.4586738 0.053114623 0.12439659 12238009
0.46012503 0.057238862 0.12290958 12369080
0.3705 -0.031104485 0.14873388 1318166
0.36610004 -0.023545515 0.14839441 791307
0.37 -0.029041432 0.14954312 1449492
0.36400014 -0.016072575 0.14825432 1776405
0.36445013 -0.032327052 0.15619759 2829091
0.37064281 -0.031364463 0.15151669 1712408
0.36541307 -0.025090331 0.15531346 725771
0.37 -0.028752705 0.15127549 1515027
0.36407813 -0.015417228 0.15525988 2365970
0.36205462 -0.032414235 0.16362837 1975067
0.3621664 -0.02477194 0.16501616 1317393
0.36321765 -0.01587696 0.16472797 1776146
0.34457162 -0.032931596 0.17778322 1646873
0.35551998 -0.031544298 0.17597792 988691
0.36243647 -0.033131357 0.17305093 1449237
0.3451387 -0.024932019 0.17815271 1515286
0.35555202 -0.024972588 0.17572545 923408
0.3606227 -0.025004344 0.17190151 1647130
0.34639996 -0.016898934 0.17807724 1383703
0.35597724 -0.01774767 0.17628206 725775
0.36130247 -0.016324155 0.17246947 1251860
0.33779249 -0.03369873 0.18781403 1777944
0.34140903 -0.033395603 0.18335852 1777946
0.33802289 -0.025021151 0.18762422 1580824
0.34125227 -0.025078245 0.18295673 1646616
0.33808467 -0.016846044 0.18722224 1580310
0.34174317 -0.017240578 0.18246694 1514774
0.33699995 -0.03323599 0.19048339 1712409
0.33699992 -0.025136378 0.19050972 1646616
0.33699998 -0.01782091 0.19047384 1580310
0.80900002 -0.0073134839 0.24806222 10921632
0.81100005 -0.0038043186 0.24623446 11448234
0.81459999 0.0033160835 0.24748889 2567464
0.81500006 -0.020723233 0.25944164 10066834
0.81311756 -0.014405159 0.25638336 9869199
0.81325006 -0.0054451446 0.25412875 9605771
0.81500006 0.00482501 0.2547985 2567207
0.80900002 0.018253945 0.25279692 2107426
0.81200004 0.015148778 0.2562702 2238501
0.81766671 -0.020791039 0.2641212 10066834
0.81780005 -0.015816255 0.2633974 9869455
0.82020009 -0.01432659 0.2676256 9803662
0.81814295 -0.0063005397 0.2609899 8948095
0.82083333 -0.0051776338 0.26642424 8026479
0.81862503 0.0069715991 0.26155424 2370088
0.82054543 0.0043684244 0.26609734 2566695
0.80850005 0.019189019 0.26778179 1777951
0.8142609 0.015422152 0.26500568 2304039
0.82099986 -0.015109867 0.27480546 9738126
0.82156014 -0.0055032726 0.27499196 7829873
0.80850005 0.0097254533 0.27913809 2107429
0.8161177 0.0074538975 0.27619916 2239012
0.82073683 0.0032984558 0.27390769 2501414
0.81292301 0.013581012 0.27238882 2107683
0.82085717 -0.021146731 0.28463942 9935248
0.82049978 -0.015101214 0.28520095 9672333
0.81862503 -0.0028495563 0.28718516 5067598
0.82018179 -0.0064549651 0.28413126 8553856
0.80790907 0.0086857434 0.28503779 2238757
0.81445837 0.0031182023 0.28500471 2633000
0.82000005 0.00026561352 0.28022966 2895662
0.81425005 -0.020704161 0.29779166 9803661
0.81999999 -0.021490248 0.29238734 9935248
0.80850005 -0.012988274 0.29901215 9343109
0.81504011 -0.014923207 0.29684186 9606025
0.82000011 -0.015811328 0.29246736 9737869
0.80742866 -0.0046017556 0.299155 6513755
0.81455183 -0.0053275521 0.29473051 7106150
0.82000005 -0.0093325609 0.29174748 9408650
0.80739266 0.0058643376 0.2966423 2304548
0.81133336 0.0023190004 0.29293531 2764842
0.80795836 0.015236814 0.29487264 2239012
0.81000006 0.019224621 0.29956692 2304548
0.80850005 0.022501558 0.29191476 790540
0.81016678 0.024285955 0.29551992 2238240
0.80757129 0.014127772 0.3049686 2172962
0.81 0.018908584 0.30493954 2173219
0.81200004 0.023709491 0.30548155 2304548
0.80825007 0.021075211 0.31500071 1910047
0.81140006 0.023819555 0.31185812 1976096
