# .PCD v0.7 - Point Cloud Data file format
VERSION 0.7
FIELDS x y z rgb
SIZE 4 4 4 4
TYPE F F F U
COUNT 1 1 1 1
WIDTH 1092
HEIGHT 1
VIEWPOINT 0 0 0 1 0 0 0
POINTS 1092
DATA ascii
0.78900003 -0.074550487 0.10894111 11118234
0.78900003 -0.065315172 0.1089411 13091767
0.78744447 -0.054026894 0.10831457 13618365
0.78569251 -0.044667479 0.10692023 13289401
0.79235715 -0.04545372 0.10171723 11315870
0.78519237 -0.034881637 0.10670821 13420730
0.7919001 -0.034966208 0.1009979 11052698
0.77900004 -0.024366984 0.10938401 12893872
0.78608012 -0.024991192 0.10529045 12631469
0.7911666 -0.02752615 0.10090429 10855573
0.77766663 -0.015225351 0.10919678 13552572
0.7852143 -0.015040529 0.10492937 13092276
0.7778334 -0.0046040965 0.10891625 13026229
0.78538102 -0.0056999228 0.1051069 12829620
0.79100007 -0.0034472707 0.10088322 10132365
0.77675009 0.0057093948 0.10861216 13092280
0.78481823 0.0045158286 0.10534985 12632500
0.79133338 0.0048884223 0.10092536 10132367
0.77666664 0.014189216 0.10875243 12500657
0.78515792 0.015151086 0.10549998 12764085
0.79260004 0.015101368 0.10108636 10131853
0.77741671 0.024820609 0.10825005 13158329
0.78611112 0.02509856 0.10485693 12501171
0.79272723 0.024887478 0.10118684 9934217
0.77709997 0.034817316 0.10820609 13289659
0.78606677 0.035219289 0.10485072 12238000
0.79263645 0.035005331 0.1010068 9606023
0.77699995 0.044816867 0.10819214 13355709
0.78582358 0.045053091 0.10492696 12501171
0.79160011 0.044731542 0.10095929 9737352
0.77750003 0.054857034 0.10826179 13487039
0.78649998 0.055144764 0.10479365 12237999
0.79150003 0.05491681 0.10094661 9999754
0.77787501 0.063987643 0.10877012 13487039
0.78545457 0.065612562 0.10518436 12435121
0.79079998 0.063199572 0.10104289 9934218
0.77860004 0.07498499 0.10932784 13552832
0.78638464 0.074882694 0.10496175 12171693
0.79066676 0.079231136 0.10114934 10000011
0.77900004 0.085052192 0.10938401 13552832
0.7865001 0.084950455 0.10582825 12763829
0.79119998 0.085459039 0.10090876 10131596
0.77900004 0.095082298 0.10938402 13816004
0.78620833 0.095041029 0.10578824 13027002
0.79139996 0.094741717 0.10093424 10198160
0.77900004 0.10055325 0.10938401 14079176
0.78621757 0.10516771 0.1063882 13552833
0.79108328 0.10489137 0.10089397 10395283
0.78850007 0.11223996 0.10764109 13749698
0.79191667 0.11581715 0.1038553 10658455
0.78833342 -0.15292175 0.11899853 13485502
0.78682351 -0.14471997 0.11741264 15658210
0.79207152 -0.14516999 0.11293892 12829370
0.77700001 -0.13131976 0.11940911 15262937
0.78575003 -0.13531198 0.11657916 15592417
0.79170007 -0.13504128 0.11209246 12303539
0.77645457 -0.12467437 0.11877394 15131608
0.7854445 -0.12498224 0.11518542 14408401
0.79128569 -0.12650113 0.11163751 12040367
0.77605891 -0.11484574 0.11815826 15197144
0.7859413 -0.11500971 0.11392598 13750728
0.79000002 -0.11533186 0.11092859 11908524
0.77593344 -0.1051046 0.11803248 15065558
0.78538895 -0.10474897 0.11364567 13750468
0.79000002 -0.10577661 0.11092857 11973801
0.77533329 -0.095039994 0.11794215 14802385
0.78559089 -0.094875455 0.11289267 13552831
0.77553338 -0.08507812 0.11797256 14407627
0.78486371 -0.08476451 0.11312246 14079174
0.77649999 -0.07518661 0.11812002 13618110
0.78500003 -0.075091742 0.11297639 14079173
0.77666676 -0.064899869 0.11753918 13683902
0.78450006 -0.065309487 0.11235404 14473930
0.77589273 -0.054888763 0.11646957 13420217
0.78310001 -0.055479892 0.11124001 14407880
0.77650017 -0.045193411 0.11539202 13617595
0.77680564 -0.035209533 0.11543747 13551802
0.77570003 -0.025173442 0.1152736 13157301
0.77461123 -0.015163262 0.11511193 13486524
0.77453339 -0.0051890933 0.11510055 13025975
0.77427787 0.0047821039 0.11506364 12697523
0.77416676 0.014749474 0.11504755 12500657
0.77400011 0.024712007 0.11502372 12434351
0.77400011 0.034677729 0.11502377 12171179
0.77422225 0.044656772 0.11505762 12302765
0.7749331 0.054675553 0.11516292 12565938
0.77552772 0.064703517 0.11525093 12697524
0.77610028 0.07474304 0.11533524 12763316
0.77544433 0.084663481 0.11523657 12894902
0.77553344 0.094659939 0.11525138 13223611
0.77692324 0.10343581 0.11538648 13487039
0.78150004 0.10865047 0.11338821 13947589
0.78647995 0.11404395 0.11536636 12763829
0.79025 0.11819295 0.11235073 10592660
0.79248017 0.12455885 0.11498386 10527383
0.79336673 0.13490969 0.11511229 10461589
0.78810006 -0.16265476 0.12615792 12236718
0.79152948 -0.16607858 0.12356725 10789531
0.77599996 -0.15276694 0.12670769 15196887
0.78461117 -0.15628232 0.12353313 14999765
0.77500015 -0.14440264 0.12486508 15262680
0.78100002 -0.146928 0.12109135 15591902
0.7733143 -0.13495734 0.12487177 15197144
0.77226663 -0.12521647 0.12542981 14999765
0.77300018 -0.11465967 0.12482795 14802643
0.77300012 -0.1047068 0.12482797 14539471
0.7731002 -0.094765879 0.12484457 14276040
0.77392012 -0.084901683 0.12497663 13947332
0.77516663 -0.075055711 0.12517722 13552318
0.7760002 -0.06514731 0.12531242 13551803
0.77526653 -0.05510436 0.12519494 13551802
0.77507979 -0.045110561 0.12516347 13617338
0.77523327 -0.035138603 0.12518714 13420217
0.77392012 -0.025115557 0.12497525 13223352
0.77323341 -0.015135643 0.12486463 13552832
0.77384013 -0.0051834029 0.12496316 13223867
0.77400011 0.0047805831 0.12498949 12763058
0.77400011 0.014746299 0.12498948 12500399
0.77466661 0.024734385 0.12509811 12237226
0.77531987 0.034737334 0.125204 11645348
0.77573359 0.04474403 0.12527092 11776678
0.77640021 0.054778852 0.12537861 11973801
0.77660024 0.064791769 0.12541071 11908009
0.77656007 0.074786641 0.12540416 12039595
0.77643371 0.084772147 0.12538378 12368560
0.77668017 0.094799392 0.12542342 12828854
0.77696896 0.10495348 0.12512742 13223354
0.78000003 0.1098123 0.12048038 13092281
0.77875006 0.1119153 0.12803492 13420733
0.78371441 0.11566907 0.12498233 14013897
0.78857142 0.12411813 0.12593524 13290434
0.79023081 0.12704857 0.12206011 12172210
0.79080021 0.13540095 0.12492457 10461590
0.78718758 -0.16364408 0.13483492 10065036
0.79100001 -0.16825259 0.13514169 10131600
0.77552938 -0.15396446 0.13495526 14801874
0.78200006 -0.15901552 0.13543472 14669775
0.77202785 -0.1452433 0.13460989 14933973
0.7703079 -0.13513748 0.13500349 14736593
0.77139378 -0.12500821 0.13491093 14342092
0.77322257 -0.11469151 0.13482003 13947332
0.77400017 -0.10484162 0.13495627 13815746
0.77438885 -0.094924077 0.13502462 13815745
0.77443337 -0.08495798 0.13503231 13684159
0.77502757 -0.075044103 0.1351355 13552573
0.77583367 -0.065132692 0.13527469 13617852
0.77586132 -0.055146776 0.13527983 13880767
0.77463323 -0.045086168 0.13506539 13814974
0.7738058 -0.035074275 0.13492054 13419961
0.7725001 -0.0250696 0.13469079 13355194
0.77191657 -0.015109575 0.13458806 13684417
0.77283347 -0.0051765349 0.13475017 13487295
0.77333349 0.0047769863 0.13483763 13158844
0.77400011 0.014746299 0.13495517 13092538
0.77524978 0.024753839 0.13517396 12697780
0.77696013 0.034811653 0.13456352 11974313
0.77796662 0.044872276 0.13473892 12303021
0.77776009 0.0548735 0.1347021 12500144
0.77733344 0.064852729 0.13462771 12368558
0.77712023 0.07484106 0.13458966 12236972
0.77723348 0.084859885 0.13460855 12302766
0.77668989 0.094924942 0.13526624 12763060
0.77611464 0.10459358 0.13519372 13157563
0.778 0.11304476 0.13500215 13749699
0.78192317 0.11811075 0.13429159 14079691
0.78707141 0.12535551 0.13506052 12961468
0.78900003 0.13139705 0.13572352 10395797
0.79109526 0.13615796 0.13498273 10461590
0.78752947 -0.1639384 0.14495869 9933194
0.79066664 -0.1681817 0.14526427 10000013
0.77568752 -0.15421687 0.14489403 14670031
0.78200006 -0.15901552 0.14458808 13024950
0.76900005 -0.14174506 0.14781022 14473421
0.77103585 -0.1458949 0.14443016 14670800
0.76900005 -0.13696942 0.14738517 14473421
0.77000016 -0.13400017 0.14400026 14407628
0.7713142 -0.1253701 0.14519165 14276042
0.77340019 -0.11471735 0.14480878 14078663
0.7746799 -0.10493316 0.14504847 14012870
0.77573335 -0.095087849 0.14524698 13947076
0.77624011 -0.085156195 0.14534187 13815489
0.77636695 -0.075174406 0.14536533 13683904
0.7760002 -0.06514731 0.14529532 13881282
0.77563345 -0.055130288 0.14522545 14012099
0.77424002 -0.045063362 0.14496461 13748928
0.76900005 -0.030355034 0.14938544 13420733
0.77211785 -0.035000119 0.14520325 13420220
0.76747829 -0.02435988 0.14564985 13552831
0.77057141 -0.026810225 0.14170147 13420730
0.76723534 -0.0152285 0.14481221 13618625
0.77000004 -0.011467377 0.14056678 13684418
0.76860005 -0.0073076086 0.14696763 13618625
0.77060002 -0.0040796329 0.14410217 13553089
0.77278143 0.0045499634 0.14503103 13224637
0.77416009 0.014750001 0.14495133 13092538
0.77549994 0.024761654 0.14520173 12960954
0.77813333 0.034865562 0.14478377 12434352
0.77899981 0.044931833 0.14494526 12171179
0.77873325 0.054942403 0.14489661 12434351
0.77824992 0.06492883 0.14480686 12500144
0.7771669 0.074845627 0.14460324 12565937
0.77669483 0.084800184 0.14451484 12631730
0.77607715 0.094585471 0.14509967 12829109
0.77593565 0.10484659 0.14510624 13092025
0.77805012 0.11354689 0.14513198 13618370
0.78155559 0.1183674 0.14409859 13882056
0.78685194 0.12572356 0.14507465 12764089
0.78900003 0.13139705 0.14495884 10527126
0.79145449 0.13627242 0.14498807 10395540
0.7876001 -0.1638443 0.15484244 9670792
0.79100001 -0.16825259 0.15551087 9868171
0.77494121 -0.15384799 0.15480711 14605008
0.78200006 -0.15901552 0.15465683 9999243
0.76860005 -0.14297608 0.15470518 14407885
0.7705 -0.14811009 0.15508769 14473678
0.76863158 -0.13688169 0.15480699 14408141
0.77000004 -0.13214034 0.15478717 14473934
0.77190328 -0.1251895 0.15519546 14408141
0.77388895 -0.11478937 0.15486538 14144969
0.77575016 -0.10527228 0.15491328 14013383
0.77763343 -0.095319375 0.15470546 13947333
0.77872008 -0.085428268 0.15492086 13946820
0.77768755 -0.075078025 0.15505505 14012356
0.77530003 -0.065089948 0.15514523 14078149
0.77402854 -0.055146731 0.15496793 14012356
0.77258623 -0.044842675 0.15463215 13748928
0.76857144 -0.03175259 0.15547094 13420733
0.77077788 -0.037343569 0.15454093 13420477
0.76640016 -0.024871651 0.1551604 13684418
0.76538885 -0.014980268 0.15495625 13553089
0.76800001 -0.006205311 0.15507512 13553345
0.77000004 -0.0015531663 0.15498745 13487295
0.7726472 0.0049888394 0.1548804 13421758
0.77426666 0.014752161 0.15493912 13487552
0.77511096 0.024749177 0.15510768 13290175
0.77725947 0.034624498 0.15503167 12697524
0.77900016 0.043732062 0.15391956 12368558
0.78072733 0.047109436 0.15714727 12368558
0.77900004 0.054354042 0.15163197 12500144
0.78157896 0.055336833 0.15654998 12302765
0.77885729 0.066933177 0.15351453 12500144
0.78087503 0.063433498 0.1566065 12434351
0.77688468 0.074956141 0.154764 12500144
0.77600044 0.084724642 0.15528683 12631473
0.77566659 0.094674185 0.15521984 12960439
0.77488869 0.10455779 0.1550642 13092025
0.77714294 0.11383156 0.15486439 13552577
0.78133339 0.11914558 0.15452342 13750470
0.78625935 0.12522048 0.15498647 12632245
0.78900003 0.13192479 0.15590928 10395796
0.79100007 0.13682409 0.15467574 10264211
0.79299986 0.14506015 0.15497313 10264210
0.78771442 -0.16334037 0.16448131 9802123
0.79175001 -0.16771832 0.16562141 9802635
0.77571428 -0.15397884 0.16443856 14473679
0.78233337 -0.15877897 0.16540638 10131087
0.76900005 -0.14174506 0.16176212 14341835
0.77100015 -0.14567401 0.1656719 14407884
0.76900005 -0.13708372 0.16172996 14342092
0.77039146 -0.13430667 0.16588856 14276042
0.77203137 -0.12558274 0.16477267 14144713
0.7742334 -0.11484044 0.16490225 13947334
0.77603728 -0.10491505 0.1648811 13881797
0.7773056 -0.0952802 0.16464444 14012870
0.77826655 -0.085378855 0.16484703 14209479
0.77632368 -0.075387314 0.16470322 14341065
0.77392006 -0.064973719 0.16483408 14275272
0.7724573 -0.054776885 0.16529587 14012100
0.76900005 -0.041156493 0.16828799 13946307
0.77085727 -0.045123998 0.16482495 13814721
0.76770008 -0.034140799 0.16542421 13354940
0.77000004 -0.038205706 0.16159692 13551549
0.76486677 -0.024821272 0.16558787 13486783
0.76483345 -0.014969263 0.16558188 13618626
0.7677694 -0.0052101994 0.16504383 13553347
0.77000004 -0.0015531663 0.16129649 13619396
0.76900005 0.0015992757 0.16873807 13356225
0.77109379 0.0051602758 0.16462676 13487810
0.77283323 0.014724927 0.16550572 13618884
0.77380019 0.024706954 0.16480842 13553090
0.77592862 0.034961443 0.1646774 13355453
0.77866673 0.04126725 0.16493405 13223610
0.78185719 0.046798714 0.16495675 12763059
0.78316027 0.055255152 0.16497047 12500144
0.77900004 0.069551148 0.16044629 12434353
0.78180647 0.065311126 0.16515689 12565938
0.778 0.075133786 0.16451448 12500145
0.78033334 0.072105639 0.16924612 12631730
0.77620023 0.084745854 0.16532165 12631474
0.7758801 0.094700985 0.16525318 12894903
0.77570015 0.10466816 0.1652157 13289661
0.7778334 0.11355567 0.16435426 13552834
0.78150004 0.1180747 0.16626574 13619142
0.78682148 0.12571102 0.16514905 12566198
0.78900003 0.13213588 0.1645377 10330003
0.7906875 0.13700096 0.16493627 10330002
0.79320002 0.14509714 0.16522971 10330002
0.78828579 -0.16134882 0.1755401 9604743
0.79337507 -0.16667339 0.17547953 9802122
0.77583331 -0.15186083 0.17462599 14473679
0.78310001 -0.15722546 0.17467083 10986138
0.77225924 -0.14471729 0.17492799 14342348
0.77237928 -0.13461103 0.17548248 14276042
0.77380002 -0.12480032 0.17483555 14078407
0.77534372 -0.11523251 0.17455655 14144199
0.77692324 -0.10502643 0.17471169 14209992
0.77737945 -0.095134728 0.17454718 14209735
0.77653599 -0.084995463 0.1750648 14143686
0.77480555 -0.075025633 0.17499863 14078149
0.77296674 -0.064893685 0.17458378 14012357
0.7688334 -0.051346991 0.1787504 13683392
0.77085727 -0.055372804 0.17449352 13881027
0.76784003 -0.044258915 0.17597626 13552319
0.77000004 -0.04697828 0.17193174 13815491
0.76480007 -0.034798305 0.1746552 13354940
0.76149994 -0.024711944 0.17555831 13157819
0.76144427 -0.014903966 0.17554457 13487297
0.76474196 -0.0052338932 0.1747146 13290432
0.76810527 0.0022378066 0.17523649 13224639
0.77014297 0.0075902273 0.17484798 13224639
0.77160001 0.014701884 0.17517875 13092796
0.77311128 0.024685189 0.17461686 12961467
0.77536666 0.034742158 0.17512636 12895416
0.77844453 0.041154418 0.17470884 13092538
0.78187507 0.046854053 0.17507119 13092538
0.78280014 0.055229012 0.17497225 12631731
0.77900004 0.068092227 0.17795335 12565937
0.78137934 0.064400308 0.17430726 12500144
0.77894753 0.075880624 0.17559932 12565680
0.78033334 0.072409965 0.17350793 12565680
0.77720016 0.084854193 0.17463163 12565680
0.77615398 0.094804123 0.17460603 12697268
0.77617681 0.10451863 0.17504235 12894904
0.77860004 0.11234975 0.17494611 13092541
0.78187501 0.11751428 0.17533825 13553606
0.78736001 0.12559924 0.17507149 12698043
0.78900003 0.13139705 0.17266479 10198418
0.79160011 0.13576216 0.1750502 10264211
0.78800005 -0.16023558 0.18443665 9472384
0.79272729 -0.1660102 0.18503286 9736584
0.77725005 -0.15145499 0.18419367 14407373
0.78400004 -0.15632017 0.1853345 11314589
0.77322233 -0.14436036 0.18500116 14276298
0.77353352 -0.13465668 0.18467294 14341835
0.77516001 -0.12495883 0.18506141 14144456
0.77776474 -0.11514822 0.18504038 14144199
0.77900004 -0.10693794 0.18233013 14406858
0.78073919 -0.10424343 0.1857572 14275529
0.7785002 -0.093060113 0.18458164 13683648
0.7803334 -0.097581491 0.18568708 13749442
0.77588892 -0.085322239 0.18482953 13486526
0.77378798 -0.074679799 0.18522587 13419963
0.77223337 -0.064833432 0.1852657 13354170
0.76820004 -0.052804954 0.18519673 13288633
0.77023089 -0.058144316 0.18443798 13354170
0.7654286 -0.044359665 0.18510255 13025462
0.76233333 -0.034556918 0.18467313 13025462
0.76055992 -0.024681736 0.18513559 13092025
0.75899994 -0.013968807 0.1868065 13553347
0.76000017 -0.015557068 0.18342991 13553090
0.76172405 -0.0049762358 0.18467793 13487811
0.76704007 0.0034138893 0.18570539 13356225
0.77000004 0.0081807878 0.18310775 13224639
0.77109998 0.014692608 0.18499269 13224381
0.7728613 0.024676848 0.18541536 13092539
0.77447999 0.034556709 0.18533154 12764087
0.77736855 0.042780213 0.18596902 12895673
0.78129411 0.047378588 0.18415684 12960954
0.78211993 0.055181403 0.18489081 12894903
0.77900016 0.067970656 0.18464011 12500401
0.7807222 0.063103504 0.18506828 12697523
0.77843314 0.074965976 0.18493064 12566193
0.77719468 0.084854253 0.18463664 12763316
0.77669001 0.09473677 0.18467344 12960182
0.77684391 0.10505074 0.18512291 13026233
0.77899998 0.11175568 0.1844143 13157820
0.7818948 0.11663354 0.18503104 13552834
0.78744823 0.12548557 0.18506965 12764089
0.79251868 0.13590568 0.1850808 10132881
0.78900003 -0.16043893 0.19205897 9406592
0.79263645 -0.16539966 0.19505602 9736327
0.77900004 -0.15111086 0.19144839 14276557
0.78526324 -0.15523469 0.19540764 11972776
0.77512002 -0.14477237 0.19492327 14210505
0.78000003 -0.14947885 0.19899812 13881284
0.77474993 -0.13486847 0.19493979 14013126
0.77580005 -0.12506326 0.19520324 14144456
0.77696794 -0.1153342 0.19476216 14144456
0.77878577 -0.10744359 0.19530191 14276042
0.78044999 -0.10242729 0.19417806 14275529
0.7782858 -0.093885809 0.19535105 13683648
0.78020006 -0.098011047 0.19247323 13881027
0.77519995 -0.085044824 0.1950514 13354427
0.77354562 -0.075149782 0.19504634 13090998
0.77236003 -0.064843707 0.19524141 12959412
0.76833338 -0.052114103 0.19432364 13091511
0.77035719 -0.057460576 0.19537902 13025462
0.76499999 -0.044592984 0.19497864 13223354
0.76115608 -0.035058338 0.19485794 13091768
0.75900006 -0.022458119 0.19699672 13420990
0.7600401 -0.026300577 0.19419031 13289147
0.75897247 -0.014856775 0.19452168 13487040
0.75899994 -0.0069883936 0.195925 13618883
0.76025009 -0.0034240184 0.19362508 13684676
0.76389736 0.0047942982 0.19501927 13684676
0.76754159 0.014250346 0.1958914 13553346
0.77000004 0.016172243 0.19163997 13882567
0.76887506 0.021623716 0.19818453 13685188
0.77123994 0.02524019 0.1943785 13750981
0.77325016 0.034839433 0.19488274 13553602
0.7755 0.044734113 0.19512457 13487810
0.77850008 0.052421175 0.19656412 13487040
0.78127271 0.05603772 0.19383441 12960695
0.77900004 0.069247209 0.19570358 12631730
0.7811482 0.063916147 0.19488783 12697523
0.77741385 0.074992768 0.19544822 12697523
0.7765004 0.08477924 0.19537671 12894645
0.77688479 0.09468472 0.19477524 13091768
0.77756679 0.10492174 0.19473669 13157818
0.77900004 0.11149517 0.19691937 13223868
0.78188473 0.11613537 0.19476101 13421504
0.78703845 0.12568894 0.19505262 12566710
0.78900003 0.13185883 0.19575307 10330260
0.79113638 0.13663782 0.19501801 10133138
0.78629416 -0.15328881 0.205148 12893620
0.79100007 -0.15846549 0.20630229 11051417
0.77658826 -0.14380118 0.20486405 14144456
0.78049999 -0.14820518 0.20506135 13947077
0.7760002 -0.1350864 0.20524517 14012870
0.77632022 -0.12514798 0.20532997 14144456
0.77682889 -0.11514879 0.20468348 14276042
0.77830303 -0.10487131 0.20485756 14144199
0.78000003 -0.10200301 0.20082413 14078663
0.77781248 -0.094777271 0.20503964 13947077
0.77531987 -0.08505743 0.20506452 13683905
0.77380008 -0.074926861 0.20466317 13288890
0.77276683 -0.064876892 0.20529366 13223098
0.7682308 -0.051630635 0.20512548 13486013
0.77076203 -0.056975972 0.20454594 13354683
0.76377416 -0.04463248 0.20517907 13486013
0.759 -0.033352438 0.20737056 13354940
0.7603159 -0.036476653 0.20428011 13354683
0.75860029 -0.025429087 0.20520711 13355197
0.76000005 -0.028220601 0.20101231 13157561
0.75819433 -0.014841878 0.20497118 13223867
0.75858617 -0.0052036038 0.20522998 13487297
0.76000005 -0.0015329953 0.20101231 13750211
0.75899994 0.0028427639 0.20785515 13750213
0.76062506 0.0058866739 0.2039212 13618626
0.76362169 0.015327304 0.20481451 13619139
0.76754546 0.024344724 0.20594503 13487809
0.77033335 0.028101657 0.20274264 13356223
0.77200007 0.034590609 0.20508808 13422016
0.77393955 0.044395268 0.20519152 13685188
0.77678573 0.05461264 0.20486419 13750212
0.78000003 0.057771467 0.20082413 13223869
0.77732283 0.06534937 0.20529787 12829109
0.78040004 0.062002756 0.2016575 12894903
0.77553838 0.07454782 0.2049111 12631985
0.77570015 0.084693186 0.20516449 12894900
0.77706921 0.094973564 0.20477517 13223610
0.77816677 0.10500118 0.20490824 13289147
0.77900016 0.11309085 0.20558168 13355711
0.7815001 0.11780035 0.20441186 13422018
0.78596431 0.12518017 0.20478971 12830140
0.78900003 0.1320897 0.20429574 10198417
0.79064709 0.1367898 0.20574376 10132624
0.79239994 0.14494993 0.20494437 10132623
0.78625011 -0.15263544 0.21497311 12433327
0.79100001 -0.15806916 0.21476674 11577504
0.77713335 -0.14347319 0.21464203 14012870
0.7815001 -0.14793681 0.21493338 14209994
0.77703363 -0.13526626 0.21461391 14144456
0.77728027 -0.12530294 0.21468212 14144456
0.77680027 -0.11522345 0.21454935 14276042
0.77700019 -0.10524862 0.21460347 14209479
0.77625036 -0.095153362 0.21530336 13947077
0.77503318 -0.085025288 0.21496616 13683905
0.77388901 -0.074935406 0.2146491 13486526
0.76800007 -0.061479192 0.21870925 13486526
0.77204013 -0.064961605 0.21511124 13486526
0.76555181 -0.054695152 0.21551226 13618112
0.77040005 -0.058545597 0.2124196 13552319
0.75889999 -0.042392775 0.21671054 13552319
0.76115996 -0.046440829 0.21378985 13617855
0.75766671 -0.035230365 0.21546881 13552062
0.75697225 -0.025449554 0.21527253 13420734
0.75741649 -0.014826329 0.21539921 12960439
0.75756651 -0.0050750421 0.21544161 13421247
0.75808567 0.0045567108 0.21546172 13618626
0.75881243 0.01434633 0.21668532 13487297
0.76068425 0.016462017 0.2125328 13684676
0.75900006 0.021567848 0.21851617 13685190
0.76283854 0.025540365 0.21460126 13619139
0.76700002 0.033587493 0.21644278 13290431
0.77069241 0.037166953 0.21369329 13290430
0.77287108 0.045193143 0.21474475 13356223
0.77476662 0.054664962 0.21489199 13421759
0.77700019 0.064599894 0.21494506 13158074
0.77732027 0.074859649 0.21469636 12763570
0.77663368 0.084793448 0.21450411 12829363
0.77800006 0.094962575 0.21487942 13158072
0.77900016 0.10347111 0.21491273 13158074
0.78013337 0.10690931 0.21571255 13158075
0.77900004 0.112407 0.21150859 12895161
0.78183335 0.11586804 0.21563481 13290175
0.78670365 0.12569983 0.2150334 12566967
0.78900003 0.13139705 0.21514724 10198417
0.79135007 0.13642237 0.21486235 10066832
0.787 -0.15345652 0.22499809 12630961
0.79042858 -0.1586148 0.22412615 11051931
0.77728575 -0.14298072 0.22416939 14473421
0.78125006 -0.14720474 0.22560667 14341322
0.77736121 -0.13532357 0.22471176 14473421
0.77867639 -0.12488333 0.22530736 14407371
0.77871996 -0.11488803 0.22375694 14341578
0.78000003 -0.11478496 0.22821404 14472651
0.77813333 -0.10540379 0.22493722 14275529
0.77590007 -0.09511175 0.22519881 14012614
0.77451998 -0.084969282 0.2247978 13683648
0.76900005 -0.071760617 0.22859614 13420733
0.77248496 -0.075157948 0.22475334 13552319
0.76442426 -0.064236157 0.22571006 13486526
0.77060002 -0.067580447 0.22149432 13420733
0.75874996 -0.053486247 0.22717696 13683905
0.76094741 -0.056009781 0.22338687 13552319
0.7575714 -0.044853985 0.22443597 13486783
0.76000005 -0.049570683 0.22058322 13618112
0.75596327 -0.035215482 0.22511302 13421246
0.75600028 -0.025416968 0.22473143 13355197
0.75645179 -0.014835812 0.22503565 12762803
0.75660014 -0.0050685648 0.22490868 12763316
0.756742 0.0048174351 0.22477938 13092282
0.75722235 0.015313826 0.22420651 13224126
0.7585001 0.024513952 0.22539945 13224639
0.7601667 0.027533138 0.22181772 13027260
0.75900006 0.030452011 0.22917716 13027260
0.76284212 0.035265099 0.22497262 13027260
0.76763636 0.042561695 0.22639093 13356225
0.77135015 0.04674961 0.22414641 13422018
0.77378577 0.054402243 0.22516513 13553346
0.77706259 0.06477768 0.22513515 13223867
0.78000003 0.069640435 0.22182307 12960695
0.77844435 0.075305708 0.22525914 12894902
0.78000003 0.072075091 0.22334473 12829109
0.77697247 0.084829025 0.22459739 13026231
0.7765668 0.094785124 0.22447988 13223867
0.77717161 0.10473687 0.22478254 13289662
0.78000003 0.1098123 0.22091007 13289662
0.77807152 0.11344476 0.22686721 13158590
0.78149998 0.11688646 0.2235059 13158847
0.78639287 0.12524845 0.22515008 12632504
0.78900003 0.13139705 0.22530608 10264211
0.79113042 0.13626373 0.22478609 10066832
0.78727281 -0.15364064 0.23494838 12630964
0.79000002 -0.15879287 0.23483868 11446947
0.77672726 -0.14240514 0.23502463 14868179
0.78133339 -0.14699225 0.23500608 14933716
0.77652812 -0.13517864 0.23537725 14605007
0.77844441 -0.1250831 0.23524991 14407628
0.78000003 -0.12026295 0.23369201 14209992
0.77900004 -0.1109905 0.23886338 14276042
0.78035724 -0.11509921 0.23471221 14275785
0.77842307 -0.10530337 0.23525056 14275785
0.77594471 -0.095116325 0.23520033 14012357
0.77416676 -0.084930927 0.23466165 13486526
0.76635295 -0.0730993 0.2358249 13420477
0.7713334 -0.077517197 0.23446448 13486526
0.759 -0.061410241 0.23735058 13749442
0.7613461 -0.066045523 0.23413324 13486526
0.75776666 -0.054748949 0.2350124 13618112
0.75580567 -0.044875376 0.23440439 13486526
0.75524998 -0.035052646 0.23454776 13420734
0.75594479 -0.025415163 0.23444809 13420990
0.75560021 -0.014765523 0.23446839 12565939
0.75600034 -0.0050645466 0.23446563 12697525
0.75586146 0.0046681259 0.2344218 12960440
0.75518924 0.015390314 0.23437822 12960953
0.75636673 0.025036225 0.23457628 13290431
0.75831831 0.033088733 0.23607083 13422016
0.76085716 0.037779499 0.23380758 13422018
0.76527572 0.044795115 0.23532945 13619395
0.77033335 0.048339497 0.23139669 13553604
0.76875007 0.051989611 0.2388697 13553602
0.7721613 0.055531517 0.2347808 13750468
0.77375007 0.065120526 0.23430577 13289660
0.77402961 0.075182572 0.23483038 13026488
0.7745313 0.085130714 0.23454398 13092281
0.77445447 0.095021658 0.2349956 13289660
0.77499974 0.10498584 0.23466782 13355454
0.77700013 0.11455929 0.23468482 13289919
0.78000003 0.11894227 0.23460501 13158848
0.78482157 0.12526423 0.23493662 12500920
0.78900003 0.13139705 0.23454142 9934993
0.7915501 0.13645789 0.23483613 10066832
0.78722727 -0.15363237 0.24507065 12564913
0.79033333 -0.15885986 0.24511532 11710119
0.77735305 -0.14362152 0.24499442 14736337
0.78220004 -0.14806932 0.24533708 13814722
0.77633363 -0.13514458 0.24531555 14605007
0.77777147 -0.12459837 0.24472877 14407628
0.77849996 -0.11470514 0.24599816 14144456
0.78000003 -0.11515015 0.2417264 14144456
0.77644837 -0.10530152 0.24459706 14210249
0.77441943 -0.094783232 0.24488451 13748928
0.77250016 -0.084749572 0.24500607 13156791
0.76444823 -0.074799843 0.24513473 13288890
0.77000004 -0.079064272 0.24151146 13223354
0.75855005 -0.062529042 0.24546595 13683905
0.76035726 -0.067903243 0.24420826 13552319
0.75636661 -0.054648437 0.24520059 13683905
0.75444436 -0.044793744 0.24457833 13552319
0.75443321 -0.035077069 0.24457642 13420733
0.7558614 -0.025411874 0.24503949 13420733
0.7557503 -0.014794812 0.24500261 12828852
0.75480014 -0.0050569759 0.24469216 12631730
0.75370008 0.0048301336 0.24495271 12565939
0.75265861 0.01511212 0.24500719 12368302
0.753353 0.024832906 0.24494833 13290431
0.75732356 0.034612834 0.24525073 13290431
0.76000005 0.039388001 0.24015413 13619395
0.75900006 0.041113008 0.24694549 13553602
0.76132143 0.045315377 0.24451457 13487810
0.76602948 0.054474443 0.24527133 13356223
0.77039999 0.059044212 0.24127547 13487296
0.76900005 0.061457351 0.24659856 13421759
0.77048159 0.065584429 0.24406637 13289917
0.77149987 0.075204223 0.24469039 12960695
0.77290022 0.085291639 0.24513467 13158074
0.77383882 0.095212914 0.24470195 13289660
0.77520007 0.10550881 0.24495775 13420990
0.77772236 0.11343832 0.24484433 13355455
0.78111118 0.11829988 0.24540329 13289662
0.7856155 0.12525259 0.24513586 12764091
0.78900003 0.13139705 0.24470027 9803406
0.7923913 0.13656397 0.24506472 10000782
0.78666675 -0.15348004 0.25480425 12499632
0.79119998 -0.15903406 0.25557065 12236721
0.77605885 -0.14316833 0.25495085 14473165
0.78116673 -0.14787371 0.2550686 12696240
0.77555567 -0.13500936 0.25505364 14407628
0.77626687 -0.12513849 0.25528631 14407628
0.77619457 -0.11513475 0.25526249 14341578
0.77490008 -0.10496566 0.25483799 14209992
0.77360016 -0.09495829 0.25454041 13551549
0.76766676 -0.081520759 0.25635013 13090485
0.77140009 -0.085981771 0.25486058 13025205
0.75900006 -0.070827454 0.25938332 13947331
0.7624138 -0.074844256 0.25482142 13288377
0.75788891 -0.064680636 0.25473106 13815746
0.76000005 -0.069141597 0.25349796 13552319
0.75388569 -0.055225886 0.2551131 13749697
0.75361103 -0.044741794 0.2548956 13618368
0.75446647 -0.035078537 0.25518432 13552318
0.75615644 -0.025642263 0.25520217 13289147
0.75508827 -0.014576056 0.2551339 13025975
0.75240636 -0.0048776241 0.25486985 12696754
0.75092095 0.0044518956 0.25541615 12762547
0.74900001 0.018653549 0.2594727 12368558
0.75032365 0.014965638 0.2552807 12039593
0.74900001 0.024400879 0.2586934 12763316
0.75050008 0.025160789 0.25384125 12697523
0.75544435 0.034592245 0.25496945 12961465
0.75900012 0.041366842 0.25557581 13093052
0.7605238 0.04560525 0.25481716 13027259
0.76470602 0.054855186 0.25506654 13093308
0.76881826 0.062261105 0.25455719 13290430
0.77036858 0.066787921 0.2552 13289660
0.77147216 0.075201295 0.2555168 13092281
0.77261549 0.085121706 0.25520059 13092281
0.77377158 0.095480368 0.25459751 13223867
0.77526665 0.10551789 0.25495973 13355711
0.77752638 0.11339397 0.2556538 13224640
0.7808001 0.11833362 0.25421917 13224640
0.78546441 0.12523319 0.25502604 12632505
0.78900003 0.13170491 0.25547481 9869200
0.79166669 0.13678652 0.25501192 9935246
0.7861501 -0.15305544 0.26442498 12630961
0.79137504 -0.15837574 0.26627702 12434100
0.77545011 -0.1437095 0.26491246 14078150
0.78000003 -0.14765285 0.26534259 12235690
0.77408344 -0.1347537 0.26544353 14605007
0.77380013 -0.12474124 0.2653448 14473165
0.7737779 -0.1147753 0.26533711 14538186
0.7735002 -0.10477483 0.26524231 14209476
0.77245164 -0.095418066 0.26473722 13419704
0.76596558 -0.083974518 0.26553163 12301225
0.77033335 -0.089317821 0.26355645 12498348
0.75866669 -0.071388632 0.26578054 13814979
0.76095003 -0.075998589 0.26432425 12761777
0.75584376 -0.065064006 0.26488009 14407626
0.74900001 -0.054113477 0.26999325 14539469
0.75216675 -0.055223785 0.26496777 14539469
0.7486667 -0.044451427 0.26987311 14473421
0.75219446 -0.044659227 0.26497686 14605007
0.7484445 -0.034410354 0.26901364 14341835
0.75223088 -0.035111561 0.26431236 14341835
0.74850005 -0.0251652 0.26893628 14210503
0.7531178 -0.025111962 0.26379597 14012869
0.74821424 -0.014146538 0.26845786 13684159
0.7525667 -0.015203514 0.26363888 13552319
0.74790466 -0.0043433481 0.26651129 13420732
0.75083333 -0.0066423095 0.26244983 13354940
0.74780005 0.0044935155 0.26530597 13486013
0.75000006 0.0090217572 0.26157489 13485756
0.74752921 0.015322496 0.26534209 12828597
0.75000006 0.011655402 0.26157489 12038823
0.74738705 0.024906976 0.265176 13289918
0.74857146 0.030784735 0.26658338 13158846
0.75393337 0.035609502 0.26435405 12895416
0.75840002 0.042620115 0.26580521 12829880
0.76042861 0.046912841 0.26381227 13027001
0.76278371 0.054837033 0.2649675 13290173
0.7673794 0.064798348 0.26509291 13421503
0.77000004 0.06874761 0.2613399 13421246
0.7681073 0.074616589 0.26634672 13289661
0.77000004 0.075957939 0.26179054 13223867
0.76900005 0.081260026 0.26730135 13223869
0.77155566 0.0855463 0.26447502 13289661
0.77333349 0.095297508 0.26518622 13421248
0.77448273 0.10528557 0.2654238 13487042
0.77667856 0.11499758 0.2648389 13224643
0.77900004 0.12061343 0.26530635 13224644
0.78407693 0.1254309 0.2646316 12303285
0.78857148 0.13264503 0.26513788 9869200
0.79053336 0.13732876 0.26497674 9935246
0.78613341 -0.15249804 0.2747888 12696499
0.79127276 -0.15820807 0.27546275 12302515
0.77562505 -0.14319478 0.27505201 13947079
0.78080004 -0.14780429 0.27597356 12104619
0.77383345 -0.13471137 0.27532184 14341835
0.77336013 -0.12466999 0.27515456 14407627
0.77356684 -0.11474429 0.27522823 14407627
0.77296007 -0.10470158 0.27501094 14077891
0.76857144 -0.092026614 0.2760188 13551035
0.77104551 -0.096239038 0.27449244 13814207
0.76520592 -0.085322469 0.2748833 12564140
0.75805891 -0.072411254 0.2758666 11972517
0.76068753 -0.077107124 0.27476299 11972259
0.74862504 -0.061754096 0.27577236 13354426
0.75317389 -0.065996163 0.2741774 13091256
0.74674994 -0.054827638 0.27529728 14144199
0.75000006 -0.059453022 0.27035373 14078917
0.74500012 -0.044947702 0.2752023 14407628
0.74419045 -0.035473287 0.27521932 14342091
0.7446906 -0.025036979 0.27540621 14144712
0.74466676 -0.014577096 0.27539706 13749697
0.74442875 -0.0049874955 0.27530968 13420476
0.74414319 0.0045961719 0.2752049 13289147
0.74427521 0.014877774 0.27499324 13223611
0.74550021 0.025549771 0.27483809 12961211
0.74793333 0.033160888 0.27591088 12632245
0.75200003 0.037318975 0.27376369 12698038
0.75752777 0.045225188 0.2750839 13026746
0.75900006 0.051774006 0.27892849 13487039
0.76093334 0.055115033 0.27465028 13421246
0.7653572 0.064560957 0.27467346 13421246
0.7676667 0.074831143 0.27492705 13355453
0.76900005 0.081980124 0.27450234 13289662
0.77055007 0.086475737 0.27505487 13289662
0.77246886 0.094965458 0.2751742 13421248
0.77392322 0.10547361 0.27514377 13421248
0.77635711 0.11456146 0.27498546 13224384
0.78446162 0.12499928 0.2749337 12632250
0.78887504 0.1320689 0.27444112 9737612
0.79066676 0.13692006 0.27575883 9869453
0.79199994 0.14473365 0.27458364 9869453
0.78654557 -0.15350062 0.28486565 12499634
0.79100007 -0.15868562 0.28451583 12434101
0.77605003 -0.14382027 0.28546569 13354170
0.78074998 -0.1482525 0.28463838 12367277
0.77361131 -0.13467328 0.2852031 14144199
0.77340025 -0.12467621 0.28512439 14144200
0.7736668 -0.11475881 0.2852225 14341578
0.77249998 -0.10464087 0.28479308 13946562
0.7678948 -0.093420573 0.28512931 13748669
0.77054554 -0.098143391 0.28448191 13617083
0.76299983 -0.085257426 0.28492042 13353912
0.75717247 -0.074145906 0.28558871 12367273
0.76028579 -0.079338312 0.28397697 12630444
0.74807698 -0.062130503 0.28488201 11972517
0.75177777 -0.066733792 0.28477803 11775137
0.74455565 -0.054669932 0.28494772 12695727
0.73717868 -0.044016901 0.28538975 13552062
0.74122226 -0.047574416 0.28241742 13814978
0.73589134 -0.034928042 0.2848075 14210504
0.73580945 -0.024737922 0.2858991 13947075
0.74083346 -0.024906464 0.28092381 14078663
0.73571432 -0.014401522 0.28586289 13618112
0.74050003 -0.014496847 0.28079742 13815491
0.73629022 -0.0050426875 0.28542134 13355197
0.74100006 -0.0049640592 0.28098702 13552319
0.73750025 0.0043415977 0.28623822 13289404
0.74060011 0.0052672303 0.28152829 13288891
0.73878574 0.01333446 0.28694132 13157562
0.74108332 0.016216913 0.28340164 12631732
0.74383801 0.025377721 0.28483734 12698038
0.74744439 0.033684071 0.28537381 12697781
0.75118178 0.03813291 0.2843672 12960952
0.75641173 0.045406152 0.28505784 13355453
0.75886667 0.053423289 0.28622198 13421246
0.760625 0.057450179 0.28430966 13487039
0.76453131 0.064630985 0.28509367 13421246
0.76888895 0.072948724 0.28476247 13421246
0.77000016 0.076859236 0.28567478 13355453
0.77008027 0.084980071 0.28480282 13289661
0.77173525 0.095314398 0.28477636 13421247
0.77360016 0.10529065 0.28519943 13487041
0.77589279 0.1147526 0.28493994 13158847
0.78542864 0.12542722 0.28509098 12632248
0.78900003 0.13139705 0.280718 9605772
0.79170829 0.13571313 0.28554377 9803404
0.78655005 -0.15359341 0.29540354 12564913
0.79099995 -0.15899386 0.29531765 12960188
0.77653337 -0.14336289 0.29506856 13157305
0.78100002 -0.14820829 0.29432714 12630192
0.77360016 -0.13467214 0.2951602 14077893
0.77253324 -0.12453774 0.2956554 13880514
0.76900005 -0.11226608 0.29880559 13880514
0.77193111 -0.11540489 0.29495561 14077892
0.76726317 -0.10393058 0.29718256 13748928
0.77094996 -0.10596424 0.29315478 13814720
0.76452768 -0.094762571 0.29536754 13617342
0.77000004 -0.098892696 0.29018125 13814462
0.75880003 -0.081822351 0.29768378 13354426
0.76115382 -0.086039416 0.29431424 13485755
0.75574994 -0.075053319 0.29512629 13025460
0.74710721 -0.063911758 0.29566851 12630701
0.75085723 -0.068309806 0.2940127 12762287
0.73900002 -0.051660988 0.29839376 12499116
0.7431379 -0.055554293 0.2946935 12235688
0.73548651 -0.045232948 0.29513264 12235689
0.74000001 -0.049998544 0.29100192 12630447
0.73207903 -0.035078727 0.29528069 13552060
0.73102784 -0.024577932 0.29517171 13947074
0.73138905 -0.014316027 0.29531741 13420988
0.73220611 -0.0048036561 0.29494032 13289403
0.73352379 0.004532869 0.29531866 13158331
0.73680508 0.014798542 0.29504073 13026745
0.74000001 0.019295586 0.29100192 12829881
0.73883337 0.021571459 0.29717293 13092795
0.7425313 0.026047753 0.29454851 12829368
0.74656671 0.034908321 0.29544505 13223868
0.75066668 0.038904291 0.29168114 13355453
0.7486667 0.041721832 0.29849908 13487039
0.75394601 0.045757405 0.29461867 13421246
0.75732261 0.055093694 0.29535002 13421245
0.75872725 0.061928391 0.29707372 13421245
0.76140004 0.066342086 0.29428065 13289915
0.76537842 0.074972317 0.29516074 13355452
0.77000004 0.078661814 0.29018125 13355453
0.76800019 0.084494404 0.29597315 13420988
0.77000004 0.086000904 0.29095381 13355453
0.7685715 0.091239646 0.29786685 13486781
0.77073354 0.095639028 0.29430574 13486782
0.77300018 0.10501579 0.29551095 13421247
0.77564281 0.11465009 0.29503062 13158590
0.78556001 0.12531668 0.29493916 12632504
0.78745002 -0.15367505 0.30505234 12564914
0.7906 -0.15891346 0.30534634 13091258
0.77772731 -0.1427549 0.30534238 12630961
0.78220004 -0.14715469 0.30485138 12104876
0.77373552 -0.13448356 0.3049072 13946818
0.77139997 -0.12435579 0.30515516 13880514
0.76780957 -0.11333524 0.30552959 13814720
0.77011114 -0.11773682 0.30364388 13946307
0.76338232 -0.10514371 0.30502489 13814720
0.75878567 -0.092758343 0.30688992 13880514
0.76065212 -0.096454561 0.30368948 13814721
0.75748396 -0.084703535 0.30496582 13551550
0.76000005 -0.088712506 0.30064604 13485756
0.74778569 -0.073157884 0.30669075 13156792
0.75295454 -0.076756351 0.30386299 13419963
0.74531591 -0.065191813 0.30530205 13288633
0.73790914 -0.052370891 0.30650875 12828081
0.74200004 -0.056452725 0.30449855 13091253
0.73362172 -0.045396522 0.30492133 12893874
0.7285834 -0.032455925 0.30783144 13092022
0.73065388 -0.035618808 0.3041676 12762802
0.72782052 -0.024185989 0.30529928 13486780
0.73000002 -0.028245926 0.30131069 13749952
0.72802711 -0.01477972 0.30503696 13289146
0.73000002 -0.010871669 0.30074102 13420989
0.72857147 -0.0060159699 0.30705494 13157817
0.73038459 -0.0044974927 0.30234587 13289404
0.72900003 0.0028908511 0.30772433 13158075
0.73085207 0.0050536846 0.30432284 13092282
0.73265725 0.01450101 0.30433297 13158075
0.7366364 0.02344331 0.30417907 13356223
0.74138474 0.028544499 0.30382812 13290432
0.74453342 0.035103608 0.30515668 13290175
0.74688572 0.044704884 0.30519652 13487297
0.75025004 0.048103966 0.30074072 13618625
0.74808335 0.052489355 0.30716786 13421247
0.75284004 0.055797622 0.30387005 13552832
0.75741184 0.06460315 0.3051984 13487039
0.76000005 0.069040895 0.3012391 13421246
0.75900006 0.072503723 0.30795005 13486783
0.76068008 0.075751714 0.30433175 13552319
0.76253647 0.08493311 0.30534303 13486526
0.7660557 0.094949476 0.30507454 13552319
0.77000004 0.099391535 0.30099675 13486526
0.76810008 0.10220388 0.3067255 13684162
0.77150005 0.1061798 0.30401924 13552576
0.77482772 0.11446812 0.30507019 13092540
0.77900004 0.12061343 0.30816218 12961471
0.78550005 0.12556837 0.30468747 12106161
0.78900003 0.13139705 0.30657688 9606540
0.79223073 0.13621826 0.30490363 9672076
0.78822714 -0.15399349 0.31499943 12433841
0.79000002 -0.15879287 0.31528774 12104363
0.77800006 -0.14211427 0.31444591 13222327
0.78278571 -0.14648144 0.31528592 12235947
0.77409387 -0.13498673 0.3149417 14144197
0.76866674 -0.12091509 0.31756964 13486523
0.7708078 -0.12502466 0.31442961 13749183
0.7648437 -0.11429615 0.31492066 13749182
0.77000004 -0.11872112 0.31000966 13946561
0.75849998 -0.10299689 0.3170476 13814719
0.76070601 -0.10618536 0.31349394 13617598
0.75694597 -0.094728068 0.31480622 14012099
0.74900001 -0.080414817 0.31645894 13354685
0.75351506 -0.085287489 0.31448597 13683136
0.74695235 -0.075036056 0.3136355 13617087
0.75000006 -0.075254895 0.3151257 13683136
0.74355561 -0.065137804 0.31399727 13024950
0.73725003 -0.055080503 0.31416875 12893878
0.74050003 -0.058266278 0.31156659 13485757
0.73240006 -0.045544643 0.3126168 12960440
0.72785717 -0.03396818 0.31263667 12631987
0.73025 -0.038655374 0.31238291 12368559
0.72556251 -0.024818696 0.31228846 12565680
0.72654551 -0.01522623 0.31230623 12631730
0.7282728 -0.0059611993 0.31165329 12829110
0.72900003 0.0027960401 0.31227529 12039595
0.73125005 0.0079405708 0.31238344 12829367
0.73449999 0.013427995 0.31176236 13223612
0.74320012 0.018336806 0.31488019 12434353
0.74600005 0.025854202 0.31393325 13355966
0.75349998 0.025822034 0.31924218 13026488
0.74666673 0.035492521 0.31226942 13356224
0.75328571 0.035267305 0.31713679 13290431
0.74716669 0.044845831 0.31131151 13421505
0.75575 0.04536207 0.3175447 13487812
0.74900001 0.051968578 0.31207538 13487041
0.75444448 0.056368724 0.31474158 13487297
0.75694996 0.064751007 0.313086 13355453
0.76133347 0.066490009 0.31840262 13421760
0.75900006 0.074206516 0.31157777 13355708
0.76133341 0.075548962 0.3158792 13487294
0.76137501 0.084911972 0.31456086 13487038
0.76461899 0.095035829 0.31466573 13683905
0.76755553 0.10227149 0.31282029 13749954
0.77081257 0.10615134 0.31552547 13750211
0.77415377 0.11450064 0.31474793 13092797
0.77900004 0.12061343 0.31545681 13093313
0.78480947 0.12606721 0.31483349 11514025
0.78879148 0.13444079 0.3156518 9672075
0.79000002 0.13772827 0.31189716 9606282
0.79057169 0.14441705 0.31518397 9606538
0.79170001 0.15501519 0.31503907 9606282
0.79151732 -0.16478637 0.32531789 9013633
0.78852946 -0.15339482 0.3245284 12302511
0.79000002 -0.15809934 0.32615301 10526358
0.77900004 -0.1419926 0.32366323 12301483
0.78405893 -0.14648187 0.32538468 12301996
0.77423084 -0.13520207 0.32467893 14012613
0.76807696 -0.12285166 0.32361969 13355196
0.77064294 -0.12719791 0.3249577 13552318
0.76474994 -0.11500695 0.32438603 13288890
0.75833338 -0.10272092 0.32128999 13814975
0.76176929 -0.10565604 0.32466948 13486012
0.75787497 -0.09556096 0.32242724 13683390
0.76116675 -0.095086336 0.32605422 13354427
0.75779998 -0.08490859 0.32283801 13486270
0.76100004 -0.085266203 0.32598284 13486271
0.75600004 -0.074843936 0.32283169 13288634
0.76242864 -0.075734451 0.32761678 13552321
0.74900001 -0.062880591 0.32084247 12104875
0.75600004 -0.066121802 0.32428524 12499120
0.76066667 -0.067422293 0.32762077 13025977
0.75700003 -0.05291931 0.32604155 12631732
0.75900006 0.018014181 0.32512611 12565939
0.76233339 0.016901717 0.32774478 9474440
0.75700003 0.028599618 0.32072508 13421246
0.76520002 0.025335144 0.32778195 9540490
0.75800008 0.032780219 0.32114875 13421246
0.76462507 0.035149623 0.3259733 10198163
0.76383334 0.045846161 0.32421991 11908782
0.77000004 0.048919179 0.3280355 10329752
0.76250005 0.05557812 0.32216457 12961469
0.77180004 0.055542976 0.32880232 9869455
0.76560003 0.063697539 0.32293648 12567225
0.77262503 0.066042818 0.32847697 10265241
0.76616669 0.074686699 0.32102159 13421761
0.77209091 0.075671948 0.32629877 10593692
0.76750004 0.084248431 0.32158026 13289147
0.77270001 0.085269511 0.32647392 10723737
0.76900005 0.092961602 0.32130864 13486782
0.77311772 0.095428504 0.32532185 11644582
0.7745418 0.10519024 0.32521507 12369073
0.77565217 0.11441424 0.32436582 12764348
0.78000003 0.11894227 0.32864371 12764093
0.78508013 0.12523918 0.32490054 11119267
0.78900003 0.13324411 0.32299522 9606283
0.79056251 0.13640046 0.32684913 9474954
0.79195464 0.14512214 0.32491896 9540490
0.79140007 -0.1646339 0.33529979 9013891
0.78884625 -0.1528791 0.3336499 12237491
0.79008335 -0.15726843 0.33535871 10592666
0.77900004 -0.14016895 0.33004603 12170668
0.78666675 -0.14567487 0.33575195 11052702
0.77622229 -0.13381685 0.33230159 13289147
0.78228569 -0.13579218 0.33745584 12894391
0.77430779 -0.12482239 0.33349979 13289405
0.7743637 -0.11527436 0.33451054 12763319
0.78000003 -0.11113297 0.33959967 10132116
0.76900005 -0.10146463 0.33120999 13486528
0.77423084 -0.10598659 0.33542046 11842475
0.76700002 -0.095365167 0.33034855 13618114
0.77633333 -0.095160998 0.33800328 10132370
0.76850003 -0.087904438 0.33099461 14078665
0.77880007 -0.085436486 0.3390772 9803662
0.77666664 -0.075206064 0.33814839 9539976
0.77800006 -0.06895785 0.33872893 9802633
0.76800001 0.018227788 0.33077925 9408904
0.77466673 0.016574068 0.33546412 9935507
0.76900005 0.020051764 0.33120999 9540490
0.77530003 0.024753867 0.3348338 10001813
0.78000003 0.029468562 0.33777368 9870741
0.77362502 0.035340112 0.33252484 9869970
0.78300011 0.034168541 0.33907282 9936534
0.77522224 0.043805487 0.33268219 9869714
0.78100008 0.047791254 0.33637843 10792098
0.77560008 0.054723442 0.33223689 9869455
0.78320003 0.055260591 0.33732596 10792097
0.77699995 0.064827107 0.3328366 9870483
0.78400004 0.064493351 0.33767051 10791841
0.77642864 0.073993906 0.33129525 9410448
0.7841112 0.075512253 0.33710918 10726051
0.77600002 0.084724657 0.33059165 9803151
0.78427279 0.085209161 0.3367894 11053988
0.77825004 0.094081849 0.33155018 9869202
0.78525013 0.095689476 0.3371402 10461852
0.77900004 0.10967152 0.33186969 12501945
0.78366673 0.10482275 0.33569705 10922659
0.77900004 0.112407 0.33186969 12961726
0.78337491 0.11556014 0.33534151 12106418
0.78761917 0.12493595 0.33492777 10461338
0.79025006 0.12929288 0.33712533 9211782
0.79224008 -0.16480836 0.34493107 9540489
0.7913847 -0.1551515 0.34470144 9013633
0.78880006 -0.14267114 0.34232324 10198164
0.79147059 -0.14579244 0.34612119 8882561
0.7870909 -0.13475858 0.34302342 9933963
0.79066664 -0.13548274 0.34763741 9013633
0.78540003 -0.12477329 0.34287316 9473670
0.79020005 -0.12553489 0.34774035 8816253
0.78541666 -0.11465913 0.34349453 10131857
0.79000002 -0.11718126 0.34765232 8749947
0.78640002 -0.10468258 0.34515017 9342854
0.78622222 -0.095863111 0.34496996 9277318
0.79000002 -0.09128961 0.34765232 8290166
0.78666681 -0.085379623 0.34434387 10592923
0.79079998 -0.084903523 0.34800434 8158840
0.78599995 -0.074396782 0.34457976 9934993
0.79025006 -0.07559476 0.34776235 8093559
0.78677779 -0.065638818 0.34357521 10066576
0.78887504 0.015952643 0.34392551 7830388
0.7906 0.014691743 0.34754667 7830131
0.7884444 0.025173057 0.34512275 7633524
0.79016668 0.025229149 0.34957543 7698801
0.78858328 0.035330515 0.3442609 7765108
0.79049999 0.035108354 0.34848961 7764335
0.78785717 0.043730583 0.34170389 9869972
0.79092306 0.045121439 0.3464931 7698546
0.78800005 0.054674555 0.34123802 10857891
0.79116678 0.054893553 0.34631503 7830390
0.78850007 0.065554298 0.34214723 9870485
0.79091668 0.064597704 0.34666845 7896183
0.78854555 0.074598916 0.3423138 9673107
0.79107696 0.075615592 0.34698775 7699059
0.78900003 0.085220478 0.34167105 10791074
0.79173338 0.085516952 0.34656385 8093560
0.78900003 0.098149925 0.34167108 10856867
0.79183328 0.094485983 0.34599078 8554110
0.78850007 0.10616336 0.34214717 10264474
0.79120004 0.10434933 0.34670025 8225146
0.78830761 0.11467315 0.34293419 11514024
0.79071426 0.11502286 0.34743819 9869200
0.78875005 0.12166185 0.34202456 8882306
0.79122227 0.12538813 0.3454136 9211525
