# .PCD v0.7 - Point Cloud Data file format
VERSION 0.7
FIELDS x y z rgb
SIZE 4 4 4 4
TYPE F F F U
COUNT 1 1 1 1
WIDTH 603
HEIGHT 1
VIEWPOINT 0 0 0 1 0 0 0
POINTS 603
DATA ascii
0.41610003 -0.013115145 -0.070835277 12366503
0.41250005 -0.0051814308 -0.070512533 12959925
0.4119091 0.0049593272 -0.070411518 13158074
0.41614288 0.012942172 -0.070716865 12433839
0.42200002 0.017923748 -0.070554398 10790298
0.4465 -0.030692428 -0.060645502 11380377
0.45000002 -0.031457979 -0.06006743 11314328
0.4271667 -0.021363491 -0.061847132 11906211
0.43600002 -0.025180157 -0.061668515 11971747
0.44200003 -0.028141269 -0.060952231 11576987
0.41645107 -0.012677911 -0.065603755 12300969
0.42146349 -0.017265752 -0.063305698 12169383
0.40899995 -0.0021204024 -0.061860174 13289659
0.41151795 -0.005792439 -0.065621674 13025718
0.40899995 0.001363524 -0.06163891 13158330
0.41146863 0.0054775593 -0.065480813 13223867
0.41600004 0.012138822 -0.065861002 12368559
0.42239293 0.016775107 -0.066587083 11645606
0.42573345 0.02086902 -0.066393323 11316899
0.48325002 -0.041137852 -0.052338891 10985363
0.49411118 -0.04624439 -0.051300228 10787984
0.5 -0.048999418 -0.050354462 11051156
0.44900003 -0.030336956 -0.059933949 11314328
0.45635715 -0.032208562 -0.057935052 10985877
0.46325001 -0.034017216 -0.055488538 11248535
0.47280002 -0.038367834 -0.053590398 10853520
0.41700003 -0.020365221 -0.050781462 12169383
0.42657143 -0.021263078 -0.057802942 11840418
0.434625 -0.024156349 -0.058903545 11971489
0.44550002 -0.028018532 -0.058943931 11380121
0.45585722 -0.029275591 -0.056879897 11182999
0.41588068 -0.013882117 -0.054020964 12235176
0.42192006 -0.017686253 -0.057505641 11972004
0.40821087 -0.0040561948 -0.054578949 13355197
0.4115417 -0.0085790856 -0.056662723 12498861
0.40840036 0.0034226363 -0.054388575 13158845
0.41103128 0.0080131544 -0.057092942 12961467
0.41544449 0.012466013 -0.0578354 12237744
0.421 0.01492224 -0.057678282 11579814
0.50622219 -0.051454172 -0.047420666 10985619
0.51510251 -0.054662496 -0.043210112 10919825
0.49640748 -0.042794976 -0.046496909 11116949
0.50396562 -0.047194172 -0.044279221 11117205
0.51050007 -0.048833318 -0.04125306 11117203
0.49593332 -0.03768925 -0.042284321 11840672
0.41700003 -0.020487247 -0.047120694 11906465
0.40880004 -0.010394672 -0.044041768 12433582
0.4139536 -0.015124886 -0.045522489 12169638
0.40682164 -0.0051441607 -0.045209184 13092025
0.40717849 0.0043736114 -0.045085993 13027517
0.51540005 -0.052043684 -0.037910622 11248533
0.49746159 -0.041765053 -0.03446874 11906463
0.50372732 -0.045670554 -0.035936728 11774877
0.51025003 -0.048809405 -0.036456302 11445912
0.48723078 -0.032659106 -0.032836225 11906464
0.49251515 -0.037438706 -0.034788765 11972257
0.40806457 -0.011949512 -0.034378983 12368045
0.41166669 -0.015824439 -0.03632262 12038566
0.40454584 -0.0050102691 -0.034974463 13092282
0.4063524 0.0043912521 -0.03481672 13027260
0.41000003 0.0097309807 -0.031692486 12172210
0.40900001 0.010664723 -0.039274994 11777452
0.41075 0.011432852 -0.03475618 11908782
0.49678579 -0.042706635 -0.027767673 11906463
0.48653847 -0.032527335 -0.021663597 11840928
0.49191114 -0.036106098 -0.025869748 11906464
0.41200003 -0.020121034 -0.020273091 11643552
0.49100003 -0.029726392 -0.027608726 11906465
0.40716237 -0.013502989 -0.024594991 12236202
0.41030002 -0.017349115 -0.026050413 11906724
0.4029299 -0.0050605033 -0.02501772 13026747
0.40530124 0.0038131417 -0.025585027 13027518
0.41060004 0.0093608266 -0.025201339 12238516
0.4115001 0.011091306 -0.025062792 12106674
0.49228576 -0.040835109 -0.012205889 11841185
0.48680496 -0.033787251 -0.015025508 11840929
0.49111766 -0.038391288 -0.014970951 11840929
0.41183332 -0.020273253 -0.015446295 11775392
0.40591037 -0.013437867 -0.014787362 12236458
0.41068745 -0.018135251 -0.017024867 11906978
0.40090948 -0.0050349557 -0.015038731 13092795
0.40360868 0.004693747 -0.014939856 12895675
0.40700004 0.010786445 -0.014919383 12303796
0.49100003 -0.04007135 -0.0092176879 11775392
0.48900002 -0.034184337 -0.0091801416 11841185
0.49016669 -0.037135202 -0.0088196779 11841185
0.40849999 -0.021225175 -0.0031284867 11840928
0.41000003 -0.021559067 -0.0082729412 11709599
0.40430775 -0.014901672 -0.004690446 12104872
0.3986429 -0.0045376904 -0.0018632787 13158846
0.40005857 -0.0053111799 -0.0064502512 13027259
0.39900002 0.00012924365 -0.00048504851 13356225
0.40376067 0.0049935402 -0.0049003139 12961468
0.40796295 0.011522849 -0.0052206814 12238004
0.39834785 -0.011467761 0.0072785588 12500400
0.40163633 -0.01539781 0.0043732794 12038822
0.39754975 -0.004990987 0.0050972458 13158846
0.39856675 0.0011562639 0.0057657221 13224896
0.40128565 0.0058666151 0.0048492928 12961468
0.40430003 0.010826135 0.0052764257 12303539
0.41000003 0.012610433 0.0067002093 10922143
0.78866673 0.14118864 0.0085801175 11053727
0.79286379 0.14546126 0.0051081628 11053727
0.40733334 -0.0208467 0.015234902 11775392
0.41648144 -0.024716904 0.016522568 11840928
0.42000002 -0.028377552 0.01866236 11972258
0.39732817 -0.012359311 0.014965051 12434094
0.40181628 -0.017461114 0.014915498 11775649
0.39587271 -0.0049685277 0.014807479 13224639
0.39767864 0.0022097717 0.015590447 13159104
0.40037021 0.0066400161 0.014143562 12830139
0.40150002 0.010469159 0.013610108 11842988
0.78523076 0.13600299 0.013821391 10987676
0.78799993 0.1442226 0.015335933 10987933
0.79033333 0.14765431 0.011681889 10922141
0.78900003 0.15310004 0.017973242 11053725
0.7917273 0.15527238 0.014198068 10987933
0.42100003 -0.031261031 0.028844072 11709086
0.40568182 -0.021672301 0.024628026 11709343
0.41666675 -0.02639401 0.024602566 11643806
0.42036369 -0.028760083 0.027536506 11511707
0.39662066 -0.013378015 0.025463853 12302764
0.40076664 -0.018291967 0.023966104 11709856
0.39361826 -0.0049422942 0.024858192 13093052
0.39585996 0.0038965866 0.024971187 12895931
0.78800005 0.13814765 0.026718743 10856348
0.78806454 0.14492981 0.024128253 10922141
0.79025 0.14548104 0.02956415 10922141
0.78876919 0.15394369 0.022548907 10922141
0.79100007 0.15652333 0.026919939 10922141
0.7924667 0.16536994 0.025011314 10987676
0.42171428 -0.03131431 0.031291071 11380378
0.39809999 -0.020654371 0.036138348 11709599
0.40077782 -0.021452025 0.032823008 11709343
0.42150003 -0.02946564 0.032050572 11380634
0.39519432 -0.015069772 0.035209745 12105128
0.40000001 -0.019534983 0.031351581 11709599
0.39248791 -0.0053854608 0.034894552 13027002
0.39447117 0.0033922589 0.035188004 12830138
0.78900003 0.13693826 0.032287978 10922141
0.79000002 0.13896121 0.031404201 10922141
0.79294121 0.14614305 0.035237826 10856348
0.39766666 -0.021931835 0.046219166 11577757
0.40045455 -0.024244964 0.046172973 11446427
0.39302781 -0.014995929 0.045148853 12170922
0.39099962 -0.0053631901 0.044829778 13027002
0.39282495 0.0030620014 0.044994775 12764346
0.79200006 0.13848977 0.044052113 10856348
0.39457577 -0.021345425 0.055205103 11512477
0.40000001 -0.026089832 0.059911996 11511707
0.38899997 -0.011940188 0.056280494 12631987
0.39136589 -0.01601244 0.054383233 12105129
0.38874292 -0.0059575601 0.055632412 12895673
0.39004347 -0.0030494016 0.05163186 13027259
0.38900003 0.00012600447 0.059175078 13158846
0.39173344 0.0029916398 0.055309772 12764089
0.405 -0.030524835 0.067773305 11709086
0.39577964 -0.022303192 0.06505537 11577758
0.40181813 -0.027238475 0.065719269 11643294
0.38843063 -0.013149213 0.065476052 12566452
0.39129546 -0.017592631 0.064228222 12039337
0.38804826 -0.0052201576 0.065212265 12895674
0.38899997 0.0015830541 0.066200137 12961468
0.39085719 0.0043867333 0.063264221 12632504
0.40483332 -0.030670034 0.071060486 11709086
0.38866672 -0.020801244 0.079140849 12105127
0.39467385 -0.024399333 0.07530839 11511965
0.40146154 -0.027922375 0.071840324 11643294
0.38685846 -0.014899479 0.075460836 12237487
0.39000005 -0.019388981 0.072679773 12039080
0.38619691 -0.0054027657 0.075272046 12237744
0.38850006 0.0025366475 0.075098492 12632505
0.78850007 0.13654558 0.078722097 10658967
0.7913751 0.13781427 0.073139809 10593176
0.78900003 0.14063238 0.079388089 10658967
0.40333334 -0.030713826 0.087162077 11577246
0.38718003 -0.02228459 0.085522555 10722962
0.39339486 -0.026271552 0.083855927 11445915
0.40200004 -0.02998464 0.08656206 11577246
0.37890914 -0.01257835 0.088363335 1976094
0.38231248 -0.015553876 0.08426366 2896427
0.37886372 -0.0073753474 0.088554233 2041631
0.3819823 -0.0047977157 0.084278949 2896171
0.38698867 0.0035206529 0.085191019 12172209
0.78800005 0.13731858 0.084083289 10593174
0.78890002 0.1419075 0.086026527 10658967
0.79073334 0.14624888 0.084373757 10658967
0.79268956 -0.17494777 0.094477631 11645608
0.79267997 -0.16489774 0.094604626 11711401
0.39620003 -0.030788865 0.094456866 11380122
0.40000001 -0.031708278 0.091749839 11445914
0.38498446 -0.022626549 0.095380887 10459533
0.39246669 -0.027624652 0.095224202 11445915
0.37701824 -0.013954588 0.095847502 1975839
0.38078117 -0.018207708 0.093078531 1975324
0.37684712 -0.0054777539 0.095284268 2107167
0.3804445 -0.0012618691 0.091320761 2173474
0.37849998 0.00041835196 0.097007573 12632498
0.38516977 0.0035097871 0.092981309 11975088
0.39033332 0.0080461008 0.092273891 11382440
0.39600003 0.010325747 0.096394606 10132627
0.78800005 0.13860942 0.090355806 10658967
0.78900003 0.14300717 0.091262065 10593174
0.79010528 0.1457938 0.096243873 10593174
0.78900003 0.15514502 0.096275523 10593174
0.79000026 0.15452169 0.094921663 10658967
0.79092318 0.16490529 0.094608054 10658967
0.79275995 0.17470907 0.094614737 10724761
0.79259992 -0.16488324 0.10479913 11711401
0.79090017 -0.15527216 0.1045725 11842986
0.78900003 -0.145293 0.10820229 12040365
0.79039317 -0.14459725 0.10430757 11974572
0.79173332 -0.13504425 0.1046816 12040365
0.38900003 -0.030836301 0.10743985 11314841
0.39200002 -0.030729689 0.10229181 11445660
0.37831253 -0.020524211 0.10620164 5131331
0.3854239 -0.025202731 0.10517288 11051414
0.39100003 -0.029164165 0.10112369 11379867
0.36900002 -0.011974174 0.10969047 2040602
0.37284434 -0.014733252 0.10500883 1975582
0.36899999 -0.0072230771 0.10969048 1712153
0.37228873 -0.0049215648 0.10499013 2172964
0.37438467 0.00039138779 0.10326216 12567224
0.79250008 0.14589518 0.10571457 10527381
0.79311997 -0.16499248 0.11508159 11710633
0.78900003 -0.15181929 0.11756072 14538192
0.79050004 -0.15561448 0.1142795 11578534
0.78865612 -0.14467576 0.11535412 14145487
0.79000002 -0.14954583 0.11185329 12039596
0.78850001 -0.13550958 0.11754671 15592932
0.79025 -0.13402168 0.11250504 12961468
0.78854555 -0.12560834 0.11877894 15658724
0.79085714 -0.12493422 0.11351547 13685191
0.78864694 -0.11486273 0.11823138 15592930
0.79088247 -0.11518767 0.11322893 13619141
0.78864288 -0.10524335 0.11825404 15527651
0.79164702 -0.10483255 0.11311942 13487811
0.78857148 -0.09534438 0.11863896 15461601
0.79296011 -0.094563268 0.1132676 13948105
0.78850001 -0.084348001 0.11856232 15264479
0.7930001 -0.08549317 0.11319954 13159360
0.78833342 -0.079101257 0.11807579 15396065
0.38900003 -0.030836301 0.11578753 11380121
0.39199999 -0.032061014 0.11495806 11314584
0.40133333 -0.035887342 0.11867461 11906465
0.37716007 -0.021175759 0.11504325 7171430
0.38515303 -0.026341192 0.11496178 11117207
0.36781383 -0.013464591 0.11512463 1712153
0.37156254 -0.018174775 0.11444391 2041631
0.36782578 -0.0050461511 0.11493416 2501926
0.36816669 0.00011925615 0.11590513 12830395
0.37 0.00011985 0.11172009 12765115
0.77825004 0.13507366 0.11793227 10527381
0.78244442 0.13783638 0.11515394 10658967
0.78678948 0.14499199 0.1167756 10593174
0.79057139 0.14646569 0.11206596 10527383
0.78824997 -0.15336765 0.12516709 14473170
0.7902 -0.15790835 0.12353518 12960189
0.78599989 -0.14510997 0.12508479 15000282
0.78560013 -0.13491966 0.12502119 15000281
0.7854802 -0.1247858 0.12500155 14868694
0.78528577 -0.11497153 0.12477272 14934487
0.78525925 -0.10493599 0.12517034 14671315
0.78664297 -0.094912171 0.12505645 14934487
0.78661907 -0.08576902 0.12483428 14868695
0.38700011 -0.031348936 0.12593475 11248536
0.39250007 -0.033299524 0.12351049 11445914
0.40400001 -0.036754213 0.12056759 11314328
0.37658623 -0.022163864 0.12431706 8815997
0.38353574 -0.02684184 0.12496981 11051414
0.3650004 -0.014308888 0.1251407 1777944
0.37063634 -0.019441916 0.12350536 1777433
0.36509588 -0.0052059032 0.12493543 2172445
0.36630005 0.00011865151 0.12431282 12764085
0.77787507 0.13603321 0.1229984 10527381
0.78150004 0.13838141 0.12803012 10593174
0.78424001 0.1452992 0.12480751 10527381
0.78849995 0.15333323 0.126012 10461588
0.79106677 0.15742189 0.12391635 10527381
0.78789997 -0.15376152 0.13461255 14012875
0.79000002 -0.15879287 0.13497083 14209742
0.78536659 -0.14499296 0.13509926 14605524
0.78499991 -0.13481662 0.13503547 14408144
0.78469998 -0.12466231 0.13498507 14276557
0.78393757 -0.11501998 0.13508511 14276557
0.78441191 -0.10506254 0.13472027 14144971
0.78546655 -0.095361963 0.13511482 14210764
0.7858572 -0.088314004 0.13413061 14276557
0.38512501 -0.030754741 0.13296707 11183000
0.39400002 -0.034922097 0.13280222 11249048
0.36900005 -0.02061253 0.13560553 3422005
0.37642315 -0.023269339 0.13439275 9210756
0.38198152 -0.02715425 0.13392974 10920086
0.36523893 -0.015238596 0.13351646 1646614
0.37063152 -0.015177882 0.13899118 988687
0.36478195 -0.0046786293 0.13317925 2303517
0.37068745 -0.0055204639 0.13899218 1184781
0.36300001 0.00011758257 0.13170098 12106158
0.78400004 0.13974117 0.13027503 10461588
0.78756255 0.14671665 0.1334051 10527381
0.79000002 0.14635883 0.13866964 10461588
0.78869236 0.15392853 0.13332769 10527381
0.79038465 0.15667905 0.13674496 10461588
0.78854162 -0.15388586 0.14487489 14407376
0.79000002 -0.15879287 0.14514256 12696760
0.78648001 -0.14519943 0.14541745 14737110
0.78533328 -0.13487355 0.14520511 14473937
0.78583992 -0.12484262 0.14529948 14210765
0.78623348 -0.11478147 0.14537309 14408143
0.78632003 -0.10467122 0.14538947 14276557
0.78521734 -0.0956534 0.14502399 14144971
0.78500003 -0.08918041 0.14207996 14276557
0.37211114 -0.020979844 0.1451669 5329483
0.37300012 -0.014955021 0.14463618 856844
0.36900002 -0.0016081453 0.1468354 1708296
0.37213975 -0.0056943437 0.14433442 790536
0.79105264 0.14548214 0.14421682 10461590
0.79188877 0.15453802 0.14435844 10527124
0.79271424 -0.16490997 0.15491928 10065039
0.78869992 -0.15391658 0.15505847 14473167
0.79000002 -0.15879287 0.15531428 11775913
0.78736007 -0.14536124 0.15479547 14802903
0.78650004 -0.13507418 0.15462758 14671317
0.78663999 -0.12496981 0.15465502 14210765
0.78720015 -0.11492138 0.15476404 14210765
0.78751999 -0.10483133 0.15482673 14342350
0.78669232 -0.097495824 0.15409836 14210764
0.36079311 -0.02203187 0.1551045 2435619
0.359 -0.012980343 0.15931445 988944
0.36085445 -0.015474496 0.15563929 1054737
0.35900006 -0.0091283936 0.15966463 857615
0.36125982 -0.0053163636 0.15717295 1054222
0.79138094 0.14555641 0.15585077 10461588
0.7885555 -0.15440157 0.16508085 14012874
0.79000002 -0.15879287 0.1645613 11117982
0.78726679 -0.14534305 0.16491376 14934232
0.78761125 -0.13526478 0.16498727 14934488
0.78733349 -0.12508088 0.16492838 14539729
0.78649998 -0.11482215 0.16475128 14276558
0.78576672 -0.10459702 0.16459601 14342350
0.78569233 -0.097936615 0.16450964 14276557
0.34469774 -0.022312034 0.16803034 1186580
0.36107814 -0.02207315 0.16480125 922892
0.34546876 -0.014950248 0.16784871 857615
0.35635054 -0.014084611 0.16462834 1054737
0.36004007 -0.01835897 0.16272305 1054734
0.34519717 -0.0060631516 0.16832104 923149
0.35613072 -0.0068308813 0.16518636 857358
0.36051425 -0.0038360655 0.16195302 857615
0.78866667 -0.15310976 0.17486933 14341839
0.79049999 -0.15778348 0.17558466 12960188
0.78788012 -0.14545575 0.17518681 14868440
0.78800005 -0.13533185 0.17521305 14868696
0.78736001 -0.12508541 0.17507103 14671317
0.7859 -0.11473505 0.17474674 14342352
0.78430784 -0.10426313 0.1746037 14342352
0.78333336 -0.097854428 0.17509151 14210766
0.33771107 -0.022624917 0.17782779 1186579
0.34144938 -0.02303545 0.17299311 1646360
0.33753836 -0.01490318 0.17777221 1121041
0.34141505 -0.015076077 0.1730167 1186578
0.3380233 -0.0066628 0.17865443 989200
0.34121242 -0.0058273524 0.17374229 1054993
0.78900003 -0.15173134 0.18387911 13947596
0.79147369 -0.15675192 0.18524882 13355203
0.78818518 -0.14530772 0.18489045 14539990
0.78800005 -0.13533182 0.18535896 14671575
0.78796303 -0.12538512 0.18483812 14605525
0.78764725 -0.11498871 0.18500641 14342352
0.7865454 -0.10545528 0.18426718 14276559
0.78433341 -0.098286413 0.18235485 14210766
0.33349997 -0.02243829 0.18344298 1251858
0.33361229 -0.01483448 0.18380737 1186578
0.33379999 -0.0054392233 0.18344381 1054737
0.78900003 -0.15166537 0.19575305 14079693
0.79100001 -0.15635099 0.19474947 13684166
0.78874981 -0.14581516 0.19509737 14606294
0.7882666 -0.13537662 0.19557171 14474195
0.78892839 -0.12513515 0.1951419 14473938
0.78833336 -0.11539725 0.19552638 14408145
0.78821439 -0.10663541 0.19582167 14408145
0.78899997 -0.15291873 0.20525225 14342352
0.79066676 -0.15784805 0.20464925 12630707
0.7880401 -0.14548536 0.20473875 14671573
0.7881667 -0.13535972 0.20477135 14671317
0.78891981 -0.12533166 0.20496735 14473938
0.78834617 -0.11565932 0.20439214 14473938
0.78800005 -0.10673863 0.20288387 14342352
0.78899986 -0.15305066 0.21514721 14276304
0.79039997 -0.15794855 0.21460381 12499634
0.78800005 -0.1454778 0.21487452 14737110
0.78800005 -0.13533184 0.21487457 14671317
0.78806669 -0.12519638 0.2148924 14473938
0.78796303 -0.11629852 0.21448852 14408145
0.78750002 -0.10851446 0.21289408 14539731
0.79251856 -0.1646622 0.2248666 9802894
0.78899992 -0.15305068 0.22530606 14210765
0.79016668 -0.15790166 0.22471355 12763063
0.78800005 -0.14547782 0.22502054 14539731
0.78800005 -0.13533184 0.22502051 14737110
0.78800005 -0.12518588 0.22502054 14539731
0.78800005 -0.1168846 0.2250205 14473938
0.78876179 -0.1536206 0.23517327 14276559
0.79000002 -0.15848462 0.23422219 12894651
0.78800005 -0.14547782 0.23516649 14737110
0.78800005 -0.13533181 0.23516655 14737110
0.78796673 -0.12518074 0.2351566 14605523
0.7879445 -0.11718401 0.23545742 14473938
0.78854543 -0.15405446 0.24497853 14342096
0.79000002 -0.15879287 0.24501038 12894652
0.78732002 -0.14535265 0.2451005 14803160
0.78796673 -0.13532592 0.24530199 15000538
0.78800005 -0.12518588 0.24531247 14737109
0.78793341 -0.11742838 0.24566035 14671315
0.79183334 0.13789333 0.24511701 10132625
0.79187989 0.1448538 0.24466704 10066832
0.78856254 -0.15319741 0.25448734 14013644
0.79055554 -0.15808256 0.25577253 13487558
0.78679293 -0.14512996 0.25490758 14474451
0.78649992 -0.13507384 0.25497001 14408658
0.78696692 -0.12502177 0.25512058 14342352
0.78625941 -0.11577579 0.25574419 14276559
0.78600001 -0.10830776 0.25941017 14210766
0.79186106 0.15504624 0.25485539 10001296
0.78838891 -0.1529329 0.26481235 14014157
0.79027271 -0.15783891 0.26502541 13948109
0.7861923 -0.14528696 0.26478183 14343122
0.78566653 -0.13493134 0.26481855 14342865
0.78600001 -0.12486813 0.26493031 14079437
0.78599989 -0.1147479 0.26493022 14013387
0.78644449 -0.10529941 0.26579711 14013387
0.78766674 -0.098702811 0.26856586 13881799
0.78900003 0.12955 0.26963562 10132370
0.78900003 0.13416767 0.26963562 10000784
0.79200006 0.1356716 0.26475009 10001039
0.79106671 0.14470424 0.26570907 9935246
0.79173332 0.1550221 0.26500919 9935246
0.78841174 -0.15337184 0.27529758 14013903
0.79055554 -0.15828806 0.27448508 13553353
0.78642303 -0.14504595 0.27449119 14343123
0.78670001 -0.13510877 0.27437571 14540501
0.78659993 -0.12496345 0.27434114 14145742
0.78676689 -0.1148598 0.2743988 14013642
0.78723997 -0.10479143 0.27456316 14144972
0.78822219 -0.09521772 0.27524766 13947593
0.78900003 -0.085863747 0.27794737 14013385
0.78800005 -0.079067811 0.27851745 13947592
0.78640008 0.12912309 0.27610955 9934737
0.78808695 0.13517681 0.27517813 10000783
0.78900003 0.14174062 0.27573088 9869453
0.79000002 0.14623553 0.27515566 9935246
0.79186666 0.15430842 0.27469346 9935246
0.78866661 -0.15298678 0.28521514 14079950
0.79049999 -0.15796866 0.28495282 13684939
0.78696561 -0.1454158 0.28475821 14145743
0.78627771 -0.13503593 0.2843498 14474708
0.78653347 -0.12495246 0.28444195 14277329
0.78677797 -0.11486113 0.28453094 14079949
0.78723347 -0.10479093 0.28469667 14145485
0.78813893 -0.09476389 0.28502357 14145228
0.7882666 -0.084630832 0.2850692 14145228
0.7880401 -0.075824738 0.28576329 14079435
0.78888893 -0.067870684 0.28847611 14079178
0.78783339 0.12905098 0.28645161 10526874
0.78840905 0.13415183 0.2841163 9869455
0.79000002 0.13785157 0.28736171 9935246
0.78900003 0.14063238 0.280718 9935246
0.79125017 0.14489451 0.28537962 9869453
0.78843749 -0.15317316 0.29551443 14014158
0.79027271 -0.15800704 0.29462484 13881804
0.78657144 -0.14501902 0.29517624 14145743
0.7856943 -0.13493712 0.29517561 14343122
0.78519994 -0.12474088 0.29498932 14343122
0.78497076 -0.11486714 0.29468462 14277329
0.78537506 -0.10488731 0.29528064 14343122
0.78641176 -0.094826199 0.29522499 14211536
0.78671867 -0.084808752 0.29578772 14079693
0.78735721 -0.075447716 0.29579836 14145742
0.78813791 -0.065403 0.29529771 14145741
0.7866112 -0.055400431 0.29756469 14145742
0.78400004 -0.049300715 0.299128 13553863
0.7768572 0.11664671 0.2977013 12961726
0.78600007 0.12553099 0.29568994 12698043
0.78900003 0.13170491 0.29487881 9671565
0.79114997 0.13648024 0.29528195 9869453
0.78845459 -0.1537011 0.30502227 14145233
0.79000002 -0.15879287 0.30511603 13684936
0.78681487 -0.14546604 0.3053183 14277073
0.78519994 -0.13485183 0.3050997 14540501
0.78499991 -0.12470926 0.30502266 14540501
0.78248292 -0.11502626 0.30480075 14343122
0.77892005 -0.10419586 0.30645287 14343122
0.7816667 -0.10514881 0.30153015 14343122
0.77900004 -0.09822493 0.30633855 14343122
0.7820372 -0.094538309 0.30447838 14343122
0.78366685 -0.085052542 0.30541828 14014157
0.78419352 -0.074895449 0.30541471 14013900
0.77900004 -0.063575529 0.30998585 14079950
0.78392857 -0.064895771 0.30459607 14145486
0.77900004 -0.057192735 0.30998585 14014157
0.78303343 -0.054738984 0.30516878 14014157
0.78300005 -0.049237832 0.30460975 13685449
0.77599996 0.11573946 0.3048982 13290691
0.77900004 0.12061343 0.30633852 13158849
0.78508335 0.12600325 0.30474588 12500918
0.78885716 0.13163714 0.30599293 9737612
0.79173076 -0.16456175 0.31526449 9539464
0.78854543 -0.15405446 0.31512645 14145232
0.79000002 -0.15879287 0.31528774 12039599
0.78628576 -0.14496708 0.31531599 14211536
0.78460008 -0.13487957 0.31483626 14343122
0.78445178 -0.12479953 0.31505513 14474708
0.78228581 -0.11505888 0.31515083 14474708
0.77900016 -0.10341532 0.31559709 14343123
0.78010523 -0.10595806 0.31523174 14408659
0.77900004 -0.091842145 0.31910411 14409172
0.78046435 -0.094950132 0.31480852 14277330
0.77900004 -0.085459366 0.31910411 14080207
0.78133321 -0.084801093 0.31457022 14014157
0.77846676 -0.073860414 0.31694117 13817035
0.78093755 -0.075617678 0.31315506 13882571
0.77655178 -0.065070122 0.31521416 13882315
0.78000003 -0.06822212 0.31038377 14079950
0.77680004 -0.058484286 0.31383386 14013645
0.78050005 -0.051820785 0.31058273 14079950
0.78200006 -0.04917495 0.31117964 13685449
0.77560884 0.11503968 0.31424168 13093057
0.77900004 0.12061343 0.31363317 13422023
0.78472728 0.12584798 0.31501886 12106162
0.78870004 0.13227063 0.31476924 9803660
0.79070586 0.1369089 0.31529629 9672074
0.78900003 -0.16043893 0.32874164 8816258
0.79146433 -0.16491342 0.32513544 9144451
0.78814805 -0.15452769 0.32510513 13158595
0.78475851 -0.14488377 0.3251335 14342867
0.77900004 -0.13250962 0.3271282 14672089
0.78184009 -0.13562936 0.32414529 14737625
0.77875 -0.12462761 0.32720521 14606551
0.78158313 -0.12508173 0.32290459 14540246
0.7789377 -0.11405903 0.32603061 14474708
0.78100008 -0.11615219 0.32205522 14408915
0.77822214 -0.10500997 0.32404655 14474708
0.77789307 -0.095027879 0.32430652 14343122
0.77890927 -0.085697636 0.32403973 14145743
0.78000003 -0.082830071 0.32864371 14014414
0.77838457 -0.075091816 0.32375863 13948621
0.78033334 -0.076472543 0.32878414 14014414
0.77600014 -0.065228641 0.32443178 13948621
0.77460003 -0.05922734 0.32382989 13948621
0.77700001 0.11666583 0.32010379 13224387
0.78000003 0.11894227 0.32133973 12961472
0.78680944 0.12595047 0.32467315 11382441
0.78900003 0.13139705 0.32412395 9803919
0.79091311 0.13630579 0.32551402 9606539
0.78900003 -0.16043891 0.33520636 8684673
0.7905001 -0.16537169 0.33491799 9013121
0.7881428 -0.15492909 0.33517271 11974322
0.78573912 -0.14530264 0.33506396 13750474
0.77900004 -0.13196251 0.33004603 14803675
0.78320003 -0.13524255 0.3353129 13422023
0.77900004 -0.12497184 0.33065391 14738138
0.78234994 -0.12483735 0.33632275 12435643
0.77900004 -0.11828512 0.33004603 14606551
0.78259999 -0.11470862 0.33459872 13553609
0.77900004 -0.10369589 0.33004603 14474708
0.78272223 -0.10510696 0.3349857 13619402
0.77900004 -0.095489457 0.33004603 14474708
0.78341174 -0.094572201 0.33547935 13422279
0.78456521 -0.084948428 0.33504516 13685193
0.78525001 -0.075116701 0.33545735 13553864
0.77900004 -0.064487353 0.33095786 14343379
0.78343755 -0.065887742 0.33548358 13422277
0.77800006 -0.059851289 0.33144367 14606294
0.78750002 0.1182424 0.33456969 13158851
0.7888748 0.12514347 0.33530775 11119269
0.79000002 0.12971419 0.33655587 9211271
0.7912001 0.13546994 0.33521506 9343881
0.79145837 -0.16480042 0.3447459 9672076
0.78900003 -0.15397421 0.34167105 8750207
0.79081243 -0.1554852 0.34592888 9342855
0.78874999 -0.14469333 0.34279418 10000273
0.79081821 -0.1454937 0.34717169 9671562
0.78794122 -0.13472497 0.34381843 10396059
0.79033333 -0.13511609 0.34903273 8817027
0.78792858 -0.12543836 0.34476593 10396318
0.79016668 -0.12491282 0.34926721 8685701
0.78768754 -0.11545537 0.34271803 10856101
0.79062498 -0.11449649 0.34746498 9146250
0.78800005 -0.10489392 0.3421616 10789793
0.79109991 -0.10530611 0.34721169 10001044
0.78845459 -0.095222384 0.34227446 10790048
0.78900003 -0.084709331 0.34167105 10921634
0.78900003 -0.07485833 0.34197888 10921634
0.79143751 -0.075244829 0.34666595 10001558
0.7884286 -0.065268375 0.34300655 10724767
0.79071426 -0.064795747 0.34743819 9014663
0.78900003 0.11846761 0.3453652 12041140
0.79000002 0.11676836 0.34857702 9277576
0.78900003 0.12154605 0.34290242 8948870
0.79032022 0.1260667 0.34594402 9278088
0.79033333 0.11805135 0.35396719 9212293
0.79116011 0.1243499 0.3555719 9278087
0.7911765 0.12544249 0.36505693 9278087
