# .PCD v0.7 - Point Cloud Data file format
VERSION 0.7
FIELDS x y z rgb
SIZE 4 4 4 4
TYPE F F F U
COUNT 1 1 1 1
WIDTH 565
HEIGHT 1
VIEWPOINT 0 0 0 1 0 0 0
POINTS 565
DATA ascii
0.79571432 0.19487897 -0.26525959 9012347
0.79900002 0.20039946 -0.26283759 4867387
0.80209088 0.20373663 -0.2651363 4801593
0.7956087 0.19493628 -0.25495782 8486002
0.7985 0.20120931 -0.25426126 4933179
0.80211115 0.20597963 -0.25395006 4998971
0.79573691 0.1946809 -0.24504746 9341569
0.79799998 0.20121615 -0.2460964 5195582
0.801 0.20512135 -0.24755725 5063996
0.80050004 0.19702771 -0.2314727 11447459
0.80514294 0.20436613 -0.23268005 5064766
0.81300002 0.20962059 -0.2312813 5591366
0.79775 0.19168288 -0.22507417 12106158
0.80262512 0.19767044 -0.22515701 9473157
0.80535299 0.20376927 -0.2250579 5065278
0.81033343 0.20893304 -0.22578096 5393987
0.81300002 0.21152382 -0.22652318 5722952
0.7981112 0.19166587 -0.21510822 11974572
0.80189478 0.19687866 -0.21443821 10328979
0.80387497 0.20232828 -0.21527855 4999227
0.80000007 0.18754058 -0.20149744 11908522
0.79900002 0.19104709 -0.20859385 12040365
0.80145842 0.1955449 -0.2043898 10263186
0.80300003 0.20140271 -0.2086982 5064252
0.79892856 0.1265042 -0.19294496 11974571
0.80000001 0.16881242 -0.19106318 11908779
0.79846156 0.17323321 -0.19802767 11908779
0.80035299 0.17527939 -0.19368184 11908779
0.79877782 0.18663031 -0.19201826 11842987
0.80025005 0.18404002 -0.19580682 11908779
0.80028576 0.19429787 -0.19809029 10395029
0.79866672 0.20031585 -0.1944849 5130302
0.80100006 0.20090109 -0.19880265 4999231
0.80050004 0.1248787 -0.18087509 11974572
0.80000007 0.16750146 -0.18432108 11974315
0.79900008 0.1787554 -0.18334246 11908524
0.80036354 0.17408399 -0.18595542 11908523
0.80000001 0.18004932 -0.18919037 11777195
0.80193746 0.1252194 -0.17497931 11974572
0.80058336 0.13270085 -0.17402215 11974572
0.80000001 0.16787601 -0.1798263 12039595
0.80000001 0.17068525 -0.1798263 12039595
0.80100006 0.19822264 -0.16370909 8419438
0.80442858 0.20256935 -0.16252437 5261118
0.81500006 0.20822833 -0.16030289 5393217
0.80200005 0.19802405 -0.15586945 10261641
0.80575001 0.2006779 -0.15423924 5787716
0.81400001 0.20654598 -0.15819767 5261118
0.8241666 0.21249978 -0.1553458 5262144
0.49254549 -0.042297479 -0.14247479 15262425
0.48900002 -0.034642242 -0.14128521 14275527
0.49018902 -0.034857787 -0.14352672 15131093
0.49235001 -0.027786303 -0.14230731 13618627
0.80200005 0.19793467 -0.14379744 11117975
0.80566669 0.20018546 -0.14715141 6511952
0.81300002 0.20645006 -0.14531873 5063995
0.82000005 0.2095058 -0.1478489 5130815
0.50160003 -0.050330471 -0.13505772 15525341
0.51100004 -0.053666189 -0.13041544 15985894
0.4952037 -0.043623138 -0.13591127 13551294
0.50247371 -0.047694419 -0.13256729 13551294
0.48822227 -0.034955367 -0.13438328 15789281
0.49032137 -0.0345226 -0.13678049 14210248
0.49374551 -0.026860567 -0.13510808 12829107
0.80475008 0.20655236 -0.13238111 2301717
0.80900002 0.21048312 -0.13071449 1446409
0.81000006 0.21263954 -0.13087608 1643016
0.51556534 -0.053127039 -0.12516776 14407376
0.52142859 -0.055983759 -0.12121637 14669780
0.48100004 -0.040381264 -0.12106991 16051172
0.4941667 -0.04187642 -0.12862264 14801618
0.50553334 -0.046155315 -0.12869953 14538446
0.5122571 -0.04701468 -0.12377397 13814724
0.47900003 -0.033765607 -0.12028616 15789283
0.48335844 -0.035068471 -0.12520891 15657696
0.49000001 -0.039989736 -0.12849718 16183271
0.48800004 -0.029544765 -0.12454546 14342089
0.49699998 -0.025110383 -0.1254615 13158072
0.50157142 -0.021642108 -0.12146562 12368814
0.50700003 -0.017635411 -0.12153196 12040364
0.51324999 -0.014244763 -0.12092271 12040365
0.52200001 -0.010829017 -0.1216137 12040365
0.5275715 -0.0075905877 -0.12229486 11842986
0.53155005 -0.0039325613 -0.12303058 11514021
0.53350008 0.00017281075 -0.12179565 11382435
0.80449998 0.20529194 -0.12433705 1643537
0.80900002 0.21048312 -0.12597978 1775118
0.537 -0.061426818 -0.1121157 14802388
0.54166669 -0.063651621 -0.11076631 15262941
0.51800001 -0.050965901 -0.11785073 13617345
0.52484101 -0.054371979 -0.11526213 14012104
0.53143752 -0.057990301 -0.1130779 14472655
0.47800002 -0.040129405 -0.11695953 15854050
0.51722854 -0.0469524 -0.1159824 13814725
0.52199996 -0.048100363 -0.11146891 13946311
0.4760755 -0.035342019 -0.11473651 15855075
0.48050004 -0.031340413 -0.11869492 12894643
0.47500002 -0.029869694 -0.11010782 13091768
0.49650002 -0.026859203 -0.11886771 13683905
0.50425005 -0.022886915 -0.11632307 12237228
0.51088893 -0.02109642 -0.11138271 11842214
0.50712502 -0.01912572 -0.11844271 11974571
0.51478839 -0.015838793 -0.11503578 11908521
0.52200007 -0.01157424 -0.11407602 12039852
0.52594125 -0.0075746886 -0.11496111 12105645
0.53249997 -0.0028873214 -0.11392569 11842729
0.53744447 0.00045423023 -0.11520912 11447972
0.5431875 0.0031209486 -0.11367262 11184800
0.53866673 -0.060775485 -0.10931319 14539217
0.54525727 -0.063358672 -0.10494069 14407632
0.551 -0.067758255 -0.10149591 14801877
0.5266667 -0.051407885 -0.10779878 14209482
0.53447503 -0.054792173 -0.10496078 14407118
0.54190916 -0.058758747 -0.10277878 14078667
0.52587503 -0.047764778 -0.10689092 14472655
0.53169233 -0.048563447 -0.10208537 14801620
0.46863639 -0.035204913 -0.10180149 15789283
0.47114599 -0.035029422 -0.10669085 15592161
0.47266671 -0.029352305 -0.10809287 13223354
0.5122 -0.02141406 -0.10889685 11908007
0.51742858 -0.017393708 -0.1081732 11973800
0.52447176 -0.014260236 -0.10435236 11974057
0.53033334 -0.011415474 -0.10100064 12105899
0.52766663 -0.0088862833 -0.1074906 12105386
0.53426421 -0.0051726345 -0.10455947 12105386
0.54033333 -0.0010899059 -0.10121801 12236972
0.54350001 0.0026425468 -0.10371493 12039593
0.55900002 -0.070484899 -0.095555164 14604241
0.56483334 -0.070998818 -0.092133641 14472655
0.574 -0.07506375 -0.090056784 14867413
0.5474 -0.061846793 -0.097542398 13881032
0.55362862 -0.064663932 -0.094665602 14078153
0.56199998 -0.067576975 -0.091569908 14143690
0.53815389 -0.052061182 -0.098289795 14605011
0.54332083 -0.055483341 -0.094526015 13749446
0.551 -0.058513183 -0.09031795 13683139
0.53659999 -0.048568051 -0.098000512 14999000
0.54125005 -0.049240645 -0.092518061 14012874
0.46457976 -0.034716867 -0.095232785 15855076
0.46385717 -0.028858641 -0.094651915 11710116
0.5342195 -0.013397838 -0.09548416 12106155
0.53735906 -0.0074347886 -0.096075334 12040363
0.5424 -0.0035291079 -0.09393096 12040361
0.54643482 0.002960471 -0.097686745 11908777
0.55329728 0.0051909629 -0.093347475 11843239
0.56033331 0.0089267651 -0.090973072 11842984
0.55900002 0.010650103 -0.094246529 11645607
0.56340003 0.012324421 -0.092079885 11645607
0.57466668 0.016779281 -0.090609305 11316640
0.58200002 0.019263133 -0.094039224 11382434
0.58563638 0.022004155 -0.092879303 11382434
0.59000003 0.025052724 -0.091185875 11448226
0.59433335 -0.081434101 -0.081188373 14868182
0.56900001 -0.070413768 -0.08927232 14275276
0.57490915 -0.07310605 -0.086582974 14275533
0.58307689 -0.07467851 -0.082446903 14078409
0.59066671 -0.078165658 -0.080687217 14341837
0.5575 -0.061159939 -0.089423969 13880518
0.56585377 -0.064083315 -0.086022615 13749188
0.57311773 -0.067296967 -0.082576782 13552322
0.54658335 -0.053032532 -0.088418208 13748932
0.55407697 -0.055303194 -0.086827263 13880518
0.56321746 -0.056860536 -0.082856447 13880774
0.54500002 -0.0495818 -0.088057034 13748932
0.45851055 -0.034726422 -0.082970001 16183272
0.46035486 -0.034927186 -0.087871723 15854562
0.46000001 -0.02892644 -0.087247096 11776421
0.53833342 -0.011587678 -0.089081317 12171946
0.54500002 -0.01079488 -0.084350184 12040363
0.55300003 -0.010177537 -0.080289111 12236972
0.53900003 -0.0099198781 -0.08961276 12237226
0.54479307 -0.0063670804 -0.087580524 12106155
0.55325812 -0.0039135683 -0.083410688 11974570
0.56 -0.0011295754 -0.081305422 12105386
0.55582613 0.0019940264 -0.086803988 11842984
0.56339031 0.0061105206 -0.084364191 11842728
0.57000005 0.0095252963 -0.080088556 11908007
0.56747061 0.011906806 -0.086760886 11711398
0.57358336 0.015746605 -0.083908923 11645092
0.57750005 0.021143077 -0.082944542 11514020
0.58255553 0.023526048 -0.084284216 10921625
0.59680003 -0.081400059 -0.07854376 14341582
0.60253847 -0.082053617 -0.07304626 14143947
0.57800001 -0.070174411 -0.079859488 13420735
0.58587503 -0.072246149 -0.076569252 13617601
0.59393114 -0.076236941 -0.074528515 13748932
0.60049999 -0.078529239 -0.071018487 13617346
0.56900001 -0.061089493 -0.079282023 13683909
0.57558626 -0.064170957 -0.075898387 13749444
0.58352631 -0.06789986 -0.073572017 13551809
0.55900002 -0.050855462 -0.075925723 14605011
0.56379169 -0.055153925 -0.074869715 14012617
0.57050008 -0.059914991 -0.07281211 14012361
0.45426464 -0.034714229 -0.075000919 16051428
0.45430002 -0.029206166 -0.075639613 13354428
0.55700004 -0.010251154 -0.07956592 12171179
0.55822223 -0.0067881318 -0.078286476 12039849
0.56023079 -0.0039538485 -0.075218186 11974313
0.56558341 0.0038076837 -0.075190254 11908520
0.57207149 0.0089873653 -0.074347802 11842984
0.57631707 0.014110257 -0.075839557 11645605
0.58220005 0.017727023 -0.073077753 11514020
0.57900006 0.02051929 -0.079997659 11579812
0.58525646 0.023730854 -0.075409904 11514020
0.59125006 0.027529925 -0.071481876 11514021
0.59350002 0.031454202 -0.071581185 11316642
0.60750002 -0.082053714 -0.067458697 13683909
0.61200005 -0.084706716 -0.063686125 13749444
0.59514284 -0.072522819 -0.066430509 13551553
0.603091 -0.076689437 -0.063941069 13617346
0.61033338 -0.079339169 -0.060513217 13683139
0.57616675 -0.061185893 -0.066563204 14275533
0.58450001 -0.064606644 -0.064200602 14078410
0.59210002 -0.068422034 -0.063507646 13814981
0.56632 -0.053913455 -0.066517867 14406862
0.57288235 -0.057249658 -0.062897213 14341325
0.45300001 -0.040151548 -0.068951726 15262171
0.44755927 -0.034057934 -0.063867591 15920098
0.45069999 -0.035359528 -0.068760589 16051428
0.44764289 -0.028523441 -0.063425004 13617856
0.55900002 -0.0054896553 -0.068292059 11842984
0.56070846 -0.0026065286 -0.065270267 11974057
0.56587887 0.0024381247 -0.065615058 12039850
0.574 0.0075582797 -0.064381391 11974057
0.57757145 0.01139053 -0.066856787 11908263
0.58431107 0.015668338 -0.064981498 11776421
0.59033334 0.019078553 -0.061294217 11644835
0.58750004 0.021279363 -0.068104498 11579299
0.5929001 0.025283724 -0.064978264 11514019
0.60000002 0.027584262 -0.060425356 11514019
0.59385717 0.031373717 -0.067153834 11448228
0.63491672 -0.092692941 -0.052789751 13946309
0.6161111 -0.0826592 -0.058361307 13552321
0.62408 -0.084771834 -0.054601807 13552064
0.63100004 -0.08805754 -0.05191306 13748930
0.60562503 -0.072469175 -0.05647061 13946567
0.61352175 -0.076052405 -0.054414839 13683907
0.62040001 -0.079098687 -0.052022487 13683137
0.58628571 -0.061770149 -0.055217978 14144203
0.59385723 -0.065614991 -0.055103835 14078411
0.60114288 -0.068360649 -0.052899037 14012874
0.56900001 -0.051765218 -0.059967455 14735827
0.57568192 -0.054458953 -0.055578139 14407375
0.58200002 -0.057854522 -0.053342808 14209996
0.44241431 -0.034239996 -0.054817311 15919841
0.44355562 -0.028583387 -0.054675866 13946564
0.56400001 -0.0011376438 -0.059440501 12434351
0.56800002 0.0015154399 -0.059529055 12368558
0.57637513 0.0060112979 -0.057620771 12039593
0.58200002 0.0088754538 -0.056056492 11973800
0.5859375 0.01262382 -0.057033319 11908007
0.59406668 0.017116975 -0.054813035 11710628
0.60049999 0.019875452 -0.051337548 11710628
0.59614289 0.021724781 -0.058238335 11644835
0.60259455 0.025553923 -0.054964188 11579042
0.61000001 0.028758008 -0.050008278 11644835
0.60733336 0.031238629 -0.056184541 11579298
0.61278945 0.033503048 -0.052195657 11644835
0.63866669 -0.091494702 -0.048869502 13486271
0.64457148 -0.093707614 -0.044714123 14012102
0.65060008 -0.097571239 -0.041761298 14538703
0.62700003 -0.081262179 -0.046503764 13814980
0.6347084 -0.085918896 -0.044910654 13880772
0.64080006 -0.089200124 -0.042631716 13815236
0.60900003 -0.071086727 -0.049926296 14012102
0.61419046 -0.073204793 -0.045009278 14077895
0.62157148 -0.077544704 -0.044509415 13946566
0.58749998 -0.060325012 -0.048850797 14078154
0.59427786 -0.062414512 -0.045544814 14275275
0.6034584 -0.067149557 -0.044524338 14143688
0.61000001 -0.069775432 -0.040012129 14341837
0.58504164 -0.055738583 -0.046644475 14407118
0.59271431 -0.057491861 -0.041848544 14538446
0.43706328 -0.033946618 -0.044560421 15985633
0.44000003 -0.034535754 -0.049462166 15919841
0.43790916 -0.028421761 -0.044012927 14341577
0.44093335 -0.026762025 -0.048123304 12697266
0.58749998 0.0084423907 -0.04747545 11908261
0.59100002 0.0098762289 -0.044297092 11908262
0.59537506 0.014019978 -0.044628542 11842469
0.60100001 0.018634256 -0.044677496 11776675
0.60553849 0.023482252 -0.045876987 11710627
0.61126316 0.027463345 -0.043708287 11579041
0.61596298 0.032836601 -0.045635175 11579041
0.62050003 0.034337714 -0.040700864 11579296
0.64800012 -0.091775507 -0.036848579 14144458
0.65171999 -0.095605999 -0.034937281 14605009
0.63438886 -0.082718454 -0.035832044 14144458
0.64252943 -0.087390564 -0.034089036 14276044
0.61528581 -0.071926616 -0.034598596 14407630
0.62390912 -0.076684602 -0.035016388 14276044
0.63000005 -0.079437368 -0.031737536 14341837
0.59900004 -0.060103577 -0.0392906 14472653
0.6044054 -0.063903697 -0.035510607 14275787
0.61070001 -0.068855181 -0.034053799 14473423
0.59800005 -0.058603309 -0.039225008 14604239
0.60185724 -0.057773672 -0.033739008 14473166
0.4321923 -0.033664901 -0.034963209 15854302
0.43223256 -0.027485315 -0.035116337 14143942
0.59500003 0.0085501662 -0.036242414 11777191
0.59775001 0.012787715 -0.037807513 12039592
0.60208112 0.015894527 -0.035071649 11842469
0.60746151 0.021419717 -0.035905514 11645089
0.61333334 0.02552948 -0.034093264 11513760
0.62 0.029229451 -0.031233763 11513503
0.61800003 0.030581914 -0.03764182 11513503
0.62460011 0.034085356 -0.035018146 11645089
0.63033336 0.038078725 -0.032737557 11842468
0.63320005 0.042084515 -0.034861766 11645090
0.65199995 -0.093630947 -0.025647502 14802388
0.63700002 -0.081812717 -0.025377942 14276044
0.64450002 -0.086554594 -0.024717474 14473423
0.65000004 -0.08956749 -0.025897598 14605009
0.61699998 -0.071010634 -0.025446162 14473423
0.6242857 -0.074965417 -0.024873078 14276044
0.63144445 -0.078963488 -0.024993906 14210251
0.60657698 -0.062833443 -0.025857819 14341837
0.61152941 -0.067425802 -0.023856834 14539216
0.60353345 -0.058298275 -0.025738962 14407631
0.42727438 -0.033713136 -0.024346367 15854045
0.42999998 -0.033931531 -0.028824743 15854302
0.42807502 -0.027067188 -0.022870129 14078663
0.43000004 -0.025571922 -0.025898395 13354940
0.60660005 0.016246509 -0.02871095 11448481
0.61261117 0.017250672 -0.023842184 11448225
0.61533338 0.02253224 -0.025651099 11645603
0.62168002 0.027041988 -0.023660081 11579811
0.62747824 0.032842338 -0.0255723 11711396
0.63042116 0.037178367 -0.024418542 11711139
0.63190478 0.042119391 -0.025742384 11710627
0.64859998 -0.090892963 -0.015214533 14473423
0.65033334 -0.092151083 -0.019313889 14999767
0.6376667 -0.080653377 -0.016947327 14012872
0.64352942 -0.085759975 -0.014963649 14407630
0.62391305 -0.07308805 -0.014950431 14341837
0.63120002 -0.077373601 -0.014807111 14210251
0.60833335 -0.06222776 -0.017709369 14407631
0.61281478 -0.065376185 -0.014216321 14473423
0.62 -0.069467865 -0.011639443 14473423
0.60680002 -0.058755897 -0.017069539 14473424
0.61066669 -0.059844624 -0.011463445 14407630
0.41900006 -0.035666633 -0.01080867 15854558
0.42172062 -0.033500765 -0.015374504 15657436
0.42373964 -0.026261508 -0.014701479 13684160
0.61849999 0.018299924 -0.018850882 11579812
0.62125003 0.018745024 -0.015658442 11645349
0.62557495 0.024593702 -0.015212439 11645348
0.63014287 0.028864866 -0.011829523 11645348
0.62900001 0.031617086 -0.018680071 11842984
0.63279492 0.035269644 -0.014533159 11711142
0.63688892 0.041126251 -0.013440188 11908777
0.63791668 -0.081058882 -0.0038858254 14407630
0.64242101 -0.084965169 -0.0055709351 14538960
0.62504756 -0.072965384 -0.0044179652 14210251
0.63164294 -0.077428229 -0.0044639125 14144458
0.61642104 -0.064401455 -0.0044670184 14341837
0.61999995 -0.069467865 -0.0043822872 14341837
0.61260003 -0.058886521 -0.0069102533 14407630
0.4161087 -0.033916008 -0.0050182622 15788508
0.41697997 -0.027076509 -0.0030689859 14210503
0.42125005 -0.023754766 -0.0063382834 13157816
0.42275003 -0.019656371 -0.0039923806 11907753
0.62900001 0.021554999 -0.0088634016 11645605
0.63128126 0.026900791 -0.0051051462 11579812
0.63517064 0.035064135 -0.0045976033 11842728
0.63833332 0.041302171 -0.0075013512 10395540
0.63749999 -0.080383047 0.005194027 14670802
0.64000005 -0.082196526 0.0037167321 14934488
0.62572223 -0.073043995 0.0051006582 14210251
0.63233334 -0.077512875 0.005151927 14276044
0.61745 -0.065642886 0.0043108473 14276044
0.620125 -0.068756156 0.0066866255 14144458
0.40899995 -0.034111377 0.0091057187 15657438
0.41175357 -0.034427419 0.0045718062 15722974
0.40900001 -0.029549286 0.0095562972 15131351
0.41376531 -0.025505828 0.0053508482 13815745
0.42000002 -0.020511733 0.00096426392 12895156
0.41600001 -0.019017898 0.0090706088 12829878
0.42050004 -0.019551754 0.0014570256 12631730
0.63366669 0.0293798 0.0019495491 11777191
0.63483334 0.033894833 0.0017048601 11711399
0.62723339 -0.073120467 0.015194071 14210251
0.63000005 -0.076487683 0.011770286 14341837
0.62244999 -0.067340024 0.013748552 14078666
0.40641832 -0.034632009 0.01534111 15591644
0.4074617 -0.026470404 0.016529001 14276553
0.41154549 -0.023292946 0.013422588 13618879
0.40900001 -0.019017043 0.019131061 13092279
0.41311112 -0.018349173 0.014691263 12764084
0.62866664 -0.072891518 0.022048194 13749187
0.63000005 -0.072063155 0.025043858 13748930
0.62819999 -0.068033442 0.022032922 14012359
0.63000005 -0.067638636 0.025043858 14143688
0.40037501 -0.04029062 0.027278485 15064788
0.39900002 -0.032563072 0.029872101 15592156
0.40134013 -0.034868635 0.025176499 15591643
0.39900002 -0.029293843 0.029872103 15328729
0.40294826 -0.025134385 0.025185693 14473933
0.40644234 -0.017980667 0.024468111 13158329
0.39618185 -0.041016337 0.037327096 14998996
0.40000001 -0.040604144 0.030883376 15130581
0.39668399 -0.034924008 0.035499208 15525851
0.40000001 -0.038263127 0.030883377 15394777
0.39693385 -0.025370834 0.035820637 14934228
0.40027782 -0.022098828 0.031476684 14408141
0.39783344 -0.017721331 0.036817297 13092538
0.40043473 -0.017437086 0.03164928 12763317
0.39365792 -0.041609015 0.045617104 14867410
0.39341304 -0.034871403 0.045103412 13091513
0.39354572 -0.024744615 0.045117527 11579814
0.39451993 -0.017549563 0.045465637 13684418
0.39143491 -0.041807756 0.055359818 14867409
0.38846275 -0.033822395 0.056552567 2501927
0.39063457 -0.035960224 0.052667778 3881782
0.38791659 -0.025433538 0.056384414 2567207
0.39050001 -0.024275176 0.051352445 2764071
0.3888 -0.019048402 0.058112264 5000776
0.39151058 -0.015275938 0.054972541 12303023
0.39200002 -0.0097380746 0.05871376 10986907
0.389 -0.041308843 0.067940138 12630964
0.39081588 -0.044141077 0.065024965 14735824
0.386336 -0.034991898 0.065221228 3751222
0.39000002 -0.039132543 0.06024019 7499365
0.3840681 -0.025050193 0.065157577 2435619
0.38734663 -0.016062506 0.065759882 9210496
0.39046437 -0.012735158 0.062105887 13684419
0.38899997 -0.0088504618 0.067891352 13618626
0.39029166 -0.0081725838 0.064890414 12631732
0.39158335 -0.050979923 0.077824287 15064790
0.38807595 -0.043473188 0.075613737 13617344
0.39072734 -0.047605451 0.073432654 15130583
0.37900001 -0.031285737 0.079480112 2238753
0.38341913 -0.034994394 0.074925192 3948600
0.37854555 -0.025132494 0.07933598 1975582
0.38139629 -0.024836289 0.074576035 2172960
0.3853046 -0.015202441 0.075045101 8421237
0.3882446 -0.0065995171 0.075869784 13486784
0.39031249 -0.0040988154 0.072166644 11644837
0.38697064 -0.052016217 0.086703889 15064277
0.39039999 -0.05105428 0.080956317 14998997
0.38636273 -0.04517018 0.084865719 13486015
0.37818012 -0.032458283 0.08481472 2238754
0.38228333 -0.037185598 0.084759258 5460812
0.37737566 -0.025020845 0.084831499 1843996
0.3778109 -0.018211463 0.086083055 2566947
0.38410008 -0.013456934 0.084030293 9276545
0.38545439 -0.0052881194 0.084800199 13223612
0.38552946 0.0016902639 0.086568728 11184800
0.38498428 -0.05233435 0.09482567 13815238
0.38499117 -0.04508391 0.094509192 11973290
0.37543765 -0.032620229 0.094428979 2238753
0.38242424 -0.037807286 0.092926465 6973022
0.37465021 -0.024908239 0.094294474 2107168
0.37550777 -0.017104441 0.094331928 4145978
0.3826957 -0.012258395 0.092102498 9407875
0.38450024 -0.0050175586 0.093143232 11908010
0.38516015 0.0028847267 0.092800707 11514278
0.37850001 -0.031333655 0.10188156 2304546
0.3826327 -0.033566028 0.10710794 2435361
0.37776932 -0.02460436 0.10148211 1975839
0.38367862 -0.02550067 0.10806548 988943
0.37691304 -0.016491402 0.10309974 3552813
0.38150001 -0.019078625 0.10804768 1317651
0.41592854 0.0054896385 0.10806233 6577491
0.37457839 -0.033574801 0.11641994 2961708
0.38149995 -0.033162247 0.11208663 3028012
0.37230301 -0.025319159 0.1167369 791564
0.38373172 -0.026734944 0.11246515 726027
0.37122825 -0.017199343 0.11582787 1841936
0.41707689 0.0054659573 0.11091446 6512724
0.36897072 -0.03234813 0.12743971 1448977
0.3703573 -0.033429738 0.1239791 1909272
0.36888584 -0.027070163 0.12761851 1449235
0.37067378 -0.02433143 0.12421654 1580823
0.37310833 -0.01590744 0.12552063 1382158
0.35501561 -0.032437 0.13636245 1449235
0.36781818 -0.030879127 0.13171887 2369567
0.37052625 -0.033755127 0.13242388 2500641
0.3557266 -0.025341444 0.13668098 1251857
0.36475003 -0.024598725 0.13226362 1383444
0.37075001 -0.021143958 0.1306068 2238752
0.35495526 -0.016890422 0.13747777 1448980
0.36403713 -0.016297301 0.13473152 856588
0.37268746 -0.016049277 0.13199455 1317394
0.34798381 -0.032695524 0.14732294 1580307
0.35114005 -0.032816559 0.14225683 1580821
0.34852645 -0.024858255 0.14628723 1645844
0.35111254 -0.024874646 0.14205685 1580566
0.34843764 -0.015882574 0.14605565 1579796
0.35109809 -0.016776031 0.1419972 1514517
0.3438518 -0.032515828 0.15496767 1712151
0.34275004 -0.029577183 0.15765208 1843995
0.33754542 -0.031767353 0.16685313 1975582
0.3402223 -0.031925324 0.1617548 1909788
0.33686152 -0.025008518 0.16624835 1975323
0.34000003 -0.0246021 0.16194074 1843482
0.33659419 -0.015864547 0.16620897 1711639
0.34000003 -0.017091148 0.16200392 1580053
0.33284885 -0.032012418 0.17480345 2567205
0.33216211 -0.024835736 0.17483908 2238238
0.33235285 -0.01547272 0.17485981 1843482
0.33192307 -0.0096950466 0.17768699 1843739
0.33100957 -0.024990451 0.18326026 1252113
0.33087316 -0.015056754 0.18240376 922636
0.81033343 0.10775969 0.24783897 9211266
0.81155002 0.11482668 0.24580674 9211266
0.81168002 0.10477448 0.25458735 9211266
0.81278569 0.10484733 0.26505536 9342852
0.81150001 0.10483348 0.27404019 9343109
0.80900002 0.1101073 0.27836433 9474438
0.81150007 0.11452036 0.27447274 9408902
0.80733341 -0.22905524 0.34897888 2501927
0.81457144 -0.22829209 0.34810802 2696746
0.80619991 -0.22615214 0.35547078 2567975
0.81481266 -0.22314703 0.35391679 2434085
0.81459999 -0.21903662 0.35885531 1908766
0.80543756 -0.22494069 0.36510998 2107422
0.80820006 -0.21921146 0.36512059 2502180
0.81404757 -0.21670635 0.36521757 2172449
0.80603451 -0.22532284 0.37501037 1252371
0.80880004 -0.21937418 0.37486067 2173474
0.81465393 -0.21523076 0.37507313 2238499
0.82000011 -0.21121414 0.37365189 2040095
0.80806661 -0.22623672 0.38372767 791820
0.81033331 -0.22252935 0.38695323 989200
0.81426471 -0.2148464 0.38479018 1646362
0.82000005 -0.21089421 0.38101047 2829869
0.81900007 -0.20871973 0.38917366 3552822
0.80850005 -0.22686364 0.39648572 791821
0.81068194 -0.22350544 0.39427841 791564
0.8148182 -0.21475579 0.3950457 1251349
0.81900007 -0.20871973 0.39396691 2368545
0.82095838 -0.20441182 0.39490786 5855572
0.80574298 -0.22501157 0.4046976 857615
0.80625921 -0.21525891 0.40527532 857361
0.81394744 -0.21303977 0.40251276 1119764
0.80850005 -0.20982924 0.40784258 1053969
0.81650013 -0.20903619 0.40805173 1184530
0.82139289 -0.20417495 0.40480056 4934727
0.80556679 -0.225096 0.41485175 791309
0.80606258 -0.2154469 0.4135741 922896
0.81040001 -0.21259782 0.41771808 988175
0.80800003 -0.20969948 0.41137403 1053711
0.81550014 -0.20795934 0.41464505 1052941
0.8221817 -0.20296502 0.41483143 6908771
0.80735004 -0.22738855 0.42493486 594186
0.81133336 -0.22259146 0.42668307 725516
0.81482613 -0.21527746 0.42501098 987918
0.82000005 -0.21089421 0.42900133 1052684
0.81800002 -0.20846486 0.42125264 1052682
0.82276922 -0.20463501 0.42518982 5790034
0.80657697 -0.22682904 0.43512166 726029
0.81175017 -0.22171664 0.43442056 462857
0.81656253 -0.2174145 0.4348464 857102
0.82033342 -0.21289958 0.43557683 790795
0.80555189 -0.22616257 0.44507656 857358
0.81120002 -0.22097325 0.44528612 923151
0.81633347 -0.21791065 0.44396237 857102
0.82133329 -0.2133707 0.44540182 2961705
0.80511767 -0.22557792 0.4533098 790795
0.81380004 -0.22110634 0.45338097 658952
0.82000005 -0.22049239 0.4587557 5725014
0.81766671 -0.21922588 0.4517062 658696
0.82349998 -0.21467744 0.45525083 6974820
0.82000005 -0.22049239 0.46355477 8027767
