# .PCD v0.7 - Point Cloud Data file format
VERSION 0.7
FIELDS x y z rgb
SIZE 4 4 4 4
TYPE F F F U
COUNT 1 1 1 1
WIDTH 407
HEIGHT 1
VIEWPOINT 0 0 0 1 0 0 0
POINTS 407
DATA ascii
0.44513521 -0.11388522 0.037856497 15657955
0.44832158 -0.10649057 0.038661569 14474194
0.45096156 -0.10367636 0.036725882 14145487
0.45184612 -0.096311159 0.037937138 13948107
0.48838887 0.056308165 0.038468972 13947082
0.48999992 0.058565166 0.036015898 13618116
0.48769233 0.064003475 0.039497428 14144460
0.49090907 0.063996546 0.036334164 13684165
0.44400004 -0.12042797 0.042076141 16248811
0.43900001 -0.11085015 0.049310111 15920869
0.44140938 -0.11463139 0.044724058 16118248
0.43837145 -0.10447811 0.048152667 15986662
0.44327277 -0.10510986 0.043238487 15657955
0.4364872 -0.095255993 0.048472486 15789283
0.445375 -0.096121021 0.044213757 14605523
0.4510909 -0.09407337 0.041116003 13947594
0.43499997 -0.086783759 0.049221996 15000024
0.44414288 -0.088528216 0.046910334 14210765
0.45429799 -0.085471638 0.045803368 13816007
0.45561537 -0.077962108 0.048303805 13881799
0.45225006 0.02767306 0.049474847 13618629
0.45300001 0.034435622 0.04958649 13684422
0.45253852 0.045131225 0.04936298 13815752
0.49082151 0.047925536 0.044749387 13684168
0.45566666 0.055263624 0.048421472 14013131
0.46290913 0.057387833 0.045784306 14013388
0.47533336 0.058390692 0.04448441 14013388
0.48654172 0.056862712 0.04273409 13881546
0.49054998 0.051893055 0.044421609 13684167
0.45490482 0.065154076 0.048171669 14276302
0.46454164 0.065125175 0.04412711 14276302
0.47216669 0.064997196 0.041981619 14342352
0.48512501 0.062192366 0.041428164 14078923
0.45498005 0.07461787 0.04736536 14210251
0.46211115 0.07244812 0.043127351 14012615
0.45250002 0.080654189 0.049236931 14472653
0.44000003 -0.12037309 0.0550877 11381156
0.43825483 -0.11356094 0.055882014 15130840
0.44011751 -0.11734509 0.053192765 15130842
0.43469894 -0.1052075 0.055020276 15262426
0.42764518 -0.092935666 0.057816904 15526109
0.43126866 -0.095804073 0.053905483 15854819
0.42598587 -0.084698573 0.056590162 15855075
0.43070602 -0.085655153 0.051816668 15526624
0.45499998 -0.082106881 0.050870582 13816006
0.42432836 -0.075179495 0.05674227 15263195
0.43000001 -0.079385094 0.051822424 14802901
0.45439139 -0.077599354 0.052147549 13816006
0.42360869 -0.067432396 0.05774885 14408144
0.44900003 0.029576721 0.059893403 13617862
0.45203927 0.025708033 0.055300366 13618375
0.43683338 0.037717763 0.059375808 14078667
0.44600007 0.035707727 0.057326768 13815497
0.45162502 0.034417916 0.053170573 13684423
0.43599999 0.045365851 0.058357593 14341837
0.44544065 0.0449824 0.054192465 13947338
0.45073333 0.043829862 0.051049743 13816008
0.43557632 0.055307854 0.057505757 14736338
0.44466001 0.054561425 0.053121176 14276303
0.45122227 0.055073723 0.050682951 14210253
0.43621579 0.064557672 0.05786087 15196631
0.44433343 0.065207876 0.052775357 14736596
0.45000002 0.060192876 0.05054567 14408145
0.43857899 0.07352718 0.058664709 15196888
0.44487166 0.075125009 0.054344971 14802388
0.45000002 0.078101665 0.050545674 14999509
0.44500005 0.080933452 0.055635791 14539216
0.45000002 0.080735311 0.05054567 13815493
0.43900001 -0.12009951 0.064725712 12894139
0.43697494 -0.11494949 0.064937286 14802389
0.42900002 -0.10029071 0.068272807 14407631
0.43205813 -0.10516591 0.064923689 14670802
0.42556629 -0.094707683 0.065162778 14670545
0.43000001 -0.099316522 0.061586808 14736081
0.41828579 -0.082026206 0.067219496 14801875
0.4213903 -0.085906893 0.064386517 15065302
0.41656518 -0.074840322 0.065724209 15394267
0.420591 -0.075544409 0.06066829 15789281
0.41549012 -0.065137751 0.065641448 15591903
0.42042109 -0.065340616 0.060690753 15066073
0.40900001 -0.057316095 0.069877304 15854305
0.41494745 -0.055640757 0.067542836 15065817
0.42078575 -0.054569326 0.063411437 14013385
0.40900001 -0.042953953 0.069877304 14144973
0.41450003 -0.047896985 0.068629101 14342352
0.42104357 -0.04764675 0.064478077 13487041
0.41492859 0.0089464979 0.068112083 13552581
0.41691676 0.01508464 0.067992866 13684168
0.42052945 0.017915145 0.064607434 13618118
0.41776001 0.024583884 0.068634301 14276303
0.42250744 0.02590221 0.06473472 14209997
0.43000001 0.029331779 0.061385486 13946827
0.45200005 0.026064288 0.060821719 13617862
0.41775864 0.035005353 0.068471983 14670802
0.42380273 0.035013728 0.064512737 14473423
0.43284008 0.03499075 0.060894132 14144205
0.44350004 0.030771198 0.060197983 13881034
0.41844448 0.042259559 0.069205016 14605007
0.42415902 0.045248445 0.065668583 14736593
0.43090484 0.045052677 0.061081126 14539215
0.42562935 0.054785144 0.066078857 15196630
0.43045831 0.05556342 0.06119819 15130581
0.4272292 0.064046755 0.067424513 15327960
0.43124077 0.065948337 0.063146964 15393753
0.43413395 0.07490503 0.06490697 15262166
0.43785718 0.080972157 0.064331137 13881285
0.44000003 0.081516311 0.060752962 11315874
0.43900004 -0.12009951 0.075002782 12302001
0.43622494 -0.11475322 0.075036041 14407632
0.42855 -0.10113911 0.074972823 14210765
0.43155882 -0.10618362 0.074827351 14407631
0.42469049 -0.095125139 0.075246491 14210252
0.41795 -0.082543634 0.074831381 14144201
0.42075524 -0.087489836 0.075243346 14144458
0.4144038 -0.075091071 0.074966386 14144201
0.4080784 -0.063309409 0.075464293 14736082
0.41090238 -0.066992112 0.073272668 14933460
0.40550014 -0.054937825 0.075104222 15262939
0.41040006 -0.052707117 0.070116498 15526111
0.39900002 -0.041156482 0.079190791 15460318
0.40364173 -0.045251414 0.075100027 15263196
0.41050002 -0.047277719 0.070133582 14802903
0.39781827 -0.034584679 0.078971304 15065561
0.40156105 -0.036535524 0.075547367 14671061
0.39499998 -0.025313888 0.078996092 14013131
0.39185005 -0.014640683 0.079147473 13354690
0.39688233 -0.006586446 0.079064153 13881800
0.40116006 -0.0023847779 0.077247277 13816007
0.4044815 0.0051650465 0.076557614 13947337
0.41168973 0.0067820065 0.071863741 13618373
0.40568972 0.014784648 0.07675489 14144714
0.41268179 0.015374076 0.071731657 14013386
0.40767258 0.023895973 0.077380247 14539214
0.41269445 0.025506515 0.072712928 14539215
0.40900001 0.031090885 0.079132907 14473421
0.41344813 0.03499797 0.074655876 14670800
0.41595468 0.045072444 0.074979298 14736337
0.42000002 0.049297426 0.070773423 14868179
0.41769442 0.052641019 0.076710671 15065043
0.42154551 0.056419551 0.073839605 15131094
0.42420578 0.064976394 0.075211905 15327960
0.42737779 0.072798736 0.076013058 15130581
0.43073475 0.07712581 0.073997438 14867665
0.43257144 0.080573149 0.073598795 12959928
0.43370256 -0.11383915 0.084628552 14538961
0.42829633 -0.10198392 0.085538715 14144459
0.43052638 -0.10662588 0.085029267 14341838
0.4246738 -0.095236063 0.085099079 14012872
0.41780004 -0.083057463 0.085018463 14012872
0.42074373 -0.088133126 0.08483889 13947079
0.41360381 -0.07494472 0.084992394 13947080
0.40740719 -0.064285837 0.08520788 13947079
0.41015384 -0.068778425 0.083811358 13947079
0.40224549 -0.054966692 0.08500959 14078665
0.39730433 -0.044065811 0.085394733 14539217
0.40004548 -0.048484102 0.082990818 14538959
0.39407817 -0.03486399 0.085061274 14473424
0.3885667 -0.02395002 0.088792875 7501428
0.39232698 -0.024973469 0.08387991 14342352
0.38865796 -0.016034955 0.088644512 10065811
0.39111787 -0.014823384 0.083913647 14078922
0.43888891 -0.016639294 0.082518749 12828346
0.44000003 -0.014850397 0.082612872 12959932
0.39387885 -0.0053115394 0.084981583 13947590
0.39696634 0.0044772401 0.085238844 13684418
0.40000004 0.0077545973 0.080914274 13947591
0.39868191 0.011711434 0.087628543 13486783
0.40066689 0.0159586 0.084522426 13815748
0.40427679 0.025237773 0.084769286 14210250
0.40785909 0.034194328 0.085764125 14276042
0.41086215 0.037977256 0.082398199 14473421
0.40900001 0.040346488 0.089984313 14276042
0.41249979 0.045042776 0.084955581 14407628
0.4159075 0.055017993 0.085059978 14802129
0.42000002 0.0591297 0.080605693 15065042
0.41813639 0.062027697 0.08736527 14736593
0.42123076 0.06589251 0.084125109 14999251
0.4250941 0.074387074 0.085274205 14867920
0.43000004 0.07932812 0.081853785 14933204
0.42900002 0.080482699 0.088358738 13683909
0.43020001 0.080909625 0.082763657 9801351
0.43406582 -0.1144765 0.095354542 14210252
0.42837504 -0.10233966 0.094310164 14144202
0.43047926 -0.10681059 0.09540356 14210252
0.42406738 -0.095065266 0.094982445 13946823
0.41762292 -0.083450891 0.094973534 13881286
0.4206453 -0.088427469 0.095024087 13815493
0.41316488 -0.07527782 0.094991527 13881287
0.40675795 -0.064668916 0.095140912 14078666
0.41000003 -0.069933869 0.094523504 13947080
0.39883336 -0.050444994 0.098328553 14341326
0.40151098 -0.054803584 0.095233493 14144460
0.39568469 -0.044795338 0.095059134 14341582
0.38837034 -0.031763721 0.096824221 11380640
0.39177528 -0.036079504 0.094434932 13683396
0.3851639 -0.025163474 0.094847552 2698793
0.38503736 -0.015172198 0.094912983 2961965
0.38819146 -0.0082060406 0.096229978 12763575
0.39140254 -0.0037352976 0.094401024 13420990
0.39470977 0.0048455708 0.095015757 13355197
0.39756519 0.013861748 0.095528506 13420989
0.39999992 0.018545572 0.093778729 13618112
0.40149081 0.024919333 0.095077068 13947077
0.40537485 0.034639921 0.095012471 14078663
0.4084774 0.042360708 0.096365951 14144712
0.41103119 0.046428133 0.094052486 14210249
0.41376412 0.05492406 0.094993897 14539214
0.41719097 0.064489372 0.095404997 14670801
0.42028573 0.068376645 0.092325993 14801874
0.41900003 0.070759557 0.098560184 14933972
0.42250609 0.074803978 0.095011577 14670543
0.42733335 0.080170028 0.091015875 9603976
0.43455693 -0.11426532 0.10518791 14210252
0.42854169 -0.10106211 0.10531934 14144459
0.43069232 -0.10594804 0.10493271 14144459
0.42421687 -0.094816424 0.10526952 14144460
0.41722533 -0.083772779 0.10532862 14210253
0.42050004 -0.088665336 0.10412148 14144203
0.40866664 -0.071237303 0.10738511 14210253
0.41267452 -0.075790271 0.10460512 14078667
0.40545365 -0.064969309 0.10487634 14341839
0.3973659 -0.052874275 0.10647925 14407631
0.40101635 -0.056877431 0.1041377 14407375
0.38900003 -0.040853515 0.10835051 13617346
0.39280361 -0.04488359 0.10487325 14275532
0.38705501 -0.034451224 0.10577377 11578018
0.39054999 -0.037817534 0.10164927 13749188
0.37836546 -0.023691086 0.10773765 2304806
0.38158238 -0.025462782 0.10326609 2501927
0.37842506 -0.016730996 0.1078621 2436394
0.38161004 -0.014415561 0.10376825 3028273
0.3871111 -0.0056726285 0.10530277 12763574
0.39018184 -0.0016170327 0.10162108 13158074
0.389 0.00063192454 0.10794577 13223867
0.39180642 0.0049187997 0.10454934 13355197
0.39553136 0.014900365 0.10498912 13618369
0.39768085 0.022632726 0.10658531 14078919
0.40084058 0.026326139 0.10396235 14078920
0.40380311 0.034887649 0.10518538 14144712
0.40709364 0.044697467 0.1054127 14276299
0.41022226 0.048576869 0.10166983 14342092
0.40866664 0.051368937 0.10851243 14736080
0.41195041 0.055184025 0.10471338 14736336
0.41572905 0.064849429 0.10484762 14933715
0.41842851 0.072027944 0.10678428 14802386
0.42121872 0.075898707 0.10434925 14538956
0.42320004 0.080385305 0.10499475 3812903
0.43415645 -0.11465275 0.11523145 14539218
0.42800003 -0.1024889 0.11547855 14276046
0.43042555 -0.10727131 0.11506341 14341839
0.41900003 -0.090596288 0.11817791 14605011
0.42320222 -0.095139533 0.11483315 14341839
0.415351 -0.084706806 0.11502205 14473425
0.41999999 -0.089337669 0.11108575 14341839
0.40752131 -0.073317543 0.11548006 14407632
0.41121623 -0.078052118 0.11398929 14341839
0.39829418 -0.061521012 0.11817754 14407631
0.40262371 -0.065441325 0.11468125 14407631
0.39561939 -0.054769725 0.11519398 14473423
0.40000001 -0.059425928 0.11122711 14407630
0.38851282 -0.042342447 0.11670111 13880517
0.39167073 -0.046539273 0.11427794 14341582
0.37899998 -0.030191466 0.11680358 2172707
0.38511112 -0.03554422 0.11495488 11775912
0.37617585 -0.024522549 0.11526705 2238755
0.38050002 -0.029271742 0.11088152 2436133
0.37644801 -0.01541821 0.11544032 2633255
0.38050005 -0.011233613 0.11258775 5658959
0.38517696 -0.0052233976 0.11509321 12631730
0.38858822 0.0030442595 0.11640787 13092282
0.3907797 0.0067494395 0.11332424 13355453
0.3925308 0.014814752 0.11496804 13618625
0.39630246 0.024771908 0.11538222 14144713
0.40000001 0.028783629 0.11122711 14276299
0.39830774 0.032191511 0.11786225 14341835
0.40120634 0.035787147 0.1142434 14276299
0.4039467 0.045051444 0.11510858 14473422
0.40750629 0.053985003 0.11586718 14801873
0.41077423 0.058018208 0.11298662 14867666
0.40900001 0.060453493 0.11966608 15064788
0.4130092 0.065067634 0.11498525 14999252
0.41688302 0.074404225 0.11498143 14012870
0.4201667 0.078170039 0.1108017 14277070
0.41800001 0.080376126 0.11936368 3155744
0.42900002 -0.11033368 0.12903276 14802390
0.43145835 -0.11397205 0.12492602 14605011
0.42689475 -0.10430185 0.1254108 14539218
0.42999995 -0.10869602 0.12308645 14538962
0.41688097 -0.092416957 0.1259855 14605012
0.42187044 -0.096945204 0.1242496 14605011
0.40823528 -0.081494942 0.12764803 14671060
0.4131363 -0.085818872 0.12448391 14670804
0.39900002 -0.070859782 0.12935016 14736853
0.40425003 -0.074722186 0.12527874 14605268
0.41050002 -0.079629019 0.12154467 14539218
0.3971647 -0.064030617 0.12562904 14605011
0.40073329 -0.068104468 0.12302847 14605011
0.38876921 -0.051610928 0.12837793 14341839
0.39260358 -0.055358287 0.12463327 14473425
0.38725847 -0.044871103 0.12527415 13815238
0.39000002 -0.048871178 0.12156316 14341839
0.37734619 -0.031544901 0.12640253 5657166
0.38335481 -0.036264375 0.12473118 12368047
0.3727811 -0.025257524 0.12491354 1975585
0.37279439 -0.015370514 0.12506898 2961448
0.38398156 -0.0043478445 0.12496045 12302764
0.38655806 0.0047541535 0.12505004 13026488
0.38845947 0.013350528 0.12670422 13486783
0.39085251 0.016479189 0.12308385 13684420
0.38900003 0.020615764 0.1292956 14144969
0.3932122 0.025059631 0.12512098 14144714
0.39631608 0.034872618 0.12538287 14341836
0.40000001 0.038834397 0.12140273 14341836
0.39773336 0.043375809 0.12772626 14473422
0.40081191 0.045800168 0.12361345 14539215
0.40406895 0.055060647 0.12482598 14867924
0.40762144 0.063389495 0.12660137 14933717
0.41133964 0.06683366 0.12321753 14999253
0.41413075 0.074881911 0.1251796 14143942
0.41750002 0.080279984 0.12068638 3155744
0.42815155 -0.11199968 0.13559242 13881544
0.43006459 -0.11551173 0.13404569 14210253
0.42473415 -0.10538045 0.13425958 14012874
0.41410422 -0.093586147 0.13369441 13881545
0.42080003 -0.099063396 0.1324749 14473681
0.40716192 -0.084033884 0.13415097 13552836
0.41099998 -0.088454671 0.13158898 14473938
0.39877784 -0.071339242 0.13482647 13355201
0.40171424 -0.075857252 0.13386172 13750215
0.39493614 -0.064927228 0.13387814 14078668
0.38754797 -0.053221039 0.13504547 13815495
0.39100003 -0.057998743 0.13331276 14342096
0.38481039 -0.044923522 0.13489811 13091771
0.36807695 -0.030834794 0.13718668 2106140
0.37580648 -0.03252165 0.13446535 7762795
0.38216424 -0.037107691 0.13459018 12170669
0.36690843 -0.024698852 0.1355878 2041887
0.37073529 -0.025613753 0.13106018 1909791
0.36660382 -0.016193356 0.13590515 2435362
0.37132502 -0.014691694 0.1315684 3487535
0.37814286 -0.0087287901 0.13416092 11842214
0.38122481 -0.0041856966 0.1348709 11908009
0.3834874 0.0050540422 0.13479321 12565939
0.38545567 0.014785619 0.13485818 13421248
0.38774082 0.024040394 0.13566156 14013384
0.39089659 0.027549548 0.13200647 14144971
0.38876921 0.032085508 0.13835417 14079178
0.39239305 0.035571862 0.13429268 14210764
0.39464343 0.045143206 0.13513348 14473679
0.40000001 0.049759146 0.13014254 14802386
0.3969425 0.054294143 0.13667139 14802644
0.40067345 0.0562579 0.13225414 14868180
0.39833334 0.061364207 0.13907984 14802902
0.40337613 0.065047599 0.1347857 14868437
0.40753466 0.073170289 0.13674928 14736593
0.41155934 0.076575927 0.13357265 13683648
0.42500001 -0.10781252 0.14026631 10723737
0.36760002 -0.030687789 0.14128914 1448466
0.37142858 -0.030996168 0.14780231 1514777
0.38133335 -0.037371006 0.14013797 9276290
0.36655813 -0.023786085 0.14417526 1383701
0.3708846 -0.027931649 0.14721896 1120272
0.3642346 -0.015629724 0.14466363 2434077
0.37800002 -0.0087266061 0.14112526 10461331
0.38090613 -0.0044736443 0.14123483 11053214
0.3822439 0.0060646916 0.14191382 11710630
0.38395962 0.015784543 0.14292423 11710887
0.38536146 0.025008721 0.14333284 12434610
0.38829997 0.034309052 0.1432559 13553348
0.39005554 0.038934309 0.1448645 12697783
0.39187291 0.045091107 0.14487174 13553091
0.39361164 0.054934908 0.14432387 14539729
0.39656991 0.064395286 0.14521167 14671315
0.40068188 0.067965999 0.14166108 14737365
0.39836362 0.070920154 0.14817548 14736595
0.40396377 0.075398184 0.14485204 14276043
0.40700001 0.080166556 0.14575915 7761765
0.36339444 -0.032443311 0.15598057 2698278
0.37 -0.031928685 0.15069802 1646628
0.3649928 -0.025366629 0.15497501 791307
0.37 -0.02846398 0.15069802 1449237
0.36417997 -0.015544378 0.15507761 2168592
0.39100003 0.039486188 0.15009779 10262669
0.39900002 0.072986409 0.15036665 14934487
0.40136364 0.076924331 0.15083006 14144715
0.36151794 -0.03236055 0.16400416 1514774
0.36178237 -0.024772739 0.16494542 1252115
0.36287838 -0.016497144 0.16470467 1381904
0.34530005 -0.033107791 0.17844588 1580566
0.35505658 -0.032267805 0.17592919 857101
0.3613236 -0.032424971 0.17216453 1711896
0.34612212 -0.024950404 0.17831868 1514517
0.35525391 -0.024931427 0.17530076 857357
0.3605476 -0.025246356 0.17158607 1975580
0.34614587 -0.016669074 0.17863984 1448467
0.3549698 -0.016457584 0.17614481 857101
0.36060876 -0.017060056 0.17164722 1383189
0.33848003 -0.033155665 0.18795332 1514773
0.34135702 -0.033471636 0.18319514 1646360
0.33829111 -0.025421478 0.18800491 1645846
0.34186137 -0.024864266 0.18319479 1514774
0.3387906 -0.016509527 0.18821031 1514261
0.34161225 -0.016821902 0.18325652 1448725
0.35500002 -0.010688807 0.1803243 1383193
0.33745459 -0.032497246 0.19073071 1448981
0.337423 -0.025164418 0.19074899 1514261
0.33825007 -0.017806392 0.19086929 1514262
