# .PCD v0.7 - Point Cloud Data file format
VERSION 0.7
FIELDS x y z rgb
SIZE 4 4 4 4
TYPE F F F U
COUNT 1 1 1 1
WIDTH 415
HEIGHT 1
VIEWPOINT 0 0 0 1 0 0 0
POINTS 415
DATA ascii
0.81027275 0.18770714 -0.20472604 13092285
0.81431586 0.19431321 -0.20541687 13355201
0.82000005 0.19990763 -0.20639776 12565174
0.81211114 0.19608688 -0.19670194 10722970
0.44516212 -0.1142616 0.037943486 15657955
0.44817868 -0.10649355 0.038649198 14408658
0.45095462 -0.10292628 0.037071899 14079949
0.45240003 -0.096311934 0.037936274 13882314
0.49331251 0.057252254 0.0375815 13881800
0.48650002 0.064221889 0.039553527 14079181
0.49260002 0.061508279 0.038032409 13947594
0.44466671 -0.1206088 0.041618049 16315372
0.43900001 -0.11162093 0.049053185 15854306
0.44215304 -0.11488702 0.044564895 16117992
0.43833336 -0.10468525 0.047970057 16117990
0.44333875 -0.10497198 0.043108776 15657954
0.43691674 -0.095549665 0.048674241 15855076
0.44526008 -0.096063741 0.044600774 14605524
0.4514285 -0.093904257 0.041571647 13882570
0.43710002 -0.08816348 0.049401734 15066074
0.44654548 -0.085901804 0.047872182 13947592
0.45248312 -0.085088357 0.044555977 13750470
0.45394117 -0.0776162 0.048550673 13881799
0.44900003 0.027474485 0.049382232 13683655
0.45000002 0.029115861 0.049492214 13684168
0.45050001 0.033895798 0.049283259 13749960
0.45409691 0.045999173 0.048157055 13815752
0.49251992 0.048032228 0.043974761 13683911
0.45635557 0.054728031 0.048215136 13947338
0.46249998 0.056791473 0.045112628 14012875
0.47466668 0.057195779 0.043684591 13946827
0.48300001 0.057535976 0.043227911 13881545
0.49244118 0.054508395 0.042598553 13684167
0.45528004 0.065028504 0.047846567 14276046
0.46422005 0.065026022 0.042962007 14210509
0.47000003 0.063968398 0.040689085 14276305
0.48200002 0.06221652 0.040599585 14013133
0.49149999 0.060852438 0.040537115 13947594
0.4549796 0.074549176 0.047506712 14144457
0.46220839 0.073229462 0.04285137 13815494
0.45150003 0.080475941 0.049128119 14275784
0.44000003 -0.12037309 0.0550877 11315620
0.43841314 -0.11435883 0.055263113 15196632
0.44000003 -0.11831298 0.052512575 15065306
0.43468124 -0.10511367 0.05494396 15262168
0.42766666 -0.092805579 0.057778474 15722718
0.43150729 -0.095796347 0.053966023 15789281
0.42595592 -0.084740192 0.056723192 15855076
0.43210265 -0.085605524 0.051901016 15460575
0.44150001 -0.08305677 0.050624479 14473936
0.45400003 -0.080627427 0.050994966 13881799
0.42435375 -0.07523863 0.056858107 15263453
0.4325 -0.077809952 0.053139135 14934489
0.453381 -0.076879755 0.052289575 13881799
0.42457145 -0.067689121 0.05800195 14407887
0.42000002 -0.040667899 0.059957918 13618627
0.41900003 -0.039099738 0.059815161 13355457
0.42000002 -0.038209826 0.059957918 13158078
0.4488306 0.026461493 0.055634178 13618118
0.43727276 0.037732001 0.059350606 14012874
0.44668418 0.0347552 0.056077756 13749447
0.45009995 0.035445191 0.051399678 13749448
0.43621734 0.045336988 0.058337756 14276045
0.44516367 0.04468862 0.054291859 13947081
0.45088896 0.045009058 0.051113721 13881544
0.43553573 0.055144098 0.057689309 14736337
0.4446305 0.055012647 0.053576268 14276301
0.45153338 0.054478638 0.051139288 14079180
0.43623078 0.064577051 0.057810206 15130838
0.44479308 0.06529215 0.052839153 14671058
0.45033336 0.06129092 0.050583113 14276559
0.43836844 0.073059894 0.058474112 15196374
0.4447684 0.07534875 0.054244101 14933202
0.44563645 0.081038974 0.054870367 14209481
0.43691239 -0.11493312 0.064926177 14802388
0.42900002 -0.10029071 0.068272799 14407630
0.43220678 -0.10523594 0.064883679 14670802
0.42602465 -0.09471494 0.065148532 14670545
0.43000004 -0.0991823 0.061553255 14801875
0.41847062 -0.081809856 0.067518517 14736337
0.4216001 -0.085699141 0.064501621 15065045
0.41655174 -0.074742332 0.065835878 15394267
0.42074081 -0.075266965 0.060901925 15723489
0.40900001 -0.060667261 0.069877304 15854563
0.41507751 -0.065130919 0.06608735 15657696
0.42073342 -0.065067783 0.061144937 14999766
0.40900001 -0.057316095 0.069877304 15854306
0.41512287 -0.055459384 0.067673504 15065817
0.42086443 -0.054569926 0.063303635 14013385
0.41610345 -0.046079166 0.068465352 14013387
0.42081076 -0.044234876 0.064493515 13421249
0.41900006 -0.036941789 0.0611884 13684421
0.42089865 -0.035278447 0.065028839 13355457
0.42262501 -0.02917294 0.067632236 13355457
0.41500002 0.0091221798 0.069685668 13684166
0.42900002 0.0091776317 0.068272807 13552069
0.43000001 0.0091990242 0.067425311 13552069
0.417 0.015481337 0.069196165 13815751
0.42370281 0.016324244 0.066751443 13618116
0.43116668 0.014498036 0.064969525 13486276
0.44600001 0.019982254 0.06158141 13617862
0.41825008 0.02510548 0.069009185 14341838
0.42297098 0.02549682 0.065307274 14144460
0.43336362 0.026244855 0.062414106 13749447
0.44563159 0.024956919 0.061526727 13683654
0.41770375 0.035228722 0.068538293 14605009
0.42376715 0.034938615 0.064613529 14407631
0.43322226 0.034989849 0.060901526 14144459
0.44200003 0.030150343 0.060509406 13815496
0.41828576 0.041263163 0.068945169 14670801
0.42397791 0.045292027 0.06574478 14736337
0.43095243 0.045106087 0.061087802 14539215
0.42581159 0.054859627 0.066019818 15131093
0.43065211 0.055808283 0.061214563 14999508
0.42756099 0.063468061 0.067429945 15262423
0.43103343 0.066031896 0.063529164 15328472
0.43425766 0.074926756 0.064926758 15196629
0.4376429 0.080932133 0.064662896 13946821
0.44000003 0.081516311 0.060752962 11315361
0.43900004 -0.12009951 0.075002782 12104623
0.43620005 -0.11474697 0.075032949 14407631
0.42888883 -0.10071108 0.075227968 14341837
0.43151349 -0.10589436 0.074976891 14407630
0.42537493 -0.094969906 0.075039811 14275788
0.41815382 -0.082546383 0.074805148 14078665
0.42100009 -0.087523304 0.075231545 14144458
0.40900001 -0.070720769 0.078973331 13749700
0.4143101 -0.075307176 0.074727573 14078666
0.40782306 -0.064030774 0.075823866 14539216
0.41090325 -0.067233935 0.072340965 14933974
0.40547362 -0.05493468 0.075099394 15262682
0.41060004 -0.052732803 0.070150666 15459805
0.39900002 -0.041903734 0.079377607 15328732
0.40370938 -0.045307167 0.075229645 15328476
0.412 -0.04536359 0.070475623 14605011
0.42000002 -0.040176284 0.070773423 13552836
0.39833331 -0.033599187 0.079243936 14999769
0.40123996 -0.036243316 0.076323591 14868181
0.41716671 -0.036325447 0.074038491 13749702
0.42154771 -0.03503602 0.073194727 13552836
0.39571431 -0.026350411 0.078986816 14078667
0.4244 -0.029071877 0.071711503 13223871
0.3923685 -0.01442221 0.079218104 13289409
0.3979412 -0.005729429 0.079056382 13947081
0.4005715 -0.0024587442 0.077097602 13815240
0.40428931 0.0058981269 0.076591782 14012872
0.41150007 0.008002039 0.071266204 13683909
0.40562803 0.014774595 0.076698422 14144457
0.41262233 0.015378729 0.071671449 14013128
0.40750015 0.024179999 0.077189274 14539214
0.41337323 0.02545128 0.072519876 14539215
0.40900001 0.031537708 0.079069078 14605007
0.41324082 0.035257816 0.074682146 14605007
0.41606063 0.044766437 0.075375162 14670800
0.42044449 0.047928598 0.071394816 14801872
0.41775 0.053082775 0.077481836 14933972
0.42166671 0.055803061 0.073516198 15130837
0.4244757 0.06501592 0.075163372 15327960
0.42734888 0.072682701 0.076240726 15130836
0.43105772 0.076854244 0.074067958 14933456
0.43281254 0.080754176 0.074507065 12565169
0.43398631 -0.1137355 0.084719613 14539216
0.42866665 -0.10110539 0.085167348 14144458
0.43069842 -0.106068 0.08501032 14276044
0.42501208 -0.094888531 0.085047618 14012872
0.4179782 -0.082719877 0.085109405 14012872
0.42087242 -0.087764315 0.084839575 14012872
0.40900001 -0.070720769 0.081367016 13815493
0.4135761 -0.075544097 0.08515805 13947079
0.40714163 -0.06513872 0.084934488 13947079
0.41000003 -0.069933861 0.0887646 14078666
0.40244037 -0.055014644 0.085002035 14078666
0.39731523 -0.044026613 0.08517544 14539217
0.40004548 -0.048824608 0.083884664 14473423
0.39454499 -0.034970645 0.084901296 14473424
0.3885625 -0.02409365 0.088784285 7566965
0.39242697 -0.024911754 0.083859473 14342095
0.38864106 -0.016039861 0.088583477 10197397
0.39147121 -0.014671608 0.08381591 14013130
0.3940908 -0.0052797622 0.085017845 13947334
0.39681458 0.004407852 0.085705429 13683905
0.40010005 0.0065462128 0.081235401 14012871
0.39862508 0.011561484 0.088109188 13420990
0.40099123 0.015787121 0.084630117 13815491
0.4043363 0.025261162 0.084827527 14144713
0.40791601 0.034202777 0.085911587 14210506
0.41073334 0.037762724 0.082351118 14407628
0.40899995 0.04182623 0.089287966 14144968
0.41221139 0.045195915 0.084634699 14407884
0.41549093 0.055046134 0.084984235 14736592
0.41807145 0.062669948 0.087609187 14736591
0.42127782 0.065969758 0.083832428 14933715
0.42509675 0.07461413 0.085276701 14867409
0.42999998 0.07932812 0.080847144 14866896
0.42850003 0.080388896 0.087251455 13485760
0.43060002 0.08138825 0.081631988 6773845
0.43414095 -0.11424073 0.095190965 14275789
0.42844832 -0.10185727 0.095091686 14078666
0.43065998 -0.10656888 0.094911508 14276045
0.42412081 -0.095090821 0.095076129 13947080
0.41746154 -0.082956009 0.094870321 13815495
0.42072517 -0.088015392 0.095026091 13881288
0.41268477 -0.075212196 0.09493047 13881288
0.40667316 -0.065020189 0.094998956 14078667
0.39875001 -0.050862603 0.098813921 14276046
0.40150023 -0.055083867 0.094763033 14144460
0.39604667 -0.0446533 0.095160075 14341582
0.40000001 -0.049500015 0.092686251 14276046
0.38844439 -0.03170231 0.096337892 11578276
0.39179537 -0.036159549 0.094522454 13683396
0.38472828 -0.025050521 0.095076509 2698537
0.38482204 -0.015222924 0.094947807 2961710
0.38823077 -0.0079644434 0.096230179 12829367
0.3912338 -0.0036047336 0.094195828 13420990
0.39424205 0.004780042 0.094992027 13354940
0.39741823 0.014118083 0.095483467 13486526
0.39999998 0.018623607 0.093232475 13749698
0.39900002 0.020678699 0.099460028 13816004
0.40133679 0.025003009 0.094915882 13947077
0.40540355 0.034705043 0.094985545 14078662
0.40826499 0.042974796 0.095105305 14210247
0.41072226 0.047889411 0.094768889 14276298
0.41395193 0.054932788 0.095039882 14539214
0.41728988 0.064917333 0.095059156 14736592
0.42000002 0.069551907 0.091814496 14802127
0.41900003 0.070759557 0.097415805 14999505
0.42250651 0.074970625 0.095174 14670284
0.42750001 0.080451779 0.091051579 8090219
0.4346154 -0.11427408 0.10503977 14209995
0.42845836 -0.10150226 0.10496369 14144459
0.43080708 -0.10623654 0.10529364 14144459
0.42459995 -0.095131591 0.10513308 14144459
0.41703454 -0.083105952 0.10529868 14210252
0.42072994 -0.088136107 0.10459699 14144460
0.4085882 -0.071212515 0.10694059 14210253
0.41239759 -0.075817369 0.10459285 14078667
0.40515456 -0.064955361 0.10497854 14341839
0.39774078 -0.052740455 0.10578232 14341839
0.40055361 -0.057088695 0.10433315 14341839
0.38900003 -0.040853515 0.10926116 13814725
0.39324787 -0.044917446 0.10490908 14209995
0.38692048 -0.034451164 0.10632169 11512740
0.39062962 -0.037706748 0.10223171 13552067
0.37830007 -0.023700729 0.1068234 2436134
0.38104558 -0.026046677 0.10296926 2501671
0.37834701 -0.016705595 0.10738821 2501927
0.3815445 -0.014063213 0.10365991 3094066
0.38714918 -0.0059532323 0.10535698 12763317
0.38999999 -0.0013344667 0.10278586 13158074
0.39207238 0.0046561519 0.10482815 13289660
0.39562696 0.014880691 0.10493483 13618369
0.3978959 0.022544473 0.10641975 14078663
0.4007313 0.026526039 0.10409694 14078920
0.40365529 0.034885585 0.10516256 14144713
0.40716684 0.044590559 0.1055815 14341835
0.41046157 0.048473898 0.1019834 14473421
0.40875 0.051086999 0.10906655 14605007
0.41217124 0.054981712 0.10478361 14736080
0.41607547 0.064842582 0.10488793 14998995
0.4186191 0.071395405 0.10633154 15065043
0.42161343 0.076035276 0.10479748 14670027
0.42371431 0.080482997 0.10611192 4931897
0.43483335 -0.11469964 0.1151884 14341839
0.42815626 -0.10213087 0.11558972 14341838
0.43081132 -0.10684391 0.11500745 14341839
0.41900003 -0.090105839 0.11866836 14539218
0.42364514 -0.095115028 0.1149334 14341839
0.41542354 -0.084403157 0.11500907 14473425
0.4204286 -0.08914791 0.11176095 14341838
0.40765172 -0.073021397 0.11558028 14407632
0.4114047 -0.077903174 0.11440577 14407632
0.39875004 -0.060780618 0.118767 14473425
0.40262622 -0.065106966 0.11496658 14341839
0.39602679 -0.054812353 0.11527493 14407632
0.40000004 -0.059265397 0.1114144 14407632
0.38859093 -0.042444747 0.11642171 13880775
0.39168423 -0.046774238 0.11420905 14341582
0.37899998 -0.030487215 0.11709934 2435621
0.3853628 -0.035759009 0.11485592 12104877
0.37600678 -0.024615405 0.11519994 2304546
0.38000003 -0.029233279 0.11029161 2633513
0.37627202 -0.015424894 0.11528806 2501413
0.38087502 -0.01091043 0.11244005 7566956
0.38561729 -0.0051716068 0.11510773 12631986
0.38858208 0.0030736648 0.11674491 13157817
0.39102945 0.0062945215 0.11319357 13420733
0.38900003 0.01014322 0.11927838 13618625
0.39276707 0.014900691 0.11499012 13683905
0.39634979 0.024816427 0.11539247 14144456
0.40000001 0.028783629 0.11122711 14276042
0.39784387 0.03272732 0.11788339 14341835
0.40142238 0.035876021 0.11393441 14276042
0.4041768 0.045061182 0.11508104 14473421
0.40793273 0.053795453 0.11596908 14736593
0.41086841 0.057744246 0.11324978 14802130
0.40900001 0.060453493 0.11966608 14999765
0.4133271 0.065033786 0.11489163 14999252
0.41719323 0.074344039 0.11560056 14275529
0.42044449 0.077510864 0.11163991 13683652
0.41800001 0.080376126 0.11936368 2826267
0.42883334 -0.11146248 0.12914984 14670804
0.43174997 -0.11406182 0.12445331 14605011
0.42661044 -0.10430338 0.12561707 14539218
0.43010521 -0.10839249 0.12244896 14473425
0.41713157 -0.092352159 0.1262794 14605011
0.42191535 -0.09669622 0.1242261 14539218
0.40827778 -0.081587486 0.12794927 14670803
0.41321591 -0.085691892 0.12451745 14605011
0.40496159 -0.074653879 0.12540165 14670803
0.41050002 -0.079629019 0.12154467 14407632
0.3972958 -0.063382432 0.12599705 14605010
0.40118366 -0.067302294 0.12318192 14539218
0.38870001 -0.05174192 0.12892221 14407375
0.39293909 -0.055146068 0.12480651 14473168
0.38692385 -0.044656336 0.12540482 13683908
0.39011115 -0.048682299 0.1218511 14276046
0.37731999 -0.031537239 0.12625711 5723215
0.3833333 -0.036262352 0.1247248 12368305
0.37294915 -0.025268305 0.12497173 1975327
0.37346628 -0.015446494 0.12512097 2764582
0.38372552 -0.004519599 0.1247239 12237228
0.3861925 0.0047119819 0.12497902 12960695
0.3884469 0.013535749 0.12578018 13487040
0.39052784 0.017472921 0.12263954 13750211
0.38900003 0.02152642 0.1292956 14013385
0.39297649 0.025097009 0.12493742 14079177
0.39613438 0.034998544 0.12531585 14276299
0.40000001 0.039146535 0.1210906 14407628
0.3974655 0.043734971 0.12721285 14473421
0.40112317 0.045978669 0.12320901 14539214
0.40453762 0.054947264 0.12480935 14802387
0.40781555 0.063321061 0.12664406 14868180
0.4112592 0.066816382 0.12324762 14933973
0.41432419 0.074935056 0.1251827 14078149
0.41800001 0.080376126 0.1208315 3089437
0.42752945 -0.1122248 0.13394174 14144717
0.43000001 -0.11608162 0.13276525 14473168
0.42399982 -0.10512995 0.13460466 13815495
0.41558835 -0.093940325 0.13393302 14012874
0.42052945 -0.098774135 0.13328822 14210253
0.40700015 -0.083795354 0.13410991 13683909
0.41105881 -0.088568434 0.13226591 14341839
0.39873341 -0.071497411 0.13601512 12829112
0.40206939 -0.075597018 0.13347752 13947337
0.39502138 -0.06493549 0.13380516 14210252
0.38707134 -0.053526014 0.13505565 13683908
0.39103454 -0.058051109 0.13268334 14539216
0.38452724 -0.044960424 0.1348352 13091771
0.36784619 -0.030947598 0.13650347 2237983
0.37562966 -0.032519143 0.13448822 7433574
0.38219398 -0.037110578 0.13460088 12170925
0.36665684 -0.024934717 0.13485526 2107169
0.37079415 -0.025182027 0.1311069 1843998
0.36641666 -0.016477013 0.13499516 2435105
0.37218609 -0.014940574 0.13191278 3816756
0.37831587 -0.0091061192 0.13432136 12039333
0.38121003 -0.0043878006 0.13498475 11842214
0.38355455 0.0048001851 0.13490082 12565938
0.38553986 0.014760158 0.13497105 13421247
0.38777578 0.024147626 0.13549271 13947592
0.39096296 0.027653715 0.1319458 14144971
0.38882756 0.032330688 0.13818316 14079178
0.39214051 0.035625905 0.13410677 14210764
0.39453498 0.04517423 0.13516027 14473679
0.39649433 0.054196458 0.13673154 14802388
0.40111536 0.056294098 0.13234363 14868180
0.39820001 0.061094712 0.13906424 14868181
0.40384617 0.065081835 0.13484596 14868180
0.40753353 0.073231675 0.13668947 14802129
0.41163155 0.076617718 0.13350026 13683647
0.42500001 -0.10731506 0.14026631 10461333
0.38150001 -0.036940593 0.14019921 9275779
0.36400002 -0.020333227 0.14953247 922124
0.36399996 -0.015803481 0.14955491 1775119
0.37900004 -0.0087496927 0.14194222 9540489
0.3809472 -0.0044978959 0.14156821 10658455
0.38234091 0.0047853994 0.1419528 11447971
0.38441125 0.015191371 0.14268586 11974058
0.38598725 0.025030559 0.14324175 12631731
0.38857457 0.03481226 0.14398901 13223869
0.39000002 0.039080869 0.14088826 13947592
0.38899997 0.041636746 0.14618066 12828855
0.39124441 0.045773782 0.1437176 14144714
0.39324537 0.055010453 0.14468651 14473680
0.39627433 0.064252704 0.14562227 14605523
0.40081477 0.06751629 0.14187367 14802644
0.3983846 0.071223967 0.14805248 14737109
0.40361467 0.075197503 0.14444338 14144200
0.36378005 -0.032344311 0.15672715 2632485
0.36431259 -0.024965972 0.15662147 791051
0.36423007 -0.015682768 0.15522237 2037006
0.39620003 0.067837603 0.15023896 14342351
0.39825001 0.072151586 0.15078279 14737110
0.40069234 0.076328486 0.1511481 14276044
0.36213338 -0.032549299 0.16391173 1646359
0.36241773 -0.024830602 0.16502587 1251858
0.36315674 -0.016675042 0.16496776 1316366
0.34536842 -0.033019986 0.17848587 1580823
0.3549822 -0.032425206 0.17603898 857100
0.36135292 -0.032303162 0.17210357 1777689
0.34640223 -0.02499556 0.17838223 1448981
0.35498527 -0.02494818 0.17510252 857102
0.36058527 -0.02522957 0.17146604 1910044
0.34635413 -0.016561221 0.17884845 1382932
0.35437608 -0.016101699 0.17619839 922638
0.36060876 -0.01706036 0.17168385 1317907
0.33839583 -0.033097051 0.18797964 1580567
0.34148854 -0.033502657 0.18330677 1711897
0.33839458 -0.025762364 0.18811102 1580568
0.34186959 -0.024791567 0.18327016 1580311
0.33900005 -0.016692732 0.1885891 1514262
0.34145039 -0.01668217 0.18355471 1579541
0.33736363 -0.032488335 0.19067921 1580054
0.33786204 -0.024785671 0.19087398 1514775
0.33885008 -0.01738116 0.19103986 1449239
