# .PCD v0.7 - Point Cloud Data file format
VERSION 0.7
FIELDS x y z rgb
SIZE 4 4 4 4
TYPE F F F U
COUNT 1 1 1 1
WIDTH 700
HEIGHT 1
VIEWPOINT 0 0 0 1 0 0 0
POINTS 700
DATA ascii
0.43400002 -0.022211459 -0.050819684 11315361
0.43687505 -0.0044568325 -0.050133601 13881284
0.43900001 0.0019406874 -0.050377458 12368047
0.42481822 -0.08150284 -0.041878287 15788512
0.42202091 -0.074664392 -0.042520344 14472910
0.42156821 -0.065604024 -0.042343311 13947079
0.42107564 -0.054971743 -0.042350624 13946821
0.42136014 -0.044742323 -0.042434998 14670286
0.42430764 -0.034966219 -0.042847574 14933714
0.42710644 -0.026259022 -0.043143779 14736078
0.43146157 -0.023087641 -0.047263093 13354684
0.42831248 -0.017594911 -0.041130245 14472906
0.43251801 -0.014460121 -0.045826055 14276040
0.43486208 -0.0052789194 -0.044760998 13815746
0.43878794 0.0014499807 -0.045093767 12960437
0.44280005 0.0063722366 -0.043476313 12236971
0.44700003 0.01123794 -0.042817738 11710885
0.454 0.017321488 -0.04122638 11381922
0.45788893 0.022065969 -0.041348223 10790298
0.42877775 -0.09042418 -0.033365861 15261915
0.43022224 -0.092967607 -0.030905515 15394012
0.42599991 -0.084331632 -0.034678023 15130840
0.42301074 -0.074920863 -0.035301942 15656924
0.41847065 -0.062735654 -0.03131073 15722972
0.42087331 -0.065653116 -0.035603683 15788765
0.41783005 -0.054826234 -0.032484859 15788252
0.42074525 -0.055408407 -0.037584163 15722715
0.41751558 -0.045237016 -0.032918468 15525337
0.42078397 -0.044377837 -0.037878335 15525336
0.41790625 -0.035663042 -0.031356979 15130835
0.42164803 -0.034644656 -0.036462989 15196628
0.41900003 -0.028800432 -0.030426402 14801870
0.42291853 -0.025025129 -0.035268318 14670285
0.42557293 -0.015437489 -0.034861926 14210248
0.43000001 -0.011437049 -0.039278284 14078663
0.42804 -0.0083575584 -0.032928795 13815491
0.43167126 -0.0042690164 -0.035585552 13552319
0.43675607 0.0022668322 -0.033986971 12960438
0.4423914 0.0073290048 -0.035641517 12565937
0.44648942 0.012915527 -0.033961531 12302766
0.45320594 0.017469645 -0.036065802 11908265
0.457697 0.022262579 -0.035222199 11710886
0.46162167 0.026965823 -0.034835204 11710886
0.46496001 0.032678958 -0.032673508 12302768
0.43799999 -0.10137023 -0.023128144 14999769
0.44246668 -0.10565461 -0.021771468 15196891
0.42900002 -0.090247743 -0.028641827 14933974
0.43212193 -0.094813228 -0.024677686 14868182
0.42682555 -0.084569983 -0.025171883 14670802
0.43000001 -0.089451469 -0.022165444 14473425
0.41863641 -0.070961975 -0.022470966 15131351
0.42222792 -0.075469099 -0.025582444 14999509
0.41690814 -0.06477268 -0.024910675 15460057
0.42000002 -0.069673114 -0.02951579 15657179
0.41459417 -0.054759279 -0.024733255 15394264
0.41367999 -0.044898003 -0.024723297 15328471
0.41443819 -0.035020195 -0.024885116 14999506
0.41668293 -0.02586315 -0.024066325 14341832
0.42047831 -0.022075072 -0.027581524 14276296
0.41866669 -0.019139549 -0.020928098 13947331
0.42253613 -0.015059574 -0.02537445 13947076
0.42656583 -0.0060559125 -0.024643475 13355196
0.43031251 -0.0017489372 -0.027093597 13289660
0.42900002 0.00013896122 -0.020607453 13355197
0.43451846 0.0041604806 -0.024603432 13026232
0.44046158 0.0085508907 -0.027702607 12697525
0.43875 0.010670262 -0.021333024 12565937
0.44345692 0.015134999 -0.024979293 12434353
0.44833347 0.021924982 -0.024029627 12368816
0.45344901 0.025781844 -0.025218429 12105388
0.45809096 0.031151336 -0.022347612 11842472
0.46516368 0.035659403 -0.025170853 12236972
0.47000003 0.039762266 -0.027528182 12828597
0.46883336 0.041493069 -0.021606525 12697010
0.47118747 0.04464373 -0.024774859 12104874
0.45860004 -0.12170447 -0.012904266 15131101
0.46287501 -0.12555015 -0.011668926 15262687
0.44692004 -0.11180674 -0.014246079 14802392
0.45330438 -0.11714335 -0.013631656 14933722
0.43852639 -0.10095136 -0.015040143 14473683
0.44271943 -0.10621276 -0.015165472 14605012
0.43304998 -0.094659254 -0.014716255 14342096
0.42692113 -0.084031254 -0.015140587 14144716
0.42999995 -0.089011073 -0.013546109 14210509
0.41796669 -0.071294084 -0.015185392 14407373
0.4221167 -0.076453887 -0.015334781 14078666
0.41500014 -0.064963818 -0.015081212 15065301
0.41241881 -0.055132817 -0.015100832 15130836
0.40894461 -0.04390572 -0.012038682 15262421
0.41097024 -0.04538738 -0.016391283 15196885
0.40885195 -0.035953667 -0.011717048 14999506
0.41085705 -0.034643039 -0.016317988 14934226
0.40900001 -0.029070545 -0.010550707 14671054
0.41286102 -0.024906317 -0.015087275 14210503
0.41666156 -0.016082639 -0.013934582 13881538
0.4210287 -0.013068703 -0.017564539 13684160
0.41875002 -0.0089317076 -0.011047443 13618366
0.42362362 -0.0052624266 -0.015436747 13486782
0.42688891 0.0024276888 -0.014126975 13420734
0.43151164 0.0069802292 -0.015927024 12960696
0.43637303 0.013993575 -0.013611376 12565939
0.44153574 0.017608019 -0.017667618 12368816
0.43900001 0.021038905 -0.010639459 12434353
0.4465366 0.02399037 -0.015219707 12368817
0.451931 0.028349523 -0.015820259 12368560
0.45591071 0.034290258 -0.014070496 12171180
0.46253851 0.038298335 -0.017517295 12237485
0.4660278 0.044978634 -0.015273483 12763060
0.47000003 0.048014358 -0.019826233 12631217
0.46788242 0.052502304 -0.014166244 12499119
0.47000003 0.050765049 -0.019826233 12104873
0.46852627 -0.13169882 -0.0046949354 14539477
0.47000003 -0.13279809 -0.0014882591 14473686
0.45844448 -0.12160368 -0.0065807519 14407891
0.46450004 -0.12665196 -0.0050256788 14342098
0.44860005 -0.11159406 -0.0060566869 13815754
0.45267278 -0.11598704 -0.0040692086 13815754
0.43900001 -0.10057307 -0.00875533 14013133
0.44453338 -0.10522261 -0.0046479204 13420996
0.43572366 -0.094584368 -0.0048072706 13486788
0.44028574 -0.099100828 -0.0017863447 12894652
0.42737779 -0.082639657 -0.0054417704 13881288
0.43066669 -0.087359324 -0.0041221906 13881289
0.41786206 -0.071141399 -0.0049776281 14144716
0.4227536 -0.076419525 -0.0049376003 14078666
0.40900001 -0.060188524 -1.8466952e-05 14736595
0.41360208 -0.064788572 -0.0049109259 14736594
0.40807918 -0.053921353 -0.0035658071 14933972
0.41097051 -0.057169359 -0.0076039373 15394007
0.40719098 -0.045147896 -0.0047918712 15065556
0.4065471 -0.03505145 -0.0049092993 14868432
0.4072845 -0.025528045 -0.0041812123 14342088
0.41080004 -0.02212826 -0.008482147 14078917
0.40857142 -0.018358689 -0.0016132382 13815744
0.41275778 -0.014354666 -0.0054173465 13749952
0.41655815 -0.0060385792 -0.0041402248 13355195
0.42075011 -0.0023251942 -0.0076950002 13420988
0.41900003 0.00013572203 -1.8918467e-05 13025975
0.42399007 0.0045124693 -0.0049197515 13026488
0.42783335 0.011324358 -0.0028176142 12434352
0.43279171 0.015883241 -0.0050457385 12434353
0.43802783 0.022162475 -0.00375305 12171181
0.4431482 0.026796298 -0.005292112 12105388
0.44736373 0.032170109 -0.0032928712 12105388
0.45333335 0.036665779 -0.0056448253 12039595
0.45814288 0.041722544 -0.003802656 12171180
0.46296307 0.046418067 -0.0054011694 12763061
0.4675 0.052952442 -0.0052515501 12631476
0.47090635 0.058030404 -0.0039820448 12302510
0.47428122 0.063547231 -0.0027283626 11118491
0.4702175 -0.13175113 0.005004324 14210513
0.45900002 -0.12084308 0.0036326679 13289923
0.46559262 -0.12569048 0.005793937 13684425
0.45434329 -0.11454109 0.0052252542 13092801
0.46000001 -0.11938336 0.0096710445 13487559
0.44710413 -0.10391883 0.0044096522 12960701
0.45115003 -0.10800445 0.0066886358 13027006
0.43721953 -0.092830189 0.0047503402 13092542
0.442 -0.097858556 0.0056252191 13158336
0.42846152 -0.081261829 0.004070953 13684165
0.43186671 -0.085837051 0.0052567264 13355714
0.4177826 -0.071134724 0.0043196538 13223616
0.42313564 -0.075944528 0.0054213409 13420994
0.40899995 -0.060507685 0.0042901761 14276300
0.41410008 -0.065657899 0.0051953173 13486787
0.40713024 -0.054678235 0.0052231564 14341837
0.40355986 -0.044749595 0.0051731737 14802384
0.40240964 -0.034949191 0.0050436896 14802639
0.40330467 -0.025130689 0.0052793813 14276295
0.40682203 -0.015447899 0.0055102799 13618622
0.41055557 -0.011292743 0.0019031786 13420987
0.40875 -0.0091971401 0.0088323485 12960951
0.41392711 -0.0050110412 0.0051555694 13026487
0.41803229 0.0012731433 0.0060408125 12631730
0.42223883 0.006075725 0.0049819797 12500144
0.42692316 0.011597334 0.0053614634 12105386
0.43190742 0.016829019 0.0050350181 11973800
0.43677503 0.022795973 0.0054495409 11908007
0.44173533 0.027641652 0.0049384688 11710629
0.44665793 0.032207206 0.0049879476 11644836
0.45275012 0.037512168 0.0055438066 11710630
0.45749995 0.042598065 0.0054751295 12236974
0.46208823 0.047305152 0.005226803 12368560
0.46651855 0.053185888 0.0057399212 12236974
0.47035012 0.058181047 0.003501293 12368560
0.47270596 0.062517829 0.0029043781 11118749
0.47000006 -0.13102542 0.013793386 13882061
0.46713433 -0.12512779 0.015308138 13487559
0.47000003 -0.12968062 0.019233651 13158594
0.45767739 -0.1128724 0.01384322 13092545
0.46208346 -0.11692247 0.016329521 12961215
0.44846669 -0.10183307 0.012508879 12895165
0.45344239 -0.10582668 0.015479 12632250
0.43853849 -0.09154392 0.012300796 12237492
0.44450003 -0.095508479 0.015594722 12171699
0.45000002 -0.099406026 0.018415198 12040113
0.43498701 -0.084849887 0.014309729 12105906
0.44066668 -0.088920124 0.018893577 11776941
0.42482764 -0.073363088 0.015037761 12105649
0.43064004 -0.078576863 0.015588497 12105906
0.41587096 -0.06378267 0.014806135 12697784
0.42068186 -0.068533249 0.015470886 12171442
0.40682912 -0.053409074 0.014707128 13552579
0.41147065 -0.058740288 0.016755229 12894906
0.39900002 -0.04040923 0.018850122 14407882
0.40184921 -0.044794828 0.014837473 14210249
0.39796975 -0.034597676 0.01690379 14605261
0.39999983 -0.03530493 0.011921132 14671054
0.39798295 -0.025747243 0.017392781 14276040
0.40037918 -0.024788426 0.012665841 14210503
0.39900002 -0.019486146 0.019130342 13815232
0.40326503 -0.014896952 0.014967806 13355450
0.40795237 -0.00791544 0.015645722 12763315
0.41258627 -0.0033401442 0.014599613 12565937
0.41729999 0.0017010201 0.015242783 12368815
0.42208931 0.0065134065 0.014996107 12302765
0.42693755 0.01205315 0.015262985 12039851
0.43166673 0.017185554 0.014464388 12039594
0.43696216 0.022825385 0.014610485 11842215
0.44154048 0.027663402 0.015261025 11776422
0.44604543 0.032306883 0.0155471 11710628
0.45332262 0.037843112 0.014834724 11973543
0.45812899 0.042254176 0.014648133 12303022
0.46180484 0.046851411 0.015379848 12368558
0.46575475 0.053193484 0.015537466 12105643
0.47000003 0.058467001 0.019233651 10986905
0.46840003 -0.12281842 0.023821445 12105909
0.47000003 -0.12821358 0.021984348 11514027
0.45900002 -0.11052763 0.020395294 12303287
0.46486574 -0.11506578 0.025177978 11974321
0.4573777 -0.10435858 0.023112459 11974320
0.46122223 -0.10654578 0.027334921 11711149
0.44679999 -0.09153305 0.023784351 11842734
0.45425007 -0.09599971 0.026933901 11842734
0.43740004 -0.082050063 0.021827567 11711148
0.44377595 -0.085516304 0.025637195 11776941
0.42700005 -0.072109766 0.021790283 11842734
0.43453187 -0.075572386 0.025507087 11776941
0.44100004 -0.078938618 0.029094392 11513769
0.41705555 -0.062515102 0.02222188 12039343
0.42346674 -0.065382876 0.025497667 12039600
0.43060002 -0.068610139 0.028810665 11908527
0.40764594 -0.052318171 0.024515608 12894138
0.41309309 -0.05726485 0.024929034 12499637
0.42100003 -0.059983313 0.029548049 12170929
0.39864287 -0.041133158 0.025977334 13881285
0.40232491 -0.0455941 0.024975479 13420736
0.39600816 -0.035105281 0.025009166 14276299
0.39547011 -0.025016364 0.02503638 14078918
0.39747921 -0.0171027 0.026672199 13486782
0.40192544 -0.013191041 0.024104051 13026487
0.4064377 -0.0061517879 0.025188971 12565937
0.41107413 -0.0017191106 0.023823753 12565937
0.41532564 0.003639417 0.025414584 12368558
0.42078951 0.0085356273 0.024449194 12368558
0.42530662 0.01387283 0.025434716 12236973
0.43108004 0.018265853 0.023349326 12105644
0.43641883 0.024354866 0.025562147 11908008
0.4407143 0.027853219 0.022308229 11973802
0.43900001 0.031315979 0.029441111 12039595
0.4441213 0.032380812 0.024324553 11973801
0.45435005 0.038285866 0.023547683 12039594
0.45862508 0.041551657 0.023534032 12368301
0.46208927 0.045956966 0.025186423 12500145
0.4671607 0.053335734 0.025267715 12236972
0.4701668 0.058243353 0.02498891 11250077
0.47150004 0.060861178 0.027020982 10723733
0.4679375 -0.1126811 0.031953961 11645612
0.47033343 -0.11336172 0.035895213 11316391
0.46550748 -0.10479669 0.034600753 11514026
0.47000003 -0.10905039 0.038488526 11382184
0.4584074 -0.09369339 0.034280248 11579306
0.46202862 -0.097013511 0.036232006 11513513
0.44753131 -0.082951225 0.033346098 11710892
0.45367661 -0.086542405 0.036749195 11645355
0.43732268 -0.072186053 0.034329101 12500149
0.4435128 -0.077066787 0.0359523 12499894
0.4255518 -0.063040905 0.034298334 13223615
0.43236673 -0.067780927 0.035005312 12894650
0.40788895 -0.051397413 0.034816019 13881286
0.41391495 -0.055766109 0.035233852 13683908
0.42087501 -0.059842601 0.033727355 13486786
0.39786673 -0.041692793 0.035498556 13815493
0.40237701 -0.046358403 0.035112076 13881286
0.39451253 -0.034975953 0.035073321 12960439
0.39297554 -0.024711249 0.034935474 10724504
0.39530829 -0.014707314 0.03517982 12039850
0.40000001 -0.010170911 0.030883376 12894902
0.39833334 -0.0087291887 0.037591252 12565937
0.4029901 -0.0046304571 0.034556482 12500144
0.40759999 0.0010866965 0.036870733 12434351
0.41388667 0.0058986889 0.034505997 12302765
0.41744447 0.012117066 0.036715455 12368558
0.42290917 0.016041227 0.034448095 12105387
0.42700002 0.021064829 0.038029134 11908007
0.43376839 0.025476424 0.034387585 11776422
0.43850005 0.031708818 0.035050701 12039595
0.44325927 0.035589624 0.036533769 11973801
0.4546667 0.039175164 0.031910956 12105130
0.45714283 0.043929465 0.03641028 12368814
0.46091893 0.04707405 0.033397403 12368815
0.4640168 0.053744063 0.035004772 12105645
0.46863639 -0.10217728 0.041568939 11513770
0.47142425 -0.10368534 0.045433909 11842735
0.45900002 -0.090111606 0.041348577 12105135
0.46519619 -0.094945803 0.044270094 12237235
0.47044447 -0.098477043 0.048070811 12237235
0.45538458 -0.084595494 0.04450893 13025979
0.46099997 -0.088778451 0.04789748 12631736
0.43712506 -0.071450144 0.045003992 13486529
0.44494879 -0.076518878 0.044286799 13420736
0.45000002 -0.079917051 0.045805108 13354944
0.42658824 -0.063310295 0.045090642 13551809
0.432275 -0.067463003 0.045138191 13486273
0.40703124 -0.051623523 0.044914681 13881031
0.41363263 -0.056214854 0.045001153 13683652
0.42028573 -0.059881542 0.045238588 13486016
0.39706388 -0.04241579 0.045389354 13683652
0.40177768 -0.047164615 0.044867232 13749188
0.38887498 -0.031395555 0.047092944 2239009
0.39234018 -0.035589073 0.044502862 8223861
0.38829294 -0.025327099 0.046337388 2304545
0.3905625 -0.024700863 0.041097008 2501410
0.38850003 -0.01851779 0.047273595 2435619
0.39267302 -0.014013613 0.044519622 9276802
0.39726156 -0.0066772727 0.045563586 12566194
0.40049991 -0.0024899226 0.043875471 12369071
0.40538469 0.0043526855 0.045410894 12171693
0.41145456 0.0087158764 0.041835204 12171179
0.40900001 0.010856218 0.048621334 12171179
0.41476741 0.014663662 0.045100771 12236972
0.42135715 0.018668486 0.041831188 11973800
0.42616078 0.024124574 0.045549221 11644835
0.43084618 0.028033597 0.043968543 11513506
0.43547833 0.03174888 0.044691335 11908264
0.44411999 0.037061106 0.045018729 12039593
0.44885713 0.041200995 0.046063177 11710628
0.45495164 0.046109863 0.044944491 12500143
0.4587501 0.051698253 0.047298867 12434352
0.46293336 0.055860527 0.044409238 12171179
0.46544445 0.060806289 0.045496438 10460818
0.4755384 -0.10217835 0.052904084 11973807
0.46715003 -0.092097081 0.053733952 12631479
0.47235903 -0.096680254 0.055553302 12434357
0.45661908 -0.082623914 0.053072345 13025979
0.46309373 -0.086648807 0.05649507 12960186
0.43758336 -0.071566962 0.055810791 13420737
0.44450003 -0.07536833 0.054085836 13354944
0.45150003 -0.078861356 0.054154865 13157565
0.4247942 -0.063309714 0.054644965 13486530
0.43147618 -0.067587219 0.05447986 13420737
0.40548721 -0.052496243 0.05517688 13683653
0.41440636 -0.057414647 0.053949803 13486530
0.39668918 -0.043424062 0.055147976 13420481
0.40089652 -0.048609257 0.055185847 13683396
0.38712066 -0.03258206 0.055414103 3028013
0.3921428 -0.037384693 0.05452178 11776169
0.38374031 -0.024996357 0.055181805 2172960
0.3853412 -0.016859652 0.055401336 3290926
0.3917838 -0.011992165 0.05372094 12237227
0.3957414 -0.005515805 0.055052627 12434608
0.40000001 -0.0010409413 0.051250234 12434351
0.39860001 0.00050274062 0.057742178 12106156
0.40350905 0.0052395775 0.054763164 12171436
0.40818924 0.012091344 0.056048192 12039593
0.41294447 0.01665598 0.054461893 12039593
0.4174667 0.022224916 0.056955837 11644835
0.42290139 0.026079094 0.054296445 11447713
0.42646158 0.03154812 0.057032429 11579298
0.43473339 0.034687143 0.054834239 11776678
0.44211119 0.038611468 0.054022178 11973544
0.4466249 0.043560557 0.055724364 11973287
0.45196304 0.047800161 0.053739946 12499888
0.45614478 0.054416381 0.055289928 12499889
0.46080002 0.058187783 0.051326614 12368560
0.45790914 0.060763881 0.0574743 11644837
0.46325001 0.061423272 0.051490843 10592149
0.46881819 -0.091440678 0.062837087 12697527
0.47033346 -0.093401819 0.065785252 12828857
0.45862505 -0.081046723 0.062519886 13223358
0.4652667 -0.086364061 0.064465404 12960442
0.43880001 -0.07073734 0.064287014 13289151
0.44400007 -0.074077688 0.064728454 13157565
0.4527778 -0.078528196 0.064396307 13157565
0.41700003 -0.060389604 0.065386869 13025979
0.42350006 -0.06278158 0.063511804 13354944
0.43217644 -0.067590341 0.06402 13354944
0.40346557 -0.053228986 0.065592483 13420737
0.41450003 -0.058330461 0.0635866 13223358
0.39531186 -0.043974429 0.064875662 13288895
0.40000007 -0.049329758 0.06459403 13552323
0.38560817 -0.033017166 0.065179259 5329997
0.39148724 -0.038085148 0.064698204 12368306
0.37836212 -0.024129057 0.067863718 1844251
0.38102713 -0.025287861 0.063202836 2107423
0.37848574 -0.017066026 0.068105593 2238497
0.38236839 -0.015271909 0.063600779 5461579
0.39000002 -0.010829636 0.061609685 12368812
0.3947458 -0.0051947171 0.065024979 12434350
0.3979286 0.0015055826 0.065653831 12302765
0.40194929 0.0066049499 0.064680122 12105643
0.40647063 0.013683869 0.065330394 12039593
0.41150007 0.018438298 0.063920863 11842471
0.41636848 0.023678038 0.065401219 11513249
0.42072728 0.028565602 0.063506007 11447456
0.42305008 0.031682957 0.065530911 11513248
0.4359231 0.037515551 0.063645378 11842213
0.4390001 0.040689904 0.065940268 11841955
0.44386113 0.045327533 0.064774297 12236457
0.45050001 0.04971347 0.060620219 12828595
0.44900003 0.050949436 0.06795197 12565678
0.45396107 0.055567816 0.065078765 12565423
0.45693931 0.062223218 0.065324143 12302509
0.47081825 -0.091932386 0.072923593 12960701
0.45753333 -0.082041495 0.077808835 12433588
0.46525007 -0.085001551 0.073841736 12631478
0.47000003 -0.088750251 0.07215704 12631734
0.45457149 -0.077537321 0.077103972 12697015
0.46000001 -0.079539247 0.072129399 12960186
0.41860002 -0.060621314 0.076419078 12894138
0.42045453 -0.062590741 0.078188047 12894396
0.398 -0.050184242 0.077871442 13420481
0.40253124 -0.052322239 0.07424029 13420224
0.41537499 -0.058151387 0.076986849 12894394
0.394173 -0.044469852 0.075085029 13222590
0.40000001 -0.049500015 0.07114888 13486017
0.37900001 -0.030265404 0.076951459 1910045
0.38443661 -0.033415928 0.074727185 7303272
0.39066666 -0.038285878 0.074974388 12236465
0.37718913 -0.024664838 0.075353466 1712151
0.37738952 -0.016158748 0.07543651 2830375
0.38175002 -0.011491598 0.0770602 11119262
0.3881 -0.0086849425 0.077572241 12039850
0.39241347 -0.0044605876 0.074827068 12500144
0.39613092 0.0033596158 0.075797871 12434608
0.40082932 0.007730322 0.073491506 12171692
0.40415531 0.01470084 0.075406425 12171436
0.41100001 0.019376298 0.070700087 11908007
0.40772727 0.021349354 0.07755357 12039593
0.41489711 0.024901262 0.073276274 11710628
0.41999999 0.029632874 0.077656008 11710886
0.4235239 0.033031445 0.075974219 11644834
0.43241665 0.038399912 0.075857639 12039847
0.43741381 0.042516854 0.076563433 12303019
0.44281638 0.046691995 0.074359171 12368556
0.44759995 0.053852703 0.076329559 12631984
0.45157146 0.057498123 0.072691634 12631471
0.45344123 0.064027816 0.075435042 12565679
0.45357141 0.070681795 0.07824979 10460818
0.45700005 -0.081158869 0.082973801 12368308
0.46233335 -0.082841672 0.086560108 12565687
0.47200003 -0.088247068 0.089480489 12631736
0.45499998 -0.078142621 0.083371527 12433844
0.42116669 -0.0626368 0.082719378 12959931
0.398 -0.050568577 0.084275886 13354689
0.40193105 -0.053507775 0.084535383 13091773
0.41375005 -0.057499502 0.082540251 12894137
0.42050004 -0.059584331 0.083163232 12762807
0.39324072 -0.044504955 0.084956169 13025725
0.37818182 -0.030864066 0.084974647 1975325
0.38551158 -0.034683727 0.08544331 10460567
0.39030007 -0.038340952 0.084591225 12828346
0.37454146 -0.025060242 0.084760107 2041375
0.37441301 -0.015595349 0.084917665 2567461
0.38133335 -0.010886286 0.081515759 12302763
0.38797963 -0.0073029972 0.084451556 12105385
0.39100012 -0.0027291013 0.084851123 12434608
0.39429605 0.0047698077 0.084979393 12303021
0.39789194 0.0117869 0.086555727 12236972
0.40163529 0.016319748 0.08451093 12171436
0.40644455 0.022942426 0.084974207 11973801
0.41207147 0.027491704 0.084801987 11579300
0.41740003 0.031307966 0.088019587 11579044
0.42371938 0.03540469 0.085633166 11645093
0.43119997 0.039306309 0.082345501 12237227
0.42900002 0.04031083 0.089363039 12171179
0.43548775 0.044723932 0.085433647 12500399
0.44100001 0.048947763 0.082100019 12631471
0.43885717 0.051070664 0.088333882 12565937
0.44415119 0.055222496 0.084733844 12631728
0.44774982 0.064088456 0.086519726 12894900
0.45107901 0.066258132 0.08234404 12894900
0.44900003 0.070920654 0.088974304 12960696
0.45200002 0.071041018 0.08251062 10197133
0.45900002 -0.080440864 0.099910311 13157311
0.46537843 -0.083361842 0.095669731 12828602
0.47131827 -0.087818436 0.093461961 12763066
0.45532265 -0.075782143 0.097387001 12630967
0.46059999 -0.079212248 0.092924163 12565174
0.39853847 -0.050539181 0.095789425 13091772
0.40379545 -0.053587686 0.094636396 12828600
0.41166666 -0.057368297 0.095713049 12630966
0.39356881 -0.044600982 0.095097527 12828857
0.37900001 -0.030487215 0.091369204 1579796
0.38586667 -0.034627095 0.095200695 10328981
0.39000005 -0.039132539 0.094426863 12631222
0.3775385 -0.025681309 0.091732867 1910301
0.38216671 -0.024924289 0.097055614 989200
0.37521428 -0.014498536 0.093233906 2238238
0.38211763 -0.018347133 0.09659642 659980
0.38825336 -0.0047529829 0.096019536 11579043
0.39021048 -0.0019405991 0.092196047 12171694
0.38900003 0.00012600447 0.098788619 11908522
0.39237183 0.0047814273 0.09484683 11842729
0.39654008 0.012386627 0.094575502 11777193
0.40075001 0.018029459 0.094882287 11579814
0.40581489 0.023837253 0.094355345 11382435
0.41128579 0.028125282 0.097502887 11053470
0.41614288 0.031312916 0.095535651 11250592
0.4240205 0.036528807 0.094851777 11513507
0.42899999 0.04031083 0.096225739 11645350
0.43435529 0.045336675 0.095010817 12105644
0.43873692 0.051118657 0.094419695 11973801
0.44245169 0.05621659 0.095505759 12105387
0.44723442 0.064688697 0.094178706 12171436
0.45000002 0.066513628 0.099004745 12369330
0.44900003 0.070780508 0.092057586 11974057
0.45900002 -0.080440864 0.10205936 12960446
0.46340007 -0.082949013 0.10516916 12960445
0.45505556 -0.075850107 0.10206851 12565431
0.46300003 -0.078974098 0.10945212 12631480
0.41742426 -0.061814807 0.10548989 12434101
0.39583334 -0.051147297 0.10268161 12894652
0.40750003 -0.054243997 0.10157944 12565174
0.41574287 -0.057818562 0.10476539 12434101
0.39262143 -0.045081291 0.10401972 12105649
0.37650001 -0.030578936 0.10735145 6118485
0.38608509 -0.034910347 0.10419753 10526616
0.39000002 -0.039132543 0.10086856 12631734
0.37345609 -0.025008243 0.10642593 988940
0.38133329 -0.026061811 0.10180848 1120528
0.37116078 -0.015210128 0.10552299 1185548
0.38300002 -0.010635258 0.10040302 1449237
0.37118185 -0.0088865152 0.10787652 4661531
0.38689616 -0.0049767001 0.10324634 10461333
0.39000002 -0.00078666862 0.10725954 9343111
0.38899997 0.00053993898 0.10222428 11185056
0.39166036 0.0050846557 0.102721 11053727
0.39703846 0.012143613 0.10233168 11448228
0.4012 0.017447557 0.1023873 11448485
0.40681821 0.022864975 0.10292141 11119264
0.41175008 0.027077321 0.10220371 11185056
0.41637498 0.030841127 0.10306003 11185056
0.42556819 0.036735099 0.10458545 11514021
0.42899996 0.04031083 0.10392533 11514021
0.43293592 0.045409005 0.10482302 11908779
0.43836007 0.05141253 0.10633434 11974315
0.44304618 0.056270685 0.10473188 12303024
0.44807318 0.062905267 0.10594536 12171696
0.45071429 0.067012697 0.10377428 11842730
0.46633333 -0.082457222 0.11169492 12697273
0.46262503 -0.078099258 0.11247674 12499894
0.41750002 -0.060951285 0.11042452 12894652
0.41700003 -0.058925297 0.11029228 12894652
0.37053844 -0.030773938 0.11492094 2172957
0.36899999 -0.021723177 0.11882244 1580818
0.37035987 -0.025204124 0.11461644 1383183
0.36872223 -0.01762392 0.11886246 1712661
0.37065017 -0.01501093 0.11426307 1448975
0.37078571 -0.0087461676 0.11245397 3283218
0.43500003 0.048004579 0.11097973 9342852
0.43760005 0.051160019 0.1110283 10658712
0.44244444 0.057230607 0.1109206 10000527
0.44693336 0.063832633 0.11095373 10263442
0.35429999 -0.030905828 0.12812781 1778457
0.37100002 -0.030277945 0.12186524 1316881
0.35467765 -0.024923565 0.12649512 1120784
0.36600006 -0.02360021 0.12257978 1252370
0.37052172 -0.027751222 0.12206022 1712663
0.35413191 -0.015324519 0.12614474 1120528
0.36590573 -0.016603678 0.12181567 1120527
0.35333332 -0.0095356135 0.12687875 1251859
0.34900001 -0.030116517 0.13601729 1317905
0.35209998 -0.030632174 0.13194448 1581077
0.34857893 -0.026922029 0.13634363 1252112
0.35111827 -0.025130138 0.13205932 1317905
0.34900001 -0.01506982 0.13390668 1252113
0.35091034 -0.015359902 0.13177526 1251858
0.35125005 -0.0095481891 0.13072649 1251602
0.34454221 -0.027372509 0.14571549 1514513
0.33900002 -0.030047186 0.15592811 1317906
0.33764488 -0.024484957 0.15702365 1777686
0.34051844 -0.026049802 0.1523868 1580820
0.33726507 -0.014861794 0.15672758 1448978
0.34 -0.01978852 0.15360224 1317905
0.33695552 -0.0082000634 0.15663303 1382930
0.33356193 -0.024402853 0.16481343 2041113
0.33285034 -0.014884022 0.16503577 1646357
0.33283332 -0.008317559 0.1644236 1645587
0.33100009 -0.022873422 0.17165348 1186832
0.33100003 -0.015279627 0.17103915 725770
0.33100003 -0.0099661844 0.17045799 725514
0.35599998 -0.021275347 0.18944407 594698
0.35532069 -0.01497038 0.18817772 1910299
0.35499975 -0.0065491796 0.18750596 989453
0.35512 -0.021732567 0.19275483 726540
0.35582337 -0.01513358 0.19447272 1515543
0.35595527 -0.0074490523 0.19418406 725772
0.39214283 0.017175986 0.1990598 2237983
0.39300001 0.020674415 0.19931994 9212294
0.38656101 -0.032590169 0.20885958 1383698
0.37557149 -0.026221935 0.20893976 1449235
0.38483334 -0.029156277 0.20822294 1449746
0.357923 -0.013710116 0.20140314 1252372
0.35700002 -0.0093561197 0.20111947 331270
0.37285191 0.0071261828 0.20716673 528390
0.38625932 0.0083620315 0.20482719 1054989
0.37661543 0.013102397 0.20836689 528390
0.38621303 0.014396667 0.20658061 1186062
0.39093482 0.017436473 0.20285158 1317393
0.3881667 0.02042041 0.20943685 461829
0.39152318 0.022505939 0.20558469 3619377
0.37806898 -0.033084877 0.212703 1120271
0.37507144 -0.027354365 0.21111956 462342
0.37183335 0.0082468977 0.21049106 264706
0.37466672 0.012850452 0.21048118 462852
0.38133335 0.019167703 0.21036385 396292
0.38820001 0.022119142 0.21045589 462342
0.39100003 0.024383696 0.21050893 1053452
0.81656253 -0.22649337 0.33807024 2040859
0.80869997 -0.22767687 0.34698263 1844251
0.81221431 -0.22362185 0.34384063 2304544
0.81668752 -0.2173287 0.34636968 2041116
0.82042104 -0.21342777 0.34395543 6447964
0.80770832 -0.22537957 0.3557584 1054479
0.81085718 -0.22182871 0.35194784 2370851
0.80800003 -0.2191572 0.35935661 922893
0.81472725 -0.21605948 0.35540649 2305057
0.82000011 -0.21121414 0.35445556 1974811
0.80583322 -0.22517088 0.36499441 923149
0.80729997 -0.21641412 0.36594176 857613
0.81259096 -0.21252756 0.36346576 2041627
0.81640005 -0.20843661 0.36710244 2304028
0.82159263 -0.20396255 0.36418778 3619121
0.80570006 -0.22513288 0.37530947 594698
0.80756003 -0.21525459 0.37504143 595212
0.81000006 -0.21021855 0.37541589 726798
0.81503582 -0.20572543 0.37515742 1515287
0.82025009 -0.20231724 0.37320521 2763814
0.71900004 -0.22868122 0.38878489 7567470
0.72266674 -0.22871865 0.38822559 7501677
0.73484612 -0.22842343 0.38729203 7764848
0.7438572 -0.22862636 0.38704672 7634033
0.75000006 -0.22976209 0.3862341 7699574
0.80534375 -0.22526821 0.38492182 594956
0.80749983 -0.21503626 0.38499019 529418
0.81000006 -0.21021855 0.38205269 529420
0.80860007 -0.20947643 0.38725963 726284
0.81354284 -0.2043273 0.38483289 988944
0.81900007 -0.19913328 0.38821501 987916
0.82154834 -0.19490877 0.38486177 5000516
0.70742857 -0.22807463 0.39636728 7632496
0.7141819 -0.22729772 0.39323416 7698802
0.72660005 -0.22735515 0.39220992 7962228
0.73299998 -0.22740863 0.39120016 7172969
0.74900001 -0.22770229 0.39360952 7436654
0.75000006 -0.22800632 0.39150143 7568240
0.80451441 -0.22471841 0.39498779 595214
0.80703825 -0.21526095 0.39504352 661005
0.80877781 -0.20905963 0.39441457 792078
0.81147832 -0.20382528 0.39476627 988687
0.81680012 -0.19846773 0.39500865 1250830
0.82147616 -0.19304748 0.39492813 5658702
0.75300002 -0.22891833 0.40188131 6778724
0.79900002 -0.22980942 0.40211573 727061
0.80420011 -0.22471127 0.40504649 595213
0.80734611 -0.21526951 0.40500715 595213
0.81000006 -0.21021855 0.40575546 792592
0.81253338 -0.20421194 0.40480518 791824
0.81787509 -0.19814074 0.40443364 921613
0.82139128 -0.19335748 0.40527362 6185306
0.80490011 -0.22490761 0.41482031 529163
0.80770826 -0.21560921 0.41484925 397578
0.81 -0.21076034 0.41604927 332041
0.81329042 -0.20455436 0.41489536 660495
0.81900007 -0.19913328 0.41505715 593933
0.82204169 -0.19417459 0.41507515 5790804
0.80593103 -0.22503331 0.424602 529420
0.80827278 -0.2175099 0.42415637 529420
0.81073356 -0.21319078 0.42548215 463113
0.81484628 -0.20493899 0.42476383 725772
0.82000005 -0.20129605 0.42996114 461826
0.82311112 -0.19569801 0.42488134 6186332
0.80764711 -0.22651088 0.43338397 397579
0.81099999 -0.22329107 0.43758276 595213
0.81348008 -0.21492438 0.43477246 792334
0.81721443 -0.20703126 0.43383065 856844
0.82072729 -0.20304476 0.43680561 2698791
0.82490486 -0.1966065 0.43483171 7830642
0.81443489 -0.22462575 0.44511703 595213
0.81771433 -0.21645638 0.44380435 857614
0.8203001 -0.21289122 0.447402 791050
0.82272005 -0.20480809 0.44502491 5396560
0.81762511 -0.22643042 0.45395824 791821
0.8203001 -0.22249293 0.45700365 791308
0.82195646 -0.21524185 0.45550185 2896426
0.82622224 -0.20647079 0.45439327 7830900
0.81850004 -0.22966966 0.4627074 791820
0.82053334 -0.22447586 0.46289617 1909788
0.82469577 -0.21444511 0.4643203 7567728
