# .PCD v0.7 - Point Cloud Data file format
VERSION 0.7
FIELDS x y z rgb
SIZE 4 4 4 4
TYPE F F F U
COUNT 1 1 1 1
WIDTH 528
HEIGHT 1
VIEWPOINT 0 0 0 1 0 0 0
POINTS 528
DATA ascii
0.81000006 0.22401689 -0.060715757 4866873
0.81050003 0.21846297 -0.052214377 9011835
0.81424999 0.22424182 -0.058172435 4735286
0.82300007 0.22761221 -0.053016152 4801847
0.83742863 0.23636627 -0.052129481 4867897
0.81325001 0.21849282 -0.044776205 11117979
0.81700003 0.22021498 -0.042114347 11249566
0.82533336 0.22697191 -0.044802215 4472629
0.83050001 0.22968644 -0.043781757 4407092
0.83730781 0.23489039 -0.045576368 4538934
0.8403334 0.23765223 -0.042005371 4341810
0.84292316 0.24284032 -0.045115076 4670774
0.85000002 0.24701862 -0.041825552 4538932
0.81137502 0.21798773 -0.035652883 11907236
0.81900007 0.22267137 -0.030713681 6248526
0.82280004 0.22486286 -0.03625036 3420199
0.83539999 0.23182631 -0.037586711 3223846
0.84520006 0.23810482 -0.037231319 2763551
0.85100001 0.23934041 -0.031913724 856582
0.84800005 0.24147445 -0.03874936 4210995
0.85499996 0.24518539 -0.034775633 1645327
0.86266679 0.24666457 -0.030331722 987398
0.81000006 0.20600274 -0.020895043 11381663
0.81200004 0.21570264 -0.021263063 11644579
0.8174001 0.22223635 -0.024912095 6578008
0.83700001 0.2314841 -0.021591544 1577995
0.84800005 0.23651148 -0.022869065 1446408
0.85750008 0.24116851 -0.027137171 1315594
0.86800003 0.24717078 -0.028487243 1118728
0.43516669 0.036310077 -0.010206979 10723734
0.43866667 0.041219935 -0.010289072 10921114
0.44283333 0.046282563 -0.010386803 13354169
0.44749999 0.052004356 -0.010496262 13946818
0.45200005 0.057290662 -0.01060181 13749953
0.45587504 0.064719379 -0.0106927 13947077
0.81000006 0.19936596 -0.01899882 11250077
0.81325006 0.20635697 -0.018120205 11250077
0.81623811 0.21473262 -0.015682545 11381663
0.82000005 0.21334507 -0.011554833 11315870
0.81860006 0.22102971 -0.015749406 11776168
0.82133341 0.22363193 -0.014776136 9407620
0.83600003 0.23218842 -0.016183164 3091488
0.84650004 0.23708689 -0.016873652 3486501
0.85400003 0.24118376 -0.01303355 3223585
0.86300004 0.24473569 -0.013173247 3157279
0.40100002 -0.050562512 -1.810574e-05 15131351
0.39803448 -0.043476012 -0.0018817448 12894133
0.40015391 -0.047790304 -0.001026686 13683907
0.39585719 -0.035041053 -0.0019217478 14276554
0.39645612 -0.025315199 -0.0020387326 13947589
0.40022224 -0.021523476 -0.0048072729 14605261
0.39835724 -0.014990262 -0.0015739832 14013381
0.40020004 -0.016266624 -0.0043751723 14013126
0.39900002 -0.0092114182 -1.8015437e-05 13618625
0.40166083 -0.0047822283 -0.0022873338 13618880
0.40589839 0.0043940744 -0.0022254311 13487037
0.4111667 0.0092783719 -0.0037095698 13420987
0.40900001 0.010664723 -1.8466952e-05 12499631
0.41561905 0.015398148 -0.0037797785 12894644
0.41805887 0.021666998 -0.0020358693 13223865
0.42308936 0.025970142 -0.0037902738 13487036
0.43000001 0.029331779 -0.0080725169 14013124
0.42745838 0.032663498 -0.0016891289 13750208
0.4326719 0.035615534 -0.0057852073 13355195
0.43671736 0.043125853 -0.0036966943 13618109
0.44203126 0.046681382 -0.0067804516 13617853
0.44704083 0.053629812 -0.0041459673 13881023
0.45178127 0.057559084 -0.0065328176 13749437
0.44900003 0.061110232 -2.027301e-05 13880766
0.45548174 0.065304048 -0.0053298217 13617597
0.45683342 0.071679473 -0.0044874195 11512736
0.81850004 0.21678704 -0.0077026202 11184285
0.82000005 0.21910398 -0.0096351979 11250077
0.8173334 0.22158068 -0.0045027859 9078912
0.82050008 0.224281 -0.0069992347 8355187
0.45300004 -0.11155806 0.0091711627 12960183
0.44819996 -0.10359361 0.008513242 14012871
0.45050004 -0.10865756 0.0087686218 13552578
0.43608335 -0.091826417 0.0078086746 14671315
0.44287503 -0.097057961 0.0081457673 15131867
0.42672005 -0.082738675 0.0054184496 13420992
0.43136844 -0.086603865 0.0079009263 14671317
0.41795835 -0.071292892 0.0063410886 14605010
0.42244691 -0.076461129 0.0064448747 14342094
0.4084 -0.060817868 0.0058616116 14605266
0.41356611 -0.0659118 0.0057734894 14473423
0.40398869 -0.054710954 0.0053250417 14473679
0.39742187 -0.043399494 0.0055047725 14341836
0.40022209 -0.048174862 0.0044058678 14473422
0.39445469 -0.034969356 0.0050579221 14276555
0.39410928 -0.024777412 0.0050538513 13750467
0.39623627 -0.014710088 0.0050824019 13158331
0.3982791 -0.0075450111 0.0056401477 12960952
0.40043849 -0.0030919421 0.0047342679 12894903
0.40475443 0.0048821606 0.0051933834 12303279
0.40865219 0.011363355 0.0052640052 12040364
0.41245949 0.01609944 0.0053696409 11908522
0.41704166 0.023734109 0.0055537676 11974315
0.42078584 0.028633764 0.0048694648 12171951
0.42488229 0.034972113 0.0055007446 12171950
0.43000001 0.039398156 0.00098722253 13618879
0.42868745 0.041034691 0.0063779149 11842986
0.43182862 0.045740299 0.0047165151 12434608
0.43773168 0.054009873 0.0067538279 12039850
0.4417586 0.057556566 0.0036811223 12894388
0.44424325 0.065149091 0.005622711 12434352
0.45000002 0.069147266 0.0010331399 12828596
0.44684857 0.072704896 0.0060305749 12368816
0.45879993 -0.1220365 0.015659329 14473939
0.4550299 -0.1149388 0.015258442 14473939
0.44823071 -0.10331655 0.014973396 14276302
0.45085713 -0.10819145 0.01505739 14408144
0.43652496 -0.092422619 0.014929737 14013387
0.44276667 -0.097639494 0.015840093 14078924
0.42889994 -0.081190139 0.014539191 13750215
0.43194291 -0.085818037 0.014643998 13881801
0.41799998 -0.071095735 0.014455836 13684165
0.42359099 -0.076394565 0.015605042 13684165
0.40850002 -0.06155001 0.014804296 14078922
0.41341674 -0.066169672 0.014983162 13815751
0.39900002 -0.050310332 0.019130342 14078665
0.40313894 -0.055171803 0.015001402 14210508
0.39677221 -0.044581622 0.015090206 14144714
0.40000004 -0.04918788 0.012155232 14144971
0.39372754 -0.03490407 0.014728032 14013384
0.39294237 -0.024707429 0.014697574 13684418
0.39502493 -0.01466248 0.014774387 13421503
0.39748576 -0.0065137865 0.01516101 13158331
0.40036836 -0.0020646479 0.014262129 12895159
0.40499991 0.0048461533 0.015109878 12434864
0.40868005 0.011422361 0.015288808 11974312
0.41317576 0.016338266 0.014754971 11842727
0.4175714 0.022388475 0.014390223 11908779
0.42120698 0.02723909 0.015810743 11908778
0.42606252 0.034669984 0.014955288 11974571
0.43000004 0.038966741 0.017812451 11974571
0.42900002 0.040561903 0.010776821 11908009
0.43296427 0.04483356 0.014959178 12039850
0.43838632 0.052507319 0.013859675 11973801
0.44079164 0.056920569 0.015699401 11973800
0.44514641 0.064714104 0.014931612 11908008
0.45000002 0.069673993 0.019468658 11842215
0.44804764 0.071719185 0.012819361 11447458
0.45028573 0.071976982 0.01744868 11776421
0.45890477 -0.12135009 0.024279717 13947339
0.45562354 -0.11469598 0.024764542 13947594
0.44825014 -0.10260687 0.024815165 13815752
0.45169449 -0.10741977 0.025565634 13815751
0.43873921 -0.091403805 0.024497569 13683909
0.44273084 -0.096172683 0.02521308 13684165
0.42869997 -0.080550402 0.023966482 13552323
0.43332842 -0.085295238 0.024718564 13618116
0.41854551 -0.070500813 0.025365187 13683909
0.42330647 -0.075252041 0.024467479 13618116
0.40850002 -0.061513443 0.025727984 13881287
0.41361293 -0.066217035 0.024857627 13749701
0.39900002 -0.050310332 0.022399571 14210251
0.40283325 -0.054914989 0.02526621 14012872
0.39623845 -0.044830061 0.025035661 13816006
0.39302504 -0.034838874 0.0248244 13487553
0.39237198 -0.024672164 0.024784677 13158331
0.39363667 -0.014611583 0.024862679 13026488
0.39703521 -0.00592265 0.025011078 12960695
0.40000001 -0.0012750432 0.02526493 12566451
0.40392664 0.0049473452 0.02496567 12106157
0.4088333 0.011085921 0.024069443 11974314
0.41319057 0.015669253 0.024988571 11908521
0.41835305 0.021163777 0.02400367 12039593
0.42163858 0.026128082 0.025347298 11842471
0.42671436 0.033149105 0.024871681 11974057
0.43084624 0.037951801 0.025172902 11908263
0.4353953 0.044821456 0.024779858 11842470
0.44025004 0.049355492 0.029095948 11644835
0.43887502 0.050999314 0.021941569 12039595
0.44380286 0.055482268 0.025196349 11644835
0.44834387 0.062497947 0.024221875 11579043
0.45178577 0.066830851 0.026323298 11579043
0.45316014 0.071647927 0.024808282 11250079
0.45900002 -0.12019838 0.030066039 14079180
0.45793945 -0.1144994 0.03480655 13289665
0.44893748 -0.10120764 0.034071095 13355200
0.45310915 -0.10614527 0.035120472 13289151
0.43900001 -0.090552934 0.031582166 13289151
0.44416675 -0.095314294 0.035232976 13354943
0.43416923 -0.084612466 0.034793496 13420736
0.44000003 -0.089471646 0.039121956 13289664
0.41822228 -0.070684224 0.032291587 13420736
0.42425001 -0.075166866 0.035631936 13420736
0.4081035 -0.061902694 0.03440737 13420736
0.4139131 -0.066732824 0.03509729 13420736
0.39900002 -0.050310332 0.037811667 13750212
0.40287134 -0.055190757 0.034886181 13552577
0.39551544 -0.044449747 0.035492346 13684420
0.39292598 -0.034827791 0.034935668 12434608
0.39266965 -0.024692316 0.034910791 10132369
0.39359534 -0.014609895 0.034994539 12039594
0.39657134 -0.005407047 0.035495874 12763573
0.40000004 -0.0011814025 0.03284983 12565937
0.40404463 0.0050533703 0.034708373 12237229
0.40856248 0.01101237 0.034175485 12039851
0.41353571 0.016016055 0.035338812 11842472
0.41800007 0.021283764 0.035533905 11908264
0.42219448 0.026267594 0.034576338 11973801
0.42680004 0.031880118 0.035019141 12105386
0.43279168 0.037001472 0.03516835 11908007
0.43778384 0.042634506 0.034163777 11645091
0.44152388 0.047077194 0.03569179 11645092
0.44576004 0.054332074 0.034754511 11579555
0.4515 0.058545873 0.038822956 11381663
0.44900006 0.060509596 0.031813558 11777191
0.45461118 0.065503761 0.035403267 11250590
0.45685005 0.071429998 0.035117935 10790040
0.4587917 -0.11191007 0.043478522 13355457
0.46050003 -0.11454263 0.04651631 13289664
0.45410457 -0.10493134 0.045074385 13486786
0.44516176 -0.094978504 0.044914804 13355201
0.45000002 -0.099932753 0.046331838 13420737
0.43513504 -0.08466921 0.044951081 13420994
0.44000003 -0.089471646 0.046332292 13289408
0.42452544 -0.07476677 0.044251535 13420737
0.43000004 -0.079385094 0.045782603 13486530
0.4085238 -0.061576366 0.045157962 13354943
0.41430646 -0.066330135 0.044921171 13289150
0.39900002 -0.050310332 0.041080896 13684420
0.40286422 -0.055069443 0.045177519 13289150
0.39635712 -0.044570409 0.044974644 13684164
0.40000001 -0.049500015 0.047270503 13289149
0.38900003 -0.031018432 0.048065074 2107680
0.39202726 -0.035208911 0.044672661 7500138
0.38887352 -0.025416454 0.046901595 2238753
0.39051175 -0.024683125 0.041587491 2369826
0.38899997 -0.019301325 0.047488321 2369827
0.39203441 -0.014548899 0.044649135 8420981
0.39588889 -0.0051245545 0.045202892 12829366
0.39881256 0.00042107861 0.045670465 12500401
0.4026334 0.0050877612 0.045257255 12171693
0.40849999 0.011236418 0.046520218 11908521
0.41298825 0.015840327 0.044771291 11645605
0.41779995 0.021687293 0.044709876 11711398
0.42261019 0.026403118 0.044922121 11777191
0.42746156 0.031124089 0.044934012 11842728
0.43457898 0.036296248 0.044777054 11710885
0.43900001 0.041250475 0.040060747 11710115
0.44329119 0.044998296 0.045380861 11381407
0.44777504 0.052298419 0.044899937 11184287
0.45251435 0.057628214 0.044350762 10592150
0.45786485 0.064205088 0.043144155 10526867
0.46000001 0.065837964 0.047361434 11053722
0.45900002 -0.11052763 0.050482057 13487043
0.46157151 -0.11324938 0.054626275 13552581
0.4552536 -0.10492346 0.054990835 13486787
0.44559187 -0.094001099 0.055119354 13420737
0.45050001 -0.098725803 0.056535143 13486530
0.43543851 -0.084136702 0.055100072 13421250
0.44078571 -0.089337118 0.056071062 13355201
0.42460346 -0.073839597 0.054872409 13355457
0.43068182 -0.078870155 0.055299342 13355201
0.40842861 -0.061106734 0.054982107 13092284
0.41394344 -0.065624416 0.055143114 13092285
0.42000005 -0.069673114 0.057008237 13158078
0.40384373 -0.05498172 0.0548659 13092028
0.39609271 -0.044370733 0.054898959 13092028
0.40000007 -0.049421981 0.055620134 13026235
0.38767922 -0.032361172 0.055338558 2765096
0.39185247 -0.037171897 0.054586474 10987166
0.38549569 -0.025144001 0.055023622 2172959
0.38696805 -0.016445925 0.055494383 4277563
0.39102948 -0.012471735 0.05296639 11184284
0.39428693 -0.0053910036 0.054981109 12565937
0.39831582 0.00066942762 0.056319721 12236972
0.40299985 0.0056036976 0.054832257 11908520
0.407875 0.011800705 0.054916359 11514021
0.41357818 0.016813794 0.055064492 11053213
0.41742104 0.021428742 0.053419203 11316128
0.42394742 0.026237577 0.054019991 11381921
0.43075001 0.02913128 0.058468547 10856091
0.42788893 0.030858219 0.051846452 11053468
0.43527415 0.035474245 0.055139761 10856091
0.44000003 0.039284348 0.05920789 10592919
0.44417566 0.04475598 0.054710679 10921627
0.44846153 0.051669996 0.051987983 10526358
0.45900002 -0.11052763 0.061227333 13355201
0.46111763 -0.11205453 0.064113989 13289664
0.45629686 -0.10469519 0.064575128 13355201
0.460125 -0.10904832 0.067840651 13157822
0.44627455 -0.093131043 0.064835332 13223615
0.45165223 -0.098416455 0.065352231 13223359
0.43689576 -0.08287961 0.064545944 13092286
0.44150001 -0.087592594 0.065971106 13092030
0.42411366 -0.073116057 0.065219924 13092030
0.43171433 -0.078186944 0.065460794 13092287
0.40900001 -0.060188524 0.06317497 12828859
0.41447887 -0.064437471 0.065029509 12960444
0.42057148 -0.069486983 0.066298373 13026237
0.40554035 -0.055151489 0.06508445 12894649
0.39629266 -0.043923277 0.064719021 12894649
0.40028575 -0.048933394 0.066515334 12829113
0.38632309 -0.032858361 0.064981066 5461582
0.39202273 -0.037961114 0.065140061 12499634
0.38193938 -0.024913233 0.064798012 1975581
0.38362721 -0.015540828 0.064706765 4606528
0.389 -0.009891212 0.066004992 12105386
0.39365485 -0.005063477 0.064953253 12236716
0.39780006 0.0016626903 0.065024987 11841958
0.40208569 0.0058426615 0.063229322 11513250
0.41233337 0.0097863609 0.068517029 10658712
0.41541502 0.015396453 0.065273933 10527127
0.41900003 0.02073434 0.068643145 10066577
0.4233501 0.02296656 0.063999712 10395542
0.43200004 0.027971568 0.064567879 10132113
0.43670002 0.033630367 0.063055739 10328978
0.44141179 0.037770446 0.064597405 9868428
0.44436368 0.042607877 0.062496606 10066319
0.4630909 -0.11092193 0.073500887 13026239
0.45808107 -0.10280181 0.075047418 12697530
0.46092004 -0.10771142 0.074646518 12829116
0.44794115 -0.092259705 0.073264249 12566199
0.45311636 -0.096510701 0.075712845 12434614
0.43827277 -0.081566162 0.07394702 12434358
0.44262499 -0.085607015 0.075235032 12368821
0.42465627 -0.072314173 0.074542463 12237492
0.43344444 -0.077602066 0.076368108 12040114
0.41522819 -0.063603319 0.074367113 12039856
0.42078951 -0.06871599 0.074795745 12105906
0.40662232 -0.054134227 0.073429294 12171441
0.41144827 -0.057827428 0.076773673 11710891
0.39648485 -0.043163806 0.074616961 12434100
0.40072408 -0.047941223 0.075193159 12170929
0.37900004 -0.03033934 0.078356266 1910046
0.38465619 -0.032852374 0.074759103 6250843
0.39214638 -0.037940554 0.074926339 12302515
0.37738159 -0.024352008 0.075518891 1580567
0.38023084 -0.027950864 0.071261436 1975582
0.37769404 -0.016116705 0.075628929 2896427
0.38166669 -0.013641558 0.071233802 5461839
0.38550001 -0.0098022167 0.07439068 10790555
0.3937847 -0.004659086 0.073952846 11052959
0.39784214 0.0016017386 0.072284378 10526872
0.40360004 0.0050576399 0.072340772 10329748
0.41375002 0.0090142833 0.073030643 9934991
0.41565388 0.01327225 0.07221207 9539977
0.43900001 0.029431848 0.070891947 8552314
0.44000003 0.028983869 0.072598517 8420728
0.44370002 0.032875136 0.072790787 9145219
0.45881826 -0.10208683 0.081611216 11579820
0.46000001 -0.10538408 0.080744348 12040115
0.44900003 -0.090250634 0.082492419 10856098
0.45444828 -0.095869161 0.082228005 11250856
0.43900001 -0.080018938 0.080141313 11645357
0.44497064 -0.084024414 0.084052682 10658719
0.43633333 -0.076472379 0.080675967 11645613
0.44375005 -0.077661753 0.08475326 10856098
0.41300002 -0.060777165 0.080229104 10855839
0.40780002 -0.051039286 0.08189334 10592926
0.41177785 -0.055244826 0.081383161 10461339
0.3971875 -0.042414226 0.081689157 11316649
0.40144449 -0.046759512 0.081533045 10921635
0.37766668 -0.03111699 0.081027433 1778717
0.38500002 -0.034019917 0.081210092 9474701
0.39352939 -0.038298406 0.081866771 11645614
0.37464288 -0.025507275 0.080545373 1712665
0.37549999 -0.015071241 0.08054132 2567718
0.37850001 -0.031776108 0.099665791 9935249
0.38045457 -0.030806081 0.09811575 3487794
0.37740001 -0.021200992 0.098695725 659721
0.38104534 -0.025765948 0.097943716 1054479
0.37296343 -0.014665233 0.09727519 1578766
0.3725 -0.0094716623 0.096341819 4662814
0.37491667 -0.030926213 0.1044391 5592141
0.37379071 -0.025270825 0.10477387 922892
0.38000003 -0.026119722 0.10050616 1186065
0.37121472 -0.015157412 0.1050173 1250571
0.37100002 -0.0085650031 0.10941648 4924702
0.37096152 -0.030876089 0.11528407 2435616
0.36866668 -0.022550374 0.11919939 1778453
0.37074569 -0.025234753 0.11461153 1251854
0.36866668 -0.017477233 0.11913219 1778712
0.37083715 -0.015089395 0.11427931 1317646
0.37099996 -0.0087278504 0.1126734 4005658
0.35475004 -0.030958787 0.12739153 1844249
0.37066665 -0.030540248 0.12088748 856330
0.35504839 -0.024974933 0.12641227 1120782
0.36554924 -0.024511544 0.12199398 1383698
0.37 -0.029041432 0.12067058 1054222
0.35430327 -0.015319423 0.1262448 1120271
0.36498192 -0.016438814 0.12188929 989196
0.35470003 -0.0095137125 0.12685171 1448468
0.36000001 -0.0074682874 0.12597734 987658
0.352 -0.030684853 0.13285165 1514771
0.34857896 -0.027804343 0.13789141 1317650
0.35129893 -0.025390489 0.1327413 1317649
0.34900001 -0.01444905 0.13363834 1382674
0.3508966 -0.015735473 0.13169804 1251602
0.34900001 -0.0092826281 0.13397475 1382674
0.34434581 -0.027498575 0.14529414 1448977
0.33900002 -0.030047186 0.1555313 1251859
0.33759439 -0.024503164 0.156406 1646870
0.34020409 -0.025766747 0.15153174 1646355
0.33741423 -0.014982212 0.15571566 1514258
0.34000003 -0.013482179 0.15106136 1448464
0.33710638 -0.0079845004 0.15690006 1513746
0.34000003 -0.0078891274 0.15173179 1382929
0.33367047 -0.024363954 0.16487068 2041114
0.33334747 -0.014914555 0.16482735 1711893
0.33300003 -0.0083512301 0.16521598 1514514
0.33186352 -0.023322793 0.17160855 1712663
0.33148476 -0.015579716 0.17094217 1120783
0.33100003 -0.0097078914 0.17071629 397062
0.35700002 -0.020777946 0.18969765 462855
0.35704771 -0.014773387 0.18870752 1778969
0.35600027 -0.005967278 0.18782288 923662
0.35605264 -0.021249289 0.19331379 660492
0.35668224 -0.015299722 0.19450666 1384214
0.35647792 -0.0073222602 0.19424282 857356
0.39500001 0.017234938 0.1997178 3225136
0.39500001 0.020471394 0.1997178 9672592
0.387027 -0.032275654 0.20877585 1515027
0.39327779 -0.035961941 0.20858318 2040857
0.37518185 -0.026356874 0.20885435 1449236
0.38556525 -0.029073713 0.20811541 1712406
0.35823998 -0.013907032 0.20139359 1449493
0.36000001 -0.015895953 0.20309046 528648
0.35700002 -0.0094954111 0.20056231 462342
0.37320229 0.0060294331 0.20693436 659720
0.38430002 0.0082672462 0.20535526 1186063
0.37667853 0.012439029 0.2085574 725511
0.38575226 0.014505074 0.20705974 1186064
0.39173335 0.017048586 0.20316316 1317649
0.38740912 0.021809595 0.20914887 527109
0.39181647 0.022421004 0.20581552 2961449
0.37783879 -0.033120971 0.21246774 1120785
0.38394797 -0.036439169 0.21183246 1646614
0.37479171 -0.027558601 0.21110313 396549
0.37137502 0.0066429577 0.21037696 67585
0.37531585 0.013264048 0.21070683 593668
0.38138464 0.018667823 0.21103278 527106
0.38300002 0.021443971 0.21078385 526594
0.80790007 -0.22480285 0.34890911 1909788
0.81423813 -0.22483908 0.34578454 2436131
0.80799997 -0.2176435 0.34914178 2436132
0.81495011 -0.21578999 0.34727371 2237984
0.80616659 -0.22526509 0.35476592 1186320
0.80699992 -0.21518107 0.35505688 2173217
0.81333333 -0.21129122 0.35198972 2172706
0.80900002 -0.20995902 0.35790744 2238755
0.81557143 -0.20811518 0.35658127 2106657
0.80599988 -0.22535349 0.36493638 857871
0.80711997 -0.21513733 0.36463478 1120530
0.81000006 -0.21021855 0.36877912 1778202
0.80900002 -0.20995902 0.36358914 2173216
0.81450003 -0.20605506 0.36502323 2107168
0.82066679 -0.20188552 0.36370721 2435107
0.80641365 -0.22542885 0.37518606 726027
0.80816668 -0.21746735 0.37346378 791564
0.81080014 -0.21333498 0.37591389 726027
0.81537032 -0.20531254 0.37479302 1712407
0.81999999 -0.20129605 0.37237212 2435875
0.68666673 -0.22857697 0.38791159 7830388
0.69383335 -0.22906548 0.38843918 8026997
0.70000005 -0.22919303 0.38998199 8093044
0.71900004 -0.22868122 0.38878489 7830642
0.72400004 -0.22857277 0.3885172 7896435
0.73416668 -0.22820263 0.38681009 7830898
0.74333334 -0.22858943 0.38627926 7765875
0.80723065 -0.22628579 0.38488886 726028
0.81000006 -0.22159591 0.38584512 660234
0.8127932 -0.2156619 0.38510925 594441
0.81704164 -0.20622426 0.38497612 1054481
0.82000011 -0.20129605 0.38484976 1448212
0.69380003 -0.22716114 0.39139906 7764338
0.70533341 -0.22763257 0.39404455 7829616
0.71700001 -0.2284285 0.39454043 7895922
0.72212511 -0.22713748 0.39427093 7896436
0.73149997 -0.22694792 0.3938261 7172969
0.74325001 -0.22682102 0.39363843 7041896
0.80660003 -0.22551693 0.3950941 595214
0.81000006 -0.22159591 0.39058569 726027
0.80850005 -0.21834588 0.39837956 661004
0.81246883 -0.21513359 0.39462593 792076
0.81678802 -0.20571759 0.39524597 857614
0.82000005 -0.20129605 0.3925283 1120274
0.82211763 -0.19518642 0.39484152 4145723
0.71600002 -0.22772704 0.40057203 8026994
0.72500002 -0.228039 0.40390992 7566446
0.74800003 -0.22827266 0.40533572 6712420
0.75300002 -0.22891833 0.40540689 6778724
0.76100004 -0.2295689 0.40258798 7305329
0.80562508 -0.22487564 0.4050954 660237
0.80760002 -0.21587099 0.40561086 726029
0.81040001 -0.21221884 0.40216082 792334
0.80875003 -0.2089472 0.407969 791822
0.81308341 -0.20419145 0.40449035 857357
0.81816673 -0.19893067 0.40505481 1053709
0.82223076 -0.19413874 0.40514344 4803396
0.80666661 -0.22540262 0.41541776 594700
0.80799991 -0.21570709 0.41398948 528392
0.81012499 -0.21238424 0.41790861 593928
0.80883336 -0.20802188 0.41179848 593930
0.81174999 -0.20354092 0.41534057 791052
0.81628567 -0.19901776 0.41436544 725259
0.82233328 -0.19432272 0.41489944 5659219
0.80754155 -0.22635543 0.42484674 529420
0.81050003 -0.22125748 0.42735255 661005
0.80900002 -0.21942843 0.42040563 265476
0.81226099 -0.21534729 0.4250789 463113
0.81518197 -0.20496607 0.42492139 725515
0.82000005 -0.20129605 0.42996114 527365
0.81900007 -0.19913328 0.4227263 461574
0.82330763 -0.19483306 0.42487127 7172458
0.80770588 -0.22708359 0.4350822 397581
0.81118751 -0.22203723 0.43519124 660752
0.81619227 -0.21520011 0.43509418 661007
0.82000005 -0.21089421 0.43955934 791822
0.81800002 -0.20718825 0.43210521 857357
0.82100004 -0.20402548 0.43636516 2632742
0.80690914 -0.22735934 0.44481832 595214
0.81137502 -0.22196987 0.44538143 726543
0.81664717 -0.21711318 0.44450784 726543
0.82033342 -0.21241985 0.44598019 594700
0.8233462 -0.20515051 0.44491324 4870216
0.80623531 -0.22700201 0.45360717 660236
0.8120001 -0.22213973 0.45522946 726029
0.81745458 -0.21841417 0.45420018 725259
0.82149994 -0.21373402 0.45596302 4212543
0.82605571 -0.20707457 0.45451608 7896693
0.81400001 -0.22173625 0.46111572 5002569
0.81800008 -0.21899596 0.46050805 6318177
0.8232106 -0.213943 0.46410093 7831158
