# .PCD v0.7 - Point Cloud Data file format
VERSION 0.7
FIELDS x y z rgb
SIZE 4 4 4 4
TYPE F F F U
COUNT 1 1 1 1
WIDTH 731
HEIGHT 1
VIEWPOINT 0 0 0 1 0 0 0
POINTS 731
DATA ascii
0.52460605 -0.15521224 -0.052686445 15920617
0.51836371 -0.14401923 -0.05143173 15723237
0.52040005 -0.14821687 -0.052652396 15855080
0.51775002 -0.13709962 -0.050929978 15262687
0.52400005 -0.16052711 -0.049091399 16052203
0.514579 -0.15399134 -0.043941349 16052202
0.52149999 -0.15646693 -0.048369549 16052203
0.51473117 -0.14482318 -0.045162968 15789287
0.51400012 -0.13499543 -0.045050923 15591651
0.509 -0.12316346 -0.040735234 15394784
0.511204 -0.12515187 -0.044647139 15262941
0.50857145 -0.11787139 -0.040842958 15329247
0.511509 -0.11459003 -0.044680234 14210510
0.51152945 -0.10690627 -0.042218715 14408146
0.49599999 -0.15303454 -0.031959001 15986410
0.5050801 -0.15397069 -0.037204623 16052203
0.49617654 -0.14571196 -0.03186686 15789286
0.50404769 -0.14491418 -0.036666427 15789286
0.49733341 -0.13528046 -0.032430336 15526370
0.50460011 -0.13467591 -0.036767695 15657955
0.49800003 -0.12885609 -0.031889204 15460576
0.50548714 -0.12511735 -0.036684114 15460833
0.49700001 -0.11367217 -0.031631254 15197405
0.50557441 -0.11524079 -0.036191802 15329247
0.51000005 -0.11146624 -0.039422363 15263454
0.49612501 -0.10436677 -0.030875552 15328990
0.50515783 -0.10484051 -0.035443515 15197661
0.51033342 -0.10762297 -0.038917501 15197661
0.49755311 -0.0941865 -0.033530302 14671317
0.50136369 -0.098429151 -0.036089636 14671317
0.49794739 -0.085729368 -0.032601573 14539988
0.50057143 -0.081531696 -0.034174375 14737367
0.49900001 -0.078689709 -0.030394899 14474708
0.50348777 -0.075148359 -0.03305535 13684935
0.50762498 -0.067717195 -0.031662069 13947594
0.51033336 -0.063351579 -0.031483207 13618628
0.5154286 -0.057744477 -0.030705322 13092796
0.52200001 -0.054821428 -0.030573852 12105388
0.48465118 -0.1535086 -0.023832817 15920616
0.49122223 -0.15342468 -0.029155109 15920617
0.47787505 -0.14304294 -0.020438764 15986409
0.48367348 -0.14511962 -0.024481179 15920872
0.49127275 -0.14495844 -0.029297678 15854824
0.47677782 -0.1347748 -0.021975597 15855078
0.48394126 -0.13548665 -0.026554123 15723237
0.49200001 -0.13552041 -0.029968519 15525859
0.47343597 -0.12460878 -0.023301421 15657699
0.48322228 -0.12729371 -0.027300661 15591651
0.46900001 -0.11677841 -0.020881986 15657699
0.47224146 -0.11466101 -0.024596723 15328734
0.48288891 -0.11225849 -0.028788235 15197148
0.47555265 -0.10586252 -0.022818243 15065562
0.48385715 -0.10481578 -0.02668521 14999769
0.49083331 -0.10267764 -0.028748402 15262941
0.47635713 -0.095587827 -0.021689298 14605524
0.48379168 -0.095825136 -0.024566347 14737110
0.49322727 -0.093834974 -0.027789084 14868696
0.47485715 -0.087667145 -0.021302966 14737110
0.4864167 -0.084202386 -0.022798898 14934489
0.49387497 -0.084583119 -0.026909357 14934489
0.48580959 -0.076578081 -0.021743011 15066075
0.49553123 -0.075637706 -0.025693763 14671316
0.50228566 -0.072233506 -0.027293529 14013385
0.50562853 -0.065425389 -0.024565928 14013642
0.51044452 -0.061706468 -0.028569682 14408914
0.50646669 -0.057140004 -0.021445056 14210764
0.51344132 -0.055185612 -0.024524482 14408400
0.52305883 -0.051760141 -0.027324433 14474193
0.5165 -0.049407266 -0.021186125 14342350
0.5260666 -0.045661937 -0.024875635 13947592
0.53000003 -0.040772729 -0.024838721 14078921
0.53123528 -0.03596374 -0.023397261 13947592
0.53504175 -0.025966203 -0.021785969 13289407
0.53400004 -0.01567208 -0.020995731 11908268
0.52900004 -0.0047822413 -0.021076661 13619403
0.53033334 -0.0064517353 -0.021129781 12698298
0.53100002 0.00017200095 -0.021156345 12039597
0.47567746 -0.15265593 -0.014578455 16051946
0.48016667 -0.1542186 -0.01894374 15986155
0.46900001 -0.14120752 -0.011275034 15854821
0.47294927 -0.14515185 -0.015156912 15920616
0.46779314 -0.13417271 -0.012636302 16117991
0.47176924 -0.13574663 -0.016961027 16052456
0.46564069 -0.12456027 -0.014646202 15986406
0.47066674 -0.12729511 -0.019120445 15920871
0.45841184 -0.11379713 -0.011510277 15920612
0.46465006 -0.11522015 -0.016368352 15723491
0.4559375 -0.10498941 -0.012299593 15657697
0.46451357 -0.10556202 -0.016987663 15526111
0.47133335 -0.10380777 -0.019760225 15394527
0.45563427 -0.095142424 -0.012330846 15131610
0.46412492 -0.094440132 -0.01646127 14802903
0.47153339 -0.095883936 -0.019450806 14737110
0.45790476 -0.085859559 -0.011456215 14671315
0.46398047 -0.084826276 -0.015533545 14605524
0.47110003 -0.084767133 -0.01932203 14737110
0.45900002 -0.07775455 -0.010765998 14737108
0.46511111 -0.075283512 -0.013246191 14737108
0.47420001 -0.074755602 -0.017034337 14934488
0.48128578 -0.073238365 -0.019015079 14934489
0.46523535 -0.066734254 -0.012389292 14539729
0.47175002 -0.069147758 -0.01521041 14737109
0.50308341 -0.063137583 -0.018277975 14144973
0.4664 -0.055531442 -0.011376869 14276557
0.47300002 -0.051332794 -0.011094373 14276557
0.48100004 -0.050515532 -0.011282015 14276557
0.49566665 -0.051283315 -0.014722412 14210765
0.50473338 -0.055443328 -0.018221082 14079180
0.47750002 -0.04958728 -0.010082085 14210764
0.48522222 -0.046276662 -0.010623599 14079178
0.49412903 -0.044540163 -0.013572502 14013386
0.50345457 -0.047091428 -0.017170263 14144973
0.51050007 -0.044646408 -0.017948225 14079180
0.52600002 -0.042307977 -0.0194185 14013385
0.48775002 -0.038093656 -0.010298506 14013387
0.49525002 -0.039258812 -0.013362652 14013644
0.51566666 -0.038057107 -0.015715126 14079180
0.52833337 -0.034869999 -0.016926786 14013387
0.53093761 -0.033851493 -0.018901063 14079179
0.52450001 -0.026228596 -0.012302322 14079180
0.53355002 -0.025240093 -0.01782449 13947594
0.52624005 -0.014709707 -0.01279083 14079180
0.53220695 -0.01572982 -0.017210815 14210766
0.52734035 -0.0048689484 -0.014293856 14342352
0.53022224 -0.0081040096 -0.017815417 14473938
0.51727277 0.006995027 -0.012465227 14210766
0.5249474 0.0046227807 -0.015938926 14079180
0.53100002 0.0014150814 -0.019913265 13881801
0.51828575 0.01178134 -0.013718356 13881801
0.52000004 0.011124402 -0.016457425 13816008
0.48100004 0.077851854 -0.010155985 10986907
0.46900004 -0.15081447 -0.0016680822 14933209
0.47066677 -0.15168127 -0.0072223786 15591652
0.46784374 -0.14413135 -0.0042520743 15460320
0.4701668 -0.14813259 -0.007971067 15789286
0.4640376 -0.13488574 -0.0049173096 15788770
0.45805556 -0.12370739 -0.0036972512 15657697
0.46111539 -0.12718903 -0.0072892299 15854819
0.44900003 -0.11064231 -0.00086116669 15789283
0.45406592 -0.11512101 -0.0051070102 15723490
0.4470714 -0.10423861 -0.0033343981 15723490
0.45166668 -0.10629675 -0.0079725729 15789026
0.43900001 -0.090296008 -1.9821495e-05 15460318
0.44465384 -0.09510126 -0.0039855214 15591648
0.45099998 -0.094412304 -0.0090615219 15328732
0.43900007 -0.084643625 -1.9821497e-05 15460060
0.4444828 -0.085266046 -0.0036746804 15196889
0.45303231 -0.084556423 -0.0084740222 14868438
0.4382222 -0.074751116 -1.9786377e-05 15065817
0.44493163 -0.075413518 -0.0032265389 14868438
0.45471057 -0.075171761 -0.0079825195 14802901
0.43782362 -0.065693937 -0.00050339516 14605522
0.44496784 -0.064843051 -0.0028494 14210764
0.45520502 -0.065209575 -0.0069693541 14342350
0.46130005 -0.062913857 -0.0094167385 14144971
0.44581252 -0.057578374 -0.00093707663 13947592
0.45575756 -0.054908935 -0.0034876259 14276557
0.46335 -0.0542983 -0.0076737655 14276557
0.47100002 -0.050567929 -0.0099448413 14276557
0.45638099 -0.046601519 -0.00093906571 14342351
0.4638485 -0.045157313 -0.0037784195 14276557
0.4737334 -0.042945623 -0.0062361681 14079178
0.4825556 -0.042766519 -0.0085587008 13947593
0.46595237 -0.035733979 -0.0011682486 13816006
0.47421631 -0.034710031 -0.0050106272 13881800
0.48225003 -0.037106067 -0.0082088998 13816008
0.46850002 -0.028363401 -0.00057012215 13816008
0.47296557 -0.02465158 -0.0018168351 13881801
0.48050004 -0.020653665 -0.0033962727 13881801
0.47733334 -0.019586407 -0.00039455446 13947594
0.48543999 -0.014871624 -0.0014304621 13881801
0.49433342 -0.013439824 -0.0038853893 13947594
0.50325 -0.013380363 -0.0059133093 14013387
0.51566678 -0.015200499 -0.0089605097 14013387
0.49639276 -0.0053482926 -0.0034736581 14013387
0.50262505 -0.0046933391 -0.0068644658 14013387
0.51660001 -0.0070921606 -0.0096982848 14079180
0.49740005 0.0034123231 -0.0056090634 14144973
0.503353 0.0024540757 -0.007792152 14276559
0.44623077 0.015895993 -0.0011473481 13749959
0.44759533 0.025020758 -0.0018945847 13487044
0.45000002 0.029642591 -0.0042341505 13487043
0.44847068 0.034977343 -0.0015964429 13487041
0.4506667 0.034138341 -0.0044760858 13421249
0.44900003 0.041139003 -0.0010713901 13355455
0.45254546 0.046029478 -0.0023365512 13420991
0.46000001 0.046454336 -0.0054051108 13421248
0.45709088 0.054021001 -0.0024565738 13355199
0.46158069 0.056967229 -0.0065429923 13355455
0.45900002 0.061575819 -0.00037890024 13750213
0.46286666 0.065114014 -0.0038565011 13881799
0.47150004 0.069137849 -0.0071976795 13552321
0.46551299 0.074844033 -0.0019264871 14013129
0.47339293 0.07630197 -0.006281591 13618372
0.48066673 0.075546622 -0.0090236971 13683907
0.4665556 0.081338152 -0.0018467994 13487040
0.47180003 0.080778427 -0.0057699061 12960698
0.46559376 -0.1447165 0.0048968717 14868185
0.45890003 -0.13145238 0.0077137696 15131612
0.46240002 -0.13612394 0.00512109 15131354
0.45618057 -0.12534271 0.0053125676 15262683
0.44815791 -0.11297158 0.0060519339 14868694
0.45167652 -0.11763016 0.0043297 15262939
0.44374332 -0.10517676 0.0050712675 14999767
0.43764988 -0.093967579 0.0056797587 15065560
0.44028574 -0.098217703 0.0034640012 15197146
0.43362963 -0.084910907 0.0050444473 15262939
0.42680445 -0.073890753 0.0074043008 15131866
0.43209535 -0.076061286 0.0030563648 15197402
0.4250001 -0.065183014 0.0067411177 14934487
0.43226665 -0.064315468 0.002000625 14671315
0.42580953 -0.055964231 0.0083065471 14276557
0.43373337 -0.054619402 0.0046202624 14079178
0.44273338 -0.053606991 0.0017059646 13947592
0.42684618 -0.047054861 0.0095110107 14210764
0.43402779 -0.045690887 0.0067757941 14144971
0.44382614 -0.045394633 0.0038139373 13947592
0.4536154 -0.043297496 0.0016122886 14210765
0.43550003 -0.035705771 0.0084756305 13947592
0.44288892 -0.033830691 0.0074673584 14013385
0.45750001 -0.034548786 0.0041828915 14013385
0.46211112 -0.033983525 0.001660506 13947592
0.43891671 -0.024517914 0.0090565039 13947592
0.44305557 -0.024925016 0.0075832317 13881800
0.4544 -0.027624538 0.0058261757 13947592
0.46516672 -0.026583098 0.0026975693 13816006
0.47240001 -0.023064729 0.0010845674 13881801
0.43900001 -0.013560559 0.0092295399 14013387
0.44133329 -0.014978785 0.0075826603 13816008
0.47666669 -0.019183969 0.0014650243 13881800
0.48600003 -0.01196983 0.0011157912 13947594
0.43514287 -0.0048203352 0.0083225146 14013387
0.44216669 -0.0076125669 0.0068778452 13816008
0.43461227 0.005255999 0.0068652155 14012874
0.44100004 0.0089181541 0.00255989 13881544
0.43510523 0.015045997 0.006725112 13618371
0.44286963 0.015830107 0.0019160261 13684420
0.43646941 0.024793876 0.0071274694 13355198
0.44297221 0.025433963 0.0026254142 13487041
0.43860006 0.032383744 0.0085019711 13092282
0.44342107 0.035454661 0.0045729936 13355711
0.44705623 0.044756725 0.0054272646 13027003
0.45057145 0.048667561 0.0016367624 13355198
0.44900003 0.051183015 0.0079215011 13092024
0.45301569 0.055616118 0.0051108389 13223611
0.45707908 0.064989202 0.0055633071 13816005
0.46000001 0.068260923 0.0013253156 14013385
0.45900002 0.072537877 0.0077271829 13684420
0.46119285 0.075784236 0.0044823913 13881799
0.46260002 0.081155308 0.0051732073 13618625
0.46353853 -0.14278525 0.014778206 14276562
0.45882136 -0.13219747 0.015171154 13882059
0.46102378 -0.1370744 0.015163138 13947853
0.45537508 -0.12512024 0.014909511 13882314
0.44834217 -0.11290703 0.01401299 13882058
0.45180559 -0.11749429 0.015790313 13684935
0.44305071 -0.10510825 0.015055764 13816264
0.43689269 -0.094718829 0.014566936 14013387
0.44000003 -0.099428773 0.018349322 13553606
0.42857143 -0.081080563 0.014981335 14276558
0.43142426 -0.085867077 0.01431968 14210765
0.42422721 -0.075024314 0.015291133 14473680
0.41703457 -0.064001299 0.016439861 14868436
0.42062178 -0.066715948 0.013073056 14868438
0.41465428 -0.055017184 0.016077336 14802900
0.42104173 -0.054688111 0.011438322 14473936
0.41475818 -0.045340125 0.016917368 14342350
0.42320934 -0.044187758 0.012277714 14079434
0.41604462 -0.03553215 0.017811038 14013642
0.42390019 -0.035189353 0.014239589 14013385
0.43188462 -0.03345453 0.011215945 14013385
0.41704997 -0.025832301 0.018969281 14144971
0.42426196 -0.025000203 0.016289549 14013385
0.43340003 -0.024948303 0.01199001 13947592
0.41738093 -0.014477102 0.018916758 14079178
0.42402643 -0.015592194 0.016326522 14013385
0.43493032 -0.014611451 0.012046297 14013386
0.44000003 -0.015308195 0.010280613 13947594
0.41581571 -0.0048360918 0.018037252 14013385
0.42400011 -0.0057473928 0.014611048 14079178
0.43251857 -0.0057162587 0.011227675 14078666
0.41691101 0.0046077948 0.017936835 13618627
0.42401788 0.0053113317 0.013476537 13815750
0.42999998 0.003998063 0.010214734 14078665
0.41850004 0.012056414 0.019248463 13026490
0.42416292 0.014941148 0.015276432 13224126
0.43019995 0.015582889 0.010387179 13421248
0.42687228 0.023189778 0.017071154 12895417
0.43136206 0.026032154 0.012980762 13092538
0.43551192 0.034573145 0.015034448 12631731
0.44016668 0.038612526 0.010971206 13158074
0.43900007 0.04063385 0.017348425 12829622
0.44340008 0.045254715 0.014714463 12631730
0.4481591 0.052366316 0.015665915 12697522
0.45167434 0.057322238 0.014486299 13092281
0.45572859 0.065236002 0.014914249 13355453
0.45893317 0.073301703 0.014614754 13289661
0.46000001 0.077944584 0.015316446 13158076
0.46100003 0.080280617 0.016437126 11052701
0.46200001 -0.14099266 0.020528596 12895167
0.45900002 -0.13180326 0.020825105 13092801
0.46097872 -0.13405846 0.024319099 12500922
0.4580484 -0.12451901 0.023849657 12566715
0.46042857 -0.12796406 0.027542692 12303543
0.44900003 -0.11085252 0.022683855 13158849
0.45377952 -0.1153855 0.025262093 12566714
0.44552246 -0.10469183 0.024766233 12961469
0.45050001 -0.10900813 0.028455218 12500919
0.43732721 -0.093381859 0.024535576 12961213
0.44084612 -0.098059654 0.025902275 12895420
0.42866668 -0.08047723 0.021891013 13421250
0.43269885 -0.085275114 0.025050847 12829627
0.42430142 -0.074602403 0.025143897 12895164
0.43000001 -0.079385094 0.02866976 12369077
0.41605487 -0.064344704 0.024545582 13553092
0.4204706 -0.069230236 0.026270237 12829628
0.40788543 -0.05309283 0.025806274 14473679
0.41148984 -0.057373825 0.023771992 14342094
0.40584856 -0.045024868 0.025199717 14736850
0.41064289 -0.044221587 0.020375071 14605521
0.40438536 -0.035024624 0.026205719 14539728
0.41153574 -0.034755137 0.021105766 14079178
0.40342239 -0.025137907 0.026585666 14210762
0.4127273 -0.024983663 0.021235323 14144971
0.40442866 -0.014770163 0.026510824 13947590
0.41240007 -0.014833322 0.021218622 14144971
0.40721753 -0.0052795447 0.026696332 13618625
0.41156095 -0.0048722406 0.021738837 13881798
0.40864703 0.0013709047 0.028004911 13158074
0.41274017 0.0055566165 0.024575286 13026746
0.41648158 0.0142724 0.025397712 12631988
0.42052388 0.018841287 0.023418503 12566453
0.42481109 0.024979573 0.025159119 12171951
0.43000001 0.029331779 0.02011334 12303537
0.42899999 0.030267864 0.026293203 11974572
0.43367529 0.035016019 0.024504283 11974571
0.44000003 0.039284348 0.029851524 11974572
0.43900007 0.040565334 0.02258973 12434608
0.44326031 0.045185775 0.025214203 12171437
0.44821063 0.052334797 0.024832752 12237228
0.45173341 0.057443622 0.025337566 12566193
0.45494452 0.065121196 0.025007598 12895158
0.45843631 0.073694579 0.02501257 12829109
0.46000001 0.077548906 0.021381987 12894903
0.46100003 0.080010816 0.021023767 10723733
0.46225002 -0.13133003 0.030819699 11447722
0.45900002 -0.12091472 0.030782389 12040371
0.46109527 -0.1245537 0.033133347 12106163
0.45784992 -0.11432781 0.034567989 11842991
0.4601765 -0.11784539 0.038254865 11711662
0.44757143 -0.10233866 0.032713465 12303285
0.45342234 -0.10631023 0.035886835 11711148
0.43875006 -0.091849804 0.032656122 12171699
0.44379252 -0.095679164 0.035682302 11974577
0.45000002 -0.099932753 0.038957633 11711405
0.43487996 -0.084652856 0.034779344 11974577
0.44033337 -0.089196078 0.038808245 11645612
0.42661226 -0.073445983 0.033777151 11842734
0.43084851 -0.077525906 0.036355346 11842734
0.4172647 -0.062268328 0.033598043 12170929
0.42253846 -0.066674933 0.035920683 11776685
0.40666047 -0.052268565 0.034667879 13487041
0.41291666 -0.057185188 0.037358444 12499892
0.39900002 -0.040035602 0.038745731 13881799
0.40230846 -0.044671781 0.034783162 14078921
0.39684877 -0.034163937 0.036173534 12829110
0.40011534 -0.03712184 0.032152653 14539726
0.39550892 -0.024862399 0.035522528 10790041
0.40000004 -0.025257472 0.030883376 14408395
0.39673486 -0.015509548 0.036565874 12105642
0.40041852 -0.013122801 0.032178432 13618624
0.39900002 -0.0092114182 0.038745731 13289660
0.40297216 -0.0049695512 0.034799892 13223867
0.40762708 0.002685739 0.03555613 12698036
0.41123405 0.0078576691 0.034494963 12303536
0.41537508 0.014812677 0.035007186 12171951
0.42000005 0.019800596 0.033902388 12106158
0.42385882 0.024793435 0.034856986 11711400
0.42864281 0.030529609 0.034026738 11645607
0.43279597 0.034352157 0.035426725 11382692
0.44000003 0.039284348 0.036289323 11645607
0.44509417 0.045180827 0.034939941 11777193
0.44895658 0.05132537 0.034709338 11973545
0.45258346 0.056465384 0.035104431 12236974
0.45651862 0.06534712 0.035251301 12106158
0.45838237 0.072676316 0.033751868 12171694
0.45900002 -0.1110649 0.040811311 11711405
0.46135491 -0.11416254 0.043252736 11579820
0.45708197 -0.10458244 0.044539485 11448234
0.46025002 -0.10903326 0.047567237 11382442
0.44709098 -0.092818983 0.043945126 11316647
0.45231441 -0.097151823 0.046210602 11316647
0.43810534 -0.08234065 0.042571835 11514026
0.44257155 -0.085595585 0.045868658 11316647
0.42900002 -0.070663959 0.040152498 11579562
0.43453419 -0.074711695 0.044721305 11447976
0.44000003 -0.078827821 0.04907909 11053475
0.41900003 -0.060679242 0.040197432 12039597
0.42529169 -0.063755065 0.044289384 11973550
0.43120012 -0.068019725 0.046781972 11579562
0.40700001 -0.051613573 0.044629775 13158078
0.41421628 -0.05637832 0.044349596 12565942
0.421 -0.059490141 0.04630506 12170928
0.39820838 -0.041588146 0.045539886 13355456
0.40201378 -0.046056945 0.044776287 13487042
0.38887501 -0.031054055 0.048003454 2239266
0.39319819 -0.035350122 0.044743922 7369579
0.38825789 -0.02524155 0.046408065 2239011
0.39069706 -0.024844375 0.041167103 2501926
0.38846672 -0.018516239 0.047269467 2304290
0.39344218 -0.014037991 0.044508338 9672073
0.39802501 -0.0078129182 0.045543447 12829878
0.40127137 -0.0034081682 0.044586271 12698037
0.40637749 0.0045775138 0.045103513 12237742
0.41055557 0.0095306141 0.042695418 12040363
0.40900001 0.010664723 0.049291566 11711398
0.41404998 0.01513302 0.044862505 11908521
0.41900009 0.02073434 0.046082754 11579814
0.42420831 0.025046779 0.044507798 11382435
0.43000001 0.029130453 0.048097868 10921884
0.42900002 0.030267864 0.041156795 11053470
0.43484116 0.034120429 0.04489978 11185056
0.44033337 0.038902089 0.045887481 11316642
0.44463107 0.044740532 0.044938821 11382178
0.45000002 0.049658295 0.049492214 11974572
0.44900003 0.050599061 0.043075532 11645607
0.45384064 0.055418532 0.044866227 11711143
0.45832303 0.064197809 0.044731259 11777193
0.46000001 0.068299383 0.047053754 11579557
0.45900002 0.071067475 0.042602193 10592663
0.46000001 0.070145436 0.044669263 10723992
0.45869237 -0.10277283 0.05127459 11382442
0.4623794 -0.10308784 0.055827096 11250855
0.44900003 -0.090250634 0.050433349 11316647
0.4558605 -0.094190419 0.053989545 11447977
0.46222222 -0.097480617 0.058112197 11316390
0.44709751 -0.083975606 0.053567316 11185061
0.4526819 -0.086658947 0.057592865 11316390
0.43822736 -0.072512276 0.052862108 11250854
0.44284004 -0.076224864 0.055885386 11184805
0.42799997 -0.061733592 0.051831886 12106160
0.4345741 -0.065786511 0.055056047 11842734
0.44025001 -0.068909824 0.058984313 11776941
0.40230003 -0.051338375 0.055629235 13355201
0.41780001 -0.056006961 0.051624931 12763320
0.42411771 -0.057915866 0.054071449 12434356
0.43000001 -0.05874902 0.058868892 12499894
0.39716172 -0.043273512 0.055275071 13223359
0.40108103 -0.048316181 0.054611195 13355201
0.38748002 -0.032297123 0.055527736 2370596
0.3926349 -0.037098054 0.054665502 10987167
0.38486511 -0.025067881 0.055148903 2173217
0.3860988 -0.016842576 0.055310961 3751734
0.39274424 -0.011841048 0.05349962 12040620
0.39669991 -0.0060662255 0.055430602 12369072
0.40042859 -0.0018336272 0.052967411 12237742
0.39900002 0.00012924365 0.059762217 12829109
0.40516967 0.0050900602 0.054864742 11974570
0.40866673 0.011613335 0.055858783 11711399
0.41341183 0.016327973 0.053966485 11776934
0.41844445 0.020706847 0.053857036 11382435
0.42473689 0.024300829 0.054296445 11119263
0.43016002 0.028537385 0.055165116 10592919
0.43457142 0.032998402 0.054204874 10987677
0.44256002 0.038479861 0.05518721 10987676
0.44692111 0.043294221 0.053726636 10790298
0.45263642 0.047351256 0.056176476 11316641
0.45721212 0.054612271 0.054537918 11382436
0.46033335 0.058223002 0.058412328 11119265
0.45900008 0.061810013 0.051639237 11316643
0.46186495 0.063828707 0.056122266 10987678
0.46737501 -0.10146547 0.062210184 11119012
0.47049999 -0.10090524 0.067719035 11250597
0.45900002 -0.091186136 0.060690064 11250597
0.46562275 -0.094625652 0.064893968 11053219
0.47000006 -0.098750561 0.068073787 11250597
0.45604873 -0.083912306 0.063678116 11053219
0.4623 -0.08697439 0.067515269 10790046
0.44697225 -0.073278047 0.06320402 11579305
0.45196879 -0.07623554 0.066706508 11250598
0.43689659 -0.062922038 0.063993476 12368308
0.44286668 -0.067353718 0.065334514 11973550
0.39900002 -0.050310332 0.069102883 13420483
0.40106663 -0.051698431 0.064043 13223359
0.43200004 -0.059191603 0.063022815 12499637
0.39651164 -0.043906197 0.065257423 13289151
0.4001905 -0.04876554 0.063463867 13354945
0.38540006 -0.0328805 0.065104045 5000774
0.39223811 -0.038113642 0.064912044 12697012
0.37874278 -0.023943452 0.06878563 1712410
0.38118809 -0.025092864 0.063857265 2107167
0.37869996 -0.018317297 0.069132581 2041120
0.38329467 -0.015339663 0.064629413 5329995
0.39000002 -0.010829636 0.061153188 12236972
0.39447972 -0.0053704921 0.064986505 12500401
0.39802781 0.0013725297 0.066136651 12631986
0.40238744 0.0062402803 0.064809151 12236973
0.40730017 0.0131714 0.065290526 11973802
0.41355556 0.017781852 0.064737782 11513508
0.42100003 0.019847741 0.064042948 11316644
0.42671114 0.024319531 0.064316854 10921371
0.43016002 0.028295789 0.0648719 10724248
0.43442857 0.032109104 0.063668214 10855836
0.44494745 0.037047561 0.066918112 11052700
0.44900003 0.04008789 0.061995637 10855834
0.4546082 0.045188535 0.065274164 11448227
0.45884368 0.052078046 0.064228229 11448227
0.46104762 0.056560192 0.065150604 11316642
0.46547833 0.063927643 0.062423401 10856090
0.46880001 -0.092474736 0.070656039 11316392
0.47010538 -0.092466287 0.07377173 11250599
0.45900002 -0.080440864 0.070898071 10855841
0.46589094 -0.084631994 0.074919872 10921634
0.47000003 -0.088750258 0.077878498 11184805
0.45596001 -0.074342191 0.074320309 11316391
0.46124998 -0.078316249 0.077006467 11250597
0.44726315 -0.065875284 0.074105918 12170929
0.45216671 -0.069189809 0.075841449 11776941
0.39811116 -0.05087233 0.07583335 13420739
0.39516515 -0.044710401 0.075046934 13354689
0.37860003 -0.030543298 0.077266932 2107423
0.38462293 -0.033410691 0.074328989 6711136
0.39173535 -0.038336653 0.075045757 12894138
0.37715676 -0.02488526 0.075496875 1712152
0.37763345 -0.016426466 0.075259574 2106910
0.38300002 -0.011899408 0.075442299 10132112
0.38809091 -0.0088750785 0.078527249 11907751
0.39245036 -0.0048061195 0.074675769 12434609
0.39676806 0.0026509175 0.075550854 12303537
0.4013148 0.007562682 0.074477844 12040365
0.40566283 0.01408503 0.075204693 11974059
0.41233334 0.019439159 0.073979408 11776423
0.41700003 0.02063537 0.075148918 12105388
0.42714289 0.023140868 0.073406406 11579301
0.43029279 0.02726458 0.073981993 10855578
0.43368185 0.031756461 0.073169261 11447715
0.44572732 0.037052657 0.073197342 11447970
0.45120001 0.039228044 0.075825334 12105900
0.45691785 0.045405746 0.075163066 12303021
0.46000001 0.049684942 0.079667486 12434351
0.45900002 0.050830547 0.072688952 11711398
0.46136925 0.054889102 0.074966706 12039850
0.47200003 -0.091558829 0.080640808 10987425
0.46815792 -0.082104824 0.083505288 11053218
0.47175685 -0.086262777 0.084960006 11053219
0.45856521 -0.071730688 0.084321201 11776941
0.4633556 -0.076607734 0.085310787 11579562
0.44880003 -0.063734457 0.081720129 12104623
0.45413163 -0.066889614 0.085513525 12039857
0.39731818 -0.051325385 0.083055846 13157824
0.39374778 -0.044632327 0.084957547 12960701
0.37631816 -0.031233909 0.084237099 1975324
0.38591662 -0.035157353 0.085911594 10592154
0.39130315 -0.038264882 0.084672198 12499637
0.37354347 -0.024992485 0.084772117 1975837
0.37450007 -0.015833624 0.084914535 2567204
0.38120002 -0.011297412 0.082258329 10132368
0.3882623 -0.0070524476 0.085005149 11645607
0.39079249 -0.0025818404 0.084334493 12040364
0.39571187 0.0037376704 0.083491914 12106158
0.40069228 0.008464355 0.084875949 11842987
0.40412331 0.013916456 0.083970703 11711400
0.43900001 0.032001115 0.081169024 11514019
0.44750002 0.0362891 0.08064542 11908777
0.45116132 0.038033847 0.085528947 11842985
0.45596513 0.045041002 0.084933355 12106158
0.45900005 0.050920092 0.087015979 11908779
0.46137497 0.054620467 0.084746338 11776680
0.47199997 -0.082487762 0.093438908 11842478
0.45900002 -0.070770122 0.090776831 12236722
0.46567649 -0.074405015 0.094730027 11842478
0.47115389 -0.07816039 0.097636275 11842734
0.45723084 -0.066179685 0.092405006 11973807
0.46162501 -0.069013216 0.096163392 11908528
0.39302504 -0.044370353 0.091895483 12566457
0.37825 -0.031423572 0.093293257 3093292
0.38462499 -0.034282967 0.093629807 7632239
0.39000002 -0.039132543 0.092195094 11579049
0.377875 -0.024839727 0.092177942 1647129
0.38192526 -0.025296569 0.097039632 988943
0.3747943 -0.014412923 0.095469922 2105623
0.38080001 -0.019310847 0.095726691 660235
0.37400004 -0.0090720318 0.096292593 5847862
0.389 -0.0052468665 0.090865903 11843758
0.39018184 -0.0020320313 0.091324858 11843245
0.39100003 0.00043176499 0.090905927 10790554
0.45390004 0.038931839 0.093491472 11711912
0.45677271 0.045227997 0.094183661 11382691
0.46000001 0.045377471 0.09905111 9737610
0.45889992 0.052073129 0.094159149 11842987
0.46045455 0.055614885 0.091700725 10987678
0.46883336 -0.071737677 0.10150215 11645355
0.47055268 -0.073452756 0.10482981 11316134
0.46833336 -0.067822866 0.10279636 11645355
0.47000012 -0.068340085 0.10679748 11382183
0.37451851 -0.030921796 0.10458411 4144434
0.3734726 -0.025164701 0.1047846 923148
0.38100001 -0.025742494 0.10077064 791820
0.37134525 -0.015101598 0.10491963 1250571
0.37100002 -0.0081307441 0.10912698 5383715
0.45878577 0.033443905 0.10607757 10658454
0.4618637 0.036718644 0.10441354 10527124
0.46300009 0.042317245 0.10196683 9803402
0.37083331 -0.03073479 0.11497515 2106652
0.36851433 -0.022434536 0.11762928 1449491
0.37057847 -0.025762629 0.11405395 1448976
0.36860538 -0.017569397 0.11772409 1252882
0.3707101 -0.014623045 0.11352982 1448720
0.37099996 -0.0084564388 0.112782 3744027
0.35393336 -0.030928971 0.12735757 1647127
0.37100002 -0.030567452 0.12128622 1118986
0.35437146 -0.0249609 0.12618065 1186320
0.36580011 -0.023958661 0.12220674 1383442
0.37040001 -0.028755307 0.12172534 1645329
0.35421434 -0.015435847 0.12648614 1251856
0.36558333 -0.016396722 0.12228347 989197
0.3540833 -0.0095568309 0.12707378 1316881
0.34875 -0.030094944 0.13652998 1383698
0.35127276 -0.030612076 0.13192859 1515285
0.34851286 -0.026892614 0.13623132 1252113
0.35089043 -0.025251206 0.13200837 1317905
0.34900001 -0.016000308 0.13365704 1382928
0.35094988 -0.014713313 0.13170873 1317648
0.35200003 -0.0095684314 0.13121222 1382929
0.34100002 -0.030224456 0.14886516 1515280
0.34337032 -0.027388399 0.14548495 1514768
0.33900002 -0.030047186 0.15672171 1449491
0.34100002 -0.030224456 0.15006259 1646868
0.33754328 -0.024656132 0.15690695 1777686
0.34000006 -0.027199052 0.1518731 1581076
0.33665159 -0.014902184 0.15722795 1580307
0.3363415 -0.0079578012 0.15755114 1382931
0.33376491 -0.024550097 0.16492821 2172185
0.33236378 -0.014962367 0.16488487 1646357
0.33247045 -0.0077728084 0.16444421 1515028
0.33135483 -0.023265619 0.1712653 1450005
0.33082142 -0.014634816 0.1710297 529159
0.33050001 -0.0099511296 0.17058676 791817
0.35525 -0.02129939 0.18939105 463113
0.35596442 -0.015107206 0.18841793 1713175
0.35542852 -0.0074938466 0.18805498 1055760
0.35499993 -0.021769624 0.19306722 726028
0.35612705 -0.015230966 0.19459207 1515798
0.35705671 -0.0078186709 0.19444779 725770
0.37533337 -0.026441954 0.20929399 1054991
0.3582727 -0.014409858 0.20139222 1318420
0.37468183 0.0054692887 0.20668899 726025
0.37549999 -0.027902501 0.21128255 528135
0.81728566 -0.22796111 0.33861175 2107680
0.80775005 -0.22807041 0.34766144 1515543
0.81426477 -0.22460341 0.34436324 2173472
0.81766671 -0.21890712 0.3483409 2239009
0.8064062 -0.22585997 0.35540029 989201
0.81162506 -0.22156377 0.35194126 2239265
0.80866671 -0.21870673 0.35902178 988688
0.81513333 -0.21605968 0.35558861 2370338
0.8201251 -0.21188617 0.35394919 2106654
0.80560607 -0.22484958 0.36532104 857614
0.80766666 -0.21704867 0.36538473 923151
0.81286955 -0.21261187 0.36407897 1910043
0.81708336 -0.20838811 0.36673999 2173214
0.8209523 -0.20390663 0.36419979 2763813
0.80617243 -0.22542687 0.37539953 660234
0.80812496 -0.21706183 0.37431094 923150
0.8105334 -0.21200036 0.37553576 659979
0.81560719 -0.20587122 0.37501106 1580567
0.82000011 -0.20184453 0.37346908 2434593
0.71800011 -0.22892267 0.38936391 7962485
0.72333336 -0.22892874 0.38858297 7436654
0.7361111 -0.22875915 0.38788354 7634034
0.74516672 -0.22915147 0.38723084 7633522
0.80603123 -0.22522405 0.38489598 594957
0.80781484 -0.21567401 0.38525757 594698
0.81 -0.21130213 0.38300082 660749
0.80850005 -0.20982924 0.38891542 661004
0.81414288 -0.20474954 0.38484427 989201
0.82140619 -0.1951475 0.38490823 4540480
0.70743757 -0.22831434 0.39546928 7632748
0.7137273 -0.22700089 0.39359453 7633005
0.72575009 -0.22743011 0.39157856 7831155
0.7322858 -0.22776258 0.39180085 7239275
0.74325001 -0.22769423 0.39362735 6581091
0.75200003 -0.22861433 0.39342445 7502193
0.80462873 -0.22469838 0.39472148 660494
0.80659252 -0.2152068 0.39502689 726283
0.80850011 -0.2088823 0.39459357 726541
0.81250006 -0.2030488 0.39457226 857614
0.81800002 -0.19857056 0.39667591 922638
0.82114273 -0.19395314 0.39472193 4737603
0.74400002 -0.22792397 0.40230313 6449246
0.75400001 -0.22922233 0.40241501 6910310
0.80483341 -0.22488932 0.40505245 660492
0.80752629 -0.21594253 0.40461564 791820
0.81012505 -0.21191019 0.40724057 857614
0.80900002 -0.20995902 0.40146676 857613
0.81296432 -0.20445701 0.40472716 857357
0.81800008 -0.19793147 0.40401691 790794
0.82114291 -0.1931527 0.40529552 6185304
0.8059333 -0.22519664 0.41503918 660235
0.80836368 -0.21805106 0.41491383 594441
0.81116682 -0.21326162 0.41530669 462856
0.81532264 -0.20488204 0.41525531 791311
0.81900007 -0.19913328 0.41122258 790537
0.82223994 -0.19506361 0.41519645 4606531
0.80616659 -0.22526284 0.42459527 660234
0.80837494 -0.21736574 0.425403 594699
0.81100011 -0.21248031 0.42439708 462857
0.8151111 -0.20524751 0.42456818 725774
0.82000005 -0.20129605 0.42900133 396040
0.8236897 -0.19560812 0.424777 6317406
0.80721742 -0.22584412 0.43369442 528650
0.81000006 -0.22349215 0.43893945 726029
0.80866671 -0.21870674 0.43222228 792335
0.81200004 -0.21462083 0.4355318 857615
0.81605881 -0.20672929 0.43385115 725516
0.82025009 -0.20255719 0.43585318 2698789
0.82448286 -0.19579773 0.43537161 7764848
0.80883336 -0.22853504 0.44430387 528650
0.81190479 -0.22410418 0.44553742 726029
0.81611127 -0.21583477 0.44448122 922638
0.82016677 -0.21221684 0.44796905 790282
0.81900007 -0.20871973 0.44094059 922125
0.82220834 -0.20447962 0.44483447 5593680
0.80763644 -0.22816686 0.4545871 660236
0.81396019 -0.22343308 0.45521966 594186
0.81825006 -0.21858385 0.45202944 988174
0.8216666 -0.21470721 0.45593312 3422513
0.82580012 -0.20670958 0.45375249 7567470
0.81720006 -0.22126725 0.46139604 3028270
0.82000005 -0.22049239 0.46451458 7896951
0.82457143 -0.2145406 0.46425301 7699312
