# .PCD v0.7 - Point Cloud Data file format
VERSION 0.7
FIELDS x y z rgb
SIZE 4 4 4 4
TYPE F F F U
COUNT 1 1 1 1
WIDTH 576
HEIGHT 1
VIEWPOINT 0 0 0 1 0 0 0
POINTS 576
DATA ascii
0.40347353 -0.034107424 -0.032414339 14802130
0.40471435 -0.02515023 -0.031870671 14013383
0.40828571 -0.0187096 -0.031901594 13684932
0.41287097 -0.013545209 -0.032382086 12895418
0.41725716 -0.0070053493 -0.032338001 12829111
0.42062503 -0.0023241616 -0.032759447 12631988
0.42545459 0.003045463 -0.031617101 12960954
0.43045452 0.0082934108 -0.031900268 12236974
0.43515792 0.014205671 -0.03117034 12829367
0.44000003 0.019713435 -0.031436328 12960696
0.44468185 0.025803937 -0.031203292 12894647
0.44900003 0.030627837 -0.031553786 12763830
0.45541179 0.035026893 -0.032631632 12303023
0.46000001 0.03891626 -0.031788383 12697781
0.46590322 0.044212576 -0.03214426 12763575
0.47000003 0.049444716 -0.032809518 12236974
0.47100005 0.052253086 -0.032272883 12039338
0.40523079 -0.042159501 -0.023184203 14539217
0.40272549 -0.035128638 -0.025078867 14539214
0.40285194 -0.025238059 -0.024945842 14144454
0.40716469 -0.016330441 -0.024211558 13552318
0.41150001 -0.012307722 -0.026914278 13420733
0.41478017 -0.0055109197 -0.024492972 13289147
0.42066669 -0.0011766591 -0.02841437 13354939
0.41860002 0.00072412437 -0.022753464 13157561
0.42425618 0.004692446 -0.025276082 12631474
0.43000001 0.0089473641 -0.02845693 12565937
0.42839998 0.010870228 -0.021983476 12434351
0.43360719 0.015285029 -0.025015159 12565937
0.44000003 0.019713435 -0.029891256 12697523
0.4384616 0.021540372 -0.022287199 12434351
0.44330442 0.025543131 -0.025575621 12500144
0.44803852 0.03181424 -0.024107506 12763316
0.45387238 0.036529981 -0.02495946 12829109
0.46000001 0.039454691 -0.028557777 12500144
0.4581539 0.041648712 -0.022546323 12434353
0.464017 0.04580066 -0.025526695 12697524
0.46672228 0.051260937 -0.024004022 12302767
0.47033337 0.052454595 -0.029016307 12499376
0.41495457 -0.052194361 -0.012776113 14276559
0.40696943 -0.043274079 -0.015158315 14210765
0.41118184 -0.047909919 -0.013887926 14210764
0.40159103 -0.035134505 -0.015062731 14407885
0.39899999 -0.027128505 -0.010632405 14342345
0.40048203 -0.024975438 -0.01545586 14144710
0.40506956 -0.015151383 -0.014949715 13487036
0.40848005 -0.0082823327 -0.013216633 13092281
0.41225338 -0.00410558 -0.015526331 13158074
0.41688892 0.0019600955 -0.014529492 12697523
0.42194551 0.0067145126 -0.015846122 12368558
0.42656898 0.012937407 -0.014242401 12434351
0.43110526 0.017591005 -0.015799837 12434351
0.43585289 0.023708727 -0.014310044 12302765
0.44123808 0.028033927 -0.016894985 12368302
0.44598588 0.033815261 -0.014714149 12631731
0.45178577 0.03860024 -0.016643466 12894903
0.45657143 0.042725258 -0.01495818 12434353
0.46209684 0.047471248 -0.015515683 12236974
0.46450013 0.053105056 -0.014858388 12302767
0.42500001 -0.062259827 -0.00044558902 13552582
0.41520599 -0.053549152 -0.005195152 13618375
0.42075002 -0.058224704 -0.0010022251 13420998
0.40596008 -0.04359401 -0.0043536453 13816007
0.41089997 -0.048588868 -0.005360405 13750216
0.39851522 -0.032072041 -0.0029883902 14407885
0.40076622 -0.036256872 -0.0054415939 14342092
0.39808467 -0.025611142 -0.0043646912 14013381
0.40000007 -0.021033235 -0.0069474741 13684416
0.39900002 -0.019486146 -1.8015437e-05 13355707
0.40198344 -0.014876573 -0.0047669266 13289658
0.40714961 -0.0059847133 -0.0043037655 13092280
0.41095656 -0.0017901823 -0.0066724415 13026488
0.41432858 0.003308028 -0.0040525496 12763316
0.42093113 0.0081222067 -0.0061369743 12368558
0.42504203 0.014582617 -0.0047886092 12302765
0.43000001 0.019265402 -0.0085758362 12236972
0.42887497 0.020470077 -0.0021534949 12236972
0.43356046 0.025419958 -0.0047514169 12368559
0.43875 0.031212693 -0.0020749313 12434352
0.44401392 0.035741374 -0.0046577007 12631730
0.44900003 0.040508337 -0.0052758586 12500144
0.45653334 0.045616928 -0.0040068203 12236973
0.46114999 0.048298497 -0.0066627576 12171179
0.45900002 0.050651461 -0.00055798813 12105386
0.46345353 0.054632612 -0.0049563525 12039593
0.42551854 -0.062145643 0.0041476251 13355203
0.43211117 -0.066739529 0.0066722892 13420996
0.40900001 -0.050613765 0.0095562972 12565687
0.41483083 -0.054125041 0.0054321671 13355202
0.42085716 -0.058696635 0.0045558484 13355203
0.40445271 -0.044636223 0.0053109545 13223872
0.41020003 -0.049801983 0.0028613992 12960701
0.3973974 -0.033796437 0.0054184408 14079433
0.4000909 -0.038442291 0.0039832671 14013385
0.39662713 -0.024938725 0.0050859363 13882052
0.39827663 -0.017406007 0.0061096572 13421500
0.40084741 -0.01306739 0.0040838802 13289658
0.40583503 -0.0052138837 0.0053068171 13092281
0.41 -0.00082701055 0.0019011226 13026232
0.40871429 0.00067951961 0.0085924799 12894902
0.4137449 0.0052588531 0.0050582052 12631730
0.41854551 0.011181135 0.0070162867 12171692
0.42253169 0.015495901 0.0051856269 12105642
0.42680001 0.021362478 0.0068102283 12171436
0.43267244 0.026692422 0.0047456878 12368559
0.4374474 0.032646056 0.0057178992 12434352
0.44221428 0.03748956 0.0046348693 12368816
0.44690633 0.042618796 0.0063193715 12171437
0.45318922 0.047089331 0.0045315521 11973801
0.45714289 0.052921988 0.0063692238 11973801
0.46168429 0.056299109 0.0025934556 11842214
0.45433334 -0.081043236 0.018771617 14473682
0.46400005 -0.085120112 0.018989287 14473425
0.43764707 -0.071335852 0.014862781 14276303
0.44345948 -0.075732566 0.014767998 14276303
0.45000002 -0.079390317 0.01788847 14539474
0.42519057 -0.063193105 0.015949612 13947594
0.43283874 -0.06759014 0.013671407 14013130
0.40849999 -0.050711472 0.015360483 13092544
0.41357633 -0.054801032 0.015178224 13487045
0.42000005 -0.059513088 0.015876547 13881801
0.39900002 -0.040035602 0.018196275 13618627
0.40369818 -0.044937342 0.014978203 13289664
0.39642721 -0.034679975 0.014828371 13881797
0.39528933 -0.024854789 0.014784144 13882051
0.39721552 -0.015509684 0.015104976 13421244
0.4000527 -0.01071438 0.013635124 13223867
0.4028981 -0.0050717988 0.015129047 13092281
0.4072243 0.0022724047 0.015706437 12829109
0.41247371 0.0074237846 0.014428907 12434608
0.41691843 0.013186176 0.016113129 11974314
0.42123929 0.017889252 0.014449591 12105899
0.42605084 0.023574771 0.015749225 12171436
0.43078792 0.028011912 0.01379 12303022
0.43565142 0.034024794 0.015242063 12171950
0.44050002 0.038756613 0.013785745 11974570
0.44628564 0.044050388 0.015263518 11974571
0.45090002 0.049177859 0.014807181 11842985
0.45520008 0.054929551 0.015003632 11645349
0.45866674 0.060755711 0.01632558 10790296
0.46728569 -0.091661692 0.027479509 14867926
0.47077778 -0.091321491 0.022753207 14933720
0.45511115 -0.082130775 0.027208874 14407888
0.46505558 -0.086678632 0.024984 14539218
0.47100002 -0.089159608 0.021478644 14868183
0.4368929 -0.072954521 0.025695685 14341839
0.44400004 -0.076775856 0.02568114 14473425
0.45100003 -0.079038851 0.024263017 14736597
0.41839999 -0.060592353 0.027405199 14144460
0.42353854 -0.064185254 0.025031431 14078924
0.43076926 -0.068900689 0.023716491 14210509
0.40820837 -0.051352903 0.025542662 13881544
0.41387698 -0.05601152 0.024872823 14013130
0.42000002 -0.059840832 0.021120429 14144973
0.39866671 -0.041184373 0.026609518 13947078
0.40253741 -0.045442261 0.024832899 13815750
0.3955715 -0.034992632 0.025044909 13947333
0.39335564 -0.024734452 0.024842519 13816002
0.39616367 -0.014901253 0.025138302 13355707
0.40000001 -0.010170911 0.022455713 13158328
0.39845458 -0.0083501004 0.028643308 13092536
0.40161061 -0.0047610872 0.024760088 13026744
0.40605938 0.0044152467 0.025267769 12631987
0.41106671 0.0091793137 0.022689005 12302765
0.40900001 0.010664723 0.0296633 12106156
0.41515788 0.014787839 0.025224376 12039850
0.42037502 0.019203465 0.021753658 12237485
0.41900003 0.02073434 0.028917234 12236972
0.42336667 0.025114479 0.025114574 12105900
0.43000001 0.029331779 0.02011334 12237742
0.42758334 0.03091977 0.027505213 12237486
0.43440291 0.035262376 0.024555551 12040363
0.44000003 0.039284348 0.022126164 11777448
0.43900001 0.040222771 0.029783679 11908777
0.44531998 0.044834044 0.025409747 11974314
0.45000002 0.049658295 0.022629032 11908007
0.44900003 0.050861843 0.028622668 11842216
0.45321548 0.054722447 0.025426257 11908007
0.45854548 0.060945619 0.023495885 10658454
0.45444447 -0.090636171 0.036741272 14210253
0.44760874 -0.08154463 0.035924084 14144717
0.4530001 -0.086100034 0.034745116 14144716
0.46000001 -0.088154189 0.030131543 14342352
0.43547064 -0.072724096 0.034611292 14210510
0.44250005 -0.07775943 0.03649522 13947338
0.41692594 -0.061355952 0.035367746 14013387
0.42261115 -0.064727776 0.034443956 14079180
0.43080002 -0.069246352 0.033261158 14210509
0.40695754 -0.052209359 0.035027817 13881543
0.41270968 -0.057466984 0.035877101 14013130
0.39762503 -0.042110603 0.035166081 13881799
0.40206665 -0.047042724 0.036125608 13881544
0.39380988 -0.034915861 0.035009053 12631731
0.38889471 -0.0241202 0.038890164 2107169
0.39190072 -0.024797961 0.034022566 12171435
0.38900003 -0.019604877 0.038837094 2434853
0.39355379 -0.014611918 0.034969918 12368557
0.39712042 -0.0058369571 0.036089867 12960695
0.40056667 -0.0024009671 0.032519408 12960695
0.39900002 0.00012924365 0.039212763 13092281
0.40353319 0.0049041254 0.03488877 12631987
0.40784848 0.011793717 0.036057942 12302765
0.41283104 0.016515935 0.034549613 11908520
0.4169091 0.022200773 0.036293697 12039849
0.42209524 0.027026923 0.034486286 12039850
0.4266572 0.032445855 0.035565343 12040106
0.43302387 0.037436467 0.035068184 11908520
0.43780953 0.0414318 0.035847079 11974315
0.44329518 0.046187699 0.034510188 11974059
0.44836375 0.05196026 0.035379071 11842216
0.45208001 0.05696211 0.034606747 11908009
0.45400003 0.061381973 0.036197212 10987419
0.47100002 -0.10128842 0.049045302 14539218
0.45728573 -0.092146181 0.043722115 14144460
0.46546668 -0.095745593 0.046974603 14276046
0.47000003 -0.098872826 0.045640334 14341584
0.4465417 -0.082442679 0.045403004 13947081
0.45290259 -0.087160259 0.044744559 13947081
0.42900002 -0.070161812 0.048689023 13683909
0.4345901 -0.07390371 0.04528695 13947081
0.442 -0.078719877 0.042697262 14012874
0.41633332 -0.061854042 0.044425119 13947081
0.42476323 -0.06659738 0.045457628 13881288
0.43066669 -0.069426186 0.042825863 14012874
0.40703291 -0.053703733 0.045342032 13881288
0.41170588 -0.058349401 0.044313405 13947081
0.39691937 -0.043038014 0.045494076 13683907
0.40165216 -0.048113808 0.044478863 13881287
0.38765219 -0.032210711 0.045863546 2304545
0.39242646 -0.036856703 0.04436155 10328979
0.38622263 -0.025241863 0.044803601 2239010
0.38760975 -0.017066224 0.045424793 4803651
0.3916809 -0.012453307 0.04369903 12631984
0.39510351 -0.0053485688 0.045226626 12960437
0.3982223 0.0014509518 0.045918774 12763059
0.40127051 0.0062579098 0.044560336 12368558
0.40643436 0.013485803 0.045384079 12039850
0.41133335 0.018197315 0.04412955 11711141
0.41580006 0.02343514 0.045227788 11777191
0.42105892 0.028462369 0.044335913 11908520
0.42600003 0.033317722 0.045286499 11974313
0.43129036 0.038021449 0.045284588 11974313
0.43710631 0.043211181 0.045934647 11974058
0.44154054 0.047609691 0.044451497 11908008
0.44623077 0.05291919 0.045803595 11842215
0.45158333 0.057647076 0.043791305 11908007
0.45348909 0.062736817 0.04517762 11184541
0.4726429 -0.10188067 0.055145916 14407633
0.45750004 -0.091154151 0.054588564 14407632
0.46526664 -0.095416732 0.053746093 14604754
0.47000012 -0.099422961 0.054534253 14407632
0.43900007 -0.080018938 0.0559902 13881287
0.44444743 -0.083702922 0.05566733 13947081
0.45384616 -0.088204809 0.052608471 14012875
0.4279286 -0.071060114 0.055717815 13881287
0.433339 -0.075456299 0.054604635 13947081
0.41559529 -0.062786475 0.055639777 13683908
0.42340007 -0.06759049 0.054541118 13749701
0.4047308 -0.054007862 0.05535144 13881031
0.41090003 -0.059314243 0.054422997 13815494
0.39592391 -0.044078685 0.055299748 13617859
0.40000004 -0.049083833 0.055542096 13815495
0.3860001 -0.033134919 0.055247411 4540738
0.39159462 -0.038179673 0.054662686 12894649
0.38239381 -0.024941538 0.055030581 2173216
0.38511562 -0.015509192 0.055370525 6185046
0.39033335 -0.011346373 0.051559165 12302765
0.38877779 -0.0093796412 0.058331534 12236716
0.39265513 -0.0050069252 0.054740675 12631730
0.39708534 0.0032070046 0.05550338 12434609
0.40015373 0.0079124803 0.053857222 12236973
0.40432683 0.014560908 0.055239096 11908264
0.4106667 0.019200614 0.051733956 11645091
0.40875 0.020586168 0.057753183 11645349
0.41402122 0.024902778 0.054973844 11842470
0.42066669 0.029187908 0.051189601 11711398
0.41800001 0.030837851 0.058081098 12236972
0.42449367 0.035082221 0.054970041 12105643
0.43016672 0.039077878 0.051506385 11908522
0.42900002 0.04031083 0.059234139 12500144
0.43502188 0.045022182 0.054965023 11974058
0.4390001 0.05086688 0.055623174 11974057
0.44289294 0.054901507 0.05483523 11974570
0.44900003 0.060269337 0.056740053 12369071
0.45266664 0.063027933 0.055089206 12368815
0.45900002 -0.10085689 0.069286287 14538960
0.46416667 -0.10171709 0.065887868 14670803
0.44775006 -0.09192244 0.066884808 14407631
0.45330432 -0.095181547 0.065494344 14407632
0.4624286 -0.098825097 0.06399861 14341839
0.43839136 -0.081961684 0.066909812 14012874
0.44355935 -0.085925758 0.06442371 14210252
0.42685717 -0.071883813 0.066177778 13881288
0.4328298 -0.076313809 0.064868785 13947080
0.40900001 -0.060188524 0.069877304 13420735
0.41432074 -0.063230991 0.065383807 13683908
0.42137507 -0.068053164 0.064466856 13881287
0.39889997 -0.050297726 0.064883441 13815494
0.40329278 -0.05501144 0.065029785 13749700
0.39405891 -0.044384163 0.064547993 13486016
0.37900004 -0.030043593 0.067413568 2173471
0.38490915 -0.034241844 0.06512817 7171172
0.39069229 -0.038710035 0.062526435 12893622
0.37822446 -0.024651479 0.066551059 1910043
0.38044447 -0.025161518 0.061608441 2107424
0.37831923 -0.017231921 0.067140348 2172702
0.38259256 -0.013930245 0.063915208 7698027
0.38826001 -0.0082519446 0.065278344 12303020
0.39111114 -0.0033669884 0.064670078 12631731
0.39485598 0.0047174762 0.065021381 12435122
0.39815998 0.011464086 0.067165315 12171951
0.40227467 0.015776742 0.064573929 11974572
0.40758979 0.02193399 0.065619536 11711656
0.41283339 0.026571976 0.064612873 11908778
0.41719356 0.031452671 0.065729342 12040364
0.42293939 0.036359329 0.064842567 12237486
0.42773685 0.041036259 0.066117644 12171950
0.43305635 0.045713797 0.064615488 12040107
0.43821746 0.051169015 0.065856464 11974314
0.44373691 0.0559755 0.064874552 12105387
0.449 0.060786817 0.065795831 12105900
0.45271668 0.065100051 0.065136686 12237486
0.454 0.07050588 0.067360088 10263953
0.44900003 -0.10181291 0.078813516 14341840
0.45500001 -0.10103984 0.073236458 14407375
0.44653025 -0.094578184 0.075618625 14210253
0.45144448 -0.098493867 0.072902061 14472912
0.43601725 -0.083565176 0.075330175 14144460
0.44130769 -0.088148721 0.07316678 14144460
0.41900003 -0.07048811 0.07943289 14407632
0.42458627 -0.073751017 0.075708702 14078667
0.43141177 -0.078517631 0.074530654 14078667
0.4078519 -0.061611466 0.075899847 13815495
0.41436175 -0.065920137 0.075186096 13881288
0.42062503 -0.0694075 0.073093049 13947081
0.39788005 -0.051138476 0.075686529 13683909
0.40278372 -0.055831715 0.074991055 13749958
0.39263624 -0.04467506 0.07531774 13223615
0.37800005 -0.03102652 0.076137334 2172702
0.38638031 -0.036186446 0.074495867 10263444
0.37595111 -0.024963357 0.075223505 1712151
0.37650529 -0.016111868 0.075422667 2764582
0.38100004 -0.011694046 0.076465614 11316895
0.38846669 -0.0061857617 0.075490832 12105642
0.39021435 -0.0017980865 0.073452644 12434609
0.3930335 0.0047003222 0.074976087 12303024
0.39702943 0.012830761 0.075592853 12302767
0.40109086 0.01785407 0.074482143 11842729
0.40584013 0.023892136 0.075172491 11711399
0.4114286 0.028387239 0.073914334 11777191
0.41632009 0.032672945 0.075120531 11842984
0.42176598 0.037786469 0.074659027 12040363
0.42656255 0.042998467 0.075724296 11974571
0.43154556 0.047510233 0.074505024 11842984
0.43710533 0.052790698 0.075240873 11842984
0.44250003 0.057368949 0.074065708 11777192
0.44753698 0.063535348 0.07573913 11974571
0.45076916 0.067400053 0.07287211 12303023
0.45400003 0.07135614 0.070125766 10395540
0.44832608 -0.10278006 0.085263461 14539218
0.45180002 -0.10773712 0.089035667 14538961
0.43790913 -0.09165661 0.08636751 14539218
0.44376275 -0.096160606 0.084437713 14407632
0.42688888 -0.081920817 0.086769469 14407632
0.43270686 -0.085900038 0.084154516 14407632
0.41696876 -0.072467081 0.086546965 14144460
0.42295164 -0.076460287 0.0842463 14341839
0.40640682 -0.062876858 0.085331403 14012617
0.41256759 -0.068025559 0.084969059 14144203
0.39684212 -0.053090118 0.08558017 13749445
0.40146512 -0.05755287 0.083951026 14012360
0.38900003 -0.040853515 0.08922673 12763836
0.39150435 -0.044635862 0.084545411 13091516
0.37546158 -0.031287551 0.084389716 2238496
0.3880589 -0.036696248 0.085268721 11842476
0.38999999 -0.038625322 0.0846375 12631477
0.37256464 -0.025046475 0.084493794 1976091
0.37364236 -0.015811207 0.085139439 2567716
0.38166669 -0.010598234 0.083072513 11052956
0.38834092 -0.0050128773 0.083724067 11184542
0.38900003 0.00012600447 0.083762795 10724249
0.39152008 0.0047353017 0.082159169 11447971
0.39648002 0.014318462 0.081474431 10592919
0.40033332 0.019186342 0.080892183 10329747
0.4036667 0.022811318 0.080305994 10855321
0.41200003 0.029068438 0.080034852 11908777
0.41600004 0.03325313 0.080567539 10198159
0.42625004 0.044057909 0.080305763 10000782
0.43000001 0.048457898 0.0805116 9934989
0.44520003 0.062681235 0.080230936 9540231
0.45376933 -0.11176087 0.095581286 14670034
0.44613203 -0.10365209 0.095702827 14473168
0.45143485 -0.10824727 0.094262384 14604498
0.42900002 -0.090247743 0.097899556 14276046
0.43422413 -0.093879096 0.095403627 14276046
0.442 -0.098295696 0.092342734 14538961
0.4242785 -0.084411226 0.095373601 14210253
0.43081817 -0.088796787 0.092214949 14276046
0.416145 -0.074252374 0.094622567 13815752
0.42029417 -0.07909824 0.094667211 14276303
0.4067567 -0.064035743 0.093273282 13684167
0.41136852 -0.068495914 0.093649507 13947338
0.39720693 -0.054192953 0.092039056 13486789
0.40033337 -0.058444932 0.09370029 13092031
0.38900003 -0.041157067 0.091503374 10526875
0.39092314 -0.045215108 0.091146626 11250598
0.3768 -0.031281769 0.091015808 2304034
0.38624391 -0.03553573 0.093200937 8224632
0.37608698 -0.023743842 0.093580343 1449748
0.3814615 -0.025826264 0.097578846 923406
0.37356019 -0.014666681 0.095317721 1973524
0.37350002 -0.0092782043 0.096163273 5580318
0.4488889 -0.11188778 0.10588205 14341842
0.45111772 -0.11266822 0.10210572 14999514
0.43900004 -0.10074436 0.10429243 13025726
0.44473079 -0.105981 0.10418987 14012620
0.45000002 -0.10941388 0.10005821 14868183
0.42900002 -0.090247743 0.1014146 13618119
0.43402642 -0.095727742 0.10278769 13091518
0.42305887 -0.084872626 0.10117402 11117984
0.41800004 -0.074236877 0.10057513 10526358
0.42045459 -0.077891849 0.10145287 9802893
0.37511113 -0.030971112 0.10436116 4474172
0.37409645 -0.025199777 0.10502452 857610
0.37153369 -0.015186724 0.10509272 1250827
0.37133336 -0.0094419969 0.10082102 3283481
0.37100002 -0.03085696 0.1150136 2173729
0.36900002 -0.021908283 0.11919266 1383183
0.37081221 -0.0251502 0.11485286 1054988
0.36900002 -0.018884858 0.1189767 1712404
0.37083045 -0.015090249 0.1147524 1317134
0.37100002 -0.0091729667 0.11323795 3087123
0.3560909 -0.031031262 0.12797908 1646870
0.37128574 -0.030674156 0.12191784 1383439
0.35654256 -0.025218491 0.1269355 1186576
0.36506853 -0.023621434 0.12261102 1317906
0.37061897 -0.027893018 0.12219454 1844504
0.35576072 -0.015156786 0.12659565 1186063
0.36567187 -0.016718045 0.12223445 1186064
0.37 -0.01345025 0.1205262 1317391
0.35400003 -0.0094619161 0.12778643 1448209
0.34900001 -0.030116517 0.13724281 923147
0.35312504 -0.030680245 0.13305807 1515284
0.34900001 -0.028408211 0.13850546 1252112
0.35258716 -0.025388522 0.13299464 1317905
0.3520574 -0.015509459 0.13234924 1448465
0.35250002 -0.0097883251 0.1307791 1448467
0.34800002 -0.030030226 0.14336696 1383697
0.34570006 -0.028039781 0.14585277 1317647
0.33805779 -0.024504295 0.15792905 1383699
0.34105062 -0.025659008 0.15354541 1448977
0.33786574 -0.014740801 0.15678668 1383185
0.34000009 -0.015362283 0.15294218 1317648
0.33806247 -0.0085960096 0.15633066 1251855
0.33999994 -0.0085126162 0.15300527 1251855
0.33400512 -0.024426937 0.16462661 1712149
0.33348078 -0.014961953 0.16473936 1515026
0.33318177 -0.0085978974 0.16505165 1448977
0.33154288 -0.023467459 0.17131341 1778456
0.331 -0.014959835 0.17100328 725514
0.33100003 -0.0097078914 0.17071629 397062
0.35675001 -0.021180682 0.1895642 922893
0.35646158 -0.014859939 0.18864086 1910298
0.35600016 -0.0064787976 0.18787958 1054989
0.35531577 -0.021117566 0.19344063 660234
0.35620642 -0.015316527 0.19452223 1449750
0.35693765 -0.0078062401 0.19398481 725514
0.39495456 0.017275251 0.19855966 5001288
0.39500001 0.020471394 0.19817664 8948610
0.37800002 -0.030849228 0.20970537 1186065
0.38647273 -0.03272837 0.20843756 1514770
0.39303842 -0.036788285 0.20863001 1909269
0.37525001 -0.026901603 0.20898056 1251857
0.38527271 -0.028901277 0.20786448 1777942
0.35830769 -0.014015042 0.20155573 1251857
0.36000001 -0.017019643 0.20280953 331012
0.37338313 0.0052724113 0.20637055 725512
0.38300002 0.0075137629 0.20450544 1120781
0.37615153 0.012532998 0.20838042 659720
0.38572887 0.01444323 0.20645882 1120526
0.39180425 0.017653961 0.20277989 1579537
0.38771424 0.021693835 0.20899627 527109
0.39238003 0.022301877 0.20515734 3290157
0.40200001 0.02601134 0.20655212 8751231
0.38550684 -0.043285973 0.21395572 1843735
0.37797064 -0.033374224 0.21247272 1054479
0.38323802 -0.036848862 0.21165596 1515027
0.39300001 -0.039204143 0.21019864 5724230
0.37484214 -0.0280552 0.2111381 396550
0.37125003 0.0066402829 0.21030615 133377
0.37312508 0.011695733 0.2103842 659977
0.38266668 0.018838571 0.21070038 396549
0.38537502 0.022117231 0.21074913 133381
0.80723083 -0.22548845 0.34825611 1975578
0.81476194 -0.22535056 0.34573498 2436384
0.80800003 -0.21821144 0.34989887 2502179
0.81521428 -0.21715581 0.34824514 2370338
0.8043943 -0.22519684 0.35466975 1251857
0.80593342 -0.21569993 0.35572931 2107422
0.81357151 -0.21222916 0.35244155 2370083
0.82000005 -0.21089421 0.35125613 1645078
0.80800003 -0.20969948 0.35841084 2173214
0.81527275 -0.20811377 0.35738087 2172704
0.80434519 -0.22491755 0.36539367 923150
0.80584615 -0.2150152 0.36507484 1186320
0.8082 -0.2097514 0.3651225 1975835
0.81390017 -0.20645984 0.36483446 2173214
0.8205834 -0.20239846 0.36415103 2304031
0.80536669 -0.22503969 0.37515381 726027
0.80731994 -0.21519014 0.37530774 791564
0.81000006 -0.21021855 0.37541589 726027
0.81496674 -0.20551997 0.37510574 1646616
0.82000005 -0.20129605 0.37429175 2501411
0.69650006 -0.22967757 0.38884676 7896434
0.7076667 -0.22838835 0.38845453 7830898
0.7146154 -0.22818309 0.38743448 7765364
0.72425008 -0.2286523 0.38695863 7961973
0.73430002 -0.22873104 0.38691136 7830644
0.74500006 -0.22910041 0.38801429 7765877
0.80454296 -0.2249442 0.38499266 595468
0.80607134 -0.21485768 0.38471219 529162
0.80783331 -0.20734368 0.38596675 726798
0.81340742 -0.20305628 0.3841832 1186067
0.8186667 -0.19905221 0.38709795 1053711
0.82156664 -0.19475231 0.38481435 5000774
0.69639999 -0.22899099 0.39253998 7830387
0.70472002 -0.22703663 0.39326614 7699055
0.71500009 -0.22597292 0.39259085 7830899
0.72333336 -0.22667278 0.39112568 7765108
0.73399997 -0.22657441 0.39302319 6712164
0.74200004 -0.2273113 0.39311004 6975849
0.75400001 -0.22922233 0.39270684 7765878
0.80356008 -0.22547592 0.39500478 660751
0.80508584 -0.21540253 0.39494762 661006
0.80715781 -0.20679393 0.3946861 726799
0.81090003 -0.20190859 0.39481753 792335
0.81606674 -0.1985435 0.39478302 1053966
0.82140917 -0.1932479 0.39477536 5396301
0.74533337 -0.22833246 0.40302488 6778470
0.75300002 -0.22891833 0.40188131 6778470
0.80440027 -0.22476897 0.40483466 660493
0.80665207 -0.21525912 0.40563944 726029
0.8083334 -0.20873438 0.40387052 857615
0.81226093 -0.20360619 0.40531617 857359
0.817375 -0.19849703 0.40394908 856589
0.82195657 -0.1937407 0.40538588 5330253
0.80515641 -0.22521564 0.41499174 594699
0.80778253 -0.21564277 0.41508567 528649
0.81 -0.21076034 0.41604927 594443
0.8133871 -0.20433283 0.4148823 856845
0.81900007 -0.19913328 0.41601577 855819
0.82254153 -0.19437166 0.41500506 5593426
0.80575866 -0.22504987 0.42483652 529420
0.80820006 -0.21731853 0.42358524 397834
0.8113572 -0.21328218 0.42556629 397577
0.8151201 -0.20497678 0.42473206 660236
0.82000005 -0.20129605 0.42996114 330756
0.82313329 -0.19498967 0.42504874 6712162
0.80707699 -0.22718993 0.43321481 331784
0.81161541 -0.22349593 0.43667215 595213
0.81552386 -0.21528251 0.43443489 661007
0.81999999 -0.21153408 0.43891945 726542
0.81819999 -0.20698294 0.4324657 857358
0.82112497 -0.20373164 0.43619907 2633254
0.8247273 -0.19569129 0.43445912 7831154
0.80700004 -0.22833081 0.44770199 726029
0.81410354 -0.22454771 0.44533178 660493
0.82000005 -0.22049239 0.44915751 857615
0.81850004 -0.21817234 0.44162944 661006
0.82074994 -0.2147363 0.44582224 726285
0.82407999 -0.20568618 0.44491252 4344127
0.80615795 -0.22650023 0.45379156 659979
0.81477278 -0.22185431 0.45452359 857614
0.82250011 -0.2148622 0.45511788 2962217
0.81900007 -0.2202235 0.4620308 4804425
0.82483333 -0.21513259 0.46392474 7699313
