# .PCD v0.7 - Point Cloud Data file format
VERSION 0.7
FIELDS x y z rgb
SIZE 4 4 4 4
TYPE F F F U
COUNT 1 1 1 1
WIDTH 428
HEIGHT 1
VIEWPOINT 0 0 0 1 0 0 0
POINTS 428
DATA ascii
0.5165484 -0.023239085 -0.11365882 15723493
0.52033335 -0.026224872 -0.11655547 11841194
0.50749999 -0.012378525 -0.11269233 15592162
0.51176196 -0.017009499 -0.11355313 15789285
0.505077 -0.0048849811 -0.11262318 14934233
0.50503343 0.0048533515 -0.1126165 13618373
0.50500005 0.012986054 -0.11206031 11381665
0.528 -0.040618867 -0.10138055 15723238
0.53100002 -0.04084966 -0.10319966 15723238
0.51521432 -0.032490309 -0.10409439 16051945
0.52425009 -0.037162986 -0.10393424 15854311
0.50718188 -0.023638975 -0.10245819 15920870
0.51177496 -0.026194502 -0.10653584 15920871
0.50456136 -0.014657302 -0.10461526 15657697
0.51033336 -0.017755968 -0.10913868 15657699
0.49900004 -0.0039269524 -0.10048497 15065560
0.50277573 -0.0052559935 -0.10579846 15065817
0.49900001 0.0019138876 -0.10048497 14802901
0.50308812 0.0050484929 -0.1056805 14473938
0.5043332 0.014271039 -0.10535259 13553093
0.50811112 0.021312563 -0.10271742 11250079
0.51033336 0.02326257 -0.10316674 11315872
0.50560015 -0.033880249 -0.092632465 15591652
0.51192313 -0.033945333 -0.097374707 15854824
0.49850005 -0.022479214 -0.091865793 15526113
0.50358695 -0.025725637 -0.095751017 15591652
0.49675006 -0.014287857 -0.093688332 15197148
0.50117642 -0.016542062 -0.098370031 15394526
0.49628121 -0.0050677992 -0.094719827 14933975
0.49702856 0.0047029392 -0.094742805 14539474
0.5 0.0089407768 -0.099515833 14408145
0.49880004 0.011138136 -0.093556017 13618629
0.50254905 0.015348284 -0.095223829 12237745
0.50709683 0.022531554 -0.094340384 11119006
0.51000005 0.024043582 -0.099118322 11315872
0.50500005 -0.041924179 -0.083408311 15262432
0.49811772 -0.032146897 -0.082817554 15525859
0.50242549 -0.035928734 -0.08581049 15460067
0.48780003 -0.021311 -0.08155781 15328734
0.49466044 -0.025104079 -0.085395381 15460321
0.5 -0.029100765 -0.088981256 15525859
0.4874413 -0.014441385 -0.082654364 14868440
0.49168956 -0.015084472 -0.087345473 15131611
0.48760873 -0.0054495051 -0.082211606 14539731
0.4914242 -0.0046866545 -0.08676061 14605525
0.48855558 0.0024462075 -0.081480391 14342352
0.49237937 0.0053310408 -0.08550328 13947594
0.49741185 0.011533512 -0.086537808 12434868
0.50432003 0.015944725 -0.087198541 11579815
0.51215005 0.018031726 -0.083226651 11250849
0.50849998 0.020997431 -0.089303538 10987677
0.51203024 0.022684246 -0.085955985 10921883
0.49900001 -0.041892409 -0.070696697 15328223
0.50369698 -0.043432985 -0.07520701 15130588
0.48744446 -0.031540792 -0.072040826 15394273
0.49509752 -0.035184085 -0.075220183 15394017
0.50122225 -0.038950339 -0.077727526 15328224
0.48439342 -0.024312995 -0.074668333 15328478
0.491375 -0.028456559 -0.078675717 15525602
0.47900006 -0.014983036 -0.070666529 14671315
0.48277429 -0.014772178 -0.075717382 14737110
0.48360613 -0.0053096283 -0.075301267 14276559
0.48646033 0.0037593606 -0.075114958 13486787
0.49080005 0.0088916784 -0.075045466 11973803
0.49683335 0.01169825 -0.073194467 11776424
0.50295246 0.015641393 -0.07375586 11381666
0.51120001 0.017878199 -0.078289405 11381665
0.486 -0.040801026 -0.062604383 15131101
0.49550003 -0.042063735 -0.067654148 15131101
0.50100005 -0.044406019 -0.069220774 15065308
0.47866669 -0.030474052 -0.060906027 15394272
0.48348165 -0.03432871 -0.064626813 15394016
0.49060002 -0.037283327 -0.068472579 15459553
0.47619149 -0.024089685 -0.064091869 15262941
0.48094741 -0.027104259 -0.067754887 15459809
0.47414091 -0.01532137 -0.064912118 14671058
0.47636068 -0.0057662847 -0.064323783 13947592
0.48042861 -0.0032176196 -0.06886936 14079178
0.47800002 0.00090187811 -0.061940987 13224125
0.4834682 0.0041906266 -0.065134704 12763575
0.4917143 0.0090404283 -0.06531252 11908522
0.49659997 0.013186047 -0.064754024 11645093
0.50062501 0.016424043 -0.067704357 11184800
0.4765 -0.041258551 -0.052450079 15131100
0.48100004 -0.041132338 -0.058763713 15394273
0.46825001 -0.031364277 -0.050719984 15328734
0.47509626 -0.03522487 -0.054444034 15262942
0.48045453 -0.036655601 -0.059122611 15262687
0.46661544 -0.02379813 -0.053495914 15065561
0.47229034 -0.02667365 -0.057196159 15328733
0.4666 -0.0153027 -0.054371413 14605009
0.47015396 -0.01415511 -0.059032537 14539216
0.46774074 -0.0072679552 -0.052299596 14210251
0.47164711 -0.0045208614 -0.056293804 13749957
0.47563639 0.0030442677 -0.053901609 12960697
0.48211539 0.0067595486 -0.057150442 12434610
0.48575005 0.010391689 -0.056315221 11513508
0.49120003 0.012119838 -0.05912726 11579814
0.46700001 -0.040299177 -0.040471535 14999769
0.47490913 -0.042093024 -0.045207988 15065563
0.48120004 -0.044454567 -0.047109429 15131356
0.45900002 -0.031012611 -0.040852759 15460318
0.46474007 -0.033865951 -0.044284765 15328733
0.47161114 -0.038001146 -0.047619388 15262684
0.45842096 -0.024084559 -0.042553719 14999767
0.46192861 -0.025084762 -0.047451213 15065560
0.45827776 -0.015406191 -0.042489097 14539216
0.46193188 -0.014643638 -0.047483291 14473423
0.45876932 -0.0073687653 -0.041576125 14407373
0.46385959 -0.0049110698 -0.045693837 13881543
0.47000003 -0.00094803656 -0.049533755 13025979
0.46742108 0.0016510134 -0.043101996 12434611
0.47200012 0.005412451 -0.045682877 12368561
0.4757143 0.010654896 -0.04648032 11381666
0.4585 -0.04321463 -0.030826628 14999256
0.46425 -0.042146552 -0.036212023 15065305
0.47033334 -0.044624303 -0.039292593 14933976
0.45698181 -0.034090172 -0.034300111 15328476
0.46127781 -0.037467625 -0.037277218 15197147
0.4488 -0.023249665 -0.031259902 14868181
0.45392865 -0.025451563 -0.03599254 15065560
0.44871441 -0.015385804 -0.031459302 14605009
0.45327595 -0.014761627 -0.036434852 14539216
0.44900003 -0.0089642415 -0.030853042 14276044
0.45493156 -0.0052713566 -0.035291556 13486785
0.46000001 -0.0014662996 -0.039326459 12960955
0.45885721 0.00076264807 -0.031786326 12303025
0.46462268 0.003835086 -0.035015397 11711401
0.47038466 0.0081154294 -0.037631318 11382436
0.47333336 0.010495938 -0.038065255 11118493
0.45441946 -0.043469034 -0.024252778 14868181
0.44721052 -0.033084475 -0.023745919 15197146
0.45241463 -0.036486737 -0.026864881 15131353
0.44433746 -0.024962779 -0.024835158 14933974
0.45000002 -0.029351063 -0.029517144 15460318
0.44366673 -0.014914623 -0.024960319 14473680
0.44640979 -0.006036262 -0.024511311 12829368
0.45235723 -0.0024974856 -0.028235545 12237745
0.45733336 0.0013404973 -0.028213792 11908781
0.46200001 0.0044781929 -0.028682724 11119010
0.4472917 -0.042484853 -0.012851804 14802389
0.45226929 -0.044488609 -0.017248062 14736596
0.43716672 -0.031984575 -0.012305531 15262939
0.44396719 -0.035816181 -0.016281104 15131353
0.45000002 -0.039885644 -0.018982563 14933974
0.4357557 -0.024545869 -0.014279581 14802645
0.44046158 -0.027540764 -0.018977273 15000280
0.42900002 -0.013419045 -0.010062338 14210251
0.43436173 -0.014915659 -0.014849087 14276557
0.44000003 -0.010672979 -0.019590776 14144971
0.4359546 -0.0080175539 -0.013533425 12303280
0.44297433 -0.0044474285 -0.017650448 11908779
0.44700003 0.00014479176 -0.018856013 11053470
0.45400003 0.0012098814 -0.015962832 10921884
0.43624002 -0.042142343 -0.0026345206 14473424
0.4413 -0.045313537 -0.0043618111 14473425
0.42735004 -0.032628451 -0.0015221121 14999767
0.43250704 -0.035545528 -0.0054611089 14999768
0.42493156 -0.024859004 -0.0032334684 14802389
0.43047827 -0.025976656 -0.008126176 14933976
0.41900003 -0.018501123 -1.8918467e-05 14407886
0.42477772 -0.01531723 -0.0046996814 13618371
0.43000001 -0.019490151 -0.0090791546 14605009
0.42700005 -0.0098578334 -0.0060193087 11908008
0.43000001 -0.0099270912 -0.0085758362 12368560
0.47033334 -0.00094870891 -0.0066260286 10395540
0.46900001 0.0017988242 -0.0099026123 10329748
0.47019461 0.0034545055 -0.0067469738 10066574
0.42714289 -0.041288633 0.0082632359 14407632
0.43409762 -0.044164415 0.0047319243 14276302
0.44000003 -0.047583029 0.00169688 14276046
0.41760001 -0.031883538 0.0082895355 14802389
0.42355886 -0.035332054 0.0050620898 14802132
0.43016669 -0.038463652 0.001658697 14736595
0.41565067 -0.024230484 0.0060200999 14605267
0.42075002 -0.027321806 0.0018270415 14868182
0.41582921 -0.015627209 0.0053127483 11974315
0.42000002 -0.012154298 0.00096426392 10921886
0.41816667 -0.040979851 0.017926583 14013387
0.4233236 -0.042566556 0.01474975 14013387
0.43300003 -0.046151292 0.013145815 13881545
0.4421429 -0.048654627 0.01210584 13947338
0.40776473 -0.031707555 0.018341089 14605523
0.41500002 -0.035201419 0.014808342 14539730
0.4207778 -0.038500383 0.01191083 14407888
0.40646261 -0.024608564 0.016505517 14342350
0.41179997 -0.026383318 0.011741434 14605267
0.40784624 -0.01855669 0.015215398 10987164
0.41106668 -0.016094316 0.012876546 10132111
0.40900001 -0.040081523 0.025833394 13355203
0.41575003 -0.041230533 0.021875601 13684422
0.42050004 -0.043177307 0.021144986 13487043
0.40500009 -0.034270309 0.025274962 14210509
0.41225001 -0.038070314 0.021451449 14144973
0.39888239 -0.023929713 0.02942373 13816006
0.40160623 -0.025217492 0.02476868 14144715
0.39899999 -0.018285204 0.029471789 12434353
0.40139133 -0.018744592 0.024406534 11776423
0.40024999 -0.040395714 0.038633306 13092544
0.39744011 -0.032717235 0.036467571 11711404
0.40080756 -0.036536947 0.033593342 13553094
0.39664465 -0.024942655 0.035259996 10724508
0.39684603 -0.016320348 0.036042877 10790042
0.39900002 -0.040658314 0.04839775 13355458
0.40000007 -0.040838249 0.045163583 13421250
0.39569801 -0.034473531 0.0451933 6382943
0.40000001 -0.039199535 0.042120267 13356228
0.38900003 -0.021881515 0.04885431 2238754
0.39211562 -0.024920871 0.044626858 2370084
0.38900003 -0.019604877 0.048854306 2435363
0.39426094 -0.014806316 0.045192759 7961457
0.39563635 -0.0067144288 0.046417084 10658711
0.39686114 -0.041963272 0.055487886 13157824
0.38866666 -0.031416789 0.058213517 2172962
0.39360899 -0.035469722 0.054541722 7829618
0.38794506 -0.024695549 0.055641375 2173217
0.39041176 -0.027777094 0.051593419 2172960
0.3881765 -0.017633155 0.055516712 2435361
0.39319998 -0.012580966 0.054581288 10856090
0.39726835 -0.0074462811 0.054018468 11185056
0.40173995 -0.0035508384 0.0565999 11184800
0.40455839 0.0044507384 0.056427579 10658712
0.40466666 0.010866988 0.059347603 10527126
0.39623064 -0.043556273 0.065399647 13091775
0.38687932 -0.0325002 0.065342061 3685944
0.39235082 -0.037487447 0.064757913 11644586
0.3828333 -0.024971893 0.064946525 1910303
0.38399997 -0.016337367 0.064987466 3620149
0.39278948 -0.010951574 0.063958466 11842987
0.39716396 -0.0071219848 0.065778181 11711402
0.40118864 -0.0027025468 0.064249597 11579816
0.40500009 0.0041000708 0.063867174 10724249
0.41220003 0.0070821294 0.068689801 10395540
0.40400001 0.010534347 0.062875547 10856091
0.41000003 0.011650616 0.067168705 10263954
0.39700001 -0.050290495 0.07712096 12960445
0.39502814 -0.04454672 0.075081341 12828859
0.37900001 -0.030043593 0.07939139 1909788
0.38515076 -0.033011928 0.075145677 5790034
0.3915751 -0.038054813 0.074828997 11775658
0.37825495 -0.024220219 0.076006815 1515029
0.38035297 -0.02612016 0.071739577 1909785
0.3783623 -0.016680151 0.075988062 1975837
0.38068756 -0.014603376 0.073512949 5264460
0.38800001 -0.0098657841 0.079914197 11514278
0.3963061 -0.0053826487 0.075031459 11711658
0.40000007 -0.00096290739 0.074192204 11448486
0.40369049 0.0029124494 0.077385858 10922142
0.41644996 0.007839011 0.073829785 10593177
0.41733336 0.011044717 0.073581211 10592920
0.39332974 -0.044952024 0.083742648 12039343
0.37566671 -0.031001111 0.085376218 1843738
0.38515794 -0.034201339 0.081889041 7565932
0.39081815 -0.038342293 0.083404422 10657948
0.37494445 -0.024896296 0.084677696 1909788
0.37546542 -0.015323732 0.085153922 2830890
0.3827143 -0.011518583 0.080998667 8620414
0.37800002 -0.0087263463 0.088078558 8948353
0.38522223 -0.0087950183 0.085837618 10659226
0.39385292 -0.0052156942 0.08360786 11382693
0.40000001 -0.00080683961 0.081917569 11251108
0.40345457 0.0030150868 0.082836837 10790556
0.37666667 -0.031033039 0.091839075 1580566
0.38078576 -0.030821739 0.097848229 2764325
0.37685996 -0.023522723 0.094576269 1251857
0.3812452 -0.026096622 0.097232446 1054735
0.37327778 -0.014536497 0.095257744 2236952
0.37457141 -0.0085820723 0.093853064 7495252
0.37455562 -0.030957246 0.10439543 3947572
0.37340936 -0.025294676 0.10478736 988941
0.37131575 -0.015088868 0.10514719 1447692
0.37050003 -0.0089877183 0.10557664 5188386
0.37051994 -0.030863352 0.11503764 2041371
0.36846521 -0.022669643 0.11735267 1515027
0.37027502 -0.025798967 0.11395617 1449233
0.3683846 -0.01637077 0.11660256 1251341
0.37025416 -0.015029095 0.11212579 1711377
0.37 -0.0089268843 0.11210505 3676179
0.35343754 -0.030861422 0.12693436 1580820
0.37214285 -0.030744776 0.12207498 1447951
0.35359731 -0.024879642 0.12619522 1252368
0.36542109 -0.023585796 0.12215335 1120527
0.37059993 -0.02845302 0.12208046 1646101
0.34900001 -0.014593227 0.12988967 1186319
0.35285941 -0.015424497 0.12610346 1251855
0.36486956 -0.016906409 0.12176619 857354
0.35057145 -0.0093832836 0.12859771 1382674
0.34860003 -0.030081999 0.13479881 1515284
0.35110003 -0.030708816 0.13149107 1581333
0.34828022 -0.025875296 0.13517028 1383442
0.35071105 -0.025668081 0.13132775 1383698
0.34867746 -0.015186133 0.13283573 1317393
0.34999996 -0.01594601 0.13048036 1251856
0.34800002 -0.0093918098 0.13413398 1448467
0.35000002 -0.0093092266 0.13026185 1316881
0.34100002 -0.030224456 0.14926429 1054733
0.34265262 -0.027463727 0.14560062 1712406
0.33900002 -0.030047186 0.15513448 1448467
0.34100002 -0.030224456 0.15006259 1515284
0.33726585 -0.024798738 0.15612623 1975065
0.34004006 -0.027496733 0.15161408 1843991
0.3372474 -0.014835672 0.15596972 1580307
0.33695132 -0.0082409801 0.15640444 1514258
0.33342311 -0.024476711 0.16481416 2304287
0.33299017 -0.015031956 0.16490638 1712405
0.33265799 -0.0079245865 0.16460115 1645842
0.33108693 -0.023280745 0.1712102 1121298
0.33090001 -0.014880951 0.17090996 463112
0.33100003 -0.0095787458 0.17045799 725514
0.35600001 -0.021136446 0.18999965 397832
0.35680497 -0.014714031 0.18871722 1582362
0.35700008 -0.0076149884 0.18815675 1252625
0.35585713 -0.0210681 0.19331692 594699
0.35723105 -0.015005621 0.19468425 1450006
0.36000001 -0.018424252 0.1997194 791561
0.35725015 -0.0076493984 0.19381866 726026
0.39500001 0.018159639 0.1997178 2106397
0.39730772 -0.04337246 0.20946628 1974293
0.38695922 -0.032747906 0.20827059 1186320
0.39322588 -0.036996793 0.20858416 1909013
0.36690912 -0.021121848 0.20574147 462343
0.37268424 -0.024685198 0.20858832 659723
0.38495836 -0.029014444 0.2078802 1317905
0.35841179 -0.013556687 0.20120753 1252370
0.36200005 -0.017641705 0.20324095 1054992
0.35800001 -0.0095220078 0.20028602 3160622
0.37493652 0.0065745204 0.20723103 528391
0.38532886 0.0069721309 0.2045958 791561
0.37678787 0.012822138 0.20854701 462342
0.3855257 0.01448848 0.20675291 791818
0.39192063 0.016935423 0.20308933 923147
0.38704762 0.021700306 0.2091507 659208
0.39211878 0.022561662 0.20548974 3684659
0.38605717 -0.043182109 0.21433201 1843994
0.39282361 -0.043902855 0.21097817 1975320
0.3782174 -0.032523595 0.21278931 988686
0.38332921 -0.036248308 0.21207765 1317907
0.39150003 -0.039283056 0.21032044 6841941
0.37492001 -0.027553601 0.21111605 462600
0.37316671 0.0091482317 0.21066345 265475
0.37490913 0.012656315 0.21053872 528646
0.38075 0.018842112 0.21078506 396549
0.38225001 0.021378506 0.21027172 199429
0.81000006 0.14472021 0.21871881 9277059
0.81165236 0.14491695 0.22574526 9277316
0.8185001 -0.22903056 0.34773806 2172961
0.82030761 -0.22389804 0.34473959 2041118
0.8082 -0.2248868 0.35849935 1054736
0.81422579 -0.22483751 0.35399848 1778201
0.82000005 -0.22145221 0.35125613 2370338
0.80900002 -0.21942843 0.35980135 791307
0.81544447 -0.21558554 0.35693306 2239007
0.82046157 -0.21352373 0.35293034 2041116
0.80686653 -0.22526993 0.36527362 857613
0.8085556 -0.21846616 0.36486185 923149
0.81152177 -0.21374808 0.36455661 1647127
0.81700003 -0.20808771 0.36527053 2107421
0.82120001 -0.20312575 0.36387902 3356463
0.80669689 -0.22515266 0.37525702 594954
0.80883336 -0.21906757 0.37550569 857867
0.81207699 -0.21448193 0.37506121 594697
0.81709534 -0.2074105 0.37515146 1450006
0.82036364 -0.2026069 0.37410828 2171933
0.71900004 -0.22868122 0.38878489 7763825
0.72333336 -0.22892912 0.38858333 7632752
0.73525006 -0.22889718 0.38810086 7830642
0.74420005 -0.22902839 0.38812265 7567984
0.75000006 -0.22976209 0.38798988 7897205
0.80623329 -0.22528131 0.38499486 595469
0.80771995 -0.21575201 0.38555253 529418
0.81100011 -0.21220277 0.38260832 660747
0.80850005 -0.20982924 0.38891542 661004
0.81496978 -0.20560457 0.3854003 923664
0.82000011 -0.20193593 0.38229024 1251346
0.70680004 -0.2282193 0.39586326 7632753
0.71426094 -0.2273161 0.39399123 7829618
0.72525001 -0.22769479 0.39130706 8422012
0.7335 -0.22727963 0.39232853 7041129
0.74400008 -0.22792399 0.39098078 6910310
0.75300002 -0.22891834 0.3965883 7173483
0.80668747 -0.22564273 0.39500794 595471
0.80831569 -0.21595633 0.39445546 661004
0.81000012 -0.21211477 0.39817059 726799
0.80885714 -0.20883973 0.39328089 595213
0.81180769 -0.20351869 0.3943027 792335
0.81669998 -0.19895376 0.39591497 857100
0.82189274 -0.19399093 0.39460012 4803651
0.72900003 -0.22503534 0.40784499 67848
0.745 -0.22823033 0.40197068 6843493
0.75600004 -0.22983035 0.40348244 6646884
0.80651516 -0.22527172 0.40509456 594956
0.80800003 -0.2191572 0.4085367 791820
0.81077421 -0.21513174 0.40473592 726284
0.81307143 -0.20462152 0.40512061 791822
0.81728584 -0.19844088 0.40311852 725259
0.82195646 -0.19374011 0.40538567 5395788
0.80536366 -0.22512273 0.41491473 594699
0.80788231 -0.21701041 0.41626346 528649
0.81075001 -0.21287921 0.41410083 528648
0.81390315 -0.20470993 0.41489914 791568
0.81900007 -0.19913328 0.41313985 921870
0.82234615 -0.19438675 0.41519612 5330254
0.8051002 -0.22496465 0.42466152 529420
0.80760866 -0.21551359 0.42469683 594443
0.81016666 -0.21057785 0.42543796 528396
0.81419241 -0.20484592 0.42420059 725519
0.82000005 -0.20129605 0.42900133 330501
0.82271433 -0.19541955 0.4247106 6054493
0.80699998 -0.2253824 0.43440604 463370
0.81000006 -0.22159591 0.43893942 726799
0.8083334 -0.2186171 0.43204439 660751
0.81209093 -0.21464378 0.43558061 726032
0.81626672 -0.20699967 0.43360928 659985
0.82108337 -0.20284057 0.43693677 2896946
0.82514292 -0.19592722 0.43394455 7501680
0.80680776 -0.22638647 0.44534335 594956
0.81072736 -0.22144841 0.44511354 661004
0.81543481 -0.215771 0.44466397 857356
0.82025003 -0.21143842 0.4478547 659207
0.81900007 -0.20871973 0.44094059 527884
0.82304341 -0.20488465 0.44521192 5133648
0.8057391 -0.22534546 0.45356527 791305
0.81133336 -0.22069339 0.4545399 1054220
0.81614292 -0.21767589 0.45413938 1185807
0.82133335 -0.21315722 0.45604178 5001543
0.82583344 -0.20680207 0.45428488 7765106
0.81700009 -0.21840908 0.46217683 7896435
0.82352948 -0.21338142 0.46413216 7633264
