# .PCD v0.7 - Point Cloud Data file format
VERSION 0.7
FIELDS x y z rgb
SIZE 4 4 4 4
TYPE F F F U
COUNT 1 1 1 1
WIDTH 459
HEIGHT 1
VIEWPOINT 0 0 0 1 0 0 0
POINTS 459
DATA ascii
0.45450002 -0.071672872 -0.10056724 16447470
0.45236361 -0.063903511 -0.10276651 16514290
0.44900015 -0.052812312 -0.10340074 16645876
0.45031813 -0.057548426 -0.10347673 16645876
0.44899997 -0.048346095 -0.10309983 16710898
0.45075008 -0.043532897 -0.10380581 16644335
0.45231697 -0.036109295 -0.10260292 15196631
0.45724317 -0.073136002 -0.095140018 16051686
0.46044445 -0.076862022 -0.094636932 15327451
0.44878945 -0.062228829 -0.09225478 16645876
0.45220318 -0.066437595 -0.095824495 16514033
0.4480001 -0.054788526 -0.09508086 16711413
0.45000002 -0.059111252 -0.09878201 16645877
0.44764382 -0.045404375 -0.094801888 16644591
0.44999999 -0.042203255 -0.098834693 16643820
0.44830313 -0.037285037 -0.093172051 15789282
0.4520556 -0.033692207 -0.096303791 14605009
0.45511118 -0.027786991 -0.093028069 13092283
0.45488903 -0.072386749 -0.084541351 15656673
0.44699997 -0.063120328 -0.084706247 16514546
0.45144826 -0.068441875 -0.084933214 16250091
0.44406185 -0.054955512 -0.08503595 16645876
0.44350603 -0.04509924 -0.085247211 16644849
0.44577032 -0.035481751 -0.084777154 15394268
0.45072734 -0.031124467 -0.087887697 14210251
0.44900003 -0.02876028 -0.081481844 13158076
0.45302451 -0.026854899 -0.08556775 12763575
0.45366678 -0.072250038 -0.074648783 15196123
0.44577056 -0.063881725 -0.074933514 16316142
0.45100003 -0.06900949 -0.075776145 15788515
0.4390001 -0.052339364 -0.071822278 16711412
0.44115728 -0.055317897 -0.075636849 16645876
0.43870002 -0.044790164 -0.072681315 16644592
0.44044447 -0.044996839 -0.077582076 16644848
0.43873921 -0.037815243 -0.072497815 16117735
0.44181544 -0.034109905 -0.075861633 15131610
0.44528893 -0.027559262 -0.074481532 13223613
0.45050001 -0.024637261 -0.079117492 12171181
0.44900003 -0.070279412 -0.065189533 15196122
0.45218185 -0.071934119 -0.067672856 14866901
0.43900001 -0.060492504 -0.060654528 16513006
0.44371021 -0.064630851 -0.0649359 15920614
0.45000002 -0.069382474 -0.069021821 15393757
0.4384048 -0.0543851 -0.064915121 16645362
0.44000003 -0.058913555 -0.067144655 16514032
0.43536803 -0.045058597 -0.06507884 16644335
0.43661627 -0.035483021 -0.06470269 15591647
0.44025004 -0.031420171 -0.067913204 14473423
0.43885717 -0.029064385 -0.061662491 14342092
0.4428001 -0.026256185 -0.06559442 13158076
0.43881258 -0.060916293 -0.053888258 16051942
0.4428302 -0.065135472 -0.055629682 15327964
0.43462956 -0.054813404 -0.054971553 16513519
0.42899999 -0.044050094 -0.050234206 16709613
0.43178713 -0.044820756 -0.055311754 16644334
0.43313977 -0.034948733 -0.0549464 15722718
0.43735418 -0.027200835 -0.054694708 13684163
0.44040003 -0.024393789 -0.058786225 12829111
0.43749997 -0.062918715 -0.044924308 14998998
0.44050002 -0.065340266 -0.049518373 14933204
0.42844442 -0.051459987 -0.043206055 16512747
0.43221128 -0.055875335 -0.045350518 16117990
0.42683735 -0.045015436 -0.044875324 16644333
0.43000001 -0.049185961 -0.049344663 16776176
0.42713052 -0.036014322 -0.044049397 15986403
0.4305518 -0.032286219 -0.047463004 15131096
0.42875001 -0.02972139 -0.04092104 14802386
0.43439999 -0.025088081 -0.044839062 13092027
0.4390001 -0.018288009 -0.043046478 11382435
0.44000003 -0.016338242 -0.041221783 11316642
0.43592307 -0.062661581 -0.034903497 14209997
0.42661917 -0.052702934 -0.034405857 16249062
0.43211365 -0.057755325 -0.035403844 15393755
0.42339021 -0.04496558 -0.035214517 16578282
0.42321426 -0.03511123 -0.035109475 15854816
0.42641473 -0.027808947 -0.03413434 14012870
0.43298307 -0.023078127 -0.035619415 12631731
0.43733332 -0.018157883 -0.034837712 11185056
0.43433335 -0.061883796 -0.029506294 13748677
0.42363793 -0.052910849 -0.025369735 15591133
0.43100002 -0.058382832 -0.028559815 14473425
0.4179762 -0.043455761 -0.022969492 16250087
0.42067927 -0.045834489 -0.026964065 16381159
0.41740578 -0.03522459 -0.023177009 15789536
0.42052796 -0.03426465 -0.028186448 15789279
0.41866669 -0.028940611 -0.02174511 14736593
0.42387018 -0.025380073 -0.025152033 13355454
0.43111113 -0.021388875 -0.028391821 12171438
0.42528573 -0.01906327 -0.021780973 11185057
0.43350002 -0.018123033 -0.028438361 11053471
0.41821435 -0.051544677 -0.012958527 14933973
0.42031583 -0.052118205 -0.017990358 15064788
0.41595927 -0.045065168 -0.015038368 16051939
0.41411215 -0.034897052 -0.015148346 15854817
0.41716948 -0.026708456 -0.014008205 14013384
0.42109311 -0.022787118 -0.016597394 12698037
0.42190003 -0.018925782 -0.0149421 11711142
0.41652936 -0.051029827 -0.0059297401 14407375
0.40900001 -0.040400688 -0.0011355226 15986660
0.41313455 -0.045081791 -0.0050730458 15525853
0.40857443 -0.034903418 -0.0021630812 15723488
0.41110724 -0.034872752 -0.0073941061 15789281
0.40885714 -0.028991835 -0.00097593677 14868436
0.4141286 -0.025098996 -0.0056434236 13684675
0.41783333 -0.019101581 -0.0070302146 11185056
0.55900002 0.019810505 -2.5239671e-05 12435123
0.55900002 0.021119136 -2.5239671e-05 12698295
0.56533337 0.020472726 -0.0035643643 11053470
0.40784624 -0.042294703 0.0054347157 15591645
0.41128579 -0.045604587 0.0018366865 15262682
0.40670648 -0.035053678 0.005249206 15657695
0.40773711 -0.0260763 0.0057801688 14144969
0.41070002 -0.023614017 0.0019031977 13289917
0.54718184 0.013511578 0.0070164381 12500916
0.55169243 0.016720604 0.0042433967 12566709
0.54850006 0.022649687 0.0089635728 12500916
0.55220836 0.023392797 0.005787814 12500917
0.40396145 -0.042389236 0.015236378 14868180
0.40221068 -0.034999408 0.014921963 15592158
0.40401712 -0.025273608 0.015217848 14210762
0.40766665 -0.019591026 0.012810113 12171692
0.53414285 0.016610645 0.014800045 12238001
0.54500002 0.018038502 0.010182231 12500916
0.5365001 0.022282824 0.017679725 12369330
0.54497439 0.025923405 0.01344615 12435123
0.55000001 0.028504472 0.010275646 12764088
0.54513639 0.032716945 0.016558945 12500917
0.55000001 0.031079592 0.011563205 11514023
0.40100002 -0.041363604 0.022883719 14407118
0.39770895 -0.034367785 0.026447404 15394778
0.40016121 -0.036073539 0.021860031 15591902
0.39801925 -0.026388003 0.027574841 14868434
0.40089855 -0.024171744 0.023469433 14342347
0.39900002 -0.019486146 0.029872103 13552832
0.40331247 -0.018928612 0.023640413 12171692
0.4829616 0.006596311 0.027414022 11974572
0.48566672 0.012002282 0.028496549 11908779
0.49325001 0.016329184 0.029133353 12106158
0.51630771 0.024625836 0.027775556 12237744
0.5230909 0.027112853 0.02669229 12303538
0.53530777 0.026684163 0.021466915 12369330
0.54000002 0.029250359 0.020202013 12369330
0.52600002 0.030954767 0.028297884 12435125
0.53575552 0.035713419 0.025190081 12369331
0.54049999 0.033958308 0.020599965 12369330
0.53743488 0.042458873 0.026449488 12040109
0.39514619 -0.033850305 0.035450876 15000022
0.39546302 -0.024864249 0.035154223 14736850
0.39713642 -0.018591736 0.035215244 12171694
0.47543249 0.0065302388 0.035554737 12237743
0.48061541 0.0069073564 0.031135086 11974572
0.47582358 0.01332676 0.03751909 11842986
0.48278785 0.014062955 0.033158943 11842986
0.49483335 0.018696466 0.031250928 11974572
0.48600003 0.02063665 0.037523303 11777193
0.49641672 0.025831716 0.037164558 11974572
0.50160003 0.025516171 0.033789143 12040365
0.51575005 0.026130706 0.030161213 12171951
0.52000004 0.029384343 0.030409757 12303539
0.49862504 0.03153291 0.038643494 12171951
0.50338894 0.035460539 0.037882768 12369330
0.5151667 0.035135828 0.03474398 12369331
0.52350003 0.033869699 0.032450967 12303538
0.53183335 0.037317205 0.031724095 12369332
0.51599997 0.041928228 0.038454343 12435124
0.52419996 0.043855064 0.037275773 12435124
0.53354168 0.045058977 0.033301231 12369331
0.52833337 0.052119892 0.039554957 12566454
0.53223532 0.052352868 0.036616478 11974318
0.39564997 -0.041274972 0.045872878 14604494
0.39368621 -0.034900669 0.045135405 12828599
0.39291769 -0.024705026 0.045049548 11381924
0.39530262 -0.016391993 0.045787528 12961209
0.40000001 -0.010170911 0.049143314 12171951
0.42100003 -0.00084919872 0.04925942 11908779
0.42425001 0.0023771916 0.049639687 11777193
0.43483338 0.0060870363 0.049009871 12040365
0.44522223 0.0081325509 0.046172086 11777192
0.45900002 0.0087448973 0.042960364 11777191
0.46900001 0.0067395424 0.040602509 11842984
0.47050002 0.0084138568 0.040732369 11908777
0.44628572 0.011488131 0.048930202 11842986
0.45481822 0.014184281 0.047983743 11645606
0.46543479 0.016452391 0.046209808 11842985
0.47229174 0.016367462 0.042217467 11645608
0.47497144 0.023733119 0.046802662 11711401
0.48278949 0.026509592 0.044824831 11974574
0.4935455 0.027366968 0.041359678 11908780
0.48469228 0.031929661 0.048152301 12040367
0.49562505 0.034350235 0.045072064 12106160
0.50276476 0.037483227 0.0422755 12303538
0.49900001 0.041047513 0.049040522 12040367
0.50610715 0.043960202 0.046472777 12303539
0.51267862 0.046592642 0.043994434 12435125
0.50800002 0.050112512 0.049925022 12303539
0.51712507 0.055000585 0.047289014 12435125
0.52318519 0.055465959 0.043562915 12369075
0.51771432 0.061458562 0.048454095 12171952
0.523 0.060162678 0.045277424 11382437
0.3921667 -0.041524593 0.056598019 14670285
0.38758671 -0.033764374 0.056074899 2567719
0.39059097 -0.036428694 0.052681185 4408124
0.38746598 -0.025516052 0.056001637 2633000
0.39054847 -0.023641998 0.051270004 2829864
0.38871428 -0.01911341 0.058155745 5330511
0.39427263 -0.014699591 0.054898378 12434608
0.40000001 -0.010170911 0.052108604 12369330
0.39900002 -0.0092114182 0.058828156 13158331
0.40411851 -0.00587994 0.05584348 12303537
0.413625 -0.001498001 0.054499686 11842986
0.41640005 0.0025925743 0.057177428 11974572
0.42290246 0.0047095655 0.05486533 11974572
0.4329091 0.008710268 0.05321648 12040365
0.42800003 0.010158195 0.059096064 12369330
0.43605354 0.013566271 0.056319453 12040365
0.44200003 0.016695537 0.053992998 11908779
0.44556254 0.022511728 0.058324344 11908779
0.45463639 0.02579567 0.057935849 11842730
0.46587503 0.027344463 0.056207143 11645607
0.47265521 0.026598612 0.052473173 11579814
0.46520001 0.032244951 0.058273468 11645607
0.47471875 0.0333189 0.055015828 12040365
0.48331037 0.036404632 0.053579338 12171952
0.49150002 0.038131692 0.050891437 12237746
0.48658332 0.042401675 0.058164034 12171951
0.49449053 0.045284793 0.055158913 12106159
0.50223082 0.047195718 0.051346101 12106160
0.49611112 0.052295037 0.058041342 12106158
0.50444829 0.054323658 0.054863442 12171952
0.5121001 0.057590581 0.0528998 12435124
0.50750005 0.061351575 0.05938042 12500146
0.5153963 0.064392775 0.055471987 12500404
0.51750004 0.070736445 0.058126938 12697269
0.39343894 -0.043504808 0.065143049 14275531
0.38616511 -0.034385927 0.065025195 3159086
0.39011115 -0.039143689 0.063909605 13421766
0.38496658 -0.025108304 0.064868681 2567205
0.38733333 -0.017839193 0.065310381 8092786
0.39368826 -0.012670486 0.064823791 12763829
0.39754552 -0.0074626165 0.066244617 12764087
0.40201443 -0.0034096371 0.064121939 12566709
0.4068149 0.0021648621 0.066006534 12303537
0.41348445 0.0068563521 0.064541459 12303537
0.42100003 0.0091703581 0.061412811 12435123
0.41700003 0.012081703 0.068139903 12237744
0.42434099 0.014909326 0.065967433 12369330
0.43236849 0.016898109 0.062461883 12303537
0.42840004 0.0211995 0.068978414 12303537
0.43368515 0.023530932 0.066034049 12369074
0.44471428 0.025487358 0.062097937 12171951
0.45200002 0.028454002 0.061617427 12171694
0.43900001 0.030973408 0.069864243 12698295
0.44645455 0.032074187 0.068006627 12500916
0.45568669 0.035212778 0.064915255 12171951
0.46100003 0.036845081 0.061763037 11974574
0.45850003 0.042636629 0.06885244 12566709
0.46382356 0.044158343 0.066908494 12500916
0.47250003 0.043286309 0.063572422 12237744
0.48500001 0.047336027 0.063044094 12237744
0.49000001 0.048910417 0.06077411 12040365
0.47900003 0.051737148 0.069501929 12435123
0.48608014 0.054098077 0.066425592 12303538
0.49292588 0.056237619 0.062369697 12106158
0.48800004 0.060706165 0.069665395 12369332
0.49518755 0.063817509 0.067463413 12303539
0.50431252 0.065355368 0.063944891 12303537
0.51207149 0.067725979 0.061539471 12566195
0.49850002 0.070764825 0.069413252 12632503
0.5041818 0.072914273 0.067892291 12566709
0.51353335 0.072137982 0.062323902 12698295
0.38900003 -0.040853515 0.078298852 13616833
0.39276469 -0.043991003 0.074786291 14275019
0.37883332 -0.031360861 0.079356283 2370341
0.38418174 -0.034818266 0.074823648 4803652
0.37866676 -0.025329778 0.079384558 2106912
0.38205665 -0.024852797 0.074295707 2369570
0.38574398 -0.016878771 0.075223148 7895406
0.39182219 -0.011977863 0.074440062 12697780
0.39606667 -0.0064862007 0.075379498 12566709
0.40049994 -0.0017132758 0.074236043 12369074
0.40567076 0.0035963038 0.075558901 12040365
0.41130304 0.0086257318 0.07409139 11974572
0.41584289 0.013646554 0.075103298 11909036
0.42133346 0.018639531 0.075089708 11908779
0.42634693 0.022997335 0.075587019 11974572
0.43133339 0.027512113 0.074067064 12171951
0.4358387 0.032004323 0.075642332 12171951
0.44420004 0.036310334 0.075026482 12237744
0.45275003 0.038701463 0.071255066 12566709
0.44900006 0.040538371 0.077912554 12040365
0.45489487 0.044868212 0.074767023 12369330
0.46200001 0.049359016 0.071359113 12500918
0.45900002 0.050651461 0.078419767 12106158
0.46377781 0.052810773 0.07645037 12237744
0.47395006 0.056578256 0.074647591 12435123
0.48220003 0.057802361 0.07169266 12435123
0.47600001 0.060327712 0.07909555 12369330
0.48600006 0.064778179 0.076070666 12500916
0.49223998 0.067043453 0.072341077 12500916
0.48900002 0.071133383 0.078966208 12566709
0.49338293 0.074085355 0.076029435 12632502
0.50150001 0.07647144 0.072764292 12698295
0.51100004 0.079118699 0.070556283 12829881
0.49840003 0.081835806 0.078151107 12566711
0.50335294 0.083963357 0.076633073 12566710
0.51000005 0.083739541 0.073999964 12961467
0.38875678 -0.042107686 0.086168677 13748675
0.3906154 -0.044822995 0.083639666 14406349
0.37825593 -0.032168329 0.085094161 2304548
0.38331816 -0.037017111 0.084845692 7236967
0.37763724 -0.024958091 0.085079826 1843997
0.37797377 -0.018156234 0.085855909 3026984
0.38484377 -0.015284729 0.082556769 9935248
0.39124143 -0.011652305 0.085319549 12631732
0.39492232 -0.0057395184 0.085248493 12434610
0.40000004 -0.0010409415 0.082385771 12368817
0.40439582 0.004112917 0.084695928 11842473
0.41088891 0.0095382659 0.085166417 11381923
0.41575336 0.014213948 0.084758483 11250849
0.42069232 0.019227631 0.083920367 11119263
0.4256129 0.023416644 0.082710028 11316642
0.43203846 0.028073061 0.084710754 11053214
0.43452385 0.031579733 0.083538674 11316643
0.44528574 0.037827265 0.08218307 11777450
0.44900003 0.040438265 0.08284279 11448485
0.45415559 0.045453928 0.083470754 11514022
0.45900002 0.050651461 0.081643343 11974572
0.46344736 0.054235585 0.08351443 11514021
0.47000003 0.058467001 0.082499668 11974572
0.47633338 0.060743745 0.081378035 12106158
0.48600003 0.066574529 0.083035313 12106158
0.4904286 0.06838917 0.088382386 11250849
0.48866668 0.071084894 0.081200339 12303537
0.49303633 0.074561723 0.085310049 11777193
0.5 0.079756565 0.088936105 10724505
0.49766669 0.081586748 0.08166112 12566709
0.50412816 0.085686326 0.085528195 11777193
0.51000005 0.089709148 0.089520916 11053470
0.50711113 0.090784289 0.084533893 12237745
0.51000005 0.092096984 0.087730035 10724505
0.3875443 -0.043425463 0.094603963 13091002
0.39000002 -0.047349516 0.090825595 14209483
0.37626478 -0.032836419 0.095083892 2435875
0.38318607 -0.037891023 0.093857788 8881020
0.3745147 -0.025054257 0.094417244 2172960
0.37528124 -0.017157197 0.094449311 4803909
0.38528571 -0.012752471 0.093456268 11842988
0.39050001 -0.011300253 0.092129059 12435124
0.39245832 -0.0068902238 0.092522182 11513766
0.40607691 0.003355118 0.091679879 10460821
0.41367859 0.0078876177 0.09388791 9342082
0.41697139 0.012826859 0.093747422 9079681
0.42600003 0.020083463 0.090732671 10132370
0.43566668 0.026007809 0.090738475 9671304
0.48700002 0.048420954 0.098404549 9276804
0.47000003 0.051865332 0.090201616 10395542
0.48651445 0.05534802 0.097309165 9408389
0.48803708 0.062828541 0.095736444 9539976
0.49083996 0.067450427 0.094935149 9737611
0.49559262 0.073733442 0.093093172 10329747
0.50200009 0.078313977 0.095757753 10000783
0.50614697 0.0837759 0.093932875 10395539
0.51020014 0.088948376 0.094652414 10658711
0.5110001 0.091559812 0.09388335 10658711
0.37800002 -0.032619271 0.10130499 2304291
0.38261294 -0.034458183 0.1062305 3290671
0.37838894 -0.025418591 0.10155695 2173215
0.38500008 -0.026673704 0.10945955 857356
0.37690002 -0.017350804 0.10100985 3487791
0.48700002 0.048122365 0.10242198 8947837
0.48700014 0.054216336 0.10226813 9211267
0.48800004 0.062421545 0.10051064 8881530
0.49125001 0.067437641 0.10060413 9145216
0.49700001 0.072301023 0.10120083 8092271
0.50399995 0.07803604 0.1008558 8421238
0.50650001 0.081386857 0.10076381 8421752
0.37396669 -0.032810707 0.11697135 1843740
0.38234088 -0.032746121 0.11259439 2369827
0.372381 -0.025267359 0.11721746 726541
0.38418755 -0.02784048 0.11304829 791820
0.37128079 -0.017339746 0.11579874 1841680
0.36863059 -0.032448884 0.12676457 1514773
0.37056658 -0.032555815 0.12276176 1383700
0.36843112 -0.025843762 0.12715687 1383445
0.37068447 -0.024211515 0.12327407 1712924
0.37232673 -0.016432501 0.12551691 1317136
0.35556927 -0.032372314 0.13611335 1449237
0.36675 -0.03089267 0.13132714 2304801
0.37046665 -0.033472825 0.13215588 2369571
0.35573024 -0.025393803 0.13621441 1251858
0.36492109 -0.02443119 0.13169785 1580823
0.35502532 -0.016875636 0.13692938 1448724
0.36502227 -0.016619209 0.13408847 988686
0.37212494 -0.016126126 0.13146971 1382931
0.34776786 -0.032335371 0.14714648 1449492
0.35153067 -0.0328888 0.14214614 1712151
0.34811673 -0.024984771 0.14694718 1646357
0.35110122 -0.024774166 0.14201961 1711638
0.34794378 -0.016201351 0.14694135 1645845
0.35096163 -0.016856672 0.14241897 1580053
0.34373412 -0.032464806 0.1550086 1777944
0.34233335 -0.029541226 0.15759163 2106395
0.33786365 -0.032050192 0.16740757 2106911
0.34024388 -0.032177851 0.16266687 2106654
0.33663109 -0.024919197 0.16663954 1975068
0.34004173 -0.025197916 0.16267574 1974811
0.33716515 -0.01595756 0.16630673 1711639
0.33999997 -0.017116416 0.16264193 1711639
0.33271608 -0.032301061 0.17500106 2698790
0.33215058 -0.024917869 0.1768595 2370339
0.33225256 -0.015379818 0.17627057 1975068
0.8115201 0.13514549 0.24503821 10066318
0.81800008 -0.22952937 0.34944078 2171170
0.8304286 -0.19422691 0.34442821 10263956
0.80685717 -0.22748007 0.35722819 2699304
0.81396163 -0.22509354 0.35511258 2435110
0.81700003 -0.21968572 0.35953411 658953
0.80621207 -0.22536138 0.36502355 2107424
0.81100005 -0.22091903 0.36069086 2698279
0.80825007 -0.21922502 0.36608931 2567719
0.81447619 -0.21700303 0.36549956 2303778
0.80689991 -0.22546789 0.37523863 1252117
0.80839998 -0.2192657 0.37467572 2041376
0.81403577 -0.21506783 0.37517017 2304036
0.80680627 -0.22504619 0.38502267 857615
0.80799991 -0.21714687 0.38619155 1251606
0.81370378 -0.21286452 0.38453355 1843488
0.82000005 -0.21089421 0.38005066 3420979
0.81800008 -0.20910163 0.3886961 2764077
0.80467659 -0.22512525 0.39438796 791823
0.80587876 -0.21503398 0.39522696 988948
0.81050003 -0.21034831 0.39177489 1383193
0.80825007 -0.20976436 0.39636338 1054484
0.81585711 -0.20846121 0.39545208 1645594
0.80489659 -0.22507131 0.4052155 726799
0.80599993 -0.21533102 0.40498418 923153
0.81000006 -0.21021855 0.40859985 923408
0.8083334 -0.20978598 0.40302905 923409
0.81533343 -0.20777984 0.40460464 988431
0.80746669 -0.22569086 0.41381353 792078
0.81016666 -0.22385377 0.41848317 857615
0.8083334 -0.2167248 0.41217503 857615
0.8110556 -0.21449812 0.41609487 857359
0.81666678 -0.20828114 0.41419125 1053710
0.81207693 -0.22530548 0.42522299 594443
0.81429631 -0.21429279 0.42492336 988175
0.81800008 -0.20910163 0.42189178 1052684
0.8226667 -0.20451033 0.42515177 5921877
0.81245446 -0.22526038 0.43476367 659980
0.81570834 -0.21551435 0.43447435 922383
0.82000005 -0.21137412 0.4366799 724489
0.81381488 -0.22524154 0.44485232 791566
0.8175 -0.21732979 0.44319552 856591
0.82080001 -0.21366087 0.44588098 2961709
0.8167693 -0.22711994 0.4537124 857103
0.82061541 -0.22302137 0.45614529 857103
0.82366675 -0.21472402 0.45502397 6251356
0.81833339 -0.2289838 0.46165475 987404
0.8221249 -0.22406484 0.46379465 4606273
