# .PCD v0.7 - Point Cloud Data file format
VERSION 0.7
FIELDS x y z rgb
SIZE 4 4 4 4
TYPE F F F U
COUNT 1 1 1 1
WIDTH 974
HEIGHT 1
VIEWPOINT 0 0 0 1 0 0 0
POINTS 974
DATA ascii
0.41649997 -0.14083867 -0.092729956 16052462
0.41547585 -0.13469806 -0.094354361 16448246
0.41578597 -0.12504528 -0.094427675 16185071
0.41788229 -0.11733136 -0.09374278 15921129
0.42125496 -0.11301712 -0.095776521 14671317
0.42434293 -0.10580954 -0.092604935 14934490
0.42533335 -0.098437034 -0.090629078 13816008
0.41500002 -0.14107601 -0.08483886 16382453
0.4134897 -0.13481429 -0.084642179 16645880
0.41399992 -0.12488446 -0.084825821 16514035
0.41710991 -0.11593953 -0.084691837 16381935
0.42053854 -0.11141292 -0.086729929 16250351
0.41900003 -0.10972358 -0.080451615 16316142
0.42247182 -0.10477278 -0.084984951 16184814
0.42656624 -0.095633969 -0.084561087 15987692
0.43000001 -0.090659425 -0.083469674 16053228
0.43217182 -0.085624039 -0.083150744 16184815
0.43737218 -0.075045392 -0.082287811 15921643
0.43900007 -0.069356479 -0.081850976 15526115
0.44128579 -0.064709276 -0.080891564 14670550
0.41207144 -0.14163782 -0.07426431 16316661
0.41141728 -0.13494097 -0.074734949 16580087
0.41193491 -0.12494183 -0.074723721 16513779
0.41545305 -0.11501884 -0.074876584 16184556
0.4182778 -0.10820038 -0.07452023 15921384
0.42091781 -0.10358167 -0.075406849 15987177
0.42586482 -0.095474176 -0.07497976 15855591
0.43000004 -0.090458103 -0.076020561 15789798
0.43211195 -0.084850036 -0.074970841 15921385
0.43661854 -0.075085193 -0.075005367 16052972
0.43900007 -0.069146872 -0.074934244 16250350
0.44152895 -0.063969508 -0.074869335 16250095
0.44420323 -0.05539085 -0.074014939 16316145
0.44487804 -0.046166081 -0.072721332 15986925
0.44425002 -0.038595267 -0.070999727 14999518
0.41137493 -0.14237733 -0.064563751 16447989
0.40873358 -0.13385949 -0.063203864 16580088
0.41024998 -0.1360321 -0.06751404 16645880
0.40861562 -0.12676023 -0.063080505 16645623
0.41090313 -0.12314589 -0.066035829 16579572
0.41461161 -0.11486656 -0.06508965 15987178
0.41846433 -0.10863777 -0.064955153 15855849
0.42084885 -0.10386965 -0.065237522 15855592
0.42543221 -0.095051467 -0.065048531 15789800
0.43000001 -0.09045811 -0.062934272 16052460
0.43179023 -0.084971592 -0.065166548 16118765
0.43555313 -0.074826248 -0.065096051 16382451
0.43783846 -0.065936543 -0.063575014 16645881
0.44051602 -0.063426673 -0.067518301 16580088
0.43837503 -0.055274084 -0.061338753 16711673
0.44216937 -0.054970745 -0.066417098 16645882
0.4390001 -0.045318715 -0.061138153 16645880
0.44254172 -0.044807669 -0.066215709 16645625
0.43900001 -0.039938368 -0.060654528 16579060
0.44358987 -0.035158478 -0.065047711 15855594
0.44742852 -0.025509408 -0.063372038 15197662
0.45000002 -0.020923398 -0.06006743 15066845
0.45365307 -0.015793428 -0.062763974 13948111
0.45780006 -0.0079947067 -0.061429083 13290441
0.46200001 -0.0027298015 -0.060587674 13816010
0.4083612 -0.14228223 -0.053528719 16514294
0.41053334 -0.14332318 -0.058580194 16514296
0.40750533 -0.13490149 -0.054919742 16645880
0.4074865 -0.12496831 -0.054763909 16513780
0.41033337 -0.12058168 -0.059255645 16513521
0.40888888 -0.11920043 -0.052665878 16250350
0.41345832 -0.11474146 -0.055310987 15921385
0.41767734 -0.10699208 -0.054461017 16184300
0.42076007 -0.10249945 -0.055593506 16184044
0.42463955 -0.095204026 -0.055183183 16250865
0.42731756 -0.085713752 -0.053709384 16645880
0.43028128 -0.083527789 -0.057908114 16580087
0.42814821 -0.075477235 -0.051212016 16711673
0.43164796 -0.07491944 -0.056428414 16645881
0.4285 -0.065063819 -0.050677817 16711673
0.43212861 -0.065109141 -0.055666864 16711673
0.42870584 -0.055589207 -0.050554216 16711673
0.43245959 -0.054870449 -0.055492744 16711673
0.42900002 -0.048067283 -0.05023421 16711673
0.43347123 -0.044891309 -0.054970846 16645880
0.43627524 -0.035879888 -0.05432117 16250095
0.44078946 -0.032875676 -0.057969835 15789801
0.43849999 -0.028471641 -0.050962105 15526626
0.44473752 -0.02511842 -0.055469055 15132381
0.45000002 -0.020923398 -0.05901397 14869466
0.44817394 -0.017689111 -0.052298833 15263711
0.45268187 -0.014218245 -0.055998128 15066846
0.45696551 -0.0062271766 -0.054415368 15066846
0.46176192 -0.0022160809 -0.056955639 14935003
0.45900002 0.00068594242 -0.050523505 15527396
0.46359503 0.00475412 -0.055074159 15066332
0.46424091 0.015367472 -0.053818364 15132382
0.46516284 0.024867905 -0.053304959 15132382
0.46482152 0.034542214 -0.052369583 15461603
0.46312499 0.044328827 -0.051452339 15461091
0.46425003 0.054359287 -0.05069318 15592675
0.46719998 0.062497329 -0.050332379 15527142
0.47000003 0.06809444 -0.050909102 12500663
0.47150004 0.071347766 -0.05079563 11841964
0.40790346 -0.14362989 -0.044637918 16316660
0.40466985 -0.13486874 -0.045021452 16645881
0.40489367 -0.12482987 -0.045135438 16448244
0.40785468 -0.11777354 -0.04428843 16250095
0.41228002 -0.11309177 -0.045292743 16118766
0.4166055 -0.10523321 -0.045072813 16316658
0.42000002 -0.10039897 -0.048442919 16447473
0.41850007 -0.097872414 -0.04207205 16580088
0.42121702 -0.094249912 -0.045656413 16645623
0.42268273 -0.085052133 -0.045091514 16711673
0.4235104 -0.075124398 -0.044719849 16645880
0.42426673 -0.065137632 -0.044724993 16711673
0.42394546 -0.055062149 -0.04461715 16711673
0.42448315 -0.045102656 -0.04469597 16645880
0.42999998 -0.041132864 -0.049344663 16514036
0.42581144 -0.036024932 -0.043246787 16250865
0.43160978 -0.033667289 -0.047536679 15856105
0.42814288 -0.028640451 -0.040827285 15395556
0.43481427 -0.025210137 -0.044495359 15198176
0.44100001 -0.021879733 -0.048200089 15066590
0.43827274 -0.018139044 -0.04190081 15066077
0.4442572 -0.014482778 -0.045403015 15263713
0.45033336 -0.010747666 -0.049218386 15197918
0.44689664 -0.0057644555 -0.042158909 15592165
0.45288378 -0.0046562552 -0.047092609 15395298
0.44900003 0.0022476739 -0.041013841 15460579
0.45486569 0.0047743442 -0.045169871 15461347
0.46050003 0.0081007248 -0.049206749 15264225
0.45654055 0.015079845 -0.043617714 15263969
0.46203133 0.015735134 -0.048324917 15198176
0.45582929 0.024873141 -0.04232147 15527142
0.46259534 0.025134578 -0.047829714 15395556
0.4558959 0.035030745 -0.042786155 15789800
0.46267575 0.034953911 -0.048179734 15724521
0.45631999 0.044802818 -0.043079138 15395555
0.46127275 0.045207057 -0.048321415 15395556
0.45817393 0.05345441 -0.041993108 15131614
0.46260384 0.055525795 -0.046511073 15132383
0.46570003 0.064931192 -0.044633728 15132126
0.47000003 0.068919644 -0.048983615 15066846
0.46854165 0.073094472 -0.042434353 15132384
0.4703244 0.075141802 -0.045581553 14737627
0.47033337 0.081752956 -0.041617483 14014160
0.40506902 -0.1431751 -0.034701236 16316402
0.40175521 -0.13480078 -0.035109598 16645880
0.40149131 -0.12478743 -0.035185665 16579830
0.40600926 -0.11601292 -0.034516867 16184557
0.41090915 -0.11162603 -0.037492823 16250351
0.40883335 -0.10929417 -0.031283535 16315888
0.41356364 -0.10497929 -0.03540669 16448244
0.41596666 -0.095132723 -0.035082594 16645880
0.41505691 -0.084860556 -0.034833703 16711673
0.41560924 -0.075113937 -0.034732092 16645880
0.42000005 -0.073606022 -0.039348066 16711673
0.41598657 -0.065030523 -0.034124315 16711673
0.42052636 -0.065097496 -0.038931634 16711673
0.41611838 -0.054814689 -0.034341045 16711673
0.42025006 -0.055881213 -0.039064225 16711673
0.4155556 -0.045034669 -0.034594782 16645880
0.4202728 -0.044225302 -0.039284233 16645880
0.41670367 -0.035882369 -0.032864735 16381937
0.42197961 -0.033828143 -0.037238754 15987437
0.41800001 -0.029220967 -0.030353783 15527142
0.42468432 -0.02576953 -0.034419727 15132640
0.43141183 -0.022075418 -0.038280249 15066334
0.42771429 -0.017810374 -0.031560514 15461092
0.43367106 -0.014651709 -0.035228562 15526885
0.44000003 -0.010501304 -0.038818341 15789544
0.43578261 -0.0055334689 -0.032785531 15921387
0.44262853 -0.0043812096 -0.037771512 15658215
0.43433335 0.0044264426 -0.031943489 15658215
0.44505996 0.0048339716 -0.03753756 15460836
0.43427667 0.014829163 -0.032431889 15263970
0.44450006 0.014872058 -0.037422586 15329250
0.43597305 0.02486142 -0.032049563 15132384
0.44483343 0.024903867 -0.036911137 15263970
0.4384546 0.032896057 -0.031372838 15132638
0.44445163 0.035267882 -0.035341267 15198177
0.45000002 0.03859698 -0.038998269 15592935
0.44676363 0.044400968 -0.033399172 14737881
0.45136005 0.046599019 -0.037596151 14803674
0.44900003 0.050599061 -0.03050267 14606294
0.45474669 0.055030528 -0.035216268 14474708
0.45845157 0.06253618 -0.033673592 14803673
0.46186963 0.0666501 -0.035823468 15066588
0.46546668 0.075009257 -0.034694552 15263970
0.47000003 0.079372294 -0.039631248 14474711
0.467619 0.081524149 -0.034745321 14868955
0.47000003 0.081847921 -0.03935618 14935260
0.40323636 -0.14330624 -0.025080759 16316402
0.39815393 -0.13319618 -0.023950342 16580087
0.40023902 -0.13672987 -0.026538543 16580087
0.39750955 -0.1254334 -0.024282087 16645623
0.40004167 -0.12282535 -0.028581506 16513780
0.39828572 -0.11881677 -0.021064071 16645364
0.40303382 -0.11489917 -0.025275832 16381936
0.40750027 -0.1059253 -0.023968337 16514037
0.41116211 -0.10280351 -0.027856367 16645880
0.40848851 -0.094784252 -0.021702688 16711673
0.41171035 -0.095200755 -0.027093673 16645880
0.40796793 -0.084730022 -0.023251055 16711673
0.41116664 -0.085672095 -0.028209487 16711673
0.407754 -0.075159431 -0.023445694 16645880
0.41114634 -0.074846886 -0.028519779 16711673
0.40776202 -0.06500686 -0.023477782 16645880
0.41143897 -0.065008923 -0.028399659 16711673
0.407094 -0.054859482 -0.02344718 16645880
0.41167504 -0.055210125 -0.028571447 16711672
0.40675688 -0.044994593 -0.023935283 16645879
0.41106895 -0.044995707 -0.02892286 16645878
0.40724501 -0.036150381 -0.02280538 16316657
0.41257152 -0.034147099 -0.027083261 16119278
0.4086 -0.028371882 -0.020297285 15724008
0.41503569 -0.025284756 -0.024192933 15461349
0.42087501 -0.023139097 -0.028716225 15263970
0.41628584 -0.015294419 -0.022089969 16053230
0.4236809 -0.014862658 -0.026974851 15790314
0.41605404 -0.0050269873 -0.021924894 15856107
0.4235 -0.0056056455 -0.02614161 15724521
0.43000004 -0.0064038597 -0.029211909 15921130
0.41691488 0.0045199748 -0.022179604 15263970
0.42368886 0.0054883915 -0.026808394 15461349
0.41828576 0.012166986 -0.021002436 14671833
0.4241316 0.014981288 -0.025023323 14803675
0.43000001 0.018510424 -0.02896025 15066591
0.42687806 0.023639299 -0.022932649 14474709
0.43140006 0.026098398 -0.02682694 14737883
0.43513796 0.034657348 -0.024840115 14672087
0.44000003 0.038941 -0.029547907 14803673
0.43863162 0.041270562 -0.022881694 14606294
0.4427937 0.04558121 -0.025527388 14474708
0.44766656 0.053350572 -0.024128247 14539987
0.4517667 0.057364643 -0.027204219 14606293
0.45499998 0.064973019 -0.024673201 15330016
0.46000001 0.069068573 -0.029096212 15460833
0.45812494 0.074420877 -0.022464667 15263969
0.46172976 0.075962424 -0.02713483 15329249
0.45900002 0.081168041 -0.021296363 13750218
0.46263158 0.081604958 -0.026532793 13486789
0.39883336 -0.14116724 -0.011378188 16447731
0.40111318 -0.14352416 -0.015702093 16184560
0.39663443 -0.13482569 -0.014751866 16514294
0.40000001 -0.1393951 -0.019682612 16645880
0.39517501 -0.12488542 -0.014856736 16579829
0.39695948 -0.11604441 -0.014241855 16316400
0.40076309 -0.11185863 -0.016810214 16316144
0.40378559 -0.10516573 -0.014926278 16514294
0.40547001 -0.095076889 -0.014740502 16645880
0.39900002 -0.081134513 -0.010292743 16711673
0.40303791 -0.084921606 -0.015152595 16645880
0.39861119 -0.074576154 -0.010697851 16711671
0.40241849 -0.07496313 -0.015919507 16645879
0.39850008 -0.065173618 -0.010746878 16645878
0.4024193 -0.064973578 -0.016074004 16645879
0.39800003 -0.053913094 -0.011717925 16645878
0.40197435 -0.055643771 -0.016506566 16645879
0.39677787 -0.045002297 -0.012540086 16645877
0.40136364 -0.044971623 -0.017874813 16645878
0.39700013 -0.035698101 -0.011989653 16448242
0.40225005 -0.034597367 -0.017127914 16250864
0.39804763 -0.025782123 -0.010801481 15987949
0.40410256 -0.025225993 -0.015265439 15790314
0.41087505 -0.021627843 -0.018895643 15658728
0.39852393 -0.014575181 -0.010725252 16053484
0.40390623 -0.01473324 -0.014672718 16118766
0.41155562 -0.01506848 -0.018860657 16184816
0.39900002 -0.0087443851 -0.010292743 15329763
0.40436244 -0.0048390343 -0.013473956 15460836
0.41156521 -0.004726843 -0.018619597 15790314
0.40780002 0.0029754944 -0.01252688 14408661
0.41237149 0.0060810316 -0.016312439 14540247
0.41632056 0.014350144 -0.014543104 14211282
0.42059097 0.018620597 -0.017385406 14211282
0.41900003 0.02073434 -0.010808671 14540247
0.42355177 0.024935843 -0.015240289 14408660
0.42774999 0.031850185 -0.013164422 14737626
0.43230435 0.036170095 -0.015482757 14737881
0.43721426 0.044334188 -0.014134242 15000539
0.44094998 0.048093434 -0.017570287 14934489
0.43872228 0.053949371 -0.010861325 15329762
0.44395781 0.055217728 -0.015987141 15000797
0.44616061 0.064062178 -0.01387086 15329763
0.45154551 0.066889115 -0.017559828 15461604
0.44875002 0.071319327 -0.011838891 15395299
0.45448497 0.075193681 -0.015566864 15329763
0.45663643 0.080808543 -0.016642908 13224384
0.39845166 -0.14162481 -0.0042016162 16513267
0.4000856 -0.14501825 -0.0045130197 15920617
0.39538378 -0.13501698 -0.0046502524 16447987
0.39219308 -0.12481693 -0.0046842997 16514294
0.39420301 -0.11486845 -0.0047254642 16448499
0.39736626 -0.10630634 -0.0027990048 16580085
0.40064409 -0.10361061 -0.0068400535 16645879
0.39802134 -0.094201393 -0.0018832148 16645878
0.40098438 -0.095708005 -0.0067398972 16646135
0.3959794 -0.084675983 -0.0043035652 16645878
0.40010005 -0.088477001 -0.0087289922 16711672
0.39462486 -0.075078025 -0.0046585947 16645878
0.3941524 -0.065009303 -0.0046231924 16645878
0.38900003 -0.051781386 -1.7563922e-05 16580341
0.39320338 -0.055136561 -0.0047314237 16645878
0.38865626 -0.04462903 -0.00098490086 16514291
0.39226419 -0.045145158 -0.0059993067 16580084
0.38810641 -0.035077371 -0.0015278291 16382705
0.39238358 -0.034952324 -0.0066046021 16447986
0.38802084 -0.025571564 -0.001571761 16119533
0.39334723 -0.024708219 -0.006626226 16053484
0.38886663 -0.018080447 -0.00080679305 15724776
0.3938112 -0.014497172 -0.0051641753 15658727
0.39615858 -0.0061420673 -0.0035775471 14803162
0.40118751 -0.0026259378 -0.0071231034 14408918
0.39820001 0.0010625825 -0.00039113761 14803419
0.40497273 0.0051221862 -0.0050891447 14343125
0.41000003 0.0097309807 -0.009616686 14342868
0.40717512 0.014025539 -0.0018826544 14935005
0.41319126 0.015704157 -0.0067101121 14606040
0.40700006 0.02490449 -0.00049594423 15197407
0.41503236 0.024377719 -0.0048101237 15000542
0.42123085 0.0266139 -0.0087813595 14869212
0.40690002 0.033761464 -0.00030491271 15329505
0.41382051 0.035130583 -0.0033533748 15197920
0.42404553 0.033487078 -0.0081026815 15000798
0.43000001 0.03889484 -0.0090791546 15330018
0.40900001 0.040825225 -1.8466952e-05 15198431
0.41325 0.045076083 -0.0021359501 15198174
0.42487499 0.045145452 -0.0056171436 15198431
0.43450001 0.046308998 -0.0083286725 15132638
0.40862498 0.057168338 -0.00025781908 15526626
0.41392308 0.052985437 -0.0018884421 15263711
0.42328572 0.055339988 -0.003985465 15263711
0.43580562 0.055571139 -0.007732485 15198175
0.40800002 0.063648805 -0.00049628207 15263712
0.42300001 0.061532553 -0.0029898509 15328993
0.43560529 0.064012825 -0.0066820211 15263713
0.44140005 0.068138786 -0.0091133807 15263970
0.40800002 0.070812181 -1.8421801e-05 15527396
0.44500002 0.071679406 -0.0087029273 15000799
0.45200002 0.075804599 -0.0095436694 14606040
0.39709261 -0.1431517 0.0054510352 16381424
0.40000004 -0.14606701 0.0017377029 16117483
0.39304486 -0.13500585 0.0050756242 16316144
0.38859802 -0.12422489 0.005851096 16448500
0.39023528 -0.12798594 0.0025613559 16382707
0.38852248 -0.11614377 0.0074200109 16514292
0.39109528 -0.1137038 0.0033951364 16514548
0.38900003 -0.10884917 0.0096961008 16251376
0.39327571 -0.10508982 0.0049566245 16580342
0.39422828 -0.095150903 0.0050602709 16645879
0.38840479 -0.083289795 0.0079907514 16580084
0.39184055 -0.085756987 0.003926211 16645878
0.3872093 -0.074679837 0.006741934 16580084
0.39082763 -0.075593874 0.0017479653 16645878
0.38688976 -0.065041363 0.0062674135 16645877
0.39004996 -0.065116182 0.001306351 16645878
0.38609633 -0.05502183 0.0054546953 16645621
0.39000002 -0.058305483 0.0008953879 16711671
0.38371766 -0.04492303 0.0054443264 16448242
0.38286784 -0.034833081 0.0053475113 16185069
0.38283452 -0.024968462 0.0053468435 15724776
0.38499135 -0.015283186 0.0055455598 15330020
0.39025 -0.011521325 0.0011242111 15066848
0.38681686 -0.0057524387 0.007385788 15198434
0.39218751 -0.0046873149 0.0025611187 15066591
0.38761365 0.0044594179 0.0085791945 15132384
0.3935231 0.0042923214 0.0039974381 15066591
0.40019998 0.0076255724 0.00091880577 15132384
0.38868964 0.014245875 0.0092066256 14934492
0.39349994 0.014628297 0.0052186297 15132128
0.40184999 0.015936954 0.0014854918 15000798
0.38900003 0.02152642 0.0099996524 15197407
0.3943246 0.025055978 0.0064338576 15329249
0.40203226 0.024902275 0.0018305725 15263457
0.39517325 0.034812711 0.0064365626 15460834
0.40196434 0.03552071 0.0020284855 15395041
0.39509252 0.044829588 0.0072894315 15395299
0.40514278 0.044949625 0.0024395087 15395297
0.41000003 0.048603587 0.00094130525 14935259
0.39677277 0.054573905 0.0076632295 15461090
0.40391213 0.055283669 0.0031565127 15329760
0.41000003 0.050043311 0.00094130525 14672087
0.39783344 0.064198531 0.0085566966 15789799
0.40356746 0.065060824 0.0041435375 15592421
0.39900002 0.070651241 0.009322647 15658215
0.40388164 0.07437779 0.0057570576 14934748
0.40360004 0.081953526 0.0092409719 13617095
0.39524385 -0.14406088 0.01482769 16184303
0.38899997 -0.13089465 0.017171068 16315889
0.39176401 -0.13552016 0.01433478 16447730
0.38675979 -0.12469732 0.015291538 16382450
0.38562393 -0.11492592 0.015286754 16382962
0.38743603 -0.1053056 0.015905458 16580341
0.39047831 -0.10312758 0.010950954 16645878
0.38768414 -0.094608858 0.016312554 16645878
0.39065629 -0.095929295 0.011069787 16645878
0.38500875 -0.084805772 0.015253683 16645877
0.37900001 -0.070856899 0.019502295 16447728
0.38257757 -0.074978843 0.015189463 16514034
0.3788572 -0.06433779 0.018829506 16316140
0.38174459 -0.065152481 0.014084253 16513776
0.37840003 -0.054187771 0.017585581 16184555
0.38110751 -0.055646181 0.013046863 16579312
0.37806758 -0.044758245 0.016279051 16053226
0.380375 -0.046015173 0.01161388 16381933
0.37743357 -0.035042074 0.015300998 15921897
0.38000005 -0.03714072 0.010756727 16316398
0.3772721 -0.025171462 0.015229388 15461603
0.38000003 -0.021820053 0.010806148 15724775
0.37759498 -0.015250741 0.016639294 15263968
0.38066661 -0.014367152 0.012033312 15264225
0.37824008 -0.0057740374 0.017797127 15001054
0.38171837 -0.0048199892 0.013205196 15329763
0.37883341 0.0037698874 0.019050095 14803419
0.38228446 0.0050915973 0.01459481 14934749
0.37900001 0.012544207 0.019502295 14276818
0.3833878 0.015235116 0.015046856 14803163
0.38466951 0.024996396 0.015366117 15132383
0.39033338 0.027134759 0.010236816 15395041
0.38574016 0.034927018 0.015981149 15263968
0.39114824 0.035432026 0.01076585 15329760
0.38682234 0.044899374 0.016565556 15198431
0.39137504 0.045342721 0.01129547 15330017
0.3879821 0.054412846 0.017722676 15395553
0.39214492 0.055555265 0.012722656 15527140
0.38874072 0.063358292 0.018856866 15658726
0.39298964 0.06529358 0.013865323 15724264
0.39424461 0.074590474 0.015459892 15263970
0.40043753 0.077644467 0.011230366 14868955
0.395087 0.081999682 0.017022939 15198433
0.40140003 0.082006961 0.01175626 15526117
0.39339739 -0.14392358 0.024859719 16184045
0.38843945 -0.13331528 0.025827795 16513008
0.39070734 -0.13751879 0.023448724 16579315
0.3850356 -0.12481139 0.025289714 16118764
0.38257387 -0.11474884 0.024937119 16382705
0.38293684 -0.10500565 0.025108874 16580341
0.3832137 -0.095132373 0.025060223 16645877
0.37822458 -0.082965374 0.027194446 16316141
0.38120285 -0.086234994 0.023582801 16513778
0.37744623 -0.074758813 0.025563618 16184555
0.38010007 -0.077825524 0.02089351 16250349
0.37689614 -0.065053128 0.02503268 15987177
0.37616277 -0.055024184 0.025042461 15921384
0.37487698 -0.044866666 0.025101306 15724005
0.3739017 -0.034892503 0.024924308 15263967
0.37392977 -0.024893615 0.024865285 14869466
0.37422422 -0.01484879 0.025013046 14803418
0.37521976 -0.0051467074 0.025008321 14737882
0.37622902 0.0049684248 0.025072563 14474454
0.37718734 0.015018169 0.025283866 14211539
0.38000003 0.01902681 0.020665735 14803419
0.37807414 0.02444781 0.026827171 14408661
0.38058683 0.025593806 0.021965232 14540246
0.3787857 0.032521296 0.027851462 14474454
0.38098928 0.035570346 0.024030924 14869210
0.38250414 0.044901401 0.025048163 14803417
0.38461956 0.055052515 0.02518823 15197661
0.38583863 0.065161012 0.025110926 15592420
0.38630161 0.074568585 0.025322694 15592165
0.39066672 0.078017682 0.020711685 15132128
0.3872709 0.083233245 0.027345693 15263713
0.39160869 0.082875833 0.021823103 15198177
0.389 -0.14038822 0.036955066 16513009
0.39191139 -0.14480317 0.034528807 16052204
0.38691086 -0.13485835 0.035185572 16513010
0.39000002 -0.13956222 0.030567791 16776439
0.38391876 -0.12521507 0.034990359 16249837
0.37883338 -0.11186782 0.038314205 16052971
0.38101003 -0.11550681 0.034272641 16184300
0.37839249 -0.10515624 0.037129536 16316655
0.38045454 -0.10497242 0.032044984 16448241
0.3778888 -0.094616145 0.036159907 16447728
0.38051516 -0.096434362 0.031429794 16580082
0.37630159 -0.085279942 0.03477915 16184556
0.37443671 -0.07505478 0.034937959 15592674
0.37427583 -0.064965591 0.035131671 15460832
0.37391761 -0.055027347 0.034995034 15395040
0.37355334 -0.044915378 0.034962304 15000795
0.37327281 -0.03483339 0.034939092 14211537
0.37293398 -0.025197929 0.034905013 13816778
0.37262911 -0.015146032 0.034874268 14079693
0.37264499 -0.0051127071 0.034873173 14079696
0.37328818 0.0049292073 0.034933548 13948110
0.37419027 0.015014917 0.035020031 13750474
0.37599981 0.024878956 0.034976855 13948110
0.37772363 0.034742396 0.035058614 14408661
0.38000003 0.03926491 0.030228795 14342868
0.37843335 0.044108707 0.037499979 14474709
0.38065711 0.045636036 0.032978389 14540247
0.37900001 0.050695777 0.039908949 14672087
0.38156912 0.054940138 0.034837253 15131868
0.38180682 0.064905778 0.03482784 15526370
0.37900001 0.075470403 0.039840698 15526372
0.38163936 0.074965894 0.034796968 15591908
0.37900001 0.081305757 0.039908949 15987436
0.38280436 0.084111378 0.035058703 15132384
0.38880643 -0.14166048 0.045755465 16052459
0.39143756 -0.14620806 0.044553924 15723239
0.38574278 -0.13492367 0.045106474 16381423
0.38206032 -0.12479122 0.044954468 16381165
0.37829122 -0.11345892 0.045729995 15855078
0.38035899 -0.11809862 0.043794792 16184043
0.37687168 -0.10502087 0.044868305 15921384
0.37516424 -0.094832353 0.045214996 15855334
0.37418211 -0.08484897 0.04509386 15394783
0.37376541 -0.075129874 0.045043603 15066074
0.37330744 -0.065124005 0.044887055 15132123
0.37253711 -0.054977685 0.044995952 14934747
0.3731879 -0.044867419 0.044976547 14145487
0.37442079 -0.034834217 0.044896796 9934993
0.37417755 -0.024927609 0.044993579 8356476
0.37294677 -0.014694963 0.044910789 13289923
0.37128767 -0.0050946507 0.044743881 14013645
0.37145832 0.0049045333 0.044764128 13618887
0.37257606 0.014951136 0.044896789 13487816
0.37398621 0.025042476 0.045101035 13882318
0.37506762 0.035205372 0.045158882 14408660
0.37682095 0.045051593 0.045052499 14605783
0.37788475 0.054876059 0.045407876 15197919
0.38000008 0.056117639 0.040409632 15197661
0.3770234 0.065083958 0.04550102 15592420
0.38000008 0.064277999 0.040328234 15592419
0.37597844 0.074896112 0.045282759 15526628
0.37704605 0.083878152 0.04600687 15329507
0.38103122 0.087207094 0.04198958 14737626
0.37900001 0.091331631 0.049313754 15066591
0.38191429 0.092569567 0.045471806 14277076
0.39300001 -0.150986 0.059093539 14013392
0.38843334 -0.1429594 0.054327939 15854824
0.39065725 -0.14748085 0.056137435 15592165
0.38502017 -0.13508259 0.05496316 15986410
0.38134792 -0.12540944 0.055099055 15920616
0.37800846 -0.11469527 0.054878291 15789028
0.38000003 -0.11997113 0.055493064 15657701
0.37579331 -0.10497105 0.055008285 15196632
0.3746568 -0.095096074 0.055090629 14671060
0.37404159 -0.084816091 0.055148728 14671316
0.37345463 -0.075068466 0.055063024 14737365
0.37225655 -0.065240078 0.054883156 14934744
0.37200046 -0.055179033 0.054847334 14540245
0.37356082 -0.044910733 0.055077482 13684937
0.37436241 -0.035040647 0.054946724 3488565
0.37402993 -0.024745854 0.055029381 2699050
0.37316141 -0.014709435 0.05505991 11776942
0.37079507 -0.0050898632 0.055102449 13684681
0.36899999 0.0049786018 0.059372038 13158594
0.37036002 0.0048828726 0.054768339 13487559
0.3707951 0.014877608 0.055101693 13487559
0.37134701 0.024897717 0.055182382 13948110
0.37221986 0.034978364 0.055307571 14343122
0.37341008 0.044736437 0.055227119 14606295
0.37412685 0.055112008 0.054741848 15198174
0.37264204 0.064936839 0.05519611 15395297
0.37151477 0.074837185 0.055138253 15066589
0.37387407 0.084765576 0.05495258 14803162
0.3776384 0.091876835 0.054902285 14408404
0.38000003 0.093529709 0.050689295 13882317
0.39271426 -0.15104069 0.061840653 13948112
0.38821569 -0.14241877 0.065416403 15526114
0.39073473 -0.14733145 0.064495951 15065823
0.3843939 -0.13481781 0.064790256 15525857
0.381354 -0.12518215 0.065250084 15131613
0.37840003 -0.11413328 0.063980803 14868183
0.38022229 -0.1182942 0.066972703 14539219
0.37735274 -0.10493619 0.065283597 14342095
0.37611562 -0.094975255 0.065144181 14144973
0.37481824 -0.084993377 0.064916752 14408145
0.37379363 -0.075136997 0.064738974 14408402
0.37234393 -0.065155424 0.064888097 14473937
0.37200055 -0.055145539 0.064828686 14408401
0.37367663 -0.045025315 0.064871222 13421508
0.37377369 -0.034789164 0.065015785 3422259
0.37287793 -0.024928531 0.064896345 2632487
0.37313667 -0.014991641 0.065138742 9868688
0.37051219 -0.0050872983 0.065037139 13421252
0.36899978 0.0056654974 0.065032311 13092801
0.36999995 0.0010272732 0.065441497 13355973
0.36899996 0.01401601 0.067425109 13092801
0.37000024 0.015907882 0.063227363 13224387
0.36900008 0.025074782 0.068130367 13553352
0.37017271 0.024774011 0.063451931 13816523
0.36899999 0.034385007 0.069738068 13948364
0.37059325 0.035062291 0.065047726 14079950
0.36900002 0.040719803 0.069954023 13816778
0.37069744 0.045064926 0.064884365 14277329
0.3707011 0.054908343 0.064852066 14737367
0.36900011 0.067988224 0.067132153 14408660
0.37027732 0.064023517 0.064366825 14868697
0.3690002 0.071618535 0.066033542 14145746
0.37007719 0.07605511 0.064446799 14211538
0.37188771 0.084800936 0.06515599 13948108
0.37597227 0.092028134 0.065510593 13421765
0.38849336 -0.14365798 0.074717201 15000283
0.39007694 -0.14766787 0.074793577 14605271
0.38568875 -0.13500918 0.075073361 14736854
0.38325712 -0.12499332 0.074928097 13947851
0.37900001 -0.11144839 0.070297115 14078667
0.38157663 -0.1151352 0.075137191 13749960
0.37872097 -0.10437269 0.072251111 13881801
0.38104409 -0.1055561 0.077041328 13487044
0.37808225 -0.094353557 0.073521085 13684166
0.38051423 -0.096515492 0.077813372 13223615
0.37679639 -0.085002117 0.074967384 13618630
0.3749674 -0.074980289 0.07468579 13816265
0.37389952 -0.064972296 0.075077988 14079180
0.37314898 -0.054912649 0.075111575 14079437
0.37425938 -0.044933945 0.075034462 12829372
0.37200764 -0.034718771 0.074954994 3619637
0.37066633 -0.025042305 0.075040542 2238241
0.37276828 -0.015220519 0.075031362 7960948
0.3711336 -0.0049933214 0.074950352 12829373
0.36900011 0.0069305366 0.073276453 12566457
0.37009555 0.0034405319 0.076268487 12171699
0.3689917 0.015459154 0.074884631 12500665
0.37 0.011813235 0.079238467 11184804
0.36899981 0.024747316 0.074501835 12895422
0.36999995 0.027518388 0.078759775 12698299
0.3689999 0.034772627 0.073265433 13355716
0.37008935 0.035656609 0.077618167 12895676
0.36899999 0.041799594 0.072041616 13750731
0.37009996 0.045490537 0.075275578 13290435
0.36900002 0.053677335 0.071681693 14145743
0.37007725 0.05510914 0.074912101 13684936
0.36899999 0.068441078 0.072074346 13816265
0.3701694 0.064636149 0.075391643 13684936
0.36899999 0.070378155 0.071825668 13882315
0.37066364 0.074936375 0.075149812 13421764
0.37286073 0.084833235 0.07499741 13027007
0.37551856 0.091418736 0.07388863 12763578
0.38899997 -0.14155689 0.081562042 14474452
0.39210671 -0.14517729 0.085478418 13553353
0.38832268 -0.13446166 0.083326079 13487043
0.39076325 -0.13550285 0.08806809 13027006
0.38698751 -0.12480383 0.083665311 12894907
0.39092314 -0.12563647 0.08900027 12105392
0.38630128 -0.1147692 0.084508881 12434101
0.39040005 -0.11768013 0.08918266 11776171
0.3842569 -0.1049133 0.084891945 13092029
0.38237613 -0.094888106 0.084905416 13158079
0.37855557 -0.083353721 0.082228713 13355457
0.38102943 -0.086087175 0.086325698 13224129
0.37763283 -0.074837245 0.084571809 12961213
0.38000005 -0.07803347 0.089195691 13093056
0.37594557 -0.065009877 0.084919497 13092030
0.37458843 -0.055058748 0.084974647 13618630
0.37511709 -0.045210078 0.085029811 12565943
0.3723554 -0.034758076 0.085013181 3816759
0.37033877 -0.025022477 0.08494623 1712410
0.37278628 -0.015163291 0.084833048 6382684
0.37309584 -0.0052387356 0.084938645 11579819
0.37158343 0.0049024769 0.084801964 11382182
0.36900002 0.019987745 0.080320053 11316647
0.37111816 0.014890357 0.084697001 11185059
0.36900002 0.021283498 0.080320053 11777200
0.37164095 0.025017854 0.084918335 11053474
0.37235767 0.034949187 0.08494623 11316646
0.37254938 0.044875514 0.084958911 11316645
0.3732017 0.054977894 0.085268691 11777196
0.37340581 0.064907953 0.08482746 11974574
0.37405515 0.075204007 0.08497151 11974576
0.3745681 0.082227536 0.083908051 11447978
0.3962 -0.14370805 0.093370751 12434614
0.40000007 -0.14249244 0.09866485 11842478
0.39536071 -0.1349846 0.093789831 12171442
0.40047824 -0.13503699 0.098830506 11382183
0.39504406 -0.12483899 0.093981527 11513768
0.40037507 -0.12570193 0.098982997 11250852
0.38900003 -0.11112582 0.090744488 12368308
0.39363891 -0.11516768 0.09490893 11447719
0.38800004 -0.10373814 0.093360573 12303028
0.391139 -0.10624624 0.097349226 11513769
0.3866525 -0.095136702 0.094528392 11842478
0.39000005 -0.093260221 0.099499054 11119013
0.38542682 -0.085075773 0.094151624 11447720
0.39033329 -0.084244631 0.099340647 11118242
0.37900001 -0.071566693 0.09083686 13025981
0.38420001 -0.075090177 0.094926879 11250084
0.39000002 -0.078391418 0.099499069 10197139
0.37834102 -0.064172596 0.091734536 12171441
0.38182616 -0.065048516 0.09611699 11184804
0.37732899 -0.05422245 0.093414381 12566457
0.38118753 -0.055932868 0.098282792 11316389
0.37755135 -0.044870652 0.094560884 10921375
0.38000005 -0.044737499 0.09961658 9803151
0.36820593 -0.031444807 0.095710963 2304547
0.37336963 -0.03597647 0.094488509 4803654
0.36770904 -0.024984799 0.095354639 2041377
0.36999995 -0.025807701 0.090296656 1514776
0.36804357 -0.018423479 0.095672607 2106658
0.37488905 -0.013477317 0.094054461 7434602
0.37704545 -0.0051760818 0.094878264 10197909
0.37611419 0.0047864737 0.094445691 10001045
0.38016668 0.0084302453 0.099512003 8685703
0.37664583 0.015269361 0.094237812 9277832
0.38021436 0.014172443 0.099418573 7698291
0.37635723 0.024506513 0.093604103 9409162
0.38064292 0.024885248 0.098957703 8356733
0.37732083 0.03472295 0.092700921 10000787
0.38184604 0.034938231 0.09767466 8751236
0.37702227 0.045781754 0.092543535 9671822
0.382 0.043823399 0.097293057 8816769
0.37683022 0.054566674 0.092612848 10395545
0.37800014 0.065177336 0.092887513 10790303
0.38000003 0.067286901 0.096947804 9868687
0.37748647 0.073228337 0.091722205 10987425
0.377 0.080729611 0.090298675 11119010
0.40100002 -0.14161922 0.10061617 11776943
0.40304887 -0.13410074 0.10241682 10658460
0.40347371 -0.12527959 0.10332137 10526873
0.39743754 -0.11204495 0.10163096 10329753
0.40141666 -0.11686865 0.10390253 10658202
0.39340004 -0.10570297 0.1015192 10395802
0.39112824 -0.094791085 0.10192505 10198168
0.39179075 -0.085256785 0.10230356 10329496
0.38900003 -0.072726481 0.10051886 9670797
0.39135143 -0.075743541 0.10259367 9802896
0.3871429 -0.063806377 0.10184751 9737103
0.39088887 -0.067793339 0.10430201 9013894
0.38292304 -0.055028908 0.10212982 10132116
0.38063788 -0.045369092 0.1026117 9671308
0.36800003 -0.031452455 0.10280653 1778203
0.3734 -0.035540115 0.10391689 4277309
0.36693066 -0.0250425 0.10266873 1580825
0.36733326 -0.017307188 0.1030407 3026730
0.37684619 -0.012219419 0.10210611 8422012
0.38075003 -0.010572779 0.10293376 8422270
0.37900001 -0.0087496927 0.10024166 8750463
0.38214886 -0.0052810763 0.10457518 8816769
0.38166231 0.0047600134 0.10330389 8816768
0.3812142 0.014421145 0.10227374 8816766
0.38275 0.025410781 0.10153151 8882561
0.38528574 0.034735747 0.10156228 8751491
0.38591307 0.044786636 0.10156099 8817539
0.37561545 -0.032597385 0.11634237 1383444
0.3805556 -0.031502195 0.11371871 1054737
0.37566271 -0.025011687 0.11782918 660234
0.38153848 -0.025392618 0.11364893 791565
0.37441927 -0.017382283 0.11783003 1119244
0.38200003 -0.019550178 0.11400203 725515
0.37129736 -0.032592352 0.12497053 1317394
0.37163436 -0.025030334 0.12475757 1317906
0.37201726 -0.018046724 0.12473963 923149
0.35800001 -0.03256933 0.13994394 2501925
0.36586672 -0.032142583 0.13797759 1251859
0.37082511 -0.032260198 0.13295439 1974812
0.35826665 -0.023367172 0.13965631 2436132
0.36501667 -0.025149316 0.13738112 1383444
0.37065172 -0.025095684 0.13231941 1843995
0.35812497 -0.016756395 0.13925859 2106656
0.36468574 -0.017544786 0.13766262 1120273
0.37356934 -0.015895087 0.13569097 1251862
0.38080001 -0.0087893754 0.13887121 9147018
0.34900001 -0.033793088 0.14949803 2369823
0.35410994 -0.032679744 0.14500439 2436131
0.36100003 -0.030306937 0.14027154 2107167
0.35420898 -0.025213404 0.14507113 2304546
0.35426816 -0.016356869 0.14509587 1975582
0.36100003 -0.012559678 0.14027154 1843744
0.37471429 -0.011530205 0.14139463 1120020
0.37799999 -0.0089021828 0.14174141 6382945
0.38108334 -0.006863913 0.14138381 9211781
0.34736726 -0.032281473 0.15475519 2238496
0.35000002 -0.030202812 0.15074576 2370339
0.34626669 -0.029501868 0.15707728 2172703
0.35100004 -0.024537224 0.15035476 2369823
0.35100004 -0.016320251 0.15035476 2106651
0.33875 -0.031611066 0.16883121 2041628
0.34176931 -0.031953566 0.16439658 2041371
0.33797187 -0.024853453 0.16827321 1910042
0.34085706 -0.025248257 0.16486701 1975579
0.33770001 -0.01565269 0.16771744 1712407
0.34052831 -0.015970852 0.16427766 1843224
0.3334935 -0.032122683 0.17495154 2172701
0.33403143 -0.025040437 0.17502132 2041372
0.3340323 -0.015525743 0.17482197 1843992
0.83200002 0.19561781 0.32660964 10066575
0.81860006 0.12674381 0.34663203 9869196
0.82031578 0.12387688 0.34350675 9803660
0.81753862 0.13416256 0.34467882 9869196
0.81888896 0.14106086 0.3454549 9869196
0.82015783 0.14628726 0.34475455 9869196
0.82062817 0.15505145 0.34477282 10000782
0.82029974 0.16541453 0.34466201 9934989
0.81844455 0.17696151 0.34739509 9869453
0.82022721 0.17421557 0.34349725 9934989
0.81768185 0.18455042 0.34756377 9803661
0.8203333 0.18462558 0.3417961 9803661
0.81880009 0.19156432 0.34729147 9803662
0.82049984 0.1953015 0.34422845 9869454
0.8083334 -0.22807793 0.35887432 2699817
0.81539291 -0.22606482 0.35595536 2566952
0.82025003 -0.22279938 0.35360304 6447455
0.82050002 0.11887579 0.35387278 9737610
0.81900007 0.12680668 0.35082778 9869196
0.82059079 0.12487032 0.35587704 9672074
0.81862515 0.13417491 0.35162577 9803403
0.82056242 0.13497235 0.35702074 9803403
0.81900007 0.14022775 0.35082778 9869196
0.82087499 0.14455308 0.35563579 9803403
0.82109982 0.1550035 0.35557321 9869453
0.82059979 0.16547517 0.35535666 9869453
0.81875014 0.17684175 0.35311699 9803660
0.82018745 0.1736719 0.35613719 9869453
0.81726927 0.18518534 0.35523897 9803661
0.81824005 0.19503643 0.35540563 9737869
0.81999999 0.19926775 0.35189602 9672076
0.81900007 0.20253977 0.35849696 9737869
0.82008684 0.20593917 0.35479894 9803662
0.82075989 0.21546479 0.35542369 9672076
0.80676913 -0.22688372 0.36534521 2041376
0.8131054 -0.22193913 0.36392209 2633255
0.81710005 -0.21856293 0.36684373 2632487
0.82076192 -0.21429078 0.3645747 6579297
0.82200027 0.14459002 0.36558303 9737867
0.82200032 0.15517376 0.36558306 9803661
0.82128 0.16561128 0.36526245 9803661
0.82075989 0.17511377 0.36503235 9737869
0.81900007 0.18528414 0.36137292 9803661
0.82027781 0.1840793 0.36599144 9672076
0.81900018 0.19582926 0.36277395 9737869
0.81999999 0.19473937 0.36735153 9672076
0.81900007 0.20253979 0.36137289 9606283
0.81999987 0.20621499 0.36524206 9672075
0.82007986 0.21528608 0.3647289 9606282
0.82124001 0.22520365 0.36524448 8684411
0.8216787 0.23473422 0.36481911 2959131
0.81900007 0.24184431 0.36808345 2958615
0.82042867 0.24089397 0.36515671 3024664
0.80645442 -0.22508481 0.37514433 1317655
0.80866671 -0.21933801 0.37669027 2304548
0.81433326 -0.21635498 0.37513083 2435621
0.8202728 -0.21236044 0.37354305 2369059
0.82200027 0.14459004 0.37520474 9672074
0.82143331 0.15506516 0.37494564 9803660
0.82091987 0.16553935 0.37471172 9803661
0.82095987 0.17515737 0.37473011 9737869
0.82127982 0.18483891 0.37487713 9737869
0.82111526 0.1946338 0.37465489 9672076
0.82068938 0.20504381 0.37474015 9606283
0.82043982 0.21538089 0.3744933 9540489
0.82099986 0.22513705 0.37474826 8750203
0.82086366 0.2341833 0.37442428 3024667
0.82050002 0.24036644 0.37163937 3024921
0.80599988 -0.22521797 0.38488322 857358
0.80763632 -0.21622138 0.38566267 1317910
0.81335008 -0.21231993 0.38372013 1975071
0.82000005 -0.21089421 0.38005066 2830122
0.81685716 -0.20871742 0.38733339 2632233
0.82158607 -0.20426765 0.38463092 7500652
0.82292008 0.13511743 0.38525611 9737867
0.82200027 0.14459002 0.38482621 9737867
0.82180005 0.15513512 0.38473329 9737867
0.8215602 0.16566935 0.38462201 9737867
0.82208014 0.1753968 0.38486567 9803660
0.82272005 0.1851631 0.38516477 9672075
0.82248008 0.19473477 0.38505146 9606283
0.82138711 0.20520617 0.38472477 9540490
0.81900007 0.21691948 0.38917366 9540490
0.82027566 0.21527055 0.38481247 9474697
0.82062048 0.22490108 0.38497409 8816253
0.82126093 0.23448803 0.38473162 3024668
0.80508584 -0.22509724 0.394676 923407
0.80558079 -0.21490987 0.39520454 1054739
0.81000006 -0.21021855 0.39058569 1448986
0.80785716 -0.20939186 0.39657378 1382679
0.81504768 -0.20734337 0.39501292 2040095
0.82066667 -0.20299588 0.39457554 7434861
0.823129 -0.19516209 0.39480159 9540234
0.82290912 0.12811233 0.39488319 9672074
0.82220024 0.13500063 0.39454311 9672074
0.82200027 0.14459001 0.39444777 9672074
0.82228017 0.15426524 0.39458224 9737867
0.82307404 0.16447565 0.39474946 9737867
0.82382143 0.17514792 0.39552903 9737867
0.82324004 0.18527891 0.39504173 9672074
0.82182759 0.1947127 0.39515927 9606281
0.82051414 0.20469642 0.39483109 9540489
0.81900018 0.21604799 0.39492556 9474697
0.81999999 0.21444201 0.39540777 9540233
0.82034612 0.22510672 0.39535332 8684410
0.82123321 0.23481423 0.39504018 2893083
0.82140005 0.24063011 0.39531168 2959128
0.80411559 -0.22541565 0.40483543 857614
0.80441409 -0.21519615 0.4047111 988943
0.80670011 -0.20841703 0.40504518 1381908
0.81450015 -0.20527777 0.40514231 2763304
0.82025009 -0.20207728 0.40440866 7697777
0.82253116 -0.19541578 0.40469155 9079684
0.81900007 0.12680668 0.40834659 9672076
0.82125002 0.12859651 0.40417713 9540490
0.82128572 0.13526385 0.40536317 9606283
0.82183355 0.14456095 0.40494859 9672076
0.82246447 0.15409377 0.40491614 9672076
0.82384002 0.16420057 0.4049736 9672076
0.82337493 0.17494762 0.40510488 9672076
0.82193357 0.18498467 0.40499753 9606283
0.82107675 0.19425552 0.40531561 9606026
0.8204332 0.20481415 0.40522099 9540233
0.82059991 0.21542276 0.40530407 9474439
0.82150018 0.22501265 0.40522397 9013374
0.82185012 0.23498991 0.40495959 3155997
0.82237506 0.24260125 0.40642184 3156507
0.80607408 -0.22534323 0.41469434 791823
0.80684215 -0.21526349 0.41441584 923408
0.81050003 -0.21129644 0.41928774 1120274
0.80820006 -0.20899431 0.4131794 1184784
0.81442863 -0.20618738 0.41518945 2302751
0.82072735 -0.20217198 0.41532212 8092532
0.81783336 0.12758352 0.41542122 9606283
0.82000005 0.12888114 0.41076484 9606283
0.81840008 0.13246237 0.41762623 9606283
0.82026309 0.1354925 0.41392827 9606283
0.82139993 0.1444858 0.41531163 9606283
0.82265389 0.15440951 0.41535357 9672076
0.82363325 0.16512276 0.4145135 9672076
0.82274079 0.17546499 0.41520545 9606283
0.82240015 0.18509072 0.41581899 9540489
0.82205009 0.19463387 0.41467994 9540489
0.82200003 0.20451866 0.41451758 9474695
0.82259101 0.21498217 0.41495231 9540231
0.82442111 0.22516324 0.41511413 9605511
0.80866671 -0.22627836 0.42149422 857103
0.8113333 -0.22491166 0.4259454 856847
0.81352192 -0.21510048 0.42532626 856592
0.81700009 -0.20858975 0.42303234 856074
0.82190913 -0.20429562 0.42545125 6514269
0.81737506 0.13277662 0.42212591 9540490
0.82000005 0.13847932 0.42132282 9672076
0.82155007 0.14508912 0.42481202 9540747
0.82325006 0.15436836 0.42532086 9606283
0.82479995 0.16439182 0.42475656 9672076
0.82495815 0.17432086 0.42524073 9606283
0.82555008 0.18492915 0.42601332 9540490
0.8253333 0.21489327 0.42487109 9408902
0.80520695 -0.22554749 0.436759 791822
0.81242871 -0.22424771 0.43287182 659723
0.80800003 -0.2191572 0.43880135 1119504
0.81568003 -0.21680287 0.43570822 988177
0.82014292 -0.21175365 0.43607053 790544
0.82422233 -0.20525274 0.43495873 7237993
0.8216958 0.14487167 0.43461421 9475210
0.82270384 0.15455915 0.43480092 9475210
0.82440007 0.16431285 0.43516028 9606283
0.82541949 0.17436458 0.43579096 9606283
0.80207419 -0.22470935 0.44483307 922894
0.80615383 -0.21865343 0.44345835 1053710
0.81526673 -0.21603332 0.44477549 1184782
0.82090914 -0.21252452 0.44511348 4474430
0.82537514 -0.2064736 0.44533876 8290423
0.82200003 0.14630054 0.44212806 9474695
0.82167864 0.15600583 0.44437355 9540488
0.82176667 0.16571115 0.44531372 9540489
0.82248157 0.17548293 0.44473782 9540489
0.82323337 0.18527849 0.44417951 9540489
0.8240667 0.19511276 0.44462928 9474697
0.82540005 0.20508976 0.44534713 9408903
0.82540005 0.21474965 0.44534841 9343110
0.8256073 0.22426137 0.44511649 9408645
0.80416662 -0.2246998 0.45334879 1580309
0.81300002 -0.22051337 0.45864594 8553595
0.80850005 -0.21929282 0.45137614 1842454
0.81700009 -0.21808952 0.45548153 6185048
0.82342118 -0.21349199 0.45508891 8093043
0.82025009 0.15844388 0.4538542 9474697
0.82106256 0.1653285 0.45382383 9540490
0.82200021 0.17583725 0.45373517 9474697
0.82186687 0.18497075 0.45498937 9408904
0.82186693 0.19459122 0.4549883 9408904
0.82246673 0.20436049 0.45531958 9343111
0.82346147 0.21409884 0.45513007 9343110
0.81700003 -0.22063968 0.46281517 8291193
0.81800002 -0.21995461 0.46146664 8553595
0.82550013 -0.21584255 0.4641926 8092789
0.82166672 0.18813129 0.46225229 9408904
0.82100004 0.19473495 0.46246016 9343368
0.82113343 0.20402898 0.46323401 9277575
