# .PCD v0.7 - Point Cloud Data file format
VERSION 0.7
FIELDS x y z rgb
SIZE 4 4 4 4
TYPE F F F U
COUNT 1 1 1 1
WIDTH 662
HEIGHT 1
VIEWPOINT 0 0 0 1 0 0 0
POINTS 662
DATA ascii
0.35900003 -0.10073477 -0.040356632 16645880
0.36000001 -0.10227951 -0.040469047 16645880
0.35870001 -0.096034572 -0.040322907 16645880
0.36316133 -0.08347325 -0.042143695 16645880
0.35900009 -0.073443048 -0.041020125 16645880
0.36078578 -0.076446123 -0.041825704 16645880
0.35900003 -0.069218814 -0.040356632 16711673
0.36040813 -0.064727344 -0.042031243 16645880
0.35878274 -0.053822171 -0.040843759 16645880
0.36038482 -0.055085622 -0.044017971 16580087
0.35857999 -0.043971669 -0.041804858 16645879
0.36023071 -0.046439264 -0.044777196 16645880
0.35782498 -0.034933247 -0.042928759 16579829
0.36000001 -0.038229264 -0.046368413 16776696
0.35489744 -0.025030693 -0.043040011 16118765
0.35328263 -0.014967548 -0.043341674 15987181
0.34900001 -0.001657152 -0.040321846 15460579
0.35266668 -0.0054707457 -0.043956265 15724008
0.34877771 0.0052820989 -0.041748136 15395042
0.35067743 0.0047477493 -0.045314647 15395556
0.34767997 0.015228008 -0.042876378 15329762
0.35047057 0.01596814 -0.047048464 15592419
0.34687844 0.025260044 -0.043989252 15790056
0.35025001 0.021534059 -0.047880266 15527139
0.34479174 0.034792926 -0.043872975 15724520
0.34266019 0.044958938 -0.043602727 15921900
0.34312764 0.054972898 -0.04369827 16053229
0.34277982 0.065010935 -0.04372539 16053743
0.34315553 0.074906908 -0.043620799 15461607
0.3413333 0.081543647 -0.041840624 9341830
0.36520001 -0.15069288 -0.031478833 16448247
0.36386448 -0.14446503 -0.03297928 16448501
0.36257154 -0.13511083 -0.033507597 16646137
0.35858822 -0.12321121 -0.031570982 16711673
0.36059618 -0.12576406 -0.03448179 16711673
0.35830116 -0.11477592 -0.032432225 16645880
0.36031696 -0.11464022 -0.036905468 16711673
0.35782292 -0.10471508 -0.033466827 16645880
0.36025 -0.1057853 -0.038027715 16645880
0.35728997 -0.095007725 -0.035172604 16645880
0.35673642 -0.085196771 -0.034446672 16645879
0.36050007 -0.084487624 -0.039217442 16645880
0.35630241 -0.074894972 -0.034994751 16645879
0.36000001 -0.079524823 -0.039626278 16711673
0.35605291 -0.064936347 -0.035036586 16645879
0.35620612 -0.054996349 -0.035042416 16579828
0.35566139 -0.045039095 -0.034962669 16514035
0.3543435 -0.035038412 -0.034844618 16250093
0.34900001 -0.02063914 -0.031062339 15197407
0.35215965 -0.02522267 -0.035214547 15657957
0.34843203 -0.014395672 -0.032978889 15395041
0.35075927 -0.015884338 -0.037820194 15789800
0.34738535 -0.0049500605 -0.034624528 15197150
0.35045457 -0.0081664482 -0.038948659 15723494
0.34583685 0.0050504995 -0.035212513 14737371
0.34377086 0.014994619 -0.035030458 14737368
0.34170479 0.024904355 -0.034820616 15132382
0.33883783 0.037390471 -0.031659029 14803162
0.34066662 0.034360621 -0.035553306 15329761
0.33825514 0.045599282 -0.033300202 15197919
0.34018645 0.04412609 -0.038080424 15658471
0.3375901 0.055185366 -0.034124799 15658470
0.34000006 0.054621071 -0.03910768 16184302
0.33702797 0.065076098 -0.034914263 15790311
0.33999997 0.062910274 -0.039653465 16119276
0.33688366 0.074929349 -0.034862503 15395813
0.34 0.079306766 -0.039812654 14474456
0.33835632 0.083711289 -0.033711381 11776685
0.34000009 0.08646103 -0.037535891 7828585
0.36864704 -0.16177119 -0.021897312 16646138
0.37 -0.16207172 -0.024269652 16580347
0.36459708 -0.15426677 -0.023888694 16645881
0.35842556 -0.14311807 -0.022457831 16645881
0.36136857 -0.14622632 -0.026524767 16711673
0.3577418 -0.13485202 -0.023943724 16645880
0.3602106 -0.13618158 -0.029086782 16711673
0.35708138 -0.12509079 -0.024788944 16579830
0.35588336 -0.1150123 -0.024977639 16579830
0.35499218 -0.10490957 -0.024930663 16447985
0.35429856 -0.094854228 -0.025316136 16447984
0.35402095 -0.084835611 -0.025296899 16250605
0.35342881 -0.074895151 -0.02534906 16052970
0.35283124 -0.064870127 -0.025123617 16053482
0.35306278 -0.054848295 -0.025230708 15921640
0.35311145 -0.04494071 -0.025231065 15789797
0.35204884 -0.03491281 -0.025153141 15395041
0.34900001 -0.021426443 -0.024637621 14342867
0.35085994 -0.026436295 -0.025200445 14737370
0.34777072 -0.014954451 -0.024846699 14342611
0.34585202 -0.0051237866 -0.025082575 13882062
0.34388176 0.0049348422 -0.024971232 13422024
0.3422111 0.014926502 -0.024850365 13553095
0.34048709 0.02481656 -0.025122426 13882317
0.33878458 0.036738556 -0.025315937 14013645
0.34000009 0.031844795 -0.024483321 13947851
0.33752489 0.04524117 -0.025153369 14211280
0.3367275 0.055171873 -0.025324743 14671574
0.33565456 0.065140612 -0.025125885 14671574
0.33539203 0.075029925 -0.025084633 14540247
0.33762279 0.08384154 -0.025453046 10329496
0.36695075 -0.1622542 -0.014678786 16250867
0.36341128 -0.15469821 -0.014862227 16184559
0.35823229 -0.14382482 -0.014603415 16118765
0.36019057 -0.14877073 -0.015195649 16447987
0.35711944 -0.13496798 -0.014663137 16118764
0.35617027 -0.12500043 -0.014629872 16052714
0.35504758 -0.11506005 -0.015318258 15789798
0.35483304 -0.10496622 -0.015381888 15724004
0.35407645 -0.094794974 -0.015349816 15395296
0.35367382 -0.084752791 -0.015331621 15329504
0.35312009 -0.074762814 -0.015249537 15131867
0.35213035 -0.064671516 -0.015321755 14935000
0.35200027 -0.054675881 -0.015263484 14934744
0.35234052 -0.044837773 -0.015273081 14869209
0.35210443 -0.034919083 -0.015264317 14540245
0.34900001 -0.021033229 -0.017749798 14210510
0.35095286 -0.025456678 -0.014861983 14144974
0.34846324 -0.014754218 -0.015321217 13487301
0.35000002 -0.018936664 -0.011486791 14342609
0.3464933 -0.0051640924 -0.015019523 13158595
0.34506464 0.0049530272 -0.014955527 12566457
0.34302053 0.014963001 -0.014867968 12697787
0.34168002 0.024902984 -0.015207746 13224386
0.33900011 0.038202856 -0.018852988 13947851
0.34028187 0.034763277 -0.014646036 13290177
0.33852059 0.046020653 -0.016107406 13750215
0.34000009 0.042968769 -0.012076993 13158591
0.33768177 0.054919172 -0.014941759 13947850
0.33685264 0.064769939 -0.014995062 13882315
0.33671969 0.074852549 -0.015085923 13882316
0.33785167 0.082619399 -0.015205634 10921380
0.36733961 -0.1620214 -0.0051080347 15394786
0.36453333 -0.15510967 -0.004815924 15131358
0.35841161 -0.14291771 -0.0054558492 15592421
0.36053708 -0.14746372 -0.0034541062 15460578
0.35785243 -0.13511524 -0.0046812296 15657957
0.35720816 -0.12506792 -0.0045052753 15394785
0.35614932 -0.11508618 -0.0050645261 15197661
0.3553139 -0.1051091 -0.0050044833 15066331
0.35489711 -0.095014721 -0.0049996641 14869209
0.3544358 -0.08493448 -0.0049909698 14934745
0.35416666 -0.07492172 -0.0049880552 14934744
0.35303885 -0.064764746 -0.0049734917 14803415
0.35281447 -0.054811381 -0.0049697938 14672344
0.35304525 -0.044928715 -0.0049736635 14540501
0.35255164 -0.03496499 -0.0049658795 14277073
0.35167998 -0.02499892 -0.0049540005 13750471
0.34900001 -0.012235024 -0.007146074 13750473
0.35056248 -0.016162897 -0.0040591438 13487558
0.34799984 -0.0051869522 -0.0048998585 13092800
0.34664518 0.0049784989 -0.0048793186 12303029
0.34514776 0.015055237 -0.0048584156 12434872
0.34326032 0.025019852 -0.0048336065 12961216
0.3424933 0.03499604 -0.0049235309 12895678
0.33900002 0.049313325 -0.0095385676 13750988
0.34104908 0.044956025 -0.0048040194 13224385
0.33886656 0.056062497 -0.0083003677 13553349
0.34030646 0.054636408 -0.0035079569 13421764
0.33841836 0.065419585 -0.0068841819 13421764
0.34020898 0.064620614 -0.0018925433 13027007
0.33816159 0.075023003 -0.0057950332 13421766
0.34000006 0.074398428 -0.00081129762 13356230
0.33850008 0.081694826 -0.0066589327 13027010
0.34 0.080699667 -0.0010102841 13028039
0.32691297 0.098365448 -0.0052547734 857612
0.32725 0.10127909 -0.0056635058 2042141
0.36869997 -0.16154566 0.0015375545 14933979
0.37060717 -0.16162476 0.006089645 15000027
0.36643425 -0.1546372 0.0046695559 14802393
0.37046149 -0.1588553 0.007789488 14407378
0.35900003 -0.14044487 0.0014545352 15855591
0.36118358 -0.14515698 0.00509843 15460835
0.3587316 -0.13424362 0.0046281866 15395040
0.36000007 -0.13839206 0.0077793351 15000028
0.35828027 -0.12501855 0.0049244566 15395040
0.35772321 -0.11510439 0.0050682328 15263455
0.35651192 -0.10504623 0.0049949894 15066333
0.35568327 -0.095079333 0.0052518896 14869209
0.35504827 -0.085081026 0.0053870869 14868953
0.35481915 -0.075059608 0.0053843348 14606037
0.35386121 -0.064916201 0.0053723445 14474451
0.35370857 -0.054950096 0.005369104 14145742
0.35428467 -0.045086443 0.0053785862 13948363
0.35408333 -0.035115208 0.0053771171 13816521
0.35334051 -0.025207592 0.0054410631 13290434
0.35174161 -0.015091916 0.0053593097 13290180
0.34896138 -0.0038233097 0.0036872451 12698043
0.35031351 -0.0068038129 0.0071700253 12961470
0.34859583 0.0052419449 0.0050176089 12566199
0.34999999 0.001588213 0.0093248589 12631991
0.34675011 0.015125115 0.0052652401 12237492
0.34530294 0.025041301 0.0051585091 12566456
0.34484506 0.035085015 0.005326048 12566456
0.34347701 0.045041647 0.0051460238 12829626
0.34273583 0.054981578 0.0052500311 13158849
0.34240982 0.06503807 0.0051997402 13421506
0.34190997 0.074986994 0.005165061 13093058
0.34389287 0.082273461 0.0059158178 12698304
0.37127268 -0.1610682 0.014050734 15065822
0.36705083 -0.15331654 0.014941462 14868442
0.37069234 -0.15833154 0.015381458 14605014
0.36252746 -0.14484753 0.014722371 15460322
0.35900003 -0.130822 0.010573152 15723751
0.36068478 -0.13500288 0.015010114 15394785
0.35898927 -0.12356427 0.013757624 15263455
0.36006808 -0.12737615 0.016689459 15262941
0.35846299 -0.11492644 0.014609505 15066333
0.3578825 -0.1050301 0.014647071 14935002
0.35703143 -0.095071577 0.015044329 14606294
0.35565203 -0.085033625 0.015250467 14540245
0.35506907 -0.075111486 0.015362346 14540501
0.35499269 -0.065122135 0.015358397 14343121
0.3550483 -0.055157252 0.015361803 14145743
0.35578394 -0.045200575 0.015172645 13684935
0.35595286 -0.035156112 0.014897861 13224129
0.35565895 -0.025281012 0.014976183 12566711
0.3539162 -0.015187173 0.015286857 12829628
0.35174331 -0.00524153 0.015223094 12566713
0.34900001 0.0082831997 0.01269604 11974579
0.35067794 0.0041417661 0.015822608 12040371
0.34874791 0.015495888 0.014149348 12039855
0.35006902 0.014157647 0.018889774 12238005
0.34794438 0.024953524 0.015060135 12368820
0.34709936 0.034890771 0.014929143 12500920
0.34648344 0.044949427 0.015092083 12632504
0.34550381 0.054949127 0.0148587 13224640
0.34514713 0.065014303 0.015003517 13355714
0.34489018 0.07489904 0.014904024 13027263
0.3465625 0.083061948 0.015263623 12369592
0.37200001 -0.16055293 0.020883814 14802650
0.3681334 -0.1519333 0.023454888 14341841
0.37141669 -0.15609962 0.025870351 14078413
0.36476797 -0.14455302 0.024957418 14933978
0.36244005 -0.13487092 0.024956202 15000027
0.35900003 -0.12132519 0.020154003 14868181
0.36086941 -0.12496134 0.024980264 15131612
0.35900009 -0.11428241 0.020826342 15000283
0.36046115 -0.11529964 0.025859518 15131869
0.35853714 -0.10430656 0.023906006 14934746
0.36003572 -0.10788877 0.027617376 15198431
0.35770142 -0.094929412 0.024688682 14672087
0.35680953 -0.084960587 0.025099454 14540244
0.35588267 -0.075141706 0.024889451 14342866
0.35544983 -0.065157145 0.025235072 14474708
0.35631365 -0.05506197 0.025011653 13882828
0.35776743 -0.044939552 0.024210885 13553605
0.36000004 -0.041684605 0.028974909 13093311
0.35821256 -0.034599535 0.023651918 13290434
0.35999995 -0.035170838 0.028773742 12961726
0.35813826 -0.024826998 0.024135627 12632505
0.36000007 -0.02596233 0.029106008 12369333
0.35639092 -0.015230005 0.024998497 12829115
0.35409719 -0.0052767806 0.025272336 12764092
0.35250711 0.0047939247 0.025071515 12171699
0.35162535 0.015058522 0.025182305 12040370
0.34900001 0.026592718 0.021792267 12500664
0.35069257 0.024591688 0.026179554 12303285
0.34888345 0.03501017 0.022641605 12500920
0.35061198 0.034782611 0.02762302 12237491
0.34865102 0.045394551 0.023370622 12500406
0.35054168 0.044170335 0.028194256 12303283
0.34792233 0.055219147 0.024336508 12895420
0.35023525 0.05383981 0.029259855 12632761
0.34785053 0.06493105 0.024042241 13027006
0.34999996 0.065778933 0.029129878 12895164
0.34796089 0.075016655 0.024262723 13093056
0.34999996 0.074915782 0.029240038 12829885
0.34878433 0.082869336 0.022975665 12435387
0.35053122 0.083558902 0.027732117 12501180
0.37481955 -0.15467179 0.034819927 13815498
0.3667317 -0.14373071 0.03463158 14605527
0.3707059 -0.14853416 0.036638096 14605013
0.36461967 -0.13490564 0.034985252 14539990
0.36329484 -0.12501681 0.034893088 14671062
0.36169463 -0.1148721 0.034943983 14539989
0.359 -0.10168025 0.030764373 14342865
0.36077699 -0.10521079 0.03529067 14276560
0.35868242 -0.094356231 0.032199252 14211280
0.3604801 -0.095592558 0.037229043 13882314
0.35820627 -0.084783286 0.034546044 14079437
0.36000001 -0.088542417 0.039256666 14211536
0.35777116 -0.074845396 0.034744762 13948108
0.35777211 -0.064793974 0.035016604 13619142
0.35821328 -0.055359505 0.034197021 13356226
0.3601819 -0.052045785 0.038272891 12961470
0.35886672 -0.048330028 0.031348445 13159104
0.36133593 -0.044785589 0.03536075 12698554
0.36296916 -0.035107501 0.034802556 12040369
0.36292452 -0.024948455 0.034831543 11250854
0.35814282 -0.013865315 0.032187108 11974577
0.36148682 -0.01570899 0.036610227 11250596
0.3569842 -0.0051281177 0.034918267 11579562
0.36000001 -0.0093223732 0.038919561 11185062
0.35571191 0.0046924278 0.034965213 11382697
0.35437423 0.014925326 0.035054352 11448232
0.35320154 0.025083944 0.035203204 11711405
0.35290921 0.035124946 0.035078838 12106162
0.35288361 0.045061104 0.035158329 12040368
0.35247606 0.055023875 0.035031512 12369333
0.35256886 0.065046296 0.03502655 12500918
0.35236123 0.074971266 0.035050824 12566713
0.35280243 0.082798317 0.035232469 12632509
0.37527275 -0.15242495 0.044028506 13815240
0.36831817 -0.14183706 0.0423127 13684425
0.37172374 -0.14557667 0.045878127 14078926
0.36730009 -0.13478865 0.044844177 14473685
0.37 -0.13933459 0.049355362 13947340
0.36545599 -0.12486833 0.044857081 14342355
0.36468777 -0.11503799 0.04513707 14145232
0.36327857 -0.10499118 0.045069385 14144975
0.36196053 -0.09502846 0.044799857 13947850
0.359 -0.082152031 0.040697739 13750985
0.36110485 -0.085107937 0.045460068 13684936
0.35900012 -0.075101763 0.04116464 13422276
0.36072233 -0.074898779 0.046431713 13158592
0.35900012 -0.065660983 0.041024569 13224639
0.36098164 -0.064866327 0.046140838 13093055
0.35900003 -0.059133712 0.040324215 13816776
0.36208138 -0.054903794 0.044979129 12829883
0.36532846 -0.045089215 0.044784602 12566967
0.37020001 -0.040958859 0.048689097 12698300
0.36775008 -0.035533559 0.041918878 10988194
0.37121955 -0.034575641 0.046871111 6448736
0.367865 -0.024530243 0.041507922 9803921
0.37135717 -0.025236141 0.046641678 4673096
0.36559257 -0.014155025 0.044432133 10856097
0.37065211 -0.018479737 0.047670309 8553599
0.35864708 -0.0029961418 0.040877674 11119012
0.36193261 -0.0052885795 0.04549263 11119012
0.35822847 0.0054581403 0.042431686 10987426
0.3607704 0.0040645762 0.047475651 10855839
0.35781136 0.014892269 0.044122312 10790304
0.36024147 0.014044857 0.049042758 11053476
0.35712227 0.024753878 0.04512449 11382441
0.35699984 0.034798779 0.045121435 11645868
0.35661379 0.044967502 0.04499827 11645867
0.35675737 0.055046998 0.045092877 11909039
0.35681212 0.065116495 0.04508752 12171699
0.35653064 0.075058661 0.045000516 12237748
0.36000001 0.079336658 0.049706969 12434873
0.35723534 0.083673716 0.044203021 12238007
0.3605926 0.085096799 0.04888273 12040372
0.37875003 -0.15149684 0.052295871 14276304
0.38178936 -0.15330303 0.056079715 14013646
0.37462357 -0.14451043 0.054971341 14473428
0.38000003 -0.1493275 0.059585162 13882319
0.36887503 -0.13326254 0.051796123 14276304
0.37101147 -0.13544363 0.05597787 14407634
0.36820441 -0.12454318 0.053994201 14144720
0.37017852 -0.12671301 0.058571782 14605270
0.36753234 -0.11505203 0.055137698 14079439
0.36612204 -0.10499273 0.05486574 13882061
0.36484113 -0.094856873 0.054819193 13750216
0.36409342 -0.085171185 0.055251889 13553349
0.36342302 -0.075105205 0.055231411 13487813
0.36394066 -0.064972199 0.055254839 13487813
0.36507073 -0.055061296 0.055045854 13685191
0.36756822 -0.046733856 0.054743066 13487813
0.37064588 -0.04203406 0.055660065 12961727
0.3717269 -0.035014577 0.055068281 3488308
0.37155318 -0.025104353 0.055212874 2435366
0.36816075 -0.012041248 0.054682676 12764351
0.37089175 -0.0172472 0.055425517 8816260
0.36558422 -0.0049339836 0.054987643 12763836
0.36334085 0.0047920151 0.055278044 11843249
0.36199227 0.014944857 0.05507306 11316648
0.35900006 0.027220009 0.050934587 11514027
0.36128458 0.024746293 0.055475075 11513769
0.35878572 0.034524333 0.050979532 11645869
0.36137268 0.035258997 0.055898543 11514281
0.35886374 0.045251817 0.050772186 11908784
0.36192179 0.045046482 0.055968303 11514025
0.35900003 0.05456385 0.050529383 12106163
0.36153033 0.055062573 0.055526547 11909039
0.359 0.065249264 0.050409321 12171956
0.36179644 0.06498947 0.055526536 12106162
0.35900006 0.071552455 0.050409321 12566968
0.36203215 0.075083703 0.055124391 11974576
0.36325896 0.08383514 0.05458913 11974578
0.38504884 -0.15243353 0.065355934 14407633
0.3764894 -0.14288938 0.064398848 14078927
0.38147062 -0.14806795 0.065070242 14078669
0.37346867 -0.13510008 0.064819798 14473684
0.37157881 -0.12486862 0.064977542 14276561
0.3688572 -0.11309248 0.061508145 14145232
0.37071285 -0.11553486 0.066071369 14276305
0.3683587 -0.104205 0.063808277 14276561
0.37023333 -0.10720989 0.067790553 14342354
0.36773092 -0.095087312 0.065201454 14013902
0.36612114 -0.084861122 0.065045148 13948108
0.36547953 -0.075117961 0.065188691 13948108
0.36533359 -0.065198191 0.064905837 14079949
0.36649275 -0.055152286 0.065112986 13948364
0.3681972 -0.047711238 0.06470415 13685192
0.37077287 -0.0428828 0.065398075 13027007
0.36899999 -0.030786594 0.068994202 2370341
0.37103805 -0.035370413 0.06475623 3619638
0.36900002 -0.025579581 0.067679219 2435620
0.37039462 -0.024537267 0.063279733 2501158
0.3687 -0.011101773 0.06256146 12829116
0.37074092 -0.015767399 0.065464087 8553088
0.36768857 -0.0049917246 0.065003663 12237749
0.37 -0.0091193682 0.068988696 12369337
0.36641705 0.0048330924 0.06518317 11579562
0.36536396 0.015084493 0.064996071 10987683
0.36488029 0.025053727 0.06481459 11185318
0.36567953 0.034936793 0.065147184 11382696
0.36598474 0.044989977 0.06502939 11251109
0.36633331 0.054830536 0.064713202 11645355
0.37 0.058586773 0.069277421 11447977
0.36658594 0.0647422 0.06433031 11777197
0.37016666 0.065980338 0.069164254 11514282
0.36719701 0.074607037 0.063144006 11645612
0.37080002 0.075352348 0.068020329 11711661
0.3679091 0.08340288 0.06194523 11908785
0.37156504 0.084836438 0.066927083 11777199
0.37333336 0.090140872 0.068154365 12433590
0.38800001 -0.1521005 0.073640376 13552583
0.37800002 -0.14169542 0.073246077 13750218
0.38348389 -0.1461021 0.075738259 13421253
0.37655127 -0.1348087 0.074574701 14013133
0.38033333 -0.13936792 0.078928977 13158338
0.37497392 -0.12514888 0.074788183 13881804
0.37323487 -0.11486837 0.074973494 14013133
0.37133035 -0.10503022 0.074717559 14144719
0.36869061 -0.093324043 0.072485298 14013646
0.37060782 -0.095997058 0.076850109 13684425
0.36816981 -0.084810443 0.07442677 13816266
0.36999995 -0.086956359 0.079111069 13092801
0.36765912 -0.075082786 0.074788339 13750216
0.36736658 -0.06484805 0.074840412 13684937
0.36765304 -0.055040389 0.074795566 13685192
0.37 -0.050407123 0.079382822 13750471
0.36866674 -0.048642505 0.073286548 13816778
0.3710303 -0.044340055 0.075550765 12764092
0.36846951 -0.031603537 0.075378917 2370340
0.37110242 -0.036815062 0.074646272 4079930
0.36819169 -0.024912091 0.07500688 2106912
0.37 -0.020668389 0.07057669 2566437
0.36874998 -0.019519355 0.077675015 2435621
0.37119505 -0.014899953 0.074663006 7763571
0.36885187 -0.0027913617 0.072197065 12105906
0.37067032 -0.0057429369 0.07611604 11842736
0.3683874 0.0050346465 0.073159926 11514024
0.37046158 0.0046233977 0.078304566 11185061
0.36819044 0.015202359 0.073250569 11185061
0.37059096 0.014868028 0.078498513 10724768
0.36805001 0.024690578 0.072619416 11250854
0.37071687 0.025143575 0.077672079 11185318
0.36844456 0.034793153 0.071919873 11185062
0.3715075 0.034989588 0.076885268 10921889
0.36873335 0.043166235 0.07122723 10724767
0.37238064 0.045185111 0.075777628 10922402
0.37264863 0.05508057 0.074736424 11119526
0.37338948 0.065030135 0.074673563 11316904
0.37447166 0.074918374 0.074872285 11119523
0.37453571 0.083650485 0.07355924 11513769
0.37400001 0.090301841 0.070026368 12564404
0.38900003 -0.15013224 0.081030823 12500664
0.38581827 -0.14355072 0.083943717 12369078
0.37887499 -0.13170087 0.081250161 13224130
0.38224706 -0.1351373 0.085200503 12631994
0.37811124 -0.12439207 0.08248543 13290180
0.3809399 -0.12556653 0.087397471 12698045
0.37721959 -0.11479732 0.083989106 13026751
0.38031587 -0.11613595 0.088640749 12237494
0.37553784 -0.10492969 0.084782265 12698044
0.37419385 -0.094854489 0.084983833 12565944
0.37246248 -0.084986739 0.0849742 12697787
0.36899999 -0.072118729 0.080643997 13092288
0.37111488 -0.075111598 0.085221238 12829629
0.36863273 -0.064938441 0.081597269 13421507
0.37080023 -0.064972416 0.086859904 13026494
0.36892003 -0.056708239 0.081201039 13421250
0.37080383 -0.054534569 0.085859507 13552836
0.37266943 -0.044787999 0.084973797 12105392
0.3682321 -0.031653848 0.084694088 2370340
0.37177944 -0.036771365 0.085099168 4540225
0.36768955 -0.024844846 0.084766738 1646618
0.36790478 -0.018499613 0.085595354 2435363
0.37318078 -0.013387277 0.084287412 8685184
0.37325007 -0.0051932926 0.085098162 11250855
0.37300026 0.0049234796 0.085128561 10855840
0.37334323 0.014816742 0.084907688 10132373
0.37439445 0.025066668 0.08473064 10461851
0.37640971 0.034394518 0.084202789 10527389
0.38077781 0.037316658 0.088282242 10263959
0.37743762 0.045074388 0.082453929 10330010
0.38179991 0.044675335 0.087320708 10066837
0.37783787 0.054629315 0.08155223 10856353
0.38216132 0.055159058 0.086465091 10132631
0.37792858 0.065002233 0.081780709 10461338
0.38185003 0.061756603 0.086026393 9935251
0.37815395 0.07417988 0.081733987 10198166
0.38060004 0.077995837 0.083201796 10921374
0.38800001 -0.14066315 0.09081398 11645357
0.38663638 -0.1339971 0.092185549 11842993
0.39280006 -0.13270047 0.097687349 11250856
0.38591892 -0.12395717 0.093144149 11842736
0.39167857 -0.12549576 0.098127306 10988197
0.38482195 -0.11463045 0.094441071 11448235
0.39039999 -0.11777048 0.099235922 10987684
0.37870592 -0.10287455 0.091142416 11711407
0.38203567 -0.10595721 0.094583191 11119270
0.37819156 -0.094951212 0.09175957 11316391
0.38251612 -0.094928063 0.09612222 10658462
0.37690207 -0.084479228 0.092632145 11382183
0.38234368 -0.085306264 0.097575977 10921889
0.37594202 -0.074881174 0.094252929 11711148
0.38058338 -0.077240922 0.099176042 11579563
0.3746759 -0.065016173 0.09509448 12171186
0.3739109 -0.055118024 0.094900057 12697785
0.37478918 -0.044950258 0.094883919 11250340
0.3672075 -0.032176636 0.094993241 2304803
0.37242624 -0.036933035 0.094688259 5395278
0.3658458 -0.025116686 0.095075987 2041119
0.36675799 -0.017895676 0.095019728 2303523
0.37488464 -0.012225861 0.094816446 9672336
0.37718871 -0.0053416924 0.094771639 10461339
0.38000003 -0.0025456713 0.099616572 9276808
0.37718081 0.0043889489 0.093670852 9935766
0.38099998 0.0062468704 0.098341636 9080200
0.37797147 0.014635474 0.091653205 9541007
0.38212311 0.015609287 0.096531071 8883078
0.37852946 0.02431001 0.090682745 9409421
0.38340005 0.025204087 0.095284835 8883076
0.37900001 0.030289123 0.090481959 9409420
0.38548276 0.035369407 0.093704969 9408908
0.39100003 0.035998072 0.098553397 9803661
0.38687152 0.045019448 0.093493298 9145477
0.39000002 0.040298197 0.097673066 10790553
0.38584617 0.052370384 0.09135738 9342599
0.38500002 0.060511269 0.090111807 8816256
0.39475 -0.13179025 0.10094209 10856096
0.39355314 -0.12429136 0.10217081 10263704
0.38900003 -0.11006338 0.1001546 10659489
0.39310753 -0.11491817 0.10365168 10198424
0.38900003 -0.10793851 0.1001546 10264475
0.39638093 -0.10511595 0.1044005 9803409
0.38900003 -0.090939596 0.1001546 9671822
0.39417458 -0.094406039 0.10441034 9737359
0.3876875 -0.083317518 0.10378981 10527131
0.39342862 -0.086979784 0.1069024 10066580
0.37900001 -0.070856899 0.10024166 12040113
0.38418311 -0.075048447 0.1048999 10329497
0.37819058 -0.063413508 0.10158791 11447977
0.38201725 -0.065577224 0.10631739 10461082
0.3774038 -0.054639384 0.10237142 11579561
0.38099992 -0.055403944 0.10731968 10461082
0.37796164 -0.045272071 0.10245362 10658460
0.38099989 -0.044842809 0.10767755 9934738
0.36685005 -0.032002512 0.10243925 1844509
0.37438336 -0.036235176 0.10475765 5330255
0.38000003 -0.039463528 0.10851245 9408395
0.36445165 -0.024996806 0.10244816 1580567
0.37200001 -0.029488698 0.10796968 857613
0.3657608 -0.017059404 0.10269482 3881010
0.37714288 -0.011604331 0.10189484 9277320
0.37900001 -0.0083947945 0.10059656 9868944
0.38284338 -0.0048673213 0.10474337 9408648
0.38590121 0.0044985139 0.10457595 8882049
0.38606256 0.014261398 0.10306002 9145731
0.38795239 0.022575358 0.10161487 9211268
0.39129412 0.0277173 0.10247072 10132368
0.3938612 0.033708442 0.10251015 10198418
0.38900003 -0.079101071 0.11017182 9145475
0.384 -0.06302692 0.11055362 10329237
0.38300002 -0.051991384 0.11071403 9276806
0.3822 -0.044043995 0.11146672 9145221
0.37432402 -0.03243535 0.11561678 1186323
0.3806667 -0.038790658 0.11167278 9145735
0.375065 -0.025483239 0.11601739 660234
0.38009098 -0.023213744 0.11205695 725771
0.37348077 -0.01780379 0.11680327 1053963
0.38000003 -0.019225426 0.11207078 659466
0.38800001 -0.0016909494 0.11079691 9737610
0.38900003 0.0010366604 0.11017182 9671817
0.36899999 -0.030507375 0.12681012 1054735
0.37015647 -0.032863129 0.12492787 1317908
0.36835715 -0.02471468 0.1264466 1317651
0.37052098 -0.025340647 0.12204993 1515543
0.36846358 -0.017551908 0.12623373 1054479
0.37058973 -0.016675385 0.12239634 988684
0.35800001 -0.032150287 0.13994394 2107680
0.36602989 -0.032031059 0.13685592 1252116
0.37017643 -0.032964185 0.13190831 1647900
0.35790911 -0.023803525 0.13967845 1975838
0.36615434 -0.02505591 0.13565251 1449495
0.35736367 -0.016717298 0.13931267 1843995
0.36620006 -0.018374017 0.1364695 1120532
0.37240747 -0.015544163 0.13671474 1120533
0.37500003 -0.0095352298 0.13956627 10132627
0.34900001 -0.032567561 0.14908955 1778454
0.35317773 -0.032617453 0.14418553 2041628
0.35290268 -0.025124876 0.14426112 1975835
0.35239685 -0.016100651 0.1447815 1843993
0.36750001 -0.013644976 0.14064699 1646873
0.37393337 -0.0123089 0.14092006 1317652
0.37400001 -0.0095098028 0.14006963 9079939
0.34640747 -0.032236051 0.15476546 1778458
0.34546667 -0.029595304 0.15611595 1844252
0.33841932 -0.032040261 0.16814259 1647130
0.34106386 -0.031893231 0.16367321 1844251
0.33809236 -0.025091363 0.16821304 1778715
0.34044737 -0.025228256 0.16435114 1778458
0.33790362 -0.015569501 0.16731822 1515287
0.34023258 -0.016782416 0.16389397 1581079
0.33328485 -0.024836063 0.17494787 1844251
0.80900002 -0.22889785 0.35980135 2831405
0.81515402 -0.22652353 0.35636458 2830381
0.80696535 -0.22584438 0.36586425 2173475
0.8125385 -0.22243045 0.36180905 2699306
0.81486672 -0.21847048 0.36647174 2829610
0.80641925 -0.22524162 0.37515676 1317655
0.80840003 -0.2192657 0.37467295 2238499
0.81460005 -0.21590431 0.37510163 2566695
0.8203001 -0.21212316 0.37366015 2499877
0.80728567 -0.22490093 0.385093 988688
0.80871433 -0.21908037 0.38563851 988435
0.81353128 -0.21398222 0.38466513 1843487
0.82000005 -0.21089421 0.38101047 3618872
0.81750005 -0.20929259 0.38941601 2237219
0.80663621 -0.22496685 0.39582869 857616
0.80739993 -0.21604532 0.39613342 1054484
0.81133342 -0.21233565 0.39337832 1383193
0.80800003 -0.20969948 0.39907899 1382423
0.8163572 -0.20858948 0.3956942 1907998
0.82171988 -0.20340672 0.3947742 7040102
0.80709523 -0.22485054 0.40511253 923408
0.80631995 -0.21462448 0.40542299 923154
0.80777782 -0.20901054 0.4059028 1251091
0.81489486 -0.2065625 0.40458968 1907996
0.8218888 -0.20218411 0.40476167 7303275
0.83464271 -0.18535049 0.40505031 9935248
0.80850005 -0.22213247 0.41068223 989201
0.81176478 -0.22543238 0.41547358 857615
0.80799997 -0.21423919 0.41345564 923152
0.81022227 -0.21596594 0.41703713 988945
0.80800003 -0.20969948 0.41326559 1185297
0.81468409 -0.20650883 0.41492629 2368801
0.82143754 -0.2015263 0.41496965 8355960
0.80900002 -0.22889785 0.42987505 528650
0.81345171 -0.22493581 0.42566398 726030
0.81334776 -0.21464455 0.42515075 857362
0.81690907 -0.20783614 0.42399514 1580057
0.82172227 -0.20310405 0.42551953 7830642
0.80699992 -0.22651584 0.43553516 791565
0.81058341 -0.22254479 0.43308613 594189
0.81455177 -0.21605864 0.43466261 856849
0.81999999 -0.21153408 0.43763971 790029
0.82357687 -0.20498291 0.43502408 7567215
0.80612499 -0.22674419 0.44493592 922638
0.81154555 -0.22184376 0.4455615 988176
0.81681824 -0.21772185 0.44445857 987920
0.82125002 -0.21325573 0.44587785 3684916
0.80525005 -0.22641936 0.45321125 987918
0.81425017 -0.22195679 0.4541032 1053197
0.82000005 -0.22049239 0.4587557 5921618
0.81700003 -0.21968572 0.45133948 987918
0.8233462 -0.21478587 0.45521575 7040612
0.81999999 -0.22049241 0.46259499 8158836
0.82580018 -0.21477392 0.46462891 8290680
