# .PCD v0.7 - Point Cloud Data file format
VERSION 0.7
FIELDS x y z rgb
SIZE 4 4 4 4
TYPE F F F U
COUNT 1 1 1 1
WIDTH 1196
HEIGHT 1
VIEWPOINT 0 0 0 1 0 0 0
POINTS 1196
DATA ascii
0.54500002 0.049296945 -0.070196621 13223104
0.54550004 0.053173833 -0.070261016 14342355
0.551 0.059513915 -0.070969425 15526626
0.55607146 0.066391639 -0.071717449 15395039
0.56 0.068351828 -0.075874262 13552836
0.55700004 0.075712211 -0.072582498 15527139
0.56007689 0.07300058 -0.075769633 14211280
0.54825008 0.086168446 -0.070936531 14935005
0.55244452 0.082800888 -0.073025823 15198176
0.54400003 0.018642161 -0.061153226 11182751
0.54388243 0.026614387 -0.062339019 13815240
0.54264098 0.035218827 -0.063477598 14144203
0.53900003 0.045026157 -0.060935285 15197146
0.54080766 0.04546316 -0.064010195 15262939
0.53900003 0.054180007 -0.060591154 15328732
0.54373342 0.055252686 -0.065148287 15197403
0.53862506 0.065110214 -0.060549002 15526110
0.54507142 0.064475372 -0.064241499 15460318
0.55186665 0.06538064 -0.068411671 15262939
0.5382728 0.074978612 -0.06085353 15789281
0.54443473 0.075424105 -0.064144455 15855075
0.5524376 0.07502304 -0.068246007 15855076
0.53900003 0.08219216 -0.06059115 15789794
0.54396087 0.085340783 -0.065178409 15724004
0.55133337 0.080630787 -0.069291718 15855590
0.54290462 0.094437227 -0.064029559 15066075
0.54266667 0.10096052 -0.061427068 13486789
0.54286677 0.0061026788 -0.051791437 15130584
0.53841674 0.015823329 -0.050967589 14867668
0.54282981 0.014856554 -0.055890501 14341069
0.53697062 0.025163753 -0.053157505 14802389
0.54161549 0.023873297 -0.057912614 14933718
0.53464007 0.035115823 -0.054432064 14999767
0.54037499 0.033064879 -0.059164658 14999767
0.5343861 0.045030124 -0.05506077 15131865
0.52900004 0.057137687 -0.050798226 15131094
0.53469396 0.054737218 -0.055572066 15262938
0.52900004 0.065187275 -0.05079823 15065042
0.53383684 0.065051459 -0.055633694 15526109
0.52900004 0.071379274 -0.050798226 15327701
0.5328868 0.075138934 -0.05506511 15855074
0.53501832 0.085160822 -0.055169474 15855076
0.53561705 0.095038414 -0.054538924 15328989
0.54042858 0.095966503 -0.059305999 14934489
0.53450006 0.10110456 -0.053421974 14144973
0.54050004 0.10076804 -0.058862381 13618631
0.551 -0.022673534 -0.040932156 11578019
0.54587507 -0.01415382 -0.042566415 14406606
0.5383637 -0.0030345111 -0.041271772 15393242
0.54156673 -0.0050236653 -0.044526894 15261657
0.5359 0.0051542213 -0.043845888 15196120
0.54138887 0.0028494592 -0.048117016 15327706
0.52747619 0.015807968 -0.041715343 14603983
0.53360534 0.014173117 -0.046350557 14932947
0.52514297 0.026100781 -0.043439452 14604240
0.53134781 0.023749424 -0.047780048 14867668
0.51814288 0.035256017 -0.041264944 14802131
0.52422732 0.034782711 -0.046137951 14933717
0.51777273 0.045568243 -0.042173192 14933717
0.52437836 0.044729419 -0.0468789 14802388
0.51800007 0.05534324 -0.042467605 14933718
0.52446884 0.054805074 -0.047298193 14802388
0.51764715 0.064750299 -0.041939028 15262938
0.52352512 0.06497182 -0.046633013 15130839
0.51775008 0.074708804 -0.041840397 15328732
0.52434146 0.075045086 -0.046675984 15525340
0.51825005 0.084564053 -0.041804723 15591647
0.52457911 0.084966585 -0.046406582 15788769
0.53000003 0.08826419 -0.049653511 15526111
0.51850003 0.094694749 -0.040534731 15460319
0.52420467 0.095301323 -0.044964459 15197146
0.53012502 0.095110543 -0.04966522 15197147
0.52399999 0.10261718 -0.043695688 14736596
0.53050005 0.1013881 -0.049700353 14933977
0.55823529 -0.0435622 -0.031159092 14801617
0.55464715 -0.03476974 -0.03370906 15459549
0.54783332 -0.021839822 -0.033301398 15656671
0.55111772 -0.025817866 -0.035276353 15985636
0.53755563 -0.012550089 -0.031626713 15327449
0.54484791 -0.015689306 -0.035801057 15590621
0.52742863 -0.0023002676 -0.03159846 14998485
0.53488642 -0.0055250442 -0.035262857 15130070
0.54120004 -0.0094542382 -0.038286973 15327705
0.51866668 0.0084645748 -0.030783618 14670033
0.52471435 0.0053306217 -0.034449656 14735826
0.53138471 0.0024670432 -0.038301256 15196120
0.5172084 0.015856061 -0.031960592 14604241
0.52322495 0.014681746 -0.036897466 14604240
0.50849998 0.029329114 -0.030973557 14539218
0.51524442 0.025360884 -0.034477115 14473168
0.52139997 0.022626746 -0.038230125 14538448
0.50644445 0.036059007 -0.031772662 14736597
0.51318759 0.034677908 -0.036347959 14670546
0.50580007 0.045022696 -0.032538515 14802388
0.51239401 0.044982068 -0.037867833 14867668
0.50615394 0.054898206 -0.032201681 14999510
0.51238465 0.055066682 -0.037275046 14933717
0.50659996 0.065011702 -0.031999495 15262939
0.513381 0.064949408 -0.037257425 15197146
0.5065769 0.07505776 -0.032091036 15526111
0.51328582 0.075007379 -0.03736525 15460575
0.50650007 0.084944226 -0.032040194 15526111
0.51324391 0.085005537 -0.037219387 15460575
0.50708336 0.093452848 -0.031382978 15263197
0.51348895 0.095076561 -0.035935286 15328989
0.51624388 0.10442898 -0.034192573 14408401
0.5204286 0.10703404 -0.037270099 14605267
0.51850003 0.11062538 -0.030976351 12631732
0.5625 -0.061050631 -0.021094561 15722465
0.55883336 -0.051276509 -0.022483787 16117477
0.56072736 -0.055132691 -0.023473382 15591133
0.55575001 -0.045063674 -0.024901422 16117478
0.5455417 -0.033779167 -0.022057906 15985892
0.55233335 -0.035669427 -0.026894037 16117222
0.53716666 -0.023720905 -0.022103434 15196119
0.54452777 -0.025428697 -0.026304789 15656671
0.55033332 -0.029024376 -0.029227486 16116965
0.51800001 -0.010746036 -0.020638393 14933204
0.52535003 -0.013054356 -0.023087781 14867412
0.53378129 -0.016310498 -0.02591964 15064534
0.54100001 -0.018822121 -0.029153714 15524828
0.509 -0.0010267034 -0.02027981 14867411
0.51570004 -0.0044252519 -0.022644617 14801619
0.5237931 -0.0059223082 -0.027004445 14867411
0.53075004 -0.0088369027 -0.029533666 14735825
0.50565219 0.0061295186 -0.021333015 14538448
0.51431113 0.0046856441 -0.025904687 14670034
0.52075005 0.0010822631 -0.028977223 14933206
0.49820003 0.017653463 -0.021716241 14406862
0.50445163 0.014790385 -0.024256313 14472655
0.51194453 0.014543583 -0.028188553 14538448
0.49521875 0.02518604 -0.022526205 14472912
0.50430006 0.024718991 -0.027456928 14538448
0.5104 0.02286618 -0.029894436 14407119
0.48828575 0.03559215 -0.02059759 14802390
0.49470207 0.035100136 -0.02437729 14605010
0.50231254 0.034333963 -0.028761018 14736595
0.48730001 0.044876203 -0.020670483 14802390
0.49451026 0.044976681 -0.024841841 14670803
0.50111109 0.044741545 -0.029350379 14802388
0.48822224 0.05502354 -0.020594912 14802388
0.49420008 0.054789294 -0.024508057 14671059
0.50119996 0.055541936 -0.028809344 14802131
0.48900005 0.064837217 -0.02062772 14934487
0.49451163 0.064989232 -0.024340335 15000023
0.50188249 0.06505958 -0.028844042 15065047
0.49442312 0.075015374 -0.023717787 15131866
0.50188243 0.075080656 -0.02877477 15328732
0.49597773 0.084895931 -0.023587033 15197659
0.50238097 0.085566968 -0.028531155 15592161
0.49804166 0.093777366 -0.022613896 14934488
0.50321633 0.095776558 -0.02693266 14802903
0.50436366 0.10341971 -0.024077086 14342351
0.51154548 0.10522506 -0.028764416 14144971
0.56685716 -0.072678335 -0.012916354 15130326
0.55900002 -0.060670178 -0.011148587 15787996
0.56287497 -0.064336471 -0.01487854 15919584
0.54700005 -0.051044289 -0.010268994 16248035
0.55514646 -0.053964105 -0.014328402 15985120
0.56046152 -0.057549044 -0.017789308 16116964
0.53722227 -0.042448644 -0.011204698 15327449
0.54541934 -0.044597637 -0.014403536 15656413
0.55233341 -0.047233727 -0.017698063 16051172
0.52733338 -0.032134455 -0.0115463 15327706
0.5349412 -0.034928359 -0.014544592 15525084
0.54291672 -0.036899623 -0.018242704 15524828
0.51566666 -0.022573808 -0.011694429 14998998
0.52480775 -0.024922658 -0.014488577 15130583
0.53299999 -0.026450578 -0.017702784 15393755
0.50494736 -0.013156953 -0.01190827 14801876
0.51432264 -0.014826487 -0.015488666 14933205
0.52323079 -0.017171336 -0.018398635 15064791
0.53000003 -0.019680155 -0.019875765 14998997
0.49681476 -0.0040653902 -0.012173267 14736340
0.50437039 -0.0052589425 -0.015990337 14867412
0.51170003 -0.0077431463 -0.018352572 14933205
0.48766667 0.0070051826 -0.010677552 14341839
0.49443996 0.0047898968 -0.014246773 14604498
0.50199997 0.0032318621 -0.018284407 14670034
0.48583794 0.015615555 -0.012168721 14341582
0.4939535 0.014703547 -0.017267713 14406862
0.5 0.01069654 -0.019921228 14670034
0.47770005 0.027215734 -0.010646279 14538705
0.48431045 0.025178526 -0.014616781 14407632
0.49115387 0.023153292 -0.018773731 14407119
0.47624245 0.035018399 -0.011579608 14539218
0.48366669 0.03504223 -0.016802108 14671060
0.47608343 0.044735588 -0.012471419 14539732
0.48299995 0.044865213 -0.017263474 14736853
0.47618183 0.054776859 -0.012287796 14605523
0.48369995 0.05530094 -0.017240675 14671061
0.47712502 0.064290255 -0.011099924 14737109
0.48369104 0.065396622 -0.016255828 14934489
0.47866669 0.071872137 -0.010106717 14802901
0.48412868 0.075104326 -0.014882638 15131610
0.49000001 0.078734979 -0.019522805 15131866
0.48615563 0.084329471 -0.01307859 14868694
0.49137035 0.086221486 -0.017917275 15066073
0.48775005 0.09164907 -0.011012517 14671316
0.49337104 0.09537448 -0.015494141 14802903
0.49643639 0.10418621 -0.014315605 14277073
0.50050002 0.10619912 -0.019209292 14079436
0.49650002 0.11058079 -0.011064999 13487047
0.56379998 -0.082969867 -0.0023384991 16116963
0.55783337 -0.071862973 -0.00046100651 15919585
0.56316006 -0.075307868 -0.0048351423 16051169
0.54800004 -0.061401803 -0.00066618191 15590620
0.55484378 -0.064118817 -0.0037246649 15788253
0.56110525 -0.067364752 -0.0071481899 15985631
0.53727281 -0.051623341 -0.0020858443 15261656
0.54503226 -0.054895379 -0.004516494 15393240
0.5521667 -0.058098633 -0.0072446293 15854045
0.51850003 -0.041101854 -0.00063090521 15327962
0.52487504 -0.043147501 -0.0027918553 15262169
0.53341669 -0.046242964 -0.0052314848 15196120
0.54300004 -0.048976909 -0.0084997825 15524312
0.50700003 -0.03164693 -0.00049811846 15064790
0.5153529 -0.034575425 -0.0033646589 15196376
0.52408695 -0.035785016 -0.0078164041 15261913
0.53066665 -0.039167356 -0.0095487824 15130070
0.49683332 -0.022425987 -0.0010903272 14801874
0.50468576 -0.024884814 -0.0040125507 14933204
0.51272732 -0.02662581 -0.007556227 15130327
0.52100003 -0.029103328 -0.0097808875 15196376
0.48681819 -0.012380164 -0.00085176504 14867669
0.49482608 -0.014646146 -0.0040873666 14801875
0.50268185 -0.016851692 -0.0078879846 14867668
0.47800002 -0.0022712417 -0.00039497475 14473425
0.48428217 -0.0049024322 -0.0029955595 14736340
0.49314284 -0.0058665434 -0.0076117623 14736597
0.47568423 0.0052777086 -0.0019611958 14407632
0.48347631 0.0041684434 -0.0067664129 14473169
0.49000001 0.00015872027 -0.0091989143 14605011
0.46762499 0.017046746 -0.00077477546 14210253
0.47396007 0.01464241 -0.0039813258 14210253
0.48125011 0.013841127 -0.0081909439 14276046
0.46607319 0.025510076 -0.0019966357 14341582
0.47321948 0.024734886 -0.0068636481 14341838
0.48000002 0.020381877 -0.009011182 14341839
0.46546146 0.035165288 -0.0026496197 14473425
0.4714517 0.034861472 -0.0076428107 14605010
0.46512505 0.044878084 -0.0032488264 14539473
0.47112 0.045679979 -0.0087580457 14671316
0.46594834 0.054673001 -0.0030203268 14408400
0.47103575 0.055287231 -0.0082937572 14539729
0.46753329 0.063709304 -0.0017383245 14539987
0.4722392 0.065765023 -0.0060602329 14802901
0.47481692 0.074694619 -0.0043528825 14802901
0.48025003 0.078854725 -0.0084540313 14671315
0.47682047 0.083875537 -0.0022578018 14737108
0.48137137 0.085898995 -0.0068183122 14868694
0.47900003 0.090984315 -2.1627555e-05 14540499
0.48495317 0.094747208 -0.0044834008 14474450
0.49025002 0.098859631 -0.008343284 14474450
0.48805261 0.10298903 -0.0014059477 14408658
0.49186 0.10556442 -0.0057840138 14277328
0.49340001 0.11035013 -0.0053509027 13750474
0.5759092 -0.10264564 0.0081856484 16578027
0.56799996 -0.091654778 0.0059128921 16116704
0.57336837 -0.0973083 0.0064694504 16380134
0.55760002 -0.081274167 0.0080663171 15985377
0.56248724 -0.085348636 0.0050370847 15984863
0.54759997 -0.071356639 0.0084357141 15327448
0.55455267 -0.075018793 0.0051958011 15787741
0.56 -0.0789138 0.0021596651 16050913
0.53777778 -0.061795149 0.0079474049 15393242
0.54493338 -0.064759344 0.0050737429 15459034
0.55190003 -0.068298347 0.0025569894 15524826
0.52653337 -0.052014016 0.0081916386 15327449
0.53381085 -0.055457901 0.0052725472 15261655
0.54183334 -0.058597311 0.0020879142 15459034
0.50800002 -0.040269513 0.0088951718 15130326
0.51513332 -0.043010876 0.0060419282 15261912
0.52317393 -0.047226578 0.0044980031 15327449
0.53000003 -0.049457904 0.0012168093 15261656
0.49769238 -0.031925317 0.0073249042 15064790
0.50433326 -0.034900531 0.0051560155 15130327
0.51145458 -0.038259163 0.002696106 15327706
0.47550002 -0.021553652 0.0094391694 14735826
0.48476192 -0.022974687 0.0066737584 14736082
0.49383333 -0.02617597 0.0043703634 14802131
0.50133336 -0.028787419 0.0015411641 15064791
0.46799996 -0.013290375 0.0090347072 14670803
0.47393754 -0.015450685 0.0066992976 14670546
0.48345453 -0.015849257 0.0024450722 14736338
0.49000001 -0.019341959 0.0011249746 14736595
0.4655883 -0.004663216 0.0080522541 14539217
0.47369769 -0.00565125 0.0036068095 14605011
0.48033336 -0.0088409437 0.0011027813 14801620
0.45759258 0.0060159415 0.0085074073 14210252
0.46433339 0.0055106138 0.0047568842 14341838
0.47175005 0.0032757267 0.00145081 14473425
0.45658141 0.015534372 0.007505049 14144459
0.46307692 0.01470897 0.0028361538 14210253
0.45591307 0.025203224 0.0063267974 14341838
0.46106246 0.024095476 0.0015972647 14276046
0.45506582 0.035020255 0.0057119606 14408145
0.45999998 0.035147224 0.0010560985 14407632
0.45551315 0.044964124 0.0056904079 14342352
0.46000001 0.045915902 0.0010560985 14408145
0.45672229 0.054224029 0.006684314 14145486
0.46134618 0.056355301 0.0023450383 14211280
0.45861545 0.061841581 0.0085675875 14277328
0.46326157 0.065574326 0.004892231 14342865
0.46662262 0.074290797 0.0066290572 14671572
0.47082615 0.076830313 0.0024692791 14803159
0.46864286 0.082435243 0.0087551493 14671830
0.47251675 0.085478134 0.0048182528 14474450
0.47583342 0.093890101 0.0067021139 14342865
0.48136365 0.097070225 0.0030494682 14211791
0.47800002 0.10086542 0.0089304708 13816778
0.48421672 0.10497674 0.0048596286 14079951
0.48750001 0.11028642 0.0033947043 13224390
0.57550007 -0.11250434 0.017488675 15394012
0.56783336 -0.10228496 0.018251078 16182241
0.5727222 -0.10525114 0.014158239 16050913
0.55900002 -0.091422968 0.019167988 15853277
0.56393623 -0.09482003 0.015216603 16116448
0.57033336 -0.098172344 0.011100327 16577255
0.54800004 -0.080643795 0.018575817 15524312
0.554658 -0.08432851 0.015449208 15590360
0.5608182 -0.08790192 0.012147333 15721945
0.53775007 -0.071741298 0.018071789 15261654
0.54497373 -0.074931823 0.014708961 15458776
0.55114287 -0.078158297 0.011956111 15524825
0.52700001 -0.061620072 0.017761309 15524569
0.5344615 -0.065342851 0.0145337 15459033
0.54228574 -0.06892217 0.011398011 15393241
0.509 -0.051072985 0.019042268 15261656
0.51709092 -0.053646978 0.017581321 15130070
0.52427787 -0.055678997 0.014393747 15327448
0.53033334 -0.059007589 0.011563313 15327449
0.49643755 -0.04298928 0.018714946 15196119
0.50460011 -0.04387372 0.015137274 15195863
0.514 -0.046887152 0.013029255 15327449
0.52100003 -0.049837723 0.011562174 15459035
0.47414288 -0.031879902 0.019162899 14868181
0.48452628 -0.032739282 0.016151477 14998997
0.49454546 -0.035627872 0.013970007 15064534
0.50200003 -0.038489684 0.011858781 15261656
0.45900002 -0.020267339 0.019320766 14539218
0.46589997 -0.023267617 0.017461684 14605011
0.47380564 -0.025606891 0.014576871 14736082
0.48400003 -0.027495096 0.011420575 14867411
0.49100003 -0.029726392 0.010322789 15064277
0.44900003 -0.011627072 0.019740727 14408145
0.45578384 -0.013958576 0.017275242 14539218
0.46392855 -0.015733087 0.013291197 14539218
0.47050002 -0.019123537 0.010993246 14473425
0.44732156 -0.00438372 0.018639056 14407888
0.45470843 -0.0054637906 0.014471981 14473681
0.460875 -0.0067327218 0.011307377 14473425
0.44586208 0.0052001737 0.017246818 14144973
0.45319515 0.0045148535 0.012317388 14276046
0.43900001 0.019668631 0.019506609 14013387
0.44471011 0.015123278 0.016532924 14078923
0.45163995 0.014652179 0.011522978 14079180
0.43900007 0.025321018 0.019506607 14276557
0.44472477 0.025037864 0.015309754 14210766
0.45117646 0.024311647 0.010975942 14276558
0.43900004 0.033542674 0.019506609 14145484
0.44464064 0.035125915 0.014884946 14408144
0.45000002 0.031222777 0.010514263 14276557
0.44594878 0.044716772 0.015760034 14145228
0.45057145 0.046559136 0.010979263 14276557
0.4480204 0.054002449 0.017378457 13948105
0.45209754 0.05601095 0.012676014 14144972
0.44900003 0.060409486 0.01960058 14079178
0.45554802 0.064903259 0.015309282 14276558
0.46020001 0.068237111 0.011183334 14408144
0.45874998 0.073983327 0.018056821 14737108
0.46222639 0.075632907 0.013693255 14737108
0.46496007 0.084955357 0.015293824 14605780
0.47000003 0.089274801 0.010981563 14408915
0.46740007 0.093691848 0.017388243 14474194
0.47163895 0.095877521 0.013254422 14343122
0.46900001 0.10061319 0.019741697 14144972
0.47516668 0.10333004 0.015053093 13685192
0.48058823 0.10763319 0.011757339 13882058
0.47900003 0.11004723 0.016798588 13881801
0.48128575 0.11073355 0.01285253 11907243
0.57766676 -0.12122198 0.026567621 16314859
0.56800002 -0.11018096 0.029227713 15788000
0.57561219 -0.11515515 0.024968054 15722464
0.55833334 -0.10089961 0.028294085 15261398
0.56541944 -0.10486194 0.025418011 15458777
0.57137501 -0.10866319 0.022378037 15524314
0.54750001 -0.091786616 0.029133828 15656156
0.55457145 -0.094626136 0.025405997 15787741
0.56049997 -0.098393738 0.022116331 15853791
0.53742862 -0.081784964 0.028371278 15459035
0.54543757 -0.084457695 0.025347983 15524570
0.55226678 -0.087306671 0.022382507 15524826
0.52776921 -0.071490303 0.027821319 15459035
0.53330767 -0.075025596 0.025193606 15459034
0.54185718 -0.077928863 0.021538315 15524569
0.49900001 -0.0605831 0.029181669 15064790
0.505 -0.060129337 0.025985906 15261656
0.51800001 -0.062287059 0.026054382 15261913
0.52575755 -0.065849394 0.024812687 15459034
0.53060007 -0.068395138 0.021589257 15327190
0.49470735 -0.054385029 0.027143179 15130583
0.50356251 -0.054650512 0.023033069 15261913
0.51571429 -0.057099603 0.021191355 15327449
0.52200001 -0.059709471 0.020750623 15524828
0.46500003 -0.040126592 0.029370487 14998997
0.47675005 -0.043094125 0.028157309 15064790
0.48531821 -0.044055477 0.025850594 14999254
0.49272722 -0.046474177 0.023182699 15064790
0.45566669 -0.032984696 0.028658718 14801877
0.46509999 -0.034396924 0.025338316 14736596
0.47350001 -0.036014035 0.023185132 14868182
0.48250002 -0.039096143 0.022564942 14868181
0.43839997 -0.021205736 0.029331889 14408145
0.44575858 -0.023790097 0.027286153 14539218
0.45457152 -0.025150599 0.024327537 14605010
0.46373335 -0.027356124 0.021760674 14605010
0.43571424 -0.014122255 0.027138861 14473681
0.44444194 -0.015488866 0.023200598 14473682
0.45200002 -0.017842852 0.020744128 14473938
0.43382859 -0.0050087445 0.026226494 14341839
0.44185716 -0.0055740857 0.021601465 14408145
0.42824998 0.0063184202 0.029387558 14013387
0.43417716 0.0047473758 0.025117159 14078923
0.44053847 0.0039479337 0.020843983 14079180
0.42756 0.015152475 0.02920606 13881801
0.43418062 0.014824886 0.024210798 13947338
0.44000003 0.010958027 0.020581093 13947594
0.42739999 0.024652494 0.028994348 13947851
0.4340125 0.025033912 0.023843044 14079436
0.42799997 0.03136782 0.029370597 14079950
0.43455434 0.035173152 0.024820035 14079949
0.43674594 0.044336107 0.026360543 13816778
0.44106656 0.046438217 0.022177931 13948362
0.43870002 0.051492803 0.028735852 13685192
0.44386089 0.05544503 0.024908694 13816777
0.44743097 0.064168312 0.026087359 14145486
0.4519259 0.067191586 0.022271372 14276814
0.44900003 0.071271032 0.028710261 14737110
0.4545556 0.075336032 0.024651492 14671572
0.45672464 0.084491134 0.026142189 14540242
0.46100003 0.086728498 0.021622289 14473937
0.45833337 0.092782319 0.02807888 14343121
0.4630861 0.095533326 0.023895379 14211278
0.46529171 0.10326701 0.025431564 13750470
0.57425004 -0.12080365 0.032906342 16512237
0.56690633 -0.11416112 0.036465533 15854050
0.57216674 -0.11694334 0.032712393 15919844
0.54800004 -0.10116985 0.035895839 15392726
0.55512506 -0.10338273 0.034006316 15261654
0.56239998 -0.10760532 0.032886669 15721949
0.53573918 -0.093456797 0.037704065 15590620
0.54444832 -0.095461257 0.033767123 15524826
0.55200005 -0.098355822 0.031311944 15590362
0.52581823 -0.082978375 0.037123855 15459035
0.53377146 -0.086047456 0.033918057 15459034
0.54100007 -0.088479899 0.030793516 15590621
0.50544447 -0.071884483 0.037311215 15261656
0.51473337 -0.07575278 0.037331127 15327449
0.52468002 -0.076226272 0.033230845 15524828
0.53050005 -0.07869003 0.031023799 15327706
0.48737502 -0.062023953 0.038196575 15195863
0.49386483 -0.06446483 0.034720309 15196119
0.50300002 -0.069311455 0.035889678 15261656
0.51800001 -0.065922663 0.030292796 15327705
0.52500004 -0.069270387 0.030702157 15393242
0.4754737 -0.052986849 0.038053345 15261656
0.48419443 -0.055170387 0.034574937 15130326
0.49133334 -0.057992775 0.03167234 15130583
0.44700003 -0.041191734 0.039744351 15064277
0.45600006 -0.041928384 0.035729095 15064534
0.46429411 -0.044355247 0.035018295 15064533
0.47293335 -0.047160182 0.033484232 15064534
0.48160005 -0.048548885 0.031319339 14998997
0.4359231 -0.032441083 0.038361669 14736595
0.44472003 -0.034711171 0.035303399 14867668
0.45453849 -0.037508041 0.032059528 14933205
0.4605 -0.039199837 0.030164294 14998997
0.41900003 -0.020953339 0.039216544 14407630
0.42440015 -0.02440582 0.037777681 14539216
0.43448839 -0.02456136 0.033470441 14473424
0.44252944 -0.028072806 0.03178633 14670290
0.4166429 -0.014184463 0.038923442 14407630
0.42461202 -0.015083377 0.034951311 14473423
0.43080956 -0.016335869 0.031195683 14473682
0.41582227 -0.0049497904 0.038156204 14210253
0.42442462 -0.0053884774 0.033109441 14210509
0.43000001 -0.0094237728 0.030179717 14408145
0.41618183 0.0050100428 0.037972484 13881544
0.42385289 0.0045843329 0.032962259 14013386
0.41709986 0.015270488 0.038058065 13816008
0.42291915 0.015063625 0.033092942 13816008
0.41750002 0.024278563 0.038145006 13750985
0.42231813 0.025497258 0.033437766 13948106
0.41875002 0.031260647 0.038947925 13816778
0.4243181 0.034875147 0.034846302 13750984
0.43000004 0.038391519 0.030754939 13685191
0.42680955 0.043533038 0.037611697 13553606
0.43178689 0.045796003 0.03341458 13685192
0.43516052 0.054580413 0.035523444 13816778
0.44063637 0.058284685 0.031768579 13882571
0.43823531 0.062362496 0.038540781 14145743
0.44293433 0.065458991 0.034080222 14211536
0.44634604 0.07457611 0.035482258 14540244
0.45060006 0.077784881 0.031308565 14868696
0.44822231 0.083974451 0.037985533 14540501
0.45198148 0.085579015 0.033499971 14671573
0.44900003 0.090891875 0.039571807 14277073
0.4543581 0.095040455 0.034712538 14342352
0.45621225 0.10225334 0.03598965 13749959
0.46178949 0.10444761 0.031328458 13553352
0.41166666 -0.11197995 0.048487693 14998997
0.55750006 -0.11227959 0.045652378 15656671
0.56142116 -0.1148548 0.042997137 16117478
0.40899998 -0.10327496 0.049770299 15196376
0.41125497 -0.10486327 0.047305059 15065046
0.53833342 -0.10064546 0.044083595 15326935
0.5447858 -0.10376991 0.043337408 15787743
0.5535 -0.10834123 0.043377191 15392985
0.40899998 -0.095136411 0.049770299 15065560
0.41271245 -0.094691321 0.046205096 14868182
0.51700002 -0.091008939 0.047984693 15393498
0.52642858 -0.091726474 0.043455292 15590621
0.53336847 -0.096175648 0.042031441 15524828
0.40899995 -0.085082911 0.049770299 14868181
0.41328561 -0.084993817 0.045954976 14802389
0.51645154 -0.084857889 0.045759898 15393242
0.52340007 -0.086645015 0.042183749 15524828
0.40900001 -0.073912352 0.049770307 14802388
0.41406506 -0.075179927 0.046940409 14802131
0.48780003 -0.071100235 0.046568446 15393242
0.49382356 -0.07232897 0.04328626 15393242
0.50516671 -0.07591828 0.041957885 15261656
0.51260006 -0.078556314 0.042212095 15327449
0.40874997 -0.064459503 0.049620192 14802388
0.41520634 -0.065838359 0.046889957 14867668
0.477 -0.061261766 0.047353648 15393498
0.48463169 -0.064939909 0.044758838 15393498
0.49149999 -0.068073034 0.041628033 15393242
0.40479311 -0.055297084 0.048796542 14736338
0.41150004 -0.05911319 0.047184538 14736082
0.45820004 -0.050696153 0.048462264 15130583
0.46509999 -0.053055994 0.046096344 15261913
0.47377145 -0.056320447 0.043576725 15327705
0.48025003 -0.059150036 0.041294947 15393242
0.4014 -0.047233455 0.049596943 14473936
0.43366671 -0.040810175 0.049048156 14998997
0.44635004 -0.042907327 0.045636021 15064790
0.45440748 -0.046661813 0.045678925 15130327
0.46276924 -0.048352208 0.042558078 15261656
0.39800003 -0.03900354 0.049363464 14735825
0.41685721 -0.031930987 0.046644188 14735825
0.42238718 -0.034794718 0.045305226 14933204
0.43350005 -0.036530748 0.043234244 14801618
0.44277778 -0.038555685 0.041786432 15130583
0.40531924 -0.023714067 0.04783928 14407630
0.414197 -0.025032731 0.043443177 14407630
0.42122224 -0.028023921 0.040957641 14539216
0.40476859 -0.014891101 0.046555709 14276301
0.41196966 -0.015155106 0.04156547 14407630
0.40485883 -0.0050076735 0.046303235 14078666
0.4113929 -0.0054053403 0.041323215 14144460
0.40546077 0.0047675394 0.046337727 13749958
0.41163337 0.0053386674 0.041320045 13815752
0.40673932 0.014554015 0.04674127 13618629
0.41216666 0.015549948 0.042111449 13684422
0.40793887 0.024088018 0.047787368 13684422
0.41308701 0.025558826 0.043179907 13684935
0.40900001 0.030771727 0.049770303 13618629
0.41548496 0.034507871 0.045045387 13553349
0.42055559 0.038096096 0.040893421 13553606
0.41778123 0.042376291 0.047688603 13553605
0.42227536 0.045715451 0.044043049 13553606
0.42605975 0.054283503 0.046418805 13816777
0.43100008 0.056497131 0.042266421 14079948
0.42833334 0.061418012 0.048668113 14145741
0.43411762 0.065257683 0.044704862 14277070
0.44000003 0.068640709 0.040152002 14145741
0.4366 0.074125312 0.046919677 14342863
0.44162494 0.075979926 0.042417027 14408657
0.43890008 0.082134917 0.048785027 14342864
0.44362506 0.085253097 0.044702824 14474451
0.44662818 0.094568029 0.045865942 14343122
0.45074999 0.097096048 0.041000433 14342352
0.44861549 0.10262339 0.047561031 14079693
0.45148575 0.10396653 0.043701008 13750215
0.39731032 -0.11427525 0.058544904 15328218
0.40436623 -0.11409206 0.054268021 15196633
0.41100001 -0.11340157 0.050013673 14999254
0.39769703 -0.10507339 0.058634415 15393754
0.40416837 -0.10501001 0.053944468 15196888
0.39770734 -0.094565123 0.058181256 15459546
0.4038415 -0.095200695 0.05341585 15262681
0.39669484 -0.084603056 0.057679955 15262424
0.40359727 -0.085162453 0.052774593 15065560
0.39568281 -0.074947134 0.057042371 15065303
0.40374085 -0.075007878 0.052078638 14933974
0.3948524 -0.064996444 0.056393623 14999767
0.40315792 -0.064865626 0.051487029 15065560
0.38900003 -0.051326059 0.059175078 14802388
0.39431366 -0.05499332 0.055848233 14933974
0.40125927 -0.055852607 0.051191825 14802645
0.45820004 -0.052413523 0.051037382 14933204
0.46400008 -0.056158602 0.050667942 14998997
0.3883715 -0.044581417 0.05884441 14671059
0.39425844 -0.044877578 0.054349873 14671059
0.40025002 -0.047072589 0.05069657 14473936
0.44800001 -0.046526588 0.050321028 15130583
0.45100003 -0.048420675 0.050657995 14998997
0.38768891 -0.035171043 0.058468595 14407887
0.39368132 -0.035077199 0.053666621 14473423
0.41462505 -0.032387704 0.050939683 14801874
0.42000002 -0.035260145 0.05012564 14933204
0.38738641 -0.025265623 0.058472823 14342350
0.3941724 -0.024840511 0.053912826 14341837
0.40161541 -0.025554478 0.050533634 14407630
0.3881667 -0.015515162 0.058657061 14013129
0.39437768 -0.014821375 0.053549651 14144459
0.38873333 -0.00727482 0.059255309 14012873
0.39402831 -0.005307206 0.054755643 13947337
0.40000004 -0.0036160611 0.050547928 13947594
0.39498103 0.0047628917 0.055970214 13552578
0.40024996 0.0051677143 0.051164787 13684422
0.39641887 0.0142537 0.057123601 13355712
0.40188873 0.015902175 0.052274264 13487299
0.39815795 0.022893768 0.058702897 13290176
0.40308905 0.025509827 0.054371849 13421762
0.40640265 0.034223717 0.056266535 13421763
0.41194445 0.037023518 0.052054223 13487300
0.40849999 0.041373447 0.058674384 13356227
0.41446325 0.045210995 0.055150669 13487813
0.42016673 0.048661504 0.050801013 13618886
0.41716665 0.053665683 0.05771251 13948107
0.42204547 0.055740282 0.053373102 14079693
0.41900003 0.060950689 0.059815161 14277327
0.42457733 0.064820267 0.055340249 14211279
0.43000004 0.067961499 0.050689965 14343121
0.42719147 0.074081175 0.057447881 14079950
0.43142313 0.075928763 0.053192981 14211535
0.42840004 0.080972716 0.059150357 14408915
0.43396866 0.085099973 0.054664779 14277073
0.44000003 0.08975669 0.050452482 14211536
0.43691063 0.094080709 0.056848586 14277329
0.4416765 0.096305072 0.052557465 14145743
0.43900001 0.10137133 0.059587177 13684422
0.44375864 0.10358135 0.055042204 13619143
0.38750002 -0.12090102 0.068089746 15657443
0.39100003 -0.12039208 0.064054452 15854823
0.38766667 -0.11488678 0.067697361 15460062
0.39271995 -0.11478865 0.062734827 15328732
0.38760713 -0.10485534 0.068017416 15394268
0.39315903 -0.10514877 0.063060977 15328474
0.38767272 -0.094801351 0.068044886 15328731
0.39312643 -0.095066324 0.063008711 15262681
0.38796777 -0.084721558 0.067759983 15131097
0.39211264 -0.0853348 0.062822454 14933973
0.38709325 -0.074764878 0.067034632 14933974
0.39131379 -0.075332552 0.062147178 14933974
0.38601777 -0.064716399 0.065921322 14802388
0.39073911 -0.065856054 0.060989998 14999767
0.38522297 -0.054983675 0.064983584 14868180
0.39000002 -0.05876198 0.06024019 15065560
0.38351849 -0.044956516 0.065069161 14736595
0.37879997 -0.032865986 0.069328524 14079178
0.38250399 -0.034928292 0.064613074 14473422
0.37868187 -0.02651195 0.069169551 13947592
0.3822735 -0.024749517 0.064267255 14079178
0.38281804 -0.0151096 0.064940475 13881799
0.38465458 -0.0051822383 0.064952828 13552834
0.38639474 0.0042461334 0.065582536 13224383
0.39071429 0.006401157 0.061090287 13223869
0.38784745 0.013656161 0.067568198 13093053
0.39224675 0.015717691 0.063108832 13224383
0.38900003 0.020160437 0.069192298 13158846
0.39468542 0.024887716 0.065301634 13290433
0.40000001 0.028846055 0.061160538 13290433
0.39755005 0.033449359 0.067731872 13553605
0.40175909 0.035761703 0.063648172 13422019
0.40519091 0.044778936 0.065328799 13553606
0.41087502 0.048106987 0.061179463 13685192
0.40760008 0.05369078 0.068084285 13882571
0.41283333 0.055683259 0.06358397 14014157
0.40900001 0.060453493 0.069877304 14079950
0.4152922 0.06461934 0.065805294 14145743
0.42090476 0.067140616 0.06144654 14145741
0.41738886 0.073585086 0.067996353 14211536
0.42272606 0.075688615 0.063686989 14211535
0.41900003 0.080568418 0.069624029 14277329
0.42484531 0.084821343 0.065360464 14342866
0.43011114 0.088299192 0.060953695 14277329
0.42686963 0.09383665 0.067407951 14079696
0.43254006 0.095935881 0.062916301 13882573
0.43476194 0.10281114 0.065026276 13355972
0.44000003 0.10572244 0.060752962 13223871
0.37692308 -0.1208311 0.077831186 15526112
0.38318184 -0.12089204 0.072308034 15723492
0.37686849 -0.11510434 0.077731431 15196890
0.38265067 -0.11492386 0.072738186 15459549
0.37694904 -0.10518582 0.078410827 15065303
0.3826201 -0.10502349 0.073395081 15394011
0.37777558 -0.095243007 0.078383259 15065560
0.38275465 -0.094983771 0.073368333 15262682
0.37795922 -0.084673822 0.07813327 14999766
0.3828316 -0.085118122 0.073348567 15131353
0.37798181 -0.075091958 0.077848636 14933973
0.38230243 -0.075064413 0.072977476 14999767
0.37766245 -0.064729221 0.077286907 14868438
0.38136932 -0.065409541 0.072460085 14999510
0.37715393 -0.054702874 0.076670334 14736852
0.3807804 -0.055667009 0.071686007 14868181
0.37719995 -0.044801727 0.076068811 14539473
0.38044003 -0.046261612 0.071053594 14671315
0.37680814 -0.035214595 0.075026184 14144972
0.37676492 -0.024909286 0.075192019 13289663
0.37777343 -0.015083495 0.075107329 12960698
0.38000005 -0.013347798 0.070260204 13881799
0.37788108 -0.0054210806 0.075942896 12698038
0.38051617 -0.0044436166 0.071274586 13487555
0.37855557 0.0023886622 0.077845246 12500916
0.38183478 0.0056867795 0.074085243 12829624
0.38418019 0.01507353 0.075025737 12961210
0.38691249 0.024276409 0.075829156 13158590
0.39092857 0.026832206 0.071723759 13421761
0.38844448 0.032156412 0.078118265 13290175
0.39314806 0.035608467 0.074212819 13421762
0.39589617 0.044469513 0.075494066 13553605
0.40036845 0.047191661 0.071361892 13750984
0.39743334 0.052387677 0.078070216 13816778
0.40296784 0.055659562 0.074149027 13882571
0.40579596 0.064481519 0.075879373 13948364
0.41141668 0.066672213 0.07133244 14014157
0.40831822 0.072346069 0.077840738 14145743
0.41313332 0.075757153 0.074193321 14211536
0.41597539 0.084389597 0.0760004 14145743
0.42088014 0.087315753 0.072063096 14145487
0.41800001 0.091763489 0.078440987 13948364
0.42300004 0.09538091 0.07463523 13882572
0.42640683 0.10358381 0.075720161 12632250
0.42999998 0.10382297 0.070780776 13224644
0.3732 -0.12206841 0.085925408 15131610
0.37249666 -0.11488304 0.085037299 14802902
0.37205157 -0.10493812 0.084865525 14868438
0.37269714 -0.094907925 0.08470434 14868182
0.37318471 -0.084984235 0.084681168 14802389
0.36900002 -0.072442666 0.089822248 14079180
0.37320006 -0.075053878 0.08477553 14671058
0.36900002 -0.069419242 0.089822248 14144973
0.37275529 -0.065088242 0.084723406 14539473
0.37226832 -0.055009574 0.085056327 14473680
0.37272677 -0.044987373 0.08493714 14408145
0.37331396 -0.03502436 0.085297771 13881800
0.37377548 -0.024998598 0.084925584 9079426
0.3725675 -0.014918537 0.084795564 4277309
0.37311512 -0.005213025 0.084555939 6777186
0.37687215 0.0048821452 0.085209854 12368818
0.38016668 0.0093198325 0.080673829 12829111
0.37838462 0.013717938 0.087216392 12566709
0.38095003 0.016244467 0.083419822 12961467
0.3827461 0.025253257 0.084888346 13093053
0.38598332 0.034935169 0.085256331 13356225
0.39019999 0.038675003 0.080732517 12829881
0.38827869 0.043668274 0.087091163 13422018
0.39138892 0.04619617 0.082910731 13487811
0.39411658 0.054993238 0.085203961 13816776
0.40000001 0.058655016 0.080512956 13750985
0.39675 0.063507602 0.086928129 13948106
0.4016102 0.066217303 0.083110534 14013900
0.39900002 0.070184208 0.089652337 14211534
0.40469977 0.074917562 0.08504118 14145486
0.41000003 0.079317741 0.080606148 14277329
0.40720651 0.083902813 0.086935364 14014156
0.41180772 0.086139835 0.0827007 14014157
0.40900001 0.091092736 0.089665152 14079950
0.41469002 0.094773054 0.085272186 13882571
0.42066669 0.09861587 0.081170365 13882571
0.41741177 0.10181829 0.087692633 13290435
0.42389798 0.10509551 0.083671071 12171442
0.42850003 0.11048269 0.087753609 5195587
0.43000004 0.11109313 0.084538147 3814191
0.36885712 -0.12204577 0.098133996 14539731
0.37050983 -0.12301145 0.094217233 15000282
0.36839759 -0.11456414 0.097121507 14473938
0.37041682 -0.11565997 0.092131265 14671317
0.3679257 -0.10481996 0.095656395 14342351
0.37003839 -0.10546508 0.090708025 14671316
0.36781543 -0.094954953 0.095616162 14210766
0.36999992 -0.09515956 0.090498775 14802902
0.36796591 -0.085027814 0.095647447 14210765
0.37024993 -0.085813813 0.090776183 14671317
0.36783463 -0.075057901 0.095189974 14210764
0.37 -0.077402957 0.090065666 14605522
0.36779177 -0.06488692 0.095119454 14210766
0.36999997 -0.064410314 0.090065666 14276559
0.36794218 -0.055127919 0.095575325 14013386
0.36999992 -0.053949568 0.090698667 14276559
0.36840215 -0.045392357 0.096977092 13947594
0.37032774 -0.044631079 0.092042588 14144972
0.36884207 -0.038236141 0.098417856 13684679
0.37099171 -0.034582578 0.094506077 13552835
0.36860001 -0.021396123 0.098237917 2106912
0.37172228 -0.02557401 0.094586499 8421495
0.36824736 -0.014606252 0.096870758 1976096
0.37044084 -0.015653236 0.091965191 2107682
0.36863053 -0.0078345602 0.096446194 2041377
0.37100005 -0.0038164146 0.094279155 5067595
0.37431276 0.0049437438 0.095055878 11514023
0.3760927 0.015018254 0.094947517 12500403
0.37787786 0.024196727 0.096530192 12961210
0.38080382 0.02648445 0.092204452 13224639
0.37887499 0.031055475 0.098988637 13027003
0.38216159 0.035315994 0.094792195 13290176
0.38486996 0.044995435 0.095097914 13421762
0.3876456 0.054025892 0.096307948 13750985
0.39116329 0.056848176 0.092542097 13948107
0.38885716 0.060727559 0.098816879 13882314
0.39327434 0.065167293 0.094774395 13816777
0.39659342 0.074120693 0.096009798 14013899
0.40057573 0.077140234 0.091965318 14014155
0.39831251 0.081778318 0.098588176 14211536
0.40279606 0.08554168 0.094566993 13948364
0.40584964 0.09434624 0.095907368 13619399
0.4111053 0.097084947 0.091560334 13553608
0.40800002 0.10042137 0.097405382 13224641
0.41482353 0.10290438 0.092855923 13027522
0.42255557 0.10785648 0.094178028 10592156
0.42525002 0.1123802 0.098654412 3156774
0.36819145 -0.12369036 0.10496372 14079180
0.37 -0.12720811 0.10110942 11973035
0.36687139 -0.11496979 0.10519078 14079180
0.3665975 -0.10501013 0.1051129 13750213
0.36700034 -0.094817564 0.10522974 13552834
0.36697 -0.084930517 0.10522088 13420993
0.3669934 -0.075055562 0.10522764 13355455
0.36700034 -0.064747214 0.10522966 13289662
0.36700031 -0.054866932 0.10522974 13224127
0.36735138 -0.045213785 0.10505019 13289406
0.3684921 -0.035165351 0.10506391 12763576
0.36999995 -0.031124381 0.10342955 12829626
0.36814454 -0.023267969 0.10523873 4014395
0.37004003 -0.027635377 0.10485349 10592922
0.36611143 -0.014880296 0.10496855 1910047
0.36737254 -0.0060819681 0.10548413 2568235
0.37060603 -0.0016670728 0.10398775 7238506
0.37270856 0.0049242196 0.10511545 11184800
0.37395179 0.015089391 0.10490584 12369074
0.37560299 0.024715165 0.10501617 12763831
0.378115 0.034395337 0.10576206 12961467
0.38027278 0.037311099 0.10175125 13093053
0.37865385 0.04195565 0.10764929 13158847
0.38162264 0.045573406 0.10422556 13487299
0.38439396 0.054863717 0.10517323 13816521
0.38688487 0.064448692 0.1057386 13948364
0.39083335 0.067910396 0.10146335 13882314
0.38866672 0.072696254 0.10795324 13750985
0.39244309 0.075796664 0.10402421 14013900
0.39536738 0.084808961 0.1053233 14014157
0.40000004 0.088034794 0.10076277 14014157
0.39716366 0.093225382 0.10644302 13750985
0.4008857 0.094061941 0.10171044 13685193
0.40625003 0.10117754 0.10291505 12764090
0.41705552 0.10742812 0.10309249 9276291
0.42050004 0.10792722 0.10137402 12829883
0.41833332 0.11079932 0.10313573 2762524
0.42000002 0.11124075 0.10125347 3157538
0.37100002 -0.13015749 0.11983869 13486789
0.36837748 -0.12405653 0.1142932 13487043
0.36999995 -0.128363 0.11753583 13026235
0.36732286 -0.11498475 0.11529724 13487041
0.36745623 -0.10525367 0.11503571 13026491
0.3677668 -0.095015325 0.11492325 12631990
0.36766383 -0.084999762 0.11501615 12697527
0.36763576 -0.0751433 0.11521217 12434867
0.36745474 -0.064828247 0.11525562 12500403
0.36756217 -0.05494982 0.11528911 12632245
0.36797625 -0.045221671 0.11514384 12565940
0.36880258 -0.036936294 0.11510844 12500147
0.37000012 -0.032114275 0.11478261 11512995
0.36722776 -0.022957059 0.11496953 2896685
0.37036175 -0.027920196 0.11542749 8618874
0.36458364 -0.014818234 0.11477547 1383959
0.36625019 -0.0051693954 0.11511809 3357748
0.37 -0.00074632664 0.11215317 8751488
0.37096485 0.0048982943 0.11505021 10461334
0.37188578 0.014848243 0.11478355 11777194
0.37408361 0.025077663 0.11513445 12369331
0.37623116 0.035278592 0.11485224 12763831
0.37769732 0.044988051 0.1150287 13027261
0.38012505 0.048844106 0.11132868 13421505
0.3785556 0.054123566 0.11802462 13487555
0.38121587 0.055668723 0.11367264 13685191
0.37900001 0.060455479 0.11976107 13290434
0.38268214 0.064957976 0.11499155 13750985
0.38590059 0.074905738 0.11514969 13750985
0.39000002 0.079100564 0.11045504 13882571
0.38828123 0.083355583 0.1166968 13882571
0.39116132 0.086324207 0.11309919 13816778
0.39417863 0.094490871 0.11506996 13422277
0.39900002 0.10054135 0.11767432 13553609
0.40453848 0.10576092 0.1150995 6776415
0.40555564 0.11079013 0.11602101 2762522
0.37100002 -0.13037461 0.12266138 11579050
0.36892858 -0.12239834 0.12120543 13289151
0.37048873 -0.12488442 0.12496054 12302514
0.36845773 -0.1144853 0.12251295 12500917
0.3706252 -0.11549301 0.12755865 12106160
0.36878735 -0.10546345 0.12193475 12434866
0.37056598 -0.10452731 0.12667447 12236976
0.3690002 -0.094492078 0.1212443 12303281
0.37058353 -0.09532018 0.12653285 12105902
0.36900017 -0.084968291 0.12164024 12632247
0.3704288 -0.085291132 0.12666109 12171695
0.36897886 -0.075066857 0.12210806 12500916
0.37045088 -0.075036369 0.12704052 12500917
0.36863628 -0.064504303 0.12323479 12631732
0.37014279 -0.065385304 0.12806214 12961210
0.36855662 -0.054842014 0.12419317 12763318
0.36999992 -0.056362089 0.12922405 12895162
0.36890528 -0.045338273 0.12462321 12631989
0.36999997 -0.04263778 0.12951605 12697525
0.36900017 -0.037493315 0.12279195 12171438
0.37033737 -0.033738408 0.12597646 11118237
0.36573172 -0.022925295 0.12490492 2830375
0.37079552 -0.028091872 0.12498133 8026223
0.36238426 -0.01472872 0.12468132 1252114
0.36425409 -0.0054171355 0.12486461 3357233
0.37103719 0.0048621371 0.12510172 9540232
0.37175429 0.014938639 0.12510553 11448229
0.37331092 0.025032509 0.12495258 12369074
0.37473491 0.035215411 0.12499022 12632247
0.37686542 0.045074798 0.12498274 12895419
0.37783298 0.05485826 0.1249086 13421762
0.37858823 0.063297376 0.1262635 13553605
0.38063481 0.066898532 0.123345 13685192
0.37900001 0.070215181 0.12952077 13817035
0.382 0.075035587 0.12506764 13751242
0.38551572 0.084859699 0.12509647 13619656
0.38860872 0.091753215 0.12522793 13290693
0.39158335 0.096583806 0.12497293 12895936
0.39588571 0.1026057 0.12659723 8289401
0.40400001 0.10641366 0.12212327 6512729
0.40533337 0.11062422 0.12217738 3025949
0.37176922 -0.1213885 0.13167053 10987166
0.37174547 -0.11505524 0.13224874 10724251
0.3728534 -0.10465329 0.13327779 11184546
0.3726579 -0.095170498 0.13353348 11053473
0.37184605 -0.085580856 0.13330686 11448229
0.3712801 -0.07482592 0.1329105 11513766
0.37130713 -0.065072864 0.13476309 11514023
0.37071407 -0.054879952 0.13516332 11711144
0.37069073 -0.045003872 0.13492906 12040110
0.37133849 -0.034965567 0.13490058 10329236
0.35900003 -0.020053925 0.1357125 1843995
0.36409339 -0.022852449 0.13458534 2500898
0.37143478 -0.028103558 0.13498853 7500650
0.35898694 -0.014838477 0.13649419 1317652
0.36040312 -0.014981045 0.13231823 1581080
0.35900009 -0.0089956941 0.13759241 1186069
0.36313567 -0.0049973782 0.13454811 3488821
0.36900002 0.00011952608 0.13690129 8882559
0.37092757 0.0050687762 0.13497089 9211268
0.37170148 0.01497479 0.13520575 11382180
0.37275365 0.024889052 0.13502602 12369332
0.37396854 0.035036575 0.13501208 12829370
0.3745181 0.044881426 0.13507143 13224384
0.37560821 0.054918237 0.13481355 13553605
0.37735429 0.064880744 0.13508496 13816777
0.37820947 0.074344657 0.13602763 13685192
0.38048649 0.076943234 0.13190541 13685450
0.37866667 0.081751607 0.13886167 13553609
0.38191962 0.085194826 0.13464667 13553608
0.38626969 0.093563549 0.1353168 12961727
0.391 0.09806861 0.13214451 12698299
0.39432722 0.10364574 0.13551803 6973028
0.39800003 0.11053835 0.13927495 2894107
0.37205565 -0.063365422 0.14084132 10921113
0.37218419 -0.055021256 0.14168319 10460819
0.37354988 -0.044678047 0.14255598 10132114
0.37355882 -0.034165241 0.14326286 8618875
0.36515787 -0.022486633 0.14530605 1316883
0.372125 -0.027912911 0.14409395 7105892
0.35900003 -0.011229457 0.14033484 593930
0.36383525 -0.015135449 0.14534411 527879
0.35900006 -0.0091283936 0.14033484 725516
0.36274371 -0.0054657985 0.14528847 2499358
0.37159806 0.0053772079 0.14415932 8290168
0.37156436 0.01491427 0.14446463 9671821
0.37113243 0.025201995 0.14453353 10987682
0.37220186 0.034949377 0.14468548 11316390
0.37209398 0.045198537 0.14480278 11711661
0.37352258 0.05514098 0.1447041 12764093
0.37460947 0.064952292 0.14488536 13093057
0.37618911 0.074981213 0.14484613 13224900
0.377718 0.084410384 0.14548548 13224901
0.38052386 0.088186778 0.14187491 13487816
0.37885714 0.091094673 0.14898367 13159364
0.38346004 0.094725095 0.14485151 12896192
0.38869232 0.10077889 0.14697064 12106679
0.39359328 0.10570346 0.1445329 5394506
0.39595237 0.11127154 0.14458008 3025181
0.3642858 -0.023834141 0.15531966 1777948
0.36580816 -0.014868299 0.15497762 594184
0.3648181 -0.0064243879 0.15516886 1315338
0.37154549 0.027323831 0.15085354 8290423
0.37227592 0.034438863 0.15159564 8027250
0.37126085 0.045054063 0.15094715 8684927
0.3736279 0.055351187 0.15180981 9803666
0.37497187 0.065166853 0.15297079 10000787
0.37589192 0.075080119 0.1530526 10395548
0.3770577 0.085196741 0.15335926 11449261
0.37800008 0.091152914 0.153685 11975605
0.38330188 0.096669979 0.1541841 11711919
0.38814288 0.10202596 0.15489404 9342091
0.39166099 0.10709524 0.15513577 3090978
0.39329669 0.11327636 0.15532403 3090973
0.36257261 -0.023763176 0.16455178 1054479
0.36174378 -0.014700128 0.16468653 923150
0.3634336 -0.0058052186 0.16548727 1317395
0.36400002 0.00090448849 0.16811547 8487800
0.38700002 0.099782497 0.16033992 11513518
0.38866672 0.10203275 0.16042334 7302507
0.39177778 0.10713119 0.16089192 3090976
0.39300001 0.11190974 0.16006574 3091229
0.34618983 -0.024484329 0.17700072 1515029
0.35471693 -0.023115773 0.17338084 791307
0.3616744 -0.024303585 0.17173809 791307
0.34584466 -0.01503587 0.17723134 1251859
0.35545304 -0.015266531 0.17330167 726028
0.36014295 -0.014134236 0.17069153 1252116
0.34605557 -0.0084398407 0.17730239 1186067
0.35652635 -0.008974934 0.17489527 528651
0.36253512 -0.0045055449 0.17418729 2501670
0.36404765 0.0013158539 0.17464662 8290679
0.33756632 -0.023989035 0.18740265 1252371
0.34134752 -0.024722286 0.18277016 1448980
0.33788374 -0.015121158 0.18757516 1186322
0.341187 -0.014881799 0.18302186 1186065
0.33716664 -0.0086393645 0.18810369 1054992
0.34185001 -0.0082917679 0.18287897 1186066
0.33699992 -0.014880378 0.19050969 1186321
0.33700001 -0.0089634545 0.19050969 1054992
0.79530001 -0.1548353 0.29748106 9276037
0.78500003 -0.14124855 0.29950953 12433842
0.77460003 -0.13430193 0.29844248 12763320
0.78050005 -0.13861169 0.29870558 12894135
0.76676929 -0.12443803 0.29766199 13158078
0.77000004 -0.12953663 0.29829288 13026492
0.76552945 -0.11560667 0.29756197 12960956
0.76625001 -0.10760366 0.29796147 13224641
0.76700002 -0.094916277 0.29937512 13356227
0.79516673 -0.15471722 0.3052462 9144450
0.787 -0.14345433 0.3048771 11644069
0.79087502 -0.14855531 0.30475926 8749435
0.77510011 -0.1346646 0.30452907 12236719
0.78000003 -0.13852289 0.30855778 10064522
0.76704758 -0.1247667 0.30514562 12105646
0.77000004 -0.12953663 0.30460191 12697782
0.76600015 -0.11541377 0.30481416 11974574
0.76743335 -0.10484843 0.30538446 11843245
0.76860017 -0.094898529 0.30548909 11843245
0.76893359 -0.08573471 0.30454022 11908781
0.77000004 -0.080866858 0.30820706 12369589
0.76876193 -0.075423732 0.30522701 11711145
0.7683751 -0.068330646 0.30598289 12171952
0.79463333 -0.15501554 0.31533611 8947583
0.78758335 -0.1430981 0.31447768 9209728
0.79089999 -0.14731035 0.31564611 8946813
0.77576929 -0.13302448 0.31414956 12763577
0.78250003 -0.13835664 0.31534973 12762807
0.76866674 -0.12211525 0.31127229 13422277
0.77288234 -0.12501876 0.31575105 12566712
0.76840001 -0.11487675 0.31116432 13027519
0.77329403 -0.11496698 0.31687689 11645612
0.76900005 -0.1086656 0.3114073 12895933
0.77294117 -0.1051256 0.31534925 12237748
0.77294439 -0.095148057 0.3147172 12237747
0.77249998 -0.084926195 0.31382436 11842988
0.77273923 -0.074706025 0.31394961 12237748
0.77233338 -0.066647731 0.31366622 12106419
0.79453343 -0.16528454 0.32453796 9606026
0.79340625 -0.15506779 0.32465616 9211268
0.78883338 -0.14163046 0.32374823 9013120
0.79122221 -0.14555988 0.3263748 9013889
0.77900004 -0.13105069 0.32092774 10461081
0.78606248 -0.13569182 0.32487467 9802895
0.77800006 -0.12496202 0.32188234 10526873
0.78418183 -0.12507601 0.32707167 8684925
0.77880007 -0.11643062 0.32266852 10724511
0.78371435 -0.11402059 0.32627845 8355705
0.77775002 -0.10261708 0.32041276 11250854
0.78409094 -0.10487092 0.32569745 7697776
0.77900004 -0.094577625 0.32092774 11119268
0.78518194 -0.094825692 0.32631758 7632237
0.77900004 -0.086371191 0.32092774 10658459
0.78430772 -0.084206268 0.32537815 8487545
0.77900004 -0.071781963 0.32092774 10395545
0.78475004 -0.075525723 0.32559744 8619130
0.77766675 -0.067109331 0.32037845 11448233
0.78416675 -0.067669846 0.32581207 7829615
0.79477781 -0.15458773 0.33466622 9606281
0.79260004 -0.14447294 0.3348822 9343111
0.78875005 -0.13361503 0.33048394 9079684
0.79200011 -0.1349809 0.33544785 9145732
0.78883338 -0.12593316 0.33205807 8816510
0.79345459 -0.12469931 0.33701628 8816765
0.78800005 -0.11503989 0.33016971 7961201
0.79318762 -0.11521437 0.33594567 8290164
0.78900003 -0.10502703 0.3305887 8093042
0.79435301 -0.10508271 0.33666423 8224628
0.78900003 -0.094868183 0.3305887 7895663
0.79312503 -0.094784908 0.33591786 8224371
0.78900003 -0.084709331 0.3305887 8026992
0.79253328 -0.085086964 0.33578262 8027249
0.78900003 -0.075474009 0.3305887 7829613
0.79344451 -0.074970685 0.33616871 8027249
0.78866673 -0.068057775 0.33044901 7829613
0.79266673 -0.06747435 0.33583865 8093042
0.79545009 0.15481892 0.33608642 8751229
0.79688239 0.16409576 0.33718437 8948862
0.79523993 -0.08537937 0.34437478 8158835
0.79497063 -0.075224131 0.3449136 8093042
0.79466671 -0.067954913 0.34433305 8093042
0.79604554 0.13494301 0.34531876 8553850
0.79713345 0.17473872 0.34519207 9014400
0.7967602 0.18491562 0.34503061 9014401
0.79513794 0.19461414 0.34445786 9014400
0.79512501 -0.075013556 0.35514218 8487799
0.79491669 -0.067200698 0.3558636 8487800
0.79645747 0.16513284 0.3552323 8948350
0.79551733 0.17493092 0.35431844 8948351
0.7964403 0.18484238 0.35421658 8948607
0.79707175 0.19491746 0.35429806 8948864
0.79677278 0.20492616 0.35546711 9211264
0.79561549 -0.085564286 0.36480904 8685179
0.79474205 -0.075004175 0.36480319 8619386
0.79421055 -0.066480853 0.36555412 8750972
0.79487097 0.16484939 0.36486211 8882556
0.79662973 0.17577031 0.3650758 8882557
0.79600006 -0.085255899 0.37493157 9079939
0.79400003 -0.074900739 0.37497965 9079939
0.79250002 -0.065605588 0.3756499 9079939
0.79612017 0.15494558 0.37457484 8882557
0.79526478 0.16524026 0.37510222 8882557
0.79637951 0.17537871 0.37546486 8948350
0.79464513 -0.085319579 0.3850376 9145732
0.79126477 -0.074985735 0.38459963 9079939
0.79007691 -0.066187032 0.38368165 9079939
0.7965669 0.15503341 0.38503939 8948608
0.79394281 0.16482274 0.38517645 8817022
0.79280651 0.17483862 0.38486516 8882558
0.79369432 0.18472113 0.3851954 8882815
0.79560006 0.19507867 0.38454318 8948351
0.79350001 -0.085195296 0.39470407 9211523
0.79561543 0.12719832 0.39682373 9014914
0.79572976 0.13513398 0.39547867 8949121
0.79468763 0.145017 0.39505714 8949121
0.79438716 0.15478973 0.39529145 8883328
0.79306436 0.1644713 0.39493486 8817535
0.79133344 0.1748049 0.39448437 8817278
0.79260713 0.18521297 0.39525455 8817022
0.79445839 0.19569731 0.39440593 8948351
0.79596019 0.20522821 0.39499515 8948351
0.79300004 0.12649393 0.40188071 9079937
0.79352391 0.13586608 0.40387344 8948864
0.79288453 0.14517826 0.40482071 8949121
0.79183322 0.15503992 0.40499383 8949121
0.79166669 0.16520089 0.4049097 8883328
0.79238456 0.17448398 0.40456614 8751742
0.7947827 0.18421607 0.40525371 8751742
0.79617244 0.19519186 0.40455183 8882558
0.79672021 0.20542341 0.40469986 8948351
0.79403228 0.14458157 0.41526577 9014401
0.79036695 0.15475163 0.41442317 9014400
0.79166669 0.16504841 0.41495156 8948607
0.79478264 0.17515664 0.41488057 8883071
0.79388887 0.1280801 0.42411134 8948608
0.78837508 0.13567683 0.42929658 9014144
0.79412115 0.13517585 0.42398712 8948864
0.78900003 0.14155591 0.42848301 8948351
0.79190326 0.14467511 0.42449147 9014400
0.79117662 0.15469542 0.42476213 9014400
0.79420006 0.16508083 0.42489451 8883072
0.78713644 0.13519241 0.43442324 9014144
0.78857136 0.14504051 0.43484294 9079937
0.78893745 0.15481952 0.43733722 9014146
0.79070586 0.15629129 0.43256608 9014145
0.78900003 0.16095006 0.43956542 9014146
0.79350001 0.16540125 0.43537867 9014146
0.79713041 0.18524525 0.4369508 8948609
0.79718423 0.19503193 0.43522966 8751230
0.78814298 0.13626342 0.44172421 9014144
0.7888332 0.14521885 0.44408917 9014144
0.78815013 0.15524159 0.44370398 9014144
0.78875005 0.16205348 0.44473436 9014145
0.7906875 0.16650189 0.44362852 9014145
0.79341382 0.17498286 0.44496813 9014146
0.79397225 0.18519759 0.44512245 8948353
