# .PCD v0.7 - Point Cloud Data file format
VERSION 0.7
FIELDS x y z rgb
SIZE 4 4 4 4
TYPE F F F U
COUNT 1 1 1 1
WIDTH 1091
HEIGHT 1
VIEWPOINT 0 0 0 1 0 0 0
POINTS 1091
DATA ascii
0.54500002 0.061417568 -0.070196621 15526626
0.55250001 0.068083316 -0.072673753 15658211
0.54645455 0.078327633 -0.072131649 15198431
0.55315793 0.073373318 -0.073432401 15592418
0.56 0.070973776 -0.076061547 13750213
0.54456258 0.083040528 -0.071655057 14803418
0.54300004 0.019243479 -0.061040811 10920603
0.54225004 0.026833838 -0.062227525 13618117
0.53831035 0.036327358 -0.063121364 14209994
0.54053843 0.031906869 -0.06378185 13354946
0.53763646 0.044829179 -0.063356392 14999767
0.54000002 0.048212606 -0.069552615 13618116
0.53875005 0.05338322 -0.061745852 15328732
0.54136842 0.056007348 -0.06556315 15197147
0.53850001 0.065600738 -0.061544038 15526111
0.5435757 0.064729862 -0.066395454 15328732
0.55000001 0.069706395 -0.06955307 15394525
0.53803706 0.075328588 -0.062023386 15789283
0.5435667 0.074821234 -0.067005903 15789540
0.53866673 0.08235202 -0.060974289 15789283
0.54248899 0.085352086 -0.065390922 15723748
0.54396009 0.094689779 -0.064565562 14934745
0.54350007 0.10100897 -0.062052153 12698043
0.54353338 0.0061094486 -0.051854528 15064535
0.53846163 0.016948532 -0.051513556 14932950
0.5424884 0.014585938 -0.055582196 14472912
0.53697497 0.025061533 -0.053737629 14867924
0.54036838 0.023543198 -0.058282107 14933974
0.53468966 0.034783252 -0.055003949 15065560
0.53345621 0.0449543 -0.054961909 15197146
0.53412515 0.055098403 -0.055055488 15262938
0.52900004 0.068902478 -0.050798226 15064529
0.53432655 0.064654075 -0.055306017 15460060
0.52900004 0.07199847 -0.050798226 15854558
0.53316975 0.075106256 -0.055165179 15920610
0.53475922 0.085046239 -0.055073399 15855076
0.54000002 0.089929543 -0.059439417 15723490
0.53548849 0.09506353 -0.054200456 15197660
0.54054546 0.095773332 -0.059039768 15000538
0.53500003 0.10119954 -0.05347155 14079693
0.54133338 0.10071272 -0.059164803 14145490
0.55250001 -0.022641778 -0.041414145 12104366
0.54659092 -0.012972341 -0.042773899 14275276
0.5508889 -0.018163951 -0.042725816 12893881
0.53866673 -0.0015071469 -0.040797833 15262169
0.54367572 -0.0046084276 -0.04419551 15130584
0.53608823 0.0054083718 -0.043399759 15195863
0.54208004 0.0030657172 -0.047589928 15327707
0.52709997 0.016022939 -0.04167109 14472653
0.53374356 0.014104707 -0.046263892 14932691
0.52515382 0.025794949 -0.043059368 14604239
0.5313077 0.024280714 -0.047911763 14933460
0.51840007 0.035118148 -0.040921222 14867411
0.52449995 0.03516423 -0.045464434 14933460
0.53042859 0.032810625 -0.049516413 15262939
0.51777786 0.04501434 -0.041842416 14868181
0.52435005 0.044973418 -0.046677709 14802388
0.51775008 0.055318289 -0.041840103 14933974
0.52400005 0.054891255 -0.046586853 14868181
0.51842862 0.064577527 -0.041808248 15131353
0.52406996 0.06516213 -0.046452042 15130839
0.51844448 0.075012885 -0.041154057 15460318
0.52434039 0.075097524 -0.046077043 15394010
0.51830775 0.085664392 -0.041651744 15460318
0.52457154 0.084551468 -0.046171397 15723234
0.53000003 0.08826419 -0.049653511 15460318
0.51836371 0.094267897 -0.041282997 15394269
0.52447373 0.095386587 -0.04542841 15131867
0.53062505 0.095202588 -0.049712062 15066330
0.51900005 0.10101215 -0.040118054 14735825
0.52420002 0.10255928 -0.04382037 14671060
0.53100002 0.10148306 -0.049747195 14803419
0.55900002 -0.050855462 -0.030123707 13288381
0.55787504 -0.043735914 -0.031205647 14670033
0.55420011 -0.034855027 -0.033757627 15393756
0.54740006 -0.021609604 -0.032062717 15656414
0.55157506 -0.025325671 -0.035051271 15919843
0.53766668 -0.012554474 -0.031212879 15261656
0.5450682 -0.015022769 -0.035615053 15524828
0.55025005 -0.01850016 -0.038669199 15919842
0.52724999 -0.0019911439 -0.031190364 14933204
0.53528953 -0.004877849 -0.034623243 15064533
0.54150003 -0.0078550698 -0.037738442 15327705
0.51816672 0.0084558278 -0.030753938 14670034
0.52457792 0.0055420897 -0.034279279 14735826
0.53175002 0.0025817365 -0.0378373 14998741
0.51700008 0.015899608 -0.032099217 14538704
0.522973 0.01459273 -0.037087679 14604239
0.50849998 0.029329114 -0.030973557 14670804
0.5151276 0.025231041 -0.034568775 14473167
0.52149999 0.022600265 -0.038480908 14538446
0.50631577 0.035844937 -0.031778403 14802390
0.51348937 0.034744259 -0.036452711 14670802
0.50553125 0.044875737 -0.032425597 14802388
0.51342422 0.045073345 -0.037944123 14868181
0.50612009 0.055046573 -0.032064371 14868182
0.51285356 0.054926589 -0.037190136 14868181
0.50605881 0.065044694 -0.031383816 15197403
0.51314008 0.065033495 -0.036671259 15262939
0.50658339 0.075420603 -0.031996101 15526111
0.5138095 0.074798688 -0.037118856 15460318
0.50650007 0.084943742 -0.032040097 15526112
0.51313949 0.084977545 -0.037242893 15460575
0.50743747 0.093343034 -0.031801648 15131868
0.51315904 0.095258959 -0.036371998 15262940
0.51607502 0.10446262 -0.034553312 14408145
0.52000004 0.10668476 -0.038369354 14998484
0.56200004 -0.060337957 -0.021075811 16182758
0.55883336 -0.0510584 -0.023574313 15722206
0.56066674 -0.055001739 -0.023486121 15590620
0.54900002 -0.040949173 -0.020588292 16182756
0.55602044 -0.04509265 -0.025160225 16117221
0.53900003 -0.030108819 -0.020213278 15656414
0.54562503 -0.033941649 -0.022221483 16051171
0.55228579 -0.035692926 -0.026957281 16182758
0.53641182 -0.023910776 -0.022038599 15196119
0.54479307 -0.025904574 -0.026241977 15722207
0.55024999 -0.02848343 -0.029330291 15985379
0.51900005 -0.010766782 -0.020678237 14933206
0.52611125 -0.013655503 -0.022469305 14933204
0.53343749 -0.015830629 -0.026021382 14998741
0.54100001 -0.018822121 -0.029153714 15656414
0.50699997 -0.0024492857 -0.020437973 14735826
0.51491672 -0.0044057043 -0.022881633 14735826
0.5242222 -0.0057854843 -0.026572719 14867668
0.53100002 -0.0083753485 -0.029081862 14735569
0.50551999 0.0054154946 -0.021564124 14538704
0.51424396 0.004832108 -0.026222238 14604498
0.52149999 0.0010830913 -0.02901881 14801876
0.49800006 0.01691539 -0.021590576 14407375
0.50462073 0.014949085 -0.02418443 14407375
0.51164716 0.014816512 -0.028136933 14472912
0.49561292 0.02500765 -0.022634424 14407632
0.5043667 0.024957722 -0.027381625 14472912
0.51050001 0.02247292 -0.029701307 14538448
0.48860002 0.036759146 -0.020610847 14736853
0.49483681 0.035009541 -0.024123266 14670547
0.5021112 0.034506805 -0.02869208 14802133
0.4871875 0.045563169 -0.02112247 14671317
0.49466664 0.044780858 -0.025251754 14671060
0.5 0.045226552 -0.029285299 14605011
0.48700011 0.05456451 -0.021593815 14605523
0.49445713 0.055023726 -0.025925685 14670803
0.50062501 0.054659307 -0.029321907 14670803
0.48860008 0.06306985 -0.020610848 14934487
0.49428254 0.065183967 -0.024206512 15000280
0.50212514 0.065330297 -0.028896933 14999767
0.4944424 0.075018443 -0.02371824 15066073
0.50188237 0.075080238 -0.028774772 15394525
0.49602449 0.084929854 -0.023338428 15197403
0.50237495 0.085378505 -0.0283492 15526111
0.49800006 0.093662396 -0.022291301 15000282
0.5032196 0.095529057 -0.026607031 14868696
0.50493342 0.103236 -0.0241473 14408146
0.51156259 0.10540675 -0.028764945 14210766
0.56754994 -0.072759941 -0.012515776 15327705
0.55900002 -0.060670178 -0.011148587 15656412
0.563766 -0.064326681 -0.014994821 15853791
0.54800004 -0.051566016 -0.010716171 15919584
0.55511117 -0.053825852 -0.014434551 15919584
0.5604375 -0.057464711 -0.017328061 16051170
0.53780001 -0.042129867 -0.011858597 15459033
0.54468966 -0.044193123 -0.014493861 15656412
0.55194128 -0.047327079 -0.017205101 16051170
0.52630001 -0.032359608 -0.011976535 15459548
0.53499997 -0.035127424 -0.014945513 15525083
0.54259998 -0.037172377 -0.018317211 15722205
0.51605886 -0.023004647 -0.012036302 14998998
0.52434623 -0.024945678 -0.015090376 15195863
0.53233343 -0.026417317 -0.01805331 15459034
0.49900001 -0.010351876 -0.010536042 14867413
0.50452375 -0.01305976 -0.012398516 14801619
0.51373923 -0.015837807 -0.014825963 14867412
0.52320009 -0.017145477 -0.018480521 14933204
0.49751428 -0.0043023643 -0.012704294 14867412
0.5033077 -0.0057759518 -0.016885437 14801619
0.48745453 0.0064829011 -0.010707694 14538448
0.49490204 0.0048613017 -0.014709066 14670033
0.50150001 0.0037985146 -0.018807206 14604241
0.48545009 0.015721209 -0.012414451 14406862
0.49351346 0.014235702 -0.017170936 14407119
0.5 0.01069654 -0.019921228 14341839
0.47790909 0.026800059 -0.010600001 14473425
0.48422042 0.025038734 -0.014751782 14407632
0.49109095 0.023673112 -0.019148719 14341839
0.47622237 0.035177317 -0.01194788 14539218
0.48343906 0.034437779 -0.016896006 14671060
0.47574428 0.044883929 -0.013287267 14605524
0.4820714 0.045173932 -0.017920688 14671317
0.47594595 0.054478761 -0.012703543 14605523
0.48235297 0.055620879 -0.017330095 14605524
0.47684619 0.064217582 -0.011229874 14737109
0.48394358 0.06545867 -0.016385214 14934487
0.47866669 0.071872137 -0.010106717 14671317
0.48421749 0.075102232 -0.014821944 15066074
0.49000001 0.078161441 -0.019522805 15131866
0.48588005 0.084377483 -0.013383251 14868951
0.49127272 0.086206973 -0.018268077 15066073
0.48790911 0.091846988 -0.01134149 14737366
0.49322036 0.095449641 -0.015648289 14737623
0.49651787 0.10423408 -0.014353001 14211536
0.50049996 0.10634631 -0.019355604 14079437
0.49650002 0.11058079 -0.011064999 13355973
0.5646522 -0.083618209 -0.0022670703 16117218
0.55800003 -0.072785772 -0.00058570114 15919838
0.56293756 -0.075290717 -0.0050055915 15985633
0.54750001 -0.061344605 -0.00098687876 15590619
0.55421889 -0.064493001 -0.0034764153 15787998
0.56136847 -0.067120336 -0.007428261 15919583
0.53672737 -0.052144065 -0.0017391362 15327703
0.5445807 -0.055305272 -0.0044690492 15459033
0.55200005 -0.057973951 -0.0077795452 15787997
0.51850003 -0.041101854 -0.00063090521 15327447
0.52445835 -0.043111738 -0.0033532903 15261910
0.53321052 -0.047328141 -0.0043665404 15261910
0.54100001 -0.049217895 -0.0076233712 15590619
0.50666666 -0.031466547 -0.0008157015 15130581
0.51563162 -0.035130233 -0.0043796692 15261911
0.52392858 -0.036192484 -0.0086984662 15327961
0.53100002 -0.039606579 -0.0099686198 15262167
0.49750009 -0.022435525 -0.00083900988 14801618
0.50510001 -0.024934616 -0.0040512877 14998997
0.51233339 -0.026794992 -0.0079080164 15130583
0.48663637 -0.012274026 -0.00064468314 14736595
0.49534786 -0.014410501 -0.004116246 14801875
0.50286967 -0.017142527 -0.0075995624 14867413
0.4781667 -0.0028322518 -0.0002084812 14539216
0.4842858 -0.0045081102 -0.0029776355 14670803
0.49332255 -0.0059555466 -0.0073286672 14802133
0.47544742 0.0054792673 -0.0020478033 14407631
0.48321438 0.0039777327 -0.0066817352 14473168
0.49000001 0.00015872027 -0.0091989143 14670034
0.46765223 0.016616469 -0.0011172205 14144460
0.47384322 0.014553132 -0.0048397155 14275790
0.48125005 0.012828011 -0.0084722191 14472655
0.46620938 0.025430033 -0.0021085853 14276046
0.47309989 0.024652289 -0.0070327097 14341839
0.46517012 0.035343248 -0.002556276 14473681
0.47161764 0.034797281 -0.0075578569 14539217
0.46435389 0.044885475 -0.0032118459 14473937
0.47092867 0.045154016 -0.0088821007 14671315
0.46574578 0.054742459 -0.0031726747 14473936
0.47088891 0.055270154 -0.0084746787 14473937
0.46776664 0.063484877 -0.0018850387 14539730
0.47202167 0.065902926 -0.0059610344 14737108
0.47497192 0.074719325 -0.0043541086 14802901
0.48000002 0.07881368 -0.0084493374 14802901
0.47708571 0.083826862 -0.0020349501 14540499
0.48138461 0.085834078 -0.0067575048 14868951
0.48472312 0.094679587 -0.0042908583 14474450
0.49025002 0.098859631 -0.008343284 14671573
0.48753577 0.103654 -0.0017358054 14277585
0.49178043 0.10568424 -0.0063157752 14211536
0.49450004 0.11013535 -0.0087051634 13684938
0.57583344 -0.10282647 0.0081743905 16643308
0.56826669 -0.091520153 0.0062702745 16116449
0.57279313 -0.096272811 0.0051049222 16116963
0.55800003 -0.081070833 0.0075494037 15919070
0.56324321 -0.085425928 0.004925759 15984862
0.54780006 -0.071381859 0.0079263002 15327447
0.55414999 -0.075262427 0.0049636299 15853276
0.56 -0.079350784 0.0017226752 16116961
0.53790009 -0.061654858 0.0076549537 15459034
0.5448485 -0.065263629 0.0050730011 15393495
0.5517143 -0.068275996 0.002004083 15656666
0.52618182 -0.051903378 0.0082613174 15261656
0.53382504 -0.05531875 0.0054376088 15261656
0.54133338 -0.058542848 0.0020863761 15524826
0.50600004 -0.040110972 0.0094535947 15195863
0.5153529 -0.043306183 0.0062866695 15261656
0.52361906 -0.047347371 0.0042329971 15261656
0.53000003 -0.049457904 0.0012168093 15327449
0.49688891 -0.032087877 0.0066938158 15130326
0.50454837 -0.035352308 0.0050420491 15195863
0.51190913 -0.038293492 0.0026982136 15327449
0.47725004 -0.021353513 0.0089141168 14670291
0.48474997 -0.023795927 0.0070122867 14801619
0.49390623 -0.026543716 0.0039081955 14867411
0.50100005 -0.029158968 0.0011502291 15064790
0.46783331 -0.012810872 0.0091045545 14670547
0.47415793 -0.015093341 0.0065132342 14736082
0.48286363 -0.016186344 0.0025946046 14736081
0.49000001 -0.019341959 0.0011249746 14998997
0.46561545 -0.0048279832 0.0078823725 14539217
0.47350001 -0.0056679756 0.0032967206 14605009
0.48000002 -0.0093958732 0.001102016 14736595
0.45805269 0.00640924 0.0088953925 14210253
0.46469823 0.0050553996 0.0053464873 14341837
0.47168759 0.003253028 0.0017717762 14407631
0.45655811 0.015532241 0.007504507 14210252
0.46351287 0.014722977 0.0028392549 14210252
0.45533329 0.025117569 0.0066181212 14342094
0.46134996 0.024610035 0.0017597476 14341837
0.45550647 0.035187222 0.0055392049 14407888
0.46028572 0.033551075 0.0010567544 14276303
0.45551217 0.045000203 0.0053494149 14277071
0.45703325 0.054075159 0.0062133796 14211279
0.46150002 0.057412196 0.002462046 14276816
0.4586364 0.06193484 0.0088611143 14277328
0.46350753 0.065501817 0.0049577882 14408144
0.46668524 0.074524932 0.0067290789 14671572
0.47072735 0.076391667 0.0023821204 14803158
0.46843749 0.082810305 0.0086138407 14737110
0.47277591 0.085473076 0.0045873919 14408657
0.47613648 0.09383852 0.0068375785 14343121
0.48127994 0.0968275 0.0031309649 14211790
0.47900003 0.10107644 0.0089491541 13947594
0.48332769 0.10468283 0.0050604455 14079950
0.57571441 -0.11254491 0.017495189 15394013
0.56800002 -0.10232515 0.018467758 16248033
0.57328576 -0.10515021 0.014118612 16050657
0.55900002 -0.09076865 0.018949881 15721691
0.56423408 -0.094757326 0.015364922 16116704
0.57050002 -0.09864597 0.011659433 16576999
0.54700005 -0.080496639 0.019183356 15590105
0.55511111 -0.084151074 0.015818557 15590360
0.56085712 -0.087601662 0.012352643 15721690
0.53711116 -0.07177747 0.017995346 15327447
0.54513896 -0.0749093 0.01464583 15392983
0.55162501 -0.078272045 0.012080789 15656153
0.52675003 -0.061590303 0.017751956 15459032
0.53444749 -0.065382794 0.014783053 15459032
0.54200006 -0.068624876 0.011533394 15392983
0.50450003 -0.051213738 0.019461513 15261912
0.51668429 -0.053756017 0.016589273 15327191
0.52459264 -0.056053348 0.013892279 15392983
0.53066665 -0.059044156 0.011570322 15392727
0.49588001 -0.043120772 0.017942769 15196119
0.50385714 -0.044378109 0.01435032 15195863
0.51326674 -0.047499679 0.012388435 15327449
0.46800002 -0.030525105 0.019699603 14867411
0.47366667 -0.031450313 0.018271329 14867411
0.48650002 -0.034012146 0.016718421 14998997
0.49389467 -0.035564505 0.013815949 15064534
0.50200003 -0.038621817 0.010554053 15195863
0.45900002 -0.020267339 0.019320766 14604239
0.46584618 -0.024545163 0.017590445 14670545
0.47362074 -0.024470862 0.013278343 14670803
0.48381823 -0.027444096 0.011304426 14801876
0.49000001 -0.029665848 0.010301765 14867411
0.44880003 -0.011622455 0.019731842 14539729
0.45559996 -0.013864351 0.017464338 14538960
0.46424451 -0.015601189 0.01364174 14539218
0.47033334 -0.019299949 0.011356112 14605011
0.44777787 -0.0044002598 0.018729603 14473679
0.45468628 -0.0051123435 0.01449461 14473425
0.46133336 -0.0071436167 0.011318084 14473425
0.44574142 0.0051963017 0.01724242 14144716
0.45350006 0.0044133468 0.012360112 14276046
0.43900001 0.018127071 0.019506609 14013387
0.44471428 0.015105231 0.016191935 14013131
0.45168188 0.014468443 0.011368765 14078923
0.4390001 0.025834873 0.019335322 14144973
0.44476065 0.024940757 0.014951386 14210766
0.45041665 0.024219565 0.010699574 14342352
0.43900004 0.033028822 0.019506609 14210766
0.44460669 0.034958318 0.014988949 14408144
0.45000002 0.03807025 0.010514263 14408145
0.44609582 0.044723921 0.0160478 14079694
0.45073679 0.046243977 0.011197314 14211023
0.44816223 0.0537684 0.018011611 13882571
0.4524039 0.055812351 0.013396129 14014157
0.44900003 0.060059115 0.019950952 14079950
0.45595953 0.064763591 0.01533241 14145742
0.46020001 0.068237111 0.011183334 14277328
0.45876193 0.073588677 0.018082824 14540244
0.46210709 0.075530641 0.01384344 14737366
0.46467999 0.084789217 0.015343777 14540244
0.47000003 0.089274801 0.010981563 14343122
0.46744826 0.093396269 0.017673114 14408914
0.47202229 0.095974192 0.013650336 14474195
0.46900001 0.10006423 0.019741697 14145741
0.47510213 0.10343368 0.015491089 13685190
0.48063159 0.10728462 0.011643963 13816521
0.47900003 0.11004723 0.01567724 13685192
0.48142859 0.11092723 0.012534147 11447207
0.57725006 -0.12109707 0.026830681 16380908
0.56900001 -0.11037494 0.029279171 15919072
0.57563269 -0.11482772 0.025025051 15656670
0.5575 -0.10096603 0.028685659 15327190
0.56525004 -0.10469098 0.025488397 15524569
0.57133341 -0.10830187 0.022859216 15458520
0.54699999 -0.092237234 0.029000415 15787484
0.55457503 -0.094627023 0.025216227 15919327
0.56062502 -0.098415934 0.022121008 15984863
0.5369001 -0.082154311 0.02787531 15459033
0.54475999 -0.084402651 0.024710972 15655898
0.55223078 -0.087136775 0.021951102 15655898
0.52688235 -0.072677553 0.027473392 15524826
0.53327024 -0.075712621 0.024497896 15459033
0.54150003 -0.078420177 0.021207998 15524312
0.495 -0.060674526 0.029524809 15130583
0.5176667 -0.061638311 0.024618963 15261911
0.52462506 -0.066398673 0.024964575 15459033
0.53050005 -0.068754748 0.021088518 15524826
0.48850003 -0.050159611 0.029138835 15130583
0.49440432 -0.054387402 0.02666254 15130583
0.50310004 -0.056604616 0.023882588 15196376
0.51250005 -0.057421863 0.02157158 15195861
0.52100003 -0.058986422 0.020710871 15524826
0.46800002 -0.040385474 0.029559974 14802388
0.47485715 -0.041770808 0.028398518 14868181
0.48545462 -0.044412043 0.025977423 14999254
0.49235711 -0.046813872 0.022778952 15130583
0.44900003 -0.030336956 0.029411007 14868181
0.45553339 -0.032701608 0.028484762 14670803
0.4654375 -0.034445759 0.02540932 14802132
0.47375005 -0.03679483 0.024029057 14933717
0.48133337 -0.038907096 0.02288981 14999253
0.43850002 -0.02158729 0.029407188 14473423
0.44515151 -0.024239212 0.027384283 14539217
0.45464709 -0.024204964 0.023479505 14539216
0.46250004 -0.027231069 0.021554442 14604752
0.4363429 -0.014047503 0.027993925 14473424
0.44401762 -0.01512335 0.023877973 14473680
0.45250002 -0.017731488 0.020766931 14538960
0.43394998 -0.0049399529 0.026718736 14407631
0.44278121 -0.0053655012 0.022067804 14407887
0.42879996 0.0055578849 0.029191624 14013387
0.43427283 0.0048146187 0.025116723 14078922
0.44078571 0.0038974374 0.02091231 14144715
0.42787999 0.015162878 0.029227957 13881801
0.43377662 0.014713542 0.024096506 13947337
0.42772424 0.024517026 0.029051293 13948107
0.43328387 0.025048727 0.023859782 14079436
0.42900002 0.031272158 0.029105237 13750985
0.43431506 0.035099357 0.024906278 14079950
0.44000003 0.039284348 0.020581093 13619399
0.43674988 0.044331007 0.026521917 13750985
0.44115147 0.046306141 0.022291264 13948364
0.4387778 0.051615909 0.028969275 13685192
0.44366264 0.055365544 0.024922643 13816778
0.44707009 0.064156249 0.026156755 14145230
0.4521724 0.066909641 0.0221684 14277072
0.44900003 0.070920654 0.029060634 14539986
0.45504826 0.075260825 0.02478837 14737108
0.45716172 0.08446078 0.026222959 14539986
0.46089473 0.086525343 0.021614259 14343122
0.45860007 0.09212058 0.02810647 14343122
0.4630807 0.09544684 0.024152335 14211536
0.46513337 0.10289183 0.02542389 13750728
0.57359999 -0.12066692 0.033538211 16381425
0.56675863 -0.1140606 0.036524486 15722464
0.57211113 -0.11663564 0.032487005 15788516
0.546 -0.10175867 0.037360821 15195862
0.55480003 -0.10385807 0.034195367 15327191
0.56219995 -0.10791627 0.033223629 15590363
0.53608006 -0.093198411 0.03746786 15590620
0.54437041 -0.095311277 0.033294611 15656155
0.55166668 -0.098833881 0.031400137 15590362
0.51900005 -0.080021128 0.038856193 15459035
0.52619052 -0.083009385 0.03669221 15393498
0.53385299 -0.086097836 0.033783156 15524826
0.54050004 -0.089029416 0.030975357 15656155
0.50600004 -0.07150197 0.03713613 15196120
0.51526928 -0.075135894 0.036439173 15327706
0.52425003 -0.076290056 0.032678716 15393754
0.53000003 -0.079235651 0.030994559 15262167
0.48787504 -0.062230095 0.037951328 15064534
0.49390626 -0.06416256 0.034953024 15196120
0.50242859 -0.0680582 0.034421381 15130583
0.51750004 -0.065858439 0.030263554 15196376
0.52200001 -0.06887573 0.030526716 15262167
0.47526315 -0.052901894 0.038211923 15130583
0.48420516 -0.054868363 0.034209222 15064790
0.49075001 -0.058003042 0.031570759 15064790
0.44850004 -0.041328195 0.03987772 14933204
0.45499998 -0.041952927 0.03582992 15064790
0.464625 -0.044594835 0.03452396 14999254
0.47518185 -0.047579013 0.033548534 15064790
0.48275 -0.04844024 0.031336434 14998997
0.42700005 -0.03118295 0.039631326 14539216
0.43586671 -0.032379616 0.037254322 14670803
0.44561768 -0.034533501 0.034923293 14867924
0.45400006 -0.037526812 0.032622531 14933204
0.46150002 -0.039286129 0.030229799 14736595
0.42490911 -0.024442149 0.037886467 14539216
0.43418366 -0.024922492 0.03353598 14473423
0.4424167 -0.028167987 0.031393949 14605009
0.41660005 -0.014029712 0.038989484 14407630
0.42465219 -0.015105496 0.035064343 14473424
0.43133339 -0.016212294 0.031185068 14539216
0.41593349 -0.0049504829 0.038166307 14210253
0.42452061 -0.0053896662 0.033117518 14276046
0.43000001 -0.0094237728 0.030179717 14473425
0.41589791 0.0047056759 0.038185444 13881801
0.42403945 0.0048493925 0.033118203 13947594
0.41671723 0.015384475 0.038192354 13750728
0.42317897 0.014861382 0.033389419 13816008
0.41730297 0.0243828 0.038611505 13750985
0.42279989 0.025329899 0.033808492 13882315
0.41875002 0.031260647 0.038947925 13685192
0.42439356 0.034933858 0.034917668 13750728
0.43000004 0.038391519 0.030754937 13619399
0.42697227 0.043176167 0.037570443 13553605
0.43185717 0.04579911 0.033530083 13685191
0.43549994 0.054641783 0.035503034 13816778
0.44060007 0.05842026 0.031747021 14014157
0.43815795 0.062497772 0.038416166 14014156
0.44285145 0.065474838 0.033973515 14211536
0.44606659 0.074579835 0.035681512 14540243
0.45100001 0.077221267 0.031426195 14868694
0.448154 0.084186636 0.037854008 14671315
0.45238003 0.085632704 0.033291038 14605779
0.44900003 0.092410162 0.039455011 14408143
0.45482901 0.095012195 0.034513403 14342608
0.46000001 0.099220887 0.030131543 13750985
0.45638707 0.10233404 0.036434256 13684678
0.46129999 0.10382374 0.031510927 13619399
0.41200003 -0.11215036 0.048286747 14867668
0.55685717 -0.11221172 0.045784064 15525599
0.56144446 -0.1149714 0.042979412 15920613
0.41161409 -0.1044595 0.047499806 14999254
0.5377143 -0.10088991 0.043312643 15064277
0.54388887 -0.1039497 0.043124307 15985379
0.55299997 -0.10856661 0.043123502 15524828
0.41327292 -0.094671369 0.046450194 14933717
0.51750004 -0.090693131 0.047829382 15262169
0.52628577 -0.09135396 0.043091767 15459292
0.53300005 -0.096304275 0.04206793 15459035
0.40900001 -0.084604174 0.049770303 14868181
0.41340461 -0.084891096 0.046079013 14868181
0.51690918 -0.084687807 0.045516692 15393498
0.52327782 -0.086943045 0.042166982 15459548
0.41386595 -0.075123385 0.047044095 14802131
0.48716673 -0.070931889 0.044643845 15393242
0.49380001 -0.07127668 0.041818719 15459035
0.50600004 -0.07446482 0.040843718 15196120
0.51387501 -0.078330219 0.04252889 15327705
0.41616681 -0.065448284 0.047150377 14802132
0.47616673 -0.061341181 0.046235066 15459035
0.48482931 -0.065819971 0.044431012 15393242
0.49200001 -0.067795694 0.040865421 15261656
0.40625003 -0.053525899 0.04895946 14605009
0.41216671 -0.058563221 0.048223138 14736082
0.45842859 -0.051058594 0.047965825 15261656
0.46474999 -0.054149006 0.046275716 15327449
0.47322223 -0.056718793 0.04272658 15327705
0.48000002 -0.059400018 0.04043112 15262169
0.40300003 -0.048927836 0.049983606 14868181
0.43466672 -0.040903494 0.049161267 15130070
0.44604549 -0.043003779 0.045397315 15064534
0.45403337 -0.046661116 0.044901919 15195863
0.46262503 -0.048586339 0.041806377 15261656
0.41641939 -0.032352787 0.046643205 14801618
0.42344001 -0.034800943 0.044665389 14867668
0.43537501 -0.038086627 0.044442713 14998741
0.442 -0.038970556 0.04198727 15064790
0.40514827 -0.023917003 0.047587004 14341837
0.41400009 -0.025143333 0.043250792 14473166
0.42111114 -0.027468877 0.040728226 14539216
0.40472946 -0.014909726 0.046509694 14341836
0.41238236 -0.015289184 0.041489422 14407630
0.40496689 -0.0050821151 0.046419345 14078666
0.41149995 -0.0051656016 0.041402623 14144716
0.40572184 0.0047951164 0.046585869 13750215
0.41145715 0.0051982393 0.041508347 13816008
0.40728149 0.014733036 0.046963386 13553349
0.4118261 0.015330166 0.042230465 13618886
0.40813971 0.023909763 0.048019592 13553605
0.41291785 0.02549451 0.043457482 13684935
0.41569474 0.034293056 0.045247007 13487812
0.42057148 0.038183294 0.041542776 13422020
0.41780648 0.042952634 0.048252616 13553604
0.42262667 0.045601312 0.04400545 13553349
0.42580882 0.054380443 0.046470299 13882569
0.4310295 0.056115076 0.042031974 14079436
0.42814288 0.060992446 0.048662134 14014155
0.43411499 0.065222025 0.044809364 14276814
0.44000003 0.068640709 0.040152002 14211534
0.43662289 0.074139044 0.046872996 14408400
0.44142503 0.076048456 0.042346291 14343120
0.43881825 0.082231849 0.048729122 14342865
0.44343045 0.085346878 0.044645708 14474450
0.44618756 0.094560161 0.045667563 14408659
0.45090002 0.098314546 0.041145504 14342351
0.44877779 0.10228724 0.04772285 14079693
0.45221433 0.10424777 0.044135533 13684679
0.39743477 -0.11491653 0.058838617 15328475
0.40441895 -0.11398122 0.054991018 15196376
0.41046154 -0.11303096 0.050464984 15131353
0.39777279 -0.10509694 0.059111908 15328731
0.40503946 -0.1049188 0.054632001 15262169
0.41057143 -0.10820263 0.050372873 15262939
0.39734283 -0.094378583 0.058369052 15328475
0.40482566 -0.095197298 0.053807005 15262939
0.41100001 -0.094158396 0.050013669 15197146
0.3967678 -0.08439678 0.057714425 15197145
0.4040834 -0.085264668 0.052929267 15065816
0.39583737 -0.07488659 0.057067581 14934230
0.40409109 -0.075132065 0.052172843 14934230
0.39457136 -0.06481418 0.056547523 14999766
0.40351117 -0.065192021 0.051759947 14999767
0.41100001 -0.065774724 0.050013669 14802388
0.38883337 -0.051759589 0.059149336 14868180
0.3939777 -0.055126451 0.055991892 14933973
0.40210256 -0.054925449 0.051388085 14802388
0.45783332 -0.05237205 0.050889056 14933204
0.463 -0.056219399 0.050376531 15196119
0.38830557 -0.045023937 0.058916554 14736851
0.39396745 -0.044732567 0.054212302 14736594
0.40112501 -0.048350502 0.050805975 14605009
0.44750002 -0.046475247 0.050264861 15064790
0.38795564 -0.035195623 0.058509201 14407887
0.39358881 -0.03507936 0.053617515 14473423
0.41562501 -0.033075638 0.050696466 14933204
0.38781822 -0.025295064 0.058083691 14407630
0.39453846 -0.024749836 0.053493146 14341837
0.40145457 -0.025852067 0.050559569 14407630
0.38826841 -0.015590455 0.058707517 14078665
0.39429888 -0.01486831 0.053711664 14144458
0.40000001 -0.011107318 0.050547928 14276044
0.38876468 -0.0065648388 0.059245866 14012872
0.39426523 -0.0053028306 0.054834109 13881542
0.40000004 -0.005020672 0.050547928 13947080
0.39506298 0.0046800878 0.055757109 13552835
0.40026322 0.0057535176 0.051024757 13684165
0.39641553 0.014377486 0.057113789 13290177
0.40206546 0.015669683 0.052176293 13487300
0.39795458 0.022701213 0.058376279 13224641
0.40323469 0.025534024 0.054197341 13355969
0.40640265 0.034224376 0.056267124 13421762
0.41189185 0.036882032 0.051995598 13422019
0.4086 0.041263804 0.058329783 13422018
0.41401029 0.045402415 0.05482332 13487811
0.42000002 0.049297426 0.05012564 13619397
0.41715994 0.053498436 0.05700789 13882570
0.42210719 0.056291383 0.053249091 14079692
0.41900003 0.060950689 0.059815161 14211534
0.42506662 0.064745709 0.055691559 14211278
0.43021426 0.067618184 0.051128473 14145743
0.42720458 0.074169785 0.057822857 14145742
0.4314737 0.075686023 0.053332336 14145742
0.42900002 0.080984846 0.059234139 14408915
0.43411449 0.085001938 0.054841544 14277329
0.44000003 0.089241669 0.050452482 14079950
0.43705997 0.093908899 0.057046 14343122
0.44177493 0.096275084 0.052927501 14145743
0.43900001 0.10085747 0.059587177 14277329
0.44354108 0.10339768 0.055148009 13553607
0.3875455 -0.12094958 0.068269998 15854564
0.39133334 -0.12018908 0.064109057 16249322
0.38782451 -0.11497033 0.068007842 15460062
0.39290354 -0.1149101 0.06298364 15328476
0.38716981 -0.1048255 0.067938901 15328732
0.39285234 -0.10506856 0.063011967 15328475
0.38743845 -0.094929963 0.068019368 15328732
0.39283901 -0.094996817 0.062962666 15262426
0.38812512 -0.084845521 0.068044208 15196889
0.39205056 -0.085240535 0.062977515 14999510
0.38702938 -0.074732639 0.067303993 14999767
0.39160004 -0.075564221 0.062401146 14933974
0.38611111 -0.064771734 0.065628625 14802131
0.3905555 -0.066010632 0.060782757 14999767
0.38515729 -0.055063955 0.064997941 14868180
0.39000002 -0.059218481 0.06024019 15065560
0.38381472 -0.044923063 0.065200947 14736595
0.37900001 -0.030487215 0.069188058 13881800
0.38283822 -0.034893222 0.064870134 14473679
0.37870839 -0.025550002 0.069171131 13881800
0.38236547 -0.024869325 0.064186536 14144715
0.38306782 -0.015118125 0.064982854 13881799
0.38476247 -0.0051847966 0.064971708 13552834
0.38628092 0.0042827525 0.065369852 13224383
0.39066666 0.0068352777 0.060891278 13223869
0.38771877 0.014098833 0.067414671 13158589
0.39227536 0.015636513 0.062808238 13224383
0.38883337 0.020758903 0.069010489 13224126
0.39456776 0.024925696 0.065174609 13290432
0.40019998 0.028985489 0.061252929 13356225
0.3976177 0.033120282 0.067874871 13619140
0.4017615 0.035618171 0.063888483 13356225
0.40541074 0.044802036 0.065307006 13619141
0.41087502 0.048106983 0.061179467 13619398
0.40771747 0.053731915 0.067766547 13948107
0.41244936 0.055717044 0.063392259 14014156
0.40900001 0.060453493 0.069877304 14211536
0.41538647 0.06452927 0.065753184 14145742
0.42090479 0.067328349 0.061540071 14145741
0.41773331 0.073548004 0.068238363 14277072
0.4225454 0.075574197 0.063934997 14211535
0.42480621 0.08467868 0.065497816 14277329
0.43016672 0.087919116 0.061073344 14277329
0.42676744 0.093774498 0.067541428 14079950
0.43258929 0.096042648 0.063229382 13948108
0.42900002 0.10107078 0.0692771 14013903
0.43509096 0.10254657 0.064591452 13487301
0.44000003 0.10572244 0.060752962 13092285
0.37661538 -0.12086848 0.077768534 15460320
0.38374999 -0.12077855 0.072067887 15723235
0.3767722 -0.11504325 0.077584013 15196890
0.38283119 -0.11499581 0.072637759 15459805
0.37682441 -0.10523257 0.077832416 15130840
0.38250601 -0.10486597 0.072811835 15328218
0.37783062 -0.09517657 0.078011669 15130839
0.3825638 -0.094946437 0.072992854 15262680
0.37802085 -0.085146539 0.078188732 14999511
0.38296911 -0.084879436 0.073441386 15131353
0.37761667 -0.074800491 0.077992573 14933974
0.38232556 -0.074955441 0.072981954 14999767
0.37760535 -0.064664789 0.077373147 14933717
0.38156727 -0.065526359 0.072505824 15065303
0.37713876 -0.05482633 0.076804444 14736851
0.38080475 -0.055062272 0.071690567 14802388
0.37696329 -0.044997912 0.076433629 14539473
0.38062859 -0.045244358 0.07129208 14670802
0.37685913 -0.034952555 0.075255252 14144715
0.38000005 -0.037906747 0.070593797 14605265
0.37656069 -0.024904443 0.075188152 13355456
0.37767175 -0.015086674 0.075086236 12829626
0.38000005 -0.013220713 0.070260204 14013385
0.37776652 -0.0055706184 0.076081686 12632246
0.38056669 -0.0042698034 0.07128489 13553091
0.37848654 0.0024949363 0.077858597 12631988
0.38184267 0.0057467688 0.074070111 12894904
0.383818 0.015103824 0.075000048 13026490
0.38690302 0.024241477 0.075589776 13224126
0.39095831 0.027509429 0.07190349 13421761
0.38846159 0.032061093 0.078224145 13289918
0.39340353 0.035576649 0.074253902 13356226
0.39595783 0.04435185 0.075979024 13553349
0.40051606 0.046588983 0.071753815 13750726
0.39740908 0.052145086 0.078467034 13882570
0.40315017 0.055534009 0.074422911 13882570
0.40614456 0.064430371 0.076161072 14013899
0.41159999 0.066621982 0.071700789 14014157
0.40849999 0.072387189 0.078025758 14145486
0.41356245 0.075622261 0.074284263 14276815
0.41618291 0.084472746 0.076013878 14145743
0.42070839 0.087340854 0.071999781 14211536
0.41800004 0.092119619 0.078263208 13948364
0.42260006 0.09542767 0.074506216 13816779
0.42582354 0.1030098 0.075106695 13290179
0.37360364 -0.12230781 0.086084701 15000024
0.37253743 -0.11492896 0.085011691 14802902
0.37190405 -0.1049304 0.084809676 14868438
0.37257639 -0.094912134 0.084683053 14868182
0.37295198 -0.084996432 0.084616318 14868182
0.37270331 -0.075149953 0.084879838 14670803
0.37304175 -0.065108381 0.08480864 14605009
0.37240157 -0.05499424 0.085083775 14473680
0.37266186 -0.044979479 0.08492288 14408144
0.37344137 -0.035069782 0.085293099 13881544
0.37374452 -0.024996774 0.084918618 9210500
0.37247321 -0.014914981 0.084774435 4277310
0.37297785 -0.0050649531 0.084786311 6711137
0.37692881 0.0048827627 0.085160583 12368818
0.38000003 0.0091968756 0.080401495 12631732
0.37826473 0.014227815 0.086801849 12632246
0.38090619 0.016301317 0.082728453 12961210
0.37900004 0.020825168 0.089298964 12829881
0.3826561 0.0253041 0.084786594 13158590
0.38608181 0.03494323 0.085197136 13421505
0.39019999 0.038675003 0.080732517 12960697
0.38808203 0.043765657 0.087165922 13487555
0.39151382 0.046096679 0.08298818 13618884
0.39482027 0.054938283 0.085138179 13882056
0.40000001 0.058811083 0.08082509 13685190
0.39721313 0.063653186 0.087173559 14013642
0.40146542 0.066003308 0.083103679 14013898
0.39900002 0.070651241 0.089652337 14276557
0.40444267 0.074862279 0.084988326 14211022
0.41050002 0.079415053 0.080704451 14211536
0.40709245 0.08395648 0.086860076 14079437
0.41176474 0.08615353 0.082574919 14013901
0.40900001 0.091092736 0.089665152 14145231
0.41471714 0.094755173 0.085148975 13882571
0.42050004 0.098904543 0.081357531 13750730
0.41765004 0.10206403 0.087924764 13224642
0.42326835 0.10448238 0.083401136 12434358
0.43000001 0.11086944 0.086048111 6511962
0.36879998 -0.12243612 0.098665565 14605522
0.3707144 -0.12312903 0.094372399 14671059
0.36838746 -0.11446203 0.097465344 14473937
0.37055093 -0.11569376 0.092524 14671059
0.36790636 -0.10472844 0.095290788 14342350
0.36999995 -0.10611419 0.090473294 14671315
0.3678309 -0.095075786 0.095402271 14211022
0.36999995 -0.094395287 0.090371393 14736596
0.36798295 -0.085208625 0.095703021 14210765
0.37033334 -0.084754817 0.090839773 14671316
0.3680166 -0.074941285 0.095865197 14144971
0.37017232 -0.075362831 0.090764761 14407887
0.36778587 -0.064962685 0.096248791 14211021
0.37047616 -0.064926639 0.091419555 14342094
0.36802545 -0.054931767 0.095720701 14013385
0.37011105 -0.055333115 0.090670191 14342095
0.36842558 -0.045481626 0.096631043 14013386
0.37025496 -0.044492301 0.09177544 14144973
0.36882609 -0.038246255 0.098038115 13750215
0.37106422 -0.03445575 0.094489224 13487556
0.3686364 -0.02122025 0.0985981 2172961
0.3717387 -0.025467554 0.094698749 8224117
0.3681547 -0.014603268 0.096845463 1976096
0.37039003 -0.015651306 0.091952726 2107425
0.36852542 -0.0074838572 0.096093953 1975840
0.37105143 -0.0034612061 0.094219938 5462097
0.37451741 0.0049798298 0.095067769 11513766
0.37613761 0.014999658 0.094881482 12500660
0.37804171 0.024020197 0.09616822 12961211
0.38076738 0.027363589 0.092498392 13290432
0.37900004 0.030584872 0.099058665 12961467
0.38221651 0.035218641 0.09494631 13290175
0.38494518 0.044929795 0.095088042 13421761
0.38777217 0.054042935 0.09633977 13816263
0.39149997 0.056732483 0.09254574 13948106
0.38885716 0.060727555 0.098816879 13947850
0.39361197 0.065168045 0.094744399 13816520
0.39667007 0.074183568 0.09588699 14014155
0.40029624 0.077597074 0.091990151 14013899
0.39850003 0.081816852 0.098634847 14145742
0.4025242 0.085483827 0.094503626 13948364
0.40561286 0.094321065 0.095840886 13619657
0.41157898 0.097146831 0.091411971 13619401
0.41440001 0.10238726 0.092008427 13027780
0.42600003 0.10884082 0.090732671 12039862
0.43000001 0.10986279 0.099637717 12961215
0.36818752 -0.12379352 0.10491293 14078921
0.37 -0.12720811 0.10045978 10723224
0.36701572 -0.11495523 0.10515967 14079179
0.36675733 -0.10505614 0.10515828 13750471
0.36700034 -0.094817594 0.10522974 13487299
0.36700031 -0.084937342 0.10522971 13421249
0.36695176 -0.075047515 0.1052158 13355455
0.36669475 -0.06469243 0.1051415 13289662
0.36700031 -0.054866936 0.10522963 13289662
0.36740762 -0.045208558 0.10506833 13289405
0.3685886 -0.035283498 0.10496103 12829111
0.36999995 -0.031303115 0.10479068 12500917
0.3683067 -0.023117453 0.10542452 3882552
0.37012291 -0.02734858 0.10471772 10395285
0.36648622 -0.014896209 0.10507839 1909790
0.36747015 -0.0061566313 0.10536179 2370600
0.37057573 -0.001535418 0.10447831 7699057
0.37270167 0.0049224789 0.1051127 11184800
0.37385964 0.015043481 0.10488209 12369074
0.37558317 0.024746953 0.10504633 12698295
0.37812769 0.033950571 0.1061945 12961467
0.38041022 0.036682304 0.10244043 13093053
0.37899998 0.041034658 0.10842404 13093055
0.381621 0.045201834 0.10458098 13421762
0.38395041 0.054925703 0.1051725 13882313
0.38652098 0.064607829 0.10556426 13948107
0.39089477 0.068036854 0.10112221 13947594
0.38847372 0.072689317 0.10755613 13882570
0.39240843 0.076001331 0.10393614 14014156
0.39513782 0.08472304 0.10541051 14014157
0.40000004 0.088047795 0.10090583 13882571
0.39720002 0.093059532 0.106761 13750986
0.40125531 0.094768964 0.10226605 13685193
0.4057143 0.10135068 0.10416634 12829886
0.41620001 0.10712029 0.10345608 10066580
0.42000002 0.10878269 0.1022367 10264215
0.42000002 0.11025754 0.1022367 2631714
0.36849061 -0.12440705 0.11466051 13487043
0.36999997 -0.12937355 0.1172636 12500150
0.36748439 -0.11509984 0.11526404 13487041
0.36739707 -0.10519207 0.11504664 13026490
0.36768079 -0.094952941 0.11486435 12631733
0.36772817 -0.085000299 0.11507669 12697526
0.36766148 -0.075236201 0.11515079 12434610
0.3675229 -0.064839981 0.11527713 12565939
0.36766955 -0.054966558 0.11532279 12697525
0.368 -0.045199405 0.11518064 12631732
0.36888054 -0.037141655 0.11542949 12565938
0.37000021 -0.032483563 0.11456218 11447459
0.36758104 -0.022723541 0.11526425 2633255
0.37018529 -0.027643908 0.11516361 8355958
0.36477783 -0.014828137 0.11483589 1449749
0.36616156 -0.0051262463 0.11507913 3423540
0.37 -0.00074632664 0.11215317 8553851
0.36900002 0.00011952608 0.11919266 7369321
0.37103462 0.0049329568 0.11503822 10461334
0.37243116 0.015005151 0.11470497 11842986
0.37393776 0.025073029 0.11509584 12369330
0.37628013 0.035229914 0.11486614 12632503
0.37808546 0.044908527 0.11511882 13027261
0.38015392 0.048043594 0.11122585 13158847
0.37865111 0.053763162 0.11795957 13422019
0.3808372 0.055680413 0.11391172 13685190
0.37900001 0.060455479 0.11976107 13356227
0.38277495 0.06497436 0.11502116 13816521
0.38584962 0.074939996 0.11513469 13816521
0.38833791 0.083507501 0.11636896 13882571
0.39090204 0.086687006 0.11293229 13816778
0.38900003 0.09028095 0.11927838 13882571
0.39420176 0.094452485 0.11493457 13422021
0.40000001 0.099388726 0.11047798 12698302
0.39900002 0.10007432 0.11487213 12632507
0.40493658 0.10538393 0.115476 7697263
0.41166666 0.1083906 0.11177126 4735293
0.40628573 0.11073266 0.11710513 2762523
0.37 -0.13067281 0.1221142 10395288
0.36899999 -0.12270967 0.12141396 13224128
0.37033746 -0.12531632 0.12514132 12105648
0.36850843 -0.11498365 0.12245677 12631990
0.37061042 -0.11507986 0.12752271 12106160
0.36886501 -0.10567225 0.12164646 12434866
0.37061208 -0.104564 0.1263295 12237488
0.36900005 -0.094578467 0.12059639 12500147
0.37058011 -0.095230952 0.12592575 12171438
0.36900023 -0.085319839 0.12150293 12632247
0.37056828 -0.085151576 0.12657687 12237231
0.3690002 -0.074654929 0.12172098 12566452
0.37048176 -0.075047702 0.12683605 12435125
0.36879003 -0.064642988 0.12340017 12631732
0.37004989 -0.065307446 0.12832484 13026747
0.36858332 -0.055343263 0.12320648 12631988
0.37000003 -0.054060407 0.1281067 12829624
0.36898896 -0.044413488 0.12372428 12566195
0.36999992 -0.046425749 0.12835978 12763318
0.36900005 -0.037611581 0.12358898 12236974
0.37036619 -0.033301275 0.12575676 11052187
0.36595303 -0.022971701 0.12495391 2699303
0.37077281 -0.028090233 0.12497346 8026223
0.36262789 -0.014738505 0.12476593 1252114
0.36438328 -0.0055348244 0.12500305 3225647
0.36900002 0.00011952608 0.12048841 7764077
0.37114471 0.0049364283 0.12519802 9606024
0.37168956 0.014915099 0.12484565 11513765
0.37326893 0.02496491 0.1250167 12369073
0.37493241 0.035327811 0.12500483 12632246
0.37677673 0.045020629 0.12507516 12895675
0.37788153 0.054866299 0.12496442 13355969
0.3787142 0.063295901 0.12653707 13553348
0.38061765 0.06667684 0.1233888 13685191
0.38189763 0.075001597 0.12511885 13751241
0.38534915 0.084844343 0.12509969 13619656
0.38867396 0.091847584 0.12522909 13290692
0.39167216 0.0966774 0.12481614 12830142
0.39576927 0.10200903 0.1271565 10066069
0.40412122 0.10655151 0.12384331 5920852
0.40818179 0.11184602 0.12316485 2960414
0.37199998 -0.12128677 0.13250962 10526870
0.37153846 -0.11522606 0.13202402 10724509
0.37266657 -0.10452949 0.13311556 11119011
0.37258434 -0.095250614 0.13349465 11053475
0.37197322 -0.085565679 0.13322926 11513767
0.3714247 -0.074946061 0.13299559 11514023
0.3712728 -0.064963639 0.1347601 11514023
0.37103951 -0.055162288 0.13482699 11842730
0.37062734 -0.044996873 0.13490595 12105647
0.37122205 -0.034949232 0.13489434 10263442
0.35900003 -0.020053925 0.13529229 1515030
0.36397508 -0.022805791 0.13459702 2369825
0.37145653 -0.02810538 0.13499701 7500651
0.35867018 -0.014841205 0.13601673 1317652
0.36047277 -0.015057078 0.13196352 1581078
0.35900012 -0.008542642 0.13666752 1317653
0.36342728 -0.0045856792 0.13438892 3883066
0.36900002 0.00011952608 0.13301402 8224630
0.37093526 0.0049405252 0.13498947 9145733
0.37139371 0.014903284 0.13517974 11251108
0.37280443 0.024950117 0.13511197 12369332
0.37370482 0.035115741 0.13514432 12829626
0.37403625 0.04494413 0.13515985 13158848
0.3754999 0.054912321 0.1348214 13553606
0.37740681 0.064860091 0.13506611 13816776
0.3782573 0.074278004 0.13614666 13685191
0.38057494 0.076856039 0.13206241 13685448
0.37899998 0.08174938 0.13877349 13487813
0.38170075 0.085116841 0.13472061 13488327
0.3862066 0.093776129 0.13554123 12896447
0.39105269 0.097937375 0.13204743 12698554
0.38900003 0.10029817 0.13840215 11645357
0.39365712 0.1022402 0.13455148 8684158
0.40230003 0.10872054 0.13814217 2696732
0.40400001 0.1107861 0.13948302 2894362
0.37225008 -0.062785357 0.14088541 10395027
0.37247625 -0.054688886 0.14155547 10395285
0.37360001 -0.044656616 0.14258946 10198163
0.3734507 -0.034306839 0.14331445 8553081
0.364746 -0.022630269 0.14526238 1515030
0.37247059 -0.028272314 0.14406329 7171686
0.36308569 -0.014894401 0.14540774 397062
0.36210114 -0.0056038662 0.14512394 2499357
0.37179801 0.0054328404 0.14416072 8355705
0.37151811 0.015054161 0.14481911 9540234
0.37106618 0.025061302 0.14474204 10922145
0.37166956 0.034768116 0.14468943 11250597
0.37162527 0.045162503 0.14459567 11842989
0.37349278 0.055209037 0.14476587 12764091
0.37461084 0.065000348 0.14492069 13093312
0.37605298 0.07495489 0.14479361 13290691
0.37778574 0.084309615 0.14536817 13224900
0.38047624 0.088303052 0.142112 13553863
0.37871429 0.090933762 0.148674 13093316
0.38352823 0.094976828 0.14472972 12830399
0.38849053 0.10344673 0.14719363 7171429
0.39253059 0.10623879 0.14473224 4144179
0.40100002 0.10918114 0.14173092 2959645
0.39690912 0.1112901 0.14450695 2959899
0.40178576 0.11152079 0.14220805 3157278
0.36408418 -0.023641627 0.15548708 1580824
0.36495197 -0.014833214 0.15504649 659721
0.36451605 -0.0060020532 0.15538599 1446668
0.37099993 0.026175706 0.15069395 8093045
0.37190002 0.034539048 0.15153003 8093043
0.37155554 0.046127863 0.1509936 8685182
0.37354553 0.055414721 0.15178464 9803409
0.37469572 0.065186687 0.15291633 9934993
0.3760134 0.075114153 0.15312594 10329753
0.37708068 0.085202292 0.1533685 11514542
0.3778519 0.091364279 0.153632 11975348
0.38381398 0.097171776 0.15380038 11974579
0.38762695 0.10350993 0.15423252 5591885
0.39039999 0.10961588 0.15242712 3025691
0.39190909 0.11164092 0.15244898 2894362
0.36246422 -0.023662185 0.16471215 923407
0.36163658 -0.014696069 0.16463824 923406
0.3636145 -0.0055788155 0.16507545 1251601
0.36400005 0.00036137234 0.16773155 8553595
0.38700002 0.099782497 0.16033992 11448235
0.34636647 -0.024368046 0.17707115 1449237
0.35466668 -0.023158217 0.17335789 791308
0.3617954 -0.024334686 0.17160477 856844
0.34590021 -0.015103383 0.17721403 1186323
0.35549146 -0.015242865 0.17340232 726027
0.360174 -0.014178912 0.17078124 1186322
0.34606454 -0.0086697405 0.17744721 1120531
0.35705882 -0.009175566 0.17467326 528650
0.3625505 -0.0044136131 0.1743917 2633255
0.3643333 0.0012147257 0.17533395 8290679
0.33770832 -0.024135062 0.18738204 1251858
0.34156734 -0.024825415 0.182896 1383444
0.33811766 -0.015103827 0.18826418 1186322
0.34142643 -0.01490612 0.18362756 1186065
0.33771431 -0.0080613168 0.18784253 1186065
0.34210217 -0.0079461588 0.18311425 1186066
0.36300001 0.00096737203 0.18013898 8488572
0.33699995 -0.023372902 0.19048649 1251858
0.33699992 -0.014880376 0.19050971 1251858
0.33700001 -0.0087267775 0.19043079 1186067
0.78750002 -0.14262192 0.29953983 12104623
0.77442867 -0.13417006 0.29832211 12960442
0.78100002 -0.13870049 0.29889637 12630966
0.76628572 -0.12507184 0.29762235 13027005
0.76356256 -0.1154929 0.29691657 13026749
0.76622224 -0.10717564 0.29812527 13421250
0.76700002 -0.092222936 0.29982403 13552836
0.76500005 -0.085717194 0.29904222 13487043
0.78663641 -0.14254922 0.30515531 11775143
0.79120004 -0.1469961 0.30557925 10064526
0.77435303 -0.13411161 0.30536285 11973291
0.78025001 -0.1385673 0.30454701 12301486
0.76708692 -0.12483305 0.30477738 12105647
0.77000004 -0.12953663 0.30730575 12236976
0.76537937 -0.11516451 0.30444509 12039853
0.76757157 -0.10512376 0.30518302 11908268
0.76860005 -0.094935551 0.30422869 11776938
0.77000004 -0.097991407 0.30820706 12632761
0.76686215 -0.08487311 0.30503502 11776938
0.76592004 -0.075057775 0.30478501 11776939
0.76718181 -0.067997918 0.30675468 12303282
0.78722221 -0.14246854 0.31469324 9209472
0.79136366 -0.14677428 0.31541091 8683641
0.77570003 -0.13285902 0.3139388 12960443
0.7823751 -0.13734518 0.31636497 12762294
0.76900005 -0.12036718 0.3114073 13355973
0.77305269 -0.12500109 0.31514916 12500664
0.76900005 -0.11586657 0.3114073 13092801
0.77378953 -0.11463382 0.31678286 11776942
0.7728889 -0.10469034 0.31429303 12500407
0.77327275 -0.095198043 0.31421271 12369078
0.77311772 -0.085451335 0.31457013 11777197
0.76900005 -0.07536111 0.3114073 12895933
0.77305895 -0.074801527 0.31497139 12106162
0.7727778 -0.066685632 0.31474984 11711402
0.78900003 -0.14104477 0.32320043 9868172
0.79257888 -0.14525318 0.32564369 8947583
0.78662509 -0.13509774 0.32476184 10000016
0.79050004 -0.13761234 0.32936662 9079682
0.77866673 -0.12309367 0.3220062 10461081
0.78355563 -0.12570024 0.32545769 9605772
0.77900004 -0.11828512 0.3227514 11579562
0.78310001 -0.11432347 0.32555273 9013891
0.778 -0.10538127 0.32051578 11579562
0.78475004 -0.10461309 0.32574964 7961203
0.78512508 -0.094975673 0.32540923 8750718
0.7848236 -0.084908567 0.32506156 8948097
0.77900004 -0.071781963 0.32092774 10527130
0.78566664 -0.075308695 0.3259784 8487545
0.77800006 -0.065315224 0.32051578 11514280
0.78500009 -0.067741372 0.32615888 7764078
0.78840005 -0.12525082 0.33033729 8421752
0.79333341 -0.12479521 0.33612266 8816508
0.78800005 -0.11503989 0.33016971 8158578
0.79250008 -0.11511568 0.33565363 8355956
0.78900003 -0.10502703 0.3305887 8093042
0.79358828 -0.10498024 0.33633858 8290163
0.79336363 -0.094969362 0.33504018 8158577
