# .PCD v0.7 - Point Cloud Data file format
VERSION 0.7
FIELDS x y z rgb
SIZE 4 4 4 4
TYPE F F F U
COUNT 1 1 1 1
WIDTH 818
HEIGHT 1
VIEWPOINT 0 0 0 1 0 0 0
POINTS 818
DATA ascii
0.51500005 -0.013095049 -0.090445079 14210512
0.51671427 -0.0058771349 -0.090746142 13224132
0.52433336 -0.031746816 -0.08062648 12827829
0.51688468 -0.022919867 -0.083002701 13420222
0.52149999 -0.028521422 -0.081209466 13354172
0.5135172 -0.014554023 -0.084406286 13881290
0.51387501 -0.0052410048 -0.084844217 14540504
0.51763493 0.0045956145 -0.084716469 12632507
0.51900005 0.011103009 -0.082642645 12500920
0.52166671 0.01360486 -0.081032135 11974320
0.53190917 -0.042734094 -0.071904548 13683136
0.52618182 -0.033515215 -0.074628644 13814209
0.53045458 -0.038889125 -0.073628753 13617086
0.51537222 -0.023383539 -0.074998461 13288123
0.52159995 -0.028486816 -0.075892352 13617087
0.50653338 -0.013476566 -0.073110379 13750216
0.51117855 -0.01633383 -0.076825954 13552066
0.5056327 -0.005585039 -0.07419277 14540504
0.51057148 -0.0022247958 -0.078227438 14540506
0.50730002 0.0017105665 -0.071991876 14343126
0.51425451 0.0055839475 -0.075652003 14145747
0.5180589 0.012081939 -0.073292434 13816782
0.52280962 0.01646506 -0.075352058 13816781
0.52639294 0.023365814 -0.073965736 12829886
0.53000003 0.028708687 -0.070746087 14014414
0.53766674 0.034161061 -0.070510767 10329751
0.54255557 0.037291285 -0.072282881 10790555
0.54200006 0.041412599 -0.071079053 10856348
0.54700005 -0.061288588 -0.060209934 13287864
0.53900003 -0.050297759 -0.064376578 13814721
0.542 -0.054330695 -0.062677346 13946050
0.53405559 -0.04470779 -0.065126352 13880257
0.51824999 -0.030162944 -0.062505759 13419451
0.52539998 -0.034476224 -0.064744055 13616830
0.5304001 -0.039065532 -0.066950843 13814208
0.50749999 -0.021592449 -0.064034253 13024950
0.51385367 -0.025897188 -0.065450832 13222073
0.52000004 -0.029047469 -0.069411255 13551038
0.49726087 -0.012343424 -0.062684886 13882060
0.50358534 -0.016261522 -0.065869927 13420737
0.4961088 -0.005215805 -0.063200533 14540504
0.50105554 -0.0047230134 -0.06844759 14606040
0.49784616 0.0015973866 -0.062062867 14343127
0.50454348 0.0050497991 -0.065064214 14079955
0.51120007 0.0085438574 -0.068238005 13948368
0.50779998 0.011339569 -0.061602466 13685195
0.51520002 0.015342763 -0.064944193 13750988
0.52150005 0.018940082 -0.068239637 13685195
0.51833338 0.021201165 -0.062111106 13619402
0.52433342 0.025545826 -0.065103017 13750988
0.52850002 0.03110189 -0.061267234 14079953
0.53411365 0.035504028 -0.064996421 13290437
0.53780001 0.044242237 -0.063479051 11711403
0.54000002 0.045431476 -0.064243183 11053472
0.53811115 0.05196283 -0.061470296 11448228
0.55500007 -0.07258141 -0.050696395 13551548
0.54814285 -0.060959466 -0.055476945 13880255
0.55193955 -0.065604888 -0.053273931 14011841
0.53854555 -0.050599471 -0.054007981 13880256
0.54346669 -0.055387143 -0.055578411 13946049
0.52866668 -0.040670156 -0.053861827 13814208
0.53379595 -0.045258556 -0.055286691 13748415
0.51705885 -0.031732466 -0.054425854 13551037
0.52433336 -0.036567092 -0.055323984 13682622
0.49860001 -0.021315461 -0.051848434 13024694
0.50475001 -0.023881169 -0.054748632 13090487
0.51200008 -0.02808935 -0.055616833 13287866
0.48705888 -0.012050366 -0.052204937 14079180
0.49402121 -0.015475386 -0.055512764 13552066
0.50120008 -0.019314921 -0.058220804 13156536
0.48710531 -0.0051238625 -0.053230632 14606040
0.49119997 -0.0043821149 -0.057691507 14540504
0.48788887 0.0010471032 -0.051547576 14343125
0.49453193 0.0045787846 -0.054708857 14079953
0.50172728 0.0081730569 -0.057790041 13816781
0.49900001 0.010675147 -0.051421922 13553609
0.50507694 0.012583516 -0.055280644 13487816
0.51223338 0.017517239 -0.055625126 13487816
0.5172258 0.022668647 -0.05439629 13356485
0.52261293 0.027522948 -0.055514865 13750986
0.52671438 0.032629333 -0.054413576 13882572
0.53139287 0.037094414 -0.05587114 14080208
0.53750002 0.04201477 -0.054257579 14145743
0.54245955 0.047303688 -0.055141617 13750986
0.53900003 0.052539654 -0.059329346 11382435
0.54549986 0.054157544 -0.054138351 12698041
0.551 0.059513915 -0.052265864 11382437
0.55435711 0.062941752 -0.052304812 11513765
0.56099999 0.067818411 -0.051899951 11645607
0.56644446 0.073711604 -0.051666994 11645607
0.55900002 -0.080953926 -0.040592737 14538185
0.56 -0.081535734 -0.041976329 14472392
0.55617028 -0.074788801 -0.044348001 14275013
0.54704767 -0.062393419 -0.044422776 13946048
0.55203134 -0.067428246 -0.045497809 14077634
0.53744447 -0.052857608 -0.044061679 13880255
0.54306895 -0.057301007 -0.045971114 13880255
0.52629167 -0.042031351 -0.044483796 13814206
0.53206247 -0.046851389 -0.04556641 13814462
0.50580001 -0.03157264 -0.042531513 13287864
0.51500005 -0.034611911 -0.045400139 13616572
0.52269232 -0.038235452 -0.046336148 13682622
0.48800004 -0.020786235 -0.041149821 13025206
0.49502635 -0.023970002 -0.044125162 13090485
0.50352943 -0.027576169 -0.047176208 13222072
0.47783336 -0.011778169 -0.04103855 13948107
0.48418367 -0.014748998 -0.045040928 13617859
0.49155557 -0.018509613 -0.048227135 13156794
0.47715625 -0.0058829249 -0.041738637 14540504
0.48188901 -0.0051322663 -0.046905946 14540504
0.47900003 0.00071583095 -0.040390145 14211540
0.48453492 0.0029593664 -0.044689044 14080468
0.49215794 0.0078637088 -0.046474922 13422280
0.49785718 0.011484266 -0.043398034 13027779
0.50422496 0.016133929 -0.044676103 13093571
0.51100004 0.019305687 -0.048471611 13290949
0.50666666 0.021251747 -0.041670106 13093315
0.51406974 0.02486028 -0.045592431 13356485
0.52066672 0.029422015 -0.047561001 13751242
0.52541941 0.033665176 -0.044540673 13817035
0.53118759 0.038100064 -0.045959 14079951
0.53619999 0.043612674 -0.044587366 14145744
0.54178953 0.048574563 -0.046020295 14145744
0.54620516 0.053951666 -0.045336444 14145487
0.55071437 0.05893125 -0.044503205 14014158
0.55482763 0.063113555 -0.044230737 13882571
0.56088239 0.06815163 -0.044745926 13158592
0.56722742 0.074642435 -0.04550612 11514022
0.57000005 0.07891307 -0.041391525 10002069
0.56900001 0.080106661 -0.045981046 11579813
0.57000005 0.080247454 -0.043393098 10791327
0.55772227 -0.081857584 -0.035064887 14275526
0.56 -0.083720684 -0.039354384 14603978
0.55414301 -0.075068556 -0.035055298 14275013
0.53900003 -0.060392227 -0.030938651 14011841
0.54502708 -0.063799545 -0.034923363 14011841
0.55092865 -0.068638779 -0.035955157 14077634
0.52833337 -0.050952017 -0.031357601 13682876
0.53500003 -0.055052169 -0.035067454 13814462
0.54050004 -0.059294973 -0.038617253 13880768
0.51783341 -0.041857436 -0.031138239 13682877
0.52433336 -0.045128379 -0.034743253 13682876
0.53066671 -0.048830554 -0.037983824 13748926
0.49600002 -0.030316465 -0.033996418 13222327
0.50384611 -0.032051541 -0.03667859 13222071
0.51540619 -0.037394606 -0.035425466 13485754
0.47900003 -0.0200291 -0.030298015 12893619
0.48514637 -0.023064835 -0.033930924 12959155
0.49326319 -0.026891919 -0.036855601 13090485
0.46900001 -0.011193435 -0.031129403 14211022
0.47465965 -0.014298102 -0.034402721 13618628
0.48181251 -0.017822364 -0.037458442 13157048
0.46808338 -0.0058293878 -0.031709246 14540504
0.47264588 -0.0051237014 -0.036310982 14540759
0.47557142 0.0020261088 -0.034897704 14146004
0.48431036 0.0068903719 -0.035597272 13422538
0.49100003 0.0093545625 -0.037955243 13028037
0.48850003 0.01045052 -0.032043673 13028550
0.4946731 0.014312813 -0.034499224 13094086
0.50111115 0.017760012 -0.038084459 13093828
0.49900001 0.020020491 -0.030978981 13685197
0.50561547 0.022612521 -0.035261001 12961729
0.51296151 0.027512936 -0.035496518 13553864
0.51781255 0.031383298 -0.033284124 13685449
0.52455819 0.036190882 -0.035379425 13817035
0.53000003 0.039875343 -0.039107226 14014414
0.5351333 0.044448499 -0.034875415 14014414
0.5411818 0.049240276 -0.035037551 14079951
0.54604447 0.054297622 -0.034965593 14145486
0.55050004 0.059073646 -0.035980552 14276559
0.55446672 0.064771153 -0.034814961 14079437
0.56024998 0.069366165 -0.038388729 14014157
0.55800003 0.0707203 -0.03333671 12697786
0.56300002 0.072683699 -0.038253855 13355971
0.55370587 -0.081407875 -0.026488557 14143941
0.547611 -0.072326809 -0.022816747 14275270
0.55172503 -0.076060042 -0.026085649 14406856
0.53814292 -0.060926761 -0.023601025 14011841
0.54439539 -0.065983497 -0.025101297 14143427
0.52575999 -0.052117933 -0.025084615 13617083
0.53318518 -0.056833766 -0.025586436 13748669
0.50800002 -0.040269513 -0.020239968 13419704
0.51547724 -0.043804739 -0.024492282 13485497
0.52171427 -0.048510637 -0.025587639 13551290
0.48771429 -0.030832751 -0.02693704 13156278
0.49392313 -0.032842599 -0.024295058 13156535
0.50442863 -0.036953609 -0.022713427 13222326
0.51181823 -0.038394608 -0.02703952 13419449
0.47595006 -0.022689603 -0.022867717 12893363
0.48323917 -0.026485827 -0.025995057 12959155
0.4658958 -0.013533412 -0.024068216 13618371
0.47240004 -0.017583549 -0.026713226 13222586
0.46311104 -0.0052692434 -0.024967575 14540503
0.46620694 0.0015084808 -0.024715805 14014417
0.47340915 0.0060082315 -0.024092149 13159880
0.48260003 0.00896932 -0.027369097 13093830
0.47816667 0.010976634 -0.020917518 13028551
0.48413336 0.011642166 -0.025270831 13094087
0.49479172 0.016821293 -0.026753841 13224903
0.49900004 0.020215185 -0.026695698 13619404
0.50324327 0.023954082 -0.025180506 12698303
0.51100004 0.028477274 -0.025943864 13487816
0.51736367 0.032377012 -0.024247361 13422279
0.52336109 0.037169382 -0.025518747 13751243
0.52720004 0.041145608 -0.023230784 13948622
0.53485715 0.045766976 -0.025244826 14014414
0.54000002 0.049476758 -0.028467752 14080207
0.53875005 0.050938901 -0.021150257 14080207
0.5446924 0.055285886 -0.02516285 14079951
0.54800004 0.061206851 -0.021834671 14014157
0.55225992 0.065368474 -0.025600597 13947850
0.55500001 0.070340082 -0.027309624 11513251
0.54800004 -0.080643795 -0.017344765 13551290
0.55000001 -0.080938116 -0.019338232 13683135
0.5446251 -0.075052582 -0.014695331 14209733
0.53762507 -0.063741721 -0.013791216 13946304
0.54200006 -0.067708693 -0.01625992 14143684
0.52545834 -0.053447593 -0.014067492 13551290
0.53204542 -0.057860114 -0.015764816 13682876
0.50590909 -0.041396432 -0.015099212 13419704
0.51548153 -0.046056956 -0.016600719 13551290
0.5211429 -0.049851391 -0.015887272 13551290
0.47400004 -0.030916454 -0.010008185 13025205
0.484 -0.032215152 -0.01313958 13090997
0.49578947 -0.035093285 -0.016207075 13156789
0.50184613 -0.038247067 -0.016651809 13288118
0.46659091 -0.022195159 -0.013331457 12827826
0.47305888 -0.025746755 -0.01562693 12827826
0.48200002 -0.028730627 -0.017625283 12893619
0.45642859 -0.013109339 -0.013741313 13618628
0.46291175 -0.016749863 -0.017171821 13157562
0.45582286 -0.0052804593 -0.014866104 14409175
0.46000001 -0.0014662996 -0.019404398 14343895
0.45755556 0.0014000054 -0.012996662 13883345
0.46361768 0.0043715807 -0.014961448 13554381
0.47253335 0.0078244228 -0.017355172 13028293
0.47651616 0.012608795 -0.015318029 13093830
0.48071432 0.015751908 -0.016582737 13225416
0.49813336 0.02286361 -0.013240504 12895680
0.50321215 0.026125032 -0.015120229 12829887
0.51000005 0.028819259 -0.019125735 13882574
0.51635492 0.033592161 -0.015579907 13553608
0.52145457 0.038124684 -0.015506399 13619400
0.52525008 0.043074816 -0.014713604 13817036
0.53166664 0.047766447 -0.015910599 13882829
0.53717655 0.054141417 -0.01337859 14014158
0.54219043 0.057173837 -0.016589191 14079951
0.53900003 0.062003221 -0.010118807 14277329
0.54468572 0.063387997 -0.015554971 14079950
0.55075002 0.068513304 -0.019042712 11711401
0.53816664 -0.072478153 -0.0033865471 14012097
0.54131252 -0.075702317 -0.0075500822 13946048
0.52787507 -0.061000392 -0.0017245839 13814462
0.53395927 -0.065270334 -0.0049525732 13880255
0.51800007 -0.051976986 -0.0012367381 13354168
0.52388233 -0.055362791 -0.0054866718 13551290
0.53050005 -0.059439842 -0.0093388632 13880255
0.48800004 -0.040968932 -2.2033917e-05 13288377
0.50600004 -0.046033747 -2.2846645e-05 13485756
0.5165 -0.04850363 -0.0034988543 13419961
0.52000004 -0.049742069 -0.0061101257 13551290
0.46900001 -0.030590329 -0.0011191134 12827826
0.47383341 -0.031895705 -0.0044589243 12959412
0.48433337 -0.037641309 -0.0039111907 13156791
0.45758829 -0.021088669 -0.0026087253 12827570
0.46451667 -0.025069872 -0.0049712514 12761777
0.47061539 -0.028832061 -0.0077341837 12827570
0.44685721 -0.01278531 -0.0030156204 13618885
0.45317033 -0.01618186 -0.0064123375 13223098
0.44613004 -0.0052512614 -0.0040062587 14409174
0.45061538 -0.0040705707 -0.0091090789 14343638
0.44843748 0.0012616303 -0.0019246656 13685965
0.45408341 0.004053514 -0.0057627764 13488586
0.46180001 0.0096639497 -0.001968578 13093829
0.46584618 0.01273873 -0.0012815817 13159622
0.4734211 0.014973718 -0.004575518 12962244
0.48466671 0.019445419 -0.0049575293 12699072
0.48641387 0.023288671 -0.0025753672 12435644
0.49260002 0.025184225 -0.0062595331 12632509
0.505 0.02971893 -0.0088905776 13356230
0.50566667 0.031730473 -0.0043685413 13290438
0.51690906 0.036728743 -0.0047226851 13553609
0.5205 0.038856264 -0.0088579189 13816781
0.51755553 0.040689107 -0.0021791859 13750988
0.52365631 0.044043448 -0.0073820492 13750988
0.53079998 0.04962828 -0.0084731681 13816780
0.53484321 0.055444591 -0.0049107261 13817037
0.5378077 0.062060371 -0.0043834378 14014158
0.53475761 -0.072968416 0.0054681669 13946305
0.52610004 -0.062973559 0.0060900482 13683132
0.53155553 -0.067671828 0.0048129768 14011841
0.51575005 -0.053689055 0.0057698544 13354169
0.52205557 -0.058359079 0.0045224251 13485753
0.48580003 -0.041241203 0.0061162142 13156791
0.49433339 -0.043817069 0.0069203586 13353914
0.50549996 -0.047769304 0.0055373278 13419707
0.51100004 -0.048880678 0.002845143 13354170
0.4637242 -0.032423522 0.0060475455 12959412
0.47333336 -0.035800293 0.0041625476 13090998
0.48216668 -0.038316693 0.0039226492 13156791
0.44788891 -0.021758266 0.0083660837 12565424
0.45546871 -0.025402881 0.00520638 12696241
0.461 -0.027732199 0.0014173505 12827826
0.43780005 -0.012117909 0.0073563117 13816520
0.44396618 -0.015615845 0.0045044683 13158077
0.45050001 -0.019364703 0.0026156455 12696755
0.43769762 -0.0055744979 0.0071252943 14343124
0.44134215 -0.0043399055 0.0028324805 14343125
0.44514903 0.0028149451 0.0058728899 13488073
0.4536522 0.0074483785 0.0032076787 13028037
0.45900002 0.010893951 0.0037401207 13028037
0.4634445 0.012815285 0.001904692 13159623
0.47400004 0.016798176 0.0010882408 13225416
0.48100004 0.019298309 0.0011043118 12567486
0.48486674 0.024111994 0.0041299802 12238008
0.49300003 0.029012738 0.0069024717 13356484
0.49800003 0.030472813 0.0069724764 13619656
0.50584215 0.034885336 0.0078886924 13487815
0.51250005 0.037850227 0.003952547 13487816
0.51624143 0.043052327 0.0054735634 13619401
0.52266669 0.04789127 0.0064994143 13619657
0.5270834 0.051894743 0.0077881776 13685449
0.53269231 0.05642169 0.0052785943 13816780
0.53629631 0.062112547 0.005270388 13290436
0.52650005 -0.07216385 0.017149499 13749183
0.53100008 -0.072692364 0.012596995 13683133
0.51760006 -0.061550315 0.017100709 13617083
0.52397561 -0.065894723 0.015082074 13748669
0.53000003 -0.068689369 0.011763096 13748669
0.49900001 -0.051237755 0.019836325 13353911
0.5052858 -0.052394863 0.017553549 13222070
0.51319516 -0.056071479 0.014387567 13222326
0.47743753 -0.041550141 0.016461551 13156533
0.48323536 -0.044096559 0.014811285 13288119
0.49516669 -0.047761414 0.014284384 13353655
0.5025 -0.049244415 0.012326181 13288375
0.45728573 -0.031203458 0.016645728 12827313
0.46482605 -0.033257898 0.013746235 12893362
0.47334617 -0.037953403 0.016218629 13024949
0.43866667 -0.020739006 0.019149229 12761777
0.44501588 -0.023811415 0.015290539 12630191
0.45347062 -0.028706573 0.014709762 12761776
0.42828575 -0.011463691 0.01859978 13948363
0.43452507 -0.014976548 0.01458403 13289405
0.44083336 -0.019121442 0.011502196 12565426
0.42793328 -0.0067719915 0.018311162 14342868
0.4319306 -0.0049833753 0.013649602 14211795
0.43504167 0.0010764477 0.015244964 13619660
0.4461779 0.006770907 0.014118719 13027780
0.44900003 0.011497505 0.015063254 13225415
0.45000002 0.013840719 0.018941928 13093830
0.46100003 0.017416677 0.016167326 13225416
0.47809097 0.024574447 0.014322257 12500923
0.48250005 0.026625512 0.013947403 12895424
0.49100003 0.028895039 0.010322789 13619402
0.49716669 0.033272013 0.018015355 13619402
0.50285363 0.036601804 0.014240948 13356488
0.50658834 0.041603554 0.016227234 13224902
0.51426476 0.046277475 0.015235398 13356230
0.52125001 0.04867474 0.011872932 13619658
0.51800001 0.051098976 0.018772643 13553608
0.52522504 0.054279078 0.015653439 13750986
0.5306471 0.058412284 0.01349363 14079950
0.52900004 0.060852885 0.019790491 10723737
0.53125006 0.061630245 0.014898245 11119009
0.51640004 -0.07067287 0.02825946 13354424
0.52299994 -0.071892805 0.023235569 13486010
0.50562501 -0.061090715 0.027343672 13288118
0.51540005 -0.065070197 0.024624443 13551290
0.52200001 -0.068366945 0.022480831 13748926
0.48774999 -0.050368201 0.027951973 13288118
0.49533331 -0.05344471 0.026601337 13288118
0.50433338 -0.056419916 0.023887778 13156788
0.51114285 -0.058981258 0.021514621 13156532
0.47558621 -0.042233467 0.025157789 13090995
0.48300001 -0.046754401 0.025750702 13222325
0.45577779 -0.031806219 0.02552929 12827568
0.46437928 -0.035882775 0.025510745 12959154
0.47175002 -0.038870011 0.023075379 12893874
0.43420511 -0.022409299 0.025676612 12629933
0.44500002 -0.026534099 0.022882557 12630447
0.45216668 -0.029492384 0.023442438 12695983
0.41900003 -0.011144474 0.029407678 13882828
0.42501315 -0.014190531 0.025458632 13421249
0.43113044 -0.018290775 0.023319364 12827569
0.41850004 -0.0072105546 0.029372586 14343124
0.42425546 -0.0052851802 0.024664767 14211795
0.43000001 -0.00086735259 0.020616658 14080467
0.4266471 0.0012562418 0.027765591 13619402
0.43501762 0.0053364504 0.024903946 13159621
0.44100004 0.0084019601 0.02217528 12830656
0.43900007 0.010990218 0.028299216 13027522
0.44000003 0.0125031 0.028821476 12895679
0.45300001 0.015527223 0.028612539 12699070
0.46220002 0.018110473 0.027028192 12304056
0.46457145 0.022371426 0.028721374 11975092
0.47000003 0.025458647 0.026385462 12895679
0.48450005 0.028520714 0.027215868 12829886
0.49623218 0.035060927 0.025386166 13487815
0.50019997 0.03880427 0.022693718 13356231
0.50495458 0.043479629 0.024533467 13290180
0.51100004 0.048301879 0.024468437 13224644
0.51661295 0.053230815 0.02619124 13290691
0.52312499 0.057117343 0.023494245 13093311
0.528 0.060737845 0.020989137 10527128
0.49795237 -0.062678427 0.036335643 13222582
0.50262862 -0.065731302 0.033823412 13354424
0.51000005 -0.069082119 0.031018874 13683389
0.48611122 -0.053237129 0.036294069 13156789
0.49353328 -0.057188284 0.033514909 13091252
0.45750001 -0.041355129 0.037462257 12893618
0.46585718 -0.041598145 0.03471031 12959410
0.47531822 -0.044161405 0.033261109 13025459
0.48178944 -0.048167478 0.032863148 13091252
0.44608003 -0.032609534 0.03694744 12827569
0.45486677 -0.036519401 0.035572536 12893618
0.46353847 -0.038081739 0.032111704 13024947
0.42514819 -0.022129182 0.037054986 12498605
0.43393484 -0.02533216 0.033764053 12564141
0.44050002 -0.029556638 0.034112856 12761520
0.41527635 -0.013749507 0.035864428 13618885
0.42272738 -0.017891536 0.033081844 12696499
0.41456714 -0.0054148482 0.035148725 14146259
0.42050004 -0.0015040654 0.03115323 14079953
0.41677776 0.0011670007 0.037597574 13357257
0.4244546 0.0032161407 0.034395184 13225157
0.43347061 0.0076668509 0.0345079 13027779
0.43713519 0.011870602 0.03578816 12895680
0.4429231 0.015140032 0.034667946 12699072
0.45500001 0.01826218 0.032728542 12040885
0.46033335 0.01918783 0.030512333 11777970
0.45700002 0.02047509 0.034211293 11646384
0.46366671 0.022470756 0.032062717 12172471
0.48600003 0.029738529 0.031265765 12699070
0.48750001 0.030971559 0.031361677 13356741
0.49429625 0.036940366 0.033488315 13224641
0.49879998 0.041031063 0.036875669 13027262
0.50405723 0.044235345 0.034733068 13158592
0.51060009 0.048696104 0.03356611 13224128
0.51544452 0.054339938 0.033680256 12829884
0.49600002 -0.070669174 0.047584545 13682876
0.48800004 -0.060819007 0.047244284 13222325
0.49446151 -0.065443568 0.045266721 13222325
0.5 -0.068898067 0.040945236 13419704
0.47670001 -0.051515598 0.04751448 13156278
0.48418877 -0.055714604 0.044564851 13090741
0.49050003 -0.059551124 0.040740829 13090739
0.45628574 -0.040901113 0.044318449 13025205
0.46352381 -0.044760395 0.047205318 13156535
0.47282353 -0.048550624 0.046004031 13156278
0.48050004 -0.049338162 0.041035078 13090740
0.41850001 -0.030235639 0.048475876 13025205
0.42072225 -0.032640707 0.047530856 13090998
0.43700001 -0.030549191 0.041924287 12893619
0.44460002 -0.032338079 0.040777784 12827826
0.45300001 -0.0380341 0.042099144 12959412
0.40857142 -0.021730423 0.049034573 12828598
0.41481823 -0.024060939 0.045849975 12893877
0.42262506 -0.025587864 0.042271405 12762291
0.43600002 -0.0292046 0.04080474 12762033
0.40634421 -0.014234248 0.046092268 13750470
0.41200006 -0.016662654 0.041738223 13355455
0.40616497 -0.0056402036 0.045736484 14146001
0.41094735 -0.0029528409 0.041449495 14146259
0.40756252 0.0018040891 0.048460569 13488329
0.41423082 0.0027981952 0.044577692 13291209
0.42345461 0.0068433303 0.04284307 12831171
0.43000001 0.0091990242 0.040246092 13028037
0.42662501 0.011124297 0.044169791 12699842
0.43180004 0.011973714 0.041218702 12764608
0.50363636 0.045990255 0.04550096 13093312
0.50742859 0.051244706 0.045112919 13553607
0.51025003 0.052424997 0.042680055 13882571
0.49633336 -0.071103327 0.053617727 13353911
0.4848446 -0.063634858 0.056316141 13288375
0.49289474 -0.067133643 0.052628227 13222068
0.47576922 -0.053613763 0.053267397 13288121
0.48110521 -0.058115672 0.053208224 13222584
0.42495653 -0.04212353 0.057421554 13222584
0.43600002 -0.047837932 0.059515521 13354170
0.46600005 -0.047232598 0.051719811 13156791
0.47066668 -0.049063545 0.051030889 13222584
0.40900001 -0.030506762 0.059345067 12960184
0.41604263 -0.032735072 0.055922873 13091256
0.42107517 -0.036609575 0.054911684 13222585
0.39900002 -0.020420212 0.059762217 13158078
0.40532154 -0.023994403 0.055761036 12959928
0.41207409 -0.027986571 0.053285513 12762035
0.3970364 -0.013817004 0.057689276 13882314
0.40170673 -0.015686233 0.053102266 13618885
0.3973636 -0.0052651619 0.057382446 14145744
0.40116957 -0.0045789122 0.05263295 14145746
0.39820006 0.0020404258 0.058382459 13685196
0.40281579 0.0019951619 0.053247303 13685197
0.41050002 0.0068598846 0.050432742 12633279
0.50324011 0.047242194 0.052851792 13093313
0.50400001 0.051094443 0.052874882 13487815
0.46400008 -0.072357118 0.067868106 13551036
0.44750002 -0.060616165 0.06964381 13682622
0.45554176 -0.063757449 0.068182744 13353657
0.46397156 -0.06613443 0.065418996 13485499
0.4754546 -0.06673079 0.062508613 13485756
0.48150003 -0.065788172 0.060658231 13419706
0.43528569 -0.053392112 0.064740121 13419450
0.44354552 -0.058007002 0.066994809 13353657
0.417 -0.041785672 0.06790939 13288634
0.42408004 -0.043929357 0.06438534 13156535
0.43140915 -0.04829305 0.063327506 13222071
0.40628266 -0.032375921 0.066304468 12762292
0.41405171 -0.036821477 0.064615406 13090999
0.42050004 -0.038993906 0.061013106 13617342
0.39552703 -0.023039291 0.066176713 13092028
0.40199998 -0.027110193 0.063525796 12762548
0.389 -0.013027916 0.068989925 13948365
0.39252728 -0.015187987 0.064410932 13816266
0.3887727 -0.0067405952 0.069068559 13948367
0.39288503 -0.0051516085 0.064189523 14079952
0.39458698 0.0019379809 0.064560749 13750990
0.46899995 0.032958284 0.066338159 12237751
0.47058341 0.036875982 0.065480836 12369337
0.47533336 0.040213469 0.066745155 13027267
0.48671433 0.045087148 0.068991236 13158852
0.46422228 -0.080993988 0.077136658 13748415
0.44900003 -0.070279412 0.078813516 13024692
0.45580006 -0.073654823 0.077398285 13353657
0.46294284 -0.076424956 0.074070834 13551036
0.43772727 -0.061528932 0.078136824 13222071
0.44480774 -0.064181834 0.074521214 13287864
0.45306665 -0.067027494 0.07167197 13353657
0.42558625 -0.05212117 0.077068813 13222071
0.43389583 -0.055901751 0.074375071 13419450
0.44100004 -0.058446102 0.071343094 13287864
0.40785715 -0.041060776 0.07840836 13288379
0.4142032 -0.043676645 0.074792214 12893621
0.42250004 -0.048885521 0.074336201 12893363
0.39469057 -0.032302611 0.076857761 12893878
0.4046725 -0.036090162 0.074359894 12894134
0.41111115 -0.038791977 0.071626991 12828598
0.38784745 -0.023700656 0.077215903 13289664
0.39310294 -0.026310541 0.073214933 12894649
0.40000001 -0.029835463 0.070212476 12565426
0.38596442 -0.015180603 0.075036429 13290435
0.39000002 -0.019503107 0.07028316 13552836
0.3855288 -0.005189484 0.075072482 13290436
0.38691312 0.0026602433 0.076018497 13619402
0.39016667 0.0021057131 0.070769697 13750991
0.42500001 0.019041386 0.07609316 12106679
0.42552948 0.021761544 0.07639394 12238775
0.46900001 0.034407567 0.070685998 12106165
0.47125 0.037388876 0.071136311 12566716
0.47712505 0.041065011 0.073413268 12764093
0.48447374 0.045528077 0.072201371 13093059
0.45699999 -0.083112814 0.086069748 14012100
0.46085715 -0.082152553 0.080893472 13945794
0.44632444 -0.072434634 0.086242199 13222071
0.45395839 -0.076860927 0.084058821 13748415
0.43581817 -0.063326523 0.085524686 13090485
0.44190317 -0.067935854 0.083901159 13221814
0.41633335 -0.051686306 0.089157216 13024949
0.4244428 -0.054662559 0.085383922 13156535
0.4314 -0.058537982 0.082788989 13222071
0.39733338 -0.041005325 0.087618321 13091000
0.40365306 -0.044061221 0.085739963 13025206
0.41606668 -0.047982674 0.082958288 12959413
0.42000002 -0.049025331 0.081097305 12958899
0.38750002 -0.032286517 0.086689614 13025465
0.39295715 -0.036137786 0.084370986 12959414
0.40000001 -0.038887396 0.08082509 13091257
0.37900001 -0.0205057 0.088929281 4933955
0.38390216 -0.025213689 0.084778607 11842219
0.37715998 -0.014415625 0.08606305 2239012
0.38094869 -0.015953397 0.081616081 2829870
0.37668231 -0.0053877565 0.085964493 2304292
0.38085708 -0.0046647508 0.08129511 3553079
0.37858334 0.00071393239 0.087870769 10263701
0.38322508 0.0046343901 0.084881745 13027266
0.38500002 0.010239207 0.087105423 12369851
0.45700002 0.034920342 0.088773593 12303028
0.46199998 0.038330954 0.087255329 12895679
0.46679172 0.042544995 0.086620778 12830399
0.47000003 0.041962821 0.081766151 12764093
0.44649073 -0.084209129 0.097493134 14077636
0.45220017 -0.084566072 0.092628352 14012100
0.43702859 -0.073320583 0.097781859 13353657
0.44413337 -0.075898208 0.094115414 13551293
0.45080003 -0.079003796 0.091158077 13880514
0.41716668 -0.061065715 0.09894184 13222330
0.42474365 -0.063118838 0.096216589 13222585
0.43374997 -0.06734024 0.094353341 13287864
0.44000003 -0.069557391 0.090967692 13353657
0.39828569 -0.0510199 0.099081323 13090485
0.40407321 -0.053052071 0.096734606 13156279
0.41445655 -0.055193521 0.094149537 13222072
0.42161909 -0.058099043 0.09233357 13222071
0.38695005 -0.041864093 0.098173365 12959926
0.39502895 -0.044522308 0.095292605 13025207
0.40211537 -0.047555558 0.093240447 13025207
0.37834492 -0.032343332 0.098020397 13881541
0.38362384 -0.035403412 0.094440088 13288892
0.39133337 -0.038961608 0.091134161 13025207
0.37822434 -0.024571095 0.096654922 9999757
0.38057441 -0.025829054 0.091974482 12039341
0.37425539 -0.014745965 0.095078416 2172962
0.37326452 -0.0051727188 0.095026284 2238241
0.37784281 0.0038142549 0.096226446 10527130
0.38110346 0.0072470447 0.09313371 13093315
0.37871429 0.011648508 0.099405594 13554121
0.38140616 0.012091562 0.095762253 13159624
0.45631254 0.036746114 0.093982093 13159106
0.45999998 0.039562378 0.096035883 14014159
0.4626945 0.042305823 0.094724186 13290437
0.43800002 -0.090090327 0.10764364 14472140
0.43711409 -0.08435341 0.10687649 13945794
0.44162163 -0.086170852 0.10255047 14208966
0.42700005 -0.072120339 0.10645791 13287864
0.43334782 -0.076097846 0.10442998 13551037
0.40493751 -0.061192974 0.10710113 12958900
0.41591176 -0.06401483 0.10452887 13024692
0.42290008 -0.06745296 0.10270516 13156278
0.38875005 -0.051065702 0.10919036 12893108
0.3954182 -0.053027499 0.10485525 12762035
0.40146664 -0.057359353 0.10298057 12893620
0.41133335 -0.059248239 0.10044777 13156278
0.37762505 -0.041483421 0.10860459 13618114
0.38430932 -0.044534881 0.1051984 13091256
0.39200005 -0.04820662 0.10245537 12959414
0.37569845 -0.034853458 0.10524987 13947592
0.38062504 -0.038749017 0.10144956 13354942
0.37646013 -0.025011769 0.10511837 9539718
0.36820415 -0.013004338 0.10802664 1909790
0.37158966 -0.015480156 0.10394568 2172962
0.36846823 -0.0063036541 0.10762227 1909790
0.37100017 -0.0043283454 0.10366967 2041634
0.37530056 0.0049829613 0.10514604 9869457
0.37646741 0.013802141 0.10584752 13356487
0.42725006 -0.091378443 0.11900216 14209480
0.43230772 -0.090862356 0.11542004 14275529
0.42645246 -0.084105976 0.11799245 13880001
0.43254286 -0.085700631 0.11381574 13880258
0.40800002 -0.070547856 0.1193735 13222584
0.41589367 -0.073076732 0.11701253 13288120
0.42345768 -0.076011159 0.11400367 13485243
0.43042859 -0.078888997 0.11125182 13616829
0.39447626 -0.062632129 0.11805278 13090485
0.40515903 -0.064343803 0.11508275 13156278
0.41372418 -0.068198033 0.11388776 13222071
0.42050004 -0.069756061 0.11072521 13222071
0.37775001 -0.051317412 0.11870163 13222071
0.38510132 -0.05417664 0.11596753 13090485
0.39230776 -0.056708161 0.11329016 13024692
0.4005 -0.058937661 0.11202187 13090485
0.3741453 -0.044494011 0.11548447 13749442
0.38106671 -0.048287876 0.11262245 13090999
0.37186664 -0.035063248 0.11492325 14013385
0.37482718 -0.025304954 0.11500795 8882046
0.36694843 -0.013924986 0.11540177 1712410
0.37095451 -0.019104384 0.11421546 2106913
0.36691135 -0.0052816183 0.1150959 1909018
0.37025002 -0.00074683095 0.11136131 2106398
0.36840001 0.00046486603 0.11882608 5526605
0.37280014 0.0057549877 0.11479216 9079685
0.3730076 0.01475692 0.11525715 13093313
0.37450001 0.021381347 0.11720967 13290437
0.41805005 -0.092690997 0.12877138 14143686
0.42251617 -0.091751635 0.12402285 14143429
0.40400001 -0.081205465 0.12955242 13288377
0.41647276 -0.084708266 0.12702289 13617086
0.42256153 -0.086083315 0.12274209 13880514
0.39563462 -0.073991761 0.1272912 13222071
0.40517497 -0.074752077 0.12425157 13287864
0.41370374 -0.07673756 0.12210728 13353914
0.37849998 -0.060721625 0.1287588 13090741
0.38542596 -0.063207455 0.12667666 13025205
0.39327127 -0.066611849 0.12419494 13156278
0.40175 -0.06923306 0.12130512 13222071
0.36866668 -0.051088791 0.12915371 13750213
0.37456641 -0.054228913 0.12563156 13288377
0.38237503 -0.057839017 0.12199833 13090485
0.36788291 -0.044276349 0.12612033 14342349
0.37105259 -0.046927992 0.12218376 13815747
0.36836842 -0.037535701 0.12623294 13947591
0.37085247 -0.033389982 0.12419994 13289662
0.3733741 -0.025441837 0.12489346 8026481
0.36557052 -0.01464546 0.12552984 1778203
0.37028572 -0.019693764 0.12307435 1776407
0.36465254 -0.0051168753 0.12514734 1843482
0.36813048 0.0007571209 0.12385602 6053205
0.37119433 0.0059464239 0.12502621 8421754
0.36877096 0.016683079 0.12742697 12434870
0.37053955 0.014213324 0.12384002 12105904
0.36891666 0.022430571 0.12895353 13816782
0.37142321 0.023262296 0.12494869 13422280
0.40656251 -0.093463384 0.13776842 13683135
0.41310251 -0.092530467 0.13303106 13880515
0.39625001 -0.082161061 0.13842435 13222584
0.40417063 -0.085306086 0.13561246 13485499
0.41253853 -0.087825447 0.13191339 13683136
0.38647369 -0.072902992 0.13723205 13156791
0.39407891 -0.076012753 0.13430028 13156791
0.40000001 -0.079465047 0.13201536 13222328
0.37532961 -0.063839048 0.13551527 12828341
0.38377085 -0.0675577 0.13334508 12959414
0.39150003 -0.069527835 0.13058421 12959412
0.36744311 -0.054155514 0.1347862 12566198
0.37151355 -0.057845928 0.13243368 13091770
0.36621106 -0.044631686 0.13314083 13816520
0.36759508 -0.036172781 0.13433613 12763833
0.37068424 -0.031484284 0.13419238 11447718
0.36772728 -0.020933663 0.13271102 2434337
0.37241372 -0.026355527 0.13405408 8355704
0.36358625 -0.015608538 0.13234283 1712665
0.37088236 -0.014995955 0.13880025 1120016
0.36394128 -0.0049948948 0.13298811 1776919
0.37080005 -0.0055233827 0.13921835 856587
0.36800003 0.00098069676 0.13006908 5659219
0.37112293 0.0064454386 0.13268159 7961204
0.36797652 0.016189406 0.13336274 11382438
0.37013328 0.01097972 0.13290174 9605772
0.3679432 0.024396233 0.13369718 13290951
0.37 0.028414952 0.13106468 10527131
0.39766669 -0.092728555 0.1469743 13354426
0.4008857 -0.093693003 0.14227985 13617342
0.38825002 -0.080880195 0.14335871 13091512
0.39509588 -0.086327337 0.14401022 13222841
0.40000001 -0.089453377 0.14075516 13485756
0.37900004 -0.070856899 0.14105497 12829112
0.38455316 -0.076386839 0.14261727 12894391
0.39100003 -0.079507761 0.14002907 13156791
0.37540004 -0.06661848 0.14082572 11578789
0.37300003 -0.030441169 0.14056832 10592669
0.36800003 -0.021418164 0.14988345 4277315
0.37330005 -0.023433704 0.14443132 6908775
0.37344199 -0.014638627 0.14532569 725516
0.368375 -0.0028451369 0.14938876 1249546
0.37290722 -0.0063976631 0.14570835 462344
0.38731724 0.016330848 0.14760131 5657675
0.37849998 0.028920051 0.14485681 7763311
0.38301787 0.024804292 0.14705165 6579037
0.37850001 0.030249164 0.14485681 7303018
0.38150001 0.030488919 0.14779115 7171430
0.39812502 -0.094241276 0.15085214 13091768
0.39600003 -0.088404343 0.15016311 12960182
0.36145455 -0.021882353 0.15442982 2172448
0.37100002 -0.020724252 0.15023682 3027250
0.36252245 -0.014690706 0.15503222 923407
0.37105551 -0.014791964 0.15107864 659724
0.36281198 -0.0051662675 0.15465768 1053453
0.37060001 -0.0087290034 0.15042129 396551
0.36162502 0.00032841405 0.15490346 1709074
0.38889998 0.01605754 0.15093033 5789003
0.39376009 0.017346106 0.15584886 5986895
0.38700002 0.025343681 0.15213041 6711133
0.39400002 0.023618717 0.15727973 6513240
0.38725001 0.030948453 0.15387225 7237478
0.39344445 0.032159854 0.15799679 7895408
0.34530318 -0.021982607 0.16870818 1515287
0.36118874 -0.021660963 0.16491205 792334
0.34579757 -0.014863285 0.16835721 1120786
0.35652882 -0.013906449 0.16543888 1120788
0.36038771 -0.017051099 0.16286428 988945
0.34636357 -0.0078479778 0.16880532 1055249
0.35574287 -0.0060808407 0.16700327 922896
0.36057633 -0.0055179941 0.16236795 922641
0.3549999 0.0028419113 0.16819596 8290679
0.39866671 0.018794073 0.16050716 6118224
0.40273681 0.017572457 0.16537876 5789001
0.39830777 0.026520757 0.16151045 6512726
0.40333331 0.024760939 0.1661505 6315087
0.39726314 0.033756789 0.16219638 8158322
0.40154544 0.033054713 0.16699456 7829097
0.3379167 -0.021677522 0.17849965 1383444
0.34159157 -0.022843856 0.17321186 1712666
0.36050004 -0.02056027 0.170459 396551
0.33782056 -0.01491652 0.17831704 1317908
0.34152812 -0.015045498 0.17350055 1383701
0.33819646 -0.0060107508 0.17848741 1251861
0.34098759 -0.0066723153 0.17392862 1186582
0.35500002 -0.0010484948 0.17101641 593421
0.35494429 0.003716174 0.17187132 6251357
0.40600002 0.018508501 0.17138088 6184018
0.40791667 0.02464669 0.17163284 6578260
0.41176927 0.026791003 0.17557289 7827816
0.405 0.032120906 0.17111306 7302755
0.41100001 0.030439951 0.17605643 5986385
0.33344889 -0.022038979 0.18390727 1252115
0.33365381 -0.014809049 0.1838461 1252372
0.33429319 -0.0055068205 0.18393645 1251860
0.33575004 0.00010875578 0.18272822 2039834
0.78900003 -0.13088591 0.30842394 9209985
0.78880006 -0.12475955 0.3081606 10721936
0.79066664 -0.1251954 0.30599102 10722451
0.7881667 -0.1132189 0.3093276 9867396
0.78700006 -0.10844556 0.30948451 10262669
0.78869236 -0.13225569 0.31597283 8881279
0.79037499 -0.13643397 0.31416434 9078658
0.78634375 -0.12498296 0.314915 11710631
0.7844376 -0.11509459 0.31466779 11645350
0.77900004 -0.10004859 0.31180951 14869723
0.78213781 -0.10512644 0.31489491 12961468
0.78183329 -0.095936067 0.3153871 13684936
0.78861547 -0.13238484 0.32446352 8880766
0.79066664 -0.137179 0.32542554 9078400
0.78577274 -0.12483478 0.32464007 11249827
0.78380781 -0.1151338 0.32488945 12895679
0.78372437 -0.10508268 0.32458779 13290437
0.78514278 -0.095057666 0.32451212 13487557
0.78623986 -0.084854238 0.32509044 13553093
0.78900003 -0.13088591 0.3305887 9341830
0.78860009 -0.12528165 0.33171383 9078659
0.79106659 -0.12554914 0.33725882 9276806
0.78850001 -0.11511288 0.33314866 11250854
0.79045451 -0.11497737 0.3375912 8882306
0.78850007 -0.10496048 0.33314866 11250852
0.79069996 -0.10525262 0.33778045 8882305
0.78853852 -0.09516789 0.331532 13619142
0.79100001 -0.094836339 0.33709234 8618877
0.78849995 -0.084787421 0.33275336 11382182
0.79055554 -0.085288353 0.33782133 8684927
