# .PCD v0.7 - Point Cloud Data file format
VERSION 0.7
FIELDS x y z rgb
SIZE 4 4 4 4
TYPE F F F U
COUNT 1 1 1 1
WIDTH 520
HEIGHT 1
VIEWPOINT 0 0 0 1 0 0 0
POINTS 520
DATA ascii
0.537 -0.031568501 -0.06130917 12434356
0.53737503 -0.025612833 -0.061667159 12762808
0.53674078 -0.015747318 -0.062014122 12499637
0.52866668 -0.0014791726 -0.06107996 15723235
0.53160006 -0.0056828079 -0.062373269 13026237
0.52650005 0.0047863722 -0.062153876 14012616
0.53000003 0.00017167703 -0.064542383 11512740
0.52429271 0.015045058 -0.062501848 13289409
0.52332348 0.025139704 -0.062937677 13093057
0.52394742 0.034936234 -0.062450115 12894906
0.52516669 0.041561261 -0.061084878 12171696
0.5415715 -0.051808219 -0.051461633 14275787
0.53884202 -0.044441193 -0.051478058 13946823
0.54009092 -0.043962184 -0.053932492 13881287
0.53602636 -0.034474418 -0.054316729 14736340
0.54033333 -0.038616423 -0.056524869 15263454
0.52900004 -0.02211982 -0.050798226 14275276
0.53318882 -0.025590949 -0.055166677 14473425
0.52705556 -0.014090889 -0.051641423 13880517
0.53243589 -0.015843216 -0.056246832 14143691
0.52509999 -0.0050207432 -0.054242343 13551296
0.53081822 -0.0078498749 -0.058767986 13354690
0.51788896 0.0062272195 -0.051752605 13815234
0.5231334 0.0045750411 -0.056281094 12959414
0.51708335 0.015566971 -0.053020224 13157310
0.52189994 0.014950475 -0.057693135 12302772
0.51722503 0.024990875 -0.053304095 12565427
0.5213182 0.025410362 -0.058493864 12501178
0.51810533 0.033364326 -0.052178815 13026233
0.5221622 0.035720475 -0.056289878 12829367
0.5188334 0.043285321 -0.051036552 12434612
0.52288896 0.041855883 -0.055521861 12039599
0.53777778 -0.061654169 -0.041291226 14868181
0.54000002 -0.060504269 -0.044269621 15920869
0.53711438 -0.05414553 -0.04367929 14143690
0.54152948 -0.055829447 -0.047528945 13815238
0.53541666 -0.045289282 -0.045393456 13946825
0.51800001 -0.032054652 -0.041600537 12499375
0.52491307 -0.03311589 -0.045443427 13485759
0.53235716 -0.036774341 -0.047916252 14999000
0.51793754 -0.024689011 -0.041855771 14670802
0.52429998 -0.02499295 -0.046672098 14670032
0.51643342 -0.014263144 -0.042946588 13420223
0.5232693 -0.01594652 -0.047471378 14012103
0.509 -0.0016224924 -0.040536638 12894648
0.51468623 -0.0049839364 -0.044616602 13683908
0.52083331 -0.0073522031 -0.04879472 13946053
0.50721049 0.0059111253 -0.041208062 13419706
0.51328301 0.0046057156 -0.046305154 13025976
0.50677419 0.015127715 -0.042085312 13157050
0.51172733 0.015011856 -0.047255136 13156794
0.50680006 0.024526043 -0.04182785 12762037
0.51172221 0.024991274 -0.047013324 12827829
0.50787503 0.033010747 -0.040893592 11447716
0.51327115 0.035156772 -0.045571219 12698040
0.51441938 0.042585801 -0.045140456 12105647
0.52733332 -0.060731545 -0.031298246 12302768
0.53363335 -0.064042754 -0.034798041 14342354
0.52484614 -0.054020841 -0.033582073 13551293
0.53131586 -0.056128766 -0.037994433 13157565
0.50650001 -0.04074464 -0.031445768 15722977
0.51608342 -0.045455564 -0.032639533 14998996
0.52477777 -0.047194783 -0.036544487 14143688
0.53066671 -0.048278596 -0.039777566 13551298
0.50537145 -0.03461821 -0.032850523 13748930
0.51286954 -0.034180474 -0.037875079 13355199
0.50578797 -0.025133139 -0.032642931 14210510
0.51262867 -0.024899298 -0.03777888 14407631
0.49899998 -0.011520043 -0.030394899 14142661
0.50426662 -0.01484279 -0.033583395 13025464
0.51136845 -0.015525711 -0.038584214 13683394
0.49835005 -0.0046227956 -0.031289492 13090486
0.50411904 -0.0052049952 -0.036165897 13749445
0.51000005 -0.0087891957 -0.039422363 14079695
0.49778795 0.0051393108 -0.031912532 13485499
0.50317943 0.0046015605 -0.03690654 13551293
0.4971081 0.015256031 -0.032139506 12828857
0.50223339 0.014702744 -0.037179708 13222586
0.497125 0.024892345 -0.03203053 13092542
0.50243247 0.024992345 -0.036997866 12828601
0.49830773 0.032646097 -0.031250961 11316128
0.5039019 0.03546289 -0.03565304 13158078
0.50513643 0.04166051 -0.034380857 11578791
0.51000005 0.041952372 -0.039422363 11579564
0.50766665 -0.06084327 -0.02062388 12432811
0.51366675 -0.062624134 -0.02247902 14209737
0.52442867 -0.063675039 -0.027035346 13552064
0.53150004 -0.067639515 -0.028642356 14276046
0.49900001 -0.050069589 -0.021049554 12960186
0.5047273 -0.054732744 -0.0213999 11907752
0.51588237 -0.055451076 -0.026315125 12565425
0.52200001 -0.056861494 -0.028809246 12696240
0.49537501 -0.043042537 -0.022689663 15262426
0.50300002 -0.044386249 -0.026423544 14933975
0.51450002 -0.048914544 -0.02803117 14341839
0.49554554 -0.035105132 -0.024205344 14078151
0.50099999 -0.034187142 -0.028925832 14077894
0.49466661 -0.024865644 -0.023902461 13618631
0.5009231 -0.025727421 -0.02888917 13882060
0.48833334 -0.013689461 -0.020726793 14013129
0.49436057 -0.014905049 -0.025363192 13157049
0.5 -0.019151438 -0.029285299 14933974
0.48750004 -0.0045986478 -0.021326572 12695725
0.49326089 -0.0051884828 -0.026137093 13352628
0.4866876 0.005069688 -0.022028202 12236204
0.49252501 0.0044824621 -0.026834324 13419962
0.486525 0.015250312 -0.022521375 12566971
0.49203122 0.014772889 -0.027309485 12829885
0.48694462 0.024794085 -0.022317393 12763832
0.4918437 0.025418613 -0.027011655 13224128
0.48812503 0.032870039 -0.021019509 13224124
0.49418339 0.035393644 -0.025541442 12895164
0.49684209 0.042096823 -0.025129972 10790045
0.50019997 0.043254547 -0.029062912 11512742
0.50583333 -0.071081907 -0.012462619 13419965
0.51050007 -0.070344932 -0.018547527 12762807
0.49780002 -0.061604172 -0.011677703 13485502
0.50465959 -0.06567242 -0.014886459 14275787
0.51050001 -0.067358382 -0.019144487 14473167
0.48820004 -0.051729597 -0.010765443 13222842
0.49488008 -0.054688305 -0.014443439 13157047
0.50144446 -0.056578651 -0.018543996 12236973
0.47850001 -0.040732056 -0.010103199 9737615
0.48486963 -0.044091288 -0.013429053 14670803
0.49236 -0.046963811 -0.017729502 14868182
0.47812507 -0.035033263 -0.01058587 14276557
0.48417756 -0.035019007 -0.015593102 14342608
0.49000001 -0.031960044 -0.019522805 16119529
0.47808337 -0.024283612 -0.010467988 14474711
0.48418751 -0.024797292 -0.015461748 13026750
0.49000001 -0.028518749 -0.019522805 14211284
0.47688463 -0.015305792 -0.01114497 13157051
0.48354924 -0.014826847 -0.016545249 12894651
0.47639397 -0.0049491776 -0.011617139 12960957
0.4824 -0.0055399067 -0.016642384 12893877
0.47614628 0.0048844023 -0.013185037 11973804
0.48167738 0.0043013631 -0.017775279 13158076
0.47562215 0.014627224 -0.013389568 12630963
0.48103696 0.014795678 -0.018041052 12631990
0.47615013 0.024511706 -0.0125103 12960442
0.48197293 0.025468666 -0.01737725 12829113
0.47719997 0.031883329 -0.010858822 13750982
0.48359093 0.035407685 -0.015025384 12566451
0.49000001 0.038586531 -0.019522805 11185057
0.48485714 0.041260649 -0.013815003 11974572
0.49150002 0.041006457 -0.019582568 10527124
0.48508829 -0.064138725 -0.0021335697 13617089
0.49440625 -0.065237954 -0.0070458152 14341325
0.5 -0.068312809 -0.0093866475 15065561
0.47639999 -0.053604938 -0.0012511298 13289151
0.48413339 -0.055126112 -0.0054215472 12303283
0.49142858 -0.05851442 -0.0085692452 11578274
0.46729407 -0.043030363 -0.00092349254 14012356
0.47390708 -0.044816792 -0.0045985775 14209993
0.48200002 -0.048140712 -0.0078100958 14407372
0.46766666 -0.034880724 -0.0011181862 14473163
0.47305551 -0.03528332 -0.006120922 14276556
0.46758622 -0.024763351 -0.0012691974 13618115
0.47338468 -0.02548684 -0.0062312386 13224387
0.46613955 -0.014950973 -0.0021082012 13289924
0.47207898 -0.015524452 -0.007064207 12631995
0.46503717 -0.005133607 -0.0027726481 12697529
0.4713333 -0.0056927609 -0.0077066696 12171960
0.46449339 0.005064629 -0.0036017618 12500148
0.4708572 0.0040878826 -0.0091556888 12303542
0.46512502 0.0151377 -0.0038301954 12696240
0.47047624 0.015204586 -0.0092001501 12959413
0.46613467 0.024831891 -0.0027147038 12303287
0.47135484 0.025461052 -0.0077482276 12631477
0.46821427 0.032723252 -0.0010398178 13618887
0.4732857 0.035135604 -0.0052953893 12631477
0.48000002 0.038922738 -0.009011182 8617848
0.47700006 0.040634807 -0.005886958 12368817
0.48083338 0.041805193 -0.0084645925 12171695
0.47577783 -0.071129113 0.0072783325 13091770
0.46766672 -0.061705623 0.0091006607 12497836
0.47460726 -0.065103039 0.0059206593 13419965
0.48055559 -0.066218704 0.0014778544 14735827
0.45866668 -0.05139206 0.0096430136 13552063
0.4653044 -0.054527067 0.0066950652 13091256
0.47211546 -0.056388512 0.0026539268 12433840
0.45729408 -0.043965537 0.0079094823 12236463
0.46339133 -0.045531858 0.003509688 14406602
0.45735133 -0.03529834 0.0079329908 13684164
0.4627021 -0.034741454 0.0032462717 14539213
0.45702219 -0.024700208 0.0077015501 13223355
0.46267509 -0.025033986 0.0029528462 13814977
0.45552549 -0.014605224 0.0065845153 13354942
0.4613637 -0.015464613 0.0018920999 13486013
0.45479727 -0.0050169048 0.0056747533 13354686
0.46028572 -0.0069331536 0.0012105928 12103588
0.44900006 0.0064521427 0.0094397804 14013129
0.45502427 0.0048059877 0.0049303989 12630962
0.44900006 0.013809962 0.0094397804 12302771
0.45477137 0.015005817 0.0051044575 12104105
0.46000001 0.017917329 0.0010560985 12565683
0.45559675 0.02442386 0.0064712209 12499377
0.46140003 0.026076114 0.0019218609 11973808
0.4580909 0.033004891 0.0082644988 12959415
0.46422797 0.035502743 0.004106089 12039339
0.46599999 0.040514778 0.0043410566 11908779
0.46859998 -0.071812049 0.017311271 13486275
0.47396553 -0.073079497 0.013898939 12630708
0.45740908 -0.062739141 0.017546879 12170923
0.46355554 -0.064752296 0.014472766 12500150
0.47122225 -0.068121329 0.011867195 14737367
0.44770586 -0.052631442 0.018473277 14539731
0.45475 -0.055080242 0.014759774 13288892
0.461375 -0.058042116 0.01145396 11709862
0.44553977 -0.044804756 0.016905636 13487040
0.45241934 -0.045225997 0.011831843 13617597
0.44600013 -0.035268258 0.016881132 13815750
0.45235291 -0.034674596 0.012029556 13880513
0.44518462 -0.024932459 0.016771549 12763060
0.45213801 -0.025476145 0.011692747 13553347
0.43900007 -0.0128326 0.019378146 11644841
0.44476253 -0.014888426 0.015256199 13092285
0.45072734 -0.016642081 0.010914544 13421249
0.43894124 -0.0048753084 0.019020367 13289409
0.44472602 -0.0050900113 0.01408327 13092801
0.43900007 0.0047668815 0.018992754 12630962
0.44475001 0.0048293481 0.014020266 12696757
0.4390001 0.014163059 0.019212976 12433584
0.44467485 0.015218054 0.014449673 12565169
0.43900001 0.02121019 0.019506609 9145474
0.44536841 0.024715465 0.015589952 12565426
0.45140001 0.027272996 0.011320758 12894650
0.44711107 0.032187644 0.017826434 12369333
0.45340544 0.034259614 0.013166609 11710375
0.45706061 -0.073422492 0.025752127 12696758
0.4605 -0.071541004 0.020461945 14210253
0.43880001 -0.061698191 0.029564569 11841189
0.4454858 -0.06356068 0.026936308 11907497
0.45381823 -0.065702491 0.022671528 12697781
0.46000001 -0.069847435 0.020439727 15066073
0.42900002 -0.050075874 0.029105235 14999769
0.43477771 -0.053830978 0.026932666 14407631
0.44411111 -0.056032255 0.023047948 13026748
0.45133337 -0.058670323 0.020405784 12039855
0.42853844 -0.044773441 0.029304605 11974062
0.43383116 -0.044888142 0.024972415 13551550
0.44027278 -0.04511629 0.020687493 13618625
0.42900002 -0.039028611 0.029105235 15592935
0.43420005 -0.034921985 0.025518069 13487042
0.44046158 -0.034756687 0.020919621 12762548
0.42814285 -0.02398902 0.029475486 12038827
0.43436152 -0.02475301 0.024723401 13090999
0.44000003 -0.02663872 0.020581095 12697010
0.42740741 -0.014982623 0.029106434 12235946
0.43387344 -0.014992188 0.023905268 12565684
0.42709997 -0.0053610182 0.028974533 12566201
0.43318424 -0.0051968349 0.023905126 12895679
0.42689195 0.0049181934 0.028580878 12828342
0.43321911 0.004559529 0.023461362 12630706
0.4270286 0.014278404 0.028682878 12304313
0.43348002 0.01502526 0.023578459 12631992
0.42787498 0.021299643 0.029277936 10131860
0.43448275 0.024986552 0.025017679 12368822
0.44033337 0.02780371 0.020940034 13619661
0.4360556 0.031788688 0.026170842 10724250
0.44200003 0.031360257 0.021362511 11250856
0.43433341 -0.072815575 0.038528178 13749444
0.44504762 -0.073281877 0.034550719 13355456
0.4531765 -0.075431317 0.03174068 12434098
0.42573678 -0.063835591 0.03784883 11775398
0.4336279 -0.064921707 0.033822346 11577246
0.44325003 -0.068472542 0.031366307 12958898
0.41646159 -0.052815147 0.038337428 14473679
0.42438716 -0.055095866 0.034740426 14144716
0.43161112 -0.057344928 0.031357437 13946565
0.41625002 -0.045492548 0.037848033 13619141
0.42388907 -0.044392511 0.032936305 14012871
0.41728583 -0.034870248 0.038634766 13289404
0.4244445 -0.035167262 0.033307966 13420478
0.41646811 -0.024509741 0.038124852 12764348
0.4235225 -0.025481377 0.033132467 12697013
0.4163799 -0.014973218 0.037991893 11908012
0.42236671 -0.015190148 0.033097472 12500148
0.41609454 -0.0050288416 0.037799004 11776937
0.42245609 -0.0054836557 0.03297491 12237234
0.41631815 0.0050078938 0.037495762 12170927
0.42244244 0.0047942926 0.032668419 12499121
0.41654003 0.015076752 0.03798705 12959671
0.42236072 0.01519508 0.033105832 12040112
0.41775003 0.022223016 0.038853552 12367534
0.42402256 0.025290802 0.03467498 12763320
0.43000001 0.028123815 0.030381044 13685196
0.42583334 0.032120537 0.036191348 10921886
0.43028575 0.031365547 0.031494018 10527902
0.41762501 -0.071845762 0.049230605 12499122
0.42440003 -0.07315962 0.045795027 12895165
0.43150005 -0.075666785 0.042363185 12566456
0.40857145 -0.061082602 0.049171355 13618115
0.41516671 -0.064383648 0.046166413 12105130
0.4221819 -0.066535652 0.042145789 11643810
0.40585512 -0.054070938 0.046747372 13355199
0.41325581 -0.056051176 0.042272538 13684421
0.42000002 -0.059840832 0.040293366 14408145
0.40543887 -0.045325361 0.046446368 13684420
0.41171879 -0.044170771 0.041575529 14276812
0.40582669 -0.035020869 0.047474813 13289662
0.41232005 -0.035097733 0.042447444 12764347
0.4055309 -0.025090482 0.047003012 12630962
0.41195461 -0.024943756 0.041929796 12566197
0.40548849 -0.015056594 0.046957433 12500148
0.41149998 -0.014798304 0.041883312 12368304
0.40552503 -0.0050903717 0.046961792 12039339
0.41149998 -0.0051650167 0.041883297 11841705
0.40555227 0.0049980013 0.04660688 11776166
0.41144434 0.0046275742 0.041557655 12433327
0.40618926 0.014461543 0.046925526 12170926
0.411881 0.015539376 0.042082556 12368047
0.40775004 0.022287959 0.048184719 13290435
0.41405615 0.025319112 0.04416436 12368562
0.41999999 0.02930513 0.040621106 11511455
0.41548651 0.032100618 0.046608564 11316385
0.42040005 0.03202365 0.041315433 12039852
0.4071843 -0.073269799 0.057572316 12630965
0.41339538 -0.074066564 0.053152062 12960183
0.39775002 -0.062376931 0.058759447 13684421
0.40441573 -0.065130889 0.054961704 12236461
0.41166666 -0.067570068 0.050816428 11775135
0.39522731 -0.054377601 0.056472007 12763061
0.40172967 -0.056303978 0.051982328 13157306
0.39545107 -0.045220777 0.056286719 14144200
0.40043333 -0.044114437 0.051508121 13289660
0.39565548 -0.034904424 0.056750182 13223614
0.40069449 -0.035359781 0.051884759 13355969
0.39558876 -0.024771893 0.05611318 12763062
0.40043995 -0.025630569 0.051240295 12171695
0.39530796 -0.01485674 0.055982765 12829370
0.40043995 -0.014682003 0.051240295 11973804
0.39508727 -0.0051063825 0.056017861 11579303
0.40035003 -0.0050262939 0.051060371 12237232
0.39529082 0.0047563612 0.055953454 11645610
0.40027276 0.00481648 0.051050603 12040367
0.39631167 0.014278336 0.057062045 11973288
0.40123203 0.016151896 0.052326523 11776938
0.39810002 0.021564949 0.058694523 13355969
0.40418011 0.025205286 0.054943234 11974060
0.41133335 0.028700681 0.050374959 11579563
0.40765387 0.031992853 0.057126023 12369330
0.41183341 0.032471832 0.051999513 11776937
0.39900002 -0.080200449 0.069102883 13618627
0.39572224 -0.074040644 0.067601107 12236205
0.40269646 -0.074902989 0.062798314 12696242
0.38809678 -0.063709401 0.068648688 13486013
0.39354536 -0.065108173 0.064219207 12170668
0.40060002 -0.068893276 0.060750991 10919575
0.38672534 -0.054741677 0.066658802 12434095
0.39102381 -0.055498209 0.061813466 13157819
0.3872585 -0.045467943 0.066532031 13552064
0.39113337 -0.044208851 0.061898407 13288894
0.38696587 -0.034917012 0.066516489 12302511
0.39123821 -0.03526774 0.061803084 12828343
0.38654542 -0.025212973 0.066031195 12697783
0.39103127 -0.024732096 0.061284769 12631734
0.38666996 -0.01521109 0.065753117 12763064
0.39087501 -0.015277679 0.061060488 12763834
0.38666958 -0.0053476193 0.06563662 12171440
0.39047822 -0.0051597394 0.060830101 12368564
0.38692567 0.0045107314 0.066289991 11512995
0.39084214 0.0050632535 0.061524343 11579046
0.38776058 0.014167196 0.067305334 11645867
0.39204615 0.015550447 0.062555715 11710631
0.38900003 0.020615764 0.069192298 14078667
0.39503255 0.024172934 0.065218031 11973546
0.40084216 0.027936453 0.061763946 11053727
0.39828578 0.032163337 0.068378039 11711143
0.40119445 0.032218024 0.063762337 11579559
0.38900003 -0.080011725 0.079209507 12434355
0.39057145 -0.080465376 0.076521941 10591385
0.38726583 -0.073899381 0.07630194 11906725
0.39065388 -0.076341726 0.073213272 12697271
0.37852389 -0.062033977 0.078594729 14144715
0.38364348 -0.065467075 0.074354172 12959669
0.37819123 -0.054911967 0.077331983 12761775
0.38165274 -0.05481011 0.072434351 13091511
0.37870374 -0.045714635 0.079049863 12894651
0.3822867 -0.044870723 0.074097835 13223870
0.37873334 -0.035577849 0.079039492 12959154
0.38205108 -0.034651786 0.074054115 12236460
0.37900001 -0.029156348 0.079835013 14670284
0.3816818 -0.024895437 0.074583225 12039853
0.37900001 -0.010524184 0.079835013 9473157
0.38168192 -0.015066549 0.074583814 12368305
0.37879309 -0.0047707562 0.079026565 11973291
0.38169315 -0.0053466852 0.073864944 11710632
0.37876663 0.0042319568 0.079016916 11710632
0.3819918 0.0051110731 0.074079171 11579559
0.38355792 0.015095176 0.074950062 11776681
0.38701048 0.023913208 0.075895593 11710372
0.39178383 0.027323272 0.072460428 12435124
0.39440003 0.031662203 0.073005453 10724763
0.38364285 -0.080830142 0.086501524 9802124
0.3763659 -0.072623394 0.087524176 12169894
0.38278055 -0.075840726 0.083866552 12697269
0.37501431 -0.065017104 0.085267343 13223614
0.38033333 -0.068287201 0.08041241 11381153
0.37434855 -0.05504233 0.084922731 12894389
0.37651429 -0.04505834 0.085146286 12894391
0.37724012 -0.035220101 0.084941961 11315616
0.37826294 -0.025316438 0.085462064 9736841
0.38000008 -0.023289217 0.080773503 10197134
0.3783296 -0.014554376 0.086104169 8882048
0.38000008 -0.015978431 0.081535704 11316387
0.37757909 -0.0050787665 0.085045278 10789787
0.37678128 0.0050228867 0.085148267 11184032
0.37770608 0.014437694 0.085928179 11973545
0.38061106 0.016955597 0.081732772 12368049
0.37877777 0.021207461 0.088556617 12170406
0.38251764 0.025187783 0.084581584 11579302
0.38500002 0.030768635 0.083802767 11185056
0.38166669 -0.081035562 0.090969943 9735819
0.3666268 -0.073090523 0.096819691 11578018
0.37322813 -0.075273357 0.092221677 13156792
0.38050002 -0.079154156 0.090394102 14736596
0.36579177 -0.064713307 0.095578879 13420992
0.3704761 -0.066002168 0.090718135 12697270
0.36663315 -0.056033555 0.096253805 12171181
0.37091526 -0.053109247 0.092714436 13157562
0.36866668 -0.049937788 0.099233933 11908524
0.37295446 -0.044915512 0.095038474 12564911
0.37502247 -0.034932639 0.094912432 9079168
0.3749488 -0.024896426 0.094773926 2370341
0.37515488 -0.01483719 0.094788924 2698793
0.37544698 -0.0051566893 0.094861984 9671050
0.37378788 0.0049906662 0.094997652 10789528
0.37454036 0.015128646 0.094899885 11644838
0.37745723 0.022707671 0.09554898 12171437
0.38117942 0.026850456 0.092419982 11382436
0.38900003 -0.090332486 0.10865406 12435125
0.39116669 -0.090681769 0.10666058 11117725
0.38720003 -0.08647234 0.1087207 12763066
0.39208114 -0.087466307 0.10463882 13288893
0.3640691 -0.07353697 0.10447023 10525074
0.35900006 -0.0654369 0.1092391 14210507
0.361305 -0.064899527 0.10477421 12631220
0.36398709 -0.055159617 0.10511464 12763061
0.3682394 -0.047546096 0.10586896 11644324
0.37070686 -0.043118961 0.10419046 12829111
0.37318599 -0.035211951 0.1049585 8750203
0.37194359 -0.024986252 0.10515236 2239012
0.37201989 -0.015121393 0.10520179 2567464
0.37349656 -0.0051622391 0.1049002 9342343
0.36899999 0.0078940466 0.10947452 12961725
0.37102723 0.0047002635 0.10483734 10526871
0.36899999 0.012299608 0.10934494 9539975
0.37135372 0.015016316 0.10467343 10987422
0.37432054 0.022605414 0.10461152 11777195
0.38200003 -0.090641037 0.11689261 11906987
0.37750006 -0.083428197 0.11704102 11183261
0.38181821 -0.086407132 0.11353889 12368050
0.36575001 -0.073311649 0.11043271 11381922
0.37457407 -0.076705419 0.11716205 11512739
0.35893756 -0.064952627 0.11126804 10722966
0.36163339 -0.062435564 0.11292724 10722707
0.37315387 -0.066077359 0.11959223 9341566
0.36524248 -0.054869089 0.1139529 11051930
0.36999997 -0.054882366 0.11951566 9933450
0.36817652 -0.047093052 0.11385739 13092025
0.37074587 -0.042950474 0.11588907 10197133
0.37262604 -0.035079185 0.1149549 7961201
0.3679902 -0.023934878 0.11560398 1975838
0.37054542 -0.028086394 0.11322469 2173218
0.36809781 -0.016654976 0.1156471 2172961
0.37070376 -0.012092151 0.11397331 3093806
0.36900002 -0.00074430957 0.1178969 9408394
0.37145749 -0.0051749144 0.11470567 8486776
0.36803034 0.0052138888 0.11522052 11119265
0.37009087 0.00090731273 0.11158962 8025711
0.36794966 0.014417813 0.11544111 11184544
0.37047362 0.018424671 0.11240954 13421761
0.37175363 0.022461027 0.11434896 10329491
0.38000003 -0.090614766 0.12052186 8420728
0.37641907 -0.084754929 0.12434205 11315617
0.38000003 -0.089725181 0.12007707 9868176
0.37641284 -0.075204037 0.12482177 10065805
0.37646386 -0.065303944 0.12516671 9868169
0.38000003 -0.061258405 0.12986253 10461075
0.37472302 -0.054818161 0.12480509 9472641
0.38000003 -0.059479233 0.12986253 11316640
0.37500003 -0.045100078 0.12455226 8421751
0.3682 -0.03048018 0.12367271 2107168
0.37415624 -0.0358706 0.12351726 6185561
0.36703277 -0.025014276 0.12331009 1778202
0.3672291 -0.015622619 0.12325963 2369569
0.37050003 -0.010721242 0.12097821 4737858
0.37275752 -0.0044406601 0.12326694 6184279
0.36765626 0.0069345972 0.12354764 7894896
0.37152085 0.0025092049 0.12589939 7171945
0.36721015 0.015228484 0.12417056 10065808
0.36846668 0.021396866 0.12223913 10329234
0.37800002 -0.083058611 0.13006394 9144959
0.37850001 -0.079180554 0.13023597 11579298
0.37400001 0.0036233086 0.13043867 10066832
0.36316669 -0.030771704 0.14720905 988942
0.36318886 -0.024684688 0.1477017 594442
0.36237219 -0.016158957 0.1475537 1511947
0.36454904 -0.032140773 0.15651335 2106142
0.36512122 -0.025241246 0.1553231 659464
0.36399078 -0.015607676 0.15521494 1971213
0.36339632 -0.032721743 0.16377336 1712666
0.3636772 -0.024892911 0.16507991 1120272
0.36372638 -0.016276201 0.16459087 1316367
0.34900001 -0.034201592 0.17961088 2172959
0.35330006 -0.032503899 0.17977859 1449494
0.36327055 -0.032679692 0.17567569 1120272
0.35671425 -0.024748953 0.17909142 791308
0.36146575 -0.025040904 0.17406183 1449493
0.35744444 -0.017964419 0.17956334 790538
0.3610571 -0.016920375 0.17605646 1186068
0.34510022 -0.033642065 0.1852567 1778201
0.35500002 -0.031314451 0.18023683 1186322
0.36033335 -0.034047704 0.18078369 922894
0.34510964 -0.025069891 0.18486969 1646360
0.35178784 -0.025018154 0.18028662 1712665
0.3453874 -0.016309043 0.18505919 1580309
0.35458693 -0.015807832 0.18064538 1382932
0.36055559 -0.011136223 0.18183374 2304040
