# .PCD v0.7 - Point Cloud Data file format
VERSION 0.7
FIELDS x y z rgb
SIZE 4 4 4 4
TYPE F F F U
COUNT 1 1 1 1
WIDTH 430
HEIGHT 1
VIEWPOINT 0 0 0 1 0 0 0
POINTS 430
DATA ascii
0.44507697 0.046870165 0.049269684 12499892
0.44483885 0.054968994 0.04864968 12697271
0.45100003 0.057162054 0.046434794 11513769
0.43900004 0.066943146 0.049310111 14540506
0.44457144 0.065345466 0.04714451 13157823
0.45100003 0.062433556 0.045908067 14474196
0.43800008 0.075828582 0.049195871 13422793
0.44362009 0.074854858 0.04599994 13290437
0.43700001 0.085178308 0.049018368 13750986
0.44482219 0.084646203 0.045835197 12566972
0.45223531 0.086711407 0.042883694 12829115
0.43643752 0.092219464 0.048699073 14803159
0.44400001 0.091605827 0.04570784 11777713
0.45350003 0.091181479 0.042969979 13289668
0.42500001 -0.0018521997 0.058930568 12696761
0.42533335 0.0021338814 0.059391931 11644586
0.42650002 0.013364318 0.059887394 11248284
0.42626092 0.026038997 0.059157316 12500408
0.43189996 0.02559736 0.056115597 12696758
0.42554727 0.035415661 0.05758455 12828087
0.43042102 0.034766156 0.05460453 13289151
0.425033 0.044991855 0.057175927 12302515
0.43370003 0.045733992 0.053614933 12763837
0.4412308 0.0468628 0.051148433 14013390
0.42501664 0.05510442 0.057159353 12237492
0.43396294 0.055144209 0.052627631 13420479
0.44016668 0.05320916 0.050471593 14472911
0.42578262 0.065072015 0.056801617 12696756
0.43383995 0.065035 0.051768459 12565942
0.42645749 0.075099044 0.057388242 12697523
0.43260366 0.074810348 0.05240532 12632506
0.42699993 0.084675781 0.058023024 12895417
0.43160307 0.085203074 0.053188305 12762547
0.42842859 0.091409042 0.059011098 14407885
0.43204457 0.093056299 0.053937163 11906982
0.47880006 -0.14219566 0.069472909 12432821
0.48263642 -0.14189516 0.067663431 14735572
0.4763158 -0.13365731 0.068228297 13487307
0.48157141 -0.13746426 0.066813327 13749963
0.46600005 -0.1233353 0.068341032 13485245
0.47170001 -0.12827381 0.067666896 14472914
0.45900002 -0.11321393 0.069823556 15590880
0.46286491 -0.11488494 0.06765566 14010817
0.45831257 -0.10452928 0.069248863 14209228
0.46248278 -0.10520498 0.067251898 13682883
0.45877779 -0.094899461 0.069192797 14802131
0.4630833 -0.095657222 0.067326285 13025979
0.43683329 -0.083208494 0.06951943 15393501
0.46079999 -0.08895456 0.068584129 15196116
0.43599999 -0.074023984 0.069130667 14078667
0.43520004 -0.067511648 0.069257155 13814981
0.42416668 -0.011774289 0.067502826 11644069
0.41400003 -0.00083507906 0.069762379 14013135
0.4245607 -0.0052924398 0.06515488 12565172
0.40900001 0.008271032 0.069877304 10920860
0.41484308 0.0056723072 0.068011954 12434101
0.42359081 0.0040590884 0.064052455 12236210
0.40844443 0.015378573 0.069356836 10657173
0.41454282 0.015371565 0.06611155 12170414
0.42246884 0.013882352 0.062252581 12697016
0.40868416 0.024404669 0.069420196 10065037
0.41414946 0.025183497 0.065448731 12433843
0.42185193 0.024932368 0.061098259 12829373
0.40900001 0.031250466 0.069877304 7960437
0.41415387 0.034944411 0.06544783 12434612
0.42050004 0.03508234 0.060520906 14276563
0.41513437 0.044942144 0.065427467 12302511
0.42055559 0.045369253 0.060474217 14539989
0.41662377 0.054922756 0.066043109 12237486
0.42065394 0.055245087 0.060883861 14606035
0.41777956 0.06470333 0.066931747 11315359
0.42090005 0.065346286 0.062173229 14605523
0.41838896 0.072942622 0.068596482 11511452
0.42171445 0.075492956 0.064339079 13355455
0.42333671 0.085045889 0.065188058 12828597
0.42530558 0.091931812 0.064657465 12631477
0.45656243 -0.14353934 0.078231797 13880772
0.46403998 -0.14267446 0.073534958 14078674
0.47340003 -0.14203119 0.070569441 14933725
0.44900003 -0.1312442 0.079864629 15657442
0.45550975 -0.13463138 0.077207327 13946825
0.4636251 -0.13521339 0.072878659 14603984
0.47110003 -0.1364924 0.070891447 13748421
0.44787511 -0.1237969 0.078351893 13485504
0.4545882 -0.12536126 0.074961923 14012618
0.46304175 -0.1260028 0.071291573 15130329
0.43866667 -0.11145073 0.079224043 14868184
0.44461405 -0.11480507 0.076534621 13552324
0.45480013 -0.11555587 0.072290167 13683398
0.46100003 -0.1191033 0.070127785 15722468
0.43672505 -0.10442631 0.077982649 13881803
0.44414583 -0.10506035 0.074116446 14012105
0.45347825 -0.10494802 0.071148403 13353919
0.42800003 -0.091468744 0.079133511 11708578
0.4346579 -0.094765805 0.075929977 13683652
0.44382757 -0.095578291 0.071733683 13815752
0.45066667 -0.097971551 0.070665903 9605006
0.42571115 -0.084265791 0.077930331 11973034
0.43371215 -0.085287139 0.073363915 13881545
0.44400004 -0.08872591 0.070659965 15262167
0.46000001 -0.089231059 0.071052529 9867141
0.41860002 -0.071597412 0.079160884 14473169
0.42398673 -0.074936762 0.076472782 13419708
0.43228573 -0.075201459 0.071753874 13092286
0.41628575 -0.064303741 0.078078948 14605268
0.42379034 -0.065098934 0.074216761 13091001
0.43179995 -0.067790538 0.071275882 12566197
0.40830001 -0.052249186 0.079123884 12563629
0.41427433 -0.05526812 0.077039786 13684165
0.42174473 -0.055006213 0.072954461 13024949
0.40666676 -0.04438797 0.078449778 11906730
0.41404456 -0.045246415 0.075663105 13224132
0.42544448 -0.044974033 0.07297875 13486790
0.43336365 -0.042697381 0.071636759 13684425
0.40512899 -0.035036594 0.078292511 12433586
0.41426316 -0.034755912 0.075134762 12894136
0.42449999 -0.035567116 0.074262314 13288639
0.43716669 -0.038747188 0.072469108 13552838
0.44000003 -0.03796925 0.071053438 12434877
0.3977693 -0.022937385 0.07956171 14210769
0.40451854 -0.025245823 0.077833876 12565432
0.41391242 -0.024767788 0.074380748 12959672
0.39720595 -0.014613966 0.078964077 13026496
0.40397137 -0.015592491 0.076738723 12236464
0.41475004 -0.015592743 0.07430061 11972778
0.42165524 -0.013748079 0.0716618 12499378
0.39727771 -0.0048567727 0.078670643 12236464
0.40352625 -0.004828182 0.074559592 12301745
0.41249999 -0.0042122491 0.071534589 10854557
0.42283332 -0.007838754 0.071522936 12302259
0.39747062 0.0046547162 0.078285992 11512484
0.40380436 0.0049268077 0.073413141 12302771
0.41042861 0.0030134008 0.070121378 10392978
0.39846155 0.011969759 0.078982353 10065550
0.40279672 0.015368811 0.074602142 11842218
0.40434957 0.0250919 0.075114608 12170669
0.4063704 0.034761075 0.07539665 12171953
0.41016671 0.036781691 0.070396565 9869968
0.40800026 0.044225551 0.076621518 12171437
0.41116279 0.045776989 0.072057806 11512482
0.40892854 0.052511234 0.078549109 12960696
0.41195944 0.055408113 0.074593797 12039338
0.41401777 0.064970873 0.074705184 12697268
0.41617438 0.075067639 0.074983545 12499633
0.41772059 0.084251016 0.076296344 13487297
0.4205626 0.086470135 0.072221234 11250079
0.41900006 0.090769649 0.078648187 14605011
0.42179999 0.09117952 0.071468614 12302771
0.44546285 -0.14414892 0.087006845 14604241
0.4525626 -0.14493325 0.082249537 14473167
0.43883333 -0.13152607 0.089014173 11972263
0.44469407 -0.1351632 0.085289881 13749190
0.45100003 -0.13742545 0.080747329 15658215
0.43703929 -0.12413964 0.087240376 12959674
0.44286278 -0.12567082 0.08256653 13946825
0.42822224 -0.11147036 0.088865474 15000287
0.43411499 -0.11500219 0.08487422 13486789
0.44050002 -0.11827654 0.080758497 13551810
0.42628133 -0.10416359 0.086777121 13947083
0.43170452 -0.10600037 0.082272328 12433843
0.4184286 -0.091382556 0.088699006 12039085
0.42368045 -0.095100842 0.084833309 13091516
0.43000001 -0.09876287 0.080763258 10787732
0.41638038 -0.084274516 0.086726733 12367534
0.42160988 -0.086047441 0.082138546 14473681
0.4084762 -0.072680369 0.088638805 14801360
0.41410202 -0.075273432 0.084225073 13025720
0.42000002 -0.079013765 0.080605693 15724259
0.40655959 -0.064365573 0.086390339 13486273
0.41214642 -0.065855742 0.081753835 11578536
0.39866665 -0.050890625 0.088954739 12367797
0.40388122 -0.055024162 0.084777012 12762807
0.41000003 -0.059375871 0.080606148 14802903
0.39661428 -0.044097904 0.086855508 11907754
0.40174139 -0.045971982 0.082527965 14013130
0.38875002 -0.031044148 0.089168802 12697527
0.39407423 -0.034940027 0.085349634 12302000
0.40014291 -0.035802167 0.08080925 14605010
0.38778573 -0.024776844 0.08790677 10197134
0.39298806 -0.025109263 0.083000138 11644581
0.38810605 -0.01531826 0.087655157 10131343
0.39247957 -0.014962977 0.082641445 11907498
0.38869998 -0.007456183 0.088368364 12170924
0.39228576 -0.0048132599 0.084074423 11709860
0.393875 0.0046421262 0.085104488 11512482
0.39662185 0.01495263 0.085126035 11381409
0.40000001 0.019481985 0.08082509 11315617
0.39829168 0.023596795 0.087218739 11710631
0.40016052 0.025674345 0.08352194 11908524
0.40231204 0.034910075 0.085001715 11513765
0.40514624 0.045236912 0.084951036 11776166
0.40766069 0.054874819 0.085083932 12104874
0.41000003 0.05892162 0.080846101 13618112
0.40852413 0.063921504 0.08710029 11775654
0.41112724 0.066124342 0.082487233 13355197
0.40899998 0.07153286 0.089710735 11116952
0.41221076 0.075043216 0.084848873 12697010
0.41412911 0.084294178 0.085177854 12828853
0.41740003 0.090422191 0.082632199 12828086
0.43400002 -0.15022768 0.097516581 11379869
0.43581247 -0.14451417 0.096113332 14341324
0.44084007 -0.14545469 0.091043375 12893110
0.43429527 -0.13490397 0.095140137 13617603
0.44000003 -0.13942897 0.090624347 12630203
0.42727023 -0.12354353 0.097893268 12827828
0.43222395 -0.125783 0.093529016 14078153
0.42452633 -0.11456356 0.095499381 13354690
0.43020004 -0.11829673 0.091324762 15197151
0.41774195 -0.10283422 0.097773157 13947081
0.42169863 -0.1057538 0.093772382 12893880
0.41586003 -0.094760217 0.095132202 13156796
0.42028573 -0.098253839 0.091061339 11314848
0.40856528 -0.082124114 0.097955599 12566458
0.41224712 -0.085772596 0.094344854 12630709
0.40647429 -0.074567378 0.095190324 12235434
0.41055557 -0.078893013 0.091393799 14077898
0.40263405 -0.065208808 0.095014401 12565170
0.39771432 -0.053804003 0.095625661 11710377
0.40034205 -0.058051698 0.093404964 12631478
0.3938182 -0.044891223 0.09498924 11973035
0.38736781 -0.033809621 0.095654137 9933963
0.39058071 -0.03762852 0.092978917 11775655
0.38246086 -0.024894297 0.094800852 2501414
0.38275012 -0.015179367 0.094833419 2895660
0.387431 -0.0054029594 0.095041327 10592661
0.39000002 -0.001091001 0.090673424 13750724
0.38900003 0.00012600447 0.096967302 6972759
0.39156628 0.0049521918 0.094753556 10723737
0.39452508 0.014874296 0.095071755 10789783
0.39698237 0.024983244 0.094894171 11645350
0.39886212 0.031554617 0.096349731 12368558
0.40051728 0.03613916 0.094366848 11051929
0.40295491 0.044981468 0.095202357 11512735
0.40466347 0.054874022 0.094831921 11710631
0.40650895 0.065054268 0.095054366 12631731
0.40753284 0.074877881 0.095592268 12697012
0.41018182 0.078000441 0.090767853 10920342
0.40824509 0.083611608 0.097091556 14210506
0.41143399 0.085749239 0.093061574 11315102
0.41357145 0.090451442 0.091818795 5656908
0.42666012 -0.143731 0.10700767 13288122
0.43108517 -0.14539737 0.10244056 15394525
0.42543688 -0.13475965 0.10543136 13683137
0.43000004 -0.13777007 0.10097989 15064018
0.41871431 -0.1214117 0.10920496 14145231
0.42282 -0.12518823 0.10474148 13682880
0.41753331 -0.1139681 0.10661709 13617858
0.42079082 -0.11640251 0.10265602 12827575
0.41481099 -0.10495824 0.10504571 13223357
0.42000002 -0.10998544 0.10027025 15395558
0.40838242 -0.092688039 0.10756148 12104364
0.41161543 -0.09595798 0.10378494 13091515
0.406661 -0.084916219 0.10529556 12434101
0.41033337 -0.088882737 0.10052351 13090744
0.40311858 -0.074868642 0.10491615 12170156
0.40044588 -0.06502571 0.10497353 11841447
0.39753839 -0.054488309 0.10488995 11447460
0.40000007 -0.059507862 0.10573743 11183772
0.39306077 -0.045038108 0.10478274 10985882
0.38584301 -0.034693968 0.10505224 9342087
0.37777764 -0.023855491 0.10521949 2370086
0.38076001 -0.028401222 0.10302243 2501671
0.37794623 -0.016144607 0.10548627 2501158
0.38097498 -0.012093256 0.10343792 3816245
0.38602358 -0.0054160929 0.10499661 9934732
0.389 0.00012600447 0.10399958 9803405
0.39204538 0.0051236814 0.10495248 9934734
0.39412615 0.014839115 0.1050026 10460306
0.39610732 0.025168356 0.10476454 10986907
0.39810678 0.033720095 0.10578966 11381407
0.39999986 0.037980128 0.10355351 11249565
0.40112641 0.044785697 0.10519309 11117724
0.40339649 0.05490528 0.10480183 12170409
0.40374303 0.065013304 0.10499278 12171183
0.40385813 0.075024731 0.10491815 12565427
0.40490893 0.084531136 0.1048155 12499634
0.41765916 -0.14406024 0.11788524 13880772
0.42156932 -0.14448044 0.1129063 14867927
0.41720843 -0.13451271 0.11694842 12827827
0.42086366 -0.13587351 0.11232025 15065307
0.41620764 -0.12485071 0.11540348 13091257
0.42033339 -0.12778565 0.11051765 15326932
0.40900001 -0.11141351 0.11966608 15263199
0.41360873 -0.1151107 0.11482985 13420737
0.40810734 -0.10375103 0.11708153 14144203
0.41135082 -0.10623616 0.11315361 12236718
0.40580523 -0.094924435 0.11506131 12959928
0.41000003 -0.099688202 0.11036048 14669517
0.40245777 -0.08494892 0.11512233 12631735
0.39881492 -0.073766604 0.11837996 13026233
0.40049472 -0.075361863 0.1139286 11908012
0.39816657 -0.064312592 0.11647172 12565167
0.39999989 -0.066383719 0.11203865 11051932
0.39754063 -0.054927092 0.11531091 11249568
0.40000001 -0.059800487 0.11047798 10459282
0.39388883 -0.044736713 0.11496232 10722965
0.37866664 -0.030607887 0.11581179 2368802
0.38496998 -0.03514798 0.11477242 9867659
0.3752417 -0.024758337 0.114982 2173218
0.37576798 -0.015054471 0.11521189 2567206
0.38000003 -0.010551953 0.11207078 6776927
0.37900001 -0.0096369386 0.11931744 9473924
0.3853806 -0.0052458993 0.11472116 10592663
0.39000002 -0.00078666862 0.11798726 11119262
0.3931368 0.0047386885 0.11511231 9736839
0.39456487 0.014996109 0.11530723 10132113
0.39515901 0.024997881 0.11490914 10723479
0.39677864 0.035051595 0.11501021 11184031
0.39838043 0.043648805 0.11676659 10854552
0.40016654 0.046502024 0.11288266 13092028
0.3989546 0.05523232 0.11906183 10591640
0.40083036 0.055024222 0.11398649 12433582
0.39853576 0.065503605 0.11863603 11052704
0.40097117 0.064770728 0.11373914 12697783
0.39803559 0.075022027 0.11816942 12565941
0.40057141 0.074869633 0.11298823 11972775
0.39818522 0.082505591 0.1184679 13947851
0.40104994 0.084888205 0.11378977 11776167
0.40850011 -0.14426982 0.12860353 15788771
0.41326195 -0.14443032 0.12356052 13683652
0.40831122 -0.13466597 0.12829949 14012873
0.41247723 -0.13499561 0.12340758 13485759
0.4076986 -0.12447471 0.12761316 13617600
0.41190469 -0.12545305 0.12276077 14077639
0.40673539 -0.11470897 0.1258537 13289151
0.41078943 -0.11759551 0.12155471 13947082
0.40410158 -0.10504995 0.12501653 13222843
0.39868009 -0.093017146 0.12859266 10658457
0.40164229 -0.095580451 0.12421535 13354685
0.39741752 -0.084290735 0.12592261 11973805
0.40028119 -0.087340347 0.12179951 13552577
0.39643064 -0.074973971 0.12487032 11973546
0.39615959 -0.064931482 0.1249317 11381410
0.39689597 -0.054810464 0.12479556 10196108
0.39548835 -0.044850286 0.12471516 9933706
0.40000001 -0.049031809 0.12920614 9736325
0.37628576 -0.031403936 0.12449139 4342850
0.38627273 -0.036035948 0.12388468 10658202
0.3910909 -0.03866037 0.12766124 10724766
0.37194505 -0.025270667 0.12304734 1975582
0.37210876 -0.015335478 0.12306905 2895911
0.37866667 -0.0090369657 0.12202095 9605248
0.38548574 -0.0043092892 0.12368961 10263953
0.39000002 -0.00078666862 0.12186749 10987676
0.39410284 0.0050066663 0.12495092 8553593
0.39455453 0.014907012 0.12514248 8223601
0.39457762 0.025187243 0.12488513 9868683
0.39508411 0.035198566 0.12490895 11381153
0.39617494 0.045149397 0.12482492 11973290
0.39588648 0.05499576 0.12500475 12105132
0.39511964 0.06498529 0.12487927 12039598
0.39415154 0.075018384 0.12499744 12433840
0.3947444 0.083587028 0.12468097 12236463
0.40515506 -0.14442365 0.1350984 13091771
0.40430951 -0.1352184 0.13457425 12630964
0.4034059 -0.12546244 0.13404642 12433586
0.40132424 -0.11481498 0.1343312 11907755
0.39900008 -0.10210429 0.13500127 10657428
0.40014264 -0.10616069 0.13381323 11315101
0.39800009 -0.095253423 0.13298558 11315872
0.40000001 -0.099129595 0.13014254 15851994
0.39643252 -0.085380942 0.13174088 10657943
0.3952381 -0.07482034 0.13088441 10198164
0.39635715 -0.064747907 0.1308119 7829102
0.40542862 -0.061828401 0.13543901 6710363
0.41275001 -0.064129405 0.13912094 7763821
0.39866671 -0.059289802 0.13095337 7697002
0.40374577 -0.054548971 0.13454454 8289651
0.41000003 -0.059375871 0.13915502 8750715
0.39633334 -0.041858952 0.13188696 9671562
0.40185365 -0.04743766 0.1338716 9473924
0.38900003 -0.035844907 0.13020624 10591893
0.3926 -0.038659286 0.13187149 9079169
0.3962 0.0066206828 0.1310398 9409672
0.39577767 0.016117381 0.13420846 9145217
0.39598954 0.025092376 0.13447474 9013888
0.39596075 0.035151929 0.13455473 9408390
0.39530528 0.045254841 0.13402435 10065805
0.39351144 0.054884721 0.13387173 9999756
0.39368528 0.065040976 0.13407855 10197906
0.3924675 0.075224407 0.13374619 10000012
0.39220008 0.082546733 0.13277696 10921371
0.40400001 -0.14457214 0.14090167 9539465
0.43275002 -0.093067452 0.14940764 7433315
0.42635909 -0.083863512 0.14672859 7303784
0.43000001 -0.089199811 0.14896297 8420720
0.41825008 -0.071341887 0.14342526 7303272
0.42098308 -0.075653084 0.14620703 8027249
0.41534621 -0.065656349 0.14342134 8619129
0.4114286 -0.058758378 0.14129163 8948095
0.36500001 -0.03092731 0.14695495 1251347
0.3643935 -0.024972882 0.14754817 856587
0.36400017 -0.015889976 0.14787392 1512974
0.44819999 -0.12135787 0.15904538 12433839
0.44442865 -0.11423544 0.15789954 9473669
0.43812498 -0.10213768 0.15552706 7894377
0.44068184 -0.10757229 0.15707093 7697256
0.43464708 -0.094957843 0.15481053 7961200
0.42655179 -0.083230324 0.15248336 8882814
0.43054545 -0.088466376 0.15254258 8026991
0.42173925 -0.076490507 0.15189646 9540488
0.36442867 -0.03246633 0.1567076 3225137
0.36499223 -0.025105316 0.15559869 725258
0.36399978 -0.015367366 0.15513743 2103056
0.44831249 -0.12159839 0.16285011 9867401
0.44517508 -0.11533477 0.16250417 8552311
0.44114286 -0.10755832 0.16160081 9013630
0.36238986 -0.032580405 0.16391891 1843482
0.36260572 -0.024842724 0.16504607 1185809
0.36368737 -0.01614107 0.16477887 1513233
0.34765512 -0.033171661 0.17922853 1777689
0.35564804 -0.032430414 0.1780141 1054736
0.36221838 -0.032678161 0.17345224 1383444
0.34731996 -0.024896596 0.17929846 1580310
0.3554472 -0.024961645 0.17734456 1054737
0.36075953 -0.024867523 0.17280334 1646615
0.3475385 -0.017003868 0.17937931 1448980
0.35556361 -0.017455779 0.17858106 922894
0.3613562 -0.016253341 0.1747438 1185808
0.34320742 -0.033485372 0.18492021 1646360
0.34253058 -0.025042465 0.18469641 1645846
0.34301487 -0.016634241 0.18488778 1580052
0.35780004 -0.012950729 0.18040609 922894
0.36111113 -0.011718175 0.18126641 724489
0.33900008 -0.032754779 0.19133689 1515030
0.33999994 -0.032391001 0.19048108 1515031
0.33900014 -0.023698345 0.19141601 1580310
0.34000003 -0.026060579 0.19088434 1580566
0.33900005 -0.018029734 0.19135688 1645848
0.33999994 -0.01687005 0.19048108 1777175
