# .PCD v0.7 - Point Cloud Data file format
VERSION 0.7
FIELDS x y z rgb
SIZE 4 4 4 4
TYPE F F F U
COUNT 1 1 1 1
WIDTH 898
HEIGHT 1
VIEWPOINT 0 0 0 1 0 0 0
POINTS 898
DATA ascii
0.78900003 -0.0034385545 0.049835082 14408915
0.79207414 -0.0055118743 0.044872161 13751498
0.78900003 0.0021026351 0.049835082 13487811
0.79218191 0.0051459968 0.04497201 12896187
0.79326659 -0.11488149 0.054740652 12829112
0.78900003 -0.10317996 0.059070397 15723488
0.79271424 -0.10552136 0.054038882 14276300
0.78883332 -0.094079308 0.057980467 14736850
0.79139137 -0.095357761 0.052963391 14276555
0.78866673 -0.084673546 0.057198383 14013383
0.79061538 -0.085311167 0.0520714 14342861
0.78866667 -0.075442128 0.057198372 14210762
0.79015386 -0.074302956 0.052468684 14935255
0.78868413 -0.065434858 0.057005268 13947590
0.79100001 -0.06429033 0.051679373 14869205
0.7888667 -0.055146527 0.057213355 13881797
0.79099995 -0.055296134 0.051811587 14605776
0.78899986 -0.044601683 0.056695599 13749955
0.79074997 -0.04648697 0.051795602 14144969
0.7889998 -0.034761671 0.055530209 13552062
0.79000002 -0.036732189 0.05174765 14078663
0.78899992 -0.02582062 0.057006035 13749185
0.79021424 -0.022999207 0.053082347 13552319
0.78900003 -0.012827792 0.056607652 13486526
0.79021424 -0.016261589 0.054007061 13354940
0.78855997 -0.0052832318 0.055344168 14145485
0.78862053 0.0047125858 0.055475987 13882056
0.79000002 0.0095029166 0.05174765 12170668
0.78900003 0.011799717 0.0576851 12894390
0.79030442 0.015862137 0.054581601 12500402
0.79097235 0.025252949 0.054586485 12960954
0.78900003 0.037566252 0.056669217 12171694
0.79013336 0.03392056 0.054592133 12369330
0.78899986 0.044585086 0.056299806 12434866
0.79000002 0.044641595 0.05174765 13554631
0.78899992 0.054189812 0.057592753 12829111
0.79104769 0.055283643 0.052343227 13817290
0.78900003 0.064902782 0.058146872 12763318
0.79090005 0.065059662 0.052730363 14014669
0.78900003 0.074322805 0.058331579 13289662
0.79147822 0.075015672 0.053291637 13553604
0.79293942 0.085140184 0.054464083 13224382
0.78900003 0.11625115 0.058700986 10659739
0.78900003 -0.11056822 0.065535121 15460573
0.79104769 -0.11526753 0.064603463 12302254
0.78840005 -0.104948 0.064561613 15000021
0.78800005 -0.094747938 0.064529702 14539726
0.78800005 -0.084601976 0.064529687 14144967
0.78816003 -0.075393483 0.06454356 13947590
0.78826672 -0.065254159 0.064552628 13881797
0.78858322 -0.055280428 0.064424716 13684418
0.79000002 -0.051527418 0.068392284 13947590
0.7889998 -0.044997469 0.063688047 13552832
0.79000002 -0.045054507 0.068392284 13749954
0.7889998 -0.03459771 0.06429036 13749698
0.79000002 -0.037656888 0.068392284 13815491
0.78889972 -0.024677161 0.064603008 13814721
0.78829616 -0.014303881 0.064961992 13354684
0.78713328 -0.005273737 0.06537687 14079949
0.7872858 0.0047331173 0.065258458 14277585
0.78880936 0.014413543 0.065035209 13026746
0.79000002 0.018287586 0.062381722 12566450
0.78900003 0.025421809 0.067843951 12631987
0.79000002 0.025138788 0.063516572 12698294
0.78899992 0.036436282 0.065046199 12368815
0.79000002 0.03308282 0.063768774 12764087
0.7889998 0.04458509 0.064611591 12237230
0.78866655 0.05471972 0.064583987 12368560
0.78781486 0.065009303 0.064923249 12500146
0.78755903 0.074708641 0.065142713 12434353
0.78873903 0.084952295 0.064910844 12763061
0.79000002 0.088102594 0.060994666 12829111
0.78900003 0.090761669 0.067382187 13223613
0.79026097 0.094929188 0.064473502 13421504
0.79106688 0.10488835 0.064782158 11645608
0.78900003 0.11600488 0.062148836 10593946
0.79068756 0.1143247 0.06613975 10659483
0.78900003 -0.11056822 0.074770436 15263194
0.79170847 -0.11558502 0.075027727 10920344
0.78829998 -0.10493503 0.074704222 15066071
0.78858316 -0.094816677 0.074731439 14802899
0.78899992 -0.085035287 0.07243444 14408141
0.79000002 -0.08438991 0.077923819 14408141
0.78900003 -0.075474016 0.071076311 13947590
0.79033345 -0.074676067 0.076747857 14079176
0.78900003 -0.066054001 0.070891604 14079176
0.79018193 -0.064236119 0.076312594 14079176
0.78900003 -0.05700339 0.070152782 13947590
0.7900002 -0.055020731 0.075378932 14013383
0.79027814 -0.045070678 0.074892841 14013383
0.78900003 -0.03176019 0.073846906 13947077
0.79000002 -0.036203787 0.075261511 14013127
0.78836107 -0.024661327 0.074709721 13486270
0.78639287 -0.014673194 0.074849062 13289147
0.7835201 -0.0052504046 0.075165235 14145998
0.78493547 0.0050023682 0.07512407 14343377
0.78816676 0.015017997 0.074690804 13553347
0.78899974 0.025190925 0.074770451 12829366
0.7889998 0.034707315 0.073766597 12697780
0.79000002 0.037508182 0.078167699 12698293
0.78899992 0.04458509 0.07199984 12434352
0.79000002 0.044641599 0.077639304 12500914
0.78889269 0.054999832 0.073573418 12500144
0.79000002 0.053888619 0.079026349 13026488
0.7885555 0.064797729 0.074900731 12631731
0.79000002 0.061286233 0.07948871 12960695
0.78850001 0.075014062 0.074108936 12565682
0.79012501 0.076094091 0.079038925 13026490
0.78890914 0.084371515 0.071488023 12236461
0.79021055 0.085838147 0.076784469 12763317
0.79106683 0.094705321 0.074968405 13092796
0.7884286 -0.11233453 0.085525937 11578788
0.79118192 -0.11693677 0.084320731 10328721
0.78740013 -0.10481425 0.084755287 15197401
0.78826672 -0.094778292 0.084849566 15066071
0.78900003 -0.087710813 0.085621931 14934485
0.79000002 -0.08340244 0.084710568 14539727
0.79100019 -0.074739456 0.08514455 14342348
0.79056025 -0.0645198 0.08509656 14276555
0.79000014 -0.055226222 0.085036919 14342348
0.79073364 -0.045096409 0.085115701 14276298
0.78900003 -0.031144504 0.084929287 13947077
0.79000002 -0.035807483 0.085036911 14144712
0.78829998 -0.024659878 0.084853701 13288891
0.78439289 -0.014244181 0.085020959 13289405
0.78203315 -0.0052391039 0.085094556 14145741
0.78439415 0.0046000732 0.084934592 14408913
0.78820008 0.015018896 0.084843457 13881799
0.78899992 0.024267392 0.083299525 13027002
0.79000002 0.026432078 0.087170854 13026746
0.78900003 0.031655647 0.081235155 12961465
0.79000014 0.035548691 0.085191041 12763573
0.79012007 0.044648476 0.085050032 12631988
0.79050022 0.054847892 0.08509215 13026490
0.79112005 0.06507764 0.085160293 13158076
0.79173332 0.075322218 0.085225917 13092283
0.7912401 0.085461289 0.085170679 13224125
0.79152006 0.094759643 0.085199893 13422017
0.78900003 -0.12165061 0.097858727 10262672
0.79208708 -0.12575802 0.095013745 10723736
0.78691429 -0.11475471 0.094966605 10657430
0.79000002 -0.11995538 0.090585135 10328979
0.78576648 -0.10459514 0.094698496 15065815
0.78799999 -0.094745658 0.094968148 15197657
0.78900003 -0.087787777 0.094164595 14868692
0.79009527 -0.083505474 0.095616646 14605520
0.7911669 -0.07475502 0.0953492 14539727
0.79110026 -0.064562634 0.095341414 14605520
0.7914232 -0.055467978 0.094668798 14605520
0.7912001 -0.044992585 0.09522076 14342092
0.78892857 -0.03272488 0.096266493 13946564
0.79000002 -0.036732189 0.09416835 14078406
0.78751612 -0.025379354 0.094758756 13091255
0.78328127 -0.015453631 0.094969288 13157563
0.77900004 -0.0049146842 0.098138146 14079949
0.78115785 -0.005329187 0.093997024 14079950
0.78357577 0.005095466 0.094848201 14211792
0.78776664 0.015011466 0.094938681 14079691
0.78900003 0.021650722 0.095242053 13487041
0.79000014 0.026995199 0.095131606 13158333
0.78900003 0.038582135 0.098320492 12961210
0.7900002 0.034896657 0.094710745 12961210
0.78900003 0.042210288 0.09785872 12960697
0.79000008 0.045365278 0.094364345 12829367
0.79072243 0.054865457 0.095294677 12895160
0.79275995 0.065213576 0.094613642 13026490
0.79289991 0.07543122 0.094630606 13158076
0.7907933 0.085539684 0.095144592 13289920
0.79071438 0.094464876 0.094964243 13553607
0.78900003 -0.12165061 0.10247639 10065805
0.79272741 -0.12568606 0.1052402 10855323
0.78762966 -0.11454492 0.10472474 10394257
0.79000002 -0.11903067 0.10815448 10197392
0.78720009 -0.10478555 0.10500874 14407885
0.78833336 -0.094786458 0.10515805 14539727
0.78899986 -0.085222408 0.10637574 14671313
0.79000002 -0.083495691 0.10247416 14473934
0.78900003 -0.075474016 0.10801756 14539471
0.79011768 -0.074492626 0.1036549 14473678
0.78900003 -0.068455175 0.10820228 14407628
0.79027277 -0.064074665 0.10499537 14539214
0.79075885 -0.055151552 0.10471313 14539471
0.78900003 -0.041765116 0.10847934 14341835
0.79025954 -0.045721009 0.10472866 14407628
0.78866655 -0.034671161 0.10535596 13814978
0.79000002 -0.038581591 0.10168156 14012870
0.78612006 -0.025514068 0.10486235 13090998
0.77850014 -0.01211526 0.10566733 13355198
0.78209096 -0.017309409 0.10465831 12894132
0.77726674 -0.0052080294 0.10458835 14079949
0.77806675 0.0018317493 0.10548704 14211791
0.78200012 0.0069687935 0.10466103 14211791
0.78700006 0.014997345 0.10497947 14079948
0.7889998 0.024764679 0.10574428 13487554
0.79000002 0.027996957 0.10214391 13092796
0.78900003 0.0390439 0.10155285 13026490
0.79000014 0.03524046 0.10553447 13027003
0.78900003 0.040890962 0.10155285 13092283
0.79004186 0.044798266 0.10554022 13092283
0.79053342 0.05485189 0.10545221 13223869
0.79239982 0.065184027 0.10477207 12961210
0.79200006 0.085200205 0.1055803 13027005
0.79259264 0.095093898 0.10531548 13290434
0.78885716 -0.11160366 0.11261518 9999757
0.79166675 -0.11568156 0.11559154 9999759
0.78818524 -0.10471429 0.1147745 14276300
0.78831249 -0.095014706 0.11472858 14934229
0.7889998 -0.084709331 0.11448227 14671056
0.7889998 -0.075474024 0.11448233 14605007
0.78899974 -0.065474406 0.11460971 14605263
0.79000002 -0.060774446 0.11092858 14473934
0.78900003 -0.057926923 0.11355876 14736849
0.79000002 -0.054697827 0.11480351 14605007
0.78900003 -0.041303352 0.11263523 14210249
0.79000014 -0.045979202 0.11508972 14341835
0.78851849 -0.034613699 0.11482254 13749185
0.7856667 -0.025500452 0.11491662 12959155
0.77643996 -0.013638412 0.11571104 13223355
0.78133339 -0.01885196 0.11418116 12696497
0.77499998 -0.0053167115 0.11501329 14079950
0.77681476 0.0035554948 0.11567521 14146000
0.78142864 0.0086162398 0.1139044 14146000
0.78536677 0.014968629 0.11487005 14080207
0.78874981 0.024260709 0.11470903 13619397
0.79000002 0.029846365 0.11555208 13224383
0.79076004 0.035429653 0.11473969 13092796
0.79176003 0.044741701 0.11488511 12895161
0.79209995 0.054960087 0.11493399 13026747
0.79232001 0.065175608 0.11496524 13026747
0.79214811 0.074846111 0.11500777 13092283
0.79278564 0.085032508 0.11496437 12895162
0.7929644 -0.11464507 0.12493526 9867917
0.78871411 -0.10518789 0.12492508 13749698
0.78874183 -0.095044412 0.12462979 14934485
0.79000002 -0.090364903 0.12757322 15263450
0.78900003 -0.087787777 0.12063917 15131351
0.79025954 -0.084501356 0.12528639 14868179
0.78900003 -0.075474024 0.12002348 14736593
0.79032373 -0.074784771 0.12512366 14670800
0.78900003 -0.067162231 0.12002348 14802386
0.79007423 -0.064273559 0.12532498 14670800
0.79090011 -0.055287354 0.12494289 14539214
0.79069471 -0.045096096 0.12490972 14210249
0.78771996 -0.034269523 0.12506111 13551549
0.79000002 -0.038581591 0.1247991 14078150
0.77653342 -0.023988146 0.12660715 12827314
0.78326672 -0.02664349 0.12342775 12959155
0.77394122 -0.01515403 0.12497444 13091257
0.77281487 -0.005377478 0.12519743 14079949
0.77475011 0.0050164643 0.12476783 14211536
0.77799994 0.012008389 0.12513699 14211535
0.78294116 0.016429355 0.12470662 14145742
0.78816658 0.023859596 0.12458578 13684934
0.79030001 0.029117936 0.12558731 13487297
0.79246658 0.035506804 0.12518941 13158333
0.79223323 0.065168448 0.12515095 12960697
0.79227763 0.075373091 0.12515779 12960954
0.79206657 0.085552022 0.1251259 13224383
0.78900003 -0.11093763 0.13627765 9867400
0.792 -0.11571172 0.13446701 9867915
0.78816009 -0.10491589 0.13465603 13354941
0.78861111 -0.096974313 0.1344261 15328730
0.79000002 -0.091751963 0.13543318 14999765
0.79040009 -0.084858239 0.1350392 14802643
0.79083347 -0.074722894 0.13511331 14473934
0.79108018 -0.064561665 0.13515572 14605007
0.7909202 -0.055290919 0.13512737 14473164
0.78811759 -0.042615499 0.1363834 14077893
0.79033333 -0.047232475 0.13379362 14275529
0.77638465 -0.031906173 0.13599612 12959156
0.78444457 -0.036272932 0.13411792 13748928
0.77306664 -0.025089156 0.13478965 12761520
0.76900005 -0.011002423 0.13723379 13486786
0.77073348 -0.015870282 0.13426325 12893878
0.76900005 -0.0081520397 0.1379839 13750985
0.77076006 -0.0045845383 0.13428026 14079950
0.77358329 0.0047816182 0.1348815 14080207
0.77681822 0.011990556 0.13503231 14145743
0.78247058 0.016850863 0.13486847 14079950
0.78795242 0.023184054 0.13488409 13750983
0.79049999 0.028940553 0.13505626 13421760
0.79212004 0.035490777 0.13533182 13224124
0.79223067 0.044695441 0.13513571 13026744
0.79179996 0.054937515 0.13527673 12960695
0.79176003 0.06512963 0.13527051 12894903
0.79166657 0.075315014 0.13525434 12829625
0.7922799 0.085575886 0.1353603 13027004
0.78900003 -0.11135981 0.14271598 9867661
0.79168427 -0.11553229 0.14530648 9933709
0.7884444 -0.10488442 0.14434557 12894392
0.79000002 -0.10577661 0.14976607 11709862
0.78900003 -0.097946621 0.14326568 14605007
0.79020852 -0.093471088 0.14602873 14999765
0.79100019 -0.085051455 0.14516698 14736593
0.79127282 -0.074512899 0.1449558 14473936
0.79133344 -0.06458237 0.14538652 14473679
0.79040027 -0.055255588 0.14521603 14341579
0.78784835 -0.045020442 0.1448863 14077895
0.79000002 -0.049678016 0.14976607 14275274
0.77629417 -0.032784022 0.14481628 12893363
0.7817778 -0.037367966 0.14475095 13748932
0.77270371 -0.024876114 0.14508012 12761777
0.76871431 -0.01183433 0.14534466 13289663
0.77045465 -0.01713207 0.14483112 12762291
0.76841688 -0.0058966577 0.14537257 13948364
0.7701667 -0.0021543636 0.14270021 14145743
0.77239406 0.0045287935 0.14511161 14145743
0.77657902 0.013459079 0.14511545 14145743
0.78244442 0.01775776 0.14426111 14014157
0.78763998 0.023786576 0.14518715 13882057
0.79009998 0.029110378 0.14442058 13487298
0.79137933 0.035330035 0.14523494 13158333
0.79103857 0.044700187 0.14462125 13026747
0.79091203 0.055093914 0.14503746 12829110
0.79033369 0.065012462 0.14520225 12829366
0.78900003 0.074138105 0.1495765 12894904
0.79034328 0.075215816 0.14507185 12829624
0.79103357 0.085441187 0.14532976 12895418
0.79096007 -0.10529065 0.15550451 12235690
0.79003364 -0.094992258 0.15532066 14671058
0.79061562 -0.084739976 0.15521997 14802900
0.79078817 -0.074972868 0.1549623 14539728
0.79068023 -0.064529218 0.1554471 14342349
0.79024017 -0.055243377 0.15536107 14144458
0.78800005 -0.043518066 0.15466954 14012102
0.79000002 -0.04898449 0.15600781 14078152
0.77652943 -0.032366142 0.15512459 12761778
0.78325003 -0.037336603 0.15490451 13353916
0.77303571 -0.025281582 0.15501724 12695985
0.76800007 -0.01262227 0.15486763 13288893
0.77053845 -0.018067252 0.15551254 12696242
0.76751727 -0.0052635144 0.15523086 13948621
0.77224255 0.0050212801 0.15494494 14014414
0.77569234 0.014224078 0.15536401 14079950
0.78075004 0.018530399 0.15257981 14079949
0.78638721 0.024730748 0.15507583 13816519
0.79000002 0.029846365 0.15161547 13224639
0.79076928 0.035573281 0.15525112 13158075
0.79189646 0.044748932 0.15491956 13158076
0.79109389 0.054655083 0.15518126 12894904
0.78900003 0.068227492 0.15585651 12631732
0.79000002 0.064152807 0.15512931 12697525
0.7889998 0.075203709 0.1554729 12697525
0.79000002 0.074232064 0.15300252 12763318
0.78900003 0.083065577 0.15758044 12894904
0.79005265 0.086015761 0.1545458 12960954
0.79173338 0.09478505 0.15472484 11382694
0.78900003 -0.1013329 0.16989419 14868179
0.79144007 -0.10535557 0.16486059 11906983
0.7889998 -0.093543112 0.16660161 14802387
0.79000002 -0.097335748 0.16313866 15394524
0.78899986 -0.086002275 0.16583066 14539216
0.79000002 -0.08235082 0.16373934 14605009
0.79033357 -0.074675202 0.16463138 14210508
0.79064018 -0.064525865 0.16469581 14276044
0.79016012 -0.055238072 0.16459464 14144201
0.78820002 -0.043367505 0.1655153 13946309
0.79000002 -0.048568375 0.16400646 14143945
0.77730775 -0.032224797 0.16513652 12630447
0.78284615 -0.036684807 0.16532589 12762034
0.77361542 -0.024967309 0.16497946 12564654
0.76734793 -0.013266752 0.16499428 13157307
0.77108335 -0.018704867 0.1651326 12498862
0.76639307 -0.0051938654 0.16521411 13817035
0.76900005 0.00024909366 0.16828799 13948621
0.77216136 0.0048033227 0.16469376 13948621
0.77530771 0.014914914 0.1649207 14014414
0.77900004 0.020312516 0.1677409 13948621
0.78587508 0.025618684 0.16467901 13684935
0.79072016 0.035428707 0.16471148 13158075
0.79183996 0.044745952 0.16494499 13092281
0.79153335 0.054917995 0.16488171 12960696
0.79052019 0.065027349 0.16467121 12894903
0.78900003 0.076908693 0.16065887 12565939
0.79026932 0.074897639 0.16518758 12565939
0.78900003 0.081526354 0.16065887 12697525
0.79004174 0.085487001 0.16472428 12829112
0.79084021 0.094676733 0.16473655 11382437
0.79116684 0.10490368 0.16480488 10330006
0.78899997 -0.10289581 0.17586163 12696754
0.79056251 -0.10720234 0.1740468 9736586
0.78899974 -0.094868176 0.17543536 13947077
0.78900009 -0.086892225 0.17459582 13947077
0.79000002 -0.082967289 0.17590433 13947077
0.79083359 -0.074722476 0.17491755 14210249
0.79106688 -0.064560458 0.17496912 14275787
0.78900003 -0.051462196 0.17912951 14209481
0.79044849 -0.055386566 0.17467269 14209481
0.78781474 -0.044422098 0.17537664 13946309
0.79000002 -0.049678016 0.17288363 14143688
0.77672219 -0.032581825 0.17533007 12629934
0.78227276 -0.037372723 0.17443733 12893106
0.77320695 -0.02521861 0.17479323 12498604
0.7653439 -0.014485947 0.17537914 12893878
0.77050006 -0.019141071 0.17267439 12367275
0.76312888 -0.0051081497 0.17503685 13882571
0.76733333 0.001447155 0.17630351 13948364
0.77191681 0.0064274981 0.17419511 14014157
0.77513802 0.014647053 0.17491791 14014413
0.77900004 0.020312516 0.17230004 13948364
0.78531033 0.025306499 0.17518237 13750984
0.79203707 0.035284165 0.17467 13224125
0.79203564 0.065350816 0.17485262 12829110
0.79166669 0.075314753 0.17510304 12763061
0.79096687 0.085432895 0.17494772 12631988
0.79166669 0.094570071 0.17458858 11185314
0.78900003 -0.10207172 0.18245421 13025205
0.79070008 -0.10599542 0.18562493 10196878
0.7889998 -0.094828025 0.18370703 14276042
0.79000002 -0.095120527 0.18807514 14933715
0.79000014 -0.084816694 0.18490475 14539470
0.79043365 -0.074685484 0.18500501 14473677
0.79040015 -0.064506181 0.18499707 14210250
0.78900003 -0.054078866 0.18667167 14209480
0.79007697 -0.056227803 0.18307298 14078151
0.78717148 -0.044767682 0.18503155 13683137
0.77666676 -0.033432215 0.18472598 12630191
0.78166676 -0.037870284 0.18569718 12630447
0.76840001 -0.021697206 0.18668351 12301483
0.77216673 -0.025588186 0.18457186 12498862
0.75900006 -0.010415142 0.18831 13618627
0.76294112 -0.015204757 0.18481903 12762548
0.75900006 -0.0068614762 0.18830998 13750985
0.76087499 -0.0046507525 0.18432005 13882828
0.76481473 0.0034370716 0.18537098 13882827
0.77069998 0.0083692316 0.18363376 13882571
0.7743215 0.014692807 0.18505169 13882571
0.77880007 0.020307302 0.18592875 13882571
0.78573334 0.025954133 0.18488599 13750983
0.78900003 0.031655647 0.18836482 13356225
0.79244453 0.035852559 0.1847185 13158589
0.79199988 0.075347044 0.1853729 12894902
0.79163992 0.085506201 0.18528797 12895416
0.79214829 -0.10524388 0.19509207 10131086
0.78900009 -0.092769258 0.19776806 14933973
0.79000014 -0.095913142 0.19378193 14604751
0.78899997 -0.084577397 0.19773205 14671058
0.79000002 -0.084932283 0.19253355 14144712
0.78894109 -0.075142711 0.19715066 14670802
0.79000002 -0.075569674 0.19190608 14276043
0.78865612 -0.065056019 0.19532022 14539216
0.79000002 -0.066322654 0.19045298 14341837
0.78859991 -0.055128198 0.19472919 14275787
0.78668755 -0.044872399 0.19517742 13551808
0.77599996 -0.033242289 0.19505379 12564656
0.7815001 -0.038166475 0.19480531 12695986
0.76671427 -0.022574734 0.19522302 12169899
0.77186668 -0.027097594 0.1945131 12367021
0.75833333 -0.012379212 0.19514529 13355713
0.76116669 -0.017376367 0.19429094 12432814
0.75810027 -0.0050781458 0.19429538 13817035
0.75875008 0.00091208564 0.1960184 13816780
0.76317871 0.0058067921 0.19438283 13751243
0.76866674 0.011045761 0.19790538 13816780
0.77334607 0.015226174 0.19465312 13817035
0.77750003 0.020957272 0.19540302 13948364
0.78483337 0.026214354 0.19471942 13750984
0.78900003 0.031655643 0.19482954 13224639
0.79108703 0.036250416 0.19514266 13224125
0.79189289 0.065338567 0.19521163 13223611
0.7913335 0.075282894 0.19540438 12894902
0.79060024 0.085392363 0.19522367 12960953
0.78868747 0.095802076 0.19775231 9869712
0.79082346 0.094348423 0.19293676 10066833
0.7885384 0.10505109 0.19776799 10132626
0.79205 0.10538981 0.19316916 10198418
0.78900003 0.11107937 0.1994472 10330006
0.79221445 0.11524282 0.19528791 10330004
0.78876185 -0.093213543 0.20492588 14473936
0.79000002 -0.098789975 0.20524818 14143944
0.78811121 -0.084409446 0.20516579 14605522
0.78763348 -0.075343683 0.20555378 14605522
0.78750014 -0.065191001 0.20551868 14342093
0.78767866 -0.054997984 0.20523654 14276301
0.78533334 -0.045212585 0.20486858 13486785
0.77607697 -0.034063883 0.20540261 12697012
0.78020006 -0.039199051 0.20562461 12630963
0.76529413 -0.022941545 0.20483179 12630707
0.77183342 -0.027757734 0.20504458 12630963
0.75739288 -0.013688992 0.20500784 12960956
0.76050007 -0.018892651 0.20470464 12367792
0.75653344 -0.005066636 0.20452195 13751243
0.75857145 0.0015148818 0.20545481 13817293
0.76186365 0.0067360834 0.20474511 13883086
0.76737505 0.01147726 0.20610574 14014927
0.77280951 0.01576169 0.2047442 14014157
0.77766675 0.021189379 0.20477332 13817035
0.78540903 0.026920306 0.20497249 13685191
0.78900003 0.032348294 0.20568106 13356225
0.79083341 0.036975935 0.2048464 13158846
0.79236656 0.044776198 0.20493382 13289662
0.79236096 0.054975938 0.20493287 13289662
0.79100007 0.064860262 0.20509504 12961210
0.79020035 0.075175561 0.20529929 12961467
0.78900003 0.08891461 0.20314133 13224641
0.7900455 0.084828787 0.20551196 13027262
0.78836662 0.095300704 0.20482467 9804174
0.78788012 0.1053895 0.20469908 10067345
0.78900003 0.11187096 0.20366907 10133138
0.79100001 0.11633363 0.20570281 10198931
0.78841662 -0.092953414 0.21498777 14736851
0.79000002 -0.098687232 0.21449521 13880001
0.78692865 -0.08468543 0.21490972 14407886
0.78696007 -0.075278684 0.21551187 14078921
0.78723347 -0.065168336 0.21558784 14078664
0.78725928 -0.055104785 0.21518412 14210507
0.77814293 -0.042166855 0.21699862 12893621
0.78339148 -0.046237033 0.21461298 13618114
0.76674998 -0.03071628 0.21895006 12894391
0.77422851 -0.035331748 0.21492012 13025464
0.75900006 -0.021668414 0.21792388 12960697
0.76318514 -0.024902869 0.21461904 12960184
0.77066666 -0.02861668 0.2128527 13157306
0.75620592 -0.014547531 0.21505414 13092541
0.76000005 -0.019324733 0.21168737 12631219
0.75516671 -0.0050560753 0.21475893 13553863
0.75810003 0.0024653163 0.2155046 13948621
0.76092863 0.007881877 0.21436194 13948621
0.76558828 0.012586392 0.2155579 13816778
0.77235729 0.017041467 0.21473931 13750985
0.77608329 0.021145947 0.2152565 13685191
0.78386962 0.026828939 0.2149013 13750983
0.78862494 0.034718741 0.21589112 13422018
0.79000002 0.037860449 0.21202934 13158846
0.78900003 0.04227626 0.21930313 13224639
0.7904169 0.044819653 0.21445264 13290432
0.78900003 0.056283157 0.2197649 13290432
0.79046702 0.054845385 0.21462022 13355968
0.78899997 0.065958247 0.21765396 13027003
0.79006249 0.064065181 0.2132404 12961211
0.78899974 0.075061634 0.21607071 13093052
0.79000002 0.075156771 0.2107964 12961467
0.78900003 0.082911648 0.21791784 13027260
0.79000002 0.085975766 0.21384791 12566711
0.78900003 0.099073455 0.21052958 10133397
0.79120833 0.094567515 0.21498007 9804175
0.78900003 0.10369112 0.21052958 10001810
0.78820008 -0.093851738 0.22507769 14604750
0.79000002 -0.099347733 0.22400644 11381152
0.78609997 -0.084398441 0.2253979 14604494
0.78666657 -0.07545422 0.22504845 14341322
0.78786671 -0.065221041 0.22498251 14143943
0.7863794 -0.054849371 0.225317 14012357
0.77661121 -0.04378923 0.22540277 12893874
0.7821818 -0.04818932 0.22402267 13091254
0.76490903 -0.032641619 0.22550286 13025462
0.77226675 -0.038078871 0.22450325 13025460
0.75804543 -0.023632733 0.22517744 13026234
0.76025009 -0.027340297 0.22310244 12894135
0.75437844 -0.014891276 0.22496231 13223870
0.75323349 -0.005044451 0.22478892 13422020
0.7569117 0.0044196951 0.22494721 13751242
0.76000005 0.0091420468 0.22147281 13948621
0.75900006 0.010906851 0.22917716 13422277
0.76360869 0.013777922 0.22496688 13488070
0.7713334 0.018306902 0.22477119 13685192
0.77558833 0.022042798 0.22510356 13619399
0.78399998 0.02789559 0.22506411 13685191
0.78832 0.035321459 0.22511175 13224639
0.7889998 0.044431165 0.22545999 13027260
0.79000002 0.047723938 0.2206599 13553604
0.78899974 0.054743942 0.22530608 13224640
0.79000002 0.053272147 0.22004344 13290432
0.7889998 0.06490279 0.22530605 12895418
0.78899974 0.075061642 0.22530612 12960953
0.78894728 0.084242903 0.22577685 12961724
0.79000002 0.088333771 0.22304872 10856092
0.79179311 0.094665781 0.22501536 9804431
0.788077 -0.093340158 0.23469219 14407115
0.79000002 -0.099083535 0.23563126 9933448
0.78607994 -0.084396116 0.23551401 14407116
0.78671449 -0.075056888 0.23511173 13683135
0.78652787 -0.065112315 0.23472537 13946307
0.77900004 -0.05080995 0.23795155 12893619
0.78355557 -0.05498356 0.23482059 13156791
0.77564281 -0.044889349 0.23510848 12827569
0.78050005 -0.049080621 0.23110048 13090740
0.76422727 -0.034402177 0.23522568 12828083
0.77125007 -0.039020754 0.23468032 12959156
0.75684845 -0.025048407 0.23496906 13092284
0.76000005 -0.029999772 0.23303743 12960441
0.75230575 -0.014729399 0.23507935 12895676
0.75123322 -0.0050323014 0.23474357 12895678
0.75431585 0.0046666441 0.23482011 13422278
0.75866669 0.011494339 0.2361799 14146000
0.76390487 0.015838623 0.23448579 13882828
0.77456009 0.02310494 0.23532207 13685448
0.78299999 0.028417779 0.23425585 13553604
0.78793335 0.035304714 0.23514508 13159103
0.7889998 0.04458509 0.23454143 12961467
0.78872705 0.054863852 0.23496307 12829881
0.78846651 0.0648586 0.23530413 12500916
0.78813893 0.074979752 0.23520714 12632503
0.788818 0.084781699 0.23406801 12172210
0.79000002 0.088410832 0.237921 9474697
0.79107702 0.094849773 0.23494543 9935246
0.78838092 -0.093081452 0.24516778 14209994
0.79033333 -0.098729253 0.24511458 9473156
0.78692007 -0.084486678 0.24497692 14341580
0.78696007 -0.075278684 0.24498883 13815235
0.78593558 -0.06491702 0.24484782 13946307
0.77753341 -0.052172117 0.24532919 12893620
0.7820667 -0.056870472 0.2441978 13025205
0.76850003 -0.041129731 0.24913624 12630962
0.77371436 -0.045100663 0.24467836 12762035
0.75900006 -0.0320925 0.24659011 13224382
0.76308 -0.036059108 0.24469547 12763318
0.77000004 -0.039407428 0.24151146 12564656
0.75565708 -0.025285503 0.24484667 13158591
0.75206673 -0.014724003 0.24469042 12500918
0.75136 -0.0050333682 0.24446224 12369332
0.75262511 0.0048738848 0.24454111 12698042
0.75766665 0.012308064 0.24580047 13685449
0.7626667 0.017113294 0.24486166 14080207
0.76850003 0.020038728 0.24553809 14080207
0.77440751 0.02469983 0.24503954 14014157
0.78140002 0.029521456 0.24325454 13685447
0.78544831 0.035068911 0.24527481 13422018
0.78813338 0.044536278 0.24443032 13158846
0.78851509 0.054570936 0.24496804 12895674
0.78859985 0.06487035 0.24549982 12698039
0.78866661 0.075030476 0.24552107 12369332
0.78900003 0.082603805 0.24393064 13158848
0.79033339 0.087112442 0.24562854 10790303
0.78847373 -0.092814475 0.25468907 14342094
0.7906363 -0.098515272 0.25538787 9342085
0.78748 -0.084546894 0.25436914 14604494
0.78752005 -0.075331509 0.25438195 13814721
0.78673542 -0.065131031 0.25504827 13419963
0.77700001 -0.052387703 0.25496086 12827828
0.78236365 -0.057357118 0.2550467 13025207
0.76607692 -0.042106088 0.25572667 12630449
0.77266669 -0.046681669 0.25420398 12696242
0.75822228 -0.033677828 0.25546736 13355711
0.76092315 -0.037847646 0.2540088 13025977
0.75464869 -0.025496121 0.25507525 13092540
0.75308347 -0.014740918 0.25471681 12698296
0.75417852 -0.0052400432 0.25477433 12435123
0.75536674 0.0046674842 0.25460836 12236975
0.75782621 0.013900531 0.25512493 12632502
0.76109099 0.019036606 0.25426403 13750984
0.76618189 0.022425281 0.2556363 13882570
0.77331811 0.026833816 0.25448018 13817034
0.77766675 0.031200944 0.25574529 13882569
0.7833752 0.035790503 0.25494948 13487811
0.78724253 0.044988815 0.25546238 13158846
0.7876668 0.055070791 0.25509742 13027260
0.78808004 0.06482739 0.25456151 12829882
0.78849995 0.075014964 0.25469649 12764090
0.78900003 0.0825525 0.25588527 12895932
0.79025 0.086859144 0.25468415 10790813
0.79183328 0.094796546 0.25484437 9738126
0.78860861 -0.092855498 0.26468641 14209735
0.79041666 -0.098431528 0.2654933 9341825
0.78800005 -0.084601969 0.26468208 14012100
0.78800005 -0.075378366 0.26468214 13880514
0.78572738 -0.064967602 0.26500201 13090998
0.77592003 -0.053447966 0.26552552 12761777
0.78157151 -0.057774317 0.26317438 12893363
0.75849998 -0.040594533 0.26720172 12959928
0.76376188 -0.043947238 0.26483732 12301741
0.77149999 -0.047837827 0.26297531 12564656
0.74833339 -0.032459673 0.26858437 14803673
0.75496781 -0.03527949 0.26444 14211278
0.74823809 -0.025030704 0.26746488 14672087
0.75128579 -0.025386224 0.26252341 14277327
0.74881822 -0.015693177 0.26897129 14408915
0.75164521 -0.014342506 0.26413178 14145742
0.74900001 -0.0044331779 0.26999325 14079950
0.75306249 -0.004878581 0.26489502 14014412
0.74900001 0.0011193265 0.26999325 14014157
0.75397635 0.0046579936 0.26471859 14014156
0.75624329 0.01484412 0.26532575 13816778
0.76033336 0.019825781 0.26161814 12961724
0.76372737 0.024064796 0.26530012 13553861
0.77220005 0.028451439 0.26407248 13816776
0.77616668 0.032960773 0.26595199 13750983
0.78264296 0.037422027 0.26444969 13553604
0.78629035 0.045205563 0.26520523 13290432
0.78692001 0.055521097 0.26524031 12961724
0.78730005 0.064763099 0.26444551 12830138
0.787889 0.074956581 0.26464447 12698553
0.78885698 0.083886392 0.26536524 11711659
0.79000002 0.088410825 0.26442912 9474697
0.79080784 0.094531573 0.26491341 9672076
0.79199988 0.10501244 0.26509863 10001041
0.78900003 -0.091635823 0.27471504 14604492
0.79073691 -0.097368263 0.27578267 10590863
0.78800005 -0.084601976 0.27482805 14341835
0.78765392 -0.075204611 0.27491894 13683135
0.78399998 -0.06498909 0.27479321 12893362
0.77432144 -0.054073595 0.27497405 12630191
0.7570715 -0.041659325 0.275305 11972775
0.76357895 -0.046422094 0.27458379 12169897
0.74729997 -0.033349201 0.27567646 13882314
0.75200003 -0.037847541 0.27427378 13486529
0.74594444 -0.025079472 0.27500042 14408915
0.74644434 -0.014610282 0.27518389 14343122
0.74706662 -0.005004467 0.27541283 14211536
0.75000006 -0.0059022331 0.27035373 14277329
0.7475 0.0046177516 0.27557349 14079950
0.75000006 0.006388112 0.27035373 13948364
0.74800003 0.012149801 0.27628389 14079950
0.75311536 0.016795484 0.27438766 13882572
0.75816679 0.022432389 0.27566162 13290691
0.76320004 0.026784409 0.27457076 13290691
0.77000004 0.02909076 0.27035281 13685447
0.76850003 0.030833162 0.27792138 13685449
0.77440751 0.03483722 0.27518675 13685448
0.78050005 0.038623273 0.27129811 13487811
0.77900004 0.040372699 0.27716008 13750983
0.78517151 0.045425881 0.27494121 13356225
0.78663325 0.055500183 0.27527061 12961468
0.787 0.064534515 0.27488771 12698296
0.78803337 0.074970253 0.27484006 12764089
0.78893334 0.0836128 0.27441502 11185314
0.79009998 0.087743983 0.27667055 9409416
0.79106915 0.094832003 0.27513245 9607052
0.79108357 0.10489039 0.27497491 9804174
0.78863156 -0.092346728 0.28583324 13354683
0.7907334 -0.09773124 0.28454283 9932935
0.78750014 -0.084548689 0.28479141 14210249
0.78686213 -0.075397938 0.2847203 13551806
0.77900004 -0.061751872 0.28992566 12696240
0.78340626 -0.065145001 0.28491578 12762033
0.76840007 -0.050478619 0.28597963 12235689
0.77457154 -0.055386137 0.28516626 12498861
0.75604993 -0.042592339 0.28545088 12038824
0.76275009 -0.047669273 0.28536376 12038310
0.74619234 -0.034162167 0.28530544 13289149
0.75050008 -0.038409449 0.28370979 12302254
0.73900002 -0.021385778 0.28887868 13948362
0.74257892 -0.024968715 0.28450868 13948106
0.73887497 -0.015327848 0.28839734 14014157
0.74229413 -0.014325509 0.28382334 14211536
0.73900002 -0.0075456793 0.28887868 14079950
0.74278802 -0.0048181233 0.28481957 14145743
0.74360025 0.0044211047 0.28518662 14079950
0.74632359 0.014736921 0.28552023 13685449
0.75139999 0.019241689 0.28211397 13422277
0.74900001 0.021283684 0.28928089 13224898
0.75573921 0.023787603 0.28526187 13159105
0.76120007 0.02822431 0.28454539 13356483
0.76590914 0.031382781 0.28537533 13619655
0.77295005 0.036081761 0.28477687 13685448
0.77730006 0.041013353 0.28547007 13553606
0.78329635 0.046507988 0.28479823 13290434
0.78544009 0.05541639 0.28496617 12895676
0.78642845 0.064889744 0.28473359 12500918
0.78813893 0.074981898 0.28502432 12698297
0.78900003 0.081526354 0.28256503 13290434
0.79095453 0.085938945 0.2853699 9737869
0.79073346 0.10484203 0.28503847 9738639
0.79032016 0.11496662 0.28488749 9804432
0.78826094 -0.093537338 0.29545847 12039339
0.79022223 -0.099023484 0.29410157 9078914
0.78624135 -0.084287234 0.29522142 14276042
0.78536665 -0.075127937 0.29504967 13354170
0.77745456 -0.062623449 0.29596594 12564654
0.78268421 -0.067253552 0.29466864 12696240
0.76600003 -0.052408818 0.29616636 12169639
0.77333331 -0.057168763 0.29453692 12433068
0.74900001 -0.040086098 0.29980141 12039082
0.75477785 -0.043545559 0.2952387 11907237
0.76110011 -0.048930295 0.29413024 11840931
0.74606901 -0.034694716 0.29513326 12696755
0.73800004 -0.0222224 0.29530621 13618885
0.74166656 -0.02744594 0.29435796 13289406
0.73569059 -0.014402032 0.29446778 14014157
0.73594314 -0.0049299137 0.29456711 14014157
0.73694456 0.0040273876 0.29521018 13948364
0.741 0.007757422 0.29110488 13882571
0.74416661 0.014863569 0.29500827 13553607
0.74883336 0.021278949 0.29535234 13159105
0.75464708 0.024982804 0.29499272 13093312
0.76000005 0.028712958 0.29530853 13159105
0.76506674 0.032132957 0.2954838 13290690
0.77228582 0.036669709 0.29465953 13619654
0.77678573 0.041689474 0.29455563 13685190
0.78205562 0.0472464 0.29502955 13421505
0.78503323 0.055387843 0.29492822 13026491
0.78563321 0.064626858 0.29515165 12500661
0.78759378 0.074700139 0.29531178 12698298
0.78900003 0.081526354 0.2954945 12763836
0.79104185 0.086060882 0.2949461 9409161
0.78835714 -0.093671717 0.30507445 11709604
0.79000002 -0.099611931 0.305116 8881792
0.78540748 -0.08432743 0.30517897 13946820
0.78256673 -0.074860655 0.30499032 13156791
0.77656519 -0.06417165 0.30514169 12433068
0.78057146 -0.068924904 0.30382186 12630447
0.76405883 -0.053522795 0.30456084 12038311
0.77208334 -0.058493659 0.30451968 12301482
0.74850005 -0.040059339 0.3039819 11907496
0.75540745 -0.045482237 0.30491659 11709603
0.76000005 -0.049570683 0.30064604 11840931
0.74562502 -0.034744892 0.30419555 12368047
0.73661911 -0.022922091 0.30469704 12960442
0.74292314 -0.027585953 0.30526584 12565427
0.73248577 -0.014413225 0.30421343 13816778
0.73262078 -0.0049063917 0.30424511 13817035
0.73581827 0.0036114329 0.30376288 13751242
0.741 0.0076130601 0.30657434 13356484
0.74526662 0.015310615 0.30493775 13224643
0.74900001 0.021283684 0.30155483 13027008
0.75490916 0.024673475 0.30561593 12961471
0.76000005 0.028712958 0.30331481 12961727
0.76494122 0.032381278 0.30564928 13159106
0.77241677 0.037170202 0.30480334 13553863
0.77658832 0.041961879 0.30538788 13619399
0.78231579 0.04767935 0.30474958 13290433
0.78556001 0.055425506 0.30524072 12895675
0.7850799 0.064580046 0.3050541 12369589
0.78687871 0.074947052 0.30497041 12633018
0.78900003 0.082347266 0.30431932 9803922
0.79100001 0.087181114 0.30539262 9277832
0.78823805 -0.093064673 0.31524402 11249310
0.79027271 -0.098637551 0.31497657 8750462
0.78558344 -0.084499247 0.31459904 13683648
0.78290904 -0.074642912 0.31471026 12959413
0.7766667 -0.063589543 0.31289506 12235691
0.78150004 -0.067135014 0.31631917 12235691
0.76620001 -0.052488863 0.31278393 11775396
0.77335721 -0.056910969 0.31550118 11906983
0.7578333 -0.043812875 0.31220764 11446945
0.76200008 -0.045835722 0.3148177 11249566
0.77000004 -0.048420347 0.31902257 11315872
0.74900001 -0.033072412 0.31032196 12433840
0.75525004 -0.034896675 0.31423879 12302253
0.76133341 -0.035991568 0.31840339 12499632
0.74433345 -0.027635738 0.31070921 12368047
0.75400001 -0.029762933 0.31415865 12302254
0.73750007 0.0011038963 0.31073684 13882571
0.74633336 0.0072320313 0.31096432 13817035
0.75500005 0.0073183347 0.3163428 14080207
0.74900001 0.015146705 0.31119865 13290437
0.75581831 0.015689796 0.31588456 13159364
0.75676924 0.025052538 0.31285948 12698301
0.76100004 0.025952218 0.31783941 12040885
0.76536369 0.032340083 0.31433156 12895935
0.77225012 0.036860745 0.31528506 13290436
0.7764616 0.041781537 0.31470868 13553608
0.78286672 0.047540117 0.31519258 13093056
0.78707999 0.055534538 0.31504601 12698042
0.78748 0.064777285 0.31520712 12237747
0.78817236 0.074826099 0.3151004 12501175
0.79000002 0.079780273 0.31898654 13158594
0.78900003 0.081526354 0.31211805 9211526
0.7913751 0.085712761 0.31560472 9014662
0.78875005 -0.091837816 0.32286775 11315617
0.79090917 -0.096193962 0.32617056 9145476
0.78814995 -0.084619023 0.32377651 12367789
0.79000002 -0.084816694 0.32915828 8486775
0.78781813 -0.075444393 0.32473147 11249309
0.79000002 -0.079268485 0.32915828 8355189
0.78718168 -0.06550198 0.32547489 9934477
0.77600002 -0.053163648 0.32150707 11841959
0.78412503 -0.055278469 0.326711 10065293
0.77471435 -0.045088891 0.32460472 10394772
0.78050005 -0.04725229 0.32794139 8486775
0.76600003 -0.037409492 0.32095176 12433838
0.77675003 -0.033389408 0.32909274 8157808
0.76133329 0.0073765707 0.32077873 13816778
0.77333337 0.0068888441 0.32764518 7828845
0.76333332 0.015441635 0.32162139 10922401
0.77200001 0.018322725 0.32708025 8026994
0.76700002 0.023592295 0.32316634 7238253
0.77399999 0.028637895 0.3273252 7830131
0.77476937 0.034713987 0.32420951 8290684
0.78100008 0.038039353 0.3284564 7961974
0.77800006 0.040320873 0.32233709 7303276
0.78521055 0.045054778 0.32493764 10132117
0.78866667 0.053182919 0.32367975 11711403
0.79057139 0.056836654 0.32728225 9342600
0.78900003 0.065518469 0.32166123 11909038
0.79099995 0.06487263 0.32694554 10198165
0.78900003 0.073346503 0.32188112 12303797
0.79095656 0.075771354 0.32682151 11316645
0.79200011 -0.085032135 0.33462936 8816766
0.79169238 -0.074947685 0.33485657 8619386
0.79195005 -0.064631812 0.33460915 8553338
0.78860009 -0.055129301 0.33115944 8223603
0.78700006 -0.044883121 0.33343723 8223859
0.79185712 -0.045822766 0.33761296 8553595
0.77900004 -0.038044382 0.33004603 8026222
0.78716677 -0.035670672 0.33504412 8421751
0.77900004 -0.028926115 0.33004603 7960431
0.78666669 -0.024603283 0.33360207 7828846
0.78577781 0.0053644502 0.33476001 7763824
0.79125005 0.0030333332 0.33847779 7895925
0.77640003 0.014790148 0.33076206 8093044
0.78583336 0.015585094 0.33692828 8159607
0.77675003 0.022983475 0.33091113 7962228
0.7860834 0.02509439 0.33703852 8159607
0.78646159 0.035238743 0.33505204 8159353
0.79000002 0.039093386 0.33840528 8554111
0.78846157 0.043987956 0.33291933 8159353
0.7902 0.045948185 0.33701149 8422525
