# .PCD v0.7 - Point Cloud Data file format
VERSION 0.7
FIELDS x y z rgb
SIZE 4 4 4 4
TYPE F F F U
COUNT 1 1 1 1
WIDTH 893
HEIGHT 1
VIEWPOINT 0 0 0 1 0 0 0
POINTS 893
DATA ascii
0.79350007 -0.064758509 0.045469582 13158845
0.79305559 -0.024806252 0.04544108 13289918
0.79319996 -0.014599636 0.045450702 13158590
0.78900003 -0.0034385545 0.049835082 14408143
0.79251832 -0.0055153719 0.04489737 13882570
0.78900003 0.0021026353 0.049835082 13750213
0.79242444 0.0051477766 0.044985194 12895930
0.78900003 -0.10354938 0.058700986 15724771
0.79303849 -0.10563555 0.0537236 14079177
0.78878582 -0.094315425 0.057735026 14802899
0.792 -0.095361218 0.052669246 14276554
0.78866673 -0.084673554 0.057198379 14079176
0.79120004 -0.084946007 0.051824223 14276810
0.78866667 -0.075442128 0.057198379 14276555
0.79038459 -0.075607911 0.052198913 14935256
0.78852636 -0.065519549 0.056993805 14013384
0.7902 -0.064488873 0.052685451 14671828
0.78839999 -0.055114068 0.057179049 13881541
0.79100001 -0.055296138 0.051811583 14474192
0.78894985 -0.044624925 0.056850176 13749954
0.79053849 -0.046296515 0.051924109 14079433
0.78886944 -0.034592461 0.055687837 13552319
0.79000002 -0.037656888 0.05174765 13618112
0.78868943 -0.024829103 0.055480663 13618112
0.79000002 -0.020087549 0.05174765 13420735
0.78886342 -0.014267084 0.055869915 13355198
0.79000002 -0.016388742 0.05174765 13289149
0.78831995 -0.0052817184 0.05532714 14079949
0.78827584 0.0047106175 0.055451367 13882054
0.79000002 0.0095029166 0.05174765 12170666
0.78899997 0.014372411 0.057223331 12697010
0.79025 0.016135883 0.052842453 12565424
0.78900003 0.026576223 0.057685107 12894389
0.79050004 0.024144657 0.053208634 12894903
0.78880948 0.035516366 0.056066103 12434353
0.79000002 0.034469873 0.05174765 12500916
0.78849989 0.044305705 0.055843648 12435123
0.79000002 0.046491001 0.05174765 13488838
0.78894436 0.05391936 0.057013948 12895417
0.79118752 0.056286503 0.052286178 13883339
0.78900003 0.064210139 0.05837775 12829368
0.79222721 0.065421827 0.053236965 13883083
0.78900003 0.075193569 0.058806531 13092283
0.79288906 0.075052269 0.053854685 13553604
0.78900003 0.085220478 0.059070397 13552834
0.79255557 0.085190758 0.053558089 13027261
0.78900003 0.095379323 0.059070397 14079436
0.79218525 0.094905786 0.054150723 12829882
0.79221237 0.10489939 0.054750491 11448230
0.79284394 0.11498294 0.054475829 10790557
0.79178143 0.12479278 0.054869749 10856349
0.78900003 -0.11056822 0.065535121 15394780
0.79185724 -0.11538701 0.064669088 12302511
0.78812003 -0.10491037 0.064539053 15000021
0.78800005 -0.094747946 0.064529702 14670800
0.78800005 -0.084601969 0.064529702 14079176
0.78800005 -0.075378366 0.064529687 13947590
0.78800005 -0.065232389 0.064529695 13881541
0.78803998 -0.055089027 0.064533159 13683905
0.78869987 -0.044979315 0.064587809 13618112
0.7889998 -0.034838632 0.064611599 13815491
0.78843331 -0.024663577 0.064565584 13683648
0.78760725 -0.014298822 0.065088548 13354941
0.78640002 -0.0052689803 0.065316968 14080206
0.78697145 0.0047321455 0.065233447 14343122
0.78879982 0.01502911 0.064594842 13026489
0.78899986 0.025586724 0.063907936 12697523
0.79000002 0.02429815 0.066337384 12565937
0.7889998 0.035503697 0.064457662 12565938
0.79000002 0.031695768 0.068392284 12829109
0.78899986 0.044215679 0.063780412 12302767
0.79000002 0.04612112 0.0680224 12236974
0.7889998 0.054543175 0.063567594 12434353
0.79000002 0.055473823 0.068128087 12302767
0.7889998 0.065056704 0.064457677 12500146
0.79000002 0.061286233 0.068392284 12236974
0.78883308 0.075045429 0.064597711 12500146
0.7889998 0.085220471 0.064611599 12697525
0.7889998 0.094811 0.064185336 13487298
0.79000002 0.09827432 0.067467585 13619397
0.78900003 0.10184405 0.062764525 14079950
0.79057705 0.1054652 0.065027587 11251364
0.78900003 0.11785194 0.061533149 10658971
0.79104555 0.1146502 0.065203339 10659484
0.78900003 0.12268948 0.061709065 10724763
0.79072726 0.12570967 0.065512389 10725019
0.78900003 -0.11056822 0.074770436 15328986
0.79216677 -0.11565295 0.075070046 10854808
0.78813338 -0.10491229 0.074688315 15065814
0.7881667 -0.094767384 0.074692234 14868436
0.78859985 -0.084666245 0.074734174 14408141
0.78870356 -0.075308599 0.07423076 14079176
0.79000002 -0.075107321 0.07948871 14276555
0.78887987 -0.065785058 0.07317128 14144713
0.79000002 -0.063733496 0.078379057 14210762
0.78899992 -0.055387206 0.072230726 14012870
0.79000002 -0.05496202 0.077771418 14013383
0.78899986 -0.045393277 0.072527565 14078663
0.79000002 -0.044499688 0.078009181 14078920
0.78899974 -0.034574766 0.074506573 14144456
0.79000002 -0.038581591 0.078564003 14012870
0.78824997 -0.024658045 0.074698672 13486270
0.78603709 -0.01467467 0.074997604 13289404
0.7837202 -0.0052510891 0.075184882 14145999
0.78609681 0.005008861 0.075236611 14343379
0.78871411 0.014763937 0.074545793 13553347
0.79000002 0.018749937 0.077639304 13289919
0.78900003 0.020573268 0.070152782 12697523
0.79000038 0.025354952 0.074997306 12894903
0.78900003 0.034888007 0.070614547 12500144
0.7900002 0.035465706 0.075505383 12697525
0.79043359 0.044666547 0.074907787 12565939
0.79133344 0.054907262 0.07499475 12565939
0.78900003 0.068596907 0.070152782 12171181
0.79148287 0.064978339 0.075169064 12565939
0.78899997 0.076269336 0.071573608 12302767
0.79017401 0.074488923 0.076691605 12697525
0.7889998 0.085433602 0.074131057 12500403
0.79000002 0.083941437 0.079026356 12961210
0.78900003 0.091377355 0.070768468 13026746
0.79040754 0.094968408 0.075350046 13092797
0.78821433 -0.11230434 0.085502364 11578531
0.79081815 -0.11688263 0.084281594 10394257
0.78732008 -0.10480267 0.084746398 15197401
0.78826672 -0.094778441 0.08484979 15066071
0.78899992 -0.086325519 0.085160166 14802642
0.79000002 -0.081939846 0.084625952 14605007
0.79000026 -0.074644953 0.085036956 14407884
0.79060012 -0.064521007 0.085102431 14276555
0.79160011 -0.055337526 0.085210636 14342348
0.79139996 -0.045135673 0.085189663 14276299
0.78900003 -0.032529797 0.084467523 14012870
0.79007697 -0.037020467 0.085472353 14144456
0.78782159 -0.024974627 0.084604606 13223355
0.7836774 -0.014664553 0.085242398 13289405
0.78253335 -0.0052405801 0.085149482 14079949
0.78643334 0.0048624105 0.084653944 14343378
0.78888869 0.013799105 0.084609859 14014155
0.79000002 0.018221537 0.085829519 13553604
0.79003364 0.025223875 0.085040674 12961467
0.79020017 0.035404284 0.08505892 12697782
0.79164004 0.044735394 0.085214682 12697525
0.79293329 0.055018172 0.085353442 12960697
0.79291999 0.065223746 0.085351527 13158076
0.7906335 0.07521449 0.085105278 13026490
0.78900003 0.085836172 0.081850842 13027260
0.79000002 0.08524441 0.085457236 13224382
0.79072016 0.094664142 0.085114896 13421762
0.78764278 -0.1138062 0.094925329 10657173
0.79000002 -0.11810596 0.095208645 10262672
0.7859332 -0.1046174 0.09471909 15000021
0.78780568 -0.09472245 0.094944321 15197657
0.7889998 -0.085884735 0.094752304 14736849
0.79000002 -0.081580244 0.096133351 14539471
0.79040033 -0.074813716 0.095125556 14605264
0.79126936 -0.064718202 0.094649352 14605264
0.79227996 -0.055384688 0.094556712 14670800
0.79251605 -0.045050591 0.094763815 14407628
0.78900003 -0.031606268 0.096011661 13946307
0.79027277 -0.036072996 0.094905257 14078150
0.78793341 -0.025570491 0.094959177 13156791
0.78334379 -0.015570445 0.094977565 13092026
0.77900004 -0.007042279 0.0984421 13751240
0.78154558 -0.0049846573 0.094603561 14079948
0.78605556 0.0048599858 0.094730079 14277584
0.78867984 0.014288375 0.095233634 14145741
0.79000002 0.018749937 0.094283953 13685190
0.79052973 0.025023211 0.095000774 13158846
0.79163992 0.035469458 0.094481446 12960954
0.79280001 0.044800475 0.094618767 12763318
0.7920689 0.065281644 0.095295809 13026490
0.79030585 0.075184375 0.095244862 13158076
0.78900003 0.085220478 0.097858727 13158333
0.79000014 0.085328467 0.094515108 13355711
0.79107147 0.094508812 0.095006704 13619140
0.78850001 -0.1121909 0.10410439 10789270
0.79138464 -0.11646214 0.10656486 10065548
0.78784013 -0.10487197 0.10509478 14276555
0.78865206 -0.095668457 0.10439862 14473934
0.79014289 -0.09223064 0.1080421 14737106
0.78900003 -0.088403463 0.10155285 14671313
0.7909584 -0.084764101 0.10566417 14671057
0.79206449 -0.074689396 0.10547746 14539214
0.79255158 -0.064552993 0.10495442 14539214
0.79248554 -0.045331817 0.10491708 14341835
0.78878933 -0.033760846 0.10541271 13814978
0.79000002 -0.038273361 0.1047639 14012870
0.78696001 -0.025539456 0.10497317 12959670
0.77821445 -0.012111005 0.10562839 13289662
0.78268182 -0.017323794 0.10473523 12894391
0.77746665 -0.0052078865 0.10461544 14145742
0.77880007 0.00061699864 0.10716754 14343379
0.78286666 0.0053903256 0.10479302 14211792
0.78799993 0.015016117 0.10511303 14145742
0.78900003 0.020573268 0.10894111 13816778
0.79122591 0.025653694 0.10506578 13356225
0.79222214 0.054965422 0.10474834 13092283
0.79069245 0.064898379 0.10525806 13026490
0.79000026 0.075156786 0.10538034 13026490
0.78900003 0.084296949 0.10247639 13158333
0.79000002 0.085504614 0.10590877 13092796
0.79185194 0.095007382 0.1052158 13290690
0.79284006 -0.11482481 0.11504152 10000014
0.78899986 -0.10456526 0.11392818 14408399
0.79000002 -0.10700954 0.11684667 13093055
0.78900003 -0.099485844 0.1117117 14540240
0.7908572 -0.094758295 0.11495074 14934485
0.79235995 -0.08506915 0.11497103 14670800
0.79266655 -0.074897252 0.11501431 14605007
0.79251981 -0.064678639 0.11499164 14670800
0.79295999 -0.055432316 0.11505575 14670800
0.7917999 -0.045160446 0.1148877 14407628
0.78845829 -0.034124017 0.11509546 13683648
0.79000002 -0.038581591 0.11277799 14341835
0.77900004 -0.021631503 0.11850227 12827828
0.78468966 -0.025595106 0.11461293 12959156
0.77646673 -0.014414343 0.11575161 13157306
0.78120005 -0.019132923 0.11298347 12762036
0.77539992 -0.0051937299 0.1152299 14079949
0.77753854 0.0015136681 0.11547811 14211536
0.78284216 0.0071059833 0.11484273 14146000
0.78758615 0.014881227 0.11503959 14145743
0.78900003 0.021035034 0.11679111 13816776
0.79057699 0.025883751 0.11435445 13487811
0.79176003 0.035473708 0.11488087 13092796
0.79211992 0.044760641 0.11493398 12960953
0.79150003 0.054916564 0.11484478 13092282
0.7909202 0.065060437 0.11476123 13092283
0.79066688 0.075219966 0.11472513 13092027
0.79064006 0.085397318 0.11472144 12829626
0.79176003 0.094788276 0.11488284 12829882
0.7889998 -0.1041035 0.12464114 14473935
0.79000002 -0.10885895 0.12479911 10789016
0.78900003 -0.098049238 0.1272065 14934228
0.7904076 -0.09397386 0.12400627 14999765
0.79213327 -0.085043713 0.12513517 14802386
0.79252756 -0.074885279 0.12519783 14670800
0.79150009 -0.06459637 0.12503596 14605007
0.79179996 -0.055351675 0.12508282 14539214
0.78900003 -0.040379819 0.12925881 14012870
0.79088587 -0.045239355 0.12480558 14144456
0.78742856 -0.03470863 0.12498098 13486013
0.79000002 -0.038581591 0.1238744 13420733
0.77665007 -0.024023261 0.12550494 12762033
0.78230006 -0.027768116 0.12339696 12893619
0.77400017 -0.01529863 0.12481134 12960182
0.77416015 -0.0051851724 0.12501475 14079949
0.77705002 0.002710121 0.12520762 14146000
0.78199995 0.0079437047 0.12481494 14145998
0.78665382 0.015133335 0.12497728 14145741
0.78879988 0.022876885 0.12516317 13750983
0.79006249 0.028114909 0.1241151 13487554
0.79100019 0.035439376 0.12495706 13158333
0.7912001 0.044709325 0.12498829 12894904
0.79161114 0.054925635 0.1250523 12960697
0.79193324 0.065144084 0.12510452 12895162
0.79230297 0.074954629 0.12491129 12960956
0.79245448 0.085086949 0.12544195 13158848
0.79253328 0.09487918 0.12520103 12764091
0.7888332 -0.10377413 0.13487348 14539214
0.79000002 -0.10833055 0.13470665 10459024
0.78873068 -0.095403366 0.13517925 15197144
0.79000002 -0.09128961 0.13219672 15262937
0.78900003 -0.087018162 0.13803236 14933972
0.79057151 -0.084436156 0.13445036 14802386
0.79173338 -0.07480789 0.13526613 14539214
0.79199988 -0.064636476 0.13531254 14605007
0.79171997 -0.055347592 0.13526481 14407628
0.78887504 -0.041066073 0.13547069 14012357
0.7905001 -0.046514288 0.13480386 14078663
0.77775002 -0.030700427 0.13560697 13222586
0.78500003 -0.035404108 0.13492143 13485757
0.77430016 -0.025129804 0.13500589 12696241
0.77202779 -0.015114157 0.13460916 12894392
0.7724334 -0.005172451 0.13467941 13948620
0.77554554 0.0043826145 0.13530478 13949391
0.78050005 0.0093886415 0.13243361 14015183
0.77900004 0.011194251 0.13856246 14146770
0.78420699 0.015073389 0.13473758 14014670
0.78850001 0.0237922 0.13517535 13816776
0.79000002 0.029317964 0.13417824 13487554
0.79068017 0.035426069 0.13508639 13224126
0.79052025 0.044670515 0.1350584 13026747
0.7904669 0.054845784 0.13504928 12895161
0.79151994 0.065111384 0.13522932 12829625
0.79263991 0.074480608 0.13542084 12764089
0.78817391 -0.10387551 0.14460586 13749955
0.79014289 -0.10861444 0.14583014 9473155
0.78730571 -0.094663635 0.1446455 14933972
0.78866655 -0.085014381 0.14534171 14736593
0.79000002 -0.081734359 0.14113553 14670800
0.78900003 -0.078552455 0.14896081 14670802
0.79036403 -0.074313976 0.14484371 14539215
0.79106683 -0.064560004 0.14533547 14539214
0.79136682 -0.055322316 0.14539233 14210249
0.7885384 -0.041492853 0.14522925 13946307
0.79039145 -0.047048729 0.14501297 14078150
0.7772857 -0.030942621 0.14423548 12827828
0.78374994 -0.035530929 0.14527687 13288379
0.77416015 -0.025124747 0.14495157 12696242
0.76900005 -0.010552363 0.14668506 13684420
0.77119368 -0.015536284 0.14491928 12894134
0.76900005 -0.0073519317 0.14738517 13948363
0.77071446 -0.0042162333 0.144133 14079950
0.77425003 0.0047868094 0.1449663 14080207
0.77750009 0.012235519 0.14542249 14014414
0.78262508 0.016517436 0.14447322 14080206
0.78815621 0.024878854 0.14520687 13750983
0.79000002 0.029846365 0.14236845 13421248
0.79026693 0.035407379 0.14519182 13158333
0.79023367 0.044654321 0.14518653 13026746
0.78899992 0.057168204 0.14553605 12763318
0.79000002 0.052871447 0.1446802 12829111
0.78899986 0.064902782 0.1468059 12828854
0.79009998 0.064993739 0.14146152 13027003
0.78900003 0.073830254 0.14834514 12828855
0.79058343 0.075829715 0.1435516 12960953
0.79156685 0.085499272 0.14542659 12895419
0.78853858 -0.10283617 0.1546016 14275787
0.7910834 -0.10762078 0.15599118 9998986
0.78750014 -0.094687551 0.15482429 14736593
0.78875983 -0.084682532 0.15507033 14868179
0.7889998 -0.075627945 0.15496376 14670802
0.79000002 -0.070946157 0.15531428 14407629
0.78900003 -0.06931714 0.15604122 14605009
0.79000008 -0.064151622 0.15523385 14407630
0.79066682 -0.055426557 0.15536857 14078665
0.78861547 -0.041923039 0.15504207 13880516
0.79017651 -0.04740442 0.15534922 14012871
0.77750003 -0.031374425 0.15535992 12761777
0.78410524 -0.035980042 0.15463752 13090999
0.77400005 -0.025119366 0.15488616 12695985
0.76829416 -0.012236747 0.15527754 13354942
0.77125007 -0.017920133 0.15490019 12696242
0.76781827 -0.0062861349 0.15544511 13882571
0.77033335 -0.0018542694 0.1544525 14079950
0.77340001 0.0049106162 0.15489461 14014157
0.77694118 0.012878565 0.1552058 14079950
0.78208345 0.017647682 0.15467067 14079950
0.78754836 0.025001395 0.15500963 13750727
0.79084009 0.035434082 0.15547997 13158076
0.79180002 0.044743679 0.15566996 13158076
0.78900003 0.058438063 0.15142356 12697269
0.79132164 0.054639421 0.15584169 12829111
0.78900003 0.065364547 0.15280885 12763062
0.79046154 0.064595141 0.15754093 12763318
0.78899986 0.075153984 0.15364006 12762805
0.79000002 0.074971817 0.15827331 12631732
0.78900003 0.081526354 0.15327062 12829111
0.79021752 0.085674599 0.15551782 12829625
0.79273331 0.094905294 0.15492277 11382695
0.78900003 -0.10159677 0.16461685 15262682
0.79147375 -0.10643195 0.16506332 10722965
0.78838891 -0.094796255 0.16514899 15000279
0.78863323 -0.084668651 0.16519989 14473677
0.78899992 -0.076886475 0.16380972 14341835
0.79007143 -0.072141394 0.16563331 14144456
0.79088014 -0.064543858 0.16474637 14276042
0.79172003 -0.055346657 0.164921 14144201
0.78850001 -0.041277763 0.1651718 13683907
0.79085004 -0.046955846 0.16473895 14012872
0.77800006 -0.031622123 0.16479363 12761520
0.78431249 -0.03658567 0.16486764 13090742
0.77452004 -0.025136147 0.16496336 12629934
0.76806247 -0.012451526 0.16504821 13223613
0.77170599 -0.017711559 0.16500142 12630448
0.76665395 -0.0054098163 0.16549335 13882571
0.77000004 -0.0015531663 0.16219778 14145743
0.76900005 0.00024909366 0.16918811 13948364
0.77262503 0.0046635987 0.16489759 14014157
0.77623802 0.013926772 0.1650677 14079950
0.78100008 0.018275475 0.16477408 14079950
0.78659993 0.024507586 0.16477156 13816777
0.79000002 0.029846365 0.16548601 13356225
0.79164004 0.035470586 0.16490433 13092539
0.79193324 0.07533852 0.16496684 12434866
0.79100013 0.085436299 0.16477062 12632502
0.79223996 0.094845556 0.16502802 11317157
0.78900003 -0.1013329 0.17543538 14407115
0.79087514 -0.10620474 0.17492594 10394257
0.78866655 -0.09482912 0.17536205 13947077
0.78890896 -0.085118927 0.17499566 13947077
0.79000002 -0.081734359 0.17874007 14078663
0.79051459 -0.074559718 0.17497922 14210249
0.79163331 -0.064605698 0.17509371 14341323
0.79189992 -0.055359524 0.17515168 14143945
0.78821433 -0.042054236 0.17552355 13748930
0.79070008 -0.047501817 0.17451657 14012872
0.77693337 -0.032125395 0.17566067 12629935
0.78306669 -0.036778916 0.17448178 12761778
0.77403337 -0.025119048 0.17482425 12432813
0.76604551 -0.013042886 0.17538203 13091514
0.77142864 -0.018198175 0.17436433 12367277
0.76278782 -0.0050541898 0.17528214 13817035
0.76700002 0.0024686954 0.17645456 13948364
0.77200007 0.0067930995 0.17389064 13882828
0.77565515 0.014657875 0.17503309 14014157
0.785074 0.023952164 0.17496786 13816777
0.79000002 0.029846365 0.17473304 13421761
0.79156256 0.085148223 0.174962 12566453
0.79217857 0.094639502 0.17488335 11119521
0.78900003 -0.1013329 0.18097657 14208966
0.79154181 -0.10552279 0.18542118 10591123
0.7889998 -0.094105266 0.18386765 14275785
0.79000002 -0.09749832 0.18754674 14867666
0.78900003 -0.087377317 0.18405502 14538957
0.79000002 -0.083314046 0.18525152 14670287
0.79016691 -0.074660197 0.18494304 14539214
0.78900003 -0.063468114 0.18836482 14341835
0.79028577 -0.064672932 0.1842659 14210249
0.78900003 -0.054540638 0.18805696 14144456
0.79021055 -0.055435866 0.18388236 13947078
0.78726673 -0.044105411 0.18555288 13551808
0.79000002 -0.048938252 0.18268546 13749700
0.77595651 -0.033477433 0.18540615 12564656
0.78150004 -0.03786175 0.18413259 12696242
0.76850003 -0.021339934 0.18796778 12235692
0.77242857 -0.025326671 0.18505223 12433070
0.76358819 -0.014693105 0.18497522 12828086
0.77050006 -0.019591719 0.18124193 12564656
0.75900006 -0.0041962275 0.18831 13882828
0.76034796 -0.0051711295 0.1847737 13817035
0.76294118 0.0044571767 0.18481778 13882571
0.77050006 0.0092683509 0.18124193 13882571
0.76866674 0.011045761 0.18710862 13751242
0.77380776 0.015096666 0.18473531 13817035
0.77883339 0.020308172 0.18502504 13948363
0.78620678 0.026156418 0.18509433 13750983
0.78900003 0.031655647 0.18836482 13422018
0.79206896 0.065026149 0.18462002 12960697
0.79135495 0.075195573 0.18504113 12894648
0.79104018 0.085440613 0.18514799 12895161
0.79218525 0.095044941 0.18500331 10527128
0.79178572 -0.10520212 0.19518484 10065292
0.78899986 -0.093113475 0.19612248 14605264
0.79000002 -0.097184576 0.19345826 14670800
0.7887916 -0.084533043 0.19585435 14539214
0.79000002 -0.085433163 0.19076119 13946821
0.78871423 -0.075249039 0.19508742 14539215
0.79000002 -0.078343779 0.19045296 14209479
0.78863883 -0.065285437 0.1947387 14473423
0.78846651 -0.05511919 0.19469611 14210249
0.7858572 -0.045548718 0.19483908 13683135
0.77536672 -0.034605905 0.19509225 12630447
0.78033334 -0.039936271 0.19481939 12695984
0.76662499 -0.022636738 0.19558099 12169900
0.77161539 -0.027125023 0.19463539 12433070
0.759 -0.012191975 0.19719417 13355456
0.76129633 -0.016061107 0.19389342 12565171
0.75900012 -0.0050846436 0.19484618 13882828
0.76000005 -0.0050913426 0.19033727 13882571
0.76182854 0.0046364479 0.19481932 13750987
0.76728576 0.011283093 0.19498487 13816780
0.77276194 0.015932791 0.19473791 13882572
0.77709997 0.020991731 0.1955277 13882828
0.78470844 0.026362186 0.194916 13750984
0.78874987 0.034416091 0.19615236 13224382
0.79030001 0.037258588 0.19237468 13158589
0.78900003 0.041814491 0.1994472 13355453
0.79082161 0.044886749 0.19494559 13289917
0.7917273 0.054681789 0.19508012 13223867
0.79164284 0.065317832 0.19515124 13158075
0.7910558 0.075256929 0.19533713 12894904
0.79093349 0.085429214 0.19530657 12960954
0.79133344 0.094735526 0.19540448 10000784
0.79131442 0.10489475 0.19526719 10198418
0.79211998 0.11522923 0.19467288 10330004
0.79151845 -0.10557131 0.20523089 9604999
0.78856653 -0.094817705 0.20487551 14276299
0.78766674 -0.084566496 0.20556229 14736850
0.7876001 -0.075339794 0.20554477 14670800
0.7879678 -0.065378301 0.20489848 14407628
0.78792316 -0.054939494 0.20492102 14341836
0.78440011 -0.045659527 0.20507552 13749185
0.77580661 -0.034966826 0.20525007 12827570
0.78000003 -0.039919212 0.20265013 12630190
0.75900006 -0.021076137 0.20963199 13091770
0.76399994 -0.023479855 0.20517221 12762035
0.7712 -0.027915215 0.20415509 12695985
0.75751519 -0.014427135 0.20502804 12894905
0.76033336 -0.019333208 0.20287965 12169898
0.75800002 -0.0050762277 0.20491721 13751242
0.75900012 0.00075352087 0.20683981 13948621
0.76174986 0.0056655328 0.20459349 13948621
0.76740009 0.011747422 0.20566288 14145744
0.77257901 0.016055083 0.20462492 14014158
0.77663636 0.021243475 0.20491615 13817035
0.78399998 0.026913155 0.20528321 13619654
0.78875983 0.035340048 0.20492586 13224638
0.78900003 0.042276252 0.20529623 13224381
0.79000002 0.046775524 0.20496367 13224124
0.79087895 0.055128507 0.20496981 13224381
0.79088897 0.064851806 0.20506524 12895674
0.79033351 0.075188249 0.20533362 12961467
0.79024017 0.085355423 0.2053107 13027518
0.79144013 0.094748832 0.20562372 9803918
0.79256004 0.10475425 0.20487607 10132625
0.79204005 -0.105436 0.21504956 9407620
0.78829998 -0.093863197 0.21495602 14670543
0.79000002 -0.099611931 0.21449523 13025206
0.78608 -0.084397227 0.21526998 14341835
0.78596002 -0.075182371 0.21523762 14078921
0.78754306 -0.06506151 0.2148806 14144458
0.78717244 -0.055157892 0.2148058 14210251
0.77733338 -0.042209592 0.21590562 12893621
0.78285718 -0.046875458 0.21490912 13814979
0.76674998 -0.031165756 0.21760252 13025207
0.77367747 -0.035744809 0.2143245 13091000
0.75833327 -0.022241985 0.21595551 12828341
0.76285005 -0.026454788 0.21381345 13025207
0.7547223 -0.014778301 0.21463102 13092541
0.7555334 -0.0050579859 0.21486168 13619656
0.75841182 0.0022312605 0.21563053 14014414
0.76088238 0.0073726596 0.21402751 13948621
0.76593751 0.012579415 0.21535517 13817034
0.77207148 0.017035522 0.21466008 13685448
0.77613342 0.021693882 0.21545301 13553862
0.78389472 0.027302409 0.21515369 13816776
0.78853321 0.035330188 0.21501902 13356225
0.7889998 0.044229887 0.21578655 13290432
0.79000002 0.046953354 0.21125875 13356225
0.78890455 0.055132683 0.21736357 13290432
0.79000002 0.054258503 0.21227591 13290432
0.78870827 0.065032624 0.21614367 12961467
0.79000002 0.064368576 0.21110463 12895674
0.78873515 0.074819475 0.21534534 13093053
0.79000002 0.078855574 0.21079642 12764088
0.78900003 0.083003998 0.21736372 13158846
0.79022229 0.086278223 0.2137333 12435381
0.79270369 -0.1053182 0.22492041 9473159
0.78820002 -0.093851738 0.22507764 14604751
0.79000002 -0.099611931 0.22466695 11183775
0.78533322 -0.084316894 0.22517858 14604751
0.78569984 -0.07515718 0.22528359 14276044
0.78683352 -0.065134838 0.22468743 14012872
0.786138 -0.05483225 0.22524898 13946566
0.77647376 -0.043855976 0.22507577 12893621
0.78188896 -0.048355367 0.22469801 13025207
0.76422727 -0.032693341 0.22530307 12959671
0.77200007 -0.038065843 0.22442584 13091000
0.75769573 -0.023896165 0.2249268 13026490
0.76014292 -0.028225908 0.22443721 12894134
0.75272226 -0.014739279 0.22463709 13092798
0.75323349 -0.0050426563 0.22478963 13422020
0.75754839 0.0039675273 0.22478932 13816778
0.76020002 0.0091444524 0.22419961 13751242
0.76420838 0.013522673 0.22537756 13488070
0.77128571 0.01804826 0.22437215 13553862
0.77579165 0.023261547 0.22539203 13619655
0.78227276 0.028557152 0.22404905 13619397
0.78613323 0.035224218 0.22540361 13224896
0.7878077 0.044376712 0.22517714 13158589
0.78800005 0.054674551 0.22502057 13224382
0.78800005 0.064820528 0.22502053 12829880
0.78800005 0.074966505 0.22502057 12895930
0.78878933 0.084129371 0.22544013 13093053
0.79000002 0.088564947 0.22374225 10461334
0.78811109 -0.09349937 0.23475498 14406858
0.79000002 -0.0993037 0.23545511 9801606
0.78607994 -0.084396943 0.23551451 14407372
0.78640008 -0.075223804 0.23561053 13552064
0.78638881 -0.065100133 0.23468426 13815492
0.77875006 -0.051249556 0.23741898 12959156
0.7837308 -0.055285614 0.23480566 13222585
0.77514297 -0.044860166 0.23495759 12762035
0.78050005 -0.049080621 0.23110048 13025207
0.75900006 -0.031737134 0.23894973 13092026
0.76399994 -0.035063732 0.23527056 12827828
0.77083331 -0.039149646 0.23395228 12827828
0.75624329 -0.025120854 0.2349916 13092284
0.76000005 -0.029999774 0.23125826 12894391
0.75202781 -0.014722533 0.23499267 12895419
0.75240022 -0.0050389464 0.23510855 12895676
0.75613517 0.004604788 0.23495805 13356485
0.75900006 0.011262218 0.23770595 14343379
0.76334786 0.014939289 0.23499314 13948621
0.77000004 0.018275257 0.23159726 13488069
0.77470964 0.024011146 0.23526266 13685448
0.78060001 0.029491231 0.23386943 13685190
0.78366667 0.034910969 0.23519625 13290432
0.78660607 0.045232926 0.23511228 12895674
0.78762519 0.055224575 0.23482242 12829881
0.78726685 0.064760208 0.234946 12500916
0.78775012 0.074943729 0.23509108 12632502
0.78866661 0.083646819 0.23444192 12961468
0.79037499 0.08837603 0.23564452 9671820
0.78844994 -0.092957392 0.24499103 14210505
0.79058331 -0.098452352 0.24519157 9868170
0.78732002 -0.084528863 0.24510191 14276042
0.78740013 -0.075320967 0.24512708 13815491
0.78619999 -0.065087043 0.24475306 13815235
0.77775002 -0.051640049 0.24485075 12959412
0.78250003 -0.056650244 0.24508987 13025205
0.76600003 -0.041594975 0.24682577 12696241
0.7732501 -0.045763314 0.24418789 12762034
0.75819999 -0.033361278 0.24585536 13158076
0.76156259 -0.037417956 0.2436517 12696756
0.75423533 -0.025570985 0.24477041 13289662
0.75075001 -0.014697911 0.24513915 12500661
0.75020003 -0.0050252229 0.24495952 12368819
0.75331587 0.0046582492 0.24509084 12697785
0.75756252 0.012550803 0.24592105 13685193
0.76270002 0.01757 0.24475351 14080207
0.76800001 0.021103963 0.24555591 14080207
0.77403712 0.025827646 0.24465331 13948620
0.77875006 0.031244405 0.24698964 13750983
0.78308016 0.035748918 0.24473342 13290432
0.78666681 0.045375451 0.24489771 13093053
0.78740007 0.055553839 0.24512538 12829881
0.78688002 0.064728402 0.24496411 12632503
0.78730011 0.07490214 0.24509452 12369331
0.7887333 0.083222724 0.24443285 13158847
0.79061538 0.08767385 0.24541499 10000786
0.78843749 -0.092263542 0.25490838 14539471
0.79106671 -0.098142996 0.25490892 10197392
0.78800005 -0.084601976 0.25453609 14473421
0.78800005 -0.075378366 0.25453609 13683905
0.78711772 -0.064945281 0.25490132 13354427
0.77690911 -0.051502082 0.2550846 12893619
0.78343743 -0.056489285 0.25524008 12959412
0.76525003 -0.042752378 0.25524557 12630191
0.77269238 -0.047478206 0.25473848 12761777
0.75766677 -0.034344386 0.25493523 13289661
0.76000005 -0.038895641 0.25527713 12959668
0.75355566 -0.025338359 0.2548748 13092282
0.75166678 -0.014714613 0.25511834 12894903
0.75132012 -0.0050330996 0.25500217 12697525
0.75256264 0.004870791 0.25509176 12434353
0.75662965 0.014027007 0.25522587 12698040
0.76087505 0.019172713 0.25401235 13948619
0.76609093 0.022586573 0.255117 13882826
0.77310526 0.027211433 0.254675 13751241
0.77755558 0.031804364 0.25601527 13817034
0.78268421 0.036227826 0.25465178 13422020
0.7865833 0.045369856 0.25499803 13158847
0.78680015 0.055512417 0.25506839 13027260
0.78690022 0.064730279 0.25510129 12829882
0.78736377 0.074656844 0.2548326 12698295
0.78900003 0.082449883 0.25485912 13158847
0.79131258 0.087440655 0.25525871 10527127
0.78855002 -0.092415191 0.26459029 14209993
0.79078573 -0.097993538 0.26535293 10131086
0.78800005 -0.084601976 0.26468208 13881284
0.78800005 -0.075378366 0.26468208 13880771
0.78626478 -0.065093525 0.26501632 13156791
0.77600002 -0.052707382 0.26573491 12696239
0.78241664 -0.0572921 0.26402488 12893619
0.75866669 -0.040603455 0.26814887 12630708
0.76385003 -0.043479394 0.26497179 12432814
0.77155554 -0.047917042 0.26427418 12498604
0.74840003 -0.031995267 0.26837468 14606292
0.75496674 -0.035403773 0.26459613 14342606
0.74773067 -0.025139293 0.26657125 14672085
0.75062513 -0.025237961 0.26157212 14211275
0.74799997 -0.015016465 0.26737973 14343120
0.75061905 -0.01431554 0.26229161 14014154
0.74870002 -0.005716309 0.26883304 14211536
0.75088006 -0.0047493246 0.26370758 14079948
0.74900001 0.0011193265 0.26999325 14014157
0.7518335 0.0046463376 0.26485154 14145485
0.75573534 0.015030184 0.26528937 13817034
0.76033336 0.019825781 0.26161814 13027261
0.76428574 0.023853609 0.26552942 13422275
0.77216673 0.028119547 0.26418218 13816776
0.77658826 0.032978848 0.26581866 13816776
0.782143 0.037398119 0.26428154 13553604
0.78590316 0.04518377 0.26507494 13290433
0.78663999 0.055501815 0.26514685 12961468
0.78704 0.064741373 0.26528102 12829882
0.7876668 0.075187802 0.26498914 12764090
0.78884608 0.0826471 0.26532075 12764091
0.79081249 0.087269016 0.26504683 9672077
0.78890914 -0.091415524 0.27480882 14670797
0.79085714 -0.097253479 0.27547124 10591120
0.78788012 -0.084589556 0.27478573 14341835
0.78680021 -0.075264744 0.27532816 13617342
0.78462851 -0.065037847 0.27501339 12958899
0.77537513 -0.053907994 0.27526325 12629934
0.78033334 -0.058204014 0.27215338 12893361
0.75810003 -0.041283865 0.27593458 12104362
0.76423532 -0.045538634 0.275168 12104105
0.77000004 -0.048420351 0.2721554 12300971
0.74753326 -0.032658994 0.27576378 14013387
0.75266665 -0.037114162 0.27448395 13684165
0.74580574 -0.025075488 0.27495044 14474194
0.74591696 -0.014600245 0.27499047 14408658
0.74693316 -0.0050025596 0.2753655 14211536
0.74796969 0.0042756428 0.27609226 14079950
0.75000006 0.0072659934 0.27135703 14145743
0.74900001 0.01076315 0.27788365 14145743
0.75350004 0.015491254 0.27489322 13882828
0.7584545 0.022360001 0.27598226 13422278
0.76275003 0.026499948 0.27467769 13356484
0.77050006 0.029109649 0.27142966 13553861
0.76733333 0.030786356 0.27839589 13685449
0.77488893 0.034656677 0.27529016 13751240
0.78099996 0.038648017 0.27238512 13619397
0.78527284 0.045049965 0.27470854 13356225
0.78707999 0.055532388 0.27450687 12961468
0.7873078 0.064833894 0.27479789 12698038
0.78766674 0.07493604 0.27471131 12764089
0.78866661 0.084570132 0.27549997 10790300
0.79020005 0.088679954 0.27263486 9606283
0.78900003 0.090761669 0.27887091 9606283
0.79193336 0.095056824 0.2748962 9737869
0.78863627 -0.092811294 0.28579113 13091509
0.79053849 -0.098114766 0.28453863 9407102
0.78716677 -0.084514223 0.28467175 14210249
0.7854799 -0.075138696 0.28498185 13683135
0.78311777 -0.065103292 0.28503975 12761777
0.76850003 -0.050125092 0.28871584 12104103
0.77493548 -0.054650456 0.28495684 12498605
0.75700009 -0.041934319 0.28563324 12169640
0.76347059 -0.046647154 0.28487447 12038310
0.74700004 -0.033486415 0.2855092 13354942
0.75188893 -0.037895273 0.28394166 12827828
0.74461126 -0.025036015 0.28496984 13948107
0.74360526 -0.014373678 0.28490281 14145743
0.74342835 -0.0049800607 0.2853823 14145743
0.744892 0.0044859932 0.28523886 14014414
0.74745458 0.012810722 0.28542 13882573
0.75217652 0.017958537 0.2843934 13553864
0.7574091 0.023943674 0.28535327 13224642
0.76087505 0.02830122 0.28362504 13488071
0.76573336 0.03216064 0.28534269 13619656
0.77324998 0.036682855 0.2846159 13685448
0.7773 0.041013118 0.28546819 13487812
0.78453583 0.046567824 0.28424147 13355969
0.78656656 0.055496335 0.2844547 12961211
0.78693116 0.064668991 0.28474644 12566711
0.78758347 0.074928194 0.28482422 12764090
0.78873318 0.085192695 0.28523973 10132628
0.7889998 0.09468668 0.28441215 9672333
0.79000002 0.097349614 0.28477257 9672590
0.78900003 0.10184405 0.28441212 9804175
0.79075009 0.10577489 0.28504315 9804175
0.78824997 -0.094450466 0.29541081 11578787
0.79000002 -0.099611931 0.2921702 9210497
0.78639287 -0.08429908 0.295109 14275529
0.78513324 -0.07510601 0.29496428 13354170
0.778 -0.062280223 0.29622877 12564654
0.78215003 -0.066581666 0.2945756 12630447
0.76771438 -0.051871743 0.29599407 12038054
0.77373081 -0.056532562 0.29457948 12432812
0.75615007 -0.042596985 0.29540396 12038312
0.76228577 -0.048193257 0.29479221 11906468
0.74678254 -0.033890549 0.2951881 12762805
0.75149995 -0.038460627 0.2946429 12367534
0.73866671 -0.021088185 0.29854712 13947849
0.74308568 -0.025111791 0.29469854 13552835
0.73706079 -0.013932003 0.29616743 13882828
0.74100006 -0.016306471 0.29152721 14014157
0.73627275 -0.0050894511 0.29501268 13948621
0.74000001 -0.0023588301 0.29100192 14014414
0.73722231 0.00244599 0.29690564 13948621
0.74196005 0.0058012838 0.29350722 13948621
0.7460646 0.014275386 0.29541203 13553609
0.75085717 0.019327864 0.29401371 13356230
0.75635004 0.023621697 0.29494843 13158851
0.76077783 0.028149284 0.29561049 13093058
0.76554543 0.031857889 0.29436633 13224643
0.77235717 0.036544152 0.2954593 13685193
0.77616674 0.041287702 0.29462382 13619655
0.78286368 0.047158539 0.29477662 13421762
0.78599989 0.055457056 0.29529059 12895676
0.78716004 0.064752176 0.29480562 12435125
0.78813338 0.074979976 0.29517004 12698555
0.78899997 0.08323133 0.2947841 10461338
0.79008335 0.087495506 0.29667115 9474953
0.79104012 0.094701223 0.29440948 9606283
0.78900003 -0.1013329 0.30565333 9013117
0.79179168 -0.10625145 0.30495697 9408390
0.78785294 -0.094515748 0.30493748 11249307
0.78644454 -0.0845723 0.30517441 13946820
0.78434616 -0.07489036 0.30497983 13025206
0.77727789 -0.063740872 0.30515444 12367533
0.78136373 -0.06842535 0.3041079 12499119
0.76636368 -0.052760068 0.30446544 11907240
0.77258825 -0.05773538 0.30498597 12169898
0.75568181 -0.043184511 0.3046428 11775911
0.76116675 -0.048756797 0.30466977 11644324
0.74630439 -0.034400541 0.30434236 12433842
0.75000006 -0.03838386 0.30371323 12039340
0.7367059 -0.021879168 0.30481711 13092285
0.74261117 -0.026900306 0.3042978 12631221
0.7338571 -0.014440672 0.30478275 13816778
0.73341376 -0.0050309347 0.30457392 13882572
0.73655021 0.0034339547 0.30378264 13750985
0.74162507 0.0071860263 0.30574852 13487814
0.74564517 0.015113789 0.30470839 13224644
0.75485718 0.02372938 0.3054226 13027265
0.76088893 0.028153483 0.30456018 12961727
0.76625007 0.031642035 0.30490622 13093313
0.77276468 0.036540084 0.30505651 13488070
0.77715391 0.041678388 0.30561221 13553863
0.78242862 0.047095541 0.30472052 13290433
0.78600001 0.055457495 0.30541095 12895674
0.78696686 0.064736538 0.30486485 12369588
0.78821218 0.074736513 0.3049286 12632760
0.78900003 0.081834197 0.3041141 10330006
0.79047376 0.086452074 0.30549389 9277831
0.78900003 -0.1013329 0.31027099 8947324
0.78823996 -0.09400399 0.31469581 10986134
0.79000002 -0.098687232 0.31713712 8750201
0.78616005 -0.084405825 0.31467551 13683905
0.78466672 -0.075214684 0.31423137 12828341
0.77750003 -0.06322749 0.31280217 12170411
0.78200001 -0.066751622 0.31606361 12170154
0.76725 -0.051840879 0.31204531 11775910
0.77358824 -0.055894468 0.31518298 11841446
0.75740004 -0.042310629 0.3120296 11579046
0.76320004 -0.045492761 0.31495678 11381409
0.77200001 -0.048546113 0.31985119 11315874
0.7486667 -0.031889524 0.3119365 12434354
0.75466663 -0.035977732 0.31355429 11973803
0.76133329 -0.035993129 0.31840262 12236974
0.745125 -0.026797691 0.31176829 12434611
0.73600006 -0.001484585 0.31010485 14210512
0.7385 0.0011042202 0.31115818 14145231
0.74520004 0.0058279899 0.31188732 13619400
0.75750005 0.0073380675 0.31827813 13882572
0.74900001 0.017776839 0.31032196 12764093
0.75544453 0.014982712 0.31495973 13224387
0.76075006 0.017167298 0.31875202 13356744
0.75700003 0.02434903 0.313106 12698556
0.76200008 0.027003994 0.31622076 12764607
0.76550007 0.031610873 0.31357378 12698300
0.77262503 0.036202453 0.31502369 13290436
0.77715391 0.04181885 0.31428978 13553607
0.78325003 0.047700729 0.31500056 13093055
0.78683996 0.055516664 0.31494984 12632760
0.78755999 0.064785175 0.31523764 12172210
0.78864282 0.074567318 0.31481224 12566968
0.79000002 0.079410389 0.31769195 13027520
0.78900003 0.081526354 0.31027099 9606283
0.79092008 0.085430294 0.31509948 9145990
0.78877783 -0.091661453 0.32331514 10986393
0.79085004 -0.096388675 0.32590261 9145474
0.78823805 -0.084452286 0.32403237 12235946
0.79000002 -0.085741401 0.32915828 8420982
0.78811991 -0.075390212 0.32468766 11183517
0.79000002 -0.070021458 0.32915828 7961204
0.787238 -0.065039672 0.32511467 10263186
0.79000002 -0.06817206 0.32915828 7961204
0.7766 -0.05283758 0.32175705 11907497
0.78455555 -0.055663943 0.32648328 10262930
0.77410007 -0.044693284 0.32434845 10592409
0.78150004 -0.048226997 0.32836273 8421498
0.76500005 -0.037360657 0.32053277 12565939
0.77433342 -0.035097774 0.32776722 8552568
0.77649999 -0.02792497 0.32898682 7763822
0.76550007 0.0074079633 0.32343441 10723995
0.77275002 0.0056744474 0.327398 7828590
0.76500005 0.011889681 0.32232365 13027519
0.77360004 0.014740082 0.32775813 7763566
0.76566666 0.025344508 0.32081211 10659233
0.77380002 0.024532154 0.32712093 7830643
0.77566671 0.03521065 0.32379428 8883076
0.78250003 0.037805736 0.32878172 7962228
0.77800006 0.040320873 0.32051578 14277332
0.78468186 0.045014758 0.32477218 10132116
0.78852379 0.054228254 0.32423693 11250597
0.79028571 0.057608586 0.32822052 8092792
0.78900003 0.064902782 0.32227692 12040624
0.79099995 0.065067306 0.32772475 9606029
0.78900003 0.071829274 0.32181513 12106417
0.79092318 0.075743228 0.32634053 11448231
0.79173082 0.085445561 0.32489061 9014660
0.79196143 -0.07454484 0.33497041 8619389
0.79195839 -0.064711012 0.33538517 8553595
0.78866673 -0.055133805 0.33137217 8224118
0.79200011 -0.055693511 0.33697411 8619131
0.78677785 -0.044974916 0.33375204 8289911
0.79162496 -0.045843195 0.33840701 8750974
0.77900004 -0.039868034 0.33004603 8223603
0.78875005 -0.035750538 0.33602339 7961202
0.79116672 -0.034316268 0.33859682 8487803
0.77900004 -0.02527881 0.33004603 7763822
0.78500009 -0.021793433 0.33258811 7500396
0.78614289 0.0063055092 0.33517891 7895153
0.79125005 0.0030327484 0.3380143 7961203
0.77900004 0.016665209 0.33186969 8224630
0.78488898 0.014749044 0.33540356 8224629
0.7860834 0.025100047 0.33581066 8093556
0.77900004 0.031254437 0.33004603 8028019
0.78683347 0.035406422 0.33459601 8093812
0.79000002 0.037243981 0.33840528 8356984
0.78839999 0.044429608 0.3334142 8290935
0.79014289 0.04570714 0.33767387 8554107
0.78900003 0.050126277 0.3305887 8093814
0.79167855 0.054933343 0.335419 8356472
0.79134488 0.064967155 0.35488668 8949123
0.79100019 0.075401388 0.3553198 8949123
