# .PCD v0.7 - Point Cloud Data file format
VERSION 0.7
FIELDS x y z rgb
SIZE 4 4 4 4
TYPE F F F U
COUNT 1 1 1 1
WIDTH 1244
HEIGHT 1
VIEWPOINT 0 0 0 1 0 0 0
POINTS 1244
DATA ascii
0.72300005 -0.13263145 0.0084301354 15921384
0.71900004 -0.12264011 0.0083834957 16118761
0.72100002 -0.12804644 0.0084068161 15592419
0.71816665 -0.11493337 0.0083737802 16118761
0.71816665 -0.10484397 0.0083737802 16448239
0.71900004 -0.094867446 0.0083834967 16316140
0.71900004 -0.084768295 0.0083834967 15987177
0.71900004 -0.074669145 0.0083834967 15987175
0.71900004 -0.064569987 0.0083834967 15724003
0.71799999 -0.054395083 0.0083718365 15855589
0.7183333 -0.044328988 0.0083757229 15526624
0.71900004 -0.03427254 0.0083834967 15855332
0.71900004 -0.025576046 0.0083834957 16052455
0.72000003 -0.024207007 0.0083951559 16052455
0.71900004 -0.015757425 0.0083834967 15460318
0.71816665 -0.0056526917 0.0083737792 15330016
0.7183333 0.0044383206 0.0083757238 15067102
0.71866673 0.014531729 0.0083796093 15066588
0.71733332 0.024300365 0.0083640618 15132124
0.71200001 0.07023643 0.0099686813 14343122
0.73100001 -0.14008851 0.018791119 14538964
0.72525012 -0.13480718 0.014888569 14999256
0.71899992 -0.12207905 0.01315254 15526368
0.72072732 -0.12677114 0.014615529 15262940
0.71880549 -0.11503506 0.014271817 15460832
0.71825016 -0.10485771 0.014260848 15789796
0.71825022 -0.094768301 0.014258315 15789539
0.71816665 -0.084670067 0.014255585 15789539
0.71838892 -0.074605815 0.01425987 15855589
0.71794438 -0.06447617 0.014251109 15855334
0.71719432 -0.054334607 0.014237942 15789539
0.71783352 -0.044298649 0.014250917 15723745
0.71861118 -0.034253743 0.01426532 15460831
0.7185334 -0.0249989 0.014263062 15460318
0.7178334 -0.015733158 0.014248256 15065560
0.71691662 -0.0056423666 0.014230735 14802901
0.71699983 0.0044290451 0.014232616 14737108
0.71702766 0.014499594 0.014232551 14671059
0.71602756 0.024536058 0.014213024 14276558
0.71574992 0.034581993 0.014208221 14276559
0.71613872 0.044658963 0.014215227 14474195
0.71568412 0.054858308 0.014513598 14408402
0.71379995 0.06439507 0.015254033 14342609
0.71122241 0.074320599 0.015784452 14342610
0.71065694 0.084363773 0.016317315 14671577
0.71192598 0.094550386 0.016570611 14539991
0.71214283 0.10144961 0.018544156 14671830
0.73400003 -0.14066343 0.020586545 13552069
0.74766666 -0.14328249 0.025058052 12960187
0.7536667 -0.14502463 0.028193966 12499381
0.76000005 -0.14742523 0.024874119 11973550
0.72650003 -0.13193971 0.024142055 14933460
0.73274994 -0.13721156 0.025271565 14341068
0.71900004 -0.12095693 0.023532225 15460318
0.72100002 -0.12478868 0.024471201 14934231
0.71899992 -0.11506575 0.024373816 15328988
0.71852791 -0.1048993 0.024357647 15000537
0.71722203 -0.094633922 0.024312962 14934230
0.71666634 -0.084492937 0.024294265 14868437
0.71688855 -0.07444983 0.024302058 14539472
0.7162497 -0.064323321 0.024280174 14407885
0.71694416 -0.054314792 0.024304273 14276043
0.71727753 -0.044264749 0.024314333 14341836
0.71709991 -0.03502126 0.024308825 14407883
0.71627754 -0.025759656 0.02427985 14210506
0.71513891 -0.015673686 0.024241595 13750212
0.71500009 -0.0056267958 0.024238223 13815748
0.71491677 0.0044151694 0.0242351 13947333
0.71377784 0.014434033 0.024194382 13421246
0.71380574 0.024461728 0.024196334 13157818
0.71380579 0.034487136 0.024196727 13026233
0.7134738 0.04458034 0.024490934 13223612
0.71247482 0.054270022 0.025233854 13618371
0.71147233 0.064353667 0.025782477 13684421
0.70900005 0.078239404 0.029014168 13552838
0.71033347 0.074001446 0.025364207 13750216
0.7085588 0.085849285 0.025921568 13947852
0.71000004 0.081009157 0.022572812 13947340
0.7087 0.094383091 0.027342224 14145743
0.71021432 0.097018778 0.023837956 14605782
0.70900005 0.10147635 0.029844059 14540501
0.71092314 0.10226391 0.024930717 13290178
0.73600006 -0.1410467 0.035295069 13552068
0.74533337 -0.14283533 0.034273181 13420483
0.75900006 -0.14723125 0.030171886 12302002
0.72652006 -0.1337928 0.035750963 14605010
0.73166674 -0.13736296 0.031939417 14275532
0.71900004 -0.12129357 0.036324482 14473679
0.72088015 -0.12525825 0.034191076 14868181
0.71899992 -0.11506573 0.034472957 14934487
0.71811134 -0.10483798 0.034430545 14868694
0.71736103 -0.094651826 0.034395799 15000280
0.71711087 -0.084545344 0.034383055 14473934
0.71711093 -0.074473232 0.034383062 14144969
0.71691632 -0.064383186 0.034373444 14012870
0.7170831 -0.05432573 0.034381568 13881284
0.71699971 -0.044248268 0.034377079 14144455
0.71689975 -0.035011806 0.034372475 13947075
0.71624976 -0.025758106 0.034342192 13749696
0.71572202 -0.015685525 0.034316793 13289147
0.71552771 -0.0056312406 0.034306273 13420733
0.71533334 0.0044167354 0.034298472 13223354
0.71411121 0.014440058 0.034240458 13289147
0.71391696 0.024465406 0.034229677 12828596
0.71316659 0.034455523 0.034193292 12960183
0.71283317 0.044544742 0.034732971 13223356
0.71191669 0.054394349 0.035799798 13289405
0.71105582 0.064316861 0.035756785 13355199
0.70899999 0.078622431 0.03482341 13421249
0.71020693 0.073383957 0.036086526 13420992
0.70849997 0.085646749 0.035629198 13355714
0.70872718 0.095404938 0.035414137 13685191
0.71000004 0.098295234 0.038196769 13355712
0.70900005 0.10147635 0.034823406 11908522
0.71000004 0.10161947 0.036119111 11908523
0.72900003 -0.14141184 0.04433874 14275022
0.73300004 -0.14218776 0.042866059 14341585
0.72633338 -0.13551576 0.045027196 14276046
0.73000002 -0.13989687 0.04952639 13815493
0.71900004 -0.12151799 0.042888928 15065816
0.72072417 -0.12607834 0.044882394 14999767
0.71899992 -0.11493 0.04389343 14539729
0.72000003 -0.11606856 0.048847947 15065817
0.71894282 -0.1048383 0.044448689 14342093
0.72000003 -0.10932642 0.048847947 14539731
0.71861118 -0.094816387 0.044549633 14342350
0.71858335 -0.084718876 0.044547949 14276555
0.71861106 -0.074629016 0.044549644 14342347
0.71850008 -0.06452509 0.044542886 14144713
0.71850008 -0.054432958 0.044542886 14144455
0.71822238 -0.044324536 0.044525728 14013125
0.71769702 -0.034592792 0.044722173 13750209
0.71736366 -0.02541611 0.044243209 13683647
0.71691662 -0.01571258 0.044445146 13618112
0.71627754 -0.0056376322 0.044405121 13420990
0.71605527 0.0044225608 0.044389911 13223867
0.71552771 0.014469322 0.044358473 13092282
0.71463901 0.024488917 0.044302721 12894648
0.71329731 0.034573972 0.044376459 13025977
0.71237481 0.044256113 0.045243762 13157820
0.71169448 0.054377168 0.045785174 13092283
0.71061122 0.064275421 0.045715697 13026490
0.70900005 0.078792661 0.044228837 12763833
0.7099998 0.073577859 0.045863982 12763576
0.70899993 0.085073799 0.04312231 12961211
0.71015793 0.085367687 0.047918018 12632247
0.70900005 0.0927625 0.041877478 13487041
0.71107417 0.09523759 0.045840487 13223869
0.71162498 0.101227 0.045575585 12236717
0.73100001 -0.14179979 0.054728087 14209225
0.74400002 -0.14432155 0.059184797 13946311
0.727 -0.13410415 0.055251684 14078408
0.73000002 -0.13965274 0.05562976 14143945
0.72180003 -0.12481029 0.054885585 14341836
0.72049975 -0.11530581 0.054787096 13881799
0.72047234 -0.10518182 0.054785073 13289662
0.71900004 -0.093184255 0.050463296 13750213
0.72028136 -0.095247373 0.055296857 13355456
0.71900004 -0.084768303 0.050463293 13290430
0.7203334 -0.084925503 0.055617068 13487040
0.71899998 -0.07382755 0.05088409 13882567
0.72021425 -0.075036041 0.055848408 13158587
0.71899992 -0.064646505 0.051228382 13881284
0.72036004 -0.06465818 0.056293491 13355196
0.71899992 -0.054470837 0.051304892 14210249
0.72049999 -0.054584473 0.056473207 13552319
0.71899992 -0.044371691 0.051304895 13947590
0.72050005 -0.044464257 0.056473207 13223610
0.71899992 -0.033804983 0.052240003 13421504
0.72027791 -0.034802753 0.057204466 13026744
0.71899992 -0.024795437 0.053536948 13355711
0.71999997 -0.025772143 0.058479566 13092795
0.71888572 -0.015634961 0.05454303 12894903
0.72000003 -0.019993173 0.058961142 12697523
0.71847224 -0.0056548035 0.054633122 12829110
0.71755558 0.0044309814 0.054563448 12697523
0.71661079 0.014491003 0.054491308 12960438
0.71502787 0.024500614 0.054369524 12828853
0.71262151 0.034495745 0.054613635 12631475
0.71199995 0.044204865 0.055560965 12763317
0.71219993 0.054417066 0.054988783 12697781
0.71158838 0.064560361 0.055530217 12631732
0.71102786 0.074301809 0.055731867 12302768
0.71172732 0.084146827 0.05540771 12369074
0.71499991 0.095034748 0.054751866 12829111
0.7170769 0.10211698 0.054982804 12762805
0.73416668 -0.14241405 0.064413518 13880517
0.72754294 -0.13505222 0.06541799 14210507
0.72233331 -0.1249007 0.065071024 13947591
0.72224998 -0.11558546 0.065064341 13750469
0.72233343 -0.1054537 0.065072924 13487040
0.72197241 -0.095259964 0.065041736 13158076
0.72202784 -0.085124768 0.065046541 13224381
0.72238886 -0.075020827 0.065079823 13158075
0.72211111 -0.064849317 0.065053567 13026489
0.72291666 -0.054767005 0.065126404 12565938
0.7226944 -0.044600308 0.065105699 12763316
0.72161126 -0.034397975 0.065007217 12828853
0.72120589 -0.024495665 0.065169953 12434351
0.72078133 -0.015269259 0.064722434 12302765
0.71900004 -0.0027126882 0.060983248 12302510
0.72040635 -0.0060390388 0.065372586 12236974
0.71892852 0.0051013562 0.063862696 12171181
0.72000003 0.0021294462 0.06802088 12171438
0.71805561 0.01451911 0.064687364 12434353
0.71663857 0.024557132 0.064561069 12434096
0.71494114 0.0343429 0.064655699 12368816
0.71365619 0.044712778 0.064814284 12369074
0.713889 0.054546118 0.064313255 12434610
0.71328115 0.064308733 0.064779103 12565939
0.71236646 0.074441105 0.065007865 12500403
0.71281815 0.084731519 0.06459289 12829624
0.71719456 0.095099203 0.064608142 13026747
0.71899992 0.10269721 0.064665228 12434866
0.79174995 0.12745333 0.065531194 10987677
0.79339278 0.13458695 0.064772584 10987677
0.73259997 -0.14074114 0.076804742 13815238
0.7446 -0.14443794 0.074924372 13288124
0.72726327 -0.13283415 0.075146981 14276299
0.73019999 -0.13805488 0.074839577 14078664
0.72369999 -0.12513836 0.075359873 14342349
0.72371805 -0.11536229 0.075558133 13947591
0.72502869 -0.105142 0.075475864 13684418
0.72538233 -0.095459297 0.075337432 13224125
0.72555548 -0.085540727 0.075555719 13092539
0.72544456 -0.075338989 0.075542785 12894647
0.72522235 -0.065128058 0.075520612 12894646
0.72575003 -0.054982387 0.075574502 13157817
0.72513896 -0.044751674 0.075511634 12697267
0.72402787 -0.034513459 0.075397439 12565681
0.72372234 -0.02433254 0.075364284 12368560
0.72309983 -0.015002212 0.075298652 12105388
0.72216678 -0.0056845606 0.07520251 11908265
0.72122216 0.0044533024 0.075104304 11776680
0.71899992 0.015579648 0.072542809 11908779
0.72047377 0.013636688 0.077109925 11513251
0.71879315 0.024777193 0.073891558 11710887
0.71999997 0.024071474 0.078946754 10723479
0.71854544 0.034945011 0.074441805 11447971
0.72000003 0.032258347 0.079187542 11052700
0.71777779 0.044760682 0.0747464 11645350
0.71761101 0.054830186 0.074729241 11645350
0.7169444 0.064849205 0.074660607 11579302
0.71558321 0.074776836 0.074520215 11645094
0.71544433 0.084814556 0.074505255 11842730
0.71791673 0.095192641 0.074758627 12106157
0.71899992 0.1019895 0.074487031 12960951
0.72000003 0.1038935 0.079187542 11382687
0.7914167 0.12716781 0.075001113 10461332
0.79365504 0.13390622 0.075052641 10592918
0.73166668 -0.140788 0.085039824 13814982
0.74000001 -0.14354561 0.083119549 13288381
0.75200003 -0.14587338 0.082706988 11709095
0.72760004 -0.13262565 0.084565453 14342350
0.73030764 -0.13719434 0.084925264 14012873
0.724576 -0.12436391 0.085500002 14342351
0.72533345 -0.11476394 0.085075483 14473936
0.7275666 -0.10451239 0.085132532 13750212
0.72824144 -0.094527945 0.085328445 13618626
0.72796154 -0.085169129 0.085047476 13289403
0.72806662 -0.075610414 0.085190773 13157817
0.72803348 -0.06538143 0.085186876 13223867
0.7280333 -0.055155326 0.085186861 13355452
0.72788465 -0.045182589 0.084645353 13026231
0.73000002 -0.043341588 0.08883208 13157561
0.7275517 -0.034533937 0.085013978 12631217
0.73000002 -0.039069228 0.08883208 13223354
0.72619998 -0.024416314 0.084972546 12368558
0.7258001 -0.015056899 0.084925108 11776165
0.7257334 -0.0057115755 0.08491762 11512993
0.72509992 0.0044769542 0.084844314 11513249
0.72341943 0.014763971 0.08481285 11118492
0.72211117 0.024744686 0.085341595 10789526
0.72138888 0.034853034 0.085255057 10592404
0.71900004 0.044837486 0.080760755 11316641
0.72123325 0.04497657 0.086080544 10526867
0.71900004 0.054936636 0.080760755 10987420
0.72093338 0.055084042 0.086043723 10592660
0.71899992 0.065035783 0.082233541 10263184
0.72059995 0.065180518 0.087351784 10460819
0.71894437 0.075128801 0.082437709 10328977
0.72066683 0.075309098 0.087697096 10789528
0.71879995 0.085547492 0.082758129 11052958
0.72025013 0.084960304 0.087856904 11711144
0.71899998 0.092808455 0.082443938 11711402
0.7208333 0.096280299 0.085960835 11909038
0.72258824 0.10282477 0.085348435 11711401
0.79200006 0.12772498 0.086642772 9869194
0.79446155 0.13431455 0.085301265 10000780
0.76700002 -0.15057865 0.098721214 11315361
0.78575009 -0.15632915 0.096760638 11183776
0.73500001 -0.14085507 0.099764407 14209481
0.74383336 -0.14283699 0.094873227 13551809
0.75425005 -0.14630985 0.096198171 11973034
0.76200002 -0.14959705 0.099861518 11249568
0.72840011 -0.1317469 0.093924582 13947849
0.73165005 -0.13644709 0.095370471 13683908
0.72581249 -0.1248661 0.09480115 14079435
0.72647047 -0.11435807 0.0946052 14013642
0.72883338 -0.10469504 0.094661385 14079435
0.72900003 -0.098320134 0.092976898 13816006
0.73034376 -0.094172865 0.095072933 13816262
0.72900003 -0.085093975 0.090416998 13289147
0.73063338 -0.08442945 0.095752187 13223354
0.72900003 -0.078267559 0.090416998 13289147
0.73074996 -0.07485079 0.095217504 13026231
0.72900003 -0.062054843 0.090416998 13223867
0.73079425 -0.065830596 0.09516947 12894902
0.72900003 -0.055228438 0.090416998 12500144
0.7305333 -0.055344749 0.095739134 12763572
0.73075032 -0.045096397 0.094912 12960439
0.72900003 -0.031336002 0.090416998 12499631
0.73076487 -0.035034861 0.095165387 12828853
0.72876465 -0.023849711 0.092094421 12170923
0.73047364 -0.025144581 0.09717077 12500144
0.72873676 -0.014848358 0.09254007 11841701
0.73049986 -0.013871521 0.097657993 12039849
0.72862506 -0.0052007064 0.091970444 11775651
0.73066658 -0.0048948345 0.097466506 11908006
0.7282728 0.0048080166 0.092653565 11315357
0.73057139 0.0040234094 0.0979423 11644322
0.72761548 0.014778722 0.093392856 11249821
0.73033333 0.014103459 0.098561339 11841702
0.72700006 0.024912473 0.095279299 11052700
0.72596681 0.035074417 0.095143005 10789785
0.7255668 0.045247175 0.095090136 10921884
0.72469997 0.055370472 0.094977893 10921883
0.72296679 0.06539353 0.09474992 11315872
0.72266668 0.075518742 0.094709449 11710886
0.72270012 0.08527711 0.09488371 11908523
0.72466683 0.094863981 0.095161997 11908524
0.72740006 0.1025779 0.093285993 12435123
0.73066664 0.10286808 0.098321371 12106159
0.79087508 0.12754361 0.095314234 9934987
0.79373908 0.13517912 0.094488569 9934987
0.78850007 -0.16033725 0.10610265 11183775
0.77700001 -0.15390727 0.10273385 11183775
0.78471434 -0.15720637 0.10546155 11183775
0.73500007 -0.14085507 0.10405959 13683394
0.74733335 -0.14438678 0.10668001 13617604
0.75400007 -0.14626135 0.10454157 12433071
0.76300001 -0.14979337 0.10177876 11249568
0.72900003 -0.13117222 0.10492312 13684420
0.73112506 -0.13583542 0.10522756 13749444
0.72680545 -0.1248254 0.10460815 13750726
0.72638881 -0.11454645 0.10454801 14079691
0.72811109 -0.10458896 0.1047953 14342607
0.72900003 -0.098746784 0.10236321 14079178
0.7306971 -0.094310068 0.10540052 14473936
0.73122251 -0.084496737 0.10524393 14144713
0.73182881 -0.074409716 0.10545401 13552830
0.73193568 -0.065040894 0.10520893 13420732
0.73147255 -0.055416349 0.10528047 13223610
0.73138916 -0.045135982 0.10526858 13289403
0.73186135 -0.034885947 0.10533561 13355196
0.73138916 -0.024590172 0.10526857 12828853
0.73158354 -0.014319799 0.10529665 12236974
0.73210019 -0.0049042027 0.10537161 11973802
0.73241687 0.0045239078 0.10541837 11776423
0.73180574 0.014798111 0.10532981 11644580
0.72900003 0.027541772 0.10065661 11118493
0.73118204 0.024822993 0.10562856 11250079
0.72900003 0.03560935 0.10143235 11118237
0.73100007 0.035146233 0.10675225 11118493
0.728625 0.045864359 0.10209812 11382435
0.73059988 0.045219075 0.10737783 11250079
0.72825003 0.05598361 0.10260051 11513764
0.73057139 0.054720998 0.10783761 11644837
0.72723079 0.065712854 0.10336281 11908009
0.73033333 0.063495554 0.10881969 11908009
0.72651517 0.074603654 0.10480253 11579044
0.72579414 0.08434093 0.10471414 11645350
0.7277143 0.093042374 0.10372686 11645094
0.73085719 0.097517066 0.10665806 11250079
0.73133332 0.10181952 0.10354805 12303024
0.74400008 0.10822748 0.10185922 10921884
0.75200003 0.10939121 0.10735323 10000782
0.76500005 0.11307316 0.10920907 9474693
0.79250002 0.12576723 0.10562315 9803658
0.7958461 0.13426179 0.1045153 9869451
0.78900003 -0.16043893 0.11078817 11183775
0.78571427 -0.1566181 0.11321963 11117983
0.79100001 -0.15899387 0.11569719 11052189
0.73471433 -0.14129193 0.11496164 13551808
0.74600005 -0.14296311 0.11173588 13222334
0.75800002 -0.14703727 0.11175875 11182751
0.72900003 -0.13117222 0.11089622 14605009
0.7311483 -0.13491933 0.11534467 13881286
0.72856003 -0.12399901 0.1141052 13750213
0.73027271 -0.1279825 0.11761787 13881543
0.72786117 -0.11478 0.11498591 13750213
0.72858065 -0.10529096 0.11474016 13881799
0.73000002 -0.10093297 0.11754233 13947592
0.73077798 -0.094709508 0.11544384 14473936
0.73182881 -0.084688999 0.11548741 14605522
0.7328999 -0.074396439 0.11492136 14473936
0.73331994 -0.064997643 0.11498801 14013127
0.73309988 -0.055539317 0.11495409 13749698
0.73299998 -0.045235671 0.11493848 13618112
0.73336661 -0.034957308 0.11499545 13552832
0.73283333 -0.024638981 0.11491153 13486782
0.73306656 -0.01434865 0.11494841 12960696
0.73384005 -0.0049156249 0.1150694 12631731
0.73466676 0.0045381882 0.1151996 12236974
0.7343998 0.014850129 0.11515783 11842217
0.73343331 0.025133129 0.11500631 11644838
0.73266673 0.035397701 0.11488647 11315873
0.73203456 0.045502637 0.11466877 11513251
0.73188484 0.054865982 0.1148951 11579045
0.73150021 0.064655423 0.11530747 11974060
0.72880006 0.077352948 0.11154844 12039083
0.73090339 0.074197747 0.11604463 12236976
0.72845006 0.084819525 0.11286034 11711145
0.73056239 0.084680669 0.11818945 12303539
0.72900003 0.090686046 0.11174952 11711402
0.73183882 0.09535329 0.11541878 11514022
0.73581815 0.10281091 0.11491204 12040106
0.74250001 0.10627107 0.11729244 12172209
0.77700001 0.11666583 0.11637905 9803660
0.78300005 0.11756673 0.11452822 9803402
0.78820002 0.12019268 0.11621001 9540487
0.79378945 0.12574358 0.11527408 9803658
0.79479998 -0.15678413 0.12388215 11248543
0.73600006 -0.14104672 0.12057602 14012102
0.74383336 -0.14254828 0.12534355 13420479
0.75600004 -0.14576791 0.12916197 12169646
0.73354167 -0.13521311 0.12468217 13552578
0.7311002 -0.12556137 0.1249089 13749956
0.72900003 -0.11435001 0.12137964 13091770
0.73047829 -0.11537904 0.12576912 13552321
0.72900003 -0.10762111 0.12181848 13157563
0.73039979 -0.10433958 0.12533647 13289149
0.73096693 -0.094734959 0.12488519 13684164
0.73190343 -0.08443702 0.12487913 14342607
0.73333317 -0.074439362 0.124431 14408400
0.73396659 -0.065054812 0.12453867 14539472
0.73463899 -0.055654943 0.12465394 14013126
0.73483336 -0.045349911 0.12468669 13618369
0.73402762 -0.034989025 0.12454903 13684419
0.73399979 -0.024677696 0.12454416 13683906
0.73399979 -0.014367855 0.12454416 13487040
0.7343666 -0.0049185292 0.12460567 13224126
0.73538899 0.0045432085 0.12477875 12895675
0.73552787 0.014873973 0.12480371 12500660
0.73538899 0.025200415 0.12478214 12171181
0.73486108 0.035504237 0.12469338 11842217
0.73453313 0.044946227 0.12463811 11776424
0.73413897 0.054373965 0.12457093 11710632
0.73359364 0.064423069 0.12501359 11842218
0.73210013 0.074788891 0.12507944 12302769
0.73160022 0.085015319 0.12499457 12434612
0.73340744 0.09486194 0.12492169 12172209
0.73758334 0.10139588 0.12457889 12106157
0.74293333 0.10622166 0.12565337 11974827
0.75450003 0.11152117 0.12625332 9342853
0.76050007 0.11418837 0.1272597 9342853
0.77500004 0.1199941 0.12877953 9671817
0.778 0.1204586 0.12654489 9737610
0.78705555 0.12534425 0.12627539 9737608
0.79100001 0.12673017 0.12180771 9737865
0.78892314 0.13451006 0.12739915 9803401
0.79127783 0.13558276 0.12273375 9737865
0.79160017 0.14480428 0.12504779 9737865
0.79533333 0.15459287 0.12511967 9803401
0.76749998 -0.15067682 0.13426895 10722970
0.77499998 -0.15396354 0.1360334 10920349
0.78540003 -0.15750025 0.13601795 10854556
0.79350007 -0.15856759 0.13185127 10985885
0.74483341 -0.14099586 0.13510163 13157307
0.75490916 -0.14547807 0.13475727 12827831
0.73506892 -0.13410898 0.1351999 13552321
0.73296964 -0.1248665 0.13474569 13486785
0.73220593 -0.11521352 0.13432562 13486527
0.73152792 -0.10508355 0.13440157 13223611
0.7318058 -0.094842747 0.13445209 13223612
0.73255563 -0.084650241 0.13458991 13157820
0.73374981 -0.074482225 0.13480885 13684420
0.73406661 -0.065063514 0.13486654 14013385
0.73561126 -0.055727467 0.13515081 13947592
0.73608333 -0.045427222 0.13523862 13750213
0.73469436 -0.035022236 0.1349833 13552834
0.73411107 -0.024681691 0.13487504 13618627
0.73399979 -0.014367852 0.13485397 13289662
0.73389989 -0.0049160267 0.13483539 13026490
0.73483336 0.0045403629 0.13500728 13223869
0.73586112 0.014881558 0.13519651 13223869
0.73633331 0.025234597 0.1352827 12763318
0.73780566 0.035647079 0.13555421 12500147
0.73768961 0.045198608 0.13538456 12500147
0.73677778 0.054569002 0.1353664 12105389
0.7349723 0.064756997 0.13503288 11579045
0.73266667 0.074845381 0.13460934 11908011
0.73200023 0.08506155 0.13448651 12368818
0.73346657 0.094678611 0.13475506 12369331
0.73712504 0.10183691 0.13585815 12566709
0.74300009 0.10647932 0.13362993 11579812
0.75424999 0.11148422 0.13327989 9277314
0.7615 0.11433852 0.13634163 9606279
0.77399999 0.11983927 0.13223726 9671815
0.78640008 0.12636712 0.13481592 9671815
0.78872734 0.13269496 0.13391446 9606279
0.79035717 0.13717411 0.13569386 9737865
0.7924 0.14495125 0.13538295 9737865
0.7948572 0.15490344 0.13520399 9737865
0.78800005 -0.1602356 0.14477317 10788763
0.76500005 -0.15018602 0.14323576 10394007
0.77444452 -0.15446001 0.14621207 10788764
0.78066665 -0.15691684 0.14251323 10854556
0.74557149 -0.14138608 0.14608265 13420479
0.7548182 -0.14562155 0.14437906 13223102
0.73680776 -0.13417314 0.14505655 13552321
0.73513877 -0.12453306 0.14539126 13618114
0.73406667 -0.1149006 0.14517799 13749699
0.73280549 -0.10526671 0.14492859 14078921
0.73283327 -0.094976567 0.14493394 14539472
0.73311096 -0.084715217 0.14498743 14605521
0.73355538 -0.074463233 0.1450742 14079178
0.73396653 -0.065054573 0.14515662 13684420
0.73544437 -0.055713672 0.14544739 13684420
0.73697227 -0.045481365 0.14574909 13881543
0.73594451 -0.035080548 0.14554866 13684164
0.7353335 -0.024723571 0.145429 13355199
0.73438895 -0.014376182 0.14524215 13158333
0.73423326 -0.0049187276 0.14521113 13026490
0.73538899 0.0045439242 0.14543936 12828855
0.73600006 0.014883814 0.14555936 12829111
0.73611116 0.025226071 0.14558083 13026490
0.73716694 0.035616502 0.14578772 13092283
0.73716146 0.04505093 0.14559065 13355198
0.73661113 0.054557055 0.14567795 13223869
0.73525017 0.064781867 0.14541142 12434353
0.73338872 0.074920073 0.14504433 11974317
0.73311108 0.085191771 0.14499015 12303539
0.73481482 0.094662458 0.14485009 12566968
0.73800004 0.10087649 0.14293148 12369589
0.74244452 0.10298049 0.14635345 11974574
0.75900006 0.11218631 0.14033552 9343107
0.78866673 0.12426464 0.14335877 9606279
0.79130775 0.12679483 0.14545602 9606279
0.79253578 0.13510095 0.14488235 9672072
0.79487997 0.14540501 0.14511107 9672072
0.78825009 -0.16167113 0.15543318 10722970
0.79380959 -0.16646345 0.15473342 10591384
0.7730909 -0.15457408 0.15511222 10657178
0.78360003 -0.15934087 0.15588531 10722970
0.74500006 -0.14102742 0.15518756 13551811
0.75400001 -0.14538348 0.1552925 13354434
0.76200008 -0.14959705 0.15426716 11380644
0.73800015 -0.13401735 0.15430512 14012616
0.74160004 -0.13830075 0.15760553 14143947
0.73550004 -0.12439268 0.15553766 14275788
0.73399991 -0.11489017 0.1554725 14867668
0.73266667 -0.10524751 0.1551901 14933717
0.73208356 -0.094880186 0.15506725 14933974
0.73188913 -0.084574759 0.1550258 15000023
0.73211128 -0.074316174 0.15507206 14802645
0.73256671 -0.064930074 0.15516838 14671058
0.7336387 -0.055578213 0.15539581 14342350
0.73508579 -0.045485783 0.15557997 14013385
0.73534298 -0.034929249 0.15563385 13684420
0.73527789 -0.024719879 0.15574348 13355455
0.73570979 -0.014485336 0.15514192 12894904
0.73515385 -0.0049252557 0.15505657 12434866
0.736 0.0045471261 0.15503645 12368817
0.73620009 0.014887234 0.15507826 12565426
0.73600006 0.025221745 0.15503576 12697526
0.7360667 0.035562593 0.15505017 13026491
0.73521429 0.045171645 0.15542297 13421505
0.73527795 0.054459851 0.15574329 13553091
0.73577785 0.064830668 0.15584955 13290176
0.73525006 0.075110614 0.15573947 12895162
0.73558635 0.085034713 0.15495048 12500662
0.73787498 0.093086265 0.15478449 12698555
0.74171436 0.097850166 0.15624051 12501174
0.74545461 0.10257077 0.15480638 12303794
0.75316674 0.10691947 0.15717979 11514022
0.76099998 0.11070041 0.1561451 9342595
0.77314281 0.11479644 0.15639926 9211266
0.78100002 0.11726642 0.15720154 9408900
0.78860009 0.12025368 0.15503904 9606022
0.79371434 0.12563868 0.15489295 9606279
0.79269224 -0.17432483 0.16490701 10460052
0.7881667 -0.16211458 0.16510294 10591384
0.79093331 -0.1663873 0.16475399 10525847
0.76500005 -0.15018602 0.16830806 10459028
0.7731111 -0.15459648 0.16506487 10722713
0.78220004 -0.1590562 0.16476861 10591384
0.74700004 -0.141406 0.16435067 14077387
0.75550002 -0.1454494 0.1648912 13024956
0.76066667 -0.14814918 0.16556928 11182752
0.73746151 -0.13203189 0.16450426 15064791
0.74273336 -0.13712397 0.16572818 14471888
0.73442417 -0.12480462 0.16501696 15525598
0.73266667 -0.11514862 0.16571426 15394012
0.73161143 -0.10509577 0.16524224 15197146
0.73097253 -0.094736561 0.16509858 15065560
0.73075032 -0.084442727 0.1650482 14802388
0.73109406 -0.074747898 0.1649127 14802388
0.73185319 -0.065471448 0.16549973 14736595
0.73333329 -0.05578842 0.16524263 14605266
0.73561293 -0.045256235 0.16512001 14341836
0.73564529 -0.03520593 0.16512817 13815749
0.73546678 -0.024725763 0.16525498 13355455
0.73622864 -0.014337104 0.1646876 12829111
0.7364139 -0.0049330131 0.16475514 12763575
0.73736119 0.0045557483 0.16481853 12697526
0.73783374 0.014920369 0.16492289 12236974
0.73741698 0.025271304 0.16483139 11842217
0.73769462 0.035640407 0.164893 12105131
0.73633337 0.044863515 0.1650679 12565939
0.73499995 0.054437794 0.16514897 12960955
0.73439986 0.064709522 0.16501279 13355970
0.73490012 0.075076647 0.16512634 13487813
0.73620695 0.084808975 0.16470672 13158849
0.73841178 0.091755919 0.16510193 12829884
0.74161118 0.09717606 0.16547559 12238003
0.74561113 0.10322812 0.1649137 12369330
0.75466675 0.10801244 0.16514738 12369330
0.76428568 0.11220441 0.16329432 9211010
0.7737 0.11653529 0.16533084 9474693
0.78299999 0.11939975 0.16126548 9540229
0.78676933 0.12323572 0.16601054 9540486
0.79336363 0.12739745 0.16356644 9606279
0.78775007 -0.16064653 0.17561689 10591639
0.79172224 -0.16583435 0.17470396 10525845
0.7665 -0.15048049 0.17133024 10591639
0.77425003 -0.15381883 0.17487089 10591382
0.78375006 -0.15845603 0.17517811 10657175
0.75500005 -0.14372741 0.17542885 12762039
0.7622 -0.14785199 0.17483494 10854555
0.73594123 -0.132323 0.17508869 13683653
0.74423087 -0.13807024 0.17486134 12893881
0.73265523 -0.1249713 0.17491183 14275790
0.73155576 -0.11536401 0.17550634 14868183
0.72900003 -0.10088003 0.17788035 14802646
0.73078144 -0.10545782 0.17494655 15131355
0.72857141 -0.094242811 0.1753379 14868438
0.73000002 -0.096888475 0.17143099 15065560
0.72806448 -0.085423611 0.1750237 14736595
0.73000002 -0.080653511 0.17143101 14473423
0.72900003 -0.078267567 0.17745371 14539216
0.73045826 -0.074433282 0.17445908 14407631
0.73130584 -0.065673821 0.17544624 14473680
0.73276919 -0.055314466 0.1753335 14407888
0.73435134 -0.045433111 0.17461786 14276302
0.73577791 -0.035071377 0.17479655 13815750
0.7365557 -0.024761803 0.17498332 13420992
0.7377224 -0.014439936 0.17526037 13223613
0.73793358 -0.0049432809 0.17530987 13026234
0.738778 0.0045638806 0.1755109 12894904
0.73883355 0.01494059 0.17552413 12763319
0.7381947 0.025297113 0.17537138 12039596
0.73852962 0.035426855 0.17555134 11842216
0.73771894 0.044815376 0.17514971 11776423
0.73516679 0.054448623 0.17465264 12105389
0.73427761 0.064699203 0.17444237 12368561
0.73513907 0.075101011 0.17464627 12829625
0.73600006 0.085527033 0.17485011 12829881
0.73847061 0.093492135 0.17518222 12895675
0.74209094 0.098475032 0.17495418 12303796
0.74523526 0.10307298 0.17504241 12698553
0.75283337 0.10775004 0.17532347 12764089
0.75900006 0.11040948 0.17764901 10790298
0.76300001 0.11277754 0.17769212 9211521
0.77371436 0.11720955 0.17410471 9606279
0.78618187 0.12491121 0.17506073 9540486
0.79025 0.12929288 0.17293803 9540486
0.79430431 0.13471253 0.17507483 9606279
0.78866673 -0.16037114 0.18274719 10460052
0.79495454 -0.16588435 0.18504955 10460052
0.77512503 -0.15285707 0.18437108 10591638
0.78550005 -0.15758403 0.18630177 10525845
0.75537503 -0.14365768 0.18475384 13354943
0.76416665 -0.14764042 0.18451691 11380897
0.73638892 -0.13260046 0.1849038 13288892
0.74309999 -0.13806149 0.18488415 13157307
0.73349994 -0.12529907 0.18486689 13552579
0.73165649 -0.11516634 0.18527284 14078922
0.7288 -0.10179111 0.18559392 14539729
0.73061901 -0.10703022 0.18517764 14210507
0.72736675 -0.095121317 0.18471745 14408144
0.72694427 -0.085704796 0.18461111 14605522
0.72828579 -0.075753346 0.18507187 14539730
0.73000002 -0.071539149 0.181115 14210766
0.72900003 -0.068759345 0.18769333 14605523
0.73055178 -0.064810231 0.18490753 14473681
0.73136151 -0.055406436 0.18573171 14473937
0.73250002 -0.045202665 0.18459138 14079180
0.73452771 -0.035010457 0.18481515 13947594
0.73619443 -0.024749696 0.18523459 13421249
0.73736113 -0.01443316 0.18552792 13026490
0.73783332 -0.0049428451 0.18564843 13026490
0.7383669 0.0045610806 0.18491818 13223869
0.73811448 0.01485219 0.18559462 13355455
0.73738921 0.025268886 0.18553501 13223869
0.73672223 0.035594251 0.18536706 13157819
0.73593342 0.045030717 0.18516964 12894647
0.73511124 0.054446205 0.18496402 12499890
0.73500019 0.064762384 0.18493646 11908010
0.73497236 0.075083464 0.18492937 11908781
0.73596966 0.085133292 0.18494555 12303539
0.73845458 0.092177153 0.18509841 12500916
0.74147367 0.097264782 0.1850585 12369330
0.7448262 0.1038016 0.18532065 12171952
0.75200003 0.10763077 0.18129194 12040365
0.75866669 0.11036099 0.18289836 10066575
0.76324999 0.11281449 0.18311098 9145728
0.77625 0.11791861 0.18168764 9606022
0.78000003 0.11894227 0.18712917 9474693
0.78799999 0.124117 0.18338405 9540486
0.79057139 0.12848601 0.18530437 9474693
0.79395837 0.1347827 0.18559849 9540486
0.77383345 -0.1519202 0.19470654 10328211
0.78500003 -0.15678951 0.19525972 10394260
0.75475001 -0.14331727 0.19520652 13683138
0.76120007 -0.14623468 0.19491906 12696245
0.73650008 -0.13286962 0.19522569 13617858
0.74380004 -0.1383656 0.19428846 13814723
0.73343331 -0.12510365 0.19484326 13486528
0.73173553 -0.11559401 0.19464457 13420991
0.72892863 -0.10166254 0.1948667 13552321
0.73039997 -0.10671737 0.19566266 13486529
0.72753322 -0.095144197 0.19498095 13947336
0.72557896 -0.085366756 0.1947668 14342350
0.72535723 -0.075328261 0.19524062 14473936
0.72736371 -0.065654181 0.19526607 14737108
0.73000002 -0.061855141 0.19193833 14473936
0.72883338 -0.058343604 0.19845615 14737108
0.7306335 -0.0547245 0.19518252 14605522
0.73142874 -0.045015551 0.19443247 14605522
0.73244452 -0.034912359 0.19457948 14210251
0.73327762 -0.024652377 0.19479994 13881286
0.73449999 -0.014376016 0.19512492 13486785
0.73586667 -0.0049284222 0.19548908 13486785
0.73652405 0.0045490586 0.19480021 13552834
0.73583788 0.014949752 0.19531773 13618371
0.73438889 0.025165565 0.19509566 13355198
0.73427767 0.035477187 0.19506633 13486784
0.73443317 0.044940177 0.19510815 13618627
0.73491669 0.054432943 0.19523767 13421249
0.73486108 0.064749464 0.19522265 13092283
0.73427773 0.075013086 0.19506806 12303281
0.73575866 0.084520556 0.19531319 12171952
0.73849994 0.091003992 0.19446135 12500918
0.74186957 0.096518546 0.19516088 12237746
0.74428576 0.10403915 0.19486515 11645865
0.75000006 0.10910028 0.19310014 9145473
0.76100004 0.11248193 0.19415073 9672072
0.78100002 0.11909475 0.19102573 9474693
0.78900003 0.12216174 0.19113541 9474693
0.79321432 0.12600137 0.19613695 9606022
0.79482764 0.13499907 0.19546878 9606022
0.77500004 -0.15275687 0.20618866 10196368
0.78525007 -0.15715307 0.20401382 10328468
0.75558335 -0.14391921 0.20514674 13420479
0.76550001 -0.14849213 0.20425262 11841193
0.73663157 -0.13318439 0.20436116 13551808
0.74400002 -0.13866301 0.20548557 13749443
0.73336661 -0.12509276 0.20512849 13749187
0.73152804 -0.11535985 0.20461287 13552321
0.72900003 -0.10193244 0.20635219 13157563
0.73044997 -0.1069812 0.20422566 13289149
0.72743332 -0.095131829 0.20517097 13420735
0.72488248 -0.085664026 0.20470098 13552834
0.72339994 -0.075126089 0.20488057 13947592
0.72483355 -0.065091521 0.20443587 14342350
0.72729415 -0.055296537 0.20537913 14473937
0.73000002 -0.051886305 0.20162232 14671315
0.72892314 -0.047149684 0.20775658 14342351
0.73062968 -0.044297036 0.20337895 14605522
0.73102814 -0.034845699 0.20447305 14605010
0.7319169 -0.02460717 0.20472151 14341837
0.73341638 -0.014354778 0.2051411 13881286
0.73486668 -0.0049218005 0.20554632 13552577
0.73580015 0.0046672784 0.20568395 13092283
0.73463887 0.014854241 0.20548196 13026490
0.73283327 0.025111668 0.20497686 13026746
0.73241681 0.035386849 0.20486003 12960699
0.73316664 0.044863764 0.20506962 13158334
0.73397201 0.054363057 0.20529607 13290178
0.73402756 0.064676568 0.20531219 13355970
0.73444444 0.075031079 0.2054294 13158848
0.73634619 0.084840387 0.20490012 12895675
0.73859996 0.090843186 0.20417109 12698296
0.74229163 0.096325763 0.20537727 12501173
0.74487513 0.10399658 0.20485967 11777195
0.77300006 0.11606523 0.20445068 9474436
0.79400003 0.12572724 0.20518513 9540486
0.79541391 0.13509673 0.20492016 9474693
0.79503852 0.14521608 0.20455271 9474693
0.77479994 -0.15320089 0.21526261 10261905
0.78650004 -0.15808935 0.21446298 10327955
0.75569999 -0.14394131 0.21490951 13156538
0.76333332 -0.14807183 0.21529472 11116957
0.73784626 -0.13210091 0.21468543 13749699
0.74313343 -0.13731454 0.21499003 13289149
0.73362058 -0.12501775 0.21535432 14210251
0.73163915 -0.11537712 0.2149214 13815493
0.72900003 -0.10159112 0.21272349 13683907
0.7305184 -0.10592062 0.21538419 14012871
0.72823077 -0.094709948 0.21483913 13420735
0.73000002 -0.098882236 0.21871175 13683907
0.72621208 -0.085233487 0.21479701 13157563
0.72500014 -0.07529407 0.21466914 13355455
0.72385025 -0.064835817 0.21491866 13881799
0.72549999 -0.054960549 0.2148148 14210766
0.72818184 -0.045167681 0.21522135 14276559
0.73000002 -0.041632645 0.21016705 14012874
0.72900003 -0.03833307 0.21704689 14079180
0.73048389 -0.034239326 0.21411233 14079180
0.73150027 -0.024591953 0.21487971 13815751
0.73294443 -0.014345437 0.215303 13026490
0.73403329 -0.0049162963 0.21562256 12828854
0.73456776 0.0044203904 0.21561651 12763061
0.73341656 0.014829461 0.21544215 12434353
0.73208356 0.025087111 0.21505105 12171438
0.7316947 0.035351954 0.21493635 12171695
0.73209107 0.045264628 0.21528684 12434610
0.73309076 0.054687619 0.21511315 12434610
0.73412108 0.06445121 0.21525979 12303281
0.73516667 0.075105123 0.2150972 12237490
0.73742867 0.084585086 0.21465008 12500917
0.74000001 0.08858972 0.21910927 12764088
0.73900002 0.090200014 0.21102813 13422018
0.74284375 0.095401973 0.21522342 12698295
0.74572217 0.10353443 0.21488805 12500917
0.79280943 0.12566951 0.21499327 9474436
0.79468757 0.13461301 0.21448869 9408900
0.78900003 -0.16043893 0.22622962 10328212
0.77409095 -0.15279672 0.22516866 10130576
0.78466672 -0.15772085 0.22498751 10130833
0.75514287 -0.14320126 0.22447219 13025721
0.76225007 -0.14674972 0.22546971 12235950
0.7378667 -0.13242352 0.22555967 13420480
0.74360007 -0.13763323 0.22417836 13354943
0.73410708 -0.12497307 0.2250983 13552322
0.73268747 -0.11505921 0.22514617 13091768
0.73141694 -0.10506817 0.22513026 12960183
0.72900003 -0.091920376 0.22109397 12631219
0.73055178 -0.095301524 0.22565986 12828598
0.72792 -0.084698029 0.22497363 12499633
0.73000002 -0.088628583 0.2289654 12894389
0.72569454 -0.075366102 0.22506793 12762805
0.72456276 -0.065282486 0.22524689 12894647
0.72455585 -0.05488978 0.22471346 13421249
0.7270512 -0.044668339 0.22502601 13684421
0.72900003 -0.03688246 0.22498259 13816006
0.73018742 -0.032134488 0.22400331 13750213
0.73125035 -0.024583971 0.22507769 13026489
0.7321946 -0.014331505 0.22536847 12500146
0.73299986 -0.0049104667 0.2256165 12960439
0.73336089 0.004530001 0.22572607 13486527
0.73305547 0.014823034 0.2256324 13486526
0.73186135 0.025079358 0.22526543 12697268
0.73166692 0.035351031 0.22520664 12302509
0.73203146 0.045114718 0.22510427 12105387
0.73315138 0.054432403 0.22574107 12105901
0.73484868 0.064986266 0.22485623 11974572
0.73669451 0.075261757 0.22503048 12171438
0.73852384 0.083968297 0.2249707 12566453
0.74020004 0.088613667 0.22523384 12632502
0.74311423 0.094932146 0.22512576 12895674
0.74675012 0.1028013 0.22460453 13290176
0.75300002 0.10636647 0.22666457 12500146
0.78300005 0.11756673 0.22909179 9540486
0.79423082 -0.16515692 0.23480685 10065294
0.77550006 -0.15293066 0.23460902 9802379
0.7851429 -0.15729453 0.23654015 9999757
0.75620002 -0.14314754 0.23541515 13157048
0.76240003 -0.14646605 0.23556283 12565940
0.73839998 -0.132173 0.23419276 13881029
0.74400008 -0.13724448 0.23509435 13420221
0.73473525 -0.12472034 0.23454887 13881284
0.73275 -0.11501595 0.23561579 14210506
0.7316947 -0.10510788 0.23549111 13881284
0.73091704 -0.094729163 0.23524162 13354941
0.72831821 -0.083930917 0.23487011 13684163
0.73000002 -0.088201351 0.23494673 13486784
0.72666657 -0.075466186 0.23557632 13881542
0.72591668 -0.065192208 0.23533426 13289404
0.72552937 -0.055164561 0.23496029 13026232
0.7270667 -0.044866148 0.23485604 13158075
0.7289167 -0.037446868 0.23274972 13223868
0.73062497 -0.033471458 0.23607446 12894902
0.73163909 -0.024597049 0.23547509 12894645
0.73240006 -0.014334974 0.23486218 12894903
0.73271424 -0.0047256188 0.23551299 13158076
0.73211128 0.0045213378 0.23562561 13420991
0.73158365 0.014794071 0.23545469 13552319
0.73113918 0.025054611 0.23531257 13223610
0.73133373 0.035335127 0.23537472 12829109
0.73197168 0.04552415 0.23570353 13158074
0.73262507 0.055067174 0.23546784 13092539
0.7334615 0.064430818 0.23480281 13092540
0.73588896 0.075181186 0.23511606 13092026
0.73859102 0.083942346 0.2352744 12829368
0.74012494 0.087955058 0.23322386 12829368
0.74270588 0.094902545 0.23499362 12895676
0.74662507 0.10314861 0.23548834 13224126
0.75555557 0.10755285 0.23403099 10526356
0.76200002 0.11084588 0.23543175 9079680
0.7743333 0.11536217 0.2353103 9474438
0.78400004 0.11955222 0.23856115 9474695
0.78833342 0.12082831 0.23649502 9408901
0.79487997 0.1259045 0.23479292 9408901
0.77540004 -0.15222776 0.24502182 9736842
0.78560007 -0.15699242 0.24548277 9934221
0.74900001 -0.14003117 0.24106178 12893365
0.75433332 -0.14201385 0.24561259 13091000
0.76175004 -0.14598143 0.24427482 12960185
0.77075005 -0.14951053 0.24490532 12170670
0.73781818 -0.13166055 0.24554735 13683394
0.74293333 -0.13588502 0.24449922 13485758
0.73393321 -0.12519075 0.24480167 13815493
0.73177159 -0.11537381 0.24508411 14210763
0.73086137 -0.1049879 0.24548906 14539470
0.72900003 -0.091920376 0.24761401 14276042
0.7303704 -0.095513217 0.2444054 14473421
0.72841388 -0.085145339 0.24481414 14012870
0.72736669 -0.075536363 0.24516782 13749699
0.72846442 -0.065662943 0.2452956 13223610
0.73000002 -0.062139966 0.24947274 12170666
0.72859997 -0.055709634 0.24308212 12565680
0.73023516 -0.054466579 0.24774341 12039593
0.72900003 -0.047061119 0.24132939 12171179
0.73075002 -0.044730235 0.24618651 12105642
0.73156685 -0.034869872 0.24487141 12302764
0.73269993 -0.024633016 0.24525054 12500143
0.73299986 -0.014348282 0.24449205 12434095
0.73233342 -0.0050977031 0.24474557 12434353
0.73154861 0.0046547647 0.24502982 12368560
0.73086143 0.014779144 0.24548976 12434609
0.73027772 0.025025783 0.24529259 12500146
0.73049998 0.035294667 0.24536678 12829111
0.73102814 0.045587968 0.24554512 13223868
0.73137957 0.054908559 0.2456325 13289660
0.73194307 0.064518757 0.24484776 13289661
0.73352772 0.074938849 0.2446658 13289662
0.73696983 0.084780194 0.24494894 13223869
0.73883337 0.090756349 0.24701388 13158333
0.74209678 0.095681943 0.24447069 12961469
0.74505889 0.10304813 0.24476938 12961470
0.75400001 0.10791701 0.24002329 9342082
0.76900005 0.1136644 0.24119781 9474438
0.77400005 0.11621538 0.24095413 9408902
0.78175002 0.11920913 0.24245027 9474438
0.7885384 0.12365317 0.24590635 9408902
0.79042858 0.12780204 0.24474514 9408902
0.79372728 0.13488989 0.24489188 9343109
0.77566671 -0.15228011 0.25509343 9605256
0.78619999 -0.15711209 0.25487259 9868428
0.74900001 -0.14003117 0.25158232 13156793
0.75611109 -0.14254391 0.25543964 12959927
0.76250005 -0.14612515 0.2525456 12762550
0.77116674 -0.14959134 0.25541705 10197136
0.737625 -0.13164553 0.25423843 13485756
0.74350005 -0.13595997 0.25553676 13222584
0.73337924 -0.12497787 0.25477225 13617343
0.73154569 -0.11559619 0.25467125 13354684
0.73062503 -0.10474118 0.25513801 13947077
0.72900003 -0.093740746 0.25487664 14144456
0.73000002 -0.098312587 0.25659332 14407628
0.7287001 -0.085059732 0.25500023 13749441
0.72822243 -0.075625129 0.25483373 13354939
0.72900003 -0.066662677 0.25595748 13420989
0.73000008 -0.062839068 0.25351202 12697777
0.72900003 -0.056081735 0.2593706 14079176
0.73022574 -0.05518261 0.25484306 13552830
0.73103052 -0.045190733 0.25511348 13816003
0.73247224 -0.034912992 0.25460428 13552831
0.73333317 -0.024654245 0.25490293 13026487
0.73311102 -0.014351042 0.25482613 12631215
0.73226678 -0.0049066464 0.25453287 12039592
0.73197168 0.004398427 0.25455296 11973542
0.73150027 0.014791991 0.25512391 11512991
0.73076665 0.025041746 0.25486782 11249819
0.73023319 0.03528025 0.25468171 11644836
0.7300275 0.045525353 0.2554636 12236974
0.73060715 0.054785967 0.25535992 12500145
0.73126507 0.064635508 0.2544353 12763573
0.73227793 0.074809484 0.25453636 12895160
0.73440528 0.085414357 0.25511092 12764089
0.73807144 0.092802756 0.25531521 12895676
0.74217653 0.097540148 0.25434768 13356483
0.74513334 0.10281292 0.25510734 13290434
0.75866669 0.10858494 0.25571808 9803405
0.76600003 0.11142775 0.25639585 9211521
0.77350008 0.11432953 0.25800145 9474694
0.78871435 0.1215901 0.25423974 9474695
0.79072225 0.12623411 0.25562245 9277316
0.79267997 0.13527779 0.25508443 9277316
0.79447997 0.14532968 0.25476962 9342852
0.7762 -0.15165958 0.26525897 9604744
0.78500003 -0.15564503 0.26551053 9736843
0.7902 -0.15883306 0.26449698 9736842
0.75766677 -0.1416515 0.26425111 12367278
0.76160002 -0.14381394 0.26562244 12104363
0.7713334 -0.14842117 0.26660481 10656918
0.74464285 -0.13399176 0.2648086 12696242
0.75400007 -0.13876131 0.2673822 11709348
0.73496002 -0.12488624 0.26493102 13025462
0.74000001 -0.12968679 0.26761517 11841190
0.73183364 -0.11540782 0.26466289 13486526
0.73091203 -0.10519627 0.2645804 13091768
0.72900003 -0.092015184 0.26505929 13486526
0.73005539 -0.097085878 0.26601267 13223097
0.7288 -0.085071243 0.26526994 13486270
0.72819448 -0.075624175 0.26504728 13618111
0.72811103 -0.065388285 0.26501703 13881282
0.7282778 -0.055173263 0.26507786 14078918
0.7289474 -0.046197843 0.26725543 14013639
0.73047608 -0.043654129 0.26298928 14342092
0.73131615 -0.035037942 0.26478794 14144712
0.7324723 -0.024625845 0.26489094 14144456
0.73238897 -0.014337033 0.2648612 14012869
0.73173356 -0.004902604 0.26462451 13552317
0.73123103 0.0047131255 0.26490214 13289401
0.73109788 0.014680383 0.26512381 13157561
0.73100036 0.025050405 0.26436046 12433838
0.73100036 0.03531811 0.26436046 11447454
0.73080021 0.045572717 0.26514423 11710370
0.73077798 0.055171736 0.26475599 11842215
0.73100036 0.064409941 0.2643604 12171181
0.73197246 0.074777126 0.26471198 12434353
0.73361099 0.085251302 0.26530433 12698039
0.73743486 0.094290391 0.26544863 13027263
0.74088889 0.098524764 0.26359928 13619400
0.74309099 0.10343309 0.26517078 13158849
0.75233334 0.10767847 0.26414678 9014146
0.77400005 0.11440343 0.26088557 9474693
0.78380001 0.11768685 0.26529139 9474694
0.78900003 0.12031468 0.26483321 9343107
0.79252386 0.12527242 0.2653639 9343108
0.79513639 0.15450181 0.26479679 9211523
0.77733332 -0.15078756 0.27292991 9538952
0.78644443 -0.15501326 0.274896 9670793
0.79200006 -0.15888664 0.27529567 9605258
0.75900006 -0.14012393 0.2753748 12498864
0.76366669 -0.14307287 0.27438316 12367535
0.7732501 -0.14750844 0.27579376 9933708
0.74436373 -0.13314605 0.27481532 12696499
0.75312501 -0.13771984 0.27521881 12499121
0.73568189 -0.12478514 0.27505559 13223356
0.74066669 -0.12980364 0.27479038 13025720
0.73261112 -0.11553027 0.27523422 13683907
0.73150033 -0.10508052 0.27481666 14078664
0.72900003 -0.091067076 0.27438867 14144714
0.73042846 -0.09609127 0.27567616 14013128
0.72780007 -0.084956713 0.27512869 14013385
0.725972 -0.075394303 0.27443683 13947591
0.7256999 -0.065002315 0.27492657 14078920
0.72569233 -0.054825917 0.27478665 14210506
0.72663885 -0.044841707 0.2746872 14408141
0.72775853 -0.035188794 0.27596223 14473935
0.73054546 -0.032879189 0.27173582 13947590
0.72838467 -0.025340227 0.27843225 14473935
0.73075873 -0.024184711 0.27362189 14210505
0.72900003 -0.015123283 0.27984983 14342350
0.73097253 -0.014308683 0.27461648 14078662
0.72900003 -0.0031770673 0.27984983 14013385
0.73076689 -0.0048960513 0.27453941 13683904
0.72900003 0.0052075437 0.27717867 13881541
0.73037493 0.0030141997 0.27268273 13354681
0.72900003 0.014204992 0.27656311 13618368
0.73010004 0.016644921 0.27275133 13223609
0.72900003 0.023701916 0.27984983 13421248
0.73047209 0.025033195 0.27442837 13157817
0.73097253 0.035316866 0.2746174 12631730
0.73100036 0.045585811 0.2746281 12302765
0.73100024 0.054997876 0.27462804 12302764
0.73100036 0.064409941 0.27462807 12302509
0.73155582 0.074735373 0.27483547 12499889
0.73275 0.08515095 0.27528429 13092283
0.73569989 0.094967604 0.27466834 12895678
0.73818755 0.10230648 0.27624619 12764349
0.74120009 0.10435195 0.27238634 12698043
0.78400004 0.11771687 0.27159759 9408902
0.78900003 0.12031468 0.27148265 9343109
0.78575009 -0.15334319 0.2850773 9342599
0.79350007 -0.15856957 0.28510433 9408392
0.75900006 -0.14012393 0.28781262 11973289
0.76233333 -0.14222741 0.28490844 11973292
0.77318174 -0.14718729 0.28463265 9276037
0.74475008 -0.13240962 0.28473482 12368047
0.75450003 -0.1384141 0.28345004 12104875
0.73528582 -0.1236184 0.28463906 13091770
0.74050003 -0.12890707 0.2842668 12565426
0.73286659 -0.11505534 0.28493747 13618370
0.73191684 -0.10514026 0.28525355 14013128
0.72900003 -0.090853751 0.28560963 14210508
0.73070383 -0.095937617 0.28449538 14078921
0.72726661 -0.084894679 0.28514263 14144714
0.72462511 -0.075086609 0.28469861 14342350
0.72286844 -0.065097816 0.28479585 14342606
0.72253847 -0.054890994 0.28452125 14342350
0.72347629 -0.044646814 0.2844997 14408143
0.7240001 -0.034510478 0.28470474 14342607
0.72487819 -0.024472076 0.28492582 14276558
0.72731251 -0.014766605 0.28494403 14079179
0.73000002 -0.013435084 0.28023371 14342350
0.72767669 -0.005475481 0.28550071 13816007
0.73000002 -0.0074537834 0.28023371 14210764
0.72702777 0.0044890624 0.28504574 13881799
0.72691655 0.01470139 0.28500205 13750213
0.72716665 0.024919884 0.28509891 13421248
0.73000002 0.02757955 0.28023371 13289662
0.72810709 0.034388032 0.28613999 13289919
0.73023075 0.036662418 0.2817685 13092283
0.72900003 0.043876387 0.28789523 13487041
0.73062086 0.045945201 0.28383243 13026234
0.73046678 0.054957829 0.28468621 12829111
0.73049986 0.064366326 0.28469929 12763317
0.73083359 0.07466121 0.28483003 12697269
0.73197156 0.084939018 0.28515154 12500147
0.73487502 0.094501473 0.28375614 12238004
0.74100006 0.097382911 0.28966051 11579819
0.73714292 0.10180819 0.28198883 12304056
0.74287504 0.10436998 0.28582847 12369335
0.78662503 -0.15305349 0.29506153 9276294
0.79314286 -0.15703909 0.296514 9276550
0.76550007 -0.1422217 0.29296374 12104876
0.77399999 -0.14652057 0.29409873 9275779
0.78000003 -0.14947885 0.2957758 9407110
0.74700004 -0.13149726 0.29200515 11973291
0.75500005 -0.13541451 0.29402238 11907241
0.76166672 -0.13824011 0.29773843 10722199
0.7367 -0.12203906 0.29350039 11381409
0.74400002 -0.12710181 0.29566848 11250080
0.73521739 -0.11530555 0.29458758 11381410
0.7330001 -0.10503345 0.29458591 12039339
0.72900003 -0.090896413 0.29367328 12171695
0.73088461 -0.096108027 0.29538071 12171439
0.72772002 -0.084946901 0.29469207 11908010
0.72457147 -0.075778708 0.29325414 12368561
0.72147828 -0.064609751 0.29289705 11974060
0.72104168 -0.054625753 0.29283035 12500661
0.72150004 -0.044440761 0.29250923 13750984
0.72280008 -0.034113601 0.29450387 12764090
0.72503239 -0.02423596 0.29513717 13158847
0.72699994 -0.015598851 0.29425508 13816007
0.73000002 -0.011384352 0.29834849 13750214
0.72696549 -0.0051051918 0.29444706 13552835
0.73000002 -0.0083082551 0.29903209 13618629
0.72480577 0.0043803961 0.29454684 12960698
0.72463661 0.014730945 0.29400721 13421248
0.7245003 0.024827659 0.29423317 13224126
0.72606254 0.035136033 0.29412436 13290432
0.72850013 0.045252144 0.29446676 13421762
0.72900003 0.05348213 0.29509547 13355455
0.7299999 0.056289796 0.29401916 13289662
0.72900003 0.066793621 0.29179606 12894904
0.72999972 0.064248577 0.294833 13157819
0.73041928 0.074481688 0.29423985 12829110
0.73130441 0.083903238 0.29398245 12434609
0.73800004 0.092669472 0.29107928 10987936
0.74400008 0.097126082 0.29344696 11185061
0.75200003 0.098828539 0.29924178 10921889
0.74700004 0.1022526 0.29258963 11645868
0.79379177 0.12569161 0.29449409 9145728
0.7945295 0.13483416 0.29498732 9145471
0.79424989 0.14493614 0.29443452 9145472
0.78800005 -0.15138137 0.30434451 9210243
0.79458332 -0.15599953 0.30595213 9210756
0.77457148 -0.14300168 0.30459434 8880764
0.7834 -0.14793035 0.30587247 8881277
0.75675005 -0.13173562 0.3037931 10855580
0.76433343 -0.13634145 0.30503914 10986397
0.77200001 -0.1389094 0.30900761 11644839
0.74466664 -0.12382533 0.30184415 11316388
0.75299996 -0.12617473 0.30644205 11447974
0.74472737 -0.11530206 0.30411676 11579562
0.73525006 -0.10260803 0.3011815 12171954
0.74300003 -0.10731115 0.30406937 12106161
0.75000006 -0.10685863 0.30898052 10856096
0.73139995 -0.094793901 0.30200276 12106161
0.73000002 -0.088628583 0.30074102 11053729
0.72500002 -0.030315442 0.30037838 9408650
0.72619998 -0.025263136 0.30087557 8421754
0.73100001 -0.020298624 0.30286428 7829872
0.72900003 -0.015976582 0.30032906 10592150
0.73083335 -0.011740307 0.30194077 10065293
0.74400002 -0.017176179 0.30825037 9013374
0.72900003 -0.0031770673 0.30118236 9802123
0.73033333 -0.0063182819 0.30201843 9604486
0.72600007 0.0019331835 0.30079269 7893871
0.72900003 0.047167696 0.30032906 12830140
0.72900003 0.052287504 0.30032906 12961469
0.73000002 0.05577711 0.30074102 13092542
0.75700009 0.098601915 0.30300361 9540490
0.76500005 0.098746136 0.3079966 9474695
0.75700003 0.10125779 0.30123141 11382440
0.76550007 0.10509045 0.30461031 9934993
0.77266675 0.10697418 0.30867049 10132371
0.77500004 0.11092266 0.30657986 9474443
0.78466672 0.11659652 0.30733788 8816768
0.78900003 0.12031468 0.30565333 9079937
0.7923913 0.12510765 0.30491096 9014144
0.79403585 0.13469376 0.30461961 9079680
0.79518521 0.14504348 0.30546841 9079936
0.78900003 -0.1512036 0.31027099 9144705
0.79303861 -0.15583752 0.31513897 9013632
0.77600002 -0.14144577 0.31060869 8158580
0.7851668 -0.14542097 0.31458017 8750460
0.79025 -0.14866847 0.3181625 8750717
0.76250005 -0.13095185 0.31145322 10592409
0.77500004 -0.1367313 0.31610397 10395029
0.75866669 -0.1234872 0.31195867 11645609
0.76050007 -0.12526852 0.31330621 10592921
0.75580001 -0.11476612 0.31136996 11119524
0.76120007 -0.11416133 0.31537661 9145221
0.75633335 -0.10775709 0.31277266 10921632
0.75133342 -0.012067263 0.31304762 8487800
0.7755 0.10510306 0.31176808 10132626
0.78480005 0.10644887 0.31743941 10330004
0.7871111 0.11429714 0.31382763 9606284
0.79087508 0.11689916 0.3170262 8882303
0.79400003 0.12505291 0.31460509 8948351
0.79359257 -0.15538855 0.32529104 9277061
0.78785717 -0.14308098 0.32326034 8750717
0.79128581 -0.14648287 0.32585719 9013889
0.77675003 -0.13249406 0.32181919 9079426
0.78525007 -0.13623987 0.32626149 9145475
0.77557141 -0.12372709 0.32366759 8290166
0.78200006 -0.12606646 0.32765573 8619131
0.77444446 -0.11517538 0.3232846 8092789
0.78200006 -0.1123321 0.32765573 8027251
0.77700007 -0.10797475 0.32374176 8618877
0.78500003 -0.10724878 0.32799327 8948097
0.78900003 0.10369112 0.32135338 10198418
0.79523528 0.11557448 0.3246634 8750971
0.79395449 -0.1449721 0.33503222 9277060
0.78866673 -0.13452397 0.33044901 9079682
0.79472232 -0.13513952 0.33660787 9145473
0.78850007 -0.12434351 0.33222508 8553593
0.78800005 -0.11503833 0.33201444 8027249
0.78800005 -0.10673864 0.33016971 7698029
0.79352003 0.1451553 0.38449687 8751742
0.79490328 0.15483254 0.3951878 8685949
0.79353327 0.15537041 0.40493858 8816767
0.79429632 0.16561395 0.40484214 8817023
0.79449999 0.16486314 0.41473234 8882560
0.79397291 0.16487686 0.42554992 9014403
0.79105008 0.15405223 0.43218678 9014916
0.79000002 0.16464737 0.43169749 9014916
