# .PCD v0.7 - Point Cloud Data file format
VERSION 0.7
FIELDS x y z rgb
SIZE 4 4 4 4
TYPE F F F U
COUNT 1 1 1 1
WIDTH 520
HEIGHT 1
VIEWPOINT 0 0 0 1 0 0 0
POINTS 520
DATA ascii
0.42839998 -0.053347096 -0.00068871805 13947080
0.43000001 -0.053715833 -0.0020326904 12894650
0.42600009 -0.0453141 -0.00063726318 14998733
0.42625803 -0.035145 -0.0010823705 13550517
0.4243333 -0.025299275 -0.0011938541 14540497
0.42612007 -0.016413998 -0.0010166072 15197655
0.43000004 -0.011604822 -0.0013615987 15197654
0.43113333 -0.0079329582 -0.0010300056 13881540
0.43316671 -0.081660323 0.0084311264 14144199
0.43323684 -0.074646138 0.0075049009 14078152
0.42635712 -0.063079916 0.0070357961 14405571
0.43077779 -0.068101265 0.0061973827 11903639
0.424072 -0.054968316 0.0054738959 15525335
0.41812003 -0.043952961 0.0087503865 15261132
0.42272601 -0.045305476 0.0041605602 15459540
0.41713953 -0.034906007 0.0083138254 12689804
0.42276675 -0.034997992 0.0034371903 13879480
0.41780555 -0.025131468 0.0084561398 13748148
0.42167208 -0.024851369 0.003646849 13552572
0.41823819 -0.016320769 0.0089787617 14670279
0.42299989 -0.014838804 0.0044639804 14079428
0.42534617 -0.0056252689 0.006493628 13290684
0.42999995 -0.0050123315 0.0019346466 14211528
0.42787498 0.00076540431 0.0087434044 10726558
0.43322855 0.005150544 0.0055113952 8487801
0.43828559 0.013190424 0.0057162796 11974569
0.44047371 0.01827066 0.0073076221 12829877
0.44420001 0.022540871 0.0080238376 12763571
0.45200002 0.027658055 0.0095028523 12105125
0.45700002 0.031173544 0.0096079726 12105127
0.45900005 -0.12194449 0.018111924 15392981
0.46090907 -0.12570319 0.01871457 15327445
0.45452639 -0.11441565 0.016952476 14801358
0.44867864 -0.10264149 0.016823117 8222833
0.4507308 -0.10744242 0.016578726 14209992
0.43884623 -0.090501539 0.014522408 14340806
0.44369572 -0.095494688 0.016780078 11709346
0.43508738 -0.084915765 0.014751682 14340806
0.42756757 -0.072662555 0.016425336 12106160
0.43105176 -0.076676816 0.013514366 13946564
0.42379579 -0.065234683 0.015197126 12500403
0.43000001 -0.069318719 0.010046963 11776943
0.41795149 -0.053665217 0.016028848 14472904
0.42052788 -0.057811245 0.013926329 14669770
0.41647011 -0.045204498 0.015090637 14341060
0.41496134 -0.035168797 0.014933384 12231306
0.41461721 -0.024964193 0.015113029 12827046
0.41602004 -0.014955867 0.015069782 13881790
0.4179 -0.0075181252 0.016756514 13815741
0.4211725 -0.0037864752 0.014241256 13421498
0.42567852 0.0039314493 0.015848702 9016966
0.43090907 0.007615407 0.011945807 10791578
0.43520728 0.014230932 0.015280267 12763056
0.44100004 0.018606318 0.012246059 11250074
0.43875003 0.020941477 0.018724721 12959919
0.44517958 0.023454739 0.014669548 12039331
0.45316669 0.02767274 0.013299931 11973021
0.45802271 0.03280567 0.015184388 10853511
0.46122223 0.03674471 0.01677832 11842724
0.45900002 -0.12082047 0.024806509 14275015
0.46125415 -0.12608248 0.024796745 14274499
0.45606503 -0.11453021 0.024881335 14275271
0.44860011 -0.10220332 0.025303541 8158065
0.45149994 -0.10711274 0.02484474 13552574
0.43900004 -0.090296008 0.02258973 13289148
0.44352952 -0.0951024 0.025127636 9934476
0.43560529 -0.08491198 0.024722552 11908780
0.42694005 -0.072828017 0.025065573 10264984
0.43075007 -0.07801304 0.024686184 11711658
0.41900003 -0.060679242 0.028426794 10725278
0.42211494 -0.065228388 0.025059031 9804691
0.4172886 -0.054926999 0.024994945 10924194
0.41999999 -0.059840832 0.021612043 11580071
0.41456488 -0.044929471 0.025117449 11253926
0.40900001 -0.031464238 0.0296633 10982249
0.41207457 -0.03517428 0.024921509 10128752
0.40899998 -0.025240639 0.029663298 13420207
0.41152713 -0.024914233 0.024542315 10659214
0.40900001 -0.019495782 0.0296633 14342854
0.41277951 -0.01479969 0.025055598 11187617
0.41644955 -0.0059144525 0.025073515 10200213
0.42015389 -0.0010743905 0.024266928 8884866
0.42397946 0.0046487879 0.025095351 7898741
0.42879996 0.010511949 0.025409715 10396819
0.433 0.015595244 0.024662538 11776674
0.43810263 0.022154981 0.025223115 12433832
0.44374359 0.026948696 0.024934977 12892836
0.45100003 0.029708464 0.020566549 13813165
0.44858333 0.031037377 0.026670275 11047285
0.45418185 0.034640055 0.024529271 11773839
0.46033335 0.039302632 0.025120968 11842468
0.46457142 0.0422557 0.028409684 12500140
0.477 0.046163477 0.026332706 10264206
0.48177782 0.047903195 0.024663502 10198671
0.48643246 0.053743657 0.026842987 9343621
0.46400002 -0.13037862 0.033109132 11641742
0.45900002 -0.12073565 0.034901414 11646119
0.46155918 -0.12568906 0.035013132 11842724
0.45636013 -0.1148157 0.035019301 11317669
0.44837505 -0.10219763 0.035142668 8226425
0.45175001 -0.10719818 0.034880277 10660767
0.44342309 -0.094929658 0.034872249 8684923
0.43598571 -0.08474312 0.035542827 12369073
0.44000003 -0.089471646 0.033456691 10856605
0.42626661 -0.073179863 0.035336368 11842733
0.43084377 -0.078376435 0.034304038 12106158
0.41818756 -0.061725285 0.035345268 13684418
0.42163798 -0.066545784 0.034679934 10658717
0.41475713 -0.054845855 0.034811389 14407624
0.40862173 -0.042966541 0.03671857 14537669
0.41103992 -0.045768503 0.034273092 14735821
0.40767303 -0.034816451 0.035660282 12032643
0.41016671 -0.038115863 0.031028062 13878449
0.40751848 -0.025149351 0.035273094 13551284
0.40804794 -0.016411766 0.035982005 14275781
0.41078123 -0.012366516 0.033066772 14013122
0.41444439 -0.0051174164 0.034991663 12698033
0.41817653 0.00094255555 0.037236635 8227965
0.42295238 0.0052880794 0.03468116 9148552
0.42787883 0.011219205 0.035248112 11514529
0.43139133 0.01633337 0.034637254 10659734
0.43625927 0.021591712 0.035570621 10462612
0.44416669 0.027206771 0.034834635 10065277
0.44837511 0.03183296 0.03576551 9866093
0.45427033 0.036487974 0.034754101 11118741
0.45999998 0.039993126 0.032285281 12302504
0.46528947 0.043872546 0.034693703 12171433
0.47165224 0.048400957 0.035354849 12960949
0.47650003 0.052328523 0.036016569 10065034
0.48184618 0.056442853 0.034189884 9144700
0.48557892 0.063221045 0.036862958 12829108
0.4621667 -0.13112561 0.048485413 12758420
0.45853326 -0.12243856 0.045920063 14604750
0.46083331 -0.12687099 0.044594649 13813943
0.45473182 -0.11484195 0.045049571 14407628
0.44804445 -0.10271831 0.045500554 11119263
0.45119998 -0.10768548 0.04455274 14079435
0.43890005 -0.090583757 0.046215761 13946821
0.44300005 -0.095447548 0.044855297 9802123
0.43417332 -0.084719695 0.045211136 14012613
0.42553848 -0.07397332 0.045152992 12960440
0.43000001 -0.079110555 0.043998107 13814978
0.41758698 -0.062049653 0.045097202 12762804
0.4208751 -0.066946693 0.044646788 10263962
0.40900001 -0.050613765 0.048812825 13551803
0.412945 -0.054947566 0.044999331 13815232
0.40738487 -0.044936717 0.044975076 14078148
0.41016671 -0.049637962 0.042069864 14013125
0.40451697 -0.034836628 0.045227002 11966338
0.40378359 -0.024965689 0.04538966 13748408
0.40548319 -0.015047814 0.04506176 14012609
0.40821955 -0.0076981876 0.046339836 13487292
0.41198483 -0.0036755996 0.04426945 12435119
0.41605717 0.0029653618 0.045460969 8884611
0.42140552 0.0076307324 0.044157185 12369068
0.42604116 0.013494312 0.045773298 13091507
0.43038714 0.017626211 0.043043524 13025457
0.43490735 0.02287017 0.04535801 13156523
0.44254842 0.027985528 0.044926286 11311994
0.44772977 0.032074295 0.045188766 11248005
0.45397779 0.037186481 0.045108091 11054234
0.45900002 0.040980715 0.046721213 10199183
0.46489191 0.043810625 0.044246461 9804941
0.47122225 0.048140511 0.045209538 10527895
0.47650006 0.052638628 0.044700392 6842458
0.48109683 0.057887383 0.045392219 9079928
0.48592645 0.064923182 0.045062821 12303532
0.48900002 0.071133383 0.04805775 11777193
0.49000001 0.072425947 0.048156023 11645607
0.46066666 -0.1303407 0.05210197 13086357
0.45716178 -0.12412816 0.055027373 14998479
0.46033335 -0.12880976 0.050987657 13219232
0.45340788 -0.11523317 0.055128656 14735822
0.4479838 -0.1042088 0.055427127 12631218
0.45064998 -0.10867602 0.053729188 14473165
0.43849999 -0.091852322 0.055057056 14143431
0.44284624 -0.096855015 0.055024546 7958379
0.42900002 -0.080204777 0.059234139 13618366
0.43256977 -0.08485195 0.055060785 13749184
0.42614287 -0.074384086 0.055251174 12960441
0.43000004 -0.079385094 0.053332385 13551549
0.41735852 -0.062546767 0.055229317 11710889
0.42095008 -0.06739334 0.054697614 10395804
0.40889469 -0.051155068 0.055953551 11118234
0.41233772 -0.055747446 0.054713119 12367788
0.40569153 -0.044898495 0.054930475 11709343
0.39900002 -0.031442195 0.059388589 6772533
0.40157029 -0.035325985 0.054938704 9400923
0.3986924 -0.0249997 0.058494899 8943214
0.40052441 -0.025221007 0.053653073 11312786
0.39900002 -0.019486146 0.059295185 10778763
0.40200844 -0.014840573 0.054950442 11184027
0.40606734 -0.0052993158 0.055347517 10724245
0.41075006 -0.0014289946 0.0511842 10922398
0.4086 0.00080235256 0.057755761 6713441
0.41388449 0.0051701134 0.054812428 9936271
0.42066669 0.0096560121 0.051353473 12960435
0.41799998 0.011266648 0.058080807 12762798
0.42388508 0.015342084 0.054757535 12828077
0.42853329 0.020604612 0.055757429 12828074
0.43376744 0.024029069 0.055383321 12695196
0.44166666 0.028405953 0.054381412 11113845
0.44608116 0.031901352 0.054866545 12300438
0.45338109 0.037527449 0.05471855 12565933
0.45766675 0.041398287 0.05462208 12697263
0.46352944 0.04477505 0.056090109 12565677
0.47130772 0.048785329 0.055483177 9209466
0.47625437 0.05365774 0.055267666 7697252
0.4807727 0.058529023 0.053489279 11580320
0.48444447 0.065154292 0.055162594 11909031
0.48722225 0.071128383 0.055482499 11579812
0.45520294 -0.12484606 0.065197043 14077118
0.44900006 -0.11150148 0.066291519 13024690
0.45166674 -0.1162015 0.064349413 13946050
0.44626585 -0.10483814 0.065196157 11906724
0.43734145 -0.092655487 0.065551542 9537921
0.44179487 -0.097556576 0.064257927 6314835
0.42861903 -0.081041865 0.065010227 10262156
0.431806 -0.085987233 0.064687036 10788501
0.4246555 -0.075028926 0.065136075 9341312
0.41668123 -0.063770644 0.065094382 8618363
0.4205927 -0.068823725 0.0645997 7499882
0.40788475 -0.052442946 0.065753609 11381150
0.41201851 -0.057314642 0.0645331 10000270
0.40339819 -0.044826515 0.064983428 11643549
0.39761627 -0.033968508 0.065774448 10190179
0.40015996 -0.037941605 0.062708013 9601637
0.39646986 -0.025084283 0.065073334 12761258
0.39688998 -0.015060659 0.066200472 13355450
0.40039998 -0.012679338 0.061689202 9077115
0.39835718 -0.0082633467 0.068324357 13881536
0.40246937 -0.0046686004 0.064574026 10132107
0.40703234 0.002350111 0.065263137 6844512
0.41263837 0.007785006 0.064781293 8355440
0.41707319 0.012378505 0.065539196 8815221
0.42230195 0.016836861 0.06459251 9802114
0.42735004 0.020648433 0.064505726 10525576
0.43473604 0.025811056 0.065209158 10917497
0.44438305 0.032758858 0.065319002 12498338
0.45318192 0.038053472 0.064690739 12697007
0.4577187 0.042274881 0.065874532 12960435
0.46404657 0.046818186 0.064949803 12499629
0.47000003 0.049298014 0.060860854 8880502
0.46757147 0.051207561 0.067370437 6644568
0.47313643 0.05565805 0.064379767 9210492
0.47705001 0.063062057 0.066702172 13684155
0.48102435 0.066816583 0.063640162 13947329
0.48171428 0.071200915 0.06553863 12302764
0.45400003 -0.13058007 0.078096934 9731437
0.45343521 -0.1252642 0.074792884 10524041
0.44818455 -0.11423743 0.075841956 11447200
0.4505263 -0.11809088 0.073140174 9933448
0.44425297 -0.10519348 0.074791148 10656657
0.43639699 -0.093900777 0.075292327 9998728
0.44026318 -0.098747157 0.073861666 5787205
0.42740917 -0.082524978 0.075632781 13485755
0.43104655 -0.087184422 0.07458058 12499117
0.41800001 -0.07122919 0.07707487 12434359
0.42313695 -0.075887978 0.074473567 13618114
0.41468999 -0.064919874 0.0751689 11513511
0.42000002 -0.069673114 0.071265042 10658462
0.40674087 -0.054150518 0.075284399 14011843
0.41110006 -0.058814026 0.073264554 13946306
0.39825004 -0.041172646 0.075167909 13682617
0.40170246 -0.046269517 0.074697055 13880513
0.395372 -0.034967829 0.075015895 11111287
0.39277267 -0.024700878 0.074913658 14012353
0.39381403 -0.014724927 0.075012326 14078660
0.39684421 -0.0062960903 0.075769633 13224121
0.40078375 -0.002429544 0.073364966 11185568
0.40561345 0.0035354439 0.075028114 9213318
0.41176471 0.0085844528 0.074375793 12369068
0.41665575 0.013316583 0.075277351 12171432
0.4212501 0.018217888 0.074816182 11249814
0.42555559 0.02144774 0.076021872 11577492
0.43425006 0.026686287 0.074724317 9207393
0.43853337 0.031419922 0.07683707 9998716
0.4446038 0.035406988 0.074973717 8816246
0.45150003 0.038990464 0.072114281 12039589
0.44900003 0.040350668 0.07907629 8618614
0.45538363 0.044335093 0.07528431 10657938
0.461 0.048803676 0.072912812 12894643
0.45900002 0.050651461 0.079494298 9407614
0.46508706 0.054407652 0.075426936 7104860
0.47053343 0.058167521 0.071944304 10855828
0.46850002 0.061159857 0.07867071 12104613
0.47394598 0.065440975 0.074649841 13618620
0.47600007 0.071511179 0.075699873 13355451
0.48000002 0.072071552 0.070770711 13552319
0.45300001 -0.13029245 0.083227314 12495510
0.4484517 -0.12214453 0.086334996 15064532
0.45117301 -0.12643696 0.084268443 14866378
0.44484091 -0.11462676 0.084822446 14932947
0.43860009 -0.10204308 0.086966991 10195339
0.44175002 -0.10592916 0.084032722 13880770
0.42900002 -0.090247743 0.088860884 14078408
0.43479025 -0.095320821 0.08496654 10524816
0.42529333 -0.084097788 0.08531782 14143944
0.4303 -0.088708572 0.081877097 14406858
0.41735291 -0.073144816 0.085746318 13553092
0.42118609 -0.077667736 0.084292322 14012871
0.40859264 -0.061439633 0.086492047 13551809
0.41273177 -0.066212907 0.084593132 11118755
0.40473783 -0.054954566 0.084999703 13683394
0.39654928 -0.043430138 0.085868001 13617340
0.40049991 -0.048182644 0.084023356 13552064
0.38900003 -0.031139852 0.088923179 8088919
0.39257571 -0.035030145 0.084812365 10848372
0.38845167 -0.024721777 0.087661102 9606796
0.39053336 -0.025489934 0.082826599 13289404
0.38847762 -0.015835613 0.087543413 9672591
0.39053124 -0.014955728 0.082719378 13092797
0.38900003 -0.0095876595 0.088923179 13157817
0.39374796 -0.0053234724 0.084870145 11777449
0.39775005 0.0010608566 0.08711689 8424316
0.40366307 0.0053325985 0.084974356 10791066
0.41125003 0.0092795696 0.081328884 12434605
0.40833333 0.010966107 0.088721752 12303021
0.4150947 0.014947208 0.085087031 12631727
0.42055559 0.019389797 0.082462877 12828846
0.42495009 0.023624534 0.08552999 12430739
0.43162861 0.02817457 0.084042519 11573882
0.43623069 0.033064213 0.085873336 13288882
0.44284102 0.037610751 0.083849959 12039589
0.44659182 0.043504845 0.086724818 12697776
0.45291111 0.046920199 0.083521388 10263178
0.45698181 0.053487014 0.086022809 7959911
0.46188578 0.057335597 0.083201736 4735541
0.46526259 0.064731218 0.085480966 10065542
0.47030002 0.067752987 0.081010535 9736321
0.46732146 0.072316349 0.086399265 9539972
0.47040001 0.072061419 0.081908315 9342080
0.44900006 -0.13045587 0.097602226 12364692
0.45000002 -0.13083418 0.092683993 12759964
0.44751847 -0.12490741 0.095232248 14604238
0.45000002 -0.12942958 0.091103807 12431777
0.43900007 -0.11119272 0.097612329 14275533
0.44221804 -0.11538651 0.094476096 14538961
0.43695542 -0.10492024 0.095127381 12235435
0.44000003 -0.10852754 0.090624347 14867413
0.42682496 -0.092365645 0.096123978 14011844
0.43229413 -0.096937686 0.094150387 9274751
0.41844445 -0.081061102 0.098155856 13614504
0.42230007 -0.085319303 0.094705261 13814463
0.4152371 -0.074656218 0.095165551 12892846
0.42000002 -0.079308733 0.091617845 13815494
0.40686855 -0.063941956 0.095913075 12167061
0.41103843 -0.067928538 0.093094632 10986398
0.39824143 -0.051694605 0.097002678 13480083
0.40152571 -0.05560033 0.094287768 13744804
0.39439982 -0.044621222 0.095112562 13414551
0.38811111 -0.033730697 0.095861107 8084290
0.39066669 -0.037371818 0.093011282 10121038
0.3848559 -0.025107734 0.094942212 2566948
0.3840529 -0.015147813 0.094775796 3421227
0.38791665 -0.0073123127 0.095809527 11706756
0.39148325 -0.0029551808 0.093885615 10852734
0.39582413 0.0035285042 0.095490307 9012071
0.40161535 0.0080881119 0.0932943 12235165
0.4058612 0.013428188 0.096080631 12299670
0.41294 0.017384719 0.093452834 12499626
0.41619611 0.022643978 0.096543103 12826527
0.42333844 0.026824875 0.094133727 12166532
0.42677149 0.032453787 0.096942417 12365203
0.43281576 0.036236078 0.093960196 13092019
0.43716666 0.043042373 0.096238106 13026741
0.44314587 0.046637926 0.093552582 13224120
0.44716671 0.05251855 0.096950948 11974055
0.45334437 0.056365751 0.093974113 7828585
0.45732251 0.063904934 0.096239604 12763056
0.46196777 0.067308612 0.092668205 13749951
0.45900002 0.071067475 0.099910311 14407364
0.46307546 0.073090516 0.095083803 13749695
0.44430867 -0.12477895 0.10501415 14469814
0.43784606 -0.11324267 0.10574938 14205611
0.44117138 -0.11774386 0.10411089 14404537
0.42899999 -0.10049157 0.10824381 7889482
0.43323603 -0.10528949 0.10490277 11376771
0.42515191 -0.094639197 0.10534927 11507581
0.43033338 -0.099035747 0.10161664 7627857
0.41679412 -0.083551817 0.10531196 13416095
0.42075869 -0.088175625 0.10357502 13414805
0.40872219 -0.071045093 0.10560282 9998726
0.41250601 -0.075987972 0.10467552 13087904
0.40533343 -0.065083951 0.10483489 11510934
0.39725 -0.053348374 0.10521264 13287345
0.4004705 -0.057969455 0.10382479 13286312
0.38900003 -0.040853515 0.10789517 13088943
0.39238459 -0.045278084 0.10399003 13616052
0.3863939 -0.035044979 0.10505348 7955540
0.37839657 -0.0238411 0.10745729 2435364
0.38132146 -0.025415882 0.10306147 2435621
0.37850004 -0.016958505 0.10800892 2501157
0.38147578 -0.014464336 0.1039275 3421999
0.38641113 -0.0056401752 0.10513593 11579552
0.39016667 -0.000939171 0.10273746 7896685
0.39459112 0.004731582 0.10472399 9737602
0.40000001 0.0094936397 0.10111392 11902851
0.40374547 0.014839888 0.10488085 12036754
0.40855554 0.020643039 0.10566667 12364685
0.41392943 0.025318095 0.10470766 12033400
0.42050004 0.029422347 0.10112762 11571306
0.4184286 0.030641677 0.10759069 11044181
0.42388761 0.034958262 0.10490315 12099968
0.4305 0.039108422 0.10126393 12894641
0.4279286 0.040854935 0.10774209 12166534
0.43389648 0.045230683 0.10476754 12630178
0.44033337 0.04962239 0.10100051 12829620
0.43850005 0.051127266 0.10793624 12497821
0.44451323 0.055320308 0.1049638 9999496
0.45050001 0.058941767 0.10096006 6710875
0.44874999 0.061601765 0.10739544 7564898
0.45358112 0.065645404 0.10433324 12697264
0.45766038 0.073328868 0.10575767 13618622
0.46028572 0.074191809 0.10065169 14209987
0.44241348 -0.12464479 0.11469173 13483175
0.43709579 -0.11468042 0.11507159 13417900
0.44 -0.11934303 0.11431545 13153694
0.4285 -0.10067596 0.1148386 6972249
0.43202898 -0.10607792 0.11512958 11511448
0.42438963 -0.094758153 0.11491744 10657170
0.41615689 -0.083426923 0.11375307 12236715
0.42061114 -0.08892116 0.1142569 12762801
0.40899995 -0.071089037 0.1134793 8948102
0.41194203 -0.075902902 0.1147406 10987164
0.40590146 -0.065285519 0.1136887 9144965
0.39773911 -0.053676508 0.11195922 11249051
0.4005385 -0.057934523 0.11250241 11314844
0.39464283 -0.047721576 0.11091183 11511711
0.37900001 -0.030043593 0.11177585 2435362
0.38420001 -0.034215286 0.11121471 6050118
0.37786961 -0.024803232 0.11094201 2304291
0.38000003 -0.029233279 0.11029161 2567718
0.37814298 -0.015303929 0.11097472 2501157
0.3804 -0.010918895 0.11111984 8422523
0.3862572 -0.004999774 0.11192483 8750714
0.39000002 -0.00078666862 0.11182453 6646880
0.39453849 0.0044301092 0.11185556 9343363
0.40000001 0.0094936397 0.11328721 10723986
0.40477788 0.014941047 0.11395771 10592144
0.4106667 0.019360585 0.11823174 9604991
0.40885714 0.020642763 0.1118307 12171172
0.4142088 0.025273489 0.11518842 10785914
0.4185001 0.030874591 0.11436325 10521968
0.42358825 0.035557222 0.11460148 11773839
0.43000001 0.039398156 0.11977048 11909031
0.42790911 0.040937658 0.11254151 11837830
0.43195719 0.045248184 0.11541831 12103062
0.43732554 0.052121341 0.11519145 11839375
0.44239137 0.057243932 0.11432647 7167816
0.44724557 0.063320003 0.11529315 10193516
0.45136663 0.068161048 0.11448295 13089183
0.45424503 0.07287363 0.11442932 12958374
0.44272423 -0.12322993 0.12263556 12696753
0.43480486 -0.11364697 0.12269008 11775395
0.44 -0.11934303 0.12255584 12762546
0.42900002 -0.10029071 0.12200268 5526348
0.43085998 -0.10557041 0.12299439 10328719
0.42621431 -0.095584251 0.12199529 7171173
0.41800004 -0.085488513 0.12034223 8290166
0.42100003 -0.088072017 0.12120593 8421239
0.41150004 0.01939987 0.12087978 6710872
0.41504002 0.025173688 0.12131511 7499616
0.41900003 0.030543206 0.12112057 9803397
0.42596668 0.035781462 0.12293485 9737607
0.43000004 0.03939816 0.12346148 10197645
0.43377778 0.045032714 0.12434946 10000010
0.43860874 0.051482324 0.12386595 9933706
0.44255936 0.056307513 0.12539385 6446932
0.44755763 0.063538261 0.12472344 11183765
0.4508889 0.068698861 0.12371102 12037785
0.45320001 0.072292596 0.1226247 11906456
0.44550002 0.059070073 0.13034533 8486260
0.44877782 0.063415542 0.13083744 9144703
0.45000002 0.06651362 0.13060848 9342082
0.36680001 -0.031223204 0.14767826 1120275
0.36530185 -0.024769695 0.14791404 856844
0.36400017 -0.01587964 0.14778808 1841684
0.36429694 -0.032366764 0.15583839 2829090
0.36512595 -0.025263857 0.15515406 725514
0.36482906 -0.015756119 0.15545587 2300178
0.3620176 -0.032474015 0.16359416 1909789
0.36210319 -0.0248041 0.16498509 1317138
0.36353573 -0.016268808 0.16473497 1841425
0.34641942 -0.032976039 0.17713927 1777689
0.35513049 -0.031295527 0.17614661 923150
0.36266682 -0.033029478 0.17314543 1515544
0.34746331 -0.02520071 0.17802125 1449494
0.35511854 -0.024909472 0.17572685 988943
0.36064008 -0.024958577 0.17187501 1843995
0.34788001 -0.016435593 0.17836727 1514261
0.35497367 -0.017171249 0.17642197 791308
0.36128214 -0.016556667 0.17227967 1382933
0.33896554 -0.033409625 0.18889809 1777948
0.34097371 -0.033206858 0.18506236 1777947
0.33900002 -0.022507936 0.18939178 1645848
0.34071511 -0.025074936 0.18576349 1646359
0.33900005 -0.017532645 0.18922895 1645592
0.34111243 -0.017028246 0.1856911 1514261
0.33900005 -0.024571311 0.19140223 1646104
0.33999997 -0.026099233 0.19055688 1777432
0.79484004 0.13460428 0.34442413 10461590
0.79446429 0.15495549 0.35519338 10461591
0.78900003 0.11846761 0.36937702 10330004
0.79428571 0.11500777 0.36484185 10330004
0.78900003 0.12216175 0.3684535 10264211
0.79297233 0.12525029 0.36400515 10395797
0.79477781 0.13494459 0.36432409 10395797
0.79546434 0.14497615 0.36442354 10395798
0.79396433 0.15512338 0.36407027 10461591
0.79437041 0.16535342 0.36466098 10461591
0.78900003 0.11846761 0.37122408 10330004
0.79145008 0.11475813 0.37506613 10264210
0.78900003 0.12216175 0.37122408 10395797
0.79194117 0.12490831 0.37544614 10330003
0.79530007 0.13468485 0.37502903 10330004
0.7943871 0.16468689 0.38473487 10330006
0.79553336 0.17532177 0.38453853 10461591
0.79534495 0.16487551 0.39456457 10264213
0.79519236 0.17502978 0.39475963 10395798
