# .PCD v0.7 - Point Cloud Data file format
VERSION 0.7
FIELDS x y z rgb
SIZE 4 4 4 4
TYPE F F F U
COUNT 1 1 1 1
WIDTH 1198
HEIGHT 1
VIEWPOINT 0 0 0 1 0 0 0
POINTS 1198
DATA ascii
0.78900003 -0.052385725 0.10894111 10855062
0.78689486 -0.044056639 0.10719196 12762286
0.79272228 -0.045623146 0.10244071 11644576
0.77766675 -0.033733826 0.10889284 13551546
0.78565007 -0.035149667 0.10580382 13091252
0.79249996 -0.034993175 0.10107396 11447456
0.77560008 -0.025170818 0.10799734 14144709
0.7851876 -0.025135905 0.104618 13157556
0.79124999 -0.02475143 0.10091502 11250075
0.77468181 -0.01483714 0.10761598 13816000
0.78643763 -0.014818341 0.10317457 11842464
0.79200006 -0.014576147 0.1000849 10987157
0.77491671 -0.0057948641 0.10789979 13816001
0.7852143 -0.0049975612 0.10460556 12237480
0.79200006 -0.005303842 0.10101007 10789779
0.77625006 0.0038861653 0.10854224 14210503
0.7855882 0.0050147208 0.10619278 12500400
0.77850008 0.012098894 0.1093138 14605261
0.78633338 0.015136559 0.108109 11841957
0.78875005 0.021952046 0.10844482 10329488
0.79310018 -0.094991401 0.11469684 13093310
0.79337049 -0.085039727 0.1146966 12961723
0.78850007 -0.072965391 0.11840859 14605261
0.79253852 -0.075745068 0.11384861 12368558
0.78660721 -0.064528361 0.11610247 13289145
0.79040003 -0.065986827 0.11135463 11381408
0.77900004 -0.052998327 0.11813754 14143938
0.78463995 -0.055146605 0.1139138 13289401
0.7772001 -0.044326734 0.11604277 13222325
0.78320014 -0.047418095 0.11198632 14407367
0.76850003 -0.030335296 0.11780395 14472905
0.77385294 -0.035346512 0.11478516 13090738
0.7653749 -0.024466408 0.1164977 14143939
0.77154547 -0.025859244 0.11145549 14341318
0.7631945 -0.014941115 0.1151965 13880768
0.77100003 -0.018701969 0.1100656 14012354
0.76266664 -0.0051081926 0.11511704 13749952
0.77125001 -0.0042630751 0.11010129 13815745
0.76531047 0.004082324 0.11591929 13881794
0.77236366 0.0058394698 0.11124478 14078918
0.76825005 0.012614401 0.11709112 13552318
0.77309096 0.015469696 0.11381083 13749954
0.78400004 0.018607534 0.11008609 13025975
0.77418512 0.024418486 0.11635404 13157819
0.78540003 0.025631981 0.11175017 12895158
0.77542871 0.034483716 0.11808573 13420733
0.78575009 0.035435487 0.11423489 13487295
0.79040003 0.035413902 0.11098474 13421760
0.7768333 0.044808816 0.1190806 13749954
0.78573686 0.044689626 0.11555254 13881797
0.79062498 0.045370437 0.11170987 13619653
0.77750003 0.053946026 0.11918242 13947077
0.78564709 0.055320881 0.11593801 14079176
0.79049999 0.054848015 0.11192349 14014412
0.78600007 0.064656407 0.11651941 13947591
0.79062498 0.065729983 0.11170987 13883082
0.78747827 0.075117983 0.1169035 13947077
0.79058331 0.075212754 0.11193519 13948105
0.78826672 0.08464966 0.11794221 13947333
0.79193753 0.086235829 0.11293474 14211020
0.78900003 0.090761669 0.11817642 14408141
0.78880006 -0.18144964 0.12774839 14473170
0.79241675 -0.18571603 0.12471347 11775401
0.78747624 -0.1744397 0.12593384 15855334
0.79044443 -0.17656495 0.12127066 14275789
0.78609997 -0.16481844 0.12546235 16184813
0.79000002 -0.16526578 0.1201756 16579056
0.78609985 -0.15512279 0.12564765 16118763
0.79000002 -0.15509406 0.1201756 16118761
0.78733325 -0.14535414 0.12552553 16184298
0.79044443 -0.14407812 0.12085968 15724260
0.78743476 -0.13503309 0.12635458 16184041
0.79100001 -0.13492118 0.12125242 15329758
0.78799999 -0.12518588 0.12632613 15789539
0.79100001 -0.12515658 0.12116835 15132377
0.78808326 -0.11505205 0.12633938 15723746
0.79090917 -0.11504319 0.12132266 15198171
0.78718179 -0.10453441 0.12577406 15789538
0.79049999 -0.10592169 0.12094519 15132636
0.78640544 -0.094680004 0.12484305 15395036
0.79000002 -0.099611931 0.1201756 15658980
0.78537142 -0.084792174 0.12576303 14868176
0.79000002 -0.084816694 0.1201756 15065815
0.77880007 -0.073040321 0.12904623 14341318
0.78464288 -0.075518988 0.124336 14604490
0.77794445 -0.06460318 0.12663656 14012353
0.78169239 -0.066190645 0.12228829 14539209
0.77765727 -0.055142477 0.1247994 14012096
0.77646434 -0.045389228 0.12480289 13090480
0.76522225 -0.032199934 0.12525867 13814461
0.77252942 -0.037411921 0.12453785 12695209
0.75864285 -0.023603883 0.12758318 14143941
0.76082367 -0.025842272 0.12380303 14144197
0.75832003 -0.014737912 0.12671615 13683905
0.7602728 -0.01512571 0.12180161 13815234
0.75875002 -0.0056374976 0.12752199 13684162
0.76014298 -0.0044562118 0.12275159 13815747
0.75900006 0.00024585446 0.12967452 13881797
0.76208818 0.0048172791 0.12484514 13684418
0.76612139 0.015087876 0.12485255 13158075
0.76788461 0.024863187 0.12572834 12565937
0.77028573 0.025238542 0.12104066 12762804
0.76900005 0.031624757 0.12726817 11776421
0.77081496 0.036071762 0.12507316 11710372
0.76900005 0.043454923 0.12958278 11513251
0.77174217 0.045124575 0.12514338 12895159
0.76900005 0.051556021 0.12958278 13421246
0.77251613 0.055147864 0.12526855 13750724
0.77573329 0.064601161 0.12466037 13881797
0.78074998 0.068337314 0.12105273 13749698
0.77840006 0.072049282 0.12788603 13882054
0.78240007 0.075937711 0.12480321 13618369
0.78406453 0.084866524 0.12583736 13552832
0.78745824 0.093736112 0.12539278 13158074
0.79057139 0.097288266 0.12211226 11579044
0.79375881 0.10444943 0.12522735 10527381
0.78858346 -0.18204647 0.13457488 13551812
0.79146159 -0.18716606 0.13536316 13814729
0.78476685 -0.17427978 0.13499418 14539476
0.78225923 -0.16476654 0.13507193 14671062
0.78189999 -0.15484558 0.13456146 14737367
0.78273547 -0.14515078 0.13485979 15065303
0.78416687 -0.13467249 0.13489044 14867666
0.7844668 -0.12462515 0.13493966 14999251
0.77900004 -0.1109905 0.13856246 15723742
0.7833668 -0.11521945 0.1344419 15065299
0.7784546 -0.10495 0.13730514 15131348
0.78190917 -0.10499933 0.13267018 15065042
0.77794462 -0.094854861 0.1364509 14736077
0.78090006 -0.095541283 0.13213512 14999249
0.77744013 -0.084997267 0.13609773 14341319
0.78050005 -0.086538665 0.13152061 14736847
0.77693975 -0.075203307 0.13505201 14209990
0.77639306 -0.06537459 0.1350466 14143939
0.77803338 -0.055297215 0.13474767 13946302
0.77596432 -0.044973109 0.13497131 12564136
0.75900006 -0.031737134 0.13855869 14077634
0.76345462 -0.034610886 0.13490182 13221811
0.77171433 -0.039237648 0.1341667 12498087
0.75717646 -0.025199533 0.13556437 14078660
0.76000005 -0.029999774 0.13162455 13880255
0.75483334 -0.014776249 0.135142 13683905
0.75609994 -0.0050620162 0.13536941 13816004
0.75842857 0.0028678328 0.1360855 13750211
0.76042861 0.0074944431 0.13309637 13684418
0.76211095 0.015416075 0.13466388 13618625
0.76732004 0.024897408 0.13490303 13026233
0.77000004 0.02909076 0.13786289 12631732
0.76900005 0.030853223 0.13138302 11710628
0.77067858 0.035431709 0.13527933 11776422
0.76900005 0.048855647 0.13138302 11908009
0.77080011 0.044999637 0.1355904 11710629
0.76900005 0.05268117 0.13295822 12302767
0.77017409 0.056299251 0.13565914 12368817
0.77226675 0.065337628 0.13464937 13158589
0.77500015 0.074978523 0.13535026 13553089
0.77600002 0.084781043 0.13535458 13816773
0.78050005 0.088870883 0.13152061 13882051
0.77600002 0.09423843 0.13716438 14276809
0.78356248 0.096215799 0.13237683 13026742
0.77700001 0.1023429 0.1386597 14539727
0.78563648 0.10517115 0.13480164 11382176
0.79175007 0.10822538 0.13109812 10527381
0.78678948 0.11426158 0.1370355 10790297
0.79253334 0.11528778 0.13168907 10527381
0.78890914 0.12382703 0.13747066 10461589
0.79195678 0.12551932 0.13296208 10527381
0.79313338 0.13518156 0.13457133 10593174
0.78850001 -0.18156563 0.14486697 14210255
0.79123539 -0.18671885 0.1450965 13288898
0.78512007 -0.17435794 0.14516573 14605524
0.78219992 -0.16455057 0.14462507 14605524
0.78199995 -0.15494673 0.14479263 14868437
0.78260726 -0.14506987 0.14450498 15065044
0.78275019 -0.13515119 0.14531235 15262167
0.778889 -0.12394132 0.1482673 14867923
0.78168017 -0.12572055 0.14394079 15130837
0.77817851 -0.11458098 0.14563689 14605006
0.78025001 -0.11710542 0.14106788 15262935
0.77826661 -0.10517736 0.14462845 14276039
0.78000003 -0.10261167 0.14969629 13947332
0.77783877 -0.094789587 0.14417347 14209990
0.78000003 -0.097438022 0.14969629 13947331
0.77750009 -0.085434623 0.14536895 14078147
0.77759397 -0.075406104 0.14497128 14143940
0.78000003 -0.072787099 0.14969629 14275526
0.77781832 -0.065382965 0.14439666 14077634
0.78049999 -0.063392438 0.14948791 14077634
0.77851731 -0.055239484 0.14394544 13353911
0.78016669 -0.055148259 0.14881529 13090739
0.77503574 -0.045178913 0.14491832 12498601
0.75900006 -0.031737134 0.14424454 13815490
0.76357889 -0.035604738 0.14541556 12893105
0.77000004 -0.039407428 0.1437213 12498602
0.75532347 -0.025298109 0.14526848 13881283
0.74900001 -0.014661476 0.14900708 13815491
0.75141191 -0.014708412 0.1448264 13815748
0.75350004 -0.0052333237 0.14517529 13816004
0.75781828 0.0047649848 0.14495432 13552833
0.76000005 0.0091420468 0.14052041 13487039
0.75900006 0.010906851 0.14833125 13223868
0.76136357 0.015535951 0.14487715 13223869
0.76752388 0.024550835 0.14482053 13026489
0.77014291 0.028838646 0.14574477 12763316
0.77188879 0.034384061 0.14492808 12368558
0.77233338 0.044546921 0.14460973 11973802
0.77114713 0.055415887 0.1450258 11973801
0.77066684 0.065198988 0.14520055 12368558
0.77130556 0.0751855 0.14531727 12631474
0.77236688 0.085232168 0.14551753 13026231
0.77288246 0.095028311 0.14534843 13816002
0.77551848 0.10562278 0.14480065 14408141
0.78000003 0.1098123 0.14056632 14671315
0.78504771 0.11525601 0.1448893 10987420
0.78884608 0.12299077 0.14230277 10461588
0.79068756 0.12589432 0.14573303 10395795
0.79203707 0.13520116 0.14479938 10527381
0.78850007 -0.18156561 0.15501937 14144719
0.79143757 -0.18699157 0.15524881 13354690
0.78528577 -0.17419751 0.15497723 14605524
0.78266686 -0.16464858 0.1547897 14737110
0.78352809 -0.15473875 0.15496112 14539218
0.78366679 -0.14467998 0.15498784 13748673
0.77854544 -0.13213474 0.15505005 14801616
0.78131258 -0.13715692 0.15463403 15064788
0.77710724 -0.12527478 0.15518178 14604751
0.77785188 -0.11588214 0.15454474 14473421
0.78000003 -0.11113297 0.15700026 14407628
0.78139985 -0.10492804 0.15545312 14144455
0.77900004 -0.090930313 0.15132803 14012354
0.78141665 -0.095024668 0.15560907 14013125
0.77900004 -0.085003451 0.15132803 14078147
0.78072006 -0.08484377 0.15604958 14209733
0.77900004 -0.079076573 0.15132803 14275526
0.78129154 -0.074583523 0.15558545 14077891
0.78186649 -0.064723797 0.15554649 14143427
0.77900004 -0.05080995 0.15223986 12564395
0.78152168 -0.054952949 0.1557163 12827309
0.77540737 -0.045069288 0.1549996 12695725
0.75900006 -0.031737134 0.15721543 13486269
0.76394999 -0.035438437 0.15448497 12893363
0.7705 -0.039433017 0.15599114 12695727
0.74885714 -0.021545956 0.1572428 13750211
0.75420702 -0.026249157 0.15460651 13749698
0.74854845 -0.015019609 0.15558636 13881797
0.75000006 -0.012398559 0.15201525 13947333
0.74900001 -0.008524497 0.15952763 13750983
0.75203454 -0.00491205 0.15489002 13684675
0.7570278 0.0046808603 0.15503423 13421246
0.75900006 0.010906852 0.1554386 13618625
0.76180768 0.016440399 0.15491642 13355453
0.76746154 0.023053894 0.15447667 13092281
0.77123082 0.027611097 0.15565278 12894903
0.77310735 0.034832526 0.15503237 12500144
0.7733891 0.044608317 0.15476598 12368558
0.77333349 0.055044685 0.15511669 12236972
0.77329636 0.065018222 0.15585397 12236972
0.77270013 0.075319327 0.15553254 12368301
0.77248019 0.085244521 0.15548855 12631474
0.77281255 0.095458649 0.1552152 13224124
0.77495652 0.10445208 0.15488185 13816261
0.78000003 0.1098123 0.15334827 14078922
0.78573686 0.11401419 0.15505524 10723992
0.79000002 0.11861777 0.15623897 10395539
0.78831255 -0.18221486 0.16559306 14210512
0.79099995 -0.18723434 0.16430588 13091519
0.78450012 -0.1745732 0.16468439 14605269
0.78342336 -0.1650168 0.16516648 14605524
0.78546673 -0.15512212 0.16545735 14473680
0.78520006 -0.14496349 0.16540158 13025207
0.77866673 -0.1316025 0.16402468 14604237
0.78149998 -0.13635202 0.16523045 14011587
0.77737051 -0.12531832 0.16516672 14933202
0.77730578 -0.11529721 0.16464487 14933459
0.77800012 -0.10531375 0.16570163 14801616
0.78037506 -0.1031933 0.16141424 14341578
0.77830005 -0.094764903 0.1671333 14472906
0.78033334 -0.095196389 0.16209041 14341320
0.77900016 -0.086257204 0.16705702 14341063
0.78019989 -0.083307102 0.16361597 14341063
0.78169221 -0.074914545 0.16487144 14143684
0.78187478 -0.064953528 0.1650418 13880257
0.78183985 -0.054656453 0.16469219 12827053
0.77647829 -0.044802599 0.16474736 12827310
0.78050005 -0.049080621 0.16715148 12958638
0.75900006 -0.031737134 0.16521117 13288888
0.76475006 -0.035452664 0.16500652 12893616
0.77183336 -0.039501257 0.16529526 12695725
0.74817646 -0.022424903 0.16573909 13684419
0.75366664 -0.02769644 0.16453914 13486782
0.74730539 -0.014626846 0.16528976 13881799
0.74900001 -0.0078669628 0.16478789 13487811
0.75163162 -0.003550706 0.16481143 13290432
0.75683868 0.0045380527 0.16491209 13224639
0.75900006 0.010906851 0.16432276 13553604
0.76244819 0.015949231 0.16491432 13553090
0.76816672 0.022128368 0.16450961 13421247
0.77176195 0.026407186 0.16506343 13026490
0.77416009 0.034685548 0.16488689 12500144
0.77489984 0.044695701 0.16504447 12565937
0.77535981 0.054705672 0.16514307 12500144
0.77529985 0.064682432 0.16513066 12500144
0.77443331 0.075487733 0.1649456 12565937
0.77404016 0.085416883 0.16486095 12763059
0.77425921 0.094906569 0.16470708 13092281
0.77631253 0.10304923 0.16500393 13421760
0.78200006 0.10765374 0.16625267 12435123
0.78721058 0.11335278 0.16495092 10198416
0.79071426 0.11819661 0.16550402 10264209
0.78780013 -0.18232797 0.17516902 14210510
0.79066664 -0.18761759 0.17488126 12367280
0.78287512 -0.17446917 0.17498998 14605525
0.78288239 -0.16560595 0.17472193 14605524
0.78689998 -0.15540344 0.17496896 14539987
0.78656 -0.14521495 0.17489333 13552065
0.77900004 -0.13173456 0.17571938 14077380
0.78200001 -0.13656823 0.17436031 12827571
0.77696449 -0.12505826 0.17516081 14801616
0.77616704 -0.11513008 0.17530686 14933202
0.77625018 -0.10534067 0.17500152 14998995
0.77822745 -0.096634895 0.1742827 14670286
0.78050005 -0.09224695 0.17697234 14670030
0.77900004 -0.087283015 0.17138821 14472905
0.78148133 -0.084511042 0.17600121 14472650
0.78199977 -0.074678168 0.17495207 14275271
0.78176463 -0.064499542 0.17501175 13682876
0.7823332 -0.054690678 0.17487007 12827566
0.77627271 -0.044111274 0.17491776 13024946
0.78100002 -0.049112063 0.17548491 12893359
0.75800008 -0.031949155 0.17538428 13025718
0.76405889 -0.0356366 0.174621 12828082
0.77140003 -0.039479077 0.17513324 12696238
0.74676931 -0.023831695 0.17606145 13487040
0.75266671 -0.028538624 0.17322612 13354941
0.74703234 -0.015155202 0.17518437 13750213
0.75000006 -0.010291643 0.17817613 12829110
0.74900001 -0.008524497 0.17004816 13027260
0.75388002 -0.0050435085 0.17504188 12764343
0.75821441 0.003987717 0.17429678 12895674
0.76028579 0.0081284791 0.17795061 12632502
0.76306653 0.015082593 0.17466956 13092797
0.7688334 0.02094754 0.17545074 13553347
0.77245837 0.026248878 0.17514734 13158075
0.77463329 0.034707427 0.1749613 12565937
0.7749998 0.044701114 0.17504387 12697523
0.77513313 0.054689273 0.17507321 12697523
0.77552783 0.06470222 0.17516184 12829109
0.77468556 0.075382501 0.17510183 12960695
0.77380663 0.085214935 0.17462692 13092281
0.77410007 0.094485693 0.17483942 13224381
0.77672732 0.10108776 0.17502137 13488068
0.78400004 0.10670864 0.17493634 10856348
0.78862506 0.11171921 0.17466022 10198416
0.7922942 0.11667451 0.17540425 10330002
0.79314286 0.14528157 0.17509314 10461590
0.78833342 -0.18168116 0.18466878 14210766
0.79157144 -0.18703941 0.18553759 12301489
0.78534615 -0.17454897 0.18544437 14605524
0.78469235 -0.16493049 0.18528883 14802903
0.7874167 -0.15550593 0.18522154 14671317
0.78763336 -0.14541167 0.18527341 14341325
0.77900004 -0.13105069 0.18233013 12827827
0.78278267 -0.13599502 0.18504779 13025207
0.77685195 -0.12543832 0.1850608 14341065
0.77606696 -0.11511477 0.18527733 14933202
0.77725005 -0.10425492 0.18521902 14998995
0.77885723 -0.098467112 0.18438122 14933202
0.7812857 -0.094069332 0.18495543 14735823
0.78270012 -0.084948912 0.18502828 14472651
0.78223997 -0.074827649 0.18491964 14472651
0.78330016 -0.064840935 0.18517224 13616828
0.78439993 -0.054835591 0.18543258 12827567
0.77623534 -0.043365031 0.18531534 12761520
0.78240001 -0.048285 0.18495986 12893104
0.74800003 -0.031277172 0.18820632 13090485
0.75553852 -0.032957025 0.18472785 12893619
0.76363641 -0.036809891 0.18458436 12761776
0.77079999 -0.039448369 0.18401884 12630447
0.74497288 -0.025120391 0.18525104 13486013
0.74651855 -0.015287725 0.18482417 13092282
0.7506668 -0.010300791 0.18536615 12697525
0.75668001 -0.0054178191 0.18475783 12697524
0.76000005 -0.0015329953 0.1876685 12565937
0.75900006 0.00083813205 0.18179494 12566451
0.76130772 0.0049796901 0.18552507 12566195
0.76605004 0.014150975 0.18441291 12368816
0.77075005 0.017842412 0.18806833 12500401
0.77312905 0.024600491 0.18504411 12829624
0.77507979 0.034726582 0.18504229 12566195
0.77519977 0.044712804 0.18507108 12829110
0.77519983 0.054693729 0.18507107 12828853
0.77496648 0.064655319 0.18501438 12894646
0.77400011 0.075445451 0.18478315 12960438
0.77300018 0.085108005 0.18512668 13026489
0.77368009 0.094435379 0.18470812 13355967
0.77762508 0.10105965 0.18428348 11382691
0.7858125 0.10695697 0.18541731 10132625
0.78900003 0.11107936 0.18467069 10132624
0.79272741 0.11641533 0.18503453 10132624
0.78837502 -0.18257549 0.19571257 14342352
0.7912308 -0.18739575 0.19445299 12235950
0.78552002 -0.17444459 0.19488871 14539731
0.78540003 -0.16522139 0.19485991 14605524
0.78716677 -0.15545672 0.19529803 14802903
0.78796005 -0.14547059 0.19549522 14605268
0.7847693 -0.13548864 0.19484782 13354430
0.77815396 -0.12376247 0.19348367 13946052
0.7815001 -0.12628922 0.19724697 13024949
0.77766675 -0.11491352 0.19442703 14933202
0.78000003 -0.11843696 0.19899812 14736593
0.778 -0.10447083 0.1948467 14933202
0.7790001 -0.097313106 0.19509569 14801616
0.78083336 -0.092971213 0.19463913 14670030
0.78158319 -0.084828213 0.19482616 14604493
0.7822333 -0.074825719 0.19499002 14472906
0.78396893 -0.065125048 0.19484799 13156789
0.78453571 -0.054648854 0.1952329 12761774
0.76800001 -0.041102968 0.1995324 12498348
0.77458823 -0.043379888 0.19515952 12761520
0.78216672 -0.048270676 0.19496994 12827313
0.74584615 -0.032263443 0.19578743 12893107
0.75518185 -0.035275862 0.19442979 12893106
0.76377785 -0.038297459 0.19346443 12761520
0.74316198 -0.025103644 0.19552121 13156792
0.74600017 -0.015859362 0.19459219 13356223
0.751625 -0.010972351 0.19593737 13158588
0.75690919 -0.0059516029 0.19487801 13158074
0.76000005 -0.0015329953 0.19478519 13026488
0.76366663 0.0046455003 0.19499384 12894902
0.76840001 0.011762027 0.19208188 13158587
0.77170008 0.015428076 0.19561677 13092537
0.77458817 0.024946714 0.19516487 13289660
0.77596688 0.034765996 0.19524451 12829109
0.7763229 0.044630896 0.19460186 12894902
0.77596688 0.054747738 0.19524446 12960695
0.77449995 0.064614959 0.19487487 12894902
0.77336144 0.07538379 0.19458722 12763318
0.7741853 0.085635595 0.19530076 12763832
0.77615798 0.093973197 0.19362085 13027260
0.78180003 0.097621799 0.19799283 12171951
0.78669572 0.10555656 0.19534381 10066831
0.78900003 0.11107937 0.19390601 10198416
0.79110724 0.11508209 0.19521658 10198416
0.79339999 0.12470327 0.19498725 10264209
0.787579 -0.18344186 0.20490949 14408403
0.79000002 -0.18838333 0.20524819 9999248
0.78406072 -0.17462038 0.2047064 14605780
0.78614712 -0.16467291 0.20489787 15000282
0.78780007 -0.15466148 0.20467736 14803160
0.78853559 -0.14498258 0.20506687 14671574
0.7878148 -0.13478948 0.20447786 13815237
0.78473914 -0.1244315 0.20540343 12958900
0.77900004 -0.11244942 0.20129614 14933201
0.78135002 -0.11553528 0.20556298 14801616
0.77899981 -0.10447744 0.20499554 14933457
0.78000003 -0.10930698 0.20995408 14867663
0.77900016 -0.096766002 0.2049434 14867408
0.7802667 -0.092538975 0.2056413 14801615
0.7815333 -0.084821232 0.2048789 14407114
0.78260005 -0.074860692 0.20515837 14077892
0.78323561 -0.064621754 0.20467591 12827567
0.78288919 -0.054934435 0.20482542 12761774
0.75833338 -0.040585618 0.207671 12564141
0.76475006 -0.042049505 0.20472583 12564141
0.77549994 -0.046307467 0.2048544 12761520
0.78049999 -0.048624124 0.20232236 12827313
0.74469239 -0.034361724 0.20527647 12893362
0.75325006 -0.038110659 0.20363572 12695727
0.7411713 -0.024795702 0.20545031 12893876
0.74503225 -0.015561752 0.2050963 13685188
0.75166672 -0.010314512 0.20496275 13422016
0.75721735 -0.0058393343 0.20489964 13553345
0.76050001 -0.0015340038 0.20559601 13421759
0.76479167 0.0037629642 0.20444059 13224123
0.77099997 0.0086731147 0.20723189 13355453
0.77307701 0.014592303 0.20468143 13355453
0.77489984 0.02474164 0.20495346 13092281
0.77575994 0.034757141 0.20517987 12894902
0.77625746 0.04490355 0.20453206 12960695
0.7760002 0.054750249 0.20524412 12894902
0.77463329 0.064625941 0.2048832 12829109
0.77360016 0.075406782 0.20461048 12631731
0.77544004 0.085575201 0.20509699 12632245
0.77880007 0.091776244 0.20270355 12764088
0.7840476 0.09631642 0.20570943 12895675
0.78855544 0.10424916 0.20456575 9935246
0.79000002 0.10884235 0.20604081 10132625
0.79165393 0.11530458 0.20546457 10067089
0.78810006 -0.18322727 0.21499467 14605270
0.79016668 -0.18811484 0.2151577 10394263
0.7862401 -0.17460269 0.21531799 14934233
0.78775007 -0.16456245 0.2153838 14671060
0.78873318 -0.15484482 0.21507567 14737110
0.7889998 -0.14612418 0.21406983 14145231
0.79000002 -0.14168587 0.21634461 14210766
0.78900009 -0.13357256 0.21220873 13421249
0.79000002 -0.13554321 0.21608041 14013130
0.78830761 -0.12530743 0.21531478 12235949
0.78353846 -0.11517009 0.21478876 13946821
0.77894759 -0.10349704 0.21408565 14867408
0.78054547 -0.1067268 0.21741085 14801616
0.77900004 -0.096806534 0.21353488 14538699
0.7810626 -0.09357091 0.21664146 14604236
0.78222215 -0.084895372 0.215131 14472649
0.78300029 -0.074900068 0.21534415 13946305
0.78406686 -0.064904742 0.2147215 12761774
0.78515393 -0.054748341 0.21523128 12761518
0.74900001 -0.040086098 0.21739057 12630447
0.75620008 -0.041536134 0.21629325 12564398
0.76133329 -0.043123093 0.21384339 12695727
0.77555567 -0.047561735 0.21500856 12827313
0.78050005 -0.049080621 0.21465717 12893106
0.73900002 -0.030900843 0.21881318 13025975
0.7427187 -0.034756321 0.21502027 12893875
0.73864305 -0.024278302 0.21617426 12828596
0.74055564 -0.027114652 0.21224201 12894132
0.73880005 -0.018439669 0.21754272 12960695
0.74381822 -0.014051545 0.21509102 13553089
0.75000006 -0.010291643 0.21065776 13487809
0.74800003 -0.0078122155 0.21744962 13881797
0.75569236 -0.0049885632 0.21497451 13881797
0.76000005 -0.0015329953 0.21257696 13947590
0.75900006 0.00024585446 0.21851617 14079176
0.76433337 0.0035022036 0.21507627 13750211
0.77177787 0.0084817931 0.21456575 13750211
0.77444828 0.014881658 0.21496174 13553089
0.77538902 0.024756612 0.2150677 13158331
0.77561539 0.034610812 0.21443151 12894902
0.7759378 0.044982549 0.21465077 12894902
0.77586693 0.054740295 0.21519803 12763316
0.77505535 0.064662665 0.21497346 12697523
0.77461761 0.075238943 0.21464002 12565937
0.77610004 0.085103475 0.21520218 12500659
0.78425932 0.095802069 0.21510875 13290432
0.78870583 0.1035445 0.21479572 10001039
0.7902 0.10847374 0.21455021 10132625
0.79251999 0.1152876 0.21518049 10132625
0.78881818 -0.18189038 0.22491898 14736855
0.79062504 -0.18691398 0.22530791 12302517
0.78796005 -0.17498447 0.22500935 15066075
0.78863323 -0.16497834 0.22520161 15066075
0.78899986 -0.15545185 0.22456726 15066075
0.79000002 -0.15287478 0.2285507 15066075
0.78900003 -0.14935654 0.22253549 14868696
0.79006279 -0.14441329 0.22508959 14605524
0.79053348 -0.13484158 0.22482038 14407889
0.78888893 -0.12265962 0.22424872 12499377
0.79017645 -0.12716413 0.22586031 13289150
0.78684622 -0.11551288 0.22504717 13091000
0.78333348 -0.10468145 0.22532155 14670286
0.78336006 -0.095106773 0.2255328 14407114
0.7833668 -0.085021339 0.2255332 14341321
0.78320014 -0.074919768 0.22548409 13551548
0.78497219 -0.064979173 0.22507484 12630188
0.77566671 -0.050895695 0.22724269 12827311
0.7857309 -0.055497464 0.22514868 12695981
0.74685723 -0.042220134 0.22625777 12631217
0.7551111 -0.043951482 0.22446537 12565168
0.7632001 -0.046206072 0.2247192 12630446
0.77385718 -0.04814687 0.22253133 12761520
0.73874998 -0.031755395 0.22392803 13025975
0.74246156 -0.036933795 0.22531746 12828596
0.73806274 -0.02465268 0.22490713 12828853
0.73800015 -0.015931107 0.22573818 13092281
0.74200004 -0.011338912 0.22375239 13487552
0.74542868 -0.0056752129 0.22538555 13684675
0.75328577 -0.0022742632 0.22266169 13816004
0.74900001 0.00024261526 0.22966452 13685188
0.75673681 0.0021130075 0.22569001 13684418
0.76278949 0.0068308874 0.22430226 13947590
0.77050006 0.0092683509 0.22092453 13618625
0.76766664 0.01103139 0.22819822 13882052
0.77355003 0.015375766 0.22514632 13552831
0.7761668 0.024782632 0.22527577 13158074
0.77782756 0.034976356 0.22500588 12894902
0.77738243 0.04462174 0.22498779 12894902
0.77551997 0.054714985 0.22508749 12763316
0.7749998 0.064658299 0.22493686 12697523
0.7751599 0.074652761 0.22498398 12500145
0.77664292 0.084409319 0.2248946 12565939
0.78033334 0.089764707 0.22648557 13684934
0.78473085 0.095789701 0.22500414 13553604
0.78900003 0.1023718 0.2245145 10001038
0.79071438 0.10709127 0.22526707 10132623
0.79315996 0.11537975 0.22463737 10132623
0.792844 0.17507313 0.22570217 10330004
0.79258823 0.18514656 0.22517914 10461333
0.79072744 0.19512531 0.22461878 10527126
0.78900003 -0.18168016 0.23454139 14539477
0.79100007 -0.18677159 0.2351359 12302517
0.78813797 -0.17489742 0.23504864 14934489
0.7887271 -0.16525009 0.2349633 15131868
0.78899997 -0.15660273 0.23553599 14868696
0.79000002 -0.15324463 0.23375987 15000282
0.79016691 -0.14495195 0.23488817 14737110
0.79100013 -0.13492118 0.23513588 14473938
0.79064018 -0.12560676 0.2350295 13947080
0.78779423 -0.11479656 0.23483238 12630705
0.78375864 -0.10420462 0.2355724 14539214
0.78386229 -0.095293865 0.23560439 14407370
0.78410012 -0.085102096 0.23491874 14341320
0.78336012 -0.074935071 0.23469837 13353910
0.78476661 -0.064963907 0.23511992 12630188
0.76750004 -0.050957646 0.23533481 12696239
0.77481258 -0.053716071 0.23542345 12695981
0.78309095 -0.05724366 0.23411626 12630188
0.74591678 -0.042541463 0.23483032 12697010
0.75533336 -0.046469372 0.23513673 12564911
0.76233339 -0.049426347 0.2349394 12630189
0.74309999 -0.035425562 0.23481561 12960182
0.73888886 -0.024169933 0.23117675 12697011
0.74113631 -0.025075702 0.23616676 12631219
0.73856008 -0.013591876 0.23434851 12894647
0.74042863 -0.016599437 0.23694213 12631475
0.73899996 -0.0066806735 0.23697832 13684419
0.74213636 -0.0039422628 0.23363625 13816005
0.74586952 0.0028259836 0.23598783 13750468
0.75538892 0.0061441795 0.23378171 13421503
0.76099998 0.0091540758 0.23245156 14079433
0.75900006 0.010906851 0.23983815 13750981
0.76500005 0.011712466 0.23474076 14013383
0.77288896 0.016436543 0.23437463 13684673
0.77657574 0.024550391 0.23497996 13224121
0.77891999 0.034898531 0.23519221 12829108
0.77778137 0.045084707 0.23518823 12960694
0.77526647 0.054697435 0.23499589 12894902
0.77491647 0.064651631 0.23489028 12697523
0.77589655 0.074598745 0.23503152 12565938
0.77766669 0.082420222 0.23408633 12631989
0.78127283 0.087213799 0.23573588 13027003
0.78624141 0.095465586 0.23524426 13487811
0.78900003 0.10184405 0.23454142 9803402
0.79089999 0.10672008 0.23510678 10067087
0.79212916 0.16457513 0.23475224 10329746
0.78899992 0.17658855 0.23589592 10329747
0.79006672 0.17325123 0.23350197 10330004
0.78899986 0.18476745 0.23531911 10461333
0.79000002 0.18581279 0.23237282 10395540
0.78899997 0.19406529 0.23269436 10461333
0.79006672 0.19606286 0.23633835 10461333
0.7888667 -0.18220371 0.24521241 14210255
0.79066664 -0.18706261 0.24466126 11512744
0.7879616 -0.17512725 0.24508677 14737109
0.78818184 -0.16463308 0.24486499 15000281
0.78899974 -0.15489772 0.24470028 14934488
0.78900003 -0.14853562 0.24603425 15000282
0.7901113 -0.14367491 0.24459924 14868695
0.79117262 -0.13507733 0.24521458 14605523
0.79082769 -0.12550922 0.24510738 14276302
0.78757674 -0.11597507 0.24461253 12959928
0.79000002 -0.11995538 0.24963389 14341837
0.77890915 -0.10219192 0.24629483 13815749
0.78186381 -0.10657708 0.2440673 12828341
0.77842867 -0.095201313 0.24719092 14407627
0.78091669 -0.094199516 0.24219199 14341833
0.77900004 -0.087890893 0.24858952 14407112
0.78166664 -0.084475406 0.24389243 14275270
0.78300017 -0.074898444 0.24467205 13090739
0.78416675 -0.064917654 0.24503583 12564395
0.76440006 -0.052186519 0.24565676 12499116
0.77440006 -0.05607358 0.24482305 12695981
0.78200006 -0.058328334 0.24161394 12761774
0.7464118 -0.043342199 0.24521272 12828596
0.75609094 -0.048031989 0.24487187 12499630
0.76000005 -0.049570683 0.24104372 12630447
0.74416673 -0.035473324 0.24473384 12894389
0.74342424 -0.025232943 0.2448851 12302254
0.73899996 -0.010387841 0.2441455 12433839
0.74122208 -0.015315276 0.24533869 12039082
0.73883355 -0.0049498561 0.24470782 13092026
0.73900002 0.00023937608 0.24822339 13223867
0.74361771 0.0046520387 0.24485686 13553087
0.75166672 0.0090418048 0.24103707 13092280
0.74900001 0.01076315 0.24895218 12960949
0.75587499 0.011305567 0.24570195 13487293
0.76460004 0.01421465 0.24429166 13882308
0.77263641 0.017516769 0.24463853 13816258
0.77606076 0.025028929 0.24473214 13223865
0.77760011 0.034838624 0.24480218 12894900
0.77661794 0.044578522 0.24476159 12960695
0.77556002 0.054718561 0.24507211 13092281
0.77560014 0.064709187 0.2450846 13026232
0.77665401 0.074937694 0.24520797 12894647
0.77885723 0.080999352 0.24350862 12500402
0.78268415 0.085891426 0.24549048 12895417
0.78758067 0.095361553 0.24500401 13618883
0.79121435 0.10563938 0.24505591 10066574
0.78900003 0.17757364 0.24008258 10395797
0.79111123 0.17496011 0.24484266 10329747
0.78900003 0.18311483 0.24008258 10461333
0.79078275 0.18554114 0.24465178 10395797
0.79172003 0.19486733 0.24461976 10395797
0.79232001 0.20428935 0.2448037 10395541
0.78866667 -0.1825273 0.25475144 14078926
0.79069996 -0.18762556 0.25540894 10657433
0.78788012 -0.17496701 0.25449789 14671316
0.78813338 -0.16487466 0.25457966 14934488
0.7889998 -0.15489773 0.25485909 14934489
0.78900009 -0.14818114 0.2551949 14934489
0.79010528 -0.14294565 0.25502107 14868696
0.79103857 -0.13478412 0.25530294 14737110
0.79123092 -0.12584309 0.25536555 14342096
0.78765219 -0.11375 0.25458434 13289407
0.79000002 -0.11942697 0.25597471 14210253
0.77875006 -0.10183954 0.25291595 12894393
0.78238893 -0.1049648 0.25597984 12302256
0.77826935 -0.094768204 0.25468856 14538957
0.78000003 -0.098351024 0.25925595 14670032
0.77900016 -0.087423295 0.25471509 14341576
0.78105003 -0.082482785 0.25549048 14209477
0.78330779 -0.075067364 0.25506517 12762031
0.78403711 -0.065486148 0.2551592 12367528
0.76275009 -0.052431297 0.25530276 12499372
0.77423537 -0.057647817 0.25498825 12499114
0.74600005 -0.043419998 0.25493979 13026229
0.75453848 -0.048266523 0.25486085 12762801
0.7450003 -0.035511881 0.25547096 13091509
0.74380559 -0.025009809 0.25506115 12762545
0.73900002 -0.011338399 0.25600845 12105127
0.74113041 -0.016281821 0.25448182 12170665
0.73826694 -0.0049466849 0.25488898 12039336
0.73846155 0.0017023379 0.25635242 12302510
0.74242312 0.006127065 0.25451785 13749955
0.74675006 0.011606359 0.25577632 13158330
0.7549001 0.014030549 0.25479555 13553342
0.76375002 0.016783759 0.25428846 13816258
0.77125001 0.018304925 0.25363731 13684672
0.77531445 0.02488647 0.2548461 13289914
0.77648175 0.034989446 0.25485435 12829108
0.77558339 0.044733293 0.25506395 12763316
0.77580017 0.054737072 0.25513572 12894902
0.77661306 0.064648122 0.25467086 13026488
0.77821064 0.074180186 0.25425205 12894646
0.78049999 0.077603169 0.25820443 12894902
0.78262967 0.084332742 0.255041 12894903
0.78732359 0.094964236 0.2549665 13487042
0.78900003 0.10184405 0.25578263 10131598
0.79086965 0.1066758 0.25481752 10000782
0.79216665 0.11523345 0.25495303 10066832
0.79213333 0.12450206 0.2549412 10066832
0.78885704 -0.18204321 0.26510122 14144719
0.79092854 -0.18688694 0.26487252 10854556
0.78776675 -0.17494208 0.26460251 14605523
0.78802776 -0.1648522 0.26469016 15000280
0.78863329 -0.15482558 0.26489317 15000280
0.78883857 -0.14521526 0.26558852 14934745
0.79000002 -0.14177833 0.26147008 14802903
0.78900009 -0.13541961 0.26829231 14868696
0.79015785 -0.13429023 0.26350796 14737367
0.7905941 -0.12525043 0.26566762 14276816
0.78872734 -0.11237684 0.26316419 13486531
0.79005557 -0.11636762 0.26547542 14144717
0.78604352 -0.10487765 0.2652683 12564655
0.7821905 -0.09479253 0.2647832 13683391
0.78169996 -0.084840849 0.26531282 14209990
0.78320706 -0.07479088 0.26506275 12498602
0.77900004 -0.061751872 0.26986548 12498602
0.7839312 -0.065942623 0.26530689 12433065
0.7586 -0.051255267 0.26634878 13092022
0.7638182 -0.053887561 0.26525414 12498858
0.7740714 -0.058258329 0.26440093 12498602
0.74669564 -0.044450406 0.26498255 13947331
0.75499994 -0.049244557 0.26419818 13420987
0.74444467 -0.035486635 0.26573467 14276039
0.73862499 -0.022888834 0.2688466 14078917
0.74266666 -0.025313705 0.26475668 14275526
0.73714304 -0.013766266 0.26571304 13618110
0.74066669 -0.018255297 0.2620759 13355194
0.73545706 -0.0049283979 0.26510516 13552060
0.73553848 0.0042154649 0.26522356 13486524
0.74166673 0.0089215152 0.26213947 13026232
0.73900002 0.010619449 0.26984856 12236713
0.74531823 0.012935912 0.26541051 12829109
0.75569236 0.01753122 0.26437411 13750723
0.76175004 0.019862721 0.2629942 13618879
0.76483339 0.021733606 0.26584348 13421500
0.77348 0.026255507 0.2647635 13223865
0.77585739 0.034566291 0.26455843 12698034
0.77560008 0.044736188 0.26505628 12895157
0.7760402 0.054753266 0.26520661 12895159
0.77785718 0.06502986 0.26504794 12829624
0.77900004 0.072286628 0.26074719 12894902
0.78108686 0.075463913 0.26542139 12829624
0.78350013 0.084628217 0.26500547 13026747
0.78693742 0.095364906 0.26490074 13553349
0.78900003 0.10184405 0.26409441 10000527
0.79090917 0.10638506 0.26523897 10132369
0.79276931 0.12481309 0.26550037 10001039
0.78900003 0.13693826 0.26963562 10132366
0.79125822 0.13458076 0.26508653 10066831
0.78900003 0.14371082 0.26932779 10198416
0.79213816 0.14502876 0.2640523 10132624
0.7930969 0.15424128 0.2647419 10132624
0.78853327 -0.18249646 0.27501357 13354947
0.7914167 -0.18779548 0.27509359 9867404
0.78573328 -0.17449187 0.27495554 14473939
0.78614706 -0.16472825 0.27488354 14934489
0.7871291 -0.15494569 0.27553204 14934489
0.78744453 -0.14557926 0.275042 14934745
0.78836656 -0.13539311 0.27495518 14671830
0.78900003 -0.12801272 0.27620292 14474451
0.79015791 -0.12338614 0.27450916 14276816
0.79061317 -0.11521272 0.27538037 14276559
0.78884202 -0.10413171 0.27453908 12630963
0.79000002 -0.10793424 0.27737495 13816008
0.78638464 -0.095406927 0.27483177 12696242
0.78226656 -0.084903404 0.27465948 14078147
0.78332019 -0.074928731 0.27503049 12433064
0.77666664 -0.061566904 0.27541807 12432809
0.78300011 -0.066523127 0.2751776 12432808
0.75840008 -0.051241748 0.27515849 14078404
0.76350009 -0.054270316 0.27432343 13222325
0.77258331 -0.058531929 0.27487415 12498602
0.73800004 -0.041225061 0.27984941 14472905
0.74540907 -0.043785218 0.27496016 14276296
0.75362509 -0.048715942 0.2749677 14276296
0.73523533 -0.034389768 0.27605844 14407369
0.74176925 -0.036762215 0.27232811 14276296
0.73392862 -0.024677169 0.27485994 14144454
0.74000001 -0.029210305 0.27021369 14276296
0.72900003 -0.011710078 0.27984983 13486526
0.73217964 -0.014532196 0.27460411 13617853
0.72870004 -0.0048823627 0.27888134 13617855
0.73144007 -0.0049004839 0.27393448 13486525
0.7288 0.0016013536 0.2790904 13881284
0.73194307 0.0048421402 0.27456304 13881026
0.73650002 0.010583525 0.27496341 12499629
0.74472219 0.014192658 0.27513024 12894643
0.75584614 0.018894823 0.27463573 13684673
0.76366669 0.022597454 0.27527627 13487038
0.7726 0.027382817 0.27512321 13157817
0.77516657 0.034730308 0.27488974 12829109
0.77566665 0.044740219 0.27506632 12631987
0.77586681 0.05474155 0.27513582 12632244
0.77754837 0.064316913 0.27552626 12961467
0.78000003 0.069640435 0.27295089 12895674
0.78169239 0.075143911 0.27466947 12763831
0.78488892 0.08498314 0.27517298 13027004
0.78763324 0.09521807 0.27470076 13356227
0.79181826 0.10524476 0.27523169 10527127
0.7885651 0.13533686 0.27526528 10132366
0.79000002 0.13156359 0.27275145 10066573
0.78839999 0.14514084 0.27496675 10066830
0.78900003 0.15233044 0.27671602 10066573
0.79075021 0.15652589 0.27424225 10066573
0.79236668 0.16534774 0.2754187 10066830
0.78838891 -0.18246303 0.28511497 12894395
0.7913 -0.18776816 0.28524166 9735559
0.78551996 -0.17444448 0.28499725 14210511
0.78592861 -0.1647401 0.28534293 14934489
0.78660733 -0.15475638 0.28499764 15000282
0.78700006 -0.14509498 0.28494212 15000282
0.78813893 -0.13535401 0.28502479 14671317
0.78899974 -0.12554263 0.28566548 14342352
0.79000002 -0.12272949 0.28107378 14408145
0.78899986 -0.1152885 0.28800359 14342351
0.79000002 -0.11522913 0.28302589 14473936
0.78899986 -0.10400087 0.28646442 13684163
0.79000002 -0.10670131 0.28400201 14276300
0.78746426 -0.095806763 0.28510848 12367532
0.78205556 -0.084881634 0.28465384 13420217
0.78220004 -0.074821919 0.28470522 12367527
0.77754557 -0.062631078 0.28524601 12301735
0.78233325 -0.067511126 0.28475368 12301734
0.75850004 -0.051248509 0.28495699 12300969
0.76500005 -0.054377709 0.28471264 12037797
0.77327275 -0.058665715 0.28549078 12301223
0.73376191 -0.042872723 0.28576091 13617340
0.74481261 -0.046295103 0.28428316 13419962
0.75340003 -0.049140204 0.28391975 13024948
0.7272858 -0.03357619 0.2875385 13946561
0.73108697 -0.035557251 0.28288123 14078147
0.72517943 -0.024012826 0.28611913 13946819
0.73072726 -0.025578348 0.2814455 14078148
0.71900004 -0.01491583 0.28947654 13354940
0.72422236 -0.015165408 0.28497183 13486526
0.73000002 -0.016852969 0.28023371 13618112
0.71900004 -0.0090246582 0.28947654 13421246
0.723239 -0.0055445828 0.28498739 13486783
0.72559255 0.002755356 0.28539217 13881542
0.73084629 0.0076077003 0.28397983 13551807
0.73564291 0.011435377 0.2849777 12433324
0.74485719 0.014690705 0.284688 12762290
0.75580007 0.018825714 0.28483099 13749954
0.76366669 0.022498222 0.28560925 13486782
0.77258831 0.027488969 0.28509173 13223867
0.77576005 0.034757607 0.28508759 12829109
0.77529997 0.044716969 0.28491849 12566194
0.77499986 0.054679707 0.2848084 12435122
0.77727288 0.065100506 0.28514728 12829881
0.78244841 0.075483866 0.28495562 12894905
0.78531998 0.084824212 0.28492367 13027004
0.78755558 0.095208317 0.28481209 13224642
0.78900003 0.10289953 0.28810623 11777197
0.79123807 0.1063685 0.28468698 10198419
0.78900003 0.11631271 0.28933764 9935246
0.78878248 0.12598149 0.28682187 10000782
0.79119998 0.12311728 0.28285649 10000782
0.78889978 0.13507383 0.28530005 10001039
0.78880936 0.14420393 0.28337681 10066832
0.79000002 0.14583042 0.28767875 10001039
0.78900003 0.15245357 0.28219563 10001039
0.79004353 0.15553418 0.28551206 10001039
0.79064012 0.16498771 0.2850042 10001039
0.79229617 0.17481397 0.28518888 10132625
0.78880006 -0.18181905 0.29468149 13223874
0.79153341 -0.18677486 0.29570088 9933710
0.7871601 -0.17480831 0.29480743 13816523
0.78720021 -0.16467892 0.29482201 14408916
0.78748 -0.15459988 0.29492635 14737624
0.78784007 -0.14544751 0.29505998 14935003
0.78829998 -0.13538215 0.29523188 14671830
0.7889998 -0.12534474 0.29549447 14276559
0.78899974 -0.11518587 0.29549441 14079180
0.78883982 -0.10500639 0.29543409 14144716
0.78628576 -0.095269457 0.29506668 12893877
0.77900016 -0.084056541 0.29679939 11973028
0.78122228 -0.086417288 0.2933943 12367786
0.7790001 -0.075865366 0.29579309 12104100
0.78025007 -0.074332096 0.29282552 12104356
0.77780765 -0.065163121 0.29515314 12169637
0.78000003 -0.067309119 0.29029784 12170148
0.74525011 -0.050790451 0.29611391 11708575
0.75510007 -0.052435338 0.29375267 12037796
0.76390916 -0.055680331 0.29519722 12103588
0.77260005 -0.058713429 0.29495752 12235430
0.7281819 -0.041297194 0.29456529 13156789
0.73236841 -0.04560693 0.29494691 12498604
0.74233335 -0.048418384 0.2919164 12563627
0.71889997 -0.031743567 0.29785088 13420216
0.7230286 -0.035316296 0.29389647 13683133
0.71736664 -0.024624323 0.29569817 13617853
0.72066671 -0.02676045 0.29099071 13946562
0.71582967 -0.01577566 0.29560441 13486525
0.7182222 -0.0058835228 0.29532549 13487038
0.72000003 -0.0014523113 0.2915647 13816004
0.71899998 0.00095426565 0.29741162 13684159
0.72328573 0.0042943633 0.29427949 13618369
0.73100001 0.008793205 0.29430786 12368560
0.73610002 0.011442315 0.29549783 11842215
0.74536365 0.014995596 0.29533106 12829109
0.75666672 0.018945929 0.29597354 13684673
0.76536369 0.022566972 0.29526889 13487038
0.77333343 0.02740771 0.29505941 13289660
0.77580005 0.034759305 0.29509121 12894646
0.77566689 0.044738848 0.29504186 12762803
0.77570027 0.054729704 0.29505444 12566194
0.7774002 0.064863034 0.29479021 12763831
0.77900004 0.071374804 0.29813212 12895931
0.78184015 0.075372413 0.29471576 12895676
0.78456676 0.08474303 0.29475111 13027262
0.78652936 0.094867706 0.29521763 13290434
0.788818 0.10509492 0.29500642 10724506
0.79000002 0.10863099 0.29549915 9934989
0.78893334 0.11476348 0.29362261 10000782
0.79027271 0.114623 0.29798996 10000782
0.78850007 0.12485316 0.29438549 10000782
0.79000002 0.12509067 0.29956782 9934989
0.78899992 0.13487388 0.29408199 9935246
0.79000002 0.13572475 0.29887426 10001039
0.78900003 0.14063238 0.29272389 10001039
0.7900002 0.14492038 0.29525256 9935246
0.79102874 0.15475218 0.29519567 9935246
0.78900003 -0.18075661 0.30103567 13684938
0.79212517 -0.1853413 0.30531755 10986912
0.78828573 -0.17486024 0.30504712 13816009
0.78800005 -0.16484737 0.3052659 14079438
0.78710014 -0.15452477 0.30491674 14276817
0.78733343 -0.14535357 0.3050071 14671831
0.78800005 -0.13533184 0.30526587 14671574
0.78813332 -0.1252069 0.30531687 14342352
0.78838885 -0.11509691 0.30541503 14144973
0.78837037 -0.10473929 0.30489638 13947082
0.78548157 -0.095573507 0.30480248 12762806
0.77900004 -0.085459359 0.30086759 11841185
0.78175002 -0.084618241 0.3049826 11841442
0.77900004 -0.070870131 0.30269122 11709599
0.78086358 -0.075195521 0.30549476 11775392
0.7767002 -0.065212019 0.30488572 11906721
0.74512506 -0.051000595 0.30392092 11511708
0.75650007 -0.055099551 0.30457443 11972258
0.76416665 -0.058193643 0.30438328 11906465
0.77050006 -0.059274316 0.30209348 11972258
0.72666669 -0.040591974 0.30532101 12367529
0.73326659 -0.044513382 0.30448917 12235687
0.74200004 -0.04839664 0.30655441 11577500
0.71826094 -0.034129214 0.30533445 13354680
0.72125006 -0.038179263 0.30388892 13354423
0.7138108 -0.025563765 0.30427411 13091766
0.70900005 -0.013048597 0.30785751 11711399
0.71085721 -0.015603316 0.30497664 12763316
0.71388084 -0.0057706852 0.30443695 13224380
0.7183125 0.0017051754 0.30475363 13553344
0.72299999 0.0059659062 0.30501297 13026486
0.73079997 0.0087907994 0.30620211 12500142
0.73400003 0.0105476 0.3044509 12302509
0.74469227 0.014193148 0.3045103 12302765
0.75575012 0.018678367 0.30515015 13487294
0.76441669 0.02262033 0.30506724 13421500
0.77305555 0.027397895 0.30490491 13158329
0.77568007 0.034754213 0.3050327 12894901
0.77640027 0.044782095 0.30531704 12631730
0.77668017 0.054799166 0.30542803 12631988
0.77816004 0.063794129 0.3039695 12763574
0.7801429 0.06808804 0.30731001 12697781
0.77900004 0.071374804 0.30086759 13093310
0.78144443 0.075597934 0.30499598 12829883
0.78293329 0.084566846 0.30513409 12961469
0.78609091 0.095117077 0.30527684 13290691
0.78900003 0.1029523 0.30399099 11711401
0.79106671 0.10754447 0.30602351 9869196
0.7922917 0.13511088 0.30538595 9869453
0.79104006 0.14469881 0.30552042 9935246
0.79100025 0.15502664 0.30532297 9869710
0.79289991 0.16546011 0.30530581 9935503
0.78900003 0.18742464 0.30719256 10001809
0.79210347 0.18421653 0.30413321 10001552
0.79237038 -0.18517603 0.3149606 10987168
0.78861529 -0.17520231 0.3150903 13553608
0.79000002 -0.17913631 0.31991127 14277075
0.78800005 -0.16484737 0.31541196 14013902
0.78704 -0.15451314 0.31502786 13882573
0.78712004 -0.14531478 0.31505954 14211536
0.78800005 -0.13533184 0.3154119 14408658
0.78800005 -0.12518586 0.31541193 14211280
0.78803343 -0.11504458 0.31542531 14144973
0.78889263 -0.10521108 0.31517604 13947338
0.78771436 -0.095044337 0.3154965 12565426
0.78573078 -0.084925041 0.31443599 11907238
0.78254175 -0.074707873 0.31490746 11643549
0.77658343 -0.065050758 0.31470507 11775134
0.78000003 -0.069135115 0.31951374 11446427
0.75583339 -0.052251324 0.31462485 11445656
0.76433343 -0.056420401 0.31507695 11774877
0.77149999 -0.059351243 0.31693548 11774877
0.72600001 -0.040554732 0.31099018 11774879
0.73400003 -0.043152429 0.31226626 12433066
0.74550009 -0.047318056 0.3143267 11380122
0.75400001 -0.049179334 0.31945404 11445914
0.71900004 -0.036797326 0.31135803 12697010
0.72000003 -0.038534034 0.31010556 12697264
0.70900005 -0.012218705 0.31034717 12698295
0.71000004 -0.014729123 0.31078491 11579816
0.71400005 -0.0036563724 0.31085965 11316644
0.71800005 0.0010741698 0.31092501 13618626
0.72340006 0.0049819076 0.31190518 13289403
0.73179996 0.0081187841 0.31450242 12499630
0.73466665 0.010557179 0.31298435 12104873
0.74409097 0.013229419 0.31556991 12104873
0.75526679 0.017932286 0.31468052 13881795
0.76416665 0.022911312 0.3152608 13553086
0.77193761 0.027359033 0.31474176 13289914
0.77536678 0.034741141 0.31489265 12895413
0.77644145 0.044571996 0.31506154 12631987
0.77818185 0.054492496 0.31471151 12566196
0.78000003 0.058075801 0.31890506 12500916
0.77900004 0.060432881 0.31180951 12434353
0.78132135 0.065448597 0.31509152 12500661
0.78144449 0.075459711 0.31502402 12764090
0.78133333 0.084577098 0.31530291 13027262
0.78506464 0.095116876 0.31476888 13290179
0.78863645 0.10263669 0.31516245 12040368
0.79152942 0.10740506 0.31507945 9672075
0.79287994 0.14503597 0.31550965 9935246
0.79273063 0.15471581 0.31495211 9935246
0.79179305 0.17525922 0.31495032 9870223
0.78900003 0.18680894 0.31119454 10067602
0.79044998 0.18446843 0.31556132 9936017
0.79179323 -0.18523587 0.32504469 10986655
0.78895438 -0.17470182 0.32528087 13619144
0.79000002 -0.17913632 0.32361007 13881804
0.78810006 -0.16486864 0.32467711 13750986
0.78784007 -0.15467045 0.32457021 13553607
0.78752017 -0.14538872 0.32443908 13619401
0.78800005 -0.13533184 0.32463554 13948108
0.78816003 -0.12521109 0.32470223 14013901
0.78843331 -0.11510295 0.32481557 14079437
0.78891981 -0.10501637 0.32501453 13552580
0.78806674 -0.09475635 0.32466298 12565939
0.78772008 -0.08457303 0.32452083 11973545
0.78503841 -0.075240649 0.32504353 11314842
0.77807701 -0.063641734 0.32377121 11709340
0.78170007 -0.067822419 0.3262502 11709597
0.75900006 -0.051282294 0.32157245 11445398
0.76516676 -0.053193688 0.32448399 11577498
0.77383333 -0.058024108 0.32544145 11775390
0.75650001 -0.048458666 0.32316795 11445914
0.76000005 -0.049570683 0.32555446 11380121
0.75200003 0.0046458715 0.32916933 7368292
0.75636369 0.015863633 0.32528326 12828852
0.7601667 0.019524908 0.32473668 13815745
0.76605558 0.023865761 0.32525611 13684416
0.77154541 0.028329153 0.32458627 13552573
0.77390003 0.034675043 0.32516578 13158328
0.77550006 0.044732053 0.32493016 12763573
0.77800012 0.053527255 0.32470363 12369330
0.78042859 0.058194999 0.32517162 12500916
0.78222579 0.065173283 0.32456174 12435381
0.78212005 0.075321645 0.32477796 12566455
0.78200001 0.084871739 0.32494518 12698297
0.78571445 0.095317066 0.32494146 13290436
0.78866673 0.10262194 0.32450047 12369079
0.79141188 0.10749784 0.32538658 9540233
0.79161549 -0.18520793 0.33517787 10395030
0.78900003 -0.17452277 0.33128136 13421509
0.790389 -0.17552371 0.33641419 12961215
0.78899997 -0.16470139 0.33172539 13685193
0.79031247 -0.16533078 0.33668974 13224387
0.7887333 -0.1548457 0.33232406 13422021
0.79049999 -0.15519221 0.33769482 13158596
0.78870583 -0.14495623 0.33242118 13290180
0.79049999 -0.14501405 0.33769479 12961217
0.78868747 -0.13487233 0.33218941 13619144
0.79009998 -0.13476814 0.33752346 13092801
0.78899997 -0.12560859 0.33230385 13882060
0.79046154 -0.12443665 0.33746475 13289923
0.78900003 -0.11518588 0.33151224 13816011
0.79093742 -0.1148897 0.3368412 13684425
0.78899997 -0.10476317 0.33230385 13421509
0.79027271 -0.10553333 0.33734524 13224388
0.7885651 -0.094615646 0.33305615 12434869
0.79000002 -0.095648929 0.33814111 11711407
0.78834772 -0.084398396 0.3336868 12105903
0.79000002 -0.087590799 0.33840528 11842993
0.787875 -0.075214632 0.33549926 11053214
0.77900004 -0.061751872 0.33095786 12433320
0.78345466 -0.066028528 0.33526841 12104614
0.76900005 -0.05105783 0.33211011 11446427
0.77535003 -0.056204725 0.33458051 12498857
0.77366668 -0.048046935 0.33623981 11512478
0.75500005 0.0073144338 0.33048254 8223088
0.75900006 0.012683684 0.33134502 9473155
0.76460004 0.016719539 0.3336111 11973288
0.76800007 0.024221964 0.33227789 13092279
0.77221441 0.026333256 0.3360835 12565681
0.77368003 0.034665164 0.33503997 13223865
0.77548277 0.044825871 0.33444142 13026488
0.77850008 0.051889569 0.33378386 13158076
0.7826876 0.056484781 0.33538926 11250337
0.78643495 0.06493371 0.33536136 11382952
0.78678566 0.074587531 0.33545464 11251366
0.78677273 0.085230716 0.33568811 11251108
0.78799999 0.094426259 0.33412391 12106419
0.79000002 0.097657852 0.33778882 9079684
0.78900003 0.10184405 0.3305887 13027008
0.79180771 0.10534786 0.33532974 9540491
0.79227585 0.14479545 0.33490223 9738380
0.79150003 0.15519406 0.33468589 9803917
0.79272008 -0.13521597 0.34514096 9803408
0.79267871 -0.094979458 0.34492582 9737615
0.79191995 -0.085024051 0.34479403 9342858
0.78880006 -0.072869934 0.34269267 8815998
0.79077786 -0.076057002 0.34593868 8026740
0.7861923 -0.065019585 0.34477425 11183515
0.77700001 -0.053407956 0.34011248 12828593
0.78243756 -0.054926105 0.34593081 12696496
0.778 -0.048011586 0.34055021 12434092
0.78564698 -0.044636052 0.34617037 12235943
0.78900003 -0.037609227 0.34444165 9867655
0.79133338 -0.035092849 0.34762159 9144704
0.77550006 0.0084201815 0.34127137 7040099
0.78571433 0.006555859 0.34734282 7434857
0.79133338 0.0014908245 0.34885633 7500907
0.77533334 0.015176175 0.34200725 7566187
0.78283334 0.014302804 0.34785903 7895664
0.77630007 0.024059376 0.34235197 9013633
0.78237504 0.02589401 0.34750339 7895152
0.77820003 0.034868706 0.34245953 10460565
0.78350008 0.03510382 0.34754518 8618876
0.778 0.043963503 0.34146175 12960954
0.78319997 0.04596753 0.34674135 10921885
0.7860477 0.055640653 0.34477624 9013889
0.78874999 0.063343972 0.34371755 8158837
0.79046154 0.066447064 0.34742901 8290936
0.78900003 0.075061627 0.34167102 8026996
0.79073691 0.074983776 0.34632134 8422266
0.78900003 0.084296949 0.34167105 8224631
0.79106247 0.085675009 0.34603843 8882559
0.79170829 0.094935417 0.34485504 9211524
0.78850007 -0.063797884 0.3521612 10262415
0.79099995 -0.06486427 0.35704362 9145218
0.78799999 -0.055086728 0.35415265 10657942
0.79020005 -0.055241149 0.35883957 8948351
0.78849995 -0.045891237 0.35253063 8881788
0.79076922 -0.04431504 0.35710546 8751485
0.78850007 0.0076385909 0.35222283 8093042
0.79152387 0.0040485044 0.35573578 8224628
0.78770006 0.015006606 0.35309571 8224628
0.79089999 0.01506898 0.35823253 8356214
0.78825003 0.025167858 0.35334167 8093044
0.79177773 0.024559621 0.35832053 8225399
0.78850007 0.035327367 0.35345346 8487800
0.7915715 0.036257919 0.35813904 8356984
0.78792858 0.045314636 0.35372519 8619899
0.79042858 0.043872207 0.35841495 8620156
0.78856242 0.054022025 0.3531355 8751743
0.79025 0.056527223 0.35732087 8817535
0.79140913 0.064849719 0.35517946 8751744
