# .PCD v0.7 - Point Cloud Data file format
VERSION 0.7
FIELDS x y z rgb
SIZE 4 4 4 4
TYPE F F F U
COUNT 1 1 1 1
WIDTH 414
HEIGHT 1
VIEWPOINT 0 0 0 1 0 0 0
POINTS 414
DATA ascii
0.54744446 -0.062052131 0.038707424 15657183
0.54546142 -0.055077549 0.037938397 15789283
0.54303449 -0.044627145 0.037671283 15657954
0.54514283 -0.034960594 0.037162621 15724004
0.55000001 -0.032654621 0.034739286 15921380
0.54553121 -0.024726311 0.037646666 15526883
0.55000001 -0.02943572 0.034739286 16118761
0.54446667 -0.014781415 0.03748937 15395296
0.54500008 -0.0052619618 0.037695434 15263452
0.54706252 0.0032993902 0.038713586 15000281
0.55106258 0.0060664522 0.037063867 15000023
0.55180001 0.011675947 0.038468678 14736854
0.52687502 0.02791963 0.038828623 14473684
0.53275001 0.024491062 0.039260566 14407891
0.52476931 0.035698529 0.038342707 14473684
0.52383333 0.044928875 0.037991066 14407891
0.52433336 0.050496269 0.038027234 14276049
0.52600002 -0.070018016 0.049231268 15328734
0.51833338 -0.061717693 0.049727131 15789285
0.52521431 -0.064385124 0.048539698 15591906
0.53480011 -0.064631686 0.045706939 15460319
0.5442667 -0.064123973 0.041933961 15525341
0.50600004 -0.05077197 0.049728468 15460320
0.51479995 -0.055035852 0.048903096 15657185
0.52400011 -0.053919278 0.047369823 15591905
0.53441375 -0.055217877 0.045136038 15657697
0.542579 -0.055847764 0.041621719 15657697
0.50633335 -0.044873793 0.049761228 15526113
0.51352006 -0.044314127 0.047768049 15722722
0.52520001 -0.045196701 0.045341469 15657698
0.5356667 -0.044494864 0.042394176 15591904
0.54050004 -0.047275599 0.040465843 15657697
0.50800002 -0.036305387 0.049925018 15658212
0.51438463 -0.03530845 0.047487564 15394527
0.52400005 -0.034647688 0.045265313 15460320
0.53436369 -0.035305355 0.042388938 15724003
0.54074997 -0.034635484 0.040484559 15526624
0.50480008 -0.024780851 0.048663475 15000026
0.51380008 -0.025336621 0.046722405 15131612
0.52444446 -0.025611755 0.045398574 15197661
0.53428006 -0.024889691 0.042945452 15329247
0.54189998 -0.023801878 0.040823489 15460832
0.50446868 -0.015181528 0.048025087 14802903
0.51275003 -0.013788134 0.046038426 14868696
0.52160001 -0.01472975 0.045156226 14934489
0.53742105 -0.01597956 0.043146081 15131868
0.54190004 -0.015808705 0.040949903 15395040
0.50469232 -0.0053888755 0.048960671 14736854
0.51411122 -0.0055140797 0.04650908 14802647
0.52540004 -0.0053190324 0.044826906 14868440
0.53486371 -0.0056875926 0.042485435 15000282
0.54137498 -0.0055256016 0.040531348 15197661
0.49577773 0.0051204283 0.049237188 14473684
0.50212502 0.0032501579 0.047876019 14736342
0.51362509 0.005202488 0.045964208 14670548
0.52566671 0.0049501113 0.04441347 14736854
0.5340001 0.003379164 0.043009985 14802647
0.54377782 0.0049890131 0.040852226 14868696
0.49514288 0.015727039 0.048989091 14473171
0.5042727 0.015288874 0.047085319 14538964
0.51395005 0.014848406 0.045090668 14538964
0.52249998 0.0163767 0.043550365 14473684
0.53000003 0.010097594 0.043401953 14473684
0.54640007 0.016293962 0.040907562 14605526
0.55200005 0.014393465 0.040034577 14736597
0.49204648 0.025655031 0.047255348 14473171
0.50250006 0.020160917 0.046441838 14473171
0.51550007 0.021891626 0.045228604 14473171
0.52488887 0.026065407 0.042798981 14407891
0.47800002 0.038201056 0.049214706 14473171
0.48522222 0.034982678 0.048946206 14473171
0.4915334 0.033531673 0.047002148 14538964
0.50666672 0.037326999 0.045049522 14538964
0.51366669 0.038246948 0.044065982 14473427
0.52344006 0.034619413 0.042128924 14407635
0.47422218 0.046241589 0.048409391 14407891
0.48437041 0.044293579 0.045749888 14473427
0.49175003 0.042320143 0.045018401 14407378
0.50450003 0.042091049 0.044560738 14604757
0.51560003 0.044103943 0.04354775 14473428
0.52127278 0.044490069 0.041409712 14342099
0.47516671 0.050766334 0.047065001 14407891
0.48250002 0.050419118 0.044593334 14407890
0.52366668 0.050432067 0.041656617 14276306
0.47900003 -0.072732441 0.059409797 15328734
0.48166668 -0.073135011 0.058987509 15328734
0.51450002 -0.070289791 0.051760085 15460320
0.47530431 -0.063655779 0.058464512 15526111
0.48440003 -0.06380064 0.056904189 15591906
0.49600002 -0.063374564 0.055214256 15591906
0.50413638 -0.064366437 0.053669024 15657699
0.51400006 -0.064721838 0.051067352 15657699
0.523 -0.069006503 0.050174832 15460320
0.46900001 -0.050902173 0.059267446 15394525
0.47347379 -0.055067006 0.057758275 15394526
0.48340005 -0.055065691 0.055653203 15526112
0.49600005 -0.054128252 0.053910214 15460320
0.50349998 -0.055411499 0.052012365 15591906
0.51160002 -0.058281541 0.050518077 15854821
0.45737505 -0.042279284 0.059536897 15460576
0.46500006 -0.044630498 0.058361009 15526112
0.47345844 -0.045927625 0.056082781 15328733
0.48388234 -0.046223514 0.054346647 15460319
0.49488893 -0.045858778 0.052172605 15328734
0.50390005 -0.04454039 0.050819241 15262941
0.4572942 -0.035177283 0.059423588 15592162
0.46512198 -0.034081526 0.056590643 15131612
0.47329414 -0.035761345 0.053679243 15328734
0.48250005 -0.035042088 0.052310113 15591906
0.49800003 -0.033063583 0.051273897 15262941
0.50381821 -0.034789268 0.051119339 15131355
0.51025003 -0.035072897 0.050146148 15986920
0.44850004 -0.022429159 0.059826706 14868442
0.45690003 -0.025959972 0.059233576 15065821
0.4633705 -0.025024042 0.055736367 14933977
0.47250003 -0.029712485 0.052516963 15131355
0.49744448 -0.024228895 0.052506085 15131612
0.50099999 -0.025059551 0.050409932 14868439
0.43900001 -0.018356523 0.059587177 14868185
0.44587502 -0.014071112 0.059734937 14802136
0.45463166 -0.01317966 0.058396991 14802136
0.46350011 -0.015320371 0.055259876 14802135
0.47366667 -0.012047955 0.053570759 14933720
0.486 -0.012350634 0.05345159 14933977
0.49720007 -0.015523145 0.052350808 14868439
0.50081819 -0.014436577 0.050710868 14802903
0.44770002 -0.0049984325 0.059614878 14670550
0.45524001 -0.0059892847 0.058119666 14670550
0.46371433 -0.004657743 0.056502104 14604757
0.47484624 -0.0054057464 0.05512844 14802136
0.48500001 -0.0035112745 0.054210667 14736598
0.49406245 -0.0050469004 0.051909145 14671062
0.50066668 -0.0080430927 0.050376389 14802903
0.4317143 0.0059101158 0.059464443 14341585
0.44200003 0.0026047525 0.059346505 14473171
0.45725006 0.001891 0.058717255 14407378
0.46452507 0.0055286055 0.057144992 14407378
0.47390476 0.0050137946 0.054652639 14473171
0.48457691 0.00543686 0.052502997 14407891
0.49155557 0.0032246569 0.050865814 14473683
0.42900002 0.011186225 0.059234139 14275792
0.43500003 0.015789049 0.05903722 14341841
0.44262502 0.01710522 0.058523025 14275792
0.45627785 0.016759662 0.056470506 14275792
0.46422723 0.013929391 0.055249512 14341585
0.47421438 0.01316047 0.053578205 14407376
0.48504344 0.013543464 0.051413931 14342098
0.49050003 0.017957643 0.050501704 14407378
0.41366673 0.025413757 0.059097152 14407632
0.43885717 0.024175962 0.057035219 14407377
0.442 0.022181515 0.055129044 14407378
0.45250005 0.020273477 0.054532312 14275792
0.48800004 0.02986091 0.050244305 14538964
0.49014285 0.024254531 0.050464928 14473171
0.41729167 0.03432915 0.058837477 14473425
0.4228 0.036761474 0.057779007 14473426
0.43175003 0.037544057 0.055820223 14407378
0.46733335 0.038441848 0.052492615 14407378
0.47000003 0.036461432 0.051691867 14407378
0.48600003 0.030876262 0.050038386 14604757
0.41792312 0.044464171 0.05943507 14605010
0.42408016 0.044847164 0.057214685 14407632
0.4312 0.044825654 0.054489102 14407377
0.46774998 0.044045988 0.051533554 14473171
0.47040001 0.044199564 0.050634645 14473427
0.41800001 0.051019765 0.059672404 13683909
0.4242 0.050977767 0.058164041 13946825
0.43225005 0.052507706 0.056265581 12368305
0.44753128 -0.073321886 0.06784489 15262941
0.4551667 -0.071948119 0.064971574 15262941
0.46600002 -0.070758492 0.064342909 15526111
0.47408339 -0.071709834 0.062215928 15394526
0.44563645 -0.064824909 0.067737564 15460064
0.45439997 -0.065035269 0.064863324 15460319
0.46466672 -0.065264076 0.063285455 15526112
0.47150007 -0.065320566 0.061650492 15526113
0.42725003 -0.0513722 0.069492556 15591906
0.43599999 -0.053618383 0.068052672 15328734
0.4439787 -0.055051774 0.065051481 15328476
0.45236367 -0.057230119 0.063131303 15394269
0.46625003 -0.055100214 0.062053967 15394525
0.47064295 -0.057063036 0.061441679 15394525
0.416125 -0.043336891 0.069387287 15394525
0.42307705 -0.044741437 0.067933992 15328733
0.43524146 -0.045319892 0.065815985 15394527
0.44395 -0.045582075 0.063057348 15328734
0.45335296 -0.044619609 0.060907826 15197148
0.41608343 -0.034794316 0.068837717 15394526
0.42336851 -0.035649631 0.066430375 15197148
0.43471432 -0.035332628 0.063978374 15460320
0.44500005 -0.034851439 0.061794199 15197148
0.45263636 -0.035586681 0.060570013 14999769
0.40816665 -0.022482803 0.069575362 14999769
0.41510868 -0.024963848 0.068103887 14999769
0.42413965 -0.024751665 0.065066151 15065306
0.43436673 -0.024910923 0.061966322 15065307
0.44569999 -0.026361337 0.060911894 14868442
0.45485717 -0.026780725 0.060214866 14868442
0.40702701 -0.014646623 0.068609454 14933976
0.41382357 -0.01496862 0.066450864 14933720
0.42423534 -0.01587012 0.064675152 14867929
0.43418613 -0.015192534 0.062164411 14802136
0.44225001 -0.011761407 0.060543925 14802136
0.40737155 -0.0048306012 0.068696454 14736597
0.41278177 -0.0050126589 0.065208793 14604756
0.42466664 -0.0066525652 0.063272193 14670550
0.43535003 -0.0049062166 0.062089432 14604757
0.44350001 -0.0057879803 0.060567029 14670550
0.40536678 0.0053629363 0.067855738 14604754
0.41348654 0.0040037655 0.064725205 14341585
0.42462072 0.0054568197 0.062152695 14341585
0.4325 0.0028299245 0.060559776 14407378
0.45900002 0.0087448973 0.060152803 14407378
0.40530014 0.015194277 0.066657148 14604755
0.41172412 0.01468247 0.062098227 14275791
0.42519999 0.010987881 0.060992412 14209999
0.40474701 0.024878575 0.066703632 14933719
0.41166678 0.025125222 0.062024031 14473169
0.4045507 0.035160251 0.066655964 15065561
0.41307998 0.034715191 0.061749469 14670804
0.40542692 0.044997789 0.06680198 14999768
0.41318375 0.045001313 0.061939176 14802388
0.40657893 0.051430058 0.067303039 13157564
0.41257146 0.05125178 0.062544741 13091514
0.40900001 -0.070720769 0.079452068 15261917
0.41653121 -0.074739181 0.07859388 15131100
0.42393339 -0.073928118 0.075894989 15262428
0.43481818 -0.073053315 0.073724248 15262941
0.44284219 -0.075048946 0.07183817 15131355
0.40588573 -0.063860588 0.07865116 15393502
0.41447222 -0.06503357 0.076409228 15393758
0.42436841 -0.064794004 0.074166588 15328221
0.43451518 -0.065789193 0.07203798 15394527
0.44087502 -0.06436716 0.070162639 15460066
0.39572731 -0.053185105 0.078608416 15591647
0.40361536 -0.054665506 0.075976335 15459806
0.41417247 -0.054529496 0.072825715 15460063
0.42400008 -0.055237297 0.071357071 15328735
0.4331429 -0.057949383 0.070524015 14999515
0.39394435 -0.044781614 0.077592812 15722977
0.40398011 -0.044862986 0.07388816 15591391
0.41238463 -0.044764444 0.07112015 15460320
0.38900003 -0.034934253 0.079209507 15723490
0.39376459 -0.034737833 0.076891609 15657183
0.40439543 -0.034786161 0.073000148 15460062
0.41176006 -0.035532404 0.07111831 15328734
0.39442268 -0.024878265 0.076604687 15394269
0.40364447 -0.024444217 0.071746245 15131355
0.41100001 -0.028091351 0.070378982 15131355
0.39420643 -0.01507834 0.076552361 15262683
0.40232694 -0.014793355 0.071665712 15065561
0.39424512 -0.0051009846 0.076344296 14802389
0.40217495 -0.0055442974 0.071342319 14868182
0.39488485 0.0047685336 0.075843021 14539216
0.40057692 0.0043122531 0.070998207 14670802
0.39489856 0.015021434 0.075468801 14539216
0.4001334 0.014241735 0.070485592 14670802
0.39587677 0.024989331 0.075314403 14868181
0.40000007 0.025724698 0.070524611 14999767
0.39661893 0.035093579 0.075710453 14999509
0.40000001 0.034776632 0.070680678 15065303
0.39721623 0.044323485 0.07685627 14604495
0.40078002 0.045824338 0.072486266 14867409
0.39650002 0.050251976 0.079343781 11315872
0.40264288 0.050963957 0.072487488 12630961
0.38900003 -0.080011725 0.088771403 14932950
0.39050001 -0.081692092 0.089570791 14933206
0.386381 -0.074482948 0.087541223 15196121
0.39309093 -0.072904773 0.084889486 15262171
0.40579408 -0.073882654 0.08262188 15196635
0.41277778 -0.076960444 0.081094377 15065307
0.3849223 -0.064852655 0.086816065 15788257
0.39392108 -0.064690933 0.082799733 15459294
0.40226081 -0.06652949 0.081046104 15393758
0.38459325 -0.054924589 0.085487776 15919842
0.39187506 -0.055760577 0.081015661 15722977
0.3847461 -0.044619661 0.084577799 15920355
0.39000002 -0.048719011 0.080326125 15855076
0.38528657 -0.03505028 0.084751226 15064791
0.38569734 -0.02518109 0.084875509 13815495
0.39000002 -0.0217856 0.080326125 15591134
0.38651848 -0.015329578 0.085343882 13881287
0.39000005 -0.014139249 0.080326132 15196633
0.3874692 -0.0054036654 0.08533331 14276300
0.39000002 -0.0045690848 0.08052177 14539217
0.38794625 0.0044244505 0.086470164 14012870
0.39066678 0.0052868687 0.081704788 14276043
0.38894543 0.013933396 0.087459043 13881284
0.39083818 0.01526376 0.082957737 14210250
0.38899997 0.02240205 0.088736378 14078663
0.3914113 0.025121976 0.084236816 14473422
0.39221984 0.035020053 0.084906772 14670544
0.39467824 0.044846646 0.085218415 14078664
0.39640003 0.050239302 0.084243298 11250080
0.37354833 -0.082024865 0.09724465 14735827
0.38850001 -0.081091568 0.091838852 14867157
0.39000002 -0.082043402 0.090369098 14932952
0.36844447 -0.074729241 0.099653505 15788511
0.37391797 -0.074757777 0.096036956 15722720
0.38289997 -0.075898536 0.091633275 15327706
0.37526512 -0.065056115 0.095630772 15919841
0.3805455 -0.064909883 0.09040495 15985635
0.37688702 -0.055308059 0.096057512 15854048
0.3804118 -0.054017231 0.091106117 15854047
0.37838471 -0.045243051 0.097883038 15393754
0.38067856 -0.044794962 0.092684284 15262168
0.37895462 -0.034797687 0.098777764 10526360
0.38111982 -0.034931011 0.09436857 12499634
0.37821379 -0.024214489 0.096214958 2633258
0.38068283 -0.026112879 0.09168651 2961196
0.37798911 -0.015646638 0.096441992 2961451
0.38109806 -0.013904534 0.092204176 3881783
0.3837086 -0.0053049666 0.09491045 13157561
0.3852379 0.0045293383 0.094888486 13618112
0.38735411 0.014700055 0.094811589 13815491
0.38806072 0.02467479 0.095053747 14341835
0.39000002 0.028885733 0.090369098 14407628
0.38754758 0.035060447 0.095170297 14539215
0.39000005 0.032385554 0.090673424 14605007
0.38837501 0.042859286 0.096321411 14144456
0.39128843 0.045807119 0.092899688 13618113
0.36473337 -0.082388997 0.10552385 14340552
0.37154549 -0.083460808 0.10111542 14538192
0.36521435 -0.075147748 0.10490727 15130836
0.36726719 -0.065610759 0.10571749 14801870
0.37055174 -0.063203223 0.10147609 15722717
0.36899999 -0.058573306 0.10695497 14472649
0.37153387 -0.054539703 0.10434705 15459544
0.37483674 -0.045139384 0.10502659 15459546
0.37768641 -0.035185546 0.10491546 11644326
0.37478074 -0.024991227 0.10498251 2436134
0.37464553 -0.015159364 0.10504277 3224366
0.3782858 -0.0087642232 0.10634471 12039595
0.38146168 -0.0042611416 0.10458919 12762803
0.38281089 0.0048901332 0.10513972 13683904
0.38405964 0.015090734 0.10508304 14012357
0.3835482 0.025225561 0.10498583 14407372
0.38246477 0.035010293 0.10476466 14538959
0.38584712 0.043749876 0.10491886 13749443
0.39000005 0.048241273 0.10452054 11250080
0.36333331 -0.081466004 0.1117631 13223099
0.36493209 -0.07476373 0.11429319 12564908
0.36727273 -0.065862067 0.11350746 13617854
0.37108114 -0.063080713 0.11775291 12697010
0.36900002 -0.059485134 0.1105543 12235689
0.37330982 -0.055196602 0.11490248 12697009
0.37531367 -0.044924594 0.1149966 12893876
0.37682894 -0.03524249 0.11475033 9868171
0.36899999 -0.022685736 0.11893351 1909790
0.37165865 -0.025393769 0.11472183 2239011
0.36900002 -0.018021023 0.11919266 1844254
0.37188792 -0.014950357 0.11480354 3159342
0.37775216 -0.0054996256 0.11528713 12170923
0.38029417 -0.0026517482 0.11126672 13420734
0.3783201 0.0048217787 0.11713561 13552319
0.38097051 0.0052798055 0.11268283 13749442
0.37821928 0.015417346 0.11699045 13749442
0.38108486 0.014986447 0.11258516 14143686
0.376829 0.025451638 0.11612484 14275529
0.38046879 0.024142377 0.11142912 14472652
0.37740657 0.034313101 0.11533349 14275530
0.38005272 0.036367487 0.1110092 14538446
0.37900001 0.040048826 0.1184302 13092022
0.38227269 0.043294918 0.11479185 13355198
0.37255561 -0.063971847 0.12092213 11973545
0.37748277 -0.055482075 0.12138405 10790042
0.38072732 -0.052056685 0.12322462 11381923
0.3783077 -0.043479819 0.1208367 8947324
0.3808462 -0.047885336 0.12253996 9999756
0.36800003 -0.03020541 0.12421092 2370083
0.37617251 -0.034846101 0.12110616 6973793
0.36818829 -0.024735386 0.12290423 1843996
0.37033334 -0.029067853 0.12077903 2370341
0.36827499 -0.015733143 0.12308425 2567461
0.3707 -0.011766677 0.1209556 5198409
0.37782064 -0.0040279427 0.12188309 8354931
0.37760726 0.0052711749 0.12197255 9342083
0.37856528 0.013802823 0.12135787 11578273
0.38132596 0.015689407 0.12467046 9539719
0.375 0.025627015 0.12150774 10920856
0.3806667 0.0206197 0.12385311 9934733
0.37647218 0.034969818 0.12165397 12302254
0.38025001 0.039068345 0.12393975 10263441
0.38191426 0.04296555 0.12259763 12631731
0.36354548 -0.030907542 0.1376227 1844510
0.36317593 -0.025335923 0.13669474 2107424
0.3637262 -0.015754446 0.13721074 2895910
0.36324999 -0.031027434 0.1445874 1186322
0.36253554 -0.024836272 0.14487766 1120529
0.36283755 -0.015511426 0.14496616 2367257
0.36342394 -0.032582965 0.15642919 2829607
0.3647275 -0.025329897 0.15561999 659720
0.36399058 -0.0150927 0.15517099 2431763
0.36239225 -0.032534074 0.16337346 1711895
0.36369818 -0.02479963 0.16522987 1252114
0.36426148 -0.016190827 0.16495281 1250830
0.3486923 -0.033981822 0.17931774 1843994
0.35475674 -0.032135453 0.1792424 1120785
0.36281577 -0.032649864 0.17522569 1120016
0.34900001 -0.026031438 0.17972758 1646615
0.35508105 -0.024887243 0.17843728 989199
0.36176735 -0.025125306 0.17359976 1449238
0.35658488 -0.017237267 0.17890011 791308
0.36164871 -0.016596904 0.17470349 1120274
0.34433755 -0.033500183 0.18471746 1712407
0.3440451 -0.025003377 0.18468848 1515030
0.35000002 -0.021189893 0.18024258 1646616
0.34405613 -0.016677555 0.18558407 1448982
0.35338098 -0.015058732 0.18075337 1382676
0.359 -0.0095486054 0.18496144 5329996
0.36000001 -0.0087324372 0.18370685 9475210
0.34123522 -0.033183765 0.19175196 1580823
0.34043741 -0.024997244 0.19165553 1580053
0.34074289 -0.01661413 0.19142766 1580053
