# .PCD v0.7 - Point Cloud Data file format
VERSION 0.7
FIELDS x y z rgb
SIZE 4 4 4 4
TYPE F F F U
COUNT 1 1 1 1
WIDTH 444
HEIGHT 1
VIEWPOINT 0 0 0 1 0 0 0
POINTS 444
DATA ascii
0.54800004 -0.061400045 0.038780555 15525598
0.551 -0.063350305 0.038672734 15591391
0.54513335 -0.05504179 0.037706193 15723746
0.53857148 -0.042513676 0.038700134 15526367
0.54195464 -0.046020929 0.037112057 15723746
0.53900003 -0.03894148 0.039091732 15526624
0.54503715 -0.03441269 0.037398729 15724002
0.551 -0.033358943 0.034802444 16117219
0.54496431 -0.024975875 0.037515376 15526881
0.54348278 -0.014919163 0.037440065 15461089
0.54432267 -0.0054088235 0.03762503 15263453
0.54661894 0.0039550178 0.038483728 14934490
0.55054557 0.0060366238 0.036530778 15065817
0.54757148 0.012448649 0.039346516 14671319
0.5508334 0.013181806 0.037263054 14671574
0.52562505 0.028317198 0.038274441 14605012
0.53425002 0.023620103 0.039059177 14538962
0.52415794 0.034910493 0.038208112 14604756
0.52228564 0.044534594 0.038053639 14473171
0.523 -0.07022734 0.04894346 15131100
0.51850003 -0.064774521 0.049743123 15591906
0.52541178 -0.065600432 0.048305217 15591652
0.53507143 -0.064331591 0.045598608 15525857
0.54470587 -0.064407423 0.042052589 15459805
0.55166668 -0.06697575 0.040439587 15657183
0.50766665 -0.052127659 0.049892262 15460320
0.51471436 -0.054749545 0.049033795 15591906
0.52509087 -0.054027461 0.047467884 15657699
0.5350334 -0.054808233 0.044974577 15723491
0.54231578 -0.055822473 0.041602138 15657697
0.5075714 -0.045162044 0.049882907 15591905
0.51427287 -0.044653054 0.048237935 15789028
0.5241428 -0.044411339 0.045838885 15526369
0.53473526 -0.045296039 0.042455215 15591905
0.54000002 -0.049126919 0.040428407 15723490
0.50608337 -0.034292925 0.049042549 15591648
0.51522231 -0.035608284 0.047077641 15460318
0.523875 -0.036310103 0.045195453 15460831
0.53488469 -0.035604246 0.042254183 15657954
0.54100001 -0.033384036 0.040503275 15526111
0.49900001 -0.021741515 0.048748482 14934232
0.50341672 -0.025426308 0.047753256 15131098
0.51350003 -0.02868613 0.046556052 15328218
0.52500004 -0.02625067 0.04606548 15263195
0.53537506 -0.025083164 0.04324903 15394782
0.54112494 -0.02452597 0.040512633 15460831
0.49900004 -0.018334357 0.048651133 14802648
0.50285292 -0.014513167 0.047061093 14802649
0.52250004 -0.011450395 0.045234136 14933722
0.5376786 -0.015830208 0.043488648 15131868
0.54071426 -0.015016386 0.040481888 15395040
0.50364286 -0.005986046 0.048734639 14736600
0.51506257 -0.0052549588 0.046395622 14867929
0.52520001 -0.0050748512 0.044892311 14933722
0.53469568 -0.0054903356 0.042475305 15000027
0.54012501 -0.0055140099 0.040437762 15131868
0.49718755 0.0053970278 0.04944282 14604757
0.50431252 0.0056231958 0.04771293 14670550
0.51375008 0.0051289322 0.045975462 14670550
0.52450007 0.0041595758 0.044485506 14736343
0.53447622 0.0042850692 0.042690638 14802392
0.54225004 0.0051002693 0.040754881 14868442
0.49594444 0.015249674 0.049318209 14473171
0.50464284 0.013920956 0.047480822 14538964
0.51340914 0.015302261 0.045370437 14538964
0.52289999 0.015343154 0.04355327 14538964
0.53333336 0.011836489 0.042833716 14670550
0.54350007 0.014551306 0.040943272 14670550
0.48825002 0.021589004 0.048269056 14341585
0.49150002 0.020870194 0.047726378 14407378
0.50400001 0.021400969 0.047172166 14538964
0.51670009 0.022063144 0.045574784 14407378
0.5229311 0.026260033 0.043284494 14473171
0.44500002 0.033827491 0.049984053 14473171
0.509 0.039486952 0.045256987 14538964
0.51680005 0.038033135 0.043643441 14473171
0.52281487 0.033799369 0.042586479 14473171
0.44866669 0.041809212 0.048995197 14538964
0.45050001 0.04549437 0.049019307 14604244
0.50733334 0.041729886 0.045108795 14538964
0.51705885 0.042888314 0.042550817 14407378
0.52099997 0.045630477 0.040668689 14341585
0.48333335 -0.071692012 0.058431055 15394527
0.50700003 -0.070653118 0.052594606 15460320
0.51450002 -0.07029096 0.05116313 15394527
0.47593337 -0.062910832 0.05813767 15591906
0.484 -0.066203721 0.05759595 15460320
0.49758339 -0.06468346 0.055597972 15657699
0.5040834 -0.064686321 0.053468723 15591906
0.51363641 -0.064879455 0.051022705 15657699
0.46900001 -0.050353203 0.059267446 15394527
0.47316673 -0.055069789 0.05724965 15460319
0.48566666 -0.051756319 0.054168735 15394527
0.49694735 -0.055133134 0.054104239 15460321
0.50347626 -0.055514012 0.051945977 15591906
0.51125002 -0.058779474 0.050542906 15789285
0.45750007 -0.041799337 0.059598047 15395040
0.46481818 -0.044710152 0.058784425 15460576
0.47354063 -0.045533411 0.056117244 15263196
0.48353332 -0.045049991 0.053781312 15591905
0.49450004 -0.045784056 0.0521379 15328992
0.50408334 -0.044582546 0.050716657 15394784
0.44850004 -0.031879265 0.059826706 15065562
0.45700008 -0.036131784 0.059304807 15724005
0.46572733 -0.033782411 0.056732986 15197661
0.47264284 -0.03660189 0.054983553 14934489
0.48385718 -0.037544362 0.053210225 15724005
0.49509096 -0.034814227 0.052551594 15460834
0.50176477 -0.035353191 0.051037699 15263197
0.4465 -0.024557792 0.059818018 14999513
0.45766672 -0.026016334 0.058814194 15065820
0.46297824 -0.025016433 0.055415686 14933977
0.47200003 -0.028576083 0.053016793 15460831
0.49756005 -0.023928376 0.052157234 15131354
0.50033337 -0.027949655 0.050342847 15065561
0.43900001 -0.018870376 0.059587177 14999515
0.44471434 -0.015458165 0.059616685 14868184
0.45435303 -0.014304758 0.058725681 14736855
0.4640488 -0.015267631 0.055828262 14736599
0.47066668 -0.012335313 0.054703165 14802136
0.48160005 -0.012470046 0.054545045 14933722
0.49681076 -0.015432784 0.052184299 14999514
0.5 -0.01154313 0.050309312 14867929
0.43887502 -0.0025552781 0.059184823 14605011
0.44275001 -0.0064682052 0.059315749 14670549
0.45142859 -0.0061979326 0.058856893 14802135
0.46395001 -0.0056598908 0.057484519 14670550
0.47484615 -0.0043002451 0.055555589 14736343
0.48523808 -0.0048133601 0.054281127 14867929
0.49434376 -0.0054838476 0.051540501 14736343
0.42700002 0.0086350385 0.059957601 14407632
0.4352273 0.0047172424 0.059071682 14407632
0.44800001 0.0017182797 0.058711231 14407378
0.45422226 0.0058204583 0.058815777 14473171
0.46521881 0.0049810908 0.056811821 14407378
0.47318184 0.004837756 0.054554258 14538964
0.48447368 0.005351895 0.052800864 14473171
0.49256253 0.0036895128 0.051144365 14538964
0.42687505 0.012631116 0.059689563 14276046
0.43457896 0.015297383 0.059250511 14210254
0.44569999 0.017462522 0.058298387 14275792
0.45513794 0.016642483 0.055707783 14341585
0.46338099 0.01331877 0.055040263 14341585
0.47405884 0.013799764 0.053243231 14407378
0.48474997 0.014463449 0.051663585 14473171
0.49071431 0.013940523 0.050523762 14407378
0.41712502 0.027416022 0.05856983 14407632
0.42550004 0.022549564 0.059746981 14341839
0.43588889 0.022592336 0.058932617 14341584
0.44495162 0.025306029 0.054738738 14341585
0.4518182 0.021201681 0.052671231 14407378
0.48700002 0.021059135 0.05052137 14473171
0.41779998 0.033845916 0.058435574 14473425
0.42127275 0.036362223 0.057449568 14473426
0.43500003 0.039039731 0.055986404 14473171
0.44321671 0.034776431 0.053533599 14407378
0.41850004 0.043081924 0.059743788 14736596
0.42435148 0.045670886 0.057939563 14473424
0.43472013 0.04478861 0.055131108 14407377
0.44455886 0.044560343 0.05231249 14538706
0.42660004 0.05066999 0.057301033 14473423
0.43100002 0.050588548 0.055474374 14539216
0.44500002 0.05014829 0.052067559 14077897
0.44812503 -0.07368324 0.068757407 15262941
0.45152625 -0.072339676 0.066010125 15262941
0.46900001 -0.070116073 0.063659191 15394527
0.47666669 -0.070890024 0.061533988 15460320
0.43788889 -0.062391169 0.069344848 15394272
0.44580561 -0.065286405 0.067574956 15460320
0.45346445 -0.065404303 0.064579591 15526113
0.46437502 -0.06520348 0.062889799 15526113
0.47284615 -0.065240294 0.061110564 15460320
0.42680001 -0.053218 0.069520205 15262685
0.43528572 -0.054908913 0.067575045 15262941
0.44406527 -0.055362202 0.06426654 15328477
0.45233336 -0.055449922 0.062103171 15328734
0.46800002 -0.053807113 0.060783301 15394527
0.47033337 -0.057471026 0.06072038 15460320
0.41609094 -0.042106126 0.069314294 15394527
0.42448491 -0.044851407 0.068299547 15394527
0.43466675 -0.045464043 0.065538831 15394527
0.44372737 -0.045215547 0.062583536 15394527
0.45327774 -0.044600174 0.060813367 15328990
0.41530564 -0.034595195 0.068681352 15394527
0.42400008 -0.03557092 0.066532627 15197148
0.43431818 -0.034591246 0.063449219 15394783
0.44374999 -0.034923397 0.060877893 15197148
0.45139998 -0.036842801 0.060213547 14999769
0.4086 -0.02282601 0.069808967 14999769
0.41451162 -0.024758156 0.068375729 15065562
0.42389363 -0.025072666 0.065487333 15065306
0.43390709 -0.024784099 0.061863579 14999771
0.44357148 -0.027741522 0.060354825 14999770
0.45800003 -0.027192395 0.060021754 15065821
0.40739289 -0.014481594 0.068783797 14933976
0.41361111 -0.014878064 0.066786312 14933976
0.42455184 -0.015321835 0.06464605 14868185
0.43410006 -0.015098244 0.062293738 14802393
0.44150004 -0.013119441 0.060527384 14736343
0.40771869 -0.0048515932 0.068701662 14736597
0.41286281 -0.0050991308 0.065526702 14605012
0.42408332 -0.0069009024 0.063680537 14736598
0.43580782 -0.0051552975 0.061541438 14605012
0.44100001 -0.0088053029 0.060545344 14736343
0.4057335 0.0051136967 0.068125054 14605010
0.41393024 0.0048027234 0.064920157 14407377
0.42432272 0.0058428845 0.062073559 14341584
0.43383336 0.0014897335 0.060407549 14473425
0.40457857 0.015456566 0.066734172 14605011
0.41406456 0.014422488 0.06310685 14341583
0.42389998 0.012742405 0.061451782 14275791
0.4046827 0.024748569 0.066593654 14933718
0.41299999 0.025573673 0.061960045 14407632
0.42850003 0.020702302 0.060168225 14407632
0.40395117 0.035084136 0.066843048 15196632
0.41333339 0.034728386 0.062089749 14736596
0.40548205 0.045035336 0.066805303 15131095
0.41330618 0.044858117 0.061937574 14802388
0.40649998 0.051475942 0.067149393 13025720
0.41288888 0.050933052 0.062051628 13092027
0.40733334 -0.071069337 0.079285152 15393757
0.41513342 -0.074665107 0.078401543 15196635
0.42368585 -0.073570184 0.075608611 15262430
0.43481249 -0.072704181 0.073008269 15262687
0.4440001 -0.075272985 0.071520686 15196894
0.40560535 -0.064288676 0.078687079 15393757
0.41458535 -0.064606503 0.076386049 15393759
0.42413339 -0.065040208 0.073136412 15328480
0.43304771 -0.065370999 0.070796788 15394529
0.39586854 -0.053333968 0.078358479 15591648
0.40402046 -0.054974347 0.075886779 15459807
0.41510004 -0.055545714 0.073243119 15328735
0.42316014 -0.055814192 0.071300946 15394527
0.43000001 -0.05925234 0.070445225 15065562
0.39404938 -0.044743817 0.077219687 15657697
0.40304258 -0.044246729 0.072843164 15525857
0.41370595 -0.04545071 0.070677869 15460320
0.421 -0.049142055 0.070447981 15394527
0.38880005 -0.033005081 0.079350449 15854306
0.39442363 -0.034892019 0.076812938 15591648
0.40455016 -0.035066005 0.072277948 15460320
0.4111 -0.034994982 0.070236102 15394527
0.39402303 -0.024830772 0.076952718 15460061
0.40301612 -0.025040267 0.072207585 15197148
0.41000003 -0.027701896 0.070048161 15131355
0.39434049 -0.01488606 0.076588221 15262939
0.40258926 -0.015032661 0.071653709 15131355
0.39423224 -0.0050354996 0.076428704 14802389
0.40252274 -0.0054169763 0.071420707 14868183
0.39481303 0.0047005308 0.076016635 14539216
0.40090317 0.0045473613 0.071247466 14736595
0.39514926 0.014873846 0.075521745 14605008
0.40011117 0.014386793 0.070596136 14736595
0.39592487 0.025039662 0.075161614 14868180
0.40000004 0.024944358 0.070212476 14999766
0.39671767 0.035085998 0.075246058 14999509
0.40000007 0.034776635 0.070212476 15196631
0.39730486 0.044331171 0.076437429 14539214
0.40078562 0.046262544 0.072291635 14867409
0.39760005 0.050391387 0.077792801 11183772
0.40233335 0.050991084 0.072344072 12367532
0.39200002 -0.080628783 0.089914851 14735573
0.38471428 -0.072697431 0.087798886 15327708
0.3947143 -0.072075829 0.084583893 15327963
0.40397143 -0.07363683 0.082195908 15262171
0.41216668 -0.077059604 0.080548696 15197148
0.3845506 -0.064760521 0.086766861 15788256
0.39467654 -0.065307319 0.082938351 15459293
0.4014231 -0.066015705 0.080905646 15459550
0.38452953 -0.054861456 0.08549694 15920099
0.39240006 -0.055988878 0.080926634 15591392
0.38472816 -0.044825938 0.084887654 15854819
0.39000002 -0.047166921 0.080326125 15985892
0.38521126 -0.03506327 0.084773682 15065046
0.38571298 -0.02515603 0.084840931 13881030
0.38656947 -0.01535725 0.08527074 13946823
0.39000002 -0.013112129 0.080326132 15262169
0.38753587 -0.0053884238 0.085617907 14276043
0.39004996 -0.004941023 0.080747269 14605008
0.38848922 0.0044376883 0.086635672 14012871
0.39039999 0.0052451529 0.081686877 14276042
0.38896716 0.014576176 0.087308213 13947077
0.39060667 0.014681668 0.08262217 14210249
0.38899997 0.021281242 0.088105924 14144457
0.39140651 0.025288193 0.084344879 14473421
0.39231035 0.035027664 0.084927917 14670800
0.39504376 0.044892747 0.085251443 14078920
0.39700001 0.050315343 0.081303187 11184800
0.37384003 -0.081689335 0.097471349 14801364
0.386875 -0.080704771 0.093033612 14801621
0.3906 -0.081437826 0.091604188 14867159
0.37388709 -0.074780516 0.096314192 15788256
0.38285714 -0.075728096 0.091675319 15327706
0.37529862 -0.065057047 0.095746301 15919841
0.38048151 -0.065228872 0.090636998 16051171
0.3768748 -0.055200722 0.0959327 15854047
0.38039991 -0.054228909 0.090844952 15919585
0.37830675 -0.045031983 0.097458325 15262426
0.38058907 -0.044960421 0.092263088 15327962
0.37870595 -0.035859462 0.098546445 11973805
0.38117439 -0.034734242 0.094074503 12368049
0.3779642 -0.024393842 0.095935524 2698538
0.38057581 -0.026038522 0.091235191 3091756
0.37786189 -0.015722862 0.096191667 3026731
0.38116658 -0.013538276 0.092260666 4144184
0.38386643 -0.0053399242 0.094911397 13157561
0.38568449 0.0045792586 0.095154278 13618112
0.38744634 0.014704606 0.094834417 13749698
0.38842979 0.024451748 0.095478877 14341835
0.39000002 0.02751624 0.090977758 14473421
0.3877061 0.034948681 0.095534414 14539472
0.38999999 0.033964276 0.09065441 14670801
0.38830233 0.042428412 0.096737728 14144970
0.39141431 0.045709599 0.093742996 13552577
0.36435616 -0.08245755 0.10575647 14274758
0.37208331 -0.083068334 0.10116922 14735570
0.36545107 -0.075090021 0.10490191 15196373
0.37 -0.076536782 0.10045978 15656668
0.3673439 -0.065480925 0.10582693 14801359
0.37072408 -0.063470438 0.10137275 15788253
0.36882612 -0.058367904 0.10697316 14472649
0.37162805 -0.054605026 0.10409298 15459802
0.37513575 -0.044960134 0.10486872 15459803
0.37741196 -0.035157621 0.10503539 11709862
0.37466222 -0.024916416 0.10497408 2567206
0.37490642 -0.015061373 0.10506634 3421486
0.37844005 -0.0088779749 0.106506 12170922
0.38153273 -0.0043639932 0.10465543 12762546
0.38281277 0.0048587015 0.10530648 13683649
0.38411373 0.015061153 0.1051272 13947077
0.38366866 0.025196163 0.10498711 14407372
0.38254544 0.035049599 0.10474817 14538958
0.38614434 0.044039991 0.10497088 13552577
0.39033332 0.04840447 0.10201994 10987678
0.36308333 -0.081409901 0.11168624 13223099
0.3651793 -0.074918307 0.11431056 12499372
0.36738551 -0.065985516 0.11338929 13814976
0.37107146 -0.063414708 0.11773278 12631215
0.36900002 -0.059269175 0.11120218 13024690
0.37350899 -0.055017184 0.1150597 12762803
0.37516069 -0.044878043 0.11436868 13025975
0.37679824 -0.03511294 0.1148949 9670534
0.36899999 -0.022772118 0.11919266 1974812
0.37157351 -0.025273891 0.11479869 2369826
0.36900005 -0.018884858 0.11919266 1843225
0.37184444 -0.014922065 0.11487538 3290413
0.37779623 -0.0056457194 0.11543122 12105130
0.38036367 -0.0025877983 0.11169165 13486527
0.37830147 0.00492618 0.11728236 13552575
0.38097179 0.0050989562 0.11276951 13683906
0.3783001 0.015354775 0.11714791 13749698
0.38087088 0.015079233 0.11262736 14012613
0.37682202 0.025386266 0.11600547 14275529
0.38053331 0.024144836 0.11136636 14472651
0.37735817 0.034423124 0.11517806 14341066
0.38006258 0.03604662 0.11075454 14472651
0.37900004 0.040048826 0.11709934 13288890
0.38272154 0.043477092 0.1147389 13223355
0.37333336 -0.062365916 0.12059239 12368301
0.37736845 -0.054920271 0.12096503 10657943
0.38057145 -0.05155002 0.12242174 10591382
0.37809095 -0.04260515 0.12084181 8947068
0.38078573 -0.048077885 0.1221729 9932937
0.36833334 -0.030347742 0.12472452 2107426
0.37662977 -0.035192605 0.12103108 7434344
0.36861438 -0.024686025 0.12317295 1909534
0.37071434 -0.028891485 0.12098513 2501414
0.36898658 -0.015912831 0.12347275 2566947
0.37024999 -0.012808341 0.12104082 3750451
0.3773948 -0.0037613809 0.12178669 8223860
0.37716207 0.0048006251 0.12228231 9079169
0.3784501 0.012794049 0.12171291 11051930
0.3815347 0.016597712 0.12409647 9802890
0.37433329 0.025496641 0.12126055 11183771
0.3806667 0.0206197 0.12385309 9934731
0.37658063 0.035650324 0.1213854 12697524
0.38000003 0.03926491 0.12452501 8947324
0.37900001 0.040048826 0.12064831 13157815
0.38179997 0.042953134 0.12255933 12565938
0.36375004 -0.030963872 0.13921094 1844252
0.36300001 -0.028987709 0.13913664 2239268
0.3635217 -0.030999772 0.14469585 1186322
0.36304712 -0.025020296 0.14569773 988943
0.36278591 -0.015865901 0.14603207 1710355
0.36396566 -0.032417499 0.15654215 2632742
0.36494479 -0.025295071 0.15539642 659722
0.36392087 -0.015307214 0.1550985 2234899
0.36230776 -0.032616422 0.16342306 1711895
0.36359143 -0.024796147 0.1651459 1317650
0.36431384 -0.016436528 0.16481817 1250830
0.34834999 -0.033119317 0.1791064 1909276
0.35546663 -0.032197695 0.17905107 1054480
0.36266682 -0.032676816 0.17512478 1054480
0.34772414 -0.026718738 0.17948881 1711639
0.35534924 -0.024817394 0.17827885 923407
0.36185107 -0.025068302 0.17355826 1515030
0.35654163 -0.017564559 0.17894088 791565
0.36161035 -0.016404862 0.17520212 1251860
0.34442174 -0.033541862 0.18477288 1712152
0.34407699 -0.024804164 0.18508397 1515030
0.35000002 -0.020370537 0.18024258 1515030
0.34428662 -0.016650641 0.18552405 1383446
0.35357144 -0.01493708 0.18065228 1317139
0.36100003 -0.010306058 0.18252693 987915
0.36100003 -0.0091792485 0.18252692 6777954
0.34118176 -0.033097882 0.19174762 1515032
0.3405416 -0.025004232 0.19171394 1514776
0.34102774 -0.016607134 0.19154327 1580055
0.79416674 0.089496851 0.31508741 10000783
0.79416662 0.095074482 0.31508669 10132112
0.79492599 0.10426336 0.31487471 10328977
0.79250002 0.089309037 0.32185066 10000782
0.79243994 0.094868824 0.32505482 10066320
0.79383349 0.1349825 0.32456177 10395284
0.79195994 0.14486918 0.32441461 10395540
0.79300004 0.089365378 0.33504933 9934989
0.79383343 0.095191859 0.33509162 10066575
0.79200006 0.089252688 0.34667838 9934990
0.79430771 0.095308825 0.34518418 10000783
0.7922501 0.088585287 0.35490295 9869197
0.79403841 0.095205016 0.35479072 9934990
0.79300004 0.089365378 0.36011109 9869196
0.79332131 0.095172539 0.36456853 9869196
0.79359454 0.10504755 0.36469272 10000782
0.78900003 0.11698997 0.36863822 10066832
0.79336852 0.1146754 0.36378413 10066832
0.78900003 0.12331616 0.36868435 10066832
0.79368591 0.12538016 0.36412421 10132368
0.79532272 0.13479321 0.36548221 10198161
0.7924571 0.15502815 0.36463383 10132626
0.79334468 0.16516837 0.3644293 10132627
0.79375005 0.10523988 0.37439096 9935246
0.78900003 0.11754408 0.37122408 10132625
0.79147375 0.11454512 0.37560883 9935247
0.78900003 0.12331615 0.37191674 10001039
0.79078573 0.1254802 0.37576792 10066833
0.7937727 0.13481435 0.37482253 10132625
0.79523814 0.15503868 0.37496018 10132625
0.79538107 0.16473576 0.37484905 10132627
0.79525 0.12499194 0.3844083 10001041
0.79461116 0.10628965 0.40455616 9737869
0.79356766 0.15534985 0.4047493 10000783
0.79278368 0.1651331 0.4042975 10066575
0.79464006 0.15524927 0.41495484 10001040
