# .PCD v0.7 - Point Cloud Data file format
VERSION 0.7
FIELDS x y z rgb
SIZE 4 4 4 4
TYPE F F F U
COUNT 1 1 1 1
WIDTH 459
HEIGHT 1
VIEWPOINT 0 0 0 1 0 0 0
POINTS 459
DATA ascii
0.81350005 0.20499021 -0.22094923 5524292
0.81066674 0.19763227 -0.212587 5261125
0.8152501 0.20384152 -0.21696413 5458499
0.82122231 0.20725569 -0.21343231 5787464
0.82499999 0.21078329 -0.21376748 5261377
0.81127787 0.16517566 -0.2038843 13092285
0.81000006 0.17092259 -0.20198449 13092286
0.81228578 0.19748518 -0.20459349 10392975
0.81800002 0.201335 -0.20493686 5392192
0.82164294 0.20621856 -0.20488636 5787205
0.82800007 0.21210358 -0.20633459 5590339
0.81000006 0.15859714 -0.19914016 13092285
0.81037503 0.16459846 -0.19852126 13092285
0.81150007 0.19783542 -0.19666225 5654850
0.8173334 0.20372184 -0.19520445 5721412
0.82083338 0.20619667 -0.19796038 5852741
0.82600003 0.21103877 -0.19920643 5655362
0.81000006 0.20126218 -0.18776281 4932668
0.81200004 0.20556562 -0.1704815 5195325
0.81099999 0.19771411 -0.16426255 7629153
0.81488889 0.2026884 -0.16705881 5721413
0.82253844 0.20615754 -0.16444792 5918791
0.82600009 0.21103877 -0.16729836 6050635
0.83390909 0.2132372 -0.16348583 5787462
0.8131429 0.19606146 -0.15476863 13155509
0.8245455 0.20558096 -0.15568809 6049864
0.8344 0.21201348 -0.1566972 5984585
0.81146169 0.19563627 -0.14470202 11314333
0.81675005 0.20150666 -0.1448786 6510160
0.82050002 0.20387173 -0.14889945 6050120
0.81000006 0.19898672 -0.13466851 5655363
0.81100005 0.20151065 -0.13673335 5918534
0.80866671 0.19209665 -0.12813623 13355457
0.81094128 0.19535473 -0.12510675 9998987
0.8145715 0.20130882 -0.1228934 5655362
0.81000006 0.18988484 -0.1176025 12698297
0.81273335 0.19446085 -0.11533543 11446692
0.81825006 0.20187585 -0.11736291 5524287
0.8202858 0.20464125 -0.11552982 5919046
0.81140006 0.19553229 -0.10603044 7696749
0.81300002 0.20010434 -0.10281208 5920331
0.82000005 0.2037469 -0.1094562 5458497
0.81000006 0.19557351 -0.091055356 4538941
0.80806673 0.17524393 -0.085162833 12566198
0.8120001 0.1960564 -0.085577466 5393993
0.8083846 0.19256333 -0.074568026 12105136
0.81100005 0.19581495 -0.07560233 4670270
0.80860007 0.19239652 -0.064397179 12434100
0.81000006 0.19557351 -0.065456331 3815215
0.54657143 -0.062522776 0.038910132 15656927
0.54317862 -0.054919075 0.037758749 15723491
0.53861547 -0.04453969 0.038384408 15657182
0.54046667 -0.045879927 0.036329888 15724003
0.5461154 -0.034483131 0.03768779 15658467
0.55000001 -0.03372759 0.035168473 15987431
0.54690909 -0.024906961 0.03832427 15526625
0.55075008 -0.024963256 0.036075968 15724776
0.54577416 -0.014373773 0.037726242 15460832
0.55000001 -0.019135242 0.036026843 15855591
0.54566669 -0.0050281975 0.037727229 15263452
0.53900003 0.0058527319 0.039091732 14868696
0.54429168 0.003625016 0.037347343 14934488
0.53900003 0.015000844 0.038776282 14737110
0.54376924 0.014275908 0.037477657 14737624
0.551 0.015657291 0.036092348 10921889
0.52900004 0.027946863 0.038897213 14473683
0.53225005 0.023525817 0.03901615 14473683
0.54050004 0.021052277 0.03666988 14869209
0.51566672 -0.061400179 0.0494713 15657699
0.52416664 -0.063846521 0.04834098 15657443
0.53468436 -0.064053871 0.046216387 15526112
0.54323816 -0.063894689 0.042603515 15394269
0.5163334 -0.052207571 0.049130265 15591906
0.52412504 -0.054424673 0.047824401 15591906
0.53488231 -0.054994408 0.044564947 15657698
0.54125005 -0.057057101 0.041365735 15591904
0.51589471 -0.044395279 0.048473231 15657442
0.52490485 -0.044767819 0.045963038 15591906
0.53490913 -0.044902679 0.042277336 15526110
0.50433332 -0.03132255 0.048773408 15197148
0.51382619 -0.035924327 0.047146082 15460320
0.52380002 -0.036123604 0.045099936 15460576
0.53662503 -0.036873374 0.042213 15723489
0.54436368 -0.033532199 0.041218836 15723490
0.49682143 -0.023808753 0.048118599 14999770
0.5036667 -0.028725015 0.047329027 15065562
0.514 -0.029915586 0.045701556 15065562
0.53671426 -0.024830336 0.044606932 15263454
0.54304761 -0.024645576 0.041742809 15395040
0.498 -0.01649786 0.047775645 14867928
0.50184613 -0.012215486 0.046606816 14868184
0.51000005 -0.010580074 0.045345906 14868183
0.52400005 -0.010870508 0.045364 14868183
0.53814298 -0.01548325 0.044607211 14934233
0.54257888 -0.015199194 0.041620981 15329247
0.49578577 -0.0049011884 0.049302869 14736343
0.50266665 -0.0064926916 0.047437537 14868183
0.51414293 -0.0049887155 0.046744306 14867928
0.52520001 -0.005982073 0.045958564 15065562
0.53613627 -0.0054769148 0.043785807 14934489
0.54186666 -0.0052387854 0.041243311 15197661
0.49653339 0.0044981185 0.049260538 14604757
0.505 0.0060737981 0.047799941 14670804
0.51583344 0.0061043003 0.046969522 14604757
0.52545452 0.0064324276 0.044927012 14670804
0.53531033 0.0047521056 0.042144343 14802648
0.54033333 0.00059640739 0.040874749 14934489
0.49363998 0.016056441 0.048462998 14473171
0.50471431 0.014503894 0.047573783 14538964
0.51616669 0.014164924 0.046395179 14604757
0.52488899 0.015281903 0.043935154 14473427
0.53442866 0.013991136 0.041316792 14539477
0.48827592 0.026959024 0.047158256 14538964
0.49060005 0.022896912 0.046452984 14407378
0.5280304 0.025571933 0.043313224 14407635
0.53060001 0.022529062 0.040966798 14473171
0.48659387 0.035002645 0.047817696 14473171
0.4926154 0.035739802 0.044593964 14473427
0.50266671 0.037819657 0.043517116 14473171
0.51100004 0.03964211 0.043042298 14473171
0.485091 0.04498459 0.046378348 14473172
0.49244446 0.04229705 0.044423815 14407891
0.50433332 0.042076945 0.043067958 14473171
0.51100004 0.040838368 0.043042298 14538964
0.47900003 -0.072732441 0.059409797 15328734
0.48337504 -0.071696289 0.058390085 15394527
0.49200001 -0.070099257 0.056415047 15460320
0.50400001 -0.070034504 0.052467547 15460577
0.47800004 -0.063070498 0.059005432 15591650
0.48390001 -0.065093055 0.057972651 15591906
0.49630004 -0.065483846 0.055219878 15591906
0.50303447 -0.064681642 0.052315272 15592162
0.51179999 -0.064055368 0.050298475 15658212
0.46900001 -0.050353203 0.059267446 15328734
0.47554162 -0.054212689 0.058373284 15459806
0.48357141 -0.054498546 0.055925932 15525856
0.49463642 -0.055102911 0.053395655 15460320
0.50389481 -0.055775769 0.051378984 15591906
0.51025009 -0.056575146 0.050146148 15723748
0.45700005 -0.04336109 0.059413653 15197661
0.46433339 -0.044419717 0.058251135 15591904
0.47453329 -0.04583434 0.05603401 15262940
0.484 -0.045294091 0.053543888 15526113
0.49488893 -0.047205772 0.052493971 15328734
0.50445455 -0.045357261 0.051078033 15263454
0.51077783 -0.04527241 0.050198019 15460576
0.45620006 -0.035361025 0.058981948 15592161
0.46446425 -0.033127874 0.056704156 15197147
0.47363329 -0.035515584 0.053822342 15328991
0.48212501 -0.034829762 0.051611137 15328991
0.49740005 -0.034534175 0.050745327 15197148
0.50328577 -0.036365885 0.05063992 15066075
0.5108 -0.036905032 0.050200202 15855591
0.44900003 -0.02192802 0.059893403 14868696
0.45695654 -0.025527351 0.058812 14934489
0.46315911 -0.024892639 0.055318948 14868440
0.47416672 -0.027412286 0.052887943 15197661
0.48100004 -0.025742877 0.052901678 15263454
0.49305263 -0.024263885 0.051914699 15131611
0.447 -0.013973596 0.059624564 14737111
0.45400009 -0.013763696 0.058817375 14671063
0.46474358 -0.015218482 0.056098498 14736599
0.47454548 -0.01317753 0.054308061 14868185
0.48533335 -0.012534621 0.05280472 14933976
0.49530011 -0.015204835 0.051166218 14868184
0.4387143 -0.0022062676 0.059108291 14604757
0.44471428 -0.006630688 0.059167881 14539477
0.45733333 -0.0071663712 0.058147799 14671063
0.46605554 -0.0054239095 0.057316344 14605013
0.47449997 -0.0054042675 0.055375453 14802135
0.48459262 -0.0048402376 0.052912347 14736342
0.49176928 -0.006043504 0.050896015 14736597
0.43577781 0.0050044917 0.059259839 14341585
0.44850004 0.0038241879 0.058776759 14407378
0.45757145 0.0074923239 0.058127891 14341585
0.4659999 0.0048583015 0.056529019 14407378
0.47417393 0.0045036124 0.053881951 14538964
0.48366669 0.0047636358 0.052134331 14473170
0.49230778 0.004324859 0.050685301 14539218
0.42850003 0.012926025 0.059415005 14209999
0.43377277 0.015184102 0.058918837 14209999
0.44814286 0.016779767 0.05812965 14341585
0.45565 0.016357858 0.056294601 14275792
0.46465224 0.014527007 0.054691862 14341585
0.47450009 0.013427271 0.053126235 14341585
0.48452184 0.014458124 0.051114202 14407633
0.49000001 0.017365202 0.050450221 14407378
0.41705549 0.027254097 0.058505971 14407632
0.42540002 0.023236619 0.059732936 14473425
0.43650007 0.023394722 0.058424156 14275792
0.44462004 0.025451927 0.054781009 14341585
0.45333338 0.021838456 0.052687295 14341585
0.46400002 0.020788712 0.052118205 14473425
0.47600001 0.020212026 0.052351762 14341585
0.48744446 0.025135254 0.050313517 14473170
0.41733325 0.033822257 0.058561929 14473426
0.42230001 0.037213601 0.057712071 14538963
0.43520004 0.039058052 0.056011677 14407378
0.44401786 0.034481544 0.054043334 14407377
0.486 0.033151731 0.050038386 14473171
0.41825002 0.043710019 0.059708096 14670802
0.42412832 0.044611923 0.057866476 14473425
0.43350005 0.044237886 0.055368807 14341840
0.44388238 0.045135394 0.0529068 14473426
0.42566669 0.050626617 0.058108259 14539218
0.43437502 0.051239274 0.056029916 13881288
0.44250003 0.050382756 0.053843334 13749702
0.44790474 -0.073827133 0.067707643 15197148
0.45133337 -0.070995778 0.064077474 15328734
0.46900001 -0.072311953 0.064757131 15328734
0.47633335 -0.071336232 0.061431512 15394527
0.43900001 -0.060492504 0.069864243 15197661
0.44646508 -0.065194339 0.067909442 15460320
0.45358068 -0.065066442 0.064369746 15460320
0.46450001 -0.06577377 0.062906474 15460320
0.47388229 -0.065948308 0.060923435 15460320
0.42600003 -0.0517218 0.069789924 15131354
0.43676922 -0.054090824 0.068089947 15328733
0.44500005 -0.055069707 0.064438209 15328477
0.45220003 -0.056171864 0.061589558 15328734
0.47399998 -0.057738278 0.060267616 15591392
0.41494736 -0.044193257 0.069255807 15460320
0.42394441 -0.044078268 0.068123609 15262941
0.43458977 -0.04535247 0.06628456 15394526
0.44400004 -0.045187436 0.062856086 15328733
0.45163634 -0.044641212 0.060820118 15263453
0.41579315 -0.03473736 0.068885624 15263198
0.42421061 -0.03490708 0.066771023 15262686
0.43494996 -0.034989066 0.064120218 15394527
0.44438717 -0.035360839 0.061519705 15197148
0.45110005 -0.035229474 0.060173523 14802903
0.40860003 -0.02282601 0.069808967 14999769
0.41480011 -0.024682252 0.068271831 15065562
0.42439136 -0.02495789 0.06526237 15065306
0.43375003 -0.024946729 0.062717937 15131355
0.44400001 -0.025593195 0.061178152 14934233
0.45214292 -0.026318083 0.060312636 14934489
0.40780771 -0.014409318 0.068937726 14999769
0.41411364 -0.014764098 0.066646419 14933976
0.42389658 -0.016670715 0.064579077 14868184
0.4347778 -0.015428065 0.062551089 14867927
0.44204772 -0.013653769 0.06088553 14736854
0.40664104 -0.0049964911 0.068956986 14802390
0.4128814 -0.0049951132 0.065062284 14605011
0.42100003 -0.0082403775 0.063549578 14736597
0.43685001 -0.0043061962 0.061949827 14604756
0.44111115 -0.0080054188 0.061019011 14671063
0.405193 0.005337222 0.0679859 14539219
0.41333336 0.0038787951 0.064731389 14407633
0.42438889 0.0058864881 0.062288072 14341584
0.43362504 0.0029850889 0.060885515 14473170
0.4049103 0.01517571 0.067099921 14605010
0.41358832 0.015166265 0.063166015 14276047
0.42546672 0.013419661 0.061195288 14144206
0.40544739 0.024975484 0.06679938 14933718
0.41289583 0.02508446 0.061998922 14407633
0.42650002 0.020107035 0.060384862 14210253
0.4043934 0.035144705 0.066628195 15131096
0.41311783 0.034814849 0.061719779 14670804
0.40530339 0.0448987 0.06646093 15130839
0.41275606 0.045170434 0.061580751 14802389
0.40580964 0.051341217 0.067289412 13157050
0.41357145 0.050756812 0.061522007 13815751
0.40799999 -0.071121871 0.0792564 15327708
0.41562501 -0.074669473 0.078342907 15262173
0.42391187 -0.074344456 0.076210998 15196893
0.43466669 -0.073313996 0.073720209 15262941
0.44434622 -0.076238088 0.071709983 15131098
0.4066945 -0.064479068 0.078657061 15393503
0.41412121 -0.064904802 0.07650201 15393759
0.42374203 -0.064979665 0.074211754 15328478
0.43390626 -0.065217309 0.071775183 15328734
0.44114289 -0.064923689 0.070205264 15394527
0.39574078 -0.053026184 0.078758948 15656929
0.40453339 -0.054982174 0.076093167 15459807
0.41446429 -0.05469013 0.072503857 15460063
0.42450002 -0.056320976 0.071527757 15328733
0.4328889 -0.057624657 0.07057853 15131612
0.39454314 -0.044524241 0.077224605 15657442
0.40447068 -0.045110483 0.072878562 15526113
0.41169232 -0.045242779 0.070559509 15328733
0.39477649 -0.0350198 0.07687176 15591649
0.40473229 -0.03480763 0.072182737 15394526
0.41177776 -0.035424862 0.070351899 15328734
0.39475861 -0.024877327 0.077095963 15460062
0.40332255 -0.025058258 0.072262339 15197147
0.41060004 -0.027743842 0.070150666 15131355
0.39421955 -0.014569614 0.076688103 15262683
0.40252477 -0.015178838 0.071869262 15065562
0.39441296 -0.00503683 0.076050751 14802389
0.40159261 -0.0057914783 0.071255364 14933976
0.3947601 0.0047487095 0.075746529 14539216
0.40031818 0.0048133028 0.07073652 14670804
0.3950403 0.014986686 0.075427622 14604752
0.40000007 0.014234201 0.070505105 14736596
0.39622673 0.025096267 0.07517419 14933974
0.40000004 0.024944358 0.070212476 14999767
0.39669073 0.035097025 0.075489327 14999510
0.40000007 0.034611382 0.070542976 15065304
0.39705196 0.044321872 0.07669092 14539215
0.40072331 0.045879923 0.072313525 14802130
0.39633337 0.05023085 0.078846313 11381667
0.40270001 0.050943412 0.072191693 12762291
0.39133337 -0.081103057 0.089150541 14933207
0.38659468 -0.073602363 0.088351607 15262171
0.39293033 -0.075680114 0.086118832 14999513
0.40392306 -0.07354892 0.082334638 15196635
0.41292313 -0.077498905 0.081252135 15196378
0.38473576 -0.06486623 0.086847723 15788257
0.39368576 -0.064939797 0.083264008 15393502
0.40236661 -0.065901831 0.08117497 15327965
0.38431007 -0.054997366 0.085693926 15920099
0.39237508 -0.055794168 0.080888443 15656673
0.38419279 -0.045009881 0.085051447 15920099
0.39000005 -0.04506702 0.080326132 16051686
0.38526434 -0.0351285 0.085023977 14999254
0.39000005 -0.033915419 0.080326132 15657697
0.38578874 -0.025135729 0.084895775 13815750
0.39000002 -0.029089577 0.080326125 15591904
0.38646454 -0.0153438 0.085048907 13947336
0.39000002 -0.011286134 0.080326125 14933974
0.38750002 -0.0054254001 0.085440792 14341835
0.39006248 -0.0045529073 0.080624305 14605009
0.3881087 0.0044343071 0.086549357 14012870
0.39074999 0.0052511771 0.081759803 14276042
0.38897994 0.014404569 0.087655753 13881284
0.39095899 0.014971258 0.083039954 14209993
0.38899997 0.022121849 0.088666327 14144456
0.3915039 0.025159299 0.084264196 14473423
0.39240155 0.035036981 0.084946945 14670545
0.39453512 0.044792008 0.085150421 14144200
0.39600006 0.050188605 0.084210612 11118493
0.37360004 -0.08194603 0.097000368 14735827
0.38744444 -0.080798559 0.092288062 14932693
0.39075002 -0.082430601 0.091456763 14998743
0.37392735 -0.074829742 0.096381254 15722720
0.38308331 -0.075627558 0.091749988 15327706
0.37549302 -0.0650419 0.095759422 15919841
0.38058332 -0.065028615 0.090525292 16051171
0.37685186 -0.055105887 0.095740542 15854047
0.38018757 -0.053612281 0.090876214 15854304
0.3783507 -0.045255829 0.097387478 15327962
0.38051373 -0.044637356 0.092202961 15262425
0.37878129 -0.035678055 0.098797634 11842476
0.3811093 -0.034759805 0.094079904 12302256
0.37820789 -0.024318643 0.096391574 2633002
0.38065901 -0.025881577 0.091686584 3026732
0.3782877 -0.016096009 0.096969746 2829609
0.38117138 -0.013820504 0.092946365 3750197
0.38369614 -0.0053385561 0.094868727 13157561
0.38546827 0.0045335745 0.094942324 13618112
0.38764912 0.014683894 0.094846532 13815235
0.3880972 0.024736693 0.094986275 14341837
0.38758919 0.034588259 0.095424302 14539216
0.38999999 0.035530325 0.090724148 14605008
0.38843903 0.042644482 0.096925683 14144455
0.39135721 0.045545772 0.093598515 13618113
0.36456677 -0.082309023 0.10546086 14340809
0.37100002 -0.083135121 0.1006059 14604240
0.36537483 -0.07515347 0.10477926 15196373
0.37 -0.070040457 0.10045978 15985890
0.36715171 -0.065405577 0.10577498 14736079
0.37062067 -0.063723549 0.10119566 15788510
0.36866671 -0.058247879 0.106778 14407114
0.3714999 -0.054555018 0.10411802 15394265
0.37495428 -0.044863973 0.10501096 15459547
0.37745711 -0.035161227 0.10496535 11709861
0.37510431 -0.024927931 0.10492807 2436134
0.37523538 -0.015010811 0.10504919 3290414
0.37829641 -0.0087657031 0.10648224 12170921
0.38144767 -0.0043042204 0.10457593 12762803
0.38300693 0.0048933229 0.10519329 13683905
0.38408688 0.015059712 0.10511898 14012614
0.38375834 0.025201319 0.10501277 14407372
0.382866 0.035047311 0.10487444 14538959
0.38618556 0.0440825 0.10504765 13617857
0.39016667 0.048231572 0.10212919 11184800
0.36308333 -0.081409901 0.11168624 13157820
0.36474273 -0.074821249 0.11414497 12433835
0.36715385 -0.065848917 0.11361212 13618110
0.37099996 -0.062932141 0.11782976 12565937
0.36900002 -0.059139598 0.11124537 12959154
0.37334868 -0.055028338 0.11514535 12631730
0.37491152 -0.044838432 0.11437751 13091512
0.37682891 -0.035257641 0.11469787 9802635
0.36899999 -0.023635956 0.11901989 2041374
0.37168688 -0.025278334 0.1145267 2239010
0.36900002 -0.019748693 0.11919266 1054481
0.37217435 -0.015066967 0.1148943 3093292
0.37784064 -0.0054158373 0.11516634 12170924
0.38020006 -0.0024276192 0.1111801 13486526
0.37825012 0.0048152683 0.1169879 13552319
0.38081238 0.0052507296 0.1124895 13683905
0.3781946 0.015358077 0.11703369 13749698
0.38078329 0.015054006 0.11252262 14012870
0.37695652 0.02546332 0.11599866 14275786
0.38058063 0.024005283 0.11146543 14341837
0.37742954 0.034453616 0.1151609 14210250
0.38000008 0.035943788 0.11070676 14407372
0.37900001 0.040048826 0.1184302 13026229
0.38241768 0.043419953 0.11469226 13223611
0.37280002 -0.061840843 0.12042012 12303280
0.37721741 -0.05488776 0.12107804 10526869
0.3804 -0.051348746 0.12251921 10920599
0.37833336 -0.043795336 0.12073124 9209984
0.38063639 -0.047995053 0.12222312 9933705
0.36814287 -0.030290913 0.12396304 2238755
0.37553853 -0.034318872 0.12102298 6513499
0.3683176 -0.024743164 0.12294683 1843997
0.37033334 -0.029067853 0.12077903 2370341
0.36871824 -0.01598865 0.12351342 2567204
0.37035292 -0.013087784 0.12131245 3750708
0.37804183 -0.0041542444 0.12215068 8223860
0.3774561 0.0050091385 0.12228745 9276289
0.37860724 0.013514516 0.12191635 11117723
0.38086835 0.015727734 0.12443533 9605511
0.37492099 0.025218206 0.12195612 10789013
0.38000003 0.020583587 0.12452501 8619129
0.37648275 0.035507727 0.12121399 12828597
0.38165712 0.042809349 0.1225398 12565938
0.36388895 -0.030928191 0.13817543 2041374
0.36355996 -0.025228674 0.13686141 2107167
0.36418584 -0.015653342 0.13712271 2895401
0.3630909 -0.0309461 0.14429554 1251346
0.36276725 -0.024853643 0.14474896 1251858
0.36303294 -0.015564829 0.14491785 2367514
0.36430514 -0.032503165 0.15651938 3027500
0.36527458 -0.02532047 0.15543373 659722
0.36422235 -0.015452524 0.15523805 2234899
0.36258939 -0.032832675 0.1633568 1646359
0.3639929 -0.024938133 0.16511698 1186578
0.36489427 -0.016144427 0.16487241 1316624
0.34866667 -0.033467513 0.17897256 1712409
0.35500005 -0.031499442 0.17886521 1120272
0.3628267 -0.032703236 0.17512351 1251087
0.34900001 -0.025622934 0.17972758 1646616
0.35502666 -0.024993826 0.17831473 1054480
0.36199149 -0.024954524 0.17348355 1580309
0.3567872 -0.017457107 0.17889707 791307
0.36208165 -0.016363017 0.17490159 1251602
0.3444421 -0.033410601 0.18474433 1646615
0.34420386 -0.024997039 0.18477447 1515029
0.35000002 -0.020780215 0.18024258 1515030
0.34365964 -0.016566623 0.18561146 1449238
0.35374421 -0.015007467 0.18079343 1382931
0.35900003 -0.0099688191 0.18193591 5329482
0.36000001 -0.0091538206 0.1820213 10066577
0.34124237 -0.033104107 0.19178163 1646616
0.34047914 -0.025000298 0.19167906 1449494
0.34040627 -0.016995847 0.19156352 1383704
0.79133338 0.088869326 0.31642854 10066576
0.79362875 0.095120326 0.31494436 10066576
0.78900003 0.092608735 0.32412398 10066575
0.79047376 0.096093513 0.32507151 10000782
0.79362959 0.10437427 0.32433718 10066575
0.79500002 0.089590766 0.33496377 10000784
0.79515016 0.095193103 0.33596063 10000783
0.79248506 0.095043451 0.35464022 9934991
0.79441679 0.10456 0.3552677 10001041
