# .PCD v0.7 - Point Cloud Data file format
VERSION 0.7
FIELDS x y z rgb
SIZE 4 4 4 4
TYPE F F F U
COUNT 1 1 1 1
WIDTH 488
HEIGHT 1
VIEWPOINT 0 0 0 1 0 0 0
POINTS 488
DATA ascii
0.81100011 0.19723947 -0.21220016 8813944
0.81058341 0.18559472 -0.2026037 13026492
0.81217647 0.19543138 -0.20459606 12564657
0.81685728 0.20351429 -0.20437983 5655876
0.81000006 0.17850749 -0.19534771 12829883
0.81085014 0.18448588 -0.19659832 12895675
0.81153333 0.19455129 -0.19749261 11380638
0.80900002 0.2010137 -0.19131877 5458497
0.81300002 0.20391418 -0.19634543 5787203
0.81000006 0.15954524 -0.18112603 12960956
0.81123817 0.16593865 -0.18361616 13026492
0.81014287 0.17176542 -0.18264803 13026492
0.81000006 0.15954524 -0.17828169 13026492
0.81050003 0.16533569 -0.17744362 13026492
0.81000006 0.17092259 -0.17828169 13092285
0.54900002 -0.060227454 0.039816998 15526113
0.5508889 -0.062298384 0.038807411 15591648
0.54696006 -0.054476891 0.037926387 15789285
0.55000001 -0.058405817 0.036670625 15724004
0.53814292 -0.043109607 0.037589174 15657955
0.54233336 -0.047755886 0.037321191 15789541
0.53883338 -0.034513108 0.039079648 15329247
0.54352641 -0.033774372 0.036938407 15724260
0.53900003 -0.027585199 0.039091732 15460833
0.5434584 -0.02420879 0.037183698 15527140
0.54303563 -0.014853187 0.037519969 15395039
0.54544824 -0.0054097958 0.037794515 15262939
0.55000001 -0.0011094045 0.036026843 15591132
0.5464583 0.0046542045 0.038350847 15065818
0.55075002 0.0046910029 0.036075968 14999253
0.54663157 0.01478785 0.038229156 14342352
0.55111116 0.013940319 0.036529072 13158592
0.52766669 0.027262427 0.038187206 14605268
0.53288895 0.022620894 0.03878586 14539475
0.54100001 0.020439092 0.036703803 14803673
0.52771431 0.03529245 0.038449235 14473939
0.52659082 0.04516004 0.03830358 14473684
0.51700002 -0.070030294 0.049599215 15591906
0.50699997 -0.062446885 0.049826741 15723492
0.51700002 -0.064386889 0.04838891 15657699
0.52400005 -0.065244548 0.047813874 15657699
0.5351429 -0.065320812 0.046589192 15526113
0.54454166 -0.06382665 0.043469969 15459806
0.55059993 -0.065044284 0.040963553 15394268
0.5052222 -0.055163708 0.049519893 15591906
0.51714289 -0.053963177 0.047362532 15657699
0.52637506 -0.053591274 0.046647064 15657699
0.53453332 -0.054134261 0.045017831 15723492
0.5438 -0.056221317 0.042110022 15657698
0.50600004 -0.044847112 0.049728468 15460320
0.51480007 -0.045084659 0.048057519 15723236
0.52504557 -0.044358537 0.045562301 15591906
0.53385186 -0.04453826 0.042135902 15591905
0.54000002 -0.049126919 0.040428407 15789283
0.50657141 -0.035244815 0.049615405 15658212
0.51511765 -0.035723977 0.047782253 15460577
0.5252499 -0.035059255 0.045344982 15526113
0.53468758 -0.035184145 0.041901372 15592162
0.49827781 -0.023363357 0.04773752 15000025
0.50188893 -0.026473269 0.04723651 15131868
0.51000005 -0.029682783 0.047733743 15855078
0.52900004 -0.028931014 0.044558465 15723492
0.534325 -0.025123438 0.043152675 15328990
0.54000002 -0.020683553 0.040428407 15394784
0.4987334 -0.017350825 0.048002057 14868440
0.50239289 -0.01356675 0.046471942 14933976
0.52400005 -0.012097201 0.045364 14999769
0.53783339 -0.016295431 0.042992312 15131612
0.54071426 -0.015014715 0.040481888 15394527
0.49800003 -0.0029502911 0.049329296 14736342
0.50350004 -0.0072612106 0.048062243 14802390
0.51350003 -0.0051210904 0.046496119 14868183
0.52407688 -0.0051151803 0.045178331 14933976
0.53525001 -0.0051572178 0.042781055 15065306
0.54185712 -0.0054389122 0.04056745 15328736
0.49810004 0.0035466901 0.0491843 14604757
0.5036667 0.0047815857 0.047728371 14736343
0.51315391 0.0056220521 0.046361573 14670550
0.52475005 0.0063087111 0.044810023 14670550
0.53466672 0.0042771231 0.043362338 14802136
0.54166675 0.0043185893 0.04122771 14867929
0.49643755 0.016720289 0.049221918 14407378
0.50343746 0.014227469 0.047778372 14538964
0.51500005 0.014691499 0.045152936 14538964
0.52380002 0.015370836 0.043628376 14538964
0.53442866 0.014022073 0.042151816 14473171
0.54387504 0.013706084 0.040876541 14736343
0.44500002 0.025146216 0.049984053 14407378
0.49437499 0.023977945 0.047807317 14473171
0.5048334 0.024618188 0.045668025 14473171
0.51250005 0.02295582 0.045265026 14473171
0.52614826 0.026491368 0.04262716 14473171
0.53224999 0.021039655 0.040780496 14407378
0.50600004 0.038069669 0.046174806 14604757
0.51199996 0.03672494 0.045523729 14538965
0.52554536 0.034730997 0.042251755 14473171
0.49900001 0.042215683 0.045536019 14538964
0.50600004 0.042807888 0.044990249 14473173
0.51566666 0.04161476 0.045041319 14538966
0.52491671 0.045021012 0.041806493 14407379
0.52500004 0.050560471 0.041763466 14341843
0.47900003 -0.070489742 0.059409797 15526113
0.48289999 -0.072415136 0.058078986 15328734
0.49000001 -0.070961401 0.056185719 15526113
0.4750416 -0.063932754 0.058499917 15526113
0.48249999 -0.064972393 0.05720596 15591906
0.49816671 -0.064823732 0.055371709 15591906
0.50239295 -0.065024078 0.052265797 15657699
0.51200002 -0.069353022 0.050318133 15526113
0.46600002 -0.050031114 0.059979253 15328732
0.47384098 -0.055162165 0.057654645 15525599
0.48300004 -0.053257678 0.055092487 15460320
0.49696419 -0.055272907 0.053283542 15526113
0.50175005 -0.055631932 0.050876345 15591906
0.45774999 -0.041108653 0.059451725 15723491
0.46614283 -0.044330023 0.05853818 15657441
0.47406664 -0.046007261 0.056236532 15262941
0.48423526 -0.045784384 0.053986382 15591906
0.49434787 -0.045323212 0.051949192 15460577
0.50200003 -0.045081954 0.050510552 15394784
0.45650005 -0.035757963 0.059181623 15789798
0.46545458 -0.033921968 0.056895088 15197661
0.47300008 -0.0352327 0.054231528 15197661
0.48273334 -0.035934638 0.052487083 15460833
0.49461538 -0.035468098 0.051279999 15395040
0.50075001 -0.035448775 0.050384771 14934235
0.45733333 -0.026086869 0.059307966 15000026
0.46426794 -0.024945537 0.055574927 14868441
0.47260004 -0.026850557 0.052637987 15131868
0.49554846 -0.023979606 0.051764566 15000283
0.45500004 -0.013465636 0.059271719 14802392
0.46497726 -0.015411144 0.056177866 14736856
0.47338465 -0.013222878 0.054106023 14868185
0.4845556 -0.014084497 0.052785765 14934235
0.49556005 -0.015293008 0.051110979 14802648
0.44408336 -0.0045487238 0.059495453 14670549
0.45537502 -0.0053176018 0.059276544 14539476
0.4642309 -0.0050747795 0.057280496 14605270
0.47438103 -0.0059252945 0.055130515 14736856
0.4859412 -0.0044608726 0.053040545 14736343
0.49386367 -0.0053637666 0.050948683 14670550
0.42600003 0.0081146182 0.059817184 14209999
0.43625003 0.0024302399 0.059721909 14342352
0.45792308 0.0058788713 0.058896448 14341841
0.46341664 0.0045492072 0.055993643 14407378
0.47364292 0.0049093673 0.054069344 14538964
0.48522219 0.0048886305 0.052919433 14538964
0.49386957 0.0046889279 0.050894231 14538964
0.42628574 0.012545477 0.059571363 14275791
0.4344286 0.017722433 0.059545577 14210253
0.44455555 0.018174 0.05836986 14275792
0.45533338 0.015628384 0.05652817 14341585
0.4636296 0.014216053 0.054202244 14341585
0.47445458 0.01247723 0.053186093 14341585
0.48366669 0.013115765 0.051680848 14473171
0.49308336 0.015835369 0.050958868 14407378
0.41250005 0.024832861 0.059369493 14407633
0.42000002 0.028649647 0.058974691 14407378
0.43857145 0.026834013 0.058355827 14276048
0.4431842 0.024888214 0.054793093 14407378
0.45100003 0.020416964 0.05297935 14407378
0.48780003 0.024368349 0.050679743 14538964
0.49150002 0.022019632 0.050604664 14341585
0.41784614 0.033922721 0.059348818 14538963
0.42254171 0.036078811 0.058214724 14538962
0.43578577 0.037808806 0.05564823 14407378
0.44207898 0.033147052 0.054065377 14407378
0.41900003 0.047218278 0.059815161 14933976
0.42328301 0.044725507 0.057894513 14538962
0.43545458 0.043139167 0.054928496 14407121
0.44785717 0.046137039 0.053147309 14472658
0.45050001 0.047603041 0.052183188 14472914
0.41800001 0.051509038 0.059672404 12105389
0.42140001 0.051040065 0.058381416 13223358
0.43325001 0.051360641 0.056268461 14275791
0.44718516 -0.07290072 0.068254225 15328477
0.45233333 -0.07197088 0.065155074 15328734
0.46800002 -0.07215777 0.064619057 15328734
0.47610003 -0.07290744 0.062724575 15262941
0.48000002 -0.075412586 0.061500281 15197148
0.43650001 -0.062707335 0.069719799 15460320
0.44633341 -0.064959258 0.067743592 15460320
0.45382869 -0.064748891 0.064537778 15526113
0.46490911 -0.065454945 0.06270425 15526113
0.47237504 -0.067446224 0.060936734 15460320
0.42693338 -0.054034896 0.069408298 15328734
0.43472975 -0.054453753 0.067414336 15262941
0.44453859 -0.055359926 0.064572632 15262941
0.45386666 -0.055955794 0.062310208 15263198
0.46357149 -0.054424655 0.061681621 15328734
0.47000003 -0.055686891 0.060494095 15262940
0.41712502 -0.041609626 0.069310129 15329247
0.42388898 -0.04468292 0.068223946 15460320
0.43477789 -0.045296405 0.065359741 15394527
0.44410712 -0.0453397 0.062575348 15328734
0.4544211 -0.044702396 0.060891416 15263197
0.46100003 -0.048417434 0.060955681 15657698
0.41617143 -0.034661081 0.068872094 15263454
0.42363161 -0.03551599 0.066498153 15197148
0.43538228 -0.034986768 0.063854747 15329247
0.44426668 -0.035423022 0.061612073 15197404
0.45122221 -0.035651647 0.060306888 15197148
0.40842858 -0.02295248 0.069642901 14999769
0.41507998 -0.024997363 0.067934707 15065562
0.4239738 -0.024753727 0.064880095 15065562
0.43430778 -0.025243789 0.062501058 15065563
0.44573683 -0.025175698 0.061048042 14868441
0.45233336 -0.025445877 0.06033805 14868441
0.40789485 -0.014567808 0.068430319 14933976
0.4141081 -0.014482799 0.065843247 14868183
0.42450008 -0.015084964 0.063026242 14868183
0.434625 -0.016585644 0.061469264 14802393
0.44528574 -0.0142965 0.060885321 14736856
0.45000002 -0.01512938 0.060026795 14802136
0.40796974 -0.0054253559 0.068570726 14802390
0.41298372 -0.0049063629 0.064843319 14605011
0.42200005 -0.0057825702 0.062546991 14670806
0.43480003 -0.0061746016 0.061725497 14605013
0.4427143 -0.0069686095 0.060532779 14539477
0.40577593 0.0054327147 0.068090945 14539218
0.41388643 0.0039879675 0.065022834 14407632
0.42344454 0.0056471382 0.062170722 14276048
0.43190002 0.0023580152 0.060542636 14407378
0.44900003 0.0075032599 0.06094452 14276559
0.45244443 0.0065005985 0.060350791 14341841
0.40480739 0.015385141 0.066853963 14605010
0.41193339 0.014334361 0.063562825 14407632
0.42422232 0.01334613 0.061769757 14144461
0.43050003 0.016768869 0.060449056 14275792
0.45240003 0.012004266 0.060559034 14209999
0.4053261 0.024819208 0.066397414 14868181
0.41139397 0.025295163 0.06170449 14407632
0.43400002 0.020967446 0.060431343 14276047
0.4037908 0.03499373 0.066674285 15065560
0.41382691 0.034916934 0.061995469 14670804
0.40513587 0.045039315 0.066804923 14999767
0.41362 0.044904403 0.062040403 14802388
0.40631819 0.051452897 0.067336358 13223099
0.41316667 0.051153585 0.062278364 13025979
0.40583333 -0.071281292 0.078834571 15327964
0.41600004 -0.075400025 0.078913957 15262171
0.42347738 -0.073648527 0.076218992 15262429
0.43435714 -0.072127528 0.072748914 15262942
0.44300002 -0.074895084 0.071534999 15262428
0.40446675 -0.064952403 0.078417465 15327965
0.41436368 -0.063619465 0.07607767 15327967
0.42440003 -0.064708009 0.07327082 15328479
0.43236843 -0.065388247 0.070777796 15394271
0.39638245 -0.053532079 0.078552179 15656929
0.40398118 -0.054858945 0.075948149 15459551
0.41437933 -0.055225689 0.073330961 15328479
0.4229655 -0.055829473 0.071268693 15394271
0.39405566 -0.044794805 0.077615082 15722978
0.40419152 -0.045220472 0.074017182 15591650
0.41396779 -0.044576488 0.071158759 15526113
0.42200002 -0.049258783 0.070122533 15329247
0.38900003 -0.032202285 0.079209507 15722720
0.3935065 -0.03487698 0.076932959 15657184
0.40463048 -0.035018858 0.073465802 15460320
0.41192591 -0.035441369 0.071233064 15394527
0.38900003 -0.029470317 0.079209507 15788513
0.3937209 -0.024756586 0.076856121 15460062
0.40358928 -0.024741579 0.072199039 15197148
0.41100001 -0.028252298 0.07021901 15131355
0.3940464 -0.01495132 0.076800041 15262683
0.4028196 -0.015142895 0.071921892 15131355
0.39421663 -0.0050562127 0.076517865 14802388
0.40248924 -0.0052622352 0.071465351 14868183
0.39441225 0.0048271245 0.075833641 14539216
0.4011071 0.0041495371 0.07107567 14736597
0.39479816 0.014909445 0.075677626 14605008
0.40013638 0.015115956 0.070704609 14670803
0.39582139 0.025091182 0.075572185 14868181
0.40000007 0.024722576 0.070656039 14999767
0.39685187 0.035060275 0.075304367 14933974
0.40000007 0.034776632 0.070290513 15065560
0.39742112 0.044247743 0.076744333 14539215
0.40068737 0.046017256 0.072500311 14801874
0.39700001 0.050315343 0.079909109 11119263
0.40276921 0.050974492 0.072435789 12828084
0.39180002 -0.081138261 0.089318372 14867415
0.38472223 -0.073460013 0.088014916 15262172
0.39120001 -0.075700268 0.086616859 15064536
0.4041875 -0.073647425 0.082324795 15196378
0.41370001 -0.077346198 0.080843128 15196378
0.38454029 -0.064831577 0.086876608 15788258
0.3944737 -0.064977534 0.083206601 15459293
0.40112495 -0.066427745 0.081089675 15393757
0.38448694 -0.054962829 0.085679673 15854562
0.39254549 -0.055379316 0.081096999 15657185
0.38451105 -0.044833459 0.085001603 15789282
0.39014289 -0.046454538 0.080355547 15920869
0.38551024 -0.035070829 0.084799662 14999510
0.38576898 -0.025160365 0.084853239 13815495
0.38655397 -0.015348174 0.085186139 13946823
0.39000002 -0.012199132 0.080326125 15130581
0.38781032 -0.0054131704 0.085510395 14341579
0.38999999 -0.0046669059 0.080611438 14670287
0.38836744 0.0044315993 0.086359732 14012870
0.39026481 0.0053932923 0.081427939 14276042
0.38896424 0.012288837 0.087852471 13881284
0.390652 0.015435296 0.084213711 14078664
0.39137653 0.024909498 0.084803522 14407629
0.39246982 0.035042178 0.084961765 14670801
0.39398265 0.044709418 0.085090071 14078920
0.3738462 -0.082011625 0.09759438 14801620
0.38750002 -0.080836542 0.092847176 14801622
0.39062503 -0.081946634 0.091541916 14867159
0.36850002 -0.074499413 0.099620596 15788511
0.3741281 -0.074745931 0.096276373 15722720
0.38282499 -0.075794622 0.091614388 15262170
0.37537736 -0.065078892 0.095839776 15919841
0.38049993 -0.064997345 0.090680279 16051171
0.37692624 -0.055261213 0.096174642 15854048
0.38047224 -0.05430764 0.091079861 15919842
0.37832442 -0.045308772 0.097487517 15393755
0.38062647 -0.044630442 0.092353724 15262169
0.37882143 -0.035444461 0.098768592 11315875
0.38123903 -0.034848936 0.094249986 12433841
0.37801811 -0.024351813 0.096012816 2698793
0.38065711 -0.026101651 0.091360107 3092267
0.3778111 -0.015638888 0.096395575 2961195
0.38111532 -0.013858327 0.092236489 3947062
0.38379252 -0.0053389939 0.094892025 13157304
0.38550428 0.0045395638 0.094910577 13618112
0.38778645 0.014688946 0.094880275 13815491
0.38824382 0.024503155 0.095592953 14407628
0.38999999 0.026785845 0.090916894 14407628
0.38741252 0.035073701 0.095575854 14539472
0.38999996 0.033587668 0.090916894 14605008
0.38825643 0.042123199 0.096627057 14079176
0.39151475 0.045661632 0.094007693 13552578
0.3643685 -0.082350545 0.10562536 14340552
0.37225005 -0.083397381 0.10106953 14604239
0.36535522 -0.075129293 0.10484219 15130581
0.37 -0.079568401 0.10045978 15459546
0.36717927 -0.065510005 0.10567905 14867150
0.37060708 -0.063305408 0.10127425 15788254
0.36870372 -0.058285754 0.10688464 14407112
0.37168255 -0.054333352 0.10424393 15459801
0.37478751 -0.045103442 0.10496984 15459547
0.37731797 -0.035162464 0.10496907 11709604
0.37480828 -0.024951104 0.10496344 2501670
0.37466916 -0.015077723 0.10497476 3355950
0.37828007 -0.0088032084 0.10656732 12236458
0.3814624 -0.0043386156 0.10459619 12762803
0.38305584 0.0048502511 0.10515711 13618112
0.38419423 0.014997959 0.10518445 13946821
0.38398603 0.025179062 0.10505079 14407629
0.38304177 0.035095468 0.10488432 14473423
0.3860625 0.043863412 0.10519587 13683649
0.39100003 0.048247952 0.1014521 11447460
0.36299995 -0.081307702 0.1116923 13354430
0.36515096 -0.074783094 0.11442377 12564908
0.36727905 -0.065860271 0.11351103 13683646
0.3708649 -0.063256666 0.11770805 12697265
0.36900002 -0.059139598 0.11124537 13025203
0.37333941 -0.055074673 0.11514221 12697522
0.3750625 -0.04484278 0.1145281 12960437
0.37679124 -0.035255592 0.11476379 9933449
0.36899999 -0.023864616 0.11878613 1975581
0.37152481 -0.025368819 0.11436356 2238754
0.36900005 -0.018884858 0.11919266 1843995
0.37210739 -0.01494222 0.11492047 3290414
0.37796384 -0.0054137413 0.11519918 12170666
0.38025007 -0.0023242177 0.11136512 13486270
0.37833339 0.0049705873 0.11709603 13552832
0.38084859 0.0050550369 0.11256234 13618369
0.37817818 0.01536676 0.11697745 13815234
0.3808136 0.015036513 0.11250528 14012357
0.37647909 0.025549965 0.11594685 14341065
0.38061291 0.024007259 0.11147495 14472653
0.37715954 0.034397721 0.11521646 14275530
0.38011771 0.036189541 0.11084904 14407373
0.37900004 0.040048826 0.11887383 13025206
0.38198552 0.042973779 0.11521845 13354941
0.36900002 -0.070714995 0.1200565 13288116
0.37 -0.070040457 0.12038185 13353909
0.37238896 -0.063946031 0.12086827 12039336
0.37750006 -0.055322781 0.12127423 10790042
0.38069233 -0.052457031 0.12324425 11381923
0.378353 -0.04427072 0.12085916 9275775
0.3805556 -0.047787745 0.12262927 10262671
0.36900002 -0.030114722 0.12307993 2436134
0.37661302 -0.035386041 0.12116309 7763564
0.36834618 -0.024655726 0.12165035 1909532
0.37033334 -0.029067853 0.12077903 2435875
0.36897841 -0.015935386 0.12205857 2632996
0.37033334 -0.012883097 0.12077929 3619119
0.3775129 -0.0033917648 0.12198629 8354675
0.37717873 0.0047459789 0.12195855 9473412
0.37860718 0.014336213 0.12153658 11578273
0.38097429 0.015217209 0.12470888 9473926
0.37480003 0.025380898 0.12159018 10854295
0.38000003 0.020583587 0.12452501 8553336
0.37708825 0.036194887 0.12198815 12104876
0.38000003 0.03926491 0.1254146 9210498
0.38163155 0.04303455 0.12247192 12500147
0.36316669 -0.030772487 0.13770802 2041633
0.36142859 -0.025451189 0.13947091 2107167
0.3617143 -0.016816756 0.13970231 2172701
0.36309087 -0.030984938 0.14483823 1185810
0.36226386 -0.024784589 0.14477874 1186065
0.36208928 -0.01522887 0.14528438 2433049
0.3647359 -0.032213125 0.15656638 2566436
0.36496931 -0.025924277 0.15621789 725259
0.36354074 -0.014879122 0.15532829 2628886
0.36275941 -0.032716487 0.16351062 1711896
0.36377284 -0.024850776 0.16519281 1251859
0.36450931 -0.016210189 0.16507553 1381902
0.34838098 -0.033440851 0.17894194 1843995
0.35547617 -0.031584024 0.1789678 1054993
0.36285341 -0.032694601 0.1751823 1120015
0.34812504 -0.026421942 0.17968169 1646359
0.35513148 -0.024933757 0.17833033 1054737
0.3616786 -0.025007593 0.17347503 1515030
0.35667348 -0.017517254 0.17896752 725773
0.36162356 -0.016214108 0.17483012 1185810
0.34436393 -0.033561457 0.18471286 1646359
0.34398159 -0.024927855 0.18479726 1580310
0.35000002 -0.020780215 0.18024258 1580312
0.34373105 -0.016627649 0.18561554 1449239
0.35339999 -0.01542828 0.1807088 1252117
0.36133337 -0.010033611 0.18537672 1580309
0.36172736 -0.007176484 0.18601623 8093558
0.34159997 -0.033204444 0.19184138 1646359
0.34035411 -0.024991222 0.19160883 1645846
0.34039399 -0.016789975 0.19142537 1710871
0.36300001 -0.010079891 0.19033645 1250320
0.36353847 -0.0068858489 0.19107747 7172200
0.81581253 0.0045645609 0.27712944 2830379
0.81811112 0.015162979 0.27873358 2237984
0.8174001 -0.0054740002 0.28221262 6975081
0.82050008 -0.0054966402 0.28712392 7172716
0.81850016 0.0040988373 0.28211248 3224882
0.82037497 0.0055469251 0.28636014 2501928
0.81900007 0.011769053 0.28276387 2369569
0.8202222 0.016053252 0.28532004 2106397
0.82009101 0.023129515 0.28532246 1053710
0.82583338 -0.012622143 0.29350373 9408647
0.82428569 -0.005064277 0.29456249 6645602
0.83000004 -0.0094463723 0.29919145 9407877
0.82313341 0.0050833514 0.29479113 2699564
0.82208002 0.015661288 0.29441345 2107169
0.82122231 0.022908334 0.29282376 987405
0.8125 -0.0044925939 0.30619776 3749679
0.82654554 -0.0053662448 0.30234197 6973794
0.83150005 -0.0094634434 0.30265254 9277061
0.81166673 0.0084954938 0.30334759 2107682
0.8218236 0.0050176447 0.30189994 2699562
0.81650001 0.015080783 0.30292422 2107682
0.82150006 0.013728124 0.30093476 2173475
0.79558343 0.16508526 0.38456309 10066834
0.79555184 0.17545304 0.38470832 10263699
0.79515636 0.16522647 0.3949447 10066834
0.79313338 0.17479025 0.39452028 10066834
0.79343325 0.18414481 0.39466923 10132370
0.79420584 0.16457878 0.40462217 10001040
0.79300004 0.17476103 0.40466541 10066834
0.79328567 0.1847076 0.40500996 10066577
0.79533339 0.19430898 0.40461281 7762796
0.79453343 0.16486651 0.41474929 10000784
0.79267728 0.17486823 0.41479594 10066577
0.7917999 0.18482421 0.41416687 10066577
0.79260868 0.19403727 0.41446894 7301473
0.79556262 0.16531241 0.42494732 9869455
0.79392004 0.1749626 0.4255819 9934993
0.79319233 0.18437378 0.42483518 9869711
0.79510528 0.19442748 0.42523742 7894123
0.78900003 0.11754408 0.43956542 9672076
0.79510003 0.117893 0.4379302 9672333
0.7952382 0.12516838 0.43815771 9737869
0.79523528 0.16479467 0.43493456 9869455
0.79544014 0.17529894 0.43570575 10000784
0.79538465 0.18474096 0.43545878 9869454
0.78833342 0.11713731 0.44226933 9672076
0.78844446 0.12402514 0.4445875 9737869
0.79027271 0.12605953 0.44161969 9737869
0.78900003 0.13139705 0.44695365 9869455
0.79269993 0.13547988 0.44372314 9869455
0.79505402 0.14513262 0.44454202 9803662
0.7945714 0.15464619 0.44505906 9803662
0.79517239 0.16516331 0.44473708 9869455
0.79481483 0.17536622 0.44507697 9869455
0.79279995 0.18479076 0.44459489 9934990
0.79500002 0.15659069 0.45035255 9869198
0.79533339 0.16503642 0.45054141 9803662
0.79500002 0.17334068 0.45035255 9737869
