# .PCD v0.7 - Point Cloud Data file format
VERSION 0.7
FIELDS x y z rgb
SIZE 4 4 4 4
TYPE F F F U
COUNT 1 1 1 1
WIDTH 413
HEIGHT 1
VIEWPOINT 0 0 0 1 0 0 0
POINTS 413
DATA ascii
0.54671431 -0.062171906 0.038736552 15460318
0.54489994 -0.055018533 0.037689902 15723747
0.53850007 -0.043160889 0.037715238 15592161
0.54138464 -0.047014691 0.037118148 15723747
0.53800005 -0.038869232 0.039019208 15591904
0.54493099 -0.033780113 0.036964606 15855332
0.54581261 -0.024738364 0.037666246 15592419
0.54479307 -0.014690691 0.037618805 15460831
0.54578578 -0.0052491045 0.037801184 15328733
0.55000001 -0.0011094045 0.036026843 15591132
0.54611117 0.004863787 0.038041502 14934488
0.55000001 0.0035258115 0.036026843 14933459
0.54592854 0.013318809 0.038770203 14671573
0.55120003 0.012567678 0.036621876 13290434
0.5266667 0.025647115 0.038361266 14474195
0.53000003 0.023745729 0.039679736 14407891
0.51322228 0.03592737 0.038957115 14473427
0.5226 0.03148789 0.038146235 14539475
0.51452947 0.044959977 0.038804203 14341841
0.52000004 0.048861615 0.037713733 14342098
0.50800002 -0.06167578 0.049925022 15591906
0.51700002 -0.065187514 0.04919422 15592163
0.52636361 -0.065021105 0.048478939 15592419
0.53572422 -0.064387389 0.045723744 15460576
0.5434286 -0.064521015 0.041953754 15394525
0.50557148 -0.055125736 0.049686346 15591906
0.51700002 -0.050665401 0.04838891 15460320
0.52536362 -0.054059505 0.047827963 15526626
0.53502941 -0.054900654 0.044909902 15723747
0.54186666 -0.056149997 0.041327897 15657440
0.50800002 -0.049783409 0.049925022 15394527
0.51669228 -0.045330502 0.048916731 15591649
0.5245834 -0.044297323 0.046586279 15591906
0.5341053 -0.045202821 0.042544581 15657440
0.50400001 -0.030513443 0.049531911 15065562
0.51669228 -0.035940133 0.048545416 15460320
0.52452379 -0.03620049 0.045870524 15460832
0.53499997 -0.03519183 0.042286627 15723747
0.5406667 -0.031466845 0.040478319 15592417
0.49712905 -0.02394066 0.047989871 15000025
0.50228572 -0.028060613 0.047011714 15131612
0.53714818 -0.025110563 0.044123616 15329246
0.54179996 -0.024259578 0.04115342 15460576
0.49814814 -0.016076634 0.047703236 14868440
0.50077778 -0.012080792 0.046479113 14868439
0.514 -0.010663054 0.045701556 15000282
0.53833336 -0.015718924 0.043802544 15131355
0.54208332 -0.015582777 0.0411117 15328991
0.49529412 -0.0052385028 0.049014807 14736598
0.50349998 -0.0092665274 0.046534263 14802903
0.51533335 -0.0048717251 0.046622295 14802903
0.52566671 -0.008442332 0.045508284 14934489
0.537 -0.0064903484 0.043846078 14999769
0.54217649 -0.0048254821 0.041410569 15197404
0.49584213 0.0047477763 0.049155753 14604756
0.50433332 0.0068537327 0.047594056 14671062
0.51444447 0.0067290324 0.046272226 14605268
0.52425003 0.0069166292 0.044922706 14539476
0.53534997 0.0048079235 0.043145843 14802647
0.542 0.0035565794 0.041105852 14934489
0.49627286 0.01558125 0.049033418 14473171
0.50500005 0.015432284 0.047066778 14473684
0.51495242 0.014635075 0.044975683 14473427
0.52500004 0.015531037 0.042990744 14473171
0.53290915 0.013659862 0.042163428 14538964
0.54166669 0.014123242 0.040553186 14605270
0.49693552 0.025039872 0.047933999 14473171
0.50411117 0.023634598 0.046000089 14473171
0.51479995 0.023800734 0.045046039 14407378
0.52474999 0.025876531 0.042180013 14473171
0.53600001 0.020250192 0.040128939 14473684
0.49658826 0.033463076 0.048046254 14538964
0.50575006 0.03620233 0.043850258 14473171
0.51346165 0.033441193 0.04158283 14473171
0.52100003 0.030660521 0.040834263 14538964
0.48614824 0.045507334 0.047057398 14473171
0.49408332 0.042664155 0.045949042 14473171
0.50550008 0.042632416 0.043625191 14538964
0.51264292 0.045694344 0.041550823 14407378
0.47900003 -0.070489742 0.059409797 15460320
0.48225001 -0.072377019 0.058821175 15328734
0.49300003 -0.071395859 0.057683837 15526113
0.5036 -0.070573069 0.054198988 15591906
0.4745 -0.064177468 0.058595762 15591906
0.49800003 -0.063444018 0.055029668 15591906
0.50197059 -0.065710269 0.053299814 15657699
0.51200002 -0.067358471 0.050318133 15657699
0.46900001 -0.050353203 0.059267446 15394527
0.47310808 -0.054865044 0.057865247 15394527
0.48325002 -0.053291831 0.05531263 15394527
0.49514285 -0.054949846 0.052661113 15526113
0.5013333 -0.056762189 0.050833631 15657699
0.45766667 -0.040921792 0.059619892 15657444
0.46547827 -0.044386987 0.058675844 15460321
0.47365618 -0.045406874 0.056036275 15394783
0.48434779 -0.045788947 0.053460311 15460319
0.49558339 -0.045951474 0.051602926 15394527
0.50499994 -0.044886708 0.051073298 15460320
0.51157147 -0.044142742 0.050276011 15723492
0.45749998 -0.035195325 0.059418969 15789542
0.46443588 -0.034082267 0.056813546 15131355
0.47366667 -0.035301417 0.052981015 15329247
0.48100004 -0.031373024 0.050649621 15263454
0.49650002 -0.037615009 0.051119462 15658212
0.509 -0.039157204 0.051214878 15197661
0.51333338 -0.036489379 0.050449174 15855591
0.44900003 -0.02192802 0.059893403 14933722
0.45644012 -0.025500624 0.05878764 14999770
0.46325013 -0.024896443 0.055255886 14999514
0.47450006 -0.028537424 0.052554328 15066075
0.4835 -0.025306636 0.053176634 15329247
0.49365225 -0.023603974 0.052232079 15197405
0.44725004 -0.014339395 0.059484784 14802136
0.45542303 -0.014042381 0.057830311 14802135
0.46329033 -0.015523425 0.054974046 14802391
0.47566667 -0.011354367 0.05490895 14867928
0.48050004 -0.013904511 0.053971544 14933722
0.4955714 -0.015054888 0.052013297 14934233
0.44550005 -0.0048186523 0.05900573 14605013
0.45468426 -0.0057852282 0.057342298 14605012
0.46527278 -0.0042001773 0.056217477 14605012
0.47462499 -0.0040112236 0.055254392 14802391
0.48440009 -0.0045643812 0.053607803 14736599
0.49206671 -0.0066044359 0.051275257 14802135
0.43525001 0.0054785074 0.059585012 14407377
0.44441181 0.0041903341 0.058849238 14407378
0.45652381 0.0049384916 0.057534434 14407376
0.46533334 0.0037283632 0.055893309 14473170
0.47530013 0.0049955351 0.054328091 14538963
0.48500004 0.0047501777 0.05244663 14473171
0.49190003 0.0047704391 0.050760556 14473171
0.42809093 0.014441434 0.059289087 14144461
0.43146154 0.015999075 0.058795352 14275790
0.44633338 0.015131774 0.058492813 14275792
0.45705563 0.017143838 0.056505196 14341585
0.46367857 0.014835567 0.054172121 14341585
0.47475004 0.012935544 0.053043783 14407378
0.484 0.013273891 0.051623147 14407378
0.49250007 0.016014464 0.050995763 14473171
0.41507143 0.026165901 0.059183102 14407378
0.42700002 0.020130606 0.059957601 14341585
0.43715382 0.023644794 0.057756133 14341585
0.44370002 0.023505444 0.055548478 14341585
0.45387501 0.021393513 0.054426905 14473171
0.49300003 0.025550375 0.050759103 14473171
0.4169091 0.03411971 0.058761362 14473171
0.42157146 0.037920587 0.058206432 14538964
0.43683338 0.038827602 0.056222845 14473171
0.4426364 0.037730549 0.054614272 14407891
0.41800001 0.043680675 0.059672408 14802134
0.42304358 0.045233846 0.057264179 14473425
0.43392858 0.04265311 0.055557184 14473170
0.44541669 0.042546943 0.053585108 14407378
0.41866669 0.051101919 0.059767574 13355200
0.42080003 0.050967772 0.058495689 13354944
0.44737497 -0.073384412 0.068488024 15262941
0.45299998 -0.072761342 0.066255219 15328734
0.46614289 -0.072183453 0.064984009 15328734
0.47495002 -0.072452955 0.062237941 15394527
0.43857142 -0.063516237 0.069796041 15394527
0.44529733 -0.064489685 0.067957938 15460320
0.4543463 -0.065384038 0.065550759 15460320
0.46523812 -0.065305501 0.063611321 15526113
0.47177276 -0.065867923 0.061422661 15526113
0.42541671 -0.052482631 0.069524832 15460576
0.43536669 -0.054417729 0.067850515 15262941
0.44373533 -0.055770997 0.065416306 15328734
0.45300004 -0.057507567 0.063470297 15262941
0.4677 -0.054152869 0.061619062 15328734
0.47025004 -0.05626826 0.060663808 15460320
0.41649994 -0.043011028 0.069531672 15526113
0.42356676 -0.04425123 0.068094663 15328991
0.43485361 -0.045196213 0.065570377 15394527
0.44364527 -0.045549195 0.062757015 15328734
0.45483339 -0.044339165 0.060904071 15328735
0.4605 -0.047824144 0.060888983 15657699
0.41553134 -0.034491181 0.068739429 15394527
0.42381096 -0.035637524 0.066555001 15262941
0.43537042 -0.035679847 0.064184494 15460320
0.4446924 -0.034529768 0.062156282 15197148
0.45211768 -0.035400942 0.060805012 15065819
0.40849996 -0.023202946 0.069504641 15065562
0.41493472 -0.025228029 0.067948215 15065562
0.42441478 -0.024823828 0.065039672 15065562
0.43405262 -0.024672959 0.06275887 15065562
0.44456524 -0.025421746 0.061423611 14999513
0.45187506 -0.026568156 0.060408592 14933722
0.40741679 -0.01449172 0.068438649 14999769
0.41424999 -0.014754356 0.066542871 14868184
0.42436677 -0.01569063 0.064680733 14868184
0.43460536 -0.01498183 0.062571116 14802392
0.44200006 -0.014860414 0.060509879 14802136
0.40706989 -0.0049233264 0.068633795 14736597
0.41238773 -0.0050146049 0.065092966 14604756
0.42400002 -0.0094569298 0.063836016 14802136
0.43719047 -0.0053096139 0.062211208 14670550
0.44223082 -0.0063075181 0.060501833 14670549
0.4049826 0.0051331976 0.068001635 14605011
0.41352502 0.0044196509 0.064784512 14407633
0.42563638 0.0063847718 0.062071394 14341585
0.43466666 0.0027107666 0.0609628 14473171
0.40516064 0.015296005 0.066971324 14670547
0.41358617 0.015019291 0.063178964 14276047
0.42433345 0.012793686 0.061453119 14210254
0.40534794 0.024526138 0.067107417 14999510
0.41207272 0.0251121 0.062329981 14538962
0.43500003 0.024071962 0.060062587 14407378
0.40456432 0.035294365 0.067017056 15131097
0.41291529 0.034686342 0.062118798 14736341
0.40574712 0.045063403 0.066851363 14999767
0.41306004 0.044926181 0.061861057 14802389
0.40617394 0.051436305 0.06715443 12894648
0.41388893 0.050948981 0.061876263 13618116
0.40574998 -0.071701534 0.078816928 15393757
0.41150004 -0.074046545 0.078974389 15262171
0.42415914 -0.07395108 0.076655753 15262684
0.43476468 -0.072720334 0.073193915 15328477
0.44355562 -0.076005608 0.072027273 15131355
0.40491125 -0.065256037 0.078503758 15393757
0.41503569 -0.064229004 0.076384075 15328478
0.4242979 -0.065059319 0.073536679 15394014
0.43276191 -0.065373093 0.070991106 15394270
0.39580563 -0.053385384 0.07853011 15526113
0.40422925 -0.054866206 0.076087557 15394527
0.41482356 -0.054677397 0.073064961 15525856
0.42292005 -0.05685154 0.071418755 15328477
0.43400002 -0.059803523 0.070084527 14999769
0.39422858 -0.044764303 0.077732235 15657442
0.40472421 -0.044822861 0.07379093 15591906
0.41262078 -0.045670543 0.070957974 15526113
0.39423513 -0.034811627 0.077145606 15657440
0.40436679 -0.034876756 0.072655365 15394527
0.41107151 -0.035817858 0.070505619 15460320
0.39405745 -0.024832772 0.076958314 15394526
0.40327123 -0.024896994 0.072184779 15197148
0.41 -0.028661715 0.070048161 15131355
0.39427182 -0.014828265 0.07663592 15328219
0.40244648 -0.015264844 0.071796693 15065562
0.39448115 -0.0050437031 0.076110333 14867925
0.4019334 -0.0058315983 0.071238212 14933976
0.39485124 0.004750404 0.075762913 14539217
0.40027273 0.0048127556 0.070728548 14736597
0.39505115 0.014840725 0.075488053 14539217
0.40000004 0.014971621 0.070633858 14802132
0.39614546 0.025161231 0.075544566 14933718
0.4000527 0.024725551 0.070665278 15130583
0.39682713 0.034956139 0.075516127 14999510
0.40000007 0.035602879 0.070542976 15196376
0.39724004 0.044382218 0.076840535 14670288
0.40104067 0.045790598 0.072461374 14933202
0.39700001 0.050315343 0.079444416 11118493
0.40309092 0.050916191 0.072210506 12959670
0.39128572 -0.081268124 0.089096531 14933206
0.3866111 -0.073742405 0.088648349 15196636
0.39381036 -0.075095005 0.085721627 15130585
0.40225926 -0.073218472 0.081590779 15262171
0.41371435 -0.077210881 0.080503643 15196378
0.38483548 -0.064739212 0.087118141 15854050
0.39420408 -0.06543351 0.083404616 15459293
0.40127274 -0.066526681 0.080938011 15393757
0.38430169 -0.05481784 0.085641928 15920099
0.39229169 -0.056052778 0.080870993 15656929
0.38413021 -0.044822767 0.084983848 15920099
0.39000002 -0.046893016 0.080326132 15920871
0.3851817 -0.035040256 0.084727384 15064790
0.38569906 -0.025155507 0.084837675 13750215
0.38657475 -0.015372479 0.085318215 13881543
0.39000005 -0.014025126 0.080326132 15131353
0.38758063 -0.0055199033 0.085603595 14276044
0.39014995 -0.0042110612 0.080904819 14539216
0.38777182 0.0045289584 0.086492054 14012870
0.390625 0.0050200191 0.081687994 14276042
0.38894996 0.014270185 0.087317951 13881284
0.3907257 0.015101941 0.082700379 14276042
0.389 0.021201188 0.088706352 14144456
0.39149588 0.025072737 0.084498294 14473422
0.39260584 0.03505579 0.084989347 14670801
0.39511403 0.044898264 0.085267246 14144201
0.39666668 0.050273102 0.084481917 11250080
0.37376925 -0.081996448 0.097273856 14801364
0.3875455 -0.080948599 0.092184775 14867413
0.39033332 -0.081809193 0.090750672 14998999
0.37386397 -0.074763 0.096314661 15722720
0.38291115 -0.075640678 0.091669209 15262427
0.37531674 -0.065022774 0.095979601 15919841
0.38058057 -0.065175109 0.090801112 16051428
0.37701491 -0.055098046 0.095868729 15854305
0.38025007 -0.05502478 0.090779796 15854304
0.37840793 -0.045218762 0.09744861 15262426
0.38034311 -0.04450044 0.092329837 15262169
0.37871426 -0.035872079 0.098772049 12302768
0.38107353 -0.034741085 0.094009407 12236464
0.37783164 -0.024265813 0.096068352 2633257
0.38061532 -0.026288558 0.091666013 3026475
0.37755105 -0.015486704 0.096093252 3092779
0.38119999 -0.013755689 0.091817304 4144441
0.38377011 -0.0053386018 0.094887324 13157561
0.38515851 0.0045284755 0.094869383 13618112
0.38756171 0.014708535 0.094863519 13815491
0.38810861 0.024607191 0.095177904 14341836
0.39000002 0.028246636 0.090551697 14407630
0.38757852 0.034894429 0.09535531 14539215
0.39000002 0.034469061 0.090509564 14539472
0.38830233 0.042428304 0.096737482 14210249
0.39172968 0.045883704 0.093651943 13486528
0.36466125 -0.082455091 0.10568693 14340551
0.37347057 -0.084023468 0.10109004 14538448
0.36547872 -0.075154759 0.10484333 15196373
0.37 -0.079568401 0.10045978 15459548
0.36718667 -0.06547308 0.10569382 14736079
0.3706786 -0.063503787 0.1012318 15788766
0.36859384 -0.058016561 0.10660297 14604235
0.37144059 -0.05422302 0.1041313 15525338
0.37466446 -0.045084763 0.10508134 15525083
0.37739033 -0.035201889 0.10506968 11709861
0.37482533 -0.024925049 0.1048014 2501671
0.37524807 -0.014844015 0.10491064 3421743
0.3785201 -0.0088800099 0.10652853 12105384
0.38153276 -0.0043642106 0.10465519 12762802
0.38283896 0.0048906989 0.10514733 13683648
0.38357979 0.015070353 0.10494965 13946821
0.38338172 0.025215523 0.1049397 14407372
0.38268507 0.035062425 0.10478719 14473422
0.38568476 0.043798581 0.10526536 13683649
0.3906154 0.048240568 0.10267885 11381666
0.36314282 -0.081373036 0.11207873 13222843
0.3649807 -0.074965611 0.11429317 12564907
0.367172 -0.065801241 0.11366044 13683645
0.37102944 -0.062875241 0.11795904 12499630
0.36900002 -0.059139598 0.11124537 12893358
0.37332702 -0.054994695 0.11500451 12697265
0.37475014 -0.044738263 0.11442957 13025717
0.37676251 -0.035161287 0.11481094 9736327
0.36894998 -0.024150761 0.11870126 1910047
0.37180638 -0.025260193 0.11415369 2239012
0.36900002 -0.018452941 0.11919266 1778459
0.37206087 -0.015137242 0.11461093 3027756
0.37797135 -0.0055283625 0.11542328 12105130
0.38018188 -0.0026272289 0.11163845 13486527
0.37835529 0.0048071812 0.11717808 13552576
0.38072038 0.0052358997 0.11259602 13814721
0.37820789 0.015357913 0.11683028 13880771
0.38074544 0.015016379 0.11232176 14143686
0.37694779 0.025403101 0.11590375 14341065
0.38043341 0.023931148 0.11139634 14472652
0.37748325 0.034495391 0.11515257 14341065
0.38007149 0.035713945 0.11056651 14472653
0.37900001 0.040048826 0.11798658 12828850
0.38207793 0.043306589 0.11473437 13354940
0.37325001 -0.06147889 0.12056547 12039851
0.37755564 -0.054799549 0.12113732 10592406
0.38033333 -0.051517319 0.12285351 11644581
0.37833339 -0.044577315 0.12096781 9209726
0.38033333 -0.04884778 0.12226044 10525074
0.36850002 -0.030073917 0.12291256 2370598
0.3765001 -0.035068121 0.12088711 7237477
0.36831376 -0.024631456 0.12167493 1844253
0.37033334 -0.029067853 0.12077903 2305061
0.36891508 -0.015995026 0.12195785 2501411
0.37037501 -0.01212648 0.1210455 4737342
0.37792322 -0.0041419584 0.12187065 8289396
0.37733358 0.0052364278 0.12223145 9276546
0.3784706 0.013961799 0.12188711 11117723
0.38099995 0.016179139 0.12457544 9474183
0.37422854 0.025542269 0.12127578 11380893
0.38100001 0.020637754 0.1248527 8618361
0.37651518 0.035575114 0.12143343 12630961
0.37900001 0.040048826 0.12109193 13617599
0.3814545 0.042909499 0.12253755 12565682
0.36400002 -0.030558793 0.13547233 2239266
0.36400005 -0.028611068 0.13510713 2173216
0.36316666 -0.030914247 0.14536849 1120016
0.36272401 -0.02481661 0.14548461 1120272
0.36243007 -0.015527462 0.1456137 2169879
0.36370701 -0.032366432 0.15635876 2632742
0.36442167 -0.025356671 0.15550455 659721
0.36377877 -0.015269388 0.1550611 2366228
0.36248153 -0.032770202 0.16341746 1646360
0.36339834 -0.02483784 0.16527347 1317906
0.3640528 -0.016132928 0.16501892 1381903
0.34836364 -0.033323064 0.17888014 1909532
0.35529411 -0.031538367 0.17899209 923407
0.36279178 -0.03249881 0.17509007 1186064
0.34815997 -0.026292317 0.17929368 1581080
0.35546982 -0.024724746 0.17823279 923407
0.36159641 -0.025073642 0.17351907 1515286
0.35675469 -0.017183062 0.17886022 725772
0.36119446 -0.016617415 0.17434222 1120530
0.34450319 -0.03351124 0.18476014 1581079
0.34400928 -0.024929987 0.18485977 1449494
0.35000002 -0.020370537 0.18024258 1317653
0.34395793 -0.016653212 0.18562007 1448984
0.35323685 -0.015389342 0.18076964 1383190
0.36100003 -0.010024356 0.18337204 1052937
0.36100003 -0.0091792485 0.1863299 1710354
0.34121209 -0.033100996 0.19176465 1646616
0.34039584 -0.024994282 0.19163223 1514517
0.34065711 -0.016656093 0.191562 1514263
0.79545456 0.10437594 0.28479338 10395540
0.79216665 0.089271463 0.31521547 10066576
0.79303038 0.094884574 0.31482831 10066576
0.79080003 0.095505513 0.32403082 10066576
0.79396152 0.10441969 0.32466 10132368
0.79544449 0.14516097 0.32404804 10461333
0.79500002 0.089590766 0.33589432 10066575
0.7948752 0.095315397 0.33506969 10000783
0.79525006 0.089618936 0.34716922 9934989
0.7925455 0.088470966 0.35568574 9869196
0.79312897 0.09501113 0.35531351 10000782
0.79402953 0.10479075 0.35483351 10066575
0.79468977 0.11515281 0.35471889 10066575
0.79328001 0.10492416 0.36402801 10066576
0.79542863 0.11511161 0.36513835 10066577
