# .PCD v0.7 - Point Cloud Data file format
VERSION 0.7
FIELDS x y z rgb
SIZE 4 4 4 4
TYPE F F F U
COUNT 1 1 1 1
WIDTH 647
HEIGHT 1
VIEWPOINT 0 0 0 1 0 0 0
POINTS 647
DATA ascii
0.54400003 -0.10043138 -0.010212673 14737878
0.54669231 -0.096887998 -0.011149923 14606292
0.55295658 -0.093470156 -0.013425668 14606294
0.56100005 -0.090436757 -0.017098375 14540499
0.55620003 -0.08757548 -0.011224075 14540498
0.56445158 -0.084042154 -0.014271409 14013897
0.57171428 -0.081837729 -0.018190442 12960695
0.56812501 -0.078117751 -0.012163245 12763573
0.57417387 -0.0757773 -0.013930452 12763316
0.51600003 -0.10130038 -0.00062884146 14540242
0.5244 -0.10098505 -0.0034654425 14605522
0.53425002 -0.10050476 -0.0062816632 14540499
0.51825005 -0.098406546 -0.00032714684 14540499
0.52558827 -0.096158803 -0.0013285045 14474706
0.53530014 -0.094479047 -0.0038741301 14606292
0.54413044 -0.093914457 -0.0076147588 14672085
0.53691673 -0.086966582 -0.00065417145 14474706
0.54474288 -0.085007042 -0.0035288993 14474706
0.55325001 -0.08405403 -0.0075286259 14474706
0.56 -0.081098743 -0.0092020743 14277327
0.54688889 -0.077348262 -0.0007368825 14408400
0.55427778 -0.076877281 -0.0036333154 14474192
0.56400001 -0.075443551 -0.0061864676 14539985
0.57328576 -0.072091058 -0.0076020877 13487040
0.56700003 -0.066267386 -0.00073446112 14672084
0.57353854 -0.067881301 -0.0050972607 13618882
0.48780003 -0.10638312 0.0085416539 14539471
0.49420825 -0.10280042 0.0070591676 14540242
0.50480002 -0.10181919 0.0036362186 14474706
0.5110001 -0.10071909 0.0015711609 14474706
0.49700001 -0.098400548 0.0087858066 14474706
0.50532144 -0.09598846 0.006733445 14408913
0.51364696 -0.094540469 0.003684774 14540499
0.52140009 -0.092839286 0.0014405308 14606292
0.50680006 -0.088341765 0.0092302244 14408913
0.51427275 -0.086618684 0.007525498 14540499
0.52528572 -0.084209837 0.0060601421 14408913
0.53385186 -0.083136879 0.003210576 14408913
0.52680004 -0.078260489 0.0095945206 14474706
0.53593552 -0.076800421 0.0066464199 14474706
0.54389656 -0.073841073 0.0042793634 14343120
0.55322224 -0.071334735 0.0024182638 14343120
0.54900002 -0.069223985 0.0083291344 14277327
0.55504006 -0.066443622 0.0069896593 14211534
0.56300008 -0.063676417 0.0039617596 14606292
0.56560004 -0.055490941 0.0063896715 14671829
0.56620008 -0.047799036 0.0087218825 14802901
0.46700001 -0.11123724 0.018561134 14802129
0.47200003 -0.11034316 0.015448136 14671313
0.46759999 -0.10595658 0.019170864 14605007
0.47397226 -0.105468 0.01652303 14539726
0.48404258 -0.10449578 0.012580044 14737105
0.491 -0.10041577 0.010322789 14672085
0.46866667 -0.098591544 0.019727666 13618625
0.47450003 -0.095832534 0.018626736 14539726
0.48478389 -0.095293537 0.015675586 14737105
0.49427271 -0.094360061 0.012247455 14342863
0.50166672 -0.091439195 0.010547046 14343120
0.48514286 -0.088585488 0.018960072 14473934
0.49629733 -0.085246921 0.017023111 14079947
0.50355262 -0.084582426 0.013156948 14277327
0.51283336 -0.081666902 0.011380725 14408913
0.49866667 -0.078831442 0.019433685 14014155
0.50520003 -0.07603173 0.017713754 14145741
0.51413339 -0.07525754 0.014452938 14277327
0.52330768 -0.075123563 0.012131118 14343120
0.53416669 -0.072347417 0.011020415 14540499
0.50444442 -0.065716237 0.019000335 14145741
0.51375002 -0.068987846 0.016210593 14211534
0.54647058 -0.06626536 0.014195909 14408913
0.55212009 -0.062841833 0.012896646 14343120
0.50099999 -0.056804717 0.019748282 14145741
0.55505002 -0.055849262 0.015757555 14211534
0.5609445 -0.053802688 0.011865093 14343120
0.55825001 -0.048499472 0.019250738 14079948
0.5631637 -0.045403507 0.01511585 14408913
0.56613159 -0.036088161 0.016813256 14211020
0.56733334 -0.028592026 0.019453995 14144715
0.46414819 -0.11192884 0.02424326 14275267
0.45900002 -0.10085689 0.028454248 12168352
0.46281087 -0.10532799 0.02464252 13946304
0.45717773 -0.094801597 0.027420776 14472648
0.46344173 -0.095543638 0.022805905 14276298
0.47250003 -0.090546176 0.021267297 14144969
0.45468569 -0.085645147 0.028164262 14605263
0.46466669 -0.085523933 0.02514942 13684418
0.47409526 -0.086466104 0.022591712 14144969
0.48393333 -0.084274083 0.021577785 14605776
0.49166667 -0.081942976 0.021078957 14211019
0.45587501 -0.078157634 0.029191516 14144969
0.46530437 -0.075189859 0.028156504 13618882
0.47339994 -0.074596763 0.026293537 13948360
0.48461539 -0.076724753 0.023886578 14145739
0.49606255 -0.075244963 0.022474345 13882569
0.50238466 -0.072391346 0.021144081 13882569
0.46900001 -0.069018133 0.029623136 13356223
0.47200003 -0.068197146 0.028862506 13553602
0.49717766 -0.064576432 0.026224056 13751239
0.50154173 -0.065396577 0.021695664 14014155
0.49835709 -0.056003604 0.027517902 13685190
0.50085366 -0.054286305 0.023712169 13948362
0.55399996 -0.051695947 0.02072577 14145741
0.50278574 -0.048176479 0.027130768 13685447
0.514 -0.044051237 0.027951956 13685447
0.52411115 -0.042225808 0.027921587 13685447
0.53500003 -0.041781262 0.026274061 13685190
0.54300004 -0.041774571 0.02476101 13685190
0.55470008 -0.044879299 0.021786921 13816776
0.56 -0.041114163 0.020950235 13882567
0.52700001 -0.038896203 0.029173382 13553604
0.53450006 -0.037155371 0.028437376 13487811
0.54520005 -0.036063291 0.026779104 13553604
0.55529416 -0.035525195 0.024978099 13553604
0.56143481 -0.032958813 0.022888435 14014154
0.55700004 -0.029160725 0.029311316 13619397
0.56621879 -0.025948202 0.025195466 14014153
0.5723334 -0.021845153 0.022898188 12105643
0.56857145 -0.017308583 0.028876537 13685190
0.57231581 -0.014975417 0.026556047 11842471
0.46300003 -0.11040694 0.030328054 13551288
0.45900008 -0.10121507 0.035510313 12169121
0.46074989 -0.10497446 0.034291353 13222578
0.4551352 -0.095313065 0.034995291 12498087
0.44679996 -0.084196106 0.034816813 14078403
0.45029998 -0.089036144 0.033605583 13683388
0.43900001 -0.071797282 0.03903304 14473421
0.44358987 -0.075359151 0.035287291 14473934
0.45275003 -0.074694812 0.030848218 14210762
0.46550003 -0.071226858 0.030491812 13619395
0.4385455 -0.066870011 0.039458703 14540241
0.44381487 -0.065499261 0.036181778 14145484
0.45315388 -0.064233549 0.033844348 13750470
0.46500003 -0.066073656 0.031182436 13487296
0.48400003 -0.064427227 0.031137098 13487809
0.4938333 -0.062072884 0.03041991 14079947
0.44313335 -0.056779247 0.038563553 13685190
0.45666668 -0.057582363 0.035964727 13487553
0.46763158 -0.052851144 0.037373193 13422018
0.47500002 -0.051736753 0.035559297 13882568
0.4854286 -0.051629424 0.034229185 14343118
0.49416131 -0.055328626 0.031618815 13882569
0.46711117 -0.045653574 0.039223477 13422016
0.47450003 -0.045194939 0.037558936 14342605
0.48483336 -0.045048598 0.037054371 14343118
0.49468297 -0.044637199 0.03403154 13882568
0.50349998 -0.043638136 0.031310622 13422018
0.51100004 -0.041703586 0.031079693 13685190
0.48800004 -0.039826516 0.039962552 14540497
0.49280643 -0.035791159 0.037447482 13750983
0.50166672 -0.037811935 0.03364275 13487811
0.51375008 -0.038619574 0.032147661 13224639
0.52375001 -0.036915585 0.030933389 13422018
0.49300003 -0.029847477 0.039217882 13751240
0.54200006 -0.020125745 0.038040482 13224637
0.5555715 -0.02211556 0.034158457 13356225
0.56100005 -0.021979822 0.03132851 13356224
0.54666668 -0.018592427 0.037940387 13290431
0.5564546 -0.015801458 0.037278567 13290174
0.56385726 -0.014487566 0.03384617 13421760
0.57000005 -0.011157599 0.03066501 14211275
0.56659997 -0.0054161237 0.036575943 13619139
0.57077783 -0.0057547977 0.031893492 11974056
0.56692111 0.0046116104 0.037272859 11645093
0.56073922 0.014106009 0.037758406 9803145
0.44314289 0.077214539 0.038955268 12302252
0.4456251 0.083016671 0.038839314 12565937
0.45900008 -0.10105226 0.04559784 12564395
0.46015391 -0.103514 0.044352137 12827566
0.4556185 -0.09521497 0.045057449 11774878
0.44491038 -0.084140062 0.045076959 12432550
0.4501 -0.089418031 0.044762649 11840413
0.43678737 -0.074214712 0.044974908 13288118
0.44009095 -0.078812964 0.042875882 13222325
0.42741179 -0.062310688 0.048476677 14078917
0.43317443 -0.065324247 0.044196069 14341834
0.4256739 -0.055301093 0.047981329 14473677
0.43393549 -0.055173684 0.043305285 14211021
0.44000003 -0.056853462 0.040152002 13816778
0.46600002 -0.051667485 0.040342793 13487811
0.42603126 -0.046017293 0.048503123 14145483
0.43377274 -0.045626234 0.04545984 13684677
0.44450003 -0.043290388 0.044465706 13355969
0.45658338 -0.041896012 0.042905074 13290432
0.46305004 -0.045326624 0.040843908 13356223
0.42800003 -0.038437828 0.049576312 13290432
0.434591 -0.035694148 0.048019446 13224639
0.44499999 -0.037551779 0.045906425 13224639
0.45400003 -0.039175607 0.043551702 13224639
0.46300003 -0.039954007 0.041166969 13159098
0.4867143 -0.032778233 0.043434005 13619396
0.4902727 -0.034481235 0.040461514 13422274
0.48317033 -0.025233222 0.046516113 13290431
0.49000001 -0.020489058 0.04471473 13027260
0.48775002 -0.018681351 0.048219338 13027259
0.49341375 -0.014529089 0.047695175 12829881
0.53842866 -0.014950911 0.044092175 13224639
0.54383332 -0.012622057 0.042974219 13224639
0.55225003 -0.01145539 0.040374596 13290431
0.49600002 -0.0091284961 0.049906835 12566709
0.53783333 -0.0038140996 0.048659135 12829881
0.54455554 -0.0056267311 0.046240337 12961467
0.55464709 -0.0048613776 0.042665482 12961466
0.56114286 -0.0031933144 0.041072574 13158331
0.53600001 0.00059344311 0.049327582 12698295
0.54528576 0.001999947 0.048480604 12764088
0.55482346 0.0033159938 0.046271056 12764088
0.56222862 0.0057095941 0.043290678 13224381
0.55900002 0.013703571 0.049702663 12369330
0.56136096 0.015368442 0.045084879 12039851
0.56059533 0.024490995 0.046280973 10789783
0.5611667 0.032368425 0.048582193 9868939
0.42000002 0.046347741 0.049142413 12039595
0.42436364 0.055874325 0.049289275 12763316
0.43000001 0.05953091 0.047292557 12434351
0.42833337 0.060637672 0.049447935 13223867
0.43255934 0.065706588 0.046621755 13026231
0.43476248 0.074614078 0.046031624 13683903
0.44111112 0.076962739 0.041456684 12828596
0.43556154 0.084862769 0.04734106 14341577
0.44295457 0.084843583 0.042443153 13420988
0.43566668 0.090571523 0.04859313 9932679
0.45900002 -0.10121506 0.05263111 12103844
0.46000001 -0.10215348 0.053284209 12038051
0.45617196 -0.095089167 0.055060554 11906206
0.44595912 -0.083725572 0.05497295 11709085
0.4513334 -0.089018755 0.055744622 11709084
0.43465072 -0.073954999 0.05487765 11643293
0.44050002 -0.078952119 0.056595527 11643293
0.42610937 -0.063414991 0.055294722 12564650
0.43037045 -0.068446346 0.054311689 12104100
0.41778573 -0.052331727 0.057194535 13552059
0.42135215 -0.055688228 0.053868346 13749695
0.40900001 -0.041039001 0.059345067 14144969
0.41472512 -0.044945821 0.05584009 14144968
0.42079172 -0.045176741 0.051040355 14276555
0.40829167 -0.034835242 0.058524851 14013897
0.41427276 -0.035970215 0.055868484 13948361
0.4245958 -0.034835476 0.052972518 13487811
0.43030006 -0.032094799 0.051354676 13093053
0.40875003 -0.028813114 0.059069425 13356225
0.41329414 -0.026375815 0.058317162 13290432
0.42514282 -0.025913471 0.055978291 13027260
0.43050003 -0.029086992 0.051882103 13093053
0.48344448 -0.022218855 0.051032916 13422016
0.42350003 -0.01770645 0.059134897 12961467
0.48737502 -0.018238435 0.051747564 13356223
0.49215788 -0.013601209 0.052187283 13224638
0.48675001 -0.0056779049 0.056240588 13158590
0.49250004 -0.0063338685 0.054299038 13027004
0.50599998 -0.0037814926 0.053678542 12698297
0.51300007 -0.0020850112 0.052663788 12566710
0.523 -0.0016682895 0.051399186 12698295
0.49480003 0.0029549822 0.059743851 12763577
0.50407696 0.005881757 0.057885014 12435125
0.51311427 0.0046972809 0.054264106 12369331
0.52474999 0.0044759866 0.051415492 12435124
0.53600001 0.0058254236 0.050793447 12566710
0.54200006 0.0065197232 0.050728802 12435123
0.55250001 0.0085867317 0.050418139 12369330
0.40399992 0.01750941 0.058856014 11710630
0.50688893 0.012559881 0.058648486 12106160
0.51357579 0.015650062 0.05698726 11908781
0.523 0.014859298 0.054336227 11974574
0.53460008 0.013572453 0.053289026 12040365
0.54583341 0.01529042 0.052787159 12171951
0.55384618 0.016238604 0.051336031 12237744
0.40714291 0.025965236 0.058618873 12236974
0.41000003 0.029887147 0.057570532 12105388
0.51643485 0.023457766 0.057796266 11711402
0.55725002 0.02410171 0.053785089 12106158
0.56 0.02830766 0.053605307 12500916
0.40900001 0.030771727 0.059345067 13026490
0.41395351 0.035999086 0.05811755 12829367
0.42050004 0.03877471 0.054368131 12105389
0.56365913 0.03453207 0.05485668 11514022
0.41653329 0.045263693 0.057088323 13356223
0.42052642 0.044694476 0.052208692 12368559
0.56842107 0.041856088 0.057333093 11119007
0.57150012 0.04679342 0.057169359 9671560
0.41738459 0.054629143 0.057401475 14079689
0.42167857 0.055440176 0.052736979 13552832
0.57664287 0.056021143 0.057199653 10066573
0.41841671 0.062417731 0.058915067 14408141
0.42361289 0.065194011 0.054496489 14342348
0.43000001 0.067584008 0.050312471 14210761
0.57775003 0.063079029 0.057455707 10132367
0.42607868 0.074848905 0.055650078 14539470
0.42999995 0.076203346 0.050752874 14539212
0.42816666 0.081496477 0.056834109 14473677
0.43166196 0.085826971 0.054446168 14538955
0.43400002 0.090564743 0.054027487 9471101
0.45614815 -0.094208062 0.064538188 11971999
0.46000001 -0.099999748 0.060283855 11577498
0.44700003 -0.083038591 0.06473323 11577242
0.45187098 -0.087997481 0.065157615 11774620
0.4363409 -0.073387578 0.064731151 11445656
0.44216669 -0.078312874 0.065365732 11511449
0.42659611 -0.06309025 0.064492628 11116948
0.43109095 -0.068029098 0.065671407 11182741
0.41687807 -0.052211501 0.06434463 11906721
0.42216673 -0.057189077 0.065459847 11314327
0.40795466 -0.04239038 0.065008558 12828080
0.41186276 -0.047134165 0.064884245 12367273
0.39850003 -0.030889992 0.069015704 12960182
0.40392512 -0.035153829 0.064394563 13552318
0.39738101 -0.025191339 0.06842126 13750212
0.40413415 -0.025536273 0.064057589 13684934
0.41220003 -0.022106271 0.061446466 13224640
0.39741668 -0.017934171 0.06890475 13618627
0.40463805 -0.015218743 0.067162454 13027005
0.41406986 -0.015624302 0.063249037 12895676
0.42081821 -0.015625976 0.0609692 12895675
0.39160004 -0.0019835811 0.068830028 12171181
0.40450001 -0.0088678477 0.068630338 12369076
0.41100001 -0.0094884532 0.065408207 12435125
0.38900003 0.0014919885 0.066460326 12105388
0.39157903 0.0047913184 0.068493076 12500402
0.40350002 0.009576709 0.064686343 12039595
0.47646153 0.0056474437 0.064585365 12303538
0.48493335 0.0062123565 0.06309133 12369332
0.49478573 0.0064542643 0.061363835 12500661
0.5 0.0095260311 0.060843889 12303539
0.39738715 0.014807357 0.068821661 12961467
0.40259102 0.015766278 0.06432981 12303024
0.48550004 0.01038634 0.06589295 11974573
0.49850005 0.013435923 0.065328769 11974317
0.50353849 0.01546238 0.063174777 11908780
0.51033336 0.018882526 0.06130461 11908781
0.39850003 0.021119233 0.069482148 13422018
0.40331873 0.025327619 0.0647799 13224124
0.50562501 0.020880034 0.066257529 11776936
0.51493555 0.024946017 0.062890165 11711400
0.52225 0.029511485 0.064161867 11710887
0.40576366 0.034573838 0.065216944 13684675
0.41057143 0.037481587 0.060671352 13553602
0.52625006 0.03127908 0.065271333 11711143
0.53594446 0.035590604 0.066401668 11513508
0.54311109 0.038316574 0.065236039 11447972
0.55233335 0.038540393 0.062900066 11908781
0.56200004 0.039212275 0.060931612 11974572
0.40817085 0.042224176 0.066681102 13619138
0.41176119 0.046362508 0.063900419 13816517
0.54391664 0.042301636 0.0666053 11382179
0.55372727 0.043075323 0.064195715 11711659
0.56461114 0.045716472 0.061946843 11777194
0.57000005 0.04888951 0.060021382 10066575
0.41457948 0.054882523 0.064867571 13881797
0.5675 0.050667882 0.063077688 10790300
0.57250005 0.052456278 0.060951822 9869195
0.41785711 0.062783316 0.064583428 13947590
0.42067453 0.06744767 0.065504886 13881797
0.57749999 0.063051589 0.061487686 10198160
0.42409182 0.075012095 0.064928554 13816004
0.42775521 0.083112806 0.064927407 13881797
0.43022224 0.086755715 0.062199626 14013383
0.45466664 -0.091105923 0.072642475 11511707
0.44850001 -0.081436165 0.074843526 10919569
0.4528164 -0.086328387 0.075070009 10985362
0.43772003 -0.071713038 0.073762476 10919570
0.44248718 -0.076067016 0.075573392 10985362
0.42833331 -0.061864682 0.0735716 10919569
0.43261367 -0.065835707 0.075204358 10985362
0.41771433 -0.051204059 0.073044822 10853777
0.4238143 -0.056213658 0.07530047 10787984
0.4085263 -0.041545432 0.073925935 11116949
0.41340631 -0.046042304 0.075365365 10919570
0.39769232 -0.03145485 0.073996738 11576988
0.40366101 -0.036546215 0.074364968 11248536
0.38859999 -0.02164731 0.078095667 12893874
0.39316338 -0.025130089 0.074165255 12696496
0.38660973 -0.014679281 0.077035598 12697009
0.39311767 -0.015815819 0.072224721 13552834
0.40074998 -0.011712815 0.070695579 12894906
0.38654351 -0.0052224915 0.076860175 12631732
0.39251167 -0.0055018086 0.072162062 12631989
0.40066668 -0.0083123175 0.070797704 12237232
0.38822374 0.0038835178 0.076919429 13092796
0.39079633 0.005669727 0.072491847 13092540
0.38900003 0.01014322 0.078298852 12895674
0.39320168 0.014864213 0.074690327 12895674
0.39738032 0.023127537 0.074728943 12566709
0.40027493 0.027866974 0.075018108 12435122
0.40408993 0.034671351 0.074905813 12303537
0.53600001 0.036562406 0.070243798 11710630
0.40825 0.041779075 0.07450559 12106158
0.41166106 0.046852402 0.075249985 11711400
0.4157753 0.054912679 0.074658826 12171950
0.42033339 0.058848888 0.079357922 11645607
0.41830775 0.061528519 0.072448224 12829622
0.42197147 0.065693513 0.075555228 12566451
0.42563093 0.074768774 0.074895442 12960953
0.42865512 0.081595048 0.07410188 13026490
0.43000001 0.084056266 0.07419724 12302509
0.44900003 -0.080790579 0.081441298 10985361
0.45276606 -0.083998546 0.084933966 10985362
0.44506356 -0.074686863 0.084987707 10919568
0.45020002 -0.079109333 0.08787787 11116948
0.42900002 -0.060118839 0.080324367 10985361
0.43609256 -0.064753287 0.084713809 10985361
0.44027278 -0.068445176 0.087027051 10919568
0.42575002 -0.053727023 0.084771983 10853777
0.4306666 -0.058145039 0.087023281 11051155
0.40900001 -0.040081523 0.080409542 10524812
0.41514042 -0.043796539 0.084636442 10656398
0.42117649 -0.048235621 0.086865656 10656398
0.40592322 -0.034133233 0.084424309 10656143
0.41130438 -0.03817407 0.087060072 10722192
0.38628006 -0.02212452 0.085104316 10459534
0.39397627 -0.026672741 0.084220186 11116694
0.40066668 -0.0296771 0.086798042 10985107
0.37868574 -0.012947372 0.087771587 2041632
0.38186726 -0.015827091 0.083945148 2501156
0.37868422 -0.00685234 0.087862633 2107169
0.38152581 -0.0044683586 0.083822064 2895658
0.38573226 0.0045752409 0.084949493 12500917
0.38899997 0.01014322 0.084673449 12566709
0.39433995 0.015322089 0.085116215 12106158
0.40000001 0.01979412 0.089877032 11974572
0.39833343 0.021888398 0.082509927 11842985
0.40181819 0.025706839 0.085621163 11777192
0.40673175 0.034266733 0.084391259 11579813
0.41118753 0.038397718 0.08800108 11645606
0.40880004 0.040709749 0.081136204 11645606
0.41420263 0.045213986 0.084974498 11645606
0.41772223 0.052943278 0.083185799 11711400
0.4212116 0.056402799 0.086357661 11777193
0.42585915 0.064483456 0.084739722 11710887
0.43000001 0.0689933 0.08796072 11908009
0.42847055 0.072950505 0.081641696 11579557
0.43066666 0.075003251 0.085840032 11908265
0.43100002 0.08085791 0.083725773 10592149
0.45404014 -0.082081281 0.093218967 11051156
0.44767576 -0.072595417 0.094929278 10985363
0.45179999 -0.077489771 0.095593914 11117205
0.43763155 -0.062085208 0.093860008 10985363
0.44351166 -0.066890895 0.095671445 11051156
0.42809996 -0.051825844 0.093738213 10853777
0.43221819 -0.056088775 0.095349476 10919570
0.41750002 -0.042116102 0.093010776 10787984
0.42344642 -0.046356168 0.09549959 10853777
0.39900002 -0.030694941 0.097124867 11511193
0.40611109 -0.032867178 0.093393497 11313814
0.41331255 -0.037305437 0.095531993 11182485
0.38501254 -0.023208853 0.095266819 10327179
0.39336371 -0.027892796 0.094602421 11511194
0.40060002 -0.029880214 0.091886058 11445400
0.37680787 -0.014343021 0.09541814 2106911
0.38046673 -0.01893764 0.092552595 1909273
0.3762573 -0.0053653303 0.095049165 2172447
0.38000003 -0.00076649763 0.09161029 2304544
0.37819999 0.00012250614 0.098258391 11645859
0.38471806 0.0047858451 0.094722077 12106158
0.389 0.01014322 0.094235338 12040366
0.3943406 0.014721409 0.094911911 11974572
0.40012503 0.019566204 0.096931092 12040365
0.40496352 0.025151322 0.09493684 12040107
0.4104 0.029532379 0.098554716 12171180
0.4084 0.031683125 0.091764912 11908779
0.41306946 0.035491075 0.095463075 11974315
0.41755554 0.042414553 0.093823522 11908779
0.42134634 0.046802513 0.095966287 11842729
0.42466667 0.054836608 0.094789587 11974315
0.42999998 0.059195366 0.099302173 12500146
0.428 0.062332965 0.092232838 12237487
0.43142429 0.065730534 0.095672041 12303024
0.43332693 0.073120967 0.094989792 12302767
0.45400003 -0.080627427 0.10094761 10525325
0.44884616 -0.071306452 0.10238847 10985619
0.45280492 -0.074704684 0.10575622 10853520
0.4457581 -0.065000333 0.10524321 10985106
0.45033336 -0.069082715 0.10926931 10787470
0.43529081 -0.053746413 0.10466675 10985106
0.44115385 -0.058326907 0.10691149 11050642
0.41900003 -0.040080629 0.10321939 11511192
0.42510647 -0.043956976 0.10415756 11314069
0.43082607 -0.048098035 0.10662766 11182228
0.39500001 -0.031608298 0.10586748 11840413
0.40402946 -0.034923047 0.10462499 12037535
0.4138889 -0.037442259 0.10235807 11708571
0.37794742 -0.020647211 0.10610671 5197639
0.38483155 -0.025086217 0.1051069 11116950
0.39114287 -0.028913299 0.10240255 11576984
0.36899999 -0.012406091 0.10969048 1909275
0.37264693 -0.014770287 0.10493829 1975326
0.36900002 -0.0073094605 0.10969047 1646877
0.37202203 -0.0051260632 0.1048556 2106655
0.37695652 0.00089209463 0.10441985 12434866
0.38572842 0.0064117652 0.10503762 12369328
0.389 0.01014322 0.10480906 12566194
0.3941111 0.014057336 0.10490295 12434608
0.40103573 0.018975267 0.10476334 12368816
0.40655082 0.024085797 0.10458999 12237229
0.41085714 0.028530641 0.10587371 12171436
0.41522396 0.03400952 0.10416358 11974057
0.42068753 0.038668409 0.1072065 11908008
0.41900003 0.040352073 0.10101239 11645607
0.42358539 0.044927422 0.10500073 11842472
0.42779413 0.052512176 0.10363498 12105387
0.43084618 0.056566995 0.10604239 12500144
0.43415892 0.065078035 0.10527069 12763060
0.43561548 0.071565121 0.10439335 12105387
0.45637503 -0.073999196 0.11438546 10787727
0.44806674 -0.062688254 0.11337166 11050898
0.45253664 -0.066961721 0.11602262 10919313
0.43850002 -0.052211978 0.11429378 11313814
0.44322455 -0.056445379 0.11544997 11182484
0.43292594 -0.047162812 0.11330689 11576986
0.38758335 -0.032750294 0.1161385 11905951
0.3930476 -0.033742085 0.11292657 12037537
0.40080005 -0.036651544 0.11135396 12169123
0.37718523 -0.021398889 0.11528963 7960946
0.3839263 -0.026442224 0.11506499 11182999
0.36787513 -0.013528342 0.11508211 1646616
0.37162501 -0.018422611 0.11454386 2106911
0.36796814 -0.0052694022 0.11516113 2173219
0.37040001 -0.0014405431 0.11166716 2043174
0.36800003 0.00046380004 0.11904194 12698293
0.37100002 0.0018572094 0.11983869 12106156
0.38521692 0.0062258122 0.11495647 12303793
0.38866666 0.01043808 0.11568648 12369328
0.39432463 0.014790771 0.11460806 12369329
0.40052947 0.019434739 0.11492509 12434864
0.406174 0.023125706 0.1149069 12565937
0.41205883 0.027713284 0.11576773 12500144
0.41635141 0.031961124 0.11447003 12302765
0.42249998 0.037397135 0.11523116 12105386
0.42689833 0.044116415 0.11428446 11973800
0.43033338 0.047824699 0.11746534 11776422
0.42900002 0.050353799 0.11045327 12171181
0.43268746 0.054896176 0.11505298 12039594
0.43509722 0.06394428 0.11451442 12565682
0.43600002 0.070568413 0.11021417 11447456
0.45576921 -0.071339861 0.12251569 11182742
0.45318198 -0.064998463 0.12451156 11248278
0.44497728 -0.055361614 0.12496711 11576730
0.45000002 -0.059901346 0.12902829 11445400
0.39648145 -0.042121049 0.127242 11972258
0.38700002 -0.03239559 0.12538134 11643036
0.39242005 -0.037175696 0.12521441 11972001
0.377 -0.022351565 0.12472736 9802890
0.38248158 -0.02679906 0.12501374 11051414
0.36554065 -0.014335294 0.12523456 1843482
0.37058333 -0.019544514 0.12389705 1711385
0.36512986 -0.0051547587 0.12491779 2500640
0.36666667 0.00033394885 0.12329423 12829621
0.375 0.0027613577 0.12142026 12171950
0.38554552 0.0073149172 0.12494541 12237744
0.38857695 0.010797666 0.12527113 12303537
0.39356813 0.015750617 0.1251481 12303536
0.40000001 0.01979412 0.12124667 12566450
0.39740005 0.020595778 0.12669201 12369329
0.40480953 0.022883367 0.12258129 12632244
0.4134517 0.027708326 0.12481325 12500401
0.41736364 0.031135591 0.12282524 12565937
0.42328814 0.035819493 0.12512358 12368558
0.42771998 0.041193724 0.1242231 12236971
0.43171436 0.046219748 0.12512386 12039336
0.436519 0.055085093 0.12509686 11776165
0.44000003 0.059370279 0.12976617 11513249
0.4382593 0.062650532 0.12317585 11644837
0.44000003 0.062975444 0.12791207 10856090
0.45510927 -0.063550271 0.13506041 11379606
0.44855553 -0.054927152 0.13281471 11708572
0.45128569 -0.05750858 0.1361911 11708572
0.39496669 -0.04256228 0.13495849 12038051
0.38601223 -0.033285994 0.13540466 11643293
0.39171058 -0.038220406 0.13431902 11972258
0.37656412 -0.022961361 0.13534883 9539204
0.38135928 -0.027192464 0.13470477 11051413
0.36566663 -0.014958424 0.13345763 1646360
0.37069556 -0.01632975 0.13856865 1053711
0.3652603 -0.0043436661 0.13383092 2369056
0.3705833 -0.0071090241 0.13864605 593673
0.36566666 0.00011844635 0.13666694 12367788
0.38628572 0.0078350455 0.13500379 12303537
0.38857144 0.011120557 0.13541549 12238001
0.39337763 0.016264042 0.1349908 12303538
0.39694113 0.021283254 0.13685106 12435124
0.40175 0.022945305 0.13219008 12500660
0.41590005 0.028277969 0.13220029 12500401
0.41900003 0.030543206 0.13141988 12434608
0.42539683 0.035761844 0.13454951 12434352
0.43000001 0.039398156 0.13839327 12434608
0.42900002 0.04031083 0.13104135 12434095
0.43350634 0.044871423 0.13514793 12170922
0.43851352 0.052442975 0.13404611 11908006
0.44051117 0.056816503 0.13576253 11907749
0.44083336 0.061718594 0.13207828 10461074
0.45717645 -0.063694708 0.14298423 11576986
0.45346668 -0.058031321 0.14258717 11905951
0.39426091 -0.042657144 0.14203508 12104357
0.38492 -0.034349296 0.14204355 11314842
0.39033332 -0.039165992 0.14070331 12103844
0.36052006 -0.021656746 0.14852266 2500902
0.37603223 -0.023030864 0.1426689 8487033
0.38096544 -0.027893586 0.1426165 10525839
0.36087501 -0.018151827 0.14941001 857358
0.37352353 -0.01464287 0.14470612 725258
0.36766669 -0.0029559999 0.14896691 1380618
0.3725239 -0.0059244428 0.14521959 658952
0.36742857 0.00011901707 0.14522217 6900293
0.38594124 0.0081511252 0.14183091 12434866
0.38773999 0.012655196 0.14336084 12237490
0.39196876 0.017450718 0.14223567 12171952
0.39631578 0.021909082 0.14217454 12106416
0.42535096 0.035574134 0.1449351 12303281
0.43000001 0.03939816 0.14543974 12237488
0.43538803 0.044469699 0.14455639 12236974
0.44027278 0.049241003 0.14690071 12170925
0.43900001 0.050499838 0.14077602 12500146
0.44279459 0.054988738 0.14519362 11447201
0.36020696 -0.021982288 0.15486793 1777688
0.35894123 -0.012784806 0.15884748 922894
0.36094052 -0.014771502 0.15432705 1120528
0.37140003 -0.011008428 0.15091988 462342
0.359 -0.0094085345 0.15910435 922636
0.36259222 -0.0052744984 0.15438658 1119243
0.37112504 -0.0084604938 0.15050338 396805
0.36416671 0.00025998222 0.15244196 5915451
0.426 0.037536919 0.15056908 12105906
0.43687505 0.044448197 0.15121414 11842731
0.44237497 0.047778819 0.15481085 10723993
0.44400001 0.053157672 0.15256563 10526612
0.34548578 -0.021977397 0.16792881 1317395
0.3585 -0.020445038 0.16741459 528137
0.3611373 -0.021964559 0.16422835 1054222
0.34576055 -0.014860493 0.16793068 988430
0.35582608 -0.014192961 0.16469531 988944
0.36049998 -0.017897069 0.16278434 1120529
0.34619462 -0.0061040116 0.16844776 1119760
0.35618594 -0.0071632857 0.16499916 922894
0.36024997 -0.0048895744 0.16222295 922637
0.44814292 0.047203302 0.16079399 9671817
0.44700003 0.050373677 0.16008438 9737608
0.33769226 -0.02241103 0.17805552 1317138
0.34132394 -0.02302839 0.17315632 1646359
0.3375833 -0.015068567 0.17795926 1251859
0.34107673 -0.015059998 0.17284599 1251860
0.33776733 -0.0068785292 0.17846377 1054481
0.34181252 -0.0057584415 0.17338231 1185810
0.3488 0.0022362864 0.17913534 2963252
0.33327386 -0.022248572 0.18351714 1252116
0.33355403 -0.014688044 0.18398432 1186323
0.3340908 -0.0053670295 0.18368325 1120018
0.34725001 -0.00090293569 0.18126574 1120274
0.34900001 0.00074850401 0.18208787 988690
0.35000005 0.0022202879 0.18199836 3423546
