# .PCD v0.7 - Point Cloud Data file format
VERSION 0.7
FIELDS x y z rgb
SIZE 4 4 4 4
TYPE F F F U
COUNT 1 1 1 1
WIDTH 752
HEIGHT 1
VIEWPOINT 0 0 0 1 0 0 0
POINTS 752
DATA ascii
0.54200006 -0.10006215 -0.010175127 15066075
0.54633331 -0.097590446 -0.010968148 14606292
0.55435717 -0.094179682 -0.013147441 14737365
0.56100005 -0.092241392 -0.016770925 14802901
0.55680001 -0.088715121 -0.010975487 14606292
0.56462163 -0.085046723 -0.014002065 14211020
0.57200003 -0.08164344 -0.016541447 12829110
0.56900001 -0.079072021 -0.011348024 14934228
0.57555562 -0.077007331 -0.013951141 12829110
0.58181822 -0.07335972 -0.013769534 12829366
0.51700002 -0.10149651 -0.00032650513 14540242
0.52300006 -0.10110034 -0.002475329 14605779
0.53225005 -0.10075063 -0.0059468071 14474706
0.51900005 -0.09946093 -2.3433615e-05 14540499
0.52560872 -0.095853619 -0.0012570415 14540499
0.53439999 -0.095070042 -0.0047440114 14606292
0.5438236 -0.093875483 -0.0078894095 14672085
0.55050004 -0.090676591 -0.0090459678 14606292
0.53510344 -0.085562751 -0.0015409787 14474706
0.54460007 -0.086175166 -0.0052124416 14540243
0.55438888 -0.084316351 -0.0073093688 14540499
0.56166667 -0.081556655 -0.0087913014 14343120
0.55587506 -0.076759547 -0.0021425493 14408913
0.56418753 -0.075177319 -0.0046951468 14540499
0.57475001 -0.072354175 -0.0081034387 13355456
0.56741178 -0.06614811 -0.00088615017 14671828
0.57325006 -0.06792184 -0.0045618983 14276301
0.58100003 -0.069178507 -0.0095471526 12500146
0.48900002 -0.10687646 0.0091359839 14211021
0.49448276 -0.10385425 0.0073967627 14474449
0.50425005 -0.1026516 0.0037499 14539729
0.51228577 -0.1010841 0.0018593825 14540243
0.49783337 -0.097926222 0.0091063222 14343120
0.50534618 -0.095699996 0.0075275069 14408913
0.51454061 -0.094695479 0.0042340681 14540499
0.52244443 -0.09278062 0.0017417984 14606292
0.509 -0.089203484 0.0095096426 14540499
0.51521742 -0.087035425 0.0077329366 14540499
0.52536845 -0.084268264 0.0049543306 14474706
0.53060001 -0.082181871 0.0022110124 14474706
0.52637506 -0.078383237 0.0090626013 14408913
0.53367567 -0.076128431 0.0061882692 14474706
0.54536366 -0.072478749 0.0051947823 14408913
0.55409092 -0.072220974 0.0025658505 14408913
0.56 -0.070610985 0.0012856852 14408913
0.54699999 -0.068969466 0.0080861496 14474706
0.55471998 -0.066198669 0.0068809562 14277327
0.56325805 -0.063785411 0.0038381543 14606292
0.56539035 -0.055534631 0.0062613045 14672085
0.56850004 -0.048391975 0.0086249784 14474706
0.57250005 -0.04605142 0.0080120359 13290176
0.46675003 -0.11116246 0.018688049 14802126
0.46782607 -0.1056522 0.01873827 14539469
0.47379416 -0.10514241 0.015959362 14605520
0.48482355 -0.10412318 0.012389636 14802900
0.49100003 -0.10156463 0.010322789 14671315
0.46850002 -0.098007716 0.019720651 13881797
0.47415388 -0.095256597 0.018546376 14671570
0.48435149 -0.095267996 0.015509143 14671314
0.49403226 -0.094519511 0.012359488 14408399
0.50120002 -0.091588698 0.011005905 14211534
0.4847143 -0.088997319 0.0186173 14474191
0.49622852 -0.085169703 0.016867634 14145228
0.50379419 -0.084612362 0.013360989 14277327
0.51225001 -0.082418755 0.011517799 14474706
0.49875 -0.078357942 0.019534346 13948363
0.50536001 -0.076396592 0.017625462 14079949
0.51392311 -0.07544256 0.015056465 14277327
0.52390009 -0.0747637 0.012850774 14343120
0.53375006 -0.071980208 0.011375488 14540499
0.50300002 -0.064026609 0.019698609 14145741
0.51300001 -0.069488481 0.017388159 14211534
0.52700001 -0.068917416 0.01601452 14408913
0.53600007 -0.068654992 0.014675051 14408913
0.54570371 -0.065156206 0.01393355 14474706
0.55200005 -0.062277991 0.012033816 14277327
0.5 -0.056607723 0.019876076 14211534
0.55476928 -0.055758208 0.014821506 14211534
0.56046152 -0.053208072 0.011580561 14408913
0.55816674 -0.047620058 0.018376371 14145741
0.56319517 -0.045221098 0.015015727 14408913
0.57200003 -0.042885553 0.011131856 14803159
0.56500012 -0.035933141 0.017239496 14408398
0.57200003 -0.039317057 0.012025733 12960698
0.56425005 -0.027884863 0.019128149 13026745
0.46408013 -0.11183833 0.024181146 14275011
0.46294808 -0.10520396 0.024757233 13880510
0.45756403 -0.094613671 0.027688593 14407112
0.46381256 -0.095641099 0.02311237 14407627
0.47180003 -0.091513008 0.020961242 13882054
0.45482063 -0.085414544 0.027982179 14539727
0.46488884 -0.085520655 0.024945967 13750211
0.47385719 -0.086316906 0.02268726 14211018
0.48375002 -0.084555231 0.021495333 14474447
0.49150002 -0.081916891 0.021071551 14277327
0.45575002 -0.077287592 0.029049212 13948361
0.46500003 -0.076409832 0.027734892 13619396
0.4751364 -0.073906749 0.027278543 13816774
0.48413053 -0.074989252 0.024512213 14277069
0.49464709 -0.075171113 0.022178641 13948364
0.50288892 -0.072563678 0.020643022 13948364
0.48535296 -0.067407593 0.027782219 14079947
0.49524444 -0.063810349 0.025780654 13816776
0.50094116 -0.065445863 0.02142923 14014157
0.49734917 -0.055164699 0.0261194 13816776
0.5 -0.05440177 0.022037016 14079948
0.55333334 -0.051634517 0.020700829 14079948
0.49850002 -0.049435332 0.029152429 13422018
0.5036819 -0.047423683 0.026723919 13816776
0.51562506 -0.042982914 0.027889844 13750983
0.52450001 -0.042040415 0.027137686 13685190
0.53299999 -0.042246595 0.026178949 13750983
0.54500002 -0.042564601 0.024216633 13947592
0.55486673 -0.044246547 0.021793855 13882312
0.56 -0.041114163 0.020950235 13948362
0.52483338 -0.037711572 0.029052919 13619397
0.53400004 -0.037329283 0.027586496 13619397
0.54385722 -0.036569458 0.02634367 13685190
0.55483335 -0.034169 0.024646938 13685190
0.56050003 -0.033652175 0.021624593 14145482
0.54800004 -0.028045805 0.029481448 13552832
0.55544448 -0.02683725 0.027998077 13619138
0.56289995 -0.025897657 0.024153557 14211019
0.57275003 -0.021264052 0.023439918 13355969
0.57394445 -0.014817541 0.027217291 12763316
0.574 -0.0092202798 0.029536456 12170666
0.45900005 -0.10085689 0.034901414 12169122
0.46088883 -0.10481148 0.034604285 13156274
0.4551217 -0.095383406 0.034948062 12563624
0.44668752 -0.084707581 0.035068143 14078146
0.45075005 -0.088756487 0.030844215 14473418
0.43875003 -0.072784394 0.039267153 14605006
0.4439384 -0.075298138 0.034890279 14539470
0.45166668 -0.073978916 0.030760089 14079948
0.46500003 -0.071149766 0.030459059 13553604
0.47500002 -0.071013086 0.03000211 13685190
0.43842861 -0.06642583 0.03956816 14671570
0.44442427 -0.065144584 0.035926238 14210763
0.45100003 -0.065307841 0.032710813 13816517
0.47525004 -0.067161448 0.031128127 13422017
0.48270002 -0.064021014 0.03138905 13684675
0.44420004 -0.056319706 0.038607329 13684933
0.45700002 -0.056553766 0.036354102 13618627
0.46646664 -0.054585021 0.036745403 13487296
0.47250009 -0.052940067 0.035923991 13619138
0.48507145 -0.054112684 0.03330918 14343118
0.49222225 -0.054313973 0.031151036 13948362
0.46680003 -0.047708102 0.039535575 13356225
0.47376925 -0.045484681 0.038536791 13685188
0.48439997 -0.044518806 0.036534626 14277326
0.49486211 -0.044859335 0.033487227 13816777
0.50428569 -0.04376151 0.031598698 13553604
0.51166672 -0.040958926 0.031518992 13422018
0.48720002 -0.038847763 0.039440542 13685447
0.49429631 -0.035923295 0.037687141 13751240
0.50427276 -0.03600283 0.034638133 13487812
0.5138334 -0.037123833 0.032650191 13290432
0.52450001 -0.033834562 0.031533711 13553604
0.53100002 -0.031526554 0.031674579 13553604
0.49700001 -0.02892616 0.039536081 13619654
0.51900005 -0.024131654 0.038856193 13290432
0.52600002 -0.024459939 0.037899807 13356224
0.53463644 -0.026458031 0.035238829 13422017
0.54616672 -0.025068624 0.032365665 13487554
0.55233335 -0.021369118 0.032008775 13487553
0.54575002 -0.016002387 0.038514365 13290430
0.55426925 -0.015091192 0.036251124 13290173
0.56371427 -0.013259641 0.033149224 13487809
0.57033342 -0.011830923 0.030682942 14144969
0.55666667 -0.0085072033 0.038633659 13290430
0.56608337 -0.0058864071 0.036412779 13553602
0.57261902 -0.0044708024 0.032971803 12566452
0.56840003 0.0057058753 0.038628522 12500401
0.57372004 0.0035112081 0.035209507 10987677
0.58050001 0.0022270617 0.031229891 10066573
0.56378949 0.014965413 0.038387075 9934474
0.56100005 0.021194698 0.039374005 10000780
0.45900005 -0.10096435 0.045324329 12629929
0.46030775 -0.10342447 0.044573449 12827565
0.45528001 -0.095150188 0.044958666 11905949
0.44478872 -0.084358715 0.044899367 12432294
0.45040002 -0.089477643 0.047428824 11774363
0.43679705 -0.074260548 0.044492081 13485496
0.44000003 -0.078999497 0.044100523 12958894
0.42761907 -0.062453054 0.048171781 14144198
0.43251246 -0.065393016 0.044139944 14407371
0.42610651 -0.055235866 0.048005562 14473678
0.4344137 -0.055156432 0.043628417 14277070
0.4404667 -0.053613186 0.040812775 13685190
0.42532355 -0.045401298 0.048530888 14079691
0.43422499 -0.045655161 0.045434531 13750470
0.44280955 -0.044471908 0.042923864 13356225
0.45442861 -0.044450369 0.041466333 13355968
0.46500003 -0.045025177 0.040256221 13356225
0.47500002 -0.042101514 0.040009964 13224637
0.42635718 -0.037644751 0.049028758 13290433
0.43500003 -0.039232675 0.046476882 13158846
0.47628576 -0.032021508 0.04616762 13356223
0.48484004 -0.033758774 0.042238358 13553603
0.49050003 -0.03256562 0.04016728 13290689
0.4771843 -0.026474142 0.046599526 13290687
0.48159096 -0.022499632 0.045990434 13158846
0.49200001 -0.029786933 0.040290114 13751240
0.5266667 -0.021199776 0.041896045 13290432
0.53000003 -0.020920895 0.040920474 13422018
0.48606256 -0.017475689 0.047412641 12895931
0.49141669 -0.01316414 0.048391622 12698553
0.52900004 -0.019643024 0.043320064 13290432
0.53497148 -0.015203721 0.044343691 13224639
0.54318184 -0.012191438 0.041588347 13224638
0.49200001 -0.0090548787 0.049504362 12566709
0.53820002 -0.0066905855 0.047537696 12895931
0.54353571 -0.0051831147 0.044596262 13027260
0.55346161 -0.0046001822 0.041832771 13093052
0.56150001 -0.0024435711 0.040723577 13224637
0.54455554 0.0011695036 0.048273478 12698552
0.55568749 0.0047351802 0.046802584 12764088
0.56353134 0.0058307573 0.043172266 13158845
0.55756259 0.015192237 0.048920531 12500916
0.56166679 0.015298571 0.044017971 11974314
0.5583334 0.024472041 0.049098123 12500915
0.56033349 0.024885679 0.044791475 10066316
0.5605455 0.033108626 0.047931079 9869194
0.42100006 0.046852324 0.049062304 12171181
0.42523533 0.056420222 0.048931763 12697525
0.43000001 0.05953091 0.047292557 12236972
0.428 0.060590744 0.049409706 13289660
0.43223533 0.065517157 0.047075525 13092025
0.43431577 0.07495375 0.047224648 13947590
0.43605164 0.085045382 0.047475353 14342090
0.43600002 0.090470582 0.047950115 10590352
0.45900002 -0.10139415 0.051019318 12235428
0.46000001 -0.10215348 0.053822644 12235428
0.45623818 -0.094647162 0.055079084 11906206
0.44434789 -0.083197281 0.05497599 11774620
0.45130771 -0.088603064 0.055812359 11774620
0.4355945 -0.074627206 0.054905899 11774621
0.44000003 -0.079171166 0.058177844 11840413
0.42601615 -0.063295066 0.055264059 12630444
0.43068963 -0.068422772 0.054494783 12103844
0.41767859 -0.052423321 0.057284672 13420474
0.42145836 -0.055583909 0.053831145 13749440
0.40900001 -0.040799633 0.059105698 14211016
0.41427174 -0.044802226 0.056132652 14144968
0.4208335 -0.044689037 0.051209413 14211533
0.40866667 -0.035174191 0.058703974 14079690
0.41445836 -0.035745215 0.056084607 13948361
0.42375472 -0.034445003 0.052963272 13553348
0.42999998 -0.03039539 0.051654652 13224126
0.40900001 -0.029549286 0.059345067 13356225
0.41338891 -0.028143771 0.058040015 13356226
0.42649999 -0.028313704 0.055389129 13158846
0.43113339 -0.025831915 0.055288807 13093053
0.47714287 -0.024970753 0.051202778 13158845
0.48044449 -0.020838885 0.052090149 13290174
0.46900001 -0.010827456 0.058169506 12829881
0.47425005 -0.01470336 0.055902284 13092540
0.48424998 -0.0151376 0.052743394 13356224
0.49037501 -0.011894475 0.051062383 13027261
0.46900001 -0.0097295186 0.059267446 12895674
0.47427273 -0.0078166882 0.058311865 13093053
0.48459461 -0.0042895093 0.056107938 13027003
0.49125001 -0.0084657706 0.051153056 12764089
0.53800005 -0.0017149332 0.050354417 12698554
0.48550004 0.0016381906 0.058961201 12764088
0.49560007 0.0053510396 0.057909854 12566711
0.50386667 0.00692891 0.05651392 12369332
0.51414293 0.0082494076 0.054823495 12172209
0.52000004 0.0086897444 0.053539012 12238003
0.54475003 0.0071860482 0.052258532 12500918
0.55266666 0.007942616 0.050433349 12500916
0.40175 0.017453864 0.058841687 11907498
0.50512505 0.01258623 0.058950946 12106160
0.51386672 0.015329849 0.058278605 12040367
0.52450007 0.016434897 0.056862276 11909037
0.53507698 0.015298278 0.055087186 11974830
0.54487503 0.016124094 0.053386014 12106160
0.55221426 0.015508194 0.050944891 12237745
0.40660003 0.025991339 0.058385834 12302768
0.51800001 0.020782795 0.05939633 11777195
0.5241667 0.02328149 0.058770414 11711402
0.53460008 0.02283071 0.057042163 11908781
0.5455001 0.024821296 0.055905096 12040366
0.55386668 0.025423538 0.052828636 12303539
0.40900001 0.031489834 0.059105698 12698295
0.41392502 0.036332712 0.05791945 12763832
0.4215 0.0387844 0.053921536 12171181
0.55729997 0.031624373 0.054961484 12040365
0.56167859 0.036769383 0.05534222 11316385
0.41622505 0.045406241 0.057058733 13421503
0.42072237 0.044456109 0.052126139 12302767
0.56789476 0.044268887 0.058049221 10986907
0.57057148 0.048272006 0.057409108 9868939
0.41735184 0.054651506 0.057314985 14144969
0.42170906 0.055444248 0.052640844 13552832
0.57588458 0.055881158 0.057372514 10131853
0.41845462 0.062386408 0.059024349 14473935
0.42359385 0.065173157 0.054431755 14342349
0.42999998 0.068590641 0.050312471 14144969
0.57735723 0.062747374 0.057609625 10460561
0.42624691 0.074697688 0.055827588 14539728
0.43019053 0.076055214 0.051005848 14473933
0.42835712 0.081079118 0.057496291 14473936
0.43167531 0.085583337 0.054598399 14342347
0.43380004 0.090523005 0.053999871 9405821
0.4559201 -0.093612574 0.064482056 11972256
0.45999998 -0.098922879 0.062437586 11774877
0.44678056 -0.083253533 0.064625382 11511705
0.45166671 -0.088008292 0.065223344 11709084
0.43654349 -0.073600292 0.064478084 11445912
0.44177783 -0.078171499 0.066172853 11511705
0.42640007 -0.062913977 0.06462726 11182741
0.43109095 -0.06790638 0.065244287 11248533
0.41666663 -0.052325487 0.064576477 11906465
0.42197734 -0.057409525 0.065183468 11380121
0.40804452 -0.04245225 0.064978585 12893874
0.4116123 -0.047105778 0.064975426 12301736
0.39850003 -0.030889994 0.069015704 13157048
0.40411666 -0.035170518 0.064424537 13552575
0.39716682 -0.02509377 0.068123929 13881541
0.40460506 -0.02527393 0.063626319 13684677
0.41122225 -0.022649063 0.060949605 13224640
0.39733329 -0.01824107 0.068734832 13618627
0.40525338 -0.015374977 0.066379756 13092542
0.41475001 -0.017824775 0.062849894 13027262
0.42566669 -0.016467741 0.063088387 12961469
0.43000001 -0.017980194 0.062392123 13158848
0.39225003 -0.0020550641 0.069311537 12171183
0.40500003 -0.00850977 0.06919001 12500404
0.47287503 -0.0035781169 0.062246799 12698296
0.39290693 0.0054009841 0.068190537 12565939
0.40000001 0.0094936397 0.063657627 12236976
0.47637498 0.0038760379 0.064426817 12500917
0.4827143 0.0059695542 0.062769882 12435124
0.49425 0.008839421 0.060721245 12369331
0.39747065 0.014747027 0.068671942 13092796
0.40114686 0.015934492 0.063886046 12368818
0.48625004 0.010687989 0.066280358 12106160
0.49564102 0.014832669 0.064860195 11908524
0.50326669 0.016267816 0.061944023 11908781
0.51174998 0.019034956 0.06107337 11974573
0.39875001 0.021366293 0.069292516 13553603
0.40333921 0.025352394 0.064737953 13224126
0.49900001 0.02118866 0.066563047 11579046
0.5025 0.021039968 0.065254256 11908267
0.51570004 0.023531925 0.062327504 11777193
0.52350003 0.027748872 0.061252039 11579815
0.4056904 0.034611471 0.06507054 13619396
0.41025001 0.038069669 0.060486846 13619396
0.53299999 0.030744001 0.062366404 11777194
0.54511118 0.037327878 0.06625963 11513764
0.55360001 0.036726363 0.062436871 11842987
0.56033331 0.039097022 0.060752213 12106158
0.40803865 0.042642262 0.066183992 13619396
0.41138893 0.04655889 0.063898318 13750981
0.54610002 0.043131996 0.066835523 11447971
0.55318755 0.043483339 0.064398371 11645607
0.56343752 0.045531243 0.061717592 11776937
0.41428047 0.05484302 0.064820178 13750981
0.56900001 0.051467821 0.061914131 9540233
0.57461548 0.055761173 0.061335023 10000781
0.41774002 0.062765069 0.064779013 13947590
0.42060474 0.067573942 0.065356553 13947590
0.57675004 0.061957508 0.061744064 10263182
0.42410094 0.075060949 0.065055326 13881798
0.42745838 0.082926519 0.064813547 13947592
0.43021426 0.087114029 0.061415911 12895160
0.45450002 -0.091037311 0.071905375 11643549
0.44825006 -0.081531271 0.074661069 10919825
0.45242232 -0.086448185 0.075153559 10985362
0.43800005 -0.071578458 0.073125467 10919825
0.44248083 -0.075760275 0.075558975 10854289
0.42786667 -0.061696902 0.073103003 10656910
0.43322644 -0.065773547 0.075570375 10919826
0.41750002 -0.051422179 0.073433988 10853775
0.42344823 -0.056240559 0.075166419 10787982
0.40849999 -0.04166675 0.074455388 11051157
0.41314995 -0.046348061 0.075216517 10919825
0.39764288 -0.031522937 0.073887162 11577246
0.40373686 -0.036562297 0.074483141 11248537
0.38878569 -0.021718103 0.078319922 12959667
0.39318326 -0.025122069 0.074187681 12762033
0.38694125 -0.014990726 0.077120267 12959924
0.39297497 -0.016309932 0.072306715 13684162
0.40176922 -0.011803829 0.070954323 13026491
0.38668236 -0.0053892205 0.077014044 12631474
0.39191672 -0.0050787921 0.072382532 12697782
0.40133333 -0.0083265379 0.071071185 12236976
0.38814089 0.0041470337 0.077303655 13223869
0.39093345 0.0052552163 0.072584592 13158845
0.38900003 0.010598549 0.078298852 12960954
0.39336365 0.014961309 0.074609101 12961466
0.39751279 0.023373779 0.07464058 12698294
0.40020582 0.028071405 0.075072691 12500915
0.40400994 0.034663972 0.074890934 12369329
0.40817785 0.041987125 0.074643239 12105901
0.41152728 0.047062628 0.075197481 11842986
0.41541943 0.054959614 0.074753247 12171694
0.42000002 0.0591297 0.07962247 11645607
0.41822231 0.061926518 0.07248766 12895415
0.42191237 0.065798819 0.075675219 12631731
0.42557463 0.07489948 0.074777648 13157818
0.42833337 0.082196578 0.074285343 13157561
0.43000001 0.080670305 0.079504967 12104873
0.44900003 -0.081053361 0.08170408 10787984
0.45256528 -0.084270626 0.084990397 10985363
0.44508114 -0.074789353 0.084829509 10919570
0.45000002 -0.079390317 0.088470161 10985620
0.43572882 -0.063976169 0.084560074 10985363
0.44040003 -0.068589799 0.085897513 10985363
0.42530364 -0.053529602 0.08432854 10853777
0.43078265 -0.05800239 0.086798318 10985363
0.40900001 -0.040081523 0.080409542 10590351
0.41512251 -0.043687437 0.084807053 10656398
0.42142105 -0.048102509 0.086955212 10722191
0.39900002 -0.030694941 0.080311671 10656144
0.40568581 -0.034315135 0.084762536 10721935
0.4111667 -0.038583744 0.086880535 10722191
0.38659185 -0.022097919 0.085119888 10525328
0.3942382 -0.026711952 0.084295578 11116693
0.40040007 -0.029584378 0.087062404 11116435
0.37899998 -0.012298676 0.089298956 2107167
0.38204041 -0.015289146 0.08465717 2566948
0.37900007 -0.0069259098 0.08895392 2172708
0.38150862 -0.0049083396 0.084413543 2698535
0.38595998 0.004555068 0.085003324 12632246
0.38899997 0.010283321 0.084042989 12698038
0.39393127 0.015323222 0.085105859 12171694
0.40000001 0.01979412 0.089877032 12040363
0.39823812 0.021972477 0.082689516 11974572
0.40179166 0.025769113 0.085788168 11777192
0.40668303 0.034274559 0.084368959 11579812
0.41137508 0.038355637 0.088100418 11645605
0.40849999 0.040935092 0.080949172 11645605
0.41388616 0.045252588 0.085080564 11711398
0.41774997 0.052971095 0.083550386 11711399
0.42121285 0.056702208 0.086378999 11842471
0.42580003 0.06438373 0.084598914 11776678
0.42999998 0.068674527 0.088145278 11973800
0.42874995 0.072908551 0.081532493 11710629
0.43036664 0.074677758 0.085636236 11908008
0.43100002 0.08085791 0.083725773 10657427
0.454182 -0.082272045 0.094125524 11051411
0.44710261 -0.073019728 0.0944262 10985363
0.45226672 -0.077886961 0.09601225 11116948
0.43814293 -0.062036514 0.095030241 11051156
0.4428001 -0.066919245 0.096085705 11051156
0.42805552 -0.052026775 0.092953421 10853777
0.43276787 -0.056131925 0.095377184 10919569
0.41726926 -0.042058989 0.093570933 10853776
0.42327592 -0.0467344 0.095584929 10853776
0.39500001 -0.030387223 0.099849992 11774879
0.40621215 -0.033042625 0.093520366 11379607
0.41295454 -0.037486348 0.095690675 11248277
0.37900001 -0.020283887 0.099354416 3222818
0.38562822 -0.023961216 0.095046259 10656657
0.39319047 -0.027619498 0.092977963 11445658
0.40060002 -0.029880216 0.091886058 11445400
0.37681085 -0.014433196 0.095442638 2106911
0.38068753 -0.018592104 0.091718964 1909531
0.37692365 -0.0054913098 0.095277414 2172191
0.38025004 -0.00098939857 0.091892079 2238754
0.37849998 0.00012260332 0.098114282 11711653
0.38475215 0.0048083849 0.094645388 12106414
0.38899997 0.01014322 0.094690658 12237742
0.39464769 0.014662948 0.094938427 12040363
0.40030771 0.019449191 0.096363075 12040364
0.40496805 0.025146971 0.094899036 12040364
0.41000003 0.029887147 0.098362774 12106158
0.40846154 0.031687971 0.092220731 11908777
0.41295773 0.035679352 0.095487349 11974571
0.41733333 0.04352425 0.093827926 11908777
0.42115164 0.047163855 0.097051434 11776934
0.42437181 0.054787833 0.094749317 12040107
0.42999998 0.05953091 0.098631084 12500657
0.42807144 0.062343024 0.092248552 12368559
0.43148488 0.065740094 0.095685042 12368559
0.43301964 0.072947755 0.095096193 12368304
0.45475 -0.081425466 0.10244904 11051156
0.44869229 -0.071120299 0.10348497 11051156
0.45323646 -0.076097801 0.10512282 10853778
0.43900001 -0.060492504 0.10069545 11051156
0.44446984 -0.064849421 0.10493318 10919570
0.45000002 -0.069382474 0.10953932 10656398
0.42900002 -0.050075874 0.1004103 11051156
0.43602172 -0.054077707 0.10407382 10919570
0.44086954 -0.057520334 0.1070046 10985363
0.40400001 -0.040773746 0.10874546 12037537
0.41900003 -0.040407591 0.10232025 11445399
0.42410001 -0.044111945 0.10437021 11379606
0.43100002 -0.048180826 0.10816497 11248278
0.39483872 -0.031394217 0.1056176 11840415
0.40378577 -0.036197513 0.10627227 12037794
0.41485 -0.037698343 0.10204802 11774364
0.37811774 -0.020601453 0.10510924 5131590
0.38526377 -0.025172453 0.10506349 11248536
0.39144444 -0.029197318 0.10352892 11643037
0.37268317 -0.014676692 0.10519323 1975582
0.37222078 -0.0051035336 0.10514085 2106654
0.3775 0.00081856514 0.1030003 12040106
0.38572297 0.0062607224 0.10509553 12434866
0.389 0.01014322 0.10434362 12435123
0.39301825 0.013369723 0.10409154 12369330
0.40145835 0.018576385 0.10481284 12303536
0.40692556 0.023854924 0.10464211 12237742
0.41091666 0.028071105 0.10631966 12040364
0.41533855 0.033997972 0.10410838 11974570
0.42100003 0.038458284 0.10752557 11842984
0.41875002 0.040818438 0.10095212 11777191
0.42361033 0.045094009 0.10502654 11842728
0.42770591 0.052501332 0.1036137 12171435
0.43070373 0.056587245 0.10611364 12566193
0.43402249 0.065195799 0.10529839 12763315
0.43517253 0.071488559 0.10477144 11644579
0.45800003 -0.080265619 0.1109506 10656143
0.45600006 -0.074012928 0.11458255 10722191
0.44776922 -0.062805884 0.11405302 10985363
0.45229411 -0.067529082 0.11595318 10853777
0.43862501 -0.051328123 0.11575553 11314071
0.44289294 -0.056038145 0.11517833 11182485
0.40399998 -0.040537301 0.11252854 11971743
0.42900002 -0.044050094 0.11045327 11708572
0.43326318 -0.047749862 0.11310212 11511450
0.3883462 -0.031589512 0.11617339 11774879
0.39250001 -0.035068057 0.11571369 11972001
0.40276188 -0.037722796 0.11200276 12103330
0.37658331 -0.021333644 0.11568638 7039332
0.3845 -0.026528705 0.11481912 11248536
0.36792094 -0.013466238 0.11528325 1712152
0.3715294 -0.018146619 0.11396835 2172448
0.36793846 -0.0051145055 0.1150353 2305060
0.37 -0.00074632664 0.111287 4016960
0.36833334 0.00011931013 0.11897654 13093053
0.38563639 0.0064144405 0.11469407 12435121
0.38861111 0.010436632 0.1156701 12500914
0.39417568 0.014457274 0.11488457 12435121
0.40143478 0.01921238 0.11478753 12500658
0.40657449 0.022960557 0.11477644 12500658
0.41199994 0.027624905 0.1150471 12566194
0.41663417 0.031967837 0.1147394 12237485
0.42235187 0.037184119 0.11514926 12105899
0.42700002 0.044159308 0.11424539 11974057
0.4303 0.047938518 0.11738659 11842214
0.42900002 0.050353799 0.11045327 12236974
0.43262824 0.054876473 0.11504061 12039852
0.43463373 0.063756436 0.11464228 12565938
0.45642853 -0.071672916 0.12247666 11314070
0.44900003 -0.06081935 0.12138375 11313814
0.45330361 -0.064876109 0.12510727 11313813
0.44604161 -0.056097005 0.124396 11511191
0.45000002 -0.059550196 0.12850158 11511191
0.39659995 -0.042024486 0.12750204 11972258
0.38712499 -0.032407142 0.12565608 11708829
0.39221823 -0.037006307 0.12477106 11906465
0.37720698 -0.02256527 0.1250412 10131599
0.38279757 -0.026992789 0.12485744 11117206
0.36510026 -0.014379148 0.12525098 1843482
0.37063637 -0.01944213 0.12350687 1908766
0.3651655 -0.0051735961 0.12495966 2369310
0.36750004 0.00011904021 0.1234367 12895156
0.37699997 0.0032165532 0.12443384 12303535
0.38555178 0.0072427113 0.12532282 12303537
0.38872001 0.010755165 0.12548779 12303537
0.39376548 0.015562951 0.12545022 12303537
0.4005 0.019350657 0.12092885 12566707
0.39900002 0.020678699 0.12841609 12500146
0.40562499 0.023345727 0.12379645 12566708
0.4127 0.027640019 0.12480593 12500658
0.4175238 0.031554494 0.12355748 12500401
0.42333344 0.036083017 0.12572499 12434351
0.42803571 0.041367073 0.12430654 12171179
0.43146667 0.046339449 0.12506077 12039593
0.43643746 0.055154819 0.12500426 11776421
0.44000003 0.059885304 0.12976617 11644835
0.43778384 0.062657677 0.12404943 11513508
0.44000003 0.062460426 0.12942283 10526612
0.45479175 -0.063427225 0.13512935 11445398
0.44852942 -0.054766458 0.13271394 11774364
0.45150009 -0.057610858 0.1359932 11708571
0.3946 -0.042146746 0.13556805 12103844
0.38601241 -0.033409607 0.13539132 11643294
0.39144456 -0.038337305 0.13430342 12037794
0.36800003 -0.02055667 0.1330843 4539970
0.37623686 -0.022877399 0.13559049 8947325
0.3811323 -0.027027162 0.13470891 11051158
0.36530998 -0.01505028 0.13354704 1777432
0.37065211 -0.015120679 0.13904287 790794
0.36450005 -0.0044834227 0.13371964 2565919
0.37062502 -0.0080135213 0.13934846 593158
0.3644 0.00011803606 0.13681744 13091510
0.38575003 0.008028293 0.1346402 12303537
0.38827029 0.011157214 0.1352919 12369587
0.393868 0.016380889 0.13498037 12369331
0.39761907 0.021273095 0.13618961 12500916
0.40140003 0.023438286 0.13309436 12566452
0.413625 0.028097445 0.1309405 12631732
0.41800004 0.030960754 0.13110505 12500146
0.42556143 0.036327511 0.13439019 12368816
0.42899999 0.04051169 0.13174435 12236972
0.43328002 0.045053374 0.13518155 12171180
0.43855307 0.052765537 0.13432129 11908007
0.44002926 0.057102054 0.13544054 11973543
0.44000003 0.061945405 0.13079622 10460561
0.45681581 -0.063655853 0.14311154 11511449
0.45372733 -0.057503473 0.14279704 11840671
0.39307415 -0.042448942 0.14188895 11972515
0.38529173 -0.034544364 0.14203627 11380636
0.39000002 -0.039132543 0.14104043 12170150
0.36117867 -0.02174193 0.14836119 3027245
0.37558329 -0.023213413 0.14294942 8223860
0.38065386 -0.028016457 0.14242421 10591377
0.36140004 -0.018242838 0.1489642 857101
0.37252888 -0.014700343 0.1446341 725514
0.36837506 -0.0026118641 0.14726901 1577228
0.37222096 -0.0065113436 0.14567126 658695
0.38600004 0.0083788382 0.14191255 12435381
0.38754344 0.0129878 0.14328584 12238004
0.3925173 0.017432515 0.14205705 12172211
0.39642856 0.021343051 0.14269944 12106161
0.40350002 0.025290206 0.14213279 12303540
0.41750002 0.030923136 0.14414455 12237746
0.425587 0.036033846 0.14469387 12237489
0.43000004 0.03939816 0.14551163 12303281
0.43561637 0.045137078 0.14469203 12236974
0.44000003 0.049584828 0.14882207 12105388
0.43900007 0.051142156 0.1419322 12434096
0.44098151 0.054342311 0.14491466 11578788
0.36026242 -0.022156594 0.15475361 1777688
0.35881829 -0.013171602 0.15862873 988686
0.36126882 -0.014764985 0.15415534 1186063
0.37180001 -0.011892734 0.15073352 462342
0.359 -0.0094085345 0.15910435 857102
0.36276153 -0.0052716401 0.15448065 1184525
0.37075004 -0.0085592307 0.15035212 461574
0.36400002 0.00011790649 0.15166281 5978933
0.42600003 0.038034391 0.15056908 12435125
0.43827277 0.044823058 0.15136255 12105903
0.44356671 0.047179803 0.15547268 10855835
0.44419047 0.052778658 0.1533456 10592405
0.34522736 -0.021745089 0.16804765 1449237
0.35900003 -0.020053925 0.16722846 461574
0.36158338 -0.022260038 0.16467805 988430
0.34552082 -0.014850815 0.16781521 988687
0.35551244 -0.01433678 0.16453695 1054480
0.36046436 -0.018177712 0.16293745 1120528
0.34516937 -0.0064458535 0.16814865 1054224
0.35657892 -0.0076235957 0.1646117 988688
0.3603 -0.0045210826 0.16209736 856847
0.44880947 0.045023251 0.16203384 9671817
0.45085716 0.046688601 0.16508541 9803401
0.44900003 0.051439952 0.16122109 9934730
0.45033336 0.051100474 0.16373855 9868680
0.33900002 -0.021317529 0.17616503 1317651
0.34124634 -0.022987751 0.1730417 1712152
0.33900005 -0.015195431 0.17610833 1383443
0.34113157 -0.015038061 0.17284587 1317651
0.33900002 -0.0090166498 0.17616503 1778202
0.34162804 -0.0055708243 0.1733049 1120273
0.33259264 -0.022241317 0.18490036 1317652
0.33303484 -0.014783439 0.18548803 1317395
0.33322594 -0.0057293531 0.18549025 1054738
0.78343481 0.19546299 0.2254682 10395284
0.78759092 0.20407768 0.22515398 10460305
0.78462505 0.18646048 0.23668802 10329747
0.78544009 0.19508834 0.23562086 10263954
0.78809536 0.20407958 0.2349757 10395281
0.79040003 0.20934451 0.23495898 10329485
0.78837508 0.1859692 0.2435845 10329490
0.79049999 0.18623911 0.2488669 10198159
0.7885384 0.19479419 0.24306671 10263697
0.79049999 0.19530615 0.24738669 10329746
0.78900003 0.20343252 0.24223749 10329747
0.79081255 0.20598321 0.24526317 10198417
0.79133344 0.18595178 0.25526106 10132366
0.79100001 0.17709789 0.26846734 10132366
0.78850007 0.16730928 0.27869418 10000780
0.78900003 0.17110892 0.27610034 10066316
0.7905001 0.17629287 0.2752367 10131853
0.78875005 0.16782379 0.28201434 9934988
0.79000002 0.16762698 0.28754666 9934989
0.78900003 0.17018539 0.28164151 10066574
0.79091311 0.1746254 0.28534433 10000782
0.79000002 0.13690631 0.29812935 9869196
0.79005879 0.14484683 0.29730552 9869196
0.79095668 0.15466791 0.29703218 9869196
0.79145837 0.16538894 0.29510331 9934989
0.7924 0.17463104 0.29491442 10000782
0.79205573 0.1340646 0.30457422 9803403
0.79108703 0.14494966 0.30553815 9869196
0.79161292 0.15514791 0.30556062 9869196
0.79259992 0.16524786 0.30463767 9934732
0.79273075 0.1545025 0.3153078 9869196
0.78900003 0.1498677 0.32874164 9869196
0.78900003 0.15540889 0.32781807 9869196
0.79124016 0.15473895 0.32337433 9803403
0.78900003 0.16156575 0.32812595 9869196
0.79256672 0.16569959 0.32453197 9803403
0.78900009 0.14902812 0.33478656 9672074
0.79104769 0.14364046 0.3348847 9672074
0.78829992 0.15527099 0.33491036 9672074
0.78900009 0.16178964 0.33478659 9737867
0.79079998 0.16687267 0.33504495 9737610
0.79275006 0.14516543 0.34500051 9671817
0.79154181 0.15498246 0.34555444 9606281
0.79166675 0.16535623 0.34483626 9737867
0.79100025 -0.17548271 0.37479153 9869198
0.79263997 0.16540366 0.37479106 9606281
0.79275995 0.17470862 0.3748481 9606281
0.79269993 -0.18531774 0.38502556 9737868
0.79096448 -0.17505684 0.38530976 9737867
0.79259992 0.16539541 0.38405225 9540489
0.79269224 -0.18509974 0.39537379 9672074
0.79276913 -0.17505275 0.39469868 9672074
0.79284614 0.14731488 0.39615992 9277830
0.79130012 0.14604354 0.4050011 9408903
0.79145718 0.15504682 0.40493488 9474696
0.7924332 0.20431842 0.40530172 9737355
0.79214299 0.14543001 0.41588616 9408904
0.79159999 0.15499444 0.41507101 9408904
0.79219985 0.16531196 0.41538534 9474697
0.79211098 0.17463304 0.41513196 9540233
0.79103476 0.18467048 0.41477394 9606026
0.79064012 0.19460176 0.41456765 9606026
0.79207999 0.20422812 0.41532269 9606025
0.79233336 0.13875364 0.42163697 9343111
0.78900003 0.14432651 0.42848301 9474695
0.79140007 0.14528373 0.42444789 9343110
0.7916764 0.15479274 0.42502919 9408903
0.79206663 0.18475236 0.42458659 9540233
0.79180002 0.19488694 0.42444354 9474440
0.78780007 0.13783635 0.43373308 9277316
0.7887271 0.14511697 0.43521723 9343109
0.79000002 0.14820823 0.43087548 9408902
0.78900003 0.15171476 0.43679482 9343110
0.79044014 0.15613785 0.43400082 9343366
0.79170001 0.16520862 0.43458065 9343366
0.79209095 0.17506535 0.43504715 9474695
0.7912727 0.18498829 0.43409234 9540232
0.79160005 0.19483784 0.43452659 9540233
0.79258043 0.20453593 0.43521389 9474441
0.78899986 0.1457631 0.44336218 9343111
0.79000002 0.14728352 0.44752014 9277831
0.78899986 0.15510105 0.44449097 9343367
0.79000002 0.15560585 0.44012251 9408904
0.78900003 0.16095006 0.44510663 9474697
0.79025 0.16583055 0.44396096 9343111
0.78900003 0.17942071 0.44695365 9474697
0.79027623 0.17492506 0.4438484 9408904
0.78900003 0.18455142 0.4459275 9408904
0.79000002 0.18542752 0.44231874 9408904
0.79064012 0.19460207 0.44418007 9343111
0.79156673 0.20502104 0.44470018 9408904
