# .PCD v0.7 - Point Cloud Data file format
VERSION 0.7
FIELDS x y z rgb
SIZE 4 4 4 4
TYPE F F F U
COUNT 1 1 1 1
WIDTH 616
HEIGHT 1
VIEWPOINT 0 0 0 1 0 0 0
POINTS 616
DATA ascii
0.47820002 -0.031639405 -0.10166953 12894397
0.48000002 -0.037488088 -0.10002996 13091780
0.47568756 -0.02504478 -0.10177588 14605530
0.47213164 -0.01495076 -0.10246224 15855338
0.46884999 -0.0034706215 -0.10226174 15856107
0.47000018 -0.0063118949 -0.10399756 15527142
0.46841517 0.0046209968 -0.10359734 15461349
0.47000003 0.00015224189 -0.10674823 15592937
0.46893746 0.011678923 -0.10252761 15132384
0.47029269 0.015943188 -0.10402238 14671577
0.47375524 0.024627898 -0.10341303 12830398
0.47633338 0.030634345 -0.1018675 12106417
0.4835 -0.071718484 -0.090572402 14935009
0.48465836 -0.063653097 -0.093200602 15395301
0.48438597 -0.054795004 -0.094144724 15658473
0.47900003 -0.040886167 -0.091523595 16711160
0.48088357 -0.04500895 -0.094848707 15987438
0.47778577 -0.03434227 -0.094379492 16513011
0.48000002 -0.037956294 -0.097408034 16250096
0.47457531 -0.025466787 -0.094948567 16184302
0.46785182 -0.013319276 -0.092754729 15855594
0.47138289 -0.016545644 -0.096428946 16052716
0.46530566 -0.0053022895 -0.095222652 15789801
0.45900005 0.0044467882 -0.09028101 15000798
0.46352762 0.0050184224 -0.095295161 15263457
0.46568123 0.015132611 -0.095065601 14737626
0.47000003 0.019590495 -0.098679535 14146259
0.46806666 0.02243405 -0.092211217 13948367
0.47231999 0.025679033 -0.095689669 13817038
0.47466668 0.031916488 -0.092810996 12764092
0.48306257 -0.093523011 -0.083392188 16645880
0.48359621 -0.084708765 -0.084500588 16382452
0.47900003 -0.07105042 -0.080758661 16711673
0.48259681 -0.075158261 -0.085217215 16382709
0.47794449 -0.063872546 -0.081265435 16711673
0.48144448 -0.065506451 -0.086204737 16645880
0.47657576 -0.0544452 -0.082856245 16711673
0.48103327 -0.056075986 -0.087409258 16711673
0.47503138 -0.044921152 -0.084740393 16645880
0.48000002 -0.047601286 -0.089635842 16711673
0.46859998 -0.03297947 -0.081308797 16381681
0.47310525 -0.035756942 -0.085428089 16578804
0.46587756 -0.024313783 -0.083761498 15855337
0.47121063 -0.027137721 -0.087981328 16118253
0.4585295 -0.012923307 -0.08153867 15855337
0.46328303 -0.015528927 -0.085913576 15986923
0.45722225 -0.0047505642 -0.083951078 15789801
0.46105266 -0.0067277043 -0.088469908 15724265
0.45595002 0.0049504936 -0.084888227 15197920
0.45748883 0.01390864 -0.083727755 14606040
0.46141383 0.017323412 -0.086996026 14342868
0.46487099 0.024783637 -0.084402956 14145489
0.47050002 0.028653422 -0.08855065 13684938
0.46725002 0.031053375 -0.083157085 13816524
0.47208336 0.032388933 -0.088252924 12763835
0.47319233 -0.093936518 -0.074190825 16711418
0.48050004 -0.093205914 -0.079886705 16711675
0.47404769 -0.084977731 -0.074388415 16711674
0.48055559 -0.085346118 -0.079895943 16711675
0.46888891 -0.073027045 -0.070638493 16711675
0.47379321 -0.075153224 -0.075303577 16711674
0.48000002 -0.079064563 -0.079803571 16711675
0.46849996 -0.064694442 -0.071380056 16711675
0.47289795 -0.065299325 -0.076032452 16645882
0.46789658 -0.054240059 -0.072618596 16645882
0.47178382 -0.055191956 -0.077187374 16645881
0.46627125 -0.04432711 -0.074105807 16645624
0.4703078 -0.047022238 -0.07861606 16580088
0.45900002 -0.031012611 -0.070939519 15723751
0.46393049 -0.034773905 -0.074880123 16513524
0.45782977 -0.023617618 -0.073293306 15789287
0.46155185 -0.0260104 -0.077483192 16052460
0.45487842 -0.014869368 -0.074975096 15789287
0.44866672 -0.0039698854 -0.071531236 15723751
0.4524546 -0.0055167885 -0.076423809 15723751
0.44824451 0.005088957 -0.072567455 15066591
0.45148781 0.0047863713 -0.07764402 15066334
0.44868419 0.01302722 -0.071501903 14606040
0.45312291 0.015431037 -0.076011628 14540247
0.45677775 0.023226598 -0.073857576 14014160
0.46114293 0.026909381 -0.076901354 13948367
0.46440628 0.032531098 -0.074388817 13224644
0.4659355 -0.094323203 -0.065039821 16645880
0.46495578 -0.084988721 -0.06457518 16711673
0.47000003 -0.086494684 -0.069338761 16711673
0.45900002 -0.071307391 -0.06019425 16711673
0.46420005 -0.075189583 -0.064801581 16711673
0.45900008 -0.064196534 -0.060636703 16645880
0.46358719 -0.065016337 -0.065870181 16645881
0.45888895 -0.054639891 -0.060716946 16645880
0.46309537 -0.055141605 -0.066159979 16645880
0.45826662 -0.0443753 -0.062316597 16711159
0.46211365 -0.045830462 -0.067048512 16579574
0.45678461 -0.034650624 -0.064435974 16447474
0.46044445 -0.038177218 -0.068408683 16513267
0.44890004 -0.021923371 -0.062022604 15986668
0.45367175 -0.02580669 -0.065623157 16052460
0.44661969 -0.014322032 -0.064071134 15723495
0.45085719 -0.017270297 -0.068173908 15723494
0.43900001 -0.00088550645 -0.060654528 15132384
0.44385916 -0.0051152725 -0.065025464 15592422
0.43900007 0.003225321 -0.060654525 14737883
0.44298708 0.0048847827 -0.0654172 15000798
0.44512659 0.014937347 -0.064649172 14408918
0.45000002 0.019108009 -0.069548547 14540504
0.44824997 0.021220408 -0.062983282 14014160
0.45480004 0.025541231 -0.065797053 13948367
0.46000001 0.029224444 -0.067863464 13882574
0.45862505 0.031419002 -0.061487649 13750988
0.46327275 0.033118688 -0.066508316 13553609
0.45601851 -0.094210111 -0.054376077 16382708
0.46014288 -0.093568578 -0.059266929 16711416
0.45583782 -0.084961236 -0.054960039 16711673
0.45569873 -0.075125724 -0.054978412 16711673
0.45482907 -0.065083094 -0.05475403 16645880
0.45447955 -0.055106517 -0.05487553 16645880
0.44891667 -0.042767595 -0.051165272 16645365
0.45313245 -0.04532747 -0.055782896 16645623
0.44772339 -0.034601856 -0.052675277 16381425
0.45208338 -0.035574827 -0.05755594 16447217
0.44549316 -0.024734782 -0.055019431 15920873
0.45000002 -0.028824333 -0.05901397 16315888
0.43835717 -0.012650752 -0.052174248 15657958
0.4419837 -0.015907353 -0.055966668 15526373
0.43697178 -0.004658632 -0.054763846 15460835
0.44010004 -0.0072758952 -0.059261203 15394788
0.43640453 0.0046883016 -0.055152439 14868955
0.44000003 0.0094129555 -0.059762646 14803676
0.43775547 0.013694729 -0.053198624 14474454
0.44167444 0.016571898 -0.056866169 14342868
0.44608623 0.024209682 -0.054253619 14079696
0.45184216 0.028429186 -0.056753874 13948111
0.45369241 0.033048291 -0.054496277 13684939
0.44705725 -0.093087055 -0.043294508 16645881
0.45166662 -0.094509803 -0.048387464 16316916
0.44722798 -0.08500798 -0.043503333 16711673
0.45107147 -0.085009679 -0.04867176 16711673
0.44720012 -0.075039603 -0.043683339 16645880
0.45112008 -0.07517314 -0.048686214 16711673
0.44681159 -0.064932995 -0.043990962 16645880
0.45058826 -0.065253139 -0.049163818 16645880
0.44683561 -0.0547942 -0.044465758 16645879
0.45033336 -0.056256663 -0.049218386 16711673
0.44514117 -0.044913519 -0.044719689 16645365
0.43900007 -0.03217347 -0.040671337 16316143
0.44267577 -0.03531798 -0.045163929 16447217
0.43824998 -0.024270086 -0.042855248 15855337
0.44119567 -0.026198683 -0.047444012 15920873
0.43496412 -0.014850958 -0.044954423 15460579
0.44000003 -0.019428387 -0.049462166 15657958
0.42831814 -0.0039646388 -0.041176569 15329506
0.43175346 -0.0056626648 -0.045953739 15328993
0.42803231 0.0047611762 -0.041944612 14737626
0.43108198 0.0047564302 -0.04689249 14737882
0.4285 0.011575375 -0.040847167 14277332
0.43287057 0.015061808 -0.045307446 14277332
0.43708831 0.022596486 -0.043571144 14079952
0.44311911 0.026602892 -0.045889467 14014159
0.44783342 0.031729102 -0.043882411 13750987
0.45153123 0.035031594 -0.046299025 13290180
0.43900004 -0.092008859 -0.03102231 16711673
0.44243568 -0.094093643 -0.035977643 16251122
0.43888474 -0.08398962 -0.031870618 16711673
0.44193232 -0.085252725 -0.036464255 16711673
0.43860611 -0.075279355 -0.032131113 16645880
0.44215113 -0.074831769 -0.03709285 16645880
0.43828207 -0.064894333 -0.032301817 16580084
0.44195935 -0.065037325 -0.037229639 16645880
0.43750986 -0.054684423 -0.033100907 16645621
0.44164696 -0.055263672 -0.037881989 16645878
0.43679991 -0.044913709 -0.033646334 16579314
0.44050002 -0.045541223 -0.038588166 16645108
0.43589765 -0.034974985 -0.034633752 16381679
0.44000003 -0.038999297 -0.03916169 16710387
0.42837501 -0.022049705 -0.030731741 15526370
0.43285897 -0.025132608 -0.035159223 15723750
0.42719224 -0.014500461 -0.033313382 15394785
0.43082869 -0.016403619 -0.037454419 15526628
0.42480209 -0.0052889306 -0.034888953 15197406
0.42383811 0.0045769946 -0.03511833 14737369
0.42617568 0.014059036 -0.034552556 14277332
0.43028572 0.018127594 -0.037866164 14079953
0.42842859 0.020771505 -0.031112075 14145746
0.43412814 0.024845598 -0.03477199 13948368
0.44025001 0.028742824 -0.038411401 13948368
0.43866667 0.031292457 -0.032026205 13685196
0.44306388 0.034356996 -0.034291662 13355974
0.43614554 -0.092715196 -0.025129959 16580087
0.43513837 -0.084919341 -0.02498675 16711673
0.43416315 -0.074966229 -0.024953214 16645879
0.42900002 -0.060118839 -0.020105304 16580082
0.43344679 -0.065116473 -0.024805404 16514292
0.42828569 -0.054290064 -0.020932207 16579826
0.43222368 -0.055233296 -0.026003376 16580084
0.42803574 -0.044381749 -0.022137431 16579313
0.43156677 -0.045173839 -0.026747866 16579313
0.42744443 -0.035152294 -0.022837985 16118763
0.43067452 -0.034751248 -0.027571587 16381679
0.4257949 -0.024814021 -0.024473144 15592420
0.43000004 -0.02792074 -0.028582763 15724006
0.41866669 -0.011789531 -0.020928094 15592162
0.42287081 -0.015375236 -0.025491741 15395042
0.41747925 -0.0044077598 -0.022622062 15132126
0.42101935 -0.00606417 -0.027314918 15197919
0.41705254 0.0049535213 -0.023417035 14606040
0.42058828 0.0052036452 -0.028515445 14671833
0.41792861 0.01299542 -0.022418736 14408405
0.42182359 0.016144002 -0.02609138 14145746
0.42569387 0.02332902 -0.024123112 14079953
0.43163636 0.02761003 -0.026539892 13882574
0.43632352 0.032713372 -0.023453292 13684938
0.44253853 0.036964316 -0.025804762 13224386
0.43110004 -0.092585325 -0.014339094 16382449
0.42842862 -0.083358981 -0.011697595 16580084
0.43070155 -0.085640512 -0.015914578 16580085
0.42726412 -0.07471098 -0.013385488 16579827
0.43009096 -0.075192094 -0.017959913 16645621
0.42623609 -0.064707905 -0.014205132 16513263
0.42999995 -0.066701457 -0.018541548 16448240
0.42393354 -0.054847732 -0.014928042 16447982
0.41900003 -0.041551955 -0.010808671 16513004
0.42308339 -0.045052975 -0.015569735 16513262
0.41857147 -0.033602834 -0.011147765 15855588
0.42266276 -0.035163242 -0.016033428 16184555
0.41730615 -0.024150504 -0.01280171 15526626
0.42149025 -0.02563771 -0.01760908 15658212
0.41567376 -0.014764681 -0.014902567 15329247
0.42020005 -0.018751223 -0.019299597 15263454
0.4130398 -0.0051876926 -0.015017999 15132382
0.41238171 0.0049616299 -0.014992107 14474454
0.41481054 0.015004926 -0.015004647 14277075
0.42033336 0.019488567 -0.019371392 14079953
0.4176667 0.021581979 -0.012601361 14277333
0.42317331 0.025718285 -0.015543739 14145747
0.42711538 0.03248312 -0.013173824 13816781
0.43170273 0.035459977 -0.015182012 13356230
0.43300003 0.040686689 -0.010156159 11316901
0.4278889 -0.092155702 -0.0037262572 16447727
0.42999995 -0.094107181 -0.0076321135 15986919
0.42571267 -0.084885679 -0.0045204521 16381933
0.41849998 -0.071057528 -0.00067243003 15657695
0.42286876 -0.075201996 -0.0052895532 16447470
0.41736549 -0.064184092 -0.0022204819 16250089
0.42142603 -0.065781876 -0.007312689 16315883
0.4165909 -0.054812863 -0.0038505236 16315883
0.42041674 -0.055596244 -0.0092052342 16447727
0.41549513 -0.044945497 -0.0046743974 16315883
0.41999999 -0.048042104 -0.0098512396 16710898
0.40900001 -0.031942975 -1.8466952e-05 15920871
0.41413754 -0.035213705 -0.0051677166 16052712
0.40836674 -0.024534093 -0.00107096 15460832
0.41287959 -0.025184792 -0.0062573417 15460833
0.40714121 -0.014400404 -0.003128665 15263454
0.41145945 -0.016036576 -0.0079867709 15197919
0.40618366 -0.0050596693 -0.004742987 14935004
0.41000003 -0.0094653666 -0.009616686 15198177
0.40672296 0.0048794886 -0.0047756885 14474454
0.41000003 0.0097309807 -0.009616686 14606040
0.40816155 0.013927565 -0.002918723 14474454
0.4111875 0.016380442 -0.0072801118 14277332
0.40900001 0.020957595 -0.00025783601 14343125
0.41483569 0.024130287 -0.0046975599 14211540
0.42090005 0.028219309 -0.0081494767 14079953
0.41842857 0.031061724 -0.00099944475 13619403
0.42354348 0.033426773 -0.0050007598 13816782
0.43035293 0.038601223 -0.0065990682 13224388
0.43100002 0.04119258 -0.0053208414 11645610
0.42432654 -0.092589729 0.005408085 16315628
0.41850001 -0.081426084 0.0086756451 16184041
0.42199999 -0.085416436 0.0051386827 16315884
0.41634563 -0.074498333 0.0058577317 16118247
0.42053849 -0.078320302 0.0021007138 16446700
0.40900001 -0.061305583 0.0092371376 15789796
0.41314134 -0.065269671 0.0051121442 16118503
0.40819451 -0.054152273 0.0081823487 16052711
0.41202983 -0.055452328 0.00353293 16118247
0.40709597 -0.044674281 0.006423716 15987176
0.41092598 -0.04575891 0.0019756467 16184298
0.40623775 -0.034795035 0.0053182268 15790054
0.41 -0.03825989 0.00094130525 16118763
0.40370283 -0.024970189 0.0052076667 15263966
0.3985264 -0.013867117 0.0088692484 15132125
0.40192321 -0.01512378 0.004357473 15197918
0.39791182 -0.0046663396 0.0081447493 14672088
0.40098485 -0.0052038748 0.0035618423 14803418
0.39814711 0.0040780581 0.0082322517 14408918
0.40147373 0.0051543317 0.0037358811 14540247
0.39900002 0.010871004 0.009322647 14211539
0.40368313 0.015014561 0.0051812921 14277332
0.40721232 0.023491049 0.0060139918 14277333
0.4117353 0.027436182 0.0037192579 14146004
0.41510877 0.032756191 0.005107272 13488588
0.42320004 0.036604054 0.0013695838 13686224
0.43000001 0.040404793 0.0019938604 12501691
0.4179444 -0.091943771 0.01775323 16118506
0.42100003 -0.092283182 0.013060047 16250093
0.41629875 -0.084554918 0.015769394 16315628
0.42060003 -0.087890558 0.011927379 16381679
0.40841174 -0.071800984 0.018089745 15657697
0.41265005 -0.075644419 0.014345537 16117990
0.40664005 -0.064547062 0.015582856 15986918
0.4104 -0.068176791 0.011509813 15920869
0.40416515 -0.055011425 0.015133638 15921381
0.39811543 -0.043317728 0.018369554 15724002
0.40177768 -0.045447726 0.013977891 15790052
0.39722815 -0.034817431 0.017499898 15592674
0.40080357 -0.035258461 0.012478304 15724005
0.39617515 -0.024437975 0.015709868 15197917
0.40016666 -0.027116412 0.011301242 15132381
0.39457011 -0.014937672 0.01463359 14935002
0.39307687 -0.0052359453 0.01480255 14606295
0.39396685 0.0047416622 0.014725308 14277331
0.39579394 0.014440798 0.015451421 14277332
0.40047371 0.01794376 0.011428634 14211540
0.39775002 0.022012206 0.017904526 14079953
0.40306017 0.025605015 0.014525613 13948368
0.40783334 0.031998727 0.01752137 13619402
0.4119131 0.034786701 0.014693379 13290181
0.41332507 -0.091884322 0.025049891 16249836
0.40861297 -0.082966767 0.027968194 16184298
0.41188002 -0.085736342 0.023836976 16184299
0.40596727 -0.074549846 0.025214067 15789283
0.41062504 -0.078812264 0.021008775 16184043
0.39783335 -0.063141987 0.028416986 15658209
0.40175638 -0.065577641 0.024176214 15789539
0.39673075 -0.054455511 0.026420856 15658468
0.40030548 -0.05628119 0.022029635 15658210
0.39424127 -0.044902604 0.025006456 15592931
0.389 -0.032787707 0.028993335 15198174
0.39254043 -0.035010085 0.024459558 15329759
0.38837039 -0.024625825 0.028064098 14803416
0.39159712 -0.025276128 0.022857998 15000795
0.38767436 -0.015060884 0.026801812 14672087
0.39069766 -0.015593548 0.021655235 14672087
0.38704875 -0.0051208865 0.025231423 14343123
0.39000005 -0.0079892008 0.020372655 14606294
0.38715941 0.0044659656 0.025655307 14211281
0.39031577 0.0058513288 0.020565219 14408661
0.38790324 0.013545159 0.027367815 14145746
0.39155877 0.01569966 0.022813341 14145489
0.39442262 0.024381785 0.025540574 13948367
0.40090913 0.028372115 0.021822531 13553609
0.39833334 0.031213066 0.029511616 14014158
0.40527278 0.033409536 0.023969792 13224387
0.41136846 0.037997618 0.022638047 12829628
0.41350001 0.040790401 0.023214763 11119263
0.40725592 -0.092523821 0.036335982 16184299
0.41028574 -0.092760369 0.031128386 15920871
0.40528706 -0.085133404 0.035045292 16118507
0.3968305 -0.073532857 0.036711898 15526112
0.40173993 -0.076672807 0.033062275 15855077
0.38900003 -0.061343279 0.039140645 15460831
0.39375663 -0.065042749 0.034930401 15526624
0.38817024 -0.054419544 0.038242962 15460832
0.39208981 -0.055360593 0.033231921 15460832
0.38659805 -0.044561185 0.035826258 15263966
0.39082614 -0.046895504 0.031248379 15395296
0.38557681 -0.03508715 0.034695167 15001052
0.38389251 -0.02504169 0.035018351 14540502
0.38315675 -0.015125877 0.034953669 14408661
0.37894744 -0.0034261118 0.039249651 14079696
0.38224328 -0.0054807919 0.034500886 14145489
0.37887505 0.0021743341 0.039174896 13882317
0.38219333 0.0051323194 0.034664482 14079438
0.3841885 0.015110859 0.034966614 14079439
0.38750684 0.023515975 0.036063999 13948367
0.3921628 0.026906313 0.032817248 13816781
0.39642856 0.03191768 0.033944502 13290180
0.40226924 0.036900133 0.03584164 12829630
0.40650001 0.040576272 0.038047768 11250851
0.39656001 -0.091964014 0.047581352 16315629
0.40208328 -0.092428535 0.042646412 16184300
0.39569509 -0.084822297 0.046082292 16118506
0.40079305 -0.086742684 0.041684635 16184300
0.38839132 -0.072376847 0.048209574 15328732
0.39278656 -0.075639538 0.044222221 15657954
0.38627517 -0.064564683 0.045415696 15263709
0.3906875 -0.067955516 0.041367173 15262939
0.37866667 -0.052179582 0.049329218 15198431
0.38328323 -0.055269383 0.044904899 15198430
0.37839484 -0.044589333 0.048446242 15264224
0.381479 -0.045088828 0.043569226 15198173
0.37824249 -0.03450479 0.047178905 14803415
0.38096964 -0.035457302 0.042519316 14803415
0.37776285 -0.02484991 0.04568471 14474452
0.38049999 -0.025152035 0.040622991 14343124
0.37728828 -0.014837996 0.045354251 14211282
0.38010535 -0.015566995 0.040399913 14342868
0.3765966 -0.0050951787 0.045283031 14013645
0.38000003 -0.0092175733 0.040014252 14408148
0.37637302 0.0049079936 0.045415446 13882315
0.38000005 0.0085106222 0.040268421 13882572
0.37790415 0.014001632 0.046479855 13816778
0.38091215 0.016771352 0.042830408 14014157
0.37900001 0.020529419 0.049668655 14145743
0.38397387 0.024999874 0.045042705 13882316
0.38833338 0.031728193 0.046646092 13618888
0.39283335 0.035149001 0.045848005 13026494
0.40125 0.036529291 0.041077282 13028036
0.38774195 -0.092635877 0.057837643 16316142
0.39184374 -0.092090972 0.05303885 16381422
0.38752297 -0.083908252 0.057087936 16052713
0.39123642 -0.085719496 0.052518561 16184043
0.38573265 -0.074894167 0.055107579 15591904
0.39000002 -0.079000078 0.050501559 15986663
0.37788379 -0.0625441 0.057151318 15065561
0.38178572 -0.066157155 0.053879704 15131610
0.37583578 -0.054713055 0.055192158 15197916
0.38025001 -0.058851175 0.05094504 15000796
0.37431285 -0.044974599 0.055183023 15263711
0.3735441 -0.035000641 0.055166271 15000538
0.37308094 -0.025031095 0.054874226 14539987
0.37229145 -0.014972758 0.054994229 14145487
0.37210432 -0.0051656789 0.055203959 13685192
0.37237152 0.0049677952 0.055304267 13553350
0.37472615 0.014964512 0.054927059 13750985
0.37788892 0.022732327 0.056314811 14013902
0.38134781 0.027115321 0.053879134 13948364
0.38551611 0.03402961 0.055085029 13224643
0.39000002 0.037102707 0.050197229 13026749
0.38293263 -0.093316853 0.06497781 16184044
0.3786923 -0.082188062 0.069199413 16052457
0.38258323 -0.085220844 0.064597517 16118506
0.37788901 -0.074162595 0.067494474 15460062
0.38175696 -0.076111361 0.06299559 15788771
0.3750242 -0.064968795 0.06502942 14868695
0.38033333 -0.069028914 0.060824323 15197146
0.36811996 -0.053795155 0.067803241 15197403
0.37118697 -0.055657517 0.06343206 15066073
0.36766294 -0.044605974 0.066884652 15197917
0.37053663 -0.045389645 0.061929788 15197660
0.36827451 -0.035015643 0.066551268 14671830
0.37030956 -0.034453481 0.061821342 14803417
0.368507 -0.025081003 0.067489319 14079695
0.37037724 -0.024811409 0.062665924 14408146
0.36880815 -0.014935851 0.067716822 13816522
0.37025377 -0.015104042 0.062792376 14276559
0.36872855 -0.0048880661 0.067570575 13224642
0.37006468 -0.0052742125 0.062652022 13487812
0.36870831 0.0043758592 0.067655541 13158848
0.37030584 0.0053826873 0.062915966 13487557
0.36899999 0.011061444 0.06937813 13290434
0.37135714 0.015083674 0.064751931 13487814
0.37519351 0.024463128 0.065176085 13948365
0.38060001 0.029348085 0.062172897 13619656
0.37818757 0.031110117 0.068153076 13882571
0.38310868 0.034638807 0.064587362 13422021
0.37569413 -0.09260758 0.074739657 16315372
0.37523335 -0.085019648 0.075155988 16117736
0.37372524 -0.075036883 0.075348623 15656928
0.36818004 -0.062147226 0.076708652 14933461
0.37132967 -0.066413969 0.073926859 14999254
0.36579549 -0.054693822 0.074905828 14671060
0.37 -0.059646338 0.070143603 13881288
0.36509037 -0.044749372 0.074762389 14671317
0.366972 -0.03472985 0.075084254 13948108
0.36810744 -0.024870694 0.074956357 13027263
0.36812878 -0.014962498 0.074961022 12895420
0.36775407 -0.0049458561 0.075086825 12763577
0.36737522 0.0048503112 0.075233251 12961213
0.36834347 0.014101153 0.075994365 13356226
0.37033331 0.017171087 0.072228856 13619399
0.36900002 0.02085158 0.079456218 13487811
0.37251103 0.025052508 0.074973807 13948363
0.37704828 0.033583801 0.075824276 13750985
0.38120508 0.037537992 0.073478132 13158592
0.37900001 0.040048826 0.078947768 10658714
0.38218182 0.040547643 0.074398383 11119008
0.36500001 -0.092384703 0.085804969 15855078
0.37025002 -0.091322571 0.080592141 16315370
0.3657279 -0.084986612 0.08559797 15986663
0.3705 -0.083392791 0.081079654 16051685
0.36579278 -0.075000957 0.086069599 15657184
0.37024996 -0.075867265 0.081169575 15788512
0.36607611 -0.065181576 0.085026741 15328476
0.36381933 -0.054820932 0.084724531 14736853
0.36386079 -0.044598415 0.084737085 14342608
0.3668606 -0.0349975 0.08489421 13356228
0.37000003 -0.030567553 0.08808583 6447454
0.3687028 -0.026356408 0.081702106 11974834
0.37057161 -0.024397118 0.086272091 6449510
0.36899999 -0.013971793 0.080589995 12171695
0.37067223 -0.01520805 0.085586257 8026997
0.36783633 -0.0047845775 0.08475849 11842732
0.37 -0.0091193663 0.087467134 11448234
0.3663289 0.0049315421 0.085176788 12698040
0.36723155 0.015141168 0.084984228 13421763
0.36846775 0.022937294 0.086018175 13750471
0.3708593 0.02725655 0.084036164 13948106
0.37419382 0.035026412 0.084988214 13487557
0.37500003 0.040504031 0.08821018 10658458
0.36450005 -0.092652857 0.094744183 14538961
0.3705 -0.097746633 0.099439077 15065306
0.36367291 -0.085443623 0.094218813 14539216
0.36119857 -0.074569978 0.094964147 14341580
0.36232024 -0.064766958 0.094978653 14539216
0.36277685 -0.054749407 0.094825462 14079179
0.36440295 -0.044770349 0.094935872 13487557
0.3675577 -0.035832312 0.094850525 13158849
0.37009671 -0.030986574 0.095623866 5329745
0.37074205 -0.025050312 0.0950175 2304808
0.36899999 -0.017157188 0.09918046 2239015
0.37063006 -0.014968975 0.094787151 2961968
0.36815295 -0.0034725301 0.094706975 11776939
0.37019044 -0.0081960512 0.095725022 10921888
0.36632398 0.0048145051 0.09513627 12237747
0.36572257 0.015105857 0.095014758 13224641
0.36773515 0.024602801 0.095399007 13882315
0.37017643 0.028972544 0.092452824 13750728
0.36900002 0.030353773 0.099324435 14474711
0.37234348 0.035029665 0.094909579 13290434
0.37453848 0.040791646 0.0933256 11053471
0.37260002 -0.10018959 0.10203798 14012621
0.36813641 -0.094328426 0.1077727 15196633
0.37067664 -0.095437646 0.1035264 15131098
0.36691269 -0.085190766 0.10546166 13814723
0.36999995 -0.088923089 0.10276961 14274760
0.36218891 -0.075112268 0.10481496 14605267
0.3636086 -0.065017678 0.10507054 14605267
0.36360934 -0.054674745 0.10482123 14408144
0.36632329 -0.044895925 0.10503868 14014157
0.36842227 -0.037828665 0.10384665 13093058
0.3704654 -0.03323948 0.1056794 8290171
0.36841509 -0.02444561 0.10563339 2173221
0.36999992 -0.026831567 0.10169244 2304808
0.36845526 -0.016060242 0.10514413 2239015
0.3701562 -0.011225988 0.10399473 4080961
0.36850986 -0.0023853851 0.10463974 11382182
0.37063399 -0.0070061684 0.10538547 9737872
0.36656955 0.0048473733 0.10507168 11777453
0.36531922 0.015198647 0.10495014 12829884
0.36717844 0.024991708 0.10508905 13422022
0.36899999 0.030353773 0.10407554 13158851
0.37156636 0.034155149 0.10456869 12566715
0.36651388 -0.094839998 0.11283371 14473681
0.36498469 -0.085689433 0.11252176 14539471
0.36484322 -0.07394278 0.11224248 12763832
0.36756921 -0.065593861 0.11306552 12171697
0.37200001 -0.06250947 0.11768545 13224641
0.36737207 -0.05482132 0.11218899 11908269
0.37225917 -0.054539628 0.11757129 13093055
0.36828572 -0.046219904 0.11157242 11908013
0.37247571 -0.044615548 0.11649437 12698042
0.36860004 -0.030254845 0.11802731 2173218
0.37207073 -0.035063971 0.11467192 8619133
0.36724812 -0.024816887 0.11432321 1976097
0.36745092 -0.015317631 0.11441617 2568235
0.37 -0.01027427 0.11431861 7765111
0.36900002 -0.0010898439 0.11124537 10593182
0.37092084 -0.0054560127 0.11506128 8422011
0.36789006 0.0056619472 0.11436675 10330010
0.37019992 0.0015751852 0.11753544 10395802
0.36588919 0.014982162 0.1145625 11843247
0.3671177 0.024695864 0.11443036 12961985
0.36999997 0.029281132 0.11648405 12303542
0.37091848 0.032301791 0.11419517 11514282
0.39400002 -0.090263762 0.12911277 12829629
0.38900003 -0.082060702 0.12815727 10461079
0.39142859 -0.084889218 0.12758994 12237492
0.38880002 -0.0719615 0.12540671 11842216
0.39233336 -0.074478306 0.12810892 11644837
0.37728572 -0.061705414 0.12149116 10723996
0.38715389 -0.066535264 0.12519422 10921375
0.39175004 -0.067623332 0.1283769 10131346
0.37519047 -0.056052867 0.12156962 10460822
0.37500003 -0.044211555 0.12131363 9145479
0.37513337 -0.037406411 0.1211156 8026738
0.37200001 -0.0064109424 0.1201617 7764080
0.36875004 0.0063758157 0.12019053 9409421
0.3674286 0.012528419 0.12052846 9409165
0.39300001 -0.090034664 0.13108513 12698045
0.39300001 -0.088012025 0.13044064 12566203
0.39683333 -0.075202689 0.1314355 10197393
0.39500004 -0.06811507 0.13110539 9539206
0.36212501 -0.031143045 0.14601065 857104
0.36220545 -0.024961844 0.14699356 791307
0.36158183 -0.015950777 0.14700994 1774607
0.36467922 -0.032159608 0.15644458 1974555
0.36551151 -0.025155116 0.1556733 593929
0.36401948 -0.015670663 0.15535524 1971214
0.36301932 -0.032728788 0.16349818 1515029
0.36415616 -0.024950655 0.16505338 923149
0.36501881 -0.016026659 0.16483085 1381903
0.35100001 -0.036862683 0.17993587 3092522
0.36407146 -0.032666225 0.17539501 1120529
0.362333 -0.024978332 0.17523322 1252114
0.36233765 -0.017021591 0.17608283 1054737
0.34617078 -0.033496942 0.18532242 1777945
0.35326833 -0.032856409 0.18082315 1514773
0.36150002 -0.033778623 0.18078847 527879
0.34611556 -0.024959376 0.18538198 1580566
0.353962 -0.025100568 0.18066482 1120273
0.36008343 -0.024751803 0.18037753 659722
0.3463673 -0.016784176 0.18578887 1514774
0.35514286 -0.016685653 0.1813478 1054481
0.36070001 -0.012517794 0.18277176 1843484
0.36166668 -0.0091961995 0.18498223 7698801
0.77730775 0.18334299 0.23400548 10658714
0.78350002 0.18871686 0.23703542 10658714
0.78477776 0.19479173 0.23462041 7236967
0.78200006 0.17905013 0.24832642 10658713
0.78522223 0.18500045 0.24536957 10658713
0.78857148 0.19224633 0.2425895 10658714
0.79147065 0.19557095 0.24628454 8026996
0.77880007 0.17418429 0.25302324 10593177
0.78130782 0.17781299 0.25490734 10593177
0.78661907 0.18528578 0.2547895 10658713
0.79312015 0.19521679 0.25507596 8882047
0.79400003 0.16940512 0.26948553 10527385
0.78583348 0.17583597 0.26365262 10527383
0.79049999 0.17420815 0.26860586 10527128
0.78735715 0.18365709 0.26407245 10658712
0.79055554 0.1871783 0.26646683 10592919
0.79556257 0.19476965 0.26454613 10329234
0.79610521 0.17495216 0.27471703 10527127
0.79531246 0.18469663 0.27494022 10527126
