# .PCD v0.7 - Point Cloud Data file format
VERSION 0.7
FIELDS x y z rgb
SIZE 4 4 4 4
TYPE F F F U
COUNT 1 1 1 1
WIDTH 784
HEIGHT 1
VIEWPOINT 0 0 0 1 0 0 0
POINTS 784
DATA ascii
0.78900003 -0.051462196 0.10894111 15328984
0.79331058 -0.055588171 0.10472432 14933970
0.78900003 -0.046844542 0.10894111 15263448
0.79275 -0.044978041 0.10423171 14539983
0.78841186 -0.064127296 0.11776167 15262937
0.79180014 -0.065488361 0.11278429 14933972
0.78811109 -0.054752741 0.11571754 15197144
0.79000002 -0.058308572 0.11154505 15328730
0.78791672 -0.044934686 0.1152448 15065814
0.7885384 -0.036663871 0.11711235 15065812
0.79113328 -0.033695832 0.11355577 14605518
0.78883338 -0.083153002 0.12861581 15196631
0.78785723 -0.074662842 0.12581979 15131350
0.79077786 -0.077291116 0.12173286 14735825
0.78641939 -0.065251857 0.12497385 15197400
0.78615999 -0.054957982 0.12511197 15065557
0.78619987 -0.044837095 0.12511835 14736848
0.78751862 -0.034566775 0.12491723 14605518
0.78864288 -0.026909884 0.126826 14802897
0.79240912 -0.023348551 0.12374225 13552833
0.78828567 -0.092015207 0.13665362 14472654
0.7909444 -0.096852735 0.1342057 10919834
0.78576672 -0.084365696 0.13516121 15394265
0.78360003 -0.074957855 0.13478932 15328729
0.78441668 -0.064933576 0.13493244 15328472
0.7856999 -0.054924782 0.1351549 15262936
0.78591651 -0.044822179 0.13519257 14999763
0.78603333 -0.03470717 0.13521308 14473420
0.78716677 -0.024620745 0.13540575 14473677
0.78845459 -0.016523959 0.13688691 14539726
0.7918824 -0.01315367 0.13354357 12829623
0.78825003 -0.10331365 0.14828019 15261655
0.79277283 -0.10612374 0.14438267 11248798
0.78550011 -0.095064491 0.145348 15525337
0.79000002 -0.099611931 0.14144376 12959416
0.78202784 -0.084878176 0.14550358 15525593
0.78181469 -0.074989416 0.14495955 15459543
0.78306681 -0.064820632 0.14478531 15393750
0.7850399 -0.054879308 0.14515001 15525335
0.7852332 -0.044783093 0.14518501 15394006
0.78611994 -0.034710336 0.14534949 14933198
0.78693354 -0.024614902 0.14550024 14407113
0.78800005 -0.014500774 0.14510377 14342089
0.79000002 -0.01084053 0.14051905 14738130
0.78900003 -0.0077483687 0.14834511 14276555
0.7920416 -0.004683869 0.14466463 13290431
0.79288876 0.03510895 0.14495312 10263952
0.79184008 0.044746507 0.1445546 10395538
0.78754556 -0.11220932 0.15700801 14932690
0.7931 -0.11578746 0.15359735 10656660
0.77880007 -0.10184608 0.15675826 15590873
0.78399998 -0.10528217 0.15435727 15459545
0.77752012 -0.094616413 0.15518871 15525078
0.78150004 -0.097625986 0.15089776 15656666
0.77836001 -0.085387558 0.15484709 15459285
0.78000003 -0.080091082 0.15152228 15459285
0.77899998 -0.079206839 0.15627792 15525078
0.78131986 -0.074078724 0.15455864 15525078
0.78405732 -0.065033741 0.1549335 15393492
0.78515989 -0.054888442 0.1543633 15327700
0.78499991 -0.044858269 0.1545091 15590872
0.78531992 -0.034675289 0.15439333 15130577
0.78640002 -0.024596659 0.15460606 14867405
0.78776008 -0.014497085 0.15487373 14275525
0.78825003 -0.005433735 0.15512291 14276039
0.79000002 -0.0015935082 0.15161547 14408911
0.78881818 0.0026061081 0.15709606 14604750
0.79216003 0.0058970433 0.15350905 12566196
0.73200005 0.039650489 0.15933409 13355455
0.73314285 0.046090331 0.1593357 13684420
0.73470002 0.055275321 0.1590589 13486784
0.74050003 0.05484879 0.15858342 13421247
0.73406249 0.06414552 0.15806314 13552576
0.74400002 0.070775867 0.15932888 13749955
0.78900003 -0.13088591 0.16989419 10722200
0.77900004 -0.12193242 0.16956456 16117215
0.78611118 -0.12417319 0.16701695 13353658
0.79242855 -0.12668602 0.16281044 10656919
0.77717656 -0.11415655 0.16713233 15590871
0.78464711 -0.11601236 0.16279271 15459031
0.79000002 -0.11995538 0.16086249 10458769
0.77731049 -0.10491361 0.16511701 15656664
0.78050005 -0.10846405 0.16075523 15590873
0.77812499 -0.095494784 0.16425295 15590871
0.78033334 -0.092911951 0.16985478 15985629
0.7788949 -0.085639402 0.16301608 15459285
0.78038472 -0.084487565 0.16846132 15722457
0.77900004 -0.079532489 0.16181403 15459285
0.78100008 -0.074554242 0.16466834 15590871
0.78461295 -0.064799115 0.16509865 15722457
0.78663325 -0.054990411 0.16478342 15525078
0.78699988 -0.044804391 0.16499229 15525079
0.78693348 -0.034747608 0.16484682 15459285
0.78663635 -0.025024498 0.16503473 15196113
0.78687894 -0.014983727 0.16458115 14735818
0.78706676 -0.0052725105 0.16487117 14406854
0.78802866 0.004736702 0.16520399 14275527
0.79000002 0.0095029166 0.16086249 15130581
0.73400009 0.019139137 0.1692178 13355456
0.74300003 0.019373812 0.16868596 12500146
0.78888893 0.012772959 0.16781825 14077892
0.79140002 0.016007302 0.16383141 12170411
0.73127776 0.025343385 0.16763967 13618627
0.74200004 0.021084772 0.16845892 13750213
0.72900003 0.036074784 0.1689207 13816004
0.73074079 0.035781153 0.16590099 13618626
0.72900003 0.045461092 0.1689207 14013383
0.73120004 0.045598675 0.16429292 13881797
0.72900003 0.0514342 0.1689207 14013383
0.73124164 0.055134542 0.16501036 14013127
0.75600004 0.058648601 0.16101855 13552834
0.76000005 0.057179738 0.16187049 13618627
0.78620005 0.055831838 0.16561261 10263184
0.73197317 0.064613648 0.16516083 13947333
0.78500003 0.060898345 0.16351978 9868426
0.73449999 0.072630279 0.16597708 13749954
0.74350005 0.074650675 0.16227272 13289147
0.75466675 0.075039975 0.16132607 12565681
0.76339996 0.075306877 0.16152106 13289405
0.77350008 0.077206835 0.16202909 11644837
0.78800005 0.079578303 0.16229998 13355455
0.77600002 0.081999123 0.16391289 10263441
0.78733331 0.085196137 0.16461994 10132111
0.79250002 0.086524159 0.16173676 10198159
0.79260004 0.09488833 0.16416928 10329745
0.77800006 -0.13088246 0.17845346 16776688
0.78629416 -0.13390465 0.17569464 13222331
0.79149997 -0.13686147 0.1722838 10459541
0.77507693 -0.12460147 0.17568399 15854301
0.78299999 -0.12769143 0.17189978 15064276
0.76630002 -0.11331104 0.17863658 16184552
0.77303445 -0.1153193 0.17375153 16183522
0.76540005 -0.10725887 0.17860408 16316652
0.77467752 -0.10457765 0.1744682 16446951
0.77763647 -0.098548219 0.17654575 16579050
0.78147364 -0.093817718 0.1753995 16381158
0.78229022 -0.084756374 0.17559837 16314595
0.78369236 -0.075105853 0.17446958 15985629
0.78593326 -0.065058812 0.17475483 15985630
0.78800005 -0.055085663 0.17521311 15788252
0.78879988 -0.044986069 0.17539185 15656666
0.78843999 -0.034814931 0.17531131 15393494
0.72000003 -0.021678707 0.17863397 14539729
0.78753346 -0.024635619 0.17510928 14998735
0.72290003 -0.015157094 0.1786748 14342350
0.73000002 -0.010017199 0.17940606 14408143
0.7862308 -0.014330138 0.17503104 14538183
0.72654551 -0.0053301095 0.17948242 14342350
0.736 -0.0040737507 0.17915766 14276557
0.74500006 -0.0032483581 0.17960437 14079178
0.75150001 -0.0023972434 0.17941213 14079178
0.76450002 -0.0024328297 0.17982706 12960441
0.77600002 -0.0029271562 0.17935541 13486012
0.78531021 -0.0053877188 0.17536944 14077633
0.72429413 0.0051212809 0.17799953 14210764
0.73360002 0.0041890317 0.17668119 14210764
0.74516672 0.0045991787 0.17702807 14013385
0.76500005 0.0020402374 0.17905332 12894904
0.77490908 0.0045393268 0.17823716 13222842
0.78631043 0.0046991636 0.17470528 13683132
0.72500008 0.014945487 0.1764171 14144970
0.73300004 0.01448955 0.17222118 14013385
0.74250007 0.011537093 0.17291972 13552834
0.773 0.012011664 0.17549697 12893621
0.78772229 0.014599876 0.174228 13485498
0.79033333 0.018141381 0.17079777 13945792
0.72662503 0.024816234 0.17542113 13881797
0.73000002 0.02672508 0.17086135 13881798
0.78400004 0.022278251 0.17432362 13025977
0.72671437 0.035110265 0.17518938 13750211
0.72617084 0.045182191 0.1749361 13816004
0.72812003 0.054442119 0.17560126 13815747
0.73016667 0.057214547 0.17203964 13749954
0.73080027 0.06451539 0.17520289 13749954
0.73164713 0.072074153 0.17527643 13618369
0.78766674 0.088764347 0.17329498 10263954
0.79129642 0.094870128 0.17471254 10263954
0.78900003 -0.14012124 0.18282364 10656151
0.77700007 -0.13154273 0.18500258 14011329
0.78525001 -0.13704695 0.18505815 13222329
0.76814288 -0.12203192 0.18595384 14077635
0.77215004 -0.12565383 0.18425159 14341063
0.76253337 -0.11519596 0.18484044 14472395
0.75725937 -0.1050739 0.18623298 14407115
0.76200008 -0.1035682 0.18138091 14868437
0.77050006 -0.10166195 0.18034065 16777203
0.74736381 -0.093441837 0.18764864 14012100
0.75487512 -0.095729329 0.18584317 14604751
0.7633335 -0.095354855 0.18327467 15000280
0.77421433 -0.094382867 0.18185344 16777202
0.78100002 -0.092077941 0.18096991 16777201
0.74546665 -0.08480756 0.18785816 14209994
0.75459999 -0.084547713 0.18633132 14802388
0.76375008 -0.0848969 0.18501507 14670801
0.7746923 -0.085823245 0.18368958 16711409
0.78160006 -0.084096514 0.1818403 16776687
0.73700005 -0.071733199 0.18802571 14209994
0.74431252 -0.075769566 0.18705557 14604753
0.75577784 -0.074651897 0.1855415 14999766
0.76414293 -0.075905129 0.184728 15789025
0.77399999 -0.07494688 0.18387562 16578538
0.78385717 -0.074718699 0.18176086 16446437
0.73427778 -0.064509116 0.18675615 14210250
0.74400002 -0.065942965 0.18516667 14605009
0.75285715 -0.065728359 0.18451647 15065046
0.76350003 -0.06498944 0.18406434 16248549
0.77460003 -0.065028384 0.18401799 16182753
0.78511119 -0.064991802 0.18192053 16117216
0.72900003 -0.051815227 0.18939991 14144458
0.73200005 -0.055551261 0.18662101 14275786
0.74577779 -0.055045206 0.18444504 14736080
0.75466675 -0.055112038 0.18458055 15196373
0.76660001 -0.05465886 0.1848117 15327701
0.77580011 -0.055869229 0.18448426 15722459
0.78594118 -0.054618467 0.1825434 15854045
0.72647381 -0.044076823 0.18775478 13947079
0.73371428 -0.045765508 0.18497635 14407371
0.74560004 -0.045138188 0.18498541 14406602
0.75533336 -0.044838656 0.18563204 14867409
0.76250005 -0.0452624 0.18560828 14933456
0.77388895 -0.045442089 0.18576126 15064529
0.78649998 -0.044571046 0.18351261 15393494
0.72253579 -0.034021322 0.18620458 14013384
0.73240006 -0.036109876 0.18445131 14210505
0.74400008 -0.038077723 0.1856302 14275272
0.75900006 -0.038844466 0.18653317 14406858
0.76400006 -0.038210768 0.18686301 14472906
0.77550006 -0.036962405 0.18786407 14604234
0.78685713 -0.034545947 0.18475571 14998736
0.71899992 -0.024053156 0.18656139 14144971
0.7200771 -0.025701093 0.18306176 14671315
0.78727794 -0.024627142 0.18518905 14538186
0.71899992 -0.015570406 0.18670835 14144971
0.72016686 -0.01596969 0.1821404 14408143
0.778 -0.010675863 0.18300556 13419963
0.78538102 -0.015509459 0.1839118 13814721
0.71899992 -0.0053216359 0.18646523 14013385
0.72037506 -0.0060904776 0.18188824 14342350
0.74550003 -0.0076102931 0.18059577 14144971
0.75466675 -0.0068176202 0.18075339 13355198
0.7626667 -0.006893063 0.18088567 13222842
0.77416664 -0.0066993251 0.18119611 13486013
0.78000003 -0.0088773137 0.1807382 13683135
0.71895999 0.0044070133 0.18611801 14013385
0.72050005 0.0044501424 0.18128748 14210764
0.71899992 0.013417901 0.18736289 13816005
0.72070837 0.015137444 0.18316656 13947592
0.72127795 0.024718666 0.18485755 13553089
0.72283345 0.034925427 0.18525578 13487296
0.72418928 0.0452764 0.18544303 13684931
0.72647369 0.055334806 0.18480165 13684675
0.73180777 0.06520956 0.18518919 13553088
0.73521429 0.073143475 0.18388703 13158074
0.74300003 0.076342486 0.18781559 13092281
0.77300006 0.085301921 0.1827354 11447458
0.7853334 0.088501401 0.18748711 10329749
0.78850007 0.091165915 0.18824486 9869454
0.79104358 0.095267154 0.18450367 10198417
0.78900003 -0.14012124 0.1966766 9604740
0.77663636 -0.13148157 0.19499917 12235944
0.78466672 -0.13675235 0.1948299 10920087
0.76758337 -0.12284229 0.19493157 11446170
0.77210009 -0.12717995 0.19517536 12038564
0.76189995 -0.11515871 0.19521232 11774879
0.75678581 -0.1051751 0.19484664 12235433
0.74682611 -0.093258671 0.19441195 12893619
0.75099999 -0.098210983 0.19570328 12433068
0.74324143 -0.08502084 0.19483744 13025205
0.73663658 -0.074285857 0.19514422 12894132
0.74050009 -0.079069152 0.19195405 13354170
0.73256677 -0.064933047 0.19461396 13091768
0.72816676 -0.052609883 0.1951499 13157561
0.73062491 -0.05781107 0.19527374 13289147
0.7232433 -0.044663418 0.19481084 13420733
0.71899992 -0.03251284 0.19506478 13881541
0.72014296 -0.03709694 0.19360092 13618369
0.78533334 -0.031611551 0.19177973 14407369
0.71867651 -0.024905402 0.19498 13947592
0.78788894 -0.025566738 0.19240338 14078149
0.71811903 -0.015738647 0.19497573 13881799
0.78600001 -0.016305761 0.19132867 13683907
0.71780962 -0.0056493506 0.1948915 13881799
0.71773183 0.0044538579 0.19499348 13881798
0.71840471 0.014529081 0.19505385 13816004
0.71888459 0.023535263 0.19602731 13552833
0.72000009 0.026499441 0.1919778 13487041
0.71900004 0.030530352 0.19858418 13552832
0.72057158 0.034935981 0.19467929 13421504
0.72175008 0.045010701 0.19511849 13487039
0.72545171 0.054751329 0.19494094 13223867
0.73332357 0.06482622 0.19531803 12763573
0.73866671 0.071137778 0.19191217 13158074
0.7439 0.074695289 0.19553271 12697267
0.75150001 0.079410799 0.19612876 12697523
0.75733334 0.081800133 0.19617121 12500401
0.7615 0.084032878 0.19695115 12631989
0.7766667 0.089342922 0.1981446 13618627
0.78200006 0.08995644 0.19584703 13816006
0.7876001 0.092814922 0.19552559 10395283
0.79038465 0.097041808 0.19424629 10198416
0.78900003 -0.14012124 0.20545015 9605254
0.77766675 -0.13143426 0.20356089 10130826
0.78460008 -0.13591693 0.20555574 9078396
0.76800007 -0.1214952 0.20441344 11775394
0.77306247 -0.12609653 0.20571114 11973029
0.76281476 -0.11444493 0.20466641 11380378
0.75795239 -0.10343114 0.20478036 11577757
0.76000011 -0.10783862 0.20634985 11511964
0.74766672 -0.091746815 0.20377995 11840930
0.7523126 -0.096294336 0.20547406 11577757
0.74482149 -0.085387565 0.20515785 11906981
0.73694748 -0.073040575 0.20444936 12301739
0.74116665 -0.078129195 0.20586415 12104359
0.73299998 -0.064853765 0.20487747 12433325
0.72842866 -0.052140977 0.20520735 12828596
0.7306999 -0.05749632 0.20480867 12762546
0.72311437 -0.044608906 0.20494246 13025719
0.71899992 -0.033190485 0.20423488 13354942
0.72012508 -0.038119342 0.20563878 13025463
0.71814293 -0.024927389 0.20525144 13684420
0.71622205 -0.015697978 0.20535977 13816006
0.71558332 -0.0056324587 0.20517635 13750470
0.71447492 0.0045792293 0.20544048 13750726
0.71586478 0.014366128 0.20541395 13684676
0.718027 0.024585623 0.20490079 13355711
0.71899992 0.033015065 0.20539716 13092796
0.72006685 0.037206188 0.2034861 13158845
0.72165716 0.044886407 0.2051103 12829880
0.72655565 0.054731898 0.20508085 12632245
0.73185724 0.064612389 0.20482586 12763315
0.73686671 0.072231397 0.20558491 12631472
0.74435294 0.076813057 0.20476168 12434606
0.75200003 0.079463631 0.20153706 11710627
0.74900001 0.080900043 0.20862347 12565937
0.75520003 0.081569716 0.20468417 12566192
0.76400006 0.08538492 0.20474771 12830134
0.77242863 0.088597886 0.20455639 13027259
0.7766 0.091153279 0.20539863 13487810
0.78637499 0.09541139 0.20522425 10724505
0.79000002 0.09827432 0.20247409 10264210
0.78672224 -0.13511676 0.21503836 8947068
0.79000002 -0.13844942 0.21819402 9210496
0.77474999 -0.12426628 0.2146167 11314844
0.78133339 -0.12900545 0.21762867 8682870
0.76428568 -0.11341656 0.21424377 11643552
0.77075005 -0.11838611 0.21693778 11972517
0.75861543 -0.10248571 0.21444425 11511966
0.76041681 -0.10700821 0.2158093 11380380
0.74900001 -0.090935349 0.21037687 11314841
0.75516659 -0.095372595 0.2150569 11577759
0.74680007 -0.084727444 0.21448056 11183257
0.75050002 -0.088482656 0.21782593 11446173
0.7385 -0.071075805 0.21218227 11972517
0.74296302 -0.076099679 0.2154458 11578016
0.73484617 -0.065006763 0.21487127 11906981
0.74000001 -0.069054425 0.21997546 11511966
0.72875005 -0.051584423 0.21428612 12499631
0.73103863 -0.056766905 0.21500868 12302252
0.72388899 -0.04468159 0.21518432 12697010
0.71899992 -0.031266838 0.2145745 13025975
0.72027278 -0.036250178 0.21495432 12828596
0.71765608 -0.025023831 0.21516845 13157561
0.71354997 -0.015474346 0.21519914 13355454
0.71216673 -0.0056057526 0.21503155 13619140
0.71107906 0.0042164074 0.21523017 13684933
0.71354049 0.014368221 0.2150425 13487811
0.71791172 0.024704171 0.21479365 12961467
0.71899992 0.032437973 0.21305962 12698295
0.72066677 0.036466938 0.21615814 12237231
0.7240001 0.045068398 0.21481311 12106157
0.72785717 0.053302307 0.21369004 12171950
0.7304166 0.056948926 0.21613038 12106156
0.73251522 0.064314544 0.21479079 12171949
0.73712504 0.071853139 0.21394542 12368812
0.74270588 0.076235116 0.21556365 12368299
0.74800003 0.08079204 0.21359912 12302763
0.75571436 0.083143592 0.21579437 12302765
0.76366669 0.086659811 0.21330249 12829623
0.77000004 0.088576026 0.21176884 12960949
0.77554548 0.091857381 0.2146934 13224123
0.78670591 0.097652182 0.21490079 11316641
0.78900003 0.10184405 0.2197649 10395540
0.79260874 0.10505801 0.21455669 10263953
0.78786659 -0.13279 0.22424676 8947067
0.7906363 -0.13738383 0.22627924 9078910
0.77742863 -0.12272789 0.22356255 10656659
0.78400004 -0.12675494 0.22626591 8749175
0.76700002 -0.11220001 0.22373888 11643552
0.773 -0.11713637 0.22532256 12235689
0.75900006 -0.10103361 0.22029299 11511966
0.76187497 -0.10483868 0.22491981 11709345
0.75786954 -0.09494672 0.22451569 11775138
0.76020002 -0.098702028 0.22811615 11709345
0.74760002 -0.081899479 0.22375228 11117208
0.75243753 -0.087063067 0.22565247 11643552
0.74484003 -0.074741267 0.22490411 11051415
0.73692858 -0.063224956 0.22423859 11314332
0.74183339 -0.067635186 0.22674482 11116953
0.72900003 -0.050961923 0.22011876 12433838
0.73219997 -0.055075157 0.22497104 11511711
0.72458071 -0.0444801 0.22496502 12170154
0.73000002 -0.049322888 0.2289654 11248796
0.71882612 -0.032472301 0.22480187 12959927
0.72023082 -0.03750914 0.22473492 12433583
0.71596777 -0.025021099 0.22521169 13091769
0.71220589 -0.015611591 0.22505112 12301997
0.7102499 -0.0055906824 0.22526497 12960439
0.71047235 0.0043902546 0.2253361 13355968
0.71411431 0.014519216 0.225225 13027261
0.71844822 0.023955382 0.22435617 12106158
0.72000003 0.028606363 0.22639076 11842986
0.72253132 0.034704871 0.22524975 11711400
0.72773695 0.043995511 0.22368307 11908265
0.73084617 0.048143685 0.2267306 11842729
0.73257697 0.054987855 0.22483008 11776422
0.73631585 0.063747376 0.22405341 11776676
0.74166667 0.068148486 0.22741774 11381918
0.74481827 0.074747249 0.22489437 11842468
0.75000006 0.079252295 0.2282154 12039590
0.75650001 0.082302012 0.2245834 12105127
0.76300007 0.085539803 0.22681311 12500141
0.77100003 0.088691063 0.22828817 12565679
0.77509099 0.09196768 0.22446842 12894901
0.78538889 0.097703956 0.22519207 13355710
0.78875005 0.10250443 0.22592646 9934990
0.79170597 0.10666549 0.22487825 10132625
0.78900003 -0.13088591 0.23084728 8947324
0.79266673 -0.1351202 0.23528033 9210496
0.77900004 -0.12010878 0.23156877 11972519
0.78644443 -0.12473974 0.23480436 8552310
0.79066664 -0.12869497 0.2381223 9013119
0.77473688 -0.11420574 0.23478885 11840931
0.78200006 -0.11874065 0.23795259 9341569
0.76556259 -0.10448828 0.23407105 11314587
0.77040005 -0.10832266 0.23622636 11314587
0.75812501 -0.092155442 0.2339059 11314587
0.76106673 -0.097509705 0.23586017 11117464
0.74900001 -0.080414817 0.23141794 11380380
0.7549547 -0.084995747 0.23543018 11314587
0.74721056 -0.074241027 0.23362845 10722450
0.75159997 -0.077527501 0.23785236 10985879
0.7385 -0.061135255 0.23076645 10854038
0.74403709 -0.065501802 0.23543485 10525328
0.73490906 -0.054508362 0.23465176 10590865
0.74150002 -0.058779221 0.23864853 10591121
0.72680002 -0.043325927 0.23351978 10393487
0.73107141 -0.047073822 0.23651482 10525072
0.71883327 -0.031179717 0.23359704 10919831
0.72190487 -0.035823856 0.23576286 10393487
0.7169643 -0.024767157 0.23548791 12499632
0.7142942 -0.015853416 0.23515666 12433583
0.71187097 -0.005470545 0.23510867 11709860
0.71102786 0.0043927748 0.23550041 13026745
0.71479994 0.014580573 0.23519486 12566708
0.71865392 0.023269573 0.23491889 12303535
0.72000009 0.028213069 0.23442514 12106157
0.72417146 0.034876224 0.23522489 12106157
0.72900003 0.041479021 0.23320271 11908778
0.73125947 0.046016257 0.2353835 12171949
0.73539996 0.054991584 0.23519142 12040363
0.74285191 0.064718068 0.23512186 12236972
0.74631822 0.073307149 0.2349574 12236970
0.75383329 0.079070941 0.23614816 10855316
0.75766677 0.082132287 0.23350613 11710626
0.76377779 0.085279949 0.23538971 11908261
0.7712 0.088714063 0.23466909 12368812
0.77530009 0.091909707 0.23409863 12697522
0.78362513 0.097369805 0.23512089 12829365
0.78831249 0.10337105 0.2352591 12106157
0.79116672 0.10845324 0.23441274 10198161
0.78855562 -0.12260822 0.24425536 8683896
0.79153335 -0.12710872 0.245177 8881533
0.7767778 -0.11208994 0.24343652 11315099
0.78423077 -0.11724652 0.2456935 8946553
0.76779997 -0.10184684 0.24225929 10920597
0.77300018 -0.10545607 0.24596532 11052183
0.76339996 -0.094207175 0.24435973 10920854
0.77000004 -0.098892696 0.24872182 11184025
0.75809097 -0.083651207 0.2429398 11052184
0.76091671 -0.086000137 0.24697624 11052439
0.74900001 -0.071647704 0.24018505 10525071
0.75470829 -0.075365543 0.24525683 11117720
0.74656528 -0.064275615 0.24411704 10657170
0.75000006 -0.068231836 0.24694355 10854293
0.73850006 -0.052923545 0.24200451 10722707
0.74326324 -0.055716351 0.24603958 10788499
0.72900003 -0.040722314 0.24059798 10393485
0.73412496 -0.045025293 0.24472475 10854035
0.74100006 -0.048331417 0.24976254 10920081
0.71900004 -0.030064557 0.24066399 12565678
0.72351998 -0.033718266 0.24495113 11775651
0.7306 -0.038759552 0.24762563 11709086
0.71770376 -0.025158985 0.24489659 11710115
0.71527785 -0.015677217 0.24527901 12104873
0.71355557 -0.0056193303 0.24496569 11380894
0.71177781 0.0043960088 0.24574488 12500146
0.71523523 0.014272621 0.24501733 13158845
0.71866667 0.0237878 0.24475856 12829879
0.72000003 0.028887285 0.24521254 12632500
0.72458827 0.035019614 0.24507427 12632500
0.7315926 0.044579323 0.24526031 12566194
0.73567748 0.054134578 0.24452426 12566194
0.74050003 0.059179671 0.24872783 12631730
0.74321431 0.06480702 0.24472924 12631730
0.74600005 0.071497075 0.24527632 12763314
0.75375003 0.076123275 0.24413472 12302506
0.76233339 0.081747137 0.24386688 12039587
0.77400005 0.087227441 0.24638879 11250329
0.77833337 0.091964625 0.24351734 11645346
0.78550005 0.096902981 0.24535148 12237484
0.78870004 0.10309827 0.24405344 12500914
0.79100007 0.10731229 0.24566773 10132624
0.78900003 -0.12165061 0.25116497 8749434
0.79204351 -0.12558945 0.25527757 9079167
0.78677279 -0.11562011 0.25472772 9078139
0.79000002 -0.11995538 0.25888091 8881531
0.7764616 -0.10419913 0.25360721 11512733
0.78250003 -0.10752153 0.25733891 11512478
0.76833338 -0.09328416 0.25118074 11249818
0.77329999 -0.095789894 0.25594503 11381404
0.76522231 -0.084648624 0.25464469 11315355
0.77000004 -0.088077188 0.25773472 11315354
0.75777781 -0.073278241 0.25433481 11183001
0.76060009 -0.077921398 0.25547937 11183514
0.74820006 -0.06176278 0.25184008 10854290
0.75315803 -0.065646082 0.25553298 10985621
0.74600005 -0.054634616 0.25482932 10919826
0.75000006 -0.059453022 0.25981915 10854290
0.73614275 -0.042477936 0.25464943 11577501
0.74216676 -0.047106292 0.25580385 11511963
0.72415996 -0.032797474 0.25533625 12630704
0.73140001 -0.03828875 0.2550883 11643296
0.71780002 -0.024975728 0.25454623 13486526
0.71491677 -0.01567135 0.25519609 12697010
0.71291661 -0.005612514 0.25475994 11775908
0.71199995 0.0042785844 0.25570339 12171181
0.71563888 0.014478203 0.25489494 13158846
0.71876001 0.023117488 0.25471771 12961467
0.72027278 0.028132075 0.25580648 12895674
0.72493339 0.034581617 0.25469688 12764088
0.73000002 0.039542153 0.25716299 12895674
0.73296434 0.04503857 0.25508201 12698294
0.73764282 0.052046005 0.25442833 12829110
0.74137503 0.057190534 0.25563887 12895160
0.74406677 0.064691976 0.25515252 12960696
0.74647617 0.072559074 0.25526947 12632500
0.75600004 0.077676974 0.25614816 12303534
0.77457154 0.084181733 0.25433871 12697520
0.78337514 0.087823927 0.25625136 12631470
0.78823799 0.094893768 0.25435036 11973798
0.79000002 0.097657852 0.25826445 13816001
0.78900003 0.10184405 0.25116497 9869196
0.79223812 0.1047396 0.25528723 10395539
0.78877783 -0.11258909 0.26237899 8617587
0.79133344 -0.11583708 0.26611227 8684152
0.77900004 -0.10004859 0.26074719 11446173
0.78605008 -0.10491526 0.26540962 11183001
0.79000002 -0.10885895 0.26997736 8288881
0.77611768 -0.093055375 0.26448688 11577758
0.78200001 -0.097871877 0.26761001 11380380
0.76779997 -0.082075067 0.26203102 11446173
0.77268428 -0.085531257 0.26615465 11380379
0.75900006 -0.070827454 0.26116014 10985622
0.76349998 -0.074826665 0.26469719 11051414
0.77000004 -0.079064272 0.26855022 11249048
0.75690007 -0.064699925 0.26460221 10920083
0.76050007 -0.06874229 0.26746267 10854290
0.74661535 -0.053407177 0.26489705 11511707
0.75150001 -0.058913518 0.26627645 11182999
0.73538893 -0.04270881 0.26536828 11840418
0.74271435 -0.047202986 0.26462224 11972258
0.71900004 -0.030064557 0.26591188 13157816
0.72391999 -0.034345996 0.2653541 12301481
0.73100001 -0.038552586 0.26350319 11643039
0.7178334 -0.024976814 0.26463994 13486780
0.71522218 -0.015677106 0.26535287 13223609
0.71337146 -0.005735111 0.26478565 12302508
0.71219432 0.0046311561 0.26561773 12302765
0.71555555 0.014476746 0.26491469 12961467
0.71874076 0.023416089 0.26525503 13027260
0.72033334 0.028338812 0.26471788 12961467
0.72513348 0.03419463 0.26495188 12895674
0.73080003 0.039585486 0.26514441 12895674
0.73283333 0.044846408 0.26502272 12895674
0.73744458 0.052224174 0.26573089 12697782
0.74175 0.057110973 0.26416653 12500146
0.74470395 0.0645542 0.26534504 12105902
0.74719995 0.071960993 0.26444665 12369329
0.75425005 0.076395586 0.26569897 11579814
0.76200002 0.080520332 0.26487166 10329745
0.77900004 0.085964032 0.26257086 12829363
0.78675008 0.088661045 0.2642625 12960693
0.78900003 0.091993041 0.26163164 12829107
0.79125011 0.095283963 0.26586741 11710885
0.78817642 -0.10350798 0.27456486 10262413
0.79062504 -0.10825154 0.27643883 8552310
0.77828568 -0.091367975 0.27430439 10854035
0.78325003 -0.096358202 0.27511981 10854036
0.77495843 -0.084943496 0.2751942 10985877
0.76744443 -0.072614819 0.27384961 10854291
0.77200007 -0.077223115 0.27563515 10919828
0.75791663 -0.062891163 0.27498096 11314586
0.76233333 -0.067572504 0.27539572 11183001
0.74582607 -0.052902885 0.27522168 11906211
0.75272733 -0.058709394 0.27534208 11709088
0.72900003 -0.040722314 0.27899653 11971747
0.73400015 -0.044049084 0.27509087 11906211
0.741 -0.048042689 0.27346766 11906211
0.71899992 -0.030829646 0.27555194 12631217
0.72361535 -0.036063626 0.27458429 11972261
0.71763343 -0.024968917 0.27464694 13026487
0.71624225 -0.015470053 0.27540994 12829109
0.71440554 -0.0055121193 0.2752412 12434351
0.71194595 0.004282977 0.27564406 12434608
0.71387798 0.014422489 0.27501747 12829625
0.71797055 0.023914853 0.27531713 13027517
0.72000003 0.028887283 0.27386662 13027260
0.71900004 0.030530352 0.2793774 12895931
0.72446877 0.034270879 0.27518973 13027260
0.73066664 0.039578263 0.27450129 13027260
0.73231053 0.044695307 0.27497205 13027260
0.73678267 0.052737001 0.27488726 12960954
0.74125004 0.058372844 0.27500749 12960697
0.74475008 0.064939715 0.27487412 12434609
0.74738467 0.071305126 0.27573726 12039595
0.75419998 0.075285636 0.27451259 11316385
0.7608 0.078612484 0.27424774 8948094
0.77600008 0.084727786 0.2760931 9211266
0.78750008 0.088745572 0.27557427 9014144
0.78871435 -0.10182394 0.28351852 9736326
0.79176474 -0.10648817 0.28551933 8552309
0.77900004 -0.090930313 0.28080741 11512220
0.78496003 -0.09560284 0.28501415 11578527
0.77671999 -0.0851404 0.28478581 11051415
0.78100002 -0.089335434 0.28884166 10854806
0.76900005 -0.071760617 0.2853038 11314586
0.77308702 -0.076787293 0.28520647 11051415
0.75799996 -0.062830642 0.28517413 11775137
0.76270586 -0.067501463 0.28511754 11578014
0.74500018 -0.053678237 0.28507897 11906468
0.75236362 -0.058841668 0.28481367 11840675
0.72812504 -0.041100089 0.28590402 11841188
0.7336787 -0.046204627 0.28526172 11906467
0.74000001 -0.049998544 0.28407252 11840931
0.71899998 -0.030625621 0.28442696 12434095
0.7221539 -0.035728976 0.28508595 12038823
0.71846676 -0.02499775 0.28505749 12631730
0.71583766 -0.015714824 0.28498542 12565937
0.71205008 -0.0056067994 0.28500712 12368558
0.71047223 0.0043881084 0.28520989 12368817
0.71174365 0.014588311 0.2852717 12697782
0.7161054 0.024546389 0.28495383 12829882
0.71892852 0.031849828 0.28608158 12830140
0.72288895 0.03671727 0.28432754 12961468
0.72711116 0.041655939 0.28706306 12961725
0.7317999 0.045604192 0.28441739 13027260
0.73651999 0.052728411 0.28514716 12961211
0.74127275 0.058295656 0.28503397 12698038
0.74453348 0.064734116 0.28494146 12895161
0.74687511 0.072039187 0.28463495 12697782
0.75750005 0.076498173 0.28280932 9605768
0.77650005 0.084782176 0.28263 9277316
0.78525007 0.088034928 0.28535104 9343109
0.78900003 0.091582589 0.28666961 9408902
0.79204768 0.096060164 0.28427094 9540488
0.78766662 -0.094813593 0.29468811 10657169
0.79079998 -0.098972574 0.29728013 8354673
0.77754539 -0.082984947 0.29401779 11051669
0.78254545 -0.087682597 0.29590827 10920083
0.76733333 -0.071605086 0.29546073 11775136
0.77300006 -0.076533444 0.29518843 11446426
0.74849999 -0.061086364 0.29872459 12169896
0.75588888 -0.063364118 0.29518011 12104103
0.76228577 -0.068331867 0.29466161 11972772
0.73689997 -0.05203272 0.295472 11841188
0.74459094 -0.056572117 0.2950218 12038566
0.75066668 -0.059505869 0.29168037 12038310
0.72825009 -0.041533723 0.29490551 11775653
0.73199993 -0.046890516 0.29513684 11775396
0.72247064 -0.034445953 0.29510045 12039081
0.71883327 -0.025009887 0.29529974 12565680
0.71671879 -0.015920937 0.29495621 12565937
0.71296561 -0.0055286079 0.29499257 12236974
0.71136677 0.0043940037 0.29473251 12303024
0.71266663 0.014413825 0.29526988 12434868
0.71560007 0.024504876 0.29495126 12698554
0.71866673 0.032680191 0.29551104 12829884
0.72041184 0.03773357 0.2949042 12961471
0.72475004 0.043869253 0.29493546 12961471
0.73089999 0.048659775 0.29409575 12961469
0.73580003 0.053066693 0.29405451 12829883
0.74283332 0.058062781 0.29530695 12698297
0.74578959 0.064106643 0.29429206 12698041
0.75050008 0.067884475 0.29776704 12829886
0.74800003 0.07098645 0.29204756 12237746
0.75460005 0.073025271 0.29639265 12500920
0.78740007 0.087629341 0.29378936 9343109
0.79066676 0.088485956 0.29796967 9343109
0.78900003 0.091377355 0.29241607 9474695
0.79120004 0.09546081 0.29502434 9474695
0.78844452 -0.091212861 0.30349091 11117720
0.79176474 -0.096130133 0.30557975 8881275
0.77883339 -0.081794553 0.30536234 11380378
0.78507149 -0.086260363 0.3053146 11051414
0.76583344 -0.072364263 0.30474293 11906723
0.77382356 -0.077541918 0.30494064 11841185
0.74720007 -0.060980272 0.30432948 11643552
0.75518757 -0.065284424 0.3042621 11906724
0.76060003 -0.06919618 0.30444407 11906724
0.73616672 -0.052326173 0.30500257 11644065
0.74300003 -0.057060014 0.30497122 11841188
0.72837508 -0.041114051 0.30646372 12105131
0.73155558 -0.046196438 0.30486962 11841702
0.71900004 -0.030064557 0.30715007 12170924
0.72278792 -0.0350504 0.30479097 12105132
0.71883327 -0.025009731 0.3053956 12433839
0.7179724 -0.015735649 0.30503041 12500402
0.71640611 -0.0058496147 0.30488986 12435123
0.71463341 0.0044130879 0.30445057 12369331
0.71496671 0.014458736 0.30459195 12369589
0.71572417 0.024558809 0.30392992 12500919
0.71825004 0.033338018 0.30294049 12829372
0.72000003 0.039000478 0.30167788 12237492
0.72100002 0.04074252 0.30125296 11645612
0.74600005 0.057875168 0.30151048 12829883
0.75600004 0.065534838 0.30378395 12369334
0.76140004 0.06691134 0.30797336 10856095
0.75900006 0.071319163 0.30202729 12632507
0.76380002 0.073918305 0.30429596 11185061
0.77300006 0.078063488 0.30759826 9869201
0.77700001 0.080286406 0.30918998 8619388
0.78800005 0.085112467 0.30711067 9343109
0.78900003 -0.090250522 0.31027099 10919829
0.78584993 -0.085205823 0.31537753 11511452
0.76700002 -0.07157398 0.31239292 11643552
0.77464712 -0.076133467 0.31497407 11577502
0.75575 -0.063229561 0.31311831 11380894
0.76257145 -0.067594692 0.31415793 11249308
0.73400003 -0.051311456 0.31098047 11315359
0.74518198 -0.055745557 0.31413057 11117979
0.75400007 -0.058888711 0.31857032 10064779
0.72766674 -0.042163771 0.31283796 11052701
0.73179996 -0.047391899 0.31227493 11842216
0.72285712 -0.036275703 0.3113358 11447459
0.7183333 -0.023591468 0.31162962 12105902
0.71753848 -0.015920239 0.31175879 11184803
0.71714288 -0.005045027 0.31079361 10856093
0.71650004 0.0029567401 0.31090486 9079940
0.71600002 0.013641277 0.31005889 8685181
0.7658 0.064791791 0.31262103 9079683
0.77285719 0.065645009 0.31762251 8685182
0.76700002 0.070275314 0.31059739 8487548
0.77477777 0.073812515 0.31495625 8816767
0.78075004 0.077476643 0.31799322 9079938
0.78720003 0.083554961 0.31527334 9145731
0.78776932 -0.08330261 0.32411638 9012091
0.79039997 -0.087080568 0.32692048 8420981
0.77633339 -0.071841739 0.32285962 9275519
0.78477782 -0.076703906 0.32616955 8617846
0.75900006 -0.06016646 0.32157245 9012604
0.76850003 -0.065417796 0.32289821 9012605
0.77420008 -0.067895316 0.32547987 8749690
0.78900003 0.058438063 0.32874164 8619134
0.77700001 0.069372579 0.32010379 8948353
0.78472733 0.065050587 0.32596242 8882047
0.77900004 0.071374804 0.32092774 8882560
0.78617644 0.0759333 0.32551047 8948352
0.78855562 0.082506321 0.32384008 9079937
0.79105884 0.086969756 0.32556844 9079938
0.78810006 -0.07391426 0.33334857 8487031
0.79083341 -0.077347614 0.33644855 8553080
0.77600002 -0.062875941 0.33241001 8355958
0.78433341 -0.067480437 0.3357774 8553336
0.77400005 -0.058184024 0.33291227 8684409
0.78350008 -0.055689517 0.33928934 8684922
0.78900003 0.059361596 0.3305887 8948351
0.79152173 0.055602528 0.33615857 8882559
0.78862506 0.065563709 0.33112422 8948094
0.79123545 0.064759597 0.33664784 8882559
0.78863645 0.074608102 0.33127591 8882301
0.79105258 0.075500868 0.33681098 9014145
0.79215389 0.085706361 0.33540675 9145987
0.78750008 -0.063350372 0.34102151 8750715
0.78650004 -0.05590041 0.34058845 8750202
