# .PCD v0.7 - Point Cloud Data file format
VERSION 0.7
FIELDS x y z rgb
SIZE 4 4 4 4
TYPE F F F U
COUNT 1 1 1 1
WIDTH 1048
HEIGHT 1
VIEWPOINT 0 0 0 1 0 0 0
POINTS 1048
DATA ascii
0.58192313 -0.10229623 -0.063009389 16447474
0.58214694 -0.094847538 -0.064002931 16053229
0.57900006 -0.081139416 -0.061021373 16053488
0.58175004 -0.085654996 -0.063910298 15197920
0.57761914 -0.076054491 -0.062808946 13355714
0.58000004 -0.07924287 -0.064521238 13158335
0.57333332 -0.11076605 -0.052374955 16183276
0.56850004 -0.10318077 -0.05082069 16448244
0.57489181 -0.10485772 -0.055323847 16381938
0.56787497 -0.094868556 -0.051208489 16579829
0.57551289 -0.094916292 -0.056689251 16579830
0.56850004 -0.085489213 -0.050765187 16513521
0.57534885 -0.084792644 -0.055885397 16381936
0.56900001 -0.079072021 -0.05064318 16579571
0.57449996 -0.075045288 -0.055259828 15855592
0.57626319 -0.065839715 -0.053739015 15197920
0.57828575 -0.056478027 -0.050309509 14869209
0.58087498 -0.058113728 -0.053230248 13553093
0.56576931 -0.11178474 -0.045167573 16117996
0.55583334 -0.10391957 -0.041740086 16513779
0.5637241 -0.10570891 -0.046450827 16381680
0.55429041 -0.095047325 -0.042139649 16448498
0.5614782 -0.094914444 -0.047290396 16448242
0.55538458 -0.085527487 -0.041884642 16382705
0.56326675 -0.084643483 -0.046930455 16447986
0.55780005 -0.076336898 -0.040897958 16447728
0.56452286 -0.07499101 -0.045540366 16118763
0.57033336 -0.071023561 -0.048981901 16119278
0.5661667 -0.066411167 -0.042774115 15855591
0.57367742 -0.064272448 -0.047207002 15987434
0.56850004 -0.059038922 -0.041282594 15724005
0.57429546 -0.054782245 -0.044737883 15724519
0.57506257 -0.045443922 -0.043923471 14934488
0.57585728 -0.034862965 -0.041817077 12435382
0.57640004 -0.028959434 -0.041587055 8947841
0.53500003 -0.11108475 -0.031336833 15920871
0.53684008 -0.10559116 -0.031495381 16381679
0.54414999 -0.10408519 -0.035251971 16513522
0.5517143 -0.10407317 -0.038588166 16447730
0.53821439 -0.095492534 -0.030804172 16447728
0.54447228 -0.094851598 -0.034942042 16448240
0.55014282 -0.094021022 -0.038661666 16448498
0.53850007 -0.086177535 -0.030279629 16382450
0.54473692 -0.085027732 -0.033994857 16382448
0.55175006 -0.08399161 -0.038344648 16381935
0.54517245 -0.075380884 -0.032287635 16447727
0.55296427 -0.07480444 -0.037199412 16382192
0.54708338 -0.066844769 -0.031403899 16316398
0.55381262 -0.065252274 -0.034874864 15921897
0.56168753 -0.063094899 -0.038324706 15856104
0.55650002 -0.056484751 -0.03185093 15724518
0.56453669 -0.054643892 -0.036331765 15461602
0.55900002 -0.04954683 -0.030123707 14737880
0.56536841 -0.045716096 -0.033260707 15395809
0.57112509 -0.043431241 -0.037797529 15658981
0.56844449 -0.037814751 -0.031372417 15855589
0.57375556 -0.03464324 -0.035461478 15724517
0.575643 -0.024742287 -0.035066139 14474709
0.57720006 -0.017108165 -0.033177998 14014158
0.58384615 -0.014101536 -0.036090106 11842989
0.57850003 -0.0079371165 -0.031174537 11316645
0.58500004 -0.0080274809 -0.032894306 11448230
0.5266667 -0.11284813 -0.022466809 16315629
0.53150004 -0.1115616 -0.026777854 16249836
0.5255357 -0.1046695 -0.02252467 16447471
0.53200001 -0.10541106 -0.027149739 16513265
0.51900005 -0.092171006 -0.020678237 16381935
0.52470601 -0.094878398 -0.023514558 16316143
0.53257895 -0.095299378 -0.02791518 16579314
0.51860005 -0.087243281 -0.020662298 16382192
0.52418524 -0.084727325 -0.022889348 16184813
0.53381485 -0.084566914 -0.027337201 16316142
0.52652943 -0.076028347 -0.021704908 15789797
0.53469223 -0.074702211 -0.025870422 16184299
0.54100001 -0.072646223 -0.029153714 16052970
0.53576469 -0.065406702 -0.02319579 15921382
0.54323083 -0.064431086 -0.027859591 16118506
0.53753859 -0.056933936 -0.020934064 15856103
0.54405564 -0.055048443 -0.024478512 15526882
0.55241179 -0.053904776 -0.028476711 15724518
0.54635298 -0.046615019 -0.021543857 15264222
0.55431265 -0.044910364 -0.02525454 15198431
0.56088895 -0.042417824 -0.028183609 15592674
0.55515003 -0.036009744 -0.021927515 15527138
0.56431437 -0.034536976 -0.026643122 15658210
0.57000005 -0.030506114 -0.029382104 15658210
0.55760002 -0.027228022 -0.020910803 15197661
0.56461293 -0.025185512 -0.024082694 15395038
0.57153344 -0.024521036 -0.028570775 15395038
0.56703448 -0.015421069 -0.023053708 14868952
0.57314819 -0.014869692 -0.027908616 14803160
0.56860006 -0.0059373477 -0.021722695 14408915
0.5722667 -0.0051749391 -0.025709618 14079950
0.56900001 0.00085032947 -0.020672299 14343122
0.57314819 0.0047674598 -0.022338381 14211279
0.57833338 0.015082115 -0.021688107 12566455
0.57600009 0.024587242 -0.021331262 10987679
0.57349998 0.032407537 -0.020835204 11053472
0.52400005 -0.12004623 -0.013517288 16051687
0.51809096 -0.11262882 -0.012042392 16184043
0.52305138 -0.11505742 -0.015789052 15920871
0.51524496 -0.10455395 -0.014237012 16315629
0.52154547 -0.10627842 -0.019004524 16447215
0.50692856 -0.09375944 -0.011467624 16250092
0.51423401 -0.095345326 -0.016221421 16250349
0.50544447 -0.084854841 -0.011902362 15987947
0.513762 -0.084935389 -0.016956057 15987947
0.50635296 -0.075769521 -0.011460664 15593189
0.51418424 -0.075030826 -0.015236692 15658981
0.52293336 -0.073847823 -0.019040639 15921384
0.50799996 -0.068809636 -0.010726071 15198172
0.51506245 -0.065354012 -0.012802291 15527394
0.52476925 -0.06488996 -0.016848952 15658725
0.53110003 -0.062986985 -0.019296177 15658467
0.51820004 -0.057818223 -0.011184434 15395808
0.52470005 -0.055101864 -0.013212675 15461601
0.53318518 -0.054323595 -0.017364256 15658979
0.52700001 -0.046212822 -0.011498059 15527394
0.53451514 -0.045135416 -0.014667771 15395808
0.54275 -0.043733492 -0.018211436 15330015
0.53522724 -0.035299648 -0.012386549 15461601
0.54488456 -0.035196729 -0.016514914 15527394
0.55125004 -0.033372909 -0.019060293 15461602
0.53722227 -0.025811285 -0.010855236 15263710
0.54429626 -0.024647847 -0.014282675 15132638
0.5533334 -0.02436645 -0.018286821 15198431
0.53900003 -0.01875254 -0.010118807 14803673
0.54490906 -0.015360299 -0.011741718 14803673
0.55434793 -0.014546255 -0.015433511 14737880
0.56170595 -0.013890049 -0.018822774 14672087
0.54800004 -0.0088026375 -0.010287766 14540501
0.55500007 -0.0058072489 -0.011865798 14474708
0.56402719 -0.0045982925 -0.016880231 14474194
0.55800003 0.0014885954 -0.010475499 14540501
0.5653429 0.0034767373 -0.014404326 14408401
0.57208341 0.0073312665 -0.016880769 14276815
0.56900001 0.010840624 -0.010682005 14210766
0.57597917 0.01510612 -0.014949604 14145230
0.57583934 0.025124682 -0.014857854 13289922
0.57646942 0.035276487 -0.014868176 12368563
0.57716656 0.043784205 -0.013491514 11579303
0.57700008 0.052497588 -0.011814567 11316386
0.51183343 -0.12124759 -0.0028333068 15722980
0.50721747 -0.11372662 -0.0018836033 16052456
0.51282924 -0.11584532 -0.0063865557 16052457
0.49822223 -0.10234816 -0.00093081046 16118250
0.50478721 -0.10515857 -0.0046336506 16249835
0.51100004 -0.10725983 -0.0087564755 16315629
0.49569049 -0.094470561 -0.0026826691 15920871
0.50282145 -0.095690355 -0.0077618579 16118507
0.48833337 -0.083868377 -2.2048966e-05 16052970
0.49466667 -0.084990479 -0.0043984363 16052970
0.50111109 -0.085344933 -0.0092774518 15987433
0.48744446 -0.075158387 -2.2008833e-05 15593446
0.49430767 -0.075209811 -0.0041059544 15724775
0.50205553 -0.074532494 -0.0087087546 15593189
0.48800004 -0.067814559 -2.2033917e-05 15396067
0.4952631 -0.06540361 -0.0025017464 15330017
0.50364709 -0.064822152 -0.007068309 15264223
0.51000005 -0.06311252 -0.0095743816 15395808
0.49713328 -0.056939367 -0.00087816647 15264223
0.50439286 -0.055626176 -0.0039497479 15330017
0.51379418 -0.053954743 -0.0073880414 15461345
0.52100003 -0.051057395 -0.0097808875 15527394
0.5066154 -0.046721809 -0.00066269259 15132637
0.51478565 -0.044940714 -0.0043666684 15461088
0.52326322 -0.043602984 -0.0087298723 15330015
0.51475608 -0.035394579 -0.0024426556 15263709
0.52418524 -0.035008341 -0.0072110267 15329501
0.53087503 -0.033382438 -0.0096560884 15461086
0.51450008 -0.025207015 -0.0015150049 15066588
0.52453333 -0.025781369 -0.0057587093 15131867
0.53253847 -0.02465976 -0.0082728909 15329245
0.51675004 -0.015857615 -0.00078138296 14672087
0.52469999 -0.015125079 -0.0034681477 14737880
0.53426927 -0.015074979 -0.0071500028 14803417
0.54100001 -0.011223176 -0.0088898614 14672087
0.51824999 -0.007717263 -2.3399749e-05 14540501
0.52438462 -0.006627738 -0.0018213985 14474708
0.53353339 -0.0064079366 -0.0046925484 14606294
0.54472727 -0.0052655679 -0.0077937949 14408915
0.55233335 -0.0024063531 -0.0090760952 14540501
0.52750003 0.0016137146 -0.00043622672 14211536
0.53479171 0.0049718283 -0.0021169193 14211281
0.54333329 0.0032765444 -0.0052572279 14211537
0.55333334 0.004073909 -0.0082302513 14408659
0.56050003 0.0073989145 -0.0092102904 14211279
0.5354445 0.01215503 -0.00072257983 14211281
0.54469228 0.014691647 -0.0024808617 14079951
0.55322224 0.015146108 -0.0044885199 14145487
0.56527275 0.017019276 -0.0074918806 14144973
0.57050002 0.018215317 -0.0093746139 14079180
0.54614288 0.024475669 -2.4659152e-05 14079950
0.55523074 0.024080744 -0.0024300152 13947852
0.56568182 0.024679542 -0.0059907739 13947851
0.5717693 0.02613287 -0.0087788831 13882314
0.54900002 0.031023083 -2.4788156e-05 13948364
0.55371433 0.035738084 -0.00021194802 14014157
0.565 0.034342732 -0.0034535874 14079695
0.57482612 0.035529058 -0.007635789 14145743
0.5575 0.041292373 -2.5171945e-05 13882571
0.56479996 0.045045439 -0.0015307761 14145488
0.57536101 0.045046397 -0.006729159 14277073
0.56659102 0.054866835 -0.001234612 14079696
0.57424331 0.054750644 -0.0067893821 13092542
0.56836379 0.065501705 -0.0035359124 13092543
0.57043755 0.063864715 -0.0062854928 11447972
0.56822217 0.073099926 -0.0033757398 12105645
0.57000005 0.078468271 -0.00047052975 12566453
0.57450008 0.084361292 -0.00058544282 11382179
0.57600003 0.090531141 -2.6007247e-05 11710630
0.49899998 -0.12132782 0.008933424 15789284
0.50428575 -0.12277671 0.0051076547 15591648
0.49666664 -0.11400329 0.0074662305 15986663
0.50375003 -0.11618242 0.0033622938 15986405
0.48699996 -0.10352498 0.0079563381 16052456
0.4941842 -0.10530359 0.0039898842 16052455
0.50050002 -0.10938933 0.0017343357 16184041
0.47900003 -0.090673998 0.0089491541 15855078
0.48458338 -0.09473297 0.0059713214 15920871
0.4911429 -0.096506223 0.001947958 15789285
0.4756451 -0.084079377 0.0080907559 15789542
0.4834879 -0.085586481 0.0034754793 15986921
0.47422472 -0.074813135 0.007468842 15855848
0.48293546 -0.075478159 0.0025984736 15856105
0.47481254 -0.065330654 0.0076127169 15526883
0.48385295 -0.06456738 0.0030716022 15395809
0.49100003 -0.061909143 0.0011272704 15395810
0.47633335 -0.057640761 0.0090829069 15395295
0.48420525 -0.054861639 0.0062186304 15198429
0.49226922 -0.054444067 0.0023239234 15132636
0.48529172 -0.04617935 0.0078796092 15198431
0.49480647 -0.045162961 0.0044548181 15132379
0.50380003 -0.043156099 0.0018623966 15197916
0.48775002 -0.038091317 0.00911263 15263711
0.49493548 -0.035081066 0.0073719472 15066845
0.5048182 -0.034859955 0.0033729593 15198430
0.51000005 -0.032070622 0.0011708919 14869466
0.49636847 -0.025461288 0.0085367188 14672087
0.50505006 -0.024811616 0.0044913227 14803673
0.51011115 -0.024911493 0.001171147 14935259
0.49773332 -0.015684813 0.0088318819 14606294
0.50486845 -0.015170624 0.0055060126 14606294
0.51133341 -0.013956326 0.0018910851 14672087
0.49875003 -0.0074268552 0.0093181431 14408915
0.5046522 -0.0051263184 0.0077287317 14277329
0.51362866 -0.0051898081 0.0035080672 14408915
0.52100003 -0.0016595733 0.0011961465 14408915
0.50605261 0.0039075776 0.0086415047 14014156
0.51420695 0.0050616306 0.0054889922 14145742
0.52388239 0.0055085933 0.0022094015 14211536
0.53000003 0.0088568544 0.0012168093 14079950
0.509 0.010889078 0.0095096426 13882569
0.51510352 0.014931975 0.0078301318 14014156
0.52426082 0.015430202 0.0040806429 14014157
0.53172737 0.01534118 0.0015595839 14014157
0.51785719 0.021990379 0.0089815101 14079950
0.52450001 0.025740167 0.0072954269 13948364
0.5340001 0.025500294 0.0028029021 14014157
0.54325002 0.027522571 0.0012472295 14013903
0.52716666 0.032465491 0.009437032 14014157
0.53470969 0.03502439 0.0064704451 14145487
0.54449999 0.035946548 0.0027600559 14079952
0.55166668 0.037631862 0.0012665531 14079696
0.53766674 0.040872756 0.008783414 14211536
0.54535711 0.044682991 0.0064002164 14079950
0.55335301 0.045748532 0.0025628041 14079695
0.56 0.04934277 0.0012856852 14277075
0.54800004 0.050637376 0.0085269958 14079950
0.55400008 0.054881256 0.0063006915 14014158
0.56107146 0.056286745 0.0021314132 13948110
0.55763644 0.062486611 0.0076871994 14014158
0.56271064 0.065702811 0.0045086513 14145488
0.56728131 0.073352724 0.0052427012 14277073
0.57115388 0.078251295 0.0054239212 14605781
0.57563835 0.085117452 0.0055364682 14276816
0.5778572 0.091886185 0.0055794758 13684938
0.58109528 0.096840277 0.0072294693 13948110
0.58337498 0.10338514 0.007741597 13158593
0.486 -0.12271792 0.018292543 15657442
0.49555996 -0.12318239 0.013239022 15657699
0.50033337 -0.12672813 0.011300133 15262172
0.47714287 -0.11202468 0.018965114 15855078
0.4842703 -0.11498711 0.015963618 15855077
0.49252379 -0.11635269 0.011834349 15920871
0.46900001 -0.10085832 0.019741697 16381420
0.47454348 -0.10453757 0.016994925 15789284
0.48235711 -0.10587138 0.012112218 15920870
0.46639127 -0.093798764 0.018395016 15789284
0.47421163 -0.09537936 0.013992731 15789540
0.48050001 -0.096957974 0.010289319 15789798
0.45875001 -0.082545817 0.019041611 15789796
0.46468747 -0.084719978 0.015967926 15789796
0.47166666 -0.086242042 0.011859369 15856104
0.4573749 -0.074670099 0.018223682 15724516
0.46489364 -0.075127386 0.014140876 15724518
0.47000003 -0.07521683 0.010981563 15724775
0.45725006 -0.065297559 0.018173411 15527394
0.4651401 -0.065179333 0.013973092 15527396
0.47014287 -0.063682258 0.010984902 15592419
0.45815793 -0.055340126 0.018776454 15395553
0.46483728 -0.055217769 0.015432888 15264224
0.4734644 -0.054266863 0.01149275 15263711
0.45900002 -0.048205048 0.019320766 15263454
0.46475002 -0.04483629 0.018238202 15132381
0.47443181 -0.045154437 0.013928548 15197918
0.48070589 -0.043598052 0.010833872 15461603
0.46713331 -0.035276715 0.019004988 14803930
0.47465792 -0.035340577 0.015965937 14935259
0.4832857 -0.034781877 0.011803064 15132381
0.46753329 -0.025458669 0.019240787 14606294
0.47489744 -0.024988763 0.016304273 14737623
0.48430774 -0.024957385 0.012488531 14803673
0.49120003 -0.024675112 0.010441704 14737623
0.46850002 -0.016023897 0.019446166 14408915
0.4735862 -0.015175016 0.017214809 14343121
0.48482609 -0.014005709 0.013691488 14343122
0.49245 -0.014652458 0.011100643 14408915
0.47505262 -0.0070995805 0.018703859 14277328
0.48438895 -0.0047233384 0.015876764 14079950
0.49349996 -0.004771288 0.0118935 14079951
0.48656249 0.0022260428 0.017986458 13816776
0.49474466 0.0052885311 0.015173358 13882570
0.50215387 0.0054119397 0.011189723 14014155
0.49765217 0.013181634 0.018108817 13619397
0.50388569 0.015365255 0.014731748 13685190
0.51100004 0.017579054 0.011407079 13750985
0.50569999 0.02135751 0.018087048 13684934
0.51453191 0.025084214 0.01475771 13685191
0.52100003 0.028628908 0.011765842 13948364
0.51800007 0.031427663 0.018030282 13685190
0.52400005 0.035323892 0.015193196 14014156
0.53060007 0.03892649 0.0121484 14277329
0.5272857 0.041611496 0.018489966 14079949
0.53424448 0.044839893 0.01505656 14145742
0.5424 0.048428759 0.011401551 14079950
0.53825003 0.051837694 0.018561039 13882569
0.54500008 0.055011533 0.014823018 13882571
0.55124998 0.058090955 0.011105187 14145743
0.43000001 0.068087325 0.019106701 14211282
0.5474 0.061688967 0.017913802 14079949
0.55424398 0.065280788 0.014526458 14145743
0.56040001 0.069188178 0.011519193 14342609
0.42900002 0.070439726 0.019062268 14211282
0.43430001 0.077722952 0.018480754 14277075
0.55740005 0.071951248 0.018241329 14540501
0.56343186 0.075790271 0.014564689 14474451
0.43616667 0.084859923 0.017959327 14342867
0.56665212 0.083123274 0.017156774 14737110
0.57291305 0.085852079 0.012798838 14540244
0.43533334 0.091011524 0.01832222 9998992
0.57730776 0.093753442 0.01468228 14868953
0.5809285 0.098203257 0.013183131 14869210
0.58423531 0.10454053 0.014254379 14672087
0.58700001 0.11012434 0.013715272 14540501
0.46900001 -0.12117016 0.029623136 15460320
0.47479415 -0.12351033 0.026477855 15460319
0.48073331 -0.12318877 0.021660022 15591905
0.46580002 -0.11347614 0.027584441 15657697
0.47427911 -0.11586069 0.0235442 15723490
0.48050004 -0.11851759 0.020225767 15657697
0.45661288 -0.10399152 0.027974265 15657697
0.46465716 -0.10520381 0.023838343 15657698
0.47037503 -0.10748648 0.021450873 15789284
0.44880003 -0.092417076 0.028767237 15657697
0.45469648 -0.095020793 0.025589535 15592161
0.46247062 -0.096209943 0.021375747 15592161
0.43900001 -0.080018938 0.029783679 15526624
0.44600004 -0.084211528 0.027751235 15592418
0.45456871 -0.085465863 0.022964375 15724004
0.43864295 -0.074087083 0.029392406 15789796
0.44494918 -0.074797228 0.025637191 15658468
0.45258343 -0.075476579 0.021122376 15593187
0.43850011 -0.065043017 0.029235903 15592674
0.44438702 -0.065141819 0.025237743 15395553
0.45233336 -0.064667679 0.020978903 15395809
0.4390001 -0.055525262 0.029612392 15198430
0.44473433 -0.055063762 0.026027551 15198431
0.45293754 -0.054688051 0.021381209 15198429
0.43900007 -0.045076899 0.029783679 15066845
0.44499999 -0.045402106 0.027299266 15198174
0.45416668 -0.045034628 0.022608846 15197917
0.4605 -0.042432781 0.020461945 15263452
0.43900001 -0.039424516 0.029783679 14737880
0.44526088 -0.03497735 0.028001269 15001052
0.45478955 -0.035798341 0.023504848 15066589
0.46199992 -0.034101006 0.02088755 15131868
0.44463637 -0.025427075 0.028336089 14606294
0.45506984 -0.024578042 0.024151713 14672086
0.46238887 -0.024745651 0.021085221 14672086
0.44760007 -0.016458685 0.028531903 14211793
0.45515788 -0.014489534 0.02587856 14277329
0.46316135 -0.014398118 0.022009803 14343121
0.45660001 -0.0066034077 0.028493917 13948364
0.46394232 -0.00521628 0.024531377 13948364
0.47327277 -0.0029621674 0.021025021 14211536
0.46699998 0.00077765959 0.027465476 13685192
0.47537506 0.0037302785 0.02585098 13553606
0.48300013 0.0060342941 0.023433886 13553605
0.49133337 0.0089777671 0.021064928 13553604
0.48605004 0.012108454 0.027567303 13092542
0.49439281 0.015957752 0.024667935 13224127
0.42000002 0.029632874 0.029477863 13420996
0.49850005 0.021634459 0.027050426 13026492
0.50415385 0.025205892 0.024872391 13289920
0.51100004 0.028128983 0.021657972 13553091
0.42480001 0.036080964 0.028815139 13749960
0.43000001 0.039398156 0.026153166 14210512
0.50816673 0.031888913 0.028923742 13158335
0.51424527 0.0344938 0.025044752 13487299
0.52162504 0.038178317 0.021802636 14079948
0.42657691 0.045680072 0.028476425 14078925
0.43075004 0.045316145 0.025441054 14013388
0.51824999 0.040811453 0.027880948 13422020
0.52525008 0.043863162 0.024702702 13816520
0.53093755 0.048724841 0.02413475 13948362
0.41827279 0.055413093 0.029267462 14473938
0.42293757 0.054906867 0.026009403 14342352
0.43016669 0.050826281 0.023309601 14407888
0.53600001 0.053813033 0.024169954 14014155
0.5411818 0.058338527 0.022547238 14079948
0.41800004 0.065208673 0.029337492 14868696
0.42338759 0.065234832 0.025204057 14671061
0.43000001 0.067584008 0.02011334 14277075
0.54577279 0.063309789 0.022623109 14211534
0.5516001 0.068101898 0.021668371 14408913
0.41800004 0.074992254 0.028847286 14802648
0.42386088 0.07475128 0.024496531 14803162
0.43099999 0.077664375 0.02049605 14474454
0.55561113 0.07288003 0.022879303 14737879
0.56042856 0.077963531 0.022090958 14672087
0.41805565 0.084357053 0.028905574 14736856
0.42373788 0.08534617 0.025370311 14671575
0.43200007 0.085090719 0.021215143 14474454
0.56346154 0.08359912 0.02188901 14803159
0.41850001 0.090759881 0.029372584 15263970
0.42371151 0.094351605 0.026871102 14342610
0.4316667 0.0914234 0.021198977 14408659
0.56900001 0.090762973 0.021286936 15000282
0.57300001 0.092072904 0.020095177 14868696
0.42500001 0.10062586 0.029828791 13421515
0.46500003 -0.13102248 0.038623363 15130585
0.45880002 -0.12164988 0.039074752 15459807
0.46496925 -0.12491038 0.035133567 15262684
0.47000003 -0.12692992 0.030786578 15328734
0.44900003 -0.11057224 0.039571807 15657184
0.45621821 -0.11432626 0.035836101 15525857
0.46210003 -0.11690134 0.031996883 15525856
0.44678566 -0.10375422 0.037104305 15394269
0.45264101 -0.10620201 0.033040978 15526111
0.43770009 -0.092591912 0.038351167 15460318
0.44432834 -0.095336691 0.034105942 15460318
0.45000002 -0.099406026 0.031056695 15262939
0.42900002 -0.080706924 0.039148204 15394525
0.43531939 -0.084558457 0.03567709 15394525
0.4419412 -0.087492846 0.031440027 15460831
0.42676926 -0.074307695 0.038248871 15328988
0.43326563 -0.075328343 0.033361785 15526624
0.42506886 -0.065042406 0.037289079 15526624
0.43312243 -0.064957052 0.032439798 15526624
0.42425424 -0.055092581 0.037257574 15329245
0.43436965 -0.054834235 0.032378975 15264222
0.41900006 -0.043611817 0.039216544 14934746
0.42420346 -0.044666946 0.036645345 15131868
0.43395004 -0.045067888 0.032075536 15132638
0.41766664 -0.0335478 0.039308161 14803416
0.42435077 -0.035067022 0.036239099 15000538
0.43374282 -0.034758929 0.0322042 14803673
0.41692856 -0.025937203 0.039509598 14474708
0.42454761 -0.025248928 0.036673434 14540244
0.43460006 -0.024805203 0.032628957 14540501
0.44000003 -0.020458436 0.030881573 14408915
0.42584616 -0.017688733 0.037896171 14211536
0.43463165 -0.016000226 0.034457967 14211535
0.44324997 -0.013715249 0.031767957 14145742
0.44687501 -0.0064683324 0.035386607 13684421
0.45214289 -0.0036313597 0.032940947 13553350
0.41212505 0.0089363083 0.038694218 13618373
0.45583332 0.0019880834 0.037504245 12829113
0.46630001 0.0043068184 0.035019539 13026749
0.47369453 0.0069957799 0.033268608 12895163
0.40809104 0.015937464 0.037500266 13684423
0.41050005 0.01094379 0.038661521 13618630
0.47543487 0.011382747 0.036600403 12631735
0.48443249 0.015095839 0.033356931 12697527
0.49125001 0.019135125 0.032607809 12697527
0.40829998 0.024741856 0.038882963 14079180
0.4139232 0.025720935 0.034897983 13816009
0.48800004 0.020721575 0.03767772 12894652
0.49477419 0.023070753 0.033370998 12697527
0.50237501 0.027951196 0.031289019 12894907
0.40674281 0.035362802 0.03882762 14145743
0.41390634 0.034907371 0.035005428 14211023
0.42140001 0.035913963 0.031088265 13947594
0.50688887 0.032601338 0.031884149 12960444
0.51249999 0.037564162 0.030970378 13158078
0.40709105 0.045139849 0.038487684 14277329
0.41314301 0.045190096 0.033821151 14342352
0.42080003 0.043972105 0.030814078 14210766
0.51750004 0.041964162 0.030869877 13420995
0.4074524 0.054979239 0.038495466 14671317
0.4134199 0.055009924 0.033329517 14671316
0.40800005 0.064763255 0.038571764 14802644
0.41316035 0.065090284 0.033273142 14933974
0.40783343 0.075059719 0.038097516 14802901
0.41344449 0.075007409 0.03287911 14934232
0.40777791 0.084774449 0.038056895 14671573
0.41352177 0.085180134 0.032772515 14737110
0.4086 0.091769397 0.038624734 14803674
0.41385248 0.094506063 0.035497941 14342867
0.42150006 0.096594073 0.031144796 13882572
0.41727269 0.10439563 0.037342578 9143937
0.42275 0.10182022 0.032386456 11315365
0.42014289 0.11170065 0.038761668 3288613
0.45625004 -0.13149203 0.047501624 14867671
0.46200001 -0.13071482 0.041433886 14867157
0.44792852 -0.12201943 0.047914125 15393755
0.45485967 -0.1255971 0.044690926 15393756
0.46120006 -0.12854855 0.041005515 15327964
0.43900001 -0.11136399 0.049310111 15591134
0.44471645 -0.11467067 0.045804512 15656927
0.45177779 -0.11719276 0.041518498 15525343
0.43649012 -0.1041897 0.046997581 15459548
0.44248646 -0.1061625 0.042613562 15459548
0.42703849 -0.093182482 0.047886238 15328219
0.43353033 -0.095616117 0.043823969 15525341
0.44000003 -0.099257097 0.040152002 15459548
0.41800001 -0.081572764 0.049233411 15196887
0.42445457 -0.084711373 0.045417465 15262939
0.43066671 -0.087104931 0.041315909 15394012
0.41621822 -0.074380204 0.047223203 15196889
0.42218375 -0.075705551 0.042736717 15328988
0.40855554 -0.062037297 0.04939732 15460316
0.41455179 -0.064886652 0.045478314 15328988
0.42068425 -0.066209912 0.041032106 15329245
0.40718421 -0.054329854 0.048066188 15263194
0.41447374 -0.055106256 0.04351614 15263452
0.42050004 -0.057452839 0.040341333 15395038
0.4054853 -0.044944994 0.047670987 15197659
0.41403377 -0.045305595 0.042354174 15132123
0.40455854 -0.034947257 0.047101323 14934488
0.41360721 -0.035467558 0.042005576 14934746
0.39850006 -0.02272862 0.049425472 14605524
0.40430787 -0.025300778 0.046598766 14671316
0.41271731 -0.024710622 0.04181511 14540501
0.39900002 -0.01855208 0.04948749 14473938
0.40464121 -0.015354907 0.046699643 14276559
0.4138 -0.019044988 0.041822333 14277328
0.42033336 -0.018559217 0.040325344 14343122
0.40338004 -0.0050093704 0.047776476 13815751
0.41000003 -0.0075457329 0.046052724 13750215
0.39727777 0.0072548743 0.048806854 13947339
0.40400013 0.0046640965 0.04616458 13881801
0.4111667 0.0067638592 0.041743889 13749958
0.45425004 0.0038728705 0.040388972 12894906
0.395619 0.015122109 0.047781482 13881547
0.40496662 0.014759259 0.042961594 13882058
0.41050002 0.010703836 0.040822864 13750215
0.39634848 0.025266269 0.047506504 14145229
0.40350753 0.024629142 0.042393766 14013900
0.39638376 0.035173181 0.047414213 14145229
0.40192977 0.034911558 0.042417511 14145743
0.39670148 0.044706371 0.047422174 14211278
0.40198267 0.045299169 0.04262035 14276816
0.39765871 0.054621883 0.048001908 14606293
0.40234661 0.055212956 0.04333872 14605780
0.39777783 0.064622156 0.048575763 14737880
0.40306729 0.065154158 0.044020459 15000280
0.39755884 0.075266235 0.048294194 15065819
0.40286207 0.074827321 0.043799419 14934487
0.39771804 0.084570371 0.048013251 14671317
0.40260005 0.085066065 0.043428782 14540501
0.39875004 0.091377363 0.049222965 14671830
0.40446401 0.094829582 0.045267813 14211793
0.41088894 0.098354146 0.041235127 14211282
0.4065173 0.10255049 0.047558967 14540501
0.41455001 0.10497959 0.042652313 10986911
0.41800001 0.11169036 0.04825604 2630176
0.42080447 0.11329634 0.044225376 3090977
0.44740912 -0.13215898 0.057295583 15064792
0.45200008 -0.13247265 0.053059313 14933462
0.43880004 -0.1217912 0.058532327 15130840
0.44456252 -0.12502368 0.055013385 15262170
0.45066667 -0.1280392 0.05132325 15327963
0.42825004 -0.11064176 0.059129409 15130583
0.43587133 -0.11436329 0.055316433 15328219
0.44100001 -0.11802689 0.052074764 15591134
0.42560372 -0.10386097 0.05667109 15262682
0.43207896 -0.10649724 0.052919094 15262682
0.41761294 -0.093184032 0.057817128 14999510
0.42214289 -0.095726684 0.054076221 15131096
0.40900001 -0.080295525 0.059345067 15064790
0.41459343 -0.084662922 0.055483814 14999510
0.4206154 -0.088030286 0.05118303 15327960
0.40721831 -0.07381314 0.057070863 14933974
0.41183925 -0.075913727 0.052762754 15131095
0.39900002 -0.061052095 0.059762217 14999767
0.40449074 -0.064947382 0.055235352 14999766
0.41083336 -0.068633161 0.050633669 15197144
0.39698189 -0.053810723 0.057326205 14999766
0.40188241 -0.055780083 0.052962981 15131352
0.39513731 -0.044828195 0.056158412 15065816
0.40032002 -0.045567837 0.05126268 15197658
0.38872728 -0.032386992 0.059215736 14736595
0.39439455 -0.035013247 0.054825544 14802901
0.40000001 -0.036858518 0.050547928 15131866
0.38815567 -0.024794139 0.058478996 14473680
0.39410505 -0.02506689 0.053352542 14473938
0.38680828 -0.015097703 0.057172656 14276301
0.39444265 -0.015157353 0.052332882 14276559
0.40000001 -0.011107318 0.050547928 14078926
0.3859708 -0.0049753673 0.057219576 13947594
0.39383921 -0.005121618 0.052805658 14013387
0.40000001 -0.0082980972 0.050547928 13684422
0.38607246 0.0048069507 0.056652639 13750215
0.39374137 0.0043491223 0.051894363 13947595
0.38629714 0.014889281 0.056202184 13618629
0.39128575 0.014545476 0.051381584 13750216
0.38688797 0.024931513 0.056118555 13947593
0.39115158 0.024851467 0.051259566 14079437
0.3878158 0.034494761 0.057030868 13881800
0.39144441 0.035491902 0.052263144 14079435
0.38818756 0.044597428 0.058405627 14144971
0.39209539 0.045247748 0.053509865 14342350
0.3885386 0.054490663 0.058754005 14539729
0.39305946 0.055172253 0.053549428 14539986
0.38868582 0.064938389 0.059022453 14408143
0.39294368 0.064947322 0.05370849 14671316
0.3885228 0.07470829 0.058646563 14802901
0.39289892 0.07503669 0.053319 14868696
0.3888 0.082043305 0.058962051 14474451
0.39321798 0.085168459 0.054271482 14474708
0.39577219 0.094352432 0.055451963 14211537
0.40046155 0.098134086 0.051543023 14343892
0.39829639 0.10335256 0.058274146 13027010
0.40210173 0.10417368 0.053213902 12434615
0.40700001 0.11065598 0.051906578 2893343
0.412 0.1115343 0.051099867 3222311
0.4386667 -0.13130504 0.068897933 14670033
0.44271117 -0.13348307 0.064736374 14670034
0.42900002 -0.1208788 0.0692771 14998997
0.43527684 -0.1244632 0.065245293 15064790
0.44091669 -0.12870915 0.06208067 15196377
0.4256269 -0.11403789 0.066092208 15064790
0.43162501 -0.1175774 0.062454287 15262169
0.41737142 -0.10276693 0.066921957 14670545
0.42144269 -0.10604744 0.063701294 15064790
0.4086667 -0.09139207 0.069182433 14801616
0.41395777 -0.095158838 0.064806588 14867924
0.40643215 -0.084059648 0.066009477 14802130
0.41155168 -0.087609239 0.06230351 14933718
0.39794454 -0.072174475 0.068504415 14867922
0.40283334 -0.075465374 0.064341478 14736338
0.39545453 -0.064333811 0.065755531 14736594
0.40073338 -0.067604586 0.061083876 14933974
0.38844445 -0.052364741 0.068688087 14539215
0.39293942 -0.055496968 0.064121209 14670802
0.38676414 -0.044639047 0.065940477 14539215
0.39079174 -0.046495467 0.06131478 14802388
0.38499257 -0.03508855 0.064993232 14539215
0.37866664 -0.021448458 0.068978749 13684421
0.38291037 -0.025211558 0.06463407 14144972
0.37831584 -0.014514488 0.068036154 13881286
0.3818256 -0.015353907 0.062951796 14013385
0.37812334 -0.0051765894 0.067400843 13355199
0.38142851 -0.0052469098 0.062215954 13750214
0.37801278 0.004871482 0.067403004 13158076
0.38144156 0.0051565617 0.062242538 13553092
0.37822866 0.015251209 0.067539953 13223870
0.38153425 0.015235403 0.062353913 13487042
0.37848657 0.023855144 0.068638392 13487041
0.38213477 0.02548391 0.06374754 13750213
0.38287875 0.035081923 0.064953335 13750470
0.38300002 0.044955954 0.064972058 14013385
0.38393208 0.054991867 0.065168738 14408143
0.38422406 0.065040037 0.065233745 14473936
0.38409045 0.074985504 0.06521368 14276814
0.38555902 0.084773324 0.065024912 14211022
0.39000002 0.089143537 0.06024019 14672087
0.38804081 0.092970997 0.067034394 14211794
0.39200002 0.096406542 0.063654728 14014160
0.39403632 0.10463928 0.065362103 10723740
0.42900002 -0.13041961 0.079320073 14275792
0.43474418 -0.13271047 0.074777655 14144461
0.44050002 -0.13610779 0.071004547 14078669
0.42616364 -0.12355708 0.076195538 14670547
0.4317576 -0.12755267 0.073451735 14736083
0.41755554 -0.11246034 0.077310093 15196377
0.4220615 -0.11607724 0.074092887 15130840
0.41471002 -0.10487022 0.075133711 14933461
0.41999999 -0.1096577 0.071101166 14670802
0.40716681 -0.09353029 0.075796485 14670032
0.41109091 -0.097738214 0.073497854 14670288
0.39766666 -0.082105584 0.078089669 14407630
0.40223864 -0.085673921 0.074461468 14538702
0.39513505 -0.074747488 0.075328827 14670545
0.40000004 -0.078411587 0.070797734 14801616
0.38827664 -0.063387707 0.077512607 14341836
0.39175344 -0.066122465 0.073534027 14670288
0.38597658 -0.055028215 0.07506521 14473422
0.39000002 -0.059218481 0.07028316 14998995
0.37900001 -0.041400336 0.079480112 13947079
0.3823334 -0.04503924 0.074731626 14210250
0.37828583 -0.034403294 0.077025987 13816006
0.38076276 -0.035713844 0.072680458 14341836
0.37726054 -0.024756225 0.075301364 13223870
0.38033333 -0.028220678 0.070618361 13947079
0.37682378 -0.014827847 0.075131319 12434610
0.37559843 -0.0051561976 0.075154692 12171181
0.3747431 0.0049458174 0.074984103 12565938
0.37517422 0.015053943 0.075068198 12895160
0.37623337 0.02495908 0.07528159 13092795
0.3772991 0.034807261 0.07560169 13355711
0.38011119 0.035668239 0.070676118 13684677
0.37768567 0.044937275 0.075138353 13552833
0.38007149 0.046073116 0.070591129 13947590
0.37821439 0.054807749 0.076705635 13749956
0.38071415 0.055636499 0.071900949 14144970
0.37841278 0.064622894 0.077600561 14013383
0.38063762 0.065326832 0.072739646 14276555
0.37876192 0.074562214 0.078623056 14144714
0.38074201 0.075186916 0.073739886 14144970
0.37878954 0.083291434 0.079043515 13684933
0.38125014 0.085129246 0.074436583 13816520
0.3845416 0.094835974 0.074980617 13751243
0.38791236 0.10307792 0.076641642 14277846
0.39125535 0.10596993 0.073002629 11316390
0.38850003 0.1101736 0.079561852 2631971
0.39495352 0.11275902 0.074117802 2697244
0.42712504 -0.13097416 0.081717938 14144205
0.43000001 -0.13273689 0.0805116 13683657
0.41800001 -0.12195297 0.087874934 14538447
0.42189333 -0.12528537 0.084212303 14472911
0.41514736 -0.11495251 0.085146554 14801619
0.41999999 -0.11916223 0.081588916 14604241
0.4068833 -0.10404342 0.086195566 14932948
0.41155884 -0.10692652 0.082269989 15064790
0.39800003 -0.091868646 0.088347457 14670032
0.40322584 -0.095690921 0.084477134 14867155
0.38900003 -0.080011725 0.08922673 14538446
0.39506993 -0.084617205 0.085317701 14472910
0.40020004 -0.088780127 0.081770778 14538446
0.38770834 -0.073761858 0.086505219 14473166
0.391449 -0.076852672 0.082789831 14407630
0.38516903 -0.065184489 0.084915094 14473423
0.3785201 -0.052194923 0.087956399 14209737
0.38174024 -0.055751599 0.084384128 14407374
0.37780163 -0.044558618 0.085501663 14210251
0.38031587 -0.04776812 0.081095912 14210251
0.37615907 -0.035106573 0.0849526 13684164
0.37463447 -0.025106186 0.084802389 9408392
0.37318069 -0.0149569 0.084979914 4409923
0.37309867 -0.0051171924 0.085135095 5790035
0.37309751 0.0049209818 0.085139997 11776679
0.37311411 0.014971368 0.085140675 12303023
0.37360588 0.024988029 0.085186802 12894902
0.37427229 0.035267677 0.084801309 12829109
0.37510604 0.044909064 0.084717877 13026230
0.37642625 0.054915275 0.085118502 13420732
0.37717444 0.064832494 0.08489234 13750211
0.37748823 0.075034298 0.084875882 13947590
0.37783751 0.08471483 0.085241914 13750726
0.38000005 0.089192972 0.081491247 13817033
0.37900001 0.090799287 0.088530019 14211534
0.38187155 0.095293038 0.084809087 13488072
0.38496351 0.10463393 0.085003473 13159366
0.38500002 0.11008232 0.089210518 2236188
0.41610724 -0.12458337 0.09514717 14012359
0.42014289 -0.12871052 0.09187334 13880774
0.40781403 -0.11292503 0.096515432 14406860
0.41163051 -0.11741055 0.094119236 14341324
0.39813337 -0.10140144 0.097595602 14143688
0.40301168 -0.10540222 0.094474867 14144202
0.38900003 -0.090028942 0.099243939 14275274
0.39498165 -0.094728574 0.095080912 14275788
0.40019998 -0.098617315 0.09085837 14473425
0.38730767 -0.083829008 0.096167706 14209737
0.39208886 -0.086768992 0.092582144 14604239
0.38375384 -0.074883692 0.094999 14143943
0.37844896 -0.062618516 0.097545214 13814977
0.3810555 -0.06592042 0.093674533 14078664
0.37746757 -0.054554146 0.095107131 13749442
0.38050005 -0.059000921 0.091061875 14209994
0.37496334 -0.044747654 0.09495417 13420991
0.37388662 -0.034890242 0.09494856 12895161
0.36900002 -0.02061253 0.099324435 2173475
0.37301505 -0.025177497 0.094927445 7369065
0.36838233 -0.014731197 0.097977206 2041632
0.37087524 -0.015262458 0.093048908 2107169
0.3686842 -0.0081021078 0.098420829 1975329
0.37112162 -0.0047113611 0.094567329 3948601
0.37272751 0.0049181175 0.095093369 10526613
0.37199208 0.014924684 0.094904587 11579557
0.3724108 0.025035895 0.094931662 12368816
0.37381837 0.035126608 0.094931334 12764086
0.37409875 0.044786658 0.095003299 12894902
0.37508634 0.05489416 0.095078588 13355452
0.37623227 0.065382339 0.094773509 13289403
0.37581319 0.075058341 0.09493617 13421246
0.37568656 0.084681496 0.094855867 13619397
0.37830514 0.092693917 0.096363999 13356483
0.38088059 0.09691485 0.094028287 13356742
0.38228676 0.10484335 0.094983377 13751501
0.3839474 0.11067933 0.094870776 4538430
0.40837499 -0.12044506 0.10669482 13814209
0.41239628 -0.12404759 0.10401791 13683137
0.40536368 -0.11479826 0.10504442 14143431
0.41033337 -0.11930114 0.10084345 14341067
0.39623287 -0.10370343 0.10578384 14274760
0.40109086 -0.10807922 0.10349 14274760
0.38771668 -0.092698567 0.10639699 14407116
0.39199999 -0.096899122 0.10376327 14209223
0.38395986 -0.0848727 0.10502089 14341580
0.37812316 -0.074181035 0.10723848 14539473
0.38116407 -0.075978875 0.10280849 14605008
0.37661353 -0.065084524 0.10531851 14473679
0.38000003 -0.068968154 0.10080269 14868180
0.37503028 -0.055193108 0.10489309 14210507
0.37390387 -0.045007899 0.10495367 13881799
0.37337619 -0.034926068 0.105038 13223869
0.36856523 -0.02100138 0.10502128 2107682
0.3722941 -0.025948269 0.1049259 7631723
0.36706281 -0.014920616 0.1052446 1910048
0.36772233 -0.0065639727 0.10551012 1910050
0.37066671 -0.0020770575 0.10436188 6909544
0.37237352 0.0049383505 0.10495723 10658713
0.37137926 0.014900138 0.10474328 11842730
0.37144461 0.024902606 0.10476151 12566709
0.37215179 0.034971178 0.10495953 12895674
0.37313181 0.044862673 0.10534814 13290431
0.37367877 0.054977875 0.10494067 13750468
0.37418965 0.064944819 0.10466038 13816261
0.37420031 0.074918546 0.10480198 13618883
0.37429386 0.085222349 0.10492042 13027002
0.37787387 0.095212251 0.10495398 12633274
0.37900004 0.10067727 0.10467789 12830656
0.38066986 0.10584551 0.1051134 13028036
0.38126656 0.11133499 0.10539035 7631213
0.40633336 -0.12090897 0.11497831 13156280
0.41225928 -0.12465554 0.11300606 12367020
0.39715004 -0.11239401 0.11628661 14078151
0.40191928 -0.11655996 0.11453538 13814467
0.38693616 -0.10296622 0.11717314 14341837
0.39289039 -0.10601591 0.11360867 14341580
0.37850001 -0.091143385 0.1187163 14539217
0.38392431 -0.09532471 0.11491095 14473167
0.39000002 -0.099390343 0.11045504 14539216
0.37669235 -0.083966017 0.11637703 14539473
0.38129264 -0.087354057 0.11262315 14407630
0.37450695 -0.074939407 0.11491493 14605266
0.37291875 -0.065016598 0.11517327 14605522
0.37259045 -0.055040538 0.11523186 14342350
0.37215978 -0.045292001 0.11486862 13881799
0.37250754 -0.035131142 0.11479376 12565940
0.36739475 -0.021475097 0.11574855 1909789
0.37265226 -0.026551295 0.11458746 7237222
0.36519456 -0.014844375 0.11496476 1449495
0.36645302 -0.005570712 0.11532895 2765869
0.37049994 -0.0010843117 0.1141343 7633006
0.37151378 0.0048788437 0.11514137 9869197
0.37094653 0.014882267 0.11504491 11776937
0.36900002 0.023875006 0.11919266 11974574
0.37042823 0.024859341 0.11474504 12566710
0.37071177 0.0347372 0.11470275 12895418
0.37108839 0.044830807 0.11476872 13092797
0.37124765 0.054971319 0.11453462 13290690
0.37199235 0.064870089 0.11414648 13355970
0.37372494 0.07509122 0.11394259 13421506
0.37406185 0.084987693 0.11313037 13027004
0.37753853 0.094392106 0.11266965 11316901
0.38000008 0.098926537 0.11414649 10790815
0.38109377 0.1042697 0.11316109 10856097
0.38100001 0.11101977 0.11087916 8025203
0.38899997 -0.11170958 0.12568802 13880772
0.39293754 -0.11415106 0.12366369 13683137
0.40000001 -0.11941841 0.1210906 12959416
0.38539806 -0.10471906 0.12467229 13552064
0.39100003 -0.10971391 0.12034813 14078152
0.37826931 -0.0926897 0.12472367 13091257
0.3809782 -0.097132146 0.12511781 12762290
0.37519208 -0.085154206 0.12509239 13157307
0.37306046 -0.075109415 0.12493651 12368818
0.37233356 -0.065068595 0.12516336 11776937
0.37275007 -0.055120669 0.12512195 11645351
0.37365192 -0.045012761 0.12505318 11119266
0.37412497 -0.035087992 0.12468048 9934735
0.36447072 -0.021818839 0.12447323 1843739
0.37363639 -0.027429989 0.12422503 7171686
0.36259678 -0.014737283 0.12433178 1317907
0.36353168 -0.0056485538 0.12415347 3555127
0.36855558 0.0005990307 0.12211609 8158064
0.37082863 0.0051815333 0.12166814 8421238
0.37081248 0.014766986 0.12097174 10395028
0.36999995 0.024874264 0.12079214 10132114
0.37 0.030869119 0.12081493 9145733
0.39211914 -0.11278257 0.13418047 11380380
0.38648617 -0.10375544 0.13502827 12104875
0.39077783 -0.10890693 0.1356459 11709346
0.37792867 -0.092776842 0.13446327 12697785
0.38139534 -0.097615197 0.13496843 12565941
0.37556094 -0.085850783 0.13367584 12698299
0.37399989 -0.075558402 0.13136895 11974834
0.37446773 -0.064704701 0.13249764 10724764
0.37500003 -0.055057395 0.13265486 11447717
0.37663808 -0.04512839 0.13230166 11777195
0.37800005 -0.036710694 0.13233259 11908266
0.36137503 -0.021138802 0.1385143 988688
0.37800002 -0.029964322 0.13006394 11513769
0.35900003 -0.011229457 0.13823378 1119504
0.36037135 -0.014951332 0.13850899 1185810
0.35999995 -0.0071420553 0.13857807 1645335
0.39105555 -0.11140919 0.14269221 12302770
0.38713339 -0.10561698 0.14175552 12368563
0.39000002 -0.10943331 0.14104043 12368562
0.3818 -0.097302936 0.14030947 11185062
0.365868 -0.02219744 0.14659192 1054224
0.36481914 -0.01503001 0.1456181 593672
0.36189333 -0.0065916339 0.14534925 1643790
0.36300862 -0.023577178 0.15526298 1910045
0.36453998 -0.014973174 0.15490161 594441
0.364012 -0.006358393 0.15509653 1708813
0.36134908 -0.023451708 0.16488354 988943
0.359 -0.015546188 0.16952053 1252371
0.36105144 -0.014573083 0.1645855 923150
0.3630611 -0.0070317811 0.16480175 791309
0.34590548 -0.024450717 0.17700829 1515029
0.35503381 -0.023153685 0.1731533 725772
0.3607333 -0.024431143 0.17138429 725517
0.34623846 -0.015076092 0.17734839 1186578
0.35536703 -0.015136752 0.17304264 726028
0.36000001 -0.013929497 0.17022257 1252114
0.34557575 -0.0084444117 0.17783289 1120529
0.35625643 -0.0085421056 0.17457584 659723
0.36171436 -0.0046947501 0.17348155 2238498
0.36200002 0.00011725865 0.1754055 8291191
0.33771425 -0.024203625 0.18726011 1252371
0.34135041 -0.024735738 0.1829077 1318164
0.33796287 -0.014864028 0.18695696 1120786
0.34158495 -0.015104203 0.18238951 1120785
0.33749995 -0.0084386924 0.18726896 1054993
0.34173691 -0.0078672487 0.18252861 1054992
0.33699995 -0.0233729 0.19048649 1186322
0.33699992 -0.014880378 0.19050969 1186322
0.33700001 -0.0087267775 0.19043079 989201
0.78900003 0.11477349 0.26871207 8290421
0.79016668 0.11771809 0.2681841 8619386
0.79240006 0.12454506 0.26801479 8685179
0.7840001 0.10792986 0.27649114 13158593
0.78794736 0.11374914 0.27539051 9803404
0.79000002 0.11861776 0.27552557 8684923
0.7926923 0.12445002 0.27482411 8750715
0.79305404 0.16447988 0.27518028 9408902
0.76850003 -0.072614081 0.28961596 13026492
0.76900005 -0.067560054 0.2892043 13026492
0.77000004 -0.065244466 0.28837866 12960698
0.77600002 0.1056159 0.28880912 13158594
0.78316671 0.10781449 0.2838349 13421765
0.78794998 0.11425392 0.28504714 9540489
0.79100001 0.1187679 0.28513303 8684924
0.79140007 0.16514416 0.28527838 9408902
0.78900003 -0.14196829 0.29918861 10658717
0.79118752 -0.14606817 0.29700625 10790303
0.76600003 -0.12258743 0.29943311 13487042
0.76200002 -0.11748765 0.2978695 13026490
0.76200002 -0.090729818 0.29965335 13027260
0.76200008 -0.083593123 0.29754493 12961467
0.7658847 -0.07456959 0.29538453 13027517
0.7685715 -0.068121307 0.2951673 13093054
0.77000022 -0.063842453 0.29528853 13093053
0.77000004 -0.059235852 0.29739156 13290432
0.77505893 0.10698578 0.29592571 13619403
0.78000003 0.10798631 0.29029784 13750731
0.77900004 0.11149517 0.29813212 13553353
0.78536373 0.11483455 0.29471275 9277062
0.79000002 0.11861777 0.29124552 8685179
0.78900003 0.12031468 0.2982651 8685179
0.79309684 0.12489625 0.29486531 8619387
0.78883332 -0.14224614 0.30481836 10132371
0.79078573 -0.14731595 0.3044934 9738127
0.77420008 -0.13133363 0.30807582 10658714
0.7856667 -0.13891864 0.30742094 10330005
0.76781255 -0.12287846 0.30519837 11513252
0.77033335 -0.12718847 0.30623707 11053471
0.76594442 -0.11530701 0.30588844 11382180
0.76538891 -0.10506823 0.30626476 11448230
0.76414281 -0.094819106 0.30492878 11316901
0.76440758 -0.084453791 0.30458063 11777195
0.76668 -0.075131401 0.30508637 11842730
0.76871431 -0.06826289 0.30447918 12105902
0.77000016 -0.063066341 0.30482721 12303537
0.7704286 -0.058495283 0.30348286 12171951
0.77440006 0.1079372 0.30344057 13553094
0.77875006 0.11145939 0.30350474 13947594
0.78462493 0.11597887 0.30464515 9671304
0.78845459 0.12107108 0.30502224 8619129
0.79088897 0.12667258 0.30484208 8619129
0.79270959 0.13483073 0.30490598 8882559
0.78862506 -0.14259346 0.31427768 10197394
0.79154551 -0.14647096 0.31514677 9013120
0.77640009 -0.13206917 0.3138608 11974572
0.78445458 -0.13798216 0.31516007 11974059
0.77317655 -0.12496276 0.3144865 11514278
0.76900005 -0.11406633 0.3114073 12238003
0.77307701 -0.11571335 0.31584546 11382439
0.76900005 -0.10416499 0.3114073 12040367
0.77292866 -0.10547034 0.31506929 11908782
0.76880008 -0.095139958 0.31132632 12435382
0.77391666 -0.094866633 0.3161172 11908781
0.76900005 -0.086162567 0.3114073 12238004
0.77381825 -0.08456251 0.31583118 11316901
0.77355564 -0.074901432 0.31506729 12106676
0.77272737 -0.066846684 0.3135798 12238262
0.77428573 0.10486688 0.3138096 10790051
0.78000003 0.1088993 0.31677473 9474444
0.78644454 0.11522513 0.31591374 9408649
0.78875005 0.12027656 0.31478977 8619386
0.79161906 0.12512943 0.31527275 8553593
0.78900003 -0.14012124 0.32320043 10131600
0.7933501 -0.14517021 0.32479739 9145218
0.78714293 -0.13505404 0.32441616 9210499
0.79033333 -0.13665766 0.32868072 9079682
0.77775002 -0.12446991 0.32041276 9211268
0.78400004 -0.12505309 0.32549316 8092788
0.77724999 -0.11528917 0.32020679 10593182
0.78454548 -0.1149497 0.32605308 7632240
0.77850002 -0.10453882 0.32072175 11185061
0.78536373 -0.10504162 0.32622606 7500652
0.77840006 -0.094504789 0.32068056 10790299
0.78600007 -0.094923325 0.32665765 7435113
0.77900004 -0.089106664 0.32092774 9671817
0.78506255 -0.084629409 0.32526875 8816766
0.7857334 -0.075162157 0.32554677 8948353
0.78587502 -0.068045512 0.32583451 8619645
0.78557152 0.10770719 0.32600349 8553593
0.78786367 0.11444325 0.3244963 8553593
0.79000002 0.11861777 0.32823357 8619386
0.79261547 0.12451061 0.32525226 8619386
0.78860009 -0.1252826 0.33042109 8487801
0.7931875 -0.12450119 0.33594427 8684923
0.78883338 -0.11516056 0.33051887 8158835
0.78900003 -0.10502703 0.3305887 8158833
0.78900003 -0.095791712 0.3305887 8093040
0.78766674 0.10802364 0.33351293 8619386
0.78865206 0.11392116 0.33485857 8685179
0.79000002 0.11861776 0.33470649 8685179
0.79217857 0.12471079 0.33503145 8685179
0.7907334 0.11613683 0.34563214 8685179
0.79295844 0.12447897 0.34508896 8619899
