# .PCD v0.7 - Point Cloud Data file format
VERSION 0.7
FIELDS x y z rgb
SIZE 4 4 4 4
TYPE F F F U
COUNT 1 1 1 1
WIDTH 368
HEIGHT 1
VIEWPOINT 0 0 0 1 0 0 0
POINTS 368
DATA ascii
0.40644443 -0.10242107 -0.0004410354 14670029
0.40405887 -0.09409909 -0.0013257024 14206376
0.40390897 -0.084969468 -0.0019097377 14800837
0.40400001 -0.075320661 -0.0016996122 15459798
0.40400001 -0.065127365 -0.0014368981 15394776
0.40434876 -0.054878924 -0.001449599 11909805
0.40543589 -0.044839989 -0.0014544307 15131602
0.40738639 -0.03515096 -0.0014491815 15262674
0.4083637 -0.025995759 -0.0013799885 14342088
0.41000003 -0.02059925 -0.00078636594 10723730
0.41200003 -0.015294046 -0.00074197684 10131341
0.41400003 -0.0058399807 -0.00018041806 12960695
0.41559997 0.0042227404 -0.0001159172 11250079
0.40702939 -0.10364901 0.0052215778 14209991
0.40439978 -0.095016107 0.0051897587 13942948
0.40361789 -0.084909976 0.0051804106 13747631
0.4038597 -0.075030982 0.0051820553 14078915
0.40353611 -0.0650528 0.0051750513 14079430
0.40395966 -0.05519101 0.0051825671 10793633
0.40429318 -0.04534062 0.0051461835 13553344
0.40573373 -0.034964669 0.0051616882 14210500
0.40782866 -0.025207832 0.0052736574 13552828
0.41000003 -0.020263314 0.0016611683 9670787
0.4088825 -0.017406326 0.0077231466 8552563
0.41104108 -0.014021488 0.0042493409 9736580
0.41276997 -0.0051772459 0.0052922438 13684670
0.41576785 0.0050470051 0.004944799 13289143
0.4181667 0.012319474 0.0060998895 13090992
0.42066041 0.016897112 0.0056659258 12495254
0.42205277 0.025519835 0.0075206654 13879222
0.42468834 0.035295576 0.0073641287 14078918
0.42630431 0.04494299 0.007898734 14473164
0.42900002 0.050604872 0.0082660774 13684929
0.4305715 0.05378022 0.0079007242 11646119
0.40689337 -0.10372306 0.015060038 11972263
0.4052543 -0.095216796 0.015162097 11180677
0.40428069 -0.085048512 0.015126989 11049863
0.4039996 -0.075057946 0.015114097 11053462
0.40385917 -0.065105125 0.015110316 10986391
0.40343615 -0.055121742 0.01509052 8555645
0.40288424 -0.045141675 0.015065729 10657939
0.40389237 -0.03485027 0.015106943 11448219
0.4057726 -0.025035597 0.015174842 11514269
0.40836233 -0.015606157 0.015147976 7567971
0.41000006 -0.010785117 0.012219159 11250069
0.40900001 -0.00944228 0.019131061 6184016
0.41127262 -0.0051134285 0.01485981 12368813
0.41433653 0.004992845 0.015013858 12434864
0.41754642 0.014802083 0.015596341 12300186
0.42007697 0.018820994 0.012235542 12297608
0.41887504 0.021341208 0.018489467 11837829
0.42108709 0.025609141 0.014968537 12827045
0.42318019 0.035309371 0.015329659 13421501
0.42461434 0.045182254 0.015507053 13618882
0.42722231 0.052963201 0.015682178 12106928
0.43017659 0.057156835 0.014168246 10725016
0.43162498 0.061398983 0.017032487 11579811
0.40742376 -0.10441804 0.024991771 9997190
0.40520993 -0.095205367 0.025119612 9471598
0.40499988 -0.085198916 0.025106696 9272938
0.40419975 -0.075096942 0.025057139 9605504
0.40393597 -0.065117486 0.025040107 9998472
0.40237641 -0.054938708 0.024992738 8226167
0.40057078 -0.044882797 0.025297899 10526096
0.40149596 -0.034878589 0.02518915 10590605
0.4037787 -0.025113603 0.025135657 9603197
0.40678829 -0.015001006 0.024857137 5525059
0.40865871 -0.0078237765 0.026066888 8290157
0.41099992 -0.0035453213 0.024271127 6973528
0.41333607 0.004906456 0.025055643 6907226
0.41637012 0.015246348 0.0248351 7103819
0.41808471 0.023229726 0.025543295 7625805
0.42041472 0.027934629 0.024200616 9075831
0.42105034 0.035129108 0.025114687 8487277
0.42162025 0.045048509 0.025146417 8488818
0.42535287 0.054644108 0.025419483 7240296
0.43012503 0.059170727 0.021754973 9609614
0.42875001 0.060863718 0.028084565 9017479
0.4308801 0.062277026 0.024712369 11581608
0.4065744 -0.1043677 0.035348415 14538697
0.40499985 -0.095154487 0.035061494 13944238
0.40459484 -0.085114919 0.035024218 13549225
0.40357247 -0.074981891 0.034934286 14670026
0.40170196 -0.065047361 0.034653347 14736074
0.39892861 -0.051902574 0.038338397 10857119
0.40056899 -0.055483934 0.034325853 11974313
0.39835376 -0.044236857 0.036120921 13946815
0.39999995 -0.046725467 0.032062557 12763570
0.39801046 -0.035573997 0.036414899 14473157
0.40004167 -0.033311177 0.031822905 14473673
0.39880008 -0.027878057 0.037979059 14013121
0.4009409 -0.024651634 0.03401766 14078916
0.40364447 -0.014981282 0.034936834 9275259
0.40690002 -0.0054645664 0.035561413 13618106
0.41050005 -0.0015003595 0.032077756 13289141
0.40841666 0.0011691699 0.038065437 13617594
0.41197938 0.0055403872 0.034609444 13354677
0.41402727 0.0151617 0.034866288 12496792
0.41650468 0.024963317 0.035121106 12101013
0.42000002 0.029632874 0.03046109 7230548
0.41753659 0.034489345 0.036309235 13552316
0.42019242 0.035851941 0.031382628 8682604
0.41812491 0.044205159 0.037195403 13618623
0.42051932 0.045364197 0.03263656 10856085
0.41900006 0.050553292 0.038431834 13291711
0.42211542 0.054520167 0.035058543 9805708
0.42737502 0.06191995 0.03618294 10265749
0.4056001 -0.10409466 0.045063484 14538695
0.40449977 -0.095038272 0.044959318 14207150
0.40348092 -0.085043117 0.045264669 13614503
0.40117145 -0.074844971 0.045169294 14538438
0.39876673 -0.061888147 0.046625767 14473160
0.40002474 -0.066031918 0.044241406 14735562
0.39749512 -0.054750927 0.044760309 11385513
0.40000001 -0.058708012 0.040559579 14604491
0.39621177 -0.045094769 0.04522993 13552317
0.39599994 -0.035192557 0.045286413 14341314
0.39720708 -0.025292281 0.044820283 14012863
0.40000004 -0.021524847 0.040832702 13683389
0.39864293 -0.017634515 0.047509182 8617077
0.40076348 -0.014019628 0.04418543 9275004
0.40361813 -0.0050613405 0.045329835 13683643
0.40675464 0.0046305754 0.045144059 13552057
0.41044447 0.0083543472 0.040870987 13420470
0.40847731 0.013499847 0.04746699 13353387
0.41140914 0.016041048 0.043536942 12825752
0.41310892 0.024756044 0.04499758 12957089
0.41445795 0.034902561 0.045103513 13815232
0.41621256 0.045043625 0.044771608 13749952
0.41777545 0.05255029 0.045524783 12305842
0.42122734 0.057064787 0.044714004 9874323
0.42529097 0.063225552 0.045445576 12370095
0.40466648 -0.103875 0.054885942 13877673
0.40388143 -0.094892353 0.054819442 13547668
0.40213478 -0.085126668 0.054951493 12954248
0.39900002 -0.071326822 0.056960028 13020043
0.4001416 -0.075652607 0.05487008 13548706
0.39757496 -0.064771563 0.055180307 13416603
0.40000001 -0.068415441 0.050922491 14406340
0.39575219 -0.054913484 0.054788195 10657154
0.39403275 -0.045141831 0.055233948 12364429
0.39405659 -0.034836486 0.055192385 13350808
0.39472529 -0.024847735 0.054994114 13547678
0.39643323 -0.015009996 0.055177674 8878179
0.40000001 -0.011263385 0.050860062 9802883
0.3981801 -0.0060769673 0.057381805 12626315
0.40050843 -0.0040796953 0.053327437 13551285
0.39900002 0.00059627672 0.059762217 12622716
0.40248394 0.0048028748 0.054757908 13089704
0.40610003 0.014874083 0.055112567 13022107
0.40817767 0.023546327 0.056818344 12954515
0.41091228 0.0262587 0.052835554 13221034
0.40900001 0.031250466 0.059345067 14207925
0.41174969 0.035197746 0.054712791 13815230
0.41315719 0.045039628 0.05505158 13815488
0.41557577 0.0547329 0.05539827 11385250
0.42040005 0.058792721 0.050960429 9413772
0.41875002 0.061159544 0.05904381 10069132
0.42151868 0.063073374 0.054540604 12173229
0.40413514 -0.10384133 0.06514252 13613467
0.40358156 -0.094823368 0.065173276 13283467
0.40193605 -0.085068583 0.064950615 12492924
0.39900002 -0.071233414 0.061443537 12295029
0.4001053 -0.075474069 0.065262355 13153176
0.3971594 -0.06489148 0.064986564 13021849
0.3943305 -0.054788925 0.064968355 10395012
0.3925454 -0.044903152 0.065225221 12497562
0.3916941 -0.034719702 0.065079629 13549221
0.3915163 -0.024656894 0.065012239 13417379
0.39316136 -0.01467381 0.064988039 8352856
0.39587501 -0.0052194903 0.065169349 12824981
0.39759085 0.0038970022 0.066178732 12825495
0.40036663 0.0075352625 0.062808223 12098676
0.39875001 0.010630969 0.069058999 13222835
0.40204287 0.01526811 0.064844638 12229749
0.40532461 0.025237426 0.064933673 12228463
0.40728286 0.034800682 0.064980015 12821120
0.41000003 0.038765457 0.060689941 12361857
0.40840039 0.044372275 0.067041151 12757123
0.41063631 0.045665178 0.062377442 12624510
0.40882349 0.052940283 0.068946019 12100746
0.41228709 0.055246733 0.064414307 10983281
0.41602001 0.062661693 0.065183073 11509630
0.4201667 0.065218739 0.06145655 13354678
0.4039627 -0.10384797 0.074877284 14275012
0.40308478 -0.094865188 0.075203717 14142389
0.4021562 -0.085036337 0.075253978 12955802
0.39900002 -0.070859782 0.072372109 13617081
0.40031162 -0.075471342 0.075041138 13683387
0.39742339 -0.064958014 0.075050384 13551803
0.39367601 -0.054733209 0.074997313 10922652
0.38900003 -0.040853515 0.079209507 14012352
0.39149961 -0.044894803 0.075025626 12631986
0.38883698 -0.034208033 0.075721838 13946817
0.39004001 -0.037602719 0.072225913 14078917
0.38860643 -0.025453914 0.075229324 13816000
0.39000002 -0.022698598 0.07028316 13816260
0.38881248 -0.016470555 0.077207528 9538690
0.3906984 -0.014490132 0.072860651 8748662
0.38900003 -0.0088287797 0.078905962 12170660
0.39204413 -0.005057618 0.074931517 13156787
0.39487195 0.0046527572 0.075027645 13420217
0.39730513 0.014122906 0.076020099 13287599
0.40033326 0.017625013 0.072456822 12760215
0.39885715 0.022139112 0.07908231 12689802
0.40182883 0.025317822 0.074824534 13022877
0.40358251 0.035105698 0.075235806 14078145
0.40554455 0.045136873 0.074898086 14078145
0.40704817 0.054699056 0.075318053 11843753
0.41071433 0.059196588 0.071131013 9602678
0.40872219 0.061635748 0.077696696 10398615
0.41120005 0.063056558 0.074160799 11907488
0.40338948 -0.10374805 0.08497034 14077891
0.40257153 -0.095096953 0.084878996 13879989
0.40152517 -0.084982686 0.084998138 12823960
0.39900005 -0.071171142 0.086227432 13683132
0.40030113 -0.075859122 0.084956497 13617852
0.39697385 -0.06513077 0.084916718 13683133
0.39343861 -0.054924008 0.085057013 11250336
0.38899997 -0.041391633 0.08541853 13552060
0.39122725 -0.046107937 0.084970191 11384485
0.38808823 -0.035354972 0.085046582 13486267
0.3862735 -0.025096154 0.085272714 11709856
0.38704735 -0.015204351 0.08497528 8156524
0.38817969 -0.0057132994 0.08546067 12565420
0.39020002 -0.0023088898 0.081341341 13288630
0.38884851 0.0023333232 0.087867171 13026227
0.39166319 0.0055284319 0.083928183 13223094
0.39400792 0.014784172 0.085093729 13090474
0.39669397 0.024853084 0.085281581 12759447
0.40000001 0.028409068 0.080887519 14208700
0.39841315 0.034092084 0.087572157 14012609
0.40037134 0.035506777 0.083277345 14012865
0.39871433 0.04213237 0.088854231 14078145
0.40162414 0.045236256 0.084608719 14144195
0.40393949 0.05491728 0.085032567 11975084
0.40738484 0.062989883 0.084794812 11514021
0.41000003 0.065880299 0.081086054 12500657
0.40289471 -0.10358407 0.095181093 11119778
0.40228945 -0.094987482 0.095097966 11185305
0.40155503 -0.084946938 0.094926082 10589821
0.3985143 -0.071947172 0.096045129 10329751
0.4003194 -0.076731876 0.094647571 11184802
0.39604494 -0.065246254 0.095055737 10399135
0.39250815 -0.054966524 0.094917141 8951946
0.38846669 -0.043454621 0.095879443 9805716
0.39071438 -0.04750324 0.09364666 8885897
0.38602364 -0.035092063 0.094946802 8489086
0.37899998 -0.022502003 0.099354416 2304548
0.38192314 -0.025114832 0.094788387 2304547
0.37900001 -0.018065773 0.099354416 2370341
0.38226134 -0.015071388 0.094728954 2764585
0.38539517 -0.0053717219 0.09484084 8555390
0.38751572 0.0047157491 0.09493205 9608843
0.39000002 0.0092562987 0.090369098 12960434
0.38876599 0.012422848 0.097091712 8752768
0.3913132 0.016089505 0.093781613 11315091
0.39337701 0.024959976 0.094875045 10590337
0.39593381 0.034977589 0.094940633 11515045
0.39767259 0.044644788 0.095172398 11778475
0.40000004 0.048822738 0.091749839 14012868
0.3988637 0.052037444 0.09815225 9807000
0.40068102 0.055524718 0.094167873 10727326
0.40360603 0.062851787 0.094930805 11186077
0.40276814 -0.10354774 0.10503948 11317667
0.40196431 -0.094920419 0.10497554 11512985
0.4010182 -0.084969796 0.10522409 11181696
0.39731583 -0.073404506 0.10554834 12630961
0.40005389 -0.078159764 0.10383556 11381407
0.39345202 -0.064813592 0.10484225 12369328
0.38877192 -0.053029303 0.10611423 9935763
0.39090326 -0.057024956 0.10359244 10923423
0.3866047 -0.045135457 0.1049628 11251876
0.37900001 -0.030043593 0.10778326 2433565
0.38350749 -0.034997448 0.10483412 10130826
0.37678021 -0.024291974 0.10518406 2239012
0.38040003 -0.028641105 0.10185808 2436133
0.3769826 -0.015690295 0.10529082 2435620
0.38060874 -0.011420476 0.10310557 3354923
0.38370416 -0.0052570365 0.10487025 10395279
0.38537005 0.0045819241 0.10500777 10857112
0.3881948 0.014276869 0.10526109 11249815
0.39000005 0.01880127 0.10215506 8551008
0.38900003 0.020160437 0.10926116 11575424
0.3915115 0.024864387 0.10480236 10195572
0.39432544 0.035251264 0.10495926 10593943
0.3962726 0.045123056 0.1048078 10331284
0.39801097 0.053949088 0.10556512 9542283
0.40000004 0.058139987 0.10261216 6583139
0.4003332 0.061281808 0.10465762 5594439
0.40429235 -0.10306222 0.11475335 12499628
0.40255564 -0.094854973 0.11491763 12630441
0.40053567 -0.084850617 0.11454705 12034955
0.39704436 -0.074371792 0.114515 12104615
0.40000001 -0.079465047 0.1118826 13550518
0.39299047 -0.064852022 0.11499089 10723476
0.38889742 -0.05314552 0.11282767 8817537
0.39075005 -0.057029657 0.11564871 9606282
0.38676244 -0.045119058 0.1136698 10592919
0.37742862 -0.030992551 0.11376328 3684400
0.38314763 -0.036056556 0.11329226 11314333
0.37437627 -0.025123864 0.11368042 2173218
0.37478012 -0.015047205 0.11386807 2698791
0.37866667 -0.0096284626 0.1161091 7958632
0.38271126 -0.0051425989 0.1139582 10526608
0.38476273 0.003733767 0.1131978 11184281
0.38814461 0.014768295 0.11358581 11052690
0.38899997 0.020666359 0.11396621 10524276
0.3909719 0.025811115 0.11355306 11248774
0.39361611 0.035214942 0.11417079 12236456
0.39591575 0.044931486 0.11423944 12235688
0.39792314 0.05439315 0.11321377 10921116
0.40400001 -0.095864922 0.12009471 8816248
0.39633337 -0.073175915 0.12028858 8356214
0.39600003 0.039064083 0.12049773 7828845
0.36500001 -0.030926788 0.13711216 1975068
0.36445162 -0.025950994 0.13788769 2107167
0.36410525 -0.015851868 0.13932467 2698275
0.36424994 -0.031006083 0.14452127 1186067
0.36383989 -0.024891857 0.14454785 1251858
0.36385572 -0.015949899 0.14512672 1907734
0.36524445 -0.032293189 0.15714911 2698021
0.37 -0.030196331 0.15502891 1251860
0.36578745 -0.024846105 0.15636046 659465
0.37052938 -0.027637431 0.15540424 791308
0.36441466 -0.015364681 0.1551879 2169106
0.36261114 -0.032390915 0.16359481 2238238
0.36300558 -0.024949171 0.16525933 1186064
0.36424628 -0.01612933 0.16549711 1381902
0.34712115 -0.033350497 0.17917544 1712409
0.35584605 -0.032627221 0.1776848 988686
0.36189744 -0.032275077 0.17274408 1448981
0.34737998 -0.02490088 0.17932953 1449238
0.35586336 -0.025001131 0.17684403 988688
0.36052734 -0.024866523 0.17202048 1581080
0.34854546 -0.017835896 0.17956609 1383446
0.35583943 -0.017058015 0.17807947 856847
0.36077559 -0.016411539 0.17305146 1054480
0.34258956 -0.033464171 0.18481039 1580567
0.34248981 -0.024984648 0.18465246 1514774
0.34353122 -0.016718909 0.18498038 1383189
0.35650003 -0.011985831 0.18045825 1052942
0.33900002 -0.031067533 0.19158363 1580053
0.34000006 -0.033284996 0.1910117 1515030
0.33900008 -0.024668304 0.19150804 1514260
0.34000003 -0.025246438 0.19055688 1514260
0.33900002 -0.018804448 0.19177258 1514260
0.34000003 -0.017275006 0.19096982 1645847
0.81150007 0.0050116153 0.26972592 2304803
0.82000005 -0.0016540212 0.27831003 4472635
0.80900002 0.0097314678 0.27078882 2041889
0.81552941 0.0050905184 0.27443737 2699047
0.82000005 0.0012254309 0.27831003 3947574
0.81192309 0.015321146 0.27703238 2041630
0.81050003 0.022081995 0.27793238 725514
0.82141685 -0.0032591105 0.28408095 5527378
0.81622225 0.0085437903 0.28764126 2172703
0.82092857 0.0024609531 0.28507584 3093037
0.8140741 0.015296064 0.28540304 1975068
0.81340009 0.022352617 0.28501967 922380
0.79020005 0.089049838 0.28484565 10066574
0.79128003 0.09473072 0.28523648 10198160
0.81511116 0.0064066015 0.29191363 2303776
0.82000005 0.0012254309 0.29174748 3685431
0.80744451 0.016013997 0.29861942 2238241
0.81221056 0.014873752 0.29377738 2238240
0.81320012 0.022727821 0.29199308 921354
0.79561114 0.095561594 0.29486966 10198159
