# .PCD v0.7 - Point Cloud Data file format
VERSION 0.7
FIELDS x y z rgb
SIZE 4 4 4 4
TYPE F F F U
COUNT 1 1 1 1
WIDTH 387
HEIGHT 1
VIEWPOINT 0 0 0 1 0 0 0
POINTS 387
DATA ascii
0.46500006 -0.021838561 -0.020921605 13224384
0.46313044 -0.014562874 -0.021516034 13816776
0.46071795 -0.0042752288 -0.022616912 11843759
0.45838231 0.0067109033 -0.022304442 7897206
0.46042314 0.0027183169 -0.024232047 7368551
0.45746294 0.015141968 -0.023051469 11514790
0.45738089 0.022071676 -0.022511259 11184286
0.47500002 -0.05099738 -0.010585291 15131866
0.47355178 -0.045230307 -0.011986405 14474192
0.46869227 -0.032343403 -0.013484446 12033659
0.47023824 -0.037067194 -0.013493789 13878702
0.46568567 -0.024525186 -0.014724224 11710881
0.45886675 -0.012026061 -0.012195571 13487041
0.46225753 -0.015661964 -0.01583044 11186342
0.45739701 -0.0047847442 -0.014356975 12960954
0.46007693 -0.0074735065 -0.018579282 11054755
0.44900003 0.0087646004 -0.010951891 10264471
0.45389414 0.0046890681 -0.015132261 9476495
0.44866675 0.015307385 -0.012356047 14407370
0.45221439 0.014540453 -0.017064147 14341834
0.44885001 0.022264384 -0.01199949 14078405
0.45196438 0.023083195 -0.016350431 12894646
0.47575003 -0.074700609 -0.0011372266 12699067
0.4770571 -0.064590536 -0.0020020413 9476749
0.48000002 -0.067940041 -0.0042916895 10726045
0.46900001 -0.050792377 -0.00089952594 12697269
0.47282463 -0.055043735 -0.0037532593 12435895
0.46704164 -0.044089317 -0.0025306591 13487040
0.4711026 -0.045548037 -0.0076019075 12369589
0.46478426 -0.034575343 -0.0048318314 13218964
0.47000003 -0.039457783 -0.0093735885 11843496
0.45849994 -0.023277845 -0.001947704 14537154
0.46223217 -0.025514605 -0.0066744196 13418413
0.45642868 -0.014561968 -0.0045456281 14604237
0.4605 -0.018537231 -0.0090048397 14407371
0.44881821 -0.002243096 -0.00097561307 14276044
0.45311394 -0.005564393 -0.0053309845 14407372
0.44687957 0.0054460866 -0.0040376182 9804947
0.45082355 0.0019446206 -0.0082159843 11054499
0.4439798 0.015115198 -0.0046256855 14078148
0.44349134 0.02325353 -0.0042437953 14341318
0.47200003 -0.090453871 0.0099233333 14868181
0.47173074 -0.083625793 0.0066400245 14144971
0.46899998 -0.07267794 0.0091283023 11446427
0.47204417 -0.075380623 0.004779736 12105388
0.46737143 -0.064530261 0.0080097262 11577758
0.47251174 -0.065548204 0.0032395939 9671303
0.46593851 -0.054656118 0.0061951564 15657180
0.47057146 -0.057133455 0.0019452081 14276555
0.45900002 -0.041972794 0.0094351154 15656407
0.46324313 -0.045356899 0.0051878486 15525079
0.45819041 -0.034152627 0.0072553088 14861993
0.46097368 -0.036572885 0.0033568435 15127741
0.45508036 -0.025061909 0.0051868707 14337195
0.44880775 -0.012786676 0.0077782972 14735564
0.45193106 -0.015743997 0.0042793984 14801359
0.44615069 -0.0048996387 0.0055070631 14405827
0.45033336 -0.0086395806 0.0017362107 14735824
0.43802783 0.0065757176 0.0071559632 9471598
0.44188893 0.0035684351 0.0037677723 10921108
0.4363412 0.015149575 0.0053053414 12430227
0.44 0.011679061 0.001216191 12302762
0.43652427 0.024854846 0.0052277967 12760220
0.43433335 0.030982822 0.0087919803 11842985
0.46450001 -0.090103976 0.019007992 14274762
0.47066668 -0.090198345 0.012098198 14735824
0.46630514 -0.084755264 0.016418401 15920609
0.47011125 -0.085996017 0.01183993 15986402
0.46517497 -0.075168967 0.015168898 13946820
0.45900008 -0.063053064 0.019027714 11775136
0.46298614 -0.065229304 0.014631788 10656912
0.45746663 -0.054044407 0.016657846 15590873
0.46154547 -0.055941075 0.012484241 15590873
0.45504761 -0.044724099 0.015258275 15525078
0.46000001 -0.048848502 0.010747913 15919838
0.44875002 -0.033630736 0.019151622 13610631
0.45313707 -0.035326451 0.014413559 15193018
0.44722214 -0.024286704 0.016474396 13742735
0.45140746 -0.026863059 0.012188979 13940113
0.43885714 -0.011159278 0.018912999 13944245
0.44474196 -0.015233939 0.014754917 13811366
0.43684903 -0.0041263937 0.01658728 13747122
0.44181082 -0.0062628002 0.012388396 13217942
0.42814288 0.0081560016 0.019166315 8885642
0.43401033 0.0045286622 0.014469284 10724246
0.4267869 0.015285818 0.017239327 12895416
0.43145657 0.013926012 0.012207097 12105901
0.42666224 0.024449641 0.016738726 14209990
0.43093958 0.024962749 0.011472672 14078147
0.427625 0.031422272 0.016621089 11645607
0.43150005 0.031117685 0.010922045 11777193
0.44900003 -0.083418369 0.029411005 14928818
0.45481256 -0.083652638 0.025519187 15589069
0.46110001 -0.085667796 0.021296725 15985889
0.449 -0.075130716 0.02916844 14008230
0.45496061 -0.074837402 0.024571884 14273466
0.46000001 -0.077923946 0.020439727 15525595
0.44900003 -0.064603366 0.029305894 9995370
0.45468304 -0.065185457 0.024433743 9864817
0.44835001 -0.053831149 0.027319569 14467750
0.4525193 -0.055798624 0.022911953 15128512
0.44687343 -0.044604909 0.025631608 14534059
0.45081824 -0.047538593 0.020702552 15457736
0.43900001 -0.03120286 0.029783679 13676688
0.44458911 -0.035211943 0.025265675 14468005
0.43757147 -0.023812896 0.027707653 14074281
0.44226792 -0.02592795 0.02349166 13478788
0.42790002 -0.011882991 0.028928768 14604237
0.43484408 -0.014908941 0.024874995 14670029
0.44044447 -0.017959906 0.021174392 14009779
0.42554688 -0.0047546285 0.027026525 14275787
0.43160465 -0.0059959479 0.022275332 14407373
0.41855559 0.0079738256 0.029049523 9016712
0.42369711 0.0047311247 0.02487191 11054756
0.43016672 0.0013137498 0.020456681 13816265
0.41790318 0.015693091 0.028256251 12500914
0.42202735 0.014980713 0.023577061 12303281
0.41811121 0.023193551 0.028528797 14276039
0.42244735 0.025487356 0.024344817 14341320
0.42400002 0.031692538 0.024788009 11710886
0.43566662 -0.084350638 0.037481103 15525853
0.44358534 -0.083538122 0.032617532 15129806
0.43556249 -0.075012714 0.037721705 14539215
0.44355193 -0.074954487 0.032660913 14340804
0.43629983 -0.065121673 0.037764844 9669762
0.44431037 -0.065041929 0.032751411 9735035
0.43551853 -0.054859843 0.03735574 15525594
0.44308329 -0.055135369 0.032301348 15656406
0.4347465 -0.04463939 0.03640585 15525336
0.44217858 -0.046110936 0.031327773 15525078
0.42900002 -0.030994238 0.039148204 13479559
0.434302 -0.034936801 0.035037454 15194308
0.44000003 -0.038999297 0.030881573 15590873
0.42685002 -0.024122354 0.038049076 13810592
0.43274194 -0.02558263 0.033321504 13874837
0.41833338 -0.011781055 0.038827579 12170156
0.42411235 -0.015184824 0.035119966 14538445
0.43030006 -0.018295197 0.031207407 14538444
0.41625005 -0.0043903203 0.037003309 10920344
0.42169571 -0.0064779003 0.032769762 14275529
0.41459143 0.0050231982 0.03494655 8685693
0.42000002 0.00013604594 0.03046109 14078665
0.41345453 0.015136125 0.034811534 8290676
0.41471833 0.024896793 0.034920324 9802888
0.41621953 0.032076236 0.036172725 10526354
0.41772228 -0.083257347 0.048928577 9867658
0.42364067 -0.084513791 0.044858221 14209480
0.43042108 -0.084766343 0.040815316 15525339
0.417 -0.075031936 0.048789896 9801863
0.42336226 -0.075053655 0.044610985 12828597
0.43040004 -0.074923918 0.040786855 14473678
0.41706455 -0.064964548 0.048828632 5656905
0.4237501 -0.065108865 0.044580474 8288367
0.43070006 -0.06489291 0.040814932 9669762
0.41768181 -0.055464529 0.049225628 9801350
0.42387518 -0.054959815 0.045166079 13223098
0.43035001 -0.054769415 0.040782172 15459800
0.4182778 -0.045504741 0.049484152 10063751
0.42353022 -0.044861831 0.045022372 13222584
0.42999998 -0.045469146 0.040478393 15656666
0.41800004 -0.034494605 0.04890728 9668722
0.42425016 -0.035024889 0.04394852 13286571
0.43000001 -0.037609626 0.040246092 15459029
0.41666049 -0.024180263 0.04751331 9731683
0.42258626 -0.025692098 0.042905737 11704441
0.40869999 -0.012114884 0.049255062 14538442
0.41458341 -0.014721151 0.044935226 10656658
0.42045459 -0.018297408 0.041231241 11709605
0.40754402 -0.0043903426 0.047145307 14209990
0.41184908 -0.0059630917 0.042763639 10459536
0.40656438 0.0051445803 0.04553391 11514792
0.41060004 0.0036387923 0.040929027 8553334
0.40675479 0.014783481 0.044904083 10988190
0.41000003 0.017889429 0.040293816 11381663
0.40750027 0.024358863 0.046278108 13947074
0.41109091 0.026061356 0.041857645 13355193
0.40876919 0.031932615 0.048343007 11381922
0.41290006 0.031790752 0.042509347 11381921
0.40554827 -0.083842568 0.056737136 15262680
0.41283333 -0.083335824 0.051841926 12828340
0.40610459 -0.074860126 0.056606017 14472652
0.4123095 -0.074923277 0.051663257 13289147
0.40684015 -0.064987406 0.056942381 8945783
0.41250008 -0.064873643 0.052045122 8552306
0.40657541 -0.054941837 0.057120912 15394006
0.41311547 -0.05495159 0.052236833 14472905
0.40680352 -0.0453909 0.057614751 15394005
0.41384375 -0.044748273 0.052969262 14275524
0.40746161 -0.035125006 0.058274563 15063494
0.41389042 -0.035133239 0.053328533 14142903
0.40652248 -0.02458542 0.057102554 13611665
0.41227272 -0.025700739 0.052357841 13677457
0.39866671 -0.011226363 0.059400935 14341576
0.4043082 -0.014994529 0.055166792 14472907
0.41100001 -0.018340778 0.050398074 14538699
0.39812908 -0.0044417633 0.058578089 14078149
0.4023138 -0.0052616741 0.053742863 14275272
0.39795926 0.0048821284 0.05796887 12040109
0.40149423 0.0047735027 0.052881401 11778220
0.39818189 0.014085629 0.058536988 9869711
0.40165672 0.015499334 0.053626638 11054238
0.39900002 0.020678699 0.059762217 14143940
0.40329814 0.025066558 0.054934409 13749439
0.40809095 0.032093473 0.053216543 11381665
0.39618415 -0.08425694 0.066603921 15328472
0.40072727 -0.083731703 0.061497059 15328473
0.39731258 -0.075687058 0.067397274 14474190
0.40133801 -0.07442189 0.062806606 14407114
0.39850003 -0.065173626 0.069266774 8160881
0.40186137 -0.065080106 0.064176723 8420461
0.39765516 -0.054379493 0.06756676 14670798
0.40139693 -0.055532839 0.062879592 15262420
0.39683333 -0.045070723 0.066928692 14934482
0.40173212 -0.044925772 0.062097985 15394261
0.39635593 -0.03519173 0.067522801 14603717
0.40231335 -0.034899179 0.062739186 14997958
0.39677343 -0.024592377 0.066989221 13021070
0.40134552 -0.02539305 0.062227461 13545100
0.3955 -0.014666047 0.065356649 13158588
0.40037501 -0.018616598 0.060904864 14472905
0.39412889 -0.0051104566 0.065134861 12041134
0.39416683 0.0047413087 0.065023564 10593180
0.39498481 0.014892493 0.065120354 8687491
0.39716297 0.024566915 0.066070534 11186081
0.40030769 0.02691091 0.06165117 13091765
0.39758334 0.031152541 0.0676127 11250847
0.4005 0.030132215 0.063267827 11185055
0.38783017 -0.083983541 0.076910235 11449252
0.39153332 -0.083321057 0.072327442 12436917
0.38850001 -0.077716522 0.07869333 12303279
0.39293391 -0.07467138 0.074328326 11451562
0.39470777 -0.065147355 0.07519865 6319963
0.39460325 -0.054995582 0.075141795 10793377
0.39271963 -0.044925988 0.074901208 11119522
0.38899997 -0.03437179 0.078834534 13879483
0.39181975 -0.034836508 0.073949695 11117464
0.38876089 -0.024823472 0.078368507 11835766
0.39187771 -0.024948591 0.073111996 10128746
0.38856465 -0.014839091 0.077798665 13289143
0.3911292 -0.015454556 0.072905242 10264981
0.38804552 -0.005243564 0.076729052 12763570
0.39054555 -0.0055259359 0.071772344 9477519
0.3884103 0.0043703495 0.077186704 12171180
0.39077795 0.0051418641 0.07226748 9145991
0.38867858 0.01422974 0.078070365 8819846
0.39130268 0.015123494 0.073165439 8359039
0.38900003 0.020463988 0.078905955 13683902
0.39357382 0.024710208 0.074640304 11580069
0.398 0.031142393 0.07358966 11185055
0.37879997 -0.084475286 0.088955946 15327958
0.38289285 -0.082892813 0.084450305 15065300
0.38480136 -0.075076699 0.085070387 14473420
0.39019999 -0.070940815 0.080732524 13291200
0.38664013 -0.065627255 0.086592764 9076344
0.39117393 -0.064152554 0.081919305 7306088
0.38798654 -0.055242766 0.087245941 14406856
0.39134929 -0.055135161 0.082258224 14210504
0.3880198 -0.044726599 0.08601933 14670028
0.39042309 -0.046909988 0.081712991 14670541
0.38730305 -0.035237096 0.08474791 14142912
0.38608247 -0.025231937 0.085212961 10783853
0.38563639 -0.015222996 0.085285366 11972772
0.38474214 -0.0052799685 0.085091867 13157557
0.3858197 0.0046066041 0.084922574 11908520
0.38596046 0.014682558 0.085056767 9409673
0.38806251 0.0225551 0.085812695 13486522
0.39086282 0.026681138 0.083963476 12499887
0.39166668 0.031608101 0.089227386 11119263
0.3758598 -0.083314829 0.094951056 15065298
0.37743756 -0.075695701 0.096215673 14341834
0.38072088 -0.073747575 0.091554739 14341578
0.37850946 -0.066266939 0.098204717 9539969
0.38170862 -0.064331487 0.093463212 8812403
0.37900001 -0.059322707 0.099354416 6841165
0.3827464 -0.054977011 0.094897024 13749182
0.38384253 -0.045071743 0.095040776 14867405
0.38377002 -0.034838524 0.094886489 11774880
0.37844455 -0.023322532 0.097779796 2435877
0.38124993 -0.025670618 0.093428366 2567207
0.37844783 -0.016008986 0.097224399 2501413
0.38108212 -0.014198525 0.092954949 3224107
0.38201538 -0.005301944 0.095145494 12170405
0.38311183 0.0050470284 0.09489163 11447969
0.38269919 0.015211777 0.094900802 9541510
0.38585964 0.024800694 0.095058143 13288885
0.39000002 0.029159632 0.091464691 12105131
0.38872728 0.030901367 0.096774407 11118749
0.39072222 0.031735118 0.093125612 10987677
0.36866683 -0.083282396 0.10723653 13742992
0.37098211 -0.082632102 0.10309416 14403760
0.37319884 -0.075183772 0.10489009 13745571
0.37613767 -0.064994715 0.1050859 8813154
0.37825912 -0.055564072 0.10600396 11772034
0.38027591 -0.053044166 0.10192925 14077889
0.37889999 -0.04884012 0.1083753 12954249
0.38091615 -0.044515572 0.10463256 13417382
0.3786087 -0.031554181 0.10695736 5918785
0.38107783 -0.035605647 0.10432124 11313035
0.37663004 -0.024806319 0.10529247 2435619
0.38000003 -0.029233279 0.10050616 2698536
0.37677091 -0.014900575 0.10517812 3026467
0.38000003 -0.010551953 0.10050616 4472115
0.37855563 -0.0090345303 0.10706446 8877149
0.38080394 -0.004573694 0.1047501 10916983
0.37865219 0.0085623264 0.10781824 8091750
0.38095024 0.0043283333 0.10436685 10653556
0.37842524 0.015010187 0.10668585 8946793
0.3804782 0.015692186 0.10212231 9405799
0.37885714 0.021028679 0.10869242 12694685
0.3825306 0.02541868 0.10481185 12101516
0.38422224 0.031607252 0.1089188 10525837
0.3676112 -0.083375126 0.11498507 13813426
0.36845767 -0.077934079 0.1160925 13552314
0.37084541 -0.073330484 0.11425509 13419183
0.37343633 -0.065061823 0.11505169 8747368
0.37676916 -0.055093464 0.1150536 12826272
0.37797451 -0.045183301 0.11506052 14010031
0.38000008 -0.043096006 0.11066227 13216905
0.3778708 -0.035036977 0.11517694 9077363
0.38000005 -0.038129143 0.11058814 12953996
0.37338936 -0.025075367 0.11504409 2172963
0.37368268 -0.015072415 0.11523385 3093033
0.37830284 -0.0057789781 0.11584424 10788752
0.38006255 -0.0032686603 0.11203336 11445394
0.37723705 0.0052885003 0.11523195 10330775
0.38000008 0.0017539985 0.11088467 11182990
0.37583208 0.015079129 0.11523014 9804685
0.37716499 0.023836043 0.1156652 13683644
0.38077778 0.027625881 0.11269537 13552826
0.38304999 0.031421266 0.1139966 11052954
0.36800003 -0.083647676 0.1236617 11973541
0.36833334 -0.077428877 0.12373957 11447712
0.37051797 -0.072212346 0.12428398 11974056
0.37200007 -0.064734586 0.12498426 6842971
0.37469545 -0.055067781 0.12455112 13354938
0.3766309 -0.045273352 0.12420223 13683389
0.37644339 -0.035155304 0.12454226 7960429
0.38000003 -0.039018732 0.12986253 8880248
0.3688955 -0.023829227 0.12663396 1646360
0.37061211 -0.02626046 0.12331127 2041119
0.36893559 -0.017181676 0.12819846 1974552
0.37112042 -0.014723664 0.12397444 3026725
0.37726483 -0.0047070556 0.12460772 9079423
0.37636358 0.0047117779 0.12454534 8817022
0.37411126 0.014987106 0.12368774 8882815
0.37496161 0.02497587 0.12289469 12302764
0.37700003 0.030381445 0.12253325 12368301
0.37333336 -0.061056897 0.13020617 5394248
0.37400001 -0.058102317 0.13043867 9013119
0.37850001 -0.046395764 0.13023597 11118489
0.38249993 -0.042221799 0.13254948 9077625
0.36569232 -0.030764077 0.13568167 1909788
0.377 -0.034994192 0.13079178 6645083
0.38060004 -0.038368203 0.13149324 7828330
0.36497432 -0.024772245 0.13532594 1843995
0.3655313 -0.01577488 0.1349674 2698275
0.37800002 0.0033080988 0.13006394 10067087
0.36429995 -0.031095374 0.14420044 1317395
0.36348748 -0.024949282 0.14476019 1186321
0.36302814 -0.015853556 0.14501731 1842196
0.36405089 -0.032332908 0.15687737 2500900
0.37 -0.030412875 0.15481237 922898
0.36594713 -0.024934199 0.15579373 593929
0.36999997 -0.028227752 0.15534391 857102
0.36413023 -0.015449458 0.15511188 2300435
0.3611334 -0.032158747 0.16333885 1712152
0.36220208 -0.024800099 0.16506562 1317393
0.36387256 -0.016195947 0.16477846 1381645
0.34738711 -0.033360254 0.17934021 1712409
0.35642856 -0.032307558 0.17784356 857100
0.362077 -0.032377008 0.1733499 1448978
0.34736112 -0.025682576 0.17958103 1449237
0.35590097 -0.025051119 0.17740387 923150
0.36059013 -0.024391128 0.17238228 1646101
0.34900001 -0.017452782 0.1797276 1318164
0.35570332 -0.016922554 0.17783658 791310
0.36102563 -0.017132517 0.17237462 1251859
0.33900002 -0.035205618 0.18965632 2041374
0.34268168 -0.033309024 0.18495946 1580824
0.3428373 -0.024924709 0.18465203 1449237
0.34353608 -0.01688638 0.18483813 1317653
0.35340002 -0.012447898 0.18066101 1118731
0.33900008 -0.032754779 0.19133689 1515030
0.33999994 -0.032234225 0.19050522 1515030
0.33900002 -0.02925358 0.19124351 1383444
0.34000009 -0.024869028 0.19140126 1449237
0.34000003 -0.017699162 0.19124389 1448980
