# .PCD v0.7 - Point Cloud Data file format
VERSION 0.7
FIELDS x y z rgb
SIZE 4 4 4 4
TYPE F F F U
COUNT 1 1 1 1
WIDTH 396
HEIGHT 1
VIEWPOINT 0 0 0 1 0 0 0
POINTS 396
DATA ascii
0.56350005 -0.080615364 0.049110185 14869217
0.5649429 -0.074633129 0.047540642 15132644
0.56540632 -0.064879671 0.048154891 15395815
0.57040006 -0.067650452 0.045107197 15790058
0.5636 -0.055191968 0.047949661 15461608
0.55785716 -0.045530353 0.049601052 15132389
0.56205559 -0.045504466 0.047048327 15330278
0.55900002 -0.038423486 0.049702663 15329512
0.56239998 -0.034441248 0.047894228 15066851
0.56530774 -0.025113115 0.048271298 14803421
0.564125 -0.015005599 0.048832849 14540250
0.56300014 -0.0050319321 0.048556671 14211540
0.56233335 0.0016439861 0.04897264 14343127
0.54650003 0.018727247 0.04987061 13816530
0.5535 0.015073627 0.049213644 14014162
0.54500002 0.020590214 0.049733728 13750737
0.55000001 0.020779114 0.048902441 14145748
0.52900004 -0.08032456 0.053227253 14869218
0.54500002 -0.080202311 0.05228544 14342874
0.55300003 -0.0813796 0.051758349 14803425
0.56 -0.081098743 0.051102545 14869218
0.48620003 -0.072687492 0.059164602 14540253
0.49800003 -0.072119959 0.05943469 14474460
0.51800001 -0.073111758 0.059049193 14408667
0.52361757 -0.075578354 0.056321979 14408667
0.53376931 -0.075473316 0.053800043 14869218
0.54533339 -0.073437445 0.053594053 14803425
0.55420005 -0.073685847 0.051865824 14737632
0.56 -0.077165835 0.051102545 14737632
0.48700002 -0.06938687 0.059261952 14474460
0.49200001 -0.068947479 0.059870388 14342874
0.51712501 -0.064597048 0.059296004 14211288
0.52385718 -0.065305501 0.057303783 14342874
0.53541183 -0.06485606 0.054752618 14737632
0.54527277 -0.065160543 0.053469345 14671839
0.55400002 -0.064919703 0.051652141 14869218
0.51900005 -0.058151327 0.059510998 14277081
0.52344006 -0.055022288 0.058544893 14408667
0.53409523 -0.054838471 0.056175578 14606046
0.54418755 -0.055239279 0.054116439 14671839
0.55478269 -0.054819148 0.051975995 15000547
0.51880008 -0.043555148 0.059488066 14277081
0.523579 -0.045243446 0.058484443 14408667
0.53413045 -0.045112759 0.056238383 14540253
0.54404342 -0.044845518 0.053517576 14737375
0.55400002 -0.044867825 0.05115838 14803168
0.51900005 -0.038711518 0.059510995 14211288
0.52470005 -0.03459252 0.058191895 14606046
0.53462505 -0.034866743 0.055667508 14606046
0.5436666 -0.035279281 0.053607062 14671839
0.55477786 -0.03474113 0.051631339 14671839
0.51900005 -0.021701679 0.059510995 14737375
0.52463639 -0.025619036 0.058644891 14737375
0.53486967 -0.024864543 0.056261763 14474203
0.54443753 -0.024675895 0.054141596 14342874
0.5540626 -0.02511289 0.052503772 14145495
0.56 -0.025382519 0.051102545 14211031
0.51842862 -0.015265065 0.059445474 14474203
0.52650017 -0.01558802 0.058519244 14474460
0.53508335 -0.015223649 0.056495637 14145495
0.5442 -0.014771123 0.054074947 14211288
0.55531818 -0.015005667 0.051910415 14013909
0.51525009 -0.0046653519 0.059580225 14145238
0.52486664 -0.0053232624 0.058297142 14079702
0.53425008 -0.0054567046 0.056251321 14145495
0.54440004 -0.0052590347 0.054179814 14145495
0.55476475 -0.0048610638 0.052224692 13882323
0.56 -0.0057179704 0.051102545 13882323
0.50800002 0.0096784476 0.059438918 14013909
0.51507151 0.0049928497 0.059141964 13947860
0.52412504 0.0046187323 0.058025531 14079446
0.53422225 0.0047603128 0.055830058 14079702
0.54371434 0.0051787081 0.053432088 13816530
0.55464286 0.0040736087 0.051815629 13750737
0.56 0.0008368796 0.051102545 14013909
0.49529418 0.017552957 0.05896949 14079703
0.50508332 0.014158018 0.058699485 14145239
0.51450002 0.014793337 0.057442576 14013654
0.52500004 0.015056981 0.056168012 13882067
0.53462505 0.01430522 0.053995132 13882324
0.54415387 0.013798825 0.051514205 13882323
0.55199999 0.013099662 0.050372511 14013909
0.46620005 0.028743267 0.059349515 14013140
0.47000003 0.026558924 0.059393819 13947861
0.48500001 0.024568066 0.059018575 14079447
0.49400008 0.022807412 0.058661353 14079703
0.51440006 0.024483245 0.056575101 13684688
0.52600002 0.024181034 0.055690724 13750481
0.53377783 0.022734074 0.053007372 14079702
0.54066664 0.020847881 0.051025391 13750737
0.4375715 -0.075656913 0.068757184 15066340
0.44482356 -0.072556503 0.068520643 14803425
0.45507687 -0.074105896 0.067010179 14803678
0.46449998 -0.077047341 0.065761246 14540508
0.47535005 -0.075733177 0.063959509 14474460
0.48240626 -0.073104724 0.062192444 14408667
0.514 -0.072632134 0.060140952 14408667
0.4483636 -0.067599997 0.069063194 14803425
0.45363644 -0.064726569 0.067262627 14474715
0.46550003 -0.060870193 0.065904394 14145495
0.47900003 -0.062640309 0.065016538 14342874
0.48434621 -0.065407768 0.063226499 14277081
0.49133337 -0.061951179 0.06093948 14211288
0.505 -0.064858191 0.060270112 14277081
0.51583338 -0.06443838 0.06035547 14211288
0.45402637 -0.055119257 0.068530537 14211288
0.463375 -0.055581644 0.066688284 14211289
0.47490001 -0.054766923 0.06590233 14211289
0.48505723 -0.055447612 0.064211495 14145496
0.49453849 -0.054610088 0.06240236 14211289
0.5036 -0.053122185 0.061750166 14211288
0.5140667 -0.054308042 0.06070764 14277081
0.45578569 -0.04516862 0.068236202 14013910
0.46129999 -0.045421772 0.066069156 14079702
0.47400007 -0.047554072 0.066183366 14145496
0.48511112 -0.045830734 0.06546288 14474462
0.49500003 -0.044688419 0.064111829 14540253
0.50575 -0.043942422 0.062872417 14342874
0.5145455 -0.044675853 0.061295807 14277081
0.45535144 -0.035466153 0.068512425 13882324
0.46308339 -0.034619968 0.066739656 13882324
0.47259998 -0.032372084 0.066800684 13882323
0.48499998 -0.036462568 0.066537194 14211290
0.49482358 -0.035475794 0.064978912 14540253
0.50539994 -0.035925657 0.063626885 14671839
0.51503706 -0.034932919 0.061596494 14408410
0.44772407 -0.023854526 0.068466179 13684945
0.45338467 -0.026723525 0.067659982 13750738
0.46250004 -0.024757449 0.067107812 13684946
0.4764348 -0.024621485 0.066264212 13750738
0.48350003 -0.025390748 0.064572208 14277081
0.495 -0.025908068 0.064095788 14540253
0.50546163 -0.024049241 0.063507721 14605789
0.51317239 -0.02527176 0.061530508 14539996
0.43900001 -0.010134868 0.069864243 13553358
0.44700009 -0.015151029 0.06939061 13487567
0.45462966 -0.014902448 0.067812033 13487566
0.4660714 -0.014969331 0.066530585 13553360
0.47382355 -0.016940221 0.065485105 13750739
0.48299998 -0.014100345 0.065035626 14145496
0.49583328 -0.013256676 0.063749805 14277081
0.50486958 -0.015612582 0.062459778 14408410
0.51221436 -0.014994851 0.060529482 14342874
0.43568179 -0.0038979815 0.068546303 13882324
0.44560003 -0.0077818804 0.068510368 13619153
0.45566666 -0.0079101855 0.067298524 13421774
0.46436366 -0.006464662 0.066587172 13487567
0.47400007 -0.0037259196 0.065625034 13619153
0.48373333 -0.0048986599 0.064596653 14013654
0.49478266 -0.0056310017 0.062871538 14277081
0.50515389 -0.005290403 0.061194625 14539996
0.51225001 -0.0085268579 0.060234677 14013909
0.43389356 0.0043323627 0.06811931 13553360
0.44000003 0.0094129555 0.066933244 13355981
0.45500001 0.0097338511 0.066019572 13421517
0.46600002 0.0086319335 0.065670267 13421517
0.47208336 0.0044184467 0.063950442 13618896
0.48533335 0.0060253604 0.062275693 13882323
0.49641669 0.0052928957 0.062343474 14145238
0.50405002 0.0041111642 0.061333217 14276825
0.51000005 0.003149997 0.060866855 14277081
0.42900002 0.019220598 0.0692771 13619153
0.43425012 0.014879187 0.068490751 13487567
0.44635722 0.014695181 0.066476293 13816275
0.45556661 0.016145462 0.064566717 13553103
0.46418753 0.013999235 0.063683115 13684689
0.47393334 0.013614838 0.062846325 13816275
0.48388234 0.01462175 0.061809391 13816274
0.49139994 0.013383116 0.06060034 14013654
0.50300002 0.010760719 0.060031421 14079702
0.42814285 0.024120908 0.069567092 13553360
0.43397439 0.025174579 0.067780614 13684946
0.44466677 0.025869485 0.065506354 13882068
0.45525014 0.024569487 0.063858561 13684946
0.46342108 0.02595971 0.061126709 13882068
0.47250003 0.021720851 0.061369523 14079704
0.48560005 0.022209216 0.060678799 13750739
0.42700002 0.034766652 0.069165833 13487564
0.43367648 0.03310249 0.067037016 13421773
0.44422224 0.031575441 0.064564727 13750481
0.45533335 0.031056734 0.063578658 13816531
0.46333337 0.030882187 0.061443288 14013654
0.39650002 -0.080626152 0.079343781 14474203
0.40000001 -0.08040145 0.078640141 14671582
0.39720002 -0.079094663 0.079576209 15066340
0.40513644 -0.07472147 0.077596366 15066340
0.41365629 -0.073366433 0.074356787 15000548
0.42458823 -0.073355421 0.07300242 15000547
0.43324998 -0.074981928 0.071334414 14868705
0.44140005 -0.070948116 0.070659146 14803168
0.40414509 -0.064981386 0.077993408 15197670
0.41480857 -0.065193541 0.074807212 14803169
0.42387879 -0.064805165 0.072474599 14737631
0.4357143 -0.064628311 0.071378708 14869218
0.44440001 -0.065605879 0.070929408 14408667
0.4040646 -0.055201527 0.078116462 15132133
0.41393939 -0.054537125 0.075529583 14869218
0.42471802 -0.054393567 0.073370241 14605788
0.43395999 -0.05557014 0.071493648 14737631
0.44627789 -0.053888347 0.070845209 14277337
0.45000002 -0.050420225 0.070561372 14277081
0.40324512 -0.045002133 0.078378648 15000548
0.41445002 -0.045002744 0.076185025 14605789
0.42476752 -0.045186911 0.073742636 14474203
0.43456253 -0.044687238 0.07233306 14408667
0.44517651 -0.043997899 0.071821749 14342875
0.45163634 -0.045697011 0.070719644 14079703
0.40415099 -0.035052508 0.078447267 14737375
0.41475001 -0.03484052 0.076217517 14474203
0.42440009 -0.035586841 0.074609019 14408668
0.43487504 -0.035184611 0.073147424 14145496
0.44528577 -0.034939259 0.071303412 13948118
0.45000002 -0.039885644 0.070561372 14013911
0.39900002 -0.02789274 0.079377607 14145238
0.40425494 -0.025085947 0.078538388 14342618
0.41445455 -0.024532136 0.07641878 14079703
0.42455885 -0.025382055 0.074925482 14211289
0.43519351 -0.025068324 0.073392875 13750739
0.44277424 -0.025471393 0.071296088 13684945
0.40462515 -0.014772607 0.078203246 14013910
0.4142414 -0.014982661 0.075749561 13816532
0.42438889 -0.015150098 0.073851854 13684945
0.43359265 -0.015127758 0.07193169 13487567
0.4433077 -0.01702201 0.070706993 13421772
0.4053168 -0.0050858636 0.078251876 13553360
0.41469237 -0.0050936462 0.075248674 13553360
0.42463413 -0.0054398421 0.073098637 13553359
0.43181482 -0.0052886871 0.070851974 13750738
0.40522736 0.0052225846 0.078090034 13882323
0.41441676 0.0048234928 0.074634217 13750738
0.42416009 0.0041870736 0.072621502 13750738
0.4306111 0.0045634867 0.070992738 13750739
0.40566683 0.014708029 0.078147367 14145495
0.41384318 0.01561332 0.074113876 14013910
0.42459461 0.014584274 0.071675703 13816532
0.43020001 0.012223685 0.070478 13553360
0.40677553 0.024871977 0.078140147 14737375
0.4133333 0.02503537 0.074155875 14211289
0.42357585 0.025439635 0.07122124 13684689
0.40775001 0.034259364 0.078729704 14671582
0.41380018 0.035043642 0.074780002 14342873
0.42171434 0.033982594 0.07110665 13882579
0.40833333 0.041395437 0.079003409 13289928
0.41133335 0.040736634 0.076370798 13684940
0.38830003 -0.081928089 0.087214656 15328995
0.39166677 -0.081780545 0.082853705 15197668
0.38754654 -0.074982718 0.087098047 15724266
0.39326394 -0.074872747 0.082049303 15592939
0.38817915 -0.06537021 0.087624729 15986925
0.39365911 -0.064953789 0.082448244 15790061
0.38823736 -0.055530403 0.087955497 15855339
0.39367691 -0.054744732 0.082861356 15724268
0.38865632 -0.045479331 0.088919565 15723755
0.39373034 -0.044794973 0.0836716 15724268
0.38866666 -0.034633227 0.088876516 13947089
0.3939907 -0.034902953 0.084063865 15395305
0.40000001 -0.036858514 0.080512948 15263719
0.38776916 -0.025642881 0.088662423 11117472
0.39426306 -0.024752561 0.083753407 14803425
0.40000001 -0.02047139 0.080512956 13684687
0.38809684 -0.015580859 0.089076728 10920352
0.39412817 -0.014793363 0.084418967 14408668
0.40000007 -0.014852945 0.080512948 14277081
0.38900003 -0.0094358837 0.08922673 13815760
0.39425421 -0.0052201329 0.08558882 13816530
0.40000007 -0.0042403326 0.08082509 13816787
0.39537176 0.0046601342 0.085719913 14079957
0.4001818 0.0048152804 0.08101777 14080215
0.39616662 0.014890827 0.085837238 14408667
0.40065381 0.015787499 0.081112228 14408667
0.39688754 0.024682151 0.087058172 14803166
0.40168518 0.025539005 0.082065977 14803423
0.39800006 0.033531014 0.088781007 14869214
0.40279633 0.035336498 0.084126465 14803167
0.39900002 0.040294088 0.089652337 13552584
0.40430188 0.042205188 0.084197037 13618891
0.38580558 -0.081337571 0.094435185 13881807
0.38444331 -0.074795097 0.09475822 15197409
0.38428679 -0.065023817 0.094910622 15592424
0.38480711 -0.054944269 0.095104553 15592424
0.38605601 -0.045067575 0.094869807 15328996
0.38628691 -0.035170618 0.094841614 12039604
0.37900001 -0.022058381 0.099354416 2501927
0.38193467 -0.02501218 0.094553441 2633259
0.37900001 -0.018065773 0.099354416 2502442
0.38245583 -0.015090606 0.094645061 3225397
0.38763401 -0.0056940606 0.095551208 12632510
0.39047366 -0.0028548664 0.091440395 13355979
0.38876921 0.0040465035 0.098186374 13355979
0.39140224 0.0052049081 0.093258835 13750734
0.388717 0.014840182 0.098329291 14211541
0.39181116 0.014711301 0.093167439 14211285
0.38872731 0.023704082 0.098870248 14672092
0.39222425 0.025126446 0.093990177 14737628
0.39426556 0.035014559 0.095007658 14672092
0.39687505 0.0418212 0.095068619 13487561
0.3842425 -0.081241101 0.10456403 13486534
0.37900001 -0.071300521 0.10911413 15460579
0.38192865 -0.07502915 0.10493553 14934237
0.37865633 -0.065944456 0.10887588 15723752
0.38116217 -0.064861909 0.10400045 15460838
0.38159269 -0.055140663 0.10485177 15460838
0.38249648 -0.044883065 0.10490229 15263459
0.37875 -0.030799529 0.10771099 2698027
0.38245374 -0.035184339 0.10454755 11579052
0.37736997 -0.024451932 0.10544261 2501928
0.38030005 -0.028366536 0.10147532 2699307
0.37770003 -0.015838251 0.10542218 2567980
0.38088891 -0.011533421 0.10314975 5727331
0.3841714 -0.0052195014 0.10522085 12238008
0.38517103 0.0047674826 0.10547767 13487565
0.38520122 0.014835181 0.1053571 14277078
0.38599253 0.025047354 0.10511103 14737628
0.3881 0.033147439 0.10632996 14540248
0.39146879 0.036830496 0.10333477 14342870
0.38900003 0.040194869 0.10926116 12040115
0.39402705 0.042114746 0.10337885 12764096
0.38124999 -0.080760837 0.11545223 13552583
0.37828794 -0.072791278 0.11505251 15000028
0.38061988 -0.077505261 0.11446285 14144977
0.3776041 -0.064842001 0.11475822 15131615
0.37825158 -0.055086631 0.11512322 14934236
0.38000008 -0.05252428 0.11069598 15461094
0.37877348 -0.046386939 0.1175137 14473942
0.38045865 -0.044105195 0.11338821 14868444
0.37807322 -0.03200081 0.1154504 5658709
0.38075331 -0.036723427 0.11485043 12105394
0.37411669 -0.024952952 0.11505461 2239013
0.37478921 -0.015021924 0.11526619 3225652
0.37865001 -0.0067892633 0.1173898 11316649
0.38077417 -0.0045052301 0.11422145 12434873
0.37813711 0.0054322989 0.11717023 13290185
0.38108322 0.0045343731 0.112821 13684944
0.37704441 0.015290938 0.11702764 13882323
0.38122028 0.015508379 0.11224635 14277079
0.37737709 0.023892324 0.11776631 14408667
0.3820689 0.025683774 0.11324026 14671835
0.37900001 0.030289123 0.11976107 14737632
0.38431439 0.034733634 0.11504929 14276822
0.38877779 0.040880192 0.11213075 10921631
0.39000002 0.041819859 0.11075937 10987679
0.38133335 -0.080518313 0.12228302 13750219
0.37790716 -0.0736183 0.12516536 14079696
0.38050005 -0.078078263 0.12264621 13947855
0.37704596 -0.065071627 0.12478093 14013903
0.37781858 -0.054964427 0.12459133 14144719
0.37826476 -0.045188282 0.12473598 13816269
0.38000003 -0.040797908 0.12683794 11842481
0.37720835 -0.033860255 0.12453912 7434605
0.38001841 -0.037636694 0.12466263 10987170
0.37144783 -0.025273459 0.12355877 1910050
0.3716915 -0.015303374 0.12349149 3028529
0.37847185 -0.0051027699 0.12369493 10987940
0.3772409 0.0050438284 0.12377857 12172216
0.38000003 0.0014574695 0.12897293 11647154
0.37454769 0.014606176 0.12319604 12500924
0.37485719 0.024542172 0.12194324 14145238
0.37866667 0.03055823 0.12142867 13816531
0.3830204 0.035830706 0.12284721 13422799
0.37800002 -0.073767111 0.13006394 12040113
0.37812501 -0.061840754 0.13032848 10592154
0.3786 -0.055364169 0.1303591 9671565
0.37814286 -0.046794187 0.1301131 9539979
0.38000003 -0.040797908 0.1307521 9144453
0.3806667 -0.039086405 0.13098149 8881281
0.38100001 0.0039884336 0.13109618 7764601
0.39000002 0.019299267 0.13464946 9671567
0.39299989 0.025161508 0.1353249 10000532
0.39495566 0.033312902 0.13485363 10921892
0.36600006 -0.03158351 0.14778364 1120529
0.36521301 -0.025185041 0.14785227 791307
0.36389375 -0.016195934 0.14764993 1316364
0.36436206 -0.032190122 0.15594676 1777433
0.36501312 -0.025189752 0.15525471 659979
0.36451319 -0.015719911 0.15520698 2103313
0.36163169 -0.032277253 0.16402642 1581081
0.36214891 -0.024847824 0.16497526 1186065
0.36444014 -0.016396921 0.16478495 1447952
0.34674415 -0.03314767 0.17837268 1712408
0.35612822 -0.031800102 0.1767761 988944
0.36147836 -0.032814875 0.17305203 1449495
0.34688538 -0.025045598 0.17872748 1515030
0.35565019 -0.024965726 0.17646644 1054480
0.36071894 -0.024461759 0.17226322 1712409
0.34753329 -0.016727384 0.1792949 1449235
0.3548508 -0.017165998 0.17759116 857102
0.3630878 -0.016641203 0.17440717 1120532
0.33897221 -0.033064771 0.18853849 1580824
0.34216511 -0.033497393 0.18338113 1581079
0.33900008 -0.025579484 0.18903907 1711639
0.34222129 -0.024904927 0.18405361 1580566
0.33900014 -0.016762927 0.18872468 1580056
0.34200007 -0.017122388 0.18415627 1448982
0.33865002 -0.033029996 0.19100593 1449496
0.33876315 -0.025140246 0.1911305 1514775
0.33900011 -0.017702218 0.19115536 1514519
