# .PCD v0.7 - Point Cloud Data file format
VERSION 0.7
FIELDS x y z rgb
SIZE 4 4 4 4
TYPE F F F U
COUNT 1 1 1 1
WIDTH 292
HEIGHT 1
VIEWPOINT 0 0 0 1 0 0 0
POINTS 292
DATA ascii
0.44400004 0.023010885 0.019728782 14277334
0.45700002 -0.070461757 0.029935032 14934235
0.45511115 -0.064849123 0.029811302 15263970
0.45395467 -0.05438995 0.028817648 14474454
0.44899997 -0.042389762 0.028079597 15000542
0.4519445 -0.047292516 0.028074801 14408661
0.44892508 -0.035061739 0.027829412 15000800
0.4482666 -0.025042327 0.027261728 14606041
0.44705448 -0.01479693 0.02690037 14672091
0.45050001 -0.017256618 0.024236118 14145746
0.44415945 -0.0046220329 0.02604552 14276820
0.43900004 0.008158314 0.029578138 14407893
0.44279608 0.0047133486 0.02522875 14079184
0.43715155 0.015456187 0.028197683 14407639
0.44250834 0.014933927 0.023800606 14342103
0.43579447 0.026107118 0.025721649 14670811
0.4410454 0.023042912 0.02217677 14671068
0.43538889 0.033114441 0.025469467 14079184
0.45607695 -0.081405595 0.037093725 15460581
0.46181822 -0.081424884 0.032900676 15658216
0.44872725 -0.073771663 0.039706811 15789546
0.4557429 -0.074594736 0.035264187 15657960
0.46084613 -0.078026138 0.031762119 15592421
0.44845 -0.064577103 0.039190043 15855339
0.45325014 -0.065066434 0.034383364 15724010
0.44712764 -0.054643199 0.037523109 15526887
0.45222721 -0.055291537 0.032794688 15592423
0.44595248 -0.04461202 0.035486575 15460838
0.4506667 -0.048268355 0.031395074 15395556
0.43785715 -0.032661185 0.039076071 14672092
0.44461924 -0.035283275 0.034238834 15132387
0.43679065 -0.024471654 0.037974671 14211287
0.4429673 -0.025239905 0.032952085 14474457
0.43632784 -0.014411623 0.036877699 14276824
0.44211379 -0.015147629 0.03177809 14474202
0.43508971 -0.0049129943 0.035953615 14408410
0.44121054 -0.0062744305 0.031018894 14540250
0.42640743 0.0064935517 0.038464222 14144981
0.43475309 0.0041862773 0.034253486 14210774
0.4239459 0.015369378 0.036690045 14276567
0.43243906 0.013935294 0.032124426 14342101
0.41850007 0.026015319 0.038761042 14539995
0.42363641 0.024725573 0.03448474 14605274
0.43000004 0.02616806 0.030179713 14605019
0.41833332 0.030820793 0.038827185 14079698
0.42390004 0.031795837 0.035795629 13816268
0.4317143 0.03378595 0.031406112 13683913
0.43900001 -0.080018938 0.049310111 15329765
0.44514275 -0.082550377 0.045741338 15460581
0.45000002 -0.081497237 0.040011089 15592167
0.43763161 -0.073597729 0.048074115 15263972
0.44365531 -0.07553298 0.043501481 15658217
0.45000002 -0.079917051 0.040011089 15789546
0.43621537 -0.064918578 0.046898838 15263972
0.442875 -0.065756351 0.041995786 15658730
0.42775005 -0.052434269 0.049547352 15395302
0.43454164 -0.055016216 0.046053465 15263972
0.44188899 -0.055029888 0.041394301 15263972
0.42683876 -0.044634465 0.04881135 15000800
0.43444291 -0.045028981 0.044482455 15066593
0.44078571 -0.045999855 0.040591586 15328995
0.42540812 -0.034700181 0.047736317 14408666
0.4334285 -0.035395958 0.042762283 14671581
0.41800001 -0.021951774 0.049606699 14211288
0.42453516 -0.025086988 0.046412885 14079701
0.43151507 -0.025238354 0.041701149 14079701
0.41733342 -0.014630138 0.048937485 14145238
0.4240298 -0.015227238 0.045082755 14145237
0.4307501 -0.015618545 0.04119749 14276824
0.41685724 -0.0047730831 0.048465278 14145237
0.42427626 -0.0054821209 0.043891083 14276824
0.43000004 -0.0059005413 0.040246096 14408153
0.41594124 0.0054587894 0.046983715 14079444
0.42233339 0.0043939869 0.04232474 14144981
0.40866664 0.016554618 0.049410582 14211031
0.41484985 0.015186536 0.044928733 14145238
0.42037502 0.012928074 0.040575441 14145238
0.40835488 0.02526469 0.048796792 14474459
0.41411707 0.024883062 0.043767761 14408665
0.40825 0.030954082 0.048961516 12829373
0.41374999 0.032900441 0.044753287 12961215
0.42800003 -0.081449851 0.059094727 15723752
0.43293336 -0.083382092 0.054927569 15197664
0.44000003 -0.085351452 0.050452482 15525859
0.42597869 -0.074572377 0.057835534 15724008
0.43267247 -0.075479217 0.053096078 15461092
0.41850001 -0.061097275 0.059743784 15329765
0.4243013 -0.064739257 0.056557596 15592423
0.43125713 -0.065803841 0.051870394 15592679
0.41639537 -0.053846654 0.058055423 15197922
0.42340848 -0.055484805 0.053466249 15395558
0.43000001 -0.05874902 0.050312471 15592937
0.40900001 -0.041517738 0.059345067 14671578
0.41464111 -0.044905908 0.056442395 14803421
0.42194456 -0.045276992 0.051699042 15132130
0.4077931 -0.033481132 0.058640793 14342870
0.41425005 -0.03513841 0.05441945 14540249
0.42088237 -0.035799399 0.050694052 14671579
0.406544 -0.024915975 0.057680208 14211284
0.41379428 -0.025124721 0.052793104 14079699
0.42000002 -0.028869165 0.05012564 14145491
0.40550604 -0.014832632 0.056745082 14211284
0.41284448 -0.015117588 0.051951397 14145238
0.40405017 -0.004978322 0.05622454 14145235
0.41217244 -0.0055913283 0.051118996 14079700
0.39900002 0.0085358396 0.059762221 13948112
0.40344822 0.0048686066 0.05525431 14079698
0.4110769 0.0038339447 0.050318547 14079443
0.39816669 0.015701229 0.05901508 14276307
0.40373361 0.014963778 0.054332834 14276052
0.39814296 0.023476271 0.058789402 14539479
0.40298995 0.025258722 0.054139324 14605272
0.40581712 0.033839948 0.055999693 13289924
0.41156003 0.037286207 0.052662186 12105648
0.40862498 0.041146994 0.058453154 11250591
0.41250002 0.040691756 0.053575471 11447456
0.41638005 -0.083968818 0.067604214 15394788
0.42418927 -0.083893374 0.062663876 15328995
0.42999998 -0.087102652 0.060714394 15197409
0.40900001 -0.071678244 0.069877304 15328995
0.41521007 -0.074745484 0.066341527 15526374
0.42157155 -0.075801447 0.061674219 15526374
0.40705717 -0.063856527 0.068452992 15197665
0.4145301 -0.065292217 0.064003021 15329252
0.42066669 -0.068634264 0.060380831 15527144
0.39800003 -0.050184242 0.069861419 15460581
0.40458539 -0.054607205 0.066543363 15000543
0.41253662 -0.056048121 0.061973292 15000543
0.39748487 -0.044087332 0.068528332 15132386
0.4041369 -0.045201398 0.064028725 15000800
0.41060004 -0.04869736 0.060730409 14934237
0.39627391 -0.034565978 0.067314424 14803421
0.40298438 -0.035515632 0.062206414 14606042
0.39586946 -0.024753612 0.066978768 14277077
0.40128565 -0.025311342 0.061883576 14277077
0.39576614 -0.014738536 0.066114478 14342613
0.4005312 -0.015313882 0.060986724 14342870
0.39517692 -0.0050951168 0.065748498 14144978
0.40000004 -0.005020672 0.060848407 14342100
0.39482316 0.004811564 0.0652055 13882062
0.40000001 0.00059777114 0.060848404 14145491
0.39373466 0.01487237 0.064950146 14145234
0.39396864 0.024898712 0.065124802 14539734
0.40000001 0.02915819 0.060848404 14736858
0.39681247 0.033475604 0.067479424 13750731
0.40149048 0.034680646 0.062791161 13684939
0.40780002 0.040992223 0.061271776 11184800
0.40000001 -0.09070193 0.079576544 15591401
0.39850003 -0.081032842 0.07951048 15526374
0.40326834 -0.084708683 0.075973921 15460581
0.41240755 -0.08525905 0.071207635 15197409
0.39629272 -0.074072756 0.078133516 15328995
0.40431061 -0.075257577 0.073866904 15394788
0.4105556 -0.077292018 0.070356369 15526374
0.39404759 -0.064704239 0.077071935 15394788
0.40294445 -0.065380484 0.07224191 15131616
0.38887501 -0.052106537 0.079069927 15657960
0.39433318 -0.054851942 0.075120188 15460581
0.40020004 -0.057707395 0.071121722 15197409
0.38855818 -0.045060303 0.078674152 15197409
0.39287618 -0.045027822 0.073559001 15263458
0.3880685 -0.034906834 0.077298827 14605529
0.39177424 -0.035377663 0.072269753 14671578
0.38821429 -0.025472056 0.076925375 13882319
0.39116678 -0.024407499 0.072055407 14211284
0.38844788 -0.01552251 0.077669643 14013904
0.39121336 -0.014931665 0.072825842 14211284
0.38881084 -0.0062447903 0.078555286 14145234
0.39138886 -0.0051367674 0.073847927 14144977
0.38838714 0.0055056536 0.077615835 13750476
0.391029 0.0040121409 0.073052704 13815756
0.38691553 0.015273364 0.076040715 14079442
0.39019993 0.013243116 0.071195699 13947599
0.38676304 0.02424342 0.075448789 14342614
0.39082348 0.027845217 0.071561188 14145233
0.38859999 0.030996257 0.078095667 13685195
0.39230782 0.034553833 0.074667335 13422022
0.39662862 -0.091847233 0.086135633 14736603
0.40000004 -0.091772102 0.08171691 15263203
0.38846156 -0.082734592 0.088542096 15460582
0.39431983 -0.085213877 0.084336035 15328739
0.40000001 -0.087892704 0.080512956 15328995
0.38747764 -0.074664839 0.087464064 15526374
0.39234775 -0.075326093 0.082613803 15328995
0.38628301 -0.06484969 0.086004436 15657959
0.39012495 -0.065897852 0.081112795 15460581
0.38540119 -0.05498106 0.085023433 15657958
0.39000002 -0.05876198 0.080326125 15460581
0.38443944 -0.044877127 0.085018247 15460580
0.3840152 -0.034935899 0.084925339 14539735
0.37899998 -0.02338925 0.089594714 3355441
0.3836939 -0.025073018 0.084936775 12829889
0.37900001 -0.019396642 0.089594714 4933701
0.38414273 -0.015262691 0.085101523 13092804
0.38533571 -0.0051938379 0.084999815 14079442
0.37900001 0.0088177742 0.089417264 13553354
0.38366431 0.0048587318 0.084990092 13816013
0.37769645 0.0160347 0.087814413 14079441
0.38213468 0.014583805 0.083121516 14079186
0.37797058 0.022401558 0.08755292 14539478
0.38241416 0.025948698 0.084102869 14013902
0.38734666 0.033475049 0.085455351 13684679
0.39088005 0.037389811 0.08222606 12434613
0.38823077 -0.090969197 0.09352053 13946832
0.39050001 -0.090833761 0.090484962 14472920
0.3844367 -0.084621496 0.094853744 15197154
0.39000002 -0.089347377 0.090369098 14736092
0.37861294 -0.073701523 0.098823115 15460838
0.38219643 -0.075289987 0.093973286 15526117
0.37822792 -0.064538017 0.097334482 15657959
0.38108963 -0.065509647 0.092455678 15592167
0.37788117 -0.055060834 0.097099148 15592422
0.38111672 -0.054968718 0.092100359 15657959
0.37823445 -0.044564486 0.097685434 15460580
0.38107911 -0.045034848 0.09248998 15460579
0.37854242 -0.034858692 0.097926155 12237752
0.3807413 -0.035215076 0.093160719 13223619
0.37684754 -0.024820913 0.094960488 2436391
0.38050002 -0.029271742 0.090394102 3223344
0.37708995 -0.015111568 0.095236726 3158830
0.38062504 -0.012406715 0.090813585 5921113
0.37861016 -0.0048811492 0.097794034 12566457
0.38091341 -0.0053912438 0.093016051 13289668
0.37699232 0.0053902199 0.095364392 13289925
0.38068426 0.0017175442 0.091258235 13552840
0.37418675 0.014996173 0.094929248 13026753
0.37518039 0.022489229 0.095239133 13619145
0.38155261 0.028308773 0.094520353 13553351
0.3838602 0.033781212 0.095256917 13487557
0.38200003 -0.090197422 0.10505934 14275541
0.37814525 -0.083305739 0.10676643 14868699
0.38084996 -0.086331233 0.10343327 14473686
0.3770459 -0.075110741 0.10504738 15065821
0.37600818 -0.06509275 0.10467606 14934491
0.3752338 -0.054660019 0.10449419 15065820
0.3765257 -0.045191914 0.10528024 14934236
0.37753248 -0.035195824 0.10519696 11118499
0.37402084 -0.024974747 0.10477401 2370341
0.37412429 -0.015103714 0.10501993 2961964
0.37774968 -0.0052269581 0.10508619 11316134
0.3749862 0.00496156 0.10506389 12434358
0.37215024 0.014954911 0.10499858 13026494
0.37508118 0.02400125 0.10513508 13422020
0.38040006 0.029035725 0.10316319 13355971
0.38184401 0.034267984 0.10476359 12829629
0.37764111 -0.083978087 0.11210174 14013390
0.38261116 -0.081679039 0.11747231 11710376
0.37727779 -0.075732373 0.1112695 14277076
0.38464868 -0.074718006 0.11729433 11579303
0.37762505 -0.063640565 0.11059664 15395042
0.38367343 -0.065584667 0.11609332 12368050
0.3744902 -0.053877167 0.11250743 13026751
0.38150001 -0.059266884 0.1147465 13421509
0.37557706 -0.045328043 0.11297569 13289665
0.38118184 -0.041005872 0.11785581 10394518
0.37733829 -0.03428309 0.11336158 9144708
0.38112491 -0.036848463 0.11717255 10460054
0.37156728 -0.025270056 0.11380449 2172963
0.37175897 -0.015009059 0.1137854 3159086
0.37563053 -0.0053108586 0.1139219 10132373
0.37328863 0.0047156145 0.11367076 10855840
0.37062046 0.014724447 0.11293906 11447977
0.37070003 0.021960992 0.1120749 13290183
0.38125002 0.032812882 0.11098889 9342856
0.3865 -0.080854133 0.12032141 12501175
0.38742858 -0.076454557 0.12061049 11909295
0.38800001 -0.063910529 0.12078837 10460565
0.38300002 -0.03798186 0.12012843 8354422
0.36362502 -0.030953083 0.14767693 857357
0.36267355 -0.02473243 0.14738604 659721
0.36260873 -0.015918415 0.1477259 1380619
0.36421314 -0.032545093 0.15638509 3290670
0.36535546 -0.025951726 0.15655828 594185
0.36389434 -0.01494559 0.15516774 2497557
0.36285195 -0.032583624 0.16369332 1778202
0.3635782 -0.024876161 0.16528159 1120528
0.36415836 -0.015921326 0.16521819 1316367
0.34841669 -0.032919493 0.17833942 1777945
0.35578951 -0.031138944 0.17856246 922893
0.36269346 -0.032783367 0.17447093 1185553
0.34900001 -0.028482487 0.1789106 1645846
0.35537198 -0.024931459 0.17804536 857101
0.36103129 -0.02495943 0.17310143 1383446
0.35523188 -0.016915094 0.17883407 856847
0.36082461 -0.016865402 0.17413737 1054482
0.34193832 -0.033163808 0.18678522 1515030
0.34250778 -0.025060004 0.18714944 1383701
0.34248817 -0.016743638 0.18710598 1317653
0.33900002 -0.032339823 0.19141987 1251858
0.33999997 -0.031898268 0.19078431 1449237
0.34010419 -0.024969451 0.19146799 1383444
0.34000003 -0.017559871 0.1912027 1448726
