# .PCD v0.7 - Point Cloud Data file format
VERSION 0.7
FIELDS x y z rgb
SIZE 4 4 4 4
TYPE F F F U
COUNT 1 1 1 1
WIDTH 288
HEIGHT 1
VIEWPOINT 0 0 0 1 0 0 0
POINTS 288
DATA ascii
0.45610005 -0.033381492 0.029555593 12829115
0.45465529 -0.024040209 0.028642258 14539992
0.44634789 -0.013219681 0.028011503 14671835
0.451875 -0.017971059 0.027481876 14935007
0.44615382 -0.0048015849 0.025815833 14145491
0.44743827 0.0045076935 0.025887171 14277076
0.450625 0.0079260468 0.022396071 13618632
0.44743988 0.01550061 0.02699898 14277078
0.45141664 0.01308854 0.023139114 14539735
0.44756907 0.024711475 0.026216723 14474456
0.45033336 0.029313395 0.023524066 14737114
0.44794741 0.033151604 0.028346753 14473686
0.45368576 0.035539731 0.025283178 13157824
0.4578 0.041302454 0.026984844 11382438
0.44609386 -0.073506348 0.037863012 15526374
0.45214286 -0.071221821 0.03399859 15658215
0.44624335 -0.064877108 0.038175449 15592424
0.45276487 -0.064696245 0.034048799 15790057
0.44674301 -0.055222243 0.038192663 15395558
0.45411769 -0.054339904 0.033262394 14540248
0.44573542 -0.044725981 0.03830681 15197923
0.45420772 -0.044832181 0.03363622 15395300
0.44511122 -0.034728974 0.037483852 15000543
0.45339996 -0.035093524 0.032948859 15263971
0.43863642 -0.022916306 0.039373573 14737628
0.44417554 -0.024902342 0.03616038 14671835
0.45237935 -0.02589285 0.031966921 14868957
0.43812507 -0.014476133 0.038825169 14737628
0.4432106 -0.014905733 0.033690445 14737371
0.45050001 -0.019365288 0.030563891 14868444
0.4369565 -0.0047300188 0.037733562 14606042
0.44247153 -0.0052498505 0.032573085 14606042
0.43679988 0.0047429544 0.037296031 14342870
0.44224018 0.0048002838 0.03206921 14342870
0.43585932 0.015125563 0.036990456 14211284
0.442 0.014876978 0.031872183 14277077
0.43568495 0.024985395 0.036225747 14474456
0.44196549 0.024975955 0.031265892 14473943
0.43729791 0.034472786 0.037504937 14408662
0.44302037 0.035154574 0.032419767 14078927
0.43866667 0.040876977 0.039173905 12961216
0.44183338 0.040654436 0.035315763 11907497
0.43788892 -0.073058411 0.046713356 16118509
0.44191664 -0.074314684 0.042304859 16052461
0.4363116 -0.065122113 0.046369471 16118510
0.44137925 -0.06495259 0.041308731 15592423
0.43511999 -0.054918543 0.046482328 15789803
0.4415313 -0.055252928 0.04154871 15460838
0.42900002 -0.041037206 0.049191166 14671835
0.43451136 -0.04494939 0.045469407 15592424
0.44080004 -0.045609135 0.040568355 15329765
0.42699996 -0.034568664 0.048709087 14474200
0.43395719 -0.03511215 0.044128768 15197667
0.44000003 -0.035394132 0.040152002 15066593
0.42624998 -0.025309497 0.048372053 14408663
0.43406668 -0.024982203 0.043295786 14671579
0.42536163 -0.014949582 0.047876932 14277077
0.43284738 -0.015196037 0.043166168 14408663
0.41825011 -0.0045152456 0.04954895 14211284
0.42391178 -0.0052056811 0.046085283 14211284
0.43144119 -0.0057447413 0.041833717 14277077
0.4183847 0.0028480419 0.049480136 14145491
0.42399999 0.004868431 0.045427442 14013905
0.43099999 0.0047926423 0.040787086 13882319
0.42415205 0.014868855 0.045675013 14079698
0.43035007 0.014745595 0.040782176 14013905
0.42613751 0.024830529 0.046109516 14342870
0.4301739 0.025097037 0.041269116 14277077
0.42739478 0.03376396 0.048108898 14408663
0.43207353 0.03554599 0.043601327 14277078
0.42900002 0.04031083 0.049191169 14079698
0.4330698 0.042506061 0.04539413 13224132
0.41900009 -0.077354312 0.059569944 14802907
0.42349333 -0.073736466 0.055840429 15132386
0.43054551 -0.072705574 0.050833855 15855339
0.41814283 -0.064123824 0.059412718 15329764
0.42413938 -0.065103941 0.05529169 15132129
0.43037507 -0.065602079 0.050859664 15986925
0.41653845 -0.05421298 0.059085414 15263972
0.42407691 -0.054996915 0.054391902 15000544
0.43000004 -0.056232426 0.050312467 15527144
0.41606525 -0.04477619 0.058564425 15066593
0.42380482 -0.045150623 0.053263605 14737371
0.41520005 -0.034873921 0.057572734 14540249
0.42242855 -0.035184495 0.052704956 14408663
0.40862498 -0.024202665 0.05887191 14277077
0.41446754 -0.024777221 0.055374227 14277077
0.42100009 -0.025807625 0.051264677 14408663
0.40755826 -0.015023736 0.0586228 14277077
0.4143292 -0.014746871 0.053830612 14277077
0.42063639 -0.016246406 0.05038036 14277077
0.40800005 -0.0051175733 0.058610406 14211284
0.41346914 -0.0051358468 0.053743999 14277077
0.4086 0.0020468379 0.05928703 14079698
0.41446549 0.0052332729 0.054895554 14079441
0.42000002 0.0094767082 0.05012564 14210514
0.41583329 0.015081864 0.055828046 14145491
0.42027783 0.016207226 0.050650403 14145234
0.41694924 0.024226079 0.057283264 14342870
0.42142606 0.025991492 0.052630994 14474456
0.41807145 0.034356758 0.058737598 14342870
0.42283744 0.03534219 0.054079063 14474456
0.41833332 0.04061405 0.05939303 14079697
0.42510819 0.041882098 0.053890791 13421512
0.43000001 0.043928027 0.050312471 13223875
0.40800002 -0.080337994 0.068990111 14999517
0.40691075 -0.074463554 0.067558639 15460838
0.41460943 -0.07505247 0.062816575 15263202
0.40426669 -0.064294964 0.066745594 15592424
0.41390479 -0.06504266 0.061688919 15657959
0.40444675 -0.0548824 0.065807946 15263459
0.41229635 -0.055956729 0.061000127 15394788
0.39846155 -0.04263683 0.069224283 15263202
0.40358785 -0.045396805 0.065351866 15197666
0.41105258 -0.044385627 0.061059844 15131616
0.39829171 -0.035572585 0.06932912 14671580
0.4040668 -0.034730952 0.064492695 14671579
0.41062501 -0.037358683 0.060782086 14869214
0.39800015 -0.024882078 0.068957299 14211029
0.40365392 -0.025111547 0.063893907 14277077
0.39813808 -0.015328855 0.069016643 14013905
0.40253398 -0.014883197 0.064141259 14211284
0.39800003 -0.0091883317 0.069861419 14277077
0.40347016 -0.0049758102 0.064799927 14211284
0.40505657 0.0046677771 0.06523294 14013904
0.41050005 0.0081822667 0.060883928 14013905
0.40590814 0.014800165 0.066681884 14013906
0.41099998 0.015467092 0.061708082 14145491
0.40680841 0.02459381 0.067329228 14342872
0.41226327 0.025499783 0.062420037 14342871
0.40800002 0.034081671 0.068313144 14342614
0.41342351 0.035305947 0.063562743 14408406
0.40900001 0.040346488 0.06891983 13816526
0.41513333 0.040951367 0.063269742 13355461
0.39544445 -0.081130989 0.078565948 15064796
0.40628573 -0.081117108 0.07266023 14999261
0.39490658 -0.074474789 0.076914184 15657703
0.40315557 -0.075588189 0.072102368 15460582
0.39442113 -0.064792439 0.075570941 15789545
0.40029415 -0.06613037 0.070759989 15723753
0.39486444 -0.054872494 0.07516624 15526373
0.39467895 -0.045113925 0.075135924 15328996
0.39349219 -0.034877926 0.075040422 14606043
0.3936289 -0.024751265 0.075069629 14079956
0.39461285 -0.014621103 0.074974097 13816527
0.39561558 -0.005460876 0.075662702 14145491
0.40011117 -0.0033564323 0.070960298 14145490
0.39661178 0.0047181044 0.076688208 13948112
0.40027642 0.0049149464 0.071815178 14013904
0.39710981 0.014767906 0.076671802 14013905
0.40073344 0.015535159 0.071881637 14013905
0.39765316 0.02473161 0.078346953 14408663
0.40138152 0.025379958 0.073390894 14277079
0.39803132 0.034199227 0.078717321 14277076
0.4025715 0.034903552 0.073823296 14145236
0.39866671 0.040571 0.078999944 11578793
0.40316668 0.040397275 0.074049264 12039858
0.38900003 -0.08069472 0.088999063 14867675
0.39302444 -0.081960768 0.084888063 14998747
0.38686571 -0.074048966 0.087230518 15657703
0.39180702 -0.076392174 0.082786784 15525861
0.3864404 -0.065037362 0.085722096 15723751
0.39018747 -0.064156361 0.080650061 15789545
0.38836473 -0.055725738 0.086660489 15328994
0.39061704 -0.054273002 0.082007736 15460323
0.38868824 -0.044902824 0.086218543 15065567
0.39033338 -0.045624238 0.081338301 15197409
0.38836375 -0.035330679 0.085440256 13947600
0.39000005 -0.034567561 0.080326132 14606045
0.38846853 -0.025600566 0.085831568 12040373
0.39014286 -0.023575764 0.081007689 13684944
0.38864616 -0.015704179 0.087772138 10987687
0.39059097 -0.014986668 0.082856201 13487563
0.38869235 -0.0052646324 0.087824933 13619146
0.39130676 -0.0052829362 0.082581744 14145491
0.38857153 0.0039694826 0.088291802 13882319
0.39201057 0.0050423364 0.083289713 13948112
0.38900003 0.011053876 0.08922673 13882319
0.39250395 0.014915949 0.084848486 14079698
0.39313605 0.024977438 0.085099332 14408663
0.3941845 0.035091184 0.085273907 14211284
0.39626318 0.040896077 0.083899111 11973806
0.38484442 -0.081637852 0.094731756 14539224
0.39000002 -0.083869398 0.090369098 11841453
0.37828207 -0.073630154 0.098347545 15526372
0.38222009 -0.075391047 0.093834817 15328995
0.37841949 -0.06740424 0.098572463 15460579
0.38187507 -0.064440042 0.094191581 15592166
0.38440409 -0.055110924 0.095087208 15328738
0.38627794 -0.045190755 0.094743624 14933980
0.38621983 -0.035070736 0.094999872 11842223
0.38382593 -0.024942463 0.095020398 2501930
0.38393509 -0.015239993 0.095085591 2896433
0.38582698 -0.0052603949 0.095068827 12631994
0.38508114 0.0047458704 0.095100008 13816525
0.38580665 0.014940211 0.094983481 14013905
0.38519865 0.024983464 0.095082991 14277077
0.38559529 0.034434963 0.095211618 14276819
0.39022225 0.037581388 0.090724915 14144976
0.38550001 0.040845416 0.097094461 11250340
0.39033332 0.040332641 0.09135934 13486789
0.37734783 -0.081224993 0.10613418 14735830
0.38045457 -0.08189816 0.1018403 14406610
0.37524819 -0.074899383 0.1051776 15197151
0.38000003 -0.07993973 0.10095096 14669781
0.37540275 -0.065080158 0.10512771 15394786
0.38000003 -0.061080486 0.10086199 15394786
0.37786162 -0.05662277 0.10723171 15131615
0.3811585 -0.05386845 0.10331147 15263201
0.38288638 -0.044958062 0.10502411 15131873
0.38321969 -0.03492431 0.10501304 11249828
0.37839141 -0.02391039 0.10716553 2304549
0.38088048 -0.025776889 0.10283946 2370344
0.37850007 -0.016654609 0.10767802 2304806
0.38091946 -0.014100584 0.10378082 3028787
0.38232103 -0.0052811075 0.10492618 11381927
0.37836173 0.0068114456 0.10781717 13355718
0.38109523 0.0043458818 0.10355286 13553096
0.37765267 0.015485791 0.10617214 13816526
0.38095546 0.014332236 0.10158928 13882319
0.37703353 0.024966864 0.10584672 14079697
0.38050005 0.025064452 0.10108318 14277077
0.37622809 0.034630377 0.10591019 14210770
0.38087872 0.035926405 0.10135882 14211026
0.37650001 0.040222421 0.1061704 12171442
0.3818 0.040702879 0.10115782 11184547
0.37399998 -0.0804286 0.11117679 14736856
0.37198842 -0.074064225 0.1137099 13224388
0.37338862 -0.06515909 0.11456637 13158594
0.37636265 -0.05470084 0.11443409 14079441
0.37867388 -0.047958344 0.11572649 14408406
0.38048264 -0.043428425 0.11426879 14473942
0.37870595 -0.031167518 0.11658942 3026989
0.38100022 -0.035537444 0.11479962 10855584
0.37580916 -0.024824543 0.1152534 2172964
0.37615588 -0.014903906 0.1151675 2830637
0.38000003 -0.010551953 0.11073641 7173230
0.37874997 -0.0050924728 0.11611681 9145734
0.38036346 -0.0056789699 0.11330958 10197910
0.37775478 0.0048140488 0.11377724 10790304
0.37582409 0.015058227 0.11319616 10790048
0.37670675 0.024608355 0.11358392 10262933
0.38033333 0.028911477 0.1178086 9934734
0.37656608 0.034044079 0.11277565 10921636
0.3811667 0.03150364 0.11791859 9474184
0.37500003 -0.065719664 0.12025287 9606800
0.37800002 -0.050980814 0.12055121 11842991
0.37900001 -0.048897564 0.12087013 11908527
0.38000008 -0.043763198 0.12081839 10790048
0.37375003 -0.031161081 0.12516145 3224109
0.38070005 -0.036861837 0.12101133 8355189
0.37099999 -0.028434101 0.12850863 2304035
0.37500003 -0.011290994 0.12025287 6316376
0.36769232 -0.03060298 0.13405836 2106911
0.37 -0.030629419 0.13077596 2106398
0.36682135 -0.025174519 0.1347283 1909791
0.37 -0.028897069 0.13077596 2303778
0.36657357 -0.015869895 0.13464551 2567206
0.36537504 -0.031102344 0.14667681 1054480
0.36441189 -0.024901304 0.1465151 857357
0.36349422 -0.015949367 0.14640667 1711123
0.36304548 -0.032420494 0.15637827 2829863
0.36410999 -0.025248002 0.15518939 725514
0.36390412 -0.015439312 0.15501671 2169617
0.36100003 -0.032347947 0.16393454 1711896
0.35900003 -0.023835838 0.16974974 396549
0.36164996 -0.024770383 0.16491994 1120528
0.36304319 -0.016293921 0.16486734 1447438
0.34524521 -0.033021618 0.17866985 1515031
0.35531369 -0.032160845 0.17653686 922894
0.36136371 -0.032647058 0.17242888 1514772
0.34672895 -0.025365144 0.1789107 1383700
0.35588643 -0.024876298 0.17531948 1054737
0.36000007 -0.025851129 0.17069662 1120270
0.34738711 -0.016649239 0.17926109 1252118
0.35485131 -0.016717693 0.17679788 857102
0.36024001 -0.016883785 0.17158356 1186064
0.3388387 -0.033128928 0.18905374 1515031
0.34161326 -0.033417344 0.18428136 1580310
0.33892152 -0.024548339 0.18856971 1515029
0.34201932 -0.025093786 0.18340701 1448981
0.33869764 -0.01724208 0.18821368 1448723
0.34161007 -0.016757526 0.18328947 1382932
0.35500002 -0.010688807 0.1803243 593679
0.35600001 -0.0098855132 0.18124893 265230
0.33800003 -0.032548144 0.19103907 1383444
0.33837143 -0.025238538 0.19097897 1448980
0.33815384 -0.017365806 0.19094843 1580567
