# .PCD v0.7 - Point Cloud Data file format
VERSION 0.7
FIELDS x y z rgb
SIZE 4 4 4 4
TYPE F F F U
COUNT 1 1 1 1
WIDTH 420
HEIGHT 1
VIEWPOINT 0 0 0 1 0 0 0
POINTS 420
DATA ascii
0.51900005 -0.0010468744 -0.040118054 15724270
0.52223998 -0.0037906216 -0.042573642 15592428
0.51900005 0.0038130791 -0.040118057 14868960
0.52236366 0.0032814802 -0.043216761 15066340
0.51249999 -0.011530888 -0.031518027 15066342
0.52000004 -0.010787527 -0.03776069 15065570
0.51589584 -0.0050925738 -0.034476291 15592427
0.52040005 -0.0081162956 -0.038764536 15262949
0.51583326 0.0047584875 -0.035011161 14408409
0.51775002 -0.020741094 -0.021839909 14802911
0.52000004 -0.021743491 -0.020718079 14803168
0.50777781 -0.01119492 -0.021950983 15329256
0.51152933 -0.0147734 -0.024908347 15000548
0.50580001 -0.004970016 -0.023080043 15658477
0.51076925 -0.0057214922 -0.028491553 15592684
0.50518745 0.0029740317 -0.024165871 14671581
0.51100004 0.0046530198 -0.028793832 14342616
0.52600002 -0.030922435 -0.01202849 14737115
0.51816666 -0.02065629 -0.016399598 14737373
0.52390248 -0.025381655 -0.015007596 14737372
0.49693337 -0.012172921 -0.01181352 15132130
0.50434488 -0.013763187 -0.015377427 15000545
0.5133636 -0.017210023 -0.018052425 14868446
0.49498034 -0.0047493782 -0.013642988 15461351
0.50135714 -0.0059620379 -0.018299131 15527145
0.49553046 0.0042397701 -0.014712086 13750734
0.5 0.0025029774 -0.019921228 14606043
0.52733332 -0.031309638 -0.0086641172 14671322
0.53066671 -0.031299975 -0.0058211014 14803421
0.49816671 -0.021608932 -0.00080088136 14539992
0.50476927 -0.022740295 -0.0033032778 14539736
0.51566672 -0.02357869 -0.0074665495 14539736
0.52455556 -0.027601711 -0.0075947959 14737115
0.48614997 -0.012079261 -0.0020170831 15198179
0.49417391 -0.015089267 -0.0054563247 14934750
0.50237501 -0.01909624 -0.006641326 14671578
0.48476195 -0.0049225027 -0.0038180898 15395558
0.49050003 -0.0056999833 -0.0089786481 15527144
0.48630559 0.0023731021 -0.0035714607 13948112
0.49131024 0.0060717491 -0.0074791317 12829888
0.49266669 0.010539657 -0.0077124885 12040885
0.55900002 -0.043003689 0.0084808487 14934237
0.56128567 -0.045433931 0.0080461521 15065570
0.47266671 -0.021607436 0.0091987578 14606042
0.49500003 -0.021163993 0.0020606879 14540249
0.50050002 -0.023857895 0.0011490812 14540249
0.47473919 -0.014461451 0.007362592 15066593
0.48288891 -0.014858742 0.002487638 15066592
0.49200001 -0.01903698 0.0015127129 14540249
0.4743523 -0.005460043 0.0061267889 15066849
0.48020005 -0.005015763 0.0012148439 15263971
0.47568965 0.0023443094 0.0070370142 13553609
0.48099998 0.0029277506 0.0021422831 13553353
0.56735718 -0.052566212 0.016953954 15197924
0.57281822 -0.056017186 0.017042287 15329252
0.55429041 -0.043567888 0.015542139 15000544
0.56094122 -0.04794316 0.014805571 15197413
0.54666668 -0.038644027 0.016610591 14737628
0.55300003 -0.039952949 0.014215444 14671835
0.47469059 -0.023237908 0.015961865 14539992
0.4661026 -0.013198345 0.0165901 15198179
0.47109753 -0.017120404 0.014046705 14803421
0.46493599 -0.0054163085 0.015369639 14737884
0.47000003 -0.002048315 0.010981563 14079954
0.46525002 0.0011503181 0.016849929 13356230
0.47128573 0.0020475453 0.011640335 13224644
0.56900001 -0.061089493 0.029279171 15066593
0.57353336 -0.062831923 0.025928034 15263716
0.55900002 -0.050855462 0.028764598 14803421
0.5649001 -0.054841071 0.02549364 15000800
0.57140005 -0.058404975 0.021909071 15328996
0.54900002 -0.040949173 0.024394371 14671835
0.55352283 -0.045184206 0.025419535 14803421
0.56040001 -0.049146533 0.022801962 14671579
0.54685724 -0.038961671 0.023020625 14606042
0.45850006 -0.021051159 0.028422374 14540249
0.46313334 -0.022326879 0.025989046 14408663
0.47291669 -0.023378724 0.021563418 14539736
0.44900003 -0.010365731 0.029411007 15264229
0.45559999 -0.01427983 0.026222138 15066850
0.46183333 -0.015891319 0.022142477 14934751
0.47000003 -0.019652771 0.020884071 14539479
0.44900003 -0.008789056 0.029411007 14935264
0.45529348 -0.005506922 0.025373716 14408920
0.46025002 -0.0030823988 0.020720053 13751248
0.45645455 0.00063265779 0.026393311 12830402
0.46133336 0.00050995132 0.02085793 13028036
0.56764001 -0.062593624 0.036115944 15000802
0.57126677 -0.066418476 0.035284091 15198181
0.55576009 -0.052332573 0.035721041 14869214
0.56280649 -0.056902517 0.0338424 14869215
0.54866672 -0.043921858 0.037651829 14671835
0.55166668 -0.04739264 0.035593584 14803421
0.44811118 -0.02153606 0.038442697 14606042
0.45451617 -0.023019485 0.034870841 14539992
0.46040002 -0.024856217 0.031019706 14277077
0.44466275 -0.014357135 0.035532903 15000801
0.45191669 -0.017576486 0.031804368 14869214
0.44625303 -0.0055090082 0.035315078 14211542
0.4507778 -0.0020810729 0.031402614 13356488
0.44855562 0.00061219861 0.037547365 12370109
0.4513846 0.0013660623 0.033547476 11844019
0.55866671 -0.060415506 0.046619553 14934497
0.56490004 -0.064404927 0.04576863 15000547
0.57183337 -0.068422407 0.043590467 15000547
0.55261117 -0.05461859 0.044794746 14868960
0.56 -0.058812257 0.040614787 14934754
0.54900002 -0.047053959 0.043030042 14737628
0.55019999 -0.048509333 0.042994637 14803421
0.44900003 -0.030336956 0.049382232 14211284
0.45223081 -0.032184593 0.047212325 14408663
0.43676475 -0.021151457 0.047549214 14606042
0.44532609 -0.024749525 0.045825172 14408663
0.45204175 -0.027369021 0.042437758 14408663
0.42900002 -0.012916896 0.049191166 15066593
0.43446234 -0.014514497 0.044756599 15000800
0.44137502 -0.01858693 0.041180529 14737628
0.43511111 -0.0065806434 0.046109699 13882577
0.44122723 -0.0039388561 0.041857168 13422027
0.43900001 0.0001422004 0.047254696 11449005
0.44466671 0.00049284758 0.041957498 11909558
0.55900002 -0.070484899 0.057554435 15329763
0.56266665 -0.070504777 0.054407164 14474455
0.54800004 -0.060545374 0.058559239 15197667
0.55456418 -0.064302146 0.056024998 15132130
0.56263632 -0.067593418 0.052414671 15066338
0.54717654 -0.054713365 0.055803202 14869215
0.55156255 -0.057685886 0.052509587 15066338
0.54850006 -0.049258776 0.05005312 14671837
0.44900003 -0.030336956 0.050958909 14211029
0.45275566 -0.033398002 0.055524886 14342870
0.4244 -0.022911722 0.057199858 14540252
0.43415794 -0.022867631 0.052184608 14474459
0.44505879 -0.02744391 0.052011229 14408409
0.41854551 -0.013938624 0.059482764 14803425
0.42392257 -0.015172666 0.054785874 14869217
0.43020001 -0.018593008 0.050738525 14671837
0.42520005 -0.0069649527 0.055909656 13619151
0.43134993 -0.0047008004 0.051479053 13093320
0.55150002 -0.070830286 0.067755178 15263459
0.53780001 -0.060510136 0.067456029 15066337
0.5458858 -0.064272203 0.065146007 15066337
0.55113333 -0.067773268 0.063020915 15132129
0.52671432 -0.054084487 0.067792498 14737628
0.53431582 -0.056372855 0.065729529 14868957
0.54328573 -0.057240997 0.061838713 14869214
0.43000001 -0.031066485 0.068431944 14408410
0.45500001 -0.032872677 0.060693759 14540249
0.40900001 -0.020931996 0.069877304 14342870
0.41541374 -0.023075063 0.066603743 14539995
0.42140013 -0.025124332 0.063349523 14342871
0.40851855 -0.015098166 0.069015212 14803678
0.41411683 -0.01483216 0.064156175 14737886
0.41567859 -0.0073149325 0.065513179 13224649
0.42105263 -0.0046351003 0.062336095 12435390
0.54711115 -0.070835739 0.073831558 15263201
0.50100005 -0.060825922 0.079731181 14671835
0.53750008 -0.06116876 0.072329581 14935007
0.54439396 -0.066292889 0.074274868 15000800
0.50099999 -0.057627238 0.078878194 14671835
0.52750003 -0.056018248 0.070364743 14671835
0.53100002 -0.058252785 0.070831619 14606042
0.43880001 -0.040947415 0.078049392 14540251
0.44000003 -0.040029343 0.075173631 14606042
0.40225002 -0.030709106 0.078845464 14210518
0.43879414 -0.037139673 0.077504374 14539995
0.44000003 -0.035909154 0.074143589 14605785
0.39783338 -0.02129223 0.079610206 15000547
0.40414461 -0.024466112 0.076135315 14671581
0.41126671 -0.025156802 0.071354069 14277077
0.39790004 -0.015209929 0.079188347 14737375
0.40396115 -0.01524466 0.074014053 14803166
0.40500003 -0.0080766687 0.075188197 12829633
0.41225001 -0.0062104282 0.071077131 12369337
0.49200001 -0.07067515 0.089816689 14737375
0.49200001 -0.068371594 0.089816689 14737375
0.50100005 -0.060825922 0.081490457 14606042
0.477 -0.057540659 0.088937931 14671582
0.48050004 -0.058900051 0.087717324 14605789
0.49900001 -0.057662677 0.081749231 14803421
0.50016665 -0.05760299 0.080964543 14671835
0.39633337 -0.041469559 0.089207672 14342360
0.39681947 -0.034036342 0.087141328 14276824
0.40000007 -0.033346988 0.082268722 14276311
0.43766665 -0.03879248 0.080922499 14474203
0.3944239 -0.024759762 0.085276999 14211286
0.40000004 -0.028363967 0.080780491 14342361
0.39361805 -0.014723545 0.085102156 14145493
0.3962391 -0.0076105483 0.086628571 11579307
0.40075004 -0.003270518 0.08852008 10330005
0.48566669 -0.081198007 0.098007686 14803168
0.47780004 -0.071656898 0.09930408 14737375
0.4856309 -0.074875228 0.096111484 14868961
0.49020004 -0.072366878 0.091553345 14671582
0.45900002 -0.060562111 0.099910311 14605789
0.46461111 -0.062268462 0.097918116 14737118
0.4746429 -0.064569883 0.095966831 14737375
0.48448148 -0.06726335 0.094063282 14737118
0.49025002 -0.069276378 0.091218457 14737375
0.39485714 -0.052562058 0.09908732 14539226
0.46472228 -0.056811053 0.095644772 14605789
0.47304997 -0.057156414 0.091667302 14605532
0.38900003 -0.041157067 0.098940395 15263715
0.39304698 -0.043886427 0.095717758 14736605
0.38828069 -0.034035806 0.097479984 12105140
0.3923333 -0.035782319 0.093069673 14276054
0.38552916 -0.024964308 0.094846837 2896176
0.39033332 -0.028201444 0.090446331 7959154
0.38553381 -0.015465331 0.094938144 2896433
0.39028573 -0.012272614 0.090696163 7697526
0.38836366 -0.0078066364 0.096971944 12632766
0.39265463 -0.0053337263 0.094313033 13092802
0.40047061 -0.0018547747 0.092684709 10263955
0.39433336 0.0044993488 0.099185631 10395542
0.40146667 0.00075618684 0.094652325 10263955
0.47100002 -0.090262227 0.10913806 14999777
0.45776474 -0.081485912 0.10720263 14933984
0.46364287 -0.085915156 0.10828393 14933984
0.47390002 -0.083480529 0.1041394 14868705
0.48245457 -0.082393982 0.10162353 14803168
0.40700001 -0.070374943 0.10907657 14342617
0.43900001 -0.073852696 0.10994481 14670812
0.4458572 -0.073208705 0.10911947 14736605
0.45609096 -0.075738795 0.10660505 14868191
0.4643333 -0.074531205 0.10311822 14868961
0.47294116 -0.074091502 0.10137683 14803168
0.48150003 -0.078748047 0.10086211 14803168
0.39773336 -0.060827684 0.10612349 14605273
0.40292853 -0.065234438 0.10737972 14407896
0.45875001 -0.062677883 0.10119847 14605789
0.46293747 -0.06650658 0.10144102 14737375
0.38842854 -0.052485324 0.10857962 15328995
0.39326182 -0.054767258 0.10446663 14933982
0.45800003 -0.059894077 0.10076483 14605789
0.38715595 -0.044454459 0.10604005 15197410
0.39123344 -0.047409751 0.10182632 15131618
0.38563496 -0.035109967 0.10510278 11908015
0.37843245 -0.023198957 0.10825519 2436134
0.38157141 -0.025393507 0.10378294 2501927
0.37839031 -0.016707523 0.10779219 2501928
0.38171005 -0.014374795 0.10372335 2896945
0.38717496 -0.0057484536 0.10538819 12566972
0.39000002 -0.0012782824 0.10265943 13422025
0.38889998 0.001036628 0.10868645 13422025
0.39267248 0.0048295115 0.10477947 12171957
0.39513335 0.011043847 0.10697152 10527642
0.44800001 -0.090049624 0.11954024 14539996
0.45522505 -0.093526401 0.11666508 14868961
0.46437502 -0.091570668 0.1124866 14802911
0.47050002 -0.091267854 0.11067379 14868191
0.43900001 -0.081560493 0.11662491 14539996
0.44405264 -0.083570778 0.11472883 14605789
0.45384002 -0.086244985 0.11267284 14803168
0.46314287 -0.088292643 0.11133964 14868448
0.39271882 -0.073228806 0.11806116 15065569
0.40600005 -0.07020203 0.11232525 14408410
0.4387778 -0.076783732 0.11331407 14474203
0.44212505 -0.077807866 0.11182232 14605789
0.45000002 -0.079917051 0.11059278 14802398
0.38756999 -0.064616501 0.11628374 15526374
0.39268431 -0.063053548 0.11183514 14934494
0.4034 -0.067019567 0.11184194 14474202
0.38522965 -0.054838147 0.11508909 15526372
0.39116669 -0.058786184 0.11063132 15263202
0.38329715 -0.04493719 0.11523707 15131873
0.37899998 -0.03033934 0.11695146 2304038
0.38245529 -0.035112713 0.11493608 10987427
0.37625176 -0.024470814 0.11522712 2173733
0.38025001 -0.029030114 0.11103136 2567976
0.37649608 -0.015299348 0.11535244 2567463
0.38041672 -0.010860248 0.11293422 6645602
0.3839075 -0.0052160476 0.11496408 12698557
0.38714814 0.0037485417 0.11554767 13619403
0.3909286 0.0079067517 0.11231679 13356230
0.38900003 0.01014322 0.11927838 13750990
0.3934533 0.013524532 0.11604676 12764350
0.39650002 0.021013826 0.11972166 11514028
0.42552638 -0.10215098 0.12806441 14474203
0.43800002 -0.10239471 0.12815097 14539226
0.44814286 -0.10161823 0.12677063 14868190
0.45187503 -0.10100903 0.12467013 14934497
0.39151722 -0.0929837 0.12766837 14539996
0.41820002 -0.093262717 0.1284267 14342617
0.42200008 -0.096822917 0.12760755 14408153
0.44883338 -0.092844926 0.12256519 14671325
0.45272976 -0.096846603 0.12268946 14803168
0.38878569 -0.08198344 0.12883374 15132387
0.39195776 -0.08528202 0.12659892 14803168
0.40390006 -0.08666756 0.12469318 14671068
0.41100001 -0.088383101 0.12602185 14539483
0.44450003 -0.088309042 0.1206875 14474203
0.38673568 -0.073900074 0.12604576 15395044
0.39179492 -0.077201724 0.12294903 15131617
0.38285169 -0.065141641 0.12490082 15658472
0.38134632 -0.05539174 0.12492033 15198179
0.38105333 -0.044925097 0.12486953 14211284
0.37779415 -0.031796508 0.12585334 5395023
0.38119751 -0.036234606 0.12451928 10658462
0.37338498 -0.025289597 0.12498541 1975585
0.37305975 -0.015312584 0.12512819 2764328
0.37800002 -0.0093897004 0.12607895 10856095
0.38236693 -0.0044382303 0.12473925 12040627
0.3845799 0.0046746181 0.12502924 13224902
0.38749412 0.013213823 0.12635471 13750990
0.39198384 0.016855279 0.12316138 13488588
0.39497873 0.022405816 0.12629932 13027524
0.40109092 0.027960153 0.12785064 11842478
0.40349999 0.030673182 0.12891842 10855580
0.40766668 -0.11152827 0.13931744 14605789
0.39900002 -0.1007499 0.13448752 14539996
0.40246153 -0.1040732 0.1373446 14605788
0.42488888 -0.10430545 0.13284697 14342617
0.39478201 -0.094409592 0.13504989 14013651
0.40000001 -0.099129595 0.13950661 15394788
0.42214283 -0.098125473 0.13099468 14276824
0.38853332 -0.083465427 0.1319291 14802907
0.39123693 -0.087655112 0.13498501 13158339
0.3844167 -0.075669453 0.13192654 13750731
0.38075554 -0.064909741 0.13166578 13750732
0.38064137 -0.054734606 0.13209914 12764865
0.38102949 -0.045210585 0.13240509 11514286
0.36866668 -0.030375464 0.13174288 2107167
0.37100002 -0.030624885 0.13077967 2041375
0.38129163 -0.037180997 0.13175507 9803151
0.3686364 -0.02490586 0.13158804 1843739
0.37049997 -0.025033055 0.13051842 1843995
0.36899999 -0.017637096 0.13195822 2238498
0.37132427 -0.014672679 0.13112465 3158828
0.37755555 -0.009010273 0.13226737 10198677
0.38157138 -0.0046091606 0.13324906 10198937
0.38392022 0.0052581499 0.133324 11448748
0.38576272 0.014683628 0.13388693 12830400
0.38892856 0.02048197 0.13538475 13356745
0.39425004 0.025247322 0.13488315 13290694
0.40014288 0.028633514 0.13112544 13093059
0.39900002 0.030486394 0.13588861 13159109
0.40255553 0.032107662 0.13323604 11974321
0.41220003 0.038443577 0.13835803 11448488
0.41300002 0.041224495 0.13920638 11382694
0.41662502 -0.12190174 0.14896153 14934753
0.40821427 -0.11181475 0.14182618 14671325
0.41414714 -0.1157881 0.14700913 14473945
0.40519154 -0.10502778 0.14335813 13355461
0.41100004 -0.10907242 0.14767334 12236721
0.39678264 -0.09385471 0.14169541 10855583
0.40036365 -0.098538473 0.14287235 12236723
0.39466667 -0.08872316 0.14103553 10198165
0.36800003 -0.030463859 0.14837584 1252120
0.36663827 -0.024561001 0.14817849 791822
0.36415803 -0.015467882 0.14778027 1841941
0.39385715 0.026086792 0.140655 13225418
0.40633333 0.03394831 0.14361823 12764607
0.41168746 0.038565267 0.14493746 12106421
0.41342857 0.04304963 0.14472784 11712176
0.79500026 0.12495108 0.14513589 11250849
0.41666672 -0.12195458 0.15084653 14079697
0.41700003 -0.11835175 0.15068275 12500410
0.36429515 -0.032281805 0.15629558 2764073
0.36576587 -0.025245521 0.15569061 791308
0.37 -0.027771037 0.15381627 791567
0.36413112 -0.015378925 0.15522757 2037777
0.41500005 0.042882975 0.15056723 12436413
0.36156669 -0.03242803 0.16366746 1842968
0.362147 -0.024798533 0.16503844 1317394
0.36378071 -0.015961019 0.1649525 1710355
0.79483342 0.10446085 0.16463122 11053471
0.34612501 -0.03298736 0.17858577 1581336
0.35557398 -0.032470576 0.177224 988430
0.3610698 -0.032593712 0.17308453 1515029
0.34644935 -0.025190489 0.178608 1449239
0.35604894 -0.024909267 0.17587 1054481
0.36024386 -0.025349699 0.17151015 1647129
0.34710807 -0.016731124 0.17883757 1448727
0.35492691 -0.016171373 0.17693663 857103
0.36067748 -0.017123409 0.17220317 1251859
0.79135007 0.095388278 0.17355217 10856091
0.79476005 0.10445221 0.17486039 10987677
0.33900005 -0.032626405 0.18869267 1580568
0.34185839 -0.033487495 0.18379158 1646874
0.33899996 -0.024888754 0.18846594 1580824
0.34226444 -0.024900794 0.1835188 1515031
0.33869693 -0.016829472 0.18905342 1579796
0.34238568 -0.016796889 0.18399656 1448982
0.35300002 -0.010628588 0.18054795 923156
0.33885008 -0.032572724 0.19107953 1580825
0.33872977 -0.02500953 0.19109088 1645848
0.338 -0.017480925 0.19104457 1580055
0.78726673 0.12705562 0.21620773 10921627
0.7931667 0.12589662 0.21040179 10856091
0.78869236 0.13361894 0.21740644 10987420
0.79195243 0.13630301 0.21272464 10987677
0.79336661 0.14512794 0.21447748 10921884
0.79510003 0.1547496 0.21494983 11053470
0.78650004 0.12821949 0.22090977 10987420
0.78866667 0.13429652 0.22410358 10921628
0.79000002 0.13865298 0.22466695 10921628
0.79184628 0.14492181 0.22447798 10987421
0.79438472 0.15454039 0.22519588 11118750
0.79000002 0.13896121 0.23206456 10856091
0.78900003 0.14201768 0.23777376 10856091
0.79070002 0.14537957 0.23448952 10921884
0.7926206 0.15433286 0.23484896 10921885
0.78890914 0.14531758 0.24223763 10856091
0.79000002 0.14820823 0.24316098 10856091
0.79176003 0.15521511 0.24455565 10856091
0.79510725 0.16465756 0.24459708 10856092
0.792 0.15908992 0.25088313 10724505
0.79217851 0.16557269 0.25495636 10790298
0.79371434 0.17539635 0.25509691 10921628
0.79393345 0.18487889 0.25551286 10987165
0.79133332 0.16677658 0.26261091 10724507
0.79050016 0.17539863 0.2643328 10790557
0.78900003 0.18126777 0.2604003 10856093
0.79159093 0.18540391 0.26487944 10855837
0.79150003 0.17721042 0.27048996 10790557
0.79100007 0.14777859 0.29747799 9408905
0.79212505 0.15544735 0.29654899 10329748
0.79478592 0.1647907 0.2979289 10658712
0.79469573 0.1452841 0.30572078 10592920
0.79463995 0.15466076 0.30505204 10461590
