# .PCD v0.7 - Point Cloud Data file format
VERSION 0.7
FIELDS x y z rgb
SIZE 4 4 4 4
TYPE F F F U
COUNT 1 1 1 1
WIDTH 391
HEIGHT 1
VIEWPOINT 0 0 0 1 0 0 0
POINTS 391
DATA ascii
0.4484286 -0.030748824 -0.01186747 14736594
0.45166671 -0.034046609 -0.010593992 14605009
0.44406256 -0.02466456 -0.012777817 14670801
0.4390001 -0.013591701 -0.011137743 15263191
0.44034201 -0.015485263 -0.013909759 14802643
0.43900007 -0.0072572893 -0.010810744 14802386
0.44081819 -0.0044965227 -0.01338967 14210250
0.44353852 0.0040888265 -0.012054476 13223612
0.44612503 0.011765028 -0.011116276 12105645
0.4463056 -0.032393046 -0.0047328155 14867923
0.45177272 -0.03629512 -0.0060305367 14736595
0.43712953 -0.023437617 -0.0030003297 14868179
0.4420698 -0.026792174 -0.0064973403 14933459
0.43462482 -0.014805376 -0.004739969 15000021
0.43496761 -0.0052083819 -0.004435027 14671056
0.44000003 -0.00088752358 -0.0092902975 14276555
0.43727455 0.0032176019 -0.0028540273 13947334
0.4419584 0.0063771438 -0.0065547121 13684419
0.44440001 0.012914246 -0.0044926433 13289663
0.44900003 -0.040848125 0.0068119881 14605009
0.45050001 -0.042565949 0.0084155174 14407631
0.43745837 -0.031821188 0.0062492993 14605008
0.44420835 -0.036390815 0.0048662331 14802388
0.45000002 -0.038832184 0.0010331399 14802390
0.43336463 -0.024993928 0.0049268669 14670800
0.42887992 -0.013917861 0.007891966 14802386
0.43018049 -0.015792932 0.0039913165 14868435
0.4288182 -0.0075266543 0.0077372817 14605263
0.43073535 -0.0047062812 0.0041296962 14473678
0.43507767 0.0047366344 0.005067701 13684418
0.4390001 0.010933124 0.0069171996 13092282
0.44143477 0.013941663 0.0044484604 12895161
0.44847831 -0.041806083 0.014587905 14276046
0.45162502 -0.04465919 0.016965888 14012873
0.43662491 -0.032920681 0.015108109 14407629
0.44243336 -0.037768926 0.014271784 14407631
0.42735142 -0.022548696 0.016630908 14539470
0.43153453 -0.026445463 0.013721279 14473421
0.42599082 -0.015321542 0.014928423 14671056
0.42644218 -0.0055695823 0.015196462 14276554
0.43000004 -0.0015384444 0.010718054 14144969
0.42813334 0.0010750876 0.017885555 13552832
0.43268237 0.0051819906 0.014158358 13355710
0.43845841 0.011177001 0.01485981 12829367
0.4415946 0.014592374 0.015603194 12303281
0.43700001 -0.040779438 0.029647989 14078665
0.44630441 -0.042060219 0.024185162 14012872
0.45270008 -0.046062838 0.022127226 13749700
0.42866668 -0.030970156 0.028078325 14144458
0.43354928 -0.034350898 0.024893174 14210251
0.44144449 -0.038783714 0.022712134 14144459
0.4243196 -0.025015593 0.025378473 14539729
0.43000001 -0.028801547 0.020868318 14539215
0.41900012 -0.015068021 0.029244198 14473935
0.42118204 -0.015147788 0.02453685 14539984
0.41900003 -0.0096731428 0.029407678 14277327
0.42234036 -0.0052792751 0.025078282 14013641
0.42657891 0.0033238095 0.025427386 12961211
0.43054163 0.007867258 0.023957171 12632247
0.4357895 0.011796843 0.024837745 12105903
0.44100004 0.014985194 0.025651986 11777195
0.43644443 -0.040955719 0.035974745 14209995
0.44166672 -0.043801356 0.037893236 13683907
0.42636847 -0.032225717 0.035721928 14078921
0.4326112 -0.036925811 0.034207627 14210251
0.41746294 -0.022634041 0.036045834 14342350
0.42190009 -0.027167806 0.033973467 14210764
0.41612738 -0.014965605 0.035040807 14276814
0.41717643 -0.0061232084 0.035707388 13553605
0.42054546 -0.0022790693 0.032514032 13290434
0.41900003 0.00013572203 0.039216544 12895676
0.42402565 0.0037268503 0.035239786 12369588
0.4307647 0.0088008866 0.034148116 12040624
0.43627781 0.0126313 0.034928132 11579816
0.44025004 0.01534459 0.031671654 11316901
0.48600003 -0.060711384 0.048900649 14276046
0.4850589 -0.056219004 0.048872743 14210251
0.43715793 -0.041440789 0.046292007 13947079
0.44100001 -0.043125123 0.043245289 13881286
0.4175238 -0.03123652 0.047406722 14210251
0.42277512 -0.033567749 0.044538733 14210251
0.43308693 -0.038259026 0.044497043 14210251
0.40900001 -0.021251155 0.049451143 14407628
0.41407913 -0.024608115 0.044877879 14342094
0.42025 -0.029132448 0.04105477 14342093
0.4087587 -0.015408726 0.048915535 14276813
0.41173497 -0.014685106 0.043989025 14144970
0.40900001 -0.00944228 0.049770303 14277327
0.41364065 -0.0051575564 0.044976525 13290175
0.41753843 0.0010005248 0.04606742 12632502
0.42249152 0.0053246282 0.043747135 12106159
0.42800003 0.010158195 0.041060861 11514023
0.43300003 0.012304187 0.040526882 11448230
0.48675001 -0.060519762 0.054108504 14407630
0.49150002 -0.062550813 0.059234239 14407886
0.4853234 -0.056618541 0.054214165 14144459
0.42235002 -0.041242093 0.055986978 14078922
0.41565683 -0.033567071 0.055610973 14144458
0.42085195 -0.037959762 0.054348893 14144458
0.4070397 -0.023983069 0.056069739 14342349
0.41194737 -0.0277349 0.052790329 14276300
0.40582657 -0.01506717 0.055073675 14408141
0.40768144 -0.006587177 0.055925962 13750212
0.41149998 -0.0028506275 0.052913301 13355454
0.41530621 0.0027195346 0.054605369 12237231
0.48776469 -0.063386463 0.068288617 14539217
0.49124998 -0.066885993 0.066847831 14539218
0.48450002 -0.058256142 0.062930435 14341838
0.41600001 -0.041748405 0.069608949 14012872
0.42197067 -0.042169645 0.063841775 14143944
0.40686008 -0.032427367 0.066570766 14144457
0.41416082 -0.036369927 0.064345613 14144200
0.42050004 -0.039239712 0.061504722 14078407
0.40308857 -0.024970509 0.064928934 14473421
0.40181831 -0.014918253 0.0648783 14342091
0.40537268 -0.0051799086 0.065143749 13420990
0.41 -0.00082701055 0.061409801 12829109
0.40871426 0.00095274986 0.069144584 12434351
0.41419053 0.0027749997 0.064219445 12105388
0.48800004 -0.070671767 0.079947144 14736597
0.49283338 -0.072430648 0.076319702 14473681
0.47484615 -0.062695675 0.078470908 14473425
0.48624396 -0.065311685 0.073877014 14539217
0.49000001 -0.06962312 0.073009834 14605009
0.47500002 -0.05989325 0.077817403 14341839
0.48200005 -0.058800071 0.072469026 14407631
0.40826473 -0.042455696 0.075093888 13947079
0.41075003 -0.043016009 0.075340867 13881287
0.39833331 -0.030954752 0.077999294 14144458
0.40461299 -0.035583384 0.074446447 14012872
0.41000003 -0.039219707 0.070048161 14078665
0.39676136 -0.024544176 0.075618088 14341837
0.40026084 -0.027126817 0.071235687 14341837
0.39666918 -0.015041094 0.075112581 14276043
0.40000007 -0.011362703 0.071063757 14078663
0.39800006 -0.0082559912 0.077802643 13684163
0.40245253 -0.0044603506 0.074584581 13026232
0.4073846 0.0012714051 0.073556565 11974315
0.41000003 0.003012259 0.070048161 11710628
0.47728577 -0.071037099 0.087928824 14605011
0.48418185 -0.073311538 0.086524092 14539218
0.49272728 -0.074397355 0.083547629 14473425
0.47246879 -0.066008143 0.085285008 14539218
0.48300001 -0.06881696 0.08025872 14605011
0.42900002 -0.050578024 0.088358745 13815494
0.43125001 -0.05235881 0.088570498 13947080
0.40763637 -0.041553941 0.086124569 14012616
0.41411114 -0.045003816 0.085753776 14012873
0.4239167 -0.048328582 0.08673352 13947080
0.3961525 -0.03242984 0.085923202 13815494
0.40283599 -0.037304312 0.084136173 14012616
0.38858333 -0.023147359 0.089509629 6513243
0.39269957 -0.024825303 0.084647305 13355456
0.38875002 -0.018074615 0.089396462 6775389
0.39247134 -0.014767163 0.08465381 13421505
0.39517331 -0.0069202422 0.086158484 13223869
0.40151724 -0.0023302699 0.083732359 12303280
0.40360004 0.00013073368 0.085771188 11843243
0.47842863 -0.081445888 0.098858312 14605011
0.48000002 -0.081424311 0.096390814 14539218
0.47550008 -0.074341848 0.095962524 14604754
0.48166668 -0.077022798 0.091998592 14539218
0.46645454 -0.065467425 0.096556999 14473168
0.47135493 -0.067552805 0.093482666 14538962
0.41682756 -0.052895829 0.097928554 14012104
0.42422864 -0.053122953 0.093211353 13881288
0.43024999 -0.05551073 0.09214177 14078667
0.39822221 -0.041200899 0.098073274 14077896
0.40453491 -0.042732198 0.094670571 14012361
0.41361296 -0.047315132 0.094928712 14012361
0.42133334 -0.049180966 0.091709077 13947081
0.38853332 -0.03134539 0.097546414 11315102
0.39386737 -0.035298087 0.094776399 13354174
0.40057141 -0.038853884 0.091209717 14077897
0.3858 -0.025038542 0.095074318 2566949
0.39000002 -0.028633079 0.090369098 4867907
0.38562661 -0.015357973 0.094846167 3027757
0.39000002 -0.011133969 0.090673424 9342084
0.38845834 -0.0089672711 0.09709549 12632246
0.3929787 -0.0050298949 0.094468795 12829367
0.39820004 0.000688956 0.097678319 11974059
0.40077782 0.002528843 0.098080181 11776680
0.41566667 0.0085716713 0.099557996 11185056
0.46844447 -0.082218543 0.10878883 14539218
0.47290379 -0.083791465 0.10465088 14539218
0.44900003 -0.070279412 0.1092959 14341839
0.45555565 -0.072077259 0.10750563 14407632
0.46588099 -0.075827837 0.10625155 14473425
0.47193554 -0.076439515 0.10211595 14539218
0.4366923 -0.063088357 0.10912628 14276046
0.44504878 -0.065803014 0.10611305 14341583
0.45339999 -0.068417341 0.10441749 14538961
0.4666667 -0.069404386 0.10085106 14605011
0.4069286 -0.051379949 0.10810237 14078667
0.41461113 -0.05357438 0.10358243 14078410
0.42400002 -0.057439998 0.10718076 14144460
0.43400002 -0.059803523 0.10818343 14078667
0.39501634 -0.042490583 0.10545091 13946310
0.40293941 -0.046723038 0.10333399 14078154
0.4106667 -0.049217198 0.10188597 14078153
0.3868615 -0.032916754 0.10579591 10591380
0.3915357 -0.037505079 0.10402483 13682881
0.37833971 -0.023875227 0.10770264 2304805
0.38172531 -0.025403621 0.10321535 2370342
0.3784517 -0.016853116 0.10835498 2305061
0.38211691 -0.014553226 0.10409016 2699821
0.38723525 -0.0069916206 0.10550777 12434865
0.39121279 -0.0022875157 0.10401239 12763060
0.39421219 0.0015297498 0.1057328 12434352
0.40229416 0.0056807259 0.10574986 11842216
0.4145 0.0083840117 0.10041095 11185056
0.46877781 -0.091421753 0.11764569 14604754
0.47100005 -0.091913819 0.11519427 14604499
0.45900002 -0.080799043 0.11817727 14473425
0.46547374 -0.084937714 0.11524624 14604754
0.47025001 -0.087917358 0.11061528 14539218
0.4375 -0.071407661 0.11783411 14473170
0.44471431 -0.074065998 0.11641346 14538962
0.45527589 -0.076338105 0.11453247 14473425
0.46145451 -0.078710265 0.1126183 14473425
0.40900001 -0.060667261 0.11966608 14341837
0.4143846 -0.062770963 0.11729924 14407374
0.42469567 -0.062713161 0.11305149 14407376
0.43283999 -0.066253878 0.11273643 14473169
0.44350004 -0.068900578 0.11055152 14473425
0.39814287 -0.050868444 0.118885 14275274
0.4047879 -0.053761888 0.11583851 14210251
0.41274077 -0.057804495 0.11455739 14275788
0.42179999 -0.059503615 0.11155667 14407376
0.38889998 -0.041298337 0.11815468 13683138
0.3935757 -0.04494736 0.11505233 14012102
0.40122226 -0.049443174 0.11258512 14143945
0.37900001 -0.030043593 0.11709933 2435108
0.38569292 -0.035350524 0.11507141 11907240
0.39000002 -0.039132543 0.11091153 13683394
0.37577853 -0.024427133 0.11515854 2107683
0.38033333 -0.029258922 0.11127794 2436134
0.37626821 -0.015461729 0.11525085 2370341
0.38058338 -0.011087466 0.11298454 6646627
0.38608882 -0.0053405734 0.11523593 12434351
0.39000002 -0.0010149179 0.11113978 12697523
0.389 0.00042955644 0.11745707 12697523
0.39225003 0.0036479477 0.11502364 12500401
0.40317655 0.0085159857 0.11251701 12039594
0.39700001 0.010351821 0.11987263 12171179
0.40566674 0.011274962 0.11336796 11381922
0.45650002 -0.091042586 0.12625468 14538962
0.46557143 -0.092568219 0.12304211 14539218
0.47025001 -0.095072679 0.12217464 14472913
0.4386667 -0.082012221 0.1267194 14407630
0.44331825 -0.08387427 0.12564148 14407631
0.4554286 -0.08544945 0.12296157 14604755
0.46235713 -0.08760228 0.12166791 14670804
0.41500002 -0.070786715 0.12588449 14276046
0.42575002 -0.075363435 0.12855124 14276046
0.43679065 -0.076163888 0.12440568 14473168
0.44233334 -0.077953666 0.12147496 14473425
0.40681353 -0.063504748 0.12521428 14144460
0.41075 -0.067698926 0.12402457 14210253
0.38900003 -0.051326059 0.1292956 14276046
0.39462027 -0.053283047 0.12542868 14144459
0.40232551 -0.057696253 0.12295856 14276045
0.38763162 -0.044057734 0.12601699 13683908
0.39138892 -0.047851153 0.12288216 14078409
0.37723079 -0.031467412 0.12575075 5131332
0.38377082 -0.036335893 0.12480692 12301741
0.3725422 -0.025256146 0.12496834 1909791
0.37339759 -0.01519475 0.12500426 3027500
0.37850001 -0.0096242251 0.12491836 12170920
0.38487145 -0.004642311 0.12477152 12171692
0.38857502 0.0013093684 0.12533303 12369072
0.3922025 0.0063508297 0.12485864 12434865
0.39653337 0.011642818 0.12592106 12171951
0.40100002 0.014528713 0.12874724 11842986
0.45733336 -0.10156363 0.13880484 14276046
0.44575682 -0.092931382 0.13605091 14078667
0.45238891 -0.097172312 0.13607091 14276046
0.42820001 -0.080656387 0.13791206 13289150
0.43513837 -0.084386356 0.1352808 13881288
0.44072732 -0.088775918 0.13476315 14078667
0.41412771 -0.072398007 0.13545801 13552323
0.42387503 -0.077543609 0.13554104 13683909
0.43128571 -0.079190038 0.13152099 14210253
0.39700001 -0.061211038 0.1360514 13223359
0.40459424 -0.065193526 0.13402933 13683909
0.41025001 -0.06925606 0.13347569 13618116
0.38812286 -0.052543405 0.13532962 13618371
0.3924717 -0.057223558 0.13456933 13684165
0.38511717 -0.044988774 0.13492279 12894647
0.36741665 -0.030989215 0.13724236 2041117
0.37520003 -0.032387063 0.13489638 6644570
0.38226867 -0.03711744 0.13490725 11775911
0.36668915 -0.025036613 0.13542062 1975840
0.37043473 -0.024916278 0.13081594 1580825
0.366934 -0.016266366 0.13620776 2500640
0.37139222 -0.01472125 0.13220684 3290154
0.37812501 -0.0092819724 0.13519779 11842468
0.38347104 -0.0043387576 0.13503127 11645606
0.38752308 0.0022231862 0.13516463 11908779
0.39198354 0.0072619691 0.13473791 12040365
0.39664289 0.012386595 0.13583197 11974573
0.40310514 0.017123161 0.13455476 11974573
0.40794444 0.021037171 0.13617265 12040367
0.41237497 0.024333555 0.1376075 11908781
0.42150003 0.029738706 0.13960397 11711402
0.45736364 0.038984362 0.13780616 11908265
0.45582604 0.042690255 0.13781999 11184543
0.45484376 -0.10244215 0.14531454 13749702
0.44518864 -0.094155736 0.14504255 13223614
0.45100001 -0.098907277 0.14385009 13815495
0.42622226 -0.081128038 0.14244029 12762805
0.43503129 -0.086370677 0.14300069 13025977
0.44000003 -0.089471646 0.14676195 12631475
0.41554999 -0.074195758 0.1420081 12302254
0.42199999 -0.078502312 0.14213599 12565426
0.40675002 -0.067952655 0.14162259 11315360
0.41 -0.069933861 0.14107464 12039083
0.3876667 -0.053120878 0.14034681 12237231
0.38600001 -0.049574777 0.14004567 11973802
0.36750004 -0.030851847 0.1415077 1514516
0.37263641 -0.031046759 0.14781082 1515293
0.38160005 -0.037576146 0.14041436 10855322
0.36699995 -0.024413759 0.14217424 1778203
0.37208104 -0.026600296 0.14735961 988688
0.36531907 -0.01506242 0.14448187 2828577
0.37650001 -0.0091297477 0.14276287 10262927
0.38266671 -0.0045560924 0.14280567 10789785
0.38727778 0.0032712535 0.14361483 10329747
0.39163333 0.0078003244 0.14294338 11382435
0.39661041 0.014101641 0.14386694 11514021
0.40035298 0.019205535 0.14276995 11908781
0.40381482 0.02237186 0.143767 11842988
0.41473529 0.027242228 0.1433312 11908781
0.42565003 0.033077873 0.14575855 11908525
0.43153578 0.036873452 0.14646253 11448231
0.44560003 0.038530946 0.14413697 12040365
0.45700002 0.038127534 0.14012909 11973802
0.43500003 0.040874619 0.14967676 11382437
0.44685006 0.044242032 0.14867394 12237745
0.45312506 0.045640048 0.14456096 11842731
0.45329437 0.051925473 0.14610329 11053215
0.4547143 -0.10288475 0.15182023 12368562
0.4474 -0.093810439 0.15163842 11052701
0.45118186 -0.097892076 0.15274872 11052702
0.36462295 -0.032425765 0.15645504 2895657
0.37322223 -0.031139238 0.15132815 1252891
0.36517212 -0.025179518 0.15597567 725514
0.37293544 -0.027054338 0.15180345 988942
0.36401823 -0.015737399 0.15502422 1971724
0.42650002 0.033587787 0.15123977 11908781
0.43100002 0.037744086 0.1532422 11711402
0.43597442 0.043197162 0.15458812 12106160
0.443762 0.047414303 0.15307277 12237746
0.44727916 0.052818771 0.15435804 12500918
0.45100001 0.053993847 0.15080707 11842218
0.36132261 -0.032407407 0.16386192 1711894
0.36199966 -0.02481023 0.16490354 1251858
0.36343229 -0.016381837 0.16488571 1382159
0.3450506 -0.033117529 0.17717175 1383701
0.35538241 -0.031886738 0.17460595 988687
0.3610715 -0.032578792 0.17193516 1646614
0.34504303 -0.025140939 0.17754655 1252115
0.35517937 -0.024884123 0.17424633 857100
0.36028573 -0.024765473 0.17095982 1844252
0.34535727 -0.01700904 0.17847683 1251859
0.35475266 -0.016382091 0.17601308 791051
0.36096424 -0.016661322 0.17164266 1186321
0.35500002 -0.0098577449 0.17907771 2435874
0.33705878 -0.033635292 0.18812919 1580820
0.34309998 -0.033864994 0.18098608 1383701
0.33736533 -0.025160391 0.18834648 1448978
0.34233332 -0.02513504 0.18070197 1317652
0.33852935 -0.016718339 0.18894923 1382931
0.34299996 -0.017102547 0.18110427 1317652
0.35500002 -0.010688807 0.1803243 1252122
0.35500002 -0.0098577449 0.18073982 857612
0.33699995 -0.032843545 0.19047935 1449491
0.33699992 -0.025136381 0.19050969 1383698
0.33784616 -0.017471971 0.19095762 1317906
0.78900003 0.1350912 0.1994472 10856091
0.78815371 0.1345938 0.20504957 10724762
0.79000002 0.13896121 0.20894699 10856091
0.78900003 0.14063238 0.20221779 10856348
0.79216671 0.14521958 0.20503806 10856091
0.78100002 0.12914942 0.21387526 10658710
0.78609091 0.13392983 0.21485262 10724505
0.79000002 0.13896121 0.21449521 10724505
0.79456007 0.14535068 0.21499008 10724506
0.78580004 0.13473174 0.22365466 10724505
0.79000002 0.13896121 0.22466694 10724505
0.79434288 0.17462479 0.23484756 10790042
