# .PCD v0.7 - Point Cloud Data file format
VERSION 0.7
FIELDS x y z rgb
SIZE 4 4 4 4
TYPE F F F U
COUNT 1 1 1 1
WIDTH 539
HEIGHT 1
VIEWPOINT 0 0 0 1 0 0 0
POINTS 539
DATA ascii
0.49772736 -0.013610347 -0.050443534 14605273
0.4970001 -0.0058690491 -0.050898507 15921128
0.49720007 0.0040026633 -0.050771039 14868439
0.51081824 -0.054845478 -0.041007482 16052202
0.50573075 -0.044649478 -0.041823607 16052203
0.51000005 -0.049979411 -0.041810203 16446961
0.49893755 -0.031448126 -0.043166611 16183787
0.50138468 -0.036680534 -0.043089088 16315629
0.49796224 -0.024696026 -0.044147316 15920871
0.49539426 -0.01485568 -0.044622716 15855078
0.48899999 -0.0021311191 -0.040088601 15460833
0.49331826 -0.0050376905 -0.045072403 15789541
0.49340352 0.0034034464 -0.04477806 14802646
0.53800005 -0.10323013 -0.030755067 14013131
0.528 -0.090061165 -0.030925276 16776435
0.53400004 -0.096304663 -0.030858828 15525855
0.52486676 -0.083303049 -0.031888701 16447215
0.51775008 -0.071891174 -0.033294387 16118250
0.5227223 -0.077130571 -0.033199992 16183787
0.51358485 -0.0648112 -0.034778375 16184043
0.50738466 -0.053242821 -0.033422299 16315629
0.51078373 -0.056844667 -0.036542691 16381166
0.4978334 -0.042281788 -0.031393483 16249836
0.50400001 -0.045785002 -0.035666037 16249837
0.49592859 -0.034443114 -0.034717027 16184043
0.50084615 -0.038260356 -0.038084146 16315629
0.48712507 -0.023698159 -0.03204878 15855078
0.49286661 -0.02558562 -0.036515031 15920871
0.48627102 -0.014238722 -0.033301126 15723749
0.49141666 -0.015612842 -0.038035247 15789542
0.48585495 -0.0048511918 -0.034592882 15592163
0.49000001 -0.0084445206 -0.039023485 15789798
0.48649102 0.0035750871 -0.034505285 14342609
0.49000001 0.0070413128 -0.039023485 13750985
0.53699994 -0.10516344 -0.024760567 15986409
0.5268572 -0.092215829 -0.024227794 16315629
0.5316875 -0.09660437 -0.025932124 16315374
0.51790005 -0.082277752 -0.021847524 16315629
0.5235334 -0.085762851 -0.025901511 16315629
0.50787497 -0.071469471 -0.021574052 16249836
0.51444679 -0.075276166 -0.024860134 16315629
0.52100003 -0.078500569 -0.028686363 16315629
0.5051778 -0.064356692 -0.023655333 16249836
0.51100004 -0.066169217 -0.028315444 16315629
0.49668178 -0.053329464 -0.022646558 16184299
0.50332499 -0.055867702 -0.026688382 16250093
0.48742858 -0.043204453 -0.021459043 16118506
0.49362496 -0.045321256 -0.025620982 16184299
0.50050002 -0.048463166 -0.029314585 16249836
0.48583058 -0.034295432 -0.023951778 16118505
0.49106666 -0.03701162 -0.027997183 16249836
0.47787508 -0.023410188 -0.021138581 15724003
0.48262915 -0.025196062 -0.02596163 15789541
0.47666678 -0.015181665 -0.022143364 15724004
0.48122853 -0.015295109 -0.027383616 15789285
0.47682053 -0.0054257559 -0.022350347 15263967
0.48097435 -0.0052143186 -0.027393326 15395040
0.47840005 0.0021719839 -0.020741014 14145742
0.48213327 0.0033456276 -0.026112989 14145486
0.52777779 -0.10210499 -0.012518103 15657698
0.53143334 -0.10441626 -0.016282834 15657699
0.51810002 -0.092012107 -0.012153143 15920870
0.52388895 -0.095606178 -0.015944658 16052456
0.53000003 -0.099087484 -0.019875765 16052457
0.5150001 -0.084770866 -0.01489882 16118249
0.52075005 -0.08882454 -0.018615292 16249836
0.49900001 -0.071096607 -0.010536042 16052455
0.50504875 -0.073867895 -0.01430067 16118249
0.51093346 -0.078299187 -0.016292363 16184043
0.49713629 -0.064302094 -0.013806838 16117992
0.50157899 -0.066647224 -0.01763708 16183530
0.48727596 -0.052827962 -0.013163185 15986407
0.49274418 -0.05652722 -0.016178593 16183785
0.47822225 -0.041392703 -0.011341974 16052455
0.48368195 -0.045329347 -0.015025388 16117991
0.49000001 -0.04916653 -0.019522805 16249834
0.47565001 -0.03459014 -0.01305556 16052455
0.48137927 -0.035947904 -0.017627079 16052711
0.46890002 -0.023339529 -0.011327587 15723746
0.4733167 -0.025482351 -0.015470295 15724003
0.46839288 -0.014573785 -0.012240762 15592417
0.47177777 -0.015604887 -0.016666718 15658210
0.46865222 -0.0067639686 -0.012233231 15197660
0.47192305 -0.0049229572 -0.016386691 15066331
0.47421429 0.0025629606 -0.01531116 13948364
0.51866668 -0.10101625 -0.00042841467 15131612
0.52370971 -0.10285593 -0.0056119589 15262940
0.53060007 -0.10739791 -0.0082226703 14868184
0.51616979 -0.094387397 -0.0043820161 15591905
0.52111113 -0.098374531 -0.0076164911 15657697
0.50672412 -0.082671657 -0.0031765532 15855077
0.51155263 -0.08687976 -0.0058563589 15855077
0.4972069 -0.072449237 -0.0034793261 15854563
0.5026471 -0.076811515 -0.0055984491 15855076
0.48757145 -0.061397631 -0.0019807778 15854820
0.49285707 -0.065900289 -0.0051392592 15920612
0.47833335 -0.050982643 -0.00076877233 15657697
0.48389074 -0.054970127 -0.0047901724 15855076
0.49000001 -0.059490416 -0.0080518154 16052455
0.46866667 -0.040808979 -0.00038714011 15920869
0.47532761 -0.044554591 -0.0041154167 15855076
0.4802857 -0.048192132 -0.0069286921 15789540
0.46583933 -0.033835672 -0.003535111 15789540
0.47159263 -0.036693051 -0.0076281279 15920869
0.45900002 -0.021879129 -2.0724525e-05 15526111
0.46399996 -0.02496174 -0.005151757 15723490
0.45900008 -0.014249985 -0.00045053553 15526368
0.46347991 -0.015169743 -0.0058034915 15460831
0.45900002 -0.0082326336 -0.00023562997 15066331
0.4642823 -0.005100925 -0.0051998473 14803159
0.46738777 0.0026566195 -0.0044711875 13487555
0.47000003 0.0032696975 -0.0095569678 13421507
0.51739126 -0.10183931 0.0048162355 14868440
0.52000004 -0.10452189 0.0011938507 14933976
0.50825 -0.090559766 0.0086025326 15328734
0.51330185 -0.095180929 0.0051865163 15262941
0.49879998 -0.081343785 0.0079172747 15591906
0.50457442 -0.085167609 0.0049993489 15591906
0.51000005 -0.089378744 0.0017678516 15591906
0.48833334 -0.071482815 0.0083607463 15657699
0.49446812 -0.074892074 0.0047994233 15723492
0.50075001 -0.079259172 0.0020281221 15723492
0.47900003 -0.060397618 0.0089491541 15591904
0.48518521 -0.064613044 0.0054619289 15657699
0.49050003 -0.068450786 0.0024174864 15723236
0.46833333 -0.050647605 0.009480265 15526111
0.47527087 -0.054138068 0.0062296926 15526112
0.4812631 -0.057779375 0.0031786885 15657699
0.45900002 -0.041399706 0.0085754935 15723490
0.46484786 -0.0442109 0.0061238278 15723490
0.47263166 -0.048009161 0.0029448532 15657698
0.45719996 -0.034405243 0.0069309161 15658210
0.46151736 -0.036215875 0.0027711887 15789283
0.44900003 -0.02192802 0.0094397804 15395038
0.4551374 -0.025093284 0.0051587201 15526624
0.46000001 -0.028388005 0.0010560985 15658210
0.44900003 -0.017197993 0.0094397804 15329758
0.45361027 -0.014773411 0.0051642065 15329501
0.45614088 -0.0056361761 0.0057616853 14605522
0.46100003 -0.0020079217 0.0021364333 14145742
0.45862505 0.00081984425 0.0082992697 12764090
0.46303338 0.0024656423 0.0038768882 12698297
0.51060003 -0.1002418 0.013123167 14736597
0.5064348 -0.094456546 0.016209448 14868696
0.5105834 -0.097549088 0.012028508 14933976
0.49519047 -0.083396837 0.01598151 15263197
0.50252378 -0.087902866 0.013361244 15197405
0.48582008 -0.073933281 0.015349516 15526111
0.49156255 -0.078021713 0.012417682 15460319
0.47586051 -0.06342458 0.016317295 15460318
0.48144117 -0.066939421 0.013068615 15526112
0.45777783 -0.051887862 0.018196091 15394525
0.46491179 -0.053983659 0.015242929 15460061
0.47266668 -0.057810728 0.013253789 15525855
0.44900003 -0.040848125 0.019950952 15789283
0.45525002 -0.044431448 0.015485521 15657440
0.46218184 -0.048246585 0.011780842 15657697
0.44777277 -0.03397407 0.017558437 15592160
0.45245841 -0.035868641 0.013214029 15723490
0.44572094 -0.024814986 0.015497341 15395038
0.45050001 -0.028154252 0.010877098 15460831
0.44620234 -0.015045837 0.015160426 15197659
0.45000002 -0.010388817 0.010514263 14869464
0.44812497 -0.0067233918 0.017233947 14408142
0.45220843 -0.0039504976 0.013649371 14079435
0.45626098 0.0015438526 0.013950901 12369331
0.49805883 -0.092088416 0.026930198 14736596
0.50297296 -0.095596671 0.023645867 14605267
0.48733333 -0.081680544 0.0270514 14999767
0.49329159 -0.086120777 0.024751989 15000024
0.47689477 -0.071885295 0.026002701 15065561
0.48354176 -0.076401107 0.024074556 15131611
0.4659231 -0.06278149 0.025692075 15197146
0.47278947 -0.067365326 0.024581831 15197147
0.45442253 -0.054251689 0.025387242 15197146
0.46059999 -0.05829338 0.022622466 15328732
0.44675407 -0.043719474 0.026117297 15460318
0.45133334 -0.047506783 0.022481253 15460318
0.43813047 -0.033127915 0.028429894 15394525
0.44313446 -0.035689577 0.024232898 15591904
0.4366715 -0.0245988 0.026506659 15263452
0.44103327 -0.025878025 0.021763494 15395038
0.43695387 -0.015198467 0.026711196 14934744
0.44111428 -0.013868775 0.022135815 14934744
0.43880001 -0.0086919302 0.028947944 14145741
0.44446757 -0.0050875647 0.024874711 13816776
0.44858333 0.00049548189 0.025356969 12369332
0.45100003 0.00014608743 0.020039821 12566709
0.49675679 -0.093223497 0.035145923 14407631
0.50100005 -0.097185209 0.032348506 14341839
0.48600003 -0.08309143 0.035910051 14605010
0.49187997 -0.087540828 0.034936868 14605010
0.46885714 -0.071035482 0.037139814 14605011
0.47395751 -0.07445398 0.034723692 14670804
0.48058334 -0.078973271 0.033727784 14605011
0.4581053 -0.061658174 0.036381654 14736596
0.46396223 -0.065969765 0.034710217 14736597
0.47000003 -0.069165297 0.030786578 14999769
0.4472433 -0.052830473 0.036477663 14802389
0.4529143 -0.056146692 0.033330295 14868183
0.43738887 -0.042667136 0.036751598 15197146
0.44273916 -0.04641236 0.033859834 15131353
0.42785713 -0.03162802 0.039042238 15328732
0.43373913 -0.035196133 0.034657031 15328731
0.42699987 -0.024911409 0.037843756 15197402
0.43154547 -0.025154578 0.03267096 15263451
0.42746156 -0.017564315 0.038350794 14737621
0.43240008 -0.014320957 0.034128454 14671571
0.43698043 -0.0070542367 0.036039613 13750726
0.44234371 -0.0029911937 0.033244498 13224639
0.44621056 0.0010261141 0.034056943 11908780
0.45000002 0.0033061379 0.031583425 11909038
0.4938572 -0.093601316 0.044755023 14078665
0.47757146 -0.080661587 0.047411807 14078665
0.48400009 -0.084514529 0.045165401 14276044
0.49111113 -0.089007169 0.043791015 14276044
0.46632147 -0.071941197 0.045474537 14144715
0.47255173 -0.07660415 0.045485951 14210507
0.45592302 -0.063037701 0.045397915 14078665
0.46230778 -0.068160258 0.044223733 14210508
0.43900001 -0.050215434 0.048282403 14210766
0.44541824 -0.054316513 0.045590237 14144715
0.45100001 -0.05860227 0.043566048 14210251
0.42781818 -0.041288715 0.047503773 14802901
0.43476805 -0.045067355 0.044742908 14736852
0.44033337 -0.048822094 0.041384533 14670803
0.41800001 -0.030199515 0.049886946 14934487
0.42469889 -0.034742359 0.045403931 15065816
0.43040004 -0.0381491 0.041290402 15262939
0.4178611 -0.024402615 0.048537169 15065817
0.42229718 -0.025273949 0.043698628 15131866
0.418125 -0.018584512 0.049044181 14802903
0.42408794 -0.015268124 0.04494046 14342864
0.43000001 -0.011336384 0.042259373 13685190
0.42722225 -0.0090841847 0.048873916 13224382
0.43455842 -0.005129965 0.04496602 13093054
0.44000003 -0.00088752358 0.040152002 12894906
0.4367778 0.00048248883 0.047692828 12171697
0.44100001 0.00048775823 0.040586606 12434355
0.48760003 -0.090932004 0.053621948 13947079
0.49160004 -0.093597904 0.053916417 13881286
0.47618186 -0.082779579 0.05550937 13881286
0.48329166 -0.087389618 0.053665519 14012872
0.46661118 -0.072494477 0.054869954 13683907
0.47220001 -0.077894449 0.055118944 13815493
0.45550007 -0.063556783 0.054861404 13749700
0.46209526 -0.068313174 0.055458587 13683907
0.4385455 -0.05109708 0.055043709 13815494
0.44467211 -0.05560331 0.054651134 13881287
0.45000002 -0.059901346 0.053706046 13947337
0.41900003 -0.040080629 0.058834277 14605011
0.42452011 -0.042862736 0.05568704 14276302
0.43271878 -0.047475696 0.054138009 14078922
0.41632926 -0.034136992 0.055836022 14802645
0.4210386 -0.037017111 0.051802304 14868695
0.40900001 -0.022846948 0.059345067 14934233
0.4133693 -0.024983898 0.054987989 15000281
0.40900001 -0.01997452 0.059345067 14868696
0.41503963 -0.01531869 0.055570375 14539988
0.42093337 -0.012015875 0.051549722 14145743
0.41791669 -0.0087501584 0.058028236 13422021
0.42316669 -0.0067020399 0.054566417 12961214
0.43206254 -0.0025115423 0.052131638 12698043
0.43440002 0.00014071038 0.052858837 12566714
0.48775002 -0.091474719 0.065349735 13618372
0.49157143 -0.09371274 0.064995572 13486786
0.47673911 -0.082387015 0.064226292 13881544
0.48331583 -0.087269992 0.065629505 13815751
0.46618915 -0.072385065 0.065042153 13881544
0.47236115 -0.077688314 0.064976394 13881544
0.45657143 -0.06465295 0.064974688 13947081
0.46112499 -0.068467185 0.064273186 13881545
0.43665513 -0.051994402 0.064729854 13552323
0.4441843 -0.056976289 0.064966857 13684166
0.41800007 -0.041189875 0.065842964 14013131
0.4241429 -0.04436342 0.065086335 13815752
0.43162504 -0.048616275 0.064647511 13552580
0.40817857 -0.03191423 0.067209505 14671060
0.41371441 -0.036177766 0.06398885 14473425
0.4063333 -0.024887295 0.065294661 14934232
0.41040006 -0.028882107 0.060892887 14999769
0.40633053 -0.015499071 0.06562911 14539733
0.41118753 -0.012497773 0.061225243 14342352
0.40755001 -0.0084067341 0.067097999 12040371
0.41357142 -0.0084370049 0.06159256 13224385
0.42100003 -0.0042986888 0.060100675 12303284
0.48400006 -0.090487443 0.072111152 13749702
0.47616008 -0.083877623 0.075660914 14012874
0.48162502 -0.087508969 0.07213413 13815752
0.46583334 -0.073830418 0.075799607 14012874
0.47155556 -0.078146234 0.07393676 14013130
0.44900003 -0.061870467 0.079864629 13815495
0.45471433 -0.064831451 0.07465636 13881288
0.46028572 -0.069890819 0.074327603 14012874
0.43539289 -0.052320685 0.074344032 13749702
0.44453853 -0.057382029 0.073702723 13749959
0.40900001 -0.04056026 0.078973331 13947339
0.41529167 -0.041753616 0.07519006 13749959
0.42372984 -0.045982257 0.074451298 13749702
0.43024999 -0.049214557 0.071996145 13815495
0.39850003 -0.030656476 0.078811109 14473938
0.40516889 -0.034081638 0.075326458 14210510
0.41247621 -0.038355738 0.072764412 14012874
0.39718667 -0.024444856 0.077115186 14802646
0.40131488 -0.025708821 0.072561614 14868439
0.39731821 -0.015328119 0.077474587 14408402
0.40145454 -0.014318866 0.072712623 14013902
0.39900002 -0.0092114182 0.078443542 10395294
0.40205404 -0.0078573832 0.074931934 10724509
0.47372139 -0.083958782 0.084637284 13749702
0.48000002 -0.089739606 0.084535897 13289666
0.45900002 -0.070770122 0.089165039 13815495
0.46532214 -0.075042211 0.0850894 13881288
0.47000003 -0.079067811 0.080849245 13947081
0.4465417 -0.062318098 0.085732006 13947081
0.45441386 -0.066734478 0.084203489 13881288
0.42600003 -0.050722972 0.087242208 13947081
0.43629265 -0.054496612 0.085941061 13881544
0.44160715 -0.058010273 0.08400806 13881545
0.40795457 -0.041846778 0.086756319 14012875
0.41283333 -0.044568893 0.085504889 13947082
0.42352945 -0.04850655 0.085363716 13815496
0.39598039 -0.032156389 0.086182863 14078924
0.40343052 -0.036973841 0.084369481 14012875
0.38853848 -0.023313496 0.089540087 9078659
0.39298359 -0.024842534 0.084706903 14276303
0.38866672 -0.018829329 0.089453042 10197910
0.39315087 -0.014695087 0.084842175 14079181
0.39542261 -0.0068536894 0.085895121 11382438
0.40000007 -0.0043822126 0.081874996 10395542
0.46871427 -0.082143649 0.099202886 13420737
0.47193336 -0.084186614 0.094347157 13486531
0.45893341 -0.07111802 0.095955864 13881288
0.46537039 -0.076242365 0.094472371 13749446
0.43858334 -0.060948942 0.096919417 14209998
0.44390914 -0.063302159 0.094731919 14078667
0.45490003 -0.068171047 0.094385222 13947081
0.41420001 -0.050480984 0.09771692 14078413
0.4246667 -0.052442491 0.096520513 14078413
0.4343273 -0.056142826 0.093847431 14144461
0.44000003 -0.059600256 0.090624347 14012874
0.39725 -0.041488476 0.09779945 14275534
0.40442103 -0.043790027 0.094728217 14144206
0.41255558 -0.047942031 0.095476441 14078669
0.38819051 -0.031638641 0.09708745 11381153
0.39364207 -0.035617795 0.094638623 13748933
0.40100002 -0.03898501 0.09119498 14078412
0.38442397 -0.024958882 0.09478271 2633260
0.39000002 -0.029089577 0.090369098 7170150
0.38476422 -0.015386586 0.094941057 3093810
0.39000002 -0.011742633 0.090369098 8356476
0.38818747 -0.0087047992 0.096534692 12895934
0.3911092 -0.0057631014 0.0948871 13027263
0.46572101 -0.082686067 0.10509173 13618118
0.47000003 -0.08566948 0.10010412 13354944
0.44900003 -0.070980154 0.10719367 14012620
0.45711905 -0.073744722 0.10548375 13946827
0.4619706 -0.07746391 0.10366709 13749448
0.43597871 -0.063904889 0.10575104 14012620
0.44330001 -0.067934617 0.10551705 14078413
0.45350003 -0.069656409 0.10322368 14012620
0.39750004 -0.050121196 0.10699467 14012620
0.42633334 -0.057417393 0.10810456 13815241
0.43290004 -0.059245788 0.10424799 14012620
0.39475542 -0.043736242 0.10520809 14144205
0.40190914 -0.047176253 0.10107701 14144206
0.38670117 -0.033525396 0.10585113 10526359
0.3912369 -0.037811812 0.10320825 13749445
0.37828338 -0.023713905 0.10742978 2370854
0.38153017 -0.025686173 0.10306963 2436136
0.37848842 -0.016835572 0.10770836 2436392
0.38143009 -0.014090551 0.103915 2831666
0.38728049 -0.0067224023 0.10532642 12369588
0.39097735 -0.0022221408 0.10392673 13027263
0.39537284 0.0031041773 0.10691983 12500919
0.4029268 0.0057812757 0.10409047 10263956
0.40000001 0.011179172 0.10916702 10001039
0.45828578 -0.080774859 0.11753052 13815497
0.46248382 -0.082870394 0.11435644 13749448
0.44550008 -0.073340252 0.11744323 13684168
0.45581084 -0.076972649 0.11417415 13881034
0.46000001 -0.079539247 0.11143509 14012620
0.43387032 -0.064461678 0.11360267 13749704
0.44020003 -0.069520019 0.11415954 13815498
0.39559996 -0.052043319 0.11673082 14078668
0.43033338 -0.058962729 0.11113211 13881034
0.38815153 -0.042252861 0.11711552 13552065
0.39300001 -0.046326652 0.11400714 14012875
0.37900004 -0.030043593 0.11532483 2304548
0.38514411 -0.035633482 0.11507407 11381156
0.37565279 -0.024568664 0.11513478 2239011
0.38000003 -0.029233279 0.11029161 2633513
0.37618607 -0.015286745 0.1153468 2633768
0.38063639 -0.010893323 0.11274285 7435628
0.37900001 -0.0096369386 0.11976107 12303539
0.38611585 -0.0049715573 0.11510514 12434867
0.39000002 -0.00078666862 0.11045504 12961469
0.38875863 0.0012246709 0.11694341 12961467
0.39273259 0.0055175801 0.11442535 12829883
0.39760002 0.011159785 0.1164649 12303797
0.40139583 0.014350289 0.11548988 11250851
0.40850002 0.020693483 0.11951979 10593176
0.4526667 -0.081804231 0.12542458 13552582
0.46300003 -0.084393553 0.12029103 13815754
0.43279999 -0.071189694 0.12845364 13617862
0.44635415 -0.075557262 0.12389074 13552069
0.45000002 -0.079616062 0.12519071 13552582
0.39600006 -0.060394403 0.12791407 14012618
0.43333334 -0.068950363 0.12472704 13552326
0.38875002 -0.051065702 0.1292119 14539218
0.39368692 -0.054293282 0.12514721 14078667
0.38653573 -0.044335116 0.12569004 14078410
0.39109999 -0.04830816 0.12216298 14144461
0.37753335 -0.031696904 0.12633432 5920338
0.38306591 -0.036333997 0.12479458 12170413
0.37247476 -0.02524253 0.12489777 1975584
0.37282741 -0.015465797 0.12501623 2961451
0.377 -0.0095860837 0.12442447 12764090
0.3843838 -0.0041226647 0.12497468 12500658
0.38756001 0.0036245161 0.12579082 12961467
0.39125723 0.0077963793 0.12300222 12961467
0.39526793 0.013655907 0.12580581 12829883
0.40224993 0.01729003 0.12303547 12303541
0.39900002 0.020678699 0.12981719 12764090
0.40639132 0.021267774 0.1255399 11842990
0.41193336 0.025016325 0.12586151 11382437
0.44766667 -0.080901034 0.13761449 13552069
0.45348656 -0.083236881 0.13411556 13420996
0.43597957 -0.074286968 0.13640489 13552068
0.44399998 -0.077813171 0.13516188 13420740
0.45066667 -0.079331584 0.13255852 13486789
0.39419052 -0.062251307 0.13633335 14144460
0.43214291 -0.069520362 0.13482012 13486276
0.38675314 -0.053186521 0.13582788 14473425
0.39201924 -0.057780307 0.13368212 14276046
0.3827225 -0.044844795 0.13484287 13815238
0.36822224 -0.03024321 0.13752364 1976096
0.37546152 -0.032746084 0.13504364 6841951
0.38088885 -0.037327372 0.13479088 11381152
0.366263 -0.024592742 0.1355035 2041632
0.37074071 -0.025503041 0.13097224 1778460
0.36667001 -0.016195737 0.13621677 2435618
0.37132657 -0.01468685 0.13209583 3487279
0.37761542 -0.0089210337 0.13550593 11381149
0.38158005 -0.0041861432 0.13494466 12105901
0.38530296 0.0046455455 0.13498755 12895674
0.38871428 0.010948689 0.13621859 13027261
0.39320552 0.01595878 0.1346072 13224640
0.39754102 0.022848548 0.13624853 13356227
0.40111113 0.023503171 0.13164152 12369078
0.41183338 0.026968488 0.13077798 11382437
0.43850002 -0.080954336 0.14267111 13354944
0.44500002 -0.082154341 0.14790884 13157565
0.43451166 -0.074881084 0.14416803 13223358
0.38751355 -0.062373336 0.14762615 14276303
0.39237499 -0.064176597 0.14309011 14078668
0.38363242 -0.054947965 0.14516136 14342352
0.39000002 -0.059218481 0.14058393 14078667
0.37899986 -0.043594256 0.14744312 12104619
0.3805117 -0.046390563 0.1434397 13618116
0.36841178 -0.030777283 0.14593923 1252116
0.37649438 -0.036059566 0.14528462 9341829
0.38000005 -0.038751855 0.14124922 11249823
0.36509618 -0.024926607 0.14473711 1317651
0.36421612 -0.015980614 0.14504491 1909530
0.37 -0.011140446 0.14290243 11118746
0.37846667 -0.0083820131 0.1446363 10855834
0.38084707 -0.0040591746 0.14496124 11514021
0.38346016 0.0046862224 0.14486282 12500918
0.38759205 0.012606503 0.1455979 12961468
0.39126322 0.01740386 0.14421777 13356226
0.39485574 0.024446247 0.14528634 13422020
0.39900002 0.030953428 0.14709741 12698300
0.40028572 0.032124687 0.14870915 12566714
0.44264287 -0.081905544 0.15574725 13289410
0.4390001 -0.076842397 0.15208079 13157565
0.44037503 -0.078723617 0.1547492 13354946
0.38686955 -0.063027315 0.1552982 12763063
0.38195878 -0.055021051 0.15424863 12894905
0.37899983 -0.0443874 0.1531363 11447202
0.38000008 -0.046594568 0.15597619 10987167
0.36500007 -0.032032613 0.15609336 1909019
0.37741172 -0.037569039 0.15257299 9342340
0.38000003 -0.03990832 0.15743971 9211014
0.36527744 -0.025051164 0.15553254 791051
0.36413643 -0.015521373 0.15519896 1972241
0.38109526 -0.0041919807 0.15327722 9803403
0.38309211 0.0046034129 0.15297326 10921886
0.38736668 0.013766623 0.15312895 11908781
0.39044446 0.018814038 0.15389572 12763576
0.39429876 0.025055008 0.15355565 13092541
0.3985295 0.031356208 0.15523651 12501176
0.40339211 0.03540026 0.15507226 12369591
0.41120005 0.039407518 0.15496057 12500922
0.4086667 0.040313605 0.15879232 12040624
0.41425005 0.042943012 0.15737145 12500921
0.42615384 0.045188587 0.15706541 12303542
0.43318522 0.047651891 0.15647976 12171953
0.45650005 0.048666172 0.15290242 12500404
0.46500003 0.049676027 0.15073237 12106160
0.42800003 0.050236423 0.15979144 12632250
0.43575764 0.053128745 0.1583996 12698039
0.44447371 0.055975288 0.15736233 12565939
0.45551285 0.054826051 0.15472569 12565427
0.46484435 0.055091824 0.15144733 11053472
0.44600001 0.062397115 0.15867746 12500402
0.45392311 0.061447673 0.15674792 12039339
0.44400004 -0.083528847 0.16004941 13289410
0.38700002 -0.063292824 0.16033992 6907230
0.36176801 -0.032307629 0.16400702 1843224
0.36251798 -0.024872608 0.16510615 1251600
0.36464927 -0.015910627 0.16487098 1710353
0.40650001 0.039148249 0.16032967 11579559
0.41338465 0.044657186 0.1609222 11908782
0.42450002 0.049825609 0.1614666 12434871
0.42785713 0.051508892 0.1628152 12434870
0.43222064 0.0561698 0.16394614 12434868
0.44000003 0.059885304 0.16066761 13026488
0.43657696 0.061818965 0.16510963 12105647
0.44258979 0.064490676 0.16219366 13026745
0.34681574 -0.033130798 0.17866279 1712152
0.35603282 -0.032362416 0.17654118 1054736
0.36062962 -0.032277327 0.17220744 1646616
0.34698391 -0.024989139 0.17875056 1383959
0.35590819 -0.02519251 0.17607395 989200
0.36044672 -0.024208115 0.17165379 1581079
0.34721211 -0.016438171 0.17919806 1317654
0.35451198 -0.016706828 0.17727052 923151
0.3630639 -0.016309967 0.17191675 1317393
0.33872724 -0.033626903 0.18902235 1646617
0.34236941 -0.033310458 0.18390827 1581080
0.33888569 -0.023940645 0.18898 1514773
0.34202802 -0.025118541 0.18378228 1449494
0.33850005 -0.016585846 0.18776239 1448980
0.34241301 -0.016765939 0.18308115 1317910
0.354 -0.010658697 0.18064505 1317653
0.33818749 -0.032547217 0.19093306 1515030
0.33854297 -0.025457533 0.19107582 1515030
0.33800003 -0.01762802 0.19100909 1515031
