# .PCD v0.7 - Point Cloud Data file format
VERSION 0.7
FIELDS x y z rgb
SIZE 4 4 4 4
TYPE F F F U
COUNT 1 1 1 1
WIDTH 642
HEIGHT 1
VIEWPOINT 0 0 0 1 0 0 0
POINTS 642
DATA ascii
0.55400002 -0.011492864 -0.070058912 12105136
0.52649999 0.035293225 -0.070278898 12499379
0.51130009 0.046848096 -0.071241766 12171183
0.51361537 0.054649964 -0.071517877 14143945
0.51559263 0.06507989 -0.072175443 15525597
0.51718193 0.073583126 -0.071621567 13881544
0.54422224 -0.02367609 -0.062169358 13683654
0.54636663 -0.014274281 -0.063213192 14275791
0.5514546 -0.013082814 -0.067742892 12105137
0.53855562 -0.0017870648 -0.062363029 15525598
0.54400003 -0.0060567921 -0.064081833 14341582
0.551 -0.0088508269 -0.068389624 12105136
0.53572977 0.0042999885 -0.062937081 15656927
0.52825004 0.019029181 -0.060928944 15261656
0.53223264 0.014541456 -0.064210169 15261913
0.52648777 0.026411988 -0.06336841 15393755
0.53061122 0.022253657 -0.066273861 15196120
0.52450854 0.035107527 -0.065023765 15722463
0.51747727 0.046722017 -0.064829998 15722462
0.52172422 0.042871673 -0.06555777 15656925
0.51570821 0.055094574 -0.065216102 15722719
0.51452386 0.064636208 -0.065357506 16117477
0.51581049 0.074431762 -0.064902641 15130839
0.51700002 0.080047682 -0.065985039 12369073
0.54900002 -0.051230922 -0.050148323 16776180
0.55284387 -0.05385755 -0.053534191 16446958
0.54671431 -0.044074506 -0.053928029 16709616
0.55137503 -0.048225749 -0.056820624 15789284
0.53900003 -0.030108819 -0.050496686 16380650
0.54403847 -0.034654252 -0.054672614 16578030
0.53831255 -0.023691725 -0.051614489 16183271
0.54224461 -0.025131021 -0.056615833 16249066
0.53714705 -0.015248909 -0.053248875 15985894
0.54195005 -0.015556092 -0.05838839 15986151
0.52825004 -0.001993746 -0.051035799 15854308
0.53506249 -0.005467122 -0.05514821 15920101
0.54100001 -0.0090079885 -0.059233453 15920101
0.52593344 0.0058293035 -0.052149471 15459550
0.53193748 0.0040599308 -0.056997813 15722721
0.51875007 0.018687241 -0.051332101 15196376
0.52433962 0.015057569 -0.05508332 15196376
0.53066665 0.011558995 -0.059240401 15393242
0.51753342 0.025689024 -0.052728198 15327962
0.52230769 0.024433024 -0.057165477 15262169
0.51547444 0.035300773 -0.054151829 15656670
0.52100003 0.033708233 -0.059177831 15525340
0.509 0.049019579 -0.050069261 15985890
0.5133788 0.044920858 -0.054918267 15722718
0.50772727 0.056674514 -0.051565539 15920097
0.51162738 0.054764602 -0.055733602 15788255
0.50745839 0.06490875 -0.052295994 16314343
0.51128566 0.065141752 -0.057563324 16379879
0.50683331 0.073659122 -0.05190219 15262169
0.51122218 0.073923014 -0.056539696 15722977
0.54650003 -0.060591124 -0.042247273 16051430
0.55166668 -0.060519997 -0.046519864 15525343
0.53800005 -0.051622514 -0.041115299 16709615
0.54467863 -0.054516193 -0.044294912 16578030
0.55140007 -0.057136763 -0.048302539 16512494
0.53634381 -0.04416544 -0.043544106 16643822
0.54300004 -0.046199478 -0.048055585 16709616
0.52900004 -0.030788612 -0.04089104 16314857
0.53475004 -0.035008285 -0.044790894 16512236
0.54025 -0.03713556 -0.049349055 16643822
0.52629423 -0.024112627 -0.041553285 16051686
0.53342104 -0.025757376 -0.046169732 16183271
0.51833338 -0.013180587 -0.040673234 15854308
0.52470005 -0.01547288 -0.043471579 15854308
0.53161901 -0.015830776 -0.048206277 15985892
0.51757145 -0.0044492818 -0.042374618 15788515
0.52346164 -0.0049217949 -0.046737656 15788514
0.53066671 -0.0085249888 -0.049715966 15920101
0.51578259 0.0054139039 -0.043630339 15459549
0.5221765 0.0039052696 -0.04820269 15525342
0.51450825 0.015368117 -0.044997673 15196377
0.52000004 0.013559061 -0.049933981 15262169
0.50776464 0.026243553 -0.041138645 15393757
0.51263994 0.024500139 -0.046042647 15327962
0.50607908 0.035423424 -0.042741064 15722721
0.51096666 0.034015775 -0.047512885 15656927
0.49899998 0.048056524 -0.040908411 15591136
0.50488681 0.045163829 -0.044722628 15722721
0.51033336 0.042178389 -0.048607752 15722720
0.49786368 0.055890478 -0.041823059 15525342
0.50353068 0.054598756 -0.046772443 15788513
0.49568298 0.06528037 -0.042737797 15394269
0.50309998 0.064703189 -0.048079133 15722463
0.48866668 0.073372848 -0.040442862 13881545
0.49455553 0.072798781 -0.043899339 14868696
0.50266671 0.072337963 -0.04866384 15854306
0.53800005 -0.060909916 -0.035919122 15854050
0.54150003 -0.060672335 -0.038689874 16051174
0.52766669 -0.051300261 -0.031730574 16709615
0.53395456 -0.055426478 -0.035090212 16512236
0.54050004 -0.058662899 -0.039249331 16314602
0.51816672 -0.042491745 -0.03075394 16512236
0.52484381 -0.044332605 -0.034278646 16512236
0.53115797 -0.046360981 -0.038048275 16578029
0.51637042 -0.035114307 -0.032307174 16380650
0.52464521 -0.034973193 -0.037232805 16446443
0.53000003 -0.038911618 -0.039727595 16446443
0.51446509 -0.024398692 -0.033811033 15985894
0.523 -0.026035635 -0.038469531 16117480
0.50857145 -0.013103485 -0.031148136 15854308
0.5134601 -0.014859693 -0.035493352 15854308
0.52000004 -0.019308833 -0.038978018 15920101
0.50656527 -0.0044786613 -0.032095939 15722722
0.51265854 -0.0056318431 -0.037087806 15788515
0.50498003 0.0053153578 -0.033533778 15393757
0.51095462 0.0039696619 -0.038463965 15591136
0.49853852 0.016228972 -0.030726044 15130585
0.50455111 0.014939223 -0.035395466 15196378
0.51025003 0.012706699 -0.03944169 15262171
0.49751851 0.025524698 -0.031730682 15196378
0.50339526 0.02455293 -0.036642838 15327964
0.49642864 0.035521206 -0.033376046 15459550
0.50200003 0.033904258 -0.037742596 15591136
0.48860008 0.047969349 -0.031134192 15393244
0.49447626 0.045026295 -0.035404593 15459550
0.50033337 0.041156411 -0.039846431 15656929
0.48572227 0.055992246 -0.032495938 15327963
0.49292305 0.054241274 -0.037190717 15459549
0.47790918 0.066364534 -0.030534836 15854306
0.48399997 0.065165699 -0.034622539 15657183
0.49127275 0.063516445 -0.038811997 15459548
0.47712499 0.071779162 -0.031158838 13749958
0.48363158 0.072019987 -0.036320921 14341836
0.51620001 -0.060978778 -0.021293798 16051687
0.52000004 -0.060698029 -0.024370067 16117478
0.53050005 -0.060681753 -0.029209424 16117480
0.50800002 -0.050972648 -0.020239968 16183271
0.51252943 -0.054539163 -0.021622337 16315371
0.52615392 -0.055823479 -0.027884213 16446443
0.53079998 -0.057981759 -0.029598514 16314858
0.50680953 -0.044131014 -0.021098737 16249578
0.51339996 -0.044844862 -0.02578257 16315371
0.52100003 -0.047398381 -0.029295612 16512236
0.5056842 -0.034229577 -0.023020132 16118248
0.51111114 -0.035864707 -0.027633213 16315370
0.49883333 -0.022805365 -0.021237219 15854306
0.50466675 -0.025215419 -0.025566325 15920356
0.5104 -0.027317757 -0.029894436 16051685
0.49732006 -0.014187758 -0.022144981 15722721
0.50376081 -0.01550195 -0.026898088 15788514
0.49479067 -0.0047437795 -0.023468839 15656929
0.50257146 -0.0057789339 -0.028373534 15722722
0.48812503 0.0062980182 -0.020733904 15327964
0.49470165 0.0048334082 -0.025005229 15327964
0.5007143 0.0026724308 -0.02915992 15459550
0.48660007 0.015738312 -0.021667676 15064792
0.49370208 0.014763786 -0.026416624 15130585
0.48530969 0.02523168 -0.022643223 15196378
0.49246153 0.024679337 -0.027516136 15130585
0.47900003 0.03884165 -0.020205885 15196378
0.48403719 0.035471004 -0.02357661 15393757
0.49145001 0.033924393 -0.02826786 15327964
0.47691667 0.045416016 -0.02174852 15196378
0.48376927 0.044647612 -0.02649376 15327964
0.49000001 0.040880725 -0.029846694 15393757
0.46837503 0.057578355 -0.021265883 15393503
0.47476092 0.055213965 -0.024191175 15327964
0.48212495 0.053479295 -0.028146567 15327963
0.46769994 0.064586498 -0.021536943 15262684
0.47292596 0.064955942 -0.026149537 15394526
0.46833333 0.070685796 -0.021584263 13947595
0.47322226 0.070930578 -0.026863219 14539474
0.50849998 -0.061141863 -0.010736628 16183271
0.51270002 -0.06308753 -0.014632115 15985893
0.49900001 -0.050069589 -0.010536042 16380650
0.50551116 -0.053909816 -0.014099674 16315114
0.51100004 -0.058120105 -0.017037852 16314857
0.49654284 -0.043816786 -0.012681105 16249321
0.50289655 -0.046120234 -0.017035771 16314857
0.48785716 -0.032474093 -0.010627508 16117478
0.49473077 -0.034961455 -0.014646048 16117991
0.50100005 -0.035963841 -0.01890574 16118248
0.48623341 -0.02435725 -0.011673824 15723233
0.49400008 -0.025331574 -0.016849246 15854563
0.47900003 -0.011618992 -0.010113756 15591134
0.48440427 -0.014439936 -0.013374788 15591135
0.49271423 -0.015952038 -0.018151423 15722721
0.47793341 -0.0047717826 -0.010539461 15525341
0.48377982 -0.005197084 -0.015448632 15525343
0.49000001 -0.0084445206 -0.019522805 15722722
0.47630012 0.0049834913 -0.011472594 15130585
0.48340005 0.0044539431 -0.016665673 15262171
0.47564292 0.015235909 -0.013177718 14998999
0.48180646 0.01416147 -0.017707843 14998999
0.46785715 0.025025198 -0.011130593 14998999
0.47515395 0.024227438 -0.014862909 15064792
0.4806 0.024232423 -0.018698655 15130585
0.45846161 0.037876349 -0.011579205 15064792
0.46262503 0.037781131 -0.013969257 15064791
0.47506669 0.033589475 -0.016932182 15130585
0.48000002 0.031056918 -0.019124379 15262171
0.45616207 0.045138396 -0.012263045 15064792
0.46377781 0.045691483 -0.015948318 15130584
0.47180003 0.045797836 -0.019166308 15130585
0.45525581 0.055218663 -0.012594818 14933462
0.46432504 0.054983608 -0.017527159 15196122
0.47000003 0.051865328 -0.019826233 15130585
0.44900003 0.063738026 -0.010531444 15262941
0.45549995 0.063286804 -0.013205684 15131097
0.46309385 0.06438227 -0.017947255 15393755
0.49809092 -0.062701158 -0.0006590336 15985894
0.50431103 -0.064192325 -0.0053062392 15854564
0.51000005 -0.066694275 -0.0089774216 15591135
0.48800004 -0.050966248 -0.00030763811 16052198
0.49535295 -0.054481659 -0.0039439378 16183784
0.50200003 -0.057339985 -0.007915074 16249577
0.47800002 -0.040689494 -0.00058167096 15789285
0.48432434 -0.044036794 -0.0029692727 15986662
0.49320003 -0.04667633 -0.0075995815 16117991
0.47658068 -0.034218036 -0.0017887604 15854821
0.48337778 -0.035378519 -0.0065930113 15986405
0.49000001 -0.039989736 -0.0091989143 16183271
0.47425869 -0.024942972 -0.003152929 15657441
0.48150006 -0.025378803 -0.0082517061 15723233
0.46823075 -0.013678885 -0.00052770146 15262684
0.47395247 -0.015449844 -0.0049483129 15525342
0.48000002 -0.017823538 -0.009011182 15591134
0.46650001 -0.0047658747 -0.0017549773 15196891
0.47317779 -0.005831515 -0.0066008209 15328220
0.45900002 0.0092821606 -2.0724525e-05 14933206
0.46501571 0.0050112763 -0.0031949051 14933719
0.47161916 0.0040931455 -0.0080672605 15065049
0.45789281 0.016185548 -0.001400872 14736084
0.46434698 0.014969865 -0.0056889527 14933462
0.47088242 0.013701513 -0.0093594445 14998999
0.44900003 0.02905116 -2.027301e-05 14867413
0.45538098 0.025543125 -0.003280336 14933206
0.46396008 0.024037376 -0.0085826125 14998999
0.44712508 0.036249671 -0.0010254604 14933206
0.45521551 0.034931634 -0.0065059313 14998999
0.46000001 0.030301316 -0.0097125834 15064792
0.43900007 0.047416721 -0.00027674827 14867411
0.44514072 0.045519482 -0.0040708277 14867413
0.45237043 0.043050889 -0.0079454649 15064792
0.4374865 0.055912603 -0.0016280325 15328218
0.44449994 0.054349054 -0.0064056735 14999255
0.43553132 0.062367678 -0.0029908565 14341325
0.4436667 0.062052708 -0.007931632 14802391
0.48706251 -0.06291423 0.0079588313 15985892
0.49344999 -0.065164693 0.0043289685 15788514
0.47825003 -0.051067144 0.008654804 16051685
0.48418373 -0.054598469 0.0055654314 16051685
0.49158338 -0.05805466 0.0021824578 16183271
0.46850002 -0.04097759 0.0098497486 15854306
0.47512245 -0.04424933 0.0065754396 15854306
0.48190907 -0.047537353 0.0030514656 15986148
0.4662973 -0.033811498 0.0078219883 15788770
0.47243187 -0.036073212 0.0034676904 15789284
0.45877784 -0.022406321 0.0092871729 15459549
0.46481541 -0.024893684 0.0052895574 15525856
0.47014287 -0.027835252 0.0013937505 15591904
0.45648718 -0.014106715 0.0076473034 15262941
0.4636924 -0.015829653 0.0032282157 15328734
0.44900003 -0.0009056775 0.0094397804 14999769
0.45475009 -0.0050162808 0.006389528 15065562
0.46174997 -0.0059594344 0.0018148605 15197148
0.44779173 0.0055999123 0.0085829254 14736340
0.45495164 0.0048528896 0.0042453986 14867926
0.4605 0.0017650523 0.0010572465 14933976
0.43875 0.018115871 0.0092242844 14670034
0.44520006 0.015355675 0.007320629 14604498
0.45343915 0.014538259 0.0030032657 14670291
0.437069 0.025999494 0.0080924584 14670033
0.44508517 0.025015047 0.0041368543 14801619
0.45160002 0.02213406 0.0015642447 14801620
0.42695466 0.037299089 0.0087458128 14801618
0.43353492 0.035258699 0.0057533756 14801619
0.44325009 0.033342235 0.0021393804 14867412
0.42464697 0.045253847 0.0078478409 14670032
0.43380001 0.044597536 0.0030581502 14801618
0.41900003 0.053594042 0.0097899474 14999767
0.42350852 0.055272002 0.0070436499 14933717
0.43276468 0.054958697 0.0020928846 15130583
0.42586663 0.061418153 0.0058862227 14078924
0.4305 0.062119257 0.0019950082 13815236
0.47696668 -0.063606016 0.017654322 15920100
0.48320463 -0.065507472 0.012977588 15854306
0.46775004 -0.051954478 0.018501598 15854306
0.4739376 -0.055237055 0.014841908 15985892
0.48057145 -0.058346711 0.010745981 16051685
0.45855558 -0.041837621 0.018466575 15722720
0.46494344 -0.044765942 0.015393551 15722720
0.4713572 -0.04761412 0.012036298 15788257
0.45627779 -0.034493029 0.016527494 15657441
0.4618462 -0.035948988 0.012160992 15788770
0.44725928 -0.023670387 0.018435786 15394013
0.45455396 -0.025639253 0.013916099 15394526
0.43900001 -0.011676429 0.019506609 15130585
0.44514993 -0.014811167 0.016641546 15196891
0.45215628 -0.015569523 0.012050239 15262940
0.43772727 -0.0041471701 0.018563451 14998999
0.44492182 -0.0051948284 0.014059343 14999513
0.45025003 -0.007760359 0.010520104 15065562
0.42800003 0.0091562383 0.019517642 14407632
0.43471664 0.0051724408 0.016558563 14605011
0.44328207 0.003969891 0.012028725 14605011
0.42623532 0.015042365 0.018407255 14407375
0.43405965 0.014863717 0.01363322 14538705
0.44083336 0.011666066 0.010643433 14538962
0.41645452 0.027073735 0.018280404 14538448
0.42470014 0.024612537 0.015799552 14538448
0.43180558 0.023695387 0.011797898 14604241
0.41432363 0.035403989 0.016774446 14670033
0.42352647 0.03456882 0.012081169 14735826
0.43000001 0.030841736 0.010046963 14670034
0.40900001 0.042740177 0.019131061 14933204
0.41412073 0.045283534 0.014988345 14670032
0.42042857 0.042035725 0.011088477 14670033
0.41533658 0.05502056 0.014997164 14933974
0.41605878 0.060981132 0.015789695 11776424
0.46900001 -0.07121402 0.029623136 15920099
0.47479174 -0.071996957 0.025436254 15196378
0.46554545 -0.063856535 0.027483245 15854306
0.47346514 -0.0657629 0.022990668 15788513
0.45734617 -0.052975409 0.027853854 15722720
0.46414286 -0.055532578 0.024229601 15854306
0.4702 -0.058407795 0.021333069 15920099
0.44839999 -0.042544618 0.028250979 15525341
0.45467696 -0.045181707 0.024563977 15722720
0.46157146 -0.048476778 0.021125909 15788513
0.43857145 -0.031686418 0.029167341 15459548
0.44552457 -0.034652699 0.025872115 15591134
0.45207408 -0.036621943 0.021769611 15656927
0.43625998 -0.024068046 0.02734456 15262169
0.44279999 -0.025938842 0.023147967 15394012
0.42766666 -0.01246122 0.029096713 14933976
0.4342593 -0.014998266 0.02453848 15065305
0.44025004 -0.01866689 0.020850297 15196378
0.4252001 -0.0048282929 0.027500872 14736597
0.43248084 -0.0057213702 0.022675157 14933719
0.41729629 0.0066795293 0.028381608 14407632
0.42378569 0.0044718017 0.024599543 14473425
0.43080002 0.0024226611 0.020889429 14539219
0.4083125 0.017515782 0.028597146 14342352
0.41440302 0.015059303 0.025788149 14341839
0.42173079 0.013383978 0.021926377 14341839
0.40718207 0.02548299 0.026541751 14539218
0.41268179 0.024233926 0.021933839 14604240
0.40599999 0.03516591 0.025026318 14604754
0.4104 0.032797161 0.020157298 14867411
0.40709999 0.044519529 0.025000988 14604239
0.41012505 0.048618551 0.021463541 14209993
0.41217896 0.054737438 0.024911856 13815235
0.41350007 0.060392912 0.022243828 12499891
0.46354046 -0.072583772 0.035954248 15591134
0.47000003 -0.073566422 0.030786578 15591136
0.4577924 -0.063651636 0.03600768 15656927
0.46171886 -0.067442141 0.033346701 15722720
0.44773084 -0.052707411 0.037669454 15525341
0.45396832 -0.056050509 0.033961974 15656927
0.43667999 -0.042593647 0.03780074 15197146
0.44445163 -0.045474656 0.033970948 15459804
0.45033336 -0.049052179 0.030903734 15591134
0.42750001 -0.031762283 0.039134812 15197146
0.43420735 -0.034908738 0.035135664 15328476
0.44180003 -0.037919506 0.031005565 15525341
0.42535385 -0.024500065 0.036829166 15065560
0.43165788 -0.026110258 0.032233395 15262425
0.41679999 -0.013301576 0.038323779 14868182
0.42381012 -0.015740333 0.033952087 14933975
0.42999998 -0.019657923 0.030515263 14999767
0.40818748 -0.0023175094 0.038680643 14407631
0.41436011 -0.0050665555 0.035264619 14670804
0.42154551 -0.0074027018 0.031782527 14802390
0.40606418 0.0053180596 0.036925573 14341838
0.4131887 0.0042173271 0.032004882 14342096
0.40392989 0.015345994 0.035220157 14078666
0.41060001 0.011474765 0.031124491 14276560
0.40243766 0.025001688 0.034753609 14144715
0.40095067 0.034857083 0.034704283 14210508
0.40286541 0.044824068 0.034959797 14210249
0.40828001 0.051516283 0.036068916 13815747
0.41130957 0.055341177 0.033567008 13486784
0.45708334 -0.073508851 0.046072442 15130840
0.46115384 -0.07533963 0.041416101 14999255
0.4466579 -0.063066252 0.047276035 15459548
0.45345104 -0.066317879 0.043578558 15525341
0.43788895 -0.052424941 0.048328359 15196633
0.44326395 -0.05540761 0.044374138 15394012
0.45050001 -0.059440006 0.040582277 15525341
0.42746672 -0.041891549 0.048344571 14999767
0.43392107 -0.045179773 0.044828307 15131097
0.44057146 -0.048774868 0.041234527 15328219
0.41719046 -0.031816527 0.047648527 14933974
0.42434725 -0.035328224 0.044868134 15065560
0.43045452 -0.037879124 0.041203972 15197146
0.40862501 -0.021989673 0.049126539 14473423
0.41454127 -0.024585659 0.045578312 14802388
0.42104357 -0.026521908 0.041377924 14999767
0.4069708 -0.01416494 0.04688454 14605009
0.41293877 -0.015931888 0.042331327 14867925
0.40412167 -0.005100417 0.045129344 14341837
0.41050002 -0.0089970017 0.040342957 14802390
0.3986775 0.0056383847 0.048423171 13947591
0.40125564 0.0045303344 0.043801486 14013128
0.39899999 0.011753178 0.048968568 13618627
0.40006277 0.015381446 0.044601385 13618113
0.39900002 0.028017793 0.047952954 13618114
0.40000001 0.024485903 0.044471025 13683905
0.39899999 0.035361379 0.045950666 13617599
0.39999989 0.032903817 0.041769106 14144455
0.39899999 0.040574305 0.042762212 14143941
0.40114293 0.045060471 0.045218639 13749439
0.40750003 0.052503154 0.044339079 13289146
0.41087502 0.055802505 0.043983515 12170924
0.44775867 -0.072616637 0.056976374 14605009
0.45332149 -0.074600525 0.052389655 14538962
0.43768007 -0.06240255 0.057272628 15327962
0.44368851 -0.0659981 0.054272357 15131097
0.45000002 -0.069382474 0.05054567 15393755
0.42722225 -0.051647276 0.058875263 15130583
0.43407053 -0.055396412 0.054840095 15262426
0.44033337 -0.059302058 0.050834056 15327962
0.41816667 -0.041714538 0.058144692 15065303
0.42349291 -0.044649929 0.054904398 15065303
0.43060002 -0.048247728 0.051389776 15130583
0.40849999 -0.031346764 0.05791745 14868181
0.41425589 -0.035215642 0.055047486 14933974
0.42080003 -0.038283546 0.051205285 15131353
0.40634018 -0.024750032 0.055524979 14736595
0.41121432 -0.028609985 0.051413264 14670289
0.39810005 -0.012454373 0.058694534 14736596
0.40256748 -0.015420688 0.054383978 14736596
0.39722222 -0.0043271286 0.055954445 14144715
0.40031025 -0.0068837795 0.052137464 14473423
0.39660305 0.0047714808 0.054755982 13749955
0.39803585 0.014756032 0.055324949 13289661
0.40000004 0.018295867 0.051109772 13421248
0.39895025 0.025133716 0.055454452 13486528
0.40000004 0.022083113 0.051068153 13552834
0.39894167 0.034684043 0.05508339 13552321
0.39885196 0.041420594 0.056903411 13486527
0.40099993 0.04555599 0.054621898 13420989
0.40399998 0.05025674 0.055593111 12697266
0.43900004 -0.071797282 0.068219915 14406861
0.44348481 -0.072690107 0.063612819 14538446
0.42850003 -0.061051894 0.06835866 14999768
0.43391246 -0.064843133 0.064918973 15064790
0.44100001 -0.069027208 0.061748628 14998997
0.41850001 -0.051054895 0.068805866 14736596
0.42451769 -0.054671362 0.065457128 14999511
0.43030772 -0.057978179 0.061583739 15064790
0.40871429 -0.04142068 0.068871357 14868181
0.41487059 -0.04460723 0.06530679 14933974
0.42146668 -0.047947992 0.061612166 15196376
0.40529481 -0.034302529 0.065636873 14933974
0.41169569 -0.037875917 0.062079459 14999767
0.39729038 -0.023876786 0.067198031 14802388
0.4016307 -0.025968295 0.06308721 14867924
0.39510578 -0.014871453 0.065130003 14671059
0.40000001 -0.019066781 0.060848404 14801618
0.39313406 -0.0052141412 0.064983577 14144714
0.39406219 0.0046602339 0.064895153 13552834
0.39680144 0.014995759 0.065004371 13421248
0.39857531 0.024752647 0.065119587 13487041
0.39826235 0.034716602 0.065124668 13552321
0.39758024 0.043173097 0.065428749 13420991
0.40040001 0.046998046 0.061282873 13157818
0.40250003 0.050070144 0.060756996 12565939
0.42800003 -0.070498072 0.079132833 14078667
0.43476191 -0.071785063 0.073539838 14144203
0.44000003 -0.07402093 0.070023388 14407632
0.42569113 -0.063998982 0.076106831 14802133
0.43148392 -0.067541033 0.07299839 14670547
0.41548577 -0.053535357 0.075798243 14933719
0.42228007 -0.057874013 0.073245339 14867927
0.39900002 -0.040035602 0.079377607 14868181
0.40565827 -0.043777447 0.076026589 14802133
0.41202945 -0.047671571 0.072969861 14802133
0.39596295 -0.033556707 0.076302171 14802132
0.40171105 -0.03703193 0.072827734 14867925
0.38883331 -0.022251839 0.078947522 14802388
0.39297426 -0.02508527 0.07441593 14867925
0.38854107 -0.014920097 0.077891789 14473680
0.39124605 -0.015594622 0.072966456 14670802
0.38870776 -0.0059487089 0.077510737 13816006
0.39073443 -0.0049036602 0.072699927 13881798
0.38900003 0.00012600447 0.079209507 13552832
0.39230576 0.0047864164 0.07503511 13421246
0.39549994 0.014877358 0.074856542 13487040
0.39781862 0.025021363 0.075221688 13750213
0.39827508 0.034692168 0.074793816 13552577
0.39760283 0.043350771 0.074842267 13223354
0.41682607 -0.062850125 0.086417459 14473168
0.4219259 -0.066428177 0.083400242 14407375
0.40649098 -0.05309251 0.086361997 14735827
0.41299999 -0.056880787 0.083653763 14736083
0.39575803 -0.042883001 0.086313829 14802132
0.40238592 -0.047121584 0.083627455 14933205
0.38754541 -0.03318239 0.087105624 14209996
0.39245331 -0.036310509 0.083421566 14867925
0.38595623 -0.025123229 0.085128419 12631220
0.39000002 -0.028633079 0.080326125 14802388
0.38565135 -0.015221907 0.085288666 12565683
0.38713616 -0.0052550822 0.085080706 13618625
0.38883331 0.0021156857 0.086102523 13355710
0.39116678 0.0066035558 0.084111907 13355454
0.3936201 0.014718411 0.085005909 13487040
0.39656532 0.025220834 0.085176826 13750212
0.39731798 0.035008635 0.084621057 13749699
0.39786276 0.041915044 0.084737703 13486526
0.42200002 -0.070004888 0.093338408 14012620
0.40842858 -0.061197359 0.097370252 14472655
0.41448441 -0.064476117 0.094807401 14341326
0.42060003 -0.068657383 0.093784191 14012874
0.39750001 -0.051207427 0.097997747 14406862
0.40407538 -0.05523574 0.094894879 14406862
0.41000003 -0.059375871 0.090684235 14604241
0.38756761 -0.042274784 0.096813954 14735826
0.39353245 -0.046075985 0.094506815 14538448
0.40000001 -0.049500015 0.091749839 14604241
0.38383937 -0.034938935 0.094968848 12301742
0.37842509 -0.023974335 0.096975893 2436393
0.38079029 -0.025685707 0.092416748 2698538
0.37849998 -0.017155448 0.097744919 2567721
0.38124758 -0.014209327 0.093967892 3816762
0.38453102 -0.0053671603 0.094877183 13026745
0.38797477 0.0043877722 0.09521433 13224124
0.39011115 0.0087517155 0.091713622 13289660
0.38900003 0.010370884 0.098560952 13158331
0.3921766 0.014946996 0.094726421 13355710
0.39501646 0.025132366 0.095097125 13750211
0.39626876 0.035301749 0.094672389 13618368
0.39625707 0.04189847 0.095049784 13289404
0.40634799 -0.063265085 0.10538503 14209740
0.41137499 -0.066920675 0.10235796 13946569
0.38860005 -0.051000554 0.10878408 14341068
0.39462689 -0.053392738 0.10517862 14341069
0.40176919 -0.057944395 0.10377186 14406862
0.38478053 -0.044456527 0.10538933 14670289
0.3910909 -0.048814427 0.10160636 14406862
0.37837291 -0.033657644 0.1070547 9275779
0.38106838 -0.036112435 0.10340042 13156793
0.37621418 -0.024845466 0.10519522 2501670
0.3763386 -0.015028908 0.10518242 3355951
0.38033333 -0.010857738 0.10163256 7369064
0.37860003 -0.0096267667 0.10811125 12367532
0.38283452 -0.0050674854 0.10487091 12631731
0.38634378 0.0046137543 0.10502072 13223610
0.38877422 0.012575088 0.10628992 13289147
0.3909421 0.016694933 0.10358187 13486782
0.39305645 0.024948485 0.10491939 13749954
0.39565328 0.035238016 0.10477833 13618112
0.39599994 0.042902369 0.10439643 12565680
0.39711112 -0.062193513 0.11738767 14077896
0.4011111 -0.063308626 0.11283057 14078410
0.38587886 -0.052848659 0.11581814 14143946
0.39333335 -0.057093181 0.11413132 14209482
0.40000001 -0.059800487 0.11047798 14275276
0.37729546 -0.043501582 0.11593418 14933461
0.3816199 -0.047513898 0.11350761 14604496
0.37686542 -0.035144418 0.11511642 9605000
0.37295911 -0.025061093 0.11496034 2238755
0.37349653 -0.015154716 0.11510867 3619379
0.37835488 -0.0088197561 0.11529898 12104873
0.38147914 -0.0039841379 0.11482971 12500144
0.38497633 0.0046186079 0.11509418 12960695
0.38837853 0.014218017 0.11521201 13157817
0.39000005 0.018967269 0.11269603 13486525
0.38900003 0.020160437 0.11882305 13486526
0.39190984 0.02493524 0.11488097 13618112
0.39378327 0.035247054 0.11486688 13552319
0.39423987 0.042268038 0.11525247 12763060
0.3883889 -0.061904404 0.12813123 13683907
0.39330557 -0.062613182 0.12314366 13815238
0.37724394 -0.051746652 0.12645814 14670032
0.38404819 -0.056083847 0.12463006 14012359
0.391 -0.059187721 0.12117169 14012617
0.37449276 -0.044703759 0.12495162 14801618
0.3745153 -0.03498083 0.12500198 7763051
0.36830148 -0.024200091 0.1276959 1646617
0.3706204 -0.025647417 0.12327247 1975583
0.36864722 -0.017444905 0.12773296 2041120
0.37103963 -0.014691924 0.12387224 3619893
0.37830305 -0.007443347 0.12496129 11776421
0.3806794 -0.0034283744 0.12465462 12368559
0.38281193 0.0047744946 0.12501551 12960438
0.38669413 0.014650087 0.12510237 13355197
0.38869497 0.022335382 0.12624629 13815491
0.391096 0.026768472 0.12403219 13749698
0.39250818 0.034957852 0.12507865 13618112
0.3933529 0.041620035 0.1250788 13486526
0.37800002 -0.060051087 0.13537337 13486530
0.38539132 -0.061659213 0.13212748 13420481
0.37327272 -0.053930476 0.13478504 14275789
0.382 -0.058204293 0.13168593 13617862
0.36900002 -0.047823351 0.13819703 12170669
0.37186417 -0.044959012 0.13446467 13881286
0.36629632 -0.031100467 0.13558233 2172961
0.37406495 -0.03610665 0.13388586 7631466
0.36491704 -0.025036773 0.1348957 1909789
0.3657687 -0.015826652 0.13498123 2764584
0.37142855 -0.011305416 0.13256066 8487029
0.37765563 -0.0055455104 0.13487278 11250078
0.38023818 -0.0016144264 0.13269779 12302767
0.37899998 0.00062976283 0.13839324 11974315
0.38136941 0.0051552281 0.13475707 12566195
0.38423359 0.015312818 0.13501346 13092539
0.3874211 0.02488371 0.13470268 13816004
0.39000002 0.029342232 0.13099746 13815491
0.38899997 0.030508803 0.13583575 13947334
0.39116493 0.035382137 0.13461712 13749698
0.39205274 0.04176636 0.13528387 12763061
0.37644446 -0.055499867 0.14285117 10460052
0.38000003 -0.055031292 0.14587508 8486260
0.37733331 -0.041099589 0.14249593 7829614
0.36456522 -0.031200146 0.14470385 1383188
0.37760001 -0.038507063 0.14124162 7237475
0.36469224 -0.02483918 0.14624202 988686
0.36376795 -0.016077874 0.14629099 1579539
0.37900001 0.001453634 0.14016773 9538948
0.38125002 0.0068193907 0.14010735 10790300
0.38443753 0.015878992 0.14082837 10856093
0.38730004 0.024431465 0.141423 12040108
0.39000002 0.0290379 0.1430186 10789785
0.39197972 0.034829881 0.14217843 12435124
0.39155558 0.041476496 0.14094099 13092285
0.36523357 -0.032112166 0.15622346 1974554
0.3665424 -0.025109274 0.15541522 659721
0.36527041 -0.015900614 0.1553963 1906447
0.3633908 -0.032885194 0.16417265 1580567
0.36396718 -0.024961632 0.16521266 1120529
0.36498168 -0.016082218 0.16510536 1513745
0.34820002 -0.034079067 0.17927369 1646359
0.35553849 -0.03202245 0.17885166 1054479
0.36270741 -0.033082087 0.17428441 1120273
0.34765518 -0.024664804 0.17964906 1383701
0.35530981 -0.025183154 0.17837968 857100
0.36149099 -0.024848564 0.17346048 1449237
0.34900001 -0.016985916 0.17937744 1383187
0.35524204 -0.016515521 0.17854017 857100
0.36198607 -0.016890936 0.1741817 1120785
0.34363782 -0.033473279 0.18480483 1515032
0.34376085 -0.025023321 0.18494789 1449238
0.3439866 -0.016657606 0.1851788 1383189
0.3400313 -0.032949269 0.1913525 1515030
0.34029162 -0.024985244 0.19157314 1449237
0.34039286 -0.017334169 0.1914877 1448982
