# .PCD v0.7 - Point Cloud Data file format
VERSION 0.7
FIELDS x y z rgb
SIZE 4 4 4 4
TYPE F F F U
COUNT 1 1 1 1
WIDTH 523
HEIGHT 1
VIEWPOINT 0 0 0 1 0 0 0
POINTS 523
DATA ascii
0.56600004 0.049208935 0.039724931 13749961
0.47500002 0.067984857 0.038897976 13486789
0.47433338 0.071219929 0.039583147 13618375
0.62300003 0.0089525264 0.049559314 13881547
0.62176478 0.016040042 0.047918454 13749960
0.54400003 0.028193517 0.049642477 13618375
0.62052947 0.022845253 0.04662681 13618375
0.45360002 0.033279359 0.049676053 13420996
0.45900008 0.047811635 0.048256252 13486789
0.46000001 0.049684942 0.046284564 13486789
0.55688894 0.048709169 0.046759579 13486790
0.56180006 0.048579246 0.042056773 13684168
0.44500002 0.059524067 0.049984053 13815754
0.45733336 0.054612961 0.049344141 13552582
0.46256521 0.055239283 0.047529258 13486789
0.47155559 0.057802133 0.045850694 13618375
0.55875003 0.052666612 0.047554497 13486789
0.5609231 0.055263747 0.043439273 13487045
0.44565794 0.065758646 0.04840507 13881291
0.45458332 0.063195348 0.047598708 13684168
0.46406671 0.063005246 0.046616804 13684168
0.47378585 0.065667354 0.043149605 13618375
0.48050004 0.062022898 0.042159937 13552582
0.43900001 0.07927563 0.049310111 15855074
0.44463637 0.074772805 0.047877155 14341838
0.45183337 0.074713238 0.045638423 13881545
0.46533337 0.074220538 0.045731843 13749961
0.47250003 0.071828231 0.043056909 13618375
0.43900001 0.080817193 0.049310111 15527136
0.44000003 0.080486268 0.048392389 15328730
0.42699999 -0.13171017 0.059056543 15065564
0.42655551 -0.12530978 0.059006386 15000028
0.43446147 -0.12174347 0.057871237 14671576
0.44050002 -0.12102489 0.056697126 14869212
0.42700002 -0.11931564 0.059957601 14802649
0.43806675 -0.11354496 0.058637396 14342611
0.44057897 -0.11629879 0.057683256 14606040
0.43425003 -0.10485934 0.058367301 13948109
0.43440002 -0.098705031 0.059369206 13816778
0.62200004 0.0084527852 0.053120051 13750216
0.62081492 0.014409165 0.053045534 13881545
0.42555559 0.027256459 0.059533425 13749963
0.44900003 0.025897808 0.059367843 13420998
0.45195985 0.027042549 0.055140626 13355204
0.54446161 0.025765669 0.05360616 13552582
0.61999995 0.022386989 0.051394138 13947339
0.42683336 0.034003034 0.059100408 13947340
0.43270588 0.037979275 0.05777207 14078669
0.44685718 0.037050225 0.056317423 13552583
0.45301789 0.03452171 0.053834237 13420996
0.42778945 0.046205733 0.059276093 14407631
0.43191379 0.04500588 0.056127474 14276304
0.44450003 0.041767284 0.05486276 14013132
0.4567143 0.045312416 0.052772686 13420996
0.42785183 0.05422565 0.059148002 14933974
0.43281943 0.05543245 0.05485101 14802646
0.44414288 0.05613935 0.051369984 13618630
0.4565239 0.053576153 0.051174887 13552582
0.42779413 0.064675346 0.058741413 15328732
0.43318912 0.064914547 0.054028217 15197402
0.44020003 0.064547971 0.050475411 14934488
0.42900002 0.070439726 0.059234139 15394525
0.43421644 0.075102538 0.054937419 15526110
0.44 0.072245881 0.050452482 15657697
0.43548569 0.081494369 0.054815412 14999768
0.4156532 -0.13388522 0.067631274 15986151
0.42305556 -0.13295341 0.062889904 15591394
0.41519055 -0.12479997 0.067284122 16249322
0.42267936 -0.12519263 0.062611364 15657700
0.41492504 -0.11474594 0.066565648 15986663
0.42200008 -0.11629059 0.062008634 15394785
0.43460003 -0.11218266 0.060209621 14211282
0.40899998 -0.1036853 0.069877304 15986662
0.41468915 -0.10551 0.06672962 15723491
0.42400002 -0.10422974 0.063474968 14605270
0.43121737 -0.10375471 0.061293002 14277074
0.40899995 -0.094952293 0.069656357 15920869
0.41313994 -0.094662935 0.067460269 15328990
0.42480007 -0.09751983 0.065116361 14276562
0.43282613 -0.097875677 0.062443797 14408402
0.40900001 -0.088912822 0.069877304 15658210
0.41439998 -0.085326143 0.067623205 14737110
0.42190006 -0.083979778 0.064702593 14276561
0.41573915 -0.076286241 0.068823956 14605524
0.42460784 -0.075672798 0.066339374 14210769
0.42999998 -0.071667537 0.06641867 14276561
0.41300002 -0.068511896 0.069593869 14276559
0.41800001 -0.051727515 0.069457859 14078926
0.42050004 -0.050559707 0.069873273 13881547
0.44316226 -0.053578828 0.067131586 13881546
0.44398344 -0.045502055 0.066873617 13553095
0.6348334 -0.043144945 0.068583064 14473940
0.44233337 -0.0388612 0.069013529 13421253
0.61800003 -0.030663801 0.068933032 14407891
0.62304544 -0.034151133 0.067064382 14276562
0.63033336 -0.03963761 0.06784936 14408147
0.61763644 -0.02516955 0.068848275 14407891
0.62094122 -0.02386852 0.064612627 14210512
0.56450003 -0.010718684 0.069018736 13947340
0.58200002 -0.017523622 0.069459818 14078926
0.60550004 -0.012561245 0.067299172 14144719
0.61762506 -0.013173005 0.065394498 14342098
0.62030768 -0.016108405 0.064088687 14210512
0.56493342 -0.0051104398 0.067722455 13881547
0.57335299 -0.0051863655 0.063687675 13947340
0.58100003 -0.009332723 0.065260075 14013133
0.59000003 -0.0067148912 0.063508593 13947340
0.60500002 -0.0075984485 0.063706897 14407891
0.61300004 -0.009846746 0.064549305 14473684
0.41900003 0.0099445879 0.069624029 13552582
0.42179322 0.0066718622 0.068485923 13486789
0.55666667 0.0014842618 0.068171836 13815754
0.56666666 0.0015070095 0.062763639 13947340
0.41663638 0.01617742 0.068783924 13816009
0.42282143 0.014858826 0.06585034 13552582
0.43371433 0.016089175 0.063655101 13552583
0.41564155 0.024863651 0.067920364 14276559
0.4221428 0.025582232 0.063237965 13947341
0.44400004 0.028207943 0.06026585 13881547
0.41599998 0.035108138 0.067988567 14539474
0.42271206 0.03507201 0.063109912 14276561
0.41646686 0.044836286 0.067782797 14736595
0.42247534 0.044769391 0.062783293 14605266
0.41807696 0.053590592 0.068302467 15065559
0.42252457 0.055420659 0.063950524 15131352
0.42364812 0.065020107 0.06532415 15328475
0.42639515 0.07466805 0.065714069 15394268
0.43022218 0.077579319 0.061472747 15394525
0.42746669 0.081262082 0.066823162 14737111
0.4305 0.08168783 0.062546991 15131097
0.40600002 -0.14053558 0.078869291 16643824
0.4070324 -0.13479088 0.077388115 16117478
0.41183326 -0.13519834 0.072607309 16051943
0.4063299 -0.1247414 0.075695492 16446700
0.41095451 -0.12585282 0.070997506 16446701
0.4056066 -0.11501329 0.075238496 16380650
0.41000003 -0.11456539 0.070048161 16315114
0.40460441 -0.10497345 0.075319134 16052198
0.41 -0.10736674 0.070048161 16118248
0.40468821 -0.094960079 0.075285017 15920869
0.40497479 -0.085111558 0.075200856 15789283
0.41054547 -0.083306007 0.070403121 15395039
0.64775002 -0.082814977 0.079200752 11381926
0.65300006 -0.082950339 0.077625357 11250597
0.39900002 -0.072260886 0.079377607 15723490
0.40461233 -0.074659914 0.074936382 15526368
0.41136852 -0.075589806 0.070686586 15000282
0.634 -0.072228543 0.07892783 14342098
0.64322221 -0.076592647 0.077767931 11513255
0.39900002 -0.06533324 0.079299755 15723490
0.40433058 -0.065114811 0.074910671 15328989
0.41144446 -0.063652575 0.070882544 14605523
0.62315798 -0.064304531 0.077824265 14473684
0.63100004 -0.06922318 0.076784991 14802649
0.39900002 -0.056226078 0.079377607 15657698
0.40354222 -0.055319265 0.076850198 15328990
0.41391391 -0.054368377 0.072547302 14408145
0.42000002 -0.050008561 0.070773423 14078926
0.43000001 -0.0582457 0.070445225 14078926
0.44028574 -0.051688522 0.070510313 14144974
0.61671436 -0.05343229 0.078759447 14342098
0.62241387 -0.055460047 0.07613489 14407891
0.63200003 -0.050099079 0.071727179 14539477
0.39833331 -0.045331594 0.079477318 15328734
0.40387034 -0.045088671 0.077570006 14802649
0.41497889 -0.045507211 0.074630328 14342098
0.42282611 -0.044961523 0.073054254 14013133
0.43490911 -0.043946952 0.071796708 14013133
0.44000003 -0.045085944 0.070117027 13947595
0.58457142 -0.042137764 0.076803982 14210511
0.59066671 -0.045439795 0.077406406 14342098
0.60600001 -0.049456697 0.079417422 14342098
0.61000001 -0.049783144 0.078513615 14210512
0.62788892 -0.04617634 0.075749621 14407891
0.63241667 -0.045814883 0.072942734 14473684
0.39900002 -0.030694941 0.079377607 14539731
0.40278566 -0.035841335 0.078393593 14407891
0.41418183 -0.036046911 0.076529935 14276305
0.42310649 -0.034112435 0.074977785 13684168
0.43507698 -0.038560417 0.071737774 13881547
0.44000003 -0.038484275 0.070023388 13487043
0.58487093 -0.035584401 0.076864645 14144719
0.59287506 -0.032595087 0.074397996 14078926
0.60409093 -0.034381375 0.073505811 14539477
0.61387503 -0.033930566 0.071823396 14539477
0.62512505 -0.037853099 0.071678326 14407891
0.398375 -0.027499069 0.079252675 13947340
0.4012917 -0.024600722 0.078697532 13618375
0.42575675 -0.027520647 0.075431399 13683912
0.43025002 -0.023110062 0.077452861 13420996
0.56687504 -0.022213191 0.078434788 13815754
0.57495004 -0.024854813 0.075684205 14013133
0.58441675 -0.02603244 0.074305616 14078926
0.59425002 -0.026239654 0.073005617 14210512
0.60400003 -0.027071193 0.07208176 14210512
0.61187506 -0.027377237 0.070696577 14407891
0.39633334 -0.011854511 0.079155535 13750216
0.40400001 -0.019258618 0.079424202 13289412
0.46886361 -0.013218531 0.076862007 13223617
0.47000003 -0.011217303 0.07443095 13486789
0.56356418 -0.015625086 0.074425541 13947341
0.57466668 -0.018645784 0.07127288 13947340
0.583 -0.018918544 0.070943974 14210512
0.39809528 -0.0064814156 0.07884156 13947593
0.40183339 -0.0024923638 0.077149801 13881800
0.41606256 -0.0022412164 0.073574476 13486789
0.46900001 -0.0091805495 0.07903032 13420996
0.47009096 -0.0089515233 0.076012485 13486789
0.55833334 -0.0019986329 0.071863554 13815755
0.56062502 -0.0067911255 0.072403885 13881549
0.39900002 0.0010633098 0.079377607 14079178
0.40398875 0.0051797102 0.076529503 13947594
0.41457897 0.005823642 0.072073787 13684167
0.42120004 0.0027003177 0.070778057 13552582
0.55500001 0.000179775 0.070135251 13815754
0.40611959 0.014983961 0.076472394 14078923
0.41279489 0.01449898 0.071437106 13947595
0.40696031 0.024883918 0.075969063 14473936
0.41106898 0.025384989 0.071158484 14473937
0.40813261 0.034685113 0.076793119 14473936
0.41134781 0.035427652 0.071950033 14605522
0.40894112 0.041636094 0.077919938 14539215
0.41122565 0.045453776 0.074465275 14736594
0.4146848 0.054953173 0.074774794 14999510
0.41772306 0.063927643 0.07632938 15131096
0.42054299 0.067167133 0.072916433 15197145
0.41900003 0.071249999 0.07943289 15131353
0.4220002 0.074918814 0.074721552 15328218
0.4235 0.080640107 0.074628457 12828089
0.4027037 -0.14152353 0.086079776 15855077
0.3987 -0.132129 0.088837914 15919841
0.40213642 -0.13534826 0.084612489 16051685
0.39819613 -0.12511127 0.087806329 16380650
0.40102592 -0.12457296 0.082799472 16446443
0.39858145 -0.11399021 0.087734304 16183271
0.40062663 -0.11573052 0.083311401 16314857
0.39808017 -0.105016 0.086671442 15985892
0.39999983 -0.1046827 0.081884913 15986148
0.39733315 -0.094811685 0.086337261 15854306
0.40003327 -0.095204949 0.081487283 15789283
0.39667532 -0.084898159 0.085553639 15657183
0.40000007 -0.086722195 0.080747046 15723490
0.64462507 -0.08298219 0.082775339 13553352
0.39580309 -0.075035162 0.084674574 15525598
0.62800002 -0.071468011 0.083402604 14211026
0.63440001 -0.074205168 0.082393453 14342355
0.64174998 -0.079041436 0.082598425 14539990
0.39525387 -0.065033831 0.084669255 15591646
0.61866665 -0.061111648 0.083491005 14210512
0.62253338 -0.065484971 0.081969954 14408148
0.39492145 -0.055077296 0.08507999 15525853
0.60533339 -0.051293049 0.082632452 14276305
0.61500013 -0.0558553 0.081828937 14342098
0.39416263 -0.045060426 0.085056067 15328475
0.58400005 -0.042194184 0.080635749 14079180
0.59000003 -0.045388509 0.080082998 14342352
0.60200006 -0.049130253 0.080302514 14276305
0.38900003 -0.03129163 0.08922673 8946306
0.39375922 -0.034818303 0.08477962 14736340
0.40000001 -0.03592211 0.080512956 14670804
0.58262503 -0.037319653 0.081127428 14013900
0.38853347 -0.024797635 0.088997655 6317412
0.39334586 -0.024785284 0.084080011 14276815
0.40000001 -0.021876 0.080512956 13552837
0.42800003 -0.024910256 0.080137134 13618375
0.43000001 -0.022510063 0.0805116 13420996
0.38866672 -0.016432751 0.088846192 9407881
0.39267328 -0.014634264 0.084231384 14013387
0.4005 -0.019559402 0.0810818 13355202
0.41300002 -0.01823619 0.080229104 13289412
0.46900001 -0.014121269 0.08012826 12960446
0.39377689 -0.0051769614 0.085494086 13947335
0.46900001 -0.0091805495 0.08012826 13486789
0.39581585 0.0045715021 0.085019633 13816005
0.40000001 0.0094936397 0.08144936 13947592
0.39731389 0.014698735 0.086413451 13815491
0.40104437 0.016134508 0.08165881 14078665
0.39868757 0.021654654 0.087889709 14078663
0.40179414 0.025492759 0.084452078 14276043
0.40461966 0.034964602 0.085003883 14276043
0.40718365 0.044543438 0.085439712 14407629
0.41030008 0.048159361 0.081625186 14539214
0.40866664 0.051900864 0.087943733 14670802
0.41175255 0.05551609 0.084356122 14933459
0.41471541 0.065075867 0.08503557 15196375
0.41680771 0.073743537 0.085589804 15196377
0.42042109 0.077372283 0.081877589 15130841
0.42100003 0.080952995 0.081783183 4012599
0.39692307 -0.14244303 0.096471325 15394013
0.40021434 -0.1418118 0.091329776 16183784
0.39602831 -0.13491051 0.095192119 15722464
0.40000001 -0.13830264 0.09112557 15854306
0.3944315 -0.12506077 0.094842277 16314856
0.39551535 -0.11499079 0.094876342 16183270
0.39538381 -0.10505091 0.094924681 15854562
0.39416233 -0.095177427 0.094809473 15591648
0.39267749 -0.084987968 0.095153816 15394269
0.39183661 -0.075092085 0.094963633 15328219
0.38900003 -0.061343279 0.099243939 15065560
0.3913359 -0.064816102 0.095134944 15262425
0.38899997 -0.05471132 0.098610424 15065560
0.39111573 -0.055003181 0.094140843 15262169
0.38899997 -0.044666883 0.098134078 14933719
0.39069885 -0.044967487 0.093580313 15064791
0.38848519 -0.03467996 0.095741935 12367535
0.39004758 -0.036963515 0.091467045 14407119
0.38517898 -0.025175728 0.094932787 2633002
0.38518792 -0.015199215 0.094915986 3027501
0.38831034 -0.0074571408 0.096212231 12698038
0.39083335 -0.0035174445 0.093802541 13355453
0.39271808 0.0046400288 0.094805993 13223868
0.39566126 0.014953504 0.095045164 13421246
0.39779764 0.023868529 0.095566444 13947335
0.40010709 0.02806229 0.093312375 14078663
0.4017193 0.034933273 0.094960161 14144457
0.40451375 0.045086551 0.095038734 14407629
0.40772557 0.054395221 0.095792592 14867923
0.41042867 0.058103137 0.091898859 14868181
0.40872726 0.061283398 0.098274283 15064789
0.41147909 0.065448493 0.094780795 15065046
0.41374716 0.074297361 0.094818436 15065047
0.38900003 -0.14254344 0.10926116 15657186
0.39322361 -0.14289193 0.10463069 15788514
0.38763162 -0.13342997 0.10731022 15854305
0.39244258 -0.13659933 0.10356294 15524827
0.38727975 -0.12522423 0.10637861 16183269
0.3907437 -0.12378221 0.10123501 16249062
0.38838673 -0.1153916 0.10737704 16051683
0.39133799 -0.11451616 0.10242993 16117476
0.38867858 -0.10478813 0.10827603 15854305
0.39158133 -0.10518727 0.10316985 15920098
0.38892102 -0.094921567 0.10837604 15722720
0.39109272 -0.095092371 0.10336012 15722720
0.38876063 -0.084346615 0.10737229 15459548
0.3901864 -0.08533489 0.10242529 15525341
0.3883957 -0.075052246 0.10649027 15393755
0.3900001 -0.074886672 0.10126618 15262682
0.38795882 -0.064996749 0.10536578 15197146
0.39000005 -0.067536898 0.10081783 15197146
0.38753816 -0.055216774 0.10475998 14999767
0.3871558 -0.045011178 0.10502876 14867926
0.38579997 -0.035127182 0.10510604 11775399
0.37846154 -0.02369722 0.107765 2370342
0.38124457 -0.025405213 0.10322127 2567209
0.37857142 -0.017044593 0.10797662 2435881
0.38159627 -0.014430365 0.1039135 2896688
0.38715455 -0.0053891535 0.10534097 12631987
0.39000002 -0.00078666862 0.10132506 13157817
0.38899997 0.0022232726 0.10730188 13026488
0.39104161 0.005670391 0.10389928 13157561
0.39351991 0.014910391 0.10490914 13355453
0.3965461 0.024972785 0.10508077 13881797
0.39850006 0.032547884 0.10726288 14078663
0.40026188 0.035927415 0.10388936 14144457
0.40224573 0.044897877 0.1050607 14407629
0.40465224 0.054877989 0.10504705 14802388
0.40771326 0.064415827 0.10546888 14933717
0.41042858 0.068420105 0.10162145 15196375
0.40876919 0.071166463 0.10789347 14933717
0.41177157 0.075085431 0.10466304 14341066
0.38590926 -0.14364268 0.11514008 15393756
0.37899998 -0.13074598 0.1184302 15131352
0.38316369 -0.13517953 0.11471503 15394268
0.37900001 -0.12657593 0.11883834 15591902
0.3823255 -0.12464366 0.11445033 15920354
0.38373461 -0.11505871 0.11491653 15985890
0.38445461 -0.10519674 0.1152812 15854560
0.38545164 -0.094875142 0.11511569 15722975
0.38555866 -0.08502198 0.11524348 15525598
0.38525182 -0.074924767 0.11492487 15394011
0.38467124 -0.064921141 0.1149015 15393755
0.38434246 -0.0547546 0.11502087 15130840
0.3842476 -0.045061164 0.11503223 14801875
0.37875 -0.03079953 0.11713153 2566438
0.38288584 -0.035227142 0.11485109 11051932
0.37585598 -0.02464762 0.11518353 2304292
0.38000003 -0.029233279 0.11073641 2633000
0.37604952 -0.015595713 0.11518558 2435619
0.38062504 -0.01107014 0.11308969 6909027
0.38503143 -0.0052638431 0.11510207 12500144
0.38850427 0.0043151239 0.11529764 12960695
0.39000005 0.0086172009 0.11173322 13223867
0.38899997 0.012300037 0.11836772 13289660
0.39127904 0.015272981 0.11432008 13487040
0.393985 0.025037965 0.11497176 13947335
0.39693439 0.034983769 0.11519971 14078921
0.40000001 0.038990464 0.11094619 14276042
0.39834294 0.041960679 0.11734501 14144970
0.40037507 0.04607996 0.11439288 14276300
0.40280348 0.055037491 0.11504979 14605265
0.40537021 0.065212429 0.11489063 14802388
0.40809909 0.074064612 0.11559004 14078923
0.41024998 0.077125452 0.11194769 12894137
0.38252628 -0.14331645 0.1227421 14934231
0.37900001 -0.13030237 0.12109193 13157563
0.38139603 -0.13482265 0.12487075 14013129
0.37899995 -0.12560855 0.12165005 13947079
0.3807143 -0.12449105 0.12609346 13684162
0.38089785 -0.11515595 0.1247145 14473421
0.38114658 -0.10507689 0.12483516 14802642
0.3811903 -0.095197819 0.1249131 15065558
0.381336 -0.084943719 0.12474432 15065302
0.38153347 -0.074824713 0.12470425 15197145
0.37900001 -0.064202555 0.12952077 15394523
0.38116318 -0.065021589 0.1248225 15197145
0.38137019 -0.055391029 0.12488554 15065560
0.38170224 -0.044914935 0.12473582 14341581
0.37756759 -0.031915478 0.12546711 6183764
0.38148752 -0.036572523 0.12450552 11314847
0.37238997 -0.025235891 0.12502497 1975584
0.37262258 -0.015444969 0.12508136 2961704
0.38443789 -0.004464136 0.12483831 12302765
0.3862859 0.0046848655 0.12517698 12829109
0.38814753 0.01456849 0.12502757 13552833
0.39000002 0.018994933 0.12080234 13881286
0.38888457 0.021485146 0.12768082 14013385
0.39170739 0.025617048 0.12451671 14078921
0.39433354 0.035089426 0.12505408 14144715
0.39699978 0.045017879 0.12503923 14342094
0.40000001 0.049447011 0.1210906 14342350
0.39861912 0.051587593 0.12747005 14671059
0.40068135 0.055712119 0.12441362 14605266
0.40309396 0.06469091 0.12487606 14605266
0.40527165 0.073293373 0.12491518 14605780
0.38494045 -0.13409397 0.13429776 14078920
0.38387841 -0.12509637 0.13393685 13750210
0.38370585 -0.11490418 0.13492325 13289403
0.38392571 -0.10521031 0.13530536 13092025
0.38208252 -0.095000476 0.13461837 13223610
0.38203329 -0.084904782 0.13474397 13289659
0.38199991 -0.075113192 0.13502252 13355197
0.37899998 -0.064392678 0.13078827 13420989
0.38094193 -0.064995416 0.13534039 13420990
0.38108432 -0.055121202 0.13477051 13815492
0.38038245 -0.044937547 0.1346657 12959926
0.36875004 -0.030094318 0.1376709 2304548
0.37558624 -0.032691535 0.13513514 6644313
0.38067171 -0.037500095 0.13486595 10854293
0.36631536 -0.024482239 0.13537252 2107169
0.37083331 -0.02643414 0.13125016 1909791
0.36590016 -0.016481334 0.13585955 2304034
0.37179548 -0.014408831 0.1316074 3356460
0.37800002 -0.0093163466 0.13427056 12105639
0.38193262 -0.0042992556 0.13500595 11645092
0.38352963 0.0046966081 0.1351693 12236973
0.38527942 0.01466545 0.13495719 13421247
0.3878336 0.024493281 0.13527368 13947592
0.39050001 0.028466621 0.13125589 14210764
0.38899997 0.031543642 0.13730176 13750213
0.39187834 0.03569572 0.13425986 14078921
0.39419711 0.045145471 0.13519926 14342093
0.396644 0.05472089 0.13540147 14802645
0.40000007 0.057796638 0.13100092 14933974
0.39814818 0.062786229 0.13813411 14802901
0.40082675 0.065673254 0.13397849 14934231
0.40262797 0.073740244 0.13525166 14670803
0.38500002 -0.11373851 0.14068431 10394773
0.38500014 -0.10414544 0.14154764 11184545
0.38435894 -0.095117278 0.14155021 11644838
0.38345653 -0.085275777 0.14197172 11776938
0.38306344 -0.074861899 0.14268072 11974316
0.38217565 -0.065153413 0.14302281 12368816
0.38174716 -0.055173684 0.14339213 12303022
0.38076672 -0.04545759 0.14377353 10987164
0.36800003 -0.030033112 0.14126851 1778204
0.37534487 -0.033461932 0.14345096 7040358
0.3802222 -0.037874676 0.14435983 10066062
0.36535892 -0.023704272 0.14257789 1712153
0.37200004 -0.026926842 0.14759611 988686
0.3643609 -0.015699826 0.14524505 2105624
0.37100002 -0.010302038 0.14763126 5456700
0.37824997 -0.0089527266 0.14520124 11052697
0.38105729 -0.0045122076 0.14457342 10855834
0.38289735 0.0047709281 0.14473957 11184800
0.38413677 0.015261297 0.14494966 12368559
0.3859469 0.025228649 0.14487581 13487039
0.38850489 0.033926979 0.14537811 13684162
0.39066669 0.038081668 0.14200374 13881798
0.389 0.040715244 0.14776888 13881798
0.39147869 0.045205988 0.14477767 14013384
0.39376068 0.054953948 0.14511704 14276556
0.39683166 0.064627856 0.14494155 14276813
0.40000001 0.069111563 0.14075516 14672086
0.39872229 0.07060238 0.14637132 13552577
0.40013981 0.073532797 0.14451903 13487301
0.36258709 -0.032393035 0.15754227 2566178
0.37050003 -0.030237138 0.15567151 1383189
0.36376479 -0.025009006 0.15833981 725514
0.37205881 -0.026929121 0.15721974 922637
0.36417153 -0.015825108 0.1550449 1709324
0.38169557 -0.0039528883 0.15114902 8881788
0.3850278 0.0051125819 0.15171181 9013629
0.38575011 0.013385721 0.15200736 9144703
0.38550004 0.02675044 0.15069382 9408135
0.38844445 0.036707614 0.15154178 11579046
0.39119053 0.045876067 0.15230775 12763576
0.39259613 0.054957543 0.15244189 13816264
0.39579991 0.064782977 0.15298484 14276299
0.39800003 0.070008308 0.15231909 13353397
0.36148083 -0.032364354 0.16409165 1646359
0.36193016 -0.024773479 0.16505395 1317650
0.36359453 -0.01634361 0.16503838 1316624
0.34528136 -0.033114266 0.17808162 1515543
0.35545447 -0.032222457 0.17588975 857101
0.36193338 -0.032930132 0.17237519 1580310
0.34550974 -0.025014209 0.17825474 1318165
0.35521632 -0.024910668 0.17515199 857357
0.36060974 -0.025231278 0.17147776 1910044
0.34581998 -0.016886815 0.17863253 1186838
0.35539782 -0.016650673 0.17628698 857102
0.36100003 -0.016978709 0.17166856 1382931
0.35700002 -0.0099132825 0.17966872 987667
0.33852273 -0.033175316 0.18785666 1580053
0.34153339 -0.033488546 0.18322062 1646358
0.33812511 -0.025357326 0.18785807 1448980
0.34148255 -0.024878584 0.18333279 1449236
0.33860874 -0.016640252 0.18835029 1382931
0.34139803 -0.016689919 0.18349363 1383187
0.35550001 -0.011119392 0.18057826 1186327
0.35799995 -0.0084883701 0.18346843 5396048
0.33700001 -0.031973708 0.19064118 1449237
0.33715376 -0.02514587 0.19059667 1514518
0.33800003 -0.01762802 0.19100909 1317653
