# .PCD v0.7 - Point Cloud Data file format
VERSION 0.7
FIELDS x y z rgb
SIZE 4 4 4 4
TYPE F F F U
COUNT 1 1 1 1
WIDTH 431
HEIGHT 1
VIEWPOINT 0 0 0 1 0 0 0
POINTS 431
DATA ascii
0.5273636 0.015992699 -0.00047349947 13355973
0.51850003 0.028692085 -2.3411038e-05 14868183
0.52300006 0.024038041 -2.3614217e-05 14802390
0.51700002 0.032240581 -2.3343309e-05 14670802
0.53100002 -0.011015723 0.0092991283 15723492
0.52766675 -0.0014771555 0.0094455928 15196894
0.53069574 -0.0050141648 0.0081861913 15526114
0.51900005 0.0098880213 0.0084814848 14802136
0.52617246 0.0056089456 0.0070611308 14999770
0.53029418 0.0036775153 0.0045028967 15262940
0.509 0.019230125 0.0095096426 14736343
0.51466674 0.016296454 0.0082040094 14670549
0.52445656 0.014656815 0.0037612889 14868183
0.50509095 0.026495803 0.0088964738 14736599
0.51600003 0.025734879 0.0049227267 14802390
0.52218753 0.023011191 0.0026492795 14736597
0.49900001 0.039295264 0.0093228137 14670804
0.50432146 0.035281383 0.0077310991 14670804
0.51332146 0.033209246 0.0034474658 14736597
0.49900001 0.041047513 0.0093228137 14868183
0.53100002 -0.054523543 0.019865314 12499635
0.53258336 -0.04511955 0.019508431 13552323
0.53293335 -0.034516506 0.017982347 15789540
0.51575005 -0.021264959 0.018991048 15263198
0.52516669 -0.025551239 0.01882636 15526112
0.53438717 -0.025321493 0.015180479 15131353
0.49828577 -0.011837984 0.019307623 14934491
0.50280005 -0.013810047 0.017946174 14868184
0.51200002 -0.01861302 0.018354654 14802392
0.52779996 -0.012432608 0.013567182 15196893
0.53318191 -0.016345728 0.012683611 15197148
0.48700005 -0.0015535357 0.019359298 14473171
0.4957273 -0.0050510275 0.017485453 15065563
0.50339997 -0.0053750859 0.014589203 14933721
0.51300001 -0.004630575 0.013786502 14999515
0.52500004 -0.0051580998 0.012677879 14999514
0.53100008 -0.0066649416 0.012051663 15131099
0.47685713 0.0076483968 0.019432664 14802393
0.4841429 0.0050125401 0.017892836 14933977
0.49433336 0.0034352078 0.015213025 14999769
0.50400001 0.0047131912 0.013460503 14999515
0.51100004 0.0019581572 0.01313579 14933722
0.47504354 0.015330999 0.019170828 14605269
0.48415792 0.013752598 0.01697504 14671063
0.49473688 0.015279657 0.013750486 14670806
0.50433338 0.015200187 0.011622545 14736342
0.51050007 0.012713218 0.010732758 14802135
0.46900001 0.029247258 0.019741697 14933722
0.47444829 0.02512322 0.018548418 14868184
0.48425803 0.025024211 0.015221108 14802136
0.49456522 0.025177438 0.011951874 14867929
0.50160003 0.021531757 0.010779745 14670550
0.46800002 0.035902347 0.019499982 14802649
0.47430769 0.034230847 0.017482467 14802393
0.48365003 0.035145171 0.014749517 14736856
0.49435002 0.034933373 0.011370946 14671062
0.46385717 0.041720714 0.019058688 13223616
0.48633337 0.04076327 0.014775616 14210512
0.49300003 0.0408419 0.011803977 14473682
0.53800005 -0.07161539 0.028943466 16249575
0.54000002 -0.071628794 0.027281251 13354942
0.5356819 -0.0637898 0.027506076 15789282
0.54040003 -0.06839291 0.02628864 13683907
0.52900004 -0.050602991 0.029697681 15526113
0.53135002 -0.055122722 0.025454633 15197147
0.51577783 -0.04236351 0.028414359 15197404
0.5255143 -0.04549434 0.025877498 15723491
0.53053349 -0.044952989 0.021917315 16184297
0.48900002 -0.030750064 0.029741624 15395040
0.49590006 -0.032696489 0.028297607 15329247
0.50345457 -0.034230731 0.026868541 15197149
0.51527274 -0.037332796 0.026728183 15131355
0.52600002 -0.034612905 0.023445101 15526369
0.53125006 -0.03672412 0.02184307 15986919
0.48329416 -0.023779536 0.027528172 15065821
0.49399999 -0.026583187 0.025848577 15131614
0.50599998 -0.025153035 0.024259653 15065821
0.51442862 -0.024903331 0.022169288 14868442
0.52250004 -0.028271195 0.021076003 15394526
0.46650001 -0.011316368 0.028916845 15000028
0.47531822 -0.0142683 0.0275419 15000028
0.48245457 -0.015700396 0.025178635 15000027
0.49525002 -0.012884316 0.021713212 15000028
0.50466663 -0.019132758 0.02124224 14868442
0.45750001 -0.0014589161 0.02943052 14802646
0.4650667 -0.0048961234 0.027772503 14868698
0.47342858 -0.0053466186 0.024711059 15131613
0.48381251 -0.0045901365 0.021636229 14933978
0.49160004 -0.0076677212 0.020922422 14999771
0.45542857 0.0055366787 0.02833325 14737110
0.46426472 0.0049423096 0.025194621 14802903
0.4735769 0.0036481803 0.021890458 15000284
0.48066673 0.001280166 0.020232784 14802649
0.44900003 0.016963312 0.029411007 14736597
0.455244 0.015222875 0.027159065 14671317
0.4649117 0.015193355 0.023180699 14671317
0.47060004 0.013809467 0.021130787 14802649
0.44673091 0.025720507 0.028574826 14802393
0.45442501 0.024906682 0.025636226 14802392
0.46437934 0.024589034 0.022126924 14802392
0.44521067 0.034837913 0.028716756 14868186
0.45485714 0.035517611 0.024765328 14802649
0.46269566 0.034479477 0.021498052 14802392
0.43833336 0.043749686 0.02973845 13487299
0.44375002 0.040917836 0.029063018 14671062
0.45590913 0.042647477 0.025293374 14210768
0.46119997 0.042831454 0.021499217 13026749
0.51499999 -0.080610007 0.036745947 16184042
0.509 -0.078479283 0.039299093 15526113
0.51277506 -0.074829124 0.037090413 15591906
0.528 -0.071520299 0.033349711 15723490
0.53500009 -0.073130839 0.031531826 16051683
0.48700002 -0.060266268 0.038740586 15526626
0.49666667 -0.062630683 0.037957471 15329247
0.50562501 -0.064124227 0.03659099 15263197
0.51253855 -0.066105492 0.03486361 15394527
0.52412504 -0.065168038 0.033103496 15526112
0.5351001 -0.066350207 0.030914033 16052197
0.47550005 -0.054947685 0.039492577 15592419
0.48640004 -0.05425613 0.037776582 15592419
0.49541667 -0.055511862 0.035925716 15460576
0.50325 -0.058447298 0.035022903 15197148
0.51050007 -0.058992162 0.033439465 15262941
0.52500004 -0.057763781 0.032453574 15328734
0.53057152 -0.056076109 0.031205224 15394527
0.45900005 -0.04402633 0.039497998 15592162
0.46383333 -0.042645901 0.038068783 15460833
0.47447065 -0.042907547 0.034926672 15460833
0.48250005 -0.04616309 0.034433026 15460577
0.49266669 -0.040973663 0.031500343 15395040
0.5115 -0.043542292 0.030509632 15131868
0.45900002 -0.031370785 0.03937861 15197661
0.46335891 -0.034506463 0.037576493 15329247
0.47305557 -0.036081303 0.034732614 15460833
0.48453337 -0.03500811 0.032037746 15395040
0.49533334 -0.037149139 0.031091714 15395040
0.44600007 -0.022438455 0.038999662 15065562
0.45634204 -0.024880562 0.036382899 15131868
0.46211112 -0.02515698 0.033452705 15000282
0.47442856 -0.025867578 0.031073153 15197661
0.48019999 -0.025027251 0.030330554 15066075
0.43716666 -0.013392989 0.039266061 15000025
0.44451511 -0.014167152 0.037022702 15000026
0.45472229 -0.014548059 0.033326752 15000026
0.46390912 -0.016337521 0.031567898 15000026
0.47371432 -0.0183824 0.03039412 15065819
0.43500003 -0.0045069298 0.037800591 14868440
0.44386676 -0.0047729854 0.034366388 14999770
0.45445454 -0.0057532233 0.031746134 14933721
0.46100006 -0.007407011 0.030197045 14868184
0.42699999 0.005801124 0.039201468 14736597
0.43433335 0.0045665568 0.036196455 14802390
0.44458982 0.0050048647 0.032129548 14867928
0.45000002 0.0022526798 0.030529967 14933976
0.426 0.015095862 0.038621351 14736597
0.43404174 0.014894861 0.035067778 14670805
0.44358331 0.01485308 0.031473037 14670804
0.42637223 0.024907662 0.038231198 15065562
0.43374568 0.025217326 0.033717353 14933720
0.44212505 0.024467561 0.03051101 14867928
0.42668021 0.035276886 0.037952937 15197148
0.43381661 0.034786813 0.03310949 14999770
0.42700014 0.045058843 0.037087593 14671060
0.43216133 0.043376327 0.032412954 14144972
0.42731252 0.050843403 0.036428604 11447972
0.44475001 -0.080805413 0.049694948 15460320
0.505 -0.08022698 0.041354686 15526113
0.44825 -0.07592956 0.048774909 15328734
0.486 -0.072089896 0.043211974 15460320
0.49700001 -0.071974359 0.041473668 15328734
0.50471437 -0.07689029 0.041410882 15460320
0.47572231 -0.063857272 0.043562882 15657956
0.48083338 -0.067384563 0.041813847 15526113
0.41762507 -0.053575873 0.049047131 15131868
0.42033339 -0.055626895 0.048853669 15131868
0.44900003 -0.050308179 0.049382232 15263454
0.45583332 -0.052499756 0.047222462 15329247
0.46492594 -0.054273997 0.043349579 15460577
0.47182357 -0.057933606 0.041816682 15657956
0.41825002 -0.04931033 0.04942634 15131868
0.42495006 -0.044268537 0.049072545 15197661
0.4305 -0.042943474 0.047598623 15263454
0.44657144 -0.046454977 0.04821885 15263454
0.45476127 -0.045091331 0.044111222 15394783
0.4616667 -0.049565878 0.041045293 15460320
0.42516664 -0.034962945 0.048108239 15263454
0.43109998 -0.034068484 0.045594804 15197148
0.44785714 -0.033406068 0.04461262 15328991
0.45518187 -0.035549466 0.042642687 15328991
0.41741666 -0.022422643 0.049246322 15000025
0.4243637 -0.025492007 0.047365014 15197661
0.43437508 -0.024179107 0.043165933 14934489
0.44499999 -0.026211038 0.040906254 15131868
0.45275003 -0.028738581 0.040519554 15263198
0.41616279 -0.014412068 0.047964405 15065818
0.42384622 -0.01522927 0.044749897 15000282
0.43251732 -0.015995082 0.041629281 14934233
0.41559336 -0.0052608331 0.047201246 15000282
0.42469403 -0.0051991907 0.042540517 14934233
0.43012503 -0.0064067459 0.040257793 14868183
0.41534683 0.0050248625 0.046721034 14802903
0.42242223 0.0047020759 0.042103276 14802390
0.41509882 0.015119114 0.046505183 14737110
0.42117515 0.015171148 0.041759975 14802647
0.41587704 0.024851937 0.046899404 15131610
0.42163649 0.025576897 0.042152114 15131355
0.41690171 0.034869373 0.04735091 15197147
0.42182004 0.035192676 0.04243825 15262941
0.41713727 0.044250723 0.047560062 14013129
0.42244887 0.044824302 0.042641152 14407888
0.41500008 -0.082437702 0.05912865 15591904
0.42387882 -0.08333198 0.056473322 15394526
0.43443754 -0.082866073 0.053684361 15460575
0.442 -0.081788413 0.051713564 15460320
0.40900001 -0.072635718 0.059345067 15855076
0.41505268 -0.074114271 0.057091989 15526368
0.42319998 -0.077932827 0.055753309 15263196
0.43340006 -0.078388132 0.054361343 15394782
0.44640008 -0.076340511 0.051635575 15328734
0.40850002 -0.064804241 0.059272517 15920868
0.4151974 -0.065140791 0.055986039 15657953
0.42353335 -0.063054375 0.052260328 15328732
0.43200001 -0.064587653 0.051557798 15328732
0.44200006 -0.068150878 0.051507257 15328734
0.40706253 -0.054485492 0.058852285 15986662
0.41487059 -0.054941412 0.054288678 15592161
0.42075002 -0.059454907 0.051198963 15263195
0.44800001 -0.051244911 0.050321024 15066075
0.40646154 -0.044771492 0.057963982 15986662
0.41414994 -0.045643285 0.053666338 15657954
0.42147365 -0.04327384 0.051027365 15263197
0.40569234 -0.03493863 0.057470091 15789539
0.41477984 -0.034663759 0.05335867 15592161
0.42123809 -0.035742555 0.050929673 15000026
0.40522236 -0.024744233 0.05675802 15460831
0.41357145 -0.025338655 0.05215732 15197404
0.42033339 -0.028400853 0.050165426 14737110
0.40502027 -0.015039149 0.055908766 15329246
0.41179997 -0.01481003 0.051073037 15263453
0.40542126 -0.0049633244 0.055714797 15000025
0.41112003 -0.0056423103 0.050796792 15131355
0.40519652 0.0047360943 0.055122089 14736853
0.41099998 0.0057686302 0.050219353 14802903
0.40658429 0.014921162 0.055600516 14671059
0.41094741 0.014864895 0.050462421 14802646
0.40780789 0.024184771 0.056731645 14868694
0.4114131 0.025783801 0.052050047 15000024
0.40862072 0.034042649 0.058167782 14999767
0.41225928 0.035699587 0.053614657 15065561
0.41321683 0.043957867 0.055238493 14078923
0.39900002 -0.090475172 0.069102883 14671063
0.39815399 -0.084602885 0.067842551 15789027
0.40117908 -0.084681965 0.062953554 15855077
0.39705327 -0.075038128 0.066964231 16118246
0.40332812 -0.074943349 0.061859891 15986662
0.39662492 -0.065074578 0.067034774 16184039
0.4030447 -0.064832106 0.062018793 16183527
0.39606321 -0.054715022 0.067328498 16118246
0.40158626 -0.055485282 0.062283434 16118247
0.39587495 -0.045031562 0.066754743 16052454
0.40124989 -0.04495649 0.061505187 16052455
0.39586401 -0.034914862 0.066505954 15723746
0.4010295 -0.03549068 0.061278917 15855076
0.39649448 -0.024943538 0.066386022 15394781
0.40062797 -0.025084244 0.061378591 15460318
0.39700004 -0.014771022 0.066333659 15262939
0.40030941 -0.014797555 0.061296191 15328733
0.39756921 -0.0051686913 0.067203999 14737108
0.40041804 -0.004813293 0.062103249 14868438
0.39750805 0.0046043042 0.067555614 14473937
0.40059409 0.0049834698 0.062485598 14605523
0.3980931 0.014477048 0.068445385 14408144
0.40171596 0.015403829 0.06357117 14539730
0.39866671 0.021283744 0.069200046 14671315
0.40311703 0.025325352 0.06467513 14868438
0.40495226 0.03498349 0.065040715 14933974
0.40680298 0.043269541 0.065641932 14079179
0.41064289 0.04524811 0.061299745 13158077
0.39850003 -0.090361796 0.07041505 13288895
0.395165 -0.084104933 0.074688546 14670802
0.39371437 -0.074992225 0.074633718 14802387
0.39281461 -0.065055266 0.074762061 14999765
0.39140946 -0.054883622 0.075067811 15131352
0.38899997 -0.043403354 0.077782817 14736596
0.39110464 -0.045385819 0.07379853 15657696
0.38838246 -0.03540105 0.077624217 15262939
0.39135936 -0.034587167 0.072743446 15657953
0.38857636 -0.025652947 0.078011602 15197402
0.39192408 -0.024448019 0.072888404 15263452
0.38876665 -0.016285386 0.078857973 14868694
0.39252889 -0.014802425 0.073821947 15065817
0.38900003 -0.0089805564 0.079209507 14671315
0.39287215 -0.0051540593 0.074921861 14539729
0.39330554 0.0047112368 0.074987024 14276557
0.39459684 0.014824012 0.074931897 14276557
0.39705384 0.024767404 0.075458921 14671315
0.40008339 0.027837688 0.071085475 14868694
0.39775869 0.034454741 0.077650391 14736852
0.40070149 0.035301916 0.072797343 14737364
0.39900002 0.040605444 0.079066254 14736852
0.40199995 0.043523639 0.075183205 13816264
0.39470422 -0.082811765 0.084748983 13881286
0.39396462 -0.074903801 0.084934287 13157563
0.39342499 -0.065267257 0.084826209 12631475
0.39178929 -0.054794829 0.085003525 12697013
0.38892156 -0.042845152 0.083514035 12894393
0.39057627 -0.046956044 0.086011164 12762807
0.38648337 -0.034995157 0.085057408 13289151
0.3849695 -0.025109595 0.085136741 13026491
0.38588312 -0.015129765 0.08512301 13487299
0.3873204 -0.0054115579 0.084907368 14144714
0.39000002 -0.002156164 0.080326125 14144715
0.38808328 0.0041184244 0.086773835 13815748
0.39072919 0.0056746318 0.082247004 13947335
0.389 0.011053877 0.088316068 13618112
0.39166939 0.015188581 0.084603734 13947335
0.39357698 0.024945745 0.085122749 14276300
0.39548716 0.035146527 0.085224725 14539472
0.39720693 0.042582262 0.085780367 14473936
0.40027276 0.045449425 0.082185492 13223358
0.39605996 -0.082465112 0.094574064 13947079
0.39606351 -0.074973598 0.095021926 13881541
0.39619038 -0.065018177 0.095163934 13420734
0.39424512 -0.055108145 0.094689012 12697013
0.38899997 -0.040929399 0.095070101 13552067
0.39173621 -0.045701865 0.094955876 13091772
0.38519186 -0.034943778 0.095054999 11907499
0.37831259 -0.023469478 0.096504621 2633001
0.38091791 -0.026308633 0.092896394 2895403
0.3783015 -0.016399853 0.096549459 2764074
0.38114917 -0.013592564 0.093228698 3684403
0.38406748 -0.0052976725 0.094876684 13158075
0.38603324 0.0046481234 0.094868995 13487296
0.38834801 0.014231917 0.095501035 13618113
0.39012501 0.017650496 0.091368124 13881797
0.38899997 0.02236809 0.097367428 14012870
0.39072219 0.025780609 0.093998149 14144457
0.38900003 0.031543639 0.099243939 14276042
0.39176112 0.035029516 0.094819076 14276044
0.39337483 0.043798346 0.094941691 13881799
0.39775005 -0.081717134 0.10269012 12697013
0.40042859 -0.080889247 0.10805301 11973545
0.39781541 -0.075032867 0.10290003 13025977
0.4003256 -0.075018637 0.10823688 12104875
0.39848006 -0.065672778 0.10248467 13420736
0.40010697 -0.064650916 0.10734695 12828342
0.3973749 -0.054529097 0.10459581 13289151
0.40000007 -0.058981132 0.10743466 12960186
0.38826472 -0.041739553 0.10578877 13552067
0.39297053 -0.046447877 0.10407048 13486531
0.37900001 -0.03057594 0.10645239 4867906
0.38368329 -0.035330746 0.10480604 12104620
0.37597805 -0.024715647 0.10515717 2501927
0.38000003 -0.029233279 0.10050616 2699306
0.37614843 -0.014985534 0.10517474 3159086
0.3802 -0.010735424 0.10162656 3749160
0.37871426 -0.0092494255 0.10789079 12105386
0.38228935 -0.0049949298 0.10486586 12565938
0.3848103 0.004631409 0.10492899 13354940
0.38633567 0.014573441 0.10521942 13683905
0.38836375 0.024673965 0.1049858 14144457
0.38834241 0.034147196 0.10571329 14407628
0.39013633 0.037738871 0.10198278 14341836
0.38839024 0.043258835 0.10800101 14144457
0.39105016 0.043718539 0.10302855 14144458
0.40325001 -0.080817975 0.11279371 11643810
0.40362072 -0.07492052 0.11504806 12564655
0.39900002 -0.060585063 0.11954245 14868183
0.40137529 -0.065106697 0.11528574 13617601
0.39653674 -0.054258119 0.11555389 14341839
0.40000001 -0.058986235 0.11369433 13946824
0.38736197 -0.04254644 0.11566184 13815495
0.39217746 -0.047514722 0.1144567 14078154
0.37799999 -0.031613283 0.11568929 7763313
0.38272095 -0.036388185 0.1149208 12960186
0.37283194 -0.025144089 0.11495349 2238756
0.37304622 -0.0151862 0.11503834 3159085
0.37813643 -0.0083458284 0.11552333 11974059
0.38129756 -0.0036249065 0.11473586 12697525
0.38256413 0.0049104318 0.11516175 13158076
0.38336465 0.015238732 0.11514241 13881542
0.38360003 0.02519181 0.11484373 14341836
0.38339141 0.035129853 0.11485255 14473421
0.3850922 0.043126099 0.11480069 14144970
0.40814286 -0.080536939 0.12371457 13815239
0.40538755 -0.074899271 0.12403733 14407373
0.39738303 -0.06240052 0.12467578 13881289
0.40074459 -0.06715966 0.12331655 14538961
0.39331999 -0.05495495 0.12406709 13684166
0.38658628 -0.044355147 0.12424478 13025979
0.39066669 -0.048752084 0.12151527 14341839
0.37561291 -0.031937212 0.12355405 6316637
0.38228336 -0.03712431 0.12440852 11973804
0.36900008 -0.023336934 0.12513982 1646618
0.3706924 -0.0258506 0.12263398 2106914
0.36900014 -0.016460545 0.12510018 2172190
0.37101647 -0.014681119 0.12219016 3487536
0.37823725 -0.0056943977 0.12470026 11053470
0.38027504 -0.0025471628 0.12316684 12039851
0.37900004 0.0004185139 0.12685904 10132626
0.38076383 0.0050356216 0.12399625 12171438
0.38098156 0.015459917 0.12437055 12039596
0.37899998 0.028514629 0.12212706 13552835
0.38074189 0.024761159 0.12396633 12368305
0.37900001 0.031495772 0.12391339 13224126
0.38128757 0.036065511 0.12380052 13355456
0.38465235 0.043310281 0.12464146 12894647
0.38416669 0.016762834 0.13128646 10658967
0.36400005 -0.030985093 0.14740309 1054224
0.36346292 -0.024762712 0.14745291 725515
0.36296558 -0.015733866 0.1474379 1775122
0.36406136 -0.032110006 0.15632387 2040863
0.3644484 -0.025266882 0.15540163 659722
0.36371553 -0.015303203 0.15520236 2234899
0.36303928 -0.032544285 0.16366147 1975323
0.36286542 -0.024864029 0.16501722 1251859
0.36379081 -0.016139511 0.16461872 1447697
0.35694116 -0.032400016 0.1788701 791308
0.36238822 -0.032576501 0.17444117 1251601
0.35622212 -0.025031805 0.17816363 857101
0.36133915 -0.024838096 0.17354059 1515288
0.35665223 -0.016779801 0.17870568 725773
0.36116388 -0.016891353 0.17507839 1186067
0.34302983 -0.033204559 0.18606503 1580823
0.34324974 -0.025068816 0.18630388 1514773
0.34308916 -0.016976977 0.18632549 1448982
0.35800001 -0.01161722 0.180172 791056
0.33900002 -0.031713754 0.19171968 1449237
0.34000003 -0.03296585 0.19079062 1515030
0.34016672 -0.024972895 0.19150305 1449238
0.34066674 -0.017666562 0.19155143 1514518
