# .PCD v0.7 - Point Cloud Data file format
VERSION 0.7
FIELDS x y z rgb
SIZE 4 4 4 4
TYPE F F F U
COUNT 1 1 1 1
WIDTH 807
HEIGHT 1
VIEWPOINT 0 0 0 1 0 0 0
POINTS 807
DATA ascii
0.44000003 -0.11573786 -0.060792696 16250099
0.44250003 -0.10189228 -0.060102209 13684167
0.43520001 -0.12116231 -0.053275779 16316918
0.43701431 -0.11544596 -0.054249581 16514040
0.44 -0.11335895 -0.058928806 16316661
0.43810818 -0.10635302 -0.052245114 16579831
0.44088712 -0.10422993 -0.056720328 15987182
0.43900001 -0.099031508 -0.050377458 16777211
0.4413898 -0.095743902 -0.053632792 15855596
0.44463643 -0.085104361 -0.052158166 15724268
0.44888893 -0.078668609 -0.052095696 15262944
0.45131826 -0.074384272 -0.051982466 14407636
0.45455557 -0.067118526 -0.050977465 13355458
0.42899996 -0.12281566 -0.040334705 16381942
0.43058336 -0.12281402 -0.045236941 16184562
0.42899993 -0.11541424 -0.04060477 16448246
0.43153498 -0.11487041 -0.04581641 16579832
0.43317524 -0.10494764 -0.044670306 16579831
0.4369874 -0.095578372 -0.044347171 16447730
0.44029415 -0.092319615 -0.048222542 16250352
0.43875006 -0.088104308 -0.041361991 16250352
0.44298902 -0.084688157 -0.045448262 16382194
0.44746765 -0.076302245 -0.044005252 16316657
0.45093548 -0.072759591 -0.047253277 16119025
0.44900003 -0.069228292 -0.041013841 16119533
0.45415738 -0.065272763 -0.04513447 15592678
0.45673248 -0.055553976 -0.044118706 14802906
0.45860007 -0.04723116 -0.041890595 14671320
0.46000001 -0.042207811 -0.041659672 12631480
0.42642182 -0.1237699 -0.034779668 16184305
0.42554328 -0.11482255 -0.034819335 16514038
0.42751402 -0.10580409 -0.033813458 16448242
0.43023345 -0.10269329 -0.037185349 16514292
0.42900002 -0.098951645 -0.030483037 16448498
0.43266022 -0.094916247 -0.035112947 16250606
0.43707955 -0.085404329 -0.034557067 16315885
0.44036368 -0.081297755 -0.037976511 16513778
0.43890917 -0.078133814 -0.03177892 16381677
0.44264653 -0.074407615 -0.035626236 16250862
0.44635364 -0.065703638 -0.034268338 16250863
0.45140001 -0.061846435 -0.037993565 16184558
0.44890004 -0.058703803 -0.031546995 16184556
0.45366663 -0.054546975 -0.035468463 15921642
0.45755875 -0.045999445 -0.034727603 15855849
0.46031252 -0.041607339 -0.036188047 15724520
0.45900002 -0.039608829 -0.030107487 15724775
0.46474293 -0.035520319 -0.033920027 15395555
0.46890002 -0.028827339 -0.032513566 15000799
0.47136372 -0.024717864 -0.033224437 14671578
0.47704172 -0.017383507 -0.031850513 14408406
0.48026666 -0.012811955 -0.032627538 12105907
0.4799999 -0.0070974184 -0.03189357 9277835
0.41834623 -0.12375466 -0.021791624 16250098
0.42174545 -0.12458803 -0.026593171 16184306
0.41796872 -0.11669838 -0.022005426 16381937
0.42128575 -0.11407168 -0.026318287 16579573
0.4240092 -0.10510838 -0.025085842 16316399
0.42731896 -0.09615159 -0.023986865 16250605
0.4304001 -0.092325643 -0.026563631 16381934
0.43311107 -0.085019156 -0.024869224 16381933
0.43723068 -0.075539432 -0.024659054 16381934
0.44025004 -0.071657389 -0.028791768 16250349
0.43887511 -0.068116359 -0.021852734 16381934
0.44254336 -0.064284734 -0.025362074 16119276
0.44712344 -0.055157043 -0.024747605 16185070
0.45055559 -0.052004915 -0.028968073 16053228
0.44866678 -0.046208389 -0.022603432 15987692
0.45314291 -0.044325203 -0.026830256 15856106
0.45617545 -0.03607855 -0.023354469 15461347
0.4624688 -0.032798633 -0.027158618 15329763
0.45883337 -0.028673599 -0.020787498 15263711
0.46542636 -0.025333684 -0.024680488 15132384
0.47078577 -0.02236007 -0.028519975 14737627
0.46771428 -0.017677523 -0.021842916 15000541
0.47410351 -0.014766098 -0.025691884 14935005
0.47669849 -0.0057066795 -0.024208108 14737627
0.48000002 -0.0032155849 -0.027889151 12830404
0.47817644 0.0018683779 -0.021753397 14803419
0.48059988 0.0054299217 -0.023713004 13684425
0.48432004 0.013949973 -0.021792211 13486788
0.41500002 -0.13065621 -0.013380683 15855339
0.41495821 -0.12490654 -0.014995866 16316146
0.41584083 -0.11497892 -0.0150505 16447472
0.4181 -0.10808334 -0.013364943 16052970
0.42149436 -0.10388276 -0.01603587 16250350
0.42531702 -0.095056072 -0.015246674 16381935
0.42783883 -0.085719049 -0.013349832 16448241
0.43021631 -0.083316468 -0.017168831 16382191
0.42885712 -0.077595927 -0.010345928 16448499
0.43239161 -0.0748211 -0.015140306 16447983
0.43536079 -0.065279141 -0.014543096 16382449
0.44050002 -0.060699202 -0.019098016 16053740
0.43666092 -0.055593554 -0.012830321 16316656
0.44215003 -0.054504454 -0.017982064 16250864
0.43827784 -0.047279775 -0.011135855 15987947
0.44403562 -0.044600133 -0.015824715 15790569
0.44685179 -0.036055937 -0.013218663 15461604
0.45233333 -0.033557639 -0.01705458 15330017
0.44900003 -0.028497502 -0.010794223 15263968
0.45540273 -0.025313528 -0.014585595 15197919
0.46135715 -0.02191231 -0.018228935 15131868
0.45842862 -0.017327707 -0.011750036 14869212
0.46382812 -0.014690313 -0.015775228 15000540
0.47000003 -0.011217303 -0.019459473 14934747
0.46660981 -0.0062647862 -0.013187295 14868955
0.47172225 -0.0045685787 -0.017448226 14868953
0.46900001 0.00051789713 -0.01136653 14737626
0.4743031 0.0046006828 -0.015021915 14606296
0.48000002 0.0087704267 -0.018749816 14408662
0.47613165 0.014323978 -0.012433017 14474454
0.48126322 0.015426535 -0.0171318 14342869
0.47791672 0.022813519 -0.01065097 14606041
0.48136681 0.025003919 -0.014844012 14342613
0.48108906 0.034267429 -0.012712642 14013904
0.48375002 0.044141889 -0.010591148 13487559
0.48680004 0.053036362 -0.010620471 11711146
0.40885714 -0.13072243 -0.0013862838 15723240
0.41125 -0.13079895 -0.0066814958 15657703
0.40834934 -0.12456684 -0.0024940083 16118509
0.41108152 -0.12493234 -0.0077591115 16316144
0.40871429 -0.11741727 -0.0012490491 16513521
0.41208729 -0.11448313 -0.0055788676 16513265
0.41522881 -0.10529231 -0.0046020462 16316399
0.42044446 -0.1013524 -0.0090966709 16514034
0.41769567 -0.096560553 -0.0021470489 16316142
0.42157343 -0.094169356 -0.0065645212 16316399
0.41900003 -0.088634513 -1.8918467e-05 16711670
0.42286488 -0.08506427 -0.0049631321 16316912
0.42463362 -0.075141929 -0.0043943501 16382449
0.42999998 -0.071332 -0.0090791546 16514291
0.42521435 -0.065250412 -0.0036344815 16250864
0.43042102 -0.063657135 -0.008452151 16382705
0.42653844 -0.055757061 -0.0021941091 16053486
0.43167308 -0.054252826 -0.0068458091 16119277
0.42810002 -0.04826539 -0.00062143925 15790313
0.43430763 -0.044843677 -0.0049031023 15856105
0.44000003 -0.040372696 -0.0089469478 15527396
0.43737993 -0.036285397 -0.0024410628 15461349
0.44227451 -0.033956833 -0.0069075204 15461603
0.43900001 -0.028890518 -0.00027674821 15132384
0.44505006 -0.025518347 -0.0042132684 15132383
0.45173332 -0.022199005 -0.0085526267 15000798
0.44796678 -0.016945107 -0.0017003749 14935005
0.45425382 -0.014338451 -0.0059990515 14935005
0.46000001 -0.010619679 -0.0097125834 14803419
0.45637506 -0.0058969301 -0.0030438628 14935005
0.46245456 -0.004175127 -0.0079956632 14869212
0.45853341 0.0025830304 -0.00080853404 14540247
0.46469557 0.0050225561 -0.0050000916 14540247
0.47020006 0.0069775446 -0.0093778102 14606040
0.46626532 0.014921233 -0.0025232665 14342869
0.47143239 0.014919597 -0.0075709419 14474454
0.46786955 0.02391777 -0.0012610502 14606040
0.47334549 0.025458839 -0.0057944087 14737369
0.47548449 0.034386024 -0.0038585067 14869214
0.4802143 0.037254665 -0.0081321383 14935006
0.47735 0.04318019 -0.0011410277 14803419
0.48185462 0.045404173 -0.005666676 14606297
0.48550004 0.055016987 -0.0047245012 14013904
0.48734486 0.063419588 -0.002069507 14342868
0.49149993 0.066367246 -0.0049807373 12895164
0.48900002 0.071705759 -2.2079068e-05 14079696
0.49458829 0.07317023 -0.0033016847 13224641
0.49200001 0.081935801 -2.2214523e-05 13816778
0.40614286 -0.13183618 0.0053771078 15657448
0.40501979 -0.12498005 0.0051937681 16249838
0.40674123 -0.11535598 0.0053895121 16381935
0.41000003 -0.11096606 0.0011812596 16381935
0.40833899 -0.10589722 0.0070875329 16447727
0.41139218 -0.10396951 0.0029250942 16316142
0.40892854 -0.095871352 0.0092810625 16513521
0.41335797 -0.094977118 0.0046963915 16513522
0.4146001 -0.085272387 0.0054489616 16513522
0.42000002 -0.082455069 0.00096426392 16448498
0.41496667 -0.075170554 0.0060229618 16382191
0.42046672 -0.074343294 0.0012930778 16448242
0.41616052 -0.065123767 0.0065632844 16119533
0.42050013 -0.064833872 0.0017030278 16053741
0.41734084 -0.055906665 0.0078830477 15987947
0.4216719 -0.054368049 0.0035240185 15921899
0.41860002 -0.048665266 0.0095844241 15724775
0.42384791 -0.045046087 0.0055006528 15724519
0.43025005 -0.041282315 0.001616945 15987947
0.42648575 -0.036884453 0.0081357798 15658728
0.4323971 -0.034078594 0.0041254908 15330018
0.43523362 -0.02529856 0.0056053577 15000798
0.44084615 -0.022242736 0.0018842431 14935005
0.43804356 -0.016663665 0.0080041112 14935005
0.44341803 -0.014228474 0.0041534901 14869212
0.44593433 -0.0055858665 0.006216492 14737626
0.45185003 -0.0035529141 0.0020933035 14737626
0.44800001 0.0035480678 0.0081151314 14540247
0.45421326 0.0055717654 0.0038911793 14474454
0.44900003 0.011182169 0.0094397804 14474454
0.45550847 0.0148445 0.0063129589 14408661
0.46145004 0.016357042 0.001922093 14408661
0.45767993 0.023509083 0.008334334 14474454
0.46375006 0.025707154 0.0040414375 14606040
0.46589288 0.03433625 0.0067086378 14737626
0.47119999 0.036612935 0.0023491222 14869212
0.46861535 0.042768583 0.0090077873 14803419
0.47315627 0.045465197 0.0048135687 14803419
0.4760465 0.054272268 0.0070999903 14869211
0.48126665 0.056190737 0.0029058692 14869211
0.47860003 0.061553843 0.0084931403 15132638
0.48309848 0.065270595 0.0046581891 15132382
0.48598281 0.074427754 0.0055636051 14935261
0.49016666 0.078570783 0.0018900897 14540248
0.48850003 0.081496321 0.0079827625 15131871
0.49133334 0.084673904 0.005562759 14671577
0.49233332 0.091981225 0.008814333 14144976
0.39900002 -0.13157409 0.019597374 15854825
0.401353 -0.13231026 0.015336977 15789289
0.39865392 -0.12442501 0.018861864 16381424
0.40123871 -0.12484055 0.013852282 16316144
0.39884216 -0.11530394 0.019196333 16382451
0.40196133 -0.1148307 0.014187786 16447984
0.39900002 -0.10775541 0.019597374 16448243
0.40340158 -0.10489938 0.014913558 16447728
0.40420711 -0.095043726 0.015077705 16381679
0.40467513 -0.084998846 0.015135811 16316142
0.40533972 -0.075096168 0.015704069 16053484
0.41041669 -0.073845379 0.01071016 16316912
0.4064762 -0.065273389 0.016749475 15987947
0.41147223 -0.064456694 0.011859815 16119533
0.407608 -0.055695318 0.01799619 15856361
0.41274253 -0.054542691 0.013092026 15856362
0.40880004 -0.048483033 0.018930212 15724775
0.41478491 -0.045214377 0.015190917 15592934
0.42050004 -0.041601565 0.011498119 15527396
0.41718423 -0.036586881 0.017866848 15527142
0.42268574 -0.03420645 0.013812083 15461604
0.42490423 -0.02557354 0.015605464 15000798
0.43078944 -0.02294573 0.010860862 14935262
0.42639542 -0.016248628 0.018060213 14935005
0.43379107 -0.014145847 0.013201333 14869212
0.428 -0.009379942 0.01951764 14737626
0.4350293 -0.0055012158 0.016007308 14672090
0.44141665 -0.0039008327 0.011431451 14737628
0.43736368 0.0037772006 0.017941749 14343126
0.4431667 0.0053349342 0.013364015 14408919
0.43900001 0.011446976 0.019506609 14211539
0.44437337 0.01461252 0.015695753 14211540
0.4508889 0.017622791 0.011120806 14277332
0.44757903 0.023833746 0.017733702 14277075
0.45311776 0.025546495 0.013304478 14474455
0.44900003 0.030627837 0.019950952 14540247
0.45633963 0.0340553 0.016156226 14606040
0.46212497 0.036845636 0.012507774 14606040
0.45900002 0.041338891 0.01896259 14540246
0.4653151 0.045013294 0.015041007 14606295
0.47000003 0.049114633 0.010981563 14540247
0.46818516 0.05280384 0.017635079 14737367
0.47141179 0.056200575 0.014297989 15000540
0.47554174 0.06440334 0.015308878 15197918
0.48041666 0.068854354 0.011692956 15198431
0.47850004 0.07147333 0.018274231 15395040
0.48266673 0.075593807 0.014317193 15329760
0.48578471 0.084613182 0.015190501 15395042
0.49028572 0.088209525 0.010799385 14803419
0.48772219 0.09219861 0.01773707 14934492
0.49136844 0.095151335 0.014808841 14342611
0.39683789 -0.13369805 0.025559729 15526117
0.40000001 -0.13564947 0.021051101 14999777
0.39522237 -0.12495103 0.024984507 16184301
0.39481205 -0.11497705 0.024885491 16250350
0.39504153 -0.10508719 0.024952592 16184556
0.39562696 -0.095122978 0.025226347 16052970
0.40000001 -0.09304294 0.020582898 16250349
0.39560017 -0.085062638 0.025744222 15987179
0.40000004 -0.084662102 0.021004274 16250349
0.3956773 -0.075217113 0.026206389 15855849
0.4003666 -0.074099936 0.021507112 15921897
0.39669695 -0.065256208 0.02741524 15790311
0.40149093 -0.064651884 0.02260351 15922154
0.39755008 -0.055452842 0.02843537 15658727
0.40280956 -0.054611571 0.023669574 15790312
0.39875004 -0.048644777 0.029619869 15461603
0.40409452 -0.045149524 0.025322661 15593190
0.4111819 -0.041781247 0.020895025 15856361
0.40677431 -0.035725087 0.027162023 15461603
0.41301855 -0.034471277 0.022498656 15395812
0.40849999 -0.027759152 0.028989112 15001053
0.41484442 -0.024948329 0.025185157 14935261
0.42054546 -0.022238163 0.021281719 14935005
0.41693336 -0.015824707 0.027632186 14803676
0.42173684 -0.014635011 0.023134209 14803420
0.41820002 -0.0078909518 0.028861556 14737627
0.42396626 -0.0051788585 0.024857515 14671834
0.43022227 -0.002881336 0.020459281 14540504
0.42587093 0.0040017604 0.026859127 14277076
0.43204769 0.00566018 0.022323444 14343125
0.42730775 0.011605079 0.028911369 14211282
0.43445569 0.014769421 0.024902681 14145489
0.44081822 0.018157136 0.021369128 14145489
0.43799999 0.023684518 0.027663544 14145489
0.44283342 0.02577029 0.023918904 14342868
0.44612241 0.033231691 0.026442297 14474197
0.45283338 0.037018165 0.022737432 14474710
0.44900003 0.04008789 0.029411007 14013133
0.45542648 0.044320229 0.025964249 14474709
0.4616667 0.047405466 0.022132985 14672087
0.45842862 0.051202416 0.028493905 14671576
0.46488404 0.055186603 0.024669187 14737625
0.47000003 0.059567284 0.020884071 15197661
0.46777424 0.063279718 0.027458958 15000797
0.47176087 0.066108286 0.023838051 15132382
0.47498646 0.074491076 0.025358684 15395297
0.48022223 0.077851072 0.021088056 15526626
0.47771427 0.083593898 0.027335729 15592419
0.48115224 0.085591935 0.022895057 15526626
0.48458838 0.094671078 0.025142306 14803418
0.49100003 0.09901087 0.020667747 15000028
0.486 0.10027808 0.027281817 5196875
0.39314294 -0.13411556 0.034846283 15262946
0.39169466 -0.12486884 0.034774642 15920872
0.38900003 -0.11006338 0.039140645 15393755
0.39104351 -0.1150184 0.034843486 15657956
0.38899997 -0.10363521 0.037988931 15328991
0.39102292 -0.10552204 0.033426475 15724005
0.388742 -0.094226651 0.037440084 15395297
0.39110947 -0.095424086 0.032439701 15789798
0.38851234 -0.084824957 0.037003867 15264224
0.39087752 -0.085067235 0.031782735 15658727
0.38834789 -0.075331777 0.037530575 15395810
0.39126226 -0.074755363 0.032307606 15724519
0.38839689 -0.065512359 0.037822049 15395554
0.39182094 -0.064819947 0.032902543 15724776
0.38878259 -0.05701445 0.038841207 15527141
0.39285827 -0.054755617 0.034250677 15593190
0.39498186 -0.045382194 0.035487715 15461604
0.40007147 -0.041748378 0.031490702 15461603
0.39650774 -0.035612535 0.037534401 15198177
0.40204477 -0.034391817 0.032566905 15263969
0.39757156 -0.02662755 0.038837932 14935005
0.4040108 -0.024827104 0.034332026 14935005
0.41075003 -0.020780435 0.030991748 14737626
0.40536857 -0.015757859 0.036655396 14672090
0.41259572 -0.014023587 0.032014873 14737627
0.40713647 -0.0054757097 0.038340531 14540505
0.41408113 -0.0050756172 0.033334672 14474712
0.42000002 -0.0013387954 0.03046109 14343127
0.40842858 0.0010894396 0.039045792 14145748
0.41522893 0.0047162115 0.036028784 14145747
0.42120701 0.0061566471 0.03183917 14211282
0.4168846 0.013312897 0.038490199 14145491
0.42412654 0.015385854 0.034115434 14145489
0.42999998 0.018929856 0.030515263 14145490
0.42645457 0.022407249 0.036882918 14145490
0.43323812 0.026180068 0.033763226 14277076
0.4369069 0.033327196 0.037032988 14474454
0.44317311 0.036739737 0.033530332 14539990
0.44611764 0.044330839 0.03596729 14474455
0.45170006 0.047204636 0.032229468 14605784
0.44621629 0.054631665 0.037975203 14737627
0.45520413 0.054690927 0.033548832 14868956
0.46118182 0.057862714 0.030992774 14935005
0.4480769 0.06268058 0.039031915 14803420
0.45490327 0.065142855 0.037004169 14935006
0.46475002 0.065256648 0.032403216 15132384
0.45533335 0.07121221 0.038702998 14935007
0.46612504 0.073462516 0.035535429 15263970
0.47100008 0.076737411 0.033155005 15329763
0.46785718 0.082924597 0.039094608 15132384
0.47444007 0.085190348 0.034309112 15329763
0.47715795 0.093664423 0.036630783 14211282
0.48083329 0.095180206 0.031963822 15066332
0.38899997 -0.13162938 0.047502123 15263200
0.39052105 -0.13466311 0.043951709 14933724
0.38880956 -0.12445237 0.045552041 15526113
0.39005259 -0.12626915 0.040688254 15591907
0.38860318 -0.11484645 0.045048524 15526369
0.39000002 -0.11947628 0.04015426 15065562
0.38835391 -0.10488056 0.044979881 15263197
0.38742515 -0.095025316 0.045295212 15000282
0.38608262 -0.084837802 0.045168575 15000282
0.38536981 -0.074830264 0.045018625 15131868
0.38518819 -0.06492544 0.045092069 15263711
0.38579065 -0.054908015 0.044868417 15329761
0.38661891 -0.045449875 0.045278821 15263969
0.39072224 -0.042252108 0.041091669 15395555
0.38734376 -0.035774596 0.047540944 15198431
0.39204213 -0.034319147 0.042931873 15132384
0.38850001 -0.026738418 0.049058754 14737882
0.39335525 -0.024455482 0.044264495 14869212
0.39480901 -0.015161218 0.045564938 14737626
0.40052387 -0.012905831 0.041147597 14737626
0.39615616 -0.0055904547 0.047548193 14474455
0.40209249 -0.0045735538 0.042735081 14474454
0.39775005 0.0037402499 0.048633274 14079698
0.40419412 0.0048653004 0.044292908 14079953
0.41088891 0.0083635934 0.040914927 14079953
0.40472734 0.014472352 0.047572255 14079697
0.41342598 0.015555461 0.042684346 14079697
0.42000002 0.019800596 0.040293366 14079698
0.40684214 0.022995643 0.049003776 14277077
0.41450006 0.02504193 0.04658334 14342868
0.42292866 0.025721814 0.042383533 14342870
0.43000001 0.029331779 0.040246092 14342870
0.41588891 0.03475837 0.047899105 14277076
0.42322874 0.035762973 0.043906149 14408663
0.4321875 0.033788178 0.041079842 14540247
0.41766667 0.042832118 0.048867736 14408661
0.42296302 0.045155089 0.045959931 14408662
0.4341667 0.046506643 0.042320732 14408663
0.44083333 0.045035716 0.040228046 14342868
0.4252308 0.054458849 0.048089802 14474711
0.43409997 0.055177093 0.044256724 14540249
0.44127774 0.056044109 0.041070536 14606040
0.42733335 0.060829312 0.049332488 14803419
0.43536961 0.064289287 0.047189049 14540249
0.44373688 0.066408455 0.043053713 14606041
0.45033336 0.06867215 0.040040728 15132386
0.43833336 0.071288638 0.04906277 14540506
0.44562969 0.074060351 0.045928646 14606041
0.45357147 0.076865926 0.042369839 14606040
0.44900003 0.08125665 0.048681486 14606042
0.45473915 0.084454328 0.046485472 14671834
0.46366668 0.085586809 0.042396855 14803419
0.47000003 0.088724658 0.040689085 14803676
0.45700002 0.091513284 0.048975937 14604503
0.46492305 0.092834204 0.046104446 14473685
0.47400004 0.095011808 0.041872732 12895166
0.38875583 -0.13332868 0.054775465 14605014
0.39000002 -0.13718842 0.050745029 14144723
0.38789111 -0.12506633 0.055349145 15197148
0.38714883 -0.11497855 0.055266809 14999768
0.38618281 -0.10498488 0.055010363 14736854
0.38531977 -0.09492182 0.055047482 14737110
0.38407543 -0.084796898 0.055125576 14671573
0.38290834 -0.07514073 0.055140756 14803158
0.38187894 -0.065138623 0.054956641 15000281
0.3815673 -0.055178333 0.054845732 15000538
0.37899998 -0.045481663 0.059250902 14803419
0.3817232 -0.044877559 0.054636396 15000797
0.38269177 -0.034853835 0.055103827 14869212
0.383656 -0.025069417 0.055153731 14671833
0.38538769 -0.015343472 0.055334285 14671833
0.39036366 -0.013413364 0.050493039 14606297
0.38681173 -0.0058393711 0.05655431 14277076
0.39160466 -0.0043884316 0.052042201 14277075
0.38763413 0.0040231277 0.058521934 13948369
0.39348999 0.0050311647 0.0534897 14079698
0.38866666 0.012136878 0.059123751 13948369
0.39491913 0.01492902 0.055070288 14079955
0.40012506 0.017049462 0.051090457 14079955
0.39558977 0.024754925 0.057283323 14277334
0.40221566 0.025392901 0.05229757 14277333
0.39731434 0.034199741 0.058205523 14277332
0.40368423 0.035007402 0.054181248 14343125
0.41178954 0.036463395 0.050717428 14408661
0.39866671 0.041194495 0.059712291 14343125
0.40485722 0.044743914 0.056651294 14408918
0.41354549 0.045572367 0.052011099 14408661
0.42000002 0.049297426 0.05012564 14211539
0.4073334 0.053146724 0.058464404 14474454
0.41418314 0.055140246 0.054798506 14408661
0.42122734 0.056078579 0.051077738 14474711
0.41580483 0.063600712 0.057810817 14540247
0.42370841 0.065024137 0.054071162 14606040
0.4314118 0.067273252 0.051604368 14540505
0.41800001 0.070590675 0.059672404 14671833
0.42576471 0.07542409 0.057959385 14606039
0.4330613 0.074596345 0.053533725 14474712
0.4434 0.078619227 0.050840937 14606042
0.42791668 0.08194939 0.058748618 14803419
0.43265113 0.085573472 0.056928724 14408404
0.44679168 0.084995896 0.052313384 14540248
0.45075002 0.087729931 0.051157225 14540247
0.433 0.091369331 0.058940548 13552586
0.45300001 0.090817869 0.050882641 14605014
0.38741857 -0.13357638 0.065354683 14473686
0.38683203 -0.12492391 0.065112084 15328736
0.38586646 -0.11480008 0.064995408 15065819
0.38530084 -0.10509107 0.065020241 14671317
0.38460943 -0.09525311 0.064896129 14605524
0.38219664 -0.085061304 0.06512063 14276559
0.37900001 -0.070856899 0.069188058 14737110
0.38113582 -0.074933849 0.065008432 14408146
0.37860268 -0.064409629 0.067450568 14473682
0.3802332 -0.065168619 0.062602617 14737110
0.37809196 -0.054205228 0.066046722 14605782
0.38014287 -0.056800563 0.061641239 14671063
0.37784073 -0.044988159 0.064991817 14803161
0.37795651 -0.035269547 0.06566745 14606039
0.38000008 -0.034392882 0.060830582 14869212
0.37798065 -0.025254829 0.06649819 14342868
0.38048652 -0.024287432 0.061682638 14540247
0.37800014 -0.015177892 0.067120858 14211282
0.38079631 -0.014566975 0.062300015 14342868
0.37847829 -0.0057121371 0.068436995 13816524
0.38219795 -0.0050373371 0.063407309 14014160
0.37900001 0.00012276527 0.068744436 13685195
0.38268161 0.0051005185 0.065007508 13750989
0.38496327 0.015051045 0.065090723 13882575
0.39000002 0.018842768 0.06024019 14343127
0.38712654 0.02432625 0.066205658 14211284
0.39145008 0.026040524 0.061951227 14277333
0.38851166 0.033800576 0.068427183 14211284
0.3928335 0.035295915 0.063502289 14277076
0.38900003 0.041105524 0.069192298 14277075
0.39451879 0.044730991 0.065609358 14408661
0.40075001 0.047554739 0.061383057 14606040
0.39650881 0.054245338 0.067558818 14869466
0.40337142 0.055564862 0.06288778 14606040
0.39764708 0.063157409 0.069140956 15000795
0.40460262 0.064729884 0.065867268 14671833
0.41255891 0.066379964 0.061845254 14474454
0.4056111 0.074494429 0.068059117 14672091
0.41438347 0.074892886 0.063898638 14342870
0.42155558 0.077005178 0.061165292 14474455
0.40805879 0.083581753 0.069265656 14540506
0.41481477 0.085370399 0.066940151 14211541
0.42415094 0.085364506 0.062789261 14342870
0.43000001 0.088220082 0.060378846 14474712
0.41457149 0.092004314 0.067815401 14013647
0.42470002 0.091900676 0.063402861 13881549
0.43000001 0.091491662 0.060630504 13816525
0.38701278 -0.13372964 0.075072452 14670807
0.38557631 -0.12523057 0.074993335 14999770
0.3849996 -0.11524068 0.074789897 14999513
0.38474184 -0.10515898 0.075032957 14670804
0.38327673 -0.095051497 0.074974023 14539732
0.38143602 -0.084862247 0.074881755 14276559
0.37854877 -0.073811054 0.076021157 14342352
0.38032562 -0.077503175 0.073362462 14276559
0.37753096 -0.065158322 0.075019583 14605267
0.37566149 -0.055026688 0.075151145 14671060
0.37499291 -0.044951145 0.075133912 14539988
0.37500009 -0.034992512 0.075035229 14211025
0.3754195 -0.02495997 0.075125039 13553352
0.37563622 -0.014826826 0.075164586 13553352
0.3762044 -0.0051607015 0.075261287 13290180
0.3774842 0.0045922468 0.075531632 13422023
0.38021061 0.0073853652 0.071001552 13487816
0.37830648 0.014236312 0.077344626 13487817
0.38098562 0.01612808 0.073090076 13750731
0.37899998 0.021810995 0.079342097 13948367
0.38271859 0.025333509 0.074636504 14014160
0.38498479 0.035223756 0.075228445 14079697
0.38770834 0.044619042 0.075156704 14342868
0.39085004 0.047936048 0.071807466 14606040
0.38842559 0.054240592 0.07827834 14868696
0.39212358 0.05548469 0.073422745 14935002
0.38877779 0.061408844 0.079163745 15066075
0.39342362 0.065163217 0.074709393 15066590
0.40000001 0.069423698 0.070212476 15197661
0.39542699 0.074599519 0.075939685 15000798
0.40057689 0.075982064 0.071250595 14869212
0.39684623 0.084225252 0.077713028 14935006
0.40321624 0.085674234 0.073099688 14737883
0.39900002 0.090733662 0.079377607 14671835
0.40409732 0.093836159 0.076095119 13816527
0.41020003 0.092321232 0.070082329 13948114
0.40600002 0.10087956 0.079819746 2433314
0.38619301 -0.13413392 0.084963776 14342355
0.38526434 -0.1252422 0.084760271 14868440
0.38497522 -0.11516768 0.084786355 14868183
0.38383982 -0.10511347 0.085172221 14736598
0.38213035 -0.094936289 0.08484938 14407633
0.37899998 -0.081060223 0.088374749 14078925
0.38073471 -0.085412994 0.084719613 14210510
0.37817329 -0.075131506 0.084971413 14210766
0.37605411 -0.065057226 0.084971108 14276303
0.3740083 -0.054942906 0.085079134 14276304
0.37342897 -0.045039356 0.085113898 14276561
0.37347361 -0.03510781 0.085147724 13026751
0.37424302 -0.024854263 0.085266754 9013895
0.37433347 -0.014959532 0.085301407 9474445
0.37421975 -0.0050709131 0.085043281 12500665
0.37453252 0.0050553931 0.084761865 13027008
0.37603024 0.015091072 0.084922597 13421766
0.37767506 0.024488706 0.08544483 13750988
0.38025007 0.027941635 0.081099249 13948110
0.37857896 0.032775573 0.087675229 13816524
0.38113832 0.035701789 0.083945394 13750731
0.38275334 0.044896156 0.084893659 14145744
0.38386226 0.05490889 0.084928207 14803160
0.38610923 0.064818792 0.085364714 15066076
0.39025003 0.068074748 0.08072 15066332
0.38716668 0.074424617 0.086684383 15000541
0.39150012 0.075970545 0.082218237 15000798
0.38848397 0.083649591 0.088667095 15132127
0.39278802 0.085206464 0.084056973 15066334
0.38900003 0.09028095 0.08922673 14869214
0.39450601 0.093483277 0.085374705 14868957
0.40147996 0.097052127 0.081746705 13025985
0.40481824 0.10248788 0.084848516 3485231
0.38616851 -0.13393527 0.094831876 14210256
0.384817 -0.12498976 0.094786271 14736855
0.38406169 -0.11505993 0.094871163 14868440
0.38245147 -0.10467608 0.095027685 14802391
0.38126028 -0.095053405 0.095132664 14671062
0.37838197 -0.083671845 0.096095286 14407890
0.38045648 -0.087858632 0.092919014 14408146
0.37705266 -0.074910916 0.09486787 14210511
0.37474629 -0.064754814 0.095010877 14144718
0.37300795 -0.054911405 0.095000304 14144462
0.37168163 -0.045125183 0.095256642 14210256
0.37245041 -0.035144608 0.094999053 10856096
0.37137303 -0.025154201 0.095091924 2305063
0.36900002 -0.01672527 0.099324435 2239014
0.3714897 -0.014941148 0.094877586 2896175
0.37330806 -0.0051852302 0.094874121 11513769
0.3727051 0.0050226301 0.094834529 12632505
0.3729578 0.014908983 0.09506847 13027264
0.37452105 0.025021536 0.095013291 13422022
0.37672627 0.035034683 0.094853379 13816524
0.37768376 0.044852033 0.095572568 14145488
0.38045457 0.046882521 0.090949781 14342610
0.37796009 0.054474756 0.097285904 14736855
0.38091183 0.055541988 0.092470773 14868440
0.37853661 0.064208269 0.098778099 14736856
0.38151976 0.065271199 0.093818031 14934235
0.37900001 0.070215181 0.099354416 14671063
0.38233569 0.074996121 0.094826475 14868699
0.38415661 0.084838465 0.094958574 14803418
0.38689655 0.093325175 0.095189683 14540761
0.39133334 0.098154545 0.094195426 14212054
0.39492309 0.10296093 0.098257743 7368047
0.40580955 0.10635101 0.094829813 5722707
0.38534552 -0.13255095 0.10401663 13684682
0.38406479 -0.12513471 0.10489018 14473426
0.3818661 -0.11502258 0.10514209 14736855
0.37900001 -0.10057963 0.10911413 14078667
0.38087305 -0.10525377 0.10482313 14605781
0.37843627 -0.09403193 0.10603762 14473682
0.38025713 -0.096984588 0.10217576 14736855
0.37719649 -0.085014142 0.10502162 14342353
0.3750526 -0.075059839 0.10489001 14276560
0.37383622 -0.065121554 0.104918 14210511
0.37170151 -0.054976504 0.10505635 13947340
0.37099966 -0.045042735 0.10507394 13750218
0.37120402 -0.03496464 0.10490858 9803409
0.36785954 -0.02427998 0.10547555 2173476
0.37036836 -0.028173575 0.10215627 2305318
0.36796615 -0.016143346 0.10528355 2304549
0.37045452 -0.01123238 0.1042347 4672583
0.37149233 -0.005097901 0.10477491 11185060
0.37101328 0.0048995353 0.10504047 12369333
0.37104031 0.014950596 0.10500015 12829629
0.37209013 0.024949705 0.10494056 13421766
0.37332883 0.03515619 0.10496262 13619145
0.37408531 0.044730026 0.10498837 14079695
0.37496448 0.054883111 0.10495725 14671063
0.37622136 0.065036677 0.10520408 14736856
0.37732562 0.074688606 0.10523317 14737369
0.38000005 0.077517137 0.10072856 14802906
0.37787512 0.084593482 0.10680737 14671833
0.38087028 0.085771382 0.10218745 14737112
0.37840003 0.09127596 0.10876346 14869212
0.38369089 0.095117033 0.10458335 14737368
0.3883 0.10274032 0.10565183 6447198
0.39133334 0.10303792 0.10014356 2630177
0.38565716 -0.13194817 0.11583135 13881804
0.38353142 -0.12511344 0.1151331 14473939
0.37899998 -0.11122659 0.11776476 14737111
0.38093281 -0.11554449 0.11468603 14802903
0.37840626 -0.10500746 0.11502662 14671062
0.38000005 -0.10718332 0.11051401 13947851
0.37743071 -0.095128171 0.11506025 14473683
0.3753787 -0.085122898 0.11489809 14210766
0.37401617 -0.075178705 0.11532992 14078924
0.37330097 -0.065380007 0.1150023 14078924
0.37165406 -0.055056151 0.11477211 13552837
0.37155637 -0.044982824 0.11488731 13092543
0.368875 -0.030104522 0.11688442 2370341
0.37165332 -0.035233162 0.11484639 8684413
0.36678225 -0.024805712 0.11526896 1975585
0.36692929 -0.01503125 0.11525411 2896174
0.37 -0.01027427 0.11172009 8487805
0.3709524 -0.0050892886 0.11485925 10000787
0.37046638 0.0048645148 0.11508676 11645354
0.37012103 0.014849993 0.11478788 12500662
0.37032607 0.024828482 0.11485001 13224386
0.36899999 0.036112677 0.11890469 13422020
0.37058172 0.034863923 0.1145309 13421765
0.3711282 0.045189425 0.11488713 13947851
0.37226585 0.055026565 0.1150106 14342353
0.37352276 0.064907581 0.1150308 14408915
0.37414199 0.075005114 0.11507243 14474453
0.37444848 0.084880404 0.11477865 14539990
0.37739441 0.09326566 0.11555409 14277075
0.38111621 0.097685315 0.11370175 14277077
0.38424999 0.10249678 0.11297359 2829358
0.38519242 -0.13139147 0.12407421 13750218
0.38271022 -0.12471925 0.12468838 14276819
0.37873212 -0.1127163 0.12580235 14606037
0.38054097 -0.11722233 0.12423386 14539989
0.37795836 -0.10512634 0.12480636 14474195
0.37630749 -0.095005684 0.12495268 14408146
0.37441877 -0.084985644 0.12499852 14408146
0.37394238 -0.075164191 0.12516536 14210766
0.37315175 -0.06495972 0.12490156 13947595
0.37348762 -0.054962378 0.12501748 13421252
0.37361392 -0.044921745 0.12505944 12631737
0.36828572 -0.030610915 0.12388594 2107169
0.37304142 -0.03576329 0.12490077 8355448
0.36468282 -0.024986779 0.12506899 1646361
0.36533073 -0.015348434 0.12477714 2895915
0.37 -0.01027427 0.12990978 8882306
0.37268287 -0.0047329082 0.12488366 9211270
0.3716327 0.0050101988 0.12512922 10790301
0.36899999 0.01886984 0.1215301 11184546
0.37062377 0.01447071 0.12525158 11579560
0.36899999 0.022190526 0.12165459 11776683
0.37042984 0.025535598 0.12549263 12369076
0.36900002 0.036400624 0.12229974 12631992
0.37018451 0.034360994 0.12688498 12434868
0.3690002 0.042270269 0.12535024 12697784
0.37007555 0.046334978 0.12494216 13487299
0.37035796 0.054820891 0.12532894 13881800
0.37119547 0.064893119 0.1246457 14144972
0.36899999 0.079016514 0.1289828 13684163
0.37122449 0.075012721 0.12482426 14210765
0.36879998 0.08192376 0.12806325 14473937
0.3716462 0.085042618 0.12429287 14473939
0.37665662 0.094185337 0.12524271 13750730
0.38000008 0.099121399 0.12401668 11711154
0.38096547 0.10127145 0.1248396 3684404
0.38500002 -0.13056262 0.13066995 14078926
0.38103837 -0.12304521 0.13172625 13947599
0.37845293 -0.11421953 0.1323424 13619146
0.38000003 -0.1196746 0.13178995 14540249
0.37781101 -0.10508259 0.13261594 13224387
0.37586668 -0.09484297 0.13302474 13092544
0.37417963 -0.084803902 0.13319619 13684938
0.37305483 -0.074843891 0.13339911 14145230
0.37324637 -0.064851992 0.13448347 13619144
0.37400028 -0.054900862 0.13461083 13750473
0.37455299 -0.045099143 0.13493124 12039599
0.3634595 -0.031249562 0.13529593 2106654
0.3744058 -0.036685061 0.13440524 9211014
0.36183333 -0.024870804 0.1346577 1712409
0.36331236 -0.015592884 0.13495713 2566691
0.37088892 -0.010395194 0.13417716 8882561
0.37355766 -0.0051573035 0.13486418 9013892
0.37290654 0.0049179392 0.13486119 10855839
0.37137201 0.01497792 0.13506167 11908527
0.37099946 0.024872931 0.13503776 12632249
0.3708775 0.034907803 0.13509697 12829371
0.37028104 0.04490862 0.13530576 13355715
0.37002277 0.05508931 0.13512835 13947850
0.36886361 0.067590706 0.13885219 13948365
0.3703948 0.06480325 0.13432269 14210765
0.36814019 0.075546555 0.13577013 13684936
0.37039024 0.072658695 0.13224491 14013130
0.36775014 0.083077513 0.13489078 14144717
0.37087178 0.088389955 0.13475585 13355972
0.37553766 0.094945803 0.13464166 10329241
0.37850001 0.10113519 0.13289303 2631964
0.37400004 -0.053286839 0.14006962 9474186
0.37430775 -0.046787892 0.14045373 9276551
0.3618215 -0.031161975 0.1441673 1054739
0.377 -0.039593253 0.14031062 9013892
0.36152804 -0.0247325 0.14447804 1120530
0.36164472 -0.015579337 0.14454536 2434592
0.37443483 -0.004311787 0.14297852 8750977
0.37369135 0.0046968111 0.14275102 10263961
0.36800003 0.019072086 0.14988345 9606283
0.37114301 0.015199441 0.14347751 11579563
0.36832002 0.026296146 0.14787407 10198168
0.37060648 0.024402358 0.14357795 12763838
0.36851275 0.035071008 0.14743623 11645613
0.37031969 0.035085492 0.14272326 13553352
0.36847246 0.045088973 0.14692652 13290181
0.37009272 0.044786319 0.14192706 13750986
0.36830628 0.055027805 0.14643188 14145490
0.36999995 0.054727454 0.14153583 14211536
0.36783466 0.065264173 0.14523968 14342867
0.36999997 0.062138092 0.1408236 14277329
0.36634031 0.075062394 0.14499737 14079440
0.3662501 0.083701998 0.14496401 12236982
0.37081823 0.0890605 0.14250849 12632506
0.37446576 0.09446761 0.14420661 9210504
0.36465582 -0.032161873 0.15621394 1842968
0.3651571 -0.025188493 0.15558602 593930
0.36396474 -0.015473309 0.15506423 1906449
0.36700004 0.025249122 0.15033531 9672076
0.36825001 0.034823705 0.15041544 9935249
0.36800003 0.048793651 0.15074494 10395290
0.36745837 0.055134315 0.15098906 11250345
0.36691657 0.064969212 0.15116002 12303031
0.36524999 0.074932374 0.15090097 12697533
0.36499998 0.082804784 0.15076487 11644591
0.36288381 -0.033369765 0.16476503 1251090
0.36347964 -0.024879273 0.16526321 1251345
0.36433697 -0.016418492 0.16448952 1381646
0.34900001 -0.03665264 0.1797276 1975070
0.35614291 -0.032925095 0.17987929 1119503
0.3628405 -0.032911822 0.1753301 1251090
0.35825926 -0.025289027 0.1793683 790539
0.36170319 -0.02482979 0.17486793 1382675
0.35900003 -0.018793287 0.17983486 855562
0.36247838 -0.01676237 0.17609756 1250576
0.34590289 -0.033661041 0.18489358 1908760
0.35396776 -0.032575168 0.1803491 1580053
0.36000001 -0.035700966 0.18033578 922123
0.34585807 -0.024955928 0.18539624 1711126
0.35384208 -0.025037125 0.18067181 1382419
0.34630027 -0.016886011 0.18621835 1710614
0.35508934 -0.017172268 0.18145452 1382163
0.36092594 -0.012397045 0.18261795 1974043
0.36252379 -0.0083686505 0.18588555 8751232
0.34173164 -0.032766957 0.19161184 1842709
0.34243831 -0.025077563 0.19194084 1711126
0.34339598 -0.01737076 0.19181107 1710870
