# .PCD v0.7 - Point Cloud Data file format
VERSION 0.7
FIELDS x y z rgb
SIZE 4 4 4 4
TYPE F F F U
COUNT 1 1 1 1
WIDTH 608
HEIGHT 1
VIEWPOINT 0 0 0 1 0 0 0
POINTS 608
DATA ascii
0.40199998 -0.1407183 -0.011156715 16184822
0.40581402 -0.13579983 -0.011864146 16316405
0.41222227 -0.1330737 -0.015033382 14277078
0.40722862 -0.12428764 -0.011816381 16316404
0.41073337 -0.12723972 -0.014057943 15724524
0.40336114 -0.11513673 -0.01192983 16185075
0.40002307 -0.10486272 -0.011756577 16250610
0.39868757 -0.093380176 -0.010810093 16315889
0.40020832 -0.095941849 -0.012315243 16184817
0.39856529 -0.085710436 -0.010971719 16184558
0.40000004 -0.084240712 -0.012612736 15856107
0.39786673 -0.074667349 -0.011164959 16053486
0.40000004 -0.076749459 -0.012940479 15658729
0.39538896 -0.064537346 -0.011409051 16184817
0.39587495 -0.055272982 -0.011168146 15987694
0.39630225 -0.045222592 -0.011583283 15987693
0.39751169 -0.035338644 -0.011619216 15724778
0.40000001 -0.03077187 -0.013127761 14869469
0.3977648 -0.024605248 -0.011303113 15329765
0.40007699 -0.026022641 -0.013202495 15198179
0.39613637 -0.014707246 -0.011610713 15263972
0.39778581 -0.0048147114 -0.011771207 14869214
0.40000001 -0.005020672 -0.014064168 15066593
0.39696711 0.004910673 -0.012375354 14606042
0.39743102 0.014519055 -0.01234086 14606041
0.40011114 0.01886321 -0.014588822 14671834
0.39734784 0.025080908 -0.010777158 15000800
0.40189287 0.02530022 -0.014522259 14869214
0.39771065 0.034946539 -0.01165879 15066335
0.40050977 0.034949388 -0.015370524 14803420
0.39763632 0.044811491 -0.010723748 15198178
0.40095377 0.044865217 -0.014577971 15000798
0.3987143 0.052000094 -0.010552249 15527143
0.40199998 0.055271212 -0.013724743 15395557
0.4050256 0.065023743 -0.013606724 15527141
0.40627784 0.075071879 -0.01330187 15658471
0.40707698 0.084377527 -0.012760899 15132130
0.41000003 0.086036459 -0.015375591 15197926
0.40766671 0.092280775 -0.011046942 14144723
0.3961969 -0.14349237 -0.0033683819 16184562
0.40014291 -0.14118426 -0.0087166214 16250868
0.39572272 -0.13505739 -0.0033082101 16579576
0.4011212 -0.1348594 -0.0084713139 16645371
0.39474723 -0.12491328 -0.0033210816 16514039
0.40161541 -0.12552632 -0.0085549243 16644857
0.39461377 -0.11479353 -0.004102313 16579574
0.40076923 -0.11664303 -0.0090400195 16447733
0.3944698 -0.10507135 -0.0046069887 16579572
0.38900003 -0.090939604 -1.7563922e-05 16250865
0.3936896 -0.095044032 -0.0047473959 16513779
0.39350843 -0.085010752 -0.0045710066 16513778
0.38900003 -0.073788911 -1.7563922e-05 16513521
0.39311799 -0.075161658 -0.0048441202 16382193
0.389 -0.064617306 -0.00053793879 16185070
0.39210317 -0.065149359 -0.005467304 16185071
0.38899997 -0.055424012 -0.0004728919 15987947
0.39243436 -0.054993454 -0.0055400422 16250864
0.38899997 -0.045406792 -0.0004728919 15790825
0.39314139 -0.044968881 -0.005551565 16119535
0.38895831 -0.035044786 -0.0005867221 15592676
0.39326024 -0.034971297 -0.0056690727 15921899
0.38879412 -0.025304817 -0.00098177884 15263969
0.39290702 -0.024772916 -0.0060828282 15461349
0.38886669 -0.015350978 -0.00083714811 15000541
0.39276999 -0.014940454 -0.0059036207 15263970
0.38851357 -0.0051601725 -0.0011247171 14737627
0.39329624 -0.0053049796 -0.0060867169 14934750
0.38858822 0.0045420639 -0.00098142494 14342868
0.39271268 0.0047752038 -0.006039313 14540249
0.38899997 0.0146965 -0.00092822011 14277077
0.39231813 0.014821675 -0.0059969663 14540249
0.38884851 0.024703166 -0.00092821289 14671833
0.39204538 0.024906131 -0.0059920046 14934748
0.38892305 0.036476228 -0.0004378632 14868698
0.39292619 0.035180427 -0.0057016104 15000541
0.389 0.044618055 -0.00045120963 14868699
0.39293784 0.045086678 -0.005415841 15132384
0.38899997 0.054765366 -1.7563923e-05 15329503
0.39338863 0.05502433 -0.0050483067 15461092
0.39375478 0.064951681 -0.0040921601 15592935
0.40008339 0.06514629 -0.0093060527 15658728
0.3952136 0.074799672 -0.0035315806 15658728
0.40084606 0.075563475 -0.0086452011 15724521
0.3968114 0.084138714 -0.0022655146 15461092
0.4019258 0.085772 -0.0070979921 15395557
0.39860004 0.091389492 -0.00039162379 14540249
0.40413699 0.095100373 -0.0048635136 15329764
0.40609524 0.10249289 -0.0021934761 13815499
0.38900003 -0.14041857 0.0096960999 15921130
0.39392403 -0.14474507 0.004809659 15328740
0.38879597 -0.13409808 0.0081732869 16381424
0.39146268 -0.13548994 0.0034251583 16447475
0.38870281 -0.12457485 0.0073588393 16315629
0.39082226 -0.12540133 0.0024809998 16447474
0.38818607 -0.1147702 0.0065935878 16184300
0.39044833 -0.11548518 0.0016837256 16513523
0.38716507 -0.10486902 0.0058355136 16250350
0.39000005 -0.10486832 0.00089538784 16514291
0.386812 -0.094777547 0.0056606191 16250349
0.39000002 -0.098477341 0.0008953879 16448498
0.38671079 -0.084851533 0.0054034251 16184556
0.38668913 -0.074933842 0.0054714759 15987433
0.38655365 -0.065031953 0.0054015387 15921640
0.38580152 -0.054968398 0.0053925184 15790054
0.38586774 -0.045040946 0.0053937938 15658725
0.38605782 -0.035121921 0.005396707 15263968
0.38561156 -0.025151758 0.0053892941 14935004
0.38552865 -0.015218638 0.0053893221 14671833
0.38515642 -0.0052630221 0.0054622376 14342868
0.38528106 0.004636927 0.0053856168 14079696
0.38570872 0.014826753 0.0054953885 14079697
0.38567474 0.025074262 0.0053681047 14408662
0.38628322 0.035107065 0.0054145972 14539989
0.38646725 0.045070812 0.0053861341 14737112
0.38651672 0.055033095 0.0054156608 15131868
0.3871803 0.064765476 0.0056804693 15395297
0.39014289 0.068104856 0.0011565723 15329763
0.38768563 0.074392132 0.0072768382 15460579
0.39117029 0.075862356 0.0026107533 15461349
0.38870588 0.08202339 0.0088138711 15263457
0.39258137 0.085313447 0.0046236692 15395299
0.39596334 0.094172463 0.0053993785 15263971
0.40045455 0.098309666 0.001771308 15658474
0.40599999 0.10434781 0.0040058782 14868186
0.41000003 0.10763236 0.0028609401 7892587
0.38835719 -0.14372964 0.015875973 15657960
0.39033338 -0.1446308 0.011251452 15065825
0.38619822 -0.13496825 0.015414732 16184303
0.386352 -0.12510009 0.015364898 16250094
0.38562807 -0.11511258 0.015419027 15986921
0.38401657 -0.10513584 0.015258711 15855591
0.38262045 -0.094954781 0.015208695 15855591
0.38218254 -0.084998012 0.015248493 15987177
0.38230008 -0.075017698 0.015227851 15658212
0.38224396 -0.065111302 0.015122293 15592419
0.38222128 -0.055147357 0.015164912 15395553
0.38200769 -0.044923086 0.015261767 15461346
0.3821902 -0.03477031 0.015185578 15132127
0.38213226 -0.024924038 0.015185385 14539990
0.37900001 -0.011855054 0.019502295 14474454
0.38190597 -0.015183406 0.01502105 14540247
0.37900007 -0.0053874981 0.019128716 14013903
0.38161761 -0.0052017435 0.014402269 14079953
0.37899998 0.0032281256 0.019502295 13816524
0.38153213 0.0051502786 0.014872767 13882319
0.38155395 0.015309124 0.01516311 13816524
0.38222316 0.025180299 0.01518875 14079696
0.38313189 0.03510626 0.015223661 14145231
0.38373524 0.045040693 0.015247332 14408402
0.38314858 0.054836866 0.015225576 14868953
0.38363081 0.064831786 0.015279558 15000282
0.38439152 0.074853584 0.015238255 15132126
0.38649029 0.084527835 0.015583436 14934748
0.39040005 0.088412806 0.010949107 15263457
0.38870588 0.091016084 0.017699137 14277333
0.39232576 0.095372193 0.014303552 15132129
0.39683333 0.10226911 0.017014941 13487822
0.40100005 0.10526969 0.013856105 8946822
0.3855733 -0.14394954 0.025005847 15394787
0.3830258 -0.13482764 0.025081316 16183788
0.38281596 -0.12492894 0.025053602 16052457
0.38267818 -0.11512507 0.02513046 15789541
0.37875003 -0.10210957 0.027778979 15592676
0.38109291 -0.1057402 0.024279572 15658212
0.37783197 -0.094504029 0.026163572 15526883
0.38032147 -0.096416369 0.021414097 15724006
0.37755623 -0.085196905 0.02604707 15592677
0.38034788 -0.083881997 0.021003846 15987177
0.37796479 -0.075398795 0.027127571 15658212
0.3805488 -0.07448256 0.02209612 15724261
0.37834534 -0.064650908 0.026752321 15329247
0.38052174 -0.065428622 0.021961316 15593188
0.37777263 -0.054814618 0.026570717 15198174
0.38030308 -0.055075541 0.021349229 15461603
0.37792644 -0.045165073 0.026520779 15329760
0.38021624 -0.044764653 0.021416813 15330018
0.37835833 -0.035333171 0.026989961 15001053
0.38064983 -0.034629386 0.022407776 14935004
0.37822235 -0.024309624 0.026903894 14474453
0.38056234 -0.025490932 0.022087248 14540247
0.37760606 -0.014774594 0.025355453 14408917
0.38000003 -0.018380318 0.020621255 14342868
0.37719673 -0.0051768352 0.025142062 14013902
0.37722877 0.0049802754 0.025141938 13750731
0.37762159 0.014888789 0.025970932 13750988
0.38014293 0.016651055 0.021086445 13948109
0.37824604 0.024017481 0.02745977 14014160
0.38061538 0.025717126 0.0228054 14079696
0.37899998 0.032285422 0.028818378 14079696
0.38103673 0.035182819 0.024513574 14079696
0.3813009 0.044842072 0.025037356 14342867
0.37899998 0.055132005 0.029262003 14540501
0.38107583 0.054952901 0.02462035 14737624
0.38129282 0.065197997 0.024907416 14803160
0.38192436 0.075154349 0.025081597 14737367
0.38420713 0.085003011 0.025129551 14671831
0.38822421 0.092892215 0.025677728 14408662
0.39131436 0.097050503 0.023275865 14605783
0.3980436 0.10553044 0.024189832 5658710
0.40000004 0.10667189 0.029114608 3156775
0.38229996 -0.14327738 0.034713209 15131359
0.37862787 -0.13363801 0.038013455 16183788
0.38086742 -0.13555452 0.03346445 16117995
0.37861818 -0.12557711 0.038191561 16184043
0.38063872 -0.12468078 0.03314428 16052457
0.37844652 -0.11445097 0.037919231 15723492
0.38067564 -0.11553664 0.032966204 15789285
0.37723067 -0.10485791 0.035067368 15460833
0.38016668 -0.10875098 0.030835113 15723492
0.37488982 -0.094969504 0.035068929 15263711
0.37403309 -0.084901348 0.035015251 15330017
0.37417433 -0.075079843 0.03505848 15461346
0.3751969 -0.065082572 0.034921091 15395297
0.37458691 -0.055126101 0.035054285 15001052
0.37434345 -0.044941828 0.034949213 15198431
0.37563637 -0.035051752 0.034707423 14869210
0.37564018 -0.025054093 0.034883253 14408917
0.37425643 -0.014775909 0.035022985 14211282
0.37280309 -0.0051170215 0.035318021 13948110
0.37306336 0.0048710159 0.035276022 13685195
0.37402508 0.015008344 0.035001691 13619402
0.37532064 0.024987532 0.034971789 13882318
0.37722775 0.035014112 0.034877483 14013904
0.38000003 0.03926491 0.030228795 14540247
0.37791356 0.045255668 0.035136022 14277073
0.38000005 0.043268055 0.030228795 14079695
0.37786007 0.054911796 0.034936871 14737367
0.37841755 0.064121529 0.036409233 14803416
0.38031706 0.066616677 0.031946979 14869209
0.37896296 0.072771475 0.038754914 14737367
0.38064101 0.075390786 0.034101125 14803416
0.38237268 0.084722854 0.034890816 14539989
0.3867428 0.093098924 0.035290811 14146003
0.39111117 0.097691998 0.034469698 13948370
0.39852068 0.105796 0.035458814 3749169
0.37860721 -0.14213292 0.047399901 15262688
0.38092154 -0.14411382 0.04304776 14802650
0.37736511 -0.13489047 0.04510982 15723494
0.38000003 -0.13954206 0.040014252 15394273
0.37688166 -0.12499338 0.044903267 16117995
0.37685698 -0.11514168 0.045059826 15789286
0.37414077 -0.10498723 0.045084383 15526370
0.36859998 -0.091520935 0.049167909 15329247
0.37228483 -0.09523946 0.044563495 15526369
0.36846671 -0.084917039 0.048143007 15328989
0.37096488 -0.085090064 0.042941812 15395040
0.36855561 -0.075231224 0.048442315 15395294
0.37078792 -0.074739724 0.043214556 15263454
0.36885715 -0.068960287 0.049079176 15789540
0.37151149 -0.064873777 0.044535961 15263454
0.36882353 -0.05300704 0.048994765 14935003
0.37147972 -0.055233028 0.044291593 15066588
0.36868587 -0.046363696 0.048858657 14869466
0.37086093 -0.044809125 0.043774743 15197917
0.36900002 -0.039616913 0.04922197 15132636
0.37173229 -0.035059366 0.044768296 14868696
0.372015 -0.025097296 0.044788945 14277073
0.36899999 -0.012046158 0.048718065 13816524
0.37115264 -0.015322153 0.044369768 14013903
0.36850643 -0.0046767406 0.047361776 13553352
0.37041828 -0.0056202332 0.042567417 13685193
0.36844605 0.0040878397 0.047939129 13290181
0.37069163 0.0056171021 0.043242458 13553352
0.36890909 0.012995946 0.049131095 13224387
0.37102461 0.015014856 0.04433234 13553609
0.37199295 0.024943314 0.044823244 13948367
0.37352282 0.035100978 0.045005109 14079952
0.37486354 0.044879034 0.045169037 14343122
0.37535238 0.054868475 0.045296058 14606295
0.37700835 0.064953513 0.044974659 14671831
0.3781082 0.075032949 0.045041446 14737111
0.38000003 0.078851521 0.040014252 14343122
0.37875003 0.081790939 0.046563141 14539733
0.38148138 0.085862383 0.044435915 14276817
0.38665476 0.093968958 0.04539207 13356746
0.39066669 0.098746218 0.044030961 11909305
0.38899997 0.10421399 0.047700819 2630681
0.39326531 0.10329773 0.043608684 2959907
0.37789413 -0.14280482 0.054951776 14802394
0.38040006 -0.14734806 0.057778347 14407893
0.37485123 -0.13479199 0.054897953 15723238
0.37340024 -0.1249776 0.055037174 16052202
0.37296489 -0.11502746 0.054965615 15920873
0.36820421 -0.10354779 0.057434857 15262942
0.37126327 -0.1057674 0.05346521 15394785
0.36731836 -0.094640613 0.055563927 15263454
0.37041664 -0.098374642 0.051072482 15526627
0.36658534 -0.084955953 0.055415232 15263710
0.3664003 -0.075069889 0.055201739 15066588
0.36696157 -0.064973317 0.054986186 15197661
0.36681968 -0.055055525 0.055147469 14934746
0.36669645 -0.044855684 0.055192471 14869466
0.36740154 -0.035099421 0.055385113 14737367
0.36999995 -0.032856729 0.050592761 14868696
0.36789349 -0.024968222 0.055450898 14276816
0.36999995 -0.026027858 0.050546363 14408145
0.36786115 -0.014952072 0.05466288 13750217
0.36707714 -0.0049806442 0.055332649 13289923
0.36668774 0.0048432769 0.055344738 13355716
0.36777571 0.015149215 0.054833833 13421766
0.36816317 0.02463091 0.0559141 13816781
0.37026468 0.026660616 0.051531754 13948367
0.36872235 0.03335318 0.058223724 13882574
0.37068009 0.035507947 0.053981811 14014159
0.37150383 0.045016587 0.055174731 14277072
0.37307113 0.055016562 0.055020608 14474451
0.37490156 0.065071858 0.054833472 14605525
0.37696943 0.075137496 0.055134278 14539989
0.37817252 0.082472734 0.055236232 14473684
0.38148934 0.087609909 0.054745216 14079183
0.38560006 0.093301475 0.054766729 14079954
0.39050001 0.099770755 0.056204259 2170915
0.39064291 0.10222236 0.05185147 2564890
0.37575588 -0.14374448 0.065084964 14999772
0.38000003 -0.14799312 0.060474746 14737885
0.36900002 -0.13031965 0.069522105 15657444
0.37195733 -0.13502473 0.064890012 15525858
0.36826578 -0.12452596 0.067657575 15854822
0.37052193 -0.12536205 0.063037552 15657699
0.36760426 -0.11449011 0.066241302 15723237
0.37056756 -0.11654894 0.062091243 15657444
0.36564088 -0.10488002 0.065080002 15394528
0.36385176 -0.094962128 0.065109149 15197405
0.3633523 -0.085126899 0.065124698 15131611
0.36334935 -0.075128384 0.065081358 14934489
0.36333096 -0.064985789 0.065074332 15000283
0.36405021 -0.054854456 0.065227121 14868696
0.36396208 -0.045001414 0.065128252 14342609
0.36427245 -0.03523786 0.06525027 14276817
0.36532471 -0.025037196 0.064985059 13947851
0.36594626 -0.014783639 0.064806923 13618631
0.36448467 -0.0050605829 0.065170906 13092544
0.3643195 0.0048096059 0.065225527 13026751
0.36494753 0.015138386 0.065041989 13355973
0.36568058 0.024981935 0.065070063 13750987
0.36723304 0.034893472 0.064959668 13882572
0.36830935 0.044449285 0.066309243 14079694
0.37017137 0.046594322 0.061980404 14277072
0.36889473 0.051389758 0.06838838 14408145
0.37118247 0.05536532 0.064409241 14408145
0.37344211 0.064737685 0.064997144 14605524
0.37485963 0.074715577 0.06491936 14473682
0.37704769 0.083424948 0.065582223 14407890
0.38082761 0.088446423 0.063985355 14276560
0.38371706 0.092687778 0.064326927 14473938
0.39100003 0.098983169 0.063140668 11579565
0.39233336 0.10064778 0.063661873 3091238
0.36872739 -0.14298883 0.077748634 15065823
0.37173775 -0.14414339 0.072920628 15197153
0.36731243 -0.13452686 0.076273516 15789287
0.37051281 -0.13672662 0.071841307 15789286
0.36554375 -0.12485927 0.075030781 15526370
0.36382979 -0.11493631 0.074933805 15394528
0.36185914 -0.1049655 0.074975401 15197149
0.36125174 -0.094992861 0.074857295 15000026
0.36074117 -0.084807113 0.07460092 14737110
0.36076039 -0.074769415 0.074769892 14671318
0.36100817 -0.064703099 0.074670374 14605268
0.36173964 -0.055203032 0.074878894 14473683
0.3626948 -0.045206197 0.075206354 14144973
0.36399966 -0.035244126 0.074971877 13487043
0.3644588 -0.025015347 0.075030409 12763576
0.36459312 -0.014917706 0.074802369 12500406
0.36357009 -0.004991787 0.074883923 11908269
0.36275676 0.0047859005 0.075138554 12105903
0.36281216 0.014984071 0.075148776 12698040
0.3633678 0.025212578 0.075263426 13224128
0.36424232 0.035081681 0.074745953 13487300
0.36645478 0.044734374 0.075043187 13882058
0.36845204 0.0526658 0.075473443 14276814
0.37035194 0.05742342 0.074223705 14408144
0.37182599 0.064792171 0.075078771 14473936
0.37392998 0.074892186 0.074798033 14473936
0.37694246 0.08496049 0.074923404 14342352
0.37866673 0.09093608 0.076315187 14408146
0.38209093 0.094001494 0.07356938 12762807
0.39000002 0.099642999 0.075304642 4012084
0.39200002 0.10015399 0.070643589 3222822
0.36516982 -0.14185415 0.084340632 14868188
0.35877779 -0.13174915 0.089386754 16052716
0.36282957 -0.13495012 0.084752671 16052716
0.35832605 -0.1247447 0.088408202 16052460
0.36203074 -0.12553947 0.083197504 16118509
0.35825697 -0.11480761 0.087637044 15921130
0.36081016 -0.11535688 0.082800992 15986922
0.35826248 -0.10488676 0.085838303 15592165
0.36022583 -0.10562323 0.080858126 15723751
0.35830501 -0.095211282 0.085663207 15262944
0.35999998 -0.093964212 0.080776967 15394530
0.35847029 -0.084835321 0.08607281 14934236
0.35999992 -0.085652933 0.081057861 15065821
0.35841042 -0.075554878 0.085649587 14671320
0.35999995 -0.074128397 0.080916516 14802906
0.35889989 -0.066958405 0.087167054 14605783
0.36024749 -0.064094976 0.083491221 14605783
0.36080566 -0.055205986 0.084870189 14474196
0.36191368 -0.045250073 0.085060082 14210767
0.36533102 -0.035350326 0.08497069 12434615
0.36658159 -0.025087144 0.084866904 8487549
0.36663666 -0.014902454 0.084958605 8355964
0.36474422 -0.0049305931 0.084837444 11382183
0.36334828 0.0047925138 0.085045002 12105906
0.36225682 0.015055192 0.085077062 12698299
0.3625415 0.025155703 0.085276812 13487557
0.36352253 0.035012528 0.084812254 13685192
0.36545157 0.045041464 0.085105017 14145228
0.36802548 0.054641407 0.085296929 14473679
0.36999995 0.05895799 0.082765035 14276042
0.36899999 0.061259892 0.088862419 14671316
0.37095091 0.065414704 0.084604219 14473678
0.37174973 0.074966781 0.084829144 14473679
0.37557021 0.084913969 0.085046098 14276559
0.37834123 0.093634233 0.085333042 9144193
0.38212502 0.095849179 0.080709822 7169636
0.35845 -0.14178267 0.097868681 14605272
0.3612667 -0.1420508 0.092671484 14539223
0.35706782 -0.13467422 0.095109053 15657958
0.36050007 -0.13821906 0.091268986 15394787
0.35586905 -0.12493392 0.094352223 15724264
0.35491651 -0.11477616 0.095012031 15395298
0.35610321 -0.10501268 0.094614327 15329250
0.35631871 -0.095041774 0.094408467 15131614
0.3573167 -0.084873527 0.094678141 14737369
0.35765505 -0.074794978 0.09493082 14408660
0.35830393 -0.066163287 0.094734408 14277075
0.36013645 -0.061083302 0.093529969 14277075
0.36099216 -0.055251401 0.094495147 14277075
0.36262488 -0.045134753 0.095071703 14013903
0.36672354 -0.035051495 0.094858862 11447461
0.36637017 -0.02489884 0.09516304 2239011
0.36619368 -0.014982147 0.094930656 2830379
0.36615479 -0.0051489347 0.095013276 11185061
0.36366874 0.0048624505 0.09488716 11974576
0.36264697 0.014871841 0.094918646 12500921
0.36216655 0.025128236 0.094943382 13224643
0.36240268 0.035013177 0.095000282 13619145
0.36400667 0.044859298 0.094995968 14079695
0.36653703 0.055003397 0.095110692 14605780
0.36835453 0.064277738 0.096020631 14803416
0.37009367 0.067536741 0.091983348 14737110
0.36891308 0.072439544 0.098512091 14935259
0.37047264 0.075101472 0.094175585 14671317
0.37325639 0.084421396 0.094925165 14013385
0.37824649 0.092908196 0.094049186 11776170
0.38033339 0.096283726 0.097590022 8880510
0.35878572 -0.14183055 0.10161491 14473686
0.36163637 -0.14064465 0.10465676 12170928
0.35900003 -0.13855392 0.10083485 15000030
0.36757973 -0.13581738 0.10728879 12960184
0.354 -0.12212158 0.10025918 11908527
0.36873084 -0.12849718 0.10745266 12960183
0.37024495 -0.12361223 0.1079724 12763319
0.35499999 -0.11188556 0.10072526 10987166
0.36665958 -0.11412343 0.10757433 13158589
0.37 -0.11919598 0.10717265 13026490
0.35826668 -0.10623063 0.10085283 11710892
0.36439997 -0.10482221 0.10618242 12566453
0.35900003 -0.099894352 0.10083485 11053220
0.36558598 -0.094954662 0.10636809 12500662
0.35828573 -0.082922198 0.10063422 11117728
0.36478746 -0.085100099 0.10651477 12763834
0.35844448 -0.074003905 0.10067881 11381411
0.36358434 -0.074937277 0.1060538 12763833
0.35900006 -0.068798602 0.10083485 11315873
0.36391237 -0.064754434 0.10556495 12698040
0.3659637 -0.054907091 0.10537767 12632247
0.36677697 -0.0449154 0.10513619 12631991
0.36809617 -0.035038523 0.10460147 9539208
0.36999995 -0.03616333 0.10892907 10526358
0.36469886 -0.025109109 0.10520107 2172963
0.36508927 -0.014819096 0.10517431 2830121
0.36765304 -0.0051174778 0.10506702 9408649
0.36606622 0.0048671677 0.10500914 10395800
0.36539218 0.015021564 0.10513971 11053472
0.36519197 0.025265565 0.10479204 11711145
0.36448202 0.034688205 0.10521122 11974318
0.36525434 0.044932608 0.10468049 12698297
0.36692113 0.055117551 0.10496597 13289921
0.37 0.055555154 0.10998773 12961467
0.36778468 0.064709924 0.10455189 13750216
0.37 0.067465082 0.1093381 13158847
0.36870378 0.073695622 0.10279354 14474196
0.37054852 0.076218389 0.10662738 13224386
0.37363958 0.084947817 0.10518013 14079951
0.37804639 0.094534598 0.10537807 11645353
0.38000008 0.097361773 0.10132731 6906718
0.37840003 0.10022262 0.10681339 2631709
0.36888003 -0.13383393 0.1111749 13355198
0.36899999 -0.12717281 0.11197347 12960698
0.36999992 -0.12457749 0.11194464 12895163
0.36812201 -0.11550947 0.11167837 13158591
0.36704552 -0.1045942 0.11137479 13158848
0.3664594 -0.094413951 0.11167073 13290179
0.36599979 -0.085401036 0.11273488 12895677
0.36618033 -0.07411094 0.11249147 13356229
0.36648422 -0.065243289 0.11277687 13487815
0.36790746 -0.054251965 0.11233244 13685193
0.36852008 -0.045912117 0.11201522 13619400
0.37148571 -0.043213785 0.11577828 12698557
0.3675577 -0.032399926 0.11451915 6908774
0.37043113 -0.037288986 0.11475404 10921375
0.362032 -0.024892574 0.11510006 1909790
0.36272365 -0.014842294 0.1150677 3093550
0.36844432 -0.0053245169 0.11434072 10395545
0.3703571 -0.0032235098 0.11913608 10132378
0.36790773 0.0050665555 0.11456584 11974575
0.37040001 0.0011598598 0.11947165 11645359
0.36729133 0.015230782 0.11512221 12764091
0.36767444 0.024967605 0.11507867 13224641
0.36820611 0.034949291 0.11536919 13224641
0.37 0.039530888 0.11431861 13158847
0.36871442 0.042858738 0.11382321 12632247
0.37044343 0.045985959 0.11582571 13685191
0.37103337 0.054799084 0.11536247 13487812
0.37267837 0.06497287 0.11541899 13553091
0.37370843 0.074813075 0.11535275 13487558
0.37420371 0.084107116 0.11305653 13553610
0.3767429 0.094142877 0.11158828 11710891
0.39900002 -0.14091474 0.12654795 11316391
0.39835832 -0.1351227 0.12665987 11053219
0.39632398 -0.12512852 0.12616828 10658718
0.39368823 -0.11485276 0.1256641 9671822
0.39268246 -0.10542718 0.12462553 9606287
0.38569999 -0.070755467 0.12458631 9737361
0.38447165 -0.065133408 0.12509035 9671310
0.38219297 -0.056088276 0.12394065 9539980
0.37800002 -0.044012863 0.12210076 9013893
0.38084 -0.044884209 0.1249072 8882306
0.36377776 -0.031396952 0.12242103 3159599
0.37599999 -0.037398823 0.12309258 8750718
0.38033333 -0.039349489 0.12656441 9145478
0.36111295 -0.024959223 0.12248041 1646615
0.36105886 -0.015461513 0.12241128 1909529
0.36825001 -0.0080695981 0.12067339 6579557
0.37387499 -0.003130978 0.12384131 7303277
0.36777776 0.0078650378 0.12061449 10460569
0.37534705 0.0027368816 0.12516475 8289912
0.38000003 0.0045710234 0.12986253 9343109
0.36680949 0.015739037 0.12136757 10263702
0.36656666 0.025164705 0.12215336 10527130
0.36773443 0.035215918 0.12242924 11645355
0.36867693 0.044470876 0.12337705 11776943
0.36999995 0.048014332 0.12150278 13948109
0.36900005 0.050509941 0.12495156 12040114
0.37074381 0.055036042 0.12304853 13553608
0.37220207 0.064936742 0.12332918 13882572
0.37391028 0.074695021 0.12338054 13685195
0.37500003 0.080593973 0.1226524 14013646
0.40000007 -0.13555093 0.13112822 10329240
0.39875001 -0.1244923 0.13066933 10461338
0.40000001 -0.12909463 0.13107894 9869201
0.39699998 -0.11883257 0.13009585 9737615
0.35700005 -0.031178309 0.13806728 1843226
0.35625362 -0.02525883 0.13797845 1843738
0.35706908 -0.016123293 0.13807932 2566691
0.35789472 -0.031237075 0.1434329 1513490
0.3608889 -0.030954394 0.1483967 1119247
0.35677782 -0.024982192 0.14292948 1449495
0.36110011 -0.025440862 0.14811705 726029
0.35706347 -0.015944915 0.14374943 1645590
0.36033335 -0.018442092 0.14844798 528137
0.35826823 -0.03244951 0.15725189 1779232
0.36100006 -0.031651806 0.1530084 1514777
0.35900006 -0.028353127 0.15798378 397063
0.36279705 -0.024715265 0.15508591 462601
0.359 -0.013750733 0.15602279 922638
0.36106563 -0.016640743 0.15676211 659722
0.35886881 -0.032511104 0.16511422 1449750
0.36000007 -0.032563999 0.16441686 857357
0.35844988 -0.025086051 0.167558 923150
0.36040017 -0.024498176 0.16329548 923405
0.35841176 -0.017034203 0.16796517 857357
0.36082289 -0.015707426 0.16343561 659979
0.34740007 -0.033636291 0.1797141 1317909
0.35617489 -0.032253854 0.17709173 857357
0.361 -0.034658834 0.17516913 1120528
0.34900001 -0.025214426 0.17972757 462856
0.3552855 -0.025064444 0.1756091 989201
0.35735279 -0.017971424 0.17540531 989201
0.36040008 -0.014731401 0.17620572 987917
0.33900005 -0.032611139 0.18929002 1383702
0.34277269 -0.033249807 0.18443769 1515030
0.34312648 -0.025029669 0.18420485 1383701
0.35000002 -0.020370537 0.18024258 397062
0.33900002 -0.017525859 0.18947996 1252116
0.3423571 -0.017006518 0.18468255 1252117
0.35632688 -0.014481909 0.18315186 1054224
0.36000001 -0.010839353 0.18539238 723981
0.36006898 -0.0088065192 0.18670648 6448994
0.33861908 -0.032429576 0.19095248 1383445
0.34 -0.036105417 0.19021577 2107169
0.33900011 -0.02492482 0.19145991 1317909
0.34000003 -0.024931559 0.19088922 1317909
0.33900011 -0.017702218 0.19115534 1317908
0.34 -0.015012844 0.19021577 1449239
0.79440004 0.096311033 0.3055115 9540490
0.79459268 0.10483871 0.30482408 9606283
0.78815001 0.094448373 0.31639364 9474697
0.79175001 0.097102918 0.31227684 9540489
0.79309678 0.10417295 0.31493104 9606282
0.78600001 0.088576525 0.32105151 9540233
0.78788 0.094766594 0.32414466 9606026
0.79000002 0.09827432 0.32915828 9606026
0.79217398 0.10443556 0.32538724 9671819
0.78900003 0.092608728 0.3305887 9606026
0.79119056 0.095160373 0.33556601 9671818
0.79473919 0.10469268 0.33517861 9671819
0.79475015 0.095959716 0.3448616 9606283
