# .PCD v0.7 - Point Cloud Data file format
VERSION 0.7
FIELDS x y z rgb
SIZE 4 4 4 4
TYPE F F F U
COUNT 1 1 1 1
WIDTH 767
HEIGHT 1
VIEWPOINT 0 0 0 1 0 0 0
POINTS 767
DATA ascii
0.51587504 -0.10469949 -0.042696837 14275793
0.51250011 -0.095219858 -0.042016223 16381682
0.51148003 -0.085375592 -0.042028174 16053230
0.509 -0.073117182 -0.041132428 14539219
0.51066679 -0.077342577 -0.041466683 15065821
0.50400001 -0.11147931 -0.032329097 15986669
0.51157147 -0.11103866 -0.037836224 15197154
0.49899998 -0.10146898 -0.030394899 16513267
0.50474304 -0.1049967 -0.03311469 16315889
0.51162976 -0.10545694 -0.038086925 16250097
0.49731255 -0.093852453 -0.031021481 16447474
0.50463629 -0.095094755 -0.035149474 16513267
0.51076931 -0.095585428 -0.039022263 16447474
0.4958801 -0.084953271 -0.031416286 16118767
0.50424248 -0.084967844 -0.036051031 16381938
0.51000005 -0.085200019 -0.039422363 16316401
0.49731579 -0.07630457 -0.031090593 15921388
0.50462496 -0.074311629 -0.035670683 15987436
0.51000005 -0.079230428 -0.039422363 15658982
0.50495344 -0.065780632 -0.03331795 15592677
0.51060009 -0.061752658 -0.034927163 14145743
0.50800008 -0.057312902 -0.031141698 15329245
0.51060009 -0.057927437 -0.032775301 14275530
0.49729997 -0.11364071 -0.024476146 15723239
0.5 -0.11454792 -0.02889513 15723240
0.48723078 -0.1026739 -0.021695323 16250095
0.49418756 -0.1056242 -0.025821848 16184046
0.48489755 -0.094643287 -0.02258691 16316144
0.49222222 -0.09535592 -0.02742479 16250095
0.48417076 -0.085317716 -0.022645395 16250863
0.49114814 -0.084923916 -0.027618442 16119022
0.48554555 -0.075649202 -0.022002598 15987691
0.492881 -0.074477114 -0.026702886 15921899
0.48825005 -0.068706989 -0.020882271 15658728
0.49510711 -0.065237924 -0.024205657 15527141
0.50235301 -0.06319844 -0.028594121 15658727
0.49839997 -0.056949563 -0.022599984 15132638
0.50214708 -0.054746956 -0.025304222 15197918
0.50200003 -0.048725344 -0.021646183 14540244
0.47766671 -0.11353473 -0.010458606 15986923
0.48381251 -0.11437254 -0.01394176 15855338
0.49192858 -0.11426409 -0.018614409 15855082
0.47540003 -0.10429416 -0.012491952 16184302
0.48400006 -0.10547004 -0.017200245 16184046
0.46743754 -0.093685366 -0.011649379 16250093
0.47422734 -0.09491431 -0.015599293 16250093
0.48066673 -0.09755411 -0.01877638 16184302
0.46661535 -0.08522325 -0.011998346 16316142
0.47393334 -0.084829919 -0.016673014 16053227
0.46752384 -0.075989395 -0.011749272 15987691
0.47397879 -0.074848197 -0.015541305 15921642
0.4818182 -0.07264214 -0.018684987 15790314
0.47540003 -0.066891715 -0.011987112 15592679
0.48463467 -0.064855918 -0.015149311 15395299
0.49135718 -0.062446684 -0.018263398 15329762
0.48692307 -0.057710435 -0.011247886 15000797
0.49460292 -0.054916471 -0.015613133 15000798
0.50024998 -0.051072896 -0.019638563 15001052
0.49768424 -0.048709385 -0.013332021 14737624
0.50385183 -0.044950373 -0.014390009 14540501
0.51100004 -0.041554052 -0.015128199 14605525
0.51233339 -0.036811206 -0.012117417 12632247
0.46370268 -0.11417739 -0.0020232031 15986667
0.47319055 -0.11394527 -0.0073060556 15855337
0.45780951 -0.10376269 -0.0011450283 16118508
0.46443474 -0.10485988 -0.005610608 16184301
0.47088888 -0.1070224 -0.0089634294 16184302
0.45606667 -0.094636641 -0.0023530782 16053227
0.46297553 -0.095518537 -0.0075877011 16184557
0.44900003 -0.082367256 -2.027301e-05 16053740
0.45470318 -0.085006654 -0.0037597953 16053740
0.46213636 -0.085366406 -0.0089239711 16119277
0.44900003 -0.079213902 -2.027301e-05 15922154
0.45491931 -0.075391375 -0.0030718311 15922154
0.46291173 -0.074363708 -0.0082793906 15922154
0.45711544 -0.066934422 -0.0012992854 15527396
0.464614 -0.065124109 -0.0050475951 15395810
0.47177786 -0.063042566 -0.0078774979 15592676
0.46599999 -0.059118945 -0.00038467871 15395810
0.47491673 -0.056601875 -0.0027748705 14869466
0.48395243 -0.053866301 -0.0063669016 14935259
0.49000001 -0.051460724 -0.0091989143 15066845
0.48566666 -0.048576593 -0.0018438649 14606294
0.49517855 -0.045827985 -0.003960452 14606294
0.50340533 -0.042416308 -0.0060791955 14474708
0.5067727 -0.038280681 -0.003911525 14343122
0.51362073 -0.033943467 -0.0041179541 14211279
0.51850003 -0.028963678 -0.0018453083 13553090
0.52233338 -0.025774488 -0.0011087761 12434354
0.52400005 0.058642123 -0.00084145501 13618373
0.52529413 0.065710813 -0.00089333701 15000028
0.52468759 0.073020972 -0.0010228662 14999515
0.45187503 -0.1211087 0.0083083538 15657703
0.45473069 -0.11513186 0.0055471584 16052459
0.46000001 -0.11453746 0.0010560985 16249582
0.44800007 -0.10396905 0.0080051413 15986921
0.45329168 -0.10557362 0.0037529618 16052715
0.43900001 -0.090296008 0.0092295399 16118763
0.44528335 -0.094768971 0.0061359135 15921641
0.45153335 -0.097033143 0.0018806754 16052970
0.43827784 -0.083822556 0.0085294787 16053483
0.44445315 -0.085171945 0.0042422665 16053483
0.43787491 -0.075540148 0.0084355958 15789798
0.44487104 -0.074919656 0.0041338615 15856104
0.45050001 -0.072094962 0.0010342879 15658982
0.43883333 -0.068002552 0.0090547521 15658982
0.44509619 -0.065255448 0.0066636004 15330018
0.45329738 -0.06408976 0.0027001121 15395810
0.46000001 -0.060155619 0.0010560985 15066845
0.44783339 -0.058562595 0.008890084 15263970
0.45533335 -0.057055205 0.006762323 14869211
0.46538714 -0.054702405 0.0048620487 14803673
0.47259092 -0.052241143 0.0028906753 14672087
0.46666667 -0.048640329 0.0098112049 15066591
0.47538719 -0.047587901 0.0066496055 14606295
0.48359376 -0.044730183 0.0043998351 14606294
0.49266669 -0.041741516 0.0026658685 14606294
0.48800004 -0.039826516 0.0079748835 14672087
0.49544445 -0.038044281 0.0069974312 14343123
0.50423074 -0.03474395 0.0057406393 14408916
0.51340908 -0.032552406 0.0029783233 14211278
0.50660002 -0.028535377 0.0089891087 14540244
0.51530772 -0.025719276 0.0065271417 14342864
0.52219051 -0.023113729 0.0032916381 14145742
0.51706892 -0.014649139 0.0078621693 14540245
0.5223 -0.01817129 0.0043751905 13882571
0.51803571 -0.0057636686 0.0080747781 14013901
0.52000004 -0.0019618885 0.0063675009 11119522
0.51852375 0.0053125145 0.0088198408 14276561
0.52012503 0.0043530487 0.0064448956 11645099
0.51837504 0.017155215 0.0092294682 13947597
0.52186668 0.013692012 0.0078740958 13092802
0.509 0.028762748 0.0095096426 14342098
0.51250011 0.024151744 0.0089740604 14144975
0.51080006 0.03125605 0.0090643009 14342098
0.52724999 0.048924822 0.005530844 14539220
0.52347177 0.05526039 0.0050376453 14407890
0.505 0.066958673 0.0094349105 14144720
0.51700002 0.065357283 0.0076052188 14144720
0.52263153 0.064403012 0.0035137408 14736856
0.50518185 0.075312868 0.0088994484 14342354
0.51490325 0.074856743 0.005763446 14342870
0.52255553 0.073428303 0.0022176704 14802393
0.44488576 -0.12253674 0.016511515 15525860
0.45033336 -0.12161789 0.010873203 15525859
0.43822229 -0.11270812 0.01912974 16184557
0.44507146 -0.11511632 0.015086959 16118509
0.45039997 -0.11720841 0.010944991 16315374
0.43604651 -0.10424247 0.017018186 15855337
0.44375676 -0.10582151 0.012439494 15921129
0.42760006 -0.091855541 0.018998185 15921384
0.43428943 -0.095008381 0.014811846 15921128
0.44075 -0.097621948 0.010684698 15920871
0.42635903 -0.08483047 0.018455042 15856105
0.43286574 -0.084845565 0.013173943 15987179
0.42645007 -0.074983433 0.018446343 15855593
0.43253624 -0.074933939 0.013149204 15921129
0.4269655 -0.065724708 0.01890051 15395299
0.43409881 -0.064930484 0.013930179 15592678
0.44033337 -0.061706286 0.010288402 15395556
0.42700002 -0.059838567 0.019973014 15263970
0.43553323 -0.056514781 0.017149203 15066591
0.44372001 -0.054739702 0.013517792 14803676
0.45100003 -0.052379921 0.011328892 14671833
0.44549996 -0.04630968 0.01759821 14671834
0.45295659 -0.044207629 0.014452741 14671833
0.46433333 -0.047304373 0.011208898 14408661
0.47650003 -0.043907121 0.010017941 14474454
0.45600003 -0.03711215 0.017543431 14540505
0.46466669 -0.033920661 0.018115664 14671834
0.47275004 -0.030830242 0.018788148 14474456
0.48650002 -0.031161722 0.015922707 14474454
0.49625 -0.033235047 0.011593578 14474454
0.50100005 -0.030917071 0.010533029 14540247
0.47609091 -0.026990313 0.019227205 14342870
0.48436373 -0.024121059 0.01698073 14277075
0.49490908 -0.026482601 0.013717089 14408661
0.50392306 -0.024515422 0.011591578 14474454
0.51100004 -0.021605477 0.010982053 14342868
0.47624999 -0.015738027 0.019626953 14145491
0.48490006 -0.016413124 0.017798405 14342868
0.49420005 -0.013024533 0.017098019 14342868
0.5055334 -0.014825317 0.014019068 14342868
0.51225007 -0.014343819 0.011727024 14408661
0.48649997 -0.0045553846 0.01876788 14145490
0.49550003 -0.0039013983 0.016910914 14145489
0.50559998 -0.0062321215 0.014888519 14211282
0.51360005 -0.005479937 0.011995831 14276818
0.48243478 0.0046212017 0.01819266 13750732
0.49000001 0.0047471155 0.016610809 13816525
0.505 0.00075351557 0.015935918 14145489
0.51574284 0.0050019296 0.012700278 14078926
0.47475004 0.016112208 0.019424817 13750733
0.48372221 0.013871411 0.017525779 13553354
0.49183336 0.015700942 0.016288055 13750733
0.50533336 0.018695965 0.01436391 13881805
0.5158 0.014890581 0.012241305 14013134
0.46900004 0.025404479 0.019741697 13948112
0.47155005 0.025379201 0.018134592 13882062
0.49100003 0.02199918 0.017219428 13619147
0.5052188 0.025186568 0.013647927 13815756
0.51054549 0.023415089 0.011168293 14013133
0.47409099 0.034760773 0.018368144 14013392
0.48484999 0.037044827 0.014386606 13815754
0.49490911 0.034592856 0.012091146 13947341
0.504125 0.031731922 0.011920527 13947340
0.46837503 0.045652036 0.019715389 14078926
0.47433335 0.044832084 0.018323356 14013135
0.4843148 0.045062032 0.013509822 13815754
0.46675003 0.054786164 0.019646985 14078927
0.47440013 0.055103909 0.017830526 14013133
0.48370743 0.05484445 0.013311741 13815754
0.51900005 0.059702545 0.010911462 13947340
0.46819997 0.065257952 0.019598227 13947342
0.47359094 0.065615937 0.017864421 14013133
0.48550004 0.064110622 0.014571536 13881547
0.49316671 0.06578023 0.012003347 14013133
0.50160003 0.06639082 0.010545643 14078927
0.51800001 0.061406478 0.010890437 13947340
0.46733332 0.07448142 0.019062098 14276305
0.47295463 0.074585229 0.016532194 14078926
0.48354542 0.076096267 0.013660992 14539221
0.4950625 0.073825173 0.012069591 14407635
0.50150007 0.074315362 0.01054354 14407891
0.43626416 -0.12383873 0.026350895 15460323
0.44053334 -0.12361366 0.021430237 15394276
0.42844445 -0.11197439 0.028954916 16184043
0.43382892 -0.11517175 0.024647471 16118252
0.44000003 -0.11934303 0.020581093 15789031
0.42623219 -0.10418928 0.027039954 15855336
0.43119055 -0.10614091 0.022400741 15921130
0.41837502 -0.091930866 0.028751053 15591652
0.42367071 -0.095346577 0.024847107 15723750
0.43000001 -0.099014528 0.02011334 15789798
0.41679636 -0.084214129 0.027206006 15789288
0.42173347 -0.085582897 0.022640975 15724264
0.41563627 -0.075065859 0.026886716 15724008
0.42147079 -0.074907906 0.021917677 15790314
0.4154028 -0.065208003 0.026984336 15658215
0.42202643 -0.06457255 0.022076884 15592935
0.41558182 -0.055457458 0.027886933 15263970
0.42388895 -0.055299208 0.023200376 15132385
0.43241179 -0.052729622 0.020937961 14869470
0.41757146 -0.048740845 0.028747912 14869214
0.42434886 -0.045742359 0.027232852 14869213
0.4341282 -0.045536783 0.023424255 14737626
0.44211113 -0.042631742 0.021655394 14803419
0.42500001 -0.038667519 0.028830582 14671833
0.43537939 -0.034899496 0.027421994 14671833
0.44490913 -0.037256524 0.023357427 14606041
0.45475003 -0.034976453 0.021538487 14540249
0.46522224 -0.031792752 0.021758523 14540506
0.43600002 -0.027847311 0.028557455 14342869
0.44463164 -0.02559744 0.027314268 14474456
0.45410529 -0.022679064 0.026103904 14408663
0.46406251 -0.025111316 0.023127472 14408663
0.4736 -0.024303833 0.020745941 14342870
0.44500008 -0.013769461 0.02919523 14408662
0.45544446 -0.015724143 0.027062153 14211284
0.46409678 -0.014566517 0.024192121 14277077
0.47247627 -0.015757073 0.021306451 14211284
0.43900001 -0.004311196 0.029783679 14145491
0.44321051 -0.0055802255 0.028699595 14277076
0.45520005 -0.0046008392 0.026563346 14145491
0.46517393 -0.0064798994 0.024262374 14145491
0.47400004 -0.0063496544 0.021574801 14211284
0.48060006 -0.0032181996 0.020229977 13948112
0.43900001 0.0093915621 0.029783679 13882319
0.44561768 0.004747543 0.028415956 13948112
0.45319998 0.004860674 0.025353363 13948112
0.46418187 0.0055779009 0.023388159 13816526
0.47646162 0.0055512814 0.020825433 13684940
0.48066673 0.001280166 0.020232784 13750733
0.43900007 0.014016243 0.029783679 13816526
0.44455567 0.014946516 0.028112635 13882319
0.45541185 0.017396275 0.025309667 13816526
0.4648889 0.015707953 0.022343533 13816526
0.47312504 0.012194866 0.020881882 13750733
0.43566668 0.025976593 0.029557532 13948111
0.44628575 0.024619009 0.028082989 13816526
0.45469224 0.025032723 0.025027338 13948112
0.46403998 0.025264747 0.021744428 14079698
0.42533335 0.032001372 0.029852187 14079696
0.43320003 0.038070433 0.029186046 14211282
0.44500002 0.037016116 0.027686793 14079696
0.45499998 0.034770966 0.024536224 13948111
0.46411768 0.034916662 0.021702178 14013904
0.43694115 0.045393683 0.029160788 14013903
0.44512004 0.046029359 0.026606081 14013903
0.45451432 0.044771511 0.023715664 14013646
0.46242863 0.044682804 0.021241751 13948110
0.43840003 0.052895676 0.02943466 14211282
0.44480437 0.055261575 0.027021069 14145489
0.4547576 0.054503337 0.023006218 14013903
0.46325001 0.055460997 0.02058414 13816525
0.44530958 0.064781651 0.027897097 14211027
0.45418197 0.064743973 0.024104323 14013649
0.46318758 0.064739749 0.0210541 13882062
0.44609764 0.075356625 0.027762316 14473684
0.45453581 0.075240143 0.024029093 14210769
0.46263644 0.074436314 0.021538187 14210769
0.44544446 0.080784559 0.027896265 14671064
0.45000002 0.080208577 0.025262676 14473684
0.43000001 -0.13072361 0.035212904 14473173
0.42533931 -0.12381699 0.035976164 15526116
0.43077776 -0.12573083 0.031950094 15262690
0.41746432 -0.11372179 0.038512137 16052457
0.42382428 -0.11506109 0.033688042 16052715
0.43000001 -0.11914729 0.030179717 16183789
0.41563347 -0.10451403 0.037206925 15658212
0.42187506 -0.10559072 0.032470006 15855591
0.40883335 -0.091907807 0.038902916 15855335
0.41406316 -0.095023565 0.034708191 15657957
0.42050004 -0.098796383 0.030497354 15592419
0.40733352 -0.084209792 0.037573021 15395040
0.41243109 -0.085665077 0.032669578 15658214
0.40612936 -0.074820884 0.036357317 15592419
0.41111538 -0.075677902 0.03162948 15592422
0.40520397 -0.064905748 0.035561081 15460834
0.41083336 -0.065586127 0.030918002 15724521
0.40462762 -0.055157196 0.036021702 15263969
0.41145837 -0.053763006 0.03124465 15263970
0.40515018 -0.045237575 0.036758345 15132384
0.41397139 -0.044055231 0.031703506 14803419
0.42000002 -0.040176284 0.03046109 14737626
0.40658635 -0.035607532 0.037769943 14803419
0.41375005 -0.034825213 0.033670101 14671833
0.42300001 -0.032536309 0.031553686 14474455
0.42999998 -0.031066483 0.030179717 14540247
0.40766668 -0.027701288 0.039267972 14606040
0.41474998 -0.024680153 0.03744803 14474454
0.42438796 -0.024559123 0.033689026 14342869
0.43172732 -0.023834307 0.030850021 14408661
0.41567731 -0.015153786 0.038807925 14342868
0.42419153 -0.015435647 0.035401996 14277076
0.43386847 -0.014288819 0.031967092 14277076
0.44300002 -0.01748671 0.030055057 14342868
0.41611749 -0.0048767799 0.038713504 14145490
0.42392683 -0.0053065764 0.035748526 14145490
0.43358538 -0.0055277292 0.032304227 14145490
0.41613957 0.0050292113 0.03844611 13948111
0.42379078 0.004820616 0.035112582 13948110
0.4332307 0.0044286265 0.03215494 13882318
0.41592681 0.015333985 0.038377464 13816525
0.42410821 0.01521391 0.035072014 13750732
0.43327034 0.014501539 0.031883191 13816526
0.41603854 0.024970263 0.037846334 14079697
0.42216077 0.025280407 0.033135612 14013648
0.43380004 0.021261182 0.031051341 13882319
0.41646156 0.034333453 0.038223594 14211282
0.42335939 0.03520086 0.033590402 14145234
0.43050003 0.03944397 0.030718129 14211282
0.41719234 0.043448295 0.038669463 14145489
0.424151 0.045134008 0.0354353 14145489
0.43187878 0.045516416 0.031625886 14079696
0.42472136 0.05469393 0.037101347 14342868
0.43311369 0.055239297 0.032302823 14276818
0.42619053 0.064822994 0.038221855 14408661
0.43385705 0.06566079 0.03402397 14342869
0.44157141 0.066230468 0.030547399 14342099
0.42652956 0.074731752 0.038625639 14737111
0.43418452 0.075193621 0.03429072 14605527
0.44164702 0.074459083 0.030570138 14473685
0.42700005 0.08193934 0.038964141 13815754
0.43341178 0.081364356 0.034580946 14868698
0.44000003 0.081516311 0.030881574 14145233
0.41431883 -0.12342207 0.045315005 15460579
0.42050001 -0.12439132 0.040341333 15394274
0.40852177 -0.11313458 0.048505675 15920872
0.41296387 -0.1155994 0.044021077 15921128
0.40775734 -0.10464069 0.046615139 15658212
0.41132432 -0.10602269 0.042086981 15723749
0.40541467 -0.094805256 0.045035578 15460834
0.41033337 -0.098809429 0.040326577 15658212
0.39900002 -0.080667481 0.04948749 15658212
0.40284818 -0.085170567 0.045067776 15395040
0.39788106 -0.073547356 0.047549851 15329247
0.40105712 -0.075706325 0.043367129 15197661
0.39623404 -0.064794399 0.046272464 15395040
0.4002333 -0.065488853 0.041269757 15526626
0.39518192 -0.05484907 0.045633413 15329504
0.40000007 -0.055709869 0.040641721 15330018
0.39486933 -0.045218028 0.045788992 15263712
0.40041664 -0.043651626 0.04103088 15132127
0.39506167 -0.035174996 0.046955582 14934491
0.40191826 -0.034737937 0.042145163 14868956
0.39594448 -0.02509059 0.047440156 14605527
0.40321431 -0.024761479 0.04241408 14474454
0.41050002 -0.020527687 0.040342957 14277075
0.39684615 -0.015448542 0.048036832 14473684
0.4031865 -0.014438109 0.044029236 14408404
0.41125005 -0.014068134 0.040776748 14277075
0.39763638 -0.0053283237 0.048724912 14013903
0.40424374 -0.0049764686 0.044832431 14211282
0.41135007 -0.0051619047 0.040907227 14145489
0.39790913 0.0047878358 0.048885584 13816524
0.40402409 0.0047537051 0.044934519 13882317
0.41152391 0.0047670668 0.040901519 13948111
0.39856255 0.01418399 0.049141329 13882317
0.40374169 0.015156139 0.04523709 13882317
0.41125003 0.015057201 0.040897157 13816525
0.39900002 0.020678699 0.04948749 14211282
0.40415463 0.025022984 0.045914039 14211281
0.41137502 0.025331579 0.041150074 14144976
0.40557969 0.034736965 0.046547238 14211024
0.41138238 0.035200257 0.041475758 14276818
0.40752956 0.044356175 0.047548972 14408146
0.41321874 0.0457398 0.04291404 14342098
0.40877777 0.052233849 0.049211327 14342352
0.41428271 0.055100139 0.045124978 14539477
0.42050004 0.056838013 0.040636305 14539477
0.41528064 0.06503281 0.046112105 14868442
0.42107156 0.064983748 0.041310154 14671063
0.4162032 0.074946798 0.047016613 14934490
0.42184806 0.075300314 0.042270321 14802648
0.41700003 0.082262456 0.047471475 13420995
0.42273688 0.082067147 0.042529278 14474454
0.4070431 -0.12424921 0.056371894 15131103
0.41103703 -0.12478046 0.051406499 15262688
0.4044376 -0.11487264 0.055249389 15920616
0.41000003 -0.11984437 0.050851811 15723238
0.39883336 -0.10226461 0.059581578 15789029
0.40247878 -0.10514753 0.054889135 15723493
0.39757696 -0.093914039 0.057415545 15526113
0.40111655 -0.09593489 0.053016685 15526114
0.39551386 -0.084701858 0.055548232 15263198
0.40008339 -0.088067479 0.051182732 15131868
0.38883337 -0.071481891 0.058997557 14933976
0.39345279 -0.075373068 0.0546018 15131868
0.38798359 -0.064692624 0.05775173 15131610
0.39167172 -0.065549619 0.052857526 15329245
0.38701028 -0.054885585 0.056108788 15065818
0.39076668 -0.055739712 0.051240277 15197661
0.38656759 -0.04516438 0.055581421 15197661
0.39040908 -0.044656362 0.050706387 15197917
0.38650954 -0.035292581 0.055853672 14868697
0.39082757 -0.034197409 0.051091392 14474453
0.38667789 -0.02531155 0.056459151 14539990
0.39135727 -0.024608985 0.05167852 14342868
0.38645694 -0.015411727 0.056791589 14342867
0.39247161 -0.014568634 0.052018117 14474197
0.3868438 -0.0052066557 0.057539783 13948365
0.39277032 -0.0052017537 0.052409105 14079696
0.38785112 0.0043007131 0.05837927 13684937
0.39352086 0.0049168258 0.05329686 13750475
0.38862067 0.013648004 0.058991037 13684938
0.39381057 0.015053116 0.053960726 13750731
0.38900003 0.020615764 0.059175078 14210512
0.39442384 0.024986237 0.055017851 14079695
0.40000001 0.028221784 0.050547928 14079952
0.39572224 0.034613375 0.056543186 14013902
0.40099993 0.036237817 0.051712003 14079950
0.39762163 0.04433316 0.058220502 14145486
0.40227902 0.045270242 0.053497687 14277072
0.39883336 0.051637441 0.059425894 14342609
0.40414798 0.055106234 0.055009764 14474195
0.41100001 0.059786949 0.050013676 14671317
0.40596038 0.06474594 0.05553139 14869209
0.41075 0.06580925 0.050559379 14934491
0.40711135 0.074445732 0.056972444 14869212
0.41165304 0.075636521 0.052095838 14869212
0.40838096 0.082259975 0.057706054 12170929
0.41243479 0.081907794 0.052867107 14474197
0.40511116 -0.13074364 0.065203518 14341589
0.39782611 -0.12300878 0.068533361 15065309
0.40278751 -0.12525928 0.064293228 14999260
0.39634717 -0.11427198 0.066035114 15788774
0.40029168 -0.11681218 0.061555564 15854824
0.39544281 -0.10495804 0.065291718 15657701
0.40000001 -0.10943007 0.060848404 16052203
0.38900003 -0.090939604 0.069192298 15789285
0.39323524 -0.095089376 0.064842284 15394527
0.38846812 -0.083328284 0.067605644 14934233
0.3912839 -0.085855752 0.06361606 15131611
0.386695 -0.074646801 0.065341271 15000025
0.39011115 -0.078008235 0.06076457 15131869
0.38359517 -0.064985693 0.065073915 15000026
0.37854838 -0.053878393 0.068961836 14934233
0.38210994 -0.055312637 0.0639771 15000282
0.37853071 -0.04487171 0.068431944 14802904
0.3814083 -0.04509398 0.063171998 14934490
0.37854171 -0.035435203 0.068512321 14671062
0.38157991 -0.034696411 0.063416913 14605524
0.37835008 -0.024411783 0.068802699 13948108
0.38154814 -0.025057714 0.0636167 14342610
0.37844908 -0.01529985 0.068399183 14013902
0.38169146 -0.014876462 0.063237406 14145233
0.37866667 -0.008003016 0.069274299 13684938
0.38229024 -0.0050713015 0.06455221 13750475
0.38297829 0.0048785098 0.065083951 13487559
0.38409135 0.015158882 0.065117896 13618887
0.38651335 0.02444743 0.065319113 13882571
0.39049998 0.027438564 0.061116587 13948109
0.38848001 0.033558901 0.067824923 13816777
0.39135444 0.03563939 0.063355431 13882316
0.38900003 0.041105524 0.069192298 14144971
0.39306486 0.045084871 0.064852253 14145230
0.39569578 0.054697145 0.065401055 14474195
0.40014288 0.058207925 0.061003573 14605524
0.39704344 0.064654946 0.06707491 14934234
0.40080687 0.065252841 0.062038425 14934489
0.39818427 0.074089319 0.068469435 15000027
0.40195331 0.075464927 0.06380605 14934746
0.39850006 0.081290998 0.069482148 15000030
0.40358526 0.082072407 0.064070307 13750217
0.39650002 -0.13109791 0.078299098 14078416
0.39512843 -0.12482964 0.07505291 15065308
0.38868964 -0.11305077 0.07851778 15460066
0.39206582 -0.11546117 0.074076504 15591652
0.38782048 -0.10462075 0.07678739 15459809
0.39114904 -0.10570391 0.072163507 15525859
0.38641131 -0.094647102 0.075298004 15328735
0.39022225 -0.098127939 0.070830435 15460066
0.38427529 -0.085042007 0.074922748 15197149
0.37862507 -0.073308654 0.078287348 14737110
0.3819485 -0.075651668 0.074041821 14802904
0.37786719 -0.064603671 0.075599208 14802903
0.38059095 -0.06686303 0.071259901 14802903
0.37611938 -0.054963592 0.075130031 14868440
0.37562311 -0.044953074 0.075269811 14671318
0.37591651 -0.035078328 0.075215504 14079182
0.37617344 -0.024977386 0.075267866 13684680
0.37580284 -0.014834166 0.075193197 13487301
0.37596348 -0.0051335129 0.074999951 13158594
0.38000003 -0.00076649763 0.070260204 14145489
0.37636027 0.0048671705 0.075587697 13092799
0.38000008 0.0057274862 0.070616029 13422021
0.37758413 0.014653374 0.076248795 13355971
0.38061109 0.016312275 0.071610026 13618629
0.37855011 0.022056552 0.078410164 13619399
0.38200006 0.025649639 0.074300051 13684936
0.38500762 0.03514348 0.075128503 13750472
0.38788506 0.044629011 0.075343125 14013387
0.39028573 0.047898743 0.071182601 13947594
0.38843843 0.054487754 0.077249289 14408145
0.3914406 0.055623833 0.0724186 14407889
0.38885713 0.062461801 0.078703083 14802903
0.39208239 0.065338716 0.074168243 14934490
0.38900003 0.075710453 0.079209507 14934235
0.39307052 0.075016543 0.074877441 14934235
0.39400005 0.081819959 0.0749356 14210513
0.3932308 -0.13073246 0.0847352 13815756
0.38767442 -0.12262769 0.086806566 14868186
0.39210001 -0.12644248 0.08370208 14605271
0.38523984 -0.11496149 0.085023053 15657700
0.37900001 -0.10057963 0.089594714 15394273
0.38307706 -0.10497485 0.084915668 15394272
0.37840429 -0.093571357 0.087700062 15131357
0.38184333 -0.095923893 0.083452791 15131357
0.37767002 -0.084472649 0.085815273 14868185
0.38058063 -0.086386248 0.081259482 15065563
0.37622872 -0.075074852 0.084955312 14736599
0.38000003 -0.07993973 0.080045663 15066075
0.37411293 -0.065111257 0.085055999 14671062
0.37251469 -0.054974053 0.085103318 14671317
0.37266004 -0.04480435 0.085036017 14276304
0.3738575 -0.034948621 0.085085101 12960444
0.37362441 -0.024909561 0.085174821 9277321
0.37379298 -0.014870606 0.085385755 9276808
0.37368199 -0.0051289569 0.085272938 12303284
0.37364614 0.0049321498 0.085263006 12763577
0.37442121 0.01502561 0.08500018 13027006
0.37683725 0.024570325 0.085345849 13487813
0.38023084 0.028197013 0.080984034 13553606
0.37840748 0.03188308 0.087616153 13685192
0.38193277 0.035705533 0.084316716 13619142
0.38446173 0.045128632 0.085028358 13947594
0.3854152 0.055095039 0.085307494 14408145
0.38600004 0.065003008 0.085059598 14868696
0.386933 0.074821778 0.08479853 14868696
0.38764459 0.081899196 0.085318588 13618374
0.39000002 0.081839561 0.080554374 14013391
0.39150003 -0.13093391 0.091174334 13684940
0.37854546 -0.1214458 0.09883175 14670550
0.38310346 -0.124199 0.094505191 14604758
0.39000002 -0.12951925 0.090825595 13816526
0.37691012 -0.11428851 0.096785456 15526114
0.38107833 -0.11560774 0.092025734 15657445
0.37634346 -0.10486586 0.095570058 15591651
0.38052946 -0.10724809 0.090741597 15789030
0.37540931 -0.094972745 0.095152818 15262942
0.37379181 -0.085034668 0.094993301 14999770
0.36900002 -0.070714995 0.099324435 14736597
0.37219337 -0.075013064 0.094981223 14736597
0.36870977 -0.063810602 0.098800078 14934232
0.37089708 -0.065245688 0.094110854 14670806
0.36877289 -0.055974796 0.098418713 14605524
0.37055653 -0.054621033 0.09366852 14539475
0.36900002 -0.049982939 0.099324435 14473938
0.37106034 -0.045047939 0.095099606 14144974
0.37271154 -0.035190392 0.095010132 10855325
0.37102997 -0.025070183 0.095092274 2239269
0.37118721 -0.015083816 0.095131591 2699565
0.372024 -0.0050045033 0.095116921 11381927
0.37112477 0.0048982962 0.095115051 12434613
0.37168604 0.015010487 0.095048741 12763834
0.37404492 0.024586953 0.094991766 13355970
0.37770078 0.03412801 0.095362641 13553092
0.38047063 0.038580243 0.092141405 13619143
0.37900001 0.043952707 0.099176966 13816008
0.38103852 0.044869263 0.094888367 13881801
0.37865624 0.055219904 0.099235848 14407889
0.38133329 0.054852419 0.094220452 14276304
0.37838104 0.064975277 0.098811515 14802649
0.38139436 0.064880297 0.093787037 14802649
0.37856668 0.073444016 0.09909223 14802649
0.3822563 0.075301096 0.09414728 14868442
0.38284311 0.081820861 0.095231943 14342356
0.37687105 -0.12302723 0.10536235 14079183
0.38068426 -0.12698968 0.10303269 13684171
0.36825004 -0.1119515 0.10817233 15000028
0.3724001 -0.11542071 0.10425694 14934234
0.36718741 -0.10468026 0.10685366 15329248
0.37127423 -0.1052588 0.10191005 15328734
0.36750016 -0.094953977 0.10651521 15263198
0.37079993 -0.095261946 0.10161283 15526113
0.36740416 -0.085112974 0.10695846 15131611
0.37075871 -0.085179307 0.10217547 15065562
0.36698574 -0.074650355 0.10563772 14934232
0.37024993 -0.077781096 0.10128573 14999769
0.36665082 -0.06519036 0.10515638 14671061
0.36712793 -0.054980144 0.10520871 14473938
0.36826137 -0.046873514 0.10612727 14342352
0.37036687 -0.043071788 0.10363587 14144716
0.37120399 -0.035024378 0.10490898 10066066
0.36809903 -0.0240016 0.10614236 2107172
0.37035894 -0.027025813 0.10266861 2304549
0.36814004 -0.016297001 0.10608736 2172965
0.37041181 -0.012715501 0.10335923 3620153
0.36900005 -0.0010322548 0.10940253 12171953
0.37097666 -0.0052191713 0.1049512 10526617
0.36887279 0.0049554752 0.10806631 12369076
0.37013516 0.004830732 0.10329963 12368562
0.36896983 0.014410863 0.10881761 12763833
0.37041008 0.015045052 0.10409842 12894906
0.37182987 0.02495121 0.10504738 13290434
0.37585166 0.035219155 0.10515911 13750472
0.37747866 0.045126848 0.10517514 13881801
0.38000003 0.044898961 0.10050616 13552580
0.37609917 0.054975636 0.10524542 14276560
0.3752887 0.065088511 0.10523533 14736856
0.37546918 0.074990556 0.10516369 14737113
0.37566066 0.081954025 0.10551327 13947598
0.38000003 0.081965081 0.10050616 14736857
0.36812502 -0.12182453 0.11863963 14144977
0.37324646 -0.12369017 0.11411678 13947084
0.36522412 -0.11425093 0.11557083 14802904
0.37074995 -0.11846156 0.11221678 14342098
0.36266273 -0.10492458 0.1150711 15131613
0.35900003 -0.094528563 0.11913026 14802903
0.36262086 -0.094979748 0.11455187 15197661
0.36216468 -0.084913373 0.114934 15000282
0.36214346 -0.074976102 0.11512353 14868696
0.36299378 -0.064898059 0.11508361 14605525
0.3650001 -0.055069108 0.11501782 14276816
0.36729667 -0.045026042 0.11509268 13947594
0.36867657 -0.033390667 0.11682768 5593426
0.37062716 -0.035405677 0.11436106 9934222
0.36653361 -0.024851473 0.11525768 1909790
0.36709937 -0.01501436 0.11530228 2633771
0.37 -0.01027427 0.11172009 7829618
0.36860868 -0.0034718583 0.11597653 10724509
0.37022975 -0.0068281014 0.11377686 9539978
0.36773622 0.0048520705 0.11490831 11974319
0.36738178 0.015260261 0.11508844 12632249
0.36793333 0.024541531 0.11605444 13421507
0.37047219 0.027030854 0.11178938 13421507
0.36837268 0.034377184 0.11834624 13553607
0.37162289 0.035356827 0.1135486 13750472
0.36851439 0.04520116 0.11893629 13947851
0.37234417 0.044902019 0.11411145 14013388
0.36827955 0.055106815 0.117779 14144974
0.3715364 0.054706186 0.11276903 14276305
0.36819988 0.065061182 0.11768836 14540246
0.37100023 0.064758621 0.1126375 14605784
0.36813235 0.074943595 0.11756679 14408662
0.37093985 0.07503096 0.11275359 14540248
0.36818182 0.081453361 0.11775115 13882064
0.37093937 0.081852548 0.11289597 13158340
0.36541802 -0.12255707 0.12455906 13553097
0.35900003 -0.11081987 0.12730825 12895422
0.36169115 -0.11509952 0.12483718 13816268
0.35837626 -0.10466906 0.12562563 13553096
0.36005008 -0.10688778 0.12123246 14539477
0.35837111 -0.095136583 0.12453581 13553095
0.36000001 -0.09048079 0.12976979 11514798
0.35893694 -0.08544001 0.1249658 13289923
0.35999995 -0.084344387 0.12429182 13487045
0.35899988 -0.077082768 0.12572744 13224388
0.36013439 -0.073682792 0.12426563 13816524
0.36107147 -0.064821213 0.12493913 13750730
0.36346501 -0.054792542 0.1247834 13750729
0.36642477 -0.044966254 0.12498109 13289921
0.36842984 -0.035174277 0.12509312 7566189
0.36999992 -0.03570522 0.12391584 8947327
0.36497974 -0.025149224 0.1250765 1515032
0.36550388 -0.014954234 0.12500134 2567464
0.36837491 -0.0051502883 0.12474363 9606029
0.36724135 0.0049270089 0.12497088 11513767
0.36604431 0.015012312 0.12494087 12105649
0.36561626 0.025070816 0.12490434 12698043
0.36604545 0.034824658 0.12508504 12961215
0.3660132 0.04510219 0.12507375 13158339
0.36579731 0.054832112 0.12481706 13421509
0.3663893 0.064876556 0.12477969 13487303
0.36659101 0.074789032 0.12483035 13421766
0.36695337 0.08148846 0.12386534 12566460
0.36373681 -0.12142438 0.13210396 11711150
0.36289841 -0.11534025 0.13305077 10790050
0.35831425 -0.10459284 0.13170204 11579822
0.36000001 -0.10635289 0.13257901 10460573
0.35900006 -0.097867452 0.13094185 11842736
0.35999995 -0.094708212 0.13218935 10592669
0.35999992 -0.084283985 0.1316784 11053475
0.35900003 -0.078463495 0.13024974 11053477
0.36061028 -0.074024543 0.13226567 11119268
0.36185262 -0.064732827 0.13337307 11316391
0.36404625 -0.054827031 0.13240862 11777199
0.36695653 -0.044554789 0.13258837 11776428
0.36604935 -0.033622317 0.13418467 4737859
0.36999995 -0.037496965 0.13378695 8421499
0.36189154 -0.024879111 0.13471709 1580823
0.36313224 -0.015265754 0.13469997 2566947
0.36863643 -0.0049336152 0.13222438 8817030
0.37052557 -0.0053044762 0.13702033 7435631
0.36796913 0.005268611 0.13387087 9474700
0.3705416 0.0026487152 0.13859414 7698290
0.36722419 0.015213253 0.13473147 9869458
0.36609682 0.024592517 0.13414578 10461083
0.36576831 0.034747582 0.13397066 10395547
0.36589134 0.045266453 0.1339452 10658719
0.36690232 0.054786932 0.13391577 11316647
0.36699986 0.064115517 0.13183372 11052963
0.36695009 0.073781088 0.13150206 11053734
0.36185187 -0.031131046 0.14431161 1054481
0.36159673 -0.024853254 0.14435199 1120529
0.3614054 -0.015603923 0.14459614 2104856
0.36900002 -0.0093826661 0.1420843 9211524
0.37252173 -0.0046147546 0.1421154 8224630
0.37175009 0.0027824475 0.14162093 8816511
0.36800003 0.01821059 0.14040701 9343109
0.36468977 -0.032229777 0.15654081 1777432
0.36552703 -0.025658196 0.15645641 528135
0.37069225 -0.026346479 0.15648676 528649
0.36347705 -0.015278995 0.15592657 2036494
0.36352527 -0.033455223 0.16468139 1054737
0.36369342 -0.024804858 0.16512185 988941
0.36387521 -0.016695512 0.16422185 1119244
0.34900001 -0.035835624 0.1797276 1910042
0.354 -0.033320628 0.17979498 1252113
0.36343554 -0.033031378 0.17530105 989200
0.3577188 -0.024456698 0.17950374 462344
0.36175656 -0.025042007 0.17478232 1054737
0.35883334 -0.018503834 0.17961128 396552
0.36143291 -0.016779244 0.17674367 857103
0.34569505 -0.033618633 0.18493025 1580822
0.35393333 -0.032029796 0.18043311 1186321
0.36000001 -0.034015432 0.18033578 462854
0.34530503 -0.024849677 0.1854455 1383188
0.35323536 -0.025338328 0.18062024 1120529
0.34531504 -0.016998755 0.18587917 1382932
0.35594636 -0.016809391 0.18146491 922897
0.36061913 -0.011981459 0.18293984 1580571
0.36100003 -0.0091792485 0.18379459 8291711
0.34204546 -0.032973811 0.19170475 1449237
0.34152439 -0.025465684 0.19178797 1383444
0.34156248 -0.01770385 0.19153783 1251604
