# .PCD v0.7 - Point Cloud Data file format
VERSION 0.7
FIELDS x y z rgb
SIZE 4 4 4 4
TYPE F F F U
COUNT 1 1 1 1
WIDTH 552
HEIGHT 1
VIEWPOINT 0 0 0 1 0 0 0
POINTS 552
DATA ascii
0.49253848 -0.013590337 -0.081178494 13552582
0.49168757 -0.005020089 -0.08117155 12697265
0.49200007 0.0046019517 -0.081058227 12368817
0.49300003 0.01112385 -0.080810793 12040365
0.4985556 -0.031092398 -0.072254099 14932692
0.49495652 -0.024561075 -0.074555829 13551811
0.48817647 -0.012884921 -0.071819402 14144205
0.49154556 -0.015366749 -0.076349363 12959672
0.48786682 -0.0052096127 -0.072433308 12302515
0.49058819 -0.0048063886 -0.077376679 12631989
0.48850003 0.0014452091 -0.07163965 13158340
0.49141535 0.0052402685 -0.07570415 12697014
0.49302533 0.015065528 -0.074929126 12368561
0.49662262 0.024953574 -0.074254952 12105390
0.49878949 0.032303989 -0.072910361 13684938
0.50058073 0.036453675 -0.074266031 11974060
0.50170004 0.040918231 -0.072134897 12697782
0.50583339 -0.041086059 -0.061992705 12564658
0.4971765 -0.032499045 -0.064795107 13946571
0.50226671 -0.037311073 -0.063433833 13485761
0.48707142 -0.022241676 -0.063227557 13486274
0.49260977 -0.026510395 -0.06592606 11973038
0.48521429 -0.014742868 -0.065441653 13486532
0.48440918 -0.0050976472 -0.065133177 12236462
0.48643839 0.0046683238 -0.064953417 12105131
0.49000001 0.0081884116 -0.069612786 13487556
0.48750013 0.014083046 -0.0627359 12302511
0.49106243 0.016255392 -0.067202955 12104619
0.48850003 0.021315183 -0.060632184 14341578
0.49285489 0.025082309 -0.065347806 11776166
0.49677193 0.033954084 -0.064642362 12171697
0.50027269 0.038703289 -0.06603419 12566711
0.50302565 0.043406643 -0.063971937 11842990
0.49900001 -0.040724244 -0.051421922 14998999
0.50470006 -0.04331835 -0.052842241 12499121
0.48733333 -0.03216809 -0.051836729 12959161
0.49435136 -0.035036758 -0.055763543 13354174
0.50139999 -0.038573474 -0.058947466 14603988
0.47875005 -0.021139409 -0.051016595 12433324
0.48367199 -0.02485184 -0.055050641 13090486
0.49066666 -0.029323844 -0.059370082 12105135
0.47737837 -0.014737345 -0.052277882 13354942
0.48086107 -0.015386843 -0.057653215 13223099
0.47769234 -0.0059223692 -0.052297287 12894648
0.48066661 -0.005014441 -0.057518046 12828340
0.47877783 0.0017745495 -0.051081821 9603713
0.48147777 0.0048848167 -0.055442058 12301484
0.48354161 0.014878084 -0.054931995 11841189
0.48657382 0.024791187 -0.054460324 11841705
0.49040002 0.027482977 -0.058802057 12895676
0.48800001 0.032146916 -0.051431261 12172467
0.4934108 0.035441138 -0.055861872 12106674
0.49753851 0.041824441 -0.053694263 12632504
0.50284624 0.04535497 -0.057296433 11447716
0.55250001 -0.07160601 -0.040120732 13090487
0.54592311 -0.065595143 -0.04249198 12960190
0.48900002 -0.041052885 -0.040088601 14866382
0.49361545 -0.041798893 -0.044299759 13881031
0.50337505 -0.04550172 -0.047749355 13026238
0.47850001 -0.030089788 -0.040908657 10592156
0.48492742 -0.034260359 -0.044566367 12696245
0.49085715 -0.0384183 -0.04648 11248545
0.47632 -0.024224555 -0.044093326 13091771
0.48094442 -0.02768022 -0.047561031 13288637
0.47383341 -0.015378969 -0.044953153 12829114
0.47395837 -0.005391404 -0.044964924 12763319
0.47612345 0.0046772338 -0.045101725 12170412
0.47688338 0.014185711 -0.04349244 11775137
0.48042852 0.016170414 -0.048437402 12959413
0.47823083 0.021944743 -0.041445717 11644324
0.48187885 0.025422836 -0.045680426 12105391
0.48603937 0.034097653 -0.044400748 11316130
0.49100003 0.038337536 -0.047151711 13026746
0.49342003 0.043575272 -0.04421803 11250334
0.52478582 0.05808929 -0.042936228 11316642
0.528 0.061621752 -0.043550052 10329490
0.53266668 0.065226898 -0.044610303 12302765
0.56800002 -0.080927603 -0.033268102 12697009
0.57281822 -0.084789149 -0.032086316 13025719
0.55518186 -0.072665408 -0.034875695 13484986
0.56228572 -0.077672087 -0.032932576 12761264
0.54790002 -0.066266 -0.03850428 13617604
0.55133343 -0.069231033 -0.034152515 13616831
0.48719236 -0.042263146 -0.034327991 13551552
0.49157897 -0.046058625 -0.034478772 12762550
0.47651613 -0.033098374 -0.033491429 11973035
0.48255268 -0.037068531 -0.036085662 13091257
0.46849996 -0.022254463 -0.031985078 10591124
0.472242 -0.025743224 -0.035760324 13091774
0.46748072 -0.015023639 -0.033299662 12697269
0.47031045 -0.015528928 -0.038405221 12829629
0.46802217 -0.0058847917 -0.033015389 12171695
0.47036123 -0.0046478985 -0.037857942 12368562
0.46884212 0.0039075986 -0.031446502 12629932
0.47150826 0.0046959175 -0.036435015 12433582
0.46900001 0.010582323 -0.030763423 11052190
0.4725143 0.014648403 -0.034984011 12038826
0.4758696 0.024490796 -0.034626253 11710630
0.48016667 0.028632456 -0.038615312 13685192
0.47810006 0.031158606 -0.031809799 12501177
0.48290923 0.035449684 -0.035277389 11645608
0.48720002 0.041103151 -0.035726272 9737611
0.49200004 0.043930847 -0.038318638 10461591
0.50100005 0.048249137 -0.036380973 9211268
0.51749998 0.056905326 -0.034147993 10527384
0.52283335 0.057493474 -0.038173225 11645606
0.52649999 0.061491754 -0.039157983 10790297
0.53050005 0.064751163 -0.039144702 12829880
0.54700005 0.07252869 -0.031397849 9342593
0.55199999 0.07663957 -0.031684458 12960694
0.55666667 0.081846721 -0.030865707 13158589
0.5833751 -0.094177336 -0.023710929 14340040
0.56840003 -0.081517413 -0.024109121 12169383
0.57474291 -0.086316727 -0.025089761 12892594
0.55670005 -0.072935514 -0.027911812 13157050
0.56376195 -0.077689014 -0.025098985 12828085
0.54900002 -0.067938767 -0.025729164 14407891
0.55200005 -0.069049112 -0.028085703 12236206
0.49700001 -0.051032394 -0.029109588 10655632
0.47800002 -0.04124888 -0.021731714 10985369
0.48397303 -0.043607295 -0.025595894 12630709
0.49200004 -0.047578149 -0.028048621 12761776
0.46800002 -0.03152217 -0.022233771 12368565
0.47363639 -0.035317425 -0.025243644 13289150
0.48066673 -0.038853467 -0.028902844 12498608
0.46517339 -0.024612145 -0.024785906 12367019
0.47016668 -0.02883224 -0.029005766 14802388
0.46280262 -0.015019455 -0.024948951 13091768
0.4634324 -0.0052710474 -0.024981834 12763059
0.46509075 0.0049412516 -0.024985779 11907494
0.4667286 0.014824748 -0.02462993 11842475
0.47015396 0.018101597 -0.028807465 12367534
0.46824995 0.022898879 -0.022494448 10987419
0.47166666 0.02579069 -0.026092438 12434097
0.47646004 0.033622473 -0.024093127 10922141
0.48065376 0.037937924 -0.026422445 10659228
0.48179999 0.041100003 -0.024958277 12303537
0.54740006 0.071685113 -0.026164208 11052956
0.55316138 0.076588571 -0.025254656 11447199
0.55757147 0.08148215 -0.027619759 12763830
0.56227577 0.085112236 -0.023850488 11184284
0.56750005 0.091189139 -0.022607375 11711144
0.57275003 0.095052943 -0.020471726 12435123
0.58575004 -0.1017973 -0.015111089 13418681
0.57736373 -0.091109276 -0.013421162 13947080
0.58333331 -0.096280485 -0.015694253 13879487
0.56829411 -0.082300588 -0.014894978 12302000
0.57369566 -0.086824521 -0.015325572 12367790
0.55250001 -0.072252132 -0.013605192 14210252
0.56392306 -0.078418091 -0.016280951 14012617
0.46900001 -0.040837746 -0.01136653 13356228
0.47330004 -0.043248069 -0.014803807 12762550
0.48000002 -0.045915753 -0.019124379 14538964
0.46491042 -0.034150902 -0.014761474 12894647
0.47100005 -0.038164828 -0.018307934 14670800
0.45810866 -0.023704242 -0.013172525 12434609
0.46116665 -0.025884885 -0.017416667 12302768
0.45720837 -0.014838088 -0.014478605 12038824
0.45999998 -0.014927153 -0.019404398 11250336
0.45741928 -0.0054801693 -0.013930758 12894390
0.46026316 -0.0043297722 -0.018678572 12632504
0.4585318 0.0045118863 -0.012812121 12237231
0.46102333 0.0055211531 -0.017592823 11842216
0.45894125 0.013357647 -0.01171273 11842730
0.46192184 0.015781848 -0.016061807 12303281
0.46547309 0.024869865 -0.014973257 11776422
0.47014287 0.029240102 -0.018731982 11645351
0.46900001 0.031168653 -0.011824003 10065550
0.47266006 0.034371432 -0.015318678 11513250
0.55490917 0.075411975 -0.013714477 11908004
0.56 0.0788396 -0.0124795 9013112
0.56643593 0.085703276 -0.015022195 11709600
0.57025003 0.0896274 -0.012707043 12762801
0.56850004 0.090683222 -0.019322678 10131341
0.57499999 0.095006868 -0.014898629 11776421
0.58000004 0.099306583 -0.011567407 12697523
0.57866669 0.10088477 -0.01718501 12106156
0.58242857 0.10355642 -0.013333423 12039851
0.58271438 -0.10075796 -0.005487571 13156537
0.57679415 -0.092827894 -0.0041158013 13288894
0.58110529 -0.097760707 -0.0056844787 14341581
0.56700003 -0.083046325 -0.005135457 12695985
0.57256252 -0.087778285 -0.0047191544 12366766
0.55900002 -0.077028044 -0.0078770136 14275531
0.56083339 -0.078375094 -0.006589537 11117725
0.4651702 -0.042713154 -0.0044804933 12630708
0.47000003 -0.043858897 -0.0099237273 8288881
0.45710203 -0.03364037 -0.0033023639 12303282
0.46208578 -0.036973178 -0.0067010587 12498863
0.45414582 -0.025042249 -0.0049479092 12828340
0.449 -0.01440849 -0.00034369368 11447199
0.45233348 -0.014966136 -0.0053495355 12104616
0.44900003 -0.0072123804 -2.027301e-05 12631989
0.45256484 -0.0050254306 -0.0050775865 12302252
0.45385987 0.0049319603 -0.0048129777 11842731
0.45593342 0.015094409 -0.0048353574 12170923
0.45799997 0.022608463 -0.0031251225 11775652
0.46256596 0.026615258 -0.0061129201 11907498
0.46625635 0.032451313 -0.0047062105 11709860
0.47000003 0.034627635 -0.0091902083 13223354
0.55116671 0.068780504 -0.0023904846 11052955
0.55492306 0.074467465 -0.0048561958 11250332
0.56014287 0.078672424 -0.0028345126 12499886
0.5652895 0.083459169 -0.0050392444 11380890
0.57133335 0.088349365 -0.0041471589 11644063
0.57618433 0.093475781 -0.0049594641 11381149
0.58175004 0.098756127 -0.0037686764 10855319
0.58526534 0.10510582 -0.0048879553 11184284
0.588 0.11031196 -0.0034647239 12434352
0.57518762 -0.09390527 0.0055240709 12894649
0.56560004 -0.083903432 0.0057557621 12104621
0.57118183 -0.088918395 0.0045906981 14341325
0.55740005 -0.076024733 0.0064997179 12696243
0.56059998 -0.078561522 0.0055733104 11972519
0.4578611 -0.042640097 0.0065861354 13222843
0.46124008 -0.0460224 0.0042930148 12631478
0.4488 -0.031724773 0.0080342423 14013386
0.45336369 -0.035527933 0.0046368078 12301999
0.44726148 -0.024616828 0.0060615535 12434354
0.45056254 -0.026686508 0.0017589764 11974063
0.44627801 -0.015004978 0.0051924363 12237233
0.44672847 -0.005082326 0.0051980745 12039853
0.44771612 0.004566005 0.0060074967 11644580
0.45037496 0.0062755477 0.0015608764 10329490
0.44872421 0.013295333 0.0076943608 12894388
0.45171154 0.01582785 0.0038796053 12038824
0.45532057 0.024523783 0.0054530725 11775651
0.46033335 0.028886667 0.0014158199 8486261
0.45864293 0.031286109 0.0078778872 12236974
0.46172726 0.031890363 0.0024325391 12631474
0.54800004 0.064322338 0.006135412 10329232
0.55140007 0.068336107 0.005310127 10394765
0.55525005 0.07288377 0.0050823623 11578783
0.56144452 0.077949442 0.0056735976 10328715
0.56694436 0.082252838 0.0048454092 11644832
0.57333338 0.087096296 0.0056813196 10987161
0.57726318 0.092011444 0.0047407411 10986903
0.58269995 0.097453594 0.0058395788 11448483
0.58610719 0.10437505 0.004235276 10658198
0.59000003 0.11068717 0.0013545612 12565937
0.56875002 -0.091187164 0.018447876 13091770
0.57165384 -0.093444116 0.01407324 13288891
0.55900002 -0.080953926 0.019604197 10918804
0.56427664 -0.085102551 0.015064025 12367536
0.54800004 -0.072092056 0.01237563 10329234
0.55695009 -0.077726096 0.015292836 11906727
0.56025004 -0.079823397 0.012433602 14012360
0.45900002 -0.050891366 0.017708976 12103332
0.46091664 -0.051733121 0.0141839 11445918
0.44883338 -0.041533705 0.019242801 14276558
0.45554549 -0.044927474 0.014854863 12893621
0.46000001 -0.049117718 0.011555565 14406088
0.44596258 -0.034626741 0.015420748 12960183
0.45062506 -0.038622756 0.012374466 13221817
0.43880963 -0.023485532 0.018617254 13288890
0.44238177 -0.025477698 0.01408968 12368817
0.4384042 -0.014663385 0.01755641 11776679
0.44141504 -0.014909717 0.012551732 12171699
0.4386552 -0.0052395076 0.018321905 12171697
0.44188535 -0.0049085901 0.013320283 11974317
0.4390001 0.0031111317 0.018764375 11972520
0.44253698 0.0051723383 0.0141337 11907496
0.44472045 0.014895035 0.015181485 11776165
0.44840005 0.021980235 0.016598172 12368817
0.45286676 0.026233679 0.014430345 11184286
0.45662066 0.031849004 0.014530908 11118236
0.54900002 0.063796163 0.011542182 12301994
0.55202943 0.066469289 0.01506865 10591890
0.5556522 0.071726687 0.014400468 10328974
0.56352383 0.077018984 0.014045747 11249304
0.5686667 0.080946974 0.012844461 9933443
0.57499993 0.085607372 0.015103701 11447197
0.57850003 0.090924069 0.0128407 10658198
0.58228952 0.095326521 0.014968175 11184284
0.56809092 -0.091883115 0.024878101 14276300
0.57000005 -0.094556369 0.02132435 14276044
0.55828577 -0.080850482 0.024803963 10788503
0.56288886 -0.085587941 0.0251205 12434096
0.55405891 -0.076770686 0.025606791 12499120
0.45581821 -0.05194724 0.026650427 11050391
0.44558495 -0.043241888 0.025734261 12565686
0.45225 -0.04744605 0.023269551 12038576
0.43696421 -0.033876833 0.026717532 12894651
0.44157141 -0.036396246 0.022719311 11643041
0.43450511 -0.024830947 0.024840623 12828854
0.43357754 -0.014822405 0.024757247 11578787
0.43393543 -0.0051859352 0.024937445 12170668
0.43575996 0.0047364291 0.024962032 11775653
0.43791986 0.013164796 0.026631022 12170665
0.44132003 0.016986998 0.023738787 11052699
0.44563633 0.023825411 0.025142377 11579041
0.4514167 0.028592713 0.021465873 11841188
0.45400003 0.030968904 0.020704534 11578018
0.55625004 0.067002349 0.022847798 10658198
0.5607143 0.068814591 0.027541172 11116955
0.55850005 0.070783675 0.021548435 11645862
0.56538719 0.074654549 0.025637316 10986388
0.57000005 0.07891307 0.026661869 12236710
0.5759812 0.08493983 0.024676945 11709855
0.58190912 0.092947714 0.022141464 10000524
0.56527275 -0.091487549 0.034131631 13881285
0.55739999 -0.08150661 0.035726856 12696242
0.56170738 -0.086449936 0.034385547 12894391
0.55304766 -0.076765545 0.035051394 11709606
0.44800004 -0.050719641 0.035501793 12630963
0.45210004 -0.051926456 0.032045912 11314587
0.43739289 -0.042244125 0.037019502 13091256
0.44275606 -0.045442026 0.03428049 12367535
0.42752942 -0.03236118 0.0384815 12301739
0.43278053 -0.035428874 0.034210056 12236718
0.42605945 -0.024812454 0.03604402 12828855
0.43019044 -0.026429312 0.031247772 12171442
0.42551005 -0.01530123 0.035330236 11907751
0.43000001 -0.0154636 0.030179713 13025719
0.42629668 -0.0055957874 0.035810158 11974317
0.43005261 -0.0042052576 0.030819181 11644837
0.42746007 0.003563653 0.037542894 11118237
0.43100005 0.0054832255 0.032907914 11052700
0.42900002 0.010181929 0.039148204 13486008
0.43432316 0.014942637 0.035002358 11644065
0.43868759 0.021388007 0.037206475 11512994
0.4417111 0.024482489 0.034420904 11381151
0.56666666 0.06916555 0.037119348 8157802
0.567743 0.073210485 0.034534276 11249815
0.57162499 0.07796929 0.035939544 10393993
0.57672095 0.084715314 0.034921117 11709599
0.58000004 0.089802042 0.035955261 11711398
0.56150007 -0.090517357 0.041380234 14735823
0.55605125 -0.083738312 0.045401696 12763065
0.56028569 -0.08788611 0.04307067 14209994
0.54808331 -0.074241094 0.045522884 12368307
0.55140001 -0.077634402 0.04437869 11644069
0.42827272 -0.041514795 0.047920462 11906724
0.43324485 -0.043705594 0.043602351 12433325
0.44000003 -0.04723968 0.040152002 10720653
0.4182857 -0.030640202 0.048660912 10590092
0.42440912 -0.034973137 0.045154899 12367789
0.43028572 -0.038570352 0.041279811 10592410
0.41717252 -0.024383117 0.047376402 12500660
0.4212693 -0.0254506 0.042555358 12434869
0.41689703 -0.015106815 0.046908069 12301995
0.42088112 -0.01494724 0.04197178 12565938
0.41740814 -0.005686285 0.047839198 11578789
0.4216395 -0.0049257791 0.043018978 11842217
0.41822225 0.0012240434 0.049042091 11382181
0.42327085 0.0048911278 0.044682756 11513765
0.42677364 0.012300092 0.045913365 11446685
0.43147174 0.016915318 0.04405782 11512221
0.43636674 0.022212777 0.043888666 10131599
0.44 0.025481705 0.041594069 12631730
0.5655334 0.066914842 0.047632445 11447198
0.56853855 0.071442217 0.045533776 10394255
0.57325643 0.07675498 0.045053657 11315356
0.57658064 0.083309285 0.04451545 11052185
0.55412769 -0.084725402 0.055005241 12893879
0.54693109 -0.075589649 0.055603053 11906728
0.55083334 -0.079127066 0.053165782 13354686
0.42539281 -0.043010313 0.055704217 12236203
0.43000001 -0.046971362 0.055546988 9866887
0.41548684 -0.033773433 0.055846673 12170153
0.42145175 -0.037517324 0.052746914 11908012
0.4084667 -0.024348183 0.058151413 13090996
0.41255936 -0.025175665 0.053679056 12499631
0.40841675 -0.015802106 0.058091018 12432810
0.41203856 -0.014569297 0.053447884 12630702
0.40899998 -0.0075273281 0.059105698 11643554
0.41300014 -0.0049914443 0.05471959 12170666
0.41590095 0.0042203963 0.055652086 10724250
0.4206191 0.0082959207 0.052309003 12566966
0.41866669 0.011243745 0.059440613 10657435
0.42461446 0.014678953 0.055088788 10395027
0.43000004 0.018636253 0.05144494 12104360
0.42899999 0.020425756 0.058028985 10196874
0.43020001 0.021238595 0.053658478 10394257
0.55900002 0.060378004 0.056245808 11710882
0.56487882 0.066789269 0.055231515 10788754
0.56850004 0.071386203 0.055205382 12301223
0.57342851 0.07670895 0.055013187 10591634
0.57600009 0.082215846 0.054810002 11579300
0.54743749 -0.082164615 0.067175373 12171183
0.55133337 -0.084362708 0.063485272 12827827
0.5456 -0.077014208 0.064812824 12104623
0.41511118 -0.041797072 0.066046685 11905957
0.42177781 -0.043696478 0.061526187 12235691
0.40687317 -0.033043887 0.066392519 11118239
0.41260377 -0.03705002 0.063669503 12170413
0.40377706 -0.024965422 0.064755008 12630705
0.40356818 -0.014982443 0.064679317 12301482
0.4056271 -0.0051508783 0.065101504 11974059
0.41000003 -0.0013069194 0.060449984 13488070
0.40792504 0.0021393821 0.066849194 10065549
0.41286412 0.006371479 0.064101741 11513508
0.41751224 0.012462753 0.065822005 10131597
0.42137155 0.016148854 0.064152889 10460563
0.55900002 0.059069376 0.060826011 9275005
0.56020004 0.058933984 0.064760506 10591379
0.56278861 0.064521678 0.064859733 11183514
0.56850004 0.071386203 0.063856028 9143932
0.57311773 0.076352879 0.062321082 11381664
0.57600003 0.081092164 0.061327398 11382435
0.5451622 -0.082780428 0.074996166 12565425
0.53850007 -0.075463861 0.07876499 13749190
0.54257143 -0.077487268 0.074772358 12433326
0.40824002 -0.041651372 0.076127671 11182490
0.41072732 -0.042524137 0.072880976 11839391
0.39719236 -0.031880625 0.077512257 10262672
0.40386817 -0.035974067 0.074518904 11776427
0.39515626 -0.024475494 0.075293146 12236462
0.40023082 -0.028267803 0.07104551 13289663
0.39521357 -0.014961937 0.075068966 12631474
0.40000004 -0.012043726 0.070446581 11315099
0.39696977 -0.0061608083 0.076757617 11645096
0.40101889 -0.0037815026 0.072974116 12171438
0.40504172 0.0035903954 0.075345047 10987421
0.41143334 0.008771237 0.074079864 10131085
0.41550884 0.013161612 0.074581072 10460819
0.42000002 0.016850915 0.070773423 8685179
0.56100005 0.05928072 0.073520094 11974320
0.56105262 0.063088596 0.072973885 10525586
0.53815395 -0.081617795 0.087290272 13618371
0.54288238 -0.083033845 0.082055844 13158076
0.53684616 -0.07678175 0.085911281 11973289
0.54040003 -0.07901971 0.081952892 11775911
0.39650002 -0.041331388 0.089398839 11841450
0.4058868 -0.042902268 0.084212027 11380896
0.41000003 -0.045938428 0.081086054 10195335
0.38824999 -0.031762417 0.088750176 11446945
0.39417693 -0.034484562 0.085175358 11774627
0.40171427 -0.038428895 0.082688689 12498863
0.38681394 -0.024736291 0.087198526 9473156
0.39101923 -0.025471738 0.082223639 12367277
0.38710111 -0.015623504 0.086959161 10657685
0.39095926 -0.01472005 0.082090154 12433583
0.38857895 -0.0086828908 0.088171318 11775394
0.39339992 -0.0049631651 0.084420592 11644322
0.3978065 0.0013624985 0.086827613 10131340
0.40161422 0.0048637968 0.08449661 10132112
0.41333333 0.012231097 0.080616139 10198417
0.53614289 -0.08158873 0.091956735 13814722
0.53250003 -0.07711973 0.093051814 12433327
0.38900003 -0.040853515 0.098788619 12960444
0.39202228 -0.042210169 0.095580004 11775657
0.38603926 -0.034087531 0.095689774 9078914
0.39151853 -0.038030129 0.092516005 12762807
0.37833339 -0.023543553 0.096756957 2239012
0.38138226 -0.026138594 0.092936352 2370084
0.37842309 -0.016913416 0.097276263 2435365
0.38190228 -0.013933749 0.093635842 3157801
0.38660637 -0.0065862956 0.095497109 11907236
0.39150009 -0.0021383672 0.093679212 9472895
0.39538664 0.0027395571 0.094702221 10657941
0.40049997 0.0074750637 0.090614043 10789268
0.39225003 -0.051451221 0.10856652 13025979
0.38732469 -0.043283615 0.10615607 12236462
0.39089194 -0.046841092 0.10400443 11512227
0.37846157 -0.031023035 0.10698059 5197896
0.38332495 -0.035601839 0.10470388 9276548
0.37588498 -0.024781493 0.10511906 2304291
0.38000003 -0.029233279 0.10050616 2370341
0.37655553 -0.015074467 0.10526058 2895656
0.38028574 -0.010814054 0.10197998 3617317
0.37866667 -0.0096284626 0.10901737 10657425
0.38417026 -0.0051500285 0.10495035 9802631
0.38852775 0.0017695063 0.10700417 11579557
0.39106664 0.0041404273 0.10359655 10658455
0.39320001 -0.060808867 0.11854029 10854813
0.3877143 -0.051806387 0.11745276 12565172
0.39251217 -0.055423781 0.11469033 12235692
0.3836861 -0.044864725 0.11492787 11841704
0.37784788 -0.032185126 0.11531761 6052948
0.38078251 -0.036801122 0.11467514 8551539
0.37283227 -0.025075857 0.11491501 2107168
0.37289315 -0.015192199 0.11493375 2698532
0.3781786 -0.0088879969 0.11554746 9210752
0.38226262 -0.0041539511 0.11492177 8882300
0.38699996 0.0030331633 0.1151875 10592147
0.39047366 0.0078736497 0.11429268 11053213
0.39216664 0.011144251 0.11795381 10130826
0.3888889 -0.061376479 0.12844892 12169900
0.39159381 -0.061923731 0.12381894 12893879
0.38572162 -0.054693054 0.12549427 11907241
0.3910625 -0.05846506 0.12173986 10723223
0.37899998 -0.042465027 0.12774627 11775396
0.3809706 -0.0459598 0.12434989 12236203
0.37757388 -0.0348914 0.12526341 6776412
0.38000008 -0.038073547 0.12091105 8551282
0.36878958 -0.023622409 0.1280299 1383445
0.37093762 -0.025647422 0.12392274 1909789
0.36876932 -0.017279087 0.12834802 1908761
0.37092593 -0.01492473 0.12405725 2763555
0.37763891 -0.0079037258 0.12458767 8880756
0.38114998 -0.0034427282 0.12476506 9736838
0.38564217 0.004278834 0.12539639 10328717
0.39027274 0.009013772 0.1231559 12302763
0.38900003 0.01014322 0.12884027 10197643
0.39210296 0.012954275 0.1257631 9736838
0.38729829 -0.062453821 0.13500999 11775399
0.39000002 -0.066522457 0.13967092 8814457
0.37900001 -0.050450243 0.13550967 11183515
0.38247317 -0.055112828 0.13474707 11973289
0.37855762 -0.044793513 0.13482109 10920343
0.38011116 -0.049312931 0.13296464 11315872
0.36618751 -0.030955767 0.13734666 1843739
0.37665355 -0.035747144 0.13428423 7302242
0.38000003 -0.038425673 0.13964799 7040608
0.36550921 -0.024924751 0.13489915 1843740
0.37050003 -0.029369792 0.13051844 2173474
0.36565638 -0.016063591 0.13488518 2303263
0.37176472 -0.011140564 0.13328725 5263171
0.37795559 -0.0060554948 0.13513984 9276801
0.38031256 -0.0019074231 0.13369545 11710885
0.38298419 0.0047343946 0.13485935 10921627
0.38815558 0.01155661 0.13573579 9606025
0.3911429 0.014822049 0.13344489 10198161
0.38811111 -0.062670015 0.14166972 11118494
0.39000002 -0.065609455 0.14195342 9736584
0.38300005 -0.055583078 0.1409073 9802890
0.37900001 -0.045380268 0.1409916 7697771
0.38005272 -0.043191273 0.14200883 8817022
0.36399993 -0.030985074 0.1448483 1054481
0.37766668 -0.03583258 0.1408537 7170913
0.38013342 -0.038498513 0.14183322 7961969
0.36353272 -0.024880441 0.14484949 1120529
0.36336356 -0.015489538 0.14524525 2169621
0.37861541 -0.0066263336 0.14166185 6579806
0.38077268 -0.0031160975 0.14386389 6776671
0.38281256 0.0044687828 0.14329162 9407877
0.3859286 0.011549595 0.14237306 9474185
0.36419997 -0.032154534 0.15598013 2040350
0.36476243 -0.025614625 0.15548024 593929
0.36405766 -0.015607799 0.15518698 1840142
0.36196557 -0.032491677 0.16371565 1580565
0.36251783 -0.024832113 0.16517326 1120529
0.36426687 -0.016446872 0.16489853 1251088
0.34892306 -0.033753768 0.17937373 1778202
0.35518318 -0.032477733 0.1781946 988687
0.36181486 -0.032667849 0.1736781 1383185
0.34825 -0.024054946 0.17948373 1580052
0.35560688 -0.025040684 0.17711432 988688
0.36041278 -0.024901232 0.1722514 1581081
0.34900001 -0.017452778 0.1797276 1580053
0.35555923 -0.016824285 0.177797 856589
0.36089998 -0.017033514 0.17256784 1186067
0.34429014 -0.033548221 0.18483391 1580823
0.34391692 -0.02510071 0.18481106 1514517
0.34331036 -0.01664139 0.18492505 1514261
0.35587502 -0.011950625 0.18075441 1052690
0.35900003 -0.0099688191 0.18151569 3355694
0.36000001 -0.0099965865 0.18286407 921096
0.34000006 -0.03278897 0.19127698 1514517
0.34000006 -0.02496217 0.19140978 1448981
0.34000003 -0.017559871 0.19120273 1448725
