# .PCD v0.7 - Point Cloud Data file format
VERSION 0.7
FIELDS x y z rgb
SIZE 4 4 4 4
TYPE F F F U
COUNT 1 1 1 1
WIDTH 600
HEIGHT 1
VIEWPOINT 0 0 0 1 0 0 0
POINTS 600
DATA ascii
0.79570597 0.19387741 -0.22532009 10065807
0.79866672 0.20093934 -0.22564662 5261888
0.801 0.203715 -0.2250548 5065022
0.79880005 0.20072338 -0.21620893 5328194
0.80000001 0.20065026 -0.21166413 4801852
0.79807407 0.19463456 -0.20513402 9605514
0.80000001 0.19877745 -0.20042725 4933186
0.80080003 0.20160167 -0.20456271 5196355
0.79850006 0.20027405 -0.19351006 5326912
0.80088902 0.20316586 -0.19606806 5458754
0.79900002 0.20226994 -0.18895388 5524290
0.44900003 -0.050308179 -0.050473895 16577516
0.45150006 -0.051821034 -0.05234291 16248809
0.44581088 -0.043754425 -0.05395427 16513262
0.45112506 -0.048699215 -0.054145582 16578287
0.43788895 -0.035093259 -0.051732343 16446954
0.44162503 -0.035465147 -0.055494819 16579568
0.43785006 -0.024561299 -0.05286222 15657440
0.44055 -0.025951689 -0.05612532 16249576
0.43782449 -0.014834207 -0.053085573 15131353
0.4390001 -0.0084531661 -0.052246019 15000024
0.44116127 -0.0040828637 -0.052558031 14737109
0.44751289 0.0045064548 -0.052186787 14276814
0.45014289 0.008877473 -0.053914573 14145484
0.45256418 0.015069861 -0.05266837 13750470
0.45786843 0.024300102 -0.052317474 14013384
0.46000001 0.029224446 -0.052787315 14342350
0.46286672 0.034364767 -0.052103087 14144971
0.46732005 0.044705626 -0.051351663 14671572
0.46900001 0.051023018 -0.050892279 14342605
0.47036362 0.054910053 -0.051273778 13750212
0.46500003 -0.070606649 -0.041386783 16775922
0.45776927 -0.0617585 -0.043634374 16511978
0.4623684 -0.065253593 -0.043942939 16578028
0.4469395 -0.052838776 -0.043876175 16577771
0.45271435 -0.056481998 -0.046008907 16511979
0.43663642 -0.043027621 -0.043976799 16511979
0.44281816 -0.047576156 -0.045576699 16512492
0.42877775 -0.031759307 -0.04128604 16512234
0.43217069 -0.035138123 -0.045296393 16512235
0.42857692 -0.027104236 -0.041464463 15854561
0.4316974 -0.024113853 -0.046050739 15394267
0.4340938 -0.014829253 -0.044878121 14868181
0.43804824 -0.0058917799 -0.044284124 14671058
0.44047821 -0.0020979804 -0.046827622 14473936
0.44504401 0.0047612637 -0.04489468 13947591
0.44876674 0.012332704 -0.043829992 13947590
0.45158505 0.016526297 -0.046060935 14013128
0.45565429 0.024692129 -0.044829331 14210250
0.45876479 0.031547163 -0.042664699 14605007
0.46242851 0.035553716 -0.045936786 14605264
0.46611106 0.044897087 -0.044763114 14736593
0.46880645 0.052336019 -0.043850537 14341835
0.47063267 0.056861941 -0.04584654 14539470
0.47237495 0.062909998 -0.044015493 13420991
0.4744001 -0.083725564 -0.032537594 16512492
0.48100004 -0.089926571 -0.03042452 16776177
0.45850003 -0.072304823 -0.031682968 16511978
0.46585721 -0.075268336 -0.033819314 16314855
0.47250006 -0.077369764 -0.035327595 16511721
0.44803846 -0.062547877 -0.03261666 16380648
0.45307693 -0.065861173 -0.035601228 16511978
0.4605 -0.068306878 -0.039368622 16446184
0.43892863 -0.051161561 -0.03260779 16314599
0.44301459 -0.055553868 -0.035482146 16380392
0.42900002 -0.040367674 -0.031152567 16314855
0.43448144 -0.044640139 -0.035032488 16380391
0.44000003 -0.049299777 -0.03916169 16511721
0.426871 -0.034115575 -0.034194853 16446185
0.43015003 -0.03762316 -0.037530255 16577515
0.42604569 -0.025434872 -0.034808181 15460317
0.42999998 -0.021335652 -0.038942739 14736852
0.42786664 -0.017287007 -0.032273393 14605520
0.43102822 -0.014223122 -0.036177903 14671314
0.43504351 -0.0053826617 -0.034830533 14473936
0.43865222 0.0015268509 -0.033194065 14144971
0.44219702 0.0059537496 -0.035785183 14013385
0.44692853 0.014526173 -0.034828462 13947591
0.45000002 0.018844644 -0.038208175 13881798
0.44891667 0.021339236 -0.031723309 13881797
0.45235533 0.025471603 -0.035346229 14144969
0.4568924 0.034479965 -0.034778826 14539470
0.46033335 0.03804687 -0.037918746 14670800
0.45887506 0.0421784 -0.03077087 14671313
0.46327949 0.045180097 -0.035322219 14670800
0.46711999 0.054541945 -0.034728859 14473677
0.47000003 0.058833759 -0.038897727 14671313
0.46835998 0.0629998 -0.032521591 14342092
0.47029173 0.063090801 -0.03754678 13816005
0.48513642 -0.10308376 -0.022383735 16447212
0.49033335 -0.10276872 -0.026422577 14604238
0.47708336 -0.092732392 -0.022081926 16644077
0.48379496 -0.095538095 -0.026045982 16314856
0.46588004 -0.08282882 -0.023624491 16446441
0.47345832 -0.086952031 -0.025841637 16446441
0.48000002 -0.089739606 -0.029237578 16446441
0.45554721 -0.073888548 -0.024208585 16314855
0.46146667 -0.078351729 -0.026025491 16446441
0.44716117 -0.063701771 -0.024874553 16249062
0.45085001 -0.068828307 -0.025934139 16314855
0.43689126 -0.052913491 -0.024617359 16248805
0.44148275 -0.057309374 -0.025393743 16314855
0.42731434 -0.0427083 -0.023572346 16117476
0.4321731 -0.047046602 -0.025727399 16117476
0.41880003 -0.031042024 -0.02100005 16380648
0.42272723 -0.034923639 -0.02557683 16380648
0.41855562 -0.026755698 -0.021467306 15854561
0.42154875 -0.024604533 -0.025971672 15263194
0.42516482 -0.015494157 -0.024996933 14408141
0.43000001 -0.01093373 -0.02870859 14342348
0.42786667 -0.0073038139 -0.022424109 14473936
0.43132314 -0.0043916688 -0.025966123 14408143
0.43590787 0.0045391107 -0.024967099 14144971
0.44016671 0.0087298229 -0.02921588 14144970
0.4386667 0.012123758 -0.022270739 14013385
0.44235831 0.015946416 -0.025527388 13947591
0.44699988 0.024621708 -0.024663385 14013384
0.45069233 0.028147625 -0.028508196 14210762
0.44891667 0.031848457 -0.022265017 14342092
0.4527162 0.035755966 -0.025592079 14473678
0.45670426 0.04460809 -0.024165127 14539471
0.46066666 0.048559129 -0.027941082 14342348
0.45890912 0.052009009 -0.021409538 14539214
0.46269119 0.055601828 -0.025401967 14539727
0.46456856 0.063229069 -0.025040574 14407886
0.47656757 -0.12392677 -0.012596516 16514033
0.47445118 -0.11503515 -0.013373259 16645876
0.46900004 -0.10264248 -0.011412277 16711667
0.47340822 -0.10539808 -0.015140628 16645876
0.48040003 -0.1033113 -0.019140314 16316397
0.46776316 -0.094026282 -0.013106423 16711410
0.47234491 -0.096240431 -0.016879885 16711410
0.48000002 -0.099852808 -0.019124379 16580080
0.45860004 -0.081122704 -0.01226072 16512491
0.46363932 -0.085496612 -0.015613189 16578540
0.44875005 -0.070896938 -0.012233353 16578027
0.45432261 -0.075241104 -0.015240983 16380648
0.46000001 -0.079539247 -0.019404398 16314855
0.43900001 -0.060492504 -0.010296891 16643820
0.44521955 -0.064893126 -0.015217165 16446185
0.42900002 -0.050075874 -0.010062338 16380648
0.43507573 -0.054315507 -0.01434618 16380648
0.44073334 -0.058737278 -0.016460557 16380648
0.42559206 -0.044274274 -0.014770804 16117476
0.43014291 -0.048770886 -0.017857643 16183269
0.41703033 -0.03346137 -0.014607808 16117989
0.42110011 -0.037818678 -0.016910864 16052196
0.41598028 -0.025024753 -0.014884688 15263194
0.41999999 -0.020839475 -0.019355772 14671313
0.41824999 -0.017895339 -0.012830301 14342350
0.42118415 -0.014235294 -0.016058136 14408141
0.4252688 -0.0055028168 -0.01512916 14408142
0.43000001 -0.00086735259 -0.019145532 14408143
0.42856246 0.0010172866 -0.012185181 14276557
0.43179756 0.0053948662 -0.015138318 14079177
0.43682021 0.014499664 -0.014480828 13881798
0.44009092 0.018968381 -0.018002935 13750212
0.43877783 0.022855073 -0.01137635 13947591
0.44243062 0.02549579 -0.015936784 14013384
0.44669336 0.034103125 -0.014528207 14408141
0.45040002 0.038104795 -0.017945748 14473935
0.44899997 0.041664563 -0.011911033 14473934
0.45255229 0.045438088 -0.015427577 14473678
0.45691437 0.054431498 -0.014664738 14605008
0.46033335 0.058223002 -0.018580638 14670801
0.45892316 0.061634596 -0.012086689 14868179
0.46122205 0.064693682 -0.015462137 14341579
0.46900001 -0.12098718 -0.00038715519 16711667
0.47314543 -0.12430751 -0.0048851902 16645618
0.46800002 -0.11428569 -0.0023243418 16645874
0.47100008 -0.11573654 -0.0070643104 16711411
0.46586436 -0.10488548 -0.0047444589 16711410
0.47000003 -0.10905039 -0.0096486574 16711666
0.45876932 -0.092131987 -0.0014256852 16711409
0.46327782 -0.095623724 -0.0056042131 16711410
0.44900003 -0.08114095 -0.0003706454 16643820
0.45546561 -0.084662825 -0.0042375056 16710383
0.46127272 -0.087810718 -0.0086604608 16711153
0.43900001 -0.071112148 -0.00036239042 16446441
0.44538194 -0.074286319 -0.0039918809 16643820
0.4522 -0.07792788 -0.0074348897 16644077
0.43629998 -0.064040914 -0.0034657947 16578027
0.44173077 -0.067235649 -0.0071828286 16643820
0.42766669 -0.052651502 -0.0036346221 16446441
0.43179169 -0.056892242 -0.0050789234 16578027
0.41772225 -0.041643281 -0.0027386034 16183269
0.42329869 -0.04581625 -0.0054545915 16249062
0.40900001 -0.031145079 -0.00065678451 15986660
0.4136568 -0.035354052 -0.0050297659 16117989
0.40862504 -0.026731601 -0.0011352132 15526366
0.41210282 -0.024448195 -0.0057633244 15066071
0.41596988 -0.015340816 -0.0047510569 14342349
0.42014289 -0.011244933 -0.0088713625 14408143
0.41844448 -0.0078096124 -0.0014341689 14473936
0.4222813 -0.0048398538 -0.0055139977 14473936
0.42616004 0.0037232009 -0.003897154 14210764
0.43043476 0.007763511 -0.0068989741 14013385
0.42866668 0.010508783 -0.00035412051 13947592
0.43280399 0.014968947 -0.0047170725 13947592
0.43634036 0.024948318 -0.0045136586 14013642
0.44000003 0.028983869 -0.0092902975 14342350
0.43900004 0.031178951 -0.0012530696 14276814
0.44321597 0.035478685 -0.0050126845 14342607
0.44753322 0.044668589 -0.0041897777 14474193
0.45057148 0.048516732 -0.0080077304 14539471
0.4489091 0.051926602 -0.0009758299 14671315
0.45331582 0.05558686 -0.0052075167 14671058
0.45691034 0.064533152 -0.0045007677 14539216
0.46000001 0.068350665 -0.0089946715 12631475
0.46100003 0.070297934 -0.0097336983 11513249
0.46493748 -0.12302083 0.0054079746 16645876
0.47000003 -0.12637979 0.0010790572 16777203
0.45900002 -0.11160216 0.0096500209 16711669
0.46329737 -0.11516795 0.0052744658 16645875
0.4584333 -0.10431156 0.0079553043 16646132
0.46168897 -0.10584576 0.003601905 16645875
0.45568576 -0.094694272 0.0053028013 16711154
0.46000001 -0.098922879 0.0015945326 16711666
0.4466334 -0.083822332 0.0073666037 16644077
0.45253339 -0.087501206 0.0041056895 16645104
0.43737996 -0.073155552 0.0057131709 16512234
0.44170368 -0.077756561 0.00418938 16578027
0.42818183 -0.06137155 0.0074502169 16380648
0.4324179 -0.065426052 0.0046165311 16446441
0.41800001 -0.05074897 0.0097665824 16380648
0.42431867 -0.054866973 0.0055172974 16512234
0.43000001 -0.05925234 0.0014905415 16578027
0.40900001 -0.040081523 0.0095562972 15920867
0.41509467 -0.044222102 0.0059501566 16249318
0.42071432 -0.048194878 0.0026536104 16446441
0.40750775 -0.033532094 0.0061998335 16052453
0.41121212 -0.037383251 0.0032758126 16117476
0.40640426 -0.025120348 0.0052489634 15263194
0.41033337 -0.020359578 0.0012620096 14473934
0.40827507 -0.017308688 0.0073873168 14408142
0.41176477 -0.013868663 0.0041169198 14342349
0.41569048 -0.0055443263 0.005987335 14539728
0.42038468 -0.0022857024 0.0019487347 14539729
0.41820008 0.0012458859 0.008203553 14210763
0.4219766 0.0051754103 0.0049030613 14079177
0.42592856 0.014091269 0.0061102784 13947592
0.43037498 0.017457088 0.0020579288 13881799
0.42761543 0.021161754 0.0084488746 13947592
0.43267503 0.025406349 0.004658726 14144971
0.43711659 0.034103986 0.0059284391 14342350
0.44076192 0.037634067 0.0027299032 14473936
0.43900007 0.041892789 0.0088441502 14408143
0.4426488 0.045139827 0.0047889696 14473936
0.44615933 0.054341462 0.0055576181 14539472
0.4508889 0.058436368 0.0022069905 14670802
0.44888893 0.061679065 0.0083863279 14473935
0.4533236 0.06526155 0.0046558869 14539729
0.45454547 0.070764676 0.0065541193 12105388
0.45658067 -0.12308194 0.01610847 16645876
0.4605 -0.12274726 0.011298028 16646132
0.45506424 -0.11472853 0.015316216 16646133
0.46000001 -0.1183065 0.010747913 16711669
0.44825009 -0.10364617 0.018047517 16711412
0.45329416 -0.10594958 0.013703224 16646132
0.44616666 -0.094596207 0.015662484 16711411
0.4508 -0.096840248 0.011271077 16711668
0.43820009 -0.082500771 0.01725262 16644591
0.44303513 -0.085981555 0.014146318 16710641
0.42840004 -0.071066573 0.018632952 16512234
0.43437505 -0.075167269 0.014575027 16578027
0.42529172 -0.064361311 0.015970308 16578027
0.43125007 -0.067798115 0.012050524 16578027
0.41569236 -0.05361836 0.015948053 16380648
0.42154551 -0.057640623 0.013209314 16446441
0.40722451 -0.043120835 0.016784489 16249319
0.41220006 -0.046498612 0.013486116 16380648
0.39900002 -0.030694941 0.019597374 15986660
0.40344447 -0.034954354 0.014957299 16052453
0.39900002 -0.027892742 0.019597374 15789281
0.40194657 -0.024978394 0.014935042 15197658
0.40528804 -0.01515388 0.015265015 14473936
0.41033337 -0.010753599 0.010867987 14473936
0.40804455 -0.006848847 0.017172867 14605522
0.41216949 -0.0040319157 0.01345264 14473936
0.41612938 0.0042119361 0.015801534 14144971
0.42050007 0.0080532394 0.012490342 14079178
0.41827279 0.012420936 0.018852275 14013385
0.42211908 0.01557588 0.014950081 13947592
0.4258391 0.024400709 0.015556669 14013385
0.43053329 0.028025351 0.011402386 14144971
0.42771429 0.031179445 0.018287282 14276557
0.43318298 0.035540681 0.014403309 14276557
0.43685541 0.044870775 0.014833903 14408143
0.44000003 0.048554778 0.010280613 14408143
0.43861535 0.052642219 0.016487071 14408143
0.4415834 0.056335766 0.013758272 14408143
0.44580007 0.064779967 0.015415744 14473936
0.45040002 0.068471313 0.0107343 14211533
0.44583333 0.070767462 0.017545698 11711144
0.44883335 -0.12252747 0.028611755 16711412
0.45317087 -0.1234605 0.023287684 16119275
0.44763151 -0.11407997 0.026171962 16711411
0.45107144 -0.11695512 0.022077423 16711668
0.43900001 -0.10091564 0.029441111 16645873
0.44464943 -0.10507602 0.025099594 16711410
0.43702126 -0.093789153 0.026966872 16645360
0.44187504 -0.096501991 0.023069626 16645873
0.42810002 -0.081339754 0.028541327 16643820
0.43362343 -0.085188009 0.024477325 16710383
0.44000003 -0.089471646 0.020581093 16777203
0.42519999 -0.074376643 0.025771236 16578284
0.43105882 -0.077801809 0.021822922 16644077
0.41606784 -0.063677393 0.026388615 16578027
0.42176485 -0.067093015 0.023121711 16578283
0.40765864 -0.052894633 0.026722752 16446698
0.41232207 -0.056526031 0.023927694 16512491
0.39855558 -0.041338913 0.028489884 16184039
0.40330938 -0.045150619 0.024683515 16183782
0.39719549 -0.034428664 0.026022274 15986660
0.40027276 -0.037267894 0.021916626 16052453
0.39694524 -0.025305266 0.025445813 15263194
0.40000007 -0.021663181 0.021434177 14868693
0.39820004 -0.016808143 0.028079392 14605777
0.40118602 -0.01406356 0.024133075 14539728
0.4048796 -0.0050364551 0.02489399 14408143
0.40804788 0.0031065298 0.026346827 14144971
0.41243112 0.0069477344 0.023398302 14013385
0.41562229 0.01453186 0.025255023 13947592
0.42037505 0.018711852 0.021262042 13947592
0.41830006 0.022365449 0.027839461 14013129
0.42167503 0.026004806 0.024420192 14079178
0.42536899 0.034711171 0.02568225 14408143
0.4305 0.03800508 0.021287505 14408143
0.42777273 0.042018309 0.027972775 14342349
0.43222076 0.045610875 0.02413894 14408142
0.43621591 0.054828119 0.02511812 14408141
0.44 0.059061266 0.021405131 14539215
0.43864295 0.063039228 0.02788822 14473421
0.44130003 0.06598682 0.024148623 14539215
0.441625 0.071263172 0.025947312 12434097
0.44497839 -0.12270765 0.03495717 16316912
0.43812004 -0.11288589 0.038214009 16711668
0.44295597 -0.11546464 0.033718575 16645876
0.43607351 -0.10450011 0.036032062 16645875
0.4412353 -0.10764898 0.031816687 16645873
0.42820001 -0.091683984 0.038773213 16710383
0.43242168 -0.095313288 0.034560092 16710640
0.42525643 -0.084450349 0.03561949 16644076
0.43042859 -0.088965409 0.032655824 16644590
0.41581482 -0.073542178 0.036439281 16512234
0.42162514 -0.076854654 0.033289492 16643820
0.40734625 -0.063597016 0.037276812 16381162
0.41274002 -0.066329628 0.033464335 16446441
0.39842862 -0.050772034 0.038755957 16184039
0.40373194 -0.055134404 0.034900978 16315368
0.41000003 -0.059375871 0.030695643 16578027
0.39639312 -0.044262137 0.035968095 16052453
0.40100002 -0.048100054 0.032092173 16184039
0.39368609 -0.034898207 0.034995008 15855330
0.39338863 -0.02473598 0.034969658 15000277
0.39562503 -0.014722138 0.035206076 14408398
0.40000001 -0.010170911 0.030883376 14539727
0.39766672 -0.0072451555 0.037217014 13948104
0.4013243 -0.0038902587 0.033760682 14276556
0.40495858 0.004880887 0.035047542 13816262
0.40795332 0.01368448 0.036671691 13750468
0.41188881 0.016851041 0.032889977 13947849
0.40900001 0.020239487 0.039238062 12697523
0.41498086 0.024817385 0.035070889 13882056
0.42000002 0.028895453 0.030706896 14276557
0.41742864 0.03266466 0.036832564 13619140
0.42159325 0.036558155 0.033818036 14211277
0.42516473 0.044867203 0.035309892 13882312
0.43000004 0.048793446 0.030850811 14276557
0.42775857 0.051971041 0.037236456 13882825
0.43155882 0.055872984 0.03408704 14079948
0.43642676 0.064528689 0.035259776 14276555
0.44000003 0.068898231 0.031654105 14407628
0.43900004 0.07023181 0.037799791 14407628
0.44044107 0.072289191 0.035127737 13289148
0.43540001 -0.12104575 0.046544362 16580083
0.44178256 -0.12324606 0.042290494 15658981
0.43376729 -0.11480724 0.045280661 16711411
0.44000003 -0.11899969 0.040495351 16777205
0.42757145 -0.10285425 0.047915969 16711153
0.43158063 -0.10568736 0.043922849 16645873
0.41850001 -0.090978034 0.049456179 16643820
0.42515117 -0.094928734 0.04512652 16644590
0.43014288 -0.098544277 0.040834688 16710897
0.41615006 -0.084008098 0.04628136 16643820
0.42155895 -0.086711705 0.042703647 16643820
0.40784013 -0.07289122 0.046437636 16512234
0.4123334 -0.0769215 0.044074308 16578027
0.39900002 -0.060896415 0.049176138 15788511
0.40324989 -0.065005682 0.044879112 16249063
0.39648777 -0.053972267 0.04580681 15854561
0.40051609 -0.057731081 0.042717271 16315368
0.39278316 -0.044896543 0.045070622 15657438
0.38900003 -0.030836301 0.049157862 2566950
0.39115939 -0.034740873 0.044770863 12302510
0.389 -0.027079845 0.049044028 2765103
0.39103612 -0.024613762 0.044434082 11579302
0.39201668 -0.015010205 0.044944458 14210762
0.39533949 -0.005304113 0.045525219 14210762
0.40000001 -0.0011189753 0.040559586 13881797
0.39785299 0.0020754982 0.047068652 13881797
0.40154025 0.0059060305 0.0441586 13618625
0.40514144 0.014758533 0.045060404 13421246
0.40805575 0.022441611 0.046078485 13421246
0.41152725 0.026656225 0.043979689 13421503
0.41544232 0.03465094 0.04498183 13618624
0.41999999 0.039137404 0.040621106 13816258
0.41812506 0.041063748 0.047636352 13816260
0.42183915 0.045627121 0.044519112 13684416
0.42633712 0.054758854 0.045480128 13816259
0.43010002 0.058840107 0.041664746 13618623
0.42866668 0.060684606 0.047981661 14144455
0.43280947 0.065260701 0.044819772 14078917
0.43654293 0.071912058 0.044930246 13947333
0.44000003 0.073790953 0.040667027 14013129
0.42880002 -0.12072225 0.058403086 16513006
0.43014288 -0.12141635 0.055146832 16579312
0.42632258 -0.11415599 0.056442067 16645105
0.43005416 -0.11637361 0.05203281 16711154
0.41833332 -0.10187865 0.058576602 16709871
0.42335716 -0.10541634 0.054639395 16644848
0.41589877 -0.094374016 0.055827249 16380906
0.42115003 -0.097470924 0.05178947 16644591
0.40830311 -0.082071334 0.056490045 15722975
0.41212678 -0.086267002 0.054126762 16183526
0.40483493 -0.07493221 0.055068932 15591646
0.39760658 -0.062741823 0.055736545 15262681
0.40094113 -0.067452513 0.054121606 15459803
0.39403567 -0.054784048 0.054954115 15131096
0.38899997 -0.041232955 0.056443106 14012614
0.39098996 -0.045480672 0.054574724 14868179
0.3883985 -0.034983084 0.055281386 3356722
0.39000005 -0.03764892 0.050539605 3092781
0.38799253 -0.025339773 0.054966431 2698795
0.39000002 -0.020872602 0.050197229 2960681
0.38890323 -0.018992819 0.05513585 7040101
0.39105424 -0.014188224 0.054845996 12237488
0.39334831 -0.0053814636 0.054774079 12369074
0.39725757 0.0037873765 0.054805007 11974572
0.40004167 0.0088703558 0.055430312 11711400
0.40271288 0.014788033 0.054937854 12171693
0.40735972 0.023852013 0.054875374 12631730
0.41043481 0.029292768 0.054999258 13026488
0.41298977 0.034828033 0.054939777 13092537
0.41750005 0.04249784 0.055533469 13224123
0.42074013 0.047455188 0.05440864 13355452
0.42389125 0.054833096 0.0551388 13486781
0.42813647 0.062099673 0.055196024 13749953
0.43051854 0.067200735 0.054589562 13947333
0.43268293 0.072553433 0.055070441 13750212
0.42691186 -0.12173124 0.064785473 15788771
0.42286366 -0.11490761 0.064928643 16249321
0.41744989 -0.10426539 0.065358639 15591391
0.42017654 -0.10881654 0.063048601 16380908
0.41286308 -0.094879724 0.064957798 15131096
0.4076148 -0.084791124 0.065039404 14539472
0.41033337 -0.088882737 0.060819071 16051683
0.40352413 -0.074880123 0.064845875 13816006
0.39789289 -0.062614992 0.062126029 13684164
0.40106937 -0.065909587 0.066258065 12040110
0.39589655 -0.054525957 0.064599693 11250081
0.40000004 -0.058864079 0.068339668 9145218
0.38900003 -0.040853515 0.060085732 9341830
0.39276767 -0.044982933 0.064901002 9934734
0.38667235 -0.034860317 0.064995468 3422772
0.38520664 -0.025123533 0.064905591 2501672
0.38714999 -0.018588807 0.065115087 4672067
0.39382929 -0.013554029 0.062608331 9803404
0.39652723 -0.0053214468 0.062567502 9013632
0.39817396 0.0024008837 0.06182785 8750973
0.39999995 0.0068284795 0.063045353 8816508
0.40196085 0.014733424 0.06252946 8685181
0.40818375 0.025272077 0.063204162 9606025
0.41027272 0.02885974 0.061624955 10855577
0.41279119 0.0355503 0.063775264 10329489
0.41702384 0.042909209 0.063203305 11513505
0.42040911 0.048540987 0.063908368 11776421
0.42298463 0.054474767 0.063505061 12368556
0.42832357 0.062308464 0.063623995 12894900
0.4306207 0.06693574 0.065561615 12894389
0.43204543 0.072872289 0.064344801 13091769
0.42503855 -0.12110204 0.074646123 14736340
0.4227407 -0.11498687 0.075075097 13749444
0.41761538 -0.10410105 0.072685704 13683907
0.42066681 -0.10574167 0.077452242 12170926
0.41525006 -0.094796613 0.074772134 11644839
0.42000002 -0.098678321 0.07962247 10131600
0.40849999 -0.082632773 0.072052673 11316387
0.41285717 -0.086440265 0.075417474 10263700
0.40658078 -0.075251445 0.073289894 9671819
0.40306252 -0.065307409 0.071900934 9408646
0.39871433 -0.052675184 0.071253791 10461333
0.40029415 -0.057695959 0.071421936 10527126
0.39386666 -0.043101657 0.071528718 10263440
0.37891665 -0.032107033 0.079225957 2501155
0.38278088 -0.03522348 0.07472419 3224877
0.37833333 -0.02940003 0.079398833 2435362
0.42500001 -0.12024919 0.080570355 13354944
0.42460003 -0.11391819 0.08200033 11710376
0.42300004 -0.1055219 0.082119428 10328980
0.41900003 -0.091577172 0.080413781 8618878
0.4206154 -0.095339827 0.081860475 8882304
0.41800001 -0.087689064 0.080467083 8618876
0.42000002 -0.08884605 0.081588924 8619131
0.37900001 -0.035189617 0.080899701 2435362
0.38000003 -0.036349975 0.080045663 2237983
0.38262501 -0.034361888 0.10926087 2367770
0.37114996 -0.015605214 0.10811381 3876898
0.37373254 -0.033066396 0.11620116 2106654
0.38172409 -0.032381956 0.11195955 2237983
0.37173522 -0.025050009 0.11622536 726284
0.38394457 -0.0283363 0.11208063 791820
0.37149999 -0.017309615 0.11506304 2104852
0.36899999 -0.030978557 0.12776457 1777684
0.3703838 -0.033279777 0.12505288 1515028
0.36888584 -0.026429126 0.12811171 1514771
0.37073994 -0.024414631 0.12404837 1515800
0.37225807 -0.016807338 0.1251286 1382929
0.35520592 -0.032666966 0.13635708 1514771
0.36637503 -0.030539883 0.13172834 2107165
0.37077266 -0.03369293 0.13227259 2238495
0.35586572 -0.025412094 0.13651553 1251858
0.36451197 -0.024365494 0.13192879 1580822
0.37 -0.020668389 0.13077596 1975581
0.35482657 -0.016799422 0.13720776 1383443
0.3649455 -0.016471304 0.13438167 857101
0.37175611 -0.015965061 0.13177559 1317651
0.34752315 -0.032729074 0.14695609 1581077
0.35127458 -0.033119168 0.1421009 1646870
0.34818918 -0.024891064 0.14676735 1646357
0.35099995 -0.024948437 0.14172399 1581078
0.34801295 -0.016307533 0.14649847 1646100
0.3509092 -0.016913729 0.14187421 1580564
0.34364194 -0.032554872 0.15528814 1712408
0.34200001 -0.029512461 0.15850706 1909788
0.33748844 -0.031878404 0.16717783 2172702
0.34019452 -0.032144018 0.16205122 1910044
0.33716598 -0.025042102 0.16675244 1975580
0.34000006 -0.025200956 0.16291481 1843994
0.33735469 -0.015742077 0.16606595 1646359
0.33999994 -0.017834835 0.1626471 1711895
0.33370584 -0.032587592 0.17388017 2435875
0.33273599 -0.024718586 0.17481735 2304802
0.3326346 -0.015803615 0.17527644 2041117
0.80850005 -0.2287564 0.34916848 2567720
0.81546682 -0.22779579 0.34688923 5394770
0.80690473 -0.22704312 0.35554102 2699049
0.8143335 -0.22350211 0.35481581 2763306
0.81700003 -0.21968572 0.35953411 1118481
0.80599999 -0.2252166 0.36506858 2172705
0.81150007 -0.22105464 0.36091322 2829611
0.80766672 -0.2184359 0.36771521 2370341
0.81445009 -0.21718338 0.3657468 2500903
0.80506688 -0.22495762 0.37501401 1186069
0.80690002 -0.21630681 0.37529999 2172962
0.8146112 -0.21257627 0.3751097 2501158
0.80563337 -0.22511514 0.38470885 791824
0.80692297 -0.21501161 0.38510507 1383449
0.81162506 -0.21063823 0.38352367 1975071
0.81642872 -0.20833461 0.38562697 2763563
0.80538899 -0.22504671 0.39496022 857359
0.80642849 -0.21515583 0.39513358 1120531
0.80883336 -0.20991576 0.39475623 1317399
0.81568187 -0.2069996 0.3947973 2303010
0.82054555 -0.2023025 0.39514658 8619388
0.82067841 -0.18417253 0.39477465 9803662
0.81900012 -0.17314328 0.39236915 10001041
0.82031256 -0.17508751 0.39699963 9869455
0.81900007 -0.16845657 0.39204961 10132627
0.80530012 -0.22502178 0.40528667 857615
0.80686951 -0.21498844 0.40492713 988945
0.81000006 -0.21021855 0.40859985 922895
0.80866671 -0.2098725 0.40319523 1185810
0.81560004 -0.20689169 0.40473866 1645335
0.82050008 -0.2023786 0.40525284 7172712
0.80705887 -0.22567904 0.4137305 857102
0.81025004 -0.22450921 0.41868436 857102
0.8082 -0.21656188 0.4112865 988688
0.81216675 -0.21457827 0.41603193 988688
0.81664294 -0.20743243 0.41386247 1382161
0.82125002 -0.20256186 0.4155969 7566702
0.81329626 -0.22524284 0.42531982 725772
0.81645471 -0.2151909 0.42454156 922895
0.82000005 -0.21137412 0.42852145 988434
0.8221429 -0.20463416 0.42496708 5856341
0.80691302 -0.22584103 0.43697643 791568
0.8123638 -0.22440051 0.43269587 593931
0.80900002 -0.21942843 0.43934444 922642
0.81507152 -0.21698044 0.43506649 988176
0.82022232 -0.21201783 0.43541181 922127
0.80537516 -0.22527567 0.44497487 857103
0.80800003 -0.2191572 0.44163868 922642
0.8145625 -0.21675788 0.4445042 922126
0.82075 -0.21252722 0.44540539 5000775
0.80487508 -0.22596137 0.45323682 922380
0.81414288 -0.22081736 0.45439133 1843739
0.81666666 -0.21895699 0.45179209 856590
0.8232857 -0.21466798 0.45526931 7369578
0.81800002 -0.22186954 0.46338162 8226170
0.82050002 -0.22062683 0.46383801 7962485
