# .PCD v0.7 - Point Cloud Data file format
VERSION 0.7
FIELDS x y z rgb
SIZE 4 4 4 4
TYPE F F F U
COUNT 1 1 1 1
WIDTH 1246
HEIGHT 1
VIEWPOINT 0 0 0 1 0 0 0
POINTS 1246
DATA ascii
0.78800005 -0.051396973 0.05899553 11776423
0.77550006 -0.043927327 0.05926843 13091769
0.78615385 -0.045048915 0.056589227 11776422
0.77542865 -0.037349585 0.059089739 15197144
0.78677779 -0.035148367 0.057265051 11513250
0.78700006 -0.071597934 0.069052592 11183516
0.76700002 -0.060800623 0.069992237 14539468
0.7753334 -0.06358061 0.068331696 11117980
0.78560001 -0.065094732 0.066044442 11512482
0.79340005 -0.065494239 0.062368698 11644837
0.75900006 -0.051282294 0.069262207 13815491
0.76420009 -0.054315738 0.068121418 14210249
0.77383345 -0.055303454 0.06563101 12697011
0.78522229 -0.055303469 0.062257733 11644837
0.79100001 -0.058074929 0.061071876 11842216
0.75750005 -0.044090003 0.067731254 14341834
0.76276928 -0.045356493 0.064382628 14605007
0.77300006 -0.046030533 0.061489053 14210507
0.75750011 -0.035472713 0.067477249 14867920
0.76400006 -0.035140358 0.0638365 15065812
0.77366668 -0.032648891 0.062448006 14210504
0.78500003 -0.030986607 0.060608625 11184284
0.75900006 -0.029960301 0.069262207 14934226
0.76333332 -0.027748978 0.069059901 15131605
0.77300006 -0.026891375 0.067524537 14210505
0.78760004 -0.025557417 0.064679779 10987419
0.78750008 -0.094075061 0.077852853 11315357
0.79309529 -0.095490739 0.073428549 11578529
0.77562505 -0.084409632 0.079175659 10854292
0.78550005 -0.085096151 0.076425493 11117978
0.76560009 -0.072879329 0.078107208 14604491
0.77446163 -0.075479627 0.076107547 12367531
0.78560007 -0.075519845 0.07223855 11117467
0.79166669 -0.07881847 0.07100635 11117981
0.75800002 -0.063440174 0.077253714 14078147
0.76300007 -0.065843798 0.073960945 14473162
0.773 -0.066347823 0.070901692 11841444
0.75620687 -0.054634888 0.075656287 14012355
0.76000005 -0.057576969 0.07113263 14012870
0.75444436 -0.044795956 0.075024486 14209734
0.75469995 -0.035088051 0.075050637 14407369
0.75731587 -0.027465567 0.076572292 14736848
0.76209092 -0.02423998 0.074572556 14934228
0.77300006 -0.021464894 0.074158981 11579814
0.78800005 -0.020036696 0.071908586 10658712
0.76900005 -0.019553578 0.079175964 13420735
0.77300006 -0.018750483 0.078683004 12763062
0.78833342 -0.017583981 0.075630009 10790553
0.77700001 -0.10161068 0.08909449 11051415
0.78641671 -0.10391841 0.086795188 11314846
0.79250008 -0.10668985 0.083183564 11578531
0.76550007 -0.092343591 0.088372029 14605262
0.77438885 -0.094623856 0.084963754 11775396
0.78457147 -0.097094752 0.081827961 11380894
0.75900006 -0.082080729 0.08821509 14276040
0.76231825 -0.085089028 0.085133411 14539211
0.77160007 -0.086093828 0.081610516 12038823
0.75856012 -0.074765749 0.085843489 14144196
0.76155561 -0.075822093 0.08118099 14538698
0.75680006 -0.065308876 0.085006498 13881281
0.75376469 -0.055135444 0.085287668 13683903
0.75230575 -0.044666663 0.085379906 13814977
0.75306666 -0.035013828 0.085466303 13814977
0.75450009 -0.025365103 0.085625678 14276298
0.76000005 -0.021103906 0.080028504 14933972
0.75690913 -0.017472073 0.087110855 14539727
0.76255566 -0.015018772 0.085657753 12960696
0.77200007 -0.011495993 0.087618709 10592147
0.78700006 -0.010799363 0.084714003 10856091
0.77600002 -0.0088317888 0.088979833 10592147
0.78700006 -0.0078524891 0.087288648 10658969
0.78900003 -0.14104477 0.099705793 12039341
0.78808337 -0.13396387 0.098205037 11841704
0.79216665 -0.13542996 0.093302578 11973802
0.77750003 -0.12169763 0.09916085 11315359
0.7860589 -0.12466073 0.096297555 11512738
0.79133344 -0.12602462 0.091971546 11710372
0.77547055 -0.11476111 0.097779475 13486269
0.78588897 -0.11493626 0.092970282 11380638
0.79000002 -0.11718126 0.090585135 11644324
0.76771432 -0.10296513 0.097272091 14473162
0.77333337 -0.10535515 0.094603091 14275784
0.78400004 -0.10802983 0.091269575 11183003
0.76218736 -0.094714969 0.095811918 14341832
0.77166671 -0.09850511 0.090891086 14868433
0.75900006 -0.082870431 0.092953302 14013124
0.76019067 -0.086108007 0.096065477 13947331
0.75880653 -0.074878603 0.09434367 13749952
0.76000005 -0.077681638 0.099243581 13684159
0.75785297 -0.064773388 0.095093392 13552573
0.75521433 -0.055071115 0.094932385 13223608
0.75226682 -0.044666577 0.095065512 13420732
0.75132024 -0.034933612 0.094944447 13420220
0.75150007 -0.025263758 0.094965436 13618112
0.75450003 -0.015040549 0.094954044 14342605
0.76000005 -0.011318451 0.091593131 13026747
0.75750005 -0.008177029 0.097940333 14079947
0.76100004 -0.0077703139 0.09616743 12171951
0.77566671 -0.0076153479 0.091362216 10461332
0.78780001 -0.0038013328 0.094022319 10658968
0.79133338 -0.002213056 0.092897616 10593176
0.78883338 -0.15240304 0.10768672 11973804
0.79234785 -0.1560401 0.1040744 11974318
0.78670841 -0.14462949 0.10577968 11907497
0.79075003 -0.14922546 0.10177693 11973804
0.7768572 -0.13329123 0.10700313 13683392
0.78381258 -0.13644943 0.10328895 11709862
0.7737242 -0.12448336 0.10501243 13947076
0.78150004 -0.12872759 0.10058752 11644326
0.7686429 -0.11375725 0.1075436 14210503
0.77131259 -0.11632875 0.10356195 14473675
0.76637942 -0.10548409 0.10507386 14210503
0.77000004 -0.1097082 0.10090993 14407882
0.76183325 -0.095171951 0.10519055 13947332
0.76103991 -0.085270874 0.10508071 13618366
0.75900006 -0.070827454 0.10435466 13552573
0.76026928 -0.076081008 0.10504282 13486780
0.75857592 -0.064331897 0.10522424 13355194
0.75669998 -0.054671187 0.10536823 13092022
0.75400001 -0.044770282 0.1049928 13092022
0.75140005 -0.034939297 0.10462683 13092023
0.74884611 -0.024031091 0.10730726 13092023
0.75043488 -0.025879832 0.10277496 13223865
0.74839991 -0.015262258 0.10640012 13750211
0.75081253 -0.013925516 0.10180025 14014407
0.7548182 -0.0059333397 0.10598499 14080202
0.76166672 -0.0027255944 0.1051655 13750981
0.77150005 -0.0024609955 0.1029091 10263954
0.76433343 0.00084532186 0.10851616 14014153
0.7766 0.0035219577 0.10722008 11974568
0.78610009 0.0055888765 0.10688021 10921880
0.78850007 0.012254298 0.10887207 10592658
0.78828567 -0.16416094 0.11701363 15197663
0.79063642 -0.16598874 0.11269942 12302771
0.78683883 -0.15465373 0.11523303 14408406
0.778 -0.14207084 0.11652616 13946567
0.78327775 -0.14623834 0.11395298 13881290
0.77451515 -0.13497114 0.11501668 13946308
0.76900005 -0.12036718 0.11518083 14275272
0.7712 -0.1256966 0.1150765 14275272
0.76792008 -0.11480752 0.11501897 14143943
0.76542854 -0.10528399 0.1152212 14012869
0.76205546 -0.09519951 0.11503262 13947332
0.76096654 -0.085262626 0.1148681 13881283
0.759 -0.071635105 0.11497527 13618368
0.76020014 -0.07699088 0.11457405 13683904
0.75869703 -0.064826109 0.11492986 13420733
0.75776011 -0.054746836 0.11527216 13092024
0.75535476 -0.044710502 0.11507745 13025975
0.74872726 -0.032104596 0.1151711 12960182
0.75089473 -0.036488701 0.1148751 12960182
0.74733323 -0.025127403 0.11455805 12960439
0.74672216 -0.014616566 0.11446456 13289660
0.74806672 -0.0071120732 0.11519612 14013383
0.7523334 -0.0029240143 0.11479639 14210763
0.75752634 0.0023011607 0.11569955 13882055
0.76231259 0.0068286993 0.11439644 14277070
0.77340001 0.0078560188 0.11113112 14474961
0.76499999 0.012115297 0.11771369 14342350
0.77373344 0.015106103 0.11576695 14145484
0.78540003 0.01570208 0.11156578 13619396
0.77700007 0.020260366 0.11910634 14013385
0.78727269 0.024636926 0.11640649 13816776
0.79036367 0.026664825 0.11215653 12698808
0.78900003 0.035657614 0.11786857 13422018
0.79078943 0.035332609 0.11366814 12764601
0.78857148 0.044823904 0.11797962 13487810
0.79100007 0.044698108 0.11291918 12567222
0.78836834 0.054554299 0.11788666 13750982
0.79123539 0.055062834 0.11284348 12567223
0.78839999 0.064853735 0.11808576 13750983
0.79206252 0.065271899 0.1128367 12566710
0.78866673 0.07502991 0.11812573 13685191
0.79122221 0.075271614 0.11295051 12632502
0.78878933 0.085003562 0.11707504 13750983
0.79039997 0.085371219 0.11190945 11908779
0.78899986 0.09537933 0.11595994 14079949
0.79000002 0.094344333 0.11162212 11514280
0.78900003 0.10258289 0.11669876 14277072
0.79086375 0.10595835 0.11399462 13356226
0.78871429 -0.17291045 0.12551887 14473171
0.7906875 -0.17755793 0.12409707 12104623
0.78607994 -0.16536865 0.12509817 14736855
0.78310722 -0.15518324 0.12488671 15065820
0.77755564 -0.14385535 0.1249564 13946567
0.78100002 -0.14875704 0.12557042 14605268
0.77388006 -0.13562699 0.12497046 12630448
0.76900005 -0.12036718 0.12508217 14078663
0.77092868 -0.1258927 0.12507312 14078406
0.76816672 -0.11484428 0.12494681 14078406
0.76500005 -0.10561624 0.12492823 14276042
0.76186651 -0.095175929 0.12481365 14210249
0.76087987 -0.085253239 0.1246519 14078663
0.75900006 -0.070827454 0.12079035 13552319
0.76024157 -0.075546294 0.12467098 13947077
0.75899994 -0.063838579 0.12233028 13486781
0.76005572 -0.064896271 0.12708713 13552319
0.75889665 -0.05470635 0.12512398 13354939
0.76000005 -0.058466557 0.1280662 13354940
0.75722855 -0.045088127 0.12506868 13289147
0.74879998 -0.032011997 0.12232278 12894389
0.75280005 -0.035712197 0.12562062 12828596
0.74711424 -0.024996372 0.12489643 12894389
0.75000006 -0.02960504 0.12989265 12762803
0.74552798 -0.014594519 0.12475399 12894646
0.74680763 -0.0054714391 0.1254382 13487039
0.75075006 -0.001953278 0.12255234 14210762
0.7486667 0.00082698138 0.12907724 13881796
0.75583881 0.0044188658 0.12530495 14144968
0.76050007 0.0087032681 0.12236403 13816005
0.75900006 0.010906851 0.12967452 14408395
0.764 0.013399079 0.1254271 14211017
0.7714445 0.017708417 0.12457497 14276556
0.77628571 0.021801695 0.12535606 14144969
0.78460008 0.02726013 0.12458386 13816005
0.7881667 0.035312753 0.1245079 13421248
0.7877931 0.044960711 0.12537181 13289662
0.78662962 0.055089515 0.12498118 13487041
0.78656 0.064703099 0.12517518 13487812
0.78773338 0.07494238 0.1253628 13553606
0.78803855 0.085258715 0.12519853 13421763
0.78897196 0.095376126 0.12463658 13750472
0.78900003 0.10263564 0.122926 14079179
0.79026097 0.10659254 0.12536299 14210765
0.79265696 0.134922 0.12508357 10593176
0.78833336 -0.17322265 0.13468608 14341585
0.79049999 -0.17832497 0.13505626 10854556
0.7853334 -0.16521238 0.13509308 14341839
0.78335512 -0.15526924 0.13531558 14671317
0.77860004 -0.14191969 0.13338883 14209481
0.78173685 -0.14596021 0.13577603 14736852
0.77480662 -0.13432872 0.13454108 12958900
0.76900005 -0.12081724 0.13318326 13947077
0.77109104 -0.12504578 0.13543299 13354427
0.7683751 -0.11472522 0.13472445 13947077
0.77000004 -0.11872112 0.13876419 13947077
0.76517248 -0.10531793 0.1350539 14210249
0.76222199 -0.095218904 0.1346879 14276042
0.76148373 -0.085148163 0.13470118 14013126
0.76099986 -0.075340629 0.13434276 13881540
0.76072723 -0.064999737 0.13482626 13552575
0.75899994 -0.053947538 0.13500503 13223354
0.76000005 -0.058466561 0.13518289 13289147
0.7579394 -0.044760771 0.13529919 13157305
0.75493336 -0.035106711 0.13516712 12762547
0.7480526 -0.023538863 0.13407254 12696753
0.75118184 -0.028054478 0.13665301 12433581
0.74620599 -0.014403081 0.1350949 12565682
0.74526685 -0.0049923295 0.13517855 13092796
0.7462334 0.0039701806 0.13599123 13816519
0.75266671 0.0076848585 0.13230872 14145482
0.74750006 0.010741595 0.13908358 14013642
0.75593746 0.012745752 0.13567089 14013383
0.7631765 0.017275911 0.13458757 13750465
0.76800007 0.02122351 0.13780135 14013381
0.77453846 0.02445602 0.13511766 14144968
0.78225005 0.028867356 0.13295586 14144969
0.78479999 0.035164718 0.13499355 13816005
0.78688896 0.045387253 0.13535887 13421248
0.78643346 0.05548599 0.13528363 13158076
0.78643334 0.064692117 0.13528338 12961467
0.78711134 0.074882522 0.13539766 13487813
0.78733343 0.085040465 0.13543409 13487556
0.7876389 0.095216066 0.13548672 13750729
0.788652 0.10493041 0.13538139 14144973
0.79000002 0.10875428 0.13188849 14408145
0.78900003 0.11477349 0.13757059 10461333
0.79033345 0.11496806 0.13317685 10790042
0.78900003 0.12493235 0.1375706 10592919
0.79055566 0.12517761 0.13321404 10527126
0.78900003 0.13139705 0.13849412 10527126
0.79083347 0.1355608 0.13495737 10592919
0.78844452 -0.1732471 0.14485729 14276047
0.79049999 -0.17832495 0.14523441 10064784
0.78608 -0.16536903 0.14534332 14408145
0.78460008 -0.15495291 0.14506991 14473425
0.78400016 -0.14474168 0.14495994 14341581
0.77694452 -0.13333528 0.14436176 13353658
0.78157145 -0.13775687 0.14660107 14143946
0.7726801 -0.12456502 0.14467636 12695983
0.76888233 -0.11314916 0.14417489 13947077
0.77023089 -0.11750876 0.14601882 13815234
0.7667098 -0.10489954 0.14517878 14144455
0.76468009 -0.094630681 0.144969 14144712
0.76333344 -0.084636256 0.14471266 14013125
0.76185697 -0.07447131 0.14500494 14012869
0.76059371 -0.065190941 0.14508142 13683904
0.75875866 -0.054696869 0.14488447 13091768
0.76000005 -0.058466557 0.14052041 13486526
0.75754547 -0.045220584 0.1449029 12894133
0.7554 -0.035126597 0.14497565 12762803
0.74900001 -0.020798454 0.14111668 12236459
0.75193763 -0.025339739 0.14513689 12170666
0.74803692 -0.014158598 0.14466473 11775652
0.75000006 -0.018719306 0.14709911 12170153
0.7452594 -0.0048016696 0.14516114 12302510
0.74358332 0.0045923581 0.14531618 13290175
0.7458846 0.013810326 0.14636882 13816774
0.75437504 0.017575352 0.14322513 13947590
0.76100004 0.019843163 0.1407053 13816258
0.75637501 0.022381088 0.14736982 13684674
0.76343751 0.025271606 0.14539763 13618623
0.77285719 0.028423492 0.143411 13881795
0.76800001 0.0308131 0.14919117 13618366
0.77511108 0.034327537 0.14505392 13816260
0.78100002 0.037277937 0.14120361 14079176
0.77766675 0.041517805 0.14803348 13947590
0.7835716 0.045658443 0.1447432 13947590
0.78684008 0.055516113 0.14548254 13092284
0.78744006 0.064773805 0.14559498 12829625
0.7864669 0.074818976 0.14541356 12961469
0.78516001 0.08480458 0.14517133 13290434
0.78453332 0.0948404 0.14505397 13750985
0.78703445 0.10540508 0.14475468 14079693
0.78885162 0.1144106 0.14448696 10461077
0.79000002 0.1180013 0.1491496 10461333
0.78899992 0.1246607 0.14207961 10527125
0.79033345 0.12514347 0.14767151 10461589
0.78900003 0.13201274 0.14157255 10592919
0.79034799 0.13556412 0.14484523 10592919
0.79259992 0.14498822 0.14469446 10592919
0.78885704 -0.17320538 0.15482624 14802392
0.79045451 -0.17806245 0.1557399 10196624
0.78683996 -0.1655286 0.15469396 14473684
0.78508812 -0.15483294 0.15499754 14671060
0.78466672 -0.14486377 0.15518506 14012874
0.77840006 -0.13131449 0.15339938 12959413
0.78227288 -0.13626543 0.15546031 13815494
0.77453583 -0.12466969 0.15467143 12629934
0.76900005 -0.11196604 0.15328597 13947077
0.77110535 -0.1162335 0.15568548 12959156
0.7676177 -0.10466728 0.15514219 14144456
0.76573348 -0.094760545 0.15502454 14144456
0.76424998 -0.084737584 0.15472403 14144456
0.76300019 -0.074972197 0.15496922 14013124
0.76133323 -0.064809352 0.15502708 13618366
0.759 -0.053382184 0.15277332 12894645
0.76021439 -0.056068283 0.15619622 13289402
0.75842869 -0.044903871 0.15519592 12631217
0.75686669 -0.035193399 0.15500312 12499631
0.75305891 -0.025325283 0.15510197 12236203
0.74799985 -0.013647936 0.15508741 11841444
0.75000006 -0.018819636 0.15472415 11907238
0.74625003 -0.0051886016 0.15488704 11906980
0.74361289 0.0047300369 0.15506835 12697012
0.7427839 0.015140613 0.15542793 13619140
0.74590003 0.023469077 0.15598324 13553603
0.75464284 0.026494617 0.15327987 13553601
0.7615 0.028769627 0.15060076 13553086
0.75775003 0.030846067 0.15784171 13356222
0.76492852 0.032995943 0.15447465 13552829
0.77246153 0.036974303 0.15367149 13618366
0.77600008 0.043730028 0.15512709 13881539
0.78128576 0.049374651 0.15385821 13815749
0.78489649 0.055255573 0.15506764 13092283
0.78672004 0.06471505 0.15466833 13026490
0.7854721 0.074723899 0.15534118 12829368
0.78300023 0.085355796 0.15498322 13224127
0.78245175 0.095327102 0.15459737 13684936
0.78581494 0.1049128 0.15489949 14079695
0.78900003 0.11138722 0.154502 11250081
0.79100001 0.11613858 0.15570714 10461077
0.78900003 -0.17226012 0.1645377 14670803
0.79081255 -0.17723937 0.16496231 10723223
0.78760624 -0.16518639 0.16506894 14670805
0.78568953 -0.15494676 0.16512208 14868183
0.78483993 -0.14489506 0.16532333 14276046
0.77900004 -0.13105069 0.16591726 13748417
0.78208351 -0.13546389 0.16497067 13749445
0.77633339 -0.12535664 0.16494572 12761521
0.76900005 -0.11136595 0.16678779 11972261
0.77172005 -0.11559343 0.16465609 12432811
0.76687515 -0.1050023 0.16479132 14276042
0.76532006 -0.094709598 0.16479513 14341835
0.76415151 -0.084643751 0.16503166 14275529
0.76539999 -0.075007364 0.16481404 14078150
0.76440632 -0.064848945 0.16493601 13880514
0.76086658 -0.054972779 0.16472706 13420220
0.75870377 -0.044553701 0.16534384 13091254
0.76000005 -0.049570683 0.16276009 13288890
0.75696295 -0.035001166 0.16516063 12630960
0.75273532 -0.025522176 0.16498597 12302251
0.74767637 -0.014380569 0.16537134 11709602
0.75000006 -0.01907046 0.16149639 11972517
0.74653333 -0.0050023771 0.16511837 11709345
0.74460012 0.004471811 0.1648152 11840933
0.74164701 0.015200162 0.16551745 13026490
0.74374294 0.025169007 0.16516995 13487553
0.74728572 0.031981248 0.16690759 13487296
0.7546429 0.033435397 0.16425975 13487295
0.76336378 0.037615873 0.16453527 13421500
0.77050006 0.039030887 0.16230428 13158072
0.77551997 0.04484722 0.16510309 13553086
0.78000003 0.049554493 0.16339126 13684418
0.78388464 0.055452064 0.16490994 13421503
0.78528124 0.064940505 0.16472621 13355455
0.78314292 0.074828982 0.16476835 12763575
0.78130555 0.085303105 0.16549279 12895161
0.78219235 0.095334277 0.16497818 13422020
0.78646433 0.10540032 0.16507451 14013902
0.78891677 0.11260685 0.16695173 11053473
0.7910589 0.11638216 0.16423625 10461333
0.78900003 -0.17152131 0.17543539 14342096
0.79104543 -0.17634535 0.17462805 11775912
0.78751999 -0.16567189 0.17510593 14539219
0.78509676 -0.15490472 0.17474422 15065562
0.78346694 -0.14464219 0.17512053 14802390
0.78257149 -0.13551293 0.1752499 14210252
0.77786678 -0.12418516 0.17356852 12696241
0.78140008 -0.12779613 0.17740498 13551808
0.77384621 -0.11527649 0.17506494 12300969
0.76717651 -0.1040251 0.17248571 13880771
0.77118182 -0.1057749 0.17721897 13156791
0.76655567 -0.09453059 0.17450172 14276042
0.77000004 -0.098892696 0.17842104 14341835
0.76406062 -0.084799059 0.17476742 14143943
0.76316124 -0.07467398 0.17435335 14078150
0.76222491 -0.0650644 0.17509629 13946307
0.759 -0.052574538 0.17667982 13485756
0.76031584 -0.05624298 0.1743025 13486013
0.75841665 -0.045030408 0.17484939 13222584
0.75699997 -0.035389263 0.17483945 12894132
0.75325006 -0.025111061 0.17487119 12565167
0.74792588 -0.014156986 0.17473277 12170666
0.75000006 -0.01907046 0.17642038 12170153
0.7458967 -0.0048782765 0.17530379 12368045
0.74422234 0.0045939959 0.17506061 12499632
0.73899996 0.018168597 0.17674245 12500146
0.74120831 0.013540293 0.17449628 12499889
0.73899996 0.022729535 0.1781579 12566194
0.74182141 0.026355013 0.17412236 13355967
0.74542105 0.033675872 0.17575485 13355967
0.75372732 0.037782159 0.17464615 13421503
0.76050007 0.039413914 0.17176829 13487293
0.75833338 0.041669171 0.17867596 13421503
0.76433331 0.043342795 0.17650752 13553087
0.77459997 0.046947893 0.17431352 13750464
0.77716666 0.051800564 0.17795603 13882051
0.78353846 0.055779781 0.17464164 13553088
0.78539282 0.064867161 0.17463318 13356224
0.78341401 0.075001977 0.17457454 13092796
0.78228581 0.08508303 0.17558026 13027260
0.78303254 0.095339909 0.17540941 13290434
0.78615999 0.10516119 0.17480306 13882573
0.78854156 0.11455434 0.17548721 10658713
0.79000002 0.11861777 0.17103422 10527381
0.78900003 0.12031468 0.17728244 10461331
0.79106688 0.12526083 0.17496623 10461588
0.78900003 -0.17152131 0.1846707 14407634
0.79133338 -0.17573594 0.18521683 11841450
0.78710008 -0.1655829 0.18514779 14539219
0.78519988 -0.1552034 0.1848326 14736597
0.78448004 -0.14482757 0.18545158 14736597
0.78503442 -0.13498004 0.1857093 14539217
0.78473091 -0.12487862 0.18537253 13354685
0.77785718 -0.1142111 0.18180279 12301224
0.78440005 -0.11592346 0.18714756 12367017
0.77489471 -0.10420139 0.18423676 12367019
0.78075004 -0.10804258 0.18822297 12169639
0.76828575 -0.091992602 0.18444858 14341321
0.77216655 -0.096762836 0.18545283 14078149
0.76512909 -0.08469373 0.18463275 14209479
0.76234478 -0.07483387 0.18483418 14012100
0.76046669 -0.064735033 0.18511356 13814721
0.759 -0.054125231 0.18226875 13617342
0.76000017 -0.05538265 0.18666029 13617342
0.75885195 -0.044627603 0.18439168 13222584
0.76000005 -0.048977625 0.18796504 13551549
0.75746661 -0.035220906 0.18527001 12959412
0.754143 -0.02543655 0.18488413 12959155
0.74775988 -0.013063854 0.18475111 11972517
0.75036371 -0.018281631 0.18504955 12235945
0.74535722 -0.0049334685 0.18510994 12499374
0.73900002 0.0088894377 0.18853797 12894389
0.74280006 0.0044605932 0.1850327 12631217
0.73865229 0.016252132 0.18574157 12763060
0.74063641 0.011903285 0.182965 12433840
0.738276 0.024376977 0.18584809 12697523
0.74085718 0.029228805 0.18306425 12895415
0.74432266 0.035151802 0.18500151 13224380
0.74788892 0.04148449 0.18652481 13421246
0.75480783 0.04557858 0.1852916 13552831
0.76340008 0.047786329 0.18189259 13552831
0.77200001 0.049046241 0.18069173 13552832
0.75800008 0.05229729 0.18924411 13552576
0.76371431 0.053629451 0.18666539 13618366
0.77421051 0.055294402 0.18358833 13750209
0.78100002 0.057846706 0.18096992 13684417
0.77628571 0.061261054 0.1871437 13947587
0.78407699 0.065206334 0.184361 13421759
0.78559971 0.074606337 0.18492708 13027260
0.78468001 0.08475209 0.18549763 13224639
0.78326696 0.09468735 0.18516287 13224641
0.78609997 0.10515339 0.18491282 13816778
0.78854543 0.11395334 0.18439661 10921884
0.79000002 0.11815542 0.18721649 10461331
0.7912001 0.12435703 0.18518713 10395795
0.78900003 -0.17152131 0.19482954 14407635
0.79125011 -0.17560171 0.19480574 12367793
0.78786212 -0.16497973 0.19559863 14736854
0.78596157 -0.15451452 0.19485869 14933976
0.78604013 -0.1451153 0.19501992 14605268
0.78676671 -0.13511904 0.19519989 14539474
0.78752017 -0.12510896 0.19538714 14210251
0.78736681 -0.11494926 0.19534926 12696240
0.778 -0.10219737 0.1925692 11972260
0.78293329 -0.10568946 0.1958359 12301226
0.77407688 -0.095867231 0.19511861 13024692
0.76758337 -0.083834767 0.19433402 14077893
0.77037501 -0.088796638 0.19631781 14341065
0.76555997 -0.075026423 0.1953166 13880514
0.76233327 -0.064895324 0.19449359 13814721
0.76110333 -0.054865707 0.19491586 13683135
0.75900012 -0.041636627 0.19186366 13156791
0.76037937 -0.045974918 0.19552761 13288377
0.75796014 -0.035244782 0.19515012 12959412
0.75423527 -0.025363741 0.19507375 12827826
0.74717242 -0.013633997 0.19502519 11775138
0.75033337 -0.018786309 0.1949421 12498861
0.74358058 -0.0049851229 0.19492577 12038567
0.73712915 0.0055797654 0.19562688 13157561
0.74077785 0.0017808622 0.19245909 13289147
0.73514628 0.01476009 0.19455749 13091769
0.73542118 0.02538777 0.19505005 13092282
0.73880005 0.031371105 0.19540419 13092282
0.74291998 0.035724398 0.19503187 13092282
0.74723327 0.044036087 0.19530247 13552832
0.7507143 0.049200546 0.193783 13684418
0.75561535 0.05454332 0.19529036 13816260
0.76316667 0.058611125 0.19201797 13750208
0.76385719 0.06155869 0.19691768 13816003
0.77462506 0.06553825 0.19524352 13618624
0.78214294 0.069047518 0.19378828 13420988
0.78614819 0.075372115 0.19511306 13289661
0.78600001 0.084894761 0.19500998 13093053
0.78476673 0.094868325 0.19470398 13356226
0.78696001 0.10526811 0.1952475 13750986
0.78870583 0.11299367 0.1950282 11250851
0.79000002 0.11769307 0.19507647 10395797
0.79158068 0.12459527 0.19561478 10395797
0.78900003 -0.17152131 0.20498839 14407378
0.79154551 -0.17670988 0.20514351 11906987
0.78793752 -0.1646065 0.2050575 14670805
0.78626657 -0.1543622 0.20519827 15131868
0.78683341 -0.14526163 0.20534661 15000026
0.78736132 -0.13522097 0.20548368 14671317
0.7879616 -0.12532148 0.2049312 14539474
0.78775007 -0.11477412 0.20500889 13749186
0.77900004 -0.10004859 0.20056666 12563627
0.78469241 -0.10481241 0.20542447 12695470
0.77518183 -0.093623832 0.20478202 12695984
0.78050005 -0.098414063 0.20734851 12761006
0.76792866 -0.082320116 0.20490672 14012870
0.7713846 -0.087125577 0.20499764 14078406
0.76642877 -0.075110197 0.2050833 14012614
0.76528585 -0.065018617 0.20497155 14012100
0.76212001 -0.055207081 0.20485604 13551549
0.75900006 -0.041065507 0.20829937 12893619
0.76045167 -0.045524202 0.20503619 13222584
0.7584334 -0.03526609 0.2050359 12959412
0.74900001 -0.020798454 0.20862347 12827826
0.75393945 -0.025383689 0.20486161 12893619
0.7464723 -0.014616841 0.20529702 12301225
0.75000006 -0.01907046 0.20012319 12564654
0.73900002 -0.0014906361 0.20583811 11511196
0.74254173 -0.0057022483 0.20472293 11577246
0.73497295 0.004463356 0.20513177 12301737
0.73197246 0.01480103 0.20473601 12696751
0.73252797 0.025106171 0.20488994 13223867
0.73668748 0.03268455 0.20605108 13421246
0.74217653 0.036831211 0.2045745 13487039
0.74600005 0.044778731 0.20516533 13750211
0.74752635 0.054399371 0.20775044 13881797
0.75290471 0.055978168 0.20324227 13947333
0.74800003 0.061530139 0.20921931 13750981
0.75633335 0.063043423 0.20664777 13816260
0.76371425 0.065125518 0.20416331 13750210
0.77337509 0.067920268 0.20205842 13552832
0.76650006 0.070229508 0.20900893 13355707
0.77590907 0.072579436 0.20686649 13421502
0.78478277 0.076541059 0.20436764 13421503
0.78626668 0.084924713 0.20519739 13290174
0.78594422 0.095009699 0.20511414 13290432
0.78666663 0.10522817 0.20530179 13882569
0.78864992 0.11380045 0.20489709 11053729
0.79000002 0.11861776 0.20524819 10264211
0.79118526 0.12476549 0.20535171 10264211
0.79175866 0.13498811 0.20506793 10330004
0.78900003 -0.17152131 0.21514724 14407631
0.79135001 -0.17666633 0.21486211 11973033
0.78790927 -0.16519403 0.21515684 14473681
0.78580767 -0.15448442 0.2151251 14868440
0.78588015 -0.14508593 0.21521448 14933976
0.78599995 -0.1349882 0.21524724 14868183
0.78655165 -0.12482824 0.21463509 14736597
0.78655893 -0.11504682 0.21474953 14473422
0.78478575 -0.10427234 0.21550386 13354170
0.77550006 -0.093001872 0.21509518 12564141
0.78157145 -0.098288313 0.2145578 12827313
0.76709998 -0.082719311 0.21492048 13485758
0.7715556 -0.087453201 0.21450333 12761777
0.76550001 -0.074890532 0.21481612 14144200
0.76424325 -0.065178521 0.21537842 13881028
0.76133329 -0.055006575 0.2147308 13683648
0.75879991 -0.043364566 0.21526062 12893619
0.76009101 -0.048606157 0.21413861 13222584
0.75616145 -0.035049461 0.215238 12696240
0.74799997 -0.023204306 0.21593243 12630447
0.75199997 -0.027338954 0.21347792 12762033
0.74581259 -0.014383856 0.21504606 12498861
0.73850006 -0.0014896276 0.21520804 11774625
0.74247825 -0.0059597343 0.2148173 11906468
0.73394287 0.0046007936 0.21517897 11643809
0.73133361 0.014787879 0.21483105 12104873
0.72887504 0.02732343 0.21794777 12631473
0.73068959 0.024538871 0.21378517 12828852
0.72900003 0.030954976 0.21841215 13092281
0.73291904 0.035484407 0.21480221 13487552
0.7352609 0.044541422 0.21706283 13684673
0.74250001 0.045175061 0.21245928 13750724
0.73650002 0.053368557 0.21828541 13684674
0.74331045 0.055444721 0.2139336 13685188
0.745 0.064492755 0.21549107 13685188
0.75428569 0.067599431 0.21135353 13553857
0.76100004 0.069725581 0.21018438 13421500
0.74700004 0.070541799 0.21785653 13553602
0.75437504 0.072427303 0.21629094 13422015
0.76450008 0.074074864 0.21383299 13356221
0.77425003 0.077133529 0.2133857 13619136
0.78200006 0.078972377 0.21049243 13750465
0.77714288 0.08355166 0.21736906 13487806
0.78271431 0.085762776 0.21390927 13356220
0.77900004 0.091434985 0.2188032 13355453
0.78290629 0.095157743 0.21491186 13290430
0.78481477 0.10477738 0.21533023 13685448
0.78840905 0.11351425 0.21465001 11185058
0.79033333 0.11835959 0.21520336 10330004
0.78900003 -0.17152131 0.22253549 14013387
0.79133332 -0.17529504 0.22500189 12762807
0.78813791 -0.16503768 0.22512379 14276559
0.78543735 -0.15454458 0.22526532 14868696
0.7845667 -0.14484458 0.22495714 15000281
0.78483325 -0.1347874 0.22503421 14933974
0.78503323 -0.12471442 0.22509213 14670802
0.78523523 -0.11490711 0.22493324 14473423
0.77900004 -0.10004859 0.22700964 13551551
0.78288907 -0.10510002 0.22498487 13947079
0.7756539 -0.094247535 0.22491752 12630191
0.78000003 -0.098351024 0.22091007 12893619
0.76740003 -0.082391933 0.22273263 12300972
0.77140003 -0.085830614 0.22630134 12169641
0.76540732 -0.074945562 0.22467627 14012357
0.7612645 -0.064593762 0.22514226 13946820
0.76026672 -0.054928329 0.22510931 13683905
0.75824261 -0.044617802 0.22475208 12959925
0.76000005 -0.049570683 0.2223624 13288890
0.74883336 -0.031604256 0.22610736 11972771
0.75300008 -0.035722274 0.22475336 12104358
0.74719429 -0.025123157 0.22473699 11972771
0.74540019 -0.014668429 0.22462048 11972771
0.73900002 -0.0014906361 0.22313821 11709602
0.74238461 -0.0055118594 0.22529612 11841186
0.73454547 0.0046592657 0.22512646 11643552
0.7310279 0.014781081 0.22500879 11841187
0.72844124 0.025412157 0.22491401 12302506
0.73000002 0.020743778 0.22212964 12104873
0.72815627 0.034329351 0.22582735 13026742
0.73044443 0.037856504 0.22207423 13421500
0.72900003 0.042047888 0.22865176 13421500
0.73102963 0.045789905 0.22475642 13618879
0.73306072 0.055311963 0.22508392 13618880
0.73675001 0.063194945 0.22633743 13487553
0.74205267 0.066985749 0.22378345 13553602
0.74522233 0.074226394 0.2256587 13487809
0.755 0.077816531 0.22305322 13356223
0.76000005 0.07852982 0.22058322 13422016
0.74800003 0.080792032 0.2293579 13224637
0.75866669 0.08194416 0.22670817 13224637
0.76487505 0.083062731 0.22512458 13356223
0.77399999 0.086882196 0.2240386 13356223
0.77790487 0.093649566 0.22525774 13224638
0.78100008 0.098298043 0.22416374 13421763
0.7840001 0.10494222 0.2249644 13619400
0.78839999 0.11284134 0.22513504 11250853
0.79099995 0.11784321 0.22495212 10198419
0.78900003 -0.17152131 0.23823553 14408145
0.79150003 -0.1751252 0.2348208 12763320
0.7877 -0.16570911 0.23507544 14342352
0.7852999 -0.15509197 0.23527971 14802903
0.78456008 -0.14484358 0.23505905 14934488
0.78410733 -0.1349919 0.23472567 14868696
0.78348166 -0.12487545 0.23493694 14605524
0.78392005 -0.1153621 0.23486394 14210509
0.78253347 -0.10508548 0.2344521 14012872
0.77745461 -0.093565322 0.23243394 12564655
0.78154558 -0.095219091 0.23731627 13025462
0.77536845 -0.084585361 0.23469616 12103590
0.78100008 -0.088725984 0.23886795 11840929
0.76785713 -0.072682008 0.23365043 13880258
0.77200007 -0.076899938 0.23592834 12235177
0.762793 -0.064906359 0.23494279 14143943
0.76028007 -0.054929279 0.23490386 13814977
0.75822878 -0.044893906 0.23503077 13025718
0.75358343 -0.035118047 0.23511468 12367788
0.74738705 -0.024481623 0.23492701 11643550
0.75000006 -0.02960504 0.23699421 11907494
0.74514306 -0.014712792 0.23471175 11314841
0.73900002 -0.0014906361 0.23870833 11249048
0.7426154 -0.0049121231 0.23486072 11314841
0.73497146 0.0044568535 0.23494524 11314841
0.73088908 0.014778111 0.23523307 11578270
0.72755265 0.024927866 0.23500834 11776163
0.72513527 0.035149969 0.2349135 12763315
0.72721881 0.044288244 0.2354831 13355707
0.73033333 0.04886914 0.23324895 13553087
0.73156679 0.055042464 0.2354499 13552831
0.73492098 0.064760529 0.23480548 13552575
0.7380833 0.072234556 0.23610593 13552575
0.74205261 0.076221056 0.23384087 13552575
0.74606258 0.082112774 0.23531018 13421246
0.75454545 0.086480074 0.23553681 13421503
0.76133341 0.088768303 0.2340401 13290430
0.75900006 0.090864323 0.23983815 12369330
0.76500005 0.092094637 0.23712127 12829624
0.77433342 0.095345996 0.23425306 13356225
0.78100002 0.098983079 0.23033494 13422018
0.7768572 0.10105622 0.23768392 13422020
0.78304011 0.10533323 0.23445326 13685192
0.78823537 0.11270929 0.23496474 11448230
0.79049999 0.11776815 0.23498638 10198160
0.78900003 -0.17152131 0.24470025 14210253
0.79094118 -0.17553911 0.24502961 12828601
0.78625935 -0.16520274 0.24517792 14802134
0.78425014 -0.15488464 0.24506105 15263453
0.78453338 -0.14483829 0.24515037 15329246
0.78356689 -0.13548905 0.24484961 15329245
0.78280586 -0.12527774 0.24461184 15066330
0.78300029 -0.11522644 0.24467245 14802902
0.78302819 -0.10514842 0.24468119 14473681
0.78364307 -0.09533722 0.24520305 13946823
0.778 -0.082617685 0.24220054 12630188
0.78219998 -0.086545967 0.24588859 12762032
0.77433342 -0.07498537 0.24528858 12301482
0.76565218 -0.063894764 0.24490134 13880513
0.77066666 -0.068307854 0.24713379 13419962
0.76093322 -0.054977436 0.24490286 13880770
0.75883323 -0.044017881 0.24496722 13025205
0.76000011 -0.049316518 0.2452375 13551805
0.75575006 -0.035144705 0.24500291 12499117
0.74754542 -0.023782659 0.24457069 11841185
0.75090003 -0.02893826 0.24589238 12235944
0.74561787 -0.014391979 0.24495354 11380634
0.73900002 -0.0014906361 0.24303336 10985876
0.74288005 -0.0056069493 0.24489909 11117462
0.7347647 0.0044799293 0.24477558 10919827
0.73121232 0.015018751 0.24521892 10919828
0.72753578 0.025535379 0.24479786 11446943
0.73000002 0.021085566 0.24742201 11117206
0.72347218 0.034951705 0.24470131 12500143
0.72497052 0.045116067 0.24465808 12960949
0.72900003 0.052003067 0.24514893 13355452
0.73074996 0.056091748 0.2451102 13289661
0.73360616 0.064566739 0.2445647 13224124
0.73774999 0.072130166 0.24283825 13289404
0.74318755 0.076469399 0.24528247 12105387
0.74670011 0.082402468 0.24276896 12565682
0.75408345 0.086457908 0.24578317 12171181
0.75900006 0.090864323 0.24339181 13158334
0.76336366 0.093502566 0.24560046 13158590
0.77230006 0.098604992 0.24494258 13027262
0.77625006 0.10277418 0.24453032 13027262
0.78345454 0.10763244 0.24523011 13685192
0.78806257 0.11290915 0.24498561 11250851
0.79033333 0.1177431 0.24511455 10198161
0.78887504 -0.17218676 0.25551078 13354174
0.79107696 -0.17624786 0.25467476 11972521
0.78565532 -0.16534542 0.25523445 14538961
0.78254575 -0.1546856 0.25527123 14605524
0.78276676 -0.14481683 0.25540978 14737110
0.78253353 -0.13530943 0.25551617 14802903
0.78238899 -0.12520991 0.25546849 14802903
0.78285736 -0.1154014 0.25529584 14605524
0.78313363 -0.10516205 0.25479767 14342352
0.78436011 -0.095227353 0.25519714 14013387
0.7831111 -0.085575856 0.25512972 12762548
0.77471882 -0.074740499 0.25494671 11841189
0.76555997 -0.063775122 0.25488675 12696497
0.77000004 -0.068248771 0.25412956 11972518
0.76155996 -0.055022884 0.25491124 13617855
0.75899994 -0.042287078 0.25416386 12762032
0.76016682 -0.047209192 0.25553119 13485754
0.7561481 -0.035163313 0.25486752 12564909
0.74819046 -0.023029152 0.25443891 12104357
0.75138468 -0.02817351 0.25583267 12367529
0.74620593 -0.014609778 0.25501025 11775649
0.74313807 -0.0051026973 0.25498161 11446686
0.73571426 0.0045602322 0.25501657 11577502
0.7317577 0.014562217 0.25474575 10985878
0.72821057 0.026522925 0.25415495 11381150
0.7304545 0.022310279 0.25522414 11183771
0.72575003 0.03478032 0.25404122 11842213
0.73000002 0.034984972 0.25915673 11776163
0.72744453 0.043756977 0.25238478 13026742
0.73153329 0.046360943 0.25605017 12894901
0.73400009 0.054365102 0.25415775 12434095
0.74200004 0.05872054 0.25820732 10262671
0.73600006 0.061837025 0.25195456 11315616
0.74372733 0.065770261 0.25543258 10460564
0.75000006 0.066961959 0.25981915 11776425
0.74600005 0.072718002 0.25261366 10132369
0.75283337 0.077205211 0.25463328 11908779
0.75700003 0.083832808 0.25249806 12434611
0.76240003 0.086097941 0.2557281 12631990
0.76725 0.091851979 0.25412089 12829369
0.77280003 0.096620053 0.2552956 13224642
0.77681822 0.10209165 0.25456148 13421766
0.78333336 0.10707555 0.25562504 13684938
0.78800005 0.11278486 0.25453609 11250852
0.7913 0.11788756 0.25560275 10132625
0.78860003 -0.17291202 0.26543772 13552324
0.7914167 -0.17776109 0.26474956 10657176
0.7844075 -0.16495064 0.26514012 13618629
0.78196144 -0.15548779 0.2651878 13947594
0.77900004 -0.1428031 0.26885235 14013385
0.78135717 -0.14562385 0.26434284 14144972
0.77845013 -0.13423887 0.26684898 14013386
0.78060007 -0.13570622 0.26237884 14342352
0.77822226 -0.12498111 0.26608509 14210765
0.78025007 -0.12395379 0.26162213 14473938
0.77850008 -0.11752474 0.26809689 14276558
0.78156519 -0.11421824 0.26438835 14408145
0.78331447 -0.10531494 0.2648108 14210766
0.78499991 -0.095306084 0.26459318 14013386
0.78339285 -0.085683838 0.26496637 13420992
0.77603585 -0.075149305 0.26462141 12038568
0.76800001 -0.06357792 0.26156002 11840933
0.77225006 -0.065058991 0.26617402 11643810
0.76577783 -0.054632172 0.26429185 13617855
0.7713334 -0.058736783 0.2684136 12236461
0.759 -0.041509714 0.26471382 13222582
0.76104766 -0.047011055 0.26474983 13354937
0.75648284 -0.035299849 0.2648735 12301993
0.74822211 -0.02252976 0.26533285 11973285
0.75147074 -0.028009646 0.26498476 12104871
0.74571443 -0.014675619 0.26486698 11775907
0.73900002 -0.0014906361 0.26811853 11710113
0.74232137 -0.0052250731 0.26472968 11776164
0.7367577 0.0043106023 0.26511079 11775907
0.73411107 0.014557455 0.26425016 11709859
0.73311114 0.024645314 0.26283997 10855061
0.74080008 0.026254287 0.26877159 10460048
0.733643 0.035691019 0.26298863 11315356
0.74220008 0.034994233 0.26927954 9670276
0.73583335 0.043881167 0.26208901 10328720
0.74363637 0.045191195 0.26711106 9867398
0.7450909 0.054157127 0.26335388 10328463
0.75300008 0.057245359 0.26732352 10789527
0.74750006 0.062365726 0.26070297 10592150
0.75550002 0.063030817 0.2652629 11118493
0.76166672 0.065035172 0.26861459 12171181
0.76525003 0.075938255 0.2646544 12171952
0.77200001 0.077241465 0.2685253 11974573
0.76700002 0.0828458 0.26151875 12237744
0.77406669 0.086146899 0.26610604 12171952
0.77631259 0.09384799 0.2640543 12698553
0.78100002 0.097521819 0.26799864 12895678
0.77833337 0.10107508 0.26113191 13356230
0.78455001 0.1054994 0.26545185 13422279
0.78850013 0.11232797 0.26432335 11448746
0.79100007 0.11704977 0.26555628 10132625
0.78839999 -0.17323732 0.27496722 14078926
0.79133338 -0.17851317 0.27506354 9407367
0.78400004 -0.16513701 0.27485994 13947595
0.77900004 -0.15111086 0.27716008 14342352
0.78062969 -0.15548958 0.27469274 14144973
0.77875 -0.14544228 0.27539995 14210765
0.78050005 -0.14957467 0.27129811 14276557
0.77770019 -0.13538362 0.27487898 14079178
0.77800012 -0.12513754 0.27491534 13947592
0.78000003 -0.12117594 0.27934185 13947592
0.7784546 -0.11737294 0.2733219 14079178
0.78062505 -0.11361907 0.27568197 14144971
0.78316134 -0.10501427 0.2747961 14144971
0.78420013 -0.0952098 0.27441826 13947592
0.78284389 -0.085196368 0.27451769 13618371
0.77828586 -0.072367951 0.2727423 11972518
0.78128582 -0.076043382 0.27562326 12828085
0.7765556 -0.06489262 0.27407098 11774882
0.78000003 -0.067309119 0.27812454 11840931
0.76840001 -0.052277457 0.27338964 13355194
0.7728501 -0.05665512 0.27542552 11972773
0.759 -0.041509714 0.27448639 12762544
0.76230437 -0.047010895 0.2750206 13222838
0.75675005 -0.035000067 0.27512839 12301736
0.74800003 -0.022253633 0.27448207 11973284
0.75183338 -0.027431462 0.27531728 12038821
0.74565727 -0.014724265 0.27502286 11841442
0.74245852 -0.0051210201 0.27473441 12104614
0.73900002 0.0028343946 0.27157858 12104614
0.74320006 0.004940799 0.27625716 11512223
0.74431252 0.014834857 0.2742973 10986650
0.75000006 0.01604481 0.27913254 9802118
0.74609095 0.025010921 0.27355149 10131083
0.75350004 0.025824375 0.27867118 9867654
0.74687499 0.033898156 0.27338138 9801862
0.75471431 0.034819294 0.27836546 9801605
0.74750006 0.043116119 0.27164021 10064778
0.75540006 0.045692746 0.27566361 9867912
0.76000005 0.046504695 0.27929598 9341569
0.75650001 0.053375036 0.27181247 10525841
0.76300001 0.054136604 0.27652717 12170923
0.77000004 0.059734683 0.27756315 12894904
0.76733333 0.063717455 0.27301076 12565938
0.77350008 0.066163793 0.27647299 12434353
0.76900005 0.070458569 0.27000171 12434355
0.77609098 0.073917478 0.27431101 12434612
0.78119999 0.07669805 0.27794328 12237233
0.77762508 0.083539456 0.27189314 11908779
0.78174996 0.086037494 0.27642429 12106159
0.78245836 0.095660277 0.27488151 12566711
0.78676003 0.10524277 0.27476469 13290950
0.78900003 0.11107937 0.27425325 13158852
0.79065222 0.11590015 0.27543107 10263956
0.79206055 0.12499429 0.27556807 10001039
0.79066688 0.13487062 0.27457792 9935246
0.78833336 -0.17322269 0.28509456 13816009
0.79059994 -0.17834763 0.28498843 9473158
0.78438473 -0.1648728 0.28479761 13882316
0.78175986 -0.15530789 0.28546441 14079693
0.77899998 -0.14251365 0.28158897 14342352
0.78108698 -0.14579172 0.28609344 14276559
0.77900004 -0.13652164 0.28080741 14013385
0.78136367 -0.13485684 0.28581893 14210765
0.78216666 -0.12517433 0.28561369 14210764
0.78207397 -0.11488643 0.28517112 14144972
0.78341699 -0.10519911 0.28515014 14210764
0.78320032 -0.095088564 0.28507096 14013385
0.78275019 -0.084954247 0.28490701 13684164
0.78283346 -0.074884519 0.28493851 13025720
0.77900004 -0.061751872 0.28354287 11709345
0.78195655 -0.066524968 0.28521696 12038567
0.76800001 -0.05045253 0.28403428 12432555
0.77432001 -0.056022674 0.28521052 11050901
0.75900006 -0.041065507 0.28203794 13091252
0.76234996 -0.044911418 0.28533426 12893874
0.75788468 -0.035309706 0.28507033 12301736
0.76000005 -0.038895644 0.28997099 12762287
0.74849999 -0.02078457 0.28120324 12235943
0.75380003 -0.025808269 0.28492516 12104357
0.74699998 -0.014188361 0.2830447 11775392
0.75149995 -0.015592098 0.28804824 11315355
0.74566668 -0.0049943854 0.28275898 11182998
0.7518 -0.0050312597 0.28860232 10591887
0.74675012 0.0030853455 0.28207535 10460047
0.75440001 0.0059030731 0.28695273 10525838
0.74900001 0.01076315 0.28051376 9341567
0.75607693 0.015086419 0.28398445 9670532
0.76071435 0.016784698 0.28820819 9933959
0.75780004 0.025085542 0.28203553 9999497
0.76263642 0.024921577 0.28675836 9867911
0.75850004 0.038423017 0.28052038 9604226
0.76446158 0.03425055 0.28575858 9340798
0.77100003 0.03995809 0.28875315 9011834
0.76455563 0.044798527 0.28316027 9999755
0.77300006 0.045792948 0.28889939 11776423
0.76900005 0.054256383 0.28080317 13025977
0.77460009 0.055137794 0.28551039 12369075
0.77725005 0.062801428 0.28245172 12368819
0.78292304 0.065954454 0.28631186 12303283
0.78480011 0.07536006 0.28525311 12369075
0.78354555 0.085794829 0.28478178 11974574
0.77900004 0.09508229 0.28992566 12895933
0.78229994 0.095486879 0.28474119 12698554
0.78674203 0.10518169 0.28507918 13225156
0.78900003 0.11251598 0.28790101 11842990
0.79015791 0.11572124 0.28405023 10395798
0.79040021 0.12515333 0.28491575 9934989
0.79032022 0.13531786 0.28488895 9934989
0.79108012 0.14470829 0.28516343 10000782
0.78833336 -0.17322268 0.29524481 14012618
0.79049999 -0.17832495 0.295131 9473159
0.78553563 -0.16525386 0.29511639 14079182
0.783167 -0.15467013 0.29514349 14408145
0.78248 -0.14445975 0.29488519 14473938
0.78255999 -0.13531262 0.29491413 14408145
0.78290027 -0.12529193 0.29504222 14276559
0.78210706 -0.11489999 0.29533073 14342352
0.78152788 -0.10494802 0.2954371 14342353
0.78123325 -0.094849564 0.2953254 14342352
0.78133321 -0.084800132 0.29536465 14079180
0.78207409 -0.075013608 0.29513681 13618629
0.78174084 -0.06542898 0.29501083 12565170
0.77526683 -0.05511215 0.29488841 11182743
0.76564294 -0.043541737 0.29379043 12170152
0.77128571 -0.047211964 0.29737347 11248794
0.75900006 -0.033513967 0.29136628 12367529
0.76205271 -0.035154033 0.29582742 12038821
0.75815386 -0.025286105 0.29240772 11709856
0.7610001 -0.025363356 0.2968111 11907235
0.75766659 -0.014831904 0.29351658 10789267
0.7610001 -0.014896373 0.29747859 11381404
0.75771427 -0.0058348547 0.29315421 11184024
0.762375 -0.0044353814 0.29734832 11447197
0.75800002 0.0023767934 0.29133779 11184023
0.76357156 0.0052288547 0.2956782 11250073
0.76562494 0.014586882 0.2942504 10065544
0.77050006 0.0169346 0.2989378 10394252
0.76800007 0.024221055 0.29262483 10065543
0.77184618 0.025409658 0.29713288 10920851
0.77350003 0.034656726 0.29494515 10657682
0.776375 0.043988131 0.29406238 12105900
0.7816 0.04709788 0.29821137 12237488
0.778 0.052160576 0.2913748 12106160
0.78380001 0.055853061 0.29611975 12303539
0.78574991 0.06483309 0.29552653 12237746
0.78588867 0.07476519 0.29524866 12105903
0.77900004 0.089611337 0.29813212 12435125
0.78347063 0.085264482 0.29498357 11908780
0.7786364 0.09495458 0.29575503 12895934
0.78042859 0.095516853 0.29124025 12764347
0.77900004 0.10055325 0.29722029 13028035
0.78411108 0.10529833 0.29488358 13027522
0.78864706 0.11331122 0.29503635 11250852
0.79000002 0.117878 0.29531422 9935246
0.7907244 0.12472741 0.29429075 9869453
0.79144466 0.13509832 0.29476461 9869453
0.78837502 -0.17311648 0.3048346 13749705
0.79069996 -0.17837033 0.30538708 9407624
0.78540754 -0.16522801 0.30517939 14210512
0.78278136 -0.15516664 0.30484605 14802903
0.77900004 -0.14199261 0.30998585 14868696
0.78147066 -0.1449189 0.30477905 14868696
0.77900004 -0.13469799 0.30998585 14934488
0.78116667 -0.13507265 0.30444497 14737110
0.77900004 -0.12740338 0.30998585 14671315
0.78130555 -0.12503684 0.3044993 14408145
0.77900004 -0.11463781 0.30998585 14539729
0.78092599 -0.11512446 0.30486026 14342352
0.78090012 -0.10486313 0.30525842 14473938
0.78064001 -0.094777673 0.30515769 14539731
0.78017867 -0.085002221 0.30478066 14276559
0.77900016 -0.074859373 0.30816215 14013385
0.78084993 -0.074967369 0.30340809 13881800
0.77900016 -0.064964972 0.30685952 13552577
0.78091669 -0.066779748 0.30206358 13552320
0.77721214 -0.055492982 0.30514029 12104616
0.76900005 -0.041156493 0.30060583 11116695
0.7734763 -0.045192856 0.30520281 12499375
0.76722229 -0.033478007 0.3025068 10985879
0.77193338 -0.035771515 0.30741698 11183773
0.76640004 -0.024872512 0.30228305 10657171
0.77200001 -0.025051659 0.30810514 10525843
0.7658 -0.015706915 0.30186731 11447197
0.77250004 -0.014604202 0.30791754 11447198
0.76800007 -0.0069412771 0.3020128 11644576
0.77282363 -0.0048581827 0.30710521 11644576
0.76866674 0.0038486912 0.30047551 11381917
0.77288002 0.0049540182 0.30617878 11381661
0.77310002 0.014730671 0.30492598 11447457
0.77548146 0.024594573 0.30489159 11842214
0.78000003 0.029468562 0.30855778 11908777
0.778 0.03384614 0.30250582 11645091
0.78216672 0.035808541 0.30697438 12237743
0.78450012 0.045514353 0.30509391 12237487
0.78552002 0.055421099 0.30522478 12237745
0.78507131 0.065168895 0.30544227 12040110
0.78360617 0.074962735 0.30514413 12039854
0.77817392 0.08658433 0.30601215 12303027
0.78143752 0.082459144 0.30386397 11447460
0.77753347 0.094904043 0.30485061 12895679
0.77900004 0.10055325 0.30542672 13093058
0.78352392 0.10568412 0.30514711 13027521
0.7885384 0.11229313 0.30455101 11909038
0.79107696 0.11721405 0.30596018 9934989
0.78858811 -0.17338724 0.31499505 13289155
0.79072726 -0.17829245 0.31515619 9407369
0.78413796 -0.16483559 0.31500146 14144718
0.7790001 -0.15311691 0.31728047 14803673
0.78070003 -0.15591922 0.31385919 14671831
0.77900004 -0.14472808 0.31636861 14869466
0.78000009 -0.14582686 0.3116011 14934489
0.77865219 -0.13471784 0.31563216 14869209
0.78000003 -0.13395789 0.31220976 14868695
0.77811104 -0.12503155 0.31489176 14737109
0.78000003 -0.12208895 0.31038377 14539729
0.77803856 -0.11533629 0.31555563 14605522
0.78000003 -0.11387197 0.31099242 14408143
0.77873701 -0.10519558 0.31688476 14408144
0.78058833 -0.10412157 0.31244451 14342351
0.77876925 -0.094128594 0.31746653 14408143
0.78047061 -0.09507896 0.31282702 14473937
0.77900016 -0.085137539 0.31685138 14276557
0.7802667 -0.085234046 0.31292483 14276557
0.77900016 -0.074720077 0.31403843 14079179
0.78010011 -0.075901091 0.31791133 14013385
0.77863997 -0.065369986 0.31531134 13881800
0.77796668 -0.055295836 0.3150382 13355456
0.77633351 -0.045337025 0.31452966 13026490
0.77537519 -0.035144452 0.3148987 12434352
0.77555001 -0.025166739 0.31497064 10921112
0.7753334 -0.015177336 0.31488189 11118235
0.77520001 -0.0051931697 0.31482691 11381406
0.77563995 0.0049003186 0.31482396 11579556
0.77660006 0.014797891 0.31448847 11579559
0.77833343 0.022320895 0.3129608 12237489
0.78141177 0.026296664 0.31621778 12566710
0.78425926 0.035344079 0.31534275 12303538
0.78538877 0.045300793 0.31528467 12369332
0.78476661 0.05536817 0.3150343 12500917
0.78322887 0.065211877 0.31454736 12237745
0.77900004 0.078061529 0.31697652 12960699
0.78126085 0.074602067 0.31462127 12236976
0.77770019 0.084907092 0.31493023 11843245
0.77728021 0.094873644 0.31476003 12961727
0.77900004 0.10055325 0.31545681 13027777
0.78381819 0.10568473 0.315153 12632764
0.78854555 0.11202287 0.31512651 12435128
0.7915625 0.11688593 0.31533158 9606281
0.78776187 -0.17371346 0.32523876 11842223
0.79042858 -0.17896926 0.32431301 9144712
0.78275865 -0.16479783 0.32500201 14210255
0.77900004 -0.15293452 0.32165721 15001052
0.7809 -0.15559237 0.32610017 14803417
0.77899998 -0.14407678 0.32118824 14869466
0.78104353 -0.14530662 0.32646209 14737881
0.77825016 -0.13420579 0.32344356 14737624
0.78080004 -0.13647237 0.32861561 14737625
0.77746177 -0.12512131 0.32407612 14606038
0.77746439 -0.11512624 0.32367715 14474708
0.78000003 -0.11661096 0.32864371 14408661
0.7774002 -0.10530316 0.32391021 14342865
0.77743345 -0.095296189 0.32392344 14342864
0.77887511 -0.086242907 0.32338339 14342607
0.78071433 -0.082775317 0.32659647 14277327
0.7818799 -0.074792944 0.32577759 14145228
0.77900004 -0.063879468 0.32153562 13947594
0.78142858 -0.065516993 0.32672149 14013899
0.77857906 -0.055387642 0.32276964 13553348
0.78100008 -0.054394186 0.32825351 13750985
0.77840012 -0.045304697 0.32250407 13553091
0.78166676 -0.044577491 0.32843196 13750984
0.77813351 -0.035815548 0.32202917 13092281
0.78144455 -0.034302905 0.32701793 13158846
0.77883339 -0.025880506 0.32116303 12171434
0.78178567 -0.025107348 0.32586902 12632499
0.77850002 -0.014510991 0.32145125 10921626
0.78192866 -0.015829509 0.32632038 11843243
0.77792877 -0.0049509262 0.3221789 11579556
0.78166676 -0.0058451551 0.32721174 12040366
0.77807701 0.0038953782 0.32180965 12435123
0.78154558 0.0059084189 0.32646865 12171696
0.77900004 0.013017904 0.32092774 12830140
0.78288239 0.015241064 0.32576451 12435382
0.78389663 0.025187215 0.32491103 12435382
0.78528005 0.035183854 0.32535565 12172211
0.78506666 0.045280419 0.325266 12106420
0.78348023 0.055276874 0.32460871 12171956
0.78263366 0.065293938 0.32425749 11710891
0.77900004 0.078061529 0.32153562 13027005
0.7814545 0.074841052 0.32559916 10657945
0.77803719 0.085383669 0.32383806 12237747
0.78066665 0.081274718 0.32831594 10132371
0.7778573 0.094510153 0.32349369 12961726
0.78075004 0.097581312 0.32850322 11777197
0.77900004 0.10055325 0.32092774 13093312
0.78344017 0.1050929 0.32517675 12369333
0.78795451 0.11370096 0.32562131 9934991
0.79057139 0.11791062 0.32252079 9606281
0.78900003 0.12169998 0.32827988 9606281
0.78840011 -0.17360641 0.33427584 11052707
0.79044443 -0.17820962 0.33592355 9079427
0.78652185 -0.1651395 0.33595872 12762040
0.78672731 -0.15495166 0.33591983 14013902
0.78747612 -0.14511722 0.33653826 13619401
0.78609532 -0.13522488 0.33586127 13750987
0.78386366 -0.12502791 0.33469856 13619401
0.78565216 -0.11489489 0.33574936 13487560
0.78461909 -0.1047065 0.33505759 13422023
0.78504562 -0.094807744 0.33553764 13158851
0.78622723 -0.084911451 0.33570758 13159108
0.78724992 -0.075306617 0.3363097 12698041
0.78654176 -0.065113567 0.3360076 12302511
0.78645015 -0.054977238 0.33596927 12171696
0.78730428 -0.045100171 0.33621266 11974833
0.78721046 -0.034565434 0.33459562 12369591
0.78783321 -0.024642702 0.33379042 12698552
0.79000002 -0.024711059 0.33840528 8619131
0.78773338 -0.014497935 0.33374831 11580845
0.7902 -0.014543017 0.33849093 7895668
0.78712499 -0.0050431984 0.33372223 10989222
0.79000002 -0.0062170187 0.33840528 7699574
0.78691673 0.0048607532 0.33432582 10856609
0.78770584 0.014682847 0.33417091 11646125
0.79000002 0.016900534 0.33840528 8619134
0.78827786 0.025168192 0.33397767 11646382
0.79000002 0.025222853 0.33840528 8882563
0.78837502 0.035552658 0.33424962 11449004
0.79000002 0.034469873 0.33840528 9212041
0.78809518 0.044796601 0.33469239 11382955
0.78752172 0.054840509 0.33470175 11382955
0.78715384 0.064961798 0.33520693 10395800
0.78564 0.074627876 0.33543766 10132628
0.77900004 0.088699505 0.33004603 11382440
0.78242856 0.084683374 0.33455461 9869456
0.78368187 0.09515702 0.33495238 11250852
0.78617388 0.10540006 0.33524984 9803406
0.7872501 0.11471765 0.33479264 9540488
0.78857684 0.12344629 0.3347427 9540744
0.79000002 0.12918578 0.33470652 9606281
0.79207695 -0.17525758 0.3450751 9606027
0.78900003 -0.16505659 0.34167102 10131605
0.79153329 -0.16465989 0.34647644 9408649
0.78900003 -0.15766834 0.34167105 10526876
0.78900003 -0.13273297 0.34167108 10526879
0.78900003 -0.12534472 0.34167105 10461340
0.79166669 -0.12484094 0.3456074 8948097
0.78900003 -0.11888 0.34167105 9342859
0.78900003 -0.10441134 0.34197891 10395292
0.79192871 -0.1056829 0.34678188 9013888
0.78900003 -0.095000111 0.34193489 10593186
0.7912941 -0.095088661 0.34648025 8882560
0.78900003 -0.088403463 0.34167105 10988201
0.78900003 -0.061621048 0.34167105 9078397
0.79177779 -0.064927489 0.34596592 9079423
0.78900003 -0.058850452 0.34167105 8881531
0.7917369 -0.055151865 0.34578556 8948094
0.78900003 0.068596907 0.34167105 8093814
0.78850013 0.075935841 0.34290549 8290681
0.79070002 0.073926322 0.34703547 8487802
0.78757149 0.084934421 0.34302995 8487546
0.79049999 0.085382499 0.34879827 8750974
0.7881875 0.094821319 0.34293482 9211268
0.79044443 0.094422966 0.34825966 9145732
0.78900003 0.10574341 0.34249195 9408904
0.79046154 0.10473729 0.3467173 9408904
0.78900003 0.1147735 0.34259462 9474695
0.79054546 0.1149983 0.34722 9408904
0.78900003 0.12123821 0.34167105 9606281
0.79078269 0.12549666 0.34469852 9474951
0.78900003 0.14802064 0.34905931 9475467
0.79132146 0.14455207 0.3451207 9475465
0.78900003 0.15430064 0.34868988 9541259
0.7907334 0.15500906 0.34433189 9541259
0.79151618 0.13462245 0.35465431 9540747
0.78890896 0.14649211 0.35489514 9541260
0.79000002 0.14196649 0.3541252 9606540
