# .PCD v0.7 - Point Cloud Data file format
VERSION 0.7
FIELDS x y z rgb
SIZE 4 4 4 4
TYPE F F F U
COUNT 1 1 1 1
WIDTH 398
HEIGHT 1
VIEWPOINT 0 0 0 1 0 0 0
POINTS 398
DATA ascii
0.80800003 0.20265678 -0.26106936 5458751
0.81066674 0.2052234 -0.26382956 5458751
0.81000006 0.20505464 -0.25981936 5327165
0.81775004 0.20366716 -0.22258054 5195327
0.82120007 0.20712164 -0.22265573 5392961
0.82700002 0.21129426 -0.22364435 5327424
0.81280005 0.19758348 -0.21447465 10854554
0.81800008 0.201335 -0.21738289 4670268
0.82342863 0.20708044 -0.21551566 5459011
0.82900006 0.21180525 -0.21933697 5393217
0.83249998 0.21334834 -0.21571128 5459010
0.81257147 0.19728361 -0.20574899 11314333
0.8175 0.20121193 -0.20194152 4997693
0.82181829 0.20629983 -0.20484595 5590083
0.82650006 0.21116652 -0.20223105 5590083
0.83100003 0.21231624 -0.2072223 5524290
0.81100005 0.19771354 -0.19748901 5392193
0.81571436 0.20349969 -0.19563793 5326912
0.82020009 0.20686896 -0.19819203 5392704
0.82500005 0.21078327 -0.19896525 5326911
0.80774993 0.10369871 -0.18610583 12764088
0.81037498 0.10744923 -0.18310654 12764088
0.80807692 0.11638326 -0.18746179 12829881
0.81063646 0.11429688 -0.18307857 12829881
0.80850005 0.20088947 -0.18836203 5064256
0.80747622 0.10378126 -0.17457654 12764088
0.81000006 0.10758869 -0.1767647 12764088
0.80866671 0.11637097 -0.17073144 12829881
0.81095672 0.11491241 -0.17576943 12829881
0.81100005 0.19961208 -0.1614147 5720385
0.8131668 0.20300142 -0.16184126 5590340
0.81000006 0.17850749 -0.15173455 12764088
0.80787504 0.18489572 -0.15819184 12895415
0.81176186 0.18523167 -0.15332852 12829624
0.81424999 0.19496889 -0.15511096 11643808
0.81800008 0.20261268 -0.15642267 5260860
0.82000011 0.2053466 -0.15552746 5195582
0.81000006 0.15954524 -0.1403572 12960697
0.80678266 0.16433188 -0.14579077 12895162
0.81028569 0.1661052 -0.14094849 12829113
0.80834609 0.17450477 -0.14443618 12960699
0.81 0.1759792 -0.1454138 12894906
0.80850005 0.18645769 -0.14128065 12828853
0.81118762 0.1848232 -0.14614324 12894905
0.80840003 0.19367348 -0.14045872 10196617
0.81293756 0.1947377 -0.14610466 11709857
0.81800002 0.201335 -0.14940324 5918018
0.79305011 0.12464465 -0.13464002 12698295
0.8070001 0.15274779 -0.13565211 12894904
0.81083339 0.15765417 -0.13464849 12894904
0.81229633 0.1652777 -0.13498032 12894904
0.80723989 0.1759308 -0.1339083 12829112
0.81000006 0.17130183 -0.13618551 12894904
0.79276472 0.11460617 -0.12503169 12632502
0.79146677 0.12439846 -0.12509702 12698295
0.80665213 0.15486395 -0.12434417 12829111
0.81000006 0.15859714 -0.12897985 12960697
0.80665213 0.16520648 -0.1237704 12763575
0.81000006 0.16428581 -0.12897985 12894904
0.80673325 0.08524666 -0.1048484 11974573
0.80653846 0.075643376 -0.09465982 11908526
0.80842096 0.085624121 -0.094265811 11974574
0.81 0.084960401 -0.096111953 11974574
0.80739981 0.11556097 -0.094542123 12500916
0.80852175 0.12510216 -0.094838083 12566196
0.81000006 0.12636131 -0.092951581 12500659
0.80795646 0.13488165 -0.094854325 12697525
0.81000006 0.13110188 -0.092003465 12763575
0.80649978 0.14469425 -0.094438516 12697525
0.80771989 0.12506169 -0.085128814 12500916
0.8080399 0.13456714 -0.085161813 12566709
0.8065998 0.14471145 -0.085008517 12566453
0.80686677 0.1929284 -0.085034586 10196883
0.80646652 0.17546563 -0.074986205 12631732
0.8080526 0.18445106 -0.075999796 12697781
0.81012499 0.18754357 -0.073052056 12631989
0.80866671 0.19335847 -0.079546839 10000273
0.81122237 0.1933369 -0.073781818 10395028
0.80778939 0.18478993 -0.063536838 12631475
0.81000006 0.18836787 -0.066783682 12565939
0.80900002 0.19154428 -0.060640797 13552321
0.81146675 0.19390185 -0.065133795 9604999
0.80660003 0.18531322 -0.054797053 12631732
0.80800003 0.1929635 -0.052763231 10196625
0.81100005 0.19597453 -0.055887263 6643544
0.81580007 0.20410623 -0.054531831 4405808
0.82000005 0.20758618 -0.055706434 4405549
0.80691665 0.19467269 -0.045217302 11580073
0.81000006 0.19936596 -0.049338415 5461324
0.80762506 0.20279974 -0.042813301 11775908
0.81146169 0.20528093 -0.047383189 8551540
0.81500006 0.21013626 -0.049642973 4076846
0.80659992 0.14565793 -0.034968156 12434609
0.81450009 0.21191409 -0.014321668 4077099
0.81900007 0.21308489 -0.0096234484 3813926
0.56599998 -0.070703857 0.0085858786 16382714
0.56742108 -0.065601878 0.0082224021 16449017
0.57000005 -0.06253124 0.0066461652 16514810
0.5676471 -0.055006728 0.0084938845 16251637
0.57000005 -0.058528099 0.0066461652 16251122
0.56766671 -0.047656387 0.0092767933 16580345
0.57386672 -0.04288869 0.007943226 12895421
0.57279998 -0.035041474 0.0084662577 11908782
0.56900001 -0.023792397 0.0087657664 11645609
0.57020009 -0.027313838 0.0090513173 11777195
0.54666668 -0.071062446 0.018317195 15526378
0.55433339 -0.071408384 0.015543523 15658476
0.56066668 -0.07156942 0.012223672 15855855
0.54535717 -0.065209813 0.018486306 16382455
0.55370849 -0.06484545 0.015524528 16250870
0.56234777 -0.065006137 0.011877057 16382713
0.54607689 -0.056167815 0.018658288 15396075
0.55376196 -0.054574478 0.016453091 15856883
0.56277782 -0.054958135 0.012411637 15988468
0.54850006 -0.049257606 0.019235961 15922676
0.55527776 -0.045672748 0.018242801 15791090
0.56382507 -0.044987425 0.01402311 16054261
0.57066673 -0.041674118 0.011106554 16383223
0.56556255 -0.034898426 0.016513703 15659502
0.57093757 -0.035234813 0.011334013 15066850
0.567442 -0.024991887 0.016434403 15658989
0.57015395 -0.025381574 0.011370693 11381926
0.56839132 -0.016303066 0.018370664 15987698
0.57141662 -0.01486089 0.013980705 14342868
0.56880003 -0.0064726742 0.019947883 15987699
0.57241946 -0.0050859507 0.016828578 15066595
0.57271433 0.00076006568 0.018356819 11908784
0.52700001 -0.070151135 0.02588425 15329512
0.53700006 -0.070225149 0.021974299 15789293
0.54300004 -0.071009792 0.020314248 16119028
0.51814288 -0.063082464 0.028914599 15658991
0.52407688 -0.064708136 0.026725717 15724783
0.5337857 -0.064936824 0.022773404 15724784
0.54071432 -0.065470673 0.020228734 16053492
0.51781821 -0.05581516 0.028738583 15856883
0.52482146 -0.054766502 0.026473362 15659504
0.53468001 -0.055048227 0.022951171 15198697
0.54166669 -0.05477136 0.02068653 15133160
0.51900005 -0.049038917 0.029136289 15725297
0.52479172 -0.044669479 0.028074956 15001574
0.53400004 -0.045125362 0.024822149 14804195
0.54366666 -0.045959119 0.022031158 15001576
0.55239999 -0.041717332 0.02092389 15725297
0.52644444 -0.036798049 0.029142456 14606816
0.53472227 -0.035772085 0.027374091 14803939
0.54506254 -0.033716116 0.025809545 15132903
0.55433333 -0.034858007 0.022525439 15330539
0.56 -0.033029847 0.020950235 15856883
0.53600001 -0.02868294 0.029460337 15000804
0.54461908 -0.024533477 0.02795938 15066597
0.55422235 -0.025480984 0.024475809 15264746
0.56121433 -0.024402749 0.021651652 15527918
0.54599994 -0.014817673 0.028775485 15330282
0.55414283 -0.015017166 0.026286129 15461355
0.5632143 -0.014602262 0.022759866 15527148
0.54633331 -0.0044055753 0.02885686 15329766
0.55418754 -0.0054136193 0.026810357 15461353
0.56396431 -0.0050971531 0.023070935 15329768
0.54299998 0.0029207317 0.02878678 12631992
0.55299997 0.00017912715 0.026511639 15131614
0.56483334 0.00062424206 0.023108438 12961218
0.57200003 0.0028634062 0.020060109 11184806
0.48771429 -0.062801696 0.039775617 15724782
0.49410343 -0.06369324 0.036902808 15790320
0.50400001 -0.062367342 0.033517677 15724783
0.51394123 -0.063674182 0.031111646 15658732
0.48723531 -0.054860782 0.039362047 15791090
0.49458629 -0.05529625 0.036981896 15856371
0.50425935 -0.054839749 0.033811104 15725041
0.51240921 -0.054358888 0.030998753 15790834
0.48800004 -0.048965853 0.039962552 16054262
0.49497223 -0.045028273 0.03762928 15396333
0.505 -0.045427848 0.034359936 15396333
0.51419234 -0.044740021 0.031592235 15527918
0.52000004 -0.040003434 0.030409757 15067367
0.49636367 -0.035645515 0.038478818 15264746
0.50405264 -0.034740075 0.036365412 15067368
0.51493108 -0.035042115 0.033472683 15001318
0.52328575 -0.033775594 0.031213079 14606816
0.49900001 -0.029042564 0.039695177 15330539
0.50546664 -0.026178027 0.038627852 14804195
0.51392007 -0.025148738 0.03654471 15001061
0.52458823 -0.024823749 0.033636436 14935011
0.53369999 -0.02437352 0.031268407 14935011
0.51520824 -0.0149041 0.038568128 15263976
0.52500004 -0.0148563 0.03550221 15066597
0.53399998 -0.015703967 0.031971272 15066597
0.54000002 -0.011834506 0.030315211 15592941
0.51605564 -0.0056748502 0.039035805 14935012
0.52482754 -0.0052548638 0.036150035 15198183
0.53416002 -0.0052781762 0.032582417 15329768
0.54137498 -0.0055282358 0.030392405 15527147
0.51566672 0.0013742191 0.038601175 15066850
0.52616674 0.0014033715 0.036311179 14869472
0.53600007 0.0026902149 0.032667708 12895423
0.5402 0.0037146001 0.030326437 11908525
0.46493334 -0.062686846 0.048880536 15395562
0.47452387 -0.062687345 0.045673691 15461353
0.48331821 -0.063667245 0.042248454 15592939
0.45871434 -0.053546004 0.049376778 15263976
0.46479407 -0.055053536 0.047623545 15198954
0.47407696 -0.055420764 0.044322513 15198955
0.48204345 -0.055285059 0.041679502 15527918
0.45725 -0.047751755 0.049216233 15066855
0.46518183 -0.048454389 0.046997916 15067369
0.47490913 -0.04643264 0.044697002 15001576
0.48490328 -0.044918783 0.042045973 15001575
0.49020004 -0.043447822 0.040142708 15133160
0.47900003 -0.039092012 0.044832278 15133162
0.48600015 -0.035166431 0.043149356 15264747
0.49118182 -0.03475165 0.040431678 15396332
0.48672736 -0.026152402 0.044465672 15066854
0.49396297 -0.024679324 0.042286739 15001574
0.50300002 -0.022943793 0.040600676 14869732
0.48800004 -0.018119035 0.045674637 15066599
0.4946129 -0.014928175 0.044456936 15066597
0.50412005 -0.015084599 0.041561022 15066854
0.51066673 -0.011788604 0.040623259 15263976
0.49660876 -0.004991618 0.045263957 15263976
0.5048334 -0.0051540001 0.042518284 15132390
0.5110001 -0.005217649 0.040649775 14737634
0.49766672 0.0030738199 0.045412 14277080
0.50343752 0.0027392167 0.042475242 13948114
0.51000005 0.0013591178 0.040570226 14737632
0.43857145 -0.061754454 0.059088558 14934754
0.44431251 -0.061741915 0.056138329 15132390
0.45555559 -0.062177744 0.052344237 15263719
0.46033335 -0.064509809 0.050987657 15329512
0.4357647 -0.054467432 0.058632128 15263976
0.44434014 -0.054775052 0.05512023 15198439
0.454 -0.055603299 0.051536806 15132647
0.43664297 -0.046365399 0.058641922 14343646
0.44437841 -0.046753358 0.054823533 14541025
0.45199999 -0.047895495 0.051191233 15001575
0.40800002 -0.060041364 0.069706462 14671582
0.42900002 -0.060118839 0.063251324 15198183
0.43345454 -0.061574783 0.061594959 14869216
0.40796426 -0.055021815 0.068778172 15461355
0.41394743 -0.054127447 0.066559792 15527405
0.42392004 -0.054108556 0.06320703 15461355
0.43141177 -0.056838982 0.060931396 15395305
0.40814286 -0.045002732 0.069229312 15198697
0.41494 -0.044993013 0.066959813 15001576
0.42417321 -0.045154676 0.063408867 14935781
0.43176183 -0.04365724 0.060960237 14409182
0.40846154 -0.035685983 0.069638006 14672354
0.41433331 -0.035064973 0.067892998 14738404
0.42366669 -0.039094064 0.064438723 14804195
0.43033335 -0.038814362 0.062104166 14409439
0.41528571 -0.024906067 0.068561658 14409439
0.41611543 -0.016047049 0.068991363 14540769
0.42072728 -0.013470567 0.068209767 14475232
0.42320836 -0.0057960302 0.06920597 14540512
0.42821425 0.0037950426 0.069435664 14342876
0.42900002 0.010181929 0.0692771 13290188
0.43000001 0.013225575 0.069438584 13487817
0.38500002 -0.060712501 0.079296306 15856109
0.40400001 -0.060398497 0.074223056 14736603
0.38734883 -0.055141006 0.07838577 16053233
0.39417151 -0.05257687 0.075372353 15855857
0.40330359 -0.055306163 0.072049975 15395306
0.3886207 -0.045802146 0.079256982 15856111
0.39404491 -0.0447505 0.075516395 15658734
0.40216672 -0.044926807 0.071349822 15264234
0.38866672 -0.038846593 0.079444401 15724527
0.39423072 -0.035064355 0.07662902 15198441
0.40300003 -0.0345487 0.071913503 14738404
0.39437145 -0.024997132 0.077772588 14737634
0.40412983 -0.025089581 0.073258214 14211804
0.4108572 -0.024048125 0.070400283 14343133
0.39586669 -0.015415141 0.078460708 14737889
0.40470886 -0.015100067 0.074681707 14211804
0.41243333 -0.014052819 0.071232922 14408925
0.3976 -0.0056862985 0.079423442 14606561
0.40471834 -0.005206788 0.076551847 14343389
0.41418183 -0.005597502 0.072471343 14606048
0.42209098 -0.0024671273 0.071122572 14277083
0.40411657 0.0048459447 0.078050449 14606048
0.41434285 0.0053185653 0.075411029 14474462
0.42414561 0.0052653672 0.072364815 14277339
0.40482762 0.014029996 0.078800075 13685458
0.41333336 0.015280793 0.077384233 13948630
0.42530495 0.013468552 0.073410779 13685456
0.40700001 0.02037813 0.079299994 11184289
0.38456258 -0.060868606 0.082804486 14802651
0.38312033 -0.054996081 0.084729791 15658474
0.38363236 -0.044950217 0.084936634 15592938
0.38436857 -0.034909233 0.084620982 14671580
0.37900001 -0.024720117 0.089594714 3814189
0.38465732 -0.025238959 0.085043281 13092549
0.39033332 -0.021650882 0.080546953 14671840
0.3860451 -0.015399907 0.086132295 14013395
0.3916842 -0.014299402 0.081225134 14935011
0.38674998 -0.0055845235 0.086934559 14803425
0.3926031 -0.0050629028 0.082109556 14803939
0.38726658 0.0042216773 0.087645873 14737632
0.39434463 0.0049035456 0.083169341 14606561
0.40000004 0.0066844178 0.080512948 14475230
0.38849998 0.01134361 0.088959485 14606046
0.39434016 0.014974664 0.086096302 14606302
0.40132493 0.01570672 0.081621423 14080214
0.39460528 0.022054842 0.086948059 12764096
0.40141669 0.021819947 0.082438178 10987424
0.37842858 -0.053210925 0.096304454 14539738
0.38046509 -0.055264644 0.091658883 14737117
0.37753943 -0.044936791 0.096184321 15198182
0.38055801 -0.045104757 0.091163591 15329767
0.37815672 -0.035276126 0.09699709 12171959
0.38056248 -0.034886464 0.092175916 12237237
0.37712291 -0.024837485 0.095028631 2567721
0.38000003 -0.029233279 0.090720698 2894894
0.37717542 -0.01510929 0.09558554 3356469
0.38086206 -0.014141263 0.090894699 5329235
0.37866673 -0.0086149145 0.097915038 12764094
0.38197494 -0.0045550019 0.0944423 13882577
0.37899998 0.0023408798 0.099354416 14277334
0.38240272 0.0049542491 0.094768904 14540509
0.38525367 0.014702537 0.095120057 14672094
0.39033332 0.018250208 0.090750672 15132389
0.38796297 0.02165506 0.09688919 14343126
0.39101896 0.024169395 0.094471946 13685197
0.37755814 -0.053500928 0.10491297 14210771
0.38044003 -0.05837319 0.10578963 13355206
0.3748914 -0.044866692 0.10496968 14935007
0.37605405 -0.035091396 0.10506741 11250599
0.37370083 -0.024931671 0.10472269 2436390
0.3736968 -0.015040595 0.10494659 3159088
0.37682128 -0.005092842 0.10506029 13224648
0.37732416 0.0048452793 0.10512378 14211542
0.38000003 0.0090189576 0.10050616 14475484
0.37817073 0.014591018 0.10674568 14211286
0.38089457 0.016347662 0.10224211 14343643
0.3788 0.020873483 0.10887863 14737626
0.38318178 0.02231266 0.10320372 13816782
0.39000002 0.026603242 0.10041206 10592667
0.37612224 -0.054095987 0.11446323 13881805
0.38057145 -0.058805503 0.11134771 13487306
0.37408057 -0.044867646 0.11489633 14211540
0.37477243 -0.035095099 0.11480681 9606031
0.36844829 -0.023868505 0.11761477 1910047
0.37106916 -0.025834577 0.11328758 2305061
0.36854771 -0.017197575 0.11785351 2369570
0.37118176 -0.014290884 0.11393074 3487793
0.3732003 -0.005047821 0.11499044 11053735
0.37397754 0.0047656461 0.11464329 13356492
0.37666026 0.014670323 0.11400796 13290438
0.37840012 0.021596165 0.11276671 13224387
0.38000003 0.023252347 0.11029161 10658460
0.37549999 -0.05130234 0.12085333 13356231
0.37531817 -0.045929972 0.12111444 10592671
0.36778572 -0.030630307 0.12512919 2239012
0.37392002 -0.034376778 0.12123445 6842980
0.36698687 -0.025170676 0.12538046 1712924
0.36725804 -0.01551644 0.12495275 2962475
0.37042856 -0.011028943 0.12114032 6515040
0.37227786 -0.0062705218 0.12107442 8620162
0.37718183 0.0063535403 0.12147328 10264988
0.38062504 0.0090345237 0.1246748 10725792
0.37900001 0.011213338 0.12064831 9475728
0.38261545 0.014808206 0.12394981 11185833
0.3858 0.020355579 0.12462024 12566458
0.36331815 -0.030849408 0.13590789 2107168
0.36332095 -0.024900245 0.13509759 1909789
0.36405131 -0.015687177 0.13492808 2961961
0.36252171 -0.031061571 0.14422514 1186325
0.3622337 -0.024790568 0.14472453 1121043
0.36230189 -0.015764685 0.14478889 2105112
0.36398327 -0.032415111 0.15617391 2764071
0.36474991 -0.025257129 0.15538235 593930
0.3640852 -0.015334108 0.15521674 2037521
0.36242631 -0.032721441 0.16409981 1712153
0.36258927 -0.024746934 0.16521704 1252114
0.36357507 -0.01620261 0.16466166 1382417
0.34900001 -0.033293799 0.17963681 1778201
0.35468426 -0.032328602 0.17949398 1186323
0.36256102 -0.032778032 0.17530216 1120529
0.34825 -0.026515493 0.17974634 1646615
0.35565495 -0.024935883 0.17882276 989457
0.36099079 -0.025032429 0.17376046 1515544
0.35706824 -0.017378502 0.17908901 791566
0.36103082 -0.016615897 0.17515576 1185812
0.34396145 -0.033515744 0.18474063 1712409
0.34441718 -0.025039531 0.18474048 1580823
0.35000002 -0.021189893 0.18024258 1580566
0.34529325 -0.016443605 0.18531832 1514775
0.35436961 -0.014817699 0.18086067 1580312
0.36100003 -0.010024356 0.18590736 1777171
0.36069235 -0.0090408679 0.18419157 6251353
0.34000006 -0.03278897 0.19127703 1646615
0.34112501 -0.024638787 0.19172791 1515032
0.34268761 -0.016985158 0.19181804 1515032
0.79129422 0.15706088 0.22639593 10987677
0.79287505 0.1565205 0.23511608 10921884
0.78900003 0.14371081 0.24562378 10790298
0.79036367 0.14642705 0.24756184 10790298
0.7933479 0.15489659 0.24560232 10790298
0.79128569 0.14672962 0.25546864 10724763
0.79300004 0.15427452 0.25505191 10724763
