# .PCD v0.7 - Point Cloud Data file format
VERSION 0.7
FIELDS x y z rgb
SIZE 4 4 4 4
TYPE F F F U
COUNT 1 1 1 1
WIDTH 1032
HEIGHT 1
VIEWPOINT 0 0 0 1 0 0 0
POINTS 1032
DATA ascii
0.55860007 -0.10181978 -0.07194902 16447216
0.56 -0.10404072 -0.072784126 16249840
0.55685186 -0.094548397 -0.072306775 16579317
0.55734622 -0.085678644 -0.072040208 16579574
0.56 -0.082671911 -0.074488387 15855338
0.55866671 -0.07807146 -0.071085267 16184046
0.56166667 -0.075958312 -0.073112525 15394272
0.57000005 -0.070537522 -0.074751034 13355457
0.56733334 -0.066659309 -0.071304925 14013389
0.5723334 -0.066803627 -0.073717184 13355457
0.55500001 -0.11025775 -0.062389776 15261917
0.54750001 -0.10171898 -0.060906991 16777207
0.55451518 -0.10469465 -0.065529831 16183532
0.54668421 -0.094395116 -0.062467147 16448242
0.55230772 -0.095402703 -0.067012899 16579830
0.54685009 -0.085465267 -0.062371511 16513521
0.55276674 -0.084489569 -0.066801004 16579316
0.54800004 -0.078398176 -0.060641307 16513521
0.55430609 -0.075079054 -0.064916559 16315886
0.56050003 -0.071657851 -0.069241017 16381682
0.55540746 -0.065840177 -0.062776573 15921385
0.56089473 -0.064849079 -0.066923864 15789543
0.5539 -0.056747347 -0.061488669 15658472
0.56 -0.058812257 -0.064262815 16251119
0.53602856 -0.10433322 -0.052589823 16381679
0.54285717 -0.10257813 -0.057758696 16382193
0.53705549 -0.094922811 -0.053113207 16513778
0.54256517 -0.095086575 -0.058454987 16579828
0.53716218 -0.084961295 -0.052639954 16513778
0.54255557 -0.084825322 -0.058124751 16579314
0.53795004 -0.075700238 -0.051532883 16053228
0.54388887 -0.074729055 -0.056160159 16316399
0.55000001 -0.071281418 -0.059252586 16052970
0.53866673 -0.067920268 -0.050465453 16381681
0.54462171 -0.065153867 -0.053787593 16053227
0.55152947 -0.064300977 -0.058583263 16052970
0.54610348 -0.055543043 -0.052885409 15724519
0.55166668 -0.054350808 -0.057855859 15789543
0.54769999 -0.047516618 -0.051825136 15527396
0.55189657 -0.044815596 -0.054423556 15527140
0.55415004 -0.036138933 -0.051721372 14540502
0.55766672 -0.0281012 -0.051374629 11645097
0.56 -0.023416065 -0.051153116 11514023
0.53212506 -0.1120199 -0.043706838 15985895
0.5272308 -0.10350859 -0.041515291 16513522
0.53182924 -0.10544385 -0.045941092 16250093
0.52603453 -0.094608061 -0.042364694 16514035
0.53130001 -0.095184438 -0.047456048 16579827
0.5261724 -0.085413717 -0.042247411 16579570
0.53140002 -0.084710449 -0.046925824 16316399
0.52770597 -0.074893802 -0.041373782 16645105
0.53285366 -0.075155638 -0.046245411 16513521
0.52833337 -0.065996952 -0.040839504 16118246
0.53401971 -0.06500183 -0.045482326 16250348
0.54000002 -0.060504269 -0.049326219 15921384
0.53556812 -0.055355623 -0.044056598 15987176
0.54160005 -0.053832788 -0.048712637 15658725
0.53723997 -0.045453172 -0.041882787 15526626
0.5442 -0.044774011 -0.04683977 15395296
0.55000001 -0.041023761 -0.048952106 15330017
0.53850007 -0.038274452 -0.040364735 15329763
0.54534781 -0.035508912 -0.042713594 15197920
0.5523929 -0.034455929 -0.047320187 15132383
0.54850006 -0.028712833 -0.041114315 14408915
0.55439222 -0.02488235 -0.044898167 14342867
0.56 -0.021231115 -0.049405158 11579816
0.55692858 -0.017790593 -0.04230845 14144975
0.56100005 -0.014010251 -0.044779297 11513767
0.56266665 -0.0085989004 -0.041298334 9934478
0.51711112 -0.11201122 -0.031500679 16315373
0.52518749 -0.11225011 -0.036837246 15986665
0.53050005 -0.11470543 -0.039765075 15854824
0.51660001 -0.10459898 -0.03236964 16447728
0.52325922 -0.1052697 -0.037638407 16447729
0.51648843 -0.095068574 -0.033519421 16513520
0.52194113 -0.094848856 -0.038406219 16579571
0.51665008 -0.085011646 -0.033562209 16447727
0.52225 -0.084311388 -0.038170468 16381933
0.5166471 -0.075315677 -0.03211407 16381933
0.52303028 -0.074780189 -0.037243027 16447726
0.51756513 -0.065205991 -0.031369183 16250090
0.52391106 -0.064912111 -0.036743414 16447469
0.51825011 -0.055841181 -0.03075882 16184041
0.52440912 -0.055211868 -0.035132356 16118504
0.53090912 -0.053157266 -0.039118331 16381934
0.51900005 -0.049038917 -0.030398143 16249834
0.52448571 -0.044941388 -0.032866489 15789796
0.53178263 -0.045184664 -0.037752062 15592417
0.52650005 -0.037008334 -0.031660877 15330016
0.53388095 -0.034905821 -0.035562038 15263711
0.54183334 -0.03174388 -0.03892399 15000539
0.53633338 -0.025888046 -0.0321927 14737367
0.54468757 -0.024685908 -0.036371171 14671574
0.55039996 -0.02249822 -0.038937248 14540501
0.53750002 -0.019328915 -0.030223399 14605524
0.5453158 -0.016078776 -0.032278672 14408145
0.55377781 -0.014221611 -0.036135815 14342866
0.56016666 -0.011183414 -0.038492117 14408917
0.5571 -0.0058162967 -0.032631084 13881802
0.56302857 -0.0045573162 -0.036785558 12303027
0.55900002 0.0027983289 -0.030123707 14277329
0.56286663 0.0022853378 -0.033154879 13355971
0.57600003 0.0042318567 -0.036433522 10658971
0.51600003 -0.12062938 -0.021769015 14472657
0.50800002 -0.1104345 -0.020239968 16315629
0.51321274 -0.11438484 -0.024285387 15986151
0.50620002 -0.10423927 -0.022068067 16381422
0.51133329 -0.10546437 -0.026759496 16513521
0.50497615 -0.094998971 -0.023363253 16381678
0.51105005 -0.094826415 -0.028557975 16513264
0.50531125 -0.084821984 -0.02355713 16316140
0.51126093 -0.085592709 -0.028696788 16447726
0.50556093 -0.075261444 -0.022458397 16118761
0.51127589 -0.074701369 -0.027347445 16250347
0.50653583 -0.065179996 -0.021455141 16118761
0.51253653 -0.064857073 -0.026572172 16184554
0.5069412 -0.055263523 -0.020897336 16052968
0.51327997 -0.054912224 -0.025891051 16184297
0.50807685 -0.045946095 -0.020609669 15789796
0.51426411 -0.044989485 -0.025408693 15855590
0.52050006 -0.040650561 -0.029267497 15593189
0.509 -0.039157204 -0.02027981 15724003
0.51460874 -0.035500184 -0.023472805 15461346
0.52313632 -0.033782545 -0.028137861 15330016
0.51676476 -0.026226625 -0.021302087 14935259
0.52429414 -0.024990952 -0.02519154 14869465
0.53115392 -0.024599882 -0.029006325 14737622
0.51900005 -0.019271702 -0.020678237 14408915
0.52528572 -0.016633008 -0.022630926 14343122
0.53385192 -0.014776122 -0.025997093 14342865
0.54337502 -0.012062248 -0.028805597 14145485
0.53705883 -0.007513389 -0.022360867 14211022
0.54390329 -0.0045477669 -0.024923019 13948107
0.55177778 -0.0041266615 -0.029018423 14145230
0.54614812 0.0038279423 -0.022188811 13750985
0.55282354 0.0071828454 -0.025989057 13882571
0.54900002 0.010459582 -0.020588292 13816778
0.55409092 0.013691518 -0.023079045 13685192
0.56024998 0.019198734 -0.022978391 13290435
0.56657892 0.025393454 -0.022435904 11579818
0.57033342 0.027334308 -0.025171407 10987678
0.56900001 0.031820238 -0.021671329 10658715
0.57100004 0.031997986 -0.023820827 10921884
0.50400001 -0.12057707 -0.011034905 15129817
0.49875003 -0.11163493 -0.010822806 16249834
0.50415909 -0.11472258 -0.014463707 15986663
0.51066667 -0.11679301 -0.018752763 15854565
0.49745718 -0.10431878 -0.012669977 16316397
0.50246423 -0.10595825 -0.017165791 16315884
0.49557626 -0.09479513 -0.014212434 16250347
0.50040001 -0.095780313 -0.019234393 16250348
0.48814291 -0.08440648 -0.010306801 16118761
0.49465585 -0.085187465 -0.014900656 16250348
0.50019997 -0.084966987 -0.019695098 16250347
0.48857147 -0.076471284 -0.01031585 15987175
0.49471992 -0.075093225 -0.01416218 15987431
0.50100005 -0.073994324 -0.018427707 16118761
0.49532607 -0.065275848 -0.012963666 15987175
0.50249994 -0.064730741 -0.017768776 16118761
0.49616665 -0.05523017 -0.012695725 15921639
0.50285721 -0.054702722 -0.017474074 16052968
0.49664515 -0.045407273 -0.011952857 15724774
0.5033949 -0.044677783 -0.016868019 15724003
0.49770835 -0.03522883 -0.011530038 15527394
0.50445455 -0.034995284 -0.01613494 15526881
0.51050007 -0.031503931 -0.019144487 15263454
0.49860007 -0.02761795 -0.010761229 15066843
0.50444746 -0.025255313 -0.01361097 14672087
0.51276922 -0.024020672 -0.017893944 14803417
0.50623077 -0.017791629 -0.011601713 14277329
0.51458144 -0.014989178 -0.015077829 14343122
0.52263635 -0.012396441 -0.018489547 14343122
0.51674998 -0.0069367262 -0.011971302 14408143
0.52445835 -0.0057152421 -0.015019267 14145229
0.53407151 -0.0034840091 -0.017710673 13948364
0.52350003 0.00078291824 -0.011053342 14079178
0.53784621 0.0036639562 -0.014358698 13948106
0.54336661 0.006033313 -0.016774595 13750984
0.53850007 0.010890441 -0.01010942 13553606
0.5462501 0.013287448 -0.01353695 13487813
0.55289656 0.01696484 -0.016408863 13619398
0.56 0.019845944 -0.019689834 13619399
0.5548929 0.024029952 -0.012649999 13422019
0.56215388 0.025898984 -0.017391056 13421763
0.55800003 0.030879686 -0.0104755 13553604
0.56420755 0.034925498 -0.014789127 13158077
0.56622738 0.044048667 -0.012619924 12303026
0.56550008 0.053266235 -0.011145603 11119264
0.49500003 -0.12107631 -0.00249505 15393503
0.50225002 -0.12182338 -0.0076687345 15392990
0.48760003 -0.11239423 -0.00070723187 15920871
0.49470592 -0.11503489 -0.004895234 16052457
0.50128573 -0.11836437 -0.0087409196 15788771
0.4859488 -0.10438825 -0.0023318061 16118506
0.49237496 -0.10548999 -0.0073026507 16118762
0.47866669 -0.091732256 -2.1612504e-05 15987177
0.48443347 -0.094876908 -0.0041937619 16052969
0.49088892 -0.097139426 -0.0087052602 16250347
0.47747833 -0.084165856 -0.00099552388 15855848
0.48365468 -0.085376211 -0.0059412946 15987176
0.47711119 -0.074680425 -0.0011411556 15856104
0.48351854 -0.075113826 -0.0062576551 15921639
0.47738892 -0.065533414 -0.0007060424 15724260
0.48432794 -0.064913347 -0.0054239403 15855846
0.49050003 -0.062420629 -0.0092083011 16052968
0.47900003 -0.057594247 -2.1627555e-05 15461601
0.48440695 -0.054985017 -0.0037450024 15790053
0.49105892 -0.054276489 -0.0086112283 15855846
0.48465392 -0.045180339 -0.0027593884 15593187
0.49176928 -0.044383075 -0.0079057608 15593188
0.48520416 -0.035262629 -0.0025807363 15395809
0.49253336 -0.034582496 -0.0077510313 15461346
0.48623335 -0.025678443 -0.001505301 14869466
0.49457142 -0.024949335 -0.0064270208 14737880
0.50033337 -0.022091649 -0.009392906 14737880
0.48820004 -0.017898604 -0.00025099452 14474708
0.49485105 -0.015119882 -0.0031864531 14540500
0.50335717 -0.01434884 -0.0078954874 14408915
0.51000005 -0.010580074 -0.0095743816 14277329
0.49646157 -0.0068969955 -0.0010983838 14079950
0.50511116 -0.0053114183 -0.0045399307 14145743
0.51237506 -0.00412902 -0.0081233485 14145486
0.50587499 0.0023136486 -0.0012842106 13750985
0.51383334 0.0048617418 -0.0043198261 13816778
0.52350003 0.0060966392 -0.0073775551 13816777
0.53050005 0.0082436688 -0.0080969529 13750984
0.51722223 0.012952098 -0.0011002216 13619399
0.52457148 0.015081869 -0.0028931045 13487813
0.53500003 0.013849914 -0.0072300048 13553606
0.54383337 0.017789979 -0.0085126953 13750983
0.52600002 0.021103764 -2.3749673e-05 13422020
0.53640008 0.024726931 -0.0019126011 13487300
0.5448966 0.025336877 -0.0060572447 13421506
0.55100006 0.025978059 -0.009054184 13487811
0.53850007 0.031060653 -2.4314068e-05 13355714
0.54500008 0.034241606 -0.0019136058 13618886
0.55408704 0.035767328 -0.0059533915 13750985
0.56033331 0.038004164 -0.0087705618 14014157
0.55470592 0.042883426 -0.0017848028 14079950
0.56268752 0.045798387 -0.0063700043 13817035
0.56576669 0.054842785 -0.0047535035 12895419
0.56827587 0.062894948 -0.003740693 12040109
0.57050008 0.068012953 -0.0022202961 11579816
0.56766671 0.078589253 -2.5630985e-05 11316642
0.57087505 0.072184101 -0.0011962848 11185314
0.48625004 -0.12178364 0.0063047926 15525857
0.49000001 -0.1208602 0.0011249746 15591651
0.47900003 -0.11085826 0.0089491541 15789285
0.48439687 -0.11513499 0.0050073788 15855078
0.47632256 -0.10398075 0.0076347543 15986664
0.48137835 -0.10586718 0.0034474009 16052457
0.46827278 -0.093529254 0.0094459327 15855335
0.47421062 -0.094967447 0.0051087043 15855077
0.48019999 -0.098320782 0.0015519506 15921384
0.46655554 -0.084618762 0.0081052547 15921383
0.47276193 -0.085304894 0.0032664475 15855591
0.46608704 -0.075018309 0.0075621735 15921383
0.47224998 -0.075024121 0.0027375668 15855591
0.46605009 -0.065335795 0.007910559 15658212
0.4727442 -0.064779729 0.0030865464 15724005
0.46660602 -0.055422705 0.0084159598 15724005
0.47394001 -0.054897264 0.0036304952 15724005
0.46700007 -0.044866003 0.0087608248 15592676
0.47412011 -0.045374881 0.0040978957 15658468
0.48000002 -0.042544685 0.001102016 15527395
0.4677 -0.035265408 0.0091197379 15330017
0.47415385 -0.035023127 0.0048560128 15263968
0.48033339 -0.034700613 0.0011027813 15263967
0.46877781 -0.026062872 0.0097335959 14803673
0.47404006 -0.025479749 0.0062937732 14737880
0.48154163 -0.023842184 0.0021839845 14672087
0.47513518 -0.015896559 0.0081789428 14343122
0.48380962 -0.014537353 0.0034758593 14408915
0.49000001 -0.010738717 0.0011249746 14277329
0.477 -0.0087767672 0.0089097396 14079950
0.484561 -0.0055377106 0.0061404798 14014157
0.49271426 -0.0037351858 0.0024465234 13816778
0.4874 0.0010718114 0.0086491238 13553606
0.49521428 0.0043611424 0.0062363511 13553606
0.50331819 0.0062746871 0.0027064758 13619399
0.51100004 0.0097356047 0.0011731877 13290434
0.49833336 0.011050274 0.0089209685 13290434
0.50509995 0.013707921 0.0073050484 13422020
0.51380002 0.01598141 0.0038206191 13422020
0.52100003 0.019074824 0.0011961465 13356227
0.51574999 0.023363523 0.0078204889 13290434
0.52400005 0.02618449 0.0048757014 13356227
0.53216672 0.027995771 0.0020501136 13356227
0.52609998 0.032689262 0.0085958736 13553606
0.53465635 0.034944836 0.0054042405 13619399
0.54300004 0.037727442 0.0025154874 13685192
0.53700006 0.041188579 0.0084575545 13487813
0.54527998 0.044446588 0.0059439456 13816778
0.55305552 0.047081046 0.0029205496 13816778
0.54833335 0.05066869 0.0085324431 13816778
0.55480778 0.054282613 0.0065636551 13619399
0.56195003 0.056557126 0.0028660188 13685192
0.55800003 0.060706209 0.0086826114 13619399
0.56618929 0.064921729 0.005163081 13816778
0.57000011 0.068682827 0.0021982307 13882828
0.5681963 0.075688913 0.0056333696 12961470
0.57000005 0.0719743 0.0018423961 12237748
0.56794995 0.082684956 0.0052284198 11908523
0.57040006 0.085378624 0.0085203666 11973805
0.47530001 -0.12179669 0.017884284 15591648
0.48236361 -0.12318912 0.012705377 15393758
0.46785712 -0.11313214 0.018675582 15855077
0.47450009 -0.11498898 0.014516438 15855078
0.4807778 -0.11752334 0.010732668 15855076
0.45900002 -0.10139415 0.019320766 15591906
0.46458003 -0.10478286 0.016218668 15855077
0.47187507 -0.10727838 0.012126675 15986662
0.458258 -0.094398253 0.017834553 15657955
0.46314585 -0.095261604 0.013479348 15789540
0.45620751 -0.084566653 0.016494704 15789797
0.46175998 -0.085509025 0.011997094 15789797
0.44900006 -0.073958322 0.019950954 15789796
0.45468664 -0.074994817 0.015931025 15789796
0.46081251 -0.075837247 0.011238028 15789796
0.44900003 -0.065023817 0.019950954 15395808
0.45502785 -0.065258197 0.01564721 15592931
0.46106666 -0.064251594 0.011131948 15658210
0.44870585 -0.054416489 0.019505069 15527394
0.45525432 -0.055122226 0.015573879 15527395
0.46238893 -0.05505481 0.011343334 15724003
0.44890004 -0.045462072 0.019841399 15329759
0.45508188 -0.045102444 0.016156623 15461602
0.46234787 -0.044603378 0.011600243 15527139
0.44900006 -0.036643658 0.019950954 15198174
0.45538789 -0.035100341 0.016959371 15198431
0.46267572 -0.034333643 0.012445411 15198431
0.45534894 -0.025013275 0.017746132 14672087
0.46375555 -0.02481856 0.012999332 14737880
0.45641387 -0.015435752 0.017881237 14408916
0.46478572 -0.01518501 0.013908239 14343122
0.47055563 -0.013065486 0.011361303 14277329
0.45850003 -0.0082584694 0.018941544 13948362
0.46533334 -0.0055450271 0.016954731 13816777
0.47371802 -0.0048191762 0.012653182 13816778
0.48100004 -0.0018135764 0.010394056 13948362
0.46779999 0.0010289428 0.019252477 13158846
0.47434491 0.003145148 0.017127588 13356225
0.48411909 0.0051530488 0.01376094 13356226
0.49119997 0.0082096364 0.011475498 13290432
0.48692855 0.012780996 0.017888976 13093054
0.49376085 0.01493787 0.014795687 13158847
0.50287503 0.017530611 0.011306358 13290434
0.49725002 0.021696676 0.018308304 13093053
0.50492311 0.023623526 0.015702002 13093054
0.51267856 0.026575003 0.013174091 13290434
0.51618516 0.032619864 0.016800979 13356226
0.52352953 0.036366064 0.014247138 13619399
0.53066671 0.03951114 0.011570322 13619399
0.52680004 0.041732609 0.017979112 13685192
0.53429276 0.045299791 0.015101249 13553606
0.54210007 0.04840197 0.011394541 13619399
0.53866673 0.051036224 0.018470502 13290434
0.54511636 0.054818712 0.015194345 13422020
0.55160004 0.057772867 0.01120847 13619399
0.54800004 0.060472772 0.018575817 13553606
0.55453128 0.063999139 0.015996596 13685192
0.56135714 0.06823606 0.013956383 13816778
0.56558335 0.075305782 0.015014486 14145743
0.56830776 0.083284825 0.016551089 14277330
0.57156521 0.087276094 0.014456647 14408661
0.57374084 0.09320914 0.01623619 14145490
0.46608105 -0.12264035 0.025919018 15525599
0.47000003 -0.12252881 0.02115914 15460063
0.45833337 -0.11156024 0.028471576 15723490
0.46420312 -0.11536784 0.024505777 15723234
0.45609227 -0.10432626 0.025838861 15657697
0.46126667 -0.10754739 0.021933706 15854820
0.4474194 -0.093652956 0.027547399 15591904
0.45357701 -0.095706053 0.023167538 15592417
0.43900001 -0.080789715 0.029526753 15789540
0.44477031 -0.084684685 0.025853392 15658210
0.45163164 -0.086552203 0.021012178 15789796
0.43796161 -0.074272059 0.028686145 15657954
0.44412124 -0.075185426 0.023927853 15592417
0.43695351 -0.06473057 0.027760752 15592417
0.4438462 -0.065212451 0.023128845 15658210
0.43635708 -0.055507109 0.027871804 15395295
0.44338465 -0.054790631 0.023206074 15461344
0.43608114 -0.044968642 0.028146112 15263966
0.44346657 -0.045014862 0.023329623 15395295
0.4363555 -0.034816757 0.027782589 15066845
0.44424486 -0.035382051 0.023019282 15198173
0.4363023 -0.025132248 0.027885022 14672087
0.44425929 -0.024872998 0.023292359 14672088
0.45100001 -0.024665194 0.020039821 14606552
0.43712506 -0.015800739 0.028630905 14408659
0.44511941 -0.014846684 0.024556465 14277330
0.45182356 -0.013912286 0.020635232 14211538
0.43900001 -0.0091071613 0.029783679 13816781
0.44594452 -0.0065222494 0.027607132 13816778
0.45397824 -0.0049558068 0.023584139 13750985
0.46114287 -0.0020083769 0.021106197 13685191
0.45706668 0.0015052188 0.027508799 13422019
0.46455777 0.0047577829 0.025071541 13290690
0.47280005 0.0078305956 0.022109231 13027517
0.46850002 0.010571042 0.028494202 12961469
0.47437504 0.01214055 0.026112245 12895675
0.48417786 0.016233906 0.023877069 12895931
0.49033335 0.019290408 0.021022052 13027260
0.48787504 0.021145258 0.027815603 12961725
0.49446151 0.024449365 0.025295723 13159103
0.5033077 0.028623329 0.023442199 13224639
0.50496298 0.033091806 0.027073182 13290432
0.51350003 0.035918433 0.023342445 13487812
0.52100003 0.039198216 0.020710872 13487813
0.51711112 0.04146228 0.027280465 13685191
0.5245676 0.044650901 0.025232676 13619399
0.53140008 0.04844049 0.023359815 13356226
0.528 0.050849386 0.029641539 13750985
0.53526676 0.054197051 0.025583498 13487813
0.542 0.057727154 0.022629727 13685192
0.53850007 0.060685068 0.02833946 13750985
0.54548651 0.063994616 0.025716636 13882571
0.55229414 0.067336239 0.022864297 13816778
0.54800004 0.070735797 0.029481448 14145743
0.55471808 0.074335866 0.026305223 14211536
0.56085712 0.076711223 0.022200633 14211536
0.55783337 0.081363678 0.028702224 14277329
0.56356531 0.085168168 0.024802117 14540501
0.56733334 0.094552003 0.026056085 14540501
0.57075006 0.096303716 0.021267692 14079696
0.56887501 0.10173002 0.027774196 13290180
0.57036376 0.10275433 0.025220849 13093057
0.458 -0.1243515 0.037078466 15065305
0.46154168 -0.12406042 0.032075301 15328220
0.44841668 -0.11252911 0.03890698 15657441
0.45490915 -0.1152085 0.034546152 15723234
0.46059999 -0.11867712 0.030601591 15789026
0.4456507 -0.10438407 0.035803925 15525597
0.45176476 -0.1073561 0.032078534 15526111
0.4373953 -0.093708105 0.037433438 15328475
0.4428269 -0.095889568 0.033025235 15394525
0.42900002 -0.080706924 0.039148204 16184041
0.43475893 -0.084753923 0.035219479 15460831
0.44020003 -0.088688277 0.03130763 15526624
0.42721623 -0.074250877 0.038333364 15395038
0.43275383 -0.075249232 0.033433825 15526624
0.42626327 -0.064865172 0.037386194 15395038
0.43183678 -0.065303661 0.032407805 15460831
0.42500019 -0.055017125 0.036825381 15395038
0.43140012 -0.054901045 0.031789232 15263453
0.41900003 -0.040080629 0.039216544 15329245
0.42462343 -0.045047935 0.036295123 15329245
0.43100002 -0.044908218 0.031322014 15395038
0.41731578 -0.033236533 0.039159942 15066332
0.42410448 -0.035323255 0.03547411 15000795
0.43089652 -0.034539785 0.031214731 15132637
0.41719997 -0.024769861 0.039046042 14540501
0.42443934 -0.025017357 0.034850113 14606294
0.43095243 -0.025176845 0.030869717 14672087
0.41761538 -0.017008724 0.039160781 14343122
0.42428133 -0.015567872 0.035710402 14277329
0.4321714 -0.014219548 0.031629644 14146000
0.426 -0.0072144656 0.038121317 13750985
0.43489286 -0.0053781639 0.034312073 13553607
0.44172734 -0.0027689298 0.031376723 13488071
0.43761116 0.0016238749 0.038223501 13093055
0.44353124 0.0036848967 0.035798497 13159104
0.45533335 0.0058353846 0.033087835 13290433
0.46237504 0.0078654746 0.031096814 13027260
0.45750004 0.011932878 0.039606929 13159105
0.46532258 0.014246752 0.035430461 13027262
0.47211117 0.017223369 0.034114368 12961213
0.48200002 0.019338431 0.030444246 12895676
0.47613338 0.022525622 0.037351444 13224386
0.48351434 0.025257686 0.035645921 13158592
0.49305889 0.027795702 0.03229012 13224641
0.48700005 0.032081429 0.03886544 13290436
0.49488887 0.034873653 0.03532261 13487813
0.50200003 0.036680143 0.031705823 13487813
0.49475002 0.041420702 0.038048759 13619400
0.50445455 0.042140618 0.034434453 13685449
0.514 0.046442036 0.034646418 13750986
0.52300006 0.048735391 0.032010488 13685193
0.51350003 0.051254369 0.039043725 14014159
0.52519137 0.054195531 0.035494562 13882573
0.53158337 0.057832438 0.032225668 13619401
0.52900004 0.060852885 0.03836647 14014160
0.53426927 0.064828113 0.035488993 14079695
0.54244447 0.067621738 0.03143879 14014157
0.42518187 0.076877996 0.039250746 13948110
0.43000001 0.078153715 0.037226181 13092801
0.53610003 0.074180879 0.037872039 14277074
0.54466671 0.07493329 0.03345231 14408915
0.55116665 0.077382572 0.031371675 14277329
0.42636588 0.084902376 0.038296189 14013903
0.43000001 0.080670305 0.037226181 14014160
0.53800005 0.080780201 0.039019208 14211282
0.54496002 0.084480979 0.037529442 14540246
0.55416131 0.085591778 0.033236615 14605781
0.56024998 0.088384002 0.030468218 14935259
0.42524999 0.0924716 0.038929779 13882570
0.54750007 0.093317091 0.039494395 14211282
0.55434483 0.094867602 0.036751159 14474708
0.56230778 0.09577547 0.032221682 14671830
0.5575 0.10132778 0.037823237 14672087
0.56588894 0.10361424 0.033720657 13224386
0.57000005 0.10693506 0.03066501 11316644
0.45199999 -0.13085087 0.048441004 14077641
0.44722587 -0.12323088 0.047628138 15327963
0.45310208 -0.12590604 0.043504082 15064792
0.43828577 -0.11169715 0.049082067 15722720
0.44398677 -0.1150235 0.044924591 15591647
0.4506 -0.11863168 0.040696509 15526111
0.43631807 -0.104201 0.046228446 15328476
0.4413076 -0.10666717 0.042057354 15525855
0.42680004 -0.092624314 0.048095956 15065560
0.4327794 -0.095664531 0.04413116 15262682
0.42498836 -0.084476598 0.045396615 15131610
0.43042853 -0.087526515 0.041293345 15131096
0.4174062 -0.073733427 0.048226245 15328732
0.42261976 -0.075612448 0.043893319 15328988
0.41567129 -0.064703174 0.046427183 15328989
0.421206 -0.065900922 0.041857041 15460574
0.40869999 -0.052299391 0.049255058 15197659
0.41430846 -0.055129014 0.045189817 15329245
0.4204616 -0.05604662 0.040640354 15395038
0.4076429 -0.04465453 0.048011985 15066074
0.41411546 -0.045305345 0.043107003 15263197
0.4060823 -0.034614272 0.047296245 14868696
0.41301939 -0.035662767 0.04223856 15066075
0.40509772 -0.02504486 0.046620335 14540244
0.41261536 -0.025352351 0.041810676 14606294
0.40473506 -0.015430519 0.04682675 14277330
0.41361225 -0.01413023 0.041964959 14211536
0.40554291 -0.0062318575 0.048285652 13750986
0.41394874 -0.006009886 0.044769064 13619401
0.42400002 -0.0043989657 0.042165413 13553606
0.43042859 -0.0012996333 0.041580789 13290434
0.4086667 0.0010898513 0.049729746 13158848
0.41529998 0.0055048191 0.048978522 13289666
0.42569235 0.0060334746 0.047731962 13092801
0.4331429 0.0040527466 0.043605793 13158849
0.44900003 0.0096054934 0.040973295 13158848
0.45100003 0.0096482793 0.040100005 13159105
0.39725006 0.018262202 0.049270444 13750215
0.40600002 0.013423812 0.049876954 13618630
0.41561538 0.013832281 0.049075447 13486789
0.42254546 0.01218077 0.048178863 13355203
0.43228576 0.011268891 0.046961367 13223873
0.44700003 0.014977481 0.045849986 13487300
0.45460868 0.015690597 0.043140512 13290434
0.46277776 0.017724186 0.041144345 13224641
0.39862502 0.023693224 0.049090996 13816008
0.40000004 0.027987683 0.04890921 13750217
0.45509097 0.021360226 0.046171356 13355714
0.46505266 0.023242563 0.043519843 13355972
0.4726471 0.02619279 0.042153344 13290180
0.40322581 0.03555626 0.048969872 13947852
0.41413337 0.038525123 0.045800019 13684422
0.48597735 0.035999522 0.043802496 13421509
0.49033335 0.038039621 0.04015363 13487559
0.4054783 0.045156091 0.048592221 14013900
0.41496715 0.044769991 0.044752859 13684422
0.42060003 0.045529045 0.041433178 13289921
0.48780006 0.041954078 0.043883882 13421766
0.49111766 0.044727653 0.041636102 13421766
0.40558469 0.055187296 0.047869764 14277073
0.41395456 0.053893603 0.043535527 13882572
0.42050004 0.053790003 0.041325733 13750730
0.40580004 0.064838357 0.048074063 14474708
0.4141019 0.065599307 0.043892395 14145488
0.42230001 0.066071324 0.041006569 13948110
0.52566671 0.061705496 0.040585905 13816524
0.53083342 0.067899548 0.041399177 14277075
0.40540013 0.075052015 0.048273239 14474709
0.41424528 0.07448858 0.04415736 14277075
0.42194119 0.077069409 0.041465301 14211282
0.53344995 0.075670399 0.041997187 14145489
0.4051556 0.084670089 0.04862104 14277075
0.41457579 0.085625291 0.045618009 14211282
0.42285004 0.085193291 0.042096581 14342355
0.53805274 0.082911529 0.042735014 14211282
0.5417273 0.087682724 0.042054273 14342868
0.40694118 0.093716085 0.04895765 14013903
0.41469052 0.094576962 0.046432368 13487302
0.42210266 0.093880333 0.042592566 13355716
0.5441072 0.093983606 0.042733368 14013903
0.54800004 0.10024198 0.041027348 14606040
0.55200005 0.10097368 0.040034577 14671833
0.44647059 -0.13105552 0.056038551 14538707
0.45033336 -0.13128279 0.050934266 14077642
0.43755561 -0.12209584 0.057680096 15131097
0.44404843 -0.12596221 0.054477159 15130584
0.42900002 -0.11083582 0.059234139 15197146
0.434277 -0.11475544 0.055169638 15525598
0.44050002 -0.11879157 0.051196516 15656927
0.42562264 -0.10384829 0.056765929 15262682
0.43146351 -0.10643746 0.052893922 15525341
0.41763416 -0.093653731 0.057519205 15065560
0.42287725 -0.095840186 0.053412259 15196890
0.43000001 -0.099517845 0.050312471 15262939
0.40900001 -0.080774263 0.059345067 14933974
0.41551653 -0.08473973 0.055712327 14999766
0.42075005 -0.086691603 0.051051833 15131353
0.40752634 -0.073381074 0.057922967 15065558
0.41323617 -0.075635202 0.053608343 15131352
0.40611967 -0.064603284 0.055918861 15197145
0.41117859 -0.065735951 0.051065125 15197146
0.39875001 -0.051329341 0.059140984 15065560
0.40397304 -0.055130403 0.054906283 15197146
0.41100001 -0.059039608 0.050013676 15197146
0.39748943 -0.044519339 0.05773177 14999767
0.40246478 -0.045096684 0.052959625 15065816
0.395585 -0.034732044 0.056550324 14736852
0.40108564 -0.035902228 0.051621336 14934232
0.38871428 -0.022754194 0.059195992 14407632
0.39417571 -0.024872633 0.054801244 14473938
0.40000004 -0.027588081 0.050828852 14474451
0.38778576 -0.015114808 0.058598846 14276559
0.39432639 -0.014883836 0.053515907 14408402
0.38768184 -0.0053184065 0.058518246 13947594
0.3946715 -0.0055406038 0.053996526 13948107
0.40236369 -0.0026897423 0.051098809 13487813
0.38814294 0.0045178663 0.058631647 13684679
0.39378467 0.0049483944 0.054843251 13684936
0.40385714 0.0048065656 0.051352188 13421252
0.41166672 0.0088060386 0.050094802 13420996
0.38828206 0.014319904 0.058784563 13684933
0.39442369 0.015351171 0.054074921 13816265
0.40400001 0.012288104 0.050981674 13684422
0.41100001 0.010716873 0.050013676 13420996
0.38874999 0.023618478 0.059307206 13816776
0.39396521 0.025029503 0.05446621 14013387
0.38900003 0.031998966 0.059175082 14014155
0.39411876 0.035083659 0.055007774 14013900
0.40000004 0.036649447 0.050547928 13948110
0.39397159 0.045000285 0.055785716 14079950
0.40047622 0.04535317 0.051054023 14145230
0.39447591 0.05505893 0.055794939 14343122
0.40045005 0.054971687 0.051073007 14408659
0.39432728 0.064985476 0.055871606 14540502
0.4006364 0.064845942 0.051096559 14343123
0.39467567 0.074964792 0.05586452 14540247
0.40063637 0.07516025 0.051096555 14540246
0.39528835 0.08488676 0.055934753 14408660
0.40045005 0.084970072 0.051073007 14408661
0.39616919 0.09375947 0.056976683 14211281
0.40178725 0.095289201 0.052448608 13816782
0.39750001 0.10729236 0.058761116 3683881
0.40288574 0.10396121 0.057533652 10987169
0.43550003 -0.13124388 0.066677697 14604756
0.44133335 -0.13198748 0.061737165 14538192
0.42755002 -0.12217244 0.068088874 15327962
0.43360293 -0.12564081 0.064408533 14999255
0.44000003 -0.12912849 0.060752962 15196635
0.41900003 -0.11070445 0.069624029 15262169
0.42491949 -0.11447804 0.065447859 15328219
0.43033329 -0.11789709 0.061348598 15591391
0.41708517 -0.10340814 0.067015417 15262426
0.42186278 -0.10640922 0.0634133 15327962
0.40869999 -0.091718391 0.068868816 14868181
0.41368133 -0.095364034 0.064685501 15065303
0.4062151 -0.084263258 0.065700166 14802645
0.41142103 -0.087819032 0.061772592 14933974
0.39820004 -0.071464501 0.069336548 14999767
0.403108 -0.075155102 0.064741813 14933974
0.39670312 -0.064071469 0.067131504 14933974
0.40149981 -0.065943047 0.062611453 14933717
0.39490658 -0.054786481 0.06550891 14933974
0.40020004 -0.058519185 0.060971998 15262938
0.38846436 -0.042942293 0.068316199 14802388
0.39307833 -0.045425016 0.06389714 14868181
0.3868112 -0.03457994 0.066490255 14473680
0.39130005 -0.03606024 0.061881237 14736853
0.3847883 -0.025136922 0.06505882 14210508
0.39000002 -0.029089577 0.06024019 14605011
0.37900001 -0.010524184 0.069188058 13487043
0.38256487 -0.015136994 0.064862005 13947593
0.37899998 -0.0074188244 0.069188058 13355457
0.3825238 -0.0051423237 0.064657211 13553093
0.38267615 0.0048738997 0.065029927 13487043
0.38318509 0.015107935 0.06495364 13355970
0.3845433 0.025202209 0.064956509 13816521
0.38565734 0.035057519 0.064968474 13882313
0.38626522 0.044912726 0.065333612 13948105
0.39000005 0.046232678 0.060240187 14079948
0.38673985 0.054948006 0.06520199 14277327
0.39000002 0.055286571 0.060316276 14211536
0.38686377 0.064968891 0.065632328 14408914
0.38999999 0.064949118 0.060696684 14408915
0.38690257 0.074851207 0.065506399 14343379
0.38999996 0.075424552 0.060624611 14474708
0.38705775 0.084742293 0.065823376 14211281
0.39064002 0.08550477 0.0610332 14277073
0.3883954 0.092933364 0.067306541 14014157
0.39220595 0.09582185 0.063707307 14079950
0.39517498 0.10550305 0.065423481 8881790
0.40037501 0.10405128 0.060904574 14014414
0.39325002 0.11060002 0.067647621 2499095
0.42644444 -0.13063867 0.075842217 14538448
0.43085718 -0.13199452 0.071305349 14078414
0.4184286 -0.12160877 0.078624256 15064790
0.42422092 -0.12515898 0.074958853 14933205
0.43000001 -0.12891167 0.070847884 14539218
0.41569865 -0.11408785 0.076090135 15262169
0.42142314 -0.11749335 0.07245142 15262169
0.40777141 -0.1027758 0.077355377 15130583
0.41289046 -0.10606033 0.073736064 15196376
0.40499026 -0.094754621 0.075347424 14933717
0.4105556 -0.097794913 0.07078322 14999510
0.39714587 -0.083684824 0.077668168 14802131
0.40174639 -0.085961767 0.073479004 14933717
0.39466649 -0.074737802 0.075297125 14802131
0.40009096 -0.077865668 0.070824333 14802388
0.38835138 -0.06376186 0.078313947 14736595
0.39214432 -0.065617062 0.073732123 14802388
0.3864865 -0.054653708 0.075987466 14670802
0.39056531 -0.056404896 0.071219243 14802388
0.38437226 -0.045077085 0.074813023 14539473
0.37852275 -0.033954091 0.078062043 14013129
0.38195834 -0.035412926 0.073482171 14276558
0.3778888 -0.024328036 0.076442152 13355457
0.38069996 -0.025902366 0.071814358 14013386
0.37735221 -0.014826008 0.075213954 12960699
0.38000003 -0.01744625 0.070260204 13618627
0.37711161 -0.0051750457 0.075013027 12565940
0.37705746 0.0049774973 0.075001016 12829368
0.37721303 0.015011528 0.075299203 13026748
0.3801429 0.017668063 0.070413694 12829627
0.3775979 0.024752825 0.075955369 13421505
0.38054833 0.025327044 0.071194232 13487298
0.37823084 0.034395225 0.076844648 13487041
0.38090739 0.035578016 0.072308362 13487555
0.37847921 0.044590231 0.078173555 13552833
0.38128725 0.045154795 0.073448233 13816263
0.37899998 0.05326879 0.079657562 14079178
0.381594 0.05500498 0.074523255 14145228
0.38199249 0.06503088 0.074631296 14145228
0.38263071 0.074996471 0.074783184 14145484
0.38404733 0.084852047 0.074918404 13816778
0.3863931 0.094593383 0.075091012 13553863
0.39000002 0.099642999 0.070739657 13422277
0.38878945 0.1009627 0.077297285 13488070
0.39209566 0.10586736 0.074652158 10723740
0.39416668 0.11246304 0.075780615 2762523
0.41900003 -0.13228397 0.089241758 13814725
0.42225 -0.13174409 0.082844183 14143691
0.41454223 -0.12399294 0.085051835 14736082
0.421 -0.12820734 0.080906339 14538448
0.40714535 -0.11375609 0.086541511 14933462
0.41176742 -0.11673062 0.082831793 15064791
0.39842859 -0.10153935 0.088990532 14736339
0.40379649 -0.10516946 0.084672906 14933461
0.39650619 -0.09386538 0.086367033 14802388
0.40110523 -0.096885629 0.082634725 14867924
0.38873333 -0.081534259 0.088436566 14670802
0.39325005 -0.085334539 0.084719971 14801875
0.38717175 -0.074283242 0.085823908 14604753
0.39111117 -0.077566415 0.081774041 14605009
0.38453409 -0.065114677 0.084807612 14604752
0.37888241 -0.052365512 0.08873184 14406860
0.38165495 -0.055526879 0.084616929 14538959
0.37795302 -0.044088989 0.086439416 14210251
0.38076463 -0.046632029 0.082267687 14276300
0.37650737 -0.035136823 0.085029423 13815751
0.37457973 -0.025131134 0.08475519 10065552
0.37227857 -0.014992991 0.085044719 4409151
0.37281847 -0.0051126191 0.085069209 6185048
0.37385347 0.0049550557 0.085277528 12105645
0.37337142 0.014979329 0.085197002 12631989
0.37419486 0.02494612 0.084964573 13092539
0.37590358 0.035207737 0.084806025 13224125
0.37679517 0.045109455 0.085095942 13421247
0.3777419 0.054864947 0.084999658 13750470
0.38000003 0.058835819 0.080045663 14079178
0.37814027 0.064546935 0.08549998 13750213
0.38016006 0.065945633 0.080755435 14013385
0.37850708 0.074331254 0.087168127 13421504
0.38064614 0.075552553 0.08248315 13881799
0.37899998 0.081453629 0.089003213 13093053
0.3811273 0.085083961 0.084679931 13422019
0.38431242 0.095033005 0.084910981 13488070
0.38795352 0.10407647 0.085763097 13093057
0.391 0.10760808 0.081926607 10065812
0.39267859 0.11211557 0.082219899 2696988
0.41584998 -0.13275236 0.097082675 13880517
0.42000002 -0.13554937 0.097320564 11314337
0.40752012 -0.12295587 0.096006483 14670032
0.41136107 -0.12607715 0.093364507 14538447
0.39862502 -0.11115351 0.098549105 14735825
0.40332651 -0.11535709 0.094948143 14736082
0.39630106 -0.10436317 0.095522992 14604753
0.40038893 -0.10833941 0.091785707 14999510
0.38874999 -0.091700524 0.097677454 14538703
0.39246878 -0.095603079 0.094293587 14538703
0.38640353 -0.084586084 0.095224954 14407374
0.39055559 -0.088155106 0.091005303 14538703
0.37900001 -0.070856899 0.099354416 14276044
0.38283587 -0.074927159 0.094986036 14407374
0.3781563 -0.063950777 0.097443715 14144458
0.38102621 -0.06576822 0.092946485 14407374
0.3769519 -0.054576959 0.095165893 14210251
0.38016668 -0.058912262 0.090908356 14144458
0.37499309 -0.044922411 0.095052406 14078664
0.37357599 -0.034861904 0.094867185 13420736
0.36900002 -0.02061253 0.098892525 2173475
0.37240928 -0.025228787 0.094892256 7895668
0.36839116 -0.014794992 0.09712439 1976096
0.37031272 -0.015309961 0.092050642 2107682
0.36847737 -0.0072906581 0.097437292 1910304
0.37069166 -0.0041696914 0.09395387 4146238
0.37145516 0.0048798216 0.095159888 11250593
0.37078759 0.014875583 0.095028549 12237743
0.37163949 0.024999877 0.095129102 12697524
0.37330645 0.035021234 0.094882138 12894903
0.37409875 0.044786707 0.095002159 13026488
0.37536162 0.054812815 0.094898395 13289660
0.37717441 0.064792246 0.09477482 13224125
0.37808284 0.074914426 0.095130898 13224382
0.3789736 0.081930541 0.095448256 13290433
0.38067532 0.086765274 0.094863087 13158848
0.38385695 0.094952472 0.094873361 13159106
0.38657287 0.10466228 0.095074713 12566716
0.38800001 0.11073826 0.097777739 2696479
0.40691665 -0.13092852 0.10642695 13881031
0.41310006 -0.13269742 0.10171298 13749189
0.39850003 -0.12068091 0.10913022 14341065
0.40406075 -0.1250039 0.10506932 14275274
0.41033337 -0.12890713 0.10084345 14341068
0.39613944 -0.1141586 0.10563011 14604238
0.40065002 -0.11748799 0.10188665 14604496
0.38820592 -0.10256948 0.10769898 14407116
0.3925111 -0.10583271 0.1039589 14538959
0.38582918 -0.094609424 0.10537562 14275787
0.39091673 -0.098633118 0.10095143 14473166
0.37877777 -0.08106225 0.10826123 13815491
0.38234153 -0.085255049 0.1045759 14209994
0.3778787 -0.074429758 0.10591965 13947077
0.38070965 -0.077243865 0.10195712 14209993
0.37574425 -0.065008834 0.1050479 13946820
0.37410021 -0.055114932 0.10470961 13749442
0.37247384 -0.045113645 0.10494844 13552321
0.37129572 -0.035016451 0.10478146 13025978
0.36802176 -0.021833081 0.10578132 2370084
0.37092066 -0.026572894 0.1044281 9013376
0.36632666 -0.014889234 0.10502914 1910046
0.36738944 -0.0056908214 0.10538666 2633513
0.37034994 -0.0013101643 0.10354488 7698800
0.36900005 0.009621718 0.10709896 10987164
0.3706128 0.0048358473 0.1052096 10527127
0.36899993 0.014391063 0.10669746 11382178
0.37000021 0.01547729 0.10337452 11974315
0.36900002 0.02085158 0.10969047 12106156
0.3703568 0.024893865 0.10519303 12434609
0.37158462 0.034979098 0.10487671 12565938
0.37289783 0.044542342 0.10498234 12697267
0.37433353 0.055008117 0.10491098 13157818
0.376008 0.06505128 0.10506854 13355454
0.3778787 0.075187847 0.10516623 13552833
0.37831911 0.083978154 0.10560949 13355968
0.38040739 0.088254221 0.10348219 13224639
0.38289344 0.094976902 0.10506476 12961725
0.38509345 0.10484313 0.10489301 12566972
0.38811111 0.11228441 0.10204515 2565402
0.40418178 -0.13113306 0.11507387 13288637
0.39697564 -0.1221135 0.11557259 13946308
0.40147057 -0.12690049 0.11442048 13617344
0.38850001 -0.11206637 0.11762873 14735824
0.39288771 -0.11573628 0.11417843 14341065
0.38563788 -0.10476059 0.11544053 14604238
0.39050004 -0.10926928 0.11105236 14275272
0.37850004 -0.091531165 0.11838384 14473680
0.38223857 -0.09554527 0.11465207 14473165
0.37771165 -0.084135905 0.11570062 14407886
0.38053334 -0.087832771 0.11237581 14078407
0.37572241 -0.07486511 0.11496885 14144970
0.37419003 -0.064894766 0.11528522 13881798
0.37283233 -0.054774754 0.11495841 13618369
0.37118763 -0.045099877 0.11507607 13355454
0.37109178 -0.035145558 0.11498914 12302767
0.36719233 -0.022035914 0.11463644 2238756
0.37129581 -0.02707231 0.11514875 7697774
0.3644962 -0.014782514 0.11478615 1449494
0.36600769 -0.0052203401 0.11507408 3291184
0.37 -0.0007463267 0.11518478 7500133
0.37069079 0.0048409761 0.11524707 9474181
0.36900014 0.016549679 0.11280029 11382434
0.3700003 0.013955573 0.11640898 11448227
0.36900005 0.02085158 0.11141814 11250848
0.37037283 0.025116073 0.11543849 12303537
0.3710677 0.03486795 0.11508226 12434866
0.37212971 0.044898383 0.11499288 12763317
0.37357074 0.055101145 0.11489322 13289661
0.37457678 0.06511084 0.11508162 13421247
0.37615415 0.074882805 0.11506075 13618626
0.37665898 0.08487235 0.11499617 13684934
0.37835485 0.091611125 0.11655488 13553605
0.38142526 0.096224464 0.11446 12830140
0.38388473 0.10474357 0.11515423 13290950
0.38604009 0.11132246 0.11598103 3419690
0.40422225 -0.13129927 0.12121162 11315105
0.38745004 -0.12186845 0.12652776 13683908
0.39313048 -0.12295901 0.12185828 14077895
0.40070003 -0.12828933 0.12164555 13353916
0.38535258 -0.11484155 0.12527058 14473167
0.39050004 -0.11886784 0.12080387 14341067
0.37841862 -0.10350656 0.12769291 14671059
0.38156825 -0.10581207 0.12367225 14670802
0.37671983 -0.094662488 0.12555644 14605266
0.38037506 -0.097995423 0.12114104 14539216
0.37409809 -0.085046262 0.1249989 14473680
0.37292475 -0.075109959 0.1252683 14342350
0.37217036 -0.065109201 0.12491351 14276557
0.3712427 -0.055074945 0.1249571 13816006
0.37099966 -0.045042735 0.12504989 13224125
0.37151852 -0.03501264 0.12510924 11447716
0.36507949 -0.022111274 0.1250907 2172961
0.37206551 -0.027541172 0.12473646 7566443
0.36193737 -0.014832865 0.12474526 1252116
0.36360496 -0.0053678751 0.12490917 3027755
0.36900002 0.00011952608 0.12307991 8027250
0.37055269 0.0051390631 0.12514882 9145475
0.36899978 0.016267801 0.12528621 11645608
0.36999992 0.011800111 0.12353157 11251106
0.36900011 0.022795212 0.12588736 12171953
0.37002534 0.026789239 0.12445022 12238002
0.37048838 0.034853783 0.12533794 12632503
0.37124431 0.045026939 0.1248609 13027261
0.37173486 0.054947305 0.12485854 13487810
0.37235266 0.064889632 0.12517412 13816261
0.37340584 0.075127013 0.1250647 13882056
0.37407321 0.084914304 0.12482784 13619140
0.3772032 0.092928261 0.12534189 12895933
0.38086355 0.097715065 0.12440114 12632763
0.38299108 0.10457078 0.12501195 12830657
0.38524336 0.1113961 0.12482726 5788754
0.38462505 -0.1225908 0.13465475 13617601
0.37806258 -0.11226208 0.13605791 13420992
0.38163641 -0.11664721 0.13395092 14078666
0.37638739 -0.1050786 0.13468659 13750213
0.37320799 -0.094971463 0.13481519 13749957
0.37093195 -0.085013866 0.13496903 13618627
0.36900017 -0.073324881 0.13487038 13026747
0.37017682 -0.076161064 0.13456792 13619140
0.36899987 -0.06563732 0.13572142 12894904
0.37032774 -0.064243242 0.13290741 14079435
0.36900005 -0.059485134 0.13560553 13092538
0.37031883 -0.054827698 0.13476101 13093053
0.37082911 -0.045073532 0.13485815 12829881
0.37195182 -0.035224859 0.13467138 10921115
0.35900003 -0.020053925 0.13361144 1712409
0.36411294 -0.022756865 0.13479167 2238240
0.3721154 -0.027892889 0.1345554 7303527
0.35897124 -0.015334209 0.13518544 1515030
0.36030656 -0.01412695 0.13356669 1449494
0.35900009 -0.0087502012 0.13756144 1120532
0.36228454 -0.0050574089 0.13481615 3291185
0.36865634 0.0021976538 0.13752781 6711649
0.37033632 0.0056038783 0.13442382 8684925
0.36899987 0.015906865 0.13355026 11711402
0.37015903 0.013846513 0.13743065 9342856
0.36896613 0.025110083 0.1346712 11908780
0.37 0.020475 0.13943774 6908770
0.36887795 0.034314364 0.13473852 12435124
0.36999992 0.036599208 0.13150886 12895676
0.36900002 0.043799568 0.13575578 12303540
0.37018427 0.045751367 0.13344926 12764091
0.36899999 0.051456042 0.1371481 11251367
0.37051553 0.054981213 0.13353142 13356484
0.37095833 0.065025307 0.13333063 13553605
0.37122238 0.074868388 0.13346611 13619655
0.37194496 0.084374756 0.13319117 13355971
0.37584618 0.09321484 0.13274756 12040627
0.38078573 0.098562658 0.13255015 11318188
0.38343751 0.1046504 0.13311242 10593696
0.38500005 0.11079048 0.13247253 6842469
0.38390478 -0.12184714 0.14507754 12499377
0.37830514 -0.11280327 0.14586957 13421251
0.38122219 -0.11726865 0.14503616 13223101
0.37486774 -0.10475222 0.14508168 13750473
0.37196329 -0.094927512 0.1448641 13356229
0.37089649 -0.085039608 0.14519131 12961216
0.37077829 -0.074998714 0.14490817 12171698
0.3707113 -0.065266751 0.14373825 12040882
0.37097132 -0.055055134 0.14408834 10921887
0.37247607 -0.044570651 0.14350733 10658715
0.37403548 -0.034841701 0.14341076 8553339
0.36787504 -0.022250611 0.14688106 1251603
0.37258688 -0.027095277 0.14346041 6711392
0.36620507 -0.015212586 0.14563666 528137
0.37 -0.01243971 0.14983185 593930
0.36347499 -0.0067150528 0.14475857 1118991
0.36866668 0.0035742405 0.14104529 6975847
0.37064701 0.0082878713 0.14177485 7041641
0.37102571 0.014350209 0.14189614 8094070
0.37 0.020330638 0.14059263 8027250
0.37828571 -0.12056831 0.15419815 12565945
0.38000003 -0.12130552 0.1512126 13552836
0.37782302 -0.11502948 0.15403137 12040371
0.38000003 -0.11997113 0.15032302 13355457
0.37561768 -0.10734069 0.15296386 11711409
0.38200003 -0.10584596 0.15826833 9606031
0.37109992 -0.09353514 0.15092798 11119525
0.37038231 -0.086074509 0.15146489 10066579
0.37100002 -0.07934919 0.15023682 9474186
0.36390594 -0.023645813 0.15526435 1646617
0.36530057 -0.015069738 0.15503338 594186
0.37000003 -0.011635403 0.15094551 527879
0.36445898 -0.0063181198 0.15503918 1446154
0.37 -0.0094080931 0.15069802 528137
0.36202973 -0.023433978 0.16448832 1054736
0.359 -0.015851798 0.16949761 1252371
0.36106369 -0.014560599 0.16455424 923149
0.36298054 -0.0063887723 0.1647197 857101
0.34653911 -0.024394542 0.17674515 1449494
0.35448784 -0.022613661 0.17310654 594442
0.36206388 -0.024324197 0.17175011 725771
0.34633848 -0.014752674 0.17687333 1186323
0.35545212 -0.015307796 0.17272808 725516
0.36014292 -0.012408459 0.17053092 1120787
0.34609756 -0.0083847614 0.17671929 1186323
0.35705882 -0.0089804363 0.17496851 528393
0.36218911 -0.0045867115 0.17455471 2304034
0.36527267 0.0013125216 0.17698541 8290936
0.37050003 0.0035894008 0.17735519 8422009
0.33816203 -0.024270298 0.18762323 1317907
0.34188059 -0.024502574 0.1826673 1383700
0.33831453 -0.01503709 0.18763298 1186321
0.34147194 -0.015201012 0.18277453 1186066
0.33766663 -0.0084110182 0.18763281 1120786
0.3416875 -0.0083366651 0.18260357 1120274
0.36250001 -0.0020029563 0.18031459 1053450
0.36375001 0.0011829888 0.18125592 6974817
0.33699995 -0.0233729 0.19048649 1251858
0.33699992 -0.014880375 0.19050971 1251601
0.33700001 -0.0087267775 0.19043079 989199
