# .PCD v0.7 - Point Cloud Data file format
VERSION 0.7
FIELDS x y z rgb
SIZE 4 4 4 4
TYPE F F F U
COUNT 1 1 1 1
WIDTH 784
HEIGHT 1
VIEWPOINT 0 0 0 1 0 0 0
POINTS 784
DATA ascii
0.56725001 -0.09210445 -2.5612171e-05 15066845
0.57000005 -0.090553232 -0.0013601166 14935259
0.57600009 -0.087038673 -0.00085724867 15001052
0.58465219 -0.083358906 -0.0031868734 15132638
0.59080005 -0.08417704 -0.0069420421 15198174
0.58389658 -0.075748809 -0.0024843523 14869209
0.59000003 -0.079918526 -0.0069326423 13422020
0.58350003 -0.067255422 -0.00053873617 13816778
0.53728575 -0.10134654 0.0082388651 14869211
0.53866673 -0.099026151 0.0083822738 14935516
0.54528576 -0.095189415 0.0081803137 14935516
0.55362499 -0.094350241 0.0052345386 14869723
0.56333333 -0.091906153 0.0023891295 14935516
0.55558825 -0.086495139 0.0082354024 15001309
0.56450003 -0.085051186 0.0050644702 15067102
0.57307148 -0.083370492 0.0021761868 15001309
0.56584215 -0.076706208 0.0081287101 15067102
0.57521045 -0.074438743 0.0042893253 15066845
0.58050001 -0.07115683 0.0013327505 15198431
0.57617396 -0.066254109 0.0078294249 15001309
0.58272415 -0.064346254 0.0038757627 15264223
0.57866669 -0.058062553 0.0094565563 15198688
0.5836786 -0.055344146 0.0072418372 15001052
0.58679998 -0.046052989 0.0083983596 12698040
0.59025002 -0.042644173 0.0075728791 12040108
0.58900005 -0.039106712 0.0096254228 11908009
0.50550002 -0.10633414 0.018907819 15066845
0.51354837 -0.10344984 0.016491564 14869723
0.52437502 -0.10171388 0.013476683 15001309
0.53250003 -0.10079854 0.011192359 14935516
0.51658827 -0.096359454 0.018613657 14606551
0.52408701 -0.095472522 0.016402446 14935516
0.53474998 -0.095197223 0.012997109 15198688
0.54283339 -0.092374168 0.010988224 15198688
0.52480006 -0.086970814 0.018893292 14738138
0.53542107 -0.085580647 0.016662726 15132895
0.54489994 -0.084904768 0.013747449 15132895
0.55221432 -0.083105855 0.011146572 15067102
0.53850007 -0.078614868 0.01888526 14935516
0.54500002 -0.075734384 0.017542074 14935516
0.55425006 -0.075488694 0.014103688 14935516
0.56294113 -0.072989754 0.011677331 14935516
0.54699999 -0.067258187 0.019183354 14803930
0.55400002 -0.066501707 0.018021699 14803930
0.56437838 -0.064912736 0.015141591 14803930
0.5726155 -0.063431136 0.011418303 15067102
0.56567746 -0.05543014 0.017611386 14540758
0.57462966 -0.054816518 0.013270949 15067102
0.58100009 -0.051833905 0.011194852 15198688
0.5686667 -0.048628364 0.019499196 14540758
0.57582146 -0.045834888 0.01696394 14935516
0.58342308 -0.044146024 0.012944518 14935516
0.57726669 -0.034949038 0.017901452 14737882
0.58358824 -0.037743717 0.013869934 13750986
0.57600009 -0.026574502 0.017918436 12237746
0.49400002 -0.12011213 0.028889267 14604237
0.48900002 -0.11088311 0.029741624 14736847
0.49269232 -0.11416091 0.026037745 14671058
0.48657149 -0.10437073 0.028561635 14802642
0.49402383 -0.10645366 0.024501253 15000794
0.50468183 -0.10331612 0.021723783 15132638
0.51033336 -0.10058743 0.020684823 14869466
0.48455992 -0.095033236 0.028331779 14540244
0.4966 -0.095400907 0.025783788 14737880
0.50455552 -0.095707878 0.024055757 14935259
0.51219231 -0.094228975 0.021603378 14737880
0.48313338 -0.08602418 0.028929401 14079950
0.49370003 -0.085483186 0.027826926 14540501
0.5054546 -0.085678846 0.026650952 14672087
0.51459998 -0.084664881 0.023822429 14409173
0.52242863 -0.082467377 0.021116808 14540503
0.4842 -0.078732654 0.029221198 14343379
0.5165 -0.076609634 0.027435903 14343380
0.52382356 -0.074233867 0.024675671 14343380
0.53490007 -0.07307484 0.021254767 14606296
0.52652383 -0.066440433 0.026563505 14277586
0.53369999 -0.064712733 0.023373598 14474966
0.54350007 -0.065971173 0.020653086 14672345
0.55900002 -0.060015865 0.020912824 14672344
0.52500004 -0.050834876 0.029473124 13949137
0.53385723 -0.053924154 0.027198255 14146515
0.54422224 -0.055599768 0.024462476 14475481
0.55384612 -0.055672966 0.022212325 14606553
0.56019998 -0.053586572 0.020957718 14475735
0.52680004 -0.046689518 0.029574174 13817551
0.53361535 -0.045223895 0.027646016 13817551
0.5431667 -0.042203899 0.026252232 14080723
0.55433339 -0.041344639 0.024631353 14080723
0.56485713 -0.044113446 0.021884084 14343636
0.57240003 -0.042692207 0.020074135 14540758
0.54509091 -0.035776999 0.028860144 13817551
0.55388236 -0.034829542 0.026971888 13883344
0.5657059 -0.034021229 0.023960805 13883344
0.57350004 -0.034301672 0.021032734 14606808
0.55500001 -0.027491525 0.029075434 13817551
0.56435299 -0.026009468 0.026934234 13685965
0.57454544 -0.024305692 0.022346033 14080722
0.56818759 -0.015110409 0.028571488 13751756
0.57395834 -0.016168047 0.024711043 13488071
0.56820005 -0.0075314762 0.028705189 12895933
0.49400002 -0.12011213 0.031202193 13484729
0.48733336 -0.11228149 0.036441524 13485240
0.49148479 -0.11643454 0.034283865 13682619
0.47900003 -0.10076614 0.036982842 12761260
0.48267746 -0.1052103 0.034819126 13616826
0.47477144 -0.094453447 0.034948457 14209992
0.48019999 -0.098320782 0.031004766 14802129
0.4659501 -0.084310487 0.037523732 14605522
0.47342873 -0.085067719 0.032403305 14606037
0.45900005 -0.074300714 0.039736781 14803415
0.46446821 -0.075242832 0.036938518 14672087
0.47424248 -0.075440988 0.032739647 14146001
0.48100004 -0.073973708 0.03113021 13882573
0.49633336 -0.074591056 0.030571574 14145743
0.5 -0.073580101 0.030410657 14672087
0.45900002 -0.0680838 0.039736785 14606551
0.46500003 -0.065382175 0.038210366 14277587
0.47364596 -0.064481445 0.034253314 14080207
0.46716666 -0.055710044 0.038984559 14014414
0.47367865 -0.056837402 0.035496373 14146000
0.48475 -0.051757984 0.036432151 14277586
0.49225003 -0.051121719 0.035698783 14409172
0.50450003 -0.051211394 0.033046439 14212563
0.51514292 -0.052031152 0.032016918 14014673
0.523 -0.050641216 0.030585196 13751758
0.49572733 -0.047625776 0.037532013 14474965
0.50442863 -0.044033103 0.036114182 14343893
0.51427782 -0.044779792 0.033078775 14080977
0.52325004 -0.04473592 0.031006766 13817551
0.50508338 -0.036979768 0.038152862 14080466
0.51471436 -0.034717899 0.036120851 14080722
0.52425003 -0.034812603 0.034181822 13949391
0.53441185 -0.035221297 0.032279715 13949136
0.5434444 -0.032895267 0.031213488 13949137
0.51900005 -0.028991608 0.038856193 14014930
0.52557147 -0.026453655 0.038116805 13883344
0.53368753 -0.025045743 0.036670923 14014929
0.54530007 -0.025035664 0.033800166 14014671
0.55257142 -0.022822682 0.032313041 13817549
0.56050003 -0.021468177 0.030153925 13554379
0.5356667 -0.019469969 0.039265115 14014930
0.54699999 -0.014970374 0.038819809 13751501
0.55457145 -0.014797024 0.036319684 13882830
0.56280011 -0.014042114 0.032336198 13751499
0.55662501 -0.0068196347 0.038577083 13751499
0.56417769 -0.0049524568 0.034507819 13685706
0.56685185 0.0028411897 0.037226509 13488070
0.57050002 0.008866461 0.038705215 14080207
0.57300001 0.010916832 0.038874824 12106160
0.48470592 -0.1122511 0.043152686 13419704
0.49000001 -0.11799245 0.040126331 12104105
0.47869238 -0.10104644 0.045664612 12498345
0.48106793 -0.10593829 0.044833135 12695981
0.46807691 -0.091135651 0.045576677 12959153
0.47411114 -0.096268751 0.044372361 12761518
0.45829165 -0.081837505 0.045529861 13354168
0.46317023 -0.086530551 0.04468615 13157046
0.44884616 -0.071548827 0.047748387 13881284
0.45424289 -0.075524449 0.044632405 14078920
0.44576663 -0.064664394 0.046981815 14474193
0.45399982 -0.065274678 0.042044222 14606295
0.46300003 -0.06054794 0.040083077 14277332
0.43768185 -0.054118875 0.049113203 14606294
0.44473174 -0.055362679 0.046338536 14474965
0.45508331 -0.055215973 0.042911705 14211539
0.46221432 -0.054955833 0.040631916 14080207
0.43726671 -0.047353562 0.049386188 14409174
0.44455561 -0.044749115 0.047555726 14014160
0.45458969 -0.045612268 0.044012707 13882574
0.46261543 -0.04341181 0.041465558 13882829
0.47800002 -0.04460543 0.040262654 14080207
0.44511113 -0.03829585 0.04859921 13817294
0.45225 -0.039025761 0.046292521 13882574
0.47559264 -0.033115368 0.047313303 13817037
0.48353845 -0.033544492 0.043773033 14146000
0.49637502 -0.035569586 0.041225735 14211793
0.50450003 -0.032610249 0.040425912 13948621
0.47736362 -0.026864981 0.048130848 13751243
0.48126087 -0.023595875 0.046610538 13817035
0.49300003 -0.029847477 0.042680252 13882828
0.51733333 -0.028089294 0.041959677 13882828
0.52358824 -0.023618998 0.04150492 13751501
0.48626664 -0.017368598 0.048014011 13554377
0.49260002 -0.013400271 0.047116872 13224901
0.52500004 -0.019494494 0.042992499 13619402
0.53590006 -0.015748845 0.043008864 13948880
0.54341179 -0.012541627 0.042102084 13883087
0.49305889 -0.0058152559 0.048658378 13027521
0.54436588 -0.0055382666 0.045815293 13553609
0.55310529 -0.0040413248 0.041747905 13685708
0.56 -0.0011295754 0.040614787 13619402
0.49611112 0.0022298996 0.049271632 12829886
0.50200003 0.0060385624 0.049335357 12829886
0.54670006 0.0040183468 0.048542775 13224644
0.55438107 0.0040716846 0.045392837 13422023
0.56311119 0.0058544287 0.042691827 13356743
0.57000005 0.0095252963 0.040005673 14211793
0.53300005 0.015145801 0.049886439 12764093
0.54800004 0.01044053 0.049364887 12961472
0.55400008 0.011851432 0.047957834 12961472
0.56700003 0.014470614 0.045100331 13159108
0.57077777 0.015699463 0.041617427 12830655
0.57100004 0.020235777 0.046759464 13290437
0.40800002 0.043590818 0.049648616 12500918
0.41555995 0.057265844 0.048070993 13289663
0.42075002 0.058988899 0.04455106 12500146
0.41657138 0.065297343 0.047533035 14013384
0.42085317 0.064321809 0.043706805 12829110
0.41585717 0.073331647 0.047283165 14211275
0.4209412 0.072766721 0.043454934 13684676
0.47785714 -0.10298947 0.055847216 12630188
0.48040736 -0.10631137 0.053043637 12827567
0.46776921 -0.091329165 0.054649573 12498601
0.47286007 -0.09642604 0.055235669 12367016
0.45834616 -0.082432278 0.054538172 12103844
0.46241933 -0.086736865 0.055469479 12367015
0.44803339 -0.072227523 0.055042855 12696238
0.45300004 -0.07732071 0.055009656 12235686
0.43765521 -0.062358893 0.055302761 13486525
0.44263831 -0.0672388 0.054654181 13157302
0.42750001 -0.05202936 0.058211032 13881541
0.43288884 -0.055526499 0.0544184 14079178
0.41857144 -0.041859269 0.059333604 14408657
0.42463085 -0.044949882 0.056677703 14408658
0.43250006 -0.044821445 0.052006386 14409174
0.41737926 -0.034736607 0.058706317 14277332
0.42366672 -0.035928424 0.056296546 14277589
0.43536845 -0.035472017 0.053266469 13817551
0.44080004 -0.033563819 0.051919952 13685965
0.45100003 -0.030472087 0.051713794 13620172
0.46000001 -0.030003307 0.051668908 13554379
0.47000003 -0.03285611 0.050591592 13685965
0.41800001 -0.028079331 0.059345443 13882831
0.42433339 -0.026945163 0.058587294 13685710
0.43666667 -0.025119143 0.057369333 13554380
0.4429048 -0.026714254 0.054681346 13554379
0.45511115 -0.024459021 0.054321244 13422793
0.46633336 -0.02531454 0.053471986 13554379
0.47406903 -0.024410501 0.05140705 13553865
0.43900001 -0.019384231 0.059587177 13554381
0.44363162 -0.016630063 0.058573559 13488330
0.45510006 -0.014333889 0.057937212 13357000
0.46636844 -0.01524618 0.056516126 13291207
0.47431585 -0.015363734 0.053706914 13422279
0.48311111 -0.013344813 0.051307742 13422790
0.45700002 -0.0068067429 0.059711616 13225415
0.46486959 -0.0060017169 0.058312804 13093829
0.47417387 -0.0066963257 0.055331256 13159620
0.48481813 -0.0051385537 0.052833043 13094082
0.49062499 -0.0032850071 0.05080134 12961983
0.54300004 -0.0010952848 0.050822396 13290437
0.46650001 0.0017898206 0.059495226 12830658
0.47422224 0.0037397891 0.05856777 12896451
0.48444742 0.0048084627 0.056046743 12962242
0.49352169 0.0043860092 0.052316055 12764350
0.5025 0.0078120455 0.051345095 12632509
0.514 0.00979276 0.051717967 12698302
0.53733337 0.00855958 0.051130105 12895679
0.54275006 0.0052528894 0.050798994 13027265
0.40000001 0.017921304 0.059911996 12434871
0.48509091 0.013065824 0.058559943 12567486
0.49340004 0.015485685 0.05742006 12567486
0.50350004 0.013320785 0.054781672 12435643
0.5163334 0.015431371 0.053813767 12566972
0.52133334 0.01766564 0.052659899 12632507
0.53766674 0.01233809 0.050323218 12764093
0.54449999 0.011648532 0.050320178 12829886
0.40284851 0.026397422 0.057821043 12763835
0.49300003 0.020933887 0.059992079 12632509
0.50450003 0.022624314 0.0590294 12500923
0.51485717 0.025223358 0.058343686 12632509
0.52405554 0.025666298 0.055111211 12566715
0.53000003 0.029329058 0.052707501 12698300
0.40464938 0.035282455 0.056626532 13224384
0.51800001 0.031698961 0.059396334 12698302
0.52594125 0.033996969 0.058203023 12435130
0.53158063 0.035378683 0.054848481 12632508
0.40568817 0.044941783 0.055182308 13619398
0.52833337 0.042224403 0.059344362 12303544
0.53181821 0.04204946 0.056677151 12566715
0.40548569 0.054960504 0.055610843 14211534
0.41126323 0.055267021 0.050551731 13750214
0.40556368 0.064934708 0.055876087 14671315
0.41146669 0.064829968 0.050967459 14408143
0.40649071 0.072867252 0.056241356 14539729
0.41135997 0.073707044 0.051365364 14277070
0.47631702 -0.10319491 0.064490385 12761517
0.4683333 -0.0915794 0.063570395 12367015
0.47270602 -0.096520275 0.065224752 12367015
0.45827997 -0.081260093 0.064564526 12300967
0.46322909 -0.08629512 0.06527096 12367015
0.44857892 -0.071595937 0.064645924 11709343
0.45310417 -0.076032646 0.065413043 11775136
0.43682355 -0.062572658 0.0646763 12169895
0.44328946 -0.067451827 0.065083079 11906979
0.42576477 -0.053224567 0.064430572 12630447
0.43134376 -0.058209345 0.065082259 12367017
0.41586846 -0.043773297 0.065343276 13223098
0.42081824 -0.048270404 0.063295655 13354683
0.40659663 -0.033722743 0.067222059 13684421
0.41304481 -0.035800807 0.062866643 14145230
0.39800003 -0.024095936 0.069861419 14145743
0.40436846 -0.025303159 0.067028284 14014159
0.41396493 -0.024889875 0.062574014 13882575
0.42287502 -0.022874936 0.060612101 13685196
0.43300003 -0.020636277 0.060289755 13554381
0.4058519 -0.017634092 0.068559282 13816783
0.4154872 -0.016248401 0.066164643 13685197
0.42318434 -0.013444155 0.06525296 13685196
0.43535009 -0.013677545 0.062343307 13619661
0.44192863 -0.013672202 0.060870267 13488588
0.39799997 -0.0034954967 0.069446273 12632250
0.4011111 -0.0034726395 0.068215162 12369078
0.41900003 -0.0096731428 0.069624029 13158853
0.42618182 -0.0082938736 0.067775041 13356230
0.4342353 -0.006133134 0.06646958 13290438
0.44561297 -0.0053043384 0.063912019 13224903
0.45384002 -0.0035882273 0.061764956 13224903
0.46000001 -0.00092786551 0.060283855 13093060
0.39671114 0.006067717 0.068412535 13158849
0.40072215 0.0038263334 0.066064805 12500664
0.44850004 0.00049564999 0.067000359 12895680
0.45524246 0.0031897922 0.065077908 12764095
0.46368578 0.0063572382 0.063427404 12632764
0.47266671 0.0079049962 0.060832638 12698815
0.39639828 0.01547525 0.066250674 13290434
0.40000004 0.012958345 0.0629085 12566712
0.4664762 0.012165539 0.06632629 12369336
0.47400001 0.015175848 0.06427934 12435386
0.48353845 0.01688428 0.061187863 12567230
0.39620194 0.024749601 0.066453092 13882569
0.40048262 0.026413869 0.061437771 13421764
0.47690004 0.021032846 0.066849187 12237749
0.48373333 0.022427732 0.063914016 12369335
0.49433339 0.023956053 0.061566487 12500923
0.50424999 0.027513446 0.061554592 12369337
0.51000005 0.028819259 0.060866855 12764095
0.39678153 0.035179913 0.06634181 14079949
0.40057138 0.034713224 0.061335694 13948364
0.50600004 0.031555779 0.063349091 12369337
0.5138182 0.032870244 0.061648153 12500923
0.52385724 0.038537972 0.061465193 12237751
0.39727849 0.044830728 0.066586964 14145741
0.40044895 0.04541494 0.061623175 14145742
0.52577782 0.041746788 0.061653242 12171958
0.39828572 0.053299502 0.067778453 14343119
0.4004533 0.055615522 0.063239694 14474450
0.40109208 0.06488163 0.064802952 14539986
0.40262735 0.072561368 0.064362392 14408143
0.47639999 -0.10194977 0.07269039 12695980
0.46876922 -0.091185488 0.075782076 12169638
0.47284758 -0.096214585 0.07494776 12301223
0.45861116 -0.08090999 0.075133391 12235176
0.46359998 -0.086189806 0.074939691 12235431
0.44849998 -0.070726708 0.075050935 11643039
0.45347279 -0.075774461 0.074907504 12103589
0.43805563 -0.061674118 0.075013883 11577503
0.44291115 -0.066060938 0.074932054 11511710
0.426 -0.052868709 0.07485269 11511710
0.43204167 -0.057684168 0.075033531 11643296
0.40900001 -0.040081523 0.078973331 11511966
0.41421878 -0.043331835 0.074676238 11774882
0.42108336 -0.048495326 0.07670825 11446173
0.3987143 -0.030672964 0.076519907 11906725
0.40381712 -0.035014208 0.074576244 12169640
0.38875005 -0.021033367 0.079158016 13026490
0.39479342 -0.024878316 0.07459528 13025977
0.40000001 -0.029133158 0.070446581 13420736
0.38701245 -0.014711086 0.077231862 12961468
0.39275563 -0.015828326 0.072957836 13487557
0.40200007 -0.015933309 0.070560664 13882576
0.41433334 -0.011501429 0.070139267 13158853
0.38687369 -0.0053653587 0.076717347 13027518
0.3929593 -0.0053927386 0.071804203 13356227
0.41600001 -0.0096038841 0.070099391 13158853
0.38777086 0.0047053918 0.076324791 13356482
0.39205006 0.0044796467 0.071336702 13553605
0.38861439 0.013968891 0.077244915 13422018
0.39096606 0.015438644 0.072595008 13619397
0.389 0.021475827 0.07870359 13553604
0.39148197 0.025208306 0.074528091 13882569
0.39265135 0.035060328 0.074890085 13948362
0.39485604 0.044927698 0.074900813 14145227
0.39698383 0.055068582 0.075076945 14342349
0.3980183 0.064848855 0.075408392 14144970
0.40000004 0.065209858 0.070212476 14342350
0.3984243 0.071326576 0.075614505 14079691
0.40000001 0.071530618 0.070446581 14737108
0.47500002 -0.10103665 0.084489301 12104103
0.4687857 -0.091405861 0.08409027 11709345
0.47159576 -0.095713422 0.085033678 11840930
0.45900002 -0.080619954 0.082359701 12038053
0.46361539 -0.085335322 0.085152119 11775137
0.44900003 -0.070454597 0.082667604 11774625
0.45507938 -0.075267896 0.085139334 11840417
0.46000001 -0.079539247 0.089359291 11841185
0.43830773 -0.061108414 0.085303649 11643551
0.44455099 -0.066152774 0.08538036 11643295
0.42829999 -0.051398546 0.085308656 11511966
0.43303454 -0.056043193 0.085466631 11511966
0.40900001 -0.040081523 0.080888286 11511966
0.4140476 -0.042199738 0.083890423 11577759
0.4239738 -0.047509536 0.085656211 11511966
0.39840001 -0.030742189 0.086154416 11972262
0.40457326 -0.035134159 0.084792525 11775138
0.38691527 -0.022569614 0.085686766 11183774
0.39345768 -0.027232429 0.084406532 12104105
0.37899998 -0.011677603 0.08888492 2238753
0.38203242 -0.015363875 0.084645323 2830893
0.37900007 -0.0072216592 0.088904634 2239010
0.38148332 -0.0048155226 0.084421098 3028273
0.38447636 0.0045335009 0.084876969 12764089
0.38656479 0.014695657 0.084910654 13290432
0.38832322 0.024624756 0.085053772 13684933
0.39000002 0.027972739 0.080326125 13685190
0.38899997 0.031197589 0.086458348 13816776
0.39108324 0.03584668 0.084658794 13816776
0.39331362 0.044944663 0.085031226 14079691
0.39488035 0.055039424 0.084972695 14342350
0.39554164 0.065055989 0.085047409 14079692
0.39627281 0.071391083 0.084984668 14277329
0.47101921 -0.093385868 0.094873615 11972515
0.46575418 -0.084959686 0.094730042 11906978
0.47000003 -0.088970311 0.097903572 11972771
0.45563075 -0.074512132 0.09502206 11906978
0.46077776 -0.079673737 0.094905667 12038564
0.43900001 -0.060492504 0.091446094 11643806
0.44520003 -0.064676911 0.095028922 11840929
0.45055559 -0.069234028 0.096316189 11906722
0.42899996 -0.050075881 0.093882374 11972259
0.43412852 -0.055116791 0.09471269 11709344
0.44000003 -0.059600256 0.097834691 11906211
0.40900001 -0.040081523 0.099559069 12432555
0.41548276 -0.042063639 0.095428407 12300968
0.42342505 -0.046532091 0.094514586 12103845
0.38900003 -0.030836301 0.096815526 12235691
0.39218751 -0.03218779 0.096617468 12301225
0.40572414 -0.036685523 0.094984852 12366762
0.41120005 -0.03914253 0.093163781 12235432
0.37866667 -0.020266049 0.099266253 2960162
0.38517466 -0.025038965 0.095024034 11117467
0.39000002 -0.028633079 0.090825595 12235691
0.37682295 -0.014073337 0.095806248 2173221
0.38079998 -0.018093208 0.092574127 2172705
0.37698507 -0.0053850194 0.095265016 2304036
0.38000003 -0.00098889438 0.091387898 2436132
0.37833336 0.00041803779 0.098095238 11447456
0.38237596 0.0051371027 0.094685085 12040366
0.38447767 0.015050285 0.094908006 13158846
0.38593167 0.024870418 0.094911419 13685190
0.38836548 0.033916391 0.095311746 13816776
0.39031819 0.038296409 0.092601247 13882569
0.38900003 0.040194869 0.099243939 13948362
0.39166895 0.045195844 0.094995633 14079435
0.39213711 0.055192016 0.095030762 14210764
0.39232799 0.065080605 0.095164724 14079178
0.39336669 0.07115788 0.094577685 13289920
0.47202435 -0.092482336 0.10457773 12038308
0.46611115 -0.083875909 0.1051685 12103846
0.47023538 -0.088432342 0.10468754 12038308
0.45581037 -0.074223801 0.10497158 12038053
0.46086666 -0.079258353 0.10571064 12103845
0.44633928 -0.063994586 0.10513872 11906211
0.45094737 -0.068973966 0.10476853 11840417
0.42875001 -0.050548259 0.10386273 12761776
0.43496487 -0.054750279 0.10439429 12103590
0.44081822 -0.059242666 0.10533314 11972003
0.39735293 -0.041566197 0.10755514 12301225
0.40544444 -0.041420177 0.10437548 12367020
0.41571432 -0.044314813 0.10402299 12367276
0.42365524 -0.04781634 0.10349724 12498348
0.38788891 -0.031387839 0.10635193 12235948
0.39413235 -0.035704948 0.10543443 12235690
0.4036667 -0.038461514 0.10132562 12432555
0.37793341 -0.020994656 0.10600153 6381914
0.38301989 -0.025995739 0.10466032 11380896
0.36899999 -0.013269926 0.10969048 2238240
0.37308833 -0.014748696 0.10506191 2107426
0.37253952 -0.0052018091 0.10505878 2107169
0.37720764 0.0020596646 0.10523054 11645608
0.38128397 0.0073322225 0.10461172 12435123
0.38195461 0.015326296 0.10504328 13027260
0.38429505 0.025319949 0.1049504 13685189
0.38734764 0.03504419 0.10516453 13882312
0.38883021 0.044359591 0.10611191 13947592
0.39003849 0.046378013 0.10137008 14144971
0.38863447 0.054908779 0.10673983 14078922
0.390275 0.054625321 0.10171545 14210764
0.38830405 0.06477385 0.10604057 14078921
0.39010721 0.064574927 0.10118961 14078922
0.38866666 0.070550278 0.10558654 12961210
0.39000002 0.070883602 0.10041206 12500147
0.47052389 -0.091168247 0.11348436 12104102
0.46663797 -0.083878703 0.11532193 11972516
0.47000012 -0.088655941 0.11401478 12038309
0.45676747 -0.073415712 0.11464421 11840674
0.46136847 -0.077844776 0.11611658 11840931
0.44786212 -0.062403455 0.11361336 11906467
0.45213956 -0.066984251 0.11562384 11906467
0.43650001 -0.055044595 0.11084856 12235176
0.44310004 -0.058362961 0.11284304 12103846
0.39578947 -0.04137361 0.11330096 12432555
0.40500003 -0.045387566 0.11802638 12564141
0.38398901 -0.033572368 0.11562015 12301484
0.39428005 -0.038125649 0.11218055 12301226
0.37745714 -0.023402253 0.11556188 8683898
0.38070586 -0.027436759 0.1137792 11315103
0.36812499 -0.013545596 0.1151872 1712668
0.37124991 -0.018403852 0.1145114 2172963
0.36808655 -0.0055562984 0.11595251 2107426
0.37060603 -0.0031109129 0.11177035 2239527
0.36866668 0.00011941811 0.11908421 11316642
0.37852851 0.00559521 0.11620527 11711658
0.38023692 0.0075729629 0.1125145 12171951
0.37869763 0.014060545 0.11801516 12632502
0.38075 0.015784109 0.11376855 12895674
0.3824769 0.025262175 0.11510947 13750983
0.38492987 0.035273381 0.11515366 13882569
0.3864001 0.045207787 0.115362 13750468
0.38620761 0.055153355 0.11515938 13749956
0.38568461 0.06507086 0.11517281 13815750
0.38633335 0.070669375 0.11408728 10921887
0.46694651 -0.083537295 0.12496235 11840672
0.47000003 -0.088970311 0.12100942 11643806
0.45837036 -0.072184652 0.12449466 11906465
0.46221942 -0.076787382 0.12536484 11906465
0.44900003 -0.062921584 0.12401155 12169637
0.45262498 -0.065887861 0.12342969 12038051
0.41555557 -0.052472409 0.1278498 12301224
0.38722226 -0.041775536 0.12769403 12300969
0.39357144 -0.041906603 0.12294611 12301225
0.40528575 -0.045755353 0.12447719 12367018
0.41242862 -0.048556574 0.12680537 12367019
0.37848282 -0.031744145 0.12625618 12038825
0.38319996 -0.035922896 0.12453657 12367532
0.37714031 -0.025613243 0.12490883 9605255
0.38000003 -0.029233279 0.12007707 11578531
0.36557263 -0.013619622 0.12495665 1843996
0.37061536 -0.019368384 0.12338444 1974815
0.3653053 -0.0052181678 0.12492829 2237981
0.36818182 0.00043338307 0.12307985 11119003
0.37644657 0.0062092901 0.1245308 11382436
0.37815091 0.015165893 0.1248111 12369331
0.38000003 0.019694 0.12052186 13158847
0.3787353 0.022680314 0.12757799 13224639
0.3807041 0.025870496 0.12414373 13619397
0.38195556 0.03496081 0.12499898 13882312
0.38404521 0.045080017 0.12539466 13816005
0.38406792 0.054969136 0.12540326 13881541
0.38383946 0.064789064 0.12529191 13684162
0.38500002 0.070425481 0.12886736 9934989
0.46572503 -0.082521379 0.1349832 12169637
0.45883343 -0.071401089 0.13591635 12038052
0.46257889 -0.076097056 0.13490474 12169637
0.45539403 -0.067570135 0.13504419 12038051
0.41311774 -0.052660964 0.13122296 12235432
0.37800002 -0.041468084 0.1397979 12235178
0.38547373 -0.042053372 0.13377225 12300969
0.40900001 -0.047741331 0.13067704 12235689
0.41200003 -0.04905602 0.13067107 12367275
0.37709427 -0.034184467 0.13579282 12039081
0.38174188 -0.037874084 0.1328757 12367788
0.3760646 -0.025931872 0.13500771 9276548
0.36504018 -0.014618795 0.13263254 1909788
0.37174997 -0.015434283 0.13839522 1120016
0.36517784 -0.0046854806 0.13268675 2106139
0.37131816 -0.0056494805 0.1382764 1251345
0.37640011 0.0066391602 0.13559733 11119264
0.37728232 0.015195164 0.13492045 12237744
0.37806845 0.024872288 0.13499005 13224639
0.38000003 0.029479455 0.1307521 13619397
0.37862018 0.033670258 0.13685031 13619396
0.38043317 0.036520444 0.1330521 13750982
0.37887505 0.042733744 0.13871667 13553604
0.38107029 0.04516666 0.13446413 13750725
0.38125411 0.054867502 0.13518779 13882311
0.38179669 0.064788319 0.13478984 13486782
0.38325003 0.070105366 0.13209336 10197393
0.46500006 -0.081496447 0.14326151 11840673
0.45889479 -0.071771868 0.14359422 12038051
0.46161529 -0.076041922 0.14608897 11972258
0.43000001 -0.061265614 0.14996959 11709086
0.45784619 -0.068944328 0.14369099 12103845
0.42650002 -0.05927103 0.14825146 12169637
0.37800002 -0.040804405 0.14156771 12103848
0.37512198 -0.034793578 0.14315367 11447203
0.37459388 -0.024591548 0.14347926 7369324
0.37413961 -0.014738999 0.1453329 791309
0.36900002 -0.0011762275 0.14942691 2299405
0.37371084 -0.005333405 0.14513831 790795
0.36900002 0.00011952608 0.14942691 3019533
0.37579992 0.0058994936 0.14458811 9868940
0.37583789 0.014985129 0.14412476 11185057
0.37662596 0.02492694 0.14434686 12369332
0.37767425 0.035005882 0.14476992 12895675
0.37853914 0.045119748 0.14469713 13092797
0.38000003 0.049643427 0.14083409 13685188
0.37900001 0.051392894 0.14606157 13093053
0.38004631 0.055811826 0.14476466 13290431
0.38084173 0.064192988 0.14433582 13224123
0.45400003 -0.071416296 0.15798496 12038051
0.46084625 -0.075123198 0.15276097 12103844
0.435 -0.063256204 0.1524772 12169637
0.44383338 -0.067309149 0.15599732 12103844
0.45199999 -0.069690838 0.15658198 12038051
0.37100002 -0.020724252 0.15023682 2370341
0.359 -0.014170947 0.15966463 923408
0.37333342 -0.015173722 0.15118171 856588
0.37116671 -0.0072664651 0.15030432 593160
0.37800002 0.039943159 0.15041675 9079685
0.37800002 0.042155422 0.15041675 9869200
0.34553859 -0.02197654 0.16810688 1449494
0.35900003 -0.02089435 0.16806889 528137
0.36107153 -0.022087893 0.16432877 1120272
0.34533712 -0.014993466 0.1680129 1120786
0.35603881 -0.014276036 0.16483264 1121043
0.36013645 -0.01858478 0.16319759 1186576
0.34630314 -0.0058185114 0.16891111 1252372
0.3555041 -0.0059100548 0.16632287 988688
0.36095241 -0.0047887955 0.1622823 923152
0.35469565 0.0016318724 0.16857864 6646115
0.33781585 -0.022345992 0.17798123 1383445
0.34147817 -0.022979971 0.17319319 1777947
0.33775595 -0.015088004 0.178148 1317909
0.34143457 -0.015005374 0.17328107 1318166
0.33784783 -0.0065953932 0.17853795 1252116
0.34197512 -0.0055038137 0.1736266 1186579
0.354 0.002499287 0.17080253 5462100
0.33411783 -0.022280665 0.18400557 1317651
0.3343845 -0.014764817 0.18432401 1317652
0.33453447 -0.0054477178 0.18389665 1186324
0.79166675 -0.13614844 0.27721834 9999501
0.79357147 -0.1444532 0.284798 9736585
0.78900003 -0.13088591 0.28995332 13289664
0.7906667 -0.13557085 0.28518909 10131087
0.79388887 -0.14491653 0.29505372 9802122
0.78845459 -0.13213855 0.29596081 11710632
0.79038894 -0.13646254 0.29436997 9604743
0.77900004 -0.12102061 0.29691634 14079950
0.78350002 -0.12585159 0.29595271 13816266
0.7778334 -0.11658903 0.29631999 14145743
0.78000003 -0.11113297 0.29851481 14277329
0.78100002 -0.10944711 0.29981166 14277329
0.7938571 -0.14450453 0.30534306 9539464
0.78768426 -0.1328055 0.3048999 10788761
0.79062498 -0.13786542 0.30512625 9341829
0.77858347 -0.12277902 0.30526286 13882571
0.78241664 -0.12704723 0.3049334 13749959
0.77777147 -0.11549557 0.30507466 14145743
0.78000003 -0.11113297 0.3012538 14145743
0.77900004 -0.10825502 0.30785826 14014157
0.78110731 -0.10462727 0.30455431 14079950
0.7830556 -0.095374331 0.30671144 13948364
0.78546673 -0.085799053 0.30741107 13685192
0.787 -0.07466545 0.30948448 13685192
0.78725004 -0.064711176 0.3095828 13685192
0.79283345 -0.16493134 0.3145574 10328977
0.792656 -0.15474412 0.31454772 10263441
0.7926895 -0.14506505 0.31524009 9539462
0.78731817 -0.13329174 0.31513727 10196882
0.79028571 -0.13823529 0.31473991 9276036
0.77850008 -0.12240078 0.31525573 13816778
0.78145462 -0.12664241 0.31511936 13881802
0.77821416 -0.11543152 0.31488007 14079950
0.78000003 -0.11113297 0.31951374 14145743
0.77900004 -0.10843738 0.31326842 14079950
0.78140008 -0.10415844 0.31540412 13948364
0.78438461 -0.095158353 0.31523651 13750985
0.7859332 -0.085299253 0.3145853 13685192
0.78684008 -0.075265795 0.31494769 13816521
0.78743345 -0.065185912 0.31518507 13750985
0.78666681 -0.058063064 0.31426448 13750985
0.79175001 -0.17490049 0.3246755 10329748
0.79184008 -0.16472273 0.3243663 10132369
0.79306644 -0.1547669 0.32486928 10132368
0.792 -0.14416663 0.32502431 9276290
0.78733337 -0.13333358 0.32506216 9802637
0.79000002 -0.13844942 0.32545948 9144705
0.77900004 -0.12010878 0.32092774 13948364
0.78258342 -0.12448014 0.32545891 13618889
0.77900004 -0.11737329 0.32092774 14014157
0.78190899 -0.11498228 0.32595602 14079696
0.78325015 -0.10491402 0.32477602 14079951
0.78519219 -0.095186524 0.32510504 13948364
0.78583312 -0.085288845 0.32466182 13882571
0.7863 -0.075214967 0.32485449 13816778
0.78641695 -0.065101743 0.32490054 13685449
0.79368001 -0.17476761 0.33448434 10263956
0.79275006 -0.14450435 0.33494392 9144705
0.78800011 -0.13353316 0.33500117 9407624
0.79000002 -0.13844942 0.33470649 8947071
0.78463995 -0.12465384 0.33537582 13026495
0.78492314 -0.11465911 0.33531377 13947853
0.78603846 -0.10484377 0.33472985 13882317
0.78659254 -0.095089324 0.33531189 13356486
0.78671443 -0.085055374 0.33496097 13356228
0.78664011 -0.075248167 0.335127 13356227
0.78539288 -0.065346859 0.33439854 13356228
0.78863639 -0.13216871 0.3443675 9079170
0.79092854 -0.13676192 0.34554887 9013633
0.78709102 -0.12529427 0.3450346 10460569
0.78751719 -0.11480869 0.34484607 12566456
0.78841186 -0.10527372 0.34369734 13092545
0.79025 -0.10449901 0.34891877 10526872
0.78876919 -0.095194824 0.34270778 13093574
0.79054546 -0.094632626 0.34705168 11843508
0.78900003 -0.084709331 0.34259462 12962244
0.79109997 -0.084934331 0.34721142 10856867
0.78880006 -0.075455591 0.34250799 13159105
0.79133338 -0.074770957 0.34731379 10461852
0.78855562 -0.066611327 0.34250477 13487813
0.79100007 -0.064966105 0.3472704 9803409
0.79200006 -0.059074219 0.34853247 8290169
0.79347628 -0.13543642 0.35511073 9672076
0.78900003 -0.12534472 0.35090637 9079942
0.791125 -0.12533556 0.35567302 9342855
0.78900003 -0.11795647 0.35090637 8882050
0.79095 -0.11482133 0.3548308 9211268
0.79304546 -0.10505518 0.35566247 9211012
0.79299992 0.1349082 0.3549462 9672588
0.79408002 0.14525612 0.35502499 9803918
0.78866673 0.12426504 0.36260447 9475467
0.79000002 0.12925184 0.36198521 9738639
0.79203707 0.13582017 0.36482349 9541260
0.79381239 0.15513654 0.36523944 9607052
0.79383343 0.17494351 0.36513186 9738637
0.79222226 0.18478952 0.36439171 9738638
0.7924332 0.19504264 0.36448866 9804176
0.79323334 0.2045252 0.36485693 9869969
0.79300004 0.22117171 0.36103928 3287841
0.79356658 0.15506737 0.37492093 9672589
0.79373085 0.16541773 0.37545311 9737869
0.79372007 0.17491907 0.37530556 9738381
0.79223335 0.18479134 0.37460166 9738639
0.79103726 0.19490382 0.37444597 9804432
0.79085314 0.20456403 0.37508854 9738639
0.7929033 0.21449906 0.37467089 8355959
0.79363346 0.15446296 0.38547885 9541004
0.79270369 0.19469365 0.38499686 9672846
0.79090023 0.20484695 0.38508061 9803919
0.79090005 0.21410549 0.38508064 8356474
0.79361904 0.15463707 0.39498547 9606283
0.79149997 0.20500326 0.39556009 9803662
0.79192001 0.21508566 0.39573279 8027255
0.79100001 0.22153977 0.39994124 2893337
0.79246676 0.13741711 0.40402281 9409674
0.79299992 0.18504009 0.40451798 9737869
0.79124153 0.19462061 0.4048526 9737869
0.79093355 0.20485751 0.40546304 9803661
0.79100007 0.21485034 0.40508434 7434086
0.78850007 0.2245308 0.4051384 2827544
0.79000002 0.22172205 0.40452155 2959131
0.79283339 0.13837688 0.41416872 9343882
0.79326665 0.14510754 0.41501325 9409418
0.793441 0.155081 0.41532126 9475211
0.79365611 0.16526777 0.41498521 9540747
0.79395998 0.17497212 0.41444996 9606283
0.79299992 0.18486644 0.41470483 9672076
0.792 0.19493484 0.41528079 9672076
0.79141384 0.20482244 0.41503638 9737869
0.79180777 0.21506192 0.41510823 7697516
0.78900003 0.22375023 0.41001242 2761751
0.79055554 0.22131215 0.41411272 2827291
0.78900003 0.13601473 0.42848301 9409674
0.79066676 0.13784438 0.42414042 9343882
0.79093349 0.14468087 0.42490217 9343882
0.7918666 0.15504743 0.42447841 9343882
0.79251999 0.16537994 0.42482811 9474697
0.79376644 0.17493095 0.42456579 9606282
0.7937429 0.1850104 0.42468652 9672075
0.79243994 0.19504248 0.42478612 9671820
0.79133344 0.20496079 0.42419297 9672076
0.79231989 0.21541785 0.42472216 8355189
0.79305571 0.22366269 0.42542559 2498581
0.78900003 0.13767709 0.43254656 9343881
0.79000002 0.13834475 0.43580723 9541259
0.78900003 0.14063238 0.43402424 9343881
0.79087502 0.14482585 0.43505719 9409418
0.79299992 0.15493822 0.4341715 9409674
0.79306901 0.16530026 0.43498346 9409674
0.79311109 0.17457969 0.43484205 9541002
0.79325008 0.22193789 0.43520126 2827291
0.79000002 0.13834475 0.44073901 9343879
0.79305273 0.14526694 0.44446278 9343625
