# .PCD v0.7 - Point Cloud Data file format
VERSION 0.7
FIELDS x y z rgb
SIZE 4 4 4 4
TYPE F F F U
COUNT 1 1 1 1
WIDTH 404
HEIGHT 1
VIEWPOINT 0 0 0 1 0 0 0
POINTS 404
DATA ascii
0.44900003 -0.020876903 -0.041013841 12170416
0.44900003 -0.017723551 -0.041013841 11906987
0.45500001 -0.070153393 -0.030910276 11051417
0.45400003 -0.062205169 -0.031816598 13815492
0.44900003 -0.050728627 -0.031343564 15000279
0.45192006 -0.055382095 -0.032054991 14276302
0.44862866 -0.044747047 -0.032038573 13288893
0.44683045 -0.034609694 -0.033070739 13748415
0.44415504 -0.024708603 -0.033767402 13091518
0.44442171 -0.015003499 -0.035131551 12959931
0.4390001 -0.0038895728 -0.031246301 11908006
0.44245765 -0.0052822465 -0.035437282 13617858
0.43900007 0.0021976139 -0.031193594 10328720
0.44229588 0.0051318794 -0.035128936 11973290
0.44396007 0.011828951 -0.033735104 12236463
0.45700002 -0.090788819 -0.0214191 11052446
0.45564008 -0.084443562 -0.023021076 13881543
0.44900003 -0.070279412 -0.021042615 15789285
0.45350012 -0.075232163 -0.024401098 14406861
0.44806907 -0.063806392 -0.02244783 14867924
0.45225009 -0.06567318 -0.02669072 13946052
0.44688058 -0.054521307 -0.024434309 14012613
0.4508667 -0.057063136 -0.028589832 11906468
0.44472095 -0.044931047 -0.024897097 13288894
0.43900007 -0.03253888 -0.021087812 10919826
0.44252127 -0.035401247 -0.025402581 13815236
0.43841669 -0.024427416 -0.022601252 12038567
0.44119054 -0.025829185 -0.027171269 14144201
0.43725604 -0.014266618 -0.024282226 12828084
0.44016668 -0.016803009 -0.029044207 12302001
0.43587768 -0.0049614771 -0.025029158 12499633
0.4376263 0.0039241081 -0.024871584 11315102
0.44047061 0.0088777021 -0.026527096 10328464
0.44571432 0.012373934 -0.025326282 9800834
0.45335907 0.017077876 -0.024290344 9340796
0.45775005 0.021312833 -0.020648548 10855062
0.45700002 -0.10041742 -0.010719087 13288381
0.4542554 -0.09373118 -0.013845965 13551808
0.44806674 -0.083317302 -0.012295126 14538960
0.45210421 -0.086069159 -0.016232016 13420479
0.44610268 -0.07455577 -0.014652949 13683649
0.45020002 -0.078477256 -0.018569618 12170150
0.43900007 -0.062547922 -0.01063946 11315358
0.44308445 -0.06508185 -0.015590284 13749956
0.43847623 -0.054237764 -0.012241472 12827825
0.44167316 -0.055434145 -0.017105052 13815491
0.43753517 -0.044768956 -0.013659185 13354942
0.44045448 -0.045978151 -0.018768035 13156793
0.43649507 -0.035069108 -0.014799884 13223097
0.43493012 -0.024806852 -0.014789088 12499375
0.43337208 -0.014864178 -0.014866451 12433839
0.4329997 -0.005240621 -0.014596439 12302510
0.43675995 0.0047540064 -0.014846041 10460307
0.43900001 0.010419269 -0.013380012 10264723
0.44106254 0.011503975 -0.014022128 11185053
0.45863637 0.018547898 -0.01539098 8750199
0.46000001 0.019532632 -0.014020057 10197130
0.45895004 0.021744439 -0.015975347 10131852
0.46000001 0.023016619 -0.013006534 11776677
0.45366669 -0.10157289 -0.0016735025 14342099
0.44753134 -0.092740998 -0.0027749997 13091515
0.45270008 -0.096488044 -0.0061495067 13617602
0.43866673 -0.082098253 -0.0011329604 15657953
0.44380289 -0.085333176 -0.0052844603 13683393
0.43683332 -0.074495085 -0.0029410408 14210251
0.44129023 -0.076074705 -0.0078867273 12499631
0.43547305 -0.064974502 -0.004549155 13881030
0.44000003 -0.069385715 -0.0092902975 11644837
0.43377316 -0.055063568 -0.0044911955 13881028
0.43247986 -0.044915438 -0.0045876275 13683393
0.43192977 -0.034745604 -0.0045793611 12960182
0.43136445 -0.024791485 -0.0046978584 12433839
0.42878565 -0.012624339 -0.00095175434 10722706
0.43031257 -0.015627105 -0.0050332164 12368303
0.42785725 -0.0060624308 -0.0017870095 12762546
0.43060356 -0.0048969775 -0.0065560075 12565165
0.42900002 0.00047372677 -0.00035413555 8420725
0.43432987 0.0048578139 -0.0047344454 10986649
0.43757147 0.011361569 -0.0029989807 11250334
0.44240004 0.013194477 -0.0078890733 11645097
0.45735717 0.018885488 -0.0062240129 9737097
0.45767349 0.023239763 -0.0052992781 10986905
0.44614291 -0.10071523 0.00488964 12893620
0.45200002 -0.10249318 0.0010377317 11709865
0.43815389 -0.091700353 0.0074739954 13552578
0.4432666 -0.095794365 0.0048294049 13288895
0.434863 -0.084570058 0.0053249416 13617860
0.44033337 -0.088852733 0.0016976452 14342354
0.42739287 -0.073402219 0.0084105404 12762292
0.43177414 -0.075491942 0.0040499112 14078664
0.42643753 -0.064829431 0.0071959062 13025462
0.43052948 -0.065226167 0.0022322068 13617084
0.42629731 -0.054951783 0.0067154784 13092026
0.43000004 -0.055435497 0.0017841443 13092026
0.42622909 -0.045031976 0.0056446269 13157562
0.43000001 -0.046166047 0.00098722253 11710373
0.42634103 -0.03538109 0.0061951084 13354941
0.42999998 -0.034014493 0.0012748333 12235945
0.42675531 -0.025255624 0.0055573722 12894645
0.43000001 -0.029053207 0.00098722253 13683135
0.42622975 -0.015331592 0.0054585738 12499118
0.42428997 -0.005325635 0.0054351813 12631474
0.42673481 0.0024253062 0.0064595714 10920599
0.43157446 0.0067648259 0.0041033453 11710371
0.43442863 0.011657692 0.0046515516 10987416
0.44300005 0.015363235 0.0037989786 11315868
0.45366669 0.018910209 0.0068246531 9144186
0.45459685 0.023578653 0.0054874732 11184285
0.43850002 -0.10045853 0.014864394 14933722
0.42800006 -0.09087234 0.018514903 15526112
0.43483824 -0.094791703 0.014174166 13354942
0.44000003 -0.098742075 0.010280613 11973034
0.42557538 -0.084166117 0.016033528 13880516
0.43087506 -0.086777933 0.011663005 11709348
0.41814294 -0.072582424 0.018928653 11249055
0.42296427 -0.075353079 0.014585395 13617344
0.41751224 -0.064421996 0.017953372 11644069
0.42159662 -0.065314934 0.013291745 14934231
0.41733998 -0.055065546 0.017563745 12037798
0.42133978 -0.054913312 0.012856355 14803416
0.41733342 -0.045189179 0.017524974 12169898
0.42120004 -0.04472791 0.012796692 14802642
0.41733339 -0.034945149 0.017599784 11579047
0.42154011 -0.034895051 0.012806797 14143943
0.41728008 -0.024775328 0.01756108 11447460
0.42190006 -0.025048522 0.012816284 13354941
0.41692606 -0.014777409 0.017328462 11841703
0.42134783 -0.015411338 0.01262975 12630961
0.41718191 -0.0055801007 0.01723698 12302253
0.42064455 -0.0048528193 0.012628119 12104873
0.41850001 0.00087063969 0.019330204 8882303
0.42382824 0.00483954 0.015013416 11446944
0.43000001 0.0091990242 0.010046963 12172206
0.42703339 0.011502093 0.016701909 10394511
0.4303529 0.012646356 0.012250255 11053212
0.45400003 0.019277858 0.010607723 12565426
0.44829419 0.025700938 0.018096622 11908265
0.45213449 0.024671998 0.013326674 10394771
0.41900003 -0.090596288 0.028917234 14341839
0.42527401 -0.094486952 0.025308626 13092029
0.43000004 -0.096497931 0.020784432 14539734
0.41615003 -0.083862104 0.026829099 13288893
0.42166683 -0.08629588 0.022627708 12630965
0.40900001 -0.071869738 0.029471805 14012615
0.41420007 -0.075092547 0.024992321 13683651
0.42000002 -0.079505384 0.020628816 10131087
0.40848285 -0.06423454 0.028767686 13947851
0.41289288 -0.065248825 0.02387069 13355713
0.40814289 -0.054626089 0.028052548 13617601
0.41254175 -0.05507521 0.02304573 13355714
0.40766662 -0.045096964 0.02761713 13682880
0.41249189 -0.04485622 0.022707565 13158591
0.40722597 -0.034895498 0.027284674 12696241
0.41264442 -0.035823025 0.022365402 13684164
0.4070729 -0.025338884 0.027352728 12565424
0.41244078 -0.024563113 0.022461416 13355711
0.40693566 -0.014896575 0.027279742 12105388
0.41220757 -0.015015073 0.022335593 13881284
0.40649149 -0.0052704052 0.027006162 11972519
0.41241667 -0.0050941478 0.02218233 13486011
0.40826666 0.0014076319 0.028334262 12105389
0.41427919 0.004896448 0.025332121 11644582
0.42112502 0.0072861714 0.021176564 12499889
0.4165926 0.013212214 0.028042888 10263443
0.42212513 0.013105243 0.023536848 11446687
0.43666673 0.027665226 0.027498778 11184546
0.44299996 0.025620097 0.023292862 11315873
0.43371433 0.03117737 0.028110091 11448228
0.41607466 -0.093854122 0.03599795 12960186
0.42050004 -0.095227495 0.031604365 11117987
0.40719521 -0.082989149 0.037409179 12170925
0.41256666 -0.086167954 0.033586022 13618371
0.40552881 -0.074722826 0.035303392 13026233
0.41040006 -0.078841306 0.031109517 14014156
0.40386599 -0.065063253 0.034954663 13355199
0.3982501 -0.053519521 0.039060041 14867668
0.4030816 -0.055282515 0.034140382 13157819
0.3975251 -0.044797245 0.038576774 14867924
0.40234873 -0.045069531 0.033486657 12894390
0.3971667 -0.035116285 0.038133588 14144458
0.40247932 -0.034989387 0.032874174 12565167
0.39675412 -0.024722308 0.037784286 13420478
0.4020294 -0.025279805 0.032749571 12170926
0.39599994 -0.014571383 0.037254911 13158589
0.40178692 -0.015151215 0.032233879 12368561
0.39622849 -0.0053407419 0.037104588 12697012
0.40135297 -0.004622214 0.032052357 12170925
0.39855558 0.0012707361 0.038857467 10000012
0.40358657 0.004952326 0.034940917 11645352
0.41100001 0.0086333668 0.031091228 11249310
0.40508351 0.014022971 0.037112035 11973545
0.41219446 0.014422442 0.031954303 12565939
0.40700001 0.020140516 0.039998982 8091502
0.41766673 0.024913661 0.039197877 10131085
0.42463461 0.026458878 0.035793405 11578530
0.4308823 0.026958549 0.031308051 13026745
0.42499995 0.032472607 0.035286266 11579816
0.43020004 0.030956512 0.030797739 11514277
0.40691304 -0.093307026 0.046818424 13618628
0.41269439 -0.095518045 0.042380061 11907498
0.39829999 -0.081831656 0.048467077 13222329
0.4032211 -0.085417949 0.044682067 12762806
0.39668348 -0.074518196 0.046629809 12433840
0.40064994 -0.075750515 0.041812103 14408401
0.39531416 -0.064874507 0.045097981 12960441
0.40000001 -0.068040885 0.040434729 15330015
0.38900003 -0.051326059 0.049157862 15328732
0.39396626 -0.05522684 0.044917483 13419706
0.38866666 -0.04412194 0.048980217 13157820
0.39302009 -0.045180291 0.044162326 12762289
0.38787499 -0.034868065 0.048006959 13025204
0.39239186 -0.035077956 0.043062378 12039082
0.38717943 -0.025010513 0.047038395 12565171
0.39199999 -0.025033018 0.042115118 11183260
0.38679549 -0.015268712 0.046607088 12368820
0.39151224 -0.015118806 0.041715492 11249822
0.3871429 -0.0055357642 0.046769481 12960439
0.39165917 -0.0053083929 0.041884575 11117463
0.38859379 0.0038782321 0.049020343 10262929
0.39417115 0.0051556961 0.044001263 11579303
0.40000001 0.0094936397 0.040247448 11250854
0.38900003 0.010598549 0.049157862 9669512
0.39442721 0.014516343 0.045658953 11776169
0.40039128 0.016432952 0.04126475 11249309
0.39616671 0.021927496 0.048825309 10919829
0.40577781 0.026177282 0.047097981 11842471
0.41389138 0.026717907 0.042645711 11776423
0.40856248 0.032771837 0.048879564 13290177
0.41275388 0.034466669 0.045533959 11908011
0.411125 0.041157175 0.048944119 11645607
0.39796433 -0.092270896 0.057242665 12433841
0.40288463 -0.092956476 0.052029308 11973036
0.39519599 -0.084548429 0.055270985 12893878
0.40033334 -0.088799357 0.051631026 13487044
0.38804081 -0.073791943 0.057728417 14012616
0.39210808 -0.07577987 0.05321575 12236460
0.38718489 -0.064851649 0.056417946 13749441
0.390892 -0.065562986 0.051497579 11578786
0.38627765 -0.05483827 0.055079043 12828597
0.39000002 -0.057696808 0.050349399 10721935
0.38408089 -0.045074489 0.055088434 12499890
0.37872231 -0.033421252 0.058793433 10853268
0.38252646 -0.035138946 0.054359756 12828083
0.378389 -0.025048576 0.058421299 10919572
0.38209289 -0.024884732 0.053596724 13025977
0.37854555 -0.014943465 0.058470134 10328465
0.38182822 -0.01507302 0.053607218 12828855
0.37850007 -0.0064849206 0.058537129 11380382
0.38229623 -0.0049524689 0.054101959 12367790
0.38394156 0.0048142448 0.055358496 11117722
0.38531452 0.014472822 0.05542456 11710117
0.39071432 0.017768137 0.051137783 12302768
0.38776001 0.021622516 0.05738565 11578272
0.39381388 0.025338093 0.054852296 11776165
0.40259999 0.029158566 0.051434122 12763836
0.39773691 0.032375488 0.058198728 14013382
0.40395296 0.035025924 0.054179724 12631219
0.4084 0.041397039 0.05520121 11447714
0.41061541 0.04427794 0.057435088 11448228
0.39334211 -0.091808975 0.065205775 13091259
0.3876667 -0.083344825 0.06633243 12235950
0.39163274 -0.086806133 0.063069992 13025981
0.38431707 -0.074864201 0.065075822 12630962
0.3784138 -0.063325062 0.068958111 13880258
0.38229102 -0.065289557 0.064132407 12235434
0.37812912 -0.054347154 0.067799442 13617600
0.38149357 -0.055667128 0.0628535 11709345
0.37791607 -0.044495057 0.066135526 12959669
0.38033327 -0.04671137 0.061625347 11249052
0.37685591 -0.035170436 0.064819224 11841445
0.3756943 -0.024944833 0.064616874 11644580
0.375909 -0.01483828 0.064652488 11710633
0.37629002 -0.0051940996 0.064755335 11644580
0.38000003 -0.00076649763 0.060474746 7826533
0.37695661 0.0051308633 0.065875031 10526360
0.38044831 0.0043916367 0.061282709 11710376
0.37680584 0.014648732 0.065841377 11447715
0.38096774 0.017129615 0.061691433 13158077
0.37805265 0.021829611 0.068454243 11842729
0.38443747 0.025136011 0.064854525 11250079
0.39136365 0.028279858 0.061282311 11448231
0.38799998 0.031878229 0.067826815 12696239
0.39406997 0.035419598 0.064695485 12104617
0.40075004 0.038947105 0.061195426 13421760
0.39576924 0.041320391 0.067247681 13158332
0.40478569 0.042443179 0.061768379 12040365
0.41000003 0.045244224 0.060449984 11448228
0.38800001 -0.091510452 0.075651005 12302772
0.39000002 -0.092695035 0.072717823 11512740
0.37883332 -0.081172645 0.079208404 14539730
0.38409901 -0.085056588 0.074788921 12433586
0.37749457 -0.074142747 0.076355517 12763063
0.38094997 -0.076842092 0.072261848 12235948
0.37574986 -0.065084994 0.075017087 12828085
0.37480178 -0.055005543 0.074958473 12827826
0.37505004 -0.044955783 0.075146876 12302250
0.3756611 -0.035085611 0.074862778 11183771
0.37436828 -0.024859419 0.074915797 10722708
0.37344736 -0.014744426 0.074727744 11117979
0.37278137 -0.0052085523 0.074797727 11446942
0.37315357 0.0050262418 0.074891128 10197136
0.37220293 0.014934464 0.074906163 11776937
0.37497443 0.024140744 0.075623848 10921371
0.38194445 0.028341047 0.071659647 9540233
0.37830001 0.030765057 0.078180879 12434351
0.38448888 0.034416862 0.074749559 12170664
0.39138466 0.038117722 0.071448207 11182739
0.39347625 0.042018853 0.072354026 10790040
0.38312498 -0.090855189 0.083611913 12302515
0.37704176 -0.083269194 0.085949808 11906726
0.38129786 -0.08743155 0.083582178 12696501
0.3735038 -0.07504297 0.085058145 12498606
0.36876929 -0.063433692 0.088968858 14867667
0.37128204 -0.06533765 0.084175773 11972777
0.36856532 -0.055775154 0.088177383 14408142
0.37091768 -0.054591548 0.083481736 11446432
0.3727484 -0.044845764 0.085020609 12433324
0.37492421 -0.035058405 0.084915757 11315102
0.37390468 -0.0249182 0.08510416 7499878
0.37311709 -0.014921902 0.08525832 6776672
0.37151596 -0.004967174 0.08498849 10065546
0.3713043 0.0047823931 0.084940344 9011576
0.36848232 0.014813826 0.085745119 9999754
0.37004754 0.015424771 0.081166774 12763575
0.37262884 0.025066756 0.084867321 10130827
0.37593424 0.033546571 0.085797548 11579300
0.3823913 0.038657319 0.084396794 12039337
0.38436678 0.041937821 0.086687788 10592149
0.36880001 -0.080691546 0.098751828 14473679
0.37320632 -0.084271654 0.094669305 12368049
0.3675327 -0.07406424 0.096716106 13420734
0.3707501 -0.076523878 0.092525534 12827057
0.36678702 -0.065029807 0.095123 13157048
0.36694461 -0.055117276 0.095302559 13091255
0.37 -0.050118394 0.090065666 15065560
0.36820009 -0.045879249 0.09694165 13816006
0.37044632 -0.044293307 0.092468046 11381152
0.36899999 -0.039041024 0.098748542 14407628
0.37189102 -0.03488316 0.094787166 10855064
0.3714371 -0.025176922 0.095067322 2304291
0.37120798 -0.015085497 0.095135257 2698279
0.37126553 -0.0051895701 0.09500435 9671303
0.36864296 0.0089338478 0.096021362 10460823
0.37100884 0.0040861065 0.094639301 9473413
0.36784354 0.014167728 0.095183834 10789526
0.37030765 0.018858539 0.094208904 8814968
0.37347418 0.024919853 0.0943489 8421492
0.37646678 0.034530032 0.09293329 8158834
0.38114288 0.037597809 0.097622976 11185055
0.37900004 0.040936071 0.093439437 9407874
0.38060004 0.041821498 0.092110768 10000011
0.3675873 -0.082795441 0.10596105 11709604
0.37084615 -0.086385518 0.10331507 12960186
0.36434814 -0.07496608 0.10496579 12038826
0.3634674 -0.064976774 0.1048965 11183773
0.3646372 -0.054799367 0.10479441 10985878
0.36719278 -0.045167752 0.10498902 10788758
0.3688519 -0.036738507 0.10563321 8553079
0.37040505 -0.033831142 0.10452173 7237478
0.36798242 -0.024521099 0.10602937 2172960
0.37017852 -0.026126748 0.10146744 2304290
0.36814821 -0.016150458 0.10580191 2304291
0.37023252 -0.012395919 0.10340565 3553330
0.37257016 -0.0050897887 0.10470026 8092015
0.36869997 0.0089228274 0.10191946 6908771
0.37245333 0.0035084097 0.10380305 6907228
0.36732253 0.013598036 0.10173026 8025965
0.37200001 0.021891965 0.10013194 7632232
0.36766669 -0.082281142 0.11181976 12434355
0.37110528 -0.084790483 0.11516453 10921117
0.36560005 -0.076999277 0.11154915 11578530
0.36700001 -0.051428776 0.11081425 8553341
0.36800003 -0.047408145 0.11097261 6842207
0.36800003 -0.030033112 0.11111619 2106911
0.36730772 -0.025415407 0.1107746 2107168
0.36750007 -0.014287732 0.11074983 3159599
0.37 -0.01027427 0.1108539 10461335
0.37280002 -0.0077282088 0.11064122 9737610
0.36262503 -0.03086767 0.14812119 857100
0.36227104 -0.024903355 0.14797659 659721
0.36142242 -0.015638396 0.14803305 1512717
0.36357686 -0.032171212 0.1568394 1777947
0.36698306 -0.02653973 0.15587725 659465
0.37055886 -0.024398824 0.15781441 462342
0.36427659 -0.01565728 0.15585242 1642504
0.36213964 -0.032331333 0.163471 1580823
0.36413482 -0.024867075 0.16501848 988428
0.36474398 -0.015936553 0.16493094 1250317
0.36279744 -0.032421816 0.17572404 1120016
0.35768628 -0.024496548 0.17902492 725516
0.36148149 -0.024907298 0.17436382 1383443
0.35750005 -0.018991197 0.17977834 528137
0.3628805 -0.016813615 0.17573357 988944
0.34421432 -0.033319611 0.18754697 1712410
0.35641178 -0.032325137 0.18064286 791308
0.3609091 -0.03360397 0.18079053 856845
0.34450981 -0.024980338 0.18749858 1645847
0.35436368 -0.025040727 0.18026166 791308
0.34534431 -0.016097225 0.1877695 1645846
0.35639134 -0.016162878 0.18077268 659723
0.36166668 -0.013628974 0.18100657 725519
0.34193018 -0.033306077 0.19172193 1646617
0.34244445 -0.025005404 0.19197132 1645847
0.34298319 -0.01677621 0.19167803 1514263
