# .PCD v0.7 - Point Cloud Data file format
VERSION 0.7
FIELDS x y z rgb
SIZE 4 4 4 4
TYPE F F F U
COUNT 1 1 1 1
WIDTH 454
HEIGHT 1
VIEWPOINT 0 0 0 1 0 0 0
POINTS 454
DATA ascii
0.44900003 -0.01684762 -0.041364212 11907240
0.45387504 -0.061745688 -0.031498112 13946821
0.44900003 -0.051476087 -0.031320207 14999765
0.45150003 -0.056036901 -0.032046217 14078922
0.44878137 -0.044835098 -0.031867255 13223356
0.44694638 -0.034800399 -0.032888461 13813951
0.44414935 -0.024748771 -0.033685885 13025723
0.43900001 -0.010134868 -0.030851027 10132116
0.44422084 -0.015163176 -0.035000335 13091515
0.4390001 -0.0045467126 -0.031300649 11776676
0.4421702 -0.0051875692 -0.035087273 14275786
0.4390001 0.0026647535 -0.031224741 10263441
0.4419831 0.0051946077 -0.034678526 11842474
0.44371432 0.011672014 -0.034149844 12500146
0.45833337 -0.091411091 -0.021838203 10986908
0.45549029 -0.084514774 -0.022959746 13881800
0.44900003 -0.070279412 -0.021042615 16184041
0.45323199 -0.075126126 -0.024245353 14341325
0.44800001 -0.063898914 -0.022603955 14868436
0.45204443 -0.065655477 -0.026832353 13814722
0.44676387 -0.054575674 -0.024680978 13947074
0.45059997 -0.057555925 -0.028713267 11709343
0.44466293 -0.044924613 -0.024894617 13288636
0.4390001 -0.032931272 -0.021041097 10985876
0.44248575 -0.035373628 -0.025467243 13880515
0.43828556 -0.02440103 -0.022657719 12038824
0.4411428 -0.025752332 -0.027266685 13947078
0.43737203 -0.014338343 -0.024470177 12894133
0.44014287 -0.017080132 -0.02923879 11775401
0.43574446 -0.0049604522 -0.025021119 12434096
0.43767044 0.0040528672 -0.024783075 11183773
0.4402667 0.0088006314 -0.027230311 10591380
0.44605002 0.01231497 -0.026181247 9997699
0.45406395 0.017067706 -0.024962356 9275515
0.45699999 0.021279816 -0.022612922 11250077
0.45377517 -0.093497202 -0.013539456 13222586
0.44814292 -0.083696589 -0.012402013 14407115
0.45195454 -0.086060584 -0.016568797 13617601
0.44606408 -0.074589267 -0.014557743 13749441
0.45033336 -0.078043737 -0.018645473 12039077
0.43900007 -0.06216253 -0.010682281 11315103
0.4430604 -0.065153435 -0.015514467 13684164
0.43854755 -0.054246709 -0.012243204 12893361
0.44147173 -0.055491727 -0.017086703 13749442
0.43754178 -0.044800907 -0.013711622 13355199
0.44049996 -0.046212513 -0.018788768 13025464
0.43662006 -0.035124462 -0.014850538 13157560
0.43505013 -0.024814611 -0.014793006 12499374
0.43344072 -0.014919039 -0.014854001 12433839
0.43259776 -0.0052848561 -0.014601443 12302252
0.43658158 0.0046580061 -0.014757236 10526099
0.43900007 0.01041927 -0.013380011 10593176
0.44100007 0.011729848 -0.013555158 11119262
0.45855564 0.018219242 -0.016121447 8224115
0.46000001 0.019224955 -0.013097027 10657166
0.45900008 0.021639224 -0.018092318 8881788
0.46152717 0.02486928 -0.013808374 11776679
0.46488893 0.031711936 -0.011992436 11974572
0.45371431 -0.10121242 -0.0024494592 13881547
0.44740629 -0.092715435 -0.0027741159 13091515
0.45280004 -0.096509635 -0.0061504012 13617345
0.4387334 -0.082573064 -0.0011158739 15789024
0.44357362 -0.085285582 -0.0054671634 13486013
0.43703333 -0.074529275 -0.002942025 14341578
0.44132251 -0.076080233 -0.0078873327 12368558
0.43556988 -0.064989582 -0.0045504933 13815494
0.44000003 -0.069385715 -0.0092902975 11250851
0.43383312 -0.055106193 -0.00452817 14012356
0.43274993 -0.044943694 -0.0045902599 13683392
0.43195993 -0.034748238 -0.0045805797 13025975
0.43152618 -0.024850447 -0.0047072629 12433839
0.4288947 -0.012861239 -0.0012879506 11117721
0.43032902 -0.015821148 -0.0052043856 12434096
0.42821744 -0.006137663 -0.0020484885 12828340
0.43038902 -0.0047465106 -0.0066815787 12367786
0.42900002 0.00013896122 -1.936998e-05 8223351
0.43403018 0.0047703213 -0.0046460396 10920856
0.43756518 0.011366002 -0.0033201855 10856087
0.44340006 0.013848414 -0.0058294907 11119522
0.45792311 0.019114537 -0.0058840257 9671303
0.45790899 0.022400767 -0.0037623318 10789271
0.46169704 0.025900679 -0.0079803066 10987163
0.46481821 0.031509355 -0.0082320021 11908779
0.44562504 -0.10065491 0.0058359355 13222072
0.45100003 -0.1017397 0.0015621649 11512484
0.43814293 -0.091658592 0.0073042586 13552579
0.44358623 -0.0958267 0.0047139525 13354942
0.43505263 -0.084719107 0.0051954673 13420994
0.44033337 -0.089196078 0.0013542959 15724776
0.42771435 -0.073147133 0.0087037664 11907752
0.43207356 -0.075470917 0.004331239 14144201
0.42654386 -0.064838104 0.0074195084 12827826
0.43055269 -0.065404974 0.0024724503 13814463
0.42632908 -0.054866944 0.0064653996 13223354
0.42999998 -0.055527784 0.0015912052 12894389
0.42603227 -0.04491242 0.0057707559 13223096
0.43000004 -0.046669368 0.00098722253 11710116
0.42646736 -0.035302822 0.0058423216 13420476
0.43000004 -0.03351118 0.00098722253 11972258
0.42680836 -0.02529452 0.0055117072 12960181
0.42640987 -0.015337854 0.0054617007 12433581
0.42461997 -0.0053298343 0.0054389792 12697010
0.42689368 0.0023528321 0.006524717 10789271
0.43134704 0.0066557778 0.0041389843 11710625
0.43313643 0.011572874 0.0057291333 11316635
0.45409089 0.018992284 0.004714312 10130824
0.4545089 0.023369839 0.0054835416 11249820
0.43700001 -0.10011488 0.015325641 15459550
0.42814288 -0.091069393 0.018736234 15328991
0.43454418 -0.0946659 0.014298425 13354429
0.44000003 -0.098742075 0.010280613 12038312
0.42555714 -0.084203213 0.016123407 13749186
0.43084621 -0.086681858 0.011733446 11709604
0.41820008 -0.073162116 0.019038724 11709093
0.42312941 -0.075367667 0.014487938 13551808
0.41746148 -0.064391881 0.018046306 11512227
0.42169493 -0.065336876 0.013394989 14802644
0.41729993 -0.055060469 0.017561967 11972518
0.42120767 -0.054897238 0.012852822 14934744
0.4172155 -0.045176219 0.017519707 12170152
0.42096001 -0.044702988 0.012790198 14736594
0.41708004 -0.035190865 0.017748369 11250082
0.42151859 -0.03467375 0.013024211 14340808
0.41721746 -0.025026727 0.017728927 11118493
0.42174089 -0.024820814 0.013030791 13486526
0.41695926 -0.014906218 0.017587155 11644324
0.42145103 -0.015245627 0.012861707 12828340
0.41728067 -0.0054500522 0.017183498 12302766
0.42088383 -0.0049960506 0.01249069 12104615
0.4184286 0.0011160892 0.019011911 8750202
0.42403129 0.0049468279 0.014901872 11381152
0.43000001 0.0091990242 0.010046963 12238253
0.42655563 0.011492627 0.016986154 10460304
0.43006665 0.011885443 0.011726249 10855574
0.45400003 0.019277858 0.011139134 12959666
0.44831818 0.026285769 0.01872663 12105385
0.45238352 0.024486143 0.013775976 10460820
0.41900003 -0.090596288 0.028917234 13881545
0.42523685 -0.094726659 0.025406718 13091773
0.43000001 -0.096095286 0.020515993 14539218
0.41618031 -0.083784893 0.026630016 13223356
0.42167658 -0.086475097 0.022625072 12565428
0.40899998 -0.072225377 0.029389735 13683650
0.41407153 -0.07518018 0.024892196 13552065
0.40845162 -0.064364858 0.028697394 13750726
0.41280729 -0.065243013 0.023722671 13552577
0.4080953 -0.054619916 0.028048983 13552063
0.41250005 -0.055069506 0.023043552 13290177
0.40764731 -0.045094587 0.027615849 13748414
0.41239345 -0.044846646 0.022703307 13158590
0.40726238 -0.034957446 0.027328542 12762032
0.4124898 -0.035496779 0.022402884 13683653
0.4071767 -0.025212198 0.027563911 12565938
0.41247708 -0.024898032 0.022630265 13223868
0.40681684 -0.014869663 0.027356492 12236459
0.41229102 -0.015046504 0.022438766 13487040
0.40646034 -0.0052889478 0.026919415 12038567
0.41259575 -0.0049197646 0.022089502 13289402
0.40815386 0.0014565046 0.028571704 12303024
0.41453335 0.0048724706 0.025374098 11579044
0.42071432 0.0078755161 0.021859154 11973286
0.41688475 0.013273461 0.02797957 10329752
0.42170981 0.01303274 0.023606066 11446432
0.43550006 0.02698461 0.027894897 10987421
0.44341671 0.026005574 0.023184406 11381663
0.43183336 0.030972647 0.02828419 11382434
0.44350004 0.030252662 0.022301581 11711398
0.41620642 -0.093853116 0.036069937 12894906
0.42085716 -0.095995739 0.03200094 11380642
0.40753499 -0.083004519 0.037273251 12236205
0.41258335 -0.086315311 0.033523165 13552578
0.40553346 -0.074753143 0.035265531 13092027
0.41025001 -0.078860663 0.030954314 14473680
0.39900002 -0.061052095 0.039212763 14605007
0.40380013 -0.065111391 0.034863759 13354686
0.398 -0.053671546 0.038991839 14671057
0.40306246 -0.055362161 0.034074571 13223354
0.39723259 -0.044875387 0.03849563 14802385
0.40244049 -0.045079518 0.033406455 12828596
0.39716661 -0.035116281 0.03813358 14013383
0.40256163 -0.034996003 0.032880798 12564910
0.39671659 -0.0247159 0.037822485 13355455
0.40199986 -0.025278108 0.032790478 12171182
0.39607033 -0.014577155 0.037219331 13289404
0.40170008 -0.015152673 0.032184869 12303025
0.39613044 -0.0051486464 0.03719018 12696753
0.4013654 -0.0048914282 0.032032806 12170923
0.39842859 0.0014629371 0.03862235 10920344
0.40368709 0.0049952562 0.0348561 11710630
0.41075 0.0086678155 0.031351969 11906467
0.40555191 0.013931263 0.037161861 12170666
0.41257495 0.014551269 0.032018434 12368814
0.41400003 0.021463118 0.039390787 12367276
0.42444292 0.026097642 0.035607081 11381153
0.43016669 0.026741302 0.030778617 13552833
0.4253903 0.032295097 0.034749534 11579816
0.43000001 0.030338418 0.030179717 11316642
0.40697837 -0.093321748 0.046825595 13684163
0.41274285 -0.095392331 0.042217348 11907497
0.39841667 -0.082026817 0.048403624 13156535
0.40344685 -0.085440606 0.044589914 12828341
0.39655998 -0.074414678 0.046763852 12565424
0.4007906 -0.075784437 0.042070631 14210508
0.39513341 -0.064846702 0.045122083 12960185
0.40000001 -0.067603886 0.040403515 15197662
0.38900003 -0.050870731 0.049157862 15328732
0.39378327 -0.055178445 0.044937558 13354170
0.3886897 -0.044367563 0.048929658 13354943
0.39278346 -0.045091849 0.044042647 12630705
0.38782147 -0.034863193 0.048000455 12959669
0.39240542 -0.035079397 0.043063842 11973545
0.38722211 -0.025068281 0.047302775 12434096
0.39194828 -0.024948083 0.042343829 11578273
0.38701227 -0.015132538 0.046866145 12433841
0.39143485 -0.015311459 0.041972294 11315872
0.38737041 -0.0056267828 0.046907783 13091767
0.39169401 -0.0050346856 0.042141568 11380377
0.388625 0.0035001682 0.049185578 9867914
0.39410886 0.0050194501 0.044141006 11513509
0.40000001 0.0094936397 0.040247448 10790303
0.39464137 0.014659192 0.045828521 11710375
0.40054163 0.015876796 0.041121695 11315614
0.39576924 0.021940542 0.04887069 11051671
0.40566671 0.02676343 0.047879264 12105130
0.41454163 0.02686017 0.042830065 11709860
0.40862498 0.033375107 0.049126402 13289664
0.41281658 0.033933651 0.045388836 12039597
0.41050002 0.040974371 0.049471758 11645092
0.39774999 -0.091977037 0.057089716 12499119
0.40279171 -0.092871733 0.051993188 11776167
0.3950679 -0.084570624 0.055283006 12959669
0.40022227 -0.088774681 0.051616725 13487042
0.38820457 -0.073550411 0.057853591 14078408
0.39199996 -0.075901963 0.053459376 12367533
0.38729784 -0.065012179 0.056380935 13617854
0.39078382 -0.065173961 0.051409204 11841958
0.38626915 -0.054671556 0.055311043 12960182
0.39033332 -0.057138767 0.050240133 10129799
0.38411033 -0.045078568 0.055093106 12565426
0.37880009 -0.033531189 0.058731563 10589840
0.38261601 -0.035152819 0.054296456 12893876
0.3784 -0.024983576 0.058472995 11050644
0.38221204 -0.024930434 0.053659301 13025977
0.37866667 -0.014947252 0.05848885 10197134
0.38211095 -0.015083834 0.053646155 12894390
0.37856004 -0.0063280999 0.058543473 11380637
0.38235521 -0.0049761753 0.05406332 12499374
0.38406435 0.0048898822 0.055246126 11117722
0.38534465 0.014585548 0.055500809 11841702
0.39038464 0.017351303 0.050808754 12039596
0.38788003 0.021483405 0.057184786 11709087
0.39361173 0.025461603 0.054832384 11710116
0.40250003 0.029340431 0.051326204 13816779
0.39764714 0.032438159 0.058408078 14210507
0.40406826 0.034923598 0.054155048 12499890
0.40843749 0.041188341 0.056514803 11053213
0.41085717 0.043897413 0.057485215 11448227
0.39317781 -0.092120513 0.065343522 12893878
0.38758066 -0.083059266 0.066226907 12235949
0.39149094 -0.086875543 0.063398294 12828858
0.38437092 -0.074914932 0.065117545 12696497
0.3785001 -0.063164197 0.069027811 13748929
0.38239282 -0.065290175 0.064226277 12235945
0.37812909 -0.054247357 0.067770757 13617858
0.38144147 -0.055740628 0.062868021 11709342
0.37784147 -0.044630159 0.065967649 12959670
0.38034624 -0.046658263 0.061419778 11380381
0.37684822 -0.03516943 0.064817548 11775910
0.37571529 -0.024945863 0.064620361 11644836
0.37581807 -0.014835349 0.064636797 11710630
0.37616017 -0.0051920679 0.064732969 11710373
0.38000003 -0.00076649763 0.060474746 7958117
0.37706023 0.005074176 0.06586574 10460823
0.38042858 0.0046076989 0.06121039 11578787
0.37680572 0.01476819 0.065901801 11447458
0.38106248 0.016770339 0.061450478 13420991
0.37805265 0.021690134 0.068268321 11841957
0.38403097 0.02524125 0.065184727 11315613
0.39127272 0.028356226 0.061351266 11381925
0.3879565 0.031874854 0.067819476 12827823
0.39409089 0.035451628 0.064709686 12039080
0.40133336 0.038860578 0.061153725 13553346
0.39536363 0.041356161 0.067712054 13092538
0.40627271 0.042071577 0.061275896 12566709
0.41050002 0.045059446 0.061244149 11382435
0.3880333 -0.091470689 0.076038867 12105649
0.39000002 -0.091934204 0.072413489 12434354
0.37866667 -0.081137195 0.079173684 14604753
0.38437501 -0.085128255 0.074792579 12433328
0.37743625 -0.074157916 0.076228566 12828598
0.38089189 -0.076924548 0.072158091 12236205
0.37594965 -0.065059632 0.075025097 12828084
0.37502268 -0.055003412 0.075012609 12893874
0.37505677 -0.044991802 0.075132072 12433323
0.3754364 -0.035098623 0.074898668 11183514
0.37416807 -0.024878452 0.074879102 10788499
0.37352321 -0.014747042 0.074743107 11117722
0.37278998 -0.0052078958 0.074838921 11381408
0.3732619 0.0050257957 0.074876286 10131600
0.37226579 0.014936808 0.074918523 11776680
0.37492439 0.02414565 0.075564191 11052953
0.38150004 0.028213803 0.072008044 9079678
0.37818184 0.03094881 0.078132279 12499374
0.38451105 0.034478854 0.074724004 12104614
0.39181823 0.038486417 0.071610861 11707796
0.39493552 0.042659696 0.072961971 10855319
0.38291666 -0.090786673 0.083640359 12631477
0.376946 -0.083259843 0.085893676 11906470
0.38117066 -0.087260969 0.083163023 12893880
0.3735483 -0.075051658 0.085068353 12564142
0.36873081 -0.06326092 0.088893063 14736595
0.37143093 -0.065366484 0.084170684 11972520
0.36868581 -0.056153558 0.088512033 14539215
0.37093267 -0.054658715 0.083823346 11644065
0.37266448 -0.044836704 0.085001901 12433322
0.37481543 -0.035014812 0.084969148 11446687
0.37399283 -0.02487207 0.085099638 7631206
0.37335101 -0.014916417 0.085234173 6842465
0.37137902 -0.0049356208 0.085023604 10065290
0.37119412 0.0047864909 0.084878072 9011833
0.36848584 0.015138457 0.08605171 9802375
0.37006658 0.014443311 0.081591643 12434096
0.37258142 0.025142964 0.084809802 10196361
0.3758229 0.033704199 0.085788742 11710630
0.38300002 0.038941715 0.083570689 11973542
0.37900001 0.040048826 0.089594714 10921882
0.38369572 0.041405387 0.086596064 10526354
0.36875004 -0.080594175 0.09925656 14671316
0.37331247 -0.084210545 0.094965518 12433585
0.36747557 -0.07407631 0.097114541 13749442
0.37080318 -0.076074168 0.092653662 12695471
0.36681268 -0.065065145 0.095033854 13156790
0.37 -0.069174282 0.090065666 14802388
0.36695871 -0.055105589 0.095341153 13091254
0.37 -0.050551482 0.090065666 15065558
0.3681522 -0.045913365 0.096835583 13749956
0.37052393 -0.044185013 0.092463739 11512478
0.36899999 -0.038999889 0.098584004 14472908
0.37197274 -0.034861717 0.094783314 10920600
0.37175724 -0.025210498 0.095107354 2304290
0.37169871 -0.015081531 0.09518218 2501156
0.37135941 -0.0051911683 0.095027946 9736841
0.36870372 0.0089421235 0.095887072 10723737
0.37110531 0.0040866924 0.094663844 9539205
0.36789665 0.014204578 0.095238894 10723989
0.37033328 0.018904287 0.09477032 8814967
0.37350014 0.02492358 0.094437063 8553078
0.37627277 0.034209233 0.092874743 8026734
0.38118184 0.0378443 0.096927956 10198417
0.37850001 0.040880896 0.091693461 9144445
0.38050002 0.040653296 0.094403103 9736582
0.36761019 -0.082586788 0.10590372 11709347
0.37072736 -0.08645203 0.10361502 12696501
0.36453024 -0.075023055 0.10490459 12038826
0.36364204 -0.064946577 0.10487736 11118237
0.36462578 -0.054767489 0.10472771 10920084
0.36725217 -0.045186348 0.10487878 10722964
0.36894888 -0.037529342 0.10524632 9407361
0.37045005 -0.033969704 0.10498609 7171173
0.36829886 -0.024399506 0.106962 2172704
0.37030777 -0.025604006 0.10232595 2238755
0.36849207 -0.016351819 0.10740166 2238498
0.37040991 -0.014107546 0.10348504 2895913
0.37251407 -0.0050399438 0.10469232 8092015
0.36888888 0.009138912 0.10188552 7171688
0.37234151 0.0039175395 0.10387255 6907486
0.36766663 0.013290897 0.102194 7895150
0.37300003 0.023697214 0.10040113 7763048
0.36784214 -0.082686722 0.11188505 12236974
0.37092003 -0.085045986 0.11495148 10789528
0.36646158 -0.075802125 0.11184242 11446945
0.37 -0.072205894 0.1143186 7367781
0.36500001 -0.069948435 0.11021035 13092283
0.36733332 -0.051474705 0.11091489 8552057
0.36840004 -0.046452414 0.11072008 8947323
0.37 -0.049252216 0.11172009 6578265
0.36800003 -0.030033112 0.1111162 2041375
0.37100002 -0.034620531 0.110285 9605772
0.36712492 -0.026352551 0.11190399 2107168
0.36763331 -0.015254852 0.1110623 2435877
0.37 -0.01027427 0.1108539 10394772
0.37300003 -0.007737976 0.11000632 9737610
0.36225003 -0.030729668 0.14659107 857100
0.36229041 -0.024700308 0.14680971 856842
0.36109096 -0.015637342 0.14706995 1907216
0.36536741 -0.03235697 0.15711504 2106655
0.37 -0.030485058 0.15632819 857356
0.36746514 -0.025229789 0.15441117 593671
0.37086803 -0.025794676 0.15750572 593928
0.36350006 -0.016141951 0.15557985 1183239
0.3622956 -0.03220439 0.1634099 1449237
0.36434132 -0.024931287 0.16479604 857613
0.37 -0.024999272 0.16022597 593158
0.36470434 -0.01604256 0.16529402 1118988
0.36283758 -0.032575406 0.17562038 1185551
0.35830435 -0.024211593 0.17933837 791308
0.36125508 -0.024881817 0.17465831 1317651
0.35700002 -0.019384259 0.17994417 528136
0.3625319 -0.016562698 0.17526042 988944
0.34461617 -0.033622768 0.18669321 1778203
0.35585716 -0.032730214 0.1808155 923149
0.36100006 -0.033314366 0.18064839 921866
0.34481296 -0.024985762 0.18679652 1580567
0.3552593 -0.025516124 0.18048459 659978
0.36000001 -0.029380215 0.18033578 528135
0.34485886 -0.016376331 0.18712248 1579797
0.35631248 -0.016402222 0.18109207 528392
0.36150002 -0.013767374 0.1812387 791568
0.34216666 -0.033198785 0.19164367 1646360
0.34248608 -0.02514315 0.19200619 1580312
0.34272361 -0.017129887 0.19194283 1448982
0.78433329 -0.0044898172 0.24769171 5657672
0.78727269 0.0052862861 0.24793421 2106911
0.78900003 0.011337951 0.24839437 2107168
0.79223537 0.015315151 0.24651982 2041375
0.78850007 -0.010819946 0.25192934 9540230
0.78763652 -0.0049419296 0.25307891 5526086
0.79128569 -0.0053036055 0.25744915 5920588
0.78819996 0.0048700841 0.25460276 2106913
0.78900003 0.012129551 0.25353977 1975583
0.79115003 0.016371835 0.25545874 1909277
0.79512 0.023938825 0.25549325 1514518
0.81200004 -0.013994948 0.26894045 9540490
0.7938 -0.0034636869 0.2623581 3618864
0.78900003 0.0030261669 0.2604003 2040863
0.79300004 0.0054534604 0.26451072 2238500
0.79290003 0.015108136 0.26447606 1909022
0.79561114 0.02478482 0.26382533 1054225
0.81633335 -0.014388786 0.27196914 9672076
0.82160008 -0.016083539 0.27731547 9606283
0.80800003 -0.0044671297 0.27234566 5725015
0.81466675 -0.0057771108 0.27586508 6843237
0.81000006 0.00026237435 0.27870846 4344393
0.82700002 -0.02102836 0.28552589 9737869
0.82370591 -0.014936307 0.28591898 9474952
0.81700003 -0.0024146533 0.28551605 3028529
0.82099998 -0.0069432268 0.2857354 9081479
0.81205565 0.0038496098 0.28659785 2567463
0.80780011 0.014257672 0.28211236 2106651
0.8126924 0.015922857 0.28710163 2106651
0.81569231 0.024943411 0.28566423 856586
0.82000005 0.0271405 0.28982782 791307
0.81200004 -0.02064695 0.2974529 9737612
0.8210001 -0.020875797 0.29402366 9803403
0.81464291 -0.014039074 0.2946026 9474437
0.82081819 -0.01528146 0.29168826 9540487
0.81337506 -0.0058095725 0.29224184 6975334
0.82050002 -0.0093382513 0.29096437 9211523
0.81126684 0.0055831382 0.29205793 2172962
0.815 0.015899114 0.29553947 1975324
0.81850004 0.022620291 0.29249159 724744
0.81999999 0.026317801 0.29531249 659465
0.81150007 0.019260222 0.3010698 2237724
0.811625 0.023298809 0.30396354 1580309
