# .PCD v0.7 - Point Cloud Data file format
VERSION 0.7
FIELDS x y z rgb
SIZE 4 4 4 4
TYPE F F F U
COUNT 1 1 1 1
WIDTH 892
HEIGHT 1
VIEWPOINT 0 0 0 1 0 0 0
POINTS 892
DATA ascii
0.79319453 -0.074948907 0.04544998 12237744
0.79317242 -0.064858012 0.045290735 12171951
0.78900003 -0.11056822 0.059070397 14605007
0.79148293 -0.11475071 0.054461066 13749699
0.78888893 -0.10460231 0.058241155 14605264
0.79222733 -0.10537064 0.052899864 14540241
0.78835297 -0.094085321 0.057175305 14342348
0.79166663 -0.095600955 0.052265976 14474448
0.78805 -0.084607571 0.056230199 14408141
0.79033333 -0.08547052 0.051460471 13157817
0.78816658 -0.075240381 0.055469263 13882053
0.79000002 -0.079268485 0.05174765 12697264
0.78827995 -0.065882541 0.055914465 13618883
0.79049999 -0.062045846 0.052087855 12961210
0.78862506 -0.055821881 0.058349669 12960439
0.79247832 -0.05491193 0.053114284 13093054
0.78900003 -0.047768071 0.059070397 12565424
0.78900003 -0.010826807 0.059070397 11185054
0.79348284 -0.014733158 0.054592077 12369327
0.78900003 -0.0045929686 0.058377743 12435376
0.79300004 -0.0055653504 0.053287052 12237485
0.78900009 0.004453443 0.058230828 12698292
0.79228014 0.0050785705 0.053004485 11974313
0.78900003 0.012261483 0.059070397 11250847
0.79257154 0.015300279 0.054360602 11909036
0.78900003 0.059361596 0.059070397 13486008
0.78900003 0.062132187 0.059070397 13617594
0.78876919 -0.11209877 0.065018386 14473164
0.79091668 -0.11685577 0.064305805 13880514
0.78759271 -0.10463628 0.064904891 14671057
0.78638721 -0.095297098 0.065466233 14342349
0.78599983 -0.085420869 0.064712003 13816003
0.78635997 -0.075221479 0.064396687 13421245
0.78636092 -0.065096363 0.065317392 13223866
0.78736001 -0.055040278 0.064477473 12697523
0.78841376 -0.045121856 0.064690322 12697521
0.79000002 -0.040430997 0.060994666 13289660
0.78889978 -0.034834567 0.065526463 12697777
0.79000002 -0.034882784 0.060994666 12960695
0.78872722 -0.024419378 0.065763377 12631984
0.79000002 -0.025404589 0.061457012 12697523
0.7884348 -0.01427012 0.064885117 12237226
0.79000002 -0.017313443 0.060994666 11974313
0.78808004 -0.0052797352 0.064535864 11842469
0.78790009 0.0048672552 0.064521179 11776677
0.78807151 0.015211784 0.065126389 11776932
0.78789276 0.024892256 0.066626489 11842468
0.79025 0.026156707 0.061476316 11250847
0.78800011 0.035304967 0.06729503 11579297
0.79100001 0.03543938 0.061996579 11316384
0.7871601 0.045364145 0.066963829 11514018
0.79062504 0.043981634 0.061736446 11119261
0.78643745 0.05513991 0.065202065 11908263
0.79000002 0.050189808 0.060994666 11710882
0.78623325 0.064675592 0.065299973 11908263
0.7859444 0.07476984 0.06527371 12105385
0.7840001 0.085177429 0.065359168 12105129
0.78448498 0.09525241 0.064900443 13091766
0.78786659 0.10342043 0.066115037 12960440
0.79099995 0.10781234 0.063692838 11381922
0.78883332 -0.11239192 0.074755222 14276299
0.79041666 -0.11724357 0.074904196 13683392
0.78796434 -0.10508699 0.075001828 14802899
0.78780007 -0.094723508 0.075580008 14803155
0.78828567 -0.084434152 0.075033583 14605519
0.78836662 -0.075413749 0.074711934 14342347
0.78810006 -0.065240167 0.07560803 14342347
0.78839999 -0.055114139 0.074715212 13882051
0.78885686 -0.045120828 0.074625723 13553086
0.79000002 -0.040430997 0.07948871 14013637
0.78899974 -0.034711245 0.074611202 13421500
0.79000002 -0.038581591 0.07948871 14013637
0.7882778 -0.02465849 0.074702457 13289914
0.78806674 -0.014503445 0.074682318 12895156
0.78846663 -0.0052816547 0.074721538 12697777
0.78838879 0.0048690001 0.074714102 12434605
0.78770381 0.014801456 0.07516028 12237226
0.78670013 0.025117056 0.075473636 11974054
0.78663999 0.035242997 0.075467654 11710882
0.7852999 0.045293916 0.075338766 11842468
0.78499991 0.055385251 0.075310215 11974054
0.78492588 0.064975508 0.075507052 12171176
0.78303576 0.074818239 0.074923776 12236200
0.77900016 0.087019823 0.074926555 11775393
0.78045464 0.081805564 0.07454066 12038564
0.77899998 0.091956034 0.073953032 11973542
0.78227782 0.096707121 0.075354427 12763057
0.78784221 0.10422091 0.07470908 13289659
0.79055554 0.1088312 0.075844236 10658712
0.78900003 -0.11159436 0.083903134 14539471
0.79025 -0.11594719 0.085642062 14078151
0.78843999 -0.1049536 0.084869757 14868692
0.78836656 -0.094791517 0.084860414 14934485
0.78891981 -0.084700458 0.084920302 14868692
0.7889998 -0.075474024 0.084929287 14737106
0.78899974 -0.065579042 0.08466541 14473933
0.79000002 -0.061699148 0.088735729 14605774
0.78899986 -0.055258941 0.083697915 14408395
0.79000002 -0.054962032 0.088207327 14539981
0.7889998 -0.044713311 0.084716156 14408395
0.79000002 -0.046903908 0.086423978 14474188
0.7889998 -0.034517404 0.085170202 14145223
0.79000002 -0.038581591 0.082262814 14013637
0.7889998 -0.024963945 0.084360957 13947844
0.79000002 -0.022861656 0.088735729 14211016
0.78899986 -0.014520934 0.084005736 13487293
0.79000002 -0.014539337 0.088735729 13750465
0.78900003 -0.006106535 0.082261302 13026486
0.79000002 -0.0048299655 0.086539559 13223865
0.7889998 0.0060486342 0.084425539 12894902
0.79000002 0.0016429492 0.086423986 13026487
0.78859991 0.01502352 0.084887162 12763316
0.78763354 0.025146391 0.084783189 12368557
0.78700006 0.03526016 0.084714003 12039592
0.78613323 0.045341637 0.084621482 12039848
0.7850399 0.055387884 0.084503196 12171177
0.78460002 0.065457195 0.084456049 12171433
0.78282773 0.075516082 0.085024901 12170663
0.77900004 0.086875848 0.08020556 11775135
0.78170002 0.084797032 0.085427396 11906721
0.78428572 0.095209248 0.08494924 12104871
0.78840005 0.10287461 0.084127277 13553343
0.79150009 0.10746299 0.085463427 11579813
0.79065531 -0.11437659 0.095128149 14341579
0.78896135 -0.10452481 0.094586417 14737106
0.79000002 -0.1083966 0.098445103 14737105
0.78838885 -0.094794959 0.095016107 14539727
0.78866661 -0.084672607 0.095048741 14408141
0.78899986 -0.076353587 0.093900718 14276555
0.79000002 -0.072267167 0.097322263 14276555
0.78900003 -0.068085767 0.09047047 14539727
0.79000026 -0.064275108 0.09553887 14473934
0.78900003 -0.052283116 0.093754143 14802899
0.79000002 -0.056459155 0.095781088 14671313
0.78899974 -0.045081437 0.094948187 14802899
0.79000002 -0.044129804 0.09674982 14868692
0.78899986 -0.035146475 0.093035847 14671313
0.79000002 -0.034420434 0.098290987 14737106
0.79000038 -0.024711061 0.095208645 14539727
0.79000026 -0.014539337 0.09520863 14211018
0.78900003 -0.0029767889 0.095857747 14013383
0.79000002 -0.0068334877 0.09469492 13947589
0.78899974 0.0051251017 0.09550792 13816517
0.79000002 0.0021053001 0.090585135 13487293
0.78899974 0.015032079 0.095088132 13552832
0.78799999 0.025157373 0.094967298 13026488
0.78656679 0.035239652 0.094794147 12697266
0.78602755 0.045337345 0.094730087 12434094
0.78643346 0.055486929 0.094780579 12302508
0.78650004 0.064696826 0.094790861 12433838
0.7858125 0.074526839 0.09528099 12368300
0.78416008 0.084696114 0.095423907 12302249
0.78594124 0.095232666 0.094989382 12302250
0.78900003 0.10184405 0.095088132 13355966
0.79193753 0.10581816 0.094863847 12763832
0.78900003 -0.11056822 0.10894111 14539727
0.79060012 -0.114792 0.10508921 14276042
0.78899986 -0.10441134 0.10568675 14671313
0.79000002 -0.1083966 0.10306862 14605775
0.78899974 -0.094868183 0.105247 14539727
0.7889998 -0.084709339 0.105247 14342346
0.7889998 -0.075893812 0.10566678 14342347
0.79000002 -0.071254395 0.10291449 14276555
0.78900003 -0.065315172 0.10801756 14210762
0.79000002 -0.064473256 0.10353099 14605520
0.78900003 -0.055618089 0.10709404 14473934
0.79000002 -0.05500865 0.10451008 14539727
0.78900003 -0.048506893 0.10376932 14671313
0.79000014 -0.044351734 0.10567626 14473934
0.79004014 -0.034884363 0.10538588 14342348
0.79000026 -0.024711061 0.10538034 14144969
0.79000014 -0.014539337 0.10538036 13816004
0.78900003 -0.0015914912 0.10155285 13881797
0.79000014 -0.005446434 0.10553449 13684418
0.7889998 0.0059646759 0.10449136 13948103
0.79000002 0.0018741245 0.10746095 13355453
0.78867996 0.015025327 0.10520403 13947590
0.78796673 0.02515774 0.10510929 13684418
0.78716004 0.035266109 0.10500285 13420990
0.78678566 0.045052584 0.10475589 13355196
0.78788894 0.05517957 0.10530416 12894389
0.78800005 0.064820528 0.1051136 12631217
0.7870999 0.074878097 0.10499378 12631217
0.78424001 0.084704362 0.10461183 12170153
0.78576678 0.094994195 0.1048156 12697010
0.78900003 0.1021519 0.10586267 13618625
0.79212505 0.10619044 0.10473416 11974058
0.78899997 -0.11241528 0.11547688 14539728
0.79007149 -0.11692775 0.11410902 14143945
0.7889998 -0.10502703 0.11448231 14605520
0.78899974 -0.094868191 0.1144823 14539727
0.7889998 -0.084709331 0.1144823 14473933
0.7889998 -0.075474016 0.11448228 14342347
0.78899974 -0.065315172 0.11448231 13816260
0.7889998 -0.055310246 0.11463624 14144969
0.79000002 -0.051527418 0.11092858 14342348
0.78900003 -0.04799895 0.11656024 14079176
0.79000002 -0.043961678 0.11387081 14013383
0.79032016 -0.034895886 0.11467326 13816004
0.79053348 -0.024728833 0.114704 13618625
0.78900003 -0.01267387 0.11817642 12960695
0.79000002 -0.014791531 0.11412299 13223867
0.79024011 -0.0052932692 0.11466202 13092281
0.78900003 0.0085673565 0.11448231 13421246
0.79015005 0.0030300505 0.11464913 13158074
0.78879982 0.015027706 0.11445404 13750212
0.78859997 0.025178155 0.11442564 13487039
0.78855997 0.035329875 0.11441985 12960439
0.78832 0.044546291 0.11438476 12960439
0.78800005 0.054806314 0.11512778 13026232
0.78773338 0.064797811 0.11521961 13223867
0.78683352 0.074853674 0.11508767 13289147
0.78549993 0.084841028 0.1148947 13157561
0.78622216 0.095047422 0.11500011 12368302
0.78845459 0.10261322 0.11490627 13619141
0.79146671 0.10772344 0.11483957 10461333
0.7889998 -0.11352351 0.12445644 14407886
0.79000002 -0.11903067 0.12479912 14012615
0.78899974 -0.10502703 0.12464111 14539727
0.78899974 -0.094868183 0.12464111 14671057
0.78899992 -0.086447746 0.12556468 14605264
0.79000002 -0.082540505 0.12358988 14473679
0.78900003 -0.073626958 0.12002348 14276557
0.79000032 -0.075032726 0.12548521 14407886
0.7889998 -0.064249568 0.12357552 13750213
0.79000002 -0.066939123 0.12818968 14210507
0.78899974 -0.055222277 0.12431128 14144970
0.79000002 -0.054301523 0.12942263 14210764
0.78899997 -0.046915583 0.12485426 14408141
0.79000008 -0.043968983 0.12467851 14276555
0.79000026 -0.034882784 0.12479912 13684418
0.78899992 -0.023756251 0.12730309 13421246
0.79000002 -0.025538422 0.12241435 13289660
0.78899974 -0.014393549 0.12480037 13158074
0.79000002 -0.018238146 0.1201756 13092281
0.78892285 -0.0054274541 0.12533896 13092281
0.79000002 -0.0043676146 0.1201756 13026488
0.78890598 0.0051037166 0.12520297 13223867
0.79000002 0.0030300021 0.1201756 13092281
0.78899974 0.015032079 0.12464111 13092281
0.78900003 0.023343861 0.12202445 12829109
0.79000014 0.026147554 0.12610912 12631473
0.78900003 0.036273304 0.12002348 12631217
0.7900002 0.03525231 0.12551044 12828852
0.78899986 0.045751654 0.12342598 12762804
0.79000002 0.042624064 0.12690072 12762803
0.78854829 0.054562058 0.12531441 13025976
0.78663999 0.064706042 0.12518834 13091769
0.78450018 0.074860893 0.12518914 13091769
0.78386199 0.084539019 0.12550189 13025977
0.78586668 0.095005155 0.12506492 13487298
0.78868747 0.10365076 0.12516859 11777194
0.79084617 0.10834961 0.12457596 10527126
0.78899992 -0.11264616 0.13456912 14736851
0.79033333 -0.11733385 0.13543956 14341069
0.78839988 -0.10494781 0.13469638 14868436
0.78820002 -0.094771676 0.13466248 14868436
0.7889598 -0.084704854 0.13479295 14736850
0.78900003 -0.078552462 0.13787843 14868435
0.7900002 -0.074199736 0.13462839 14473936
0.79000014 -0.064473264 0.13497089 14276557
0.78900003 -0.054364722 0.13348067 14013129
0.79000002 -0.055534463 0.13548458 14013385
0.78900009 -0.045585182 0.13563958 14408142
0.79000002 -0.044713829 0.13448419 14473935
0.78900003 -0.034838628 0.13849412 14473678
0.79000002 -0.034882784 0.13404617 14013127
0.78899974 -0.024520552 0.13479999 14078663
0.79000002 -0.029334571 0.13497084 14078663
0.78883988 -0.014518645 0.13477236 13684163
0.78812003 -0.0052794414 0.13464908 13026490
0.78866655 0.0048719519 0.13474295 13158332
0.7889998 0.015032079 0.1348 13289661
0.78900003 0.021681508 0.13553882 13224125
0.79000002 0.026979785 0.13460097 13158332
0.79000014 0.035394572 0.13497084 13421248
0.78899992 0.045854948 0.13572353 12631474
0.79000002 0.042381212 0.13332692 13092025
0.78825808 0.054839488 0.13485092 12565424
0.78545713 0.065395258 0.1349833 12697011
0.78282762 0.075009629 0.13513657 12434095
0.78206885 0.085166246 0.1352572 12301739
0.7846365 0.095274955 0.13488936 12960695
0.78839999 0.10361303 0.13469778 11382437
0.79049999 0.10851526 0.13505627 10461590
0.78899986 -0.1126097 0.14510466 14473422
0.79036367 -0.1173197 0.14495632 14670545
0.78859991 -0.10497488 0.14488624 14736594
0.7884444 -0.094800919 0.14485836 14736594
0.78899974 -0.084709339 0.14495887 14802386
0.78900003 -0.078059904 0.14736001 14868179
0.79000032 -0.07407821 0.14475478 14539215
0.79000026 -0.064473264 0.14514254 14210507
0.7889998 -0.05406487 0.14554653 14013128
0.79000002 -0.058231514 0.14352433 14078665
0.78894418 -0.044994369 0.14494827 14473678
0.78899974 -0.034838628 0.14495887 14407629
0.78899974 -0.02467978 0.14495884 14078663
0.78859991 -0.01451498 0.14488535 13815491
0.78800005 -0.005278918 0.14477512 12960440
0.78852767 0.0048719067 0.14487179 13026746
0.78899974 0.01509577 0.14479959 13421248
0.7889998 0.024338434 0.14467467 12960440
0.79000002 0.027442139 0.14588232 12829111
0.78899986 0.035626836 0.1466212 13223869
0.79000002 0.034839757 0.14181362 13421248
0.78889972 0.044578969 0.14494018 12894904
0.78777158 0.054525524 0.14486428 12434352
0.78608 0.064661458 0.14534274 12762803
0.78483337 0.074663781 0.14511347 12960182
0.78340012 0.084614217 0.14484884 12498861
0.78533345 0.094942242 0.14520574 13025975
0.78874999 0.10288924 0.14414416 12171436
0.79082358 0.10741708 0.14556582 10329747
0.7889998 -0.11410842 0.15527163 14538699
0.79000002 -0.11958549 0.15531427 14077636
0.7889998 -0.10502702 0.15511766 14670541
0.78886646 -0.094852783 0.15509099 14539212
0.78875983 -0.084682815 0.15506974 14605006
0.7889998 -0.075474016 0.15511771 14276296
0.78899986 -0.065315165 0.15634906 14210246
0.79000002 -0.065397948 0.1534649 14473419
0.7889998 -0.05515632 0.15511771 14210246
0.78886646 -0.044990342 0.15509203 14407882
0.7889598 -0.034837052 0.15510984 14276041
0.78829998 -0.024658319 0.15497905 14143941
0.78808004 -0.014504284 0.15493646 13881539
0.78800005 -0.0052789189 0.15492108 13223611
0.78810006 0.0048681786 0.15494037 12961468
0.78875995 0.015027974 0.15506957 13027261
0.7889998 0.025080102 0.15570877 12763832
0.79000002 0.025777673 0.15235522 12434353
0.7889998 0.035503697 0.1552716 12632244
0.79000002 0.031695768 0.15161547 12236976
0.78883982 0.044575296 0.15508632 12631730
0.78776681 0.054657232 0.15487559 12237230
0.78652 0.064697944 0.15463115 12698038
0.78589988 0.074766122 0.15450819 12763316
0.78470004 0.084755875 0.1551917 12367788
0.78664511 0.094951712 0.15483296 12763059
0.78900003 0.10184405 0.15511769 14013125
0.79080951 0.10684026 0.15520856 10329490
0.79291308 -0.12476004 0.16516769 11183259
0.78899986 -0.11309578 0.16396415 13486268
0.79000002 -0.11792104 0.16530105 13618112
0.78899974 -0.10502703 0.16527651 13881025
0.78891635 -0.094858594 0.16525954 13815234
0.78866655 -0.084673077 0.1652078 13881027
0.78899974 -0.075474024 0.16527648 13881027
0.78899974 -0.065315172 0.16527654 13749954
0.78896642 -0.055154063 0.16526937 13750211
0.78899974 -0.044997472 0.16527653 13881797
0.78899974 -0.034838628 0.16527656 13618882
0.78816676 -0.024654562 0.16510251 13421503
0.78813344 -0.014504516 0.16509558 13223868
0.78850001 -0.0052819555 0.16517352 12829367
0.78855544 0.0048702247 0.16518509 12632245
0.7887665 0.015028023 0.16522881 12763831
0.78899974 0.024729157 0.16481473 12369330
0.79000002 0.02892166 0.16826011 13289662
0.78899992 0.03559605 0.16262905 12171693
0.79000002 0.035024695 0.16715047 12763574
0.7889998 0.044836964 0.16384925 12631473
0.79000002 0.04279219 0.16826011 13487041
0.78841662 0.054702323 0.16515549 12434864
0.7877 0.064795464 0.16500561 12303021
0.78669435 0.07484109 0.16479483 12302508
0.78575999 0.084870145 0.16551851 11907750
0.78728575 0.095307656 0.16504952 13026489
0.78900003 0.10184405 0.164353 13750212
0.79130006 0.10677509 0.16483316 10264210
0.79058641 -0.11462145 0.17502303 14867666
0.78900003 -0.10281055 0.17248008 14801872
0.79000002 -0.10571496 0.1763975 15064788
0.78899974 -0.094538346 0.17530344 14867665
0.79000002 -0.099611931 0.17750713 15064788
0.7889998 -0.084709331 0.17543535 14276042
0.78899986 -0.075474024 0.17481968 14276042
0.79000002 -0.074460037 0.17898664 14210249
0.78893083 -0.065150641 0.17529278 14144456
0.78855985 -0.055125747 0.17533818 14144456
0.78899974 -0.044997476 0.17543539 14078663
0.7889998 -0.034838628 0.17543535 13881540
0.78869987 -0.02467083 0.17536956 13684161
0.78887987 -0.014518538 0.17540917 13420990
0.78900003 -0.006516993 0.17297262 13552575
0.79000002 -0.0045987903 0.17704479 13289403
0.78900003 0.0085673565 0.17497361 13223867
0.79000002 0.0035343855 0.17582586 13355196
0.7889998 0.015032078 0.17543536 13157817
0.78900003 0.021804644 0.17358832 12894647
0.79026949 0.026299719 0.17571805 12828853
0.79165375 0.035327218 0.1743892 12500401
0.7915771 0.044871349 0.17437281 12566194
0.78889465 0.056437265 0.17463464 12631731
0.79036367 0.0518944 0.17708468 12499887
0.78808004 0.064826727 0.17523111 12500145
0.78716677 0.074886009 0.17502794 12565424
0.78660011 0.084960692 0.17490278 12104872
0.78796673 0.095257126 0.17520626 12828852
0.79143345 0.10586716 0.17504844 10724248
0.78900003 -0.11056822 0.18836482 14275272
0.79054171 -0.11464147 0.18487664 14407372
0.78900003 -0.10872115 0.18836482 14472651
0.79000014 -0.10500603 0.18475066 14670801
0.78899992 -0.092328474 0.18443984 14999509
0.79000002 -0.097894616 0.18516895 14867923
0.7889998 -0.084709339 0.18467073 14736337
0.78900003 -0.079168148 0.18467069 14473165
0.79004014 -0.073723815 0.18491431 14341835
0.78900003 -0.061313201 0.18159227 14012870
0.79036373 -0.06492357 0.18541136 14078663
0.78900003 -0.054694552 0.18236189 14078664
0.79000002 -0.055653013 0.18703869 14013127
0.78899974 -0.044838246 0.1845433 14144456
0.79000002 -0.049678016 0.18860355 14144456
0.78899986 -0.035146475 0.18343933 13749698
0.79000002 -0.03409018 0.18807516 13947077
0.78899986 -0.024547849 0.18335138 13486526
0.79000002 -0.025019296 0.18798707 13618112
0.78899992 -0.014767208 0.18294677 13289147
0.79000002 -0.014169457 0.18749389 13223354
0.79000014 -0.0052923169 0.18490475 12960184
0.78900003 0.00810559 0.18143834 13354942
0.7900002 0.0043814895 0.18540269 13025977
0.78900003 0.014878155 0.1823619 13157562
0.79000002 0.015193393 0.18703867 12894390
0.78900003 0.020573268 0.18282363 13091768
0.79041404 0.025397349 0.18506536 12697010
0.78900003 0.058899827 0.18236187 12565424
0.79119241 0.054251496 0.18554036 12631217
0.78838456 0.06499289 0.18474007 12631217
0.78752786 0.074920632 0.18524921 12631217
0.78713346 0.085018948 0.18515584 12170409
0.78813893 0.095276847 0.18539149 12763572
0.78900009 0.10402694 0.18634985 10263954
0.79014289 0.10688045 0.18361653 10263954
0.79059285 0.11493683 0.18462998 10329747
0.79136008 0.12438171 0.18522468 10395797
0.78899992 -0.11230662 0.19510117 14144199
0.79007691 -0.11697938 0.19473937 14472907
0.7889998 -0.10538223 0.19546892 14276042
0.79000002 -0.10284839 0.19091532 14341580
0.7889998 -0.093944639 0.19582412 14605009
0.79000002 -0.097392648 0.19248728 14407630
0.78899974 -0.084709331 0.19482949 14802388
0.78899986 -0.076835014 0.1958503 14802388
0.79011768 -0.072098859 0.19396269 14736595
0.79063362 -0.064524792 0.19523124 14407629
0.79040021 -0.055255044 0.19517447 14078664
0.79008371 -0.045059159 0.19509754 14079176
0.79006696 -0.034885962 0.19509333 13881540
0.79000038 -0.024711061 0.19507647 13553344
0.79000026 -0.01453934 0.19507644 13289916
0.79036695 -0.0052935248 0.1951668 13092538
0.7918064 0.0047414182 0.19477591 12895159
0.79172003 0.015083432 0.19457577 12960182
0.79166669 0.025276458 0.1945626 12894389
0.79188883 0.035684779 0.19502705 12433838
0.79156661 0.044729657 0.19545999 12697010
0.78900003 0.057145119 0.19907779 12697010
0.79058087 0.054463781 0.19453187 12697010
0.78888869 0.065029941 0.19524658 12631217
0.79000002 0.061286233 0.19137767 12697010
0.78790009 0.074956484 0.19547977 12696753
0.78700006 0.085003987 0.19525546 12631215
0.78783339 0.095239356 0.19546314 12895157
0.7889998 0.10473509 0.19398631 10066575
0.79014289 0.10833373 0.19788669 10264209
0.78900003 0.11107937 0.19205895 10198416
0.79080778 0.11496712 0.19485007 10330003
0.79292309 -0.12440129 0.20479266 11643555
0.78882343 -0.11282501 0.20526779 14473165
0.79000002 -0.11792103 0.20524819 14670544
0.78839993 -0.10494716 0.20483112 14210250
0.78853321 -0.09481176 0.20486575 14407372
0.78871995 -0.084678791 0.20491464 14276044
0.78879982 -0.075454891 0.20493554 14408143
0.78878552 -0.065561302 0.20519552 14473680
0.79000002 -0.061699148 0.20154938 14473936
0.78900003 -0.05700339 0.20729722 14473936
0.79000002 -0.054355919 0.20416027 14276300
0.79030031 -0.045070875 0.20532556 14342093
0.79000014 -0.03488278 0.20524818 13947335
0.78899992 -0.023294484 0.2066046 13552319
0.79000002 -0.026296267 0.20339878 13618112
0.78899986 -0.014715361 0.20605777 13289660
0.79000002 -0.013922869 0.20185763 13026489
0.78900003 -0.0080562122 0.20868251 13355453
0.79004353 -0.0050511779 0.20493761 13223868
0.79091448 0.0050179567 0.20468952 13092282
0.7912668 0.015076121 0.20464869 13092026
0.79194432 0.025285261 0.20482619 12828597
0.79139286 0.035256401 0.20501368 12499631
0.78900003 0.046739995 0.20575802 13026229
0.79000002 0.042649928 0.20453686 12631472
0.78846657 0.054706153 0.20484875 13025973
0.7876333 0.064789347 0.20555264 13091766
0.78569448 0.074744135 0.20504458 13157560
0.78423363 0.084705934 0.20466359 13289146
0.78685302 0.094908454 0.20507854 13421245
0.78900003 0.10221346 0.20351073 9934219
0.79121059 0.10651818 0.20575921 10000782
0.79270822 0.11569919 0.20463879 10264211
0.79203016 0.12498963 0.20509809 10330003
0.79228574 -0.12507579 0.21484873 11051675
0.78821212 -0.11465368 0.21518312 14012870
0.79000002 -0.11995538 0.21264581 14472653
0.78693336 -0.10475271 0.21458127 13947078
0.78697073 -0.09489432 0.21437432 14078407
0.78700006 -0.08483924 0.21482898 13946822
0.78720003 -0.075301751 0.21465415 14013128
0.78763902 -0.065201737 0.21477477 14210764
0.78851718 -0.055249147 0.2151735 14210764
0.79000002 -0.051527418 0.21079642 14277327
0.78879148 -0.044985745 0.21693628 14408143
0.79000002 -0.045054507 0.21172108 14474449
0.78859985 -0.034525815 0.215886 14408143
0.79000002 -0.036362305 0.21116629 14408143
0.78838885 -0.024660924 0.21497899 13881543
0.78846657 -0.014510727 0.21500014 13552833
0.78892571 -0.0056268233 0.21557139 13487040
0.79000002 -0.0022099763 0.21141286 13355453
0.7889998 0.0047527691 0.21711478 13289660
0.79000002 0.0050927997 0.21193448 13092282
0.78899992 0.014339428 0.21745607 13092281
0.79000002 0.01584373 0.21277788 13158075
0.78900003 0.024531262 0.21950103 12960695
0.79037958 0.025395079 0.21446943 12894902
0.78900003 0.038120367 0.2197649 12894902
0.79036021 0.035410047 0.21459192 12763059
0.7889998 0.045676541 0.21573494 13026231
0.79000002 0.041636318 0.21380168 12828596
0.78775012 0.05465522 0.21480523 13223353
0.78417659 0.06541948 0.21566296 13289147
0.77900004 0.073198453 0.2188032 13092283
0.78173339 0.075161986 0.21468668 13091768
0.78180003 0.084444448 0.21501191 12894902
0.78606069 0.095116727 0.21509683 13289660
0.79250014 0.10508375 0.21517518 10066831
0.78900003 -0.12165061 0.22484432 14406858
0.79145467 -0.12573817 0.22516498 10525073
0.78796673 -0.11503755 0.2250115 14473421
0.78680015 -0.10473513 0.2246788 14276042
0.7863335 -0.095127292 0.22488654 14210249
0.78599977 -0.085036665 0.22515292 14209736
0.78599989 -0.075250491 0.22521079 13618112
0.7865001 -0.065323547 0.22524096 13684162
0.78788012 -0.055077564 0.22498582 13881799
0.7877 -0.044923998 0.22493391 14079178
0.7871154 -0.034614418 0.22497895 14276556
0.78687513 -0.024785448 0.22504316 14013385
0.78784007 -0.01449893 0.22497435 13684419
0.78847992 -0.0052807289 0.22515744 13487039
0.78899974 0.0048732297 0.22530611 13158074
0.7889598 0.015031221 0.2252945 13158074
0.78879982 0.025183916 0.22524832 12960695
0.78855985 0.035329871 0.22517902 12829109
0.79000002 0.03354517 0.22004344 12829109
0.78711766 0.045396879 0.22568582 13026488
0.78429037 0.055154014 0.22472446 13158074
0.77893347 0.066262618 0.22790198 12960695
0.78136367 0.064106174 0.22370476 13092281
0.77843326 0.074967295 0.22502118 13092281
0.77868181 0.083029576 0.22550808 13289915
0.78118187 0.088201046 0.22456966 13224122
0.78618538 0.09542121 0.22491007 12829367
0.78900003 -0.1216506 0.23454139 14012358
0.79171437 -0.12683855 0.23508306 9999244
0.78814709 -0.11484519 0.23515597 14078663
0.78730017 -0.10480075 0.23495844 13947334
0.78720015 -0.094731286 0.23506036 13881284
0.78688002 -0.084482089 0.23575424 13815748
0.7868461 -0.075197034 0.23553133 13683905
0.78678113 -0.064900868 0.23537876 13552319
0.78703344 -0.055018768 0.23487782 13552319
0.78700024 -0.044883426 0.23486799 13618368
0.78700012 -0.03487739 0.23502688 13750212
0.78700018 -0.024454456 0.23513925 13684419
0.78773344 -0.014496609 0.23508741 13355453
0.78813344 -0.0052793426 0.2352057 13289660
0.78824997 0.0048681744 0.23523995 13355453
0.78813338 0.015015488 0.23520555 13355197
0.78808331 0.025161363 0.2351909 12960438
0.78730011 0.035272039 0.23495576 12828852
0.78381824 0.045287561 0.23499964 13026488
0.7790001 0.057089522 0.23597594 13092024
0.78077781 0.053664926 0.23372048 13092281
0.7790001 0.063914411 0.23447002 12894902
0.78050005 0.068086445 0.23772527 12697266
0.77900004 0.074794151 0.23225266 12763316
0.78118759 0.075232916 0.23713534 12434094
0.77900004 0.082316719 0.23156877 12368558
0.78123808 0.085602343 0.23476112 12236971
0.78646678 0.095816754 0.23525983 12303022
0.78900003 0.10184405 0.23823553 10198161
0.79250008 0.10570141 0.23496115 10132368
0.78900003 -0.12165061 0.24192965 13881030
0.79156005 -0.12597822 0.24545549 10722712
0.78825808 -0.11522768 0.24521427 13947590
0.78796005 -0.1048884 0.24530023 13881541
0.78800005 -0.094747946 0.24531247 13815747
0.78796005 -0.084597863 0.24530023 13749698
0.78792 -0.075370714 0.24528797 13683905
0.78780013 -0.065215841 0.24525118 13420734
0.78724009 -0.055034041 0.24507661 13289404
0.7863667 -0.044848736 0.24480362 13223610
0.78688014 -0.034743525 0.24496435 13289660
0.78786671 -0.024644176 0.24527153 13289660
0.78800005 -0.01450253 0.24531244 13289660
0.78776008 -0.0052782469 0.24523744 13289660
0.78743356 0.0048640613 0.24513476 13289660
0.7872594 0.01520258 0.24548863 13289147
0.78591675 0.025090365 0.24557813 12762803
0.78390008 0.035119478 0.24494846 12565681
0.78197062 0.044884942 0.24461733 12829109
0.77900004 0.055873752 0.24159884 12763316
0.78029406 0.05462414 0.24603042 12565937
0.78139997 0.065194823 0.24508873 12368558
0.78296173 0.075474948 0.24536569 12171179
0.78353351 0.084630497 0.2448393 12368557
0.78690326 0.094983213 0.24514964 11974055
0.78900003 0.10184405 0.24100612 9869196
0.79195243 0.10558429 0.24495295 10001039
0.79162955 -0.12597214 0.25529701 10854811
0.78864276 -0.11480548 0.25454599 14342348
0.79000002 -0.11995538 0.25795621 14341837
0.78800005 -0.10489392 0.25453606 14276556
0.78800005 -0.094747938 0.25453612 14144713
0.78800005 -0.084601969 0.25453609 14013126
0.78800005 -0.075378366 0.25453609 14012870
0.78777152 -0.065134816 0.25525147 13816005
0.78736681 -0.055042848 0.25525185 13947591
0.78688246 -0.045093391 0.25482643 13487040
0.78780007 -0.034784891 0.25447249 13223867
0.78863317 -0.024667257 0.25474158 13092281
0.78847992 -0.014512207 0.25469223 13092281
0.78796005 -0.0052788379 0.25452328 13289660
0.78715163 0.0051103863 0.2547636 13092281
0.78416663 0.01493664 0.25494593 13091768
0.77900004 0.028518956 0.25801173 12631730
0.78147048 0.024733642 0.25495294 12763060
0.77900016 0.035553046 0.25683936 12434866
0.78075004 0.034408353 0.25276381 12631730
0.77900016 0.043759488 0.25696963 12435122
0.78036368 0.045758642 0.25314915 12631730
0.78162062 0.055021621 0.25506318 12303278
0.78246677 0.065281637 0.25458175 12237228
0.78308022 0.075415321 0.25478041 12499887
0.7832402 0.084599279 0.2548323 12631730
0.78710341 0.094551481 0.25475317 12236971
0.79174995 -0.12532239 0.26501414 11380640
0.78834277 -0.11496018 0.26492849 14342092
0.79000002 -0.11995538 0.26073033 14407630
0.78723335 -0.10479225 0.26442203 14408142
0.78713906 -0.094643854 0.26439095 14342349
0.78746676 -0.084544629 0.26450121 14210505
0.78706676 -0.07528986 0.26436642 14144969
0.78632277 -0.065183096 0.26485941 13947590
0.78623992 -0.054963194 0.26501018 14013383
0.78734392 -0.044670861 0.26503691 14079176
0.78803343 -0.034795787 0.26469311 13750212
0.78844428 -0.024662664 0.26482964 13421246
0.78796673 -0.014502307 0.26466921 13092281
0.78790009 -0.0052783266 0.2646479 13158074
0.78661776 0.0047459062 0.26481119 13223867
0.7826072 0.014710792 0.26502725 12960695
0.77899992 0.025783477 0.26584083 12697523
0.7801429 0.021124886 0.26347747 12829109
0.77899992 0.034901742 0.26530629 12566195
0.77900004 0.043108176 0.26530632 12698038
0.78050005 0.048673265 0.2649036 12764087
0.78230768 0.05533801 0.26530647 12697523
0.78343356 0.064812258 0.26425019 12565937
0.7847777 0.075170338 0.26472342 12434094
0.78531992 0.084822804 0.26470152 12368558
0.78757143 0.094683759 0.26519638 12302510
0.79213637 -0.12491935 0.27534172 11643555
0.78774196 -0.11485752 0.27491564 14210249
0.78543317 -0.10455288 0.27485129 14342093
0.78541917 -0.095178775 0.27469647 14342092
0.78542852 -0.08511281 0.27497873 14210249
0.78589988 -0.075177327 0.27501458 14144456
0.78599977 -0.065066829 0.27505046 14012870
0.78599989 -0.054946601 0.27505052 14078663
0.7863887 -0.044847324 0.27518561 14341835
0.7870667 -0.034753423 0.27542028 14144713
0.78649992 -0.025177473 0.27499098 14079178
0.7854706 -0.015105614 0.27507704 13618625
0.78506672 -0.005260204 0.27471891 13420733
0.78354293 0.0047065546 0.27431709 13223354
0.7790001 0.016969152 0.27609631 12829109
0.7807222 0.013451681 0.27391312 12894646
0.77846664 0.024853921 0.27514705 12763316
0.77876002 0.034891736 0.27525157 12631730
0.7790001 0.041740436 0.27488056 12829109
0.78057897 0.047187537 0.27541402 13026488
0.78256005 0.055214506 0.27476275 12894902
0.78428584 0.064713657 0.27477711 12631729
0.78536105 0.074714959 0.27482641 12368557
0.78476661 0.084763058 0.27461785 12302252
0.7862941 0.094840989 0.27488041 12039851
0.78881818 0.10349974 0.27645606 9869453
0.79147059 0.10717767 0.27418232 9935246
0.78900003 -0.12165061 0.28995332 13420735
0.79207414 -0.12604396 0.28510723 11183774
0.78765714 -0.11512533 0.2849811 14144969
0.7850799 -0.10450597 0.28483701 14079176
0.78362089 -0.095013641 0.28506562 14144712
0.78345746 -0.085161008 0.28503338 14078920
0.78535998 -0.07512451 0.28493857 14210506
0.78589988 -0.065058827 0.2851342 14144456
0.78604007 -0.054949213 0.28518543 13947334
0.78630006 -0.044844318 0.28528041 14210506
0.78455555 -0.034441054 0.28505269 14013383
0.78226668 -0.025386842 0.28472811 14144969
0.78158343 -0.015299059 0.28447926 13881797
0.78213316 -0.0052396953 0.28468227 13618368
0.78216672 0.00483122 0.28469646 13026488
0.77900004 0.017273095 0.28202316 12829365
0.78099996 0.014108974 0.28595653 12894902
0.77890319 0.025427306 0.28477281 12763317
0.78050005 0.02035163 0.28774375 12894903
0.77885729 0.034461804 0.283795 12565937
0.78025001 0.037241407 0.28810781 12434353
0.77900004 0.040372699 0.28171921 12631217
0.78148276 0.045550786 0.28536236 12697267
0.78290021 0.055238023 0.28496364 12894902
0.78396165 0.064349122 0.28464431 12565938
0.78499991 0.074681096 0.28480795 12368558
0.78464007 0.084749736 0.28467864 12434093
0.78677416 0.095203452 0.284978 11710885
0.78864288 0.10430435 0.28296506 9935246
0.79045463 0.10724717 0.28661984 9803660
0.79140002 0.11512402 0.28527805 9869453
0.79120708 0.1251211 0.28508073 10001039
0.78900003 -0.1216506 0.2954945 13551807
0.79163647 -0.12652503 0.29513246 11117466
0.78638703 -0.11501654 0.29486969 13881541
0.78375775 -0.10482997 0.29469517 14078919
0.78323102 -0.095233098 0.29495433 14144713
0.78351641 -0.084887907 0.29509622 14341835
0.78483325 -0.075074978 0.29485062 14210506
0.7851944 -0.064999662 0.29498684 14078921
0.78636664 -0.054970838 0.29542786 14012871
0.78677148 -0.044792235 0.2954486 14210505
0.78464288 -0.03484631 0.29510799 14013383
0.78161532 -0.025224749 0.29477048 14013127
0.78069466 -0.015281204 0.29512659 13749698
0.78179991 -0.005237306 0.29554251 13552575
0.78211123 0.0048312019 0.29565874 13026488
0.77900004 0.016665209 0.29904392 12698295
0.78144836 0.014823944 0.29525045 12960953
0.77900004 0.026999243 0.29397818 12697525
0.78025007 0.023769239 0.29571813 12829111
0.78081483 0.03478172 0.29466382 12500146
0.78300017 0.045164965 0.29508141 12631732
0.78452003 0.055352591 0.29565316 12894904
0.78499991 0.064700477 0.29507369 12500145
0.78497213 0.074678287 0.29490471 12500143
0.78479993 0.084767774 0.29483858 12104872
0.7876364 0.09345755 0.2950671 12105130
0.79000002 0.09827432 0.2967937 9540230
0.78858346 -0.12266382 0.30533755 13748928
0.79118752 -0.12777752 0.3046464 10064778
0.78560728 -0.11568159 0.30505964 14144456
0.78163886 -0.10496413 0.30463117 14276042
0.78136665 -0.094863698 0.30452397 14539214
0.78222203 -0.08489681 0.30485785 14539470
0.77900004 -0.070870131 0.30998585 14407628
0.78223336 -0.074827909 0.30485982 14605007
0.78205562 -0.064740039 0.30478919 14473422
0.78316671 -0.054747287 0.30522108 14012870
0.78367579 -0.044768799 0.30524594 14144456
0.7827667 -0.034564402 0.30506837 13947077
0.78120691 -0.025478857 0.30461976 13815748
0.77900016 -0.013761003 0.30701035 13487039
0.78040004 -0.016676052 0.30335605 13487039
0.7786001 -0.0049436865 0.30700034 13158074
0.78020012 -0.0057742288 0.30242664 13355453
0.77735496 0.0049465974 0.30551243 12960953
0.78000003 0.0039046451 0.3012538 13092283
0.7771669 0.01480686 0.30470401 12829624
0.77870846 0.023116283 0.30546331 12500659
0.78050011 0.02839162 0.30473626 12434866
0.78171414 0.035220582 0.3049877 12434866
0.78244448 0.045131091 0.30494371 12697781
0.78216684 0.05518496 0.30483359 12829111
0.78285295 0.065044984 0.30531693 12434096
0.78390646 0.07514929 0.30528301 11973544
0.78351748 0.084502906 0.30520383 12104616
0.78753847 0.094000801 0.30536944 11709858
0.79000002 0.09827432 0.30234194 9737608
0.78870583 -0.12356099 0.31504259 13354685
0.79036367 -0.12825309 0.31501189 9276291
0.78626925 -0.11542834 0.31507355 13947334
0.78345448 -0.10479016 0.31434548 14144713
0.78275001 -0.09503372 0.31422892 14342092
0.78244829 -0.084764168 0.31489938 14342091
0.77900004 -0.070870131 0.31180951 14341835
0.78204346 -0.075127251 0.3151027 14342348
0.77900004 -0.06539917 0.31180951 14407628
0.78087503 -0.064643487 0.3148481 14407885
0.77900004 -0.05992822 0.31180951 14473421
0.78048003 -0.054560628 0.31423032 14013127
0.78106898 -0.044700678 0.31440315 14013127
0.78133327 -0.034561284 0.31536272 13881797
0.78096163 -0.025484186 0.31463319 13815748
0.7790001 -0.012513238 0.31396475 13421248
0.78066659 -0.016906269 0.31582841 13355455
0.77772009 -0.0052122991 0.31493837 13092283
0.77615184 0.0049310341 0.31479919 12763831
0.77623087 0.014649863 0.31454533 12763832
0.77833349 0.023247156 0.31518707 12895417
0.78054559 0.028658962 0.31508538 12829881
0.78137028 0.034805395 0.3149924 12698295
0.78176653 0.045090903 0.31474686 12829624
0.78068 0.055080075 0.31431165 12960952
0.78159988 0.065210648 0.3146807 12697266
0.78276014 0.075384878 0.31514725 12170665
0.7833463 0.084752426 0.31517112 11973286
0.78733325 0.094261371 0.31514427 11118492
0.78888893 -0.12307008 0.32336041 13157820
0.79058826 -0.1270135 0.32624671 10526359
0.78816658 -0.1150649 0.32378337 13224126
0.79016668 -0.11535522 0.32922772 10856093
0.78799993 -0.10512509 0.32302332 13618884
0.79077774 -0.10485192 0.32866037 11842731
0.78789473 -0.09458892 0.32323542 13750214
0.79059994 -0.095801257 0.32866853 12302767
0.78787494 -0.084933557 0.32435554 13487555
0.79000002 -0.084816694 0.32915828 12303025
0.78793335 -0.075372301 0.32460982 13553604
0.79000002 -0.075569674 0.32915828 13093054
0.78612512 -0.065081321 0.32478717 13882312
0.78419995 -0.054821003 0.32399291 13947847
0.78408331 -0.044717956 0.32394445 13882054
0.78323811 -0.034760125 0.32521075 13816775
0.78388005 -0.025068412 0.32507184 13750726
0.78403848 -0.015490195 0.32512569 13421760
0.77800012 -0.0042330208 0.32233745 13355454
0.78127283 -0.0060668285 0.32735184 12829624
0.77779174 0.0045003039 0.324074 12697782
0.78000003 0.0057306387 0.32864371 11974059
0.77793342 0.014457441 0.32279661 12829624
0.78137505 0.015572724 0.32808095 12368817
0.77900004 0.02177144 0.32165721 12764088
0.78194439 0.025780007 0.32529658 12698039
0.78313041 0.035326395 0.32478565 12566966
0.78376675 0.045207199 0.32473114 12829881
0.78340006 0.055271983 0.32457775 12698294
0.78374076 0.064879067 0.32451457 12632501
0.78499991 0.075009346 0.32543811 12236972
0.78537512 0.084676772 0.32524285 11776421
0.78800005 0.093415543 0.32463619 11250850
0.79000002 0.097966082 0.32607594 9277318
0.78880006 -0.062898606 0.33087429 10790300
0.79146671 -0.06508784 0.33520681 8816510
0.78837508 -0.055805281 0.33101946 11776681
0.79128563 -0.055317115 0.33617967 9079425
0.78860009 -0.044236772 0.33115992 13092283
0.7911765 -0.04506693 0.33629626 8815997
0.78816676 -0.034341235 0.33346939 9736583
0.79062498 -0.035605077 0.3379795 8290166
0.78822231 -0.024654802 0.33395442 10329236
0.79000002 -0.024711059 0.33840528 7830130
0.78810531 -0.014019631 0.3347795 10527130
0.79000002 -0.017313443 0.33840528 7566703
0.78576195 -0.0054427348 0.33545536 9342855
0.78358346 0.0048403591 0.33474478 9145732
0.78623819 0.015157488 0.335659 9342598
0.78766668 0.024754342 0.33424744 10723992
0.79000002 0.027996957 0.33840528 8356216
0.78830761 0.035177395 0.33370665 11119265
0.79071426 0.035690777 0.33818287 9474696
0.78858334 0.045023307 0.33364555 11053728
0.79049999 0.043975737 0.33792594 10001040
0.78799999 0.055069298 0.33438832 10922141
0.79000002 0.052039217 0.33840528 9606283
0.78775007 0.064800307 0.33467782 10922142
0.78830004 0.074626103 0.33435658 11184800
0.79000002 0.077006176 0.33840528 11448487
0.78843749 0.085390761 0.33381462 10066322
0.79000002 0.085328482 0.33840528 10198166
0.78885716 0.092064567 0.33211204 9145732
0.79088891 0.095609494 0.33590704 9408904
0.78866673 -0.0037453354 0.34214237 8290423
0.79164296 -0.0059659975 0.34652385 8422009
0.78846663 0.0048086792 0.34291747 8422009
0.79044443 0.0049846363 0.34723142 8487801
0.78875005 0.012719656 0.34202456 8290423
0.7913751 0.015658045 0.34605935 8422522
