# .PCD v0.7 - Point Cloud Data file format
VERSION 0.7
FIELDS x y z rgb
SIZE 4 4 4 4
TYPE F F F U
COUNT 1 1 1 1
WIDTH 584
HEIGHT 1
VIEWPOINT 0 0 0 1 0 0 0
POINTS 584
DATA ascii
0.4425953 -0.043922622 -0.062036105 13946306
0.4390001 -0.032823466 -0.063935272 14341834
0.44029993 -0.036862317 -0.062550738 14407113
0.4389331 -0.025032591 -0.063213818 13025204
0.43900001 -0.019384231 -0.06116838 15196116
0.4425157 -0.014526322 -0.063453376 12630704
0.44768575 -0.0065276902 -0.063020624 13355199
0.45025003 -0.0019616568 -0.060364164 13488068
0.45100003 0.00014608743 -0.060200915 12303539
0.46500003 -0.074395657 -0.051372461 13881283
0.4570294 -0.06370832 -0.052600712 13814721
0.46033335 -0.069000654 -0.051748306 14144456
0.44822872 -0.052201375 -0.055029958 13551547
0.45200011 -0.056805532 -0.053020917 13288120
0.44568086 -0.044945043 -0.054920014 13485756
0.4433791 -0.035151422 -0.055020247 13090741
0.43855155 -0.022888238 -0.055002518 13946304
0.44083333 -0.028091723 -0.055154778 12169123
0.43837145 -0.017742913 -0.05368048 14670800
0.44286209 -0.013270179 -0.055804953 13486011
0.44844458 -0.0076392111 -0.056272507 12696752
0.45186275 -0.0035209986 -0.054462943 12697780
0.45612732 0.0029125758 -0.054197866 12697782
0.46138462 0.0085432613 -0.052114062 12566710
0.46538463 0.012474225 -0.051391058 12895674
0.47100005 0.01779604 -0.050741762 11645351
0.49271435 -0.11205643 -0.040887058 13486528
0.4864167 -0.10394556 -0.04148978 13946564
0.49050003 -0.10835315 -0.040785708 13223355
0.47737509 -0.092044882 -0.042277511 13947075
0.48099998 -0.096966013 -0.042036265 14209479
0.47232366 -0.084475927 -0.04440476 13552061
0.46681255 -0.074133426 -0.045674324 13025975
0.47008339 -0.078073241 -0.042297479 12433838
0.45866659 -0.062487319 -0.047040645 12762801
0.46258336 -0.065985553 -0.043818794 12499631
0.44900003 -0.050308179 -0.049422778 12235689
0.45509514 -0.055057481 -0.04532681 12499116
0.44884622 -0.044283293 -0.047465377 13025461
0.45192316 -0.045817561 -0.04278234 12301481
0.44756711 -0.034813374 -0.045993317 13156789
0.45083997 -0.036836151 -0.041560508 12959151
0.43567207 -0.023241585 -0.044698998 13682877
0.44182754 -0.028678291 -0.045457892 12563881
0.43518424 -0.016581541 -0.045362707 14539214
0.44157147 -0.012111862 -0.0486071 14341575
0.44900003 -0.0093146143 -0.048897222 13880768
0.45528305 -0.0038446679 -0.045976341 13026232
0.45852637 0.0015055765 -0.04730643 12368560
0.46403119 0.0055897739 -0.044820976 12237486
0.47000003 0.00895447 -0.041281663 11842984
0.46811762 0.011949261 -0.047270179 12303537
0.47266671 0.015407512 -0.04395942 12303537
0.47660002 0.02107594 -0.044865586 12303538
0.48361906 0.025455475 -0.041909117 12698552
0.49600002 0.032892779 -0.04256402 11645607
0.50115383 0.037525885 -0.043432124 11250848
0.50300002 0.040788177 -0.041825097 11382689
0.49303854 -0.11382222 -0.034427032 13748928
0.48691311 -0.10352445 -0.035230283 13486269
0.49053338 -0.1083988 -0.034779087 13617855
0.47871432 -0.091420874 -0.038284548 12697010
0.48264626 -0.095525026 -0.034659524 12631216
0.47640008 -0.084300496 -0.035462432 12368299
0.48038465 -0.088082045 -0.03176932 12171434
0.46887502 -0.071469516 -0.038575687 11973287
0.47296104 -0.075400099 -0.034622703 12170664
0.46628335 -0.064149 -0.035761997 12104614
0.47053343 -0.067776121 -0.032331817 11972771
0.45838708 -0.052988634 -0.037577577 12170407
0.46268415 -0.055969048 -0.03374416 11973028
0.45627904 -0.044606455 -0.035047036 11840929
0.46020001 -0.048116166 -0.030401573 11709599
0.44825006 -0.030680159 -0.038188782 12498602
0.45372722 -0.035311617 -0.034693729 12235431
0.42875001 -0.021190135 -0.030883925 14144710
0.43311316 -0.023534592 -0.035663057 13616828
0.44507694 -0.028631266 -0.035839655 12366503
0.45100003 -0.029416287 -0.031694338 12301221
0.42881814 -0.018386638 -0.030865889 14474447
0.43032008 -0.015346383 -0.034782313 14342349
0.45900002 -0.0046866941 -0.039778233 12105644
0.4622353 -0.002202583 -0.037571207 12566448
0.46718916 0.0027871912 -0.036434174 12631729
0.4715001 0.0070003225 -0.034150872 12500914
0.47580406 0.013002775 -0.03613995 12106158
0.48135293 0.016961677 -0.033194512 11974572
0.47900003 0.020339414 -0.039268795 12106158
0.48503584 0.023807917 -0.03527474 12237488
0.49072734 0.028461652 -0.034066305 12435123
0.4958387 0.033871725 -0.034599379 12764088
0.50033331 0.038619529 -0.035356354 11909036
0.50342864 0.041527856 -0.034813829 11645864
0.51349998 0.046450607 -0.034288667 10724504
0.52200007 0.049049545 -0.036079928 9737865
0.52733332 0.052431699 -0.033355221 11514019
0.53050005 0.054816466 -0.032934569 11579812
0.49302635 -0.1125864 -0.025592146 12893618
0.48846665 -0.10199585 -0.028227573 12894388
0.49152637 -0.10578549 -0.024525749 13157302
0.4865303 -0.094658211 -0.025419489 12697009
0.49016666 -0.098908044 -0.021441666 13551803
0.47866669 -0.080899574 -0.028782582 12171433
0.48291442 -0.085282043 -0.024641251 12433836
0.47726089 -0.07419654 -0.025473703 12170920
0.48092002 -0.077303745 -0.022312326 12302249
0.46900001 -0.06060062 -0.029299507 11775390
0.47344574 -0.065176845 -0.024942622 11841441
0.46735895 -0.053798206 -0.027004031 11841184
0.47123083 -0.056338646 -0.023127727 11841184
0.45900002 -0.041489251 -0.02876433 12103844
0.46390539 -0.045219097 -0.024813363 12235428
0.43033338 -0.030419474 -0.020503337 12629931
0.45718518 -0.03573399 -0.028120661 12498345
0.46109086 -0.039004169 -0.023765976 12695722
0.42634997 -0.024053155 -0.023924476 13485754
0.42581239 -0.016478362 -0.02461974 14539984
0.43000001 -0.012443686 -0.029211909 14539985
0.42900002 -0.0099040056 -0.021611748 14079691
0.43000001 -0.0084171351 -0.020655487 12829882
0.47318423 0.0053829844 -0.02741676 12961466
0.48063639 0.007111703 -0.020990411 12764088
0.47825006 0.010511578 -0.028290557 12698552
0.48368835 0.015110366 -0.024739066 12698552
0.48774999 0.022025207 -0.027138382 12303794
0.49238461 0.025990102 -0.024602205 12566709
0.49767652 0.03247793 -0.025652004 12632759
0.50241178 0.037214927 -0.024095092 12698551
0.50611436 0.042313501 -0.025543625 12830138
0.51267743 0.047211766 -0.023988297 12830138
0.51771432 0.05193764 -0.023830524 12830138
0.52216661 0.055996045 -0.022704659 12435381
0.52400005 0.060277715 -0.020877449 11382435
0.49536368 -0.11211626 -0.017944135 12301739
0.4932667 -0.1047257 -0.01520171 13419961
0.48819047 -0.092087887 -0.01672844 13354424
0.49110201 -0.095923863 -0.014051228 13551802
0.48682863 -0.084994882 -0.015191508 12828079
0.49000001 -0.088741437 -0.010346013 13025459
0.479 -0.070863523 -0.018710755 12235941
0.48355082 -0.075284816 -0.014550092 12433321
0.4769831 -0.063988432 -0.015100629 12367527
0.4806667 -0.068172641 -0.012148436 12433321
0.47414464 -0.05505693 -0.015085554 12433063
0.46778125 -0.044408429 -0.017332798 12629929
0.47064519 -0.047688141 -0.0138797 12630186
0.42800003 -0.03117248 -0.01079152 12630188
0.43170008 -0.032407105 -0.015348946 12630187
0.42443484 -0.024888337 -0.015144583 13157045
0.42209184 -0.015265523 -0.015343475 14473934
0.42475003 -0.0091831787 -0.013209937 14079177
0.43408003 -0.0046509891 -0.013795367 12303280
0.48094115 0.0080368919 -0.016844407 12764088
0.48463634 0.015113379 -0.014916835 12961466
0.49390289 0.025031848 -0.015051642 12961210
0.49871436 0.03101716 -0.0163665 13027002
0.5040189 0.03568247 -0.014779784 13027259
0.51000005 0.039564535 -0.0107683 13224639
0.50840002 0.040868897 -0.017636305 12895672
0.51316947 0.045563448 -0.014804199 12829881
0.51800007 0.051975824 -0.015720176 12829881
0.52286488 0.05661175 -0.0151395 12829881
0.52696157 0.062471397 -0.015295783 12500659
0.53028572 0.065435007 -0.011905612 11974059
0.49465913 -0.10285079 -0.0047546481 13157559
0.49290282 -0.095039986 -0.0046339626 13157302
0.48847368 -0.082778513 -0.0072434796 12762287
0.49101841 -0.086182818 -0.0035960372 12959666
0.48635066 -0.075111412 -0.0045000841 12630700
0.47900003 -0.060958289 -0.0089924093 12499113
0.48193157 -0.065021761 -0.0045453757 12564906
0.47744188 -0.054434184 -0.0058930484 12564393
0.48049998 -0.057634633 -0.002316966 12564649
0.47470587 -0.048548218 -0.005183103 12761772
0.42618525 -0.031791359 -0.004976999 12564393
0.43133333 -0.035540521 -0.0070784246 12630187
0.41777775 -0.02189853 -0.0034727752 13355451
0.42228377 -0.026508616 -0.0056731007 12762287
0.4170638 -0.015402318 -0.0043149972 14408140
0.42040005 -0.012787804 -0.0089423191 14539983
0.41822222 -0.0082409522 -0.0016516134 13882568
0.42228585 -0.0076532527 -0.0062370785 13487553
0.43477783 -0.0022300982 -0.0080519235 12105900
0.48600003 0.016236708 -0.008696001 12961467
0.4915334 0.018953534 -0.0033174104 12961467
0.49483332 0.025077144 -0.0046537207 12961467
0.49900001 0.030650819 -0.0045783855 13290432
0.50403845 0.035005093 -0.0048111756 13158846
0.51011115 0.039573159 -0.0047987094 13158846
0.51535481 0.045128971 -0.0052942233 12895931
0.52000004 0.048861615 -0.00063214346 13159103
0.51900005 0.051197626 -0.0097433412 12829881
0.52471668 0.054824196 -0.0048744376 12961724
0.53000003 0.059727181 -0.0037461487 13291203
0.52900004 0.060852885 -0.0099310735 12895676
0.53091437 0.06320481 -0.0056352587 12698554
0.49560004 -0.10147383 0.0018345183 12960436
0.49491957 -0.094737522 0.0050811474 12828593
0.49235293 -0.084865928 0.0050313366 12696494
0.4876751 -0.073538221 0.0039190259 12499115
0.49074996 -0.076911636 0.0071594995 12564908
0.48537505 -0.065183774 0.0050954772 12499115
0.46900001 -0.050353203 0.0098602604 12959153
0.47676197 -0.052571427 0.0059241019 12893358
0.48129272 -0.057090037 0.0045138481 12564650
0.44800001 -0.040757149 0.0078455918 11972258
0.45337501 -0.043374427 0.007142459 12235430
0.46400002 -0.047784679 0.0088020535 12367016
0.47000003 -0.04936029 0.0065804496 12893358
0.42370275 -0.032169245 0.0048388615 12103843
0.43525004 -0.035783693 0.0088937739 12038051
0.44225004 -0.038683116 0.0072295796 12038051
0.41601479 -0.023159547 0.0054476298 13025974
0.4208751 -0.028314721 0.0051550125 12235685
0.41329995 -0.014862102 0.0052954727 14211275
0.41448849 -0.0078981528 0.0053859334 13816775
0.49093336 0.019007964 0.0059522679 12961724
0.49432823 0.025051763 0.0051817633 12961467
0.49876928 0.031059034 0.006263834 13224639
0.50429547 0.035401952 0.0050750091 13158846
0.51000005 0.039564531 0.0047526499 13290432
0.51521426 0.043827321 0.0050871233 13224639
0.52161539 0.048544481 0.0061783446 13224639
0.52574003 0.053913418 0.0052462206 13224639
0.53042865 0.059154935 0.0065405997 13093054
0.5311482 0.062620699 0.0059189084 12500917
0.49649996 -0.093339436 0.01471118 12499885
0.49386114 -0.084820896 0.015010783 12499628
0.49179178 -0.075253114 0.014946949 12368043
0.48718652 -0.064430796 0.01449656 12630443
0.49019998 -0.069078058 0.016656527 12564652
0.46825001 -0.050821647 0.013680249 11840670
0.47475004 -0.053808086 0.014538877 12235428
0.48185 -0.058276784 0.014982414 12432807
0.44824997 -0.041217662 0.016856745 11972257
0.45541671 -0.044458538 0.014364018 11840671
0.46425003 -0.048350252 0.013161019 11906465
0.47000003 -0.04936029 0.018683512 11774877
0.41700003 -0.030127268 0.019505262 12235430
0.4261111 -0.031229535 0.013381008 12235686
0.43463638 -0.034784753 0.012704447 12104100
0.44327277 -0.03815994 0.01616589 12103842
0.40900001 -0.020931996 0.019131061 13026742
0.41392511 -0.024066489 0.015190525 12696495
0.42166668 -0.028754856 0.013074587 12301479
0.40863523 -0.015021639 0.016743947 14013895
0.41064996 -0.014647352 0.012068836 14145483
0.40899998 -0.0086215865 0.018447148 14342348
0.41123331 -0.006379663 0.014899457 13750468
0.49083337 0.019309688 0.012806617 12632759
0.49316671 0.025321258 0.01489945 12961724
0.49816668 0.031504575 0.01470212 13027517
0.50381589 0.036270384 0.015245371 13224639
0.51000005 0.039564535 0.018482722 13422275
0.51448649 0.043567546 0.01495239 13290432
0.52162498 0.048404906 0.015238422 13093053
0.52620399 0.054003064 0.0159148 13224382
0.53060013 0.058718856 0.013722034 13092796
0.53113341 0.061762042 0.01472849 11645350
0.49793342 -0.092781797 0.022203144 12564906
0.49699992 -0.085145935 0.024987873 12630700
0.49336618 -0.074870348 0.024999872 12564906
0.48746163 -0.062287033 0.024760425 12630186
0.49088565 -0.067348056 0.025392866 12433064
0.4767693 -0.051788971 0.025044832 11972513
0.48338234 -0.056663718 0.024870634 12301221
0.44900003 -0.040848125 0.021527627 12235171
0.45507145 -0.043463588 0.024107989 12300964
0.46380004 -0.04686607 0.026687264 12169891
0.47033334 -0.049395297 0.025302336 12038306
0.41685715 -0.030465588 0.02535213 12169893
0.42281827 -0.03342792 0.024270035 12301478
0.4458572 -0.038035575 0.021604186 12366757
0.40808576 -0.022141999 0.025909087 12631214
0.41265157 -0.026511841 0.024641968 12235943
0.40635574 -0.01508845 0.024704119 13882052
0.4079569 -0.0055326624 0.025138181 13684676
0.41000003 -0.0035144996 0.020521579 13421248
0.40825 0.00076919189 0.02466975 11842986
0.49296236 0.025987733 0.024712585 12829881
0.49714813 0.031888764 0.025492311 12961467
0.50411439 0.036754131 0.024893496 13356225
0.51000005 0.039564535 0.022064477 13487811
0.509 0.040678531 0.029170681 13553604
0.51510197 0.044697177 0.025445867 13290432
0.52057147 0.0483936 0.022259977 13027260
0.51900005 0.051197626 0.029136289 13158846
0.52403641 0.054511797 0.02477381 13158588
0.49863502 -0.084015884 0.034516871 12893872
0.5 -0.086455703 0.039189473 12630699
0.49615714 -0.074864008 0.034959156 12433320
0.48712504 -0.062279653 0.033335023 12433063
0.49164858 -0.066786028 0.035315145 12432807
0.47547835 -0.053427812 0.0338553 12301221
0.48176473 -0.058095638 0.032817632 12432807
0.46766672 -0.047656786 0.031730894 12301734
0.47080001 -0.04922425 0.034592569 12301221
0.40900001 -0.030889753 0.038472082 12104355
0.41189998 -0.031108165 0.034009036 12169892
0.40640515 -0.02401142 0.035673849 12301993
0.41123813 -0.028382622 0.032849323 12169636
0.40178525 -0.014923044 0.034775376 13684674
0.40362859 -0.0051332922 0.034995809 13684933
0.40616667 0.00029036411 0.035630487 12171952
0.48900002 0.025343068 0.036610171 12303794
0.4921 0.02786617 0.034707014 12566966
0.49564445 0.032656785 0.034784708 12830138
0.50349998 0.037825629 0.034393627 13158846
0.50825 0.040618595 0.03507857 13422018
0.51299995 0.045909122 0.03495663 13356225
0.51721054 0.053220674 0.035852376 13092795
0.52066666 0.054816991 0.030854909 13093055
0.49900004 -0.081610121 0.041739471 12696493
0.50021881 -0.08327397 0.045867365 12630443
0.49742189 -0.074718118 0.044864219 12564393
0.5 -0.079432651 0.048553545 12893358
0.48660001 -0.061756574 0.045484729 12367014
0.4920454 -0.066706061 0.044928994 12367014
0.46900001 -0.050353203 0.047739103 11972258
0.47564703 -0.053822223 0.043926597 12103843
0.48177418 -0.057876047 0.045019351 12301221
0.46463642 -0.048008706 0.045956191 11972257
0.40877777 -0.030809343 0.042087872 11906721
0.41211116 -0.032457121 0.047845591 11906465
0.39880005 -0.020783603 0.048715431 12762545
0.40456319 -0.025127014 0.044755038 12170150
0.3974582 -0.014207554 0.045481484 13750467
0.40015998 -0.016995676 0.041687161 13289659
0.39781645 -0.0066932477 0.046580818 13948361
0.40069497 -0.0037469727 0.043272123 13619141
0.40180004 0.00056916947 0.044308104 12566453
0.49610528 0.032624088 0.044792324 12764089
0.50352633 0.037887126 0.045444764 12895932
0.50758332 0.041061018 0.045918193 13093311
0.51263827 0.04623745 0.044508699 13158848
0.51755261 0.053575948 0.044996563 12632245
0.50027776 -0.081494346 0.053720418 12630445
0.49763083 -0.074779078 0.054945823 12498858
0.5 -0.079432651 0.054054938 12696494
0.48687509 -0.061534751 0.054543536 12367016
0.49222726 -0.066626459 0.055183612 12367016
0.46900001 -0.050353203 0.050483946 11774879
0.47709998 -0.05373909 0.05559836 12235430
0.48193341 -0.057573318 0.055484097 12301223
0.46600002 -0.0489402 0.051251937 11774879
0.47300005 -0.049307037 0.058295742 12301223
0.40849999 -0.030708836 0.056880582 11840672
0.41238466 -0.033771031 0.053409673 11906465
0.39725643 -0.021835471 0.055920802 12433324
0.40387309 -0.026684342 0.054379109 11840673
0.39448816 -0.014836921 0.054830749 13487296
0.39442432 -0.0052150218 0.055019397 13750725
0.3957037 0.0012611421 0.055833623 12829881
0.49805877 0.034799241 0.055462047 12632503
0.50139993 0.038272314 0.05435843 12501173
0.50573683 0.042604446 0.05565026 12895931
0.51142418 0.047441535 0.054104432 13027261
0.51459259 0.052551992 0.054575466 12763576
0.49746379 -0.074783184 0.065207534 12959151
0.5 -0.079432651 0.062599652 12301477
0.48689476 -0.062535234 0.065787099 12564394
0.49219444 -0.067089759 0.064885028 12761773
0.47509098 -0.054124687 0.064812407 12038050
0.48111111 -0.058850296 0.0651794 12235430
0.47062504 -0.04901332 0.065398499 12038051
0.40533337 -0.030655172 0.065976821 11972004
0.41292313 -0.033702783 0.065416768 12038051
0.39537343 -0.023198541 0.065581739 12170152
0.40179998 -0.027872013 0.063625313 11906467
0.38899997 -0.012719037 0.068137854 13553089
0.39152741 -0.015457724 0.064318888 13355452
0.38899997 -0.0081770364 0.068174504 13619397
0.39161512 -0.0049028946 0.064488202 13684933
0.39389548 0.0024703899 0.065228865 12895674
0.491 0.029468589 0.064917669 11777195
0.48900002 0.032211617 0.068663388 12237746
0.49470499 0.034648888 0.064674914 12435125
0.5 0.039764181 0.064745583 12303538
0.50521672 0.044703122 0.064985074 12764089
0.51000005 0.048717916 0.061264828 12829881
0.509 0.050381381 0.066194713 12895674
0.51026326 0.052159417 0.064859264 11711400
0.49438718 -0.073973984 0.075127468 12695981
0.48651114 -0.063703455 0.075602487 12564394
0.49104762 -0.068048276 0.073983982 12630187
0.47615996 -0.054293346 0.075282969 11972257
0.48107997 -0.058408767 0.075074203 12301222
0.47300002 -0.049675353 0.070845939 11972256
0.39646152 -0.030999733 0.076871037 12103587
0.41700003 -0.034522526 0.071244106 12169637
0.42050004 -0.036779307 0.070857674 12103844
0.38863638 -0.02129613 0.07822416 12631216
0.39354813 -0.025405692 0.074769214 12038308
0.40000001 -0.029835463 0.070212476 11841185
0.38699248 -0.014970508 0.075240262 13092282
0.39000002 -0.01935094 0.071348332 12829109
0.38691148 -0.0056136777 0.075207509 13092538
0.39040005 -0.0017007064 0.071268484 13487811
0.38821882 0.0020868662 0.077826887 13224638
0.39203337 0.0043391804 0.074027427 12829882
0.39466667 0.010290979 0.078516312 12237486
0.48900002 0.032211617 0.070952907 12106158
0.49745002 0.038651448 0.074099086 12369331
0.49857897 0.042241916 0.07670325 12237489
0.50353336 0.046090957 0.074287005 12566711
0.50799996 0.051003847 0.075389057 12303795
0.51072228 0.053038619 0.07377246 10922142
0.48875001 -0.071638949 0.088937201 12564395
0.49200001 -0.073190041 0.083685353 12630188
0.48650825 -0.065066576 0.08535745 12367016
0.49060002 -0.069670372 0.082209848 12564394
0.47530439 -0.055149127 0.085125044 12103844
0.48057145 -0.058989149 0.085641503 12367016
0.39440006 -0.031451736 0.08440651 11972259
0.38668969 -0.023835357 0.085798644 11249051
0.39169446 -0.027689684 0.083039753 12038310
0.37845469 -0.013140484 0.087961204 2173215
0.38192075 -0.015718348 0.08392211 2830376
0.37853995 -0.0060089785 0.087730147 2238496
0.38162348 -0.004624493 0.083240472 3093291
0.38491762 0.0033409272 0.084867999 12632502
0.39209092 0.008473373 0.084839948 12237745
0.39661545 0.011272077 0.084682465 12303795
0.49800003 0.039799429 0.082751229 12106160
0.49866673 0.04273263 0.082629308 12171696
0.50170004 0.04729218 0.08504086 12500916
0.50369239 0.051320698 0.083967939 11316900
0.48749998 -0.071075559 0.093843065 12498602
0.48483101 -0.065108635 0.094818383 12498602
0.47425494 -0.054194678 0.095498331 12103844
0.48033333 -0.059066709 0.094432145 12367016
0.46892306 -0.047642868 0.096919492 11840672
0.47000003 -0.04936029 0.096143112 11906465
0.37875003 -0.020270508 0.09884467 3223332
0.38427639 -0.024931198 0.094782308 10787986
0.37619531 -0.014572182 0.095100738 2107169
0.38050005 -0.019250719 0.091729358 1711639
0.37578714 -0.0052069314 0.094908565 2237727
0.3785556 0.0007138584 0.096429467 10065801
0.38250008 0.0048852735 0.095149219 11842728
0.39100003 0.0092800334 0.091514587 12171951
0.38576475 0.010856457 0.097565845 12303793
0.39209092 0.011059347 0.091769569 12237744
0.47700003 0.042587806 0.099361703 12237746
0.48033336 0.044009879 0.098930798 12435125
0.48800001 -0.070671767 0.1033667 12498602
0.48412317 -0.06496343 0.10497581 12564138
0.46900001 -0.050353203 0.10373391 11840672
0.47372311 -0.055003077 0.1045301 12103587
0.46899995 -0.047463894 0.10324273 11840672
0.47014287 -0.04796065 0.10721044 11971744
0.38536012 -0.031414494 0.10628766 11841186
0.37771881 -0.02104572 0.10581188 6973535
0.38268676 -0.026081281 0.10485031 11183258
0.37241843 -0.014654393 0.10508094 2041376
0.37208626 -0.0051867133 0.10509105 2040861
0.37729889 0.0031545868 0.10581967 10460820
0.38103694 0.007806038 0.10386601 12698294
0.38236162 0.012141098 0.10523429 12697780
0.47422224 0.042866267 0.10537663 12171951
0.47800002 -0.060645308 0.11933912 12169637
0.48401484 -0.064771526 0.11478154 12301223
0.47440007 -0.054701254 0.11541758 11972001
0.48000002 -0.059400018 0.11290903 12432295
0.39200002 -0.040985044 0.11891351 11643293
0.47212502 -0.049169976 0.11312974 11905951
0.38470462 -0.033525951 0.11548927 11906722
0.39000002 -0.039132543 0.1191285 11972258
0.37695166 -0.022343742 0.11546721 7829102
0.38113847 -0.027181285 0.11443435 11117465
0.36833689 -0.013278285 0.11546326 1712154
0.37141463 -0.017908046 0.11409525 2107169
0.36828965 -0.0056097857 0.11585856 1843483
0.37076664 -0.0025392983 0.1120943 2040861
0.37559983 0.0052129095 0.11476652 10461076
0.37838471 0.011672516 0.11530659 13158589
0.38124996 0.014918059 0.11649083 12763831
0.47700003 0.046194885 0.11276465 11842988
0.48110002 0.047572337 0.1177309 11974574
0.48266664 0.052212317 0.11674319 10395539
0.47728577 -0.061300125 0.12440256 12235430
0.48120004 -0.064808086 0.12452661 12169893
0.46900001 -0.052823562 0.12184988 11774879
0.47215387 -0.056989782 0.12262479 11906465
0.3888 -0.041743014 0.12825745 11906721
0.39151433 -0.04229657 0.12326701 11840415
0.37900001 -0.030043593 0.12952077 10394255
0.38392794 -0.03474512 0.12528422 11906722
0.39000002 -0.039132543 0.1209545 12169637
0.37711111 -0.024557451 0.12517431 9276289
0.38031825 -0.028448826 0.12288797 11051672
0.36514935 -0.014468286 0.12528247 1778201
0.37075004 -0.019408679 0.12308374 1908251
0.36508977 -0.0052532954 0.1249966 2040089
0.36899999 0.00011952607 0.1231879 5855825
0.37294552 0.0054365415 0.12486202 9671561
0.37636939 0.01430627 0.12579657 12764088
0.38096777 0.017530004 0.12256718 12960697
0.37891662 0.023802722 0.12789041 11710886
0.38081256 0.022075078 0.12489967 11513765
0.45738602 0.045085683 0.12588277 12040622
0.48240003 0.047589026 0.12126589 12106160
0.45900002 0.050651461 0.12569895 9869453
0.46000001 0.050761811 0.12704968 10001039
0.48525003 0.052698012 0.12152863 10856090
0.47677782 -0.061110005 0.13676469 12169637
0.48130006 -0.063393138 0.13349473 12300966
0.46900001 -0.053647015 0.13722101 11774879
0.47303703 -0.05735388 0.13700616 11840672
0.38709679 -0.041737296 0.13374211 11775392
0.37884218 -0.03129153 0.13380706 11249050
0.38257831 -0.036238763 0.13409285 11643806
0.36550003 -0.020417018 0.13282047 1251089
0.37740597 -0.026516467 0.1333162 9604998
0.36463103 -0.015525184 0.13322048 1646871
0.37068745 -0.014144335 0.13893804 1054479
0.36397934 -0.0043674414 0.133471 1907987
0.37081817 -0.0071406588 0.13879967 790795
0.36471429 0.0010348137 0.13762535 8087135
0.37204093 0.006122753 0.13290276 8421495
0.37369913 0.015147223 0.13365102 11645351
0.37751162 0.022260256 0.13344537 12106157
0.45900008 0.044114754 0.13214612 12040624
0.46075681 0.047552895 0.13568588 11909037
0.46495658 0.053302713 0.13674393 11514278
0.47550002 -0.06176649 0.14148693 11906465
0.47271433 -0.057552811 0.14154887 11971744
0.36144447 -0.021975195 0.14811872 3883064
0.37260005 -0.020987567 0.1445134 4145467
0.36280003 -0.018992916 0.1486935 923150
0.37362415 -0.014633993 0.14520653 725771
0.36703926 -0.0029340719 0.14634192 1577481
0.37264943 -0.0070669474 0.14496394 462086
0.36414289 0.00048315155 0.14259136 4139555
0.45900002 0.049576931 0.14826405 12040365
0.46152276 0.046853438 0.14382264 11908780
0.45900005 0.052084163 0.14838344 12171952
0.46335843 0.053981282 0.14495565 12303538
0.47144446 0.059260812 0.14553723 10263697
0.46900001 0.060538478 0.14929831 10000782
0.4736 0.061575402 0.14776334 10395282
0.36103451 -0.022061981 0.15417267 2698792
0.35873333 -0.012257483 0.15864974 923406
0.36176223 -0.014747218 0.15442613 1054736
0.3724167 -0.013394455 0.15044649 593928
0.35890484 -0.0081253527 0.1585017 857613
0.3626309 -0.0049618552 0.15417835 1184779
0.37066671 -0.0091355387 0.15039055 462342
0.36328575 0.00023907362 0.1536711 4665385
0.43687499 0.047656957 0.15731034 11316643
0.43812725 0.053533986 0.1559546 11711399
0.44450003 0.057640556 0.15372337 11053471
0.45900002 0.054233223 0.15130854 12171952
0.46115384 0.057950012 0.15178087 11842986
0.47300002 0.063269399 0.15057164 10198161
0.34490484 -0.022108275 0.16819175 1317651
0.3624517 -0.022220435 0.16465791 988429
0.34588894 -0.015002142 0.16818395 923406
0.35560504 -0.014065697 0.16492581 1054479
0.36065719 -0.017831896 0.16295853 1186065
0.34663367 -0.0057374616 0.16869414 922637
0.35540345 -0.0062766862 0.16511059 856844
0.36025807 -0.0029837198 0.16256419 791823
0.34850001 0.00011288574 0.16845563 593422
0.35075003 0.00011361457 0.16707844 4869961
0.36100003 0.00011693474 0.16097668 3752249
0.4367857 0.048129506 0.16219945 10790296
0.43880007 0.052532252 0.16180429 11118491
0.44297296 0.05650977 0.1656557 10921626
0.44438463 0.061122958 0.16571681 11184799
0.33795443 -0.022295194 0.17754188 1383444
0.34128132 -0.023058804 0.17269941 1580823
0.33784634 -0.014918013 0.17753866 1252114
0.34125617 -0.015068839 0.1725373 1252372
0.33790579 -0.0051291925 0.1778636 1120274
0.34131068 -0.0055206814 0.17287406 1120274
0.33833334 0.00010959257 0.17739917 1646877
0.34 0.00011013243 0.17509279 1779487
0.44700003 0.057377819 0.1715156 10264211
0.44800001 0.060974129 0.17145465 11185313
0.3333528 -0.022239214 0.18360101 1317651
0.33364111 -0.015020823 0.18372519 1317395
0.33425358 -0.0051881806 0.18346904 1185809
0.33450001 0.00010835088 0.18204764 2237467
