# .PCD v0.7 - Point Cloud Data file format
VERSION 0.7
FIELDS x y z rgb
SIZE 4 4 4 4
TYPE F F F U
COUNT 1 1 1 1
WIDTH 1122
HEIGHT 1
VIEWPOINT 0 0 0 1 0 0 0
POINTS 1122
DATA ascii
0.78900003 -0.061621048 0.059070397 15527394
0.79385716 -0.064987116 0.054445326 12632246
0.78900003 -0.056079857 0.059070397 15593187
0.79382384 -0.044997834 0.054993022 12830140
0.79359996 -0.014605476 0.05662068 12765120
0.79334998 -0.0053149927 0.056603361 12633535
0.78883338 -0.12285628 0.067059912 15197404
0.79095006 -0.12611827 0.063843399 15592675
0.7884444 -0.11510515 0.066411071 15395039
0.79045451 -0.11497737 0.062038526 16053997
0.78836352 -0.10477483 0.065899916 15460832
0.7902 -0.1051877 0.061010111 16316654
0.78775007 -0.09504734 0.06615328 15526624
0.79000002 -0.094988413 0.060994666 16250347
0.78710705 -0.084768809 0.066294946 15329245
0.79000002 -0.085741401 0.060994666 16250347
0.78733349 -0.075314671 0.065391131 15263965
0.78747213 -0.065188274 0.065404214 15132380
0.78773338 -0.055068009 0.065427244 15001051
0.78719455 -0.044895515 0.065380424 14803415
0.78660005 -0.034732893 0.065329999 14606036
0.78675747 -0.025027083 0.065091804 14409170
0.78633338 -0.014973758 0.065558553 14145998
0.78530008 -0.0052615334 0.065220259 14014413
0.78511119 0.0048497305 0.065203257 14014158
0.78599995 0.014778861 0.065606155 14079948
0.79000002 0.017825235 0.060994666 14146770
0.78743333 0.025141645 0.066323012 13816777
0.79000002 0.025222851 0.060994666 14146516
0.78719985 0.035268568 0.066302717 13685192
0.79000002 0.035394575 0.060994666 14080467
0.78649998 0.045033835 0.066439532 13750985
0.79000002 0.044641595 0.060994666 13948367
0.78603703 0.05504727 0.065996729 13882571
0.79000002 0.054813325 0.060994666 14145746
0.78523326 0.065144017 0.065764166 13948365
0.79000002 0.062210936 0.060994666 14079953
0.78617632 0.075063959 0.065075316 14146257
0.78776461 0.083895348 0.066785894 13883342
0.79072726 0.086754411 0.062732518 11119522
0.78900003 0.090761669 0.068305716 14738655
0.79262501 0.095046617 0.064750217 10461335
0.79395843 -0.1345803 0.075162224 12959416
0.78859985 -0.12380518 0.075009234 15591388
0.79000002 -0.12846263 0.074310377 15327962
0.78786123 -0.11502005 0.074661762 15854817
0.78692865 -0.1048839 0.074900709 15591902
0.78572005 -0.095395066 0.075376198 15525852
0.78436685 -0.085131206 0.075245641 15262423
0.78412002 -0.075006463 0.075222515 15065301
0.7857666 -0.065044731 0.075382307 14802128
0.78700006 -0.055016518 0.075502113 14670542
0.78613317 -0.044835627 0.075419493 14407626
0.78548002 -0.034683485 0.075357668 14210247
0.7858147 -0.025089754 0.075594477 14078661
0.78607142 -0.015058645 0.075218342 13618367
0.78488016 -0.0052594217 0.075301133 13289658
0.78303349 0.0048342315 0.07512264 13486782
0.78255999 0.014911069 0.075075395 13683905
0.78499997 0.025065009 0.075308494 13683905
0.77900004 0.038549047 0.078381903 13355194
0.78354168 0.034950323 0.075013854 13420990
0.77800006 0.045142002 0.078386903 13618111
0.78178948 0.044850737 0.073362768 13618370
0.77795017 0.054887604 0.077363372 13815747
0.78100014 0.055101633 0.072183266 13816006
0.77861911 0.063615873 0.076172218 13815748
0.78063643 0.067038067 0.07306283 13750213
0.78176004 0.075290717 0.074998915 13750470
0.78600007 0.085106432 0.074996047 13816778
0.7887333 0.092331782 0.075544938 11645611
0.79053336 0.096737698 0.074113555 10395799
0.79293334 0.10421047 0.075142495 10593177
0.78833336 -0.13221142 0.086496763 15130836
0.79272234 -0.13666245 0.083881378 12630450
0.78523344 -0.12474968 0.085433319 15657693
0.78351623 -0.11512537 0.085099213 15657692
0.77900004 -0.10278406 0.089323826 14473675
0.78241944 -0.10515604 0.084688 15789792
0.77890915 -0.093738079 0.08798711 14539468
0.78168416 -0.095385507 0.083175831 16183779
0.77893353 -0.08545173 0.08749254 14342089
0.7809999 -0.084764592 0.082238257 16315106
0.77893347 -0.075969823 0.087857261 13947074
0.78105557 -0.074408956 0.082853287 15920349
0.77900004 -0.068134651 0.089323826 14013124
0.78258842 -0.064565919 0.084881105 15262675
0.78413326 -0.054815721 0.085317262 14933712
0.78372216 -0.044697326 0.085273266 14867662
0.7838667 -0.034611177 0.085289873 14472904
0.78438711 -0.025275255 0.085197024 13881536
0.78448582 -0.01522477 0.085486233 13684158
0.77900004 -0.0015713201 0.089323826 12697010
0.78327584 -0.0053748158 0.085065477 13420729
0.77850008 0.0060829441 0.08835467 12828595
0.78196168 0.0043351273 0.083675809 13683901
0.77775013 0.014817303 0.087130204 13354938
0.78107136 0.014881021 0.082115233 13617338
0.77846676 0.024672257 0.087803915 12894387
0.78180951 0.025092002 0.082845554 13551546
0.77724004 0.03525766 0.085334443 13157302
0.78100002 0.032796409 0.081142344 13288631
0.77526659 0.044715788 0.085264347 13223351
0.77511996 0.05468845 0.085247628 13486523
0.77611756 0.064967662 0.084712908 13617853
0.77726674 0.073643632 0.086696513 13552573
0.78166664 0.076501094 0.082918681 13947845
0.78551853 0.084646404 0.084959537 13750983
0.78900003 0.09145432 0.084236637 12106162
0.7905882 0.096062534 0.085427426 10395799
0.78900003 -0.14012124 0.09693519 14537933
0.78536004 -0.13477357 0.094828032 14736081
0.79000002 -0.13844942 0.090585135 14933204
0.77750009 -0.12450463 0.095443405 14868178
0.78150004 -0.12827109 0.091897078 14736593
0.77733344 -0.11530101 0.094892494 14539469
0.77863318 -0.10455718 0.094749525 14144966
0.77900016 -0.095084205 0.093680315 14144710
0.78042859 -0.093445435 0.097839713 13881794
0.7790001 -0.085127778 0.092307992 13947332
0.78033334 -0.085483901 0.097028039 13881538
0.77896422 -0.075165264 0.094530068 13618366
0.78000003 -0.078265086 0.098568462 13815745
0.77900016 -0.066219822 0.095068321 13749952
0.78010011 -0.061108433 0.094380371 13486780
0.78103995 -0.054598738 0.095041998 13815745
0.7814815 -0.045076165 0.095096774 14013124
0.78146428 -0.035093065 0.095093593 14013124
0.77900004 -0.021631503 0.096618436 13946561
0.78083342 -0.025491646 0.094939552 13552573
0.77895254 -0.014683601 0.095830962 13288888
0.78077787 -0.016602941 0.092572816 13157559
0.77778268 -0.0049740281 0.09496177 13026229
0.78000003 -0.0079643168 0.091264486 13025974
0.77622235 0.0047925534 0.095363006 13025972
0.77539986 0.014772967 0.095262676 13223608
0.77613914 0.024780463 0.095353954 12894387
0.77569997 0.034752488 0.095300987 12631472
0.7744444 0.044667516 0.095147423 12565165
0.77373552 0.055228606 0.095272459 12301736
0.77303141 0.065058418 0.094745025 11709343
0.77331257 0.074816316 0.095229827 11972258
0.77720004 0.081581526 0.095483124 13289145
0.78470594 0.086382285 0.093865 12961210
0.78900003 0.090761669 0.095088124 13224898
0.79185724 0.09559612 0.094771124 10198419
0.78880006 -0.14193232 0.1052203 10722197
0.79294127 -0.14650322 0.10511446 10591382
0.77887511 -0.13171354 0.10640331 14802129
0.78404999 -0.13649555 0.10440327 14341323
0.77703601 -0.12545881 0.10488516 14802385
0.77642888 -0.11503801 0.10460757 14802641
0.77794439 -0.1044631 0.10468174 14473676
0.77900016 -0.096120715 0.10699924 14539468
0.78017646 -0.093538105 0.1033177 14210759
0.7806946 -0.084730677 0.10505188 14407882
0.77900004 -0.072237879 0.10072166 13749952
0.78046167 -0.075008668 0.10565542 14276296
0.77900004 -0.067678742 0.10072166 13947331
0.7805627 -0.064216159 0.10554999 14210504
0.78113341 -0.054605301 0.10511055 14078918
0.78161758 -0.044845156 0.10517557 14276296
0.78174984 -0.03486095 0.10519558 14078917
0.78096676 -0.025343644 0.10509073 13815489
0.77900016 -0.01239926 0.10448296 13288889
0.78044999 -0.017561762 0.10529455 13486268
0.77780002 -0.0052133971 0.10466364 13157560
0.77580017 0.0047906865 0.10530203 12960182
0.77536011 0.014772299 0.10524366 13157561
0.77593356 0.024774127 0.1053206 12960183
0.77592009 0.034763467 0.10531902 12368046
0.77513313 0.044708256 0.10521242 12564910
0.77432007 0.054631069 0.1051025 12432811
0.77296674 0.064486034 0.10491832 11774625
0.7723 0.075284228 0.10482789 11906465
0.77709097 0.083108425 0.10498086 12895157
0.78372741 0.087321855 0.10504249 13159104
0.7881667 0.090973653 0.10575151 12698555
0.79304546 0.09612646 0.10485766 10198419
0.78900003 -0.14196829 0.11355876 10196623
0.77900004 -0.13173456 0.1141711 14605008
0.78500003 -0.13728903 0.11544771 14078151
0.77763999 -0.12536143 0.11465559 14868179
0.77693355 -0.11524379 0.11455096 14737105
0.77764308 -0.10474794 0.1148509 14605262
0.77886683 -0.095897861 0.11276899 14605261
0.78058338 -0.094007663 0.11722108 14605263
0.7808333 -0.084745929 0.11512739 14473676
0.78155988 -0.074761569 0.11523353 14473676
0.78070009 -0.064630538 0.11510646 14539469
0.77900016 -0.054891467 0.11546286 14342090
0.78000003 -0.052244667 0.11180691 14342089
0.77900004 -0.046960015 0.11708387 14276041
0.78037506 -0.044505291 0.11380086 14210503
0.78116673 -0.035405818 0.11517411 13947332
0.77900004 -0.02254333 0.11759044 13552319
0.78060871 -0.025570612 0.11485315 13749953
0.77859253 -0.014803492 0.11513166 13223354
0.78033334 -0.019233089 0.11200666 13552319
0.77696168 -0.005066941 0.11476277 13091768
0.77586144 0.0047913296 0.11530054 12960182
0.77603596 0.014590858 0.11500222 13157561
0.77660024 0.024795024 0.11450247 12894389
0.77652007 0.034789786 0.11449034 12499631
0.77585298 0.044963304 0.11503295 12564910
0.77523333 0.054695383 0.11520787 12499116
0.77383345 0.064558692 0.11499982 12038052
0.77305579 0.075355999 0.11488422 11643295
0.77609086 0.082836337 0.11492 12961209
0.7827273 0.087376863 0.11490119 13093055
0.78808337 0.09157937 0.11527009 11579817
0.79193324 0.096663706 0.11490604 10264211
0.78900003 -0.14012124 0.12648819 13617343
0.79336852 -0.1449115 0.12528133 10262414
0.77900004 -0.13105069 0.12123775 14473421
0.78404546 -0.1354124 0.1251912 14209736
0.77809995 -0.12543558 0.12474011 14802386
0.77741688 -0.11531475 0.12463126 14737106
0.77843338 -0.10544122 0.12479448 14473934
0.78033346 -0.10021982 0.12509881 14342348
0.78175855 -0.095037751 0.12516969 14408140
0.78229022 -0.085052699 0.12467494 14408140
0.78199977 -0.074804418 0.12536602 14342348
0.78086126 -0.064643919 0.125183 14473934
0.77900016 -0.054799192 0.12271947 14276042
0.78021437 -0.054150354 0.12755911 14407628
0.77900004 -0.046554759 0.1215417 14144456
0.7807917 -0.0442992 0.12677321 14341835
0.78139395 -0.035000708 0.12502019 13815491
0.77900004 -0.02254333 0.12032592 13420733
0.7807501 -0.025533 0.1254923 13552575
0.77890915 -0.01466711 0.12296445 13092025
0.78028572 -0.016187552 0.12809268 13092281
0.77823097 -0.0050743623 0.1244836 13092025
0.78000003 -0.0076599843 0.12900169 12960695
0.77673352 0.0047960607 0.12543288 12894902
0.77677804 0.015002018 0.12503441 13092281
0.778 0.024839528 0.12472527 12960182
0.77753341 0.034834698 0.12465025 12368045
0.77650034 0.044559021 0.12505203 12368045
0.77584004 0.054738216 0.12528668 12762544
0.77442855 0.064543903 0.12499438 12433322
0.77378595 0.075102858 0.12476148 11775393
0.77615392 0.082576364 0.12533674 13158588
0.78172737 0.087098606 0.12490696 13159104
0.78786665 0.092477582 0.12538384 11185059
0.79130769 0.097298369 0.12464904 10264212
0.78900003 -0.14196829 0.13572353 10064266
0.79233336 -0.1461778 0.1345413 10327951
0.78525931 -0.1357196 0.13490941 14143687
0.77810526 -0.12438191 0.13456887 14868179
0.78049999 -0.12917154 0.13578555 14670800
0.77776676 -0.11536571 0.13470241 14868179
0.77895254 -0.10620759 0.13473344 14605264
0.78000009 -0.10098856 0.13549413 14473678
0.78142315 -0.094729453 0.13512231 14407628
0.78214282 -0.084757514 0.13467358 14342347
0.78096002 -0.074705862 0.13525243 14342091
0.78050017 -0.064611636 0.13517472 14539471
0.7814399 -0.054627463 0.13533933 14276042
0.78219992 -0.044609196 0.13547079 14210249
0.78211999 -0.034535121 0.13545607 13947077
0.78124011 -0.025352903 0.13530327 13486783
0.77900004 -0.011601412 0.13856246 13026488
0.78060716 -0.015541912 0.13493146 13026488
0.77900016 -0.0044081141 0.13572566 13026488
0.78028578 -0.0073154275 0.13304998 12829109
0.77833337 0.0048057875 0.1348004 12829109
0.77744019 0.014811367 0.13464601 13289404
0.77816671 0.024846099 0.13477089 13157819
0.77763999 0.034839872 0.13467999 12368559
0.7767002 0.044797558 0.13451783 12368045
0.77593344 0.054745231 0.13529256 12631217
0.774611 0.064624026 0.1350618 12433068
0.77390331 0.074706607 0.13508384 11709859
0.77618748 0.082021572 0.13476795 13224124
0.78327274 0.087437265 0.13515417 13028033
0.78776926 0.091898099 0.13458882 11382953
0.79176927 0.096928276 0.13570079 10198419
0.78900003 -0.14170444 0.14429916 10590609
0.79100001 -0.14591768 0.14474747 10261901
0.78511125 -0.13569503 0.14516021 14143431
0.77825004 -0.12470081 0.14541145 14670800
0.78083342 -0.12892249 0.14284839 14736593
0.77844423 -0.11546508 0.14484142 14736593
0.77899981 -0.10460771 0.14494528 14670800
0.77865219 -0.094932139 0.1460285 14539214
0.78000009 -0.093394749 0.14134891 14473423
0.77880013 -0.085436627 0.14764252 14407629
0.78061116 -0.084720887 0.14250283 14473423
0.77900016 -0.075820051 0.14681233 14210251
0.78000003 -0.0737001 0.14254449 14341837
0.77900004 -0.069046482 0.14950438 14473423
0.78112131 -0.064743996 0.14492384 14670801
0.78252006 -0.054702491 0.14468481 14473421
0.78293359 -0.044651881 0.14476044 14473421
0.78211981 -0.034535307 0.14460981 14144456
0.77900004 -0.021935446 0.14646494 13420734
0.7807917 -0.026176402 0.14489739 13683906
0.77800006 -0.015100721 0.14488687 13223611
0.78000003 -0.019833278 0.14056632 13354940
0.77693355 -0.0052054063 0.14455828 13355454
0.77780563 0.0048054857 0.14472234 13289660
0.77816659 0.01482654 0.14479186 13223610
0.77872205 0.024863299 0.14489454 13026232
0.77874988 0.035085432 0.14457412 12565682
0.78000003 0.032207552 0.14969629 12894902
0.77821875 0.045112867 0.14423227 12368047
0.78000003 0.043163516 0.14969629 12236460
0.77632022 0.054770686 0.14535518 12697011
0.77429992 0.064597912 0.14497666 12498861
0.77323353 0.075372718 0.14477703 12039080
0.77650005 0.083613172 0.14538948 13027516
0.78212506 0.087455094 0.14392559 13224641
0.78800011 0.091653913 0.14519416 11382439
0.792 0.096556671 0.14492989 10198419
0.78900003 -0.14196829 0.15511769 10129802
0.79194123 -0.14631709 0.15504153 10261645
0.77900004 -0.13105069 0.15406351 14539214
0.78495657 -0.13629408 0.15503919 14077638
0.77728021 -0.12530406 0.15463299 14605007
0.77813339 -0.11541773 0.15480301 14736593
0.77891666 -0.10459682 0.15465514 14670800
0.78000003 -0.10702449 0.15836975 14867409
0.7775926 -0.094812617 0.15449455 14605007
0.77799994 -0.085348912 0.1547763 14407373
0.77899992 -0.075429283 0.15497535 14144458
0.77900004 -0.068742543 0.15527928 14539216
0.78107685 -0.063391075 0.15489531 14736595
0.78266686 -0.054712337 0.154789 14276044
0.7822777 -0.044615407 0.15471128 14407630
0.78199977 -0.034529544 0.15465675 14407630
0.77900004 -0.022847272 0.15375955 13618114
0.78068751 -0.026705554 0.15599608 13815493
0.77733344 -0.015219215 0.154644 13354942
0.77610373 -0.0051368219 0.15515104 13420991
0.77661783 0.0045850612 0.15514171 13355455
0.77844 0.01483248 0.15486383 13420735
0.7790001 0.023047993 0.1529997 13355197
0.78027779 0.026131272 0.15654881 13289148
0.77900004 0.031254437 0.15132803 12697523
0.78075004 0.035132412 0.15547681 12697267
0.77854556 0.048301581 0.15521647 12302252
0.78057897 0.043050472 0.15509734 12499888
0.77627605 0.054893702 0.1551847 12631217
0.77408338 0.064579189 0.15490323 12104103
0.77323556 0.075106934 0.15452093 12236459
0.77638465 0.082741752 0.15487407 13092797
0.78288889 0.087413073 0.15513772 13027519
0.7883001 0.09160468 0.15498076 11580073
0.79205883 0.096788168 0.15506302 10132625
0.78900003 -0.14122948 0.16509183 11182490
0.79194117 -0.14577316 0.16529272 10261902
0.78512001 -0.13569048 0.16472046 14077638
0.77829623 -0.12431955 0.16441981 14802129
0.7804001 -0.12799802 0.16840802 14802386
0.77873695 -0.1170929 0.16403903 14867666
0.78028578 -0.11260838 0.16593058 14867922
0.77900004 -0.10004859 0.16044629 14933202
0.780743 -0.10497198 0.16550644 14933459
0.77888906 -0.093551397 0.16336152 14801618
0.78041673 -0.096272849 0.16774182 14867410
0.77892846 -0.085646667 0.16466507 14472910
0.78033334 -0.081951298 0.16985478 14144458
0.77900016 -0.076877467 0.16269906 14144458
0.78031248 -0.074186496 0.16688274 14210251
0.78170002 -0.064708166 0.164664 14604753
0.78267998 -0.054714702 0.16486938 14341580
0.78199977 -0.044598263 0.16472554 14276044
0.78215986 -0.034536231 0.16475944 14473423
0.78096437 -0.025149168 0.16509481 13749700
0.77782363 -0.014961085 0.16475649 13354942
0.78000003 -0.019833278 0.16521725 13354942
0.77615398 -0.0052699698 0.16510108 13289149
0.77643776 0.0050245454 0.16503039 13486528
0.77875012 0.01392614 0.16495247 13552577
0.78000003 0.018512597 0.16521724 13552320
0.78083348 0.024930051 0.16539359 13289405
0.77900004 0.036269482 0.16819683 12565938
0.78054547 0.034472238 0.16416876 12565682
0.77832139 0.045736499 0.16570748 13026233
0.78012508 0.042028747 0.16227576 13158076
0.77615398 0.054619923 0.16510089 12762290
0.77469987 0.064632051 0.16500208 12301484
0.77420008 0.074561328 0.1648965 11775653
0.77727276 0.08147382 0.16422604 13027003
0.78400004 0.086520761 0.16537464 13093054
0.78860009 0.091454484 0.16445485 11842989
0.79150003 0.096378878 0.16510552 10198418
0.78900003 -0.14012124 0.17543538 12169385
0.79209101 -0.14514203 0.17477392 10195852
0.78580958 -0.13482879 0.17498906 14406604
0.77900016 -0.12193241 0.17503549 14933203
0.78131253 -0.12789762 0.17521229 14736081
0.7790001 -0.1150523 0.17544995 14604237
0.78000003 -0.11174164 0.17221689 14933202
0.7790001 -0.10752556 0.17649443 14801616
0.78035003 -0.10332651 0.17460798 14933202
0.78104001 -0.094825201 0.17549473 14801617
0.77899998 -0.084938325 0.17216979 14473166
0.78091305 -0.084636025 0.17634153 14341067
0.78155547 -0.074557103 0.17520402 14078665
0.78263909 -0.064787246 0.17493777 14473423
0.78293359 -0.054732535 0.17500304 14604495
0.78208309 -0.044603437 0.17481332 14012871
0.78209984 -0.034533724 0.1748163 14276044
0.78107411 -0.025551952 0.17509468 13814980
0.77826667 -0.015237097 0.17487136 13091770
0.77684015 -0.0052049053 0.1745515 13025977
0.77716672 0.004802132 0.17462461 13091769
0.77900016 0.013661545 0.17503551 12828342
0.78000009 0.017371351 0.17526022 13289405
0.77899998 0.028909739 0.17529604 12763060
0.78056526 0.023689583 0.17530678 13289404
0.77888 0.0348958 0.17500882 12763059
0.77826667 0.044888128 0.17487177 13025975
0.77628583 0.054963965 0.17500977 13288377
0.77519441 0.064672917 0.17508733 12761521
0.77459997 0.074599609 0.17495224 11972519
0.77775002 0.081047773 0.17498261 13092796
0.78477788 0.086097382 0.17490402 13027261
0.78900003 0.090761669 0.17543538 13290434
0.79209083 0.095588468 0.17477465 10198418
0.78900003 -0.14012124 0.18097657 11314078
0.79272002 -0.14472219 0.18509537 10196367
0.78663641 -0.13510242 0.18503672 14144203
0.77800012 -0.12375599 0.18486416 14210250
0.78122228 -0.12898649 0.18467781 14539473
0.77820581 -0.11516178 0.18508846 14472908
0.77900004 -0.10916685 0.18506561 14472650
0.78110707 -0.10449634 0.18491392 14538443
0.78251994 -0.095004618 0.18498753 14538701
0.78243339 -0.084920377 0.18496688 14406858
0.78215981 -0.074819639 0.18490112 14078151
0.78243351 -0.064770922 0.18496506 14210250
0.78288019 -0.054728866 0.18507111 14210249
0.78206879 -0.044760413 0.1848159 13881284
0.78196138 -0.034738805 0.1849242 13815493
0.77900004 -0.021631503 0.18050648 14341837
0.78104001 -0.025347259 0.18500142 13683393
0.7783528 -0.014969864 0.18480456 13222841
0.78000003 -0.019833278 0.18712917 13420476
0.77803326 -0.0052121505 0.18483743 13157305
0.77866662 0.0047273287 0.18457341 13091254
0.78000003 0.0057306387 0.18986815 12959412
0.77900016 0.013977722 0.18386585 13025976
0.78000009 0.016354604 0.18737817 12960439
0.7790001 0.024871649 0.18324195 12829110
0.78009522 0.024515554 0.18571742 12697268
0.77900016 0.035813566 0.1835459 12368302
0.78000003 0.033577044 0.18758565 12039595
0.77880538 0.044919547 0.18501928 12368045
0.77670389 0.054596152 0.18502484 12827826
0.77473325 0.064633392 0.18495883 12499118
0.77440012 0.074580871 0.18487966 11907495
0.77750003 0.080793984 0.18402538 12631989
0.7847144 0.085989609 0.185413 13027261
0.78900003 0.090761669 0.18467069 13685193
0.78900003 -0.14012124 0.19621482 10525072
0.78491312 -0.13476886 0.19497441 13947076
0.77670372 -0.12501092 0.19492419 14013124
0.77648407 -0.11532091 0.19464166 13947076
0.77899998 -0.1086458 0.19431414 14012870
0.78185195 -0.10366592 0.19519937 14144456
0.78330034 -0.095099449 0.19525512 14144200
0.78250015 -0.084928595 0.1950549 14143943
0.78166658 -0.074772291 0.19484748 13946820
0.78194422 -0.064730771 0.19491769 13881284
0.7823 -0.054687954 0.19500758 13881027
0.78233331 -0.044617269 0.19501632 13749442
0.78219986 -0.034539077 0.19498226 13486526
0.78155172 -0.025489483 0.19497775 13157561
0.77885723 -0.01368346 0.19336721 12762804
0.78012496 -0.016640967 0.19686154 13026231
0.77900004 -0.0059024962 0.19213225 12433839
0.78088236 -0.0049079005 0.19696665 13092024
0.78133327 0.004826033 0.19568214 13026231
0.78159994 0.01489147 0.19574833 13026231
0.78154546 0.025202379 0.19523571 12763317
0.78108001 0.034993995 0.1956179 12302766
0.7787084 0.045901302 0.19464304 12368045
0.78000003 0.04103319 0.19686778 12368301
0.77680022 0.054805569 0.19454519 12499631
0.77530545 0.064682111 0.19507843 12236203
0.77470005 0.074610099 0.19492593 11776166
0.778 0.081301555 0.19484526 12698039
0.78458828 0.08647646 0.19530354 13093055
0.78880006 0.091662191 0.19607215 13027006
0.79135001 0.096128508 0.1947585 10527128
0.78900003 -0.14012124 0.20498839 11972518
0.79286361 -0.14545272 0.20506163 9933192
0.78533334 -0.13492292 0.20517385 14407114
0.77827787 -0.12404621 0.20433015 14998993
0.78088897 -0.12751098 0.20714691 15196372
0.77836376 -0.11503954 0.20487757 15459544
0.77899998 -0.10630111 0.20734024 15525593
0.78096545 -0.1044594 0.20510623 15394007
0.78196687 -0.094937414 0.20590347 15459802
0.78145713 -0.08468502 0.20564038 14999765
0.78175986 -0.074780613 0.2049375 14670800
0.78290004 -0.064808682 0.2052374 14473421
0.78392005 -0.05480092 0.20550545 14407628
0.78346699 -0.044683464 0.20538534 14276042
0.78239995 -0.034548327 0.20510414 14078663
0.78139997 -0.025357254 0.20484194 13881285
0.78139991 -0.015295152 0.20484455 13289147
0.78203988 -0.0052390858 0.2050111 13223354
0.78253329 0.0048343032 0.20514065 13223610
0.78256011 0.014908257 0.20514756 13223354
0.78199977 0.024967432 0.2050004 12960182
0.78195983 0.035034169 0.20499012 12565679
0.77887511 0.047545396 0.20383969 12565423
0.78047055 0.043027062 0.20588951 12499630
0.77756685 0.054859392 0.20475006 12170666
0.77563351 0.064709052 0.20514764 12236458
0.77499992 0.074638478 0.20497899 12039080
0.77800006 0.081301555 0.20486248 12631730
0.78368759 0.086599536 0.20509823 13092539
0.78870583 0.093009509 0.20502064 12105902
0.79000002 0.097580791 0.20501702 10132625
0.79054862 0.10497063 0.20521136 10330002
0.79239279 0.11507031 0.20461141 10330003
0.78900003 -0.14012124 0.21514724 10459025
0.79257149 -0.14553151 0.21492775 9736329
0.78631824 -0.13504697 0.21533442 15327704
0.77872735 -0.1223871 0.21541105 15196117
0.7815789 -0.12753832 0.21451938 15327703
0.77641171 -0.11489968 0.21555991 15393496
0.77599984 -0.10493646 0.21508306 15788512
0.77645719 -0.095046364 0.21548684 15920610
0.77717233 -0.08538463 0.21571203 15920354
0.78033334 -0.083781205 0.21126114 15656925
0.77703452 -0.0753958 0.21655273 15789024
0.78081822 -0.074358299 0.21133652 15394266
0.77718759 -0.0654741 0.21806407 15854817
0.78208691 -0.064542793 0.21314071 15525596
0.77731252 -0.055249516 0.21855451 15854561
0.78245455 -0.054782715 0.21377568 15196887
0.77753347 -0.045374271 0.21802464 15525596
0.78185004 -0.045322739 0.21292078 14802129
0.778889 -0.037228182 0.21775883 15064788
0.78069234 -0.03454221 0.21365356 14604750
0.7810334 -0.02534456 0.21480346 14276042
0.78216654 -0.0153096 0.21511538 13815491
0.78276676 -0.0052440157 0.21528116 13552319
0.78247219 0.0048332042 0.21519874 13486526
0.78199983 0.014898091 0.21506803 13420733
0.78183317 0.024962112 0.21502234 13223354
0.78173321 0.035024047 0.21499448 12960437
0.77900004 0.049490962 0.21150859 12499631
0.78087509 0.044638131 0.21527304 13092022
0.77879995 0.054946877 0.21510069 13026230
0.7760573 0.064873703 0.21512134 12828594
0.77469993 0.074608698 0.21487421 12368298
0.77721435 0.081609651 0.21583068 12763571
0.78326666 0.086560182 0.21462165 13027002
0.78853858 0.091845229 0.21466619 13290433
0.79064286 0.096636653 0.21493563 9934992
0.78900003 -0.14012124 0.22530608 9603456
0.7923637 -0.14519216 0.22491583 9867400
0.78518194 -0.13485326 0.22513165 14011330
0.77703714 -0.12492973 0.22505505 13946050
0.78099996 -0.12895013 0.22180273 14735823
0.77446663 -0.114879 0.2247815 14209479
0.77343357 -0.10476589 0.2253858 14473164
0.7731114 -0.094767913 0.22529081 14933974
0.77326655 -0.084830709 0.22533605 15394524
0.77305579 -0.074854203 0.22527422 15526110
0.77310002 -0.064903542 0.22528525 15526110
0.77338898 -0.054969352 0.22536945 15657952
0.77432257 -0.044948649 0.22543737 15657696
0.77616209 -0.03530049 0.22453237 15460060
0.77707982 -0.025507918 0.22546291 15262681
0.78000003 -0.023850465 0.22127526 14670800
0.77786672 -0.016378157 0.2277099 14867923
0.78147626 -0.014467743 0.22385302 14407628
0.77900004 -0.0088659329 0.2297451 14802386
0.78268015 -0.0052428111 0.22533233 13881541
0.77887511 0.0068615717 0.22879644 13815747
0.78170371 0.0043857987 0.22471209 13749954
0.77827287 0.015241211 0.22629863 13750211
0.78050005 0.013727132 0.22196527 13749698
0.7780416 0.024841094 0.22672848 13552319
0.78041673 0.024917366 0.22194105 13486526
0.77770835 0.034995452 0.22587098 13354940
0.78016669 0.034344565 0.22126161 13157561
0.77706456 0.044966504 0.22535513 13420732
0.78000003 0.044076513 0.22091007 13289401
0.77650005 0.054783974 0.22445795 13354938
0.77450001 0.064614624 0.22539258 13486267
0.77385724 0.074333355 0.22518627 13289401
0.77668428 0.082745254 0.22542544 13158588
0.78233337 0.087554403 0.22401102 13027260
0.78762507 0.092449985 0.22571874 12961724
0.79107696 0.097127393 0.22404581 10132369
0.78900003 -0.14012124 0.23454139 9669508
0.79233342 -0.14539926 0.23482418 9801608
0.78463644 -0.13476129 0.23507963 13024693
0.77621418 -0.12494012 0.23495857 14143173
0.77386123 -0.11478898 0.23456949 13682879
0.77276009 -0.10467523 0.23514055 13946051
0.77147996 -0.095471613 0.23475054 13683135
0.77057582 -0.085192516 0.23496704 13814722
0.76900005 -0.072360702 0.2387975 13683137
0.77020019 -0.075238124 0.23460139 14144201
0.76894742 -0.065218724 0.23739144 14144458
0.7700001 -0.064901121 0.23236981 14868181
0.76804352 -0.054786921 0.23628379 14539729
0.77033335 -0.054752301 0.23169714 15263196
0.76704556 -0.044888709 0.23707108 14671316
0.77116674 -0.044430289 0.23239823 15395038
0.76757151 -0.035430659 0.23805258 14935257
0.77239281 -0.034685742 0.23321711 15394781
0.76828575 -0.025701324 0.23866086 15197915
0.77260727 -0.024877807 0.23386158 15263452
0.76900005 -0.017753335 0.23939759 15131866
0.7734738 -0.015043206 0.234779 15000023
0.77553332 -0.0051940759 0.23507063 14802644
0.78050005 -0.004313922 0.23018749 14473421
0.77580559 0.0047909869 0.23515466 14210249
0.78100002 0.00025298068 0.23033494 13947079
0.77493352 0.014763217 0.23489174 13947334
0.77450013 0.024727972 0.23476022 13618626
0.77426666 0.034689046 0.23468991 13486782
0.77297497 0.044763148 0.234929 13618368
0.76900005 0.05425638 0.23939757 13816004
0.77216679 0.055382326 0.23435253 13618369
0.77135491 0.065081559 0.23540767 13684162
0.77282375 0.07544177 0.23483858 13618626
0.77635294 0.083750077 0.23505715 13159103
0.78133339 0.088050626 0.23500448 13290691
0.78706443 0.094765171 0.23527168 11974830
0.79000002 0.09827432 0.23113987 10132625
0.78900003 0.10276758 0.23731199 10067089
0.79092622 0.10593348 0.23367035 10132624
0.7926333 0.11530514 0.23469032 10263953
0.78900003 -0.14012124 0.24192965 9932681
0.78538096 -0.13484429 0.24519643 12103590
0.77637035 -0.12536332 0.24492213 14275015
0.7736252 -0.1145276 0.24479882 13814465
0.7723999 -0.10462695 0.24497654 14077893
0.77140623 -0.095122822 0.24488865 13814720
0.77087092 -0.085441984 0.24469613 13354169
0.76900005 -0.072660744 0.24299806 13551550
0.77005285 -0.076318361 0.24570286 13420219
0.76817656 -0.065180838 0.24516894 13419964
0.76623344 -0.05536003 0.24481276 13485757
0.76421237 -0.045620169 0.24457301 13354171
0.76274347 -0.034457929 0.24444871 13420221
0.76244438 -0.02488965 0.24463569 14868438
0.76350009 -0.014942773 0.24482334 14802645
0.77100003 -0.010579808 0.2400202 15000280
0.76560867 -0.0058275573 0.24682793 14736852
0.77166665 -0.0044459691 0.242273 15000280
0.76788902 0.0034457841 0.24903767 14736595
0.77234381 0.0049965912 0.24438907 14671314
0.76800001 0.016686061 0.24935932 13881797
0.77210724 0.014516347 0.24455664 14013383
0.7661429 0.02561087 0.24764088 13684418
0.77160877 0.024124658 0.24287702 13816004
0.76423526 0.035344366 0.24621823 13618625
0.7711429 0.034935478 0.24135269 13552832
0.76400006 0.044960383 0.24498294 13684418
0.77100003 0.041763011 0.2400202 13618625
0.76473808 0.054851633 0.24522141 13684418
0.76675868 0.064746164 0.24513181 13486783
0.77000004 0.06874761 0.24151146 13618114
0.76842862 0.071177736 0.24692799 13158075
0.77193117 0.076152712 0.24442185 13289148
0.77600008 0.083931923 0.24486807 12698039
0.78000003 0.08790037 0.24464798 13619656
0.78660613 0.095014691 0.24504447 12303540
0.78900003 0.10237179 0.24298513 10001296
0.79023808 0.10649716 0.24521692 10066832
0.79180002 0.11518221 0.244642 10198417
0.78652632 -0.13493854 0.2548337 11314589
0.79000002 -0.13844942 0.25888091 9670536
0.77563643 -0.12396827 0.2546691 14341065
0.78140002 -0.12962516 0.25606507 14209478
0.7736178 -0.11496584 0.25468367 14012100
0.77288008 -0.10469083 0.2550807 14143686
0.77270013 -0.094717242 0.25502187 14077893
0.77155548 -0.084443763 0.25504452 13420219
0.76900005 -0.072360694 0.2555998 13354425
0.77033341 -0.076780677 0.25475439 13288632
0.76740628 -0.065552533 0.25473246 13288632
0.76530004 -0.055292059 0.25526744 13354425
0.76394445 -0.045359552 0.25481427 13353657
0.75900006 -0.032181341 0.25805071 14209736
0.76103997 -0.035815462 0.25452077 13551036
0.7586 -0.025327791 0.25563437 14539728
0.76000005 -0.026441427 0.25112572 14276813
0.75855565 -0.015144662 0.25607312 14539729
0.76000011 -0.01398721 0.25142226 14342350
0.75830001 -0.0050805393 0.25647968 14276557
0.76091671 -0.0046509341 0.25157532 14605522
0.75683331 0.0046743583 0.25686559 13947592
0.76299995 0.00495198 0.25162667 14210507
0.75811112 0.014840771 0.25759882 13816776
0.76253855 0.015417879 0.25255236 13881798
0.75899994 0.02486768 0.25773337 13356225
0.76094449 0.025085205 0.25272214 13750212
0.75899994 0.034632795 0.25771099 12895160
0.76010543 0.035178512 0.25283042 13487041
0.76024145 0.044617668 0.25520396 13026489
0.76123321 0.054600649 0.25480005 12763317
0.76366669 0.06461101 0.25472039 12697524
0.76760006 0.072009273 0.2550135 12960695
0.77188897 0.077451736 0.25475299 13223867
0.77618182 0.084584139 0.25484693 12829882
0.78171438 0.089662723 0.25459859 13422279
0.78731823 0.095347494 0.25481683 12435129
0.79188001 0.10481472 0.25482655 10001039
0.78733343 -0.13393024 0.26500857 11051674
0.79042858 -0.13799612 0.26589459 9539206
0.77611774 -0.12362164 0.26459101 14012100
0.78175008 -0.12876965 0.26532698 13880514
0.77344465 -0.11472706 0.26522532 13683391
0.77340019 -0.1047598 0.26521036 13683135
0.77352804 -0.094820075 0.26525411 13814721
0.77185714 -0.084872581 0.26500198 13617342
0.76883334 -0.074145384 0.265643 13156791
0.77000004 -0.077712335 0.2631425 13156791
0.76790613 -0.065592021 0.26456255 13419963
0.76670843 -0.055244893 0.26545811 13485500
0.76300001 -0.04517936 0.26508513 13156278
0.75821745 -0.034329709 0.2657508 14078151
0.76050007 -0.038253751 0.26278794 13222584
0.75655568 -0.02543623 0.26474422 14737107
0.75686109 -0.014816039 0.26485172 14473935
0.75503039 -0.0049002087 0.26477069 13947849
0.75297242 0.0046503488 0.26525554 13816006
0.75579995 0.01541622 0.26460686 13026746
0.75793338 0.025087148 0.26522738 12237229
0.75881833 0.03464422 0.2651341 12039851
0.75900006 0.041113008 0.26471379 12237486
0.76028585 0.045760233 0.26490819 12237486
0.76158321 0.054626986 0.26472425 12368815
0.76476008 0.064702593 0.26493415 12632244
0.76750004 0.071605511 0.26523966 12763573
0.77220005 0.077534042 0.26488894 12566195
0.77633339 0.084057435 0.26500279 12500917
0.78120005 0.088401735 0.26514167 13356484
0.78604996 0.093463525 0.26522014 13487816
0.79000002 0.09827432 0.26535383 9737617
0.78662503 -0.13256754 0.27515277 12038312
0.79089999 -0.13786738 0.27491331 9473157
0.77629411 -0.12322168 0.27502105 13947076
0.78100002 -0.12773047 0.27421501 13551549
0.77400011 -0.11480799 0.27538109 13947332
0.77356017 -0.1047833 0.27522343 13881283
0.77310014 -0.0947676 0.27505991 13814978
0.77086216 -0.084444687 0.27501065 13880771
0.76895654 -0.075357057 0.2736651 13683135
0.77000004 -0.075201593 0.27885073 13748928
0.76890945 -0.065096982 0.27460647 13683135
0.76637948 -0.055311777 0.27483165 13419963
0.75807691 -0.041801292 0.27653906 12564656
0.76144004 -0.046601992 0.2741901 12695728
0.74800009 -0.032372188 0.27794895 14802901
0.75448275 -0.035572942 0.2742154 14144201
0.74770826 -0.025138827 0.27740222 14473679
0.75237507 -0.025294846 0.27208665 14736851
0.74733329 -0.014628558 0.27726266 14013898
0.75254172 -0.01473134 0.27214646 14013641
0.74807149 -0.0060108793 0.27778786 13619397
0.75171435 -0.0048686196 0.2731466 13685190
0.75293952 0.0044127479 0.27541748 13355711
0.75569451 0.015284328 0.27506068 13289660
0.7571786 0.024872189 0.27528358 13158074
0.75863647 0.035121158 0.27475849 12565937
0.75900006 0.041113008 0.27359796 12500144
0.76028007 0.04545489 0.27512696 12500144
0.76215613 0.05444723 0.27507022 12565937
0.7665385 0.064714715 0.27472961 12303023
0.76855558 0.071817778 0.2732448 12171694
0.7717728 0.07646513 0.27573663 12632245
0.77581257 0.083798878 0.27511561 12698295
0.78133339 0.088050626 0.27524388 13356998
0.78620839 0.093744196 0.27504539 12895936
0.79000002 0.09827432 0.27275145 9671822
0.78700006 -0.13332206 0.28486288 11446690
0.79083329 -0.13828723 0.28507295 9538953
0.77656251 -0.12348515 0.28504109 13683136
0.78183341 -0.12786677 0.28457436 13024950
0.77408576 -0.11469213 0.28524897 14078663
0.7731002 -0.10472081 0.28501466 14078663
0.77255565 -0.094701178 0.2848143 14078663
0.77142304 -0.08476761 0.28509238 14012357
0.77093339 -0.074648894 0.2851207 13814721
0.76850003 -0.062607251 0.28433007 13551549
0.77036363 -0.066969812 0.28572842 13683135
0.76365626 -0.055123132 0.28476769 13090742
0.75590342 -0.04388931 0.2856046 12367019
0.76075011 -0.048952121 0.28313199 12564141
0.74671441 -0.034410544 0.28539914 14276044
0.75125003 -0.038008891 0.2813547 13486272
0.74513918 -0.025052881 0.285171 14342606
0.74505591 -0.014583485 0.28513923 13948362
0.74660003 -0.0049993112 0.28503066 13816776
0.74828577 0.001869726 0.28600079 13816776
0.75170845 0.0064054425 0.28416538 13816776
0.75523537 0.015067891 0.28523961 13750470
0.75733334 0.025264557 0.28501311 13355968
0.75883353 0.034887407 0.28508478 13289918
0.75900006 0.041113008 0.28603581 13092281
0.76017869 0.04473687 0.28539929 13092281
0.7623235 0.054892909 0.28487247 12894902
0.76757896 0.063616052 0.28463361 12829111
0.77037501 0.068105116 0.28558901 12894904
0.77272731 0.075572424 0.2852895 12894647
0.77628583 0.084803559 0.28502154 12632761
0.78166676 0.089613758 0.28481981 13159877
0.78652006 0.094901383 0.28476819 12238778
0.79154837 0.10492714 0.28509012 9869967
0.78668743 -0.13223156 0.2949734 12301998
0.79081815 -0.13775216 0.29567042 9275781
0.77700007 -0.12332729 0.29497951 13288634
0.78200006 -0.12789403 0.29470354 11840932
0.7741614 -0.11497936 0.29519835 13815491
0.77300012 -0.1047068 0.29493096 14078663
0.77293354 -0.094746202 0.29490578 13947077
0.77244002 -0.084739789 0.29471871 13683649
0.77218747 -0.074544825 0.29496083 13683648
0.767353 -0.062521569 0.29520506 13354170
0.77084613 -0.067213759 0.29466441 13617342
0.75880003 -0.051624149 0.29768378 12629934
0.76153851 -0.055776935 0.29446423 12762033
0.74840003 -0.040754888 0.29500565 12564142
0.75503337 -0.045837507 0.29496318 12432555
0.74538255 -0.035174645 0.29532328 13288122
0.73746163 -0.023401083 0.29863328 14079434
0.74296886 -0.025197426 0.29423097 14210507
0.73733342 -0.016829526 0.29877347 14014155
0.74282861 -0.014266406 0.29464325 14079435
0.74534386 -0.0048271655 0.29533622 13948105
0.74768746 0.0041281329 0.29528192 13882569
0.75020003 0.0086730104 0.29220241 13750983
0.74900001 0.01076315 0.29980141 13948362
0.75330567 0.015240638 0.29476047 13685190
0.75706673 0.025059234 0.295055 13487811
0.7586776 0.034737553 0.29496625 13290432
0.76007712 0.04486727 0.29513264 13224637
0.76172209 0.054637562 0.29508531 13092538
0.76660717 0.064603157 0.29543686 12960952
0.77025002 0.068319283 0.29162741 12500145
0.76900005 0.070458569 0.29880559 13289662
0.77243751 0.075185396 0.2950539 12829110
0.7763043 0.084642701 0.29508382 12632504
0.78166676 0.089918084 0.29549131 13488327
0.78657162 0.095047176 0.29528415 12435383
0.79189664 0.10426883 0.29491767 9869453
0.78722721 -0.13335986 0.3049657 11512740
0.79040003 -0.13851953 0.30526909 9538696
0.77750009 -0.12325943 0.30457869 12630961
0.78187507 -0.12741679 0.30563843 11644067
0.77437508 -0.1146388 0.3048602 13420733
0.77386671 -0.10482433 0.30522645 13814978
0.77375025 -0.094846204 0.30518091 13815234
0.77350014 -0.084856853 0.30508226 13683392
0.77255881 -0.075020567 0.30497527 13749185
0.76544452 -0.063538209 0.30544859 13156791
0.77020007 -0.067905977 0.30323803 13486270
0.75695843 -0.053510826 0.30541745 12695727
0.76037508 -0.057828214 0.30368644 12827313
0.74730003 -0.04393271 0.30585465 12300969
0.75226671 -0.047659326 0.30345216 12366762
0.73799998 -0.031507492 0.30641061 13815236
0.74364531 -0.036266766 0.30450675 13090742
0.73386842 -0.024859415 0.30459082 14013385
0.74100006 -0.02924978 0.30006868 13947079
0.73455262 -0.014281676 0.30487415 14013385
0.74050003 -0.010161281 0.30073237 14211534
0.7383334 -0.007826427 0.30734232 13882056
0.74269229 -0.0045043114 0.30463049 13948362
0.74547511 0.004432891 0.30510563 13882569
0.74794441 0.012694407 0.30628309 13750983
0.75226086 0.017321499 0.30424222 13619397
0.75685722 0.02486364 0.30528578 13356225
0.75894308 0.035018709 0.30479637 13224381
0.759 0.043600578 0.30771312 13355453
0.76000017 0.045259275 0.30358166 13289918
0.76063883 0.054558396 0.30534947 13224124
0.76356667 0.064365007 0.30479538 13092537
0.76836371 0.07121855 0.30526194 13158076
0.7725417 0.077040806 0.30477801 12697782
0.77591664 0.085098796 0.30527654 12763834
0.78000003 0.089726366 0.30444926 13553863
0.78612006 0.095442794 0.30530781 12369333
0.79241663 -0.14428635 0.31517059 9671308
0.78757149 -0.13354945 0.31497717 11183776
0.79000002 -0.13844942 0.31528771 9538953
0.77840006 -0.12220325 0.31375724 12893620
0.78250009 -0.12614696 0.31582734 12170156
0.77530301 -0.11508743 0.31500483 13486526
0.77396011 -0.10483693 0.31522751 13881027
0.77380019 -0.094852589 0.31516171 13814721
0.77330786 -0.084696583 0.31516951 13748928
0.76900005 -0.071760617 0.31860825 13814721
0.77168751 -0.075232565 0.31480893 13814721
0.76397067 -0.064936936 0.31525704 13156534
0.75600004 -0.054749344 0.31492755 12630190
0.74653566 -0.0449517 0.31541654 12366762
0.75000006 -0.048918441 0.31161419 12564141
0.73668432 -0.032531563 0.31538269 13354429
0.74252647 -0.037730053 0.31431618 12695728
0.73299992 -0.02464596 0.31484661 13947592
0.73327762 -0.014351572 0.31496561 13816776
0.73669237 -0.0058600837 0.31543368 13750983
0.74100012 -0.0023614324 0.31286114 13816263
0.74344134 0.0045959349 0.31497794 13816520
0.74613529 0.015162578 0.31508031 13684933
0.75000006 0.019556338 0.3107363 13685190
0.7479167 0.022858838 0.31745878 13487041
0.75340754 0.025789144 0.31383932 13355968
0.75755262 0.034644611 0.31507489 13289917
0.75894469 0.045552008 0.31533018 13289660
0.76048005 0.055436965 0.31507859 12894902
0.76450002 0.064821206 0.31509203 12697524
0.76866674 0.070728064 0.31427231 12960696
0.77192312 0.07622084 0.31523052 12565940
0.77582151 0.085618183 0.31507573 12632763
0.78622216 0.096040048 0.31503808 12106161
0.79204768 0.10489058 0.31499916 9869197
0.78824997 -0.13353154 0.32473853 11315362
0.79000002 -0.13844942 0.32545948 9275781
0.77900004 -0.12010878 0.32639873 12827828
0.7832858 -0.12531479 0.32522556 12170412
0.7755357 -0.11439204 0.32481632 13354941
0.77336687 -0.10475779 0.32494363 13749698
0.77288908 -0.094740935 0.32474244 13814721
0.77170002 -0.084660076 0.32460228 13880514
0.76813334 -0.072999611 0.32579976 14012100
0.77018762 -0.077393606 0.32462156 13946051
0.75900006 -0.06016646 0.32867977 11972517
0.76285708 -0.065073133 0.32514212 13090485
0.7486667 -0.050584111 0.32770947 11972517
0.75562972 -0.054731704 0.32479227 12169896
0.74512905 -0.045005448 0.32514352 12234920
0.73505557 -0.034566723 0.32528478 12696241
0.74142855 -0.039185587 0.32255578 12432300
0.73143619 -0.024395507 0.32490686 13947592
0.73122519 -0.014483638 0.32495117 13882312
0.7339707 -0.0046594562 0.32480907 13816519
0.73788893 0.00081490655 0.32644427 13816520
0.74266666 0.0054604872 0.32432842 13619397
0.74477786 0.015062817 0.32513544 13356225
0.74673337 0.025009224 0.32511333 13224383
0.75000006 0.028335158 0.32127085 13158076
0.7486667 0.03149822 0.32712579 13092796
0.75411767 0.035299502 0.32437885 13223868
0.75837517 0.045298252 0.32518989 13289661
0.76073331 0.055456053 0.32497796 13223355
0.76531041 0.06462954 0.32535484 12631475
0.77235502 0.075087018 0.32507238 11973803
0.77599996 0.085005164 0.32466811 12303796
0.78100002 0.089841403 0.32815206 13553866
0.78624994 0.095821388 0.32452592 12304054
0.7915557 -0.14449023 0.33495203 9670793
0.78856516 -0.13346353 0.33482128 10723484
0.79000002 -0.13844942 0.33470649 8815488
0.78388 -0.12453903 0.33504924 12104364
0.77588886 -0.11411721 0.33491647 13222842
0.77282143 -0.10449023 0.3352451 13880770
0.77151608 -0.095301449 0.33485457 14012100
0.76831257 -0.083051577 0.33653316 14012101
0.77040017 -0.08677043 0.33325469 14143686
0.76569992 -0.074862361 0.33498079 14077893
0.77000004 -0.079064272 0.33164066 14275272
0.75859994 -0.060845483 0.33543196 12235176
0.76134616 -0.066250436 0.33483413 13683135
0.74800003 -0.051415782 0.3335472 11841185
0.75440013 -0.055834137 0.33427632 11775392
0.74395651 -0.045121737 0.33397871 11907239
0.73296779 -0.034363803 0.33461601 12433583
0.74199998 -0.039711464 0.3378222 11973289
0.72900003 -0.021949692 0.33275449 13882569
0.73039991 -0.025071139 0.33476099 13948104
0.72900003 -0.017853845 0.33241317 13816776
0.73055559 -0.013380451 0.33517453 13816777
0.73226672 -0.0049032117 0.33510265 13685191
0.73600012 0.0038464097 0.3351624 13619398
0.74200004 0.0075750169 0.33193117 13816776
0.73900002 0.010619449 0.33818403 13553862
0.74305552 0.015078192 0.33486629 13488068
0.74602866 0.02569293 0.33453947 13290432
0.74799997 0.033698771 0.33543643 13158845
0.75123084 0.037987754 0.33383432 13224382
0.75668424 0.045283586 0.33480361 13290174
0.75900012 0.05228167 0.33654863 13355967
0.76050013 0.05624732 0.33483192 13289660
0.76470369 0.064635493 0.33512405 12829109
0.77377266 0.074278519 0.33532324 11184287
0.77700001 0.081500225 0.33223143 11250080
0.78238475 0.085494041 0.33599111 11579303
0.78740001 0.093807049 0.33461928 10856096
0.79025006 0.097843066 0.33712533 9343368
0.79146159 -0.14412385 0.34480432 10066063
0.78884625 -0.1324233 0.34487215 8420984
0.79007143 -0.13714094 0.34543824 9013119
0.78570825 -0.12482816 0.34484401 9209730
0.77614284 -0.11352953 0.34449568 12893364
0.78100002 -0.11858881 0.34643599 11511714
0.77280778 -0.10475197 0.34495911 13683393
0.77159268 -0.095082998 0.34517607 13683393
0.76862508 -0.084547676 0.34116954 13946309
0.7718237 -0.085839003 0.34614068 13617857
0.76607698 -0.074939765 0.34292024 14012101
0.77219999 -0.07712239 0.34849682 13814723
0.75866669 -0.060732316 0.3415601 12564143
0.76320004 -0.065740779 0.34431955 13814466
0.77000004 -0.068248771 0.34966651 14276044
0.75687504 -0.054906584 0.34237805 11709856
0.76160002 -0.055382919 0.34692273 11643553
0.74650002 -0.042575415 0.34074241 11841703
0.75450003 -0.046345957 0.34461617 11644067
0.76100004 -0.047854394 0.34914252 11446175
0.73100001 -0.030566327 0.34051254 12631734
0.74600005 -0.039925542 0.3422606 11775910
0.73033333 -0.024555981 0.340202 13619398
0.73125005 -0.012601277 0.34062901 13619399
0.73316669 -0.005477719 0.3418074 13487814
0.73675007 0.00541932 0.34060183 13619401
0.74457151 0.0067147645 0.34633973 12500921
0.74440008 0.014883256 0.34274739 13291204
0.75333339 0.015533988 0.34856308 12961985
0.7470001 0.024027647 0.34132084 13093310
0.75633335 0.025621625 0.3475922 13093311
0.74900001 0.031804219 0.34188354 12961467
0.75409091 0.036026511 0.34485516 13027259
0.7563889 0.045206599 0.34299389 13158844
0.76066667 0.045359373 0.34839574 13224639
0.75900006 0.052366287 0.34170988 13158844
0.76168752 0.055413399 0.34466773 13158844
0.76545 0.06476476 0.34383672 12960696
0.77000004 0.067846313 0.34876519 13092025
0.77422738 0.073744394 0.34474599 8685180
0.78120005 0.078891583 0.34561139 8948352
0.78659099 0.084882386 0.34489712 9342853
0.79000002 0.0890273 0.3495017 9014144
0.78866673 0.091339014 0.34214243 10461078
0.79150009 0.09531413 0.34562725 9277317
0.78900003 -0.13134767 0.35229167 8486518
0.79085714 -0.13551562 0.35587659 9079171
0.78780001 -0.125157 0.35479972 8420469
0.77760005 -0.112249 0.3520259 12565170
0.78307146 -0.11602555 0.35599685 10986137
0.7766667 -0.10505111 0.3534534 12302255
0.78183341 -0.10498723 0.35870075 10394259
0.77687502 -0.095684148 0.35324445 12762805
0.78225005 -0.09497454 0.35797715 11381154
0.77680004 -0.084490418 0.3523916 13223356
0.78266668 -0.084945492 0.35725084 12697525
0.77480006 -0.074300617 0.35257286 12960185
0.78175002 -0.075695835 0.35820597 12434611
0.77427274 -0.064013965 0.35490721 13092027
0.76700002 -0.055418618 0.35099632 11248538
0.77344447 -0.055881876 0.35606018 11380125
0.76525003 -0.047226794 0.35243732 11051674
0.77450001 -0.04598482 0.35896248 8683641
0.75266671 0.0037693761 0.35060525 13224644
0.75800008 0.014440878 0.35220295 12633020
0.75900006 0.023344681 0.35000178 12765117
0.76457149 0.026585115 0.35359764 12633018
0.76430011 0.034418244 0.35316589 12632504
0.77000004 0.039004974 0.35687685 12369332
0.76520002 0.045032937 0.35214493 13158848
0.77333337 0.047926109 0.3578209 12500920
0.76850003 0.054671161 0.35123444 13224638
0.77310002 0.055450689 0.35542035 12434868
0.7743572 0.065251201 0.35540432 12105904
0.77591676 0.073669367 0.35341322 9145989
0.78214282 0.077681527 0.35622483 8817537
0.78768754 0.08323691 0.35493213 8883074
0.79049999 0.088158943 0.35527462 9014659
0.78887504 -0.12370928 0.3623932 9277059
0.7907334 -0.12685521 0.36587077 9408645
0.78785717 -0.11541572 0.36462837 9211010
0.79000002 -0.11533186 0.36984515 9145730
0.78707695 -0.10519639 0.36451083 8750460
0.79000002 -0.10454368 0.3686122 9013887
0.78750008 -0.094688028 0.36283863 9210498
0.79180002 -0.094461337 0.36809379 8421753
0.78800005 -0.084601976 0.36205772 9934221
0.79162502 -0.084991165 0.36620596 8289912
0.78725004 -0.07507807 0.3632603 9276806
0.79122221 -0.075689711 0.36794838 8092790
0.78576934 -0.065259226 0.36461374 8289654
0.79000002 -0.060774446 0.36984515 8487545
0.77750003 -0.051622771 0.3603529 8486262
0.78500009 -0.055564668 0.36498082 8091760
0.79000002 -0.054609761 0.36984515 8421496
0.78620005 -0.045574274 0.36714926 8289396
0.79000002 -0.042280398 0.36984515 8355959
0.79000002 -0.038581591 0.36984515 8618107
0.78600001 -0.0015854398 0.36981258 8553086
0.77771431 0.0054539931 0.36643484 7829361
0.78100002 0.0011659777 0.3683731 8224374
0.7852 0.014960615 0.3694362 7632239
0.77585715 0.024899557 0.36244723 9408906
0.78325003 0.024997098 0.36760452 7500909
0.77566671 0.032940447 0.36192694 10395542
0.78075004 0.034983072 0.3655147 7829615
0.77800006 0.045784809 0.36240599 8554111
0.78385723 0.045606781 0.36644667 8422523
0.77766663 0.053048879 0.36043015 11119268
0.78653848 0.055491813 0.36695421 8685182
0.78481257 0.064899959 0.36547038 8685182
0.78633338 0.075642742 0.36559027 8817537
0.78861547 0.08319141 0.36436924 8949123
0.79013336 0.087439507 0.36608407 8949123
0.7868889 0.005166864 0.37330225 8093042
0.78780001 0.015010151 0.37250373 8026994
0.78780001 0.025703922 0.3710289 7633009
0.78760004 0.035288453 0.37056535 7895411
0.78850007 0.041788578 0.37098885 8093814
0.78900003 0.066749841 0.37122408 8751744
0.79095012 0.065062016 0.3760311 8751488
0.78900003 0.074138105 0.37122408 8817537
0.79008019 0.075349703 0.37617147 8883330
0.79080951 0.085240781 0.37507415 8949123
0.7913 0.075280957 0.38527489 8883073
