# .PCD v0.7 - Point Cloud Data file format
VERSION 0.7
FIELDS x y z rgb
SIZE 4 4 4 4
TYPE F F F U
COUNT 1 1 1 1
WIDTH 777
HEIGHT 1
VIEWPOINT 0 0 0 1 0 0 0
POINTS 777
DATA ascii
0.54700005 -0.09714362 -0.010268994 14803676
0.55481821 -0.094745159 -0.011362175 14803676
0.56453842 -0.091815718 -0.013042269 14869468
0.57066673 -0.091103934 -0.015612264 14738137
0.56808335 -0.087143369 -0.011552433 14803931
0.5739429 -0.084150799 -0.014812117 14079950
0.57677776 -0.077449396 -0.012930124 13290433
0.58200002 -0.073381878 -0.013287676 12698295
0.583 -0.069416642 -0.010944831 12764088
0.51900005 -0.1031059 -2.3433615e-05 14606551
0.52400011 -0.10102662 -0.00084574689 14672344
0.53100002 -0.10051752 -0.0037532172 15001055
0.52700007 -0.098771945 -0.0005182178 14738137
0.53497058 -0.095551483 -0.002348992 14803675
0.54416668 -0.094460361 -0.0062924498 14803676
0.55266672 -0.092251666 -0.0083641792 14869469
0.56 -0.090275541 -0.0092020743 14869469
0.53840005 -0.087801531 -0.00027667126 14672344
0.54473078 -0.085455827 -0.002088923 14738138
0.55438888 -0.084466048 -0.0050041168 14869468
0.56365001 -0.083996572 -0.0080783181 14803932
0.54700005 -0.078574657 -2.4697852e-05 14803930
0.55420005 -0.077792071 -0.0015874183 14803930
0.56534785 -0.076055676 -0.0042878077 14935772
0.5747391 -0.073162906 -0.0067003961 14606550
0.58100003 -0.07053864 -0.0095471526 12303537
0.5686667 -0.067709222 -2.5676136e-05 15198688
0.57456255 -0.065933891 -0.003146081 14606294
0.58100003 -0.06808994 -0.0087315422 12369330
0.57200003 -0.05873346 -2.5826641e-05 15330017
0.49711111 -0.10607896 0.0078637497 14672344
0.50441182 -0.10214999 0.0064309989 14606551
0.51421434 -0.10163645 0.0030665922 14803930
0.52100003 -0.10045287 0.0011961465 14738137
0.50559998 -0.097833581 0.0088529075 14672344
0.51496148 -0.096039414 0.0067864107 14869723
0.52458829 -0.094061285 0.0043791495 14869723
0.53160006 -0.092164807 0.0018420229 14803930
0.51800001 -0.089568108 0.0096777901 14869723
0.52585721 -0.087139264 0.0088547356 14803930
0.53436548 -0.084738567 0.0046828035 14738137
0.54050004 -0.081437483 0.0012409159 14803930
0.53629166 -0.077713706 0.007238599 14738137
0.54393107 -0.074857958 0.0048917402 14738137
0.55427271 -0.071774207 0.0043326723 14869723
0.56220001 -0.070886053 0.0020777865 14738137
0.55608338 -0.067507677 0.0080024386 14672344
0.56439549 -0.064647093 0.0048188451 15001309
0.57000005 -0.061864048 0.001308644 15593446
0.56760013 -0.056063548 0.0071022254 15132895
0.57066667 -0.054586392 0.0037592696 15067101
0.56900001 -0.04910114 0.0092985826 14803928
0.57256252 -0.047226734 0.0072621754 14343379
0.46900001 -0.11128873 0.019741697 14999765
0.47090915 -0.11263995 0.017562868 14868694
0.49350002 -0.11074822 0.01095241 15131867
0.46900004 -0.10579903 0.019741697 14935000
0.4720417 -0.10574588 0.017932929 14474193
0.48362502 -0.10421485 0.016036671 15132636
0.49340424 -0.10482349 0.012653236 14935514
0.47257143 -0.098462306 0.019573987 13817033
0.48589998 -0.09532968 0.018118959 14935514
0.49438307 -0.095210336 0.014469972 14606294
0.5033077 -0.09327925 0.01148554 14474709
0.51050007 -0.091258422 0.010732758 14540758
0.49586111 -0.086212993 0.017773701 14343123
0.50353575 -0.084198065 0.015172898 14211539
0.51382363 -0.084524982 0.012426473 14737883
0.52360004 -0.081710786 0.011496977 14737882
0.50583333 -0.079170525 0.018326061 14014160
0.5140909 -0.075323582 0.016929235 14343382
0.52452004 -0.075370148 0.013576508 14540761
0.53326672 -0.073312134 0.011623268 14737882
0.54000002 -0.070617467 0.011352966 14738137
0.50133336 -0.062042356 0.019929079 14146516
0.51200002 -0.069353022 0.018554032 14278102
0.52400005 -0.069137275 0.015923355 14475481
0.53500003 -0.069963604 0.013752735 14672090
0.54540002 -0.068769127 0.013254565 14672345
0.5537715 -0.063745603 0.013303614 14606552
0.56 -0.060123228 0.010462476 14606551
0.49900001 -0.057078592 0.019836325 14277845
0.55659997 -0.05766907 0.015696833 14540504
0.56282061 -0.053661469 0.013583286 14672345
0.56637782 -0.045952171 0.016525894 14803929
0.57212508 -0.04325505 0.012026314 14935516
0.56782144 -0.034709614 0.018155545 14803673
0.57158834 -0.037597783 0.014059272 14474965
0.56776917 -0.027421195 0.01817398 12500917
0.4682273 -0.11292578 0.02476226 14078148
0.47000003 -0.11592714 0.020884071 14868433
0.46532446 -0.10497398 0.025024004 14210246
0.45900005 -0.092368126 0.028346796 14012867
0.46327272 -0.095731378 0.024565594 14407885
0.47033334 -0.091234751 0.02199994 13685192
0.48457146 -0.091559112 0.020722216 14672342
0.45673338 -0.084728792 0.027631216 14605522
0.4623684 -0.086556964 0.023958169 14079950
0.48650002 -0.086254656 0.022186685 14672086
0.49331579 -0.084016308 0.021613656 14540757
0.45546883 -0.076953076 0.027629046 14079950
0.4655 -0.073041014 0.026309844 13883085
0.48800004 -0.079811104 0.023968719 14869723
0.49900001 -0.07927379 0.022172661 14212563
0.5055294 -0.075082071 0.02204361 13949137
0.51033336 -0.073508091 0.020684823 14014930
0.46505266 -0.066837095 0.028338097 13817035
0.47600001 -0.066705287 0.027836621 13686219
0.4984827 -0.062693812 0.025688894 13949136
0.50303847 -0.066559128 0.022302229 14014930
0.49769121 -0.05499443 0.025482222 13883344
0.55900002 -0.05347272 0.020912824 14474711
0.56050003 -0.05164741 0.020968942 14474711
0.49700001 -0.049286582 0.028481212 13685965
0.50316668 -0.048325747 0.02627901 13685965
0.55300003 -0.043836694 0.023277523 14146000
0.56206673 -0.044550575 0.021728454 14146000
0.55433333 -0.03571995 0.027220517 13685963
0.56311905 -0.034029178 0.024136052 14080721
0.5662778 -0.025956638 0.025524495 14278099
0.57242864 -0.021729851 0.023422794 13487813
0.5686667 -0.01934067 0.028818004 14014927
0.57529414 -0.015338042 0.026668375 12764348
0.57700002 -0.0092684701 0.026989296 10395799
0.46514294 -0.11185099 0.032490056 13090995
0.46330029 -0.10489863 0.034659363 13091252
0.45749179 -0.093736783 0.034721207 12630444
0.46027777 -0.098504014 0.035359155 12367273
0.44876194 -0.081698745 0.036698721 12696240
0.45235184 -0.085869774 0.034393322 13288632
0.44561741 -0.074856423 0.035439331 14210764
0.45145455 -0.074879773 0.030626951 14408915
0.43866667 -0.062499642 0.03934519 14672599
0.44401619 -0.065471478 0.036181647 14474964
0.45406905 -0.064099096 0.032377731 13817035
0.46040002 -0.063223161 0.030157745 13883085
0.43900004 -0.055970598 0.03903304 13883343
0.44255558 -0.055922866 0.0381351 13817550
0.45800003 -0.057965547 0.034500908 13685449
0.46416286 -0.054298677 0.034775436 13685706
0.47750002 -0.051822953 0.033513524 14211791
0.48299998 -0.051401656 0.032764617 14672857
0.49264288 -0.054708034 0.031197574 14278356
0.44500002 -0.049336784 0.039566524 13554379
0.45500001 -0.048846219 0.0390331 13554633
0.46650004 -0.049537003 0.038201906 13554633
0.47800002 -0.047962449 0.035786629 13751242
0.48212516 -0.044591609 0.034376167 14146257
0.48668003 -0.036614038 0.037670944 13685706
0.55416673 -0.022794755 0.034669552 13554121
0.56100005 -0.02345502 0.030618075 13620427
0.55678576 -0.016482679 0.037214775 13553865
0.56408578 -0.014489043 0.034414388 13685962
0.57185715 -0.012243898 0.031337466 13948878
0.55850005 -0.0083169863 0.03919854 13553864
0.565579 -0.0051115039 0.036376487 13817549
0.57200003 -0.008185613 0.031775732 14212563
0.56683999 0.0041093095 0.038242936 13159105
0.56200004 0.012678983 0.03944419 10263959
0.43257144 0.076671347 0.039329302 12960695
0.43400002 0.080404721 0.039604474 13552834
0.46347636 -0.10380647 0.044652838 13288631
0.457037 -0.093477972 0.044917896 12038051
0.46050003 -0.098491967 0.045256838 12432809
0.44871432 -0.081489965 0.044698872 11906465
0.45234555 -0.086307526 0.045130741 11906721
0.43877777 -0.071076326 0.047229998 12498348
0.44371435 -0.075546257 0.044763405 12301224
0.42900002 -0.060118839 0.049191169 14276042
0.43481055 -0.064809546 0.044754028 14144713
0.44000003 -0.069557391 0.040495351 14408141
0.42702854 -0.054502916 0.048504744 14605522
0.43409753 -0.055090472 0.043265663 14474965
0.42676756 -0.044841703 0.048233908 14277845
0.43282059 -0.046373673 0.044134989 13948879
0.44200003 -0.047454406 0.040334512 13554379
0.42744005 -0.037403416 0.048489317 13554379
0.43028137 -0.034169707 0.046600047 13356998
0.48618183 -0.033578288 0.041569002 13752012
0.43328574 -0.028549829 0.048668928 13356485
0.4751353 -0.02488973 0.046001896 13619913
0.48450002 -0.029332865 0.041375518 13422793
0.47624999 -0.019634359 0.047919035 13685449
0.48300004 -0.017547887 0.048224229 13225155
0.49355561 -0.014984693 0.048378523 12830656
0.50100005 -0.013911917 0.048064232 12830656
0.52399999 -0.01209564 0.045363996 13093828
0.53720009 -0.012404749 0.043988287 13225414
0.54475003 -0.011295703 0.042054031 13422279
0.55233335 -0.011457509 0.040058751 13619402
0.523 -0.0090132337 0.047113955 13093828
0.53610003 -0.0047866134 0.046846606 13028035
0.54431581 -0.0054564215 0.044168424 13225414
0.55441672 -0.0052230931 0.041181564 13422022
0.56033331 -0.0015672377 0.041075949 13553863
0.53535718 0.002593356 0.048760809 12896449
0.5443334 0.0016581843 0.046055239 13093315
0.55577785 0.0061056637 0.046013232 13027522
0.56213045 0.0054444899 0.042253919 13488585
0.55649996 0.014019481 0.047683451 12830656
0.56058329 0.014014562 0.042733878 13554892
0.55400002 0.021578696 0.049258098 12895679
0.41700003 0.049433406 0.048140597 12237746
0.41773078 0.05354654 0.046094064 12369075
0.42114285 0.058071937 0.046973359 12961212
0.42505196 0.06545388 0.04623533 13421761
0.42546058 0.074729457 0.04644078 14211534
0.43053338 0.075900659 0.041705851 13290175
0.42548484 0.082507528 0.047119956 13882314
0.43141675 0.081523478 0.041974481 13684676
0.46368968 -0.10244952 0.055154916 13222583
0.45829409 -0.092783146 0.053751379 12103843
0.4613784 -0.097207747 0.05594309 12432809
0.44838098 -0.081279837 0.054913085 12235430
0.45410007 -0.086691186 0.055302057 12169636
0.4390001 -0.071154952 0.054191716 11380121
0.44262302 -0.075761579 0.055219173 11906465
0.42862499 -0.061069705 0.054417223 12827827
0.4339394 -0.065948606 0.055021543 11906467
0.41825002 -0.05077932 0.058238517 13420987
0.42322469 -0.055012278 0.05463548 13552318
0.41568431 -0.04484104 0.056719542 14145483
0.42137513 -0.044745855 0.051766586 14409430
0.40899998 -0.033485577 0.059132293 14277331
0.41396502 -0.035773594 0.056891903 14277588
0.42420414 -0.035238817 0.052748829 13883344
0.43027279 -0.030994039 0.051626191 13356743
0.40900001 -0.029070545 0.059345067 14079953
0.41400006 -0.026416162 0.058417369 13685452
0.42371437 -0.023107391 0.057931103 13290950
0.43438238 -0.025699595 0.054588012 13356230
0.47472724 -0.022579215 0.051098954 13356484
0.42253846 -0.018125413 0.058947202 13290951
0.43000001 -0.019490151 0.057358935 13422023
0.4677273 -0.012292068 0.057909932 13158851
0.47356007 -0.015789967 0.053471211 13290692
0.48428574 -0.012310724 0.051153455 13291206
0.49133337 -0.011341489 0.050587505 12896449
0.46755558 -0.0089686364 0.058595642 13093058
0.47321752 -0.0062032924 0.056515139 13159108
0.48100001 -0.0066073961 0.053461179 12896449
0.53000003 -0.0010690625 0.052087132 12830656
0.48800004 0.0013004892 0.059383638 13093058
0.49700007 0.0038492617 0.058535393 12896192
0.50408703 0.0064256089 0.057436708 12633277
0.51433343 0.0079523595 0.054394055 12501691
0.52420008 0.0057256585 0.051840331 12633277
0.53050005 0.0045185243 0.050894357 12764863
0.40466669 0.019076938 0.059663642 11842991
0.50750005 0.011749501 0.059083108 12304312
0.51499993 0.014992486 0.057164725 12238519
0.52416664 0.014373329 0.054063797 12304312
0.53257149 0.015672056 0.053763855 12370105
0.54629999 0.016034778 0.051127981 12501691
0.55124998 0.017601002 0.05030407 12567484
0.40552944 0.026497694 0.059063062 12501176
0.51784623 0.022269111 0.057885304 12369336
0.52500004 0.024750747 0.056511883 12435128
0.53600001 0.022759762 0.056441154 12370105
0.54650003 0.022142405 0.054345075 12370105
0.55150002 0.022127638 0.05140141 12566971
0.40825003 0.034335349 0.05841605 13159105
0.41200003 0.037700471 0.056208551 12895678
0.4084762 0.045258444 0.058813117 13948619
0.41301382 0.045141395 0.054899085 13224898
0.40899995 0.054186378 0.059170976 14343377
0.41398978 0.055207457 0.054870255 14014156
0.42050001 0.058462087 0.050431121 13553606
0.41444579 0.064991437 0.056135368 14540499
0.42064303 0.065198749 0.051116038 14145742
0.41651297 0.074768245 0.056103136 14671828
0.42065644 0.075131878 0.051249534 14540242
0.41797054 0.082760997 0.057392877 13552576
0.42120692 0.08313521 0.052510366 13750470
0.46400005 -0.10156055 0.062783033 12762287
0.45886198 -0.092455491 0.066060491 12499115
0.46195236 -0.096849635 0.064141423 12564651
0.44900003 -0.080790579 0.065148979 12235943
0.45415154 -0.08598204 0.065056175 12367529
0.43900007 -0.070769578 0.064211853 12038564
0.44417191 -0.075838119 0.064970784 12170151
0.42899996 -0.060836196 0.063538261 11445917
0.43360817 -0.06541533 0.065160871 11446172
0.4179334 -0.05113323 0.064162955 12169895
0.42407581 -0.056100976 0.06476593 11643551
0.4085556 -0.041774224 0.065868035 12828340
0.41291562 -0.046300832 0.064473458 12630703
0.39850003 -0.030656476 0.069482148 12960697
0.40511677 -0.035062023 0.064693287 13684678
0.39745003 -0.025157353 0.068506293 13882827
0.40417877 -0.025412176 0.064115316 14014159
0.41278949 -0.022442698 0.06111199 13487817
0.39762503 -0.018371096 0.069212683 13882574
0.40501228 -0.015117028 0.066594951 13356488
0.41393101 -0.016540505 0.062021915 13356232
0.42100003 -0.016125511 0.060100675 13422025
0.39711112 -0.0018357424 0.06898123 11908785
0.4032813 -0.0066321315 0.068101309 12304314
0.46725002 -0.0066826656 0.060412284 13158851
0.39336357 0.0043937098 0.068437487 12764092
0.48700002 0.0024379001 0.060402025 12961472
0.50300002 0.0092899753 0.061208371 12501434
0.3964057 0.014860772 0.067477211 13356228
0.40123335 0.017040623 0.063065454 12500663
0.50564098 0.014524912 0.063865475 12172213
0.51160008 0.018252188 0.061534904 12238007
0.39754763 0.024593918 0.068361528 13948363
0.40239736 0.025446415 0.063619599 13422020
0.51566672 0.022879146 0.062627926 12171957
0.39866671 0.032171823 0.06912221 14145741
0.40295836 0.035167594 0.064365186 13948619
0.40449184 0.04499656 0.064737938 14145741
0.40632489 0.054731265 0.064855561 14277327
0.40843967 0.063197412 0.066086128 14211534
0.41073808 0.067190498 0.063417986 14408913
0.41341111 0.075177647 0.06495434 14474449
0.41621277 0.082541794 0.064864404 14145227
0.45851108 -0.093285039 0.074853964 11775392
0.46000001 -0.09838444 0.071052529 12499115
0.44900003 -0.080790579 0.070404567 11841185
0.45440009 -0.085601002 0.075020894 11578270
0.44461906 -0.074513249 0.074988917 11512221
0.45000002 -0.079917051 0.078462318 11577759
0.43454838 -0.064140953 0.074325033 11314587
0.44050002 -0.069292299 0.076636747 11380380
0.41900003 -0.050870381 0.071095362 11380380
0.4246667 -0.05465648 0.074644968 11183001
0.43024996 -0.059035122 0.076279037 11117208
0.40850002 -0.041467573 0.075051561 11380380
0.41369236 -0.045877449 0.075152129 11314587
0.39750004 -0.031418096 0.07489042 11906726
0.4036364 -0.036649488 0.074529171 11643553
0.38874999 -0.021412611 0.078247562 12894647
0.39339283 -0.025149094 0.074366488 12829112
0.38703415 -0.014932035 0.076938003 12960697
0.39320457 -0.016039705 0.072192118 13619400
0.4018333 -0.01170466 0.071316577 13355973
0.38663557 -0.0053596944 0.076626323 12961211
0.39358068 -0.0041279537 0.072051987 12895677
0.40161544 -0.0076112947 0.071290001 12369592
0.38817284 0.0041797142 0.07689514 13290689
0.39097995 0.0054172049 0.072214596 13487812
0.38899997 0.011772814 0.07796336 13290432
0.39177993 0.015435383 0.074248828 13553604
0.39423826 0.024944067 0.074950062 13750983
0.39701796 0.034943856 0.075184695 13750983
0.40000001 0.038709544 0.070587039 14014155
0.39873341 0.040952142 0.077208273 13553861
0.4013159 0.045320973 0.074733786 13750982
0.40505755 0.05469954 0.074982531 13816775
0.40848789 0.063726999 0.075049594 14013897
0.41018179 0.068790466 0.074879378 14013640
0.41231045 0.074845187 0.074939512 13948104
0.41433334 0.082367316 0.074771211 13420478
0.45899987 -0.091689803 0.084430404 11643551
0.45999998 -0.093753912 0.086774811 11840930
0.45527145 -0.084823608 0.084892184 11577759
0.44640294 -0.074170694 0.084660135 11511966
0.45030004 -0.079021521 0.08589597 11577759
0.4372564 -0.063039027 0.084364787 11446173
0.44178784 -0.067586802 0.085697643 11511710
0.42542425 -0.052593276 0.085565872 11183001
0.43182927 -0.057634965 0.08578635 11314587
0.40883335 -0.040703118 0.082770467 11248794
0.41527656 -0.044782259 0.085301682 11183001
0.421 -0.048763175 0.08678937 11183001
0.3980715 -0.030890381 0.084650293 11380380
0.4038415 -0.035601374 0.084957398 11314587
0.38681486 -0.022349905 0.085514799 10920602
0.3931905 -0.027187262 0.08472199 11643553
0.37883332 -0.012145977 0.088963814 2173219
0.38221946 -0.015391677 0.084599152 2698793
0.37866673 -0.0061804913 0.088661686 2173220
0.38182741 -0.0048709442 0.0840782 2896173
0.38542965 0.0045766779 0.085000046 12698810
0.3883335 0.014486562 0.084971972 13290432
0.39000002 0.018994935 0.080630459 13487811
0.389 0.020524699 0.087223291 13356225
0.39200914 0.025258454 0.084567077 13487811
0.39592513 0.034801282 0.085122824 13422018
0.39861298 0.041188758 0.084388688 13422018
0.4004474 0.045869909 0.085313678 13553604
0.40459809 0.054565635 0.084897347 13816776
0.40852728 0.063964538 0.085251957 14079948
0.40999997 0.068879731 0.084205456 14211534
0.41141087 0.074874215 0.084869206 14079947
0.41268185 0.0818353 0.084995024 13486525
0.45900002 -0.090111606 0.091851354 11775392
0.46053845 -0.091325745 0.096266538 11643551
0.45733899 -0.084421337 0.094342396 11643551
0.46008334 -0.088170357 0.097633235 11643551
0.44810525 -0.072874479 0.094669759 11643552
0.45236367 -0.077676646 0.095708035 11511966
0.43800005 -0.061527781 0.094559357 11511966
0.4432281 -0.066561967 0.095257692 11577759
0.42677277 -0.052134678 0.093216032 11380123
0.43263826 -0.056648672 0.09516383 11446173
0.41477588 -0.043001153 0.094818659 11511966
0.42195243 -0.048033006 0.094671898 11380380
0.39594448 -0.030977242 0.094666161 11643809
0.40536854 -0.036139768 0.09446343 11709088
0.41000003 -0.039219707 0.098362774 11709345
0.37900001 -0.020283887 0.099354416 3157542
0.38535956 -0.023912191 0.095115684 10657172
0.39172006 -0.028559012 0.093915656 11643809
0.37669596 -0.014359202 0.095438175 2173218
0.38076472 -0.018753394 0.092212439 1975070
0.37644184 -0.0053013372 0.095102564 2238497
0.38000003 -0.00076649763 0.091165498 2304546
0.37860003 0.0001226357 0.096589223 11448226
0.38314143 0.0049631274 0.094689034 12238002
0.38713723 0.014722917 0.095008686 13093053
0.38899997 0.0207296 0.094690643 13224639
0.39160207 0.025861261 0.094909638 13290689
0.39540741 0.034831494 0.09495312 13422018
0.39850008 0.041369349 0.09604051 13553604
0.40044728 0.046153706 0.094750591 13553604
0.40441281 0.054660667 0.095085345 13816776
0.40815735 0.064566217 0.09523949 14079948
0.41000003 0.069239661 0.090684235 14342350
0.40900001 0.071769118 0.097731158 14014155
0.41097718 0.075465046 0.094452016 14014155
0.41208336 0.081208393 0.094199479 13619142
0.46225002 -0.09102004 0.10143007 11446173
0.45834205 -0.082332365 0.10569708 11446173
0.46083331 -0.087390915 0.10454715 11511967
0.44878572 -0.070921592 0.10324086 11446173
0.45343867 -0.075619109 0.10533031 11446173
0.43900001 -0.060492504 0.10172316 11511966
0.44426471 -0.064992644 0.10519218 11446173
0.42899999 -0.051080171 0.10359058 11643552
0.4354032 -0.055782221 0.10488492 11577759
0.44000003 -0.059600253 0.10813516 11643552
0.41583338 -0.043192085 0.10412478 11840931
0.42210528 -0.047560405 0.10518543 11709089
0.39426664 -0.032462455 0.10524477 11774625
0.40409678 -0.037252668 0.10402294 11840675
0.41000003 -0.039219707 0.10076232 11840931
0.37811115 -0.020531677 0.10565881 5066054
0.38425002 -0.024987713 0.10483744 11249052
0.39025 -0.029108224 0.10184651 11709345
0.3725971 -0.014597964 0.10515673 2041888
0.37207699 -0.0051187263 0.10517184 1976098
0.37734151 0.0017200015 0.10516724 11712171
0.38186905 0.0068323854 0.1051899 12501173
0.3853173 0.014649713 0.10490743 13158846
0.38835296 0.021679409 0.10528038 13356482
0.39159209 0.026800843 0.10449872 13487811
0.39557785 0.034866918 0.1050414 13488068
0.3983674 0.041925762 0.10490804 13487811
0.40002874 0.047279239 0.10502998 13619397
0.40197214 0.055228144 0.10475927 13882569
0.40683216 0.065315291 0.10498513 14079691
0.40845042 0.074889518 0.10532356 14079435
0.41022229 0.078667521 0.10092305 14080206
0.40900001 0.080560498 0.10674015 14276813
0.4103334 0.080983095 0.10212359 13750985
0.45803231 -0.082244672 0.11312018 11117721
0.46000001 -0.088154189 0.11089666 11249564
0.45511779 -0.075006217 0.11492366 11249051
0.44622585 -0.064614929 0.11478549 11577502
0.45060006 -0.069158949 0.1166492 11446173
0.42822224 -0.05132233 0.11693169 11972772
0.43447059 -0.05527148 0.11485915 11840931
0.44111115 -0.059636313 0.11391638 11709345
0.40685716 -0.041233834 0.1152363 11972517
0.41360006 -0.044605218 0.11751565 11906723
0.42305559 -0.048011981 0.11348879 11972516
0.38680005 -0.031698979 0.11539078 11709344
0.39353848 -0.033752456 0.11244185 11774881
0.40316665 -0.038491622 0.11399707 11972260
0.37756258 -0.021645142 0.11513359 8355705
0.38292229 -0.026517328 0.1148185 11314844
0.36841857 -0.01320925 0.11579286 1647131
0.37141305 -0.017104497 0.11367654 2041888
0.36838382 -0.0053321505 0.11577217 2107168
0.3702631 -0.0036645054 0.11148042 2042405
0.36900002 0.00011952608 0.11876074 11711400
0.37747064 0.0032478042 0.1163098 11514536
0.38072291 0.006965864 0.11472046 12303538
0.38326964 0.015243076 0.11521493 13224896
0.38745835 0.02307122 0.11541268 13619654
0.39100012 0.027832648 0.11378693 13619654
0.39425626 0.034951758 0.11511928 13685190
0.39778268 0.043183133 0.11570624 13685190
0.40007827 0.047785938 0.11413538 13750983
0.40279439 0.055207919 0.11508087 13882312
0.40510356 0.065204762 0.11490925 13684420
0.40744779 0.075036019 0.114867 13684420
0.40872726 0.080854952 0.11271241 12631477
0.45900002 -0.080440864 0.12247539 11775138
0.45732003 -0.075444706 0.12515363 11577758
0.44582501 -0.063816994 0.12430243 11775393
0.45205262 -0.068754047 0.12602729 11709599
0.42640001 -0.051571228 0.12453789 11972514
0.43480775 -0.056362174 0.12537618 11775136
0.40596774 -0.042241611 0.12692134 12038308
0.41328561 -0.045461915 0.12404881 11972515
0.42125002 -0.048924848 0.12323909 11972515
0.38600007 -0.032031287 0.12550563 11709088
0.39393184 -0.036454156 0.12579709 11906211
0.40480003 -0.039288811 0.12201618 11840929
0.37673211 -0.022908149 0.12534069 9079169
0.38152379 -0.027383385 0.12460867 11380381
0.36725619 -0.013711385 0.12554726 1778460
0.37093547 -0.018957183 0.12513988 1975839
0.36604872 -0.0052655125 0.12523699 1975067
0.36833334 0.00011931014 0.12328713 11316124
0.3758471 0.0050579333 0.1252121 11711657
0.38023084 0.0087851118 0.12264813 12369331
0.37900004 0.011065464 0.12922503 12566968
0.38160321 0.015394945 0.1250113 13093054
0.38642144 0.025022628 0.12512551 13619398
0.38885713 0.030817037 0.1265595 13750983
0.39282414 0.035832018 0.1247027 13750983
0.39659616 0.045149848 0.12498649 13816520
0.39860004 0.050891753 0.12651356 14013642
0.40181062 0.055833835 0.12463894 14079435
0.40489787 0.064995475 0.12501229 14013385
0.40767342 0.074979059 0.12500466 13224381
0.40800002 0.080363527 0.12701458 10066318
0.45721671 -0.074710988 0.134574 11578013
0.4386 -0.060437381 0.13736048 12170150
0.44480005 -0.063353226 0.13468629 11841185
0.45274201 -0.068474926 0.134688 11643806
0.41800001 -0.05074897 0.13795604 12235689
0.42638463 -0.051847078 0.1348106 12235687
0.43391064 -0.056552086 0.13460101 12104358
0.39860004 -0.040554971 0.13509667 11841186
0.40473336 -0.043358147 0.13403432 11972516
0.41344446 -0.047724549 0.13590786 12169639
0.38461193 -0.033013266 0.13598567 11643552
0.39334047 -0.037866216 0.13449244 11906723
0.37671769 -0.024809012 0.13549046 9473926
0.38047829 -0.028650921 0.13362613 11380894
0.36601481 -0.015097855 0.1329499 1778203
0.37074074 -0.015887966 0.13746758 1120272
0.36507028 -0.0043056961 0.13357046 2304032
0.3710714 -0.0067075491 0.13878675 790795
0.36538097 0.0012189666 0.13785832 10264212
0.37725908 0.0070673134 0.13477151 11579816
0.37839293 0.013706243 0.13594455 12566711
0.38076469 0.017777555 0.13349505 13290434
0.38396814 0.025223784 0.13513567 13619398
0.38771793 0.033281785 0.13551979 13685191
0.39130002 0.037759542 0.13370086 13750983
0.39474785 0.044953272 0.13494213 13750983
0.39802182 0.052168392 0.13601932 13816776
0.40091175 0.056763016 0.1342455 13882568
0.40404484 0.064890824 0.13510157 13882311
0.40747556 0.074843608 0.13502829 13290175
0.45673686 -0.072310209 0.14508462 11775136
0.43807694 -0.060839277 0.1458433 11972515
0.44477144 -0.064479202 0.14523712 11972515
0.45273691 -0.068578243 0.14489931 11841185
0.41693333 -0.051336296 0.1465158 11578527
0.42352945 -0.054109428 0.14642975 11644063
0.43432146 -0.057996664 0.1448991 11972772
0.40827271 -0.043049958 0.14587338 11249307
0.41248846 -0.047053792 0.14592038 11512478
0.37859997 -0.030543294 0.14179102 10788757
0.38326672 -0.033684991 0.14072126 11512479
0.36200002 -0.0211743 0.14934559 1909022
0.37564069 -0.024594868 0.14250696 8618875
0.36475003 -0.019308202 0.14897996 922895
0.37327531 -0.014543205 0.1449952 725771
0.3675687 -0.0025824723 0.14666989 1512462
0.37248293 -0.006779402 0.14508776 528136
0.36522225 0.0012617597 0.14181434 8486262
0.37646151 0.0081922421 0.14214276 10987681
0.37800014 0.014778096 0.14275652 12303797
0.38010007 0.019521266 0.1442235 11777454
0.38238561 0.024907568 0.14320689 12698554
0.38756064 0.035271317 0.1432379 13027518
0.39000002 0.0393852 0.14180125 13487813
0.38900003 0.040194869 0.1456874 12304566
0.39270112 0.044730004 0.14374951 13027518
0.39749998 0.053283833 0.14390734 13356482
0.40011755 0.058011398 0.14530616 13290433
0.40322676 0.064522646 0.14474677 13356225
0.40671939 0.073752448 0.14361857 13158846
0.45425004 -0.071968354 0.15456495 11380378
0.43833336 -0.060743213 0.15116626 11709599
0.44607693 -0.065531328 0.15304533 11512221
0.45100001 -0.067849256 0.15736347 10525072
0.43500003 -0.059941322 0.15171345 11644322
0.40871426 -0.042787831 0.15088323 10196620
0.41080004 -0.046414331 0.15038905 10657684
0.36104351 -0.022078753 0.15208444 2962220
0.35900003 -0.011229457 0.15966463 791822
0.36441776 -0.014539755 0.15194526 792076
0.37099999 -0.012841503 0.15057014 396806
0.35900003 -0.0099688191 0.15966463 791822
0.36451355 -0.005211792 0.15196261 1052937
0.37066671 -0.0091355387 0.15039055 462342
0.36377782 0.00059046003 0.15289314 3943205
0.40100002 0.05927103 0.15065098 10658713
0.40316668 0.063528478 0.15067703 10658970
0.45300001 -0.066785567 0.16105485 9078141
0.34484375 -0.021733802 0.16829847 1449494
0.36213213 -0.021830311 0.16516475 988686
0.34515995 -0.01470768 0.16749473 989457
0.35557136 -0.014085369 0.16482268 1120787
0.36077079 -0.017040512 0.16287959 1055251
0.34482998 -0.0077046142 0.16740261 1054994
0.35642409 -0.0078220172 0.16458353 1055251
0.36059612 -0.0042808433 0.16274384 857615
0.36150002 0.00011709669 0.16119906 1976094
0.33790624 -0.021991292 0.17808972 1383187
0.34164876 -0.023094706 0.17353354 1843482
0.33746824 -0.014974909 0.177835 1252115
0.34144604 -0.015077074 0.17303228 1318165
0.33785716 -0.005867749 0.17783841 1186322
0.34139681 -0.0073483428 0.17287429 1120787
0.33315134 -0.022264272 0.18352634 1252371
0.33350831 -0.014683959 0.18392558 1252371
0.33402127 -0.0056003919 0.18382493 1120787
0.79259998 -0.14447364 0.25509304 10000268
0.79121745 -0.13560356 0.25557497 10592151
0.79179162 -0.13521218 0.26487586 10789530
0.78900003 -0.13088591 0.27887091 13815754
0.79257691 -0.13547963 0.27542299 10723482
0.78800005 -0.12749411 0.27851573 14145231
0.79000002 -0.1292024 0.27552554 13816008
0.78871429 -0.13215785 0.28575942 12828858
0.79153335 -0.13711423 0.28470555 9604745
0.78517866 -0.12487442 0.28500107 14079694
0.78199995 -0.11508 0.28646594 14145743
0.78280002 -0.1062754 0.28767529 13948364
0.78858346 -0.13220209 0.29487666 12697273
0.79046661 -0.13705167 0.29567295 9407623
0.78522229 -0.12481679 0.29516855 13948108
0.78240007 -0.11513946 0.29485458 14145743
0.78287113 -0.10497684 0.2948533 14014157
0.78506666 -0.095313631 0.2949374 13882571
0.78470004 -0.08636149 0.29672924 13750985
0.7856667 -0.076993644 0.29976389 13619399
0.78857148 -0.13226607 0.3053554 12368052
0.79041672 -0.13713539 0.30481458 9276038
0.78525013 -0.12468845 0.30531365 13948108
0.77900004 -0.11372598 0.30998585 14145743
0.78189999 -0.11506559 0.30473119 14079693
0.77900004 -0.10187224 0.30998585 13750985
0.78147227 -0.10494017 0.304564 13948107
0.77900004 -0.09548945 0.30937797 13685192
0.78142864 -0.094807513 0.30421895 13816778
0.78227782 -0.084901214 0.30487865 13553606
0.78530777 -0.075258851 0.30535263 13422020
0.78700012 -0.065456405 0.30620894 13487813
0.78700012 -0.057319492 0.30764213 13487813
0.78852946 -0.13276315 0.31497157 11381156
0.79016668 -0.13755393 0.31535345 9275780
0.78350013 -0.12441175 0.31491691 13882315
0.77895659 -0.11431418 0.31567708 14014157
0.7802 -0.11664133 0.31155896 14079950
0.77900004 -0.10697846 0.31326842 13948364
0.78025937 -0.10474234 0.314953 13816778
0.77900004 -0.09396974 0.31180951 13619399
0.78111106 -0.09473145 0.31560269 13685192
0.78196651 -0.084867835 0.31482944 13619399
0.78406912 -0.074873 0.3149128 13619399
0.78486103 -0.064972259 0.31506968 13685192
0.78533345 -0.056369375 0.31360525 13553606
0.7883684 -0.13311368 0.32536983 11052448
0.79014289 -0.13794605 0.32472506 9012608
0.78360713 -0.12455881 0.32518306 13750474
0.77900004 -0.11554964 0.32092774 13882571
0.78119051 -0.11478547 0.3261866 13948366
0.78307152 -0.10502092 0.32503006 13948366
0.78488457 -0.095078506 0.32533523 13816780
0.78510356 -0.085051507 0.32515579 13816779
0.78468001 -0.075061247 0.32510611 13750987
0.78306276 -0.064596348 0.32477924 13488071
0.78200006 -0.058328334 0.32490972 13356485
0.79210716 -0.14458449 0.33500034 9145220
0.78823078 -0.13416703 0.33537596 9737102
0.79000002 -0.13844942 0.3328571 8881792
0.78434628 -0.12467931 0.33541864 12961472
0.78365397 -0.11503834 0.33561862 13290437
0.78574073 -0.10499888 0.33467546 13224901
0.78736675 -0.094670966 0.33543542 13224899
0.78696012 -0.084491156 0.33526272 13487300
0.78623998 -0.075210191 0.33495519 13487556
0.78519225 -0.065637663 0.3346515 13487557
0.79155546 -0.14407881 0.34504226 9672076
0.78830439 -0.13414231 0.34482035 9013633
0.79000002 -0.13844942 0.34857702 9672074
0.78638095 -0.12510422 0.34492251 10132370
0.78715384 -0.11463121 0.34512684 12106164
0.7883684 -0.10542792 0.34411868 12304059
0.79033333 -0.10366217 0.34903273 8422788
0.78890914 -0.095108584 0.34247124 13027779
0.79061538 -0.09484829 0.34678504 10922663
0.78900003 -0.084709331 0.34259462 13027522
0.79100001 -0.084924057 0.34716767 10198682
0.78850007 -0.075426191 0.34237808 13224644
0.79075003 -0.074716724 0.34705761 9804180
0.78855562 -0.066611327 0.34250477 13421766
0.79075003 -0.065460622 0.34705764 9606544
0.79339135 -0.14486147 0.35504127 9803661
0.78885716 -0.13218154 0.35242602 9474696
0.79082352 -0.13565411 0.35607487 9606282
0.78866667 -0.12529176 0.35260522 9277062
0.79054546 -0.12508522 0.35815579 9343111
0.78888893 -0.11711868 0.35188311 9145477
0.79070592 -0.1146179 0.35591301 9211525
0.79328573 -0.105239 0.35546836 9145732
0.79216671 0.12605315 0.36096832 9541260
0.79338872 -0.15482979 0.37421432 9738383
0.79333335 -0.057687286 0.37461707 9408904
0.78900003 0.13232058 0.37307113 9343881
0.79078573 0.13645606 0.37245956 9409673
0.79293758 0.14487505 0.37440446 9541259
0.79326671 -0.07495527 0.38437536 9343367
0.79204005 -0.064937323 0.38452268 9343368
0.79125005 -0.058555342 0.3829343 9343368
0.78900003 0.13693826 0.3804594 9343881
0.79000002 0.13896121 0.3809416 9475467
0.79168415 0.14618406 0.38380185 9409674
0.79241651 0.15515593 0.38488898 9475467
0.79299992 0.1654789 0.38517278 9475467
0.79299992 0.17488906 0.38501289 9541261
0.78800005 0.13860942 0.3938126 9343881
0.78885716 0.14245398 0.3970111 9343881
0.79026669 0.14677858 0.39463577 9409674
0.7915833 0.15499318 0.39560094 9409674
0.79335994 0.16555561 0.39556193 9344138
0.78900003 0.14884156 0.404266 9409674
0.79011112 0.14596792 0.4056575 9278088
0.78900003 0.15525496 0.40678003 9475467
0.79007697 0.15576363 0.40288898 9409674
0.78900003 0.16095006 0.40816534 9278858
0.79110372 0.1652123 0.40446085 9409674
0.79299998 0.17482312 0.40502101 9475467
0.79212505 0.13887061 0.41534191 9343881
0.78900003 0.1498677 0.41309085 9409674
0.7906335 0.14462332 0.41548783 9343881
0.78899974 0.15540889 0.41463 9343881
0.79000002 0.15005763 0.41669676 9343881
0.78900003 0.16095006 0.41370654 9278601
0.7902084 0.16551378 0.41526487 9278601
0.79215378 0.17471944 0.41514623 9409674
0.79340011 0.18493342 0.41521689 9475210
0.79303324 0.2044723 0.41489288 9672076
0.78460002 0.13801183 0.42626604 9212295
0.79050004 0.1371986 0.42096949 9278088
0.78751349 0.14515233 0.42532817 9278088
0.78873318 0.15535673 0.4255673 9343881
0.78871435 0.16379331 0.42779949 9278088
0.79018754 0.1655864 0.42369354 9278088
0.78900003 0.17110893 0.42848301 9343881
0.79136676 0.17495818 0.42507231 9409674
0.79214686 0.18504484 0.42533514 9409675
0.79177439 0.19475988 0.42514297 9475211
0.79199994 0.20407401 0.42514449 9343882
0.78433335 0.13837309 0.43411314 9278088
0.78600007 0.14561908 0.43485549 9278089
0.7871201 0.15503915 0.43483281 9343626
0.78751737 0.165354 0.43473288 9343881
0.78841376 0.17521444 0.4347823 9343881
0.79000002 0.17872339 0.43087548 9475467
0.78874987 0.18474996 0.43588626 9409674
0.79000002 0.18581279 0.43118373 9409675
0.78899997 0.19248208 0.43653098 9409674
0.79000002 0.19670372 0.43375233 9409419
0.7915833 0.20510387 0.43475068 9409418
0.79279399 0.21483558 0.43507379 8289651
0.79144448 0.22310318 0.43526456 2827289
0.78788894 0.14596915 0.44294363 9278088
0.78775001 0.15516186 0.44347987 9278089
0.78780955 0.1654508 0.44364533 9277833
0.78804767 0.1752506 0.44377884 9343881
0.78830004 0.18479884 0.44378886 9409674
0.78899997 0.19287787 0.44418308 9343881
0.79000002 0.19842666 0.44367903 9343881
0.79231578 0.20507097 0.44492722 9343880
0.79166675 0.22203393 0.44228792 2695447
