# .PCD v0.7 - Point Cloud Data file format
VERSION 0.7
FIELDS x y z rgb
SIZE 4 4 4 4
TYPE F F F U
COUNT 1 1 1 1
WIDTH 770
HEIGHT 1
VIEWPOINT 0 0 0 1 0 0 0
POINTS 770
DATA ascii
0.55519998 -0.096253715 -0.01068466 14606551
0.56535006 -0.092124268 -0.012803622 14606551
0.57000005 -0.090553232 -0.0160383 14672344
0.56840008 -0.086483337 -0.011913198 14606550
0.5726428 -0.083787151 -0.014872004 14013900
0.5759474 -0.077512942 -0.013086298 13158590
0.58199996 -0.073382355 -0.013480839 12500916
0.583 -0.069416642 -0.010944831 12566709
0.51900005 -0.1031059 -2.3433615e-05 14343379
0.52342856 -0.1011798 -0.00090218411 14409172
0.53799999 -0.10058314 -0.0056930664 14277329
0.54533339 -0.10024913 -0.0076898956 14408915
0.5262 -0.09862192 -0.00051771349 14409172
0.53463644 -0.094881944 -0.0013354289 14540757
0.54480773 -0.094889566 -0.0049846759 14606551
0.55347371 -0.093784131 -0.0078690024 14606551
0.56050003 -0.091011629 -0.0092102904 14672344
0.5381667 -0.087174922 -0.00023460046 14409172
0.5441305 -0.084725752 -0.0019120397 14474965
0.55426675 -0.084333248 -0.0050471337 14540758
0.56400001 -0.084451891 -0.0082983775 14606550
0.54680002 -0.078162231 -0.00053784001 14606551
0.55415386 -0.077357173 -0.0025261282 14540758
0.56587505 -0.077227868 -0.0064064329 14672343
0.5754118 -0.072469309 -0.0062116385 14672085
0.58033341 -0.070910297 -0.0090836016 12631732
0.56850004 -0.068022579 -0.00035867843 14738136
0.57480776 -0.065597132 -0.0025694694 14606550
0.58122224 -0.06769371 -0.0078894617 12303024
0.57300001 -0.05883614 -2.5871792e-05 15132638
0.49100003 -0.11018718 0.0080239093 14013133
0.49548 -0.1055669 0.008001701 14409172
0.50407147 -0.10224489 0.0068014748 14343379
0.51452953 -0.10178811 0.0031580741 14474965
0.50625002 -0.098494992 0.0088633541 14540758
0.51548481 -0.095709413 0.0069933948 14540758
0.52379411 -0.094458893 0.0035436484 14606550
0.53133339 -0.091872811 0.0012198704 14540756
0.51775002 -0.088615984 0.0093693724 14606551
0.5250001 -0.086660437 0.0076125949 14540758
0.53431827 -0.084108628 0.0041483673 14474964
0.54000002 -0.080730662 0.0012397679 14474963
0.53630006 -0.078165278 0.0073120678 14540758
0.54420006 -0.074564353 0.0050086752 14540757
0.55270004 -0.071499191 0.003077362 14606549
0.56 -0.070610985 0.0012856852 14672342
0.55470842 -0.067068398 0.0071145711 14540757
0.56415629 -0.064072065 0.0043828106 14738136
0.57066673 -0.061266873 0.0013101745 14672342
0.56723535 -0.056912728 0.0078614159 14869721
0.57277417 -0.054785043 0.0048591639 14803928
0.57616675 -0.046454545 0.0073325862 13684936
0.580625 -0.043648951 0.0054099206 11579815
0.47466668 -0.11300012 0.018121948 14671314
0.48252639 -0.11178847 0.013586551 14342864
0.47432137 -0.10533255 0.018730888 14277071
0.48461905 -0.10567246 0.014636405 14803671
0.49246156 -0.10319292 0.011725083 14606550
0.47528571 -0.09823335 0.019528046 13882569
0.48464513 -0.095430262 0.017578116 14672085
0.49450004 -0.095275134 0.014202249 14277585
0.50370586 -0.093749121 0.011975111 14080207
0.51100004 -0.09134838 0.01074327 14343379
0.48800004 -0.089520469 0.019399051 14408913
0.4959231 -0.08600764 0.018327136 14145999
0.50426668 -0.084593676 0.015752571 13948621
0.51373082 -0.084612124 0.012461813 14409172
0.52275002 -0.0815164 0.011295804 14540758
0.50666672 -0.078905322 0.018356847 13817035
0.51342428 -0.075410418 0.016832929 14146000
0.52389479 -0.075414993 0.013787858 14343379
0.53408343 -0.074109651 0.011743597 14409172
0.54333335 -0.071473204 0.010784729 14474965
0.50166672 -0.062082052 0.01994233 14080207
0.51600003 -0.069894843 0.016888216 14211793
0.52500004 -0.069884904 0.015953744 14277586
0.53000003 -0.069309741 0.016105684 14343379
0.54673916 -0.066428937 0.014554054 14409172
0.55208004 -0.063249461 0.012430601 14343378
0.50042856 -0.056072496 0.019893114 14080207
0.55540919 -0.057143427 0.015278795 14211793
0.56316137 -0.053268686 0.013108968 14474964
0.56572092 -0.046007477 0.016629057 14474708
0.57276469 -0.043427777 0.012353304 14803928
0.56844997 -0.034680765 0.018737126 14474964
0.57211119 -0.036376093 0.014750068 14014155
0.56823075 -0.027545838 0.017779406 12237746
0.57000005 -0.023834212 0.019989969 11316647
0.46788564 -0.1128879 0.025636366 13880511
0.47000009 -0.11397663 0.021384196 14472906
0.46544287 -0.10482762 0.025388705 14012612
0.47000003 -0.10804182 0.02106745 14539470
0.45880005 -0.092579111 0.028118946 13880769
0.46343642 -0.095931962 0.024704104 14276298
0.47284618 -0.094440177 0.021007296 13948362
0.48180002 -0.090976484 0.020731371 14277325
0.45646805 -0.085048869 0.027575109 14408398
0.46450004 -0.086021975 0.024238262 13685190
0.47200003 -0.087693222 0.022904864 13290689
0.48523533 -0.085502595 0.022093967 14343119
0.49285719 -0.083070576 0.02132131 14343377
0.45544451 -0.07649602 0.028408242 13817035
0.46462503 -0.07414113 0.02717258 13488069
0.4705455 -0.072750933 0.02611473 13751240
0.48385715 -0.077517577 0.024409017 14145998
0.49550003 -0.078713663 0.022300988 14080205
0.50496435 -0.074054226 0.021587718 13751242
0.46800002 -0.069966577 0.029559974 13422275
0.48700002 -0.06368649 0.029619981 13882826
0.49769428 -0.063435279 0.025798827 13751242
0.50157899 -0.065908328 0.021914663 13882828
0.49799994 -0.055268649 0.025951637 13685705
0.50010526 -0.053075958 0.02259128 13817035
0.5575 -0.052676089 0.020856708 14146000
0.56 -0.050946433 0.020950235 14146000
0.49900001 -0.04890142 0.029181669 13686219
0.50190008 -0.047832042 0.026003141 13619656
0.56168753 -0.043945953 0.021915829 13817035
0.56551433 -0.034461409 0.023608049 13948621
0.55700004 -0.028506411 0.029965632 13619656
0.56593758 -0.026267404 0.025508516 14080206
0.57307696 -0.021997493 0.023192521 13488070
0.56833339 -0.019329851 0.028800853 13751240
0.57491183 -0.015565314 0.026688915 12632760
0.57633334 -0.0088082859 0.028756013 11382694
0.4652144 -0.11171335 0.033351209 12827568
0.46385017 -0.10513141 0.034674149 12959409
0.45732731 -0.09348762 0.034721375 12432808
0.46073914 -0.098332383 0.03552755 12235429
0.44880006 -0.082057975 0.036794022 12564395
0.45216677 -0.085841797 0.034271352 13222582
0.44555852 -0.074948393 0.035541836 14078921
0.45192307 -0.075201437 0.030902101 14211535
0.43861544 -0.062888391 0.039314166 14540243
0.44372886 -0.06564761 0.035620179 14211535
0.45475 -0.063188352 0.032981385 13553862
0.47500002 -0.061005235 0.031114094 13619654
0.43844453 -0.055227481 0.0395533 13882827
0.44250003 -0.056133375 0.038046725 13751241
0.45900002 -0.056801267 0.036513202 13356482
0.46300003 -0.057115227 0.034662448 13422277
0.48420006 -0.051301073 0.033075452 14277584
0.49427274 -0.055114947 0.031112587 14014926
0.43800002 -0.049075685 0.039969493 13159105
0.44800001 -0.04862297 0.039833263 13356482
0.45300001 -0.049695875 0.039217349 13225666
0.48420006 -0.048356544 0.034434177 14080205
0.49625003 -0.04834339 0.031332016 13751755
0.50100005 -0.045578867 0.030471481 13685449
0.48750001 -0.031226948 0.039921604 13290691
0.48700002 -0.029484222 0.039880659 13356484
0.55369693 -0.023663772 0.033824563 13290947
0.56059998 -0.022390038 0.030421499 13553862
0.55610532 -0.016875291 0.037109967 13225411
0.564206 -0.014380647 0.034307484 13422533
0.57214296 -0.012249157 0.031353172 13751240
0.56630307 -0.0050359699 0.036926836 13422790
0.57190001 -0.0073151388 0.03250403 13751498
0.56631815 0.0031314208 0.037995651 13422532
0.43263638 0.076380707 0.038927767 12434352
0.43400002 0.080404721 0.039604474 13355453
0.46379709 -0.10384706 0.044561554 13156788
0.45731914 -0.09313494 0.044923812 11840671
0.46079999 -0.098103911 0.045329675 12169637
0.44876188 -0.081498541 0.044703994 11840158
0.45258191 -0.08635246 0.045154702 11774878
0.43900007 -0.070898041 0.046612378 12629674
0.44365719 -0.075508118 0.0448034 12169380
0.42900002 -0.060620986 0.048689023 13815748
0.43463337 -0.065136239 0.044806283 13947077
0.44000003 -0.069900736 0.040152002 14539214
0.42702699 -0.054737303 0.048475422 14342606
0.4327682 -0.055271648 0.043666817 14343121
0.42638713 -0.045100544 0.048856977 14211535
0.4327586 -0.045397952 0.044824298 13751241
0.44200003 -0.048489135 0.040334512 13290691
0.4273636 -0.038150191 0.049183581 13488070
0.43260381 -0.035287026 0.046578474 13224898
0.48525 -0.031794786 0.041722834 13356740
0.43416667 -0.028656617 0.048936546 13159105
0.476641 -0.024251262 0.046039499 13290689
0.48066673 -0.023101538 0.044612151 12699067
0.47800004 -0.019427195 0.048654616 13224898
0.48472226 -0.015348464 0.047886658 12764349
0.49183336 -0.014233265 0.047184031 12633020
0.54533339 -0.012729389 0.043236092 13159362
0.55257142 -0.01146256 0.041182648 13094082
0.53800005 -0.0073825382 0.046576016 13094082
0.54600006 -0.0071234372 0.045622524 12962239
0.55484623 -0.0049634012 0.0435322 13093569
0.5607143 -0.0024429895 0.041416053 13028289
0.54700005 0.00017718365 0.049916241 12764347
0.55593759 0.0053057373 0.046779901 12764092
0.56118512 0.0047053192 0.042304777 13093570
0.55686861 0.014862815 0.046899825 12698300
0.56016666 0.01416864 0.042083509 13423050
0.5546667 0.021387732 0.048883509 12632507
0.41300002 0.04557528 0.049290214 11645609
0.41811112 0.054623146 0.04913782 12895674
0.42146665 0.058219526 0.047601026 12961466
0.42494863 0.065493464 0.046164695 13158332
0.43000001 0.069597282 0.041252732 12697010
0.42552039 0.074695624 0.046584107 14079177
0.4305883 0.075831406 0.041871086 13223354
0.42551729 0.082576297 0.047411833 13816006
0.43123081 0.081365436 0.042531412 13815749
0.46332359 -0.1022546 0.055073075 13091252
0.45839465 -0.09281832 0.054511648 11972256
0.46108827 -0.097634979 0.055252474 12170149
0.44850001 -0.08122617 0.05510195 12103843
0.45385191 -0.08653181 0.055171248 11972257
0.4390001 -0.071154952 0.054191712 11182742
0.44275865 -0.075852506 0.055465728 11709086
0.42815384 -0.061311595 0.054490738 12564908
0.43368757 -0.066006891 0.055009853 11643550
0.41825002 -0.05077932 0.058238517 13420988
0.42319354 -0.055182118 0.054698531 13354937
0.41551322 -0.044771399 0.056670658 13882311
0.42161551 -0.044987034 0.051783085 14211791
0.40899998 -0.033857927 0.059345067 14080206
0.4137288 -0.035769548 0.056818377 14080206
0.42420411 -0.035303604 0.05299091 13751242
0.43118754 -0.031465098 0.051965613 13224898
0.40900001 -0.029549286 0.059345067 13817035
0.41396296 -0.026270341 0.058519676 13422021
0.4234286 -0.021951687 0.059028383 13159105
0.43605354 -0.025576884 0.055283517 13093312
0.47471428 -0.021437777 0.051573601 13159105
0.42399999 -0.016672971 0.059226256 13027519
0.43200004 -0.019326802 0.057874456 12961726
0.47412318 -0.015112345 0.054166283 13027519
0.48033336 -0.01221279 0.050953984 13027264
0.47606978 -0.0068890988 0.056657121 12830141
0.48100001 -0.0050176103 0.054590486 12698556
0.48633337 0.0012999494 0.059180826 12566968
0.49600002 0.0044202763 0.058805048 12501175
0.50436842 0.0065659354 0.057456236 12369589
0.51360005 0.0081821661 0.054477267 12237749
0.52380002 0.008507438 0.052210547 12303542
0.53750002 0.0064679338 0.051565915 12501175
0.54833341 0.0044577769 0.050037909 12764347
0.55000001 0.0079035144 0.050190002 12632761
0.40646157 0.017697219 0.058828536 11645609
0.50833338 0.011272009 0.059080731 12303796
0.51525003 0.01417087 0.057351738 12040368
0.52372229 0.016105345 0.055483967 12106162
0.53400004 0.015633056 0.053500924 12237749
0.54577786 0.016502006 0.051647346 12237749
0.551 0.015660299 0.050281256 12237749
0.40580001 0.025857067 0.058165796 12040108
0.51850003 0.02141035 0.059453666 11843245
0.52342856 0.022575097 0.058791101 12171955
0.53450006 0.02456947 0.057372071 12171956
0.54504764 0.025147745 0.055322181 12171956
0.55155557 0.0255008 0.052051827 12303542
0.40802947 0.034915704 0.058247652 13027260
0.41138464 0.037842195 0.055912133 12632504
0.40850002 0.045078699 0.058793787 13685190
0.41203949 0.04488495 0.054576591 12961467
0.40885714 0.052912701 0.059187554 14079948
0.41358081 0.05532223 0.054867104 13816775
0.42000002 0.0591297 0.05012564 13422016
0.41447577 0.064937636 0.055604089 14277326
0.42052945 0.065631568 0.050593682 14013896
0.41570321 0.074662887 0.055964906 14474191
0.42076007 0.075745746 0.051043097 14277069
0.41753128 0.082638934 0.056883983 13684163
0.42156523 0.083078817 0.052111067 13882313
0.46315387 -0.10160323 0.062615193 12564651
0.45835549 -0.093110554 0.065407738 12367014
0.46105003 -0.097423926 0.062633142 12432808
0.44900003 -0.081024162 0.063513912 12235686
0.45350009 -0.085789718 0.065202042 12235685
0.43900007 -0.070769578 0.064211853 11972258
0.44429243 -0.075731203 0.065059587 12038308
0.42885712 -0.060815837 0.063231267 11249049
0.43336108 -0.065196082 0.06501694 11314584
0.41780001 -0.051182132 0.064468384 11906981
0.42414758 -0.056144603 0.064750835 11380635
0.4084816 -0.041766617 0.065856159 12565167
0.41283104 -0.046291593 0.064458929 12367788
0.39850003 -0.030656476 0.069482148 13026234
0.40502506 -0.035053078 0.064679019 13487297
0.39745006 -0.024994886 0.068506539 13684935
0.40425631 -0.025486588 0.064295977 13685449
0.41247827 -0.022658236 0.061273813 13290437
0.39757147 -0.01861809 0.069119997 13619399
0.40551481 -0.015331791 0.06722036 13224644
0.41491827 -0.015518317 0.062512331 13027264
0.42071432 -0.015484667 0.060762193 13027519
0.39487502 -0.0016088353 0.06919466 11842990
0.40569237 -0.0073288726 0.06872496 12303287
0.41200003 -0.0095115397 0.065567359 12632507
0.42000002 -0.0096962294 0.062907599 12764093
0.47333336 -0.007600911 0.060552467 12698555
0.39317945 0.0049700835 0.068636194 12566710
0.48666668 0.0035794284 0.060360681 12698554
0.49700004 0.0071465857 0.060478829 12764347
0.50349998 0.0095927138 0.06067986 12303796
0.3967143 0.014958224 0.067724772 13093055
0.40190697 0.017197404 0.063230656 12237747
0.5066191 0.013723168 0.063683473 11974831
0.51173693 0.017947888 0.062583357 11974831
0.39755267 0.024328865 0.068458304 13619397
0.40243369 0.025374858 0.063751958 13158847
0.51669228 0.022921972 0.06329111 11842989
0.52133334 0.027019566 0.062214766 11842991
0.39866671 0.030616214 0.069355726 13816776
0.40308756 0.035067368 0.064679071 13750982
0.40403262 0.04497597 0.064678401 13882568
0.40624776 0.054648731 0.064977907 14079947
0.41000003 0.059161574 0.060449984 14343120
0.4082588 0.063246042 0.066601492 14013897
0.41089997 0.066545576 0.063292593 14211534
0.41298062 0.075178683 0.065032601 14277070
0.41584101 0.082462244 0.064934723 13947336
0.45809624 -0.093669027 0.074616596 11709342
0.45435065 -0.085229635 0.075071014 11446427
0.44553727 -0.07470011 0.075060986 11314841
0.45000002 -0.079917051 0.072141558 11446427
0.43487927 -0.063918464 0.074565366 11182998
0.44066671 -0.068975039 0.076838069 11380377
0.41824999 -0.050779324 0.071948104 11117462
0.42370835 -0.054283138 0.074579053 10985876
0.43030006 -0.058790356 0.075935602 11051669
0.40840912 -0.04163222 0.074383162 11248793
0.41316333 -0.045828421 0.075446352 11117462
0.39759266 -0.031312127 0.074820839 11709345
0.40360272 -0.036485899 0.074701443 11511965
0.3888 -0.021658171 0.078136399 12499888
0.39320904 -0.025211124 0.074268229 12697010
0.38687056 -0.015042582 0.077032156 12763061
0.39351285 -0.016614834 0.072134987 13618628
0.40271434 -0.011851217 0.071224347 13027007
0.38661993 -0.0052660615 0.076444454 12763832
0.39235714 -0.0038778882 0.071949355 12632504
0.40360001 -0.0072412258 0.071673214 12105907
0.3881039 0.0042465739 0.077124201 13093053
0.39132735 0.0053088358 0.072468512 13224639
0.38890907 0.012251809 0.078445703 13027260
0.3920179 0.015221909 0.074030757 13224639
0.39432549 0.024949634 0.074966483 13553604
0.39716023 0.034717813 0.075330995 13553603
0.40000007 0.037741922 0.070836753 13750982
0.39876479 0.041039556 0.077023931 13422016
0.40061307 0.045311067 0.074575379 13487809
0.40450928 0.054590046 0.075075947 13619395
0.40817523 0.063679308 0.074992679 13882053
0.40999994 0.068759747 0.074847251 13881797
0.41212597 0.074811392 0.07490664 13881797
0.41361529 0.081942126 0.075182207 13815234
0.45899984 -0.091861524 0.084437117 11446171
0.46000001 -0.094211578 0.08693634 11577757
0.45542037 -0.084754951 0.084529527 11446170
0.44640985 -0.07387308 0.084717654 11380377
0.45038462 -0.07868772 0.085709892 11380634
0.43741027 -0.063060999 0.084393822 11314841
0.44184849 -0.067596011 0.085709751 11314841
0.42578796 -0.052697368 0.085459918 10985876
0.43184099 -0.057649795 0.085498206 11117462
0.40900001 -0.04056026 0.082803234 10985876
0.41496235 -0.04480166 0.084986068 10985876
0.42090914 -0.048594501 0.087230533 10985876
0.39772221 -0.030959887 0.085380822 11314330
0.40461254 -0.035818119 0.084954001 11182999
0.38694736 -0.02246199 0.085458763 10854295
0.39276662 -0.027310323 0.084771059 11511709
0.37880003 -0.012174354 0.088719331 1976095
0.38222513 -0.015466662 0.084501378 2632998
0.37861767 -0.0062377676 0.088304251 2107169
0.38184473 -0.0047598123 0.083835907 2896171
0.38484901 0.0045810104 0.084997304 12501174
0.38765359 0.014614795 0.084868751 13027260
0.39000002 0.019299267 0.080326125 13356225
0.38899997 0.020588981 0.08579839 13224638
0.39196181 0.025599463 0.084774114 13290431
0.39588892 0.034838658 0.085064374 13224637
0.39869705 0.04119755 0.084917679 13224637
0.4003177 0.046437938 0.08509694 13355966
0.40401042 0.054986671 0.084944151 13684931
0.40820432 0.064356454 0.085215658 13947847
0.41000006 0.069102541 0.082662903 14079689
0.40900001 0.07002826 0.089984313 13947590
0.41152319 0.07489448 0.084891655 13947847
0.41278571 0.081767015 0.08494772 13552062
0.46071428 -0.09129595 0.096125305 11380379
0.45732203 -0.0844917 0.094663456 11446427
0.46018183 -0.088581055 0.097132094 11446171
0.44826323 -0.072899915 0.094757654 11380634
0.45185715 -0.077621043 0.095516182 11380634
0.43805003 -0.061645292 0.093760349 11380377
0.44352633 -0.066733427 0.095286228 11380378
0.42705882 -0.052116428 0.094866924 11248536
0.43202505 -0.056680195 0.094742157 11314585
0.41515693 -0.042751361 0.094861902 11445659
0.4225001 -0.047915369 0.095375553 11314073
0.39435005 -0.030986616 0.095296971 11643038
0.40587768 -0.036196444 0.094511926 11642782
0.41012505 -0.039231665 0.096472979 11511453
0.37900001 -0.020283887 0.099354416 3420197
0.38530612 -0.024014145 0.095100015 10656656
0.39131579 -0.028706582 0.09370856 11577246
0.37686977 -0.014306989 0.095529005 2041632
0.38073689 -0.018688599 0.092349768 1975580
0.37661588 -0.0052851476 0.095076524 2172704
0.38000003 -0.00076649763 0.090720698 2369823
0.37849998 0.00034441476 0.097338237 11316638
0.38285583 0.0049880147 0.09462826 12040622
0.38651246 0.014677689 0.094898462 12829881
0.3889333 0.020915862 0.095280662 13027259
0.39165547 0.02608023 0.094755583 13093051
0.39565417 0.034856439 0.094966985 13224637
0.39830005 0.041506685 0.095554247 13290430
0.4003768 0.046439063 0.094906174 13356224
0.40396181 0.054582685 0.094981328 13684931
0.40753368 0.064612791 0.095102943 13947847
0.40891513 0.072580263 0.096319683 13948103
0.41062489 0.076601557 0.094109684 13816518
0.41176197 0.081104726 0.093893349 13618886
0.46250004 -0.091069706 0.10148449 11248794
0.45807308 -0.083027601 0.10546452 11248794
0.46083343 -0.087884076 0.10408568 11380636
0.44878951 -0.071186803 0.10399227 11248537
0.45305365 -0.076186351 0.10537822 11183001
0.44503081 -0.065292262 0.1053961 11379866
0.42710003 -0.051605303 0.10391722 11511708
0.43378726 -0.055938426 0.105526 11445916
0.44000003 -0.059600253 0.10813516 11511707
0.40266669 -0.040717602 0.10807052 11840417
0.41527781 -0.042702213 0.10373066 11709086
0.42266676 -0.047540028 0.10521773 11643293
0.39469808 -0.032272153 0.10493281 11511966
0.4030714 -0.037481233 0.1048613 11709087
0.37804171 -0.020749575 0.10551671 6184020
0.38391873 -0.025041718 0.10473109 11051928
0.39000002 -0.029089576 0.10269455 11446173
0.37263575 -0.014630631 0.10515126 2041373
0.37243575 -0.0051990072 0.10507037 1975838
0.37700006 0.002031103 0.10562978 11711658
0.38188308 0.0071394574 0.10490184 12369586
0.38493696 0.014676237 0.10488611 12895673
0.38816136 0.022171363 0.10515414 13159101
0.39152384 0.027277881 0.10445372 13224637
0.3959181 0.034894608 0.10508505 13290430
0.39873537 0.041503277 0.10425445 13290173
0.40016854 0.046621092 0.10536617 13487295
0.40314952 0.05536272 0.10496815 13816261
0.40646973 0.065206431 0.10490314 14013384
0.40826467 0.075017244 0.10527448 13882312
0.41000003 0.079317741 0.10124222 14277328
0.40900001 0.080560498 0.10674015 13947593
0.41000003 0.080757469 0.10220204 14079950
0.45759377 -0.081801616 0.11413505 11051670
0.45495012 -0.075283982 0.11472549 11117206
0.44646034 -0.064732529 0.11473168 11445914
0.4508889 -0.069168113 0.11714681 11380634
0.42757145 -0.050910078 0.11622796 11840673
0.43373081 -0.055091001 0.11497989 11709343
0.44000003 -0.05960026 0.11380043 11578013
0.40650001 -0.041408289 0.1149954 11840417
0.41380006 -0.044754978 0.11790541 11840673
0.42368183 -0.048241917 0.11412731 11840672
0.38737038 -0.03148165 0.1160534 11511964
0.39360002 -0.034023475 0.11425475 11577502
0.40225923 -0.038308695 0.114489 11774625
0.37702861 -0.021592824 0.11492328 8091761
0.38305682 -0.02659337 0.11495276 11183257
0.3682549 -0.013480011 0.11526477 1712154
0.37154549 -0.018199606 0.11429123 2041118
0.36831301 -0.0053463206 0.11568417 2107168
0.37063634 -0.0027956818 0.111359 2173477
0.36866668 0.00011941811 0.11908421 11645348
0.37775004 0.0030553632 0.114271 11514023
0.38076192 0.0069487961 0.11506437 12040622
0.38317063 0.015206723 0.11528347 12961723
0.38745826 0.022932386 0.1151729 13356482
0.39076757 0.02799738 0.1141163 13422274
0.39399996 0.034946475 0.11508308 13422017
0.39780265 0.04348442 0.11572471 13422016
0.40011102 0.047816876 0.11369276 13553345
0.40289712 0.055178847 0.11502144 13750467
0.40592077 0.065234721 0.11501143 13487296
0.40784049 0.075082093 0.11503107 13487040
0.40800002 0.080363527 0.11316513 13158078
0.45900002 -0.080440864 0.12086359 11577756
0.46000001 -0.080616117 0.12435751 11577500
0.45752701 -0.075400233 0.12489086 11445915
0.44670275 -0.064020634 0.12399417 11643294
0.45224008 -0.068671949 0.12571032 11577245
0.42428574 -0.05080479 0.12454876 11774881
0.43522501 -0.055856645 0.12484218 11643294
0.44000003 -0.05960026 0.12616099 11643294
0.40507898 -0.042047717 0.12614059 11906210
0.41403124 -0.046001349 0.12434115 11840674
0.42100003 -0.048860807 0.12345331 11774881
0.38593879 -0.031981144 0.12561338 11511709
0.39387241 -0.036252439 0.12516473 11708832
0.40066668 -0.03895247 0.12285258 11774881
0.37660003 -0.022929266 0.1252615 9078910
0.38149998 -0.027301347 0.12452377 11117464
0.36640751 -0.01395813 0.1256842 1778203
0.37080762 -0.019145207 0.12454973 1909020
0.36608341 -0.0052767661 0.1252436 1974810
0.36830771 0.0003850974 0.12361057 11118489
0.37695086 0.0055919485 0.12619774 11579813
0.38032359 0.0082415007 0.12261326 12106158
0.37900004 0.011065464 0.12922503 12501173
0.38161114 0.015395243 0.12501341 12830138
0.38600811 0.024962721 0.12512781 13356225
0.39000002 0.029342232 0.12049799 13487809
0.38873914 0.030909494 0.12679376 13422016
0.3926602 0.035830561 0.124645 13487809
0.39669985 0.045175388 0.12497898 13553603
0.3989231 0.050846476 0.1267744 13750726
0.40204054 0.055754215 0.12469871 13882054
0.40523201 0.065153994 0.12491194 13816004
0.40807742 0.07490588 0.12496151 13158586
0.40900001 0.080560498 0.12445346 10000524
0.45798028 -0.073350362 0.13487843 11445915
0.46015796 -0.077922404 0.1350318 11314586
0.43900001 -0.060492504 0.13820675 12103844
0.44451615 -0.06270238 0.13414188 11709086
0.45272422 -0.067941137 0.13494311 11577501
0.41800001 -0.05074897 0.13893458 11906466
0.42525002 -0.051548619 0.13545181 12103590
0.43528304 -0.056681685 0.13455839 11972258
0.44000003 -0.059600256 0.13131124 11709086
0.39900002 -0.040346961 0.13433184 11774882
0.40373683 -0.0429819 0.13424094 11840418
0.41292855 -0.047652941 0.13704045 11906211
0.42166671 -0.049219877 0.13258636 12103590
0.38448387 -0.032695208 0.1359015 11446173
0.39419568 -0.037894312 0.13520719 11709345
0.37682563 -0.024812229 0.13550232 9408132
0.38052177 -0.028615285 0.13340853 11117978
0.36568752 -0.015082689 0.13310936 1646616
0.37090904 -0.015709287 0.13836016 922381
0.36512896 -0.0043759537 0.13365453 2106394
0.37053844 -0.006752844 0.13864014 725257
0.36557901 0.0012456797 0.13772421 10066575
0.377446 0.0071413396 0.13475721 11316899
0.37837505 0.01386309 0.13594849 12369587
0.38066649 0.017817406 0.13331893 13027517
0.38383597 0.025176352 0.13515331 13356482
0.38795581 0.032917887 0.13555634 13487811
0.3913621 0.037613697 0.13411956 13487811
0.39484745 0.044967614 0.13493009 13487810
0.39769819 0.052373365 0.13622345 13619396
0.40079024 0.056851551 0.133892 13685189
0.40412492 0.064876378 0.13517958 13684932
0.4077372 0.074777737 0.13488968 13158332
0.45438468 -0.072105274 0.14525713 11577500
0.43870005 -0.060862251 0.14601828 11840929
0.4446305 -0.064806394 0.14558336 11840928
0.45177272 -0.068840481 0.14381102 11709342
0.41669229 -0.051491857 0.14566067 11512221
0.42184618 -0.054179292 0.1448417 11643806
0.43510526 -0.058243066 0.14375447 11906466
0.40675864 -0.043345477 0.14505628 11380634
0.41248831 -0.047681239 0.14526834 11380379
0.3788 -0.030559618 0.14222129 10262928
0.38300002 -0.033312831 0.14094086 11249309
0.39300001 -0.038745888 0.14096773 11577758
0.36261111 -0.021339145 0.14872347 2632745
0.37533876 -0.024051474 0.14246559 8158324
0.36409092 -0.018943695 0.14859329 1054736
0.37344158 -0.014534335 0.14471222 725514
0.3681429 -0.0019748921 0.14610188 1643532
0.37233704 -0.0065928488 0.14529714 593415
0.36525005 0.00054437667 0.14300245 7299419
0.37671423 0.0080934437 0.14228128 10856092
0.3781001 0.014729802 0.14284416 12040624
0.38000005 0.019516084 0.14418489 11514280
0.38234153 0.024989227 0.14303742 12566967
0.38771829 0.035186842 0.14363576 12698553
0.39000005 0.039124344 0.14201865 13224640
0.38900003 0.040498421 0.14811581 9606029
0.39287636 0.044606425 0.14385691 12830138
0.39739436 0.053580686 0.14423153 13093054
0.39999998 0.058381896 0.14524212 13027260
0.40296939 0.064682461 0.14471854 13158590
0.40648451 0.07330399 0.14378585 13158333
0.44900003 -0.070279412 0.15449394 11774879
0.45500001 -0.07334888 0.15016747 11446427
0.43833336 -0.060743213 0.1508237 11578013
0.44530001 -0.064943783 0.15399384 11182743
0.45085716 -0.06755586 0.15875183 9801093
0.40899998 -0.04268039 0.15071566 10065289
0.41100004 -0.046740066 0.15076442 10262669
0.36118183 -0.021713214 0.15486798 2172961
0.359 -0.012719302 0.15928262 923407
0.36203855 -0.014656199 0.15458111 1054991
0.37207693 -0.011873952 0.15053749 528135
0.35900003 -0.0099688191 0.15966463 726029
0.36339083 -0.0053823628 0.15446247 1053709
0.37071434 -0.0083105937 0.15049267 396549
0.36487502 0.00043803151 0.15223719 4466723
0.40100002 0.05927103 0.15018161 11579814
0.40340003 0.064731523 0.15032384 10658712
0.45183337 -0.065612055 0.16111068 8683638
0.34508568 -0.021744497 0.16817322 1383700
0.35900003 -0.020053925 0.16806889 264965
0.36163643 -0.021988964 0.1648542 923151
0.34562019 -0.014726963 0.16771726 923150
0.35586736 -0.014371738 0.16459996 1054737
0.36059374 -0.018033549 0.16303775 1120785
0.34564483 -0.0061162873 0.16803488 988943
0.35563093 -0.006539796 0.16496633 922896
0.36026096 -0.0055295345 0.16150807 857102
0.34900001 0.0001130477 0.16910641 1317653
0.35139999 0.00077258761 0.16911754 527885
0.33774194 -0.022055583 0.17803222 1252115
0.34147227 -0.022983532 0.17328946 1777945
0.33761531 -0.014906471 0.17781253 1121044
0.34144589 -0.015077076 0.17303221 1186579
0.33768615 -0.006618564 0.1782074 1054994
0.34154081 -0.006031197 0.17312011 1120531
0.35125002 0.0013480783 0.17060748 1449493
0.33342525 -0.022348734 0.18355794 1252115
0.33373064 -0.014733501 0.18396233 1186578
0.33419701 -0.005739199 0.18395114 1054993
0.78900003 -0.13088591 0.27794737 13881801
0.79223073 -0.1354194 0.27501628 10723226
0.78725004 -0.1273732 0.27825004 13947851
0.78869236 -0.13197152 0.28557885 12829113
0.79100007 -0.13689041 0.28478467 9736587
0.78608 -0.12532611 0.2850512 13948106
0.78336841 -0.11508919 0.28682253 14014155
0.78375 -0.10677201 0.28787217 13816776
0.78400004 -0.089678593 0.28995118 13685192
0.78854555 -0.13198592 0.29498842 12697528
0.79106677 -0.13690962 0.29552764 9407366
0.78596431 -0.12466884 0.29494905 13816521
0.78414297 -0.11513319 0.29551154 13948362
0.78461283 -0.10485628 0.29497799 13816776
0.78513324 -0.095322356 0.2949653 13750983
0.78484207 -0.086196609 0.29712906 13619398
0.78500003 -0.076929092 0.29950953 13290434
0.78845459 -0.13163501 0.30502224 12960189
0.79125005 -0.13693392 0.30525032 9210244
0.78537941 -0.12477422 0.30516642 13750728
0.77900004 -0.1146378 0.30998585 14013387
0.78256673 -0.11516269 0.30498949 13882313
0.78382868 -0.10538495 0.30535123 13750727
0.78511995 -0.095320188 0.30506974 13685190
0.78539985 -0.085242063 0.30517924 13422018
0.78535998 -0.075124517 0.30516273 13421506
0.7863332 -0.065399744 0.30595031 13355970
0.78700012 -0.057473022 0.30825624 13356227
0.78826314 -0.13309608 0.31522453 10920862
0.7906 -0.1378148 0.31478626 9012864
0.77900004 -0.1210206 0.31636864 13750728
0.78284001 -0.12510437 0.31436908 13750473
0.77792597 -0.11488388 0.31522214 13947850
0.78050005 -0.11485621 0.31058273 14013387
0.77900004 -0.10855898 0.31697652 13882057
0.78165519 -0.10423604 0.31457373 13750471
0.7841 -0.095194928 0.31476533 13618884
0.7851944 -0.085219488 0.31520629 13421763
0.7852999 -0.075119376 0.31524938 13487813
0.78599972 -0.065282129 0.31525913 13487813
0.78663641 -0.057166968 0.31386054 13487813
0.79323077 0.15545528 0.31507939 9672074
0.79238456 0.16513538 0.31545639 9738123
0.79243994 0.17463836 0.31533432 9803660
0.79307133 0.184723 0.31532052 9869454
0.79330003 -0.14460436 0.32514429 9211012
0.78761899 -0.13329372 0.3247413 10657689
0.79000002 -0.13844942 0.32545948 9078400
0.77900004 -0.1210206 0.3227514 13816778
0.78238094 -0.12508199 0.32580841 13618887
0.77815014 -0.1149676 0.32303861 13751242
0.78016669 -0.11420003 0.32840958 13816779
0.77900004 -0.10855896 0.32153562 13816778
0.78167856 -0.10444255 0.32549646 13816778
0.78288019 -0.095047653 0.32435992 13750471
0.78366685 -0.085052848 0.32468435 13816521
0.78412008 -0.075007118 0.32487163 13619399
0.78420591 -0.064594112 0.32490501 13356484
0.78428566 -0.058498822 0.32493669 13224898
0.79300004 0.17476101 0.32483894 9672844
0.79268003 -0.14448996 0.33509937 9079170
0.78822732 -0.13352729 0.33487821 9868432
0.79000002 -0.13844942 0.33470649 8749694
0.78424996 -0.12451678 0.33540896 12961214
0.78303713 -0.11482257 0.33563 13027264
0.78433329 -0.10493851 0.33475605 12962241
0.78557682 -0.095163099 0.3348161 13224641
0.78534472 -0.085077412 0.33444789 13290177
0.78531998 -0.075122364 0.33456433 13290177
0.78500021 -0.065683112 0.33450207 13290434
0.79283321 0.18493159 0.33405128 9673102
0.79295999 0.19517244 0.33410418 9607565
0.78866673 -0.13236964 0.34445068 8750464
0.79053849 -0.13683611 0.34532768 9079426
0.78731823 -0.12533027 0.34513405 10000530
0.78687501 -0.11487404 0.345359 11908528
0.78789997 -0.1052485 0.34405574 11844021
0.79020005 -0.1037063 0.34922034 8225150
0.78853339 -0.095365793 0.3429465 13027779
0.79049999 -0.094678298 0.34750265 9606801
0.78854555 -0.084492616 0.34264967 12895936
0.79055554 -0.085081831 0.34707478 9869459
0.78850007 -0.075426191 0.34237808 13093058
0.79049999 -0.074692212 0.34694758 9737874
0.78855562 -0.066611327 0.34250477 13224644
0.79079998 -0.064538546 0.34707943 9408908
0.79200006 -0.059074219 0.34853247 8158585
0.79290891 0.13508749 0.34471214 9540488
0.7930001 -0.1353534 0.35489854 9474696
0.78900003 -0.12386708 0.35127577 9145474
0.79082352 -0.1254167 0.35563928 9211523
0.78900003 -0.11680205 0.35159901 8948096
0.79105884 -0.11466847 0.35596314 9079937
0.79333335 -0.058554858 0.35561904 8882560
0.79174995 0.221286 0.357687 3156255
0.79251724 0.21456908 0.36469153 7434601
0.78875005 0.22160137 0.36210468 3287840
0.79000002 0.22033498 0.36707106 3024923
0.79263878 -0.074894868 0.38499609 9212038
0.79306674 -0.064722821 0.38520247 9146502
0.79266649 -0.074899442 0.39521775 9277318
0.79185712 -0.06550771 0.39507756 9211525
0.79137498 0.13781397 0.39758354 9278088
0.78766674 0.22521371 0.39886925 2761751
0.79075003 0.22100651 0.39842489 2695454
0.79255879 -0.074672244 0.40509304 9145989
0.7913183 -0.065675683 0.40481558 9145989
0.79230011 0.13769735 0.40542179 9080709
0.79184836 0.17501163 0.40525424 9278345
0.79163647 0.18507409 0.40463984 9344138
0.7927354 0.19522783 0.40468735 9409418
0.79222864 0.21432687 0.4046917 7565930
0.78777272 0.22390155 0.4043431 2695959
0.79000002 0.22033496 0.40436736 2892826
0.79153848 0.1379495 0.41531724 9146502
0.79157573 0.14496548 0.41494033 9212295
0.79100019 0.15469053 0.41502872 9278088
0.79096013 0.16505338 0.41473418 9278088
0.79073358 0.17518587 0.4146156 9278088
0.79020017 0.18524322 0.41433665 9343881
0.7907601 0.1946317 0.41463065 9343881
0.79234612 0.20443961 0.41524771 9343882
0.79244435 0.21421212 0.41441396 8289654
0.79000002 0.22033498 0.41145676 2695959
0.78875005 0.13827957 0.42465311 9146502
0.79000002 0.13896121 0.42162848 9212295
0.78886658 0.1428251 0.4259477 9146502
0.79000002 0.14672872 0.42403269 9212295
0.79055572 0.15448353 0.42521575 9146502
0.79211998 0.1652959 0.42461672 9277831
0.79238468 0.17483847 0.42461574 9343881
0.79193109 0.18488179 0.42464289 9343624
0.79211992 0.19496562 0.42461598 9409161
0.79292005 0.20444351 0.42504355 9343624
0.78633338 0.1377029 0.43317142 9146501
0.78874987 0.14428164 0.43450239 9146501
0.79000002 0.14820823 0.43549901 9278087
0.7917878 0.15528829 0.43505198 9146501
0.79308552 0.18512346 0.43521094 9278088
0.79299992 0.19518174 0.43529642 9278088
0.79245442 0.20482834 0.43524849 9343367
0.79318178 0.21514681 0.43514061 8223858
0.78900003 0.14340296 0.44141248 9212295
0.79000002 0.14652696 0.44398946 9146502
0.79110026 0.15489797 0.44443873 9080709
0.79296553 0.16560125 0.44471562 9146502
0.79295999 0.19517142 0.44548413 9212297
0.79209989 0.20515759 0.44500068 9343112
0.79194993 0.2146686 0.44426766 8750460
