# .PCD v0.7 - Point Cloud Data file format
VERSION 0.7
FIELDS x y z rgb
SIZE 4 4 4 4
TYPE F F F U
COUNT 1 1 1 1
WIDTH 719
HEIGHT 1
VIEWPOINT 0 0 0 1 0 0 0
POINTS 719
DATA ascii
0.81216669 0.20845644 -0.20537478 7434086
0.81600004 0.21135041 -0.20825517 5262402
0.82140005 0.21697971 -0.20636503 5327938
0.81174999 0.2092983 -0.19672312 4933954
0.81550002 0.21504202 -0.1919055 5393988
0.82150006 0.21854261 -0.19523701 5525573
0.82700002 0.22097439 -0.19848076 5459011
0.55375004 -0.096392021 -0.011044467 14540758
0.56506246 -0.092489518 -0.013009383 14606551
0.57066673 -0.091103934 -0.015612264 14606293
0.56823075 -0.087098278 -0.011691849 14606294
0.57271433 -0.083844148 -0.014106413 14276814
0.57684213 -0.077494159 -0.013176531 13093053
0.58213335 -0.072945312 -0.013110545 12566709
0.583 -0.069416642 -0.010944831 12500916
0.51900005 -0.1031059 -2.3433615e-05 14606551
0.52514291 -0.10115985 -0.00090560585 14409172
0.53366667 -0.1006025 -0.0037775282 14343379
0.54250002 -0.10078652 -0.0070124334 14211536
0.52733332 -0.098586589 -2.3809875e-05 14409172
0.53537035 -0.095487259 -0.001745081 14474965
0.54448277 -0.095112018 -0.0056130779 14540758
0.55291671 -0.093228303 -0.008116303 14540758
0.56 -0.090931028 -0.0092020743 14606551
0.53866673 -0.08809673 -2.4321593e-05 14474965
0.54507697 -0.085460119 -0.0018445726 14474965
0.55394125 -0.084950037 -0.0050643967 14540758
0.56390005 -0.084032312 -0.0080818413 14540758
0.57100004 -0.080018319 -0.00938283 14540501
0.54800004 -0.078718305 -2.4743007e-05 14540758
0.55492312 -0.077260584 -0.0014264249 14540758
0.56594741 -0.076092578 -0.0043495358 14606550
0.57526928 -0.073874824 -0.0068649882 14606550
0.58033335 -0.070910297 -0.0090836016 12895161
0.56850004 -0.068355009 -2.5668611e-05 14803928
0.57487881 -0.065635696 -0.0029308759 14146255
0.58100003 -0.066761009 -0.0080366768 12172208
0.57625002 -0.056129452 -0.00070081692 12501174
0.49300003 -0.11063601 0.009210716 14802901
0.49686959 -0.10603515 0.0078642527 14343379
0.50422728 -0.10268793 0.0063028769 14343379
0.51490915 -0.10174198 0.0027119115 14474965
0.52100003 -0.10045287 0.0011961465 14409172
0.50599998 -0.098281629 0.0087936874 14474965
0.51520586 -0.095429666 0.0068885931 14540758
0.52403337 -0.094245225 0.0034482246 14540758
0.53120005 -0.092097752 0.0014681803 14540758
0.51716667 -0.08801043 0.0092580048 14540758
0.52491307 -0.086053021 0.0076151425 14540758
0.53480488 -0.084617935 0.0044290964 14409172
0.541875 -0.081324682 0.0020359219 14474965
0.53500003 -0.078976519 0.0087396782 14474965
0.54503042 -0.076835774 0.0054632341 14474965
0.5528751 -0.072889239 0.0043935128 14474965
0.56033331 -0.071090005 0.0017234405 14474965
0.55605888 -0.067198098 0.0076316744 14343379
0.5640977 -0.064487055 0.0044103591 14738137
0.57100004 -0.060634691 0.0013109398 14738137
0.56738102 -0.056737728 0.0075618434 14869723
0.57233328 -0.054576289 0.0048856144 14738137
0.58200002 -0.050903022 0.0013361942 11777193
0.57647628 -0.046849336 0.007555414 14014157
0.58249998 -0.044359848 0.004515144 11645607
0.58000004 -0.03918805 0.0094783455 11185056
0.47293103 -0.11288423 0.017300885 14605521
0.48366669 -0.11193361 0.01280772 14276557
0.49150002 -0.11029939 0.010908021 14737878
0.46900001 -0.10579904 0.019741697 14803157
0.4734138 -0.10577668 0.018239856 14211534
0.48575005 -0.10497074 0.015212594 14803671
0.49352497 -0.10418856 0.012248746 14606293
0.47399998 -0.098440111 0.019633116 13685189
0.48568425 -0.095346354 0.018167779 14606292
0.49460465 -0.095214598 0.014777854 14343377
0.50382358 -0.093563043 0.011978549 14146000
0.51050007 -0.091258422 0.010732758 14343379
0.48800004 -0.089520469 0.019399051 14277584
0.49585184 -0.086073555 0.018332494 14080206
0.50446874 -0.085084327 0.015435696 13948364
0.51345837 -0.084468313 0.012444885 14343379
0.52260005 -0.081553794 0.011475016 14474965
0.49900001 -0.07927379 0.019836325 13882828
0.5038572 -0.0785271 0.018845854 13817035
0.51396292 -0.076120883 0.016325075 14146000
0.52377778 -0.075512066 0.013665061 14277586
0.53300005 -0.073445082 0.012725899 14343378
0.54357147 -0.072532259 0.010883263 14474965
0.49900001 -0.061167184 0.019836325 14080207
0.50150001 -0.064998619 0.019935705 14014414
0.514 -0.069623932 0.016822757 14146000
0.523 -0.069618672 0.015892968 14277586
0.54628575 -0.067044713 0.015871515 14277585
0.5525834 -0.064029418 0.013193478 14277585
0.56 -0.060123228 0.010462476 14014414
0.49900001 -0.059414931 0.019836325 14146000
0.5 -0.056607723 0.019876076 14080207
0.5555715 -0.058158878 0.015021473 14145999
0.56404883 -0.053589959 0.01398221 14277586
0.57000005 -0.050521817 0.010649307 14803928
0.56850004 -0.046576623 0.017456522 14277586
0.57350004 -0.043760192 0.013747545 14738136
0.56900001 -0.035114728 0.019954897 14606550
0.57300001 -0.035601914 0.015954109 14146000
0.56900001 -0.028454531 0.019954897 14738135
0.57062513 -0.027030377 0.018509248 12764089
0.46809524 -0.11279774 0.024865225 13880767
0.47000003 -0.115377 0.020884072 14801614
0.46527991 -0.10489848 0.024979752 14078403
0.45875004 -0.092300557 0.028258981 13946562
0.46329996 -0.095871568 0.024714747 14276040
0.47175002 -0.093715869 0.021513725 13553602
0.48200002 -0.091428012 0.020664643 14343118
0.4562501 -0.08498738 0.027767919 14408142
0.46394122 -0.086092271 0.024445167 13882312
0.47157145 -0.08690536 0.02331732 13290432
0.48585004 -0.085426025 0.022269703 14277582
0.49242857 -0.082510211 0.021795886 14277327
0.45517251 -0.076681867 0.028047042 13882569
0.46387503 -0.073953204 0.027268007 13487811
0.47372732 -0.071728155 0.027597725 13488068
0.48522228 -0.074756049 0.024774676 14145999
0.49529412 -0.075820051 0.022275144 13882827
0.50336367 -0.073752463 0.020651015 13751242
0.47406247 -0.067403391 0.02882945 13488068
0.48392311 -0.06406007 0.028297443 13948620
0.49658343 -0.064116128 0.024091287 13751242
0.50240004 -0.068290032 0.020675192 13882828
0.48633337 -0.057905957 0.029579433 13882826
0.49640754 -0.055618294 0.026178215 13685449
0.50050002 -0.053049803 0.023020627 13817035
0.49800003 -0.049969248 0.029123189 13553863
0.50585711 -0.048470121 0.026786163 13619656
0.51091677 -0.045982599 0.026788222 13553863
0.56788892 -0.043539505 0.021836085 13751242
0.55500001 -0.033601113 0.027259504 13619656
0.5672164 -0.03427384 0.023869978 13882828
0.56629419 -0.025939159 0.026090344 13948620
0.57255006 -0.022795964 0.022490766 13356226
0.56900001 -0.01913026 0.02861315 13751240
0.57484376 -0.015579384 0.026675113 12698552
0.57600003 -0.0092524076 0.028290946 10132368
0.4652501 -0.11157887 0.033015631 12827824
0.46366253 -0.10493146 0.034529574 12959409
0.45731577 -0.093675293 0.034967426 12367272
0.46045002 -0.098481216 0.035011955 12301222
0.44855183 -0.082159415 0.036549676 12498859
0.4517045 -0.085871138 0.034322068 13091252
0.44538963 -0.074947 0.035528004 14013384
0.4517273 -0.07569351 0.030838691 14277071
0.46900001 -0.070116073 0.030721072 13619654
0.43853852 -0.063272163 0.039465252 14409170
0.44368869 -0.065613799 0.035829708 14145999
0.45430002 -0.064195953 0.033264082 13619654
0.46637505 -0.063181959 0.032454424 13422275
0.4722001 -0.064070769 0.030928109 13356482
0.43850011 -0.055804193 0.039501272 13882828
0.44312504 -0.057303876 0.037707839 13685448
0.45700002 -0.053863939 0.037961211 13488068
0.46441308 -0.054586388 0.035377208 13356482
0.47358343 -0.055361886 0.032129183 13882826
0.48487502 -0.053190939 0.032042447 14277584
0.49157146 -0.052936729 0.030883592 14145999
0.4578 -0.048079021 0.039203085 13356483
0.46380004 -0.049143177 0.037540693 13356482
0.47475001 -0.047634594 0.035263561 13619654
0.48308334 -0.047243278 0.033619594 14211791
0.49200001 -0.040728852 0.033379432 13422277
0.50200003 -0.048020229 0.0305323 13619656
0.48270002 -0.035101481 0.039076246 13356483
0.51500005 -0.039618786 0.032528605 13290691
0.54500002 -0.021944523 0.038244795 13290691
0.5546087 -0.023754206 0.033668313 13290691
0.56044447 -0.024016002 0.03044226 13488069
0.54700005 -0.017103625 0.039031677 13159104
0.5549286 -0.016059387 0.037272383 13224896
0.56473339 -0.014616678 0.034562964 13290689
0.57200009 -0.012399095 0.031708308 13685446
0.56681818 -0.0051806266 0.037847605 13356482
0.57170826 -0.0057853837 0.033540286 13553861
0.56699991 0.0040017683 0.038199574 13027518
0.56166667 0.013985357 0.039420795 10132371
0.43188891 0.076084085 0.039074723 12566192
0.43300003 0.080219463 0.039513223 13355453
0.46368268 -0.10373119 0.044673238 13091252
0.45728001 -0.093312323 0.044727955 11774879
0.46068183 -0.09823706 0.045764934 12169637
0.44842866 -0.08181379 0.044970859 11709086
0.45268092 -0.086800598 0.045099955 11774879
0.4386667 -0.0710584 0.046362001 12630189
0.4431324 -0.075655267 0.044800363 12038052
0.42880002 -0.060893781 0.048364799 13947591
0.43439075 -0.065150253 0.044655018 13881284
0.44000003 -0.069900736 0.040152002 14408141
0.42664102 -0.054924462 0.048430808 14211277
0.432942 -0.055028506 0.043581415 14277584
0.42641664 -0.04552941 0.048419006 14080205
0.43300003 -0.045574732 0.044826917 13685449
0.44314289 -0.046537358 0.041326046 13159105
0.45300004 -0.046870273 0.040630545 13290691
0.42750001 -0.037460279 0.049017332 13422277
0.43272343 -0.035235006 0.046634715 13159105
0.47900003 -0.03012123 0.044271603 13356481
0.48124999 -0.033010777 0.041872833 13553861
0.43333337 -0.028601483 0.04884294 13093825
0.47872728 -0.025281088 0.046571959 13356482
0.4802143 -0.02120373 0.046069615 13093311
0.48212504 -0.016909411 0.047735292 12830140
0.52866668 -0.013856135 0.046179246 12895934
0.53460878 -0.01369899 0.043993305 13027776
0.54350001 -0.011272699 0.041324079 13094082
0.55200005 -0.010159133 0.040034577 13159105
0.528 -0.0060092583 0.049418457 12764093
0.53790009 -0.0061215805 0.046880938 12895678
0.54412502 -0.0049170218 0.044500422 12961727
0.55471432 -0.0027910697 0.042451385 12961983
0.56066662 -0.0020049002 0.041100129 13159361
0.53900003 0.00017459231 0.049186204 12764093
0.54507148 0.0027321146 0.048187654 12698300
0.55480009 0.0052212332 0.045999173 12698299
0.56156009 0.0054934826 0.042250331 13028289
0.55696011 0.014471295 0.048004862 12500920
0.56072223 0.01538602 0.043254446 13225156
0.55620003 0.022575278 0.049192451 12632507
0.56100005 0.021632468 0.042876165 13817037
0.41620001 0.047878005 0.048696853 12039853
0.41800007 0.053566091 0.047538675 12500659
0.42085004 0.057723843 0.047024693 12763574
0.42477494 0.065400377 0.046035282 13027003
0.43000001 0.069597282 0.041252732 12105388
0.42519233 0.074672461 0.046316799 14013384
0.43033341 0.075864933 0.041552685 12961464
0.42496777 0.082355492 0.047212664 13750726
0.43055558 0.081445619 0.042200293 13750468
0.46308827 -0.10220289 0.05504404 13090740
0.45844999 -0.092956699 0.054447941 11906464
0.4608438 -0.097690269 0.055336736 12169636
0.44850001 -0.08122617 0.054228939 12038049
0.45429638 -0.086478703 0.055362336 11972257
0.43870598 -0.071145333 0.054292638 11116949
0.44259655 -0.075794399 0.055440415 11709086
0.42833331 -0.061446611 0.053210337 12893874
0.43413338 -0.06626907 0.055216756 11643038
0.41850004 -0.050973158 0.058110144 13157559
0.42297733 -0.055087719 0.054641616 13354682
0.41542506 -0.044655364 0.056546308 13882312
0.4213613 -0.045210138 0.051628657 14211791
0.40899995 -0.033894751 0.059050459 14014412
0.41416356 -0.035916504 0.056610867 14014413
0.42410418 -0.035223555 0.052884389 13685449
0.43062505 -0.031173674 0.052211888 13159105
0.40900001 -0.029070545 0.059345067 13685447
0.41262501 -0.027813561 0.05823848 13488070
0.42488238 -0.023494124 0.058776863 13027520
0.43257144 -0.026047515 0.054864787 13027519
0.47814289 -0.021911556 0.050987523 12961726
0.42466667 -0.017929053 0.058963358 13027264
0.42999998 -0.019657923 0.057023391 13027519
0.46900001 -0.011376425 0.059267446 12961726
0.47488469 -0.014925484 0.054739021 12830653
0.48153847 -0.013795768 0.050964192 13027519
0.46900001 -0.0097295186 0.059267446 12698554
0.47347063 -0.0085156988 0.056626853 12764605
0.48250008 -0.0056720632 0.054856941 12830142
0.4941667 -0.0013814904 0.055494931 12698300
0.51750004 -0.0064949095 0.050858662 12698300
0.52400005 -0.00105696 0.051497467 12632507
0.537 -0.0035974353 0.050260819 12764093
0.49675003 0.0016152641 0.057240918 12566714
0.50318187 0.0057000662 0.056871615 12369335
0.51336372 0.0082523776 0.0539441 12171956
0.52500004 0.0057007126 0.05221026 12303542
0.53474998 0.0064249039 0.05160993 12369335
0.54133338 0.0052467734 0.050666403 12500921
0.40533337 0.017841876 0.05904929 11448488
0.50749999 0.012194587 0.05863627 11974577
0.51433343 0.016175266 0.057315763 11908784
0.52600002 0.014238896 0.054153763 12171956
0.53416675 0.014659637 0.053432059 12171956
0.54672724 0.015766786 0.051400885 12171956
0.55160004 0.016967516 0.050336014 12237749
0.40500003 0.025987105 0.058256824 12040367
0.51600003 0.022213677 0.057755757 11908784
0.537 0.021545097 0.055289324 12171956
0.54540002 0.022647629 0.055382587 12106163
0.55288011 0.024669036 0.052831758 12171956
0.40775004 0.034379266 0.058535419 12961468
0.41194448 0.037799764 0.056341019 12698296
0.40838888 0.045811143 0.058884051 13685190
0.41312948 0.045179874 0.054595947 12895675
0.40899998 0.052930467 0.059208281 14014155
0.41364738 0.055183113 0.054883983 13750983
0.42033336 0.058193401 0.050165426 13224637
0.41474003 0.065089658 0.055794477 14277069
0.42047623 0.064868137 0.050697487 13882567
0.41618201 0.0746262 0.055838238 14473935
0.42060012 0.075835131 0.050944977 14211277
0.41767645 0.08252921 0.056978259 13683905
0.42113638 0.08304102 0.05218536 14013641
0.46271425 -0.10159629 0.062651336 12630444
0.45833325 -0.093246512 0.065338887 12367015
0.46090001 -0.097715311 0.06277512 12432807
0.44900003 -0.080790579 0.065148979 12103844
0.45353734 -0.085816048 0.06490092 12235429
0.43900001 -0.070769578 0.062156443 11972258
0.44411772 -0.075398788 0.0652043 11972515
0.42899999 -0.060788374 0.062749177 11248791
0.43413329 -0.065380059 0.065158695 11248791
0.41792864 -0.05123058 0.064414307 11972516
0.42393219 -0.056053884 0.064624302 11446171
0.43000001 -0.05925234 0.069438584 10985363
0.40853336 -0.041789602 0.065619953 12565168
0.41267169 -0.04644727 0.064519465 12367275
0.39900002 -0.030694941 0.069102883 13158074
0.40489087 -0.03505813 0.064650968 13487040
0.3975642 -0.024930917 0.068565667 13684933
0.40408057 -0.025450243 0.064138301 13619655
0.41289476 -0.022448823 0.061025243 13158851
0.42100003 -0.021546138 0.060100675 13158851
0.39763638 -0.018148802 0.068949923 13553606
0.40524685 -0.015191791 0.066476054 13093057
0.41285184 -0.016512901 0.062117007 12961472
0.42100003 -0.018096652 0.060100675 12961472
0.39266667 -0.0017132381 0.069384091 11908525
0.40611115 -0.0081090964 0.068642162 12369335
0.3933143 0.0056591597 0.068693995 12566710
0.4975 0.0065755388 0.062876008 12303542
0.50333333 0.0091978079 0.060856227 12171956
0.39644638 0.014748326 0.067711711 12961469
0.40147361 0.017468918 0.063020796 12237490
0.50581485 0.014290153 0.062910743 11843245
0.51050001 0.018391067 0.062270563 11843245
0.39763892 0.0243863 0.068581089 13619397
0.40214112 0.025317689 0.063790239 13093054
0.5149501 0.022956258 0.062120128 11777196
0.39900002 0.030486394 0.069102883 13816776
0.40272561 0.035113461 0.064715281 13685190
0.40409172 0.045037288 0.064732499 13816775
0.40682465 0.05475793 0.065025993 14014153
0.41000003 0.059641484 0.060449984 14343120
0.40853876 0.06279584 0.066504925 13948103
0.41090915 0.066683948 0.063712418 14145740
0.41345266 0.075263441 0.065009385 14276813
0.41641861 0.082566872 0.064883739 13947336
0.45826533 -0.09353786 0.074618012 11643806
0.45415074 -0.085455425 0.075001068 11380634
0.44486108 -0.074707538 0.074961893 11314841
0.45000002 -0.079917051 0.078462318 11314841
0.43562895 -0.064051256 0.074624412 11117462
0.44018182 -0.069086432 0.075299829 11183255
0.41800001 -0.050748974 0.071905978 11182999
0.4237451 -0.054141399 0.074962199 10985620
0.43045455 -0.059040431 0.076018743 10919827
0.40834999 -0.041547917 0.074259251 11248537
0.41387278 -0.045978457 0.075310715 11117206
0.39803454 -0.031360913 0.074621037 11775138
0.403 -0.036417101 0.074928686 11380380
0.38870001 -0.021531317 0.078601561 12631217
0.39338931 -0.025170213 0.074431837 12631218
0.38673496 -0.014702795 0.07699506 12566195
0.39335555 -0.016276773 0.07235273 13355969
0.40218753 -0.011928453 0.071123771 13093057
0.38666657 -0.0052568708 0.076412387 12829368
0.39168754 -0.0045772544 0.072191156 12764089
0.40326318 -0.0076719881 0.071377538 12106163
0.38815591 0.0042708521 0.077146433 13027259
0.39118189 0.0052736308 0.072425038 13158845
0.38895234 0.011919926 0.078072205 13027258
0.39184675 0.015335152 0.074095652 13224638
0.394508 0.024961418 0.075000741 13487810
0.39728025 0.034743354 0.07539621 13487811
0.40000007 0.037441794 0.070788726 13685190
0.39872229 0.041147951 0.077143379 13356223
0.40050015 0.045415882 0.074598543 13487809
0.40407532 0.054628965 0.074994966 13619139
0.4079861 0.063239992 0.075085022 13882054
0.41056255 0.068374321 0.074649476 13881541
0.41255429 0.074943565 0.074882001 13881540
0.41428947 0.082012117 0.075116388 14078150
0.45899987 -0.091671392 0.084277675 11380634
0.4601 -0.093882158 0.086794235 11643549
0.45526159 -0.0849948 0.084831364 11380635
0.44598529 -0.074162625 0.084579147 11314841
0.45027274 -0.079198696 0.085555367 11380634
0.43744448 -0.063326746 0.084722556 11314841
0.44103217 -0.067635439 0.085543603 11314841
0.42623532 -0.052840624 0.085087784 10985876
0.43162504 -0.057510085 0.085820317 11117462
0.40885714 -0.040614326 0.083253883 10919828
0.41536111 -0.044524089 0.085220121 10985620
0.42147374 -0.048471268 0.086033709 10920083
0.3978501 -0.031026453 0.085384481 11314330
0.40423378 -0.035817336 0.084887482 11117207
0.38700002 -0.022480994 0.085534833 10854294
0.39291525 -0.027287276 0.084650703 11445917
0.37899998 -0.012218017 0.089110762 1976095
0.38217086 -0.015361086 0.084661439 2567205
0.37875006 -0.0064897165 0.088722296 2041889
0.38191217 -0.0048457808 0.084187366 2764842
0.38544449 0.0045384145 0.085007854 12500917
0.38777989 0.014560863 0.084896289 13027260
0.39000002 0.018842768 0.080326125 13290432
0.38899997 0.020783519 0.086207181 13158846
0.39199051 0.025671806 0.084646523 13290430
0.39564484 0.034777962 0.085062876 13224637
0.39854008 0.041928295 0.084846884 13224637
0.40015927 0.047146052 0.085120454 13290430
0.40368816 0.054921653 0.084932931 13684931
0.40797034 0.064201862 0.085229389 13947847
0.41010004 0.068968609 0.082929373 14079177
0.41179797 0.074889377 0.084857546 14013383
0.41294289 0.081669286 0.084357642 13880770
0.45900002 -0.090111606 0.092925876 11577758
0.46108332 -0.091240488 0.096678056 11445915
0.45756602 -0.084440067 0.09440551 11446171
0.46021432 -0.088041745 0.0975587 11380121
0.44782865 -0.072854497 0.094306283 11446170
0.45264712 -0.077585839 0.095911577 11380121
0.43820006 -0.061563425 0.093639418 11380121
0.44298255 -0.066597208 0.095278904 11380378
0.42769229 -0.051542137 0.093094863 11117206
0.43276364 -0.055901352 0.095010385 11314328
0.4148182 -0.042867955 0.09514863 11380123
0.42279425 -0.048075482 0.094446972 11248536
0.39524007 -0.031075127 0.094307758 11511709
0.40518185 -0.036388468 0.094833359 11511708
0.41000003 -0.039219707 0.098362774 11643039
0.37900001 -0.020283887 0.099354416 3157540
0.38531917 -0.023879535 0.095236421 10590864
0.39120832 -0.02849379 0.093468159 11577245
0.37698326 -0.014187256 0.095626466 2041632
0.38069567 -0.018592922 0.09270636 1975068
0.37660122 -0.0053179758 0.095206052 2237984
0.38000003 -0.00076649763 0.09161029 2369311
0.37866667 0.00041840589 0.097345836 11251102
0.38320649 0.0049536666 0.094640695 11974828
0.38701651 0.014660377 0.09498442 12829880
0.38899997 0.020945488 0.094565064 13027260
0.39156809 0.026070852 0.094919734 13093052
0.39547175 0.034853697 0.09487576 13224637
0.39830002 0.041506916 0.095554359 13224637
0.40036106 0.046603728 0.094969928 13356223
0.40401927 0.054766297 0.094965637 13619395
0.40752861 0.064660236 0.095113941 13882311
0.40880024 0.073248304 0.096714899 13882310
0.41075793 0.076302201 0.093579493 13947847
0.41155562 0.080956563 0.094235219 13750212
0.46233335 -0.091126531 0.10099717 11183001
0.45838457 -0.082481444 0.10582998 11314585
0.46068293 -0.087235011 0.10427395 11380379
0.44883335 -0.07121665 0.10356431 11314329
0.45323223 -0.075630024 0.10530466 11248792
0.44430009 -0.065142997 0.10488323 11314329
0.42900002 -0.051080175 0.10744037 11774879
0.4355312 -0.05550183 0.10509285 11445915
0.44000003 -0.059600256 0.10762014 11380121
0.40500003 -0.040637642 0.10948868 11906465
0.41565719 -0.043019552 0.10418028 11708830
0.42203456 -0.04708793 0.1054204 11577500
0.39351028 -0.032029189 0.10462236 11577500
0.40385297 -0.037413884 0.10441002 11709086
0.37800005 -0.020673353 0.10552431 5789520
0.38413337 -0.025107998 0.10467679 11051671
0.39000002 -0.029089577 0.10086856 11511707
0.36900002 -0.011974174 0.10969047 1712409
0.37249991 -0.014686543 0.1049211 1975839
0.36900002 -0.0093826661 0.10969047 857100
0.37196442 -0.0050987746 0.10511474 1975584
0.3767609 0.0017375968 0.10561085 11646121
0.38182715 0.0070130955 0.10509126 12369329
0.38537186 0.014715252 0.10500283 12895672
0.38866672 0.021565625 0.10535496 13158844
0.39169621 0.026700726 0.10459466 13224637
0.39576346 0.034877729 0.10495092 13290430
0.39810947 0.04252249 0.10545526 13290173
0.40023199 0.047814813 0.10448528 13421760
0.40304625 0.055370495 0.10499137 13750468
0.40631315 0.065231621 0.10494532 13948103
0.40829134 0.075166747 0.10511979 13882054
0.40899998 0.080560498 0.10626141 13947849
0.41 0.080757469 0.10172213 14342351
0.4579429 -0.0820949 0.11373987 10985620
0.45498541 -0.074983992 0.11485872 11117206
0.44694442 -0.064501531 0.11451279 11380378
0.45081252 -0.068848893 0.11633439 11314328
0.42811114 -0.051309101 0.11690255 11840929
0.43420929 -0.055280343 0.11466289 11709087
0.44111115 -0.059521861 0.11449019 11643293
0.40737507 -0.041413791 0.11544207 11840672
0.41447064 -0.04456212 0.11606687 11774879
0.42321745 -0.048113637 0.11413238 11774880
0.38677782 -0.031399038 0.11547109 11511451
0.39288241 -0.033365544 0.11276963 11643293
0.40340003 -0.038479645 0.11418067 11774880
0.37666672 -0.021436427 0.11553011 7236452
0.38310233 -0.026657872 0.11483152 11183256
0.36831862 -0.013099062 0.11535062 1646616
0.37161905 -0.017840866 0.11444278 2041118
0.36834165 -0.0053560352 0.11548491 2106911
0.37042853 -0.0019228838 0.111601 2042403
0.36900002 0.00011952608 0.11876074 11316382
0.3777931 0.0034231292 0.11534912 11448228
0.3806164 0.0073875939 0.11471645 12106415
0.38290235 0.015254945 0.1152319 12961467
0.38758749 0.023347598 0.11545043 13356225
0.39095247 0.027955266 0.11370689 13422017
0.39406464 0.034977254 0.11504373 13356225
0.39777634 0.043470245 0.11515423 13487296
0.40012488 0.048487153 0.11479716 13684418
0.40267298 0.055191502 0.11504547 13750211
0.40498042 0.065146945 0.11492646 13552319
0.40750039 0.075021937 0.11493468 13487039
0.40857145 0.080612861 0.11229723 13092540
0.45900002 -0.080709495 0.12354991 11511963
0.45663518 -0.07519611 0.12516671 11380378
0.4465715 -0.063709393 0.12492494 11577757
0.45157143 -0.06853234 0.12491112 11446427
0.42500004 -0.051270571 0.12488687 11709086
0.43448839 -0.056309849 0.12525548 11577757
0.44000003 -0.059600256 0.12307087 11775392
0.40554354 -0.042449877 0.12640049 11906465
0.41403997 -0.045854341 0.12318665 11774879
0.42200002 -0.048864562 0.12227948 11774879
0.38586274 -0.032062817 0.12555332 11511707
0.39394742 -0.036333069 0.12567338 11643293
0.4026154 -0.039093878 0.1235114 11709086
0.37662742 -0.022876849 0.12500754 8947068
0.38139677 -0.027416538 0.12477987 11117462
0.36599991 -0.014143975 0.1256528 1712665
0.37086952 -0.019169958 0.12417396 1974811
0.36596557 -0.0052362308 0.12525907 1974809
0.36825004 0.00011928315 0.12454855 11118745
0.375866 0.0050229011 0.12518623 11579557
0.38022226 0.0088599268 0.12294871 12040365
0.37900001 0.010769716 0.12952077 11974572
0.38170645 0.0153565 0.12503877 12829881
0.38630572 0.025015999 0.12508684 13356225
0.38885713 0.030903772 0.12681967 13422018
0.39237612 0.035799555 0.12465712 13422018
0.39654949 0.045088347 0.12498394 13553602
0.40000001 0.049759146 0.12077846 13816004
0.39900005 0.050942443 0.12664135 13816261
0.40181258 0.055793438 0.12464479 13881797
0.40499964 0.065052487 0.12499112 13815748
0.40804857 0.074900627 0.12495323 13223867
0.40900001 0.080560498 0.12445346 10065549
0.45474559 -0.074085779 0.13391662 11445914
0.43900004 -0.060492504 0.13717906 11972258
0.44474289 -0.06337592 0.13401116 11709086
0.45210719 -0.068650655 0.13492407 11643036
0.42555559 -0.052221879 0.13761741 11972258
0.43409845 -0.056327831 0.13461591 11972258
0.39871427 -0.040540017 0.1354557 11774879
0.40402439 -0.042993192 0.13435435 11840672
0.41376927 -0.047632102 0.13737477 11840672
0.38487875 -0.03301787 0.13589014 11446428
0.39363053 -0.03784024 0.13473472 11709342
0.37702477 -0.024630809 0.13537909 9539205
0.38055554 -0.028583681 0.13407676 11249049
0.36493886 -0.014792545 0.13261716 1712665
0.37083331 -0.015073671 0.13834199 1054479
0.36496368 -0.0044938 0.13394633 1843225
0.37107152 -0.0068309545 0.13878705 659723
0.36509094 0.0013243097 0.13785861 10066319
0.37698868 0.0070548104 0.13469334 11316643
0.37846974 0.013158799 0.13622469 12237744
0.38069558 0.017187065 0.1337792 12895674
0.3837918 0.025176147 0.13509056 13356226
0.38792208 0.033104785 0.13545446 13422019
0.39114287 0.037783541 0.13400334 13487811
0.39483044 0.044998169 0.13500975 13422018
0.39785719 0.052250355 0.13620873 13553604
0.4008806 0.056763131 0.13412367 13684932
0.40404454 0.064862788 0.13515283 13684675
0.40757617 0.074828334 0.13499591 13223867
0.45699999 -0.072950475 0.14558208 11643294
0.43809092 -0.061766315 0.14682078 11775136
0.44480008 -0.064866126 0.14503264 11840672
0.45254174 -0.068893246 0.14432049 11709086
0.41744441 -0.051442217 0.14661771 11380379
0.42336369 -0.054019976 0.14407869 11709599
0.43233335 -0.058620945 0.14566541 11709343
0.39900002 -0.04096967 0.14055894 11709343
0.40716138 -0.043439522 0.14530006 11314586
0.41315383 -0.047785003 0.14512385 11446171
0.3788 -0.030559618 0.14222129 10525843
0.38311768 -0.033232793 0.14078724 11249051
0.39100003 -0.038317546 0.14002907 11709599
0.37572232 -0.024322856 0.14270091 8158067
0.37366959 -0.014612652 0.14522132 791050
0.36740002 -0.001740884 0.14427525 1643277
0.37259528 -0.0068207341 0.14520846 527879
0.36414289 0.00060488452 0.14100514 7827306
0.3770833 0.008289176 0.14221767 10921886
0.3783159 0.014357205 0.14292875 11909038
0.38011119 0.019205544 0.14389186 11777451
0.38227722 0.024899917 0.14316666 12435382
0.38746554 0.034429692 0.14350176 12698553
0.39011762 0.038967431 0.14358002 12632760
0.3933042 0.044762649 0.14419284 12764345
0.39753953 0.053486358 0.14468464 12961468
0.39999992 0.058315963 0.14544792 12829882
0.40299997 0.064694576 0.14486679 13092798
0.4066624 0.073898368 0.14400311 12895418
0.45700002 -0.073138714 0.15029028 11445917
0.43866667 -0.061474279 0.15093762 11643808
0.44488895 -0.064734958 0.15416995 11051671
0.45142859 -0.067641959 0.15849932 9998986
0.40900001 -0.042762458 0.15087982 9932934
0.4106667 -0.045855105 0.15075667 10393485
0.36100003 -0.021773009 0.15511893 1975325
0.359 -0.012139917 0.15896428 857615
0.36135539 -0.014996327 0.15530875 1186577
0.37300003 -0.014286975 0.15017353 660234
0.359 -0.0089883218 0.15938449 791822
0.36168188 -0.0055069267 0.15558456 1119758
0.36400002 0.00054397178 0.15251493 4074534
0.39700001 0.05217411 0.1505423 9145730
0.40000001 0.059123218 0.1507435 9079680
0.40325004 0.064803585 0.15031494 10395799
0.45300004 -0.066667676 0.16134962 8749690
0.34521431 -0.022052605 0.16809395 1317652
0.36151934 -0.021774832 0.16485307 988430
0.34561789 -0.01471316 0.16764763 923407
0.35561544 -0.014195432 0.16447903 1054993
0.3606579 -0.017770218 0.16311233 1054993
0.34520644 -0.0066271545 0.16810489 988944
0.35610476 -0.0067809331 0.16469301 857358
0.36010009 -0.0040136147 0.16196589 857103
0.33783877 -0.022112265 0.17833932 1252114
0.34175336 -0.022959938 0.17351083 1777687
0.33757448 -0.014971972 0.17789115 1186578
0.34142295 -0.01507642 0.17302072 1252372
0.33741304 -0.0067797606 0.17825493 1054992
0.34157285 -0.0060843751 0.17307054 1120530
0.33332971 -0.022317918 0.18352051 1186578
0.33354193 -0.014689038 0.18394376 1186578
0.33415082 -0.0056710443 0.18390778 1054738
0.79088891 -0.1377822 0.24477389 9341573
0.79249984 -0.14480132 0.25529301 9999500
0.79280001 -0.13589662 0.2556414 10394005
0.7926538 -0.14469601 0.26517624 9867913
0.79227996 -0.13513969 0.26519176 10920092
0.78900003 -0.13088591 0.27794737 13420740
0.79180002 -0.1355045 0.27503976 10460054
0.78700006 -0.1272402 0.27853018 13882058
0.78866673 -0.13190807 0.28598395 12828858
0.79147065 -0.1367477 0.28475651 9736587
0.78570837 -0.12520856 0.28514048 13882315
0.78321052 -0.11506595 0.28676462 13948364
0.78306669 -0.10594694 0.28801769 13750985
0.78300005 -0.091397226 0.28958136 13750985
0.78300005 -0.089564212 0.28958136 13750985
0.78860003 -0.13266647 0.29534498 12105134
0.79099995 -0.13769978 0.2953167 9209729
0.78555167 -0.12467229 0.29496372 13750729
0.78357702 -0.11545416 0.29508612 13882571
0.78376698 -0.10524636 0.29537091 13816778
0.78475863 -0.095404416 0.29498345 13750985
0.78336853 -0.086036175 0.29657078 13619399
0.78300005 -0.075816587 0.29874644 13290434
0.78852946 -0.13254599 0.30519888 11841706
0.79049999 -0.13761234 0.30530915 9144450
0.78503573 -0.1246535 0.30523056 13816007
0.78283328 -0.11520161 0.30509475 13947849
0.78456253 -0.10558234 0.30519593 13881800
0.78495997 -0.095301419 0.30500728 13750472
0.78430015 -0.085123815 0.30475199 13487043
0.78376007 -0.074971184 0.3045423 13421507
0.78589284 -0.065318599 0.3056336 13421506
0.78775007 -0.057373673 0.30793589 13421506
0.78817648 -0.13292164 0.3153736 10986655
0.79036367 -0.13767251 0.31501168 9078658
0.78332144 -0.1246435 0.31478187 13750728
0.78159994 -0.11501939 0.31468067 13816776
0.78335321 -0.10497489 0.31473693 13684933
0.78443336 -0.095237277 0.31490076 13553605
0.78477782 -0.08517383 0.31504032 13421764
0.78503692 -0.075298682 0.31463471 13487557
0.78643316 -0.06510102 0.31478488 13421763
0.78753847 -0.056471549 0.31380817 13421507
0.78825009 -0.13353154 0.3247385 10657947
0.79000002 -0.13844942 0.32545948 9078658
0.78416008 -0.12457879 0.32489124 13619143
0.78362966 -0.11491021 0.32487664 13685448
0.78410739 -0.10496449 0.32467362 13750983
0.78472006 -0.09527161 0.32512408 13685190
0.78516662 -0.085216627 0.32530743 13685192
0.7853213 -0.074924819 0.32477969 13553606
0.78536105 -0.065014556 0.32446587 13356741
0.78350008 -0.058440216 0.32920074 12567738
0.78847611 -0.13317327 0.33458835 10131603
0.79042858 -0.13799612 0.33568171 8683900
0.78571999 -0.12482552 0.33473331 13158849
0.78563333 -0.11469301 0.33469713 13290691
0.78667998 -0.10471699 0.33514377 13158849
0.78756672 -0.094694875 0.33552182 13158848
0.78792006 -0.084593371 0.33567184 13289921
0.78747994 -0.075329088 0.33548546 13421250
0.78611112 -0.065589361 0.33483431 13158591
0.78400004 -0.05847751 0.33216441 13883598
0.78877783 -0.1318752 0.34424254 8815485
0.7906875 -0.13637315 0.34552562 9079425
0.78772002 -0.12514269 0.34480718 10328980
0.78780001 -0.11500921 0.3448416 11974575
0.78868747 -0.10590808 0.34395969 12106420
0.79049999 -0.10383847 0.34810409 9738387
0.78900003 -0.096715257 0.34167105 12566714
0.79135001 -0.094778813 0.34602574 11580333
0.79210001 -0.085041925 0.34579951 11382954
0.78900003 -0.073626958 0.34167108 12961215
0.79185003 -0.075191595 0.34624505 10987939
0.78900003 -0.065974839 0.34246263 13355973
0.79127276 -0.064914443 0.34703484 10000531
0.79200006 -0.059074219 0.34853247 8289914
0.79239142 -0.13524267 0.35499677 9540231
0.78900003 -0.12465207 0.35159901 9145731
0.79061115 -0.12560119 0.35686797 9211523
0.78900009 -0.11694898 0.35224968 9014147
0.79038888 -0.11405198 0.35645935 9145730
