# .PCD v0.7 - Point Cloud Data file format
VERSION 0.7
FIELDS x y z rgb
SIZE 4 4 4 4
TYPE F F F U
COUNT 1 1 1 1
WIDTH 1911
HEIGHT 1
VIEWPOINT 0 0 0 1 0 0 0
POINTS 1911
DATA ascii
0.78900003 -0.13180944 0.018435009 15000800
0.79490924 -0.1352516 0.014591003 13487558
0.78729999 -0.12507722 0.017472457 15856362
0.79350001 -0.12512921 0.012962528 13356226
0.77800006 -0.11084802 0.019999305 16514291
0.78645462 -0.11523214 0.017369319 15066845
0.79388231 -0.11496458 0.012966994 13422019
0.78654552 -0.10520022 0.017538507 15132638
0.79328573 -0.10586105 0.014022664 13487813
0.78760004 -0.095253028 0.017663471 15264224
0.79475003 -0.094320089 0.014377568 13356484
0.78828573 -0.085159048 0.017098987 14079950
0.78639996 -0.075225309 0.017451897 14606551
0.79392856 -0.074483015 0.013500421 13158848
0.78649998 -0.065108217 0.017454233 14540501
0.79446673 -0.064839184 0.012976754 13027005
0.78760016 -0.055057287 0.017478999 14474709
0.78825009 -0.046337366 0.01726307 14343124
0.79436362 -0.044880286 0.013993218 12895163
0.78787506 -0.034098938 0.017254308 14145486
0.79471427 -0.034824405 0.013114117 12697783
0.78809094 -0.025070069 0.017406277 13684678
0.79472232 -0.024860008 0.012981346 12500404
0.78678572 -0.014480181 0.016933009 13290433
0.79308337 -0.015061556 0.01249293 12040365
0.7858001 -0.0052646482 0.016516766 12698296
0.79140007 -0.0053016953 0.012005058 11842986
0.78658825 0.0045880154 0.016641483 12698296
0.79292309 0.0052579781 0.012241397 11645608
0.78842866 0.015547584 0.017102325 12434868
0.79466659 0.014674178 0.013446822 11645094
0.78800011 0.025158999 0.017488113 13092285
0.79416662 0.025199622 0.013749032 11447459
0.78810012 0.035309918 0.017490447 12763319
0.78770006 0.045062702 0.017665807 12829110
0.7943334 0.044884436 0.012976136 11316129
0.78721428 0.055541642 0.01681109 11973802
0.79273337 0.054446671 0.012580109 11447715
0.78730774 0.06433823 0.016833467 11776937
0.79283339 0.065682217 0.012489234 11447714
0.78825009 0.074068211 0.017955719 11185057
0.79399997 0.075020202 0.013898019 11250336
0.78900003 0.085220478 0.018435009 11053472
0.7950626 0.084941514 0.014848442 11250849
0.78900003 0.093532264 0.018435009 11315874
0.78631574 -0.13373815 0.025053063 15131099
0.79100001 -0.13809593 0.023241026 12960703
0.77495241 -0.12450007 0.025965361 15723491
0.78200006 -0.12560979 0.021016881 16053227
0.76800007 -0.11353441 0.027960556 15657955
0.7739585 -0.11547946 0.023359336 15789798
0.7665 -0.10472354 0.027777856 15263454
0.7743333 -0.10505731 0.022745149 16053483
0.78000003 -0.10200301 0.020050716 16251119
0.76770008 -0.095001258 0.027821343 15987177
0.7742632 -0.095051795 0.023332959 16447984
0.78175008 -0.093995579 0.020095702 16580084
0.76791674 -0.085143983 0.027829101 15658469
0.77326673 -0.084831946 0.023493718 16316140
0.78133345 -0.084804289 0.020084992 16316910
0.76800007 -0.075005591 0.027060766 15592676
0.77516675 -0.075055167 0.022038067 16250605
0.76858336 -0.066173919 0.027703434 15264224
0.77268767 -0.064643458 0.023701718 15724775
0.78000003 -0.064570136 0.020050718 16053997
0.76900005 -0.057358682 0.028769165 15132638
0.773 -0.054639626 0.024889741 15527396
0.78220004 -0.054678619 0.020107269 16119790
0.77332008 -0.045008693 0.025302298 15264224
0.78266668 -0.04463784 0.020119265 15988204
0.77333337 -0.035051744 0.025304109 15329502
0.78180009 -0.034520246 0.020096987 15198429
0.77376002 -0.025108771 0.025316417 15263709
0.78280002 -0.025403058 0.020122694 15330015
0.77358073 -0.014996245 0.025136001 14934745
0.78140008 -0.016212674 0.020086706 15395809
0.77376682 -0.0051839575 0.024407322 14671830
0.77324259 0.0045827697 0.024804063 14605781
0.78033334 0.006951978 0.020059284 15001052
0.7737599 0.014742192 0.0253167 14605523
0.78260005 0.014911549 0.020117553 15066845
0.77410007 0.024715401 0.025327174 14605522
0.78300005 0.02499936 0.020127835 14935002
0.77442294 0.034905121 0.025476374 14342350
0.78360003 0.035109241 0.020143259 14802901
0.77465504 0.044836015 0.025221543 14474193
0.78316671 0.045169625 0.020132119 14868694
0.77392864 0.05518486 0.025518438 14408658
0.78160012 0.055144429 0.020091847 14606294
0.77451861 0.065121695 0.025140598 14408660
0.78216672 0.065258749 0.020106412 14606294
0.77404362 0.074858561 0.026195243 14342869
0.78311116 0.075826675 0.020943282 14540501
0.77468181 0.084992595 0.026091635 14474455
0.78420007 0.08470203 0.021074021 13685193
0.77552944 0.094338924 0.026766336 14474713
0.78521436 0.095579937 0.02175658 13750731
0.77720004 0.10177843 0.028347412 15527142
0.78611112 0.10505096 0.025110159 13290180
0.7908572 0.10763934 0.021386947 11119266
0.78900003 0.11200289 0.028593855 11119263
0.79460871 0.11543252 0.025112456 11119520
0.78900003 -0.14012124 0.037829168 11512740
0.7948637 -0.14506143 0.035233036 11775914
0.77850008 -0.13096657 0.035502087 15130840
0.78518754 -0.13554402 0.034657851 14472911
0.77350003 -0.12469833 0.035275433 15328733
0.76772726 -0.1136348 0.03468604 15724004
0.77025002 -0.11830903 0.03602948 15329246
0.7659725 -0.10465148 0.034932479 15658210
0.76660025 -0.094866 0.034961261 15329503
0.76669466 -0.085007429 0.034963988 15198173
0.76696682 -0.075161368 0.034977324 15197916
0.76761115 -0.06533993 0.035007711 15066331
0.76873553 -0.054850154 0.035322655 14935258
0.77000004 -0.051124223 0.030609159 15658982
0.76900005 -0.046557222 0.036801022 14737879
0.77000016 -0.043436732 0.03379019 14803672
0.76900005 -0.033555463 0.03687026 14540243
0.77000022 -0.036202837 0.033313032 14869208
0.76900005 -0.025143808 0.037012387 14342351
0.77000004 -0.024659015 0.031756256 14605523
0.77008361 -0.015074275 0.035118923 14079435
0.76900005 -0.0030240752 0.034006234 14013385
0.77000022 -0.0063916808 0.035732292 13881799
0.76900005 0.0010206264 0.032884005 14144973
0.77010369 0.0056583327 0.035649206 14211022
0.77089995 0.014687705 0.035157014 14013386
0.7708056 0.024609076 0.035151798 13947592
0.77038902 0.03541794 0.035131726 13816006
0.77109993 0.045379143 0.035164576 13947593
0.76900005 0.059657108 0.039570622 13355457
0.77065724 0.055145238 0.03501505 14079180
0.76900005 0.065057836 0.038895536 14013387
0.77031827 0.065169349 0.033735573 14408146
0.76900005 0.074959181 0.039570626 14276815
0.77066678 0.075122252 0.034241926 14276817
0.76900005 0.082160145 0.039570622 14211536
0.77067858 0.085238792 0.034821793 14277331
0.77172226 0.095100157 0.035192471 14342869
0.7756471 0.10364797 0.03510407 15198433
0.78200006 0.10826319 0.034746598 10855838
0.7872858 0.11255231 0.035245936 10921884
0.79218179 0.11776719 0.034862217 10987934
0.78862506 -0.14259347 0.046810798 11512486
0.79174995 -0.14628774 0.044561084 11578535
0.77745456 -0.13161899 0.044967774 14933977
0.78452635 -0.1373015 0.044716958 14012619
0.77332002 -0.12466774 0.04522324 15328991
0.76820004 -0.11304987 0.044924725 15724004
0.7705 -0.11789693 0.04505907 15328990
0.76703346 -0.10479619 0.044856418 15131867
0.76756006 -0.094985761 0.044888541 15329247
0.76716679 -0.085059837 0.044864766 15197659
0.76759994 -0.075222418 0.044890128 15131864
0.76883328 -0.065444767 0.044962075 15197659
0.76900005 -0.055758469 0.043571159 15197659
0.77000004 -0.053077023 0.047132846 15000280
0.76900005 -0.048357464 0.041370865 15000280
0.77020854 -0.044676796 0.04519311 14934487
0.77056676 -0.034926847 0.045064371 14671828
0.77052009 -0.025003726 0.045061644 14474450
0.77106667 -0.015093037 0.045093693 14013385
0.77156013 -0.0051682228 0.045124527 13750213
0.77213329 0.0047693658 0.045157082 13816006
0.77168 0.014700503 0.045129288 14013385
0.76900005 0.028452897 0.047971755 13552836
0.77048159 0.024163939 0.044723742 13816263
0.76900005 0.03370361 0.046921607 13290177
0.77000022 0.036501385 0.04372796 13619140
0.77028012 0.045330681 0.045045182 13553347
0.76873338 0.057716165 0.045315489 14013898
0.77000016 0.052644525 0.044669315 13882056
0.76748002 0.064928114 0.044881333 13816007
0.76696658 0.074761473 0.044849951 14079179
0.76812011 0.084764898 0.044917449 14145744
0.76900005 0.090261236 0.047671717 13816782
0.77114296 0.095352329 0.044903282 14145747
0.77612501 0.10393275 0.045046527 14803420
0.78200006 0.1082632 0.044816256 9803406
0.78725004 0.11244829 0.045117427 10264468
0.79223073 0.11752829 0.04504557 10527383
0.78837508 -0.14254847 0.054639757 11314851
0.79169232 -0.14687385 0.055709656 11446950
0.77633333 -0.13151175 0.055394601 14802646
0.7834 -0.13729697 0.054983854 14473169
0.77210009 -0.12447163 0.055092767 15065561
0.76803708 -0.11442538 0.055103328 15065817
0.77000004 -0.11872112 0.052240163 15131355
0.76700014 -0.10479184 0.054729976 15000280
0.76726669 -0.094949044 0.054747663 15526624
0.7673611 -0.085080698 0.054754138 15460829
0.76833332 -0.075293906 0.054825041 15197658
0.76894474 -0.065454789 0.054868788 15000279
0.76900005 -0.057158656 0.055272736 14934230
0.77000022 -0.052225798 0.054543469 14802645
0.77096665 -0.044871282 0.055013221 14671060
0.77141654 -0.03496398 0.055044319 14474194
0.77196658 -0.025050575 0.055084564 13947849
0.77230555 -0.015116211 0.055108715 14013642
0.77316684 -0.005178846 0.055169977 14078665
0.77294469 0.0047728932 0.055153508 13749956
0.77103335 0.014687669 0.055015553 13947592
0.76900005 0.027052708 0.055672798 13816520
0.77011132 0.022083603 0.054150302 13684677
0.76900047 0.035353824 0.054872684 13684935
0.76900005 0.042254761 0.058773208 13619399
0.77000022 0.04564783 0.054510094 13553605
0.76900005 0.057496816 0.055232741 13224126
0.77000016 0.05229903 0.054493394 13421505
0.76723343 0.06490697 0.054747451 13421506
0.76591682 0.074657932 0.05465316 13750473
0.76633346 0.084567718 0.054681621 13750731
0.76842111 0.092372149 0.055635326 13619401
0.77147055 0.097671777 0.05414734 13882829
0.77570587 0.10365611 0.055083144 14014413
0.78200006 0.10826321 0.054884978 9803404
0.78740007 0.11270039 0.05526429 9803916
0.79227281 0.1181171 0.055100523 9935502
0.78900003 -0.14196829 0.064611591 11972781
0.79386675 -0.14656541 0.065012306 11380901
0.77600002 -0.13170373 0.065694571 14802646
0.78400004 -0.13751069 0.064850315 14473170
0.77204001 -0.12446225 0.065030269 14999769
0.76856512 -0.11458977 0.064502984 15328990
0.77000004 -0.11872112 0.067562133 14736855
0.76700014 -0.1045806 0.065239273 15328988
0.76690018 -0.094904378 0.065494902 15394780
0.7670607 -0.085290693 0.065100715 15460573
0.76876009 -0.075336553 0.064754367 15394524
0.77000004 -0.07005135 0.068463422 15262939
0.76900011 -0.066196233 0.063955732 15131608
0.77000004 -0.062583514 0.066918351 15131352
0.76900005 -0.05855884 0.061773617 15065816
0.7702595 -0.05431338 0.065214939 14868437
0.77099997 -0.044873379 0.064942494 14802643
0.77153325 -0.034968909 0.064987868 14407887
0.77219993 -0.025057863 0.065043941 14342094
0.77206665 -0.015112609 0.06503208 14342093
0.77235985 -0.005173957 0.065055713 14408144
0.77143329 0.0047624283 0.064977042 14407888
0.76900005 0.016451281 0.06532795 13619140
0.77000004 0.012717291 0.064257383 13882056
0.76900005 0.026829148 0.064879917 13487555
0.7700001 0.021603106 0.064719588 13421761
0.76900011 0.035026509 0.06379208 13289920
0.77000004 0.036301095 0.067562126 13289405
0.76900005 0.045255169 0.063573867 13355969
0.77000016 0.045314014 0.065534219 13421505
0.76900035 0.055413686 0.065031193 13487298
0.77000004 0.051623061 0.061253082 14145741
0.76867998 0.065030113 0.064748272 13223870
0.76730001 0.074791938 0.064633161 13092029
0.76676005 0.084613971 0.064586565 13224384
0.76827782 0.092576139 0.06441354 13356228
0.77166677 0.098253757 0.06544929 13685192
0.77643758 0.10397529 0.065058999 13422277
0.78266674 0.10835549 0.065010622 10724764
0.78709102 0.11164932 0.064957932 9606025
0.79240006 0.11712684 0.064890787 10000780
0.7884286 -0.14212935 0.075374611 14209741
0.79368752 -0.14653277 0.074631371 11380900
0.77647066 -0.13233908 0.075132281 14933719
0.7847001 -0.13844131 0.075280271 14473426
0.77266681 -0.12456153 0.075032033 15065303
0.76892859 -0.1126415 0.074154481 15394524
0.77037513 -0.11720153 0.07526011 15460573
0.76737505 -0.1050692 0.075078368 15394524
0.76712012 -0.094930649 0.075390622 15723488
0.76854545 -0.084965244 0.07504046 15855330
0.76900005 -0.077161357 0.073221311 15526110
0.77000022 -0.07302954 0.075595371 15460829
0.77016693 -0.064656809 0.074788831 15328731
0.77127767 -0.054819174 0.074897394 15394523
0.77163321 -0.044910479 0.07493259 15328986
0.771972 -0.034990199 0.074964136 15262937
0.77219993 -0.025057757 0.074985221 15394524
0.77213877 -0.015114967 0.074980125 14736338
0.77193326 -0.0051715975 0.074959897 14276557
0.76900005 0.008350186 0.078275844 14211534
0.77062511 0.0043068966 0.074381761 14079435
0.76900029 0.015135717 0.075160056 14014156
0.77000004 0.011515567 0.071617946 13948364
0.76867664 0.024752632 0.074907325 13685190
0.77000004 0.020979133 0.070266008 13422018
0.76836139 0.035324812 0.074610546 13421248
0.76888466 0.045248829 0.075286724 13618627
0.77000004 0.045314014 0.070716649 13487041
0.76900035 0.05444926 0.073839545 13618627
0.77000004 0.057706777 0.077701658 13552833
0.76900005 0.064157702 0.071824975 13552577
0.77000022 0.065743297 0.076675184 13421248
0.76896018 0.075495102 0.07319551 12960441
0.77000004 0.073827617 0.078131817 12762805
0.76870018 0.084827565 0.074647672 13223871
0.76885712 0.09153036 0.074147798 13158592
0.77127272 0.09709657 0.075224526 13290179
0.77566671 0.10375755 0.075321704 13159104
0.78240001 0.10831858 0.075059384 13422020
0.78735721 0.11243027 0.075536363 9737867
0.792 0.11743729 0.074497104 9934987
0.78770006 -0.14265744 0.084787481 14473169
0.79272741 -0.14736484 0.084819935 11051934
0.77572227 -0.13312614 0.085112877 15065303
0.78266668 -0.13838702 0.084245726 14670546
0.76487505 -0.1235286 0.088373125 15526111
0.77165002 -0.1251193 0.084143832 15328732
0.74900001 -0.11197641 0.089390725 14539216
0.75620013 -0.11447102 0.088299491 15526111
0.76488888 -0.11484749 0.084217399 15394524
0.77025002 -0.11740773 0.081558481 16184039
0.73700005 -0.10241959 0.089683898 15131866
0.74522227 -0.10463127 0.08835721 15526368
0.75524998 -0.10569189 0.085859604 15460316
0.7648235 -0.10475668 0.082217135 15920867
0.73400003 -0.09512946 0.089318834 15460061
0.74336374 -0.094363146 0.087924652 15591903
0.75391668 -0.095056094 0.085561186 15986659
0.76406246 -0.094885916 0.082352355 15789536
0.73650002 -0.085102469 0.089623041 15986144
0.745 -0.084559426 0.088256977 16183523
0.75540006 -0.085346676 0.086260505 16183780
0.76555002 -0.084698305 0.082757637 16118500
0.74680007 -0.076677874 0.089128166 16118500
0.7561 -0.075510427 0.088111505 16118500
0.76504761 -0.075230166 0.084388591 16315879
0.77000004 -0.073656522 0.08108151 15855328
0.7663449 -0.065879874 0.086009674 15986914
0.77014291 -0.062852345 0.082126603 15789278
0.76900005 -0.057808742 0.089527361 16315879
0.77124137 -0.054659721 0.084697515 15789279
0.77208 -0.044937085 0.084914491 15525851
0.77153313 -0.03497101 0.084853992 15394267
0.77143991 -0.025033204 0.084843844 15328475
0.7719999 -0.015111694 0.08490663 15131353
0.77152002 -0.0051696394 0.084853575 14605265
0.76900005 0.0076750955 0.085926875 14342093
0.77041191 0.0024765476 0.084413446 14539728
0.76900035 0.014651034 0.085476823 14013384
0.7680279 0.024518376 0.085369051 13947591
0.76686126 0.035255916 0.08523912 14013642
0.7682001 0.045210503 0.085387729 13750728
0.76900023 0.054688439 0.086160921 13684422
0.77000004 0.056293394 0.084031187 13816008
0.76896447 0.064990357 0.085794114 13750215
0.77000004 0.066043727 0.08108151 12894904
0.76893783 0.074840851 0.085975826 13618628
0.77000004 0.075957939 0.081532158 13354942
0.76900005 0.083780356 0.084216632 13355458
0.77000004 0.085872151 0.086038612 13158080
0.76900005 0.090261236 0.080976211 13486789
0.77134496 0.095211007 0.084959619 13289922
0.77526671 0.10370336 0.085265599 13027259
0.7808333 0.10810167 0.084961653 13882824
0.78668761 0.11248425 0.085023187 10921882
0.79089993 0.11782819 0.085133567 9934987
0.78641176 -0.14323947 0.095046043 13551297
0.79088897 -0.14806914 0.095212251 11051422
0.76900005 -0.13116863 0.0971784 14998997
0.77484214 -0.13503496 0.094766758 14801618
0.78000003 -0.13852289 0.091264486 13748930
0.75654548 -0.12228275 0.09511587 15130584
0.76250011 -0.12662114 0.09431462 14933205
0.77000004 -0.12953663 0.090094425 14538446
0.73600006 -0.11200204 0.097188577 14932947
0.74505562 -0.11526476 0.09463349 14735569
0.75325 -0.11878156 0.092536867 15327962
0.72640008 -0.10327172 0.096664518 15262681
0.73270601 -0.1065146 0.09379822 15196632
0.74266672 -0.10755473 0.090373456 15262939
0.71900004 -0.092006028 0.098602585 15263450
0.72173327 -0.095568314 0.094974272 15328987
0.73066664 -0.094697066 0.090623707 15592158
0.71899998 -0.085441574 0.0986026 15394781
0.72223079 -0.084887728 0.094122492 15395037
0.73166674 -0.084547251 0.090747744 15460828
0.71900004 -0.076352336 0.099275865 15263452
0.72237039 -0.074925341 0.095663279 15329244
0.73354548 -0.07484863 0.091915041 15855841
0.74328578 -0.074824981 0.090696938 16250086
0.75500005 -0.070454188 0.090106808 16447465
0.72405559 -0.065773457 0.09808588 15197659
0.7331 -0.065491065 0.095385626 15591901
0.74566668 -0.064344026 0.094518103 16118500
0.75637501 -0.065048628 0.092924744 16315879
0.76211119 -0.062392276 0.092341907 16315879
0.73333335 -0.056983188 0.099251807 15394523
0.74775004 -0.054027855 0.09799169 16183523
0.75542861 -0.054579608 0.097228833 16117730
0.76585716 -0.054646123 0.093957633 16118243
0.77025002 -0.051591173 0.090574317 16118500
0.7475 -0.04612758 0.09971118 16117730
0.756625 -0.046026599 0.098491088 16051937
0.76478958 -0.044511545 0.095507592 15920608
0.7705 -0.044844277 0.091054216 15854816
0.75900006 -0.037956052 0.099468365 15394007
0.76559997 -0.034879256 0.096812412 15657179
0.77000016 -0.034119848 0.09165667 15722974
0.76800007 -0.026718197 0.098849922 15525338
0.77081484 -0.024811959 0.094198979 15591388
0.77186096 -0.015108943 0.094830036 15131351
0.77119994 -0.0051671523 0.094748944 14868179
0.7705456 0.0045128013 0.095079288 14605007
0.76900005 0.016451279 0.09177766 14144457
0.77000022 0.01442428 0.095993802 14473423
0.7687369 0.026390292 0.094872512 13881286
0.77000004 0.02138881 0.096321538 14144714
0.76796669 0.035305966 0.095252074 13684421
0.76876009 0.045241985 0.095348865 13947594
0.76900035 0.055156503 0.095378138 13947594
0.76804 0.064974286 0.095258884 13947594
0.7676 0.074824803 0.095204376 14079180
0.76900005 0.082060128 0.094978102 13882058
0.77010548 0.086595803 0.094851494 13816009
0.77191675 0.095124803 0.094837055 13816008
0.77586955 0.10457593 0.095123775 13224126
0.78623533 0.11264325 0.095023327 11382434
0.79090905 0.1177455 0.094896816 9803658
0.78543758 -0.14305554 0.10511442 13880522
0.79109091 -0.1489117 0.10502023 10920352
0.76820004 -0.13103218 0.10570629 14604239
0.77529401 -0.13577098 0.10480556 14406861
0.74699998 -0.1212951 0.10576078 14669777
0.75550002 -0.12427099 0.10449257 14603984
0.76271433 -0.12805678 0.10403352 14735826
0.72633338 -0.11170441 0.10736686 14933205
0.73382366 -0.11486491 0.10536292 14669521
0.74300009 -0.11803786 0.10328494 14209226
0.71890903 -0.10334717 0.10813704 15526110
0.72266668 -0.10571658 0.10414666 15394267
0.73000002 -0.1091359 0.10079468 15525339
0.71866673 -0.094492391 0.10544831 15329243
0.72000003 -0.098651379 0.10166132 15592415
0.71813905 -0.084666684 0.10503864 15131864
0.71841681 -0.074608155 0.10507986 14934229
0.71850008 -0.06452509 0.10509215 15000023
0.71882606 -0.055225369 0.10671411 14934231
0.7226876 -0.054117475 0.10231711 15263452
0.73300004 -0.052525014 0.10077699 15263194
0.71899998 -0.045934651 0.10889409 14868181
0.7227084 -0.044318791 0.10549051 15263451
0.73458338 -0.045331728 0.10199717 15197399
0.74400008 -0.04504038 0.10098602 15920608
0.75150001 -0.041097783 0.10024475 16512488
0.72270828 -0.034445357 0.10739532 15065817
0.7335 -0.035647869 0.10402302 15459801
0.74500006 -0.034837015 0.10266891 16051937
0.75487506 -0.034434736 0.10135482 16249316
0.72455561 -0.026713802 0.10870992 14868694
0.73325008 -0.024654923 0.10724678 14868180
0.74485713 -0.026416231 0.10533358 15854558
0.75620002 -0.027011996 0.10334849 16249316
0.76414293 -0.02479201 0.10205547 15657179
0.77000004 -0.021381589 0.10090993 15722972
0.73600006 -0.018714476 0.10937307 14999765
0.74550009 -0.015901593 0.10947798 15130835
0.75800008 -0.01483921 0.10850435 15328214
0.76464283 -0.015097524 0.10633899 15393752
0.77088249 -0.014293252 0.10293501 15131351
0.76560009 -0.0051265163 0.10839623 15130581
0.7707001 -0.0051634917 0.10370682 14999508
0.76786673 0.0052831634 0.10817841 15064788
0.77028584 0.0043708165 0.10326508 14867922
0.76816672 0.014186464 0.10831114 14736080
0.77000022 0.014970521 0.10331338 14605009
0.7688216 0.025318412 0.10602554 14276044
0.77000004 0.021880424 0.10271251 14144458
0.76900047 0.035353824 0.10527952 14078922
0.76900005 0.045030143 0.10302919 14079178
0.7700001 0.045571525 0.10799152 14079178
0.76900011 0.055885166 0.1034364 14276559
0.77000016 0.054206762 0.10800008 14276559
0.76873356 0.065034352 0.1052436 14342352
0.76816654 0.074879684 0.10516623 14276559
0.76900005 0.081260026 0.1052795 14211023
0.77016687 0.085891314 0.10543883 14079437
0.7718125 0.094885886 0.10509837 14079435
0.77547616 0.10477106 0.10499643 13290433
0.78100002 0.10995308 0.10875067 13816777
0.78616673 0.11344743 0.10487046 11579559
0.79099995 0.11850371 0.10418941 9934987
0.786143 -0.14408952 0.11520559 13486532
0.79116672 -0.14945845 0.11417904 10854813
0.76600003 -0.13155469 0.11294059 15130326
0.77420008 -0.13604657 0.11450873 14670290
0.72650003 -0.12051789 0.11816636 14603726
0.73442858 -0.12183081 0.11515094 14669519
0.74550003 -0.1249787 0.1147087 14735569
0.75433332 -0.12807544 0.1153274 14735312
0.76066667 -0.12915416 0.11215192 14801362
0.71899998 -0.11190977 0.11758058 15262169
0.72260875 -0.11538903 0.11469873 15196120
0.73100001 -0.11869746 0.1120561 14735825
0.71750003 -0.10475034 0.11502317 15328732
0.7165553 -0.094545633 0.11487176 15131610
0.71627754 -0.084447607 0.11482769 14934487
0.71672183 -0.074432328 0.11489893 14934487
0.71683311 -0.064374894 0.11491732 14802901
0.71766675 -0.054368198 0.11505132 14605522
0.71888882 -0.044364188 0.11524812 14539729
0.71899992 -0.034625463 0.1158906 14473935
0.7202 -0.032137372 0.11158065 14868694
0.71899992 -0.025463833 0.11767877 14210763
0.72214288 -0.023590401 0.11282741 14539729
0.71900004 -0.01870301 0.11905338 14342349
0.72332144 -0.015306885 0.11576729 14342350
0.73372728 -0.01319041 0.11208034 14802130
0.74450004 -0.011956717 0.11107343 14999249
0.75000006 -0.010291643 0.11057924 15130835
0.72450006 -0.0065451688 0.11783963 14343120
0.73327273 -0.0049125063 0.11497578 14605265
0.74455565 -0.0049889185 0.11325969 14999507
0.75588894 -0.004672592 0.11163946 15130835
0.76099998 -0.003316527 0.11041955 15130835
0.72783333 0.0044962168 0.11838481 14277327
0.73475003 0.0045404006 0.11606765 14539473
0.74575013 0.0046069757 0.11431511 14670800
0.75716662 0.0046779788 0.11252 14933714
0.76200002 0.0047064656 0.11056465 14801615
0.72800004 0.013867854 0.11883876 14277070
0.73361546 0.014765089 0.11687785 14539986
0.74483341 0.01505835 0.11504457 14736594
0.75724995 0.014428345 0.11297669 14933972
0.76240009 0.016133806 0.11133482 14802130
0.72780001 0.02409119 0.11923265 14210764
0.73324996 0.025126824 0.11783323 14342350
0.7428 0.024929451 0.11681978 14408143
0.7564286 0.024279585 0.11456102 14802386
0.76453853 0.025718646 0.11244276 14605007
0.73325002 0.031994592 0.11926517 14342350
0.74225003 0.034123737 0.11899261 14079178
0.75800008 0.037509076 0.11767294 14210506
0.76676196 0.035806872 0.11364289 14342092
0.75900006 0.041113008 0.11901352 14539729
0.76636374 0.045346569 0.11673538 14407630
0.77000004 0.0450565 0.11224047 14144715
0.76880795 0.055420261 0.11570502 14407630
0.77000004 0.053425644 0.11172543 13947594
0.76880014 0.065040067 0.11515068 14342095
0.76763332 0.074825749 0.11497477 14079179
0.76830435 0.084549747 0.11538768 14013387
0.77000004 0.087674737 0.11172543 14144973
0.76878583 0.093064532 0.11681937 13947849
0.77065009 0.096499994 0.11317168 13750213
0.77432007 0.10466696 0.11517888 13487811
0.78025007 0.10984749 0.1141251 13619397
0.78694117 0.11436906 0.11483204 10987677
0.7902 0.11864779 0.11465736 9803401
0.77900004 -0.14016895 0.12762055 14012104
0.78681266 -0.14399719 0.12441051 13683398
0.79089993 -0.14897645 0.1256821 11249313
0.75600004 -0.13249084 0.12916197 15064792
0.76466674 -0.13520594 0.12706558 14604241
0.77400005 -0.13720015 0.12421191 14341069
0.72560006 -0.12206724 0.12735513 14933205
0.7327143 -0.12449076 0.12444989 14604240
0.74466676 -0.12818001 0.12548085 14670033
0.7182917 -0.11341266 0.12580128 15065304
0.72107697 -0.11858067 0.12423156 14933461
0.71613872 -0.1045514 0.12486533 14933974
0.71431428 -0.094513834 0.12466395 14736852
0.71348834 -0.084952049 0.12523431 14539729
0.71478957 -0.074537992 0.12480464 14737108
0.71572208 -0.064275049 0.12479264 14737107
0.71674985 -0.054298595 0.12497167 14605521
0.71811122 -0.044315856 0.12520787 14605521
0.71811128 -0.034230556 0.12520951 14276301
0.71810025 -0.024983432 0.12520751 14341837
0.71864706 -0.015946819 0.12555002 13947334
0.72000003 -0.012408275 0.12132587 14144971
0.71899992 -0.0075356807 0.12776066 13881541
0.72088468 -0.0044383532 0.12380883 14013641
0.72250009 0.0044646403 0.12512292 13947591
0.72407889 0.014465836 0.12486067 14079435
0.7250278 0.024847277 0.12471296 14013386
0.72696155 0.034403984 0.12622513 13947592
0.73241669 0.036959037 0.12241447 14276557
0.74300003 0.038506955 0.12085077 13684420
0.72800004 0.044548649 0.12906432 13881799
0.73294115 0.045152187 0.12622654 14079179
0.74411118 0.045148257 0.12364577 14276557
0.75633335 0.047753613 0.12242762 14605522
0.76000005 0.047394283 0.12094949 14473936
0.72900003 0.0514342 0.12966885 13947594
0.73409998 0.054029234 0.12833869 14079180
0.74473345 0.055333819 0.12653509 14144972
0.75600004 0.055771489 0.12451388 14473936
0.76352942 0.055028666 0.12140115 14539729
0.73720008 0.064098015 0.12940159 14078925
0.745 0.064773358 0.1281528 14144971
0.75566667 0.064372279 0.12585764 14342350
0.76385003 0.065423816 0.12236003 14144715
0.74683338 0.073091663 0.12905236 14276814
0.75575012 0.075286329 0.1279345 14276557
0.76459992 0.075209871 0.12296349 14079179
0.75833338 0.081908152 0.12896834 14145485
0.765091 0.085081354 0.12473717 14013642
0.76792598 0.094132669 0.12460755 13948107
0.77000004 0.099391527 0.12524481 13487813
0.77418518 0.10537706 0.1250165 13619140
0.78584993 0.11487396 0.12533584 10658454
0.79000002 0.11861777 0.12202501 9737865
0.79432154 0.12465212 0.12514435 9869194
0.78545457 -0.14400806 0.13469374 14341069
0.79099995 -0.14841314 0.13434875 12433330
0.74650002 -0.13082594 0.13190606 14143433
0.75600004 -0.13337925 0.1318202 14406862
0.76300001 -0.13610154 0.13334271 14538192
0.77280003 -0.13905334 0.13383576 14209483
0.71829414 -0.123807 0.13745721 14670546
0.72311115 -0.12465908 0.13369592 14539217
0.73333335 -0.12623127 0.13101162 14538448
0.74100006 -0.12812737 0.13006863 14143690
0.7167142 -0.11482333 0.13491049 14736596
0.71402943 -0.10483228 0.13462229 14473936
0.71192104 -0.095558077 0.1354441 14276557
0.71105576 -0.085496061 0.13563126 14210507
0.71282494 -0.075860567 0.13488279 14342094
0.71463436 -0.065135494 0.13453874 14342093
0.71532357 -0.054732848 0.13467117 14408143
0.71585703 -0.045158383 0.13489398 14407886
0.71658784 -0.035587251 0.13520621 14407885
0.71699971 -0.025784653 0.1350877 14276043
0.71722221 -0.015717877 0.13512848 14013127
0.71833348 -0.0056514661 0.13533731 13881541
0.71895832 0.0036694014 0.13685904 13749954
0.72025013 0.0059945476 0.1328893 13552319
0.71900004 0.011678603 0.13899919 13816004
0.72074288 0.01517852 0.13460912 13684163
0.72137851 0.024607016 0.13438141 13618370
0.72183347 0.034876719 0.13430521 13289662
0.72405559 0.045156069 0.1347174 13552834
0.72609097 0.055247262 0.13548139 13750214
0.7306 0.057019919 0.130637 14078924
0.72640002 0.065059207 0.13647956 13816265
0.7313571 0.064931937 0.13130945 14145231
0.74100006 0.069627799 0.13006863 14276559
0.72807699 0.073789902 0.1380256 13882058
0.73270845 0.075209506 0.13389568 14145486
0.74357146 0.075839348 0.13101628 14079437
0.72900003 0.084712945 0.13990845 14211023
0.73310524 0.084603697 0.13698828 14079693
0.7445001 0.084333651 0.13358332 14211536
0.75599998 0.086969301 0.1316369 14277329
0.76100004 0.088431478 0.13001622 14277329
0.72866672 0.094910316 0.13984448 14277329
0.73341674 0.094665848 0.1380337 14277329
0.74490005 0.094408274 0.13650483 14079950
0.75563639 0.094482869 0.13472511 13948363
0.76392305 0.095447287 0.13202485 14277328
0.72900003 0.10433887 0.13990846 14343123
0.73214287 0.10478266 0.13855088 14342868
0.75800002 0.10139155 0.13660163 14079948
0.76550007 0.10179859 0.13496298 13882569
0.77350003 0.1062863 0.13335812 13684933
0.73800004 0.11253768 0.13990805 14343125
0.77650005 0.1120445 0.13902493 11250334
0.78528577 0.11529064 0.13486525 10132623
0.78900003 0.12031468 0.13849412 9672072
0.79165387 0.12478606 0.13468049 9803658
0.79459387 0.13453975 0.1350545 9869451
0.77900004 -0.1419926 0.14220977 14604241
0.78300005 -0.14272171 0.14110696 14867413
0.7179395 -0.1246521 0.14501855 14341838
0.72000003 -0.12955281 0.14829439 13683139
0.71403223 -0.11500232 0.14474523 14473679
0.7121706 -0.1057388 0.14513549 14276300
0.71144462 -0.095536716 0.14570078 14144971
0.71136123 -0.085532442 0.14568383 13947848
0.71220583 -0.075629726 0.14502136 13750213
0.71305543 -0.065705307 0.14435987 13816006
0.7136389 -0.055732694 0.14447781 13881543
0.71500009 -0.045798667 0.14475384 14276300
0.71486115 -0.035749167 0.14472251 14144714
0.7151112 -0.025716269 0.14477304 14013128
0.71602768 -0.015691279 0.14495964 13749956
0.71694416 -0.005640863 0.14514594 13553090
0.71772236 0.0044341572 0.14530294 13750470
0.71870583 0.014337093 0.14575058 13421504
0.72000003 0.017931318 0.14155225 13487039
0.71899992 0.023316672 0.14820866 13092282
0.72033334 0.025528464 0.14336541 13158074
0.72064316 0.034818064 0.14505063 13289661
0.72157502 0.0448303 0.1449836 13421248
0.72205561 0.055169836 0.14448899 13487041
0.7217896 0.065376878 0.14474614 13684164
0.72282869 0.075221829 0.1450025 13618627
0.72437143 0.085166767 0.14497234 13816264
0.72493929 0.094809748 0.14483126 14079693
0.72671437 0.10474246 0.14553954 14145744
0.73049998 0.10968389 0.1410508 14145744
0.72752953 0.11444966 0.14794014 14013899
0.73233336 0.11453322 0.14328858 13816521
0.78860009 0.11766966 0.14248511 9540229
0.72900003 0.12140488 0.14844146 10065803
0.73325002 0.12125468 0.14672939 12697525
0.76200002 0.12333287 0.14445791 9474695
0.77399999 0.12588106 0.14522131 9606280
0.78781819 0.12348232 0.14348097 9606023
0.79030001 0.12717357 0.14186698 9737865
0.77400005 0.13071097 0.14854479 9671815
0.78666669 0.13285086 0.14728864 9935244
0.79122734 0.13623166 0.14427027 10001037
0.7938149 0.14500357 0.14532171 10527124
0.72400004 -0.13140327 0.15759273 13353662
0.73300004 -0.13189197 0.15611984 13090748
0.71836001 -0.12354183 0.15569276 13881030
0.72128582 -0.12857853 0.1560344 13748675
0.71474999 -0.11485916 0.15511088 13749700
0.7133795 -0.10498097 0.15528347 13684164
0.71274996 -0.095413432 0.15496644 13815493
0.71296883 -0.085359521 0.15534978 13684162
0.71370584 -0.075002305 0.15476497 13552834
0.71415788 -0.064969592 0.15461731 13486785
0.71491188 -0.054996483 0.15478019 13552578
0.71502942 -0.045555118 0.15460719 13552577
0.71347225 -0.035680365 0.15446754 13487041
0.71375 -0.025666183 0.15452796 13355455
0.71480566 -0.015664365 0.15475494 13158076
0.71544433 -0.005629838 0.15489143 13158333
0.71611089 0.0044240095 0.15503597 13026747
0.71747208 0.014510598 0.15533048 13224383
0.71863896 0.024627686 0.15558335 13157820
0.71899992 0.034618102 0.15578306 13223869
0.72000003 0.039000478 0.15166546 13816006
0.71899992 0.044486817 0.15727587 13421248
0.7201429 0.045992978 0.15229718 13487041
0.71899992 0.054207254 0.15841202 13289662
0.72025949 0.055438664 0.15309294 13618627
0.72011745 0.065037593 0.15446615 13552834
0.72020006 0.075333014 0.15435606 13223869
0.72088897 0.085458979 0.15438247 13618627
0.72154295 0.095550932 0.15464392 13816520
0.72303224 0.10501537 0.15470518 13685192
0.72608334 0.11497322 0.1552112 13158590
0.72900003 0.12140488 0.15100136 9737608
0.78700006 0.13659523 0.15242442 9934987
0.79000002 0.13896121 0.15254018 10461331
0.79129165 0.14551903 0.15464118 10592917
0.72157902 -0.13321674 0.16434938 13420224
0.73100001 -0.13666594 0.1608277 13880005
0.71862072 -0.12414312 0.16553025 13618116
0.72016668 -0.12958281 0.16434401 13025722
0.71652764 -0.11467191 0.1651945 13750215
0.71525007 -0.10441995 0.16489853 13552835
0.71436137 -0.094255537 0.16469377 13355456
0.71508336 -0.084305003 0.16486059 12960441
0.71599984 -0.074357063 0.16507255 12894647
0.71574992 -0.064278662 0.16501445 12697269
0.7161386 -0.054253206 0.16510318 12763060
0.71651506 -0.044599388 0.16541976 12894390
0.71599984 -0.035424687 0.16484475 12697525
0.71574992 -0.025739865 0.16501494 12631732
0.71561104 -0.015683027 0.16498299 12171182
0.71624988 -0.0056359502 0.16513091 12368561
0.71702784 0.0044291196 0.16531008 12434354
0.71758342 0.014511675 0.165437 12236975
0.71811128 0.024609307 0.16555728 12303024
0.71897215 0.034737151 0.1657557 12631732
0.71899992 0.04483749 0.16576196 12960697
0.71899992 0.054778837 0.16555154 12960697
0.72000003 0.058384106 0.16514972 13289662
0.71899992 0.06503579 0.16576193 13026490
0.72000003 0.065126248 0.16009313 13421248
0.71899992 0.074593909 0.1667238 13026490
0.72000015 0.076322988 0.16153787 13289662
0.71900004 0.081026115 0.16996992 12894904
0.72038889 0.085400358 0.16439599 13289662
0.72145736 0.095540009 0.16451921 13355969
0.72316128 0.10503414 0.16516605 13027262
0.72561914 0.11291625 0.16506384 13224641
0.73100001 0.1166041 0.16938412 9474440
0.79035002 0.14549917 0.16463326 10461331
0.79221427 0.15471992 0.16502047 10527124
0.72122222 -0.13315004 0.17471804 13222842
0.71899992 -0.12306092 0.17347658 13552064
0.72035015 -0.12700275 0.17577033 13222843
0.71856672 -0.11499786 0.17491493 13223613
0.71694446 -0.10466858 0.1753601 13355199
0.71544433 -0.094398908 0.17499322 13158076
0.71613872 -0.084428862 0.1751633 12894904
0.7175588 -0.074716553 0.1752632 12565939
0.71766663 -0.064450562 0.17469662 12565939
0.71753323 -0.054359879 0.17466433 12828854
0.71786684 -0.044301204 0.17474559 12697011
0.71799999 -0.034524936 0.17495809 12302254
0.71781486 -0.025346484 0.17454684 12105130
0.71813339 -0.015738118 0.17481102 11776679
0.7185334 -0.0056538996 0.17490737 11711144
0.71892589 0.0041602352 0.17462772 11908522
0.72000003 0.0069753532 0.17863397 11776680
0.71899992 0.014685133 0.17490338 11842729
0.72000003 0.010346419 0.17863397 11644837
0.71899992 0.024186013 0.1745663 11842729
0.72000003 0.027623132 0.17821258 11776423
0.71899992 0.034738336 0.1733363 12303024
0.72000009 0.034786649 0.17779119 11974059
0.71899992 0.043154292 0.17357674 12566709
0.72000015 0.04637469 0.17652704 12369330
0.71999991 0.054960366 0.1749469 12435124
0.71899992 0.066824175 0.1740727 12566453
0.72000015 0.063079529 0.17634645 12434867
0.71899992 0.0743775 0.17392543 12763575
0.72000009 0.076756418 0.1774541 12566452
0.71900004 0.081026115 0.17165312 13026490
0.72073531 0.085689634 0.17479764 12960697
0.72226673 0.094922148 0.17497016 12895161
0.72448492 0.10431257 0.17512292 12632246
0.72737503 0.1117702 0.17407802 12435124
0.73100001 0.11403776 0.17537303 10132368
0.79033351 0.14498161 0.17484139 10330002
0.7912001 0.15478556 0.17486633 10330002
0.72365004 -0.13393986 0.18547167 13223357
0.72102875 -0.12539986 0.18472517 13223356
0.71899992 -0.11361821 0.18383946 13158076
0.72000009 -0.11852024 0.18552934 13157820
0.71829045 -0.10472935 0.18509953 13421248
0.71736121 -0.094651416 0.18553835 13420992
0.71787488 -0.084844165 0.18514571 12960441
0.71893102 -0.074690677 0.18440475 12631732
0.72000003 -0.072244696 0.18874718 12499633
0.71899992 -0.064570002 0.18259384 12302765
0.72000009 -0.064659797 0.18790442 12565680
0.71899992 -0.054426543 0.18192944 12236717
0.72035307 -0.054622911 0.18725328 12039593
0.71899992 -0.044371691 0.18175225 12433839
0.72033334 -0.044453971 0.18714906 12105387
0.71899992 -0.034272537 0.18175225 12631217
0.72038901 -0.034338418 0.18716347 12236974
0.71899998 -0.025688261 0.18107902 12302509
0.72069567 -0.024119657 0.18643686 11973801
0.71899998 -0.015336628 0.18048988 11645608
0.72080016 -0.01542512 0.18565187 11579044
0.71900004 -0.0056582741 0.18006907 11842987
0.72093338 -0.0056734891 0.18561889 11382178
0.72077781 0.0044517275 0.18473464 11579815
0.72072238 0.01457466 0.18472007 11447714
0.72069448 0.024697345 0.1847128 11118493
0.72058362 0.034814529 0.18468454 11381922
0.72072226 0.044945475 0.1847197 11645094
0.72097242 0.055087484 0.18478271 11974316
0.72052789 0.06517382 0.18467025 12237230
0.72072238 0.075315759 0.18471982 12369073
0.72180569 0.08556781 0.18499728 12566453
0.72313792 0.094920106 0.18519264 12829369
0.7269063 0.1050007 0.1848693 12763318
0.73000002 0.10960882 0.18965971 12500918
0.72900003 0.11116527 0.18086691 10395540
0.73385715 0.11289285 0.18501095 10263697
0.75750005 0.12349176 0.18439002 9540488
0.76333332 0.12593104 0.18462269 9606024
0.773 0.12873247 0.18726058 9803660
0.77700001 0.1312176 0.18368411 9803401
0.78725004 0.13617842 0.18533035 9869451
0.79000002 0.13896121 0.18120594 10066573
0.79216003 0.14490895 0.18541227 10263952
0.79452389 0.15490334 0.18481559 10198416
0.72900003 -0.14141184 0.19537303 13091001
0.73100001 -0.14214298 0.19642334 13222587
0.72585708 -0.13493393 0.19494478 13223100
0.72130013 -0.12472311 0.19499931 13091770
0.71899998 -0.11206006 0.19161095 13158076
0.72006905 -0.11596368 0.19533399 12894391
0.71899992 -0.10472615 0.19359472 13092026
0.71999997 -0.10667773 0.1983788 12763061
0.718862 -0.094994672 0.19506487 13487041
0.72000003 -0.090785556 0.19886038 13487041
0.71895647 -0.08494588 0.19323027 13355969
0.72010005 -0.083717525 0.19804524 13092798
0.71900004 -0.078035526 0.19100982 13092283
0.72046864 -0.074399292 0.19519645 12829111
0.72138888 -0.064783551 0.19502458 12565939
0.722139 -0.054707766 0.19522755 12500145
0.72291183 -0.044812113 0.19518796 12368560
0.72269988 -0.034449097 0.19453363 12039595
0.72296876 -0.024412278 0.1949228 11842472
0.72376001 -0.015013736 0.19481841 11448226
0.72453344 -0.0057022101 0.1950272 11382176
0.72312498 0.0046758768 0.1949648 11118748
0.72263634 0.014383331 0.19497752 10790297
0.72296679 0.024775462 0.19460531 10658455
0.72279996 0.034921937 0.1945598 10723735
0.7224856 0.045175627 0.19520092 10855578
0.72211111 0.055173758 0.19522101 11184542
0.72147238 0.065258861 0.19504653 11316128
0.72166675 0.075414576 0.19509895 11645607
0.72249997 0.08517421 0.19495417 12106415
0.72539288 0.09509293 0.19525829 12303537
0.72844452 0.10321865 0.19380432 12500916
0.73054546 0.10673828 0.19648589 12303537
0.73550004 0.11129847 0.19366847 10856092
0.74200004 0.11314765 0.19625148 9277059
0.76200002 0.12333287 0.19083814 9540486
0.77550006 0.12824313 0.1942215 9540487
0.78535002 0.13520882 0.19512118 9672074
0.78900003 0.14063238 0.1994472 10132625
0.79330772 0.14505029 0.19517881 10132624
0.73199999 -0.14148179 0.2054278 13024951
0.7420001 -0.14567062 0.20753872 13090745
0.72729176 -0.13377666 0.20484857 13025977
0.73049998 -0.13870981 0.20560963 13223099
0.72339994 -0.12508695 0.20488274 13025977
0.72163898 -0.11548875 0.20522791 13025977
0.72152787 -0.10533494 0.20519763 13026490
0.72157568 -0.095284201 0.20482779 13158332
0.72152793 -0.085066743 0.2051968 13355970
0.72150016 -0.07492806 0.2051878 13355970
0.72306067 -0.065163486 0.20524639 13092026
0.72473335 -0.054903872 0.20525998 12894903
0.72537512 -0.044552803 0.20512229 12631732
0.7253058 -0.034573067 0.20457213 12302766
0.72555882 -0.024293339 0.20489354 12039593
0.72641933 -0.014903608 0.20502554 11579044
0.72745717 -0.0056027281 0.20506024 11513764
0.72714698 0.0042901118 0.20534541 11513764
0.7268486 0.014930364 0.20539792 11316384
0.72688895 0.024909783 0.20502244 11053213
0.72661108 0.035105474 0.20494242 10658455
0.72629029 0.045155086 0.20553713 11053468
0.72596657 0.055468123 0.20561023 10987675
0.72490007 0.065568946 0.20530872 10855832
0.72462952 0.075251155 0.20504332 10987162
0.72524142 0.084716849 0.20540377 11184799
0.72787994 0.093412049 0.20478767 11711400
0.73049998 0.098568738 0.20603572 12171951
0.73105001 0.10369153 0.20456517 11974572
0.73900002 0.11096016 0.20064805 11777193
0.77633333 0.12595749 0.20351373 9474695
0.78350008 0.12818924 0.20768726 9474695
0.7868461 0.13465632 0.2049965 9606281
0.79284626 0.14503601 0.20505746 10066831
0.77800006 -0.16002345 0.21852231 10525075
0.78700006 -0.16187462 0.21920784 10459282
0.75750005 -0.15226024 0.21897037 11051417
0.76900005 -0.15637204 0.21959491 10525075
0.77350003 -0.15728709 0.21816552 10459282
0.78250003 -0.15911719 0.21703674 10525075
0.7345295 -0.14238736 0.21551691 13156792
0.74616671 -0.14794591 0.2159853 13419708
0.75250006 -0.14949362 0.21224017 13288381
0.72862506 -0.13195807 0.2138232 13289149
0.73084211 -0.13627739 0.21545292 13091770
0.72606063 -0.12482744 0.2150608 13091770
0.72276658 -0.11488012 0.21541618 13092026
0.72261101 -0.10549241 0.21565145 12960697
0.72333336 -0.095373511 0.21541089 12961211
0.72219443 -0.085145861 0.21552731 12829625
0.72216672 -0.074997291 0.21552028 12829881
0.72433347 -0.064814098 0.21485652 13290175
0.72641659 -0.055031851 0.21508901 12698295
0.72663873 -0.044842947 0.21515462 12631732
0.72669423 -0.034639474 0.2151711 12500146
0.72736347 -0.024684815 0.21498261 12236974
0.72868758 -0.015862411 0.21362816 12105388
0.73035717 -0.012464114 0.21686535 11908009
0.72900003 -0.0057369703 0.21158575 11579044
0.73066652 -0.0047318554 0.21614313 11776423
0.73073334 0.0045133475 0.21551125 11644837
0.72900003 0.016022207 0.21158575 11250079
0.73073095 0.014579933 0.21603671 11315873
0.72900003 0.025835169 0.21215461 10790555
0.73047608 0.024665471 0.21665664 10987935
0.72894746 0.035353482 0.21345671 10922141
0.73000008 0.035036754 0.21793498 10922142
0.72900003 0.045461096 0.21329236 10987677
0.73000002 0.045523454 0.21785732 11909036
0.72881496 0.056033976 0.21462916 11185055
0.73000002 0.052644055 0.21814211 11843243
0.72828001 0.065022461 0.21478921 11447713
0.72796685 0.074367195 0.21469688 11513506
0.72769994 0.084562697 0.21461827 11908522
0.72890913 0.091915913 0.21419683 12106159
0.7307272 0.097044706 0.21519819 11842988
0.73149997 0.10169959 0.21402702 11842988
0.74100006 0.10779107 0.21159926 12237744
0.77700007 0.12303457 0.2118727 9540486
0.78684622 0.12763903 0.21591021 9408900
0.78847361 0.13403054 0.21456711 9474694
0.79016668 0.13837405 0.21608241 9606279
0.79351854 0.14536443 0.21503833 9869451
0.77740008 -0.16099095 0.22489977 10394001
0.78657144 -0.1644181 0.22566271 10262416
0.7918182 -0.16741702 0.22408563 10262673
0.74700004 -0.15014972 0.22467941 13090998
0.75485718 -0.15274169 0.22515312 13288379
0.76450002 -0.15724669 0.22815153 9933451
0.77250004 -0.15889218 0.22420539 10328464
0.73533332 -0.14283651 0.22556745 13157047
0.74357146 -0.14821883 0.22526367 13091255
0.73120016 -0.13499324 0.22506312 12960440
0.72757143 -0.12441065 0.22449343 13092540
0.73000002 -0.12921599 0.22768369 13355198
0.72442311 -0.11521843 0.22532718 13026748
0.72253329 -0.10548274 0.22493343 13027003
0.72293311 -0.095386028 0.2250566 13027260
0.7227 -0.085204013 0.22498573 12961210
0.72433335 -0.075220443 0.22549525 12961210
0.72648489 -0.065471306 0.22492759 12960954
0.72793347 -0.055148177 0.22491153 13027003
0.72763336 -0.044904605 0.22481869 12895161
0.72833341 -0.034716021 0.22503446 12697525
0.72890002 -0.025017748 0.22316022 12302767
0.73015374 -0.023167368 0.22756764 12565937
0.7308892 -0.014306366 0.22496714 12236974
0.73170018 -0.0049013672 0.22521767 12039595
0.73191684 0.0045209499 0.22528346 11973802
0.73155582 0.014792699 0.22517282 11973803
0.73100036 0.025050405 0.22500086 11316386
0.7310003 0.03531798 0.22500117 11316643
0.73100036 0.045585815 0.22500089 11448486
0.72900003 0.059967209 0.22182536 12369330
0.73033321 0.054947019 0.22479671 12040366
0.72900003 0.06508702 0.22203869 12106158
0.7299999 0.064271562 0.22735702 12171951
0.72900003 0.074021585 0.22182536 12040365
0.73031569 0.075013474 0.22708541 12105644
0.72900003 0.083290778 0.22040319 11711400
0.73073351 0.085200198 0.22571848 11908779
0.73210722 0.094564363 0.22454782 11974831
0.73666668 0.10141274 0.224159 11974574
0.74300003 0.10417251 0.22564878 10461335
0.78822225 0.12532446 0.22364947 9277314
0.79007691 0.12702385 0.22717887 9277057
0.78900003 0.13139705 0.22161196 9343107
0.79116011 0.13561115 0.2251091 9343107
0.79322207 -0.17539872 0.23503606 10065550
0.77550006 -0.16253656 0.23385768 10196880
0.78672731 -0.16751443 0.23520547 10197136
0.79000002 -0.16988929 0.23391396 10197393
0.74825001 -0.15215263 0.237315 12893623
0.75550002 -0.15451491 0.23520035 12433328
0.76075006 -0.15647538 0.23237489 10065294
0.73543483 -0.14363828 0.23470984 13420734
0.74300003 -0.14934571 0.23477624 13156793
0.73168981 -0.13496503 0.23534375 13223612
0.72885716 -0.12261534 0.23372626 13158076
0.73066664 -0.12740041 0.23593517 13355455
0.72668737 -0.1144909 0.23531763 13289662
0.72515631 -0.10501676 0.23508845 13421248
0.72437167 -0.095454663 0.23471224 13355454
0.72491676 -0.085464202 0.23501042 13289917
0.72627765 -0.075423643 0.23545057 12960953
0.72821218 -0.065161742 0.23475853 12697781
0.72900003 -0.056392018 0.23237525 12698295
0.72999978 -0.054791514 0.23593792 12960953
0.72900003 -0.044584621 0.23233443 13158076
0.7299999 -0.045502894 0.23751014 13158076
0.72900003 -0.036821511 0.23108976 13026490
0.73048282 -0.034317777 0.23595808 12894904
0.73097247 -0.024575347 0.23526041 12302767
0.73130584 -0.014314362 0.23536795 12039339
0.73200023 -0.0049037663 0.23559049 12236974
0.73240006 0.0045240326 0.23486258 12565939
0.73200023 0.014802922 0.23559043 12566195
0.7319169 0.02508172 0.23556407 11908522
0.73194468 0.03536348 0.23557289 11514021
0.73163915 0.045625228 0.23547575 11447971
0.73130023 0.055020295 0.23536652 11513765
0.73113924 0.064422205 0.23531407 11843243
0.73136145 0.074715361 0.23538643 11645349
0.73237514 0.084893569 0.2351767 11842471
0.73587495 0.093913466 0.23414628 11250849
0.74260002 0.097941995 0.23639336 9342855
0.74650002 0.10159969 0.23458311 10724507
0.75633335 0.10648195 0.23486359 9474440
0.76100004 0.1089189 0.23512557 8948096
0.77600002 0.11469904 0.23794349 9145728
0.78862506 0.12071926 0.23512082 9211521
0.79047841 0.12641464 0.23498031 9211521
0.79240727 0.1358826 0.2351412 9277314
0.7931304 -0.17581104 0.24481434 10065294
0.77399999 -0.1628246 0.24276607 10261903
0.78536361 -0.16789286 0.24499121 10131087
0.74600011 -0.15213317 0.24577145 13025721
0.75520003 -0.15533383 0.24393323 13091258
0.76200008 -0.15851635 0.24672373 11906983
0.73575008 -0.14315604 0.24454626 13092027
0.74087507 -0.14826892 0.24581733 12960441
0.73237038 -0.13520929 0.24513881 13552833
0.72900003 -0.12117642 0.24547398 13355455
0.73075885 -0.12647551 0.24530753 13223867
0.72754282 -0.11475774 0.24507865 13289661
0.72602767 -0.10429309 0.24556562 13355454
0.72623068 -0.095101625 0.24498129 13289919
0.72676659 -0.085682757 0.2449657 13158589
0.72769994 -0.075571135 0.24527979 13289919
0.72869456 -0.065439805 0.244763 13092540
0.72900003 -0.058812298 0.24486449 12829881
0.72999978 -0.05392389 0.24520031 12895674
0.73066688 -0.045090958 0.24542546 13158076
0.73118776 -0.035066586 0.24506487 12763318
0.73193353 -0.024607902 0.24499334 12500145
0.73200023 -0.014328705 0.24501532 12565939
0.73264003 -0.0049072118 0.24523042 12697525
0.73299986 0.0045273481 0.24449211 12763318
0.7323001 0.014807548 0.24511589 12631989
0.73213357 0.025089946 0.24506031 12303024
0.73313326 0.035421804 0.24539581 12105644
0.7333076 0.045068927 0.24532278 11776936
0.73272413 0.054417133 0.24537759 11777194
0.73233336 0.064527258 0.24512817 11908780
0.73266667 0.074848771 0.24523954 12172210
0.73425806 0.085188851 0.2448297 12238003
0.73814285 0.092070885 0.24410944 11842729
0.74442863 0.096094958 0.24581341 10198418
0.755 0.10169961 0.24493799 11580071
0.76500005 0.10725749 0.24396566 10856348
0.77566671 0.11283757 0.244496 9145472
0.78418183 0.11791315 0.24595898 9211521
0.78839129 0.12439629 0.24535359 9145728
0.79011112 0.12829399 0.24247557 9145728
0.79142857 0.13531147 0.24512108 9211521
0.7626667 -0.16103818 0.25706944 11906726
0.77620006 -0.16510825 0.25363392 9867913
0.7858572 -0.16873719 0.2543653 9999499
0.74481255 -0.15287332 0.2551862 12960184
0.7564286 -0.15786466 0.25445357 13091256
0.73591679 -0.14369141 0.25529751 13223612
0.74100006 -0.14869621 0.25372621 13026233
0.7321381 -0.13528471 0.2546356 13289661
0.72900003 -0.12169111 0.25387156 13289661
0.73056519 -0.12654749 0.25539121 13289661
0.72720575 -0.11487986 0.25472769 13223612
0.72603327 -0.10429423 0.25491652 13223611
0.72693104 -0.094945334 0.254527 13289662
0.72677767 -0.08568614 0.25432578 13289662
0.72694445 -0.075492106 0.25438324 13158076
0.72893339 -0.06620121 0.25462544 13224126
0.73000002 -0.061855137 0.25773263 13223869
0.73050004 -0.0553407 0.25477472 13092540
0.73146683 -0.045139559 0.25511172 12763575
0.73226488 -0.034702156 0.25478518 12763575
0.73311096 -0.024647422 0.25482798 12434610
0.73311108 -0.014350197 0.2548278 12040108
0.73333323 -0.0049126986 0.25490528 12040108
0.73305541 0.0045273658 0.25480747 12171438
0.73266667 0.014815301 0.25467297 12566196
0.73291659 0.025116377 0.2547594 12631732
0.7340554 0.035466656 0.25515524 12500146
0.7343334 0.0449332 0.2552523 12368561
0.73361093 0.054334067 0.255 11776682
0.73322207 0.064606272 0.25486591 11908267
0.73379987 0.074842595 0.25494516 11777195
0.73688239 0.083653286 0.25446445 11842990
0.74114293 0.087736294 0.25699958 11843246
0.74506259 0.093124442 0.25505742 11777197
0.75316668 0.09839505 0.25592354 11645866
0.75800002 0.10139155 0.25371808 11777452
0.76425004 0.10446616 0.25312436 12435380
0.77266675 0.10787664 0.25500888 11711400
0.77700001 0.11120892 0.25371426 9013887
0.78441185 0.11605486 0.25478148 9079680
0.78835708 0.12516214 0.25484976 9145729
0.78900003 0.13139705 0.25301206 9277315
0.79140013 0.13602448 0.255337 9211522
0.78637505 -0.17187126 0.26505113 9868428
0.75800008 -0.1612332 0.26791245 13485758
0.76200002 -0.16267984 0.26486933 12301484
0.7753334 -0.1685503 0.26677784 9802122
0.78000003 -0.16956478 0.26473391 10000014
0.74419051 -0.15357265 0.26527074 13222843
0.75400001 -0.15861726 0.26296201 13419965
0.73628569 -0.14473866 0.26485512 13223612
0.73280656 -0.13512354 0.26515406 13092283
0.7311821 -0.12565294 0.26455691 13158076
0.72863996 -0.11370955 0.26429278 13092283
0.73022223 -0.11771696 0.26740313 13289662
0.7276389 -0.10452572 0.26485097 13289662
0.72715145 -0.094626777 0.26490352 13158076
0.72757578 -0.085392326 0.26459518 13355455
0.7276389 -0.075564846 0.26485118 13355455
0.72888237 -0.067715533 0.26414698 13092283
0.73023528 -0.063717864 0.26644677 13487041
0.73119473 -0.055393741 0.26443136 13158589
0.73202795 -0.04517518 0.26473248 12895417
0.73308319 -0.034942571 0.26511475 12698039
0.73424995 -0.024899941 0.26499915 12435124
0.73460007 -0.014379601 0.26480383 11974572
0.73419225 -0.0047868155 0.26485446 11711400
0.7335276 0.0045289495 0.26527488 11842986
0.73299986 0.014823143 0.26508367 12040365
0.73311096 0.025123335 0.26512426 12237744
0.73405868 0.035264093 0.26521379 12566196
0.73444003 0.044939812 0.26474518 12565940
0.73391157 0.054559741 0.26516122 12039853
0.73412484 0.064471304 0.26495412 11448487
0.7361936 0.075351693 0.26521245 11777452
0.73875004 0.081954874 0.26240766 11580073
0.74290919 0.086096838 0.26582053 11580073
0.74687511 0.091817573 0.26441938 11514025
0.75475007 0.096545957 0.26528773 11514281
0.76000005 0.099879913 0.26773131 12238004
0.76425004 0.10290208 0.26340875 12501432
0.77450007 0.10753134 0.26527885 11909038
0.78666669 0.11505287 0.26505044 8948352
0.79000002 0.11861777 0.26720321 9079937
0.78883338 0.12244418 0.26096097 9079937
0.79109097 0.1255156 0.26538631 9079937
0.79288894 0.13534746 0.26560521 9145730
0.77633333 -0.17088903 0.27499828 9802122
0.78600001 -0.17475627 0.27514911 9736842
0.7930001 -0.17865573 0.27494106 9736842
0.75514287 -0.16188827 0.27573779 13025464
0.76250005 -0.16509297 0.27530384 13025208
0.77166671 -0.1683564 0.27455249 9735814
0.73900002 -0.1502717 0.27676859 13025977
0.74373078 -0.15498993 0.27465361 13091770
0.75100005 -0.15974425 0.27247229 13288379
0.73623347 -0.14454201 0.27487081 13091770
0.73389995 -0.13463326 0.27485895 13289405
0.73216689 -0.12488758 0.27506745 13355197
0.73093766 -0.11548006 0.2751402 13092282
0.72887504 -0.10374255 0.27297688 13026490
0.73042858 -0.10602504 0.27722317 13289404
0.72865522 -0.094287984 0.2744838 13355454
0.73000002 -0.098882236 0.27852479 13881797
0.72900003 -0.084967554 0.27510932 13158076
0.72896558 -0.075851008 0.27459958 13158076
0.73000002 -0.071539149 0.27852479 13289662
0.72900003 -0.069734551 0.27387673 12960697
0.73060721 -0.064755701 0.27509108 12960954
0.73133367 -0.055403646 0.27475327 13027003
0.7323612 -0.045194712 0.27513993 12829881
0.73370957 -0.035110351 0.27495393 12895160
0.73520595 -0.024513712 0.2747407 12763574
0.73613894 -0.014409368 0.27483645 12237231
0.73568976 -0.0050481181 0.27481815 11579302
0.7342332 0.0045329756 0.27498481 11250336
0.73333323 0.014829028 0.27464736 11250850
0.73321199 0.025205307 0.27506888 11711401
0.73434371 0.035695877 0.27470168 12369330
0.73496681 0.044973053 0.27439758 12632246
0.73493761 0.054218493 0.27492481 12434867
0.73500013 0.064964816 0.27466321 11908781
0.73720008 0.075191893 0.27510762 11645609
0.74392313 0.08544898 0.27499461 11514280
0.74825001 0.091329046 0.27410412 11119522
0.75592864 0.095811069 0.27425677 12238002
0.76000005 0.098100737 0.27929598 11909036
0.7632001 0.10119636 0.27421719 12698552
0.77381259 0.10702185 0.27508372 11909037
0.78666675 0.11443829 0.27497324 8882559
0.79083329 0.11874288 0.27488992 9079936
0.79416674 -0.18481018 0.28526512 9671049
0.77628571 -0.17317183 0.28450197 9605000
0.78611112 -0.17723355 0.28459433 9736842
0.79050004 -0.17924967 0.28217638 9802635
0.74760002 -0.16077118 0.28523755 12761780
0.75624996 -0.16418229 0.28477353 12827573
0.76383334 -0.16783845 0.2851651 11774628
0.77000004 -0.16919346 0.28116831 9998731
0.73900002 -0.1502717 0.28282362 13420991
0.74311996 -0.15521957 0.28499025 12894391
0.73674083 -0.14444989 0.28493029 13223356
0.73450005 -0.13474286 0.28454098 13157563
0.73293102 -0.12489987 0.28550044 12697269
0.73180586 -0.11540282 0.28521049 13026490
0.7310003 -0.10500737 0.28489611 13092282
0.73066688 -0.094696611 0.28476736 13092539
0.73035288 -0.084447399 0.28489652 13027003
0.73029983 -0.074988 0.28462443 13027003
0.73038888 -0.065592118 0.2846587 13355455
0.73119473 -0.05539361 0.28497148 13158333
0.73250008 -0.045203056 0.2854805 13027260
0.73419434 -0.034995213 0.28470775 12698295
0.73577785 -0.024735263 0.28503564 12500659
0.73760009 -0.014436997 0.28487867 12171438
0.73720014 -0.0049402877 0.28472441 12039339
0.73614717 0.0044440911 0.28492725 11447716
0.73500007 0.014862224 0.28473651 10921115
0.73396957 0.025073534 0.28472608 10921628
0.73388869 0.035457943 0.28430393 11382436
0.73406661 0.04491806 0.28437218 12171952
0.73458332 0.054408651 0.28457147 12435381
0.73527789 0.064788111 0.28484258 12238003
0.73759097 0.074097723 0.28448322 11777452
0.74040008 0.078584343 0.28596076 11448487
0.74459994 0.084406406 0.28485984 11316901
0.75033337 0.089826785 0.28452703 11514023
0.75638461 0.093688004 0.28491113 12632504
0.76100004 0.097721472 0.28577283 12238003
0.76609093 0.10166127 0.28463492 12961725
0.77423537 0.10729921 0.28505737 12435124
0.78633332 0.11439027 0.28498229 8948350
0.79100001 0.1187679 0.28513306 9145728
0.78840005 -0.18061915 0.29526839 9539977
0.79358339 -0.18629976 0.29496342 9474183
0.76600003 -0.17010775 0.29495007 11841705
0.77566671 -0.17467742 0.29443774 9473670
0.78260005 -0.17745833 0.29309195 9539719
0.74700004 -0.16064216 0.29462904 12434096
0.75533336 -0.16479476 0.29585031 12302254
0.76179999 -0.16810708 0.29422879 12499634
0.74360722 -0.15469371 0.29503217 12565940
0.73842853 -0.14348827 0.29396573 12565939
0.74063641 -0.14729488 0.29613936 12236718
0.73603237 -0.13488725 0.29478037 12434354
0.73370367 -0.12508596 0.29533425 12829625
0.73244822 -0.11535575 0.29477397 12894903
0.73223358 -0.10518479 0.29480568 12763832
0.7316367 -0.09458892 0.29503274 12764088
0.73127806 -0.084504142 0.29527706 12895161
0.73106694 -0.075066805 0.29519081 12829881
0.73100036 -0.065647647 0.29516348 12961468
0.73150027 -0.055416606 0.29536644 13093053
0.73240632 -0.045411658 0.29519543 12961211
0.73397118 -0.034862068 0.29476812 12895675
0.73594129 -0.024942711 0.29518273 12500916
0.73805588 -0.01444698 0.29455712 12435123
0.73816693 -0.0049450789 0.2946021 12237744
0.73815656 0.0046669929 0.29513782 12105901
0.73680007 0.014897886 0.29491976 11513508
0.73543346 0.025201505 0.29437274 10328977
0.73479992 0.035624042 0.29485777 10527127
0.73413318 0.044921514 0.29471073 11185058
0.73442841 0.054274738 0.29470706 11645608
0.73668009 0.064189903 0.29445818 11645610
0.74033338 0.068987705 0.29748809 11645867
0.73866671 0.071714453 0.29105428 11185315
0.74231821 0.075362764 0.29578689 11053729
0.74586374 0.083502442 0.29457843 10987935
0.75100005 0.088148497 0.29620904 11119521
0.75716668 0.092715658 0.29435602 12303796
0.76225001 0.097203881 0.29528967 12303796
0.76728576 0.10109458 0.29583091 12369588
0.77323824 0.10636635 0.29519111 12895933
0.77900004 0.11149517 0.29904392 12895679
0.78543746 0.11449112 0.29553518 9540489
0.7906 0.11870785 0.29424149 9079936
0.78771436 -0.18178007 0.30476031 9539464
0.79272234 -0.18686964 0.3048259 9407878
0.76850009 -0.17246202 0.30670598 12236463
0.77490008 -0.17589633 0.30526796 9670793
0.78250003 -0.1792675 0.30496246 9605256
0.74800003 -0.1608572 0.30378062 12105133
0.75541669 -0.16496174 0.30501437 12104876
0.76142865 -0.16909257 0.30477354 12170669
0.7449615 -0.15510875 0.3049607 12237231
0.74260616 -0.14515999 0.30546328 12434353
0.73827273 -0.13378435 0.30242154 11842730
0.74123085 -0.13604352 0.30710432 11776423
0.73624146 -0.12457468 0.30492023 11842730
0.73438454 -0.11481686 0.30446637 11842473
0.73419428 -0.10546668 0.30504927 12171952
0.73351508 -0.095300473 0.30515712 12369587
0.73270011 -0.084669366 0.30528575 12566452
0.73220712 -0.074474804 0.30519807 12631989
0.73215389 -0.065091819 0.30492586 12632502
0.7324335 -0.055488046 0.3051742 12566709
0.73338217 -0.045056049 0.30496341 12764089
0.73460609 -0.035249256 0.30482852 12500918
0.7369377 -0.024557872 0.30500177 12435124
0.73852801 -0.014454891 0.30511898 12369074
0.7390002 -0.0049506607 0.30531386 12237489
0.73891687 0.0045634052 0.3052797 11974317
0.73832381 0.014727648 0.30478162 11711400
0.73808712 0.024804806 0.30317307 10921113
0.74042863 0.026983624 0.30800912 10921626
0.73800004 0.035547748 0.30349827 10197133
0.74085718 0.034184072 0.30818734 10526097
0.73724997 0.045024712 0.30450788 10395541
0.74050003 0.040977087 0.30853382 10000012
0.73722738 0.054290462 0.30411348 10790556
0.74066669 0.058614761 0.30802581 10922141
0.73850006 0.061901629 0.30193809 11251106
0.74265212 0.066080578 0.30572852 10856350
0.74511558 0.075048588 0.30535981 10658970
0.7472223 0.081680328 0.3033666 10658970
0.75427282 0.086611286 0.3059251 10987935
0.75780004 0.091430925 0.30297029 11711658
0.763125 0.095607534 0.3052299 11645865
0.76820004 0.10167766 0.30281061 11974830
0.77294743 0.1061563 0.30529127 12369331
0.77737498 0.1117185 0.30479035 12764089
0.7849375 0.11625389 0.3043038 9277317
0.78860009 0.12062309 0.30752826 8948351
0.79417878 0.12562419 0.30479604 9014143
0.78646153 -0.18329439 0.31564334 9407622
0.79166669 -0.18785526 0.31440511 9407622
0.76824999 -0.17240591 0.31380218 12039083
0.7743637 -0.17625299 0.31505796 9670793
0.75515389 -0.16389607 0.31450078 11973289
0.76183337 -0.16858937 0.31593594 11973289
0.74651855 -0.15497473 0.31499162 12104875
0.75000006 -0.15953155 0.31951511 12235691
0.74460006 -0.14531137 0.31547296 12302510
0.74285716 -0.13484824 0.31510672 12236717
0.73864287 -0.12253259 0.31406036 11184287
0.74085718 -0.12748347 0.31549749 11579044
0.73690915 -0.11456205 0.31493324 11973545
0.73563993 -0.10481367 0.31512037 11645094
0.73480654 -0.095095553 0.31492969 11908779
0.73396957 -0.085049585 0.31487313 11908780
0.73372209 -0.074480668 0.31515825 12105902
0.73369986 -0.065031484 0.31514877 12237744
0.73403227 -0.055747457 0.31459865 12697525
0.73489994 -0.045351245 0.3148047 12698038
0.73680019 -0.035118822 0.31475657 12566709
0.73855561 -0.024861939 0.31425649 12303280
0.74000001 -0.024590695 0.3187196 12697781
0.73900002 -0.015763236 0.31266639 11908523
0.74066675 -0.013630356 0.31698453 11513508
0.73900002 -0.0049506603 0.31136885 11974572
0.74117649 -0.0052715018 0.31616607 11316385
0.73900002 0.0054294132 0.31136885 12171951
0.74109519 0.0047012544 0.31588838 11448228
0.73900002 0.012349463 0.31136885 11842988
0.74124002 0.015303053 0.31522992 11316644
0.74290001 0.025460424 0.31475413 10790298
0.74359995 0.035056483 0.31505099 10263697
0.74296677 0.044591103 0.31478375 9935246
0.74303335 0.055035327 0.31481132 10330004
0.74500012 0.064907625 0.31544173 10461335
0.74703997 0.073626339 0.31440771 10461592
0.75150001 0.078093395 0.31839424 9869455
0.74900001 0.080900043 0.31032196 10330004
0.75599998 0.083912648 0.31386402 10658970
0.76160002 0.087610677 0.3158991 8487802
0.76674998 0.092689887 0.31363723 9672076
0.77344447 0.097421512 0.31542346 9540489
0.77621424 0.10473876 0.31368142 10790302
0.7816667 0.10638949 0.31836656 9540233
0.7858125 0.11535127 0.3155719 9540488
0.78880006 0.12065359 0.31388602 8882558
0.79210007 0.12533367 0.31566259 8948350
0.79362506 -0.19474828 0.32455447 9145221
0.78740007 -0.18371032 0.32383493 9341830
0.791125 -0.18749484 0.32661855 9276294
0.76733333 -0.17040385 0.32330909 12105133
0.77428579 -0.17467223 0.32532293 10591639
0.78250003 -0.1792675 0.32694989 9407623
0.75666666 -0.16316713 0.32560086 11775395
0.76179999 -0.16739166 0.32454449 11841189
0.74805552 -0.15299019 0.32471955 11578531
0.75099999 -0.15798715 0.32596892 11578274
0.74599999 -0.14471121 0.32479808 11579558
0.74402946 -0.13474953 0.3248108 12434610
0.73900002 -0.12086149 0.3208839 12171181
0.74135995 -0.12479017 0.32513765 12236974
0.73855191 -0.1145894 0.32465446 12105644
0.74000001 -0.11929268 0.32824755 11513764
0.73680007 -0.10498002 0.32510492 12040108
0.73537153 -0.095430173 0.32459703 11842473
0.73512125 -0.084713109 0.32475567 11513508
0.73526663 -0.074637346 0.32529008 11776936
0.73503834 -0.064951159 0.32532072 11908779
0.73541188 -0.055459775 0.32449195 11908779
0.73714715 -0.045692414 0.32500494 12237487
0.73875004 -0.036005806 0.32387426 12566452
0.74000001 -0.032290049 0.32718885 12369331
0.73900002 -0.026575815 0.3208839 12302767
0.74066645 -0.024927096 0.32515541 12105645
0.74236673 -0.01452847 0.32495445 11381922
0.74403572 -0.0047972822 0.32512569 10724248
0.74427611 0.0042066085 0.32446903 10987678
0.74457151 0.015305966 0.32442662 11119265
0.74540007 0.025545357 0.32453793 10724250
0.74592012 0.035166327 0.3247641 10263955
0.74596673 0.044772632 0.32478422 10132626
0.7462334 0.055271562 0.32490155 10329748
0.74733341 0.064276412 0.32386234 10198419
0.75140005 0.067439973 0.32820398 9935249
0.74900001 0.071548462 0.32201144 10066834
0.75450003 0.07531748 0.32540694 9803406
0.75833338 0.08131665 0.32306525 10264213
0.76275009 0.083509184 0.32560965 9277317
0.77166671 0.088166893 0.32874396 7829871
0.7753334 0.092619911 0.3244603 8158835
0.78399998 0.097758822 0.32666039 8422262
0.78680009 0.10487714 0.32463589 8487799
0.79025006 0.10801831 0.32880008 8553593
0.78822231 0.11302112 0.32247293 8619386
0.79093337 0.11579621 0.32695597 8685435
0.79295832 0.12478849 0.32497704 8817278
0.78733331 -0.18099009 0.33449629 9341572
0.79363638 -0.18587704 0.33540079 9210501
0.77375001 -0.17319208 0.33506072 11710117
0.78125 -0.17761165 0.33601785 10591638
0.75733334 -0.16188033 0.33465803 12105389
0.76245457 -0.16640264 0.33520424 12039339
0.74900001 -0.15055172 0.33223975 12433840
0.75247622 -0.15502909 0.33516714 12105132
0.7476666 -0.1445965 0.33427548 11841703
0.75000006 -0.14899696 0.33795062 12236463
0.74570972 -0.13519599 0.33497715 12236717
0.74323082 -0.12503542 0.33490175 12499889
0.73900002 -0.11249977 0.33097565 12105388
0.7412917 -0.11574248 0.33561924 11908008
0.73861539 -0.10443883 0.3334198 11908008
0.74066669 -0.10552805 0.33750236 11710629
0.73800004 -0.095392637 0.33330703 11447458
0.74050009 -0.094454028 0.33865422 11710630
0.73816669 -0.085299335 0.33348364 11052444
0.74083346 -0.085607111 0.33815587 11250079
0.73844439 -0.074960023 0.33360875 11315615
0.74100012 -0.075219184 0.33823195 11184030
0.73788899 -0.064539418 0.33335879 10986650
0.74045449 -0.064369053 0.33877146 11184543
0.73820007 -0.055060565 0.33349881 11448228
0.74072737 -0.054776121 0.33889601 11250079
0.73884618 -0.045396112 0.33245909 11711400
0.74049997 -0.044975728 0.33684862 11316386
0.73900002 -0.037820891 0.33126399 11777193
0.74091667 -0.03466595 0.33537653 11645350
0.74209678 -0.024807837 0.33509156 11842986
0.74396884 -0.014778548 0.33468986 11448229
0.74584001 -0.0049947975 0.33520481 10724504
0.74699992 0.0043607233 0.33448568 10132368
0.75000006 0.0090217572 0.3388285 9474438
0.74765205 0.015081585 0.33327997 9803404
0.75042862 0.015302512 0.33877131 9474438
0.74766666 0.024746008 0.33281684 10198163
0.75062501 0.025502725 0.33845246 9474439
0.74805254 0.034436572 0.33315751 9737613
0.75059998 0.034859069 0.3383972 9474439
0.74811763 0.044643726 0.33262238 9934994
0.75081825 0.044824276 0.33792081 9145477
0.74850005 0.053102251 0.33172628 10263957
0.75213331 0.055766799 0.33603913 9869455
0.75517386 0.064969279 0.33532876 9934991
0.75750005 0.072952941 0.33317462 9869456
0.76155561 0.075918011 0.33612692 10067090
0.7665 0.081894204 0.33372316 8619388
0.77420008 0.086886711 0.3356244 8224628
0.78000003 0.089726366 0.33959967 8290421
0.77733332 0.091847241 0.33115807 8487800
0.7863 0.096901171 0.33562094 8487800
0.78900003 0.10184405 0.33520636 8619385
0.79040009 0.10665166 0.33487582 8553849
0.79219234 0.11538284 0.33542129 8685435
0.79396152 0.12464808 0.33474115 8817021
0.78733337 -0.1809905 0.34586442 8881021
0.79400003 -0.18545491 0.34484932 9209986
0.77390003 -0.17276952 0.34509617 11907755
0.7802 -0.17691413 0.34516707 11907500
0.75866669 -0.16137503 0.34274462 12434612
0.76375002 -0.16548015 0.34548166 11973548
0.77000004 -0.16919346 0.34966651 11513253
0.75591654 -0.15563272 0.3448216 12566199
0.74900001 -0.14134623 0.34276026 12039081
0.7517826 -0.14560486 0.34552783 12697782
0.74710709 -0.13443258 0.34476855 12170666
0.74543351 -0.12505609 0.34531832 12039852
0.74414831 -0.11512303 0.34470403 11908521
0.74363339 -0.10508128 0.34465989 12105386
0.74344468 -0.094708808 0.34495834 12039594
0.74344009 -0.085038908 0.34456947 11710629
0.74360007 -0.075483106 0.34464437 11052957
0.74364012 -0.065216422 0.34535873 11118493
0.74344003 -0.05440782 0.34526607 10723735
0.74359983 -0.04501944 0.3446444 11184286
0.74346662 -0.035438944 0.34458178 11579558
0.74416667 -0.025018455 0.34490529 11974316
0.74550015 -0.014385408 0.34490713 11776936
0.74734604 -0.0051391106 0.34483099 11250591
0.74885714 0.0019959914 0.3425698 10658454
0.75095457 0.00551969 0.34581357 10658454
0.75314289 0.014979745 0.34528872 9934989
0.75389993 0.024953645 0.3450048 9803403
0.75425011 0.03467669 0.34516585 9737611
0.75523084 0.045602042 0.34527591 9474697
0.75695652 0.054949693 0.34520978 9803919
0.75862503 0.063181661 0.34394687 9737869
0.76075011 0.067774452 0.34620866 10593177
0.76500005 0.073903538 0.3435871 10395798
0.77166677 0.076726332 0.34771362 10395797
0.7766 0.08388114 0.3439396 8159605
0.78375 0.087406464 0.34673783 8159605
0.7877143 0.094832517 0.34453923 8356727
0.79000002 0.097657852 0.34888521 8356984
0.79056275 0.10534386 0.34552866 8619642
0.7924 0.11526987 0.3449986 8750972
0.78790009 -0.18142816 0.35502759 8815743
0.79258823 -0.18692955 0.35489935 8815999
0.77580011 -0.1731938 0.35502553 10920863
0.78220004 -0.17736761 0.35520902 10065297
0.76433343 -0.16362973 0.35454717 12499635
0.77200001 -0.16927147 0.35599792 12433843
0.75805873 -0.15373173 0.35332644 12631991
0.76075006 -0.15625387 0.35748771 12697525
0.75421733 -0.14431378 0.35493544 13026748
0.74864703 -0.13408937 0.35378501 12894904
0.75011116 -0.13614188 0.35760969 13158334
0.74768966 -0.1247589 0.3551698 12632502
0.75000006 -0.12968357 0.35989767 12303537
0.74660003 -0.11511398 0.35477221 11974572
0.74570012 -0.10537354 0.35434452 11842470
0.74556679 -0.094881408 0.35428125 11579556
0.74600017 -0.084608398 0.35460821 11645607
0.74626923 -0.075081341 0.35448182 11645607
0.74660015 -0.065300815 0.35477382 11118748
0.74640006 -0.054799926 0.35467821 10658197
0.74624008 -0.045179084 0.35460195 10395281
0.74606675 -0.035563037 0.35451984 11053212
0.74613327 -0.025084691 0.35455167 11382691
0.74760866 -0.015432172 0.35449114 11250849
0.75025004 -0.012050836 0.35826129 11185055
0.7486667 -0.0064754337 0.3516632 11645605
0.75162506 -0.0045943945 0.35606095 11119004
0.75464284 0.0049177003 0.35531476 11250591
0.75680768 0.015578271 0.35485289 10592918
0.75760001 0.025076114 0.35467964 10000525
0.75824147 0.034706522 0.35485709 10526869
0.76000005 0.039388001 0.35935876 10987677
0.75852388 0.045146536 0.35384211 10329748
0.76000011 0.045488026 0.35885045 11185056
0.75891668 0.055173915 0.35233226 9935248
0.76050001 0.05499265 0.35770413 10395797
0.75900006 0.060658168 0.35000178 9408902
0.76234996 0.064232826 0.35467142 10922143
0.76700002 0.071174264 0.35189527 10658971
0.77378571 0.074913904 0.35552326 9803918
0.78000003 0.078770399 0.35968563 8290939
0.77900004 0.080493063 0.35375351 7896435
0.78600007 0.084902503 0.35509035 8159605
0.79033333 0.089064866 0.35705069 8291191
0.78900003 0.091685206 0.35090637 8291191
0.79065239 0.094895728 0.35566574 8356984
0.79123348 0.10491198 0.35560447 8488570
0.79342306 0.11527778 0.35494563 8620156
0.78850007 -0.18133472 0.36406645 8618878
0.79238898 -0.18648386 0.36549917 8619133
0.77639997 -0.17132828 0.36311582 9670283
0.78370011 -0.1760599 0.36597809 8224120
0.76700002 -0.16135202 0.3608731 13222334
0.77328581 -0.16500349 0.36551422 10459799
0.76541668 -0.15460339 0.36490753 12170413
0.77300006 -0.15899503 0.36912492 9275524
0.75746667 -0.14433575 0.36383581 13223615
0.76116675 -0.14824617 0.3667419 11973291
0.75390482 -0.13498347 0.36538863 13290434
0.74875003 -0.12179913 0.36302236 12632502
0.75053853 -0.12639877 0.36475232 13092797
0.7476666 -0.11462191 0.36381122 12698296
0.75050008 -0.1165936 0.36892226 12961469
0.74765515 -0.10519583 0.36402577 12435124
0.74797201 -0.09518829 0.36505628 12171951
0.74807131 -0.084942721 0.36397791 11776936
0.75000006 -0.081400067 0.36867648 11842986
0.74858332 -0.07555031 0.36228514 10921628
0.75069237 -0.074782327 0.36739534 11711142
0.74900001 -0.065510727 0.36117122 10855065
0.75105894 -0.065430813 0.36557907 11052699
0.74890906 -0.054585543 0.36192438 11053469
0.7508235 -0.05496943 0.36691123 11447715
0.7486667 -0.044449087 0.36188719 10856089
0.75056249 -0.04500071 0.3669771 10855319
0.74850005 -0.034802586 0.36180678 10658710
0.75120002 -0.034927424 0.36662993 10658453
0.7485556 -0.026042737 0.36154133 10987675
0.75206673 -0.024755031 0.36652547 10329745
0.75391304 -0.014716528 0.36515567 10197904
0.7561819 -0.0048227236 0.3651208 10329488
0.75786662 0.0046824971 0.3654491 10592917
0.7586875 0.014954735 0.36445612 11053468
0.76000005 0.01981709 0.36825466 10724503
0.759 0.024085028 0.36229154 10592660
0.76000017 0.026112625 0.36647546 10790039
0.76040006 0.034959473 0.3648892 10723991
0.76099992 0.044784747 0.36517656 11251363
0.76264286 0.054576378 0.36539283 11053728
0.76630777 0.06303864 0.36441216 11448485
0.7715556 0.067482658 0.36602753 11777451
0.7750001 0.072218873 0.36423495 9803663
0.78337502 0.077509105 0.366743 8028020
0.7881667 0.083440654 0.36452863 8093557
0.79049999 0.087388158 0.36591554 8225141
0.79140007 0.09474349 0.36494395 8422264
0.79203326 0.10501821 0.36523637 8553848
0.78900003 -0.18075661 0.37122408 8487548
0.7929545 -0.18580246 0.37494001 8750975
0.78740001 -0.17510858 0.37477329 8158327
0.79033333 -0.17859542 0.37863567 8224376
0.77733332 -0.16352738 0.37180051 10197399
0.78380001 -0.16635659 0.37667021 8289657
0.76600003 -0.15038234 0.37116191 9472903
0.77369243 -0.15551856 0.37488917 9341829
0.75900006 -0.14012393 0.37132376 11645355
0.76390004 -0.1442472 0.37408268 9605002
0.7713334 -0.14902204 0.37856242 8947585
0.75840008 -0.13468641 0.37174097 12829886
0.76324999 -0.13621949 0.37630904 10066581
0.75687498 -0.12422822 0.372722 13027261
0.76150006 -0.12543128 0.3770045 13224128
0.75591677 -0.1144853 0.3743906 12829882
0.76099998 -0.11733269 0.3788352 13027262
0.75321054 -0.10527653 0.3748073 12566967
0.75094134 -0.095308021 0.37431133 11909037
0.75129169 -0.085054956 0.37371019 11645607
0.75373077 -0.074473329 0.37458441 11579814
0.75479996 -0.065134518 0.37457371 11711400
0.75385708 -0.055348046 0.37498674 11974315
0.75366676 -0.044745166 0.37518612 11842472
0.75536001 -0.035119675 0.37485203 10526354
0.75682145 -0.025696339 0.37532347 10527123
0.75826925 -0.014842154 0.3745181 10790295
0.76000005 -0.011318451 0.37892967 11579812
0.75887501 -0.0053054718 0.37326154 10790550
0.76000011 -0.004695971 0.3781389 10790038
0.75900006 0.0037995195 0.37191606 10593171
0.76038098 0.0050784978 0.37683183 10922136
0.75900006 0.010906851 0.37132376 10724757
0.76053119 0.015769569 0.37524575 11316640
0.7608999 0.025184631 0.37492746 11514019
0.76108313 0.034989771 0.375016 11185055
0.76151705 0.044692747 0.37507671 11185313
0.76419997 0.054818537 0.37476152 11251365
0.76842868 0.061926037 0.37465122 11580074
0.77350008 0.066650137 0.37539634 11448231
0.77800006 0.071891062 0.37151173 8618877
0.78577781 0.076397054 0.37573302 8159094
0.79000002 0.079780273 0.37909219 8159605
0.78900003 0.081526354 0.37214762 8093812
0.79200011 0.085988186 0.37537333 8159605
0.78900003 -0.17152131 0.3804594 8289912
0.79207993 -0.17508541 0.38580263 8356216
0.78808337 -0.16363569 0.38509211 8092531
0.79033333 -0.16780256 0.38634503 8224630
0.77760005 -0.15339054 0.38260707 7697774
0.78350002 -0.15680072 0.38583258 8092787
0.77488893 -0.14487104 0.38434041 8750719
0.78100002 -0.14601381 0.38940009 7632493
0.76900005 -0.13116863 0.38161677 8224376
0.77450001 -0.13573065 0.38593656 9079684
0.76666665 -0.12598403 0.38105735 12040367
0.77312499 -0.12531184 0.38683325 8553081
0.7647143 -0.11355921 0.38409641 11382438
0.77200007 -0.11662214 0.38912901 7368810
0.75816673 -0.10417864 0.38156536 12764091
0.76185715 -0.1047248 0.3857182 9211015
0.75749993 -0.094627313 0.38211825 12501174
0.76233339 -0.095230311 0.38723159 10329496
0.75728571 -0.085610859 0.38162968 11974830
0.76244444 -0.08423803 0.38669497 11843245
0.75700003 -0.075071193 0.38097823 11842986
0.76209092 -0.075169258 0.38613796 11908781
0.75781816 -0.06410528 0.3821972 11842987
0.76166677 -0.064538874 0.38709247 11842988
0.75731254 -0.054714333 0.38379705 11777451
0.76033336 -0.055526908 0.38858876 12040624
0.75715393 -0.044682033 0.38514853 11974830
0.75784004 -0.03523536 0.38495049 11777193
0.75880778 -0.025989275 0.38448459 11777191
0.76000005 -0.022290021 0.38841864 11645607
0.75900006 -0.018707028 0.38080025 10922140
0.76041389 -0.014730307 0.38515216 11382434
0.76107985 -0.0050978293 0.38481426 11053211
0.76176661 0.0047061564 0.38516244 11316640
0.76246661 0.01542021 0.3855167 11381662
0.76320016 0.025260525 0.38588756 11513762
0.76300013 0.03501419 0.38553074 11514021
0.76400006 0.045132369 0.3851853 11316643
0.7663669 0.054972198 0.3847965 11580588
0.76866674 0.061430711 0.38325158 11975347
0.77350003 0.065940149 0.38483173 10658974
0.78693336 0.075667687 0.38560161 8159349
0.79040003 0.07982067 0.38483658 8159605
0.79241377 0.085719645 0.38504735 8225398
0.793625 -0.18518424 0.39453125 9080708
0.79262054 -0.17493333 0.39532194 8882815
0.78900003 -0.16043893 0.39154175 8422009
0.7912727 -0.16502841 0.39494422 8685179
0.7876364 -0.15479985 0.3930454 8356216
0.79066664 -0.15584219 0.39761353 8619386
0.78666669 -0.14502589 0.39447913 7764080
0.79000002 -0.14862114 0.39758626 8159350
0.77900004 -0.13469799 0.3902266 8619388
0.78600007 -0.13535401 0.39576045 7633263
0.79000002 -0.13752472 0.39943561 7764847
0.77800006 -0.12359721 0.39215484 7500652
0.78385723 -0.125834 0.39633307 7698286
0.77525002 -0.11476895 0.39356589 7566445
0.78133339 -0.1149843 0.39871034 7895663
0.76850003 -0.10139924 0.3921631 7566189
0.77350003 -0.10613263 0.39562201 7632494
0.76900005 -0.096964024 0.39241824 7237482
0.77350003 -0.095044099 0.39652714 7434862
0.77240002 -0.084734842 0.39505923 7500653
0.77241665 -0.074792303 0.39506772 10197909
0.76750004 -0.064883783 0.39210227 11909038
0.77322227 -0.065318853 0.39739013 10395545
0.76475006 -0.054354481 0.39316198 12172211
0.77140003 -0.055732768 0.3983385 12171956
0.76300007 -0.044897679 0.39374352 12238002
0.75900006 -0.032625549 0.3908689 12501175
0.76326662 -0.035133973 0.39521492 12303795
0.75900006 -0.029960301 0.3908689 12303796
0.7616111 -0.024416575 0.39459482 12106159
0.76167852 -0.014654611 0.39428863 11580071
0.76235998 -0.0051063104 0.39438552 11514278
0.7628668 0.0047124415 0.39464653 11579813
0.76376683 0.015447474 0.39511168 11776935
0.76495993 0.025318969 0.39573067 11579813
0.76550007 0.035248958 0.39567369 11776936
0.76632154 0.044906653 0.39521617 11645865
0.76804352 0.053956628 0.39450988 11777710
0.77057153 0.059006143 0.39631394 11777453
0.77363157 0.064501926 0.39430106 10198679
0.78200006 0.069819003 0.39813676 8028020
0.78672731 0.073592119 0.39426535 8159605
0.79111111 0.077835508 0.39547071 8093812
0.7938 -0.13540193 0.40600505 7962225
0.78866673 -0.12467609 0.40122345 7961455
0.79166675 -0.12556495 0.40635338 7896431
0.78758335 -0.11528698 0.40482208 7896175
0.79025006 -0.11814334 0.40788728 7896431
0.77750003 -0.10258673 0.40039599 7764847
0.78444451 -0.10523451 0.40540335 7764847
0.77720004 -0.094358146 0.40024152 7633005
0.78500003 -0.095306076 0.40640351 7829870
0.77880007 -0.085436478 0.4010655 7566444
0.78583336 -0.085288204 0.40652716 7566698
0.77850008 -0.075383395 0.400911 6908260
0.7853334 -0.074511491 0.40657595 7303015
0.77733332 -0.063441843 0.40212992 7237225
0.78375006 -0.065803215 0.40682682 6974307
0.77569997 -0.054590125 0.40328446 8092533
0.78350008 -0.057524879 0.40898848 6974309
0.77425003 -0.044610132 0.40386263 10789790
0.78100002 -0.047283731 0.40951177 6710880
0.76900005 -0.030355034 0.40141946 12369589
0.7742309 -0.034884289 0.40554693 12040112
0.76800007 -0.025518814 0.40149751 12238003
0.773 -0.025488844 0.40632394 12238004
0.76733333 -0.015021906 0.40234569 12040624
0.77291673 -0.015132272 0.40798894 12303540
0.76728576 -0.0043696212 0.40283513 11843245
0.77187502 -0.0058480348 0.40766487 12040624
0.76626676 0.0052684429 0.40322369 11843243
0.77100003 0.0038584205 0.40832946 11974830
0.76566678 0.015612895 0.4037804 11908522
0.77000004 0.011966214 0.40915179 11711657
0.76714295 0.025134405 0.40507063 11710629
0.76738095 0.034894072 0.40468287 11184286
0.77066666 0.038137451 0.40950599 10921114
0.76775002 0.045631468 0.40301466 10921887
0.77120006 0.04538697 0.40798402 10461594
0.76871437 0.052951336 0.40204185 11580843
0.77188879 0.056167848 0.40543914 11251366
0.77546155 0.063372239 0.40493318 10000784
0.78225005 0.068470061 0.40558469 8093299
0.78750002 0.072155647 0.40462053 8159348
0.79291672 0.076675273 0.40585747 8093556
0.79230011 -0.11474223 0.41451225 8027761
0.78900003 -0.10502703 0.41001239 7896431
0.79190004 -0.1054126 0.41578573 8027761
0.78900003 -0.094683476 0.41001242 7830381
0.79256517 -0.095497124 0.41638416 7961968
0.78900003 -0.084709331 0.41001242 7698283
0.78900003 -0.076397553 0.41001242 7500905
0.7931053 -0.074696831 0.41605589 7632491
0.78800005 -0.062835656 0.41170686 7369320
0.79173338 -0.06510976 0.4168714 7501162
0.78711116 -0.054617979 0.41353649 7369320
0.79049999 -0.055879604 0.41788593 7501675
0.78654552 -0.0446053 0.41476583 7171688
0.79000002 -0.048753314 0.41792968 7435884
0.77900004 -0.034397077 0.41028675 7500653
0.78610003 -0.034709644 0.41605401 6974566
0.79000002 -0.036732189 0.41977909 7435630
0.77766675 -0.025237883 0.41140506 10000531
0.78399998 -0.026056359 0.41628584 6842725
0.77700001 -0.015213859 0.41287133 8421757
0.78200001 -0.015314856 0.41735885 6381917
0.77610004 -0.0052013062 0.41330352 10593182
0.78233337 -0.0034102809 0.41936818 5790550
0.77493328 0.0049670744 0.41346946 11382694
0.78150004 0.0011673102 0.41892147 6053461
0.77457148 0.014754341 0.41508189 11514024
0.77322221 0.024686525 0.41448802 12106414
0.77379996 0.034670327 0.41479757 11513765
0.77516675 0.044713009 0.41401771 9014917
0.78000003 0.042250518 0.41994342 7370091
0.77590907 0.054414403 0.41344959 10462622
0.78150004 0.056055989 0.4189215 8554365
0.77666664 0.06085819 0.41148233 11251368
0.78409094 0.065672882 0.41563684 8685694
0.78855556 0.071225211 0.41408944 8028019
0.7924211 0.076024592 0.41539949 8093812
0.79371423 -0.055219237 0.42467561 7895919
0.78833342 -0.023428723 0.42135468 7040357
0.79276478 -0.025509417 0.4268184 7566698
0.78722227 -0.014080618 0.42280924 6777442
0.79049999 -0.01516696 0.42713884 6975075
0.78718185 -0.0054390114 0.42414796 6251354
0.79083329 -0.0059143673 0.42917046 6646366
0.78613335 0.0054058195 0.4247216 6448220
0.79000002 0.0021053001 0.42902604 6448731
0.78545457 0.015296741 0.42589208 6974565
0.77900004 0.026695302 0.42122871 10133143
0.78542858 0.024554016 0.42707327 7303787
0.77900004 0.032166265 0.42122871 11515048
0.78491664 0.03531782 0.42642334 8883329
0.78560001 0.045497142 0.42492402 7633262
0.78721434 0.054882485 0.42554185 8093813
0.79000002 0.05758743 0.42902607 8028019
0.78778571 0.06454087 0.42334625 7962227
0.79042858 0.065813899 0.42820171 7962227
0.78900003 0.070443973 0.42109478 7962226
0.79240912 0.074883223 0.42519158 7962228
0.79350001 0.0048994641 0.43557394 6777952
0.78900003 0.015955608 0.4303301 7171940
0.79305881 0.01478194 0.43582401 7106660
0.78900003 0.02796152 0.43217716 7435884
0.79314291 0.024395654 0.43657225 7304296
0.78900003 0.034888007 0.43171537 7106917
0.79315382 0.035532635 0.43688387 7370088
0.78900003 0.041814491 0.4303301 7567468
0.79238904 0.045084957 0.43527353 7633517
0.79249996 0.054987174 0.43502402 7831153
0.79319048 0.065426074 0.43518177 7896946
