# .PCD v0.7 - Point Cloud Data file format
VERSION 0.7
FIELDS x y z rgb
SIZE 4 4 4 4
TYPE F F F U
COUNT 1 1 1 1
WIDTH 1850
HEIGHT 1
VIEWPOINT 0 0 0 1 0 0 0
POINTS 1850
DATA ascii
0.78850007 -0.1317265 0.018423326 15526374
0.78720003 -0.12506135 0.017470121 15724776
0.79368752 -0.12515754 0.012965446 13487300
0.78650004 -0.11482091 0.017454231 15067102
0.78730011 -0.10480003 0.017471755 14935262
0.78754544 -0.095110945 0.017393533 14803417
0.79409099 -0.095057324 0.01398812 13421507
0.78659999 -0.085186273 0.017456334 14737881
0.79399997 -0.08504118 0.013798526 13290177
0.78650004 -0.075234875 0.017454231 14540759
0.79417646 -0.074766606 0.013081554 13158591
0.78625005 -0.06508743 0.017448392 14474708
0.79306674 -0.06472446 0.012955125 13027004
0.78710008 -0.055021625 0.017467786 14540500
0.79381257 -0.05514013 0.012850878 13026747
0.78825009 -0.04657001 0.017724836 15132894
0.79373336 -0.044710737 0.014453035 12960697
0.78800005 -0.032949749 0.017488111 14343120
0.79407692 -0.035203263 0.014115421 12829625
0.78845459 -0.024578763 0.017582687 13948363
0.78750008 -0.014033318 0.017015247 13290434
0.79307693 -0.015025632 0.012671238 12040366
0.77800006 -0.0024799593 0.019999305 14606297
0.78626668 -0.0052679311 0.016526109 12698298
0.79170001 -0.0053046416 0.012009492 11908780
0.78646672 0.0040606228 0.016653452 12632250
0.79328579 0.005432616 0.012429602 11645608
0.78825009 0.015479263 0.017493952 13093056
0.78825009 0.025628747 0.017955717 13816522
0.79353338 0.024776865 0.01469651 11447716
0.78837502 0.035321772 0.017727757 13289663
0.78783339 0.046670169 0.017792061 13026490
0.78772736 0.055074349 0.01739778 12039597
0.78810006 0.064829923 0.017490448 11645609
0.78866673 0.075031482 0.018427221 11251108
0.78900003 0.084296942 0.018435009 11053472
0.77850008 -0.13096657 0.028212745 14736596
0.78641176 -0.13435835 0.024978546 14867929
0.79083329 -0.13797899 0.022487616 13091518
0.77447826 -0.12422218 0.025499636 15592418
0.78214294 -0.12687163 0.021150565 16185070
0.76812506 -0.11416346 0.028061925 15724005
0.77412492 -0.11512593 0.02298701 15790054
0.76658326 -0.10473541 0.027780972 15329248
0.77317667 -0.10526241 0.023383118 15987177
0.7802 -0.10385562 0.020055857 16382450
0.76720011 -0.094939381 0.027803343 16052970
0.77388239 -0.095127493 0.023406636 16382192
0.7802 -0.094723314 0.020055857 16514035
0.76825005 -0.08517959 0.02784157 15855591
0.77405006 -0.085005283 0.022880105 16185070
0.78000003 -0.089221045 0.020050716 16580084
0.76850003 -0.075312108 0.027850335 15658212
0.77425003 -0.074969344 0.02261322 16119533
0.76900005 -0.066359892 0.028169086 15395040
0.77378273 -0.064725637 0.023188576 15725032
0.77312905 -0.055097051 0.025120465 15527396
0.78120005 -0.054607309 0.020081565 16053996
0.77416015 -0.045056924 0.0253297 15264223
0.78383332 -0.044701058 0.020149255 15988202
0.77453357 -0.035106521 0.025342209 15264222
0.78340006 -0.034592763 0.020138118 15329502
0.77375007 -0.025108447 0.026226019 15263966
0.78250015 -0.02539145 0.021028209 15329502
0.7743215 -0.014897994 0.025596259 14803673
0.78212506 -0.016226836 0.02056184 15461346
0.77377784 -0.005251965 0.024915637 14606551
0.78000003 -0.0088773137 0.020050716 15132638
0.7737999 0.0046493537 0.024539804 14606294
0.78000003 0.009382627 0.020050716 14737883
0.77380013 0.014743142 0.025318477 14474451
0.78260005 0.014911549 0.020117551 15001055
0.77429998 0.024721626 0.025333017 14474451
0.78399998 0.025031289 0.020153539 14935259
0.77430451 0.034612276 0.025650486 14277072
0.78314292 0.035348881 0.020653218 14737367
0.77427608 0.044815306 0.025459858 14539988
0.78314292 0.044514965 0.02039236 14672087
0.77411115 0.055019125 0.025531391 14539988
0.78220004 0.055188637 0.020107269 14606295
0.77456534 0.064818405 0.025898518 14408403
0.78250003 0.065284841 0.021029148 14540758
0.77522737 0.075153045 0.026439358 14407891
0.78481829 0.075081669 0.021007551 14606551
0.77522719 0.085051402 0.026109912 14539991
0.7851001 0.084799707 0.021098325 13619400
0.77535301 0.09431766 0.026760418 14540249
0.7856155 0.095324114 0.021888882 13882060
0.77700007 0.10175214 0.028340396 15592422
0.78635287 0.10529523 0.025408193 13684681
0.79124999 0.10584177 0.021266075 10987422
0.78900003 0.11107937 0.029517386 11119263
0.78900003 -0.14012124 0.036905635 11446691
0.77700001 -0.13144298 0.036162205 14868182
0.78508335 -0.13621341 0.034424338 14209740
0.77210009 -0.12447248 0.035210885 15197660
0.76730001 -0.1147158 0.034992598 15658211
0.76561123 -0.10460192 0.034914881 15592418
0.76680011 -0.094889887 0.034969449 15460833
0.76799983 -0.085151561 0.035024405 15263198
0.76756662 -0.075220242 0.035003826 15263197
0.7682777 -0.065397054 0.035036687 15066074
0.76900017 -0.056028064 0.036283229 15066075
0.77015394 -0.052313048 0.032972503 14934489
0.76900005 -0.048357464 0.038670503 14934487
0.7702859 -0.044574048 0.034869716 14868696
0.76900005 -0.031555194 0.038070422 14671316
0.77023351 -0.035572689 0.034524117 14803159
0.76900005 -0.025211487 0.037898969 14144973
0.77037513 -0.024773311 0.032652121 14540242
0.77094448 -0.015089408 0.035156801 14013898
0.77193326 -0.005171285 0.035203788 13816777
0.77177763 0.0047662724 0.035197601 14079693
0.77083331 0.014685187 0.035153426 14079180
0.76900005 0.027252736 0.039120562 14013387
0.77000028 0.024246316 0.034608644 13881801
0.77045727 0.035293002 0.035264015 13815751
0.7713871 0.0452209 0.035031348 13947338
0.77091664 0.055293422 0.035155311 14078924
0.77113336 0.065238938 0.035164103 14276816
0.77149999 0.075202733 0.035180122 14342097
0.76900005 0.086660765 0.039570622 14013387
0.77107418 0.084888063 0.034660026 14473684
0.76900005 0.092961602 0.038970541 14211282
0.77090007 0.095358089 0.034372225 14408406
0.77499998 0.10356167 0.035610452 14671577
0.78216672 0.10798194 0.03414394 11645098
0.78744441 0.11188573 0.035191566 10922141
0.79380006 0.11733519 0.035269048 11053727
0.78900003 -0.14196829 0.046140958 11578022
0.79335296 -0.14614327 0.04464402 11644329
0.77600002 -0.13145548 0.045380712 15065562
0.7842778 -0.1374518 0.04494426 13881290
0.77200007 -0.12445597 0.045146793 15263197
0.76756006 -0.11475424 0.044887695 15592162
0.76590019 -0.10464162 0.044790462 15197661
0.76656008 -0.094860427 0.044828665 15395040
0.76723349 -0.085066676 0.044867177 15263197
0.76700014 -0.075165108 0.044854388 15197145
0.76809996 -0.065380313 0.044918563 15328988
0.76900035 -0.054658309 0.044971351 15197146
0.76900005 -0.048057422 0.044371273 14934231
0.77000022 -0.043771576 0.045219578 14868694
0.77026683 -0.034912512 0.045046449 14802901
0.76900005 -0.02495431 0.041370865 14802903
0.77036375 -0.024998875 0.045544099 14539729
0.77070004 -0.015085037 0.045071397 13947592
0.77175993 -0.0051690941 0.045132939 13881543
0.7719999 0.00476823 0.045146782 13816007
0.77072012 0.01468184 0.045071937 14013386
0.76900005 0.026352614 0.044971351 13816007
0.77000004 0.020979133 0.04502983 13881800
0.76900005 0.03405365 0.046271522 13553091
0.77000004 0.037352603 0.043077033 13750471
0.77008027 0.045318808 0.045034137 13618885
0.76900005 0.057496812 0.045811459 14013644
0.77000016 0.052884866 0.044188622 13882057
0.76848006 0.065013096 0.04493925 13750985
0.76763356 0.074825287 0.044888455 13948108
0.76804006 0.084755145 0.044912867 14211024
0.76900005 0.092961602 0.044971351 14079696
0.77089995 0.098606177 0.045083635 14606039
0.77519995 0.10369523 0.045334704 13882315
0.78200006 0.1082632 0.044816256 9934735
0.787 0.11227451 0.045656923 10263954
0.79214281 0.11735264 0.044469826 10593176
0.78800005 -0.14178836 0.055306084 11445922
0.79205883 -0.14633894 0.054934509 11512229
0.77626669 -0.13204728 0.055572558 14736854
0.78375006 -0.13781644 0.054551303 14472912
0.76900005 -0.12036718 0.05847317 15460577
0.77157158 -0.12464423 0.054797404 15065562
0.76763338 -0.11476456 0.054774962 15000282
0.76666677 -0.10474662 0.054707553 15000538
0.76703346 -0.094919711 0.054733191 15592417
0.76758325 -0.085104808 0.054773595 15460831
0.76753342 -0.075216904 0.054770216 15263195
0.76859999 -0.066180043 0.053441539 14934486
0.770091 -0.063831456 0.058146548 15329243
0.76900005 -0.056458559 0.050372079 15328732
0.7701565 -0.054515351 0.055519432 14737364
0.76900005 -0.048357464 0.050372079 14737108
0.77000028 -0.044690862 0.05509945 14605779
0.7709167 -0.03494079 0.055009618 14539729
0.77179986 -0.025045322 0.055073567 14013385
0.77174985 -0.015106509 0.055070173 14079178
0.77263331 -0.0051755072 0.055133224 14013385
0.77191651 0.0047659921 0.055080637 13815493
0.77040011 0.014676305 0.054972574 13947336
0.76900005 0.026622649 0.054062575 13881543
0.77000016 0.021993084 0.055957999 13815751
0.76900047 0.035353824 0.054872695 13684934
0.76900005 0.041954722 0.056372892 13553604
0.77000022 0.046140198 0.054568511 13685190
0.76900005 0.057383116 0.053972557 13289920
0.77000016 0.052736416 0.055951368 13421505
0.76810002 0.064980134 0.054810461 13355970
0.76647246 0.074711114 0.054693118 13816522
0.7663669 0.084571153 0.054684266 13684938
0.76831579 0.092170171 0.055059321 13619145
0.77141178 0.097876385 0.054779697 13882572
0.77600002 0.10369586 0.055104885 14079692
0.78200006 0.10826321 0.054884978 9868682
0.7874667 0.11270978 0.05526913 10000524
0.7917273 0.11803541 0.05506096 10000782
0.78850007 -0.14280185 0.064570643 11577767
0.792 -0.14714447 0.064857259 11512231
0.77650011 -0.13256554 0.065063819 14999512
0.78366667 -0.13825853 0.065091141 14472911
0.76900005 -0.12036718 0.062073655 15131866
0.77139139 -0.12467064 0.065210961 15000025
0.76872724 -0.11451706 0.064342961 15394782
0.77000004 -0.11812026 0.067862563 14802903
0.76853347 -0.10500135 0.064736262 15263195
0.76811987 -0.09505441 0.064701378 15394781
0.76846671 -0.085201591 0.064729095 15329245
0.76884019 -0.075344674 0.064760357 15329245
0.77000004 -0.07005135 0.066660836 15131609
0.76900005 -0.068880223 0.064774022 15197402
0.77068192 -0.064207621 0.064669877 15131866
0.77096665 -0.054798294 0.064939529 14802901
0.77052009 -0.044845253 0.064903282 14802899
0.77136648 -0.034961086 0.064973757 14276555
0.77251989 -0.025067594 0.065069668 14342349
0.77226663 -0.015118163 0.065049008 14145486
0.77187997 -0.0051711155 0.065016046 14277072
0.77136666 0.00476303 0.064972818 14277328
0.77024019 0.01467363 0.064878285 13882056
0.77000028 0.024584303 0.064858243 13618885
0.76900005 0.036253951 0.061173536 13224387
0.77000022 0.035219546 0.065579288 13158334
0.76895839 0.045402545 0.064770319 13355972
0.77000004 0.041708846 0.064858258 13224387
0.76887506 0.053010333 0.065550521 13684678
0.7700001 0.05767459 0.063956961 13552834
0.76900005 0.068658322 0.061173536 12434355
0.77033347 0.065021001 0.065037623 13158077
0.76791668 0.075675175 0.064084537 13158078
0.7701667 0.071767181 0.067276515 12697013
0.76617157 0.085316487 0.065561406 13355714
0.76772225 0.093407802 0.065065011 13487813
0.77130002 0.098657809 0.064966582 13816521
0.77568746 0.10387424 0.064995244 13618885
0.78200006 0.1082632 0.064953692 11184287
0.78735727 0.1122985 0.064607479 9737352
0.79191679 0.11751714 0.065159641 9935244
0.78850001 -0.14280187 0.07472305 13223102
0.79291672 -0.14731528 0.07514327 11314850
0.77583337 -0.13233718 0.075337552 14934232
0.78360003 -0.13824689 0.075175911 14605011
0.77210003 -0.12446968 0.074976489 15131353
0.76900005 -0.11181602 0.076475598 15921124
0.77011561 -0.11561905 0.074506477 15197402
0.76900005 -0.10776549 0.07351806 15460574
0.77000028 -0.10454909 0.075052164 15394525
0.76900005 -0.09439224 0.070689104 15328730
0.77000022 -0.09552265 0.07598725 15789281
0.76900041 -0.085235156 0.074375309 15855330
0.77000004 -0.085673749 0.078077197 15657695
0.76900035 -0.075618282 0.074932538 15592158
0.77000004 -0.07077238 0.071708068 15065558
0.7689445 -0.06635496 0.076769926 15460315
0.7700668 -0.063567333 0.072795704 15131351
0.76900005 -0.058258802 0.079175964 15855074
0.77047074 -0.054549325 0.074552596 15263195
0.77126658 -0.044887893 0.074896008 15263195
0.77194428 -0.034988839 0.074961595 15328730
0.77203327 -0.025052816 0.074969701 15328730
0.771972 -0.015111314 0.074963808 14605522
0.77116662 -0.0051668514 0.074885324 14211021
0.77099997 0.0047620535 0.074869588 14145484
0.77020019 0.014672962 0.074791878 14014155
0.76900005 0.027852818 0.077975802 14210764
0.77000028 0.02392335 0.074111499 13750213
0.76895243 0.036165755 0.076513566 13290177
0.77000016 0.034258168 0.072188757 13421504
0.76840007 0.045219 0.074615911 13618885
0.76829171 0.05330902 0.074606337 13552837
0.77000004 0.05883339 0.074772462 13552836
0.77086663 0.065217003 0.074856073 13487043
0.7689231 0.078343995 0.074322134 12829111
0.77047837 0.073180817 0.07501509 12960697
0.76749998 0.084900893 0.075291283 13027263
0.76811117 0.092855841 0.075088844 12961472
0.77121431 0.098260209 0.075406827 13356229
0.7751112 0.10368323 0.075269312 13159104
0.78200006 0.10826321 0.075022414 13487556
0.78735727 0.11243027 0.075536363 9737610
0.7924667 0.11750689 0.074542657 9935244
0.78790003 -0.14269391 0.084810644 14341071
0.79300004 -0.14733119 0.085358918 11183264
0.77544445 -0.13317969 0.085285343 15065303
0.78262508 -0.13853228 0.084242187 14670546
0.76650012 -0.1233872 0.087886766 15460062
0.77161115 -0.12539418 0.083960243 15197403
0.74800003 -0.11182692 0.089271381 14735827
0.75600016 -0.1144404 0.088275842 15722977
0.76542866 -0.11511464 0.083834864 15526110
0.77000004 -0.11872112 0.08108151 16184552
0.73750007 -0.10248967 0.089744747 15526113
0.74570012 -0.10467726 0.088297158 15460318
0.7560001 -0.10539842 0.08600153 15460317
0.76600009 -0.10543151 0.082568385 16118245
0.77000004 -0.10159657 0.08108151 15131351
0.7335 -0.095066033 0.089257985 15394524
0.74300003 -0.094455846 0.087898731 15657696
0.75627285 -0.094874643 0.085748643 15986915
0.76635724 -0.09483321 0.082871556 15789535
0.77000004 -0.097991407 0.08108151 15657950
0.73550004 -0.084984958 0.089501359 15854817
0.74520004 -0.084707364 0.088236548 16117988
0.75633335 -0.085333258 0.08642862 16118245
0.76581824 -0.084910087 0.083077736 16184036
0.73900002 -0.079341188 0.089927271 16052453
0.74650002 -0.075772226 0.089092366 16184293
0.75558335 -0.074925348 0.087520152 16118245
0.76442856 -0.075167388 0.083298802 16315109
0.75600004 -0.068773471 0.088805154 16118501
0.76466674 -0.064735353 0.084633149 15986914
0.76822221 -0.057099596 0.086187609 15921121
0.77012515 -0.052371651 0.08413668 15657949
0.77107996 -0.044877 0.084805176 15526364
0.7719999 -0.034991618 0.084906615 15394523
0.77143997 -0.025034983 0.084844217 15263195
0.76900005 -0.012866961 0.089205898 14868179
0.77059263 -0.015385269 0.084349364 15000280
0.76900005 -0.0074019386 0.089527361 14868179
0.7704168 -0.0050108125 0.084580921 14671315
0.77040017 0.0047583478 0.084729247 14408143
0.77004027 0.014670663 0.084690876 14013385
0.76900011 0.026738379 0.085776865 13947592
0.7700001 0.021603104 0.084409356 14013385
0.76808333 0.035309058 0.085373856 14013642
0.76720011 0.045149624 0.085275732 13882056
0.76841187 0.054851919 0.085622251 13816007
0.77000004 0.059734683 0.081982806 13289406
0.76900005 0.062057432 0.089377344 13947592
0.77020854 0.065310858 0.084558584 13684163
0.76900005 0.07909973 0.083136506 13486787
0.77004021 0.074231125 0.084979296 13618372
0.76890004 0.084759347 0.083756045 13158080
0.77000004 0.085331373 0.087931335 13289410
0.76900005 0.091161363 0.081876338 12698300
0.77157712 0.095639117 0.08527717 13421509
0.77533334 0.10371244 0.085273243 12961211
0.78066665 0.10807861 0.084943317 13947849
0.78674996 0.11249319 0.085029617 10987163
0.79169995 0.11794762 0.08521805 9869452
0.78658336 -0.14245583 0.094796389 14538448
0.79145455 -0.14695941 0.09496066 11183006
0.77438897 -0.13390315 0.095139772 14933205
0.78079998 -0.13866496 0.09501148 14472654
0.757375 -0.12187213 0.095040694 15196377
0.76330006 -0.12573159 0.094669081 14867412
0.7701667 -0.12956466 0.094620384 14933205
0.73487502 -0.11201494 0.096945837 14867411
0.74531251 -0.11513523 0.094290785 14801362
0.75375003 -0.11886099 0.092599466 15393500
0.72538894 -0.10373276 0.096850544 15131096
0.73273343 -0.10622919 0.093162999 15196633
0.74266672 -0.10755473 0.090373456 15065305
0.71899998 -0.092529684 0.097966723 15394525
0.72244823 -0.095465511 0.094144516 15394524
0.73066664 -0.097262822 0.090623707 15591904
0.71899992 -0.084768303 0.097592682 15394781
0.72242105 -0.085303821 0.092800334 15526366
0.73120004 -0.083636679 0.090689853 15460316
0.71899992 -0.075663753 0.098357752 15066072
0.72261912 -0.07484483 0.09461385 15460573
0.73345453 -0.074059315 0.091747351 16052453
0.74300003 -0.074547835 0.090414025 16315625
0.71900004 -0.066253185 0.099275865 14868694
0.72388238 -0.065555982 0.097053468 15394780
0.73324996 -0.064986177 0.094805628 15591902
0.74585724 -0.066605158 0.092506431 16315882
0.75537503 -0.064300701 0.092357971 16578797
0.76099998 -0.061511502 0.092009783 16249831
0.72550005 -0.059209298 0.099320047 15394780
0.73300004 -0.056384303 0.099150226 15460316
0.74566674 -0.053877339 0.098300792 16184039
0.75477773 -0.054923683 0.097144954 15986404
0.7656191 -0.054626472 0.093929328 16183782
0.77000004 -0.050823793 0.090695284 16118500
0.74750006 -0.047879837 0.09971118 15855074
0.75716668 -0.046428394 0.098931968 16117989
0.76443756 -0.045162715 0.096819244 15985890
0.77056259 -0.044283148 0.092301682 15855328
0.76622224 -0.036619198 0.099015698 15591132
0.77170002 -0.03467638 0.093965292 15657693
0.76900005 -0.023154065 0.098978639 15262937
0.77100003 -0.025083307 0.094567008 15460316
0.76871425 -0.013462565 0.095171839 15065559
0.77000004 -0.018759647 0.094846696 15131353
0.76900023 -0.0053016557 0.095528178 14868180
0.77000004 -0.0021540276 0.090695284 14868179
0.77000028 0.0047558774 0.094600864 14539473
0.76900005 0.017051362 0.094177991 14144971
0.77000016 0.013640041 0.094729647 14342350
0.76900005 0.02565252 0.094378024 14013128
0.7700001 0.022652959 0.096017204 14144714
0.76850015 0.035586175 0.095060214 13749957
0.77000004 0.031794637 0.099107347 13618627
0.7677201 0.04517993 0.095221728 13882314
0.76843333 0.055117618 0.095309034 13882058
0.76900017 0.064823024 0.095691234 13882057
0.77000004 0.067305535 0.090815455 13750213
0.76900029 0.075259216 0.095778197 14078925
0.77000004 0.07415536 0.090695292 13750214
0.76900005 0.081260026 0.09627828 13947340
0.77000022 0.085525498 0.094323568 13815754
0.77211124 0.09514866 0.094860591 13816008
0.77586961 0.10457593 0.09512379 13224126
0.78630441 0.11366725 0.095362216 11053213
0.79033333 0.11835959 0.093706094 9737867
0.78687501 -0.14331652 0.10530649 13749449
0.79116672 -0.14791454 0.10460738 10722971
0.77387506 -0.13370179 0.10537833 14472655
0.78066677 -0.13864128 0.10504759 14406607
0.74640006 -0.12102296 0.10655098 14932949
0.755 -0.12326083 0.1040262 14538448
0.76387507 -0.12761545 0.10547168 14604241
0.77000004 -0.12953663 0.10181122 14867412
0.72587508 -0.11170301 0.10701349 14998997
0.73339999 -0.11491337 0.10549841 14603983
0.74280006 -0.11800702 0.10360567 14340555
0.71899992 -0.10321867 0.10769182 15460317
0.72186369 -0.10600252 0.10389169 15394523
0.7188285 -0.094724998 0.1052613 15328730
0.72000003 -0.09921322 0.10109947 15526109
0.71805573 -0.084657736 0.1050274 15262939
0.71775013 -0.074538723 0.10498209 15000024
0.71794468 -0.064474352 0.10501076 15066073
0.71888 -0.055370063 0.10632713 14934487
0.7223078 -0.053226605 0.10245915 15329244
0.73275006 -0.052506369 0.10074247 15394780
0.71899998 -0.045213286 0.10895421 14868694
0.72260875 -0.044484161 0.10528356 15263451
0.73333329 -0.045541067 0.10220668 15394780
0.74371433 -0.045517642 0.10119504 15657695
0.7536667 -0.042680781 0.10053376 16052453
0.71900004 -0.035955727 0.10937501 15000280
0.72204757 -0.034296796 0.10661414 15197402
0.73355556 -0.035252482 0.10395438 15394523
0.74528569 -0.034410667 0.10290059 16183782
0.75600004 -0.037512615 0.10143105 16315112
0.76257145 -0.032393802 0.10095375 15591132
0.72463644 -0.026751898 0.10822191 14803414
0.73329997 -0.024141831 0.10725458 15000022
0.74533337 -0.027096203 0.10494462 15920354
0.75557148 -0.025277371 0.10457427 16052196
0.76466662 -0.024334403 0.10211517 15591645
0.73300004 -0.018638195 0.10978874 14934485
0.74449998 -0.017184209 0.10933055 15065815
0.75749999 -0.013941201 0.10902408 15262167
0.76609677 -0.014620181 0.10420761 15197144
0.76716679 -0.0051383385 0.10502072 14999765
0.76783341 0.0043683224 0.10668915 15065045
0.77000004 0.0055069537 0.10226186 14801874
0.76854181 0.014793397 0.1062644 14736080
0.77000004 0.014069227 0.10121036 14605009
0.76900005 0.02152469 0.1069979 14407372
0.77000022 0.025918214 0.10465931 14210250
0.76900005 0.038954318 0.10077889 13816263
0.77000028 0.035187732 0.1056815 14013385
0.76900005 0.045255166 0.10077889 14014155
0.77000022 0.045078896 0.10600419 14013385
0.76900005 0.05595661 0.10277917 14145229
0.77000016 0.054645035 0.10780215 14276557
0.76841366 0.065131031 0.10504489 14342351
0.77000004 0.06153727 0.10992285 14079178
0.76813895 0.074875772 0.10516253 14276559
0.76900005 0.082060128 0.10397931 14210767
0.77000016 0.086172581 0.10597433 14079181
0.77187109 0.094973803 0.10494281 14144973
0.77614295 0.10486158 0.10508838 13355969
0.78600001 0.114204 0.10505804 11316899
0.79217249 0.12463954 0.10490108 9869451
0.7860589 -0.14404213 0.11502885 13617607
0.7908572 -0.1489155 0.11448789 10986145
0.75666666 -0.13083631 0.11864374 14670034
0.76550007 -0.13236134 0.11464781 14867413
0.77485716 -0.13696426 0.11502053 14801620
0.78000003 -0.13852289 0.11135042 14604241
0.727 -0.12060083 0.11824945 14406860
0.73400009 -0.12225301 0.11607165 14604240
0.7437501 -0.12490552 0.11531774 14538191
0.755 -0.12789632 0.11351816 14801620
0.7615 -0.12899859 0.11138403 14604241
0.71900004 -0.11127858 0.11821178 15328475
0.72250003 -0.11492533 0.11554053 15196376
0.73125005 -0.11873836 0.11294978 15064534
0.71785724 -0.10468185 0.11520065 15262939
0.72000003 -0.10932642 0.11121266 15328732
0.71699977 -0.094603896 0.11494263 15197402
0.71633315 -0.084455006 0.11483601 14999767
0.7161665 -0.074374378 0.11480913 15000024
0.7165553 -0.064349234 0.11487247 14868694
0.71775019 -0.054374803 0.11506458 14605522
0.71841675 -0.044335399 0.11517101 14539729
0.71871424 -0.034378879 0.11533923 14474192
0.72000003 -0.030106371 0.11121266 14737108
0.71899992 -0.025976803 0.11755053 14211021
0.72186965 -0.023200272 0.11325974 14540242
0.71900004 -0.019965405 0.11947417 14408143
0.72325933 -0.015504043 0.11659852 14277070
0.73316669 -0.013778578 0.11252811 14671058
0.74383336 -0.012526582 0.1114094 14802387
0.75100005 -0.010305365 0.11072668 15656925
0.72531247 -0.0068723885 0.11818369 14408144
0.7337501 -0.0047734682 0.11562174 14539473
0.74512506 -0.0052091149 0.11356513 14802131
0.75644451 -0.0048708785 0.11192009 15064788
0.76075006 -0.0042050243 0.11038327 15196374
0.72666669 0.0044897911 0.11904698 14605522
0.73370588 0.0042786719 0.11685955 14605009
0.74592316 0.0049416623 0.11454149 14670802
0.75699997 0.0037884675 0.11279118 14801874
0.76144445 0.0055932719 0.1110771 14933972
0.72825003 0.013024291 0.11930637 14408143
0.73314291 0.015318987 0.11789735 14605265
0.74355561 0.014168609 0.1160099 14736595
0.75587505 0.015066412 0.11409751 14802387
0.76292312 0.015638057 0.11206989 14933972
0.73457146 0.023089288 0.11935641 14276557
0.74371433 0.025860334 0.11885435 14407886
0.75574994 0.024792716 0.11651082 14473423
0.76594442 0.025150813 0.11352066 14670800
0.77000004 0.02909076 0.11172543 13881284
0.75716668 0.033335939 0.11842991 14408143
0.76613808 0.035376914 0.1149279 14341836
0.77000004 0.039906263 0.11172543 13683905
0.76669997 0.044763044 0.11716364 14539216
0.77018183 0.046144709 0.11207912 14210251
0.76871437 0.052436981 0.11770846 14407630
0.77004194 0.055831838 0.11436012 14341837
0.76900005 0.066858076 0.11158033 14144973
0.77013648 0.064908691 0.11584317 14341838
0.76900005 0.075368322 0.11239862 14210766
0.77010548 0.074829116 0.11695956 14210510
0.77000022 0.084970862 0.1153306 14078923
0.77145714 0.095197104 0.11477432 13881800
0.77526087 0.10449391 0.11501248 13552834
0.78632134 0.11439135 0.11501275 11250592
0.79167992 0.12443338 0.11487067 9869451
0.77900004 -0.1419926 0.12762055 13354690
0.78643739 -0.14531004 0.12492438 13157312
0.79083329 -0.14970359 0.12492979 10525593
0.74800003 -0.13108882 0.12954625 14472653
0.75400007 -0.13214034 0.12616205 14406861
0.76357144 -0.13535078 0.12534109 14472655
0.77366668 -0.13890849 0.12433282 14077642
0.71900004 -0.12095693 0.12957332 14736595
0.72457153 -0.12213867 0.12597124 14736082
0.734375 -0.12526703 0.12504159 14472654
0.74475002 -0.12834269 0.12287568 14406862
0.71803457 -0.11418928 0.12586196 14999511
0.72071427 -0.11835383 0.12289131 14998997
0.71514708 -0.10465305 0.12449328 14999767
0.71369237 -0.094787993 0.12501371 14736852
0.71307504 -0.085280329 0.12528785 14605266
0.71297675 -0.075342238 0.12506823 14736852
0.71482497 -0.064777762 0.12480198 14802645
0.71669412 -0.05429491 0.12496136 14671315
0.71750003 -0.044278532 0.12510198 14605266
0.71794462 -0.034221962 0.12518096 14276301
0.71836674 -0.024992477 0.12525317 14276300
0.71883863 -0.016106403 0.12596075 13947335
0.72000003 -0.013588148 0.12166297 14276557
0.71899992 -0.0077240099 0.12804314 14013127
0.7210356 -0.0045876023 0.1240286 14079178
0.72272509 0.0042976434 0.12490802 13947591
0.72477764 0.014658626 0.12467018 14144971
0.72609097 0.024651656 0.1252825 13882314
0.73250002 0.027675562 0.12085789 14079949
0.72766674 0.034388259 0.12707709 13816264
0.73313338 0.035935346 0.12330546 14145487
0.74371433 0.03481473 0.12109237 14145484
0.75700003 0.039232522 0.12047206 14802901
0.72875005 0.043740362 0.12962438 13816006
0.73299998 0.044638202 0.12705052 14013644
0.74409097 0.044898283 0.1244328 14210766
0.75649995 0.046284091 0.12260066 14473936
0.76200002 0.047075965 0.12081947 14473679
0.73549998 0.053617842 0.12867159 14013387
0.74485731 0.055168748 0.12725453 14144971
0.75589997 0.055100758 0.12507083 14408143
0.76421064 0.055050641 0.12180191 14539729
0.73900002 0.060789805 0.12971756 14079180
0.74650007 0.064247578 0.12862954 14144971
0.75566667 0.064812981 0.12703712 14276301
0.76450002 0.065122627 0.12353669 14276557
0.77000004 0.066945024 0.12073835 14013386
0.74800003 0.072036631 0.12954625 14079178
0.75637496 0.073950499 0.1290013 14276557
0.76566666 0.075188011 0.12551343 14210764
0.77000004 0.07559742 0.12145939 14144972
0.75900006 0.081091747 0.12967452 14802901
0.7666316 0.084318109 0.12700467 14079179
0.77000004 0.08542151 0.12209029 13881801
0.76850003 0.091102675 0.12859839 14013387
0.77128124 0.095497295 0.12500085 13882314
0.77512509 0.1052756 0.12517083 13619397
0.78066665 0.10990616 0.12241014 13882056
0.78622741 0.11529655 0.12511969 10790298
0.78900003 0.12068409 0.12704232 9869196
0.79035503 0.12583359 0.12446563 9869196
0.79026681 0.13530847 0.12484024 9934989
0.77775002 -0.14176476 0.13651471 14406862
0.7869333 -0.14614518 0.1353056 13551554
0.79000002 -0.14954583 0.13312143 10525591
0.75833338 -0.1352673 0.13429572 14340813
0.76775002 -0.13814469 0.13565834 14209483
0.77250004 -0.13899937 0.13107499 14341069
0.717875 -0.12406072 0.13651127 14604753
0.72350001 -0.12637199 0.13334566 14736340
0.73400003 -0.12691697 0.13055821 14276046
0.71554554 -0.11489701 0.13458161 14736852
0.71276307 -0.1052868 0.13525344 14473680
0.71160537 -0.095734179 0.13542838 14342094
0.71119463 -0.085512988 0.13565773 14210765
0.71161115 -0.075566985 0.13573681 14276814
0.71239519 -0.065507248 0.13493474 14342093
0.71394598 -0.055598427 0.13466638 14473936
0.71562159 -0.045405846 0.13475831 14408143
0.71688551 -0.035441089 0.13513719 14407887
0.71711427 -0.025668669 0.1352284 14341837
0.71738881 -0.015721921 0.13515928 14078665
0.71830559 -0.0056509562 0.13533181 13881542
0.71899992 0.0028628849 0.13756849 13684163
0.72054553 0.0059083458 0.13368419 13618369
0.71900004 0.014540029 0.13967247 13618628
0.72094458 0.014579479 0.13414016 13749956
0.71900004 0.022955989 0.13967247 13289662
0.72118413 0.024892224 0.13449426 13618371
0.72271061 0.034742489 0.13477686 13355455
0.7250278 0.045215819 0.13489644 13552834
0.73100001 0.049864024 0.13002458 13816778
0.72643745 0.055293486 0.13569127 13750214
0.73087496 0.055630207 0.1306432 14013900
0.72690916 0.064977273 0.13687299 13816264
0.73275 0.064995319 0.13183293 14079693
0.74220002 0.066269293 0.13027926 14144973
0.72788244 0.074209608 0.1377877 13948106
0.73288232 0.075022176 0.13398813 14145743
0.74430001 0.075168885 0.1315171 14144972
0.75266665 0.077774413 0.13035448 14605522
0.72816676 0.084615715 0.1388952 14145742
0.73386675 0.084764697 0.13602792 14079950
0.74466676 0.084353797 0.13375945 14145486
0.75585717 0.084929816 0.13166319 14342351
0.76175004 0.088073552 0.13058916 14605522
0.72790915 0.094423659 0.13892335 14277329
0.73357147 0.09493079 0.13734886 14277329
0.74388897 0.095051415 0.13637675 14079950
0.75574994 0.094233751 0.13464494 13882058
0.76415384 0.095333375 0.13275129 14277329
0.77050006 0.098554783 0.13163927 13882571
0.72875005 0.10345095 0.13986048 14343122
0.73250002 0.10354874 0.13821955 14540501
0.76575005 0.10242821 0.13530728 13882571
0.77370012 0.10585172 0.1332715 13685191
0.73199999 0.11076476 0.13877058 14343638
0.77550006 0.1119002 0.13884588 11184286
0.78509521 0.11526183 0.13483202 10263954
0.78900003 0.12100732 0.13433823 9803403
0.79027277 0.12656425 0.13518621 9803403
0.79196 0.13560061 0.13530853 10000782
0.77600002 -0.14144577 0.14166209 14538448
0.7884286 -0.14766736 0.14445922 12827317
0.71742857 -0.12477474 0.14512666 14341582
0.71303117 -0.11479175 0.14471875 14539216
0.71188569 -0.10552402 0.14538522 14210508
0.71133351 -0.095521122 0.14567825 14144714
0.71141678 -0.085539706 0.14569545 14013129
0.71133351 -0.075538203 0.14567833 13881800
0.71199995 -0.065741368 0.14514194 13749956
0.71365714 -0.055614956 0.14460286 13881799
0.71538889 -0.045822021 0.14483219 14210508
0.71602768 -0.03580641 0.14495979 14144971
0.71599984 -0.025749283 0.14495401 14078921
0.71638858 -0.015698642 0.14503467 13750213
0.71747231 -0.0056445263 0.14525419 13553091
0.71850002 0.004438506 0.14546098 13750469
0.71894437 0.014539167 0.14555208 13420992
0.71899992 0.024518952 0.14568387 13157819
0.72000003 0.028887283 0.14155225 13158076
0.71899998 0.032213543 0.14808843 13223869
0.72030002 0.035869613 0.14419554 13289662
0.72080952 0.044950724 0.14508276 13420992
0.72116649 0.055102553 0.14515364 13421248
0.72171807 0.065088317 0.14487486 13618371
0.72351515 0.07522314 0.14501025 13618627
0.72442853 0.08488299 0.14493777 13816007
0.72500002 0.094682112 0.14487691 14144972
0.72679996 0.10475546 0.14555782 14211279
0.73000002 0.10903918 0.14067002 14211794
0.72799999 0.11367671 0.14770365 13816520
0.73079997 0.11508971 0.14378759 14079950
0.74500006 0.11883729 0.14472321 12698300
0.78760004 0.11752186 0.1423035 9737610
0.72900003 0.12140488 0.14844146 9606281
0.73133332 0.12065182 0.14663331 12895161
0.77500004 0.12725125 0.14692241 9540490
0.78900003 0.12031468 0.14034118 9737610
0.79033345 0.12568413 0.14397001 9737611
0.77800006 0.13138649 0.14931245 9671817
0.78600001 0.13089745 0.14900775 9606281
0.79281479 0.13547328 0.14486775 10000782
0.72300005 -0.1334824 0.15906763 13748678
0.73000002 -0.13135216 0.15548086 13354172
0.71807408 -0.12379204 0.1557436 13815237
0.72033334 -0.12877001 0.15510869 13617345
0.714625 -0.11473271 0.15518889 13815493
0.71416146 -0.1050416 0.15518516 13815494
0.71400017 -0.094875403 0.15541883 13684164
0.71372432 -0.084981628 0.15535802 13552834
0.71337926 -0.075265221 0.15522522 13487041
0.71430779 -0.064854197 0.15475632 13421249
0.71574271 -0.054630253 0.15503085 13487040
0.71500009 -0.045275595 0.15458754 13552577
0.71455574 -0.035733797 0.15469903 13552576
0.7149446 -0.02571041 0.15478452 13355198
0.71563882 -0.015681913 0.15493387 13026747
0.7170831 -0.0056419875 0.15524679 13092540
0.7174443 0.0044314009 0.15532435 13026490
0.71830565 0.014527841 0.1555118 13289406
0.71899992 0.02463918 0.1556628 13223612
0.71899992 0.033131652 0.15298501 13289662
0.72000015 0.035718124 0.15610111 13158076
0.71899992 0.0457392 0.15530215 13421248
0.72000003 0.041360222 0.15537362 13355455
0.71899992 0.053604111 0.15587319 13552834
0.72000003 0.057915907 0.15391284 13684420
0.72030318 0.065384775 0.15464111 13618114
0.72158349 0.075406559 0.15453197 13355198
0.72227788 0.0856224 0.15467973 13618371
0.72218192 0.095370919 0.15488936 13816263
0.72339398 0.10477078 0.15468776 13750984
0.72652942 0.11484432 0.15508911 13290434
0.72900003 0.12140488 0.15100136 9474695
0.77300006 0.1305421 0.15016247 9474440
0.79288894 0.13802679 0.15237591 10066832
0.72066671 -0.13304812 0.16445793 13419711
0.71845168 -0.12439314 0.16560908 13617859
0.72000003 -0.12955281 0.16413841 13222333
0.71636105 -0.11464485 0.16515538 13815494
0.7160275 -0.10453285 0.16507685 13618371
0.71577764 -0.09444315 0.1650199 13355456
0.71508336 -0.084307589 0.16486043 12960697
0.71488899 -0.074241735 0.16481474 12829111
0.71500009 -0.064210765 0.16483979 12631475
0.71548569 -0.054322779 0.1650714 12763062
0.71532261 -0.045144621 0.16478066 13025977
0.71486115 -0.035748783 0.16480944 12763062
0.71513897 -0.025717694 0.16487269 12697012
0.71580559 -0.015685694 0.16502793 12171438
0.71727765 -0.0056438749 0.16536659 12368560
0.71755558 0.0044316966 0.16543064 12500146
0.71800017 0.014520915 0.16553199 12236975
0.71897215 0.024638392 0.1657555 12368561
0.71900004 0.03095115 0.16870753 12302768
0.71999985 0.035034519 0.16410865 12829111
0.71999991 0.044670001 0.16469 13026490
0.71999991 0.055191811 0.16468999 13092283
0.71999985 0.065126233 0.16430691 13092539
0.72086126 0.075330101 0.1645029 13092796
0.72100019 0.085471183 0.16453516 13158590
0.7212224 0.095629059 0.16458616 13356227
0.72283334 0.10515043 0.1649538 13027262
0.72609532 0.1130735 0.16484758 13421504
0.73000002 0.11644459 0.16744347 10197391
0.72057897 -0.13320893 0.17478345 13157308
0.71894437 -0.12328535 0.1745387 13354688
0.72000015 -0.12825625 0.17552222 13223101
0.71806246 -0.11470725 0.17510784 13289407
0.71688879 -0.10465951 0.17534596 13355456
0.71683311 -0.094581574 0.17533217 13158078
0.71708322 -0.084542431 0.1753951 12960698
0.71700007 -0.07446143 0.17537504 12565939
0.71686083 -0.064378329 0.17534116 12500146
0.7169165 -0.05431265 0.17535421 12763318
0.71723527 -0.044509619 0.17562929 12631732
0.71700001 -0.035015631 0.17537524 12302767
0.71741378 -0.025653219 0.17452005 12039338
0.71850002 -0.015745725 0.17489958 11776423
0.71893328 -0.0056574377 0.17500353 11776423
0.71899992 0.0044408781 0.17501955 11908009
0.71899992 0.014540031 0.17501952 11908009
0.71899992 0.024639182 0.17501952 11842473
0.71899992 0.032774609 0.17501949 12040109
0.72000015 0.037420291 0.17399876 12237488
0.71900004 0.041751634 0.17614162 12237744
0.71999997 0.045517877 0.17402686 12632245
0.72016674 0.055025771 0.17446154 12631988
0.72013873 0.065138519 0.17445453 12566452
0.7203055 0.075272515 0.17449471 12763575
0.72119462 0.085495166 0.17471005 13026747
0.72193938 0.095339641 0.17466107 12895675
0.72410005 0.10465784 0.17524494 12500918
0.72637504 0.11140408 0.17447662 12698554
0.73080003 0.11417781 0.17515239 9342853
0.75700003 0.12606789 0.17540874 9803658
0.76000005 0.12656751 0.17788306 9672072
0.77300006 0.1305421 0.17911619 9803658
0.78399998 0.1360767 0.17737007 9803658
0.78845835 0.14538173 0.17554455 10330003
0.79014289 0.14532851 0.17066868 10461333
0.78900003 0.15245357 0.17765185 10329746
0.7221579 -0.1335905 0.1850452 13223357
0.71900004 -0.12179853 0.18091068 13289407
0.72046882 -0.12584376 0.18507612 13157821
0.71893936 -0.11513291 0.18438917 13158078
0.72000003 -0.11943962 0.18874718 13092283
0.71769708 -0.10454857 0.1852423 13355456
0.71727753 -0.094639555 0.18551539 13420992
0.71828145 -0.084892675 0.18524943 13026490
0.71883327 -0.074651636 0.18507655 12631732
0.71880001 -0.064552039 0.18506812 12302767
0.71883333 -0.054458018 0.18507653 12105388
0.71899992 -0.044630643 0.18460077 12105388
0.72000003 -0.04274787 0.18874718 12236974
0.71899992 -0.03427254 0.18427707 12368560
0.72000003 -0.034320202 0.18874718 12368816
0.71899992 -0.02554098 0.18206784 12039851
0.72037494 -0.023902405 0.18726502 11908266
0.71899998 -0.016599022 0.18048988 11908779
0.7203846 -0.015203864 0.18554133 11513764
0.71899992 -0.0045922524 0.18164006 11514023
0.72019053 -0.0064309263 0.18646938 11316386
0.71899992 0.0044408771 0.18259387 11711145
0.72000009 0.0044470541 0.18790442 11316130
0.71899992 0.013964199 0.182018 11645351
0.72011775 0.01520765 0.1870925 11119006
0.71899998 0.022595305 0.18079044 11644837
0.72031027 0.025178645 0.18545713 11052956
0.7201665 0.034794696 0.18457703 11381921
0.72061104 0.04493887 0.18469171 11579814
0.72138911 0.055119164 0.18489096 11974572
0.72125018 0.065238953 0.18485552 12171951
0.72127789 0.075373411 0.18486215 12303537
0.72222215 0.085617431 0.18510468 12500916
0.72325921 0.094864309 0.18489951 12829882
0.72654539 0.10507357 0.18489906 12632503
0.72800004 0.11101278 0.18317755 10066575
0.73074996 0.11228777 0.1864326 9014143
0.75800002 0.12445994 0.18273841 9672074
0.76300001 0.12617636 0.18304369 9540487
0.77266669 0.12867697 0.18627815 9606280
0.77633333 0.13110502 0.18352729 9540488
0.78419989 0.1359864 0.1848952 9803660
0.78826916 0.1446206 0.18400389 10198417
0.79000002 0.14728352 0.18860355 10132625
0.72900003 -0.14141184 0.19395085 13223356
0.73033333 -0.1422409 0.19886459 13091770
0.7258485 -0.13509168 0.19517326 13091770
0.72103232 -0.12484085 0.19479024 13091770
0.71899992 -0.1138416 0.19322857 12960699
0.72000015 -0.1171521 0.19645248 12960185
0.71893537 -0.10498462 0.19449469 12960699
0.72000003 -0.10848366 0.19886038 12697527
0.71876663 -0.094836779 0.19515541 13552834
0.71896148 -0.084893025 0.19378327 13421248
0.72000003 -0.082638808 0.19829853 12895161
0.71900004 -0.077614725 0.19058903 12829112
0.72049999 -0.074455559 0.19525789 12894904
0.71900004 -0.061203606 0.19016822 12302767
0.72079414 -0.064929716 0.19511163 12565939
0.71900004 -0.055312436 0.19016822 13158074
0.72064525 -0.054458942 0.19550331 12171952
0.72102767 -0.044496212 0.19492763 12237745
0.72183347 -0.034406487 0.19514677 12040108
0.72287101 -0.024383543 0.19474389 11711144
0.72328013 -0.015005087 0.19469002 11382435
0.72232366 -0.0054860278 0.1950299 11316385
0.72191197 0.0046574702 0.19491957 11184543
0.72210002 0.014603695 0.19437225 10789784
0.72237498 0.024965823 0.1947632 10592661
0.72166675 0.034867171 0.1950998 10658454
0.72245461 0.044823814 0.19492811 10855834
0.72360015 0.055288736 0.19477533 11316385
0.72313339 0.06540896 0.19464996 11382435
0.72261763 0.075711802 0.19510736 11645864
0.72316122 0.085100442 0.19514792 12040623
0.72580659 0.095060535 0.19504054 12369589
0.72847629 0.10361578 0.1939752 12698040
0.73030764 0.10728861 0.19710468 11579816
0.73100001 0.11147025 0.19248645 9079937
0.77566671 0.12796861 0.1924427 9408901
0.78000003 0.12807223 0.19717215 9672072
0.78738886 0.13451061 0.19494575 9672073
0.79025 0.13761812 0.19837554 9869451
0.78900003 0.14124806 0.19082756 10132625
0.73145449 -0.14188924 0.20591569 12828598
0.74233335 -0.14573605 0.20676577 13091773
0.72644013 -0.13370988 0.20478828 13091770
0.73000002 -0.13887152 0.20504022 12960184
0.72200006 -0.12466256 0.20502852 13157563
0.72077793 -0.11535091 0.20498253 13091770
0.7205835 -0.10519812 0.2049275 13092027
0.72055531 -0.095072739 0.20491937 13224126
0.72077781 -0.084977433 0.20498204 13355968
0.72208333 -0.074987128 0.20535308 13421761
0.72309667 -0.065073296 0.20495977 13026490
0.72403347 -0.054850873 0.20506318 12894904
0.72483343 -0.044731177 0.20528936 12631988
0.72523338 -0.034569152 0.20540133 12171438
0.72540009 -0.024316153 0.20472014 11974059
0.72510022 -0.015042299 0.20451324 11447971
0.72534388 -0.0059195105 0.20511317 11513507
0.7260626 0.0042728563 0.2053179 11513507
0.72616673 0.014685154 0.20481698 11381920
0.72608829 0.024680931 0.20504437 11119005
0.72560006 0.035057206 0.20550625 10790040
0.72633332 0.045527872 0.20525065 11118748
0.72705555 0.055552721 0.20506859 11118748
0.72672731 0.065347053 0.20474492 10921369
0.72596896 0.074692115 0.20529237 10986906
0.72517246 0.084707707 0.20538376 11316385
0.72781247 0.094269335 0.20506568 11711402
0.73000002 0.099355161 0.20674916 12040624
0.73086363 0.10421731 0.20466067 11711659
0.77700001 0.12576067 0.20368966 9606024
0.78200006 0.12656996 0.20866178 9474695
0.78900003 0.13139705 0.20498839 9474438
0.79128575 0.13654327 0.2053175 9672074
0.75666666 -0.1515028 0.21666451 11577764
0.7331875 -0.14211893 0.21484205 13025720
0.74380004 -0.14776525 0.21588555 13354429
0.72825003 -0.13260107 0.21378477 13223099
0.73071426 -0.13673541 0.21599399 13157306
0.72537035 -0.12505096 0.21518868 13091513
0.72258049 -0.11512103 0.21512622 13157563
0.72200006 -0.10540489 0.21547017 12960698
0.72125018 -0.095164739 0.2152472 13092283
0.72116685 -0.085023224 0.21522199 12895161
0.72267646 -0.07524772 0.21542311 12960954
0.72520018 -0.065002784 0.21484931 13355456
0.72702765 -0.055077758 0.2152701 12764089
0.72783351 -0.044916786 0.21465732 12500660
0.72738701 -0.034536131 0.21468981 12434353
0.7268889 -0.02443894 0.21522966 12237231
0.72666657 -0.015263806 0.214691 12039852
0.72749996 -0.0057230196 0.21455939 11711143
0.72845 0.0039032805 0.213559 11513251
0.73030001 0.0057079853 0.21794717 11579557
0.72884619 0.014541869 0.21259132 11315870
0.73052931 0.014924316 0.21726155 11250336
0.72852945 0.025617853 0.21315578 10855833
0.73030764 0.024170948 0.21762064 10987420
0.72869569 0.035021525 0.21394591 10921884
0.73000002 0.03588013 0.21846761 11053471
0.72900003 0.044607788 0.21292666 10987163
0.73012495 0.046279494 0.2171471 11776936
0.72900003 0.057055958 0.21369392 11381920
0.72999996 0.054002445 0.21700284 11316641
0.72900003 0.065087013 0.2149989 11382176
0.72863334 0.074434526 0.214892 11513250
0.72753334 0.084542908 0.21456939 11974315
0.72864288 0.092591867 0.21391961 12237746
0.73064703 0.097331353 0.21598817 11842988
0.73199999 0.10229795 0.2135942 11908781
0.78900003 0.12885734 0.21491635 9408900
0.78900003 0.13139705 0.21330017 9408901
0.79052389 0.13605852 0.21481331 9606023
0.77900004 -0.1620528 0.2297451 10394259
0.78542858 -0.16207646 0.22559221 10262673
0.74750006 -0.15025023 0.22307931 13288379
0.75414288 -0.15284659 0.22593774 13223101
0.76600003 -0.15755522 0.22770433 10131087
0.77700001 -0.15860356 0.22308658 10328466
0.73563159 -0.14288442 0.22538204 13091513
0.74311113 -0.14840251 0.22553706 13025720
0.73130018 -0.13501167 0.22509374 13025977
0.72763324 -0.12440095 0.22470239 13092026
0.73000002 -0.12964322 0.226402 13157820
0.7241112 -0.11522731 0.22504734 13092283
0.72243327 -0.10546841 0.2249019 13158076
0.72239995 -0.095316052 0.22489192 13223869
0.72273332 -0.085207276 0.22499608 12961210
0.72431266 -0.075007021 0.22517055 12961210
0.72622848 -0.065338142 0.22511199 12960954
0.72820014 -0.055166889 0.22499262 13027003
0.72900003 -0.044988833 0.22438523 12829881
0.72900003 -0.034871101 0.22450709 12566709
0.72900003 -0.024772154 0.2247134 12237744
0.73000002 -0.022834271 0.2289654 12895674
0.72900003 -0.014209029 0.22383663 11974571
0.73000002 -0.013435084 0.22868057 12106158
0.72900003 -0.0065902718 0.22109397 11777193
0.73047823 -0.0043725437 0.22584501 11908779
0.73119479 0.0045172684 0.22506206 11842986
0.73166698 0.014796183 0.22520763 11842730
0.73133367 0.025061307 0.22510487 11250849
0.73083347 0.035309736 0.22495049 11316642
0.73097253 0.045584247 0.22499241 11579557
0.72900003 0.059967209 0.22267866 12500915
0.7304334 0.054954305 0.22482748 12105900
0.72900003 0.065266669 0.22254391 12237743
0.7299999 0.06358128 0.22725648 12105900
0.72900003 0.074615568 0.22274978 12105900
0.73000002 0.074290663 0.22796856 12040106
0.72900003 0.083334528 0.2215628 11842729
0.73052156 0.08567106 0.22645316 11908777
0.73177421 0.094792493 0.2247155 11974573
0.73600006 0.10189653 0.22395478 11842986
0.74366671 0.10528003 0.22454262 9737611
0.79133338 0.12659779 0.2249873 9277316
0.77500004 -0.16122068 0.23037972 10394259
0.78675002 -0.16550678 0.23294669 10065807
0.74666667 -0.15183067 0.23506339 13091000
0.75800002 -0.15590973 0.23685864 11446178
0.76099998 -0.1565268 0.23156099 10065294
0.73524153 -0.14417335 0.23505685 13289147
0.74050003 -0.1488432 0.2313914 13156792
0.73140025 -0.13502984 0.2353975 13223612
0.72855008 -0.12341752 0.23431006 13355455
0.73028576 -0.12835105 0.23589431 13223869
0.72606063 -0.11462653 0.23545784 13289662
0.72412509 -0.10518528 0.23454288 13355455
0.72397232 -0.095522933 0.2347049 13355455
0.72516674 -0.085493244 0.23509189 13092797
0.72689998 -0.075487427 0.23480222 12829624
0.7284838 -0.065282784 0.23514818 12632244
0.72900003 -0.055228449 0.23462497 12764087
0.72900003 -0.044988833 0.23462497 13027261
0.72900003 -0.036196109 0.23362322 12895161
0.73023075 -0.032243289 0.23679684 12763319
0.73077786 -0.024568651 0.23519866 12237230
0.7310003 -0.014308933 0.23527068 11908266
0.73156679 -0.0049003181 0.23545247 12171438
0.73233336 0.0045244792 0.23484154 12500403
0.7328999 0.014821008 0.23502271 12566196
0.73246676 0.025099961 0.23488455 11842729
0.7319414 0.035564702 0.23532012 11514021
0.73150027 0.045616467 0.23543112 11447971
0.73126686 0.055017706 0.23535572 11579301
0.73116702 0.064424619 0.23532325 11908523
0.73113918 0.074691936 0.23531434 11711143
0.73169726 0.084794722 0.23510505 11842471
0.73500001 0.09369313 0.23462285 10856090
0.74199998 0.09925136 0.23360008 10263954
0.73900002 0.10058009 0.23005827 9737610
0.74500006 0.10314077 0.23192614 9211266
0.75750005 0.10841796 0.23315927 8882300
0.76200002 0.10906202 0.23721841 9145728
0.78866673 0.12026384 0.23536389 9211522
0.77200001 -0.16240387 0.24936785 9932936
0.78700006 -0.16740176 0.24499214 10131087
0.79000002 -0.16988929 0.24963389 10131085
0.74510002 -0.15221205 0.24573717 12960184
0.75440001 -0.15552464 0.24368277 13223099
0.76133341 -0.15837765 0.2453246 11249053
0.73550004 -0.14389773 0.24489433 13157819
0.74025005 -0.14879294 0.2469112 12960184
0.73192006 -0.13512592 0.24498922 13552832
0.72900003 -0.12161525 0.24196327 13421250
0.73067766 -0.1260678 0.24589723 13223612
0.72799999 -0.114805 0.24509801 13355455
0.73000002 -0.11938956 0.24947274 12829111
0.72612494 -0.10420162 0.24533387 13421248
0.72603697 -0.095259875 0.2447831 13421248
0.72726667 -0.085740566 0.24513488 13158588
0.72888893 -0.075695544 0.24482769 13289661
0.72900003 -0.065468065 0.24486454 13223867
0.72900003 -0.055490993 0.24598041 13026488
0.73000002 -0.054620612 0.24229518 13026488
0.72900003 -0.04621312 0.24364023 13026489
0.73007685 -0.042885784 0.24739572 13289661
0.72900003 -0.03901571 0.24059798 13092285
0.73078811 -0.034911111 0.24533616 12763574
0.7318669 -0.024604801 0.24497169 12500145
0.73243338 -0.014336993 0.2451618 12500146
0.73279989 -0.0049087522 0.24528387 12631732
0.73299986 0.0045273476 0.24449208 12763318
0.73324984 0.014829146 0.24457547 12631989
0.73313874 0.025123082 0.24453834 12369073
0.73290616 0.03519538 0.24499741 12040365
0.73284626 0.045041498 0.24516848 11711400
0.73306894 0.054442834 0.24549398 11777194
0.73253334 0.064544655 0.24519545 11908780
0.73210019 0.074789666 0.24504928 12237745
0.73346877 0.085344337 0.24491708 12172209
0.73837501 0.092716992 0.24369298 11316385
0.74358338 0.096275859 0.24540989 10527127
0.74900001 0.1001877 0.24193849 11777193
0.75500005 0.10143448 0.24697025 11579815
0.76133329 0.10480896 0.24651463 12303537
0.77300006 0.10882681 0.24969088 10987677
0.76900005 0.11006391 0.24119781 9145728
0.77525008 0.11232091 0.24406412 9079935
0.78637499 0.11715463 0.24618778 9145728
0.78860009 0.12025368 0.24550065 9211521
0.79136378 0.1251404 0.24501237 9211521
0.76166672 -0.16023006 0.25494382 12499121
0.7748 -0.16481093 0.25461814 9867915
0.78516674 -0.16854517 0.25484249 10065293
0.79000002 -0.16988929 0.25148329 10131087
0.74435717 -0.15260914 0.2554999 12960184
0.7552858 -0.15737341 0.25431916 13091513
0.76000005 -0.15987946 0.25794587 13091772
0.73617399 -0.14363267 0.25525212 13157818
0.74083346 -0.14891018 0.25577545 12960439
0.7323668 -0.13520829 0.25456795 13289661
0.73083889 -0.12537783 0.25505757 13289404
0.72884011 -0.11339924 0.25521919 13223612
0.73000008 -0.11861277 0.25506565 13486784
0.72730315 -0.10470998 0.25489882 13223868
0.7268275 -0.094931632 0.25449103 13289662
0.72822225 -0.085852467 0.25483254 13289662
0.72900003 -0.075707667 0.25510415 13223869
0.72900003 -0.067215294 0.25416958 13158076
0.7299999 -0.063108362 0.25676426 13224126
0.72900003 -0.055797305 0.25112203 13223869
0.72999972 -0.055333655 0.25613174 13026746
0.73070014 -0.045092363 0.2548441 12698294
0.73193765 -0.034673784 0.25495484 12764087
0.73319441 -0.024649022 0.25485718 12500146
0.7336666 -0.014360745 0.25502098 12040108
0.73333329 -0.004913792 0.25490442 11974315
0.73258334 0.0045235716 0.2546421 12106158
0.73233342 0.014809664 0.25455457 12566453
0.7324723 0.025101604 0.25460318 12631988
0.73311096 0.035420757 0.25482666 12500146
0.73406655 0.044918455 0.25515899 12303024
0.73480558 0.054424252 0.25541651 11776680
0.73411101 0.064682625 0.25517517 11776937
0.7330277 0.074883871 0.25479925 11777194
0.73492587 0.084355503 0.25498068 11842987
0.7385 0.090138987 0.25151372 11645864
0.74389476 0.093919761 0.25495353 11711657
0.75000006 0.098565705 0.25279608 11316901
0.75733334 0.10130239 0.25349572 11777452
0.76350003 0.10391462 0.25557077 12632247
0.77540004 0.10916469 0.25591412 11053728
0.78645462 0.11440832 0.25453466 8882557
0.79071426 0.11793208 0.25673583 9079936
0.78733331 -0.1717739 0.26445657 9868428
0.75850004 -0.16133957 0.26897797 13421248
0.76371431 -0.1627052 0.2643086 11644069
0.7762 -0.16837537 0.26671132 9736586
0.78200006 -0.16999958 0.26541272 10000014
0.74425006 -0.15343541 0.26531714 13026233
0.75466663 -0.15875749 0.26407528 13157563
0.73628581 -0.14473948 0.26485527 13157819
0.7325334 -0.13523945 0.26491559 13092283
0.73097169 -0.12566136 0.2644726 13092283
0.72900003 -0.11398849 0.26519668 13157563
0.73000002 -0.11914542 0.26631805 13355198
0.72872233 -0.10468081 0.26524371 13289405
0.72825009 -0.094382592 0.26507312 13223869
0.72896671 -0.085089929 0.26533183 13224126
0.72900003 -0.076043814 0.26500764 13355968
0.73000002 -0.072108798 0.2694104 13027260
0.72900003 -0.069165684 0.26221493 13356225
0.73046428 -0.065353774 0.26544943 13158846
0.7310003 -0.055241939 0.26505038 13224640
0.7315281 -0.045143414 0.2645525 12895674
0.73294437 -0.034935072 0.26506495 12698295
0.73426658 -0.024685571 0.26468313 12566452
0.73416674 -0.014371858 0.2646468 12105901
0.73379308 -0.0047980016 0.26522309 11776936
0.73291659 0.0045255008 0.26505533 11842987
0.73269445 0.014817455 0.26497534 12040365
0.73300004 0.025119329 0.26508516 12303537
0.73327762 0.035429459 0.26518458 12566452
0.73399991 0.04491375 0.26544529 12500403
0.73478127 0.054208275 0.26518947 12040109
0.73463333 0.064729102 0.26481542 11579814
0.73446655 0.075032182 0.26475587 11974572
0.73664999 0.083793655 0.26476735 11645607
0.74133331 0.088460617 0.2660751 11579814
0.74566668 0.09276247 0.26471969 11645607
0.75575 0.098660618 0.26513034 12303537
0.76450008 0.10315996 0.26550862 12501174
0.77630007 0.10838566 0.26620215 11251107
0.78733331 0.11391907 0.26522675 8816765
0.79049999 0.11776813 0.26459646 9145729
0.7766 -0.17100842 0.27594051 9671049
0.7855556 -0.17404447 0.27479145 9737099
0.79322219 -0.17801052 0.27519974 9605770
0.75628579 -0.16213405 0.27489367 13223355
0.76314288 -0.16539086 0.27559802 12763062
0.77180004 -0.16850509 0.2753199 9539462
0.74496305 -0.15504225 0.27512565 13091512
0.75200003 -0.15995696 0.27283511 13026490
0.73727781 -0.14340334 0.27420762 13092025
0.74085724 -0.14792439 0.27647355 13092025
0.73375857 -0.13481539 0.27533939 13289405
0.7316972 -0.12527432 0.27465752 13355198
0.72900003 -0.11154631 0.27131683 13026488
0.73071444 -0.11547474 0.27562135 13092283
0.72900003 -0.10433202 0.27209252 13026488
0.73052627 -0.1051645 0.27683628 13223868
0.72900003 -0.094724074 0.27253577 13223869
0.73049986 -0.094460472 0.27721992 13289918
0.72900003 -0.084783681 0.27240279 13093053
0.73035288 -0.084548481 0.27705091 13158333
0.72900003 -0.077779964 0.27204821 12961467
0.73024988 -0.07446909 0.27588528 12961467
0.73097175 -0.065522693 0.27473968 12961468
0.73172253 -0.055433832 0.27490047 13027004
0.73257148 -0.045330085 0.27509671 12895417
0.73403341 -0.034987532 0.27490959 12829881
0.73513907 -0.024715371 0.27446291 12697781
0.73538905 -0.014395043 0.27455702 12236973
0.7352308 -0.0050582183 0.27515966 11644836
0.73456669 0.004536361 0.27510974 11315872
0.73419976 0.014847101 0.27497184 11250850
0.73379982 0.025145972 0.27482167 11711402
0.73353314 0.035440821 0.27472201 12303537
0.73387998 0.044906866 0.27485114 12632245
0.73470604 0.054620933 0.27455279 12237745
0.73580575 0.064833537 0.274712 11842988
0.73637152 0.075104892 0.27480096 11711401
0.73849994 0.082071066 0.27341276 11711145
0.74327779 0.086473584 0.27595362 11579815
0.74712509 0.091848381 0.27391043 11777193
0.75560004 0.097184755 0.27484682 12764088
0.76000005 0.099879913 0.27929598 12698295
0.76581824 0.10341928 0.27458343 12566709
0.77536374 0.10833638 0.27536747 11316900
0.78652948 0.11430985 0.27496168 8948350
0.79016668 0.11864278 0.27465782 9079935
0.77633339 -0.17331238 0.28439081 9538696
0.78610003 -0.17733359 0.2842823 9670794
0.79000002 -0.17913631 0.28107378 9671049
0.74900001 -0.16107225 0.28840417 12696501
0.75440001 -0.16312054 0.28429919 12959158
0.76412511 -0.16768014 0.28415632 11709349
0.74500006 -0.1548626 0.28496909 13025720
0.73854542 -0.14247818 0.28477129 12894391
0.74194115 -0.14739776 0.28481716 13289148
0.73459995 -0.13483691 0.28499639 13157563
0.7324 -0.12492715 0.28544146 12697525
0.73150021 -0.11535435 0.28509229 13026490
0.73158354 -0.10509055 0.28512481 13092027
0.7316668 -0.094825894 0.28515723 13092540
0.73108363 -0.084481902 0.28492847 13027003
0.73100024 -0.075059727 0.28489581 13092540
0.73113918 -0.065659374 0.28495032 13289919
0.73200023 -0.055455469 0.28528583 13224126
0.73326457 -0.045351118 0.28522322 13027003
0.73438895 -0.035004456 0.28449747 12698295
0.73558342 -0.024729408 0.28495979 12435123
0.73641175 -0.014617563 0.28502896 12171951
0.73627591 -0.0048139887 0.28508097 11974572
0.7361936 0.0044078208 0.28450334 11316644
0.73620594 0.014938482 0.28495026 10856093
0.73511112 0.025189398 0.28477961 10856093
0.73397201 0.03546077 0.28433645 11447972
0.73346651 0.044881266 0.28413928 12237488
0.73416668 0.054377493 0.28441051 12500660
0.7357223 0.064827651 0.28501347 12303282
0.73825008 0.074771881 0.28426543 11777195
0.74050003 0.077382259 0.28859827 11579816
0.74444002 0.084806852 0.28507775 11382694
0.75000006 0.08978688 0.2870335 12106417
0.75628573 0.094464101 0.28475755 12764090
0.76060009 0.097466514 0.28770721 12435638
0.7651819 0.10203064 0.28429252 12895674
0.77342856 0.10733873 0.28539172 12500660
0.77900004 0.11149517 0.28749415 9606024
0.78540003 0.11450061 0.28446051 8882556
0.79000002 0.11861776 0.28477257 9079935
0.78850007 -0.18064207 0.296229 9670793
0.76700002 -0.17032982 0.29533339 12038315
0.77585727 -0.17463411 0.29498476 9604743
0.78320003 -0.17759439 0.29331666 9670537
0.74766678 -0.16078551 0.29489043 12565684
0.7554546 -0.16487454 0.29562795 12302256
0.76125002 -0.16771737 0.29356909 12630709
0.74451619 -0.15499459 0.29519436 12565685
0.73862493 -0.14219852 0.29327163 12828599
0.74164999 -0.14681971 0.29512161 12434098
0.73574996 -0.13486733 0.29509109 12368304
0.73287994 -0.12500896 0.29506579 12894905
0.73220009 -0.11546413 0.29479185 12894904
0.73220026 -0.10517957 0.29479185 12763575
0.73200023 -0.094667487 0.29531518 12698295
0.73144478 -0.084523715 0.29534411 12895417
0.73147094 -0.074503027 0.2955566 12961211
0.7318753 -0.065190211 0.29530329 13026748
0.73256665 -0.055497434 0.29493949 13224126
0.7336666 -0.045041114 0.29491282 12829882
0.73436093 -0.035003617 0.29480091 12829881
0.73577148 -0.024857858 0.2952446 12566709
0.73793763 -0.014227582 0.29505062 12369331
0.73823082 -0.0050789448 0.29529291 12237746
0.73840028 0.0046847761 0.29481918 12040366
0.7382502 0.014874447 0.29517537 11381922
0.73676676 0.025246345 0.29490596 10329235
0.73509687 0.035653334 0.29440516 10592920
0.73449999 0.044944029 0.29485971 11185057
0.73482358 0.054224305 0.29473627 11711657
0.73677784 0.06450697 0.29459235 11777194
0.74050003 0.068714634 0.29899883 11119520
0.73850006 0.071554229 0.29170898 10987937
0.74228567 0.075543083 0.29579291 11053729
0.74575001 0.083609603 0.29479101 10987680
0.75066668 0.088695399 0.29519582 11645866
0.75614291 0.092422679 0.29519919 12172210
0.76130003 0.097378954 0.2949203 12369589
0.76740009 0.10157253 0.29530865 12501688
0.77316678 0.10684337 0.29499137 12830397
0.7778334 0.11132818 0.29586056 12237746
0.78606677 0.11582287 0.29549822 8816508
0.79000002 0.11861777 0.2921702 9079935
0.78783339 -0.18171994 0.30520353 9538950
0.77361542 -0.17472824 0.30463544 10656918
0.78299999 -0.17938204 0.30607384 9670280
0.74800003 -0.1608572 0.30465719 12170670
0.75529999 -0.16508248 0.30497336 12104876
0.76200008 -0.16921948 0.30411103 12302256
0.7452001 -0.15502384 0.30526018 12368048
0.74293542 -0.14512743 0.30528691 12565427
0.73777783 -0.13409722 0.30385032 11841704
0.741 -0.13737945 0.3075861 12104876
0.735138 -0.12468273 0.30470046 11973545
0.73418498 -0.11498104 0.30425018 11907752
0.73405546 -0.10544734 0.30499151 12237487
0.73299992 -0.095214725 0.30508858 12369074
0.73233348 -0.084626392 0.30513233 12500916
0.73213351 -0.074319124 0.30504844 12566709
0.73248011 -0.064922623 0.30519336 12566711
0.73305541 -0.055535354 0.30457407 12698295
0.73399979 -0.045297388 0.30496639 12764089
0.73445708 -0.035130996 0.30503452 12632245
0.7364195 -0.024616504 0.30494395 12500659
0.73850024 -0.01445438 0.30510774 12303537
0.73900014 -0.005527332 0.30452085 12237744
0.74000001 -0.0020701045 0.30774802 12369331
0.73900002 0.0045644068 0.30185375 11908779
0.74005544 0.0045712511 0.30661625 11908779
0.73895663 0.015131392 0.30345324 11645094
0.74014282 0.014348058 0.30813757 12040365
0.73875016 0.025315985 0.30348191 10789785
0.74000001 0.025358824 0.3083255 11316385
0.73835003 0.035586197 0.30305877 10132112
0.74042863 0.034163531 0.30800909 10461076
0.73808712 0.045087695 0.30535212 10263955
0.74000001 0.040083826 0.30832547 10000782
0.73795843 0.054298699 0.30445376 10856349
0.74133331 0.058668043 0.30830279 10724762
0.73875004 0.062066749 0.30131945 11119522
0.74245834 0.065639764 0.30580255 10922143
0.74526924 0.075064398 0.30542338 10724763
0.74733341 0.081886902 0.30399555 10527130
0.75363642 0.086538509 0.30582616 10922144
0.75728565 0.092181094 0.30210456 11645866
0.76246673 0.095806085 0.30543002 11645866
0.76785713 0.10168404 0.30349737 11974829
0.77261114 0.10656421 0.30513242 12303795
0.77725005 0.11192857 0.30496705 12435381
0.78523088 0.1164931 0.30440152 9343109
0.78900003 0.12031468 0.30750039 9014144
0.78671438 -0.18233857 0.31621024 9342087
0.793091 -0.18642226 0.31508157 9276550
0.76900005 -0.17257422 0.31320754 12104877
0.77476925 -0.17596719 0.31527245 10065039
0.7560001 -0.16394368 0.31485292 12105132
0.76228577 -0.16877425 0.31531605 11973546
0.74730003 -0.15406016 0.31451795 12105390
0.75040007 -0.15821156 0.31757766 11973545
0.7454139 -0.14525943 0.31527635 12368562
0.74308008 -0.13537833 0.315108 12236975
0.73820007 -0.12375663 0.31362528 11315871
0.74112511 -0.1277153 0.31725264 11908007
0.73636365 -0.11447652 0.31469935 11907751
0.73515999 -0.104745 0.31491402 11710886
0.73433334 -0.095171787 0.3145611 12106158
0.73403329 -0.084822975 0.31443292 11974315
0.73362488 -0.07436315 0.31457987 12302768
0.7335183 -0.065206334 0.31459403 12303025
0.73373324 -0.055586327 0.31430376 12698038
0.73453331 -0.04532944 0.31464684 12632245
0.7361936 -0.034950733 0.31519219 12632245
0.73793954 -0.025043821 0.31484947 12303537
0.73899996 -0.017218022 0.31357068 11842986
0.74068421 -0.012900582 0.31627741 11514020
0.74113041 -0.0047383634 0.31430578 11645606
0.74176681 0.0045816903 0.31427336 11711143
0.74170005 0.014998731 0.31424561 11448228
0.74173319 0.025418533 0.31425959 10790298
0.74184006 0.034973327 0.31430429 10329491
0.74164283 0.044327293 0.31446937 10197904
0.74244827 0.055142041 0.31468293 10329747
0.745 0.06490799 0.31544155 10527382
0.74708688 0.073244199 0.31447276 10527383
0.75133342 0.078221895 0.31744561 10264211
0.74900001 0.080900043 0.31032196 10263956
0.75645453 0.083800651 0.31502134 10527127
0.7617501 0.087627582 0.31649581 8224630
0.7665 0.092659384 0.31353539 9540234
0.77262509 0.096792683 0.31536373 9606283
0.77583337 0.10423309 0.31372225 10724765
0.78175002 0.10685792 0.31794399 9540233
0.77900004 0.11149517 0.31180951 11711657
0.78606671 0.1155794 0.31574255 9343366
0.78900003 0.12031468 0.3130416 8817021
0.787 -0.18306386 0.32514331 9341828
0.79146153 -0.18787774 0.32463104 9211012
0.76800007 -0.1705519 0.32358921 12301485
0.77457148 -0.17512478 0.32479668 10590869
0.78100002 -0.17892385 0.32815206 9472900
0.75654548 -0.16205263 0.3245582 11775910
0.76200002 -0.16664433 0.32581785 11775653
0.74860001 -0.15117222 0.32207388 11446945
0.75200009 -0.15516828 0.32584497 11644324
0.74720001 -0.14494471 0.32532021 11710374
0.74478805 -0.1346496 0.32474545 12500145
0.73900002 -0.12086149 0.32001889 11184284
0.74262518 -0.12507884 0.32521304 12368559
0.73826319 -0.11373887 0.32342988 12105388
0.74077785 -0.11672146 0.32734025 12171183
0.73674089 -0.10477891 0.3246012 12105387
0.73605555 -0.095395543 0.32477796 11908265
0.73613906 -0.085065067 0.32481509 11579558
0.73620605 -0.074833915 0.32509837 11842216
0.73560029 -0.06468346 0.32509235 11973802
0.73526478 -0.055449359 0.32422462 12105388
0.73644453 -0.045445826 0.32494915 12236974
0.73790008 -0.035171762 0.32472599 12631988
0.73892015 -0.025430849 0.32392812 12039852
0.74037504 -0.022075055 0.32776442 11974058
0.74196666 -0.014519859 0.32477918 11447971
0.74399984 -0.0049835318 0.32479876 10789783
0.74431449 0.0044726552 0.32481223 10855834
0.74466676 0.015059543 0.32421809 11119263
0.74470007 0.025520237 0.32423326 10593434
0.74480009 0.035113059 0.32427648 10329749
0.74479991 0.044702806 0.32427651 10132369
0.74536675 0.055207606 0.32452402 10264211
0.74705261 0.064215101 0.3245208 10132626
0.75033337 0.068163007 0.3278546 9935246
0.74849999 0.071209244 0.32150385 10001041
0.75411111 0.074888542 0.32548305 9803661
0.75800002 0.080984898 0.32292324 10461335
0.76362503 0.083828717 0.3255356 9014145
0.77150005 0.087847292 0.32776973 7961200
0.77600002 0.09411291 0.32271644 8093043
0.78387505 0.097286187 0.32637715 8093555
0.78725004 0.10484505 0.32432887 8356214
0.79083329 0.10670968 0.32858041 8488313
0.78800011 0.11309231 0.32156137 8422521
0.79164284 0.11582061 0.32613865 8750972
0.79207414 0.12524554 0.32439372 8882814
0.78842866 -0.18299916 0.3345688 9276035
0.79200006 -0.18717641 0.33538634 9145220
0.77464294 -0.1737158 0.33467442 11578020
0.78300011 -0.17901686 0.33577102 9801354
0.75849998 -0.1620059 0.33423474 11973546
0.76345462 -0.16629741 0.33547831 12105133
0.75415999 -0.15512574 0.33470559 11907753
0.74821043 -0.14412564 0.3343339 11710630
0.75033337 -0.14877056 0.33605242 12170670
0.74634379 -0.13527822 0.33483014 12236718
0.74464017 -0.12527174 0.3346653 12434096
0.74290323 -0.11544317 0.33489537 11908009
0.73899996 -0.10356135 0.332129 11315872
0.74131572 -0.10571349 0.33618575 11776936
0.7385 -0.094846912 0.33326337 11513251
0.74066669 -0.095125094 0.33808032 11513765
0.73860008 -0.085869007 0.33333322 11052700
0.74059999 -0.085234657 0.33770311 11315873
0.73876923 -0.074659772 0.33308986 11578788
0.74058336 -0.075176395 0.33746448 11184286
0.73818189 -0.064250939 0.33411905 10986650
0.74049997 -0.065634631 0.33930415 11250079
0.73780006 -0.055030573 0.3341828 11382178
0.74016666 -0.05434069 0.33958426 11250336
0.73866665 -0.046679724 0.33359349 11645350
0.74090004 -0.044334866 0.33749312 11382435
0.73899996 -0.036090884 0.33097565 11842986
0.74142855 -0.034968749 0.33619803 11710887
0.74233335 -0.024955302 0.33536828 11908522
0.7439667 -0.01456057 0.33436292 11513765
0.7456401 -0.0049933642 0.33511463 10856091
0.74663335 0.0046122167 0.33527014 10132368
0.74726665 0.015112278 0.33409774 9737611
0.74756515 0.025047479 0.33339354 10066575
0.75000006 0.025701512 0.3388285 9342852
0.74800003 0.034475934 0.33346152 9737612
0.75050002 0.035383247 0.33861545 9606024
0.74788231 0.044630285 0.33251786 9935248
0.75042862 0.045669865 0.3370145 9343111
0.74799997 0.054672126 0.33194306 10001041
0.75159997 0.055667758 0.33673769 9935248
0.74900001 0.061612397 0.33136302 9541260
0.7540952 0.06522914 0.3355543 9738382
0.75770009 0.072972439 0.33397126 9672588
0.76166672 0.076722056 0.33558121 10001554
0.76700008 0.081048682 0.33483982 8685181
0.77440006 0.085825823 0.33607036 8159092
0.78200006 0.08995644 0.33863977 8487800
0.77900004 0.091434985 0.33186969 8224628
0.78686678 0.095555685 0.33509666 8422263
0.79000002 0.09827432 0.33840528 8422777
0.79207683 0.10438495 0.33508709 8422777
0.7877 -0.18138234 0.34479684 8881790
0.77463645 -0.17285141 0.34501383 11841961
0.78125 -0.17715222 0.34471828 11775912
0.75900006 -0.16144593 0.34111762 12434355
0.76360011 -0.16469565 0.34460708 12170928
0.77066678 -0.16933995 0.34636173 11710377
0.75645834 -0.15544952 0.34447697 12631993
0.76000005 -0.15987946 0.34868374 12434355
0.74900001 -0.14120011 0.34129906 11578533
0.7518751 -0.14541353 0.34561694 12828856
0.74757677 -0.13438231 0.34493658 12170153
0.74591696 -0.12461385 0.344843 12170922
0.74488479 -0.11498398 0.3450368 11973800
0.74390024 -0.10511998 0.34478208 12105644
0.74322242 -0.094873682 0.34485492 11842729
0.74279994 -0.084965907 0.34427264 11645607
0.74310356 -0.075582765 0.34453347 11118493
0.74270844 -0.064961456 0.3450999 11052701
0.74274987 -0.054530252 0.34511939 10592406
0.7437501 -0.044882689 0.34485874 11119006
0.74466687 -0.035495445 0.34513822 11579814
0.74513346 -0.025050683 0.34535372 11908779
0.74614298 -0.014729056 0.34482428 11777193
0.74740905 -0.0054033729 0.34426072 11250849
0.75000006 -0.0020980788 0.34877786 11316642
0.74861532 0.0038836743 0.34265196 10724249
0.75138468 0.005387865 0.34730291 10921627
0.74900001 0.011639861 0.34013012 9408645
0.7521922 0.015211489 0.3451063 9869452
0.75305009 0.024925863 0.3446174 9869453
0.75445837 0.03468788 0.34526208 9737867
0.75560004 0.045352977 0.34490138 9474696
0.75661916 0.054986328 0.34469032 9738382
0.75810522 0.064043976 0.34417289 9935504
0.76057148 0.068415143 0.34665704 10461848
0.76509094 0.073850505 0.34450582 10396056
0.77225006 0.077536516 0.34752554 9737869
0.77600002 0.083818674 0.34270206 8225400
0.78383332 0.087111913 0.34646726 8225398
0.78790909 0.09231405 0.34438646 8356471
0.79049999 0.096640646 0.34571353 8422520
0.79246658 0.10501554 0.34496513 8488570
0.78814286 -0.18082413 0.35447812 8749947
0.79275 -0.18556327 0.35512146 8882046
0.77587503 -0.17230335 0.35505438 12170927
0.78300005 -0.17702699 0.35504422 10065293
0.76499993 -0.16317479 0.35455772 12434099
0.77183342 -0.16869384 0.35411203 12105134
0.75825 -0.15330017 0.35353982 12565942
0.76137507 -0.15704989 0.35666946 12631734
0.75416678 -0.14438771 0.35505664 13026748
0.74833333 -0.13381766 0.35417637 12894647
0.75000006 -0.13745908 0.3571386 13421249
0.74706656 -0.12480522 0.35499322 12763318
0.74638462 -0.1149466 0.35487059 12171180
0.74555582 -0.1053529 0.35514858 11908008
0.74522233 -0.094838344 0.35499027 11710885
0.7452414 -0.08506424 0.35466886 11514021
0.74542862 -0.075356126 0.35402983 11842728
0.74563342 -0.065216079 0.35431436 11052699
0.74616683 -0.054781593 0.35456833 10789527
0.74692601 -0.044830628 0.35512298 10395027
0.74717855 -0.035303153 0.3548604 11119007
0.7473793 -0.025277589 0.3550224 11316643
0.75000006 -0.020826222 0.35989767 11645607
0.74807137 -0.015642663 0.35321882 11250849
0.75111109 -0.013431107 0.35710999 11185056
0.74900001 -0.0076477858 0.35065067 11448228
0.75305557 -0.0047484222 0.35549119 11185056
0.75537038 0.0045686252 0.35527441 11184799
0.75707698 0.01558376 0.35497954 10658711
0.75775999 0.025080658 0.35475537 10000525
0.75827605 0.034708392 0.35487306 10461332
0.76000005 0.039388001 0.35935876 10921884
0.75870001 0.044916123 0.35386038 10330004
0.76000011 0.045488026 0.35885045 11053727
0.75900006 0.054932818 0.35118636 10067091
0.76034784 0.055039857 0.35689268 10330006
0.75900006 0.060658168 0.35000178 9475465
0.76195234 0.064209782 0.35467839 10988192
0.76625007 0.070655487 0.35289845 10987936
0.77381259 0.075547308 0.35569885 9343368
0.78564292 0.084075972 0.35492656 8159605
0.79140002 0.088444367 0.35679206 8159605
0.78900003 -0.18075661 0.3656829 8619131
0.79286677 -0.18535812 0.36499894 8684668
0.77720004 -0.17150407 0.36276227 9604486
0.78458339 -0.17622876 0.36531696 8289910
0.76800001 -0.1615624 0.36134359 12959932
0.77373332 -0.16530679 0.36537111 10525848
0.76530772 -0.15466142 0.36462599 12236465
0.77200001 -0.15878934 0.36864737 9670282
0.75728571 -0.14411607 0.36402756 13224129
0.76099998 -0.14821382 0.36666155 11907755
0.74900001 -0.13126406 0.36117119 13027262
0.75364709 -0.13550572 0.36549118 13224641
0.74849999 -0.1237304 0.36290172 12764089
0.75075006 -0.12695633 0.36619055 13290433
0.74730432 -0.11491751 0.36392978 12566710
0.75050008 -0.11835054 0.36892226 12764090
0.74693096 -0.10539673 0.36529976 12500917
0.74726665 -0.095096841 0.36558494 12237486
0.74771422 -0.084860817 0.36338684 11908520
0.75057143 -0.083343603 0.36845571 11908777
0.74800009 -0.075323239 0.36217195 10986905
0.75080001 -0.074984007 0.36731306 11776934
0.74850005 -0.066167779 0.36163142 10723733
0.75061542 -0.064772874 0.36587116 11382175
0.74900001 -0.054990187 0.36117122 11053211
0.75094438 -0.055132627 0.36562628 11119003
0.74900001 -0.044469658 0.36117122 10658710
0.75082606 -0.04469274 0.36633322 10921625
0.74900001 -0.034168299 0.36182871 10593177
0.75076467 -0.035218146 0.36688304 10330003
0.74900001 -0.028162828 0.36187252 10724762
0.75155008 -0.024736978 0.36574528 10329747
0.75529641 -0.014681675 0.36493093 10329746
0.75796008 -0.0050765518 0.36549464 10461333
0.75864297 0.0046857302 0.36493427 10658712
0.75884992 0.014724533 0.36281252 11053468
0.76000011 0.016614577 0.36736506 10790296
0.75900006 0.024233097 0.36066279 10263697
0.76038092 0.025336998 0.36555833 10723990
0.76046664 0.034961365 0.36492166 10724248
0.7605601 0.044758946 0.36496639 11382436
0.76168954 0.0544811 0.3653855 11119521
0.76584619 0.063277997 0.36405352 11514280
0.77177781 0.067502759 0.36693585 11646122
0.77525002 0.073304534 0.36384758 9277574
0.78360003 0.078767821 0.36648425 8159605
0.78790915 0.082924433 0.36467418 8159605
0.7923333 0.087685868 0.36574063 8159605
0.78733337 -0.17497048 0.37449536 8092790
0.79025 -0.17873064 0.37782511 8421754
0.77725005 -0.16350947 0.37206444 10000532
0.78355557 -0.16646881 0.37661231 8224121
0.76600003 -0.15038234 0.37116191 9143938
0.77338469 -0.15545617 0.37474027 9276295
0.78000003 -0.15860882 0.37977153 7895154
0.76433343 -0.14424141 0.3742353 9736845
0.77200007 -0.14885053 0.37949097 8487291
0.75840002 -0.13468641 0.37174097 13027523
0.76300001 -0.13580072 0.37596229 10264474
0.75671428 -0.1245181 0.37273747 13224642
0.76150012 -0.12543245 0.37700412 13158851
0.75570011 -0.11421718 0.37466642 12895933
0.76099998 -0.1173327 0.3788352 13224129
0.74833328 -0.10194927 0.37194538 12632759
0.75291675 -0.10551336 0.37584141 12632760
0.7486667 -0.097612821 0.37211075 11974828
0.75115395 -0.09471342 0.37533268 12106414
0.75300008 -0.0852485 0.37455991 11580069
0.75428575 -0.074548952 0.37456962 11579812
0.75388873 -0.064859867 0.37451145 11842728
0.75308347 -0.055290472 0.37459978 11908777
0.75344831 -0.044884641 0.37523821 11908264
0.75450003 -0.035081096 0.37530732 10592918
0.75572413 -0.025252845 0.37515423 10593174
0.75820005 -0.014838989 0.37477908 10790296
0.75900006 -0.0072563281 0.37349546 10790296
0.76000017 -0.0038681608 0.37614971 10658453
0.76032358 0.0049058734 0.37490422 10855833
0.76080537 0.015386323 0.37488005 11250847
0.76116651 0.025193226 0.37505752 11579812
0.76105535 0.034988597 0.37500215 11185055
0.76149988 0.044623662 0.37490386 11185314
0.76385707 0.054665063 0.37491468 11382950
0.76766664 0.061650831 0.37466633 11646123
0.7735883 0.066410229 0.37547618 11580073
0.77766675 0.071252637 0.37317622 8356216
0.78546661 0.076263376 0.37544462 8093556
0.79000002 0.079780273 0.37909219 8159605
0.78875005 0.081962287 0.37249178 8159605
0.79163164 0.08628796 0.37529007 8225398
0.78900003 -0.17244484 0.3804594 8026999
0.79204768 -0.17501099 0.38581517 8421756
0.78785717 -0.16416001 0.38478449 8092790
0.7902 -0.16808243 0.38658816 8224376
0.77760005 -0.15339054 0.38260707 7566444
0.78385717 -0.15651202 0.38662988 8355704
0.77490008 -0.1448743 0.38400337 8816770
0.78100002 -0.14510083 0.38940012 7435373
0.76900005 -0.13116863 0.38161677 7961723
0.7748571 -0.1363133 0.3858223 9145996
0.76700002 -0.12603699 0.38122356 11645357
0.77316672 -0.1255465 0.38670325 8816258
0.76371437 -0.11341406 0.38359219 11513256
0.77166671 -0.11657309 0.38896045 7565677
0.75800002 -0.10489514 0.38192514 12237749
0.76125002 -0.10400597 0.38623652 7566190
0.75749993 -0.094627894 0.38211805 12303795
0.76157147 -0.094497658 0.38659042 10791070
0.75700003 -0.08481802 0.38097823 11909036
0.76309103 -0.085010573 0.38680771 11909807
0.75766665 -0.07513731 0.38131377 11842986
0.76263642 -0.075224832 0.38641441 11777451
0.75754553 -0.06488727 0.38302785 11842987
0.76116675 -0.064794339 0.38753012 11711659
0.75611758 -0.0544184 0.384287 11843244
0.76000005 -0.056687385 0.38871515 11909038
0.75688481 -0.044663742 0.3850131 11909036
0.75779998 -0.03523425 0.38493133 11843242
0.75846153 -0.025977412 0.38478833 11777192
0.76000005 -0.022438286 0.38915998 11645606
0.75899994 -0.015745642 0.38231796 11251104
0.76000017 -0.014196524 0.38709298 11448226
0.7604 -0.0050933673 0.38447052 11053211
0.76119983 0.0047023827 0.38487467 11316383
0.76258618 0.015268845 0.38545322 11381662
0.76288015 0.025249183 0.3857252 11382434
0.76275861 0.034913272 0.38554084 11514022
0.76377279 0.045193028 0.38487634 11316643
0.76645154 0.055007096 0.3849836 11646125
0.76900005 0.061457351 0.38161677 11843761
0.77395004 0.065031692 0.38479 11580589
0.78100002 0.069729716 0.3866576 8027509
0.78653336 0.074033208 0.38479227 8159349
0.79114288 0.078837886 0.38493297 8159605
0.78900003 -0.16043893 0.39154175 8487802
0.79168189 -0.16511403 0.39514875 8619643
0.78770006 -0.15464438 0.39292589 8355958
0.79100001 -0.15608397 0.39756113 8553593
0.78687507 -0.1445763 0.39440408 7566959
0.79000002 -0.14677173 0.39758626 7764850
0.77900004 -0.13287434 0.3902266 7566195
0.78622222 -0.13512561 0.39548391 7698545
0.79050004 -0.13576177 0.39968842 7895665
0.7766667 -0.12338851 0.39087597 7565678
0.78387505 -0.12544823 0.39634079 7829361
0.77500004 -0.1147304 0.3934398 7631981
0.78200006 -0.11690997 0.39813676 7961200
0.76800001 -0.10133386 0.39190793 7500650
0.77425003 -0.10555825 0.39623243 7698286
0.76900005 -0.097864144 0.39241824 7237478
0.77266669 -0.094412684 0.39549732 7172201
0.77344441 -0.085651822 0.39569414 7172202
0.77315384 -0.074653491 0.39593318 9474444
0.76666671 -0.065264262 0.39212492 12106160
0.77228582 -0.065613374 0.3971951 9934994
0.76520002 -0.054742884 0.39424509 12303797
0.77200001 -0.057584006 0.39937091 10921889
0.76354545 -0.044928361 0.39402503 12303796
0.76311761 -0.034854997 0.39488578 12369587
0.76163167 -0.024713969 0.3944805 12172208
0.76126921 -0.014627609 0.39436966 11645863
0.76119989 -0.0050993823 0.39378491 11514020
0.76196748 0.0047934502 0.39435393 11579813
0.76370978 0.015591092 0.39490867 11777448
0.76452005 0.025304494 0.39550275 11579814
0.76543325 0.035190679 0.39567703 11711400
0.76628006 0.045096308 0.39461917 11842732
0.7677083 0.054017473 0.39490452 11908784
0.7705 0.059473049 0.39559022 11645869
0.77464712 0.06415356 0.39454859 10790816
0.78333336 0.069938041 0.39362088 7961716
0.78780007 0.07292062 0.39555556 8159607
0.79170001 0.077173159 0.3947362 8093813
0.78900003 -0.12472904 0.40139279 8026993
0.79231256 -0.12598817 0.40617067 7961713
0.78700006 -0.11443418 0.4036774 7961199
0.7908572 -0.11585363 0.40753984 7961456
0.77900004 -0.10096041 0.4011685 7961456
0.78625005 -0.10535245 0.40605474 7895663
0.77900004 -0.094577625 0.4011685 7698285
0.78616667 -0.094526529 0.40669957 7764077
0.7833001 -0.085011065 0.40430355 7435114
0.77825004 -0.077180594 0.40078223 7040103
0.78500009 -0.074404009 0.40678754 7237478
0.77650005 -0.06458687 0.40200242 7039846
0.78350002 -0.064863183 0.40776607 7171945
0.77511114 -0.054186441 0.40340123 7303530
0.78100002 -0.057340749 0.40768349 7040103
0.77416676 -0.044605281 0.40366712 10987682
0.78000003 -0.045397196 0.40898743 6711139
0.76900005 -0.030355034 0.40141946 12764345
0.77421433 -0.034833886 0.40569821 11711660
0.76800007 -0.025518814 0.40149751 12566966
0.77300006 -0.025084812 0.40658563 12172211
0.76666665 -0.015010028 0.40199617 12172208
0.77225 -0.015119222 0.40763745 12369590
0.76640004 -0.0051365583 0.4027558 11974829
0.77240002 -0.0051767533 0.40861887 12106417
0.76546681 0.005027059 0.40304297 11909036
0.77050006 0.0047583804 0.40851557 11909036
0.76534796 0.015282334 0.40387979 11908522
0.76633334 0.02510817 0.40464255 11710886
0.76728576 0.034891587 0.4043749 11184800
0.77033335 0.038120177 0.40872803 11184543
0.76791674 0.044742718 0.40220332 10922143
0.77112502 0.046057649 0.40726835 10724764
0.76880008 0.05280301 0.40167508 11842990
0.7717222 0.055654075 0.40555242 11514025
0.77584624 0.063125655 0.40457141 10330008
0.78275001 0.067597032 0.40722221 7961973
0.78733343 0.071320273 0.40484482 8028021
0.79193336 0.076270312 0.40473843 8093813
0.78900003 -0.081015207 0.41001242 7698284
0.78900003 -0.078244612 0.41001242 7632491
0.79186362 -0.074823886 0.41613597 7764334
0.78850007 -0.065274656 0.41252172 7172456
0.79027271 -0.064832829 0.41689682 7501675
0.78700006 -0.055020254 0.41358089 7237734
0.79000002 -0.055226229 0.41792971 7435882
0.78638458 -0.04506072 0.41460454 6974821
0.79000002 -0.049678016 0.41792968 7567468
0.78536373 -0.034845341 0.41581553 6909287
0.79000002 -0.038581591 0.41977909 7435882
0.77733332 -0.025227068 0.41122869 9738389
0.78314292 -0.025414253 0.41613743 6711398
0.77683336 -0.015211574 0.41278279 8487549
0.78250003 -0.015324059 0.41762567 6250329
0.77581823 -0.0048687169 0.41340151 10263959
0.78233337 -0.0052417368 0.41936818 6118743
0.77488899 0.0047856835 0.41417196 10330006
0.78000003 0.0057306392 0.41994342 6250329
0.77366668 0.014738854 0.4147259 11382695
0.77266681 0.024669442 0.41419038 12106672
0.77366674 0.034665443 0.41472587 11579558
0.77494121 0.043897927 0.4137021 9277575
0.78050005 0.048673265 0.41838545 8619389
0.77611119 0.054355446 0.41320795 10725023
0.78200006 0.055173121 0.41882381 9408906
0.77800006 0.061722457 0.41158137 10527131
0.78536361 0.065943994 0.4156459 8553853
0.78850007 0.071015023 0.41313651 8159605
0.79203987 -0.064639933 0.4245742 7896433
0.78842866 -0.02452964 0.42158142 7237735
0.78750002 -0.013803604 0.42283013 6711648
0.79185718 -0.015369129 0.42765218 6975332
0.78677785 -0.0050660218 0.42400375 6316890
0.79025 -0.0052934061 0.42823717 6580573
0.78593338 0.0043006386 0.42534953 6317147
0.77900004 0.016665211 0.42122874 6842723
0.78518176 0.014794612 0.42674789 7040612
0.77800006 0.02483972 0.42068794 8949639
0.78500009 0.025063217 0.42723194 7172460
0.77833343 0.033050556 0.42086825 11843501
0.78458333 0.035610732 0.426548 8619903
0.78553337 0.044880178 0.4251332 7633007
0.78738463 0.054417744 0.42505592 8159349
0.79025006 0.056680951 0.42869949 8093298
0.78833342 0.063618518 0.42227706 7961714
0.79190916 0.065986343 0.426357 7962226
0.78900003 0.0085673565 0.4303301 6975331
0.78900003 0.015647763 0.43156147 7106660
0.79193753 0.01508892 0.43656969 7106660
0.78866673 0.025178721 0.43199456 7304298
0.79216677 0.025291443 0.43762267 7435113
0.78840005 0.035324294 0.43184853 7435884
0.79173338 0.035471454 0.4373835 7566698
0.78900003 0.043661553 0.43079185 7567468
0.79124993 0.04508258 0.43609753 7764847
