# .PCD v0.7 - Point Cloud Data file format
VERSION 0.7
FIELDS x y z rgb
SIZE 4 4 4 4
TYPE F F F U
COUNT 1 1 1 1
WIDTH 1201
HEIGHT 1
VIEWPOINT 0 0 0 1 0 0 0
POINTS 1201
DATA ascii
0.79381263 -0.055142917 0.054540969 12566712
0.78900003 -0.011750339 0.059070397 14541528
0.78900003 -0.0052856179 0.059070397 14475735
0.79376 -0.0053190971 0.053842593 11383721
0.78900003 0.0041344045 0.058331568 14081235
0.79292303 0.0051824348 0.053218041 10923171
0.78900003 0.012261483 0.059070397 14475735
0.79300022 0.015307357 0.054389093 11581101
0.79336369 0.024907263 0.054996982 11909551
0.79356688 0.044842053 0.054758109 11777709
0.78900003 0.055667471 0.059070397 13818066
0.79287118 0.054862954 0.053963937 11580330
0.78900003 0.064902782 0.059070397 13554637
0.79388011 0.065306075 0.053850736 11711659
0.78900003 0.071367502 0.059070397 13226186
0.79267871 -0.1246715 0.065108217 14869724
0.78900003 -0.11149175 0.068305716 14737110
0.79152185 -0.1148703 0.064492181 15132895
0.78900003 -0.10461657 0.067484796 14671829
0.79081249 -0.10549991 0.06313841 15461859
0.78900003 -0.09456034 0.067690037 14737879
0.79080963 -0.095217578 0.063435525 15330274
0.78900003 -0.084709331 0.067382187 14672086
0.79080009 -0.084903374 0.062906295 15264481
0.78899992 -0.075474016 0.066458657 14672086
0.79041672 -0.074684836 0.061951537 15330274
0.78882593 -0.064779595 0.065560423 14672087
0.79000002 -0.065952778 0.06136455 15396068
0.78855997 -0.05512565 0.064574152 14606294
0.78849989 -0.044968959 0.065492414 14211792
0.79000002 -0.04505451 0.060994666 14935516
0.78792846 -0.034593754 0.065772861 14080206
0.79000002 -0.037656888 0.060994666 14738137
0.7873714 -0.024760338 0.065317318 14014413
0.78719366 -0.014665985 0.065470517 13817033
0.78723329 -0.0052745631 0.065385833 13750985
0.78688896 0.0048604514 0.065356508 13619655
0.78713328 0.014996903 0.065375708 13356483
0.78730547 0.025136927 0.065389939 13159105
0.78733325 0.035275258 0.065392241 12764604
0.78757572 0.045006864 0.065663964 12896190
0.78712118 0.055030394 0.065123856 13356227
0.78554553 0.06511803 0.065493599 13422278
0.78587514 0.075052716 0.065153174 13948624
0.79000002 0.079780273 0.060994666 14475481
0.78784621 0.083395004 0.06692709 14014416
0.79185712 0.086722493 0.063385598 11579816
0.79128134 -0.12536207 0.075218789 14473939
0.78900003 -0.1111839 0.070768468 14803673
0.79016155 -0.11544499 0.075030506 14605525
0.78899997 -0.10460079 0.071715675 14343121
0.79000002 -0.10548649 0.077204168 14671574
0.78899997 -0.095395915 0.071472108 14540499
0.79000002 -0.094652176 0.0769668 14211277
0.78899986 -0.084223263 0.07287477 14277070
0.79000002 -0.085657336 0.078143686 14013899
0.7889998 -0.075474016 0.073846906 14145228
0.79000002 -0.074644975 0.079488702 13816263
0.78899974 -0.065315172 0.073846899 14079435
0.79000002 -0.064473256 0.07948871 13881799
0.78869992 -0.055135738 0.074743368 13882056
0.78802788 -0.044942711 0.07467892 13684677
0.78712004 -0.03475628 0.075514816 13487041
0.7871334 -0.024620533 0.075516686 13355712
0.7876001 -0.014495168 0.075561069 13092539
0.78740007 -0.0052756481 0.075542338 12829368
0.78713328 0.0048620123 0.075517371 12895674
0.78708017 0.014995029 0.075512215 12829881
0.78616655 0.025099019 0.075423166 12764088
0.78580004 0.035206307 0.075386606 12435123
0.78599989 0.045335587 0.075406156 12435123
0.78592002 0.055449881 0.075398847 12500916
0.78482753 0.065317489 0.07516855 12763575
0.78380787 0.075275056 0.075337723 12961469
0.78717852 0.085225753 0.074925877 13487815
0.78900003 0.090761669 0.077541023 12895679
0.79262966 0.09530849 0.074804477 10527385
0.7924999 -0.12497497 0.08530689 14474451
0.79132009 -0.11459934 0.085179664 14408145
0.79020011 -0.10518761 0.085058458 14869209
0.79000026 -0.094988436 0.085036941 14408914
0.79000014 -0.084816694 0.085036926 14408913
0.79030019 -0.074672803 0.085070334 14408913
0.79060018 -0.064522229 0.085102923 14277327
0.78900003 -0.051462196 0.081235155 14079178
0.79062515 -0.055424515 0.085260175 14277070
0.78888881 -0.043862902 0.08348123 13948105
0.79000002 -0.046749797 0.087194562 14343120
0.78855985 -0.034819387 0.084883325 13816776
0.78856659 -0.024665719 0.084883966 13684677
0.7889598 -0.014520011 0.084925145 13421248
0.78886354 -0.0050330451 0.084411494 12829626
0.79000002 -0.0071417205 0.088735729 12895419
0.78884602 0.004375264 0.084416166 13027260
0.79000002 0.0081158634 0.088273384 13093053
0.78871989 0.015025995 0.084899999 12829881
0.78726673 0.02513293 0.084743492 12698295
0.78604007 0.035216961 0.084611237 12566709
0.78603327 0.045337778 0.084610328 12369330
0.78603995 0.055458814 0.084610566 12106159
0.78556001 0.064618409 0.0845588 12171695
0.78516656 0.074698314 0.084517196 12500918
0.78768015 0.085080624 0.084788039 13027779
0.78900003 0.090761669 0.084929287 13290952
0.792 0.095745608 0.085250907 10001040
0.79227269 -0.12468705 0.095059283 14803416
0.79110014 -0.11456693 0.095340878 15001051
0.79076684 -0.10526257 0.095302157 14935002
0.79067671 -0.095287517 0.095019422 14868952
0.79064018 -0.084885225 0.094361633 14540501
0.7912668 -0.074764498 0.094436005 14606293
0.79153848 -0.064456537 0.094682574 14277327
0.79093355 -0.055292182 0.095320567 14277327
0.79008371 -0.045059752 0.095218413 14211277
0.78900003 -0.032991566 0.09047047 14277327
0.79007167 -0.035018124 0.095547915 13947849
0.78900003 -0.02467978 0.09047047 13948105
0.79000026 -0.024711061 0.096133351 13750213
0.78900003 -0.010826807 0.092317536 13487041
0.79000026 -0.014666884 0.095304303 13618627
0.78900003 -0.0089797443 0.092317536 13487041
0.79000026 -0.0051647723 0.095304281 13223869
0.79000038 0.0048794067 0.095208675 13553605
0.78899986 0.016175497 0.094252534 13553604
0.79000002 0.012379768 0.097160794 13488068
0.78827775 0.025166111 0.095001854 13355712
0.78743339 0.03527911 0.094900846 13158333
0.7869724 0.045391448 0.094844252 13289662
0.78623313 0.055471335 0.09475524 13290176
0.78533328 0.064600073 0.094645604 12960955
0.78549987 0.074730806 0.094666451 12631992
0.78800005 0.085114345 0.094967626 13356487
0.78900003 0.090761669 0.095088132 13422023
0.79104543 0.095460437 0.094912998 9935248
0.79107141 -0.12587497 0.10492641 14342608
0.79030031 -0.11537468 0.10541983 14408913
0.79080015 -0.10526598 0.1054866 14540499
0.79140627 -0.094924681 0.10522038 14803671
0.79183328 -0.085013062 0.10469852 14672085
0.79188883 -0.074823782 0.1047056 14606292
0.79193097 -0.064759351 0.10487114 14540243
0.79088014 -0.055288777 0.10549862 14474193
0.7901336 -0.045061801 0.10539868 14342863
0.79064012 -0.034911048 0.10546697 14276814
0.79010022 -0.024714695 0.10539408 14145228
0.79024017 -0.01454338 0.10541312 13947592
0.79024017 -0.0052942992 0.10541302 13355199
0.79000026 0.0048794067 0.10538035 13619398
0.78900003 0.018198472 0.10445537 13290434
0.79000002 0.013818193 0.1056886 13487812
0.78879988 0.025183525 0.10522071 13158591
0.78800005 0.035304971 0.1051136 12961211
0.78785199 0.044929452 0.10488877 13092540
0.78689289 0.054924779 0.10516405 13158076
0.7850346 0.065334506 0.10484432 13355457
0.78515375 0.075404339 0.10459202 12895677
0.78763998 0.085076682 0.10506538 13553609
0.78900003 0.090761669 0.10524698 13422023
0.79186368 0.095897526 0.10512363 9869454
0.79117864 -0.12509754 0.11499804 14737366
0.79055572 -0.11489876 0.1145037 14671573
0.7908802 -0.10527672 0.11475535 14671829
0.79130006 -0.095143437 0.11481624 14671572
0.79199988 -0.08503142 0.11491758 14671571
0.79213321 -0.074846476 0.11493634 14737108
0.79211992 -0.064646646 0.11493454 14605522
0.79128003 -0.055316731 0.11481274 14605522
0.79100019 -0.045111537 0.11477247 14408143
0.79112017 -0.034933176 0.11478914 14342350
0.78900003 -0.021909187 0.11817642 14013385
0.79010373 -0.02481048 0.11451443 14079178
0.79000014 -0.014539337 0.11462738 13618627
0.79024017 -0.0052941116 0.11466165 13224126
0.79020029 0.0048799389 0.11465569 13487555
0.79000014 0.015051129 0.11462737 13224641
0.78899974 0.025454791 0.11421842 13487813
0.79000002 0.021524044 0.11832619 13553093
0.78834617 0.035461392 0.114601 13093055
0.78761774 0.045156542 0.11520422 13290176
0.78684372 0.055168141 0.11509062 13289920
0.78527266 0.065095313 0.11461072 13158591
0.78496963 0.075096264 0.11506701 13093056
0.78703332 0.085011818 0.11511748 13750987
0.78900003 0.091069512 0.11509798 12895422
0.79168427 0.095853388 0.11467585 9803661
0.79197222 -0.12489169 0.12510949 14671316
0.79110014 -0.11456684 0.1249727 14803158
0.79113352 -0.10531075 0.12497784 14671828
0.79119462 -0.09513136 0.12498692 14803158
0.79183328 -0.085013375 0.12508784 14737108
0.79199988 -0.074833959 0.12511508 14803158
0.79199988 -0.064636461 0.12511507 14803158
0.79219991 -0.055379868 0.12514776 14802901
0.79202765 -0.045171484 0.12512115 14605522
0.79073352 -0.034916647 0.12491567 14342350
0.78900003 -0.022832718 0.12787351 14276557
0.79000026 -0.025239464 0.12387442 14276557
0.78900003 -0.018215058 0.12925881 14276044
0.79000026 -0.014411793 0.12463969 13816006
0.78900003 -0.0022071789 0.12864311 13750728
0.7900002 -0.0056347996 0.12435389 13223869
0.78899997 0.0052284347 0.12812217 13882313
0.79000008 0.0046783844 0.12282909 13750470
0.78899992 0.01490894 0.12728859 13223868
0.79000002 0.015174422 0.1221483 12960697
0.7889998 0.025883572 0.12587251 13158075
0.79000002 0.02362564 0.12185688 13289664
0.78889632 0.035217274 0.12478401 12763831
0.78808004 0.044532724 0.12541837 12763318
0.78776675 0.05465715 0.12536865 13026491
0.78592002 0.06464681 0.12507477 12895162
0.78499991 0.074681111 0.1249281 12764090
0.78700006 0.085007265 0.12524638 13422021
0.78899992 0.092377849 0.12510289 11119266
0.79035711 0.096997574 0.12432554 10132625
0.79263622 0.10467736 0.12546565 10198418
0.79072022 -0.12561946 0.13509265 14802902
0.79010028 -0.11534663 0.13498758 14934231
0.79048014 -0.10522366 0.13505362 14868181
0.79063356 -0.09506321 0.13507968 14802645
0.79108012 -0.084932461 0.13515498 14802388
0.79176658 -0.074811243 0.13527183 14736595
0.79215997 -0.064648777 0.13533968 14802388
0.79307997 -0.055441163 0.13549697 14999767
0.79306656 -0.045230575 0.1354946 14802388
0.79159999 -0.034954842 0.13524486 14473423
0.78900003 -0.023386838 0.13184468 14341837
0.79008019 -0.024972949 0.13557662 14341837
0.78900009 -0.014185104 0.136815 13947079
0.79000002 -0.014803538 0.13338564 14012872
0.7889998 -0.0050337459 0.13530374 13355456
0.79000002 -0.0071417205 0.13127203 13289407
0.78896642 0.0048728292 0.1347941 14144971
0.78851992 0.015022933 0.13471659 13618371
0.78829992 0.025168223 0.13467923 13092540
0.78773338 0.035292789 0.13550431 13092540
0.78718197 0.044983815 0.13565889 12895161
0.78678787 0.055007514 0.13508788 12960697
0.78512496 0.064926483 0.1352835 13026747
0.78502929 0.074955203 0.13482353 12764092
0.78748155 0.084854789 0.13494989 13094085
0.78900003 0.091289401 0.13400839 12238007
0.7909444 0.095924512 0.13544227 9935247
0.79296654 0.1051418 0.13548034 10198418
0.79356003 -0.13536195 0.14486803 12433328
0.79044849 -0.1254487 0.14506559 14868181
0.79000038 -0.11533184 0.14514256 14802387
0.79010028 -0.10517325 0.14516044 15065558
0.79044473 -0.095041618 0.14522253 15131095
0.7906335 -0.084884308 0.1452574 14999767
0.79100025 -0.074738547 0.14532542 14868181
0.7917999 -0.064619586 0.14454591 14802388
0.79247987 -0.055399314 0.1446692 14933974
0.79193938 -0.044913564 0.14507587 14933974
0.79123348 -0.03493787 0.14536874 14670545
0.79030591 -0.024722081 0.14519885 14473166
0.78900003 -0.01267387 0.14139664 13947079
0.79000008 -0.015102201 0.14622806 14341067
0.78899974 -0.0051582339 0.14479962 13618113
0.79000002 -0.008991125 0.14976607 13617344
0.78874981 0.0048704171 0.14491278 14539215
0.78733343 0.01499923 0.14464983 14209993
0.78672224 0.025117937 0.14453623 13618112
0.78591996 0.03521093 0.1453111 13223612
0.78453332 0.045248643 0.14505573 13158076
0.78259993 0.0552148 0.14469764 12829111
0.78144467 0.065196291 0.14539714 12829625
0.78304017 0.075413808 0.14477919 12764091
0.78714281 0.085221887 0.14494579 13159107
0.78900003 0.090761669 0.1495765 13224644
0.79200017 0.094748937 0.1447968 10461591
0.79076934 -0.12577048 0.15525119 14933717
0.7888667 -0.11399723 0.15706106 14472395
0.79000002 -0.11650317 0.15334159 15130837
0.78823984 -0.10470571 0.15533459 15328215
0.79000002 -0.10700954 0.15161547 15394007
0.78740001 -0.094806582 0.15558757 15854815
0.78861898 -0.085107207 0.15565713 15920866
0.79000002 -0.082504943 0.15207782 15328732
0.78900003 -0.077690497 0.15807298 15592157
0.79036021 -0.074048541 0.15479276 15197145
0.79136682 -0.064584166 0.15465538 15131095
0.79140007 -0.055324022 0.1546618 15065045
0.79087907 -0.045357995 0.15498073 15196374
0.79032022 -0.034896821 0.15537594 15064788
0.79010034 -0.024714462 0.15533346 14735823
0.78900003 -0.01336652 0.15788828 14341320
0.79000002 -0.015083279 0.15400881 14406859
0.78803837 -0.0049264925 0.15549238 13880771
0.79000002 -0.008991125 0.15161547 13814723
0.77530009 0.0069649406 0.15823022 13683392
0.7852667 0.0043569189 0.15449849 14341578
0.76671427 0.016657885 0.15919641 14078663
0.77442861 0.014753905 0.15587214 13486526
0.78308338 0.014459148 0.15166104 14275529
0.76688892 0.02418532 0.15894781 13815491
0.77403855 0.024991957 0.15523593 13749698
0.7815001 0.024952443 0.15089735 14012613
0.7753334 0.034306604 0.15666002 13552576
0.78235722 0.035706632 0.15197785 13421246
0.7772857 0.04158479 0.15827122 13420989
0.78290343 0.04566006 0.15421192 13355454
0.78316694 0.055255663 0.15488987 13092283
0.7827335 0.065303415 0.15572099 12895418
0.78386682 0.07549306 0.15502864 12764347
0.78715998 0.085025862 0.1547564 13290435
0.78900003 0.090761669 0.15557945 13290435
0.79237503 0.095714785 0.15500709 10001040
0.79325932 -0.1355174 0.16482526 12367793
0.78880006 -0.12371295 0.166896 15065048
0.79021424 -0.12699172 0.16341652 15196891
0.78741181 -0.11522811 0.16472374 14538189
0.77883339 -0.10276227 0.1683125 15327960
0.7836073 -0.10529389 0.16420543 15262423
0.7778824 -0.095083646 0.167606 15196373
0.78173333 -0.094909169 0.16283713 15328472
0.77900004 -0.088498779 0.16895668 14933202
0.78463894 -0.0850517 0.1644066 15591388
0.78818518 -0.075736381 0.16554764 16249061
0.79000002 -0.071254395 0.16209543 15722718
0.78878564 -0.065824412 0.16852875 16117476
0.79010528 -0.064286806 0.16351201 15657438
0.78900003 -0.055710442 0.16878596 15920097
0.79024994 -0.05496629 0.16377996 15656925
0.78900003 -0.048691601 0.16989419 15788511
0.79003358 -0.045056604 0.16456808 15459546
0.78900003 -0.032991566 0.16989417 15262167
0.79000014 -0.034882784 0.16456129 15262167
0.78828567 -0.024263227 0.16558598 14801616
0.79000002 -0.028101636 0.16209544 15064788
0.76650006 -0.010518058 0.16953236 13551294
0.77507699 -0.01385087 0.16773081 13682879
0.7853846 -0.015233235 0.16387433 14275014
0.75900006 -0.0024193947 0.16876484 14144971
0.76421422 -0.0048642368 0.1674906 13552320
0.77437502 -0.0054135513 0.16447379 13419450
0.78381824 -0.0062554125 0.16143568 13748926
0.75838459 0.0055709309 0.16739824 14210763
0.7633158 0.0047614742 0.16388732 13947079
0.77308345 0.003110555 0.16148598 13485500
0.75773078 0.015868407 0.16670595 14078663
0.76206666 0.014633964 0.16159351 14012870
0.75816667 0.024798179 0.16621135 13881284
0.76116675 0.025639579 0.16167204 13749955
0.75871432 0.032724708 0.16793981 13289404
0.7635358 0.034974821 0.16433771 13486783
0.77140009 0.037450053 0.16176885 13486782
0.76625001 0.041955777 0.16858074 13947590
0.77453339 0.045344122 0.16429527 13618369
0.78100002 0.049618024 0.16085821 13355453
0.77800006 0.051248748 0.16752402 13552575
0.7828334 0.055465024 0.16489884 13289661
0.78492582 0.064975508 0.16554584 12895161
0.78475004 0.074985586 0.16510701 12632761
0.78679997 0.084986128 0.16481404 13158849
0.78890002 0.091488995 0.16599382 11711405
0.79129416 0.096149094 0.16450328 9803662
0.78900003 -0.13088591 0.17820597 14999255
0.79188895 -0.13521507 0.1747039 12367538
0.78761542 -0.12498636 0.17533676 14340810
0.79000002 -0.1292024 0.17010953 15262941
0.77850002 -0.112287 0.17811221 15130581
0.78330779 -0.11562853 0.17444631 14867153
0.77703601 -0.10499437 0.17576046 15328216
0.78100008 -0.10944712 0.17182668 15130581
0.77703154 -0.095474444 0.17493379 15328214
0.77842867 -0.086002767 0.17534077 14867152
0.78145462 -0.081570558 0.17292316 14867408
0.77900004 -0.0763411 0.17868282 14735563
0.78311539 -0.074768215 0.17433168 15064787
0.78436112 -0.064929761 0.17531161 15591131
0.78634495 -0.055095188 0.17559925 15788511
0.78859252 -0.045281526 0.17575379 15262167
0.79000002 -0.042808805 0.17090212 15459546
0.76900005 -0.030355034 0.17998956 13815493
0.77616674 -0.031849403 0.17863573 14143687
0.78661531 -0.034948621 0.17518133 14801616
0.79000002 -0.037656888 0.17010953 15327960
0.75742859 -0.022807999 0.17879853 14210764
0.76340008 -0.02477118 0.17742383 13947335
0.77411109 -0.025121205 0.17483753 14077894
0.78372729 -0.026270084 0.17192537 14538444
0.74900001 -0.012031342 0.17881526 14342350
0.75550002 -0.014419903 0.17667501 14210764
0.76326674 -0.015358457 0.17292494 13815493
0.7728889 -0.017643347 0.17144883 13814465
0.74750006 -0.0039590616 0.17828088 14276557
0.75446153 -0.0051229396 0.17358844 14210764
0.76000005 -0.0086496901 0.17076637 14013385
0.74736369 0.0049348683 0.17778571 14210764
0.75411546 0.0043865228 0.17242485 14210763
0.74773324 0.014364162 0.17781086 14079178
0.75288004 0.01511636 0.17310844 13947591
0.7486667 0.023319483 0.17815121 13947592
0.75389665 0.025256606 0.17370711 13749699
0.75635153 0.034323767 0.17506051 13420734
0.76050007 0.039413914 0.17176829 13354942
0.75900006 0.041113008 0.17942584 12763057
0.764 0.043064401 0.17546079 13618368
0.77278578 0.047805928 0.174284 14144456
0.77727276 0.052029565 0.17514159 13815491
0.78288901 0.05707062 0.17499268 13354940
0.78485185 0.06496907 0.17430939 12960695
0.78432161 0.074943803 0.1745927 12566708
0.78623992 0.084926017 0.17482191 13224641
0.78875005 0.09142556 0.17468803 11908783
0.79110527 0.096074492 0.17512394 9869454
0.7883637 -0.13161971 0.18586208 14012102
0.7921176 -0.13686055 0.18485413 11183005
0.77737504 -0.12236077 0.18672399 14867154
0.78438103 -0.12575142 0.18375981 13880516
0.77535152 -0.11469068 0.18490387 15196374
0.77507997 -0.10498762 0.18503977 15525595
0.77632368 -0.094945692 0.18469514 15591386
0.7777335 -0.085318603 0.18476216 15327700
0.77808332 -0.075342365 0.18484579 14801098
0.77693343 -0.065226845 0.18457122 14603975
0.76733333 -0.051245257 0.18857805 13682365
0.7752353 -0.055529974 0.18512395 14603978
0.78200006 -0.053198688 0.18083408 15525082
0.74750006 -0.043069631 0.18851885 14342352
0.75599998 -0.04400206 0.18756229 14275788
0.76441669 -0.045382928 0.18636845 13946308
0.77446151 -0.045773011 0.18419252 14867409
0.78431261 -0.04472978 0.1815038 14932946
0.74518186 -0.03520472 0.1877325 14342865
0.75527281 -0.034796137 0.18480884 14342094
0.76375008 -0.034916449 0.18277971 13947336
0.77420008 -0.036905862 0.18192817 14143686
0.78350008 -0.038264148 0.18063036 14537931
0.73900002 -0.022250785 0.18853797 14211534
0.74459368 -0.024925124 0.18527205 14342863
0.75445461 -0.02641343 0.18155998 14276557
0.76000005 -0.029999774 0.1814414 14079178
0.73774999 -0.014441942 0.18908136 14145741
0.74402785 -0.014565673 0.18371612 14211277
0.73900002 -0.0075456793 0.18853797 14211534
0.74374187 -0.004983712 0.18451636 14277327
0.7437222 0.004594354 0.18538547 14211534
0.74485022 0.015238593 0.1850564 14145227
0.74589485 0.025148561 0.18500769 13947592
0.74759084 0.0342912 0.18571559 13881798
0.75261539 0.036704604 0.18197893 13881540
0.74900001 0.040571332 0.18933581 13947590
0.75533342 0.042882279 0.18611544 13684161
0.76230001 0.046470322 0.18466604 13618367
0.77125001 0.04854795 0.18186928 14078917
0.76550007 0.050425343 0.18902487 13421246
0.77535003 0.05380065 0.18591756 14144711
0.78200001 0.057554174 0.1837627 13552318
0.78480643 0.064442441 0.18481243 13157561
0.78566653 0.074744374 0.18481162 12500145
0.7872414 0.08490663 0.18502232 13093310
0.78900003 0.090761669 0.18467069 13685448
0.7925238 0.095941931 0.18523046 10461591
0.78900003 -0.14012124 0.1994472 10196108
0.77700007 -0.13071422 0.19914107 15196375
0.7859 -0.13396218 0.19552967 12235435
0.79099995 -0.13783173 0.19307318 10064525
0.77503711 -0.12460811 0.19544423 15196117
0.78133339 -0.12839521 0.19202183 14472653
0.77312142 -0.11476016 0.19493894 15459288
0.77406669 -0.10485003 0.1947661 15459543
0.775361 -0.095041782 0.19509177 15525336
0.77576673 -0.085104398 0.19519152 15459030
0.76900005 -0.071760617 0.19979224 14340806
0.77536118 -0.075078316 0.19508713 14800841
0.74900001 -0.061127171 0.19985634 14408145
0.75750005 -0.060932457 0.19946268 14342352
0.76445466 -0.064669661 0.19909567 13946821
0.77403444 -0.065108486 0.19459623 14274497
0.736 -0.052830137 0.19914244 14408143
0.74521428 -0.053964049 0.19772068 14473937
0.75564283 -0.054591071 0.19593634 14408145
0.76438463 -0.055777825 0.1939093 13814979
0.77242857 -0.058390629 0.19241485 14142912
0.7350477 -0.044583138 0.19719289 14539730
0.74423814 -0.045556933 0.19318667 14473938
0.75525004 -0.048820756 0.1909122 14210765
0.73487502 -0.034814239 0.19575647 14605780
0.74150008 -0.03604091 0.1916053 14408915
0.73462498 -0.024527846 0.1945495 14408658
0.74050003 -0.028363865 0.19065419 14277329
0.73338884 -0.014355633 0.1948283 14145484
0.73462844 -0.0049209073 0.19429277 14211277
0.73515791 0.0043595545 0.1949753 14277071
0.74075001 0.0063102026 0.19071858 14277327
0.73559976 0.014588482 0.19621606 14145485
0.74141669 0.015717214 0.1919015 14210764
0.73647624 0.024871085 0.19774216 13882312
0.74252164 0.026089428 0.19306059 14013385
0.73900002 0.031379595 0.19891803 13685190
0.74415165 0.035085183 0.19475627 13881799
0.7468636 0.043080527 0.19578724 13947590
0.75441176 0.047620382 0.19391845 13816004
0.75780004 0.052047513 0.19794473 13684419
0.76335716 0.053735513 0.19526295 13684418
0.77276927 0.057167668 0.19394816 14210762
0.77666664 0.061768066 0.1963266 14013383
0.78321058 0.065876991 0.19441108 13158074
0.78613323 0.074789844 0.19504084 12631475
0.78730774 0.085182115 0.1951192 13027262
0.78900003 0.090761669 0.19482954 13619656
0.79190916 0.095565625 0.19512588 10856092
0.77900004 -0.14016895 0.20786127 10458767
0.78684217 -0.14439467 0.20626582 10130573
0.79110003 -0.14753175 0.20293872 10197135
0.77515399 -0.13361803 0.205715 14801616
0.78337502 -0.13797837 0.20214695 10261901
0.77310014 -0.12462904 0.2053815 15393750
0.77302808 -0.11466359 0.20536278 15525079
0.77407706 -0.10499133 0.20494406 15196113
0.77451509 -0.094858289 0.20534283 14735562
0.7458334 -0.082402594 0.20890063 14342350
0.75600004 -0.083441161 0.20804024 13947335
0.764 -0.084360883 0.20632789 14143685
0.77316678 -0.085824758 0.20368633 14669771
0.73594123 -0.07364428 0.20812416 14408143
0.74476475 -0.075344168 0.2056953 14342350
0.75572735 -0.075345188 0.2037383 14078665
0.76300007 -0.075368516 0.2018013 14078149
0.7712 -0.077022523 0.20072432 14603978
0.72900003 -0.061201539 0.20987916 14276557
0.73407143 -0.064697385 0.20562337 14342351
0.74492854 -0.065406524 0.20200594 14473680
0.75533336 -0.066554978 0.20095217 14276045
0.76300001 -0.069414519 0.20001958 13814721
0.72614294 -0.054005396 0.20767538 14342352
0.73224014 -0.055990037 0.20298986 14408145
0.74400002 -0.058977395 0.20026389 14473936
0.72383332 -0.044670682 0.20583874 14408402
0.7306667 -0.045092646 0.20095062 14605524
0.72455549 -0.034537226 0.20604411 14540244
0.73075002 -0.034831744 0.20097382 14737110
0.72420007 -0.024469379 0.20582151 14540500
0.73049992 -0.024560025 0.20090477 14605523
0.72469997 -0.01520068 0.20642413 14342864
0.73066658 -0.013789298 0.20146371 14342350
0.72654176 -0.0059975213 0.20746492 14145741
0.73111773 -0.0047976049 0.20233259 14145741
0.72760004 0.0048350818 0.20742945 14211534
0.73100001 0.004204704 0.20251952 14211534
0.72846162 0.013617762 0.20841171 14145741
0.73100007 0.015284283 0.20360744 14079949
0.73244452 0.025103413 0.2048669 13619397
0.73672003 0.033700582 0.20568161 13355968
0.74155557 0.037660856 0.20326704 13553089
0.74450004 0.044507772 0.20507239 13421246
0.75000006 0.049404323 0.20012319 13881797
0.7486667 0.051069129 0.2067772 13816003
0.75564289 0.05344373 0.20503604 13355452
0.76375008 0.057763085 0.20498033 13553087
0.77100009 0.059812263 0.20211519 13684416
0.77515006 0.06413161 0.20555881 14079431
0.78180003 0.069069579 0.20512752 13421245
0.78522581 0.075445957 0.20477709 12763574
0.7867142 0.084778532 0.2049869 12895931
0.78900003 0.090761669 0.20498839 13619654
0.79271436 0.095877431 0.20524532 10658712
0.78900003 -0.16105463 0.21914922 9869200
0.79306906 -0.16511017 0.21423295 10592921
0.78731823 -0.15381618 0.21627608 9868687
0.79119998 -0.1571835 0.21222576 10066577
0.77673334 -0.14327793 0.21646589 12696243
0.7833572 -0.14698026 0.21360192 9867659
0.77396977 -0.1350944 0.21480794 15262165
0.77280784 -0.12479024 0.21539304 15459028
0.76587498 -0.11270984 0.21869873 14603720
0.77211547 -0.11536215 0.2147806 15195856
0.73900002 -0.10010134 0.21967819 14341837
0.74528581 -0.10244968 0.2185529 14407630
0.75536364 -0.10440733 0.21794681 14143942
0.76484615 -0.10539213 0.21592385 14669514
0.77263159 -0.10494189 0.21263276 14932684
0.73566669 -0.093797751 0.21799546 14407630
0.74486673 -0.094851501 0.21548986 14407630
0.75590003 -0.094426155 0.2139031 14012871
0.764 -0.095437348 0.21279721 14078147
0.77225006 -0.097375862 0.21148196 14472390
0.73360014 -0.084258676 0.21546392 14341837
0.74366671 -0.08699923 0.21216306 14407630
0.75425005 -0.088041909 0.21096717 14210764
0.72644448 -0.073839836 0.21773571 14408143
0.73185724 -0.075475916 0.21290104 14408143
0.71900004 -0.062045202 0.21878248 14473936
0.72440547 -0.065079428 0.21518986 14408143
0.73066664 -0.066758566 0.21092902 14408143
0.71804541 -0.053712022 0.21757287 14408143
0.72204554 -0.05555087 0.21271305 14408143
0.7178787 -0.044429693 0.2160432 14539472
0.72000003 -0.0444334 0.21108051 14277328
0.71750003 -0.034409534 0.2164301 14737364
0.72000009 -0.034994416 0.21133332 14606037
0.71759379 -0.025280485 0.21603936 14540499
0.72000003 -0.025049772 0.21065912 14540500
0.71744108 -0.015920563 0.2160306 14277327
0.72012508 -0.014938584 0.21111709 14343120
0.71821737 -0.0064180861 0.21722625 14211534
0.72159994 -0.0047471267 0.21230631 14211534
0.71900004 0.0014952917 0.21836169 14145741
0.72228938 0.0047730128 0.21421392 14079948
0.72543591 0.014481275 0.2152473 13685190
0.72900003 0.020715363 0.21755886 13224638
0.73114729 0.025309481 0.21457459 13224638
0.73452944 0.035140306 0.21536143 13027258
0.73871428 0.041496377 0.21638072 13224636
0.74314815 0.045801181 0.21459521 13355709
0.74780005 0.05171115 0.21511655 13289915
0.75468755 0.055791106 0.21528459 12960438
0.76050007 0.058997698 0.21449655 13091768
0.76500005 0.062035263 0.216058 13289659
0.77322727 0.066734843 0.21462487 13816259
0.77662498 0.073772982 0.21733855 13947589
0.78238893 0.07606288 0.21323946 12895158
0.77900004 0.080493063 0.2188032 13158844
0.78548288 0.084972233 0.2151009 12830396
0.78866673 0.091339014 0.21597868 13159362
0.79268426 0.096269548 0.21463555 10330263
0.79241371 -0.17488796 0.22429891 10723737
0.78850007 -0.1612608 0.2251633 9933964
0.79058826 -0.16620624 0.22456267 10065550
0.77749997 -0.15142739 0.22717786 9867145
0.78463155 -0.15559097 0.22453956 9867916
0.76900005 -0.14016984 0.22859614 15525080
0.77396673 -0.14488448 0.22481185 14077637
0.76538897 -0.13443784 0.22751628 14538184
0.77194458 -0.13558739 0.2228428 15327699
0.74825001 -0.12193711 0.22899619 13815234
0.75658339 -0.12403353 0.2278536 14077636
0.76380956 -0.12525479 0.22491568 14340805
0.77107149 -0.12572025 0.2214748 14866891
0.74485713 -0.11409818 0.22705929 14209992
0.75500005 -0.11576224 0.22442718 14209479
0.76309103 -0.11635787 0.22180019 14209219
0.73642856 -0.10394244 0.22646214 14078150
0.74350005 -0.10691297 0.22296788 14276043
0.75650001 -0.10955572 0.22044995 14077893
0.73300022 -0.095201254 0.22514899 13947335
0.72705257 -0.083794475 0.22660421 13881286
0.73086667 -0.086453505 0.22296269 14144714
0.71899998 -0.071182534 0.22671752 13683907
0.7224412 -0.076076157 0.22439834 13947335
0.71770269 -0.064071104 0.22496873 13881799
0.72000003 -0.068030864 0.22077231 14276557
0.71321213 -0.054820992 0.22470452 13947593
0.70868748 -0.043839812 0.22663532 14605779
0.71150005 -0.046534605 0.22315827 14342864
0.70788884 -0.035002235 0.22601786 14672085
0.71153343 -0.036193114 0.22139446 14606292
0.70755184 -0.025586987 0.22677624 14474706
0.71149999 -0.025586275 0.22149493 14606292
0.7081365 -0.015820215 0.22647706 14211534
0.71165001 -0.01526316 0.22187433 14211534
0.70875007 -0.0093106562 0.22769229 14145741
0.71366668 -0.0051614544 0.22464733 14079948
0.71813893 0.0039245994 0.22519588 13816776
0.72000003 0.0080990419 0.22133414 13750983
0.71900004 0.01033205 0.22804004 13619395
0.72268575 0.014887859 0.22487925 13356224
0.72833341 0.021407505 0.22503044 13158844
0.73096007 0.026590455 0.22481768 12961465
0.73391181 0.035464134 0.22503749 13027259
0.73827267 0.042504948 0.22511877 13027514
0.74222225 0.047156893 0.22497827 13290684
0.74656248 0.052238755 0.22541964 13422013
0.75453341 0.057126459 0.22429241 12960436
0.75900006 0.060658168 0.22562349 12697264
0.76421058 0.064564794 0.22528763 13026230
0.77083331 0.068521582 0.22342394 13421246
0.77367753 0.074688189 0.22519213 13553346
0.77668422 0.082648642 0.22494535 13093310
0.78318191 0.087260388 0.22364064 13027519
0.78750002 0.09203954 0.22566552 13159105
0.79126662 0.096951596 0.22447023 10198419
0.78822231 -0.16151136 0.2343089 9802122
0.79213333 -0.16664252 0.23485391 9867915
0.7665 -0.15048049 0.23951474 15393751
0.77468753 -0.15311019 0.23515698 12630191
0.78290009 -0.15773423 0.23474324 9736072
0.75900006 -0.14101234 0.23894973 14143683
0.76490915 -0.14406396 0.23599881 14735563
0.77166671 -0.14758162 0.23330046 15459029
0.74849999 -0.13117644 0.23914799 13814975
0.75621736 -0.13437876 0.23548843 14077634
0.76233333 -0.13756774 0.23216438 14472390
0.74610728 -0.12502146 0.23513818 13880770
0.75350004 -0.12822942 0.23133308 14011843
0.73816675 -0.11107747 0.23498088 13618111
0.74221736 -0.11670769 0.23483583 13749441
0.73369992 -0.10454013 0.234761 13552318
0.72900003 -0.090701379 0.23572198 13157304
0.73110366 -0.095669433 0.23503631 13223097
0.72533339 -0.0846719 0.23480257 12762547
0.71900004 -0.071583301 0.23168696 13025976
0.72092301 -0.075323924 0.23546775 12302253
0.71831822 -0.064357713 0.23348102 12368046
0.72072738 -0.065723024 0.2386353 11446945
0.71660006 -0.054928347 0.2353026 11446945
0.70866674 -0.041798744 0.23250522 11380897
0.71222728 -0.045852125 0.23544422 10394001
0.70661527 -0.035275653 0.23473583 13618370
0.70548636 -0.025259284 0.23515606 13684677
0.70614272 -0.015474314 0.23470494 13948105
0.70789289 -0.0069897301 0.23570159 13882569
0.71099997 -0.0025426296 0.23354553 13882569
0.71571434 0.0044288333 0.23536718 13619397
0.71899992 0.011250154 0.23576741 13422018
0.72174072 0.016195016 0.23482007 13356225
0.72743756 0.022056552 0.2356092 13290174
0.73104769 0.02713153 0.23491713 13224381
0.73425001 0.035481147 0.23516671 13158845
0.73841667 0.042591717 0.23506145 13422016
0.74122226 0.047091931 0.23508757 13422015
0.74568194 0.053487994 0.23515131 13487294
0.75300002 0.057976633 0.23396976 13421244
0.75800008 0.061288752 0.23579383 12763057
0.76485002 0.066145882 0.23469874 12697522
0.76900005 0.070458569 0.23939759 12631730
0.77259386 0.075540327 0.23474975 13224381
0.77577281 0.084455676 0.23514833 13159103
0.78120005 0.089133538 0.23515041 13093312
0.78665006 0.093534298 0.23485497 12829883
0.79016668 0.097986817 0.23427097 9803661
0.7766667 -0.16096029 0.2466294 11052189
0.78592873 -0.16389093 0.24492612 9407878
0.79255557 -0.16796622 0.24363375 9605513
0.76406252 -0.15313469 0.24567671 14077634
0.77350003 -0.15728866 0.24381173 13486270
0.75736368 -0.14425729 0.24600659 13485755
0.7610001 -0.14761969 0.24225023 14077634
0.74785715 -0.13281587 0.24569619 12762801
0.75266671 -0.13729282 0.24380241 13288632
0.74540013 -0.1251093 0.24513863 12696753
0.73866671 -0.11100825 0.2435004 12499631
0.74272013 -0.11639643 0.24498688 12499631
0.73473084 -0.1046217 0.24474058 12039080
0.72900003 -0.090213776 0.24059798 12039080
0.73172432 -0.094983391 0.24504319 11775908
0.72769231 -0.084288187 0.24318163 11710115
0.73066664 -0.085430719 0.24784823 11117978
0.72622728 -0.075728886 0.24416977 11117980
0.73000002 -0.074957035 0.24947274 10657428
0.72576189 -0.064814553 0.24511731 10525843
0.73000002 -0.068121262 0.24947274 10262671
0.71900004 -0.051525254 0.24108478 10130314
0.72309095 -0.055014446 0.24534659 9933449
0.71586365 -0.044566158 0.24479391 10723221
0.72049999 -0.048681013 0.2470701 9801863
0.7062121 -0.034945253 0.24479792 12697523
0.71000004 -0.039660964 0.24762423 12369072
0.70314997 -0.025123883 0.24498549 13025975
0.70359993 -0.015581278 0.245141 12960439
0.70630771 -0.0053650467 0.24506138 13619653
0.7077142 0.0033668757 0.24629201 13553604
0.71213335 0.0063461927 0.24258536 13553859
0.71618932 0.013651717 0.24533287 13422274
0.72039998 0.018110299 0.2424815 13422016
0.71900004 0.020431202 0.24823835 13750982
0.72421622 0.024572568 0.24528776 13290430
0.7306 0.028628523 0.24249366 13421246
0.72900003 0.030954976 0.24827769 13158844
0.73238903 0.035627313 0.24490383 13355453
0.73645169 0.04490019 0.24538857 13553088
0.74066669 0.048212055 0.24155883 13553602
0.73866671 0.050963666 0.24839938 13684418
0.74402773 0.055162851 0.24468106 13684929
0.74733335 0.061475303 0.24839588 13421244
0.75526315 0.063248336 0.24488775 12236455
0.76215386 0.067636676 0.24439774 12105125
0.76722223 0.071094222 0.24542628 11907747
0.77177781 0.076537788 0.24447748 12434607
0.77560008 0.085521773 0.24501128 13027518
0.78000003 0.089726366 0.241909 13422534
0.78600007 0.094983093 0.2449263 12106677
0.77550006 -0.16205251 0.25503951 13486012
0.78620005 -0.16815373 0.25523871 9210499
0.79000002 -0.16988929 0.25148329 9408393
0.76370007 -0.15332903 0.25366375 12565166
0.77128583 -0.15786888 0.2558468 12893875
0.75687504 -0.14405487 0.25356334 11710114
0.76114285 -0.14764825 0.25680676 11381149
0.74837506 -0.13225013 0.25246811 11183770
0.75200003 -0.13625227 0.2555846 10723219
0.74719995 -0.12482898 0.25506136 10723220
0.74476016 -0.11483178 0.25486794 10920599
0.73825002 -0.10345714 0.25272462 10854806
0.74247062 -0.10629909 0.25680381 10723220
0.7354762 -0.094789587 0.25364375 10723220
0.74033338 -0.094506651 0.25935838 10460048
0.73461556 -0.085155092 0.25502536 10525841
0.73334783 -0.074629433 0.25502548 10328462
0.73212504 -0.064892106 0.2549161 9867911
0.72791672 -0.053870991 0.25259516 9538948
0.73124993 -0.056791063 0.25642797 9604739
0.71714288 -0.043180548 0.25407293 11907496
0.72261548 -0.047395565 0.25553793 9867655
0.70532262 -0.034344662 0.25493875 14079176
0.71140003 -0.039739169 0.25477549 14078921
0.70207888 -0.025422378 0.25524035 13881284
0.70210505 -0.015212944 0.25525016 13157818
0.70412827 -0.005728309 0.25508392 13422018
0.70649993 0.0045406334 0.2551941 13422019
0.70866674 0.010183559 0.25462317 13422018
0.71450007 0.015293841 0.25504205 13422018
0.71893328 0.02177586 0.25545204 13289919
0.72163635 0.026805796 0.2548281 13224382
0.72695005 0.032572538 0.25540376 13289918
0.73133332 0.037808545 0.25430208 13355711
0.73366666 0.044895764 0.25501791 13487040
0.7369231 0.052858934 0.2554186 13421246
0.7417143 0.057913404 0.25347349 13487039
0.74600005 0.062240377 0.25493613 13355196
0.75507694 0.066876985 0.25544983 12631214
0.76066667 0.069695033 0.25282916 12630700
0.76507699 0.072857015 0.25470355 12301735
0.77162504 0.07781402 0.25500357 12170149
0.77566665 0.084767759 0.25471258 12895416
0.78050005 0.089783877 0.25668254 13291204
0.78652382 0.095305115 0.2547591 12041141
0.79287511 0.10436112 0.25510404 9935246
0.78900003 -0.17152131 0.26224735 9211010
0.78566664 -0.1655297 0.26543191 9736584
0.79000002 -0.16896459 0.26905262 9276291
0.76700002 -0.15057865 0.26032168 11578529
0.77483344 -0.15453655 0.26464459 11248795
0.78200006 -0.15810019 0.26815873 9011836
0.75900006 -0.14101234 0.26204854 11776421
0.76412511 -0.14375407 0.26471472 11776165
0.77266669 -0.14747107 0.26887783 10262927
0.75631249 -0.13443027 0.26366761 10789270
0.7610001 -0.1369309 0.26778665 11973798
0.74875003 -0.12201831 0.26157728 10065290
0.75241178 -0.12523347 0.26542369 10591378
0.74777263 -0.11457812 0.26430166 10262671
0.75100005 -0.11799044 0.26851714 10393485
0.74614292 -0.10512575 0.26528636 10526099
0.74429631 -0.095011376 0.26520446 10591892
0.74330008 -0.085023671 0.26533273 10328463
0.73860008 -0.07411243 0.26105711 9999497
0.7430526 -0.075657949 0.26592988 9802119
0.73729998 -0.064833052 0.26249737 9473153
0.74235719 -0.065179944 0.26784846 9407360
0.73480004 -0.054638725 0.26384705 9801861
0.74100006 -0.05787224 0.26884416 9736325
0.71842861 -0.042054098 0.2642608 11775394
0.72490913 -0.045590613 0.26500711 10196106
0.73166674 -0.048865464 0.26688668 10130313
0.70477414 -0.034373615 0.26495796 13684163
0.71450001 -0.039912339 0.26508883 12828084
0.70091683 -0.025207208 0.26496574 13816005
0.69900006 -0.014500925 0.26996976 13224382
0.70061123 -0.015353899 0.26484939 13355968
0.7022565 -0.0053327428 0.26502687 13356225
0.70569438 0.0043609389 0.26512006 13553605
0.70794451 0.011647241 0.26559615 13487812
0.71287507 0.016645156 0.26461482 13356226
0.71812123 0.023873346 0.26553354 13290431
0.72066671 0.028352186 0.26230934 13289918
0.71900004 0.030530352 0.26927826 13356223
0.72433335 0.034580998 0.26523915 13355711
0.73066664 0.039008226 0.26195854 13355455
0.72900003 0.041194588 0.26961023 13618625
0.73193562 0.044734705 0.2648896 13289918
0.73540008 0.054203417 0.26518625 13158074
0.74033338 0.059166353 0.26166895 13092281
0.74484205 0.063017875 0.26500216 13289658
0.75660002 0.068616152 0.26510975 12170663
0.76300007 0.072509699 0.26480725 11907491
0.77211773 0.078083448 0.26503515 11578783
0.77563632 0.084688567 0.26506707 11908521
0.78040004 0.089772373 0.26486829 13356227
0.78669572 0.095146365 0.26492223 12238264
0.79286665 0.13482261 0.26538986 10001039
0.78850007 -0.16218373 0.27223358 9144449
0.79127783 -0.16491644 0.27638456 9210498
0.77800006 -0.15091689 0.27134037 9011836
0.78625005 -0.15527964 0.27498671 8617848
0.79033333 -0.1582434 0.27872571 9144705
0.76900005 -0.14016984 0.27180195 11710628
0.7753334 -0.14455512 0.27424204 8749945
0.78200006 -0.14620389 0.27883691 8618359
0.76437497 -0.13351144 0.27307862 11512480
0.77280003 -0.13760522 0.27712756 9604484
0.75777775 -0.12393436 0.27296022 11249308
0.7610001 -0.12535058 0.27610102 11183772
0.75421053 -0.11480245 0.27438584 10328464
0.76000005 -0.11895847 0.27929598 10789015
0.74875003 -0.10405216 0.27165595 10394257
0.75276482 -0.1053877 0.2765373 10262927
0.74775004 -0.095160715 0.27216932 10460050
0.75145453 -0.095231175 0.2769568 10000012
0.74763155 -0.084045075 0.27327868 10065292
0.75075001 -0.085436612 0.27809396 9802120
0.74712491 -0.074821077 0.27442273 9473154
0.75000006 -0.07876642 0.27913254 9473155
0.74627995 -0.06544929 0.27495545 9604739
0.73900002 -0.051660988 0.27157858 10064520
0.74449992 -0.055375468 0.27542502 9933191
0.71739995 -0.04007433 0.27539772 11972519
0.7240001 -0.042989101 0.27538806 11116952
0.73354548 -0.047380611 0.27472451 10130313
0.70513046 -0.033723786 0.27499092 13289405
0.71150005 -0.038079116 0.27563152 12564913
0.6982857 -0.021959638 0.27786669 13355712
0.7009688 -0.025672868 0.27447453 13552834
0.6976946 -0.015291182 0.27517995 13093053
0.70000005 -0.019437809 0.270356 13355455
0.69826669 -0.0078375321 0.27666008 13093053
0.70104003 -0.004365155 0.27403995 13290432
0.70502692 0.0042470139 0.27492824 13553604
0.70752007 0.012819361 0.2750484 13553861
0.71072727 0.017776575 0.27495134 13553604
0.71582931 0.024435941 0.27523658 13290432
0.71881253 0.032205436 0.2760435 13290432
0.72200006 0.036859099 0.27420032 13356224
0.72749996 0.042206425 0.27622899 13421760
0.73134798 0.047135118 0.27464685 13355967
0.73428124 0.055088043 0.2748912 13289916
0.73866671 0.061050717 0.27693096 13158074
0.74433339 0.064331934 0.27469918 13026488
0.75362504 0.068610616 0.27518716 12500144
0.75866669 0.071287841 0.27702913 12039593
0.76461542 0.074191973 0.27465317 11842212
0.77290916 0.078713842 0.27466506 11842213
0.77633339 0.084721074 0.27508649 12303795
0.7804001 0.089772381 0.27400571 13291204
0.78648001 0.095780574 0.27503213 11777969
0.78900003 0.10245974 0.27825522 9935246
0.79192591 0.10586382 0.27475008 9869453
0.7922287 0.13484417 0.27523929 9935246
0.78866673 -0.15175541 0.28121507 8618361
0.79266667 -0.15582593 0.28542727 8816253
0.78681827 -0.14509469 0.28446433 8618359
0.79075003 -0.14783724 0.28781995 8618616
0.77611119 -0.13420184 0.28319773 9670020
0.78416675 -0.13712473 0.28787157 8814454
0.76660001 -0.12358217 0.28243917 10196878
0.77290916 -0.12575322 0.28667256 10789015
0.75866669 -0.11223783 0.2811743 10526356
0.76278585 -0.11480594 0.28491411 10460306
0.7575714 -0.10439126 0.28334555 10065804
0.76042873 -0.1055483 0.28784603 10065290
0.75708008 -0.094468325 0.28489158 9868425
0.76000005 -0.095829211 0.28997099 9868424
0.75604355 -0.085172631 0.28523532 9604740
0.75404358 -0.074971646 0.28517139 9538947
0.74879998 -0.064617686 0.28043884 9604741
0.75262499 -0.0652778 0.28517872 9735812
0.74715394 -0.053311829 0.28305009 9932934
0.75207698 -0.056639351 0.28667969 9932678
0.71860009 -0.040141366 0.28426737 11380380
0.7240001 -0.04213791 0.2847105 11248281
0.73288894 -0.045328431 0.28438342 10392972
0.74225003 -0.048412949 0.28580889 10261386
0.69833332 -0.031380665 0.28878531 13355452
0.70456243 -0.034622584 0.28520426 12762803
0.71233338 -0.038680881 0.28429225 11644068
0.69706059 -0.024451237 0.28558648 13355455
0.70075011 -0.027866986 0.28192347 13421247
0.69611889 -0.015255667 0.28515142 13289918
0.69702786 -0.0060728588 0.28565922 13224126
0.70033336 -0.0019588794 0.28223389 13422018
0.69866675 0.00077176857 0.28892264 13356225
0.70348722 0.0044560507 0.28474537 13422019
0.70707697 0.014365424 0.28505561 13290690
0.71000004 0.018513333 0.28086671 13356225
0.70850009 0.020685703 0.28663036 13356483
0.71299994 0.025274064 0.28479746 13290689
0.71793932 0.034104884 0.28538078 13356226
0.72039998 0.038685042 0.28228158 13487811
0.71900004 0.040629502 0.28947654 13224898
0.72446436 0.043671001 0.28536934 13422018
0.73100001 0.048723757 0.28375438 13421761
0.73299998 0.055152096 0.284987 13421761
0.7371667 0.061502639 0.28470767 13224638
0.74457902 0.066390842 0.28527474 13092538
0.75000006 0.068717718 0.28088829 13750211
0.75800002 0.07211303 0.28432924 12039593
0.76436365 0.07540556 0.28480202 12039594
0.77236366 0.07898692 0.28433111 12039850
0.77605557 0.084027044 0.28489062 11908780
0.78120005 0.089134023 0.28507406 13160132
0.78693116 0.096119776 0.28512678 11580845
0.78900003 0.10263564 0.28309277 9869453
0.79061115 0.10688607 0.28550836 9803660
0.79273075 0.11538912 0.28518742 9869453
0.79122597 0.13439363 0.28503576 9803660
0.78733337 -0.13417558 0.29499424 10064777
0.79049999 -0.13761234 0.29790685 8748405
0.776375 -0.12356789 0.29303902 11512993
0.78287506 -0.12666442 0.29732484 12302765
0.76700002 -0.11167485 0.2914463 9670533
0.77329409 -0.116143 0.29547232 10986650
0.76499999 -0.10400695 0.29380217 9933961
0.77099997 -0.10684326 0.29837981 10591635
0.76315796 -0.09472321 0.29484808 9736838
0.75900006 -0.084153697 0.29136628 9407616
0.76181251 -0.085582122 0.29579261 9473410
0.75833333 -0.074671626 0.29253152 9538946
0.76084614 -0.075521499 0.29755619 9604996
0.75788027 -0.064406872 0.29406166 9801348
0.76025003 -0.066495582 0.29896519 9473155
0.74800003 -0.050539069 0.29152244 10064007
0.75557148 -0.054931935 0.29510236 9998215
0.70579994 -0.041409425 0.29522714 11051672
0.71725005 -0.042586058 0.29465264 11051416
0.72400004 -0.043832809 0.29487237 10327694
0.73500001 -0.045486011 0.2927168 10327180
0.74475002 -0.048576012 0.29461452 10129802
0.69749999 -0.031615425 0.29469976 13025976
0.70239288 -0.036773361 0.29470643 11775395
0.69641018 -0.025108078 0.29517892 13421248
0.69505537 -0.015233447 0.2952933 13223869
0.69526309 -0.0052983607 0.29508001 13158334
0.69748288 0.0030998106 0.2956199 13355969
0.70107144 0.007144799 0.29292318 13422276
0.70381814 0.014088193 0.29518995 13422277
0.7072069 0.022781152 0.29500186 13224642
0.71116668 0.027701231 0.2940889 13224898
0.71690619 0.034119263 0.29460961 13093312
0.72000003 0.039000478 0.29662129 12961727
0.71900004 0.040629502 0.29115975 13093312
0.7240001 0.044069916 0.29329637 13027519
0.73200005 0.04850344 0.2952852 13027261
0.73515385 0.054255504 0.29359782 13092540
0.7432 0.056961726 0.29852396 12961210
0.73750007 0.061530255 0.29088151 13289919
0.74500006 0.06535688 0.29529616 12763831
0.74900001 0.070379511 0.29454115 13289662
0.75572735 0.072945543 0.29573435 12039852
0.76391673 0.077000655 0.29503816 12039595
0.77180004 0.079749092 0.29446945 12039597
0.77565229 0.084573381 0.29530653 12106160
0.78150004 0.089594595 0.29482064 13291204
0.78672224 0.094392367 0.29494578 12567738
0.79000002 0.09827432 0.29771841 11645866
0.79279178 0.10419468 0.2949827 9737867
0.78850001 -0.13188042 0.30469003 12170410
0.79113334 -0.13704443 0.30542949 8683640
0.77900004 -0.12010878 0.30542672 12697267
0.78382605 -0.12500796 0.30544072 12763317
0.77715385 -0.11450849 0.30540669 12104618
0.77495229 -0.10514595 0.30544201 11051930
0.76900005 -0.093363538 0.30150595 9671046
0.77278948 -0.095252372 0.30570832 10197135
0.76700002 -0.083786383 0.30251899 9539461
0.77200007 -0.085513547 0.30769536 9342338
0.76573342 -0.074683741 0.30447161 9276289
0.77050006 -0.078214325 0.30840719 9078908
0.76243997 -0.064725935 0.30447131 9604485
0.75716668 -0.052934092 0.30395442 9998473
0.76100016 -0.057059672 0.30534971 9998472
0.704 -0.041592784 0.30403632 10854293
0.72400004 -0.0455277 0.30165899 11248794
0.73000002 -0.045905001 0.30074102 10327694
0.74600005 -0.04865754 0.30209342 9998473
0.75000006 -0.048918441 0.30371323 10129802
0.69675004 -0.032479741 0.30490032 12038826
0.70117646 -0.037528124 0.30392861 11183003
0.69478375 -0.025096789 0.30478144 13421248
0.69412136 -0.015532766 0.30432636 13158334
0.69419235 -0.0057119601 0.30336523 13092542
0.69690913 0.0046053617 0.30282906 12500148
0.69900006 0.010453742 0.30433357 11842731
0.70125002 0.014287009 0.30264369 12369076
0.70520002 0.021360796 0.30108911 12106162
0.71700001 0.032123938 0.30042088 12434871
0.72100002 0.033991024 0.30209687 11843245
0.73300004 0.037988689 0.30712485 10856350
0.74200004 0.04887734 0.30394769 13158851
0.74514294 0.05482455 0.30199379 12895419
0.75533336 0.056829412 0.30823115 12434612
0.74849999 0.06244798 0.30135351 12565939
0.75590914 0.064915054 0.30594969 11316642
0.76100004 0.067053303 0.30994919 11579814
0.75800002 0.072645731 0.30269405 11250850
0.76423079 0.076634608 0.305343 11842731
0.77422732 0.084619053 0.30487105 12106160
0.78059995 0.089795381 0.30513889 13488070
0.78650004 0.094831035 0.30518439 13093313
0.79000002 0.09827432 0.30141723 12698554
0.78788894 -0.13265051 0.31556997 10723481
0.79100001 -0.13744734 0.31442365 8749690
0.77900004 -0.12010878 0.31454498 13289150
0.78212005 -0.12498941 0.31510428 13158078
0.77900004 -0.11737329 0.31180951 13091770
0.78080004 -0.11490139 0.3160038 12565684
0.77866668 -0.10334835 0.31228396 11117980
0.78158832 -0.10565518 0.31650659 11183773
0.77699989 -0.094456226 0.31295156 10789271
0.78080004 -0.096259765 0.31764835 10986392
0.77584219 -0.084924035 0.31494609 10394512
0.78100002 -0.089335434 0.31992337 11249564
0.77319247 -0.075147882 0.31512755 9604996
0.76770002 -0.064631701 0.31196004 9736071
0.77130002 -0.065476343 0.31667331 9670534
0.75850004 -0.052136924 0.31070662 10130315
0.76542854 -0.055176497 0.31482616 9867400
0.77099997 -0.058711141 0.318836 9736327
0.69466668 -0.031215638 0.31111959 11578789
0.69409096 -0.025330573 0.31105906 13092285
0.69400001 -0.019271197 0.31027994 12500918
0.74600005 0.043027259 0.31169981 10658971
0.75566673 0.046241879 0.31544307 10856350
0.75800002 0.057029262 0.31050181 11184288
0.76271433 0.055854928 0.3144753 11053215
0.77100003 0.057106048 0.31943688 12171953
0.76471436 0.064951435 0.31325421 11315874
0.77200007 0.066217616 0.31804395 11381667
0.76766676 0.074230678 0.31236559 11645609
0.77278578 0.076490924 0.31630284 11579560
0.77561903 0.084470257 0.31521282 11974832
0.78059995 0.089795381 0.31427869 13027265
0.787 0.096270144 0.31494048 11908783
0.79180777 0.1057033 0.31522301 9672076
0.78696001 -0.13386808 0.32523656 10197136
0.79033333 -0.13850784 0.32189563 8749947
0.78148156 -0.1243564 0.32520267 13486787
0.78182125 -0.11485603 0.3251622 12960443
0.78272241 -0.10510729 0.32520929 11578531
0.78259999 -0.095014773 0.32516021 11381151
0.77866673 -0.082384937 0.32139829 10986392
0.78212506 -0.085727759 0.32648849 11315357
0.777143 -0.074863397 0.32406282 10854293
0.78050005 -0.077402264 0.32885438 10920853
0.7749601 -0.065061696 0.3247098 9736583
0.77440006 -0.055857509 0.32565328 9539461
0.77000004 0.039906263 0.32623291 10264983
0.7741819 0.045563091 0.32751006 11514537
0.77504998 0.054775231 0.32529256 11777195
0.77560008 0.065180667 0.32454124 11316387
0.77588004 0.074722372 0.32509419 10987166
0.77727282 0.083625734 0.32460058 11645610
0.78133339 0.089270689 0.32463115 12764349
0.7867859 0.095579281 0.3251192 12303542
0.79161537 0.10581977 0.32484144 9540489
0.78900003 -0.14012124 0.33243576 8553338
0.79240912 -0.14494689 0.33513531 8948096
0.78711116 -0.13446759 0.33491611 9408136
0.78260005 -0.12433033 0.33523789 12829372
0.78191984 -0.11506724 0.33494458 12894651
0.78282773 -0.10527759 0.33520806 11316387
0.78385001 -0.095165521 0.33485562 11447714
0.78454179 -0.085150011 0.33515143 11447199
0.77900004 -0.070870131 0.33004603 11447456
0.78257895 -0.075054966 0.33445823 11184283
0.77828568 -0.064559646 0.33208641 10986905
0.78286666 -0.065356568 0.33755195 10986904
0.77781826 -0.055533871 0.3321951 9802632
0.78350002 -0.055457465 0.33860284 10854550
0.77649999 0.037517019 0.33262241 11580843
0.78600001 0.038895443 0.33853188 10527901
0.77650005 0.044786271 0.33141133 11777968
0.78319991 0.045905888 0.33659485 11251623
0.77875006 0.054489546 0.33130729 11777967
0.78316665 0.055712793 0.33593932 11580588
0.77900004 0.064444914 0.33041078 11711402
0.78264707 0.065026313 0.33536658 11645867
0.77900004 0.075022109 0.33186969 11250594
0.78330004 0.075436927 0.33645365 11579815
0.77900004 0.084140368 0.33004603 9408650
0.78317654 0.084917009 0.33505532 10922400
0.7877273 0.094139129 0.33483398 10462109
0.79000002 0.09827432 0.3374806 9146502
0.78831583 -0.13349342 0.34458151 8881791
0.79016668 -0.13786216 0.34741783 9211266
0.78630006 -0.12491777 0.3451069 9934224
0.78547817 -0.11487084 0.34486702 11513769
0.78677273 -0.1048111 0.34497973 10395546
0.78800005 -0.095268562 0.34396723 10922145
0.79042858 -0.093321137 0.34916291 7829876
0.78806674 -0.084609434 0.34311324 11382437
0.79037499 -0.085088417 0.34851176 7829874
0.78780001 -0.075359695 0.34299767 10987420
0.79054546 -0.075116828 0.3489024 7895153
0.78783345 -0.065219186 0.34485641 9342080
0.7902 -0.064490512 0.34959021 8224114
0.78779995 -0.055071969 0.34484196 9078397
0.79000002 -0.055226229 0.3495017 8552567
0.78825003 0.03854502 0.34365451 10132886
0.79049999 0.035601914 0.3484281 8158580
0.7879445 0.044832371 0.34336823 10527644
0.79025 0.044656605 0.3489188 8224373
0.78805876 0.054949574 0.34321836 10857636
0.79049999 0.054848012 0.34879825 8027509
0.78793329 0.064814724 0.34305552 10396316
0.79049999 0.065026172 0.34879822 8290681
0.78799987 0.074966498 0.34308425 10132630
0.79014289 0.074509017 0.34797975 8356731
0.7883572 0.084888183 0.34310752 9804177
0.79033333 0.085982136 0.34749076 8685951
0.78900003 0.091377355 0.34228674 10396315
0.79110527 0.09548936 0.34521562 9014916
0.78900003 -0.13180944 0.35090637 9408647
0.79144448 -0.13530718 0.35508341 9474696
0.78877783 -0.12489976 0.35162842 8882047
0.79061538 -0.12545855 0.35632408 9079681
0.78850001 -0.11511288 0.35160753 8553082
0.7906363 -0.11500306 0.35617805 8882301
0.78900003 -0.10650468 0.35127577 8684410
0.79247057 -0.10439507 0.35616329 8816508
