# .PCD v0.7 - Point Cloud Data file format
VERSION 0.7
FIELDS x y z rgb
SIZE 4 4 4 4
TYPE F F F U
COUNT 1 1 1 1
WIDTH 374
HEIGHT 1
VIEWPOINT 0 0 0 1 0 0 0
POINTS 374
DATA ascii
0.48025003 -0.021768659 -0.050614007 14932949
0.47900003 -0.01554371 -0.050482273 15920097
0.48008335 -0.014267113 -0.051064838 16314599
0.48133332 -0.006302488 -0.051253978 14341581
0.49774998 -0.052130964 -0.041824277 16248808
0.493489 -0.044621583 -0.043100402 16511980
0.48684326 -0.033882864 -0.044514954 16183015
0.4902727 -0.03875998 -0.044054557 16577516
0.47885722 -0.021624718 -0.041339252 15985379
0.48131424 -0.02496154 -0.0454298 16117222
0.47787693 -0.015284722 -0.044122059 15985636
0.48000002 -0.013703344 -0.048839703 16051171
0.47809094 -0.0088997697 -0.041739594 15460318
0.48186964 -0.0049870634 -0.045569759 14473423
0.48527277 0.00088120211 -0.044431448 13289921
0.50548279 -0.062720694 -0.033441253 15853793
0.4972941 -0.05332642 -0.035188604 16183014
0.50147623 -0.057643205 -0.035073813 16051172
0.48646432 -0.043119911 -0.033050973 16512236
0.4920857 -0.046615541 -0.03665768 16511723
0.47822225 -0.031814557 -0.031369384 16249064
0.48382095 -0.035315614 -0.035514709 16446186
0.47501862 -0.024460027 -0.034254499 15919843
0.48061541 -0.027973274 -0.037757654 16051429
0.4727222 -0.015340613 -0.034891624 15920099
0.47536939 -0.0057615908 -0.034422796 14933973
0.48070002 -0.0020942446 -0.038283538 14078921
0.47866669 0.00015504919 -0.031398278 13749700
0.48309091 0.0034021975 -0.034594331 13289660
0.50800002 -0.07000044 -0.022321135 15196377
0.51236373 -0.07322453 -0.022482648 15196377
0.52000004 -0.077740639 -0.020718079 15196376
0.49816671 -0.060870927 -0.022376092 15853792
0.50454533 -0.065364249 -0.025302419 15591133
0.48628572 -0.052047521 -0.023553198 16117220
0.49412498 -0.056275744 -0.025691057 15985634
0.50150001 -0.059712604 -0.028786732 15985891
0.47844446 -0.041412134 -0.021427089 16248806
0.48260301 -0.045340873 -0.025232455 16314599
0.46900001 -0.030590329 -0.020881986 16051683
0.47483343 -0.034814991 -0.024537407 16248807
0.48050001 -0.038464911 -0.028518515 16446186
0.46734697 -0.02412273 -0.023559799 15854305
0.47120005 -0.026435405 -0.027784193 15920099
0.46580774 -0.015159705 -0.024947464 15920097
0.47000003 -0.014151379 -0.02972874 15722719
0.46672216 -0.0072503379 -0.023487117 15197144
0.47200006 -0.0039189211 -0.026568402 14605008
0.47683334 0.0017374713 -0.024025448 13420991
0.48181245 0.0050953967 -0.026390322 12894904
0.52523082 -0.081741199 -0.013923422 15064790
0.53149998 -0.086303875 -0.011222256 15064792
0.50800002 -0.070892364 -0.014592263 15196375
0.51420838 -0.07417471 -0.015469353 15130582
0.52169222 -0.07874655 -0.015054151 15130583
0.49621877 -0.062972873 -0.014148327 15525084
0.5031482 -0.067416579 -0.015816351 15327961
0.47900003 -0.050305486 -0.010113756 16051170
0.48425007 -0.053831834 -0.014259799 15985634
0.49152946 -0.058526661 -0.01633675 15788255
0.46900001 -0.040471766 -0.01100055 15985890
0.47523081 -0.044374879 -0.014427228 16051427
0.48061541 -0.048398472 -0.017246012 16117220
0.46661711 -0.033438329 -0.013948334 15920354
0.47193554 -0.036987156 -0.017166471 16117477
0.4585 -0.022637252 -0.012170159 15723489
0.46279654 -0.025488716 -0.016278671 15723232
0.45737097 -0.014514362 -0.013963375 15723745
0.46084213 -0.016036522 -0.018588899 15789280
0.45843476 -0.0079694418 -0.01308755 15263195
0.46350005 -0.0042788181 -0.015895624 14670801
0.47000003 -0.00094803656 -0.019276094 14078664
0.46622732 0.0018888001 -0.013123835 13092027
0.47164714 0.0028826774 -0.017365621 13158075
0.53840005 -0.090827063 -0.0040555424 14604498
0.54417652 -0.094998233 -0.00167127 14604754
0.52533334 -0.081409633 -0.0073932447 14867411
0.53357899 -0.086876564 -0.0064581954 14801619
0.505 -0.071951471 -0.0071160858 15064790
0.51625001 -0.075670637 -0.0081805866 14998997
0.52219999 -0.078559287 -0.0088253375 15064790
0.48728576 -0.061607249 -0.0027949933 15262169
0.49230221 -0.065642796 -0.0051998515 15196376
0.5 -0.068898067 -0.0093866475 15262169
0.47694451 -0.052384976 -0.0034379906 15854306
0.48261914 -0.056206353 -0.0052713007 15656927
0.46622455 -0.042953901 -0.0044141854 15920099
0.47169238 -0.047715716 -0.0049063717 15920098
0.45789286 -0.033084434 -0.0021671373 15657696
0.46237925 -0.035984196 -0.0061300048 15854562
0.45498928 -0.024902212 -0.0048011257 15657695
0.46000001 -0.02892644 -0.0097125834 15723488
0.44900006 -0.015621318 -2.027301e-05 15723743
0.4527559 -0.014789938 -0.0050579626 15657952
0.45574698 -0.0054730168 -0.0045796386 14802900
0.46066666 -0.0016475128 -0.0090083582 14013129
0.45884621 0.0010578445 -0.0018389683 13289662
0.46197829 0.0033966859 -0.0060682674 12631733
0.53900003 -0.090675637 0.0031301852 14604240
0.54518747 -0.095151722 0.0027658776 14670032
0.52600002 -0.084796868 0.0061354688 14604240
0.53600007 -0.08820349 0.0035558844 14670033
0.49814293 -0.071307912 0.0063079554 14998997
0.50155562 -0.073681302 0.0075424835 14867411
0.51100004 -0.077591397 0.0047619683 14867411
0.48482767 -0.062663451 0.0048215142 15130583
0.49305889 -0.068013079 0.0046687247 14998997
0.46790913 -0.051033303 0.0071466449 15722720
0.47417393 -0.054803289 0.0054792194 15591134
0.4810833 -0.058784366 0.0031675252 15393755
0.45837507 -0.041970383 0.0079586636 15788512
0.46349126 -0.045676854 0.004865475 15854305
0.47000003 -0.04936029 0.0010790572 16051685
0.44887507 -0.030985458 0.0082546463 15591389
0.45475006 -0.035333913 0.0050141197 15722975
0.46000001 -0.039695121 0.0010560985 15854306
0.44682539 -0.024465941 0.0061157821 15591646
0.45133337 -0.026976449 0.0020332148 15526109
0.44636685 -0.015004711 0.0051929797 15657951
0.44792852 -0.0066682734 0.0066420343 14868694
0.45207694 -0.0034310592 0.0037207149 14342350
0.45521632 0.0019358646 0.0052393349 13092027
0.50487792 -0.082977593 0.015459268 14538960
0.49740002 -0.072128676 0.016089551 14801618
0.50216675 -0.076481573 0.014832776 14735825
0.47636366 -0.060874972 0.015172974 15130583
0.48404551 -0.064233236 0.013730135 14998997
0.49269235 -0.068690106 0.014081488 14933204
0.46599996 -0.053310074 0.01609949 15262425
0.47257152 -0.057693146 0.01439348 15196376
0.44900003 -0.040848125 0.019950952 15525341
0.4559032 -0.044085678 0.015107149 15525853
0.46133333 -0.048883338 0.013583917 15525340
0.44612852 -0.034313101 0.015816977 15525853
0.4517222 -0.037923966 0.01266571 15657182
0.43855885 -0.023775438 0.017915769 15525853
0.44209528 -0.025668563 0.013494405 15525852
0.43762952 -0.01503545 0.01714563 15526367
0.44154337 -0.014462334 0.012222976 15526366
0.43883333 -0.0084185665 0.018814066 14868694
0.4439126 -0.0049518719 0.014778875 14473936
0.44774079 0.0013888058 0.01631853 13093054
0.45108333 0.0032274795 0.012034315 12828852
0.5062381 -0.081724949 0.023454988 14473424
0.51312512 -0.086403906 0.026031846 14210253
0.48640004 -0.070440054 0.027300995 14604752
0.49546668 -0.074080832 0.023946533 14604753
0.50189996 -0.078325436 0.025126895 14473424
0.46875 -0.060477015 0.027138155 14933717
0.47380957 -0.062707096 0.025330272 14933460
0.48365214 -0.06733793 0.024240168 14736082
0.49050003 -0.069885544 0.02236852 14670033
0.45766675 -0.051771145 0.026581496 14999254
0.46404007 -0.055956069 0.024418293 15065047
0.47000003 -0.059262797 0.020884071 15064790
0.44768971 -0.042176638 0.026212752 15065047
0.45377368 -0.046579737 0.0243458 15065047
0.43779314 -0.032267727 0.026870295 15196631
0.44275451 -0.036378272 0.024233695 15327961
0.43442851 -0.02487796 0.024801983 15460059
0.43214595 -0.014927909 0.024711436 15394781
0.43523178 -0.0064790123 0.025502264 14605522
0.44145003 -0.002128379 0.023176985 13816007
0.44531715 0.0023615332 0.025198029 13092796
0.50750005 -0.080624148 0.03146261 14144460
0.51246673 -0.084380344 0.032044906 13815495
0.48285717 -0.071542956 0.033723306 14210252
0.49900001 -0.076937452 0.033854339 14078665
0.50500005 -0.079044767 0.032687459 14078665
0.46728569 -0.062986217 0.036804002 14605009
0.47375762 -0.066026486 0.033916414 14473424
0.48100004 -0.069208086 0.031280506 14341838
0.44900003 -0.050308179 0.039922178 14999767
0.45505673 -0.053606745 0.035288233 14868181
0.46213341 -0.058417585 0.032863099 14868181
0.4386667 -0.041277539 0.037633132 14736595
0.44436538 -0.044278629 0.034887042 14802388
0.45191669 -0.048521429 0.032245066 14802388
0.43441102 -0.034730129 0.035420753 14802388
0.44000003 -0.038655948 0.031224921 14868181
0.42656717 -0.02414416 0.03647431 15262939
0.43085304 -0.026740486 0.032462377 15197146
0.4261792 -0.015466137 0.03506615 15328988
0.43000001 -0.011688708 0.030431377 15328988
0.42715791 -0.0075167655 0.037396766 14605522
0.43159649 -0.0048869806 0.033728827 14144971
0.43666664 0.0015761766 0.038414802 13027260
0.44321573 0.0042165248 0.034175292 12764088
0.45900002 -0.060024846 0.048333 14473167
0.46468335 -0.063877456 0.044539787 14210252
0.44705003 -0.052185375 0.046858825 14999512
0.45468757 -0.056077894 0.044262215 14867925
0.43693179 -0.042754266 0.046166375 14933975
0.44241861 -0.047069967 0.04424578 14933976
0.42587501 -0.033068974 0.045816947 14670545
0.43188894 -0.037694268 0.044292077 14802133
0.4176552 -0.022488875 0.047854234 15197144
0.42196104 -0.025782494 0.044054884 15000022
0.4174706 -0.015787322 0.047367219 15263194
0.42098188 -0.014699179 0.042714268 15131866
0.41850001 -0.009171742 0.048966318 14802645
0.42416859 -0.0055068783 0.045035973 14145228
0.43037501 -0.0012455982 0.041917853 13158076
0.428 0.0001386373 0.049074944 12698552
0.43367499 0.002329444 0.044338442 12829882
0.445375 0.0079705818 0.041948784 11645609
0.45880002 -0.061287653 0.054648139 13749702
0.46291673 -0.063885286 0.05190073 13618116
0.437875 -0.050983362 0.056996014 14670804
0.44406897 -0.053131431 0.053959634 14670804
0.45347828 -0.058197904 0.05443842 14078667
0.42725006 -0.042120963 0.05793811 15065303
0.4340423 -0.04530777 0.05429697 14999768
0.44033337 -0.048993777 0.050834056 14999769
0.41764998 -0.031887032 0.057909876 14868180
0.42346334 -0.035452276 0.054497801 14933717
0.43000001 -0.039119583 0.050312471 14933976
0.40900001 -0.022049053 0.05902591 15196888
0.41406998 -0.024736784 0.05509562 14999766
0.42050004 -0.028780922 0.051292323 14736594
0.40884206 -0.016792757 0.058667038 15328731
0.41288179 -0.014528558 0.054305978 15197145
0.41613793 -0.0071987668 0.055500552 14408143
0.42153338 -0.0028207351 0.054208469 13487299
0.42605659 0.0029482003 0.056059569 12895162
0.43000001 0.004669155 0.052829064 12565939
0.45200002 0.0096696727 0.05077032 11842988
0.46450001 0.015918387 0.054349169 10658713
0.43439293 -0.051833652 0.064040005 13881544
0.44000003 -0.054450016 0.060752962 13354944
0.41839999 -0.041002713 0.068151556 14802388
0.42440301 -0.043928944 0.065030292 14670546
0.43077269 -0.048495855 0.063967161 14341838
0.4086667 -0.031120216 0.069182433 14736595
0.41453344 -0.034821395 0.065379508 14999254
0.42100003 -0.038160849 0.061507128 14933974
0.40689006 -0.024505828 0.065611474 14999767
0.41112506 -0.028500989 0.062118195 14933717
0.40607649 -0.015112149 0.065126598 15065817
0.41000003 -0.010425185 0.060449984 15000282
0.40794998 -0.0076735122 0.066471055 14408144
0.41349211 -0.0038967009 0.064339302 13618885
0.42033336 -0.00084785395 0.060988728 12961469
0.41775003 0.00099183701 0.067335598 13223868
0.42305553 0.0050699189 0.065051287 12698038
0.42600003 0.010110727 0.069789924 11184804
0.43000001 -0.050192598 0.070948541 13223358
0.41524446 -0.042426243 0.075578809 13946312
0.42350003 -0.046028342 0.07174062 14012360
0.39900002 -0.030694941 0.079377607 15196376
0.40581825 -0.034001727 0.075636558 14933461
0.41177776 -0.037608162 0.07213375 14933461
0.39763263 -0.024094481 0.078171864 15065304
0.40194997 -0.025550827 0.073545448 15065047
0.39760384 -0.015517732 0.078042775 15000023
0.40125632 -0.014440463 0.073378101 15000280
0.39900002 -0.0092114182 0.078910574 14408144
0.40445012 -0.006058292 0.075362638 13881799
0.41173688 -0.0017925493 0.072728671 12828854
0.40900001 0.00013248283 0.079452068 13750213
0.41538462 0.0024596315 0.074139215 13026490
0.4234167 0.007493997 0.072007768 12171697
0.42600003 0.010110727 0.070787199 11579562
0.43000001 0.010708981 0.073968455 11579562
0.41262501 -0.041525636 0.081241623 12827833
0.39556924 -0.032500356 0.085504308 13881287
0.40310001 -0.036115989 0.081365071 14077897
0.38900003 -0.023095725 0.08922673 8355446
0.39354408 -0.024926579 0.084823348 14539473
0.38900003 -0.018087117 0.08922673 8551286
0.39340809 -0.014691717 0.084852457 14342350
0.39573219 -0.0078250896 0.08572606 14144972
0.40285447 -0.002914577 0.083978616 13092542
0.40530303 0.0019680618 0.085991427 13092798
0.38853848 -0.031675078 0.096570507 9999503
0.39085415 -0.034302164 0.094893344 13222588
0.38586119 -0.025000632 0.094810933 2830122
0.39000002 -0.029089577 0.090369098 4275005
0.38611278 -0.015508214 0.094934314 3487282
0.39016667 -0.011442929 0.091016382 9472900
0.38832146 -0.0084441816 0.097575068 12631475
0.39323753 -0.0047283126 0.094474114 13684420
0.40040001 -0.00099492795 0.091278344 12435123
0.39783335 0.00090588868 0.097846739 12960697
0.40288562 0.0051957527 0.094718426 12368817
0.40468299 0.012470761 0.096016407 11053472
0.38900003 -0.04176417 0.10789517 12960185
0.39000002 -0.041023754 0.10602047 12894392
0.38746664 -0.034089975 0.10591178 10855067
0.39013043 -0.037041362 0.10262921 13815497
0.37856257 -0.024192503 0.10937533 2304805
0.38209513 -0.025075784 0.10458673 2436391
0.37900001 -0.019396642 0.10911413 2370341
0.38234085 -0.014960851 0.10493521 3289902
0.38642627 -0.0057616644 0.10554888 12565682
0.39131582 -0.0017525901 0.10200131 13750216
0.38870001 0.00067206676 0.10853897 13552835
0.39440739 0.003439313 0.10549151 13158076
0.40252504 0.0070870132 0.10264494 12369073
0.40714824 0.012895762 0.1043847 11119008
0.38859999 -0.041994538 0.11797141 14143689
0.3905769 -0.042673595 0.11480463 14012359
0.37877777 -0.030715534 0.11693079 2565665
0.38500804 -0.035540123 0.11478862 11841190
0.37620538 -0.024560619 0.11517514 2304291
0.38050002 -0.029271742 0.11088152 2567720
0.37683859 -0.015588412 0.11546025 2699049
0.3805455 -0.012023851 0.11219015 5329484
0.37900001 -0.0096369386 0.11931744 8816510
0.38275197 -0.0052173324 0.11513904 12236974
0.3867873 0.0033304645 0.11596017 13289659
0.3909063 0.0072195404 0.11365458 12762805
0.39200002 0.010221446 0.11606871 10921885
0.38479275 -0.042961147 0.12542865 13946566
0.37736851 -0.031822547 0.12560922 4933955
0.38234529 -0.036600925 0.12465867 12301227
0.3726801 -0.025232945 0.12507476 1909535
0.37385121 -0.015067258 0.12505168 3027759
0.3784923 -0.0064325752 0.12657945 10197391
0.38063636 -0.0039264169 0.12316559 11973802
0.37888888 0.0014043065 0.12898989 13618627
0.38181835 0.0045091412 0.12473493 13290173
0.38499999 0.01003892 0.12315605 10724249
0.38500002 -0.050347641 0.13833094 13091000
0.38344631 -0.044276439 0.1352448 13551806
0.36738893 -0.031272747 0.13773203 2041121
0.37536365 -0.032880645 0.13408354 6250071
0.38123077 -0.037464481 0.13452095 11906467
0.36678985 -0.024865735 0.13546072 2107169
0.37034991 -0.025630066 0.13089921 1712156
0.3667554 -0.016358335 0.13600501 2304293
0.37220004 -0.013903454 0.13240732 3619640
0.3771891 -0.0051090196 0.13464475 10197392
0.37766141 0.0043304563 0.13537732 13158331
0.38008341 0.0086500794 0.13307868 12500658
0.37875003 0.010984423 0.13918802 12237742
0.38080958 0.011713062 0.136252 12105900
0.38290325 -0.044353798 0.14132111 10262156
0.36720002 -0.031084955 0.14268439 1383190
0.3707692 -0.031527221 0.14827417 1645848
0.3811667 -0.037726108 0.14104375 9670531
0.36603984 -0.023901407 0.14450778 1383189
0.37054548 -0.02803391 0.1479239 1317139
0.36537004 -0.014821393 0.1448344 2697505
0.36649999 -0.0092119966 0.14444329 6248269
0.37739033 -0.0049840887 0.14202772 7500139
0.3767941 0.0060951579 0.14145301 10132372
0.37819999 0.011367118 0.14181912 10856348
0.38200003 0.01443204 0.14038298 12040363
0.36501649 -0.032139953 0.15588015 2171420
0.37 -0.031062508 0.15069802 1513748
0.36554646 -0.025300544 0.15511233 791307
0.36438048 -0.015759379 0.15507363 2037264
0.36136678 -0.032284085 0.16402765 1778203
0.3614687 -0.024758276 0.16483797 1383701
0.3633846 -0.016581856 0.16484591 1447952
0.344946 -0.03317849 0.17768386 1646616
0.35481247 -0.032239448 0.17463942 1186320
0.3608261 -0.032497376 0.17167702 1646104
0.3453185 -0.024968153 0.17787862 1515030
0.3552278 -0.025105745 0.17442612 988944
0.36012903 -0.024439719 0.17101775 2107168
0.34605554 -0.016989129 0.17770894 1580054
0.35519293 -0.017536061 0.17533219 791052
0.36095244 -0.017626993 0.17207974 1580568
0.33830252 -0.033809181 0.18717988 1843484
0.34109241 -0.033058427 0.18244271 1712153
0.33840257 -0.025168212 0.18813731 1777434
0.34140331 -0.025028009 0.18337017 1646104
0.33864999 -0.017212899 0.18846822 1645592
0.34152943 -0.016657371 0.18362911 1579798
0.33766666 -0.033302415 0.19086057 1646618
0.33773074 -0.025188992 0.19092314 1580568
0.33800003 -0.017873792 0.19103904 1645593
