# .PCD v0.7 - Point Cloud Data file format
VERSION 0.7
FIELDS x y z rgb
SIZE 4 4 4 4
TYPE F F F U
COUNT 1 1 1 1
WIDTH 326
HEIGHT 1
VIEWPOINT 0 0 0 1 0 0 0
POINTS 326
DATA ascii
0.43900001 -0.06074943 0.018735828 15790309
0.44065377 -0.064650066 0.018111559 15986919
0.43723336 -0.055343769 0.018198451 15461345
0.44000003 -0.059600256 0.016460901 15658210
0.43463638 -0.044861987 0.018664889 15000539
0.42900002 -0.030994238 0.019062268 14343125
0.4318077 -0.035404708 0.018136984 14606295
0.4287073 -0.025662521 0.017554833 13487815
0.43000001 -0.02220807 0.015684133 12171183
0.42717785 -0.015065504 0.018155698 14013903
0.43000001 -0.017980194 0.016086789 13618629
0.42429096 -0.0053092614 0.017260192 13619145
0.41738296 0.0064510158 0.01735973 13816010
0.42073688 0.0014833555 0.016517092 13552839
0.41608343 0.015233406 0.017025072 13947596
0.41705364 0.024543632 0.01714907 14605013
0.42045459 0.028144984 0.014476388 14538964
0.41733336 0.034300976 0.018106878 13815750
0.42058825 0.032685477 0.014633442 14078923
0.43900001 -0.07128343 0.029783679 15262428
0.44171873 -0.072500467 0.026474232 14999512
0.43712685 -0.064055398 0.025994955 14803420
0.44031999 -0.06731353 0.02282162 15591906
0.42800003 -0.051863335 0.028935319 14606040
0.43355167 -0.055289492 0.024561139 14803418
0.42654899 -0.044662222 0.027759627 14342868
0.43217859 -0.045335833 0.022612484 14606041
0.42531332 -0.03467444 0.026047496 14211283
0.43054551 -0.036651552 0.021329155 14408918
0.41900003 -0.020462897 0.029407678 14473171
0.42395213 -0.025308885 0.024967395 14144976
0.41760603 -0.01396993 0.027945524 14144718
0.42231339 -0.015712352 0.023670632 13750474
0.41503575 -0.0048328689 0.026342044 13947339
0.42140007 -0.0064180698 0.021642974 13684938
0.40843338 0.0068878513 0.028218996 13947081
0.41326371 0.0043082847 0.023996089 13881544
0.40725875 0.015005695 0.027231297 14407377
0.41213468 0.014976361 0.022279046 14342096
0.40709645 0.025015058 0.026384773 14802390
0.41188571 0.02454154 0.021467736 14868183
0.40842316 0.032384321 0.027597832 13947080
0.41325003 0.035162255 0.023147583 13421248
0.41600001 0.040063154 0.021406213 11579814
0.43558693 -0.072946057 0.035123695 14342612
0.44000003 -0.075050972 0.030881573 14998999
0.42722222 -0.062686987 0.037834104 14671575
0.43199998 -0.065717623 0.033933289 14145492
0.42496803 -0.054754734 0.03547759 14803160
0.43012503 -0.058137096 0.030817639 14606298
0.41866672 -0.042335916 0.038640413 15394525
0.42235956 -0.045171224 0.034589909 14737366
0.41721275 -0.034155194 0.037486617 15065817
0.42091078 -0.035390608 0.032900479 14802903
0.41578731 -0.024365894 0.03576678 14539474
0.42037505 -0.027296614 0.031348903 14539731
0.40875003 -0.01063277 0.038495973 14473425
0.41379622 -0.015145265 0.034645975 14341582
0.40720564 -0.0043509877 0.03668306 14275789
0.41125 -0.0066087903 0.032498825 14210253
0.40497515 0.0048642159 0.03504467 14078667
0.39826095 0.017030545 0.038774006 14473682
0.40224519 0.014871313 0.034055468 14473426
0.39774287 0.024098989 0.038661275 14605524
0.40241665 0.025344398 0.033651415 14671060
0.40616995 0.033114742 0.034129385 13815489
0.42578438 -0.073387124 0.046801142 14407891
0.43039998 -0.072743177 0.041156109 14145489
0.41760007 -0.062188841 0.048371039 15262939
0.42381015 -0.065613881 0.044314064 14737110
0.43000001 -0.069318719 0.040246092 14540247
0.41611394 -0.054457664 0.046188287 15526109
0.42080012 -0.056246176 0.041682649 15526111
0.40900001 -0.040081523 0.049770303 15591904
0.41412494 -0.044811271 0.044854194 15526111
0.42000002 -0.049025331 0.040293366 15394525
0.40850011 -0.033668544 0.048393749 15262169
0.41234183 -0.035609979 0.043852232 15328732
0.40720019 -0.02481712 0.046876717 14736852
0.41162503 -0.02550374 0.042157248 14737109
0.40550014 -0.014927639 0.045432501 14473680
0.41091672 -0.017343378 0.041024361 14473939
0.39835301 -0.0032741174 0.048693638 14210251
0.40236661 -0.0054644123 0.044482768 14342094
0.39697722 0.0055010119 0.046431448 14144972
0.40042496 0.0035259959 0.041859217 14078667
0.39536706 0.014829663 0.045018923 14276303
0.39421853 0.024973756 0.045186076 14276814
0.39833337 0.031150639 0.045920432 13947334
0.40135089 0.035129704 0.046103492 13552834
0.41598558 -0.074176051 0.056397945 14999766
0.421381 -0.073849939 0.051275462 14605011
0.40862498 -0.062166955 0.058453154 15525852
0.41389999 -0.06536933 0.054626908 15394267
0.42060003 -0.068985596 0.050591011 14605011
0.40691191 -0.05439239 0.056906089 15591902
0.4118163 -0.055725347 0.052116793 15657695
0.40594271 -0.044903178 0.055529628 15526110
0.41064283 -0.047590144 0.050793428 15591903
0.40484041 -0.034962971 0.054975927 15262939
0.39864287 -0.022002691 0.058841553 14605010
0.4023453 -0.025354724 0.05466022 14802388
0.39667404 -0.013971275 0.056149509 14407631
0.40061104 -0.016910048 0.052238375 14539217
0.39462298 -0.005107535 0.055018708 14078665
0.38900003 0.0092325648 0.059175078 13552834
0.39250797 0.0045756791 0.054890715 13881544
0.38886663 0.015803289 0.057940383 13881800
0.39147368 0.014077364 0.053336676 14013386
0.38870737 0.022276452 0.057331331 14210251
0.3918049 0.026018433 0.053850275 14013384
0.39719611 0.032640439 0.055533092 13815747
0.40087175 0.036924649 0.053448293 13289406
0.40400001 0.040799025 0.050580524 12960184
0.40900001 -0.080295525 0.069877304 14735827
0.41266668 -0.080530398 0.065978564 14801875
0.40742558 -0.073435694 0.067432672 15328218
0.41287312 -0.076334201 0.06361156 14999510
0.39850003 -0.060975589 0.069482148 15788511
0.4046216 -0.064976327 0.064777039 15591389
0.41000003 -0.069453955 0.060929894 15328730
0.39792502 -0.05399574 0.068355851 15591390
0.40186048 -0.055541221 0.063714817 15657439
0.39686665 -0.044791579 0.066696152 15591390
0.40079546 -0.045568123 0.061734546 15591389
0.39623794 -0.035092119 0.06607879 15328474
0.40037036 -0.035730455 0.060973432 15459547
0.39526573 -0.024737926 0.065283783 14670802
0.40000001 -0.028899057 0.060848404 15065046
0.38900003 -0.011530393 0.068828031 13749700
0.39226335 -0.015289226 0.064729892 14210251
0.38892591 -0.0044269967 0.067492597 13486528
0.39084277 -0.0059123556 0.06295497 13881031
0.38858834 0.0051643155 0.066128686 13354942
0.39029998 0.0030188314 0.061534602 13486529
0.38724646 0.014611623 0.065016232 13552578
0.3877708 0.024240628 0.06523034 14013127
0.39046156 0.028955396 0.063051194 14078662
0.39457381 0.033208814 0.065949038 13749697
0.40114999 0.038095985 0.064635381 13289147
0.4034839 0.041935764 0.065756924 12895161
0.40573683 -0.081776179 0.075696476 14736083
0.41016671 -0.083565556 0.072316982 14538705
0.39717647 -0.073245533 0.078137241 15327962
0.40326199 -0.075566538 0.074043266 15262169
0.39500874 -0.064564094 0.075495519 15591133
0.40041673 -0.067909457 0.071144186 15656925
0.38900003 -0.050870731 0.079209507 15526111
0.39367771 -0.055261746 0.075126939 15591390
0.38875672 -0.044640601 0.078765631 15460061
0.39248469 -0.044802912 0.073563166 15591134
0.38890475 -0.035466868 0.07823588 15065304
0.39183903 -0.034676827 0.073360384 15196889
0.38877422 -0.02471268 0.07765048 14538959
0.39125395 -0.025361709 0.072758764 14605009
0.3884398 -0.014973097 0.075580016 13946821
0.39007142 -0.017745817 0.071143813 14013128
0.38801584 -0.0054097301 0.075034842 13157563
0.38667774 0.0046468619 0.07511095 12960441
0.38472095 0.015084172 0.07504034 13420735
0.38522604 0.024874663 0.074936301 14012612
0.38855556 0.032206494 0.076610774 13618368
0.39222226 0.035065096 0.073086724 13487297
0.40000001 0.03945867 0.070212476 13223354
0.39900002 0.040294088 0.072839148 13685188
0.40000001 0.042267889 0.070212476 11053472
0.39628005 -0.082288027 0.085909218 14735827
0.40000004 -0.083561823 0.08144936 14538705
0.38800007 -0.072944604 0.088456832 15460318
0.39363998 -0.075627841 0.084252499 15130840
0.3869679 -0.064547017 0.086520903 15657439
0.39092696 -0.066037454 0.081787698 15394010
0.38573316 -0.054933228 0.085089356 15591646
0.39000002 -0.057392478 0.080326125 15526109
0.38494122 -0.045070902 0.085109003 15460061
0.3859643 -0.035020933 0.085058555 14736595
0.38548127 -0.025224475 0.085114479 13223870
0.38535607 -0.015210531 0.0852229 13223614
0.38562211 -0.0053340681 0.085090362 13420735
0.38472024 0.0047825393 0.085192621 13157819
0.38243467 0.015044107 0.08501298 13420991
0.38279518 0.025212111 0.08505857 13881540
0.38662028 0.03345523 0.085039295 13486783
0.39033332 0.037592091 0.080394782 13157563
0.38628888 -0.082125768 0.095865071 14801877
0.39108333 -0.082424842 0.091228984 14933462
0.37900001 -0.070856899 0.099354416 15394525
0.38371658 -0.074920997 0.095102318 15459548
0.39000002 -0.079304412 0.090369098 14999769
0.37850013 -0.063793816 0.099133924 15722976
0.38207731 -0.065335587 0.09417557 15656927
0.37843481 -0.054477431 0.098646536 15328476
0.38119584 -0.055361178 0.093614854 15459547
0.37862504 -0.046133604 0.098922871 15197146
0.38114667 -0.044782013 0.093989752 15262425
0.37900001 -0.030398492 0.09811227 4737351
0.38137999 -0.03501479 0.094975419 12631221
0.37787282 -0.024414981 0.09599869 2567462
0.38074282 -0.025878627 0.091304526 3026729
0.3779999 -0.01543504 0.096315116 2961193
0.38088882 -0.014103614 0.091802254 4145212
0.37900001 -0.0096369386 0.099354416 11908007
0.38200739 -0.0051334938 0.094986752 12697012
0.37844452 0.0070862677 0.098518692 13486270
0.38150865 0.0045023914 0.094185598 13420477
0.37773204 0.01562627 0.095700003 13880515
0.38059998 0.012596227 0.091611296 13486014
0.37766224 0.023135489 0.096118554 14012355
0.38111112 0.027174726 0.093617648 13880771
0.38330951 0.033423662 0.095146313 13420990
0.37900004 -0.080616601 0.10822687 13222331
0.38189557 -0.083008572 0.10464206 14209740
0.37765408 -0.07423567 0.10571329 14999510
0.38067999 -0.077980556 0.10225292 15262425
0.37670255 -0.065098129 0.10514613 15394267
0.37657842 -0.054907463 0.10537494 15065301
0.37726954 -0.044861499 0.10495205 14802387
0.37803322 -0.035233725 0.10530688 11578789
0.38000008 -0.035905179 0.10080269 13157564
0.37499326 -0.024905775 0.10493714 2370598
0.37557551 -0.01501848 0.10523324 3158830
0.37839568 -0.0053402688 0.10626201 11250336
0.38030556 -0.0048226672 0.10197106 11908266
0.37650323 0.0050089215 0.10497476 13025975
0.38000003 0.00012308919 0.10050616 13355453
0.37402248 0.015079825 0.10473647 13354683
0.37541544 0.024551567 0.10506105 13749440
0.38025001 0.029276453 0.10123947 12960181
0.37844121 0.032304015 0.10780551 13157563
0.38097095 0.034169599 0.10362839 13026490
0.37886962 -0.081128925 0.11574713 12894135
0.38076466 -0.083798505 0.11329097 13486274
0.37656397 -0.074944839 0.11469877 13815236
0.37481496 -0.064753145 0.11447007 13354942
0.37567553 -0.055072203 0.11483655 13684163
0.37674603 -0.045065425 0.114573 14012871
0.37660614 -0.034989506 0.114857 9473927
0.37189296 -0.0252079 0.1150085 2173219
0.37207326 -0.0150384 0.11501665 3093549
0.37699223 -0.0051976377 0.11524066 10460051
0.37417302 0.0049305242 0.11515885 12302510
0.37190688 0.014843347 0.11501177 12829111
0.37322539 0.024982844 0.11499596 13421247
0.37628847 0.032191582 0.11418667 13092540
0.37900001 -0.080616601 0.12109193 13157819
0.38000003 -0.080829315 0.12319063 12236972
0.37859261 -0.074573047 0.12239092 11973030
0.38000008 -0.077419229 0.12511806 11315872
0.37844998 -0.065290719 0.12229095 11775910
0.38000008 -0.065235384 0.12562391 10987164
0.37865394 -0.055755295 0.12128861 11316643
0.38004348 -0.05461178 0.12444247 11381921
0.37859097 -0.04427366 0.12204984 10197135
0.38004771 -0.047199458 0.12462546 10789784
0.37649027 -0.035340339 0.12197056 7039843
0.38050005 -0.037733354 0.12587692 8815995
0.3687858 -0.024269601 0.12180554 1843742
0.37024996 -0.026155507 0.12084228 2041376
0.36899999 -0.018021021 0.12204996 1712409
0.37064865 -0.013758763 0.12153035 3750963
0.37450978 -0.0054964446 0.121898 9144963
0.37185711 0.0050122421 0.12143255 11908524
0.37065712 0.013926252 0.12178624 11973804
0.37208697 0.024710478 0.12113485 12763318
0.37500003 0.031286273 0.12025287 13224641
0.36386365 -0.031206129 0.14580218 1186067
0.36305943 -0.024869194 0.14586391 1054222
0.3625803 -0.015999107 0.14595921 1775377
0.3664889 -0.031775374 0.15669739 1842970
0.36642846 -0.024836829 0.15592302 725002
0.37024993 -0.02674957 0.15725717 659721
0.36391163 -0.015465513 0.15514247 2300179
0.36398551 -0.032913238 0.16426268 1975838
0.36389914 -0.025006216 0.16499522 1186064
0.36392355 -0.015866492 0.16481359 1316367
0.34853333 -0.034370612 0.1793777 1844250
0.35580003 -0.032300964 0.17879744 923406
0.36256269 -0.032613464 0.17391574 1251601
0.34900001 -0.027665472 0.1797276 1515542
0.35555595 -0.0249939 0.17822954 988686
0.36146528 -0.024969447 0.17306398 1449237
0.35558435 -0.016724858 0.17840195 857102
0.36173478 -0.017422453 0.17326704 1186323
0.34400633 -0.033546608 0.18486229 1515286
0.34429324 -0.025022002 0.18482001 1449237
0.35000005 -0.022828607 0.18024257 1515030
0.34441549 -0.016689837 0.18551058 1383190
0.35244444 -0.014813338 0.18057646 1120275
0.36100003 -0.010024356 0.18168183 8751744
0.36000001 -0.0099965865 0.18244269 988428
0.34013337 -0.032802891 0.19135171 1515029
0.34006259 -0.024967274 0.19144464 1449237
0.34113517 -0.016459735 0.19138741 1448983
0.79517871 0.12517636 0.32446736 10263954
0.79348546 0.13479781 0.32423934 10264211
0.79596162 0.13527812 0.33487102 10263954
0.79579329 0.14537701 0.33510512 10264211
0.79600018 0.1448902 0.34535807 10198418
0.79506677 0.15474425 0.34522536 10198418
0.79586679 0.095279083 0.3548888 9869454
0.78853339 0.14707096 0.3572205 10132626
0.79220837 0.14367314 0.35317692 10132625
0.78850007 0.15392667 0.35760543 10132626
0.79122734 0.15525861 0.35324109 10198161
0.79553854 0.16414958 0.35538298 10263955
0.79319978 0.094958924 0.3648434 9738124
0.79460013 0.10442963 0.36474079 9869710
0.79383785 0.13455623 0.36485538 10066832
0.78879988 0.14613593 0.36392862 10066832
0.79000002 0.14286551 0.36635184 10066832
0.78859997 0.1553309 0.3638365 10066833
0.79000002 0.15468113 0.36922869 10001039
0.79238468 0.16528466 0.36482492 10132626
0.79514277 0.096520886 0.37478113 9803916
0.79531825 0.10477545 0.37470618 9803917
0.79560012 0.1148025 0.37433162 9869709
0.79481477 0.12512839 0.37437347 10001039
0.79329991 0.13489789 0.37510633 10001296
0.7930001 0.14481686 0.37528995 10001296
0.79347372 0.15501878 0.37489709 10066832
0.79560006 0.16509122 0.37507772 10066832
0.79592597 0.1451807 0.38587034 10001039
0.79576927 0.14535156 0.394757 9935247
0.79565626 0.13471688 0.40485629 9869711
0.79522234 0.12477737 0.414693 9803660
0.79540008 0.13432668 0.41520047 9934989
