# .PCD v0.7 - Point Cloud Data file format
VERSION 0.7
FIELDS x y z rgb
SIZE 4 4 4 4
TYPE F F F U
COUNT 1 1 1 1
WIDTH 897
HEIGHT 1
VIEWPOINT 0 0 0 1 0 0 0
POINTS 897
DATA ascii
0.79233342 0.065175734 0.095484845 10263951
0.78900003 0.073214568 0.099705793 10329744
0.79232156 0.074980609 0.095084801 10197903
0.78880006 -0.15190411 0.10743584 15263451
0.79200006 -0.15608358 0.10408784 12237231
0.78726089 -0.14486298 0.10621206 15394779
0.79028577 -0.14563692 0.10145348 13355711
0.78600001 -0.13482748 0.106489 15131863
0.79000002 -0.13567531 0.10168156 13552834
0.78699994 -0.12559162 0.10589462 14868435
0.79000002 -0.12365419 0.10168156 13487040
0.78751993 -0.11500671 0.1057837 15131862
0.79000002 -0.11514692 0.10168157 13092536
0.78761911 -0.10475504 0.10576206 14802897
0.79000002 -0.1056225 0.10168156 13289914
0.78824997 -0.094777137 0.10606811 15000276
0.79000002 -0.094988428 0.10168157 13026742
0.78866673 -0.084673546 0.10704802 14605262
0.79069233 -0.084462613 0.10205412 13684674
0.78866667 -0.075442128 0.10704802 14276297
0.79138893 -0.074775368 0.10185811 13224382
0.78849995 -0.065274373 0.10702541 14342602
0.79206669 -0.064642385 0.1019449 13027516
0.78820002 -0.055100866 0.10698435 14342347
0.79126674 -0.055315558 0.10184257 13356481
0.78820831 -0.044952285 0.106062 14276554
0.79108328 -0.04511581 0.10089397 12632759
0.78833324 -0.034808569 0.10700263 13223608
0.79139996 -0.034943353 0.10185957 13224380
0.78861547 -0.025022507 0.10775134 12039334
0.79221725 -0.024578633 0.10276861 13224378
0.78900003 -0.014520933 0.10801758 12302506
0.7922501 -0.014580747 0.10289353 12895156
0.78853852 -0.0048566405 0.10731466 12894643
0.7924118 -0.0056358031 0.10242438 12368811
0.78795242 0.0052616671 0.10642277 13224633
0.79146665 0.0043313033 0.10149765 11513245
0.78780007 0.015010035 0.10600636 13356220
0.79119998 0.01507446 0.10090873 10526351
0.78808326 0.025161661 0.10604533 13224379
0.79133338 0.02526425 0.10092594 10526352
0.78799999 0.035304964 0.1060342 13224378
0.79100001 0.03543938 0.10088325 10131594
0.7876668 0.044772498 0.10612013 13421757
0.79088891 0.044691827 0.10097195 10197642
0.78723991 0.0550985 0.10618702 13421758
0.79099995 0.054882705 0.10088324 10263436
0.78666675 0.064779773 0.10601969 13026999
0.79000002 0.062210936 0.10168156 10131850
0.78746676 0.074917242 0.1050394 12435120
0.78831255 0.084570184 0.10665353 13356221
0.79169232 0.086510897 0.1020393 10461590
0.78850007 0.095318884 0.10794854 14145480
0.78883338 0.10489941 0.10861025 14408138
0.78866673 0.11441755 0.10858724 14342346
0.78850007 -0.15203132 0.11440976 14473423
0.79193336 -0.15733051 0.11490963 10460053
0.78471434 -0.14507377 0.11510719 14605007
0.78227991 -0.13526486 0.11533958 14341834
0.78330326 -0.12510471 0.11498985 13947076
0.7834003 -0.115286 0.11458562 13683903
0.78391683 -0.10526572 0.11466183 13749696
0.78577405 -0.095220491 0.11478488 13618367
0.78680009 -0.085261524 0.11521451 13486780
0.7865333 -0.075239144 0.11504401 13289402
0.78547198 -0.06502381 0.11488937 13092022
0.78563327 -0.05492004 0.11491349 13157559
0.78624988 -0.04484022 0.11500478 12697009
0.78619993 -0.034715157 0.11499546 12565422
0.78660613 -0.025022594 0.11480206 12434092
0.78663641 -0.014979407 0.11530841 11776162
0.78619999 -0.0052680308 0.11499323 11710369
0.78499991 0.0048468988 0.11481963 11973541
0.78383356 0.014933095 0.11464889 11973799
0.78463888 0.025053343 0.11476587 12170922
0.78496671 0.03516829 0.11481498 11710628
0.78341699 0.045185447 0.11458775 11908007
0.78221428 0.054990556 0.11473893 12171179
0.7810002 0.065388225 0.11480476 12434095
0.78246665 0.075357452 0.11444566 12828853
0.78336364 0.085111469 0.11482561 12894902
0.77900004 0.097817779 0.11850227 12829109
0.78319359 0.094882935 0.11398589 13355453
0.77900004 0.1023769 0.11850228 13026488
0.78340751 0.10499454 0.11406948 13750465
0.78506243 0.11454813 0.11505303 14013124
0.7883572 0.12232658 0.11583811 11776419
0.79116672 0.12635736 0.11371452 10790552
0.78900003 -0.15166537 0.12371761 14407116
0.79233342 -0.15661652 0.12529843 10920346
0.78540009 -0.14500286 0.12499233 14473421
0.78333366 -0.13452896 0.12466341 14407628
0.78496003 -0.12470178 0.12492266 14012870
0.78482133 -0.11490353 0.12509891 13683905
0.78559256 -0.10498036 0.12482037 13618112
0.78710014 -0.094638214 0.12526417 13420988
0.78776008 -0.084576018 0.12536837 13420987
0.78772002 -0.075351961 0.1253622 13289401
0.78696674 -0.065147668 0.12524325 13092022
0.78679991 -0.055002436 0.12521531 13223608
0.78680015 -0.044872019 0.12521361 13289146
0.78627992 -0.034719467 0.1251317 13552573
0.78600001 -0.025505962 0.12508722 13749952
0.78599989 -0.015385743 0.12508725 13092022
0.78536004 -0.0052625434 0.12498531 12236713
0.78509992 0.004849649 0.1249444 11907492
0.78536004 0.014962543 0.12498699 11776163
0.78476661 0.025055571 0.12489244 12105384
0.78527999 0.035184134 0.12497368 11710627
0.78539979 0.045300119 0.12499371 11644835
0.78423995 0.055330228 0.12481032 11710628
0.78306663 0.065329425 0.12462408 11710371
0.78232008 0.075342119 0.12450338 11842214
0.78231037 0.085255124 0.12437487 12302252
0.7790001 0.097071737 0.12281273 12697523
0.78100002 0.094074585 0.12631455 12631217
0.77900016 0.1038532 0.1237127 12894902
0.78033334 0.10705748 0.12674336 12960439
0.78249997 0.11546959 0.12511699 13223610
0.78805262 0.12454201 0.12541354 10526868
0.79012501 0.12904118 0.12435608 10592919
0.78900003 -0.15173134 0.13506386 14144458
0.79252642 -0.15696149 0.13501091 10723224
0.78644443 -0.14498919 0.13477392 14473420
0.78560603 -0.13516974 0.13472524 14539469
0.78688014 -0.1250069 0.13444062 14407626
0.7875002 -0.11496686 0.13454561 14078917
0.78788012 -0.10487767 0.13460921 14013124
0.78800005 -0.094747946 0.13462915 13815745
0.78800005 -0.084601969 0.13462916 13618366
0.78800005 -0.075378366 0.13462916 13354937
0.78800005 -0.065232389 0.13462915 13157558
0.78750008 -0.054911189 0.13475686 13486780
0.78552759 -0.044801369 0.13512672 13552573
0.78529996 -0.034674704 0.13508585 13486780
0.78603214 -0.025328716 0.13518332 13684159
0.78642839 -0.015261864 0.1353085 13486525
0.7863332 -0.0052683773 0.135267 13091766
0.78630567 0.004857596 0.13526233 12828851
0.78688467 0.015133674 0.1346527 12499885
0.78605556 0.025095286 0.13521877 12499887
0.7857666 0.035205606 0.13516814 12236716
0.78599977 0.045335587 0.13520744 12236715
0.78596658 0.0554533 0.13520192 12236716
0.78579986 0.064639397 0.13517417 12105130
0.7853331 0.074712217 0.13509525 12039338
0.78430003 0.084711336 0.13491844 12236717
0.78334397 0.094464719 0.13532603 12697011
0.78225929 0.10504179 0.13527846 12960182
0.78332144 0.11513108 0.13527055 13157561
0.78823799 0.12424267 0.13493302 10790298
0.79016668 0.12943332 0.13561657 10461590
0.78900003 -0.15120362 0.14495882 14473167
0.79181826 -0.15621333 0.14505427 10920091
0.78841376 -0.14555477 0.14532959 14539214
0.78843743 -0.13500255 0.14514525 14539470
0.78877765 -0.12551448 0.14440618 14473677
0.79000002 -0.12365419 0.14976607 14407628
0.78880751 -0.1152999 0.1434328 14276554
0.79000002 -0.11496198 0.1490263 14341835
0.78879148 -0.10492233 0.14384434 14144455
0.79000002 -0.10546838 0.14945784 14210249
0.78878111 -0.094668686 0.14434266 14013126
0.79000002 -0.096375473 0.14976607 14078663
0.78873324 -0.084680937 0.1449112 13881540
0.78873318 -0.075448364 0.1449112 13815489
0.78871417 -0.065318167 0.14477584 13749440
0.78855157 -0.055252604 0.14503719 13946819
0.78759998 -0.044919506 0.14562556 13946562
0.78647995 -0.034728199 0.14541866 13749695
0.78596002 -0.025504477 0.14532073 13750208
0.78623319 -0.015389179 0.14537042 13553086
0.78700006 -0.0052722199 0.14551258 13224121
0.78700012 0.0048608775 0.14551255 13026487
0.78751737 0.01487604 0.14484537 12763315
0.78696686 0.025125805 0.14550649 12763316
0.78660005 0.035241488 0.14543964 12434351
0.78630012 0.045352772 0.1453843 12434351
0.78620005 0.055469919 0.14536557 12434095
0.78607994 0.064662494 0.14534286 12434094
0.78619987 0.074795254 0.14536558 12368045
0.78599989 0.084895886 0.14532937 12499631
0.78563333 0.094971143 0.1452615 12894389
0.78420013 0.10489425 0.14499627 13091768
0.78392011 0.11403713 0.1449447 13026489
0.78826314 0.1225347 0.14467752 11382178
0.79049999 0.12720594 0.14597477 10461590
0.78900003 -0.1512036 0.15142356 14867411
0.79134619 -0.15571833 0.15529306 11380128
0.7889998 -0.14448701 0.15436207 14605008
0.79000002 -0.14561586 0.15739486 14473423
0.78900003 -0.13568828 0.15179297 14605007
0.79000002 -0.13447319 0.15614648 14276300
0.78900003 -0.12903886 0.15142356 14539214
0.79000014 -0.12534946 0.15546837 14341836
0.79006696 -0.11534118 0.15532759 14210250
0.7907601 -0.10526121 0.15546559 14144456
0.79040027 -0.095037855 0.15539406 14013126
0.78899997 -0.083126135 0.15406223 14013125
0.79000002 -0.086834237 0.15665931 14144455
0.7889998 -0.075474024 0.15511771 14078918
0.78899974 -0.065315165 0.15511768 14078917
0.7889998 -0.055156313 0.15511766 14078918
0.78886646 -0.044990417 0.15509173 13946818
0.78808004 -0.034798194 0.15493712 13881538
0.78741395 -0.024790205 0.15493427 13815745
0.78646141 -0.01468698 0.15447837 13552829
0.78611994 -0.0052664173 0.1545509 13289658
0.78700012 0.0048608775 0.15472452 13092023
0.78723997 0.014997796 0.15477124 13026487
0.78776675 0.025152208 0.15487558 13158074
0.78776008 0.03529403 0.15487492 12894902
0.78776932 0.044728395 0.15473479 12829109
0.78768975 0.054811686 0.15498839 12631474
0.78724009 0.064758196 0.15477297 12434351
0.78736681 0.074906752 0.15479828 12434351
0.78724015 0.085029915 0.15477251 12565424
0.78646648 0.09507136 0.1546198 12960182
0.78479993 0.10497567 0.15521127 13289404
0.78537035 0.11404373 0.15481412 13289918
0.78860003 0.12210058 0.15503937 11382437
0.79045451 0.12726605 0.1557399 10395797
0.79156005 -0.1554051 0.16488728 11446690
0.78899986 -0.14371812 0.16668615 14144456
0.79000002 -0.14584704 0.16352099 14210249
0.78900003 -0.13458005 0.16897067 14341835
0.79000002 -0.1347506 0.1636366 14210250
0.78899997 -0.12463432 0.16818923 14473421
0.79000002 -0.12604752 0.16325581 14210507
0.78900003 -0.11818736 0.16827801 14407628
0.79004014 -0.11470864 0.16397762 14341835
0.79100013 -0.10529324 0.16476957 14341836
0.79066688 -0.095070146 0.16470018 14407628
0.78900003 -0.081630893 0.16127455 14144456
0.79000002 -0.085237019 0.1649816 14341835
0.78899974 -0.075346641 0.16511728 14210249
0.78899974 -0.065315172 0.16527654 13947077
0.78849989 -0.05512207 0.16517048 14012870
0.787889 -0.044935018 0.1650423 13815491
0.78750002 -0.0347724 0.16495976 13684418
0.78748578 -0.024764111 0.16482522 13816003
0.78670961 -0.014657078 0.16494386 13487295
0.78616643 -0.0052666361 0.16468318 13420989
0.78650022 0.0048586996 0.16475193 13223354
0.78693354 0.014992935 0.16484322 13025716
0.78777784 0.025152748 0.16501968 13026232
0.78800005 0.035304971 0.16506703 12763317
0.78800005 0.044528577 0.16506703 13092282
0.78811115 0.05468265 0.16509081 12829109
0.7881667 0.064834081 0.16510276 12829109
0.78800005 0.074966505 0.16506705 12763316
0.78800005 0.085112475 0.16506705 12762803
0.78722239 0.095162667 0.16490532 12960182
0.78644013 0.10519556 0.16566221 13486527
0.78689283 0.11466636 0.16516486 13684677
0.78862953 0.12354154 0.16550642 11053726
0.79000002 0.12902066 0.16386776 10395795
0.79112017 0.13545586 0.16479349 10395795
0.79220837 -0.1548375 0.17452545 11973034
0.7888332 -0.14393908 0.17539823 14736593
0.79000002 -0.14954583 0.17473303 14670800
0.78896135 -0.13478634 0.17542681 14407628
0.7889998 -0.12534474 0.17543535 14210249
0.7889998 -0.11618636 0.17558931 14341835
0.79000002 -0.11173581 0.17339735 14407628
0.79053366 -0.10522982 0.17485049 14341835
0.79075027 -0.095079876 0.17489858 14210249
0.79000026 -0.084816694 0.17473307 14012870
0.78899992 -0.074550487 0.17589715 13946564
0.79000002 -0.07741908 0.17436315 13946820
0.78899974 -0.06531518 0.17543536 13749698
0.78788 -0.055078868 0.1751857 13815491
0.7849707 -0.044555917 0.17518383 13749698
0.7822668 -0.03454233 0.17484753 13815747
0.77900004 -0.027102463 0.17868282 13881797
0.78218514 -0.025178937 0.174321 13815748
0.78352785 -0.015335496 0.17513123 13552319
0.78549993 -0.0054020011 0.17486776 13354940
0.78596658 0.0048546121 0.17476085 13157561
0.78644007 0.014984334 0.17486635 12763057
0.78723347 0.025135726 0.17504233 12631473
0.78800005 0.035304975 0.17521305 12171180
0.78800005 0.044528581 0.17521301 12368559
0.78858614 0.054557696 0.17534338 12763060
0.7889998 0.064902782 0.17543541 12565681
0.78836662 0.074999936 0.1752947 12500144
0.78800005 0.085112467 0.17521305 12697522
0.78760016 0.09520901 0.17512377 12763315
0.78776008 0.10537223 0.17516066 13026744
0.78784007 0.11460521 0.1751781 13092795
0.78872716 0.1235472 0.17495547 10922140
0.79011112 0.12891047 0.17609394 10330002
0.7915557 0.13532545 0.17456439 10330002
0.78899986 -0.14313483 0.18408743 14407628
0.79027271 -0.14774807 0.18597798 14407628
0.78899992 -0.13458003 0.18305454 14276042
0.79000002 -0.1347506 0.18778157 14407628
0.78900003 -0.12549864 0.18236189 14276042
0.79000002 -0.12536134 0.18703867 14341835
0.78900003 -0.11713556 0.18220796 14276042
0.79009527 -0.11450867 0.1859843 14276042
0.79100019 -0.10529177 0.18514028 14341835
0.79100013 -0.095110141 0.18513988 14210249
0.79000014 -0.084816694 0.18490477 14078406
0.7889998 -0.075474016 0.18467072 13946821
0.78880626 -0.065151326 0.18480387 13683648
0.78743345 -0.055048678 0.18522514 13683905
0.78374988 -0.044932887 0.18493152 13815491
0.77900004 -0.03188955 0.18278605 13947077
0.78047365 -0.035232961 0.18565615 13815747
0.77900016 -0.025854701 0.18328996 13881284
0.78000009 -0.024499707 0.18804215 13749953
0.78210002 -0.015306238 0.18488747 13552319
0.78541374 -0.0051330789 0.18490925 13355453
0.78669429 0.0048605185 0.18505354 13223610
0.78743345 0.015002852 0.18522771 12894901
0.78772235 0.025150388 0.18529485 12697778
0.78796673 0.03530363 0.18535137 12631729
0.78803712 0.044325881 0.18485543 12894902
0.78869987 0.054724254 0.18460108 13289403
0.7889998 0.064902775 0.1846707 13157560
0.78883308 0.075044967 0.18463217 12828851
0.78800005 0.08531744 0.18484658 12894643
0.78775018 0.095227748 0.18530117 13092022
0.78800005 0.10540442 0.18535903 13092022
0.78832144 0.11447829 0.185105 13092279
0.78900003 0.12068409 0.18319306 11974058
0.79075009 0.12511869 0.18545172 10395538
0.78900003 -0.14289182 0.19021188 14539214
0.79032379 -0.14509209 0.19542871 14605007
0.79000026 -0.1347506 0.1950765 14539214
0.79065734 -0.12481369 0.19537178 14341835
0.79111129 -0.11484153 0.19449478 14276042
0.79211992 -0.10544141 0.19467315 14341835
0.79213321 -0.095245861 0.19467689 14341835
0.79055196 -0.084749676 0.19505376 14209993
0.78900009 -0.073123209 0.19373809 13946564
0.79000002 -0.076932378 0.19570918 13947077
0.78868556 -0.065422393 0.19488315 13946820
0.78663999 -0.054993868 0.19516613 13815490
0.783485 -0.04443625 0.19488522 13618111
0.78149992 -0.034704529 0.19513454 13684162
0.78133339 -0.025217967 0.19527382 13684161
0.78283358 -0.015322127 0.19513895 13355709
0.78451735 -0.0053803874 0.19539814 13289660
0.7871334 0.0048649786 0.19528927 13355452
0.78800005 0.015013026 0.19550496 13026487
0.78829998 0.025169708 0.19557999 13158073
0.78875983 0.035339206 0.19569454 12565937
0.78896409 0.044781137 0.19515069 12368558
0.78899974 0.054743942 0.19482954 12894902
0.78899974 0.064966477 0.19473401 13092279
0.79000002 0.063135639 0.19785057 13026742
0.78899974 0.075061634 0.19482952 13026229
0.78853565 0.084971182 0.1950444 12960436
0.78800005 0.095258452 0.19550498 13289401
0.78800005 0.10540442 0.19550496 13223608
0.7884444 0.1148992 0.19520479 13420987
0.79185182 0.12425613 0.19501908 10461075
0.79036695 -0.14499065 0.20534351 14407628
0.79056025 -0.13484575 0.2053948 14539214
0.79133338 -0.12478758 0.20559572 14473421
0.79199988 -0.11463287 0.20500061 14341835
0.79206657 -0.10543502 0.20485733 14144456
0.79183328 -0.095209643 0.20479687 14210250
0.78900003 -0.081630893 0.20806682 13881285
0.79039133 -0.085423 0.20470524 14144456
0.78877258 -0.07503324 0.2053484 13815493
0.79000002 -0.078652017 0.20216584 13947079
0.78720003 -0.065037526 0.20530784 13881028
0.78466678 -0.054854963 0.20477863 14078406
0.78312153 -0.04491429 0.20479263 13815234
0.77900004 -0.03135765 0.20907705 13618112
0.78119224 -0.034706552 0.20506842 13618112
0.77900016 -0.024857968 0.20814182 13552832
0.78058833 -0.025652582 0.20323189 13552575
0.77900004 -0.01775624 0.20854515 13355453
0.78099996 -0.014569425 0.20467032 13420989
0.78242302 -0.0050989361 0.204899 13355196
0.78558332 0.0048570363 0.20501825 13355707
0.78766668 0.015007223 0.2055624 13092278
0.78836662 0.025172226 0.20482349 13026231
0.7889998 0.035349771 0.20498842 12631730
0.7889998 0.044585086 0.20498841 12500144
0.78899974 0.054743942 0.20498843 12500144
0.78900003 0.062645264 0.20457794 12763060
0.79000002 0.066256508 0.20547934 12828852
0.78900003 0.076776758 0.20182201 12894387
0.79017401 0.074651174 0.206259 12762803
0.78892857 0.086135969 0.20338695 12697266
0.79018188 0.084170386 0.2073136 12762803
0.7883333 0.095297411 0.20481576 13223609
0.78800005 0.10540444 0.20472862 13354938
0.78843993 0.11469334 0.20484306 13289144
0.78900003 0.12031468 0.20775899 11183771
0.79153836 0.12491001 0.20478927 10263696
0.78900003 -0.14289182 0.21884136 14670800
0.79007715 -0.14522144 0.21394682 14933971
0.79032022 -0.13480416 0.21458143 14605007
0.79140002 -0.12479857 0.21487464 14407628
0.79132003 -0.11459916 0.21485275 14407628
0.79108018 -0.1053039 0.21478814 14341835
0.79076684 -0.095082201 0.21470265 14144456
0.78899986 -0.083231688 0.21533196 13947077
0.79000002 -0.087821983 0.21380167 14078663
0.78810006 -0.075389259 0.2149011 13815491
0.7851516 -0.064918198 0.21518095 13749955
0.78216666 -0.054679953 0.2151124 13947333
0.77900004 -0.044123221 0.2181953 13881797
0.78112 -0.045536261 0.2136907 13947334
0.77891666 -0.034469765 0.21574058 13750211
0.7801429 -0.038621906 0.2126011 13881540
0.77811986 -0.025250066 0.21491194 13552576
0.77871418 -0.015567441 0.21527205 13355453
0.78000003 -0.010703308 0.21269308 13355453
0.7816667 -0.0052334471 0.21497707 13355453
0.7845 0.0046193814 0.21518163 13421247
0.78628016 0.014981471 0.21532501 13552831
0.78763896 0.025148476 0.21477436 13421245
0.78839999 0.035323281 0.21498209 13223611
0.78849989 0.044556838 0.21500912 13026488
0.78880531 0.054730937 0.21509326 12829108
0.78899986 0.063759364 0.21598284 12829108
0.79000002 0.067656405 0.21346776 12763059
0.79060012 0.075214952 0.21465747 12697266
0.78900003 0.087991081 0.21722519 12894387
0.79045004 0.084543213 0.21424702 12763059
0.7884444 0.0953108 0.21499495 13092023
0.78803343 0.10540905 0.21488351 13354938
0.7882666 0.11466635 0.21494624 13288887
0.78888869 0.12364981 0.21556117 10197903
0.79012501 0.12881 0.21337268 10066832
0.78899986 -0.14303762 0.22520886 14605007
0.79000002 -0.14798094 0.22488035 14539214
0.78900003 -0.13827416 0.22530608 14473421
0.79000014 -0.13401084 0.22448197 14539214
0.79077798 -0.12470049 0.22488788 14341835
0.79113358 -0.11457082 0.22498986 14276042
0.7911002 -0.10530695 0.22498031 14341836
0.78900003 -0.090250522 0.22715314 14143943
0.79024273 -0.095439047 0.22448313 14209992
0.78891289 -0.084379174 0.22552185 13880771
0.79000002 -0.088053152 0.22143048 14012357
0.78757691 -0.075198337 0.22511135 13618112
0.78408831 -0.065129481 0.22508936 13749698
0.77900004 -0.05153941 0.227192 13684161
0.78104538 -0.055017915 0.22469659 13815491
0.77892858 -0.04507456 0.22542538 13618369
0.78000003 -0.04904918 0.22182307 14012870
0.77880543 -0.035300508 0.22512995 13618625
0.77853334 -0.025263356 0.22505297 13223867
0.77894425 -0.015247305 0.22517014 12960695
0.77900004 -0.0088659329 0.22518599 13289660
0.7812857 -0.0045350888 0.22475819 13355454
0.78314734 0.0050542094 0.2248193 13421247
0.78423345 0.014942669 0.22486 13223611
0.78547215 0.025079362 0.22521561 13618625
0.7863332 0.035230685 0.22546118 13487295
0.78724992 0.044289887 0.22539625 13684418
0.78800005 0.054674551 0.22502056 13223867
0.78836 0.064850613 0.22512215 12960695
0.78859991 0.075023577 0.22519046 12894643
0.79000002 0.075156771 0.22004344 12829363
0.78816009 0.085129 0.22506531 12960436
0.79000002 0.082554385 0.22004344 12894899
0.78763354 0.095213391 0.22491479 13223609
0.78763998 0.1053573 0.22491698 13486525
0.78812003 0.11464603 0.2250551 13289402
0.78890914 0.12197996 0.22393723 10197646
0.7904706 0.12652658 0.2259447 10066831
0.7889998 -0.14366142 0.2346953 14473421
0.79000002 -0.14923762 0.23422222 14407628
0.78899997 -0.1364271 0.23553596 14407627
0.79000002 -0.13256495 0.23382993 14407628
0.79040033 -0.12464038 0.2349572 14276041
0.79140007 -0.11460964 0.23525441 14078663
0.79096007 -0.10528933 0.23512311 14144456
0.78900003 -0.091276675 0.23556754 14012868
0.79004759 -0.096535601 0.23441228 14210248
0.78839993 -0.084645934 0.23528489 13749440
0.78686202 -0.075398423 0.23498441 13617855
0.78309381 -0.064601831 0.23496166 13815234
0.77870601 -0.053150516 0.23566271 13684161
0.78054547 -0.05705763 0.23335704 13749698
0.77787995 -0.045274276 0.23487677 13552575
0.77836663 -0.035279375 0.23502475 13487039
0.77900016 -0.025973532 0.23504239 13420990
0.78000003 -0.021659272 0.23643102 13223611
0.78036678 -0.015274649 0.23562978 12762803
0.7809335 -0.0052303285 0.23488608 13355196
0.78205544 0.004831248 0.23522204 13421502
0.78253353 0.014909029 0.23536511 13092280
0.78261131 0.024987005 0.23538679 13289917
0.78377789 0.034913782 0.23522852 13158587
0.78606057 0.045592554 0.23500445 13421503
0.78730011 0.055547927 0.23495625 13355453
0.78746682 0.064776659 0.23500508 12960950
0.78719449 0.074888922 0.23492295 12894900
0.78639996 0.084938958 0.23468448 12894900
0.78611112 0.0950303 0.23459962 13158073
0.78690022 0.10525798 0.23483747 13421244
0.7882759 0.11454196 0.23508966 13420733
0.78900003 0.12031468 0.2345414 10262925
0.79095238 0.12502334 0.23512132 10066574
0.78899974 -0.14375165 0.24460471 14539214
0.79000002 -0.14954583 0.24501038 14276299
0.78899974 -0.13470742 0.24485952 14407628
0.79000002 -0.13105181 0.24038687 14473675
0.78900003 -0.1258065 0.24762475 14407628
0.79000002 -0.12519535 0.24305828 14341835
0.78900003 -0.11500116 0.24931791 14210249
0.79019386 -0.11538978 0.24432361 14276042
0.78900003 -0.10391879 0.24802497 14341835
0.79009998 -0.10572863 0.24337634 14276041
0.78885269 -0.094579659 0.24487148 14012869
0.79000002 -0.099611931 0.24131158 14210504
0.78800005 -0.084601976 0.24531247 13552062
0.78657693 -0.075102396 0.24508157 13552062
0.78314716 -0.065050259 0.24498735 13881284
0.7786001 -0.053062607 0.24448344 13815491
0.78028578 -0.057678752 0.24552117 13947077
0.77796662 -0.045279864 0.24492307 13618112
0.77752787 -0.035242267 0.24478269 13552319
0.77882755 -0.025398174 0.24534889 13420733
0.78000003 -0.021659272 0.24099599 13486526
0.77900016 -0.016551327 0.24798162 12828340
0.78028572 -0.014621187 0.24360609 12499888
0.7790001 -0.0039420691 0.24834637 12631731
0.78010523 -0.0057069249 0.24371955 12829109
0.77900016 0.0052022482 0.24728692 12894902
0.7803334 0.0042726048 0.24280338 13223610
0.77900016 0.01503352 0.24721374 12960437
0.78045464 0.014537271 0.24229841 13092280
0.77873915 0.024981642 0.24710527 13421501
0.78015393 0.024697077 0.24216716 13289914
0.77900004 0.031710353 0.24843754 13553086
0.78188461 0.035526108 0.24439146 13224122
0.78458333 0.045256115 0.24516408 13618882
0.78573328 0.055437382 0.24552439 13618881
0.78524256 0.065093398 0.24562119 13092281
0.78393948 0.074995615 0.24471271 12829109
0.78306699 0.084579386 0.24469286 12894901
0.7839725 0.094773844 0.24497628 13158072
0.78619224 0.10502324 0.24496129 13420990
0.788077 0.11478318 0.24512346 13421247
0.78900003 0.1208424 0.24351285 10131598
0.79071438 0.12507321 0.24518801 10066318
0.7889998 -0.14381534 0.25485915 14473934
0.79000002 -0.14954583 0.25518209 14342348
0.7889998 -0.13458006 0.25485909 14473676
0.78891975 -0.12533231 0.25483286 14473420
0.78869987 -0.11514305 0.25476137 14341835
0.78829628 -0.10493335 0.25503993 14407628
0.78812909 -0.09461575 0.25475526 14078406
0.78693348 -0.084489241 0.25510985 13486525
0.78439385 -0.075035833 0.25520134 13552319
0.77900004 -0.061751872 0.25892356 13816004
0.7815001 -0.064911425 0.2549085 13750211
0.77900004 -0.056280911 0.25649202 13684418
0.78011549 -0.054746196 0.25500903 13750211
0.77890486 -0.044812851 0.25472435 13487039
0.78000003 -0.048136182 0.25834292 13487039
0.77856666 -0.035288442 0.25513554 13421246
0.77900016 -0.026494576 0.25406045 13354940
0.78000009 -0.023485266 0.25742993 13157561
0.77900016 -0.014617453 0.254154 12631218
0.77999997 -0.01547118 0.2561112 12828596
0.77900016 -0.0043067997 0.25527623 12433840
0.78000003 -0.0088773137 0.25469097 12499633
0.77896661 0.0048110643 0.25526521 12697012
0.77852011 0.01483082 0.25511828 12367533
0.7766946 0.02479703 0.25542688 13158074
0.77720696 0.034697007 0.25575089 13223610
0.78025001 0.037241407 0.25066265 13553086
0.77866673 0.042178817 0.25719175 13289404
0.78162986 0.045998842 0.25423762 13552575
0.78307164 0.055119421 0.25536352 13420990
0.78393126 0.065245524 0.25493041 13355196
0.7840386 0.075295113 0.25523466 12960181
0.78472 0.084759042 0.25531474 12894643
0.78556651 0.094964579 0.2555905 12960179
0.78664291 0.10522387 0.25501913 13223353
0.78827995 0.11467072 0.25462681 13158333
0.78899974 -0.14381534 0.26501793 14407628
0.79000002 -0.14954583 0.26535383 14342091
0.7889331 -0.13456875 0.26499587 14473419
0.78863323 -0.12528741 0.26489586 14342090
0.78797227 -0.11503632 0.26467267 14276298
0.78675014 -0.10472853 0.26458889 14472906
0.78633314 -0.095468275 0.26411808 14472649
0.78372228 -0.085064277 0.26507676 13222839
0.77870005 -0.072666489 0.26793817 13617598
0.78099996 -0.075624213 0.26406562 13420475
0.77882135 -0.065188788 0.26557007 14078918
0.78000003 -0.06822212 0.26108193 13947077
0.77884614 -0.056269612 0.26637533 14210247
0.78000009 -0.053066365 0.26272529 13749954
0.77857697 -0.044894338 0.26565126 14144711
0.78000003 -0.048136186 0.26245141 13749954
0.77819437 -0.035271965 0.26502958 14078918
0.77876484 -0.02569999 0.26742396 13947076
0.78015387 -0.024753686 0.26281914 13618111
0.7786538 -0.014050679 0.26602826 13288891
0.78030008 -0.018380109 0.26355687 13157561
0.77816683 -0.0052140579 0.26501909 13025975
0.77722228 0.0047990549 0.26469749 13092026
0.77622592 0.014904168 0.26456276 12302253
0.77458328 0.024729824 0.26561356 13092281
0.77523071 0.034594748 0.26513851 12894902
0.7779333 0.043963086 0.26494235 13224122
0.78000003 0.049554493 0.26473391 13355707
0.78229642 0.055332094 0.26510668 13224121
0.78426927 0.064374536 0.26455948 13355194
0.78516656 0.074696444 0.26464975 13157815
0.78495997 0.084784292 0.26457986 13092022
0.7856999 0.094982393 0.26482922 13289146
0.78746158 0.10547538 0.26521078 13355196
0.78852171 0.11374185 0.26433602 13224382
0.79000002 0.11808937 0.2670711 13158847
0.7889998 -0.1433116 0.27509281 14341835
0.79000002 -0.1488523 0.27575675 14341835
0.7889998 -0.13458005 0.27517673 14341835
0.7889998 -0.12534474 0.27517682 14210249
0.78829998 -0.11508513 0.27493283 14210248
0.78607136 -0.10444222 0.27474707 14341321
0.78496659 -0.095302194 0.27468911 14407369
0.78254849 -0.0847902 0.27493572 13419706
0.77765393 -0.074251898 0.27506936 12827314
0.78000003 -0.078265086 0.27021191 12893360
0.77603352 -0.065150812 0.27519405 13946821
0.77600014 -0.055155061 0.27518043 14539470
0.77596676 -0.045162912 0.27517006 14539213
0.77527779 -0.03514044 0.27492517 14407627
0.7755667 -0.025167087 0.27502695 14144197
0.77588892 -0.015188862 0.27514139 13617854
0.77500027 -0.0051918295 0.27482662 13223354
0.77463889 0.004784367 0.27469921 13618370
0.7743448 0.014627341 0.27475223 12631732
0.77400011 0.024712013 0.27538112 13223867
0.77506888 0.034852594 0.27501062 13026488
0.77752638 0.042885859 0.27471995 13223867
0.78118193 0.048466727 0.27544254 13224123
0.78352004 0.055283729 0.27510121 13355452
0.78541362 0.064735733 0.2750043 13158073
0.78599983 0.074776098 0.275051 13092278
0.78557694 0.084709197 0.27419657 13092022
0.78646666 0.095075808 0.27429479 13288890
0.78803998 0.10541033 0.27484244 13420733
0.78891653 0.11460784 0.27530196 13158332
0.79000002 0.11861777 0.27182674 13158846
0.78899992 0.12511703 0.27739325 9869453
0.79052639 0.12502876 0.27278578 10066575
0.78873676 0.13523982 0.27615339 9935246
0.79066664 0.13460438 0.27128401 10000782
0.78885704 0.14482844 0.27644557 10000782
0.79041666 0.14504801 0.27150676 10066575
0.78900003 0.15171476 0.27794737 10001039
0.79132277 0.15556958 0.27455026 9935245
0.78889269 -0.14419177 0.28556022 14341835
0.79000002 -0.14892937 0.28323141 14407628
0.78843743 -0.13482991 0.28536117 14276042
0.78849983 -0.1252653 0.28515303 14144456
0.78802776 -0.11504507 0.28498295 14144456
0.78625917 -0.10486873 0.28485477 14209736
0.78479308 -0.095154457 0.28549182 14341065
0.7832002 -0.08513736 0.28520188 14143686
0.77784222 -0.07306651 0.28479913 12827826
0.78062505 -0.077643052 0.285734 13419963
0.77503848 -0.064929366 0.28503168 12696498
0.77402794 -0.055015508 0.28535703 13617855
0.77383339 -0.045038987 0.28528401 14407626
0.77336133 -0.035053473 0.28510973 14407626
0.77333355 -0.025094928 0.28509954 14144453
0.77327794 -0.015136967 0.28507867 13881025
0.77300012 -0.0051789777 0.28497645 13091767
0.77275008 0.0047731549 0.28488484 13420733
0.77290004 0.014725572 0.28494075 12631731
0.77347237 0.024696751 0.28515175 12960952
0.77503705 0.034524769 0.28522405 12829109
0.77770013 0.042492304 0.28525397 13026488
0.78126663 0.048051346 0.28467232 13158075
0.78380018 0.055302855 0.2852886 13289660
0.77900004 0.068639323 0.28992566 13289401
0.78341186 0.06508819 0.28535989 13289146
0.77844459 0.074564129 0.28890836 13223352
0.78353554 0.075196899 0.28427029 13157561
0.77900004 0.080493063 0.28992566 13223608
0.78508824 0.084908679 0.28499478 13157561
0.78758341 0.095209748 0.28482273 13289147
0.78846657 0.10546754 0.28514189 13355197
0.78866661 0.11472483 0.28521365 13223612
0.78866649 0.12488033 0.28521383 9869197
0.78885162 0.1347235 0.2848382 9869453
0.79000002 0.13896121 0.28847137 9935246
0.78888881 0.14440919 0.28273073 9935246
0.79022223 0.14557831 0.28752509 9869453
0.78900003 0.15171476 0.28164151 9869453
0.79100001 0.15544833 0.2855621 9935246
0.78900003 -0.1512036 0.2982651 13947077
0.79170388 -0.1556392 0.29471999 11578273
0.78828001 -0.14553109 0.2952241 14276042
0.78705883 -0.13495435 0.29541573 14341835
0.78633332 -0.12492196 0.29541209 14276042
0.7853635 -0.11507393 0.29479629 14210249
0.78328574 -0.10458208 0.29486781 14210249
0.78183883 -0.095041052 0.29534683 14210249
0.77900004 -0.081812054 0.29904392 14276042
0.78170604 -0.085056655 0.29523495 14143943
0.77737504 -0.073757716 0.29606745 13749184
0.78100008 -0.077582523 0.29302007 13748928
0.77486193 -0.065178998 0.29489011 13222584
0.77373344 -0.054995995 0.29521051 12761520
0.77264303 -0.044776618 0.29537401 13552062
0.76811117 -0.032318398 0.29865867 14144456
0.77140003 -0.035446595 0.29443756 14144711
0.76836371 -0.025750248 0.29855704 13618368
0.77109104 -0.024858393 0.29370812 13815746
0.7711944 -0.015095111 0.2951422 13552574
0.77153325 -0.0051687616 0.2952728 13091768
0.77161092 0.0047662826 0.29530275 13552576
0.77193338 0.014707156 0.29542643 12894901
0.77267653 0.024458202 0.29544473 13026487
0.77425003 0.034884904 0.29482323 13026488
0.77637166 0.044653434 0.2954348 13289403
0.78033334 0.048967004 0.29103056 13289660
0.7778334 0.053514987 0.29783523 13420989
0.78149998 0.055687867 0.2937811 13355453
0.77854556 0.066029362 0.29597008 13223610
0.7808333 0.062554829 0.29289147 13355196
0.77672023 0.074802443 0.294532 13092280
0.77795017 0.083573855 0.29590875 13223865
0.78100008 0.087029472 0.29334095 13223608
0.77900004 0.091434985 0.29904392 13420987
0.78375679 0.095316365 0.29491094 13355194
0.78429419 0.10480116 0.29539666 13420988
0.78582358 0.11496195 0.29543632 12565939
0.78774077 0.12524645 0.29481778 9737610
0.78900003 0.13250528 0.29475567 9803660
0.79025 0.13704003 0.29550058 9869453
0.78900003 -0.1512036 0.30472982 14210251
0.79118192 -0.15642339 0.30506587 11052187
0.78733337 -0.14535706 0.30500653 14341835
0.78524983 -0.13526389 0.30494407 14276042
0.78306091 -0.12490242 0.30543229 14341835
0.77900004 -0.1109905 0.30998585 14473934
0.78133333 -0.1149825 0.30450889 14407628
0.77900016 -0.10378706 0.30761507 14473421
0.78070003 -0.10602523 0.30261916 14473421
0.77867854 -0.094343945 0.3056252 14144199
0.78000003 -0.097438022 0.3012538 13881284
0.77773345 -0.085322112 0.30492654 14407628
0.7753889 -0.075082548 0.30491486 13881028
0.77366692 -0.064952604 0.30514497 14012356
0.77247244 -0.054906569 0.30467322 13485756
0.76880008 -0.042405963 0.30700642 12894390
0.77110004 -0.046054512 0.30386171 12959413
0.76651424 -0.034773275 0.30485964 13946820
0.76578122 -0.024680059 0.30522481 13814977
0.76761305 -0.015401741 0.30521956 13288890
0.77000004 -0.012729186 0.30135727 13486780
0.76805007 -0.0051455041 0.30652529 13157305
0.77030003 -0.0051605785 0.30201527 13289146
0.76858824 0.0036366889 0.30742952 13223356
0.77031595 0.0057544853 0.30339721 13289148
0.77079999 0.014686081 0.30491784 13223611
0.77156246 0.024861922 0.30488035 13552575
0.77293354 0.034630477 0.30485684 13355709
0.77383351 0.044635255 0.30521065 13552832
0.77540016 0.054709639 0.30473801 13684161
0.77680564 0.06481 0.304564 13552319
0.77776676 0.074904725 0.30494422 13420731
0.77888227 0.08482527 0.30511305 13420730
0.7790001 0.093562573 0.30405897 13552059
0.78000003 0.096608967 0.30532715 13552060
0.7790001 0.10287428 0.30600697 13618110
0.78046668 0.10561625 0.30362648 13486780
0.78403711 0.11385316 0.30505633 12960181
0.78831822 0.12356772 0.30429909 9672074
0.79037499 0.12861958 0.30688053 9541002
0.78878564 -0.15248187 0.31533012 12104876
0.79080003 -0.1572271 0.31480393 9736328
0.78626919 -0.14502005 0.31493017 14210506
0.78375018 -0.13571832 0.31495571 14210763
0.78193337 -0.12513898 0.3148146 14144969
0.77900004 -0.11190233 0.31272131 14342348
0.78063637 -0.11529361 0.31454307 14210506
0.77900004 -0.10460772 0.31180951 14539471
0.78127784 -0.10491352 0.31638154 14407372
0.77881819 -0.093727045 0.31306303 14209991
0.78177786 -0.09593036 0.31739685 14341064
0.77718759 -0.085034892 0.31313226 14144456
0.78125006 -0.0866227 0.31819686 13617855
0.77587503 -0.075127408 0.31419447 13881028
0.78050005 -0.077402264 0.31971854 14276555
0.77435005 -0.065010078 0.31448326 14078150
0.77316016 -0.054774813 0.31418216 13486782
0.76850003 -0.04202985 0.31120482 12368045
0.77235007 -0.045495071 0.31530032 13026231
0.76700002 -0.034317855 0.31284332 13420730
0.771375 -0.035867363 0.31778702 13158073
0.76540005 -0.024837172 0.3135353 13683905
0.77020007 -0.024994183 0.31910545 13224640
0.76633334 -0.015000284 0.31301942 13223354
0.77099997 -0.01509212 0.31943688 12829883
0.76720011 -0.0051389914 0.3133738 13026233
0.77149999 -0.00607026 0.31964403 12369073
0.76818758 0.0042974749 0.31265184 13157306
0.77137506 0.0056687342 0.31733578 13354940
0.76900005 0.011050551 0.31230742 13486528
0.77095664 0.015002212 0.31408611 13223355
0.77143323 0.024631273 0.31420088 13618625
0.77255994 0.034614611 0.31465891 13487553
0.77386671 0.044637699 0.31519172 13553345
0.77499998 0.054917783 0.31415385 13684418
0.77640736 0.064473756 0.31400558 13486782
0.78050005 0.066944905 0.31971854 13552832
0.77811122 0.074634515 0.31388342 13552574
0.78000003 0.077857405 0.31768772 13487293
0.77899998 0.082316719 0.31285161 13420987
0.78088897 0.086476795 0.31530985 13486523
0.78157705 0.095185846 0.31481558 13552573
0.77900004 0.10602421 0.31180951 13683905
0.78100008 0.10461456 0.31451476 13618625
0.78487498 0.11433253 0.31484875 13092024
0.78854555 0.12125285 0.31512648 9540232
0.79062504 0.12600052 0.31495911 9606282
0.78869236 -0.15270735 0.32449538 9605771
0.79069239 -0.1576515 0.32574505 9606027
0.78771991 -0.14535241 0.32481807 10592664
0.78752172 -0.13504963 0.32524282 10526357
0.78675002 -0.12498798 0.32504573 10592150
0.78691673 -0.11488086 0.32511458 10920860
0.78753346 -0.10483133 0.32444572 11972777
0.79020005 -0.10518583 0.3292416 8882049
0.78764707 -0.094976373 0.32460105 12170155
0.79049999 -0.095050298 0.32936662 8224376
0.78621054 -0.084410578 0.32438785 11579045
0.79000002 -0.087590799 0.32915828 8224376
0.7856667 -0.075156718 0.32551757 10000527
0.77900004 -0.061751872 0.32092774 14473421
0.78425014 -0.065379918 0.32516095 10262928
0.778 -0.056211472 0.32051578 12828853
0.78370005 -0.054787688 0.32561824 10723222
0.77724999 -0.044329997 0.32202637 13355197
0.78354543 -0.045104269 0.32713869 9539719
0.7755 -0.035152182 0.32311875 11316386
0.78175002 -0.034063175 0.3289234 7632495
0.77520013 -0.025156278 0.32481015 9343885
0.77572221 -0.015184103 0.32502976 9541777
0.77516669 -0.0051937266 0.32388797 10659486
0.78250003 -0.0024937182 0.32969707 7370351
0.77564293 0.0042716092 0.3226603 11907240
0.78200006 0.0053782617 0.32802233 9013377
0.77570003 0.014777516 0.32229319 11314844
0.78100002 0.014876852 0.32723674 8222574
0.77617651 0.024620589 0.3232955 9934220
0.78266668 0.024987156 0.32976732 7566186
0.77638465 0.034364622 0.32320854 10066579
0.78200006 0.035819385 0.32896468 7500910
0.77750003 0.044119947 0.32285866 11382440
0.78275007 0.046067856 0.32751229 7830133
0.778 0.053983055 0.32051575 13882311
0.78357136 0.055153366 0.32595989 10856096
0.78487509 0.064908922 0.32496047 12105903
0.78621739 0.074997172 0.32494733 12369074
0.78669995 0.084972642 0.32502592 12566195
0.78754157 0.095204055 0.32537177 12500145
0.78754997 0.10534457 0.32537538 12565682
0.78785706 0.11460847 0.32457906 12237229
0.79000002 0.11769307 0.32915828 9408645
0.78880006 0.12102301 0.32274956 9343109
0.79090917 0.12523656 0.32583344 9540488
0.78900003 -0.14658594 0.3305887 9540231
0.78900003 -0.12349766 0.3305887 9211266
0.78900003 -0.11888 0.3305887 9079937
0.78900003 -0.072703421 0.3305887 8619129
0.78900003 -0.065315172 0.3305887 8619131
0.78837508 -0.054419983 0.33101946 8158580
0.78837508 -0.044963151 0.33217272 8224116
0.78722221 -0.034760132 0.33353144 8290424
0.79128581 -0.035205092 0.33816275 8422266
0.78633338 -0.024409946 0.3348754 8356474
0.79000002 -0.028409868 0.33840528 8685181
0.78637505 -0.014816459 0.33490142 8093302
0.78690004 -0.0052692085 0.33431596 7961973
0.7906 -0.0052939951 0.3386623 8158836
0.78718185 0.0052815746 0.33267656 7764336
0.791125 0.0039594583 0.33749929 8159093
0.78708333 0.015455961 0.33301273 7960944
0.78758335 0.025144035 0.33460578 7961458
0.79049999 0.025237061 0.33861947 8093044
0.78730005 0.035274308 0.33448565 7830128
0.79000002 0.035394575 0.33840528 8027251
0.78728575 0.044226356 0.33342761 7961459
0.79083329 0.045306716 0.33845404 8158837
0.78850007 0.054709364 0.33222556 7895667
0.78883338 0.06427417 0.3308267 7434861
