# .PCD v0.7 - Point Cloud Data file format
VERSION 0.7
FIELDS x y z rgb
SIZE 4 4 4 4
TYPE F F F U
COUNT 1 1 1 1
WIDTH 1164
HEIGHT 1
VIEWPOINT 0 0 0 1 0 0 0
POINTS 1164
DATA ascii
0.41300002 -0.010501467 -0.070597999 10855060
0.41160008 -0.0056530475 -0.070680492 12434092
0.44630003 -0.042070307 -0.06134991 13551288
0.45033336 -0.043780994 -0.062923491 13617081
0.43515632 -0.033262737 -0.062764928 13353911
0.44162506 -0.038112108 -0.062564626 13419703
0.42341393 -0.023050949 -0.062560953 12630186
0.43094122 -0.028108926 -0.064172707 12827566
0.41590005 -0.014091151 -0.064345315 12301220
0.42000002 -0.019528506 -0.06294553 12498600
0.40812749 -0.0032396743 -0.063791066 11643805
0.41115907 -0.0074384692 -0.065973662 12301477
0.40652713 0.0048863105 -0.065213576 12171434
0.40542698 0.014813145 -0.064909168 12961463
0.4074873 0.024622377 -0.063601784 13487807
0.41000003 0.029887147 -0.063366458 14145993
0.41276273 0.03556877 -0.06307257 13816516
0.41624537 0.044485986 -0.062934324 13355709
0.41900003 0.050160937 -0.062305216 13421759
0.42093754 0.054523759 -0.060929224 14211019
0.42300001 0.060542304 -0.060424384 14934487
0.42800006 0.081297055 -0.060136665 10262934
0.48600003 -0.091430224 -0.050082274 13486526
0.48127273 -0.08342547 -0.051233206 13354939
0.47641176 -0.074055821 -0.051783349 13880256
0.48000002 -0.078823768 -0.051550828 13814976
0.45833337 -0.061368808 -0.052355189 13156532
0.4635556 -0.064848728 -0.051261391 12695979
0.47000003 -0.069165297 -0.052101064 13288118
0.44870004 -0.05069501 -0.054221381 12959409
0.45325932 -0.055628553 -0.053735871 12893618
0.44431996 -0.044746995 -0.054639071 12301479
0.4352808 -0.034417041 -0.054614116 11840930
0.44000003 -0.038999297 -0.054955754 12959411
0.42525005 -0.023854457 -0.05515711 11116951
0.43050003 -0.028079769 -0.05317869 11840929
0.41786489 -0.013748337 -0.057944208 10656141
0.42183566 -0.015829585 -0.053703826 11379608
0.40834489 -0.0020443918 -0.056055538 10853777
0.41390544 -0.0064229313 -0.054822251 10853006
0.42000002 -0.0096962294 -0.050655179 11379092
0.40651217 0.0048925518 -0.055212695 11183771
0.40703627 0.014847484 -0.056357056 10197645
0.41148576 0.01518998 -0.051373634 10066060
0.40743846 0.024592753 -0.056192815 11711142
0.41157576 0.025099639 -0.051286738 10395540
0.40900001 0.030771727 -0.057945784 13882564
0.41350958 0.035266969 -0.054917831 11711142
0.41601121 0.044560108 -0.054995097 12040105
0.42040005 0.047573868 -0.05070319 10263953
0.41861546 0.050567605 -0.05708446 13158587
0.42091107 0.055285282 -0.0544983 12303535
0.42331916 0.064926706 -0.054738816 13618882
0.4251976 0.075321436 -0.05473344 13882054
0.42800009 0.082635105 -0.054457426 13092283
0.43020597 0.087641113 -0.053218842 13092281
0.43388376 0.094943017 -0.052717481 13750210
0.43770584 0.10363626 -0.052036844 13289150
0.49816677 -0.10207811 -0.042393744 12827823
0.50024998 -0.10552966 -0.041888766 13157045
0.48726666 -0.091859311 -0.046484809 13288375
0.49258533 -0.095643811 -0.043305092 12696237
0.48401326 -0.085118048 -0.045153778 12301736
0.49000001 -0.089314982 -0.040170584 11314841
0.47682759 -0.072443575 -0.045860276 11446427
0.48086369 -0.076956697 -0.04438252 11578013
0.45900002 -0.060024846 -0.049448978 11380380
0.46579999 -0.063070819 -0.046518214 11051670
0.47255015 -0.066917099 -0.043545846 11446427
0.45697299 -0.053518169 -0.047518305 11380380
0.46355772 -0.055805352 -0.0432133 11446426
0.44657156 -0.043021549 -0.048067305 10985877
0.45417252 -0.045723885 -0.044191204 11446171
0.46000001 -0.049386937 -0.041480199 11709342
0.4377059 -0.032168675 -0.048357651 11445914
0.44423294 -0.035606716 -0.044628028 11511707
0.45025003 -0.039644439 -0.040864069 11972258
0.42866668 -0.02160413 -0.048522126 11511707
0.43400005 -0.025233403 -0.044908699 11577243
0.44087505 -0.029143911 -0.041431636 11577243
0.42524207 -0.015038089 -0.045411516 11840415
0.43000004 -0.019615982 -0.042549863 11840415
0.40686667 -0.0019016945 -0.044952255 12302252
0.4149231 -0.0064763939 -0.046642091 11576986
0.42071432 -0.0097127194 -0.046308283 11511193
0.40624461 0.004165289 -0.045296624 13157819
0.41150001 0.0096062217 -0.045451105 12170924
0.41618752 0.014448049 -0.046336155 11118492
0.42086497 0.017633034 -0.043262225 12039850
0.41616672 0.024656381 -0.048402824 10329489
0.42409334 0.025478831 -0.043717887 11447970
0.41795245 0.034289606 -0.049312353 10461590
0.42485878 0.034909528 -0.044852968 11185055
0.42999998 0.036145948 -0.04059466 11974570
0.41800001 0.040745035 -0.049924694 10263954
0.42467573 0.044671983 -0.046422966 10658710
0.43070003 0.045312736 -0.041391086 11579812
0.42533803 0.055040408 -0.046795361 10658710
0.43102497 0.055132113 -0.041891601 11119261
0.4258236 0.065022968 -0.046922501 10987419
0.43125647 0.065142073 -0.042030111 11053469
0.42715386 0.074036255 -0.047963042 11513506
0.43241936 0.07555607 -0.043393183 11053468
0.42900002 0.080984846 -0.049229909 11710116
0.43395877 0.085164495 -0.044692643 11447970
0.43659481 0.094382957 -0.045744326 11842472
0.44058824 0.097037733 -0.041276202 11974570
0.43889663 0.10469638 -0.048168752 11776169
0.44166678 0.10379098 -0.043370809 11974316
0.49877781 -0.10090513 -0.038035449 11511963
0.50088465 -0.1035219 -0.036100857 11775136
0.49644062 -0.094531819 -0.035214033 11577755
0.50050002 -0.098112941 -0.031218126 11840670
0.48736003 -0.082765758 -0.037532698 11578011
0.49221745 -0.086440928 -0.033859249 11775134
0.4841944 -0.075229794 -0.035151139 11972512
0.47529551 -0.063377321 -0.035364285 12104099
0.48083329 -0.068228118 -0.033320155 12104099
0.46715221 -0.053773876 -0.035869911 12103842
0.47111118 -0.057934906 -0.033634994 12235428
0.45649055 -0.043008365 -0.035361856 12169635
0.46215156 -0.048113007 -0.034770299 12235428
0.44717306 -0.033601191 -0.035730843 12038050
0.45166668 -0.037724782 -0.034008678 11972257
0.43650976 -0.022425795 -0.035300307 11643035
0.44206533 -0.027960625 -0.034707952 12103329
0.42535299 -0.013302877 -0.036153782 11840672
0.43164107 -0.017353233 -0.033881832 11511706
0.404127 -0.0032701856 -0.0345755 12565168
0.41571429 -0.0084200902 -0.035891358 11840673
0.42033339 -0.0097039258 -0.038396072 11972001
0.40322474 0.0035403452 -0.034960203 13290174
0.41200003 0.0097784493 -0.039563078 13092281
0.40900001 0.010664723 -0.030657709 13027260
0.41581997 0.013846128 -0.034777794 12763829
0.4217647 0.018841626 -0.036082424 12895158
0.4273963 0.024100445 -0.035282806 12829366
0.43017247 0.028232686 -0.03394505 12895415
0.43206987 0.03504144 -0.03490648 12500658
0.43497816 0.045061551 -0.035227254 12237742
0.43681091 0.054723542 -0.035582565 12040619
0.44000003 0.057825211 -0.031178819 12698548
0.43665615 0.064637944 -0.03703516 11579811
0.44097367 0.065670393 -0.031775072 13026998
0.43779489 0.074354127 -0.038252309 11711141
0.44209394 0.075323462 -0.033196088 12632242
0.43860009 0.083312191 -0.038899433 11777191
0.44376248 0.085173741 -0.034184676 12434863
0.4449473 0.095074385 -0.034830168 12566194
0.44538897 0.10307668 -0.035346385 12500401
0.49883333 -0.091703862 -0.02843819 12103842
0.50228858 -0.094903961 -0.024372818 12301477
0.49558726 -0.084745988 -0.025410494 12301220
0.5 -0.089577056 -0.022262245 12432807
0.48688102 -0.073091857 -0.026046023 12367014
0.49155167 -0.077418 -0.023788292 12367269
0.47763637 -0.061599627 -0.024925102 12498600
0.48219055 -0.066690385 -0.024985166 12498600
0.46803707 -0.051631365 -0.025464443 12498600
0.47255105 -0.056678742 -0.025079025 12564393
0.45820835 -0.041687224 -0.025851771 12564393
0.46324492 -0.046333387 -0.024651578 12498600
0.44730562 -0.032844339 -0.025154475 12695979
0.45305273 -0.037481293 -0.024972506 12630186
0.43636358 -0.022757323 -0.025326855 12366759
0.44200009 -0.0278695 -0.025301514 12498344
0.40799999 -0.010853067 -0.02245825 12169636
0.41616666 -0.013344779 -0.021292401 12300709
0.42593551 -0.015913637 -0.024150295 12432552
0.43085003 -0.017664349 -0.02710386 12300966
0.40202209 -0.0046858941 -0.024800904 12696754
0.40322736 0.0048725796 -0.024946596 13290431
0.40849999 0.011190267 -0.023208132 13027002
0.41367349 0.014788147 -0.025518242 12961209
0.421 0.019393763 -0.025946684 13290173
0.42644119 0.022928223 -0.026030997 13421759
0.43191114 0.027623659 -0.024440428 13356222
0.4358587 0.034951162 -0.025101064 13093050
0.43859246 0.043495204 -0.026656512 12698292
0.44059095 0.046840008 -0.023271734 12764340
0.43900001 0.051527545 -0.02982332 12500914
0.4422805 0.055213351 -0.025389846 12895670
0.44468209 0.064902209 -0.025231399 13290170
0.44698724 0.074919432 -0.025178304 13553087
0.45000002 0.078803964 -0.020387173 13355966
0.44865215 0.084490433 -0.027167004 13355965
0.45102131 0.085447162 -0.022370366 13421502
0.44881088 0.09484721 -0.027905088 13750466
0.45175433 0.09504813 -0.022670411 13290173
0.44887498 0.10187829 -0.027998067 13223868
0.45142859 0.10129692 -0.023038775 12237232
0.50334275 -0.092657842 -0.015573239 12498600
0.49770585 -0.083320193 -0.016057895 12498600
0.50142866 -0.087542646 -0.014147004 12564393
0.48760003 -0.07141412 -0.015145111 12498600
0.49286959 -0.076875411 -0.014770466 12630187
0.47875005 -0.060366094 -0.017392555 12498600
0.4830001 -0.065212108 -0.014684488 12564393
0.46880001 -0.050661109 -0.017140796 12630187
0.47392064 -0.055313136 -0.014863716 12564394
0.45885721 -0.041207958 -0.014291062 12432807
0.46477783 -0.046100765 -0.015252125 12564394
0.44652951 -0.032603584 -0.015824923 12301221
0.4539355 -0.037771709 -0.015372516 12301222
0.43701962 -0.023716908 -0.015098227 12432808
0.44174287 -0.028461413 -0.015294286 12367013
0.40554005 -0.012595722 -0.013729186 12169638
0.41328576 -0.013968088 -0.018818706 12300966
0.42614287 -0.017536649 -0.018971788 12498088
0.43000001 -0.019490151 -0.018642213 12432552
0.39900008 -0.0024606672 -0.011948586 13158332
0.40088645 -0.0056773582 -0.015792549 12697010
0.39899999 0.00071303506 -0.011693844 13356225
0.40205887 0.0049345316 -0.015189808 13290432
0.40831035 0.011636509 -0.014983353 12895674
0.41359997 0.015946053 -0.014714086 12961466
0.42071432 0.019834271 -0.015500481 13224381
0.4245556 0.022839544 -0.014209577 13356223
0.43214709 0.028171875 -0.015198604 13619138
0.43695447 0.03382878 -0.015273376 13422016
0.44060868 0.038442589 -0.01387536 13290430
0.44340014 0.044784095 -0.015063483 13027258
0.44703218 0.054738302 -0.015304564 13027001
0.44880635 0.064355128 -0.016846709 13421246
0.4503428 0.066113763 -0.012158448 13421503
0.44900009 0.072891496 -0.01841482 13552832
0.4512032 0.075738169 -0.013995298 13553089
0.45341963 0.085066594 -0.014877756 13553346
0.45408013 0.094514437 -0.014885936 13093052
0.45350003 0.1004724 -0.017005147 10789532
0.50450009 -0.091762103 -0.0062247203 12630443
0.49849999 -0.081383303 -0.0045434041 12695979
0.5021522 -0.086500235 -0.0047767712 12695979
0.48900002 -0.070816584 -0.0060320571 12695981
0.49332753 -0.0752161 -0.0044619748 12695979
0.48465231 -0.065249264 -0.0043786531 12564395
0.47401616 -0.054178886 -0.0048651574 12695981
0.48000002 -0.059400015 -0.0022690496 12564395
0.45883343 -0.041146144 -0.0048556998 12498602
0.46466675 -0.045892637 -0.0048604892 12564395
0.44564706 -0.03253977 -0.005000568 12893360
0.45426473 -0.037611268 -0.0058990829 12630188
0.42521742 -0.022157203 -0.002699563 12235686
0.43527591 -0.026251888 -0.0041031153 12564395
0.44185716 -0.029117424 -0.0071144057 12564395
0.40480599 -0.012921277 -0.0050579305 12104357
0.41434789 -0.017839612 -0.0046552471 12038307
0.42000002 -0.019528506 -0.0014938049 12103844
0.39783531 -0.0040803938 -0.0041099512 12960953
0.40020001 -0.008152795 -0.0066519524 12434094
0.39817789 0.0019114804 -0.0034601588 13356224
0.40145937 0.0064872643 -0.005556596 13224638
0.4066774 0.011620013 -0.004782334 12829880
0.41469133 0.016834809 -0.0052265259 12961209
0.42000002 0.019800596 -0.0098512396 13158076
0.41900009 0.02073434 -0.0029615781 13158844
0.42387241 0.023753392 -0.0063113463 13421759
0.43221739 0.02864882 -0.0041038785 13487809
0.43688461 0.033013284 -0.0049147946 13619139
0.44152632 0.037927613 -0.0042616753 13487552
0.44666678 0.045342546 -0.0049443305 13224381
0.4489716 0.053058464 -0.0070471386 13027001
0.45094559 0.056157064 -0.0032993606 13158331
0.45325267 0.064934492 -0.0048402864 13224124
0.4548043 0.074897617 -0.0048734904 13487039
0.45610902 0.084931247 -0.0048399605 13553089
0.45705974 0.093746811 -0.0051389425 13224383
0.50400001 -0.090686969 0.0023369896 12630188
0.49866673 -0.080972306 0.0040641217 12761772
0.50215393 -0.085566379 0.0051614814 12695980
0.49380001 -0.074947797 0.005128582 12695979
0.48464933 -0.064706311 0.004832197 12630188
0.49000001 -0.069814302 0.0068604685 12630187
0.47476199 -0.054371025 0.0054827426 12761774
0.48000002 -0.059400018 0.0039112372 12564395
0.4567619 -0.04165962 0.0049673058 12761517
0.46541944 -0.046497662 0.0052143331 12827567
0.47000003 -0.049360294 0.0065804496 12827567
0.43849999 -0.03091098 0.0063937125 12301223
0.44563162 -0.034592599 0.0053366823 12367015
0.4520556 -0.038187869 0.0039153607 12498602
0.42638096 -0.023535486 0.0068652355 12169893
0.43314707 -0.027454169 0.0046290164 12301223
0.39843759 -0.011064663 0.00750092 12236201
0.40142849 -0.013803752 0.0047805863 12104100
0.39644989 -0.0049797315 0.0050848131 12961208
0.39708447 0.0029742466 0.0051532793 13356224
0.40071049 0.0081052147 0.0049172668 13158845
0.40547061 0.012589825 0.0054538911 12764344
0.41403335 0.017942704 0.0056256563 12895673
0.41738459 0.021331856 0.0071929302 13027260
0.42309383 0.024381364 0.0048418003 13290174
0.43185717 0.028450152 0.0017125199 13618625
0.43759999 0.032414787 0.0018244956 13618881
0.44341311 0.037381291 0.0051524071 13618882
0.44805259 0.044037744 0.0045999535 13487039
0.45079163 0.048427567 0.0067538694 13487039
0.45351294 0.055197593 0.0051716003 13289660
0.45722625 0.065254807 0.0054526292 13223867
0.45863754 0.074995697 0.0046964101 13421246
0.46000001 0.077324562 0.0091326116 13158074
0.45893928 0.083885945 0.0028445425 13421503
0.46069551 0.085985854 0.0070146709 12961209
0.45900002 0.092199855 0.0012328905 13092540
0.46194121 0.092578135 0.006124727 12829880
0.4988462 -0.080866456 0.016057748 12761773
0.50102633 -0.084567398 0.014824299 12695979
0.49487302 -0.075152755 0.015040025 12630187
0.48457396 -0.064404905 0.01459605 12564394
0.49063638 -0.069696419 0.015640961 12695979
0.46900001 -0.050353203 0.019192729 12630188
0.47574556 -0.055380981 0.01457881 12564394
0.48000002 -0.059400018 0.0173955 12498601
0.45629418 -0.043182097 0.015498076 12630188
0.46380001 -0.047083903 0.014631371 12564394
0.47000003 -0.04936029 0.011531703 12630186
0.4366667 -0.031619772 0.015208139 12367273
0.44436166 -0.036163852 0.014766503 12432809
0.45012504 -0.039896723 0.015260085 12367016
0.40400004 -0.020946661 0.018087862 11841186
0.41549999 -0.020780068 0.01165414 11906979
0.42612502 -0.024849704 0.015737567 12235430
0.43193111 -0.028035615 0.013959604 12367272
0.39735091 -0.012081464 0.015124626 12104873
0.40165305 -0.017011356 0.015541275 11972517
0.41000003 -0.019063542 0.01053948 11906978
0.39475459 -0.0049563753 0.014762794 13027003
0.39673772 0.004039715 0.015012375 13224639
0.40011117 0.0090800952 0.013979011 12895674
0.40419999 0.012440885 0.015240039 12764088
0.41197568 0.017802307 0.014307802 12764344
0.41517648 0.021232976 0.015127778 12830137
0.42575005 0.025973188 0.014513622 13224639
0.43040004 0.028352192 0.013280123 13290174
0.4357059 0.032005828 0.015218701 13553089
0.44494733 0.038058829 0.014589217 13618625
0.44850007 0.042669512 0.015202689 13618625
0.4515 0.047212362 0.014804173 13618625
0.45610014 0.054666031 0.014982523 13487039
0.4588888 0.06299372 0.013139572 13421245
0.4609555 0.066193484 0.016599895 13487039
0.46223459 0.074816607 0.015137076 13355708
0.46390146 0.084862135 0.01518946 13224122
0.46450004 0.091382742 0.013848153 12566196
0.49899998 -0.080831349 0.021393882 12695979
0.50116223 -0.08329799 0.025504341 12432808
0.49573851 -0.074698187 0.025152309 12432808
0.47900003 -0.060397618 0.028572738 12498601
0.48428267 -0.064032666 0.024720915 12498600
0.49020004 -0.06892512 0.024765503 12367015
0.46812502 -0.050533749 0.024086375 12630187
0.4757334 -0.055762365 0.024874883 12630186
0.48000002 -0.059078965 0.02197052 12498600
0.45664287 -0.04330514 0.024033263 12695980
0.46226931 -0.047427669 0.024740431 12630187
0.42649999 -0.030981002 0.02793406 12367016
0.43418187 -0.033130441 0.025019074 12498602
0.44517252 -0.037128683 0.023946999 12498602
0.45080003 -0.039956551 0.022140658 12564394
0.40410003 -0.021061406 0.026183363 11906978
0.41600001 -0.024039241 0.026719898 11972515
0.42349026 -0.027082663 0.024718368 12301223
0.43000001 -0.029053207 0.02011334 12432809
0.39646509 -0.013574155 0.025298687 12104871
0.40088239 -0.018034656 0.023329007 11841443
0.3928054 -0.0050660125 0.024905397 13027003
0.39554077 0.0038714109 0.025161393 13158846
0.40005007 0.0090734418 0.024846587 12895674
0.40475392 0.013366252 0.024821255 12698295
0.41162503 0.018413393 0.024888091 12566709
0.41470006 0.021592569 0.024908358 12829881
0.42336366 0.025822783 0.028085442 13093053
0.43128577 0.028986728 0.026080534 13356225
0.43664876 0.033301335 0.025697064 13356224
0.44233331 0.038178019 0.025202936 13356224
0.44751218 0.042897601 0.025375273 13487553
0.45191184 0.047507379 0.02459182 13487040
0.45664206 0.054335039 0.024697898 13487039
0.46000001 0.059376758 0.027439371 13552832
0.45900002 0.060322206 0.020932557 13355453
0.46262041 0.065246888 0.024986884 13487039
0.46455577 0.075192034 0.024993908 13487039
0.46632421 0.08493796 0.02482287 13224380
0.46800002 0.091086097 0.020795202 11315872
0.50183338 -0.083095603 0.03471446 12433064
0.49649093 -0.07582099 0.03463649 12432808
0.47866669 -0.060355589 0.033033561 12498601
0.48398048 -0.065323815 0.03467809 12498600
0.49050003 -0.069885544 0.031554677 12432807
0.467875 -0.052493554 0.036260553 12498600
0.47341675 -0.056528158 0.034294896 12564394
0.43439999 -0.040536817 0.036190785 12432807
0.44900003 -0.045052595 0.037819944 12695979
0.45880002 -0.044532526 0.030912559 12564394
0.46211115 -0.048115473 0.032677952 12564393
0.42517647 -0.032068901 0.035342012 12169635
0.43220001 -0.037452068 0.035293989 12301222
0.39900002 -0.020420212 0.037811667 11775391
0.40228564 -0.021903938 0.035395168 11841185
0.41645002 -0.02614221 0.03336985 12038307
0.42111766 -0.02897553 0.034195103 12169636
0.39522853 -0.014952882 0.035189819 12039078
0.40000001 -0.019534983 0.031819783 11841185
0.39161122 -0.005373924 0.034816325 13027003
0.39495409 0.0042652651 0.035072949 13093053
0.40000004 0.0094936406 0.035097204 12698295
0.40380263 0.013451439 0.035305757 12500916
0.41276479 0.018949429 0.033851895 12435123
0.41699994 0.021571266 0.033931326 12632501
0.42535561 0.026812175 0.03450394 12895673
0.43000001 0.029331779 0.038736135 13158844
0.43369812 0.033313416 0.035686113 13158845
0.44100004 0.038722705 0.034155257 13290431
0.44628569 0.043323256 0.034810692 13356224
0.45195007 0.048129421 0.03526435 13290430
0.45699999 0.053082161 0.034698561 13355453
0.46132261 0.05815563 0.035482213 13487039
0.46468845 0.065200418 0.034652665 13487039
0.46714988 0.075076662 0.034927908 13487039
0.47000003 0.079372294 0.039588805 13092283
0.46763042 0.082993329 0.034826461 12895674
0.50346512 -0.083602786 0.044985455 12564394
0.49534091 -0.074142992 0.044750407 12367014
0.50085711 -0.079067171 0.045539115 12498600
0.47709095 -0.061478075 0.045262046 12630186
0.4846389 -0.066507146 0.04498126 12432807
0.49000001 -0.069814302 0.042994082 12301221
0.465 -0.052886218 0.045613315 12630187
0.47242427 -0.0580649 0.045020428 12695979
0.43812498 -0.041141346 0.046001706 12498601
0.4448182 -0.043501008 0.046554256 12498601
0.45605558 -0.047663018 0.045882221 12564394
0.46200001 -0.048881799 0.041255187 12432807
0.41659999 -0.031465523 0.04894077 12235430
0.42408335 -0.032878887 0.044658396 12169637
0.43421879 -0.038143035 0.045463663 12367016
0.3983334 -0.020963989 0.045894723 11774879
0.40265515 -0.024631048 0.045324057 11840672
0.41511115 -0.028586186 0.04261978 12038051
0.42000002 -0.029360779 0.040293366 12235430
0.38900003 -0.010801868 0.049157862 12698295
0.39343104 -0.015121243 0.044972192 12104873
0.38899997 -0.0055164909 0.047282986 13027259
0.39022854 -0.0052240621 0.042786919 13092795
0.38900003 0.00012600447 0.049157862 13290432
0.39381468 0.004335002 0.045040272 13027260
0.40000004 0.0094936406 0.043524876 12632502
0.40403453 0.014007544 0.045122989 12435123
0.41114289 0.019245917 0.046045311 12566709
0.41548723 0.022435479 0.045594595 12698295
0.42290002 0.025887016 0.043818813 12961466
0.43000004 0.029331777 0.043895155 13158845
0.43531993 0.034599792 0.045258533 13158845
0.44000003 0.039284348 0.040667027 13356223
0.44591436 0.04325147 0.046054713 13356223
0.4521035 0.047812875 0.044796117 13421760
0.45702222 0.05257909 0.045055669 13487296
0.46272218 0.058226977 0.044933546 13487295
0.46700007 0.064781636 0.044353731 13487294
0.47000006 0.068614006 0.04826878 13553086
0.46900004 0.071106128 0.041837685 13487039
0.47071242 0.0754942 0.045509405 13355709
0.47066674 0.082201548 0.044094071 12829624
0.49900001 -0.081376486 0.05908677 12761772
0.50256246 -0.08329685 0.054164272 12564651
0.49396002 -0.074251488 0.05497003 12432807
0.50083333 -0.079369962 0.052346747 12498600
0.46866667 -0.060557809 0.057396989 12630186
0.4744783 -0.062342834 0.055077698 12761516
0.48528001 -0.067695998 0.053740598 12630186
0.45822227 -0.0516994 0.055637281 12827566
0.46432006 -0.055879798 0.055170227 12827309
0.4707143 -0.058723789 0.051769089 12827565
0.42862499 -0.04112687 0.057174645 12432808
0.43303451 -0.042998075 0.055025529 12695979
0.44450006 -0.046345904 0.053753894 12827566
0.45485717 -0.048684623 0.052306231 12761517
0.41478786 -0.032091394 0.055618826 12235430
0.4245491 -0.036936726 0.055014074 12432808
0.43000001 -0.038616262 0.051822424 12761772
0.3966977 -0.021622339 0.055609841 11775136
0.40426412 -0.026470214 0.054299813 11774879
0.41140002 -0.029722681 0.051986206 12103844
0.38887879 -0.011847066 0.05612104 12698037
0.39211243 -0.016254349 0.054493088 12104873
0.38825029 -0.0053274771 0.054967444 13027259
0.38899997 0.00094559498 0.054986056 13158846
0.39288762 0.00594706 0.05481324 12895674
0.398 0.010766701 0.056971189 12303537
0.40492597 0.014771284 0.053886432 12369330
0.41080001 0.019046931 0.054733805 12566709
0.4152309 0.023007015 0.054845266 12698295
0.42090005 0.02797338 0.056980927 12895674
0.42640001 0.031082163 0.057669986 12895674
0.43624485 0.035353951 0.053832561 13027259
0.44022223 0.039075289 0.056662679 13093052
0.44556662 0.043704651 0.055246133 13224381
0.45165005 0.048731904 0.055013657 13355966
0.45581546 0.053951651 0.055054501 13487553
0.4619 0.058974486 0.053067107 13487809
0.46672732 0.063163154 0.054903541 13619139
0.47058344 0.067905135 0.055062063 13553346
0.47329426 0.074897677 0.054991011 13618881
0.47421429 0.081114374 0.053505469 12303022
0.4983871 -0.081849568 0.064786769 12630188
0.5 -0.085285194 0.061429143 12828080
0.48722225 -0.071574092 0.067397758 12103844
0.49439216 -0.07571394 0.064539112 12432808
0.46615389 -0.061550498 0.066792153 12564395
0.4742941 -0.065100037 0.066400424 12498602
0.48400003 -0.06878566 0.064980477 12432808
0.44657144 -0.051381148 0.066881455 12367016
0.45700005 -0.05523679 0.065766104 12498602
0.46233335 -0.057989314 0.063990034 12630188
0.428 -0.041250203 0.064641565 12301479
0.43356821 -0.045060851 0.065129839 12301479
0.44175005 -0.04871805 0.063569129 12498602
0.40755555 -0.030611277 0.067082986 12038308
0.41510254 -0.034209415 0.06593398 12235686
0.42313525 -0.03793687 0.063960098 12235686
0.39524636 -0.022851674 0.065483585 11774879
0.40340626 -0.028087519 0.064430743 11840672
0.38813096 -0.013668973 0.065302953 12631988
0.39092866 -0.018112661 0.06466426 12104874
0.38687629 -0.0053064059 0.065189034 12895674
0.38855329 0.0015395362 0.065453343 13027518
0.39239746 0.0065416144 0.064670421 12764346
0.39725006 0.011289845 0.06539683 12435123
0.40429571 0.01624649 0.064946093 12632502
0.41000003 0.019329155 0.060929894 12764088
0.40804163 0.021346867 0.067123823 12500917
0.41351429 0.02370593 0.063005283 12764088
0.4211818 0.028821139 0.061471228 12829881
0.42675003 0.031359218 0.064922325 12895673
0.43703574 0.036618471 0.065163001 13027259
0.4401429 0.039297104 0.063862823 13093051
0.43900001 0.040222771 0.069864243 13289662
0.44512305 0.044133179 0.06504558 13158845
0.45143753 0.049421735 0.064247727 13355967
0.45583642 0.054347679 0.06499438 13290174
0.46071428 0.059161279 0.064922221 13289917
0.46583721 0.06335859 0.064772792 13684675
0.47116002 0.068451807 0.064747296 13816004
0.47508717 0.075092867 0.064711839 12895417
0.47600001 0.080385558 0.060709197 10527385
0.49837038 -0.081724085 0.075293861 12564907
0.50010002 -0.084482893 0.073734 12368041
0.48684618 -0.071996614 0.073797874 11906464
0.49444827 -0.07699874 0.074339882 12564394
0.45900002 -0.060293477 0.075733446 12103844
0.46250001 -0.062559821 0.074960165 12038307
0.47612503 -0.067002848 0.073819481 12038307
0.48125002 -0.069413312 0.071800701 12038049
0.44733334 -0.052481577 0.074157111 12038051
0.45472234 -0.057017047 0.074050337 12104100
0.41607997 -0.041749597 0.075216845 12169637
0.43673334 -0.046349593 0.071822062 12104101
0.44200003 -0.049523871 0.073445864 11709086
0.40484375 -0.031858653 0.076235116 11972003
0.41395599 -0.036840815 0.074241221 12169637
0.38866672 -0.020801244 0.079140849 12301996
0.39420223 -0.024387471 0.075320624 11774624
0.40100002 -0.029158819 0.074418075 11840673
0.38658553 -0.014979618 0.075414665 12368302
0.39000002 -0.019655274 0.072565652 11840931
0.38573435 -0.0053902525 0.075224459 12237230
0.38788521 0.0021678556 0.075182475 12961468
0.3921915 0.007340509 0.073960505 12632760
0.39684212 0.011867148 0.075966053 12435124
0.40220332 0.016781149 0.074794672 12435380
0.40675002 0.021454528 0.074357651 12435124
0.41462502 0.026258819 0.076422982 12764088
0.42100006 0.029703429 0.077840909 12895674
0.42592317 0.033009909 0.077632979 12895674
0.43277779 0.036751106 0.074120671 12961467
0.43813336 0.041510988 0.074441448 13027260
0.44314286 0.044319559 0.074301794 13092796
0.45200005 0.049245052 0.072782911 13224383
0.45624292 0.054200388 0.075097501 12763831
0.46055555 0.059448466 0.075453617 13487811
0.46625003 0.063190155 0.075159766 13684933
0.47187999 0.067628667 0.075405359 14013898
0.47548336 0.073473744 0.074518815 13553348
0.49711117 -0.082078174 0.085640475 12696237
0.4867 -0.072421983 0.085937038 12103844
0.49314642 -0.076997191 0.084701635 12629931
0.46599999 -0.062038194 0.08577726 11774879
0.47571427 -0.066430978 0.085968621 11709086
0.4815 -0.069166847 0.086057201 11774879
0.4561429 -0.057219226 0.088755488 11906465
0.46000001 -0.059078749 0.087205559 11906465
0.41778123 -0.041982085 0.085008018 12037796
0.42080006 -0.044588219 0.084894255 11972003
0.39885715 -0.030683951 0.085216798 11708575
0.40346938 -0.033516902 0.085819267 11840161
0.41386202 -0.038524549 0.084765807 12103589
0.38686672 -0.022076745 0.08563143 10920087
0.39418918 -0.026892982 0.084698938 11577246
0.37864006 -0.012890508 0.08830332 2107167
0.38234878 -0.015599583 0.084202126 2829863
0.37867492 -0.0064145164 0.087965533 2107425
0.38188428 -0.0046367976 0.083727457 2699048
0.38572723 0.0030700781 0.085019499 12566966
0.39174366 0.0081948228 0.084632024 12435124
0.39603996 0.012037839 0.08462204 12238001
0.4024615 0.016999321 0.084971227 12171952
0.40746158 0.021535736 0.084777661 12040624
0.41317245 0.025956314 0.083357997 12238003
0.42025 0.029158315 0.084591269 12369589
0.42589474 0.033309687 0.082365505 12501174
0.4322927 0.03744204 0.086074255 11974830
0.4376452 0.042646717 0.085941441 12040366
0.44362503 0.04630119 0.083995812 12040623
0.45200002 0.049879 0.082512967 12237743
0.45697883 0.054259803 0.084150568 12303280
0.46079999 0.058779944 0.085577711 13027003
0.46614289 0.063424081 0.085121714 12961210
0.47137043 0.068367183 0.084456973 13092540
0.47458556 0.073021211 0.084496193 12105645
0.49666664 -0.082703061 0.095513195 12893361
0.48581254 -0.073061407 0.095439501 12432809
0.49306664 -0.078104176 0.094742842 12696237
0.45900002 -0.060024846 0.095074937 11511707
0.46528575 -0.061471231 0.092411079 11774879
0.47530439 -0.065838113 0.094944485 11643293
0.48053849 -0.069072574 0.096030459 12038051
0.45313895 -0.056346338 0.094034813 11577501
0.41606668 -0.042044446 0.093872882 11643293
0.42100003 -0.045199785 0.093610011 11445914
0.39677775 -0.031144487 0.093433052 11643294
0.40445945 -0.034884349 0.093844399 11774624
0.41204548 -0.038670819 0.09530285 11709086
0.38553736 -0.023109753 0.094959505 10590864
0.39185715 -0.027898958 0.094532102 11511708
0.37662694 -0.014374667 0.095376477 2107167
0.38075006 -0.018873882 0.092290752 1975067
0.37632361 -0.0052876365 0.09519095 2237727
0.38000003 -0.00076649763 0.091610283 2500896
0.37833333 0.00012254933 0.097407497 12171689
0.38520434 0.0041370024 0.094833627 12040621
0.39080951 0.0087098777 0.09399619 12040622
0.39521569 0.012144096 0.094839238 11777193
0.40273333 0.017252712 0.094867378 11711399
0.40753126 0.021212295 0.095530748 11842985
0.41371053 0.025550561 0.096266702 12040621
0.42225 0.029422032 0.094867952 11909036
0.42788237 0.032665666 0.0939015 12040622
0.43206254 0.036791373 0.094403215 12238001
0.43813336 0.041306686 0.09502773 12500916
0.44522223 0.046199005 0.095661245 12698552
0.45033336 0.049695078 0.098024629 12829881
0.45565385 0.054353237 0.095933862 12961467
0.46111763 0.058887299 0.094083831 13224639
0.46586046 0.063131794 0.095111348 13290432
0.47121057 0.067908965 0.093628198 13290433
0.47474441 0.07293769 0.094368756 11250850
0.4945758 -0.082432628 0.10505186 12301481
0.48519054 -0.07351736 0.10498568 12301223
0.49193338 -0.07861279 0.10469558 12433065
0.4653846 -0.062206589 0.10775477 11906465
0.47581255 -0.066611268 0.10543992 11972258
0.48049998 -0.069104053 0.10402719 12300966
0.45691672 -0.057617392 0.10569799 11840672
0.46000001 -0.059078749 0.10712762 11972258
0.40675002 -0.040811483 0.10805121 11774879
0.41654542 -0.041886345 0.10157244 11774879
0.39560002 -0.031239081 0.10490274 11577500
0.40403453 -0.036423042 0.10602713 11774879
0.41225001 -0.038591877 0.10119413 11840672
0.37800005 -0.020525647 0.10616839 5196868
0.38551283 -0.024578478 0.10517712 11248534
0.39141667 -0.028585607 0.10382774 11511707
0.36899999 -0.012478076 0.10933053 1910046
0.3725076 -0.014861096 0.10466602 1976096
0.36899999 -0.0069482196 0.10945488 1712153
0.3714644 -0.0051019527 0.1046299 2370597
0.37438467 0.00039174786 0.1038096 12830394
0.38806003 0.006360814 0.10480144 12040364
0.39050004 0.0091920821 0.10518831 12171950
0.3955676 0.012400065 0.10579415 12237744
0.40253702 0.017517043 0.10470134 12171951
0.40619996 0.021679509 0.10558858 12303537
0.41510001 0.027010987 0.10516788 12435123
0.42137504 0.029483786 0.10541048 12435380
0.42630005 0.032326501 0.1058169 12698295
0.43228301 0.0369596 0.10552854 12698295
0.43746668 0.040969681 0.10504545 12632502
0.44507551 0.045843441 0.10493917 12698552
0.45000002 0.049658295 0.10111166 12829881
0.45481089 0.054949697 0.10502229 12829881
0.45900002 0.060322206 0.10582022 12632503
0.46511766 0.063183673 0.10367976 12829882
0.47230771 0.067772575 0.10391665 12105904
0.47493562 0.071813665 0.10520902 10395541
0.49319234 -0.08208435 0.11409679 12499119
0.479 -0.070489742 0.11435583 12169637
0.4848479 -0.074347228 0.11565065 12301224
0.49123535 -0.078446895 0.11375748 12367017
0.45900002 -0.060383022 0.11531186 11774880
0.46483338 -0.062668554 0.1133856 11840672
0.4744783 -0.067702956 0.11443715 12038051
0.45600003 -0.057502106 0.11343506 11774879
0.40620002 -0.040948372 0.1134309 11906208
0.38899997 -0.031084662 0.11596691 11445657
0.39323264 -0.033275902 0.1151311 11577243
0.40473533 -0.037969794 0.11374144 11840672
0.37711111 -0.021230968 0.1146175 7894639
0.38486317 -0.026368147 0.11495686 11248792
0.36789012 -0.01340316 0.1151961 1646874
0.37162858 -0.018201031 0.11429518 2041633
0.36780471 -0.0051613934 0.11506872 2370597
0.37040001 -0.0012668396 0.11097328 2503722
0.36733332 0.00026217845 0.11678773 12764087
0.377 0.0010046811 0.11030345 11977913
0.38687992 0.0065198233 0.11465456 12172208
0.39000002 0.0092562987 0.11091153 12237744
0.389 0.01014322 0.1165464 12106159
0.39436364 0.013091557 0.1150513 12171952
0.40154758 0.01819565 0.11457404 12040365
0.40650004 0.021817191 0.11410476 12303537
0.41419616 0.026666028 0.11536998 12303794
0.42640004 0.033832509 0.11656252 12435124
0.43140006 0.037510987 0.11389814 12435380
0.43652385 0.042091209 0.11414571 12435123
0.44550005 0.047540195 0.11537552 12435123
0.44900003 0.051439952 0.11738952 12106158
0.45269242 0.054012679 0.11361226 12238002
0.46100003 0.059505839 0.11275772 12303796
0.46460003 0.061495937 0.11266205 11974831
0.47453341 0.067034565 0.11540107 10658713
0.4765 0.071596242 0.11503153 10330003
0.48833337 -0.081008822 0.12553807 12235690
0.47700003 -0.070195422 0.12672001 12169638
0.48533866 -0.07597971 0.12515578 12301225
0.46669233 -0.063975252 0.12512165 11906210
0.47333336 -0.067665346 0.1245871 12037796
0.40800002 -0.040938661 0.12987998 11971744
0.41100001 -0.042442966 0.12891008 11840158
0.38850001 -0.031251736 0.12649849 11445657
0.39330912 -0.034232914 0.12490042 11708572
0.4041667 -0.03929456 0.12565033 11840414
0.37627029 -0.02214101 0.12529978 8552825
0.38385549 -0.026898149 0.12495717 11248535
0.36660162 -0.013652888 0.12534626 1778458
0.37107691 -0.019059312 0.12551033 2040864
0.36553022 -0.0051404838 0.12518337 2237981
0.36691669 0.00069181534 0.12513952 12435121
0.38868576 0.0077437093 0.12425364 11777450
0.39000002 0.0092562987 0.12871498 11580071
0.38899997 0.010557154 0.12225871 11711657
0.3919616 0.012309081 0.12551731 11514279
0.403 0.018060395 0.12742513 11579814
0.40763158 0.021781402 0.12478717 11777194
0.41542861 0.027067777 0.12348571 11974573
0.42050004 0.029176537 0.12893717 11777452
0.42440003 0.033574492 0.12370399 11974574
0.43179998 0.038454022 0.12467214 11843245
0.43738464 0.041730583 0.1256803 11908781
0.44420001 0.046252422 0.1246493 11777195
0.45100003 0.049768649 0.12984294 11645609
0.44800004 0.051537484 0.1212882 11250850
0.47675002 0.065311693 0.12135089 10593177
0.48000002 0.069824174 0.12189855 10330003
0.7931667 -0.13900438 0.13457936 12039852
0.48699999 -0.080787636 0.13222493 11644325
0.46900001 -0.070848033 0.13850193 12103844
0.47344124 -0.072737135 0.13547361 12235430
0.48342857 -0.076683477 0.13254519 12235431
0.45900002 -0.060203936 0.13787694 11840672
0.46563041 -0.065050691 0.136059 11972258
0.47127274 -0.068651773 0.13226603 12169637
0.45662501 -0.05771254 0.13720283 11972001
0.46100003 -0.059207186 0.13272193 11906465
0.40807143 -0.041833747 0.13378963 11840672
0.41100001 -0.043164 0.13203534 11840672
0.38775 -0.031419035 0.13421647 11314328
0.39387503 -0.034570109 0.13533264 11314328
0.40266666 -0.038729813 0.13598184 11577500
0.37678435 -0.023527188 0.13543397 9539205
0.38249999 -0.027561594 0.13414057 11182999
0.36562866 -0.015135975 0.13338231 1646616
0.37060863 -0.016325604 0.13849884 1119760
0.36431354 -0.0040946007 0.13376555 2632226
0.37055558 -0.0074947816 0.13877988 594186
0.36639997 0.0021591152 0.1329754 11250337
0.37 0.0044507328 0.13077596 11777195
0.39050001 0.0088116676 0.131166 11514021
0.39528003 0.013388969 0.1329001 11316643
0.40177414 0.017852023 0.13365792 11053471
0.40722731 0.021583507 0.13487394 10922141
0.41266671 0.025479993 0.13520196 10987934
0.42087504 0.029325314 0.13274626 11448486
0.42357141 0.031869706 0.13228652 11514280
0.43900001 0.041764326 0.1320405 11645608
0.4453637 0.044512723 0.13504557 10987680
0.45250002 0.048479814 0.1346478 11185058
0.4579286 0.05168334 0.13567026 10330005
0.46221051 0.055224508 0.13636966 10395797
0.78900003 -0.17244484 0.1495765 15459296
0.78857148 -0.16444004 0.14817591 16250607
0.78850007 -0.15479957 0.14855815 15790568
0.78858328 -0.14466196 0.14826611 15592932
0.79147613 -0.14497325 0.14360221 13091511
0.78833342 -0.13877223 0.14883442 15658470
0.79100007 -0.13862467 0.14254712 12236202
0.46819231 -0.071766213 0.14536777 12038051
0.47000003 -0.073383041 0.14228147 12103844
0.45900008 -0.061703794 0.14611498 11906465
0.46409521 -0.066389978 0.14500405 11972258
0.45694742 -0.058858331 0.14417152 11840672
0.38855556 -0.031306989 0.14248803 9669762
0.39489999 -0.034637962 0.14216003 10458764
0.40200001 -0.038590889 0.141278 11116950
0.36100003 -0.021179777 0.14922968 2632489
0.37486669 -0.022415398 0.1437645 7763052
0.38216671 -0.027464716 0.14185819 10196874
0.36100003 -0.019320538 0.14956774 1316881
0.37326315 -0.014825426 0.14491978 988173
0.36687759 -0.00298645 0.14670517 1643020
0.37212303 -0.0073210173 0.14469509 462343
0.36500001 0.00033184825 0.14887519 6964028
0.45700002 0.050788935 0.14048415 10000783
0.46133336 0.053430226 0.14073677 10527384
0.78772736 -0.17418143 0.15553571 14999257
0.7906 -0.17890248 0.15246944 14209999
0.78326678 -0.16477752 0.15489952 15724007
0.77900004 -0.15627788 0.15801476 15921902
0.78322244 -0.15464495 0.15370302 15921900
0.78400016 -0.14523809 0.15529408 15856107
0.78433341 -0.13837439 0.1551097 15987948
0.46640006 -0.071912482 0.15152849 11511452
0.45900008 -0.061036166 0.15439519 11380380
0.46242851 -0.06602031 0.15460195 11643550
0.45827276 -0.057979669 0.15193056 11643295
0.3602632 -0.021751901 0.15455982 2238241
0.35900009 -0.013704043 0.15891759 989201
0.36144954 -0.01464692 0.15454261 1186321
0.37168971 -0.013834087 0.15099391 725514
0.35900003 -0.0099688191 0.15966463 923408
0.36298692 -0.0052810051 0.15464059 1184782
0.37050003 -0.0094208065 0.15046743 462342
0.36383334 0.00018905848 0.15464254 4271660
0.78900003 -0.18075661 0.16712359 12828602
0.79266673 -0.18600929 0.16441934 12302001
0.78617865 -0.17485759 0.16468272 13947338
0.77893353 -0.16216065 0.16638903 14079183
0.78106248 -0.16625497 0.16429922 14144975
0.77896547 -0.15487693 0.16515511 14276561
0.78000003 -0.15130484 0.16065225 15724775
0.77900016 -0.14598183 0.16728498 13421507
0.78024995 -0.14395536 0.16344285 14671832
0.77900004 -0.1383453 0.16682908 13816008
0.78075004 -0.13728541 0.16309127 14276559
0.34473345 -0.022132065 0.16797452 1383702
0.35574999 -0.02118803 0.16688116 528394
0.36112198 -0.021843318 0.16382353 1054736
0.34567016 -0.014935443 0.16796598 923152
0.35386962 -0.015454943 0.16612576 791822
0.36055562 -0.018640876 0.16270137 923406
0.34575856 -0.0069943224 0.16816851 922896
0.35421053 -0.0069014188 0.16643097 659721
0.3624 -0.0024263619 0.16032837 989715
0.78850007 -0.18156561 0.17532422 12762550
0.79136848 -0.18666434 0.17479075 11578022
0.78422731 -0.17491148 0.17487365 14342352
0.77840006 -0.16284016 0.17490107 14408148
0.78100008 -0.16895197 0.17498669 14539988
0.77823997 -0.15460701 0.17486456 14605783
0.77875012 -0.14718768 0.17475109 14342867
0.78050005 -0.1421351 0.17563477 14473939
0.78187507 -0.13816908 0.17591181 14013388
0.33690742 -0.022371061 0.17788555 1252116
0.34123892 -0.02302051 0.17287429 1580825
0.3370086 -0.01526578 0.17772582 1252116
0.34114853 -0.014943554 0.17261522 1317654
0.33765605 -0.0049558594 0.17745976 1120275
0.34137717 -0.0073167044 0.17263696 1120533
0.33700001 0.00010916068 0.17867586 2566446
0.78860009 -0.18158852 0.18457754 13091260
0.79086667 -0.18674012 0.18510808 11906731
0.78553855 -0.17480595 0.18541655 14276304
0.77900004 -0.16159688 0.18233013 14539476
0.78105253 -0.16536923 0.1855047 14342353
0.77883345 -0.1546239 0.1828994 14671062
0.78025007 -0.15569037 0.18787417 14671061
0.77887511 -0.14766756 0.18207322 14539477
0.7816363 -0.14413431 0.18552561 14671063
0.78300005 -0.13768013 0.1855588 14210768
0.33179748 -0.022360638 0.18330094 1317652
0.33245024 -0.014593586 0.18367308 1252115
0.33385718 -0.0056683426 0.18374233 1120530
0.78858346 -0.1815847 0.19472615 13288894
0.79094124 -0.18664873 0.19503622 11577764
0.78484011 -0.17451745 0.19493952 14473938
0.78090632 -0.16490726 0.19505771 14342352
0.78203225 -0.15488632 0.19520716 14539731
0.78317869 -0.1451751 0.19411495 14671318
0.7840476 -0.13609317 0.19505042 14473939
0.78850007 -0.18156561 0.2048585 13223358
0.79106253 -0.18690212 0.20517659 10920089
0.78477281 -0.17536654 0.20522632 14473682
0.78113347 -0.16524011 0.20477423 14802903
0.78354847 -0.15459272 0.20522983 14802903
0.78553319 -0.14502178 0.20500843 14802903
0.78566647 -0.13585065 0.20504376 14802904
0.78858346 -0.18158472 0.21503411 13552837
0.79106671 -0.18678734 0.21478513 10262675
0.78504014 -0.17441478 0.21505994 14145743
0.78234375 -0.16492207 0.21539219 14671830
0.78430307 -0.1551415 0.21528386 14868953
0.78559995 -0.14503369 0.21513893 14802903
0.78583992 -0.13587986 0.21520416 15066075
0.78880006 -0.18163434 0.22524826 14012620
0.79176474 -0.1868435 0.2248956 9999247
0.78519243 -0.17458731 0.22541901 14013901
0.78199983 -0.16471879 0.22499701 14145743
0.78263658 -0.15431285 0.22482003 14605525
0.78423345 -0.14478156 0.22486109 14802647
0.7839669 -0.13555695 0.22478366 14868697
0.78266668 -0.12983529 0.22593923 15066846
0.78845459 -0.18147124 0.2348824 14342098
0.79156256 -0.18702094 0.23495433 9867917
0.78615385 -0.17472853 0.23532507 14343122
0.78363997 -0.16485359 0.23478584 14606294
0.78326672 -0.15468821 0.23467369 14606038
0.78404015 -0.14474665 0.23490328 14605781
0.78292334 -0.13523634 0.23477887 14803673
0.78200006 -0.1297247 0.23337589 15066845
0.78858346 -0.18189253 0.24534015 13749447
0.79093754 -0.18675674 0.24472211 9736332
0.78667998 -0.17470255 0.24490125 14408659
0.78571999 -0.1652901 0.24460351 14211535
0.7858333 -0.15519592 0.24463907 14014155
0.78560007 -0.14503528 0.24456653 13948107
0.78374094 -0.13545193 0.24473581 13816522
0.78187507 -0.12856096 0.24615142 13882315
0.78600001 0.15849805 0.24376982 10132366
0.78880006 -0.18163434 0.25479519 13947083
0.79056251 -0.18678363 0.2550157 9802124
0.78707999 -0.17479113 0.25424013 14408915
0.78666681 -0.16456743 0.25410664 14868953
0.78720009 -0.15454434 0.2542786 14868696
0.78703463 -0.14517289 0.25498778 14868696
0.7854138 -0.13562077 0.2553499 14605782
0.77900004 -0.12193242 0.2570999 14606040
0.78250015 -0.12732233 0.25563779 14606039
0.78786671 0.15617076 0.25535437 10132366
0.78883332 0.16260901 0.25372863 10263952
0.79084617 0.16688228 0.25645345 10198160
0.78900003 -0.18106444 0.26409444 13815497
0.79076195 -0.18556984 0.2652131 10591639
0.78843325 -0.17509092 0.26482782 14342866
0.78780574 -0.16480714 0.26461574 14803160
0.78733343 -0.154571 0.26445562 14803160
0.78673071 -0.14538576 0.26496232 14803416
0.78558618 -0.13507865 0.26491705 14671574
0.78372222 -0.12583129 0.26457274 14474453
0.78899997 0.14631565 0.26778856 10001039
0.78870583 0.15459095 0.26280203 10132368
0.79008335 0.15577675 0.26800209 10066832
0.78900003 0.16095006 0.2604003 10132368
0.78900003 -0.18075661 0.27517679 13618630
0.79140913 -0.1859429 0.27509031 10131345
0.78748143 -0.17467608 0.27505505 14145743
0.78553331 -0.16525193 0.27488485 14540501
0.78436112 -0.15490554 0.27447289 14540501
0.78473336 -0.14487387 0.27460602 14606294
0.7851665 -0.13484454 0.27475965 14540244
0.78576916 -0.12497239 0.27426437 14343122
0.78705889 -0.11582126 0.27623558 14408915
0.78800005 -0.10796845 0.27790257 14540500
0.77400005 0.11983927 0.27900505 9935246
0.77700001 0.12485432 0.27856871 9869453
0.78066665 0.12757303 0.27653417 9803660
0.78606677 0.13508539 0.27684948 9935246
0.78879982 0.14436463 0.27495888 10001039
0.79000002 0.14820823 0.27552554 10066834
0.79103345 0.15513346 0.27551582 10001040
0.78900003 -0.18075661 0.28256503 13552326
0.79227275 -0.18572649 0.28542274 10328725
0.78775007 -0.17513759 0.28521365 14079693
0.78523993 -0.16519035 0.28489566 14408915
0.78453338 -0.15493931 0.28464034 14474708
0.78540003 -0.14499667 0.28495446 14540501
0.78649992 -0.13507271 0.28535405 14408915
0.78765523 -0.12500362 0.28500977 14408915
0.78797066 -0.11530672 0.28496355 14343122
0.78867847 -0.10518122 0.2855503 14408915
0.78826094 -0.094980739 0.28703466 14343123
0.78785717 -0.085377894 0.28900626 14145743
0.787 -0.077125087 0.28921834 13882571
0.77440006 0.11748419 0.28507292 9935246
0.77683342 0.12411983 0.28497761 9869453
0.78033334 0.12812696 0.28494313 9935246
0.78553575 0.13457102 0.28480512 9869453
0.78879994 0.14232066 0.28409424 9935248
0.79054546 0.14696512 0.28581151 9935247
0.79226673 0.15512748 0.28528255 9935247
0.79267871 -0.18525152 0.29521349 10262932
0.78792316 -0.17483714 0.29530305 14145744
0.78489995 -0.16512007 0.29487541 14474708
0.7843613 -0.15490425 0.29467249 14474708
0.78617853 -0.14533666 0.2950286 14606294
0.78756672 -0.13525668 0.29495838 14540501
0.78800005 -0.12518586 0.29511994 14408916
0.78820002 -0.11506823 0.29519543 14343122
0.7889998 -0.10502703 0.29549447 14145743
0.78869987 -0.094833396 0.2953825 14079950
0.78796005 -0.084597856 0.29510516 13948364
0.7876668 -0.075500205 0.29514998 13685192
0.78849995 -0.065799423 0.29768085 13553606
0.78900003 -0.05700339 0.29918861 13685192
0.77725005 0.11488498 0.29177749 9869453
0.78320009 0.11649765 0.29754221 9935246
0.77900004 0.12152526 0.2917493 9935246
0.78418756 0.12554924 0.29553145 9869453
0.78784204 0.13431273 0.29467359 9869453
0.7902 0.13825664 0.29816413 9935246
0.79212499 0.14505686 0.29496697 9869453
0.79207146 -0.18537179 0.3053183 9999503
0.78777784 -0.17487898 0.30500853 13948110
0.78412002 -0.16495608 0.30468202 14540501
0.78360039 -0.15475355 0.30448055 14474708
0.78574067 -0.14485435 0.30490085 14474708
0.78761125 -0.13526356 0.30511469 14408915
0.78800005 -0.12518588 0.30526593 14408915
0.78857565 -0.11537412 0.30506888 14343122
0.78900009 -0.10637035 0.30355439 14343122
0.79000002 -0.10410333 0.30604067 14277073
0.7889998 -0.093703739 0.30432826 14079693
0.79000002 -0.09881933 0.30643702 14276816
0.78826928 -0.084489696 0.30466121 13882314
0.78800005 -0.075378366 0.30526599 13750472
0.78864503 -0.065433212 0.30477157 13882571
0.7889598 -0.055448867 0.30508351 13685192
0.78850007 -0.049583692 0.30730495 13356227
0.78833342 0.1165224 0.30355033 9803659
0.79000002 0.11676836 0.30789009 9803660
0.78841668 0.12514849 0.30235174 9803660
0.79039997 0.12570977 0.30749133 9869453
0.78900003 0.13139705 0.30103567 9869453
0.7913751 0.13565429 0.30580342 9869454
0.79243475 -0.18501566 0.31501028 9736075
0.78843474 -0.17477044 0.31470308 13750473
0.79000002 -0.17867397 0.31852418 13355202
0.78642315 -0.16522695 0.31485337 14408915
0.78553319 -0.15495317 0.31454799 14672087
0.78583997 -0.14507847 0.31454796 14606294
0.7863999 -0.1350562 0.31477043 14408916
0.78764015 -0.12512755 0.31526688 14211537
0.78827274 -0.11482706 0.31501675 14277073
0.78882128 -0.10520082 0.3151463 14343122
0.79000002 -0.10238604 0.31066424 14408145
0.78885275 -0.09463378 0.31510082 14408658
0.79000002 -0.098687232 0.31066424 14408145
0.78831035 -0.084763162 0.31477126 14144973
0.78800005 -0.075378366 0.31541187 13618885
0.78822857 -0.065118939 0.31471154 13684936
0.78824008 -0.055472419 0.31469488 13684935
0.79086673 0.11689629 0.31470856 9737867
0.79122239 0.12477011 0.31505492 9803660
0.79185718 0.13498534 0.31490204 9803660
0.7917999 0.14483812 0.31507778 9869710
0.79156673 0.15498857 0.31498724 9803918
0.78860003 -0.17328127 0.32488301 13553606
0.79030001 -0.17827961 0.32558376 13354946
0.78689653 -0.16541299 0.32494241 14079694
0.78554267 -0.15516579 0.32467365 14408916
0.78596658 -0.14510225 0.32471788 14672088
0.78599977 -0.13498834 0.32473156 14540246
0.78686672 -0.12500434 0.32508844 14342867
0.78774303 -0.11513342 0.32531881 14079951
0.78800005 -0.10489392 0.32463554 14145487
0.78793555 -0.094592087 0.32478687 14211536
0.78686672 -0.084481075 0.32508704 14343122
0.78716677 -0.075297624 0.32521126 14079694
0.78738904 -0.065182187 0.32530284 13619142
0.78683347 -0.058688849 0.32507178 13684679
0.79133344 0.11696543 0.32508409 9803660
0.79135299 0.12503217 0.32487413 9803660
0.79143757 0.13516112 0.32535863 9803660
0.79110026 0.14471032 0.32498702 9803660
0.79180557 0.15503706 0.32527572 9803917
0.7884782 -0.17405744 0.3351855 13421764
0.79000002 -0.17882806 0.33409002 13157568
0.78653842 -0.16560592 0.3348681 13750728
0.78563321 -0.15515672 0.33469689 13947852
0.78566653 -0.14504702 0.33562794 14277075
0.78547215 -0.13489754 0.33554485 14474453
0.78569984 -0.12482033 0.33564195 14211537
0.78583777 -0.11459951 0.33552593 14211281
0.7870968 -0.10489126 0.33460292 14079951
0.78742427 -0.09509857 0.33445156 14145743
0.78549987 -0.084518664 0.33537349 14079950
0.7853334 -0.075122952 0.33548561 14079951
0.78455889 -0.065219246 0.33515376 13750986
0.79171997 0.1448217 0.33543664 9672587
0.79036695 0.15475397 0.33486208 9738124
0.78840005 -0.17416041 0.34510294 13224130
0.79000002 -0.17913629 0.3448782 12828859
0.78617865 -0.16519137 0.34472129 13553353
0.78527766 -0.15508638 0.34465376 13619146
0.7844401 -0.14482105 0.34520423 13618632
0.78456664 -0.13474068 0.34526131 14277330
0.78499991 -0.12470926 0.34545201 14211536
0.78485185 -0.1150911 0.34518245 14079950
0.78490633 -0.10488255 0.34489137 14079950
0.78546643 -0.095362574 0.34473601 14079950
0.78503019 -0.085453562 0.34496212 14145743
0.78447998 -0.075041927 0.34522116 14211279
0.78322607 -0.064868137 0.3450841 14145486
0.78861111 -0.17389926 0.35411829 13158595
0.79014289 -0.17864028 0.35590741 12829375
0.78725004 -0.16561389 0.35539445 13355975
0.7853449 -0.15494186 0.35467055 13487561
0.78484011 -0.14489423 0.35457054 13158081
0.78570014 -0.13493647 0.35495904 13684938
0.78567994 -0.12481767 0.35494971 13816780
0.78499997 -0.11511341 0.35484576 13882316
0.78371459 -0.10491361 0.35386512 13816522
0.78376013 -0.09515591 0.35408077 13948109
0.78294462 -0.084977128 0.35462743 13882573
0.78203338 -0.074808151 0.35421339 13948366
0.78211743 -0.064853258 0.35452232 14014159
0.78275001 -0.057926022 0.35545614 13882572
0.78900003 -0.17221394 0.36314318 12500923
0.79045004 -0.17646398 0.36561486 12040374
0.78836668 -0.16492513 0.36539069 12303802
0.78812498 -0.15487966 0.36512575 12698302
0.79000002 -0.15139525 0.36984515 10921638
0.78822225 -0.14551859 0.36399141 12632509
0.79000002 -0.14505444 0.36878833 11580079
0.78846157 -0.13505544 0.36287826 13027267
0.79033333 -0.13521923 0.36732906 11974322
0.78853327 -0.12527105 0.3636215 13290439
0.79000002 -0.12488713 0.36830398 12237751
0.78804159 -0.1150468 0.3643187 13093059
0.79000002 -0.11533186 0.36984515 11316649
0.78759092 -0.10458813 0.36453035 12961216
0.79000002 -0.10700954 0.36984515 11250856
0.78696287 -0.095135592 0.36494806 12500922
0.78536361 -0.084822558 0.36475295 12237751
0.78390002 -0.074986517 0.36424077 12764095
0.78388017 -0.064854853 0.36448804 12303802
0.78350002 -0.057523321 0.36313453 13093318
0.79104012 -0.1754483 0.37514669 9474700
0.78900009 -0.16463679 0.37206367 8882822
0.79033333 -0.16533484 0.37709439 9408905
0.78900003 -0.15766834 0.37122408 8751239
0.79109526 -0.15468904 0.37565109 9343112
0.78900003 -0.092097588 0.37122408 8618877
0.79130006 -0.09533108 0.37536514 9079682
0.78858346 -0.084203623 0.37241316 8882304
0.79039997 -0.084859639 0.3772493 9079939
0.78823537 -0.075075328 0.37314522 8882304
0.79011112 -0.075580828 0.37852904 9079939
0.78825915 -0.06528797 0.37470508 8882561
0.78820008 -0.058422305 0.37490886 8948611
0.79209667 -0.17512602 0.3848857 10001041
0.79216671 -0.16494612 0.38554323 10001041
0.79221445 -0.074589573 0.38545582 9409161
0.79141682 -0.06474328 0.38541079 9212038
0.78900003 -0.058850452 0.3804594 9343111
0.79000002 -0.05892504 0.38279101 9343111
