# .PCD v0.7 - Point Cloud Data file format
VERSION 0.7
FIELDS x y z rgb
SIZE 4 4 4 4
TYPE F F F U
COUNT 1 1 1 1
WIDTH 675
HEIGHT 1
VIEWPOINT 0 0 0 1 0 0 0
POINTS 675
DATA ascii
0.36891666 0.026389427 -0.050755482 14408142
0.36881819 0.034143511 -0.050722245 16118762
0.36758336 0.045292914 -0.050787225 16052970
0.36508337 0.055236947 -0.050441816 16579314
0.35818183 -0.032127671 -0.040569842 15789799
0.35900009 -0.026567224 -0.0412811 15723748
0.35999998 -0.021998743 -0.042328939 14736596
0.359 -0.016972365 -0.041383818 15591905
0.36028582 -0.014299361 -0.042763889 15592163
0.36201227 -0.0048211426 -0.043541413 15592419
0.35875005 0.0080938097 -0.040328529 15789797
0.36267677 0.0048365928 -0.044206869 15658468
0.3573181 0.015170298 -0.040586833 15592417
0.3642469 0.014948972 -0.045503784 15724518
0.35810006 0.02492833 -0.040591396 15460831
0.3659896 0.025159394 -0.046136588 16250348
0.35761535 0.035182215 -0.040717088 15724003
0.36563277 0.035129029 -0.046043351 16316141
0.3578372 0.045389678 -0.041356951 15723747
0.36424726 0.044940829 -0.04676332 16381933
0.35709354 0.055332478 -0.042654075 15789540
0.36233929 0.054354042 -0.047567856 16579825
0.35524431 0.065034948 -0.043289565 15657696
0.36100003 0.060119566 -0.048187427 16380648
0.35514531 0.073717915 -0.043294873 13815494
0.38461116 -0.10432228 -0.031431232 14539734
0.38200003 -0.099140108 -0.030422391 16711673
0.35499993 -0.074222013 -0.03151039 16185071
0.35543853 -0.064478114 -0.032073125 16448498
0.35666975 -0.054645319 -0.033424169 16185069
0.35672247 -0.044671107 -0.034953248 16119275
0.35626587 -0.034934353 -0.035071343 16579313
0.3548584 -0.025062209 -0.03486212 15921126
0.3543283 -0.015282519 -0.034741648 15460833
0.36000001 -0.010839353 -0.039626278 16381933
0.35316482 -0.004925766 -0.033891913 14605524
0.36000001 -0.0069064428 -0.039626278 16184554
0.35353839 0.0046849228 -0.034739323 14408144
0.3529641 0.014846121 -0.034642473 14473937
0.35376707 0.025109505 -0.034818564 15329245
0.35396516 0.035126355 -0.034861542 15723745
0.35418656 0.045154747 -0.03480671 16118503
0.34900001 0.058529638 -0.030245323 15986662
0.35409665 0.055020735 -0.035371188 16184296
0.34900001 0.062614717 -0.030245321 16184554
0.35340622 0.065474212 -0.035435949 15920613
0.35452917 0.073092498 -0.036514495 14868182
0.38500005 -0.14305197 -0.022099037 13947853
0.38469779 -0.13429479 -0.022763243 15395301
0.38370159 -0.1243586 -0.023279311 16514295
0.38454118 -0.11582367 -0.024930585 16645880
0.35100004 -0.10163983 -0.02096913 16711673
0.38377506 -0.1043026 -0.027982017 16711417
0.34900001 -0.092699878 -0.021094751 16646134
0.34999999 -0.097390033 -0.020977667 16711673
0.38200003 -0.099140108 -0.028186716 16711673
0.34900001 -0.086140431 -0.021631643 16645875
0.35036361 -0.082303047 -0.023231978 16645619
0.35282743 -0.074920155 -0.025082383 16513776
0.35275701 -0.065206729 -0.025050947 16184553
0.3521989 -0.054779883 -0.024547268 15789538
0.35173279 -0.04474115 -0.025085045 15526110
0.35112554 -0.034821607 -0.025088035 15262682
0.35115325 -0.024957791 -0.02508853 15065815
0.34900001 -0.0118358 -0.020747522 15921127
0.35138997 -0.015291626 -0.025354544 15197403
0.34858528 -0.0047240849 -0.021452788 15263453
0.35144657 -0.0054219626 -0.026498793 14868438
0.34807572 0.0054686065 -0.022105591 14539988
0.35139069 0.0045192144 -0.027098846 14802645
0.34740806 0.015606648 -0.022889219 14342352
0.35135379 0.014754068 -0.027920891 15000024
0.34690231 0.024747564 -0.023121836 14802902
0.3513172 0.024567105 -0.028502341 15526367
0.34659708 0.035126574 -0.023953643 15000281
0.35088232 0.033886701 -0.029152842 15855589
0.34653181 0.045138318 -0.024716364 14934745
0.35000002 0.042310223 -0.029512631 15855589
0.34676778 0.054904297 -0.024758967 15197916
0.34773603 0.064831845 -0.024848759 15395038
0.34808323 0.071594626 -0.025277255 13421505
0.38398948 -0.14507809 -0.01598471 16711673
0.38294369 -0.13573532 -0.01695383 16711673
0.34600002 -0.12179175 -0.010545521 16711670
0.38308695 -0.12543052 -0.018967528 16711673
0.34731248 -0.11413437 -0.012759599 16645363
0.38300002 -0.11912505 -0.019742711 16711673
0.34839615 -0.10480529 -0.013582642 16447211
0.35017642 -0.10274389 -0.018726191 16711672
0.34866172 -0.094837457 -0.014968076 16447211
0.35000002 -0.099192612 -0.019352611 16711671
0.34895831 -0.085255161 -0.015129255 16381673
0.34853584 -0.075807847 -0.014189119 16447465
0.35000014 -0.07325054 -0.018293753 16051937
0.34778127 -0.065082833 -0.012308316 16514286
0.35034162 -0.064986363 -0.017299663 16249315
0.34769875 -0.054357558 -0.012731243 15987429
0.35081813 -0.055671372 -0.017885476 16117985
0.34749061 -0.045042276 -0.013835519 15658208
0.35057887 -0.044636659 -0.01882825 16183779
0.34776998 -0.034837242 -0.013997575 15066073
0.35044122 -0.035502594 -0.018861223 16447210
0.34724075 -0.024810653 -0.014571503 14474194
0.34999999 -0.025628073 -0.019612072 16184039
0.34665278 -0.01482437 -0.014939969 14276816
0.35000002 -0.018731825 -0.019680355 16250347
0.34622946 -0.005157108 -0.015011657 13685192
0.34632081 0.0049761096 -0.015012429 13355971
0.34615532 0.015080922 -0.015033922 13618885
0.34647933 0.024850659 -0.015017658 14079179
0.34647125 0.034957841 -0.01504504 14144971
0.34628996 0.045067392 -0.014979352 14144714
0.34622943 0.05482335 -0.015008001 14671057
0.34677795 0.064962126 -0.015010496 14934230
0.3473334 0.071279339 -0.013685222 14671829
0.33600003 -0.15012835 -1.5170895e-05 16710648
0.38500002 -0.15271197 -0.0096747512 16711673
0.33800003 -0.14705901 -0.0001475287 16711413
0.34039477 -0.14324009 -0.0015893341 16645618
0.38300002 -0.14931093 -0.0095811328 16711673
0.34381402 -0.13490304 -0.0036569508 16578796
0.33860004 -0.12148561 -0.00033273033 16579570
0.34459701 -0.12531015 -0.0049454975 16512489
0.33804345 -0.11549659 -0.00036020708 16645621
0.34544456 -0.11501987 -0.0057630059 16447209
0.33770588 -0.10405869 -0.00078379031 16052970
0.34527272 -0.10499068 -0.0063320166 16579053
0.33855557 -0.095365167 -0.001019531 15000280
0.34508914 -0.095033623 -0.0063479873 16382701
0.33900002 -0.089000709 -0.00092228357 14605521
0.34227401 -0.084749535 -0.0048013916 15592929
0.34232864 -0.074871436 -0.0043706307 15066585
0.34395251 -0.065075412 -0.0048197857 14802900
0.34604776 -0.054971341 -0.0048741791 14539729
0.34741199 -0.044972297 -0.0048123547 14408400
0.34834912 -0.035040922 -0.0048543285 14211020
0.34812805 -0.024760617 -0.0049670576 13684677
0.34788445 -0.014953711 -0.004895241 13684677
0.34795496 -0.0051816264 -0.0048977174 13552834
0.3479287 0.0049999994 -0.0048968536 13421248
0.34832034 0.015198951 -0.0049030045 13683907
0.34845713 0.024778139 -0.0054131658 14144456
0.34999999 0.027903205 -0.00049376086 14406857
0.34872499 0.034733865 -0.0061226175 14276297
0.35000011 0.035186373 -0.000880679 14012355
0.34851697 0.045163378 -0.0054622316 14341577
0.34999996 0.041627422 -0.0008897832 14078146
0.34849286 0.055032693 -0.0050603906 14473422
0.34852654 0.064556606 -0.0056361668 14144714
0.35024998 0.067759603 -0.0011428193 14079435
0.34851721 0.071741901 -0.0076664239 13948105
0.35075855 0.072317071 -0.0027897013 13816776
0.33312503 -0.151337 0.005108628 15921384
0.3344844 -0.14510758 0.0051703542 15855589
0.34 -0.14156829 0.00078059459 16710894
0.33484989 -0.13500176 0.0055793799 15855590
0.34069997 -0.13475475 0.00086179626 16447211
0.33611637 -0.12491488 0.0055708154 15657698
0.34150001 -0.12800628 0.00078403833 16711668
0.33696851 -0.11506069 0.0051138811 15526111
0.33750689 -0.10497356 0.0051234607 15328731
0.33853063 -0.096091129 0.0044442923 15131608
0.34006983 -0.092201084 0.0072055957 15197401
0.33900002 -0.089567564 0.00077829877 14868692
0.3407833 -0.085013136 0.0052335192 15065558
0.34287044 -0.075296588 0.0053119273 14999765
0.34515324 -0.065228231 0.0052631744 14999764
0.34744158 -0.055125628 0.0052226586 14868692
0.34883577 -0.045513462 0.005153581 14671313
0.34999996 -0.040758047 0.0069246264 14868691
0.34900001 -0.035656273 0.0022160895 14013641
0.35039827 -0.034594718 0.0064112693 14605520
0.34900001 -0.023580397 0.002299119 13354940
0.35060167 -0.024973406 0.0054520741 14144455
0.3490001 -0.014513128 0.0041654371 13947334
0.35060874 -0.015339034 0.0059092329 14407370
0.34894243 -0.0048360606 0.0027321938 14407885
0.35039568 -0.0053848815 0.0067372923 14012356
0.3369166 0.006188368 0.0089238677 14605781
0.34900001 0.0042579048 0.0019171808 14473165
0.35001358 0.004866017 0.0053047687 13814978
0.33612302 0.01532003 0.008074604 13948108
0.34900001 0.015299922 0.0010896157 14275529
0.35028899 0.013908149 0.0035024746 13814978
0.33609757 0.02535367 0.0071837693 12829883
0.34900001 0.020810768 0.0010735957 13947077
0.35019359 0.024972856 0.0017034764 14143942
0.33580199 0.035450164 0.0065903561 12106159
0.35040742 0.034567304 0.001351853 14078407
0.33482429 0.044929344 0.0057784752 12171953
0.35066667 0.041705284 0.0012159324 13749955
0.33366898 0.05514919 0.0057163704 12040111
0.34900001 0.056078594 0.00080125738 15527395
0.33167019 0.063589796 0.0058005708 12435126
0.35000002 0.064842522 0.00080355327 15987177
0.33548406 -0.15339105 0.014948643 15921127
0.33347788 -0.14480354 0.014750266 15657439
0.33460867 -0.13498887 0.014752856 15986660
0.33665273 -0.12507749 0.014877283 16315369
0.33805814 -0.1156728 0.014585689 16249831
0.34000003 -0.11195245 0.018324574 16578537
0.33880648 -0.10562199 0.01192114 15788767
0.34023583 -0.10465869 0.016990481 16249058
0.33900002 -0.099002644 0.010918808 15460057
0.34068787 -0.094922446 0.014183041 15788508
0.33866671 -0.084323995 0.019805327 16183009
0.34259155 -0.08480221 0.014577163 15920093
0.33862507 -0.075000554 0.019604493 16316140
0.3435899 -0.074889809 0.01441006 15920350
0.33852637 -0.065500461 0.019463345 14672087
0.34437001 -0.064325102 0.014188634 15920607
0.34477839 -0.055079207 0.015079652 15263192
0.34739739 -0.045208193 0.015048489 14605263
0.34882262 -0.036029536 0.014667573 13422019
0.35030621 -0.032890301 0.016087187 13882056
0.34784999 -0.024168227 0.015142051 12895162
0.35017386 -0.028008407 0.01484914 14013898
0.34328029 -0.014968063 0.01516212 12895420
0.33877781 -0.0041789212 0.013952475 12040113
0.34068647 -0.0055187806 0.01644844 11711404
0.35075 -0.006660121 0.010863459 14999767
0.33778939 0.0048686801 0.012990339 11514026
0.34078169 0.0053475406 0.017625291 10724509
0.33755556 0.015016305 0.012378198 10724508
0.34109372 0.015045011 0.017218696 10724764
0.3379755 0.024639176 0.011488048 10922142
0.34161174 0.02522791 0.016374342 11184800
0.33853343 0.035455909 0.010842824 11185056
0.34185708 0.034920633 0.015650356 11316385
0.33805999 0.045376655 0.011430305 11448228
0.34162119 0.044777188 0.016343266 11513764
0.33730435 0.055662736 0.012778584 11711145
0.34057966 0.054416999 0.017457807 11579044
0.33652294 0.064852089 0.01495201 11447974
0.33999997 0.061852809 0.019655889 10921372
0.33792859 0.071082436 0.017278176 12171696
0.33481625 -0.15145327 0.024275048 13289409
0.33459455 -0.14503255 0.025120759 13684423
0.33360341 -0.13495238 0.024814736 14276559
0.33320636 -0.12490374 0.024954362 14408403
0.33407071 -0.11522976 0.025020283 14408659
0.33999997 -0.11154974 0.021020368 16645613
0.33405575 -0.10504089 0.026095996 13948107
0.34020841 -0.10574967 0.02115622 16710379
0.33343586 -0.0948883 0.025533736 13882057
0.33516109 -0.085114911 0.024427101 13684935
0.34 -0.081606999 0.029301995 11448230
0.3372688 -0.075344734 0.023232711 13093055
0.34118187 -0.074078776 0.028015047 11448487
0.3383846 -0.066674173 0.021881526 12500918
0.34250829 -0.064457543 0.026249021 11908781
0.34466243 -0.054907687 0.024700804 12632503
0.3476117 -0.046147715 0.023739044 13224640
0.35101923 -0.042694148 0.027310044 13158846
0.34900001 -0.039920699 0.020818131 13618627
0.35227808 -0.03493233 0.025144253 13026749
0.34852004 -0.022015536 0.021720614 12238003
0.35194981 -0.025604282 0.025786895 12237490
0.34649175 -0.014473089 0.024025341 11448487
0.35062501 -0.017228492 0.028610824 11382437
0.34547231 -0.0051456164 0.024668401 10658974
0.34586117 0.0048690261 0.024553061 10264473
0.35000002 0.0087166131 0.029481025 10132627
0.34666133 0.014871066 0.024477195 10395544
0.35013333 0.016016264 0.029328384 11514023
0.34730732 0.025105707 0.024105186 11382180
0.35026309 0.024365788 0.029201323 11250593
0.34716016 0.034991559 0.024750076 11645093
0.34574184 0.044987116 0.024746485 11973801
0.3439334 0.054876212 0.025070902 12368817
0.33900002 0.067566238 0.020618426 11974574
0.34215024 0.064964294 0.025255088 12171697
0.3422353 0.072156422 0.025464645 12105906
0.33860004 -0.15144829 0.031374954 13552836
0.3449091 -0.15275377 0.037099406 14210769
0.33792591 -0.14386858 0.032539546 13158079
0.34115872 -0.14551428 0.036827724 13026494
0.33722037 -0.1347411 0.034052979 13223872
0.34013158 -0.13529487 0.038938563 12697529
0.33679155 -0.12536336 0.033311885 13026492
0.34047174 -0.12436309 0.03795873 12565941
0.33684933 -0.11515976 0.032634638 12303284
0.34157348 -0.11478546 0.037454139 12105905
0.33698285 -0.10525915 0.032278806 11908781
0.34241465 -0.10487509 0.037149597 11842218
0.33815628 -0.096564777 0.031527244 11645865
0.3428843 -0.094448172 0.035895608 11842474
0.34461537 -0.085024454 0.034666598 11974317
0.35000002 -0.080183543 0.039313301 14079946
0.34645543 -0.075488061 0.033657804 11777195
0.35070732 -0.073995441 0.038212292 13290174
0.34781042 -0.065302841 0.032317638 11842988
0.35165468 -0.064733669 0.037209231 12566452
0.34857497 -0.055537593 0.031197932 12040366
0.35225239 -0.054715369 0.036329884 12237746
0.34900001 -0.049316373 0.030213807 12369330
0.35480008 -0.044929866 0.035023674 12369331
0.35643792 -0.035115086 0.034736484 12171954
0.36000001 -0.03359405 0.039593771 11119782
0.35605913 -0.025146704 0.034544602 11119522
0.36025009 -0.024761306 0.039621264 10329752
0.35436237 -0.015095733 0.0346848 10922143
0.36000001 -0.018424252 0.039593771 9474443
0.35350752 -0.0052624382 0.034756579 10592923
0.35380575 0.0048505501 0.034910139 10329751
0.35328016 0.014931407 0.035111487 10527129
0.35197967 0.0250831 0.035117492 11513766
0.34900001 0.037695747 0.031492621 12171181
0.35067767 0.034454554 0.03549036 12303024
0.34856832 0.045231164 0.034494337 12631990
0.35000002 0.040717032 0.038129788 12632502
0.34717861 0.055062801 0.035216577 13355971
0.34653047 0.06479837 0.035124723 13027263
0.34731472 0.073436059 0.035054825 12435126
0.34694916 -0.15250038 0.044139188 13619401
0.35000002 -0.15187722 0.049964931 14145489
0.34499228 -0.14483967 0.044997267 13750216
0.34394851 -0.13491395 0.045039803 13749959
0.34553847 -0.12512489 0.044862837 13289664
0.35000002 -0.12131523 0.049801059 13420737
0.34730113 -0.11544891 0.04369542 12763062
0.35052943 -0.11409178 0.048423961 13289406
0.34798488 -0.10534355 0.042459939 12763319
0.35109332 -0.10460821 0.047219519 12895162
0.34870371 -0.095607467 0.041314751 13223356
0.35120916 -0.094743088 0.045970727 12829368
0.34900001 -0.087389283 0.040181391 13157820
0.35163772 -0.084870107 0.045169145 13224125
0.35277003 -0.075032085 0.044998385 13289918
0.35449645 -0.065128267 0.045048371 13027004
0.35671213 -0.055372309 0.044616088 12632503
0.36043757 -0.051933881 0.048766006 12435125
0.35817996 -0.046083871 0.041943908 11908525
0.36217788 -0.04438575 0.046678308 11514024
0.35900003 -0.039383709 0.040324215 10856096
0.36445913 -0.035060883 0.044976525 8093561
0.36550415 -0.02500125 0.044845141 6908517
0.35860005 -0.011805244 0.040447369 10329750
0.36366114 -0.015015655 0.045363329 10329494
0.35837495 -0.0036470038 0.04333378 11119265
0.36068267 -0.0066535017 0.04674679 11579817
0.35736436 0.0046406267 0.044946056 11316902
0.35531917 0.014668684 0.045317169 11448232
0.35310277 0.024906091 0.045035254 11974831
0.35162535 0.0350959 0.044848673 12435125
0.34900001 0.047363766 0.040562671 13224127
0.35098451 0.044637088 0.045238454 12369332
0.34883332 0.055000775 0.041651957 12895162
0.35121495 0.054750659 0.046535201 12106160
0.34886837 0.065257177 0.041550606 12500663
0.3515408 0.065026596 0.046469979 12171954
0.34900001 0.071787566 0.040537909 11974578
0.35162821 0.073723078 0.044877041 12106162
0.35124996 -0.15170126 0.05326141 12697273
0.34841818 -0.14351757 0.052558739 13026238
0.35089067 -0.14594874 0.056705136 12697016
0.34769017 -0.1345699 0.053905919 13421251
0.3503226 -0.13570869 0.059112042 13487043
0.34866661 -0.12824839 0.053157471 13750215
0.35127598 -0.12408338 0.055806439 13816008
0.35296082 -0.11494105 0.054962121 13618372
0.353993 -0.10499282 0.055077691 13684421
0.35420135 -0.095033914 0.055132009 13289664
0.35459298 -0.085120417 0.055046599 12960955
0.35567865 -0.074964538 0.055006683 12632247
0.35763019 -0.065869495 0.053896341 12435125
0.36065117 -0.062948242 0.057809036 12434868
0.35860005 -0.057919867 0.051137235 12435125
0.36220002 -0.05452764 0.05549043 12500661
0.36628786 -0.044907901 0.055018127 12500918
0.36879978 -0.034798641 0.054941289 2896427
0.36857557 -0.024903145 0.054770444 2304291
0.36647815 -0.014806487 0.05504366 9802895
0.359 -0.00086420955 0.051810026 12763837
0.36119175 -0.0050613736 0.055298381 12434872
0.35794315 0.0047803391 0.054811537 11909042
0.36000001 0.00039753295 0.059539247 11974322
0.35634828 0.014711516 0.055048812 11316907
0.35514578 0.024835557 0.054774363 11514282
0.35465658 0.034909036 0.054798607 11448487
0.35529816 0.044992134 0.05488592 11251108
0.35580954 0.055215418 0.054992743 11579817
0.35636339 0.065006994 0.054766558 11842990
0.36000001 0.066168435 0.059820171 11579819
0.35641575 0.074288674 0.054123681 11842991
0.36052001 0.075604312 0.059366837 11710890
0.36100003 0.080402151 0.059986338 11710632
0.377 0.092202939 0.057350401 12830140
0.35510314 -0.14425629 0.064795792 13092287
0.36000001 -0.14863166 0.069933362 12763836
0.35330403 -0.13483478 0.065188527 13487044
0.35398015 -0.12490142 0.065053426 13816008
0.35556594 -0.11500838 0.06500113 13816008
0.35676318 -0.10511535 0.065135598 13749958
0.35704494 -0.095019184 0.065174207 13355457
0.3576239 -0.085128665 0.064628311 13027004
0.36000007 -0.083196878 0.069511972 13487041
0.35828564 -0.076239042 0.062307734 12764090
0.36085889 -0.074051932 0.066623457 13092542
0.35900003 -0.069639027 0.060494427 12566711
0.36261007 -0.064771265 0.065215446 13355969
0.36488733 -0.055008873 0.064943574 13750213
0.3674579 -0.044976484 0.064995818 13158333
0.36797825 -0.034979176 0.064906187 3290929
0.36682633 -0.025008926 0.064923532 2173218
0.36717159 -0.015026329 0.065014444 8224120
0.36321941 -0.0049981191 0.065074168 11908528
0.35877272 0.0069105937 0.061258134 10461853
0.36087275 0.0043239594 0.065720312 10922147
0.35846144 0.015078927 0.062290132 10527646
0.36050752 0.014614874 0.067224547 10461596
0.35835505 0.024775676 0.062639296 10856609
0.36046427 0.02513125 0.067613848 10856353
0.35832241 0.034508571 0.062181052 11251109
0.36060005 0.03552404 0.067121156 11316389
0.35848573 0.044643287 0.061247777 11316646
0.36129341 0.045258068 0.066263638 11448231
0.359 0.052910291 0.060723636 11316647
0.36208183 0.055098023 0.065507695 11645611
0.36285225 0.064980492 0.064921625 11645612
0.36453962 0.075020432 0.065204054 11776685
0.36563638 0.080962092 0.065606482 11250083
0.37025002 0.083546206 0.069107689 11447977
0.36500001 -0.15069599 0.075320601 12434871
0.35849997 -0.14159788 0.071981318 13092544
0.36210677 -0.14519542 0.075804189 13092801
0.35725248 -0.13453507 0.074619755 13289922
0.36011118 -0.13785905 0.078760035 13289921
0.35731634 -0.12499526 0.075053871 13553093
0.35818532 -0.11533419 0.073807292 13421250
0.36016002 -0.11370617 0.07859841 13355714
0.35842246 -0.10537039 0.072547615 13421249
0.36042869 -0.10475142 0.07749147 13355970
0.35871798 -0.096369796 0.071709126 13421249
0.36073202 -0.094403148 0.076276749 13289664
0.35900003 -0.089809239 0.070579529 13487043
0.36117324 -0.084992647 0.075357623 13289921
0.36226416 -0.075029336 0.07490804 13552834
0.36398426 -0.065019339 0.074936517 13684934
0.36511239 -0.054977581 0.074805997 13816263
0.36726829 -0.045126524 0.07500869 12894906
0.36570761 -0.034933645 0.074820444 3422001
0.36420119 -0.025033126 0.07458435 2041120
0.3671335 -0.014995835 0.074896462 7237481
0.36516127 -0.0050796079 0.075013183 12369078
0.36301485 0.004789196 0.074773528 11777454
0.36259836 0.014971726 0.074689858 10988195
0.3627536 0.025099549 0.074663132 11185317
0.36366397 0.035023943 0.074912541 11382695
0.36537805 0.044823375 0.075005665 11514024
0.36685264 0.054901894 0.074083902 11908781
0.37043473 0.055885687 0.079162307 11974320
0.36753336 0.064650461 0.072949447 11776939
0.37076744 0.065319724 0.07802131 12106160
0.36848286 0.073413722 0.071879566 11710891
0.37128207 0.075495325 0.076274797 11908526
0.37268856 0.083470635 0.073802665 11119267
0.3642064 -0.1436772 0.08370775 13224130
0.36233619 -0.13484088 0.084839016 13092542
0.36176035 -0.12482811 0.084983036 13224128
0.36199245 -0.1150279 0.084670812 13223871
0.36254194 -0.10504322 0.084871136 12960957
0.36345851 -0.095098995 0.085070737 12895420
0.36378917 -0.085084386 0.085140184 12960956
0.36415774 -0.075118892 0.085006483 13092285
0.36475563 -0.065181509 0.08497642 13355457
0.36560634 -0.055192139 0.084906772 13355715
0.36778575 -0.045769881 0.084484093 12500406
0.37033325 -0.041658524 0.08725778 10065811
0.36607566 -0.034648202 0.084830858 3422514
0.37022221 -0.039459407 0.08752045 8092278
0.36398566 -0.02501915 0.084767163 1646617
0.36688715 -0.014965501 0.084744222 6118743
0.36714759 -0.0050777309 0.085036755 11119012
0.36569718 0.0048246305 0.084746346 11185061
0.36568937 0.015101979 0.084745131 10922402
0.36651266 0.025003623 0.084936105 11119524
0.36773112 0.034370426 0.083964035 11448488
0.37047821 0.03692447 0.088297263 11053475
0.36828572 0.043629456 0.081673943 11711660
0.37159759 0.045411587 0.086151667 11185061
0.37340012 0.054836068 0.085033447 11448233
0.37540871 0.064844586 0.084627688 11645611
0.38000003 0.067375854 0.089297369 10592924
0.37655106 0.075114191 0.084484071 11514282
0.38000008 0.074848391 0.089460455 10593182
0.3771334 0.0810524 0.084570035 11645354
0.38000003 0.081075497 0.089386322 10790047
0.36833334 -0.14210859 0.091912664 13092799
0.37100002 -0.14288494 0.096272215 12960958
0.36714625 -0.13441464 0.094030768 13026750
0.37069994 -0.13721259 0.098567285 12566201
0.36644366 -0.12495378 0.095082529 12895420
0.36644098 -0.11491776 0.094769105 12698297
0.36690527 -0.10501024 0.094918363 12763834
0.36682215 -0.094944589 0.094867118 12763577
0.3670885 -0.085093915 0.094869867 12829370
0.36702347 -0.074934788 0.09524031 12894906
0.36711746 -0.064887173 0.0953179 12829113
0.3677035 -0.054912202 0.094792895 12829114
0.36846948 -0.048061669 0.093708292 12632249
0.37064391 -0.043661349 0.095738359 10592666
0.36508247 -0.034059409 0.09477406 3225393
0.37052375 -0.03932647 0.096101463 8553084
0.36173066 -0.024863951 0.094820917 1975583
0.36431047 -0.016670134 0.094897218 4014137
0.3706429 -0.011510511 0.095100462 8750719
0.36879998 -0.0033779028 0.091328003 10790305
0.37090018 -0.0054666195 0.095777489 10395289
0.36840352 0.0049305381 0.09217491 10395802
0.37066174 0.0048865215 0.097129948 10461595
0.36843756 0.014378264 0.091384172 10264473
0.37166241 0.015083659 0.096295208 9935508
0.36891666 0.02329441 0.090953551 10593181
0.37253785 0.025215631 0.095493205 10067607
0.3737255 0.034820907 0.094647564 10396314
0.38000003 0.03926491 0.099616572 9935764
0.37591192 0.044966545 0.09333609 10790816
0.38199997 0.04605877 0.098517157 10198677
0.37756726 0.054636396 0.093071699 10593181
0.3806667 0.052993637 0.097712517 10263957
0.37855554 0.061172724 0.091262572 10790816
0.38202167 0.066559799 0.092898421 10329495
0.38164851 0.073164649 0.092252322 10526875
0.37470374 -0.14168872 0.10450779 13092545
0.36900002 -0.13075158 0.10018828 12303285
0.37304133 -0.13495457 0.10499423 12632250
0.36899999 -0.12482812 0.10080528 12895421
0.37251091 -0.12501676 0.10593729 12303285
0.36899999 -0.115568 0.10025472 12764091
0.37242854 -0.1149623 0.1054882 12435126
0.3725526 -0.10507078 0.10502784 12434356
0.3723335 -0.095056318 0.10505664 12303026
0.36899999 -0.083528556 0.10033224 12171953
0.37159583 -0.085218556 0.10517081 12237235
0.36895454 -0.075025253 0.1013145 12500662
0.37145901 -0.075145356 0.10596557 11974575
0.36900008 -0.064700142 0.10134002 12698041
0.37132072 -0.065007485 0.10607235 12303284
0.36899999 -0.057037596 0.10047621 12565941
0.37120554 -0.054756466 0.10507242 12434869
0.37245136 -0.044859279 0.10519789 10723997
0.36665627 -0.033604257 0.10261089 2501155
0.37210712 -0.036355913 0.10607761 5790292
0.36175564 -0.024807954 0.10196826 1712666
0.37512505 -0.028198078 0.10898642 791820
0.36330962 -0.01645745 0.10258952 3356209
0.37280002 -0.011186736 0.10405491 9079683
0.37427291 -0.005135776 0.10469271 10000787
0.37494189 0.0043761712 0.10471168 10000787
0.38050002 0.0092538064 0.10932358 9540236
0.37656936 0.015045281 0.10333429 9540493
0.38108572 0.015875883 0.10867089 8948356
0.37735015 0.023995113 0.10206125 9277835
0.38217777 0.024844214 0.10744657 8685182
0.37783334 0.031228272 0.10111296 10264729
0.38593021 0.034877367 0.10584325 9211526
0.39042857 0.0381242 0.1083568 9671817
0.38720518 0.045819275 0.10304333 9145989
0.39076188 0.042728536 0.10675184 9342854
0.38750002 0.050471455 0.10339698 9079682
0.37836364 -0.14103442 0.11223409 13289667
0.38200003 -0.14027649 0.11892052 11514028
0.37766051 -0.13489664 0.11263471 12171700
0.38130772 -0.13523144 0.11796878 11908784
0.3776522 -0.1254942 0.11274519 12106163
0.38136733 -0.12464666 0.11739589 11579561
0.3775557 -0.11534587 0.11238286 11514026
0.38215101 -0.11492492 0.11728424 11053475
0.37732366 -0.10512271 0.11216643 11711404
0.38212734 -0.10506081 0.11720849 11185060
0.3773751 -0.09442509 0.11297522 11579560
0.38114628 -0.095024861 0.1178945 10987682
0.37736055 -0.084497452 0.11476245 11250597
0.38021436 -0.087996431 0.11855556 10329496
0.37675491 -0.075011946 0.11502392 11185061
0.37590003 -0.065174706 0.11473458 11053475
0.37561825 -0.054865573 0.11475213 11184804
0.3761262 -0.045124955 0.11467383 10131859
0.36818519 -0.032091584 0.11829 1120528
0.37348008 -0.03477696 0.1138214 4277823
0.36775762 -0.024602385 0.11746009 594185
0.37461543 -0.026424905 0.11284503 725770
0.36631238 -0.016630307 0.11625858 1842713
0.37368181 -0.01215749 0.11187708 8356219
0.37732771 -0.0058745774 0.11245665 9540491
0.38108337 -0.0015855031 0.11603544 8685180
0.37849998 0.002634516 0.11096395 9145221
0.38153487 0.0047163367 0.11395846 8684925
0.38332656 0.015139885 0.11283474 9079682
0.38394442 0.024198355 0.11123604 10132368
0.38800001 0.031313505 0.11049335 10330004
0.39200002 0.039128337 0.11010379 10263953
0.38331243 -0.13396995 0.12146088 11054246
0.3839556 -0.12457199 0.12188748 11185316
0.385851 -0.11480089 0.12263887 10263958
0.3856819 -0.10529009 0.12255201 10263958
0.38272002 -0.095678918 0.12133059 10527129
0.38033339 -0.0857988 0.12082553 9211014
0.37900001 -0.071744144 0.12064831 9145221
0.38034788 -0.075871132 0.12127157 9276551
0.37800002 -0.066245422 0.12032998 10263960
0.37800002 -0.050759584 0.12032998 8750463
0.37877774 -0.046186019 0.12067616 9211014
0.36620313 -0.032365095 0.12503146 1185809
0.36545178 -0.025091138 0.12491327 1252115
0.36514926 -0.016899012 0.12525494 857358
0.35766664 -0.031979498 0.13981131 1186577
0.36414281 -0.03247096 0.13580874 1317908
0.35653844 -0.024332033 0.13898167 1120271
0.36302128 -0.025119387 0.13458794 1646871
0.35530552 -0.016937144 0.13888375 1449237
0.36500004 -0.016991194 0.13456105 1383444
0.37075004 -0.012789744 0.13787624 987402
0.34838185 -0.03246519 0.14724322 1712664
0.35173479 -0.032487132 0.14202434 1909787
0.34826261 -0.025013888 0.1470041 1712407
0.35123599 -0.024823494 0.14187697 1843735
0.34799999 -0.015769092 0.14727984 1646615
0.35115007 -0.016806355 0.14245419 1777432
0.34447673 -0.032503128 0.15439971 1712409
0.34350002 -0.029641904 0.15610582 1909788
0.33720595 -0.031721942 0.16737741 2172959
0.34080553 -0.031626068 0.16220668 2041374
0.33704326 -0.024909575 0.16668263 2041372
0.34016669 -0.028956281 0.16309975 2304289
0.33627391 -0.015489299 0.1664571 1777688
0.33252293 -0.032311793 0.17499122 2370084
0.3334164 -0.025821285 0.17326336 2238753
0.33382216 -0.015433939 0.17137189 1909018
0.80800003 -0.22861493 0.35935661 3159085
0.81573683 -0.22687945 0.35766447 3027244
0.8063125 -0.22553931 0.36550492 2304035
0.81290907 -0.22272992 0.36136201 2830122
0.8083334 -0.21924762 0.36707339 2633515
0.8147223 -0.21758486 0.3658348 2566954
0.80735004 -0.22549924 0.3743782 1317652
0.81033343 -0.22231917 0.37873232 1580823
0.80850005 -0.21929282 0.3718822 2567720
0.81476921 -0.2157754 0.3752017 2567209
0.80850005 -0.2287564 0.38134575 988173
0.81162971 -0.22464068 0.38538972 857357
0.81650013 -0.21572302 0.38511813 1777693
0.82000011 -0.21089421 0.38484976 2764076
0.80880004 -0.2280837 0.39795899 923406
0.81158626 -0.22418724 0.39442843 857613
0.81610006 -0.21561742 0.39524233 1252116
0.82000005 -0.2108942 0.39540774 1382679
0.8075518 -0.22542267 0.40615633 923151
0.81016666 -0.22290565 0.40141329 1054992
0.80880004 -0.21785907 0.40818366 988688
0.81336838 -0.21433944 0.40458012 1120273
0.81900007 -0.20871973 0.40738794 1053711
0.80636662 -0.22531961 0.41526201 857102
0.80811757 -0.21740745 0.41493922 922895
0.8120001 -0.21239695 0.41507399 1053969
0.81780005 -0.20917802 0.41444904 1118735
0.82203841 -0.20364226 0.41504145 6185051
0.80646646 -0.22534746 0.42475277 725772
0.80816668 -0.21778297 0.42549059 725516
0.81339121 -0.21266291 0.42475328 1054225
0.80685186 -0.22590904 0.43405101 857102
0.81000006 -0.22254401 0.43893942 987918
0.80850005 -0.21834588 0.43244839 1054226
0.81391668 -0.21439992 0.43486539 987920
0.82000005 -0.21089421 0.43859953 724744
0.80866671 -0.22817226 0.44168782 791309
0.81333333 -0.22493583 0.44561303 1053455
0.82000005 -0.22049239 0.44915751 1250067
0.81725007 -0.21735924 0.44358629 1053200
0.82121432 -0.21353801 0.44639072 4014394
0.817375 -0.2276784 0.45393887 1053455
0.82068753 -0.22343791 0.45589903 1118733
0.81900007 -0.22980997 0.46107218 1119249
0.82171434 -0.22479613 0.4631497 4013625
