# .PCD v0.7 - Point Cloud Data file format
VERSION 0.7
FIELDS x y z rgb
SIZE 4 4 4 4
TYPE F F F U
COUNT 1 1 1 1
WIDTH 537
HEIGHT 1
VIEWPOINT 0 0 0 1 0 0 0
POINTS 537
DATA ascii
0.54300004 -0.093890898 -0.020363282 15132895
0.56100005 -0.086494945 -0.021038309 15198688
0.57466668 -0.080532156 -0.021553168 13027260
0.5776 -0.078778252 -0.021120057 13158846
0.58000004 -0.077206179 -0.021071941 13224639
0.53100002 -0.10051752 -0.013697862 14672344
0.52850002 -0.097569235 -0.011777529 14935261
0.53486365 -0.094726399 -0.014745856 15066846
0.54540002 -0.092004202 -0.018411448 15066848
0.55200005 -0.090708107 -0.018977804 15066848
0.53680003 -0.087913245 -0.011083909 14738137
0.54555553 -0.084678821 -0.012088679 14738137
0.5541923 -0.08519651 -0.015948718 14803930
0.56145453 -0.083574004 -0.018187394 15132895
0.57200003 -0.080158457 -0.018772699 14473938
0.56800002 -0.0750155 -0.01125473 15330272
0.57446867 -0.075839207 -0.015626043 14211792
0.58000004 -0.073132813 -0.019035254 12895674
0.56900001 -0.069081731 -0.010682005 15395808
0.48660001 -0.1014524 -0.00070648437 14738137
0.49200001 -0.10004557 -0.002325776 14737883
0.5115 -0.10041849 -0.0078081498 15067102
0.48775005 -0.099179603 -0.00030821207 15001054
0.49516663 -0.097010583 -0.0015696404 14869982
0.50433338 -0.094198994 -0.002956847 14672858
0.51455009 -0.094931923 -0.0065332525 14869723
0.52464288 -0.093344368 -0.0085361311 14935773
0.53033334 -0.090872742 -0.0095425248 14803930
0.50666672 -0.087406524 -0.00071601308 14607321
0.51253855 -0.085858472 -0.0020576664 14607321
0.52600002 -0.089308001 -0.0070031048 14673114
0.53456527 -0.085676149 -0.0066630603 14607321
0.54250002 -0.081462599 -0.0069194613 14672601
0.54671431 -0.078624912 -0.0049612229 14672344
0.55342859 -0.077182353 -0.0057614855 14672344
0.56511998 -0.07278385 -0.0065415059 15132895
0.5661878 -0.065257706 -0.0038998027 15133151
0.56733328 -0.057699267 -0.0012427502 15264738
0.46618751 -0.10382999 0.0078193843 15197915
0.47312504 -0.10104691 0.0048195701 15330015
0.48300004 -0.10047689 0.0016730889 15001307
0.46754548 -0.097755454 0.0093310438 14606292
0.47458342 -0.096124448 0.0074749985 15330015
0.48383331 -0.09519738 0.0045300969 15329759
0.49347058 -0.092931569 0.0024209155 14935261
0.50050002 -0.090642452 0.0011490812 14474965
0.47450003 -0.089266166 0.0099758934 15264479
0.48473331 -0.087062761 0.0083731599 14935514
0.49576479 -0.08708556 0.0052988869 14343378
0.50516671 -0.084342264 0.0036026472 14606550
0.51066673 -0.081525199 0.001571176 14803930
0.51100004 -0.079983912 0.0023694481 15001309
0.546 -0.070123911 0.0038099347 15001309
0.55233335 -0.071368843 0.0016980506 14672089
0.54640007 -0.067104802 0.0066256933 14869724
0.55472732 -0.065392122 0.0052299001 14540759
0.56157893 -0.061675061 0.004261048 15067102
0.56680954 -0.055982213 0.0054371175 15396067
0.57087505 -0.051099762 0.0061545116 15593445
0.57617074 -0.045271374 0.0064534652 14079949
0.57900006 -0.038668666 0.0085583702 11513254
0.46400005 -0.1106454 0.013013838 13420221
0.45828575 -0.10215654 0.017909499 14012098
0.46284348 -0.10525128 0.01340204 14933715
0.45697775 -0.094851114 0.017090445 15065557
0.46355271 -0.095283985 0.012567526 14935000
0.45723334 -0.086121365 0.017887753 15132379
0.46464518 -0.084968887 0.015308536 14211793
0.47466666 -0.084047988 0.012278189 14935515
0.48099998 -0.08268781 0.010433602 14803928
0.46533331 -0.077913828 0.018768197 14080207
0.47720003 -0.07737074 0.015320551 14869723
0.48291314 -0.074520372 0.014356169 14409173
0.49100003 -0.071488589 0.013004814 14408918
0.55350006 -0.063306779 0.010341037 15198434
0.56 -0.060123228 0.011773446 15001055
0.55525005 -0.051491681 0.015570207 14408918
0.56377774 -0.053331494 0.011702005 14869723
0.55671436 -0.047667403 0.017847532 14211794
0.56544441 -0.045921758 0.015850993 15198688
0.57437038 -0.04293628 0.013217552 15593446
0.56900001 -0.039776865 0.019954897 15198686
0.57651234 -0.035692841 0.015472142 14803672
0.57600003 -0.02840006 0.018312592 12697525
0.45615381 -0.10129882 0.023721831 13156788
0.45429415 -0.095223717 0.024704574 13222068
0.44672337 -0.083834417 0.026451968 14605005
0.45214295 -0.086291283 0.022503356 14868434
0.44397157 -0.075103298 0.026842037 15197915
0.45485717 -0.076441087 0.02165244 14672343
0.46425003 -0.072669327 0.021712465 13882828
0.47480005 -0.071863875 0.020427354 14474965
0.44440007 -0.06767863 0.028530056 14803928
0.4553104 -0.064833112 0.026953138 14014416
0.4629375 -0.064671807 0.024965512 14014671
0.47423077 -0.066632934 0.021408089 14540758
0.45355558 -0.057308689 0.029234447 13883342
0.46100003 -0.059207186 0.026959417 14015184
0.47400004 -0.046451453 0.029938949 14672085
0.55400002 -0.045212887 0.02072577 13685449
0.56325006 -0.042007383 0.02206032 14277585
0.56781822 -0.038121723 0.024142606 14277585
0.57284385 -0.033837046 0.022812519 15001565
0.5765 -0.02581729 0.025418786 14607064
0.58085722 -0.020597082 0.025613606 13882829
0.58282751 -0.015711162 0.027447792 12435126
0.45700002 -0.10041741 0.034565564 12695981
0.44900003 -0.090250634 0.037819944 12367016
0.45436934 -0.095674843 0.035139441 12498603
0.44380885 -0.084239565 0.034769516 13024946
0.43736088 -0.074108079 0.035240509 14276040
0.44000003 -0.078827821 0.034057554 13749439
0.43421337 -0.06528426 0.035438359 15000792
0.4427273 -0.062414762 0.031351779 14738138
0.45000002 -0.062008262 0.030529967 14146000
0.42833337 -0.053507637 0.039420575 15132895
0.43300003 -0.05622068 0.036843516 14869722
0.44536674 -0.055874661 0.03281321 13948879
0.45100001 -0.054899607 0.030749643 13948621
0.4348 -0.0491198 0.037837438 13949136
0.4466539 -0.044086877 0.038262948 13817548
0.4558 -0.042964317 0.035186227 14080208
0.46730003 -0.045688808 0.0326855 14540501
0.47128576 -0.046975046 0.031342681 14869464
0.44725001 -0.039118681 0.038978241 13883598
0.45533335 -0.038936585 0.035509851 14344149
0.56800002 -0.021091186 0.037205905 13751242
0.57494116 -0.024038207 0.032114837 14277586
0.54575002 -0.014514863 0.039581284 13817034
0.55400008 -0.015382077 0.038882706 13817034
0.56666666 -0.017726013 0.037779905 13751242
0.57588011 -0.016363431 0.034588568 14409428
0.58139998 -0.012151022 0.03363587 14672342
0.58306456 -0.0060622552 0.036651231 14409169
0.583 0.00087125145 0.039553266 14277328
0.44900006 -0.090382017 0.044126645 11840672
0.45082852 -0.093093306 0.044032048 12103844
0.44545719 -0.084816083 0.044956792 11906465
0.45000002 -0.089398175 0.049492214 11709086
0.43549287 -0.074378721 0.045136064 12498602
0.44000003 -0.079171173 0.044529706 12169637
0.42663252 -0.063405231 0.045051198 13881027
0.43037039 -0.068334326 0.043899018 13354425
0.41820008 -0.05204653 0.04912658 14605520
0.4238281 -0.055156909 0.044393905 14868950
0.41773319 -0.045338038 0.048875656 14935001
0.42335394 -0.04565141 0.04465986 14738138
0.43218184 -0.042895153 0.043209936 14145746
0.4425334 -0.042402472 0.041278079 13751756
0.41785714 -0.038713176 0.049449857 14672089
0.42453334 -0.035002578 0.048109982 13817292
0.43393937 -0.035724185 0.044516582 13620171
0.442 -0.038762677 0.041159954 13620170
0.42800003 -0.029920034 0.048074551 13620426
0.51900005 -0.020486688 0.04493114 14080723
0.52366668 -0.021078235 0.043699548 14080723
0.51850003 -0.016220346 0.046707992 14080977
0.52563643 -0.017280325 0.044102114 14014929
0.53376472 -0.013274324 0.043188475 13685706
0.54200006 -0.013143072 0.040578142 13948621
0.53785717 -0.0089982217 0.044224631 13554121
0.54100001 -0.0086878547 0.043038599 13817035
0.56100005 -0.0011315926 0.047253873 13685965
0.57100004 -0.0024884851 0.04542274 14146000
0.58225012 -0.0033047821 0.042566922 14540756
0.57700002 0.0042462265 0.04420631 11974830
0.58252501 0.0045536943 0.045011662 13882828
0.58428574 0.012305701 0.048045754 12632763
0.45590001 0.077846766 0.048746802 13290433
0.44900003 0.086687416 0.049148653 14342865
0.45456678 0.084026225 0.047222473 13553605
0.44900003 0.090541512 0.049382232 12500918
0.4511334 -0.091102079 0.05426503 11906721
0.44687501 -0.084152259 0.054978065 11906721
0.45036837 -0.088750578 0.055359647 12104100
0.43547365 -0.073894545 0.054619502 11841185
0.44138893 -0.078733467 0.056297813 11775392
0.42607936 -0.063676178 0.054919537 12038564
0.43052179 -0.068702556 0.055150412 11841186
0.41711539 -0.052748628 0.054699626 13486267
0.42094886 -0.057476111 0.055116709 12696237
0.40846667 -0.042452212 0.058119494 14079177
0.41319996 -0.045406163 0.054334667 14342605
0.40684229 -0.034724705 0.057941347 14606293
0.41408068 -0.035712969 0.053114001 14606552
0.42070001 -0.032460999 0.050602943 13817551
0.40637499 -0.026685169 0.058127783 14211538
0.58400005 0.0086655263 0.051105212 14014929
0.57650006 0.017058456 0.059356231 13356230
0.58518195 0.016089957 0.053606797 13554118
0.41700003 0.028933108 0.059529647 11908527
0.58663893 0.024339575 0.055936653 11711400
0.41871428 0.031783182 0.059354 12369078
0.42053849 0.036563363 0.058632966 12632250
0.58749998 0.031135634 0.058425181 10000782
0.42378265 0.045695163 0.057689946 13422021
0.42665792 0.054260254 0.058118507 14014413
0.43173334 0.056639295 0.055091579 13553862
0.42780003 0.061029859 0.059468292 14540756
0.4331609 0.065133832 0.055322193 14277585
0.43597263 0.074524179 0.056371205 14738136
0.44234782 0.077047564 0.051886305 14408915
0.43863165 0.082668751 0.05813133 15066588
0.4433876 0.085658878 0.054082811 14934745
0.44450006 0.091279618 0.055072952 13026235
0.45100003 -0.090652645 0.061743889 11709599
0.44642583 -0.083702087 0.064595804 11512220
0.44999999 -0.089187488 0.061290942 12104100
0.43725932 -0.072729565 0.063067399 11249049
0.44237217 -0.077121958 0.065850183 11249048
0.42682505 -0.062566027 0.064330049 11248793
0.4314194 -0.066977166 0.064877763 11183000
0.4174 -0.051962942 0.064499736 11577759
0.42246303 -0.05697377 0.06523741 11248793
0.40772924 -0.04256469 0.064490639 12433838
0.41213638 -0.04732164 0.065284461 11775395
0.39833334 -0.031058537 0.06826093 13026234
0.40283337 -0.035353057 0.064676695 13420991
0.39630553 -0.024784286 0.067328393 14277073
0.4019677 -0.02507652 0.062538154 14343380
0.39661965 -0.01508722 0.067337289 14014417
0.40132347 -0.016593823 0.063143857 13619659
0.39800003 -0.0091883317 0.069861419 13224646
0.40418419 -0.0062298691 0.067834049 12830144
0.40457898 0.0045471964 0.069266878 12435126
0.4058302 0.015240652 0.068251669 13027521
0.41168568 0.016491916 0.064329624 12303542
0.40670589 0.024497833 0.068191558 13948878
0.41292539 0.02532912 0.063643329 12895678
0.56633335 0.023169121 0.065380909 12895679
0.5753637 0.026760967 0.065603405 12830143
0.5839231 0.027211513 0.061799027 13356486
0.40829161 0.034344871 0.06899897 14409172
0.41454074 0.035028674 0.064419657 13882828
0.42000002 0.039465148 0.060941145 13750731
0.57850003 0.032013528 0.066333547 13224644
0.58323526 0.032154419 0.062774502 12171953
0.41531411 0.044579789 0.066048987 14408915
0.42096677 0.045963276 0.061310053 14145744
0.41808334 0.052744437 0.067880102 14540756
0.42161465 0.055577088 0.064010255 14672086
0.42499983 0.064765096 0.065225624 14869464
0.43000004 0.068422869 0.060714394 15001050
0.42815387 0.072075471 0.066748925 14869207
0.43138471 0.075962655 0.064047776 14935000
0.43573326 0.084588066 0.065073319 14803158
0.44000003 0.089413345 0.061096311 15197660
0.43850002 0.090477236 0.066189453 15131609
0.44050002 0.091922 0.06185234 12368302
0.44700003 -0.081371799 0.072396174 11183000
0.45225 -0.082569569 0.078723818 11380634
0.44474599 -0.075176939 0.075243972 11183256
0.45000002 -0.079917051 0.078462318 11380634
0.42833337 -0.061195146 0.072011836 11183000
0.43362495 -0.064750962 0.074971899 11183255
0.44 -0.069488719 0.077233724 11182998
0.41833332 -0.051116403 0.070818752 11314587
0.42416006 -0.055137273 0.075168282 11314329
0.43000001 -0.05925234 0.079504967 11445914
0.40861538 -0.041368488 0.073344916 11314330
0.41374078 -0.045185536 0.075873606 11183001
0.39810008 -0.031138975 0.074680626 11314588
0.40323073 -0.036002092 0.07430695 11248794
0.38874999 -0.021412611 0.078247562 13289148
0.39337391 -0.02533382 0.074529149 12630962
0.38718387 -0.014943663 0.076925464 13421504
0.3923333 -0.014900387 0.071973674 14211536
0.38695741 -0.0054519591 0.076780088 13158591
0.39380005 -0.0062366533 0.072435088 13487815
0.40495005 -0.0028965846 0.071410045 12369337
0.3883954 0.0026440904 0.077561855 13750985
0.39298815 0.0061263349 0.073901325 13750986
0.40440005 0.0025161779 0.07098341 12435128
0.39464357 0.014791153 0.075069658 13685192
0.40020004 0.016244264 0.070341229 13948621
0.39811778 0.021977952 0.076048933 13487812
0.40172157 0.026288608 0.074223273 13751240
0.40629131 0.034705978 0.074805245 13619398
0.41000003 0.03948532 0.079646334 13027262
0.40899995 0.040944915 0.073707208 13816776
0.41243672 0.045689143 0.074960515 13553604
0.41744119 0.053844605 0.074439004 13619396
0.42036369 0.058420919 0.076203711 13224382
0.4239136 0.064518549 0.074680738 13422018
0.42825001 0.072072424 0.073918939 13421504
0.43078849 0.076321729 0.07569547 13618627
0.43464714 0.084624276 0.074821934 13816263
0.43700001 0.090167738 0.071592003 11446946
0.45305565 -0.082259282 0.084092192 11380634
0.44667923 -0.07359273 0.084584393 11446171
0.45060006 -0.078283653 0.086004809 11380635
0.43678388 -0.063592352 0.085069008 11380378
0.44162968 -0.067941204 0.085678309 11380377
0.42606255 -0.053481195 0.085009128 11314841
0.4312593 -0.05808194 0.086246781 11380378
0.41580957 -0.043754037 0.084192351 11051670
0.42105001 -0.04801555 0.086821757 11183255
0.39900002 -0.030694941 0.080778703 11050902
0.40500006 -0.033945527 0.084964491 11248536
0.41165009 -0.038559362 0.086233415 11248536
0.38672346 -0.022068577 0.085499927 10789528
0.39419228 -0.026732884 0.084135145 11511966
0.40057144 -0.029610543 0.087862723 11511452
0.37899998 -0.012540653 0.089191422 2238756
0.38218418 -0.015322099 0.084575586 2764584
0.37900004 -0.0070795827 0.088968426 2238502
0.38168064 -0.0048888386 0.084407263 3027502
0.38632786 0.0046025282 0.085066661 13159361
0.39000002 0.0092562987 0.081239127 13093311
0.39361599 0.014648813 0.085060969 12566966
0.39866671 0.021128261 0.082889937 12500916
0.40245 0.025378654 0.08554326 12303537
0.40753588 0.033084724 0.084298387 12303537
0.41146508 0.037791763 0.086161204 12171951
0.4146882 0.045144413 0.084851474 12171952
0.41816667 0.052319668 0.083844699 12237488
0.42120376 0.056691576 0.085768983 12566709
0.42624614 0.064039335 0.084600441 12895674
0.42999998 0.068842307 0.086400434 13356226
0.43215099 0.074987933 0.085022837 13487042
0.43455771 0.082758851 0.084536038 13026492
0.45350003 -0.081070036 0.091812976 11380634
0.44851294 -0.072627299 0.095233716 11380635
0.45056251 -0.076854229 0.093786597 11380634
0.43778953 -0.061945926 0.093621448 11446171
0.44360006 -0.066574998 0.09529312 11511964
0.42777783 -0.05227172 0.093747295 11314329
0.43217391 -0.056479163 0.095211983 11380122
0.4176667 -0.041801188 0.093033224 11380121
0.42345312 -0.046308789 0.095457956 11314329
0.39566669 -0.030438507 0.097852297 11906724
0.40660715 -0.033120614 0.093738221 11840417
0.41290247 -0.03731123 0.094804399 11643038
0.37900001 -0.020283887 0.099354416 3289128
0.38526195 -0.023659419 0.09526585 10854294
0.39176005 -0.027937695 0.094401643 11906467
0.40140003 -0.029939886 0.092068627 11774881
0.37722036 -0.014174907 0.095718928 2173218
0.38070834 -0.018519282 0.092707805 2041374
0.37704536 -0.0054853852 0.09534651 2238756
0.38012505 -0.00098914653 0.091862231 2436390
0.37866667 0.00012265729 0.097493321 12106415
0.38489741 0.0048502698 0.094673946 12633018
0.3945806 0.013979343 0.094823599 12830139
0.40050006 0.019209962 0.096132554 12764345
0.40541056 0.02525047 0.094861731 12566965
0.41000003 0.029887147 0.099322587 12501686
0.40866664 0.03138477 0.092622459 12303794
0.41274333 0.035657633 0.095339663 12369587
0.41715521 0.043613113 0.093969628 12435122
0.42100015 0.047254719 0.097458631 12500916
0.41900003 0.050160937 0.090222649 12435123
0.42400002 0.055023313 0.094944291 12764088
0.42814815 0.062245551 0.093827665 13224639
0.4308393 0.066421933 0.095637731 13290433
0.43423259 0.075121932 0.095065758 13158592
0.4357273 0.08165209 0.093873024 12171440
0.44900006 -0.071180366 0.10163777 11314587
0.451619 -0.072350025 0.10545908 11314330
0.44576269 -0.065008953 0.10510834 11511453
0.45040002 -0.06902276 0.10816045 11511708
0.42900002 -0.050075874 0.1004103 11314074
0.43584204 -0.054409336 0.10498835 11314330
0.44066671 -0.05874576 0.1078704 11379867
0.41900003 -0.040080629 0.10248373 11972004
0.42537779 -0.044528633 0.10376875 11643295
0.43094739 -0.048233975 0.10697407 11577244
0.38900003 -0.030836301 0.10926116 12038051
0.39453852 -0.032087311 0.10446487 12169639
0.40260866 -0.036095921 0.10524835 12300968
0.4148334 -0.037987154 0.10186746 11972004
0.37815005 -0.020592827 0.10559092 5723470
0.38458091 -0.025544938 0.10514091 11446431
0.39000002 -0.029089577 0.10132506 11972004
0.37300009 -0.014677618 0.10524346 2041889
0.37234026 -0.0051665907 0.10506497 2172963
0.37603709 0.0011365064 0.10503144 12896446
0.38598576 0.0066034943 0.10489698 13027774
0.39384994 0.013337824 0.10505278 12961725
0.40143329 0.018958768 0.10479729 12830139
0.40662348 0.024086162 0.1047895 12764346
0.41089478 0.028838905 0.10538936 12764088
0.41490218 0.034817334 0.10498916 12500916
0.41823536 0.040970407 0.10330538 12566709
0.42237502 0.045712084 0.10521845 12566709
0.42705178 0.053646587 0.10436828 12829881
0.43032148 0.057777345 0.10701676 13027004
0.43302378 0.065097988 0.10512149 12961210
0.43660262 0.074588388 0.10466936 12894905
0.45366675 -0.071921505 0.11386815 11379867
0.44715512 -0.063643858 0.11484279 11314328
0.45109093 -0.068831652 0.11527402 11248280
0.43767864 -0.052518845 0.11397 11511707
0.44217947 -0.056900661 0.11546811 11380121
0.43253574 -0.047600936 0.11321009 11840672
0.38756418 -0.031818073 0.11562357 12038053
0.39292309 -0.03548957 0.115187 12235431
0.40127277 -0.037447188 0.11202471 12235687
0.37672973 -0.021333652 0.11520156 7499882
0.38352224 -0.026510127 0.11495982 11511966
0.36803219 -0.013388639 0.11555958 1712667
0.37134883 -0.017432341 0.11376256 2041633
0.36800864 -0.0052520451 0.11557939 2305061
0.37022215 -0.003827295 0.11116084 1911074
0.36825001 0.00033524208 0.1189504 13224382
0.37400001 0.0010060505 0.11245732 12963266
0.38498598 0.0063521755 0.11502559 12896189
0.38836363 0.01099525 0.11726301 12830140
0.39417431 0.014905578 0.11415546 13093053
0.40033337 0.019732581 0.11462762 13093053
0.40633339 0.023419546 0.11367632 13093053
0.4115833 0.027596323 0.11560501 13027260
0.4161045 0.033159457 0.11457781 12764344
0.42100006 0.038423367 0.1162038 12566708
0.42546058 0.044771027 0.11488066 12500915
0.43000001 0.049212877 0.1190155 12566707
0.42853329 0.05130269 0.11280882 12764088
0.43128169 0.055647656 0.11539212 12829880
0.43531826 0.065068312 0.11525524 13092796
0.43771422 0.072700962 0.11443035 12763575
0.44875002 -0.061836604 0.12105367 11445914
0.45163161 -0.064932957 0.12426902 11314328
0.43900001 -0.050558005 0.1222773 11972258
0.44511431 -0.055688161 0.12428662 11643293
0.45000002 -0.058847889 0.12955503 11445914
0.39664519 -0.041926544 0.12607749 12170152
0.40000001 -0.042945161 0.12265128 12433068
0.43700001 -0.04896364 0.12172023 12169637
0.38643083 -0.032726619 0.12558301 11906724
0.39262962 -0.037545953 0.12445397 12235688
0.37673077 -0.022199849 0.12426755 9802892
0.38204941 -0.026745792 0.12506075 11380637
0.36558893 -0.014084287 0.12521937 1844253
0.37055549 -0.01944685 0.12456301 2040092
0.36495301 -0.0051323124 0.12498599 2500898
0.36812502 0.0003352015 0.12235542 13026745
0.377 0.0033601355 0.12589034 12764346
0.38478127 0.0070965923 0.12508468 12895933
0.38832611 0.011629551 0.12482147 12830140
0.39263827 0.016135164 0.12537891 12961725
0.40000001 0.01979412 0.12077846 13159103
0.39700001 0.020575047 0.12544893 13224896
0.40430003 0.022382803 0.12469152 13224896
0.41302499 0.027258694 0.12457208 13158847
0.41713887 0.032065175 0.12419077 12961467
0.42267576 0.036621869 0.1259149 12829881
0.42747837 0.043173663 0.1240299 12566709
0.43020004 0.047272705 0.12629765 12435123
0.43307495 0.054794841 0.1248758 12764088
0.43761322 0.064551391 0.12476446 12895159
0.44000003 0.067610666 0.12950866 12105644
0.43900007 0.071362294 0.12402441 11053214
0.44000003 0.070185781 0.12770608 10526356
0.45405272 -0.06259837 0.13567372 11577501
0.4489333 -0.056046031 0.13471267 12038051
0.45033333 -0.058247712 0.13410167 11840416
0.39324242 -0.042376924 0.13485302 12104103
0.38584846 -0.034129336 0.13537809 11775652
0.39115793 -0.038623061 0.13304618 12367275
0.37609434 -0.023242416 0.13521455 9276547
0.38118178 -0.027411502 0.13418989 11249308
0.36522967 -0.015000756 0.13294892 1778204
0.3708235 -0.016423443 0.13826813 922381
0.36414635 -0.004197313 0.13429935 2566691
0.37060001 -0.0080351261 0.13914368 462344
0.36299998 0.0003725194 0.13654478 10460307
0.38470742 0.0078136604 0.13549221 12830140
0.38765991 0.011708744 0.13521993 12830141
0.39369226 0.016881052 0.13498044 13027519
0.39757147 0.020737767 0.13839073 13093056
0.40319297 0.023373587 0.13551673 13224897
0.41408336 0.028368657 0.13406944 13224896
0.41769567 0.031214653 0.1353045 13224639
0.42346263 0.036056839 0.1351064 13027260
0.42810717 0.041051056 0.1354527 12764087
0.43165579 0.046166774 0.13452868 12237487
0.43683323 0.054704271 0.13463074 12040365
0.44000003 0.058597747 0.13787779 11842985
0.43900007 0.061364174 0.13152666 12237744
0.44106904 0.06441085 0.13540906 11776936
0.45400003 -0.062028036 0.14027202 11511707
0.38657144 -0.036466565 0.1405095 9867913
0.36276928 -0.021829896 0.14918336 3356209
0.37286672 -0.021119276 0.14552066 3882810
0.37370563 -0.015102375 0.14515564 791309
0.36732432 -0.0023936885 0.14512792 2102800
0.37262326 -0.0071662767 0.14566949 462344
0.36500001 0.0001182304 0.14526242 3413002
0.38533333 0.0081441039 0.14140767 12764347
0.38778383 0.013158247 0.14240985 11448232
0.39150006 0.017645039 0.1415295 12238005
0.39609095 0.021543084 0.14218704 12369335
0.40484211 0.026080087 0.14263438 12895934
0.41142863 0.029028457 0.14211331 13224641
0.41645458 0.031958271 0.14333576 13224898
0.4233261 0.036832277 0.144411 13158847
0.42781821 0.041112348 0.14237992 12632502
0.4342857 0.045842603 0.14577673 12698295
0.43879321 0.051787086 0.14400512 12303279
0.44111767 0.056477103 0.14524315 12303022
0.44345465 0.062338468 0.14400083 11711143
0.36095005 -0.021993883 0.1543773 2435618
0.3585484 -0.013639606 0.15824455 988943
0.36197543 -0.014996205 0.15434863 1252115
0.3723022 -0.013765507 0.15142876 659721
0.35875002 -0.0085440967 0.15855558 988944
0.36319339 -0.0049945605 0.15438682 1185038
0.37133342 -0.0080525242 0.15089181 396551
0.36500001 0.00011823041 0.15207244 4993576
0.42720002 0.038544185 0.15099369 12829629
0.43000001 0.038391519 0.15298952 12303542
0.43635902 0.045468669 0.15286607 12764092
0.44142857 0.047456294 0.15779577 10593178
0.43900004 0.050705381 0.15125863 12764090
0.44267935 0.05489764 0.15402283 11645352
0.44433334 0.060475085 0.15184881 10592407
0.34480947 -0.022220394 0.16795611 1449495
0.36228344 -0.0219643 0.16533516 857613
0.34471592 -0.014795843 0.16758247 1186067
0.35649526 -0.014075154 0.1643604 1252116
0.36060718 -0.01854646 0.16396724 1186578
0.34458941 -0.0068347254 0.16791022 1186068
0.35701886 -0.0065204776 0.16520521 1120018
0.36032355 -0.0032064978 0.16226189 988945
0.44442859 0.047705419 0.16183925 10066832
0.44561544 0.0527879 0.16143449 10132625
0.33772099 -0.02245171 0.17775673 1448982
0.34128362 -0.022952147 0.17296791 1777945
0.36100003 -0.020165646 0.17069542 133379
0.33723918 -0.014827263 0.17754161 1317910
0.34099996 -0.015234354 0.17248365 1383444
0.33788997 -0.0052269935 0.17734785 1120787
0.34141555 -0.0059694881 0.17206872 1317396
0.33900002 0.0003365528 0.17809236 1251601
0.33328879 -0.022567697 0.1836511 1383445
0.33327651 -0.014699231 0.18396716 1317652
0.33410278 -0.0057678525 0.18365309 1251603
