# .PCD v0.7 - Point Cloud Data file format
VERSION 0.7
FIELDS x y z rgb
SIZE 4 4 4 4
TYPE F F F U
COUNT 1 1 1 1
WIDTH 1331
HEIGHT 1
VIEWPOINT 0 0 0 1 0 0 0
POINTS 1331
DATA ascii
0.79489285 -0.12501583 0.044819355 12895418
0.78857148 -0.14347337 0.058246713 15921900
0.7937085 -0.1453702 0.053762898 13289664
0.78800011 -0.13491386 0.058156382 15855848
0.79225004 -0.13513556 0.052818447 13026491
0.7874667 -0.12510253 0.057109937 15526626
0.79170591 -0.12512064 0.051748261 12894906
0.78659093 -0.11525306 0.05612253 15790568
0.79209083 -0.11437244 0.051208481 12960697
0.77700001 -0.10161068 0.059990957 16711671
0.78556257 -0.10491329 0.057084933 16514290
0.79306269 -0.10521783 0.05182755 13552832
0.77583337 -0.095103823 0.05990088 16711414
0.78568745 -0.095043659 0.056862969 16579826
0.79252946 -0.095020235 0.052018262 14276299
0.77425003 -0.084032878 0.059778634 16711670
0.78538096 -0.08466848 0.056340486 16447726
0.79172724 -0.085340098 0.05118487 13157819
0.77333337 -0.074882127 0.059707861 16711411
0.78575003 -0.075163133 0.056059998 16184297
0.79108334 -0.074746847 0.050891373 12829111
0.77300006 -0.064895466 0.059682123 16579311
0.78538096 -0.065411054 0.056428105 16250347
0.79215389 -0.064220622 0.051600609 13026491
0.77412504 -0.053888801 0.059085991 16513520
0.7860834 -0.055409517 0.05654652 16185068
0.79325014 -0.055103146 0.051839538 13026492
0.76900005 -0.042956736 0.059373293 15987175
0.77344441 -0.045216456 0.058706939 16381934
0.78641671 -0.044852003 0.056113418 16185069
0.79352945 -0.044980239 0.052082248 12894905
0.77390915 -0.034993339 0.058761213 16052968
0.78580004 -0.03469827 0.056068886 15987946
0.7942 -0.035068549 0.052016359 12171440
0.77590001 -0.025176108 0.058995612 15921382
0.78590912 -0.024999268 0.05599295 15856617
0.79377782 -0.02482819 0.051989116 12236977
0.77683336 -0.015206891 0.059066657 15789796
0.78563637 -0.01496022 0.056140874 15461859
0.79393333 -0.014612821 0.051998902 11776938
0.77639997 -0.0052014426 0.05903374 15526881
0.78633338 -0.0057289335 0.055645611 14671828
0.79415393 -0.0048924577 0.051728189 11381923
0.77616674 0.0047947462 0.059015568 15395551
0.78609091 0.005107773 0.056173839 15197146
0.7937333 0.0043431176 0.052358329 11315872
0.7753334 0.014164985 0.059558332 15461345
0.78528583 0.015222839 0.056816164 15131866
0.79363638 0.015290665 0.052657507 11315872
0.77483338 0.024737641 0.059823673 15132125
0.78588879 0.025092248 0.056992106 15131866
0.79474998 0.024212196 0.052752025 11118493
0.77520007 0.035636056 0.059122752 14803673
0.78672737 0.034914672 0.056385353 14737622
0.77479994 0.044687003 0.058910202 14935003
0.78633338 0.046575651 0.056412291 14935258
0.77400005 0.054610092 0.05975933 14869469
0.78692305 0.054386623 0.057210647 14672344
0.7315715 0.066537268 0.058929179 15132641
0.74000001 0.062604412 0.058866598 15066848
0.77350008 0.060911011 0.059720732 14737883
0.73141664 0.074722856 0.059039637 14935004
0.73140001 0.10468096 0.059894692 15263710
0.73800004 -0.16388972 0.069073528 15394273
0.74150002 -0.16206378 0.069401115 15788261
0.76350003 -0.16151235 0.067885488 15591907
0.77385724 -0.16434598 0.067250267 14341585
0.7383334 -0.1535946 0.069104724 16315629
0.74140006 -0.15492441 0.068350002 15855334
0.76200002 -0.15494862 0.06596826 16777205
0.77600002 -0.1550705 0.06445533 16382705
0.78766674 -0.15401912 0.062656902 15263971
0.7924 -0.15705363 0.061551251 12828605
0.73500001 -0.14476478 0.068007864 15723492
0.74420005 -0.14436269 0.066516392 16250607
0.75700003 -0.14152683 0.065535396 16711673
0.76366669 -0.14277245 0.064324789 16711673
0.77420008 -0.14474344 0.063399598 16711673
0.78560001 -0.14503801 0.06157263 16645879
0.73625004 -0.13678071 0.068909734 15986664
0.74362499 -0.13423862 0.068292841 15723750
0.7578333 -0.13547231 0.06560754 16711672
0.76500005 -0.13496783 0.064437091 16711671
0.77366668 -0.13468295 0.06335593 16711671
0.78345454 -0.13496789 0.061321221 16711414
0.73900002 -0.12086149 0.069167122 15723492
0.74318182 -0.12533787 0.068607219 15855078
0.755 -0.12504594 0.065947503 16184813
0.7622 -0.12465672 0.064201251 16645878
0.774625 -0.12419322 0.06275142 16514548
0.78185713 -0.12551661 0.060887683 16580084
0.73866671 -0.11475584 0.069135927 15921384
0.74587506 -0.11368902 0.067407839 15657955
0.75620002 -0.11482545 0.065466136 15987947
0.76377791 -0.11398595 0.063535079 16645878
0.77520007 -0.11461914 0.06130014 16645878
0.78000003 -0.11752396 0.060222585 16646134
0.73850006 -0.10521838 0.069120325 15855589
0.7451666 -0.10500572 0.067415178 15658212
0.75588882 -0.10415649 0.064846925 15592675
0.76414293 -0.10605912 0.063084364 16646133
0.77555567 -0.10545849 0.060884774 16711671
0.73650002 -0.095458351 0.068933137 16250091
0.745 -0.094608814 0.066640176 15855590
0.75542861 -0.09576045 0.064133532 15987176
0.7633751 -0.094466224 0.062063374 16645876
0.77166671 -0.097301036 0.061385661 16645877
0.73516661 -0.084956586 0.067944698 15855333
0.745 -0.085218944 0.065366909 15526112
0.75509089 -0.085086368 0.06279479 16119020
0.76666671 -0.085006453 0.060987916 16645877
0.73384613 -0.074290939 0.067358837 15789540
0.74372733 -0.075887717 0.064857312 15394782
0.75587499 -0.075399309 0.062337901 16513777
0.76550007 -0.077706769 0.060895108 16777207
0.73378575 -0.065776348 0.067323983 15855332
0.74481827 -0.065072075 0.064635083 15328732
0.75562501 -0.063881867 0.062317431 16447469
0.76350003 -0.064991005 0.060736012 16710897
0.73380005 -0.055074323 0.067301407 15789539
0.74483329 -0.054681551 0.064187713 15262939
0.75450009 -0.055100385 0.062078994 16316140
0.76200002 -0.055650443 0.060616687 16381934
0.73289472 -0.045003265 0.06669578 15592416
0.74300003 -0.045369122 0.063354209 15197146
0.75100011 -0.045114897 0.061499752 16513519
0.76000005 -0.046901926 0.060457591 16513519
0.73340011 -0.035302132 0.066577986 15460831
0.74420005 -0.034775656 0.063379668 15197147
0.75440007 -0.035069894 0.061778177 16447726
0.7622 -0.034718551 0.060632598 16250347
0.73469234 -0.025028987 0.067702204 15328988
0.74422222 -0.025893537 0.065200947 15065818
0.75549996 -0.025842121 0.062971175 15724003
0.76400012 -0.024799079 0.061665762 16052968
0.77000004 -0.02228288 0.061253082 16184554
0.73400003 -0.014367855 0.068699144 14934229
0.74482346 -0.014426044 0.06621787 14737109
0.75700003 -0.014818073 0.063763253 15724003
0.76185715 -0.014271544 0.062131666 15921382
0.77060002 -0.015987689 0.061300814 15789796
0.72900003 -0.0023237662 0.069937773 14868694
0.736 -0.0049319677 0.068021797 14737109
0.74516672 -0.0055776169 0.065963171 14737110
0.75620002 -0.0050668223 0.063695863 14737108
0.76360011 -0.0051159277 0.06163355 15658210
0.72900003 0.0043319818 0.069937773 14737108
0.73550004 0.004544545 0.067975119 14605523
0.74641675 0.0046114833 0.065490618 14276559
0.75650001 0.0046742507 0.063721128 14802901
0.76341671 0.0047164834 0.061619554 15658210
0.72900003 0.010475749 0.069937773 14671315
0.73539996 0.014525676 0.068138167 14539729
0.74561542 0.01514336 0.065887608 14276559
0.75600004 0.015664499 0.063929841 14539473
0.76333344 0.014538912 0.061910689 15395038
0.77000004 0.017373964 0.061253082 15263452
0.72860008 0.025819119 0.069899395 14276557
0.73415387 0.025487484 0.067652352 14276557
0.74490911 0.025128229 0.065279074 14276302
0.75340003 0.024931012 0.063460015 13947593
0.76183337 0.0258142 0.062086854 15460833
0.77000004 0.023683008 0.061253082 15329246
0.72780007 0.035846144 0.069140002 14276301
0.73314285 0.034930866 0.066408835 14276301
0.74550009 0.035144188 0.063664734 13947337
0.7561667 0.033290748 0.062215474 14868696
0.764 0.035112645 0.060775783 15329247
0.72775006 0.045381676 0.068964936 14473423
0.73199999 0.045257226 0.066017918 14342094
0.74433345 0.044673819 0.063564435 13947594
0.75479996 0.044419505 0.061810929 15198431
0.76100004 0.044784371 0.060537137 15132638
0.72594118 0.055714391 0.0680428 14407888
0.73281819 0.054666892 0.064686902 14211023
0.74383336 0.053347331 0.063232429 13750985
0.75700003 0.055181876 0.061991088 15264481
0.76425004 0.056601129 0.060795672 15198434
0.72596157 0.065665618 0.066632666 14342095
0.73208332 0.063073963 0.062233139 14211024
0.74200004 0.061036583 0.060762733 15330020
0.72612 0.074617118 0.066594459 14341839
0.73044443 0.075477183 0.062096339 13881546
0.72574997 0.084759109 0.06707193 14210253
0.7339232 0.084694639 0.062345989 14605267
0.72640002 0.095210627 0.0673884 14605010
0.73365009 0.095210753 0.062479895 14934746
0.74400002 0.094293736 0.060926512 15066845
0.75300002 0.093671598 0.061663527 15198431
0.76350003 0.092297308 0.060736008 14736856
0.72704357 0.1047255 0.067303494 14605009
0.73092306 0.10579794 0.062619299 15000282
0.72684616 0.1147638 0.068682186 14539474
0.7311666 0.1149198 0.064152628 14671574
0.72600001 0.12446995 0.068968728 13223872
0.73124999 0.12049553 0.065017432 14934491
0.74400002 0.12041949 0.062668234 15198431
0.73253858 -0.16373041 0.074953437 15591136
0.74200004 -0.16651505 0.071184948 15394273
0.72900003 -0.15301675 0.076252192 16183270
0.73195237 -0.15601738 0.073398009 16249321
0.72812897 -0.14503895 0.075954981 15722976
0.73062497 -0.14514787 0.0705209 16315627
0.72767627 -0.13534349 0.076019257 15855333
0.731875 -0.13404314 0.070640825 16184041
0.72766674 -0.12496956 0.076620117 15986663
0.7318182 -0.1252926 0.071140289 15986663
0.72776657 -0.11476488 0.07663057 15723490
0.73149997 -0.11535374 0.071032085 15855591
0.72791994 -0.10473415 0.077329464 15526368
0.73141164 -0.10481419 0.071778119 15921382
0.72813642 -0.094755843 0.07736811 15657697
0.7310555 -0.094747514 0.071844697 15921125
0.72755569 -0.085051008 0.076734528 15657697
0.7305454 -0.085430793 0.071018606 15986662
0.72736114 -0.075537816 0.07573621 15657697
0.73000002 -0.074957035 0.070033707 16184041
0.72708327 -0.065296277 0.07570567 15460318
0.73033333 -0.065586217 0.070065685 15789283
0.72625715 -0.055142943 0.075739346 15394525
0.73085707 -0.054758791 0.070360065 15657697
0.72622854 -0.044695996 0.075736172 15197402
0.73071426 -0.045705449 0.070346363 15526109
0.72611111 -0.034611631 0.075603165 15131353
0.73033333 -0.034812372 0.070065685 15657695
0.72622222 -0.02441588 0.07561478 14933973
0.73066664 -0.024564067 0.070097663 15262937
0.7256667 -0.015054757 0.075557619 14605007
0.73100001 -0.014309131 0.07012964 14934229
0.72500014 -0.0057056868 0.075487152 14539214
0.73066664 -0.0066061183 0.070097663 14868693
0.7246111 0.0044746236 0.075445905 14407886
0.73000002 0.0053632902 0.070033707 14737108
0.72419447 0.01464498 0.07540141 14276300
0.73000002 0.015616949 0.070033707 14473936
0.72347236 0.024790324 0.075326711 13881543
0.73000002 0.020743778 0.070033707 14342350
0.72222245 0.034893561 0.075198129 13750213
0.72227782 0.045041427 0.075203665 13684164
0.72116655 0.055100493 0.075091027 13881286
0.71899998 0.065709069 0.078404278 13025977
0.72061533 0.064922415 0.073673338 14078665
0.71899992 0.075602487 0.077300869 13486528
0.72072226 0.07484559 0.072610535 14078923
0.7189523 0.08558885 0.076908216 14013386
0.72046667 0.084902383 0.072154164 14210253
0.71866673 0.095408998 0.076876916 14802388
0.72099996 0.095429637 0.072207041 15065560
0.71879166 0.10540247 0.076529957 14933716
0.72109103 0.1053555 0.071786888 15131352
0.71899998 0.11368004 0.077899322 14736081
0.72113061 0.11568964 0.073876731 14538959
0.72173536 0.12466723 0.074951038 14737622
0.72100013 0.13199247 0.076235607 13487813
0.72887504 -0.16228996 0.087201901 15394269
0.73052371 -0.16459131 0.083356984 14604241
0.72807413 -0.15461618 0.084934026 15459805
0.73025 -0.15832236 0.081596568 15262682
0.72638232 -0.14515783 0.084988981 15657183
0.72502798 -0.13470091 0.085680932 15394268
0.72511125 -0.12453122 0.085689932 15460318
0.72466689 -0.11466181 0.085403875 15460574
0.72400004 -0.10514765 0.08565478 15262939
0.72348565 -0.095338628 0.085613884 15197146
0.72300017 -0.085239165 0.085436821 15263195
0.72413927 -0.075202011 0.085573703 14736595
0.72372234 -0.0649959 0.085525438 14934230
0.72216678 -0.054711852 0.085342705 14802901
0.72147244 -0.044524167 0.085259549 14934230
0.7218889 -0.034410499 0.085308075 14408142
0.72213894 -0.024278438 0.085338332 14210763
0.72216672 -0.014981524 0.08534196 13749955
0.72116685 -0.0056764963 0.085223928 13420733
0.72038865 0.004449131 0.085131131 13289148
0.72036093 0.014567716 0.085128039 13157562
0.72069442 0.024697019 0.085169852 12697269
0.71900004 0.037824184 0.081882887 12631733
0.72054535 0.034531508 0.085434765 12105388
0.71900004 0.044837486 0.082443945 12828598
0.72010005 0.04490573 0.085604951 12236717
0.71900004 0.052411851 0.083005011 12434353
0.72006047 0.055247802 0.085273176 12039338
0.71899998 0.066214025 0.08160235 12630706
0.7202307 0.064693317 0.086412109 11578529
0.71899992 0.075796187 0.084067024 12039338
0.72000003 0.072921827 0.088247284 11578529
0.7184723 0.085169874 0.084906645 12697267
0.71761107 0.095148467 0.084804855 13223356
0.71833348 0.10533639 0.084890783 13289148
0.71899992 0.11553155 0.084968723 13092025
0.71899992 0.12519307 0.086416267 13421505
0.72000003 0.12559474 0.08150515 14276556
0.71900004 0.13152187 0.085249268 12236976
0.72000009 0.13237901 0.082390055 12697784
0.72800004 -0.16355415 0.094777986 14473169
0.72641659 -0.15536754 0.09434709 14868182
0.72552943 -0.14518532 0.094481371 14802390
0.72530013 -0.1347508 0.09505301 14671059
0.72480661 -0.12434345 0.095151253 14934230
0.72319996 -0.11489215 0.095622569 15065559
0.722139 -0.10542696 0.09548229 14868437
0.72102797 -0.095135085 0.095336154 14802388
0.72127795 -0.085035481 0.09536916 14408143
0.72288871 -0.075072035 0.095581762 14276556
0.7230553 -0.064934455 0.095603786 14144970
0.72255546 -0.054740924 0.095539398 14144970
0.72175014 -0.044542085 0.095432557 13947592
0.72169453 -0.03440081 0.095425412 13750213
0.72200006 -0.024274124 0.095464885 13553090
0.72190005 -0.014976381 0.09545105 13026489
0.72119462 -0.005676161 0.09535832 12697525
0.72038883 0.0044482853 0.095252573 12632245
0.71999985 0.014560252 0.095200077 12434609
0.72175008 0.024736248 0.095432252 11842215
0.72387093 0.03483789 0.095031962 11447457
0.72280002 0.045072664 0.094728321 11381920
0.72234291 0.05531311 0.095392957 11316127
0.72208333 0.065313824 0.09547814 11841958
0.71900004 0.078501329 0.090859905 12170666
0.72091186 0.075134747 0.09557049 11710372
0.71899992 0.085987106 0.092897452 11841957
0.7204119 0.084557787 0.097685836 11578786
0.71876913 0.095561594 0.093679227 11973802
0.72000009 0.094791628 0.098739721 11842216
0.71899992 0.10530292 0.093708381 12368560
0.72000009 0.10591614 0.098739728 12236974
0.71899992 0.11416395 0.092858694 12565939
0.72005284 0.11663235 0.096848547 12237487
0.71900004 0.1247891 0.090859905 12829884
0.7204482 0.12486626 0.09569712 12500919
0.72137505 0.1306904 0.09623038 11382694
0.72900003 -0.16189107 0.10406982 14210510
0.73074991 -0.16541606 0.10631672 13420996
0.72658074 -0.15471813 0.10443867 14408145
0.7250002 -0.14487901 0.10434741 14145486
0.72580552 -0.13484423 0.10446353 14210766
0.72488588 -0.12461577 0.10445179 14473937
0.72299975 -0.1148596 0.10575211 14078922
0.72238886 -0.10546251 0.10566403 13815750
0.72161126 -0.095213011 0.10555057 14013128
0.72158349 -0.085071787 0.10554596 13881541
0.7224167 -0.075022653 0.10566667 13552832
0.72299975 -0.065160014 0.10536744 13289148
0.72293317 -0.054769382 0.10489678 13092025
0.72244442 -0.044584129 0.10567233 13223866
0.7228331 -0.034454808 0.10572799 13290174
0.72247219 -0.024291003 0.10567436 13093052
0.72200006 -0.014978064 0.10560583 12434610
0.72208339 -0.0056828968 0.10561872 12500146
0.72113901 0.0044527557 0.10548057 12434353
0.72077787 0.014576173 0.10542934 12171437
0.7224707 0.024561949 0.10542694 12040107
0.72560006 0.035181422 0.10455564 11710629
0.72658324 0.04530983 0.10457774 11776678
0.72580642 0.055318203 0.10515098 12171694
0.7237097 0.065595806 0.10517383 12302767
0.72261095 0.075511523 0.10569677 12171181
0.72219998 0.085637145 0.105517 12105388
0.72185737 0.095590569 0.10546723 11908009
0.72158849 0.10526466 0.10545024 12105644
0.72193325 0.11448153 0.10543018 12303281
0.72286665 0.12461642 0.10488977 12566454
0.72587502 0.13171782 0.10468651 11185058
0.74300003 -0.17021821 0.11476529 11183521
0.73142099 -0.16297159 0.11460009 13355202
0.74100006 -0.16976002 0.11445637 11578280
0.72809529 -0.15381864 0.11433222 14079180
0.73033333 -0.15781803 0.11698905 13750216
0.72672212 -0.1452235 0.11480686 13618372
0.72719455 -0.13510351 0.11488102 13486785
0.72541672 -0.12458692 0.11459757 13487298
0.7238462 -0.11479893 0.11532719 13421249
0.72351712 -0.10548069 0.11502825 13289662
0.7225666 -0.09533871 0.11499339 13289918
0.72236675 -0.085165262 0.11496169 13487296
0.72320002 -0.075104006 0.11509464 13289661
0.72439408 -0.064821333 0.11482245 12829367
0.72494459 -0.054921057 0.11452418 12631731
0.72460008 -0.044718143 0.11531789 12894902
0.72356665 -0.034492206 0.11515266 12894646
0.72243333 -0.024289485 0.11497197 12763574
0.72279984 -0.014994475 0.11503018 12566452
0.72289979 -0.0056893951 0.11504598 12763575
0.72226673 0.0044603515 0.11494572 12960697
0.72230011 0.014608131 0.11495166 12368817
0.72471875 0.025050713 0.11501892 11973546
0.72713882 0.035133939 0.11487201 12039081
0.72861123 0.04543741 0.11510283 12368302
0.72766662 0.055596691 0.11495435 12434097
0.72623515 0.065438524 0.1147295 12105389
0.72551876 0.074965939 0.11546561 11841702
0.72503352 0.084420353 0.11533043 11776166
0.72350007 0.094234295 0.11514147 11908009
0.7238667 0.10445394 0.11520015 12105388
0.72545463 0.11510272 0.11499102 12171695
0.72611117 0.12517443 0.1147107 11843244
0.72783333 0.1314338 0.11498096 11580074
0.75700003 -0.1716534 0.12224421 10919833
0.73227274 -0.16183934 0.12464041 13618373
0.74433333 -0.16703868 0.12600017 13420224
0.73116684 -0.15467061 0.1249209 13487043
0.72900003 -0.14375842 0.12198914 13816006
0.73064703 -0.14565556 0.12603869 13750214
0.72887999 -0.13442728 0.12432387 13684421
0.73000002 -0.13761829 0.12756813 13223870
0.72686112 -0.12483481 0.12503658 13618627
0.7260555 -0.1144948 0.12489936 13421248
0.72609097 -0.10468852 0.1251374 13289663
0.72475761 -0.095242687 0.12444482 13552577
0.72363901 -0.085315637 0.12448193 13422017
0.72458357 -0.075247325 0.12464274 13684675
0.7258333 -0.065182231 0.12485883 13618625
0.72738886 -0.055104233 0.12512848 12894903
0.72724992 -0.044883128 0.12510473 12697524
0.72522235 -0.034571603 0.1247545 12960439
0.72372222 -0.024332607 0.12449733 13026232
0.72420001 -0.015022769 0.12457948 13026488
0.72455573 -0.0057027745 0.12463984 12829367
0.72358346 0.004468699 0.12447251 12566453
0.72388893 0.014640459 0.12452541 12237745
0.72663891 0.024905732 0.12499811 12105389
0.72890913 0.033743743 0.1223619 11973802
0.73034984 0.035885833 0.12623358 11842217
0.72900003 0.046693638 0.12189433 12303025
0.7304762 0.045023747 0.1259423 11513765
0.72900003 0.055700712 0.12284245 11908010
0.73049998 0.054960262 0.12737107 11513507
0.72900003 0.06508702 0.12198915 11183774
0.73052931 0.064620405 0.12662186 11644579
0.7287693 0.074776776 0.12214771 11249564
0.73052937 0.074377358 0.12662174 11644065
0.72754544 0.084876753 0.12481977 12039594
0.73000002 0.081126437 0.12927707 12499887
0.72461128 0.094377995 0.12464966 12500146
0.72469461 0.10457403 0.1246637 12631475
0.72769696 0.11489296 0.1248446 12500145
0.73000002 0.11929283 0.12927707 12434352
0.72883338 0.12450571 0.12224588 12040109
0.73035717 0.12566181 0.12649119 12369331
0.72900003 0.1316445 0.12113584 11909038
0.73069996 0.13160969 0.12552492 11645866
0.78900003 -0.18260369 0.13849412 10788763
0.7753334 -0.17762564 0.1379087 10985629
0.73699999 -0.16228643 0.13351242 13486530
0.7445001 -0.16598693 0.13569744 13288895
0.75600004 -0.16965684 0.13889593 13222591
0.73291659 -0.15504107 0.13465638 13618115
0.73186129 -0.14453846 0.13446257 13684421
0.72900003 -0.13174109 0.13194431 13684420
0.73100007 -0.13547631 0.13530806 13881800
0.72893339 -0.12467607 0.13272871 13750470
0.73046672 -0.12596408 0.1371126 13947594
0.72900003 -0.11534736 0.13215117 13947336
0.73052621 -0.11497485 0.13660188 13486785
0.72885716 -0.10360293 0.1328125 13618628
0.73031247 -0.10587065 0.13674158 13486529
0.72763336 -0.094872691 0.13539107 13552580
0.72531426 -0.085393347 0.13483739 13684678
0.72555566 -0.075348064 0.13500284 13947849
0.72755557 -0.065335602 0.13537548 14277070
0.72885722 -0.056557786 0.13435659 13618627
0.73000002 -0.052911669 0.13634071 13618114
0.72888011 -0.044196982 0.13435738 12828598
0.73000002 -0.047613949 0.13753696 13618114
0.72738904 -0.034674618 0.13534576 13025977
0.72625011 -0.024417428 0.13513373 13025975
0.72606671 -0.01506282 0.13509828 12894902
0.72550011 -0.0057101417 0.13499223 12697524
0.72530568 0.0044798562 0.13495648 12171439
0.72591662 0.014680975 0.13507126 12237231
0.72800004 0.023756864 0.1345374 12105644
0.7302857 0.028323416 0.13673632 11908521
0.7312575 0.035453934 0.13447343 12105387
0.73174316 0.045509834 0.13431896 12039852
0.73190343 0.054899625 0.1346097 12039595
0.73175019 0.06447573 0.13444263 12500145
0.73133355 0.074711114 0.13436539 12565424
0.72885716 0.087499209 0.13256869 12565939
0.73065221 0.084048688 0.13576387 12499889
0.72789294 0.095051035 0.13434358 12829110
0.73000002 0.091664925 0.13839144 12960695
0.72766668 0.10500149 0.13454559 12829111
0.72888893 0.11247569 0.13325164 12894903
0.73043752 0.11598077 0.13590994 12894903
0.73142886 0.1245019 0.13450448 12895674
0.73318189 0.1316216 0.13384524 12040367
0.74233341 0.13579009 0.13725547 10132371
0.77800006 -0.18005788 0.14566983 10722970
0.7865715 -0.18283287 0.14464809 10722970
0.76125002 -0.17261711 0.14342555 10459798
0.77350003 -0.17781197 0.14603756 10788763
0.78000003 -0.17869475 0.1460443 10722970
0.73720002 -0.16198626 0.14458591 13815495
0.74400008 -0.16522363 0.14518034 13749445
0.75524998 -0.16948852 0.14405788 13354176
0.7338053 -0.15522826 0.1451263 13749702
0.73313874 -0.14479014 0.14499497 13815495
0.73232275 -0.13503315 0.14497241 14144459
0.73165733 -0.12553306 0.14457965 13749701
0.73169464 -0.11538425 0.14470956 13683909
0.73144484 -0.10507207 0.14465989 13552580
0.72892863 -0.091911539 0.14452676 13289407
0.73041177 -0.0970276 0.14541033 13223871
0.7268666 -0.084846362 0.1454556 13684165
0.72652775 -0.075449124 0.14538673 14145229
0.72864527 -0.065792553 0.14523286 14145484
0.73000002 -0.061285492 0.14693615 14276557
0.72900003 -0.059494939 0.14332166 14408656
0.73028111 -0.054790318 0.14464281 14144715
0.72900003 -0.040722314 0.14161506 13748930
0.73044127 -0.045329865 0.14466254 13420735
0.72900003 -0.034038123 0.14261056 13091513
0.73005551 -0.035274554 0.14685251 13091257
0.72885185 -0.024094118 0.1446835 12960697
0.73000002 -0.028245926 0.14807545 12894391
0.72751856 -0.01490492 0.14511314 12631988
0.72638875 -0.0057167471 0.14536031 12500402
0.72745162 0.0043585454 0.14488696 12303023
0.72861117 0.014071948 0.14343561 12105644
0.7304166 0.015769444 0.14759025 12171438
0.72900003 0.021568663 0.14161506 12236974
0.73096889 0.025478289 0.14499342 12171438
0.73230565 0.035382777 0.14483012 12171437
0.73356658 0.044887852 0.14507954 12434610
0.73383319 0.054352079 0.14513183 12434354
0.73322213 0.064604647 0.14501043 12565939
0.73213905 0.074792989 0.14479637 12565939
0.73105592 0.084951475 0.14458172 12697267
0.73086149 0.095194802 0.14454386 13026232
0.73066676 0.10543266 0.14450613 13026489
0.73090023 0.11487748 0.14455123 13026232
0.73161131 0.12441061 0.14469098 12764088
0.73255563 0.13114338 0.14535297 11711401
0.74400002 0.13609496 0.14104551 9934991
0.77800006 -0.18005788 0.15113378 10788763
0.78714287 -0.18270095 0.15527861 10722970
0.79428571 -0.1870168 0.15562211 10657177
0.75900006 -0.17033009 0.15899226 13091002
0.77400005 -0.17732018 0.15398063 10985372
0.78000003 -0.17869475 0.15334828 10854556
0.7383334 -0.16166018 0.15552418 13749959
0.74371433 -0.16416678 0.15566686 13355200
0.75400001 -0.16862237 0.15411301 13222590
0.73538721 -0.15520212 0.15513028 13552322
0.73444438 -0.14504822 0.15556878 13749702
0.73358315 -0.13457394 0.15538649 13618373
0.73303211 -0.12486731 0.15540801 13618373
0.73328561 -0.11551232 0.15520105 13683909
0.73288894 -0.10528021 0.15524012 13683909
0.72900003 -0.090701379 0.15282987 13157565
0.7310347 -0.09566018 0.15522987 13157565
0.72750002 -0.084790222 0.15514612 13025979
0.72661096 -0.075458661 0.1556107 13486786
0.72842866 -0.06534119 0.15470645 14013385
0.72900003 -0.058926072 0.15811221 13816006
0.73042428 -0.054998159 0.154379 14144971
0.73100036 -0.045112245 0.15483816 13815493
0.7305001 -0.034821875 0.15473267 13223354
0.72900003 -0.022647845 0.15472488 12763575
0.72999996 -0.027472833 0.15413812 12960696
0.72853583 -0.015297755 0.15462038 12961211
0.72799993 -0.0057275398 0.15505673 12829368
0.72895241 0.0027553919 0.15403898 12500404
0.72999996 0.0074384357 0.15548085 12500146
0.73102814 0.014783944 0.15484482 12105645
0.73211128 0.025089458 0.15507495 11908010
0.73330539 0.035431098 0.15532772 11973802
0.73399991 0.044913746 0.15547366 12500146
0.73399979 0.054364428 0.15547365 12565682
0.73338878 0.064618804 0.15534444 12630961
0.73261118 0.074840739 0.15517996 12433581
0.73191696 0.085051708 0.15503286 12434094
0.73136139 0.095259935 0.15491629 13092025
0.73119473 0.10550866 0.15488045 13223868
0.73120016 0.11492442 0.15488167 12829624
0.73175025 0.12443367 0.1549987 12961467
0.73218179 0.13128418 0.15485594 11579815
0.77900004 -0.18028931 0.16956456 10591384
0.78581828 -0.18237104 0.16502418 10656920
0.75850004 -0.17021789 0.16599134 12695989
0.77420008 -0.177366 0.16489632 10722457
0.7383334 -0.16050684 0.16244189 13816006
0.745 -0.16370405 0.16525786 13289408
0.75225002 -0.16749553 0.16550058 13091261
0.73744464 -0.15487976 0.16506182 13881542
0.74050003 -0.15924433 0.16898572 13816007
0.73558623 -0.14512677 0.16516362 13881031
0.73409992 -0.13466822 0.1649472 14078667
0.73389995 -0.12432205 0.16490228 14078922
0.73411995 -0.11490724 0.16495179 13947337
0.73386657 -0.10542006 0.16489488 13684165
0.73188591 -0.09473449 0.16518465 13157564
0.72888893 -0.083564281 0.16225947 12762807
0.73044997 -0.086118981 0.16626486 12959928
0.72833347 -0.075640544 0.16535746 12697013
0.7273429 -0.065197043 0.16440021 13552577
0.72856671 -0.055819687 0.1651804 14078920
0.73000002 -0.05217113 0.16174699 14144971
0.72900003 -0.049255323 0.1680674 14078663
0.73058844 -0.044833932 0.1648111 14078663
0.73008305 -0.034801267 0.16489902 13355198
0.72900003 -0.0243877 0.16477607 13157819
0.73000002 -0.028815571 0.1606077 12499633
0.7286365 -0.014650939 0.16470174 12829111
0.72880644 -0.0055419365 0.16419826 12763318
0.73000002 -0.0023269537 0.16915241 12434355
0.72900003 0.001211338 0.16209428 12631732
0.73058629 0.0053097173 0.16563228 12697526
0.73155582 0.014795689 0.16523206 12565939
0.73306882 0.02532929 0.16536695 12171180
0.73389989 0.035458811 0.16490212 12236716
0.73388886 0.045097437 0.16528054 13025975
0.73352772 0.054329287 0.16567516 13354940
0.73358321 0.064637333 0.16568851 13092023
0.73297209 0.07487864 0.16555108 13091510
0.73200023 0.085061565 0.16533181 13091768
0.73200023 0.095343307 0.1653318 13223611
0.73215169 0.10525778 0.16513292 13092282
0.73257571 0.11467264 0.16569741 12895159
0.73346651 0.12472527 0.16480616 12764088
0.73490012 0.13185032 0.16513056 11974572
0.79376006 -0.19485708 0.17463584 10394004
0.77900004 -0.18028931 0.17138821 10591384
0.78466678 -0.18262564 0.17569074 10591384
0.79310006 -0.18819387 0.17448872 10459798
0.75900006 -0.17033009 0.17054167 10853786
0.76240003 -0.17145267 0.17559014 11249313
0.77425003 -0.17737745 0.17578192 10722969
0.74571437 -0.16261138 0.1737916 13420737
0.75485718 -0.16713092 0.17567103 13420738
0.73874998 -0.15130211 0.17312589 13355456
0.74118179 -0.15623887 0.17576602 13749956
0.73753351 -0.14479616 0.17521678 13881801
0.73536128 -0.13490024 0.17469993 13947594
0.73472196 -0.12446143 0.17454909 13881801
0.7349999 -0.11504496 0.17461434 13947336
0.73466676 -0.10553546 0.1745334 13881287
0.73278791 -0.094896287 0.17510056 13354941
0.73097247 -0.0844699 0.17536783 13157562
0.72894448 -0.073900811 0.17336385 12959669
0.73008329 -0.07639011 0.17743278 13289148
0.72786105 -0.065367877 0.17462268 13157563
0.72741663 -0.055106565 0.17451319 13684164
0.72893339 -0.047771759 0.17561698 13881286
0.73028564 -0.043072727 0.17467329 14012872
0.73091698 -0.034840986 0.17535405 13684164
0.72900003 -0.022404786 0.17313033 13157819
0.73014271 -0.026054351 0.17642984 13157820
0.72900003 -0.015123279 0.17416239 12828855
0.73000002 -0.011298906 0.17769712 13157563
0.72900003 -0.0082968734 0.1706273 12762805
0.73041385 -0.0047741528 0.17538103 12763318
0.73130584 0.0045180852 0.17544764 12697526
0.73237514 0.014597911 0.1751682 12500147
0.73366654 0.025377417 0.17468637 12631476
0.73383313 0.035455003 0.17433447 12828598
0.73276311 0.045377966 0.17543301 13486527
0.73167759 0.054882556 0.17539552 13749955
0.73194468 0.064493865 0.17559756 13618369
0.73202807 0.074782096 0.17561826 13421246
0.7319169 0.08505217 0.17559306 13223868
0.73200023 0.095343322 0.17561351 13223868
0.73229045 0.10497645 0.17582044 12960697
0.73309982 0.11436536 0.17501955 12829111
0.73522222 0.12502728 0.17466682 12895418
0.73771429 0.13173829 0.17464277 11842730
0.74350005 0.13484506 0.17634417 10066065
0.78666669 -0.18267936 0.1838171 10525591
0.79350013 -0.18751699 0.18448593 10459798
0.7665 -0.17201318 0.18209659 10196626
0.77400005 -0.17573735 0.18455638 10394004
0.78200006 -0.17915294 0.18761015 10394005
0.7475 -0.16249959 0.1845836 13354686
0.75600004 -0.16611722 0.18491526 13091772
0.76100004 -0.16899741 0.18435416 12565428
0.73900002 -0.15113671 0.18680795 13618115
0.74133325 -0.15578292 0.18427436 13749958
0.73836017 -0.14495732 0.18491751 13947594
0.73667657 -0.13493878 0.18510586 13947594
0.73605561 -0.12468806 0.18520215 13947337
0.73540014 -0.11510926 0.18503699 14013130
0.73480558 -0.10555492 0.18488824 14078665
0.73338228 -0.095252641 0.18478265 13947079
0.73166686 -0.084550299 0.18495509 13552322
0.73082769 -0.074924476 0.1854509 13618114
0.72878951 -0.063429274 0.18404813 12893878
0.73035288 -0.067853168 0.18663412 13617601
0.72838902 -0.05518163 0.1849805 13683907
0.72895658 -0.04680378 0.18493715 14013129
0.73023075 -0.041842721 0.18577541 14012872
0.73100036 -0.03484454 0.18564126 13683907
0.73024988 -0.024552889 0.18545116 13420734
0.72900003 -0.013331349 0.18556009 13223355
0.7299999 -0.015464454 0.1848533 13157562
0.72900003 -0.0077280062 0.18883105 13157563
0.73048139 -0.0045757359 0.1850975 12960183
0.73152965 0.0043183831 0.1855233 12762805
0.73267645 0.015019341 0.18460323 12763062
0.73277777 0.025111001 0.18437596 13025978
0.73207158 0.035369128 0.18505344 13420735
0.72900003 0.048021 0.18939991 13552834
0.73096991 0.04534968 0.18524298 13618370
0.72900003 0.056127362 0.18790667 13487040
0.73052931 0.054660618 0.18335795 13684162
0.72900003 0.06469319 0.18795589 13750211
0.73054993 0.064712361 0.18330278 13486526
0.72900003 0.07225474 0.18905859 13618625
0.73061299 0.074996918 0.18490718 13289660
0.73108852 0.08475472 0.18541227 13355197
0.73200023 0.095343322 0.18503846 13157819
0.73207426 0.10516 0.18486701 12960441
0.73336339 0.11479732 0.18475959 12632246
0.73662502 0.12489034 0.18486087 12895677
0.73900002 0.1317203 0.18507794 12238004
0.74400002 0.13377579 0.1854554 10066834
0.78760004 -0.1808053 0.19503632 10394005
0.77585715 -0.175413 0.19560015 10459541
0.78500003 -0.17984024 0.19108526 10459798
0.7475 -0.16249959 0.19507994 13617858
0.75700003 -0.16633695 0.19490239 13288637
0.76166672 -0.16914545 0.19788618 13288127
0.73845005 -0.15275382 0.19444789 14275531
0.74164283 -0.15825187 0.19479339 13880773
0.73657912 -0.14501508 0.19508645 14078665
0.73636836 -0.13526571 0.19530448 14144972
0.73591679 -0.1246647 0.19550417 14012873
0.7355001 -0.11474661 0.19534095 14078666
0.73558074 -0.10502727 0.19505414 14276045
0.73399997 -0.095130503 0.19499512 14276045
0.73230565 -0.084624052 0.19454502 14539216
0.73119247 -0.075212009 0.19490716 14276043
0.72900003 -0.062149651 0.19717444 14275787
0.73053843 -0.066594109 0.19499579 14144201
0.72900003 -0.055228446 0.19537295 13684163
0.72900003 -0.048402015 0.19537304 13881798
0.73033333 -0.043360498 0.19573025 13815749
0.73100024 -0.03484454 0.19505338 14013128
0.73053342 -0.024562627 0.19492945 13420734
0.72900003 -0.012563379 0.19400775 12828855
0.72999978 -0.014946842 0.19616684 13092282
0.72900003 -0.0082968734 0.19537303 12894904
0.73010695 -0.0046464503 0.19566934 12763317
0.7310912 0.004594441 0.19492096 12697524
0.73172247 0.014797628 0.19438833 13025977
0.73147249 0.025066167 0.19432151 13289149
0.72900003 0.038919117 0.19764851 13354942
0.73062068 0.034679495 0.1951873 13223100
0.72791433 0.045512337 0.19520171 13486528
0.73000002 0.041251093 0.19136867 13552836
0.72666657 0.055523142 0.19474606 13421247
0.72786683 0.064988106 0.19506828 13421503
0.72900003 0.073790714 0.19588496 13223867
0.73000002 0.077993363 0.19307762 13092281
0.72900003 0.080446437 0.19878623 13223867
0.7308237 0.085178077 0.19505504 13158074
0.73188913 0.095329426 0.19443339 13223612
0.73279989 0.10488345 0.19467632 13552834
0.73383319 0.1144817 0.19495046 13355455
0.73752177 0.12387846 0.19484068 13093054
0.74060005 0.12853798 0.1958826 13224896
0.74242103 0.13242434 0.1951725 11579817
0.78725004 -0.1803557 0.2036102 10328212
0.77444446 -0.17500737 0.20362215 10262419
0.78500003 -0.17984024 0.20854339 10262419
0.74700004 -0.1623909 0.20544326 14144718
0.75650001 -0.16622709 0.20451228 13815753
0.76100004 -0.16899739 0.20483983 13091774
0.73852181 -0.15355815 0.20487833 14605008
0.74122232 -0.15843695 0.20587753 14473680
0.73651862 -0.14497904 0.20495659 14210250
0.73600006 -0.13501625 0.2050025 13815750
0.73650002 -0.12476087 0.20514241 14144714
0.73765659 -0.11438183 0.20514143 14210250
0.73634624 -0.10504769 0.20490076 14407629
0.73413879 -0.095148735 0.2053436 14210251
0.7321946 -0.084611982 0.20479858 14539216
0.72900003 -0.072010018 0.20931029 14407629
0.73082775 -0.075160854 0.20426881 14539215
0.72818184 -0.065060951 0.20571584 14341835
0.73025 -0.069426887 0.20169079 14210250
0.7280277 -0.055152029 0.20533742 13881541
0.72900003 -0.047655378 0.2063593 13552833
0.72999984 -0.043056767 0.2047554 13618627
0.73080575 -0.034834459 0.20441031 13683907
0.73100036 -0.024576835 0.20446543 13289149
0.72999972 -0.014289555 0.2050402 12894647
0.72999978 -0.0048903688 0.2050402 12894647
0.73074299 0.0046365443 0.20451528 12960184
0.73100036 0.014782697 0.20446545 13091769
0.72900003 0.029248374 0.20987916 13486528
0.73091698 0.025047125 0.20444174 13223355
0.72851717 0.035990823 0.20609233 13289148
0.73025 0.031862523 0.20297281 13157561
0.72663879 0.045312066 0.20494503 13486783
0.72613883 0.055483431 0.20480467 13158074
0.72720009 0.064927325 0.20510314 12894902
0.72777784 0.07434874 0.20526502 12894389
0.72858626 0.083872102 0.20611249 12894390
0.73033333 0.088192515 0.20266327 13026232
0.73105586 0.095221661 0.20447952 13486783
0.73206681 0.10483561 0.2047628 13684420
0.73357129 0.11456289 0.20506136 13487041
0.73720008 0.12381008 0.20505928 13356225
0.74080002 0.12857269 0.2046043 13158847
0.74205887 0.13216555 0.20556447 11908781
0.77550006 0.14639978 0.20508733 9606281
0.78900003 -0.18260367 0.21791784 10327953
0.76900005 -0.17257422 0.21374412 10327696
0.77414292 -0.1752831 0.21562131 10459283
0.78316671 -0.17942023 0.21538746 10327953
0.74820006 -0.16265178 0.21540916 13551553
0.75650001 -0.16622709 0.21514167 13354175
0.7610001 -0.16899739 0.21463816 12762295
0.73890007 -0.15284637 0.21618906 14276301
0.74156249 -0.15730707 0.21436426 14144715
0.7373001 -0.14475034 0.21485727 14144971
0.73600006 -0.13501626 0.21447897 14210764
0.73688895 -0.12482645 0.21473816 14079179
0.7380836 -0.11466387 0.21508566 14210764
0.73696673 -0.10500424 0.21475963 14013384
0.73394281 -0.095000885 0.21547385 14013129
0.73147255 -0.084528714 0.21487078 14276044
0.72860003 -0.073705524 0.21598879 14342349
0.73030001 -0.077210635 0.21264616 14407886
0.72694433 -0.065284222 0.21524331 14210507
0.72722214 -0.055092718 0.21532488 13881541
0.72863638 -0.045301117 0.21561368 13684420
0.73000002 -0.04134782 0.21073669 13421248
0.72900003 -0.03901571 0.21670556 13881799
0.73033315 -0.034422845 0.21430396 13815750
0.73097253 -0.024575867 0.21472506 13289406
0.73030549 -0.014296543 0.21452995 13026491
0.73076665 -0.004895349 0.21466547 12960697
0.73091698 0.0045146425 0.21470915 13157819
0.72900003 0.018155459 0.21841215 13552319
0.73052931 0.014571304 0.21434224 13618113
0.72814804 0.026056336 0.21613386 13486527
0.73023075 0.022722371 0.21246845 13617857
0.72576916 0.035257857 0.21534748 13157562
0.72366667 0.045126505 0.21511512 13223611
0.72364283 0.055291623 0.21510939 12894903
0.72533345 0.06561055 0.21476547 12566195
0.72639984 0.075059243 0.21508285 12697524
0.72816676 0.084107675 0.21492347 12763316
0.73000002 0.089101501 0.21785729 12565681
0.73072237 0.095178239 0.21465178 13420734
0.73177809 0.10559417 0.21496196 13552321
0.73336661 0.11526636 0.21542822 13420735
0.73743349 0.12482841 0.21518399 13092799
0.7416001 0.13207029 0.21489286 11974574
0.77200001 0.14483133 0.21141523 9672074
0.78800005 -0.1817589 0.22501351 10327953
0.77329999 -0.17444706 0.22534752 10262160
0.78375006 -0.17955385 0.22472633 10327696
0.74580008 -0.16073477 0.22483702 13486784
0.75419998 -0.16484359 0.22595331 13486272
0.76200002 -0.16921946 0.22116369 12893623
0.73807424 -0.15392354 0.22516058 13684163
0.74400002 -0.159997 0.22116452 14407630
0.73618191 -0.14499903 0.22510654 13815750
0.73600006 -0.13501626 0.22481686 13947335
0.73641676 -0.12474769 0.22494286 14078922
0.73624235 -0.11477082 0.22465253 14210766
0.73432416 -0.10495159 0.22516049 14078923
0.73235148 -0.09503337 0.22525223 13684164
0.72900003 -0.08210741 0.22737181 13749700
0.73070377 -0.085547574 0.22430743 14012872
0.72797376 -0.075558484 0.22518797 14078922
0.72699988 -0.065288432 0.22547156 13816006
0.72699988 -0.055076923 0.2254716 13816005
0.72785294 -0.044914767 0.22488281 13816005
0.72900003 -0.03858906 0.22523856 13882055
0.73049986 -0.033720009 0.22460282 13816005
0.73100036 -0.024576833 0.22500086 13420990
0.73100036 -0.01430913 0.22500086 13026233
0.73100024 -0.0048970673 0.22500086 13223869
0.72900003 0.0087691471 0.22865176 13289662
0.7307716 0.0043904795 0.22480769 13289406
0.72785717 0.015276806 0.22546561 13486784
0.73016667 0.012201458 0.22132552 13486527
0.72438103 0.0248194 0.22521614 13289405
0.72184634 0.034678712 0.22510318 13092281
0.72097242 0.044960514 0.22528747 12960695
0.72197223 0.055165645 0.22560069 12829109
0.72503132 0.06505391 0.224649 12631730
0.72766668 0.074396513 0.2253384 12236972
0.72895658 0.083335459 0.2245575 12697265
0.73000008 0.088324711 0.22508146 12828596
0.73077792 0.095185295 0.22493216 13091768
0.73193961 0.1052272 0.22505607 13354941
0.7333225 0.11459475 0.2256877 13223868
0.73700023 0.12525673 0.22499822 13092798
0.73900002 0.1317203 0.22530073 12435127
0.74360001 0.13393453 0.22591868 11185060
0.78725004 -0.1803557 0.23494473 10262673
0.77471435 -0.17437696 0.23443602 10986139
0.78066665 -0.17701994 0.23754764 9801866
0.74500006 -0.16021205 0.23454221 13421248
0.75518185 -0.16513872 0.23541102 13223100
0.73813051 -0.15385231 0.23519817 13881799
0.73688889 -0.14505079 0.23438695 14013385
0.73648387 -0.13496646 0.23461615 13947335
0.73580563 -0.12464658 0.2350923 13881286
0.73426664 -0.1149315 0.23460032 14012873
0.73287874 -0.10535698 0.23485909 13947079
0.73155582 -0.094813175 0.23544711 13486528
0.72900003 -0.082363412 0.23394224 13421248
0.73049986 -0.086638086 0.23544988 13421248
0.72755867 -0.075460464 0.23531328 13684164
0.72699988 -0.065288439 0.23568313 13816006
0.72686088 -0.055066243 0.23563726 13816006
0.72797358 -0.044922374 0.23514539 13684677
0.72900003 -0.037965495 0.23455924 13882312
0.73017377 -0.032983851 0.23503913 13750727
0.73077798 -0.024569102 0.23519588 13289661
0.73055571 -0.014300689 0.23512384 13092281
0.73033333 -0.0048926016 0.23505245 13355453
0.72821742 0.0065345448 0.23559347 13354941
0.7301333 0.0018316737 0.23390651 13354941
0.72346342 0.014685791 0.23496342 13289148
0.71899998 0.026442602 0.23825942 12960184
0.72060013 0.024130451 0.23428103 12960439
0.71899992 0.035474729 0.23740277 12697268
0.72000015 0.034196712 0.23299244 12894646
0.71899992 0.04473649 0.23628761 13026488
0.72000009 0.04512969 0.23165168 13158074
0.71899998 0.051930938 0.23753807 13026488
0.72034478 0.055767365 0.23454241 12960695
0.72343606 0.065159887 0.2352401 12697523
0.72748584 0.075123623 0.23503467 12894646
0.72900003 0.083615854 0.23486875 12828853
0.73000002 0.088674262 0.23409225 12697011
0.73075026 0.095181771 0.23518842 12960439
0.73187906 0.10521881 0.23562957 13092026
0.73344821 0.11510172 0.23466514 12829368
0.73714298 0.12461514 0.23440947 12764347
0.74000001 0.12756766 0.23903134 13027519
0.73900002 0.1317203 0.23005827 12236976
0.74155557 0.13179165 0.23644811 11119265
0.78900003 -0.18075661 0.24470025 9999246
0.77400005 -0.17369629 0.24457803 10985626
0.78200006 -0.17732228 0.24527529 9801611
0.74516672 -0.16024789 0.24506237 13487042
0.75559998 -0.16514887 0.24495248 13222846
0.73900014 -0.15302397 0.24405566 14079178
0.74000001 -0.15588863 0.24704346 13749958
0.73863345 -0.14501022 0.24464153 13947593
0.73820025 -0.13554408 0.24462168 13881799
0.73690003 -0.12483285 0.2449318 14079178
0.73527586 -0.11497106 0.24510415 14078922
0.73351431 -0.10549352 0.24478659 14012873
0.73145485 -0.094566636 0.24529949 13617602
0.72888893 -0.082426809 0.24605907 13420734
0.7304284 -0.086401567 0.24481466 13223098
0.72726315 -0.075619504 0.24539761 13618370
0.72616673 -0.065214902 0.24561048 14210508
0.72574997 -0.05498179 0.24547069 14144715
0.72667557 -0.044773914 0.24534576 14013129
0.72877777 -0.035843704 0.2453896 14013385
0.73000002 -0.031473927 0.24339649 14079178
0.72900003 -0.020243088 0.24827769 13091769
0.72999972 -0.024794534 0.24499927 13684163
0.72900003 -0.013941788 0.2479495 13091769
0.72999978 -0.01447531 0.24345423 13223611
0.72900003 -0.0039801747 0.2464205 13486527
0.72999996 -0.0060734828 0.24316278 13420733
0.72597498 0.0046889433 0.24528468 13420735
0.73000002 0.00023646081 0.24092801 13618112
0.71899998 0.017251838 0.24739677 13355198
0.72106898 0.013501974 0.2443807 13420991
0.71883327 0.024632949 0.24481437 12960440
0.71833342 0.034706123 0.24464218 12697267
0.71872216 0.044820424 0.24477609 12829109
0.71899992 0.054036997 0.24524933 12829109
0.71999997 0.058745295 0.24364741 12960695
0.72148651 0.065333612 0.24528232 12894901
0.72556674 0.074974671 0.24540752 13026486
0.72834373 0.083839826 0.24496216 13026488
0.73000002 0.089101501 0.2443459 13092026
0.73102963 0.09501759 0.24529463 13026490
0.73236006 0.1048208 0.24513665 12566196
0.7339142 0.11437217 0.24467523 12435124
0.73793334 0.12289432 0.24469885 12764346
0.74133331 0.127509 0.24553616 12830140
0.74380004 0.1317057 0.24548419 11514279
0.75125003 0.13566245 0.24530596 9145474
0.78900003 -0.18075661 0.25485909 9933454
0.77400011 -0.17369629 0.25454375 10459283
0.78216672 -0.17736007 0.25539747 9867148
0.74600005 -0.16042711 0.25494063 13158335
0.75545448 -0.16503522 0.25430858 13092029
0.76000005 -0.16699615 0.25972506 12829113
0.73853868 -0.15390286 0.25451818 13882057
0.74000001 -0.15740445 0.25981957 13947592
0.73657149 -0.14495036 0.2548683 14013385
0.736889 -0.13517898 0.25441131 14276558
0.73702788 -0.12485252 0.25446188 13816006
0.73555177 -0.11507455 0.25516859 14144715
0.73330551 -0.10534125 0.2548933 14078409
0.73138261 -0.094892003 0.25477844 13552321
0.72742307 -0.08419247 0.25520441 13486785
0.73019999 -0.088311069 0.2533012 13354942
0.72361553 -0.075087026 0.25506014 13947592
0.72209519 -0.064847842 0.25521773 14144971
0.72389489 -0.055016629 0.25531989 14408143
0.72537845 -0.044650197 0.255371 14605522
0.72704887 -0.034756664 0.25514263 14408143
0.728625 -0.024443949 0.25545076 14276300
0.73000002 -0.02497045 0.25160891 13486528
0.72684622 -0.014687832 0.25532061 13815748
0.71900004 -0.0027968478 0.25850582 13947335
0.7241708 -0.0058446522 0.25470287 13881542
0.71876192 0.0052001271 0.25676894 13750212
0.72175008 0.0031029403 0.25239387 13750212
0.71815795 0.014698637 0.25497869 13552834
0.7164523 0.024549846 0.25490144 13355454
0.71516657 0.034552537 0.25444299 13158075
0.71564281 0.044629719 0.25461277 13158075
0.71797359 0.054684211 0.25491434 13158075
0.71899992 0.062398784 0.25603712 13092282
0.72040915 0.067157216 0.25447294 12960694
0.72277153 0.074831538 0.25531349 13092281
0.72686118 0.084610239 0.25468245 13157817
0.72883338 0.091234185 0.25732026 12894902
0.73096675 0.095952258 0.25465032 12960697
0.73273331 0.10487475 0.25469503 12763575
0.73522854 0.11462792 0.25514385 12171953
0.73871428 0.12154046 0.25442827 12566968
0.74118179 0.12611726 0.25542215 12566713
0.74462497 0.13141663 0.25446868 11908783
0.75450003 0.13624936 0.25166398 9145473
0.78900003 -0.18075661 0.2604003 9867661
0.77500004 -0.17392071 0.26485309 11776682
0.78375006 -0.1777191 0.26509136 9341830
0.74600005 -0.16042711 0.26454583 13486530
0.75500005 -0.16413003 0.26508713 13354945
0.7608 -0.16717193 0.26534253 12236976
0.73838103 -0.15409802 0.26567155 13684420
0.74000001 -0.15740445 0.2632843 13420993
0.73573542 -0.14545524 0.26460239 14079178
0.73530573 -0.13488823 0.26419479 14342350
0.73597229 -0.12467372 0.26443422 14144715
0.73431247 -0.11510097 0.26517963 13881543
0.73237157 -0.10523077 0.26483065 14013128
0.72900003 -0.091144651 0.266197 13683137
0.73085725 -0.095944069 0.26430783 13683394
0.72635484 -0.084734984 0.2648994 13420222
0.71900004 -0.070461169 0.26759505 14013386
0.72155893 -0.075286619 0.26471999 13816006
0.71899992 -0.064601168 0.26628599 14276557
0.72000003 -0.064566165 0.26178691 14210764
0.71899992 -0.054681238 0.26780549 14342350
0.72091675 -0.054192808 0.26296183 14408143
0.71889997 -0.044029351 0.26722103 14473936
0.72122729 -0.04481693 0.26228213 14605522
0.71894729 -0.034491193 0.26739824 14605522
0.72179168 -0.034051482 0.26243424 14605522
0.71899998 -0.025014982 0.26843667 14737108
0.7230857 -0.024431817 0.26306143 14671315
0.71888226 -0.014913801 0.267452 14408143
0.72089493 -0.016022023 0.26305699 14276557
0.71817148 -0.0053411336 0.26517063 13947336
0.72000003 -0.0090372097 0.26122507 13881542
0.71652377 0.0044239121 0.26499221 13815750
0.71411109 0.014382143 0.26506078 13421249
0.71228564 0.024408979 0.26509118 13158076
0.71274346 0.034244243 0.26488018 13026746
0.71372223 0.044511411 0.26479608 12894904
0.71691662 0.054781064 0.26486081 12763574
0.71893746 0.064557113 0.26541519 12565938
0.72000003 0.06891869 0.26248923 12697525
0.72088891 0.075335264 0.26492101 12565939
0.72470969 0.085067734 0.26462814 12631475
0.72835302 0.092211775 0.26485687 12697524
0.73063159 0.09755154 0.26508164 12894903
0.73240006 0.1048269 0.26486668 12763830
0.7351175 0.11468436 0.2649878 12435125
0.73862499 0.12171116 0.2653898 12369589
0.74144995 0.12651798 0.26492888 12369589
0.74475002 0.13144007 0.26628557 11316645
0.77550006 -0.17403291 0.27500454 11381926
0.78633338 -0.17830487 0.275166 9211013
0.74650007 -0.1611191 0.27462935 13091260
0.75487512 -0.16476916 0.27454215 12695989
0.76033336 -0.16706939 0.27229786 11972524
0.7378183 -0.1541951 0.27506843 13552578
0.74400002 -0.159997 0.27777034 13025979
0.73466665 -0.14509203 0.27428487 14079178
0.73472238 -0.13478097 0.27430609 14276557
0.7344166 -0.12441092 0.27419108 14144971
0.73303318 -0.11473901 0.2753911 14210508
0.73158365 -0.10509265 0.27484712 14078666
0.72900003 -0.090555094 0.27336472 13485758
0.73062962 -0.095674671 0.27521756 13815493
0.72667873 -0.085010447 0.27501029 13091515
0.71899998 -0.071134433 0.27483279 13750214
0.7213847 -0.076284125 0.27504155 13157565
0.7182973 -0.064395629 0.27505749 14079178
0.71730936 -0.054343134 0.27535856 14276557
0.71729726 -0.044289578 0.27471974 14408143
0.71700001 -0.035015736 0.27523962 14342094
0.71699983 -0.025574666 0.27544838 14407631
0.71659523 -0.015705643 0.27508274 14078922
0.71520919 -0.0055728029 0.27497724 13815750
0.70900005 0.0076986765 0.27881134 13093053
0.71249998 0.0042317673 0.27492714 13486785
0.70857143 0.015079487 0.276351 13027261
0.7107501 0.013123821 0.27253073 13487041
0.70849997 0.023519894 0.27584967 12632503
0.71025008 0.025864212 0.27237463 12895160
0.70900005 0.030105731 0.27881134 12303537
0.71150011 0.034685139 0.27505788 12500403
0.71445942 0.044445984 0.2752617 12500402
0.71734303 0.054884363 0.27494296 12369072
0.71896964 0.064650677 0.27492851 12171437
0.72000003 0.069340073 0.27808043 12106157
0.72097063 0.075443432 0.27478194 12039593
0.72521436 0.085187443 0.27481893 12236972
0.72883338 0.091518611 0.27552089 12368559
0.7307272 0.097044609 0.27491444 12500146
0.73255175 0.1047308 0.27506322 12763317
0.73606664 0.11454581 0.27469343 12500917
0.74000001 0.11977207 0.2780093 12764093
0.74253845 0.12533525 0.2751534 12040626
0.74633342 0.13128024 0.27427587 10001041
0.75400001 0.13439393 0.277091 8882560
0.76100004 0.13742314 0.27788192 8948351
0.78800005 -0.18052752 0.28681698 9473671
0.77522224 -0.17477979 0.28529322 9341059
0.78266668 -0.17747344 0.28212601 9473159
0.74766666 -0.16253582 0.28438979 12959417
0.75749999 -0.16644682 0.28458211 12104109
0.76300001 -0.16944154 0.28531045 8946045
0.73795468 -0.15430242 0.28462127 13684165
0.74137509 -0.15921594 0.28524709 12894136
0.7341578 -0.14481099 0.28472337 14013643
0.73385692 -0.13462263 0.28514856 14079436
0.73367548 -0.12486516 0.28484601 13881799
0.73265713 -0.11541506 0.28566369 14013385
0.73197246 -0.10514701 0.28527486 13881543
0.73111141 -0.094755039 0.28493977 13486271
0.72682607 -0.083882324 0.2847847 12828855
0.73000002 -0.088628583 0.28536054 12894391
0.71899992 -0.071226247 0.28565115 12960698
0.72156 -0.076458871 0.28489807 12763320
0.71759993 -0.06456773 0.28483319 13223869
0.71548384 -0.054610215 0.28519598 13750213
0.71487182 -0.045470163 0.28532049 14079178
0.7136429 -0.035688527 0.28564364 14013386
0.71297616 -0.025640538 0.2853767 13947592
0.71209526 -0.015607275 0.28502297 13618883
0.70860004 -0.0044162208 0.28777745 13158076
0.71123332 -0.0062092911 0.28362688 13355455
0.70805275 0.0047212099 0.28506699 13092284
0.71000004 0.0010610438 0.28086671 13355455
0.70766681 0.014310896 0.28491181 12697782
0.70805418 0.02415272 0.28439716 12237488
0.70900005 0.030860178 0.28499779 12237744
0.71068007 0.03583549 0.28512871 12171952
0.71385717 0.044640951 0.28501725 12303537
0.71694583 0.054714236 0.28488335 12303023
0.71873522 0.064765655 0.28536126 12105386
0.72000003 0.069340073 0.28229427 12105386
0.72137845 0.075319417 0.28495535 12039593
0.72646427 0.085272804 0.28482845 12171179
0.72900003 0.090970479 0.28525409 12105387
0.73064286 0.096267395 0.28481758 12302767
0.73222584 0.10491347 0.28517884 12500660
0.73594123 0.11430828 0.28504479 12303538
0.74000001 0.11977207 0.28234017 12435382
0.73900002 0.12134023 0.28714865 12172210
0.74269229 0.12502684 0.2848334 12171956
0.75800002 0.13510689 0.28033546 8750974
0.76200002 0.13760372 0.28003094 8882558
0.78640008 -0.18016097 0.29452169 9276291
0.7766667 -0.17581169 0.29421255 9210498
0.74733347 -0.16188161 0.29475698 12236206
0.75699997 -0.16608581 0.29590794 9473157
0.73869997 -0.152978 0.29429537 12697272
0.74200004 -0.15725262 0.29526368 12170671
0.73388577 -0.14481905 0.29507512 13289921
0.73219371 -0.13500895 0.29550612 13750729
0.73211449 -0.12561157 0.29573518 13882315
0.73202801 -0.11543708 0.29557827 13552836
0.73177809 -0.10511984 0.29547679 13684421
0.72900003 -0.090213776 0.29606253 13092026
0.73081273 -0.09525077 0.29487392 13486529
0.72631252 -0.084733367 0.29464817 12828854
0.71899998 -0.070881963 0.29452613 12697525
0.72089291 -0.075952999 0.29530028 12631732
0.71808344 -0.064490639 0.29499143 12960697
0.71510357 -0.054958511 0.29494876 13158333
0.71197438 -0.045671809 0.29510772 13355713
0.71041662 -0.035526596 0.29516631 13553347
0.71016669 -0.025538914 0.29506305 13553347
0.70852774 -0.015022354 0.2954419 13092540
0.71000004 -0.018468898 0.29125497 13224639
0.70764303 -0.005570095 0.29484171 12829368
0.70676321 0.0041907369 0.29499748 12566196
0.70697236 0.014296962 0.29539159 11974573
0.70782948 0.024358323 0.29504278 11645864
0.7087059 0.031655394 0.29421329 11777194
0.71073693 0.036660645 0.29552022 11645607
0.71380544 0.044287156 0.29494998 12040621
0.71702927 0.054985851 0.29480529 11842984
0.71880645 0.064394861 0.29493591 11579812
0.72000003 0.069002971 0.29796973 11316642
0.72167748 0.075227961 0.29480508 11842471
0.72703224 0.084955961 0.29501584 12236972
0.72900003 0.090686046 0.29264933 12500144
0.73071885 0.095712401 0.29526427 13026488
0.73214829 0.10460094 0.2951515 13289918
0.7360667 0.11443187 0.29462287 12237746
0.74000001 0.11919462 0.29793134 12369333
0.73900002 0.12134023 0.29060867 12237749
0.74195004 0.12478156 0.29498369 12040370
0.77400005 0.1397707 0.29350063 9014146
0.78799999 0.14660478 0.29552937 9014401
0.79000002 0.14820823 0.29956782 8949121
0.78850007 -0.18064207 0.30361491 9144705
0.77500004 -0.17392071 0.30204529 8947326
0.78180003 -0.17691173 0.30524284 9210498
0.74800003 -0.1608572 0.30202895 11512997
0.7548334 -0.16380195 0.30478361 11446947
0.76000005 -0.16699615 0.3042044 8946813
0.73900002 -0.15200171 0.30444878 11841962
0.74380004 -0.15624332 0.30480191 11644326
0.73387104 -0.14491162 0.30449554 12631735
0.73204017 -0.13514684 0.30500913 12960957
0.73200023 -0.12571435 0.30499226 13488327
0.73200023 -0.1154326 0.30499226 13224641
0.73173356 -0.1051137 0.3048816 13224129
0.72900003 -0.090213776 0.30118236 12565939
0.73076487 -0.094961755 0.30553424 12895163
0.72692591 -0.084793516 0.30495727 12236718
0.73000002 -0.088628583 0.30928573 13224639
0.71900004 -0.070461169 0.3046253 11842218
0.72155565 -0.075845115 0.30501944 12039596
0.71825719 -0.064578168 0.30503127 11908011
0.71548152 -0.054981757 0.30449885 12039597
0.71200013 -0.045534845 0.30514473 12105904
0.70900005 -0.038775213 0.30287817 12106162
0.71038234 -0.035329133 0.30523071 12632505
0.71050006 -0.025551418 0.30518371 12698554
0.70815629 -0.014951457 0.3057285 12237745
0.71000004 -0.01971549 0.3041364 11974574
0.70644444 -0.0055611571 0.30509353 11645609
0.70599985 0.0043605836 0.30490202 11316644
0.70715171 0.014327026 0.30512467 10856350
0.70831037 0.023674008 0.30512819 10659228
0.7105 0.02850613 0.30850941 9146502
0.70900005 0.030769642 0.30171633 10132625
0.71084017 0.034511462 0.3050293 10527384
0.71368968 0.044655301 0.30387184 10461847
0.7173714 0.054935541 0.30465555 10856346
0.71899992 0.062688179 0.3052454 10988191
0.72028577 0.067802452 0.30541095 11054242
0.72253579 0.074481353 0.30497569 11580328
0.72725934 0.083538026 0.3045924 11777449
0.73014289 0.088630669 0.30641666 11448998
0.73159397 0.095078714 0.30514494 11711142
0.73413634 0.10515425 0.30432314 12697524
0.73743755 0.1133185 0.30423674 11909038
0.74157149 0.11829005 0.30526403 11974578
0.74457139 0.12288109 0.30412951 12040114
0.78866673 0.14426553 0.30275556 9014657
0.79072726 0.14716715 0.30573294 8948864
0.79357147 -0.18260519 0.31365019 9079425
0.77516669 -0.17275052 0.31541523 9210497
0.78583336 -0.17788641 0.3154639 9078912
0.75700003 -0.16190776 0.31452197 10788504
0.76350003 -0.16598135 0.31543174 8946814
0.77100003 -0.16941319 0.31763196 9144705
0.7447778 -0.15299919 0.31341723 12500149
0.75275004 -0.15791067 0.31584778 12170415
0.73500001 -0.14430222 0.31157526 12894908
0.74100006 -0.147209 0.31568092 8881279
0.73263639 -0.1347892 0.31133869 14079696
0.73245454 -0.12540242 0.3111057 14014673
0.73233336 -0.11548593 0.31113186 13027520
0.73200005 -0.10515085 0.31098989 12434612
0.73100001 -0.094351627 0.31219858 11119009
0.72825003 -0.085009933 0.31152734 11316386
0.73000002 -0.088628583 0.31184915 11711401
0.72333336 -0.076543279 0.31097546 11908522
0.71125001 -0.032653894 0.31174874 10263443
0.70900005 -0.021347506 0.31034717 11514023
0.71090907 -0.025946349 0.31209069 10461336
0.708 -0.016111305 0.31132978 9869198
0.70650005 -0.0072150035 0.3109068 9934219
0.70900005 0.023466604 0.31034717 6645344
0.72450006 0.077406332 0.31034762 11251108
0.7280001 0.083463304 0.31127843 9738124
0.73066664 0.088042796 0.31184912 10856861
0.73225003 0.095377915 0.31109583 12238514
0.74300003 0.099385127 0.31653297 12041394
0.73640001 0.10195061 0.3123433 11974829
0.74350005 0.10728271 0.31283122 11579299
0.75100005 0.10836786 0.318183 12829881
0.74599999 0.11350945 0.31332159 12961468
0.75300002 0.11658607 0.31726933 13027776
0.74700004 0.12090506 0.31124207 11908786
0.75800002 0.12179704 0.31848821 13093828
0.76100004 0.12851557 0.31529373 8487545
0.78825003 0.1437293 0.3178173 8882558
0.79040009 0.14680344 0.31489131 8948607
0.77733344 -0.17141271 0.32387987 9210756
0.78600001 -0.17570274 0.32587752 9211011
0.76250005 -0.16308467 0.32037604 9736075
0.77380002 -0.16749173 0.3256709 9210500
0.75850004 -0.1560114 0.32224903 8421242
0.76000005 -0.15632111 0.32377532 8553086
0.77000004 -0.15297021 0.32983807 8816515
0.75850004 0.10767384 0.32313627 11843245
0.75700003 0.11455008 0.32072508 13488068
0.764 0.11418884 0.32574192 10066577
0.77000004 0.11561479 0.32983807 8092785
0.7865001 0.1374273 0.32678115 8816765
0.78800005 0.14193133 0.32242137 8882558
0.79083347 0.14527909 0.32642135 8817022
0.77700001 -0.16406672 0.33222872 9013892
0.77200007 -0.15638043 0.33069479 8882307
0.77800006 0.10953073 0.33508629 8487800
0.77485716 0.11582237 0.33321595 8356214
0.78480005 0.114163 0.33985227 8488313
0.77650005 0.12295481 0.33262241 8028019
0.78462505 0.12631242 0.3370226 8422263
0.78816676 0.13341163 0.33423722 8488314
0.79220003 0.13712399 0.33638304 8619899
0.78850001 0.11562078 0.34299377 8356727
0.78833342 0.1239048 0.34138235 8488570
