# .PCD v0.7 - Point Cloud Data file format
VERSION 0.7
FIELDS x y z rgb
SIZE 4 4 4 4
TYPE F F F U
COUNT 1 1 1 1
WIDTH 390
HEIGHT 1
VIEWPOINT 0 0 0 1 0 0 0
POINTS 390
DATA ascii
0.79812503 0.20274958 -0.24479796 5262142
0.79860008 0.20216867 -0.23709269 4998716
0.80433339 0.20236687 -0.23163635 5131074
0.81350005 0.20784508 -0.23142295 5065023
0.81999999 0.21142547 -0.23231284 5130814
0.80257142 0.19807532 -0.22576256 8881536
0.80683327 0.20252393 -0.22449172 5130817
0.81300002 0.20740129 -0.22462267 5262143
0.81900007 0.21116762 -0.22436036 5393471
0.8203333 0.21215205 -0.22728591 5328448
0.80193758 0.19738358 -0.21499389 9342084
0.80449998 0.20272119 -0.21474278 5327681
0.80043751 0.19689599 -0.20463556 8289140
0.80191666 0.20254008 -0.20419152 5130045
0.80025005 0.19837137 -0.19674309 5130819
0.80144447 0.20205587 -0.19620413 5063996
0.49583337 -0.062328186 -0.091141827 15197405
0.49276671 -0.054639015 -0.092115328 16645876
0.48841664 -0.04224309 -0.091779821 16776947
0.49034992 -0.046849392 -0.092602141 16711411
0.48708588 -0.035191528 -0.091863312 16710638
0.48818746 -0.027768897 -0.091807798 16380903
0.49124998 -0.022896273 -0.092771664 15920353
0.49287504 -0.017508011 -0.092184618 14670031
0.49900001 -0.071096607 -0.082378373 16579057
0.50253844 -0.074500561 -0.08182884 16447215
0.49594745 -0.065171257 -0.084512509 16579827
0.48811114 -0.051389553 -0.082422748 16711669
0.49188522 -0.055683583 -0.085613959 16645876
0.48666114 -0.044604901 -0.084507599 16711411
0.49000001 -0.048401799 -0.088731103 16711669
0.48569858 -0.03509023 -0.084804527 16644077
0.48671219 -0.025252294 -0.084617883 15985890
0.49066666 -0.021282056 -0.088852473 15788511
0.4880625 -0.017049413 -0.082144074 15196374
0.4909687 -0.015467552 -0.085510954 14341322
0.49000001 -0.0090180701 -0.080892593 11513251
0.5068571 -0.08145541 -0.073592052 15853797
0.4978095 -0.072093926 -0.074222147 16513265
0.50329417 -0.076703832 -0.075671002 16380909
0.48812506 -0.061120376 -0.072156407 16448241
0.49285719 -0.065510139 -0.075496145 16514034
0.48524565 -0.054595575 -0.074802749 16645877
0.49033335 -0.058765765 -0.078461073 16514547
0.47800004 -0.043842137 -0.071403533 16711153
0.48194239 -0.045345269 -0.076247975 16711155
0.47733334 -0.034856606 -0.071540259 16578027
0.48142245 -0.034781415 -0.076662369 16578028
0.47860008 -0.02706914 -0.070943907 16051683
0.48214284 -0.024351055 -0.075598493 15788768
0.48513639 -0.014841967 -0.075177193 14407629
0.49000001 -0.011312267 -0.079171941 12697010
0.48527786 -0.0064092353 -0.073619097 11185056
0.50383335 -0.080827437 -0.068044931 15524832
0.49544188 -0.0743201 -0.064571522 16314858
0.50188887 -0.078428 -0.067518108 15985637
0.47833338 -0.060687337 -0.060863871 16514289
0.48516667 -0.064469576 -0.064768218 16513520
0.49066666 -0.068123356 -0.067665868 16447470
0.47583786 -0.054010637 -0.06340076 16645875
0.4813461 -0.056319337 -0.0674164 16580084
0.46900004 -0.042197097 -0.060721427 16645619
0.47319055 -0.045424353 -0.065125242 16711411
0.46899998 -0.036263008 -0.060773712 16644590
0.47261688 -0.034993507 -0.065455288 16578283
0.47452065 -0.025314061 -0.065070987 15854305
0.47657901 -0.01591187 -0.06405136 14736081
0.48055559 -0.013280482 -0.068459414 14210250
0.47875008 -0.0068482254 -0.061804157 12104620
0.48053122 -0.0065937215 -0.065868028 11316387
0.48655558 -0.072299376 -0.054003891 16249064
0.49205557 -0.075101219 -0.057236042 16051686
0.47672978 -0.063221239 -0.053955421 16513262
0.48152179 -0.067138426 -0.056043927 16447213
0.46815786 -0.051763382 -0.052745178 16645875
0.47212505 -0.055906344 -0.055700008 16580082
0.4661127 -0.044683069 -0.054941151 16711411
0.47000003 -0.04881015 -0.059436262 16646132
0.46499994 -0.034756903 -0.054952104 16578797
0.46629512 -0.025257604 -0.054538175 15723232
0.47027275 -0.023466414 -0.059070647 15657183
0.46757576 -0.016663011 -0.052664924 14670802
0.47159526 -0.014380671 -0.056566864 14078665
0.4760741 -0.0074750809 -0.054881692 11775911
0.48042861 -0.004342814 -0.054810207 11908011
0.47525004 -0.070771001 -0.044810109 15920100
0.48066673 -0.071484916 -0.049158111 15920612
0.46866667 -0.060923398 -0.041896511 16447726
0.47312909 -0.065290987 -0.04508188 16381163
0.48000002 -0.069513209 -0.049463972 16381420
0.45900002 -0.050354101 -0.040852759 16580082
0.46513569 -0.054744251 -0.044506367 16579825
0.47050002 -0.058637872 -0.048348337 16513776
0.45802858 -0.043877825 -0.042606946 16645874
0.46209094 -0.045926392 -0.047229145 16711410
0.45640332 -0.035043851 -0.043783594 16644590
0.46052378 -0.035120159 -0.04899779 16578797
0.45706779 -0.025545809 -0.04342521 15723745
0.46151724 -0.023766585 -0.048307076 15525853
0.45877779 -0.017989861 -0.041668728 14671572
0.46398509 -0.014594488 -0.045241237 13947335
0.46662068 -0.0075707403 -0.042929102 11579044
0.47211111 -0.0067156213 -0.04816097 11513252
0.47480002 -0.070983186 -0.035025276 15327962
0.4660244 -0.063104779 -0.034139097 16117990
0.47168756 -0.067830309 -0.036213726 15722976
0.45700005 -0.053491715 -0.034164432 16513774
0.46200004 -0.057407957 -0.036603697 16513518
0.44868746 -0.043380924 -0.031269774 16645360
0.45327276 -0.045370333 -0.035898134 16645617
0.44806814 -0.034708895 -0.032254025 16578797
0.45183337 -0.035139084 -0.037196487 16644590
0.44855183 -0.026141431 -0.031921715 15789280
0.45247373 -0.024249513 -0.036579069 15526109
0.44900003 -0.019825786 -0.03050267 14802899
0.45478573 -0.016501296 -0.034633283 14211020
0.46208331 -0.012016788 -0.037792411 12895675
0.46485725 -0.0080102133 -0.037954513 11447972
0.47500002 -0.071013086 -0.027821034 14604239
0.45862496 -0.062347461 -0.022971557 15788511
0.46243757 -0.064739354 -0.026143419 15656926
0.47100005 -0.068578936 -0.028687032 15459548
0.44841668 -0.051205367 -0.022941351 16513259
0.45420969 -0.055719431 -0.025252605 16381417
0.44511682 -0.044494379 -0.024793502 16645102
0.4390001 -0.033534966 -0.021048285 16447210
0.44272476 -0.035261065 -0.025654642 16578797
0.43900007 -0.027605886 -0.020916527 15855587
0.44346261 -0.024935123 -0.025322855 15591902
0.44671437 -0.017246293 -0.024551408 14276557
0.45213339 -0.01269192 -0.026553119 12960440
0.45632148 -0.0080903135 -0.024710571 11447712
0.44900003 -0.061607689 -0.011319782 15459547
0.45441183 -0.062871225 -0.01636282 15459547
0.44551429 -0.054339528 -0.01440306 16183526
0.45150003 -0.058410574 -0.017463077 15985890
0.4372941 -0.044023324 -0.012991232 16578796
0.44159999 -0.046356425 -0.017545855 16578796
0.43543425 -0.034983423 -0.014766463 16513003
0.43589571 -0.025026334 -0.014658917 15526365
0.44025004 -0.020985082 -0.019086884 14802899
0.43730003 -0.017293785 -0.012582506 14079177
0.44378188 -0.014329107 -0.016568182 13289917
0.44900003 -0.0093146143 -0.013684794 10526867
0.45175004 -0.0081146825 -0.016217753 12105386
0.45416987 -0.064278051 -0.0041027996 14670032
0.43745002 -0.051831711 -0.0035069319 15920353
0.44529319 -0.056590971 -0.0052143796 15656925
0.42839998 -0.041882738 -0.0010231714 16447208
0.4323625 -0.045147747 -0.004860484 16381160
0.42691994 -0.034824539 -0.0023424092 16446952
0.4305228 -0.034977138 -0.0073280456 16512491
0.42677209 -0.025555136 -0.0024080933 15526365
0.43067443 -0.024336599 -0.0073835822 15328987
0.42841664 -0.018498072 -0.00093955867 14079689
0.4319559 -0.015651692 -0.0047137267 13158331
0.44100004 -0.011728454 -0.0093114115 12106158
0.45522925 -0.064295113 0.0047254697 14275789
0.42900002 -0.050075874 0.0090193003 15854558
0.43441471 -0.05264993 0.005032816 15657181
0.44456002 -0.058058955 0.0045583034 15130583
0.425473 -0.044099607 0.0060835378 16249317
0.43043745 -0.047977563 0.0025621231 16117731
0.4182106 -0.033153314 0.009049234 16249573
0.42232108 -0.035311703 0.0045374781 16381159
0.41814819 -0.025930664 0.0087175388 15460570
0.42217809 -0.024650076 0.0041569606 15329241
0.42454669 -0.016447812 0.0053588976 13027001
0.43000001 -0.011940368 0.0014905414 10724503
0.44900003 -0.06081935 0.010490898 14407632
0.45200002 -0.062283855 0.010560993 14276046
0.42445233 -0.052642219 0.016741967 15196375
0.43377781 -0.054818533 0.011996469 15196375
0.44350001 -0.05877801 0.011140779 14802131
0.41702706 -0.04306056 0.017075093 16117476
0.42232153 -0.046389967 0.013745702 15920097
0.41440007 -0.035086431 0.015005307 16315111
0.40900001 -0.027155593 0.019131063 15657695
0.41392145 -0.024817413 0.014807782 15197400
0.41723531 -0.017472059 0.015689185 12829367
0.42047372 -0.015715944 0.01277702 12500916
0.41850001 -0.051299535 0.028882142 14275789
0.42115799 -0.052275956 0.023667898 14801874
0.40849999 -0.04138739 0.027792655 15920097
0.41470587 -0.045221433 0.024635857 15722718
0.40662104 -0.034360338 0.025583208 16183525
0.41105261 -0.037397806 0.02135309 16183269
0.40608278 -0.025096783 0.024728308 15131351
0.41050002 -0.020527687 0.02016221 14276557
0.40829411 -0.019433424 0.025673278 12763573
0.41190478 -0.016669622 0.024709577 12171694
0.41509524 -0.050906312 0.034723416 13157310
0.40553132 -0.043101244 0.035635065 15459802
0.41254541 -0.047923215 0.03386328 14538961
0.39776927 -0.032941937 0.037680358 15986401
0.40142852 -0.035913136 0.033525851 16052451
0.39736617 -0.025640946 0.037279662 15262936
0.40113118 -0.024451025 0.032353252 14671055
0.39875001 -0.018773388 0.038954679 13816262
0.40345648 -0.01750415 0.035157975 12303279
0.41100001 -0.015582123 0.031410389 11842984
0.39614642 -0.042373437 0.046500649 13551294
0.40236008 -0.043811038 0.041458864 14867411
0.39469677 -0.034958113 0.045176383 13288892
0.40000001 -0.039199535 0.040247448 16183269
0.39361143 -0.02474951 0.045120578 11645096
0.39518464 -0.01722106 0.044912707 13618626
0.39269385 -0.042012505 0.055722237 14670028
0.38753569 -0.033867199 0.055706274 2567463
0.39073536 -0.037002187 0.052630052 5131847
0.38696858 -0.025295373 0.055009078 2632999
0.39033332 -0.022563882 0.050392304 2830120
0.38832143 -0.018704111 0.057185829 7106148
0.39197889 -0.014598601 0.05457468 12763316
0.39382073 -0.0060709608 0.056923587 11908007
0.39900002 0.00012924365 0.058361121 10921112
0.40000001 0.0010659747 0.059443794 10790296
0.39362648 -0.04362436 0.065474547 14472654
0.38564596 -0.03449681 0.065193862 3422258
0.39000002 -0.039132543 0.061609685 12499891
0.38362086 -0.025020279 0.065083914 2566949
0.38684946 -0.016449474 0.065514855 9407618
0.39084861 -0.012127632 0.06350141 13552319
0.3933391 -0.0054963715 0.065292343 13223611
0.39658335 0.0010948136 0.066008173 12236715
0.40000001 0.002002382 0.061316609 11118491
0.39425004 -0.050634343 0.077503249 14670033
0.38884208 -0.041412085 0.076637104 13222331
0.39266303 -0.045921277 0.07476142 14472654
0.37900001 -0.030709028 0.079613201 2238755
0.38405594 -0.035042327 0.075002059 4671810
0.37873331 -0.024584737 0.078980349 2041375
0.3813138 -0.024906058 0.074200779 2238754
0.37900001 -0.019396642 0.079835013 2698536
0.38546517 -0.015183635 0.075031698 9079165
0.38899997 -0.008657421 0.076242514 12960439
0.39142385 -0.0041507599 0.07446111 13223353
0.39396289 0.0033113083 0.075846419 13025975
0.39866671 0.010706636 0.078999937 12763316
0.40075001 0.012797059 0.079491653 12697780
0.39189297 -0.051118203 0.085859291 14735569
0.38850769 -0.042986702 0.085278273 13485502
0.39048943 -0.047663067 0.084451832 14669519
0.37780854 -0.032246467 0.085659057 2238755
0.38311428 -0.03695127 0.084465653 6645088
0.37706244 -0.025035636 0.085157871 1843739
0.37713891 -0.018197738 0.08625266 3026468
0.38482851 -0.014027334 0.083496548 9868681
0.38876703 -0.0062172739 0.085442647 12236713
0.39031819 -0.0021987315 0.082176574 13158328
0.39299995 0.0047939485 0.084696949 12500143
0.39728895 0.012634873 0.08467713 12368814
0.40100002 0.015011273 0.082542807 12171693
0.40900001 0.020239487 0.087111883 12040363
0.41250002 0.021378355 0.089305259 11974057
0.39120007 -0.051037945 0.092538998 14209483
0.38852388 -0.044661615 0.092084095 13024951
0.39000002 -0.049023345 0.09189076 14275275
0.37363636 -0.032642968 0.093800373 2239011
0.38325003 -0.038347855 0.091046825 8223347
0.37341246 -0.02482624 0.094367534 2172962
0.37480882 -0.016778709 0.095274016 4407864
0.38512504 -0.011594681 0.092166483 8947322
0.38685718 -0.0076366696 0.091967806 9473923
0.41737503 0.026396152 0.09121678 10855831
0.42000002 0.02914126 0.092404425 11053720
0.41800001 -0.05074897 0.10566404 8551535
0.41900006 -0.049497139 0.10434741 7366751
0.42138106 -0.046130717 0.10675532 7761764
0.37650001 -0.0320489 0.10134674 1975838
0.38186944 -0.032795344 0.10716203 1843738
0.37681484 -0.024479268 0.10159592 1844251
0.38315526 -0.025701474 0.10726789 791564
0.37459096 -0.016261959 0.10130618 4604981
0.42260003 -0.046359472 0.11078411 8354156
0.37434492 -0.032918934 0.11525083 1777944
0.3805556 -0.031353541 0.11114529 1054479
0.37195432 -0.025453562 0.11607686 857356
0.38257146 -0.026952406 0.11129045 791820
0.37129426 -0.017621666 0.11596446 1645069
0.36900014 -0.032235041 0.12733367 1383441
0.37042552 -0.032942992 0.12365425 1712407
0.36870226 -0.026013309 0.12768993 1317906
0.37068623 -0.02438925 0.12367048 1646872
0.37166974 -0.016255479 0.12502013 1579793
0.35578877 -0.032822143 0.13614815 1514772
0.36688238 -0.031405587 0.1318837 2501411
0.3700833 -0.033812981 0.13181654 2303519
0.35627228 -0.025206832 0.13657498 1317393
0.36480007 -0.024347235 0.13195626 1515029
0.35572863 -0.017147304 0.13725917 1514259
0.36430007 -0.017219283 0.13360362 988430
0.37099996 -0.016653715 0.1313566 1317393
0.34835991 -0.032426056 0.14729638 1580307
0.35177776 -0.03308804 0.14227682 1711894
0.34802368 -0.024800962 0.14666995 1711636
0.35145566 -0.025146913 0.14209746 1711893
0.34822589 -0.016151724 0.14686204 1711380
0.35107547 -0.01682125 0.14261484 1645845
0.34385541 -0.032356258 0.15484831 1777687
0.34385714 -0.029672721 0.15521637 1909016
0.80699992 0.17532654 0.15574077 10592919
0.80648154 0.18500401 0.1548443 10658712
0.33778256 -0.031882025 0.16656986 1975581
0.34011549 -0.031738207 0.16198334 1909788
0.33727705 -0.025023228 0.16661125 1975322
0.34007692 -0.02597905 0.16294509 1909529
0.33707589 -0.015678609 0.16604431 1711638
0.80526698 0.15484287 0.1649095 10592919
0.80485749 0.16499084 0.16496079 10592919
0.80429053 0.1751835 0.16456041 10592918
0.80486232 0.18497828 0.16499434 10592918
0.80707681 0.19472583 0.16455863 10658455
0.33276042 -0.03208293 0.17522292 2567461
0.32900003 -0.02130485 0.17913248 2107166
0.33283439 -0.024939712 0.17484049 2172703
0.32900003 -0.018378109 0.17883539 1844251
0.33224458 -0.015358534 0.17481808 1909274
0.33150002 -0.0095447851 0.17764916 1974808
0.80300003 0.14688744 0.17102896 10527126
0.80345458 0.15500516 0.17249273 10527126
0.8029629 0.1652606 0.17457114 10527126
0.80444014 0.17540073 0.17510301 10527126
0.80679995 0.18535963 0.17561729 10527126
0.80833334 0.19280566 0.17468967 10592919
0.32999998 -0.031137891 0.18200313 857101
0.32900009 -0.021972351 0.1825984 1186834
0.33011937 -0.026665051 0.18315275 1317652
0.32900026 -0.01738386 0.18267532 1054735
0.33050001 -0.012311549 0.18272199 857099
0.331 -0.0090750754 0.18227489 791051
0.80500007 0.1585604 0.18276206 10527126
0.80570835 0.16561498 0.18465619 10461333
0.80655557 0.17544144 0.18521598 10527126
0.80804545 0.1852147 0.1849165 10527126
0.80875003 0.14935906 0.19686709 10395539
0.80877781 0.1532038 0.19540074 10461333
0.80900002 0.16692379 0.1912457 10527126
0.80900002 0.17449935 0.1912457 10527126
0.80900002 0.14987884 0.20071512 10527124
0.81760007 -0.22865114 0.34869519 2959915
0.80664283 -0.22728483 0.35753721 2699304
0.81400001 -0.2250136 0.35496098 2500901
0.81800002 -0.21995461 0.35997418 987665
0.80514723 -0.2247562 0.36495954 2106912
0.81100005 -0.22091903 0.36069086 2633512
0.80733341 -0.21792501 0.36682865 2501925
0.81450009 -0.21678418 0.36510327 2369829
0.80556679 -0.225096 0.37524885 1186067
0.80766672 -0.21733211 0.37417737 2238755
0.81442118 -0.21346632 0.37535203 2304291
0.8071667 -0.22554217 0.38544068 857358
0.80880004 -0.21899542 0.38319141 1317653
0.8140313 -0.21411133 0.38537717 1843484
0.80613881 -0.2252562 0.39532724 792078
0.80748004 -0.21629328 0.39571881 1054482
0.81272233 -0.2120823 0.39337155 1317143
0.81687504 -0.20889364 0.39652631 1448215
0.80596548 -0.22537042 0.40549228 792335
0.80728567 -0.21509184 0.40475687 857616
0.81016666 -0.21057785 0.40489128 988692
0.81575006 -0.20800646 0.40457386 1119508
0.8083334 -0.2253971 0.41359448 726542
0.81033331 -0.22442634 0.41814777 791822
0.80850005 -0.21787299 0.4111557 726799
0.81224006 -0.21459565 0.41600469 857360
0.81755561 -0.20834953 0.41400644 790543
0.80850005 -0.2256797 0.42889944 331273
0.81070846 -0.22487164 0.42437613 660237
0.80900002 -0.21942843 0.42987505 462604
0.81317151 -0.21456727 0.42512456 791569
0.81900007 -0.20871973 0.42176765 527888
0.82244831 -0.20461178 0.42520115 5791064
0.80579996 -0.22502604 0.4349089 725776
0.80799997 -0.21755542 0.43458125 791312
0.81409526 -0.21317773 0.43430328 921872
0.82000005 -0.21089421 0.43955934 1052941
0.80489665 -0.2255889 0.44471765 791567
0.81000006 -0.22159591 0.44936866 988688
0.80774999 -0.21861593 0.44197464 922640
0.81440002 -0.2161819 0.44481283 1053455
0.82066673 -0.21234594 0.44610792 5790292
0.80556256 -0.22615267 0.4533875 856331
0.81300002 -0.22203176 0.45522156 1448467
0.82000005 -0.22049239 0.4587557 5330508
0.81774998 -0.21845058 0.45271009 1053711
0.82295471 -0.21418665 0.45541608 7369578
0.81800008 -0.22186956 0.46242532 8356215
0.8203333 -0.22058201 0.46278381 7895922
0.82495999 -0.2145589 0.46415615 8027252
