# .PCD v0.7 - Point Cloud Data file format
VERSION 0.7
FIELDS x y z rgb
SIZE 4 4 4 4
TYPE F F F U
COUNT 1 1 1 1
WIDTH 1031
HEIGHT 1
VIEWPOINT 0 0 0 1 0 0 0
POINTS 1031
DATA ascii
0.68550009 -0.093122147 -0.17201032 16711416
0.67900002 -0.084026277 -0.17011262 16580084
0.68255562 -0.086066753 -0.17206937 16711671
0.78810519 -0.035574365 -0.17453222 13355455
0.68266672 -0.10046136 -0.16304292 16579060
0.67525005 -0.092652678 -0.16285473 16382708
0.68273342 -0.095784456 -0.16700126 16645880
0.66800004 -0.083449267 -0.16110155 16711416
0.67390907 -0.084759496 -0.16568726 16645366
0.6680001 -0.077189378 -0.16110156 15855080
0.67333341 -0.074912578 -0.1650832 15921384
0.68099999 -0.070721619 -0.16822118 16052970
0.68592304 -0.067834638 -0.16480371 15395297
0.69347626 -0.063858733 -0.16407469 15066332
0.69687504 -0.058094002 -0.16235474 14868952
0.70050001 -0.054708596 -0.16155952 15131867
0.75900006 -0.042398132 -0.16350289 13026490
0.78400004 -0.040123925 -0.16888835 12960697
0.76600003 -0.039202712 -0.16142437 13552321
0.77700001 -0.032489792 -0.16010453 13420735
0.78561538 -0.03397841 -0.16711916 13289405
0.78824985 -0.026315462 -0.16417722 13092283
0.66900003 -0.10001632 -0.15194589 15723238
0.67400002 -0.10076383 -0.15545061 15986664
0.6645385 -0.093846127 -0.15333065 16381937
0.67228574 -0.0962402 -0.15808786 16382192
0.65627271 -0.084710188 -0.15240799 16645880
0.66173339 -0.085196607 -0.15670095 16580087
0.65600008 -0.077147037 -0.15264234 16184302
0.66283339 -0.075685792 -0.15688379 16052716
0.67366672 -0.071273357 -0.1587881 15132124
0.68700004 -0.068933479 -0.15925068 15987177
0.69389474 -0.064064272 -0.15682778 14606294
0.69666672 -0.057668786 -0.15537575 14408915
0.70100003 -0.052381527 -0.15486975 14474708
0.70550007 -0.047664609 -0.15156332 14540245
0.75400001 -0.033293188 -0.15006988 13288379
0.76100004 -0.032711521 -0.15235385 13091258
0.77400005 -0.032724399 -0.15767395 13223356
0.77550006 -0.028796151 -0.15435725 13025977
0.78755546 -0.024116583 -0.15551597 12894904
0.65647066 -0.093354538 -0.14422163 15920616
0.66108328 -0.097287118 -0.14653836 15591395
0.64623082 -0.083581291 -0.14305314 16645880
0.65126312 -0.086292982 -0.14631383 16579831
0.63875008 -0.073811993 -0.14096339 16645364
0.64387506 -0.076757967 -0.14426842 16579573
0.65060008 -0.075941168 -0.14928986 16118509
0.69675004 -0.056656655 -0.14805168 14014157
0.70233339 -0.052793443 -0.14580965 14014157
0.70658624 -0.046197705 -0.14462537 14145743
0.71125007 -0.041395839 -0.14322515 14342865
0.7155 -0.0399682 -0.14156908 14211536
0.72000003 -0.038534034 -0.14161727 14277329
0.73266673 -0.034639161 -0.1426834 14342865
0.74350005 -0.033699833 -0.14624244 14671317
0.773 -0.023276843 -0.14390215 12368562
0.78780013 -0.020769032 -0.14794576 12565683
0.77700001 -0.019756995 -0.14191481 12171181
0.78842866 -0.017410269 -0.14479378 12434353
0.67420006 -0.1014258 -0.13607778 14932695
0.68489474 -0.10408393 -0.13352698 14867416
0.69100004 -0.10762141 -0.13213952 14867672
0.65420002 -0.093112603 -0.13643317 15656932
0.66400003 -0.095533021 -0.13401206 14867417
0.67322224 -0.097321481 -0.13258871 14538452
0.68275005 -0.097278729 -0.13069239 14275022
0.63670003 -0.082519487 -0.13373084 16580088
0.64342105 -0.086210884 -0.13606696 16381938
0.6275 -0.072697207 -0.13132052 16711672
0.63308007 -0.075322077 -0.13567258 16645622
0.62740004 -0.066772357 -0.13251287 15657958
0.6314286 -0.06800504 -0.13707975 15789286
0.70725006 -0.045299023 -0.13910948 14211536
0.71900004 -0.041285839 -0.13412677 14079950
0.72033334 -0.04023819 -0.13325126 14079950
0.72312009 -0.03496822 -0.13471235 14079950
0.73166674 -0.030594205 -0.13706297 14343122
0.73159999 -0.027505955 -0.13156593 14211279
0.74600005 -0.02420795 -0.13450645 14408145
0.75400001 -0.024467552 -0.13771398 14606294
0.76200002 -0.022943297 -0.13917515 13355457
0.76500005 -0.01945187 -0.13614133 12500148
0.77350008 -0.018762026 -0.13855882 12105388
0.78900003 -0.010826807 -0.13117711 11776425
0.70654553 -0.11179589 -0.12392772 14604757
0.71150005 -0.1146983 -0.12079003 14670550
0.695647 -0.10333125 -0.12724178 14472658
0.70345002 -0.10607591 -0.12329036 14275792
0.68500006 -0.095993958 -0.12992232 14275022
0.69583338 -0.097918272 -0.12490991 14275023
0.70000005 -0.098915368 -0.12129635 13354948
0.62416667 -0.081377618 -0.12472406 16514039
0.63300008 -0.083154514 -0.12894845 16514296
0.61621433 -0.073786601 -0.12213348 16645880
0.62261111 -0.075674996 -0.12667693 16645880
0.61393332 -0.065821745 -0.12210073 16250352
0.62112498 -0.067229785 -0.12762377 16118766
0.71900004 -0.040584508 -0.12753426 14079950
0.71900004 -0.037919454 -0.12318601 14277329
0.72159261 -0.033859547 -0.12591468 14014157
0.72653854 -0.027106669 -0.12354366 14014157
0.7324 -0.023306852 -0.1255416 14014157
0.74400002 -0.020659612 -0.12892067 14540501
0.75900006 -0.016634056 -0.12796623 14342352
0.76400006 -0.014060829 -0.12523215 14539731
0.78500003 -0.010771918 -0.12867439 13618629
0.77766675 -0.0052065724 -0.12140286 11579302
0.78600007 -0.0052634133 -0.1253441 11908266
0.78850007 0.0024099268 -0.12217236 11842984
0.7766667 -0.13065815 -0.11276445 13222586
0.78680009 -0.13383819 -0.11423038 13091001
0.73500001 -0.12020729 -0.11015467 13156541
0.77300006 -0.1282317 -0.11404014 13156795
0.70900005 -0.11097573 -0.1195363 14407378
0.71540004 -0.11373818 -0.11491555 14538964
0.72466677 -0.11738972 -0.11143318 14802135
0.73200005 -0.11971666 -0.11141869 14472401
0.70559376 -0.10378916 -0.11560368 14275792
0.71116668 -0.10881776 -0.11324062 14407378
0.70318758 -0.097308099 -0.11443509 14078156
0.60650003 -0.081089541 -0.11255193 16447218
0.6121667 -0.081724457 -0.11754557 16052974
0.60570818 -0.075134158 -0.11293855 16580089
0.61135721 -0.075656965 -0.11789819 16645881
0.60429627 -0.06472484 -0.11383527 16381938
0.61033338 -0.067433134 -0.11838006 16645624
0.60266668 -0.058588531 -0.11337072 14736343
0.71800005 -0.04010785 -0.11937284 14343122
0.71899992 -0.035001922 -0.11594828 14343122
0.72016674 -0.031096565 -0.11622133 14013901
0.72511125 -0.025156584 -0.11476994 13882572
0.73085707 -0.020538792 -0.11613245 13882571
0.73446155 -0.017481439 -0.11350771 13816778
0.74536377 -0.013397547 -0.11392695 13816778
0.75325006 -0.011219388 -0.11554042 13816778
0.76200002 -0.010456308 -0.11955274 14473938
0.75739998 -0.0075544678 -0.11244847 13816265
0.76300001 -0.0046596238 -0.11300788 13816264
0.77314287 -0.003108925 -0.11690688 11908267
0.77566677 0.0031309004 -0.11277026 11711142
0.78553855 0.0064819185 -0.1165996 11711398
0.78758335 0.014238793 -0.11265919 11119777
0.77633333 -0.13060206 -0.10726148 13222843
0.78733343 -0.13429576 -0.10693815 13157820
0.77300006 -0.1282317 -0.10861132 13025977
0.71815383 -0.11189169 -0.10594619 14209999
0.72233337 -0.11475448 -0.1054424 14275792
0.73216671 -0.11688944 -0.10487593 14209999
0.74225008 -0.1196554 -0.1034193 14407378
0.70682365 -0.1025573 -0.1058327 14078156
0.71369231 -0.10734382 -0.10425704 14144206
0.70626664 -0.097651519 -0.10485221 14275278
0.58900005 -0.070131056 -0.10068335 16711675
0.59445012 -0.074401535 -0.10342844 16514039
0.6009286 -0.0743661 -0.10824971 16580089
0.58749998 -0.063878097 -0.10100146 16514295
0.59423816 -0.065387234 -0.10549215 16645625
0.60028565 -0.064450093 -0.10963891 16579574
0.58700007 -0.05844222 -0.10080109 15986922
0.59444451 -0.058254082 -0.10579248 15986666
0.60000002 -0.058096997 -0.10958673 16117996
0.72137511 -0.031006927 -0.10747593 14343122
0.72564715 -0.02674133 -0.10664988 13948364
0.73213351 -0.021699434 -0.10526555 14013900
0.7372728 -0.017961107 -0.10484385 13882058
0.74386954 -0.013154556 -0.10482001 13882057
0.74825001 -0.0085159615 -0.10425883 13881801
0.75444442 -0.005048533 -0.10433786 13881801
0.76099998 -0.0019798058 -0.10737179 13947594
0.75900006 0.00024585446 -0.10131373 13816006
0.76493341 0.0031177092 -0.1043773 13486528
0.77339995 0.0074936287 -0.10613523 10526356
0.77675009 0.012300239 -0.10368393 11513507
0.78546673 0.016685722 -0.10533726 10592664
0.78900003 0.020573268 -0.1043947 11842987
0.78600013 -0.13249215 -0.095457725 13025980
0.74600005 -0.12025993 -0.098704085 14605011
0.75300002 -0.12138837 -0.096102357 14341327
0.76100004 -0.12267801 -0.091781192 13880518
0.77660006 -0.1281046 -0.092757165 13222844
0.71900004 -0.11085778 -0.099340789 14144460
0.72322232 -0.11169423 -0.095777169 14078413
0.73337501 -0.11479305 -0.094240651 14144206
0.745 -0.11748497 -0.091599047 14078413
0.75250006 -0.11954615 -0.090754278 14078413
0.70900005 -0.10101703 -0.099618919 14736343
0.71610725 -0.10388707 -0.09545958 14078156
0.722 -0.1084218 -0.093470648 14275278
0.70900005 -0.097697467 -0.099618919 14144206
0.71428567 -0.097946741 -0.094974242 14209999
0.57657146 -0.071736 -0.092005976 16514293
0.58558339 -0.073494248 -0.097133428 16382451
0.59125006 -0.077667229 -0.09933795 16250352
0.5764091 -0.065009795 -0.092522971 16580086
0.58317649 -0.065824926 -0.097280756 16645881
0.57668185 -0.055838022 -0.092075728 15921129
0.58244443 -0.05503621 -0.09646076 15526372
0.57800001 -0.049877785 -0.092037469 14277075
0.73542869 -0.021158351 -0.097674064 14210765
0.73900002 -0.018790759 -0.097779065 13881800
0.74455559 -0.012535713 -0.096187815 13881801
0.74739999 -0.0068717888 -0.094283603 13881801
0.75218183 -0.0027956339 -0.095923133 13881801
0.75699991 0.0021186715 -0.094354063 14013387
0.76312506 0.0071752877 -0.095611781 14144973
0.77387512 0.013162704 -0.094694734 13289663
0.7842223 0.017799174 -0.095911533 11579045
0.78842866 0.021085765 -0.094696678 11447202
0.78711116 -0.13323611 -0.085206717 12893622
0.75875002 -0.12053905 -0.08618138 14144461
0.76487505 -0.12285789 -0.084196478 14078410
0.77609098 -0.12792104 -0.084928446 12959415
0.736 -0.11194786 -0.085601866 14209999
0.74562502 -0.11561897 -0.085127033 14012620
0.75233334 -0.11775845 -0.082808465 14144462
0.72507149 -0.10415764 -0.087562725 14275535
0.73185003 -0.10573123 -0.083039805 14078157
0.71900004 -0.097392231 -0.089241639 14538964
0.722 -0.09881226 -0.087582923 14275792
0.73150003 -0.09908542 -0.081374042 14276048
0.56721061 -0.072568581 -0.084034778 16447217
0.57100004 -0.072666347 -0.088249385 16316143
0.56538242 -0.065217674 -0.083535135 16514293
0.57141674 -0.064244784 -0.088872701 16580085
0.56534618 -0.055400651 -0.083920211 16381935
0.57160008 -0.055210829 -0.087941572 16118507
0.56425005 -0.048027862 -0.082092494 14473938
0.74492306 -0.011294883 -0.084812693 13816777
0.74699998 -0.0058757961 -0.084847935 13947851
0.75016671 -0.0015131604 -0.085208304 13881801
0.75625002 0.0029059988 -0.085013568 14013387
0.76116675 0.0082659079 -0.084677376 14144973
0.76625007 0.012208854 -0.084047876 14144973
0.77323085 0.01640529 -0.085531592 14342097
0.78000003 0.018512597 -0.089508921 14473938
0.77720004 0.020993639 -0.082639322 14144975
0.7860834 0.024951585 -0.084686905 12565685
0.79180002 0.028061684 -0.087156273 11381665
0.78783339 -0.13223043 -0.075037107 12827830
0.76314294 -0.12175061 -0.075836614 14341839
0.77344441 -0.12569208 -0.074875183 13222588
0.7816667 -0.1296694 -0.076888569 12893623
0.73800004 -0.11033191 -0.078641191 14209998
0.74457151 -0.11293584 -0.075104885 14275791
0.7552222 -0.11762382 -0.074288853 14144204
0.73533332 -0.10445195 -0.075324066 14407378
0.741 -0.10846826 -0.071734153 14670550
0.7342 -0.098763362 -0.07410787 14210255
0.55699998 -0.071102016 -0.073917039 16381167
0.56110001 -0.072195269 -0.077263474 16249069
0.54742861 -0.062436547 -0.071059234 16580342
0.55463344 -0.065086283 -0.074690558 16514035
0.56022221 -0.065685667 -0.078860372 16579829
0.54642105 -0.055231083 -0.071392201 16579316
0.5543226 -0.054993026 -0.07651154 16381679
0.56 -0.052912891 -0.079994455 16184300
0.54700005 -0.04933691 -0.070881851 15855337
0.55406249 -0.04675721 -0.074126869 15262687
0.56 -0.047669012 -0.078683488 14867929
0.74525005 -0.011098491 -0.077670589 13816776
0.74721736 -0.0046988344 -0.075023659 14014156
0.75000006 -0.0015128243 -0.079043224 13816776
0.74900001 0.00024261526 -0.071047425 14014157
0.75559264 0.0039216224 -0.075308852 13882057
0.76000005 0.0091420468 -0.074759617 13882314
0.76485002 0.013683903 -0.074788503 13750729
0.77085716 0.018038088 -0.075570755 13882571
0.77479994 0.022746749 -0.074220911 14014155
0.78372729 0.028277339 -0.076096982 14013899
0.78757143 0.034102552 -0.073786154 13026490
0.79141665 0.037002731 -0.076925687 10723992
0.79396003 0.044869866 -0.074386023 11184797
0.78722227 -0.13202631 -0.06535437 12761781
0.79363638 -0.13689381 -0.064896084 12696244
0.76700002 -0.12184969 -0.065569088 14341326
0.77480006 -0.12581167 -0.06533324 13814471
0.78233337 -0.12977999 -0.062306404 12367024
0.74716669 -0.11170273 -0.066497967 14604241
0.75558335 -0.11517563 -0.064300522 14472655
0.76085716 -0.11883847 -0.064409338 14538448
0.73900002 -0.10183135 -0.069233857 13814471
0.74290627 -0.10520086 -0.065031022 14933206
0.73799998 -0.098813705 -0.067122601 14209743
0.74000001 -0.098504432 -0.061531954 15130331
0.53756005 -0.063906848 -0.062595941 16382193
0.54326314 -0.064952992 -0.06723319 16382193
0.53562152 -0.054556344 -0.063879944 16579572
0.54190004 -0.055767544 -0.068275914 16579574
0.53478944 -0.046872485 -0.062891066 15921127
0.54219997 -0.048312001 -0.06780725 15986410
0.74500006 -0.010223032 -0.069795974 13619397
0.74633336 -0.0043182913 -0.066814624 14079948
0.74875003 0.0002425343 -0.065766081 14079948
0.75558335 0.0060747601 -0.065408118 13882313
0.75860006 0.011256469 -0.062546454 13619140
0.76308 0.015402648 -0.065059416 13816776
0.76900005 0.021251926 -0.063043229 14014155
0.77324003 0.025453772 -0.065637626 13948362
0.77722228 0.032599945 -0.063515447 14013641
0.78352952 0.036295563 -0.065746516 14144970
0.78820008 0.041957505 -0.06388054 13684420
0.79206669 0.046491675 -0.065430231 11579300
0.78900003 -0.14012124 -0.051753394 12433072
0.79475999 -0.14494438 -0.054666162 12564915
0.77850008 -0.13096657 -0.051976487 12630451
0.78580004 -0.13489822 -0.054977767 12630451
0.79133338 -0.13806662 -0.058699299 12564658
0.76666671 -0.12179673 -0.054776981 14473425
0.77376461 -0.1264443 -0.055018011 14012618
0.74900001 -0.110223 -0.058773473 15394269
0.75505567 -0.1135765 -0.055125013 14538448
0.76142865 -0.11867373 -0.054784097 14341839
0.74458617 -0.10447028 -0.054789625 15393757
0.73866671 -0.096309774 -0.054503769 15327450
0.7405715 -0.09758959 -0.052290302 15788001
0.52684617 -0.062162004 -0.052396867 16118506
0.53280002 -0.065147035 -0.055990152 16184043
0.51833338 -0.052010272 -0.050987363 16645107
0.52444452 -0.054941218 -0.054789722 16579570
0.53075004 -0.056674432 -0.059353262 16711156
0.51825005 -0.046541587 -0.051282916 16118763
0.52417868 -0.045933474 -0.054595646 15855334
0.53084624 -0.044374023 -0.058432367 15526369
0.52700001 -0.038075093 -0.052150074 14013387
0.53100008 -0.039192218 -0.055134658 13684679
0.74466664 -0.0020841996 -0.054079924 14211021
0.74671435 0.0029914563 -0.05397623 13948362
0.75183344 0.0072857053 -0.056357279 13948105
0.7567144 0.012522081 -0.054699279 13487811
0.76217657 0.01798808 -0.055242501 13882569
0.7677778 0.022417359 -0.053955335 13882312
0.77238101 0.026859317 -0.05556995 13882312
0.77611768 0.032850768 -0.055182546 13882312
0.78150004 0.037759531 -0.054921389 13685192
0.78727776 0.043262508 -0.055019557 13882572
0.79057151 0.047846969 -0.056352228 14342868
0.79462069 0.054338463 -0.055075392 13158593
0.78900003 -0.14012124 -0.048059266 12630451
0.79450011 -0.14473173 -0.044858873 12433842
0.778 -0.13088246 -0.045565117 12235436
0.78505558 -0.13544373 -0.045061164 12433072
0.79000002 -0.13844942 -0.040722564 12499635
0.76779997 -0.12125809 -0.044970039 14670805
0.77372229 -0.12624267 -0.044711962 14539218
0.75666672 -0.11277096 -0.045731928 14735828
0.76192313 -0.11761518 -0.045449071 14473170
0.74613643 -0.10361227 -0.045287594 15459037
0.75199997 -0.10802527 -0.042941596 14669779
0.74375004 -0.09755414 -0.045153003 15459293
0.51750004 -0.062376179 -0.042880826 16052200
0.52238464 -0.06332802 -0.047062203 15920614
0.50760001 -0.052360535 -0.040662993 16645621
0.51456869 -0.054728765 -0.045407675 16579314
0.52033335 -0.058301497 -0.049153656 16447728
0.50672734 -0.045237027 -0.041274697 16315885
0.51358145 -0.044933245 -0.046530496 16249836
0.50800002 -0.037889279 -0.040754896 15460576
0.51314294 -0.038191698 -0.044566058 15065818
0.52100003 -0.038860694 -0.048810337 14539729
0.74300003 -0.0014987045 -0.048736084 14342350
0.74586672 0.0051968326 -0.044791985 14079178
0.75566679 0.013519615 -0.045144469 13618627
0.76127279 0.018879179 -0.04507577 13816004
0.76690006 0.022691753 -0.044920135 13816004
0.77219999 0.027368484 -0.045229934 13749954
0.77652633 0.034221184 -0.044811592 13684163
0.78099996 0.038039353 -0.047267646 13881800
0.78599995 0.044295441 -0.04496124 14144717
0.79000002 0.048340406 -0.049969584 13816524
0.78875005 0.050572164 -0.042043429 15131610
0.79250008 0.055279277 -0.044990536 15131866
0.79591674 -0.14274992 -0.034971338 12499121
0.78666675 -0.13418564 -0.035024371 12564916
0.79120004 -0.13865973 -0.035226375 12433329
0.76900005 -0.12036718 -0.035139456 14604499
0.77366668 -0.12442511 -0.035503894 14605011
0.78066665 -0.1295035 -0.032930452 14867670
0.75883341 -0.11167008 -0.034673918 14407119
0.76272225 -0.11581736 -0.034851748 14538706
0.74800003 -0.10132043 -0.038557567 14802390
0.75630772 -0.10592254 -0.033941008 14933720
0.75716668 -0.097244091 -0.031053847 15328734
0.49900001 -0.0605831 -0.032731235 16117478
0.50600004 -0.060248412 -0.035559501 15393755
0.51300001 -0.061383873 -0.038757645 16249835
0.49574995 -0.053399801 -0.03281384 16579568
0.50400001 -0.054114468 -0.037276603 16579827
0.5108 -0.058668543 -0.039006162 16250349
0.49485365 -0.045190819 -0.033514135 16381933
0.50266659 -0.044617984 -0.038203523 16381677
0.49526674 -0.036938783 -0.032878548 15460831
0.50340003 -0.037311174 -0.037265982 15394782
0.755 0.0090819011 -0.034492701 14013897
0.75775003 0.013552674 -0.03462217 13618625
0.76050013 0.018940538 -0.034751046 13684418
0.76595253 0.024076218 -0.034787219 13816004
0.77077776 0.02851928 -0.035723105 13750211
0.77425009 0.034617431 -0.034398567 13552576
0.77771431 0.040826771 -0.033848781 13683905
0.78404772 0.046146724 -0.034909546 14276042
0.78858346 0.052408054 -0.035573039 14341835
0.79133338 0.05768634 -0.035234965 14407886
0.79456002 -0.14409241 -0.025036914 12433329
0.78700006 -0.13461125 -0.024721919 13157050
0.79000002 -0.13844942 -0.025927328 12498864
0.77409101 -0.1240536 -0.024907416 14604754
0.7815001 -0.12964176 -0.024731075 14604753
0.75900006 -0.1116946 -0.02668676 14077899
0.76300001 -0.11544088 -0.024725856 14538961
0.75770009 -0.10529821 -0.024867889 14275534
0.75506663 -0.096741766 -0.024078064 14868437
0.47775003 -0.052411638 -0.020713244 16447468
0.48405883 -0.053301308 -0.025164254 16513262
0.49077782 -0.054480646 -0.029639158 16644849
0.47696158 -0.044722635 -0.02119622 16513006
0.48417327 -0.045028642 -0.026450824 16513006
0.49000001 -0.04916653 -0.029846694 16776691
0.47760004 -0.037074037 -0.020482996 15920872
0.48355004 -0.03529489 -0.025144888 15197661
0.48285717 -0.028910343 -0.02247183 12566454
0.75900006 0.014460515 -0.028019385 13619395
0.76075006 0.018278988 -0.025190344 13355967
0.76542854 0.024657622 -0.024949903 13750468
0.77025008 0.029100206 -0.026181608 13684418
0.77332002 0.034651197 -0.025380647 13487039
0.77731258 0.042107288 -0.024600567 13618625
0.7838949 0.047777571 -0.025050156 13881541
0.78850001 0.052863941 -0.024955153 14013127
0.7918334 0.057723805 -0.025057985 10460305
0.79669994 0.062553026 -0.0259583 9868681
0.79600006 -0.14358148 -0.015523969 12367792
0.78733343 -0.13257807 -0.015271518 14538960
0.79089993 -0.13749704 -0.014105462 13354431
0.77560002 -0.12285572 -0.015646642 14736339
0.78242862 -0.12744141 -0.013901512 14801875
0.76394999 -0.11323397 -0.015860245 14539218
0.77166671 -0.11797588 -0.01348165 14670546
0.75657135 -0.10406911 -0.015532366 13881288
0.76066667 -0.1083784 -0.012498706 13683909
0.74818188 -0.092906326 -0.014047115 14341838
0.75113338 -0.096705429 -0.015744019 14276044
0.46733338 -0.051631942 -0.012058355 16314857
0.47304004 -0.053002492 -0.016639307 16183269
0.46612203 -0.044563368 -0.012908236 16578799
0.47216138 -0.045524471 -0.017425425 16447213
0.46571058 -0.035335284 -0.012650758 15789797
0.47324243 -0.034554351 -0.017216496 15395041
0.46833336 -0.027988113 -0.011716093 13685192
0.47336367 -0.028657792 -0.015640857 13224642
0.76166672 0.019860545 -0.017864363 13027258
0.76558632 0.025469955 -0.015422724 13684674
0.76900005 0.030853223 -0.0117363 13684418
0.77271432 0.034882817 -0.015669378 13618626
0.77643746 0.041946791 -0.014916909 13289662
0.7838667 0.04796901 -0.014716386 13684419
0.78837508 0.052624825 -0.015493046 13881797
0.79333329 0.057092529 -0.014895196 10723477
0.7883637 -0.13161993 -0.0050687841 14736597
0.79284227 -0.13690034 -0.0044309977 14736340
0.77800006 -0.1217759 -0.0057998844 14604753
0.78384215 -0.12607518 -0.0039941762 14736340
0.76800001 -0.11167119 -0.0076745884 14670034
0.77399999 -0.11608054 -0.0042364188 14538704
0.75790918 -0.10217998 -0.0061613037 13222843
0.76333332 -0.10638038 -0.0037044014 14472910
0.77100003 -0.10985067 -3.4811783e-05 14867413
0.74825007 -0.091939896 -0.006820689 13420735
0.75331581 -0.096105382 -0.0038342248 13289150
0.45875004 -0.050998252 -0.0012292638 15723233
0.46187884 -0.052603599 -0.0058285655 15591392
0.44837505 -0.041973189 -0.00067690038 16447469
0.45592731 -0.044665232 -0.0042981789 16249833
0.46145457 -0.046698228 -0.0085667213 16447212
0.44767743 -0.034977056 -0.0011383139 15921125
0.45445102 -0.035231452 -0.0057270485 15855332
0.46128568 -0.034013391 -0.0094312187 15395040
0.44859999 -0.027684709 -0.00086114864 13948106
0.45292303 -0.028079482 -0.0041912436 13882314
0.46320003 -0.028692707 -0.0089153778 14474454
0.76500016 0.027224371 -0.0052989051 13618882
0.76738465 0.032309894 -0.0030770714 13553602
0.77194124 0.036182608 -0.0056695463 13355968
0.77644455 0.042061307 -0.0045794938 13158589
0.78421438 0.047464665 -0.0051485263 12566453
0.78857148 0.050890315 -0.004781852 10723736
0.79405266 0.055246979 -0.0046312707 9473924
0.79900002 -0.14189716 0.0055753444 15657185
0.78866673 -0.13113846 0.0048887217 14802388
0.79352635 -0.136434 0.0057330565 15065560
0.77900004 -0.12010878 0.0027003065 14670802
0.78452176 -0.12495937 0.0057150344 14539216
0.77545851 -0.11427259 0.0055642147 14867667
0.76590914 -0.10325896 0.0045338082 14472910
0.77140003 -0.10738053 0.0059256358 14538704
0.75693333 -0.094264992 0.0045751319 13354943
0.7610001 -0.099009648 0.0060760309 13815493
0.7536667 -0.089737587 0.0070257005 13289149
0.45733336 -0.051600065 0.0014058109 15788514
0.43647832 -0.042820569 0.0073939925 16183527
0.44367746 -0.043851566 0.003391661 16183784
0.45275 -0.048478633 0.0017010837 15986405
0.4348703 -0.035078794 0.006851424 16052712
0.4430303 -0.034642745 0.0022707891 15921382
0.43516672 -0.027360737 0.0078680208 14539988
0.44440743 -0.02694336 0.0032867522 14079692
0.76179999 0.028067887 0.0031746712 13619395
0.76545006 0.033404954 0.0053410013 13422017
0.77079999 0.038143266 0.0053790351 12961465
0.77518183 0.041331917 0.0050779954 13356223
0.7846154 0.046461884 0.0057562524 9737608
0.78900003 0.050126277 0.0018114387 9079678
0.79393333 0.052801318 0.0057872008 9342850
0.79900002 -0.14002669 0.016798185 15986662
0.79354548 -0.13485588 0.014573505 15854563
0.78679174 -0.12484583 0.014548237 14670546
0.79000002 -0.1292024 0.018458372 15262169
0.77660006 -0.11292414 0.014783111 14473166
0.78200006 -0.11821792 0.015397352 14276045
0.76749998 -0.10081841 0.012093575 14341839
0.77269232 -0.1051563 0.0158283 14539217
0.75816673 -0.091457553 0.011799224 13617858
0.76249999 -0.09495949 0.015960285 14012874
0.75700003 -0.087476641 0.015626451 13815494
0.76000005 -0.088712506 0.019536596 13881286
0.41900003 -0.040571071 0.019598814 16380650
0.42328581 -0.041901976 0.016529713 16249064
0.43084621 -0.042223867 0.010918861 15986661
0.41776472 -0.033981439 0.019137826 16315627
0.42475954 -0.035066225 0.014616774 16183784
0.4300909 -0.035650376 0.010232111 15920868
0.41827276 -0.026834317 0.019208323 15197916
0.42303237 -0.026034612 0.015427161 14539986
0.43000001 -0.02754325 0.010046963 14606292
0.76466674 0.032473363 0.010706064 13356224
0.77214295 0.037952211 0.014944976 13290430
0.77570593 0.041913949 0.01566687 10856089
0.78400004 0.046808925 0.014312699 9145471
0.78900003 0.050126277 0.014740882 9211264
0.79506677 0.054239847 0.014852975 9342850
0.79621053 -0.13375293 0.024492374 14933460
0.7885384 -0.12314217 0.023394924 15328476
0.79140002 -0.1270863 0.025779456 14604239
0.77787507 -0.11151379 0.024777913 14144201
0.78395009 -0.11683899 0.025110066 14670802
0.77388 -0.1048304 0.025328958 14341838
0.76595235 -0.094109401 0.024897927 14473424
0.77050006 -0.098956913 0.026120819 14473424
0.76200002 -0.088277303 0.024718054 14276046
0.40721425 -0.042425301 0.028440701 15789283
0.41497371 -0.042891335 0.023693865 15986149
0.42000002 -0.045092423 0.020628816 16315627
0.40623733 -0.034605745 0.027295593 16118248
0.41347277 -0.035366032 0.022430165 16249834
0.40627667 -0.025569238 0.027597906 15328990
0.41403392 -0.025258707 0.02287218 15000281
0.42000002 -0.020511733 0.020628816 12960699
0.40633336 -0.019526688 0.027879566 13618373
0.77300006 0.038252138 0.022585185 13948360
0.77561539 0.042294655 0.024967773 8816506
0.78400004 0.047189023 0.026445193 9145471
0.78875005 0.050110392 0.025816835 9145471
0.79500002 0.053768892 0.025090447 9408643
0.79833335 -0.13118879 0.032358959 9012862
0.79438889 -0.12465616 0.034991223 10197648
0.77900004 -0.1109905 0.030966928 14276044
0.78604764 -0.11541842 0.034666199 14144971
0.79000002 -0.11903067 0.037877116 10527127
0.77488899 -0.10463224 0.034903485 14604497
0.78200006 -0.10958726 0.03840889 14275022
0.76636368 -0.093699574 0.034625448 14539217
0.77125001 -0.098602295 0.036076553 14933719
0.76256263 -0.087450743 0.034332886 14407631
0.39714637 -0.04268527 0.037053745 15394269
0.40172219 -0.042033043 0.031586513 15723490
0.39500991 -0.034753732 0.035950325 15921126
0.40085194 -0.035634585 0.030878223 16184041
0.39480972 -0.024871467 0.035969049 15395038
0.40109381 -0.025074134 0.030936584 15460575
0.39434427 -0.015843112 0.03697443 13355713
0.40066668 -0.01894288 0.031246206 14210766
0.39450002 -0.0086463494 0.038309336 8816503
0.77900004 0.044020005 0.030966928 9079932
0.78900003 0.048279215 0.033211511 9277057
0.79000002 0.048340406 0.035103012 9211264
0.79514283 0.05238267 0.033469748 9211264
0.79720002 -0.12179591 0.042517155 10066319
0.78780013 -0.11187537 0.042014264 14605011
0.79347062 -0.11545923 0.044986907 9671304
0.80150008 -0.11888766 0.048748285 10658455
0.77650005 -0.10245538 0.042684421 14604241
0.78399998 -0.1052275 0.045637179 14012361
0.79000002 -0.10793425 0.048973542 8684153
0.76833338 -0.092083998 0.041935083 14868183
0.7736876 -0.096312419 0.044910129 14539218
0.78000003 -0.098351024 0.049266621 14012104
0.76666671 -0.088892944 0.041844636 14868183
0.38880005 -0.041014642 0.048767857 14670547
0.39239353 -0.043003511 0.044803683 15525856
0.38772413 -0.034828223 0.046654131 10658460
0.3908537 -0.035338338 0.041624501 15526625
0.38725758 -0.025342254 0.046284035 8948356
0.3906177 -0.02450766 0.04121175 14869208
0.38826096 -0.017418483 0.047362383 13487813
0.39137805 -0.014115466 0.043633159 13948363
0.39583585 -0.0070686308 0.045990117 13158591
0.40081814 -0.0023421405 0.045560181 13355970
0.40634224 0.004502242 0.046664756 13685191
0.41000003 0.0097309807 0.048452266 13422020
0.40900001 0.011143461 0.044025447 14539727
0.41340432 0.014952453 0.047467541 13684936
0.41700003 0.021123862 0.04879218 13684938
0.79800004 -0.11276469 0.050403543 11052702
0.78800005 -0.10181937 0.052232336 13157564
0.79400003 -0.10519959 0.055111192 9539204
0.80150002 -0.10856728 0.057193507 10592147
0.77866673 -0.092713505 0.052828927 14341839
0.78560001 -0.095994778 0.055264056 13947082
0.79066676 -0.099079527 0.058578711 8223090
0.39200002 -0.050712444 0.058897298 15263198
0.38798276 -0.042879187 0.056136236 14605267
0.39160004 -0.046849389 0.054121219 15262942
0.38436481 -0.034868199 0.05507848 3619637
0.38265905 -0.024957703 0.055066627 2633000
0.38667268 -0.015794527 0.055219971 11514024
0.39014286 -0.011224887 0.052954771 13356226
0.39385357 -0.0054195691 0.055033896 12961725
0.40000001 -0.00080683961 0.05101613 13158593
0.39792314 0.0010615203 0.058023077 12764090
0.4035607 0.0052660839 0.054690201 12829883
0.40799999 0.01164504 0.057037242 12566711
0.4145309 0.015901951 0.054346163 13027262
0.41810003 0.021179544 0.05635494 12829885
0.42278188 0.02458705 0.056147255 13027006
0.43000001 0.02832514 0.054842338 13619399
0.42900002 0.030267864 0.058731988 13027263
0.43438712 0.03347756 0.057676058 13093313
0.44524443 0.037068319 0.054030258 13487559
0.44781262 0.042703439 0.056847431 13224644
0.45303574 0.046063144 0.055355404 13487559
0.45657143 0.05160882 0.059069689 13290180
0.46464109 0.055627659 0.056312922 13619144
0.46691668 0.060908269 0.057451501 13750730
0.47366667 0.065951645 0.05764335 13619145
0.48066673 0.069546588 0.058866605 13948110
0.48550004 0.074045643 0.059644774 13948110
0.49000001 0.078161433 0.059627011 13816524
0.52525008 0.096700847 0.059304118 14144973
0.53149998 0.1015792 0.059700049 14473425
0.79699999 -0.10111728 0.06215784 10657942
0.78900003 -0.093944654 0.060917459 10065040
0.79166669 -0.09673351 0.061742157 8222579
0.38883337 -0.051152486 0.06870693 15723490
0.39184913 -0.053202264 0.065666385 15591648
0.38708052 -0.044833697 0.065433182 14276303
0.39025003 -0.048864659 0.061762717 15460320
0.37862504 -0.031620245 0.068342827 2370598
0.3824144 -0.03530027 0.064540952 3948603
0.3785958 -0.025880694 0.068339944 2370598
0.38071764 -0.024485914 0.063669749 2566950
0.38491338 -0.015146622 0.065009758 10132628
0.38899997 -0.0092483964 0.066728167 12698554
0.39271834 -0.0047521777 0.064667173 12698554
0.39728305 0.0019219511 0.065084897 12501175
0.4022575 0.0071710874 0.064968951 12369333
0.40710467 0.012981679 0.065424137 12237748
0.41190901 0.017822476 0.064234994 12303797
0.41598254 0.022812106 0.065412 12369333
0.42217508 0.027936986 0.064883545 12566712
0.42693332 0.031789325 0.065573625 12829884
0.43296665 0.036283422 0.0646936 12764347
0.43850005 0.041546449 0.06738852 12829883
0.44469121 0.045682475 0.064790837 12895676
0.45139998 0.049390934 0.061058182 13158593
0.44885722 0.050883282 0.067679629 12698554
0.4553684 0.053905956 0.065003365 13027519
0.46218517 0.058458574 0.064252481 13159107
0.46572974 0.062978797 0.065775797 13356228
0.472 0.067631803 0.065313376 13619400
0.47641668 0.07144203 0.067451127 13619656
0.48434097 0.075718731 0.065578565 13750729
0.49087501 0.079019994 0.062749311 13684937
0.4885 0.081352927 0.068878204 14145743
0.49479082 0.084429905 0.065919451 13816778
0.50342858 0.088214792 0.064116485 13750985
0.49900001 0.09011057 0.068899378 13816524
0.50491661 0.092659898 0.067446701 13685194
0.5142501 0.09617652 0.066062778 13750985
0.523 0.095059656 0.061292719 13881801
0.51725006 0.10097471 0.068995126 13619400
0.52476925 0.10530446 0.067538351 13750985
0.53342307 0.10679544 0.062933899 13882059
0.52850002 0.11090251 0.068641707 13750985
0.53166664 0.11430015 0.066320576 13882315
0.53700006 0.12265836 0.06858062 14145485
0.39273077 -0.061506663 0.076742001 15394271
0.38808456 -0.053287316 0.075796947 15131099
0.39150003 -0.057569623 0.073848113 15460063
0.38553286 -0.044968747 0.074935719 13486532
0.37814298 -0.032664176 0.075289883 2501413
0.38194823 -0.037372805 0.074858338 5856085
0.37777001 -0.024992667 0.075032398 2238497
0.37845007 -0.018615153 0.077192143 2830379
0.3837944 -0.014537896 0.074661545 10329750
0.38865003 -0.0087669352 0.075202234 12698554
0.39210716 -0.0037891504 0.074778885 12632761
0.39681157 0.0026244 0.075492434 12566968
0.40109256 0.0075925239 0.074522845 12369589
0.40585569 0.014161966 0.075375363 12238003
0.41094446 0.018733151 0.073093779 12303797
0.41528723 0.024255449 0.075081699 12369334
0.42076924 0.029460071 0.074386664 12566969
0.42493847 0.033756606 0.075763851 12566713
0.43136665 0.038380649 0.073658682 12567226
0.43610293 0.043884773 0.07561285 12566969
0.44131815 0.048325464 0.073750556 12501175
0.44580567 0.053319458 0.076886669 12895933
0.45461771 0.057306312 0.074248679 13093312
0.4605 0.059441298 0.070590153 13488070
0.4577648 0.061737157 0.077007093 13290691
0.46420968 0.065694414 0.074481979 13487813
0.47000003 0.069103025 0.070763357 14211536
0.46786669 0.071856931 0.077668533 13619656
0.47345608 0.075274885 0.074599899 13553863
0.48180002 0.078434557 0.07103423 13619399
0.47722223 0.081462301 0.078055307 13750985
0.48422503 0.084669188 0.075694747 13816778
0.49257141 0.08746928 0.072619215 13750985
0.4876667 0.090728052 0.079511732 14079950
0.49497557 0.093965888 0.076361299 13619399
0.5033043 0.096526459 0.07297235 13750985
0.51133335 0.099121243 0.07100106 13619145
0.49866667 0.10094625 0.078970455 13619399
0.50514287 0.1039511 0.077684723 13816521
0.51391178 0.10532858 0.074061833 13816266
0.52200001 0.10786147 0.071309008 13619399
0.51570594 0.11280045 0.077947907 13881801
0.52429169 0.11472452 0.075043119 13750728
0.53208339 0.11798798 0.072634153 14079950
0.52525008 0.12128914 0.079285286 14210766
0.53623641 0.12523088 0.074966729 14211281
0.54000002 0.12911819 0.071400076 12696759
0.53825927 0.13425511 0.077445447 14408403
0.54025 0.1321812 0.072696991 8946043
0.53800005 0.14123465 0.079322174 9734278
0.389 -0.061343282 0.08758755 15065562
0.39143282 -0.06451568 0.085588433 15394271
0.38712922 -0.055201031 0.085028976 14999770
0.38501623 -0.044943951 0.084788613 13091259
0.3766287 -0.032895923 0.084926009 2436133
0.38148889 -0.03780514 0.084942997 7894640
0.37484038 -0.024888607 0.084658206 1909532
0.37607411 -0.017760219 0.084995955 4079674
0.38425922 -0.012677778 0.084259473 11645610
0.3881081 -0.007262317 0.085509464 12435383
0.39134619 -0.0025307408 0.084195107 12764347
0.39570284 0.0038544042 0.085220173 12566968
0.40018186 0.008902058 0.084210701 12238003
0.40449071 0.014725925 0.085048944 12172467
0.40860873 0.021177294 0.087069243 12106418
0.41360921 0.025632828 0.084548414 12238004
0.42000002 0.029632874 0.080605693 12369589
0.41806677 0.031194018 0.08728034 12303796
0.42365435 0.035424896 0.084617727 12566968
0.43000001 0.039398156 0.0805116 12763836
0.42820001 0.040536948 0.087489322 12040881
0.43371758 0.045187268 0.08486601 12632504
0.44000003 0.049584828 0.080838896 12500921
0.43883333 0.050823238 0.087815173 12632504
0.44448608 0.055073813 0.08483988 13027262
0.45000002 0.059139419 0.08162269 13224897
0.44900003 0.060409486 0.087397635 13224898
0.45549095 0.06477569 0.085720867 13356483
0.46137503 0.068331011 0.082264781 13488070
0.4650152 0.074169181 0.085410126 13487814
0.47066674 0.078475691 0.08243195 13751242
0.46900001 0.080301352 0.088362783 13356484
0.47437295 0.08414536 0.085348725 13488070
0.48200002 0.087945238 0.082006805 14014157
0.48512971 0.094090089 0.085903816 13619399
0.4916842 0.097393312 0.082424879 13750729
0.49545452 0.10419622 0.085799165 13750986
0.50305885 0.10760893 0.082272328 14014157
0.49900001 0.11113759 0.089926407 13422023
0.50515795 0.11391177 0.086329401 13619400
0.5124445 0.11662254 0.082745984 13882315
0.52000004 0.11946672 0.080320261 14210766
0.50849998 0.12039588 0.088661827 13422277
0.51521879 0.12376064 0.086471498 13751242
0.52380955 0.12582804 0.083001554 14145486
0.53133339 0.12911928 0.081241332 14473938
0.51900005 0.13017187 0.089885712 14145743
0.52542865 0.13313332 0.08730416 14277074
0.53368187 0.13598329 0.083387643 14276560
0.53692311 0.14288813 0.085394911 14078925
0.54133332 0.1478837 0.086431436 11709096
0.54400003 0.1507698 0.088166267 8682620
0.39339122 -0.072689228 0.096058667 15460065
0.38859028 -0.062868126 0.095693111 14934234
0.39121822 -0.067582034 0.094194844 15131100
0.38652909 -0.055076934 0.094992928 14473426
0.3849583 -0.044935539 0.09469001 12696758
0.37471953 -0.033190936 0.094972014 2895914
0.38167739 -0.038328119 0.094463013 10460566
0.37161681 -0.025055476 0.094725117 2172961
0.37288615 -0.017450513 0.095036134 4277565
0.38386488 -0.011990048 0.094163537 11382183
0.38792863 -0.0062907836 0.09507598 12106162
0.39041671 -0.001358132 0.094693147 12171956
0.39517489 0.0048078359 0.09496285 11777454
0.39900002 0.010403971 0.097124867 10461336
0.40262377 0.01492528 0.094651304 11119778
0.40800002 0.021529268 0.094591819 11185314
0.4130944 0.026616016 0.094369464 11250852
0.41796297 0.031411298 0.094383463 11514280
0.42280361 0.0363071 0.094629951 11645866
0.42731246 0.041311439 0.094729543 11448488
0.43290702 0.046601705 0.094091117 11843247
0.4386667 0.05080406 0.093774639 12106418
0.44587034 0.056325387 0.09502469 12106418
0.44900003 0.061057676 0.095105834 12238004
0.45327121 0.066215418 0.094553381 12303539
0.45846161 0.071397386 0.095167622 12106160
0.46366671 0.076093502 0.093641475 12764090
0.46874997 0.081218958 0.093528405 12895676
0.47255325 0.085695006 0.094785012 12435382
0.4781667 0.091386706 0.092329234 13093312
0.48438641 0.096346252 0.094665699 12698554
0.48860002 0.10081454 0.092627943 13224642
0.49418867 0.10573322 0.095233932 12764091
0.49900001 0.11126738 0.095248058 12764092
0.50301957 0.11615005 0.09494219 12698299
0.50757903 0.12205507 0.095909901 12763836
0.51306248 0.12654883 0.093991682 13093057
0.51783335 0.13109151 0.095136262 13487301
0.52403229 0.13567413 0.094159573 13355971
0.53000003 0.13913451 0.090550058 13619656
0.52900004 0.14011039 0.09719041 12500919
0.53471047 0.1447933 0.095400788 12829627
0.54083335 0.14915366 0.092611223 12960700
0.53850007 0.15019038 0.098935202 8749439
0.54333335 0.1524583 0.09451957 10524821
0.39219454 -0.073198408 0.10424129 13749705
0.38846678 -0.063757546 0.10290666 13552582
0.39040625 -0.068305895 0.10508802 12631480
0.38575512 -0.0548806 0.10385013 12895165
0.38460237 -0.045108493 0.10341875 11381671
0.37742478 -0.033893149 0.10474517 3225136
0.38100004 -0.037341658 0.10448116 8158840
0.3689 -0.021384396 0.10465143 659979
0.37261674 -0.025656523 0.10325704 1186579
0.38050002 -0.028826948 0.10954598 791822
0.36869463 -0.017334746 0.10612223 2432792
0.37019992 -0.017489411 0.10214307 2368798
0.38346153 -0.011611133 0.10176672 10329750
0.38685298 -0.0068186321 0.10178391 10724251
0.39135715 -0.0016385269 0.10252977 10658715
0.39463043 0.0033475424 0.10260891 9737611
0.44740003 0.055031024 0.10115578 11119010
0.45116666 0.058059413 0.10225558 10263957
0.45050001 0.061974261 0.10082867 9934991
0.46714288 0.077174477 0.10137074 10263953
0.47381252 0.084603801 0.10119136 10724764
0.48594448 0.095284797 0.10191652 10987681
0.49000001 0.099956311 0.10206967 10921632
0.49464709 0.10547891 0.10139994 11250597
0.49899998 0.11113759 0.10160808 10986909
0.50209093 0.11546607 0.10138044 11513253
0.509 0.12528057 0.10006958 12040113
0.51000005 0.12672064 0.10026619 12368308
0.52600002 0.13746992 0.10156472 10197138
0.52900004 0.14011039 0.1009056 11645096
0.53290915 0.1451208 0.10136478 8749950
0.39333335 -0.07262519 0.11016927 8882048
0.39200002 -0.069616631 0.11010379 9474188
0.37391675 -0.033086881 0.11673096 1975068
0.38063884 -0.032449111 0.11270479 1514775
0.37234783 -0.025199259 0.11680897 726028
0.38118184 -0.02798577 0.11282423 726029
0.36900002 -0.015429515 0.1105543 5197121
0.37135595 -0.017311405 0.11565446 1513229
0.37075031 -0.032883827 0.12526736 1448979
0.37091449 -0.025079548 0.12509978 1580822
0.37327844 -0.016530942 0.1253072 1185295
0.35729724 -0.032503501 0.13837697 1777943
0.364907 -0.032241203 0.13529572 1120273
0.37061292 -0.033017967 0.13208304 2238752
0.35741037 -0.025103291 0.13816324 1580821
0.36389297 -0.025144361 0.1345229 1054479
0.370525 -0.024294745 0.13165507 2436131
0.35693234 -0.016654244 0.13807651 1580821
0.36496672 -0.016938595 0.13602225 791051
0.37264702 -0.017256254 0.13331531 1514517
0.48609096 -0.10142954 0.14729151 8946816
0.48724148 -0.096911259 0.1470041 8881279
0.49109095 -0.092020631 0.14817873 9276805
0.49346438 -0.084950127 0.1478027 9408647
0.49600005 -0.074984834 0.14751559 9671819
0.49617952 -0.064590462 0.14663601 10000528
0.49627274 -0.056198832 0.1465085 10000784
0.34900001 -0.03237902 0.14912094 1581077
0.35286656 -0.032901365 0.14453149 1778199
0.34900001 -0.024152305 0.14835419 1712406
0.35252026 -0.02514568 0.14412349 1843479
0.34900001 -0.015682582 0.14821418 1711637
0.35233346 -0.01662609 0.1442403 1711895
0.48662502 -0.1010879 0.15134943 9145221
0.48760003 -0.097551234 0.15156662 9342857
0.49180764 -0.093047783 0.15328358 9277064
0.50050002 -0.090642452 0.15815413 9145221
0.49594438 -0.085879512 0.15284915 9013892
0.50312501 -0.084047243 0.15832344 8684926
0.49782762 -0.075026825 0.15216744 9211014
0.50331831 -0.074605457 0.1574416 9211271
0.49840003 -0.066169187 0.15136573 9868685
0.50391173 -0.064369351 0.15632404 9737614
0.49900004 -0.055910427 0.15067114 9934221
0.50468755 -0.055990521 0.15575568 9803405
0.51000005 -0.054357111 0.15996215 10000784
0.34589991 -0.03254912 0.15485273 1580822
0.34455556 -0.029732989 0.15681444 1909017
0.52366668 -0.10464749 0.16915236 9013634
0.50400001 -0.094226584 0.16043997 8816256
0.51593757 -0.093818888 0.1664332 8684413
0.52083337 -0.09778104 0.16884738 8683898
0.5072 -0.086508147 0.16145864 8750717
0.51433343 -0.085120879 0.16559172 8816254
0.52060002 -0.082705282 0.16938052 10328979
0.50750005 -0.072901122 0.16036609 9342857
0.51416677 -0.075159311 0.16498499 9671820
0.52100003 -0.074837752 0.16951066 10132114
0.509 -0.068946652 0.16084006 9014146
0.51421213 -0.064542085 0.16457421 10001041
0.5213334 -0.066348426 0.16961913 10132116
0.51397222 -0.055817153 0.16499333 9934990
0.33788636 -0.032178357 0.16745521 1778200
0.34132561 -0.032092314 0.16279829 1778200
0.33720684 -0.025040958 0.16718163 1777944
0.34055224 -0.025093997 0.16273797 1712409
0.33704698 -0.015598423 0.16705233 1580308
0.34075472 -0.016248349 0.16277574 1645590
0.52566671 -0.1105833 0.1753388 9539208
0.52478182 -0.10479198 0.17436358 9013633
0.52497953 -0.094960965 0.17517507 9276548
0.52536845 -0.085272744 0.17440037 9736842
0.53066677 -0.084095389 0.17907406 9736841
0.52583337 -0.075018778 0.1734972 10329492
0.53162509 -0.075119615 0.17856905 10197392
0.52552384 -0.065093897 0.17332955 10066323
0.53213334 -0.065185413 0.17853321 9539978
0.51900005 -0.058151327 0.17007495 10066577
0.52225006 -0.057904176 0.17267069 9803662
0.5316667 -0.059156984 0.17837639 9869199
0.52841663 -0.10373881 0.18120213 9277061
0.53085721 -0.10332996 0.18488048 9144962
0.528 -0.097681962 0.18064696 9671819
0.53358334 -0.094543315 0.18523483 9408391
0.53573537 -0.085510552 0.18405031 9539978
0.54049999 -0.084093846 0.18863496 9211013
0.53750002 -0.07524959 0.18312943 9605769
0.54160875 -0.075072512 0.18768425 9342854
0.53730005 -0.065230496 0.18211047 9277061
0.54276931 -0.065550432 0.1869573 9606025
0.53800005 -0.059020713 0.18259853 9606026
0.54500008 -0.058671098 0.18768845 9540231
0.53833342 -0.094343446 0.19027315 9079682
0.54211116 -0.093310095 0.1925963 9145474
0.54383337 -0.08459153 0.1917934 9277061
0.54460001 -0.075807884 0.19121318 9408647
0.54662067 -0.063976929 0.19249895 9606024
0.55000001 -0.062912278 0.19697182 9013887
0.54750001 -0.058354348 0.19244675 9342852
0.8175 -0.22938906 0.34922776 2171171
0.80850005 -0.22812508 0.35737062 2699304
0.81439996 -0.22591926 0.35518226 2632488
0.80747056 -0.22724023 0.36590183 2041376
0.8129524 -0.22257918 0.36454397 2633255
0.82000005 -0.22049239 0.36085433 1843227
0.81771427 -0.21905641 0.36695775 2567720
0.80678785 -0.22535026 0.37529957 1317396
0.81133336 -0.22132628 0.37096786 2501927
0.80900002 -0.21942843 0.37779325 2304033
0.81439298 -0.21679865 0.37553898 2369828
0.82050002 -0.21294294 0.3738336 2369059
0.80639988 -0.22532921 0.38507357 857102
0.80737489 -0.21583728 0.38545844 1448469
0.81329411 -0.21218753 0.38287118 2040095
0.82000005 -0.21089421 0.38005066 2894892
0.80800003 -0.20969948 0.38867551 1580055
0.81572729 -0.20822939 0.38691747 2764073
0.80544126 -0.22534032 0.39476326 791822
0.80471891 -0.21485226 0.39486533 1054482
0.80663645 -0.20848602 0.39514062 1251350
0.81478959 -0.20593454 0.39439544 2500643
0.82054543 -0.2023025 0.39514655 8422009
0.80525011 -0.22534566 0.40546435 857616
0.80473077 -0.21508171 0.40464014 923154
0.80662513 -0.20839746 0.40406543 1119508
0.81381261 -0.20572461 0.4049235 2369058
0.82107699 -0.20185409 0.40553778 7566445
0.8076154 -0.22617804 0.41372496 791822
0.8107143 -0.22368787 0.41777191 791821
0.80820006 -0.21542695 0.41204357 857362
0.81246156 -0.21450974 0.41679257 857360
0.80900002 -0.20995902 0.41093621 923155
0.81620008 -0.20742981 0.41421214 1250835
0.82194442 -0.20273125 0.41537237 7040359
0.80800003 -0.22814204 0.42792386 462855
0.81272405 -0.22482765 0.42509505 660234
0.8170557 -0.21640463 0.42491171 857358
0.8201251 -0.21260604 0.42762688 988430
0.82264292 -0.20468931 0.42488107 5790035
0.80642414 -0.22570617 0.43496877 726030
0.81171429 -0.22233345 0.43104413 397062
0.8083334 -0.21924762 0.43708929 922895
0.81458628 -0.21646442 0.43493909 791821
0.82044452 -0.21186168 0.43446159 790794
0.82409996 -0.20518836 0.43500417 7106149
0.80672002 -0.2259082 0.4444519 856846
0.81100005 -0.22186771 0.4489736 988433
0.80900002 -0.21942843 0.44123831 988435
0.81437498 -0.21670893 0.44452477 987919
0.82054555 -0.2122563 0.44509029 4672835
0.80842865 -0.22792484 0.45417514 1053710
0.81331587 -0.22369683 0.45571554 1053709
0.82000005 -0.22049239 0.4587557 5527885
0.81725001 -0.21831556 0.45147642 1120017
0.82199997 -0.21437754 0.45558921 7633005
0.81575 -0.22411883 0.46162829 4211001
0.82025003 -0.22103953 0.46321651 8093300
0.82486957 -0.21448793 0.4644182 8027250
