# .PCD v0.7 - Point Cloud Data file format
VERSION 0.7
FIELDS x y z rgb
SIZE 4 4 4 4
TYPE F F F U
COUNT 1 1 1 1
WIDTH 648
HEIGHT 1
VIEWPOINT 0 0 0 1 0 0 0
POINTS 648
DATA ascii
0.55366665 0.046262804 -0.010682094 13486785
0.54900002 0.059297897 -0.010306539 15326933
0.55204171 0.055962745 -0.012087607 13090489
0.53900003 0.069574073 -0.010118807 11973037
0.5463143 0.065981299 -0.012708574 12828085
0.55107147 0.06265308 -0.015321928 12762549
0.53766674 0.07191778 -0.010514379 12696500
0.54425001 0.071206883 -0.013725088 12499889
0.55300003 0.02851559 -0.0010326471 14275786
0.54633337 0.036922522 -0.00096419628 11906728
0.55233341 0.034802917 -0.0039543812 12960184
0.53575009 0.046570182 -0.00054896809 12433073
0.54479998 0.045007553 -0.0029626931 12235949
0.55225021 0.04417422 -0.0070166788 13157563
0.52700007 0.056370225 -0.00029873438 13026236
0.53444004 0.055121299 -0.0025824886 12828086
0.54503566 0.054901015 -0.0065460159 12762035
0.55099994 0.051988322 -0.0086246077 13551811
0.51850003 0.068748072 -2.3411038e-05 15261910
0.52433342 0.065313265 -0.0016653349 13420483
0.53487504 0.065084718 -0.0058218273 13420224
0.54320008 0.062608793 -0.0084182452 14340811
0.5172857 0.074638523 -0.00054339657 11972005
0.52455562 0.073756173 -0.0042148004 12236722
0.53209096 0.072529383 -0.0076129665 12039086
0.52570009 0.027122423 0.0093272254 12169388
0.53488892 0.026886355 0.0070670526 11906214
0.54554546 0.027574498 0.0036860937 12038058
0.55080003 0.02648209 0.0017800555 12762293
0.51714289 0.037868269 0.009314971 13552321
0.52413046 0.035325352 0.0076543652 12828340
0.53443998 0.034903515 0.0045739096 12564915
0.54350001 0.033433553 0.0021546136 13617090
0.50750005 0.048275821 0.0094816182 14144462
0.51468182 0.045291867 0.0078568421 12302002
0.52403843 0.045043375 0.0040749209 12697274
0.53308338 0.043013498 0.0018458188 12565429
0.50588238 0.056171894 0.008613036 12170153
0.51431429 0.054965824 0.0054379054 12367020
0.52305889 0.05397195 0.0019914487 12235179
0.49766672 0.067147873 0.0092979027 13748673
0.50459099 0.063466594 0.0075424295 12894133
0.5147742 0.06461852 0.0030410741 12697271
0.52149999 0.060599964 0.0011972943 11184808
0.49737507 0.074678481 0.0086359438 13025721
0.50462961 0.075374469 0.005571642 12762804
0.51265228 0.074305803 0.002166112 12893878
0.54800004 0.009157653 0.018575817 11906217
0.51750004 0.019551259 0.017542463 9998218
0.52377778 0.018695178 0.016465442 11775142
0.53383338 0.016414514 0.018095767 13092028
0.54460007 0.013006278 0.017227309 12630709
0.55000001 0.011766193 0.015425885 14012874
0.49800003 0.028431445 0.01950453 13224640
0.50516671 0.026836149 0.017974939 12828342
0.51486111 0.024739139 0.014934687 12630709
0.52149999 0.024831783 0.011572922 12762294
0.48783335 0.037082504 0.019201631 12697272
0.49447832 0.035338957 0.017739182 12434356
0.5045417 0.035155606 0.014686714 12302512
0.51347828 0.033870779 0.012150618 11710119
0.52000004 0.030601673 0.010932486 11710117
0.48636368 0.045282472 0.018555507 12039855
0.49458328 0.045346532 0.015182255 11907499
0.50339133 0.044172261 0.011860787 12103852
0.51000005 0.040758453 0.010722246 11312792
0.48491174 0.055175945 0.017667798 12237232
0.49472225 0.055203952 0.01344905 11908011
0.50150001 0.054045659 0.010777642 12565684
0.48470756 0.065361038 0.017212177 12893619
0.49347505 0.06467396 0.012389971 13222842
0.485102 0.075318232 0.016610267 13091257
0.49159998 0.074426092 0.01182897 13617344
0.4853889 0.081843287 0.016700108 12565167
0.49000001 0.080455631 0.012595963 13881284
0.54514283 0.0087443739 0.023126049 12762294
0.48436365 0.016641706 0.028942483 11973036
0.49581823 0.018100038 0.025087373 12894393
0.50566667 0.017920027 0.023058826 13617860
0.5115 0.017527845 0.022129958 13223358
0.53485721 0.014480884 0.021617224 11775144
0.54258341 0.011394302 0.022306079 11380641
0.4684 0.028441051 0.029365653 12434611
0.47451723 0.025624465 0.027859375 12105134
0.48411995 0.024860268 0.025314415 12104878
0.49415007 0.024218941 0.022588294 11447202
0.5025 0.022318555 0.020953221 10656145
0.46695453 0.035627466 0.028646596 11643810
0.47387183 0.034797557 0.02545752 11972519
0.48310339 0.035016667 0.02173488 12433840
0.491 0.030618029 0.020667747 12172466
0.46648145 0.044925071 0.028368376 12302511
0.47378722 0.044961944 0.024394535 11841446
0.48127779 0.04521893 0.020820875 11710119
0.46752003 0.054570831 0.028520487 13156535
0.4738909 0.055135101 0.02394939 12235688
0.48044449 0.055264752 0.020223431 12499890
0.46859995 0.064217485 0.029158698 12697527
0.47418764 0.065072961 0.024628885 13222842
0.48050004 0.065736927 0.020338139 12762288
0.46900004 0.074262694 0.029623136 13749698
0.47397104 0.07484445 0.025226684 13682877
0.48072729 0.075760379 0.020541798 13288890
0.46900001 0.080301352 0.029623136 9143159
0.47393343 0.082216099 0.025852855 11973028
0.48050004 0.082832791 0.020787615 13157302
0.52750003 -0.10541138 0.039492562 15066841
0.53228569 -0.10360525 0.039137851 14802899
0.5558334 -0.10131245 0.038141303 14933975
0.565 -0.10034029 0.03568672 12762035
0.55800003 -0.099097148 0.039163448 14276044
0.56508005 -0.095365889 0.038176905 13552577
0.57377779 -0.091298789 0.036835503 14670798
0.57681823 -0.087827556 0.03790462 13025462
0.58366668 -0.0835457 0.03725525 12368560
0.58581257 -0.077036485 0.03811517 11974572
0.44900006 0.015311559 0.039922178 11511712
0.45462501 0.017641103 0.037753552 11972776
0.46516669 0.01757019 0.034700193 12104878
0.47375005 0.016841287 0.032358401 11709865
0.48192859 0.013611275 0.032210048 11183519
0.44829407 0.025454093 0.039426595 12564657
0.45475933 0.025183452 0.036224134 11906982
0.46362078 0.02469865 0.032159507 11907755
0.47000003 0.021057533 0.030786578 13682885
0.44828585 0.034964424 0.038845263 12039080
0.45496371 0.035176788 0.0345929 11776167
0.46190479 0.034645855 0.030975223 12104362
0.44883335 0.042525027 0.039206613 13223354
0.45489231 0.045168102 0.035598986 12170925
0.4619 0.045348242 0.031010976 11447974
0.45607841 0.054789063 0.03696391 12368047
0.46267515 0.055254858 0.032116495 12368816
0.45791888 0.064730175 0.037960067 12762803
0.46350008 0.065353304 0.033105262 12828597
0.45872226 0.074247271 0.038996384 13946818
0.46391559 0.075284839 0.034168378 13617342
0.45900002 0.082350016 0.039736785 10460301
0.46402496 0.082896516 0.035515696 11643550
0.46900001 -0.12171913 0.04938601 14999767
0.473625 -0.12111453 0.047788054 14539474
0.47463334 -0.11613891 0.048230454 13684678
0.48450008 -0.11436342 0.045254875 13487299
0.49066666 -0.11202538 0.043052185 12829113
0.47431251 -0.10734021 0.049107481 13290435
0.4850938 -0.10509759 0.047774881 13618370
0.4930937 -0.10448363 0.045208916 13486784
0.50454545 -0.10398889 0.043785755 14671314
0.51500005 -0.10361793 0.043172825 13684419
0.5243333 -0.10272895 0.042048447 13223867
0.53580004 -0.10117052 0.040864494 12170154
0.54300004 -0.10024676 0.040653013 12565426
0.48750001 -0.098555207 0.049334839 15065816
0.49438471 -0.097590141 0.047603529 13420735
0.50350004 -0.098061733 0.045943934 12368560
0.51200002 -0.097817466 0.045822211 11908522
0.5262 -0.099113531 0.044072125 14737107
0.53586197 -0.095027797 0.045828763 13289918
0.54426312 -0.094913885 0.043627035 13421505
0.55406666 -0.094677806 0.041997503 12961212
0.56230003 -0.092220649 0.041437782 12961210
0.53866673 -0.088937931 0.048735183 13618368
0.54450005 -0.086769871 0.048320454 13486783
0.55519998 -0.08542683 0.047109611 12960184
0.56546438 -0.085384473 0.045119494 13026232
0.57438469 -0.083694234 0.043155037 13289148
0.58216667 -0.081127852 0.041767132 12697782
0.56500006 -0.079834148 0.049570128 13487038
0.57676929 -0.078124538 0.047853176 13157561
0.58364868 -0.075068422 0.044688046 11908522
0.58500004 -0.069654785 0.045166939 11777193
0.43687499 0.0058116526 0.04915306 11381667
0.44275004 0.0068845428 0.045685969 11644325
0.45000002 0.0085734287 0.041064549 13618375
0.4354229 0.015367518 0.047704257 11314845
0.44377783 0.014779836 0.043085597 11578018
0.45100003 0.010704079 0.040100005 13420737
0.43508953 0.025286995 0.046820957 12169899
0.4432703 0.024904912 0.041959506 11118240
0.43611762 0.034756891 0.047697909 12170668
0.44271711 0.035186809 0.042661823 11973804
0.4383077 0.041976329 0.048678603 11184028
0.44402468 0.045369547 0.044725738 11973287
0.45000002 0.048604835 0.040011089 12104358
0.44642666 0.054589234 0.046288449 12105130
0.45148006 0.056166057 0.041324619 12302253
0.44828951 0.064274758 0.047782741 11841445
0.45276788 0.065333471 0.043070436 12762803
0.449 0.074307591 0.048798282 13552321
0.45360827 0.075125486 0.044051304 13355197
0.44900003 0.081607014 0.049382232 12236457
0.45469818 0.083313525 0.044767957 11447456
0.44725001 -0.12366328 0.058347519 13354431
0.45395458 -0.12258721 0.054699745 14078667
0.46400002 -0.12138261 0.051269714 14473426
0.43900001 -0.11085015 0.059587177 13352375
0.44511369 -0.11473732 0.057921365 13946565
0.45460472 -0.11528224 0.054098811 13880774
0.46426088 -0.11443907 0.051055666 13354688
0.43853852 -0.10426068 0.059287373 13550524
0.44470456 -0.10513981 0.056944761 14208968
0.45435891 -0.10531478 0.053262796 13486531
0.46430007 -0.10517423 0.050897341 13421251
0.47320002 -0.10198113 0.050268389 14406602
0.43637508 -0.094194144 0.058715317 13881029
0.4453696 -0.094930515 0.055568434 13617343
0.45403454 -0.095368162 0.052276228 12763066
0.46400002 -0.091093212 0.051031969 12302256
0.48400006 -0.098034881 0.05020703 15197403
0.53600001 -0.091425732 0.050167225 14802899
0.43548647 -0.08510825 0.058635794 13552064
0.44353661 -0.084773913 0.055560809 12828856
0.45280004 -0.088474907 0.051917851 13947079
0.53691673 -0.083569944 0.053129736 12828596
0.54283339 -0.082632996 0.051014364 13552319
0.55300003 -0.080085017 0.050463766 14079176
0.43466672 -0.073689967 0.058766715 13948105
0.44275004 -0.07728377 0.055946611 12763061
0.53761911 -0.076117292 0.055531316 13618112
0.542 -0.076072663 0.053263057 12434351
0.55700004 -0.079360344 0.050828785 14013383
0.56424999 -0.078077458 0.051159129 12565937
0.57673341 -0.074694395 0.051729035 12829365
0.58050001 -0.072515793 0.050255347 12566452
0.42633337 -0.063185915 0.05953078 13224384
0.43187502 -0.068737835 0.058743857 13157818
0.54500002 -0.068719625 0.058664713 10000012
0.42387503 -0.057057865 0.059142776 13881542
0.41787499 -0.0024339098 0.059287317 11381667
0.42228004 -0.0046108002 0.057786752 11579046
0.43200001 -0.0014781787 0.052568186 13354686
0.41739392 0.005018211 0.058606844 11841445
0.4241229 0.0052202661 0.05522288 11578276
0.43160722 0.0038553362 0.05183221 11710633
0.41724142 0.015125334 0.058619462 11775911
0.42382064 0.015144889 0.05434576 11709860
0.43039995 0.013907254 0.05069482 11775653
0.41839999 0.022763107 0.059337389 12828855
0.42406395 0.025154281 0.055282548 12170925
0.43013334 0.025649715 0.050663617 12302255
0.42582539 0.034382343 0.056667376 11842471
0.43134153 0.035880215 0.052239697 11776166
0.42766666 0.041271191 0.058714103 10657686
0.43402222 0.045280404 0.054706875 12170665
0.44000003 0.049069803 0.050452482 13157046
0.43689829 0.054231133 0.05700656 11907749
0.44156411 0.055860765 0.052589998 12171180
0.43873921 0.064225458 0.058658212 11973544
0.44308969 0.065293558 0.053734738 12499631
0.4390001 0.073820874 0.059350014 12894902
0.44397804 0.075090624 0.054454636 13223611
0.43900001 0.080303341 0.059587177 9603710
0.44565576 0.083554551 0.054569881 11447198
0.43215388 -0.13192171 0.068538636 12302003
0.42814288 -0.12199891 0.069424286 12103853
0.4338606 -0.12503868 0.065752335 13288895
0.44219229 -0.12459412 0.061052423 13091002
0.42694294 -0.11454625 0.068570681 12893880
0.43367147 -0.11482179 0.06392464 13288894
0.44128576 -0.11836408 0.06078133 14603726
0.42630917 -0.10456108 0.067384839 12829112
0.433 -0.10542165 0.062515229 13683137
0.41900003 -0.091577172 0.069624029 9671049
0.42434162 -0.094826579 0.066365123 13091514
0.43161294 -0.096048094 0.061481778 13223101
0.41804552 -0.084564015 0.068708308 12631990
0.42375305 -0.085001171 0.064373031 13289406
0.43016672 -0.085627168 0.06057002 12828084
0.41655317 -0.074622639 0.068092205 12894388
0.42375734 -0.075165734 0.063472405 13092025
0.43000004 -0.074799299 0.060378842 13487040
0.40900001 -0.060667261 0.069877304 13158590
0.41511291 -0.064865671 0.067354314 12828599
0.42338607 -0.065332167 0.062692448 12895162
0.43000001 -0.069318719 0.060378846 14078667
0.40855554 -0.054438218 0.069375828 13487557
0.41484717 -0.054784141 0.065560423 12828854
0.42118752 -0.056929838 0.061666213 12236715
0.40826315 -0.045343626 0.06924773 12630446
0.41531181 -0.045535114 0.065651238 12499633
0.42069575 -0.042982426 0.061769329 12894392
0.40766668 -0.03442606 0.069051184 12630963
0.41409373 -0.036951765 0.066741504 12171185
0.42100003 -0.038300801 0.062071811 13683909
0.40579996 -0.024240777 0.069470339 12433840
0.41272733 -0.027004244 0.06822779 11973032
0.42100003 -0.023517277 0.067985222 11643552
0.40351227 -0.014238121 0.068217158 12038824
0.41280001 -0.011665953 0.064146325 13289149
0.40514895 -0.0049325773 0.067105271 11446688
0.41358835 -0.0050865924 0.062375251 11513253
0.42100003 -0.0087337475 0.060100675 13355457
0.40540016 0.0050192904 0.066561222 11381151
0.41281247 0.0046819742 0.061544865 11841961
0.40695247 0.014410431 0.067449249 12039338
0.41259682 0.015419702 0.062415484 11249823
0.40838096 0.022668483 0.068769142 11973799
0.41408333 0.025139133 0.064399369 11776167
0.42050004 0.029668152 0.06052091 13090225
0.41618314 0.033952001 0.066691361 11776165
0.42147839 0.036154207 0.062225014 11710886
0.41820002 0.041647099 0.068805411 9670789
0.42386025 0.045218308 0.065166324 12039848
0.43012503 0.048346445 0.061025549 11972259
0.42630908 0.054123491 0.067257345 12105127
0.43188682 0.056037404 0.062850252 12105384
0.42841661 0.062572554 0.069098435 11117978
0.43368423 0.065191649 0.064469732 12434095
0.43424073 0.074949436 0.065029494 13289146
0.4353801 0.083472855 0.06525068 11446683
0.44000003 0.086151525 0.060752962 14078663
0.42413798 -0.13167696 0.075527266 13157050
0.43012503 -0.13227245 0.07096903 12235693
0.41860008 -0.122751 0.079062797 13289148
0.42337364 -0.12516242 0.074728481 12893878
0.42999998 -0.12871034 0.070445225 14669778
0.41738462 -0.1139375 0.077946104 12301485
0.42227539 -0.11543757 0.073311925 13420223
0.41613516 -0.10476077 0.076643251 13288635
0.42137218 -0.10552752 0.071827359 13617859
0.40900001 -0.091306508 0.079452068 9998986
0.41462487 -0.094839916 0.075179666 13157049
0.42040005 -0.098084047 0.071037471 14078664
0.4085162 -0.084335066 0.078308448 12631475
0.41310591 -0.085231908 0.073684767 12697012
0.40688905 -0.074552298 0.076971725 12500147
0.41221997 -0.075815991 0.072179042 12433840
0.40484819 -0.064782776 0.075580657 12368306
0.41100004 -0.066553116 0.070662364 11906980
0.39772418 -0.053298201 0.078576162 13092026
0.4034242 -0.055380493 0.074136361 12236977
0.39667165 -0.044694737 0.077244736 13091513
0.40225744 -0.04529928 0.072369412 12565168
0.39508069 -0.034843117 0.076641202 12104874
0.40239581 -0.035351831 0.071490534 12170156
0.39456341 -0.024811363 0.076169372 11775910
0.40162849 -0.025366265 0.071300924 12368046
0.39464918 -0.014700892 0.075672954 11644323
0.40022734 -0.014861706 0.070805699 12697012
0.39499974 -0.0051340456 0.075904369 11052701
0.40005007 -0.0050215921 0.070689455 10656914
0.39632294 0.0044135121 0.076217033 10854808
0.40051341 0.0056304298 0.071543083 10722193
0.39779419 0.012949438 0.078231394 12236973
0.40202078 0.015788974 0.074067242 10987162
0.40503407 0.025002234 0.075108737 11907750
0.41025001 0.029185507 0.070330821 8814196
0.4075256 0.033866469 0.077107646 11842213
0.41222417 0.036259152 0.072901472 11447201
0.40900001 0.040665645 0.079132907 8881786
0.41479805 0.044797793 0.075148426 11908006
0.42033339 0.048189063 0.071157336 11972772
0.41731486 0.054176707 0.077408791 12105385
0.42208478 0.055725928 0.072810486 12302765
0.41869238 0.06452658 0.079148203 10855319
0.42354339 0.065241568 0.074366391 12433837
0.42374167 0.075053424 0.074977167 13223353
0.43000001 0.079663664 0.070445225 12433068
0.42279419 0.082663 0.076822408 10526097
0.43039998 0.082561977 0.070712082 12367785
0.41507688 -0.13191445 0.08597406 13420477
0.42028576 -0.13283066 0.081081919 11709859
0.40900001 -0.12194575 0.089984313 13354171
0.4140352 -0.12480664 0.084890127 12827828
0.42000002 -0.12964998 0.080605693 15327447
0.40857148 -0.11420105 0.088864505 11973293
0.4129681 -0.11540643 0.083881937 13025721
0.40824619 -0.1046525 0.087340727 12498864
0.41155928 -0.10540766 0.082443707 12894906
0.40656316 -0.094603382 0.085518979 12631218
0.41071433 -0.097939238 0.081088535 13684420
0.40454468 -0.085014291 0.084830903 12564913
0.39792314 -0.072605819 0.088190153 12104364
0.40189588 -0.075560242 0.084177755 12893107
0.39631948 -0.064542435 0.085950851 12695982
0.40042305 -0.066715986 0.081642665 12762033
0.38900003 -0.050870731 0.08922673 11839134
0.39369774 -0.055134125 0.08508081 12432811
0.38850003 -0.044240288 0.088019028 13288892
0.39194173 -0.045336138 0.083045669 11973031
0.38786739 -0.035019372 0.086237453 11578016
0.39068753 -0.035432048 0.081324033 11315101
0.38691679 -0.025048964 0.085732728 9079170
0.38999999 -0.025491294 0.080702066 11381923
0.38695195 -0.015461515 0.08561331 9276033
0.38999999 -0.014542491 0.080569588 12171184
0.38790721 -0.0055648088 0.086292915 10592149
0.3906858 -0.0046798941 0.081563629 10724249
0.38874361 0.0028570495 0.088023581 11579043
0.39185557 0.0053592734 0.083623245 10592148
0.39427608 0.014910649 0.085089713 10920856
0.40000001 0.01979412 0.080512956 6053202
0.39690414 0.024074033 0.086884394 12236716
0.40096074 0.0262684 0.082598493 11118236
0.39883336 0.031407531 0.088992178 12170922
0.40311557 0.03510816 0.084915668 11775909
0.40658176 0.04444265 0.085828245 11841957
0.41132 0.047202114 0.0815956 12038823
0.40838715 0.054166228 0.088645838 12105386
0.4130109 0.055449896 0.083928615 11908266
0.40899998 0.062368445 0.08974494 11250336
0.41420153 0.065035507 0.084730543 12434095
0.41531131 0.074996941 0.085035615 13354682
0.4155218 0.083252318 0.085948206 11446428
0.42000002 0.082235545 0.080605693 9670529
0.40592852 -0.13193248 0.096468434 14013130
0.41090915 -0.13226594 0.091277532 14078664
0.40570363 -0.12487268 0.095503837 12696755
0.41025004 -0.12760125 0.090499282 14341066
0.40452465 -0.11501373 0.095169909 12762805
0.40326422 -0.10494611 0.094914965 12565684
0.39841667 -0.092909634 0.098692 12105904
0.40173963 -0.095487624 0.094226383 13355199
0.39705068 -0.084294312 0.096596614 12301996
0.40054345 -0.086076975 0.09197481 12960184
0.39474168 -0.074899964 0.09505596 12170927
0.40000001 -0.078996837 0.090813436 11381412
0.38858333 -0.06360355 0.098277181 12301741
0.39192474 -0.065511517 0.09367945 12499377
0.38742214 -0.054711312 0.095563151 12564397
0.39061111 -0.057382524 0.091475196 11578274
0.3855679 -0.045009721 0.095037162 12301998
0.3845562 -0.034954213 0.094996132 9406846
0.37868187 -0.023087678 0.099270247 2304548
0.38194212 -0.02521218 0.094448954 2304290
0.37883332 -0.017761691 0.099162459 2238755
0.38166663 -0.014822641 0.094678037 2764072
0.38469657 -0.0052756388 0.094988577 9079939
0.38637865 0.0046532182 0.094905198 10329490
0.38797906 0.014001059 0.09620548 11316384
0.39089754 0.016601261 0.092076659 9802631
0.389 0.021071091 0.098723575 13091507
0.39292002 0.025176656 0.094654828 11578271
0.39621598 0.034711484 0.09539216 11973028
0.40018186 0.038284604 0.091109678 9802633
0.3978667 0.043845192 0.097737014 11908006
0.40142682 0.045665253 0.093445063 11644577
0.40367496 0.054983445 0.094928153 12039079
0.40603459 0.064861245 0.095220119 12170923
0.41020003 0.068121657 0.090440288 12171957
0.40706152 0.074830696 0.095985822 13026231
0.41053855 0.075614877 0.091135189 12763573
0.40732154 0.083616838 0.097186081 11249051
0.41131428 0.084180653 0.092527106 10789272
0.39624244 -0.13195573 0.10704341 14407630
0.40064287 -0.13144547 0.1018774 14999766
0.39656737 -0.12499339 0.10643177 12893878
0.40045699 -0.12506451 0.10141589 12433583
0.3972795 -0.11497431 0.10622055 13157045
0.40016204 -0.11496913 0.1014329 12236200
0.39710674 -0.10482136 0.10544743 11841703
0.40000004 -0.10601218 0.10073936 13815492
0.39543658 -0.095070608 0.10505512 12499890
0.40000001 -0.099129595 0.1001775 14473936
0.38900003 -0.080740251 0.1088969 8815742
0.39272729 -0.085166723 0.10481765 12697268
0.38784418 -0.073952422 0.10682028 12367277
0.39126417 -0.076660737 0.10242795 12762548
0.38557342 -0.065078132 0.10501174 12433583
0.38291475 -0.055040821 0.1048565 12433582
0.38192594 -0.044853773 0.10509395 12367531
0.37881815 -0.030754685 0.10712576 3158825
0.38143232 -0.035172861 0.10461132 8749172
0.37722352 -0.02468645 0.10542546 2304033
0.38000003 -0.028936749 0.10080269 2435364
0.37734702 -0.015410079 0.1054621 2566947
0.38043755 -0.01134293 0.10251356 3092263
0.37866667 -0.0096284626 0.10901737 7566696
0.38214615 -0.0051717777 0.10502416 8684410
0.38291597 0.0048907716 0.10516866 10000011
0.38454649 0.014868244 0.10503009 10855061
0.38701645 0.024522919 0.10545181 11841957
0.39070588 0.028158735 0.10129143 10329231
0.38831249 0.033326931 0.10777814 11709599
0.39218074 0.035761263 0.10343667 11512735
0.39406976 0.044943508 0.10502063 11513249
0.39648497 0.054424834 0.10587681 11973801
0.40017849 0.05630644 0.10142628 12630704
0.39790484 0.064271495 0.10830022 12367530
0.4013752 0.065340452 0.10348349 12630447
0.39900002 0.071118273 0.10926772 8947069
0.40196809 0.075101927 0.10479834 12762803
0.4027527 0.083684795 0.10480709 10789784
0.3889333 -0.13177525 0.11858998 14341838
0.39180952 -0.13223709 0.11392869 13749443
0.38862267 -0.12470149 0.11826872 12762034
0.39172822 -0.12481735 0.11320066 13025204
0.38871059 -0.11584726 0.11870984 12434094
0.39269927 -0.11480007 0.11369672 12959412
0.38899997 -0.10422 0.11920249 12301482
0.39236978 -0.10515822 0.11438343 12368303
0.38851926 -0.093941323 0.11788729 12104103
0.39150596 -0.095524386 0.11327279 12368561
0.38719293 -0.084381677 0.11560528 12235948
0.39042106 -0.08804971 0.11153496 14342351
0.38406146 -0.075017802 0.11512177 12105391
0.37856674 -0.062298585 0.11802812 11446946
0.38153857 -0.065726884 0.11427118 12696753
0.37828103 -0.054464221 0.1163374 12105130
0.38046503 -0.055762406 0.11183414 12039596
0.37830764 -0.045160882 0.11630904 11841702
0.3803024 -0.044784669 0.11157933 12697009
0.37827846 -0.034563608 0.11634768 6513241
0.38026908 -0.036375944 0.11317583 8683636
0.37340957 -0.02506006 0.11500114 2041374
0.37393922 -0.01509237 0.11524075 2632482
0.37852943 -0.0071552456 0.11627622 8025963
0.38038442 -0.003883708 0.11422523 8750200
0.37899989 0.0045167455 0.11859921 10394511
0.38077459 0.0052283891 0.11387797 10000011
0.37900001 0.01165696 0.11953926 11118490
0.38131511 0.015427637 0.11480024 10328718
0.3827742 0.0252517 0.11507542 11315355
0.38510197 0.035118748 0.11514893 11907238
0.38746223 0.044436976 0.11592308 11512993
0.39090624 0.046770897 0.11136756 11710884
0.38868755 0.052247941 0.11787334 11512479
0.39193308 0.055810437 0.11410524 12105130
0.39419857 0.064877138 0.1150071 12170924
0.39624298 0.074887879 0.11519524 12960439
0.40000001 0.077617258 0.11047798 13881541
0.39706674 0.083478823 0.11580668 10329491
0.4000589 0.084474117 0.11126541 11382691
0.38497478 -0.13285495 0.12530449 13683907
0.38418171 -0.12495578 0.12498057 12433838
0.38449651 -0.11488696 0.1249246 12893618
0.38530108 -0.10503013 0.12495866 12828338
0.38407025 -0.094923899 0.12484764 12433325
0.37888888 -0.081874549 0.12898988 11513250
0.38209859 -0.085268565 0.12483425 12434354
0.3781001 -0.074142575 0.12665442 11776165
0.38081813 -0.076191582 0.12239201 13355199
0.37689909 -0.065014929 0.12511297 12368302
0.38000003 -0.068375103 0.12007707 13487298
0.3760325 -0.054960206 0.12492732 11907494
0.37678966 -0.045051124 0.12502143 11908006
0.37677246 -0.035155714 0.12503128 6250069
0.36899999 -0.023864618 0.12915216 1580566
0.37095666 -0.025253398 0.12468772 1778202
0.36899999 -0.01762837 0.12924455 1777944
0.37142718 -0.015180697 0.12466303 2435102
0.37790969 -0.0050516399 0.12493107 8223854
0.38000003 -0.0047696386 0.12007707 5196862
0.37770104 0.0049848966 0.12509479 9868168
0.37794381 0.014987665 0.12536171 10197646
0.38000008 0.017279407 0.12052184 9208694
0.37836254 0.024690719 0.1260498 11250334
0.38048774 0.025586501 0.12151221 10262927
0.37886959 0.032053083 0.12808757 12500403
0.38113159 0.035580259 0.1243736 11381150
0.38354337 0.045090195 0.12505655 11644579
0.38617042 0.055014711 0.12525512 11907751
0.39000002 0.059471134 0.12049799 8288879
0.3880223 0.064258046 0.12625058 11973030
0.3910228 0.066494778 0.12197679 12499373
0.38882223 0.073795497 0.12824458 12368044
0.39144555 0.0754392 0.12351886 12829110
0.38900003 0.080946729 0.12906794 12037791
0.39250985 0.08444985 0.1247944 11117720
0.37900001 -0.13118961 0.13883686 12435383
0.38074985 -0.13273856 0.13475403 13816006
0.37899986 -0.12481592 0.13768701 11447716
0.38048714 -0.12503511 0.13295507 12105130
0.37899983 -0.1147218 0.13695481 11973802
0.38040575 -0.11546513 0.13238713 12500402
0.3787868 -0.10527077 0.13744232 12105904
0.38077918 -0.10494696 0.13282362 12433325
0.37833327 -0.094597764 0.13681436 12039081
0.38049039 -0.095757924 0.13187763 12367789
0.37767452 -0.084807016 0.13489433 11776168
0.38000003 -0.088835597 0.1307521 14144202
0.37580398 -0.074975908 0.13493209 11907495
0.3746002 -0.064872853 0.13486092 11842215
0.37468079 -0.055143472 0.1349863 11381406
0.3755784 -0.045054521 0.13508257 11052183
0.36850002 -0.030419216 0.13688771 2041373
0.37485364 -0.035215594 0.13478884 5131844
0.36574352 -0.024675235 0.13486363 1844250
0.37033334 -0.029356578 0.13089301 2107166
0.36583078 -0.016164413 0.13492596 2172445
0.37186664 -0.011309332 0.13328904 4605241
0.37654385 -0.0050514364 0.13477898 7631719
0.3760969 0.0049636988 0.13513091 9079166
0.37624398 0.015069651 0.13506484 9210752
0.37718356 0.024783298 0.13480435 10328975
0.37824976 0.034437414 0.13508986 10921627
0.38000003 0.038197406 0.13093002 8353903
0.37899995 0.041562367 0.13661875 10855064
0.38069785 0.04572624 0.13421123 11315100
0.38264847 0.054870956 0.13494645 11578014
0.38508311 0.064973988 0.1349137 11644577
0.38660792 0.075017072 0.13502179 12302252
0.38828713 0.084133282 0.13535497 11118490
0.39005879 0.087948687 0.13222565 11908523
0.38900003 0.09028095 0.13779505 7039074
0.39000002 0.090513036 0.13419296 6250072
0.37899998 -0.13141143 0.14112891 12698554
0.38000003 -0.13420452 0.14120476 12500918
0.37899989 -0.12517364 0.1416176 10000526
0.38000008 -0.1229576 0.14358757 10198161
0.37900001 -0.11607094 0.14091301 9341826
0.38000003 -0.11478502 0.14375526 9737096
0.37883779 -0.10464879 0.14161758 9473156
0.380077 -0.10801805 0.14350939 9671560
0.37804565 -0.095277816 0.14198719 9473413
0.37699994 -0.085201412 0.14167033 9144447
0.37514287 -0.075093053 0.14068578 8223602
0.374125 -0.064399906 0.1408097 9407618
0.37431255 -0.055300303 0.1410625 8947840
0.37566671 -0.044198085 0.14163226 9539973
0.36672419 -0.031379767 0.14503437 1514517
0.37495235 -0.036357455 0.1423233 6184017
0.36467385 -0.025126349 0.14503513 988943
0.36379498 -0.015536933 0.14466713 1973783
0.37619367 -0.0048990985 0.14260764 7434596
0.37691069 0.0052442006 0.14321484 8025708
0.37701517 0.015206099 0.14328106 8552563
0.37694457 0.024372661 0.14243086 9143930
0.37836745 0.034798007 0.14212099 9803401
0.38000003 0.038597718 0.1447631 7894888
0.37900007 0.0421969 0.141662 10131598
0.38010722 0.045410536 0.14200698 9802634
0.38152075 0.054217398 0.14197487 11249820
0.38436785 0.065180659 0.1428678 10855575
0.3852163 0.075000308 0.14302681 11447199
0.38731369 0.084223852 0.14249429 10986905
0.38900003 0.09028095 0.14022346 5722956
0.36332262 -0.032281891 0.15633149 2106654
0.36479709 -0.025237517 0.15526387 594184
0.36395359 -0.015700003 0.15504426 1577739
0.36104417 -0.032572754 0.16496105 1317395
0.36151865 -0.024751253 0.16478705 1054735
0.36363807 -0.01640928 0.16479366 1250829
0.35775861 -0.032113232 0.17406972 1054994
0.36061913 -0.032566804 0.17159985 1646614
0.35775295 -0.025028797 0.17332226 1251857
0.36004174 -0.024677098 0.17073387 1778457
0.35785177 -0.018190064 0.17426205 988686
0.36090481 -0.017181324 0.1714936 1186063
0.33855569 -0.033222273 0.18870193 1317907
0.34094232 -0.032967333 0.18570489 1449237
0.33847377 -0.024787087 0.18874891 1317651
0.34079221 -0.025202252 0.18565135 1317651
0.33872968 -0.01705627 0.18871123 1317393
0.34033337 -0.016482074 0.18549426 1317393
0.33763638 -0.032514635 0.19083348 1318164
0.33753839 -0.025172848 0.19081417 1317907
0.3381429 -0.017191429 0.19092919 1251858
